<?xml version="1.0" encoding="iso-8859-1"?>
<!-- Generator: Adobe Illustrator 27.8.1, SVG Export Plug-In . SVG Version: 6.00 Build 0)  -->
<svg version="1.1" id="Layer_1" xmlns="http://www.w3.org/2000/svg" xmlns:xlink="http://www.w3.org/1999/xlink" x="0px" y="0px"
	 viewBox="0 0 518.054 143.304" style="enable-background:new 0 0 518.054 143.304;" xml:space="preserve">
<path style="fill:#FFFFFF;" d="M21.758,16.958c1.402-0.958,2.387-1.614,3.353-2.296c5.494-3.872,11.092-7.555,17.392-10.038
	c7.202-2.838,14.653-4.52,22.401-4.541c25.665-0.068,51.33-0.065,76.995-0.043c1.657,0.001,3.369,0.191,4.958,0.638
	c3.057,0.859,4.679,3.247,4.862,6.669c0.167,3.112-1.321,5.792-4.226,6.838c-1.764,0.635-3.726,0.993-5.602,1.003
	c-15.59,0.086-31.182,0.063-46.772,0.071c-7.436,0.004-14.873-0.108-22.307,0.025c-14.2,0.255-27.043,4.5-37.984,13.715
	C24.015,38.108,18.012,49.927,16.06,63.827c-0.465,3.308-0.586,6.683-0.617,10.03c-0.119,12.623-0.165,25.247-0.181,37.871
	c-0.009,6.71,0.122,13.421,0.138,20.131c0.004,1.512-0.092,3.043-0.337,4.533c-0.775,4.713-4.892,7.417-9.538,6.351
	c-2.637-0.605-4.725-2.808-5.115-5.709c-0.276-2.05-0.365-4.139-0.366-6.211C0.01,91.508-0.002,52.192,0,12.876
	c0-1.272,0.135-2.552,0.314-3.813c0.717-5.055,4.331-8.554,9.098-9.006c6.285-0.596,10.316,3.548,11.366,7.556
	c0.459,1.752,0.457,3.626,0.645,5.446C21.537,14.157,21.614,15.258,21.758,16.958z"/>
<path style="fill:#FFFFFF;" d="M103.498,31.756c13.191,0,26.382-0.003,39.573,0.009c0.793,0.001,1.604,0.043,2.376,0.207
	c5.138,1.089,7.659,6.022,5.568,10.858c-1.144,2.646-3.379,3.73-6.058,4.035c-1.424,0.163-2.874,0.137-4.312,0.136
	c-20.787-0.011-41.573-0.079-62.359-0.011c-4.137,0.013-8.361,0.093-12.391,0.905c-11.165,2.25-19.154,11.763-19.48,23.087
	c-0.375,13.023,8.028,22.397,19.047,24.308c1.094,0.19,2.225,0.238,3.339,0.24c12.952,0.022,25.904,0.002,38.855,0.051
	c2.068,0.008,4.172,0.109,6.193,0.508c3.931,0.776,6.004,3.708,5.845,7.859c-0.141,3.692-2.351,6.163-6.172,6.791
	c-1.175,0.193-2.382,0.269-3.575,0.273c-12.632,0.038-25.263,0.008-37.894,0.105c-2.697,0.021-5.464,0.174-8.073,0.796
	c-9.246,2.205-14.712,8.232-16.719,17.424c-0.474,2.174-0.562,4.429-0.9,6.636c-0.144,0.937-0.366,1.894-0.743,2.758
	c-1.327,3.036-3.838,4.357-7.625,4.126c-3.077-0.188-5.425-2.003-6.252-5.044c-0.352-1.295-0.538-2.676-0.54-4.018
	c-0.018-22.054-0.104-44.108,0.054-66.161c0.119-16.563,10.23-29.875,25.615-34.278c4.9-1.402,9.945-1.508,14.97-1.553
	c10.552-0.093,21.105-0.028,31.658-0.028C103.498,31.769,103.498,31.762,103.498,31.756z"/>
<path style="fill:#FFFFFF;" d="M91.742,127.61c6.634-0.001,13.272,0.132,19.902-0.036c7.437-0.189,13.847-2.927,18.873-8.534
	c10.773-12.019,6.868-33.588-12.175-38.948c-2.724-0.767-5.672-1.002-8.52-1.027c-12.229-0.108-24.46-0.036-36.69-0.063
	c-1.267-0.003-2.561-0.102-3.796-0.368c-4.294-0.925-6.313-3.581-6.081-7.833c0.205-3.764,2.951-6.493,6.995-6.93
	c0.634-0.068,1.277-0.077,1.916-0.076c11.749,0.028,23.5-0.047,35.247,0.142c5.336,0.086,10.746,0.197,15.933,1.617
	c14.578,3.99,23.82,13.585,27.126,28.134c3.6,15.84-0.859,29.573-13.295,40.327c-5.79,5.006-12.756,7.624-20.326,8.24
	c-7.399,0.602-14.833,0.936-22.256,1.031c-7.652,0.099-15.31-0.231-22.965-0.376c-0.319-0.006-0.639-0.029-0.958-0.051
	c-4.72-0.332-7.476-3.176-7.424-7.66c0.05-4.401,2.961-7.34,7.632-7.518c3.273-0.125,6.554-0.06,9.831-0.067
	C84.388,127.605,88.065,127.611,91.742,127.61z"/>
<g>
	<path style="fill:#FFFFFF;" d="M196.648,19.828v35.331h44.711l-0.955,3.932h-47.576V19.828H196.648z"/>
	<path style="fill:#FFFFFF;" d="M264.445,19.828h27.355c1.459,0,2.846,0.281,4.156,0.843c1.311,0.562,2.443,1.339,3.398,2.331
		c0.955,0.993,1.713,2.144,2.275,3.455c0.561,1.311,0.842,2.696,0.842,4.156v17.694c0,1.498-0.281,2.902-0.842,4.213
		c-0.562,1.311-1.32,2.453-2.275,3.426c-0.955,0.974-2.088,1.741-3.398,2.303c-1.311,0.562-2.697,0.843-4.156,0.843h-27.355
		c-1.461,0-2.847-0.281-4.157-0.843c-1.311-0.562-2.443-1.329-3.397-2.303c-0.955-0.973-1.713-2.115-2.275-3.426
		c-0.562-1.311-0.843-2.715-0.843-4.213V30.613c0-1.46,0.281-2.845,0.843-4.156c0.562-1.311,1.32-2.462,2.275-3.455
		c0.955-0.992,2.087-1.77,3.397-2.331C261.599,20.109,262.984,19.828,264.445,19.828z M257.649,48.307
		c0,0.937,0.177,1.826,0.533,2.668c0.355,0.843,0.843,1.573,1.461,2.191c0.618,0.618,1.338,1.114,2.162,1.488
		c0.823,0.375,1.704,0.562,2.641,0.562h27.355c0.936,0,1.824-0.187,2.668-0.562c0.842-0.374,1.572-0.871,2.189-1.488
		c0.619-0.618,1.105-1.348,1.461-2.191c0.355-0.842,0.533-1.731,0.533-2.668V30.613c0-0.936-0.178-1.825-0.533-2.668
		c-0.355-0.842-0.842-1.573-1.461-2.19c-0.617-0.618-1.348-1.104-2.189-1.46c-0.844-0.355-1.732-0.534-2.668-0.534h-27.355
		c-0.937,0-1.817,0.178-2.641,0.534c-0.824,0.356-1.544,0.842-2.162,1.46c-0.618,0.618-1.105,1.348-1.461,2.19
		c-0.355,0.843-0.533,1.732-0.533,2.668V48.307z"/>
	<path style="fill:#FFFFFF;" d="M319.099,48.307V30.613c0-1.46,0.281-2.845,0.843-4.156c0.562-1.311,1.319-2.462,2.274-3.455
		c0.955-0.992,2.087-1.77,3.398-2.331c1.311-0.562,2.696-0.843,4.157-0.843h32.915l-1.011,3.932h-31.904
		c-0.937,0-1.826,0.178-2.669,0.534c-0.842,0.356-1.572,0.842-2.19,1.46c-0.618,0.618-1.104,1.348-1.46,2.19
		c-0.356,0.843-0.534,1.732-0.534,2.668v17.694c0,0.937,0.178,1.826,0.534,2.668c0.355,0.843,0.842,1.583,1.46,2.219
		c0.618,0.637,1.349,1.133,2.19,1.489c0.843,0.356,1.732,0.533,2.669,0.533h27.298c0.974,0,1.872-0.177,2.696-0.533
		c0.823-0.355,1.554-0.852,2.191-1.489c0.636-0.636,1.132-1.376,1.488-2.219c0.355-0.842,0.533-1.731,0.533-2.668v-6.909h-24.771
		l0.954-3.875h27.636v10.785c0,1.498-0.28,2.902-0.842,4.213c-0.562,1.311-1.32,2.453-2.275,3.426
		c-0.955,0.974-2.078,1.741-3.37,2.303c-1.292,0.562-2.668,0.843-4.129,0.843h-27.41c-1.461,0-2.847-0.281-4.157-0.843
		c-1.312-0.562-2.443-1.329-3.398-2.303c-0.955-0.973-1.713-2.115-2.274-3.426C319.38,51.209,319.099,49.805,319.099,48.307z"/>
	<path style="fill:#FFFFFF;" d="M395.098,19.828h27.354c1.46,0,2.846,0.281,4.156,0.843c1.311,0.562,2.443,1.339,3.398,2.331
		c0.955,0.993,1.713,2.144,2.275,3.455c0.562,1.311,0.842,2.696,0.842,4.156v17.694c0,1.498-0.28,2.902-0.842,4.213
		c-0.562,1.311-1.32,2.453-2.275,3.426c-0.955,0.974-2.088,1.741-3.398,2.303c-1.311,0.562-2.696,0.843-4.156,0.843h-27.354
		c-1.461,0-2.847-0.281-4.157-0.843c-1.312-0.562-2.443-1.329-3.398-2.303c-0.955-0.973-1.713-2.115-2.274-3.426
		c-0.562-1.311-0.843-2.715-0.843-4.213V30.613c0-1.46,0.281-2.845,0.843-4.156c0.562-1.311,1.319-2.462,2.274-3.455
		c0.955-0.992,2.087-1.77,3.398-2.331C392.251,20.109,393.637,19.828,395.098,19.828z M388.301,48.307
		c0,0.937,0.177,1.826,0.533,2.668c0.355,0.843,0.843,1.573,1.461,2.191c0.617,0.618,1.338,1.114,2.162,1.488
		c0.823,0.375,1.704,0.562,2.641,0.562h27.354c0.936,0,1.825-0.187,2.668-0.562c0.843-0.374,1.573-0.871,2.19-1.488
		c0.618-0.618,1.104-1.348,1.461-2.191c0.355-0.842,0.533-1.731,0.533-2.668V30.613c0-0.936-0.178-1.825-0.533-2.668
		c-0.356-0.842-0.843-1.573-1.461-2.19c-0.617-0.618-1.348-1.104-2.19-1.46c-0.843-0.355-1.732-0.534-2.668-0.534h-27.354
		c-0.937,0-1.817,0.178-2.641,0.534c-0.824,0.356-1.545,0.842-2.162,1.46c-0.618,0.618-1.105,1.348-1.461,2.19
		c-0.356,0.843-0.533,1.732-0.533,2.668V48.307z"/>
	<path style="fill:#FFFFFF;" d="M230.855,87.233c1.46,0,2.845,0.281,4.157,0.843c1.31,0.562,2.443,1.33,3.398,2.303
		c0.955,0.975,1.713,2.116,2.275,3.427c0.562,1.312,0.843,2.716,0.843,4.213v17.693c0,1.499-0.281,2.903-0.843,4.213
		c-0.562,1.312-1.32,2.453-2.275,3.427c-0.955,0.975-2.088,1.741-3.398,2.303c-1.312,0.562-2.696,0.843-4.157,0.843h-38.027V87.233
		H230.855z M196.704,122.62h34.151c0.936,0,1.826-0.177,2.668-0.533c0.843-0.355,1.573-0.852,2.191-1.488
		c0.618-0.637,1.104-1.377,1.46-2.219c0.355-0.843,0.533-1.732,0.533-2.669V98.018c0-0.936-0.178-1.825-0.533-2.668
		c-0.356-0.843-0.843-1.573-1.46-2.19c-0.618-0.618-1.348-1.104-2.191-1.461c-0.842-0.355-1.732-0.533-2.668-0.533h-34.151V122.62z"
		/>
	<path style="fill:#FFFFFF;" d="M258.435,87.233h48.532l-0.955,3.933h-47.577V87.233z M297.023,104.927l-0.955,3.876h-33.813v13.762
		h44.712l-0.955,3.932h-47.577v-21.569H297.023z"/>
	<path style="fill:#FFFFFF;" d="M319.548,98.018c0-1.46,0.281-2.846,0.843-4.156s1.319-2.462,2.274-3.455
		c0.955-0.991,2.078-1.77,3.37-2.331s2.669-0.843,4.129-0.843h32.916l-0.955,3.933h-31.961c-0.937,0-1.816,0.178-2.64,0.533
		c-0.824,0.356-1.545,0.843-2.163,1.461c-0.618,0.617-1.104,1.348-1.46,2.19c-0.356,0.843-0.534,1.732-0.534,2.668
		c0,0.937,0.178,1.826,0.534,2.668c0.355,0.843,0.842,1.583,1.46,2.219c0.618,0.638,1.339,1.134,2.163,1.489
		c0.823,0.355,1.703,0.533,2.64,0.533h27.411c1.46,0,2.846,0.281,4.156,0.843s2.443,1.329,3.398,2.303
		c0.955,0.975,1.713,2.116,2.275,3.427c0.562,1.311,0.842,2.715,0.842,4.212c0,1.499-0.28,2.903-0.842,4.213
		c-0.562,1.312-1.32,2.453-2.275,3.427c-0.955,0.975-2.088,1.741-3.398,2.303s-2.696,0.843-4.156,0.843h-32.859l0.955-3.932h31.904
		c0.936,0,1.815-0.178,2.64-0.534c0.823-0.355,1.545-0.842,2.163-1.46c0.617-0.618,1.104-1.349,1.46-2.19
		c0.355-0.843,0.534-1.732,0.534-2.669c0-0.973-0.179-1.872-0.534-2.695c-0.356-0.823-0.843-1.554-1.46-2.191
		c-0.618-0.636-1.34-1.132-2.163-1.488c-0.824-0.355-1.704-0.533-2.64-0.533h-27.411c-1.46,0-2.837-0.281-4.129-0.843
		s-2.415-1.329-3.37-2.303s-1.713-2.115-2.274-3.427C319.829,100.92,319.548,99.516,319.548,98.018z"/>
	<path style="fill:#FFFFFF;" d="M385.043,87.233h3.876v39.264h-3.876V87.233z"/>
	<path style="fill:#FFFFFF;" d="M405.994,115.711V98.018c0-1.46,0.281-2.846,0.843-4.156s1.319-2.462,2.274-3.455
		c0.955-0.991,2.087-1.77,3.398-2.331c1.311-0.562,2.696-0.843,4.157-0.843h32.915l-1.011,3.933h-31.904
		c-0.937,0-1.826,0.178-2.669,0.533c-0.842,0.356-1.572,0.843-2.19,1.461c-0.618,0.617-1.104,1.348-1.46,2.19
		c-0.356,0.843-0.534,1.732-0.534,2.668v17.693c0,0.937,0.178,1.826,0.534,2.669c0.355,0.842,0.842,1.582,1.46,2.219
		s1.349,1.133,2.19,1.488c0.843,0.356,1.732,0.533,2.669,0.533h27.298c0.974,0,1.872-0.177,2.696-0.533
		c0.823-0.355,1.554-0.852,2.191-1.488c0.636-0.637,1.132-1.377,1.488-2.219c0.355-0.843,0.533-1.732,0.533-2.669v-6.908h-24.771
		l0.954-3.876h27.636v10.784c0,1.499-0.28,2.903-0.842,4.213c-0.562,1.312-1.32,2.453-2.275,3.427
		c-0.955,0.975-2.078,1.741-3.37,2.303s-2.668,0.843-4.129,0.843h-27.41c-1.461,0-2.847-0.281-4.157-0.843
		c-1.312-0.562-2.443-1.328-3.398-2.303c-0.955-0.974-1.713-2.115-2.274-3.427C406.275,118.615,405.994,117.21,405.994,115.711z"/>
	<path style="fill:#FFFFFF;" d="M473.23,87.233l40.948,34.208V87.233h3.875v39.264h-3.875L473.23,92.288v34.208h-3.876V87.233
		H473.23z"/>
</g>
</svg>
