<?xml version="1.0" encoding="UTF-8" standalone="no" ?>
<!DOCTYPE svg PUBLIC "-//W3C//DTD SVG 1.1//EN" "http://www.w3.org/Graphics/SVG/1.1/DTD/svg11.dtd">
<svg xmlns="http://www.w3.org/2000/svg" xmlns:xlink="http://www.w3.org/1999/xlink" version="1.1"   viewBox="0 0 855 590" xml:space="preserve" width="855" height="590">
<desc>Created with Fabric.js 4.5.0</desc>
<defs>
</defs>
<rect x="0" y="0" width="100%" height="100%" fill="#ffffff"></rect>
<g transform="matrix(1 0 0 1 50 50)"  >
<rect style="stroke: none; stroke-width: 1; stroke-dasharray: none; stroke-linecap: butt; stroke-dashoffset: 0; stroke-linejoin: miter; stroke-miterlimit: 4; fill: rgb(255,255,255); fill-rule: nonzero; opacity: 1;"  x="-50" y="-50" rx="0" ry="0" width="100" height="100" />
</g>
<g transform="matrix(1 0 0 1 50 50)"  >
<rect style="stroke: none; stroke-width: 1; stroke-dasharray: none; stroke-linecap: butt; stroke-dashoffset: 0; stroke-linejoin: miter; stroke-miterlimit: 4; fill: rgb(255,255,255); fill-rule: nonzero; opacity: 1;"  x="-50" y="-50" rx="0" ry="0" width="100" height="100" />
</g>
<g transform="matrix(1 0 0 1 50 50)"  >
<rect style="stroke: none; stroke-width: 1; stroke-dasharray: none; stroke-linecap: butt; stroke-dashoffset: 0; stroke-linejoin: miter; stroke-miterlimit: 4; fill: rgb(255,255,255); fill-rule: nonzero; opacity: 1;"  x="-50" y="-50" rx="0" ry="0" width="100" height="100" />
</g>
<g transform="matrix(1 0 0 1 50 50)"  >
<rect style="stroke: none; stroke-width: 1; stroke-dasharray: none; stroke-linecap: butt; stroke-dashoffset: 0; stroke-linejoin: miter; stroke-miterlimit: 4; fill: rgb(255,255,255); fill-rule: nonzero; opacity: 1;"  x="-50" y="-50" rx="0" ry="0" width="100" height="100" />
</g>
<g transform="matrix(1 0 0 1 50 50)"  >
<rect style="stroke: none; stroke-width: 1; stroke-dasharray: none; stroke-linecap: butt; stroke-dashoffset: 0; stroke-linejoin: miter; stroke-miterlimit: 4; fill: rgb(255,255,255); fill-rule: nonzero; opacity: 1;"  x="-50" y="-50" rx="0" ry="0" width="100" height="100" />
</g>
<g transform="matrix(3.01 0 0 3.01 741.5 88.34)" id="Layer_7"  >
<path style="stroke: none; stroke-width: 1; stroke-dasharray: none; stroke-linecap: butt; stroke-dashoffset: 0; stroke-linejoin: miter; stroke-miterlimit: 4; fill: rgb(255,0,0); fill-rule: nonzero; opacity: 1;"  transform=" translate(-175, -70.08)" d="M 202.1 62.7 L 197.73 84.59 C 192.42999999999998 78.25 184.26999999999998 74.18 175.10999999999999 74.18 C 165.82 74.18 157.55999999999997 78.36000000000001 152.26999999999998 84.85000000000001 L 147.9 62.7 C 147.9 62.7 173.28 46.06 202.1 62.7 z" stroke-linecap="round" />
</g>
<g transform="matrix(3.01 0 0 3.01 427.38 117.51)" id="Layer_7"  >
<path style="stroke: none; stroke-width: 1; stroke-dasharray: none; stroke-linecap: butt; stroke-dashoffset: 0; stroke-linejoin: miter; stroke-miterlimit: 4; fill: rgb(255,0,0); fill-rule: nonzero; opacity: 1;"  transform=" translate(-175, -65.83)" d="M 175 70.58 L 175 70.58 C 174.46 70.58 174.02 70.14 174.02 69.6 L 174.02 62.05 C 174.02 61.51 174.46 61.07 175 61.07 L 175 61.07 C 175.54 61.07 175.98 61.51 175.98 62.05 L 175.98 69.6 C 175.98 70.15 175.54 70.58 175 70.58 z M 178.77 64.85 L 171.22 64.85 C 170.68 64.85 170.24 65.28999999999999 170.24 65.83 L 170.24 65.83 C 170.24 66.37 170.68 66.81 171.22 66.81 L 178.77 66.81 C 179.31 66.81 179.75 66.37 179.75 65.83 L 179.75 65.83 C 179.75 65.29 179.31 64.85 178.77 64.85 z" stroke-linecap="round" />
</g>
<g transform="matrix(3.01 0 0 3.01 201.5 257.42)" id="Layer_7"  >
<path style="stroke: none; stroke-width: 1; stroke-dasharray: none; stroke-linecap: butt; stroke-dashoffset: 0; stroke-linejoin: miter; stroke-miterlimit: 4; fill: rgb(255,0,0); fill-rule: nonzero; opacity: 1;"  transform=" translate(-175, -99.4)" d="M 202.54 105.7 C 202.54 90.49000000000001 190.20999999999998 78.16 174.98999999999998 78.16 C 159.77999999999997 78.16 147.45 90.49 147.45 105.69999999999999 C 147.45 105.99 147.45999999999998 106.27999999999999 147.47 106.57 L 147.45 106.57 L 147.45 133.2 C 147.45 136.41 150.04999999999998 139.01 153.26 139.01 L 196.73 139.01 C 199.94 139.01 202.54 136.41 202.54 133.2 L 202.54 106.57 L 202.51999999999998 106.57 C 202.53 106.28 202.54 106 202.54 105.7 z M 175 137.01 C 163.01 137.01 153.07 120.50999999999999 151.23 107.50999999999999 C 151.29999999999998 107.97999999999999 151.36999999999998 108.46 151.45999999999998 108.94 C 152.46999999999997 109.13 153.51 109.23 154.57 109.23 C 160.78 109.23 166.2 105.86 169.10999999999999 100.86 C 173.94 105.95 180.76999999999998 109.12 188.33999999999997 109.12 C 192.06999999999996 109.12 195.60999999999999 108.35000000000001 198.82999999999998 106.96000000000001 C 198.91 106.35000000000001 198.95999999999998 105.76 198.99999999999997 105.17 C 198.13 118.43 187.72 137.01 175 137.01 z M 151.23 107.51 M 199.06 104.19 C 199.07 103.92 199.07 103.66 199.07 103.39999999999999 C 199.08 103.67 199.07 103.93 199.06 104.19 z M 199.02 105.1 C 199.04000000000002 104.86 199.05 104.61999999999999 199.06 104.38 C 199.05 104.62 199.03 104.86 199.02 105.1 z M 175 157.78 C 142.81 157.78 116.62 131.59 116.62 99.4 C 116.62 67.21000000000001 142.81 41.01 175 41.01 C 207.19 41.01 233.38 67.2 233.38 99.39 C 233.38 131.57999999999998 207.19 157.78 175 157.78 z M 175 45.01 C 145.01 45.01 120.62 69.41 120.62 99.39 C 120.62 129.37 145.02 153.77 175 153.77 C 204.99 153.77 229.38 129.37 229.38 99.39000000000001 C 229.38 69.41000000000003 204.99 45.01 175 45.01 z" stroke-linecap="round" />
</g>
<g transform="matrix(1 0 0 1 593.31 244.14)" style="filter: url(#SVGID_1);"  >
<filter id="SVGID_1" y="-20%" height="140%" x="-20%" width="140%" >
	<feGaussianBlur in="SourceAlpha" stdDeviation="0"></feGaussianBlur>
	<feOffset dx="0" dy="0" result="oBlur" ></feOffset>
	<feFlood flood-color="rgb(0,0,0)" flood-opacity="0"/>
	<feComposite in2="oBlur" operator="in" />
	<feMerge>
		<feMergeNode></feMergeNode>
		<feMergeNode in="SourceGraphic"></feMergeNode>
	</feMerge>
</filter>
		<text xml:space="preserve" font-family="midnightday" font-size="54.603313607714185" font-style="normal" font-weight="normal" style="stroke: none; stroke-width: 1; stroke-dasharray: none; stroke-linecap: butt; stroke-dashoffset: 0; stroke-linejoin: miter; stroke-miterlimit: 4; fill: rgb(255,0,0); fill-rule: nonzero; opacity: 1; white-space: pre;" ><tspan x="-120.51" y="-18.63" >M</tspan><tspan x="-81.25" y="-18.63" >e</tspan><tspan x="-51" y="-18.63" >d</tspan><tspan x="-18.13" y="-18.63" >i</tspan><tspan x="-0.82" y="-18.63" >c</tspan><tspan x="25.17" y="-18.63" >a</tspan><tspan x="54.49" y="-18.63" >l</tspan><tspan x="71.8" y="-18.63" style="white-space: pre; "> </tspan><tspan x="91.46" y="-18.63" >&amp;</tspan><tspan x="-119.74" y="52.94" >P</tspan><tspan x="-89" y="52.94" >h</tspan><tspan x="-57.11" y="52.94" >a</tspan><tspan x="-27.79" y="52.94" >r</tspan><tspan x="-4.37" y="52.94" >m</tspan><tspan x="39.42" y="52.94" >a</tspan><tspan x="68.75" y="52.94" >c</tspan><tspan x="94.74" y="52.94" >y</tspan></text>
</g>
</svg>