<?xml version="1.0" encoding="UTF-8" standalone="no" ?>
<!DOCTYPE svg PUBLIC "-//W3C//DTD SVG 1.1//EN" "http://www.w3.org/Graphics/SVG/1.1/DTD/svg11.dtd">
<svg xmlns="http://www.w3.org/2000/svg" xmlns:xlink="http://www.w3.org/1999/xlink" version="1.1" width="855" height="590" viewBox="0 0 855 590" xml:space="preserve">
<desc>Created with Fabric.js 4.5.0</desc>
<defs>
</defs>
<rect x="0" y="0" width="100%" height="100%" fill="#ffffff"></rect>
<g transform="matrix(2.38 0 0 2.38 427.49 151.85)" id="Layer_15"  >
<path style="stroke: none; stroke-width: 1; stroke-dasharray: none; stroke-linecap: butt; stroke-dashoffset: 0; stroke-linejoin: miter; stroke-miterlimit: 4; fill: rgb(219,80,74); fill-rule: nonzero; opacity: 1;"  transform=" translate(-175, -63.42)" d="M 239.24 98.01 C 238.38 101.88000000000001 237.16 105.62 235.64000000000001 109.21000000000001 C 228.00000000000003 109.02000000000001 217.45000000000002 106.07000000000001 205.31 102.68 C 205.17000000000002 102.64 205.02 102.60000000000001 204.86 102.56 L 231.19 101.75 L 192.16 99.09 C 189.34 98.35000000000001 186.49 97.64 183.59 96.97 L 183.58 96.97 C 171.53 76.28999999999999 166.27 26.560000000000002 166.27 26.560000000000002 C 146.27 49.99 145.33 86.57 145.31 92.53 C 144.54 92.56 143.78 92.59 143.04 92.64 C 143.28 50.730000000000004 162.57 28.010000000000005 163.78 26.620000000000005 C 141.76 48 138.8 87.99000000000001 138.51 93.02000000000001 C 125.53999999999999 94.43 117.16 98.31000000000002 111.83999999999999 102.20000000000002 C 110.07999999999998 96.26000000000002 109.13999999999999 89.97000000000001 109.13999999999999 83.47000000000001 C 109.13999999999999 79.95000000000002 109.40999999999998 76.50000000000001 109.95999999999998 73.13000000000001 L 128.70999999999998 72.56000000000002 L 110.27999999999997 71.30000000000001 C 111.65999999999997 63.90000000000001 114.27999999999997 56.930000000000014 117.91999999999997 50.62000000000001 L 145.81999999999996 49.77000000000001 L 119.53999999999996 47.98000000000001 C 131.23 29.72 151.7 17.62 175 17.62 C 188.5 17.62 201.05 21.68 211.49 28.65 C 205.97 30.419999999999998 206.20000000000002 36.75 206.73000000000002 40.08 C 204.21 36.73 198.16000000000003 30.529999999999998 188.22000000000003 31.339999999999996 C 171.34000000000003 32.72 174.30000000000004 52.37 174.30000000000004 52.37 C 174.30000000000004 52.37 175.49000000000004 49.809999999999995 177.92000000000004 46.839999999999996 C 177.48000000000005 45.58 176.84000000000003 42.76 177.50000000000006 39.61 C 177.50000000000006 39.61 177.71000000000006 44.26 178.45000000000005 46.18 C 179.37000000000003 45.12 180.45000000000005 44.019999999999996 181.68000000000004 42.99 C 181.46000000000004 41.5 180.89000000000004 37.96 181.86000000000004 35.260000000000005 C 181.86000000000004 35.260000000000005 181.49000000000004 39.68000000000001 182.38000000000005 42.42 C 184.52000000000004 40.75 187.10000000000005 39.300000000000004 190.12000000000006 38.510000000000005 C 198.51000000000005 36.31 203.70000000000007 39.620000000000005 205.56000000000006 41.150000000000006 C 202.54000000000005 40.230000000000004 197.36000000000007 39.49000000000001 192.82000000000005 43.13 C 184.48000000000005 49.81 188.42000000000004 63.44 188.42000000000004 63.44 C 188.42000000000004 63.44 189.15000000000003 58.55 192.24000000000004 53.29 C 191.68000000000004 52.55 190.66000000000003 50.96 190.13000000000002 48.64 C 190.13000000000002 48.64 191.24000000000004 51.160000000000004 192.64000000000001 52.64 C 193.26000000000002 51.65 193.97000000000003 50.65 194.78 49.660000000000004 C 194.1 48.900000000000006 192.76 47.27 192.11 45.7 C 192.25 45.85 194.10000000000002 47.93 195.28 49.06 C 196.04 48.2 196.87 47.35 197.8 46.56 C 199.41000000000003 45.18 201.07000000000002 44.38 202.57000000000002 43.92 C 201.64000000000001 44.78 200.81000000000003 46.15 200.3 48.27 C 197.68 59.17 206.4 69.14 206.4 69.14 C 206.4 69.14 205.69 63.75 205.65 57.69 C 204.44 56.83 202.19 55.14 200.94 53.73 C 201.13 53.87 203.81 55.76 205.64 56.739999999999995 C 205.64999999999998 51.8 206.14 46.589999999999996 207.82 43.589999999999996 C 208.48 44.36 209.60999999999999 45.75 210.98999999999998 47.75 C 210.82999999999998 47.92 210.73999999999998 48.03 210.73999999999998 48.03 C 212.32999999999998 50.160000000000004 214.39 53.29 214.64 53.68 C 214.64999999999998 53.7 214.66 53.7 214.66 53.72 C 214.41 53.97 214.25 54.129999999999995 214.25 54.129999999999995 C 216.11 57.16 218.11 60.839999999999996 218.34 61.269999999999996 C 218.35 61.279999999999994 218.35 61.3 218.36 61.309999999999995 C 218 61.56999999999999 217.81 61.74999999999999 217.81 61.74999999999999 C 218.56 62.879999999999995 220.96 68.38999999999999 221.27 69.08 C 221.27 69.1 221.27 69.1 221.28 69.12 C 220.94 69.27000000000001 220.74 69.36 220.74 69.36 C 221.61 71.38 223.26000000000002 76.46 223.49 77.17 C 223.5 77.2 223.51000000000002 77.23 223.52 77.26 C 223.17000000000002 77.37 222.95000000000002 77.45 222.95000000000002 77.45 C 223.50000000000003 78.98 224.91000000000003 85.02000000000001 225.10000000000002 85.83 C 225.10000000000002 85.87 225.11 85.89 225.12000000000003 85.92999999999999 L 224.60000000000002 86.00999999999999 C 225.02 87.75999999999999 225.86 94.07 225.99 95.02 C 225.99 95.07 226 95.11 226 95.16 L 200.97 96.86999999999999 L 239.24 98.01 z M 240.86 83.48 C 240.86 87.12 240.56 90.7 239.99 94.19 L 233.27 94.64999999999999 C 233.29000000000002 94.49999999999999 233.29000000000002 94.30999999999999 233.29000000000002 94.08999999999999 C 233.29000000000002 91.57999999999998 232.50000000000003 84.83999999999999 232.50000000000003 84.83999999999999 L 231.98000000000002 84.90999999999998 C 231.85000000000002 83.38999999999999 230.4 75.82999999999998 230.4 75.82999999999998 C 230.22 75.82999999999998 230.02 75.83999999999999 229.82 75.84999999999998 C 229.23999999999998 73.25999999999998 227.45999999999998 67.32999999999998 227.45999999999998 67.32999999999998 C 227.26999999999998 67.34999999999998 227.07999999999998 67.36999999999999 226.89 67.38999999999999 C 225.95999999999998 64.14999999999999 223.45 59.11999999999999 223.45 59.11999999999999 C 223.26999999999998 59.14999999999999 223.10999999999999 59.17999999999999 222.95 59.21999999999999 L 222.95 59.209999999999994 C 222.41 57.85999999999999 221.26999999999998 55.949999999999996 220.25 54.36999999999999 C 219.24 52.78999999999999 218.36 51.54999999999999 218.36 51.54999999999999 C 218.21 51.57999999999999 218.06 51.61999999999999 217.9 51.66999999999999 C 217.46 50.95999999999999 216.31 49.52999999999999 215.29 48.27999999999999 C 214.26 47.02999999999999 213.34 45.969999999999985 213.34 45.969999999999985 C 213.20000000000002 46.02999999999999 213.06 46.109999999999985 212.92000000000002 46.179999999999986 C 211.55 44.86999999999998 210.09 43.62999999999999 208.53000000000003 42.469999999999985 C 211.85000000000002 40.98999999999999 214.80000000000004 42.84999999999999 217.19000000000003 45.70999999999999 C 217.43000000000004 44.79999999999999 217.77000000000004 43.41999999999999 217.84000000000003 42.73999999999999 C 217.84000000000003 42.73999999999999 218.01000000000002 44.48999999999999 217.63000000000002 46.25999999999999 C 218.29000000000002 47.11999999999999 218.92000000000002 48.04999999999999 219.48000000000002 49.00999999999999 C 219.48000000000002 49.00999999999999 220.14000000000001 45.529999999999994 220.04000000000002 44.099999999999994 C 220.04000000000002 44.099999999999994 220.36 46.589999999999996 219.86 49.669999999999995 C 220.33 50.49999999999999 220.76000000000002 51.32999999999999 221.14000000000001 52.12 C 221.14000000000001 52.12 221.68 49.05 221.64000000000001 47.57 C 221.64000000000001 47.57 221.92000000000002 50.25 221.46 52.8 C 222.71 55.47 223.4 57.589999999999996 223.4 57.589999999999996 C 223.4 57.589999999999996 224.24 44.51 218.77 39.5 C 212.8 34.019999999999996 209.07000000000002 39.74 208.51000000000002 40.68 C 208.97000000000003 38.37 210.13000000000002 36.72 211.33 35.85 C 212.28 35.17 213.22 34.76 214.12 34.56 C 213.5 33.82 212.44 32.63 211.6 31.980000000000004 C 211.98 32.230000000000004 213.65 33.330000000000005 214.9 34.440000000000005 C 218.05 34.14000000000001 220.74 36.17 222.03 37.38 C 222.09 37.43 222.13 37.480000000000004 222.18 37.52 C 222.23000000000002 37.56 222.27 37.61000000000001 222.31 37.650000000000006 C 222.38 37.730000000000004 222.45 37.800000000000004 222.53 37.88 C 222.56 37.910000000000004 222.59 37.940000000000005 222.62 37.980000000000004 C 222.72 38.07000000000001 222.77 38.14 222.81 38.18000000000001 L 222.83 38.20000000000001 L 222.84 38.20000000000001 L 222.84 38.21000000000001 C 234.01 50.02 240.86 65.95 240.86 83.48 z" stroke-linecap="round" />
</g>
<g transform="matrix(2.38 0 0 2.38 229.5 327.6)" id="Layer_15"  >
<path style="stroke: none; stroke-width: 1; stroke-dasharray: none; stroke-linecap: butt; stroke-dashoffset: 0; stroke-linejoin: miter; stroke-miterlimit: 4; fill: rgb(8,14,99); fill-rule: nonzero; opacity: 1;"  transform=" translate(-175, -122.9)" d="M 223.82 127.68 C 220.88 130.93 217.63 133.87 214.1 136.49 L 214.09 136.49 C 213.71 136.36 213.20000000000002 136.19 212.58 136.02 C 211.15 135.60000000000002 209.11 135.08 206.63000000000002 134.68 C 205.39000000000001 134.48000000000002 204.04000000000002 134.29000000000002 202.62000000000003 134.15 C 201.91000000000003 134.08 201.17000000000004 134.01000000000002 200.42000000000004 133.98000000000002 C 199.67000000000004 133.92000000000002 198.90000000000003 133.9 198.12000000000003 133.88000000000002 C 197.34000000000003 133.85000000000002 196.54000000000002 133.86 195.74000000000004 133.87000000000003 C 194.94000000000003 133.87000000000003 194.13000000000002 133.92000000000004 193.31000000000003 133.96000000000004 C 192.89000000000004 133.99000000000004 192.50000000000003 133.99000000000004 192.07000000000002 134.04000000000005 L 190.86 134.15000000000006 C 190.05 134.21000000000006 189.21 134.34000000000006 188.39000000000001 134.44000000000005 C 185.12 134.87000000000006 181.9 135.50000000000006 178.89000000000001 136.11000000000004 C 175.89000000000001 136.72000000000006 173.09 137.31000000000003 170.68 137.74000000000004 C 169.48000000000002 137.95000000000005 168.37 138.12000000000003 167.39000000000001 138.24000000000004 C 166.41000000000003 138.36000000000004 165.55 138.46000000000004 164.84 138.49000000000004 C 164.13 138.55000000000004 163.57 138.55000000000004 163.18 138.55000000000004 C 162.8 138.56000000000003 162.6 138.56000000000003 162.6 138.56000000000003 C 162.6 138.56000000000003 162.79999999999998 138.58000000000004 163.18 138.59000000000003 C 163.56 138.61000000000004 164.12 138.65000000000003 164.84 138.65000000000003 C 165.56 138.67000000000004 166.43 138.63000000000002 167.43 138.58000000000004 C 168.42000000000002 138.52000000000004 169.54000000000002 138.42000000000004 170.77 138.29000000000005 C 173.21 138.03000000000006 176.05 137.62000000000006 179.08 137.21000000000004 C 182.11 136.81000000000003 185.34 136.40000000000003 188.57000000000002 136.19000000000003 C 189.38000000000002 136.15000000000003 190.16000000000003 136.09000000000003 190.98000000000002 136.07000000000002 L 192.20000000000002 136.04000000000002 C 192.57000000000002 136.02 192.99 136.04000000000002 193.38000000000002 136.04000000000002 C 194.16000000000003 136.05 194.95000000000002 136.05 195.73000000000002 136.10000000000002 C 196.50000000000003 136.13000000000002 197.26000000000002 136.17000000000002 198.01000000000002 136.24 C 198.75000000000003 136.3 199.49 136.37 200.20000000000002 136.46 C 200.92000000000002 136.53 201.62 136.64000000000001 202.3 136.75 C 203.65 136.95 204.93 137.21 206.09 137.47 C 207.96 137.89 209.56 138.37 210.78 138.78 C 200.48 145.46 188.2 149.33 175.01 149.33 C 157.23 149.33 141.12 142.29000000000002 129.26 130.86 C 130.07 130.59 130.97 130.31 131.97 130 C 133.52 129.55 135.29 129.07 137.25 128.63 C 139.21 128.19 141.34 127.75999999999999 143.62 127.41 C 144.76 127.22999999999999 145.93 127.05 147.14000000000001 126.92 C 147.74 126.85000000000001 148.35000000000002 126.78 148.96 126.7 C 149.58 126.64 150.20000000000002 126.60000000000001 150.83 126.54 C 152.09 126.42 153.37 126.36 154.66000000000003 126.31 C 155.96000000000004 126.22 157.27000000000004 126.22 158.60000000000002 126.21000000000001 C 159.26000000000002 126.21000000000001 159.95000000000002 126.19000000000001 160.58 126.21000000000001 C 161.26000000000002 126.23 161.94000000000003 126.24000000000001 162.62 126.27000000000001 C 163.99 126.29 165.3 126.4 166.66 126.46000000000001 C 169.37 126.64000000000001 172.07999999999998 126.89000000000001 174.75 127.2 C 177.42 127.5 180.04 127.83 182.59 128.18 C 185.14000000000001 128.52 187.59 128.86 189.92000000000002 129.17000000000002 C 192.26000000000002 129.48000000000002 194.48000000000002 129.75000000000003 196.53000000000003 129.98000000000002 C 197.55000000000004 130.08 198.54000000000002 130.18 199.48000000000002 130.27 C 200.42000000000002 130.34 201.31000000000003 130.41 202.14000000000001 130.47 C 203.81 130.55 205.27 130.62 206.47000000000003 130.6 C 207.67000000000002 130.62 208.62000000000003 130.54 209.26000000000002 130.5 C 209.9 130.47 210.24 130.44 210.24 130.44 C 210.24 130.44 209.9 130.44 209.26000000000002 130.43 C 208.62000000000003 130.43 207.67000000000002 130.43 206.48000000000002 130.33 C 205.29000000000002 130.27 203.85000000000002 130.11 202.19000000000003 129.91000000000003 C 201.36 129.8 200.49000000000004 129.67000000000002 199.56000000000003 129.54000000000002 C 198.64000000000004 129.39000000000001 197.67000000000004 129.23000000000002 196.66000000000003 129.06000000000003 C 194.64000000000001 128.69000000000003 192.46000000000004 128.28000000000003 190.16000000000003 127.81000000000003 C 187.85000000000002 127.34000000000003 185.41000000000003 126.84000000000003 182.90000000000003 126.33000000000003 C 180.38000000000002 125.82000000000002 177.77000000000004 125.30000000000003 175.10000000000002 124.82000000000002 C 172.43000000000004 124.33000000000003 169.70000000000002 123.90000000000002 166.96000000000004 123.52000000000002 C 165.58000000000004 123.37000000000002 164.17000000000004 123.16000000000003 162.82000000000005 123.04000000000002 C 162.15000000000006 122.98000000000002 161.47000000000006 122.92000000000002 160.79000000000005 122.86000000000001 C 160.07000000000005 122.78000000000002 159.40000000000006 122.78000000000002 158.72000000000006 122.73000000000002 C 157.35000000000005 122.66000000000003 155.99000000000007 122.58000000000001 154.64000000000004 122.58000000000001 C 153.29000000000005 122.56000000000002 151.96000000000004 122.54 150.65000000000003 122.60000000000001 C 149.99000000000004 122.62 149.34000000000003 122.63000000000001 148.70000000000005 122.65 C 148.06000000000006 122.68 147.43000000000004 122.72 146.79000000000005 122.75 C 145.52000000000004 122.81 144.30000000000004 122.92 143.10000000000005 123.04 C 140.71000000000006 123.26 138.45000000000005 123.58000000000001 136.37000000000006 123.92 C 134.29000000000005 124.26 132.39000000000007 124.66 130.72000000000006 125.03 C 129.05000000000007 125.43 127.59000000000006 125.81 126.40000000000006 126.16 C 125.97000000000006 126.28 125.57000000000006 126.39999999999999 125.22000000000006 126.50999999999999 C 121.83000000000006 122.58999999999999 118.90000000000006 118.27999999999999 116.51000000000005 113.63 C 119.51000000000005 112.94 123.58000000000004 112.49 129.09000000000006 112.49 C 152.64000000000007 112.49 187.33000000000007 120.94999999999999 204.00000000000006 125.00999999999999 L 204.68000000000006 125.17999999999999 C 211.44000000000005 126.83 217.54000000000008 127.66 222.82000000000005 127.66 C 223.12 127.69 223.47 127.69 223.82 127.68 z M 107.01 113.57 C 107.01 113.57 113.75 96.07 150.58 96.47 C 187.41000000000003 96.87 226.58 117.77 243 112.3 C 243 112.3 240.86 129.92 205.57 121.31 C 182.16 115.61 121.95 100.76 107.01 113.57 z" stroke-linecap="round" />
</g>
<g transform="matrix(2.38 0 0 2.38 460.12 120.05)" id="Layer_15"  >
<path style="stroke: none; stroke-width: 1; stroke-dasharray: none; stroke-linecap: butt; stroke-dashoffset: 0; stroke-linejoin: miter; stroke-miterlimit: 4; fill: rgb(255,255,255); fill-rule: nonzero; opacity: 1;"  transform=" translate(-188.69, -50.07)" d="M 179.77 26.36 C 179.77 26.36 179.55 25.56 178.03 25 C 176.51 24.44 173.76 22.77 173.44 22.27 C 173.12 21.77 172.25 21.02 172.12 20.79 C 171.99 20.57 171.77 21.279999999999998 172.33 21.99 C 172.88000000000002 22.7 173.52 23.459999999999997 173.76000000000002 23.939999999999998 C 174.00000000000003 24.419999999999998 175.04000000000002 26.04 176.73000000000002 26.47 C 178.42000000000002 26.9 179.25000000000003 27.16 179.21 27.38 C 179.18 27.599999999999998 178.89000000000001 27.919999999999998 178.52 27.9 C 178.15 27.889999999999997 177.14000000000001 27.669999999999998 177.09 27.889999999999997 C 177.03 28.109999999999996 177.85 29.849999999999998 179.07 30.039999999999996 C 180.28 30.229999999999997 181.47 29.629999999999995 181.60999999999999 29.449999999999996 C 181.74999999999997 29.279999999999994 180.73999999999998 29.249999999999996 180.82999999999998 28.869999999999997 C 180.92 28.49 181.45999999999998 28.589999999999996 181.73 28.299999999999997 C 181.98999999999998 28.009999999999998 182.82 28.029999999999998 183.03 27.999999999999996 C 183.24 27.979999999999997 182.91 27.829999999999995 182.91 27.829999999999995 C 182.91 27.829999999999995 184.62 27.729999999999993 185.34 27.699999999999996 C 186.05 27.679999999999996 187.70000000000002 27.159999999999997 188.21 27.239999999999995 C 188.72 27.319999999999993 192.79000000000002 26.409999999999997 192.92000000000002 26.059999999999995 C 193.00000000000003 25.839999999999996 192.29000000000002 26.099999999999994 191.64000000000001 26.249999999999996 C 190.99 26.399999999999995 188.87 26.649999999999995 188.02 26.439999999999998 C 187.18 26.24 185.96 26.049999999999997 185.43 26.049999999999997 C 184.9 26.049999999999997 183.42000000000002 26.609999999999996 182.82 26.749999999999996 C 182.22 26.889999999999997 181.88 26.929999999999996 181.88 26.929999999999996 C 181.88 26.929999999999996 181.44 26.519999999999996 181.07999999999998 26.399999999999995 C 180.72 26.28 179.77 26.36 179.77 26.36 z M 203.53 76.56 C 203.53 76.56 203.33 76.3 203.07 76.36 C 202.81 76.42 202.64 76.51 202.48999999999998 76.5 C 202.33999999999997 76.49 201.70999999999998 76.36 201.51 75.73 C 201.31 75.10000000000001 201.59 74.13000000000001 201.06 73.92 C 200.54 73.7 199.09 73.42 197.45 73.59 C 195.79999999999998 73.76 195.66 73.72 196.19 74.10000000000001 C 196.71 74.48 197.56 74.60000000000001 197.84 74.60000000000001 C 198.12 74.60000000000001 198.73 74.66000000000001 198.98 74.87 C 199.22 75.07000000000001 199.35999999999999 75.55000000000001 199.73 76.22 C 200.1 76.9 200.56 77.64 200.54 77.87 C 200.51 78.10000000000001 200.22 78.38000000000001 199.89 78.5 C 199.55999999999997 78.61 199.27999999999997 78.68 199.33999999999997 78.79 C 199.39999999999998 78.9 199.75999999999996 79.06 199.90999999999997 79.17 C 200.05999999999997 79.28 200.26999999999998 79.48 200.35999999999996 79.35000000000001 C 200.44999999999993 79.22000000000001 200.64999999999995 78.81 201.03999999999996 78.7 C 201.41999999999996 78.59 201.63999999999996 78.64 202.26999999999995 78.28 C 202.89999999999995 77.92 203.28999999999996 77.35 203.36999999999995 77.26 C 203.44999999999996 77.17 203.69999999999996 77.33 203.82999999999996 77.48 C 203.95999999999995 77.63000000000001 204.13999999999996 78.04 204.48999999999995 78.31 C 204.84999999999997 78.58 204.95999999999995 79.05 205.22999999999996 79.13 C 205.49999999999997 79.21 205.39999999999995 78.05 205.37999999999997 77.47 C 205.36999999999998 76.9 205.31999999999996 76.62 205.11999999999998 76.33 C 204.92999999999998 76.05 204.70999999999998 75.99 204.54999999999998 76.1 C 204.37 76.21 203.73 76.55 203.53 76.56 z" stroke-linecap="round" />
</g>
<g transform="matrix(2.38 0 0 2.38 427.49 380.86)" id="Layer_15"  >
<path style="stroke: none; stroke-width: 1; stroke-dasharray: none; stroke-linecap: butt; stroke-dashoffset: 0; stroke-linejoin: miter; stroke-miterlimit: 4; fill: rgb(188,190,192); fill-rule: nonzero; opacity: 0.3;"  transform=" translate(-175, -159.51)" d="M 175 153.86 C 202.93 153.86 225.57 156.39000000000001 225.57 159.51000000000002 C 225.57 162.63000000000002 202.93 165.16000000000003 175 165.16000000000003 C 147.07 165.16000000000003 124.43 162.63000000000002 124.43 159.51000000000002 C 124.43 156.39 147.07 153.86 175 153.86 z" stroke-linecap="round" />
</g>
<g transform="matrix(1 0 0 1 428.5 399.62)" style=""  >
		<text xml:space="preserve" font-family="poppins-black" font-size="40" font-style="normal" font-weight="normal" style="stroke: none; stroke-width: 1; stroke-dasharray: none; stroke-linecap: butt; stroke-dashoffset: 0; stroke-linejoin: miter; stroke-miterlimit: 4; fill: rgb(219,80,74); fill-rule: nonzero; opacity: 1; white-space: pre;" ><tspan x="-169.54" y="12.57" >T</tspan><tspan x="-140.9" y="12.57" >r</tspan><tspan x="-118.22" y="12.57" >a</tspan><tspan x="-87.02" y="12.57" >v</tspan><tspan x="-56.18" y="12.57" >e</tspan><tspan x="-27.54" y="12.57" >l</tspan><tspan x="-10.66" y="12.57" style="white-space: pre; "> </tspan><tspan x="0.14" y="12.57" >&amp;</tspan><tspan x="32.14" y="12.57" style="white-space: pre; "> </tspan><tspan x="42.94" y="12.57" >H</tspan><tspan x="77.14" y="12.57" >o</tspan><tspan x="106.58" y="12.57" >t</tspan><tspan x="128.02" y="12.57" >e</tspan><tspan x="156.66" y="12.57" >l</tspan></text>
</g>
</svg>