<?xml version="1.0" encoding="UTF-8" standalone="no" ?>
<!DOCTYPE svg PUBLIC "-//W3C//DTD SVG 1.1//EN" "http://www.w3.org/Graphics/SVG/1.1/DTD/svg11.dtd">
<svg xmlns="http://www.w3.org/2000/svg" xmlns:xlink="http://www.w3.org/1999/xlink" version="1.1"   viewBox="0 0 855 590" xml:space="preserve" width="855" height="590">
<desc>Created with Fabric.js 4.5.0</desc>
<defs>
</defs>
<rect x="0" y="0" width="100%" height="100%" fill="#ffffff"></rect>
<g transform="matrix(2.47 0 0 2.47 682.69 413.52)" id="Layer_7"  >
<path style="stroke: none; stroke-width: 1; stroke-dasharray: none; stroke-linecap: butt; stroke-dashoffset: 0; stroke-linejoin: miter; stroke-miterlimit: 4; fill: rgb(172,25,41); fill-rule: nonzero; opacity: 1;"  transform=" translate(-266.01, -115)" d="M 282.69 43.77 L 249.59 43.77 L 265.73 90.30000000000001 L 265.75 90.24000000000001 L 279.67 130.46 L 216.98000000000002 130.46 L 196.15000000000003 186.23000000000002 L 232.55000000000004 186.23000000000002 L 241.47000000000003 160.97000000000003 L 289.65000000000003 160.97000000000003 L 298.75000000000006 186.23000000000002 L 335.86000000000007 186.23000000000002 L 282.69 43.77" stroke-linecap="round" />
</g>
<g transform="matrix(2.47 0 0 2.47 596.19 413.65)" id="Layer_7"  >
<path style="stroke: none; stroke-width: 1; stroke-dasharray: none; stroke-linecap: butt; stroke-dashoffset: 0; stroke-linejoin: miter; stroke-miterlimit: 4; fill: rgb(225,25,25); fill-rule: nonzero; opacity: 1;"  transform=" translate(-230.95, -115.06)" d="M 238.73 104.03 L 241.98 107.28 L 242.38 106.88 C 242.49 106.77 242.57 106.64999999999999 242.63 106.5 C 242.69 106.36 242.72 106.21 242.72 106.06 C 242.72 105.91 242.69 105.76 242.63 105.62 C 242.57 105.48 242.49 105.35000000000001 242.38 105.24000000000001 L 240.76 103.62 C 240.64999999999998 103.51 240.53 103.43 240.39 103.37 C 240.25 103.31 240.1 103.28 239.95 103.28 C 239.79999999999998 103.28 239.64999999999998 103.31 239.51 103.37 C 239.37 103.43 239.23999999999998 103.51 239.14 103.62 L 238.73 104.03 z M 236.19 113.08 L 232.94 109.83 L 225.72 117.05 L 228.97 120.3 L 236.19 113.08 z M 234.04 104.02 L 241.98 111.96 C 241.98 111.96 241.98999999999998 111.96 241.98999999999998 111.96 L 243.20999999999998 110.74 C 243.42 110.53 243.51999999999998 110.28999999999999 243.51999999999998 109.99 C 243.51999999999998 109.69 243.42 109.44 243.20999999999998 109.24 L 236.76999999999998 102.8 C 236.67 102.7 236.55999999999997 102.61999999999999 236.42999999999998 102.57 C 236.29999999999998 102.52 236.17 102.49 236.02999999999997 102.49 C 235.89 102.49 235.74999999999997 102.52 235.61999999999998 102.57 C 235.48999999999998 102.61999999999999 235.37999999999997 102.69999999999999 235.27999999999997 102.8 L 234.04 104.02 L 234.04 104.02 z M 219.53 124.86 L 221.15 126.48 C 221.26000000000002 126.59 221.38 126.67 221.53 126.73 C 221.67 126.79 221.82 126.82000000000001 221.97 126.82000000000001 C 222.12 126.82000000000001 222.27 126.79 222.41 126.73 C 222.54999999999998 126.67 222.68 126.59 222.78 126.48 L 223.18 126.08 L 219.93 122.83 L 219.53 123.23 C 219.42 123.34 219.34 123.46000000000001 219.28 123.60000000000001 C 219.22 123.74000000000001 219.19 123.89000000000001 219.19 124.04 C 219.19 124.19000000000001 219.22 124.34 219.28 124.48 C 219.34 124.63 219.42 124.75 219.53 124.86 z M 218.7 120.87 L 225.14 127.31 C 225.23999999999998 127.41 225.35 127.49000000000001 225.48 127.54 C 225.60999999999999 127.59 225.75 127.62 225.89 127.62 C 226.02999999999997 127.62 226.17 127.59 226.29999999999998 127.54 C 226.42999999999998 127.49000000000001 226.54 127.41000000000001 226.64 127.31 L 227.85 126.10000000000001 C 227.85 126.10000000000001 227.85999999999999 126.09 227.85999999999999 126.09 L 219.92 118.15 L 218.69 119.38000000000001 C 218.59 119.48 218.51 119.59 218.46 119.72000000000001 C 218.41 119.85000000000001 218.38 119.99000000000001 218.38 120.13000000000001 C 218.38 120.27000000000001 218.4 120.41000000000001 218.46 120.54 C 218.52 120.65 218.6 120.77 218.7 120.87 z M 229.84 105.98 L 240.03 116.17 C 240.24 116.38 240.49 116.48 240.78 116.49 L 240.79 116.49 C 241.07999999999998 116.49 241.32999999999998 116.39 241.53 116.17999999999999 L 242.75 114.97 C 242.96 114.76 243.06 114.51 243.06 114.22 C 243.06 113.92 242.95 113.67 242.75 113.47 L 232.56 103.28 C 232.46 103.18 232.35 103.1 232.22 103.05 C 232.09 103 231.95 102.97 231.81 102.97 C 231.67000000000002 102.97 231.53 103 231.4 103.05 C 231.27 103.1 231.15 103.17999999999999 231.06 103.28 L 229.84 104.5 C 229.74 104.6 229.66 104.71 229.61 104.84 C 229.56 104.97 229.53 105.11 229.53 105.25 C 229.53 105.39 229.56 105.53 229.61 105.66 C 229.66 105.77 229.74 105.88 229.84 105.98 z M 218.86 115.9 C 218.86 116.19000000000001 218.97000000000003 116.44000000000001 219.17000000000002 116.65 L 229.36 126.84 C 229.57000000000002 127.05 229.82000000000002 127.16 230.12 127.16 C 230.41 127.16 230.66 127.06 230.86 126.85 L 232.08 125.63 C 232.29000000000002 125.42 232.39000000000001 125.17 232.39000000000001 124.88 C 232.39000000000001 124.58999999999999 232.28 124.33999999999999 232.07000000000002 124.13 L 221.88000000000002 113.94 C 221.78000000000003 113.84 221.67000000000002 113.75999999999999 221.54000000000002 113.71 C 221.41000000000003 113.66 221.28000000000003 113.63 221.14000000000001 113.63 C 221 113.63 220.86 113.64999999999999 220.73000000000002 113.71 C 220.60000000000002 113.75999999999999 220.49 113.83999999999999 220.39000000000001 113.94 L 219.17000000000002 115.16 C 218.96 115.36 218.86 115.61 218.86 115.9 z" stroke-linecap="round" />
</g>
<g transform="matrix(1 0 0 1 519.94 216.79)" style=""  >
		<text xml:space="preserve" font-family="recharge-bd" font-size="40" font-style="normal" font-weight="normal" style="stroke: none; stroke-width: 1; stroke-dasharray: none; stroke-linecap: butt; stroke-dashoffset: 0; stroke-linejoin: miter; stroke-miterlimit: 4; fill: rgb(172,25,41); fill-rule: nonzero; opacity: 1; white-space: pre;" ><tspan x="-57.84" y="-39.87" >S</tspan><tspan x="-16.2" y="-39.87" >p</tspan><tspan x="18.04" y="-39.87" >o</tspan><tspan x="53.56" y="-39.87" >r</tspan><tspan x="85.6" y="-39.87" >t</tspan><tspan x="109.08" y="-39.87" >s</tspan><tspan x="142.68" y="-39.87" style="white-space: pre; "> </tspan><tspan x="163.36" y="-39.87" >&amp;</tspan><tspan x="-196.76" y="12.57" >F</tspan><tspan x="-156.76" y="12.57" >i</tspan><tspan x="-141.8" y="12.57" >t</tspan><tspan x="-118.32" y="12.57" >n</tspan><tspan x="-83.88" y="12.57" >e</tspan><tspan x="-50.84" y="12.57" >s</tspan><tspan x="-17.48" y="12.57" >s</tspan><tspan x="16.12" y="12.57" style="white-space: pre; "> </tspan><tspan x="36.8" y="12.57" >a</tspan><tspan x="68.84" y="12.57" >d</tspan><tspan x="103.08" y="12.57" >n</tspan><tspan x="137.52" y="12.57" >a</tspan><tspan x="169.56" y="12.57" >n</tspan><tspan x="170.8" y="65" >k</tspan></text>
</g>
</svg>