<?xml version="1.0" encoding="UTF-8" standalone="no" ?>
<!DOCTYPE svg PUBLIC "-//W3C//DTD SVG 1.1//EN" "http://www.w3.org/Graphics/SVG/1.1/DTD/svg11.dtd">
<svg xmlns="http://www.w3.org/2000/svg" xmlns:xlink="http://www.w3.org/1999/xlink" version="1.1"   viewBox="0 0 855 590" xml:space="preserve" width="350" height="230">
<desc>Created with Fabric.js 4.5.0</desc>
<defs>
</defs>
<rect x="0" y="0" width="100%" height="100%" fill="#ffffff"></rect>
<g transform="matrix(1.67 0 0 1.67 435.36 347.97)" id="Layer_7"  >
<path style="stroke: none; stroke-width: 1; stroke-dasharray: none; stroke-linecap: butt; stroke-dashoffset: 0; stroke-linejoin: miter; stroke-miterlimit: 4; fill: rgb(255,185,8); fill-rule: nonzero; opacity: 1;"  transform=" translate(-175, -43.52)" d="M 175 6.13 L 184.8 25.98 L 206.70000000000002 29.17 L 190.85000000000002 44.620000000000005 L 194.59000000000003 66.43 L 175 56.14 L 155.41 66.44 L 159.15 44.629999999999995 L 143.3 29.179999999999996 L 165.21 25.989999999999995 L 175 6.13 z M 232.26 46.59 L 215.12 46.57 L 225.53 60.19 L 220.21 76.47999999999999 L 236.38 70.78999999999999 L 250.23 80.88 L 249.81 63.739999999999995 L 263.69 53.67999999999999 L 247.26 48.779999999999994 L 242 32.49 L 232.26 46.59 z M 107.99 32.49 L 102.72 48.8 L 86.3 53.699999999999996 L 100.17999999999999 63.76 L 99.75999999999999 80.9 L 113.60999999999999 70.81 L 129.77999999999997 76.5 L 124.45999999999998 60.21 L 134.86999999999998 46.59 L 117.72999999999998 46.61000000000001 L 107.99 32.49 z" stroke-linecap="round" />
</g>
<g transform="matrix(1.67 0 0 1.67 426.7 101.66)" id="Layer_7"  >
<path style="stroke: none; stroke-width: 1; stroke-dasharray: none; stroke-linecap: butt; stroke-dashoffset: 0; stroke-linejoin: miter; stroke-miterlimit: 4; fill: rgb(0,157,255); fill-rule: nonzero; opacity: 1;"  transform=" translate(-177.59, -184.25)" d="M 122.65 152 L 117.01 152.57 L 120.47 187.1 L 118.67 187.28 L 115.25 153.16 C 114.46 153.74 113.99 154.71 114.09 155.76 L 119.92 213.91 C 120.08 215.49 121.49 216.65 123.07000000000001 216.49 L 129.04000000000002 215.89000000000001 C 130.62000000000003 215.73000000000002 131.78000000000003 214.32000000000002 131.62000000000003 212.74 L 125.79000000000003 154.58 C 125.65 153 124.24 151.85 122.65 152 z M 108.27 158.56 L 104.42 158.95 C 104.35000000000001 158.95 104.28 158.97 104.21000000000001 158.98 L 107.17 188.44 L 105.77 188.57999999999998 L 102.86999999999999 159.60999999999999 C 102.16 160.2 101.75999999999999 161.11999999999998 101.85999999999999 162.1 L 106.66999999999999 210.14 C 106.82999999999998 211.72 108.23999999999998 212.88 109.82 212.70999999999998 L 113.66 212.32999999999998 C 115.24 212.17 116.39999999999999 210.76 116.24 209.17999999999998 L 111.42999999999999 161.14 C 111.26 159.55 109.85 158.4 108.27 158.56 z M 96.74 166.31 L 93.89999999999999 166.59 C 93.80999999999999 166.6 93.71999999999998 166.62 93.63 166.63 L 95.92 189.55 L 94.52 189.69 L 92.28 167.3 C 91.62 167.89000000000001 91.23 168.78 91.33 169.73000000000002 L 94.83 204.69000000000003 C 94.99 206.27000000000004 96.39999999999999 207.43000000000004 97.98 207.27000000000004 L 100.82000000000001 206.98000000000005 C 102.4 206.82000000000005 103.56 205.41000000000005 103.39 203.83000000000004 L 99.89 168.87000000000003 C 99.73 167.31 98.32 166.16 96.74 166.31 M 225.1 182.27 L 224.51 188.16 C 186.26999999999998 183.9 153.49 185.34 130.62 187.75 L 130.03 181.86 C 153.2 179.41 186.39 177.96 225.1 182.27 M 229.36 154.58 L 223.53 212.74 C 223.37 214.32000000000002 224.52 215.73000000000002 226.11 215.89000000000001 L 232.09 216.49 C 233.67000000000002 216.65 235.08 215.5 235.24 213.91 L 241.07000000000002 155.76 C 241.17000000000002 154.70999999999998 240.70000000000002 153.73999999999998 239.91000000000003 153.16 L 236.49000000000004 187.28 L 234.69000000000003 187.1 L 238.15000000000003 152.57 L 232.51000000000005 152 C 230.93 151.85 229.51 153 229.36 154.58 z M 243.75 161.13 L 238.94 209.17 C 238.78 210.75 239.93 212.17 241.51 212.32 L 245.35999999999999 212.7 C 246.94 212.85999999999999 248.35 211.70999999999998 248.51 210.13 L 253.32 162.09 C 253.42 161.1 253.01 160.19 252.31 159.6 L 249.41 188.57 L 248.01 188.43 L 250.95999999999998 158.97 C 250.89 158.96 250.82 158.94 250.74999999999997 158.94 L 246.90999999999997 158.55 C 245.31 158.4 243.91 159.55 243.75 161.13 z M 255.28 168.89 L 251.77 203.85 C 251.61 205.43 252.77 206.84 254.35000000000002 207 L 257.19 207.29 C 258.77 207.45 260.18 206.29999999999998 260.34 204.70999999999998 L 263.84999999999997 169.74999999999997 C 263.93999999999994 168.79999999999998 263.55999999999995 167.90999999999997 262.9 167.31999999999996 L 260.65999999999997 189.70999999999998 L 259.26 189.57 L 261.55 166.64999999999998 C 261.46000000000004 166.62999999999997 261.37 166.61999999999998 261.27000000000004 166.60999999999999 L 258.43000000000006 166.32999999999998 C 256.85 166.16 255.43 167.31 255.28 168.89" stroke-linecap="round" />
</g>
<g transform="matrix(1 0 0 1 425.51 220.32)" style=""  >
		<text xml:space="preserve" font-family="theprincess-personaluse" font-size="44" font-style="normal" font-weight="normal" style="stroke: none; stroke-width: 1; stroke-dasharray: none; stroke-linecap: butt; stroke-dashoffset: 0; stroke-linejoin: miter; stroke-miterlimit: 4; fill: rgb(224,0,0); fill-rule: nonzero; opacity: 1; white-space: pre;" ><tspan x="-60.26" y="-43.85" >S</tspan><tspan x="-32.71" y="-43.85" >p</tspan><tspan x="-8.03" y="-43.85" >o</tspan><tspan x="11.42" y="-43.85" >r</tspan><tspan x="31.22" y="-43.85" >t</tspan><tspan x="45.43" y="-43.85" >s</tspan><tspan x="-17.11" y="13.82" >&amp;</tspan><tspan x="-67.03" y="71.5" >F</tspan><tspan x="-32.41" y="71.5" >i</tspan><tspan x="-19.78" y="71.5" >t</tspan><tspan x="-5.57" y="71.5" >n</tspan><tspan x="16.08" y="71.5" >e</tspan><tspan x="32.98" y="71.5" >s</tspan><tspan x="52.21" y="71.5" >s</tspan></text>
</g>
</svg>