<?xml version="1.0" encoding="UTF-8" standalone="no" ?>
<!DOCTYPE svg PUBLIC "-//W3C//DTD SVG 1.1//EN" "http://www.w3.org/Graphics/SVG/1.1/DTD/svg11.dtd">
<svg xmlns="http://www.w3.org/2000/svg" xmlns:xlink="http://www.w3.org/1999/xlink" version="1.1"   viewBox="0 0 855 590" xml:space="preserve" width="855" height="590">
<desc>Created with Fabric.js 4.5.0</desc>
<defs>
</defs>
<rect x="0" y="0" width="100%" height="100%" fill="#ffffff"></rect>
<g transform="matrix(0.02 1.97 -1.97 0.02 113.61 297.87)"  >
<path style="stroke: none; stroke-width: 1; stroke-dasharray: none; stroke-linecap: butt; stroke-dashoffset: 0; stroke-linejoin: miter; stroke-miterlimit: 4; fill: rgb(112,248,255); fill-rule: nonzero; opacity: 1;"  transform=" translate(-175, -103.49)" d="M 118.37 82.23 C 120.75 70.17 128.8 64.29 140.86 66.18 C 140.25 70.93 139.58 75.71000000000001 139.03 80.5 C 138.69 83.47 138.54 86.46 138.26 89.92 C 135.5 89.92 132.62 89.82000000000001 129.75 89.95 C 127.97 90.03 126.14 90.25 124.44 90.77 C 122.08 91.49 120.89 93.27 120.91 95.78999999999999 C 120.92 98.19999999999999 120.96 100.60999999999999 120.89999999999999 103.02 C 120.82 106.08999999999999 122.47999999999999 107.50999999999999 125.11999999999999 108.85 C 127.86999999999999 110.25 130.16 112.57 132.62 114.53999999999999 C 132.86 114.72999999999999 132.96 115.27 132.92000000000002 115.63 C 132.25000000000003 122.31 131.54000000000002 128.99 130.81 136 C 125.67 136.09 121 137.61 116.8 140.59 C 116.16 141.04 115.05 140.9 114.16 140.9 C 102.1 140.92000000000002 90.03999999999999 140.87 77.99 140.95000000000002 C 75.89 140.96 74.38 140.35000000000002 73.07 138.71 C 71.30999999999999 136.52 69.21 134.6 67.55 132.34 C 66.83 131.36 66.3 129.58 66.72 128.63 C 67.13 127.72 68.88 126.94 70.05 126.92999999999999 C 84.92 126.82 99.78999999999999 126.85 114.66999999999999 126.85 C 115.85 126.85 117.03999999999999 126.85 118.37999999999998 126.85 C 118.37999999999998 125.28999999999999 118.37999999999998 124.03999999999999 118.37999999999998 122.41 C 117.07999999999998 122.41 115.90999999999998 122.41 114.73999999999998 122.41 C 97.04999999999998 122.41 79.36999999999998 122.36999999999999 61.67999999999998 122.45 C 59.46999999999998 122.46000000000001 57.85999999999998 121.87 56.479999999999976 120.13000000000001 C 54.85999999999998 118.09 52.84999999999997 116.33000000000001 51.369999999999976 114.20000000000002 C 50.559999999999974 113.04000000000002 49.85999999999998 111.16000000000001 50.25999999999998 109.99000000000002 C 50.559999999999974 109.11000000000003 52.67999999999998 108.41000000000003 53.989999999999974 108.40000000000002 C 70.26999999999998 108.29000000000002 86.54999999999998 108.33000000000003 102.82999999999998 108.32000000000002 C 103.78999999999998 108.32000000000002 104.73999999999998 108.24000000000002 105.97999999999999 108.18000000000002 C 103.82 105.19000000000003 101.64999999999999 103.69000000000003 97.89999999999999 103.74000000000002 C 80.32 103.99000000000002 62.72999999999999 103.81000000000002 45.14999999999999 103.90000000000002 C 42.93999999999999 103.91000000000003 41.31999999999999 103.42000000000002 39.989999999999995 101.60000000000002 C 38.87 100.07000000000002 37.26 98.87000000000002 36.269999999999996 97.27000000000002 C 35.58 96.15000000000002 35.019999999999996 94.39000000000003 35.42999999999999 93.31000000000003 C 35.74999999999999 92.47000000000003 37.65999999999999 91.81000000000003 38.85999999999999 91.80000000000003 C 54.129999999999995 91.71000000000002 69.41 91.74000000000002 84.67999999999999 91.75000000000003 C 86.08 91.75000000000003 87.47999999999999 91.75000000000003 89.25 91.75000000000003 C 87.9 89.40000000000003 86.57 88.03000000000003 83.84 88.04000000000003 C 66.46000000000001 88.13000000000004 49.07 88.09000000000003 31.690000000000005 88.09000000000003 C 30.890000000000004 88.09000000000003 29.860000000000007 88.39000000000003 29.320000000000004 88.01000000000003 C 28.240000000000002 87.25000000000003 26.690000000000005 86.09000000000003 26.720000000000002 85.13000000000004 C 26.740000000000002 84.14000000000004 28.310000000000002 83.04000000000003 29.400000000000002 82.30000000000004 C 29.950000000000003 81.93000000000004 30.96 82.23000000000005 31.770000000000003 82.23000000000005 C 59.300000000000004 82.23000000000005 86.84 82.23000000000005 114.37 82.23000000000005 C 115.66 82.23 116.95 82.23 118.37 82.23 z M 266.62 88.01 C 284.01 88.15 301.4 88.08 318.79 88.08 C 319.49 88.08 320.42 88.36 320.86 88.02 C 321.86 87.24 323.27000000000004 86.16 323.28000000000003 85.19 C 323.29 84.22 321.93 83.03 320.91 82.33 C 320.29 81.91 319.15000000000003 82.23 318.25 82.23 C 290.51 82.23 262.76 82.23 235.01999999999998 82.23 C 233.85 82.23 232.68999999999997 82.23 231.6 82.23 C 229.63 69.33 219.15 64.10000000000001 209.23 66.27000000000001 C 210.06 74.03000000000002 210.91 81.87 211.76999999999998 89.93 C 215.23 89.93 218.52999999999997 89.83000000000001 221.82999999999998 89.95 C 227.08999999999997 90.15 229.01999999999998 92.23 229.01999999999998 97.42 C 229.01999999999998 99.53 229.43999999999997 101.76 228.89 103.72 C 228.42 105.44 227.14 107.81 225.73999999999998 108.22 C 222.36999999999998 109.19 220.29 111.47 218.07 113.75 C 217.57 114.27 217.01999999999998 115.11 217.07999999999998 115.75 C 217.69 122.43 218.42 129.1 219.10999999999999 135.74 C 221.60999999999999 136.21 224.04999999999998 136.38 226.27999999999997 137.17000000000002 C 228.60999999999999 138.00000000000003 230.69999999999996 139.50000000000003 232.96999999999997 140.53000000000003 C 233.82999999999998 140.92000000000002 234.91999999999996 140.91000000000003 235.90999999999997 140.91000000000003 C 245.45999999999998 140.93000000000004 255.04999999999995 140.35000000000002 264.53999999999996 141.09000000000003 C 272.28999999999996 141.69000000000003 277.99999999999994 139.54000000000002 281.92999999999995 132.94000000000003 C 282.7099999999999 131.63000000000002 283.53 129.74000000000004 283.11999999999995 128.52000000000004 C 282.81999999999994 127.63000000000004 280.54999999999995 126.94000000000004 279.15999999999997 126.93000000000004 C 264.47999999999996 126.82000000000004 249.80999999999997 126.86000000000004 235.12999999999997 126.86000000000004 C 233.96999999999997 126.86000000000004 232.81999999999996 126.86000000000004 231.68999999999997 126.86000000000004 C 231.68999999999997 125.11000000000004 231.68999999999997 123.87000000000005 231.68999999999997 122.41000000000004 C 233.02999999999997 122.41000000000004 234.12999999999997 122.41000000000004 235.21999999999997 122.41000000000004 C 250.59999999999997 122.41000000000004 266 122.00000000000004 281.34999999999997 122.59000000000005 C 288.68999999999994 122.88000000000005 294.14 121.15000000000005 298.09999999999997 114.91000000000005 C 299.10999999999996 113.31000000000006 301.16999999999996 111.82000000000005 299.67999999999995 109.99000000000005 C 298.78 108.89000000000006 296.5799999999999 108.41000000000005 294.96999999999997 108.40000000000005 C 279.09 108.29000000000005 263.21 108.33000000000006 247.31999999999996 108.32000000000005 C 246.29999999999995 108.32000000000005 245.26999999999995 108.23000000000005 244.03999999999996 108.18000000000005 C 246.13999999999996 104.81000000000004 248.62999999999997 103.72000000000006 252.25999999999996 103.76000000000005 C 268.23999999999995 103.97000000000004 284.22999999999996 103.57000000000005 300.19999999999993 104.00000000000004 C 305.9099999999999 104.16000000000004 310.18999999999994 102.88000000000004 313.05999999999995 97.97000000000004 C 313.87999999999994 96.56000000000004 314.81999999999994 94.66000000000004 314.4599999999999 93.31000000000004 C 314.2299999999999 92.47000000000004 311.69999999999993 91.81000000000004 310.18999999999994 91.80000000000004 C 293.80999999999995 91.70000000000005 277.42999999999995 91.73000000000005 260.50999999999993 91.73000000000005 C 262.19 89.13 263.8 87.99 266.62 88.01 z" stroke-linecap="round" />
</g>
<g transform="matrix(0.02 1.97 -1.97 0.02 127.11 298.09)"  >
<path style="stroke: none; stroke-width: 1; stroke-dasharray: none; stroke-linecap: butt; stroke-dashoffset: 0; stroke-linejoin: miter; stroke-miterlimit: 4; fill: rgb(0,17,77); fill-rule: nonzero; opacity: 1;"  transform=" translate(-174.97, -96.73)" d="M 207.7 80.03 C 204.79 79.77 201.23 79.46000000000001 197.67999999999998 79.15 C 197.64999999999998 79.31 197.61999999999998 79.48 197.59999999999997 79.64 C 200.81999999999996 80.27 204.01999999999995 80.98 207.24999999999997 81.51 C 208.97999999999996 81.79 209.52999999999997 82.60000000000001 209.50999999999996 84.33 C 209.42999999999995 92.17 209.52999999999997 100.00999999999999 209.40999999999997 107.85 C 209.38999999999996 108.86999999999999 208.71999999999997 110.13 207.94999999999996 110.85 C 201.33999999999995 117.00999999999999 201.30999999999997 116.96 192.18999999999997 115.57 C 187.21999999999997 114.82 182.25999999999996 113.91 177.25999999999996 113.58999999999999 C 173.79999999999995 113.36999999999999 170.26999999999995 113.89999999999999 166.79999999999995 114.35 C 161.02999999999994 115.08999999999999 155.27999999999994 116.03 149.52999999999994 116.89 C 149.33999999999995 116.92 149.13999999999996 117.03 148.94999999999993 117.01 C 147.12999999999994 116.85000000000001 140.48999999999992 109.52000000000001 140.48999999999992 107.67 C 140.47999999999993 99.93 140.53999999999994 92.19 140.4399999999999 84.45 C 140.4199999999999 82.59 140.9399999999999 81.73 142.83999999999992 81.45 C 146.08999999999992 80.97 149.29999999999993 80.25 152.45999999999992 79.13000000000001 C 148.89999999999992 79.45 145.33999999999992 79.76 142.25999999999993 80.03000000000002 C 142.25999999999993 70.30000000000001 142.20999999999992 60.51000000000002 142.30999999999995 50.740000000000016 C 142.32999999999996 48.850000000000016 143.34999999999994 46.930000000000014 143.16999999999996 45.09000000000002 C 143.01999999999995 43.570000000000014 142.15999999999997 41.460000000000015 140.96999999999997 40.84000000000002 C 136.89999999999998 38.710000000000015 137.32999999999998 35.41000000000002 137.82999999999998 31.520000000000017 C 142.85999999999999 34.98000000000002 148.51 37.43000000000002 149.13 44.41000000000002 C 149.5 48.530000000000015 149.9 52.640000000000015 150.23 56.76000000000002 C 150.34 58.12000000000002 150.25 59.50000000000002 150.25 61.61000000000002 C 166.81 56.11000000000002 182.99 56.130000000000024 199.7 61.59000000000002 C 199.7 57.710000000000015 199.73999999999998 54.460000000000015 199.69 51.210000000000015 C 199.56 42.09000000000002 203.60999999999999 35.66000000000001 212.16 31.830000000000016 C 212.45 35.240000000000016 213.31 38.47000000000001 209.31 40.63000000000002 C 207.39000000000001 41.670000000000016 205.61 43.56000000000002 207.62 46.29000000000002 C 208.01 46.82000000000002 207.74 47.86000000000002 207.74 48.66000000000002 C 207.75 56.000000000000014 207.75 63.34000000000002 207.75 70.67000000000002 C 207.7 73.73 207.7 76.79 207.7 80.03 z M 205.35 104.52 C 205.35 100.81 205.57 97.32 205.28 93.86 C 205.05 91.16 203.3 88.91 200.58 88.67 C 193.15 88.01 185.68 87.76 178.06 87.34 C 178.06 93.43 178.06 98.89 178.06 104.52000000000001 C 187.13 104.52 196.01 104.52 205.35 104.52 z M 171.93 87.36 C 164.41 87.74 157.11 87.97 149.84 88.54 C 146.96 88.76 144.99 90.89 144.71 93.7 C 144.35 97.24000000000001 144.62 100.84 144.62 104.47 C 153.9 104.47 162.87 104.47 171.94 104.47 C 171.93 98.77 171.93 93.31 171.93 87.36 z M 192.14 69.38 C 192.11999999999998 68.91 192.1 68.44999999999999 192.07 67.97999999999999 C 190.79 67.21999999999998 189.44 65.78999999999999 188.23999999999998 65.91 C 187.14999999999998 66.02 185.6 67.71 185.39 68.89999999999999 C 185.05999999999997 70.75999999999999 186.58999999999997 72.27999999999999 188.5 71.91 C 189.83 71.67 190.94 70.27 192.14 69.38 z M 162.27 65.23 C 161.79000000000002 65.23 161.31 65.22 160.83 65.22 C 159.99 66.45 158.62 67.61 158.43 68.92999999999999 C 158.15 70.85 159.73000000000002 72.30999999999999 161.58 71.89999999999999 C 162.77 71.63999999999999 164.39000000000001 70.03999999999999 164.46 68.94999999999999 C 164.55 67.77 163.07 66.48 162.27 65.23 z M 154.96 69.71 C 154.98000000000002 69.25 154.99 68.78999999999999 155.01000000000002 68.33999999999999 C 153.8 67.46 152.69000000000003 66.07 151.36 65.82999999999998 C 149.45000000000002 65.48999999999998 147.93 66.99999999999999 148.29000000000002 68.86999999999999 C 148.52 70.05999999999999 150.08 71.72999999999999 151.16000000000003 71.82999999999998 C 152.36 71.93 153.69 70.49 154.96 69.71 z M 199.37 65.24 C 198.89000000000001 65.24 198.41 65.22999999999999 197.93 65.22999999999999 C 197.1 66.46 195.58 67.71 195.63 68.89999999999999 C 195.68 69.99 197.26999999999998 71.60999999999999 198.45 71.91 C 200.32999999999998 72.39 201.88 70.86999999999999 201.69 69 C 201.56 67.68 200.19 66.49 199.37 65.24 z M 239.02 161.93 C 239.98000000000002 153.77 237.98000000000002 147.06 231.55 141.83 C 225.34 136.78 215.74 139.46 212.15 145.62 C 211.67000000000002 146.44 211.20000000000002 147.25 210.72 148.07 C 210.9 143.91 212.57 140.54 215.4 137.62 C 216.24 136.76 216.91 135.25 216.85 134.09 C 216.54999999999998 128.68 216.15 123.26 215.41 117.89 C 215.10999999999999 115.69 213.87 113.61 212.91 111.1 C 209.73 113.85 207.12 115.91 204.76999999999998 118.22999999999999 C 203.92 119.07999999999998 203.26 120.54999999999998 203.23999999999998 121.74 C 203.11999999999998 131.38 203.20999999999998 141.03 203.14999999999998 150.68 C 203.12999999999997 154.59 201.48 156.3 197.67999999999998 156.31 C 182.60999999999999 156.36 167.53999999999996 156.36 152.46999999999997 156.3 C 148.36999999999998 156.28 146.86999999999998 154.64000000000001 146.86999999999998 150.55 C 146.84999999999997 141.21 146.87999999999997 131.86 146.82999999999998 122.52000000000001 C 146.82 121.49000000000001 146.70999999999998 120.12 146.07 119.49000000000001 C 143.32999999999998 116.76 140.37 114.25000000000001 136.87 111.10000000000001 C 135.93 113.80000000000001 134.84 115.86000000000001 134.55 118.03 C 133.86 123.2 133.45000000000002 128.42000000000002 133.17000000000002 133.63 C 133.11 134.78 133.81 136.28 134.66000000000003 137.10999999999999 C 137.77000000000004 140.14 139.78000000000003 143.60999999999999 140.06000000000003 147.98999999999998 C 139.59000000000003 147.57999999999998 139.29000000000002 147.08999999999997 139.00000000000003 146.58999999999997 C 134.10000000000002 137.98999999999998 123.64000000000003 136.57999999999998 116.56000000000003 143.50999999999996 C 111.37000000000003 148.58999999999997 110.09000000000003 154.83999999999997 110.93000000000004 161.92999999999995 C 153.8 161.93 196.43 161.93 239.02 161.93 z M 175.03 154.54 C 167.5 154.54 159.97 154.48 152.44 154.57 C 149.59 154.60999999999999 148.47 153.42 148.49 150.62 C 148.56 141.18 148.58 131.75 148.49 122.31 C 148.47 119.59 149.49 118.32000000000001 152.25 117.99000000000001 C 159.52 117.12 166.76 116.00000000000001 174.03 115.08000000000001 C 175.29 114.92000000000002 176.62 115.15 177.9 115.33000000000001 C 184.56 116.22000000000001 191.21 117.21000000000001 197.88 118.03000000000002 C 200.31 118.33000000000001 201.41 119.37000000000002 201.39 121.90000000000002 C 201.32 131.54000000000002 201.30999999999997 141.18 201.38 150.81000000000003 C 201.4 153.51000000000002 200.31 154.59000000000003 197.6 154.56000000000003 C 190.07 154.47000000000003 182.54 154.53000000000003 175.01 154.53000000000003 C 175.03 154.53 175.03 154.53 175.03 154.54 z M 188.36 152.26 C 191.01000000000002 152.26 193.57000000000002 152.6 195.95000000000002 152.10999999999999 C 197.08 151.88 198.68 150.07999999999998 198.71 148.95 C 198.95000000000002 140.72 198.95000000000002 132.47 198.72 124.23999999999998 C 198.69 123.03999999999998 197.26 121.22999999999998 196.1 120.85999999999999 C 193.7 120.08999999999999 191.04 120.09999999999998 188.35 119.77999999999999 C 188.36 130.75 188.36 141.35 188.36 152.26 z M 161.53 119.75 C 158.8 120.08 156.34 120.1 154.08 120.78 C 152.91000000000003 121.13 151.28 122.65 151.26000000000002 123.68 C 151.03000000000003 132.20000000000002 151.03000000000003 140.72 151.25000000000003 149.24 C 151.28000000000003 150.27 152.89000000000001 151.91 153.98000000000002 152.12 C 156.37 152.56 158.9 152.26 161.53000000000003 152.26 C 161.53 141.33 161.53 130.75 161.53 119.75 z M 173.21 152.19 C 173.21 140.79 173.21 129.7 173.21 118.33 C 171.13 118.55 169.27 118.83 167.4 118.92 C 165.46 119.01 164.95000000000002 119.92 164.97 121.79 C 165.06 131.32 165.01 140.85 165.02 150.38 C 165.02 150.95 165.19 151.51999999999998 165.29000000000002 152.19 C 167.91 152.19 170.39 152.19 173.21 152.19 z M 176.83 118.25 C 176.83 129.8 176.83 140.89 176.83 152.07 C 179.58 152.07 182.12 152.07 184.72 152.07 C 184.72 141.04 184.72 130.25 184.72 119.25 C 182.08 118.92 179.63 118.61 176.83 118.25 z M 211.46 95.99 C 211.46 99.99 211.43 103.56 211.49 107.13 C 211.5 107.66 211.77 108.33 212.15 108.67 C 213.61 110 215.16 111.22 216.61 112.42 C 218.31 110.79 220.31 108.87 221.97000000000003 107.28 C 218.43 103.48 215.12 99.93 211.46 95.99 z M 128.28 106.59 C 130.05 108.68 131.9 110.86 133.45 112.7 C 140.6 108.72 138.25 102.23 138.47 96.79 C 134.95 100.17 131.38 103.61 128.28 106.59 z M 127.86 103.64 C 134.11 98.54 138.13 93.98 138.28 91.76 C 134.88 91.76 131.5 91.76 127.86 91.76 C 127.86 95.67 127.86 99.55 127.86 103.64 z M 222.1 103.09 C 222.1 99.36 222.1 95.59 222.1 91.77000000000001 C 218.47 91.77000000000001 215.07999999999998 91.77000000000001 211.68 91.77000000000001 C 211.89 93.98 219.34 101.93 222.1 103.09 z" stroke-linecap="round" />
</g>
<g transform="matrix(0.02 -1.37 1.37 0.02 822.07 295.18)" style="filter: url(#SVGID_1);"  >
<filter id="SVGID_1" y="-36%" height="172%" x="-22%" width="144%" >
	<feGaussianBlur in="SourceAlpha" stdDeviation="2.5"></feGaussianBlur>
	<feOffset dx="-1.97" dy="2.03" result="oBlur" ></feOffset>
	<feFlood flood-color="rgb(0,0,0)" flood-opacity="0.3"/>
	<feComposite in2="oBlur" operator="in" />
	<feMerge>
		<feMergeNode></feMergeNode>
		<feMergeNode in="SourceGraphic"></feMergeNode>
	</feMerge>
</filter>
		<text xml:space="preserve" font-family="montserratalternates-bold" font-size="40" font-style="normal" font-weight="normal" style="stroke: rgb(0,0,0); stroke-width: 2; stroke-dasharray: none; stroke-linecap: butt; stroke-dashoffset: 0; stroke-linejoin: miter; stroke-miterlimit: 4; fill: rgb(173,173,173); fill-rule: nonzero; opacity: 1; white-space: pre;" ><tspan x="-211.58" y="12.57" >T</tspan><tspan x="-182.46" y="12.57" >r</tspan><tspan x="-161.58" y="12.57" >a</tspan><tspan x="-129.98" y="12.57" >d</tspan><tspan x="-98.3" y="12.57" >e</tspan><tspan x="-69.06" y="12.57" style="white-space: pre; "> </tspan><tspan x="-53.74" y="12.57" >&amp;</tspan><tspan x="-20.62" y="12.57" style="white-space: pre; "> </tspan><tspan x="-5.3" y="12.57" >L</tspan><tspan x="22.7" y="12.57" >o</tspan><tspan x="52.9" y="12.57" >g</tspan><tspan x="84.9" y="12.57" >i</tspan><tspan x="100.94" y="12.57" >s</tspan><tspan x="126.18" y="12.57" >t</tspan><tspan x="146.66" y="12.57" >i</tspan><tspan x="162.7" y="12.57" >c</tspan><tspan x="190.34" y="12.57" >s</tspan></text>
</g>
</svg>