<?xml version="1.0" encoding="UTF-8" standalone="no" ?>
<!DOCTYPE svg PUBLIC "-//W3C//DTD SVG 1.1//EN" "http://www.w3.org/Graphics/SVG/1.1/DTD/svg11.dtd">
<svg xmlns="http://www.w3.org/2000/svg" xmlns:xlink="http://www.w3.org/1999/xlink" version="1.1" width="855" height="590" viewBox="0 0 855 590" xml:space="preserve">
<desc>Created with Fabric.js 4.5.0</desc>
<defs>
</defs>
<rect x="0" y="0" width="100%" height="100%" fill="#ffffff"></rect>
<g transform="matrix(2.67 0 0 2.67 426.73 246.87)" id="Layer_10"  >
<path style="stroke: rgb(255,255,255); stroke-width: 2; stroke-dasharray: none; stroke-linecap: butt; stroke-dashoffset: 0; stroke-linejoin: miter; stroke-miterlimit: 10; fill: none; fill-rule: nonzero; opacity: 1;"  transform=" translate(-174.95, -104.55)" d="M 202.16 108.85 C 201.51 108.77 200.81 108.67999999999999 200.07 108.57 C 194.68 107.83 186.97 106.63999999999999 179.10999999999999 105.38999999999999 C 178.94 105.35999999999999 178.74999999999997 105.33999999999999 178.57999999999998 105.30999999999999 C 177.33999999999997 105.10999999999999 176.1 104.90999999999998 174.85999999999999 104.71999999999998 C 174.85 104.71999999999998 174.85 104.71999999999998 174.85 104.71999999999998 C 173.63 104.51999999999998 172.45 104.31999999999998 171.26 104.13999999999999 C 171.09 104.10999999999999 170.92999999999998 104.08999999999999 170.76 104.05999999999999 C 164.32999999999998 103.01999999999998 158.34 102.02999999999999 154.08999999999997 101.32999999999998 C 150.18999999999997 100.66999999999999 147.74999999999997 100.25999999999999 147.74999999999997 100.25999999999999" stroke-linecap="round" />
</g>
<g transform="matrix(2.67 0 0 2.67 426.54 258.23)" id="Layer_10"  >
<path style="stroke: none; stroke-width: 1; stroke-dasharray: none; stroke-linecap: butt; stroke-dashoffset: 0; stroke-linejoin: miter; stroke-miterlimit: 4; fill: rgb(204,185,46); fill-rule: nonzero; opacity: 1;"  transform=" translate(-174.88, -108.82)" d="M 200.08 108.57 L 189.25 90.78999999999999 L 188.21 89.07 L 174.87 67.16999999999999 L 174.86 67.13999999999999 L 174.87 67.26999999999998 L 177 89.07 L 177.17 90.78999999999999 L 178.57999999999998 105.30999999999999 L 180.98 129.81 L 181.23 132.35 L 183.01 150.5 L 211.25 150.5 L 211.25 126.95 L 200.08 108.57 z M 161.43 89.23 L 160.36 90.99000000000001 L 154.09 101.32000000000001 L 138.52 126.94000000000001 L 138.52 150.49 L 166.76000000000002 150.49 L 168.53000000000003 132.3 L 168.77000000000004 129.76000000000002 L 171.27000000000004 104.12000000000002 L 172.56000000000003 90.78000000000002 L 172.73000000000002 89.06000000000002 L 174.86 67.13000000000002 L 161.43 89.23 z" stroke-linecap="round" />
</g>
<g transform="matrix(2.67 0 0 2.67 414.08 270.69)" id="Layer_10"  >
<path style="stroke: none; stroke-width: 1; stroke-dasharray: none; stroke-linecap: butt; stroke-dashoffset: 0; stroke-linejoin: miter; stroke-miterlimit: 4; fill: rgb(91,78,3); fill-rule: nonzero; opacity: 1;"  transform=" translate(-170.21, -113.49)" d="M 172.42 89.07 L 172.22 90.78999999999999 L 170.75 104.05 L 167.88 129.74 L 167.6 132.28 L 165.57999999999998 150.49 L 174.83999999999997 159.83 L 174.83999999999997 67.15 L 172.42 89.07 z" stroke-linecap="round" />
</g>
<g transform="matrix(2.67 0 0 2.67 438.81 270.69)" id="Layer_10"  >
<path style="stroke: none; stroke-width: 1; stroke-dasharray: none; stroke-linecap: butt; stroke-dashoffset: 0; stroke-linejoin: miter; stroke-miterlimit: 4; fill: rgb(104,89,0); fill-rule: nonzero; opacity: 1;"  transform=" translate(-179.49, -113.49)" d="M 182.1 132.33 L 181.82 129.79000000000002 L 179.10999999999999 105.38000000000002 L 177.48999999999998 90.78000000000003 L 177.29 89.06000000000003 L 174.85999999999999 67.16000000000003 L 174.85999999999999 159.82000000000002 L 184.11999999999998 150.48000000000002 L 182.1 132.33 z" stroke-linecap="round" />
</g>
<g transform="matrix(2.67 0 0 2.67 431.55 262.97)" id="Blue_Curve"  >
<path style="stroke: rgb(46,142,255); stroke-width: 2; stroke-dasharray: none; stroke-linecap: round; stroke-dashoffset: 0; stroke-linejoin: miter; stroke-miterlimit: 10; fill: none; fill-rule: nonzero; opacity: 1;"  transform=" translate(-176.76, -110.59)" d="M 205.56 89.79 C 204.78 89.79 203.8 89.79 202.65 89.79 C 199.19 89.79 194.28 89.79 189.24 89.79 C 185.15 89.79 180.98000000000002 89.79 177.48000000000002 89.79 C 177.37 89.79 177.27 89.79 177.16000000000003 89.79 C 176.35000000000002 89.79 175.57000000000002 89.79 174.85000000000002 89.79 L 174.84000000000003 89.79 C 174.01000000000002 89.79 173.24000000000004 89.79 172.54000000000002 89.79 C 172.43 89.79 172.32000000000002 89.79 172.21 89.79 C 169.98000000000002 89.79 168.6 89.79 168.6 89.79 C 165.75 89.79 162.97 89.86 160.34 89.99000000000001 C 146.79 90.65 136.89000000000001 92.99000000000001 138.49 96.55000000000001 M 121.96 123.26 C 122.36 123.54 122.80999999999999 123.83 123.32 124.11 C 126.5 125.83 131.76999999999998 127.36 138.51 128.56 C 146.48999999999998 129.99 156.51 130.96 167.60999999999999 131.28 C 167.91 131.29 168.22 131.29 168.51999999999998 131.31 C 170.58999999999997 131.36 172.70999999999998 131.39000000000001 174.85 131.4 L 174.85999999999999 131.4 C 175.14999999999998 131.4 175.44 131.4 175.73 131.4 C 177.59 131.4 179.42999999999998 131.39000000000001 181.23999999999998 131.35 C 181.52999999999997 131.34 181.82 131.34 182.1 131.34 C 193.1 131.09 203.15 130.19 211.26 128.86 C 223.66 126.81000000000002 231.57 123.71000000000001 231.57 120.23000000000002 C 231.57 119.81000000000002 231.45999999999998 119.36000000000001 231.23999999999998 118.91000000000003 C 229.29 114.87000000000002 218.77999999999997 110.06000000000003 203.01 108.36000000000003" stroke-linecap="round" />
</g>
<g transform="matrix(2.67 0 0 2.67 431.55 259.95)" id="White_Curve"  >
<path style="stroke: rgb(61,54,0); stroke-width: 2; stroke-dasharray: none; stroke-linecap: round; stroke-dashoffset: 0; stroke-linejoin: miter; stroke-miterlimit: 10; fill: rgb(207,190,190); fill-rule: nonzero; opacity: 1;"  transform=" translate(-176.76, -109.46)" d="M 205.54 89.07 C 204.62 89.07 203.4 89.07 201.95999999999998 89.07 C 198.30999999999997 89.07 193.26999999999998 89.07 188.2 89.07 C 184.38 89.07 180.54999999999998 89.07 177.29 89.07 C 177.2 89.07 177.09 89.07 177 89.07 C 176.25 89.07 175.53 89.07 174.86 89.07 L 174.85000000000002 89.07 C 174.08 89.07 173.37000000000003 89.07 172.72000000000003 89.07 C 172.61 89.07 172.52000000000004 89.07 172.42000000000002 89.07 C 169.98000000000002 89.07 168.46 89.07 168.46 89.07 C 166.04000000000002 89.07 163.69 89.11999999999999 161.43 89.22999999999999 C 147.27 89.85999999999999 136.69 92.41 136.69 95.43999999999998 C 136.69 96.17999999999998 137.34 96.88999999999999 138.51 97.54999999999998 C 140.37 98.60999999999999 143.57999999999998 99.52999999999999 147.73999999999998 100.23999999999998 C 147.79 100.24999999999999 147.85999999999999 100.26999999999998 147.92 100.27999999999999 M 121.96 121.72 C 122.78999999999999 122.31 123.86 122.88 125.16 123.42 C 128.37 124.79 132.94 126.01 138.51 127.01 C 146.54999999999998 128.45000000000002 156.69 129.43 167.89 129.73000000000002 C 168.17999999999998 129.74 168.47 129.76000000000002 168.76 129.76000000000002 C 170.75 129.81000000000003 172.79 129.84000000000003 174.85 129.85000000000002 L 174.85999999999999 129.85000000000002 C 175.14999999999998 129.85000000000002 175.44 129.85000000000002 175.73 129.85000000000002 C 177.5 129.85000000000002 179.26 129.84000000000003 180.98999999999998 129.8 C 181.26999999999998 129.8 181.54 129.79000000000002 181.82 129.79000000000002 C 192.94 129.55 203.07 128.65000000000003 211.26 127.31000000000002 C 222.2 125.50000000000001 229.63 122.87000000000002 231.23999999999998 119.90000000000002 C 231.45999999999998 119.50000000000001 231.57 119.09000000000002 231.57 118.68000000000002 C 231.57 114.43000000000002 219.67 110.72000000000003 202.14999999999998 108.84000000000002" stroke-linecap="round" />
</g>
<g transform="matrix(2.67 0 0 2.67 508.12 159.91)" id="Location"  >
<path style="stroke: none; stroke-width: 1; stroke-dasharray: none; stroke-linecap: butt; stroke-dashoffset: 0; stroke-linejoin: miter; stroke-miterlimit: 4; fill: rgb(255,255,255); fill-rule: nonzero; opacity: 1;"  transform=" translate(-205.5, -71.92)" d="M 210.39 62.75 C 209.02999999999997 61.72 207.33999999999997 61.11 205.5 61.11 C 203.69 61.11 202.03 61.69 200.68 62.68 C 198.66 64.17 197.34 66.56 197.34 69.27 C 197.34 73.77 205.5 82.74 205.5 82.74 C 205.5 82.74 213.65 73.77 213.65 69.27 C 213.65 66.61 212.37 64.23 210.39 62.75 z M 205.5 64.14 C 207.4 64.14 208.96 65.69 208.96 67.59 C 208.96 69.51 207.4 71.05 205.5 71.05 C 203.58 71.05 202.04 69.5 202.04 67.59 C 202.04 65.68 203.59 64.14 205.5 64.14 z" stroke-linecap="round" />
</g>
<g transform="matrix(2.67 0 0 2.67 396.83 248.69)" id="Elipse"  >
<path style="stroke: none; stroke-width: 1; stroke-dasharray: none; stroke-linecap: butt; stroke-dashoffset: 0; stroke-linejoin: miter; stroke-miterlimit: 4; fill: rgb(104,89,0); fill-rule: nonzero; opacity: 1;"  transform=" translate(-163.74, -105.23)" d="M 121.99 118.26 C 120.02 118.26 118.42 119.86 118.42 121.81 C 118.42 123.78 120.02 125.36 121.99 125.36 C 122.47 125.36 122.91 125.27 123.32 125.1 C 124.11 124.78 124.75999999999999 124.19 125.16 123.41999999999999 C 125.39999999999999 122.93999999999998 125.53999999999999 122.38999999999999 125.53999999999999 121.80999999999999 C 125.54 119.85 123.94 118.26 121.99 118.26 z M 205.5 85.11 C 203.53 85.11 201.93 86.7 201.93 88.66 C 201.93 88.81 201.94 88.94 201.96 89.07 C 202.03 89.72 202.28 90.3 202.65 90.78999999999999 C 203.3 91.66 204.34 92.22 205.5 92.22 C 207.45 92.22 209.05 90.62 209.05 88.67 C 209.06 86.7 207.46 85.11 205.5 85.11 z" stroke-linecap="round" />
</g>
<g transform="matrix(2.67 0 0 2.67 508.22 134.86)" id="Layer_10"  >
<path style="stroke: none; stroke-width: 1; stroke-dasharray: none; stroke-linecap: butt; stroke-dashoffset: 0; stroke-linejoin: miter; stroke-miterlimit: 4; fill: rgb(35,240,20); fill-rule: nonzero; opacity: 1;"  transform=" translate(-205.53, -62.52)" d="M 210.39 62.75 C 210.23 63.42 209.61999999999998 63.93 208.89999999999998 63.93 L 202.2 63.93 C 201.45 63.93 200.82999999999998 63.39 200.67999999999998 62.69 C 202.02999999999997 61.699999999999996 203.68999999999997 61.12 205.49999999999997 61.12 C 207.34 61.11 209.03 61.72 210.39 62.75 z" stroke-linecap="round" />
</g>
<g transform="matrix(2.67 0 0 2.67 508.25 170.05)" id="Layer_10"  >
<path style="stroke: none; stroke-width: 1; stroke-dasharray: none; stroke-linecap: butt; stroke-dashoffset: 0; stroke-linejoin: miter; stroke-miterlimit: 4; fill: rgb(89,255,0); fill-rule: nonzero; opacity: 1;"  transform=" translate(-205.54, -75.73)" d="M 202.2 74.18 L 208.89 74.18 C 209.75 74.18 210.44 74.88000000000001 210.44 75.73 C 210.44 76.58 209.74 77.28 208.89 77.28 L 202.2 77.28 C 201.33999999999997 77.28 200.64999999999998 76.58 200.64999999999998 75.73 C 200.64999999999998 74.88000000000001 201.35 74.18 202.2 74.18 z" stroke-linecap="round" />
</g>
<g transform="matrix(2.67 0 0 2.67 508.25 115.79)" id="Layer_10"  >
<path style="stroke: none; stroke-width: 1; stroke-dasharray: none; stroke-linecap: butt; stroke-dashoffset: 0; stroke-linejoin: miter; stroke-miterlimit: 4; fill: rgb(61,54,0); fill-rule: nonzero; opacity: 1;"  transform=" translate(-205.54, -55.37)" d="M 210.39 62.75 C 209.02999999999997 61.72 207.33999999999997 61.11 205.5 61.11 C 203.69 61.11 202.03 61.69 200.68 62.68 C 198.66 64.17 197.34 66.56 197.34 69.27 C 197.34 73.77 205.5 82.74 205.5 82.74 C 205.5 82.74 213.65 73.77 213.65 69.27 C 213.65 66.61 212.37 64.23 210.39 62.75 z M 205.5 64.14 C 207.4 64.14 208.96 65.69 208.96 67.59 C 208.96 69.51 207.4 71.05 205.5 71.05 C 203.58 71.05 202.04 69.5 202.04 67.59 C 202.04 65.68 203.59 64.14 205.5 64.14 z M 219.15 36.29 L 207.1 36.29 L 207.1 31.1 L 210.98 31.1 C 211.84 31.1 212.53 30.41 212.53 29.55 C 212.53 28.69 211.84 28 210.99 28 L 200.12 28 C 199.26 28 198.56 28.7 198.56 29.56 C 198.56 30.419999999999998 199.26 31.11 200.12 31.11 L 204 31.11 L 204 36.3 L 191.95 36.3 C 191.08999999999997 36.3 190.39999999999998 36.989999999999995 190.39999999999998 37.849999999999994 L 190.39999999999998 51.559999999999995 L 220.68999999999997 51.559999999999995 L 220.68999999999997 37.84 C 220.69 36.98 219.99 36.29 219.15 36.29 z M 197.21 45.46 C 195.89000000000001 45.46 194.82000000000002 44.39 194.83 43.07 C 194.83 41.76 195.9 40.69 197.22 40.71 C 198.53 40.71 199.6 41.78 199.6 43.1 C 199.59 44.4 198.52 45.47 197.21 45.46 z M 205.54 45.46 C 204.22 45.46 203.16 44.39 203.16 43.07 C 203.16 41.76 204.23 40.69 205.54999999999998 40.71 C 206.86999999999998 40.71 207.92999999999998 41.78 207.92999999999998 43.1 C 207.92 44.4 206.85 45.47 205.54 45.46 z M 213.89 45.46 C 212.57999999999998 45.46 211.51 44.39 211.51 43.07 C 211.51999999999998 41.76 212.59 40.69 213.89999999999998 40.71 C 215.21999999999997 40.71 216.28999999999996 41.78 216.27999999999997 43.1 C 216.28 44.4 215.21 45.47 213.89 45.46 z M 192.08 54.66 L 196.27 59.91 L 214.82000000000002 59.91 L 219.01000000000002 54.66 L 192.08 54.66 z" stroke-linecap="round" />
</g>
<g transform="matrix(1 0 0 1 428.5 438.1)" style=""  >
		<text xml:space="preserve" font-family="arialbd" font-size="40" font-style="normal" font-weight="normal" style="stroke: none; stroke-width: 1; stroke-dasharray: none; stroke-linecap: butt; stroke-dashoffset: 0; stroke-linejoin: miter; stroke-miterlimit: 4; fill: rgb(223,17,17); fill-rule: nonzero; opacity: 1; white-space: pre;" ><tspan x="-66.65" y="12.57" >B</tspan><tspan x="-35.97" y="12.57" >e</tspan><tspan x="-14.22" y="12.57" >a</tspan><tspan x="7.54" y="12.57" >u</tspan><tspan x="31.54" y="12.57" >t</tspan><tspan x="46.65" y="12.57" >y</tspan></text>
</g>
</svg>