<?xml version="1.0" encoding="UTF-8" standalone="no" ?>
<!DOCTYPE svg PUBLIC "-//W3C//DTD SVG 1.1//EN" "http://www.w3.org/Graphics/SVG/1.1/DTD/svg11.dtd">
<svg xmlns="http://www.w3.org/2000/svg" xmlns:xlink="http://www.w3.org/1999/xlink" version="1.1"   viewBox="0 0 855 590" xml:space="preserve" width="855" height="590">
<desc>Created with Fabric.js 4.5.0</desc>
<defs>
</defs>
<rect x="0" y="0" width="100%" height="100%" fill="#907a7a"></rect>
<g transform="matrix(2.32 0 0 2.32 427.45 245.94)"  >
<path style="stroke: none; stroke-width: 1; stroke-dasharray: none; stroke-linecap: butt; stroke-dashoffset: 0; stroke-linejoin: miter; stroke-miterlimit: 4; fill: rgb(63,34,8); fill-rule: nonzero; opacity: 1;"  transform=" translate(-174.99, -104.51)" d="M 172.14 108.2 C 172.29 109.05 172.32 109.91 172.22 110.77 C 172.10999999999999 111.7 172.07 112.64999999999999 171.99 113.58999999999999 C 171.83 115.46999999999998 171.67000000000002 117.33999999999999 171.5 119.21999999999998 C 171.33 121.09999999999998 171.16 122.96999999999998 170.99 124.84999999999998 C 170.82000000000002 126.72999999999998 170.65 128.59999999999997 170.49 130.48 C 170.33 132.35999999999999 170.18 134.23 170.04000000000002 136.10999999999999 C 165.32000000000002 126.57 163.33 115.84999999999998 163.12000000000003 105.26999999999998 C 163.84000000000003 105.71999999999998 164.41000000000003 106.36999999999998 165.07000000000002 106.88999999999999 C 165.75000000000003 107.42999999999999 166.46 107.93999999999998 167.20000000000002 108.39999999999999 C 167.35000000000002 108.49999999999999 167.47000000000003 108.63 167.63000000000002 108.71 C 167.66000000000003 108.72999999999999 167.70000000000002 108.74 167.73000000000002 108.72999999999999 C 167.86 108.69999999999999 167.99 108.47999999999999 168.07000000000002 108.38999999999999 C 168.12000000000003 108.32999999999998 168.17000000000002 108.26999999999998 168.22000000000003 108.20999999999998 C 168.29000000000002 108.12999999999998 168.35000000000002 108.04999999999998 168.42000000000002 107.95999999999998 C 168.64000000000001 107.66999999999997 168.86 107.37999999999998 169.07000000000002 107.08999999999997 C 169.07000000000002 107.00999999999998 169.26000000000002 106.81999999999998 169.31000000000003 106.74999999999997 C 169.40000000000003 106.60999999999997 169.49000000000004 106.46999999999997 169.58000000000004 106.32999999999997 C 169.75000000000003 106.05999999999997 169.92000000000004 105.78999999999996 170.09000000000003 105.50999999999998 C 170.23000000000002 105.26999999999998 170.38000000000002 105.03999999999998 170.52000000000004 104.79999999999998 C 170.57000000000005 104.71999999999998 170.85000000000005 104.37999999999998 170.82000000000005 104.28999999999998 C 171.33 105.54 171.9 106.84 172.14 108.2 z M 174.21 98.02 C 174.06 98.06 173.92000000000002 98.11999999999999 173.78 98.17999999999999 C 172.11 98.91999999999999 170.87 100.36999999999999 169.87 101.88999999999999 C 168.87 103.41999999999999 168.07 105.07 166.95000000000002 106.50999999999999 C 162.71 103.16 159.25000000000003 98.82 156.93 93.92999999999999 C 156.76000000000002 93.58 156.6 93.19999999999999 156.6 92.80999999999999 C 156.6 92.74999999999999 156.60999999999999 92.69999999999999 156.62 92.63999999999999 C 156.81 91.71999999999998 158.39000000000001 90.83999999999999 159.07 90.38999999999999 C 160.14 89.69999999999999 161.35 89.16999999999999 162.64 89.17999999999999 C 164.29 89.19999999999999 165.79 90.08999999999999 167.13 91.05 C 168.94 92.35 170.64 93.82 172.57 94.94 L 172.56 94.94 C 173.66 95.66 174.06 97.07 174.21 98.02 z M 161.21 95.6 C 160.59 96.36 161.94 97.25999999999999 162.48000000000002 96.49 C 163.1 95.71 161.74 94.82 161.21 95.6 z M 187.28 105.12 C 187.06 105.31 186.85 105.51 186.63 105.71000000000001 C 185.35999999999999 106.88000000000001 183.95 107.96000000000001 182.74 109.2 C 182.72 109.22 182.71 109.23 182.68 109.24000000000001 C 182.63 109.25000000000001 182.59 109.21000000000001 182.55 109.18 C 181.81 108.42 181.11 107.67 180.45000000000002 106.83000000000001 C 180.12 106.4 179.8 105.97000000000001 179.48000000000002 105.54 C 179.31000000000003 105.32000000000001 179.15 105.10000000000001 178.98000000000002 104.88000000000001 C 178.93 104.81000000000002 178.51000000000002 104.37 178.53000000000003 104.31000000000002 C 177.03000000000003 108.52000000000001 178.27000000000004 112.95000000000002 178.59000000000003 117.24000000000001 C 179.42000000000004 123.71000000000001 179.70000000000005 130.24 180.62000000000003 136.70000000000002 C 183.02000000000004 133.07000000000002 184.17000000000004 128.81000000000003 185.27000000000004 124.66000000000003 C 186.69000000000003 118.07000000000002 187.87000000000003 111.37000000000003 187.87000000000003 104.61000000000003 C 187.86 104.7 187.36 105.04 187.28 105.12 z M 186.71 89.37 C 187.6 89.21000000000001 188.51000000000002 89.34 189.38 89.59 C 190.82999999999998 90 192.2 90.74000000000001 193.34 91.73 C 193.48 91.85000000000001 193.62 91.99000000000001 193.68 92.16000000000001 C 193.76000000000002 92.38000000000001 193.69 92.63000000000001 193.61 92.85000000000001 C 193.14000000000001 94.26 192.43 95.58000000000001 191.65 96.85000000000001 C 189.36 100.60000000000001 186.48000000000002 104.01 183.17000000000002 106.9 C 180.63000000000002 104.19000000000001 179.29000000000002 100.24000000000001 176.10000000000002 98.39 C 176.19000000000003 97.53 176.51000000000002 95.95 177.60000000000002 95.11 C 179.90000000000003 93.92 181.85000000000002 92.12 184.00000000000003 90.65 C 184.83 90.08 185.72 89.55 186.71 89.37 z M 188.69 96.45 C 189.32999999999998 95.63000000000001 187.91 94.82000000000001 187.45 95.69 C 186.78 96.51 188.21 97.31 188.69 96.45 z M 235.86 163.32 C 218.21 157.10999999999999 199.62 153.60999999999999 180.93 152.84 C 159.36 151.95000000000002 137.62 154.71 117 161.15 C 113.05 162.38 109.16 163.82 105.55 165.86 C 105.24 166.04000000000002 104.84 166.31 104.94 166.72000000000003 C 105.03 167.09000000000003 105.49 167.33000000000004 105.85 167.35000000000002 C 106.16 167.37000000000003 106.47 167.3 106.77 167.21000000000004 C 107.83999999999999 166.90000000000003 108.83 166.36000000000004 109.86 165.92000000000004 C 110.97 165.45000000000005 112.08 165.01000000000005 113.2 164.58000000000004 C 115.44 163.73000000000005 117.72 162.97000000000003 120.02000000000001 162.29000000000005 C 124.73 160.90000000000006 129.5 159.71000000000004 134.31 158.68000000000004 C 138.69 157.75000000000003 143.1 156.98000000000005 147.53 156.37000000000003 C 151.96 155.76000000000002 156.42000000000002 155.31000000000003 160.89 155.01000000000002 C 165.35999999999999 154.72000000000003 169.83999999999997 154.59000000000003 174.30999999999997 154.61 C 178.78999999999996 154.64000000000001 183.25999999999996 154.82000000000002 187.72999999999996 155.17000000000002 C 192.18999999999997 155.52 196.63999999999996 156.02 201.06999999999996 156.68 C 205.49999999999997 157.34 209.89999999999998 158.17000000000002 214.26999999999995 159.15 C 218.63999999999996 160.13 222.96999999999994 161.27 227.24999999999994 162.57 C 231.26999999999995 163.79 235.24999999999994 165.15 239.17999999999995 166.65 C 240.45999999999995 167.14000000000001 241.71999999999994 167.65 242.98999999999995 168.16 C 243.28999999999996 168.28 243.59999999999997 168.4 243.92999999999995 168.44 C 244.29999999999995 168.48 244.73999999999995 168.4 244.94999999999996 168.06 C 245.26999999999995 167.55 244.85999999999996 167.01 244.45999999999995 166.7 C 243.89999999999995 166.26999999999998 243.21999999999994 166.04999999999998 242.56999999999996 165.81 C 241.86999999999998 165.54 241.17999999999998 165.25 240.47999999999996 164.99 C 238.95 164.43 237.41 163.87 235.86 163.32 z M 228.62 95.29 C 229.14000000000001 95.29 229.61 94.95 229.75 94.43 C 229.92 93.80000000000001 229.55 93.16000000000001 228.92 92.99000000000001 C 228.29999999999998 92.83000000000001 227.64999999999998 93.2 227.48 93.82000000000001 C 227.31 94.45 227.67999999999998 95.09 228.31 95.26 C 228.41 95.28 228.52 95.29 228.62 95.29 z M 231.01 88.53 C 231.12 87.89 230.67999999999998 87.29 230.04 87.19 C 229.4 87.09 228.79999999999998 87.52 228.7 88.16 C 228.6 88.8 229.03 89.39999999999999 229.67999999999998 89.5 C 229.73999999999998 89.51 229.79999999999998 89.52 229.85999999999999 89.52 C 230.42 89.52 230.92 89.11 231.01 88.53 z M 227.2 98.63 C 226.6 98.39999999999999 225.92 98.69 225.67999999999998 99.3 C 225.45 99.89999999999999 225.73999999999998 100.58 226.33999999999997 100.82 C 226.47999999999996 100.86999999999999 226.62999999999997 100.89999999999999 226.76999999999998 100.89999999999999 C 227.23999999999998 100.89999999999999 227.67999999999998 100.61999999999999 227.85999999999999 100.16 C 228.1 99.55 227.8 98.87 227.2 98.63 z M 229.65 69.56 C 229.01000000000002 69.67 228.58 70.27 228.68 70.91 C 228.77 71.47999999999999 229.27 71.89 229.84 71.89 C 229.9 71.89 229.96 71.88 230.02 71.87 C 230.66 71.77000000000001 231.10000000000002 71.17 230.99 70.53 C 230.89 69.89 230.29 69.46 229.65 69.56 z M 137.79 120.61 C 137.37 121.1 137.41 121.83 137.91 122.26 C 138.13 122.45 138.4 122.55000000000001 138.68 122.55000000000001 C 139.01000000000002 122.55000000000001 139.33 122.41000000000001 139.56 122.15 C 139.98 121.66000000000001 139.93 120.92 139.45 120.49000000000001 C 138.95 120.07 138.22 120.12 137.79 120.61 z M 231.64 82.54 C 231.67999999999998 81.9 231.17999999999998 81.34 230.52999999999997 81.32000000000001 C 229.89 81.28 229.32999999999998 81.78 229.29999999999998 82.43 C 229.26999999999998 83.07000000000001 229.76 83.63000000000001 230.41 83.66000000000001 C 230.43 83.66000000000001 230.45 83.66000000000001 230.47 83.66000000000001 C 231.09 83.65 231.61 83.17 231.64 82.54 z M 230.4 75.41 C 229.75 75.45 229.26000000000002 76 229.29 76.64999999999999 C 229.32 77.27 229.84 77.75999999999999 230.45999999999998 77.75999999999999 C 230.48 77.75999999999999 230.51 77.75999999999999 230.51999999999998 77.75999999999999 C 231.17 77.71999999999998 231.65999999999997 77.16999999999999 231.63 76.52 C 231.6 75.87 231.04 75.38 230.4 75.41 z M 213.01 118.42 C 212.54999999999998 118.87 212.54 119.61 212.98999999999998 120.08 C 213.21999999999997 120.31 213.51999999999998 120.42999999999999 213.82999999999998 120.42999999999999 C 214.13 120.42999999999999 214.42 120.32 214.64999999999998 120.1 C 215.10999999999999 119.64 215.11999999999998 118.89999999999999 214.67 118.44 C 214.21 117.98 213.48 117.97 213.01 118.42 z M 223.3 104.56 C 223 105.13 223.22 105.84 223.8 106.14 C 223.98000000000002 106.23 224.16000000000003 106.27 224.34 106.27 C 224.76 106.27 225.17000000000002 106.03999999999999 225.38 105.64 C 225.68 105.07000000000001 225.46 104.36 224.88 104.06 C 224.3 103.76 223.6 103.99 223.3 104.56 z M 217.08 115.83 C 217.3 116.01 217.57000000000002 116.1 217.83 116.1 C 218.16000000000003 116.1 218.5 115.94999999999999 218.73000000000002 115.66999999999999 C 219.14000000000001 115.16999999999999 219.07000000000002 114.42999999999999 218.57000000000002 114.01999999999998 C 218.07000000000002 113.59999999999998 217.33 113.66999999999999 216.92000000000002 114.16999999999999 C 216.51 114.67 216.58 115.41 217.08 115.83 z M 220.63 47.93 C 220.09 48.29 219.94 49.01 220.29999999999998 49.55 C 220.52999999999997 49.89 220.89999999999998 50.08 221.27999999999997 50.08 C 221.49999999999997 50.08 221.72999999999996 50.019999999999996 221.91999999999996 49.879999999999995 C 222.45999999999995 49.519999999999996 222.60999999999996 48.8 222.24999999999997 48.26 C 221.9 47.72 221.17 47.57 220.63 47.93 z M 127.33 52.62 C 127.73 52.62 128.13 52.41 128.34 52.05 C 128.67000000000002 51.489999999999995 128.48 50.769999999999996 127.92 50.44 C 127.36 50.11 126.64 50.29 126.31 50.849999999999994 C 125.98 51.41 126.17 52.129999999999995 126.73 52.449999999999996 C 126.92 52.57 127.13 52.62 127.33 52.62 z M 223.75 52.94 C 223.18 53.239999999999995 222.95 53.949999999999996 223.25 54.519999999999996 C 223.46 54.919999999999995 223.87 55.15 224.29 55.15 C 224.48 55.15 224.66 55.11 224.82999999999998 55.019999999999996 C 225.39999999999998 54.72 225.63 54.01 225.32999999999998 53.44 C 225.02 52.87 224.32 52.65 223.75 52.94 z M 220.36 109.53 C 220 110.07000000000001 220.16000000000003 110.8 220.69000000000003 111.16 C 220.89000000000001 111.28999999999999 221.11 111.35 221.33 111.35 C 221.71 111.35 222.08 111.16 222.31 110.82 C 222.67000000000002 110.27999999999999 222.52 109.55999999999999 221.98 109.19999999999999 C 221.45 108.85 220.72 109 220.36 109.53 z M 122.82 61.07 C 122.21 60.86 121.53999999999999 61.2 121.33999999999999 61.81 C 121.13 62.42 121.46999999999998 63.09 122.07999999999998 63.29 C 122.19999999999999 63.33 122.32999999999998 63.35 122.44999999999999 63.35 C 122.93999999999998 63.35 123.39999999999999 63.03 123.55999999999999 62.54 C 123.77 61.93 123.44 61.27 122.82 61.07 z M 217.01 43.27 C 216.51 43.690000000000005 216.44 44.42 216.85999999999999 44.92 C 217.08999999999997 45.2 217.42 45.34 217.76 45.34 C 218.01999999999998 45.34 218.29 45.25 218.51 45.07 C 219 44.65 219.07 43.92 218.66 43.42 C 218.24 42.93 217.51 42.86 217.01 43.27 z M 226.31 58.26 C 225.71 58.5 225.41 59.18 225.65 59.78 C 225.83 60.24 226.27 60.52 226.74 60.52 C 226.88 60.52 227.03 60.49 227.17000000000002 60.440000000000005 C 227.77 60.2 228.07000000000002 59.52 227.83 58.92 C 227.59 58.32 226.91 58.02 226.31 58.26 z M 129.96 111.8 C 129.44 112.19 129.33 112.92 129.72 113.44 C 129.95 113.74 130.31 113.91 130.66 113.91 C 130.9 113.91 131.15 113.83 131.35999999999999 113.67999999999999 C 131.88 113.28999999999999 131.98999999999998 112.55999999999999 131.6 112.03999999999999 C 131.22 111.52 130.48 111.41 129.96 111.8 z M 119.76 67.63 C 119.62 68.25999999999999 120.02000000000001 68.88 120.66000000000001 69.02 C 120.74000000000001 69.03999999999999 120.82000000000001 69.05 120.91000000000001 69.05 C 121.45000000000002 69.05 121.94000000000001 68.67 122.05000000000001 68.11999999999999 C 122.18 67.49 121.78000000000002 66.85999999999999 121.15 66.72999999999999 C 120.52 66.59 119.9 67 119.76 67.63 z M 228.28 63.82 C 227.66 63.99 227.29 64.63 227.46 65.26 C 227.6 65.78 228.07000000000002 66.12 228.59 66.12 C 228.69 66.12 228.8 66.11 228.9 66.08 C 229.52 65.91 229.89000000000001 65.27 229.72 64.64 C 229.55 64.02 228.91 63.65 228.28 63.82 z M 124.12 57.75 C 124.28 57.82 124.44 57.86 124.60000000000001 57.86 C 125.05000000000001 57.86 125.47000000000001 57.6 125.67 57.17 C 125.93 56.58 125.68 55.89 125.08 55.620000000000005 C 124.49 55.36000000000001 123.8 55.61000000000001 123.53 56.21000000000001 C 123.54 56.21000000000001 123.54 56.21000000000001 123.54 56.21000000000001 C 123.27 56.79 123.53 57.48 124.12 57.75 z M 127.39 109 C 127.59 109 127.8 108.95 127.99 108.84 C 128.54999999999998 108.51 128.73 107.79 128.4 107.23 C 128.07 106.67 127.35000000000001 106.49000000000001 126.79 106.82000000000001 C 126.23 107.15 126.05000000000001 107.87 126.38000000000001 108.43 C 126.6 108.8 126.99 109 127.39 109 z M 120.93 92.6 C 121.01 92.6 121.09 92.58999999999999 121.18 92.58 C 121.81 92.44 122.21000000000001 91.81 122.08000000000001 91.17999999999999 C 121.94000000000001 90.55 121.32000000000001 90.14999999999999 120.69000000000001 90.28999999999999 C 120.06000000000002 90.41999999999999 119.66000000000001 91.05 119.79 91.67999999999999 C 119.91 92.22 120.39 92.6 120.93 92.6 z M 124.65 103.78 C 124.81 103.78 124.98 103.75 125.14 103.67 C 125.73 103.4 125.99 102.71000000000001 125.72 102.12 C 125.45 101.53 124.75 101.27000000000001 124.17 101.54 C 123.58 101.81 123.32000000000001 102.51 123.59 103.10000000000001 C 123.79 103.52 124.21 103.78 124.65 103.78 z M 133.64 116.41 C 133.17 116.85 133.14 117.59 133.57999999999998 118.07 C 133.80999999999997 118.32 134.11999999999998 118.44 134.44 118.44 C 134.73 118.44 135.01 118.33 135.24 118.12 C 135.71 117.68 135.74 116.94 135.3 116.47 C 134.86 116 134.11 115.97 133.64 116.41 z M 122.49 98.29 C 122.61 98.29 122.74 98.27000000000001 122.86 98.23 C 123.47 98.02000000000001 123.81 97.36 123.6 96.75 C 123.39 96.14 122.72999999999999 95.8 122.11999999999999 96.01 C 121.50999999999999 96.22000000000001 121.16999999999999 96.88000000000001 121.38 97.49000000000001 C 121.54 97.98 122 98.29 122.49 98.29 z M 129.66 45.84 C 129.27 46.36000000000001 129.38 47.09 129.9 47.480000000000004 C 130.11 47.63 130.35 47.71 130.6 47.71 C 130.96 47.71 131.31 47.550000000000004 131.54 47.24 C 131.92999999999998 46.72 131.82 45.99 131.29 45.6 C 130.78 45.21 130.04 45.32 129.66 45.84 z M 118.5 79.65 C 118.5 79.67 118.5 79.69000000000001 118.5 79.71000000000001 C 118.5 80.35000000000001 119.02 80.88000000000001 119.67 80.88000000000001 C 120.31 80.87 120.84 80.35000000000001 120.84 79.7 C 120.84 79.68 120.84 79.66 120.84 79.64 C 120.84 79.62 120.84 79.6 120.84 79.58 C 120.84 78.92999999999999 120.32000000000001 78.41 119.67 78.41 C 119.02 78.41 118.5 78.92999999999999 118.5 79.58 C 118.5 79.61 118.5 79.63 118.5 79.65 z M 119.98 86.78 C 120.02000000000001 86.78 120.07000000000001 86.78 120.11 86.77 C 120.75 86.7 121.22 86.11999999999999 121.15 85.47999999999999 C 121.08000000000001 84.83999999999999 120.51 84.36999999999999 119.86 84.43999999999998 C 119.22 84.50999999999998 118.75 85.08999999999999 118.82 85.72999999999999 C 118.89 86.33 119.39 86.78 119.98 86.78 z M 118.81 73.58 C 118.75 74.22 119.21000000000001 74.8 119.85000000000001 74.87 C 119.89000000000001 74.88000000000001 119.94000000000001 74.88000000000001 119.98 74.88000000000001 C 120.57000000000001 74.88000000000001 121.08 74.43 121.14 73.83000000000001 C 121.21 73.19000000000001 120.74 72.61000000000001 120.1 72.54 C 119.45 72.46 118.88 72.93 118.81 73.58 z M 234.58 79.59 C 234.58 97.53 226.60000000000002 113.63 214 124.55000000000001 C 212.97 125.44000000000001 212.9 127.01 213.87 127.98000000000002 L 213.87 127.98000000000002 C 214.74 128.85000000000002 216.13 128.9 217.06 128.09000000000003 C 230.66 116.32000000000004 239.28 98.95000000000003 239.28 79.59000000000003 C 239.28 65.35000000000004 234.61 52.180000000000035 226.73 41.52000000000003 C 225.88 40.37000000000003 224.20999999999998 40.26000000000003 223.2 41.27000000000003 L 223.2 41.27000000000003 C 222.38 42.09000000000003 222.29 43.38000000000003 222.97 44.31000000000003 C 230.26 54.19 234.58 66.4 234.58 79.59 z M 136.35 127.98 L 136.35 127.98 C 137.31 127.02000000000001 137.25 125.45 136.22 124.55 C 123.62 113.64 115.64 97.53 115.64 79.59 C 115.64 66.4 119.96000000000001 54.190000000000005 127.26 44.32 C 127.95 43.39 127.85000000000001 42.1 127.03 41.28 L 127.03 41.28 C 126.02 40.27 124.35 40.38 123.5 41.53 C 115.62 52.19 110.95 65.36 110.95 79.6 C 110.95 98.94999999999999 119.57000000000001 116.32999999999998 133.16 128.1 C 134.09 128.89 135.48 128.84 136.35 127.98 z M 146.69 110.02 C 146.8 109.99 146.91 109.95 147.03 109.92999999999999 L 147.11 109.91 C 147.8 109.74 148.49 109.61999999999999 149.16000000000003 109.49 C 149.47000000000003 109.42999999999999 149.78000000000003 109.38 150.09000000000003 109.32 L 144.84000000000003 105.55 C 143.56000000000003 104.63 144.08000000000004 103.49 145.10000000000002 101.22 L 145.15000000000003 101.11 C 145.51000000000005 100.29 145.92000000000004 99.47 146.35000000000002 98.67999999999999 C 149.04000000000002 93.8 153.00000000000003 89.72 157.79000000000002 86.86999999999999 C 153.91000000000003 86.02999999999999 149.92000000000002 84.86999999999999 146.35000000000002 82.82999999999998 C 140.34000000000003 79.38999999999999 136.51000000000002 73.69999999999999 136.35000000000002 67.95999999999998 C 136.19000000000003 62.28999999999998 139.24 57.51999999999998 142.94000000000003 52.82999999999998 C 142.59000000000003 52.619999999999976 142.20000000000002 52.35999999999998 141.85000000000002 51.979999999999976 C 136.08 59.239999999999974 132.62000000000003 68.41999999999997 132.62000000000003 78.41999999999997 C 132.62 90.96 138.05 102.24 146.69 110.02 z M 205.69 105.71 L 201.39 108.99 L 203.89 109.72999999999999 C 212.35 101.96 217.64999999999998 90.80999999999999 217.64999999999998 78.41999999999999 C 217.64999999999998 68.32 214.11999999999998 59.04999999999998 208.23999999999998 51.749999999999986 C 207.80999999999997 52.15999999999998 207.33999999999997 52.45999999999999 206.98 52.679999999999986 L 206.17999999999998 53.16999999999999 C 206.83999999999997 53.93999999999999 207.42999999999998 54.76999999999999 207.95 55.639999999999986 C 208.10999999999999 55.59999999999999 208.26 55.579999999999984 208.42 55.579999999999984 C 209.01 55.579999999999984 209.58999999999997 55.87999999999998 209.92 56.40999999999998 C 212.92 61.259999999999984 214.04999999999998 65.67999999999998 213.39 69.91999999999999 C 212.57 75.18999999999998 208.67999999999998 80.14999999999999 202.98 83.17999999999999 C 199.60999999999999 84.97 196.01 85.99999999999999 192.39 86.77999999999999 C 198.73 90.65999999999998 203.76 96.70999999999998 206.26999999999998 103.70999999999998 C 206.54 104.44 206.3 105.25 205.69 105.71 z" stroke-linecap="round" />
</g>
<g transform="matrix(2.32 0 0 2.32 427.27 184.63)"  >
<path style="stroke: none; stroke-width: 1; stroke-dasharray: none; stroke-linecap: butt; stroke-dashoffset: 0; stroke-linejoin: miter; stroke-miterlimit: 4; fill: rgb(0,0,0); fill-rule: nonzero; opacity: 1;"  transform=" translate(-174.91, -78.1)" d="M 217.68 26.67 C 215.42000000000002 22.020000000000003 211.29000000000002 17.950000000000003 206.18 17.200000000000003 C 201.06 16.450000000000003 195.29000000000002 20.060000000000002 194.94 25.220000000000002 C 182.91 18.050000000000004 166.81 18.360000000000003 155.06 25.980000000000004 C 155.11 22.050000000000004 152.25 18.260000000000005 148.45 17.230000000000004 C 145.75 16.500000000000004 143.06 17.080000000000005 140.57 18.360000000000003 C 137.91 19.730000000000004 135.48 21.910000000000004 133.51 24.160000000000004 C 132.34 25.490000000000002 131.14999999999998 27.140000000000004 131.51 28.870000000000005 C 131.89999999999998 30.810000000000006 134.16 31.900000000000006 136.13 31.690000000000005 C 138.1 31.490000000000006 139.82999999999998 30.350000000000005 141.47 29.240000000000006 C 142.74 30.550000000000004 143.74 32.120000000000005 144.44 33.800000000000004 C 145.18 35.580000000000005 145.59 37.49 145.67 39.42 C 145.75 41.35 145.51 43.29 144.92999999999998 45.13 C 144.62999999999997 46.09 144.26999999999998 46.96 143.64999999999998 47.760000000000005 C 143.33999999999997 48.160000000000004 142.98 48.540000000000006 142.80999999999997 49.02 C 142.65999999999997 49.45 142.67999999999998 49.940000000000005 142.85999999999999 50.36000000000001 C 143.14999999999998 51.02 143.79 51.290000000000006 144.38 51.620000000000005 C 144.49 51.68000000000001 145.54999999999998 52.400000000000006 145.59 52.34 C 141.87 56.900000000000006 137.94 62.02 138.1 67.91 C 138.26 73.55 142.31 78.5 147.20999999999998 81.31 C 152.10999999999999 84.11 157.79 85.16 163.34999999999997 86.16 C 163.08999999999997 86.11 162.45999999999998 86.50999999999999 162.20999999999998 86.61 C 161.80999999999997 86.78 161.40999999999997 86.96 161.01999999999998 87.14 C 160.26 87.5 159.51 87.9 158.77999999999997 88.33 C 154.23999999999998 91.01 150.42999999999998 94.92 147.87999999999997 99.53 C 147.46999999999997 100.28 147.08999999999997 101.04 146.74999999999997 101.82000000000001 C 146.65999999999997 102.03 145.73999999999998 104.03 145.85999999999999 104.12 C 147.26999999999998 105.13000000000001 148.67999999999998 106.14 150.08999999999997 107.16000000000001 C 150.79999999999998 107.67000000000002 151.49999999999997 108.17000000000002 152.20999999999998 108.68 C 152.55999999999997 108.93 152.90999999999997 109.21000000000001 153.26999999999998 109.44000000000001 C 153.39999999999998 109.52000000000001 153.98999999999998 109.92000000000002 154.11999999999998 109.85000000000001 C 152.12999999999997 110.96000000000001 149.7 111.10000000000001 147.51999999999998 111.62 C 147.21999999999997 111.69 146.32999999999998 111.84 146.32999999999998 112.27000000000001 C 146.33999999999997 114.05000000000001 146.64999999999998 115.81000000000002 146.79999999999998 117.58000000000001 C 146.95 119.42000000000002 147.10999999999999 121.26000000000002 147.26 123.10000000000001 C 147.60999999999999 127.24000000000001 147.95 131.37 148.29999999999998 135.51000000000002 C 148.83999999999997 135.44000000000003 149.38 135.36 149.92 135.29000000000002 C 149.23 127.78000000000002 148.53 120.26000000000002 147.83999999999997 112.75000000000003 C 152.33999999999997 111.90000000000003 156.83999999999997 111.06000000000003 161.33999999999997 110.21000000000002 C 161.95 119.03000000000003 163.97999999999996 127.74000000000002 167.30999999999997 135.93 C 167.74999999999997 137.02 168.27999999999997 138.18 169.29999999999998 138.77 C 170.14999999999998 139.26000000000002 171.17999999999998 139.28 172.16 139.28 C 174.60999999999999 139.28 177.04999999999998 139.28 179.5 139.28 C 180.42 139.28 181.41 139.26 182.15 138.71 C 182.76000000000002 138.25 183.08 137.51000000000002 183.37 136.8 C 186.76 128.34 188.88 119.37 189.64000000000001 110.29 C 194.04000000000002 110.86 198.41000000000003 111.67 202.72000000000003 112.73 C 202.74000000000004 112.74000000000001 202.61 113.61 202.61 113.66000000000001 C 202.29000000000002 116.22000000000001 202.22000000000003 118.80000000000001 202.05 121.37 C 201.87 124.04 201.69 126.71000000000001 201.44 129.38 C 201.39 129.88 200.96 135.29999999999998 200.88 135.29999999999998 C 201.42 135.39999999999998 201.97 135.43999999999997 202.51 135.39 C 202.57999999999998 135.38 202.67 135.36999999999998 202.72 135.32 C 202.77 135.26999999999998 202.77 135.19 202.78 135.12 C 202.81 134.66 202.83 134.19 202.86 133.73000000000002 C 203.19000000000003 127.83000000000001 203.45000000000002 121.92000000000002 203.84 116.02000000000001 C 203.86 115.63000000000001 204.23 111.68 204.08 111.63000000000001 C 201.92000000000002 110.99000000000001 199.76000000000002 110.34 197.60000000000002 109.7 C 199.95000000000002 107.91 202.3 106.12 204.64000000000001 104.32000000000001 C 201.69000000000003 96.12 195.11 89.29 187.02 86.04 C 192.22 85.10000000000001 197.51000000000002 84.12 202.18 81.64 C 206.85 79.16 210.87 74.89 211.68 69.66 C 212.35 65.34 210.8 61.14 208.45000000000002 57.339999999999996 C 209.73000000000002 62.08 210.09 65.59 209.01000000000002 69.69 C 208.07000000000002 73.83 205.44000000000003 77.64 201.52 79.17 C 205.73000000000002 76.34 208.53 71.52 208.9 66.46000000000001 C 209.27 61.400000000000006 207.19 56.220000000000006 203.43 52.82000000000001 C 203.87 52.550000000000004 204.3 52.28000000000001 204.74 52.010000000000005 C 205.18 51.74 205.62 51.470000000000006 206.06 51.2 C 206.79 50.75 207.52 50.31 207.63 49.370000000000005 C 207.71 48.620000000000005 207.32 48.080000000000005 206.85 47.540000000000006 C 205.53 46.010000000000005 205.28 44.150000000000006 205.09 42.21000000000001 C 204.88 40.120000000000005 204.91 38.010000000000005 205.18 35.92000000000001 C 205.47 33.66000000000001 206.37 31.050000000000008 208.57 30.430000000000007 C 210.20999999999998 29.960000000000008 211.89 30.800000000000008 213.51 31.310000000000006 C 215.13 31.820000000000007 217.29 31.800000000000004 218.1 30.300000000000004 C 218.69 29.19 218.23 27.81 217.68 26.67 z M 189.75 32.38 C 190.4 33.53 188.06 33.870000000000005 187.99 32.7 C 188.07 31.87 189.32 31.78 189.75 32.38 z M 184.71 38.44 C 185.17000000000002 37.75 185.84 37.19 186.65 36.91 C 188.59 36.23 190.70000000000002 37.25 191.9 38.79 C 192.45000000000002 39.5 192.85 40.32 193.14000000000001 41.17 C 193.29000000000002 41.61 193.41000000000003 42.06 193.51000000000002 42.510000000000005 C 193.55 42.67 193.64000000000001 43.71000000000001 193.73000000000002 43.75000000000001 C 192.34000000000003 43.10000000000001 191.52 41.82000000000001 190.38000000000002 40.86000000000001 C 189.38000000000002 40.02 187.97000000000003 40.38000000000001 186.85000000000002 40.800000000000004 C 186.34000000000003 40.99 185.85000000000002 41.24 185.38000000000002 41.50000000000001 C 185.25000000000003 41.57000000000001 184.24000000000004 42.06000000000001 184.24000000000004 42.190000000000005 C 184.25000000000003 41.85 184.15000000000003 41.510000000000005 184.10000000000005 41.17 C 183.93 40.22 184.18 39.23 184.71 38.44 z M 161.27 32.38 C 161.70000000000002 31.78 162.95000000000002 31.860000000000003 163.03 32.7 C 162.96 33.87 160.62 33.54 161.27 32.38 z M 159.19 37.24 C 161.09 36.35 163.25 36.68 164.69 38.21 C 165.3 38.86 165.75 39.660000000000004 166 40.52 C 166.13 40.96 166.21 41.42 166.23 41.88 C 166.23 42 166.11999999999998 43.07 166.14 43.080000000000005 C 165.01 42.36000000000001 164.17 41.190000000000005 162.92 40.660000000000004 C 161.39999999999998 40.010000000000005 159.64999999999998 40.49 158.45 41.540000000000006 C 158.23 41.730000000000004 156.22 43.50000000000001 156.25 43.61000000000001 C 155.58 41.14 156.86 38.34 159.19 37.24 z M 143.36 27.64 C 144.5 25.98 146.21 24.79 147.99 23.9 C 149.72 26.659999999999997 149.20000000000002 30.549999999999997 146.88 32.86 C 145.38 31.4 143.58 29.85 143.36 27.64 z M 141.01 65.47 C 140.07999999999998 72.11 144.95 77.52 144.95 77.52 C 144.95 77.52 139.70999999999998 74.27 139.91 67.72 C 140.15 60.05 143.68 57.33 145.6 55.81 C 145.61 55.82 141.94 58.83 141.01 65.47 z M 146.51 78.09 C 147.35 77.72 148.91 78.54 148.82 79.51 C 147.97 79.86 146.39 79.08 146.51 78.09 z M 153.52 70.86 C 153.37 70.92 153.20000000000002 70.94 153.04000000000002 70.96 C 152.60000000000002 71.00999999999999 152.08 71.03999999999999 151.74 70.69 C 151.59 70.53999999999999 151.5 70.33 151.47 70.11 C 151.39 69.63 151.56 69.16 151.85999999999999 68.84 C 152.22 68.47 152.76999999999998 68.29 153.32 68.5 C 153.5 68.57 153.68 68.68 153.79 68.84 C 154.15 69.36 154.2 70.58 153.52 70.86 z M 161.41 107.3 C 161.03 108.31 160.29999999999998 109.24 159.29 109.6 C 158.04 110.05 156.65 109.55999999999999 155.45999999999998 108.94999999999999 C 154.01 108.21999999999998 152.65999999999997 107.32 151.34999999999997 106.35 C 150.68999999999997 105.86 150.03999999999996 105.33999999999999 149.38999999999996 104.82 C 149.07999999999996 104.57 148.76999999999995 104.32 148.45999999999995 104.05999999999999 C 148.37999999999994 103.99 148.10999999999996 103.83999999999999 147.90999999999994 103.71 C 147.78999999999994 103.63 147.69999999999993 103.55999999999999 147.68999999999994 103.52 C 147.66999999999993 103.42999999999999 147.70999999999995 103.33999999999999 147.74999999999994 103.25999999999999 C 148.08999999999995 102.50999999999999 148.41999999999993 101.75999999999999 148.78999999999994 101.02 C 150.02999999999994 98.53999999999999 151.62999999999994 96.24 153.51999999999992 94.22 C 153.97999999999993 93.73 154.56999999999994 92.98 155.05999999999992 93.85 C 155.30999999999992 94.28999999999999 155.5399999999999 94.74 155.7599999999999 95.19 C 156.2099999999999 96.09 156.6299999999999 97.00999999999999 157.1499999999999 97.88 C 158.1199999999999 99.49 159.1699999999999 101.03999999999999 160.2999999999999 102.53999999999999 C 160.8199999999999 103.24 161.3799999999999 103.94999999999999 161.5999999999999 104.78999999999999 C 161.83 105.63 161.71 106.51 161.41 107.3 z M 172.22 110.76 C 172.10999999999999 111.69000000000001 172.07 112.64 171.99 113.58 C 171.83 115.46 171.67000000000002 117.33 171.5 119.21 C 171.33 121.08999999999999 171.16 122.96 170.99 124.83999999999999 C 170.82000000000002 126.71999999999998 170.65 128.58999999999997 170.49 130.47 C 170.33 132.35 170.18 134.22 170.04000000000002 136.1 C 165.32000000000002 126.56 163.33 115.83999999999999 163.12000000000003 105.25999999999999 C 163.84000000000003 105.71 164.41000000000003 106.35999999999999 165.07000000000002 106.88 C 165.75000000000003 107.42 166.46 107.92999999999999 167.20000000000002 108.39 C 167.35000000000002 108.49 167.47000000000003 108.62 167.63000000000002 108.7 C 167.66000000000003 108.72 167.70000000000002 108.73 167.73000000000002 108.72 C 167.86 108.69 167.99 108.47 168.07000000000002 108.38 C 168.12000000000003 108.32 168.17000000000002 108.25999999999999 168.22000000000003 108.19999999999999 C 168.29000000000002 108.11999999999999 168.35000000000002 108.03999999999999 168.42000000000002 107.94999999999999 C 168.64000000000001 107.65999999999998 168.86 107.36999999999999 169.07000000000002 107.07999999999998 C 169.07000000000002 106.99999999999999 169.26000000000002 106.80999999999999 169.31000000000003 106.73999999999998 C 169.40000000000003 106.59999999999998 169.49000000000004 106.45999999999998 169.58000000000004 106.31999999999998 C 169.75000000000003 106.04999999999998 169.92000000000004 105.77999999999997 170.09000000000003 105.49999999999999 C 170.23000000000002 105.25999999999999 170.38000000000002 105.02999999999999 170.52000000000004 104.78999999999999 C 170.57000000000005 104.71 170.85000000000005 104.36999999999999 170.82000000000005 104.27999999999999 C 171.35000000000005 105.54999999999998 171.91000000000005 106.83999999999999 172.16000000000005 108.21 C 172.29 109.05 172.32 109.91 172.22 110.76 z M 169.87 101.9 C 168.87 103.43 168.07 105.08000000000001 166.95000000000002 106.52000000000001 C 162.71 103.17000000000002 159.25000000000003 98.83000000000001 156.93 93.94000000000001 C 156.76000000000002 93.59000000000002 156.6 93.21000000000001 156.6 92.82000000000001 C 156.6 92.76 156.60999999999999 92.71000000000001 156.62 92.65 C 156.81 91.73 158.39000000000001 90.85000000000001 159.07 90.4 C 160.14 89.71000000000001 161.35 89.18 162.64 89.19000000000001 C 164.29 89.21000000000001 165.79 90.10000000000001 167.13 91.06000000000002 C 168.94 92.36000000000001 170.64 93.83000000000001 172.57 94.95000000000002 L 172.56 94.95000000000002 C 173.66 95.65000000000002 174.06 97.06000000000002 174.21 98.01000000000002 C 174.06 98.05000000000003 173.92000000000002 98.11000000000001 173.78 98.17000000000002 C 172.11 98.92 170.86 100.37 169.87 101.9 z M 179.69 83.73 C 177.24 86.11 172.85 85.84 170.27 83.78 C 172.84 81.37 176.97 81.81 179.69 83.73 z M 171.69 67.25 C 173.73 66.57 175.98 66.44 178.05 67.12 C 176.01 68.25 173.88 68.13 171.69 67.25 z M 175.39 108.61 C 175.04 108.79 174.45999999999998 108.73 174.25 108.37 C 174.16 108.22 174.15 108.02000000000001 174.2 107.85000000000001 C 174.35 107.34 174.91 107.06 175.42 107.19000000000001 C 176.18 107.39 175.99 108.31 175.39 108.61 z M 175.39 105.37 C 175.04 105.55000000000001 174.45999999999998 105.49000000000001 174.25 105.13000000000001 C 174.16 104.98 174.15 104.78000000000002 174.2 104.61000000000001 C 174.35 104.10000000000001 174.91 103.82000000000001 175.42 103.95000000000002 C 176.18 104.16 175.99 105.07 175.39 105.37 z M 185.26 124.66 C 184.16 128.82 183.01999999999998 133.07999999999998 180.60999999999999 136.7 C 179.67999999999998 130.23999999999998 179.41 123.71 178.57999999999998 117.23999999999998 C 178.26 112.94999999999997 177.01999999999998 108.51999999999998 178.51999999999998 104.30999999999997 C 178.49999999999997 104.36999999999998 178.92 104.80999999999997 178.96999999999997 104.87999999999997 C 179.13999999999996 105.09999999999997 179.30999999999997 105.31999999999996 179.46999999999997 105.53999999999996 C 179.78999999999996 105.96999999999997 180.10999999999996 106.39999999999996 180.43999999999997 106.82999999999997 C 181.08999999999997 107.66999999999997 181.79999999999998 108.41999999999997 182.53999999999996 109.17999999999996 C 182.57999999999996 109.21999999999997 182.61999999999998 109.25999999999996 182.66999999999996 109.23999999999997 C 182.68999999999997 109.22999999999996 182.70999999999995 109.21999999999997 182.72999999999996 109.19999999999996 C 183.94999999999996 107.95999999999997 185.35999999999996 106.87999999999997 186.61999999999995 105.70999999999997 C 186.82999999999996 105.50999999999996 187.04999999999995 105.30999999999996 187.26999999999995 105.11999999999996 C 187.35999999999996 105.03999999999996 187.85999999999996 104.69999999999996 187.85999999999996 104.60999999999996 C 187.86 111.37 186.68 118.07 185.26 124.66 z M 195.35 93.71 C 195.51999999999998 93.46 195.66 93.35 195.79 93.32 C 196.09 93.25999999999999 196.32 93.71 196.66 94.16 C 198.63 96.75999999999999 200.4 99.50999999999999 201.93 102.39 C 202.18 102.86 202.43 103.41 202.25 103.92 C 202.14 104.22 201.89 104.44 201.65 104.65 C 200.01000000000002 106.08000000000001 198.29 107.5 196.26000000000002 108.34 C 194.59000000000003 109.02000000000001 191.84000000000003 109.69 190.27 108.43 C 189.44 107.76 189.36 106.53 189.38000000000002 105.54 C 189.42000000000002 103.75 190.44000000000003 102.23 191.33 100.76 C 192.28 99.19000000000001 193.25 97.62 194.13000000000002 96 C 194.54 95.26 194.88 94.41 195.35 93.71 z M 189.38 89.59 C 190.82999999999998 90 192.2 90.74000000000001 193.34 91.73 C 193.48 91.85000000000001 193.62 91.99000000000001 193.68 92.16000000000001 C 193.76000000000002 92.38000000000001 193.69 92.63000000000001 193.61 92.85000000000001 C 193.14000000000001 94.26 192.43 95.58000000000001 191.65 96.85000000000001 C 189.36 100.60000000000001 186.48000000000002 104.01 183.17000000000002 106.9 C 180.63000000000002 104.19000000000001 179.29000000000002 100.24000000000001 176.10000000000002 98.39 C 176.19000000000003 97.53 176.51000000000002 95.95 177.60000000000002 95.11 C 179.90000000000003 93.92 181.85000000000002 92.12 184.00000000000003 90.65 C 184.83000000000004 90.08000000000001 185.72000000000003 89.55000000000001 186.71000000000004 89.37 C 187.6 89.21 188.51 89.34 189.38 89.59 z M 184.81 81.43 C 181.96 82.02000000000001 178.9 80.98 176.61 79.29 C 175.47000000000003 78.5 175.69000000000003 76.97000000000001 175.47000000000003 75.78 C 177.44000000000003 73.95 179.65000000000003 72.28 181.08000000000004 69.96000000000001 C 182.08000000000004 68.55000000000001 181.28000000000003 66.21000000000001 179.52000000000004 65.94000000000001 C 176.70000000000005 65.32000000000001 173.74000000000004 65.31000000000002 170.90000000000003 65.77000000000001 C 169.44000000000003 65.98 167.52000000000004 67.28000000000002 168.12000000000003 68.97000000000001 C 168.78000000000003 71.37000000000002 170.99000000000004 72.74000000000001 172.71000000000004 74.35000000000001 C 174.23000000000005 75.52000000000001 174.47000000000003 78.18 172.92000000000004 79.44000000000001 C 170.75000000000006 81.56000000000002 167.11000000000004 82.54 164.41000000000005 80.86000000000001 C 162.20000000000005 79.10000000000001 160.77000000000007 76.20000000000002 161.05000000000004 73.36000000000001 C 161.44000000000003 69.39000000000001 163.54000000000005 65.67000000000002 166.58000000000004 63.12000000000001 C 168.50000000000003 61.53000000000001 170.60000000000005 59.83000000000001 173.21000000000004 59.69000000000001 C 174.95000000000005 59.60000000000001 176.80000000000004 59.430000000000014 178.52000000000004 59.73000000000001 C 180.02000000000004 59.99000000000001 181.31000000000003 60.84000000000001 182.44000000000003 61.83000000000001 C 185.70000000000002 64.67000000000002 188.16000000000003 68.50000000000001 189.11 72.74000000000001 C 189.88 76.11 188.01 80.04 184.81 81.43 z M 170.93 58.69 C 171.91 56.97 172.82 55.15 173.95000000000002 53.53 C 174.47000000000003 52.72 175.61 52.53 176.45000000000002 52.94 C 177.74 54.269999999999996 178.53000000000003 55.919999999999995 179.35000000000002 57.559999999999995 C 179.49 57.839999999999996 179.63000000000002 58.12 179.77 58.4 C 179.83 58.519999999999996 179.98000000000002 59 180.08 59.04 C 179.63000000000002 58.88 179.17000000000002 58.75 178.71 58.64 C 176.18 58.05 173.62 58.29 171.15 58.99 C 171.07 59.010000000000005 170.96 59.03 170.9 58.97 C 170.84 58.89 170.88 58.78 170.93 58.69 z M 197.93 70.86 C 197.78 70.92 197.61 70.94 197.45000000000002 70.96 C 197.01000000000002 71.00999999999999 196.49 71.03999999999999 196.15 70.69 C 196 70.53999999999999 195.91 70.33 195.88 70.11 C 195.79999999999998 69.63 195.97 69.16 196.26999999999998 68.84 C 196.63 68.47 197.17999999999998 68.29 197.73 68.5 C 197.91 68.57 198.09 68.68 198.2 68.84 C 198.56 69.36 198.61 70.58 197.93 70.86 z M 205.49 48.56 C 205.65 48.6 205.85000000000002 48.61 205.99 48.72 C 206.15 48.839999999999996 206.15 49.04 206.01000000000002 49.18 C 205.9 49.29 205.76000000000002 49.36 205.63000000000002 49.43 C 205.13000000000002 49.69 204.62000000000003 49.9 204.11 50.12 C 203.81 50.25 203.51000000000002 50.36 203.21 50.48 C 203.11 50.519999999999996 202.32000000000002 50.739999999999995 202.31 50.82 C 201.79 54.34 200.98 58.29 197.86 60.46 C 194.3 62.96 189.02 64.85 185.15 61.94 C 181.42000000000002 59.589999999999996 180.02 55.22 178.79 51.239999999999995 C 176.4 51.49999999999999 174 51.62 171.6 51.69 C 170.76 54.4 170.01999999999998 57.269999999999996 168.26 59.559999999999995 C 166.23 61.99999999999999 163.04 63.769999999999996 159.79 63.31999999999999 C 156.69 62.89999999999999 153.6 61.63999999999999 151.37 59.41 C 149.14000000000001 57.05 148.6 53.73 147.77 50.73 C 147.29000000000002 50.62 146.81 50.5 146.33 50.41 C 145.91000000000003 50.33 145.51000000000002 50.269999999999996 145.12 50.089999999999996 C 144.86 49.98 144.49 49.81999999999999 144.33 49.589999999999996 C 144.06 49.209999999999994 144.45000000000002 48.839999999999996 144.77 48.699999999999996 C 145.09 48.559999999999995 145.43 48.519999999999996 145.76000000000002 48.42999999999999 C 146.09000000000003 48.33999999999999 146.43 48.25999999999999 146.76000000000002 48.169999999999995 C 147.05 48.089999999999996 147.45000000000002 48.029999999999994 147.70000000000002 47.85999999999999 C 149.14000000000001 46.879999999999995 150.44000000000003 45.42999999999999 152.33 45.43999999999999 C 156.92000000000002 45.09999999999999 161.55 45.19999999999999 166.15 45.38999999999999 C 168.59 45.42999999999999 170.85 46.82999999999999 171.84 49.089999999999996 C 173.94 49.18 176.05 49.169999999999995 178.16 49.05 C 179.29999999999998 47.169999999999995 181.15 45.72 183.4 45.519999999999996 C 188.17000000000002 45.06999999999999 193.01 44.91 197.79000000000002 45.419999999999995 C 198.44000000000003 45.489999999999995 199.02 45.60999999999999 199.61 45.91 C 200.18 46.19 200.70000000000002 46.559999999999995 201.23000000000002 46.91 C 201.82000000000002 47.3 202.43 47.69 203.10000000000002 47.919999999999995 C 203.67000000000002 48.129999999999995 204.28000000000003 48.279999999999994 204.87000000000003 48.44 C 205.06 48.45 205.28 48.5 205.49 48.56 z M 203.12 32.42 C 200.66 30.020000000000003 201.39000000000001 26.400000000000002 202.17000000000002 23.450000000000003 C 203.96 24.640000000000004 205.84 25.860000000000003 207.06 27.680000000000003 C 206.78 29.8 205.13 31.71 203.12 32.42 z M 204.08 20.4 C 209.18 19.869999999999997 212.97000000000003 22.669999999999998 214.92000000000002 27.07 C 211.28 24.88 207.66 22.66 204.08 20.4 z M 169.27 49.26 C 169.43 52.46 168.81 55.76 167.4 58.65 C 166.14000000000001 61.22 163.03 62.15 160.36 62.1 C 156.99 61.89 153.41000000000003 60.300000000000004 151.82000000000002 57.17 C 150.26000000000002 54.22 150.11 50.78 150.29000000000002 47.52 C 155.33 46.68 160.48000000000002 46.82 165.56000000000003 47.120000000000005 C 166.93 47.33 169.15 47.47 169.27 49.26 z M 199.7 47.9 C 200.60999999999999 50.61 199.85999999999999 53.62 198.97 56.25 C 196.98 62.14 188.12 64.24 183.81 59.72 C 181.54 56.36 181.1 52.11 180.9 48.15 C 184.6 46.67 188.64000000000001 46.92 192.55 46.91 C 194.94 47 197.46 46.9 199.7 47.9 z M 184.85 75.45 C 183.79 75.82000000000001 183.45 74.09 184.47 73.86 C 185.51 73.49 185.84 75.22 184.85 75.45 z M 165.1 75.45 C 164.1 75.22 164.43 73.49000000000001 165.48 73.86 C 166.5 74.09 166.16 75.82 165.1 75.45 z M 162.47 96.49 C 161.93 97.25999999999999 160.59 96.36 161.2 95.6 C 161.74 94.82 163.1 95.71 162.47 96.49 z M 187.45 95.69 C 187.91 94.82 189.33999999999997 95.63 188.69 96.45 C 188.21 97.31 186.78 96.51 187.45 95.69 z" stroke-linecap="round" />
</g>
<g transform="matrix(1 0 0 1.08 427.5 438)" style=""  >
		<text xml:space="preserve" font-family="neuropolitical-rg" font-size="32" font-style="normal" font-weight="normal" style="stroke: none; stroke-width: 1; stroke-dasharray: none; stroke-linecap: butt; stroke-dashoffset: 0; stroke-linejoin: miter; stroke-miterlimit: 4; fill: rgb(0,0,0); fill-rule: nonzero; opacity: 1; white-space: pre;" ><tspan x="-148.74" y="10.05" >A</tspan><tspan x="-112.42" y="10.05" >n</tspan><tspan x="-83.17" y="10.05" >i</tspan><tspan x="-71.33" y="10.05" >m</tspan><tspan x="-32.51" y="10.05" >a</tspan><tspan x="-2.5" y="10.05" >l</tspan><tspan x="9.34" y="10.05" style="white-space: pre; "> </tspan><tspan x="25.25" y="10.05" >&amp;</tspan><tspan x="58.21" y="10.05" style="white-space: pre; "> </tspan><tspan x="74.11" y="10.05" >P</tspan><tspan x="106.02" y="10.05" >e</tspan><tspan x="135.1" y="10.05" >t</tspan></text>
</g>
<g transform="matrix(1 0 0 1 429.14 476.21)" style=""  >
		<text xml:space="preserve" font-family="Arial" font-size="14" font-style="normal" font-weight="normal" style="stroke: none; stroke-width: 1; stroke-dasharray: none; stroke-linecap: butt; stroke-dashoffset: 0; stroke-linejoin: miter; stroke-miterlimit: 4; fill: rgb(168,0,0); fill-rule: nonzero; opacity: 1; white-space: pre;" ><tspan x="-57.57" y="4.4" >S</tspan><tspan x="-46.83" y="4.4" >L</tspan><tspan x="-37.64" y="4.4" >O</tspan><tspan x="-25.36" y="4.4" >G</tspan><tspan x="-13.07" y="4.4" >A</tspan><tspan x="-2.33" y="4.4" >N</tspan><tspan x="9.18" y="4.4" style="white-space: pre; "> </tspan><tspan x="14.47" y="4.4" >H</tspan><tspan x="25.98" y="4.4" >E</tspan><tspan x="36.72" y="4.4" >R</tspan><tspan x="48.23" y="4.4" >E</tspan></text>
</g>
</svg>