<?xml version="1.0" encoding="UTF-8" standalone="no" ?>
<!DOCTYPE svg PUBLIC "-//W3C//DTD SVG 1.1//EN" "http://www.w3.org/Graphics/SVG/1.1/DTD/svg11.dtd">
<svg xmlns="http://www.w3.org/2000/svg" xmlns:xlink="http://www.w3.org/1999/xlink" version="1.1" width="855" height="590" viewBox="0 0 855 590" xml:space="preserve">
<desc>Created with Fabric.js 4.5.0</desc>
<defs>
</defs>
<rect x="0" y="0" width="100%" height="100%" fill="#ffefe4"></rect>
<g transform="matrix(1.66 0 0 1.66 426.75 187.99)" id="Logo7"  >
<path style="stroke: none; stroke-width: 1; stroke-dasharray: none; stroke-linecap: butt; stroke-dashoffset: 0; stroke-linejoin: miter; stroke-miterlimit: 4; fill: rgb(2,43,24); fill-rule: evenodd; opacity: 1;"  transform=" translate(-175.01, -96.81)" d="M 134.06 140.19 C 133.21 142.18 131.97 143.4 130.58 143.4 C 126.30000000000001 143.4 126.61000000000001 143.4 121.97000000000001 143.4 C 118.95000000000002 143.4 116.52000000000001 138.98000000000002 116.52000000000001 133.52 C 116.52000000000001 133.05 116.56000000000002 132.60000000000002 116.59 132.15 L 116.23 131.88 L 115.54 128.38 L 115.97000000000001 127.86999999999999 C 116.30000000000001 124.21999999999998 115.57000000000001 116.50999999999999 117.38000000000001 108.41999999999999 C 119.15 100.35 122.78000000000002 94.42999999999999 124.35000000000001 90.93999999999998 C 125.92 87.45999999999998 129.10000000000002 83.89999999999998 129.10000000000002 83.89999999999998 C 129.10000000000002 83.89999999999998 124.77000000000002 83.38999999999997 122.67000000000002 82.75999999999998 C 120.59000000000002 82.12999999999998 120.39000000000001 80.13999999999997 120.39000000000001 80.13999999999997 C 120.59000000000002 77.66999999999997 122.97000000000001 76.39999999999998 126.37000000000002 76.21999999999997 C 129.78000000000003 76.03999999999996 131.52 77.00999999999998 131.61 77.53999999999996 C 131.70000000000002 78.04999999999997 131.34 78.69999999999996 131.54000000000002 79.28999999999996 C 131.72000000000003 79.88999999999996 132.70000000000002 79.73999999999997 132.70000000000002 79.73999999999997 C 132.70000000000002 79.73999999999997 135.81000000000003 74.01999999999997 138.62 70.18999999999997 C 141.42000000000002 66.35999999999997 143.95000000000002 62.89999999999997 146.71 60.66999999999997 C 149.49 58.46999999999997 151.89000000000001 58.489999999999974 152.16 58.42999999999997 C 152.45 58.35999999999997 152.59 58.269999999999975 153.32999999999998 57.309999999999974 C 154.04999999999998 56.369999999999976 155.07999999999998 56.119999999999976 155.07999999999998 56.119999999999976 C 155.07999999999998 56.119999999999976 155.05999999999997 54.39999999999998 155.07999999999998 53.269999999999975 C 155.07999999999998 52.129999999999974 156.08999999999997 52.41999999999997 156.08999999999997 52.41999999999997 L 166.55999999999997 52.50999999999998 C 166.55999999999997 52.50999999999998 167.47999999999996 52.52999999999998 167.74999999999997 52.81999999999998 C 168.01999999999998 53.10999999999998 168.28999999999996 54.34999999999998 168.28999999999996 54.34999999999998 L 168.28999999999996 50.24999999999998 C 168.28999999999996 50.24999999999998 169.02999999999997 50.17999999999998 169.20999999999995 50.24999999999998 C 169.38999999999996 50.31999999999998 169.38999999999996 50.409999999999975 169.38999999999996 50.409999999999975 L 175.00999999999996 50.549999999999976 L 180.60999999999996 50.409999999999975 C 180.60999999999996 50.409999999999975 180.62999999999997 50.31999999999997 180.80999999999995 50.24999999999998 C 180.98999999999995 50.17999999999998 181.72999999999993 50.24999999999998 181.72999999999993 50.24999999999998 L 181.72999999999993 54.34999999999998 C 181.72999999999993 54.34999999999998 181.99999999999994 53.09999999999998 182.26999999999992 52.81999999999998 C 182.53999999999994 52.52999999999998 183.45999999999992 52.50999999999998 183.45999999999992 52.50999999999998 L 193.92999999999992 52.41999999999997 C 193.92999999999992 52.41999999999997 194.91999999999993 52.129999999999974 194.9399999999999 53.269999999999975 C 194.95999999999992 54.409999999999975 194.9399999999999 56.119999999999976 194.9399999999999 56.119999999999976 C 194.9399999999999 56.119999999999976 195.9499999999999 56.369999999999976 196.6899999999999 57.309999999999974 C 197.42999999999992 58.269999999999975 197.55999999999992 58.35999999999997 197.8499999999999 58.42999999999997 C 198.1399999999999 58.47999999999997 200.5399999999999 58.46999999999997 203.2999999999999 60.66999999999997 C 206.0799999999999 62.88999999999997 208.6099999999999 66.35999999999997 211.4099999999999 70.18999999999997 C 214.2299999999999 74.01999999999997 217.30999999999992 79.73999999999997 217.30999999999992 79.73999999999997 C 217.30999999999992 79.73999999999997 218.29999999999993 79.87999999999997 218.4799999999999 79.28999999999996 C 218.6599999999999 78.68999999999997 218.3199999999999 78.03999999999996 218.4099999999999 77.53999999999996 C 218.49999999999991 77.01999999999997 220.2299999999999 76.03999999999996 223.6299999999999 76.21999999999997 C 227.0399999999999 76.39999999999998 229.42999999999992 77.65999999999997 229.6099999999999 80.13999999999997 C 229.6099999999999 80.13999999999997 229.4299999999999 82.12999999999997 227.3299999999999 82.75999999999998 C 225.2499999999999 83.38999999999997 220.9199999999999 83.89999999999998 220.9199999999999 83.89999999999998 C 220.9199999999999 83.89999999999998 224.0999999999999 87.45999999999998 225.6699999999999 90.93999999999998 C 227.2399999999999 94.41999999999999 230.8499999999999 100.34999999999998 232.6399999999999 108.41999999999999 C 234.4499999999999 116.50999999999999 233.7199999999999 124.21999999999998 234.0499999999999 127.86999999999999 L 234.4799999999999 128.38 L 233.7899999999999 131.88 L 233.4299999999999 132.15 C 233.4799999999999 132.6 233.4799999999999 133.05 233.4799999999999 133.52 C 233.4799999999999 138.97 231.0399999999999 143.4 228.0399999999999 143.4 C 223.39999999999992 143.4 223.7099999999999 143.4 219.4099999999999 143.4 C 218.0399999999999 143.4 216.7899999999999 142.17000000000002 215.9399999999999 140.19 C 205.4099999999999 141.15 186.7199999999999 142.74 174.9899999999999 143.02 C 163.27 142.73 144.58 141.14 134.06 140.19 L 134.06 140.19 z M 175.01 56.89 L 157.32999999999998 56.33 C 157.32999999999998 56.33 155.71999999999997 56.129999999999995 154.66 57.339999999999996 C 153.56 58.55 153.57999999999998 58.589999999999996 153.57999999999998 58.589999999999996 C 153.57999999999998 58.589999999999996 155.30999999999997 57.849999999999994 159.49999999999997 57.739999999999995 C 163.08999999999997 57.64999999999999 172.44999999999996 57.58 175.00999999999996 57.559999999999995 C 177.55999999999997 57.58 186.90999999999997 57.65 190.51999999999995 57.739999999999995 C 194.70999999999995 57.849999999999994 196.43999999999994 58.589999999999996 196.43999999999994 58.589999999999996 C 196.43999999999994 58.589999999999996 196.45999999999995 58.55 195.35999999999993 57.339999999999996 C 194.28999999999994 56.129999999999995 192.68999999999994 56.33 192.68999999999994 56.33 L 175.01 56.89 L 175.01 56.89 z M 175.01 60.43 C 175.01 60.43 157.13 60.36 149.51 61.62 C 149.51 61.62 147.67 61.669999999999995 145.72 64.27 C 143.77 66.85 136.66 77.67 136.66 77.67 C 136.66 77.67 135.56 79.84 139.04 79.91 C 142.51999999999998 80 165.95999999999998 79.36999999999999 175.01 79.28 C 184.06 79.37 207.48 80 210.98 79.91 C 214.45 79.84 213.35999999999999 77.67 213.35999999999999 77.67 C 213.35999999999999 77.67 206.24999999999997 66.85 204.29999999999998 64.27 C 202.32999999999998 61.669999999999995 200.51 61.62 200.51 61.62 C 192.88 60.36 175.01 60.43 175.01 60.43 L 175.01 60.43 z M 175.01 104.09 C 175.01 104.09 157.01 103.66 145.33999999999997 104.85000000000001 C 141.34999999999997 99.87 125.07999999999997 86.05000000000001 122.45999999999998 98.13000000000001 C 121.42999999999998 102.81 121.60999999999999 106.13000000000001 122.45999999999998 106.69000000000001 C 123.26999999999998 107.21000000000001 160.15999999999997 111.76000000000002 175.01 111.91000000000001 C 189.82999999999998 111.77000000000001 226.73999999999998 107.22000000000001 227.56 106.69000000000001 C 228.41 106.13000000000001 228.59 102.81000000000002 227.56 98.13000000000001 C 224.92000000000002 86.05000000000001 208.65 99.86000000000001 204.68 104.85000000000001 C 193.01 103.66 175.01 104.09 175.01 104.09 L 175.01 104.09 z M 175.01 116.06 L 155.98 115.59 C 153.48999999999998 115.54 152.85999999999999 116.46000000000001 152.85999999999999 118.71000000000001 C 152.85999999999999 119.58000000000001 152.67999999999998 124.2 152.60999999999999 126.44000000000001 L 135.36999999999998 126.08000000000001 C 135.36999999999998 126.08000000000001 129.96999999999997 125.52000000000001 130.74999999999997 126.75000000000001 C 131.50999999999996 128 134.10999999999999 131.70000000000002 138.25999999999996 132.55 C 141.90999999999997 133.29000000000002 168.31999999999996 134.68 175.01999999999995 135.02 C 181.69999999999996 134.68 208.13999999999996 133.29000000000002 211.76999999999995 132.55 C 215.93999999999994 131.70000000000002 218.53999999999996 128 219.29999999999995 126.75000000000001 C 220.05999999999995 125.52000000000001 214.65999999999997 126.08000000000001 214.65999999999997 126.08000000000001 L 197.42999999999998 126.44000000000001 C 197.33999999999997 124.20000000000002 197.17999999999998 119.58000000000001 197.17999999999998 118.71000000000001 C 197.17999999999998 116.45 196.54999999999998 115.53 194.05999999999997 115.59 L 175.01 116.06 L 175.01 116.06 z M 210.76 131.54 C 210.76 131.54 182.08999999999997 132.66 175.01 132.88 C 167.92999999999998 132.66 139.26 131.54 139.26 131.54 C 140.29 132.54999999999998 172.07 133.69 175.01 133.78 C 177.93 133.69 209.73 132.55 210.76 131.54 L 210.76 131.54 z M 213.43 129.5 C 213.43 129.5 182.28 130.38 175 130.58 C 167.72 130.38000000000002 136.57999999999998 129.5 136.57999999999998 129.5 C 138.01999999999998 130.84 171.98999999999998 131.45 175 131.5 C 178.02 131.45 211.99 130.83 213.43 129.5 L 213.43 129.5 z M 217.44 127.08 C 217.44 127.08 182.57 127.86 175.01 128.04 C 167.44 127.85999999999999 132.57999999999998 127.08 132.57999999999998 127.08 C 134.04 128.43 171.83999999999997 128.9 175.01 128.96 C 178.19 128.9 216 128.43 217.44 127.08 L 217.44 127.08 z M 195.85 126.5 C 195.85 123.85 195.63 121.15 195.51 118.52 C 195.51 118.52 195.47 117.11 194.44 117.14999999999999 C 187.96 117.41999999999999 181.51 117.49 175.01 117.52999999999999 C 168.51 117.48999999999998 162.06 117.41999999999999 155.57999999999998 117.14999999999999 C 154.54999999999998 117.10999999999999 154.51 118.52 154.51 118.52 C 154.37 121.16 154.17 123.85 154.17 126.5 C 154.17 126.5 169.01 127.02 175.01 126.83 C 181 127.02 195.85 126.5 195.85 126.5 L 195.85 126.5 z M 229.7 114.85 C 229.7 114.85 223.57999999999998 114.91999999999999 221.11999999999998 117.64999999999999 C 218.64999999999998 120.38 219.36999999999998 123.05 221.7 123.17999999999999 L 224.07999999999998 122.19999999999999 C 224.07999999999998 122.19999999999999 222.54 121.68999999999998 223.26999999999998 119.72999999999999 C 223.98999999999998 117.77999999999999 225.67 116.29999999999998 229.24999999999997 115.74 C 229.24999999999997 115.74 229.85999999999999 120.33 227.62999999999997 121.44999999999999 C 227.62999999999997 121.44999999999999 227.78999999999996 121.91999999999999 228.72999999999996 121.66999999999999 C 229.67 121.41 230.7 116.15 229.7 114.85 L 229.7 114.85 z M 201.06 109.38 L 203.66 105.64 C 203.66 105.64 192 104.61 181.01999999999998 104.99 C 181.01999999999998 104.99 198.48 106.11 200.82999999999998 106.52 L 198.80999999999997 109.72 L 201.06 109.38 L 201.06 109.38 z M 211.09 99.74 C 211.09 99.74 214.23 97.53999999999999 216.99 97.47999999999999 C 225.82000000000002 97.35 217.97 109.33999999999999 206.77 103.71 L 206.68 103.8 C 206.63 104.25 206.59 104.72 206.59 105.19 C 206.59 106.36 206.81 107.5 207.19 108.55 C 210.67 108.17 214.18 107.75999999999999 217.66 107.3 C 219.88 107.03 222.1 106.75999999999999 224.29999999999998 106.42999999999999 C 224.82 106.36 225.32999999999998 106.27 225.85 106.17999999999999 C 225.87 105.85 225.89 105.52999999999999 225.89 105.19 C 225.89 96.33 218.11 93.38 211.09 99.74 L 211.09 99.74 z M 120.31 114.85 C 119.33 116.14999999999999 120.35000000000001 121.39999999999999 121.29 121.66 C 122.21000000000001 121.91 122.39 121.44 122.39 121.44 C 120.13 120.32 120.78 115.73 120.78 115.73 C 124.34 116.29 126.02 117.77000000000001 126.72 119.72 C 127.46 121.69 125.92999999999999 122.19 125.92999999999999 122.19 L 128.31 123.17 C 130.64000000000001 123.04 131.36 120.37 128.91 117.64 C 126.44 114.92 120.31 114.85 120.31 114.85 L 120.31 114.85 z M 148.95 109.38 L 151.20999999999998 109.72 L 149.18999999999997 106.52 C 151.53999999999996 106.1 168.99999999999997 104.99 168.99999999999997 104.99 C 158.01999999999998 104.61 146.35999999999996 105.64 146.35999999999996 105.64 L 148.95 109.38 L 148.95 109.38 z M 138.93 99.74 C 131.91 93.38 124.10000000000001 96.33 124.10000000000001 105.19 C 124.10000000000001 105.53 124.14000000000001 105.86 124.15 106.17999999999999 C 124.67 106.27 125.18 106.36 125.7 106.42999999999999 C 127.9 106.75999999999999 130.12 107.02999999999999 132.34 107.3 C 135.82 107.75 139.31 108.17 142.81 108.55 C 143.19 107.5 143.41 106.36999999999999 143.41 105.19 C 143.41 104.72 143.37 104.25 143.29999999999998 103.8 L 143.20999999999998 103.71 C 132.02999999999997 109.33999999999999 124.17999999999998 97.35 133.01 97.47999999999999 C 135.79 97.54 138.93 99.74 138.93 99.74 z" stroke-linecap="round" />
</g>
<g transform="matrix(1.66 0 0 1.66 426.73 180.75)" id="Logo7"  >
<path style="stroke: none; stroke-width: 1; stroke-dasharray: none; stroke-linecap: butt; stroke-dashoffset: 0; stroke-linejoin: miter; stroke-miterlimit: 4; fill: rgb(3,17,63); fill-rule: evenodd; opacity: 1;"  transform=" translate(-175, -92.46)" d="M 130.79 47.48 C 138.60999999999999 47.48 146.1 48.82 153.07 51.269999999999996 C 152.67 51.809999999999995 152.44 52.49999999999999 152.44 53.26 C 152.44 53.73 152.44 54.199999999999996 152.44 54.669999999999995 C 151.95 55.029999999999994 151.52 55.42999999999999 151.19 55.85999999999999 C 151.12 55.949999999999996 151.05 56.059999999999995 150.96 56.169999999999995 C 149.39000000000001 56.39999999999999 148.03 56.85999999999999 146.73000000000002 57.60999999999999 L 129.49 47.5 C 129.92 47.5 130.35 47.48 130.79 47.48 L 130.79 47.48 z M 133.42 73.27 C 135.48 69.97 138.19 66.05 140.91 62.849999999999994 L 117.1 48.89 C 109.16999999999999 50.53 101.77 53.58 95.13999999999999 57.76 L 133.42 73.27 L 133.42 73.27 z M 122.72 88.4 L 76.44 75.33 C 79.74 70.73 83.64 66.55 88 62.92 L 119.92 75.85 C 118.73 76.80999999999999 117.92 78.14 117.77 79.97 L 117.75 80.17 L 117.77 80.37 C 117.99 82.57000000000001 119.64999999999999 84.41000000000001 121.72 85.05000000000001 C 122.53 85.30000000000001 123.45 85.50000000000001 124.41 85.68 C 123.8 86.56 123.22 87.5 122.72 88.4 L 122.72 88.4 z M 115.91 103.75 C 116.63 101.44 117.52 99.2 118.50999999999999 97 C 118.77999999999999 96.39 119.07 95.81 119.35999999999999 95.21 L 72.23 81.9 C 70.01 85.87 68.19 90.10000000000001 66.81 94.52000000000001 L 115.91 103.75 L 115.91 103.75 z M 113.45 120.88 L 63.81 116.83999999999999 C 63.79 116.05999999999999 63.77 115.28999999999999 63.77 114.49 C 63.77 110.14 64.2 105.89999999999999 64.98 101.78 L 114.2 111.01 C 113.75 113.92 113.55 116.82000000000001 113.48 119.77000000000001 C 113.47 120.13 113.47 120.5 113.45 120.88 L 113.45 120.88 z M 114.26 137.44 L 67.81 137.44 C 66.29 133.27 65.19 128.9 64.52 124.38 L 112.84 128.32 L 113.8 133.20999999999998 L 113.89 133.27999999999997 C 113.89 133.36999999999998 113.89 133.43999999999997 113.89 133.50999999999996 C 113.89 134.82 114.01 136.14 114.26 137.44 z M 219.23 47.48 C 211.41 47.48 203.92 48.82 196.95 51.269999999999996 C 197.32999999999998 51.809999999999995 197.56 52.49999999999999 197.57999999999998 53.26 C 197.57999999999998 53.73 197.57999999999998 54.199999999999996 197.57999999999998 54.669999999999995 C 198.04999999999998 55.029999999999994 198.48 55.42999999999999 198.82999999999998 55.85999999999999 C 198.89999999999998 55.949999999999996 198.96999999999997 56.059999999999995 199.05999999999997 56.169999999999995 C 200.62999999999997 56.39999999999999 201.98999999999998 56.85999999999999 203.28999999999996 57.60999999999999 L 220.52999999999997 47.49999999999999 C 220.1 47.5 219.66 47.48 219.23 47.48 L 219.23 47.48 z M 216.57 73.27 C 214.53 69.97 211.82 66.05 209.09 62.849999999999994 L 232.91 48.88999999999999 C 240.84 50.529999999999994 248.24 53.57999999999999 254.87 57.75999999999999 L 216.57 73.27 L 216.57 73.27 z M 227.3 88.4 L 273.58000000000004 75.33000000000001 C 270.26000000000005 70.73000000000002 266.38000000000005 66.55000000000001 262.01000000000005 62.920000000000016 L 230.12000000000006 75.85000000000002 C 231.29000000000005 76.81000000000002 232.11000000000007 78.14000000000003 232.25000000000006 79.97000000000003 L 232.27000000000007 80.17000000000003 L 232.25000000000006 80.37000000000003 C 232.03000000000006 82.57000000000004 230.37000000000006 84.41000000000004 228.30000000000007 85.05000000000004 C 227.47000000000006 85.30000000000004 226.55000000000007 85.50000000000004 225.61000000000007 85.68000000000004 C 226.22 86.56 226.8 87.5 227.3 88.4 L 227.3 88.4 z M 234.11 103.75 C 233.39000000000001 101.44 232.5 99.2 231.51000000000002 97 C 231.24 96.39 230.95000000000002 95.81 230.68 95.21 L 277.79 81.89999999999999 C 279.99 85.86999999999999 281.83000000000004 90.1 283.21000000000004 94.52 L 234.11 103.75 L 234.11 103.75 z M 236.55 120.88 L 286.21000000000004 116.83999999999999 C 286.23 116.05999999999999 286.23 115.28999999999999 286.23 114.49 C 286.23 110.14 285.83000000000004 105.89999999999999 285.04 101.78 L 235.82000000000002 111.01 C 236.25000000000003 113.92 236.47000000000003 116.82000000000001 236.54000000000002 119.77000000000001 C 236.55 120.13 236.55 120.5 236.55 120.88 L 236.55 120.88 z M 235.75 137.44 L 282.19 137.44 C 283.71999999999997 133.27 284.83 128.9 285.49 124.38 L 237.15 128.32 L 236.21 133.20999999999998 L 236.12 133.27999999999997 C 236.12 133.36999999999998 236.12 133.43999999999997 236.12 133.50999999999996 C 236.13 134.82 236.02 136.14 235.75 137.44 z" stroke-linecap="round" />
</g>
<g transform="matrix(1 0 0 1 432.5 294.81)" style=""  >
		<text xml:space="preserve" font-family="poppins-bold" font-size="40" font-style="normal" font-weight="normal" style="stroke: none; stroke-width: 1; stroke-dasharray: none; stroke-linecap: butt; stroke-dashoffset: 0; stroke-linejoin: miter; stroke-miterlimit: 4; fill: rgb(0,0,0); fill-rule: nonzero; opacity: 1; white-space: pre;" ><tspan x="-266.58" y="12.57" >A</tspan><tspan x="-233.38" y="12.57" >u</tspan><tspan x="-202.46" y="12.57" >t</tspan><tspan x="-181.98" y="12.57" >o</tspan><tspan x="-152.42" y="12.57" style="white-space: pre; "> </tspan><tspan x="-140.42" y="12.57" >&amp;</tspan><tspan x="-108.7" y="12.57" style="white-space: pre; "> </tspan><tspan x="-96.7" y="12.57" >T</tspan><tspan x="-69.5" y="12.57" >r</tspan><tspan x="-48.1" y="12.57" >a</tspan><tspan x="-16.98" y="12.57" >n</tspan><tspan x="14.06" y="12.57" >s</tspan><tspan x="40.26" y="12.57" >p</tspan><tspan x="71.38" y="12.57" >o</tspan><tspan x="100.94" y="12.57" >r</tspan><tspan x="122.34" y="12.57" >t</tspan><tspan x="142.82" y="12.57" >a</tspan><tspan x="173.94" y="12.57" >t</tspan><tspan x="194.42" y="12.57" >i</tspan><tspan x="209.98" y="12.57" >o</tspan><tspan x="239.54" y="12.57" >n</tspan></text>
</g>
<g transform="matrix(1 0 0 1 429.14 63.36)" style=""  >
		<text xml:space="preserve" font-family="Arial" font-size="14" font-style="normal" font-weight="normal" style="stroke: none; stroke-width: 1; stroke-dasharray: none; stroke-linecap: butt; stroke-dashoffset: 0; stroke-linejoin: miter; stroke-miterlimit: 4; fill: rgb(0,0,0); fill-rule: nonzero; opacity: 1; white-space: pre;" ><tspan x="-78.73" y="4.4" >S</tspan><tspan x="-67.99" y="4.4" style="white-space: pre; "> </tspan><tspan x="-62.7" y="4.4" >L</tspan><tspan x="-53.51" y="4.4" style="white-space: pre; "> </tspan><tspan x="-48.22" y="4.4" >O</tspan><tspan x="-35.93" y="4.4" style="white-space: pre; "> </tspan><tspan x="-30.64" y="4.4" >G</tspan><tspan x="-18.36" y="4.4" style="white-space: pre; "> </tspan><tspan x="-13.07" y="4.4" >A</tspan><tspan x="-2.33" y="4.4" style="white-space: pre; "> </tspan><tspan x="2.96" y="4.4" >N</tspan><tspan x="14.47" y="4.4" style="white-space: pre; "> </tspan><tspan x="19.76" y="4.4" >H</tspan><tspan x="31.27" y="4.4" style="white-space: pre; "> </tspan><tspan x="36.56" y="4.4" >E</tspan><tspan x="47.3" y="4.4" style="white-space: pre; "> </tspan><tspan x="52.59" y="4.4" >R</tspan><tspan x="64.1" y="4.4" style="white-space: pre; "> </tspan><tspan x="69.39" y="4.4" >E</tspan></text>
</g>
</svg>