<?xml version="1.0" encoding="UTF-8" standalone="no" ?>
<!DOCTYPE svg PUBLIC "-//W3C//DTD SVG 1.1//EN" "http://www.w3.org/Graphics/SVG/1.1/DTD/svg11.dtd">
<svg xmlns="http://www.w3.org/2000/svg" xmlns:xlink="http://www.w3.org/1999/xlink" version="1.1" width="855" height="590" viewBox="0 0 855 590" xml:space="preserve">
<desc>Created with Fabric.js 4.5.0</desc>
<defs>
</defs>
<rect x="0" y="0" width="100%" height="100%" fill="#ffffff"></rect>
<g transform="matrix(2.36 0 0 2.36 427.5 378.58)" id="Layer_13"  >
<ellipse style="stroke: none; stroke-width: 1; stroke-dasharray: none; stroke-linecap: butt; stroke-dashoffset: 0; stroke-linejoin: miter; stroke-miterlimit: 4; fill: rgb(201,201,201); fill-rule: nonzero; opacity: 0.16;"  cx="0" cy="0" rx="60.62" ry="6.67" />
</g>
<g transform="matrix(2.36 0 0 2.36 325.97 312.64)" id="Layer_13"  >
<path style="stroke: none; stroke-width: 1; stroke-dasharray: none; stroke-linecap: butt; stroke-dashoffset: 0; stroke-linejoin: miter; stroke-miterlimit: 4; fill: rgb(147,101,0); fill-rule: nonzero; opacity: 1;"  transform=" translate(-173.93, -118.6)" d="M 180.58 72.89 L 169.3 72.89 C 168.28 72.89 167.46 72.07000000000001 167.46 71.05 C 167.46 70.02999999999999 168.28 69.21 169.3 69.21 L 180.58 69.21 C 181.60000000000002 69.21 182.42000000000002 70.02999999999999 182.42000000000002 71.05 C 182.42000000000002 72.07000000000001 181.6 72.89 180.58 72.89 z M 173.93 167.99 C 147.61 167.99 126.20000000000002 146.58 126.20000000000002 120.26000000000002 C 126.20000000000002 93.94000000000003 147.61 72.53000000000003 173.93 72.53000000000003 C 200.25 72.53000000000003 221.66 93.94000000000003 221.66 120.26000000000002 C 221.66 146.58 200.25 167.99 173.93 167.99 z M 173.93 82.24 C 152.96 82.24 135.91 99.3 135.91 120.25999999999999 C 135.91 141.21999999999997 152.97 158.28 173.93 158.28 C 194.89000000000001 158.28 211.95000000000002 141.22 211.95000000000002 120.25999999999999 C 211.95 99.3 194.9 82.24 173.93 82.24 z" stroke-linecap="round" />
</g>
<g transform="matrix(2.36 0 0 2.36 626.02 314.51)" id="Layer_13"  >
<path style="stroke: none; stroke-width: 1; stroke-dasharray: none; stroke-linecap: butt; stroke-dashoffset: 0; stroke-linejoin: miter; stroke-miterlimit: 4; fill: rgb(137,78,0); fill-rule: nonzero; opacity: 1;"  transform=" translate(-173.95, -115.58)" d="M 173.95 78.59 C 150.97 78.59 132.26999999999998 97.29 132.26999999999998 120.27000000000001 C 132.26999999999998 143.25 150.96999999999997 161.95000000000002 173.95 161.95000000000002 C 196.93 161.95000000000002 215.63 143.25000000000003 215.63 120.27000000000001 C 215.63 97.29 196.93 78.59 173.95 78.59 z M 173.95 158.29 C 152.98 158.29 135.92999999999998 141.23 135.92999999999998 120.26999999999998 C 135.92999999999998 99.29999999999998 152.98999999999998 82.24999999999997 173.95 82.24999999999997 C 194.91 82.24999999999997 211.97 99.30999999999997 211.97 120.26999999999998 C 211.97 141.23 194.92 158.29 173.95 158.29 z M 169.68 69.21 L 169.3 69.21 C 168.28 69.21 167.46 70.02999999999999 167.46 71.05 C 167.46 72.07000000000001 168.28 72.89 169.3 72.89 L 180.58 72.89 C 181.60000000000002 72.89 182.42000000000002 72.07000000000001 182.42000000000002 71.05 C 182.42000000000002 70.75999999999999 182.35000000000002 70.5 182.23000000000002 70.25 C 176.78 72.96 170.4 71.62 169.68 69.21 z" stroke-linecap="round" />
</g>
<g transform="matrix(2.36 0 0 2.36 425.24 99.41)" id="Layer_13"  >
<path style="stroke: none; stroke-width: 1; stroke-dasharray: none; stroke-linecap: butt; stroke-dashoffset: 0; stroke-linejoin: miter; stroke-miterlimit: 4; fill: rgb(229,0,85); fill-rule: nonzero; opacity: 1;"  transform=" translate(-174.04, -47.37)" d="M 183.55 42.71 C 179.49 42.71 176.10000000000002 45.49 175.13000000000002 49.24 C 174.16000000000003 45.49 170.76000000000002 42.71 166.71000000000004 42.71 C 161.90000000000003 42.71 158.00000000000003 46.61 158.00000000000003 51.42 C 158.00000000000003 65.37 175.13000000000002 71.38 175.13000000000002 71.38 C 175.13000000000002 71.38 192.26000000000002 63.83 192.26000000000002 51.419999999999995 C 192.26 46.61 188.36 42.71 183.55 42.71 z M 152.43 47.62 C 152.05 47.62 151.66 47.51 151.32 47.279999999999994 L 142.65 41.459999999999994 C 141.73000000000002 40.839999999999996 141.49 39.599999999999994 142.1 38.67999999999999 C 142.72 37.75999999999999 143.96 37.519999999999996 144.88 38.129999999999995 L 153.54999999999998 43.949999999999996 C 154.46999999999997 44.56999999999999 154.70999999999998 45.809999999999995 154.1 46.73 C 153.7 47.31 153.07 47.62 152.43 47.62 z M 166.61 38.37 C 167.65 38.01 168.21 36.87 167.84 35.82 L 164.41 25.96 C 164.04999999999998 24.92 162.91 24.36 161.85999999999999 24.73 C 160.82 25.09 160.26 26.23 160.63 27.28 L 164.06 37.14 C 164.35 37.97 165.12 38.480000000000004 165.95 38.480000000000004 C 166.17 38.48 166.39 38.45 166.61 38.37 z M 185.31 35.94 L 188.32 25.939999999999998 C 188.64 24.88 188.04 23.769999999999996 186.98 23.449999999999996 C 185.92 23.129999999999995 184.81 23.729999999999997 184.48999999999998 24.789999999999996 L 181.48 34.78999999999999 C 181.16 35.849999999999994 181.76 36.959999999999994 182.82 37.279999999999994 C 183.01 37.339999999999996 183.20999999999998 37.37 183.4 37.37 C 184.26 37.36 185.05 36.8 185.31 35.94 z M 198.23 43.39 L 205.72 36.11 C 206.51 35.339999999999996 206.53 34.07 205.76 33.28 C 204.98999999999998 32.49 203.72 32.47 202.92999999999998 33.24 L 195.43999999999997 40.52 C 194.64999999999998 41.290000000000006 194.62999999999997 42.56 195.39999999999998 43.35 C 195.78999999999996 43.75 196.30999999999997 43.96 196.82999999999998 43.96 C 197.34 43.96 197.84 43.77 198.23 43.39 z" stroke-linecap="round" />
</g>
<g transform="matrix(2.36 0 0 2.36 426.76 122.36)" id="Layer_13"  >
<path style="stroke: none; stroke-width: 1; stroke-dasharray: none; stroke-linecap: butt; stroke-dashoffset: 0; stroke-linejoin: miter; stroke-miterlimit: 4; fill: rgb(12,17,182); fill-rule: nonzero; opacity: 1;"  transform=" translate(-174.69, -57.09)" d="M 165.56 42.8 C 161.29 43.36 158 47 158 51.419999999999995 C 158 65.36999999999999 175.13 71.38 175.13 71.38 C 175.13 71.38 187.85999999999999 65.75999999999999 191.37 56.24999999999999 C 175.84 75.89 161.38 57.38 165.56 42.8 z" stroke-linecap="round" />
</g>
<g transform="matrix(2.36 0 0 2.36 454.63 99.01)" id="Layer_13"  >
<path style="stroke: none; stroke-width: 1; stroke-dasharray: none; stroke-linecap: butt; stroke-dashoffset: 0; stroke-linejoin: miter; stroke-miterlimit: 4; fill: rgb(236,106,132); fill-rule: nonzero; opacity: 1;"  transform=" translate(-186.49, -47.2)" d="M 190.24 49.41 C 189.62 50.47 187.43 50.339999999999996 185.36 49.12 C 183.29000000000002 47.9 182.11 46.05 182.73000000000002 45 C 183.35000000000002 43.94 185.54000000000002 44.07 187.61 45.29 C 189.68 46.51 190.87 48.35 190.24 49.41 z" stroke-linecap="round" />
</g>
<g transform="matrix(1 0 0 1 378.5 493.93)" style=""  >
		<text xml:space="preserve" font-family="magimt-2" font-size="40" font-style="normal" font-weight="normal" style="stroke: none; stroke-width: 1; stroke-dasharray: none; stroke-linecap: butt; stroke-dashoffset: 0; stroke-linejoin: miter; stroke-miterlimit: 4; fill: rgb(22,227,63); fill-rule: nonzero; opacity: 1; white-space: pre;" ><tspan x="-262.84" y="12.57" >D</tspan><tspan x="-228.64" y="12.57" >a</tspan><tspan x="-203.6" y="12.57" >t</tspan><tspan x="-179.52" y="12.57" >i</tspan><tspan x="-162.16" y="12.57" >n</tspan><tspan x="-132.44" y="12.57" >g</tspan><tspan x="-106.24" y="12.57" style="white-space: pre; "> </tspan><tspan x="-90.24" y="12.57" >&amp;</tspan><tspan x="-55" y="12.57" style="white-space: pre; "> </tspan><tspan x="-39" y="12.57" >M</tspan><tspan x="2.48" y="12.57" >a</tspan><tspan x="27.52" y="12.57" >t</tspan><tspan x="51.6" y="12.57" >c</tspan><tspan x="77.12" y="12.57" >h</tspan><tspan x="106.16" y="12.57" >m</tspan><tspan x="140.2" y="12.57" >a</tspan><tspan x="165.24" y="12.57" >k</tspan><tspan x="193.56" y="12.57" >i</tspan><tspan x="210.92" y="12.57" >n</tspan><tspan x="240.64" y="12.57" >g</tspan></text>
</g>
</svg>