<?xml version="1.0" encoding="UTF-8" standalone="no" ?>
<!DOCTYPE svg PUBLIC "-//W3C//DTD SVG 1.1//EN" "http://www.w3.org/Graphics/SVG/1.1/DTD/svg11.dtd">
<svg xmlns="http://www.w3.org/2000/svg" xmlns:xlink="http://www.w3.org/1999/xlink" version="1.1"   viewBox="0 0 855 590" xml:space="preserve" width="350" height="230">
<desc>Created with Fabric.js 4.5.0</desc>
<defs>
</defs>
<g transform="matrix(3.69 0 0 3.69 406.61 232.51)" id="Layer_8"  >
<path style="stroke: none; stroke-width: 1; stroke-dasharray: none; stroke-linecap: butt; stroke-dashoffset: 0; stroke-linejoin: miter; stroke-miterlimit: 4; fill: rgb(0,150,196); fill-rule: nonzero; opacity: 1;"  transform=" translate(-169.34, -99.7)" d="M 132.12 92.49 L 132.12 136.6 C 123.60000000000001 137.72 115.59 138.22 107.83000000000001 138.13 L 107.77000000000001 139.26999999999998 L 107.77000000000001 92.49 L 132.12 92.49 z M 165.04 110.88 L 165.04 129.3 C 162.37 130.17000000000002 159.67999999999998 130.98000000000002 156.97 131.71 C 151.74 133.11 146.31 134.3 140.85 135.27 C 140.79999999999998 135.28 140.75 135.28 140.7 135.3 L 140.7 110.88000000000001 L 165.04 110.88 L 165.04 110.88 z M 197.98 77.28 L 197.98 113.58 C 194.35999999999999 116.03 190.82999999999998 118.15 187.23 120 C 182.48999999999998 122.49 178.03 124.53 173.63 126.23 L 173.63 77.28 C 173.62 77.28 197.98 77.28 197.98 77.28 z M 194.16 134.76 C 195.42 134.23 196.69 133.67999999999998 197.97 133.09 L 197.97 142.62 L 173.62 142.62 L 173.62 141.72 C 174.83 141.41 176.01 141.08 177.19 140.74 C 182.67 139.2 188.23 137.25 194.16 134.76 z M 230.89 56.78 L 230.89 79.84 L 209.60999999999999 87.15 L 219.30999999999997 94.23 C 215.45999999999998 98.96000000000001 211.18999999999997 103.29 206.53999999999996 107.18 L 206.53999999999996 56.78 L 230.89 56.78 z M 225.54 115.85 C 227.32999999999998 114.39 229.07 112.83 230.9 111.08 L 230.9 142.61 L 206.55 142.61 L 206.55 128.76000000000002 C 207.85000000000002 128.04000000000002 209.13000000000002 127.31000000000002 210.43 126.54000000000002 C 215.26 123.74 220.22 120.23 225.54 115.85 z" stroke-linecap="round" />
</g>
<g transform="matrix(3.69 0 0 3.69 427.52 218.52)" id="Layer_8"  >
<path style="stroke: none; stroke-width: 1; stroke-dasharray: none; stroke-linecap: butt; stroke-dashoffset: 0; stroke-linejoin: miter; stroke-miterlimit: 4; fill: rgb(0,48,39); fill-rule: nonzero; opacity: 1;"  transform=" translate(-175, -95.91)" d="M 218.72 53.14 C 216.71 53.14 215.08 54.77 215.08 56.78 C 215.08 58.79 216.71 60.42 218.72 60.42 C 220.73 60.42 222.35999999999999 58.79 222.35999999999999 56.78 C 222.35999999999999 54.77 220.73 53.14 218.72 53.14 z M 218.72 53.14 C 216.71 53.14 215.08 54.77 215.08 56.78 C 215.08 58.79 216.71 60.42 218.72 60.42 C 220.73 60.42 222.35999999999999 58.79 222.35999999999999 56.78 C 222.35999999999999 54.77 220.73 53.14 218.72 53.14 z M 218.72 53.14 C 216.71 53.14 215.08 54.77 215.08 56.78 C 215.08 58.79 216.71 60.42 218.72 60.42 C 220.73 60.42 222.35999999999999 58.79 222.35999999999999 56.78 C 222.35999999999999 54.77 220.73 53.14 218.72 53.14 z M 218.72 53.14 C 216.71 53.14 215.08 54.77 215.08 56.78 C 215.08 58.79 216.71 60.42 218.72 60.42 C 220.73 60.42 222.35999999999999 58.79 222.35999999999999 56.78 C 222.35999999999999 54.77 220.73 53.14 218.72 53.14 z M 218.72 48.41 C 214.09 48.41 210.35 52.15 210.35 56.779999999999994 C 210.35 61.40999999999999 214.09 65.14999999999999 218.72 65.14999999999999 C 223.34 65.14999999999999 227.09 61.40999999999999 227.09 56.779999999999994 C 227.09 52.15 223.34 48.41 218.72 48.41 z M 218.72 62.7 C 215.46 62.7 212.8 60.050000000000004 212.8 56.78 C 212.8 53.51 215.45000000000002 50.86 218.72 50.86 C 221.98999999999998 50.86 224.64 53.51 224.64 56.78 C 224.64 60.06 221.99 62.7 218.72 62.7 z M 218.72 53.14 C 216.71 53.14 215.08 54.77 215.08 56.78 C 215.08 58.79 216.71 60.42 218.72 60.42 C 220.73 60.42 222.35999999999999 58.79 222.35999999999999 56.78 C 222.35999999999999 54.77 220.73 53.14 218.72 53.14 z M 218.72 53.14 C 216.71 53.14 215.08 54.77 215.08 56.78 C 215.08 58.79 216.71 60.42 218.72 60.42 C 220.73 60.42 222.35999999999999 58.79 222.35999999999999 56.78 C 222.35999999999999 54.77 220.73 53.14 218.72 53.14 z M 218.72 53.14 C 216.71 53.14 215.08 54.77 215.08 56.78 C 215.08 58.79 216.71 60.42 218.72 60.42 C 220.73 60.42 222.35999999999999 58.79 222.35999999999999 56.78 C 222.35999999999999 54.77 220.73 53.14 218.72 53.14 z M 152.87 107.24 C 150.86 107.24 149.23000000000002 108.86999999999999 149.23000000000002 110.88 C 149.23000000000002 112.89 150.86 114.53 152.87 114.53 C 154.88 114.53 156.51 112.89 156.51 110.88 C 156.51 108.87 154.88 107.24 152.87 107.24 z M 152.87 107.24 C 150.86 107.24 149.23000000000002 108.86999999999999 149.23000000000002 110.88 C 149.23000000000002 112.89 150.86 114.53 152.87 114.53 C 154.88 114.53 156.51 112.89 156.51 110.88 C 156.51 108.87 154.88 107.24 152.87 107.24 z M 152.87 102.51 C 148.25 102.51 144.5 106.26 144.5 110.88000000000001 C 144.5 115.51 148.25 119.25000000000001 152.87 119.25000000000001 C 157.5 119.25000000000001 161.24 115.51000000000002 161.24 110.88000000000001 C 161.24 106.26 157.5 102.51 152.87 102.51 z M 152.87 116.8 C 149.61 116.8 146.95000000000002 114.14999999999999 146.95000000000002 110.88 C 146.95000000000002 107.61999999999999 149.60000000000002 104.96 152.87 104.96 C 156.14000000000001 104.96 158.79 107.61 158.79 110.88 C 158.79 114.16 156.14 116.8 152.87 116.8 z M 152.87 107.24 C 150.86 107.24 149.23000000000002 108.86999999999999 149.23000000000002 110.88 C 149.23000000000002 112.89 150.86 114.53 152.87 114.53 C 154.88 114.53 156.51 112.89 156.51 110.88 C 156.51 108.87 154.88 107.24 152.87 107.24 z M 185.79 73.64 C 183.78 73.64 182.15 75.28 182.15 77.29 C 182.15 79.30000000000001 183.78 80.93 185.79 80.93 C 187.79999999999998 80.93 189.42999999999998 79.30000000000001 189.42999999999998 77.29 C 189.42999999999998 75.28 187.81 73.64 185.79 73.64 z M 185.79 73.64 C 183.78 73.64 182.15 75.28 182.15 77.29 C 182.15 79.30000000000001 183.78 80.93 185.79 80.93 C 187.79999999999998 80.93 189.42999999999998 79.30000000000001 189.42999999999998 77.29 C 189.42999999999998 75.28 187.81 73.64 185.79 73.64 z M 185.79 73.64 C 183.78 73.64 182.15 75.28 182.15 77.29 C 182.15 79.30000000000001 183.78 80.93 185.79 80.93 C 187.79999999999998 80.93 189.42999999999998 79.30000000000001 189.42999999999998 77.29 C 189.42999999999998 75.28 187.81 73.64 185.79 73.64 z M 185.79 73.64 C 183.78 73.64 182.15 75.28 182.15 77.29 C 182.15 79.30000000000001 183.78 80.93 185.79 80.93 C 187.79999999999998 80.93 189.42999999999998 79.30000000000001 189.42999999999998 77.29 C 189.42999999999998 75.28 187.81 73.64 185.79 73.64 z M 185.79 68.91 C 181.17 68.91 177.42 72.66 177.42 77.28999999999999 C 177.42 81.91 181.17 85.66 185.79 85.66 C 190.42 85.66 194.16 81.91 194.16 77.28999999999999 C 194.16 72.66 190.42 68.91 185.79 68.91 z M 185.79 83.21 C 182.53 83.21 179.87 80.55999999999999 179.87 77.28999999999999 C 179.87 74.02 182.52 71.36999999999999 185.79 71.36999999999999 C 189.06 71.36999999999999 191.70999999999998 74.02 191.70999999999998 77.28999999999999 C 191.71 80.55 189.07 83.21 185.79 83.21 z M 185.79 73.64 C 183.78 73.64 182.15 75.28 182.15 77.29 C 182.15 79.30000000000001 183.78 80.93 185.79 80.93 C 187.79999999999998 80.93 189.42999999999998 79.30000000000001 189.42999999999998 77.29 C 189.42999999999998 75.28 187.81 73.64 185.79 73.64 z M 119.95 88.84 C 117.94 88.84 116.31 90.48 116.31 92.49000000000001 C 116.31 94.50000000000001 117.94 96.13000000000001 119.95 96.13000000000001 C 121.96000000000001 96.13000000000001 123.60000000000001 94.50000000000001 123.60000000000001 92.49000000000001 C 123.60000000000001 90.48 121.96 88.84 119.95 88.84 z M 119.95 88.84 C 117.94 88.84 116.31 90.48 116.31 92.49000000000001 C 116.31 94.50000000000001 117.94 96.13000000000001 119.95 96.13000000000001 C 121.96000000000001 96.13000000000001 123.60000000000001 94.50000000000001 123.60000000000001 92.49000000000001 C 123.60000000000001 90.48 121.96 88.84 119.95 88.84 z M 119.95 88.84 C 117.94 88.84 116.31 90.48 116.31 92.49000000000001 C 116.31 94.50000000000001 117.94 96.13000000000001 119.95 96.13000000000001 C 121.96000000000001 96.13000000000001 123.60000000000001 94.50000000000001 123.60000000000001 92.49000000000001 C 123.60000000000001 90.48 121.96 88.84 119.95 88.84 z M 119.95 88.84 C 117.94 88.84 116.31 90.48 116.31 92.49000000000001 C 116.31 94.50000000000001 117.94 96.13000000000001 119.95 96.13000000000001 C 121.96000000000001 96.13000000000001 123.60000000000001 94.50000000000001 123.60000000000001 92.49000000000001 C 123.60000000000001 90.48 121.96 88.84 119.95 88.84 z M 119.95 84.12 C 115.33 84.12 111.58 87.86 111.58 92.49000000000001 C 111.58 97.11000000000001 115.33 100.86000000000001 119.95 100.86000000000001 C 124.58 100.86000000000001 128.33 97.11000000000001 128.33 92.49000000000001 C 128.33 87.87 124.58 84.12 119.95 84.12 z M 119.95 98.41 C 116.69 98.41 114.03 95.75999999999999 114.03 92.49 C 114.03 89.22 116.68 86.57 119.95 86.57 C 123.22 86.57 125.87 89.22 125.87 92.49 C 125.87 95.76 123.22 98.41 119.95 98.41 z M 119.95 88.84 C 117.94 88.84 116.31 90.48 116.31 92.49000000000001 C 116.31 94.50000000000001 117.94 96.13000000000001 119.95 96.13000000000001 C 121.96000000000001 96.13000000000001 123.60000000000001 94.50000000000001 123.60000000000001 92.49000000000001 C 123.60000000000001 90.48 121.96 88.84 119.95 88.84 z M 119.95 88.84 C 117.94 88.84 116.31 90.48 116.31 92.49000000000001 C 116.31 94.50000000000001 117.94 96.13000000000001 119.95 96.13000000000001 C 121.96000000000001 96.13000000000001 123.60000000000001 94.50000000000001 123.60000000000001 92.49000000000001 C 123.60000000000001 90.48 121.96 88.84 119.95 88.84 z M 119.95 88.84 C 117.94 88.84 116.31 90.48 116.31 92.49000000000001 C 116.31 94.50000000000001 117.94 96.13000000000001 119.95 96.13000000000001 C 121.96000000000001 96.13000000000001 123.60000000000001 94.50000000000001 123.60000000000001 92.49000000000001 C 123.60000000000001 90.48 121.96 88.84 119.95 88.84 z M 242.23 80.71 L 241.73999999999998 105.03 L 235.10999999999999 100.19 C 231.23 104.55 227.17999999999998 108.72 222.70999999999998 112.38 C 218.09999999999997 116.17 213.27999999999997 119.69 208.17999999999998 122.66 C 203.09999999999997 125.67 197.85999999999999 128.38 192.45 130.60999999999999 C 187.06 132.86999999999998 181.57 134.85 175.98 136.42 C 170.41 138.01 164.78 139.32 159.10999999999999 140.35 C 153.42999999999998 141.35999999999999 147.73 142.1 142.01999999999998 142.60999999999999 C 130.6 143.57999999999998 119.11999999999998 143.73999999999998 107.77999999999997 142.63 C 119.15999999999997 142.76 130.49999999999997 141.63 141.62999999999997 139.71 C 147.19999999999996 138.73000000000002 152.70999999999998 137.52 158.13999999999996 136.07000000000002 C 163.56999999999996 134.59000000000003 168.90999999999997 132.85000000000002 174.11999999999995 130.86 C 179.34999999999994 128.89000000000001 184.40999999999994 126.55000000000001 189.30999999999995 123.99000000000001 C 194.22999999999993 121.45 198.89999999999995 118.50000000000001 203.34999999999994 115.32000000000001 C 211.99999999999994 109.15 219.52999999999994 101.67 225.69999999999993 93.32000000000001 L 219.23999999999992 88.61000000000001 L 242.23 80.71 z" stroke-linecap="round" />
</g>
<g transform="matrix(1 0 0 1 419 423.43)" style="filter: url(#SVGID_3);"  >
<filter id="SVGID_3" y="-35%" height="170%" x="-21%" width="142%" >
	<feGaussianBlur in="SourceAlpha" stdDeviation="2.5"></feGaussianBlur>
	<feOffset dx="2" dy="2" result="oBlur" ></feOffset>
	<feFlood flood-color="rgb(0,0,0)" flood-opacity="0.3"/>
	<feComposite in2="oBlur" operator="in" />
	<feMerge>
		<feMergeNode></feMergeNode>
		<feMergeNode in="SourceGraphic"></feMergeNode>
	</feMerge>
</filter>
		<text xml:space="preserve" font-family="magimt" font-size="40" font-style="italic" font-weight="bold" style="stroke: rgb(0,0,0); stroke-width: 2; stroke-dasharray: none; stroke-linecap: butt; stroke-dashoffset: 0; stroke-linejoin: miter; stroke-miterlimit: 4; fill: rgb(12,58,49); fill-rule: nonzero; opacity: 1; white-space: pre;" ><tspan x="-119.18" y="12.57" >M</tspan><tspan x="-77.7" y="12.57" >a</tspan><tspan x="-52.66" y="12.57" >r</tspan><tspan x="-27.02" y="12.57" >k</tspan><tspan x="1.3" y="12.57" >e</tspan><tspan x="25.82" y="12.57" >t</tspan><tspan x="49.9" y="12.57" >i</tspan><tspan x="67.26" y="12.57" >n</tspan><tspan x="96.98" y="12.57" >g</tspan></text>
</g>
</svg>