<?xml version="1.0" encoding="UTF-8" standalone="no" ?>
<!DOCTYPE svg PUBLIC "-//W3C//DTD SVG 1.1//EN" "http://www.w3.org/Graphics/SVG/1.1/DTD/svg11.dtd">
<svg xmlns="http://www.w3.org/2000/svg" xmlns:xlink="http://www.w3.org/1999/xlink" version="1.1"   viewBox="0 0 855 590" xml:space="preserve" width="350" height="230">
<desc>Created with Fabric.js 4.5.0</desc>
<defs>
</defs>
<rect x="0" y="0" width="100%" height="100%" fill="#ffffff"></rect>
<g transform="matrix(2.7 0 0 2.7 183.99 238.13)" id="Layer_5"  >
<path style="stroke: none; stroke-width: 1; stroke-dasharray: none; stroke-linecap: butt; stroke-dashoffset: 0; stroke-linejoin: miter; stroke-miterlimit: 4; fill: rgb(188,0,179); fill-rule: nonzero; opacity: 1;"  transform=" translate(-58.38, -119.13)" d="M 41.72 86.07 C 41.72 88.99 39.35 91.35 36.43 91.35 C 33.51 91.35 31.15 88.97999999999999 31.15 86.07 C 31.15 83.14999999999999 33.519999999999996 80.77999999999999 36.43 80.77999999999999 C 39.36 80.78 41.72 83.15 41.72 86.07 z M 53.43 80.78 C 50.51 80.78 48.15 83.15 48.15 86.07000000000001 C 48.15 88.99000000000001 50.519999999999996 91.35000000000001 53.43 91.35000000000001 C 56.35 91.35000000000001 58.72 88.98 58.72 86.07000000000001 C 58.71 83.15 56.34 80.78 53.43 80.78 z M 85.6 147.16 C 85.6 141.45 80.97 136.72 75.27 136.72 C 69.56 136.72 64.94 141.45 64.94 147.16 C 64.94 152.87 69.57 157.49 75.27 157.49 C 80.98 157.49 85.6 152.86 85.6 147.16 z" stroke-linecap="round" />
</g>
<g transform="matrix(2.7 0 0 2.7 153.28 148.93)" id="Layer_5"  >
<path style="stroke: none; stroke-width: 1; stroke-dasharray: none; stroke-linecap: butt; stroke-dashoffset: 0; stroke-linejoin: miter; stroke-miterlimit: 4; fill: rgb(158,0,0); fill-rule: nonzero; opacity: 1;"  transform=" translate(-44.8, -88.73)" d="M 63.32 109.46 L 58.18 114.6 L 58.18 114.6 L 45.72 127.06 C 45.22 127.56 44.4 127.56 43.9 127.06 L 26.299999999999997 109.46000000000001 C 22.33 105.49000000000001 22.629999999999995 98.87 27.189999999999998 95.30000000000001 C 30.999999999999996 92.32000000000001 36.51 92.92000000000002 39.93 96.34000000000002 L 43.9 100.31000000000002 C 44.4 100.81000000000002 45.22 100.81000000000002 45.72 100.31000000000002 L 49.699999999999996 96.33000000000001 C 53.12 92.91000000000001 58.629999999999995 92.31000000000002 62.44 95.29 C 66.99 98.87 67.29 105.49 63.32 109.46 z M 66.71 51.73 L 66.71 51.73 C 52.19 49.47 37.41 49.47 22.889999999999993 51.73 L 22.889999999999993 51.73 L 26.779999999999994 73.41 L 31.499999999999993 74.2 C 40.309999999999995 75.67 49.28999999999999 75.67 58.099999999999994 74.2 L 62.81999999999999 73.41 L 66.71 51.73 z" stroke-linecap="round" />
</g>
<g transform="matrix(2.7 0 0 2.7 148.28 213.22)" id="Layer_5"  >
<path style="stroke: none; stroke-width: 1; stroke-dasharray: none; stroke-linecap: butt; stroke-dashoffset: 0; stroke-linejoin: miter; stroke-miterlimit: 4; fill: rgb(255,255,255); fill-rule: nonzero; opacity: 1;"  transform=" translate(-44.8, -62.95)" d="M 44.8 69.1 L 44.8 69.1 C 44.099999999999994 69.1 43.529999999999994 68.53 43.529999999999994 67.83 L 43.529999999999994 58.07 C 43.529999999999994 57.37 44.099999999999994 56.8 44.8 56.8 L 44.8 56.8 C 45.5 56.8 46.07 57.37 46.07 58.07 L 46.07 67.83 C 46.07 68.53 45.5 69.1 44.8 69.1 z M 49.68 61.69 L 39.92 61.69 C 39.22 61.69 38.65 62.26 38.65 62.96 L 38.65 62.96 C 38.65 63.660000000000004 39.22 64.23 39.92 64.23 L 49.68 64.23 C 50.38 64.23 50.95 63.660000000000004 50.95 62.96 L 50.95 62.96 C 50.95 62.25 50.38 61.69 49.68 61.69 z" stroke-linecap="round" />
</g>
<g transform="matrix(2.7 0 0 2.7 147.31 236.58)" id="Layer_5"  >
<path style="stroke: none; stroke-width: 1; stroke-dasharray: none; stroke-linecap: butt; stroke-dashoffset: 0; stroke-linejoin: miter; stroke-miterlimit: 4; fill: rgb(0,84,119); fill-rule: nonzero; opacity: 1;"  transform=" translate(-44.81, -129.29)" d="M 60.04 179.97 C 50.39 179.97 42.54 172.12 42.54 162.47 L 42.54 141.32 C 41.43 140.97 40.379999999999995 140.35 39.5 139.48 L 10.73 110.7 C 6.92 106.89 4.920000000000001 101.61 5.24 96.23 C 5.57 90.85000000000001 8.21 85.84 12.49 82.48 C 19.95 76.64 30.840000000000003 77.5 37.83 84.49000000000001 C 38.71 85.37 38.71 86.81 37.83 87.69000000000001 C 36.949999999999996 88.57000000000001 35.51 88.57000000000001 34.629999999999995 87.69000000000001 C 29.259999999999994 82.32000000000001 20.939999999999998 81.62 15.289999999999996 86.05000000000001 C 11.979999999999995 88.64000000000001 10.019999999999996 92.36000000000001 9.769999999999996 96.50000000000001 C 9.519999999999996 100.59000000000002 11.039999999999996 104.60000000000001 13.939999999999996 107.50000000000001 L 42.709999999999994 136.27 C 43.82999999999999 137.39000000000001 45.78999999999999 137.39000000000001 46.91 136.27 L 75.67999999999999 107.49000000000001 C 78.58 104.59 80.1 100.58000000000001 79.85 96.49000000000001 C 79.6 92.34 77.64 88.63000000000001 74.33 86.04 C 68.67 81.61000000000001 60.36 82.31 54.989999999999995 87.68 C 54.10999999999999 88.56 52.669999999999995 88.56 51.78999999999999 87.68 C 50.90999999999999 86.80000000000001 50.90999999999999 85.36000000000001 51.78999999999999 84.48 C 58.779999999999994 77.5 69.66999999999999 76.63000000000001 77.13 82.47 C 81.41 85.82 84.06 90.83 84.38 96.22 C 84.71 101.61 82.71 106.88 78.89 110.7 L 50.120000000000005 139.48000000000002 C 49.24 140.36 48.190000000000005 140.97000000000003 47.080000000000005 141.33 L 47.080000000000005 162.48000000000002 C 47.080000000000005 169.63000000000002 52.900000000000006 175.45000000000002 60.050000000000004 175.45000000000002 C 67.2 175.45000000000002 73 169.62 73 162.47 L 73 147.16 C 73 145.91 74.01 144.9 75.26 144.9 C 76.51 144.9 77.52000000000001 145.91 77.52000000000001 147.16 L 77.52000000000001 162.47 C 77.53 172.12 69.68 179.97 60.04 179.97 z" stroke-linecap="round" />
</g>
<g transform="matrix(1 0 0 1 531.64 239.63)" style=""  >
		<text xml:space="preserve" font-family="gabriola" font-size="40" font-style="normal" font-weight="normal" style="stroke: none; stroke-width: 1; stroke-dasharray: none; stroke-linecap: butt; stroke-dashoffset: 0; stroke-linejoin: miter; stroke-miterlimit: 4; fill: rgb(237,2,2); fill-rule: nonzero; opacity: 1; white-space: pre;" ><tspan x="-200" y="12.57" >M</tspan><tspan x="-170.25" y="12.57" >e</tspan><tspan x="-154.12" y="12.57" >d</tspan><tspan x="-133.21" y="12.57" >i</tspan><tspan x="-121.52" y="12.57" >c</tspan><tspan x="-105.29" y="12.57" >a</tspan><tspan x="-86.99" y="12.57" >l</tspan><tspan x="-75.24" y="12.57" style="white-space: pre; "> </tspan><tspan x="-64.26" y="12.57" >&amp;</tspan><tspan x="-38.9" y="12.57" style="white-space: pre; "> </tspan><tspan x="-27.92" y="12.57" >P</tspan><tspan x="-7.35" y="12.57" >h</tspan><tspan x="13.23" y="12.57" >a</tspan><tspan x="31.54" y="12.57" >r</tspan><tspan x="46.58" y="12.57" >m</tspan><tspan x="75.33" y="12.57" >a</tspan><tspan x="93.64" y="12.57" >c</tspan><tspan x="109.87" y="12.57" >y</tspan></text>
</g>
</svg>