<?xml version="1.0" encoding="UTF-8" standalone="no" ?>
<!DOCTYPE svg PUBLIC "-//W3C//DTD SVG 1.1//EN" "http://www.w3.org/Graphics/SVG/1.1/DTD/svg11.dtd">
<svg xmlns="http://www.w3.org/2000/svg" xmlns:xlink="http://www.w3.org/1999/xlink" version="1.1"   viewBox="0 0 855 590" xml:space="preserve" width="350" height="230">
<desc>Created with Fabric.js 4.5.0</desc>
<defs>
</defs>
<g transform="matrix(3.5 0 0 3.5 445.5 231.52)" id="Layer_8"  >
<path style="stroke: none; stroke-width: 1; stroke-dasharray: none; stroke-linecap: butt; stroke-dashoffset: 0; stroke-linejoin: miter; stroke-miterlimit: 4; fill: rgb(150,84,0); fill-rule: nonzero; opacity: 1;"  transform=" translate(-174.99, -96.8)" d="M 147.44 111.85 C 146.17 110.46 145.24 109.39999999999999 144.26 108.38 C 136.42 100.27 134.28 87.28 139.14999999999998 77.13 C 139.30999999999997 76.78999999999999 139.42 76.33 139.68999999999997 76.17 C 140.22999999999996 75.86 140.85999999999996 75.74 141.45999999999998 75.53 C 141.65999999999997 76.17 142.17 76.89 142.01999999999998 77.42 C 141.45 79.47 140.42999999999998 81.41 140.01 83.47 C 138.14 92.66 140.42999999999998 100.69 147.12 107.37 C 147.20000000000002 107.45 147.3 107.5 147.35 107.59 C 149.6 111.27000000000001 152.82 111.41 156.59 110.39 C 159.41 109.63 162.34 109.25 165.25 108.87 C 170.82 108.16000000000001 176.21 109.45 181.53 110.78 C 184.61 111.55 186.78 113.68 187.14000000000001 117.06 C 187.49 120.37 184.98000000000002 123.31 181.38000000000002 123.39 C 178.15000000000003 123.46 174.91000000000003 122.94 171.67000000000002 122.67 C 170.87 122.60000000000001 170.08 122.47 169.28000000000003 122.42 C 168.14000000000004 122.34 167.29000000000002 122.95 167.30000000000004 124.02 C 167.31000000000003 124.77 167.78000000000003 125.75 168.36000000000004 126.2 C 169.03000000000003 126.71000000000001 170.05000000000004 126.79 170.93000000000004 126.96000000000001 C 174.55000000000004 127.63000000000001 178.15000000000003 128.52 181.80000000000004 128.83 C 184.35000000000005 129.04000000000002 186.97000000000003 128.49 189.54000000000005 128.16000000000003 C 190.04000000000005 128.10000000000002 190.54000000000005 127.57000000000002 190.94000000000005 127.17000000000003 C 197.73000000000005 120.22000000000003 204.61000000000004 113.37000000000003 211.24000000000007 106.27000000000004 C 217.79000000000008 99.26000000000003 219.35000000000008 90.91000000000004 216.99000000000007 81.72000000000004 C 216.63000000000005 80.33000000000004 216.09000000000006 80.16000000000004 214.74000000000007 80.67000000000004 C 205.05000000000007 84.39000000000004 194.77000000000007 79.46000000000005 191.44000000000005 69.57000000000005 C 191.29000000000005 69.13000000000005 191.10000000000005 68.70000000000005 190.79000000000005 67.90000000000005 C 188.88000000000005 69.02000000000005 187.02000000000004 69.93000000000005 185.36000000000004 71.12000000000005 C 183.81000000000003 72.23000000000005 182.46000000000004 73.62000000000005 181.04000000000005 74.92000000000004 C 179.03000000000006 76.75000000000004 178.21000000000004 76.83000000000004 176.33000000000004 74.89000000000004 C 172.84000000000003 71.30000000000004 168.89000000000004 68.48000000000005 163.98000000000005 67.22000000000004 C 157.42000000000004 65.54000000000003 151.49000000000004 66.62000000000005 146.47000000000006 71.41000000000004 C 145.72000000000006 72.13000000000004 144.88000000000005 72.74000000000004 143.99000000000007 71.82000000000004 C 143.08000000000007 70.88000000000004 143.78000000000006 70.06000000000003 144.52000000000007 69.37000000000003 C 150.75000000000006 63.52000000000003 158.02000000000007 62.52000000000003 165.95000000000007 64.89000000000003 C 170.2800000000001 66.19000000000003 173.95000000000007 68.64000000000003 177.15000000000006 71.80000000000003 C 177.60000000000005 72.24000000000002 178.06000000000006 72.67000000000003 178.55000000000007 73.13000000000002 C 180.30000000000007 71.66000000000003 181.88000000000008 70.14000000000003 183.66000000000008 68.91000000000003 C 185.45000000000007 67.67000000000003 187.39000000000007 66.63000000000002 189.35000000000008 65.69000000000003 C 190.33000000000007 65.22000000000003 190.5900000000001 64.67000000000003 190.74000000000007 63.65000000000003 C 191.03000000000006 61.61000000000003 191.49000000000007 59.58000000000003 192.02000000000007 57.58000000000003 C 192.29000000000008 56.58000000000003 192.77000000000007 55.310000000000024 194.18000000000006 55.870000000000026 C 195.58000000000007 56.42000000000002 195.04000000000008 57.550000000000026 194.61000000000007 58.58000000000003 C 191.00000000000006 67.24000000000002 196.14000000000007 76.93000000000004 205.36000000000007 78.87000000000003 C 211.72000000000008 80.21000000000004 218.47000000000008 76.92000000000003 221.46000000000006 71.03000000000003 C 224.53000000000006 64.97000000000003 223.17000000000007 57.85000000000003 218.05000000000007 53.22000000000003 C 213.21000000000006 48.85000000000003 205.84000000000006 48.260000000000026 200.38000000000005 51.82000000000003 C 199.98000000000005 52.08000000000003 199.61000000000004 52.54000000000003 199.18000000000006 52.59000000000003 C 198.49000000000007 52.67000000000003 197.77000000000007 52.49000000000003 197.06000000000006 52.42000000000003 C 197.23000000000005 51.72000000000003 197.18000000000006 50.77000000000003 197.62000000000006 50.38000000000003 C 198.56000000000006 49.55000000000003 199.72000000000006 48.93000000000003 200.87000000000006 48.38000000000003 C 208.47000000000006 44.73000000000003 217.74000000000007 47.20000000000003 222.65000000000006 54.16000000000003 C 227.52000000000007 61.06000000000003 226.79000000000005 70.57000000000004 220.93000000000006 76.52000000000004 C 220.71000000000006 76.75000000000004 220.51000000000008 77.02000000000004 220.24000000000007 77.19000000000004 C 219.00000000000006 78.00000000000004 218.99000000000007 78.96000000000004 219.41000000000005 80.33000000000004 C 221.95000000000005 88.57000000000004 221.23000000000005 96.58000000000004 216.55000000000004 103.85000000000004 C 214.38000000000005 107.21000000000004 211.36000000000004 110.04000000000003 208.58000000000004 112.98000000000003 C 204.44000000000005 117.36000000000003 200.17000000000004 121.62000000000003 195.96000000000004 125.94000000000003 C 195.75000000000003 126.16000000000003 195.58000000000004 126.41000000000003 195.07000000000005 127.04000000000002 C 196.24000000000004 126.86000000000001 196.99000000000004 126.78000000000002 197.72000000000006 126.63000000000002 C 200.33000000000007 126.09000000000002 202.92000000000004 125.45000000000002 205.55000000000007 125.00000000000003 C 206.85000000000008 124.78000000000003 208.22000000000006 124.72000000000003 209.53000000000006 124.85000000000002 C 213.61000000000007 125.24000000000002 215.69000000000005 129.34000000000003 213.71000000000006 132.93000000000004 C 212.74000000000007 134.70000000000005 211.26000000000008 135.86000000000004 209.34000000000006 136.47000000000003 C 201.88000000000005 138.87000000000003 194.42000000000007 141.29000000000002 186.94000000000005 143.65000000000003 C 183.64000000000004 144.69000000000003 180.32000000000005 145.70000000000005 176.96000000000006 146.52000000000004 C 172.56000000000006 147.59000000000003 168.41000000000005 146.11000000000004 164.25000000000006 144.96000000000004 C 157.00000000000006 142.97000000000003 149.74000000000007 140.99000000000004 142.49000000000007 139.01000000000005 C 141.63000000000005 138.77000000000004 140.94000000000005 138.63000000000005 140.37000000000006 139.70000000000005 C 140.07000000000005 140.26000000000005 139.11000000000007 140.76000000000005 138.44000000000005 140.78000000000006 C 134.49000000000007 140.88000000000005 130.54000000000005 140.87000000000006 126.59000000000006 140.82000000000005 C 124.75000000000006 140.80000000000004 124.15000000000006 140.10000000000005 124.14000000000006 138.21000000000004 C 124.12000000000006 129.94000000000003 124.12000000000006 121.66000000000004 124.13000000000005 113.39000000000004 C 124.13000000000005 111.34000000000005 124.77000000000005 110.73000000000005 126.84000000000005 110.72000000000004 C 130.58000000000004 110.70000000000005 134.31000000000006 110.74000000000004 138.05000000000004 110.71000000000004 C 139.22000000000003 110.70000000000003 140.13000000000005 110.99000000000004 140.64000000000004 112.16000000000004 C 140.76000000000005 112.43000000000004 141.18000000000004 112.78000000000004 141.42000000000004 112.75000000000004 C 143.29 112.52 145.16 112.21 147.44 111.85 z M 140.69 125.7 C 140.69 125.7 140.68 125.7 140.68 125.7 C 140.68 128.48 140.74 131.25 140.65 134.02 C 140.61 135.32000000000002 141.05 135.88000000000002 142.33 136.22 C 150.99 138.52 159.64000000000001 140.87 168.26000000000002 143.29 C 172.08 144.35999999999999 175.83 144.39 179.60000000000002 143.17999999999998 C 189.15000000000003 140.11999999999998 198.71000000000004 137.09999999999997 208.23000000000002 133.95999999999998 C 209.32000000000002 133.59999999999997 210.42000000000002 132.76999999999998 211.12 131.85999999999999 C 212.47 130.10999999999999 211.64000000000001 128.05999999999997 209.46 127.61999999999999 C 208.45000000000002 127.41 207.33 127.46 206.31 127.66 C 200.81 128.72 195.34 129.91 189.84 130.95 C 187.65 131.36999999999998 185.36 131.98999999999998 183.21 131.72 C 178.03 131.08 172.89000000000001 130.07 167.79000000000002 129 C 165.36 128.49 164.13000000000002 126.17 164.51000000000002 123.69 C 164.88000000000002 121.25 166.8 119.6 169.32000000000002 119.72 C 170.91000000000003 119.78999999999999 172.49 120.11 174.09000000000003 120.25 C 176.42000000000004 120.46 178.76000000000002 120.77 181.09000000000003 120.75 C 182.58000000000004 120.74 183.92000000000004 119.95 184.31000000000003 118.33 C 184.73000000000002 116.62 184.00000000000003 115.16 182.54000000000002 114.39 C 181.11 113.64 179.50000000000003 113.11 177.91000000000003 112.82000000000001 C 173.99000000000004 112.11000000000001 170.12000000000003 110.88000000000001 166.05 111.55000000000001 C 158 112.87 149.95000000000002 114.20000000000002 141.9 115.50000000000001 C 140.83 115.67000000000002 140.68 116.32000000000001 140.69 117.21000000000001 C 140.7 120.05 140.69 122.87 140.69 125.7 z M 137.94 125.95 C 137.94 125.95 137.94 125.95 137.94 125.95 C 137.93 122.27 137.9 118.60000000000001 137.95 114.92 C 137.97 113.75 137.57 113.3 136.39 113.32000000000001 C 133.77999999999997 113.37 131.17 113.38000000000001 128.55999999999997 113.32000000000001 C 127.21999999999997 113.29 126.83999999999997 113.84 126.84999999999998 115.13000000000001 C 126.88999999999999 122.22000000000001 126.89999999999998 129.3 126.82999999999998 136.39000000000001 C 126.81999999999998 137.76000000000002 127.20999999999998 138.31 128.61999999999998 138.28 C 131.23 138.21 133.83999999999997 138.22 136.45 138.29 C 137.69 138.32 137.97 137.81 137.95 136.67 C 137.91 133.09 137.94 129.52 137.94 125.95 z" stroke-linecap="round" />
</g>
<g transform="matrix(3.5 0 0 3.5 339.87 171.56)" id="Layer_8"  >
<path style="stroke: none; stroke-width: 1; stroke-dasharray: none; stroke-linecap: butt; stroke-dashoffset: 0; stroke-linejoin: miter; stroke-miterlimit: 4; fill: rgb(150,84,0); fill-rule: nonzero; opacity: 1;"  transform=" translate(-179.68, -93.95)" d="M 187.99 98.86 C 189.23000000000002 96.81 190.41 94.97 191.47 93.07 C 192.01 92.11999999999999 192.67 91.72 193.77 91.74 C 197.5 91.78999999999999 201.24 91.78 204.97 91.75 C 206.17 91.74 207.23 91.98 207.19 93.39 C 207.15 94.78 206.04 94.99 204.87 94.98 C 201.83 94.97 198.79 95.03 195.75 94.95 C 194.55 94.92 193.81 95.23 193.22 96.35000000000001 C 192.1 98.47000000000001 190.82 100.50000000000001 189.55 102.54 C 188.5 104.22000000000001 187.26000000000002 104.21000000000001 186.29000000000002 102.48 C 183.85000000000002 98.11 181.46 93.71000000000001 178.90000000000003 89.06 C 177.63000000000002 91.25 176.47000000000003 93.26 175.31000000000003 95.27 C 174.70000000000002 96.33 174.12000000000003 97.41 173.48000000000002 98.46 C 172.49 100.1 171.24 100.11 170.18 98.47999999999999 C 169.17000000000002 96.91999999999999 168.20000000000002 95.32999999999998 167.04000000000002 93.47999999999999 C 166.20000000000002 94.82999999999998 165.42000000000002 95.99999999999999 164.74 97.21999999999998 C 164.21 98.16999999999999 163.49 98.54999999999998 162.4 98.52999999999999 C 159.68 98.47999999999999 156.96 98.49999999999999 154.24 98.51999999999998 C 153.10000000000002 98.52999999999999 152.14000000000001 98.26999999999998 152.16 96.90999999999998 C 152.18 95.56999999999998 153.14 95.28999999999998 154.26 95.28999999999998 C 156.34 95.29999999999998 158.42999999999998 95.19999999999997 160.5 95.32999999999998 C 161.76 95.39999999999998 162.45 94.95999999999998 163.01 93.88999999999999 C 163.69 92.57 164.5 91.29999999999998 165.29999999999998 90.03999999999999 C 166.35 88.36999999999999 167.52999999999997 88.33999999999999 168.60999999999999 89.97 C 169.64 91.52 170.60999999999999 93.11 171.74999999999997 94.92 C 172.63999999999996 93.41 173.43999999999997 92.06 174.22999999999996 90.71000000000001 C 175.26999999999995 88.91000000000001 176.24999999999997 87.08000000000001 177.31999999999996 85.29 C 178.26999999999995 83.7 179.57999999999996 83.71000000000001 180.48999999999995 85.33000000000001 C 182.99 89.74 185.41 94.18 187.99 98.86 z" stroke-linecap="round" />
</g>
<g transform="matrix(3.5 0 0 3.5 543.93 105.01)" id="Layer_8"  >
<path style="stroke: none; stroke-width: 1; stroke-dasharray: none; stroke-linecap: butt; stroke-dashoffset: 0; stroke-linejoin: miter; stroke-miterlimit: 4; fill: rgb(150,84,0); fill-rule: nonzero; opacity: 1;"  transform=" translate(-208.28, -64.35)" d="M 206.67 62.74 C 206.67 61.21 206.64999999999998 59.940000000000005 206.67999999999998 58.67 C 206.7 57.620000000000005 207.18999999999997 56.88 208.29999999999998 56.89 C 209.41 56.9 209.88 57.65 209.88 58.7 C 209.89 59.970000000000006 209.88 61.24 209.88 62.75 C 211.28 62.75 212.54 62.75 213.79999999999998 62.75 C 214.89 62.75 215.73999999999998 63.14 215.71999999999997 64.37 C 215.69999999999996 65.61 214.83999999999997 65.95 213.74999999999997 65.94 C 212.52999999999997 65.92999999999999 211.31999999999996 65.94 209.87999999999997 65.94 C 209.87999999999997 67.34 209.87999999999997 68.6 209.87999999999997 69.86 C 209.87999999999997 70.97 209.45999999999998 71.82 208.25999999999996 71.81 C 207.06999999999996 71.8 206.63999999999996 70.96000000000001 206.64999999999995 69.85000000000001 C 206.65999999999994 68.63000000000001 206.64999999999995 67.41000000000001 206.64999999999995 65.95 C 205.28999999999994 65.95 204.02999999999994 65.95 202.77999999999994 65.95 C 201.68999999999994 65.95 200.83999999999995 65.59 200.82999999999996 64.35000000000001 C 200.81999999999996 63.10000000000001 201.68999999999997 62.75000000000001 202.76999999999995 62.74000000000001 C 203.99 62.73 205.22 62.74 206.67 62.74 z" stroke-linecap="round" />
</g>
<g transform="matrix(1.49 0 0 1.49 400.58 474.85)" style="filter: url(#SVGID_1);"  >
<filter id="SVGID_1" y="-27%" height="154%" x="-22%" width="144%" >
	<feGaussianBlur in="SourceAlpha" stdDeviation="2.5"></feGaussianBlur>
	<feOffset dx="2" dy="2" result="oBlur" ></feOffset>
	<feFlood flood-color="rgb(0,0,0)" flood-opacity="0.3"/>
	<feComposite in2="oBlur" operator="in" />
	<feMerge>
		<feMergeNode></feMergeNode>
		<feMergeNode in="SourceGraphic"></feMergeNode>
	</feMerge>
</filter>
		<text xml:space="preserve" font-family="midnightday" font-size="40" font-style="normal" font-weight="bold" style="stroke: rgb(0,0,0); stroke-width: 2; stroke-dasharray: none; stroke-linecap: butt; stroke-dashoffset: 0; stroke-linejoin: miter; stroke-miterlimit: 4; fill: rgb(200,132,132); fill-rule: nonzero; opacity: 1; white-space: pre;" ><tspan x="-88.28" y="-13.65" >M</tspan><tspan x="-59.52" y="-13.65" >e</tspan><tspan x="-37.36" y="-13.65" >d</tspan><tspan x="-13.28" y="-13.65" >i</tspan><tspan x="-0.6" y="-13.65" >c</tspan><tspan x="18.44" y="-13.65" >a</tspan><tspan x="39.92" y="-13.65" >l</tspan><tspan x="52.6" y="-13.65" style="white-space: pre; "> </tspan><tspan x="67" y="-13.65" >&amp;</tspan><tspan x="-87.72" y="38.78" >P</tspan><tspan x="-65.2" y="38.78" >h</tspan><tspan x="-41.84" y="38.78" >a</tspan><tspan x="-20.36" y="38.78" >r</tspan><tspan x="-3.2" y="38.78" >m</tspan><tspan x="28.88" y="38.78" >a</tspan><tspan x="50.36" y="38.78" >c</tspan><tspan x="69.4" y="38.78" >y</tspan></text>
</g>
</svg>