<?xml version="1.0" encoding="UTF-8" standalone="no" ?>
<!DOCTYPE svg PUBLIC "-//W3C//DTD SVG 1.1//EN" "http://www.w3.org/Graphics/SVG/1.1/DTD/svg11.dtd">
<svg xmlns="http://www.w3.org/2000/svg" xmlns:xlink="http://www.w3.org/1999/xlink" version="1.1"   viewBox="0 0 855 590" xml:space="preserve" width="350" height="230">
<desc>Created with Fabric.js 4.5.0</desc>
<defs>
</defs>
<g transform="matrix(4.12 0 0 4.12 380.09 213.15)" id="Layer_12"  >
<path style="stroke: none; stroke-width: 1; stroke-dasharray: none; stroke-linecap: butt; stroke-dashoffset: 0; stroke-linejoin: miter; stroke-miterlimit: 4; fill: rgb(171,95,191); fill-rule: nonzero; opacity: 1;"  transform=" translate(-163.47, -100.21)" d="M 144.16 123.01 C 144.16 101.68 144.16 80.39000000000001 144.16 59.010000000000005 C 160.2 63.120000000000005 176.19 67.21000000000001 192.2 71.30000000000001 C 192.2 78.02000000000001 192.2 84.69000000000001 192.2 91.53000000000002 C 187.41 86.98000000000002 181.82 84.63000000000001 175.29 84.91000000000001 C 168.75 85.18 163.25 87.81000000000002 158.98 92.77000000000001 C 151.76 101.16000000000001 151.63 113.19000000000001 158.64999999999998 121.85000000000001 C 165.28999999999996 130.05 177.57 133.10000000000002 187.85999999999999 126.86000000000001 C 189.29999999999998 128.15 190.69 129.38000000000002 192.04999999999998 130.63000000000002 C 192.18999999999997 130.76000000000002 192.21999999999997 131.05 192.21999999999997 131.27 C 192.22999999999996 134.61 192.22999999999996 137.95000000000002 192.22999999999996 141.4 C 176.16 135.25 160.16 129.13 144.16 123.01 z M 155.18 67.37 C 155.18 69.44 155.23000000000002 71.36 155.16 73.27000000000001 C 155.13 74.10000000000001 155.4 74.41000000000001 156.19 74.61000000000001 C 164.23 76.64000000000001 172.26999999999998 78.71000000000001 180.31 80.77000000000001 C 180.55 80.83000000000001 180.8 80.85000000000001 181.13 80.9 C 181.13 78.9 181.07999999999998 76.98 181.15 75.07000000000001 C 181.18 74.23 180.91 73.93 180.12 73.73 C 173.73000000000002 72.13000000000001 167.36 70.48 160.97 68.85000000000001 C 159.1 68.37 157.22 67.89 155.18 67.37 z M 185.27 140.28 C 179.11 138.15 172.95000000000002 136.01 166.79000000000002 133.88 C 158.57000000000002 131.04 150.35000000000002 128.21 142.12 125.38 C 141.56 125.19 141.1 125.06 141.1 124.25 C 141.13 114.28 141.1 104.32 141.1 94.35 C 141.1 86.33 141.10999999999999 78.31 141.13 70.28999999999999 C 141.13 69.74 141 69.44 140.4 69.35 C 139.72 69.24 139.05 69.00999999999999 138.38 68.83999999999999 C 137.21 68.53999999999999 136.04 68.24 134.79 67.91999999999999 C 134.76999999999998 68.29999999999998 134.73 68.54999999999998 134.73 68.80999999999999 C 134.73 89.48999999999998 134.73999999999998 110.17999999999998 134.72 130.87 C 134.72 131.6 135.03 131.81 135.66 131.91 C 137.32 132.19 138.97 132.5 140.62 132.81 C 147.08 134.02 153.55 135.23 160.01 136.44 C 166.17 137.59 172.32 138.74 178.47 139.89 C 180.49 140.26 182.51 140.61999999999998 184.53 140.98999999999998 L 185.27 140.28 z" stroke-linecap="round" />
</g>
<g transform="matrix(4.12 0 0 4.12 471.11 276.7)" id="Layer_12"  >
<path style="stroke: none; stroke-width: 1; stroke-dasharray: none; stroke-linecap: butt; stroke-dashoffset: 0; stroke-linejoin: miter; stroke-miterlimit: 4; fill: rgb(81,83,28); fill-rule: nonzero; opacity: 1;"  transform=" translate(-185.59, -115.65)" d="M 155.91 107.49 C 155.9 96.22 164.88 87.28 176.2 87.28 C 187.35999999999999 87.28 196.33999999999997 96.28 196.33999999999997 107.46000000000001 C 196.33999999999997 118.71000000000001 187.30999999999997 127.76 176.08999999999997 127.75 C 164.91 127.74 155.91 118.71 155.91 107.49 z M 176.14 123.79 C 185.22 123.75 192.44 116.48 192.41 107.4 C 192.38 98.4 185.01 91.12 175.96 91.16000000000001 C 167.14000000000001 91.19000000000001 159.76000000000002 98.63000000000001 159.82 107.45000000000002 C 159.87 116.56 167.14 123.83 176.14 123.79 z M 206.8 142.58 C 208.79000000000002 144.63000000000002 212.13000000000002 144.43 214.02 142.28 C 215.91 140.14000000000001 215.61 136.9 213.37 135.07 C 208.49 131.09 203.61 127.11 198.73000000000002 123.13 C 197.3 121.96 195.85000000000002 120.81 194.49 119.71 C 192.9 121.42999999999999 191.38 123.08999999999999 189.79000000000002 124.80999999999999 C 195.43 130.71 201.08 136.67 206.8 142.58 z M 163.56 108.06 C 163.31 102.52 166.42000000000002 95.71000000000001 174.45 93.24000000000001 C 169.79999999999998 93.72000000000001 166.1 95.87 163.66 99.87 C 160.51 105.05000000000001 160.53 110.39 163.79999999999998 115.5 C 166.73999999999998 120.09 171.14999999999998 122.13 176.55999999999997 121.99 C 169.19 121.05 163.88 115.09 163.56 108.06 z" stroke-linecap="round" />
</g>
<g transform="matrix(1 0 0 1 414.01 492.65)" style="filter: url(#SVGID_1);"  >
<filter id="SVGID_1" y="-27%" height="154%" x="-21%" width="142%" >
	<feGaussianBlur in="SourceAlpha" stdDeviation="2.5"></feGaussianBlur>
	<feOffset dx="2" dy="2" result="oBlur" ></feOffset>
	<feFlood flood-color="rgb(0,0,0)" flood-opacity="0.3"/>
	<feComposite in2="oBlur" operator="in" />
	<feMerge>
		<feMergeNode></feMergeNode>
		<feMergeNode in="SourceGraphic"></feMergeNode>
	</feMerge>
</filter>
		<text xml:space="preserve" font-family="farmersmarkethollow" font-size="40" font-style="italic" font-weight="bold" style="stroke: rgb(0,0,0); stroke-width: 2; stroke-dasharray: none; stroke-linecap: butt; stroke-dashoffset: 0; stroke-linejoin: miter; stroke-miterlimit: 4; fill: rgb(1,68,34); fill-rule: nonzero; opacity: 1; white-space: pre;" ><tspan x="-162.18" y="-13.65" >R</tspan><tspan x="-126.26" y="-13.65" >e</tspan><tspan x="-92.74" y="-13.65" >s</tspan><tspan x="-59.34" y="-13.65" >e</tspan><tspan x="-24.5" y="-13.65" >a</tspan><tspan x="11.54" y="-13.65" >r</tspan><tspan x="47.66" y="-13.65" >c</tspan><tspan x="80.26" y="-13.65" >h</tspan><tspan x="119.22" y="-13.65" style="white-space: pre; "> </tspan><tspan x="131.06" y="-13.65" >&amp;</tspan><tspan x="-188.6" y="38.78" >D</tspan><tspan x="-152.36" y="38.78" >e</tspan><tspan x="-118.84" y="38.78" >v</tspan><tspan x="-87.44" y="38.78" >e</tspan><tspan x="-53.92" y="38.78" >l</tspan><tspan x="-25.2" y="38.78" >o</tspan><tspan x="10.24" y="38.78" >p</tspan><tspan x="45.2" y="38.78" >m</tspan><tspan x="92.96" y="38.78" >e</tspan><tspan x="126.48" y="38.78" >n</tspan><tspan x="163.24" y="38.78" >t</tspan></text>
</g>
</svg>