<?xml version="1.0" encoding="utf-8"?>
<!-- Generator: Adobe Illustrator 25.4.1, SVG Export Plug-In . SVG Version: 6.00 Build 0)  -->
<svg version="1.1" id="Layer_1" xmlns="http://www.w3.org/2000/svg" xmlns:xlink="http://www.w3.org/1999/xlink" x="0px" y="0px"
	 viewBox="0 0 348 228" style="enable-background:new 0 0 348 228;" xml:space="preserve">
<style type="text/css">
	.st0{fill:#040452;}
	.st1{fill:#FFFFFF;}
	.st2{enable-background:new    ;}
</style>
<rect x="-0.1" y="-0.5" class="st0" width="348.2" height="228.1"/>
<g>
	<g>
		<g>
			<g>
				<path class="st1" d="M219.5,142l-41.3-98.6h-4.4l-10.9,26.3l2.2,5.1l15.8,38.1c12.1,29.5,11.8,35.5,45.8,33.4v-2.2L219.5,142z"
					/>
			</g>
		</g>
		<g>
			<g>
				<g>
					<path class="st1" d="M158.3,78.1l-0.9,2.2L133.1,139l-11.2,4.2l-0.6,0.2v0.7v2.2v1h1h26.8h1v-1v-2.2v-0.7l-0.6-0.3l-9.9-4
						l8.9-21.7h24.8h1.5l-0.6-1.4l-1.5-3.6l-0.3-0.6h-0.7h-21l10.7-25.7l0.2-0.4l-0.2-0.4l-2.2-5.2L158.3,78.1L158.3,78.1z"/>
				</g>
			</g>
		</g>
	</g>
	<g>
		<g class="st2">
			<path class="st1" d="M138.6,177.6v2.6h2.8v0.8h-2.8v2.7h3.1v0.8h-4.1v-7.7h4.1v0.8H138.6z"/>
			<path class="st1" d="M147.9,184.3c-0.4-0.2-0.7-0.4-0.9-0.8c-0.2-0.3-0.3-0.7-0.4-1.1h1.1c0,0.4,0.2,0.7,0.4,0.9
				c0.3,0.2,0.6,0.4,1.1,0.4c0.5,0,0.9-0.1,1.1-0.4c0.3-0.2,0.4-0.5,0.4-0.9c0-0.3-0.1-0.5-0.2-0.7c-0.2-0.2-0.4-0.3-0.6-0.4
				c-0.2-0.1-0.6-0.2-1-0.3c-0.5-0.1-0.9-0.3-1.2-0.4c-0.3-0.1-0.6-0.3-0.8-0.6c-0.2-0.3-0.3-0.7-0.3-1.1c0-0.4,0.1-0.8,0.3-1.1
				c0.2-0.3,0.5-0.6,0.9-0.8c0.4-0.2,0.8-0.3,1.3-0.3c0.7,0,1.3,0.2,1.8,0.5c0.5,0.4,0.7,0.8,0.8,1.4h-1.1c0-0.3-0.2-0.6-0.5-0.8
				c-0.3-0.2-0.6-0.3-1.1-0.3c-0.4,0-0.8,0.1-1,0.3c-0.3,0.2-0.4,0.5-0.4,0.9c0,0.3,0.1,0.5,0.2,0.7c0.2,0.2,0.4,0.3,0.6,0.4
				c0.2,0.1,0.6,0.2,1,0.3c0.5,0.1,0.9,0.3,1.2,0.4c0.3,0.1,0.6,0.3,0.8,0.6c0.2,0.3,0.3,0.7,0.3,1.2c0,0.4-0.1,0.7-0.3,1.1
				c-0.2,0.3-0.5,0.6-0.9,0.8c-0.4,0.2-0.9,0.3-1.4,0.3C148.7,184.6,148.3,184.5,147.9,184.3z"/>
			<path class="st1" d="M161.5,176.8v0.8h-2.1v6.9h-1v-6.9h-2.1v-0.8H161.5z"/>
			<path class="st1" d="M166.1,184.4c-0.1-0.1-0.2-0.3-0.2-0.5s0.1-0.4,0.2-0.5c0.1-0.1,0.3-0.2,0.5-0.2c0.2,0,0.3,0.1,0.5,0.2
				c0.1,0.1,0.2,0.3,0.2,0.5s-0.1,0.4-0.2,0.5c-0.1,0.1-0.3,0.2-0.5,0.2C166.4,184.6,166.2,184.5,166.1,184.4z"/>
			<path class="st1" d="M180.5,181.8c0.5-0.5,1-1,1.3-1.5c0.4-0.5,0.5-1,0.5-1.6c0-0.5-0.1-0.9-0.3-1.1c-0.2-0.3-0.6-0.4-1.1-0.4
				c-0.5,0-0.9,0.2-1.2,0.5c-0.3,0.3-0.4,0.7-0.4,1.3h-1c0-0.8,0.3-1.5,0.8-1.9s1.1-0.7,1.8-0.7c0.8,0,1.4,0.2,1.8,0.6
				s0.7,1,0.7,1.7c0,0.6-0.2,1.2-0.5,1.8c-0.4,0.6-0.8,1.1-1.2,1.5c-0.5,0.4-1.1,0.9-1.8,1.5h3.8v0.8h-5.3v-0.7
				C179.2,182.9,179.9,182.3,180.5,181.8z"/>
			<path class="st1" d="M188.9,177.4c0.4-0.7,1.1-1.1,2.2-1.1c1,0,1.7,0.4,2.2,1.1c0.4,0.7,0.6,1.7,0.6,3c0,1.3-0.2,2.3-0.6,3
				c-0.4,0.7-1.1,1.1-2.2,1.1c-1,0-1.8-0.4-2.2-1.1c-0.4-0.7-0.6-1.7-0.6-3C188.3,179.1,188.5,178.2,188.9,177.4z M192.7,178.8
				c-0.1-0.4-0.3-0.8-0.5-1.1c-0.3-0.3-0.6-0.4-1.1-0.4c-0.5,0-0.9,0.1-1.1,0.4c-0.3,0.3-0.4,0.6-0.5,1.1c-0.1,0.4-0.1,1-0.1,1.6
				c0,0.7,0,1.2,0.1,1.7c0.1,0.4,0.3,0.8,0.5,1.1c0.3,0.3,0.6,0.4,1.1,0.4c0.5,0,0.9-0.1,1.1-0.4c0.3-0.3,0.4-0.6,0.5-1.1
				c0.1-0.4,0.1-1,0.1-1.7C192.8,179.8,192.8,179.2,192.7,178.8z"/>
			<path class="st1" d="M200.8,181.8c0.5-0.5,1-1,1.3-1.5c0.4-0.5,0.5-1,0.5-1.6c0-0.5-0.1-0.9-0.3-1.1c-0.2-0.3-0.6-0.4-1.1-0.4
				c-0.5,0-0.9,0.2-1.2,0.5c-0.3,0.3-0.4,0.7-0.4,1.3h-1c0-0.8,0.3-1.5,0.8-1.9c0.5-0.4,1.1-0.7,1.8-0.7c0.8,0,1.4,0.2,1.8,0.6
				s0.7,1,0.7,1.7c0,0.6-0.2,1.2-0.5,1.8c-0.4,0.6-0.8,1.1-1.2,1.5c-0.5,0.4-1.1,0.9-1.8,1.5h3.8v0.8h-5.3v-0.7
				C199.5,182.9,200.3,182.3,200.8,181.8z"/>
			<path class="st1" d="M208.3,177.4v-0.9h2.1v8h-1v-7.1H208.3z"/>
		</g>
		<g>
			<path class="st1" d="M121.6,160.8c0.5-0.9,1.2-1.5,2.1-2c0.9-0.5,1.8-0.7,2.9-0.7c1.2,0,2.2,0.3,3.2,0.9c0.9,0.6,1.6,1.4,2,2.5
				h-2.2c-0.3-0.6-0.7-1-1.2-1.3c-0.5-0.3-1.1-0.4-1.8-0.4c-0.7,0-1.4,0.2-2,0.5c-0.6,0.3-1,0.8-1.4,1.4c-0.3,0.6-0.5,1.3-0.5,2.2
				s0.2,1.5,0.5,2.2c0.3,0.6,0.8,1.1,1.4,1.4c0.6,0.3,1.2,0.5,2,0.5c0.7,0,1.3-0.1,1.8-0.4c0.5-0.3,0.9-0.7,1.2-1.3h2.2
				c-0.4,1.1-1.1,1.9-2,2.5c-0.9,0.6-2,0.9-3.2,0.9c-1,0-2-0.2-2.9-0.7c-0.9-0.5-1.6-1.2-2.1-2c-0.5-0.9-0.8-1.8-0.8-2.9
				S121.1,161.6,121.6,160.8z"/>
			<path class="st1" d="M140.4,168.7c-0.9-0.5-1.6-1.2-2.1-2c-0.5-0.9-0.8-1.9-0.8-2.9s0.3-2.1,0.8-2.9c0.5-0.9,1.2-1.5,2.1-2
				c0.9-0.5,1.8-0.7,2.9-0.7c1,0,2,0.2,2.9,0.7c0.9,0.5,1.6,1.2,2.1,2c0.5,0.9,0.8,1.8,0.8,2.9s-0.3,2.1-0.8,2.9
				c-0.5,0.9-1.2,1.6-2.1,2c-0.9,0.5-1.8,0.7-2.9,0.7C142.2,169.4,141.3,169.2,140.4,168.7z M145.3,167.3c0.6-0.3,1-0.8,1.4-1.4
				c0.3-0.6,0.5-1.4,0.5-2.2s-0.2-1.5-0.5-2.2c-0.3-0.6-0.8-1.1-1.4-1.4c-0.6-0.3-1.2-0.5-2-0.5c-0.7,0-1.4,0.2-2,0.5
				c-0.6,0.3-1,0.8-1.4,1.4c-0.3,0.6-0.5,1.3-0.5,2.2s0.2,1.5,0.5,2.2c0.3,0.6,0.8,1.1,1.4,1.4c0.6,0.3,1.2,0.5,2,0.5
				C144,167.8,144.7,167.6,145.3,167.3z"/>
			<path class="st1" d="M166.9,158.1v11.2H165v-7.6l-3.4,7.6h-1.3l-3.4-7.6v7.6h-1.8v-11.2h2l3.9,8.7l3.9-8.7H166.9z"/>
			<path class="st1" d="M181,163.1c-0.3,0.5-0.7,0.9-1.3,1.2c-0.6,0.3-1.3,0.5-2.3,0.5h-2v4.5h-1.8v-11.2h3.9c0.9,0,1.6,0.1,2.2,0.4
				c0.6,0.3,1,0.7,1.3,1.2c0.3,0.5,0.4,1.1,0.4,1.7C181.4,162,181.3,162.6,181,163.1z M179,162.8c0.3-0.3,0.5-0.8,0.5-1.3
				c0-1.2-0.7-1.8-2.1-1.8h-2v3.6h2C178.1,163.3,178.7,163.1,179,162.8z"/>
			<path class="st1" d="M194.2,167h-4.7l-0.8,2.3h-1.9l4-11.2h2.1l4,11.2H195L194.2,167z M193.7,165.5l-1.8-5.2l-1.8,5.2H193.7z"/>
			<path class="st1" d="M212.2,169.3h-1.8l-5.5-8.3v8.3H203v-11.2h1.8l5.5,8.3v-8.3h1.8V169.3z"/>
			<path class="st1" d="M227.2,158.1l-3.7,7.1v4h-1.8v-4l-3.7-7.1h2l2.6,5.5l2.6-5.5H227.2z"/>
		</g>
	</g>
</g>
</svg>
