<?xml version="1.0" encoding="utf-8"?>
<!-- Generator: Adobe Illustrator 27.8.1, SVG Export Plug-In . SVG Version: 6.00 Build 0)  -->
<svg version="1.1" id="Layer_1" xmlns="http://www.w3.org/2000/svg" xmlns:xlink="http://www.w3.org/1999/xlink" x="0px" y="0px"
	 viewBox="0 0 348 228" style="enable-background:new 0 0 348 228;" xml:space="preserve">
<style type="text/css">
	.st0{fill:#D6EADE;}
	.st1{fill:#03487C;}
	.st2{fill:#1B1B4C;}
	.st3{fill:none;}
	.st4{fill-rule:evenodd;clip-rule:evenodd;fill:#204F7A;}
	.st5{fill-rule:evenodd;clip-rule:evenodd;fill:#50A4FF;}
	.st6{fill:#002649;}
	.st7{fill:#E6E7E8;stroke:#CFCFCF;stroke-width:0.1061;}
	.st8{fill:#333333;}
	.st9{fill-rule:evenodd;clip-rule:evenodd;fill:#277FC1;}
	.st10{fill-rule:evenodd;clip-rule:evenodd;fill:#083D6D;}
	.st11{fill:#DDB462;}
	
		.st12{clip-path:url(#SVGID_00000001656150560394528990000014343256365588832944_);fill:url(#SVGID_00000153666775468907623120000005346942583836189591_);}
	.st13{fill:#FFFFFF;}
	.st14{fill:url(#SVGID_00000045578989737390764990000016927174228353913257_);}
	.st15{font-family:'Poppins-Medium';}
	.st16{font-size:9px;}
	.st17{fill:#224685;}
	.st18{fill:#FFC73B;}
	.st19{fill:#11233F;}
	.st20{fill:#5267FF;}
	.st21{fill-rule:evenodd;clip-rule:evenodd;fill:#72342E;}
	.st22{fill:#72342E;}
	.st23{fill:#FFF2E2;}
	.st24{fill:#FFF2E2;stroke:#72342E;stroke-width:0.75;stroke-miterlimit:10;}
	.st25{fill:#FFCC99;}
	.st26{fill:#469CB2;}
	.st27{fill:url(#XMLID_00000005960471588725935000000014718536964889344166_);}
	.st28{fill:url(#XMLID_00000057844094257498301640000000745725862418059691_);}
	.st29{fill:url(#XMLID_00000035531882970293982990000005175035059918670747_);}
	.st30{fill:url(#XMLID_00000116942916368619033080000015114899155606530237_);}
	.st31{fill:url(#XMLID_00000033364724759360752650000000447815994293819311_);}
	.st32{fill:url(#XMLID_00000119799134851865338890000004213080721339912606_);}
	.st33{fill:url(#XMLID_00000163754819514805750090000017690592854994635966_);}
	.st34{fill:url(#XMLID_00000020375126919661534480000003170313302653116328_);}
	.st35{fill:url(#XMLID_00000124842645154970837780000001427828699190921366_);}
	.st36{fill:url(#XMLID_00000035501212355955157590000011996762064670861235_);}
	.st37{fill:url(#XMLID_00000115511087701251062700000000638671781012219307_);}
	.st38{fill:url(#XMLID_00000003807661943758589200000006833959853876265634_);}
	.st39{fill:url(#XMLID_00000135660365538404392710000004071595986177698225_);}
	.st40{fill:url(#XMLID_00000040567647700443164580000006144041039525962934_);}
	.st41{fill:url(#XMLID_00000075158650386551740910000014709756496072411813_);}
	.st42{fill:url(#SVGID_00000167381938232426485600000010224705992508192950_);}
	.st43{fill:url(#SVGID_00000018211752028109588130000017063130503016674234_);}
	.st44{fill:url(#SVGID_00000150097530461985675690000012806720194262165689_);}
	.st45{fill:url(#SVGID_00000074426121535079561850000016913644202739351184_);}
	.st46{fill:url(#SVGID_00000057868678057567307630000005894461179501488565_);}
	.st47{fill:url(#SVGID_00000130630297589108367790000005987971822239565494_);}
	.st48{fill:url(#SVGID_00000129181434469675718500000006381421341775730067_);}
	.st49{fill:url(#SVGID_00000173857982858701785490000006250846919513857449_);}
	.st50{fill:url(#SVGID_00000056396587421092832040000013855138648236753283_);}
	.st51{fill:url(#SVGID_00000001630008625527862150000008570955326820040338_);}
	.st52{fill:url(#SVGID_00000174597285113819439380000004911812183092311442_);}
	.st53{fill:url(#SVGID_00000100369083819408689130000012470123717065413531_);}
	.st54{fill:url(#SVGID_00000062190482862271771230000014721520271028946873_);}
	.st55{fill:url(#SVGID_00000083085794377792081160000002705834188731267757_);}
	.st56{fill:#30325E;}
	.st57{fill:#FF7859;}
	.st58{fill:#FFD550;}
	.st59{fill:#00C3AD;}
	.st60{fill:#FF4653;}
	.st61{fill:#D8CE19;}
	.st62{fill:#FFE4D2;}
	.st63{fill:#A2E0EB;}
	.st64{fill:#1B3493;}
	.st65{fill:none;stroke:#FFFFFF;stroke-width:2;stroke-linecap:round;stroke-linejoin:round;stroke-miterlimit:10;}
	.st66{fill:#F15A24;}
	.st67{fill:#F7931E;}
	.st68{fill:#58595B;}
	.st69{fill:#114E15;}
	.st70{fill:#013D01;}
	.st71{fill:#E9C608;}
	.st72{fill:#043B00;}
	.st73{fill:#D8A43E;}
	.st74{clip-path:url(#SVGID_00000060711571516250217110000012032668130982268053_);}
	.st75{fill:#F49630;}
	.st76{clip-path:url(#SVGID_00000096035990674276887800000010530546688252454311_);}
	.st77{clip-path:url(#SVGID_00000109027594648227330430000014386662957651733636_);}
	.st78{clip-path:url(#SVGID_00000127040318376606200790000002823972723953287605_);}
	.st79{clip-path:url(#SVGID_00000177443036701691751100000005752876605319127464_);}
	.st80{fill-rule:evenodd;clip-rule:evenodd;fill:#FF6600;}
	.st81{fill-rule:evenodd;clip-rule:evenodd;fill:#05174F;}
	.st82{fill:#05174F;}
	.st83{opacity:0.42;fill:url(#SVGID_00000150812394848290577720000011547688725636648366_);enable-background:new    ;}
	.st84{opacity:0.42;fill:url(#SVGID_00000023968768008949942240000013073942269500482462_);enable-background:new    ;}
	.st85{fill:url(#SVGID_00000038371183793031816360000010197613728401182611_);}
	.st86{fill:url(#SVGID_00000042012979517759783860000009938062411750033797_);}
	.st87{opacity:0.64;fill:url(#SVGID_00000018222772349841417150000008848557678033831611_);enable-background:new    ;}
	.st88{opacity:0.75;fill:url(#SVGID_00000064320081858471466340000000077572960920586920_);enable-background:new    ;}
	.st89{fill:url(#SVGID_00000080892238924544720210000014847325408528358800_);}
	.st90{fill:url(#SVGID_00000061444543395538695880000009120395777457275786_);}
	.st91{opacity:0.76;fill:url(#SVGID_00000130630897358537145090000001199853650792190874_);enable-background:new    ;}
	.st92{opacity:0.75;fill:url(#SVGID_00000019648334359185827080000009979846268933287870_);enable-background:new    ;}
	.st93{fill:url(#SVGID_00000160878395638518584840000010149761209232228482_);}
	.st94{opacity:0.42;fill:url(#SVGID_00000043418790815852788420000015426663087498863519_);enable-background:new    ;}
	.st95{opacity:0.42;fill:url(#SVGID_00000088099068272079483060000016156262433819414662_);enable-background:new    ;}
	.st96{clip-path:url(#SVGID_00000146497213572105640010000001766070806450510748_);}
	.st97{fill:#1ED7FE;}
	.st98{clip-path:url(#SVGID_00000062164762975316779040000002560406076213958303_);}
	.st99{clip-path:url(#SVGID_00000041281634367536677370000012484734645804753571_);}
	.st100{fill:#000056;}
	.st101{clip-path:url(#SVGID_00000092435321107352051890000017905232441568055182_);}
	.st102{fill:#053272;}
	.st103{fill:none;stroke:#053272;stroke-width:4;stroke-miterlimit:10;}
	.st104{fill:url(#SVGID_00000132784605258137668750000008603071954322454159_);}
	.st105{fill:url(#SVGID_00000057851223431049605600000004621631973137436075_);}
	.st106{fill:url(#SVGID_00000029008339390389499180000014480102089093037487_);}
	.st107{fill:url(#SVGID_00000165931800650024040310000012983415470337661616_);}
	.st108{fill:url(#SVGID_00000079474059855675777680000013566623488024845980_);}
	.st109{fill:url(#SVGID_00000013872910122895163020000009346505241420011678_);}
	.st110{fill:url(#SVGID_00000080897020367556149770000015440968626045157032_);}
	.st111{fill:url(#SVGID_00000020383215041544667770000012371009696137597877_);}
	.st112{fill:url(#SVGID_00000060749368155820353240000006508117849848953518_);}
	.st113{fill:url(#SVGID_00000074421950727592425190000009771884069524975509_);}
	.st114{fill:url(#SVGID_00000066501736326357254570000017399954095365935036_);}
	.st115{fill:url(#SVGID_00000031927257677733406880000014431329876608541624_);}
	.st116{fill:url(#SVGID_00000117659473970165481730000006647878994979207352_);}
	.st117{fill:url(#SVGID_00000156557671171260223010000014635623503624062611_);}
	.st118{fill:url(#SVGID_00000173864395256745622530000003229173518494447036_);}
	.st119{fill:url(#SVGID_00000031926818544327183320000003590738293908023732_);}
	.st120{fill:url(#SVGID_00000050645350793447695810000005260881948166395808_);}
	.st121{fill:url(#SVGID_00000181791660425042773980000012495729795349615280_);}
	.st122{fill:url(#SVGID_00000088130800303931144150000011667068904426776197_);}
	.st123{fill:url(#SVGID_00000059274241575469340640000009474408165892201903_);}
	.st124{fill:url(#SVGID_00000149361436166917751690000016727190669558211460_);}
	.st125{fill:url(#SVGID_00000044877870886367287740000004223771609654145446_);}
	.st126{fill:url(#SVGID_00000003067980504711868350000008181741217096088208_);}
	.st127{fill:url(#SVGID_00000150810764506457756420000011128843494000666512_);}
	.st128{fill:url(#SVGID_00000147913465984392463720000014609750997522092204_);}
	.st129{fill:url(#SVGID_00000171708560000117606460000009266724564727703218_);}
	.st130{fill:url(#SVGID_00000174577236720410478620000010887719871299601835_);}
	.st131{fill:url(#SVGID_00000124139441558777101460000008562615122514104500_);}
	.st132{fill:url(#SVGID_00000156570304929034052830000003417984375026238595_);}
	.st133{fill:none;stroke:#FEF73D;stroke-linecap:round;stroke-miterlimit:10;}
	.st134{fill:none;stroke:#FF189C;stroke-miterlimit:10;}
	.st135{fill:none;stroke:#00EFF1;stroke-linecap:round;stroke-miterlimit:10;}
	.st136{fill:#00EFF1;}
	.st137{fill:#FFA022;}
	.st138{fill:#0C103A;}
	.st139{fill-rule:evenodd;clip-rule:evenodd;fill:#5D9541;}
	.st140{fill-rule:evenodd;clip-rule:evenodd;fill:#F06021;}
	.st141{fill-rule:evenodd;clip-rule:evenodd;fill:#69BC60;}
	.st142{fill-rule:evenodd;clip-rule:evenodd;fill:#F6951C;}
	.st143{fill:#F6951C;}
	.st144{fill:url(#SVGID_00000034060311914300493020000016742763713176303238_);}
	.st145{fill:url(#SVGID_00000054985286987770703160000011636269447641676170_);}
	.st146{fill:url(#SVGID_00000165218039373959998050000000977471776773807019_);}
	.st147{opacity:0.93;fill:url(#SVGID_00000074435573621929327720000003651848566252009364_);}
	.st148{opacity:0.93;fill:url(#SVGID_00000021121178795785006550000015577454545460935827_);}
	.st149{opacity:0.93;fill:url(#SVGID_00000074430357424471680150000001301739539029827713_);}
	.st150{opacity:0.93;fill:url(#SVGID_00000037655439407906352350000012130547351361050542_);}
	.st151{fill:url(#SVGID_00000088126223102865884390000011858443571396675489_);}
	.st152{fill:url(#SVGID_00000050620566078823179450000011649484966637819033_);}
	.st153{fill:url(#SVGID_00000062880615522051621340000009567468129331551414_);}
	.st154{fill:url(#SVGID_00000073705221468138670210000014579665292112306621_);}
	.st155{fill:url(#SVGID_00000167394943769715504470000017750710657712611235_);}
	.st156{fill:url(#SVGID_00000011730015000473108940000003380959120370395034_);}
	.st157{fill:url(#SVGID_00000182509005555572512280000008059881208711093912_);}
	.st158{fill:url(#SVGID_00000034078596157292918490000004911401820509473720_);}
	.st159{fill:url(#SVGID_00000089545948522671034990000012059022971030896046_);}
	.st160{fill:url(#SVGID_00000063611579616334640200000015564396024433215114_);}
	.st161{fill:url(#SVGID_00000054984200667212737230000010868593811767369352_);}
	.st162{fill:url(#SVGID_00000108998407363070982840000015633790033373334400_);}
	.st163{fill:url(#SVGID_00000170992338391447469500000006200078182974917302_);}
	.st164{fill:url(#SVGID_00000096742309116368232830000002950756172835377597_);}
	.st165{fill:url(#SVGID_00000130621854960873203660000006768874489432109718_);}
	.st166{fill:url(#SVGID_00000152978966795129318040000009037080980943879060_);}
	.st167{fill:url(#SVGID_00000043440756280700424550000009122128971851017347_);}
	.st168{fill:url(#SVGID_00000003081425850918778960000014000224570432770999_);}
	.st169{fill:url(#SVGID_00000111900664681841613160000012187829486710704301_);}
	.st170{fill:url(#SVGID_00000044894694106505996440000012594305129673727365_);}
	.st171{fill:url(#SVGID_00000019674532947514439090000013023834201118954130_);}
	.st172{fill:url(#SVGID_00000021108244342363476880000001263209506537304244_);}
	.st173{fill:url(#SVGID_00000091731397126765227330000005044870295731197314_);}
	.st174{fill:url(#SVGID_00000178171341364957428300000015027986489526182530_);}
	.st175{fill:url(#SVGID_00000101100298679428888040000008240745835417831355_);}
	.st176{fill:url(#SVGID_00000049223163978177597120000012403602983707566000_);}
	.st177{fill:url(#SVGID_00000044878868058466214720000015390935139910794172_);}
	.st178{fill:url(#SVGID_00000159436005061750490970000005886771323175571609_);}
	.st179{fill:url(#SVGID_00000161617824372176267880000005306357777914125195_);}
	.st180{fill:url(#SVGID_00000124861549884205825090000008367771300832323497_);}
	.st181{fill:url(#SVGID_00000023269521868795450060000005615516083621697705_);}
	.st182{fill:url(#SVGID_00000165215847650901838660000001546031627415889078_);}
	.st183{fill:url(#SVGID_00000138570133179130634190000004143719211069638069_);}
	.st184{fill:url(#SVGID_00000002378901559717297490000015017615021988036784_);}
	.st185{fill:url(#SVGID_00000088125114458726882370000008405587976621683890_);}
	.st186{fill:url(#SVGID_00000034057364594298651180000011825885843111110073_);}
	.st187{fill:url(#SVGID_00000165225748857248520780000016667241314644916397_);}
	.st188{fill:url(#SVGID_00000130615386566861759760000010135325004680075144_);}
	.st189{fill:url(#SVGID_00000004546428547503657100000007023157306234067873_);}
	.st190{fill:url(#SVGID_00000086665267217989259260000005629641514127687297_);}
	.st191{fill:url(#SVGID_00000111166824593255314030000014053208123323287722_);}
	.st192{fill:url(#SVGID_00000019637350089113608960000016547336227046927540_);}
	.st193{fill:url(#SVGID_00000072277023122004946020000004178993713125877929_);}
	.st194{fill:url(#SVGID_00000101091025640178296480000005170510744862852022_);}
	.st195{fill:url(#SVGID_00000159462208870582761870000003138312457418719892_);}
	.st196{fill-rule:evenodd;clip-rule:evenodd;fill:#512100;}
	.st197{fill-rule:evenodd;clip-rule:evenodd;fill:#006D62;}
	.st198{fill-rule:evenodd;clip-rule:evenodd;}
	.st199{fill-rule:evenodd;clip-rule:evenodd;fill:#00A1F5;}
	.st200{fill-rule:evenodd;clip-rule:evenodd;fill:#FACFAB;}
	.st201{fill-rule:evenodd;clip-rule:evenodd;fill:#F29673;}
	.st202{fill-rule:evenodd;clip-rule:evenodd;fill:#FFFFFF;}
	.st203{fill-rule:evenodd;clip-rule:evenodd;fill:#333333;}
	.st204{fill-rule:evenodd;clip-rule:evenodd;fill:#BD4D00;}
	.st205{fill-rule:evenodd;clip-rule:evenodd;fill:#B2B2B2;}
	.st206{fill-rule:evenodd;clip-rule:evenodd;fill:#F2CC29;}
	.st207{fill-rule:evenodd;clip-rule:evenodd;fill:#005C9C;}
	.st208{fill-rule:evenodd;clip-rule:evenodd;fill:#8AC900;}
	.st209{fill-rule:evenodd;clip-rule:evenodd;fill:#808080;}
	.st210{fill-rule:evenodd;clip-rule:evenodd;fill:#CFA605;}
	.st211{fill-rule:evenodd;clip-rule:evenodd;fill:#666666;}
	.st212{fill-rule:evenodd;clip-rule:evenodd;fill:#CCCCCC;}
	.st213{fill:#960000;}
	.st214{fill:url(#SVGID_00000121250866580538632590000016717953798324914567_);}
	.st215{fill:url(#SVGID_00000137133685655443945280000009812786154189041053_);}
	.st216{opacity:0.51;fill:url(#SVGID_00000025427871069579525250000014179650426114631870_);}
	.st217{fill:url(#SVGID_00000127737466761821213200000008634265672528954287_);}
	.st218{fill:url(#SVGID_00000152222055260228563150000017058428072766757550_);}
	.st219{fill:url(#SVGID_00000132775697492234743160000008207001294252099225_);}
	.st220{opacity:0.35;fill:url(#SVGID_00000025442996299239655340000004857106624308331175_);}
	.st221{opacity:0.35;fill:url(#SVGID_00000106108922541976815910000010511097976254092725_);}
	.st222{fill:#F06021;}
	.st223{fill-rule:evenodd;clip-rule:evenodd;fill:url(#SVGID_00000101100702668156409650000017168044914128207806_);}
	.st224{fill-rule:evenodd;clip-rule:evenodd;fill:url(#SVGID_00000094615813272995991660000004656810381246086808_);}
	.st225{fill-rule:evenodd;clip-rule:evenodd;fill:url(#SVGID_00000168837258979371360220000016077286269305908122_);}
	.st226{fill-rule:evenodd;clip-rule:evenodd;fill:url(#SVGID_00000135651452315220147370000018024822151764331706_);}
	.st227{fill-rule:evenodd;clip-rule:evenodd;fill:url(#SVGID_00000124145183805873402370000018267935900396848796_);}
	.st228{fill-rule:evenodd;clip-rule:evenodd;fill:url(#SVGID_00000079487505737527670570000006940852199214211002_);}
	.st229{fill-rule:evenodd;clip-rule:evenodd;fill:url(#SVGID_00000088854188555433627130000011501354905289527715_);}
	.st230{fill-rule:evenodd;clip-rule:evenodd;fill:url(#SVGID_00000025445292296700235450000001945934033439721353_);}
	.st231{fill-rule:evenodd;clip-rule:evenodd;fill:url(#SVGID_00000181076444934991392110000010026331394285749669_);}
	.st232{fill-rule:evenodd;clip-rule:evenodd;fill:url(#SVGID_00000066515658591451865090000000195179334999874997_);}
	.st233{fill-rule:evenodd;clip-rule:evenodd;fill:url(#SVGID_00000057126186414488147050000017382933272351044788_);}
	.st234{fill-rule:evenodd;clip-rule:evenodd;fill:url(#SVGID_00000024712711023621254480000013762977930809414801_);}
	.st235{fill-rule:evenodd;clip-rule:evenodd;fill:url(#SVGID_00000146463477806723184900000001278807102545074865_);}
	.st236{opacity:0.5;fill-rule:evenodd;clip-rule:evenodd;fill:#5D0101;enable-background:new    ;}
	.st237{fill:#E11B22;}
	.st238{fill:#959595;}
	.st239{fill:#003359;}
	.st240{fill:#1779C1;}
	.st241{fill:#0EB17C;}
	.st242{fill:#2B2353;}
	.st243{fill:#BE264E;}
	.st244{fill:#EAA41C;}
	.st245{fill:#1F9EF3;}
	.st246{fill:#0267A3;}
	.st247{fill:#FFEC00;}
	.st248{fill:#00A0E0;}
	.st249{fill:#E3007E;}
	.st250{fill:none;stroke:#000000;stroke-width:2;stroke-miterlimit:10;}
</style>
<linearGradient id="SVGID_00000003074401816034771300000001395051073629362570_" gradientUnits="userSpaceOnUse" x1="301.3045" y1="-13.4573" x2="37.6327" y2="250.2145">
	<stop  offset="0" style="stop-color:#44DCD5"/>
	<stop  offset="1" style="stop-color:#1C87AE"/>
</linearGradient>
<rect style="fill:url(#SVGID_00000003074401816034771300000001395051073629362570_);" width="347.69" height="228"/>
<g>
	<g>
		<g>
			<path class="st13" d="M163.88,94c0-4.03,2.36-7.51,5.78-9.13l-41.27,9.29v27.84h35.93l5.2-18.92
				C166.18,101.42,163.88,97.98,163.88,94z M142.07,118.84c0.05-0.06-11.24,0.26-11.24,0.26v-16.92l1.45-0.23v14.46l9.79-0.43
				C142.07,115.99,142.03,118.9,142.07,118.84z M142.33,113.37l-8.88,0.56v-0.79l8.88-0.61V113.37z M142.33,109.61l-8.88,0.8v-0.8
				l8.88-0.86V109.61z M142.33,105.84l-8.88,1.05v-0.8l8.88-1.1V105.84z M142.33,102.07l-8.88,1.29v-0.8l8.88-1.34V102.07z
				 M161.59,118.39c0.06-0.07-14.5,0.33-14.5,0.33v-19.1l1.85-0.29v16.36l12.65-0.55C161.59,115.14,161.53,118.46,161.59,118.39z
				 M161.93,112.14l-11.49,0.72v-0.9l11.49-0.79V112.14z M161.93,107.84l-11.49,1.03v-0.9l11.49-1.11V107.84z M161.93,103.54
				l-11.49,1.35v-0.9l11.49-1.42V103.54z M161.93,99.23l-11.49,1.67V100l11.49-1.74V99.23z"/>
			<path class="st13" d="M178.33,84.86c3.41,1.62,5.78,5.11,5.78,9.14c0,3.98-2.3,7.42-5.64,9.07l5.2,18.92h35.93V94.16
				L178.33,84.86z M205.67,101.23l8.88,1.34v0.8l-8.88-1.29V101.23z M205.67,104.99l8.88,1.1v0.8l-8.88-1.05V104.99z M205.67,108.75
				l8.88,0.86v0.8l-8.88-0.8V108.75z M186.07,98.26l11.49,1.74v0.9l-11.49-1.67V98.26z M186.07,102.57l11.49,1.42v0.9l-11.49-1.35
				V102.57z M186.07,106.87l11.49,1.11v0.9l-11.49-1.03V106.87z M186.07,111.17l11.49,0.79v0.9l-11.49-0.72V111.17z M200.91,118.73
				c0,0-14.56-0.4-14.5-0.33c0.06,0.07,0-3.25,0-3.25l12.65,0.55V99.33l1.85,0.29V118.73z M205.67,112.52l8.88,0.61v0.79l-8.88-0.56
				V112.52z M217.17,119.1c0,0-11.29-0.32-11.24-0.26c0.04,0.06,0-2.85,0-2.85l9.79,0.43v-14.46l1.45,0.23V119.1z"/>
		</g>
		<g>
			<polygon class="st13" points="147.2,87.47 172.7,81.7 172.7,66.83 147.2,72.6 			"/>
			<polygon class="st13" points="200.8,87.47 175.3,81.7 175.3,66.83 200.8,72.6 			"/>
		</g>
		<g>
			<g>
				<g>
					<g>
						<path class="st13" d="M125.27,132.22c0.3,0,0.45,0.15,0.45,0.45v1.93c0,0.3-0.15,0.45-0.45,0.45h-10.19
							c-0.39,0-0.67,0.1-0.83,0.3c-0.16,0.2-0.24,0.48-0.24,0.83v0.69c0,0.76,0.35,1.14,1.06,1.14h7.62c1.18,0,2.07,0.3,2.66,0.9
							c0.6,0.6,0.89,1.47,0.89,2.59v1.63c0,0.99-0.29,1.79-0.87,2.4c-0.58,0.61-1.49,0.91-2.72,0.91h-11.26
							c-0.31,0-0.47-0.15-0.47-0.45v-1.93c0-0.3,0.16-0.45,0.47-0.45h10.67c0.39,0,0.67-0.1,0.83-0.3c0.16-0.2,0.24-0.48,0.24-0.83
							v-0.83c0-0.76-0.35-1.14-1.06-1.14h-7.62c-1.18,0-2.07-0.3-2.66-0.9c-0.6-0.6-0.89-1.47-0.89-2.59v-1.48
							c0-0.99,0.29-1.79,0.87-2.4c0.58-0.61,1.49-0.91,2.72-0.91H125.27z"/>
						<path class="st13" d="M144.03,132.22c0.31,0,0.47,0.15,0.47,0.45v1.99c0,0.31-0.16,0.47-0.47,0.47h-6.38v10.88
							c0,0.3-0.15,0.45-0.45,0.45h-2.22c-0.3,0-0.45-0.15-0.45-0.45v-10.88h-6.38c-0.31,0-0.47-0.16-0.47-0.47v-1.99
							c0-0.3,0.16-0.45,0.47-0.45H144.03z"/>
						<path class="st13" d="M157.72,132.22c1.03,0,1.91,0.1,2.63,0.29c0.72,0.2,1.31,0.51,1.77,0.94c0.45,0.43,0.78,0.98,0.99,1.66
							c0.2,0.68,0.3,1.5,0.3,2.48v3.5c0,0.98-0.1,1.81-0.3,2.49c-0.2,0.68-0.53,1.24-0.99,1.67c-0.45,0.43-1.04,0.74-1.77,0.92
							c-0.73,0.19-1.6,0.28-2.63,0.28h-6.28c-1.03,0-1.9-0.09-2.62-0.28c-0.72-0.19-1.3-0.5-1.76-0.92c-0.45-0.43-0.79-0.98-1-1.67
							c-0.21-0.68-0.32-1.51-0.32-2.49v-3.5c0-0.98,0.1-1.8,0.32-2.48c0.21-0.68,0.54-1.23,1-1.66c0.45-0.43,1.04-0.74,1.76-0.94
							c0.72-0.2,1.59-0.29,2.62-0.29H157.72z M148.85,140.86c0,0.53,0.04,0.97,0.13,1.33c0.09,0.36,0.23,0.64,0.44,0.85
							c0.2,0.21,0.48,0.36,0.82,0.45c0.35,0.09,0.78,0.13,1.31,0.13h6.04c0.53,0,0.97-0.04,1.31-0.13c0.35-0.09,0.62-0.24,0.82-0.45
							c0.2-0.21,0.35-0.49,0.44-0.85c0.09-0.36,0.13-0.8,0.13-1.33v-3.05c0-0.53-0.04-0.97-0.13-1.33
							c-0.09-0.36-0.23-0.64-0.44-0.85c-0.2-0.21-0.48-0.36-0.82-0.45c-0.35-0.09-0.78-0.13-1.31-0.13h-6.04
							c-0.53,0-0.97,0.04-1.31,0.13c-0.35,0.09-0.62,0.24-0.82,0.45c-0.2,0.21-0.35,0.49-0.44,0.85c-0.09,0.36-0.13,0.8-0.13,1.33
							V140.86z"/>
						<path class="st13" d="M177.46,132.22c1.56,0,2.68,0.35,3.35,1.06c0.68,0.7,1.02,1.75,1.02,3.13v1.16
							c0,1.17-0.24,2.09-0.71,2.76c-0.47,0.68-1.25,1.11-2.32,1.3l3.48,4.31c0.07,0.07,0.09,0.17,0.06,0.3
							c-0.03,0.14-0.14,0.2-0.33,0.2h-2.62c-0.18,0-0.3-0.02-0.37-0.06c-0.07-0.04-0.14-0.11-0.2-0.2l-3.21-4.23h-6.57v4.05
							c0,0.3-0.15,0.45-0.45,0.45h-2.2c-0.31,0-0.47-0.15-0.47-0.45v-13.17c0-0.41,0.2-0.61,0.61-0.61H177.46z M169.04,139.48h7.79
							c0.69,0,1.18-0.15,1.46-0.45c0.28-0.3,0.43-0.75,0.43-1.36v-0.85c0-0.61-0.14-1.06-0.43-1.36c-0.28-0.3-0.77-0.45-1.46-0.45
							h-7.52c-0.18,0-0.26,0.08-0.26,0.24V139.48z"/>
						<path class="st13" d="M193.35,132.22c0.51,0,0.95,0.11,1.3,0.32c0.35,0.21,0.7,0.62,1.04,1.23l6.73,12.22
							c0.07,0.14,0.08,0.25,0.05,0.34c-0.03,0.09-0.13,0.13-0.29,0.13h-2.58c-0.23,0-0.39-0.09-0.47-0.26l-1.44-2.62h-9.55
							l-1.4,2.62c-0.09,0.18-0.25,0.26-0.47,0.26h-2.64c-0.18,0-0.28-0.04-0.32-0.13c-0.03-0.09-0.02-0.2,0.05-0.34l6.67-12.22
							c0.34-0.61,0.67-1.02,1-1.23c0.33-0.21,0.7-0.32,1.14-0.32H193.35z M189.41,141.21h6.99l-3.23-5.96
							c-0.05-0.09-0.13-0.14-0.22-0.14h-0.12c-0.1,0-0.17,0.05-0.22,0.14L189.41,141.21z"/>
						<path class="st13" d="M219.17,132.22c0.3,0,0.45,0.15,0.45,0.45v1.99c0,0.31-0.15,0.47-0.45,0.47h-10.18
							c-0.53,0-0.97,0.04-1.31,0.13c-0.35,0.09-0.62,0.24-0.82,0.45c-0.2,0.21-0.35,0.49-0.44,0.84c-0.09,0.35-0.13,0.8-0.13,1.34
							v2.93c0,0.54,0.04,0.99,0.13,1.35c0.09,0.36,0.23,0.64,0.44,0.85c0.2,0.21,0.48,0.36,0.82,0.45c0.35,0.09,0.78,0.13,1.31,0.13
							h6.71c0.35,0,0.61-0.09,0.77-0.27c0.16-0.18,0.24-0.5,0.24-0.97v-1.65c0-0.18-0.08-0.26-0.24-0.26h-5.96
							c-0.3,0-0.45-0.16-0.45-0.47v-1.52c0-0.31,0.15-0.47,0.45-0.47h8.48c0.41,0,0.61,0.2,0.61,0.61v4.74
							c0,1.14-0.22,1.94-0.65,2.41c-0.43,0.47-1.06,0.7-1.87,0.7h-8.21c-1.03,0-1.9-0.09-2.62-0.28c-0.72-0.19-1.3-0.5-1.76-0.92
							c-0.45-0.43-0.79-0.98-1-1.67c-0.21-0.68-0.32-1.51-0.32-2.49v-3.5c0-0.98,0.1-1.8,0.32-2.48c0.21-0.68,0.54-1.23,1-1.66
							c0.45-0.43,1.04-0.74,1.76-0.94c0.72-0.2,1.59-0.29,2.62-0.29H219.17z"/>
						<g>
							<path class="st13" d="M236.63,143.63h-8.88c-0.53,0-0.97-0.04-1.31-0.13c-0.35-0.09-0.62-0.24-0.83-0.45
								c-0.21-0.21-0.36-0.49-0.44-0.85c-0.08-0.36-0.12-0.8-0.12-1.33v-0.35h11.49c0.3,0,0.45-0.15,0.45-0.45v-1.61
								c0-0.3-0.15-0.45-0.45-0.45h-2.82h-8.67H222v3.07c0,0.98,0.1,1.81,0.32,2.49c0.21,0.68,0.54,1.24,1,1.67
								c0.45,0.43,1.04,0.74,1.76,0.93c0.72,0.19,1.59,0.28,2.62,0.28h8.94c0.31,0,0.47-0.15,0.47-0.45v-1.93
								C237.1,143.78,236.95,143.63,236.63,143.63z"/>
							<path class="st13" d="M236.63,132.22h-8.94c-1.03,0-1.9,0.1-2.62,0.29c-0.72,0.2-1.3,0.51-1.76,0.94
								c-0.45,0.43-0.79,0.98-1,1.66c-0.11,0.35-0.19,0.74-0.24,1.17h3.15c0.09-0.26,0.21-0.48,0.38-0.65
								c0.21-0.21,0.49-0.36,0.83-0.45c0.35-0.09,0.78-0.13,1.31-0.13h8.88c0.31,0,0.47-0.15,0.47-0.45v-1.93
								C237.1,132.37,236.95,132.22,236.63,132.22z"/>
						</g>
					</g>
					<text transform="matrix(1 0 0 1 124.483 155.9277)" class="st13 st15 st16">Crafting Cloudscapes</text>
				</g>
			</g>
		</g>
	</g>
</g>
</svg>
