<svg id="Layer_1" data-name="Layer 1" xmlns="http://www.w3.org/2000/svg" viewBox="0 0 300 300">
  <defs>
    <style>
      .cls-1 {
        fill: #00a651;
      }

      .cls-2 {
        fill: #007ac1;
      }
    </style>
  </defs>
  <title>1-23</title>
  <g>
    <path class="cls-1" d="M282.1,140.3C228.6,75.4,72.8,126.7,30.3,210.5c-39.7,78.3,47.2,123.7,166.9,53.3,127.3-74.8,38.4-145.3-74.8-59.3,91.9-39.4,121.9-3.5,84,33.6-25.8,25.3-84.9,47.4-123.5,35.1s-21.8-57.5,15.6-91C154.5,132.1,237.8,110.9,282.1,140.3Z"/>
    <path class="cls-2" d="M55.5,155.5c3.1-2.7,6.4-5.4,9.7-8.1h0c3.4-2.7,6.9-5.3,10.4-7.8h.1c3.5-2.6,7.2-5.1,11-7.5a254.9,254.9,0,0,1,24.5-14c6.4-3.3,13-6.3,19.6-9h.4l4.7-1.9h.2c5-2,10.1-3.7,15.2-5.2a182.5,182.5,0,0,1,24.6-5.8l4.9-.8h.8l4-.5h1.2l3.8-.4h1l4.2-.2h.5a129,129,0,0,1,19.7.5,111.4,111.4,0,0,1,29.9,7C240,91.6,230,84.3,216,80.6V1.3l-20,7c-12.3,4.2-20.1,15.7-20.1,29.2V79.2A177,177,0,0,0,156.3,83l-5,1.3V37l-20,7c-12.2,4.3-20.1,15.7-20.1,29.2V99.9a210.8,210.8,0,0,0-24.5,14.3V72.7l-20,7C54.4,84,46.5,95.4,46.5,108.9v41.6A160.3,160.3,0,0,0,17.9,202c6-12.5,15.9-25.5,28.6-38.1,2.9-2.8,5.9-5.6,9-8.3Z"/>
  </g>
</svg>
