<svg id="Layer_2" data-name="Layer 2" xmlns="http://www.w3.org/2000/svg" viewBox="0 0 300 300">
  <defs>
    <style>
      .cls-1 {
        fill: #22356c;
      }

      .cls-2 {
        fill: #085daa;
      }
    </style>
  </defs>
  <title>1-17</title>
  <g>
    <polygon class="cls-1" points="39.3 295.8 297.9 295.8 250.5 251.5 39.3 295.8"/>
    <path class="cls-2" d="M250.8,251.4V20.5l47.1,275.3-47.4-44.3ZM247.3,0V248.6L2.1,300ZM78.8,278.5,197,130l11.6,10.3,10.5-52.7-49.3,18.2,13.4,11.9L49.7,282.7Zm142.8-70.8-37.8,19.8,10.7,5.5-21.4,24,21.4-4.2,9.9-12.6,11.3,5.9Zm0-54.3L176.1,174l11.8,8.9L118,268.8l24.4-5.5L201,190l12.6,9.7Z"/>
  </g>
</svg>
