<svg xmlns="http://www.w3.org/2000/svg" xmlns:xlink="http://www.w3.org/1999/xlink" viewBox="0 0 300 300">
  <defs>
    <style>
      .cls-1 {
        isolation: isolate;
      }

      .cls-2 {
        fill: #05beda;
      }

      .cls-3 {
        fill: url(#linear-gradient);
      }

      .cls-4 {
        fill: url(#linear-gradient-2);
      }

      .cls-5, .cls-6, .cls-9 {
        mix-blend-mode: overlay;
      }

      .cls-5 {
        fill: url(#linear-gradient-3);
      }

      .cls-6 {
        fill: #3875ba;
      }

      .cls-7 {
        fill: url(#linear-gradient-4);
      }

      .cls-8 {
        fill: url(#linear-gradient-5);
      }

      .cls-9 {
        fill: #ec8c23;
      }

      .cls-10 {
        fill: url(#linear-gradient-6);
      }

      .cls-11 {
        fill: #1b75bc;
        opacity: 0.5;
      }
    </style>
    <linearGradient id="linear-gradient" x1="75.6" y1="116.19" x2="75.63" y2="116.23" gradientUnits="userSpaceOnUse">
      <stop offset="0" stop-color="#3fc1c6"/>
      <stop offset="1" stop-color="#3b54a5"/>
    </linearGradient>
    <linearGradient id="linear-gradient-2" x1="235.7" y1="156.16" x2="120.41" y2="270.77" xlink:href="#linear-gradient"/>
    <linearGradient id="linear-gradient-3" x1="164.61" y1="157.07" x2="163.41" y2="158.26" xlink:href="#linear-gradient"/>
    <linearGradient id="linear-gradient-4" x1="153.92" y1="271.97" x2="153.92" y2="271.97" gradientUnits="userSpaceOnUse">
      <stop offset="0" stop-color="#f4bd1e"/>
      <stop offset="1" stop-color="#d56827"/>
    </linearGradient>
    <linearGradient id="linear-gradient-5" x1="230.04" y1="245.14" x2="210.89" y2="229.93" gradientUnits="userSpaceOnUse">
      <stop offset="0" stop-color="#d56827"/>
      <stop offset="1" stop-color="#f4bd1e"/>
    </linearGradient>
    <linearGradient id="linear-gradient-6" x1="75.63" y1="116.17" x2="75.65" y2="116.2" xlink:href="#linear-gradient"/>
  </defs>
  <title>1-20</title>
  <g class="cls-1">
    <g id="Layer_1" data-name="Layer 1">
      <g>
        <path class="cls-2" d="M154.9,104.2a6,6,0,0,0-9.8,1.6L144,108l-2.5,5.2-2,4-28.6,59v.2l-31,63.8-5.5,11.3A36.1,36.1,0,0,1,41.7,272H0l24.4-50.2,45.4-93.6v-.4h0l5.5-11.4c0-.1,0-.1.1-.1h0C116,54.8,148.9,95.6,154.9,104.2Z"/>
        <path class="cls-3" d="M75.6,116.2h0Z"/>
        <path class="cls-4" d="M148.2,265.2c-12.5-54.7,23.3-81.8,93-89.7C143.7,192.9,144.6,246.2,148.2,265.2Z"/>
        <g>
          <path class="cls-5" d="M163.9,158.4l.3-1.6Z"/>
          <path class="cls-6" d="M235.9,92.9h-1.2l-2.6.2a110.5,110.5,0,0,0-16.2,2.4L187.7,49.8a46.7,46.7,0,0,0-81.9,4.3L75.6,116.3c40.4-61.5,73.3-20.7,79.3-12.1a3.8,3.8,0,0,1,.9,1.3.3.3,0,0,1,.1.2l14.4,29.2a96.4,96.4,0,0,0-6.1,21.9c.2-.9.4-2.1.8-3.6-.4,1.7-.8,3.5-1.1,5.2,14.9-37.3,38.8-61.1,82.9-55.3l-5.6,72.4c-69.7,7.9-105.5,35-93,89.7,0,.1.1.2.1.3.5,2.2,1,4.3,1.7,6.5-10.3-54.9,29.5-80.2,105.7-83.8l3.2-94.5A146.6,146.6,0,0,0,235.9,92.9Z"/>
        </g>
        <path class="cls-7" d="M153.9,272.2v0Z"/>
        <path class="cls-8" d="M226,251.4l-14.7-30.6h.1Z"/>
        <path class="cls-9" d="M300,272H258.7A36.4,36.4,0,0,1,226,251.4l-14.8-30.7h0c-34.8,4.5-53.3,22.3-57.3,51.9v-.7c-.8-59.9,47.5-69.4,110.4-64l3-83.5,13,2.2-2.9,97.8,14.4,30.4ZM208.9,140.6c-4.7-.6-9.1-1.2-10.6-3.9a5.4,5.4,0,0,1-.5-2.1c0-4.8,5.2-6.5,10.8-6.5s9.7,2.3,11.5,5.2l7.3-3.4c-3.1-6.3-8.3-8.5-14.1-9.4v-6h-8.7v6c-7.8,1-15.7,5.1-15.7,14.1,0,11.4,9.5,13.1,19.2,14.2,4.3.5,8.3,1.4,10.4,3.4a8.6,8.6,0,0,1,1.6,3.5c0,5.4-5.7,7.5-11.8,7.5s-11.7-2.8-13.5-7.2l-8,3.4c3.2,7.5,10.2,11.1,17.8,11.7v6.5h8.7v-6.8c8.4-.6,16.1-5.8,16.1-15.1C229.4,143.6,218.8,141.8,208.9,140.6Z"/>
        <path class="cls-10" d="M75.6,116.2h0Z"/>
        <path class="cls-11" d="M154.9,104.2a6,6,0,0,0-9.8,1.6l-3.6,7.4c-33.4-34.5-64.6,1.5-65.9,3C116,54.8,148.9,95.6,154.9,104.2Z"/>
      </g>
    </g>
  </g>
</svg>
