<svg id="Layer_1" data-name="Layer 1" xmlns="http://www.w3.org/2000/svg" viewBox="0 0 300 300">
  <defs>
    <style>
      .cls-1 {
        fill: #f4bd1e;
      }

      .cls-2 {
        fill: #2d4c8e;
      }
    </style>
  </defs>
  <title>1-22</title>
  <g>
    <path class="cls-1" d="M190.2,23V177.7c-12.8,8.5-25.5,16.2-37.7,22.9V72.5a38,38,0,0,1,13.6-29.1ZM119.5,82.5A38.1,38.1,0,0,0,106,111.7V222.2a351.5,351.5,0,0,0,37.7-16.9V62.2ZM73,121.7a38,38,0,0,0-13.6,29.1v81.8c10.8-.1,23.6-2.7,37.8-7.3v-124Z"/>
    <path class="cls-2" d="M300,95.4c-19.8,29.6-48,61.5-82.4,91.5-9.1,7.9-18.2,15.3-27.3,22.3-12.7,9.7-25.4,18.4-37.8,26.2l-8.8,5.4A351,351,0,0,1,106,260.4l-8.8,3.7c-13.6,5.4-26.3,9.3-37.8,11.2-23,4-41,.9-51.1-10.7-21-24.1-.9-78.1,45.9-135.2-29.3,43.4-40.2,80-25.1,97.7,6.4,7.5,16.8,10.9,30.3,10.8,10.8-.1,23.6-2.5,37.8-7.1l8.8-3a318.4,318.4,0,0,0,37.7-16.6l8.8-4.6q18.3-9.9,37.8-22.5a701.4,701.4,0,0,0,70.4-52.8C274.6,119.5,287.8,107.4,300,95.4ZM190.3,172.8c-12.9,6.9-25.6,13.1-37.8,18.4l-8.8,3.8A322,322,0,0,1,106,208.1l-8.8,2.2c-14.6,3.3-27.5,4.5-37.8,3.2-18.4-2.3-28.7-12.6-26.3-32.9h-.3c-6.9,19.4-7,34.5.3,43q7.6,9,25.5,9h.8c10.8-.1,23.6-2.7,37.8-7.3l8.8-3.1a351.5,351.5,0,0,0,37.7-16.9l8.8-4.7c12.2-6.7,24.9-14.4,37.8-22.9s26.3-18,39.5-28.2Q210,162.1,190.3,172.8Z"/>
  </g>
</svg>
