<svg id="Layer_1" data-name="Layer 1" xmlns="http://www.w3.org/2000/svg" viewBox="0 0 300 300">
  <defs>
    <style>
      .cls-1 {
        fill: #00b1f0;
      }

      .cls-2 {
        fill: #231f20;
      }

      .cls-3 {
        fill: #ee2724;
      }
    </style>
  </defs>
  <title>1-01</title>
  <g>
    <g>
      <path class="cls-1" d="M102.4,32.7H10.9a7.8,7.8,0,0,0-7.7,7.7v92.5a7.8,7.8,0,0,0,7.7,7.8h91.5a7.7,7.7,0,0,0,7.6-7.8V40.4A7.7,7.7,0,0,0,102.4,32.7ZM78.1,93.2h-15v15.2H50.2V93.2h-15v-13h15V65H63.1V80.2h15Z"/>
      <path class="cls-1" d="M102.4,159.3H10.9a7.8,7.8,0,0,0-7.7,7.8v92.5a7.8,7.8,0,0,0,7.7,7.7h91.5a7.7,7.7,0,0,0,7.6-7.7V167.1A7.7,7.7,0,0,0,102.4,159.3ZM56.6,184.4a6.5,6.5,0,1,1-6.4,6.5A6.5,6.5,0,0,1,56.6,184.4Zm0,57.8a6.5,6.5,0,1,1,6.5-6.5A6.5,6.5,0,0,1,56.6,242.2Zm21.5-22.4H35.2v-13H78.1Z"/>
      <path class="cls-1" d="M227.9,32.7H136.4a7.7,7.7,0,0,0-7.6,7.7v92.5a7.7,7.7,0,0,0,7.6,7.8h91.5a7.8,7.8,0,0,0,7.7-7.8V40.4A7.8,7.8,0,0,0,227.9,32.7Zm-26,64.7-9.1,9.3L182.2,95.9l-10.7,10.8-9.1-9.3L173,86.7,162.4,75.9l9.1-9.2,10.7,10.8,10.6-10.8,9.1,9.2L191.3,86.7Z"/>
    </g>
    <path class="cls-2" d="M264.1,143.7c-5.9,2.9-11.4,6.5-17.1,9.8l-8.2,5.5-4.1,2.9-3.9,3a234.2,234.2,0,0,0-29.9,26.5c-2.4,2.4-4.6,4.9-6.9,7.4l-6.6,7.7c-1,1.3-2.1,2.5-3.1,3.9a123.4,123.4,0,0,0-13.8-9.7c-4.7-2.8-9.5-5.3-14.3-7.6a141,141,0,0,0-14.6-6.1,142.4,142.4,0,0,1,10.9,11.1,134.1,134.1,0,0,1,9.7,12,99,99,0,0,1,7.9,12.4,53.5,53.5,0,0,1,4.8,12.4h22l.8-1.8.9-2c.7-1.3,1.3-2.7,2.1-4s2.9-5.4,4.4-8.1l4.8-7.9c1.8-2.6,3.4-5.3,5.2-7.8a228.9,228.9,0,0,1,23.8-29.1l3.3-3.5,3.4-3.3,6.9-6.5c4.9-4,9.6-8.3,14.9-11.9,10-7.9,21.2-14.2,32.6-20.3C287.8,132.9,275.6,137.5,264.1,143.7Z"/>
    <path class="cls-3" d="M215.1,203.4c-1.8,2.5-3.4,5.2-5.2,7.8l-4.8,7.9c-1.5,2.7-3.1,5.4-4.4,8.1s-1.4,2.7-2.1,4l-.9,2-.8,1.8h-22a53.5,53.5,0,0,0-4.8-12.4,99,99,0,0,0-7.9-12.4,134.1,134.1,0,0,0-9.7-12A142.4,142.4,0,0,0,141.6,187a141,141,0,0,1,14.6,6.1c4.8,2.3,9.6,4.8,14.3,7.6a123.4,123.4,0,0,1,13.8,9.7c1-1.4,2.1-2.6,3.1-3.9l6.6-7.7c2.3-2.5,4.5-5,6.9-7.4a234.2,234.2,0,0,1,29.9-26.5l3.2-2.5a7.8,7.8,0,0,0-6.1-3.1H136.4a7.7,7.7,0,0,0-7.6,7.8v92.5a7.7,7.7,0,0,0,7.6,7.7h91.5a7.8,7.8,0,0,0,7.7-7.7V177.9A235.9,235.9,0,0,0,215.1,203.4Z"/>
  </g>
</svg>
