<svg id="Layer_1" data-name="Layer 1" xmlns="http://www.w3.org/2000/svg" viewBox="0 0 300 300">
  <defs>
    <style>
      .cls-1 {
        fill: #1474bb;
      }

      .cls-1, .cls-2 {
        fill-rule: evenodd;
      }

      .cls-2 {
        fill: #8bc43f;
      }
    </style>
  </defs>
  <title>1-27</title>
  <g>
    <path class="cls-1" d="M147.8,2.3a145.6,145.6,0,0,1,112.4,53,133.7,133.7,0,0,0-96.4-41C94,14.3,36.6,68.1,30,136.9L2.2,164.7A141.7,141.7,0,0,1,1.4,150C1.4,68.4,67,2.3,147.8,2.3ZM39.3,201.3c20,49.5,68.2,84.4,124.5,84.4a133.7,133.7,0,0,0,96.4-41,145.8,145.8,0,0,1-112.4,53C82.9,297.7,27.8,255,8.7,196a238.5,238.5,0,0,1,30.6,5.3Zm215.2-25.7c-12.2,60.9-149,119.7-124.4,66.3l16.5,8.9s-19.7-24.4-47.5-25.6l20.6,11.1c-37.2,43.9,80.6,84.5,165.2-40.4l.7.5L300,208l-8.4-71.7-52.5,33.9,15.4,5.4Z"/>
    <path class="cls-2" d="M162.7,25.9a124.3,124.3,0,0,1,122,101l-21.1,13.6a114,114,0,0,0-200.9-64,123.9,123.9,0,0,1,100-50.6Zm48.8,57.9-96.8-6.1q50.6,69,51.2,152.6c6.6-44.2,6.1-88.2-16.5-131.6l56.4.3c15.7,18.1,22.3,47.8,25.8,81.4,5.5-36.2-2-68.1-20.1-96.6Zm-124.4,39,32.3-16.2-10-14.3L44.8,116.4c45.3,27.4,80.9,68.1,110.9,116.7C142,191,122,152.6,87.1,122.8ZM64.6,145.9,48.4,135,0,183.4c50.4,3.8,99,21.2,145.3,54.2-28.1-33-62-55.7-101.4-68.5l20.7-23.2Zm152,13.1a12.8,12.8,0,0,1-.4,5.2,10.7,10.7,0,0,1-2.5,4.4,14.3,14.3,0,0,1-4.2,3.4,24,24,0,0,1-5.7,2.1l.8,6.8-5.9.7-.9-6.8a38,38,0,0,1-8.9-1.1,32.4,32.4,0,0,1-8.1-3.6l3.6-6.8a31.2,31.2,0,0,0,6.3,3.2,22.7,22.7,0,0,0,6.5,1.2l-1.8-13.4a35.7,35.7,0,0,1-6.7-1.4,16.5,16.5,0,0,1-5-2.3,11.9,11.9,0,0,1-3.2-3.5,12.8,12.8,0,0,1-1.5-5,11.3,11.3,0,0,1,.4-5.2,10.1,10.1,0,0,1,2.4-4.4,14,14,0,0,1,4.2-3.3,21.7,21.7,0,0,1,5.6-2.1l-.5-3.9,6-.8.5,4.1a27.1,27.1,0,0,1,13.5,3.5l-3,6.9a22.9,22.9,0,0,0-9.8-3.1l1.6,12.9q8.1,1.1,12,3.9c2.7,1.9,4.2,4.7,4.7,8.4Zm-22.2-13-1.6-12a7.6,7.6,0,0,0-4.7,2.5,5.5,5.5,0,0,0-1.1,4.1,5.7,5.7,0,0,0,1.8,3.5c.9.8,2.8,1.5,5.6,1.9Zm14.2,14.5a6.5,6.5,0,0,0-.6-2.1,4.5,4.5,0,0,0-1.3-1.5,6.2,6.2,0,0,0-2.3-1.2,19,19,0,0,0-3.4-.8l1.6,12.3a8.2,8.2,0,0,0,4.8-2.5,5.3,5.3,0,0,0,1.2-4.2Z"/>
  </g>
</svg>
