<svg id="Layer_1" data-name="Layer 1" xmlns="http://www.w3.org/2000/svg" xmlns:xlink="http://www.w3.org/1999/xlink" viewBox="0 0 300 300">
  <defs>
    <style>
      .cls-1 {
        fill: url(#Degradado_sin_nombre_4);
      }

      .cls-2 {
        fill: #fba91e;
      }

      .cls-3 {
        fill: #3d66b0;
      }
    </style>
    <linearGradient id="Degradado_sin_nombre_4" data-name="Degradado sin nombre 4" x1="150.87" y1="322.49" x2="150.87" y2="164.39" gradientUnits="userSpaceOnUse">
      <stop offset="0" stop-color="#f0522b"/>
      <stop offset="1" stop-color="#f26654"/>
    </linearGradient>
  </defs>
  <title>1-28</title>
  <g>
    <path class="cls-1" d="M106.9,235.1v28.2a120.9,120.9,0,0,1-44.5-29.5V204.4l6.9-6.9Zm21.7,10.8v23.5a123.7,123.7,0,0,0,23.7,1.8,119.3,119.3,0,0,0,20.8-2.2V201.4Zm91.9-91.8-25.6,25.5v83a123.2,123.2,0,0,0,44.4-30.8V172.9Z"/>
    <g>
      <path class="cls-2" d="M277.3,229.3A149.6,149.6,0,0,0,300,147.9C298.9,66.8,232.5.7,151.4,0A150,150,0,0,0,0,151.4C.7,232.5,66.8,298.9,148,300a149.4,149.4,0,0,0,81.4-22.7C253.4,265.1,277.3,229.3,277.3,229.3Zm-125,41.9A121.2,121.2,0,0,1,28.8,147.7C30,82.9,82.9,30,147.7,28.8A121.2,121.2,0,0,1,271.2,152.3C270,217.1,217.1,270,152.3,271.2Z"/>
      <path class="cls-3" d="M239.5,68.1,178,83.1l24.6,24.6-79.4,79.5L69.3,133.3,30.7,171.9a125.4,125.4,0,0,0,8.4,27.3L69.3,169l53.9,53.8,97.3-97.3,24.6,24.6,13.2-54.5,8.3-34.1Z"/>
    </g>
  </g>
</svg>
