<svg id="Layer_1" data-name="Layer 1" xmlns="http://www.w3.org/2000/svg" viewBox="0 0 300 300">
  <defs>
    <style>
      .cls-1 {
        fill: #629a41;
      }
    </style>
  </defs>
  <title>1-26</title>
  <path class="cls-1" d="M212.3,219.4c0,7.7.4,15.2-.1,22.6-.7,10-9.4,17.2-20.3,17.2H74.9c-6.8.1-12.5-1.8-16.6-7.6a47.7,47.7,0,0,1-2.5-4.3l.4-.4c3.2-2.4,5.7-1.8,8.6,1s5,2.7,7.6,4.1c.9-2.5.3-3.4-1.5-4.4s-4.4-2.9-6.9-4.6c5.1-3.8,4.2-8.6,3.6-13.3-.1-.6,0-1.5.3-1.7,3.9-2.8,4.8-6.8,4.1-11.1s-1.4-8.9-.4-13.6c.6-2.9-.1-6.2-.8-9.2a11.8,11.8,0,0,0-6.5-7.8,3.6,3.6,0,0,1-2.2-4c.1-2.2,0-4.4,0-6.8l-2.7-.2v8l-4.2-1.3a17.7,17.7,0,0,1-.1-2.3c0-10.1-.1-20.2,0-30.3a30.7,30.7,0,0,1,1-7.4c2.1-7.5,7.8-12,15.4-12h49c24.3,0,48.6.3,72.9-.1,10.3-.1,19.3,7.7,19,19.3-.2,7.1,0,14.2,0,21.5h-8.8v-6.8h-2.7v6.9h-3.6c-7.4,0-14.8-.1-22.2.2-13.3.6-23,11.4-22.6,24.9s10.7,23.3,23,23.6,22,0,33,.1Zm-85.6-44.6a6.7,6.7,0,0,0,7-7,7.2,7.2,0,0,0-7.1-7.2,7.1,7.1,0,0,0-6.9,7.1A6.9,6.9,0,0,0,126.7,174.8Zm-.2,6.4a6.6,6.6,0,0,0-6.8,6.9,7,7,0,0,0,7.1,7.2,7.1,7.1,0,1,0-.3-14.1Zm-6.8,27.4a7.1,7.1,0,0,0,6.9,7.3,6.8,6.8,0,0,0,7.1-6.7,7.1,7.1,0,0,0-7-7.4A6.8,6.8,0,0,0,119.7,208.6Zm-17.3-27.4a6.7,6.7,0,0,0-6.9,6.6c0,4.2,3,7.5,6.9,7.5a6.7,6.7,0,0,0,7-7A7,7,0,0,0,102.4,181.2Zm-.3-20.5a7,7,0,0,0,.5,14,6.6,6.6,0,0,0,6.7-7A7.1,7.1,0,0,0,102.1,160.7Zm7.2,48.5c0-4.3-3-7.4-7-7.4a6.8,6.8,0,0,0-6.7,6.8,7,7,0,0,0,6.9,7.3A6.7,6.7,0,0,0,109.3,209.2Zm91.5-58.6c.4-.7,1.6-1.7,1.4-2.3-1.4-4.1-3.6-7.6-7.8-9.7l-.9,2.4Zm-.8,89.1c-1.5,1.8-2.9,3.4-4.1,5.1a3.2,3.2,0,0,0,.2,2.3c.1.2,1.5.4,1.7.1,1.7-2,3.3-4,5.1-6.4Zm.9-9.6,2.6-.2v-7.6l-2.6-.2ZM107.8,139H112c2.3.1,2.7-1,2.1-3C107.2,135.4,106.8,135.7,107.8,139ZM61.9,171.4v-7.9l-2.4.2v7.7Zm28.8-35.6a46.4,46.4,0,0,0-5.3.1c-.5,0-1.2.9-1.3,1.5a2,2,0,0,0,1.2,1.5h5.4Zm5.2,3.2a47.3,47.3,0,0,0,5.4-.1c.6-.1,1.1-1.1,1.3-1.8s-.7-1.2-1.2-1.2a50,50,0,0,0-5.5-.1Zm-22.6.2,6.8-.5c-.1-1.1-.2-2-.2-3l-7.2.5C73,137.3,73.1,138.2,73.3,139.2ZM59.5,152v8.4c1.2-.9,2.4-1.4,2.5-2a59,59,0,0,0,.1-6Zm60-13.2a47.7,47.7,0,0,0,5.4-.1c.5,0,1.3-.9,1.3-1.4a2,2,0,0,0-1.3-1.4c-1.2-.2-2.5.1-3.7,0S119,136.9,119.5,138.8Zm83.8,21v-7.3c-2.7.1-2.7.1-2.6,4.7C200.8,158.6,200.3,160.6,203.3,159.8Zm-9.5,86.7a33.2,33.2,0,0,1-3.2,1.2c-2.4.6-2.4,1.9-1.5,4l6.4-2.2C194.8,248.3,194.3,247.5,193.8,246.5ZM63.1,142.7a35.9,35.9,0,0,0-2.2,4.4,2.4,2.4,0,0,0,.3,2.2,1.5,1.5,0,0,0,2.5-.7c.5-1.4,1.2-2.6,1.8-3.9Zm7.2-5.5-3.6,2.3c-2.2,1.6-2.2,2,.1,4l4.7-3.3C71.1,139.3,70.8,138.5,70.3,137.2Zm96,114.3h6.4v-2.7h-6.4Zm18.2,0c0-1.1-.1-2-.1-2.8h-6.6v2.8Zm-.3-115.8-6.5.3v2.5h6.7C184.3,137.5,184.3,136.7,184.2,135.7Zm-18.1,2.9h6.5V136h-6.5ZM138.3,248.7h-6.4v2.8h6.4Zm-10.9,2.8c-.6-1.3-1-2.8-1.5-2.8a35.7,35.7,0,0,0-5.7-.1c0,1.2.1,2,.1,2.9Zm22.2,0,.7-.7c-.5-.7-.9-2-1.5-2.1a32.5,32.5,0,0,0-5.4-.2v3Zm11.8-2.8h-6.6c0,1.1.1,1.9.1,2.9h5.3l1.2-.2Zm-68.9.1-1-.2a13.8,13.8,0,0,0-2.9-.1c-2.7,0-2.8.2-2.2,2.9h6.3C92.6,250.4,92.6,249.6,92.5,248.8ZM131.4,136v2.6h6.7c0-1-.1-1.8-.1-2.6Zm29.8-.2h-4.4c-2.2-.1-2.7.9-2,2.8h6.6A24.6,24.6,0,0,1,161.2,135.8ZM108.7,251.4h6.7c-.1-1-.1-1.9-.2-2.8H109ZM149.6,136H143c.1,1.1.1,1.8.2,2.7h6.4ZM103.8,248.8H97.4l.2,2.6H104C103.9,250.5,103.9,249.7,103.8,248.8Zm-27.7-.2c.1,1.2.2,2,.2,2.9h5.1v-2.9ZM191.7,137.1a7.2,7.2,0,0,0-2.5-.8,15.7,15.7,0,0,0-2.8.6,12.8,12.8,0,0,0,1.7,2.2,8.4,8.4,0,0,0,2.3,1.2C190.9,139.1,191.3,138.2,191.7,137.1Zm9.3,96.1c-.8,4.6-.6,5.2,2,5C203.9,233.7,203.7,233.1,201,233.2Zm51.4-173c20.9.1,37.9,17.6,37.8,38.9s-17.5,39.2-38.7,39.1-38-17.7-38-39.1A38.8,38.8,0,0,1,252.4,60.2Zm30.4,39.1c0-17.4-13.8-31.6-30.6-31.5A31,31,0,0,0,221,99c.1,17.1,14.2,31.7,30.7,31.7S282.8,116.3,282.8,99.3Zm-88,112.5c-6.1,0-12.2.2-18.3-.1a17,17,0,0,1-14.7-24.6c2.8-5.4,7.3-8.7,13.3-8.8,12.7-.2,25.4-.1,38.1,0,2.7,0,4.3,1.6,4.3,4.4q.1,12.6,0,25.2c0,2.7-1.3,3.9-4.4,3.9Zm-28.4-17.5a7.7,7.7,0,0,0,7.5,7.7,7.2,7.2,0,0,0,7.1-7.3,7.6,7.6,0,0,0-7.4-7.7A7.5,7.5,0,0,0,166.4,194.3ZM75.6,124.9a16.1,16.1,0,0,1,12.5-5.8h21.5c2,0,2.7-.7,2.5-2.7a24.4,24.4,0,0,1,.1-2.7c.3-6,3.5-9.2,9.5-9.3,9.8,0,19.6.2,29.4-.1,5.7-.1,9.1,3.4,9.5,9.3.1,1.7,0,3.4,0,5.5h23.1a15.5,15.5,0,0,1,12.3,5.8Zm43.7-5.9h32.9a1.7,1.7,0,0,0,1.2-.6c1.4-2.5-.7-6.5-3.7-6.6-9-.1-17.9,0-26.9,0a3.3,3.3,0,0,0-3.4,2.9A20.4,20.4,0,0,0,119.3,119Zm57.8-78.2c15.9-.1,28.4,12.6,28.5,28.8s-12.4,29-28.5,29-28.5-12.8-28.6-28.9S160.8,40.9,177.1,40.8Zm22.3,28.9c0-12.2-10.2-22.8-22.1-22.9S155,57,155,69.9s10.1,22.2,21.8,22.3A22.5,22.5,0,0,0,199.4,69.7ZM41.9,186.9c-10.1,0-18.6,1.7-24.9,4.9-2,1-4.6,2-4.4,4.6s2.8,3.7,5,4.4a57.3,57.3,0,0,0,38.1-1.3,27.7,27.7,0,0,0,6.4-3.8c1.8-1.3,1.7-3-.1-4.4a10.2,10.2,0,0,0-4.2-2.3c-5.3-1.1-10.6-1.8-15.8-2.7Zm23.4,26.6a65.6,65.6,0,0,1,.5,7.3,4.6,4.6,0,0,1-1.5,3,46.1,46.1,0,0,1-8.5,4.5A63,63,0,0,1,18.6,230a20.3,20.3,0,0,1-3.9-1.4c-2.4-1.1-4.7-2.2-3.7-5.8.5-1.9.1-4,.1-6.1,8.7,4.4,18,4.9,27.5,4.4S57,218.9,65.3,213.5Zm-46.3,8c-1,4.7-.5,6.7,2,7C21.9,223.1,21.5,221.7,19,221.5Zm11.3,8v-6.6c-2.3-.4-2.3-.4-2.4,1.2C27.5,228.1,28,229.3,30.3,229.5Zm17.5-8.7,1.9,5,.7-.3C51,222.6,50.5,221.4,47.8,220.8ZM10.7,201.5c12.9,8.7,40.3,7.1,54.4-3.1.2,2.6.5,5.2.5,7.8a3.3,3.3,0,0,1-1.1,2.2c-1.8,1.4-3.5,3.1-5.5,3.9-14.1,5.7-28.4,6.8-42.9,2l-2.2-1.1c-2.4-1.2-3.9-2.8-3.3-5.9S10.7,203.6,10.7,201.5Zm10,12.7c-.2-2.5-.2-4.6-.5-6.6-.1-.4-1.4-.6-2.7-1.1C18.5,209.4,16.2,212.6,20.7,214.2Zm9.2.7a46.9,46.9,0,0,0-.1-5.3c0-.5-.9-.9-1.4-1.4s-1.1,1-1.2,1.6a16.1,16.1,0,0,0,0,3.1C27.2,214.6,28,215.3,29.9,214.9Zm19.2-8.3-.8.2c-.7,1.8,0,3.1,2,4Zm250.5,35.1v-6.3H221.5v6.3ZM7.2,229.1c5.2,4.6,11.4,5.8,17.6,6.2s13.5.2,20.2.2c.4,1.5.8,3.1,1.3,4.8l1-.2c-.2-1.6-.5-3.2-.8-4.8l15.1-4.7c.1,1.9.5,3.9.1,5.8a5.9,5.9,0,0,1-2.6,3.4,38.6,38.6,0,0,1-17,5.7c-9,.8-18,.8-26.8-1.9a28.5,28.5,0,0,1-3.1-1.2c-3.5-1.6-5.7-3.8-5-8.1A30,30,0,0,0,7.2,229.1Zm8,6.2c-.8,5.5-.3,6.9,2.5,6.6C18.3,235.9,18.3,235.7,15.2,235.3Zm9.6,1.7c-.9,5.3-.4,6.5,2.1,6.1C27.6,237.7,27.3,236.8,24.8,237Zm249-67.1,3.7,9.5h.6c2.1-8.9,4.2-17.8,6.4-27.3l-25.1,11.6.2.7,8.9,1.9c-11.4,14.5-26.1,24.6-39.8,36C245.7,194.4,260.5,183.2,273.8,169.9Zm-3.2,22.3h-9v38.6h9ZM77,100.9a38,38,0,0,0-5.8-9.1c-2-2.3-4.3-2.3-6.2,0a32.5,32.5,0,0,0-5.8,8.9c-2.7,6.7,1.7,13.4,8.5,13.5S79.8,107.7,77,100.9ZM289,230.8V199.5h-9v31.3Zm-37.3-23.6h-9.1v23.6h9.1ZM116.6,62.7c4.4.1,8.6-3.8,8.7-7.9a8.6,8.6,0,0,0-8.2-8.5,8.2,8.2,0,0,0-8.2,8.1C108.9,58.9,112.4,62.7,116.6,62.7ZM1.2,146a7.7,7.7,0,0,0,7.7,8c4,.1,7.9-3.7,7.9-7.6s-3.7-8.1-7.8-8.1A8,8,0,0,0,1.2,146Zm222.1,84.7h9.2V215.5h-9.2ZM101.1,83.8c0,2.9,1.7,4.8,4.3,4.9a4.8,4.8,0,0,0,5.1-4.7,4.4,4.4,0,0,0-4.5-4.7A4.5,4.5,0,0,0,101.1,83.8Zm195.1,52.4a3.7,3.7,0,0,0-3.7,3.9,3.4,3.4,0,0,0,3.8,3.5,3.9,3.9,0,0,0,3.8-3.9A3.8,3.8,0,0,0,296.2,136.2Zm-44.7-8.8c-14.6,0-27.4-13.1-27.4-28.4a28.1,28.1,0,0,1,28.3-28.2c14.9,0,27.3,12.8,27.4,28.3S267.1,127.3,251.5,127.4Zm-2.6-46.2-1.5.3a10.5,10.5,0,0,0-7.9,10c-.3,4,2,7.2,6.5,9.2,1.1.5,2.3.8,3.4,1.2s3.6.8,5,1.8a4.4,4.4,0,0,1,2.1,3.3,5,5,0,0,1-2.8,3.2c-1.3.4-3.1-.1-4.6-.6a16.2,16.2,0,0,1-3.4-2.6c-1.8-1.3-3.6-2.3-6.2-2a20.4,20.4,0,0,1,0,3.5c-.6,3.6,1.1,5.6,4.1,6.8a7.6,7.6,0,0,0,1.6.6c3,.4,4.8,1.7,4,5.1l.2.3h5.5q.2-2.4.3-4.2a35.2,35.2,0,0,0,5.2-1.8c3.6-1.6,5.2-4.6,5.4-8.5a8.2,8.2,0,0,0-4.7-8.1c-1.6-.8-3.2-1.4-4.9-2.1s-3.2-1-4.7-1.7-3.2-2.3-2.7-4.4a5.5,5.5,0,0,1,2.7-3.1,4.1,4.1,0,0,1,5.3,2.1c.5.8,1.1,1.9,1.8,2a29.5,29.5,0,0,0,5.2.1,22.3,22.3,0,0,1,.2-3.7c.4-2.3-.6-3.7-2.6-4.6l-6.3-2.8c-.1-1.4-.3-2.8-.4-4.2C249.5,76.1,249.5,76.1,248.9,81.2ZM177,49.6c11.2-.1,19.8,8.6,19.9,20.1a19.7,19.7,0,0,1-19.6,19.8c-10.8.1-19.9-8.7-19.9-19.3S165.8,49.7,177,49.6Zm2.6,32.3.5.4c2-1.5,4.6-2.5,6-4.4,2.6-3.8.4-8.2-4.6-10.1-1.7-.7-3.6-1.1-5-2.2a3.7,3.7,0,0,1-1.1-3.2c.3-.7,2-1.2,3-1.2a3.3,3.3,0,0,1,2.3,1.5c1.2,2.1,2.9,1,4.3.8s.6-1.9.5-2.9-1.7-3-3.3-3.3-3.7-1.2-3.1-3.9h-3.8c1.1,3-1,3.6-3,4.4s-4,3.6-4,6.7,1.8,4.6,4.2,5.7,3,1.1,4.5,1.7,3.7,1,3.1,3.5-2.4,1.9-4.9.8l-3.4-1.8-2.1-1.1c-1.9,5.6-1.1,6.8,5.7,8.5,0,.9.1,1.9.1,2.9h3.9A24.6,24.6,0,0,1,179.6,81.9Z"/>
</svg>
