<svg id="Layer_1" data-name="Layer 1" xmlns="http://www.w3.org/2000/svg" viewBox="0 0 300 300">
  <defs>
    <style>
      .cls-1 {
        fill: #aed136;
      }

      .cls-2 {
        fill: #2c296a;
      }

      .cls-3 {
        fill: #e6e7e7;
      }
    </style>
  </defs>
  <title>1-06</title>
  <g>
    <path class="cls-1" d="M102.4,98.2v21.3l-8.9-3.9h2.2c-.3-2.8-3.2-4.9-6-4.9a6.1,6.1,0,0,0-6.1,6.1,4.8,4.8,0,0,0,.3,1.8L78,123.6V98.2Zm5.4-29.6v53.3l10.4,4.5a6,6,0,0,1,4.1-1.6,4,4,0,0,1,1.8.3l-.9,1.9,9-9.4v-49Zm29.9-20.7v64l10.2-10.8-2.5,1.7a4.4,4.4,0,0,1-.3-1.4,6.2,6.2,0,0,1,6.1-6.1,6.1,6.1,0,0,1,6.1,5.7l4.8,2V47.9Zm29.8,28.9v28.4l14,5.8-1.8-1.5a6.8,6.8,0,0,1,3.4-1.1,6,6,0,0,1,2.4.5l6.4-5.6V76.8Z"/>
    <path class="cls-2" d="M139.4,1.5a105.9,105.9,0,0,0-106,105.9,110,110,0,0,0,9.4,45.4L73.7,127l-9.6,4.6a80.1,80.1,0,0,1-3.8-24.2A79,79,0,0,1,212.9,78.5c.2.4-14.3,17.5-14.3,17.5l37.8-31.1A105.9,105.9,0,0,0,139.4,1.5Zm108,43.3,4.3,5.8-10.2,9.6,14-9.9L252,46.8l15.4-.8-6.1,13.7L258,54.9,216.3,89.4a77.1,77.1,0,0,1,2.1,18,79,79,0,0,1-150,34.7,22.4,22.4,0,0,1-1.1-2.6L28.4,171.3l19.4-8.6c24.3,43,72.7,68.2,91.6,117.6,29.5-67.1,106-89.6,106-172.9a117.5,117.5,0,0,0-5-33.2l16.9-14.8,4.6,5.4,9.7-21.5Zm-159,78,1.2-2L78,130.5v18a73.9,73.9,0,0,0,24.4,22.8V125.4l-8.7-3.9A4.8,4.8,0,0,1,88.4,122.8Zm40.1,8.1a6.1,6.1,0,0,1-12.1,1.4l2.6.4-11.2-4.9v46.4a71.9,71.9,0,0,0,24.4,6.7V125.3l-3.9,4.2A6.8,6.8,0,0,1,128.5,130.9Zm26-24.4a5.2,5.2,0,0,1-3.3,1,5.7,5.7,0,0,1-1.8-.3l-11.7,12.4v61.6h1.7a74.4,74.4,0,0,0,22.7-3.6v-69l-9.1-3.8Zm34.7,7.4v.6a6.1,6.1,0,0,1-12.2.5l-9.5-4v64.7a72.9,72.9,0,0,0,24.4-16.4V115.7l16.7-18.6-21.7,17.8Z"/>
    <path class="cls-3" d="M191.9,293.8c0,2.6-23.5,4.7-52.5,4.7s-52.6-2.1-52.6-4.7,23.6-4.7,52.6-4.7S191.9,291.2,191.9,293.8Z"/>
  </g>
</svg>
