<?xml version="1.0" encoding="utf-8"?>
<!-- Generator: Adobe Illustrator 27.8.1, SVG Export Plug-In . SVG Version: 6.00 Build 0)  -->
<svg version="1.1" xmlns="http://www.w3.org/2000/svg" xmlns:xlink="http://www.w3.org/1999/xlink" x="0px" y="0px"
	 viewBox="0 0 350 230" style="enable-background:new 0 0 350 230;" xml:space="preserve">
<style type="text/css">
	.st0{fill:#EEEFBD;}
	.st1{fill:#B6F0A4;}
	.st2{fill:#D9F9CD;}
	.st3{fill:#AFD351;}
	.st4{fill:#FFF1AE;}
	.st5{fill:#F9D9A5;}
	.st6{fill:#FFD5B6;}
	.st7{fill:#B9EDF9;}
	.st8{fill:#5B5B45;}
	.st9{fill:#00B1F0;}
	.st10{fill:#231F20;}
	.st11{fill:#EE2724;}
	.st12{fill:#FFFFFF;}
	.st13{fill:#55B948;}
	.st14{fill:#342643;}
	.st15{fill:#4AB9EA;}
	.st16{fill:#1A5DAB;}
	.st17{fill:#2A419A;}
	.st18{fill:url(#SVGID_1_);}
	.st19{fill:url(#SVGID_00000127729391506146057250000015200271813135661231_);}
	.st20{fill:#3252A4;}
	.st21{fill:#AED136;}
	.st22{fill:#2C296A;}
	.st23{fill:#E6E7E7;}
	.st24{fill:#80C342;}
	.st25{fill:#87C540;}
	.st26{fill:#576A30;}
	.st27{fill:#FEBE2A;}
	.st28{fill:#163A63;}
	.st29{fill:#294DA1;}
	.st30{fill:#F26524;}
	.st31{fill:#95C93D;}
	.st32{fill:#007AC1;}
	.st33{fill:#165591;}
	.st34{fill:#8DD6F7;}
	.st35{fill:#284F9A;}
	.st36{fill:#192D56;}
	.st37{fill:#60B4E5;}
	.st38{fill:#22211D;}
	.st39{fill:#C62630;}
	.st40{fill:#D8A036;}
	.st41{fill:url(#SVGID_00000089532287529377456700000006880624495609206913_);}
	.st42{fill:#FF9833;}
	.st43{fill:#C3552B;}
	.st44{fill:#676D97;}
	.st45{fill:#5C1923;}
	.st46{fill:#061E37;}
	.st47{fill:#C99D3C;}
	.st48{fill:#FEF2AB;}
	.st49{fill:none;stroke:#000000;stroke-miterlimit:10;}
	.st50{fill:#432237;}
	.st51{fill:url(#SVGID_00000085948587739776586260000001299519222676320143_);}
	.st52{fill:#DCD196;}
	.st53{fill:url(#SVGID_00000086651805139022570150000015584721401433311912_);}
	.st54{fill-rule:evenodd;clip-rule:evenodd;fill:#FFCB00;}
	.st55{fill-rule:evenodd;clip-rule:evenodd;fill:#FF0000;}
	.st56{fill-rule:evenodd;clip-rule:evenodd;fill:#FF6633;}
	.st57{fill-rule:evenodd;clip-rule:evenodd;fill:#FF9833;}
	.st58{fill-rule:evenodd;clip-rule:evenodd;fill:#FFFFFF;}
	.st59{fill:#A6A5A5;}
	.st60{fill:#FEFEFE;}
	.st61{fill:url(#SVGID_00000052073288711341842790000010384523964341263764_);}
	.st62{fill:#03AAE1;}
	.st63{fill:#087234;}
	.st64{fill:#F97507;}
	.st65{fill:#F4C558;}
	.st66{fill:#031C35;}
	.st67{fill:url(#SVGID_00000101796156791901658020000016029580705080643977_);}
	.st68{fill:#074755;}
	.st69{fill:#F58F14;}
	.st70{fill:#0899C0;}
	.st71{fill:#3A8A80;}
	.st72{fill:#E26F09;}
	.st73{fill:#E16505;}
	.st74{fill:#0565A9;}
	.st75{fill:#C5D3E0;}
	.st76{fill:url(#SVGID_00000016795737553652471210000010343902363997050790_);}
	.st77{fill:url(#SVGID_00000139283008611399248340000007607120615760286143_);}
	.st78{fill:url(#SVGID_00000038375062257770384620000010757959101230627765_);}
	.st79{fill:url(#SVGID_00000011726674691771285970000010346521805538209676_);}
</style>
<g id="Layer_1">
</g>
<g id="Layer_2">
</g>
<g id="Layer_3">
</g>
<g id="Layer_4">
</g>
<g id="Layer_5">
</g>
<g id="Layer_6">
</g>
<g id="Layer_7">
</g>
<g id="Layer_8">
</g>
<g id="Layer_9">
</g>
<g id="Layer_10">
</g>
<g id="Layer_11">
</g>
<g id="Layer_12">
</g>
<g id="Layer_13">
</g>
<g id="Layer_14">
</g>
<g id="Layer_15">
	<g>
		<path class="st59" d="M181.69,104.65c0.24,1.17,0.05,3.31,0.07,4.6c0.04,5.36,0.03,10.73-0.03,16.09
			c-4.26,1.88-8.9,3.21-13.36,4.53c-0.08-0.83-0.04-1.69-0.04-2.52l0.01-4.97c0-1.08,0.05-2.2-0.07-3.27
			c1.22-1.68,2.77-3.2,4.17-4.73C175.46,111.08,178.54,107.84,181.69,104.65z"/>
		<path class="st60" d="M163.6,68.14c0.26,0.5,0.17,20.06,0.2,22.45c-1.17,1.22-2.57,2.27-3.8,3.42c-3.19,2.98-6.37,6.04-9.29,9.29
			l-0.1-0.06c-0.1-1.57,0.5-3.71,0.84-5.26c0.24-1.07,0.5-2.14,0.78-3.21s0.57-2.13,0.89-3.18c0.31-1.06,0.64-2.11,0.99-3.15
			c0.35-1.04,0.71-2.08,1.1-3.12c0.38-1.03,0.78-2.06,1.2-3.08c0.42-1.02,0.85-2.03,1.3-3.03c0.45-1,0.92-2,1.4-2.99
			c0.48-0.99,0.99-1.97,1.5-2.94C161.54,71.53,162.46,69.77,163.6,68.14z M193.06,40.83l-4.94,8.56c-0.61,1.07-1.28,2.12-1.84,3.21
			c0.19,4.96,0.06,9.96,0.05,14.92l0,3.8c0,0.57-0.06,1.23,0.02,1.8c0.02,0.11,0.05,0.17,0.13,0.24l13.11-7.38
			c0.08-3.09,0.16-35.04-0.19-35.9C197.16,33.37,195.08,37.34,193.06,40.83z M178.96,42.6l-4.9,7.97c-1.92,3.14-4.17,6.2-5.83,9.48
			c0.12,2.42,0.04,4.87,0.04,7.3l-0.03,12.53c-0.01,2.05-0.12,4.15-0.04,6.2c0.01,0.19,0,0.31,0.12,0.47
			c3.05-2.42,6.08-4.82,9.26-7.07c1.39-0.98,2.81-2.02,4.3-2.83l-0.02-27.42l-0.01-7.55c-0.01-1.05,0.13-2.38-0.11-3.39
			C180.72,39.63,179.86,41.16,178.96,42.6z M218.7,63.83c-35.94,14.55-68.69,44.58-85.93,79.32c-3.58,7.22-6.68,14.81-8.78,22.6
			l0.05,0.1l0.06-0.02c4.8-7.98,10.26-15.56,15.83-23.02c1.32-1.78,2.66-3.56,4.01-5.31c1.36-1.76,2.73-3.5,4.12-5.23
			c1.39-1.73,2.8-3.45,4.22-5.15c1.42-1.7,2.87-3.39,4.32-5.06c1.46-1.67,2.93-3.33,4.42-4.98c1.49-1.64,3-3.27,4.52-4.89
			c1.52-1.61,3.06-3.21,4.62-4.8c1.56-1.58,3.13-3.15,4.71-4.7c1.59-1.55,3.19-3.09,4.81-4.61c1.62-1.52,3.25-3.02,4.9-4.51
			c1.65-1.49,3.31-2.96,4.99-4.41c1.68-1.45,3.37-2.89,5.07-4.31c1.71-1.42,3.42-2.83,5.16-4.21c1.73-1.39,3.48-2.76,5.24-4.11
			c1.76-1.35,3.53-2.69,5.32-4c1.79-1.32,3.59-2.62,5.4-3.9c2.83-1.99,5.77-3.82,8.66-5.72c0.35-0.23,3.08-1.96,3.13-2.12
			l-0.12-0.01C224.53,61.74,221.55,62.68,218.7,63.83z"/>
		<linearGradient id="SVGID_1_" gradientUnits="userSpaceOnUse" x1="117.5294" y1="102.4267" x2="181.7212" y2="80.4187">
			<stop  offset="0" style="stop-color:#ED610B"/>
			<stop  offset="1" style="stop-color:#EF880B"/>
		</linearGradient>
		<path class="st18" d="M171.81,50.03c-0.01,0.11-0.06,0.14-0.13,0.23c-1.21,1.51-2.75,2.83-4.03,4.29c-1.6,1.8-3.13,3.67-4.58,5.6
			c-1.45,1.93-2.82,3.91-4.1,5.95c-0.76,1.2-1.49,2.41-2.2,3.63c-0.71,1.23-1.39,2.47-2.04,3.72c-0.65,1.26-1.28,2.52-1.88,3.81
			c-0.6,1.28-1.17,2.58-1.72,3.88c-0.55,1.31-1.07,2.62-1.56,3.95c-0.49,1.33-0.95,2.67-1.39,4.01c-0.43,1.35-0.84,2.7-1.22,4.07
			c-0.38,1.36-0.73,2.74-1.04,4.12c-1.16,4.82-2.05,9.73-2.37,14.69c-0.77,1.2-1.75,2.3-2.6,3.45c-1.86,2.53-3.69,5.15-5.3,7.85
			c-1.07,1.79-2.15,3.61-3.06,5.48c-0.74,1.52-1.63,3.8-2.53,5.12c-1.27-1.65-2.27-3.7-3.23-5.55c-3.43-7.12-5.12-13.1-5.7-20.98
			c-0.03-0.43-0.05-0.85-0.07-1.28c-0.02-0.43-0.03-0.85-0.04-1.28c-0.01-0.43-0.01-0.85-0.01-1.28c0-0.43,0.01-0.85,0.02-1.28
			c0.01-0.43,0.03-0.85,0.05-1.28c0.02-0.43,0.05-0.85,0.08-1.28s0.07-0.85,0.11-1.27c0.04-0.42,0.09-0.85,0.14-1.27
			c0.05-0.42,0.11-0.85,0.17-1.27c0.06-0.42,0.13-0.84,0.21-1.26c0.07-0.42,0.15-0.84,0.24-1.26c0.08-0.42,0.17-0.84,0.27-1.25
			c0.09-0.42,0.19-0.83,0.3-1.25c0.1-0.41,0.21-0.83,0.33-1.24c0.11-0.41,0.23-0.82,0.36-1.23c0.12-0.41,0.25-0.82,0.39-1.22
			c0.13-0.41,0.27-0.81,0.41-1.21c0.14-0.4,0.29-0.8,0.44-1.2c0.15-0.4,0.31-0.8,0.47-1.19c0.16-0.39,0.33-0.79,0.5-1.18
			c0.17-0.39,0.35-0.78,0.53-1.17c0.18-0.39,0.37-0.77,0.56-1.15c0.19-0.38,0.39-0.76,0.58-1.14c0.2-0.38,0.4-0.75,0.61-1.12
			c0.21-0.37,0.42-0.74,0.64-1.11c0.22-0.37,0.44-0.73,0.67-1.09c0.23-0.36,0.46-0.72,0.69-1.08c0.23-0.36,0.47-0.71,0.72-1.06
			c0.24-0.35,0.49-0.7,0.74-1.04c0.25-0.34,0.51-0.69,0.77-1.02s0.52-0.67,0.79-1.01s0.54-0.66,0.82-0.99
			C143.49,57.97,156.72,51.15,171.81,50.03z"/>
		<path class="st62" d="M163.52,124.18c0.31,0.52,0.19,6.05,0.2,6.99c-2.44,0.82-5.16,1.49-7.7,1.9l-0.08-0.01
			C156.03,132.5,162.56,125.26,163.52,124.18z M186.27,100.19l-0.01,15.55l0,4.94c0,0.9-0.06,1.82,0.02,2.71
			c0.14,0.1,0.07,0.08,0.17,0.1c3.17-1.3,6.16-2.78,9.15-4.44c1.35-0.75,2.71-1.48,3.96-2.38l0.02-19.99c0-1.43,0.18-7.4-0.11-8.26
			l-0.07-0.06C194.8,91.98,190.53,96.14,186.27,100.19z M225.97,94.17c-1.03,5.24-3.98,10.37-7.32,14.48
			c-8.59,10.6-21.94,17.41-34.38,22.4c-2.03,0.82-4.07,1.67-6.14,2.4c-5.05,1.77-10.17,3.23-15.35,4.61
			c-2.75,0.75-5.51,1.45-8.28,2.08c-1.52,0.34-6.66,1.27-7.78,1.81c-0.76,0.37-3.7,3.72-4.52,4.59c2.64,1.72,5.43,3.38,8.28,4.72
			c14.36,6.58,28.7,7.81,43.65,2.25c0.41-0.16,0.82-0.32,1.23-0.48c0.41-0.17,0.81-0.34,1.21-0.51c0.4-0.18,0.8-0.36,1.2-0.54
			c0.4-0.19,0.79-0.38,1.19-0.57c0.39-0.2,0.78-0.4,1.17-0.6c0.39-0.21,0.77-0.42,1.16-0.63c0.38-0.22,0.76-0.43,1.14-0.66
			c0.38-0.22,0.75-0.45,1.13-0.69c0.37-0.23,0.74-0.47,1.11-0.71c0.37-0.24,0.73-0.49,1.09-0.74c0.36-0.25,0.72-0.51,1.07-0.77
			c0.35-0.26,0.7-0.53,1.05-0.79c0.35-0.27,0.69-0.54,1.03-0.82c0.34-0.28,0.68-0.56,1.01-0.84c0.33-0.29,0.66-0.58,0.99-0.87
			c0.33-0.29,0.65-0.59,0.97-0.89c0.32-0.3,0.64-0.61,0.95-0.92c0.31-0.31,0.62-0.62,0.92-0.94c0.3-0.32,0.6-0.64,0.9-0.96
			c0.3-0.32,0.59-0.65,0.88-0.98c0.29-0.33,0.57-0.67,0.85-1.01c0.28-0.34,0.56-0.68,0.83-1.03c0.27-0.35,0.54-0.69,0.8-1.05
			c0.26-0.35,0.52-0.71,0.78-1.07c0.25-0.36,0.51-0.72,0.75-1.08c0.25-0.36,0.49-0.73,0.72-1.1c0.24-0.37,0.47-0.74,0.7-1.12
			c0.23-0.38,0.45-0.75,0.67-1.14c0.22-0.38,0.43-0.77,0.64-1.15c0.21-0.39,0.41-0.78,0.61-1.17c0.2-0.39,0.39-0.79,0.58-1.18
			c0.19-0.4,0.37-0.8,0.55-1.2c0.15-0.32,0.29-0.65,0.44-0.97c0.14-0.33,0.28-0.65,0.42-0.98c0.14-0.33,0.27-0.66,0.4-0.99
			c0.13-0.33,0.26-0.66,0.38-1c0.12-0.33,0.24-0.67,0.36-1.01c0.12-0.34,0.23-0.67,0.34-1.01c0.11-0.34,0.22-0.68,0.32-1.02
			c0.1-0.34,0.2-0.68,0.3-1.02c0.1-0.34,0.19-0.69,0.28-1.03c0.09-0.34,0.18-0.69,0.26-1.04c0.08-0.35,0.16-0.69,0.24-1.04
			c0.08-0.35,0.15-0.7,0.22-1.04c0.07-0.35,0.13-0.7,0.2-1.05c0.06-0.35,0.12-0.7,0.18-1.05c0.05-0.35,0.11-0.7,0.15-1.06
			c0.05-0.35,0.09-0.71,0.13-1.06c0.04-0.35,0.08-0.71,0.11-1.06c0.03-0.35,0.06-0.71,0.09-1.06c0.03-0.35,0.05-0.71,0.07-1.06
			c0.02-0.36,0.04-0.71,0.05-1.07c0.01-0.36,0.02-0.71,0.03-1.07c0.01-0.36,0.01-0.71,0.01-1.07c0-0.36-0.01-0.71-0.01-1.07
			c-0.01-0.36-0.02-0.71-0.04-1.07c-0.02-0.36-0.03-0.71-0.06-1.07c-0.02-0.36-0.05-0.71-0.08-1.06c-0.03-0.35-0.06-0.71-0.1-1.06
			c-0.04-0.35-0.08-0.71-0.12-1.06c-0.04-0.35-0.09-0.71-0.14-1.06c-0.05-0.35-0.1-0.7-0.16-1.05c-0.06-0.35-0.12-0.7-0.18-1.05
			c-0.06-0.35-0.13-0.7-0.2-1.05c-0.38-1.87-0.81-4.21-1.56-5.96c-0.05-0.12-0.06-0.12-0.11-0.22
			C226.53,88.57,226.51,91.38,225.97,94.17z"/>
	</g>
</g>
</svg>
