<?xml version="1.0" encoding="utf-8"?>
<!-- Generator: Adobe Illustrator 27.8.1, SVG Export Plug-In . SVG Version: 6.00 Build 0)  -->
<svg version="1.1" xmlns="http://www.w3.org/2000/svg" xmlns:xlink="http://www.w3.org/1999/xlink" x="0px" y="0px"
	 viewBox="0 0 350 230" style="enable-background:new 0 0 350 230;" xml:space="preserve">
<style type="text/css">
	.st0{fill:#EEEFBD;}
	.st1{fill:#B6F0A4;}
	.st2{fill:#D9F9CD;}
	.st3{fill:#AFD351;}
	.st4{fill:#FFF1AE;}
	.st5{fill:#F9D9A5;}
	.st6{fill:#FFD5B6;}
	.st7{fill:#B9EDF9;}
	.st8{fill:#5B5B45;}
	.st9{fill:#00B1F0;}
	.st10{fill:#231F20;}
	.st11{fill:#EE2724;}
	.st12{fill:#FFFFFF;}
	.st13{fill:#55B948;}
	.st14{fill:#342643;}
	.st15{fill:#4AB9EA;}
	.st16{fill:#1A5DAB;}
	.st17{fill:#2A419A;}
	.st18{fill:url(#SVGID_1_);}
	.st19{fill:url(#SVGID_00000146468840475088847230000017459038473692081570_);}
	.st20{fill:#3252A4;}
	.st21{fill:#AED136;}
	.st22{fill:#2C296A;}
	.st23{fill:#E6E7E7;}
	.st24{fill:#80C342;}
	.st25{fill:#87C540;}
	.st26{fill:#576A30;}
	.st27{fill:#FEBE2A;}
	.st28{fill:#163A63;}
	.st29{fill:#294DA1;}
	.st30{fill:#F26524;}
	.st31{fill:#95C93D;}
	.st32{fill:#007AC1;}
	.st33{fill:#165591;}
	.st34{fill:#8DD6F7;}
	.st35{fill:#284F9A;}
	.st36{fill:#192D56;}
	.st37{fill:#60B4E5;}
	.st38{fill:#22211D;}
	.st39{fill:#C62630;}
	.st40{fill:#D8A036;}
	.st41{fill:url(#SVGID_00000168103894918278596770000003854719050363327136_);}
	.st42{fill:#FF9833;}
	.st43{fill:#C3552B;}
	.st44{fill:#676D97;}
	.st45{fill:#5C1923;}
	.st46{fill:#061E37;}
	.st47{fill:#C99D3C;}
	.st48{fill:#FEF2AB;}
	.st49{fill:none;stroke:#000000;stroke-miterlimit:10;}
	.st50{fill:#432237;}
	.st51{fill:url(#SVGID_00000011004787995589699310000015637431463717531282_);}
	.st52{fill:#DCD196;}
	.st53{fill:url(#SVGID_00000102507464900329846860000000022713327472618375_);}
	.st54{fill-rule:evenodd;clip-rule:evenodd;fill:#FFCB00;}
	.st55{fill-rule:evenodd;clip-rule:evenodd;fill:#FF0000;}
	.st56{fill-rule:evenodd;clip-rule:evenodd;fill:#FF6633;}
	.st57{fill-rule:evenodd;clip-rule:evenodd;fill:#FF9833;}
	.st58{fill-rule:evenodd;clip-rule:evenodd;fill:#FFFFFF;}
	.st59{fill:#A6A5A5;}
	.st60{fill:#FEFEFE;}
	.st61{fill:url(#SVGID_00000109747293001797644300000001953864143460092850_);}
	.st62{fill:#03AAE1;}
	.st63{fill:#087234;}
	.st64{fill:#F97507;}
	.st65{fill:#F4C558;}
	.st66{fill:#031C35;}
	.st67{fill:url(#SVGID_00000085225959979079320190000007114149886900531133_);}
	.st68{fill:#074755;}
	.st69{fill:#F58F14;}
	.st70{fill:#0899C0;}
	.st71{fill:#3A8A80;}
	.st72{fill:#E26F09;}
	.st73{fill:#E16505;}
	.st74{fill:#0565A9;}
	.st75{fill:#C5D3E0;}
	.st76{fill:url(#SVGID_00000037683528030970512920000009335626441260954035_);}
	.st77{fill:url(#SVGID_00000030486484287995237640000013045817380203126166_);}
	.st78{fill:url(#SVGID_00000037654801728746961250000009914345472217846405_);}
	.st79{fill:url(#SVGID_00000101087599836601982520000003652359534528785561_);}
</style>
<g id="Layer_1">
</g>
<g id="Layer_2">
</g>
<g id="Layer_3">
</g>
<g id="Layer_4">
</g>
<g id="Layer_5">
</g>
<g id="Layer_6">
</g>
<g id="Layer_7">
</g>
<g id="Layer_8">
</g>
<g id="Layer_9">
</g>
<g id="Layer_10">
</g>
<g id="Layer_11">
</g>
<g id="Layer_12">
</g>
<g id="Layer_13">
</g>
<g id="Layer_14">
</g>
<g id="Layer_15">
	<linearGradient id="SVGID_1_" gradientUnits="userSpaceOnUse" x1="120.559" y1="93.441" x2="229.4409" y2="93.441">
		<stop  offset="0" style="stop-color:#037FBB"/>
		<stop  offset="1" style="stop-color:#04BFEF"/>
	</linearGradient>
	<path class="st18" d="M120.56,39.06c0.93,0,1.74,0,2.54,0c17.24,0,34.47-0.03,51.71,0c30.12,0.05,54.36,24.17,54.54,54.31
		c0.1,17.32,0.07,34.64,0.09,51.96c0,0.72-0.07,1.44-0.12,2.3c-3.62,0-7.09,0-10.73,0c0-5.76,0-11.37,0-17.19c-2.3,0-4.43,0-6.8,0
		c0,5.73,0,11.34,0,17.32c-2.16,0-4.09,0.01-6.02,0c-11.27-0.03-22.56,0.28-33.81-0.19c-15.95-0.66-28.97-7.64-39.28-19.77
		c-0.31-0.37-0.64-0.73-1.28-1.47c0,7.28,0,14.15,0,21.24c-3.72,0-7.17,0-10.85,0C120.56,111.53,120.56,75.47,120.56,39.06z
		 M200.76,130.4c-0.84-0.04-1.55-0.1-2.26-0.11c-7.92-0.01-15.85,0.04-23.77-0.01c-19.48-0.12-35.8-15.23-36.67-34.64
		c-0.57-12.64-0.17-25.32-0.19-37.98c0-0.3,0.13-0.61,0.21-0.97c0.38-0.05,0.7-0.14,1.01-0.14c12.25,0,24.51-0.26,36.75,0.06
		c18.02,0.47,32.7,13.21,35.34,31.08c1.05,7.13,0.45,14.5,0.59,21.76c0.02,1.03,0,2.06,0,3.04c-0.57,0.13-0.8,0.22-1.03,0.22
		c-12.33,0-24.67,0.12-37-0.05c-8.81-0.13-17.14-7.4-17.93-16.17c-0.66-7.29-0.26-14.67-0.31-22.01c0-0.12,0.2-0.24,0.35-0.41
		c6.49,0,13.03-0.23,19.54,0.05c11.17,0.48,19.65,11.31,18.92,22.88c-4.95,0-9.91,0.05-14.87-0.01c-5.2-0.06-8.84-3.77-8.97-9.02
		c-0.03-1.02,0-2.03,0-3c-1.61,0-2.8,0-4.24,0c0,2.74-0.04,5.34,0.01,7.94c0.09,5.46,3.67,8.99,9.15,9.01
		c7.84,0.03,15.68,0.01,23.52,0c0.62,0,1.24-0.11,2.01-0.18c0-3,0.04-5.85-0.01-8.7c-0.21-13.52-10.73-24.86-24.21-25.5
		c-9.05-0.43-18.13-0.13-27.19-0.15c-0.22,0-0.43,0.18-0.74,0.31c0,9.06-0.27,18.13,0.06,27.17c0.51,13.66,12.25,24.6,25.95,24.61
		c13.64,0.01,27.28,0,40.92-0.01c0.87,0,1.74,0,2.83,0c0-1.11,0-1.91,0-2.71c-0.01-7.6-0.01-15.19-0.03-22.79
		c-0.08-24.83-19.33-44.05-44.19-44.09c-13.48-0.02-26.96-0.01-40.43-0.01c-0.86,0-1.72,0-2.58,0c-0.07,0.7-0.13,1.02-0.13,1.34
		c-0.02,14.46-0.25,28.92,0.01,43.38c0.41,22.18,18.09,40.74,40.27,42.11c9.52,0.59,19.1,0.19,28.66,0.22
		c0.21,0,0.42-0.19,0.63-0.28C200.76,134.57,200.76,132.56,200.76,130.4z"/>
</g>
</svg>
