<?xml version="1.0" encoding="utf-8"?>
<!-- Generator: Adobe Illustrator 27.8.1, SVG Export Plug-In . SVG Version: 6.00 Build 0)  -->
<svg version="1.1" xmlns="http://www.w3.org/2000/svg" xmlns:xlink="http://www.w3.org/1999/xlink" x="0px" y="0px"
	 viewBox="0 0 350 230" style="enable-background:new 0 0 350 230;" xml:space="preserve">
<style type="text/css">
	.st0{fill:#EEEFBD;}
	.st1{fill:#B6F0A4;}
	.st2{fill:#D9F9CD;}
	.st3{fill:#AFD351;}
	.st4{fill:#FFF1AE;}
	.st5{fill:#F9D9A5;}
	.st6{fill:#FFD5B6;}
	.st7{fill:#B9EDF9;}
	.st8{fill:#5B5B45;}
	.st9{fill:#00B1F0;}
	.st10{fill:#231F20;}
	.st11{fill:#EE2724;}
	.st12{fill:#FFFFFF;}
	.st13{fill:#55B948;}
	.st14{fill:#342643;}
	.st15{fill:#4AB9EA;}
	.st16{fill:#1A5DAB;}
	.st17{fill:#2A419A;}
	.st18{fill:url(#SVGID_1_);}
	.st19{fill:url(#SVGID_00000107579743307527615240000011176900696238028474_);}
	.st20{fill:#3252A4;}
	.st21{fill:#AED136;}
	.st22{fill:#2C296A;}
	.st23{fill:#E6E7E7;}
	.st24{fill:#80C342;}
	.st25{fill:#87C540;}
	.st26{fill:#576A30;}
	.st27{fill:#FEBE2A;}
	.st28{fill:#163A63;}
	.st29{fill:#294DA1;}
	.st30{fill:#F26524;}
	.st31{fill:#95C93D;}
	.st32{fill:#007AC1;}
	.st33{fill:#165591;}
	.st34{fill:#8DD6F7;}
	.st35{fill:#284F9A;}
	.st36{fill:#192D56;}
	.st37{fill:#60B4E5;}
	.st38{fill:#22211D;}
	.st39{fill:#C62630;}
	.st40{fill:#D8A036;}
	.st41{fill:url(#SVGID_00000090975137306022583010000001395397056613246870_);}
	.st42{fill:#FF9833;}
	.st43{fill:#C3552B;}
	.st44{fill:#676D97;}
	.st45{fill:#5C1923;}
	.st46{fill:#061E37;}
	.st47{fill:#C99D3C;}
	.st48{fill:#FEF2AB;}
	.st49{fill:none;stroke:#000000;stroke-miterlimit:10;}
	.st50{fill:#432237;}
	.st51{fill:url(#SVGID_00000156574500513950549970000010476491282627115648_);}
	.st52{fill:#DCD196;}
	.st53{fill:url(#SVGID_00000007414777395120552180000003129345992090518681_);}
	.st54{fill-rule:evenodd;clip-rule:evenodd;fill:#FFCB00;}
	.st55{fill-rule:evenodd;clip-rule:evenodd;fill:#FF0000;}
	.st56{fill-rule:evenodd;clip-rule:evenodd;fill:#FF6633;}
	.st57{fill-rule:evenodd;clip-rule:evenodd;fill:#FF9833;}
	.st58{fill-rule:evenodd;clip-rule:evenodd;fill:#FFFFFF;}
	.st59{fill:#A6A5A5;}
	.st60{fill:#FEFEFE;}
	.st61{fill:url(#SVGID_00000129893870638747837930000003508599339071523996_);}
	.st62{fill:#03AAE1;}
	.st63{fill:#087234;}
	.st64{fill:#F97507;}
	.st65{fill:#F4C558;}
	.st66{fill:#031C35;}
	.st67{fill:url(#SVGID_00000047045947592967825600000013679469846557744279_);}
	.st68{fill:#074755;}
	.st69{fill:#F58F14;}
	.st70{fill:#0899C0;}
	.st71{fill:#3A8A80;}
	.st72{fill:#E26F09;}
	.st73{fill:#E16505;}
	.st74{fill:#0565A9;}
	.st75{fill:#C5D3E0;}
	.st76{fill:url(#SVGID_00000109745642163127969050000009637986714149077163_);}
	.st77{fill:url(#SVGID_00000103971094987765758940000002482379808075216040_);}
	.st78{fill:url(#SVGID_00000081616776719893914760000004435701008649883804_);}
	.st79{fill:url(#SVGID_00000151532481175034375430000014857481879346958779_);}
</style>
<g id="Layer_1">
</g>
<g id="Layer_2">
</g>
<g id="Layer_3">
</g>
<g id="Layer_4">
</g>
<g id="Layer_5">
</g>
<g id="Layer_6">
</g>
<g id="Layer_7">
</g>
<g id="Layer_8">
</g>
<g id="Layer_9">
</g>
<g id="Layer_10">
</g>
<g id="Layer_11">
</g>
<g id="Layer_12">
</g>
<g id="Layer_13">
</g>
<g id="Layer_14">
</g>
<g id="Layer_15">
	<g>
		<g>
			<path class="st46" d="M118.86,62.77h35.44v96.97h-35.44V62.77z M125.43,111.26h22.3V69.14h-22.3V111.26z M136.58,130.47
				c-4.84,0-8.76,3.92-8.76,8.76s3.92,8.76,8.76,8.76c4.84,0,8.76-3.92,8.76-8.76C145.35,134.4,141.42,130.47,136.58,130.47z
				 M129.61,80.49h13.94v-3.58h-13.94V80.49z M129.61,88.06h13.94v-3.58h-13.94V88.06z"/>
			<path class="st3" d="M157.28,46.7h35.44v113.06h-35.44V46.7z M163.85,95.19h22.3V53.07h-22.3V95.19z M175,130.49
				c-4.84,0-8.76,3.92-8.76,8.76s3.92,8.76,8.76,8.76s8.76-3.92,8.76-8.76S179.84,130.49,175,130.49z M168.03,64.43h13.94v-3.58
				h-13.94V64.43z M168.03,71.99h13.94v-3.58h-13.94V71.99z"/>
			<path class="st45" d="M195.7,33.67h35.44v126.09H195.7V33.67z M202.27,82.16h22.3V40.04h-22.3V82.16z M213.42,130.49
				c-4.84,0-8.76,3.92-8.76,8.76s3.92,8.76,8.76,8.76s8.76-3.92,8.76-8.76S218.26,130.49,213.42,130.49z M206.45,51.39h13.94v-3.58
				h-13.94V51.39z M206.45,58.96h13.94v-3.58h-13.94V58.96z"/>
		</g>
		<path class="st47" d="M107.5,157.37L173.56,115l14.84,14.9l41.35-29.09l-10.41-5.44h23.16l-5.74,21.29l-3.41-12.26l-46.67,33.16
			l-14.36-14.66l-61.93,39.67L107.5,157.37z"/>
	</g>
</g>
</svg>
