<?xml version="1.0" encoding="utf-8"?>
<!-- Generator: Adobe Illustrator 27.8.1, SVG Export Plug-In . SVG Version: 6.00 Build 0)  -->
<svg version="1.1" xmlns="http://www.w3.org/2000/svg" xmlns:xlink="http://www.w3.org/1999/xlink" x="0px" y="0px"
	 viewBox="0 0 350 230" style="enable-background:new 0 0 350 230;" xml:space="preserve">
<style type="text/css">
	.st0{fill:#FFF5E6;}
	.st1{fill:#E9F7FF;}
	.st2{fill:#F2FFE9;}
	.st3{fill:#FFF0E9;}
	.st4{fill:#FBFFE9;}
	.st5{fill:#FFFEE9;}
	.st6{fill:#1C3464;}
	.st7{fill:#FFECE9;}
	.st8{fill:#FFEACC;}
	.st9{fill:#8ACBFB;}
	.st10{fill:#00B1F0;}
	.st11{fill:#231F20;}
	.st12{fill:#EE2724;}
	.st13{fill:#FFFFFF;}
	.st14{fill:#55B948;}
	.st15{fill:#342643;}
	.st16{fill:#4AB9EA;}
	.st17{fill:#1A5DAB;}
	.st18{fill:#2A419A;}
	.st19{fill:url(#SVGID_1_);}
	.st20{fill:url(#SVGID_00000147934146434095033250000012555503170524270485_);}
	.st21{fill:#3252A4;}
	.st22{fill:#AED136;}
	.st23{fill:#2C296A;}
	.st24{fill:#E6E7E7;}
	.st25{fill:#80C342;}
	.st26{fill:#87C540;}
	.st27{fill:#576A30;}
	.st28{fill:#FEBE2A;}
	.st29{fill:#163A63;}
	.st30{fill:#294DA1;}
	.st31{fill:#F26524;}
	.st32{fill:#95C93D;}
	.st33{fill:#007AC1;}
	.st34{fill:#AFD351;}
	.st35{fill:#165591;}
	.st36{fill:#8DD6F7;}
	.st37{fill:#284F9A;}
	.st38{fill:#192D56;}
	.st39{fill:#60B4E5;}
	.st40{fill:#22211D;}
	.st41{fill:#C62630;}
	.st42{fill:#EEEFBD;}
	.st43{fill:#B6F0A4;}
	.st44{fill:#D9F9CD;}
	.st45{fill:#FFF1AE;}
	.st46{fill:#F9D9A5;}
	.st47{fill:#FFD5B6;}
	.st48{fill:#B9EDF9;}
	.st49{fill:#5B5B45;}
	.st50{fill:#D8A036;}
	.st51{fill:url(#SVGID_00000173843954578705986830000015383159901689490322_);}
	.st52{fill:#FF9833;}
	.st53{fill:#C3552B;}
	.st54{fill:#676D97;}
	.st55{fill:#5C1923;}
	.st56{fill:#061E37;}
	.st57{fill:#C99D3C;}
	.st58{fill:#FEF2AB;}
	.st59{fill:none;stroke:#000000;stroke-miterlimit:10;}
	.st60{fill:#432237;}
	.st61{fill:url(#SVGID_00000131333748437954934730000012656373765569388990_);}
	.st62{fill:#DCD196;}
	.st63{fill:url(#SVGID_00000125596603433534104590000003080621982734786477_);}
	.st64{fill-rule:evenodd;clip-rule:evenodd;fill:#FFCB00;}
	.st65{fill-rule:evenodd;clip-rule:evenodd;fill:#FF0000;}
	.st66{fill-rule:evenodd;clip-rule:evenodd;fill:#FF6633;}
	.st67{fill-rule:evenodd;clip-rule:evenodd;fill:#FF9833;}
	.st68{fill-rule:evenodd;clip-rule:evenodd;fill:#FFFFFF;}
	.st69{fill:#A6A5A5;}
	.st70{fill:#FEFEFE;}
	.st71{fill:url(#SVGID_00000121983108660429862730000008365271604025910941_);}
	.st72{fill:#03AAE1;}
	.st73{fill:#087234;}
	.st74{fill:#F97507;}
	.st75{fill:#F4C558;}
	.st76{fill:#031C35;}
	.st77{fill:url(#SVGID_00000127752104073531941930000015979225884027736229_);}
	.st78{fill:#074755;}
	.st79{fill:#F58F14;}
	.st80{fill:#0899C0;}
	.st81{fill:#3A8A80;}
	.st82{fill:#E26F09;}
	.st83{fill:#E16505;}
	.st84{fill:#0565A9;}
	.st85{fill:#C5D3E0;}
	.st86{fill:url(#SVGID_00000158749408141437485350000004716802387415505050_);}
	.st87{fill:url(#SVGID_00000073000811926626711090000011299076227208708746_);}
	.st88{fill:url(#SVGID_00000070806779192159031250000013273789206753516693_);}
	.st89{fill:url(#SVGID_00000008853034663472633800000000693238418680815028_);}
	.st90{fill:url(#SVGID_00000124841429339070892030000002088218734573338264_);}
	.st91{fill:#29282A;}
	.st92{fill:url(#SVGID_00000070079732174188376240000012581863364709405862_);}
	.st93{fill:#151517;}
	.st94{fill:#1F3247;}
	.st95{fill:#C09B5E;}
	.st96{fill:#00AEEF;}
	.st97{fill:#94C43A;}
	.st98{fill:#CFAC6E;}
	.st99{fill:#333F5B;}
	.st100{fill-rule:evenodd;clip-rule:evenodd;fill:#98C73A;}
	.st101{fill-rule:evenodd;clip-rule:evenodd;fill:#333F5B;}
	.st102{fill:url(#SVGID_00000030447075155239305890000007889352941052750746_);}
	.st103{fill:url(#SVGID_00000127004125773372316840000011462489260036320387_);}
	.st104{fill:url(#SVGID_00000125561045690733491980000003779145899512797569_);}
	.st105{fill:url(#SVGID_00000027573736852766890390000013757882849283479962_);}
	.st106{fill:url(#SVGID_00000151541316293387640990000000436033744697813154_);}
	.st107{fill:#1E344C;}
	.st108{fill:#56A4B2;}
	.st109{fill:#195C8F;}
	.st110{fill:#B8C3CA;}
	.st111{fill:#F8C220;}
	.st112{fill:#0A5AA3;}
	.st113{fill:url(#SVGID_00000068677118664921736710000010932386282096456084_);}
	.st114{fill:url(#SVGID_00000037676130727597692120000007105754727146245002_);}
	.st115{fill:#074871;}
	.st116{fill:#21A7E0;}
	.st117{fill:url(#SVGID_00000098189033597451786490000015014019320110377606_);}
	.st118{fill:#C39038;}
	.st119{fill:#19324E;}
	.st120{fill:url(#SVGID_00000018939503418636031010000001229482166144532660_);}
	.st121{fill:#0B3D58;}
	.st122{fill:#FBB03B;}
	.st123{fill:url(#SVGID_00000074411834334310318710000014381192405498786707_);}
	.st124{fill:url(#SVGID_00000080167634582032408680000015962202737413364669_);}
	.st125{fill:url(#SVGID_00000046337338799100209020000015176123915644815806_);}
</style>
<g id="Layer_1">
</g>
<g id="Layer_2">
</g>
<g id="Layer_3">
</g>
<g id="Layer_4">
</g>
<g id="Layer_5">
</g>
<g id="Layer_6">
</g>
<g id="Layer_7">
</g>
<g id="Layer_8">
</g>
<g id="Layer_9">
</g>
<g id="Layer_10">
</g>
<g id="Layer_11">
</g>
<g id="Layer_12">
</g>
<g id="Layer_13">
</g>
<g id="Layer_14">
</g>
<g id="Layer_15">
	<g>
		<path class="st70" d="M169.99,26.34c0.44,0.06,0.85,0.1,1.12,0.5c0.19,0.28,0.22,0.56,0.13,0.88c-0.12,0.4-0.46,0.57-0.8,0.75
			c-0.54-0.02-0.83-0.08-1.21-0.49c-0.11-0.34-0.19-0.51-0.05-0.86C169.32,26.73,169.64,26.54,169.99,26.34z M235.86,107.36
			c-0.01,0.23,0.1,0.34,0.2,0.53c0.41,0.29,0.81,0.39,1.31,0.4c0.38-0.36,0.73-0.68,0.73-1.24c0-0.26-0.1-0.41-0.23-0.62
			c-0.41-0.31-0.69-0.39-1.22-0.35C236.27,106.45,235.89,106.79,235.86,107.36z M237.48,84.62c-0.03,0.33,0.07,0.59,0.32,0.8
			c0.29,0.24,0.64,0.24,0.99,0.23c0.34-0.14,0.61-0.18,0.8-0.53c0.02-0.03,0.04-0.07,0.05-0.11c0.01-0.04,0.03-0.07,0.04-0.11
			c0.01-0.04,0.02-0.08,0.02-0.12c0.01-0.04,0.01-0.08,0.01-0.12c0-0.04,0-0.08,0-0.12c0-0.04-0.01-0.08-0.02-0.12
			c-0.01-0.04-0.02-0.08-0.03-0.11c-0.01-0.04-0.03-0.07-0.04-0.11c-0.13-0.3-0.36-0.55-0.66-0.67c-0.19-0.07-0.42-0.1-0.62-0.13
			C237.87,83.76,237.54,83.99,237.48,84.62z M221.95,133.41c0.04,0.34,0.19,0.54,0.48,0.71c0.31,0.18,0.68,0.24,1.03,0.21
			c0.35-0.32,0.68-0.64,0.71-1.15c0.02-0.33-0.07-0.44-0.23-0.72c-0.48-0.33-0.8-0.37-1.39-0.32
			C222.21,132.54,221.89,132.85,221.95,133.41z M119.77,57.42c0.01,0.2,0.1,0.38,0.26,0.51c0.29,0.24,0.8,0.33,1.15,0.41
			c0.4-0.5,0.88-0.99,0.82-1.68c-0.34-0.55-0.65-0.59-1.26-0.73l-0.15-0.03C120.25,56.33,119.75,56.83,119.77,57.42z M230.27,120.81
			c-0.06,0.33,0.05,0.62,0.28,0.86c0.32,0.34,0.69,0.37,1.12,0.38c0.34-0.16,0.71-0.31,0.85-0.7c0.12-0.34,0.07-0.59-0.09-0.89
			c-0.21-0.41-0.7-0.58-1.13-0.65c-0.07-0.01-0.14-0.02-0.21-0.03C230.69,120.04,230.36,120.28,230.27,120.81z M176.37,27.34
			c0,0.34,0.16,0.63,0.41,0.86c0.35,0.32,0.77,0.34,1.22,0.33c0.38-0.4,0.71-0.75,0.69-1.33c-0.01-0.21-0.11-0.39-0.26-0.54
			c-0.42-0.43-1.06-0.32-1.59-0.28C176.57,26.7,176.38,26.89,176.37,27.34z M124.7,131.56c-0.01,0.35-0.03,0.57,0.21,0.85
			c0.28,0.33,0.67,0.62,1.07,0.78c0.39-0.21,0.79-0.39,0.94-0.85c0.11-0.34,0.11-0.74-0.1-1.04c-0.26-0.36-0.72-0.56-1.15-0.6
			C125.27,130.94,124.89,131.12,124.7,131.56z M184.02,28.51c0.08,0.24,0.33,0.43,0.57,0.51c0.41,0.14,0.87,0.17,1.3,0.23
			c0.23-0.52,0.5-1.02,0.28-1.59c-0.09-0.24-0.32-0.43-0.56-0.52c-0.42-0.16-0.88-0.13-1.32-0.12
			C184.11,27.48,183.85,28.02,184.02,28.51z M217.72,45.19c0.12,0.47,0.52,0.73,0.93,0.94c0.21,0.11,0.41,0.15,0.64,0.19
			c0.31-0.47,0.7-0.94,0.55-1.54c-0.1-0.39-0.27-0.59-0.62-0.77c-0.36-0.19-0.74-0.22-1.15-0.21
			C217.81,44.28,217.57,44.62,217.72,45.19z M140.52,146.13c0.03,0.22,0.17,0.44,0.35,0.58c0.42,0.33,0.94,0.31,1.45,0.32
			c0.31-0.44,0.63-0.81,0.51-1.38c-0.06-0.26-0.24-0.47-0.47-0.59c-0.4-0.22-0.84-0.24-1.28-0.25
			C140.72,145.22,140.44,145.55,140.52,146.13z M226.51,127.24c-0.01,0.27,0.13,0.53,0.33,0.72c0.31,0.28,0.67,0.43,1.06,0.55
			c0.42-0.35,0.81-0.71,0.9-1.28c0.05-0.31-0.04-0.62-0.26-0.84c-0.32-0.31-0.78-0.37-1.2-0.38
			C226.92,126.37,226.52,126.65,226.51,127.24z M211.64,39.93c-0.04,0.33,0.05,0.59,0.26,0.84c0.35,0.42,0.93,0.58,1.45,0.65
			c0.26-0.28,0.62-0.59,0.63-1c0.01-0.34-0.09-0.64-0.33-0.89c-0.34-0.35-0.78-0.53-1.25-0.59
			C212.08,39.22,211.7,39.48,211.64,39.93z M190.94,29.64c0,0.32,0.18,0.6,0.43,0.79c0.39,0.3,0.98,0.36,1.46,0.32
			c0.3-0.39,0.56-0.74,0.53-1.26c-0.01-0.21-0.12-0.4-0.28-0.55c-0.42-0.41-1.1-0.38-1.64-0.36
			C191.19,28.89,190.93,29.22,190.94,29.64z M205.25,35.95c0.04,0.36,0.22,0.6,0.5,0.81c0.32,0.24,0.8,0.34,1.19,0.33
			c0.28-0.27,0.65-0.55,0.68-0.97c0.02-0.33-0.09-0.58-0.32-0.82c-0.34-0.36-0.99-0.57-1.48-0.62
			C205.49,35.05,205.19,35.41,205.25,35.95z M161.59,28.01c-0.12,0.31-0.12,0.56,0.05,0.85c0.14,0.25,0.54,0.5,0.81,0.53
			c0.24,0.03,0.54-0.03,0.78-0.06c0.33-0.08,0.52-0.06,0.68-0.39c0.15-0.3,0.13-0.63,0.01-0.93c-0.12-0.32-0.36-0.56-0.66-0.7
			c-0.27-0.01-0.54-0.02-0.8-0.02C162.13,27.45,161.73,27.63,161.59,28.01z M233.39,114.27c0,0.21,0.08,0.4,0.22,0.56
			c0.4,0.45,1,0.47,1.55,0.42c0.05,0,0.09-0.01,0.14-0.01c0.26-0.26,0.46-0.47,0.5-0.86c0.04-0.41-0.16-0.74-0.45-1.01
			c-0.37-0.33-0.75-0.39-1.24-0.39C233.73,113.37,233.39,113.7,233.39,114.27z M222.88,50.29c-0.02,0.37,0.12,0.79,0.39,1.05
			c0.32,0.31,0.61,0.52,1.06,0.58c0.33-0.21,0.76-0.43,0.87-0.83c0.09-0.32,0.07-0.63-0.11-0.91c-0.34-0.51-0.93-0.7-1.51-0.78
			C223.29,49.64,222.9,49.89,222.88,50.29z M147.38,32.68c-0.1,0.33-0.07,0.66,0.11,0.96c0.13,0.21,0.3,0.29,0.51,0.39l0.31-0.04
			c0.6-0.36,1.16-0.7,1.68-1.17c-0.31-0.46-0.58-0.94-1.03-1.28l-0.31-0.02C148.1,31.82,147.57,32.02,147.38,32.68z M153.91,30.03
			c0.15,0.47,0.25,1.02,0.66,1.33c0.24,0.02,0.4,0.02,0.63-0.06c0.52-0.12,1-0.23,1.29-0.73c0.13-0.21,0.13-0.39,0.13-0.63
			c-0.16-0.31-0.27-0.53-0.62-0.66c-0.27-0.1-0.65-0.1-0.93-0.09L153.91,30.03z M237.89,91.72c-0.15,0.3-0.22,0.6-0.1,0.92
			c0.11,0.3,0.38,0.53,0.64,0.7l0.75,0.1c0.34-0.1,0.56-0.11,0.75-0.45c0.2-0.34,0.21-0.81,0.08-1.17
			c-0.11-0.31-0.28-0.46-0.55-0.64l-0.55-0.06C238.57,91.25,238.07,91.36,237.89,91.72z M113.52,70.39
			c0.19,0.38,0.36,0.61,0.77,0.74c0.31,0.1,0.63,0.17,0.95,0.24c0.24-0.54,0.62-1.21,0.56-1.8c-0.19-0.32-0.23-0.45-0.61-0.58
			c-0.31-0.11-0.79-0.11-1.12-0.15C113.75,69.27,113.45,69.85,113.52,70.39z M134.38,141.8c0.47,0.61,0.81,1.11,1.58,1.35
			c0.42-0.26,0.88-0.5,1.02-1.01c0.07-0.24-0.04-0.53-0.18-0.73c-0.28-0.4-0.75-0.72-1.13-1.03
			C135.22,140.84,134.76,141.28,134.38,141.8z M110.81,100.8l1.7-0.22c0.08-0.62,0.21-1.3-0.06-1.88c-0.24-0.24-0.43-0.4-0.78-0.42
			c-0.36-0.02-0.74,0.02-1.1,0.05C110.55,99.18,110.64,99.95,110.81,100.8z M116.26,63.74c0.11,0.33,0.4,0.55,0.72,0.66
			c0.26,0.09,0.55,0.16,0.83,0.21c0.3-0.53,0.78-1.25,0.58-1.89c-0.1-0.32-0.37-0.54-0.67-0.64c-0.27-0.09-0.56-0.15-0.84-0.21
			C116.55,62.4,116.04,63.08,116.26,63.74z M216.9,138.32c-0.11,0.34-0.04,0.6,0.15,0.89c0.21,0.32,0.63,0.49,0.97,0.62
			c0.49-0.22,0.87-0.37,1.08-0.9c0.15-0.36,0.2-0.76,0-1.12c-0.15-0.27-0.41-0.48-0.71-0.55c-0.13-0.03-0.25-0.04-0.39-0.05
			C217.53,137.5,217.07,137.77,216.9,138.32z M237.32,99.87c0.01,0.38,0.19,0.65,0.48,0.87c0.39,0.29,0.73,0.32,1.19,0.31
			c0.39-0.32,0.7-0.6,0.74-1.15c0.03-0.36-0.11-0.66-0.38-0.9c-0.42-0.38-0.82-0.36-1.35-0.33
			C237.64,99.01,237.3,99.31,237.32,99.87z M234.03,69.57c-0.12,0.32-0.1,0.66,0.06,0.96c0.2,0.39,0.67,0.77,1.09,0.86
			c0.07,0.02,0.14,0.03,0.21,0.04c0.44-0.3,0.84-0.52,0.92-1.09c0.06-0.41-0.06-0.76-0.35-1.06c-0.3-0.31-0.62-0.42-1.03-0.49
			C234.6,68.99,234.17,69.2,234.03,69.57z M230.89,62.61c-0.1,0.47-0.1,0.81,0.19,1.22c0.3,0.44,0.6,0.61,1.12,0.71
			c0.48-0.3,0.91-0.53,1.04-1.13c0.07-0.3,0.02-0.62-0.19-0.87c-0.34-0.4-0.85-0.46-1.34-0.49
			C231.32,62.22,231.16,62.26,230.89,62.61z M204.82,147.02c-0.11,0.24-0.1,0.44-0.08,0.7c0.16,0.31,0.39,0.6,0.74,0.71
			c0.19,0.06,0.25,0.05,0.43,0.07c0.46-0.14,0.89-0.22,1.14-0.67c0.16-0.29,0.2-0.51,0.19-0.85c-0.14-0.35-0.32-0.63-0.68-0.78
			c-0.16-0.07-0.36-0.08-0.53-0.1C205.51,146.31,205.06,146.48,204.82,147.02z M111.86,75.85c0.35-0.02,0.91-0.05,1.23,0.15
			c0.23,0.15,0.47,0.53,0.5,0.81c0.06,0.5-0.17,1.18-0.43,1.61c-0.25-0.04-0.51-0.08-0.76-0.13c-0.5-0.1-0.72-0.2-1.01-0.64
			C111.25,76.96,111.56,76.46,111.86,75.85z M198.94,31.15c0.53,0.02,1.1,0.09,1.54,0.43c0.21,0.16,0.36,0.41,0.37,0.68
			c0.03,0.58-0.3,0.89-0.68,1.27c-0.4-0.01-1,0.01-1.34-0.22c-0.2-0.13-0.33-0.24-0.39-0.48C198.27,32.22,198.66,31.67,198.94,31.15
			z M199.06,149.47c0.24,0.02,0.58,0.04,0.81,0.14c0.04,0.02,0.08,0.04,0.11,0.06c0.04,0.02,0.07,0.04,0.11,0.07
			c0.03,0.02,0.07,0.05,0.1,0.08c0.03,0.03,0.06,0.06,0.09,0.09c0.03,0.03,0.05,0.06,0.08,0.1c0.03,0.03,0.05,0.07,0.07,0.11
			c0.02,0.04,0.04,0.07,0.06,0.11c0.02,0.04,0.03,0.08,0.05,0.12c0.11,0.31,0.04,0.65-0.12,0.93c-0.21,0.37-0.59,0.47-0.97,0.6
			c-0.45-0.02-0.84-0.03-1.15-0.42c-0.23-0.28-0.24-0.56-0.17-0.9C198.22,150.01,198.62,149.74,199.06,149.47z M237.12,75.99
			c0.16,0.01,0.42,0,0.59,0.05c0.33,0.11,0.61,0.36,0.76,0.68c0.15,0.3,0.12,0.65,0.01,0.96c-0.16,0.45-0.46,0.61-0.86,0.83
			c-0.13-0.01-0.27-0.02-0.4-0.05c-0.38-0.06-0.73-0.25-0.92-0.6c-0.15-0.27-0.17-0.57-0.09-0.87
			C236.35,76.48,236.69,76.26,237.12,75.99z M129.56,44.33c0.23,0.04,0.45,0.1,0.67,0.18c0.42,0.14,0.59,0.32,0.78,0.71
			c-0.05,0.85-0.58,1.25-1.15,1.79c-0.28-0.13-0.58-0.27-0.84-0.43c-0.31-0.19-0.45-0.39-0.54-0.74
			C128.57,45.14,129.06,44.78,129.56,44.33z M141.73,35.09c0.22,0.02,0.43,0.03,0.64,0.11c0.62,0.22,0.79,0.84,1.02,1.39
			c-0.43,0.38-0.92,0.69-1.39,1.02c-0.14,0.03-0.13,0.04-0.29,0.02c-0.28-0.04-0.57-0.18-0.72-0.42c-0.22-0.35-0.23-0.75-0.13-1.15
			C140.97,35.56,141.32,35.34,141.73,35.09z M184.32,153.4c0.27,0.02,0.58,0.03,0.83,0.1c0.33,0.09,0.64,0.4,0.8,0.7
			c0.14,0.27,0.16,0.57,0.04,0.85c-0.14,0.3-0.42,0.45-0.7,0.6c-0.26,0.02-0.58,0.07-0.84,0.04c-0.31-0.04-0.64-0.23-0.82-0.5
			c-0.12-0.19-0.18-0.39-0.15-0.61C183.56,153.99,183.87,153.75,184.32,153.4z M124.9,49.67c0.08,0.03,0.15,0.05,0.23,0.08
			c0.47,0.17,0.76,0.28,0.98,0.77c0.16,0.36,0.18,0.79,0.02,1.16c-0.02,0.04-0.04,0.08-0.06,0.12c-0.02,0.04-0.05,0.08-0.07,0.12
			c-0.03,0.04-0.05,0.07-0.08,0.11c-0.03,0.03-0.06,0.07-0.09,0.1c-0.03,0.03-0.07,0.06-0.1,0.09c-0.04,0.03-0.07,0.06-0.11,0.08
			c-0.04,0.03-0.08,0.05-0.12,0.07c-0.04,0.02-0.08,0.04-0.12,0.06c-0.35-0.09-0.88-0.2-1.17-0.43c-0.3-0.24-0.3-0.35-0.35-0.7
			C124.02,50.65,124.5,50.17,124.9,49.67z M161.35,153.02c0.61-0.04,1.38-0.07,1.88,0.34c0.26,0.22,0.38,0.39,0.39,0.73
			c0.01,0.41-0.28,0.76-0.54,1.03c-0.45,0.1-0.91,0.18-1.35,0.01c-0.32-0.12-0.58-0.35-0.68-0.69
			C160.89,153.93,161.13,153.47,161.35,153.02z M109.98,90.9c0.34-0.04,0.7-0.1,1.04-0.09c0.37,0,0.52,0.14,0.79,0.38
			c0.25,0.62,0.11,1.4,0.08,2.05c-0.36,0.07-0.82,0.18-1.19,0.16c-0.37-0.02-0.44-0.13-0.68-0.38
			C109.81,92.36,109.94,91.58,109.98,90.9z M147.35,148.3c0.41-0.03,0.79-0.01,1.16,0.17c0.38,0.19,0.7,0.46,0.81,0.9
			c0.14,0.55-0.1,0.91-0.4,1.34c-0.11,0-0.22,0.01-0.33,0.01c-0.91-0.01-1.27-0.33-1.9-0.97
			C146.88,149.24,147.11,148.77,147.35,148.3z M130.06,135.79c0.44,0.01,0.8,0.08,1.18,0.32c0.35,0.22,0.64,0.52,0.68,0.96
			c0.05,0.52-0.3,0.82-0.64,1.15c-0.49,0.07-0.86,0.06-1.29-0.22c-0.34-0.22-0.54-0.52-0.59-0.93
			C129.35,136.48,129.68,136.17,130.06,135.79z M117.96,118.97c0.11,0.01,0.17,0.01,0.29,0.05c0.78,0.24,1.06,1.19,1.35,1.87
			l-1.24,0.73c-0.13-0.01-0.23-0.02-0.36-0.05c-0.37-0.09-0.71-0.43-0.9-0.75c-0.19-0.32-0.22-0.79-0.08-1.14
			C117.18,119.3,117.62,119.14,117.96,118.97z M176.47,154.07l0.23-0.01c0.53-0.02,0.86-0.02,1.25,0.38
			c0.25,0.26,0.39,0.55,0.36,0.93c-0.04,0.55-0.27,0.82-0.67,1.16c-0.48,0-0.85-0.01-1.25-0.33c-0.31-0.25-0.54-0.58-0.54-0.99
			C175.85,154.66,176.08,154.41,176.47,154.07z M227.7,55.43c0.1-0.01,0.21-0.01,0.32-0.01c0.46,0.02,0.73,0.16,1.05,0.51
			c0.28,0.31,0.43,0.7,0.38,1.12c-0.06,0.52-0.38,0.75-0.78,1.02c-0.55-0.02-0.81-0.15-1.19-0.55c-0.3-0.31-0.47-0.74-0.42-1.17
			C227.11,55.94,227.42,55.7,227.7,55.43z M212.17,141.92c0.46,0.15,0.87,0.34,1.11,0.78c0.17,0.31,0.16,0.64,0.04,0.96
			c-0.23,0.62-0.65,0.8-1.23,1.05c-0.33-0.13-0.73-0.37-0.92-0.69c-0.19-0.32-0.22-0.59-0.11-0.94
			C211.24,142.47,211.65,142.22,212.17,141.92z M113.24,105.33l0.13-0.03c0.39,0.2,0.73,1.54,0.91,2.03
			c-0.46,0.32-0.92,0.53-1.43,0.75c-0.2-0.01-0.34-0.03-0.53-0.08c-0.35-0.64-0.44-1.43-0.64-2.14L113.24,105.33z M110.45,83.17
			c0.65-0.01,1.25,0.09,1.89,0.19c0,0.71,0.1,1.6-0.16,2.26c-0.15,0.01-0.31,0.01-0.46,0.02c-0.57,0.02-0.97,0.04-1.41-0.38
			C109.99,84.57,110.27,83.87,110.45,83.17z M135.56,39.6c0.23,0.03,0.19,0.02,0.37,0.08c0.53,0.19,0.82,0.35,1.05,0.88
			c-0.1,0.88-0.63,1.21-1.28,1.73c-0.27,0.03-0.82-0.17-1-0.36c-0.21-0.21-0.29-0.54-0.26-0.83
			C134.53,40.34,134.99,40.04,135.56,39.6z M115.28,112.34c0.37,0.08,0.49,0.21,0.71,0.52c0.33,0.46,0.75,1.03,0.66,1.62
			c-0.4,0.18-0.79,0.37-1.18,0.57c-0.19,0.02-0.24,0.05-0.41-0.01c-0.29-0.09-0.52-0.37-0.67-0.62c-0.29-0.5-0.24-0.98-0.11-1.51
			C114.54,112.55,114.89,112.48,115.28,112.34z M169.1,153.92c0.16,0.01,0.32,0.02,0.47,0.04c0.42,0.06,0.81,0.29,1.04,0.65
			c0.18,0.28,0.18,0.6,0.08,0.91c-0.13,0.43-0.54,0.62-0.9,0.83c-0.12-0.01-0.23-0.02-0.35-0.04c-0.48-0.06-0.97-0.19-1.23-0.65
			c-0.11-0.2-0.14-0.38-0.1-0.61C168.22,154.5,168.66,154.21,169.1,153.92z M154.56,150.93c0.58,0.05,1.09,0.08,1.56,0.46
			c0.25,0.2,0.45,0.47,0.45,0.81c0,0.53-0.33,0.87-0.7,1.19c-0.41-0.03-0.84-0.06-1.23-0.21c-0.41-0.16-0.62-0.38-0.8-0.78
			C153.84,151.74,154.12,151.38,154.56,150.93z M121.64,124.96c0.48,0.15,1.1,0.56,1.35,1.01c0.16,0.29,0.15,0.63,0.04,0.94
			c-0.15,0.42-0.73,0.66-1.1,0.86c-0.37-0.04-0.9-0.4-1.12-0.7c-0.25-0.34-0.3-0.7-0.21-1.11
			C120.72,125.45,121.23,125.22,121.64,124.96z M191.71,151.99l0.13,0c0.51-0.02,0.92-0.03,1.33,0.34c0.26,0.24,0.33,0.52,0.32,0.86
			c-0.02,0.61-0.48,0.99-0.9,1.35c-0.07,0.01-0.14,0.02-0.21,0.02c-0.43,0.02-0.77-0.11-1.06-0.42c-0.03-0.04-0.07-0.08-0.1-0.12
			c-0.03-0.04-0.06-0.08-0.08-0.13c-0.03-0.04-0.05-0.09-0.07-0.14c-0.02-0.05-0.04-0.09-0.05-0.14c-0.02-0.05-0.03-0.1-0.04-0.15
			c-0.01-0.05-0.02-0.1-0.02-0.15s-0.01-0.1,0-0.15c0-0.05,0-0.1,0.01-0.15C191.03,152.48,191.3,152.26,191.71,151.99z"/>
		<path class="st109" d="M172.25,34.88c0.44-0.02,0.88-0.04,1.32-0.05c0.44-0.01,0.88-0.01,1.32-0.01c0.44,0,0.88,0.01,1.32,0.02
			c0.44,0.01,0.88,0.03,1.32,0.05c0.44,0.02,0.88,0.05,1.32,0.08c0.44,0.03,0.88,0.07,1.32,0.11c0.44,0.04,0.88,0.09,1.31,0.14
			c0.44,0.05,0.87,0.11,1.31,0.17c0.44,0.06,0.87,0.13,1.31,0.2c0.43,0.07,0.87,0.15,1.3,0.23c0.43,0.08,0.86,0.17,1.3,0.26
			c0.43,0.09,0.86,0.19,1.29,0.29c0.43,0.1,0.86,0.21,1.28,0.32c0.43,0.11,0.85,0.23,1.27,0.35c0.42,0.12,0.84,0.25,1.26,0.38
			c0.42,0.13,0.84,0.27,1.26,0.41c0.42,0.14,0.83,0.29,1.25,0.44c0.41,0.15,0.82,0.31,1.23,0.47c0.41,0.16,0.82,0.33,1.22,0.5
			c0.41,0.17,0.81,0.35,1.21,0.53c0.4,0.18,0.8,0.37,1.2,0.56c0.4,0.19,0.79,0.39,1.18,0.59c0.39,0.2,0.78,0.4,1.17,0.61
			c0.39,0.21,0.77,0.42,1.16,0.64c0.38,0.22,0.76,0.44,1.14,0.67c0.38,0.23,0.75,0.46,1.12,0.7c0.37,0.24,0.74,0.48,1.11,0.72
			c0.37,0.24,0.73,0.49,1.09,0.75s0.72,0.51,1.07,0.77s0.71,0.53,1.05,0.8c0.35,0.27,0.69,0.54,1.03,0.82
			c0.34,0.28,0.68,0.56,1.02,0.85c0.35,0.3,0.7,0.6,1.05,0.91c0.35,0.31,0.69,0.62,1.03,0.93c0.34,0.31,0.67,0.63,1,0.96
			c0.33,0.32,0.66,0.65,0.98,0.98c0.32,0.33,0.64,0.67,0.96,1c0.31,0.34,0.62,0.68,0.93,1.03c0.31,0.35,0.61,0.7,0.9,1.05
			c0.3,0.35,0.59,0.71,0.88,1.07c0.29,0.36,0.57,0.73,0.85,1.09c0.28,0.37,0.55,0.74,0.82,1.12c0.27,0.38,0.54,0.75,0.8,1.14
			c0.26,0.38,0.52,0.77,0.77,1.15c0.25,0.39,0.5,0.78,0.74,1.17c0.24,0.39,0.48,0.79,0.71,1.19c0.23,0.4,0.46,0.8,0.68,1.21
			c0.22,0.41,0.44,0.81,0.65,1.22c0.21,0.41,0.42,0.82,0.62,1.24s0.4,0.83,0.59,1.26c0.19,0.42,0.38,0.84,0.56,1.27
			c0.18,0.43,0.36,0.85,0.52,1.28c0.17,0.43,0.33,0.86,0.49,1.3c0.16,0.43,0.31,0.87,0.46,1.31c0.15,0.44,0.29,0.88,0.43,1.32
			c0.14,0.44,0.27,0.88,0.4,1.33c0.13,0.44,0.25,0.89,0.36,1.34c0.12,0.45,0.22,0.9,0.33,1.35c0.1,0.45,0.2,0.9,0.3,1.35
			c0.09,0.45,0.18,0.91,0.26,1.36c0.08,0.45,0.16,0.91,0.23,1.37c0.07,0.46,0.14,0.91,0.19,1.37c0.06,0.46,0.11,0.92,0.16,1.38
			c0.05,0.46,0.09,0.92,0.13,1.38c0.03,0.45,0.06,0.91,0.08,1.36c0.02,0.45,0.04,0.91,0.05,1.36c0.01,0.45,0.02,0.91,0.02,1.36
			s-0.01,0.91-0.02,1.36c-0.01,0.45-0.03,0.91-0.05,1.36c-0.02,0.45-0.05,0.91-0.08,1.36c-0.03,0.45-0.07,0.91-0.12,1.36
			c-0.04,0.45-0.09,0.91-0.15,1.36c-0.06,0.45-0.12,0.9-0.18,1.35c-0.07,0.45-0.14,0.9-0.21,1.35c-0.08,0.45-0.16,0.9-0.25,1.34
			c-0.09,0.45-0.18,0.89-0.28,1.34c-0.1,0.44-0.2,0.89-0.31,1.33c-0.11,0.44-0.22,0.88-0.34,1.32c-0.12,0.44-0.25,0.88-0.38,1.31
			c-0.13,0.44-0.27,0.87-0.41,1.3c-0.14,0.43-0.29,0.86-0.44,1.29c-0.15,0.43-0.31,0.86-0.47,1.28c-0.16,0.43-0.33,0.85-0.5,1.27
			c-0.17,0.42-0.35,0.84-0.53,1.26c-0.18,0.42-0.37,0.83-0.56,1.24c-0.19,0.41-0.39,0.82-0.59,1.23c-0.2,0.41-0.41,0.81-0.62,1.21
			c-0.21,0.4-0.43,0.8-0.65,1.2c-0.22,0.4-0.45,0.79-0.68,1.18c-0.23,0.39-0.47,0.78-0.71,1.17c-0.24,0.39-0.49,0.77-0.74,1.15
			c-0.25,0.38-0.51,0.76-0.77,1.13c-0.26,0.37-0.52,0.74-0.79,1.11c-0.27,0.37-0.54,0.73-0.82,1.09c-0.28,0.36-0.56,0.72-0.85,1.07
			c-0.29,0.35-0.58,0.7-0.87,1.05c-10.73,12.38-23.42,18.64-39.74,19.82c-2.96,0.06-5.93,0.08-8.88-0.21
			c-11.53-1.1-22.05-5.88-30.8-13.39c-2.76-2.37-5.45-4.96-7.74-7.8c-6.91-8.53-10.92-19.38-11.72-30.27
			c-1.15-15.55,4.35-30.19,14.48-41.88c2.21-2.56,4.8-4.79,7.47-6.85C150.27,39.44,160.53,35.72,172.25,34.88z"/>
		<path class="st70" d="M171.82,38.14c0.44-0.03,0.88-0.05,1.32-0.07c0.44-0.02,0.88-0.03,1.32-0.04c0.44-0.01,0.88-0.01,1.32,0
			c0.44,0,0.88,0.01,1.32,0.03c0.44,0.02,0.88,0.04,1.32,0.06c0.44,0.03,0.88,0.06,1.31,0.1c0.44,0.04,0.87,0.08,1.31,0.13
			c0.44,0.05,0.87,0.1,1.31,0.16c0.44,0.06,0.87,0.12,1.3,0.19c0.43,0.07,0.87,0.15,1.3,0.23c0.43,0.08,0.86,0.17,1.29,0.26
			c0.43,0.09,0.86,0.19,1.28,0.29c0.43,0.1,0.85,0.21,1.28,0.32c0.42,0.11,0.85,0.23,1.27,0.35c0.42,0.12,0.84,0.25,1.26,0.39
			c0.42,0.13,0.83,0.27,1.25,0.42c0.41,0.14,0.83,0.29,1.24,0.45c0.41,0.15,0.82,0.31,1.23,0.48c0.41,0.16,0.81,0.33,1.21,0.51
			s0.8,0.35,1.2,0.54c0.4,0.18,0.79,0.37,1.19,0.57c0.39,0.19,0.78,0.39,1.17,0.6c0.39,0.2,0.77,0.41,1.16,0.63
			c0.38,0.21,0.76,0.43,1.14,0.66c0.38,0.22,0.75,0.45,1.13,0.68c0.37,0.23,0.74,0.47,1.11,0.71c0.37,0.24,0.73,0.49,1.09,0.74
			c0.36,0.25,0.72,0.51,1.07,0.77c0.35,0.26,0.7,0.52,1.05,0.79c0.35,0.27,0.69,0.54,1.03,0.82c0.34,0.28,0.68,0.56,1.01,0.84
			c0.33,0.29,0.66,0.58,0.99,0.87c0.32,0.29,0.64,0.58,0.95,0.88c0.31,0.3,0.63,0.6,0.93,0.91c0.31,0.31,0.61,0.61,0.91,0.93
			c0.3,0.31,0.6,0.63,0.89,0.95c0.29,0.32,0.58,0.64,0.86,0.97c0.28,0.33,0.56,0.66,0.84,0.99c0.28,0.33,0.55,0.67,0.82,1.01
			c0.27,0.34,0.53,0.68,0.79,1.03c0.26,0.35,0.51,0.7,0.76,1.05c0.25,0.35,0.5,0.71,0.74,1.07c0.24,0.36,0.48,0.72,0.71,1.09
			c0.23,0.37,0.46,0.73,0.69,1.1c0.22,0.37,0.44,0.74,0.66,1.12c0.22,0.38,0.43,0.75,0.63,1.14s0.41,0.77,0.6,1.15
			c0.2,0.39,0.39,0.77,0.57,1.17c0.19,0.39,0.37,0.78,0.55,1.18c0.18,0.4,0.35,0.79,0.52,1.19c0.17,0.4,0.33,0.8,0.49,1.2
			c0.16,0.4,0.31,0.81,0.46,1.22c0.15,0.41,0.29,0.82,0.43,1.23c0.14,0.41,0.27,0.82,0.4,1.24c0.13,0.41,0.25,0.83,0.37,1.25
			c0.12,0.42,0.23,0.84,0.34,1.26c0.11,0.42,0.21,0.84,0.31,1.26c0.1,0.42,0.19,0.85,0.28,1.27c0.09,0.42,0.17,0.85,0.24,1.28
			c0.08,0.43,0.15,0.85,0.21,1.28c0.07,0.43,0.13,0.86,0.18,1.29c0.06,0.43,0.11,0.86,0.15,1.29c0.04,0.43,0.08,0.86,0.12,1.29
			c0.03,0.43,0.06,0.86,0.09,1.3c0.82,13.89-4.37,27.76-13.58,38.11c-0.28,0.32-0.57,0.63-0.87,0.95c-0.29,0.31-0.59,0.62-0.89,0.93
			c-0.3,0.3-0.6,0.61-0.91,0.9s-0.62,0.59-0.93,0.88c-0.31,0.29-0.63,0.58-0.95,0.86c-0.32,0.28-0.65,0.56-0.97,0.83
			c-0.33,0.27-0.66,0.54-0.99,0.81c-0.33,0.27-0.67,0.53-1.01,0.79c-0.34,0.26-0.69,0.51-1.03,0.76c-0.35,0.25-0.7,0.49-1.05,0.74
			c-0.35,0.24-0.71,0.48-1.07,0.71c-0.36,0.23-0.72,0.46-1.09,0.68c-0.36,0.22-0.73,0.44-1.1,0.66c-0.37,0.21-0.74,0.42-1.12,0.63
			c-0.38,0.21-0.75,0.41-1.13,0.6c-0.38,0.2-0.76,0.39-1.15,0.57c-0.38,0.19-0.77,0.37-1.16,0.55c-0.39,0.18-0.78,0.35-1.17,0.52
			c-0.39,0.17-0.79,0.33-1.19,0.49c-0.4,0.16-0.8,0.31-1.2,0.46c-0.4,0.15-0.8,0.29-1.21,0.43c-0.4,0.14-0.81,0.27-1.22,0.4
			c-0.41,0.13-0.82,0.25-1.23,0.37c-0.41,0.12-0.82,0.23-1.24,0.34c-0.41,0.11-0.83,0.21-1.24,0.31c-0.42,0.1-0.83,0.19-1.25,0.28
			c-0.42,0.09-0.84,0.17-1.26,0.25c-0.42,0.08-0.84,0.15-1.26,0.22c-0.42,0.07-0.85,0.13-1.27,0.19c-0.42,0.06-0.85,0.11-1.27,0.16
			c-0.43,0.05-0.85,0.09-1.28,0.13c-0.43,0.04-0.85,0.07-1.28,0.1c-0.17,0.02-0.35,0.03-0.52,0.05
			c-13.96,1.02-28.06-4.4-38.54-13.51c-1.42-1.23-2.7-2.63-3.96-4.02c-7.48-8.26-12.55-18.92-13.34-30.12
			c-1.05-15.06,3.45-28.93,13.44-40.34c7.08-8.09,17.21-14.25,27.7-16.6C166.08,38.61,168.93,38.34,171.82,38.14z"/>
		<path class="st110" d="M141.88,107.66c3-0.18,6.08-0.02,9.08-0.01c-0.14,5.46-0.05,10.94-0.05,16.4c-2.97,0.16-6.05,0-9.03,0.02
			L141.88,107.66z M200.06,124.1c1.99-0.03,3.99-0.04,5.98-0.02c1.02,0.01,2.3,0.16,3.29-0.04c0.03-5.4-0.14-10.86,0.18-16.24
			l-9.39,0.01C200.28,113.2,200.25,118.71,200.06,124.1z M185.28,124.1c3.01-0.16,6.1-0.15,9.11-0.02
			c-0.01-10.47-0.22-20.94-0.03-31.41c-3.03-0.03-6.07-0.03-9.1-0.01C185.32,103.14,185.33,113.62,185.28,124.1z M156.37,124.08
			c3.06-0.05,6.12-0.05,9.17,0c-0.14-10.43,0.03-20.87-0.04-31.31c-3.05-0.07-6.1-0.1-9.15-0.08
			C156.33,103.14,156.15,113.64,156.37,124.08z M171.07,77.57l-0.12,46.39c0.22,0.19,0.2,0.15,0.47,0.16
			c2.84-0.03,5.68-0.05,8.52-0.03c-0.08-10.89-0.1-21.77-0.05-32.66c0-4.33,0.15-8.71,0-13.03c-0.01-0.33-0.01-0.58-0.17-0.88
			l-0.3-0.02C176.64,77.66,173.84,77.6,171.07,77.57z"/>
		<path class="st111" d="M151.43,58.77c0.24,0.01,0.46,0.02,0.68,0.12c0.33,0.14,0.43,0.36,0.53,0.67
			c-0.2,0.97-9.35,10.06-10.89,11.63c-0.22,0.15-0.35,0.18-0.61,0.19l-0.23-0.22c-0.2-0.7-0.09-1.47-0.06-2.19
			c1.89-2.2,4.18-4.17,6.28-6.17C148.54,61.46,149.88,59.95,151.43,58.77z M155.05,64.26c-2.3,2.21-4.55,4.48-6.86,6.68
			c-1.86,1.77-3.78,3.48-5.55,5.34c-0.54,0.57-1.02,1.14-1.41,1.83l0,2.8l0.95-0.95c1.64-1.47,3.06-3.08,4.62-4.63l7.56-7.46
			l5.28-5.24c0.93-0.92,1.96-1.78,2.77-2.82c-0.3-0.45-0.59-1.01-1.17-1.13c-0.12-0.03-0.16-0.02-0.27-0.02
			C158.73,60.19,157,62.38,155.05,64.26z M167.21,61.04c-1.28,1.32-2.47,2.73-3.77,4.03L150.4,77.86c-1.81,1.78-3.67,3.52-5.52,5.25
			c-1.07,1-2.43,1.95-3.22,3.19c-0.26,2.91,0.09,5.87-0.18,8.79c0.85-0.75,1.6-1.66,2.39-2.48c1.4-1.45,2.81-2.89,4.24-4.31
			c2.06-2.02,4.06-4.1,6.12-6.12c3.56-3.47,7.18-6.88,10.68-10.41c3.11-3.14,6.47-7.12,10.06-9.63c0.76,0.66,1.62,1.34,2.22,2.16
			c1.86,1.48,3.53,3.32,5.18,5.04c0.85,0.65,1.58,1.69,2.37,2.44c3.47,3.3,6.96,6.64,10.32,10.04c1.61,1.63,3.06,3.6,4.84,5.04
			l-0.16-8.31c-0.88-1.06-1.94-1.96-2.92-2.93c-1.45-1.43-2.85-2.91-4.33-4.3c-1.23-1.16-2.52-2.24-3.74-3.4
			c-2.69-2.56-5.14-5.37-7.79-7.96c-2.09-2.04-4.38-3.94-6.57-5.87C171.97,56.35,169.52,58.66,167.21,61.04z"/>
	</g>
</g>
</svg>
