<?xml version="1.0" encoding="utf-8"?>
<!-- Generator: Adobe Illustrator 27.8.1, SVG Export Plug-In . SVG Version: 6.00 Build 0)  -->
<svg version="1.1" xmlns="http://www.w3.org/2000/svg" xmlns:xlink="http://www.w3.org/1999/xlink" x="0px" y="0px"
	 viewBox="0 0 350 230" style="enable-background:new 0 0 350 230;" xml:space="preserve">
<style type="text/css">
	.st0{fill:#FFF5E6;}
	.st1{fill:#E9F7FF;}
	.st2{fill:#F2FFE9;}
	.st3{fill:#FFF0E9;}
	.st4{fill:#FBFFE9;}
	.st5{fill:#FFFEE9;}
	.st6{fill:#1C3464;}
	.st7{fill:#FFECE9;}
	.st8{fill:#FFEACC;}
	.st9{fill:#8ACBFB;}
	.st10{fill:#00B1F0;}
	.st11{fill:#231F20;}
	.st12{fill:#EE2724;}
	.st13{fill:#FFFFFF;}
	.st14{fill:#55B948;}
	.st15{fill:#342643;}
	.st16{fill:#4AB9EA;}
	.st17{fill:#1A5DAB;}
	.st18{fill:#2A419A;}
	.st19{fill:url(#SVGID_1_);}
	.st20{fill:url(#SVGID_00000065042601774921881570000011747570416018121375_);}
	.st21{fill:#3252A4;}
	.st22{fill:#AED136;}
	.st23{fill:#2C296A;}
	.st24{fill:#E6E7E7;}
	.st25{fill:#80C342;}
	.st26{fill:#87C540;}
	.st27{fill:#576A30;}
	.st28{fill:#FEBE2A;}
	.st29{fill:#163A63;}
	.st30{fill:#294DA1;}
	.st31{fill:#F26524;}
	.st32{fill:#95C93D;}
	.st33{fill:#007AC1;}
	.st34{fill:#AFD351;}
	.st35{fill:#165591;}
	.st36{fill:#8DD6F7;}
	.st37{fill:#284F9A;}
	.st38{fill:#192D56;}
	.st39{fill:#60B4E5;}
	.st40{fill:#22211D;}
	.st41{fill:#C62630;}
	.st42{fill:#EEEFBD;}
	.st43{fill:#B6F0A4;}
	.st44{fill:#D9F9CD;}
	.st45{fill:#FFF1AE;}
	.st46{fill:#F9D9A5;}
	.st47{fill:#FFD5B6;}
	.st48{fill:#B9EDF9;}
	.st49{fill:#5B5B45;}
	.st50{fill:#D8A036;}
	.st51{fill:url(#SVGID_00000100353329618117753660000002742735935242249896_);}
	.st52{fill:#FF9833;}
	.st53{fill:#C3552B;}
	.st54{fill:#676D97;}
	.st55{fill:#5C1923;}
	.st56{fill:#061E37;}
	.st57{fill:#C99D3C;}
	.st58{fill:#FEF2AB;}
	.st59{fill:none;stroke:#000000;stroke-miterlimit:10;}
	.st60{fill:#432237;}
	.st61{fill:url(#SVGID_00000029003937230025884600000018300363101126967222_);}
	.st62{fill:#DCD196;}
	.st63{fill:url(#SVGID_00000015335410790505174420000018025847839956127885_);}
	.st64{fill-rule:evenodd;clip-rule:evenodd;fill:#FFCB00;}
	.st65{fill-rule:evenodd;clip-rule:evenodd;fill:#FF0000;}
	.st66{fill-rule:evenodd;clip-rule:evenodd;fill:#FF6633;}
	.st67{fill-rule:evenodd;clip-rule:evenodd;fill:#FF9833;}
	.st68{fill-rule:evenodd;clip-rule:evenodd;fill:#FFFFFF;}
	.st69{fill:#A6A5A5;}
	.st70{fill:#FEFEFE;}
	.st71{fill:url(#SVGID_00000147900762065936060860000004116099518985310854_);}
	.st72{fill:#03AAE1;}
	.st73{fill:#087234;}
	.st74{fill:#F97507;}
	.st75{fill:#F4C558;}
	.st76{fill:#031C35;}
	.st77{fill:url(#SVGID_00000150072695696150786370000008677799283567137466_);}
	.st78{fill:#074755;}
	.st79{fill:#F58F14;}
	.st80{fill:#0899C0;}
	.st81{fill:#3A8A80;}
	.st82{fill:#E26F09;}
	.st83{fill:#E16505;}
	.st84{fill:#0565A9;}
	.st85{fill:#C5D3E0;}
	.st86{fill:url(#SVGID_00000030472601084303707210000004769451869095176356_);}
	.st87{fill:url(#SVGID_00000145765642313444633420000016873147558834035378_);}
	.st88{fill:url(#SVGID_00000091736323516727673900000006452241640477803190_);}
	.st89{fill:url(#SVGID_00000037670345987249322580000015531947508488262562_);}
	.st90{fill:url(#SVGID_00000123415178333454224510000014744719670249420719_);}
	.st91{fill:#29282A;}
	.st92{fill:url(#SVGID_00000125580647117511751190000013657055685711256973_);}
	.st93{fill:#151517;}
	.st94{fill:#1F3247;}
	.st95{fill:#C09B5E;}
	.st96{fill:#00AEEF;}
	.st97{fill:#94C43A;}
	.st98{fill:#CFAC6E;}
	.st99{fill:#333F5B;}
	.st100{fill-rule:evenodd;clip-rule:evenodd;fill:#98C73A;}
	.st101{fill-rule:evenodd;clip-rule:evenodd;fill:#333F5B;}
	.st102{fill:url(#SVGID_00000096022195639898139110000007563966250974966146_);}
	.st103{fill:url(#SVGID_00000062876000157971070570000008435710072242147230_);}
	.st104{fill:url(#SVGID_00000147907964560451677510000008971426664061637812_);}
	.st105{fill:url(#SVGID_00000059274479703709148640000013740007645275186829_);}
	.st106{fill:url(#SVGID_00000140014204295139579160000012267632148220321449_);}
	.st107{fill:#1E344C;}
	.st108{fill:#56A4B2;}
	.st109{fill:#195C8F;}
	.st110{fill:#B8C3CA;}
	.st111{fill:#F8C220;}
	.st112{fill:#0A5AA3;}
	.st113{fill:url(#SVGID_00000034788653660889241200000014307800652649898666_);}
	.st114{fill:url(#SVGID_00000132783825791823732660000011912950661860885150_);}
	.st115{fill:#074871;}
	.st116{fill:#21A7E0;}
	.st117{fill:url(#SVGID_00000056402210349639070000000012144267810664949690_);}
	.st118{fill:#C39038;}
	.st119{fill:#19324E;}
	.st120{fill:url(#SVGID_00000049220764371570998960000011395364376700088734_);}
	.st121{fill:#0B3D58;}
	.st122{fill:#FBB03B;}
	.st123{fill:url(#SVGID_00000140702206651426948280000004877239261393169793_);}
	.st124{fill:url(#SVGID_00000080168235624951257500000006338922889767427475_);}
	.st125{fill:url(#SVGID_00000128481048516628166580000012223431229092815274_);}
</style>
<g id="Layer_1">
</g>
<g id="Layer_2">
</g>
<g id="Layer_3">
</g>
<g id="Layer_4">
</g>
<g id="Layer_5">
</g>
<g id="Layer_6">
</g>
<g id="Layer_7">
</g>
<g id="Layer_8">
</g>
<g id="Layer_9">
</g>
<g id="Layer_10">
</g>
<g id="Layer_11">
</g>
<g id="Layer_12">
</g>
<g id="Layer_13">
</g>
<g id="Layer_14">
</g>
<g id="Layer_15">
	<radialGradient id="SVGID_1_" cx="175.0002" cy="89.8029" r="66.3174" gradientUnits="userSpaceOnUse">
		<stop  offset="0" style="stop-color:#1B9ECC"/>
		<stop  offset="1" style="stop-color:#1A6AC9"/>
	</radialGradient>
	<path class="st19" d="M154.34,71.28c-6.4-4.7-12.91-9.26-19.15-14.17c-2.67-2.1-4.13-2.1-6.02,0.86
		c-12.44,19.55-14.3,39.95-3.06,60.29c11.28,20.4,29.41,30.05,52.8,28.65c27.49-1.64,47.45-19.49,51.65-46.53
		c1.02-6.58,0.38-13.7-0.95-20.28c-1.04-5.12-0.97-9.1,2.79-12.78c0.7-0.69,1.26-1.53,2.17-2.65c4.45,7.78,5.61,16.14,6.15,24.64
		c2.34,37.36-28.06,67.04-64.19,67.29c-33.49,0.24-60.56-21.02-66.26-53.52c-2.65-15.1-0.54-29.76,7.01-43.44
		c0.95-1.72,1.12-4.36,0.62-6.31c-1.85-7.25-4.14-14.4-6.4-22.05c7.48,1.29,14.43,2.68,21.44,3.59c2.33,0.3,4.94-0.27,7.21-1.05
		c9.24-3.2,18.23-7.2,27.62-9.82c9.03-2.52,11.61-0.57,15.68,9.13c-17.38-1.44-32.55,3.67-46.42,14.45
		c6.17,7.84,12.12,15.39,18.06,22.95C154.83,70.79,154.58,71.04,154.34,71.28z M124.64,101.22c1.77,0,2.17,0.07,2.52-0.01
		c34.26-8.14,63.39-25.52,88.85-49.45c5.64-5.3,5.54-5.4,11.99-0.53c2.31-8.13,4.57-16.07,7.04-24.75
		c-9.17,2.29-17.51,4.37-26.7,6.67c2.75,2.43,4.87,4.3,7.51,6.63C189.76,66.66,158.68,85.03,124.64,101.22z M189.17,139.32
		c3.98-0.39,4.98-2.41,4.94-6.2c-0.14-13.95,0.05-27.9,0.09-41.84c0-1.37-0.2-2.74-0.33-4.46c-3.36,0-6.34,0.12-9.3-0.04
		c-2.78-0.15-3.82,0.94-3.75,3.72c0.14,5.69,0.07,11.38,0.08,17.07c0.01,10.93,0,21.86,0,33.57
		C184.24,140.38,186.68,139.57,189.17,139.32z M210.32,127.55c1.09-0.96,1.81-2.9,1.82-4.4c0.15-14.24,0.14-28.47,0.11-42.71
		c-0.02-8.59,0.74-6.81-7.32-7.27c-3.87-0.22-4.9,1.19-4.86,4.84c0.15,14.38,0.06,28.76,0.06,43.14c0,4.25,0,8.5,0,13.98
		C204.26,132.12,207.48,130.05,210.32,127.55z M164.1,97.16c-2.36-0.08-2.87,1.11-2.87,3.15c0.04,12.07-0.05,24.15,0.12,36.22
		c0.02,1.15,1.31,3.07,2.3,3.29c3.51,0.78,7.16,0.98,11.05,1.43c0-14.95,0-29.23,0-44.06C170.87,97.19,167.48,97.28,164.1,97.16z
		 M141.45,127.21c0.02,0.97,0.55,2.33,1.3,2.83c3.83,2.59,7.81,4.95,12.18,7.67c0-10.16,0-19.42,0-28.89c-4.53,0-8.74,0-13.54,0
		C141.4,115.29,141.34,121.25,141.45,127.21z"/>
</g>
</svg>
