<?xml version="1.0" encoding="utf-8"?>
<!-- Generator: Adobe Illustrator 27.8.1, SVG Export Plug-In . SVG Version: 6.00 Build 0)  -->
<svg version="1.1" xmlns="http://www.w3.org/2000/svg" xmlns:xlink="http://www.w3.org/1999/xlink" x="0px" y="0px"
	 viewBox="0 0 350 230" style="enable-background:new 0 0 350 230;" xml:space="preserve">
<style type="text/css">
	.st0{fill:#FFF5E6;}
	.st1{fill:#E9F7FF;}
	.st2{fill:#F2FFE9;}
	.st3{fill:#FFF0E9;}
	.st4{fill:#FBFFE9;}
	.st5{fill:#FFFEE9;}
	.st6{fill:#1C3464;}
	.st7{fill:#FFECE9;}
	.st8{fill:#FFEACC;}
	.st9{fill:#8ACBFB;}
	.st10{fill:#00B1F0;}
	.st11{fill:#231F20;}
	.st12{fill:#EE2724;}
	.st13{fill:#FFFFFF;}
	.st14{fill:#55B948;}
	.st15{fill:#342643;}
	.st16{fill:#4AB9EA;}
	.st17{fill:#1A5DAB;}
	.st18{fill:#2A419A;}
	.st19{fill:url(#SVGID_1_);}
	.st20{fill:url(#SVGID_00000059290267427149415430000012084196134888806827_);}
	.st21{fill:#3252A4;}
	.st22{fill:#AED136;}
	.st23{fill:#2C296A;}
	.st24{fill:#E6E7E7;}
	.st25{fill:#80C342;}
	.st26{fill:#87C540;}
	.st27{fill:#576A30;}
	.st28{fill:#FEBE2A;}
	.st29{fill:#163A63;}
	.st30{fill:#294DA1;}
	.st31{fill:#F26524;}
	.st32{fill:#95C93D;}
	.st33{fill:#007AC1;}
	.st34{fill:#AFD351;}
	.st35{fill:#165591;}
	.st36{fill:#8DD6F7;}
	.st37{fill:#284F9A;}
	.st38{fill:#192D56;}
	.st39{fill:#60B4E5;}
	.st40{fill:#22211D;}
	.st41{fill:#C62630;}
	.st42{fill:#EEEFBD;}
	.st43{fill:#B6F0A4;}
	.st44{fill:#D9F9CD;}
	.st45{fill:#FFF1AE;}
	.st46{fill:#F9D9A5;}
	.st47{fill:#FFD5B6;}
	.st48{fill:#B9EDF9;}
	.st49{fill:#5B5B45;}
	.st50{fill:#D8A036;}
	.st51{fill:url(#SVGID_00000108988481235606694270000011415586179769324220_);}
	.st52{fill:#FF9833;}
	.st53{fill:#C3552B;}
	.st54{fill:#676D97;}
	.st55{fill:#5C1923;}
	.st56{fill:#061E37;}
	.st57{fill:#C99D3C;}
	.st58{fill:#FEF2AB;}
	.st59{fill:none;stroke:#000000;stroke-miterlimit:10;}
	.st60{fill:#432237;}
	.st61{fill:url(#SVGID_00000147926088478236036930000004556541985083913122_);}
	.st62{fill:#DCD196;}
	.st63{fill:url(#SVGID_00000059990419268460457510000005596275724521250977_);}
	.st64{fill-rule:evenodd;clip-rule:evenodd;fill:#FFCB00;}
	.st65{fill-rule:evenodd;clip-rule:evenodd;fill:#FF0000;}
	.st66{fill-rule:evenodd;clip-rule:evenodd;fill:#FF6633;}
	.st67{fill-rule:evenodd;clip-rule:evenodd;fill:#FF9833;}
	.st68{fill-rule:evenodd;clip-rule:evenodd;fill:#FFFFFF;}
	.st69{fill:#A6A5A5;}
	.st70{fill:#FEFEFE;}
	.st71{fill:url(#SVGID_00000072993483948017057710000015152628204612660145_);}
	.st72{fill:#03AAE1;}
	.st73{fill:#087234;}
	.st74{fill:#F97507;}
	.st75{fill:#F4C558;}
	.st76{fill:#031C35;}
	.st77{fill:url(#SVGID_00000129166444135463718410000008554851718655459211_);}
	.st78{fill:#074755;}
	.st79{fill:#F58F14;}
	.st80{fill:#0899C0;}
	.st81{fill:#3A8A80;}
	.st82{fill:#E26F09;}
	.st83{fill:#E16505;}
	.st84{fill:#0565A9;}
	.st85{fill:#C5D3E0;}
	.st86{fill:url(#SVGID_00000075134191432916312350000002711025269474786975_);}
	.st87{fill:url(#SVGID_00000024705238463110832650000012218056600818727300_);}
	.st88{fill:url(#SVGID_00000118363494634469413670000015103139681048810424_);}
	.st89{fill:url(#SVGID_00000006707624425720840490000008400823621662308480_);}
	.st90{fill:url(#SVGID_00000181793384171300545140000013626144118046149253_);}
	.st91{fill:#29282A;}
	.st92{fill:url(#SVGID_00000174580594538587859420000012652386434420289702_);}
	.st93{fill:#151517;}
	.st94{fill:#1F3247;}
	.st95{fill:#C09B5E;}
	.st96{fill:#00AEEF;}
	.st97{fill:#94C43A;}
	.st98{fill:#CFAC6E;}
	.st99{fill:#333F5B;}
	.st100{fill-rule:evenodd;clip-rule:evenodd;fill:#98C73A;}
	.st101{fill-rule:evenodd;clip-rule:evenodd;fill:#333F5B;}
	.st102{fill:url(#SVGID_00000127024872591560933650000015219218619262829474_);}
	.st103{fill:url(#SVGID_00000170978066509762513330000010234123219830593454_);}
	.st104{fill:url(#SVGID_00000090981546464697626490000012503586033058559406_);}
	.st105{fill:url(#SVGID_00000144305213991200958710000012556730422838116543_);}
	.st106{fill:url(#SVGID_00000011007886764423537270000012534059373017013415_);}
	.st107{fill:#1E344C;}
	.st108{fill:#56A4B2;}
	.st109{fill:#195C8F;}
	.st110{fill:#B8C3CA;}
	.st111{fill:#F8C220;}
	.st112{fill:#0A5AA3;}
	.st113{fill:url(#SVGID_00000027579283439863721150000004308034118380349111_);}
	.st114{fill:url(#SVGID_00000135665778571741792410000002604006630220322988_);}
	.st115{fill:#074871;}
	.st116{fill:#21A7E0;}
	.st117{fill:url(#SVGID_00000170236945731195605820000008335152862297472955_);}
	.st118{fill:#C39038;}
	.st119{fill:#19324E;}
	.st120{fill:url(#SVGID_00000145740182953486435540000016539933590461119363_);}
	.st121{fill:#0B3D58;}
	.st122{fill:#FBB03B;}
	.st123{fill:url(#SVGID_00000038381810107926800960000012377096409375862411_);}
	.st124{fill:url(#SVGID_00000130644366638515737180000007356396904509162891_);}
	.st125{fill:url(#SVGID_00000115509303280717261360000003368153642735787441_);}
</style>
<g id="Layer_1">
</g>
<g id="Layer_2">
</g>
<g id="Layer_3">
</g>
<g id="Layer_4">
</g>
<g id="Layer_5">
</g>
<g id="Layer_6">
</g>
<g id="Layer_7">
</g>
<g id="Layer_8">
</g>
<g id="Layer_9">
</g>
<g id="Layer_10">
</g>
<g id="Layer_11">
</g>
<g id="Layer_12">
</g>
<g id="Layer_13">
</g>
<g id="Layer_14">
</g>
<g id="Layer_15">
	<linearGradient id="SVGID_1_" gradientUnits="userSpaceOnUse" x1="111.2687" y1="98.2939" x2="238.7294" y2="98.2939">
		<stop  offset="0" style="stop-color:#961C1F"/>
		<stop  offset="0.5" style="stop-color:#B0605D"/>
		<stop  offset="0.5995" style="stop-color:#9A4C4A"/>
		<stop  offset="0.7636" style="stop-color:#7B3031"/>
		<stop  offset="0.9029" style="stop-color:#681F21"/>
		<stop  offset="1" style="stop-color:#61191B"/>
	</linearGradient>
	<path class="st19" d="M169.67,153.86c20.38-9.8,41.78-16.88,64.67-19.61c-24.26,6.83-47.49,15.57-68.44,29.56
		c-9.25-43.32-22.19-85.8-35.75-128.39c2.5-0.4,4.96-0.9,7.44-1.17c18.59-1.96,37.21-1.75,55.83-0.62
		c13.05,0.79,26.01,2.29,38.85,4.77c1.28,0.25,2.55,0.58,3.84,0.76c0.93,0.13,1.19,0.6,1.23,1.46c0.36,6.69,0.84,13.38,1.11,20.08
		c0.22,5.65,0.2,11.32,0.28,16.98c0.01,0.59,0,1.19-0.17,1.78c-0.56-5.1-1.05-10.21-1.7-15.29c-0.91-7.12-1.97-14.22-2.9-21.34
		c-0.16-1.24-0.77-1.69-1.91-1.8c-7.01-0.68-14.01-1.8-21.04-1.99c-11.96-0.33-23.95-0.34-35.91,0.01
		c-9.91,0.29-19.8,1.29-29.7,1.99c-0.68,0.05-1.36,0.21-2.18,0.34c5.72,18.51,10.66,37.08,14.72,55.86
		C162.01,116.03,165.75,134.88,169.67,153.86z M233.68,101.74c-0.86-10.41-1.75-20.81-2.83-31.2c-0.78-7.57-1.88-15.11-2.88-22.65
		c-0.04-0.32-0.53-0.81-0.84-0.83c-6.59-0.55-13.18-1.04-19.77-1.54c-0.15-0.01-0.31,0.06-0.51,0.1
		c4.15,28.17,7.62,56.35,10.15,84.55c6.18-0.98,12.26-1.94,18.55-2.94C234.94,118.75,234.38,110.24,233.68,101.74z M208.35,115.65
		c-1.89-13.31-3.94-26.59-5.85-39.9c-0.19-1.3-0.7-1.8-1.93-1.86c-4.47-0.22-8.95-0.49-13.42-0.72c-0.85-0.04-1.7-0.01-2.43-0.01
		c3.41,21.16,6.79,42.14,10.17,63.12c5.05-1.48,10.12-2.96,15.33-4.49C209.59,126.37,209.11,120.99,208.35,115.65z M188.44,138.13
		c-1.27-7.9-2.48-15.8-3.85-23.68c-1.12-6.47-2.42-12.9-3.67-19.34c-0.13-0.64-0.01-1.54-1.17-1.53
		c-5.17,0.03-10.34,0.01-15.54,0.01c3.49,17.08,6.92,33.83,10.33,50.53c4.61-1.65,9.26-3.31,14.01-5.01
		C188.51,138.73,188.48,138.43,188.44,138.13z M157.88,154.43c0.07-0.18,0.1-0.35,0.06-0.51c-5.41-24.11-11.53-48.02-19.67-71.37
		c-3.46-9.92-7.59-19.61-11.39-29.42c-0.45-1.16-1.09-1.53-2.33-1.38c-2.59,0.32-5.19,0.48-7.99,0.73
		C133.47,85.39,147.09,119.33,157.88,154.43z M145.07,157.04c0.06-0.15,0.08-0.29,0.05-0.41c-4.42-19.73-9.44-39.3-16.1-58.41
		c-2.83-8.12-6.22-16.05-9.32-24.07c-0.37-0.95-0.89-1.25-1.9-1.13c-2.12,0.26-4.25,0.4-6.54,0.6
		C125.1,100.54,136.24,128.32,145.07,157.04z"/>
</g>
</svg>
