<?xml version="1.0" encoding="utf-8"?>
<!-- Generator: Adobe Illustrator 27.8.1, SVG Export Plug-In . SVG Version: 6.00 Build 0)  -->
<svg version="1.1" xmlns="http://www.w3.org/2000/svg" xmlns:xlink="http://www.w3.org/1999/xlink" x="0px" y="0px"
	 viewBox="0 0 350 230" style="enable-background:new 0 0 350 230;" xml:space="preserve">
<style type="text/css">
	.st0{fill:#FFF5E6;}
	.st1{fill:#E9F7FF;}
	.st2{fill:#F2FFE9;}
	.st3{fill:#FFF0E9;}
	.st4{fill:#FBFFE9;}
	.st5{fill:#FFFEE9;}
	.st6{fill:#1C3464;}
	.st7{fill:#FFECE9;}
	.st8{fill:#FFEACC;}
	.st9{fill:#8ACBFB;}
	.st10{fill:#00B1F0;}
	.st11{fill:#231F20;}
	.st12{fill:#EE2724;}
	.st13{fill:#FFFFFF;}
	.st14{fill:#55B948;}
	.st15{fill:#342643;}
	.st16{fill:#4AB9EA;}
	.st17{fill:#1A5DAB;}
	.st18{fill:#2A419A;}
	.st19{fill:url(#SVGID_1_);}
	.st20{fill:url(#SVGID_00000157998290855426220840000001660186141857054631_);}
	.st21{fill:#3252A4;}
	.st22{fill:#AED136;}
	.st23{fill:#2C296A;}
	.st24{fill:#E6E7E7;}
	.st25{fill:#80C342;}
	.st26{fill:#87C540;}
	.st27{fill:#576A30;}
	.st28{fill:#FEBE2A;}
	.st29{fill:#163A63;}
	.st30{fill:#294DA1;}
	.st31{fill:#F26524;}
	.st32{fill:#95C93D;}
	.st33{fill:#007AC1;}
	.st34{fill:#AFD351;}
	.st35{fill:#165591;}
	.st36{fill:#8DD6F7;}
	.st37{fill:#284F9A;}
	.st38{fill:#192D56;}
	.st39{fill:#60B4E5;}
	.st40{fill:#22211D;}
	.st41{fill:#C62630;}
	.st42{fill:#EEEFBD;}
	.st43{fill:#B6F0A4;}
	.st44{fill:#D9F9CD;}
	.st45{fill:#FFF1AE;}
	.st46{fill:#F9D9A5;}
	.st47{fill:#FFD5B6;}
	.st48{fill:#B9EDF9;}
	.st49{fill:#5B5B45;}
	.st50{fill:#D8A036;}
	.st51{fill:url(#SVGID_00000142855789047018156000000003083495350933495456_);}
	.st52{fill:#FF9833;}
	.st53{fill:#C3552B;}
	.st54{fill:#676D97;}
	.st55{fill:#5C1923;}
	.st56{fill:#061E37;}
	.st57{fill:#C99D3C;}
	.st58{fill:#FEF2AB;}
	.st59{fill:none;stroke:#000000;stroke-miterlimit:10;}
	.st60{fill:#432237;}
	.st61{fill:url(#SVGID_00000074422295013592246160000002603652032258064300_);}
	.st62{fill:#DCD196;}
	.st63{fill:url(#SVGID_00000000221915580696908980000009146227433703766964_);}
	.st64{fill-rule:evenodd;clip-rule:evenodd;fill:#FFCB00;}
	.st65{fill-rule:evenodd;clip-rule:evenodd;fill:#FF0000;}
	.st66{fill-rule:evenodd;clip-rule:evenodd;fill:#FF6633;}
	.st67{fill-rule:evenodd;clip-rule:evenodd;fill:#FF9833;}
	.st68{fill-rule:evenodd;clip-rule:evenodd;fill:#FFFFFF;}
	.st69{fill:#A6A5A5;}
	.st70{fill:#FEFEFE;}
	.st71{fill:url(#SVGID_00000011747575768100144130000014342376221082971311_);}
	.st72{fill:#03AAE1;}
	.st73{fill:#087234;}
	.st74{fill:#F97507;}
	.st75{fill:#F4C558;}
	.st76{fill:#031C35;}
	.st77{fill:url(#SVGID_00000046316259177161096330000005050104059489605779_);}
	.st78{fill:#074755;}
	.st79{fill:#F58F14;}
	.st80{fill:#0899C0;}
	.st81{fill:#3A8A80;}
	.st82{fill:#E26F09;}
	.st83{fill:#E16505;}
	.st84{fill:#0565A9;}
	.st85{fill:#C5D3E0;}
	.st86{fill:url(#SVGID_00000066482932507943105700000005389327647509304468_);}
	.st87{fill:url(#SVGID_00000051351725462101013330000002640820525990817689_);}
	.st88{fill:url(#SVGID_00000028321635657827273710000009731990960348547483_);}
	.st89{fill:url(#SVGID_00000082370778400601315050000010805743299937009536_);}
	.st90{fill:url(#SVGID_00000014606161542354716310000001931716817543196550_);}
	.st91{fill:#29282A;}
	.st92{fill:url(#SVGID_00000145051338300478102140000012566635317369660821_);}
	.st93{fill:#151517;}
	.st94{fill:#1F3247;}
	.st95{fill:#C09B5E;}
	.st96{fill:#00AEEF;}
	.st97{fill:#94C43A;}
	.st98{fill:#CFAC6E;}
	.st99{fill:#333F5B;}
	.st100{fill-rule:evenodd;clip-rule:evenodd;fill:#98C73A;}
	.st101{fill-rule:evenodd;clip-rule:evenodd;fill:#333F5B;}
	.st102{fill:url(#SVGID_00000121248655832402075110000014861194565840529586_);}
	.st103{fill:url(#SVGID_00000093893410378280881300000014766846149508938134_);}
	.st104{fill:url(#SVGID_00000066477838616663243400000015471099207068245167_);}
	.st105{fill:url(#SVGID_00000183961227875135116910000003901793370039949967_);}
	.st106{fill:url(#SVGID_00000146486856931135000550000014497745885859638417_);}
	.st107{fill:#1E344C;}
	.st108{fill:#56A4B2;}
	.st109{fill:#195C8F;}
	.st110{fill:#B8C3CA;}
	.st111{fill:#F8C220;}
	.st112{fill:#0A5AA3;}
	.st113{fill:url(#SVGID_00000128473833819961877080000014074456117401108151_);}
	.st114{fill:url(#SVGID_00000120539742379836309900000000815359758968684963_);}
	.st115{fill:#074871;}
	.st116{fill:#21A7E0;}
	.st117{fill:url(#SVGID_00000148656798149244958470000000547154726312291495_);}
	.st118{fill:#C39038;}
	.st119{fill:#19324E;}
	.st120{fill:url(#SVGID_00000083793017458701567540000017106393159821372318_);}
	.st121{fill:#0B3D58;}
	.st122{fill:#FBB03B;}
	.st123{fill:url(#SVGID_00000147200341077984929200000001680714990369888183_);}
	.st124{fill:url(#SVGID_00000169524984583059821720000016426239925821228425_);}
	.st125{fill:url(#SVGID_00000157281502751261215460000016919175602793958042_);}
</style>
<g id="Layer_1">
</g>
<g id="Layer_2">
</g>
<g id="Layer_3">
</g>
<g id="Layer_4">
</g>
<g id="Layer_5">
</g>
<g id="Layer_6">
</g>
<g id="Layer_7">
</g>
<g id="Layer_8">
</g>
<g id="Layer_9">
</g>
<g id="Layer_10">
</g>
<g id="Layer_11">
</g>
<g id="Layer_12">
</g>
<g id="Layer_13">
</g>
<g id="Layer_14">
</g>
<g id="Layer_15">
	<g>
		<path class="st100" d="M218.77,68.05c0-24.17-19.6-43.77-43.77-43.77s-43.77,19.6-43.77,43.77c0,0.92,0.03,1.83,0.08,2.73
			l-0.05,72.31c0-0.01,0-0.01,0-0.02c0.12-17.92,14.68-32.4,32.63-32.4c0.4,0,0.79,0.01,1.19,0.02c3.53,0.13,6.44,1.13,9.92,1.13
			C199.17,111.82,218.77,92.22,218.77,68.05L218.77,68.05z M174.85,38.96c16.02,0,29.01,12.99,29.01,29.01
			c0,16.02-12.99,29.01-29.01,29.01s-29.01-12.99-29.01-29.01C145.84,51.94,158.83,38.96,174.85,38.96L174.85,38.96z"/>
		<path class="st101" d="M165.58,74.36c-0.19,0.25-0.49,0.41-0.83,0.41c-0.25,0-0.48-0.09-0.66-0.24l-0.01-0.01l0,0l-0.01,0
			l-0.01-0.01l0,0l-0.01-0.01l-0.01-0.01l0,0l-0.01-0.01l-0.01-0.01l0,0l-0.01-0.01L164,74.45l0,0l-0.01-0.01l0,0l-0.01-0.01
			l-0.01-0.01l0,0l-0.01-0.01l-0.01-0.01l0,0l-0.01-0.01l-0.01-0.01l0,0l-0.01-0.01l0-0.01l0,0l-0.01-0.01l0,0l-0.01-0.01
			l-0.01-0.01l0,0l-0.01-0.01l-0.01-0.01l0,0l-0.01-0.01l-0.01-0.01l0,0l-0.01-0.01l0-0.01l0-0.01l-0.01-0.01l0,0l0-0.01l-0.01-0.01
			l0,0l-0.01-0.01l-0.01-0.01l0,0l-0.01-0.01l0-0.01l0,0l-0.01-0.01l0-0.01l0-0.01l-0.01-0.01l0,0l0-0.01l0-0.01l0-0.01l0-0.01l0,0
			l0-0.01l0-0.01l0-0.01l0-0.01l0,0l0-0.01l0-0.01l0,0l0-0.01l0-0.01l0,0l0-0.01l0-0.01l0,0l0-0.02l0-0.01l0-0.01l0,0l0-0.01l0-0.01
			l0,0l0-0.01l0-0.01l0,0l0-0.01l0-0.01l0-0.01l0-0.01l0-0.01l0-0.01l0-0.01l0,0l0-0.01l0-0.01v0v0v0v0v0l0,0v0v0l0,0v0v0v0l0,0v0
			l0,0v0l0,0l0,0v0l0,0l0,0l0,0v0v0v0l0,0l0,0l0,0l0-0.01l0,0l0,0l0,0v0v0l0,0l0,0l0-0.01l0,0l0,0l0,0l0,0l0,0l0-0.01l0,0l0,0l0,0
			l0,0l0,0l0,0l0,0l0,0l0,0l0,0l0,0l0,0l0,0l0,0l0,0c0.07-0.5,0.5-0.88,1.02-0.88c0.44,0,0.81,0.27,0.96,0.65l0,0l0,0l0,0.01l0,0.01
			l0,0.01l0,0l0,0l0,0.01l0,0.01l0,0.01l0,0.01v0l0,0.01l0,0.01l0,0.01l0,0.01l0,0l0,0l0,0.01l0,0.01l0,0.01l0,0l0,0l0,0.01l0,0.01
			l0,0.01l0,0l0,0l0,0.01l0,0.01l0,0.01l0,0.01v0l0,0.01l0,0.01l0,0.01l0,0.01l0,0l0,0.01l0,0.01l0,0.01l0,0.01l0,0l0,0.01l0,0.01
			l0,0l0,0l0,0.01l0,0.02l0,0l0,0.01l0,0.01l0,0.01v0l0,0.01l0,0.01l0,0.01l0,0l0,0.01l0,0.01l0,0.01l0,0l0,0l0,0.01l0,0.01l0,0.01
			l0,0v0l0,0.01v0.01l0,0.01v0.01v0.01l0,0.01v0l0,0.01l0,0.01l0,0.01l0,0l0,0.01l0,0.01l0,0l0,0.02l0,0.01l0,0l0,0.01l0,0.01l0,0
			l0,0.01l0,0.01l0,0.01l0,0l0,0.01l0,0.01l0,0l0,0.01l0,0.01l0,0.01l0,0l0,0.01l0,0.01v0l0,0.01l0,0.01l0,0l0,0.01l0,0.01l0,0.01
			l0,0l0,0.01l0,0.01l0,0l0,0.01l0,0.01l0,0.01l0,0l0,0.01l0,0.01l0,0l-0.01,0.02l0,0l0,0.01l0,0l0,0.01l0,0.01l0,0l-0.01,0.02
			l0,0.01l0,0l0,0.01l0,0.01l0,0l0,0.01l0,0.01l0,0l0,0l0,0.01l0,0.01l0,0l0,0.01l0,0.01l-0.01,0.01l-0.01,0.01l0,0.01l0,0
			l-0.01,0.01l-0.01,0.01l0,0l0,0.01l-0.01,0.01l0,0.01l0,0l-0.01,0.01l-0.01,0.01l0,0l0,0.01L165.58,74.36L165.58,74.36
			L165.58,74.36L165.58,74.36z M174.46,74.83c-0.57,0-1.03,0.46-1.03,1.03c0,0.57,0.46,1.03,1.03,1.03c0.57,0,1.03-0.46,1.03-1.03
			C175.5,75.29,175.03,74.83,174.46,74.83L174.46,74.83z M186.83,65.74L186.83,65.74L186.83,65.74l0.01-0.02l0-0.01l0,0l0-0.01
			l0-0.01l0,0l0-0.01l0-0.01l0-0.01l0,0l0-0.01l0-0.01l0,0l0-0.01l0-0.01l0-0.01l0-0.01l0-0.01l0,0l0-0.01l0-0.01l0,0l0-0.01l0-0.01
			l0-0.01v0l0-0.01l0-0.01l0,0l0-0.01l0-0.02l0,0l0-0.01l0-0.01l0,0l0-0.01l0,0l0-0.02l0,0l0-0.01l0-0.01v0l0-0.01l0-0.01l0-0.01
			l0,0l0-0.01l0-0.01v0l0-0.01v-0.01l0-0.01v-0.01l0-0.01l0-0.01l0,0l0-0.01l0-0.01l0,0l0-0.01l0-0.01l0-0.01l0,0l0-0.01l0-0.01l0,0
			l0-0.01l0-0.01l0-0.01l0,0l0-0.01l0-0.01l0,0l0-0.01l0-0.02l0,0l0-0.01l0-0.01l0,0l0-0.01l0-0.01l0-0.01l0,0l0-0.01l0-0.01l0-0.01
			l0-0.01l0-0.01l0-0.01l0,0l0,0l0-0.01l0-0.01l0-0.01l0,0l0,0l0-0.01l0-0.01l0-0.01l0,0l0-0.01l0-0.01l0-0.01l0,0l0-0.01l0-0.01
			l0-0.01l0,0l-0.01-0.02l0-0.01l0,0l0,0l0-0.01l0-0.01l0,0l0-0.01l0-0.01l0-0.01l0,0l0,0l0-0.01l0-0.01l0-0.01l0-0.01v0l0,0l0-0.01
			l0-0.01l0-0.01l0,0l0,0l0-0.01l0,0l0-0.01l0,0l0,0l0-0.01l0,0l0-0.01l0,0l0,0l0-0.01l0-0.01l0-0.01l0,0v0l0-0.01l0,0l0,0l0,0l0,0
			l0,0l0,0l0,0l0,0l0,0l0,0c-0.25-0.33-0.68-0.49-1.1-0.38c-0.5,0.13-0.82,0.61-0.76,1.11l0,0l0,0l0,0l0,0l0,0l0,0l0,0l0,0l0,0l0,0
			l0,0l0,0l0,0l0,0l0,0l0,0.01l0,0l0,0l0,0l0,0l0,0l0,0.01l0,0l0,0l0,0l0,0l0,0l0,0l0,0l0,0.01l0,0l0,0l0,0l0,0l0,0l0,0l0,0l0,0l0,0
			l0,0l0,0l0,0l0,0l0,0l0,0l0,0v0l0,0l0,0l0,0l0,0l0,0l0,0l0,0l0,0l0,0l0,0l0,0l0,0.01l0,0.01l0,0l0,0.01l0,0.01l0,0.01l0,0.01l0,0
			l0,0.01l0.01,0.01l0,0l0,0.01l0,0.01l0,0l0.01,0.01l0,0.01l0,0l0.01,0.01l0,0.01l0.01,0.02l0,0l0,0.01l0.01,0.01l0,0l0.01,0.01
			l0.01,0.01l0,0l0.01,0.01l0,0.01l0,0l0.01,0.01l0,0l0,0.01l0.01,0.01l0,0l0.01,0.01l0.01,0.01l0.01,0.01l0.01,0.01l0,0l0.01,0.01
			l0,0.01l0,0l0.01,0.01l0,0l0.01,0.01l0.01,0.01l0,0l0.01,0.01l0.01,0.01l0,0l0.01,0.01l0.01,0.01l0,0l0.01,0.01l0.01,0.01l0,0
			l0.01,0.01l0,0l0.01,0.01l0.01,0.01l0,0l0.01,0.01l0.01,0.01l0,0l0.01,0.01l0.01,0.01l0,0l0.01,0.01l0,0l0.01,0l0.01,0.01l0,0
			l0.01,0.01l0.01,0.01l0,0l0.01,0.01l0.01,0.01l0,0l0.01,0.01l0.01,0l0,0l0.01,0.01l0,0l0.01,0l0.01,0.01l0,0l0.01,0.01l0.01,0.01
			l0,0l0.01,0.01l0.01,0l0,0l0.01,0.01l0.01,0l0.01,0l0.01,0.01c0.21,0.1,0.46,0.12,0.7,0.06
			C186.46,66.26,186.71,66.03,186.83,65.74L186.83,65.74z M165.55,120.32c-13.62,0-24.67,11.05-24.67,24.67
			c0,13.63,11.05,24.67,24.67,24.67c13.62,0,24.67-11.04,24.67-24.67C190.22,131.37,179.17,120.32,165.55,120.32L165.55,120.32z
			 M167.79,74.95v18.31c-3.52-0.88-6.79-2.4-9.67-4.44V77.98l5.2-3c0.35,0.4,0.86,0.65,1.43,0.65c0.74,0,1.38-0.42,1.69-1.04
			L167.79,74.95L167.79,74.95z M158.12,67.32h9.67v6.59l-1.15-0.31c-0.07-0.98-0.89-1.76-1.89-1.76c-1.05,0-1.89,0.85-1.89,1.89
			c0,0.11,0.01,0.22,0.03,0.33l-4.77,2.75V67.32L158.12,67.32z M180,71.72v21.95c-1.67,0.3-3.4,0.46-5.16,0.46
			c-1.53,0-3.04-0.12-4.51-0.35V75.63l2.27,0.61c0.18,0.86,0.94,1.51,1.85,1.51c1.05,0,1.89-0.85,1.89-1.89
			c0-0.15-0.02-0.3-0.05-0.44L180,71.72L180,71.72z M170.33,57.99H180V70.3l-4.21,4.21c-0.34-0.34-0.81-0.55-1.33-0.55
			c-0.82,0-1.52,0.52-1.78,1.25l-2.35-0.63V57.99L170.33,57.99z M191.88,65.74V88.6c-2.87,2.09-6.14,3.66-9.67,4.58V69.52l2.6-2.6
			c0.44,0.3,1,0.41,1.55,0.26c0.71-0.19,1.22-0.77,1.36-1.44L191.88,65.74L191.88,65.74z M182.21,51.38h9.67v13.36l-4.22,0
			c-0.32-0.93-1.31-1.47-2.28-1.21c-1.01,0.27-1.61,1.31-1.34,2.32c0.03,0.11,0.07,0.21,0.11,0.31l-1.95,1.95V51.38L182.21,51.38z"
			/>
	</g>
</g>
</svg>
