<?xml version="1.0" encoding="utf-8"?>
<!-- Generator: Adobe Illustrator 27.8.1, SVG Export Plug-In . SVG Version: 6.00 Build 0)  -->
<svg version="1.1" xmlns="http://www.w3.org/2000/svg" xmlns:xlink="http://www.w3.org/1999/xlink" x="0px" y="0px"
	 viewBox="0 0 350 230" style="enable-background:new 0 0 350 230;" xml:space="preserve">
<style type="text/css">
	.st0{fill:#FFF5E6;}
	.st1{fill:#E9F7FF;}
	.st2{fill:#F2FFE9;}
	.st3{fill:#FFF0E9;}
	.st4{fill:#FBFFE9;}
	.st5{fill:#FFFEE9;}
	.st6{fill:#1C3464;}
	.st7{fill:#FFECE9;}
	.st8{fill:#FFEACC;}
	.st9{fill:#8ACBFB;}
	.st10{fill:#00B1F0;}
	.st11{fill:#231F20;}
	.st12{fill:#EE2724;}
	.st13{fill:#FFFFFF;}
	.st14{fill:#55B948;}
	.st15{fill:#342643;}
	.st16{fill:#4AB9EA;}
	.st17{fill:#1A5DAB;}
	.st18{fill:#2A419A;}
	.st19{fill:url(#SVGID_1_);}
	.st20{fill:url(#SVGID_00000183224727791637113580000017452517456231269294_);}
	.st21{fill:#3252A4;}
	.st22{fill:#AED136;}
	.st23{fill:#2C296A;}
	.st24{fill:#E6E7E7;}
	.st25{fill:#80C342;}
	.st26{fill:#87C540;}
	.st27{fill:#576A30;}
	.st28{fill:#FEBE2A;}
	.st29{fill:#163A63;}
	.st30{fill:#294DA1;}
	.st31{fill:#F26524;}
	.st32{fill:#95C93D;}
	.st33{fill:#007AC1;}
	.st34{fill:#AFD351;}
	.st35{fill:#165591;}
	.st36{fill:#8DD6F7;}
	.st37{fill:#284F9A;}
	.st38{fill:#192D56;}
	.st39{fill:#60B4E5;}
	.st40{fill:#22211D;}
	.st41{fill:#C62630;}
	.st42{fill:#EEEFBD;}
	.st43{fill:#B6F0A4;}
	.st44{fill:#D9F9CD;}
	.st45{fill:#FFF1AE;}
	.st46{fill:#F9D9A5;}
	.st47{fill:#FFD5B6;}
	.st48{fill:#B9EDF9;}
	.st49{fill:#5B5B45;}
	.st50{fill:#D8A036;}
	.st51{fill:url(#SVGID_00000067947272165002047040000003668494568605260988_);}
	.st52{fill:#FF9833;}
	.st53{fill:#C3552B;}
	.st54{fill:#676D97;}
	.st55{fill:#5C1923;}
	.st56{fill:#061E37;}
	.st57{fill:#C99D3C;}
	.st58{fill:#FEF2AB;}
	.st59{fill:none;stroke:#000000;stroke-miterlimit:10;}
	.st60{fill:#432237;}
	.st61{fill:url(#SVGID_00000002360425157292416660000014610854768690027925_);}
	.st62{fill:#DCD196;}
	.st63{fill:url(#SVGID_00000062901344499381043050000001142839333209410229_);}
	.st64{fill-rule:evenodd;clip-rule:evenodd;fill:#FFCB00;}
	.st65{fill-rule:evenodd;clip-rule:evenodd;fill:#FF0000;}
	.st66{fill-rule:evenodd;clip-rule:evenodd;fill:#FF6633;}
	.st67{fill-rule:evenodd;clip-rule:evenodd;fill:#FF9833;}
	.st68{fill-rule:evenodd;clip-rule:evenodd;fill:#FFFFFF;}
	.st69{fill:#A6A5A5;}
	.st70{fill:#FEFEFE;}
	.st71{fill:url(#SVGID_00000013872202330839050450000013732839638909649848_);}
	.st72{fill:#03AAE1;}
	.st73{fill:#087234;}
	.st74{fill:#F97507;}
	.st75{fill:#F4C558;}
	.st76{fill:#031C35;}
	.st77{fill:url(#SVGID_00000063615426514565780410000011290168827690703491_);}
	.st78{fill:#074755;}
	.st79{fill:#F58F14;}
	.st80{fill:#0899C0;}
	.st81{fill:#3A8A80;}
	.st82{fill:#E26F09;}
	.st83{fill:#E16505;}
	.st84{fill:#0565A9;}
	.st85{fill:#C5D3E0;}
	.st86{fill:url(#SVGID_00000121249039047682092370000013336690784617247417_);}
	.st87{fill:url(#SVGID_00000039119103015788029950000006979088822639006135_);}
	.st88{fill:url(#SVGID_00000137107448577124753570000009230624231539873923_);}
	.st89{fill:url(#SVGID_00000021098868162539321500000000833288417567017129_);}
	.st90{fill:url(#SVGID_00000107556117494506616950000007971523174359190703_);}
	.st91{fill:#29282A;}
	.st92{fill:url(#SVGID_00000085934130271245436420000008530989859426521247_);}
	.st93{fill:#151517;}
	.st94{fill:#1F3247;}
	.st95{fill:#C09B5E;}
	.st96{fill:#00AEEF;}
	.st97{fill:#94C43A;}
	.st98{fill:#CFAC6E;}
	.st99{fill:#333F5B;}
	.st100{fill-rule:evenodd;clip-rule:evenodd;fill:#98C73A;}
	.st101{fill-rule:evenodd;clip-rule:evenodd;fill:#333F5B;}
	.st102{fill:url(#SVGID_00000158010632401906920930000005236614755223772052_);}
	.st103{fill:url(#SVGID_00000153669137556742924200000004019768949820872580_);}
	.st104{fill:url(#SVGID_00000149381947970961716530000012013712123622025903_);}
	.st105{fill:url(#SVGID_00000036217979194785385080000002107870040888239517_);}
	.st106{fill:url(#SVGID_00000168804551232378357700000016654121908395119260_);}
	.st107{fill:#1E344C;}
	.st108{fill:#56A4B2;}
	.st109{fill:#195C8F;}
	.st110{fill:#B8C3CA;}
	.st111{fill:#F8C220;}
	.st112{fill:#0A5AA3;}
	.st113{fill:url(#SVGID_00000023972823582636499640000002210040203477346709_);}
	.st114{fill:url(#SVGID_00000012435206322184324830000008781155735333484724_);}
	.st115{fill:#074871;}
	.st116{fill:#21A7E0;}
	.st117{fill:url(#SVGID_00000031199781010610442260000010924124959459092671_);}
	.st118{fill:#C39038;}
	.st119{fill:#19324E;}
	.st120{fill:url(#SVGID_00000000198835630498541090000013281209060538100916_);}
	.st121{fill:#0B3D58;}
	.st122{fill:#FBB03B;}
	.st123{fill:url(#SVGID_00000103964364749729327750000014691314785073350840_);}
	.st124{fill:url(#SVGID_00000103245832906021827020000008527034605263654585_);}
	.st125{fill:url(#SVGID_00000084512936872175163890000002468342915948842899_);}
</style>
<g id="Layer_1">
</g>
<g id="Layer_2">
</g>
<g id="Layer_3">
</g>
<g id="Layer_4">
</g>
<g id="Layer_5">
</g>
<g id="Layer_6">
</g>
<g id="Layer_7">
</g>
<g id="Layer_8">
</g>
<g id="Layer_9">
</g>
<g id="Layer_10">
</g>
<g id="Layer_11">
</g>
<g id="Layer_12">
</g>
<g id="Layer_13">
</g>
<g id="Layer_14">
</g>
<g id="Layer_15">
	<linearGradient id="SVGID_1_" gradientUnits="userSpaceOnUse" x1="167.065" y1="35.177" x2="167.065" y2="159.483">
		<stop  offset="0" style="stop-color:#00E8C3"/>
		<stop  offset="1" style="stop-color:#005A5E"/>
	</linearGradient>
	<path class="st19" d="M140.64,73.03l-13.9,27.5h23.55L140.64,73.03z M140.64,73.03l-13.9,27.5h23.55L140.64,73.03z M224.95,99.7
		c0.03-0.79,0.05-1.58,0.05-2.37c0-34.27-27.88-62.15-62.15-62.15c-34.27,0-62.15,27.88-62.15,62.15
		c0,34.27,27.88,62.15,62.15,62.15c1.85,0,3.35-1.5,3.35-3.34c0-1.85-1.5-3.35-3.35-3.35c-20.65,0-38.7-11.35-48.24-28.14
		c-0.2-0.35-0.4-0.71-0.59-1.06c-0.77-1.43-1.48-2.89-2.13-4.4c-0.16-0.35-0.31-0.71-0.45-1.07c-0.01-0.02-0.02-0.05-0.03-0.07
		c-0.31-0.75-0.6-1.51-0.86-2.28c-0.14-0.39-0.27-0.78-0.39-1.17c-0.14-0.39-0.26-0.78-0.37-1.18c-0.24-0.79-0.47-1.59-0.67-2.38
		c-0.21-0.81-0.39-1.62-0.56-2.43c-0.17-0.82-0.31-1.64-0.45-2.47c-0.46-2.87-0.7-5.8-0.7-8.8c0-30.57,24.88-55.45,55.45-55.45
		c30.58,0,55.46,24.88,55.46,55.45c0,0.12-0.01,0.23-0.01,0.35l-6.08-4.51l4.54,27.71l16.68-22.59L224.95,99.7z M213.34,127.67
		c-1.53-1.04-3.61-0.64-4.66,0.88c-1.04,1.53-0.64,3.61,0.88,4.66c0.58,0.39,1.24,0.59,1.89,0.59c1.07,0,2.13-0.52,2.77-1.47
		C215.26,130.8,214.87,128.72,213.34,127.67z M187.51,150.84c-0.68-1.72-2.63-2.57-4.35-1.89c-1.72,0.68-2.56,2.62-1.89,4.34
		c0.52,1.31,1.78,2.12,3.12,2.12c0.4,0,0.82-0.07,1.22-0.23C187.34,154.5,188.18,152.56,187.51,150.84z M202.16,141.2
		c-1.16-1.45-3.26-1.68-4.7-0.52c-1.45,1.15-1.68,3.26-0.53,4.7c0.66,0.83,1.64,1.26,2.63,1.26c0.73,0,1.47-0.24,2.09-0.73
		C203.08,144.74,203.31,142.64,202.16,141.2z M162.85,53.17c-5.23,0-10.22,0.93-14.85,2.64h0.11l25.75,67.49l5.69,14.91
		c16.11-6.58,27.46-22.41,27.46-40.89C207.01,72.94,187.24,53.17,162.85,53.17z M183.76,86.95v17.14c0,1.51-1.22,2.72-2.72,2.72
		c-1.51,0-2.72-1.22-2.72-2.72V86.95h-6.24l8.96-15.52L190,86.95H183.76z M154.65,112.77h-33.39c6.15,16.78,22.64,28.73,41.59,28.73
		c0.64,0,1.27-0.02,1.91-0.04l-4.41-12.5L154.65,112.77z M140.64,73.03l-13.9,27.5h23.55L140.64,73.03z"/>
</g>
</svg>
