<?xml version="1.0" encoding="UTF-8"?>
<svg id="Layer_1" data-name="Layer 1" xmlns="http://www.w3.org/2000/svg" viewBox="0 0 512.58 285.35">
  <defs>
    <style>
      .cls-1 {
        fill: #db2d27;
      }

      .cls-1, .cls-2, .cls-3, .cls-4, .cls-5 {
        stroke-width: 0px;
      }

      .cls-2 {
        fill: #5ba6b4;
      }

      .cls-3 {
        fill: #9bb65a;
      }

      .cls-4 {
        fill: #eed600;
      }

      .cls-5 {
        fill: #e26e1d;
      }
    </style>
  </defs>
  <path class="cls-1" d="m413.18,89.78c-9.95,3.8-13.08,10.66-15.44,26.65-.4,2.71-.77,5.68-1.16,8.95-.52-4.42-1.03-8.3-1.6-11.72-3.55-21.46-9.45-24.79-35.69-28.05-.85-.1-1.72-.2-2.61-.31.6-.07,1.18-.14,1.76-.21,19.46-2.39,28-4.7,32.59-13.96-38.67-28.68-86.48-45.62-138.22-45.62-128.68,0-233,104.81-233,234.1h148.76c0-11.48,2.21-22.55,6.56-32.89,4.23-10.06,10.33-19.14,18.12-26.97,7.78-7.81,16.79-13.94,26.82-18.19,10.3-4.38,21.3-6.59,32.74-6.59s22.47,2.21,32.76,6.59c10.01,4.25,19.02,10.38,26.81,18.19,7.78,7.83,13.91,16.91,18.11,26.97,4.38,10.34,6.57,21.41,6.57,32.89h148.78c0-66.86-27.91-127.18-72.66-169.83Zm11,35.6c1.45,12.31,2.62,13.49,14.88,14.95-10.53,1.25-12.88,2.3-14.25,10.37-.22,1.33-.42,2.84-.63,4.58-.38-3.21-.74-5.67-1.28-7.56-.69-2.4-1.66-3.92-3.34-4.95h0c-2.08-1.29-5.24-1.84-10.26-2.44,3.23-.38,5.69-.75,7.59-1.31,5.3-1.55,6.22-4.58,7.29-13.64Zm-170.84,117.89c-.17.1-.32.19-.49.29-.15-.1-.32-.19-.47-.29-20.09-12.11-30.83-27.62-27.4-38.18,1.39-4.31,6.06-10.63,13.08-11.23,5.56-.47,11.17,2.73,14.71,8.15h.17c3.55-5.41,9.15-8.62,14.71-8.15,7.04.61,11.69,6.92,13.1,11.23,3.43,10.57-7.31,26.07-27.4,38.18Z"/>
  <path class="cls-5" d="m456.08,259.61h-119.02c0-11.48-2.19-22.55-6.57-32.89-4.2-10.06-10.33-19.14-18.11-26.97-7.79-7.81-16.8-13.94-26.81-18.19-10.29-4.38-21.31-6.59-32.76-6.59s-22.44,2.21-32.74,6.59c-10.03,4.25-19.04,10.38-26.82,18.19-7.79,7.83-13.89,16.91-18.12,26.97-4.35,10.34-6.56,21.41-6.56,32.89H49.54c0-27.58,5.38-54.32,15.95-79.46,10.25-24.32,24.9-46.17,43.61-64.94,18.66-18.75,40.39-33.48,64.61-43.77,25.05-10.64,51.64-16.02,79.1-16.02s54.08,5.38,79.12,16.02c9.21,3.91,18.05,8.47,26.51,13.65-.58.07-1.16.14-1.76.21.89.11,1.76.21,2.61.31,12.84,7.94,24.77,17.32,35.69,28.05.57,3.42,1.08,7.3,1.6,11.72.39-3.27.76-6.24,1.16-8.95,6.97,7.11,13.36,14.65,19.15,22.59-1.9.56-4.36.93-7.59,1.31,5.02.6,8.18,1.15,10.26,2.43h0c1.14,1.65,2.26,3.29,3.34,4.96.54,1.89.9,4.35,1.28,7.56.21-1.74.41-3.25.63-4.58,5.87,9.34,10.99,19.18,15.31,29.45,10.58,25.14,15.96,51.88,15.96,79.46Z"/>
  <path class="cls-4" d="m426.32,259.61h-89.26c0-11.49-2.2-22.56-6.57-32.89-4.2-10.06-10.33-19.14-18.11-26.97-7.79-7.81-16.8-13.94-26.82-18.19-10.29-4.38-21.31-6.59-32.76-6.59s-22.44,2.21-32.74,6.59c-10.03,4.25-19.04,10.38-26.82,18.19-7.79,7.83-13.89,16.91-18.12,26.97-4.35,10.33-6.56,21.4-6.56,32.89h-89.26c0-23.57,4.56-46.38,13.6-67.83,8.72-20.76,21.26-39.41,37.22-55.44,15.96-16.01,34.51-28.6,55.15-37.36,21.36-9.07,44.08-13.69,67.52-13.69s46.16,4.63,67.51,13.69c20.66,8.76,39.23,21.35,55.18,37.36,15.97,16.03,28.48,34.68,37.2,55.44,9.04,21.45,13.62,44.27,13.62,67.83Z"/>
  <path class="cls-3" d="m396.58,259.61h-59.52c0-11.49-2.2-22.56-6.57-32.89-4.2-10.06-10.33-19.14-18.11-26.97-7.79-7.81-16.8-13.94-26.82-18.19-10.29-4.38-21.31-6.59-32.76-6.59s-22.44,2.21-32.74,6.59c-10.03,4.25-19.04,10.38-26.82,18.19-7.79,7.83-13.89,16.91-18.12,26.97-4.35,10.33-6.56,21.4-6.56,32.89h-59.53c0-19.53,3.8-38.46,11.28-56.19,7.25-17.18,17.62-32.65,30.85-45.94,13.23-13.29,28.6-23.71,45.71-30.98,17.68-7.51,36.47-11.32,55.93-11.32s38.27,3.81,55.93,11.32c17.12,7.26,32.48,17.69,45.71,30.98,13.23,13.29,23.63,28.76,30.86,45.94,7.48,17.73,11.26,36.66,11.26,56.19Z"/>
  <path class="cls-2" d="m366.82,259.61h-29.76c0-11.49-2.2-22.56-6.57-32.89-4.2-10.06-10.33-19.14-18.11-26.97-7.79-7.81-16.8-13.94-26.82-18.19-10.29-4.38-21.31-6.59-32.76-6.59s-22.44,2.21-32.74,6.59c-10.03,4.25-19.04,10.38-26.82,18.19-7.79,7.83-13.89,16.91-18.12,26.97-4.35,10.33-6.56,21.4-6.56,32.89h-29.76c0-15.52,2.98-30.5,8.9-44.55,5.74-13.61,13.99-25.89,24.49-36.44,10.52-10.55,22.71-18.82,36.29-24.59,13.96-5.94,28.88-8.94,44.32-8.94s30.36,3,44.34,8.94c13.56,5.77,25.77,14.04,36.27,24.59,10.5,10.55,18.74,22.82,24.49,36.44,5.91,14.05,8.91,29.03,8.91,44.55Z"/>
</svg>