<svg id="Layer_2" data-name="Layer 2" xmlns="http://www.w3.org/2000/svg" viewBox="0 0 300 300">
  <defs>
    <style>
      .cls-1 {
        fill: #684ea0;
      }

      .cls-2 {
        fill: #61c088;
      }
    </style>
  </defs>
  <title>1-12</title>
  <g>
    <path class="cls-1" d="M272.5,279.8l-.5-1.5h-1.9c-1-.1-106.7-8.5-136.1-51.2-.2-.3-4.3-5.9-1.6-14.3s15.4-24.2,57.1-38.3q36-12.2,57.2-27.2l47.4,79.6C306.6,247.9,294.6,274,272.5,279.8Zm-74-170.2c8.5-2.4,15.6-4.8,21.6-7.1l-39.3-66c-13.9-23.3-47.7-23.3-61.6,0L61.8,132.9,46.7,158.2c30.5-18.2,66.5-27.1,106.1-36.8C167.6,117.7,182.8,114,198.5,109.6Z"/>
    <path class="cls-2" d="M131.7,228.7s-22.9-30,56.9-57c26-8.7,44-18,56.6-27.1,25.9-18.6,28.3-36.1,28.3-45,0-13.2-21.9-30-26.4-32,0,0,25.4,17.7-25.5,37.4-6.2,2.4-13.6,4.9-22.3,7.3-60.7,17-114,24.3-155.7,51.2L5.9,226.8C-8.3,250.7,8.9,281,36.8,281H263.2l4.1-.2C250.5,279.2,159.4,268.7,131.7,228.7Z"/>
  </g>
</svg>
