<svg id="Layer_2" data-name="Layer 2" xmlns="http://www.w3.org/2000/svg" viewBox="0 0 300 300">
  <defs>
    <style>
      .cls-1 {
        fill: #dd5d26;
      }

      .cls-2 {
        fill: #2c2c2d;
      }
    </style>
  </defs>
  <title>1-21</title>
  <g>
    <path class="cls-1" d="M215.1,198.2l40.7-38.8-40.7-39-40.7,39ZM192.9,99.3l22.2-21.2,22.1,21.1L300,159.4l-62.7,60-22.1,21.1L193,219.4l-62.8-60Z"/>
    <path class="cls-2" d="M38.3,159.4l7.3,6.9L26.7,184.4.5,159.4l26.2-25.1,18.9,18.1Zm165.1,0-7.2,6.9,18.9,18.1,26.2-25-26.2-25.1-19,18.1Zm-43.8,41.9-38.7,36.9L82.2,201.3,60.1,222.4l60.8,58.4,60.8-58.4ZM181.7,96.2,120.9,38,60.1,96.2l22.1,21.2,38.7-37,38.7,37Z"/>
  </g>
</svg>
