<svg id="Layer_1" data-name="Layer 1" xmlns="http://www.w3.org/2000/svg" viewBox="0 0 300 300">
  <defs>
    <style>
      .cls-1 {
        fill: #139bd7;
      }

      .cls-2 {
        fill: #04849d;
      }

      .cls-3 {
        fill: #0687c8;
      }
    </style>
  </defs>
  <title>1-26</title>
  <g>
    <path class="cls-1" d="M180.5,3.1c30.2,7.2,54,22,68.1,44.4,19.4,30.8,21.2,73.7,3.3,111-19.7,40.9-54.1,62.7-43.7,16,9.4-42.5-31.9-53.7-47.6-19.4-45.1,98.4-116.3,30.1-80.4-8.4-27.3,24.3-29,59.4-10,77.2,14.7,13.8,42.2,14.8,74.7-3.8-8.9,61.9,60.7,41.4,99.2-6.6C308.8,132.9,288.5,25.2,180.5,3.1Z"/>
    <g>
      <path class="cls-2" d="M8.3,178.8A151.2,151.2,0,0,1,13.8,149a125.4,125.4,0,0,1,40-87.4C68.3,48.2,82.9,38.8,97.3,32.8c64.5-27.2,121.2,4.6,140.8,56.9,10.8,29,14.7,71.4-6.6,99.4,17.4-14.6,29.5-41.9,33-61.3C273,79.7,259,39.1,214.2,14.3A149.7,149.7,0,0,0,33.8,55.8c-35,43.4-41.1,97-25.2,142.9A120.6,120.6,0,0,1,8.3,178.8Z"/>
      <path class="cls-2" d="M288.9,95c2.2,10,3.2,32.2-.3,50.4-5.6,29.6-21.3,59.4-41.9,81.4l15.7-9.1c-56.5,77.9-137,77.8-190.8,41.7a63.4,63.4,0,0,1-22.5-2.3l-5.9-2.3A149.4,149.4,0,0,0,120.9,297a147.5,147.5,0,0,0,79.6-5.8,149.5,149.5,0,0,0,95.7-106.8C302.2,158.9,300.9,118.1,288.9,95Z"/>
    </g>
    <path class="cls-3" d="M224.8,154.1C176.7,60.4,33.2,141.5,66.2,211.9c9.9,21,37.7,25.4,78.7,8.2-32,36.6-72.8,44.2-95.8,37C16.2,246.7,6,210,8.3,178.8,11,142.3,29.6,102.2,58.1,75.3c36.9-34.8,75-40.1,105.1-34.9C215.2,49.3,245.9,99.6,224.8,154.1Z"/>
  </g>
</svg>
