<svg id="Layer_2" data-name="Layer 2" xmlns="http://www.w3.org/2000/svg" viewBox="0 0 300 300">
  <defs>
    <style>
      .cls-1 {
        fill: #3681c3;
      }

      .cls-2 {
        fill: #f79021;
      }

      .cls-3 {
        fill: #109696;
      }

      .cls-4 {
        fill: #62439a;
      }

      .cls-5 {
        fill: #d0ca29;
      }

      .cls-6 {
        fill: #ee344c;
      }

      .cls-7 {
        fill: #030304;
      }
    </style>
  </defs>
  <title>1-09</title>
  <g>
    <g>
      <polygon class="cls-1" points="148.8 205.5 133.9 205.5 127.4 238.7 148.8 238.7 148.8 205.5"/>
      <polygon class="cls-2" points="201 238.7 217.9 238.7 200.3 205.5 187.1 205.5 201 238.7"/>
      <polygon class="cls-3" points="101.7 238.7 124.9 238.7 131.4 205.5 115.8 205.5 101.7 238.7"/>
      <polygon class="cls-4" points="166.8 205.5 151.2 205.5 151.2 238.7 174.1 238.7 166.8 205.5"/>
      <polygon class="cls-5" points="113.1 205.5 99.7 205.5 78 238.7 99 238.7 113.1 205.5"/>
      <polygon class="cls-6" points="184.4 205.5 169.3 205.5 176.6 238.7 198.3 238.7 184.4 205.5"/>
    </g>
    <path class="cls-7" d="M281.4,136.5H16.9L51,107.7H246.7ZM208.5,61.3H88.6V99.5H208.5ZM289,152.4v58.7a10.5,10.5,0,0,1-10.6,10.6H226.5l-5.7-25.9H78l-5.7,25.9H21.6A10.5,10.5,0,0,1,11,211.1V152.4a9.9,9.9,0,0,1,.2-1.8H288.8A9.9,9.9,0,0,1,289,152.4ZM55.1,195.8H27.5v9.7H55.1Z"/>
  </g>
</svg>
