<svg id="Layer_2" data-name="Layer 2" xmlns="http://www.w3.org/2000/svg" viewBox="0 0 300 300">
  <defs>
    <style>
      .cls-1 {
        fill: #231f20;
      }

      .cls-2 {
        fill: #2093d1;
      }

      .cls-3 {
        fill: #fdd00c;
      }

      .cls-4 {
        fill: #ec0c8b;
      }
    </style>
  </defs>
  <title>1-08</title>
  <g>
    <path class="cls-1" d="M62.3,134.7a89.1,89.1,0,0,1,72.4-72.4V8A143,143,0,0,0,8,134.7Z"/>
    <path class="cls-2" d="M165.3,62.3a89.1,89.1,0,0,1,72.4,72.4H292A143,143,0,0,0,165.3,8Z"/>
    <path class="cls-3" d="M134.7,237.7a89.1,89.1,0,0,1-72.4-72.4H8A143,143,0,0,0,134.7,292Z"/>
    <path class="cls-4" d="M237.7,165.3a89.1,89.1,0,0,1-72.4,72.4V292A143,143,0,0,0,292,165.3Z"/>
  </g>
</svg>
