<svg id="Layer_2" data-name="Layer 2" xmlns="http://www.w3.org/2000/svg" viewBox="0 0 300 300">
  <defs>
    <style>
      .cls-1 {
        fill: #d9d9d9;
      }

      .cls-2 {
        fill: #f39c4c;
      }

      .cls-3 {
        fill: #9ecf79;
      }

      .cls-4 {
        fill: #32b3e7;
      }

      .cls-5 {
        fill: #8c3092;
      }

      .cls-6 {
        fill: #68469c;
      }

      .cls-7 {
        fill: #dcddde;
      }
    </style>
  </defs>
  <title>1-10</title>
  <g>
    <path class="cls-1" d="M139.7,108.7l11.8-10.5C144.3,104.1,139.7,108.7,139.7,108.7Z"/>
    <path class="cls-2" d="M205.3,31.3C191,8.5,160.1-6.2,124.6,29.2,72.5,78.9,35.8,165.3,24.8,195.5s-13.9,73.7,15.1,74.9c16.1.7,26.3-6.1,32.1-12.2,31.4-104.3,67.7-149.5,67.7-149.5C156.4,82.2,205.3,31.3,205.3,31.3Z"/>
    <path class="cls-3" d="M194.3,250.1c-4.1,6.9,5.7,7.3,5.7,7.3s26.1-.4,33.8,0,11.8-6.1,11.8-6.1,25.7-42,33-56.6a38.4,38.4,0,0,0,4.2-13.1c-24.1,8.9-71.5,35.5-71.5,35.5S198.4,243.1,194.3,250.1Z"/>
    <path class="cls-4" d="M272.1,148.2c-12.2-19.5-73.3,20-73.3,20s-51.5,24.9-86.3,72.9c-2.8,11.8-2.3,20.3,4.4,21.2,24.8,3.2,40.7-7.4,40.7-7.4l53.7-37.8s47.4-26.6,71.5-35.5C283.9,171.8,280.6,161.8,272.1,148.2Z"/>
    <path class="cls-5" d="M235.8,90.9a65.8,65.8,0,0,0-11-12.4c-20.4-18.6-55.2,4.9-73.3,19.7l-11.8,10.5S103.4,153.9,72,258.2a34.8,34.8,0,0,0,6.6-9.4,768,768,0,0,1,73.7-97.9S189.8,105.5,235.8,90.9Z"/>
    <path class="cls-6" d="M198.8,168.2c16.3-29,37.4-45.7,41.5-59.5,1.8-6-.9-12.4-4.5-17.8-46,14.6-83.5,60-83.5,60s-32.2,57.8-39.8,90.2C147.3,193.1,198.8,168.2,198.8,168.2Z"/>
    <ellipse class="cls-7" cx="135.6" cy="288.4" rx="94.9" ry="3.7"/>
  </g>
</svg>
