<?xml version="1.0" encoding="utf-8"?>
<!-- Generator: Adobe Illustrator 27.8.1, SVG Export Plug-In . SVG Version: 6.00 Build 0)  -->
<svg version="1.1" xmlns="http://www.w3.org/2000/svg" xmlns:xlink="http://www.w3.org/1999/xlink" x="0px" y="0px"
	 viewBox="0 0 350 230" style="enable-background:new 0 0 350 230;" xml:space="preserve">
<style type="text/css">
	.st0{fill:#B6FFF3;}
	.st1{fill:#F0FFB8;}
	.st2{fill:#FFF6B8;}
	.st3{fill:#FFDCFF;}
	.st4{fill:#D1FFBB;}
	.st5{fill:#FFD6B8;}
	.st6{fill:#00224E;}
	.st7{fill:#C3FFB8;}
	.st8{fill:#EAEAEA;}
	.st9{fill:#CAFFF5;}
	.st10{fill:#E4335A;}
	.st11{fill:#005199;}
	.st12{fill:#AD0000;}
	.st13{fill:#00E2E2;}
	.st14{fill:#003F33;}
	.st15{fill:#600068;}
	.st16{fill:#664600;}
	.st17{fill:#DAB038;}
	.st18{fill:#466F85;}
	.st19{fill:#57D4FF;}
	.st20{fill:#99042B;}
	.st21{fill:#BF882F;}
	.st22{fill:#B0C1C1;}
	.st23{fill:#689FC1;}
	.st24{fill:#0035AA;}
	.st25{fill:#CEC1A3;}
	.st26{fill:#AC8746;}
	.st27{fill:#F2EBDD;}
	.st28{fill:#350B00;}
	.st29{fill:#ECC752;}
	.st30{fill:#005468;}
	.st31{stroke:#000000;stroke-width:0.25;stroke-miterlimit:10;}
	.st32{fill:#EFECFF;}
	.st33{fill:#FFDE98;}
	.st34{fill:#5B3F00;}
	.st35{fill:#826834;}
	.st36{fill:none;stroke:#5B3F00;stroke-width:2;stroke-miterlimit:10;}
	.st37{fill:#FFBE00;}
	.st38{fill:#9B8D75;}
	.st39{fill:#FFFFFF;}
	.st40{fill:#FFFF00;}
	.st41{fill:#FFBF00;}
	.st42{fill:#FFA500;}
	.st43{fill:#B7F3F9;}
	.st44{fill:#B78802;}
	.st45{fill:url(#SVGID_1_);}
	.st46{fill:url(#SVGID_00000165228369208434444780000004825563817574656388_);}
	.st47{fill:url(#SVGID_00000120545445202489637060000003205648746842781570_);}
	.st48{fill:url(#SVGID_00000161593613856268316610000017190932753198933396_);}
	.st49{fill:url(#SVGID_00000052083322237097920600000017136673689314436261_);}
	.st50{fill:url(#SVGID_00000059287784656905943080000011754562600847309957_);}
	.st51{fill:url(#SVGID_00000078746755826497426100000013983838000722040197_);}
	.st52{fill:url(#SVGID_00000029020862581645606270000012791417029590657714_);}
	.st53{fill:url(#SVGID_00000139262982639595161270000003118347613738739101_);}
	.st54{fill:url(#SVGID_00000162341842940426592960000015134892186611547044_);}
	.st55{fill:url(#SVGID_00000007419725474077265790000002565580075614046142_);}
	.st56{fill:url(#SVGID_00000148631252948824859950000003498401943750278324_);}
	.st57{fill:#FFFFFF;stroke:#3E423E;stroke-linecap:round;stroke-linejoin:round;stroke-miterlimit:10;}
	.st58{fill:#89DBEF;}
	.st59{fill:url(#SVGID_00000127751836582858089720000016971116508170633146_);}
	.st60{fill:#FC90C7;}
	.st61{fill:url(#SVGID_00000033329559613721942240000008277876972401739142_);}
	.st62{fill:url(#SVGID_00000034070621494856440740000003225737979021879999_);}
	.st63{fill:url(#SVGID_00000132795835305130103250000003103064290964106130_);}
	.st64{fill:url(#SVGID_00000024690807059475839820000015789954612539334060_);}
	.st65{fill:url(#SVGID_00000183961183410802287330000015109694285449407406_);}
	.st66{fill:url(#SVGID_00000150099356289739471400000006991704470475451279_);}
	.st67{fill:url(#SVGID_00000165219576705371276830000012902497242041425835_);}
	.st68{fill:url(#SVGID_00000165231164990078982930000002335625697602900121_);}
	.st69{fill:url(#SVGID_00000103248149561747960900000010776281048898792637_);}
	.st70{fill:url(#SVGID_00000069368182655279345320000018429249221547579810_);}
	.st71{fill:url(#SVGID_00000078018691474938333110000003508720965340232067_);}
	.st72{fill:url(#SVGID_00000047747036407806311650000007557803333422496930_);}
	.st73{fill:url(#SVGID_00000139977592399614144060000013350701787787015823_);}
	.st74{fill:url(#SVGID_00000034059737187145770940000009784852544622894220_);}
</style>
<g id="Logo1">
</g>
<g id="Logo2">
</g>
<g id="Logo3">
</g>
<g id="Logo4">
</g>
<g id="Logo5">
</g>
<g id="Logo6">
</g>
<g id="Logo7">
</g>
<g id="Logo8">
</g>
<g id="Logo9">
</g>
<g id="Logo10">
</g>
<g id="Logo11">
</g>
<g id="Logo12">
</g>
<g id="Logo13">
</g>
<g id="Logo14">
</g>
<g id="Logo15">
	<radialGradient id="SVGID_1_" cx="174.9998" cy="91.4152" r="53.6637" gradientUnits="userSpaceOnUse">
		<stop  offset="0" style="stop-color:#FFFFFF"/>
		<stop  offset="0.166" style="stop-color:#BDD8CC"/>
		<stop  offset="0.3318" style="stop-color:#84B69F"/>
		<stop  offset="0.4902" style="stop-color:#559A7A"/>
		<stop  offset="0.64" style="stop-color:#30845D"/>
		<stop  offset="0.7789" style="stop-color:#167549"/>
		<stop  offset="0.903" style="stop-color:#066B3C"/>
		<stop  offset="1" style="stop-color:#006838"/>
	</radialGradient>
	<path class="st45" d="M203.08,60.9c-3.24,9.42-9.42,16.86-16.31,23.88c-3.14,3.2-6.57,6.29-8.91,10.02
		c-2.31,3.69-3.84,8.03-4.91,12.28c-1.36,5.43-3.88,7.99-9.15,7.77c-5.17-0.22-8.33-2.72-8.21-8.02c0.12-5.78-1.66-8.24-7.68-8.67
		c-2.36-0.17-6.12-3.37-6.27-5.42c-0.16-2.1,2.89-5.68,5.27-6.49c6.06-2.07,12.51-3.97,18.84-4.1c10.39-0.22,18.66-4.25,25.85-11.13
		c3.66-3.5,6.9-7.44,10.33-11.18C202.32,60.21,202.7,60.55,203.08,60.9z M184.12,94.05c-10.31,12.96-14.74,27.41-12.53,43.81
		c0.96,7.13,1.82,14.36,6.62,21.73c-0.25-3.44-0.41-5.58-0.55-7.72c-1.1-16.95,1.8-32.5,12.9-46.38
		c5.71-7.15,9.77-15.85,13.41-24.35c2.45-5.73,2.87-12.34,4.4-19.55C199.61,73.35,192.16,83.94,184.12,94.05z M177.48,77.34
		c10.31-3.87,17.46-12.4,24.56-20.56c1.73-1.99,1.29-3.89-1.73-3.95c-7.05-0.12-14.11-0.1-21.16,0c-1.06,0.01-2.32,0.51-3.14,1.2
		c-8.35,7.05-14.01,16.06-19.36,26.47C164.21,79.45,171.32,79.65,177.48,77.34z M201.55,23.25c-7.26,0-14.82,0-22.28,0
		c0.2,8.67-2.27,17.65,3.85,24.74c5.08,0,9.84,0,14.4,0C204.15,40.5,201.05,31.75,201.55,23.25z M197.39,24.7
		c-0.1,4.51-2.67,6.36-6.47,6.67c-4.24,0.35-6.75-1.81-7.87-6.67C188.24,24.7,192.67,24.7,197.39,24.7z"/>
</g>
</svg>
