<?xml version="1.0" encoding="utf-8"?>
<!-- Generator: Adobe Illustrator 27.8.1, SVG Export Plug-In . SVG Version: 6.00 Build 0)  -->
<svg version="1.1" xmlns="http://www.w3.org/2000/svg" xmlns:xlink="http://www.w3.org/1999/xlink" x="0px" y="0px"
	 viewBox="0 0 350 230" style="enable-background:new 0 0 350 230;" xml:space="preserve">
<style type="text/css">
	.st0{fill:#B6FFF3;}
	.st1{fill:#F0FFB8;}
	.st2{fill:#FFF6B8;}
	.st3{fill:#FFDCFF;}
	.st4{fill:#D1FFBB;}
	.st5{fill:#FFD6B8;}
	.st6{fill:#00224E;}
	.st7{fill:#C3FFB8;}
	.st8{fill:#EAEAEA;}
	.st9{fill:#CAFFF5;}
	.st10{fill:#E4335A;}
	.st11{fill:#005199;}
	.st12{fill:#AD0000;}
	.st13{fill:#00E2E2;}
	.st14{fill:#003F33;}
	.st15{fill:#600068;}
	.st16{fill:#664600;}
	.st17{fill:#DAB038;}
	.st18{fill:#466F85;}
	.st19{fill:#57D4FF;}
	.st20{fill:#99042B;}
	.st21{fill:#BF882F;}
	.st22{fill:#B0C1C1;}
	.st23{fill:#689FC1;}
	.st24{fill:#0035AA;}
	.st25{fill:#CEC1A3;}
	.st26{fill:#AC8746;}
	.st27{fill:#F2EBDD;}
	.st28{fill:#350B00;}
	.st29{fill:#ECC752;}
	.st30{fill:#005468;}
	.st31{stroke:#000000;stroke-width:0.25;stroke-miterlimit:10;}
	.st32{fill:#EFECFF;}
	.st33{fill:#FFDE98;}
	.st34{fill:#5B3F00;}
	.st35{fill:#826834;}
	.st36{fill:none;stroke:#5B3F00;stroke-width:2;stroke-miterlimit:10;}
	.st37{fill:#FFBE00;}
	.st38{fill:#9B8D75;}
	.st39{fill:#FFFFFF;}
	.st40{fill:#FFFF00;}
	.st41{fill:#FFBF00;}
	.st42{fill:#FFA500;}
	.st43{fill:#B7F3F9;}
	.st44{fill:#B78802;}
	.st45{fill:url(#SVGID_1_);}
	.st46{fill:url(#SVGID_00000029024937529103024010000016690564021472356486_);}
	.st47{fill:url(#SVGID_00000137815930987851204030000013573435620018836116_);}
	.st48{fill:url(#SVGID_00000070839927780835280430000008824684611268002218_);}
	.st49{fill:url(#SVGID_00000003105015564084836300000005551698539077788849_);}
	.st50{fill:url(#SVGID_00000054988036901398094230000009453079812610439066_);}
	.st51{fill:url(#SVGID_00000114036101226958529620000012346903480315283850_);}
	.st52{fill:url(#SVGID_00000039837790335534395590000002497380827548870301_);}
	.st53{fill:url(#SVGID_00000058586193223325144940000017963564719888331653_);}
	.st54{fill:url(#SVGID_00000054961359169691401550000012592159435390585014_);}
	.st55{fill:url(#SVGID_00000083078904480106931860000015551202054103980949_);}
	.st56{fill:url(#SVGID_00000119119012132962430110000006340527377261666725_);}
	.st57{fill:#FFFFFF;stroke:#3E423E;stroke-linecap:round;stroke-linejoin:round;stroke-miterlimit:10;}
	.st58{fill:#89DBEF;}
	.st59{fill:url(#SVGID_00000147941968621807666750000006008190421486602650_);}
	.st60{fill:#FC90C7;}
	.st61{fill:url(#SVGID_00000170965665099241526410000011645767019106689459_);}
	.st62{fill:url(#SVGID_00000026148214532383745440000017808988480796048533_);}
	.st63{fill:url(#SVGID_00000033359318656859803940000018276047623256706214_);}
	.st64{fill:url(#SVGID_00000177470229329133297630000018368531488141558196_);}
	.st65{fill:url(#SVGID_00000057130946292128098980000006290499132598738324_);}
	.st66{fill:url(#SVGID_00000014626469972942993930000002087655530254503810_);}
	.st67{fill:url(#SVGID_00000029760780597428008240000016095168719595856778_);}
	.st68{fill:url(#SVGID_00000014619197696200953450000010992216987969730196_);}
	.st69{fill:url(#SVGID_00000039855217593466198220000012921053390812987807_);}
	.st70{fill:url(#SVGID_00000013151915182418380030000000231045584141240461_);}
	.st71{fill:url(#SVGID_00000177446946925606633530000001859380697580423314_);}
	.st72{fill:url(#SVGID_00000037658712167891105510000003070481711534182324_);}
	.st73{fill:url(#SVGID_00000110437239314211587420000008116781712026505626_);}
	.st74{fill:url(#SVGID_00000096744187521342124490000009051418725075919535_);}
</style>
<g id="Logo1">
</g>
<g id="Logo2">
</g>
<g id="Logo3">
</g>
<g id="Logo4">
</g>
<g id="Logo5">
</g>
<g id="Logo6">
</g>
<g id="Logo7">
</g>
<g id="Logo8">
</g>
<g id="Logo9">
</g>
<g id="Logo10">
</g>
<g id="Logo11">
</g>
<g id="Logo12">
</g>
<g id="Logo13">
</g>
<g id="Logo14">
</g>
<g id="Logo15">
	<radialGradient id="SVGID_1_" cx="175" cy="98.394" r="65.6012" gradientUnits="userSpaceOnUse">
		<stop  offset="0" style="stop-color:#FFFFFF"/>
		<stop  offset="0.0322" style="stop-color:#EAEBF4"/>
		<stop  offset="0.1284" style="stop-color:#B2B3D7"/>
		<stop  offset="0.2218" style="stop-color:#8384BE"/>
		<stop  offset="0.3101" style="stop-color:#5E60AB"/>
		<stop  offset="0.392" style="stop-color:#44469D"/>
		<stop  offset="0.4652" style="stop-color:#343695"/>
		<stop  offset="0.5223" style="stop-color:#2E3192"/>
		<stop  offset="0.527" style="stop-color:#2E3191"/>
		<stop  offset="0.6122" style="stop-color:#2A2A7C"/>
		<stop  offset="0.7077" style="stop-color:#28266D"/>
		<stop  offset="0.8215" style="stop-color:#262365"/>
		<stop  offset="1" style="stop-color:#262262"/>
	</radialGradient>
	<path class="st45" d="M197.06,77.97c1.35,0.88,2.54,1.69,3.75,2.44c0.49,0.31,1.06,0.5,1.59,0.74c2.04,0.92,4.15,1.73,6.11,2.79
		c2.48,1.35,3.69,4.04,3.27,6.71c-0.44,2.77-2.4,4.9-5.25,5.42c-1.4,0.25-2.86,0.2-4.29,0.22c-1.8,0.02-3.61-0.01-5.41-0.06
		c-0.88-0.03-1.35,0.31-1.55,1.19c-1.57,6.76-3.18,13.52-4.76,20.28c-0.12,0.5-0.15,1.01-0.23,1.6c-10.2,0-20.37,0-30.46,0
		c-0.87-3.83-1.69-7.63-2.59-11.42c-0.82-3.47-1.75-6.91-2.56-10.38c-0.23-0.99-0.71-1.3-1.68-1.29c-2.83,0.04-5.67,0.04-8.5-0.02
		c-2.99-0.06-5.27-1.8-6.1-4.53c-0.86-2.84,0.09-5.89,2.59-7.48c1.54-0.98,3.3-1.59,4.93-2.42c1.57-0.8,3.09-1.68,4.65-2.5
		c0.71-0.38,1.45-0.7,2.32-1.12c0.44,1.36,0.88,2.63,1.25,3.92c2.56,8.85,7.26,16.44,13.6,23.05c3.03,3.16,5.68,6.56,7.05,10.8
		c0.03,0.09,0.13,0.16,0.29,0.35c1.66-5.62,5.58-9.57,9.33-13.66c5.7-6.22,9.37-13.57,11.73-21.62
		C196.4,80.09,196.69,79.19,197.06,77.97z M150.41,83.81c-0.84,0.37-1.58,0.69-2.3,1.02c-0.72,0.33-1.43,0.67-2.11,0.99
		c0.14,1.2,1.31,2.53-0.27,3.22c-1.75,0.77-1.52-1.28-2.25-1.98c-2.24,1.12-2.62,3.41-0.71,4.95c0.65,0.52,1.65,0.77,2.52,0.83
		c1.79,0.12,3.6,0.04,5.4,0.04c0.79,0,1.59,0,2.57,0C152.26,89.74,151.35,86.82,150.41,83.81z M206.4,87.12
		c-0.29,0.56-0.45,1.14-0.83,1.5c-0.34,0.31-0.97,0.58-1.37,0.47c-0.32-0.09-0.66-0.74-0.68-1.17c-0.04-0.64,0.18-1.29,0.3-2.01
		c-1.39-0.65-2.78-1.3-4.27-1.99c-0.89,2.79-1.75,5.47-2.6,8.16c-0.06,0.2-0.08,0.42-0.12,0.67c3.02,0,5.99,0.06,8.96-0.03
		c1.36-0.04,2.31-1.16,2.5-2.53C208.49,88.79,207.93,87.85,206.4,87.12z M166.11,115.91c0.83-3.36-1.06-9.04-3.56-10.51
		c0.69,3.21,1.4,6.36,2.01,9.52C164.76,115.91,165.16,116.25,166.11,115.91z M187.31,105.71c-0.07-0.05-0.13-0.1-0.2-0.15
		c-0.35,0.4-0.75,0.78-1.05,1.22c-1.31,1.86-2.09,3.95-2.4,6.2c-0.11,0.79-0.05,1.61,0.05,2.41c0.03,0.23,0.47,0.6,0.7,0.58
		c0.29-0.02,0.75-0.33,0.81-0.59C185.96,112.16,186.63,108.94,187.31,105.71z M165.22,32.72c-17.28,2.91-31.54,11.02-42.24,24.98
		c-7.59,9.9-12.09,21.12-12.72,33.64c-0.75,14.94,2.83,28.74,11.65,41.01c11.49,15.99,27.15,24.92,46.58,27.43
		c2.32,0.3,2.57,0.02,2.53-2.29c-0.01-0.33-0.02-0.66,0-0.99c0.04-0.64-0.22-0.92-0.87-0.99c-1.35-0.15-2.69-0.38-4.04-0.57
		c-18.39-2.58-39.67-16.55-47.57-38.49c-3.82-10.62-5.52-21.44-2.8-32.5c6.03-24.55,21.77-39.63,46-46.06
		c3.14-0.83,6.45-1.07,9.68-1.57c1.46-0.22,2.1-0.89,2.05-2.22c-0.05-1.48-0.86-2.08-3.45-2.04
		C168.86,32.22,167.03,32.41,165.22,32.72z M174.95,110.07c-1.54-1.85-3.11-3.7-4.64-5.58c-2.67-3.28-5.45-6.47-7.92-9.89
		c-2.89-4-4.64-8.58-6.03-13.3c-0.24-0.81-0.5-1.62-0.76-2.42c-0.55-1.68,0.32-2.75,2.1-2.66c0.55,0.03,1.15-0.08,1.64-0.31
		c1.6-0.74,3.17-1.55,4.74-2.35c1.82-0.93,3.1-2.33,3.69-4.32c0.75-2.5,2.24-4.25,4.82-5.01c0.3-0.09,0.64-0.66,0.65-1.02
		c0.06-1.99,0.02-3.97,0.03-5.96c0.01-1.7,0.24-2.01,1.81-2.6c0.48-0.18,0.98-0.34,1.43-0.57c1.62-0.81,2.42-2.18,2.19-3.72
		c-0.22-1.47-1.77-2.99-3.27-3.22c-1.66-0.24-3.31,0.58-4.03,2.09c-0.25,0.52-0.36,1.11-0.53,1.68c-0.35,1.19-1.13,1.79-2.14,1.63
		c-0.97-0.16-1.52-0.89-1.49-2.13c0.09-3.14,1.79-5.28,4.5-6.53c2.84-1.31,5.66-0.94,8.06,1.1c4.24,3.6,3.49,9.8-1.48,12.26
		c-1.37,0.68-2.06,1.44-1.87,3.03c0.15,1.19,0.03,2.42,0.03,3.7c0.19,0.07,0.35,0.15,0.51,0.19c2.65,0.56,4.26,2.3,5.04,4.75
		c0.76,2.35,2.27,3.89,4.42,4.94c1.29,0.63,2.56,1.3,3.84,1.93c0.64,0.32,1.23,0.54,2.05,0.46c0.77-0.08,1.61,0.53,2.6,0.9
		c-0.7,2.21-1.3,4.35-2.04,6.45c-2.59,7.32-6.6,13.75-11.97,19.37C178.84,105.19,176.98,107.66,174.95,110.07z M159.75,80.08
		c1.04,2.38,2.01,4.71,3.1,7c0.19,0.4,0.8,0.76,1.27,0.85c3.24,0.63,6.15,1.92,8.67,4.07c0.72,0.62,1.48,1.2,2.21,1.79
		c0.14-0.08,0.26-0.11,0.33-0.18c2.97-3.1,6.56-5.03,10.81-5.7c0.34-0.05,0.76-0.37,0.9-0.68c1.06-2.29,2.05-4.62,3.05-6.88
		c-0.12-0.14-0.15-0.22-0.21-0.25c-4.75-2.56-9.49-5.14-14.26-7.66c-0.36-0.19-0.99-0.2-1.34-0.02
		C169.46,74.92,164.67,77.47,159.75,80.08z M165.72,92.53c2.68,4.09,6.11,7.06,9.31,10.36c3.14-3.32,6.6-6.22,9.16-10.34
		c-4.14,1.45-6.58,4.59-9.48,7.19C172.05,96.99,169.8,93.85,165.72,92.53z M219.77,107.09c1.58,1.73,1.46,3.09,0.59,4.85
		c-0.36,0.72-0.58,1.51-0.91,2.25c-0.27,0.61-0.6,1.2-0.9,1.8c-0.1,0-0.19,0-0.29,0c0.16-4.16-0.55-7.96-4.39-10.79
		c-0.25,1.23-0.49,2.18-0.62,3.15c-0.5,3.83-0.09,7.43,2.82,10.33c0.54,0.54,0.41,1.05,0.05,1.58c-1.41,2.06-2.84,4.11-4.26,6.17
		c-0.15,0.22-0.24,0.47-0.36,0.71c-0.1-0.08-0.19-0.17-0.29-0.25c0.46-4.03,1.38-8.12-1.26-11.98c-0.52,0.76-1.02,1.38-1.41,2.07
		c-2.13,3.84-2.2,7.76-0.41,11.76c0.2,0.44,0.34,1.25,0.1,1.48c-1.47,1.46-3.06,2.81-4.61,4.2c-0.1-0.04-0.2-0.08-0.3-0.13
		c1.5-4.08,1.42-7.98-1.2-11.93c-3.29,4.67-3.49,9.28-1.12,14.1c-4.48,3.17-9.28,5.38-14.57,6.53c-1.65,0.36-3.31,0.7-4.9,1.24
		c-0.91,0.31-1.68,1.02-2.52,1.56c0.06,0.11,0.11,0.22,0.17,0.33c0.84,0,1.67,0.04,2.51-0.01c1.12-0.07,2.04,0.31,2.73,1.17
		c2.05,2.55,4.8,3.29,7.89,2.98c1.7-0.17,3.45-0.4,4.72-1.86c-2.2-2.14-4.96-2.89-7.87-3.41c1.79-0.79,3.59-1.48,5.4-2.11
		c0.19-0.07,0.57,0.22,0.79,0.43c2.76,2.65,6.66,3.23,10.09,1.42c0.46-0.25,1.07-0.85,1.04-1.24c-0.05-0.49-0.59-1.14-1.08-1.35
		c-1.03-0.45-2.15-0.77-3.27-0.92c-1.13-0.15-2.3-0.03-3.45-0.03c1.57-1.33,3.19-2.39,4.83-3.41c0.19-0.12,0.56-0.11,0.79-0.02
		c4.38,1.88,8.19,0.61,11.71-2.12c1.04-0.81,1.88-1.83,2.3-3.23c-3.56-0.41-6.87,0.11-10.03,1.66c1.86-2.09,3.78-4.07,5.65-6.08
		c0.58-0.62,1.17-0.88,2.03-0.82c2.87,0.2,5.48-0.57,7.66-2.48c1.35-1.18,2.57-2.49,3.12-4.41c-2.99-0.18-5.7,0.4-8.52,1.8
		c0.71-1.36,1.29-2.45,1.85-3.55c0.39-0.78,0.99-1.12,1.85-1.38c1.49-0.45,3.04-0.97,4.33-1.82c2.46-1.62,3.99-4.02,4.85-6.97
		c-2.92-0.03-5.26,1.16-7.61,2.84c0.62-2.02,0.93-3.92,2.75-4.98c3.15-1.84,4.89-4.69,5.75-8.14c0.2-0.8,0.32-1.61,0.5-2.59
		c-5.07,1.55-7.39,5.4-9.4,9.85c-0.56-3.71-0.37-7.42-3.56-9.92C217.26,98.34,217.19,104.27,219.77,107.09z M142,130.51
		c-0.55-0.46-0.63-0.82-0.35-1.48c1.41-3.28,1.72-6.68,0.85-10.14c-0.39-1.55-1.04-2.97-2.7-3.77c-1.92,3.83-1.98,7.73-0.94,11.76
		c-2.13-2.22-3.9-4.67-5.24-7.41c-0.08-0.17,0.06-0.55,0.22-0.73c2.65-3.06,3.48-6.66,3.12-10.58c-0.09-0.93-0.55-1.82-0.89-2.87
		c-1.88,1.41-3.06,2.96-3.55,4.89c-0.47,1.85-0.64,3.78-0.96,5.81c-0.85-2.04-1.65-4.03-2.49-6.01c-0.35-0.82-0.34-1.44,0.55-1.95
		c0.39-0.22,0.66-0.68,0.91-1.08c2.24-3.53,1.95-7.19,0.5-10.89c-0.33-0.85-0.78-0.72-1.29-0.16c-1.34,1.46-2.05,3.21-2.3,5.15
		c-0.16,1.21-0.25,2.44-0.36,3.54c-1.21-1.84-2.3-3.8-3.68-5.52c-1.43-1.78-3.31-3.04-5.59-3.63c-0.09,0.23-0.17,0.33-0.16,0.43
		c0.09,0.54,0.18,1.09,0.32,1.62c0.95,3.54,2.48,6.7,5.82,8.61c1.53,0.87,2.57,2.74,2.52,4.59c-4.48-2.25-5.45-2.56-7.21-2.3
		c0,0.14-0.03,0.29,0,0.42c0.98,4.06,4.93,7.66,9.1,8.36c0.48,0.08,1.12,0.24,1.34,0.59c0.84,1.31,1.53,2.72,2.28,4.09
		c-2.75-1.2-5.51-1.85-8.5-1.57c0.06,0.26,0.09,0.44,0.14,0.61c0.06,0.17,0.12,0.35,0.22,0.5c2.4,3.84,5.68,6.12,10.39,5.75
		c0.93-0.07,1.61,0.18,2.24,0.87c1.57,1.7,3.19,3.36,4.81,5.03c0.33,0.34,0.71,0.64,1.07,0.95c-0.06,0.1-0.13,0.19-0.19,0.29
		c-3.23-1.61-6.59-2.41-10.45-1.81c0.61,0.94,1,1.84,1.65,2.49c3.45,3.47,7.58,4.21,12.19,2.85c0.33-0.1,0.79-0.3,1.01-0.16
		c1.69,1.06,3.34,2.18,5.15,3.39c-1,0-1.78-0.08-2.52,0.02c-1.27,0.17-2.57,0.31-3.75,0.76c-0.68,0.26-1.15,1.1-1.71,1.68
		c0.54,0.5,1,1.21,1.65,1.48c3.4,1.44,6.53,0.86,9.34-1.52c0.31-0.27,0.81-0.65,1.09-0.56c1.97,0.62,3.9,1.35,5.84,2.04
		c-0.4,0.24-0.75,0.29-1.1,0.32c-2.28,0.2-4.39,0.88-6.29,2.17c-1.1,0.75-1.05,1.27,0.12,1.89c3.8,2.01,8.77,1.09,11.55-2.17
		c0.65-0.76,1.41-1.13,2.42-1.03c0.9,0.09,1.8,0.14,2.84,0.22c-0.15-0.33-0.19-0.61-0.34-0.69c-1.28-0.69-2.52-1.53-3.89-1.97
		c-2.97-0.96-6.04-1.58-8.99-2.57c-3.14-1.05-6-2.72-8.72-4.63c1.31-3.32,1.84-6.65,0.95-10.1c-0.37-1.44-0.96-2.76-2.31-3.64
		c-2.89,3.55-1.76,7.5-1.28,11.68C144.8,132.97,143.43,131.7,142,130.51z M210.69,63.31c-2.06-1.69-3.87-3.18-5.77-4.73
		c-0.34,0.36-0.65,0.7-0.98,1.03c-2.99,3.07-7.73,3.74-11.48,1.65c-1.22-0.68-1.25-1.15-0.14-1.99c2.15-1.61,4.58-2.45,7.24-2.68
		c0.43-0.04,0.86-0.06,1.3-0.08c0.09-0.11,0.18-0.22,0.27-0.33c-0.32-0.21-0.67-0.39-0.95-0.64c-2.34-2.04-3.49-4.68-3.84-7.71
		c-0.02-0.18-0.03-0.37-0.05-0.55c-0.33-2.11-0.11-2.34,2.03-1.78c4.06,1.07,6.77,3.58,7.85,7.68c0.21,0.79,0.04,1.68,0.14,2.52
		c0.06,0.51,0.14,1.18,0.48,1.47c1.79,1.52,3.66,2.94,5.53,4.43c-0.22-2.39-0.43-4.69-0.65-7.06c2.5,0.45,4.71,2.98,5.27,5.64
		c0.34,1.65,0.21,3.23-0.49,4.74c-0.3,0.66-0.23,1.15,0.2,1.72c1.28,1.69,2.52,3.41,3.7,5.01c0.66-2,1.3-4,2-5.98
		c0.12-0.34,0.47-0.59,0.71-0.89c0.29,0.25,0.65,0.46,0.84,0.77c1.23,2.06,2.2,4.24,1.63,6.68c-0.28,1.17-0.92,2.3-1.57,3.34
		c-0.59,0.94-0.87,1.76-0.42,2.86c0.66,1.62,1.17,3.3,1.67,4.72c0.96-1.68,1.89-3.44,2.98-5.1c0.31-0.47,1.09-0.64,1.68-0.97
		c1.36,5.03,0.69,9.3-2.66,11.69c-0.4,0.28-0.68,0.97-0.72,1.48c-0.1,1.54,0,3.09-0.07,4.63c-0.02,0.46-0.23,1.01-0.54,1.34
		c-0.28,0.3-0.9,0.57-1.22,0.45c-0.29-0.11-0.53-0.75-0.54-1.16c-0.05-1.54-0.01-3.09,0.04-4.64c0.02-0.79-0.28-1.14-1.09-1.31
		c-4.23-0.88-6.27-4.53-7.03-7.94c-0.2-0.91,0.21-1.26,1.15-0.96c1.78,0.58,3.52,1.27,5.47,1.99c-0.56-1.53-1.08-2.95-1.58-4.3
		c-1.75,0.22-3.4,0.51-5.07,0.63c-2.76,0.19-5.2-0.76-7.38-2.41c-1.01-0.77-1.01-1.23,0.05-1.9c2.81-1.78,5.79-2.48,9.04-1.32
		c0.22,0.08,0.47,0.08,0.94,0.16c-1.4-2.01-2.67-3.83-3.99-5.72c-1.67,1.2-3.45,1.9-5.43,2.05c-2.65,0.2-5.03-0.49-7.08-2.2
		c-1.03-0.85-1-1.26,0.07-2.03c2.09-1.52,4.46-2.2,7.02-2.29C209.62,63.3,209.98,63.31,210.69,63.31z M203.87,55.03
		c-0.56-2.34-1.69-3.83-3.79-4.94C200.88,52.21,202,53.71,203.87,55.03z M207.09,65.78c0.78,0.98,2.6,1.18,4.04,0.38
		C209.79,65.42,208.46,65.4,207.09,65.78z M218.16,76.18c-1.24-1.33-3.04-1.72-4.51-0.96C215.23,75.55,216.56,75.84,218.16,76.18z
		 M127.25,82.82c1.89-0.73,3.62-1.43,5.37-2.07c0.33-0.12,0.72-0.07,1.16-0.1c0.37,1.23,0.11,2.35-0.41,3.42
		c-1.36,2.77-3.63,4.49-6.51,5.41c-0.78,0.25-1.04,0.58-1,1.38c0.08,1.47,0.06,2.94,0.07,4.41c0.01,0.63,0.08,1.43-0.77,1.45
		c-0.83,0.02-1.47-0.53-1.54-1.43c-0.08-1.06-0.12-2.14-0.05-3.2c0.12-1.81-0.27-3.3-1.88-4.4c-1.37-0.94-1.87-2.48-1.96-4.04
		c-0.12-2.19-0.03-4.39-0.03-6.81c3.15,1.28,4.24,3.64,4.79,6.59c0.19-0.31,0.34-0.49,0.41-0.69c0.63-1.69,1.29-3.36,1.82-5.08
		c0.13-0.42-0.02-1.14-0.32-1.44c-3.33-3.3-1.94-8.25-0.16-11.02c0.52-0.8,1.05-0.43,1.27,0.23c0.64,1.9,1.21,3.83,1.8,5.74
		c0.06,0.19,0.06,0.41,0.12,0.88c1.5-2.06,2.89-3.89,4.17-5.8c0.21-0.32,0.03-0.99-0.12-1.44c-0.98-3.02-0.67-5.83,1.47-8.26
		c0.59-0.67,1.38-1.22,2.16-1.68c0.92-0.55,1.28-0.32,1.19,0.79c-0.14,1.76-0.39,3.51-0.58,5.26c-0.02,0.21-0.03,0.43-0.06,0.81
		c1.89-1.55,3.73-2.94,5.39-4.51c0.51-0.48,0.76-1.47,0.74-2.22c-0.15-4.47,2.24-7.13,6.08-8.78c0.84-0.36,1.74-0.6,2.62-0.83
		c1.22-0.32,1.46-0.12,1.41,1.13c-0.15,3.8-1.62,6.97-4.55,9.44c-0.11,0.09-0.25,0.15-0.29,0.47c0.92,0.11,1.83,0.21,2.74,0.34
		c2.25,0.32,4.19,1.33,5.97,2.67c0.93,0.71,0.86,1.21-0.2,1.8c-4.11,2.27-9.1,1.35-12.09-2.23c-0.11-0.14-0.24-0.26-0.44-0.47
		c-1.91,1.61-3.78,3.19-5.83,4.91c0.49,0,0.79,0.01,1.09,0c2.7-0.16,5.18,0.5,7.39,2.08c1.17,0.84,1.19,1.16,0.12,2.08
		c-3.07,2.64-8.15,2.95-11.66,0.7c-0.24-0.16-0.48-0.32-0.8-0.55c-1.26,1.77-2.49,3.49-3.86,5.42c0.84-0.13,1.46-0.22,2.08-0.33
		c2.95-0.52,5.5,0.56,7.92,2.06c0.8,0.49,0.45,1.05-0.09,1.52c-1.78,1.56-3.89,2.43-6.23,2.46c-1.74,0.02-3.5-0.28-5.24-0.51
		c-0.5-0.06-0.93-0.25-1.17,0.39C128.27,80.12,127.76,81.45,127.25,82.82z M150.3,50.27c-0.12-0.09-0.23-0.19-0.35-0.28
		c-1.86,1.06-3.21,2.5-3.57,4.7c0.11,0.08,0.22,0.17,0.33,0.25C147.92,53.39,149.11,51.83,150.3,50.27z M138.76,65.82
		c1.44,1.15,3.16,0.98,3.81-0.29C141.32,65.63,140.11,65.72,138.76,65.82z M135.98,75.28c-1.59-0.74-2.99-0.4-4.09,0.87
		C133.37,75.84,134.68,75.56,135.98,75.28z M196.34,135.87c-1.79-4.23-3.6-8.46-5.35-12.7c-0.39-0.94-0.94-1.22-1.93-1.22
		c-8.61,0.03-17.23-0.02-25.84,0.03c-4.61,0.03-3.4-0.8-5.23,3.5c-1.55,3.65-3.01,7.33-4.53,11.03c3.79,2.39,7.86,3.67,12.19,4.54
		c-0.43-1.19-0.93-2.2-1.15-3.27c-1.03-4.86,2.17-8.33,6.26-6.85c0.31,0.11,0.85-0.08,1.13-0.32c2.3-1.97,3.88-2.02,6.09,0.05
		c0.6,0.56,1.02,0.53,1.7,0.25c1.92-0.79,3.76-0.19,4.94,1.52c0.97,1.41,1.26,3,0.98,4.63c-0.23,1.31-0.7,2.58-1.08,3.93
		c4.26-0.78,8.3-2.13,12.08-4.34C196.5,136.35,196.44,136.1,196.34,135.87z M239.34,89.8c-0.18-1.43-1-2-2.24-1.89
		c-1.27,0.12-1.9,0.79-1.96,2.21c-0.05,1.14-0.05,2.28-0.03,3.42c0.09,5.16-0.22,10.29-1.32,15.35
		c-2.29,10.51-7.3,19.55-14.64,27.36c-10.34,11-23,17.35-37.99,19.08c-2.03,0.23-2.21,0.39-2.26,2.42c-0.05,1.84,0.4,2.29,2.21,2.04
		c5.98-0.82,11.84-2.1,17.48-4.37c14.67-5.9,26.15-15.38,33.46-29.55c4.78-9.27,7.76-19.04,7.79-29.6
		C239.68,94.12,239.61,91.95,239.34,89.8z M176.44,33.32c-0.57,1.6,0.2,2.85,1.97,3.03c7.1,0.72,14.01,2.2,20.56,5.14
		c11.2,5.02,20.49,12.35,27.18,22.76c3.66,5.71,6.35,11.85,7.94,18.45c0.2,0.82,0.49,1.67,1.41,1.78c0.7,0.09,1.62,0.03,2.14-0.36
		c0.86-0.63,0.88-1.73,0.65-2.74c-1.3-5.94-3.48-11.53-6.54-16.78c-6.61-11.36-15.86-19.87-27.6-25.74
		c-7.94-3.97-16.36-6.11-25.17-6.8C177.89,32,176.87,32.09,176.44,33.32z M177.45,136.29c-0.26-1.07-0.39-2.2-0.82-3.19
		c-0.25-0.58-0.93-1.14-1.54-1.34c-0.8-0.25-1.41,0.39-1.66,1.13c-0.32,0.96-0.51,1.97-0.73,2.97c-0.08,0.35-0.04,0.73-0.06,1.1
		c-0.86-0.98-1.45-1.99-2.13-2.93c-0.76-1.05-1.96-1.28-2.61-0.41c-0.5,0.66-0.94,1.55-0.97,2.35c-0.11,3.35,2.03,6.33,5.23,7.37
		c0.9,0.29,1.22,0.75,1.19,1.67c-0.06,2.02-0.05,4.05-0.05,6.07c0.01,4.01,0.03,8.02,0.05,12.03c0,0.93,0.37,1.57,1.38,1.64
		c1.01,0.07,1.66-0.47,1.79-1.52c0.05-0.4,0.04-0.81,0.04-1.21c-0.01-5.7-0.02-11.4-0.06-17.1c-0.01-0.82,0.27-1.29,1.03-1.59
		c0.78-0.31,1.55-0.68,2.25-1.14c2.62-1.7,3.89-4.8,3.14-7.53c-0.4-1.47-1.81-1.98-2.99-1.01c-0.52,0.43-0.91,1.04-1.28,1.62
		c-0.33,0.51-0.56,1.1-0.94,1.89C177.58,136.7,177.5,136.5,177.45,136.29z"/>
</g>
</svg>
