<?xml version="1.0" encoding="utf-8"?>
<!-- Generator: Adobe Illustrator 27.8.1, SVG Export Plug-In . SVG Version: 6.00 Build 0)  -->
<svg version="1.1" xmlns="http://www.w3.org/2000/svg" xmlns:xlink="http://www.w3.org/1999/xlink" x="0px" y="0px"
	 viewBox="0 0 350 230" style="enable-background:new 0 0 350 230;" xml:space="preserve">
<style type="text/css">
	.st0{fill:#B6FFF3;}
	.st1{fill:#F0FFB8;}
	.st2{fill:#FFF6B8;}
	.st3{fill:#FFDCFF;}
	.st4{fill:#D1FFBB;}
	.st5{fill:#FFD6B8;}
	.st6{fill:#00224E;}
	.st7{fill:#C3FFB8;}
	.st8{fill:#EAEAEA;}
	.st9{fill:#CAFFF5;}
	.st10{fill:#E4335A;}
	.st11{fill:#005199;}
	.st12{fill:#AD0000;}
	.st13{fill:#00E2E2;}
	.st14{fill:#003F33;}
	.st15{fill:#600068;}
	.st16{fill:#664600;}
	.st17{fill:#DAB038;}
	.st18{fill:#466F85;}
	.st19{fill:#57D4FF;}
	.st20{fill:#99042B;}
	.st21{fill:#BF882F;}
	.st22{fill:#B0C1C1;}
	.st23{fill:#689FC1;}
	.st24{fill:#0035AA;}
	.st25{fill:#CEC1A3;}
	.st26{fill:#AC8746;}
	.st27{fill:#F2EBDD;}
	.st28{fill:#350B00;}
	.st29{fill:#ECC752;}
	.st30{fill:#005468;}
	.st31{stroke:#000000;stroke-width:0.25;stroke-miterlimit:10;}
	.st32{fill:#EFECFF;}
	.st33{fill:#FFDE98;}
	.st34{fill:#5B3F00;}
	.st35{fill:#826834;}
	.st36{fill:none;stroke:#5B3F00;stroke-width:2;stroke-miterlimit:10;}
	.st37{fill:#FFBE00;}
	.st38{fill:#9B8D75;}
	.st39{fill:#FFFFFF;}
	.st40{fill:#FFFF00;}
	.st41{fill:#FFBF00;}
	.st42{fill:#FFA500;}
	.st43{fill:#B7F3F9;}
	.st44{fill:#B78802;}
	.st45{fill:url(#SVGID_1_);}
	.st46{fill:url(#SVGID_00000023280328380683867200000006198442112220989627_);}
	.st47{fill:url(#SVGID_00000043432936549560296040000017900853305688786604_);}
	.st48{fill:url(#SVGID_00000027564139421535036990000012071099709757018788_);}
	.st49{fill:url(#SVGID_00000098907033937123153680000015892971639475516326_);}
	.st50{fill:url(#SVGID_00000027604615752924253600000013693133580562265747_);}
	.st51{fill:url(#SVGID_00000008853737632463112180000008334789314886907570_);}
	.st52{fill:url(#SVGID_00000050636790471046297300000012522485411029983148_);}
	.st53{fill:url(#SVGID_00000057138149271128346940000013340695896963816618_);}
	.st54{fill:url(#SVGID_00000138568694391496132000000012317421545099321779_);}
	.st55{fill:url(#SVGID_00000177471598497826314120000012984684899075098004_);}
	.st56{fill:url(#SVGID_00000147907827657397418630000013555362829970533520_);}
	.st57{fill:#FFFFFF;stroke:#3E423E;stroke-linecap:round;stroke-linejoin:round;stroke-miterlimit:10;}
	.st58{fill:#89DBEF;}
	.st59{fill:url(#SVGID_00000095340114082390877530000006509875026021242300_);}
	.st60{fill:#FC90C7;}
	.st61{fill:url(#SVGID_00000165917064227770054530000000496318427928331693_);}
	.st62{fill:url(#SVGID_00000072975095420885909500000012589417575949177022_);}
	.st63{fill:url(#SVGID_00000096027552439933619890000009831960073577851797_);}
	.st64{fill:url(#SVGID_00000076563849868422930920000008600488292004401848_);}
	.st65{fill:url(#SVGID_00000062878921140121832480000014113940711272729999_);}
	.st66{fill:url(#SVGID_00000019655684154358242150000009889228775280922497_);}
	.st67{fill:url(#SVGID_00000136377342603643587380000011387581410470914728_);}
	.st68{fill:url(#SVGID_00000149370257652436747040000002224204597355395754_);}
	.st69{fill:url(#SVGID_00000174575197102946943460000002327496473328725415_);}
	.st70{fill:url(#SVGID_00000018226984553784763280000009443802509385114252_);}
	.st71{fill:url(#SVGID_00000158716033048107992710000006787527636578527890_);}
	.st72{fill:url(#SVGID_00000054987641569376331970000001086099042423013763_);}
	.st73{fill:url(#SVGID_00000183962325021188380660000016708403464147333040_);}
	.st74{fill:url(#SVGID_00000111897136019020405950000018127126325731301523_);}
</style>
<g id="Logo1">
</g>
<g id="Logo2">
</g>
<g id="Logo3">
</g>
<g id="Logo4">
</g>
<g id="Logo5">
</g>
<g id="Logo6">
</g>
<g id="Logo7">
</g>
<g id="Logo8">
</g>
<g id="Logo9">
</g>
<g id="Logo10">
</g>
<g id="Logo11">
</g>
<g id="Logo12">
</g>
<g id="Logo13">
</g>
<g id="Logo14">
</g>
<g id="Logo15">
	<radialGradient id="SVGID_1_" cx="174.9071" cy="93.1295" r="58.5166" gradientUnits="userSpaceOnUse">
		<stop  offset="0" style="stop-color:#FFFFFF"/>
		<stop  offset="0.0133" style="stop-color:#F0F9FD"/>
		<stop  offset="0.0605" style="stop-color:#C2E7F6"/>
		<stop  offset="0.1107" style="stop-color:#98D6F1"/>
		<stop  offset="0.1631" style="stop-color:#75C9EC"/>
		<stop  offset="0.2181" style="stop-color:#59BEE8"/>
		<stop  offset="0.2769" style="stop-color:#43B5E5"/>
		<stop  offset="0.3412" style="stop-color:#33AFE3"/>
		<stop  offset="0.4149" style="stop-color:#2AABE1"/>
		<stop  offset="0.5196" style="stop-color:#27AAE1"/>
		<stop  offset="1" style="stop-color:#262262"/>
	</radialGradient>
	<path class="st45" d="M218.11,142.83c-1.04-1.95-2.06-3.84-3.06-5.75c-2.28-4.33-4.53-8.68-6.84-13c-0.82-1.54-1.23-3.15-1.34-4.88
		c-0.54-8.4-1.19-16.78-1.64-25.18c-0.09-1.65-1.09-2.52-1.91-3.75c-0.78,0.98-1.37,1.86-1.35,3.14
		c0.14,10.31,0.25,20.63,0.32,30.95c0.04,5.45-0.01,10.9-0.03,16.34c0,0.19-0.02,0.37-0.04,0.61c-18.12,0-36.19,0-54.42,0
		c0-0.75-0.01-1.47,0-2.2c0.19-10.22,0.38-20.43,0.57-30.65c0.09-5.19,0.17-10.38,0.24-15.57c0.02-1.47-0.14-2.91-1.36-4.02
		c-1.04,0.69-1.65,1.63-1.76,2.91c-0.24,2.92-0.54,5.84-0.74,8.76c-0.43,6.33-0.81,12.67-1.24,19.01c-0.05,0.72-0.21,1.49-0.54,2.13
		c-3.51,6.96-7.06,13.9-10.6,20.85c-0.06,0.11-0.14,0.2-0.25,0.36c-3.23-1.42-6.44-2.82-9.65-4.23c-0.83-0.36-1.64-0.76-2.49-1.07
		c-0.64-0.23-0.76-0.58-0.7-1.23c0.7-7.81,2.92-15.21,5.85-22.45c4.92-12.18,9.76-24.4,14.58-36.63c1.26-3.21,3.4-5.37,6.63-6.57
		c2.86-1.07,5.67-2.3,8.48-3.45c1.08,1.39,2.09,2.8,3.21,4.11c2.39,2.78,5.31,4.87,8.74,6.21c1.32,0.52,1.62,0.92,1.61,2.39
		c-0.02,3.84-0.07,7.67-0.11,11.51c-0.01,0.71-0.01,1.42-0.04,2.13c-0.11,2.21-0.07,2.31,1.61,3.84c1.3-0.72,2.01-1.7,1.98-3.31
		c-0.12-5.74-0.15-11.47-0.18-17.21c0-0.67-0.31-0.86-0.84-1.06c-4.65-1.75-8.68-4.37-11.59-8.49c-8.26-11.7-1.73-28.89,12.11-31.93
		c9.57-2.1,18.97,3.31,22.31,12.91c1.78,5.13,2.11,10.28-0.27,15.35c-1.79,3.83-4.74,6.65-8.24,8.88c-1.84,1.18-3.81,2.16-5.75,3.16
		c-0.56,0.29-0.81,0.56-0.8,1.22c0.05,5.61,0.1,11.22,0.04,16.83c-0.02,1.57,0.47,2.74,1.74,3.68c1.07-0.88,1.73-1.88,1.7-3.41
		c-0.08-4.87-0.03-9.74-0.06-14.6c0-0.78,0.17-1.26,1-1.59c5.14-2.02,9.17-5.41,12.12-10.08c0.12-0.19,0.26-0.36,0.47-0.66
		c4.11,1.94,8.23,3.85,12.31,5.84c1.35,0.66,2,2,2.51,3.33c5.9,15.05,11.78,30.12,17.65,45.18c1.64,4.2,2.25,8.66,3.11,13.05
		c0.16,0.84,0.6,1.87,0.28,2.49c-0.29,0.58-1.42,0.75-2.18,1.08C225.57,139.66,221.87,141.23,218.11,142.83z M175.5,75.68
		c3.53-3.91,7.2-7.68,10.52-11.74c4.77-5.83,3.96-13.41-1.69-18.41c-5.52-4.89-13.38-4.71-18.65,0.39
		c-4.91,4.75-6.07,12.94-0.98,18.59c2.42,2.68,4.94,5.26,7.44,7.86C173.19,73.45,174.29,74.48,175.5,75.68z M195.72,132.76
		c-0.39-0.33-0.71-0.6-1.03-0.86c-3.8-3.13-6.54-6.99-7.98-11.73c-0.42-1.38-0.91-1.8-2.33-1.8c-6.02-0.02-12.05-0.03-18.08-0.02
		c-1.35,0-1.95,0.58-2.54,1.82c-1.06,2.2-2.06,4.46-3.43,6.45c-1.17,1.7-2.77,3.12-4.28,4.56c-1.44,1.38-1.48,1.87,0.13,3.06
		c0.08,0.06,0.15,0.16,0.23,0.17c0.25,0.01,0.58,0.09,0.75-0.04c3.8-2.8,7.01-6.06,8.58-10.67c0.58-1.69,1.21-2.12,3.01-2.1
		c1.68,0.02,3.35,0.1,5.03,0.08c2.38-0.02,4.77-0.09,7.15-0.15c2.26-0.06,3.08,0.47,3.88,2.55c0.17,0.45,0.34,0.91,0.53,1.35
		c1.79,4.1,4.66,7.19,8.58,9.43C194.53,134.18,195.08,133.52,195.72,132.76z M202.35,145.08c-18.16,0-36.24,0-54.32,0
		c0,1.95,0,3.83,0,5.71c18.15,0,36.21,0,54.32,0C202.35,148.85,202.35,146.97,202.35,145.08z M118.41,140.07
		c-0.81,1.99-1.59,3.91-2.38,5.88c4.08,1.78,8.05,3.51,12.09,5.27c0.92-1.9,1.81-3.71,2.74-5.62
		C126.66,143.73,122.58,141.92,118.41,140.07z M233.79,146c-0.69-1.92-1.37-3.79-2.05-5.69c-4.21,1.82-8.33,3.59-12.48,5.38
		c0.98,1.93,1.87,3.7,2.82,5.58C226.04,149.49,229.87,147.77,233.79,146z M178.6,67.44c2.34-2.3,4.41-4.78,5.84-7.76
		c0.96-1.99,1.45-4.07,0.98-6.28c-0.96-4.53-5.26-7.88-10.29-7.91c-4.15-0.03-7.27,1.88-9.18,5.52c-1.87,3.59-1.72,7.22,0.83,10.44
		c2.57,3.26,5.36,6.34,8.25,9.73C176.34,69.82,177.43,68.59,178.6,67.44z"/>
</g>
</svg>
