<?xml version="1.0" encoding="utf-8"?>
<!-- Generator: Adobe Illustrator 27.8.1, SVG Export Plug-In . SVG Version: 6.00 Build 0)  -->
<svg version="1.1" xmlns="http://www.w3.org/2000/svg" xmlns:xlink="http://www.w3.org/1999/xlink" x="0px" y="0px"
	 viewBox="0 0 350 230" style="enable-background:new 0 0 350 230;" xml:space="preserve">
<style type="text/css">
	.st0{fill:#DEFDFF;}
	.st1{fill:#E1FEFF;}
	.st2{fill:#FAFCE3;}
	.st3{fill:#FFFFFF;}
	.st4{fill:#AC8746;}
	.st5{fill:#F5F7B7;}
	.st6{fill:#B7F3F9;}
	.st7{fill:#E6FEFF;}
	.st8{fill:#0035AA;}
	.st9{fill:#FFE3EA;}
	.st10{fill:#FCFFD7;}
	.st11{fill:#EAFFDC;}
	.st12{fill:#F7EDB7;}
	.st13{fill:#FFFFC6;}
	.st14{fill:#350B00;}
	.st15{fill:#FBF8F2;}
	.st16{fill:#DCFDFF;}
	.st17{fill:#F2F7B7;}
	.st18{fill:#E4335A;}
	.st19{fill:#005199;}
	.st20{fill:#AD0000;}
	.st21{fill:#00E2E2;}
	.st22{fill:#003F33;}
	.st23{fill:#600068;}
	.st24{fill:#664600;}
	.st25{fill:#DAB038;}
	.st26{fill:#466F85;}
	.st27{fill:#57D4FF;}
	.st28{fill:#99042B;}
	.st29{fill:#BF882F;}
	.st30{fill:#B0C1C1;}
	.st31{fill:#689FC1;}
	.st32{fill:#CEC1A3;}
	.st33{fill:#F2EBDD;}
	.st34{fill:#ECC752;}
	.st35{fill:#005468;}
	.st36{stroke:#000000;stroke-width:0.25;stroke-miterlimit:10;}
	.st37{fill:#EFECFF;}
	.st38{fill:#FFDE98;}
	.st39{fill:#5B3F00;}
	.st40{fill:#826834;}
	.st41{fill:none;stroke:#5B3F00;stroke-width:2;stroke-miterlimit:10;}
	.st42{fill:#FFBE00;}
	.st43{fill:#9B8D75;}
	.st44{fill:#FFFF00;}
	.st45{fill:#FFBF00;}
	.st46{fill:#FFA500;}
	.st47{fill:#B78802;}
	.st48{fill:#479B99;}
	.st49{fill:url(#SVGID_1_);}
	.st50{fill:#88DFE2;}
	.st51{fill:#9887D3;}
	.st52{fill:#F7B4C0;}
	.st53{fill:#4155A2;}
	.st54{fill:#52A042;}
	.st55{fill:url(#SVGID_00000161613852982550874640000007320823221175810468_);}
	.st56{fill:#151515;}
	.st57{fill:#0C95AA;}
	.st58{fill:#68C0C6;}
	.st59{fill:url(#SVGID_00000098209427683540089650000001304160205168799883_);}
	.st60{fill:url(#SVGID_00000160169178447772376440000003137556929846677695_);}
	.st61{fill:#8CA0B5;}
	.st62{fill:#493737;}
	.st63{fill:#2BB4A2;}
</style>
<g id="Logo1">
</g>
<g id="Logo2">
</g>
<g id="Logo3">
</g>
<g id="Logo4">
</g>
<g id="Logo5">
</g>
<g id="Logo6">
</g>
<g id="Logo7">
</g>
<g id="Logo8">
</g>
<g id="Logo9">
</g>
<g id="Logo10">
</g>
<g id="Logo11">
</g>
<g id="Logo12">
</g>
<g id="Logo13">
</g>
<g id="Logo14">
</g>
<g id="_x31_-15">
	<g>
		<path class="st4" d="M174.25,105.42c-0.34,2.55-0.92,5.1-0.98,7.66c-0.18,8.89-0.15,17.79-0.26,26.68
			c-0.08,7.07-1.18,13.93-4.88,20.12c-3.53,5.9-9.65,8.05-15.38,5.18c-1.82-0.91-3.28-2.56-5.05-3.98
			c-1.74,1.83-3.88,3.74-7.02,3.18c-2.97-0.54-4.99-2.47-6.57-4.98c-1.78,0.49-3.51,1.1-5.28,1.42
			c-8.12,1.47-15.55-5.25-15.15-13.54c0.04-0.75-0.53-1.65-1.06-2.28c-3.1-3.68-3.56-8.67-1.04-12.36c2.15-3.14,6.44-4.37,9.76-2.79
			c2.5,1.19,3.86,3.92,3.16,6.49c-0.52,1.89-1.79,3.21-3.77,3.06c-0.98-0.07-1.97-1.01-2.76-1.77c-0.2-0.2,0.36-1.19,0.58-1.81
			c0.88,0.32,1.76,0.64,2.88,1.04c1.2-0.79,1.47-2.13,0.43-3.59c-1.38-1.95-4.01-2.46-6.24-1.21c-4.22,2.36-4.65,8.31-0.79,11.72
			c2.79,2.47,6.09,3.07,9.47,1.61c2.83-1.22,5.66-2.64,8.12-4.47c12.04-8.93,22.81-19.14,30.65-32.09c2.88-4.76,4.93-9.9,5.02-15.54
			c0.13-7.4-2.48-13.55-9.04-17.52c-1.1-0.67-2.46-1.03-3.75-1.22c-2.5-0.36-4.08-1.43-4.75-3.55c-0.74-2.35,0.21-4.2,1.94-5.63
			c1.35-1.12,2.91-1.99,4.4-2.92c5.45-3.39,10.89-6.81,16.4-10.1c1.35-0.81,1.77-1.74,1.73-3.24c-0.09-3.74,0.04-7.48-0.05-11.22
			c-0.04-1.61,0.45-2.35,2.12-2.7c2.84-0.58,4.65-2.98,4.71-5.76c0.07-2.78-2-5.42-4.72-6.01c-2.59-0.56-5.37,0.77-6.42,3.33
			c-0.57,1.4-0.72,2.96-1.14,4.83c-1.6,0-3.42,0.09-5.23-0.06c-0.49-0.04-0.92-0.84-1.28-1.66c3.44,0.46,4.82-0.89,5.84-3.94
			c1.21-3.62,4.95-5.2,8.4-4.55c3.78,0.71,6.34,3.49,6.65,7.21c0.31,3.72-1.67,7.03-5.23,8.29c-1.36,0.48-1.64,1.2-1.62,2.48
			c0.07,3.32,0.13,6.64-0.02,9.95c-0.08,1.82,0.65,2.78,2.13,3.69c5.95,3.65,11.86,7.39,17.71,11.2c1.19,0.78,2.36,1.89,3.04,3.12
			c1.69,3.07-0.49,7.17-3.93,7.21c-5.34,0.06-8.64,3.15-11.25,7.15c-3.26,5-4.23,10.49-2.79,16.4c1.52,6.23,4.47,11.72,8.37,16.71
			c8.48,10.87,18.34,20.32,29.9,27.88c2.35,1.54,5.18,2.68,7.94,3.21c5.05,0.96,9.54-3.18,9.56-8.29c0.02-3.06-2.16-5.67-5.16-6.05
			c-1.94-0.24-3.45,0.56-4.39,2.29c-0.71,1.3-0.45,2.44,0.79,3.35c0.19-0.06,0.38-0.12,0.58-0.19c0.66-0.24,1.31-0.57,1.99-0.66
			c0.16-0.02,0.72,0.94,0.59,1.17c-0.38,0.68-0.89,1.48-1.56,1.78c-1.98,0.89-4.37-0.67-4.89-3.04c-0.8-3.62,2.24-7.01,6.28-7.01
			c4.81-0.01,8.66,4.51,8.02,9.44c-0.35,2.69-1.52,4.94-3.46,6.86c-0.53,0.53-1.06,1.36-1.07,2.07c-0.19,10.13-9.5,16.18-18.9,12.24
			c-0.52-0.22-1.03-0.45-0.98-0.43c-2.5,1.69-4.55,3.56-6.96,4.6c-3.04,1.31-5.14-0.91-7.12-3.16c-0.57,0.61-1.07,1.15-1.58,1.69
			c-4.97,5.37-12.98,5.22-17.62-0.46c-3.84-4.69-5.59-10.36-6.04-16.24c-0.53-6.88-0.36-13.82-0.51-20.73
			c-0.12-5.57-0.24-11.15-0.41-16.72c-0.03-0.94-0.3-1.87-0.46-2.8C174.65,105.44,174.45,105.43,174.25,105.42z M174.99,81.8
			c0.92-1.7,1.7-3.45,2.74-5.03c3.41-5.17,9.97-9.33,16.89-4.98c0.63,0.4,2.25,0.02,2.91-0.56c1.67-1.47,1.2-3.36-1.1-4.83
			c-6.41-4.11-12.88-8.15-19.29-12.26c-1.03-0.66-1.83-0.65-2.86,0c-6.51,4.09-13.06,8.11-19.58,12.2c-0.7,0.44-1.63,1.08-1.73,1.74
			c-0.17,1.03,0.04,2.29,0.52,3.23c0.6,1.18,1.61,0.61,2.54,0.11c0.92-0.5,1.9-0.99,2.91-1.19c5.2-1,9.05,1.43,12.13,5.23
			C172.6,77.35,173.66,79.61,174.99,81.8z M178.49,113.98c-0.14,0.22-0.27,0.32-0.27,0.41c0.02,9.66-0.16,19.32,0.15,28.97
			c0.2,6.27,1.89,12.29,5.95,17.3c3.99,4.93,11.07,4.46,14.61-0.8c0.6-0.9,0.78-1.59,0.13-2.64c-6.81-10.99-11.99-22.8-17.17-34.6
			C180.66,119.82,179.64,116.92,178.49,113.98z M170.7,113.08c-0.77,2.07-1.42,3.98-2.2,5.84c-5.5,13.13-11.23,26.15-18.28,38.55
			c-0.33,0.58-0.37,1.67-0.04,2.21c3.31,5.38,10.22,5.93,14.32,1.13c1.17-1.38,2.18-2.98,2.92-4.63c2.24-5.02,3.27-10.32,3.28-15.82
			C170.7,131.36,170.7,122.36,170.7,113.08z M190.01,118.92c-0.09-0.2,0.01,0.12,0.18,0.39c4.79,8.05,9.38,16.24,14.47,24.1
			c2.78,4.29,6.22,8.2,9.74,11.92c2.54,2.68,5.95,4.07,9.83,3.24c5.13-1.1,8.3-4.93,8.94-10.91c-6.42,1.76-11.61-1.08-16.52-4.54
			c-3.39-2.39-6.71-4.95-9.75-7.78C201.04,129.9,195.42,124.21,190.01,118.92z M116.13,147.37c-0.15,8.74,8.77,14.27,16,9.84
			c3.14-1.93,5.81-4.9,8.14-7.84c7.17-9.03,12.74-19.09,18.15-29.23c0.15-0.28,0.21-0.6,0.31-0.9c-0.61,0.38-1.01,0.86-1.41,1.34
			c-7.39,8.88-15.66,16.82-25.22,23.32C127.36,147.12,122.28,149.63,116.13,147.37z M170.16,99.91
			c-8.63,21.23-19.11,40.85-33.93,58.19c0.35,0.46,0.82,1.15,1.37,1.77c2.67,2.99,5.47,2.95,7.99-0.15
			c0.89-1.09,1.73-2.24,2.44-3.45c8.13-13.91,14.57-28.62,20.36-43.62C169.89,108.76,170.74,104.68,170.16,99.91z M179.37,100.44
			c-0.25,0.04-0.49,0.08-0.74,0.12c0.38,3.03,0.22,6.26,1.25,9.06c3.24,8.77,6.58,17.55,10.56,26c3.77,8.01,8.21,15.73,12.75,23.34
			c2.54,4.25,5.36,4.04,8.56,0.24c0.95-1.13,0.99-1.84-0.04-3c-12.2-13.81-21.19-29.64-28.75-46.34
			C181.58,106.79,180.56,103.58,179.37,100.44z"/>
	</g>
</g>
</svg>
