<?xml version="1.0" encoding="utf-8"?>
<!-- Generator: Adobe Illustrator 27.8.1, SVG Export Plug-In . SVG Version: 6.00 Build 0)  -->
<svg version="1.1" xmlns="http://www.w3.org/2000/svg" xmlns:xlink="http://www.w3.org/1999/xlink" x="0px" y="0px"
	 viewBox="0 0 350 230" style="enable-background:new 0 0 350 230;" xml:space="preserve">
<style type="text/css">
	.st0{fill:#DEFDFF;}
	.st1{fill:#E1FEFF;}
	.st2{fill:#FAFCE3;}
	.st3{fill:#FFFFFF;}
	.st4{fill:#AC8746;}
	.st5{fill:#F5F7B7;}
	.st6{fill:#B7F3F9;}
	.st7{fill:#E6FEFF;}
	.st8{fill:#0035AA;}
	.st9{fill:#FFE3EA;}
	.st10{fill:#FCFFD7;}
	.st11{fill:#EAFFDC;}
	.st12{fill:#F7EDB7;}
	.st13{fill:#FFFFC6;}
	.st14{fill:#350B00;}
	.st15{fill:#FBF8F2;}
	.st16{fill:#DCFDFF;}
	.st17{fill:#F2F7B7;}
	.st18{fill:#E4335A;}
	.st19{fill:#005199;}
	.st20{fill:#AD0000;}
	.st21{fill:#00E2E2;}
	.st22{fill:#003F33;}
	.st23{fill:#600068;}
	.st24{fill:#664600;}
	.st25{fill:#DAB038;}
	.st26{fill:#466F85;}
	.st27{fill:#57D4FF;}
	.st28{fill:#99042B;}
	.st29{fill:#BF882F;}
	.st30{fill:#B0C1C1;}
	.st31{fill:#689FC1;}
	.st32{fill:#CEC1A3;}
	.st33{fill:#F2EBDD;}
	.st34{fill:#ECC752;}
	.st35{fill:#005468;}
	.st36{stroke:#000000;stroke-width:0.25;stroke-miterlimit:10;}
	.st37{fill:#EFECFF;}
	.st38{fill:#FFDE98;}
	.st39{fill:#5B3F00;}
	.st40{fill:#826834;}
	.st41{fill:none;stroke:#5B3F00;stroke-width:2;stroke-miterlimit:10;}
	.st42{fill:#FFBE00;}
	.st43{fill:#9B8D75;}
	.st44{fill:#FFFF00;}
	.st45{fill:#FFBF00;}
	.st46{fill:#FFA500;}
	.st47{fill:#B78802;}
	.st48{fill:#479B99;}
	.st49{fill:url(#SVGID_1_);}
	.st50{fill:#88DFE2;}
	.st51{fill:#9887D3;}
	.st52{fill:#F7B4C0;}
	.st53{fill:#4155A2;}
	.st54{fill:#52A042;}
	.st55{fill:url(#SVGID_00000157269254610749249870000001651527338430809763_);}
	.st56{fill:#151515;}
	.st57{fill:#0C95AA;}
	.st58{fill:#68C0C6;}
	.st59{fill:url(#SVGID_00000177454206942409899670000012677147777737363586_);}
	.st60{fill:url(#SVGID_00000100364238591711887220000002988034485918667151_);}
	.st61{fill:#8CA0B5;}
	.st62{fill:#493737;}
	.st63{fill:#2BB4A2;}
</style>
<g id="Logo1">
</g>
<g id="Logo2">
</g>
<g id="Logo3">
</g>
<g id="Logo4">
</g>
<g id="Logo5">
</g>
<g id="Logo6">
</g>
<g id="Logo7">
</g>
<g id="Logo8">
</g>
<g id="Logo9">
</g>
<g id="Logo10">
</g>
<g id="Logo11">
</g>
<g id="Logo12">
</g>
<g id="Logo13">
</g>
<g id="Logo14">
</g>
<g id="_x31_-15">
	<path d="M158.52,92.28c-1.57,3.89-2.38,7.94-2.46,12.12c-0.14,8.01,2.04,15.48,5.54,22.61c4.36,8.89,10.32,16.55,17.72,23.12
		c0.28,0.25,0.57,0.49,0.87,0.73c0.07,0.06,0.17,0.07,0.36,0.13c0.65-2.44,1.24-4.89,1.94-7.31c2.14-7.33,4.41-14.63,6.44-21.99
		c1.01-3.65,1.45-7.43,0.77-11.22c-0.28-1.56-0.77-3.12-1.4-4.57c-1.67-3.84-3.47-7.62-5.22-11.44c-3.15,2.39-6.93,3.64-11.2,2.46
		c-1.72-0.47-3.07-1.55-3.9-2.96c1.92,0,3.84,0.1,5.75-0.02c3.28-0.22,5.92-1.73,7.49-4.64c1.12-2.06,1.91-4.3,2.79-6.48
		c0.53-1.31,0.88-2.69,1.45-3.99c1.71-3.92,5.33-4.87,8.8-2.33c1.02,0.74,1.96,1.59,2.96,2.41c2.27-5.14-0.69-11.05-6.1-11.64
		c-3.09-0.34-6.28,0.19-9.42,0.42c-2.21,0.16-4.4,0.52-6.61,0.7c-3.54,0.28-6.45-1.09-8.84-3.65c-1.16-1.24-2.23-2.57-3.48-3.72
		c-2.06-1.89-3.59-1.74-5.42,0.37c-2.4,2.76-4.21,8.61-3.77,12.49c0.48-0.33,0.88-0.61,1.29-0.89c3.74-2.54,7.75-4.4,12.37-4.26
		c4.4,0.14,7.84,2.03,9.97,5.93c-2.54-0.52-5.03-1.15-7.57-1.51c-2.82-0.41-5.53,0.29-8.16,1.31c-0.72,0.28-0.79,0.64-0.72,1.37
		c0.2,2.24,0.35,4.5,0.3,6.74c-0.02,1-0.57,1.98-1.06,2.95c-0.48-3.04-1.07-5.96-2.74-8.62c-0.88,0.58-1.67,1.17-2.53,1.64
		c-2.48,1.38-4.93,0.44-5.42-2.34c-0.36-2.05-0.32-4.23-0.08-6.31c0.44-3.84,1.71-7.44,4.02-10.61c3.68-5.06,8.63-5.5,13.12-1.15
		c0.74,0.72,1.44,1.5,2.09,2.3c2.12,2.59,4.85,3.67,8.15,3.27c2.39-0.29,4.77-0.62,7.16-0.94c3.34-0.45,6.67-0.52,10.2,0.36
		c-0.76-2.2-1.96-3.9-3.88-4.62c-2.63-0.99-5.39-1.63-8.13-2.26c-3.35-0.77-6.83-1.09-10.09-2.1c-5.72-1.78-8.92-7.97-7.49-13.82
		c0.97-3.98,4.38-6.8,8.94-7.3c2.68-0.29,5.29-0.01,7.65,1.44c3.37,2.08,4.3,6.47,2.14,9.95c-2.06,3.31-6.75,4.54-9.95,2.58
		c-1.58-0.97-2.41-2.4-2.27-4.26c0.11-1.6,0.97-2.79,2.51-3.27c0.79-0.25,1.69-0.14,2.84-0.21c-0.34,0.45-0.4,0.58-0.51,0.66
		c-0.85,0.65-1.53,1.45-0.88,2.51c0.66,1.08,1.79,1.13,2.91,0.77c1.27-0.41,1.89-1.4,1.98-2.67c0.07-1.16-0.53-2.02-1.59-2.44
		c-2.68-1.07-5.36-0.97-7.64,0.82c-0.89,0.7-1.59,2.05-1.75,3.19c-0.5,3.48,1.19,6.48,4.54,7.6c2.88,0.96,5.96,1.32,8.95,1.99
		c2.76,0.62,5.59,1.04,8.23,1.98c4.98,1.78,7.73,5.48,8.42,10.75c0.12,0.92,0.54,1.86,1.03,2.66c2.7,4.45,3.05,9.19,1.47,14.02
		c-0.9,2.73-3.52,3.5-6,1.98c-1.28-0.78-2.37-1.87-3.57-2.77c-1.33-1-1.81-0.87-2.37,0.67c-0.82,2.26-1.66,4.52-2.29,6.84
		c-0.24,0.89-0.13,2,0.17,2.9c1.17,3.57,2.02,7.36,3.84,10.59c3.49,6.19,4.17,12.63,2.6,19.3c-1.48,6.33-3.4,12.56-5.26,18.79
		c-1.95,6.51-3.89,13.02-4.83,19.78c-0.01,0.08-0.09,0.16-0.28,0.48c-12.95-10.7-24.21-22.55-29.56-38.98
		c-1.67,14.77-1.13,29.17,7.27,42.16c1.82,2.82,4.15,5.32,6.15,7.85c-3.28-1.67-6.28-4.04-8.86-6.94
		c-5.45-6.11-8.37-13.43-9.66-21.39c-2.37-14.7-0.64-28.99,5.08-42.74c1.11-2.66,2.77-5.09,4.18-7.63
		C158.16,92.1,158.34,92.19,158.52,92.28z"/>
</g>
</svg>
