<?xml version="1.0" encoding="utf-8"?>
<!-- Generator: Adobe Illustrator 27.8.1, SVG Export Plug-In . SVG Version: 6.00 Build 0)  -->
<svg version="1.1" xmlns="http://www.w3.org/2000/svg" xmlns:xlink="http://www.w3.org/1999/xlink" x="0px" y="0px"
	 viewBox="0 0 350 230" style="enable-background:new 0 0 350 230;" xml:space="preserve">
<style type="text/css">
	.st0{fill:#DEFDFF;}
	.st1{fill:#E1FEFF;}
	.st2{fill:#FAFCE3;}
	.st3{fill:#FFFFFF;}
	.st4{fill:#AC8746;}
	.st5{fill:#F5F7B7;}
	.st6{fill:#B7F3F9;}
	.st7{fill:#E6FEFF;}
	.st8{fill:#0035AA;}
	.st9{fill:#FFE3EA;}
	.st10{fill:#FCFFD7;}
	.st11{fill:#EAFFDC;}
	.st12{fill:#F7EDB7;}
	.st13{fill:#FFFFC6;}
	.st14{fill:#350B00;}
	.st15{fill:#FBF8F2;}
	.st16{fill:#DCFDFF;}
	.st17{fill:#F2F7B7;}
	.st18{fill:#E4335A;}
	.st19{fill:#005199;}
	.st20{fill:#AD0000;}
	.st21{fill:#00E2E2;}
	.st22{fill:#003F33;}
	.st23{fill:#600068;}
	.st24{fill:#664600;}
	.st25{fill:#DAB038;}
	.st26{fill:#466F85;}
	.st27{fill:#57D4FF;}
	.st28{fill:#99042B;}
	.st29{fill:#BF882F;}
	.st30{fill:#B0C1C1;}
	.st31{fill:#689FC1;}
	.st32{fill:#CEC1A3;}
	.st33{fill:#F2EBDD;}
	.st34{fill:#ECC752;}
	.st35{fill:#005468;}
	.st36{stroke:#000000;stroke-width:0.25;stroke-miterlimit:10;}
	.st37{fill:#EFECFF;}
	.st38{fill:#FFDE98;}
	.st39{fill:#5B3F00;}
	.st40{fill:#826834;}
	.st41{fill:none;stroke:#5B3F00;stroke-width:2;stroke-miterlimit:10;}
	.st42{fill:#FFBE00;}
	.st43{fill:#9B8D75;}
	.st44{fill:#FFFF00;}
	.st45{fill:#FFBF00;}
	.st46{fill:#FFA500;}
	.st47{fill:#B78802;}
	.st48{fill:#479B99;}
	.st49{fill:url(#SVGID_1_);}
	.st50{fill:#88DFE2;}
	.st51{fill:#9887D3;}
	.st52{fill:#F7B4C0;}
	.st53{fill:#4155A2;}
	.st54{fill:#52A042;}
	.st55{fill:url(#SVGID_00000044863229783973294030000001411345912567693458_);}
	.st56{fill:#151515;}
	.st57{fill:#0C95AA;}
	.st58{fill:#68C0C6;}
	.st59{fill:url(#SVGID_00000159459036998699884350000004984001443559693737_);}
	.st60{fill:url(#SVGID_00000060717568417869292450000015699705354308613046_);}
	.st61{fill:#8CA0B5;}
	.st62{fill:#493737;}
	.st63{fill:#2BB4A2;}
</style>
<g id="Logo1">
</g>
<g id="Logo2">
</g>
<g id="Logo3">
</g>
<g id="Logo4">
</g>
<g id="Logo5">
</g>
<g id="Logo6">
</g>
<g id="Logo7">
</g>
<g id="Logo8">
</g>
<g id="Logo9">
</g>
<g id="Logo10">
</g>
<g id="Logo11">
</g>
<g id="Logo12">
</g>
<g id="Logo13">
</g>
<g id="Logo14">
</g>
<g id="_x31_-15">
	<g>
		<path class="st14" d="M169.99,46.83c-0.13,0.38-0.26,0.76-0.26,0.75c-1.34-0.65-2.61-1.47-4.01-1.9
			c-5.09-1.56-10.1-3.29-14.48-6.4c-1.43-1.01-2.78-2.2-3.93-3.53c-2.3-2.66-1.19-5.94,2.34-6.29c3.54-0.35,7.23-0.46,10.72,0.13
			c10.58,1.8,20.34,5.98,29.34,11.7c3.33,2.12,6.1,5.19,8.88,8.06c1.18,1.21,1.94,2.96,2.5,4.61c1.18,3.48-0.4,6.28-3.96,7.08
			c-6.9,1.55-13.2,0.38-18.56-4.52c-0.36-0.33-0.71-0.66-1.08-0.98c-0.08-0.07-0.22-0.06-0.34-0.08c-2.07,2.93-1.98,5.45,0.37,8.31
			c2.87,3.48,5.73,6.97,8.69,10.38c1.22,1.4,1.48,2.6,0.37,4.22c-2.2,3.2-2.47,6.95-2.61,10.69c-0.15,3.9-0.11,3.9-3.98,4.5
			c11.37,3.32,19.12,10.7,24.16,21.19c-0.74,0.16-1.77,0.08-2.03,0.49c-0.35,0.57-0.19,1.51-0.14,2.29c0.1,1.39,0.29,2.77,0.5,4.67
			c-4.9-6.75-9.53-13.12-14.15-19.5c-0.17,0.09-0.34,0.18-0.51,0.27c0.42,0.94,0.78,1.93,1.27,2.83
			c5.54,10.1,11.27,20.09,16.58,30.3c3.25,6.26,5.86,12.85,8.76,19.29c0.1,0.22,0.18,0.45,0.26,0.68c1.58,4.31,0.85,5.55-3.6,6.49
			c-1.16,0.24-1.39-0.18-1.75-1.16c-2.4-6.57-4.89-13.11-7.39-19.64c-0.23-0.59-0.7-1.09-1.44-1.47c0.47,1.77,0.9,3.55,1.41,5.31
			c1.58,5.44,3.18,10.87,4.79,16.3c0.56,1.9,0.12,3.02-1.69,3.85c-3.67,1.69-7.54,1.97-11.45,1.27c-6.4-1.15-12.61-0.67-18.68,1.71
			c-3.78,1.48-7.67,1.91-11.66,0.98c-2.62-0.61-3.17-1.48-2.85-4.15c0.87-7.26,1.72-14.52,2.56-21.79c0.05-0.46,0.01-0.93,0.01-1.98
			c-0.43,0.87-0.71,1.23-0.81,1.64c-1.66,7.17-3.37,14.34-4.9,21.54c-0.52,2.47-0.9,3.05-3.44,2.9c-3.22-0.2-6.22-1.15-8.97-2.85
			c-3.37-2.07-6.96-3.46-10.94-3.8c-2.31-0.2-2.72-1.01-1.8-3.58c3.75-10.52,8.3-20.68,13.98-30.33
			c4.88-8.29,10.61-15.91,17.29-22.83c1.72-1.79,1.64-2.06-0.18-3.76c-4.45-4.16-8.96-8.25-13.2-12.62
			c-3.02-3.11-2.86-3.84-0.29-7.39c4.61-6.37,9.21-12.74,13.87-19.08c0.55-0.75,1.31-1.63,2.14-1.86c4.24-1.19,5.56-4.17,5.42-8.21
			c-0.06-1.6-0.39-3.19-0.59-4.78C170.36,46.81,170.17,46.82,169.99,46.83z M165.2,72.6c-3.1,3.82-5.91,7.23-8.61,10.73
			c-0.29,0.38-0.1,1.43,0.24,1.93c2.35,3.54,4.7,7.1,7.24,10.51c3.21,4.32,3.48,4.3,8.09,1.48c2.32-1.42,2.94-2.83,1.83-5.35
			C171.19,85.56,168.26,79.3,165.2,72.6z M178.44,110c-0.49,7.42,8.03,45.67,11.06,49.92C187.64,142.75,182.63,126.46,178.44,110z
			 M180.8,83.7c0.24,0.1,0.48,0.2,0.71,0.31c0.41-1.35,0.86-2.68,1.21-4.04c0.76-2.93,0.14-5.54-1.88-7.82
			c-3.11-3.51-6.19-7.05-9.33-10.54c-0.47-0.53-1.18-0.84-1.78-1.26c-0.17,0.17-0.35,0.35-0.52,0.52c1.5,2.02,2.9,4.11,4.52,6.03
			c1.4,1.68,3.12,3.09,4.55,4.75c2.24,2.58,3.5,5.56,3.08,9.07C181.24,81.72,180.99,82.71,180.8,83.7z M177.98,53.51
			c1.57,0.92,3.06,0.91,4.43-0.06c1.48-1.06,2-2.6,1.92-4.89C182.6,51.13,180.94,53.17,177.98,53.51z M148.07,149.53
			c-0.28-0.09-0.56-0.18-0.83-0.27c-1.11,3.18-2.22,6.36-3.34,9.54c0.28,0.1,0.56,0.19,0.84,0.29
			C145.85,155.9,146.96,152.72,148.07,149.53z"/>
		<path class="st14" d="M124.65,86.84c3.78-4.98,9.25-6.13,15.27-6.99c-3.32,4.6-7.29,7.61-12.58,8.64
			c-3.15,0.61-4.97,2.41-5.47,5.55c-2.05,12.76,0.75,24.68,6.26,36.13c0.17,0.35,0.46,0.65,0.86,0.96
			c-0.99-7.31,0.05-13.95,5.54-19.24c0.18,0.03,0.36,0.06,0.54,0.09c-0.23,1.57-0.33,3.18-0.72,4.71c-0.74,2.89-1.72,5.72-2.46,8.61
			c-1.21,4.75-0.59,9.3,1.65,13.66c0.57,1.11,1.01,2.29,1.51,3.44c-0.15,0.1-0.3,0.19-0.45,0.29c-1.21-1.34-2.52-2.61-3.62-4.03
			c-2.05-2.64-4.53-4.4-7.83-5.33c-8.08-2.26-12.98-7.93-16.02-15.9c7.45,2.18,13.43,5.93,18.02,11.94
			c-0.94-2.55-2.02-5.05-2.76-7.65c-0.56-1.97-1.37-3.28-3.51-3.84c-1.29-0.34-2.58-1.2-3.57-2.14c-4.54-4.3-6.38-9.89-7.57-16.16
			c6.4,2.75,9.08,8.33,12.52,13.43c-0.25-2.23-0.5-4.46-0.75-6.7c-0.07-0.67-0.24-1.34-0.21-2c0.07-1.25-0.44-1.95-1.52-2.62
			c-5.12-3.16-8.23-12.09-6.22-17.96c4.14,3.91,6.46,8.64,7.28,14.69c2.19-4.04,1.91-7.51,0.24-11.07c-0.96-2.03-1.99-4.1-2.48-6.26
			c-0.64-2.81-0.78-5.73-0.78-8.68c4.24,3.83,6.99,8.24,6.72,14.22c0.87-2.1,1.8-4.18,2.57-6.32c0.17-0.47-0.04-1.25-0.35-1.7
			c-2.97-4.35-3.1-8.99-1.52-13.82c0.55-1.67,1.2-3.31,1.83-5.03c3.13,3.11,3.98,8.64,2.93,16.73c0.71-0.92,1.41-1.84,2.12-2.76
			c0.08,0.04,0.15,0.07,0.23,0.11c-0.23,0.68-0.45,1.36-0.68,2.03c4.07-3.32,8.94-4.6,14.14-6.15c-2.95,4.45-6.43,7.74-11.41,8.59
			C127.46,79.19,125.58,82.44,124.65,86.84z"/>
		<path class="st14" d="M221.37,78.34c-1.12-3.1-3.64-4.96-6.15-6.76c-3.86-2.77-6.78-6.28-8.86-10.51
			c-0.96-1.95-1.77-3.98-2.48-6.07c6.91,5.48,10.55,13.63,16.56,20c-0.93-5.77-0.06-11.1,3.25-16.07
			c2.96,5.71,4.47,11.31,1.63,17.45c-0.57,1.22-0.41,3.02-0.02,4.39c0.49,1.75,1.56,3.34,2.63,4.98c0.02-5.48,1.76-10.19,5.55-14.43
			c0.98,4.35,0.46,8.3-1.11,12.13c-0.55,1.35-1.25,2.64-1.98,3.91c-0.97,1.67-1.28,3.36-0.68,5.25c0.58,1.82,1,3.7,1.65,5.54
			c1.09-5.78,3.8-10.63,7.83-15.16c0.88,4.37,0.45,8.3-1.66,11.88c-1.2,2.02-2.77,3.85-4.36,5.6c-1.14,1.26-1.68,2.54-1.69,4.25
			c-0.02,2.66-0.31,5.32-0.33,8.11c2.25-6.05,5.96-10.89,11.69-14.22c-0.5,6.94-3.5,12.47-8.42,17.05c-0.04,0.04-0.09,0.1-0.14,0.11
			c-4.24,0.89-5.01,4.47-6.19,7.82c-2.26,6.39-5.51,12.21-10.29,17.09c-0.39,0.4-0.69,0.9-0.92,1.5c5.71-4.9,12.83-4.77,19.56-5.93
			c0.12,0.15,0.23,0.3,0.35,0.46c-1.36,1.34-2.59,2.83-4.09,3.99c-4.37,3.37-9.29,5.3-14.91,5.01c-2.45-0.12-2.67-0.53-1.47-2.84
			c-0.67,0.23-1.2,0.4-2.3,0.77c0.63-0.89,0.94-1.36,1.28-1.79c4.76-5.96,5.94-12.47,3.28-19.72c-1.25-3.4-2.11-6.95-2.87-10.54
			c3.1,2.57,5.28,5.66,6.62,9.38c1.38,3.85,0.5,7.55-0.62,11.26c0.15,0.06,0.3,0.12,0.45,0.18c1.01-1.82,2.25-3.55,3-5.47
			c4.4-11.31,6.44-22.87,2.83-34.81c-1.04-3.42-2.54-6.71-4.01-9.97c-0.64-1.41-1.75-2.6-2.64-3.88L221.37,78.34z"/>
		<path class="st14" d="M177.76,31.81c2.55,1.47,5.09,2.94,7.64,4.42c-0.05,0.12-0.11,0.24-0.16,0.36
			c-1.45-0.51-2.92-0.99-4.36-1.52c-3.31-1.2-6.61-2.46-9.93-3.63c-1.24-0.43-1.38-0.95-0.8-2.14c1.44-2.95,3.74-4.35,6.97-4.39
			c4.03-0.05,7.46,1.33,10.42,4.07c1.48,1.37,1.87,3.08,1.89,4.94c0.01,0.48-0.26,1.19-0.62,1.39c-0.33,0.18-1.03-0.1-1.44-0.37
			C184.48,33.04,181.4,31.75,177.76,31.81z"/>
		<path class="st14" d="M113.39,137.19c5.54,0.86,10.75,1.17,15.52,3.4c1.31,0.61,2.61,1.35,3.73,2.26c0.7,0.57,1.63,2.03,1.42,2.31
			c-0.73,0.98-1.92,2.26-2.92,2.26c-2.26-0.01-4.66-0.39-6.74-1.24C120.03,144.41,116.65,141.22,113.39,137.19z"/>
		<path class="st14" d="M242.86,116.43c-1.87,6.75-6.1,11.17-12.23,13.82c-0.95,0.41-1.91,0.79-2.89,1.12
			c-0.35,0.12-0.93,0.19-1.11,0c-0.21-0.22-0.21-0.79-0.08-1.13c1.55-4.09,3.86-7.65,7.77-9.8
			C237.08,118.93,240.01,117.75,242.86,116.43z"/>
		<path class="st14" d="M136.55,48.53c2.52,6.01,0.45,13.65-4.24,20.26C129.14,63.67,131.41,52.8,136.55,48.53z"/>
		<path class="st14" d="M217,69.35c-4.96-6.49-6.97-13.47-5.01-21.42C216.14,50.34,218.85,61.73,217,69.35z"/>
		<path class="st14" d="M228.16,100.73c-4.98-3.48-11.06-4.95-14.37-10.39C220.73,88.04,228.51,93.58,228.16,100.73z"/>
		<path class="st14" d="M208.92,80.72c7.25-0.8,16.67,3.96,16.77,8.65C219.32,88.02,213.41,86.1,208.92,80.72z"/>
		<path class="st14" d="M216.69,99.54c6.35,1.03,11.09,8.19,10.46,15.83C222.71,110.64,218.48,106.02,216.69,99.54z"/>
		<path class="st14" d="M136.16,89.54c-3.35,5.48-9.09,7.47-13.72,10.97C120.96,94.67,127.52,89.4,136.16,89.54z"/>
		<path class="st14" d="M133.27,99.33c-0.81,6.44-4.76,10.87-8.95,15.33C122.84,108.58,126.81,101.8,133.27,99.33z"/>
		<path class="st14" d="M221.31,78.27c0.26,1.23-0.38,1.47-1.42,1.36c-6.15-0.64-10.66-3.75-14.13-9.4
			c5.42,1.71,10.24,3.5,14.21,7.06c0.44,0.39,0.94,0.71,1.41,1.06C221.37,78.34,221.31,78.27,221.31,78.27z"/>
		<path class="st14" d="M131.53,72.63c3.67-6.82,7.9-13.21,13.9-18.24C143.04,62.15,138.15,68.05,131.53,72.63z"/>
		<path class="st14" d="M135.94,134.58c-0.6-4.58-0.74-9.12,1.24-13.42c0.24-0.52,0.83-0.89,1.26-1.32c0.28,0.56,0.74,1.1,0.83,1.69
			C139.96,126.31,137.89,130.42,135.94,134.58z"/>
		<path class="st14" d="M216.17,134.94c-3.06-5.89-5.16-11.96-3.87-15.69C215.95,123.85,216.26,129.11,216.17,134.94z"/>
	</g>
</g>
</svg>
