<?xml version="1.0" encoding="utf-8"?>
<!-- Generator: Adobe Illustrator 27.8.1, SVG Export Plug-In . SVG Version: 6.00 Build 0)  -->
<svg version="1.1" xmlns="http://www.w3.org/2000/svg" xmlns:xlink="http://www.w3.org/1999/xlink" x="0px" y="0px"
	 viewBox="0 0 350 230" style="enable-background:new 0 0 350 230;" xml:space="preserve">
<style type="text/css">
	.st0{fill:#DEFDFF;}
	.st1{fill:#E1FEFF;}
	.st2{fill:#FAFCE3;}
	.st3{fill:#FFFFFF;}
	.st4{fill:#AC8746;}
	.st5{fill:#F5F7B7;}
	.st6{fill:#B7F3F9;}
	.st7{fill:#E6FEFF;}
	.st8{fill:#0035AA;}
	.st9{fill:#FFE3EA;}
	.st10{fill:#FCFFD7;}
	.st11{fill:#EAFFDC;}
	.st12{fill:#F7EDB7;}
	.st13{fill:#FFFFC6;}
	.st14{fill:#350B00;}
	.st15{fill:#FBF8F2;}
	.st16{fill:#DCFDFF;}
	.st17{fill:#F2F7B7;}
	.st18{fill:#E4335A;}
	.st19{fill:#005199;}
	.st20{fill:#AD0000;}
	.st21{fill:#00E2E2;}
	.st22{fill:#003F33;}
	.st23{fill:#600068;}
	.st24{fill:#664600;}
	.st25{fill:#DAB038;}
	.st26{fill:#466F85;}
	.st27{fill:#57D4FF;}
	.st28{fill:#99042B;}
	.st29{fill:#BF882F;}
	.st30{fill:#B0C1C1;}
	.st31{fill:#689FC1;}
	.st32{fill:#CEC1A3;}
	.st33{fill:#F2EBDD;}
	.st34{fill:#ECC752;}
	.st35{fill:#005468;}
	.st36{stroke:#000000;stroke-width:0.25;stroke-miterlimit:10;}
	.st37{fill:#EFECFF;}
	.st38{fill:#FFDE98;}
	.st39{fill:#5B3F00;}
	.st40{fill:#826834;}
	.st41{fill:none;stroke:#5B3F00;stroke-width:2;stroke-miterlimit:10;}
	.st42{fill:#FFBE00;}
	.st43{fill:#9B8D75;}
	.st44{fill:#FFFF00;}
	.st45{fill:#FFBF00;}
	.st46{fill:#FFA500;}
	.st47{fill:#B78802;}
	.st48{fill:#479B99;}
	.st49{fill:url(#SVGID_1_);}
	.st50{fill:#88DFE2;}
	.st51{fill:#9887D3;}
	.st52{fill:#F7B4C0;}
	.st53{fill:#4155A2;}
	.st54{fill:#52A042;}
	.st55{fill:url(#SVGID_00000040545344554101432910000017337268357210121629_);}
	.st56{fill:#151515;}
	.st57{fill:#0C95AA;}
	.st58{fill:#68C0C6;}
	.st59{fill:url(#SVGID_00000183969742175694198770000010570130615117881775_);}
	.st60{fill:url(#SVGID_00000038371583712362902930000011870710176379237035_);}
	.st61{fill:#8CA0B5;}
	.st62{fill:#493737;}
	.st63{fill:#2BB4A2;}
</style>
<g id="Logo1">
</g>
<g id="Logo2">
</g>
<g id="Logo3">
</g>
<g id="Logo4">
</g>
<g id="Logo5">
</g>
<g id="Logo6">
</g>
<g id="Logo7">
</g>
<g id="Logo8">
</g>
<g id="Logo9">
</g>
<g id="Logo10">
</g>
<g id="Logo11">
</g>
<g id="Logo12">
</g>
<g id="Logo13">
</g>
<g id="Logo14">
</g>
<g id="_x31_-15">
	<g>
		<path class="st54" d="M174.15,77.76c1.05-2.04,1.75-4.02,2.98-5.59c1.24-1.6,2.84-3.08,4.58-4.08c2.03-1.17,3.91-0.08,4.55,2.21
			c0.62,2.22,0.05,4.19-1.22,6.09c-1.88,2.82-3.71,5.67-5.36,8.62c-1.41,2.52-1.18,4.76,0.85,7.26c6.44,7.96,8.98,17.26,8.22,27.44
			c-0.63,8.5-2.97,16.57-6.49,24.3c-1.38,3.03-1.34,5.87,0.07,8.81c2,4.16,3.43,8.49,3.62,13.16c0.09,2.22-0.3,2.62-2.47,2.61
			c-2.83-0.01-5.66-0.01-8.49,0.02c-1.24,0.01-1.82-0.46-1.5-1.75c1.02-4.05-0.13-7.7-2.01-11.24c-3.41-6.39-6.85-12.76-10.16-19.2
			c-2.98-5.81-5.41-11.86-6.62-18.29c-1.89-10.06,1.27-18.63,8.38-25.82c2.61-2.64,3.27-5.76,2.37-9.22
			c-0.54-2.07-1.35-4.07-2.06-6.1c-0.83-2.37-1.46-4.77-0.94-7.31c0.55-2.65,3.1-3.91,5.25-2.3c1.52,1.14,2.75,2.81,3.76,4.46
			C172.52,73.58,173.19,75.59,174.15,77.76z M175.07,130.77c0.8-7.07-0.46-14.88-4.49-17.28
			C170.78,119.56,172.48,125.03,175.07,130.77z M180.05,70.86c-2.39,2.01-4.04,4.44-4.35,7.66
			C177.47,76.15,179.57,73.97,180.05,70.86z M166.41,78.54c0.62,3.32,1.18,6.25,1.73,9.19C168.97,85.14,168.29,81.12,166.41,78.54z
			 M171.58,76.3c0.41-2.24-0.73-4.64-2.71-5.95C169.85,72.51,170.72,74.41,171.58,76.3z"/>
		<path class="st54" d="M134.25,133.77c-0.11-1.93-0.25-3.46-0.26-4.98c0-0.95,0.06-1.95,0.34-2.84c0.36-1.12,0.83-2.27,1.53-3.2
			c0.93-1.24,2.06-2.36,3.25-3.37c0.47-0.4,1.32-0.58,1.96-0.5c2.24,0.28,3.31-0.59,3.18-2.88c-0.1-1.65-0.32-3.3-0.48-4.95
			c0.17-0.02,0.34-0.05,0.51-0.07c0.27,1.45,0.54,2.91,0.82,4.36c0.24,1.26,0.73,1.97,2.29,1.77c2.54-0.34,3.96,1.12,4.94,4.7
			c-1.05-0.59-2.05-1.31-3.15-1.75c-2.33-0.92-4.43-0.31-6.27,1.32c-0.63,0.56-0.79,1.2,0.02,1.65c1.81,0.99,2.13,2.63,2.16,4.47
			c0.03,2.28,0.68,2.73,2.85,1.98c1.23-0.42,2.4-1.01,3.62-1.45c2.12-0.76,3.15-0.34,4.05,1.75c0.96,2.23,1.77,4.52,2.7,6.77
			c0.89,2.14,1.86,4.25,2.8,6.37c0.8,1.81,0.7,2.11-1.12,2.66c-6.93,2.08-13.87,4.11-20.8,6.22c-1.53,0.47-2.26,0.06-2.68-1.53
			c-1.19-4.53-2.5-9.04-3.82-13.54C132.14,134.85,133.35,134.18,134.25,133.77z M138.34,126.56c0.16,0.09,0.32,0.18,0.48,0.28
			c-0.37,0.62-0.65,1.32-1.13,1.85c-1.5,1.66,0.36,2.27,1.02,3.14c0.76,1,1.5,0.23,2.09-0.4c1.04-1.1,0.59-5.12-0.69-6
			c-0.29-0.2-0.91-0.35-1.06-0.2C138.72,125.56,138.57,126.1,138.34,126.56z M142.63,136.26c0.57-1.45,1.05-2.68,1.54-3.9
			C142.88,133.29,141.52,134.18,142.63,136.26z"/>
		<path class="st54" d="M179.61,44.63c-0.06-0.43-0.12-0.86-0.21-1.49c-1.41,0.82-2.71,1.57-4,2.31c5.79-3.56,7.85-8.68,6.69-15.4
			c-0.3,0.14-0.58,0.18-0.74,0.35c-2.8,2.9-6.23,4.86-9.79,6.63c-3,1.49-3.36,2.71-1.43,5.43c1.56,2.2,2.15,4.57,1.87,7.21
			c-0.29,2.74-1.55,4.16-4.33,4.86c3.18-2.32,4.18-4.66,3.25-7.56c-0.3-0.94-0.74-1.41-1.85-1.6c-1.09-0.19-2.38-0.75-3.05-1.58
			c-4.29-5.37-6.19-11.25-3.3-17.99c2.4-5.59,8.15-8.14,14.22-6.25c5.79,1.81,8.77,7.03,7.39,13.07c-0.29,1.26-0.89,2.44-1.23,3.69
			c-0.35,1.31-0.57,2.67-0.89,4.23c-0.61,0.56-1.52,1.41-2.37,2.19c0.92,1.53,1.74,2.9,2.61,4.35c-0.94,0.43-1.79,0.48-2.08-1.11
			c-0.09-0.5-0.55-0.92-0.84-1.38L179.61,44.63z"/>
		<path class="st54" d="M159.24,75.49c-0.65-2.19-1.3-4.38-1.99-6.7c-2.93,2.53-5.68,5.15-8.7,7.4c-2.14,1.6-2.47,3.15-1.97,5.75
			c1.16,6.04,1.75,12.2,2.58,18.3c0.17,1.23,0.3,2.47,0.51,3.7c0.59,3.54-0.09,6.5-2.6,10.19c0.2-2.7,0.12-4.97,0.59-7.12
			c0.7-3.25,0.34-6.27-0.87-9.29c-1.97-4.94-3.87-9.9-5.83-14.85c-1.37-3.45-0.77-6.37,1.67-9.25c4.06-4.79,7.83-9.83,11.77-14.72
			c2.53-3.14,5.18-4.18,9.21-3.78c-0.14,1.2-0.35,2.39-0.39,3.59c-0.06,1.94-0.67,3.59-1.89,5.14c-2.72,3.44-3.1,6.43-1.71,11.5
			C159.5,75.39,159.37,75.44,159.24,75.49z"/>
		<path class="st54" d="M179.56,44.59c-0.42,1.92-1.07,3.81-1.21,5.75c-0.21,2.93,1.34,4.64,4.28,5.13
			c1.67,0.28,3.37,0.39,5.04,0.69c2.48,0.46,3.57,1.61,3.7,4.12c0.26,5.31,0.49,10.63,0.55,15.95c0.06,6.03,0.78,11.92,2.23,17.79
			c1.49,6.03,2.29,12.22,3.65,18.28c0.84,3.76,2.14,7.42,3.18,10.93c-0.27-0.38-0.81-0.95-1.13-1.62
			c-3.49-7.22-7.06-14.41-10.37-21.72c-2.33-5.13-2.44-10.77-3.07-16.27c-0.1-0.84-0.38-1.69-0.33-2.51
			c0.06-0.96,0.18-2.02,0.65-2.83c1.96-3.39,2.26-6.86,0.65-10.4c-1.4-3.07-2.43-6.18-2.46-9.61c-0.01-0.64-0.88-1.46-1.56-1.85
			c-1.21-0.7-2.62-1.05-3.85-1.73c-1.71-0.93-2.5-2.54-2.22-4.42c0.23-1.6,0.79-3.17,1.31-4.72c0.13-0.38,0.67-0.63,1.03-0.93
			C179.61,44.63,179.56,44.59,179.56,44.59z"/>
		<path class="st54" d="M194.1,66.24c6.39,5.04,10.51,11.37,11.07,19.72c0.1,1.52,0.12,3.05,0.12,4.58
			c0.02,4.83,0.44,6.2,3.03,10.73c-0.95-0.75-1.98-1.43-2.83-2.29c-0.85-0.85-1.51-1.89-2.47-3.11c-0.58,4.66,0.15,8.82,1.47,12.94
			c-4.15-3.85-7.39-8.19-7.07-14.15c0.41-7.71-0.12-15.23-2.95-22.52c-0.69-1.78-0.64-3.83-0.94-5.76
			C193.73,66.33,193.92,66.29,194.1,66.24z"/>
		<path class="st54" d="M208.74,131.15c-1.26-0.27-1.38,0.51-0.98,1.31c0.61,1.24,0.37,2.25-0.09,3.5
			c-0.34,0.91,0.14,2.14,0.27,3.22c0.13,1.12,0.49,2.27,0.37,3.36c-0.15,1.36-0.42,2.56,0.37,3.91c0.36,0.61-0.17,1.74-0.3,2.69
			c0.06,0.05,0.15,0.19,0.22,0.18c1.67-0.32,2.67,0.41,3.68,1.76c0.77,1.02,2.19,1.54,3.31,2.3c0.5,0.34,0.98,0.72,1.88,1.39
			c-4.65,0.2-8.82,0.66-12.86-0.72c-0.86-0.29-1.6-1.22-2.19-2.01c-1.43-1.89-2.71-3.9-4.12-5.81c-0.46-0.63-1.08-1.18-1.72-1.62
			c-1.18-0.81-2.01-0.44-2.3,0.98c-0.46,2.26-0.86,4.53-1.64,6.8c-0.03-0.39-0.14-0.78-0.09-1.16c0.46-3.24,1.01-6.43-0.15-9.72
			c-0.4-1.13,0.17-2.67,0.55-3.94c0.1-0.33,1.25-0.62,1.8-0.47c2.17,0.59,2.28,0.63,3.16-1.47c0.94-2.23,2.5-3.88,4.55-5.1
			c2.97-1.78,3.41-3.11,2.06-6.29c-0.29-0.67-0.75-1.28-0.97-1.97c-0.14-0.42,0.01-0.94,0.02-1.41c0.51,0.09,1.15,0.01,1.5,0.3
			c1.67,1.36,2.79,3.15,2.29,5.33c-0.45,1.95-0.02,3.41,1.37,4.7L208.74,131.15z M205.7,129.95c-3.63,1.93-5.38,4.95-7.04,8.04
			c-0.17,0.31,0.11,0.97,0.35,1.37c1.3,2.12,2.64,4.21,3.98,6.31c0.43,0.67,0.87,1.33,1.31,1.99c0.18-0.05,0.36-0.1,0.53-0.15
			C205.11,141.77,205.39,136.03,205.7,129.95z"/>
		<path class="st54" d="M168.36,155.89c3.08,2.93,4,6.86,2.5,10.3c-0.77,1.78-1.81,2.4-3.73,2.24c-0.62-0.05-1.24-0.15-1.85-0.17
			c-0.55-0.02-1.11,0.05-1.9,0.09C165.05,164.16,166.67,160.1,168.36,155.89z"/>
		<path class="st54" d="M208.7,131.18c1.41,1.26,2.82,2.53,4.23,3.79c-0.16,0.09-0.32,0.19-0.49,0.28
			c-0.48,0.35-1.31,0.65-1.38,1.07c-0.33,2.15,0.99,3.57,2.5,4.85c-1.26,0.76-1.9,0.59-2.31-0.78c-0.42-1.4-0.62-2.87-1.01-4.28
			c-0.46-1.67-1.01-3.31-1.52-4.96C208.74,131.15,208.7,131.18,208.7,131.18z"/>
		<path class="st54" d="M176.23,68.18c-0.76,2.03-1.52,4.06-2.36,6.3c-0.28-0.96-0.52-1.76-0.77-2.61c0.94-1.22,1.92-2.5,2.91-3.78
			C176.08,68.12,176.15,68.15,176.23,68.18z"/>
		<path class="st54" d="M170.92,66.4c0.73,1.31,1.46,2.63,2.19,3.94c-0.17,0.09-0.33,0.18-0.5,0.28c-0.69-1.33-1.39-2.67-2.08-4
			C170.65,66.55,170.78,66.48,170.92,66.4z"/>
	</g>
</g>
</svg>
