<svg id="Layer_1" data-name="Layer 1" xmlns="http://www.w3.org/2000/svg" viewBox="0 0 300 300">
  <defs>
    <style>
      .cls-1 {
        fill: #252d6a;
      }
    </style>
  </defs>
  <title>1-04</title>
  <path class="cls-1" d="M179,62.6c0,.9-.4,1.2-1,1a2.3,2.3,0,0,1-1.2-.9c-1.8-2.6-3.5-5.2-5.2-7.9-.2-.2-.1-.6-.1-.9s.9,0,1.1.2c2,2.4,3.9,4.8,5.8,7.3A2.7,2.7,0,0,1,179,62.6Zm26.9,35.5a19.8,19.8,0,0,1-1.4,4.9,8.1,8.1,0,0,1-6.1,4.6c-3.3.8-6.6,1.8-9.9,2.8-5.9,1.8-10.5-3-11.2-7.6a20.9,20.9,0,0,1,1.1-9.6c.8-2.6,1.9-5,2.8-7.5a1.2,1.2,0,0,0-.2-1.5L177.1,79c1,2.7-.1,5.3-.4,8s-.5,3.8-.7,5.7a121,121,0,0,1-3.1,16.8,15.7,15.7,0,0,0-.8,2.9,5.2,5.2,0,0,0,.4,2.8,47.1,47.1,0,0,0,2.9,4.8c.3.6.5,1.3.8,2,1.4,4.6,2.9,9.3,4.3,14a183.9,183.9,0,0,1,5.7,21.8c.9,4.9,1.9,9.8,2.8,14.7s1,7.2,1.5,10.9,1.1,7.4,1.5,11.1.6,5.5.8,8.3.8,8.1,1.1,12.2c.2,2.3.3,4.6.4,6.9s.5,7.3.7,11c.1,1.5.2,2.9.2,4.4.2,4.4.3,8.7.4,13,.2,7.6.5,15.1.6,22.7.1,2.4,0,4.8,0,7.2a1.3,1.3,0,0,1-.8,1.1c-.3.1-.8-.2-1.1-.3a89.3,89.3,0,0,1-8.5,3.5,22.7,22.7,0,0,1-5.9.6c-.9,0-1.8-.3-2.8-.4a.8.8,0,0,0-.8.2l-1.3,1.3a1.3,1.3,0,0,0-.3.8c0,.7-.3,1-1,1a50.1,50.1,0,0,1-6.7-.3,14,14,0,0,1-4-2.1,2.3,2.3,0,0,0-2.5.5,2.6,2.6,0,0,1-1.1.7l-6.1,1.5a85.5,85.5,0,0,1-8.7.9c-3.5.2-7,.3-10.5.2a83.3,83.3,0,0,1-21.6-2.9c-3.5-.9-6.9-2.1-10.2-3.3s-4.5-1.9-6.8-2.8h-.4c-1.3,0-1.5-.1-1.3-1.3l1.8-10c1.4-6.8,2.9-13.6,4.3-20.4s2.5-12.4,3.7-18.6,1.9-10.1,2.9-15.1l3-15.9c1-5.8,2-11.5,2.8-17.3s1.2-8.8,1.8-13.1c.2-1.5.4-2.9.7-4.3a10.7,10.7,0,0,0-.2-4.4c-.5-2.7.2-5.2,1-7.7,0-.2.4-.3.7-.4s.4.5.3.7a17.7,17.7,0,0,0,.1,7.6c.3,1.5.9,2.9,1.2,4.4s0,.9,0,1.4-.2.4-.1.5,1,2.5,1.6,3.7.3.4.6.8v-2.5c0-.4-.1-.7-.1-1a1.8,1.8,0,0,1,.5-.7c.2.2.5.3.6.5a28,28,0,0,1,1.3,4.1,13.2,13.2,0,0,1,.2,2.8l.3.6c1.6-1.6,1-3.3.8-5.1a34.7,34.7,0,0,1-.8-5.5,29.7,29.7,0,0,1,.9-5.2c.1-.5.5-.9,1-.6a1.1,1.1,0,0,1,.3,1c-.5,1.6-.1,3.2.3,5,.3-.8.6-1.4.8-2.1s.4-2,.6-3a10.7,10.7,0,0,0-.2-4.7c-.5-2.3-.9-4.5-1.3-6.8a1.1,1.1,0,0,0-1.2-1,12.2,12.2,0,0,0-9,3.3c-.2.2-.7.4-.9.3a1.4,1.4,0,0,1-.8-.9,120.7,120.7,0,0,0-3-18c0-.3-.1-.5-.1-.8a5.4,5.4,0,0,1-5.6-.7,8.8,8.8,0,0,1-3.1-8.2c.7-6.5,3.5-12.3,6.5-18a63.2,63.2,0,0,0,2.5-6c1.6-3.9,3.4-7.7,4.7-11.7a41,41,0,0,0,1.3-7.8c.4-3.5.7-6.9,2.7-9.9.6-.9,1.5-1.7,2.2-2.6a11.8,11.8,0,0,0,1.7-2.2A52.9,52.9,0,0,0,127.3,52c.6-2.9,1.1-5.9,1.5-8.8.8-6.1,1.5-12.1,3.7-17.8a19.1,19.1,0,0,1,6.2-8.6c2-1.4,3.7-3.1,5.6-4.3a13.4,13.4,0,0,1,13-.5c4.9,2.4,7.7,6.5,9.6,11.4a43.5,43.5,0,0,1,2.5,11.9c.4,4.8,1,9.6,1.5,14.4v1.8l-.5.7a7.4,7.4,0,0,1-1.3,1.2,1.9,1.9,0,0,1-1,.3,12.7,12.7,0,0,0-6.1.8c-.5.3-1.3.1-1.9.3l-3.9,2,1.1,1c3.3-1.8,6.5-3.5,10.5-2.8.3.1.5.4.8.6s-.6.6-.9.7l-7.5,1.6a15.2,15.2,0,0,0-2,.6c-.2.1-.4,0-.7,0s-.5.6-.4.9.7.9,1.4.6l4.9-1.2a12.6,12.6,0,0,1,6.1.4,1.2,1.2,0,0,1,.8.4c.2.2.4.6.3.7a1,1,0,0,1-.7.6l-3.5-.3h-5.9c.8,1,2,1,3,1.1s4.4.6,6.6.8a3.4,3.4,0,0,1,2.9,2.6,9.3,9.3,0,0,0,1,2,7.3,7.3,0,0,1,4.7-2.1,3.2,3.2,0,0,1,3.3,1.5l6.9,9.2a3.1,3.1,0,0,0,2.8.5l1-.3c4.2.8,7.8,2.6,9.9,6.4a28.3,28.3,0,0,1,1.1,3.1v.2c-1,1,.1,1.9.2,2.8s.1.3.1.6,1.1-.1,1.3.5A16.5,16.5,0,0,1,205.9,98.1Zm-93,13c1.5-2.8,3.2-5.6,4.7-8.4a34.7,34.7,0,0,0,1.7-4.5,1.2,1.2,0,0,0-.7-1.6c-.7-.2-1.1.2-1.4.8a39.7,39.7,0,0,0-1.7,3.6c-1.5,4.2-3.1,8.4-4.6,12.7-.1.1-.1.3-.1.7s.5-.3.5-.5S112.3,112.1,112.9,111.1Zm7.2-6.1h-.5l-.3.9c-1.2,3.9-2.5,7.8-3.8,11.6-.7,2-1.7,3.9-2.3,5.9a5,5,0,0,0,1.2,5.2c.5.5,1.1.9,1.8.4s.2-1.1-.1-1.6a4.4,4.4,0,0,1-.4-3.7,137.2,137.2,0,0,0,4.1-16.8Zm25.3-68.1v.3a18.2,18.2,0,0,0,0,3.3c.1.5.1,1.1.2,1.6a17.5,17.5,0,0,0,2,6.1c.6,1.4,1.1,2.1,1.6,2.3a11,11,0,0,0,2.1,2.2c1.5,1.3,3.1,1.7,4.8.6a9.3,9.3,0,0,0,3.1-2.8,19.4,19.4,0,0,0,2.6-7.9h0a20.1,20.1,0,0,0,.2-3,12.1,12.1,0,0,0-.1-1.9v-.3l-.3-2.9c0-.1-.1-.3-.1-.4a29.2,29.2,0,0,0-5.4-12.5,35.6,35.6,0,0,0-2.6-3.1,16.4,16.4,0,0,0-1.4,2.2C149.9,23.6,146,29.7,145.4,36.9Zm-7.5,12.6c.1.3.1.6.2.8l2.7,6.1a19.5,19.5,0,0,0,7.9,8.9c3.8,2.1,7.7,2.8,11.8,1l.7-.5-.2-.4-1.1.2-1.1.2a14.9,14.9,0,0,1-9.4-2.6c-4.7-3.1-7.8-7.6-10.4-12.6a8.3,8.3,0,0,0-.8-1.2Zm5.6,70.8h-.1c-.5,2.4-.9,4.9-1.3,7.3-.8,4-1.5,7.9-2.2,11.8l-2.7,15.4-2.4,13.8c-.7,4-1.4,8-2,12s-1.1,6.4-1.6,9.7L129.4,202c-.5,3-.9,6-1.4,9s-1,6.2-1.4,9.3-1,6-1.4,9-1,6.1-1.4,9.2l-1.5,9.7c-.3,2.5-.7,5-1,7.6s-.9,5.5-1.2,8.3-.6,5.1-.9,7.6l-.6,6.4c0,.3.2.5.3.8s.6-.4.6-.7c.6-3.2,1.2-6.5,1.7-9.7l1.2-7.8c.5-3.5,1.1-7,1.7-10.5s.9-6,1.4-9,1.1-6.6,1.6-9.9.9-6,1.4-9,.9-5.9,1.4-8.9,1.1-6.9,1.6-10.3,1-5.9,1.4-8.8l1.8-12,1.8-12.2,1.5-11.3,1.2-8.2,1.2-8.9,1.2-8.6c.4-2.8.9-5.6,1.3-8.4Zm7.6,80.3c0-13.4,0-26.7.1-40.1v-4.4h-.1c-.1,1.3-.2,2.5-.2,3.7-.2,4.1-.3,8.2-.4,12.2l-.6,17.7c-.2,5.2-.3,10.4-.5,15.6l-.6,15.1-.6,15.6c-.2,8.3-.4,16.6-.5,24.9-.1,6.2-.4,12.4.3,18.6.1.5.1,1.2.8,1a1.5,1.5,0,0,0,1.1-.8,77.7,77.7,0,0,0,.9-9.7c.3-8.4.4-16.9.4-25.3C151.2,230,151.1,215.3,151.1,200.6Zm13.2,16.8c-.2-12.5-.5-24.9-.8-37.4-.1-4.6-.3-9.2-.5-13.8s-.5-9.6-.8-14.3-.3-6.9-.5-10.4-.5-7.1-.8-10.7L160,117c-.3-3.4-.4-6.9-.6-10.3a1.9,1.9,0,0,1-.2-.7h-.3c.2,2.8.5,5.6.6,8.5.3,5.2.6,10.4.8,15.6s.2,7.9.4,11.9.3,7.5.3,11.2c.2,6.3.3,12.6.4,19s.3,12.9.4,19.3.2,12.5.2,18.8c0,8.9-.1,17.9-.2,26.8l-.3,29.1c-.1,3.9-.1,7.8-.1,11.6a2.4,2.4,0,0,0,.3,1.2c.1.2.7.4.8.3a1.8,1.8,0,0,0,.9-1l.3-4.4c.2-3.6.3-7.1.4-10.7s.1-6.4.1-9.7c.1-5.5.2-11.1.2-16.7S164.5,223.9,164.3,217.4Zm2.6-151.1a1.5,1.5,0,0,0-.3-.7,1.2,1.2,0,0,0-.8.4.8.8,0,0,0-.2.5c-1.7,3.7-4.3,6.5-8.4,7.6a15.1,15.1,0,0,1-13.3-2.9,24.8,24.8,0,0,1-9.2-15.3c.2.9.3,1.9.5,2.9.8,5.7,2.9,10.7,7.7,14.3a16.6,16.6,0,0,0,13.6,3.2,14.4,14.4,0,0,0,8.8-5.8A7,7,0,0,0,166.9,66.3Zm4.3,60.9h-.1c0,.2-.1.5,0,.7.3,2.3.7,4.6.9,6.9.5,4,.9,7.9,1.3,11.9s.6,5.9.8,8.9l.9,14.5.6,10,.6,14.6c.2,7,.4,14,.5,21.1.1,12.5.1,25,.1,37.5,0,2.7-.1,5.4,0,8,0,5.3.1,10.6.2,15.9a2.4,2.4,0,0,0,.5,1c.2-.3.5-.5.6-.8.2-3.1.4-6.2.5-9.3.2-6.1.3-12.2.4-18.3s.1-11.3.2-16.9c0-4,0-8.1-.1-12.1s-.1-8.2-.2-12.4-.3-10.5-.4-15.8l-.3-4.8-.9-14.9c-.1-1.6-.2-3.3-.4-4.9l-.9-8.3c-.4-3.2-.7-6.4-1.2-9.6s-1.2-8-1.8-12Zm14.1-24.4c-.1-.2-.1-.4-.2-.6-.9-3.6-1.9-7.1-1.4-10.9l-.4-.8a2,2,0,0,0-.3.8l-.6,3.7a13.2,13.2,0,0,0,1.3,8.3c.2.5.4,1.2,1.2.9S185.5,103.4,185.3,102.8ZM202,96c-1.2-2.5-3.3-4.2-5.5-5.8H196l-.2.2c.1.2.2.5.4.6s.7.6,1,1a14.7,14.7,0,0,1,3,4.9c.3.6.6,1.2,1.4.8S202.3,96.7,202,96Z"/>
</svg>
