<svg id="Layer_1" data-name="Layer 1" xmlns="http://www.w3.org/2000/svg" viewBox="0 0 300 300">
  <defs>
    <style>
      .cls-1 {
        fill: #e74b9b;
      }
    </style>
  </defs>
  <title>1-09</title>
  <path class="cls-1" d="M113.4,256.3c-2,.2-2.1-1.6-2.7-2.7-3.5-7-11.9-8.2-17.1-2.5a18.6,18.6,0,0,0-1,2,10.4,10.4,0,0,1-1.9,2.2c-3.1,1.9-4.7,6-3.3,9.2a3.7,3.7,0,0,0,3.8,2.6,18.1,18.1,0,0,0,2.3-.3c3.7-.4,5.3.8,4.8,4.4s-1.8,8.5-2.7,12.7l-.3.7c-1,2.1-2.1,4.4-4.9,4.3s-4.1-2-4.9-4.3a104.7,104.7,0,0,1-2.9-11c-.6-2.8-.6-5.6-1-8.4a8.4,8.4,0,0,0-1.2-4c-.9,3.6-1.6,7.2-2.6,10.8a24.5,24.5,0,0,1-2.5,6c-1.9,3.2-5.2,3.5-7.7.9a13.3,13.3,0,0,1-3.2-5.2,46.1,46.1,0,0,1-1.8-9.7c-.7-11.5,1.4-22.7,3.4-34a167.4,167.4,0,0,1,25.4-63l16.5-25c.1-.1.2-.2.2-.3,4-5.5,8-11,15.1-13.7-4.5-1.9-8.8-2.4-13.1-3-15-2.1-29.5-6.2-43.9-10.9-4.8-1.6-9.7-3.1-14.5-5a19.4,19.4,0,0,1-5.8-3.6c-4.3-3.9-4.7-8.9-1.2-13.7a14.5,14.5,0,0,0,1.9-2.9c6.6-12.4,15.9-22.8,24.9-33.5,6.4-7.7,13.2-15.1,19.8-22.5a22.6,22.6,0,0,1,13.8-7.7,5,5,0,0,0,3.9-2.6c2-3.2,6.4-4.2,9.8-2.7l15.5-8.8c-.8,3.2-1.3,3.7-6,6.8l-7.8,5c2.7,4.6,4.9,9.3,8.1,13.5a2.2,2.2,0,0,0,.7.9C138.9,47.7,145,60,148.5,73.6a6.9,6.9,0,0,0,.6,1.3l1.7-3.2a77.2,77.2,0,0,1,12.7-19.2A45.8,45.8,0,0,0,172,38.9c1.9-5,4-10,6-15,.5-1,.9-2.1,1.4-3.1s2.3-3,4.9-2.2,4.4,1,6.8.1,3.9.7,4.7,2.9a18.5,18.5,0,0,1,.4,2.3c.1.6.1,1.3.2,2.1,4.3,1.3,8.5,2.8,12.8,3.9s5.5,2.8,7.2,5.7c2.8,4.6,5.9,9,8.8,13.6s4.5,7.1,6.8,10.7c1.3,2,2.8,3.8,4.3,5.8a12.4,12.4,0,0,1,1.4,1.8c5.9,9.9,12.7,19.3,16.5,30.3a5.9,5.9,0,0,0,.6,1.4c3.2,5,.8,9.2-3.1,11.8a58.9,58.9,0,0,1-15.5,6.6c-11.7,3.6-23.2,7.3-33.9,13.4-3.2,1.8-6.2,3.9-9.7,6.1l3.2,3.4c10,10.6,19.7,21.6,27.6,33.9,10.5,16.2,20,32.8,26.3,51.2a167.4,167.4,0,0,1,7.8,33.6,7.8,7.8,0,0,1-.1,3.4,2.9,2.9,0,0,1-1.9,1.8c-.5.2-1.6-.8-1.8-1.5a48.7,48.7,0,0,1-1.2-5.2,94,94,0,0,0-2.9-12.5c-1.1,4.1-2,8.3-3.3,12.4s-1.5,8.3-5.3,11.1c-.3-.5-.6-.7-.5-.8l5.7-22.7c.8-2.8,1.7-5.6,2.5-8.4a4.1,4.1,0,0,0,0-2.2,192.8,192.8,0,0,0-11.3-31.1c-.1-.3-.4-.5-.7-.8,1,6.6,2.2,13.2,3,19.7.4,3.2.1,6.4.2,9.6a16.5,16.5,0,0,0,.9,4.3,27.7,27.7,0,0,0,2.2,4.6l-.8.5-3.7-4.5c-.1,3.7-.1,7.3,1.5,10.6a26.8,26.8,0,0,1,1.8,4.7,13,13,0,0,1-.2,3.4l-1,.3a10.7,10.7,0,0,1-1.5-2.2c-.5-1.6-.5-3.4-1-4.9a14,14,0,0,0-2.2-4.4c-3.2-3.5-5.8-3.2-8.5,1l.9,3.9c.2,1.2.3,2.3.5,3.8-3.5.6-4.3,3.4-4.9,6.5-.3,1.4-.7,2.8-1.1,4.3-2.2-.7-1.7-1.9-1.4-2.9s1.1-4.8-.4-7.3c-3.7.9-6.6,3.2-9.8,4.8.3.5.3.7.5.9,2.4,1.8,2.7,2.5,1.6,3.8a3.6,3.6,0,0,1-5.4.1,11.1,11.1,0,0,1-1.2-1.6l-14.2,7.5a14.8,14.8,0,0,0-1.3.8c-4.9,2.8-9.1.7-9.3-5.1s.3-10.2,3.6-14.5c-2.8-6.9-2-6.8-9-3.8a144.6,144.6,0,0,0-13.6,6.9c-4.6,2.5-9.1,5.3-13.6,8l-3.1,1.6c-2.6,1.2-3.4,1-4.5-1.6a42.8,42.8,0,0,1-1.5-5.1,61.3,61.3,0,0,0-2.5-7.2c-1.5-3.2-2.8-3.4-5.6-1.3l-1,.7c-4.9,4.9-10.7,7.7-17.7,7.7ZM106.9,29.1c-4.6.9-5.9,1.5-7.3,3.8A155.2,155.2,0,0,1,77.9,59.7c-6.9,7.1-14.4,13.9-21.4,21a101.4,101.4,0,0,0-7.7,9.4c-1.2,1.5-1.1,2.9.2,4.5a39.7,39.7,0,0,0,14.6,12.1,136.4,136.4,0,0,0,27.4,10c10.3,2.5,20.8,4.2,31.2,6.2a5,5,0,0,0,2.7,0l6.5-2.3a9.8,9.8,0,0,0-1.3-2.2c-5.1-5.8-8.7-12.7-12.3-19.4a53.2,53.2,0,0,1-6.1-22.5l-1.5-26C109.7,43.3,109,36.2,106.9,29.1Zm82.6,103.6c7.1-3.8,13.8-7.4,20.7-10.9,9.2-4.7,18.4-9.4,28.2-12.9a9.6,9.6,0,0,0,4.3-3.1c2-2.8,4.1-5.4,7.9-6.4-1-2.3-1.6-4.3-2.5-6.1a149.4,149.4,0,0,0-21.8-30c-4.2-4.6-8.2-9.5-12.1-14.4s-5.4-7.4-8.2-11.1-7.1-6.7-10.4-7.6c-1.1,8.6-2.4,17.2.2,25.9a79.8,79.8,0,0,1,2.7,10.7c1,6.3-.5,12.2-3.1,17.9s-5.8,13.4-8.6,20.1c-1.4,3.6-2.4,7.5-3.6,11.1,6.3,3,7.5,6.1,4.8,11.8C186.9,130,187.1,130.5,189.5,132.7ZM143.8,262.4c2.4-1.2,4.2-2.1,5.9-3.1,7.2-4.1,14.4-8.4,21.7-12.4a67.7,67.7,0,0,1,8.8-3.6c2.8-.9,3.9-.3,5.3,2.4l1.5,3.2h1c1.6-5.1,3.3-10.3,4.9-15.2-4.3.9-8.3,1.5-12.2,2.7a45.4,45.4,0,0,1-19.7,1.5c-3-.4-6-1.3-8.8-.8s-6.5-1.1-9.1-2.6c-4.3-2.6-8.2-6.1-12.2-9.3-1.2-.9-2.3-2-3.6-2.8a20.2,20.2,0,0,0-15.5-3c-3.9.7-6.4,3.6-9.1,6.5-5.2,5.5-8.1,12-9.9,19.1a13.3,13.3,0,0,0-.3,2.8,82.5,82.5,0,0,1,7.9-2.7c3.3-.8,6.2.6,9.1,2.1s2.5,3.2,2.9,5.1,1.7,2.3,3.4,2.2c4.5-.2,8.3-2.2,11.8-5l3.8-3.2c3.3-2.4,5.5-2.1,7.5,1.5a52.8,52.8,0,0,1,2.8,7.9C142.4,257.7,143,259.9,143.8,262.4ZM75.1,207.8c-.2.6-.5,1.1-.7,1.7a226.3,226.3,0,0,0-8.7,46c-.4,5.2.2,10.5.6,15.7a15.8,15.8,0,0,0,1.8,5c2.1,3.5,4.7,3.6,6.7.1a30.9,30.9,0,0,0,2.3-5.7c.9-3.5,1.6-7,2.5-10.5a18.2,18.2,0,0,1,1.4-3.2c.7,1.5,1.3,2.2,1.4,3,.6,2.7,1,5.5,1.6,8.3q1.5,6.9,3.3,13.8c.4,1.6,1,3.4,3.3,4.1,3.7-5,4-10.8,5-16.9l-2.9.4c-4.6.5-8.1-2.1-8.4-6.8-.1-1.9.7-3.9,1.2-5.9a13,13,0,0,1,1.3-3c-4.1-2.2-4.8-2.7-5.5-6.2a171.4,171.4,0,0,1-2.5-17.5c-.5-9.3,1.6-18.3,4.1-27.2,3.9-13.6,9.7-26.5,15.9-39.1.6-1.2,1.1-2.4,1.6-3.6a3.9,3.9,0,0,0-2.2,2.2c-3.1,6.1-6.4,12.1-9.2,18.2-7.4,16-12.9,32.6-14.6,50.3a9.4,9.4,0,0,0,.7,5.2c2.3,5.8,4.3,11.7,6.4,17.7a6,6,0,0,1,0,1.9c-3.6-4.2-4.6-9.5-7-14.7-.9,3.5.7,6.6-.9,9.6-.5-.4-1-.5-1.1-.8a24.6,24.6,0,0,1-.7-2.9C69.7,233.7,72.3,220.8,75.1,207.8Zm82.3,24.3c9.8,4.3,27.6,2.5,35-3.3-3-1.7-3.3-2-4.3-5.1l-3.9-12.8c-.3-1-.7-1.9-1.3-3.5a11.2,11.2,0,0,1-.3,1.5c-.4,2.9-1.1,4-3,4.3s-3.3-.7-4.5-2.9-.8-1.7-1.6-3.3a52.1,52.1,0,0,1-.7,7.7,10,10,0,0,1-2,4.3c-1.2,1.5-2.8.6-4.3.3a4.8,4.8,0,0,0-1.2,0,4.8,4.8,0,0,1-4.9-3.5c-.7-2.1-1.2-4.2-1.7-6.3-1.7-8.4-3.3-16.8-5-25.3a2.4,2.4,0,0,0-.3,1.6l3.3,32C157.2,222.6,158.9,227.3,157.4,232.1ZM188.8,52a112.2,112.2,0,0,1-1.4,24.6,141,141,0,0,1-12.5,39,23.9,23.9,0,0,0-1,2.9c.8-.3,1.2-.3,1.3-.5a12.4,12.4,0,0,1,1-2l12.9-28.3,3.1-6.6a21.5,21.5,0,0,0,.5-17.2C191.3,60,190.1,56.1,188.8,52ZM119,159.5A383.6,383.6,0,0,0,107.3,209l4.2-1.3,3.6-.9C114.1,190.6,117.2,175.2,119,159.5ZM227.5,234c-5,4.7-9.4,1.5-13.9-.6l.6,8.4c2.3.4,4.2.7,6,1.2s3.6,1.2,4.9,1.6c2.1-1.5,3.6-3.5,5.5-3.8s4.2.8,6.7,1.4c-.3-1.8-.5-3.6-.8-5.6C232.8,238,230.1,236.8,227.5,234Zm-16,9.9c-3.3-.6-5.8-.4-9.8.9s-4.9,4-3.3,7.6,3.7,4.3,7,5C207.2,252.7,211,249.1,211.5,243.9Zm-6.4-12.3c-3.8,2.4-6.6,6.8-5.5,8.8l1.9.6-.4,2,10.9-1.4c.8-3.3.9-6.2-.5-8.5Zm19.7,19.5c.7-4.2.8-4.4-.6-5.1-3.3-1.5-6.7-2.8-10.6-2.2-.4,1.5-.7,2.9-.9,3.7,2.7,1,5.3,1.6,7.4,3A4.3,4.3,0,0,0,224.8,251.1Zm-32.4,8.8c-1.6-.3-3.1-.1-3.9-.8s-1.2-2.4-1.8-3.7c-2.8,4.6-2.4,8.3,1.2,10.4s4.6,1,6.7-2.5Zm15.8-2.1.5.5,11.3-5.8c-4-3.9-7.5-3.4-9.7.9ZM136.7,66c2,4.9,4,9.8,6.1,14.7C142.3,75.2,139.8,70.4,136.7,66Zm62.1,163.4,1.9,2.8c4-2.3,4-2.3,3.4-4.2Zm-.7-84.9-.9.9c1.3,3.3,4.5,4.9,6.9,7.2-1.5-2.2-3.2-4.1-4.9-6.2A8.6,8.6,0,0,1,198.1,144.5Zm-1.5,115.6c1.7-3.7,1.5-4.4-1.7-5.8C194.1,256.7,195,258.4,196.6,260.1Zm.2-26a15.1,15.1,0,0,0-2.3,9.2C195.8,240.4,197.2,237.6,196.8,234.1Zm6.3,25.8V259l-3.3-1.2c-.4,1.3-.6,2.4-1.1,4.3Zm-14.4,8.8-4.6-3.1C184.8,268.2,185.9,269.2,188.7,268.7Zm-41.2-46.3c-1.4,2.5-1.4,2.5.8,3.8C148,224.9,147.8,223.8,147.5,222.4Zm64.9,39.4c-1.2-.8-2.3-1.5-3.9-.7C209.7,263.1,210.8,263.6,212.4,261.8Zm13-9.7c-2,.3-3.3.3-2.4,2.2.1.3.5.4.8.7Zm-99.2-49.2c-.5,1.5-1,2.9.4,4.3Z"/>
</svg>
