<svg id="Layer_1" data-name="Layer 1" xmlns="http://www.w3.org/2000/svg" viewBox="0 0 300 300">
  <defs>
    <style>
      .cls-1 {
        fill: #e74b9b;
      }
    </style>
  </defs>
  <title>1-13</title>
  <path class="cls-1" d="M101.7,135.4c.5-2.8,1-5.7,1.4-8.6a155.2,155.2,0,0,0,45.2,6.4,185.7,185.7,0,0,0,49.6-6.8c.4,2.9.8,5.8,1.3,8.7C150.8,148.9,114.2,139.6,101.7,135.4Zm99.7,10.5c-.7-2.9-1.2-5.7-1.8-8.6a184.9,184.9,0,0,1-51.3,7.3c-22.5,0-39.1-4.3-47-6.9-.5,2.8-1.1,5.6-1.7,8.4C109.6,149.8,148.6,161.5,201.4,145.9ZM94.2,53.6a1.7,1.7,0,1,1,3,1.5L89.8,70.6c-2,5.9-4.1,14.4-3.7,22,.9,13.8,14.2,29,16.8,31.8,13.4,4.3,49,12.6,95.7-.5,3.5-3.9,15.5-18.2,16.3-31.3.5-7.6-1.7-16.1-3.7-22l-7.4-15.5a1.8,1.8,0,0,1,.8-2.3,1.7,1.7,0,0,1,2.2.8l3.2,6.7,10.7-20s-5.7-9.4-28.4-18.4c0,0-15.1,21.5-41.8,26.3-26.6-4.8-41.7-26.3-41.7-26.3-22.7,9-28.4,18.4-28.4,18.4L91,60.3Zm109.7,103-2.1-8.5a189.1,189.1,0,0,1-53.5,8c-24.9,0-42.5-5.4-49.2-7.8-.6,2.8-1.2,5.6-1.9,8.3C98.6,157.2,142.2,175.8,203.9,156.6Zm-112,83.1a1.1,1.1,0,0,1,1.5-.6,1.1,1.1,0,0,1,.6,1.4A184.4,184.4,0,0,1,80.6,268,133.2,133.2,0,0,0,111,283.6h0c5.2-11.8,9.4-29.2,12.3-51.9a1.1,1.1,0,0,1,1.2-1,1.1,1.1,0,0,1,1,1.3c-2.9,22.8-7.1,40.4-12.4,52.3a119.8,119.8,0,0,0,36.3,6.7V228.6a1.1,1.1,0,0,1,2.2,0V291a120.3,120.3,0,0,0,36.4-6.7c-5.4-11.9-9.6-29.5-12.5-52.3a1.2,1.2,0,0,1,1-1.3,1.2,1.2,0,0,1,1.3,1c2.9,22.7,7,40.1,12.3,51.9h0A134.7,134.7,0,0,0,220.4,268,184.4,184.4,0,0,1,207,240.5a1.1,1.1,0,0,1,.7-1.4,1,1,0,0,1,1.4.6,193.1,193.1,0,0,0,13.2,27,137.5,137.5,0,0,0,18.1-15.3s-23.1-43-36-92.6a190.3,190.3,0,0,1-56.1,8.7c-29.5,0-48.7-7.5-51.7-8.7-12.9,49.6-35.9,92.6-35.9,92.6a136.9,136.9,0,0,0,18,15.3A182.6,182.6,0,0,0,91.9,239.7ZM184.1,20.5h0a1.1,1.1,0,1,0-1.8-1.4,1.2,1.2,0,0,0,.3,1.6.7.7,0,0,0,.6.2A1,1,0,0,0,184.1,20.5ZM145.4,38.1a2.2,2.2,0,0,0,0,3.2h0a2.1,2.1,0,0,0,1.6.7,2.4,2.4,0,0,0,1.6-.7,2.3,2.3,0,0,0-3.2-3.2Zm-4.3-2.8H141a2.2,2.2,0,0,0-2.9,1.2,2.3,2.3,0,0,0,1.2,2.9l.9-2-.9,2a1.5,1.5,0,0,0,.9.2,2.3,2.3,0,0,0,2.1-1.3A2.3,2.3,0,0,0,141.1,35.3ZM120.9,23.6a2.2,2.2,0,0,0,0,3.2h.1a1.9,1.9,0,0,0,1.5.7,2,2,0,0,0,1.6-.7,2.3,2.3,0,0,0-3.2-3.2Zm8.4,4.7h-.1a2.2,2.2,0,0,0-3.2.5,2.2,2.2,0,0,0,.5,3.1l1.4-1.8-1.4,1.8a2.4,2.4,0,0,0,1.4.5,2.3,2.3,0,0,0,1.8-.9A2.1,2.1,0,0,0,129.3,28.3Zm36.8,3.9a2.1,2.1,0,0,0-.8,3,2.1,2.1,0,0,0,1.9,1.1,2,2,0,0,0,1.1-.3h.1a2.2,2.2,0,1,0-2.3-3.8Zm-12.6,5.3a2.4,2.4,0,0,0-1.7,2.8A2.3,2.3,0,0,0,154,42h.6a2.4,2.4,0,0,0,1.6-2.8A2.2,2.2,0,0,0,153.5,37.5Zm18.3-9.3a2.2,2.2,0,0,0-.5,3.1,2.2,2.2,0,0,0,3.2.5.1.1,0,0,0,.1-.1,2.3,2.3,0,0,0,.3-3.2A2.2,2.2,0,0,0,171.8,28.2ZM160,35.3a2.2,2.2,0,0,0,.8,4.3h.9a.1.1,0,0,1,.1-.1,2.2,2.2,0,0,0,1.1-2.9A2.2,2.2,0,0,0,160,35.3ZM118.5,20.7a1.1,1.1,0,1,0-1.6-.2h0a1.1,1.1,0,0,0,.9.4A1,1,0,0,0,118.5,20.7Zm13.7,11.8a2.2,2.2,0,0,0,0,3.2h.1a2.3,2.3,0,0,0,1.5.7,2.4,2.4,0,0,0,1.6-.7,2.3,2.3,0,1,0-3.2-3.2Zm45-9.1a2.3,2.3,0,0,0,1.3,4.1,2.1,2.1,0,0,0,1.3-.5h.2a2.2,2.2,0,0,0,.3-3.1A2.1,2.1,0,0,0,177.2,23.4Z"/>
</svg>
