<svg id="Layer_2" data-name="Layer 2" xmlns="http://www.w3.org/2000/svg" viewBox="0 0 300 300">
  <defs>
    <style>
      .cls-1 {
        fill: #e5345b;
      }
    </style>
  </defs>
  <title>1-26</title>
  <path class="cls-1" d="M154.5,288.5c-5.8,3.4-12.2,3.8-18.5,3.3-4.6-.3-7.1-3.9-8.7-7.9-18.7.4-25.3.2-29.9-9.1l-3.1.7c-6.6,1.5-12.3.3-16.5-5.5a11.6,11.6,0,0,0-4.9-3.5c-4.6-1.9-6.9-5.8-5.6-10.4,11.4-41,27.2-80.2,49.4-116.6a19.6,19.6,0,0,1,2.4-3.7c6-6,5.8-13.4,3.5-20.5A74.8,74.8,0,0,0,114.2,98c-6.1-9.3-5.9-21.6,1.4-28.7,1.8-1.7,4.1-2.9,6.5-4.6l-6-14.4-10.9,5.4c-1.6-3.4-.9-5.7,2.7-7.6s8-3.6,11.8-5.8c6.1-3.4,11.9-7.1,17.7-10.9a11,11,0,0,0,3.6-4.1c1.9-3.7,4.2-6.7,8.3-5.6,1.5-2.8,2.6-5.4,4-7.7s2.2-5-.4-7.2-4.5-1.2-7.1,1.9l-.8.6-.6-.8c1.5-1.2,3-3.2,4.6-3.3s4.5.7,5.5,2.2.8,4.1.2,6-2.5,5-3.6,8.2c6.4-.7,8.3,3.5,10.9,7.4,4.8,7.2,12.4,10.9,19.8,14.7,3.8,2,7.6,3.9,11.3,6.1s3.6,4.2,1.4,8.2l-11.9-7.1-5.5,13.9c13.5,8.2,16,21,6.9,34-6.1,8.5-9.4,18-8.7,28.5a17.2,17.2,0,0,0,2.4,6.4c14.8,27.9,29.9,55.7,44.3,83.9,4.6,9,7.4,19,10.7,28.7a8.6,8.6,0,0,1-.2,5.7c-1.9,4.4-4.1,8.6-6.4,12.8a3.5,3.5,0,0,1-2.2,1.8c-5.2.4-8.4,3.8-11.9,7.2-1.4,1.4-3.8,2.6-5.6,2.4-4.3-.3-6.5,2-8.4,5.3-3.1,5.5-8.1,7.7-14.2,8.3a6.4,6.4,0,0,0-3,1.1c-9,6.2-17.4,4.7-25.5-1.8Zm-5-216c6.7-5.9,14.1-8.9,22.8-8.1.9,0,2.4-.5,2.6-1.2,2-4.5,3.7-9.1,5.6-14L157.8,35.3c-4.9-3-9.6-3-14.5-.1l-9.9,5.4-15.1,8.5c2.1,4.9,3.8,9.4,5.9,13.8a3.3,3.3,0,0,0,2.4,1.5C135.4,63.5,142.9,66.6,149.5,72.5Z"/>
</svg>
