<?xml version="1.0" encoding="utf-8"?>
<!-- Generator: Adobe Illustrator 27.8.1, SVG Export Plug-In . SVG Version: 6.00 Build 0)  -->
<svg version="1.1" xmlns="http://www.w3.org/2000/svg" xmlns:xlink="http://www.w3.org/1999/xlink" x="0px" y="0px"
	 viewBox="0 0 350 230" style="enable-background:new 0 0 350 230;" xml:space="preserve">
<style type="text/css">
	.st0{fill:#FFD4A9;}
	.st1{fill:#FFFFAB;}
	.st2{fill:#FFFECF;}
	.st3{fill:#CDFCD7;}
	.st4{fill:#D4FFF4;}
	.st5{fill:#C6FFAE;}
	.st6{fill:#FFFFB0;}
	.st7{fill:#E9FFAE;}
	.st8{fill:#FFE4AE;}
	.st9{fill:#D6D36E;}
	.st10{fill:#7C7B50;}
	.st11{fill:#E4D027;}
	.st12{fill:#14A639;}
	.st13{fill:#9ED834;}
	.st14{fill:#0B8813;}
	.st15{fill:#FEFEFE;}
	.st16{fill:#6BC53C;}
	.st17{fill:#89E051;}
	.st18{fill:#E2BF2B;}
	.st19{fill:#0C8149;}
	.st20{fill:#5B3A00;}
	.st21{fill:#72721D;}
	.st22{fill:#355600;}
	.st23{fill:#603200;}
	.st24{fill:#2BC152;}
	.st25{fill:#DCE041;}
	.st26{fill:#BCAF15;}
	.st27{fill:#0B7E21;}
	.st28{fill:#5C9E23;}
	.st29{fill:#0C4710;}
	.st30{fill:#00760D;}
	.st31{fill:#459B02;}
	.st32{fill:#FCAC01;}
	.st33{fill:#AEC600;}
	.st34{fill:#545913;}
	.st35{fill:#953327;}
	.st36{fill:#ABCB13;}
	.st37{fill:#FFE566;}
	.st38{fill:#72DD2C;}
	.st39{fill:url(#SVGID_1_);}
	.st40{fill:url(#SVGID_00000177458638331480650970000008022117581632475053_);}
	.st41{fill:url(#SVGID_00000084507932974798052990000009894781227198780853_);}
	.st42{fill:#C1B700;}
	.st43{fill:url(#SVGID_00000182495796965494139360000003611466805700993962_);}
	.st44{fill:#2F5A11;}
	.st45{fill:url(#SVGID_00000005953605713046574380000015935291929408218285_);}
	.st46{fill:#E8CB1B;}
	.st47{fill:#AFAA00;}
	.st48{fill:url(#SVGID_00000093867540398347037900000009532853703117111226_);}
	.st49{fill:#FFFFFF;}
	.st50{fill:url(#SVGID_00000029008648618139979290000004184303304306252452_);}
	.st51{fill:url(#SVGID_00000089545647103983465960000003143031159772212392_);}
	.st52{fill:#00A79D;}
	.st53{fill:#0A3A00;}
	.st54{fill:#FFFFFF;stroke:#0A3A00;stroke-miterlimit:10;}
	.st55{fill:url(#SVGID_00000040556866435597830760000008680952481473645724_);}
	.st56{fill:url(#SVGID_00000167363782107561449150000004464746736343491241_);}
	.st57{fill:url(#SVGID_00000122679310511912434170000006174876702160278953_);}
	.st58{fill:url(#SVGID_00000044175596071561048560000013606855566210562715_);}
	.st59{fill:url(#SVGID_00000012467759306382910760000001659857315732697250_);}
	.st60{fill:url(#SVGID_00000023241707974439673200000015535864838867727039_);}
	.st61{fill:url(#SVGID_00000126289776340499420320000017797762264951499193_);}
	.st62{fill:#327736;}
	.st63{fill:#1C4422;}
	.st64{fill:#F9F9F9;}
	.st65{fill:#7BAB47;}
	.st66{fill:#A0C73A;}
	.st67{fill:#284622;}
	.st68{fill:#D0DB58;}
	.st69{fill:none;stroke:#284622;stroke-width:3;stroke-linecap:round;stroke-linejoin:round;stroke-miterlimit:10;}
	.st70{fill:#EABC5E;}
	.st71{fill:#D9941B;}
	.st72{fill:#80C43E;}
	.st73{fill:#376818;}
	.st74{fill:#D7E285;}
	.st75{fill:#05320F;}
	.st76{fill:#329C44;}
	.st77{fill:url(#SVGID_00000054960995697255541580000001471486901445632396_);}
	.st78{fill:url(#SVGID_00000075862414544569366570000012041499624073043360_);}
	.st79{fill:#FAA100;}
	.st80{fill:url(#SVGID_00000088117117214279581300000003245391365976530843_);}
	.st81{fill:url(#SVGID_00000070101318139676770940000015773927647587686573_);}
	.st82{fill:url(#SVGID_00000011751888433845021620000014233346375799224254_);}
	.st83{fill:url(#SVGID_00000153688434785161323680000001683169205851830200_);}
	.st84{fill:url(#SVGID_00000021103594321840682860000017303753206615261342_);}
</style>
<g id="Logo1">
</g>
<g id="Logo2">
</g>
<g id="Logo3">
</g>
<g id="Logo4">
</g>
<g id="Logo5">
</g>
<g id="Logo6">
</g>
<g id="Logo7">
</g>
<g id="Logo8">
</g>
<g id="Logo9">
</g>
<g id="Logo10">
</g>
<g id="Logo11">
</g>
<g id="Logo12">
</g>
<g id="Logo13">
</g>
<g id="Logo14">
</g>
<g id="Logo15">
	<g>
		<radialGradient id="SVGID_1_" cx="171.9248" cy="60.9953" r="52.3098" gradientUnits="userSpaceOnUse">
			<stop  offset="0" style="stop-color:#FFD100"/>
			<stop  offset="0.0747" style="stop-color:#D1AB00"/>
			<stop  offset="0.1657" style="stop-color:#A18400"/>
			<stop  offset="0.2619" style="stop-color:#766000"/>
			<stop  offset="0.3614" style="stop-color:#514300"/>
			<stop  offset="0.4653" style="stop-color:#342A00"/>
			<stop  offset="0.5748" style="stop-color:#1D1800"/>
			<stop  offset="0.6926" style="stop-color:#0D0A00"/>
			<stop  offset="0.8245" style="stop-color:#030200"/>
			<stop  offset="1" style="stop-color:#000000"/>
		</radialGradient>
		<path class="st39" d="M238.67,92.75c-1.05-1.1-2.06-2.16-3.07-3.21c-0.14-0.14-0.29-0.3-0.47-0.35c-1.3-0.39-1.59-1.41-1.76-2.6
			c-1.32-9.37-5.07-17.75-10.48-25.42C212,45.73,196.99,37.1,178.4,34.58c-11.4-1.54-22.22,0.71-32.59,5.5
			c-11.87,5.48-21.2,13.79-27.88,25.05c-3.96,6.67-6.66,13.81-7.91,21.48c-0.07,0.44-0.16,0.9-0.14,1.34
			c0.03,0.89-0.39,1.03-1.16,0.87c-0.8-0.16-1.61-0.25-2.42-0.33c-1.17-0.12-1.28-0.25-1.16-1.41c0.44-4.28,1.52-8.42,3-12.44
			c7.41-20.13,21.15-33.98,41.31-41.41c8.88-3.27,18.03-4.49,27.45-3.79c12.18,0.9,23.14,5.17,33.16,12
			c13.1,8.93,21.51,21.29,26.3,36.25c1.39,4.33,2.16,8.79,2.36,13.34c0.02,0.45,0,0.9-0.01,1.35
			C238.72,92.52,238.68,92.65,238.67,92.75z M215.41,85.15c-0.14-0.36-0.28-0.72-0.43-1.07c-3.85-9.05-9.84-16.35-17.94-21.89
			c-11.65-7.96-24.3-10.13-37.86-6.1c-7.76,2.31-14.37,6.62-20.01,12.4c-4.16,4.27-7.49,9.12-9.86,14.6
			c-0.09,0.2-0.14,0.41-0.21,0.62c0.38-0.25,0.63-0.55,0.9-0.84c2.57-2.84,4.99-5.83,7.73-8.48c11.57-11.23,25.47-15.52,41.38-13.49
			c8.36,1.07,15.72,4.54,22.38,9.6c4.16,3.16,7.55,7.06,10.82,11.09c0.99,1.22,1.96,2.45,2.95,3.67
			C215.29,85.23,215.35,85.19,215.41,85.15z M125.91,61.44c2.21,3.84,5.74,6.17,9.52,8.19c0.15,0.08,0.44,0.05,0.59-0.05
			c0.42-0.26,0.8-0.58,1.25-0.91c-3.2-3.6-6.63-7.03-11.91-8.33C125.61,60.85,125.74,61.15,125.91,61.44z M161.69,53.86
			c0.12,0.21,0.71,0.33,1,0.23c0.21-0.07,0.44-0.57,0.41-0.85c-0.33-2.9-0.75-5.79-1.73-8.56c-0.64-1.8-1.44-3.5-2.86-4.99
			C157.62,44.94,159.28,49.49,161.69,53.86z M184.51,40.08c-2.76,4.04-3.8,8.59-3.95,13.39c-0.01,0.23,0.34,0.58,0.61,0.7
			c0.41,0.18,0.81,0.1,1.01-0.43c0.71-1.86,1.53-3.69,2.15-5.58c0.89-2.7,1.1-5.47,0.53-8.46
			C184.66,39.92,184.57,39.99,184.51,40.08z M134.14,52.27c0.47,1.04,0.83,2.01,1.31,2.92c1.51,2.79,3.68,5.02,6.05,7.07
			c1.39,1.2,1.43,1.2,2.79-0.05C141.33,57.11,137.08,52.9,134.14,52.27z M119.65,70.89c2.58,2.72,5.83,4.34,9.27,5.65
			c0.31,0.12,0.63,0.25,0.96,0.3c0.75,0.11,1.12-0.41,1.42-0.97c0.32-0.59-0.21-0.8-0.54-1.05c-2.18-1.7-4.52-3.14-7.1-4.16
			c-1.52-0.6-3.09-0.96-4.95-0.9C119.1,70.22,119.36,70.58,119.65,70.89z M171.31,39.35c-1.41,4.26-1.26,8.58-0.41,12.91
			c0.09,0.48,0.25,0.89,0.83,0.87c0.61-0.02,1.02-0.31,1.06-0.96c0.16-2.6,0.41-5.21,0.44-7.82c0.02-2.05-0.39-4.07-1.49-6.12
			C171.54,38.73,171.41,39.04,171.31,39.35z M218.05,60.1c-1.35,0.58-2.75,1.07-4.04,1.76c-2.81,1.5-5.01,3.76-7.09,6.13
			c-0.42,0.48-0.35,0.93,0.22,1.11c0.46,0.15,1.13,0.27,1.48,0.05c2-1.28,4.01-2.58,5.88-4.05c1.59-1.25,2.79-2.9,3.73-4.7
			C218.17,60.3,218.11,60.2,218.05,60.1z M152.91,55.51c-0.33-0.77-0.65-1.55-0.98-2.33c-1.01-2.4-2.31-4.62-4.04-6.57
			c-0.66-0.74-1.41-1.39-2.13-2.09c0.05,5.41,3.05,9.29,6.36,13.07C153.48,56.85,153.48,56.85,152.91,55.51z M197.2,45.03
			c-0.29,0.23-0.57,0.46-0.83,0.71c-2.98,2.9-4.69,6.54-5.96,10.42c-0.12,0.35-0.35,0.74,0.21,1c0.49,0.23,0.93,0.41,1.32-0.16
			c1.42-2.08,2.97-4.09,4.25-6.25c1.06-1.79,1.57-3.83,1.66-6.1C197.52,44.83,197.35,44.91,197.2,45.03z M200.03,62.82
			c0.42,0.46,0.8,0.39,1.24,0.04c2.24-1.76,4.3-3.71,5.92-6.07c0.9-1.32,1.63-2.72,2.06-4.46c-4.75,2.01-7.38,5.9-10.01,9.93
			C199.58,62.5,199.85,62.62,200.03,62.82z M224.86,69.62c-0.49,0-0.99-0.06-1.47,0.01c-4.05,0.59-7.45,2.54-10.55,5.1
			c-0.19,0.16-0.34,0.66-0.23,0.82c0.28,0.42,0.63,0.88,1.3,0.68c2.79-0.82,5.5-1.82,7.86-3.56c1.15-0.85,2.17-1.88,3.25-2.83
			C224.96,69.76,224.91,69.69,224.86,69.62z M218.84,84.76c2.76-0.49,5.39-1.33,7.77-2.83c0.79-0.5,1.51-1.12,2.26-1.68
			c-0.05-0.09-0.1-0.19-0.14-0.28c-4.38-0.53-8.1,1.23-11.72,3.49C217.42,84.28,217.76,84.96,218.84,84.76z M115.26,80.24
			c2.13,1.83,4.56,3.07,7.31,3.65c0.85,0.18,1.72,0.29,2.58,0.37c0.65,0.06,1.11-0.37,1.2-0.95c0.04-0.23-0.42-0.66-0.73-0.8
			c-2.03-0.89-4.05-1.8-6.13-2.55c-1.48-0.53-3.06-0.6-4.8-0.35C114.95,79.89,115.08,80.09,115.26,80.24z"/>
		<path d="M177.33,102.87c-2.2,0.68-4.18,1.29-6.16,1.89c-3.12,0.94-6.25,1.87-9.37,2.8c-0.11,0.03-0.24,0.13-0.32,0.09
			c-0.29-0.15-0.57-0.33-0.85-0.5c0.18-0.22,0.31-0.57,0.54-0.64c3.06-0.96,6.12-1.89,9.19-2.82c1.67-0.51,3.34-1.01,5.01-1.5
			c1.59-0.46,2.47-1.48,2.56-3.16c0.12-2.27,0.24-4.55,0.41-6.82c0.02-0.3,0.3-0.58,0.48-0.87c0.14-0.23,0.34-0.44,0.46-0.68
			c0.6-1.21,1.18-2.43,1.77-3.64c0.94-1.92,2.37-3.26,4.53-3.7c0.62-0.13,1.12-0.44,1.24-1.11c0.15-0.83-0.1-1.58-0.68-2.17
			c-0.14-0.14-0.51-0.06-0.78-0.07c-0.6-0.04-1.47,0.41-1.67-0.45c-0.2-0.83,0.72-0.84,1.26-1.03c0.84-0.3,1.35-0.79,1.25-1.74
			c-0.07-0.65,0.28-0.99,0.88-1.12c0.33-0.07,0.66-0.15,0.99-0.21c2.01-0.38,2.06-0.27,2.69,1.22c0.23,0.53,0.63,0.75,1.21,0.73
			c0.39-0.01,0.8,0,1.17,0.1c0.22,0.06,0.52,0.33,0.53,0.52c0.01,0.2-0.24,0.52-0.45,0.61c-0.38,0.16-0.85,0.12-1.22,0.3
			c-0.32,0.16-0.76,0.5-0.79,0.79c-0.13,1.28-0.34,2.49-1.22,3.52c-0.37,0.43,0.01,0.78,0.41,0.88c2.05,0.5,2.81,2.04,3.32,3.87
			c0.34,1.24,0.81,2.45,1.26,3.67c0.07,0.2,0.3,0.42,0.5,0.49c1.34,0.49,2.69,0.98,4.06,1.39c0.57,0.17,1.21,0.1,1.81,0.18
			c0.4,0.05,0.88,0.07,1.18,0.29c0.53,0.4,1,0.36,1.58,0.18c0.8-0.26,1.61-0.53,2.43-0.66c1.49-0.22,2.55,0.39,3.02,1.83
			c0.41,1.25,0.64,2.56,0.86,3.86c0.13,0.73,0.44,1.04,1.18,1.16c3.77,0.62,7.54,1.3,11.3,1.96c0.18,0.03,0.37,0.04,0.66,0.06
			c-0.3-0.62-0.55-1.15-0.88-1.83c1.46-0.22,2.62,0.23,3.92,0.78c0-0.33,0.05-0.59-0.01-0.82c-0.12-0.49-0.32-0.96-0.44-1.45
			c-0.47-1.78,0.19-3.22,2-4.13c-0.2,0.36-0.34,0.6-0.47,0.85c-0.73,1.42-0.19,3.53,1.1,4.27c0.86,0.5,1.24,0.3,1.28-0.7
			c0.06-1.42,0.31-2.75,1.53-3.68c0.07-0.05,0.14-0.08,0.41-0.23c-0.78,1.35-0.5,2.58-0.29,3.85c0.23,1.37,0.27,2.78,0.28,4.17
			c0.02,1.41,0.49,2.64,1.19,3.81c0.4,0.67,0.77,1.36,0.11,2.08c-0.59,0.65-1.35,0.72-2.32,0.25c-0.2-0.1-0.4-0.21-0.59-0.32
			c-2.33-1.25-3.75-0.99-5.75,0.71c-1.6,1.36-3.33,2.58-5.05,3.79c-0.55,0.39-0.78,0.77-0.58,1.39c0.78,2.39,0.86,4.86,0.95,7.34
			c0.11,2.72,1.12,3.95,3.72,4.73c9.99,3,19.31,7.38,27.82,13.45c0.68,0.49,1.33,1.03,1.91,1.71c-1.74-0.69-3.48-1.36-5.22-2.06
			c-10.67-4.29-21.55-7.85-32.87-10c-10.4-1.97-20.88-2.99-31.47-2.83c-5.95,0.09-11.85,0.51-17.68,1.82
			c-1.16,0.26-2.45-0.1-3.68-0.18c-4.83-0.29-9.66-0.6-14.49-0.85c-1.71-0.09-3.43,0.03-5.14-0.03c-0.92-0.03-1.85-0.17-2.75-0.38
			c-2.46-0.57-4.91-0.54-7.36,0.03c-0.27,0.06-0.54,0.11-0.87,0.18c0.15-1.62,0.31-3.19,0.45-4.69c-4.38,1.93-8.68,3.82-13.18,5.81
			c0.32-1.88,0.56-3.48,0.86-5.08c0.46-2.47,0.57-4.91-0.3-7.33c-0.17-0.47-0.16-1-0.24-1.5c-0.17-1.06-0.79-1.76-1.66-1.87
			c-0.81-0.1-1.44,0.21-1.84,0.92c-0.43,0.76-0.21,1.87,0.48,2.57c0.71,0.71,0.73,0.88-0.01,1.6c-0.62,0.61-1.31,1.14-1.96,1.72
			c-0.52,0.47-1.02,0.42-1.48-0.06c-1.76-1.8-2.5-3.9-1.88-6.4c0.62-2.48,2.09-4.12,4.62-4.74c4.77-1.18,9.11,2.29,8.6,7
			c-0.12,1.15-0.82,2.24-1.27,3.34c-0.11,0.27-0.33,0.5-0.49,0.75c5.93-0.39,11.8-0.77,17.74-1.16c-0.14-0.16-0.32-0.39-0.52-0.6
			c-1.23-1.29-2.17-2.73-2.27-4.58c-0.03-0.54-0.35-0.73-0.86-0.64c-3.08,0.53-6.16,1.03-9.22,1.61c-1.46,0.28-1.71,0.18-1.95-1.28
			c-0.62-3.78-4.94-6.76-8.89-5.98c-1.29,0.26-2.18-0.03-3.12-0.86c-2.98-2.62-6.01-5.18-9.04-7.74c-0.61-0.52-0.92-1.09-0.85-1.9
			c0.06-0.67,0.04-1.35,0-2.03c-0.04-0.73,0.3-1.03,0.99-1.05c1.38-0.05,2.76-0.11,4.13-0.17c8.49-0.35,16.98-0.68,25.47-1.06
			c8.74-0.39,17.48-0.83,26.23-1.24c0.31-0.01,0.65-0.1,0.92-0.01c0.25,0.09,0.57,0.35,0.61,0.58c0.32,1.88-0.25,3.48-1.54,4.87
			c-2.52,2.69-5.01,5.41-7.5,8.13c-0.33,0.36-0.93,0.66-0.49,1.34c0.49,0.76,1.25,1.12,2,0.92c1.16-0.32,2.33-0.63,3.49-0.99
			c0.72-0.23,1.22-0.05,1.68,0.55c0.65,0.85,1.37,1.64,2.06,2.46c0.74,0.89,1.68,1.33,2.84,1.45c2.8,0.3,5.59,0.64,8.38,1
			c1.36,0.17,1.42,0.15,1.88-1.16c0.76-2.18,1.52-4.35,2.28-6.53C177.08,103.74,177.16,103.42,177.33,102.87z M183.25,101.23
			c-1.89,0.26-1.88,0.27-3.09,1.65c-0.14,0.16-0.47,0.3-0.67,0.25c-0.81-0.21-1.03,0.27-1.24,0.89c-0.97,2.9-1.96,5.8-2.95,8.7
			c-0.76,2.22-2.26,3.6-4.65,3.84c-3.5,0.36-6.31-0.99-8.54-3.64c-1.07-1.27-2.13-2.55-3.17-3.83c-0.38-0.46-0.79-0.68-1.39-0.5
			c-1.07,0.33-2.16,0.62-3.22,0.98c-0.81,0.27-1.49,0.13-2.09-0.45c-0.3-0.29-0.6-0.6-0.93-0.86c-2.39-1.93-5.65-1.88-7.98,0.13
			c-2.31,1.99-2.94,5.38-1.48,7.97c1.19,2.11,3.17,2.64,5.39,2.63c10.97-0.09,21.94,0.07,32.88,1c0.66,0.06,1.04-0.17,1.04-0.86
			c0-0.96,0.01-1.91-0.02-2.87c-0.06-2,0.03-3.97,0.47-5.95C182.25,107.33,182.7,104.31,183.25,101.23z M193.53,115.26
			c-0.06-1.04-0.19-2.1-0.16-3.16c0.03-0.86,0.24-1.71,0.4-2.56c0.12-0.63,0.32-1.23,0.44-1.86c0.36-1.87,0.54-3.79,1.07-5.62
			c0.62-2.14,2.02-3.01,4.25-3c0.76,0,1.52,0.06,2.27,0.15c2.21,0.26,4.41,0.55,6.61,0.83c0.44,0.06,0.89,0.06,0.79-0.53
			c-0.23-1.3-0.5-2.59-0.86-3.86c-0.18-0.66-0.74-1.19-1.46-1.03c-1.39,0.3-2.82,0.5-4.01,1.43c-0.4,0.31-1.01,0.41-1.54,0.5
			c-0.74,0.13-1.52,0.05-2.23,0.25c-2.01,0.55-3.98,1.2-5.98,1.8c-0.98,0.3-1.26,0.67-1.25,1.71c0.02,1.49,0.08,2.98,0.02,4.47
			c-0.18,4.7-0.42,9.39-0.6,14.08c-0.01,0.39,0.15,0.99,0.44,1.17c1.78,1.07,3.72,1.71,5.81,1.85c0.55,0.04,0.75-0.23,0.66-0.78
			c-0.27-1.69-0.54-3.38-0.74-5.09c-0.07-0.62-0.14-1.35,0.11-1.89c1.13-2.52,1.11-5.08,0.47-7.68c-0.44-1.78-0.91-3.55-0.21-5.54
			c-0.95,0.53-1.5,1.21-1.69,2.03c-0.57,2.39-1.29,4.77-0.5,7.3C196.3,112.27,195.24,114.5,193.53,115.26z M209.97,123.96
			c0-0.68-0.15-1.32,0.03-1.85c0.91-2.72,1.9-5.41,2.88-8.1c0.23-0.64,0.05-0.96-0.62-1.05c-2.32-0.32-4.6-0.77-6.75-1.75
			c-0.73-0.33-1.14-0.05-1.23,0.74c-0.16,1.34-0.31,2.68-0.41,4.02c-0.04,0.52-0.03,1.11,0.18,1.57c0.76,1.75,1.6,3.47,2.44,5.18
			c0.13,0.26,0.39,0.55,0.64,0.62C208.09,123.6,209.08,123.77,209.97,123.96z M187.51,103.41c-0.07,0-0.14-0.01-0.2-0.01
			c-0.04,0.1-0.1,0.19-0.13,0.3c-0.99,3.46-2.01,6.9-2.37,10.51c-0.18,1.73-0.58,3.43-0.88,5.15c-0.12,0.7,0.14,1.05,0.9,1.07
			c0.73,0.02,1.46,0.1,2.18,0.21c1.34,0.21,1.44,0.09,1.35-1.27c-0.23-3.53-0.43-7.07-0.62-10.6
			C187.63,106.97,187.58,105.19,187.51,103.41z M215.52,116.78c-1.41,1.76-2.4,3.66-3.01,5.75c-0.27,0.95,0.15,1.85,0.87,2.05
			c1.48,0.39,2.98,0.72,4.49,1.08C217.9,122.27,217.11,118.57,215.52,116.78z M183.42,89.9c-1.86,2.03-2.65,4.39-3.33,6.79
			c-0.23,0.8-0.32,1.66-0.32,2.49c0,0.41,0.26,0.98,0.59,1.19c0.92,0.6,2.96-0.48,3.1-1.56c0.09-0.64,0.19-1.28,0.25-1.92
			C183.94,94.59,184.01,92.3,183.42,89.9z M191.96,92.55c-0.08,0.06-0.17,0.13-0.25,0.19c0.06,1.33,0.12,2.67,0.18,4
			c0.04,0.87,0.18,0.97,1.04,0.71c1.88-0.56,3.76-1.13,5.63-1.71c0.22-0.07,0.42-0.17,0.63-0.26c-0.01-0.09-0.02-0.18-0.03-0.27
			c-1.15-0.14-2.29-0.36-3.44-0.39C194.04,94.79,192.48,94.64,191.96,92.55z M203.77,122.63c-0.7-2.46-1.73-4.68-3.33-6.71
			c-0.21,0.59-0.4,1.2-0.37,1.8c0.05,0.89,0.26,1.78,0.4,2.66C200.79,122.27,201.67,122.91,203.77,122.63z M136.54,110.54
			c0-0.07-0.01-0.15-0.01-0.22c-2.8,0.22-5.59,0.44-8.39,0.69c-0.19,0.02-0.36,0.3-0.54,0.46c0.22,0.16,0.45,0.46,0.67,0.45
			c0.73-0.04,1.45-0.18,2.17-0.31C132.47,111.26,134.5,110.89,136.54,110.54z M172.15,140.47c0.44,0.15,0.7,0.26,0.96,0.32
			c10.64,2.59,21.02,6.03,31.3,9.75c7.82,2.83,15.74,5.24,24.09,5.9c0.28,0.02,0.55,0.05,0.83,0.08
			c-6.14-3.79-12.52-6.97-19.11-9.74c-6.61-2.78-13.38-5.09-20.49-7.05c0.47-0.17,0.75-0.28,1.04-0.37
			c5.21-1.65,10.57-2.44,16.03-2.52c9.24-0.13,18.35,1.06,27.44,2.57c1.77,0.29,3.54,0.6,5.32,0.9c0.01-0.09,0.03-0.18,0.04-0.28
			c-20.57-7.93-41.69-12.39-63.87-10.2c-0.01,0.09-0.03,0.18-0.04,0.27c6.09,1.01,12.19,2.01,18.28,3.02
			C186.53,134.94,179.29,137.23,172.15,140.47z M145.4,156.76c0.22,0.52,0.58,1.06,1.03,1.38c4.27,3.03,8.56,6.01,12.87,8.99
			c0.33,0.23,0.76,0.37,1.16,0.41c9.09,0.86,18.19,1.17,27.32,1.1c0.26,0,0.52,0,0.78,0c0.01-0.06,0.02-0.13,0.03-0.19
			c-10.84-6.41-21.69-12.82-32.68-19.32c0.7,2.99,1.78,5.61,3.3,8.16c-2.94,0.05-5.65-0.4-8.05-1.77c-2.22-1.27-4.59-1.92-7.16-2.53
			C144.47,154.29,144.88,155.55,145.4,156.76z M211.9,162.43c-0.27-0.17-0.53-0.35-0.81-0.51c-6.68-3.9-13.49-7.54-20.58-10.67
			c-8.88-3.93-17.99-7.22-27.31-9.93c-0.43-0.12-1.05,0.04-1.45,0.28c-1.86,1.1-3.67,2.29-5.5,3.44c-0.17,0.11-0.35,0.21-0.59,0.37
			c0.2,0.1,0.3,0.15,0.4,0.19c8.05,3.18,16.11,6.35,24.16,9.53c8.44,3.34,17.01,6.22,26.12,7.08c1.83,0.17,3.67,0.31,5.5,0.46
			C211.85,162.58,211.88,162.5,211.9,162.43z M148.66,143.87c0.66,0.4,1.33,0.79,1.99,1.19c1.76,1.07,2.91,2.63,3.56,4.56
			c0.61,1.83,1.2,3.68,1.78,5.5c-3.44-0.07-7.98-3.26-9.22-6.49c-0.62-1.61-0.41-3.08,0.83-4.52c-1.37-0.65-2.63-1.25-3.89-1.84
			c-2.91-1.35-6.04-1.73-9.17-2.07c-0.17-0.02-0.53,0.29-0.55,0.48c-0.32,2.84-2.07,4.65-4.97,4.86c-1.03,0.08-2.12-0.11-3.13-0.36
			c-0.71-0.17-1.02-0.07-1.28,0.6c-1.03,2.65-1.38,5.39-1.03,8.2c0.29,2.39,0.67,4.76,1.01,7.14c-1.23-2-2.18-4.17-2.71-6.51
			c-1.07-4.71-0.08-8.98,2.8-12.83c0.86-1.16,1.95-2.03,3.37-2.4c0.63-0.16,0.76-0.5,0.73-1.1c-0.05-1.15-0.16-2.32,0.02-3.44
			c0.48-3.06,2.25-4.63,5.53-5.12c2.84-0.42,5.86,0.13,8.31,1.5c-1.96,1.7-3.88,3.5-5.95,5.11c-0.85,0.66-2.04,0.88-3.08,1.31
			c-0.81,0.33-1.61,0.66-2.32,1.15c2.78,0.4,5.56,0.8,8.36,1.2c0,0.03,0.03-0.06,0.02-0.13c-0.34-2.88,0.59-4.7,3.16-6.09
			c1.93-1.05,4.06-1.47,6.2-1.82c1.55-0.26,3.11-0.47,4.81-0.73c-0.38,0.57-0.64,1.06-0.99,1.49c-1.42,1.75-2.84,3.49-4.3,5.2
			c-1.32,1.55-2.89,2.75-5.03,3.39c1.81,0.91,3.49,1.76,5.16,2.61C148.69,143.9,148.66,143.87,148.66,143.87z M133.59,133.58
			c2-0.65,3.79-1.24,5.59-1.82C137.11,131.56,135.3,132.11,133.59,133.58z M149.92,133.74c-2,0.05-4.48,1.21-5.28,2.39
			C146.43,135.32,148.18,134.53,149.92,133.74z M120.96,150.77c-0.57-1.3-1.06-2.64-1.72-3.89c-0.81-1.56-1.48-3.15-1.76-4.89
			c-0.81-5.03,2.99-10.45,7.98-11.31c-0.89,0.68-1.76,1.32-2.59,2.01c-1.84,1.54-3.35,3.33-4.18,5.62c-0.58,1.6-0.62,3.35-0.21,4.37
			c1.5-1.35,3.04-2.75,4.59-4.15c0.07,0.05,0.14,0.1,0.21,0.16c-0.76,1.04-1.53,2.09-2.33,3.19c2.08-0.78,3.76-1.94,4.62-4
			c1.52-3.63,2.98-7.28,4.47-10.93c0.08-0.19,0.1-0.39,0.13-0.49c-2.05,0.83-4.12,1.63-6.15,2.5c-1.26,0.54-2.55,1.08-3.71,1.8
			c-2.05,1.28-3.42,3.1-3.98,5.52c-0.5,2.13-0.18,4.19,0.33,6.25c0.15,0.61,0.3,1.23,0.51,2.05c-2.75-2.1-5.65-2.79-8.84-2.3
			c-3.12,0.47-5.85,1.8-8.55,3.8c0.87,0,1.51,0.01,2.14,0c2.19-0.04,4.16,0.58,5.87,1.97c0.52,0.43,1.08,0.81,1.58,1.27
			c1.82,1.66,3.92,2.13,6.26,1.44c1.44-0.43,2.66-0.12,3.72,0.93c0.14,0.14,0.29,0.27,0.44,0.39c0.13,0.1,0.27,0.18,0.57,0.38
			c-2.95-4.97-7.51-6.93-12.69-7.89c5.68-0.6,9.77,2.05,13.01,6.42C120.76,150.91,120.86,150.84,120.96,150.77z M146.72,164.73
			c-1.33-3.58-2.67-7.15-3.98-10.74c-0.4-1.1-1.13-1.73-2.26-2.05c-2.99-0.83-5.16-2.65-6.35-5.56c-0.11-0.27-0.26-0.53-0.41-0.86
			c-1.43,1.29-3.05,1.97-4.88,2c-1.17,0.02-1.76,0.55-2.01,1.61c-0.05,0.22-0.14,0.43-0.21,0.64c-0.47,1.37-0.43,1.49,0.73,2.3
			c6.13,4.28,12.26,8.55,18.38,12.83c0.38,0.26,0.77,0.52,1.35,0.91C146.91,165.3,146.83,165.01,146.72,164.73z M112.29,92.24
			c14.47-0.64,28.94-1.29,43.48-1.93c-0.1-0.16-0.12-0.23-0.16-0.25c-4.31-1.47-8.62-2.93-12.93-4.38
			c-0.37-0.12-0.78-0.21-1.16-0.16c-2.73,0.32-5.51,0.46-8.19,1.07c-5.56,1.26-11.06,2.77-16.59,4.19c-1.51,0.39-3,0.83-4.5,1.25
			C112.26,92.1,112.28,92.17,112.29,92.24z M184.12,133.23c-8.49-1.49-17.1-1.94-25.65-2.83c-0.41-0.04-1.01,0.04-1.25,0.31
			c-0.97,1.07-1.84,2.23-2.87,3.52c1.17,0.1,2.13,0.12,3.05,0.28c4.62,0.81,9.25,1.6,13.85,2.52c2.73,0.54,5.3,0.52,7.71-1.05
			c0.37-0.24,0.8-0.43,1.22-0.57c1.83-0.62,3.68-1.22,5.55-1.83C185.19,133.46,184.66,133.33,184.12,133.23z M201.72,139.49
			c6.12,2.08,12.25,4.13,18.36,6.23c5.24,1.8,10.43,3.72,15.88,4.8c1.15,0.23,2.31,0.43,3.47,0.64c0.02-0.07,0.04-0.15,0.07-0.22
			c-0.23-0.14-0.45-0.29-0.7-0.41c-9.8-4.5-19.83-8.35-30.21-11.3c-2.63-0.75-5.15-0.38-7.77-0.08
			C201.12,139.27,201.42,139.39,201.72,139.49z M115.13,121.57c-0.56,0.38-1.14,0.73-1.7,1.1c-3.77,2.46-4.65,6.19-2.38,10.09
			c1.1,1.89,2.23,3.78,3.36,5.66c0.08,0.14,0.24,0.23,0.36,0.34c0.06-0.04,0.12-0.09,0.17-0.13c-0.72-1.48-1.45-2.96-2.17-4.44
			c-0.37-0.76-0.84-1.48-1.09-2.28c-0.94-2.96,0.72-6.29,3.97-7.92c-0.64,0.86-1.22,1.6-1.77,2.37c-1.13,1.6-1.8,3.37-1.72,5.36
			c0.04,1.01,0.33,1.24,1.33,1.03c2.01-0.42,3.31-1.6,3.77-3.63c0.51-2.25,0.99-4.5,1.45-6.76c0.29-1.43,0.2-2.84-0.29-4.37
			C117.39,119.73,116.62,120.57,115.13,121.57z M148.69,143.9c-0.98-1.66-0.34-3.98,1.46-5.25c1.78-1.25,3.81-1.75,5.95-1.87
			c2.56-0.15,5.04,0.33,7.57,0.9c-0.07,0.11-0.1,0.22-0.17,0.27c-2.17,1.45-4.35,2.9-6.53,4.34c-2.55,1.68-5.34,2.09-8.31,1.58
			C148.66,143.87,148.69,143.9,148.69,143.9z M159.19,138.81c-1.97-0.35-3.82-0.16-5.66,0.99
			C155.53,139.45,157.36,139.13,159.19,138.81z M103.98,137.71c1.4,2.2,3.34,3.17,5.91,2.95c0.62-0.05,1.23-0.11,1.85-0.16
			c0.95-0.07,1.7,0.27,2.19,1.12c0.07,0.13,0.18,0.24,0.27,0.36c0.07-0.04,0.14-0.07,0.22-0.11c-0.84-1.89-1.53-3.85-2.56-5.63
			c-0.56-0.96-1.58-1.79-2.58-2.34c-3-1.65-6.24-1.23-9.7-0.86C101.6,134.3,102.87,135.95,103.98,137.71z M144.43,146.91
			c-0.24-0.6-0.52-1.19-0.84-1.74c-1.41-2.43-3.6-3.71-6.31-4.19c-0.68-0.12-1.04,0.15-1.26,0.79c-0.91,2.62-0.25,5,2,6.77
			c2.41,1.89,5.38,2.23,8.22,3.03C145.62,149.93,145.04,148.41,144.43,146.91z M97.82,120.74c1.07,2.51,2.08,5.06,3.25,7.53
			c0.61,1.3,1.8,2.21,3.23,2.32c1.99,0.15,3.81,0.48,5.15,2.19c-0.12-0.36-0.31-0.61-0.51-0.86c-0.6-0.78-1.09-1.63-0.89-2.63
			c0.33-1.67-0.22-3.06-1.23-4.29c-1.18-1.43-2.63-2.52-4.44-3.06c-1.42-0.43-2.84-0.86-4.27-1.3
			C98.01,120.66,97.91,120.7,97.82,120.74z M111.15,122.13c-1.22,0.22-2.46,0.44-3.89,0.69c0.63,0.68,1.13,1.22,1.39,1.51
			C109.52,123.57,110.32,122.86,111.15,122.13z M117.48,114.33c-0.55-0.11-0.78,0.39-0.67,0.8c0.09,0.37,0.46,0.67,0.71,1
			c0.3-0.26,0.6-0.52,1.13-0.97C118.11,114.77,117.82,114.4,117.48,114.33z M147.59,108.22c2.83,0.01,5.28,2.42,5.28,5.18
			c0,2.71-2.52,5.1-5.37,5.1c-2.57,0-5.17-2.6-5.18-5.17C142.31,110.48,144.64,108.21,147.59,108.22z M146.83,112.37
			c-0.52,0.25-0.7,0.61-0.47,1.27c0.24,0.68,0.82,1.02,1.53,0.85c0.72-0.18,1.06-0.64,0.99-1.31c-0.29,0.17-0.72,0.53-0.82,0.46
			C147.61,113.29,147.26,112.83,146.83,112.37z"/>
	</g>
</g>
</svg>
