<?xml version="1.0" encoding="utf-8"?>
<!-- Generator: Adobe Illustrator 27.8.1, SVG Export Plug-In . SVG Version: 6.00 Build 0)  -->
<svg version="1.1" xmlns="http://www.w3.org/2000/svg" xmlns:xlink="http://www.w3.org/1999/xlink" x="0px" y="0px"
	 viewBox="0 0 350 230" style="enable-background:new 0 0 350 230;" xml:space="preserve">
<style type="text/css">
	.st0{fill:#FFD4A9;}
	.st1{fill:#FFFFAB;}
	.st2{fill:#FFFECF;}
	.st3{fill:#CDFCD7;}
	.st4{fill:#D4FFF4;}
	.st5{fill:#C6FFAE;}
	.st6{fill:#FFFFB0;}
	.st7{fill:#E9FFAE;}
	.st8{fill:#FFE4AE;}
	.st9{fill:#D6D36E;}
	.st10{fill:#7C7B50;}
	.st11{fill:#E4D027;}
	.st12{fill:#14A639;}
	.st13{fill:#9ED834;}
	.st14{fill:#0B8813;}
	.st15{fill:#FEFEFE;}
	.st16{fill:#6BC53C;}
	.st17{fill:#89E051;}
	.st18{fill:#E2BF2B;}
	.st19{fill:#0C8149;}
	.st20{fill:#5B3A00;}
	.st21{fill:#72721D;}
	.st22{fill:#355600;}
	.st23{fill:#603200;}
	.st24{fill:#2BC152;}
	.st25{fill:#DCE041;}
	.st26{fill:#BCAF15;}
	.st27{fill:#0B7E21;}
	.st28{fill:#5C9E23;}
	.st29{fill:#0C4710;}
	.st30{fill:#00760D;}
	.st31{fill:#459B02;}
	.st32{fill:#FCAC01;}
	.st33{fill:#AEC600;}
	.st34{fill:#545913;}
	.st35{fill:#953327;}
	.st36{fill:#ABCB13;}
	.st37{fill:#FFE566;}
	.st38{fill:#72DD2C;}
	.st39{fill:url(#SVGID_1_);}
	.st40{fill:url(#SVGID_00000000932921149087823970000001449021170052372122_);}
	.st41{fill:url(#SVGID_00000170271176578022225270000006168932250517978262_);}
	.st42{fill:#C1B700;}
	.st43{fill:url(#SVGID_00000006673771063522335240000015204718269833660298_);}
	.st44{fill:#2F5A11;}
	.st45{fill:url(#SVGID_00000087381160100840689880000001160688515509414326_);}
	.st46{fill:#E8CB1B;}
	.st47{fill:#AFAA00;}
	.st48{fill:url(#SVGID_00000047768987317970007210000014577792536556903078_);}
	.st49{fill:#FFFFFF;}
	.st50{fill:url(#SVGID_00000067948224716403429280000007201110734803375500_);}
	.st51{fill:url(#SVGID_00000081643556556939903060000002459401290456410513_);}
	.st52{fill:#00A79D;}
	.st53{fill:#0A3A00;}
	.st54{fill:#FFFFFF;stroke:#0A3A00;stroke-miterlimit:10;}
	.st55{fill:url(#SVGID_00000008126829636049439220000012445513458115972277_);}
	.st56{fill:url(#SVGID_00000035517042044210008770000010764200823201172100_);}
	.st57{fill:url(#SVGID_00000128465718642362946330000006621679190724335015_);}
	.st58{fill:url(#SVGID_00000130642471607167520590000011640154290937010621_);}
	.st59{fill:url(#SVGID_00000137811122052701685040000010003227372130461315_);}
	.st60{fill:url(#SVGID_00000088814824140117887780000015406707591917163178_);}
	.st61{fill:url(#SVGID_00000113354659186612771790000002248028020962210946_);}
	.st62{fill:#327736;}
	.st63{fill:#1C4422;}
	.st64{fill:#F9F9F9;}
	.st65{fill:#7BAB47;}
	.st66{fill:#A0C73A;}
	.st67{fill:#284622;}
	.st68{fill:#D0DB58;}
	.st69{fill:none;stroke:#284622;stroke-width:3;stroke-linecap:round;stroke-linejoin:round;stroke-miterlimit:10;}
	.st70{fill:#EABC5E;}
	.st71{fill:#D9941B;}
	.st72{fill:#80C43E;}
	.st73{fill:#376818;}
	.st74{fill:#D7E285;}
	.st75{fill:#05320F;}
	.st76{fill:#329C44;}
	.st77{fill:url(#SVGID_00000114049236291304959110000018064294538596574868_);}
	.st78{fill:url(#SVGID_00000094585117131517983650000007131062695326590907_);}
	.st79{fill:#FAA100;}
	.st80{fill:url(#SVGID_00000083080691439773972640000015752262578605087382_);}
	.st81{fill:url(#SVGID_00000141425591738875022900000015433815283868011428_);}
	.st82{fill:url(#SVGID_00000094577711809605896990000004838839836287767981_);}
	.st83{fill:url(#SVGID_00000083068346171486426000000014981870864795863450_);}
	.st84{fill:url(#SVGID_00000142855764802005294660000007176607723579266696_);}
</style>
<g id="Logo1">
</g>
<g id="Logo2">
</g>
<g id="Logo3">
</g>
<g id="Logo4">
</g>
<g id="Logo5">
</g>
<g id="Logo6">
</g>
<g id="Logo7">
</g>
<g id="Logo8">
</g>
<g id="Logo9">
</g>
<g id="Logo10">
</g>
<g id="Logo11">
</g>
<g id="Logo12">
</g>
<g id="Logo13">
</g>
<g id="Logo14">
</g>
<g id="Logo15">
	<g id="Objects">
		<g id="logo">
			<linearGradient id="SVGID_1_" gradientUnits="userSpaceOnUse" x1="175.7114" y1="39.0289" x2="175.7114" y2="93.9009">
				<stop  offset="0" style="stop-color:#FDDB71"/>
				<stop  offset="0.328" style="stop-color:#F3B391"/>
				<stop  offset="0.5545" style="stop-color:#9CABB8"/>
				<stop  offset="0.8547" style="stop-color:#537D96"/>
			</linearGradient>
			<path class="st39" d="M229.77,53.24c-12.14,0-40.27-14.64-54.34-14.62c-13.93,0.02-44.47,14.62-53.78,14.62V84.2h108.12V53.24z"
				/>
			<path class="st62" d="M223.11,124.43c-3.75,5.39-9.26,9.52-15.92,11.56l-31.75,9.73L143.83,136
				c-6.76-2.08-12.33-6.31-16.08-11.82C158.45,122.49,191.39,122.57,223.11,124.43z"/>
			<path class="st63" d="M227.35,115.47c-1.36,4.83-3.9,9.19-7.35,12.73l-2.95-0.67l-5.04-2.87c0-1.68,2.98-3.04,4.99-3.34
				c2.51-0.37,1.36-2.41,3.31-3.3c1.16-0.53,2.41,0.36,3.23,0.04c0.55-0.21,1.16-1.05,1.55-1.55
				C225.6,115.84,226.5,115.5,227.35,115.47z M139.72,124.66l-5.04,2.87l-3.52,0.8c-3.5-3.55-6.07-7.94-7.45-12.81
				c0.21-0.04,0.42-0.06,0.64-0.05c0.86,0.02,1.77,0.36,2.29,1.04c0.38,0.5,1,1.34,1.55,1.55c0.82,0.31,2.06-0.57,3.23-0.04
				c1.95,0.89,0.8,2.92,3.31,3.3C136.74,121.61,139.72,122.98,139.72,124.66z M191.3,48.29c-1.03,0-3,0.23-3,0.23l-0.01,0
				c0-0.33-0.27-0.6-0.6-0.6c-0.33,0-0.6,0.27-0.6,0.59c-0.04-0.01-1.98-0.23-3-0.23c-1.03,0-2.11,0.13-2.11,0.47
				c0,0.34,1.26,0.35,2.15,0.35c0.89,0,2.17-0.18,2.95-0.25v0.61h-0.94v0.45h-6.69c-0.62,0-2.11-0.64-2.59-0.64
				c-0.39,0-1.04,0-1.28,0c0,0-0.04,0-0.1,0c-0.24,0-0.88,0-1.28,0c-0.49,0-1.98,0.64-2.59,0.64h-6.69v-0.45h-0.94v-0.61
				c0.78,0.07,2.07,0.25,2.95,0.25c0.89,0,2.15-0.01,2.15-0.35c0-0.34-1.08-0.47-2.11-0.47c-1.02,0-2.95,0.23-3,0.23
				c-0.01-0.33-0.27-0.59-0.6-0.59c-0.33,0-0.6,0.27-0.6,0.6l-0.01,0c0,0-1.97-0.23-3-0.23s-2.11,0.13-2.11,0.47
				c0,0.34,1.26,0.35,2.15,0.35c0.89,0,2.18-0.18,2.96-0.25l0.01-0.01v0.62h-0.94v1.61l0.71,0.35h0.37v1.41h0.02
				c-0.09,0-0.16,0.07-0.16,0.16v0.78h1.21V53c0-0.09-0.07-0.16-0.16-0.16h0.02v-1.41h0.37l0.71-0.35v-0.17h6.11l-1.35,8.07
				c-0.1,0.09-0.16,0.21-0.16,0.35c0,0.08,0.03,0.15,0.06,0.22l0,0l0,0c0.08,0.15,0.23,0.25,0.41,0.25c0.12,0,0.23-0.05,0.32-0.13
				l0,0l0,0c0.09-0.09,0.15-0.21,0.15-0.34c0-0.08-0.02-0.15-0.06-0.21l0.94-5.63c0.22,0.19,0.47,0.43,0.56,0.58
				c0.35,0.65,0.99,2.71,1.86,2.71c0.54,0,1.42,0,1.7,0c0.06,0,0.1,0,0.1,0c0.29,0,1.16,0,1.7,0c0.87,0,1.51-2.07,1.86-2.71
				c0.09-0.16,0.33-0.39,0.56-0.58l0.94,5.63c-0.03,0.07-0.06,0.14-0.06,0.21c0,0.14,0.06,0.26,0.15,0.34l0,0l0,0
				c0.08,0.08,0.19,0.13,0.32,0.13c0.18,0,0.33-0.1,0.41-0.25l0,0l0,0c0.04-0.07,0.06-0.14,0.06-0.22c0-0.14-0.06-0.26-0.16-0.35
				l-1.35-8.07h6.11v0.17l0.71,0.35h0.37v1.41h0.02c-0.09,0-0.16,0.07-0.16,0.16v0.78h1.21V53c0-0.09-0.07-0.16-0.16-0.16h0.02
				v-1.41h0.37l0.71-0.35v-1.61h-0.94v-0.62l0.01,0.01c0.78,0.07,2.07,0.25,2.96,0.25c0.89,0,2.15-0.01,2.15-0.35
				C193.4,48.42,192.32,48.29,191.3,48.29z"/>
			<path id="XMLID_679_" class="st64" d="M163.37,54.55c0.3,0,0.55,0.24,0.55,0.55c0,0.3-0.24,0.55-0.55,0.55s-0.55-0.24-0.55-0.55
				C162.82,54.79,163.07,54.55,163.37,54.55z M164.32,56.2c0.26,0,0.48,0.21,0.48,0.48c0,0.26-0.21,0.48-0.48,0.48
				s-0.48-0.21-0.48-0.48C163.85,56.41,164.06,56.2,164.32,56.2z M162.89,56.68c0,0.26-0.21,0.48-0.48,0.48s-0.48-0.21-0.48-0.48
				c0-0.26,0.21-0.48,0.48-0.48C162.67,56.2,162.89,56.41,162.89,56.68z M163.77,58.65c0,0.22-0.18,0.4-0.4,0.4
				c-0.22,0-0.4-0.18-0.4-0.4s0.18-0.4,0.4-0.4C163.59,58.26,163.77,58.43,163.77,58.65z M161.67,58.65c0,0.22-0.18,0.4-0.4,0.4
				c-0.22,0-0.4-0.18-0.4-0.4s0.18-0.4,0.4-0.4C161.49,58.26,161.67,58.43,161.67,58.65z M165.86,58.65c0,0.22-0.18,0.4-0.4,0.4
				s-0.4-0.18-0.4-0.4s0.18-0.4,0.4-0.4C165.68,58.26,165.86,58.43,165.86,58.65z M162.65,60.75c0,0.18-0.14,0.32-0.32,0.32
				S162,60.93,162,60.75c0-0.18,0.14-0.32,0.32-0.32C162.5,60.43,162.65,60.57,162.65,60.75z M160.56,60.75
				c0,0.18-0.14,0.32-0.32,0.32s-0.32-0.14-0.32-0.32c0-0.18,0.14-0.32,0.32-0.32C160.41,60.43,160.56,60.57,160.56,60.75z
				 M164.9,60.75c0,0.18-0.14,0.32-0.32,0.32c-0.18,0-0.32-0.14-0.32-0.32c0-0.18,0.14-0.32,0.32-0.32
				C164.76,60.43,164.9,60.57,164.9,60.75z M167,60.75c0,0.18-0.14,0.32-0.32,0.32c-0.18,0-0.32-0.14-0.32-0.32
				c0-0.18,0.14-0.32,0.32-0.32C166.85,60.43,167,60.57,167,60.75z M161.37,62.92c0,0.12-0.1,0.23-0.23,0.23
				c-0.12,0-0.23-0.1-0.23-0.23c0-0.12,0.1-0.23,0.23-0.23C161.27,62.69,161.37,62.79,161.37,62.92z M159.2,62.92
				c0,0.12-0.1,0.23-0.23,0.23c-0.12,0-0.23-0.1-0.23-0.23c0-0.12,0.1-0.23,0.23-0.23C159.1,62.69,159.2,62.79,159.2,62.92z
				 M163.66,62.92c0,0.12-0.1,0.23-0.23,0.23c-0.12,0-0.23-0.1-0.23-0.23c0-0.12,0.1-0.23,0.23-0.23
				C163.56,62.69,163.66,62.79,163.66,62.92z M165.84,62.92c0,0.12-0.1,0.23-0.23,0.23c-0.12,0-0.23-0.1-0.23-0.23
				c0-0.12,0.1-0.23,0.23-0.23C165.73,62.69,165.84,62.79,165.84,62.92z M168.01,62.92c0,0.12-0.1,0.23-0.23,0.23
				c-0.12,0-0.23-0.1-0.23-0.23c0-0.12,0.1-0.23,0.23-0.23C167.91,62.69,168.01,62.79,168.01,62.92z M188.22,55.09
				c0,0.3-0.24,0.55-0.55,0.55c-0.3,0-0.55-0.24-0.55-0.55c0-0.3,0.24-0.55,0.55-0.55C187.97,54.55,188.22,54.79,188.22,55.09z
				 M188.63,56.2c0.26,0,0.48,0.21,0.48,0.48c0,0.26-0.21,0.48-0.48,0.48s-0.48-0.21-0.48-0.48
				C188.15,56.41,188.36,56.2,188.63,56.2z M186.71,56.2c0.26,0,0.48,0.21,0.48,0.48c0,0.26-0.21,0.48-0.48,0.48
				c-0.26,0-0.48-0.21-0.48-0.48C186.23,56.41,186.45,56.2,186.71,56.2z M188.07,58.65c0,0.22-0.18,0.4-0.4,0.4
				c-0.22,0-0.4-0.18-0.4-0.4s0.18-0.4,0.4-0.4C187.89,58.26,188.07,58.43,188.07,58.65z M185.97,58.65c0,0.22-0.18,0.4-0.4,0.4
				c-0.22,0-0.4-0.18-0.4-0.4s0.18-0.4,0.4-0.4C185.8,58.26,185.97,58.43,185.97,58.65z M190.16,58.65c0,0.22-0.18,0.4-0.4,0.4
				s-0.4-0.18-0.4-0.4s0.18-0.4,0.4-0.4S190.16,58.43,190.16,58.65z M186.95,60.75c0,0.18-0.14,0.32-0.32,0.32s-0.32-0.14-0.32-0.32
				c0-0.18,0.14-0.32,0.32-0.32C186.81,60.43,186.95,60.57,186.95,60.75z M184.86,60.75c0,0.18-0.14,0.32-0.32,0.32
				s-0.32-0.14-0.32-0.32c0-0.18,0.14-0.32,0.32-0.32C184.71,60.43,184.86,60.57,184.86,60.75z M189.21,60.75
				c0,0.18-0.14,0.32-0.32,0.32c-0.18,0-0.32-0.14-0.32-0.32c0-0.18,0.14-0.32,0.32-0.32C189.06,60.43,189.21,60.57,189.21,60.75z
				 M191.3,60.75c0,0.18-0.14,0.32-0.32,0.32c-0.18,0-0.32-0.14-0.32-0.32c0-0.18,0.14-0.32,0.32-0.32
				C191.15,60.43,191.3,60.57,191.3,60.75z M185.67,62.92c0,0.12-0.1,0.23-0.23,0.23c-0.12,0-0.23-0.1-0.23-0.23
				c0-0.12,0.1-0.23,0.23-0.23C185.57,62.69,185.67,62.79,185.67,62.92z M183.5,62.92c0,0.12-0.1,0.23-0.23,0.23
				s-0.23-0.1-0.23-0.23c0-0.12,0.1-0.23,0.23-0.23S183.5,62.79,183.5,62.92z M187.96,62.92c0,0.12-0.1,0.23-0.23,0.23
				s-0.23-0.1-0.23-0.23c0-0.12,0.1-0.23,0.23-0.23S187.96,62.79,187.96,62.92z M190.14,62.92c0,0.12-0.1,0.23-0.23,0.23
				c-0.12,0-0.23-0.1-0.23-0.23c0-0.12,0.1-0.23,0.23-0.23C190.04,62.69,190.14,62.79,190.14,62.92z M192.31,62.92
				c0,0.12-0.1,0.23-0.23,0.23c-0.12,0-0.23-0.1-0.23-0.23c0-0.12,0.1-0.23,0.23-0.23C192.21,62.69,192.31,62.79,192.31,62.92z"/>
			<path id="XMLID_1733_" class="st63" d="M175.44,150.29l-32.89-10.11c-7.1-2.18-13.19-6.5-17.61-12.47
				c-4.42-5.98-6.75-13.06-6.75-20.5V49.11h3.35c6.17,0,12.69-2.56,20.24-5.52c9.62-3.77,20.52-8.05,33.74-8.05
				c13.23,0,24.15,4.28,33.79,8.06c7.54,2.96,14.05,5.51,20.19,5.51h3.35v58.07c0,7.44-2.34,14.53-6.76,20.51
				c-4.42,5.98-10.52,10.29-17.63,12.47L175.44,150.29z M142.85,139.21l32.59,10.02l32.73-10.03c6.9-2.11,12.82-6.3,17.11-12.1
				c4.29-5.8,6.56-12.69,6.56-19.9V50.13h-2.34c-6.33,0-12.92-2.59-20.56-5.58c-9.56-3.75-20.39-7.99-33.42-7.99
				c-13.02,0-23.83,4.24-33.37,7.98c-7.65,3-14.25,5.59-20.61,5.59h-2.34v57.08c0,7.21,2.27,14.09,6.55,19.89
				C130.04,132.9,135.95,137.09,142.85,139.21z"/>
			<path id="XMLID_680_" class="st63" d="M229.5,51.45c-6.58,0-13.28-2.63-21.04-5.67c-9.45-3.7-20.15-7.9-32.94-7.9
				c-12.77,0-23.46,4.19-32.89,7.89c-7.77,3.05-14.48,5.68-21.09,5.68h-1.02v55.76c0,6.93,2.18,13.54,6.29,19.11
				c4.12,5.57,9.79,9.59,16.42,11.63l32.2,9.9l32.35-9.91c6.63-2.03,12.31-6.05,16.44-11.63s6.3-12.19,6.3-19.12V51.45H229.5z
				 M228.49,107.19c0,13.33-8.56,24.9-21.3,28.81l-31.75,9.73L143.83,136c-12.73-3.91-21.27-15.48-21.27-28.8V53.46
				c6.68-0.25,13.56-2.95,20.82-5.8c9.26-3.63,19.76-7.75,32.14-7.75c12.4,0,22.92,4.12,32.2,7.76c7.25,2.84,14.12,5.53,20.77,5.79
				L228.49,107.19L228.49,107.19z"/>
			<path id="XMLID_14_" class="st63" d="M229.22,66.1c-0.22,0.22-0.41,0.5-0.51,0.8c-0.01-0.68,0.03-1.67,0.23-2.11
				c-0.33,0.42-0.44,1.18-0.47,1.52c-0.03-0.34-0.14-1.11-0.47-1.52c0.2,0.44,0.24,1.43,0.23,2.11c-0.21-0.6-0.76-1.13-1.19-1.2
				c0.79,0.66,1.04,1.58,1.1,1.86c-0.31-0.4-0.9-0.53-1.1-0.45c0.77,0.45,1.03,0.77,1.29,1.16l-0.04,0.96
				c-0.25-0.5-0.74-1.09-1.42-1.38c0.11-0.13,0.24-0.26,0.37-0.38c-0.2,0.03-0.41,0.14-0.63,0.29c-0.25-0.07-0.51-0.1-0.79-0.07
				c0.13,0.11,0.27,0.24,0.42,0.4c-0.39,0.4-0.73,0.94-0.92,1.52c-0.02-1.2,0.05-2.98,0.38-3.76c-0.54,0.74-0.72,2.1-0.77,2.72
				c-0.05-0.61-0.23-1.97-0.77-2.72c0.23,0.56,0.34,1.63,0.37,2.63c-0.19-0.01-0.36,0.02-0.53,0.06c-0.14-0.19-0.29-0.37-0.44-0.52
				c0.02-0.01,0.04-0.02,0.06-0.04c-0.03-0.01-0.07-0.02-0.12-0.02c-0.18-0.16-0.36-0.29-0.53-0.38c0.15-0.27,0.35-0.57,0.65-0.82
				c-0.3,0.05-0.65,0.35-0.88,0.73c-0.04-0.01-0.08-0.02-0.12-0.03c0.03,0.03,0.06,0.06,0.09,0.09c-0.04,0.08-0.08,0.16-0.11,0.25
				c-0.01-0.58,0.03-1.44,0.2-1.82c-0.29,0.36-0.38,1.02-0.41,1.31c-0.03-0.3-0.12-0.95-0.41-1.31c0.17,0.38,0.21,1.24,0.2,1.82
				c-0.18-0.52-0.65-0.98-1.02-1.03c0.68,0.57,0.9,1.36,0.95,1.6c-0.27-0.34-0.78-0.45-0.95-0.39c0.58,0.34,0.83,0.6,1.03,0.89
				c-0.23,0-0.45,0.02-0.66,0.07c-0.38-0.3-0.86-0.51-1.42-0.45c0.2,0.17,0.44,0.41,0.68,0.7c-0.8,0.38-1.41,1.04-1.79,1.67
				c-0.05,0.01-0.11,0.02-0.16,0.03c0.04,0.02,0.08,0.03,0.12,0.05c-0.11,0.19-0.2,0.37-0.26,0.55l-0.02-0.53
				c0.28-0.68,0.59-1.25,1.44-2.04c-0.22-0.14-0.88,0.1-1.23,0.8c0.06-0.49,0.35-2.12,1.23-3.3c-0.48,0.12-1.1,1.06-1.33,2.13
				c-0.01-1.2,0.03-2.97,0.26-3.75c-0.37,0.74-0.5,2.09-0.53,2.71c-0.03-0.61-0.16-1.96-0.53-2.71c0.23,0.77,0.27,2.55,0.26,3.75
				c-0.23-1.07-0.85-2.01-1.33-2.13c0.88,1.18,1.17,2.81,1.23,3.3c-0.35-0.7-1.01-0.94-1.23-0.8c0.69,0.65,1.02,1.14,1.27,1.67
				l-0.04,1.14c-0.06,0-0.11-0.01-0.17-0.01c-0.46-0.55-1.16-1.11-1.93-1.44c0.28-0.26,0.65-0.53,1.19-0.85
				c-0.29-0.11-1.15,0.08-1.62,0.66l0-0.04c0.1-0.46,0.49-1.76,1.62-2.7c-0.6,0.09-1.34,0.79-1.69,1.62h-0.07
				c-0.01-0.99,0.06-2.35,0.35-2.96c-0.49,0.62-0.66,1.75-0.7,2.26c-0.05-0.51-0.21-1.64-0.7-2.26c0.28,0.61,0.36,1.97,0.35,2.96
				h-0.07c-0.35-0.82-1.09-1.52-1.69-1.62c1.09,0.92,1.49,2.17,1.61,2.66c-0.02,0-0.04,0.01-0.06,0.01
				c-0.47-0.52-1.27-0.69-1.55-0.58c0.85,0.5,1.28,0.89,1.61,1.3l-0.01,1.34c-0.15-0.15-0.3-0.28-0.46-0.38
				c-0.98-0.85-2.35-1.51-3.61-1.22c0.39,0.32,0.86,0.69,1.36,1.08c-0.21,0.09-0.42,0.22-0.62,0.4c-0.37,0.06-0.72,0.17-1.04,0.31
				l-0.02-2.39c0.37-0.94,1.54-2.51,2.31-3.14c-0.67-0.07-1.26,0.19-1.7,0.56c-0.28-0.01-0.55,0.01-0.81,0.07l0-0.06
				c0.26-0.39,0.52-0.71,1.29-1.16c-0.19-0.08-0.79,0.05-1.1,0.45c0.06-0.28,0.31-1.2,1.1-1.86c-0.43,0.07-0.98,0.6-1.19,1.2
				c-0.01-0.68,0.03-1.67,0.23-2.11c-0.33,0.42-0.44,1.18-0.47,1.52c-0.03-0.34-0.14-1.11-0.47-1.52c0.2,0.44,0.24,1.43,0.23,2.11
				c-0.17-0.48-0.55-0.91-0.91-1.1c0.15-0.17,0.31-0.33,0.49-0.48c-0.64,0.1-1.45,0.89-1.76,1.78c-0.02-1,0.04-2.48,0.34-3.13
				c-0.49,0.62-0.66,1.75-0.7,2.26c-0.05-0.51-0.21-1.64-0.7-2.26c0.3,0.65,0.36,2.13,0.34,3.13c-0.31-0.89-1.12-1.68-1.76-1.78
				c1.17,0.98,1.54,2.35,1.63,2.76c-0.46-0.59-1.34-0.78-1.63-0.67c1.13,0.67,1.53,1.14,1.91,1.72l-0.03,0.89
				c-0.52-1.1-1.87-2.51-3.68-2.33c1.14,0.93,2.87,3.27,3.42,4.66l0,0.06c-0.62,0.17-1.35,0.93-1.72,1.84l0-0.57h-0.1
				c0.01-0.49,0.04-1,0.08-1.47c0.26,0.01,0.55,0.03,0.87,0.06c-0.24-0.38-0.49-0.66-0.76-0.87c0.05-0.25,0.11-0.47,0.18-0.63
				c-0.11,0.16-0.21,0.35-0.3,0.55c-0.36-0.25-0.75-0.38-1.16-0.43c-0.03-0.04-0.05-0.08-0.08-0.12c0.01,0.03,0.03,0.08,0.04,0.12
				c-0.39-0.04-0.8,0-1.22,0.08c-0.56,0.11-1.17,0.56-1.72,1.24c-0.16,0.12-0.31,0.26-0.43,0.43c0.09-0.49,0.5-2.13,1.78-3.31
				c-0.7,0.12-1.58,1.07-1.92,2.14c-0.02-1.2,0.05-2.98,0.38-3.76c-0.33,0.46-0.53,1.15-0.64,1.76c-0.09-0.01-0.17-0.01-0.25,0
				c-0.11-0.61-0.31-1.3-0.64-1.76c0.17,0.4,0.27,1.08,0.32,1.8c-0.33,0.08-0.61,0.24-0.86,0.44c-0.13-0.14-0.27-0.26-0.41-0.36
				c0.18-0.19,0.42-0.39,0.83-0.63c-0.17-0.07-0.68,0.05-0.95,0.39c0.05-0.24,0.27-1.03,0.95-1.6c-0.37,0.06-0.84,0.52-1.02,1.03
				c-0.01-0.58,0.03-1.44,0.2-1.82c-0.29,0.36-0.38,1.02-0.41,1.31c-0.03-0.3-0.12-0.95-0.41-1.31c0.17,0.38,0.21,1.24,0.2,1.82
				c-0.18-0.52-0.65-0.98-1.02-1.03c0.68,0.57,0.9,1.36,0.95,1.6c-0.27-0.34-0.78-0.45-0.95-0.39c0.66,0.39,0.89,0.66,1.11,1
				l-0.03,0.83c-0.31-0.63-1.09-1.43-2.13-1.33c0.34,0.28,0.77,0.77,1.15,1.29c-0.79,0.12-1.46,0.53-1.97,1.04
				c-0.15,0.01-0.3,0.03-0.45,0.06c0.09,0.04,0.18,0.08,0.28,0.12c-0.41,0.44-0.7,0.94-0.85,1.35l-0.02-0.53
				c0.28-0.68,0.59-1.25,1.44-2.04c-0.22-0.14-0.88,0.1-1.23,0.8c0.06-0.49,0.35-2.12,1.23-3.3c-0.48,0.12-1.1,1.06-1.33,2.13
				c-0.01-1.2,0.03-2.97,0.26-3.75c-0.37,0.74-0.5,2.09-0.53,2.71c-0.03-0.61-0.16-1.96-0.53-2.71c0.23,0.77,0.27,2.55,0.26,3.75
				c-0.23-1.07-0.85-2.01-1.33-2.13c0.88,1.18,1.17,2.81,1.23,3.3c-0.35-0.7-1.01-0.94-1.23-0.8c0.55,0.51,0.87,0.93,1.1,1.34
				c-0.5-0.01-0.96,0.12-1.36,0.34c-0.32-0.2-0.67-0.36-1.02-0.46l-0.01-0.86c0.32-0.41,0.76-0.8,1.61-1.3
				c-0.29-0.11-1.15,0.08-1.62,0.66l0-0.04c0.1-0.46,0.49-1.76,1.62-2.7c-0.6,0.09-1.34,0.79-1.69,1.62h-0.07
				c-0.01-0.99,0.06-2.35,0.35-2.96c-0.49,0.62-0.66,1.75-0.7,2.26c-0.05-0.51-0.21-1.64-0.7-2.26c0.28,0.61,0.36,1.97,0.35,2.96
				h-0.07c-0.35-0.82-1.09-1.52-1.69-1.62c1.12,0.95,1.51,2.24,1.62,2.7l0,0.04c-0.46-0.58-1.33-0.77-1.62-0.66
				c0.85,0.5,1.28,0.89,1.61,1.3l-0.01,0.73c-0.12,0.01-0.24,0.03-0.37,0.05c0.11,0.09,0.23,0.19,0.36,0.29l0,0.32
				c-0.43-0.45-0.99-0.9-1.6-1.22c0.22-0.26,0.44-0.48,0.63-0.64c-0.5-0.05-0.93,0.11-1.29,0.35c-0.21-0.07-0.42-0.13-0.64-0.17
				c0.18-0.21,0.43-0.42,0.88-0.69c-0.17-0.07-0.68,0.05-0.95,0.39c0.05-0.24,0.27-1.03,0.95-1.6c-0.37,0.06-0.84,0.52-1.02,1.03
				c-0.01-0.58,0.03-1.44,0.2-1.82c-0.29,0.36-0.38,1.02-0.41,1.31c-0.03-0.3-0.12-0.95-0.41-1.31c0.17,0.38,0.21,1.24,0.2,1.82
				c-0.1-0.3-0.3-0.57-0.52-0.76c0.13-0.13,0.26-0.25,0.38-0.35c-1.72-0.18-3.03,1.09-3.6,2.16c-0.02,0-0.04,0-0.07,0.01l-0.05-1.31
				c0.38-0.58,0.78-1.05,1.91-1.72c-0.29-0.11-1.17,0.08-1.63,0.67c0.08-0.41,0.46-1.77,1.63-2.76c-0.64,0.1-1.45,0.89-1.76,1.78
				c-0.02-1,0.04-2.48,0.34-3.13c-0.49,0.62-0.66,1.75-0.7,2.26c-0.05-0.51-0.21-1.64-0.7-2.26c0.3,0.65,0.36,2.13,0.34,3.13
				c-0.31-0.89-1.12-1.68-1.76-1.78c1.17,0.98,1.54,2.35,1.63,2.76c-0.46-0.59-1.34-0.78-1.63-0.67c0.32,0.19,0.58,0.36,0.8,0.53
				c-0.24,0.06-0.52,0.33-0.76,0.72c-0.17-0.09-0.35-0.17-0.54-0.24c0.03-0.83,0.1-1.64,0.24-2.1c-0.27,0.53-0.41,1.37-0.48,2.03
				c-0.04-0.01-0.08-0.02-0.11-0.03c-0.07-0.66-0.21-1.48-0.47-2.01c0.13,0.43,0.2,1.18,0.23,1.97c-0.23-0.03-0.47-0.04-0.71-0.01
				c0.23,0.19,0.48,0.43,0.74,0.71c0.01,0.38,0.01,0.76,0.01,1.09c-0.23-1.07-0.85-2.01-1.33-2.13c0.88,1.18,1.17,2.81,1.23,3.3
				c-0.35-0.7-1.01-0.94-1.23-0.8c0.55,0.51,0.87,0.93,1.1,1.34c-0.42-0.01-0.82,0.08-1.17,0.24c-0.43-0.31-0.9-0.57-1.4-0.74
				l-0.01-1.52c0.55-1.39,1.04-2.43,2.18-3.36c-0.8,0.13-1.3,0.31-1.65,0.57c-0.24,0.07-0.5,0.22-0.68,0.44
				c0.06-0.3,0.33-1.28,1.17-1.99c-0.46,0.07-1.04,0.64-1.27,1.28c-0.01-0.72,0.03-1.79,0.25-2.26c-0.35,0.45-0.47,1.26-0.51,1.63
				c-0.03-0.37-0.15-1.18-0.51-1.63c0.22,0.47,0.26,1.53,0.25,2.26c-0.22-0.64-0.81-1.21-1.27-1.28c0.84,0.71,1.11,1.69,1.17,1.99
				c-0.14-0.18-0.34-0.31-0.54-0.39c-0.62-0.58-1.48-0.94-2.26-1.17c0.66,0.74,1.51,1.84,2.03,2.7c-1.62,0.01-2.83,1.27-3.33,2.29
				l-0.05-1.43c0.38-0.58,0.78-1.05,1.91-1.72c-0.29-0.11-1.17,0.08-1.63,0.67c0.07-0.36,0.22-1.6,1.07-2.52
				c-0.49,0.32-0.98,0.9-1.2,1.55c-0.02-1,0.04-2.48,0.34-3.13c-0.49,0.62-0.66,1.75-0.7,2.26c-0.05-0.51-0.21-1.64-0.7-2.26
				c0.3,0.65,0.36,2.13,0.34,3.13c-0.31-0.89-1.12-1.68-1.76-1.78c1.17,0.98,1.54,2.35,1.63,2.76c-0.46-0.59-1.34-0.78-1.63-0.67
				c1.13,0.67,1.53,1.14,1.91,1.72l-0.05,1.43c-0.39-0.8-1.22-1.75-2.33-2.13c0.28-0.31,0.56-0.57,0.8-0.78
				c-2.1-0.22-3.59,1.72-3.87,2.82h-0.11l-0.02,2.01c-0.15-0.31-0.32-0.6-0.5-0.85c0.08-0.06,0.15-0.12,0.22-0.18
				c-0.13-0.03-0.26-0.05-0.39-0.05c-0.37-0.47-0.77-0.81-1.18-0.98c-0.52-0.22-1.05-0.38-1.58-0.42c0.34-0.42,0.81-0.85,1.61-1.37
				c-0.31-0.14-1.27,0.1-1.78,0.8c0.09-0.49,0.5-2.13,1.78-3.31c-0.7,0.12-1.58,1.07-1.92,2.14c-0.02-1.2,0.05-2.98,0.38-3.76
				c-0.54,0.74-0.72,2.1-0.77,2.72c-0.05-0.61-0.23-1.97-0.77-2.72c0.33,0.78,0.4,2.56,0.38,3.76c-0.34-1.07-1.22-2.02-1.92-2.14
				c1.27,1.18,1.69,2.82,1.78,3.31c-0.43-0.61-1.21-0.87-1.61-0.84c0.03-0.03,0.06-0.07,0.1-0.1c-0.37,0.06-0.84,0.52-1.02,1.03
				c-0.01-0.46,0.01-1.1,0.11-1.53c0.18-0.18,0.35-0.34,0.51-0.47c-1.96-0.2-3.39,1.47-3.79,2.59l-0.02-0.53
				c0.28-0.68,0.59-1.25,1.44-2.04c-0.22-0.14-0.88,0.1-1.23,0.8c0.06-0.49,0.35-2.12,1.23-3.3c-0.48,0.12-1.1,1.06-1.33,2.13
				c-0.01-1.2,0.03-2.97,0.26-3.75c-0.37,0.74-0.5,2.09-0.53,2.71c-0.03-0.61-0.16-1.96-0.53-2.71c0.23,0.77,0.27,2.55,0.26,3.75
				c-0.23-1.07-0.85-2.01-1.33-2.13c0.88,1.18,1.17,2.81,1.23,3.3c-0.35-0.7-1.01-0.94-1.23-0.8c0.55,0.51,0.87,0.93,1.1,1.34
				c-0.5-0.01-0.96,0.12-1.36,0.34c-0.32-0.2-0.67-0.36-1.02-0.46l-0.01-0.86c0.32-0.41,0.76-0.8,1.61-1.3
				c-0.29-0.11-1.15,0.08-1.62,0.66l0-0.04c0.1-0.46,0.49-1.76,1.62-2.7c-0.6,0.09-1.34,0.79-1.69,1.62h-0.07
				c-0.01-0.99,0.06-2.35,0.35-2.96c-0.49,0.62-0.66,1.75-0.7,2.26c-0.05-0.51-0.21-1.64-0.7-2.26c0.28,0.61,0.36,1.97,0.35,2.96
				h-0.07c-0.35-0.82-1.09-1.52-1.69-1.62c1.12,0.95,1.51,2.24,1.62,2.7l0,0.04c-0.46-0.58-1.33-0.77-1.62-0.66
				c0.85,0.5,1.28,0.89,1.61,1.3l-0.01,0.73c-0.12,0.01-0.24,0.03-0.37,0.05c0.11,0.09,0.23,0.19,0.36,0.29l0,0.32
				c-0.98-1.03-2.6-1.99-4.06-1.65c0.49,0.4,1.14,0.89,1.78,1.41c-2.05-0.1-3.74,1.12-4.61,2.69c-0.03,0-0.07-0.01-0.1-0.01
				l-0.02-2.03c0.55-1.39,2.28-3.72,3.42-4.65c-1.78-0.19-3.13,1.19-3.66,2.28l-0.05-1.43c0.38-0.58,0.78-1.05,1.91-1.72
				c-0.29-0.11-1.17,0.08-1.63,0.67c0.08-0.41,0.46-1.77,1.63-2.76c-0.64,0.1-1.45,0.89-1.76,1.78c-0.02-1,0.04-2.48,0.34-3.13
				c-0.49,0.62-0.66,1.75-0.7,2.26c-0.05-0.51-0.21-1.64-0.7-2.26c0.3,0.65,0.36,2.13,0.34,3.13c-0.31-0.89-1.12-1.68-1.76-1.78
				c1.17,0.98,1.55,2.35,1.63,2.76c-0.46-0.59-1.34-0.78-1.63-0.67c1.13,0.67,1.53,1.14,1.91,1.72l-0.05,1.43
				c-0.53-1.09-1.88-2.47-3.66-2.28c1.02,0.84,2.53,2.81,3.22,4.21c-0.57,0.26-1.19,0.95-1.52,1.76l0-0.57h-0.1
				c0.02-1.08,0.12-2.31,0.37-2.92c-0.54,0.74-0.72,2.1-0.77,2.72c-0.05-0.61-0.23-1.97-0.77-2.72c0.26,0.61,0.35,1.83,0.37,2.92
				h-0.1l0,0.42c-0.02,0.01-0.04,0.01-0.06,0.02c-0.09-0.2-0.19-0.39-0.31-0.56c0.02-0.01,0.04-0.03,0.07-0.04
				c-0.03-0.01-0.06-0.01-0.11-0.02c-0.14-0.2-0.29-0.38-0.45-0.54c0.14-0.22,0.32-0.45,0.56-0.65c-0.23,0.04-0.51,0.23-0.72,0.5
				c-0.09-0.08-0.19-0.15-0.28-0.21c0.02-0.42,0.08-0.84,0.19-1.07c-0.2,0.26-0.31,0.66-0.36,0.98c-0.03-0.02-0.07-0.04-0.1-0.05
				c-0.06-0.31-0.16-0.69-0.35-0.93c0.04,0.08,0.07,0.19,0.09,0.31c-0.33-0.12-1.27,0.11-1.76,0.81c0.09-0.49,0.5-2.13,1.78-3.31
				c-0.7,0.12-1.58,1.07-1.92,2.14c-0.02-1.2,0.05-2.98,0.38-3.76c-0.54,0.74-0.72,2.1-0.77,2.72c-0.05-0.61-0.23-1.97-0.77-2.72
				c0.33,0.78,0.4,2.56,0.38,3.76c-0.34-1.07-1.22-2.02-1.92-2.14c1.27,1.18,1.69,2.82,1.78,3.31c-0.35-0.49-0.9-0.74-1.32-0.82
				c0.05-0.05,0.1-0.1,0.15-0.14c-0.1,0.02-0.2,0.06-0.31,0.12c-0.12-0.01-0.23,0-0.3,0.03c0.05,0.03,0.09,0.06,0.13,0.09
				c-0.23,0.19-0.44,0.48-0.55,0.79c-0.01-0.58,0.03-1.44,0.2-1.82c-0.29,0.36-0.38,1.02-0.41,1.31c-0.02-0.19-0.06-0.53-0.17-0.85
				c0.23-0.24,0.46-0.46,0.66-0.63c-1.96-0.2-3.39,1.47-3.79,2.59l-0.02-0.53c0.28-0.68,0.59-1.25,1.44-2.04
				c-0.22-0.14-0.88,0.1-1.23,0.8c0.06-0.49,0.35-2.12,1.23-3.3c-0.48,0.12-1.1,1.06-1.33,2.13c-0.01-1.2,0.03-2.97,0.26-3.75
				c-0.37,0.74-0.5,2.09-0.53,2.71c-0.03-0.61-0.16-1.96-0.53-2.71c0.23,0.77,0.27,2.55,0.26,3.75c-0.23-1.07-0.85-2.01-1.33-2.13
				c0.88,1.18,1.17,2.81,1.23,3.3c-0.35-0.7-1.01-0.94-1.23-0.8c0.55,0.51,0.87,0.93,1.1,1.34c-0.5-0.01-0.96,0.12-1.36,0.34
				c-0.32-0.2-0.67-0.36-1.02-0.46l-0.01-0.86c0.32-0.41,0.76-0.8,1.61-1.3c-0.29-0.11-1.15,0.08-1.62,0.66l0-0.04
				c0.1-0.46,0.49-1.76,1.62-2.7c-0.6,0.09-1.34,0.79-1.69,1.62h-0.07c-0.01-0.99,0.06-2.35,0.35-2.96
				c-0.49,0.62-0.66,1.75-0.7,2.26c-0.05-0.51-0.21-1.64-0.7-2.26c0.28,0.61,0.36,1.97,0.35,2.96h-0.07
				c-0.35-0.82-1.09-1.52-1.69-1.62c1.12,0.95,1.51,2.24,1.62,2.7l0,0.04c-0.46-0.58-1.33-0.77-1.62-0.66
				c0.85,0.5,1.28,0.89,1.61,1.3l-0.01,0.73c-0.12,0.01-0.24,0.03-0.37,0.05c0.11,0.09,0.23,0.19,0.36,0.29l0,0.32
				c-0.91-0.96-2.36-1.85-3.74-1.7v0.31c0.44,0.35,0.95,0.74,1.46,1.15c-0.51-0.02-1,0.03-1.46,0.16v1.41
				c0.19-0.16,0.39-0.31,0.59-0.45c0.55,0.55,0.75,1.23,0.79,1.45c-0.11-0.15-0.27-0.25-0.43-0.31c-0.19-0.12-0.38-0.21-0.56-0.24
				c0.06,0.05,0.1,0.1,0.16,0.15c-0.04,0-0.08,0.01-0.11,0.02c0.14,0.08,0.25,0.16,0.36,0.23c0.26,0.28,0.46,0.57,0.63,0.85
				c-0.1,0.06-0.19,0.13-0.28,0.19c-0.28-0.32-0.67-0.61-1.14-0.72v0.58c0.18,0.21,0.36,0.44,0.54,0.67
				c-0.04,0.04-0.08,0.08-0.12,0.12c-0.01,0-0.02,0-0.03,0.01c0.01,0,0.01,0.01,0.02,0.01c-0.16,0.18-0.3,0.35-0.4,0.52V84.2v4.76
				h107.57V84.2V71.71c-0.01,0.04-0.03,0.08-0.04,0.12c0,0-0.3,0.78-0.36,1.58l-0.02-2.57c0.09-0.24,0.24-0.51,0.41-0.81v-1.59
				c-0.25,0.25-0.45,0.54-0.58,0.8l-0.04-0.96c0.16-0.24,0.32-0.46,0.61-0.7v-0.34c-0.16,0.08-0.31,0.19-0.42,0.33
				c0.03-0.17,0.15-0.6,0.42-1.06L229.22,66.1L229.22,66.1z M228.47,68.49L228.47,68.49L228.47,68.49v1.34v0V68.49z M226.49,68.36
				c0.66,0.75,1.37,1.79,1.64,2.48l-0.01,1.37c-0.02,0-0.04,0-0.07,0.01c-0.37-0.68-0.97-1.25-1.71-1.57
				c0.25-0.21,0.54-0.42,0.9-0.66c-0.26-0.11-0.95,0.03-1.47,0.48c-0.07-0.02-0.15-0.03-0.23-0.04
				C225.68,69.92,225.96,69.13,226.49,68.36z M228.05,80.63l0,0.06c-0.02,0.01-0.05,0.03-0.07,0.04l0-0.19
				C228,80.57,228.03,80.6,228.05,80.63z M226.09,80.15c-0.13-0.13-0.26-0.24-0.41-0.33c0.17-0.12,0.34-0.26,0.51-0.4
				C226.01,79.57,226.03,79.85,226.09,80.15z M225.54,82.61c0.07,0.05,0.16,0.1,0.24,0.16c-0.07,0.1-0.14,0.21-0.21,0.32
				c-0.04,0-0.08-0.01-0.11-0.01l0-0.52C225.48,82.57,225.51,82.59,225.54,82.61z M225.41,77.66l0-0.08
				c0.05,0.02,0.1,0.05,0.15,0.07C225.51,77.65,225.46,77.65,225.41,77.66z M225.99,75.16c0.21-0.21,0.44-0.43,0.68-0.64
				c0.01,0.18,0.04,0.38,0.07,0.56c0.06,0.36,0.14,0.74,0.18,0.93c-0.05-0.03-0.09-0.05-0.14-0.07
				C226.6,75.72,226.28,75.38,225.99,75.16z M226.22,79.38c0.2-0.17,0.39-0.36,0.56-0.55c0.01,0,0.01,0,0.02,0
				c0.09,0.01,0.17,0.02,0.24,0.04l-0.01,0.8c-0.19-0.24-0.43-0.44-0.68-0.36C226.31,79.33,226.26,79.36,226.22,79.38z M226.23,81.4
				c-0.01,0-0.01,0-0.02,0c0,0-0.01,0-0.01-0.01C226.22,81.39,226.23,81.39,226.23,81.4z M225.85,71.38
				c-0.07-0.01-0.15-0.02-0.22-0.03c0.02-0.03,0.05-0.06,0.07-0.08C225.75,71.31,225.8,71.35,225.85,71.38z M226.07,73.46
				c0.01,0.01,0.02,0.01,0.03,0.02c-0.06,0.09-0.1,0.17-0.14,0.24c-0.27,0.23-0.51,0.47-0.7,0.72c0,0-0.01,0-0.01,0l-0.03-0.9
				C225.45,73.49,225.73,73.46,226.07,73.46z M224.94,73.62L224.94,73.62v0.91l0,0V73.62z M224.54,68.6
				c0.01,0.36,0.01,0.7,0.01,1.01c-0.08-0.25-0.18-0.48-0.31-0.71C224.35,68.79,224.45,68.69,224.54,68.6z M224.66,73.74l-0.01,0.32
				c-0.04-0.08-0.09-0.16-0.14-0.24C224.56,73.79,224.61,73.76,224.66,73.74z M222.99,72.39c-0.09-0.05-0.19-0.09-0.29-0.13
				l-0.01-1.07c0.1-0.25,0.26-0.54,0.46-0.85c0.58,0.43,0.94,0.8,1.22,1.17C223.91,71.67,223.45,71.95,222.99,72.39z M224,72.71
				c-0.09,0.05-0.18,0.11-0.27,0.17c-0.01,0-0.02,0-0.03,0c-0.11-0.1-0.23-0.19-0.36-0.27C223.58,72.63,223.79,72.67,224,72.71z
				 M223.51,74.62c0.09,0.13,0.18,0.26,0.26,0.39c-0.32,0.17-0.57,0.47-0.73,0.77c-0.11,0.12-0.21,0.25-0.3,0.38l-0.01-0.71
				C222.91,75.2,223.21,74.9,223.51,74.62z M223,77.24c0.11,0,0.22-0.01,0.33-0.01c-0.02,0.03-0.04,0.07-0.05,0.1
				c-0.12,0.23-0.37,0.84-0.51,1.21c0-0.04,0-0.09,0-0.13c0-0.03-0.01-0.06-0.01-0.09l-0.01-0.67
				C222.82,77.52,222.9,77.38,223,77.24z M222.88,82.02c0.06-0.04,0.12-0.08,0.18-0.11c0.01,0,0.02,0,0.03-0.01
				c-0.14,0.13-0.25,0.24-0.25,0.24S222.85,82.09,222.88,82.02z M223.38,82.62c0.22-0.13,0.49-0.22,0.77-0.27
				c0.11,0.17,0.21,0.33,0.27,0.45l0,0.41c-0.2,0.09-0.39,0.23-0.58,0.4c-0.2-0.36-0.47-0.7-0.8-0.71
				C223.16,82.78,223.28,82.68,223.38,82.62z M223.99,78.6c0,0,0.16-0.44,0.28-0.91c0.03-0.12,0.06-0.25,0.09-0.38
				c0.04,0.01,0.08,0.01,0.12,0.02l-0.01,0.83C224.19,78.37,223.99,78.6,223.99,78.6z M224.41,70.79c-0.28-0.39-0.69-0.63-1.07-0.75
				c0.18-0.26,0.37-0.52,0.57-0.76C224.22,69.94,224.36,70.53,224.41,70.79z M222.9,67.74c0.09,0.1,0.18,0.2,0.26,0.3
				c-0.17,0.06-0.35,0.17-0.47,0.33C222.7,68.26,222.77,68.02,222.9,67.74z M223.28,68.21c0.12,0.16,0.23,0.33,0.33,0.5
				c-0.5,0.27-0.87,0.72-1.06,1.11l-0.03-0.83C222.69,68.72,222.88,68.49,223.28,68.21z M222.4,69.17L222.4,69.17L222.4,69.17v1.15
				v0V69.17z M222.28,69.08l-0.03,0.74c-0.07-0.14-0.16-0.29-0.28-0.44C222.08,69.27,222.18,69.17,222.28,69.08z M221.41,69.98
				c0.3,0.43,0.56,0.87,0.69,1.21l-0.01,0.9c-0.09-0.01-0.17-0.03-0.26-0.03c-0.32-0.44-0.75-0.81-1.26-1.03
				C220.85,70.66,221.13,70.3,221.41,69.98z M216.38,80.54c-0.26,0.25-0.48,0.5-0.62,0.65c-0.01-0.01-0.02-0.02-0.03-0.02l0-0.3
				c0.06-0.29,0.14-0.67,0.2-1.04c0.04-0.24,0.09-0.51,0.1-0.75c0.12,0.09,0.2,0.18,0.23,0.27c-0.01-0.12-0.04-0.27-0.1-0.43
				c0.07-0.08,0.13-0.16,0.2-0.24c0.28,0.38,0.57,0.78,0.82,1.18c-0.25,0.17-0.52,0.41-0.76,0.65c-0.03-0.09-0.07-0.18-0.11-0.26
				C216.34,80.32,216.36,80.42,216.38,80.54z M217.41,82.2c0.2-0.14,0.4-0.28,0.6-0.4L218,82.84c-0.11,0.07-0.21,0.14-0.31,0.23
				c-0.15-0.17-0.29-0.33-0.44-0.48C217.3,82.45,217.35,82.32,217.41,82.2z M217.38,77.66c0.04-0.03,0.07-0.06,0.1-0.08
				c0.19-0.14,0.38-0.28,0.57-0.4l-0.01,1.43C217.84,78.28,217.62,77.96,217.38,77.66z M219.56,79.4c-0.01,0.02-0.02,0.04-0.03,0.06
				c-0.09-0.02-0.18-0.03-0.28-0.04c0.12-0.08,0.27-0.17,0.42-0.27C219.64,79.23,219.59,79.32,219.56,79.4z M219.31,78.12
				C219.31,78.12,219.3,78.12,219.31,78.12C219.3,78.12,219.31,78.12,219.31,78.12c-0.07,0.07-0.13,0.15-0.19,0.22l0-0.23l0,0.01
				c0.15-0.32,0.48-0.8,0.92-1.34c0.21,0.04,0.41,0.09,0.56,0.15C220.27,77.15,219.8,77.56,219.31,78.12z M220.67,76.73
				c0.03,0.03,0.06,0.06,0.09,0.08c-0.01,0.01-0.03,0.02-0.05,0.03C220.7,76.81,220.69,76.77,220.67,76.73z M221.12,77.87
				c0,0,0.01,0.05,0.03,0.13c-0.07,0-0.13,0.02-0.18,0.05C221.03,77.99,221.08,77.93,221.12,77.87z M221.03,75.66
				c0.01-0.01,0.03-0.03,0.04-0.04c0.02,0.07,0.03,0.11,0.03,0.11S221.07,75.7,221.03,75.66z M220.96,73.66
				c0.19-0.18,0.4-0.37,0.62-0.55c0.04,0.05,0.08,0.1,0.12,0.15C221.44,73.38,221.2,73.51,220.96,73.66z M222.04,79.95l0,0.18
				c-0.05,0.05-0.11,0.09-0.16,0.14c-0.03-0.07-0.06-0.15-0.09-0.23l0-0.32C221.87,79.79,221.95,79.87,222.04,79.95z M221.91,74.81
				c0.06-0.05,0.11-0.1,0.17-0.15l-0.01,0.65C222.02,75.14,221.96,74.96,221.91,74.81z M220.13,71.66c0.4,0.32,0.77,0.67,1.08,1.02
				c-0.58,0.35-1.02,0.92-1.02,1.22l0.09,0.3c-0.16,0.15-0.32,0.31-0.46,0.48c-0.23-0.08-0.48-0.1-0.72-0.08l-0.01-1.06
				C219.29,73,219.68,72.33,220.13,71.66z M218.43,71.12L218.43,71.12v0.93l0,0V71.12z M218.15,71.79l0,0.12
				c-0.02-0.02-0.04-0.05-0.05-0.07C218.11,71.82,218.13,71.81,218.15,71.79z M218.08,73.62L218.07,75
				c-0.23,0.22-0.39,0.5-0.47,0.74c-0.42,0.29-0.94,0.88-1.07,1.02c-0.01-0.01-0.01-0.01-0.02-0.01c0.03-0.14,0.13-0.59,0.2-1.02
				c0.08-0.47,0.21-1.03-0.26-1.13c-0.35-0.07-0.62,0.37-0.78,0.71l0-0.33c0.42-0.75,1.04-1.64,1.65-2.34
				C217.65,72.97,217.92,73.3,218.08,73.62z M216.7,72.02c-0.41,0.22-0.76,0.52-1.04,0.84l-0.02-1.73
				C216,71.42,216.36,71.72,216.7,72.02z M184.01,75.09c-0.09-0.05-0.18-0.11-0.27-0.15c0.14-0.1,0.29-0.19,0.44-0.28
				c-0.1,0.16-0.17,0.31-0.17,0.42L184.01,75.09z M181.42,77.07l0,0.49c-0.07-0.13-0.15-0.25-0.22-0.38
				c0.07-0.08,0.14-0.15,0.21-0.23c-0.02,0.05-0.03,0.1-0.03,0.14C181.38,77.08,181.4,77.07,181.42,77.07z M180.23,75.94
				c-0.2-0.21-0.41-0.39-0.62-0.54l-0.01-0.73c0.29-0.74,0.92-1.74,1.61-2.66c0.09,0.18,0.17,0.36,0.24,0.52l-0.02,2.3
				C180.98,75.13,180.57,75.51,180.23,75.94z M180.98,79.36c-0.23,0.09-0.43,0.33-0.59,0.59c-0.23-0.22-0.48-0.42-0.74-0.62l0-0.09
				l0,0.01c0.09-0.2,0.25-0.46,0.46-0.75C180.42,78.78,180.72,79.08,180.98,79.36z M183.34,77.06c-0.17,0.24-0.31,0.52-0.41,0.74
				c-0.11,0.25-0.28,0.76-0.43,1.26l-0.02-2.22c0.06,0,0.12,0,0.18,0C182.88,76.85,183.1,76.94,183.34,77.06z M182.96,75.77
				c0.04-0.05,0.08-0.11,0.12-0.16c0.07,0.06,0.14,0.11,0.21,0.17C183.18,75.77,183.07,75.77,182.96,75.77z M185.9,75.03
				L185.9,75.03l0,0.63c-0.07,0.09-0.13,0.18-0.19,0.27c-0.02-0.06-0.04-0.12-0.06-0.16c-0.13-0.29-0.38-0.77-0.7-0.7
				c-0.01,0-0.01,0.01-0.02,0.01c-0.06-0.07-0.14-0.13-0.25-0.12c-0.01,0-0.02,0-0.03,0.01c0.22-0.23,0.48-0.46,0.75-0.68
				C185.64,74.59,185.82,74.86,185.9,75.03z M185.5,73.04c0.14-0.12,0.28-0.23,0.42-0.35l-0.01,0.86c-0.02,0-0.04,0-0.06,0.01
				C185.76,73.37,185.64,73.2,185.5,73.04z M184.74,74.06c-0.1-0.01-0.2-0.03-0.3-0.03c0.13-0.13,0.25-0.26,0.39-0.38
				c0.07,0.07,0.14,0.14,0.2,0.21C184.93,73.92,184.83,73.98,184.74,74.06z M184.48,75.16c0.02,0.01,0.03,0.02,0.04,0.04
				c0.01,0.03,0.03,0.07,0.05,0.08c0.06,0.02,0.08-0.02,0.15-0.04c-0.05,0.09-0.06,0.21-0.06,0.33c-0.1-0.09-0.2-0.17-0.31-0.25
				C184.4,75.27,184.44,75.22,184.48,75.16z M184.58,78c-0.01,0.01-0.02,0.01-0.03,0.02c0-0.02,0.01-0.03,0.01-0.05
				C184.56,77.98,184.57,77.99,184.58,78z M187.25,77.79c0.13-0.17,0.25-0.34,0.37-0.49c0.02-0.03,0.05-0.06,0.08-0.09l-0.01,0.6
				C187.55,77.79,187.4,77.79,187.25,77.79z M187.67,81.21l-0.01,0.57c-0.04,0.03-0.08,0.06-0.11,0.08c-0.1,0.08-0.2,0.2-0.29,0.36
				c-0.05-0.1-0.1-0.21-0.17-0.31C187.27,81.66,187.47,81.42,187.67,81.21z M187.39,75.75c0.07-0.06,0.14-0.12,0.2-0.18
				c0.06,0.18,0.1,0.33,0.12,0.44l0,0.04C187.62,75.93,187.51,75.83,187.39,75.75z M187.46,76.41c-0.35,0.28-0.66,0.6-0.91,0.94
				l-0.01-0.71c0.13-0.18,0.32-0.39,0.52-0.59C187.21,76.17,187.34,76.29,187.46,76.41z M187.04,82.61
				c-0.08,0.16-0.14,0.34-0.21,0.52c-0.06,0.05-0.1,0.09-0.13,0.13c-0.01-0.01-0.02-0.02-0.03-0.03c0.04-0.12,0.12-0.36,0.18-0.61
				c0.01-0.02,0.01-0.05,0.02-0.07C186.93,82.58,186.99,82.6,187.04,82.61z M186.92,74.69c-0.14,0.1-0.27,0.2-0.39,0.31l-0.01-1.29
				c0.23,0.25,0.42,0.51,0.57,0.77C187.03,74.55,186.98,74.62,186.92,74.69z M188.57,74.88c0.04-0.02,0.08-0.03,0.12-0.05
				c-0.01,0.03-0.03,0.06-0.05,0.1h-0.07C188.57,74.91,188.57,74.89,188.57,74.88z M189.26,75.61c0.01-0.01,0.01-0.02,0.02-0.03
				c-0.17,0.03-0.33,0.07-0.49,0.12c0.08-0.27,0.22-0.63,0.43-1.02c0.07-0.01,0.14-0.02,0.21-0.03l-0.01,0.87
				C189.37,75.55,189.31,75.58,189.26,75.61z M189.42,76l0,0.33c-0.09-0.04-0.17-0.07-0.26-0.11
				C189.23,76.15,189.32,76.08,189.42,76z M189.4,77.66l-0.01,0.82c-0.19-0.18-0.4-0.33-0.63-0.42c-0.01,0-0.02-0.01-0.03-0.01
				l-0.01-1.02C188.95,77.26,189.18,77.47,189.4,77.66z M189.26,80.12c-0.02,0.05-0.05,0.1-0.07,0.15
				c-0.09,0.21-0.23,0.63-0.36,1.05c-0.02,0-0.05,0.01-0.07,0.01l-0.01-1.03C188.91,80.23,189.08,80.17,189.26,80.12z M190.82,80.35
				c0.02-0.1,0.03-0.2,0.04-0.3c0.11,0.02,0.21,0.05,0.3,0.08L190.82,80.35z M192.22,78.53c0.04-0.03,0.07-0.06,0.1-0.08
				c0.19-0.14,0.38-0.28,0.57-0.4l-0.01,0.99l-0.21,0.13C192.53,78.95,192.38,78.74,192.22,78.53z M194.28,78.47
				c0,0-0.05,0.25-0.09,0.51c-0.02,0-0.03,0-0.05,0.01c0.01,0.01,0.03,0.01,0.04,0.02c-0.01,0.07-0.02,0.13-0.03,0.2l-0.19-0.19
				l0-0.04l0,0.01c0.15-0.32,0.47-0.8,0.92-1.34c0.04,0.01,0.08,0.02,0.13,0.03C194.77,77.9,194.53,78.17,194.28,78.47z
				 M194.93,79.37c-0.06,0.06-0.11,0.13-0.16,0.2c0,0-0.01-0.01-0.01-0.01c-0.1-0.04-0.21-0.08-0.31-0.1
				c0.09-0.05,0.19-0.12,0.3-0.19C194.81,79.31,194.87,79.34,194.93,79.37z M194.09,76.35c-0.05-0.01-0.1-0.02-0.15-0.03l-0.01-0.66
				c0.07,0,0.13,0,0.19,0c0.12,0,0.24,0.04,0.37,0.08C194.35,75.94,194.21,76.14,194.09,76.35z M196.4,77.87
				c0,0,0.13,0.56,0.36,0.97c0.09,0.15,0.19,0.31,0.31,0.47c-0.13-0.06-0.26-0.12-0.4-0.17c-0.17-0.31-0.47-0.75-0.81-0.65
				c-0.05,0.01-0.09,0.04-0.12,0.06C195.98,78.35,196.21,78.12,196.4,77.87z M196.13,73.79c-0.01,0-0.02,0-0.03,0.01
				c0.15-0.15,0.31-0.31,0.49-0.46c0.18,0.18,0.36,0.37,0.55,0.59c-0.13,0.04-0.25,0.08-0.38,0.13c-0.11-0.11-0.23-0.18-0.37-0.15
				c-0.01,0-0.01,0.01-0.02,0.01C196.32,73.83,196.24,73.78,196.13,73.79z M195.38,77.32c-0.03-0.05-0.06-0.1-0.09-0.16
				c0.16-0.18,0.34-0.37,0.52-0.56c0.07,0.07,0.15,0.14,0.23,0.22C195.87,76.91,195.64,77.08,195.38,77.32z M195.71,78.58
				c-0.09,0.08-0.13,0.19-0.13,0.33c-0.09-0.01-0.18-0.02-0.27-0.02C195.45,78.79,195.58,78.69,195.71,78.58z M197.32,75.22
				c0.01-0.01,0.02-0.02,0.03-0.03l0,0.13C197.34,75.28,197.33,75.25,197.32,75.22z M199.3,79.84l0,0.45
				c-0.12-0.02-0.25-0.02-0.38-0.03C199.04,80.11,199.17,79.97,199.3,79.84z M199.26,78.6c0,0,0.02-0.05,0.04-0.13l0,0.08
				C199.28,78.58,199.26,78.6,199.26,78.6z M198.72,76.59c0.06-0.08,0.11-0.15,0.17-0.23c0.03,0.05,0.06,0.1,0.09,0.15
				C198.89,76.54,198.81,76.56,198.72,76.59z M197.98,73.14l-0.02-1.94c0.6,0.43,0.96,0.81,1.24,1.19
				C198.8,72.53,198.39,72.77,197.98,73.14z M198,76.17L198,75.46c0.05-0.07,0.11-0.14,0.18-0.22c0.09,0.13,0.18,0.27,0.27,0.4
				C198.28,75.81,198.14,75.99,198,76.17z M198.21,78.11c-0.06,0.16-0.12,0.31-0.17,0.44c0-0.04,0-0.09,0-0.13
				c0-0.03-0.01-0.06-0.01-0.09l0-0.22C198.08,78.11,198.15,78.11,198.21,78.11z M198.19,73.48c0.07,0.01,0.13,0.02,0.2,0.03
				c-0.02,0.03-0.04,0.05-0.06,0.08C198.28,73.55,198.24,73.51,198.19,73.48z M199.78,75.48v0.11l0,0V75.48L199.78,75.48z
				 M199.78,74.7v-0.84v-0.04l0,0v0.04V74.7L199.78,74.7z M200.26,79.1c0.23-0.1,0.49-0.17,0.75-0.22c0.23,0.16,0.54,0.4,0.88,0.69
				l0,0.47c-0.07,0.08-0.13,0.18-0.18,0.27c-0.33-0.02-0.65,0.25-0.9,0.58c-0.16-0.15-0.34-0.27-0.54-0.35L200.26,79.1z
				 M203.13,81.31c0.02,0.03,0.03,0.06,0.05,0.09c-0.12,0.06-0.24,0.13-0.36,0.2l-0.01-1.09c0.02-0.02,0.03-0.04,0.05-0.07
				c0.12,0.12,0.24,0.23,0.35,0.35c-0.19,0.08-0.24,0.19-0.26,0.29C202.91,81.21,203.09,81.24,203.13,81.31z M205.72,75.71
				c-0.17-0.2-0.34-0.38-0.52-0.55c0.03-0.03,0.06-0.07,0.09-0.1c0.17-0.02,0.33-0.02,0.48-0.02c0.17,0.01,0.35,0.06,0.54,0.14
				C206.1,75.35,205.9,75.53,205.72,75.71z M205.91,78.54c-0.04,0.21-0.1,0.53-0.13,0.78c-0.02,0.03-0.04,0.06-0.06,0.09
				c-0.04,0-0.09,0-0.13,0c-0.11-0.1-0.21-0.2-0.33-0.3c0.16-0.22,0.34-0.45,0.54-0.69C205.84,78.47,205.88,78.51,205.91,78.54z
				 M208.59,70.17c0.21-0.31,0.43-0.62,0.66-0.92c0.12,0.22,0.23,0.43,0.3,0.61l-0.01,1.37c-0.02,0-0.05,0-0.07,0.01
				C209.26,70.83,208.96,70.47,208.59,70.17z M209.47,79.84l0,0.22c-0.02,0-0.03,0-0.05,0C209.44,80,209.46,79.92,209.47,79.84z
				 M208.95,72.09c0.19,0.24,0.34,0.45,0.45,0.63c-0.2,0.14-0.39,0.29-0.57,0.45c-0.12-0.12-0.26-0.2-0.41-0.16
				c-0.01,0-0.01,0.01-0.02,0.01c-0.07-0.09-0.16-0.15-0.29-0.14c-0.01,0-0.02,0-0.03,0.01C208.32,72.61,208.63,72.34,208.95,72.09z
				 M208.44,77.74c-0.1,0.15-0.18,0.31-0.25,0.46l0-0.3c0.08-0.09,0.16-0.18,0.23-0.27C208.41,77.62,208.42,77.66,208.44,77.74z
				 M208.14,73.93c-0.14,0.18-0.26,0.37-0.37,0.56c-0.04-0.04-0.09-0.08-0.13-0.12l-0.01-0.89c0.06-0.12,0.14-0.25,0.25-0.38
				c0.02,0.01,0.04,0.03,0.04,0.04c0.02,0.04,0.03,0.08,0.06,0.09c0.07,0.03,0.09-0.02,0.18-0.04
				C208.06,73.37,208.09,73.65,208.14,73.93z M207.62,72.37l0-0.44c0.1-0.26,0.25-0.55,0.42-0.85c0.17,0.17,0.33,0.33,0.48,0.5
				C208.15,71.8,207.83,72.09,207.62,72.37z M212.63,74.94c-0.05-0.08-0.11-0.15-0.17-0.22c0.17-0.15,0.34-0.32,0.51-0.51
				c0.01,0.18,0.02,0.37,0.03,0.56C212.88,74.82,212.76,74.87,212.63,74.94z M212.87,76.59l0,0.04c-0.11-0.13-0.24-0.25-0.37-0.34
				c0.02-0.01,0.04-0.04,0.06-0.08c0.06-0.05,0.11-0.1,0.17-0.14C212.8,76.29,212.85,76.47,212.87,76.59z M212.87,77.28l0,0.25
				c-0.54,0.29-1.13,0.93-1.13,0.93s0.18-0.51,0.32-1.06c0.06-0.26,0.15-0.55,0.14-0.79C212.48,76.84,212.69,77.06,212.87,77.28z
				 M211.29,75.97c-0.01,0-0.02,0-0.03,0.01c0.01,0,0.01,0.01,0.02,0.01c-0.22,0.24-0.4,0.49-0.51,0.71
				c-0.01-0.02-0.02-0.03-0.03-0.05c0.26-0.38,0.54-0.75,0.78-1.07c0.15-0.19,0.39-0.39,0.66-0.62c0.04,0.06,0.07,0.11,0.11,0.17
				C211.91,75.38,211.57,75.67,211.29,75.97z M214.45,76.69c0.04,0.04,0.08,0.07,0.12,0.11l-0.01,0.7
				c-0.23-0.06-0.46-0.11-0.69-0.13l0-0.09C214.03,77.08,214.21,76.89,214.45,76.69z M214.33,75.36c0.08-0.15,0.16-0.3,0.26-0.45
				l-0.01,0.56C214.5,75.43,214.42,75.39,214.33,75.36z M214.56,78.72l0,0.26c-0.01,0.02-0.02,0.04-0.03,0.05
				c-0.13-0.11-0.26-0.21-0.41-0.29C214.27,78.73,214.41,78.72,214.56,78.72z M214.05,80.26c-0.02,0.06-0.04,0.12-0.06,0.19
				c-0.03,0-0.06,0.01-0.08,0.01l0-0.21C213.95,80.25,214,80.26,214.05,80.26z M213.87,76.63l0-0.04c0.02-0.09,0.05-0.21,0.1-0.35
				c0.05,0.05,0.1,0.1,0.15,0.15C214.03,76.46,213.94,76.54,213.87,76.63z M213.94,75.21c-0.03-0.01-0.07-0.02-0.1-0.03
				c0.08-0.06,0.15-0.12,0.22-0.17C214.02,75.07,213.98,75.14,213.94,75.21z M214.6,74.02l0,0.36c-0.07,0.06-0.13,0.13-0.2,0.19
				c-0.22-0.03-0.44-0.03-0.66,0c0.02-0.47,0.06-0.95,0.14-1.35C214.15,73.49,214.4,73.76,214.6,74.02z M213.18,72.58
				c0.2,0.17,0.39,0.35,0.57,0.52c-0.22,0.53-0.32,1.14-0.37,1.54c-0.01,0-0.02,0.01-0.03,0.01c-0.02-0.21-0.06-0.47-0.12-0.75
				c0.07-0.1,0.14-0.2,0.21-0.31c-0.09,0.02-0.18,0.04-0.27,0.06c-0.09-0.34-0.22-0.67-0.39-0.95
				C212.9,72.65,213.03,72.61,213.18,72.58z M212.28,72.95c0.13-0.09,0.28-0.17,0.45-0.23c0.09,0.26,0.15,0.61,0.2,1
				c-0.38,0.11-0.73,0.27-1.05,0.46c-0.21-0.15-0.43-0.25-0.62-0.28c0.15,0.13,0.29,0.27,0.42,0.41c-0.56,0.37-1.03,0.83-1.4,1.34
				l-0.01-0.82C210.75,74.15,211.87,73.22,212.28,72.95z M210.07,68.25c0,0,0,0.01-0.01,0.01L210.07,68.25
				C210.07,68.25,210.07,68.25,210.07,68.25z M209.89,68.45L209.89,68.45v0.4v0V68.45z M209.75,67.3l0,0.13
				c-0.16,0.05-0.31,0.12-0.46,0.19c-0.23-0.26-0.52-0.5-0.85-0.67c0.18-0.13,0.38-0.27,0.62-0.42
				C209.4,66.8,209.58,67.03,209.75,67.3z M208.66,64.91c0.63,0.64,0.85,1.42,0.9,1.67c-0.31-0.4-0.9-0.53-1.1-0.45
				c0.16,0.1,0.3,0.19,0.42,0.27c-0.27,0.03-0.63,0.15-0.93,0.36c-0.08-0.02-0.17-0.04-0.26-0.04
				C207.83,66.27,208.12,65.57,208.66,64.91z M207.61,67.05c0.01,0.01,0.01,0.01,0.02,0.02c-0.01,0.01-0.02,0.02-0.03,0.03
				C207.6,67.09,207.61,67.07,207.61,67.05z M207.92,67.39c0.2,0.23,0.4,0.48,0.59,0.74c-0.5,0.42-0.89,0.94-1.12,1.41
				c-0.01,0-0.02,0-0.02-0.01l-0.05-1.38C207.49,67.88,207.67,67.64,207.92,67.39z M207.11,68.47L207.11,68.47L207.11,68.47v1l0,0
				V68.47z M206.61,71.5l-0.02,2.33c-0.44-0.07-0.9,0-1.3,0.16c-0.07,0.03-0.14,0.06-0.21,0.11
				C205.31,73.39,205.75,72.35,206.61,71.5z M205.02,80.85c0.02,0.02,0.04,0.05,0.05,0.07c-0.04,0.12-0.08,0.24-0.11,0.36l0-0.43
				C204.98,80.86,205,80.86,205.02,80.85z M204.6,71.23c-0.11,0.5-0.17,0.97-0.19,1.27c-0.02-0.3-0.08-0.77-0.19-1.26
				C204.34,71.24,204.46,71.23,204.6,71.23z M203.93,71.27c0.04,0.46,0.07,0.96,0.08,1.43h-0.1l0,0.57
				c-0.28-0.67-0.75-1.26-1.23-1.59C203,71.49,203.39,71.35,203.93,71.27z M203.78,74.32c-0.03-0.01-0.07-0.02-0.1-0.03
				c-0.09-0.15-0.18-0.3-0.28-0.43c0.06-0.05,0.13-0.1,0.19-0.15C203.67,73.94,203.74,74.15,203.78,74.32z M202.48,71.81
				c0.53,0.62,0.88,1.3,1.09,1.87c-0.11-0.02-0.23-0.04-0.34-0.04c-0.37-0.47-0.77-0.81-1.18-0.98c-0.14-0.06-0.29-0.11-0.43-0.16
				C201.96,72.2,202.27,71.95,202.48,71.81z M202.55,76.06c0.51,0.67,1.05,1.46,1.32,2.08l0,0.03c-0.34-0.18-0.71-0.33-1.09-0.46
				c-0.59-0.63-1.22-1.04-1.81-1.16c-0.18-0.04-0.35-0.06-0.53-0.08c0.16-0.2,0.35-0.41,0.57-0.61
				C201.63,75.86,202.13,75.94,202.55,76.06z M200.17,73.96c0.34,0.14,0.63,0.29,0.86,0.46c-0.12,0.09-0.24,0.18-0.34,0.28
				c-0.21,0.14-0.41,0.32-0.61,0.53l0-0.02c0.23-0.22,0.46-0.48,0.65-0.8c-0.24,0.04-0.46,0.11-0.67,0.19l-0.02-0.43
				C200.08,74.09,200.12,74.03,200.17,73.96z M199.9,68.53c-0.06,0.36-0.1,0.69-0.12,0.91c-0.02-0.19-0.04-0.44-0.09-0.72
				C199.76,68.65,199.83,68.59,199.9,68.53z M199.49,74.84c-0.01,0.01-0.03,0.02-0.04,0.02c-0.1-0.17-0.21-0.35-0.35-0.52
				c0.15-0.13,0.3-0.25,0.42-0.34L199.49,74.84z M199.37,69.06c0.02,0.5,0.03,1,0.02,1.42c-0.1-0.32-0.25-0.64-0.44-0.92
				C199.09,69.39,199.23,69.22,199.37,69.06z M198.66,69.97c0.37,0.74,0.53,1.41,0.59,1.69c-0.3-0.42-0.76-0.67-1.15-0.78
				C198.25,70.6,198.44,70.28,198.66,69.97z M197.91,68.81c0.11,0.14,0.22,0.27,0.31,0.41c-0.17,0.19-0.31,0.4-0.4,0.59l-0.03-0.83
				C197.83,68.93,197.87,68.87,197.91,68.81z M197.67,69.17L197.67,69.17L197.67,69.17v1.15v0V69.17z M196.85,70.21
				c0.23,0.35,0.43,0.7,0.54,0.98l-0.01,1.18c-0.02,0-0.04,0-0.06,0.01c-0.29-0.52-0.73-0.97-1.28-1.26
				C196.31,70.78,196.58,70.47,196.85,70.21z M195.53,71.76c0.35,0.29,0.68,0.61,0.96,0.92c-0.58,0.35-1.02,0.92-1.02,1.22
				l0.18,0.62c0.03-0.17,0.14-0.35,0.29-0.54c0.02,0.01,0.03,0.02,0.04,0.04c0.01,0.03,0.03,0.07,0.05,0.08
				c0.06,0.02,0.08-0.02,0.15-0.04c-0.04,0.08-0.06,0.18-0.06,0.28c-0.25,0.14-0.5,0.3-0.72,0.48c-0.02-0.01-0.05-0.03-0.07-0.04
				c-0.43-0.24-0.96-0.23-1.41-0.1l0-0.27C194.21,73.67,194.84,72.67,195.53,71.76z M193.27,71.99L193.27,71.99v0.93l0,0V71.99z
				 M192.94,71.25c0.03,0.06,0.07,0.13,0.1,0.19l-0.05,1.34c-0.2-0.27-0.46-0.54-0.76-0.8C192.48,71.7,192.72,71.45,192.94,71.25z
				 M192.92,74.49l-0.01,1.14c-0.04,0.1-0.07,0.2-0.08,0.28c0.02-0.02,0.05-0.03,0.08-0.04l0,0.52c-0.11,0.04-0.22,0.08-0.33,0.13
				c-0.44,0.24-1.07,0.95-1.21,1.11c-0.01-0.01-0.01-0.01-0.02-0.01c0.03-0.14,0.13-0.59,0.2-1.02c0.08-0.47,0.21-1.03-0.26-1.13
				c-0.34-0.07-0.61,0.35-0.77,0.69l-0.01-1.47c0.03,0,0.06,0,0.1,0.01c-0.03-0.05-0.06-0.1-0.1-0.14l0-0.15
				c0.26-0.48,0.61-1.01,0.99-1.52C192.13,73.42,192.66,73.98,192.92,74.49z M190.63,72.14c-0.05,0.05-0.09,0.1-0.13,0.15l0-0.26
				C190.54,72.06,190.59,72.1,190.63,72.14z M188.72,72.64c0.27,0.27,0.52,0.54,0.72,0.8l0,0.3c-0.27-0.07-0.55-0.09-0.84-0.06
				C188.62,73.31,188.66,72.95,188.72,72.64z M187.13,71.26c0.01,0.01,0.03,0.02,0.04,0.03c-0.02,0-0.04,0-0.06,0
				C187.12,71.28,187.13,71.27,187.13,71.26z M186.57,72.22c0.33-0.22,0.67-0.43,1.01-0.59c0.35,0.29,0.7,0.59,1.01,0.9
				c-0.17,0.4-0.26,0.84-0.32,1.21c-0.02,0-0.04,0.01-0.06,0.01c-0.02,0-0.04,0.01-0.06,0.02c-0.09-0.56-0.27-1.32-0.64-1.8
				c0.19,0.41,0.29,1.17,0.33,1.92c-0.16,0.08-0.31,0.19-0.47,0.33c-0.25-0.33-0.55-0.59-0.85-0.75l-0.01-1.09
				C186.53,72.32,186.55,72.27,186.57,72.22z M186.5,70.75c-0.05,0.08-0.1,0.16-0.14,0.24l-0.01-0.36
				C186.4,70.68,186.45,70.72,186.5,70.75z M186.22,70.53L186.22,70.53v0.81l0,0V70.53z M185.36,68.35
				c0.39,0.49,0.53,1.02,0.57,1.21c-0.27-0.34-0.78-0.45-0.95-0.39c0.42,0.25,0.66,0.45,0.84,0.65c-0.15,0.01-0.29,0.03-0.44,0.06
				c0.21,0.17,0.45,0.36,0.7,0.55l-0.02,0.56c-0.28-0.58-0.95-1.29-1.85-1.33C184.6,69.17,185,68.72,185.36,68.35z M184.1,69.81
				c0.44,0.41,0.97,1.08,1.37,1.71c-0.45,0.15-0.87,0.36-1.25,0.62c-0.47-0.16-1-0.21-1.56-0.08C183,71.38,183.53,70.57,184.1,69.81
				z M182.66,72.06c0.33,0.13,0.66,0.32,0.98,0.55c-0.49,0.45-0.89,0.99-1.18,1.56l-0.01-1.65
				C182.51,72.38,182.58,72.22,182.66,72.06z M181.95,69.05L181.95,69.05L181.95,69.05v1.05l0,0V69.05z M180.64,67.54
				c0.55,0.42,0.84,0.78,1.11,1.19l-0.05,1.43c-0.3-0.6-0.84-1.29-1.57-1.76C180.27,68.1,180.44,67.81,180.64,67.54z M179.67,69.64
				c0.13,0.17,0.26,0.34,0.38,0.51c-0.23,0.13-0.47,0.36-0.63,0.69C179.44,70.62,179.52,70.17,179.67,69.64z M179.41,69.32
				c-0.04,0.12-0.07,0.23-0.09,0.35c0-0.15,0-0.31,0-0.47C179.35,69.24,179.38,69.28,179.41,69.32z M180.25,70.43
				c0.09,0.14,0.19,0.27,0.27,0.41c-0.65,0.53-1.1,1.22-1.3,1.78l-0.02-0.53C179.44,71.52,179.69,71.03,180.25,70.43z M177.66,81.01
				c-0.09,0.07-0.19,0.15-0.29,0.23c0.08-0.26,0.12-0.44,0.12-0.44C177.54,80.87,177.6,80.94,177.66,81.01z M177.51,76.94
				c0.01-0.06,0.03-0.14,0.06-0.24c0.04,0.01,0.08,0.03,0.12,0.05C177.63,76.8,177.57,76.87,177.51,76.94z M178.57,78.31l0,0.37
				c-0.11-0.05-0.21-0.11-0.32-0.15C178.36,78.45,178.47,78.38,178.57,78.31z M178.48,74.87c0.03-0.04,0.05-0.07,0.08-0.11
				c0.01,0.03,0.03,0.05,0.04,0.08l0,0.06c-0.03-0.01-0.06-0.02-0.09-0.02C178.5,74.88,178.49,74.87,178.48,74.87z M178.96,72.25
				L178.96,72.25v0.93l0,0V72.25z M178.16,71.97c0.17-0.08,0.34-0.16,0.51-0.22c-0.08-0.02-0.16-0.03-0.24-0.05
				c0.07-0.07,0.13-0.13,0.2-0.19c0.03,0.06,0.07,0.13,0.1,0.19l-0.04,1.17c-0.18-0.25-0.41-0.5-0.67-0.74
				C178.06,72.08,178.11,72.03,178.16,71.97z M178.42,74.53c-0.11,0.08-0.21,0.18-0.31,0.28c-0.24-0.03-0.47-0.05-0.7-0.06
				c0.02-0.44,0.06-0.87,0.13-1.24C177.89,73.86,178.19,74.2,178.42,74.53z M177.17,73.17c0.08,0.08,0.16,0.15,0.24,0.23
				c-0.19,0.46-0.29,0.98-0.35,1.37c-0.02,0-0.05,0.01-0.07,0.01c-0.04-0.3-0.11-0.67-0.22-1.04
				C176.9,73.54,177.03,73.35,177.17,73.17z M176.59,74c0.03,0.26,0.05,0.54,0.06,0.82c-0.19,0.04-0.37,0.09-0.55,0.16
				c-0.02-0.02-0.03-0.04-0.05-0.05C176.2,74.64,176.38,74.32,176.59,74z M171.3,77.38l0.01,0.01c0.09-0.19,0.25-0.45,0.45-0.73
				c0.35,0.31,0.69,0.57,0.95,0.82c-0.21,0.05-0.4,0.23-0.55,0.45c-0.27-0.09-0.56-0.17-0.85-0.2L171.3,77.38z M173.08,80.51
				c0,0,0.01,0.01,0.01,0.01c0,0.01,0.01,0.01,0.01,0.02c0,0,0,0,0,0C173.09,80.53,173.08,80.52,173.08,80.51z M173.89,78.95
				l-0.01,0.76c-0.03,0.03-0.06,0.05-0.08,0.08c-0.07-0.27-0.22-0.6-0.44-0.91c0.03-0.19,0.06-0.38,0.07-0.56
				C173.58,78.53,173.74,78.74,173.89,78.95z M173.64,76c0.09-0.12,0.19-0.25,0.29-0.38c0.22,0.22,0.44,0.44,0.62,0.65
				c-0.02,0.03-0.04,0.06-0.06,0.09c-0.22-0.08-0.45-0.14-0.69-0.2C173.75,76.11,173.7,76.05,173.64,76z M173.69,79.9
				c-0.01,0.01-0.03,0.03-0.04,0.04c-0.07-0.01-0.15-0.02-0.23,0c-0.12,0.02-0.2,0.05-0.27,0.08c0.02-0.09,0.04-0.18,0.06-0.28
				C173.4,79.78,173.56,79.84,173.69,79.9z M174.88,77.9c0.01-0.01,0.01-0.02,0.02-0.03l0,0.06
				C174.9,77.92,174.89,77.91,174.88,77.9z M176.14,76.57C176.14,76.57,176.14,76.57,176.14,76.57
				C176.14,76.57,176.14,76.57,176.14,76.57C176.14,76.57,176.14,76.57,176.14,76.57z M175.76,67.56c-0.01,0.03-0.03,0.05-0.04,0.08
				l0-0.03C175.73,67.6,175.75,67.58,175.76,67.56z M175.47,67.45L175.47,67.45L175.47,67.45v0.42v0V67.45z M174.47,68.35
				c0.21,0.36,0.38,0.71,0.5,1.01l-0.01,1.32c-0.25-0.01-0.51,0.01-0.76,0.07c0.22,0.18,0.48,0.38,0.75,0.6l-0.01,0.88
				c-0.47,0.08-0.91,0.23-1.31,0.44c-0.53-0.51-1.08-0.84-1.6-0.95c-0.06-0.01-0.12-0.02-0.19-0.03
				C172.56,70.49,173.63,69.12,174.47,68.35z M171.93,73.94c0.02,0.01,0.04,0.03,0.05,0.04c-0.23,0.27-0.43,0.57-0.6,0.88
				c-0.03,0-0.07-0.01-0.1-0.01l-0.01-1.24C171.52,73.7,171.74,73.81,171.93,73.94z M170.77,69.34L170.77,69.34L170.77,69.34v1.98v0
				v0V69.34z M169.93,77.34c-0.12-0.18-0.24-0.36-0.37-0.52c0.24-0.2,0.46-0.37,0.59-0.46c0.03-0.02,0.06-0.04,0.09-0.05l-0.01,0.89
				C170.13,77.24,170.03,77.29,169.93,77.34z M170.21,80.16l0,0.45c-0.14,0.11-0.26,0.23-0.36,0.32c-0.03-0.03-0.05-0.06-0.08-0.09
				c0.05-0.16,0.12-0.37,0.17-0.6c0.07-0.05,0.15-0.1,0.22-0.14C170.18,80.12,170.2,80.14,170.21,80.16z M170.25,74.89
				c-0.02,0-0.03-0.01-0.04-0.01c0.01,0.02,0.03,0.05,0.04,0.07l0,0.08c-0.05,0.01-0.11,0.02-0.16,0.03
				c-0.26,0.05-0.53,0.2-0.8,0.43l-0.02-2.23c0.37,0,0.71,0.03,1,0.07L170.25,74.89z M169.69,71.68c0.02,0.03,0.04,0.06,0.05,0.09
				c-0.06,0.02-0.12,0.04-0.18,0.07C169.6,71.79,169.65,71.73,169.69,71.68z M168.93,70.52c-0.19,0.06-0.41,0.17-0.55,0.36
				c0.03-0.13,0.1-0.41,0.27-0.74C168.74,70.26,168.83,70.39,168.93,70.52z M168.3,69.7c0.06,0.08,0.12,0.15,0.18,0.23
				c-0.08,0.12-0.14,0.25-0.19,0.38C168.29,70.13,168.3,69.92,168.3,69.7z M169.03,70.67c0.12,0.17,0.23,0.34,0.34,0.5
				c-0.54,0.26-0.93,0.74-1.13,1.15l-0.03-0.83C168.39,71.21,168.59,70.97,169.03,70.67z M152.86,78.58
				c0.01-0.18,0.02-0.36,0.04-0.53c0.08,0.11,0.15,0.22,0.22,0.33C153.03,78.44,152.95,78.5,152.86,78.58z M153.43,80.67
				c0.17-0.12,0.34-0.24,0.52-0.34l-0.01,0.71c-0.24,0-0.48,0.05-0.7,0.12c-0.03-0.04-0.07-0.08-0.1-0.11
				C153.21,80.93,153.31,80.8,153.43,80.67z M153.31,76.19c0.04-0.03,0.07-0.06,0.1-0.08c0.19-0.14,0.38-0.28,0.57-0.4l0,0.55
				c-0.11,0.03-0.22,0.06-0.33,0.1c-0.05,0.02-0.1,0.05-0.15,0.08C153.44,76.36,153.38,76.27,153.31,76.19z M156.48,74.99
				c0.1-0.09,0.21-0.18,0.31-0.26c0.24,0.3,0.42,0.56,0.5,0.74l0-0.01l-0.01,1.1c-0.04-0.01-0.08-0.01-0.13-0.02c0,0,0,0,0,0
				c-0.05-0.13-0.09-0.25-0.12-0.33c-0.13-0.29-0.38-0.77-0.7-0.7c-0.01,0-0.01,0.01-0.02,0.01c-0.06-0.07-0.14-0.13-0.25-0.12
				c-0.01,0-0.02,0-0.03,0.01c0.02-0.02,0.04-0.05,0.07-0.07c0.24,0.05,0.45,0.12,0.58,0.2C156.66,75.39,156.59,75.19,156.48,74.99z
				 M157.22,73.94c0.03-0.03,0.06-0.06,0.09-0.09l0,0.13c-0.02,0-0.04,0-0.06,0.01C157.24,73.97,157.23,73.95,157.22,73.94z
				 M156.12,75.67c-0.1,0.19-0.04,0.51,0.01,0.78c0,0.03,0.01,0.06,0.01,0.09c-0.19,0-0.38,0.02-0.58,0.05
				c-0.1-0.08-0.2-0.16-0.29-0.21c-0.02-0.01-0.04-0.02-0.06-0.03c0.08-0.14,0.19-0.29,0.3-0.45l0.07,0.22
				c0.03-0.17,0.14-0.35,0.29-0.54c0.02,0.01,0.03,0.02,0.04,0.04c0.01,0.03,0.03,0.07,0.05,0.08
				C156.03,75.73,156.04,75.69,156.12,75.67z M156.03,77.04C156.03,77.04,156.03,77.04,156.03,77.04c-0.01,0-0.01,0-0.02-0.01
				C156.01,77.03,156.02,77.03,156.03,77.04z M155.47,77.99C155.47,77.99,155.47,78,155.47,77.99c-0.14-0.02-0.27-0.04-0.41-0.06
				l0-0.23C155.2,77.79,155.34,77.89,155.47,77.99z M155.18,74.01c-0.05-0.01-0.1-0.02-0.15-0.03l-0.01-0.95
				c0.18,0.13,0.36,0.27,0.54,0.42C155.42,73.63,155.3,73.82,155.18,74.01z M157.61,71.81v-0.9l0,0V71.81L157.61,71.81z
				 M157.74,71.04c0.05,0.05,0.1,0.1,0.15,0.15c-0.05,0.08-0.1,0.16-0.13,0.23L157.74,71.04z M160.41,75.86l0,0.22
				c-0.76,0.19-1.41,0.58-1.92,1.07c-0.14-0.08-0.29-0.16-0.44-0.23c0.32-0.39,0.83-0.84,1.22-1.16
				C159.7,75.77,160.08,75.8,160.41,75.86z M160.04,71.81c0.2-0.1,0.39-0.19,0.59-0.27l-0.04,1.05
				C160.45,72.34,160.26,72.07,160.04,71.81z M159.8,77.93c-0.02-0.01-0.05-0.01-0.08-0.02c-0.08-0.01-0.16,0-0.22,0.03
				c-0.12-0.12-0.24-0.23-0.37-0.34c0.31-0.31,0.83-0.66,1.27-1.21l-0.01,1.56C160.19,77.92,160,77.92,159.8,77.93z M160.36,81.34
				l-0.01,0.85c-0.02,0-0.04,0-0.06,0l-0.29-1.37c0.01-0.01,0.02-0.01,0.04-0.02C160.17,81.01,160.29,81.19,160.36,81.34z
				 M159.61,74.17c-0.57,0.11-1.21,0.7-1.68,1.55l-0.02-2.42c0.34-0.3,0.69-0.58,1.05-0.83c0.41,0.55,0.79,1.12,1.08,1.64
				C159.89,74.12,159.75,74.14,159.61,74.17z M161.38,80.45c0.1-0.01,0.19-0.01,0.28-0.01c0.04,0.03,0.09,0.05,0.11,0.09
				c0.04,0.07,0.08,0.17,0.14,0.18c0.14,0.04,0.17-0.05,0.32-0.11c-0.04,0.05-0.08,0.11-0.1,0.18c-0.28,0.32-0.52,0.67-0.73,1.02
				L161.38,80.45z M162.83,80.06c-0.14-0.59-0.69-1.52-1.46-1.85l-0.02-2.09c0.23,0.09,0.43,0.2,0.61,0.32
				c0.23,0.15,0.61,0.44,1.03,0.8l-0.02,2.71C162.92,79.98,162.87,80.02,162.83,80.06z M163.92,79.27l-0.01-1.05
				c0.04-0.01,0.08-0.01,0.13-0.02c0.23,0.23,0.46,0.46,0.64,0.68C164.41,78.99,164.16,79.12,163.92,79.27z M164.93,79.84
				l-0.01,0.88c-0.07,0.09-0.15,0.17-0.22,0.26c0,0-0.12,0.6-0.16,0.95c-0.13-0.01-0.26,0-0.39,0.02c-0.06-0.14-0.12-0.25-0.16-0.34
				c-0.02-0.03-0.04-0.07-0.06-0.11l-0.01-0.81C164.22,80.45,164.57,80.17,164.93,79.84z M166.02,74.32c0,0,0.01,0.01,0.01,0.01
				c0,0.01-0.01,0.01-0.01,0.02L166.02,74.32z M166.05,77.23c0.06-0.09,0.13-0.19,0.2-0.29c0.11,0.03,0.21,0.07,0.31,0.11
				c0.01,0.1,0.03,0.2,0.05,0.3c0,0.03,0.01,0.05,0.01,0.08c-0.05,0.1-0.1,0.2-0.14,0.29c-0.02,0.04-0.03,0.08-0.05,0.13
				c-0.12-0.12-0.25-0.25-0.38-0.36L166.05,77.23z M168.09,72.42v-0.75l0,0l0,0V72.42L168.09,72.42z M168.13,69.49
				c-0.02,0.12-0.03,0.23-0.04,0.32c-0.01-0.11-0.03-0.27-0.06-0.44C168.06,69.41,168.1,69.45,168.13,69.49z M167.65,68.94
				c0.06,0.07,0.12,0.14,0.18,0.21c0.05,0.38,0.06,0.82,0.05,1.17c-0.12-0.35-0.38-0.67-0.64-0.86
				C167.38,69.28,167.51,69.1,167.65,68.94z M167.15,69.57c0.45,0.52,0.62,1.11,0.66,1.31c-0.27-0.34-0.78-0.45-0.95-0.39
				c0.66,0.39,0.89,0.66,1.11,1l-0.03,0.83c-0.27-0.56-0.9-1.23-1.75-1.32C166.47,70.53,166.8,70.04,167.15,69.57z M166.06,71.21
				c0.43,0.42,0.93,1.06,1.31,1.66c-0.3,0.24-0.57,0.51-0.82,0.79c-0.17-0.09-0.34-0.17-0.53-0.23L166,71.32
				C166.01,71.28,166.04,71.25,166.06,71.21z M164.96,76.74l0,0.14c-0.03-0.05-0.05-0.1-0.08-0.15
				C164.9,76.73,164.93,76.73,164.96,76.74z M164.74,75.35c-0.2,0.09-0.39,0.21-0.57,0.35c-0.67-0.82-1.42-1.36-2.1-1.49
				c-0.18-0.04-0.35-0.06-0.53-0.08c0.35-0.43,0.84-0.89,1.36-1.32C163.43,73.41,164.25,74.47,164.74,75.35z M162.13,72.08
				c-0.38,0.28-0.7,0.6-0.95,0.91l-0.05-1.43C161.54,71.72,161.86,71.89,162.13,72.08z M160.88,71.52v-0.04l0,0V71.52v1.95v0V71.52z
				 M160.63,71.4l-0.01,0.13c-0.34-0.08-0.66-0.12-0.98-0.12c-0.11-0.1-0.23-0.19-0.36-0.27C159.8,71.21,160.25,71.3,160.63,71.4z
				 M158.84,69.6c-0.17-0.07-0.68,0.05-0.95,0.39c0.04-0.21,0.23-0.87,0.76-1.42c0.85,0.56,1.31,1.01,1.66,1.48
				c-0.26,0.09-0.52,0.23-0.79,0.41c0.13-0.14,0.26-0.26,0.37-0.35c-0.64-0.07-1.18,0.21-1.57,0.58c-0.18-0.05-0.38-0.09-0.58-0.1
				C157.95,70.26,158.18,69.99,158.84,69.6z M157.8,68.02c-0.12,0.33-0.17,0.69-0.19,0.89c-0.01-0.14-0.04-0.36-0.1-0.59
				C157.61,68.22,157.7,68.12,157.8,68.02z M157.37,68.49c0.03,0.32,0.03,0.66,0.03,0.93c-0.07-0.21-0.19-0.4-0.33-0.57
				C157.17,68.73,157.27,68.61,157.37,68.49z M156.93,69.03c0.26,0.41,0.37,0.81,0.4,0.96c-0.22-0.28-0.61-0.41-0.83-0.4
				C156.64,69.39,156.78,69.21,156.93,69.03z M156.45,69.65c0.59,0.36,0.82,0.62,1.03,0.94c-0.07,0-0.14,0.01-0.22,0.01
				c0.07,0.06,0.14,0.12,0.22,0.19l-0.02,0.64c-0.23-0.47-0.72-1.03-1.38-1.25C156.2,70,156.32,69.82,156.45,69.65z M155.82,70.58
				c0.41,0.45,0.85,1.04,1.16,1.57c-0.31,0.19-0.6,0.42-0.86,0.67c-0.33-0.2-0.7-0.33-1.1-0.37l0-0.37
				C155.19,71.64,155.47,71.12,155.82,70.58z M154.37,69.65L154.37,69.65v0.93l0,0V69.65z M154.04,68.91
				c0.03,0.06,0.07,0.13,0.1,0.19l-0.05,1.34c-0.2-0.27-0.46-0.54-0.76-0.8C153.57,69.36,153.82,69.11,154.04,68.91z M154.02,72.15
				l-0.02,1.9c-0.11,0.04-0.22,0.08-0.33,0.13c-0.44,0.24-1.07,0.95-1.21,1.11c-0.01-0.01-0.01-0.01-0.02-0.01
				c0.03-0.14,0.13-0.59,0.2-1.02c0.08-0.47,0.21-1.03-0.26-1.13c-0.34-0.07-0.61,0.35-0.77,0.69l-0.02-1.76
				c0.26-0.48,0.61-1.01,0.99-1.52C153.22,71.08,153.76,71.64,154.02,72.15z M147.99,80.64c-0.02-0.04-0.05-0.09-0.07-0.13
				c0,0,0.01,0.01,0.01,0.01C147.95,80.56,147.97,80.6,147.99,80.64C147.99,80.63,147.99,80.64,147.99,80.64z M147.77,80.22
				c-0.1-0.19-0.2-0.38-0.3-0.57l-0.01,0.92c-0.12-0.11-0.24-0.23-0.35-0.33l-0.01-0.67c0.47,0.04,0.94,0.13,1.27,0.26
				c-0.02,0.03-0.04,0.06-0.06,0.1c-0.02,0-0.03,0-0.05,0C147.92,80,147.81,80.11,147.77,80.22z M148.8,74.35l-0.01,1.11
				c-0.59-0.06-1.19,0.02-1.72,0.31l-0.01-0.93c0.22-0.38,0.59-0.79,1.03-1.19C148.4,73.9,148.62,74.12,148.8,74.35z M148.42,73.36
				c0.08-0.07,0.16-0.14,0.24-0.21c0.08,0.22,0.12,0.4,0.15,0.52l0,0.04C148.7,73.57,148.56,73.46,148.42,73.36z M148.78,77.36
				l-0.02,2.07c-0.04,0.03-0.08,0.06-0.11,0.08c-0.03,0.02-0.05,0.04-0.08,0.07c-0.2-0.53-0.64-1.18-1.22-1.51
				C147.84,77.75,148.33,77.47,148.78,77.36z M149.66,72.35c0.11-0.09,0.23-0.18,0.33-0.26c-0.1,0.16-0.19,0.33-0.26,0.5h-0.07
				C149.66,72.51,149.66,72.43,149.66,72.35z M149.86,75.72c-0.01,0-0.02-0.01-0.03-0.01l-0.01-1.02c0.23,0.23,0.46,0.44,0.68,0.63
				l-0.01,0.82C150.3,75.96,150.09,75.82,149.86,75.72z M150.48,77.42l0,0.13c-0.07,0.14-0.14,0.27-0.19,0.39
				c-0.09,0.21-0.23,0.63-0.36,1.05c-0.02,0-0.05,0.01-0.07,0.01l-0.02-1.67C150.06,77.35,150.27,77.38,150.48,77.42z M150.25,73.89
				c0.08-0.07,0.17-0.15,0.26-0.22l0,0.33C150.42,73.96,150.34,73.92,150.25,73.89z M149.81,73.71l0-0.04
				c0.07-0.31,0.26-0.99,0.72-1.69l-0.01,1.2C150.26,73.3,150,73.47,149.81,73.71z M151.68,79.34c0.03-0.12,0.05-0.26,0.08-0.4
				c0.09,0.16,0.16,0.32,0.22,0.48c-0.11,0.12-0.21,0.23-0.28,0.31c-0.01,0-0.01-0.01-0.02-0.01L151.68,79.34z M151.71,82.38
				c0.11,0.09,0.21,0.17,0.32,0.26c0,0.01,0,0.02,0,0.03c0.01-0.01,0.02-0.01,0.02-0.02c0.13,0.1,0.26,0.2,0.39,0.3l-0.01,0.32
				h-0.04c-0.16-0.24-0.4-0.5-0.68-0.73L151.71,82.38z M152.64,83.26v-0.18l0,0V83.26L152.64,83.26z M152.68,78.73
				c-0.03,0.03-0.06,0.05-0.09,0.08c-0.05-0.48-0.15-1.1-0.35-1.49c0.1,0.36,0.16,1,0.18,1.65c-0.09,0.09-0.19,0.18-0.27,0.27
				c-0.11-0.21-0.23-0.39-0.35-0.52c0.02-0.12,0.04-0.24,0.06-0.36c0.04-0.25,0.09-0.52,0.1-0.76c0.11-0.13,0.22-0.26,0.33-0.39
				c0.17,0.24,0.35,0.48,0.52,0.73C152.75,78.2,152.71,78.48,152.68,78.73z M151.73,69.8c-0.05,0.05-0.09,0.1-0.13,0.15l0-0.26
				C151.64,69.72,151.68,69.76,151.73,69.8z M150.54,71.1l0,0.36c-0.07,0.06-0.13,0.13-0.2,0.19c-0.22-0.03-0.44-0.03-0.66,0
				c0.02-0.47,0.06-0.95,0.14-1.35C150.09,70.57,150.33,70.84,150.54,71.1z M148.68,69.28c0.35,0.29,0.7,0.59,1.01,0.9
				c-0.22,0.53-0.32,1.14-0.37,1.54c-0.01,0-0.02,0.01-0.03,0.01c-0.06-0.56-0.24-1.54-0.69-2.11c0.22,0.47,0.31,1.38,0.34,2.22
				c-0.13,0.05-0.25,0.11-0.38,0.17c-0.39-0.56-0.92-0.98-1.37-1.05c0.45,0.38,0.79,0.82,1.03,1.24c-0.38,0.24-0.72,0.54-1,0.84
				c-0.01,0-0.02,0-0.03,0.01c0.01,0,0.01,0.01,0.02,0.01c-0.22,0.24-0.4,0.49-0.51,0.71c-0.26-0.52-0.87-1.17-1.61-1.62
				C146.07,71.09,147.37,69.92,148.68,69.28z M127.21,83.24c-0.16-0.24-0.39-0.49-0.67-0.71l0-0.15c0.24,0.2,0.49,0.39,0.73,0.57
				l-0.01,0.16C127.25,83.15,127.23,83.19,127.21,83.24z M124.65,73.71l0-0.04c0.07-0.31,0.26-0.99,0.72-1.69l-0.01,1.2
				C125.1,73.3,124.84,73.47,124.65,73.71z M125.35,73.67l0,0.33c-0.09-0.04-0.17-0.07-0.26-0.11
				C125.17,73.82,125.26,73.74,125.35,73.67z M125.34,75.32l0,0.38c-0.01,0-0.02,0-0.03,0c-0.12,0.02-0.25,0.07-0.38,0.14
				c-0.08-0.04-0.15-0.09-0.24-0.12c-0.01,0-0.02-0.01-0.03-0.01l-0.01-1.02C124.88,74.92,125.11,75.13,125.34,75.32z M124.9,77.35
				c0.14,0.02,0.28,0.04,0.42,0.07l0,0.13c-0.07,0.14-0.14,0.27-0.19,0.39c-0.01,0.02-0.02,0.05-0.03,0.07
				c-0.14,0.08-0.28,0.16-0.41,0.26l-0.01-0.73C124.76,77.47,124.83,77.41,124.9,77.35z M127.27,78.96
				c-0.09,0.09-0.19,0.18-0.27,0.27c-0.11-0.21-0.23-0.39-0.35-0.52c0.02-0.12,0.04-0.24,0.06-0.36c0.04-0.25,0.09-0.52,0.11-0.76
				c0.11-0.13,0.22-0.26,0.33-0.39c0.17,0.24,0.35,0.48,0.52,0.73c-0.06,0.27-0.1,0.55-0.13,0.8c-0.03,0.03-0.06,0.05-0.09,0.08
				c-0.05-0.48-0.15-1.1-0.35-1.49C127.2,77.67,127.25,78.32,127.27,78.96z M126.82,79.41c-0.11,0.12-0.21,0.23-0.28,0.31
				c-0.01,0-0.01-0.01-0.02-0.01l0-0.37c0.03-0.12,0.05-0.26,0.08-0.4C126.69,79.09,126.76,79.25,126.82,79.41z M127.7,78.58
				c0.01-0.18,0.02-0.36,0.04-0.53c0.08,0.11,0.15,0.22,0.22,0.33C127.87,78.44,127.79,78.5,127.7,78.58z M128.27,80.67
				c0.17-0.12,0.34-0.24,0.52-0.34l-0.01,0.72c-0.22,0.04-0.43,0.11-0.63,0.19c-0.06-0.06-0.12-0.13-0.18-0.19
				C128.06,80.93,128.15,80.8,128.27,80.67z M128.15,76.19c0.04-0.03,0.07-0.06,0.1-0.08c0.19-0.14,0.38-0.28,0.57-0.4l-0.01,0.63
				c-0.14,0.06-0.26,0.14-0.37,0.25C128.35,76.46,128.26,76.32,128.15,76.19z M131.3,76.43c0.01,0.04,0.01,0.08,0.02,0.12
				c-0.19-0.01-0.39,0-0.6,0.01c-0.09-0.08-0.19-0.15-0.27-0.19c-0.1-0.06-0.21-0.09-0.32-0.13c0.13-0.2,0.28-0.42,0.47-0.66
				l0.16,0.53c0.03-0.17,0.14-0.35,0.29-0.54c0.02,0.01,0.03,0.02,0.04,0.04c0.01,0.03,0.03,0.07,0.05,0.08
				c0.06,0.02,0.08-0.02,0.15-0.04C131.19,75.84,131.25,76.16,131.3,76.43z M130.4,77.79c-0.02,0.05-0.05,0.1-0.07,0.15
				c-0.01,0.02-0.02,0.04-0.03,0.06c-0.13-0.03-0.27-0.05-0.4-0.06l0-0.46C130.07,77.56,130.24,77.67,130.4,77.79z M130.02,74.01
				c-0.05-0.01-0.1-0.02-0.15-0.03l-0.01-1.2c0.23,0.14,0.46,0.3,0.68,0.48C130.35,73.5,130.17,73.75,130.02,74.01z M132.47,75.44
				L132.47,75.44l-0.01,1.32c-0.02-0.01-0.04-0.01-0.05-0.02c-0.07-0.23-0.14-0.44-0.19-0.55c-0.13-0.29-0.38-0.77-0.7-0.7
				c-0.02-0.09-0.05-0.19-0.1-0.31c0.17-0.16,0.36-0.32,0.55-0.48C132.21,75,132.39,75.27,132.47,75.44z M132.28,73.72
				c0.07-0.06,0.14-0.13,0.21-0.19l0,0.43c-0.02,0-0.04,0-0.06,0.01C132.38,73.88,132.33,73.8,132.28,73.72z M133.52,77.27
				c-0.13-0.08-0.26-0.16-0.4-0.23c0.3-0.4,0.86-0.91,1.28-1.26c0.31,0.01,0.59,0.04,0.84,0.08l0,0.29
				C134.56,76.39,133.98,76.79,133.52,77.27z M135.24,76.75l0,0.06c-0.02,0-0.04,0-0.06,0C135.2,76.79,135.22,76.76,135.24,76.75z
				 M134.34,77.94c-0.01-0.01-0.03-0.03-0.04-0.04c0.16-0.02,0.32-0.03,0.47-0.02c0.01,0,0.01,0,0.02,0
				c-0.05,0.01-0.1,0.02-0.14,0.04C134.55,77.93,134.45,77.93,134.34,77.94z M134.4,80.16c-0.01,0.01-0.02,0.02-0.02,0.02
				s0.01-0.01,0.01-0.03C134.39,80.16,134.39,80.16,134.4,80.16z M134.88,80.99c-0.03,0.16-0.06,0.35-0.08,0.52
				c-0.05,0.04-0.11,0.09-0.16,0.14c-0.12,0-0.24,0.01-0.36,0.04c-0.02-0.02-0.04-0.03-0.05-0.05
				C134.45,81.38,134.68,81.15,134.88,80.99z M134.89,74.13c-0.03,0.01-0.07,0.01-0.1,0.02c-0.25,0.05-0.51,0.19-0.77,0.41
				c-0.32,0.2-0.63,0.47-0.91,0.84l-0.02-2.37c0.23-0.19,0.47-0.38,0.72-0.55C134.21,73.02,134.59,73.6,134.89,74.13z M134.88,71.81
				c0.2-0.1,0.39-0.19,0.59-0.27l-0.04,1.05C135.29,72.34,135.1,72.07,134.88,71.81z M136.83,77.06c0.07,0.43,0.18,0.89,0.18,0.89
				s-0.43-0.51-0.82-0.81l-0.01-0.76l0.1,0.35c0.03-0.14,0.11-0.3,0.23-0.46c0.09,0.05,0.18,0.1,0.26,0.15
				C136.76,76.62,136.8,76.85,136.83,77.06z M136.99,73.52c0.39,0.01,0.74,0.04,1.04,0.1l-0.01,0.97c-0.02,0-0.04,0-0.06,0.01
				C137.73,74.17,137.4,73.8,136.99,73.52z M137.07,80.6c-0.04,0.05-0.07,0.1-0.09,0.16c-0.05,0.01-0.1,0.02-0.15,0.02
				c-0.1-0.06-0.21-0.1-0.32-0.06c-0.05,0.01-0.09,0.04-0.12,0.06c0.08-0.07,0.17-0.15,0.25-0.22c0.03,0.07,0.07,0.14,0.12,0.15
				C136.9,80.74,136.92,80.66,137.07,80.6z M136.36,80.79c-0.03,0.03-0.05,0.05-0.07,0.09c-0.01,0-0.03,0.01-0.04,0.01
				C136.28,80.86,136.32,80.83,136.36,80.79z M138.75,78.07c0.03,0.03,0.06,0.06,0.09,0.09c-0.03,0.03-0.06,0.07-0.08,0.11
				L138.75,78.07z M140.9,78.45l0-0.02c0,0.01,0.01,0.01,0.01,0.02C140.91,78.45,140.9,78.45,140.9,78.45z M140.92,78.46
				c0.03,0.04,0.06,0.09,0.1,0.13c-0.04,0.12-0.08,0.24-0.11,0.36l0-0.46C140.9,78.48,140.91,78.47,140.92,78.46z M141.32,76.63
				c0.13-0.17,0.27-0.35,0.43-0.54c0.16,0.16,0.3,0.31,0.43,0.47c-0.22,0.1-0.41,0.34-0.57,0.59c-0.12-0.12-0.24-0.23-0.37-0.34
				c0.05-0.07,0.09-0.13,0.14-0.2C141.36,76.62,141.34,76.63,141.32,76.63z M141.65,73.38c-0.17-0.2-0.34-0.38-0.52-0.55
				c0.31-0.36,0.74-0.74,1.4-1.18l-0.01,0.98C142.21,72.86,141.92,73.1,141.65,73.38z M144.59,82.85c0.01-0.02,0.03-0.05,0.04-0.07
				c0.01-0.01,0.01-0.02,0.02-0.03c0.16,0,0.32,0,0.48,0.01c-0.08,0.1-0.15,0.21-0.22,0.32C144.8,82.98,144.69,82.91,144.59,82.85z
				 M145.62,74.54c0.13,0.03,0.15,0.1,0.26,0.06c0.04-0.01,0.06-0.08,0.09-0.14c0.01-0.02,0.04-0.04,0.07-0.06
				c0.05,0.06,0.1,0.13,0.14,0.19l-0.02,1.91c-0.47,0.45-0.86,0.92-0.86,0.92s0.19-0.79,0.31-1.53
				C145.68,75.42,145.8,74.87,145.62,74.54z M144.45,72.91c0.46,0.38,0.92,0.78,1.29,1.17c-0.02,0-0.03,0-0.05-0.01
				c-0.19-0.02-0.33,0.07-0.43,0.2c-0.01,0-0.02-0.01-0.03-0.01c-0.49-0.11-0.88,0.52-1.12,1.01l-0.02-1.9
				C144.21,73.22,144.32,73.07,144.45,72.91z M143.05,66.13L143.05,66.13L143.05,66.13v1.98v0v0V66.13z M142.42,69.3
				c0.05,0.11,0.09,0.21,0.13,0.31l-0.02,1.95c-0.39-0.06-1.21,0.19-1.66,0.83C140.95,71.92,141.32,70.45,142.42,69.3z
				 M139.64,71.73c0.03,0.09,0.05,0.17,0.07,0.25c-0.03-0.01-0.07-0.02-0.1-0.03c-0.02-0.04-0.04-0.07-0.06-0.1
				C139.58,71.82,139.61,71.77,139.64,71.73z M139.5,75.22c-0.11,0.1-0.22,0.2-0.32,0.33c-0.15-0.06-0.31-0.12-0.47-0.17
				c-0.03-0.03-0.06-0.06-0.09-0.09l-0.01-1.39C138.94,74.33,139.25,74.79,139.5,75.22z M139.38,71.01c-0.1,0.06-0.19,0.13-0.27,0.2
				c-0.12-0.15-0.24-0.28-0.37-0.4c0.1-0.11,0.23-0.22,0.39-0.34C139.22,70.67,139.3,70.84,139.38,71.01z M139,70.29
				c-0.15,0.07-0.29,0.17-0.4,0.3c0.02-0.11,0.08-0.34,0.21-0.61C138.88,70.08,138.94,70.19,139,70.29z M138.53,69.6
				c0.04,0.05,0.08,0.11,0.12,0.16c-0.05,0.09-0.09,0.17-0.12,0.26C138.53,69.9,138.53,69.75,138.53,69.6z M138.34,69.38
				c-0.01,0.05-0.01,0.1-0.02,0.14c0-0.05-0.01-0.12-0.02-0.18C138.31,69.35,138.32,69.36,138.34,69.38z M138.01,68.53
				c0.03,0.17,0.06,0.36,0.08,0.56c-0.02,0-0.04-0.01-0.05-0.02c0.02,0.02,0.04,0.04,0.05,0.06c0.02,0.31,0.03,0.63,0.02,0.9
				c-0.15-0.44-0.51-0.83-0.84-0.97C137.48,68.89,137.73,68.71,138.01,68.53z M137.21,69.1c0.42,0.4,0.64,0.88,0.75,1.2
				c-0.51-0.21-1.03-0.37-1.55-0.41C136.62,69.64,136.87,69.38,137.21,69.1z M136.97,72.08c-0.12,0.09-0.24,0.18-0.34,0.28
				c-0.21,0.14-0.41,0.32-0.61,0.53l-0.05-1.32C136.38,71.72,136.7,71.89,136.97,72.08z M135.72,71.52v-0.04l0,0V71.52v1.52l0,0
				V71.52z M135.47,71.4l-0.01,0.13c-0.34-0.08-0.66-0.12-0.98-0.12c-0.11-0.1-0.23-0.19-0.36-0.27
				C134.64,71.21,135.09,71.3,135.47,71.4z M134.01,69.58c-0.17-0.07-0.68,0.05-0.95,0.39c0.04-0.19,0.2-0.75,0.62-1.26
				c0.73,0.5,1.14,0.92,1.46,1.34c-0.03,0.01-0.06,0.02-0.09,0.04c0,0,0,0,0.01,0c-0.7-0.07-1.27,0.26-1.67,0.68
				c-0.15-0.06-0.32-0.1-0.48-0.13l0-0.06C133.12,70.24,133.35,69.96,134.01,69.58z M132.78,71.25L132.78,71.25v0.43l0,0V71.25z
				 M132.52,68.15c0.05,0.4,0.07,0.88,0.06,1.25c-0.1-0.29-0.29-0.55-0.5-0.75C132.22,68.47,132.37,68.31,132.52,68.15z
				 M131.96,68.79c0.37,0.48,0.51,0.99,0.54,1.17c-0.27-0.34-0.78-0.45-0.95-0.39c0.66,0.39,0.89,0.66,1.11,1l0,0.02
				c-0.18-0.02-0.37-0.02-0.56,0c0.17,0.14,0.35,0.31,0.54,0.51l-0.01,0.3c-0.26-0.53-0.86-1.18-1.66-1.31
				C131.29,69.64,131.62,69.2,131.96,68.79z M130.8,70.35c0.42,0.43,0.92,1.06,1.28,1.64c-0.35,0.19-0.68,0.43-0.97,0.69
				c-0.37-0.18-0.79-0.29-1.25-0.29l0-0.33C130.05,71.58,130.39,70.97,130.8,70.35z M129.21,69.65L129.21,69.65v0.93l0,0V69.65z
				 M128.88,68.91c0.03,0.06,0.07,0.13,0.1,0.19l-0.05,1.34c-0.2-0.27-0.46-0.54-0.76-0.8C128.41,69.36,128.66,69.11,128.88,68.91z
				 M128.86,72.15l-0.02,1.9c-0.11,0.04-0.22,0.08-0.33,0.13c-0.44,0.24-1.07,0.95-1.21,1.11c-0.01-0.01-0.01-0.01-0.02-0.01
				c0.03-0.14,0.13-0.59,0.2-1.02c0.08-0.47,0.21-1.03-0.26-1.13c-0.34-0.07-0.61,0.35-0.77,0.69l-0.02-1.76
				c0.26-0.48,0.61-1.01,0.99-1.52C128.06,71.08,128.6,71.64,128.86,72.15z M126.57,69.8c-0.05,0.05-0.09,0.1-0.13,0.15l0-0.26
				C126.48,69.72,126.52,69.76,126.57,69.8z M125.38,71.1l0,0.36c-0.06,0.06-0.12,0.12-0.18,0.18c-0.03,0-0.07,0.01-0.1,0.01
				c-0.19-0.02-0.38-0.02-0.58,0c0.02-0.47,0.06-0.95,0.14-1.35C124.93,70.57,125.17,70.84,125.38,71.1z M124.53,70.18
				c-0.13,0.31-0.22,0.64-0.28,0.95c-0.06,0.01-0.13,0.03-0.2,0.06c-0.03-0.17-0.07-0.35-0.12-0.53c0.12-0.2,0.27-0.41,0.47-0.6
				C124.44,70.1,124.49,70.14,124.53,70.18z M124.22,71.33c-0.02,0.14-0.04,0.27-0.05,0.39c-0.01,0-0.02,0.01-0.03,0.01
				c-0.01-0.09-0.02-0.2-0.04-0.3C124.13,71.4,124.17,71.36,124.22,71.33z M124.33,69.99c-0.17,0.08-0.34,0.22-0.48,0.4
				c-0.07-0.21-0.17-0.41-0.28-0.59c0.02-0.15,0.04-0.29,0.07-0.41C123.88,69.59,124.11,69.79,124.33,69.99z M123.56,71.95
				c0.06-0.09,0.14-0.17,0.22-0.26c0,0.05,0,0.1,0.01,0.15C123.71,71.88,123.63,71.91,123.56,71.95z M123.64,74.35l-0.01,1.11
				c-0.01,0-0.02,0-0.02,0l-0.01-1.13c0-0.01,0.01-0.02,0.01-0.02C123.62,74.33,123.63,74.34,123.64,74.35z M123.52,70.95
				c-0.01-0.3,0-0.68,0.04-1.03c0.06,0.2,0.1,0.43,0.14,0.68C123.62,70.71,123.56,70.83,123.52,70.95z M123.74,71.05
				c0.01,0.1,0.02,0.2,0.02,0.31c-0.06,0.05-0.12,0.1-0.17,0.16C123.61,71.43,123.65,71.26,123.74,71.05z M123.52,69.28
				c0.02,0.02,0.05,0.04,0.07,0.06c-0.05,0.1-0.09,0.2-0.12,0.3c-0.01-0.01-0.01-0.02-0.02-0.03c0.01,0.01,0.01,0.03,0.02,0.04
				c-0.09,0.3-0.14,0.61-0.15,0.79c-0.02-0.21-0.07-0.6-0.21-0.94C123.24,69.43,123.38,69.35,123.52,69.28z M123.31,73.32v0.08l0,0
				V73.32L123.31,73.32z M122.33,70.01c0.23-0.16,0.46-0.32,0.69-0.45c0.07,0.42,0.09,0.98,0.08,1.4
				C122.96,70.54,122.64,70.17,122.33,70.01z M122.77,73.82c0.11,0.19,0.19,0.36,0.26,0.52l-0.01,1.13c-0.03,0-0.06,0.01-0.09,0.01
				c-0.2-0.36-0.48-0.68-0.81-0.93C122.29,74.3,122.51,74.06,122.77,73.82z M122.99,77.6l-0.01,0.86c-0.09-0.28-0.18-0.58-0.25-0.72
				c0,0,0,0,0,0C122.82,77.69,122.91,77.64,122.99,77.6z M122.03,75.72c-0.04,0.02-0.08,0.04-0.12,0.06l0-0.19
				C121.95,75.63,121.99,75.68,122.03,75.72z M122,78.88c0,0-0.02-0.03-0.07-0.08l0-0.23C121.97,78.75,122,78.88,122,78.88z
				 M183.94,84.2C183.93,84.2,183.93,84.2,183.94,84.2C183.93,84.19,183.93,84.19,183.94,84.2l0.08,0c0,0,0,0,0,0H183.94z
				 M228.95,78.2c0.02,0,0.05,0,0.07,0l0,0.14c-0.03-0.04-0.05-0.09-0.08-0.13C228.95,78.2,228.95,78.2,228.95,78.2z"/>
		</g>
	</g>
</g>
</svg>
