<?xml version="1.0" encoding="utf-8"?>
<!-- Generator: Adobe Illustrator 27.8.1, SVG Export Plug-In . SVG Version: 6.00 Build 0)  -->
<svg version="1.1" xmlns="http://www.w3.org/2000/svg" xmlns:xlink="http://www.w3.org/1999/xlink" x="0px" y="0px"
	 viewBox="0 0 350 230" style="enable-background:new 0 0 350 230;" xml:space="preserve">
<style type="text/css">
	.st0{fill:#FFD4A9;}
	.st1{fill:#FFFFAB;}
	.st2{fill:#FFFECF;}
	.st3{fill:#CDFCD7;}
	.st4{fill:#D4FFF4;}
	.st5{fill:#C6FFAE;}
	.st6{fill:#FFFFB0;}
	.st7{fill:#E9FFAE;}
	.st8{fill:#FFE4AE;}
	.st9{fill:#D6D36E;}
	.st10{fill:#7C7B50;}
	.st11{fill:#E4D027;}
	.st12{fill:#14A639;}
	.st13{fill:#9ED834;}
	.st14{fill:#0B8813;}
	.st15{fill:#FEFEFE;}
	.st16{fill:#6BC53C;}
	.st17{fill:#89E051;}
	.st18{fill:#E2BF2B;}
	.st19{fill:#0C8149;}
	.st20{fill:#5B3A00;}
	.st21{fill:#72721D;}
	.st22{fill:#355600;}
	.st23{fill:#603200;}
	.st24{fill:#2BC152;}
	.st25{fill:#DCE041;}
	.st26{fill:#BCAF15;}
	.st27{fill:#0B7E21;}
	.st28{fill:#5C9E23;}
	.st29{fill:#0C4710;}
	.st30{fill:#00760D;}
	.st31{fill:#459B02;}
	.st32{fill:#FCAC01;}
	.st33{fill:#AEC600;}
	.st34{fill:#545913;}
	.st35{fill:#953327;}
	.st36{fill:#ABCB13;}
	.st37{fill:#FFE566;}
	.st38{fill:#72DD2C;}
	.st39{fill:url(#SVGID_1_);}
	.st40{fill:url(#SVGID_00000173862832028595655540000003666207441220699050_);}
	.st41{fill:url(#SVGID_00000039110922339361916720000010141069829716593293_);}
	.st42{fill:#C1B700;}
	.st43{fill:url(#SVGID_00000162318748159923398350000004930216964600119204_);}
	.st44{fill:#2F5A11;}
	.st45{fill:url(#SVGID_00000016039495132658733830000011795424666798298511_);}
	.st46{fill:#E8CB1B;}
	.st47{fill:#AFAA00;}
	.st48{fill:url(#SVGID_00000181056167242961913550000013270978925389379262_);}
	.st49{fill:#FFFFFF;}
	.st50{fill:url(#SVGID_00000119080842947359880320000015335586694213267612_);}
	.st51{fill:url(#SVGID_00000005239903619085761360000002698985872479049102_);}
	.st52{fill:#00A79D;}
	.st53{fill:#0A3A00;}
	.st54{fill:#FFFFFF;stroke:#0A3A00;stroke-miterlimit:10;}
	.st55{fill:url(#SVGID_00000011754146255472035150000016152272296451605913_);}
	.st56{fill:url(#SVGID_00000040551007962900899300000011519361439764452753_);}
	.st57{fill:url(#SVGID_00000170975699655914142630000017543639662712981181_);}
	.st58{fill:url(#SVGID_00000071548557965977459690000003916796478515164291_);}
	.st59{fill:url(#SVGID_00000059280068866391468380000003148955150873716882_);}
	.st60{fill:url(#SVGID_00000151542062329687613340000003681226230824565897_);}
	.st61{fill:url(#SVGID_00000134239862269011892230000001631259569747419034_);}
	.st62{fill:#327736;}
	.st63{fill:#1C4422;}
	.st64{fill:#F9F9F9;}
	.st65{fill:#7BAB47;}
	.st66{fill:#A0C73A;}
	.st67{fill:#284622;}
	.st68{fill:#D0DB58;}
	.st69{fill:none;stroke:#284622;stroke-width:3;stroke-linecap:round;stroke-linejoin:round;stroke-miterlimit:10;}
	.st70{fill:#EABC5E;}
	.st71{fill:#D9941B;}
	.st72{fill:#80C43E;}
	.st73{fill:#376818;}
	.st74{fill:#D7E285;}
	.st75{fill:#05320F;}
	.st76{fill:#329C44;}
	.st77{fill:url(#SVGID_00000157297786385047541500000000363833189679913644_);}
	.st78{fill:url(#SVGID_00000036211414495049793420000005212273681127535801_);}
	.st79{fill:#FAA100;}
	.st80{fill:url(#SVGID_00000163070708335645057690000004667705720795952311_);}
	.st81{fill:url(#SVGID_00000100343335943990977390000004770531312622749346_);}
	.st82{fill:url(#SVGID_00000172411149392047738990000009228723001163712402_);}
	.st83{fill:url(#SVGID_00000151517871624136356010000009881434290996699032_);}
	.st84{fill:url(#SVGID_00000115485286848588075300000012787008861035445182_);}
</style>
<g id="Logo1">
</g>
<g id="Logo2">
</g>
<g id="Logo3">
</g>
<g id="Logo4">
</g>
<g id="Logo5">
</g>
<g id="Logo6">
</g>
<g id="Logo7">
</g>
<g id="Logo8">
</g>
<g id="Logo9">
</g>
<g id="Logo10">
</g>
<g id="Logo11">
</g>
<g id="Logo12">
</g>
<g id="Logo13">
</g>
<g id="Logo14">
</g>
<g id="Logo15">
	<path d="M150.26,86.75c-0.13-0.63-0.27-1.25-0.42-1.99c0.37,0.02,0.7,0.03,1.02,0.06c3.83,0.37,7.65,0.73,11.46-0.19
		c0.2-0.05,0.46,0.13,0.73,0.22c0-0.12,0-0.32,0-0.53c-0.01-0.57,0.27-0.82,0.83-0.76c0.73,0.09,1.18-0.31,1.46-0.91
		c0.27-0.56,0.05-1.73-0.29-2.11c-0.2-0.22-0.43-0.5-0.47-0.77c-0.74-5.22-1.9-10.32-4.06-15.15c-0.04-0.09-0.06-0.18-0.13-0.38
		c2.39,0.6,4.49,1.49,5.63,3.77c0.96,1.93,1.83,3.89,2.73,5.85c1.75,3.82,3.51,7.64,5.22,11.49c0.27,0.61,0.41,1.33,0.39,1.99
		c-0.06,2.33-0.24,4.65-0.34,6.98c-0.03,0.67-0.29,1.08-0.95,1.2c-1.85,0.35-3.69,0.72-5.54,1.04c-0.83,0.14-1.01-0.07-1.07-0.89
		c-0.24-3.68-0.48-7.36-0.73-11.05c-0.03-0.5-0.06-1.03-0.84-0.86c0.09,1.85,0.19,3.67,0.27,5.5c0.09,2.25,0.15,4.5,0.24,6.76
		c0.03,0.64-0.37,0.78-0.85,0.75c-0.44-0.03-1.1,0.26-1.11-0.65c-0.01-1.68-0.08-3.37-0.13-5.05c-0.03-0.97-0.19-1.07-1.17-1.01
		c-2.2,0.12-4.4,0.2-6.6,0.28c-0.91,0.03-0.96,0.06-0.8,0.93c0.23,1.28,0.48,2.56,0.72,3.85c0.06-0.01,0.12-0.01,0.19-0.02
		c-0.05-0.91-0.08-1.83-0.17-2.74c-0.06-0.66,0.1-0.92,0.83-0.94c1.83-0.03,3.66-0.13,5.48-0.27c0.67-0.05,0.88,0.19,0.92,0.8
		c0.08,1.31,0.19,2.62,0.33,3.92c0.07,0.67-0.2,0.9-0.83,0.88c-3.02-0.07-6.04-0.14-9.06-0.21c-0.54-0.01-1.09-0.04-1.63-0.02
		c-1.22,0.06-1.99-0.46-2.48-1.59c-0.94-2.18-1.85-4.38-2.96-6.48c-1.32-2.49-2.36-5.06-2.94-7.82c-0.14-0.67-0.4-1.32-0.72-1.97
		c0,0.54,0,1.08,0,1.84c-1.79-2.29-3.52-4.37-5.96-5.93c1.67,2.76,3.26,5.4,4.93,8.16c-1.03-0.33-1.89-0.6-2.75-0.87
		c-0.04,0.05-0.07,0.1-0.11,0.15c2.99,1.93,5.04,4.65,6.75,7.95c-1.86-1.22-3.61-2.19-5.76-2.7c1.44,1.14,2.76,2.19,4.17,3.3
		c-1.07,0.51-2.01,0.97-2.94,1.42c0.01,0.04,0.02,0.08,0.04,0.12c1.47,0,2.95,0,4.42,0c0,0.04,0.01,0.08,0.01,0.12
		c-1.14,0.57-2.28,1.15-3.42,1.72c0.02,0.06,0.04,0.13,0.06,0.19c1.66-0.21,3.31-0.45,5.1,0.31c-4.6,1.43-8.35,3.74-10.55,8.04
		c2.11-1.87,4.29-3.63,6.97-4.65c0.5-0.19,1.02-0.34,1.59-0.44c-2.93,2.26-5.63,4.7-7.13,8.27c1.93-1.82,3.79-3.56,5.65-5.31
		c0.05,0.05,0.1,0.1,0.14,0.14c-0.65,1.7-1.3,3.41-1.96,5.11c0.07,0.04,0.13,0.08,0.2,0.12c2.62-3.2,5.6-5.93,9.5-7.51
		c-0.49,0.55-1.02,1.08-1.48,1.66c-0.47,0.59-0.89,1.23-1.36,1.9c1.3-0.4,2.5-0.92,3.74-1.11c3.15-0.48,6.33-0.82,9.5-1.21
		c3.15-0.38,6.29-0.74,9.44-1.14c2.14-0.27,4.08,0.11,5.8,1.49c1.39,1.12,2.81,2.2,4.22,3.29c0.23,0.18,0.46,0.34,0.77,0.42
		c-1.62-1.67-3.23-3.37-4.88-5.01c-0.43-0.43-0.52-0.74-0.07-1.15c0.27-0.25,0.52-0.54,0.83-0.74c0.98-0.65,1.73-0.53,2.44,0.42
		c0.77,1.03,1.45,2.14,2.27,3.12c0.52,0.63,1.19,1.16,1.87,1.62c0.8,0.54,1.7,0.91,2.51,1.44c0.25,0.16,0.34,0.58,0.5,0.88
		c-0.3,0.16-0.59,0.36-0.91,0.46c-0.25,0.08-0.53,0.05-0.92,0.07c0.22,0.37,0.37,0.67,0.57,0.94c4.81,6.39,9.62,12.78,14.43,19.17
		c0.61,0.81,1.37,1.12,2.34,0.88c0.99-0.24,1.97-0.49,2.94-0.8c0.83-0.27,1.51-0.16,2.07,0.52c1.12,1.35,2.24,2.71,3.35,4.08
		c0.14,0.18,0.27,0.46,0.24,0.66c-0.12,0.84-0.31,1.68-0.49,2.61c-0.4-0.52-0.79-1.01-1.17-1.51c-0.5-0.65-0.97-1.32-1.5-1.94
		c-0.52-0.6-1.08-0.62-1.62-0.14c-0.54,0.47-0.39,0.95-0.03,1.44c0.92,1.26,1.85,2.51,2.76,3.78c0.25,0.34,0.66,0.69,0.08,1.12
		c-0.81,0.6-1.27,0.63-1.72,0.02c-0.86-1.15-1.68-2.33-2.55-3.47c-0.23-0.3-0.58-0.66-0.9-0.69c-0.41-0.04-0.99,0.12-1.22,0.42
		c-0.19,0.23-0.11,0.88,0.09,1.19c0.85,1.3,1.8,2.55,2.7,3.82c0.21,0.29,0.63,0.58,0.12,0.99c-0.79,0.63-1.33,0.73-1.74,0.2
		c-0.83-1.08-1.62-2.19-2.43-3.28c-0.19-0.26-0.39-0.52-0.64-0.72c-0.51-0.43-1.06-0.37-1.55,0.04c-0.51,0.43-0.39,0.91-0.05,1.38
		c0.9,1.25,1.79,2.5,2.69,3.73c0.29,0.4,0.48,0.74-0.03,1.13c-0.85,0.64-1.14,0.68-1.62,0.07c-0.54-0.68-1.08-1.36-1.57-2.07
		c-0.2-0.29-0.37-0.66-0.42-1.01c-0.3-2.03-0.59-4.07-0.83-6.11c-0.05-0.42-0.01-0.92,0.17-1.3c0.77-1.64,0.42-3.05-0.64-4.42
		c-2.26-2.91-4.5-5.85-6.74-8.78c-2.2-2.9-4.4-5.8-6.56-8.73c-0.7-0.95-1.69-1.38-2.8-1.87c0.27,1.01,1.35,1.91,0.14,2.87
		c-0.85,0.67-1.51,0.04-2.27-0.39c0.03,0.8,0.31,1.62-0.65,2.03c-0.92,0.38-1.34-0.33-1.94-0.87c-0.03,0.24-0.07,0.42-0.08,0.6
		c-0.09,1.53-0.16,3.07-0.29,4.6c-0.05,0.57,0.13,0.83,0.7,0.99c5.15,1.37,10.02,3.41,14.6,6.13c0.93,0.56,0.93,0.57,0.51,1.57
		c-0.57,1.37-1.09,2.77-1.71,4.11c-0.21,0.45-0.63,0.86-1.06,1.14c-0.68,0.44-1.46,0.73-2.17,1.13c-0.45,0.25-0.77,0.23-1.19-0.12
		c-5.15-4.35-10.9-7.72-17.03-10.45c-5.34-2.37-10.92-3.98-16.68-4.97c-0.24-0.04-0.48-0.11-0.76-0.17c1.5-0.72,6.29-1.21,11-0.85
		c3.69,0.28,7.36,0.89,11.13,1.37c0.01-0.02,0.09-0.23,0.1-0.43c0.08-1.58,0.14-3.17,0.23-4.75c0.02-0.43-0.17-0.63-0.52-0.86
		c-0.88-0.58-1.79-1.17-2.52-1.91c-0.71-0.71-1.41-0.94-2.33-0.63c-3.24,1.08-6.49,2.11-9.71,3.25c-4.86,1.72-9.8,3.15-14.92,3.89
		c-1.48,0.21-2.71-0.18-3.81-1.21c-2.04-1.91-3.85-4.01-5.06-6.54c-3.36-7.01-6.53-14.1-8.8-21.56c-1-3.28-1.51-6.62-0.98-10.04
		c0.66-4.27,3.21-7.07,7.05-8.8c0.34-0.15,0.83-0.1,1.22-0.01c3.27,0.72,5.88,2.52,8.05,5.02c2.77,3.2,4.47,6.99,5.98,10.88
		c0.17,0.44,0.28,0.82,0.08,1.33c-0.31,0.8,0.46,1.98,1.24,2.22c0.25,0.08,0.5,0.38,0.62,0.64c0.25,0.53,0.41,1.11,0.6,1.66
		C150.19,86.8,150.22,86.77,150.26,86.75z M150.85,87.76c0,0.45,0.19,0.89,0.81,0.94c0.53,0.05,0.75-0.33,0.81-0.78
		c0.07-0.54-0.34-1.05-0.82-1.03C151.16,86.91,150.84,87.12,150.85,87.76z M164.74,86.47c-0.46-0.42-0.7-0.81-1-0.87
		c-0.49-0.1-0.75,0.29-0.73,0.78c0.01,0.48,0.26,0.87,0.74,0.82C164.02,87.17,164.27,86.83,164.74,86.47z M216.24,72.55
		c0.57,0.92,0.5,1.8,0.03,2.79c-0.73,1.55-0.57,3.19-0.08,4.79c0.68,2.23,1.76,4.25,3.22,6.06c0.71,0.89,0.63,1.16-0.42,1.6
		c-1,0.42-2.02,0.42-3.06,0.16c-0.28-0.07-0.56-0.14-0.9-0.22c1.73,2.18,3.92,2,5.09-0.37c0.79,1.33-0.07,3.49-1.74,4.21
		c-0.61,0.26-1.26,0.49-1.92,0.56c-1.18,0.13-2.37,0.2-3.55,0.16c-1.52-0.05-2.52-0.87-3.04-2.31c-0.46-1.29-0.48-1.27-1.83-1.09
		c-1.52,0.21-2.66,0.99-3.56,2.2c-1.7,2.3-2.77,4.9-3.67,7.59c-0.76,2.27-1.5,4.56-2.39,6.79c-0.82,2.07-2.24,3.71-4.07,5.01
		c-0.55,0.39-0.91,0.41-1.34-0.19c-0.89-1.25-1.89-2.43-2.76-3.69c-0.28-0.41-0.48-1.01-0.42-1.49c0.21-1.58-0.23-2.86-1.35-3.98
		c-1.29-1.3-2.51-2.67-3.79-3.98c-1.05-1.07-2.21-1.99-3.67-2.45c-0.52-0.16-0.66-0.52-0.63-1.02c0.24-4.58,0.47-9.15,0.71-13.73
		c0.08-1.61,0.15-3.22,0.22-4.82c0.04-0.93,0.2-1.14,1.11-1.24c4.11-0.48,7.99-1.64,11.58-3.72c0.12-0.07,0.26-0.12,0.47-0.21
		c0.35,2.51,1.32,4.45,4.28,4.89c-0.23-0.17-0.3-0.25-0.38-0.29c-2.07-1.01-2.94-2.77-3.07-4.97c-0.05-0.81,0.27-1.1,1.07-1.2
		c2.04-0.25,3.65,0.43,4.77,2.23c0.05-0.04,0.11-0.09,0.16-0.13c-0.34-0.77-0.67-1.54-1.03-2.36c0.88,0.1,1.74,0.21,2.59,0.31
		c0.02-0.04,0.03-0.09,0.05-0.13c-0.57-0.21-1.15-0.4-1.7-0.65c-0.54-0.24-1.1-0.47-1.56-0.82c-0.75-0.57-1.05-1.39-0.86-2.31
		c0.14-0.67,0.33-1.37,0.67-1.95c1.24-2.11,2.56-4.17,3.93-6.37c0,0.53,0.01,0.96,0,1.39c-0.08,2.27-0.85,4.35-1.77,6.4
		c-0.11,0.25-0.15,0.77-0.01,0.87c0.42,0.32,0.64-0.13,0.86-0.42c1.22-1.6,2.9-1.94,4.78-1.76c0.64,0.06,1.3,0.17,1.92,0.09
		c3-0.39,4.25,1.71,4.21,4.01c-0.04,2.47,1.36,4.13,2.86,5.79L216.24,72.55z M200.25,75.3c-0.16,0.15-0.23,0.18-0.26,0.24
		c-0.13,0.24-0.27,0.47-0.37,0.72c-0.96,2.39-1.03,4.82-0.17,7.24c1,2.81,3.8,4.29,7.25,3.99C200.98,85.29,199.65,80.84,200.25,75.3
		z M207.45,75.34c-0.39-1.18-1.38-1.71-2.47-1.4C205.73,74.37,206.63,74.87,207.45,75.34z M153.81,69.38
		c-1.19-2.32-2.84-4.23-5.04-5.64c-2.97-1.91-6.13-3.41-9.5-4.49c-0.48-0.15-0.84-0.08-1.21,0.27c-1.05,1.01-2.14,1.99-3.2,2.99
		c-0.13,0.12-0.23,0.28-0.4,0.48c0.21,0.03,0.31,0.07,0.39,0.05c1.07-0.36,2.04-0.04,3.01,0.4c2.87,1.29,5.17,3.27,7.12,5.71
		c2.7,3.39,4.51,7.26,6.09,11.25c0.09,0.22,0.2,0.53,0.37,0.59c0.71,0.27,0.78,0.85,0.94,1.47c0.19,0.76-0.01,1.23-0.72,1.5
		c-0.04,0.02-0.04,0.13-0.1,0.32c3.81-0.04,7.55-0.1,11.28-1c-0.68-0.75-0.83-1.55-0.77-2.41c0.03-0.44,0.12-0.9,0.03-1.32
		c-0.4-2.01-0.83-4.02-1.3-6.02c-0.68-2.9-1.45-5.77-2.9-8.39c-0.39-0.71-0.94-1.33-1.42-1.99c-0.06,0.04-0.12,0.08-0.18,0.11
		c-0.23,2.46-0.47,4.91-0.7,7.37c-0.19-0.1-0.25-0.21-0.26-0.32c-0.25-2.31-0.55-4.62-0.71-6.94c-0.1-1.43-0.03-2.87,0-4.3
		c0.01-0.62,0.33-0.92,1.03-0.81c0.58,0.09,1.19,0.09,1.78,0.09c1.77,0,2.29-0.63,2.16-2.37c-0.04-0.48,0.16-0.99,0.29-1.48
		c0.19-0.68,0.55-1.34,0.63-2.03c0.08-0.75,0.27-1.13,1.09-1.15c0.76-0.02,1.01-0.44,0.74-1.16c-0.25-0.64-0.64-1.24-0.86-1.89
		c-0.4-1.17-1.22-2.3-0.17-3.6c0.29-0.37,0.46-0.44,0.86-0.41c1.85,0.14,3.7,0.35,5.55,0.32c0.95-0.01,1.94-0.35,2.84-0.73
		c0.87-0.37,0.83-1.17,0-1.62c-0.45-0.24-0.94-0.47-1.44-0.58c-1.98-0.43-3.96-0.86-5.96-1.19c-0.87-0.14-1.38-0.45-1.77-1.28
		c-1.16-2.46-2.41-4.88-3.67-7.29c-0.81-1.54-2.15-2.21-3.88-2.06c-1.28,0.11-2.57,0.2-3.84,0.39c-2.48,0.37-4.9,0.99-7.15,2.16
		c-0.83,0.43-1.56,0.98-1.61,1.98c-0.07,1.37-0.02,2.74-0.02,4.21c1.37-0.5,2.51-0.99,3.69-1.33c1.17-0.33,2.39-0.5,3.59-0.75
		c0.01,0.07,0.03,0.14,0.04,0.21c-0.76,0.21-1.52,0.41-2.28,0.62c0.01,0.07,0.03,0.13,0.04,0.2c0.88,0,1.76,0,2.64,0
		c-0.21,0.17-0.44,0.23-0.67,0.27c-1.86,0.29-3.72,0.56-5.58,0.85c-1.28,0.2-1.49,0.55-1.21,1.94c3.79-1.25,7.66-1.71,11.62-1.15
		c3.93,0.56,7.57,1.94,10.98,3.96c-0.16,0.03-0.3,0-0.44-0.04c-2.25-0.59-4.48-1.25-6.75-1.77c-5.88-1.36-11.69-1.27-17.38,0.96
		c-2.49,0.98-4.7,2.35-6.22,4.62c-0.38,0.57-0.61,1.29-0.77,1.97c-0.13,0.58,0.23,0.97,0.87,0.87c0.53-0.08,1.06-0.23,1.58-0.39
		c2.01-0.6,4.02-1.22,6.04-1.82c0.49-0.15,0.96-0.18,1.03,0.53c0.24,2.4,0.32,4.79-0.14,7.18c-0.12,0.61-0.41,0.87-1.06,0.86
		c-0.61,0-1.22,0.16-1.83,0.25c0,0.08,0,0.15,0.01,0.23c0.22,0.09,0.43,0.19,0.65,0.28c1.98,0.84,4.01,1.58,5.93,2.53
		c4.67,2.32,7.92,5.86,8.92,11.16C154.31,70.33,154.06,69.86,153.81,69.38z M238.01,137.08c-1.16-0.54-2.32-1.21-3.56-1.63
		c-2.75-0.94-5.39-0.43-7.85,0.99c-1.91,1.1-3.76,2.28-5.88,2.98c-4.87,1.61-9.06,4.39-12.89,7.73c-1.95,1.71-3.3,3.88-3.81,6.49
		c-0.09,0.46-0.1,0.93-0.16,1.51c-0.16-0.21-0.3-0.34-0.36-0.5c-1.58-4.05-1.81-8.1,0.53-11.93c1.89-3.09,4.8-4.7,8.45-4.89
		c1.2-0.06,2.27,0.31,3.32,0.92c-0.14-0.24-0.26-0.51-0.44-0.73c-4.07-5.24-1.71-10.33,1.78-13.28c1.59-1.34,5.73-3.66,7.83-4.3
		c-4.74,5.18-6.27,11.42-7.04,18.2c1.79-4.54,4.95-6.97,9.63-7.39C232.43,130.81,235.54,133.42,238.01,137.08z M215.93,140.62
		c-0.72-0.6-1.39-0.7-2.04-0.32C214.57,140.41,215.22,140.51,215.93,140.62z M112.39,137.32c2.06-3.39,4.75-5.92,8.95-6.11
		c5.1-0.23,8.65,2.12,10.72,6.78c-0.81-6.28-2.03-12.37-6.49-17.37c0.28-0.03,0.36-0.06,0.42-0.04c2.92,1.27,5.75,2.7,8,5.01
		c1.76,1.81,2.9,3.94,2.91,6.55c0.01,1.67-0.58,3.15-1.48,4.52c-0.42,0.64-0.84,1.28-1.24,1.98c2.11-1.29,4.2-0.82,6.22,0.11
		c2.02,0.94,3.47,2.52,4.47,4.5c2,3.94,1.39,7.85-0.08,11.74c-0.07,0.01-0.14,0.01-0.21,0.02c-0.06-0.37-0.11-0.74-0.17-1.11
		c-0.43-2.64-1.72-4.87-3.55-6.73c-1.43-1.46-3.06-2.73-4.67-4c-1.1-0.87-2.28-1.67-3.51-2.37c-1.04-0.6-2.16-1.14-3.31-1.45
		c-1.56-0.42-2.95-1.08-4.24-2.05c-1.99-1.51-4.23-2.36-6.76-2.27C116.14,135.1,114.15,135.88,112.39,137.32z M135.64,140.32
		c0-0.09,0-0.18-0.01-0.27c-0.63,0.08-1.25,0.16-1.88,0.25c0.01,0.09,0.02,0.18,0.03,0.26C134.4,140.48,135.02,140.4,135.64,140.32z
		 M117.4,57.39c0.09,4.58,0.19,9.15,0.25,13.73c0.02,1.24-0.49,2.34-1.08,3.43c-0.51,0.94-0.85,1.98-1.16,2.72
		c-1.08-1.5-2.31-3.22-3.59-4.99c0,0.93-0.02,1.84,0.02,2.74c0.01,0.17,0.24,0.4,0.42,0.48c1.97,0.86,2.63,2.58,2.98,4.49
		c0.13,0.68,0.19,1.37,0.28,2.11c-1.27-0.73-2.52-1.36-3.64-2.16c-0.55-0.39-1.04-1.04-1.28-1.68c-0.43-1.14-0.65-2.35-0.95-3.53
		c0.07-0.04,0.14-0.08,0.21-0.11c0.34,0.21,0.68,0.42,1.09,0.67c0.51-1.51-0.68-2.28-1.3-3.51c-0.08,0.36-0.15,0.51-0.15,0.65
		c0,2.67,0.02,5.35,0.01,8.02c0,0.67,0.18,1,0.93,1.11c1.98,0.29,3.21,1.62,4.16,3.27c0.12,0.21,0.25,0.42,0.38,0.62
		c0.01,0.01,0.05,0.01,0.09,0.01c-0.11-2.66-2.06-3.74-4.3-4.79c2.28,0.07,4.64,1.85,5.13,3.89c0.38,1.58,0.54,3.21,0.8,4.82
		c-0.07,0.03-0.14,0.06-0.21,0.09c-0.25-0.35-0.51-0.69-0.76-1.04c-0.65-0.9-1.47-1.5-2.59-1.72c-1.7-0.33-2.86-1.36-3.7-2.93
		c0,1.22-0.03,2.44,0.01,3.65c0.02,0.76,0.55,1.02,1.25,1.1c2.2,0.25,3.73,1.46,4.69,3.42c0.03,0.06,0.03,0.14,0.07,0.28
		c-0.44-0.3-0.83-0.56-1.22-0.82c-0.02,0.03-0.05,0.06-0.07,0.09c0.57,0.64,1.14,1.29,1.7,1.92c0.25-0.8-0.29-2.93-1.26-3.87
		c-1-0.96-2.21-1.7-3.28-2.5c2.37,0.1,4.89,2.11,5.47,4.62c0.58,2.51,0.96,5.05,1.45,7.58c1.49,7.78,3.8,15.31,6.93,22.59
		c1.3,3.02,2.48,6.08,3.7,9.11c-0.94,0.55-1.29,0.43-1.74-0.54c-3.04-6.72-5.88-13.53-7.99-20.61c-0.48-1.63-1.4-2.67-2.9-3.31
		c-0.43-0.18-0.85-0.38-1.27-0.57c0.01-0.09,0.03-0.17,0.04-0.26c1.01,0.12,2.03,0.24,3.1,0.37c-0.21-1.03-0.44-2.13-0.67-3.24
		c-0.2-0.94-0.3-1.92-0.62-2.82c-0.47-1.32-1.18-2.49-2.69-2.91c1.17,0.99,1.98,2.21,2.38,3.54c-1.15-0.61-2.35-1.27-3.57-1.88
		c-2.03-1-3.57-2.47-4.48-4.56c-0.08-0.19-0.19-0.36-0.43-0.51c0,1.77,0,3.53,0,5.3c-0.04,0-0.08,0-0.12,0c0-2.01,0-4.03,0-6.23
		c0.4,0.44,0.72,0.78,1.13,1.24c0-1.51,0.06-2.87-0.04-4.23c-0.03-0.37-0.53-0.71-0.93-1.2c-0.05,0.45-0.08,0.68-0.11,0.92
		c-0.04,0-0.07,0-0.11,0c0-5.07,0-10.14,0-15.21c0.04,0,0.08-0.01,0.12-0.01c0.01,0.19,0.04,0.37,0.04,0.56
		c-0.01,1.68-0.01,3.37-0.04,5.05c-0.01,0.64,0.21,1.09,0.9,1.41c0-3.83,0-7.59,0-11.41c0.67,0.83,1.33,1.67,2.02,2.54
		c0-5.17,0-10.27,0-15.37c0.11,0,0.22,0,0.33,0c0,2.07-0.03,4.14,0.01,6.21c0.04,2.1,0.17,4.19,0.25,6.16
		c0.68-1.82,1.38-3.69,2.09-5.57c0.1,0.02,0.19,0.04,0.29,0.05c1.35,2.3,2.09,4.74,1.58,7.46c0.06,0.01,0.12,0.03,0.18,0.04
		c0.24-0.75,0.62-1.48,0.7-2.24c0.31-2.8,0.56-5.61,0.77-8.42c0.08-1.1,0.01-2.22,0.01-3.32C117.24,57.39,117.32,57.39,117.4,57.39z
		 M116.77,98.85c-0.08-0.6-0.15-1.13-0.22-1.67c-0.18-1.48-1.03-2.53-2.49-2.89c-1.96-0.48-3.47-1.52-4.34-3.38
		c-0.01-0.02-0.08-0.02-0.15-0.03c0,0.35,0,0.69,0,1.03c0,2.38-0.35,2.2,2.17,2.67c2.37,0.44,4.23,1.51,4.86,4.05
		C116.62,98.69,116.69,98.74,116.77,98.85z M108.69,88.23c0.08-0.05,0.17-0.09,0.25-0.14c0.03-0.09,0.08-0.19,0.08-0.28
		c0.03-1.55,0.08-3.1,0.07-4.66c0-0.72-0.44-1.24-1.04-1.8c0,2.01-0.03,3.89,0.03,5.75C108.09,87.49,108.48,87.85,108.69,88.23z
		 M241.08,71.75c-0.61,1.13-1.61,1.97-1.22,3.55c0.44-0.35,0.79-0.62,1.14-0.89c0.45,2.51-1.1,5.32-3.4,6.33
		c-0.77,0.34-1.46,0.87-2.21,1.32c0.15-1.77,0.34-3.59,1.46-5.13c0.39-0.54,1-0.95,1.57-1.3c0.4-0.25,0.66-0.47,0.66-0.96
		c-0.01-0.83,0-1.66,0-2.57c-1.26,1.84-2.49,3.62-3.56,5.18c-0.34-0.76-0.75-1.82-1.28-2.81c-0.7-1.32-1.1-2.67-1.08-4.18
		c0.06-3.99,0.05-7.98,0.07-11.96c0-0.3,0-0.59,0.05-0.89c0.44,4.58,0.04,9.28,1.95,13.66c-0.41-2.58,0.33-4.89,1.67-7.23
		c1.09,1.86,1.88,3.7,2.23,5.75c0.6-4.35,0.4-8.72,0.6-13.08c0.34,5.22,0.48,10.43,0.15,15.88c0.78-0.99,1.42-1.81,2.06-2.62
		c0,3.76,0,7.5,0,11.27c0.73-0.08,0.92-0.6,0.92-1.29c-0.01-1.38,0-2.77,0.09-4.15c0,5.11,0,10.22,0,15.33c-0.06,0-0.11,0-0.17,0.01
		c0-0.71,0-1.43,0-2.34c-0.75,0.62-1.06,1.24-1.07,2c-0.01,1.06,0,2.12,0,3.33c0.41-0.43,0.74-0.78,1.15-1.21c0,1.63,0,3.15,0,4.67
		c-0.04,0-0.08,0-0.11,0c0-1.25,0-2.51,0-3.76c-0.05-0.02-0.11-0.03-0.16-0.05c-0.09,0.14-0.2,0.28-0.26,0.44
		c-0.97,2.37-2.66,4.01-4.99,5.04c-0.99,0.44-1.93,0.98-2.93,1.48c0.35-1.37,1.2-2.45,2.32-3.37c-0.05-0.06-0.1-0.13-0.16-0.19
		c-0.49,0.37-1.11,0.65-1.45,1.12c-0.52,0.73-1,1.56-1.24,2.42c-0.46,1.61-0.75,3.28-1.1,4.93c-0.04,0.21-0.03,0.43-0.04,0.59
		c1.01-0.11,1.97-0.22,2.93-0.32c0.01,0.08,0.03,0.16,0.04,0.25c-0.49,0.23-0.98,0.45-1.46,0.68c-1.28,0.6-2.14,1.56-2.56,2.92
		c-2.08,6.91-5.05,13.48-7.87,20.1c-0.13,0.3-0.29,0.58-0.44,0.86c-0.43,0.81-0.65,0.89-1.71,0.6c0.16-0.44,0.3-0.87,0.47-1.3
		c2.15-5.35,4.37-10.67,6.45-16.04c2.1-5.42,3.46-11.05,4.44-16.77c0.27-1.56,0.46-3.14,0.78-4.68c0.6-2.89,2.82-4.96,5.3-5.17
		c-0.95,0.78-2.11,1.56-3.05,2.54c-1.01,1.04-1.32,2.43-1.3,3.94c0.71-0.79,1.35-1.51,2-2.24c-0.02-0.03-0.03-0.06-0.05-0.09
		c-0.45,0.27-0.9,0.53-1.5,0.89c0.64-1.49,1.58-2.52,2.91-3.13c0.66-0.3,1.41-0.46,2.13-0.59c0.85-0.16,1.03-0.31,1.04-1.14
		c0-1.21,0-2.42,0-3.65c-0.12,0.03-0.19,0.02-0.2,0.05c-0.66,1.65-1.76,2.73-3.6,3.06c-1.08,0.19-1.87,0.98-2.53,1.84
		c-0.2,0.25-0.38,0.51-0.72,0.75c0.01-0.27,0.02-0.54,0.05-0.81c0.13-1.13,0.18-2.28,0.42-3.39c0.52-2.47,2.18-3.98,4.74-4.38
		c-2.07,1.04-3.75,2.38-3.66,5.02c0.16-0.33,0.33-0.66,0.49-1c0.86-1.81,2.14-3.08,4.24-3.29c0.44-0.04,0.76-0.22,0.75-0.74
		c-0.03-2.92-0.05-5.84-0.08-8.76C241.22,72,241.17,71.94,241.08,71.75z M241.31,91.15c-0.99,1.61-2.37,2.56-4.15,3.06
		c-2.24,0.63-3.1,1.96-2.92,4.33c0.05-0.07,0.11-0.12,0.13-0.19c0.56-1.96,1.89-3.07,3.83-3.54c0.75-0.18,1.49-0.35,2.24-0.51
		c0.61-0.13,0.89-0.48,0.88-1.09C241.3,92.53,241.31,91.84,241.31,91.15z M241.83,88.06c0.68-0.02,0.98-0.27,0.98-0.86
		c0-1.83-0.01-3.66-0.01-5.48c0-0.05-0.07-0.1-0.2-0.29c-0.29,0.49-0.72,0.89-0.74,1.3C241.78,84.49,241.83,86.24,241.83,88.06z
		 M175.86,97.41c0-0.97-0.04-1.88,0.01-2.79c0.28-5.54,0.58-11.08,0.86-16.61c0.24-4.65,0.46-9.3,0.72-13.95
		c0.03-0.64,0.01-1.08-0.8-1.19c-0.25-0.03-0.56-0.59-0.6-0.94c-0.07-0.66,0.01-1.34,0.09-2c0.08-0.68-0.19-1.12-0.72-1.5
		c-1.31-0.93-2.58-1.93-3.89-2.86c-1.53-1.08-2.12-2.49-1.86-4.37c0.18-1.29,0.17-2.62,0.19-3.93c0.01-0.88,0.42-1.34,1.22-1.63
		c1.31-0.48,2.62-0.4,3.96-0.23c3.88,0.49,7.76,0.94,11.64,1.44c0.35,0.05,0.68,0.32,1.01,0.5c0.12,0.07,0.2,0.25,0.32,0.28
		c0.99,0.24,1.14,0.94,1.08,1.83c-0.12,1.68-0.22,3.36-0.27,5.04c-0.03,0.97-0.44,1.68-1.23,2.14c-1.35,0.78-2.69,1.58-4.11,2.22
		c-1.06,0.48-1.63,1.12-1.51,2.32c0.04,0.34-0.02,0.69-0.05,1.04c-0.09,0.86-0.29,1.08-1.16,1.09c-0.54,0.01-0.59,0.3-0.61,0.71
		c-0.18,2.99-0.39,5.98-0.55,8.97c-0.4,7.32-0.79,14.64-1.16,21.96c-0.03,0.52-0.2,0.85-0.67,1.12
		C177.08,96.44,176.5,96.94,175.86,97.41z M171.83,48.86c0,0.72,0.07,1.52-0.02,2.3c-0.14,1.25,0.34,2.14,1.34,2.85
		c1.36,0.95,2.69,1.94,4.04,2.91c0.76,0.54,1.17,1.26,1.16,2.2c0,0.17-0.01,0.35,0.03,0.52c0.14,0.6,0.69,0.48,1.1,0.53
		c0.14,0.02,0.47-0.25,0.47-0.38c-0.06-1.41,0.87-2.07,1.94-2.64c1.25-0.66,2.49-1.33,3.74-1.97c0.74-0.38,1.12-0.91,1.08-1.77
		c-0.03-0.64,0.03-1.29,0.12-1.92c0.1-0.67-0.13-0.93-0.8-0.99c-2.91-0.3-5.81-0.64-8.71-0.97
		C175.49,49.31,173.68,49.09,171.83,48.86z M183.38,131.64c-2.66-1.76-5.25-3.64-7.99-5.26c-10.58-6.21-21.94-8.22-34.03-6.07
		c-0.75,0.13-1.5,0.34-2.24,0.51c0.28,0.17,0.52,0.18,0.76,0.17c6.95-0.3,13.66,0.84,20.12,3.41c6.61,2.63,12.62,6.27,17.98,10.95
		c0.15,0.13,0.53,0.2,0.66,0.1c1.66-1.16,3.29-2.37,4.99-3.6C183.53,131.76,183.46,131.69,183.38,131.64z M218.66,101.1
		c0.01,1.76-0.75,2.74-2.22,3.27c-1.46,0.52-2.91,1.1-4.33,1.73c-0.28,0.12-0.53,0.56-0.59,0.89c-0.1,0.53-0.03,1.08-0.03,1.75
		c1.93-0.73,3.77-1.44,5.84-2.22c-0.13,0.88-0.19,1.57-0.35,2.25c-0.04,0.16-0.37,0.29-0.58,0.38c-1.38,0.56-2.75,1.11-4.14,1.64
		c-0.6,0.23-0.8,0.63-0.79,1.26c0.02,2.5,0.01,5,0,7.5c0,0.29-0.05,0.58-0.07,0.84c-1.62-0.46-3.18-0.9-4.74-1.34
		c-0.07-0.02-0.14-0.04-0.22-0.05c-1.45-0.27-1.47-0.3-1.43-1.96c0.36,0.23,0.68,0.43,1.04,0.66c0.11-0.38,0.2-0.7,0.35-1.25
		c0.23,0.38,0.37,0.61,0.61,1.01c0.15-0.72,0.25-1.19,0.39-1.88c0.14,0.49,0.22,0.78,0.31,1.1c0.77-0.57,1.43-2.93,1.05-3.8
		c-1.02,0.55-2.05,1.07-3.06,1.63c-2.19,1.22-1.69,0.46-1.81,2.95c-0.01,0.25,0.03,0.51-0.03,0.74c-0.04,0.16-0.2,0.41-0.33,0.42
		c-0.61,0.05-1.25,0.11-1.84,0c-0.24-0.04-0.41-0.5-0.67-0.85c-0.31,0.15-0.72,0.37-1.15,0.55c-0.62,0.26-1.75-0.51-1.69-1.17
		c0.02-0.17,0.22-0.37,0.39-0.48c0.6-0.4,1.2-0.78,1.83-1.13c0.62-0.34,0.89-0.8,0.82-1.51c-0.05-0.49-0.01-0.99-0.01-1.63
		c-0.47,0.27-0.87,0.48-1.26,0.71c-0.92,0.53-1.83,1.09-2.77,1.59c-0.24,0.13-0.71,0.19-0.86,0.06c-0.32-0.31-0.52-0.76-0.72-1.17
		c-0.03-0.05,0.19-0.26,0.32-0.34c1.52-0.92,3.04-1.85,4.59-2.73c0.49-0.28,0.75-0.59,0.67-1.18c-0.05-0.37,0.04-0.75-0.04-1.11
		c-0.2-0.93,0.48-1.4,0.97-1.95c0.09-0.1,0.37-0.11,0.53-0.05c0.91,0.3,1.26,0.81,1.29,1.77c0,0.07,0.02,0.15,0.04,0.33
		c0.37-0.2,0.71-0.37,1.05-0.55c1.09-0.59,2.17-1.19,3.27-1.76c0.4-0.21,0.6-0.48,0.54-0.94c-0.04-0.34,0-0.7-0.06-1.04
		c-0.14-0.84,0.35-1.38,0.99-1.64c0.36-0.14,0.99,0.02,1.31,0.28c0.32,0.26,0.41,0.81,0.62,1.3
		C213.92,103.04,216.24,102.09,218.66,101.1z M208.64,108.02c-1.45,0.8-2.86,1.57-4.25,2.36c-0.19,0.11-0.41,0.35-0.43,0.54
		c-0.05,0.65-0.02,1.32-0.02,2.1c1.53-0.83,2.98-1.55,4.35-2.41C209.11,110.1,209.17,109.21,208.64,108.02z M138.64,125.9
		c1.18-0.1,2.38-0.14,3.56-0.05c5.59,0.41,10.82,2.08,15.78,4.62c5.26,2.69,10.01,6.1,14.21,10.27c0.73,0.72,0.73,0.71,1.41-0.09
		c0.5-0.58,1-1.17,1.54-1.71c0.86-0.86,0.87-0.93-0.06-1.71c-3.99-3.37-8.28-6.28-12.96-8.61c-7.43-3.7-15.15-5.95-23.57-4.79
		c-0.52,0.07-0.72-0.21-0.78-0.67c-0.1-0.79-0.15-1.58-0.31-2.36c-0.32-1.49-0.61-3.01-1.1-4.45c-0.42-1.24-1.44-1.63-2.7-1.12
		c0.66,0.63,1.25,1.19,1.84,1.75c-0.79,0.43-1.18,1.2-1.36,2.39c0.98-0.37,1.79-0.68,2.59-0.98c0.14,1.16,0.28,2.39,0.45,3.61
		c0.23,1.67,0.24,1.67-1.26,2.37C136.8,126.06,136.85,126.05,138.64,125.9z M198.93,151.26c0-1.83,0.01-3.66,0-5.49
		c-0.02-1.79-0.69-2.61-2.43-3.04c-2.72-0.67-5.44-0.63-8.16,0.03c-1.7,0.41-2.41,1.3-2.43,3.06c-0.01,2.03-0.01,4.06,0,6.09
		c0,1.58,0,3.17,0.02,4.75c0.01,0.92,0.17,1.06,1.1,1.09c0.17,0.01,0.35,0,0.52,0.01c0.54,0.04,0.77-0.23,0.76-0.75
		c-0.01-0.99-0.01-1.98,0-2.97c0-1.29,0-2.58,0.03-3.86c0.02-0.9,0.6-1.49,1.41-1.51c0.82-0.02,1.4,0.52,1.49,1.43
		c0.03,0.29,0.03,0.59,0.03,0.89c0.01,1.88,0.01,3.76,0.03,5.65c0.01,1.04,0.19,1.11,1.5,1.14c0.88,0.02,0.85-0.51,0.85-1.12
		c-0.01-2.13-0.01-4.26,0.02-6.39c0.02-1.15,0.76-1.77,1.75-1.56c0.7,0.15,1.1,0.7,1.11,1.63c0.02,2.1,0,4.21,0.02,6.31
		c0.01,1,0.23,1.11,1.54,1.12c0.84,0.01,0.8-0.51,0.8-1.09c-0.01-1.81,0-3.61,0-5.42C198.89,151.26,198.91,151.26,198.93,151.26z
		 M198.04,53.52c-0.03-0.69,0.17-1.14,0.77-1.54c1.51-0.99,2.77-2.28,3.57-3.9c0.55-1.1,1.2-1.72,2.48-1.35
		c0.02,0,0.05-0.07,0.09-0.12c-0.26-0.29-0.51-0.59-0.78-0.88c-1.19-1.3-2.26-1.43-3.73-0.45c-1.74,1.16-1.74,1.16-3.24-0.38
		c-0.16-0.16-0.31-0.32-0.47-0.48c-1.55-1.45-3.08-2.93-4.67-4.34c-1.66-1.48-3.45-2.82-5.06-4.35c-1.24-1.18-2.29-2.56-3.45-3.88
		c0.09,0.68,0.1,1.37,0.27,2.02c0.31,1.17,0.78,2.29,1.06,3.46c0.38,1.55,1.08,2.9,2.12,4.11c0.39,0.46,0.71,1,0.98,1.55
		c0.4,0.8,0.89,1.44,1.73,1.85c0.43,0.21,0.82,0.66,1.04,1.09c0.86,1.68,2.19,2.84,3.8,3.75c0.45,0.25,0.78,0.2,1.1-0.2
		c0.34-0.43,0.7-0.83,1.05-1.25c-0.31,0.8-0.77,1.49-1.16,2.23c-0.46,0.87-1.11,1.4-2.08,1.62c-0.84,0.2-1.66,0.52-2.69,0.85
		c2.64,1.13,5.19,1.93,7.28,4.06C198.05,55.68,198.08,54.6,198.04,53.52z M104.46,108.91c1.49,0.65,3,1.25,4.47,1.94
		c3.26,1.53,6.28,3.45,9.2,5.56c1.61,1.16,2.7,2.73,3.47,4.55c0.8,1.91,1.23,3.9,1.49,6.04c-1.86-1.82-3.65-3.58-5.44-5.34
		c2.04,3.41,4.89,6.06,7.97,8.51c-2.83-0.84-5.67-1.6-8.24-3.09c-3.02-1.76-4.98-4.47-6.55-7.5c-0.96-1.87-1.86-3.77-2.83-5.64
		c-0.94-1.81-2.13-3.45-3.65-4.83C104.39,109.04,104.43,108.97,104.46,108.91z M115.55,115.86c-0.07,0.07-0.14,0.14-0.21,0.21
		c1.16,1.05,2.33,2.1,3.49,3.14c0.06-0.07,0.13-0.14,0.19-0.22C117.86,117.94,116.71,116.9,115.55,115.86z M225.59,129.98
		c2.9-2.58,5.74-5.16,7.66-8.58c-1.8,1.88-3.61,3.76-5.41,5.64c-0.07-0.03-0.13-0.05-0.2-0.08c0.07-0.59,0.13-1.18,0.23-1.76
		c0.55-3.42,1.74-6.55,4.58-8.72c1.76-1.35,3.64-2.59,5.6-3.63c2.62-1.39,5.36-2.53,8.05-3.78c0.1-0.05,0.22-0.07,0.37-0.06
		c-2.87,2.46-4.27,5.84-5.9,9.08c-0.76,1.5-1.53,3-2.45,4.41c-1.87,2.87-4.5,4.84-7.74,5.96C228.79,129,227.18,129.47,225.59,129.98
		z M232.09,118.79c1.1-0.96,2.21-1.92,3.31-2.87C234.02,116.53,232.9,117.47,232.09,118.79z M223.42,94.86
		c-0.29,0.33-0.59,0.65-0.85,1c-1.04,1.4-1.65,3-1.98,4.68c-1.17,5.97-2.3,11.95-3.43,17.94c-0.28,1.47-0.47,2.95-0.72,4.51
		c0.87-0.39,1.42-0.89,1.64-1.73c0.37-1.36,0.78-2.71,1.17-4.07c0.4-1.39,0.8-2.78,1.2-4.16c0.04,0.01,0.08,0.02,0.13,0.03
		c-0.5,2.74-1.01,5.48-1.54,8.35c1.39-0.68,2.64-1.31,3.91-1.9c0.53-0.25,0.78-0.61,0.84-1.19c0.12-1.23,0.3-2.46,0.42-3.69
		c0.45-4.61,0.46-9.2-0.58-13.74c-0.46-1.98-1.02-3.95-0.02-5.95C223.55,94.9,223.49,94.88,223.42,94.86z M126.91,95.17
		c0.71,1.37,0.55,2.78,0.26,4.2c-0.35,1.77-0.74,3.54-0.96,5.33c-0.57,4.61-0.16,9.2,0.48,13.77c0.04,0.26,0.18,0.62,0.39,0.74
		c1.06,0.62,2.15,1.19,3.36,1.84c-0.47-2.76-0.92-5.36-1.37-7.95c0.42,0.99,0.7,2.01,0.96,3.03c0.36,1.44,0.69,2.89,1.08,4.32
		c0.26,0.95,0.8,1.71,1.89,2.07c-0.13-0.76-0.24-1.41-0.36-2.07c-0.97-5.51-1.92-11.02-2.94-16.52c-0.44-2.35-1-4.69-1.59-7.01
		c-0.17-0.66-0.64-1.24-0.98-1.86C127.07,95.1,126.99,95.13,126.91,95.17z M189.2,131.53c-0.06-0.04-0.11-0.08-0.17-0.12
		c-5.68,2.73-10.42,6.59-14.13,11.74c2.08,1.73,4.11,3.42,6.05,5.03C183.71,142.6,186.45,137.07,189.2,131.53z M231.31,146.82
		c-0.24-0.5-0.47-1.01-0.72-1.51c-0.93-1.81-1.95-3.57-3.54-4.9c-1.16-0.97-2.51-1.46-4-1.11c-1.32,0.31-2.65,0.67-3.87,1.25
		c-3.19,1.52-5.69,3.72-6.27,7.46c-0.19,1.25-0.27,2.51-0.39,3.77c0.07,0.02,0.15,0.04,0.22,0.06c2.08-1.85,4.24-3.63,5.84-5.96
		c0.69-1.01,1.64-1.52,2.83-1.69c3.36-0.48,6.37,0.4,9.14,2.28c0.21,0.14,0.43,0.29,0.64,0.43
		C231.24,146.88,231.28,146.85,231.31,146.82z M135.61,145.06c-1.63-3.09-4.41-4.66-7.6-5.61c-1.75-0.52-3.37-0.17-4.8,1.01
		c-2.07,1.7-3.15,4.05-4.27,6.41c0.31-0.12,0.56-0.29,0.82-0.46c2.39-1.6,5.02-2.42,7.91-2.33c1.57,0.05,2.8,0.66,3.65,2.03
		c1.42,2.31,3.57,3.93,5.56,5.97C136.88,149.5,136.74,147.19,135.61,145.06z M204.99,53.55c0.89-0.12,1.73-0.23,2.59,0.17
		c0.29,0.14,0.7,0.16,1.02,0.08c1.2-0.32,2.44-0.24,3.65-0.36c2.13-0.22,4.14-0.94,6.07-1.83c0.67-0.31,1.29-0.7,2-1.1
		c-1.88-0.11-3.62-0.1-5.33-0.34c-3.94-0.56-7.86-1.24-11.79-1.85c-0.24-0.04-0.63,0.04-0.76,0.21c-0.99,1.26-1.93,2.55-2.94,3.91
		C201.23,53.23,203.03,53.81,204.99,53.55z M235.23,110.12c1.26,0.5,2.45,0.36,3.46-0.57c1.41-1.31,2.53-2.89,2.69-4.83
		c0.22-2.76,0.19-5.53,0.25-8.3c0-0.07-0.09-0.15-0.22-0.35c-0.06,0.56-0.13,0.97-0.13,1.39c-0.01,0.84-0.43,1.33-1.21,1.56
		c-0.59,0.18-1.17,0.39-1.76,0.58c-1.26,0.41-2.45,0.95-3.39,1.91c-0.63,0.64-1.1,1.36-1.27,2.37c0.95-0.75,1.63-1.72,3.05-1.85
		c-1.41,0.89-2.58,1.77-3.14,3.13c0.9-0.14,1.78-0.32,2.68-0.42c2.01-0.22,3.4-1.24,4.16-3.12c0.23-0.58,0.5-1.14,0.75-1.71
		c0.13,1.13,0.16,2.22,0.12,3.3c-0.05,1.58-0.8,2.52-2.34,2.94c-0.71,0.19-1.47,0.25-2.18,0.46c-1.95,0.58-3.8,1.34-4.72,3.63
		C233.19,109.53,234.2,109.71,235.23,110.12z M193.4,124.36c-2.57,5.99-4.82,12.11-6.8,18.17c1.33-0.24,2.62-0.52,3.94-0.68
		c0.62-0.08,0.84-0.31,0.91-0.9c0.41-3.31,0.85-6.62,1.29-9.92c0.29-2.2,0.59-4.4,0.89-6.6
		C193.55,124.39,193.47,124.37,193.4,124.36z M123.38,83.36c0,0.24,0,0.48,0,0.72c0,1.78,0,3.57,0.01,5.35
		c0.01,1.75-0.65,3.12-2.2,4.01c-0.78,0.45-1.34,1.11-1.61,1.97c-0.55,1.71-0.2,3.35,0.36,4.98c0.44-0.84,0.86-1.65,1.27-2.46
		c0.06,0.03,0.11,0.06,0.17,0.09c-0.35,1.32-0.69,2.65-1.04,3.97c0.35-0.11,0.53-0.31,0.74-0.45c1.83-1.2,2.73-2.97,2.74-5.08
		c0.02-4.26-0.09-8.51-0.15-12.77c0-0.11-0.05-0.22-0.08-0.33C123.52,83.35,123.45,83.36,123.38,83.36z M226.99,84.64
		c0,3.87,0,7.75,0.01,11.62c0,0.32,0.07,0.64,0.14,0.95c0.42,2.03,1.5,3.58,3.44,4.69c-0.39-1.4-0.74-2.65-1.09-3.9
		c0.07-0.03,0.14-0.05,0.21-0.08c0.42,0.84,0.85,1.68,1.3,2.58c0.15-0.6,0.31-1.17,0.42-1.75c0.48-2.48-0.16-4.5-2.43-5.85
		c-1.07-0.64-1.53-1.64-1.58-2.86c-0.07-1.56-0.11-3.11-0.17-4.67c-0.01-0.26-0.05-0.51-0.07-0.77
		C227.11,84.63,227.05,84.63,226.99,84.64z M195.47,126.98c-0.3,3.18-0.61,6.36-0.88,9.54c-0.13,1.55-0.2,3.11-0.26,4.67
		c-0.01,0.22,0.19,0.61,0.36,0.65c1.23,0.29,2.48,0.52,3.74,0.77c-1.45-5.23-2-10.71-2.84-16.17
		C195.54,126.62,195.48,126.79,195.47,126.98z M225.54,91.42c-0.02,0.23-0.06,0.46-0.07,0.7c-0.08,2.77-0.18,5.54-0.21,8.32
		c-0.02,1.95-0.01,3.92,0.68,5.79c0.48,1.31,1.29,2.35,2.69,3.16c-0.13-1.77-0.26-3.36-0.38-4.95c0.06-0.03,0.11-0.05,0.17-0.08
		c0.38,0.92,0.77,1.83,1.13,2.7c-0.01,0.02,0.05-0.06,0.08-0.14c0.84-2.12,0.16-4.53-1.92-5.95c-1.51-1.03-2.08-2.3-1.98-4.08
		c0.1-1.82,0.02-3.65,0.02-5.47C225.69,91.43,225.62,91.43,225.54,91.42z M125.13,93.75c-0.02,1.41-0.04,2.82-0.04,4.23
		c0,1.16-0.49,2.03-1.47,2.66c-0.52,0.33-1.02,0.72-1.46,1.14c-1.45,1.4-1.78,3.98-0.69,5.45c0.09-1.13,0.3-2.16,1.24-2.93
		c-0.14,0.88-0.31,1.68-0.38,2.48c-0.06,0.8-0.01,1.61-0.01,2.42c1.87-1.38,2.71-2.61,2.99-4.45c0.59-3.93-0.01-7.85-0.14-11.78
		C125.15,93.24,125.13,93.5,125.13,93.75z M232.72,92.29c0.53-2.51,0.06-5.19-2.36-6.66c-1.03-0.63-1.5-1.51-1.48-2.71
		c0.03-1.81,0.01-3.62,0.01-5.42c0-0.23-0.02-0.45-0.04-0.68c-0.18,0.14-0.25,0.29-0.25,0.44c-0.06,3.42-0.12,6.83-0.16,10.25
		c-0.01,0.44,0.07,0.89,0.17,1.32c0.45,1.98,1.24,3.71,3.3,4.54c0.35,0.14,0.63,0.43,0.95,0.65c0.03-0.02,0.07-0.05,0.1-0.07
		c-0.67-0.8-1.34-1.6-2.01-2.4c0.06-0.05,0.13-0.11,0.19-0.16c0.45,0.36,0.91,0.73,1.37,1.09
		C232.65,92.36,232.71,92.33,232.72,92.29z M118.09,94.06c0.37-0.27,0.7-0.61,1.11-0.8c1.89-0.87,2.67-2.5,2.98-4.4
		c0.63-3.74,0.14-7.48-0.13-11.22c-0.08,1.58-0.12,3.16-0.06,4.74c0.05,1.57-0.45,2.77-1.88,3.58c-2.05,1.16-2.84,4.02-1.78,6.69
		c0.47-0.38,0.93-0.76,1.4-1.14c0.06,0.06,0.12,0.11,0.18,0.17c-0.63,0.77-1.26,1.55-1.89,2.32
		C118.04,94.02,118.07,94.04,118.09,94.06z M117.18,103.52c-0.03-0.12-0.07-0.24-0.11-0.35c-0.67-1.75-2.03-2.76-3.72-3.38
		c-0.77-0.28-1.55-0.53-2.33-0.74c-1-0.26-1.51-0.88-1.54-1.9c-0.01-0.22-0.04-0.44-0.07-0.66c-0.07,0-0.15,0.01-0.22,0.01
		c0,0.51-0.07,1.03,0.01,1.53c0.28,1.82,1.2,3.38,2.15,4.9c0.58,0.93,1.55,1.44,2.64,1.64c1.14,0.21,2.28,0.4,3.61,0.64
		c-0.86-1.03-1.65-1.98-2.43-2.91c0.01,0,0.12-0.01,0.18,0.04c0.6,0.43,1.2,0.86,1.83,1.31
		C117.19,103.61,117.2,103.56,117.18,103.52z M221.59,56.79c-1.35,4-3.3,7.29-8.15,7.32c0.19,0.98,0.36,1.86,0.53,2.74
		C218.72,67.19,223.31,61.19,221.59,56.79z M118.84,110.09c-0.31-0.46-0.58-0.97-0.95-1.37c-1.01-1.08-2.29-1.71-3.7-2.09
		c-0.83-0.23-1.69-0.37-2.52-0.62c-1.14-0.35-1.84-1.13-2-2.34c-0.08-0.64-0.1-1.28-0.15-1.92c-0.04-0.61-0.08-1.22-0.13-1.84
		c-0.13,1.02-0.12,2.03-0.13,3.05c-0.03,2.32,0.82,4.29,2.28,6.05c1.1,1.32,2.23,1.69,3.82,1.11c1.14-0.41,2.23-0.69,3.32,0.2
		C118.74,110.24,118.79,110.16,118.84,110.09z M216.24,72.55c0.52,0.35,1.04,0.28,1.6,0.05c1.56-0.63,2.61-1.73,3.2-3.3
		c0.38-1.01,0.17-1.4-0.89-1.63c-1.66-0.36-3.23-0.11-4.76,0.61c-0.38,0.18-0.84,0.21-1.34,0.33c0.34,0.64,0.72,1.4,1.13,2.15
		c0.34,0.62,0.72,1.21,1.08,1.82C216.26,72.57,216.24,72.55,216.24,72.55z M141.46,133.99c-1.64,0.05-3.12,0.96-3.49,2.17
		c2.57-1.69,4.96-1.26,7.27,0.52c0.33,0.25,0.74,0.39,1.12,0.59c-0.57,1.6-0.42,2.5,0.61,3.12c0.79-0.79,0.97-1.65,0.2-2.72
		c0.92,0.54,1.06,0.94,0.72,1.71c-0.43,0.98-0.14,2.23,0.79,2.97c0.25-0.43,0.66-0.83,0.68-1.25c0.03-0.61-0.22-1.24-0.33-1.73
		c0.66-0.25,1.43-0.54,2.2-0.83c0-0.12,0-0.25,0-0.37c-0.91-0.26-1.82-0.51-2.76-0.78c0.25-0.19,0.51-0.38,0.84-0.63
		c-0.94-0.5-1.81-0.65-2.72,0.02C146.04,135.32,143.42,133.93,141.46,133.99z M212.27,118.72c0.24,0.08,0.39,0.14,0.6,0.21
		c-0.06-0.47-0.12-0.88-0.18-1.35c0.69,0.37,1.34,0.72,1.99,1.07c0.04-0.04,0.08-0.09,0.12-0.13c-0.28-0.23-0.59-0.42-0.82-0.69
		c-0.25-0.29-0.45-0.64-0.64-0.98c-0.12-0.2-0.14-0.47-0.3-0.62c-0.48-0.47-0.54-0.99-0.46-1.63c0.08-0.65,0.02-1.31,0.02-2.05
		c0.27,0.2,0.5,0.37,0.8,0.59c0.04-0.33,0.08-0.6,0.13-1.02c0.27,0.4,0.48,0.71,0.69,1.03c0.08-0.05,0.16-0.1,0.24-0.15
		c0.14-0.42,0.29-0.84,0.47-1.37c0.37,0.52-0.1,1.45,0.99,1.42c-0.36,2.69-0.72,5.33-1.1,8.1c-0.41-0.22-0.64-0.34-0.96-0.51
		c0.06,0.21,0.13,0.36,0.14,0.51c0.01,0.21-0.02,0.43-0.03,0.65c-0.22-0.07-0.49-0.07-0.64-0.21
		C212.52,120.85,212.35,119.86,212.27,118.72z M214.77,117.2c0.05-0.53,0.09-0.97,0.13-1.4c-0.42,0.06-0.74,0.1-0.97,0.13
		C214.18,116.29,214.43,116.68,214.77,117.2z M171.09,142.86c2.48,3.04,4.97,6.07,7.57,8.99c1.17,1.31,2.71,2.19,4.39,2.79
		C180.02,149.74,175.57,146.3,171.09,142.86z M197.36,33.62c0.56,1.22,1.48,2.08,2.63,2.73c0.97,0.55,1.74,1.29,1.76,2.48
		c0.02,1.17,0.12,1.16,1.47,1.28c0.2-2.12,1.83-2.7,3.55-3.22c0.66-0.2,1.3-0.48,1.91-0.8c0.49-0.26,0.92-0.64,1.51-1.07
		c-1.7,0.31-3.17,0.58-4.65,0.84c-0.73,0.13-1.36,0.4-1.83,1.01c-0.43,0.56-0.88,0.51-1.18-0.14c-0.35-0.75-0.94-1.16-1.65-1.52
		c-1.23-0.62-2.42-1.31-3.65-1.98C197.24,33.27,197.28,33.45,197.36,33.62z M169.69,146.1c-1.98-0.46-2.35-0.12-2.17,1.94
		c0.08,0.96,1.12,2.17,1.88,2.32c0.04-0.1,0.07-0.21,0.12-0.34c0.67,0.45,1.32,0.89,1.98,1.32c0.03-0.04,0.06-0.08,0.09-0.12
		c-0.45-0.62-0.91-1.25-1.36-1.87c0.03-0.04,0.06-0.08,0.1-0.11c0.84,0.44,1.68,0.88,2.52,1.31c0.02-0.03,0.04-0.07,0.06-0.1
		c-0.61-0.71-1.22-1.41-1.83-2.12c0.04-0.04,0.08-0.09,0.11-0.13c0.63,0.27,1.25,0.53,1.88,0.8
		C172.16,147.75,171.27,146.46,169.69,146.1z M117.3,112.57c1.33,0.04,1.95,0.92,2.76,1.54c-0.43-2.62-3.68-4.36-5.71-3.07
		c0.48,0.83,0.96,1.67,1.45,2.49c0.53,0.88,1.33,1.33,2.32,1.57c0.7,0.17,1.37,0.49,2.05,0.74
		C119.75,114.44,118.8,113.39,117.3,112.57z M174.46,82.44c0.06-0.03,0.13-0.05,0.19-0.08c0.15-2.27,0.3-4.53,0.45-6.8
		c0.02-0.35,0.01-0.68-0.49-0.58c-1.11,0.21-2.22,0.43-3.5,0.68C172.27,78,173.36,80.22,174.46,82.44z M161.09,118.34
		c-5.11-1.89-10.37-2.48-15.77-1.83c-0.87,0.11-1.73,0.38-2.59,0.58c0.01,0.07,0.03,0.14,0.04,0.21c6.27-0.18,12.5,0.07,18.69,1.24
		C161.34,118.48,161.22,118.39,161.09,118.34z M232.95,112.75c-1.12,0.79-1.92,1.81-2.37,2.99c0.72-0.23,1.48-0.4,2.18-0.71
		c0.66-0.29,1.41-0.6,1.84-1.13c0.72-0.88,1.21-1.95,1.8-2.95c-2.66-0.91-5.24,0.53-5.69,3.23
		C231.38,113.41,231.99,112.8,232.95,112.75z M117.09,84.78c-0.02,0.81,0.17,1.04,1.01,1c1.14-0.05,2.11-0.84,2.25-2.18
		c0.15-1.38,0.03-2.79,0.03-4.33C118.31,80.67,117.16,82.4,117.09,84.78z M230.49,81.65c0.02,0.78,0.05,1.59,0.24,2.34
		c0.34,1.33,1.2,1.82,2.57,1.68c0.47-0.05,0.63-0.27,0.61-0.73c-0.11-2.45-1.23-4.31-3.31-5.65
		C230.56,80.12,230.47,80.88,230.49,81.65z M205.17,121.43c0.11,0.62,0.39,0.78,1.03,0.58c1.19-0.39,2.21-0.16,2.99,0.95
		c0.62,0.88,1.36,1.67,2.2,2.67c0-1.12,0.01-2.03,0-2.93c-0.01-1.35-0.01-1.35-1.29-0.96c-0.21-0.88-0.21-0.88-1.52-0.61
		c-0.02-0.26-0.04-0.52-0.07-0.83c-0.31,0.07-0.56,0.13-0.82,0.19c0.01-0.07,0.03-0.14,0.04-0.21c-0.92-0.21-1.84-0.42-2.91-0.67
		C204.96,120.32,205.07,120.88,205.17,121.43z M139.3,134.03c2.03-1.53,4.3-1.94,6.74-1.29c0.99,0.26,1.93,0.75,2.91,1.08
		c0.23,0.08,0.73,0.01,0.74-0.06c0.06-0.32,0.03-0.68-0.04-1.01c-0.02-0.1-0.22-0.18-0.35-0.26c-2.18-1.26-4.5-1.59-6.94-1.02
		c-1.56,0.37-2.71,1.31-3.57,2.92C139.08,134.19,139.19,134.11,139.3,134.03z M158.41,135.21c-0.68-0.25-1.37-0.27-2.01,0.11
		c-0.37,0.22-0.85,0.44-0.42,1.03c0.04,0.06-0.06,0.22-0.1,0.34c-0.14,0.44-0.36,0.87-0.42,1.31c-0.15,1.21,0.68,1.92,1.45,2.68
		c1.17-1.24,1.14-2.47,0.01-3.75c1.37,0.57,2.37,0.09,3.35-0.94C159.59,135.7,159.01,135.43,158.41,135.21z M157.47,133.81
		c-0.85-0.23-1.52-0.53-2.22-0.58c-0.6-0.04-1.28,0.07-1.82,0.34c-0.84,0.41-0.78,0.9,0.05,1.37c-1.12,0.77-0.66,3.11,1.02,3.74
		c0.79-1.11,1.16-2.22-0.08-3.34C155.87,135.64,156.46,134.52,157.47,133.81z M159.76,139.26c1.34,0.53,2.07-0.47,3.21-0.91
		c-0.76-0.35-1.32-0.64-1.9-0.89c-0.77-0.33-1.51-0.21-2.29,0.1c-0.75,0.3-0.35,0.93-0.55,1.38c-0.71,1.63,0.15,2.71,1.27,3.77
		C160.24,141.64,160.57,140.56,159.76,139.26z M151.99,137.19c0.2-0.65,0.63-1.32,0.5-1.85c-0.16-0.64-0.8-1.16-1.1-1.56
		c1.85,0.31,1.68-0.38,2.65-1.93c-0.56-0.09-1.09-0.23-1.63-0.25c-0.91-0.04-1.63,0.35-2.13,1.11c-0.24,0.37-0.32,0.74,0.19,1.01
		C149.48,134.7,150.09,136.17,151.99,137.19z M169.83,144.83c-0.8-0.41-1.57-0.93-2.42-1.19c-0.5-0.16-1.17,0.01-1.69,0.21
		c-0.18,0.07-0.17,0.67-0.25,1.02c-0.03,0.14-0.09,0.28-0.13,0.42c-0.45,1.4,0,2.66,1.3,3.54c0.61-1.03,0.99-2.07,0.38-3.07
		c0.93-0.22,1.84-0.44,2.76-0.66C169.79,145.01,169.81,144.92,169.83,144.83z M163.87,139.83c-0.72-0.37-1.46-0.59-2.28-0.25
		c-0.79,0.33-0.89,0.99-0.92,1.7c0,0.05-0.03,0.09-0.04,0.14c-0.36,1.38,0.06,2.55,1.36,3.5c0.23-0.63,0.6-1.21,0.63-1.81
		c0.03-0.61-0.28-1.24-0.43-1.85c1.05,0.52,1.86-0.08,2.68-0.87C164.51,140.2,164.2,140,163.87,139.83z M157.61,151.68
		c-0.24-0.1-0.48-0.21-0.71-0.31c-0.86,1.06-0.95,1.96-0.3,3.1c0.2-0.16,0.39-0.32,0.51-0.41c0.29,0.7,0.58,1.37,0.86,2.05
		c0.05-0.02,0.11-0.04,0.16-0.06c0.03-0.19,0.06-0.39,0.11-0.7c0.36,0.46,0.63,0.82,0.9,1.17c0.04-0.02,0.08-0.04,0.11-0.07
		c-0.12-0.57-0.24-1.14-0.37-1.71c0.04-0.03,0.09-0.05,0.13-0.08c0.38,0.46,0.75,0.93,1.13,1.39c0.03-0.02,0.05-0.04,0.08-0.06
		c-0.15-0.51-0.3-1.02-0.49-1.66c0.28,0.21,0.44,0.32,0.59,0.44c-0.1-0.6-0.28-1.14-0.57-1.62c-0.35-0.59-0.86-1.12-1.6-1.01
		c-0.5,0.07-0.51-0.17-0.57-0.48L157.61,151.68z M232.16,78.83c0.4,0.93,0.91,1.24,1.9,1.17c0.54-0.03,0.78-0.27,0.81-0.83
		c0.11-2.15-1.11-3.46-2.86-4.67C231.93,76.06,231.57,77.46,232.16,78.83z M164.36,143.26c1.18,0.5,1.91-0.3,2.91-0.69
		c-0.67-0.38-1.21-0.72-1.78-0.98c-0.64-0.29-1.31-0.25-1.92,0.12c-0.18,0.11-0.4,0.29-0.44,0.47c-0.13,0.65-0.22,1.32-0.28,1.99
		c-0.11,1.16,0.7,1.89,1.34,2.78C165.16,145.72,165.31,144.53,164.36,143.26z M116.06,78.92c0.02,0.97,0.55,1.43,1.46,1.07
		c0.45-0.18,0.91-0.62,1.13-1.06c0.68-1.36,0.38-2.78,0.12-4.27C117.08,75.65,116.02,76.93,116.06,78.92z M224.95,107.34
		c-0.07,1.25-0.18,2.5-0.19,3.74c0,1.03,0.56,1.82,1.31,2.48c0.38,0.33,0.63,0.27,0.84-0.19c0.47-1.01,0.66-2.08,0.15-3.08
		c-0.53-1.06-1.26-2.02-1.9-3.03C225.09,107.28,225.02,107.31,224.95,107.34z M125.82,111.05c-0.12-1.15-0.17-2.31-0.26-3.62
		c-2.43,2.97-2.76,4.59-1.36,6.37C125.37,113.23,125.95,112.37,125.82,111.05z M231.26,59.34c-0.08,5.79-0.16,11.58-0.22,17.38
		c0,0.5,0.16,1.01,0.25,1.52c0.08-0.01,0.16-0.02,0.24-0.03c0-6.28,0-12.56,0-18.83C231.44,59.36,231.35,59.35,231.26,59.34z
		 M108.39,61.71c0,1.92,0.05,3.85-0.02,5.77c-0.04,1.3,0.65,2.14,1.42,2.97c0-4.73,0-9.44,0-14.14c-0.09,0-0.17,0-0.26,0
		c0,2.12,0,4.25,0,6.37c0,2.11,0,4.22,0,6.32c-0.11,0-0.23,0-0.34,0c-0.71-2.38-0.25-4.88-0.59-7.3
		C108.53,61.71,108.46,61.71,108.39,61.71z M153.31,144.52c0.79,0.6,1.69,0.24,2.66-0.14c-1.35-1.42-2.33-1.69-3.36-0.98
		c-0.24-0.2-0.48-0.39-0.72-0.58c-0.89,1.03-0.83,2.57,0.17,3.86C152.49,145.93,152.9,145.23,153.31,144.52z M151.22,142.79
		c0.02-0.59-0.37-1.2-0.54-1.71c0.68-0.22,1.41-0.45,2.14-0.69c0.01-0.09,0.01-0.18,0.02-0.26c-0.65-0.27-1.28-0.63-1.96-0.79
		c-0.37-0.08-0.9,0.08-1.18,0.33c-0.15,0.13,0.08,0.69,0.17,1.2c-0.81,1.14-0.44,2.35,0.62,3.61
		C150.75,143.92,151.2,143.37,151.22,142.79z M157.26,146.64c-0.63-1.21-2.57-2.13-3.21-1.21c-0.16-0.11-0.32-0.21-0.46-0.31
		c-1.08,0.8-1.1,2.17-0.26,3.54c0.51-0.72,0.98-1.37,1.44-2.02C155.47,147.43,156.35,147.02,157.26,146.64z M154.28,147.99
		c-0.48,0.83-0.37,1.63,0.05,2.49c0.75-0.58,1.45-1.1,1.29-2.31c0.84,1.41,1.34,1.55,2.9,0.97c-1.15-1.75-2.24-2.27-2.98-1.42
		C154.89,147.26,154.68,147.3,154.28,147.99z M202.17,122.75c0.42,0.42,1.54,0.37,1.69-0.14c0.31-1,0.27-2.04,0.08-3
		c-0.39,0.07-0.68,0.19-0.94,0.14c-0.3-0.06-0.58-0.27-0.99-0.48c0.09,0.52,0.14,0.84,0.22,1.3c-0.3-0.22-0.48-0.35-0.77-0.56
		C201.21,121.14,201.43,122.02,202.17,122.75z M119.27,60.13c-0.24,5.56-0.18,16.11,0.29,17.47
		C119.87,75.26,119.65,61.49,119.27,60.13z M138.13,112.3c-0.47,0.6-0.93,1.21-1.3,1.69c-0.51-0.59-1.1-1.28-1.69-1.96
		c-0.08,0.05-0.16,0.1-0.23,0.15c0.07,0.58,0.11,1.17,0.21,1.75c0.11,0.62,0.43,1.12,1.07,1.31c0.2,0.06,0.46-0.11,0.67-0.06
		c0.92,0.22,1.62-0.23,1.65-1.16c0.01-0.53-0.09-1.07-0.14-1.61C138.28,112.36,138.21,112.33,138.13,112.3z M241.12,57.09
		c0,4.31,0,8.62,0,12.92c0.09,0.04,0.18,0.08,0.27,0.11c0.34-0.62,0.92-1.23,0.97-1.87c0.11-1.54-0.04-3.1-0.08-4.65
		c-0.07,0-0.14,0-0.21,0c0,0.86,0.03,1.72-0.01,2.57c-0.04,0.85,0.21,1.75-0.45,2.51c-0.1-3.86-0.19-7.72-0.29-11.59
		C241.26,57.11,241.19,57.1,241.12,57.09z M230.02,82.38c0-4.47,0-8.98,0-13.48C229.43,72.59,229.54,81.54,230.02,82.38z
		 M151.27,83.32c0.43-0.09,0.63-0.3,0.47-0.72c-0.15-0.41-0.14-1.02-0.85-0.86c-0.7,0.16-1.4,0.33-2.07,0.57
		c-0.2,0.07-0.45,0.44-0.41,0.61c0.08,0.36,0.33,0.67,0.49,0.96C149.82,83.66,150.54,83.47,151.27,83.32z M170.89,158.28
		c-0.13-1.64-1.24-2.78-3.2-3.26C168.03,156.89,169.49,158.35,170.89,158.28z M121.02,82.11c0-4.19,0-8.39,0-12.58
		c-0.07,0-0.15,0-0.22,0c0,4.19,0,8.39,0,12.58C120.87,82.11,120.95,82.11,121.02,82.11z M180.33,156.95
		c-1.06-1.81-2.55-2.84-4.28-3.59C177.07,154.97,178.14,156.49,180.33,156.95z M138.2,117.05c-0.3-0.05-0.62,0.11-0.93,0.17
		c0.08,0.34,0.07,0.76,0.27,0.99c0.69,0.82,1.65,0.97,2.77,0.86C139.94,117.94,139.31,117.22,138.2,117.05z M169.35,152.84
		c0.2,2.01,1.21,3.04,2.74,2.8C171.86,154.31,170.61,153.04,169.35,152.84z M154.5,142.06c-0.66-0.3-1.3-0.66-1.98-0.87
		c-0.47-0.15-1.08-0.21-1.34,0.39c-0.16,0.36,0.47,1.08,1.03,1.18c0.33,0.06,0.69,0.06,1.02-0.02c0.42-0.1,0.82-0.31,1.23-0.47
		C154.47,142.2,154.49,142.13,154.5,142.06z M156.67,151.05c0.15-0.34,0.01-0.9-0.17-1.28c-0.23-0.48-0.62-0.5-0.96-0.02
		c-0.63,0.89-0.65,1.81-0.08,2.94C155.92,152.09,156.42,151.62,156.67,151.05z M212.45,122.51c0.08,1.29,0.17,2.57,0.26,3.94
		c1.41-1.58,1.81-2.62,0.81-3.45c-0.08,0.15-0.17,0.29-0.27,0.47c-0.23-0.38-0.41-0.69-0.59-1
		C212.59,122.48,212.52,122.49,212.45,122.51z M157.58,151.66c0.62,0.06,1.24,0.12,1.97,0.19c-0.46-0.99-0.97-1.72-1.87-2.09
		c-0.43-0.18-0.69-0.07-0.76,0.45c-0.08,0.65,0.26,1.07,0.68,1.47C157.61,151.68,157.58,151.66,157.58,151.66z M163.95,82.69
		c0.34-0.22,0.67-0.44,1.01-0.66c-0.25-0.32-0.44-0.75-0.77-0.93c-0.28-0.15-0.74-0.09-1.07,0.02c-0.22,0.08-0.52,0.46-0.48,0.63
		c0.08,0.29,0.36,0.55,0.62,0.75c0.12,0.1,0.38,0.02,0.58,0.02C163.87,82.57,163.91,82.63,163.95,82.69z M138.21,115.28
		c-0.33,0.17-0.69,0.42-0.87,0.73c-0.34,0.59-0.07,0.94,0.62,0.88c0.84-0.07,1.37-0.72,1.65-2.09
		C139.09,114.97,138.63,115.07,138.21,115.28z M237.46,63.74c0-2.98,0-5.96,0-8.95c-0.05,0-0.1,0-0.15,0c0,2.98,0,5.96,0,8.94
		C237.36,63.74,237.41,63.74,237.46,63.74z M235.27,53.71c0,3.11,0,6.22,0,9.33c0.05,0,0.1,0,0.15,0c0-3.11,0-6.22,0-9.33
		C235.38,53.71,235.32,53.71,235.27,53.71z M113.32,56.32c0,2.23,0,4.46,0,6.7c0.05,0,0.1,0,0.14,0c0-2.23,0-4.46,0-6.7
		C113.42,56.32,113.37,56.32,113.32,56.32z M115.36,54.17c0,2.96,0,5.92,0,8.88c0.05,0,0.09,0,0.14,0c0-2.96,0-5.92,0-8.88
		C115.45,54.17,115.4,54.17,115.36,54.17z"/>
</g>
</svg>
