<?xml version="1.0" encoding="utf-8"?>
<!-- Generator: Adobe Illustrator 27.8.1, SVG Export Plug-In . SVG Version: 6.00 Build 0)  -->
<svg version="1.1" xmlns="http://www.w3.org/2000/svg" xmlns:xlink="http://www.w3.org/1999/xlink" x="0px" y="0px"
	 viewBox="0 0 350 230" style="enable-background:new 0 0 350 230;" xml:space="preserve">
<style type="text/css">
	.st0{fill:#FFD4A9;}
	.st1{fill:#FFFFAB;}
	.st2{fill:#FFFECF;}
	.st3{fill:#CDFCD7;}
	.st4{fill:#D4FFF4;}
	.st5{fill:#C6FFAE;}
	.st6{fill:#FFFFB0;}
	.st7{fill:#E9FFAE;}
	.st8{fill:#FFE4AE;}
	.st9{fill:#D6D36E;}
	.st10{fill:#7C7B50;}
	.st11{fill:#E4D027;}
	.st12{fill:#14A639;}
	.st13{fill:#9ED834;}
	.st14{fill:#0B8813;}
	.st15{fill:#FEFEFE;}
	.st16{fill:#6BC53C;}
	.st17{fill:#89E051;}
	.st18{fill:#E2BF2B;}
	.st19{fill:#0C8149;}
	.st20{fill:#5B3A00;}
	.st21{fill:#72721D;}
	.st22{fill:#355600;}
	.st23{fill:#603200;}
	.st24{fill:#2BC152;}
	.st25{fill:#DCE041;}
	.st26{fill:#BCAF15;}
	.st27{fill:#0B7E21;}
	.st28{fill:#5C9E23;}
	.st29{fill:#0C4710;}
	.st30{fill:#00760D;}
	.st31{fill:#459B02;}
	.st32{fill:#FCAC01;}
	.st33{fill:#AEC600;}
	.st34{fill:#545913;}
	.st35{fill:#953327;}
	.st36{fill:#ABCB13;}
	.st37{fill:#FFE566;}
	.st38{fill:#72DD2C;}
	.st39{fill:url(#SVGID_1_);}
	.st40{fill:url(#SVGID_00000123442687321977275220000010961137536911993529_);}
	.st41{fill:url(#SVGID_00000115516881671620469160000013214707939184215208_);}
	.st42{fill:#C1B700;}
	.st43{fill:url(#SVGID_00000151529827045019370680000015914534577322832282_);}
	.st44{fill:#2F5A11;}
	.st45{fill:url(#SVGID_00000124842507763257932250000015655346027902262962_);}
	.st46{fill:#E8CB1B;}
	.st47{fill:#AFAA00;}
	.st48{fill:url(#SVGID_00000065760596579326715750000009997443596846984370_);}
	.st49{fill:#FFFFFF;}
	.st50{fill:url(#SVGID_00000179623875631127003760000012330851004831790750_);}
	.st51{fill:url(#SVGID_00000021841169161761378310000002719246914629744519_);}
	.st52{fill:#00A79D;}
	.st53{fill:#0A3A00;}
	.st54{fill:#FFFFFF;stroke:#0A3A00;stroke-miterlimit:10;}
	.st55{fill:url(#SVGID_00000134219715100191213710000002383820529240832169_);}
	.st56{fill:url(#SVGID_00000039842484760773182000000012536259461049437117_);}
	.st57{fill:url(#SVGID_00000179605473250158474520000001911934101054709126_);}
	.st58{fill:url(#SVGID_00000051381995176497700970000004299083000537881518_);}
	.st59{fill:url(#SVGID_00000009553439871523902110000011945023410995089331_);}
	.st60{fill:url(#SVGID_00000093152757946852037610000007407030056908866214_);}
	.st61{fill:url(#SVGID_00000018938438421607227560000008920087829969949081_);}
	.st62{fill:#327736;}
	.st63{fill:#1C4422;}
	.st64{fill:#F9F9F9;}
	.st65{fill:#7BAB47;}
	.st66{fill:#A0C73A;}
	.st67{fill:#284622;}
	.st68{fill:#D0DB58;}
	.st69{fill:none;stroke:#284622;stroke-width:3;stroke-linecap:round;stroke-linejoin:round;stroke-miterlimit:10;}
	.st70{fill:#EABC5E;}
	.st71{fill:#D9941B;}
	.st72{fill:#80C43E;}
	.st73{fill:#376818;}
	.st74{fill:#D7E285;}
	.st75{fill:#05320F;}
	.st76{fill:#329C44;}
	.st77{fill:url(#SVGID_00000163766909405330012840000003429512566657318070_);}
	.st78{fill:url(#SVGID_00000006696415945290748200000015993430665653449890_);}
	.st79{fill:#FAA100;}
	.st80{fill:url(#SVGID_00000016755413181924283860000011896902521072936363_);}
	.st81{fill:url(#SVGID_00000116223466513802388940000009189061759769951892_);}
	.st82{fill:url(#SVGID_00000003816090966551882900000005985769525929144962_);}
	.st83{fill:url(#SVGID_00000009583590542887344930000005685221647439207862_);}
	.st84{fill:url(#SVGID_00000078032153269922420220000014895849895841586328_);}
</style>
<g id="Logo1">
</g>
<g id="Logo2">
</g>
<g id="Logo3">
</g>
<g id="Logo4">
</g>
<g id="Logo5">
</g>
<g id="Logo6">
</g>
<g id="Logo7">
</g>
<g id="Logo8">
</g>
<g id="Logo9">
</g>
<g id="Logo10">
</g>
<g id="Logo11">
</g>
<g id="Logo12">
</g>
<g id="Logo13">
</g>
<g id="Logo14">
</g>
<g id="Logo15">
	<g>
		<path d="M203.45,100.49c7.76,1.69,15.3,3.92,21.79,9.14c-1.85,0.39-3.58,0.68-5.25,1.15c-1.46,0.41-2.41,0.05-3.47-1.09
			c-2.67-2.89-6.13-4.61-9.76-6.02c-6.55-2.55-13.39-3.01-20.32-2.93c-6.98,0.08-13.84,0.85-20.45,3.26
			c-5.11,1.86-9.86,4.42-14.21,7.65c-1.99,1.47-3.86,1.94-6.32,1.51c-6.78-1.18-13.6-2.2-20.25-4.03c-0.61-0.17-1.2-0.37-1.8-0.56
			c-0.03-0.08-0.05-0.16-0.08-0.24c0.97-0.57,1.92-1.18,2.92-1.69c5.66-2.9,11.69-4.65,17.92-5.78c6.71-1.22,13.48-2.01,20.3-2.27
			c0.39-0.02,0.78,0.02,1.17-0.02c0.23-0.02,0.44-0.16,0.66-0.24c-0.23-0.2-0.44-0.55-0.69-0.59c-0.65-0.08-1.32-0.08-1.97-0.01
			c-0.85,0.09-1.42-0.16-1.86-0.94c-0.58-1.04-1.5-1.56-2.74-1.44c-0.75,0.08-1.52,0.11-2.27,0.05c-0.39-0.03-0.78-0.25-1.12-0.47
			c-0.45-0.29-0.85-0.66-1.27-1c-0.05,0.06-0.09,0.12-0.14,0.18c0.2,0.15,0.4,0.3,0.59,0.46c1.02,0.81,1.47,2.14,1.03,3.35
			c-0.1,0.28-0.53,0.59-0.83,0.62c-1.33,0.14-2.68,0.21-4.02,0.22c-0.31,0-0.76-0.24-0.92-0.5c-0.73-1.18-0.55-2.53,0.47-3.47
			c0.58-0.54,0.78-1.12,0.73-1.89c-0.06-0.78-0.03-1.56-0.02-2.35c0.01-1,0.22-1.22,1.2-1.23c1.56-0.02,3.13-0.03,4.69-0.01
			c0.62,0.01,0.94-0.18,0.83-0.84c-0.01-0.07-0.01-0.15-0.01-0.22c0.03-1.51,0.25-3.06-1.12-4.24c1.74-0.53,2.9,0.26,2.99,1.94
			c0.05,0.85,0.03,1.71,0.01,2.57c-0.02,0.55,0.16,0.81,0.75,0.8c1.49-0.02,2.98-0.02,4.47-0.01c0.5,0,0.73-0.2,0.86-0.69
			c0.38-1.46,1.1-1.99,2.63-2.05c1.41-0.06,1.73-0.38,1.9-1.75c0.07-0.55,0.28-1.08,0.46-1.61c0.19-0.54-0.02-0.88-0.36-1.3
			c-0.36-0.45-0.66-1.04-0.72-1.59c-0.08-0.65-0.28-0.89-0.9-0.81c-0.12,0.01-0.25,0.02-0.37,0c-0.26-0.03-0.52-0.07-0.78-0.1
			c0.1-0.29,0.12-0.65,0.32-0.84c0.3-0.3,0.73-0.46,1.06-0.73c0.39-0.33,0.73-0.72,1.1-1.07c0.17-0.16,0.39-0.4,0.57-0.39
			c0.68,0.04,1.36,0.14,2.03,0.26c0.47,0.08,0.68,0.37,0.7,0.88c0.01,0.24,0.25,0.5,0.45,0.69c0.43,0.41,0.98,0.72,1.34,1.19
			c0.34,0.44,0.1,0.73-0.46,0.66c-0.22-0.03-0.43-0.1-0.65-0.11c-0.24-0.01-0.48,0.02-0.72,0.04c0.05,0.34,0.05,0.7,0.17,1.02
			c0.07,0.17,0.32,0.29,0.51,0.39c1.18,0.67,1.78,1.73,1.91,3.04c0.1,1.02,0.05,2.05,0.11,3.07c0.01,0.24,0.17,0.58,0.36,0.67
			c1.22,0.53,1.27,0.64,0.46,1.81c0.94,1.17,1.74,2.43,1.9,4c0.15,1.55-0.13,3-1.06,4.48c1.44-0.16,2.82,0.17,3.81-1.01
			c0.62-0.73,0.51-1.05-0.4-1.29c-0.02-0.5-0.37-1.14,0.6-1.21c0.1-0.01,0.24-0.3,0.24-0.46c0-0.16-0.14-0.47-0.22-0.47
			c-0.99-0.04-0.57-0.72-0.65-1.24c0.18-0.04,0.32-0.03,0.4-0.1c0.18-0.17,0.42-0.36,0.45-0.57c0.02-0.13-0.3-0.43-0.47-0.44
			c-0.42-0.02-0.59-0.16-0.54-0.57c0.04-0.33-0.11-0.81,0.5-0.76c0.51,0.04,0.55-0.29,0.54-0.66c-0.01-0.36,0-0.72,0.5-0.71
			c0.47,0,0.74,0.21,0.69,0.73c-0.05,0.51,0.21,0.69,0.7,0.68c1.3-0.01,2.59-0.01,3.89,0c0.49,0,0.75-0.19,0.69-0.7
			c-0.05-0.44,0.07-0.72,0.57-0.71c0.45,0.01,0.68,0.23,0.63,0.69c-0.06,0.56,0.22,0.72,0.73,0.71c1.52-0.02,3.03,0.01,4.55-0.02
			c0.21,0,0.53-0.22,0.58-0.41c0.09-0.34-0.02-0.65-0.51-0.69c-0.18-0.02-0.39-0.32-0.49-0.54c-0.07-0.16-0.01-0.38,0.01-0.58
			c0.08-1.01-0.07-1.22-1.08-1.48c-1.25-0.32-2.5-0.65-3.75-1c-0.23-0.07-0.43-0.25-0.65-0.38c0.17-0.21,0.34-0.42,0.52-0.62
			c0.01-0.02,0.05-0.02,0.07-0.03c1.88-1.37,3.87-1.54,6.13-0.91c2.58,0.72,5.25,1.11,7.89,1.61c0.65,0.12,1.1,0.35,1.11,1.1
			c0,0.18,0.07,0.4,0.19,0.54c0.73,0.86,0.83,1.89,0.86,2.96c0.09,3.06,3,5.02,5.89,3.98c0.25-0.09,0.51-0.2,0.77-0.24
			c0.76-0.12,1.09,0.18,1.09,0.94c0.01,0.98,0.03,1.96-0.01,2.93c-0.03,0.66,0.18,0.89,0.87,0.91c2.83,0.09,5.66,0.23,8.49,0.38
			c0.56,0.03,0.79-0.17,0.92-0.68c0.41-1.63,0.2-3.21-0.39-4.74c-0.42-1.09-1-2.12-1.41-3.21c-0.24-0.64-0.3-1.34-0.45-2.05
			c-0.53,0.16-0.87,0.67-1.16,1.24c-0.48,0.92-1.23,1.42-2.3,1.42c-1.22,0-1.74-0.55-1.66-1.77c0.01-0.14,0.03-0.29,0.04-0.45
			c-0.62,0.37-0.84,0.88-0.66,1.57c0.26,1.01,0.95,1.64,1.89,1.98c1.1,0.41,2.22,0.76,3.32,1.15c1.86,0.65,1.97,0.54,1.83,2.94
			c-0.02,0.34-0.18,0.67-0.35,1.03c-0.64-1.63-2.11-2.19-3.45-2.94c-1.16-0.65-2.26-1.42-3.43-2.06c-0.33-0.18-0.88-0.27-1.19-0.11
			c-0.6,0.3-1.11,0.3-1.52-0.17c-0.43-0.48-0.73-0.33-1.18-0.05c-1.18,0.76-2.4,0.63-3.35-0.29c-0.72-0.7-0.96-1.77-0.55-2.69
			c0.22-0.49,0.24-0.87-0.23-1.21c-0.97-0.68-1.4-1.62-1.16-2.79c0.25-1.2,1.11-1.78,2.24-2.04c0.07-0.02,0.13-0.05,0.26-0.09
			c-0.1-0.08-0.16-0.15-0.23-0.17c-0.88-0.26-1.05-0.58-0.49-1.32c0.34-0.45,0.9-0.74,1.37-1.1c0.06,0.04,0.11,0.08,0.17,0.13
			c-0.03-0.16-0.04-0.32-0.09-0.47c-0.24-0.77,0.09-1.28,0.75-1.63c0.62-0.33,1.26-0.63,1.93-0.96c-0.12-0.32-0.34-0.62-0.31-0.89
			c0.03-0.29,0.26-0.58,0.47-0.81c0.03-0.04,0.45,0.17,0.6,0.35c0.48,0.57,0.92,1.17,1.37,1.76c0.1-0.04,0.19-0.08,0.28-0.12
			c-0.17-0.52-0.23-1.11-0.53-1.54c-0.37-0.54-0.55-1.01-0.29-1.62c0.29-0.67,0.8-1.08,1.52-1.07c0.56,0.01,0.93-0.15,1.27-0.61
			c0.58-0.78,1.25-0.33,1.93,0.06c0.05-0.22,0.09-0.4,0.13-0.57c0.17-0.72,0.6-1.2,1.35-1.23c0.9-0.04,1.81,0.03,2.71,0
			c0.37-0.01,0.77-0.1,1.08-0.28c0.92-0.53,1.35-0.53,2.21,0.11c0.19,0.14,0.52,0.31,0.68,0.24c1.35-0.58,2.33-0.29,2.87,1.14
			c1.92-1.51,3.6-0.62,3.65,1.28c1.01-0.52,2.05-0.89,3.15-0.37c1.07,0.51,1.66,1.34,1.52,2.57c1.66,0.48,1.8,0.66,1.47,1.85
			c0.71,0.27,1.49,0.44,2.12,0.84c0.8,0.5,0.69,1.32,0.33,2.12c0.74,0.3,1.66,0.35,1.79,1.38c0.1,0.8-0.54,1.06-1.14,1.43
			c1.22,0.29,2.45,0.48,2.62,2c0.12,1.06-0.16,1.54-1.31,2.27c0.29,0.69,0.71,1.34,0.82,2.05c0.41,2.58-2.44,3.81-4.14,2.88
			c-0.59-0.32-1.05-0.35-1.7-0.07c-0.43,0.18-1.09,0.03-1.57-0.17c-0.45-0.18-0.7-0.16-1.1,0.11c-0.9,0.62-1.87,1.13-2.82,1.68
			c-1.05,0.61-2.15,1.16-3.16,1.82c-1.06,0.7-1.15,1.82-0.97,2.95c0.04,0.22,0.43,0.51,0.69,0.56c3.35,0.54,6.73,0.91,10.05,1.6
			c3.36,0.7,6.66,1.73,9.98,2.61c0.26,0.07,0.5,0.18,0.87,0.32c-0.26,0.19-0.43,0.34-0.62,0.47c-2.13,1.48-4.26,2.95-6.38,4.43
			c-0.38,0.26-0.69,0.36-1.12,0.07c-5.1-3.39-10.72-5.49-16.71-6.61c-2.06-0.38-4.15-0.58-6.23-0.87c-0.01,0.07-0.03,0.15-0.04,0.22
			c0.58,0.16,1.17,0.32,1.75,0.48c4.18,1.13,8.32,2.36,12.16,4.41c1.79,0.96,3.51,2.04,4.93,3.52c0.18,0.19,0.35,0.4,0.63,0.71
			c-3.6,2.08-7.37,3.45-11.33,4.34c-5.28,1.18-10.51,0.69-15.73-0.46c3.1-0.66,6.22-1.24,9.29-2c2.15-0.53,4.24-1.3,6.35-1.98
			c0.44-0.14,0.84-0.39,1.24-0.62c0.8-0.45,0.86-0.73,0.17-1.29c-0.82-0.68-1.67-1.36-2.59-1.91c-3.16-1.91-6.61-3.11-10.14-4.15
			c-4.15-1.22-8.39-1.84-12.68-2.17C203.84,100.48,203.64,100.49,203.45,100.49z M228.94,93.97c1.7-0.55,3.28-1.03,4.85-1.58
			c0.61-0.21,1.2-0.54,1.75-0.89c0.44-0.28,0.62-0.72,0.35-1.35c-0.78,0.67-1.64,0.87-2.6,0.56c-1.04-0.33-1.29-1.3-1.68-2.11
			c-0.2,0.46-0.3,0.97-0.59,1.28C229.91,91.02,229.58,92.51,228.94,93.97z M171.76,98.11c-1.37-1.14-2.14-2.47-1.56-4.25
			c0.67-2.04,2.36-2.26,4.25-2.21c-1.2-0.95-2.85-0.91-4.16,0.02c-1.38,0.98-1.96,2.74-1.43,4.34
			C169.3,97.31,170.44,98.16,171.76,98.11z M192.8,91.67c0-0.01,0-0.03,0-0.04c-0.78,0-1.56,0.01-2.33,0
			c-0.36,0-0.62,0.09-0.63,0.52c-0.01,0.41,0.19,0.56,0.58,0.56c1.58-0.01,3.16,0,4.74-0.04c0.19-0.01,0.49-0.27,0.54-0.47
			c0.1-0.4-0.18-0.54-0.57-0.53C194.36,91.67,193.58,91.67,192.8,91.67z M192.78,95c0-0.02,0-0.03,0-0.05
			c0.78,0,1.57,0.04,2.34-0.02c0.22-0.02,0.41-0.33,0.61-0.51c-0.21-0.15-0.41-0.42-0.62-0.43c-1.56-0.05-3.12-0.05-4.68-0.07
			c-0.38,0-0.68,0.14-0.58,0.53c0.06,0.22,0.37,0.5,0.58,0.52C191.21,95.04,192,95,192.78,95z M192.77,96.26c0,0.02,0,0.04,0,0.06
			c-0.76,0-1.51-0.03-2.27,0.02c-0.23,0.01-0.44,0.24-0.66,0.38c0.22,0.16,0.44,0.46,0.66,0.47c1.54,0.05,3.07,0.04,4.61,0.01
			c0.2,0,0.53-0.24,0.58-0.43c0.11-0.43-0.23-0.51-0.58-0.51C194.33,96.26,193.55,96.26,192.77,96.26z M185.99,95
			C185.99,95,185.99,94.99,185.99,95c0.68-0.01,1.37,0.03,2.04-0.03c0.2-0.02,0.37-0.33,0.55-0.5c-0.17-0.17-0.34-0.49-0.52-0.5
			c-1.34-0.04-2.67-0.05-4.01,0c-0.22,0.01-0.57,0.29-0.61,0.49c-0.08,0.44,0.27,0.55,0.66,0.54C184.73,94.99,185.36,95,185.99,95z
			 M185.93,92.7C185.93,92.7,185.93,92.7,185.93,92.7c0.66,0,1.32-0.01,1.98,0c0.38,0.01,0.76-0.06,0.66-0.52
			c-0.04-0.21-0.4-0.48-0.62-0.49c-1.29-0.06-2.58-0.03-3.88-0.05c-0.44-0.01-0.63,0.18-0.63,0.6c0.01,0.46,0.32,0.47,0.66,0.47
			C184.71,92.7,185.32,92.7,185.93,92.7z M185.94,97.21c0,0.01,0,0.01,0,0.02c0.68,0,1.37,0.04,2.05-0.02
			c0.22-0.02,0.41-0.28,0.62-0.43c-0.19-0.16-0.39-0.44-0.58-0.45c-1.34-0.03-2.68-0.01-4.02,0.03c-0.19,0.01-0.37,0.26-0.56,0.4
			c0.2,0.15,0.39,0.41,0.6,0.43C184.67,97.24,185.3,97.21,185.94,97.21z M211.79,80.04c0.74-0.7,1.48-1.4,2.22-2.11
			c-0.7-0.25-1.44-0.38-2.07,0.29C211.4,78.8,211.57,79.46,211.79,80.04z M153.44,95.1c-1.04-0.29-1.81,0.04-2.14,0.84
			c-0.3,0.73-0.1,1.31,0.58,1.67C151.91,95.79,152.04,95.58,153.44,95.1z M227.41,89.91c0.18,0.85,0.33,1.58,0.53,2.51
			c0.41-0.72,0.71-1.24,1.04-1.81C228.45,90.38,228,90.17,227.41,89.91z M197.95,89.74c-0.24-0.22-0.39-0.35-0.53-0.49
			c-0.14,0.17-0.4,0.36-0.39,0.52c0.02,0.2,0.26,0.39,0.41,0.58C197.59,90.18,197.73,90.01,197.95,89.74z M198.01,94.48
			c-0.28-0.26-0.43-0.49-0.62-0.52c-0.11-0.02-0.4,0.29-0.39,0.43c0.02,0.2,0.25,0.38,0.39,0.57
			C197.55,94.84,197.71,94.71,198.01,94.48z M196.73,92.18c0.35,0.26,0.53,0.39,0.71,0.52c0.11-0.21,0.29-0.41,0.31-0.62
			c0.01-0.13-0.26-0.43-0.33-0.41C197.23,91.72,197.07,91.91,196.73,92.18z M197.92,96.82c-0.21-0.25-0.35-0.41-0.48-0.56
			c-0.14,0.13-0.41,0.28-0.39,0.4c0.02,0.2,0.22,0.37,0.34,0.56C197.53,97.11,197.68,97.01,197.92,96.82z M173.68,124.41
			c0.02,0.23,0.06,0.46,0.06,0.68c0.03,3.59,0.04,7.18,0.08,10.78c0.01,0.53-0.11,0.89-0.59,1.22c-0.98,0.68-1.35,1.7-1.04,2.83
			c0.62,2.28,1.31,4.55,1.99,6.82c0.16,0.56,0.36,1.1,0.65,1.66c0.01-0.17,0.04-0.34,0.04-0.52c-0.02-7.77-0.05-15.54-0.07-23.31
			c0-1.02-0.03-1.06-0.98-1.07c-0.62-0.01-0.81-0.35-0.81-0.89c0-0.51,0.03-1.02,0.03-1.54c0-0.45,0.01-0.84,0.64-0.83
			c0.12,0,0.37-0.28,0.36-0.42c-0.02-0.81-0.07-1.61-0.82-2.17c-0.82-0.61-1.61-1.28-2.42-1.9c-1.34-1.04-2.43-2.21-2.39-4.13
			c-0.8,0.9-1.62,1.79-2.39,2.72c-0.43,0.52-0.89,0.72-1.58,0.65c-2.58-0.24-5.16-0.41-7.74-0.61c-0.14-0.01-0.28-0.03-0.64-0.08
			c3.51-2.99,7.23-5.27,11.25-7.1c0.08,0.78,0.14,1.5,0.23,2.21c0.01,0.07,0.1,0.13,0.15,0.19c0.15-0.81,0.26-1.6,0.45-2.37
			c0.17-0.7,0.64-1.03,1.4-1.04c0.5-0.01,1.05-0.05,1.5-0.25c3.95-1.81,8.18-2.63,12.42-3.32c5.42-0.89,10.86-0.98,16.21,0.5
			c5,1.38,9.49,3.72,13.17,7.46c0.37,0.38,0.71,0.78,1.16,1.29c-1.69,0.26-3.26,0.38-4.75,0.78c-1.68,0.45-2.59-0.23-3.63-1.48
			c-4.37-5.24-10.07-7.97-16.85-8.48c-0.2-0.02-0.4,0.02-0.64,0.12c5.75,2.13,10.69,5.31,14.23,10.59c-1.1,0.13-2.11,0.26-3.12,0.38
			c-1.21,0.14-2.43,0.27-3.64,0.43c-0.45,0.06-0.71-0.08-0.94-0.48c-2.22-3.89-5.39-6.78-9.34-8.84c-0.52-0.27-0.99-0.31-1.53-0.1
			c-1.04,0.41-2.09,0.76-3.14,1.14c0.01,0.06,0.02,0.12,0.03,0.19c0.22,0.01,0.44,0.02,0.67,0.03c1.12,0.05,1.96,0.64,2.77,1.34
			c2.05,1.77,3.97,3.63,5.12,6.14c0.13,0.28,0.23,0.57,0.38,0.96c-0.47,0.08-0.84,0.15-1.21,0.2c-0.44,0.06-0.87,0.11-1.31,0.17
			c-2.28,0.29-2.29,0.3-3.52-1.67c-0.21-0.34-0.4-0.7-0.69-1.2c-0.24,1.89-1.48,2.88-2.75,3.86c-0.68,0.52-1.33,1.07-2.01,1.59
			c-0.58,0.45-0.85,1.05-0.95,1.75c-0.08,0.57-0.21,1.11,0.7,1.04c0.14-0.01,0.43,0.37,0.44,0.58c0.06,0.65,0.02,1.32,0.01,1.98
			c0,0.12,0.01,0.31-0.05,0.35c-0.72,0.43-0.44,1.12-0.44,1.71c-0.04,3.47-0.02,6.94-0.07,10.41c-0.01,0.73,0.25,0.97,0.95,1.05
			c1.77,0.2,3.54,0.44,5.3,0.71c0.92,0.14,1.29,0.57,1.22,1.43c-0.32,4.43-0.98,8.79-2.93,12.85c-1.34,2.8-3.12,5.24-5.77,6.96
			c-0.67,0.43-1.19,0.45-1.86,0c-2.76-1.85-4.58-4.43-5.92-7.4c-1.76-3.88-2.45-8.01-2.68-12.23c-0.06-1.04,0.3-1.47,1.37-1.63
			c1.59-0.24,3.19-0.44,4.79-0.63c1.1-0.13,1.14-0.16,1.14-1.24c0-3.32,0-6.65,0.01-9.97c0-0.28,0.04-0.56,0.06-0.84
			C173.53,124.42,173.61,124.42,173.68,124.41z M175.6,110.02C175.6,110.02,175.6,110.02,175.6,110.02c-1.29,0-2.59-0.02-3.88,0.01
			c-0.2,0.01-0.55,0.26-0.57,0.42c-0.09,0.9,0.04,1.74,0.83,2.37c1.11,0.88,2.2,1.78,3.28,2.69c0.33,0.28,0.55,0.17,0.82-0.06
			c0.98-0.81,1.95-1.62,2.96-2.4c0.7-0.54,1.07-1.24,1.17-2.11c0.09-0.75-0.05-0.93-0.81-0.93
			C178.14,110.02,176.87,110.02,175.6,110.02z M106.88,89.45c0.46-0.91,0.87-1.7,1.27-2.5c0.85-1.65,1.68-3.31,2.57-4.93
			c0.22-0.41,0.57-0.8,0.96-1.05c1.35-0.88,2.75-1.68,4.11-2.54c0.5-0.32,0.91-0.31,1.41,0.02c0.82,0.56,1.76,0.98,2.53,1.61
			c0.9,0.73,1.79,1.52,2.47,2.44c1.3,1.77,2.46,3.64,3.63,5.5c0.4,0.64,0.87,0.83,1.58,0.72c3.65-0.53,7.3-1.07,10.95-1.53
			c0.7-0.09,1.48-0.02,2.14,0.22c2.23,0.79,4.43,1.67,6.63,2.53c0.23,0.09,0.44,0.23,0.75,0.38c-0.18,0.1-0.24,0.15-0.3,0.16
			c-1.6,0.33-1.6,0.33-1.61,1.93c0,1.39-0.04,2.79,0,4.18c0.02,0.72-0.36,0.78-0.92,0.78c-0.57,0-0.9-0.08-0.88-0.79
			c0.05-1.51,0.02-3.03,0.02-4.54c0-0.9-0.13-1.02-1.04-0.9c-1.5,0.21-2.99,0.45-4.5,0.62c-0.73,0.08-0.94,0.41-0.91,1.1
			c0.05,1.24,0,2.49,0.03,3.74c0.01,0.57-0.2,0.81-0.77,0.78c-0.51-0.03-1.05,0.1-1.03-0.74c0.04-1.27-0.03-2.54,0-3.81
			c0.01-0.57-0.22-0.83-0.76-0.97c-2.89-0.72-5.78-1.45-8.66-2.18c-0.14-0.04-0.29-0.03-0.43-0.08c-0.65-0.21-0.82,0.1-0.82,0.69
			c0.02,2,0.01,4.01,0.01,6.01c0,1.02-0.02,1.04-1.01,1c-0.59-0.02-1.18-0.05-1.76,0c-0.7,0.07-0.88-0.23-0.87-0.88
			c0.04-1.83,0.03-3.66,0.03-5.49c0-0.92-0.08-0.99-1.01-0.99c-2.59,0-5.18-0.01-7.77-0.01c-0.96,0-1.1,0.15-1.1,1.11
			c0.01,1.81,0,3.62,0.03,5.42c0.01,0.62-0.2,0.87-0.84,0.9c-1.77,0.07-1.96-0.08-1.97-1.83c-0.02-1.66-0.01-3.32-0.01-4.98
			c0-1.07-0.07-1.14-1.11-1.09C107.62,89.47,107.32,89.45,106.88,89.45z M118.29,84.33c0-0.27,0.01-0.54,0-0.8
			c-0.04-0.84-0.23-1.02-1.05-1.06c-0.17-0.01-0.34,0-0.51-0.01c-1.81-0.01-1.84,0.01-1.84,1.82c0,1.67,0.05,1.72,1.7,1.74
			C118.29,86.03,118.31,86,118.29,84.33z M155.53,79.79c1.39-2.12,3.04-4.01,5.01-5.6c7.78-6.26,18.34-7.68,27.32-1.74
			c3.38,2.23,6.01,5.19,8.26,8.52c0.18,0.27,0.36,0.53,0.55,0.79c0.04-0.03,0.08-0.05,0.12-0.08c-0.16-0.48-0.33-0.96-0.49-1.45
			c0.05-0.05,0.11-0.09,0.16-0.14c1.25,0.89,2.51,1.78,3.75,2.65c-1.71-8.74-10.47-19.45-24.31-19.52
			c-6.59-0.04-12.45,2.05-17.37,6.46c-3.51,3.14-6.17,6.87-7.46,11.66c1.5-1.71,2.83-3.32,4.26-4.84c1.43-1.53,2.97-2.96,4.94-3.83
			c-2.14,2.18-3.9,4.59-4.98,7.47C155.37,80.02,155.46,79.91,155.53,79.79z M198.68,133.09c-1.82-1.53-3.63-3.06-5.45-4.59
			c0.05-0.07,0.1-0.15,0.15-0.22c0.43,0.2,0.86,0.41,1.29,0.61c1.9,0.88,3.88,1.15,5.65-0.12c1.39-0.99,2.55-2.29,3.82-3.45
			c-0.04-0.09-0.09-0.17-0.13-0.26c-1.88-0.26-3.75-0.62-5.63-0.77c-2.23-0.18-4.23,1.21-5.03,3.3c-0.07,0.19-0.15,0.39-0.24,0.64
			c-1.94-1.62-3.83-3.21-5.73-4.77c-1.88-1.56-3.86-2.98-6.11-3.96c0.18,0.21,0.39,0.37,0.59,0.55c1.73,1.58,3.48,3.15,5.17,4.77
			c0.76,0.73,0.68,1.09,0.09,1.9c-0.37,0.5-0.7,1.07-0.86,1.67c-0.58,2.16,0.57,5.1,2.41,6.4c1.33-2.1,3.09-4.09,1.92-6.93
			c0.72,0.58,1.35,1.15,1.97,1.73c0.72,0.68,0.73,0.83-0.01,1.52c-3.11,2.88-2.47,7.46,0.93,10.28c0.47-0.97,0.9-2,1.44-2.97
			c0.63-1.15,1.23-2.3,1.18-3.64c-0.03-0.83-0.22-1.66-0.34-2.49c0.47,0.29,0.83,0.72,1.21,1.13c1.53,1.65,1.63,1.4,0.37,3.41
			c-2.04,3.27-0.85,7.75,2.53,9.63c1.03-3,2.67-5.9,1.31-8.79c0.36,0.3,1.05,0.81,1.65,1.41c0.5,0.5,0.6,1.17,0.4,1.85
			c-0.12,0.4-0.29,0.78-0.43,1.17c-1.13,3.1,0.44,6.84,3.49,8.18c0.29-1.04,0.58-2.07,0.87-3.1c0.7-2.55,0.01-4.63-1.97-6.39
			c-0.77-0.69-1.32-1.63-1.98-2.46c4.45,2,7.79,0.07,11.02-2.64c-1.79-0.43-3.48-0.88-5.19-1.23c-2.11-0.43-3.85,0.23-5.17,1.95
			c-0.16,0.21-0.33,0.41-0.53,0.66c-1.03-0.79-2.04-1.51-2.99-2.31c-0.6-0.51-1.12-1.11-1.68-1.68L198.68,133.09z M218.24,122.99
			c-0.71,0.22-1.35,0.21-2.07,0.02c-5.05-1.35-10.09-2.72-15.16-3.96c-3.66-0.9-7.39-1.1-11.12-0.4c-1.77,0.33-3.05,1.44-4.15,2.88
			c0.21,0.14,0.36,0.25,0.52,0.35c2.53,1.43,5.01,1.56,7.39-0.32c1.39-1.1,2.92-1.24,4.57-0.77c5.54,1.59,11.07,3.18,16.61,4.75
			c0.53,0.15,0.66,0.45,0.65,0.96c-0.02,0.75-0.02,1.52,0.1,2.26c0.45,2.78,2.08,4.86,4.14,6.63c2.59,2.23,5.7,3.47,8.88,4.52
			c1.34,0.44,2.72,0.74,4.08,1.11c-0.95-1.47-1.65-2.97-2.02-4.6c-0.41-1.78-0.77-3.58-1.11-5.38c-0.3-1.58-1.23-2.57-2.77-2.84
			c-1.24-0.22-2.52-0.22-3.78-0.27c-0.23-0.01-0.47,0.19-0.7,0.29c0.14,0.23,0.24,0.51,0.43,0.69c0.79,0.72,1.6,1.4,2.41,2.09
			c-0.02,0.04-0.04,0.07-0.06,0.11c-0.22-0.04-0.44-0.08-0.72-0.13c0.76,1.33,1.49,2.59,2.21,3.84c-0.08,0.05-0.16,0.1-0.24,0.15
			c-1.19-1.44-2.38-2.88-3.56-4.33c-0.06,0.01-0.12,0.02-0.18,0.03c0,1.26,0,2.52,0,3.78c-0.12,0.01-0.24,0.03-0.36,0.04
			c-0.23-1.05-0.73-2.12-0.64-3.15c0.15-1.86-0.86-2.88-2.2-3.96c-0.25,1.06-0.48,2.04-0.71,3.03c-0.06,0-0.12,0.01-0.18,0.01
			c-0.11-1.27-0.25-2.54-0.31-3.82c-0.01-0.24,0.27-0.66,0.5-0.73c1.02-0.32,2.06-0.55,3.1-0.81c0.01,0.05,0.03,0.1,0.04,0.15
			c-0.56,0.4-1.12,0.81-1.68,1.21c0.02,0.09,0.04,0.18,0.05,0.28c0.91,0.08,1.82,0.22,2.73,0.23c2.06,0.04,4.06,0.24,5.81,1.82
			C227.49,124.27,222.6,121.65,218.24,122.99z M170.88,119.04c-1.63,1.08-3.37,2.04-4.87,3.28c-2.92,2.41-5.65,5.04-8.55,7.48
			c-2.82,2.37-5.74,4.62-8.61,6.94c-0.49,0.4-0.75,0.29-1.07-0.22c-0.64-1.02-1.58-1.73-2.76-1.88c-1.12-0.15-2.29-0.2-3.4-0.03
			c-1.45,0.22-2.87,0.69-4.38,1.07c3.21,3.25,6.83,4.43,11.35,2.31c-1.39,2.41-2.14,4.79-2.37,7.33c-0.09,0-0.18-0.01-0.27-0.01
			c-0.1-1.21-0.2-2.43-0.3-3.66c-1.27,1.32-1.88,2.9-1.54,4.75c0.25,1.33,0.67,2.63,1.06,4.1c0.75-0.59,1.45-1.08,2.07-1.64
			c1.53-1.39,2.24-3.13,1.95-5.2c-0.13-0.94-0.39-1.86-0.66-2.77c-0.16-0.55-0.13-1.02,0.28-1.41c1.1-1.07,2.21-2.13,3.33-3.18
			c0.26-0.25,0.6-0.41,1.01-0.68c-0.62,1.47-1.17,2.79-1.72,4.1c-0.03,0-0.06,0-0.08,0.01c0.03-0.64,0.06-1.28,0.09-2
			c-1.2,1.06-1.59,2.37-1.28,3.81c0.38,1.78,0.91,3.53,1.38,5.3c2.22-0.97,4.14-4.11,4-6.46c-0.08-1.31-0.59-2.45-1.27-3.54
			c-0.42-0.67-0.6-1.38,0-2.02c0.52-0.57,1.11-1.08,1.68-1.61c-0.33,1.71-0.19,3.3,0.58,4.82c0.64,1.25,1.28,2.49,1.92,3.73
			c2.36-1.67,3.81-5.88,2.46-7.55c0.12,0.93,0.32,1.82-0.26,2.85c-0.03-2.32-1.14-3.91-2.63-5.36c0.87-0.95,1.69-1.85,2.51-2.75
			c-0.24,2.59,1.28,4.3,2.73,6.36c0.69-1.29,1.44-2.37,1.85-3.56c0.6-1.71,0.4-3.41-0.92-4.78c-0.51-0.53-0.41-0.84,0-1.33
			c1.88-2.21,4-4.15,6.3-5.9c0.18-0.14,0.36-0.28,0.54-0.42C170.98,119.19,170.93,119.12,170.88,119.04z M232.85,119.09
			c3.4,0.22,5.74,1.96,6.95,5.03c0.62,1.57,0.87,3.29,1.14,4.97c0.16,0.99,0.03,2.03,0.03,3.17c-1.16-1.38-2.77-1.63-4.32-2.05
			c-2.03-0.54-3.81-1.51-5.15-3.17c-0.99-1.23-1.52-2.62-1.32-4.21c0.08-0.66-0.17-0.98-0.79-1.17c-3.51-1.1-7.11-1.56-10.78-1.36
			c-1.96,0.11-3.86-0.08-5.73-0.61c-3.76-1.06-7.51-2.15-11.26-3.23c-0.2-0.06-0.4-0.14-0.6-0.36c0.24-0.01,0.49-0.05,0.73-0.04
			c4.03,0.2,8.05,0.36,12.08,0.61c5.59,0.35,11.21,0.69,16.75-0.28c4.71-0.83,9.35-2.04,14.02-3.09c1.32-0.3,2.63-0.66,3.96-0.92
			C243.69,115.49,238.34,117.43,232.85,119.09z M233.2,122.67c-0.02-0.11-0.04-0.21-0.06-0.32c0.61-0.34,1.22-0.67,1.82-1.01
			c-0.61,0.02-1.2,0.13-1.78,0.26c-1.41,0.31-1.42,0.32-1.23,1.77c0.08,0.61,0.22,1.2,0.33,1.8c0.06-0.01,0.11-0.02,0.17-0.03
			c0.14-0.56,0.28-1.11,0.43-1.71c0.19,0.04,0.33,0.04,0.41,0.1c0.76,0.55,1.4,1.19,1.62,2.17c0.17,0.76,0.4,1.51,0.61,2.27
			c0.08-0.02,0.16-0.03,0.23-0.05c-0.06-0.75-0.11-1.51-0.18-2.44c0.93,0.62,1.74,1.16,2.55,1.7c0.06-0.07,0.12-0.15,0.18-0.22
			c-1.03-1.05-2.05-2.09-3.06-3.12c1,0,2.11,0,3.22,0c0.01-0.06,0.02-0.13,0.04-0.19C236.72,123.33,234.96,123,233.2,122.67z
			 M109.94,132c-0.03-3.41,0.19-6.55,1.96-9.37c1.46-2.32,3.5-3.55,6.29-3.42c0.09,0,0.18,0,0.43,0c-2.87-1.02-5.61-1.93-8.3-2.96
			c-2.71-1.04-5.29-2.34-7.68-4.03c2.54,0.6,5.07,1.24,7.61,1.81c3.72,0.83,7.41,1.79,11.17,2.39c4.16,0.67,8.38,0.56,12.58,0.31
			c2.97-0.17,5.94-0.47,8.92-0.61c2.19-0.1,4.39-0.03,6.59-0.03c0.13,0,0.27,0.05,0.42,0.21c-2.5,0.74-4.98,1.54-7.5,2.2
			c-2.07,0.55-4.18,0.98-6.29,1.35c-0.87,0.15-1.81,0.09-2.69-0.03c-3.83-0.53-7.49,0.21-11.1,1.38c-1.54,0.5-1.55,0.5-1.58,2.14
			c-0.03,1.66-0.72,3.02-1.9,4.15c-1.58,1.51-3.5,2.38-5.6,2.87C112.1,130.64,110.96,130.97,109.94,132z M115.14,125.49
			c0.07,0.04,0.13,0.08,0.2,0.12c-0.09,0.8-0.17,1.59-0.26,2.39c0.07,0.01,0.14,0.03,0.21,0.04c0.15-0.62,0.38-1.24,0.45-1.87
			c0.15-1.41,1.11-2.13,2.21-2.98c0.19,0.73,0.35,1.31,0.51,1.89c0.06,0,0.12,0,0.18,0c0.14-1.05,0.29-2.1,0.44-3.21
			c-1.1-0.23-2.1-0.45-3.11-0.66c-0.01,0.04-0.02,0.09-0.03,0.13c0.61,0.36,1.21,0.71,1.82,1.07c-0.02,0.08-0.05,0.16-0.07,0.24
			c-1.82,0.34-3.65,0.68-5.47,1.01c0.01,0.08,0.03,0.15,0.04,0.23c1.15,0,2.31,0,3.61,0c-1.12,1.01-2.1,1.89-3.07,2.77
			c0.05,0.05,0.09,0.11,0.14,0.16C113.66,126.38,114.4,125.94,115.14,125.49z M175.78,34.02c-1,0-2,0.03-3.01-0.01
			c-0.65-0.03-0.85,0.2-0.8,0.86c0.2,2.39,0.35,4.77,0.51,7.16c0.4,6.27,0.8,12.53,1.18,18.8c0.03,0.51,0.23,0.68,0.72,0.66
			c0.71-0.03,1.42-0.01,2.13-0.01c1.17,0.01,1.16,0.01,1.24-1.2c0.28-4.12,0.57-8.24,0.86-12.36c0.31-4.34,0.61-8.68,0.94-13.01
			c0.05-0.67-0.14-0.93-0.84-0.89c-0.97,0.05-1.95,0.01-2.93,0.01C175.78,34.03,175.78,34.02,175.78,34.02z M109.57,109.63
			c9.08,5.33,18.67,7.47,29.05,4.88c-0.22-0.12-0.45-0.19-0.68-0.24c-2.68-0.55-5.36-1.07-8.03-1.65c-3.25-0.71-6.43-1.66-9.3-3.42
			c-0.28-0.17-0.53-0.39-0.91-0.67c4.77-3.76,10.32-5.42,15.9-6.96C127.1,101.58,112.67,106.06,109.57,109.63z M116.26,76.71
			c1.72,1.06,3.47,2.1,5.16,3.21c0.55,0.36,1.07,0.86,1.45,1.4c1.28,1.84,2.5,3.73,3.72,5.61c0.39,0.61,0.88,0.84,1.6,0.74
			c2.35-0.3,4.7-0.56,7.05-0.85c1.44-0.18,2.89-0.37,4.39-0.57c-0.11-0.22-0.16-0.35-0.24-0.47c-1.27-1.97-2.54-3.94-3.83-5.89
			c-0.12-0.18-0.36-0.33-0.57-0.41c-3.4-1.33-6.84-2.45-10.54-2.51c-1.12-0.02-2.24-0.15-3.36-0.21c-1.6-0.09-3.2-0.16-4.79-0.23
			C116.28,76.59,116.27,76.65,116.26,76.71z M104.95,107.46c0.54,0.4,1.04,0.35,1.63,0.07c2.19-1.01,4.36-2.1,6.62-2.94
			c7.6-2.8,15.53-4.03,23.56-4.71c1.88-0.16,3.77-0.29,5.65-0.43c-0.22-0.19-0.45-0.28-0.68-0.31c-1.74-0.2-3.49-0.49-5.24-0.56
			c-7-0.27-13.97,0.28-20.9,1.2c-4.14,0.55-8.27,1.21-12.27,2.45c-1.17,0.36-2.3,0.87-3.63,1.37
			C101.61,105.01,103.28,106.23,104.95,107.46z M158.4,62.23c-4.3-5.59-8.61-11.19-12.91-16.78c-0.59-0.76-0.65-0.75-1.34-0.09
			c-0.97,0.93-1.94,1.86-2.92,2.78c-0.95,0.9-0.95,0.98-0.04,1.91c5.54,5.68,11.09,11.37,16.63,17.05c0.17,0.17,0.35,0.33,0.55,0.52
			c0.88-0.64,1.72-1.25,2.67-1.94C160.12,64.48,159.26,63.35,158.4,62.23z M210.75,48.79c-1.29-1.23-2.57-2.46-3.89-3.66
			c-0.13-0.12-0.52-0.07-0.73,0.03c-0.2,0.1-0.32,0.35-0.47,0.55c-3.33,4.3-6.66,8.61-9.99,12.92c-1.64,2.12-3.28,4.25-4.92,6.38
			c-0.52,0.67-0.48,0.77,0.23,1.24c0.45,0.3,0.89,0.6,1.3,0.96c0.45,0.4,0.75,0.32,1.16-0.1c5.72-5.85,11.45-11.69,17.17-17.53
			c0.13-0.14,0.24-0.3,0.37-0.46C210.89,48.98,210.84,48.87,210.75,48.79z M197.15,38.91c-0.68-0.4-0.85-0.36-1.16,0.36
			c-0.73,1.7-1.47,3.4-2.17,5.12c-2.44,6.06-4.87,12.13-7.28,18.21c-0.08,0.2,0.05,0.67,0.21,0.74c0.19,0.09,0.53-0.07,0.79-0.17
			c0.11-0.05,0.17-0.23,0.25-0.35c1.75-2.73,3.57-5.43,5.25-8.2c2.67-4.43,5.25-8.91,7.93-13.48
			C199.59,40.34,198.37,39.63,197.15,38.91z M151.13,40.73c-0.4,0.23-0.44,0.55-0.24,0.93c0.11,0.22,0.24,0.42,0.35,0.64
			c3.81,7.16,8.04,14.06,12.47,20.85c0.12,0.18,0.58,0.38,0.64,0.33c0.21-0.21,0.4-0.51,0.43-0.79c0.03-0.26-0.14-0.56-0.25-0.83
			c-3.08-7.59-6.16-15.18-9.25-22.77c-0.07-0.17-0.18-0.33-0.31-0.56C153.66,39.28,152.39,40.01,151.13,40.73z M136.28,72.48
			c-1.52,2.45-2.1,4.83,0.38,6.93c0.22-0.56,0.35-1.14,0.65-1.63c0.68-1.09,0.74-2.17,0.25-3.35c-0.22-0.54-0.25-1.15-0.36-1.73
			c0.08-0.01,0.15-0.03,0.23-0.04c0.15,0.51,0.29,1.02,0.45,1.53c0.37,1.18,1.14,1.95,2.32,2.34c1,0.32,1.98,0.69,2.96,1.04
			c0.01-1.28-0.25-2.64-0.98-3.91c-0.78-1.34-2.19-1.62-3.5-2.11c1.98,0.03,3.33-1.18,4.78-2.23c-1.19-1.32-2.5-2.16-4.3-1.58
			c-1.77,0.57-2.18,2-2.16,3.65c-0.84-0.02-1.7-0.73-1.88-1.53c0.43,0.31,0.87,0.61,1.31,0.92c0.04-0.05,0.08-0.11,0.11-0.16
			c-0.85-0.76-1.7-1.52-2.57-2.27c-1.45-1.25-4.57-0.58-5.43,1.16c1.11-0.18,1.41-0.08,2.62,0.58c1.05,0.57,2.14,1.06,3.16,1.56
			c-0.18,0.05-0.52,0.16-0.87,0.26c-1.23,0.36-2.11,1.1-2.54,2.33c-0.3,0.87-0.6,1.74-0.92,2.65c0.49-0.08,1.01-0.19,1.53-0.23
			c1.51-0.11,2.53-0.82,3.14-2.24c0.3-0.71,0.83-1.33,1.26-1.99C136.06,72.43,136.17,72.45,136.28,72.48z M169.57,57.88
			c-0.83-7.54-2.51-14.93-3.96-22.36c-0.1-0.5-0.34-0.64-0.83-0.48c-0.86,0.27-1.73,0.54-2.61,0.74c-0.63,0.14-0.78,0.44-0.63,1.04
			c1.17,4.41,2.22,8.86,3.51,13.24c1.12,3.79,2.52,7.49,3.82,11.22c0.07,0.19,0.38,0.4,0.59,0.4c0.21,0,0.41-0.24,0.54-0.33
			C169.85,60.06,169.69,58.98,169.57,57.88z M181.58,60.99c0.11,0.25,0.21,0.6,0.41,0.7c0.42,0.19,0.52-0.18,0.59-0.51
			c0.04-0.17,0.09-0.33,0.16-0.49c3.05-7.79,5.11-15.88,7.27-23.94c0.14-0.54,0-0.77-0.5-0.9c-0.82-0.22-1.65-0.44-2.46-0.7
			c-0.95-0.3-1.08-0.25-1.28,0.73c-0.44,2.2-0.85,4.41-1.31,6.61c-1.25,6-2.3,12.03-2.86,18.14
			C181.58,60.75,181.53,60.9,181.58,60.99z M132.06,53.07c0.68,0.71,1.14,1.5,0.8,2.51c-0.22,0.66-0.01,1.03,0.54,1.4
			c6.74,4.58,13.47,9.18,20.2,13.78c0.62,0.42,0.77,0.36,1.37-0.4c0.38-0.49,0.17-0.76-0.22-1.08c-2.07-1.68-4.1-3.39-6.18-5.05
			c-4.14-3.34-8.3-6.66-12.47-9.97c-0.18-0.14-0.54-0.05-0.81-0.08c-0.26-0.03-0.61,0.02-0.76-0.13c-0.55-0.53-1.03-1.13-1.45-1.61
			c-1.37-0.29-2.14-1.5-3.41-1.84C130.47,51.42,131.27,52.25,132.06,53.07z M161.32,118.53c-3.08-0.48-6.15-0.48-9.18,0.22
			c-4.61,1.06-9.2,2.24-13.8,3.38c-1.87,0.47-1.85,0.48-1.24,2.28c0.17,0.51,0.44,0.65,0.93,0.51c0.8-0.22,1.61-0.4,2.41-0.62
			c4.02-1.12,8.04-2.24,12.05-3.38c2.32-0.66,4.42-0.39,6.33,1.2c0.51,0.43,1.25,0.68,1.92,0.81c1.87,0.35,3.47-0.51,5.16-1.31
			C164.76,119.92,163.31,118.84,161.32,118.53z M214.86,54.49c-3.67,2.95-7.38,5.87-11.05,8.83c-2.45,1.98-4.87,3.99-7.3,6.01
			c-0.21,0.17-0.48,0.46-0.46,0.67c0.06,0.72,1,1.12,1.6,0.72c3.64-2.46,7.28-4.93,10.91-7.4c3.21-2.19,6.42-4.38,9.61-6.58
			c0.2-0.14,0.44-0.54,0.38-0.7c-0.61-1.44-0.04-2.49,0.96-3.47c0.65-0.63,1.26-1.31,1.89-1.97c-0.76,0.37-1.41,0.88-2.09,1.33
			c-0.38,0.25-0.81,0.41-1.29,0.64c-0.48,0.56-1.04,1.22-1.64,1.92C215.78,53.85,215.35,54.1,214.86,54.49z M141.55,142.53
			c-0.04-0.05-0.07-0.1-0.11-0.15c0.98-0.84,1.95-1.68,2.97-2.55c-0.43-0.11-0.78-0.19-1.14-0.28c-3.42-0.83-5.97,0.24-7.76,3.27
			c-0.8,1.35-1.67,2.63-3.27,3.36c1.17,0.63,2.32,0.88,3.51,1c3.27,0.32,5.96-0.56,7.7-3.6c0.66-1.15,1.57-2.16,2.48-3.39
			C144.4,141.01,142.97,141.77,141.55,142.53z M215.96,142.99c-0.27-0.44-0.53-0.88-0.82-1.3c-1.67-2.38-5.25-3.2-7.87-1.79
			c0.9,0.78,1.8,1.56,2.69,2.34c-0.04,0.05-0.08,0.1-0.12,0.15c-1.28-0.67-2.56-1.35-3.95-2.08c0.96,1.43,1.81,2.7,2.67,3.97
			c0.92,1.37,2.18,2.28,3.79,2.69c2.35,0.59,4.57,0.06,6.98-0.74C217.71,145.51,216.78,144.31,215.96,142.99z M130.96,97.36
			c1.29,0,2.59-0.02,3.88,0.01c0.56,0.01,0.81-0.19,0.79-0.77c-0.03-0.95-0.05-1.91-0.03-2.86c0.01-0.59-0.25-0.91-0.81-1.03
			c-2.57-0.57-5.15-1.15-7.72-1.73c-0.54-0.12-0.77,0.07-0.76,0.64c0.03,1.64,0.04,3.27,0.03,4.91c0,0.54,0.2,0.74,0.73,0.73
			c1.29-0.02,2.59-0.01,3.89-0.01C130.96,97.3,130.96,97.33,130.96,97.36z M207.87,69.32c-0.51,0.29-0.86,0.3-1-0.38
			c-0.09-0.45-0.41-0.53-0.68-0.22c-0.43,0.48-0.85,1-1.11,1.57c-0.22,0.48-0.46,0.81-0.96,1.01c-0.99,0.39-2.15,0.47-2.77,1.56
			c-0.08,0.15-0.32,0.2-0.5,0.29c-0.45,0.24-0.93,0.44-1.36,0.72c-0.14,0.09-0.26,0.41-0.2,0.55c0.07,0.16,0.39,0.37,0.51,0.32
			c1.65-0.66,3.29-1.34,4.9-2.08c0.41-0.19,0.66-0.34,1.07,0.02c0.78,0.68,1.55,0.68,2.43,0.17c0.35-0.21,0.42-0.42,0.19-0.76
			c-0.33-0.48-0.64-0.98-0.97-1.46c-0.29-0.42-0.21-0.71,0.26-0.93c0.64-0.3,1.27-0.62,1.9-0.95c0.73-0.39,0.83-0.35,1.01,0.44
			c0.17,0.72,0.49,0.9,1.07,0.59c1.47,1.19,2.76,0.73,3.12-1.12c0.05-0.26,0.07-0.53,0.13-0.79c0.19-0.83,0.4-1.66,0.59-2.48
			c0.07-0.31,0.11-0.63,0.17-0.95c-0.35-0.03-0.7-0.09-1.05-0.07c-0.23,0.01-0.5,0.1-0.68,0.24c-0.76,0.55-1.5,1.13-2.28,1.73
			c-0.89-0.9-2.03-1.43-3.72-1.09c0.77,1.06,1.43,1.97,2.12,2.93C209.33,68.54,208.59,68.91,207.87,69.32z M192.63,147.66
			c0.21-0.78,0.09-1.53-0.4-2.16c-0.4-0.51-0.68-0.98-0.26-1.61c-0.98-0.12-1.61,0.38-1.7,1.31c-0.09,0.95,0.4,1.61,1.09,2.19
			c0.33,0.28,0.57,0.67,0.85,1.01c-0.06,0.11-0.13,0.21-0.19,0.32c-1.76-2.44-3.8-2.15-5.92-0.7c0.87,1.12,2.05,1.79,3.6,1.61
			c0.85-0.1,1.51,0.21,2.12,0.77c1.83,1.7,3,3.77,3.55,6.2c0.03,0.14,0.1,0.27,0.21,0.53c0.37-1.28,0.36-2.4,0.11-3.55
			c-0.06-0.3,0.03-0.74,0.23-0.96c0.98-1.06,1.25-2.24,0.77-3.59c-0.25-0.7-0.39-1.37,0.33-1.91c-1.98-0.62-3.13,0.45-3.31,3.09
			C192.75,149.55,192.35,148.75,192.63,147.66z M151.99,131.54c-1.14-1.57-2.71-2.5-4.63-2.3c-2.04,0.21-4.05,0.73-6.07,1.11
			c0,0.09,0,0.18,0,0.27c0.9,0.69,1.83,1.36,2.7,2.08c2.79,2.3,5.85,2.17,9.15,0.42C152.76,132.59,152.37,132.07,151.99,131.54z
			 M198.66,133.07c0.61,0.22,1.23,0.42,1.84,0.66c1.98,0.78,3.95,0.77,5.78-0.33c1.38-0.83,2.64-1.87,4.07-2.9
			c-1.46-0.39-2.79-0.76-4.13-1.08c-0.64-0.15-1.3-0.24-1.96-0.27c-2.45-0.13-5.01,1.69-5.58,3.95
			C198.68,133.09,198.67,133.07,198.66,133.07z M150.2,128.24c0.6,0.54,1.37,0.94,2.13,1.24c2.09,0.82,4,0.02,5.94-0.78
			c-1.58-1.21-3.11-2.38-4.63-3.55c0.77,0.18,1.56,0.37,2.26,0.73c0.68,0.35,1.27,0.87,1.96,1.36c-0.62-1.44-1.59-2.45-3.09-2.7
			c-1.04-0.18-2.14-0.18-3.2-0.07c-1.45,0.15-2.88,0.49-4.3,0.75C148.23,126.23,149.15,127.3,150.2,128.24z M133.4,124.44
			c-0.77,1.15-0.95,2.41-0.32,3.61c0.61,1.16,1.45,2.19,2.24,3.35c1.41-2.39,1.61-4.82,0.33-6.83c-0.14-0.22-0.09-0.63-0.01-0.92
			c0.11-0.37,0.12-0.71-0.33-0.67c-0.92,0.08-1.48-0.46-2.11-0.99c-1.68-1.43-4.67-1.59-6.19-0.36c2.07,1.93,3.94,2.54,6.77,2.17
			C133.63,124.08,133.52,124.27,133.4,124.44z M131.75,129.14c-0.33-1.1-1.06-2.14-0.29-3.23c-0.54-0.22-1.1-0.29-1.43-0.6
			c-1.69-1.57-3.93-1.85-5.93-0.65c1.72,1.65,3.69,2.29,6.05,1.52c-0.04,0.16-0.04,0.22-0.06,0.25c-0.17,0.21-0.34,0.41-0.53,0.61
			c-1.17,1.25-1.39,2.73-0.65,4.2c0.55,1.09,1.42,2.01,2.28,3.19C132.03,132.56,132.27,130.88,131.75,129.14z M133.62,66.03
			c0.27,2.03,1.61,3.23,3.25,4.3c-0.07-1.55,0.51-2.62,1.94-3.17c0.18-0.07,0.35-0.27,0.45-0.45c0.93-1.61,0.09-4.24-1.51-5
			c-0.23,0.55-0.42,1.13-0.72,1.65c-0.31,0.54-0.24,0.95,0.07,1.48c0.33,0.55,0.5,1.21,0.66,1.84c0.06,0.24-0.09,0.53-0.14,0.8
			c-0.95-3.27-2.28-4.31-5.43-4.06C133.07,64.17,133.49,65.04,133.62,66.03z M143.78,94.67c0-0.71-0.01-1.42,0-2.12
			c0.01-0.49-0.21-0.65-0.68-0.58c-1.3,0.2-2.61,0.36-3.9,0.59c-0.2,0.04-0.49,0.36-0.49,0.56c-0.03,1.19,0.02,2.39,0.02,3.59
			c0,0.44,0.18,0.61,0.61,0.61c1.29,0,2.59,0.01,3.88,0.03c0.44,0.01,0.61-0.19,0.6-0.62c-0.02-0.68-0.01-1.37-0.01-2.05
			C143.81,94.67,143.8,94.67,143.78,94.67z M127.06,128.83c-0.4,0.31-0.82,0.6-1.18,0.95c-1.17,1.13-1.59,2.58-0.93,3.84
			c0.49,0.95,1.21,1.77,1.86,2.7c1.06-1.54,1.21-2.92,0.55-4.49c-0.4-0.94-0.71-1.88-0.16-2.88
			C127.15,128.91,127.1,128.87,127.06,128.83z M140.23,81.13c0.08,0.22,0.37,0.48,0.59,0.51c2.26,0.35,4.53,0.66,6.8,0.96
			c0.17,0.02,0.37-0.19,0.56-0.29c-0.12-0.18-0.2-0.44-0.37-0.51c-0.47-0.2-0.97-0.32-1.46-0.47c-2.16-0.66-4.32-1.33-6.62-2.04
			C139.92,80.01,140.02,80.59,140.23,81.13z M201.59,77.65c-0.15,0.08-0.16,0.43-0.24,0.66c0.22,0.06,0.48,0.22,0.66,0.16
			c1.91-0.58,3.82-1.17,5.71-1.83c0.37-0.13,0.74-0.48,0.93-0.83c0.28-0.51,0.4-1.12,0.66-1.93
			C206.65,75.17,204.11,76.39,201.59,77.65z M112.99,91.16c0,2.11,0,4.07,0,6.12c1.07-1.04,2.03-1.98,3.04-2.95
			C115.04,93.3,114.05,92.26,112.99,91.16z M117.74,94.23c1,1.05,1.92,2.01,2.91,3.04c0-2.01,0-3.95,0-6.12
			C119.55,92.31,118.59,93.33,117.74,94.23z M127.08,128.07c-1.91-1.85-3.63-2.1-5.43-0.75
			C123.11,128.63,125.63,129.43,127.08,128.07z M146.01,71.06c-0.38-0.22-0.77-0.42-1.13-0.66c-0.55-0.36-1.05-0.35-1.62,0.02
			c-0.76,0.48-1.58,0.87-2.41,1.32C142.37,73.26,144.37,72.99,146.01,71.06z M129.43,72.55c0.36,0.2,0.91,0.44,1.19,0.31
			c0.7-0.33,1.29-0.87,1.95-1.35c-1.74-1.11-3.5-1.46-5.39-0.38C127.96,71.62,128.67,72.12,129.43,72.55z M149.51,74.06
			c0.43,0.22,0.87,0.48,1.33,0.58c0.26,0.05,0.58-0.19,0.87-0.29c-0.13-0.21-0.22-0.5-0.41-0.62c-1.11-0.71-2.23-1.38-3.36-2.06
			c-0.99-0.59-1.13-0.54-1.75,0.68C147.32,72.92,148.41,73.5,149.51,74.06z M116.95,93.65c0.77-0.81,1.57-1.64,2.47-2.58
			c-1.78,0-3.42,0-5.02,0C115.25,91.94,116.1,92.79,116.95,93.65z M120.07,129.86c-0.4,0.23-0.47,0.51-0.02,0.75
			c0.47,0.25,0.96,0.47,1.46,0.69c1.15,0.49,2.13,0.18,3.07-0.64C123.38,129.39,121.45,129.07,120.07,129.86z M130.67,67.34
			c0.84,0,1.68,0,2.51,0c-0.17-2.04-1.19-2.87-3.52-2.9C130.01,65.45,130.36,66.44,130.67,67.34z M141.82,67.53
			c0.57,0.21,1.01,0.08,1.19-0.45c0.25-0.75,0.37-1.54,0.55-2.32c-1.48,0.55-3.2,0.44-3.78,2.16
			C140.52,67.14,141.19,67.3,141.82,67.53z M144.59,76.76c0.08,0.24,0.29,0.53,0.51,0.6c1.27,0.42,2.56,0.79,3.86,1.14
			c0.16,0.04,0.46-0.15,0.56-0.32c0.06-0.1-0.09-0.46-0.23-0.53c-1.58-0.75-3.18-1.47-4.91-2.25
			C144.45,75.95,144.47,76.38,144.59,76.76z M121.29,136.84c0.99-0.46,1.72-1.06,1.81-2.25c0.05-0.72,0.22-1.44,0.35-2.22
			C121.13,133.56,120.64,134.56,121.29,136.84z M117.1,95.26c-0.08-0.07-0.31-0.09-0.38-0.03c-0.67,0.53-1.32,1.09-1.97,1.64
			c0.03,0.06,0.06,0.13,0.09,0.19c1.3,0,2.6,0,4.07,0C118.25,96.4,117.69,95.82,117.1,95.26z M168.95,129.44
			c0.44-0.4,0.89-0.8,1.34-1.2c-0.46-0.51-0.9-1-1.36-1.52C167.43,128.26,167.3,128.09,168.95,129.44z M180.83,128.25
			c0.46,0.42,0.88,0.8,1.3,1.19c1.43-1.47,1.43-1.47-0.01-2.71C181.68,127.25,181.26,127.74,180.83,128.25z M203.05,81.87
			c-0.13,0.04-0.22,0.26-0.32,0.39c0.14,0.1,0.27,0.29,0.41,0.29c0.51,0.02,1.02-0.01,1.53-0.05c1.18-0.1,1.18-0.11,1.5-1.4
			C205.07,81.37,204.05,81.6,203.05,81.87z M116.82,83.28c-0.9,0.01-1.04,0.16-1.08,1.13c-0.03,0.7,0.36,0.76,0.92,0.81
			c0.78,0.07,0.87-0.3,0.78-0.71C117.38,83.87,117.67,83.27,116.82,83.28z"/>
		<radialGradient id="SVGID_1_" cx="175.4392" cy="95.6891" r="69.3364" gradientUnits="userSpaceOnUse">
			<stop  offset="0" style="stop-color:#4BAA46"/>
			<stop  offset="0.1973" style="stop-color:#59A142"/>
			<stop  offset="0.5675" style="stop-color:#7D8A38"/>
			<stop  offset="1" style="stop-color:#AE6A2B"/>
		</radialGradient>
		<path class="st39" d="M203.5,99.83c7.76,1.69,15.3,3.92,21.79,9.14c-1.85,0.39-3.58,0.68-5.25,1.15
			c-1.46,0.41-2.41,0.05-3.47-1.09c-2.67-2.89-6.13-4.61-9.76-6.02c-6.55-2.55-13.39-3.01-20.32-2.93
			c-6.98,0.08-13.84,0.85-20.45,3.26c-5.11,1.86-9.86,4.42-14.21,7.65c-1.99,1.47-3.86,1.94-6.32,1.51
			c-6.78-1.18-13.6-2.2-20.25-4.03c-0.61-0.17-1.2-0.37-1.8-0.56c-0.03-0.08-0.05-0.16-0.08-0.24c0.97-0.57,1.92-1.18,2.92-1.69
			c5.66-2.9,11.69-4.65,17.92-5.78c6.71-1.22,13.48-2.01,20.3-2.27c0.39-0.02,0.78,0.02,1.17-0.02c0.23-0.02,0.44-0.16,0.66-0.24
			c-0.23-0.2-0.44-0.55-0.69-0.59c-0.65-0.08-1.32-0.08-1.97-0.01c-0.85,0.09-1.42-0.16-1.86-0.94c-0.58-1.04-1.5-1.56-2.74-1.44
			c-0.75,0.08-1.52,0.11-2.27,0.05c-0.39-0.03-0.78-0.25-1.12-0.47c-0.45-0.29-0.85-0.66-1.27-1c-0.05,0.06-0.09,0.12-0.14,0.18
			c0.2,0.15,0.4,0.3,0.59,0.46c1.02,0.81,1.47,2.14,1.03,3.35c-0.1,0.28-0.53,0.59-0.83,0.62c-1.33,0.14-2.68,0.21-4.02,0.22
			c-0.31,0-0.76-0.24-0.92-0.5c-0.73-1.18-0.55-2.53,0.47-3.47c0.58-0.54,0.78-1.12,0.73-1.89c-0.06-0.78-0.03-1.56-0.02-2.35
			c0.01-1,0.22-1.22,1.2-1.23c1.56-0.02,3.13-0.03,4.69-0.01c0.62,0.01,0.94-0.18,0.83-0.84c-0.01-0.07-0.01-0.15-0.01-0.22
			c0.03-1.51,0.25-3.06-1.12-4.24c1.74-0.53,2.9,0.26,2.99,1.94c0.05,0.85,0.03,1.71,0.01,2.57c-0.02,0.55,0.16,0.81,0.75,0.8
			c1.49-0.02,2.98-0.02,4.47-0.01c0.5,0,0.73-0.2,0.86-0.69c0.38-1.46,1.1-1.99,2.63-2.05c1.41-0.06,1.73-0.38,1.9-1.75
			c0.07-0.55,0.28-1.08,0.46-1.61c0.19-0.54-0.02-0.88-0.36-1.3c-0.36-0.45-0.66-1.04-0.72-1.59c-0.08-0.65-0.28-0.89-0.9-0.81
			c-0.12,0.01-0.25,0.02-0.37,0c-0.26-0.03-0.52-0.07-0.78-0.1c0.1-0.29,0.12-0.65,0.32-0.84c0.3-0.3,0.73-0.46,1.06-0.73
			c0.39-0.33,0.73-0.72,1.1-1.07c0.17-0.16,0.39-0.4,0.57-0.39c0.68,0.04,1.36,0.14,2.03,0.26c0.47,0.08,0.68,0.37,0.7,0.88
			c0.01,0.24,0.25,0.5,0.45,0.69c0.43,0.41,0.98,0.72,1.34,1.19c0.34,0.44,0.1,0.73-0.46,0.66c-0.22-0.03-0.43-0.1-0.65-0.11
			c-0.24-0.01-0.48,0.02-0.72,0.04c0.05,0.34,0.05,0.7,0.17,1.02c0.07,0.17,0.32,0.29,0.51,0.39c1.18,0.67,1.78,1.73,1.91,3.04
			c0.1,1.02,0.05,2.05,0.11,3.07c0.01,0.24,0.17,0.58,0.36,0.67c1.22,0.53,1.27,0.64,0.46,1.81c0.94,1.17,1.74,2.43,1.9,4
			c0.15,1.55-0.13,3-1.06,4.48c1.44-0.16,2.82,0.17,3.81-1.01c0.62-0.73,0.51-1.05-0.4-1.29c-0.02-0.5-0.37-1.14,0.6-1.21
			c0.1-0.01,0.24-0.3,0.24-0.46c0-0.16-0.14-0.47-0.22-0.47c-0.99-0.04-0.57-0.72-0.65-1.24c0.18-0.04,0.32-0.03,0.4-0.1
			c0.18-0.17,0.42-0.36,0.45-0.57c0.02-0.13-0.3-0.43-0.47-0.44c-0.42-0.02-0.59-0.16-0.54-0.57c0.04-0.33-0.11-0.81,0.5-0.76
			c0.51,0.04,0.55-0.29,0.54-0.66c-0.01-0.36,0-0.72,0.5-0.71c0.47,0,0.74,0.21,0.69,0.73c-0.05,0.51,0.21,0.69,0.7,0.68
			c1.3-0.01,2.59-0.01,3.89,0c0.49,0,0.75-0.19,0.69-0.7c-0.05-0.44,0.07-0.72,0.57-0.71c0.45,0.01,0.68,0.23,0.63,0.69
			c-0.06,0.56,0.22,0.72,0.73,0.71c1.52-0.02,3.03,0.01,4.55-0.02c0.21,0,0.53-0.22,0.58-0.41c0.09-0.34-0.02-0.65-0.51-0.69
			c-0.18-0.02-0.39-0.32-0.49-0.54c-0.07-0.16-0.01-0.38,0.01-0.58c0.08-1.01-0.07-1.22-1.08-1.48c-1.25-0.32-2.5-0.65-3.75-1
			c-0.23-0.07-0.43-0.25-0.65-0.38c0.17-0.21,0.34-0.42,0.52-0.62c0.01-0.02,0.05-0.02,0.07-0.03c1.88-1.37,3.87-1.54,6.13-0.91
			c2.58,0.72,5.25,1.11,7.89,1.61c0.65,0.12,1.1,0.35,1.11,1.1c0,0.18,0.07,0.4,0.19,0.54c0.73,0.86,0.83,1.89,0.86,2.96
			c0.09,3.06,3,5.02,5.89,3.98c0.25-0.09,0.5-0.2,0.77-0.24c0.76-0.12,1.09,0.18,1.09,0.94c0.01,0.98,0.03,1.96-0.01,2.93
			c-0.03,0.66,0.18,0.89,0.87,0.91c2.83,0.09,5.66,0.23,8.49,0.38c0.56,0.03,0.79-0.17,0.92-0.68c0.41-1.63,0.2-3.21-0.39-4.74
			c-0.42-1.09-1-2.12-1.41-3.21c-0.24-0.64-0.3-1.34-0.45-2.05c-0.53,0.16-0.87,0.67-1.16,1.24c-0.48,0.92-1.23,1.42-2.3,1.42
			c-1.22,0-1.74-0.55-1.66-1.77c0.01-0.14,0.03-0.29,0.04-0.45c-0.62,0.37-0.84,0.88-0.66,1.57c0.26,1.01,0.95,1.64,1.89,1.98
			c1.1,0.41,2.22,0.76,3.32,1.15c1.86,0.65,1.97,0.54,1.83,2.94c-0.02,0.34-0.18,0.67-0.35,1.03c-0.64-1.63-2.11-2.19-3.45-2.94
			c-1.16-0.65-2.26-1.42-3.43-2.06c-0.33-0.18-0.88-0.27-1.19-0.11c-0.6,0.3-1.11,0.3-1.52-0.17c-0.43-0.48-0.73-0.33-1.18-0.05
			c-1.18,0.76-2.4,0.63-3.35-0.29c-0.72-0.7-0.96-1.77-0.55-2.69c0.22-0.49,0.24-0.87-0.23-1.21c-0.97-0.68-1.4-1.62-1.16-2.79
			c0.25-1.2,1.11-1.78,2.24-2.04c0.07-0.02,0.13-0.05,0.26-0.09c-0.1-0.08-0.16-0.15-0.23-0.17c-0.88-0.26-1.05-0.58-0.49-1.32
			c0.34-0.45,0.9-0.74,1.37-1.1c0.06,0.04,0.11,0.09,0.17,0.13c-0.03-0.16-0.04-0.32-0.09-0.47c-0.24-0.77,0.09-1.28,0.75-1.63
			c0.62-0.33,1.26-0.63,1.93-0.96c-0.12-0.32-0.34-0.62-0.31-0.89c0.03-0.29,0.26-0.58,0.47-0.81c0.03-0.04,0.45,0.17,0.6,0.35
			c0.48,0.57,0.92,1.17,1.37,1.76c0.09-0.04,0.19-0.08,0.28-0.12c-0.17-0.52-0.23-1.11-0.53-1.54c-0.37-0.54-0.55-1.01-0.29-1.62
			c0.29-0.67,0.8-1.08,1.52-1.07c0.56,0.01,0.93-0.15,1.27-0.61c0.58-0.78,1.25-0.33,1.93,0.06c0.05-0.22,0.09-0.4,0.13-0.57
			c0.17-0.72,0.6-1.2,1.35-1.23c0.9-0.04,1.81,0.03,2.71,0c0.37-0.01,0.77-0.1,1.08-0.28c0.92-0.53,1.35-0.53,2.21,0.11
			c0.19,0.14,0.52,0.31,0.68,0.24c1.35-0.58,2.33-0.29,2.87,1.14c1.92-1.51,3.6-0.62,3.65,1.28c1.01-0.52,2.05-0.89,3.15-0.37
			c1.07,0.51,1.66,1.34,1.52,2.57c1.66,0.48,1.8,0.66,1.47,1.85c0.71,0.27,1.49,0.44,2.12,0.84c0.8,0.5,0.69,1.32,0.33,2.12
			c0.74,0.3,1.66,0.35,1.79,1.38c0.1,0.8-0.54,1.06-1.14,1.43c1.22,0.29,2.45,0.48,2.62,2c0.12,1.06-0.16,1.54-1.31,2.27
			c0.29,0.69,0.71,1.34,0.82,2.05c0.41,2.58-2.44,3.81-4.14,2.88c-0.59-0.32-1.05-0.35-1.7-0.07c-0.43,0.18-1.09,0.03-1.57-0.17
			c-0.45-0.18-0.7-0.16-1.1,0.11c-0.9,0.62-1.87,1.13-2.82,1.68c-1.05,0.61-2.15,1.16-3.16,1.82c-1.06,0.7-1.15,1.82-0.97,2.95
			c0.04,0.22,0.43,0.51,0.69,0.56c3.35,0.54,6.73,0.91,10.05,1.6c3.36,0.7,6.66,1.73,9.98,2.61c0.26,0.07,0.5,0.18,0.87,0.32
			c-0.26,0.19-0.43,0.34-0.62,0.47c-2.13,1.48-4.26,2.95-6.38,4.43c-0.38,0.26-0.69,0.36-1.12,0.07c-5.1-3.39-10.72-5.49-16.71-6.61
			c-2.06-0.38-4.15-0.58-6.23-0.87c-0.01,0.07-0.03,0.15-0.04,0.22c0.58,0.16,1.17,0.32,1.75,0.48c4.18,1.13,8.32,2.36,12.16,4.41
			c1.79,0.96,3.51,2.04,4.93,3.52c0.18,0.19,0.35,0.4,0.63,0.71c-3.6,2.08-7.37,3.45-11.33,4.34c-5.28,1.18-10.51,0.69-15.73-0.46
			c3.1-0.66,6.22-1.24,9.29-2c2.15-0.53,4.24-1.3,6.35-1.98c0.44-0.14,0.84-0.39,1.24-0.62c0.8-0.45,0.86-0.73,0.17-1.29
			c-0.82-0.68-1.67-1.36-2.59-1.91c-3.16-1.91-6.61-3.11-10.14-4.15c-4.15-1.22-8.39-1.84-12.68-2.17
			C203.89,99.82,203.7,99.83,203.5,99.83z M228.99,93.31c1.7-0.55,3.28-1.03,4.85-1.58c0.61-0.21,1.2-0.54,1.75-0.89
			c0.44-0.28,0.62-0.72,0.35-1.35c-0.78,0.67-1.64,0.87-2.6,0.56c-1.04-0.33-1.29-1.3-1.68-2.11c-0.2,0.46-0.3,0.97-0.59,1.28
			C229.97,90.36,229.64,91.85,228.99,93.31z M171.82,97.44c-1.37-1.14-2.14-2.47-1.56-4.25c0.67-2.04,2.36-2.26,4.25-2.21
			c-1.2-0.95-2.85-0.91-4.16,0.02c-1.38,0.98-1.96,2.74-1.43,4.34C169.36,96.64,170.5,97.5,171.82,97.44z M192.86,91.01
			c0-0.01,0-0.03,0-0.04c-0.78,0-1.56,0.01-2.33,0c-0.36,0-0.62,0.09-0.63,0.52c-0.01,0.41,0.19,0.56,0.58,0.56
			c1.58-0.01,3.16,0,4.74-0.04c0.19-0.01,0.49-0.27,0.54-0.47c0.1-0.4-0.18-0.54-0.57-0.53C194.41,91.01,193.63,91.01,192.86,91.01z
			 M192.83,94.34c0-0.02,0-0.03,0-0.05c0.78,0,1.57,0.04,2.34-0.02c0.22-0.02,0.41-0.33,0.61-0.51c-0.21-0.15-0.41-0.42-0.62-0.43
			c-1.56-0.05-3.12-0.05-4.68-0.07c-0.38,0-0.68,0.14-0.58,0.53c0.06,0.22,0.37,0.5,0.58,0.52
			C191.27,94.38,192.05,94.34,192.83,94.34z M192.82,95.6c0,0.02,0,0.04,0,0.06c-0.76,0-1.51-0.03-2.27,0.02
			c-0.23,0.01-0.44,0.24-0.66,0.38c0.22,0.16,0.44,0.46,0.66,0.47c1.54,0.05,3.07,0.04,4.61,0.01c0.2,0,0.53-0.24,0.58-0.43
			c0.11-0.43-0.23-0.51-0.58-0.51C194.39,95.6,193.6,95.6,192.82,95.6z M186.05,94.34C186.05,94.34,186.05,94.33,186.05,94.34
			c0.68-0.01,1.37,0.03,2.04-0.03c0.2-0.02,0.37-0.33,0.55-0.5c-0.17-0.17-0.34-0.49-0.52-0.5c-1.34-0.04-2.67-0.05-4.01,0
			c-0.22,0.01-0.57,0.29-0.61,0.49c-0.08,0.44,0.27,0.55,0.66,0.54C184.79,94.33,185.42,94.34,186.05,94.34z M185.99,92.04
			C185.99,92.04,185.99,92.04,185.99,92.04c0.66,0,1.32-0.01,1.98,0c0.38,0.01,0.76-0.06,0.66-0.52c-0.04-0.21-0.4-0.48-0.62-0.49
			c-1.29-0.06-2.58-0.03-3.88-0.05c-0.44-0.01-0.63,0.18-0.63,0.6c0.01,0.46,0.32,0.47,0.66,0.47
			C184.77,92.04,185.38,92.04,185.99,92.04z M185.99,96.55c0,0.01,0,0.01,0,0.02c0.68,0,1.37,0.04,2.05-0.02
			c0.22-0.02,0.41-0.28,0.62-0.43c-0.19-0.16-0.39-0.44-0.58-0.45c-1.34-0.03-2.68-0.01-4.02,0.03c-0.19,0.01-0.37,0.26-0.56,0.4
			c0.2,0.15,0.39,0.41,0.6,0.43C184.72,96.58,185.36,96.55,185.99,96.55z M211.84,79.38c0.74-0.7,1.48-1.4,2.22-2.11
			c-0.7-0.25-1.44-0.38-2.07,0.29C211.46,78.14,211.63,78.8,211.84,79.38z M153.49,94.44c-1.04-0.29-1.81,0.04-2.14,0.84
			c-0.3,0.73-0.1,1.31,0.58,1.67C151.96,95.13,152.09,94.92,153.49,94.44z M227.47,89.25c0.18,0.85,0.33,1.58,0.53,2.51
			c0.41-0.72,0.71-1.24,1.04-1.81C228.51,89.71,228.05,89.51,227.47,89.25z M198.01,89.08c-0.24-0.22-0.39-0.35-0.53-0.49
			c-0.14,0.17-0.4,0.36-0.39,0.52c0.02,0.2,0.26,0.39,0.41,0.58C197.64,89.52,197.79,89.35,198.01,89.08z M198.07,93.82
			c-0.28-0.26-0.43-0.49-0.62-0.52c-0.11-0.02-0.4,0.29-0.39,0.43c0.02,0.2,0.25,0.38,0.39,0.57
			C197.6,94.18,197.76,94.05,198.07,93.82z M196.78,91.52c0.35,0.26,0.53,0.39,0.71,0.52c0.11-0.21,0.29-0.41,0.31-0.62
			c0.01-0.13-0.26-0.43-0.33-0.41C197.28,91.06,197.12,91.25,196.78,91.52z M197.98,96.16c-0.21-0.25-0.35-0.41-0.48-0.56
			c-0.14,0.13-0.41,0.28-0.39,0.4c0.02,0.2,0.22,0.37,0.34,0.56C197.59,96.45,197.73,96.34,197.98,96.16z M173.74,123.75
			c0.02,0.23,0.06,0.46,0.06,0.68c0.03,3.59,0.04,7.18,0.08,10.78c0.01,0.53-0.11,0.89-0.59,1.22c-0.98,0.68-1.35,1.69-1.04,2.83
			c0.62,2.28,1.31,4.55,1.99,6.82c0.16,0.56,0.36,1.1,0.65,1.66c0.01-0.17,0.04-0.34,0.04-0.52c-0.02-7.77-0.05-15.54-0.07-23.31
			c0-1.02-0.03-1.06-0.98-1.07c-0.62-0.01-0.81-0.35-0.81-0.89c0-0.51,0.03-1.02,0.03-1.54c0-0.45,0.01-0.84,0.64-0.83
			c0.12,0,0.37-0.28,0.36-0.42c-0.02-0.81-0.07-1.61-0.82-2.17c-0.82-0.61-1.61-1.28-2.42-1.9c-1.34-1.04-2.43-2.21-2.39-4.13
			c-0.8,0.9-1.62,1.79-2.39,2.72c-0.43,0.52-0.89,0.72-1.58,0.65c-2.58-0.24-5.16-0.41-7.74-0.61c-0.14-0.01-0.28-0.03-0.64-0.08
			c3.51-2.99,7.23-5.27,11.25-7.1c0.08,0.78,0.14,1.5,0.23,2.21c0.01,0.07,0.1,0.13,0.15,0.19c0.15-0.81,0.26-1.6,0.45-2.37
			c0.17-0.7,0.64-1.03,1.4-1.04c0.5-0.01,1.05-0.05,1.5-0.25c3.95-1.81,8.18-2.63,12.42-3.32c5.42-0.89,10.86-0.98,16.21,0.5
			c5,1.38,9.49,3.72,13.17,7.46c0.37,0.38,0.71,0.78,1.16,1.29c-1.69,0.26-3.26,0.38-4.75,0.78c-1.68,0.45-2.59-0.23-3.63-1.48
			c-4.37-5.24-10.07-7.97-16.85-8.48c-0.2-0.02-0.4,0.02-0.64,0.12c5.75,2.13,10.69,5.31,14.23,10.59c-1.1,0.13-2.11,0.26-3.12,0.38
			c-1.21,0.14-2.43,0.27-3.64,0.43c-0.45,0.06-0.71-0.08-0.94-0.48c-2.22-3.89-5.39-6.78-9.34-8.84c-0.52-0.27-0.99-0.31-1.53-0.1
			c-1.04,0.41-2.09,0.76-3.14,1.14c0.01,0.06,0.02,0.12,0.03,0.19c0.22,0.01,0.44,0.02,0.67,0.03c1.12,0.05,1.96,0.64,2.77,1.34
			c2.05,1.77,3.97,3.63,5.12,6.14c0.13,0.28,0.23,0.57,0.38,0.96c-0.47,0.08-0.84,0.15-1.21,0.2c-0.44,0.06-0.87,0.11-1.31,0.17
			c-2.28,0.29-2.29,0.3-3.52-1.67c-0.21-0.34-0.4-0.7-0.69-1.2c-0.24,1.89-1.48,2.88-2.75,3.86c-0.68,0.52-1.33,1.07-2.01,1.59
			c-0.58,0.45-0.85,1.05-0.95,1.75c-0.08,0.57-0.21,1.11,0.7,1.04c0.14-0.01,0.43,0.37,0.44,0.58c0.06,0.65,0.02,1.32,0.01,1.98
			c0,0.12,0.01,0.31-0.05,0.35c-0.72,0.43-0.44,1.12-0.44,1.71c-0.04,3.47-0.02,6.94-0.07,10.41c-0.01,0.73,0.25,0.97,0.95,1.05
			c1.77,0.2,3.54,0.44,5.3,0.71c0.92,0.14,1.29,0.57,1.22,1.43c-0.32,4.43-0.98,8.79-2.93,12.85c-1.34,2.8-3.12,5.24-5.77,6.96
			c-0.67,0.43-1.19,0.45-1.86,0c-2.76-1.85-4.58-4.43-5.92-7.4c-1.76-3.88-2.45-8.01-2.68-12.23c-0.06-1.04,0.3-1.47,1.37-1.63
			c1.59-0.24,3.19-0.44,4.79-0.63c1.1-0.13,1.14-0.16,1.14-1.24c0-3.32,0-6.65,0.01-9.97c0-0.28,0.04-0.56,0.06-0.84
			C173.58,123.76,173.66,123.75,173.74,123.75z M175.66,109.36C175.66,109.36,175.66,109.36,175.66,109.36
			c-1.29,0-2.59-0.02-3.88,0.01c-0.2,0.01-0.55,0.26-0.57,0.42c-0.09,0.9,0.04,1.74,0.83,2.37c1.11,0.88,2.2,1.78,3.28,2.69
			c0.33,0.28,0.55,0.17,0.82-0.06c0.98-0.81,1.95-1.62,2.96-2.4c0.7-0.54,1.07-1.24,1.17-2.11c0.09-0.75-0.05-0.93-0.81-0.93
			C178.2,109.36,176.93,109.36,175.66,109.36z M106.94,88.79c0.46-0.91,0.87-1.7,1.27-2.5c0.85-1.65,1.68-3.31,2.57-4.93
			c0.22-0.41,0.57-0.8,0.96-1.05c1.35-0.88,2.75-1.68,4.11-2.54c0.5-0.32,0.91-0.31,1.41,0.02c0.82,0.56,1.76,0.98,2.53,1.61
			c0.9,0.73,1.79,1.52,2.47,2.44c1.3,1.77,2.46,3.64,3.63,5.5c0.4,0.64,0.87,0.83,1.58,0.72c3.65-0.53,7.3-1.07,10.95-1.53
			c0.7-0.09,1.48-0.02,2.14,0.22c2.23,0.79,4.43,1.67,6.63,2.53c0.23,0.09,0.44,0.23,0.75,0.38c-0.18,0.1-0.24,0.15-0.3,0.16
			c-1.6,0.33-1.6,0.33-1.61,1.93c0,1.39-0.04,2.79,0,4.18c0.02,0.72-0.36,0.78-0.92,0.78c-0.57,0-0.9-0.08-0.88-0.79
			c0.05-1.51,0.02-3.03,0.02-4.54c0-0.9-0.13-1.02-1.04-0.9c-1.5,0.21-2.99,0.45-4.5,0.62c-0.73,0.08-0.94,0.41-0.91,1.1
			c0.05,1.24,0,2.49,0.03,3.74c0.01,0.57-0.2,0.81-0.77,0.78c-0.51-0.03-1.05,0.1-1.03-0.74c0.04-1.27-0.03-2.54,0-3.81
			c0.01-0.57-0.22-0.83-0.76-0.97c-2.89-0.72-5.78-1.45-8.66-2.18c-0.14-0.04-0.29-0.03-0.43-0.08c-0.65-0.21-0.82,0.1-0.82,0.69
			c0.02,2,0.01,4.01,0.01,6.01c0,1.02-0.02,1.04-1.01,1c-0.59-0.02-1.18-0.05-1.76,0c-0.7,0.07-0.88-0.23-0.87-0.88
			c0.04-1.83,0.03-3.66,0.03-5.49c0-0.92-0.08-0.99-1.01-0.99c-2.59,0-5.18-0.01-7.77-0.01c-0.96,0-1.1,0.15-1.1,1.11
			c0.01,1.81,0,3.62,0.03,5.42c0.01,0.62-0.2,0.87-0.84,0.9c-1.77,0.07-1.96-0.08-1.97-1.83c-0.02-1.66-0.01-3.32-0.01-4.98
			c0-1.07-0.07-1.14-1.11-1.09C107.68,88.8,107.37,88.79,106.94,88.79z M118.35,83.67c0-0.27,0.01-0.54,0-0.8
			c-0.04-0.84-0.23-1.02-1.05-1.06c-0.17-0.01-0.34,0-0.51-0.01c-1.81-0.01-1.84,0.01-1.84,1.82c0,1.67,0.05,1.72,1.7,1.74
			C118.34,85.37,118.37,85.34,118.35,83.67z M155.59,79.13c1.39-2.12,3.04-4.01,5.01-5.6c7.78-6.26,18.34-7.68,27.32-1.74
			c3.38,2.23,6.01,5.19,8.26,8.52c0.18,0.27,0.36,0.53,0.55,0.79c0.04-0.03,0.08-0.05,0.12-0.08c-0.16-0.48-0.33-0.96-0.49-1.45
			c0.05-0.05,0.11-0.09,0.16-0.14c1.26,0.89,2.51,1.78,3.75,2.65c-1.71-8.74-10.47-19.45-24.31-19.52
			c-6.59-0.04-12.45,2.05-17.37,6.46c-3.51,3.14-6.17,6.87-7.46,11.66c1.5-1.71,2.83-3.32,4.26-4.84c1.43-1.53,2.97-2.96,4.94-3.83
			c-2.14,2.18-3.9,4.59-4.98,7.47C155.42,79.36,155.51,79.25,155.59,79.13z M198.74,132.43c-1.82-1.53-3.63-3.06-5.45-4.59
			c0.05-0.07,0.1-0.15,0.15-0.22c0.43,0.2,0.86,0.41,1.29,0.61c1.9,0.88,3.88,1.15,5.65-0.12c1.39-0.99,2.55-2.29,3.82-3.45
			c-0.04-0.09-0.09-0.17-0.13-0.26c-1.88-0.26-3.75-0.62-5.63-0.77c-2.23-0.18-4.23,1.21-5.03,3.3c-0.07,0.19-0.15,0.39-0.24,0.64
			c-1.94-1.62-3.83-3.21-5.73-4.77c-1.88-1.56-3.86-2.98-6.11-3.96c0.18,0.21,0.39,0.37,0.59,0.55c1.73,1.58,3.48,3.15,5.17,4.77
			c0.76,0.73,0.68,1.09,0.09,1.9c-0.37,0.5-0.7,1.07-0.86,1.67c-0.58,2.16,0.57,5.1,2.41,6.4c1.33-2.1,3.09-4.09,1.92-6.93
			c0.72,0.58,1.35,1.15,1.97,1.73c0.72,0.68,0.73,0.83-0.01,1.52c-3.11,2.88-2.47,7.46,0.93,10.28c0.47-0.97,0.9-2,1.44-2.97
			c0.63-1.15,1.23-2.3,1.18-3.64c-0.03-0.83-0.22-1.66-0.34-2.49c0.47,0.29,0.83,0.72,1.21,1.13c1.53,1.65,1.63,1.4,0.37,3.41
			c-2.04,3.27-0.85,7.75,2.53,9.63c1.03-3,2.67-5.9,1.31-8.79c0.36,0.3,1.05,0.81,1.65,1.41c0.5,0.5,0.6,1.17,0.4,1.85
			c-0.12,0.4-0.29,0.78-0.43,1.17c-1.13,3.1,0.44,6.84,3.49,8.18c0.29-1.04,0.58-2.07,0.87-3.1c0.7-2.55,0.01-4.63-1.97-6.39
			c-0.77-0.69-1.32-1.63-1.98-2.46c4.45,2,7.79,0.07,11.02-2.64c-1.79-0.43-3.48-0.88-5.19-1.23c-2.11-0.43-3.85,0.23-5.17,1.95
			c-0.16,0.21-0.33,0.41-0.53,0.66c-1.03-0.79-2.04-1.51-2.99-2.31c-0.6-0.51-1.12-1.11-1.68-1.68L198.74,132.43z M218.29,122.33
			c-0.71,0.22-1.35,0.21-2.07,0.02c-5.05-1.35-10.09-2.72-15.16-3.96c-3.66-0.9-7.39-1.1-11.12-0.4c-1.77,0.33-3.05,1.44-4.15,2.88
			c0.21,0.14,0.36,0.25,0.52,0.35c2.53,1.43,5.01,1.56,7.39-0.32c1.39-1.1,2.92-1.24,4.57-0.77c5.54,1.59,11.07,3.18,16.61,4.75
			c0.53,0.15,0.66,0.45,0.65,0.96c-0.02,0.75-0.02,1.52,0.1,2.26c0.45,2.78,2.08,4.86,4.14,6.63c2.59,2.23,5.7,3.47,8.88,4.52
			c1.34,0.44,2.72,0.74,4.08,1.11c-0.95-1.47-1.65-2.97-2.02-4.6c-0.41-1.78-0.77-3.58-1.11-5.38c-0.3-1.58-1.23-2.57-2.77-2.84
			c-1.24-0.22-2.52-0.22-3.78-0.27c-0.23-0.01-0.47,0.19-0.7,0.29c0.14,0.23,0.24,0.51,0.43,0.69c0.79,0.72,1.6,1.4,2.41,2.09
			c-0.02,0.04-0.04,0.07-0.06,0.11c-0.22-0.04-0.44-0.08-0.72-0.13c0.76,1.33,1.49,2.59,2.21,3.84c-0.08,0.05-0.16,0.1-0.24,0.15
			c-1.19-1.44-2.38-2.88-3.56-4.33c-0.06,0.01-0.12,0.02-0.18,0.03c0,1.26,0,2.52,0,3.78c-0.12,0.01-0.24,0.03-0.36,0.04
			c-0.23-1.05-0.73-2.12-0.64-3.15c0.15-1.86-0.86-2.88-2.2-3.96c-0.25,1.06-0.48,2.04-0.71,3.03c-0.06,0-0.12,0.01-0.18,0.01
			c-0.11-1.27-0.25-2.54-0.31-3.82c-0.01-0.24,0.27-0.66,0.5-0.73c1.02-0.32,2.06-0.55,3.1-0.81c0.01,0.05,0.03,0.1,0.04,0.15
			c-0.56,0.4-1.12,0.81-1.68,1.21c0.02,0.09,0.04,0.18,0.05,0.28c0.91,0.08,1.82,0.22,2.73,0.23c2.06,0.04,4.06,0.24,5.81,1.82
			C227.55,123.61,222.66,120.99,218.29,122.33z M170.94,118.38c-1.63,1.08-3.37,2.04-4.87,3.28c-2.92,2.41-5.65,5.04-8.55,7.48
			c-2.82,2.37-5.74,4.62-8.61,6.94c-0.49,0.4-0.75,0.29-1.07-0.22c-0.64-1.02-1.58-1.73-2.76-1.88c-1.12-0.15-2.29-0.2-3.4-0.03
			c-1.45,0.22-2.87,0.69-4.38,1.07c3.21,3.25,6.83,4.43,11.35,2.31c-1.39,2.41-2.14,4.79-2.37,7.33c-0.09,0-0.18-0.01-0.27-0.01
			c-0.1-1.21-0.2-2.43-0.3-3.66c-1.27,1.32-1.88,2.9-1.54,4.75c0.25,1.33,0.67,2.63,1.06,4.1c0.75-0.59,1.45-1.08,2.07-1.64
			c1.53-1.39,2.24-3.13,1.95-5.2c-0.13-0.94-0.39-1.86-0.66-2.77c-0.16-0.55-0.13-1.02,0.28-1.41c1.1-1.07,2.21-2.13,3.33-3.18
			c0.26-0.25,0.6-0.41,1.01-0.68c-0.62,1.47-1.17,2.79-1.72,4.1c-0.03,0-0.06,0-0.08,0.01c0.03-0.64,0.06-1.28,0.09-2
			c-1.2,1.06-1.59,2.37-1.28,3.81c0.38,1.78,0.91,3.53,1.38,5.3c2.22-0.97,4.14-4.11,4-6.46c-0.08-1.31-0.59-2.45-1.27-3.54
			c-0.42-0.67-0.6-1.38,0-2.02c0.52-0.57,1.11-1.08,1.68-1.61c-0.33,1.71-0.19,3.3,0.58,4.82c0.64,1.25,1.28,2.49,1.92,3.73
			c2.36-1.67,3.81-5.88,2.46-7.55c0.12,0.93,0.32,1.82-0.26,2.85c-0.03-2.32-1.14-3.91-2.63-5.36c0.87-0.95,1.69-1.85,2.51-2.75
			c-0.24,2.59,1.28,4.3,2.73,6.36c0.69-1.29,1.44-2.37,1.85-3.56c0.6-1.71,0.4-3.41-0.92-4.78c-0.51-0.53-0.41-0.84,0-1.33
			c1.88-2.21,4-4.15,6.3-5.9c0.18-0.14,0.36-0.28,0.54-0.42C171.04,118.53,170.99,118.46,170.94,118.38z M232.9,118.43
			c3.4,0.22,5.74,1.96,6.95,5.03c0.62,1.57,0.87,3.29,1.14,4.97c0.16,0.99,0.03,2.03,0.03,3.17c-1.16-1.38-2.77-1.63-4.32-2.05
			c-2.03-0.54-3.81-1.51-5.15-3.17c-0.99-1.23-1.52-2.62-1.32-4.21c0.08-0.66-0.17-0.98-0.79-1.17c-3.51-1.1-7.11-1.56-10.78-1.36
			c-1.96,0.11-3.86-0.08-5.73-0.61c-3.76-1.06-7.51-2.15-11.26-3.23c-0.2-0.06-0.4-0.14-0.6-0.36c0.24-0.01,0.49-0.05,0.73-0.04
			c4.03,0.2,8.05,0.36,12.08,0.61c5.59,0.35,11.21,0.69,16.75-0.28c4.71-0.83,9.35-2.04,14.02-3.09c1.32-0.3,2.63-0.66,3.96-0.92
			C243.75,114.83,238.4,116.77,232.9,118.43z M233.25,122.01c-0.02-0.11-0.04-0.21-0.06-0.32c0.61-0.34,1.22-0.67,1.82-1.01
			c-0.61,0.02-1.2,0.13-1.78,0.26c-1.41,0.31-1.42,0.32-1.23,1.77c0.08,0.61,0.22,1.2,0.33,1.8c0.06-0.01,0.11-0.02,0.17-0.03
			c0.14-0.56,0.28-1.11,0.43-1.71c0.19,0.04,0.33,0.04,0.41,0.1c0.76,0.55,1.4,1.19,1.62,2.17c0.17,0.76,0.4,1.51,0.61,2.27
			c0.08-0.02,0.16-0.03,0.23-0.05c-0.06-0.75-0.11-1.51-0.18-2.44c0.93,0.62,1.74,1.16,2.55,1.7c0.06-0.07,0.12-0.15,0.18-0.22
			c-1.03-1.05-2.05-2.09-3.06-3.12c1,0,2.11,0,3.22,0c0.01-0.06,0.02-0.13,0.04-0.19C236.78,122.67,235.02,122.34,233.25,122.01z
			 M110,131.34c-0.03-3.41,0.19-6.55,1.96-9.37c1.46-2.32,3.5-3.55,6.29-3.42c0.09,0,0.18,0,0.43,0c-2.87-1.02-5.61-1.93-8.3-2.96
			c-2.71-1.04-5.29-2.34-7.68-4.03c2.54,0.6,5.07,1.24,7.61,1.81c3.72,0.83,7.41,1.79,11.17,2.39c4.16,0.67,8.38,0.56,12.58,0.31
			c2.97-0.17,5.94-0.47,8.92-0.61c2.19-0.1,4.39-0.03,6.59-0.03c0.13,0,0.27,0.05,0.42,0.21c-2.5,0.74-4.98,1.54-7.5,2.2
			c-2.07,0.55-4.18,0.98-6.29,1.35c-0.87,0.15-1.81,0.09-2.69-0.03c-3.83-0.53-7.49,0.21-11.1,1.38c-1.54,0.5-1.55,0.5-1.58,2.14
			c-0.03,1.66-0.72,3.02-1.9,4.15c-1.58,1.51-3.5,2.38-5.6,2.87C112.16,129.98,111.02,130.31,110,131.34z M115.19,124.83
			c0.07,0.04,0.13,0.08,0.2,0.12c-0.09,0.8-0.17,1.59-0.26,2.39c0.07,0.01,0.14,0.03,0.21,0.04c0.15-0.62,0.38-1.24,0.45-1.87
			c0.15-1.41,1.11-2.13,2.21-2.98c0.19,0.73,0.35,1.31,0.51,1.89c0.06,0,0.12,0,0.18,0c0.14-1.05,0.29-2.1,0.44-3.21
			c-1.1-0.23-2.1-0.45-3.11-0.66c-0.01,0.04-0.02,0.09-0.03,0.13c0.61,0.36,1.21,0.71,1.82,1.07c-0.02,0.08-0.05,0.16-0.07,0.24
			c-1.82,0.34-3.65,0.68-5.47,1.01c0.01,0.08,0.03,0.15,0.04,0.23c1.15,0,2.31,0,3.61,0c-1.12,1.01-2.1,1.89-3.07,2.77
			c0.05,0.05,0.09,0.11,0.14,0.16C113.72,125.72,114.45,125.27,115.19,124.83z M175.84,33.36c-1,0-2,0.03-3.01-0.01
			c-0.65-0.03-0.85,0.2-0.8,0.86c0.2,2.39,0.35,4.77,0.51,7.16c0.4,6.27,0.8,12.53,1.18,18.8c0.03,0.51,0.23,0.68,0.72,0.66
			c0.71-0.03,1.42-0.01,2.13-0.01c1.17,0.01,1.16,0.01,1.24-1.2c0.28-4.12,0.57-8.24,0.86-12.36c0.31-4.34,0.61-8.68,0.94-13.01
			c0.05-0.67-0.14-0.93-0.84-0.89c-0.97,0.05-1.95,0.01-2.93,0.01C175.84,33.37,175.84,33.36,175.84,33.36z M109.62,108.97
			c9.08,5.33,18.67,7.47,29.05,4.88c-0.22-0.12-0.45-0.19-0.68-0.24c-2.68-0.55-5.36-1.07-8.03-1.65c-3.25-0.71-6.43-1.66-9.3-3.42
			c-0.28-0.17-0.53-0.39-0.91-0.67c4.77-3.76,10.32-5.42,15.9-6.96C127.16,100.91,112.73,105.4,109.62,108.97z M116.31,76.05
			c1.72,1.06,3.47,2.1,5.16,3.21c0.55,0.36,1.07,0.86,1.45,1.4c1.28,1.84,2.5,3.73,3.72,5.61c0.39,0.61,0.88,0.84,1.6,0.74
			c2.35-0.3,4.7-0.56,7.05-0.85c1.44-0.18,2.89-0.37,4.39-0.57c-0.11-0.22-0.16-0.35-0.24-0.47c-1.27-1.97-2.54-3.94-3.83-5.89
			c-0.12-0.18-0.36-0.33-0.57-0.41c-3.4-1.33-6.84-2.45-10.54-2.51c-1.12-0.02-2.24-0.15-3.36-0.21c-1.6-0.09-3.2-0.16-4.79-0.23
			C116.34,75.93,116.32,75.99,116.31,76.05z M105.01,106.8c0.54,0.4,1.04,0.35,1.63,0.07c2.19-1.01,4.36-2.1,6.62-2.94
			c7.6-2.8,15.53-4.03,23.56-4.71c1.88-0.16,3.77-0.29,5.65-0.43c-0.22-0.19-0.45-0.28-0.68-0.31c-1.74-0.2-3.49-0.49-5.24-0.56
			c-7-0.27-13.97,0.28-20.9,1.2c-4.14,0.55-8.27,1.21-12.27,2.45c-1.17,0.36-2.3,0.87-3.63,1.37
			C101.66,104.35,103.34,105.57,105.01,106.8z M158.46,61.57c-4.3-5.59-8.61-11.19-12.91-16.78c-0.59-0.76-0.65-0.75-1.34-0.09
			c-0.97,0.93-1.94,1.86-2.92,2.78c-0.95,0.9-0.95,0.98-0.04,1.91c5.54,5.68,11.09,11.37,16.63,17.05c0.17,0.17,0.35,0.33,0.55,0.52
			c0.88-0.64,1.72-1.25,2.67-1.94C160.17,63.82,159.32,62.69,158.46,61.57z M210.81,48.13c-1.29-1.23-2.57-2.46-3.89-3.66
			c-0.13-0.12-0.52-0.07-0.73,0.03c-0.2,0.1-0.32,0.35-0.47,0.55c-3.33,4.3-6.66,8.61-9.99,12.92c-1.64,2.12-3.28,4.25-4.92,6.38
			c-0.52,0.67-0.48,0.77,0.23,1.24c0.45,0.3,0.89,0.6,1.3,0.96c0.45,0.4,0.75,0.32,1.16-0.1c5.72-5.85,11.45-11.69,17.17-17.53
			c0.13-0.14,0.24-0.3,0.37-0.46C210.94,48.32,210.89,48.21,210.81,48.13z M197.21,38.25c-0.68-0.4-0.85-0.36-1.16,0.36
			c-0.73,1.7-1.47,3.4-2.17,5.12c-2.44,6.06-4.87,12.13-7.28,18.21c-0.08,0.2,0.05,0.67,0.21,0.74c0.19,0.09,0.53-0.07,0.79-0.17
			c0.11-0.05,0.17-0.23,0.25-0.35c1.75-2.73,3.57-5.43,5.25-8.2c2.67-4.43,5.25-8.91,7.93-13.48
			C199.64,39.68,198.42,38.97,197.21,38.25z M151.18,40.07c-0.4,0.23-0.44,0.55-0.24,0.93c0.11,0.22,0.24,0.42,0.35,0.64
			c3.81,7.16,8.04,14.06,12.47,20.85c0.12,0.18,0.58,0.38,0.64,0.33c0.21-0.21,0.4-0.51,0.43-0.79c0.03-0.26-0.14-0.56-0.25-0.83
			c-3.08-7.59-6.16-15.18-9.25-22.77c-0.07-0.17-0.18-0.33-0.31-0.56C153.71,38.62,152.45,39.35,151.18,40.07z M136.34,71.82
			c-1.52,2.45-2.1,4.83,0.38,6.93c0.22-0.56,0.35-1.14,0.65-1.63c0.68-1.09,0.74-2.17,0.25-3.35c-0.22-0.54-0.25-1.15-0.36-1.73
			c0.08-0.01,0.15-0.03,0.23-0.04c0.15,0.51,0.29,1.02,0.45,1.53c0.37,1.18,1.14,1.95,2.32,2.34c1,0.32,1.98,0.69,2.96,1.04
			c0.01-1.28-0.25-2.64-0.98-3.91c-0.78-1.34-2.19-1.62-3.5-2.11c1.98,0.03,3.33-1.18,4.78-2.23c-1.19-1.32-2.5-2.16-4.3-1.58
			c-1.77,0.57-2.18,2-2.16,3.65c-0.84-0.02-1.7-0.73-1.88-1.53c0.43,0.31,0.87,0.61,1.31,0.92c0.04-0.05,0.08-0.11,0.11-0.16
			c-0.85-0.76-1.7-1.52-2.57-2.27c-1.45-1.25-4.57-0.58-5.43,1.16c1.11-0.18,1.41-0.08,2.62,0.58c1.05,0.57,2.14,1.06,3.16,1.56
			c-0.18,0.05-0.52,0.16-0.87,0.26c-1.23,0.36-2.11,1.1-2.54,2.33c-0.3,0.87-0.6,1.74-0.92,2.65c0.49-0.08,1.01-0.19,1.53-0.23
			c1.51-0.11,2.53-0.82,3.14-2.24c0.3-0.71,0.83-1.33,1.26-1.99C136.12,71.77,136.23,71.79,136.34,71.82z M169.63,57.22
			c-0.83-7.54-2.51-14.93-3.96-22.36c-0.1-0.5-0.34-0.64-0.83-0.48c-0.86,0.27-1.73,0.54-2.61,0.74c-0.63,0.14-0.78,0.44-0.63,1.04
			c1.17,4.41,2.22,8.86,3.51,13.24c1.12,3.79,2.52,7.49,3.82,11.22c0.07,0.19,0.38,0.4,0.59,0.4c0.21,0,0.41-0.24,0.54-0.33
			C169.91,59.4,169.75,58.31,169.63,57.22z M181.63,60.33c0.11,0.25,0.21,0.6,0.41,0.7c0.42,0.19,0.52-0.18,0.59-0.51
			c0.04-0.17,0.09-0.33,0.16-0.49c3.05-7.79,5.11-15.88,7.27-23.94c0.14-0.54,0-0.77-0.5-0.9c-0.82-0.22-1.65-0.44-2.46-0.7
			c-0.95-0.3-1.08-0.25-1.28,0.73c-0.44,2.2-0.85,4.41-1.31,6.61c-1.25,6-2.3,12.03-2.86,18.14
			C181.64,60.09,181.59,60.23,181.63,60.33z M132.12,52.41c0.68,0.71,1.14,1.5,0.8,2.51c-0.22,0.66-0.01,1.03,0.54,1.4
			c6.74,4.58,13.47,9.18,20.2,13.78c0.62,0.42,0.77,0.36,1.37-0.4c0.38-0.49,0.17-0.76-0.22-1.08c-2.07-1.68-4.1-3.39-6.18-5.05
			c-4.14-3.34-8.3-6.66-12.47-9.97c-0.18-0.14-0.54-0.05-0.81-0.08c-0.26-0.03-0.61,0.02-0.76-0.13c-0.55-0.53-1.03-1.13-1.45-1.61
			c-1.37-0.29-2.14-1.5-3.41-1.84C130.53,50.76,131.32,51.58,132.12,52.41z M161.38,117.87c-3.08-0.48-6.15-0.48-9.18,0.22
			c-4.61,1.06-9.2,2.24-13.8,3.38c-1.87,0.47-1.85,0.48-1.24,2.28c0.17,0.51,0.44,0.65,0.93,0.51c0.8-0.22,1.61-0.4,2.41-0.62
			c4.02-1.12,8.04-2.24,12.05-3.38c2.32-0.66,4.42-0.39,6.33,1.2c0.51,0.43,1.25,0.68,1.92,0.81c1.87,0.35,3.47-0.51,5.16-1.31
			C164.82,119.26,163.36,118.18,161.38,117.87z M214.91,53.83c-3.67,2.95-7.38,5.87-11.05,8.83c-2.45,1.98-4.87,3.99-7.3,6.01
			c-0.21,0.17-0.48,0.46-0.46,0.67c0.06,0.72,1,1.12,1.6,0.72c3.64-2.46,7.28-4.93,10.91-7.4c3.21-2.19,6.42-4.38,9.61-6.58
			c0.2-0.14,0.44-0.54,0.38-0.7c-0.61-1.44-0.04-2.49,0.96-3.47c0.65-0.63,1.26-1.31,1.89-1.97c-0.76,0.37-1.41,0.88-2.09,1.33
			c-0.38,0.25-0.81,0.41-1.29,0.64c-0.48,0.56-1.04,1.22-1.64,1.92C215.83,53.19,215.4,53.44,214.91,53.83z M141.6,141.87
			c-0.04-0.05-0.07-0.1-0.11-0.15c0.98-0.84,1.95-1.68,2.97-2.55c-0.43-0.11-0.78-0.19-1.14-0.28c-3.42-0.83-5.97,0.24-7.76,3.27
			c-0.8,1.35-1.67,2.63-3.27,3.36c1.17,0.63,2.32,0.88,3.51,1c3.27,0.32,5.96-0.56,7.7-3.6c0.66-1.15,1.57-2.16,2.48-3.39
			C144.45,140.35,143.03,141.11,141.6,141.87z M216.02,142.33c-0.27-0.44-0.53-0.88-0.82-1.3c-1.67-2.38-5.25-3.2-7.87-1.79
			c0.9,0.78,1.8,1.56,2.69,2.34c-0.04,0.05-0.08,0.1-0.12,0.15c-1.28-0.67-2.56-1.35-3.95-2.08c0.96,1.43,1.81,2.7,2.67,3.97
			c0.92,1.37,2.18,2.28,3.79,2.69c2.35,0.59,4.57,0.06,6.98-0.74C217.76,144.85,216.83,143.65,216.02,142.33z M131.01,96.7
			c1.29,0,2.59-0.02,3.88,0.01c0.56,0.01,0.81-0.19,0.79-0.77c-0.03-0.95-0.05-1.91-0.03-2.86c0.01-0.59-0.25-0.91-0.81-1.03
			c-2.57-0.57-5.15-1.15-7.72-1.73c-0.54-0.12-0.77,0.07-0.76,0.64c0.03,1.64,0.04,3.27,0.03,4.91c0,0.54,0.2,0.74,0.73,0.73
			c1.29-0.02,2.59-0.01,3.89-0.01C131.01,96.64,131.01,96.67,131.01,96.7z M207.92,68.66c-0.51,0.29-0.86,0.3-1-0.38
			c-0.09-0.45-0.41-0.53-0.68-0.22c-0.43,0.48-0.85,1-1.11,1.57c-0.22,0.48-0.46,0.81-0.96,1.01c-0.99,0.39-2.15,0.47-2.77,1.56
			c-0.08,0.15-0.32,0.2-0.5,0.29c-0.45,0.24-0.93,0.44-1.36,0.72c-0.14,0.09-0.26,0.41-0.2,0.55c0.07,0.16,0.39,0.37,0.51,0.32
			c1.65-0.66,3.29-1.34,4.9-2.08c0.41-0.19,0.66-0.34,1.07,0.02c0.78,0.68,1.55,0.68,2.43,0.17c0.35-0.21,0.42-0.42,0.19-0.76
			c-0.33-0.48-0.64-0.98-0.97-1.46c-0.29-0.42-0.21-0.71,0.26-0.93c0.64-0.3,1.27-0.62,1.9-0.95c0.73-0.39,0.83-0.35,1.01,0.44
			c0.17,0.72,0.49,0.9,1.07,0.59c1.47,1.19,2.76,0.73,3.12-1.12c0.05-0.26,0.07-0.53,0.13-0.79c0.19-0.83,0.4-1.66,0.59-2.48
			c0.07-0.31,0.11-0.63,0.17-0.95c-0.35-0.03-0.7-0.09-1.05-0.07c-0.23,0.01-0.5,0.1-0.68,0.24c-0.76,0.55-1.5,1.13-2.28,1.73
			c-0.89-0.9-2.03-1.43-3.72-1.09c0.77,1.06,1.43,1.97,2.12,2.93C209.38,67.88,208.64,68.25,207.92,68.66z M192.69,147
			c0.21-0.78,0.09-1.53-0.4-2.16c-0.4-0.51-0.68-0.98-0.26-1.61c-0.98-0.12-1.61,0.38-1.7,1.31c-0.09,0.95,0.4,1.61,1.09,2.19
			c0.33,0.28,0.57,0.67,0.85,1.01c-0.06,0.11-0.13,0.21-0.19,0.32c-1.76-2.44-3.8-2.15-5.92-0.7c0.87,1.12,2.05,1.79,3.6,1.61
			c0.85-0.1,1.51,0.21,2.12,0.77c1.83,1.7,3,3.77,3.55,6.2c0.03,0.14,0.1,0.27,0.21,0.53c0.37-1.28,0.36-2.4,0.11-3.55
			c-0.06-0.3,0.03-0.74,0.23-0.96c0.98-1.06,1.25-2.24,0.77-3.59c-0.25-0.7-0.39-1.37,0.33-1.91c-1.98-0.62-3.13,0.45-3.31,3.09
			C192.8,148.89,192.4,148.09,192.69,147z M152.04,130.88c-1.14-1.57-2.71-2.5-4.63-2.3c-2.04,0.21-4.05,0.73-6.07,1.11
			c0,0.09,0,0.18,0,0.27c0.9,0.69,1.83,1.36,2.7,2.08c2.79,2.3,5.85,2.17,9.15,0.42C152.81,131.93,152.43,131.41,152.04,130.88z
			 M198.72,132.41c0.61,0.22,1.23,0.42,1.84,0.66c1.98,0.78,3.95,0.77,5.78-0.33c1.38-0.83,2.64-1.87,4.07-2.9
			c-1.46-0.39-2.79-0.76-4.13-1.08c-0.64-0.15-1.3-0.24-1.96-0.27c-2.45-0.13-5.01,1.69-5.58,3.95
			C198.74,132.43,198.72,132.41,198.72,132.41z M150.25,127.58c0.6,0.54,1.37,0.94,2.13,1.24c2.09,0.82,4,0.02,5.94-0.78
			c-1.58-1.21-3.11-2.38-4.63-3.55c0.77,0.18,1.56,0.37,2.26,0.73c0.68,0.35,1.27,0.87,1.96,1.36c-0.62-1.44-1.59-2.45-3.09-2.7
			c-1.04-0.18-2.14-0.18-3.2-0.07c-1.45,0.15-2.88,0.49-4.3,0.75C148.28,125.57,149.2,126.64,150.25,127.58z M133.46,123.78
			c-0.77,1.15-0.95,2.41-0.32,3.61c0.61,1.16,1.45,2.19,2.24,3.35c1.41-2.39,1.61-4.82,0.33-6.83c-0.14-0.22-0.09-0.63-0.01-0.92
			c0.11-0.37,0.12-0.71-0.33-0.67c-0.92,0.08-1.48-0.46-2.11-0.99c-1.68-1.43-4.67-1.59-6.19-0.36c2.07,1.93,3.94,2.54,6.77,2.17
			C133.68,123.42,133.58,123.6,133.46,123.78z M131.8,128.48c-0.33-1.1-1.06-2.14-0.29-3.23c-0.54-0.22-1.1-0.29-1.43-0.6
			c-1.69-1.57-3.93-1.85-5.93-0.65c1.72,1.65,3.69,2.29,6.05,1.52c-0.04,0.16-0.04,0.22-0.06,0.25c-0.17,0.21-0.34,0.41-0.53,0.61
			c-1.17,1.25-1.39,2.73-0.65,4.2c0.55,1.09,1.42,2.01,2.28,3.19C132.09,131.9,132.33,130.22,131.8,128.48z M133.68,65.37
			c0.27,2.03,1.61,3.23,3.25,4.3c-0.07-1.55,0.51-2.62,1.94-3.17c0.18-0.07,0.35-0.27,0.45-0.45c0.93-1.61,0.09-4.24-1.51-5
			c-0.23,0.55-0.42,1.13-0.72,1.65c-0.31,0.54-0.24,0.95,0.07,1.48c0.33,0.55,0.5,1.21,0.66,1.84c0.06,0.24-0.09,0.53-0.14,0.8
			c-0.95-3.27-2.28-4.31-5.43-4.06C133.13,63.51,133.55,64.38,133.68,65.37z M143.84,94.01c0-0.71-0.01-1.42,0-2.12
			c0.01-0.49-0.21-0.65-0.68-0.58c-1.3,0.2-2.61,0.36-3.9,0.59c-0.2,0.04-0.49,0.36-0.49,0.56c-0.03,1.19,0.02,2.39,0.02,3.59
			c0,0.44,0.18,0.61,0.61,0.61c1.29,0,2.59,0.01,3.88,0.03c0.44,0.01,0.61-0.19,0.6-0.62c-0.02-0.68-0.01-1.37-0.01-2.05
			C143.86,94.01,143.85,94.01,143.84,94.01z M127.11,128.17c-0.4,0.31-0.82,0.6-1.18,0.95c-1.17,1.13-1.59,2.58-0.93,3.84
			c0.49,0.95,1.21,1.77,1.86,2.7c1.06-1.54,1.21-2.92,0.55-4.49c-0.4-0.94-0.71-1.88-0.16-2.88
			C127.2,128.25,127.16,128.21,127.11,128.17z M140.28,80.47c0.08,0.22,0.37,0.48,0.59,0.51c2.26,0.35,4.53,0.66,6.8,0.96
			c0.17,0.02,0.37-0.19,0.56-0.29c-0.12-0.18-0.2-0.44-0.37-0.51c-0.47-0.2-0.97-0.32-1.46-0.47c-2.16-0.66-4.32-1.33-6.62-2.04
			C139.98,79.35,140.08,79.93,140.28,80.47z M201.65,76.99c-0.15,0.08-0.16,0.43-0.24,0.66c0.22,0.06,0.48,0.22,0.66,0.16
			c1.91-0.58,3.82-1.17,5.71-1.83c0.37-0.13,0.74-0.48,0.93-0.83c0.28-0.51,0.4-1.12,0.66-1.93
			C206.7,74.51,204.17,75.73,201.65,76.99z M113.05,90.5c0,2.11,0,4.07,0,6.12c1.07-1.04,2.03-1.98,3.04-2.95
			C115.1,92.64,114.1,91.6,113.05,90.5z M117.79,93.57c1,1.05,1.92,2.01,2.91,3.04c0-2.01,0-3.95,0-6.12
			C119.61,91.65,118.64,92.67,117.79,93.57z M127.13,127.41c-1.91-1.85-3.63-2.1-5.43-0.75
			C123.16,127.97,125.68,128.77,127.13,127.41z M146.07,70.4c-0.38-0.22-0.77-0.42-1.13-0.66c-0.55-0.36-1.05-0.35-1.62,0.02
			c-0.76,0.48-1.58,0.87-2.41,1.32C142.42,72.6,144.42,72.33,146.07,70.4z M129.49,71.89c0.36,0.2,0.91,0.44,1.19,0.31
			c0.7-0.33,1.29-0.87,1.95-1.35c-1.74-1.11-3.5-1.46-5.39-0.38C128.01,70.96,128.73,71.46,129.49,71.89z M149.56,73.4
			c0.43,0.22,0.87,0.48,1.33,0.58c0.26,0.05,0.58-0.19,0.87-0.29c-0.13-0.21-0.22-0.5-0.41-0.62c-1.11-0.71-2.23-1.38-3.36-2.06
			c-0.99-0.59-1.13-0.54-1.75,0.68C147.38,72.26,148.47,72.84,149.56,73.4z M117.01,92.99c0.77-0.81,1.57-1.64,2.47-2.58
			c-1.78,0-3.42,0-5.02,0C115.31,91.28,116.16,92.13,117.01,92.99z M120.13,129.2c-0.4,0.23-0.47,0.51-0.02,0.75
			c0.47,0.25,0.96,0.47,1.46,0.69c1.15,0.49,2.13,0.18,3.07-0.64C123.44,128.73,121.5,128.4,120.13,129.2z M130.72,66.67
			c0.84,0,1.68,0,2.51,0c-0.17-2.04-1.19-2.87-3.52-2.9C130.07,64.79,130.41,65.78,130.72,66.67z M141.87,66.87
			c0.57,0.21,1.01,0.08,1.19-0.45c0.25-0.75,0.37-1.54,0.55-2.32c-1.48,0.55-3.2,0.44-3.78,2.16
			C140.58,66.48,141.24,66.63,141.87,66.87z M144.65,76.1c0.08,0.24,0.29,0.53,0.51,0.6c1.27,0.42,2.56,0.79,3.86,1.14
			c0.16,0.04,0.46-0.15,0.56-0.32c0.06-0.1-0.09-0.46-0.23-0.53c-1.58-0.75-3.18-1.47-4.91-2.25
			C144.51,75.29,144.52,75.72,144.65,76.1z M121.35,136.18c0.99-0.46,1.72-1.06,1.81-2.25c0.05-0.72,0.22-1.44,0.35-2.22
			C121.18,132.89,120.69,133.9,121.35,136.18z M117.16,94.6c-0.08-0.07-0.31-0.09-0.38-0.03c-0.67,0.53-1.32,1.09-1.97,1.64
			c0.03,0.06,0.06,0.13,0.09,0.19c1.3,0,2.6,0,4.07,0C118.31,95.74,117.74,95.16,117.16,94.6z M169.01,128.78
			c0.44-0.4,0.89-0.8,1.34-1.2c-0.46-0.51-0.9-1-1.36-1.52C167.48,127.6,167.35,127.43,169.01,128.78z M180.89,127.59
			c0.46,0.42,0.88,0.8,1.3,1.19c1.43-1.47,1.43-1.47-0.01-2.71C181.74,126.59,181.32,127.08,180.89,127.59z M203.1,81.21
			c-0.13,0.04-0.22,0.26-0.32,0.39c0.14,0.1,0.27,0.29,0.41,0.29c0.51,0.02,1.02-0.01,1.53-0.05c1.18-0.1,1.18-0.11,1.5-1.4
			C205.12,80.71,204.11,80.94,203.1,81.21z M116.88,82.62c-0.9,0.01-1.04,0.16-1.08,1.13c-0.03,0.7,0.36,0.76,0.92,0.81
			c0.78,0.07,0.87-0.3,0.78-0.71C117.44,83.21,117.73,82.61,116.88,82.62z"/>
	</g>
</g>
</svg>
