<svg id="Layer_2" data-name="Layer 2" xmlns="http://www.w3.org/2000/svg" viewBox="0 0 300 300">
  <defs>
    <style>
      .cls-1 {
        fill: #f4bb19;
      }

      .cls-2 {
        fill: #128944;
      }
    </style>
  </defs>
  <title>1-17</title>
  <g>
    <path class="cls-1" d="M107.6,246.4c1.3.6,2,1.5,1.3,2-2.8,2.1-7.2,3.4-12.9,3.3-8.4-.2-18.1-3.9-26.5-10.1,5.1,3.3,7.2,2,9.1.4a12.8,12.8,0,0,1,3.2-2.4,8.5,8.5,0,0,1,5.3-.6l4.3.7a23.7,23.7,0,0,1,6.9,2.4A98.3,98.3,0,0,0,107.6,246.4Zm.6-1.5c1.3.5,2.4.3,2.3-.5a20.2,20.2,0,0,0-1.8-5.4,36.5,36.5,0,0,0-3.5-5.9,99.3,99.3,0,0,0-15.3-16.7c3.2,3.3,2.6,5.4,1.5,7.7a13.5,13.5,0,0,0-1.3,3.7,6.9,6.9,0,0,0,1.1,4.9,35,35,0,0,0,2.3,3.5,18.2,18.2,0,0,0,5.6,4.5C102,242.2,105.1,243.6,108.2,244.9ZM76.4,227.2a26,26,0,0,0-6.1-3.9l-4.1-1.7a8.8,8.8,0,0,0-5.3-.7,17,17,0,0,0-3.6,1.6,6,6,0,0,1-3.7.9c-1.4-.2-3-1.1-5.1-3.3,6.7,7.9,15.3,13.8,23.4,15.9a31,31,0,0,0,7.5,1,17.2,17.2,0,0,0,5.9-1.2c.7-.3.2-1.4-.9-2.2l-4.1-3.1-2-1.6Zm3,.4,2,1.6,4,3.1c1.1.7,2.3.7,2.3,0a22.8,22.8,0,0,0-.5-5.7,37.7,37.7,0,0,0-2-6.6,101.3,101.3,0,0,0-11-19.7c2.2,3.9,1.2,5.8-.3,7.8a12.7,12.7,0,0,0-2.2,3.3,7,7,0,0,0-.1,5c.5,1.3.9,2.7,1.5,4a16.3,16.3,0,0,0,4.4,5.6ZM58.5,207.7a23.7,23.7,0,0,0-2.5-2.9,18.8,18.8,0,0,0-2.5-2.4l-3.6-2.6c-3.9-2.7-6.5-1.7-8.9-1.1a6.2,6.2,0,0,1-3.8,0c-1.3-.6-2.7-1.8-4.2-4.4,4.7,9.3,11.7,17,19.1,20.9a31.7,31.7,0,0,0,7.1,2.7,17.1,17.1,0,0,0,5.9.2c.8-.1.6-1.3-.2-2.4a30.9,30.9,0,0,1-3.3-3.9C60.5,210.4,59.4,209.1,58.5,207.7Zm4.4,3.1,3.2,3.9c.9,1,2,1.3,2.2.5a24.3,24.3,0,0,0,.9-5.7,41.9,41.9,0,0,0-.5-6.8,102,102,0,0,0-6.1-21.8,8,8,0,0,1,.2,4.8,7.9,7.9,0,0,1-2.3,2.8c-2,1.6-4.4,3.1-4.1,7.5a33.4,33.4,0,0,0,.5,4.3,23.3,23.3,0,0,0,1,3.2,20.7,20.7,0,0,0,1.9,3.2ZM45.6,184.6a28.3,28.3,0,0,0-3.7-6.4L39,174.9c-3-3.6-5.9-3.2-8.4-3.2a6.1,6.1,0,0,1-3.6-.9c-1.1-.8-2.2-2.3-3-5.3,2.2,10.2,7.4,19.3,13.7,24.9,4.2,3.8,8.4,5.5,12,5.8.7,0,.8-1.1.2-2.4C48.3,190.8,46.9,187.7,45.6,184.6Zm5.8,8.5c.6,1.2,1.6,1.7,2,1.1,1.8-3.1,2.8-7.2,3.3-12.1.7-7.2.1-14.9-.9-22.6.3,4.5-1.5,5.7-3.8,6.8s-5,2-5.8,6.4c-.2,1.4-.3,2.8-.4,4.2a16.1,16.1,0,0,0,1.3,7C48.4,187,49.8,190.1,51.4,193.1ZM38.4,159a20.7,20.7,0,0,0-2.1-6.9c-.6-1.4-1.3-2.7-2-4-2.2-4.2-4.9-4.5-7.4-5a6.2,6.2,0,0,1-3.3-1.7c-.9-1.1-1.6-2.8-1.8-5.8,0,10.3,2.8,20.4,7.6,27.2a20.9,20.9,0,0,0,2.5,3.2,19.5,19.5,0,0,0,2.6,2.4,15.1,15.1,0,0,0,5.2,2.9c.8.2,1.1-.9.8-2.2l-1.2-5Zm2.5,4.8,1.2,4.9c.3,1.3,1.2,2,1.7,1.5a24.4,24.4,0,0,0,3.3-4.7,20.9,20.9,0,0,0,1.4-3,25.2,25.2,0,0,0,1.3-3.3A98.1,98.1,0,0,0,54.1,137a7.2,7.2,0,0,1-1.9,4.4,7.5,7.5,0,0,1-3.3,1.4c-2.4.5-5.3.8-7.1,4.9-.5,1.3-1,2.6-1.4,4a18.3,18.3,0,0,0-.4,7.1Zm-3.5-31.3c0-1.2.1-2.5,0-3.7a18.7,18.7,0,0,0-.4-3.5c-.4-1.5-.7-2.9-1.1-4.3-1.2-4.6-3.8-5.5-6.1-6.6a5.3,5.3,0,0,1-2.8-2.5,9.1,9.1,0,0,1-.4-6c-2.5,10.1-1.9,20.5,1.1,28.3a29.3,29.3,0,0,0,3.7,6.6,16.1,16.1,0,0,0,4.4,4c.7.4,1.3-.6,1.3-2A89.2,89.2,0,0,1,37.4,132.5Zm1.3,10.3c.1,1.3.7,2.3,1.4,1.9a22,22,0,0,0,4.3-3.9,35.5,35.5,0,0,0,4-5.5c3.9-6.1,6.8-13.2,9.4-20.6-1.8,4.2-4,4.5-6.5,4.4s-5.3-.4-8,3.2c-.8,1.1-1.6,2.3-2.3,3.5a12.7,12.7,0,0,0-1.3,3.2,22,22,0,0,0-.7,3.7C38.8,136,38.7,139.4,38.7,142.8Zm3.8-36.3a26.7,26.7,0,0,0,1.3-7.1c0-1.5-.1-3-.1-4.5-.1-4.7-2.4-6.2-4.4-7.8s-3.5-3.5-1.1-9a56,56,0,0,0-5,14.2,42,42,0,0,0-.5,13.6,22.4,22.4,0,0,0,.8,3.9,26.9,26.9,0,0,0,1.2,3.4,16.4,16.4,0,0,0,3.4,4.9c.5.5,1.4-.3,1.7-1.7l1.2-4.9C41.5,109.8,41.9,108.2,42.5,106.5Zm.1,5.4-1.2,4.9c-.3,1.3.2,2.4.9,2.1a22.4,22.4,0,0,0,5-2.7,16.4,16.4,0,0,0,2.6-2,29.1,29.1,0,0,0,2.7-2.4,72.7,72.7,0,0,0,7.2-8.3c2.4-3,4.5-6.3,6.6-9.5-2.7,3.6-4.8,3.4-7.3,2.8s-5.1-1.7-8.5,1.1a29.1,29.1,0,0,0-3.1,3A15.8,15.8,0,0,0,44,107ZM53.5,82.4a25.1,25.1,0,0,0,2.9-6.6c.4-1.5.7-2.9,1-4.4,1-4.6-.9-6.6-2.5-8.6a5.8,5.8,0,0,1-1.4-3.4c0-1.4.6-3.2,2.4-5.6-6.8,7.8-11,17.4-11.8,25.7a26.5,26.5,0,0,0,.3,7.6,16.2,16.2,0,0,0,2.1,5.5c.4.7,1.5.1,2.1-1.2l1.1-2.3,1.2-2.2,1.3-2.3Zm.1,3.1-1.2,2.2-1.2,2.2L50,92.2c-.6,1.2-.4,2.3.4,2.2A20.9,20.9,0,0,0,56,93a43.9,43.9,0,0,0,6.1-3.1c6.2-3.7,12-8.7,17.6-14.1-3.4,2.9-5.5,2.2-7.8,1s-4.5-2.8-8.5-.9l-3.7,2.2a17.3,17.3,0,0,0-4.8,5.2ZM73,54.7a41.8,41.8,0,0,0-5.4,5.8A34.8,34.8,0,0,0,64,66.6c-1.2,2.4.3,3.6,2.5,2.2s3.7-2.5,5.6-4,3.7-3.1,5.7-4.8l4.5-4.4c1.7-1.6,3.5-3.5,5.4-5.2,3.8-3.6,7.7-6.9,10.3-8.9-2.8,1.3-7.7,3.1-12.5,5.5a67.7,67.7,0,0,0-7.1,3.7A37.9,37.9,0,0,0,73,54.7Zm47.7-39.3A128.6,128.6,0,0,0,59,49.9l.7.7a127.9,127.9,0,0,1,61.2-34.3Zm7.5,31.5A96.7,96.7,0,0,0,81.9,72.8l.7.6a96.3,96.3,0,0,1,45.8-25.6Zm-.4-16.4A109.2,109.2,0,0,0,98.5,41l.4.8A111.1,111.1,0,0,1,128,31.4ZM107.4,246.8a114.7,114.7,0,0,0,43.2,8.5v-2.5a111.4,111.4,0,0,1-42.2-8.3Zm95.5-6.5a16.9,16.9,0,0,0,3.1-2.1,14.1,14.1,0,0,0,2.4-2.5,37.5,37.5,0,0,0,2.4-3.6c2.2-3.9.7-6.4-.3-8.7a6.1,6.1,0,0,1-.9-3.5,7.3,7.3,0,0,1,2.3-4.3,101,101,0,0,0-15.3,17c-2.9,4.2-4.7,8-5.3,11.6-.1.7,1,1,2.3.5C196.7,243.3,199.8,241.9,202.9,240.3Zm-8.7,5.9c-1.3.5-1.9,1.5-1.3,2,2.9,2.1,7.3,3.5,13.2,3.2,8.4-.2,18.3-4,26.7-10.4-5.1,3.3-7.2,2.1-9.2.4s-3.9-3.7-8.6-2.9l-4.4.7-3.5,1a35.2,35.2,0,0,0-3.5,1.6A100.8,100.8,0,0,1,194.2,246.2Zm30.4-21a13.3,13.3,0,0,0,2.6-2.7,15.9,15.9,0,0,0,1.8-3,33.1,33.1,0,0,0,1.4-4.1c1.3-4.3-.8-6.4-2.3-8.4a6.7,6.7,0,0,1-1.7-3.2c-.2-1.2.1-2.7,1.3-4.7a108,108,0,0,0-11,20.2c-1.7,4.7-2.6,8.9-2.4,12.4.1.8,1.2.8,2.4,0C219.4,229.6,222.1,227.5,224.6,225.2Zm-7,7.8c-1.1.8-1.5,2-.8,2.3,3.4,1.4,7.9,1.6,13.6,0,8.1-2.2,16.9-8.2,23.5-16.4-2.1,2.2-3.7,3.2-5.1,3.4a5.8,5.8,0,0,1-3.7-.8c-2.3-1.2-4.7-2.7-9.1-.9l-4.1,1.8a23.8,23.8,0,0,0-3.1,1.7l-3.1,2.4A85.3,85.3,0,0,1,217.6,233Zm24.7-27.5a14,14,0,0,0,1-1.6,13,13,0,0,0,.8-1.7,14.2,14.2,0,0,0,1.1-3.3c.2-1.4.3-2.9.4-4.3a6.5,6.5,0,0,0-1.3-4.9,14.8,14.8,0,0,0-2.9-2.7c-2-1.6-3.6-3.2-2.3-7.6a109,109,0,0,0-5.9,22.2,32.7,32.7,0,0,0-.3,6.9,17,17,0,0,0,.9,5.7c.2.8,1.3.5,2.2-.6A97.7,97.7,0,0,0,242.3,205.5Zm-5,9.2c-.9,1.1-1,2.2-.3,2.4a18.5,18.5,0,0,0,6.1-.3,28.1,28.1,0,0,0,7.1-2.8c7.4-4.1,14.5-12,19.1-21.6-3.1,5.4-5.5,5.2-8,4.7a17.6,17.6,0,0,0-4-.7,9.5,9.5,0,0,0-5,2,42.2,42.2,0,0,0-3.6,2.7,14.5,14.5,0,0,0-2.6,2.4l-1.2,1.4a6.1,6.1,0,0,0-1.2,1.6A100.4,100.4,0,0,1,237.3,214.7Zm17.5-32.5a17,17,0,0,0,1.3-7.1c-.1-1.5-.4-2.9-.6-4.3a6.4,6.4,0,0,0-2.4-4.4,20.8,20.8,0,0,0-3.5-2,6.5,6.5,0,0,1-3-2.1,7.3,7.3,0,0,1-1-4.7,103.8,103.8,0,0,0-.5,22.9,34.2,34.2,0,0,0,1.3,6.8,19.6,19.6,0,0,0,2.2,5.3c.4.7,1.4.2,2.1-1.1s1.4-3,2.1-4.6a24,24,0,0,0,1.1-2.3Zm.6,3-1,2.4a40.9,40.9,0,0,1-2.3,4.7c-.6,1.2-.4,2.4.3,2.4a17.2,17.2,0,0,0,5.8-1.7,29,29,0,0,0,6.3-4.4c6.3-5.8,11.3-15.1,13.5-25.5-.9,3-1.9,4.6-3,5.4a5.6,5.6,0,0,1-3.7,1,13.8,13.8,0,0,0-4,.3,8.4,8.4,0,0,0-2.2,1,10.7,10.7,0,0,0-2.2,2.1l-2.9,3.4a28.8,28.8,0,0,0-3.6,6.5Zm6.1-28.6a24.8,24.8,0,0,0,.2-3.8,17,17,0,0,0-.7-3.4,27.4,27.4,0,0,0-1.5-4c-1.9-4.2-4.8-4.4-7.3-4.9a7.1,7.1,0,0,1-3.4-1.3c-.9-.8-1.6-2.1-2.1-4.4.3,1.9.5,3.9.9,5.8s.6,3.9,1,5.8a55.4,55.4,0,0,0,1.4,5.5,46.4,46.4,0,0,0,1.6,5.3,37.1,37.1,0,0,0,2.9,6.3,18.9,18.9,0,0,0,3.4,4.7c.6.6,1.4-.2,1.8-1.6l.5-2.5c.2-.8.3-1.6.5-2.5S261.3,158.3,261.5,156.6Zm.8,5.3c-.1.9-.3,1.7-.4,2.6l-.6,2.5c-.3,1.4.1,2.5.8,2.3a19.2,19.2,0,0,0,5.3-3,29.5,29.5,0,0,0,5-5.8,47.1,47.1,0,0,0,3.2-5.9,60.2,60.2,0,0,0,2.3-6.8c.5-2.3,1-4.8,1.3-7.4a66.9,66.9,0,0,0,.3-7.8c0,3.1-.8,4.9-1.7,6a5.4,5.4,0,0,1-3.3,1.8c-2.4.6-5.3,1-7.4,5.2-.6,1.4-1.3,2.7-2,4.1A16,16,0,0,0,264,153a16.1,16.1,0,0,0-.8,3.8C263,158.5,262.6,160.2,262.3,161.9Zm-.3-31.8a34.9,34.9,0,0,0-.7-3.7,13.5,13.5,0,0,0-1.5-3.2,17.4,17.4,0,0,0-1.1-1.8l-1.3-1.7c-2.7-3.6-5.7-3.1-8.2-3a8.5,8.5,0,0,1-3.6-.5,8.4,8.4,0,0,1-3.1-3.8c1.5,3.7,2.9,7.3,4.6,10.8.8,1.7,1.7,3.4,2.6,5a55,55,0,0,0,2.8,4.8,42,42,0,0,0,4.3,5.5,21.1,21.1,0,0,0,4.4,3.7c.6.5,1.4-.5,1.3-1.9C262.5,136.9,262.3,133.5,262,130.1Zm2.2,10.2c.1,1.4.7,2.4,1.3,2a15.7,15.7,0,0,0,4.4-4.2,24.1,24.1,0,0,0,3.6-6.8,31.6,31.6,0,0,0,1.7-6.4,53.4,53.4,0,0,0,.7-7.1,57.2,57.2,0,0,0-2-15.2c.6,3,.4,4.9-.2,6.2a6.7,6.7,0,0,1-2.8,2.5c-2.3,1.2-4.9,2.2-6,6.8l-.5,2.2c-.2.8-.3,1.5-.5,2.2a36,36,0,0,0-.4,3.6,24.8,24.8,0,0,0,.2,3.8C264,133.4,264.2,136.8,264.2,140.3Zm-7.9-36.1a20.8,20.8,0,0,0-3.7-6.2l-3.3-2.8c-3.5-2.8-6.2-1.7-8.6-1s-4.7,1.1-7.5-2.6a102,102,0,0,0,14.6,17.7,35.1,35.1,0,0,0,5.4,4.3,18.1,18.1,0,0,0,5.2,2.6c.7.3,1.1-.8.8-2.1a41,41,0,0,0-1.4-5l-.7-2.4C256.8,105.8,256.5,105,256.3,104.2Zm2.4,1.9.7,2.5c.6,1.7,1,3.4,1.4,5s1.3,2.2,1.8,1.6a14.5,14.5,0,0,0,3.3-5,29.3,29.3,0,0,0,1.9-7.5c.9-8.4-1.4-18.8-6.5-28,2.6,5.6,1.1,7.5-.8,9.2s-4.3,3.3-4.2,8c0,1.5,0,3,.1,4.5a24.7,24.7,0,0,0,1.4,7.3ZM244.6,80.5a18.1,18.1,0,0,0-5.1-5.2l-3.8-2c-4.1-1.9-6.4-.2-8.6,1.1a7.3,7.3,0,0,1-3.5,1.2c-1.2,0-2.6-.6-4.4-2a105.9,105.9,0,0,0,18.3,13.8,29.8,29.8,0,0,0,12,4.2c.7.1.9-1.1.3-2.3C248.2,86.3,246.4,83.3,244.6,80.5Zm6.6,8c.7,1.3,1.7,1.8,2.1,1.2,1.9-3.1,2.8-7.6,2.1-13.4a18,18,0,0,0-.6-3.2,20.2,20.2,0,0,0-.9-3.3,45.1,45.1,0,0,0-2.6-6.6,52.6,52.6,0,0,0-8.7-12.6c1.9,2.3,2.6,4.1,2.6,5.6a6.3,6.3,0,0,1-1.3,3.5c-1.5,2.1-3.4,4.2-2.2,8.8.4,1.4.7,2.9,1.1,4.4a25,25,0,0,0,3.2,6.6C247.9,82.5,249.6,85.5,251.2,88.5ZM220.7,57.6a100.8,100.8,0,0,0,11.7,8.5c2.2,1.4,3.7.2,2.5-2.3a38.1,38.1,0,0,0-9.6-11.7,54.5,54.5,0,0,0-12.7-7.6,86.6,86.6,0,0,0-13.2-4.9c2.9,1.5,7,4.8,10.9,8.3S217.9,55.3,220.7,57.6ZM169,47.2a94.4,94.4,0,0,1,47.2,24.2l.6-.7a92.1,92.1,0,0,0-22.1-15.6,97,97,0,0,0-25.6-8.8ZM175.2,15a126.4,126.4,0,0,1,34.1,11.7,133.5,133.5,0,0,1,29.4,20.7l.6-.7A128.3,128.3,0,0,0,175.4,14Zm-6.5,15.3A130.9,130.9,0,0,1,184,33.9a104.5,104.5,0,0,1,14.7,5.8l.4-.9A110.8,110.8,0,0,0,184.3,33a114.8,114.8,0,0,0-15.4-3.6Zm24.7,214a111.9,111.9,0,0,1-42.8,8.5v2.5a113.3,113.3,0,0,0,43.8-8.7Z"/>
    <path class="cls-2" d="M253.1,251.9A145,145,0,1,1,132.1,5.6,139.9,139.9,0,1,0,294.4,168,144.8,144.8,0,0,1,253.1,251.9Z"/>
  </g>
</svg>
