<svg id="Layer_2" data-name="Layer 2" xmlns="http://www.w3.org/2000/svg" viewBox="0 0 300 300">
  <defs>
    <style>
      .cls-1 {
        fill: #d2d3d4;
      }

      .cls-2 {
        fill: #639a41;
      }

      .cls-3 {
        fill: #53b848;
      }

      .cls-4 {
        fill: #f47b20;
      }

      .cls-5 {
        fill: #ce5f28;
      }
    </style>
  </defs>
  <title>1-26</title>
  <g>
    <path class="cls-1" d="M250.7,84.1a30.1,30.1,0,0,1-4.7-10,31.9,31.9,0,0,0,3.3,11.8Z"/>
    <path class="cls-2" d="M153,149.1h0Z"/>
    <path class="cls-2" d="M153.3,149.3h0Z"/>
    <path class="cls-2" d="M159,111.5v0Z"/>
    <path class="cls-2" d="M152.6,148.9l-.4-.2Z"/>
    <path class="cls-2" d="M158.3,103.9a1.3,1.3,0,0,1,.1.6A1.3,1.3,0,0,0,158.3,103.9Z"/>
    <path class="cls-2" d="M157.8,100.6a1.3,1.3,0,0,1,.1.6A1.3,1.3,0,0,0,157.8,100.6Z"/>
    <path class="cls-2" d="M151,148.1l-.6-.4Z"/>
    <path class="cls-2" d="M150.3,147.6l-.6-.3Z"/>
    <path class="cls-2" d="M151.6,148.4l-.5-.3Z"/>
    <path class="cls-2" d="M152.1,148.7l-.4-.2Z"/>
    <path class="cls-2" d="M156.6,138.3a8.3,8.3,0,0,1-.4,1.5A8.3,8.3,0,0,0,156.6,138.3Z"/>
    <path class="cls-2" d="M155.5,143.1c-.1.5-.3,1-.4,1.5S155.4,143.6,155.5,143.1Z"/>
    <path class="cls-2" d="M153.8,149.5Z"/>
    <path class="cls-2" d="M149.6,147.1l-1.4-1Z"/>
    <path class="cls-2" d="M153.7,149.5h0Z"/>
    <path class="cls-2" d="M159,115.2a3.4,3.4,0,0,1,0,1A3.4,3.4,0,0,0,159,115.2Z"/>
    <path class="cls-2" d="M157.5,133.6c-.1.2-.1.4-.2.6S157.4,133.8,157.5,133.6Z"/>
    <path class="cls-2" d="M159,120c-.1.1-.1.1-.1.2S158.9,120.1,159,120Z"/>
    <path class="cls-2" d="M158.7,124a4.9,4.9,0,0,0-.1,1.2A4.9,4.9,0,0,1,158.7,124Z"/>
    <path class="cls-2" d="M153.6,149.4h0Z"/>
    <path class="cls-2" d="M158.2,128.2c0,.4-.1.9-.1,1.4S158.2,128.6,158.2,128.2Z"/>
    <path class="cls-2" d="M135.5,127.8a8.4,8.4,0,0,1-.5-1.7A8.4,8.4,0,0,0,135.5,127.8Z"/>
    <path class="cls-2" d="M134.8,125.7l-.3-1.4Z"/>
    <path class="cls-2" d="M136.1,129.5a6.9,6.9,0,0,0-.5-1.3A6.9,6.9,0,0,1,136.1,129.5Z"/>
    <path class="cls-2" d="M148,146l-.6-.5Z"/>
    <path class="cls-2" d="M136.9,131.3l-.6-1.3Z"/>
    <path class="cls-2" d="M138.4,134.4l-.6-1Z"/>
    <path class="cls-2" d="M133.4,119.1a7.7,7.7,0,0,1-.2-1.5A7.7,7.7,0,0,0,133.4,119.1Z"/>
    <path class="cls-2" d="M134.3,123.7c-.1-.6-.3-1.1-.4-1.6S134.2,123.1,134.3,123.7Z"/>
    <path class="cls-2" d="M133.9,121.7a12.9,12.9,0,0,1-.4-1.9A12.9,12.9,0,0,0,133.9,121.7Z"/>
    <path class="cls-2" d="M137.7,133a10.1,10.1,0,0,1-.7-1.5A10.1,10.1,0,0,0,137.7,133Z"/>
    <path class="cls-2" d="M144.6,143l-.8-.9Z"/>
    <path class="cls-2" d="M145.5,143.8l-.7-.7Z"/>
    <path class="cls-2" d="M146.4,144.6l-.7-.6Z"/>
    <path class="cls-2" d="M147.2,145.4l-.8-.7Z"/>
    <path class="cls-2" d="M143.7,142l-.7-.8Z"/>
    <path class="cls-2" d="M140.1,137.4l-1.5-2.6Z"/>
    <path class="cls-2" d="M141,138.6l-.7-.9Z"/>
    <path class="cls-2" d="M142,139.9l-.9-1.1Z"/>
    <path class="cls-2" d="M142.8,140.9l-.8-.9Z"/>
    <path class="cls-2" d="M205.8,110.4l-.9,1.9Z"/>
    <path class="cls-2" d="M216.9,75.3a2.8,2.8,0,0,0-.1.9A2.8,2.8,0,0,1,216.9,75.3Z"/>
    <path class="cls-2" d="M215.4,83.9l-.3,1.3Z"/>
    <path class="cls-2" d="M217.2,71.6a2.8,2.8,0,0,1-.1.9A2.8,2.8,0,0,0,217.2,71.6Z"/>
    <path class="cls-2" d="M216.3,79.1l-.3,2Z"/>
    <path class="cls-2" d="M216.6,77.2c0,.4-.1.7-.1,1.1S216.6,77.6,216.6,77.2Z"/>
    <path class="cls-2" d="M215.9,81.6l-.3,1.5Z"/>
    <path class="cls-2" d="M217.3,69.8v0Z"/>
    <path class="cls-2" d="M217.1,73.4a2.8,2.8,0,0,0-.1.9A2.8,2.8,0,0,1,217.1,73.4Z"/>
    <path class="cls-2" d="M217.1,60.6a5.7,5.7,0,0,1,.1,1.3A5.7,5.7,0,0,0,217.1,60.6Z"/>
    <path class="cls-2" d="M217,59c0,.4.1.9.1,1.4S217,59.4,217,59Z"/>
    <path class="cls-2" d="M217.2,62.3a4.9,4.9,0,0,1,.1,1.2A4.9,4.9,0,0,0,217.2,62.3Z"/>
    <path class="cls-2" d="M217.3,63.9c0,.5.1,1.1.1,1.6S217.3,64.4,217.3,63.9Z"/>
    <path class="cls-2" d="M217.4,68c0,.3-.1.6-.1.9S217.4,68.3,217.4,68Z"/>
    <path class="cls-2" d="M217.4,65.8v0Z"/>
    <path class="cls-2" d="M214.4,88.2c-.1.5-.3.9-.4,1.4S214.3,88.7,214.4,88.2Z"/>
    <path class="cls-2" d="M215,86a7.4,7.4,0,0,0-.4,1.4A7.4,7.4,0,0,1,215,86Z"/>
    <path class="cls-2" d="M203.1,115.6l-1.5,2.7Z"/>
    <path class="cls-2" d="M208.3,105.2l-.9,1.9Z"/>
    <path class="cls-2" d="M207.1,107.8l-.9,1.8Z"/>
    <path class="cls-2" d="M201.5,118.2l-.4-.2Z"/>
    <path class="cls-2" d="M201.6,118.3h0Z"/>
    <path class="cls-2" d="M204.5,113l-1.1,2Z"/>
    <path class="cls-2" d="M213.8,90.4c-.2.5-.3,1-.5,1.5S213.6,90.9,213.8,90.4Z"/>
    <path class="cls-2" d="M213.1,92.6l-.6,1.9Z"/>
    <path class="cls-2" d="M212.4,94.9c-.8,2.3-1.7,4.7-2.8,7.2C210.7,99.6,211.6,97.2,212.4,94.9Z"/>
    <path class="cls-2" d="M209.4,102.6l-.8,2Z"/>
    <path class="cls-2" d="M273.5,62.4l-.3,1.3Z"/>
    <path class="cls-2" d="M273.9,59.5c-.1.4-.1.8-.2,1.2S273.8,59.9,273.9,59.5Z"/>
    <path class="cls-2" d="M272.9,65.2c-.1.4-.1.7-.2,1.1S272.8,65.6,272.9,65.2Z"/>
    <path class="cls-2" d="M274.2,56.3c-.1.6-.1,1.2-.2,1.8S274.1,56.9,274.2,56.3Z"/>
    <path class="cls-2" d="M274.3,53.9c0,.4-.1.9-.1,1.3S274.3,54.3,274.3,53.9Z"/>
    <path class="cls-2" d="M272.1,68.4l-.3,1Z"/>
    <path class="cls-2" d="M193,148.1l-.4.3Z"/>
    <path class="cls-2" d="M173.6,164.6a2.3,2.3,0,0,1,.7-.7A2.3,2.3,0,0,0,173.6,164.6Z"/>
    <path class="cls-2" d="M189.7,150.6l-.6.5Z"/>
    <path class="cls-2" d="M183.3,155.7l-.7.6Z"/>
    <path class="cls-2" d="M144.4,210a1.4,1.4,0,0,0-.2.7A1.4,1.4,0,0,1,144.4,210Z"/>
    <path class="cls-2" d="M186.6,153l-.6.4Z"/>
    <path class="cls-2" d="M196.1,145.9l-.4.3Z"/>
    <path class="cls-2" d="M209.7,137.2l-1.3.7Z"/>
    <path class="cls-2" d="M199.5,143.5l-.4.3Z"/>
    <path class="cls-2" d="M260.9,87.6c-.1.2-.3.3-.5.5S260.8,87.8,260.9,87.6Z"/>
    <path class="cls-2" d="M140.6,227.4h0Z"/>
    <path class="cls-2" d="M202.7,141.5l-.3.2Z"/>
    <path class="cls-2" d="M142.1,218.5c0,.2-.1.3-.1.4S142.1,218.7,142.1,218.5Z"/>
    <path class="cls-2" d="M165.5,173.2l-.8,1Z"/>
    <path class="cls-2" d="M160.2,179.8a3.6,3.6,0,0,1-.7,1A3.6,3.6,0,0,0,160.2,179.8Z"/>
    <path class="cls-2" d="M163,176.3l-.6.8Z"/>
    <path class="cls-2" d="M151.1,194.2a4.1,4.1,0,0,1-.5.9A4.1,4.1,0,0,0,151.1,194.2Z"/>
    <path class="cls-2" d="M157.8,183.2a4.3,4.3,0,0,0-.4.7A4.3,4.3,0,0,1,157.8,183.2Z"/>
    <path class="cls-2" d="M180.3,158.3l-.6.5Z"/>
    <path class="cls-2" d="M153.2,190.5l-.3.5Z"/>
    <path class="cls-2" d="M147.4,201.9l-.3.8Z"/>
    <path class="cls-2" d="M177.1,161.2l-.8.7Z"/>
    <path class="cls-2" d="M171.2,167l-.9.9Z"/>
    <path class="cls-2" d="M168.5,169.9l-.7.7Z"/>
    <path class="cls-2" d="M149.1,198.3h0Z"/>
    <path class="cls-2" d="M212.1,135.8l.8-.4-.4.2Z"/>
    <path class="cls-2" d="M270.1,74.1a3,3,0,0,0-.4.8A3,3,0,0,1,270.1,74.1Z"/>
    <path class="cls-2" d="M205.7,139.6l.4-.3-.2.2Z"/>
    <path class="cls-2" d="M274.3,53v0Z"/>
    <path class="cls-2" d="M265.2,82.5a2.1,2.1,0,0,1-.4.6A2.1,2.1,0,0,0,265.2,82.5Z"/>
    <path class="cls-2" d="M268.6,77.1l-.3.6Z"/>
    <path class="cls-2" d="M155.4,186.8l-.6,1Z"/>
    <path class="cls-2" d="M267.2,79.6a2.5,2.5,0,0,0-.4.7A2.5,2.5,0,0,1,267.2,79.6Z"/>
    <path class="cls-2" d="M263.3,85c-.1.1-.2.3-.4.4S263.2,85.1,263.3,85Z"/>
    <path class="cls-2" d="M271.2,71.1c-.1.2-.1.5-.2.8S271.1,71.3,271.2,71.1Z"/>
    <path class="cls-2" d="M231.5,197.7l-4.7-1.6Z"/>
    <path class="cls-2" d="M149.2,210.5h0c16.5,4.8,30.3,5.9,41.5,5C179.5,216.4,165.7,215.3,149.2,210.5Z"/>
    <path class="cls-2" d="M201.1,214l-6.8,1.1Z"/>
    <path class="cls-2" d="M207.1,212.4l-6,1.6Z"/>
    <path class="cls-1" d="M251.5,160.7l-6.4,1.3Z"/>
    <path class="cls-1" d="M257.2,159l-5.7,1.7Z"/>
    <path class="cls-1" d="M264.4,156.1c10.1-4.9,14.6-10.6,14.6-10.6h0S274.5,151.2,264.4,156.1Z"/>
    <path class="cls-1" d="M216.9,161.9a107.1,107.1,0,0,0,17.3,1.1A107.1,107.1,0,0,1,216.9,161.9Z"/>
    <path class="cls-1" d="M196.6,157.3a133.8,133.8,0,0,0,15.5,3.8,133.8,133.8,0,0,1-15.5-3.8Z"/>
    <path class="cls-1" d="M199.3,152.7h0Z"/>
    <path class="cls-2" d="M196.6,157.3h0a22.5,22.5,0,0,1,2.6-4.6A22.5,22.5,0,0,0,196.6,157.3Z"/>
    <path class="cls-2" d="M133.1,117.2c-1.5-12,0-28.3,7.8-50.1,0,0,11.7,9.2,16.3,30.5,1.7,12,1.1,27.2-4.4,46.2C152.8,143.8,138,138.3,133.1,117.2Zm68,.7c-2-1.6-10.3-8.9-12-23.9,3.3,13,11.5,18.6,11.5,18.6,15.1-26.2,17-46.7,15.1-60.9a49.1,49.1,0,0,1,1.2,7.2c-1.7-15.4-8.1-23.6-8.1-23.6C171.4,91.6,197.3,114.9,201.1,117.9ZM214.9,128c24.4-13.2,36.4-29.7,42.2-43.4,16.2-14,17.5-33.8,15.4-48.6a80.8,80.8,0,0,1,1.8,14,87.9,87.9,0,0,0-6.2-29C236.5,59.7,246,81.9,251.7,89.8c-8.3,11-22.3,23.4-46.2,33.5-56.3,23.7-89,68.2-83.1,109.8S153.6,288,153.6,288c-6.9-13.3-10.9-25.8-12.6-37.6C128.9,190.5,176.4,148.8,214.9,128Zm11.5,67.9c-63.9-20.9-77.2,14.5-77.2,14.6a21.5,21.5,0,0,1,2.6-4.7C194.5,217.1,217.7,203.2,226.4,195.9ZM274,143.7l5,1.8h0c-52.6-19.7-73.1-1.9-79.7,7.2C241.8,164.5,265.2,150.9,274,143.7Z"/>
    <polygon class="cls-1" points="149.2 210.5 149.2 210.5 149.2 210.5 149.2 210.5"/>
    <path class="cls-1" d="M226.5,195.9h-.1l.4.2Z"/>
    <path class="cls-1" d="M133.5,119.8a1.7,1.7,0,0,1-.1-.7A1.7,1.7,0,0,0,133.5,119.8Z"/>
    <path class="cls-1" d="M153.6,149.4Z"/>
    <path class="cls-1" d="M133.1,117.2a.6.6,0,0,0,.1.4c-.1-.1-.1-.2-.1-.4Z"/>
    <path class="cls-1" d="M151.1,148.1h0Z"/>
    <path class="cls-1" d="M153.1,149.2h0Z"/>
    <path class="cls-1" d="M152.7,149h0Z"/>
    <path class="cls-1" d="M153.8,149.5h0Z"/>
    <path class="cls-1" d="M151.7,148.5h0Z"/>
    <path class="cls-1" d="M153.4,149.3h0Z"/>
    <path class="cls-1" d="M152.2,148.7h0Z"/>
    <path class="cls-1" d="M158.4,104.5c.3,2.2.5,4.5.6,7C158.9,109,158.7,106.7,158.4,104.5Z"/>
    <path class="cls-1" d="M159,116.2v0Z"/>
    <path class="cls-1" d="M159,112.4v0Z"/>
    <path class="cls-1" d="M157.9,101.2a25.1,25.1,0,0,1,.4,2.7A25.1,25.1,0,0,0,157.9,101.2Z"/>
    <path class="cls-1" d="M136.3,130c0-.2-.1-.3-.2-.5S136.3,129.8,136.3,130Z"/>
    <path class="cls-1" d="M155.1,144.6c-.4,1.6-.8,3.2-1.3,4.9C154.3,147.8,154.7,146.2,155.1,144.6Z"/>
    <path class="cls-1" d="M157.3,134.2c-.2,1.4-.4,2.7-.7,4.1C156.9,136.9,157.1,135.6,157.3,134.2Z"/>
    <path class="cls-1" d="M156.2,139.8c-.2,1.1-.4,2.2-.7,3.3C155.8,142,156,140.9,156.2,139.8Z"/>
    <path class="cls-1" d="M158.6,125.2c-.1,1-.2,2-.4,3C158.4,127.2,158.5,126.2,158.6,125.2Z"/>
    <path class="cls-1" d="M158.1,129.6l-.6,4Z"/>
    <path class="cls-1" d="M158.9,120.2c0,1.2-.1,2.5-.2,3.8C158.8,122.7,158.9,121.4,158.9,120.2Z"/>
    <path class="cls-1" d="M157.2,97.5h0l.6,3Z"/>
    <path class="cls-1" d="M134.5,124.3a1.4,1.4,0,0,1-.2-.6A1.4,1.4,0,0,0,134.5,124.3Z"/>
    <path class="cls-1" d="M143,141.2l-.2-.3Z"/>
    <path class="cls-1" d="M135,126.1c-.1-.1-.1-.3-.2-.4S134.9,126,135,126.1Z"/>
    <path class="cls-1" d="M143.8,142.1h0Z"/>
    <path class="cls-1" d="M144.8,143.1h0Z"/>
    <path class="cls-1" d="M135.6,128.2a.6.6,0,0,0-.1-.4A.6.6,0,0,1,135.6,128.2Z"/>
    <path class="cls-1" d="M140.3,137.7l-.2-.3Z"/>
    <path class="cls-1" d="M138.6,134.8l-.2-.4Z"/>
    <path class="cls-1" d="M141.1,138.8v0Z"/>
    <path class="cls-1" d="M142,140h0Z"/>
    <path class="cls-1" d="M137.8,133.4c0-.2-.1-.3-.1-.4S137.8,133.2,137.8,133.4Z"/>
    <path class="cls-1" d="M145.7,144l-.2-.2Z"/>
    <path class="cls-1" d="M148.2,146.1h0Z"/>
    <path class="cls-1" d="M146.4,144.7h0Z"/>
    <path class="cls-1" d="M149.7,147.3c0-.1-.1-.1-.1-.2S149.7,147.2,149.7,147.3Z"/>
    <path class="cls-1" d="M150.4,147.7h0Z"/>
    <path class="cls-1" d="M147.4,145.5h0Z"/>
    <path class="cls-1" d="M133.9,122.1v0Z"/>
    <path class="cls-1" d="M137,131.5c-.1,0-.1-.1-.1-.2S136.9,131.5,137,131.5Z"/>
    <path class="cls-1" d="M207.4,107.1l-.3.7Z"/>
    <path class="cls-1" d="M217.1,72.5v0Z"/>
    <path class="cls-1" d="M212.5,94.5c0,.1-.1.2-.1.4S212.5,94.6,212.5,94.5Z"/>
    <path class="cls-1" d="M217.3,70.7a2.8,2.8,0,0,0-.1.9A2.8,2.8,0,0,1,217.3,70.7Z"/>
    <path class="cls-1" d="M215.6,83.1a2.4,2.4,0,0,1-.2.8A2.4,2.4,0,0,0,215.6,83.1Z"/>
    <path class="cls-1" d="M208.6,104.6l-.3.6Z"/>
    <path class="cls-1" d="M217.1,60.4v0Z"/>
    <path class="cls-1" d="M209.6,102.1c0,.2-.1.3-.2.5S209.6,102.3,209.6,102.1Z"/>
    <path class="cls-1" d="M206.2,109.6a3,3,0,0,1-.4.8A3,3,0,0,0,206.2,109.6Z"/>
    <path class="cls-1" d="M216.9,58.9h0Z"/>
    <path class="cls-1" d="M204.9,112.3a4.3,4.3,0,0,0-.4.7A4.3,4.3,0,0,1,204.9,112.3Z"/>
    <path class="cls-1" d="M217.4,65.5v0Z"/>
    <path class="cls-1" d="M216.5,78.3c-.1.3-.1.6-.2.8S216.4,78.6,216.5,78.3Z"/>
    <path class="cls-1" d="M215.1,85.2c0,.3-.1.6-.1.8S215.1,85.5,215.1,85.2Z"/>
    <path class="cls-1" d="M214.6,87.4c-.1.3-.1.5-.2.8S214.5,87.7,214.6,87.4Z"/>
    <path class="cls-1" d="M217.4,67.2v0Z"/>
    <path class="cls-1" d="M216,81.1a4.3,4.3,0,0,1-.1.5A4.3,4.3,0,0,0,216,81.1Z"/>
    <path class="cls-1" d="M213.3,91.9a1.4,1.4,0,0,1-.2.7A1.4,1.4,0,0,0,213.3,91.9Z"/>
    <path class="cls-1" d="M214,89.6l-.2.8Z"/>
    <path class="cls-1" d="M217.3,68.9v0Z"/>
    <path class="cls-1" d="M217,74.3a3.4,3.4,0,0,0-.1,1A3.4,3.4,0,0,1,217,74.3Z"/>
    <path class="cls-1" d="M217.3,63.5v0Z"/>
    <path class="cls-1" d="M216.8,76.2c-.1.4-.1.7-.2,1S216.7,76.6,216.8,76.2Z"/>
    <path class="cls-1" d="M217.2,61.9v0Z"/>
    <path class="cls-1" d="M201.5,118.2Z"/>
    <path class="cls-1" d="M203.4,115l-.3.6Z"/>
    <path class="cls-1" d="M201.1,118h0Z"/>
    <path class="cls-1" d="M141,250.4a.7.7,0,0,1,.1.5,92.3,92.3,0,0,1-.5-23.4A92.9,92.9,0,0,0,141,250.4Z"/>
    <path class="cls-1" d="M142,218.9a83.6,83.6,0,0,0-1.4,8.5A83.6,83.6,0,0,1,142,218.9Z"/>
    <path class="cls-1" d="M262.9,85.4a20.9,20.9,0,0,1-2,2.2A20.9,20.9,0,0,0,262.9,85.4Z"/>
    <path class="cls-1" d="M260.4,88.1l-2.3,2.1Z"/>
    <path class="cls-1" d="M171.2,167l2.4-2.4Z"/>
    <path class="cls-1" d="M215.9,133.7l-3,1.7Z"/>
    <path class="cls-1" d="M205.7,139.6l-3,1.9Z"/>
    <path class="cls-1" d="M208.4,137.9l-2.3,1.4Z"/>
    <path class="cls-1" d="M264.8,83.1,263.3,85Z"/>
    <path class="cls-1" d="M212.1,135.8l-2.4,1.4Z"/>
    <path class="cls-1" d="M274.3,53v0Z"/>
    <path class="cls-1" d="M271,71.9l-.9,2.2Z"/>
    <path class="cls-1" d="M274,58.1c0,.5-.1,1-.1,1.4S274,58.6,274,58.1Z"/>
    <path class="cls-1" d="M273.7,60.7c-.1.6-.1,1.1-.2,1.7S273.6,61.3,273.7,60.7Z"/>
    <path class="cls-1" d="M274.2,55.2v0Z"/>
    <path class="cls-1" d="M266.8,80.3a17.7,17.7,0,0,1-1.6,2.2A17.7,17.7,0,0,0,266.8,80.3Z"/>
    <path class="cls-1" d="M273.2,63.7l-.3,1.5Z"/>
    <path class="cls-1" d="M269.7,74.9l-1.1,2.2Z"/>
    <path class="cls-1" d="M268.3,77.7l-1.1,1.9Z"/>
    <path class="cls-1" d="M274.3,50v0Z"/>
    <path class="cls-1" d="M202.4,141.7l-2.9,1.8Z"/>
    <path class="cls-1" d="M271.8,69.4l-.6,1.7Z"/>
    <path class="cls-1" d="M150.6,195.1l-1.5,3.2Z"/>
    <path class="cls-1" d="M162.4,177.1l-2.2,2.7Z"/>
    <path class="cls-1" d="M167.8,170.6c-.8.9-1.5,1.8-2.3,2.6C166.3,172.4,167,171.5,167.8,170.6Z"/>
    <path class="cls-1" d="M164.7,174.2l-1.7,2.1Z"/>
    <path class="cls-1" d="M152.9,191l-1.8,3.2Z"/>
    <path class="cls-1" d="M272.7,66.3l-.6,2.1Z"/>
    <path class="cls-1" d="M159.5,180.8l-1.7,2.4Z"/>
    <path class="cls-1" d="M199.1,143.8l-3,2.1Z"/>
    <path class="cls-1" d="M157.4,183.9c-.7.9-1.3,1.9-2,2.9C156.1,185.8,156.7,184.8,157.4,183.9Z"/>
    <path class="cls-1" d="M170.3,167.9l-1.8,2Z"/>
    <path class="cls-1" d="M154.8,187.8l-1.6,2.7Z"/>
    <path class="cls-1" d="M149,198.4c-.6,1.2-1.1,2.3-1.6,3.5C147.9,200.7,148.4,199.6,149,198.4Z"/>
    <path class="cls-1" d="M192.6,148.4l-2.9,2.2Z"/>
    <path class="cls-1" d="M144.2,210.7c-.8,2.5-1.5,5.2-2.1,7.8C142.7,215.9,143.4,213.2,144.2,210.7Z"/>
    <path class="cls-1" d="M186,153.4l-2.7,2.3Z"/>
    <path class="cls-1" d="M195.7,146.2l-2.7,1.9Z"/>
    <path class="cls-1" d="M189.1,151.1l-2.5,1.9Z"/>
    <path class="cls-1" d="M179.7,158.8l-2.6,2.4Z"/>
    <path class="cls-1" d="M182.6,156.3l-2.3,2Z"/>
    <path class="cls-1" d="M147.1,202.7c-1,2.4-1.9,4.8-2.7,7.3C145.2,207.5,146.1,205.1,147.1,202.7Z"/>
    <path class="cls-1" d="M176.3,161.9l-2,2Z"/>
    <path class="cls-3" d="M264.4,156.1a63.3,63.3,0,0,1-7.2,2.9l-5.7,1.7-6.4,1.3a88.1,88.1,0,0,1-10.9,1,107.1,107.1,0,0,1-17.3-1.1l-4.8-.8a133.8,133.8,0,0,1-15.5-3.8,22.5,22.5,0,0,1,2.6-4.6h.1c42.5,11.8,65.9-1.8,74.7-9l5,1.8S274.5,151.2,264.4,156.1Zm-38,39.8c-8.7,7.3-31.9,21.2-74.6,9.9a21.5,21.5,0,0,0-2.6,4.7h0c16.5,4.8,30.3,5.9,41.5,5l3.6-.4,6.8-1.1,6-1.6c17-5.2,24.4-14.7,24.4-14.7l-4.7-1.6Zm-73.6-52.1s-14.8-5.5-19.7-26.6c0,.2,0,.3.1.4a7.7,7.7,0,0,0,.2,1.5,1.7,1.7,0,0,0,.1.7,12.9,12.9,0,0,0,.4,1.9v.4c.1.5.3,1,.4,1.6a1.4,1.4,0,0,0,.2.6l.3,1.4c.1.1.1.3.2.4a8.4,8.4,0,0,0,.5,1.7.6.6,0,0,1,.1.4,6.9,6.9,0,0,1,.5,1.3c.1.2.2.3.2.5l.6,1.3c0,.1,0,.2.1.2a10.1,10.1,0,0,0,.7,1.5c0,.1.1.2.1.4l.6,1,.2.4,1.5,2.6.2.3.7.9v.2l.9,1.1h0l.8.9.2.3.7.8h.1l.8.9h.2l.7.7.2.2.7.6h0l.8.7h.2l.6.5h.2l1.4,1c0,.1.1.1.1.2l.6.3h.1l.6.4h.1l.5.3h.1l.4.2h.1l.4.2h1.2c.5-1.7.9-3.3,1.3-4.9s.3-1,.4-1.5.5-2.2.7-3.3a8.3,8.3,0,0,0,.4-1.5c.3-1.4.5-2.7.7-4.1s.1-.4.2-.6l.6-4c0-.5.1-1,.1-1.4s.3-2,.4-3a4.9,4.9,0,0,1,.1-1.2c.1-1.3.2-2.6.2-3.8s0-.1.1-.2v-3.8a3.4,3.4,0,0,0,0-1v-3.7c-.1-2.5-.3-4.8-.6-7a1.3,1.3,0,0,0-.1-.6,25.1,25.1,0,0,0-.4-2.7,1.3,1.3,0,0,0-.1-.6l-.6-3C158.9,109.6,158.3,124.8,152.8,143.8Zm47.8-31.2S192.4,107,189.1,94c1.7,15,10,22.3,12,23.9h0l.4.2h.1l1.5-2.7.3-.6,1.1-2a4.3,4.3,0,0,1,.4-.7l.9-1.9a3,3,0,0,0,.4-.8l.9-1.8.3-.7.9-1.9.3-.6.8-2c.1-.2.2-.3.2-.5,1.1-2.5,2-4.9,2.8-7.2,0-.2.1-.3.1-.4l.6-1.9a1.4,1.4,0,0,0,.2-.7c.2-.5.3-1,.5-1.5l.2-.8c.1-.5.3-.9.4-1.4s.1-.5.2-.8A7.4,7.4,0,0,1,215,86c0-.2.1-.5.1-.8l.3-1.3a2.4,2.4,0,0,0,.2-.8l.3-1.5a4.3,4.3,0,0,0,.1-.5l.3-2c.1-.2.1-.5.2-.8s.1-.7.1-1.1.1-.6.2-1a2.8,2.8,0,0,1,.1-.9,3.4,3.4,0,0,1,.1-1,2.8,2.8,0,0,1,.1-.9v-.9a2.8,2.8,0,0,0,.1-.9,2.8,2.8,0,0,1,.1-.9V68.9c0-.3.1-.6.1-.9V65.5c0-.5-.1-1.1-.1-1.6v-.4a4.9,4.9,0,0,0-.1-1.2v-.4a5.7,5.7,0,0,0-.1-1.3v-.2c0-.5-.1-1-.1-1.4h-.1a49.1,49.1,0,0,0-1.2-7.2C217.6,65.9,215.7,86.4,200.6,112.6Zm56.5-28c-5.8,13.7-17.8,30.2-42.2,43.4-38.5,20.8-86,62.5-73.9,122.4a92.9,92.9,0,0,1-.4-22.9h0a83.6,83.6,0,0,1,1.4-8.5c0-.1.1-.2.1-.4.6-2.6,1.3-5.3,2.1-7.8a1.4,1.4,0,0,1,.2-.7c.8-2.5,1.7-4.9,2.7-7.3l.3-.8c.5-1.2,1-2.3,1.6-3.5h.1l1.5-3.2a4.1,4.1,0,0,0,.5-.9l1.8-3.2.3-.5,1.6-2.7.6-1c.7-1,1.3-2,2-2.9a4.3,4.3,0,0,1,.4-.7l1.7-2.4a3.6,3.6,0,0,0,.7-1l2.2-2.7.6-.8,1.7-2.1.8-1c.8-.8,1.5-1.7,2.3-2.6l.7-.7,1.8-2,.9-.9,2.4-2.4a2.3,2.3,0,0,1,.7-.7l2-2,.8-.7,2.6-2.4.6-.5,2.3-2,.7-.6,2.7-2.3.6-.4,2.5-1.9.6-.5,2.9-2.2.4-.3,2.7-1.9.4-.3,3-2.1.4-.3,2.9-1.8.3-.2,3-1.9h.2l.2-.2,2.3-1.4,1.3-.7,2.4-1.4.4-.2.4-.2,3-1.7c24.4-13.2,36.4-29.7,42.2-43.5l2.3-2.1c.2-.2.4-.3.5-.5a20.9,20.9,0,0,0,2-2.2c.2-.1.3-.3.4-.4l1.5-1.9a2.1,2.1,0,0,0,.4-.6,17.7,17.7,0,0,0,1.6-2.2,2.5,2.5,0,0,1,.4-.7l1.1-1.9.3-.6,1.1-2.2a3,3,0,0,1,.4-.8l.9-2.2c.1-.3.1-.6.2-.8l.6-1.7.3-1,.6-2.1c.1-.4.1-.7.2-1.1l.3-1.5.3-1.3c.1-.6.1-1.1.2-1.7s.1-.8.2-1.2.1-.9.1-1.4.1-1.2.2-1.8V55.2c0-.4.1-.9.1-1.3V50a80.8,80.8,0,0,0-1.8-14C274.6,50.8,273.3,70.6,257.1,84.6Z"/>
    <path class="cls-4" d="M171.5,126.4c4.6-47.5-21.2-68.5-22.5-69.5L134.8,45.8l-6.1,16.9c-15.5,43.2-8.7,68.4,1,82.5L81.6,288H11.2L111.1,12h77.8l7,19.3c-29.3,46-20.6,73.9-11.3,87.5C180.1,121.2,175.7,123.7,171.5,126.4Zm87,77.8c-18.7,28.6-44.2,33.7-57.6,34.2L217.6,288h71.2Z"/>
    <path class="cls-5" d="M258.5,204.2l-10.7-29.5a99,99,0,0,1-16.1,1.3,133.5,133.5,0,0,1-38.9-6.3l-4.4-1.3c-2.9,2.5-5.7,5.2-8.4,8v.5a80.2,80.2,0,0,1,10-.6c13.5,0,28.9,3.1,45.8,9.1l16.9,6.1-11.1,14.2c-.6.8-14.3,17.8-44.4,22.1l3.6,10.6C214.3,237.9,239.8,232.8,258.5,204.2Z"/>
  </g>
</svg>
