<svg id="Layer_2" data-name="Layer 2" xmlns="http://www.w3.org/2000/svg" viewBox="0 0 300 300">
  <defs>
    <style>
      .cls-1 {
        fill: #aad037;
      }

      .cls-2 {
        fill: #773017;
      }

      .cls-3 {
        fill: #62bb46;
      }
    </style>
  </defs>
  <title>1-06</title>
  <g>
    <path class="cls-1" d="M296.1,166.5h0a15.2,15.2,0,0,1-1.9,5.4,14.4,14.4,0,0,1-2.2,2.7h-.1a14.6,14.6,0,0,1-5,2.8h-.8l-2,.4-.9.8V185l-.2.5v-3l-.5.7v-9.7l-.6-.7-1.7-.2h-.7a8.9,8.9,0,0,1-4.2-2.4h-.2a10.2,10.2,0,0,1-1.8-2.3,11,11,0,0,1-1.6-4.7h0l2.4.4a11.2,11.2,0,0,1,6.5,4.9c0,.1.1.2.1.3h0l.2.2h0v.2h0c.1,0,.1.1.1.2h.2v.2h.1v.2h0v.2h.1v.2h.1v.2h0v.2h0a5.2,5.2,0,0,1,.2,1.1l.5.4v-9.5l-.6-.5-1.1-.2h-.4a6.4,6.4,0,0,1-2.9-1.6h-.2a7.6,7.6,0,0,1-1.1-1.4,7.2,7.2,0,0,1-1.1-3.1h0l1.6.2a7.1,7.1,0,0,1,4.3,3.3l.2.2h.5a.1.1,0,0,0,.1.1h.1a1.4,1.4,0,0,1,.2.7l.4.3v-6.5l-.5-.5h-1.4a5.1,5.1,0,0,1-1.6-.9h-.2l-.8-1a7.5,7.5,0,0,1-.6-1.3h0V152h-.1v-.3h0a.4.4,0,0,0-.1-.3h0l1.2.2a4.9,4.9,0,0,1,3,2.3c.1,0,.1.1.2.2h0v.2h.1v.2h.1v.2h0v.2h0l.4.4v-4.6l-.4-.3h-.9a4.1,4.1,0,0,1-1.1-.7h-.2l-.6-.7-.4-.9h0v-.2h0v-.2h0l.8.2a3.1,3.1,0,0,1,2.1,1.6h.5l.3.2v-3h0a3.1,3.1,0,0,1-.5-1,3,3,0,0,1,1-2.6,2.4,2.4,0,0,1,.6,1.1,2.9,2.9,0,0,1-1.1,2.5v3.7l.2-.2h.5a3.3,3.3,0,0,1,2.1-1.6l.8-.2h-.1a3.6,3.6,0,0,1-.4.9l-.5.7h-.2l-1.1.7h-1q-.2,0-.3.3v5.9l.4-.4h0v-.2h0v-.2h0c0-.1,0-.1.1-.2h0v-.2h0v-.2h.1c0-.1,0-.2.1-.2h0l.2-.3a5.5,5.5,0,0,1,3.3-2.5l1.2-.2h0v.2h0v.2h0a.4.4,0,0,1-.1.3h0a3.5,3.5,0,0,1-.6,1.4,12.5,12.5,0,0,1-.9,1.2h-.1a9.4,9.4,0,0,1-2.2,1.2h-.3l-.9.2c-.1,0-.3.3-.5.5v7.6l.5-.5c0-.2.1-.5.1-.8h.2c0-.1,0-.1.1-.1h.1c0-.1,0-.1.1-.1h.2V163h.1v-.2h0c0-.1.1-.1.1-.2a7.6,7.6,0,0,1,4.6-3.5l1.8-.2h0a10.1,10.1,0,0,1-1.2,3.3,4.4,4.4,0,0,1-1.2,1.5h0a.1.1,0,0,1-.1.1h-.1a7.3,7.3,0,0,1-3.1,1.7h-1.6l-.7.7v6.9h0v4.7l.6-.5.3-1.3h0v-.2h.1v-.2h.1v-.6h.1v-.2h0v-.4h0V174h.1c0-.1,0-.2.1-.2v-.2c.1,0,.1-.1.1-.2s.1,0,.1-.1v-.3h.1v-.3a12.7,12.7,0,0,1,7.6-5.7,13.5,13.5,0,0,1,2.9-.4Z"/>
    <path class="cls-2" d="M130.8,175.7Zm2,0h0Zm-5.7-2.2h0Zm5.9,3.6.4-1.7-.4.2Zm-14.9-6h.1a16.5,16.5,0,0,1,.5-3.8,42,42,0,0,1,.7,5.6l.7-2.6v5.2l.6-4v1.2c.1-.8.1-1.2.1-1v.8a39.6,39.6,0,0,1,.6-4.6v9.9h0l.6-2.2.6-3.9v.4l.6-4.2v4.3l.5-1.9v4.9l.2,1.3,1.8-7.8v6.1h0v-.2h0l.4-1.7v2.1l.5-1.3h0a1.3,1.3,0,0,1,.1-.6,4.7,4.7,0,0,1-.9-2.8,5.4,5.4,0,0,1,10.8-.3v.5a1.7,1.7,0,0,1-.1.7l-.2,2.2h.1v1h0c0,.3.1.5.1.8l.4-1.5h0l1.3-4.8-.5,4.8h0l1.3-4v4.9a5.6,5.6,0,0,0,.4-1.2h0c.1-1,.2-1.7.2-1.6v.9h0c.1,0,.1-.1.1-.2h0c.3-2.5.5-4.7.5-4.5s.1,1.3.1,2.8h0c.4-1,.6-1.5.6-1.2s.3,2.2.7,4.2h0l.3-.8c0,.1-.1.8-.1,1.8h0c.1.5.1,1,.2,1.5h0l.2-.3.3-2.4v1.1l1.8-5.3c0,.1-.1,1.8-.2,3.8l.4-1.6-.2,2a13.2,13.2,0,0,0,.4-3.4,13.6,13.6,0,0,0-27.2,0,2.8,2.8,0,0,0,.1.9Zm-81.6,2.2h.1a22.3,22.3,0,0,1-4-12.7,22.7,22.7,0,0,1,45.4,0,22.3,22.3,0,0,1-2.5,10.2v.2a9.5,9.5,0,0,1-1,1.7v-3.4l-.2,3.9-.3.4v-.4h0v.8l-.2.3-.6-4.3v1.4h0v-1.5l-.5,4.9v-1.1l-.2,1.8v.4l-.8-5.3s-.1,1.8-.2,4l-.6-5-.3,6.2-.3-2.4v.9c-.3-2.3-.5-4.3-.5-4.3s-.1,2.9-.3,5.9l-.9-5.7v4.9c-.2-2.6-.3-4.9-.3-4.9l-.8,5.9-.2-.8-.2-.9v.4l-.8-2.9h0v-.4l-.3-.9.2,1.9h0v2.3h0v1.1L63.8,171v1.5l-.2-1.7-.5,5.6-.2-.5h0a17,17,0,0,0-.1-1.9v.8l-.4-4.2-.2,7.4h0c-.2-2-.4-3.6-.4-3.6v1.1h0l-.6-5v1.7h0l-.2-1.6-.6,4.2v-.4l-.3,1.9c-.1-1.2-.2-2.1-.2-2.1v2.4l-1-5.4v3.1h0l-.4-3.4v3.3l-.2,1.9-.2-1.4v2.6l-1.1-4.1h0l-.7-3.2v5.4l-.9-3.4v1.6h0l-.5-3.7-.2,5.4h0v1.4l-.4-3v1.8c-.2-2.1-.4-4-.4-4v2.1h0v1.6l-.7-4.2v7.4h0l-.7-7-.4,2.7a24,24,0,0,1-.5-3.3c0,.8-.1,3.8-.3,6.2-.1-1.1-.3-2-.3-2.4v1.2h-.1v.6h0l-.2-1.7v1l-.4-3.7v-.2l-.2,5.8h0l-.2-1.8v1.6h0v-.3c-.1-1.1-.2-1.8-.2-1.8v1.6h0a22.8,22.8,0,0,1-.4-2.4v1.3l-.9-4.6v2h0l-.5-2.2v7.4h0l-.9-4.2h0l-.4-3.5-.2,6-.4-2v1.4l-.6-3.7v2.1h0l-.4-2.6v6.7l-.6-2.7v1.1l-.3-1.7a27.8,27.8,0,0,1-.5-3.5c-.1.7-.2,3-.3,5.2v.4h0l-.2-1.3v2.4h-.1v-1.5l-.3-2.5h0l-.2-1.8v1.6l-.2-.8v4.2c-.1-.2-.3-.3-.5-.5l-.7-3v1.3l-.7-3.5v3.6a20.3,20.3,0,0,1-1.8-2.3Zm13.4-12.6a5.4,5.4,0,0,0,10.8,0,5.4,5.4,0,0,0-10.8,0ZM130.5,171a1.1,1.1,0,0,0,.9.6,12.7,12.7,0,0,1,.3-2.4c0,.1,0,1.1.1,2.4h.3l.6-1.9a1.1,1.1,0,0,0-1.1-.6,1.3,1.3,0,0,0-1.3,1.3,1.4,1.4,0,0,0,.2.6v0Zm2.4-.6a1.3,1.3,0,0,0-.1-.6v1.1A.7.7,0,0,0,132.9,170.4Zm-77.6-7.5a2.2,2.2,0,0,0,2.2-2.2,2.3,2.3,0,1,0-2.2,2.2ZM35.6,143l-2.2-1.8a31.9,31.9,0,0,1,14.9-9.7c13.4-3.2,20.9,3.3,20.9,3.3-.7-6.4,2.8-9.7,2.8-9.7-2.8-.5-2.8-4.1-2.8-4.1.5-5,4.6-3.9,4.6-3.9,2.9.5,2.9,3.6,2.9,3.6a3.3,3.3,0,0,1-2.1,4c-1,.7.2,1.1.2,1.1,1.5,7.5,4.5,9.3,4.5,9.3l4.5.2,1.5-2.1c-.7-1.7,1.1-1.4,1.1-1.4l2-2.9c1.7-.4.7,1.1.7,1.1l-2.3,2.7,4.6,3.9,1.4-2,29,1.3v-4.8h-1.1l.4-14.8h1.2c.9-7.2-1.6-8.8-1.6-8.8l.5-1.9c3.7,1.4,2.9,10.8,2.9,10.8h.7l-.5,14.7h-1.4v4.8h6.8c13.5-4.3,7.8,8.1,7.8,8.1l-.6,12.6c-17.3-5.4-20,11.5-20,11.5l-7.5-.4c1.4-5.6-3.6-4.1-3.6-4.1l-5.1,3.7H79.8c2.5-22.2-11.1-29.2-11.1-29.2C49.8,125.9,35.6,143,35.6,143Zm39.5-5.3.2,2.6,1.5,1.7h5.4c4,6.6,2.7,16.4,2.7,16.4h1.7v-6.5c-.6.1-1-.7-1-.7a1.8,1.8,0,0,1,.6-2.2,1.6,1.6,0,0,1,2.4.7c.6,2.3-1.4,2.3-1.4,2.3v6.4h13.1c6.2-3.8,0-7.2,0-7.2l-9.4-.4-2.1-10.4,1.4-2.5-4.4-4-.9,1.1c1.9,1.9-.3,2.6-.3,2.6Zm57.7,33.2a2.3,2.3,0,0,1-.7.7l-.3.9v-.9h-.4c-.1,1-.2,2.2-.4,3.4l-.2.7h.8l1.2-.2h0Zm0-1.5v.3a.1.1,0,0,1,.1.1Zm4.2,1v-.3l-1.3,3.2h0c.1-1.5.2-2.6.2-2.7l-1.5,4.4v-1.4l-.6,1.6h0l.2-2.3-.7,2.5a5.1,5.1,0,0,0,3.5-4.1v-.9Zm-9.9,2.8h0v-.1Zm3.4.8v-3h0l-1.3,4-.2-5.6-1.1,4.2.2-2.7-.9,2.5a5.6,5.6,0,0,0,3.6,2.3l-.2-2.3Zm2.3,1.6h.2v-1Z"/>
    <path id="SVGID" class="cls-3" d="M294.7,187.6h0v-1.3h-.8l-.6-2.7-1.1,1.8v-2.7l-.7,3-.2-2.8-1.4,3.4v-3.5s-1,3.4-1.1,3.5h0c0-.1-.1-3.4-.1-3.4l-1.5,3.4-.4-3.6-1.7,3.6H285a36.4,36.4,0,0,1-.5-3.8c-.1-.3-1.4,3-1.4,3v-3l-1.6,2.5-.4-1.8-.8,1.3-.3-2.7-.9,2.9v-2.2l-.6,1.3c-.2-1.4-.6-3.2-.7-3.7s-.7.9-1.2,2.4h0l-1.4,3.1c-.3-1.3-.7-5.2-.7-5.2l-1.8,4.3c-.1-.4-.1-.8-.2-1.2a17,17,0,0,0,.2-3.5c-.1-.2-1,2.4-1.7,4.4v-2.3l-.7,1c.1-1.7.1-3.5-.1-3.6s-1.5,4.5-1.8,5.9l-.5-4h-.1c-.1-.7-.2-1.3-.3-1.7s-.9,1-1.4,2.6a12.6,12.6,0,0,0-.6-2.6c-.1-.3-.3.1-.6.9V179l-1.3,5.6-.3.7.2-6.5-1,2.5a8.9,8.9,0,0,0-.1-1.3l-1.7,3.9-.3-1.3a12.7,12.7,0,0,0,.2-3,5.2,5.2,0,0,0-.6,1.2l-.6-2.7-1.3,4.7a17.3,17.3,0,0,0-.1-3.7,18.6,18.6,0,0,0-1.2,3.6c-.3-2-.5-4.4-.5-4.4l-.7,2.4a4,4,0,0,0-.4-1.3c-.1-.3-.3,0-.5.4l-.3-1.4-.8,1.2v-2.3l-.4,1.2v-.9l-.5,2.2v-2l-1.2,2.7v-2.1l-.2.7v-1.4s-.6,2.3-.9,3.2l-.2-1.1v-2.1l-.3.5v-.3l-.3,1.2-1,2.1-.3-3.6-.6,1.2-.2-1.1a13.2,13.2,0,0,1-.3,1.3l-.2-1.3-.8,1.9c-.1-1-.3-2-.3-2.2a15.1,15.1,0,0,0-1.2,2.7v-1.3h0v-1.5l-.6.8v-1.3l-1.5,3.1h0v-1.4l-.6,1.9h0v-3.6l-.2.6-.2-.8-1.2,4.1a5.9,5.9,0,0,0-.2-1.3l.3-3.3-.6,1.5a14.1,14.1,0,0,0-.6-2.7c-.2-.5-.8,1.2-1.4,2.9v-.4l-.5,1.7h0a3.2,3.2,0,0,1-.1-.8c-.1-.1-.2.2-.4.7h0c-.1-.2-.1-.4-.2-.5h-.1c0-1.3.1-2.2.1-2.2l-.4,1.2-.2-2.3-1.1,2.4v-.4a16,16,0,0,0-.9,2v-1.6a11.9,11.9,0,0,0,.2-2.9,29,29,0,0,0-1.5,3.7v-.9l-.8,2.7h0v-3.6a10.5,10.5,0,0,0-.1-2.3,9.7,9.7,0,0,0-1,2.8,5,5,0,0,0-.3-1.2c-.1-.4-.5.4-.9,1.6h0a11.9,11.9,0,0,0-.6-2.9c-.3-.6-.8,1-1.3,2.7l-.3.6-.2-1.8-.6,1.5-.3-3.8-1,4.4a12,12,0,0,0,.1-2.5c0-.1-.1.1-.2.4h0a1.5,1.5,0,0,1,.1-.6c0-.1-.2.3-.4,1v-3l-2,5.5a22,22,0,0,0,0-3.8,8.7,8.7,0,0,0-.9,2.4h-.1v-2.8l-.2.6-.5-2.4s-.4,1.2-.8,2.7h0c-.2-.3-.4,0-.7.7V176l-.8,2-.3-1.4a1,1,0,0,1-.1.4l-.4-3.8-1.6,5,.3-2.4-.6,1.5h0v-2.7l-.8,2.2h0c-.1-2.3-.1-4.6-.1-4.6l-1,2.8v-.2l-.2.7-1,2.8v-.4h0c.1-1.5.1-2.6.1-2.7l-.4,1.2h0V176h0l-.5-2.1-.5,1.8h0l-.5-3-.6,2.4v-.3l-.3,1.3-.6,2.2v-3.9l-.3,1-.2-1.3s-.2.6-.4,1.5c-.2-1.6-.3-2.9-.3-3.1L205,177c0-2-.1-3.9-.1-3.9l-.6,1.7h0v-.3c0-.3-.2.3-.5,1.4v-4.1l-2.4,4.6c0-1.6-.1-2.7-.1-2.8s-.2.4-.3,1.1h0l-.2-1-.2.9v-.2l-.5,2.1h0l-.6,2.2.7-7.6-1.4,3.4v-.4l-.2.8-.3.9a14.9,14.9,0,0,1-.2-2.3l-1.1,2.3h0v-1.4l-.7,3.5v.2h0c.1-2.8.2-6.8.2-6.8l-1.3,4.7h0v-3.3l-1.1,2.3v-3.6l-1.7,6.2c0-1.7.1-3.1,0-3.5s-.4.9-.8,2.9v-5.7l-1.5,3.5c0-.4-.1-.6-.1-.8s-.2.2-.6,1a6.3,6.3,0,0,0-.1-1.8l-.5,2.3-.8,1.9.7-6.4-1.1,2.7h0c.1-.9.1-1.5.1-1.5l-.4,1.2h.1l-.3,1.1-.3,1.1h0v-1.8l-1,4.7-.2.5.5-4.3-1,2.6h0v-4.8l-.2.5c.1-1.3.1-2.3.1-2.4s-1.1,3.1-2,6V176l-.3,1.3h0a4.1,4.1,0,0,1-.1-1v-4.1l-1.1,2.4v-5l-2.3,7.2h0l.5-4.7s-.3.9-.8,2.1h0v-.9l-.9,2.8c-.1-.6-.1-1-.2-1.4v-4.2l-1.8,6.7v.2h0c.1-2.7.3-5.7.3-5.9a21.8,21.8,0,0,0-1,2.9V174l-.4,1.5h-.1l.3-2.7-.5,2.1-.6-5.3-1.2,5.1-.2-4.2-1.1,3.5v-.8l-.5,2.1-.7-5.7-1.2,6.3v-4.7l-.7,2.9h0a8.3,8.3,0,0,1-.1-1.2c0-.1,0,.4-.1,1.4-.1-2.5-.1-4.8-.2-5s-1.2,4.9-1.9,8.6l-.2-1.6v-2.6l-.2.7h0v-5.1c-.1-.5-.5,1.1-.9,3.2h0l-1.3,5.5-.2.4V173l-.3,2v-2c-.1-.3-.2,0-.3.7-.1-2.7-.1-5.2-.2-5.2l-.9,3.8h0l-.2-1.7-.8,4h0v-.2l-.2.9v-1.2l-.3,1.1a24.5,24.5,0,0,0-.2-3.1V169s-.3,1.9-.8,4.2a23.3,23.3,0,0,0-.2-2.9c0-.2-.9,3.6-1.5,7v-4.7l-.5,2.2v-.7c0-.3-.1.2-.2,1.1v-.8a25.7,25.7,0,0,0,0-4.1c0-.4-.3.7-.6,2.3h0a9.6,9.6,0,0,1-.2-1.7s-.7,2.5-1.3,4.9a16,16,0,0,1-.1-1.7l-.3.7h0v-1l-.2,2.2c-.1-3.1-.1-6.5-.2-6.6s-.8,3.4-1.5,6.6v-1.9h-.1v.2c-.1.1-.1.3-.2.5a56.7,56.7,0,0,1-.9-5.7c-.1-.6-.9,1.7-1.8,4.4v-.7c0-.2,0,.1-.1.7h0s-.2.6-.4,1.5h0a16.9,16.9,0,0,1-.3-2.2c0-.4-.3.3-.7,1.4l.6-5.7-1.2,4.8c-.1-.7-.2-1.2-.2-1.2l-.3,1.2a7.7,7.7,0,0,0-.1-1c-.1-.2-.4,1.5-.6,3.8v.2l-.3-2.2.2-2-.4,1.6c.1-2,.2-3.7.2-3.8l-1.8,5.3v-1.1l-.3,2.4-.2.3h0c-.1-.5-.1-1-.2-1.5h0c0-1,.1-1.7.1-1.8l-.3.8h0c-.4-2-.6-3.7-.7-4.2s-.2.2-.6,1.2h0c0-1.5-.1-2.6-.1-2.8s-.2,2-.5,4.5h0c0,.1,0,.2-.1.2h0V172c0-.1-.1.6-.2,1.6h0a5.6,5.6,0,0,1-.4,1.2v-4.9l-1.3,4h0l.5-4.8-1.3,4.8h0l-.4,1.5c0-.3-.1-.5-.1-.8h0v-1h-.1l.4-3.6-1.4,3.4h0c.1-1.5.2-2.6.2-2.7l-1.5,4.4v-1.4l-.6,1.6h0l.2-2.3-1.1,4.2v-2.5l-.2,1.1v-6.3l-1,3.1c-.1-1.7-.1-3.1-.1-3.3s-.3,2.8-.7,5.8l-.2.7h0l-.2-2.4v-2.6l-1.3,4.2-.2-5.6-1.1,4.2.2-2.7-1,2.6V173c0-.1,0,.2-.1.8h0l-.5,1.3V173l-.4,1.7h0v.2h0v-6.1l-1.8,7.8-.2-1.3v-4.9l-.5,1.9v-4.3l-.6,4.2v-.4l-.6,3.9-.6,2.2h0v-9.9a39.6,39.6,0,0,0-.6,4.6v-.8c0-.2,0,.2-.1,1v-1.2l-.6,4v-5.2l-.7,2.6a42,42,0,0,0-.7-5.6,16.5,16.5,0,0,0-.5,3.8h-.1a34.5,34.5,0,0,0-.7,5.3c-.1-1.3-.2-2.3-.2-2.3a4.1,4.1,0,0,0-.1.9c-.1-2.6-.1-5.4-.1-6s-.2.5-.4,1.9l-.3,1.1h0a8,8,0,0,0-.1-1.1,21.1,21.1,0,0,0-.7,4.3h0v-1.1l-.6,2.2-.5-5h0v-1.2h0l-.2-1.4-.6,4.1v-.3l-.9,6.7V168.8a24,24,0,0,0-.4,3.2h0v-3.2l-1.6,6.2h0c-.2-3.1-.6-6.5-.7-6.8v-.3l-1.5,7.3c-.1-2.4-.2-4.7-.2-5.2a42.5,42.5,0,0,0-.9,5.8h0v.4h0v-1.1c.1-2,.3-3.6.3-3.7s-.4,1.5-.8,3.6l-1-7.2-.2,2.3h0v-.6l-.4,2.5h0v1.1l-.5,3.5h0l-.6-8-.4,2.7v-1.6l-1.4,5.9h0c-.1.2-.1.4-.2.6l-.4-6.2-.7,3.8h0c.2-2.6.4-4.9.4-5s-1,4.7-1.8,8.3h0l-.9-8.5-.5,5.3v-1.5l-.2,2.5-.9-6.1-.2,3.9h0v.2h0l-.5-3.6-.7,4.1h0l-.3-3.9-.8,5.6v-5.8l-.5,3.7H93l-.5,3.1-.3-5.1-.3,1.7h0v.2h0l-.4,2.2-.3-4.5-.5,5.2v-1.4l-.2,1.9h0l-.2-2.9-.3,2.1-.7-5.9-.4,5.5h0a6.7,6.7,0,0,1-.1-1,8.1,8.1,0,0,1-.1.9v-.8l-.4,3.8-.3-2.7v-.1c-.2-2.5-.5-5.1-.5-5.1v1.5l-.2-1.2L85.6,177l-.2-1.4v1.5l-.7-5.3V171l-.2-1.4-.5,4.5v-.7l-.4,3.7-.5-2.3v2.5l-.6-4.8v-.7l-.4-2.7-.2,5.7v.3l-.3-2.2-.2,4.9v-1.1c-.3-2.6-.5-5.4-.5-5.5a11.3,11.3,0,0,0-.1,1.4l-.5-3-.2,5.7-.4-2.6-.2,5.8c-.1-1-.3-2.2-.4-3.4h0c-.2-2.2-.4-4-.4-4v.2c-.2-1.4-.3-2.3-.3-2.3l-.2,6.5h0v.1h0c-.2-1.6-.3-2.8-.3-2.8v.4s-.2,2.9-.3,5.7v-.8c-.2-3.5-.4-8.8-.4-8.8l-.6,3.8h0l-.3-2.6-.3,2.2h0v.4l-.5,4.2h0l-.2-1.1-.2-6.7-.4,6.7c-.1-1.9-.1-3.2-.1-3.2v.4h0v.2l-.2,1.6-.7-5v1.4h0v-1.5l-.5,4.9v-1.1l-.2,1.8v.4l-.8-5.3s-.1,1.8-.2,4l-.6-5-.3,6.2-.3-2.4v.9c-.3-2.3-.5-4.3-.5-4.3s-.1,2.9-.3,5.9l-.9-5.7v4.9c-.2-2.6-.3-4.9-.3-4.9l-.8,5.9-.2-.8-.2-.9v.4l-.8-2.9h0v-.4l-.3-.9.2,1.9h0v2.3h0v1.1L63.8,171v1.5l-.2-1.7-.5,5.6-.2-.5h0a17,17,0,0,0-.1-1.9v.8l-.4-4.2-.2,7.4h0c-.2-2-.4-3.6-.4-3.6v1.1h0l-.6-5v1.7h0l-.2-1.6-.6,4.2v-.4l-.3,1.9c-.1-1.2-.2-2.1-.2-2.1v2.4l-1-5.4v3.1h0l-.4-3.4v3.3l-.2,1.9-.2-1.4v2.6l-1.1-4.1h0l-.7-3.2v5.4l-.9-3.4v1.6h0l-.5-3.7-.2,5.4h0v1.4l-.4-3v1.8c-.2-2.1-.4-4-.4-4v2.1h0v1.6l-.7-4.2v7.4h0l-.7-7-.4,2.7a24,24,0,0,1-.5-3.3c0,.8-.1,3.8-.3,6.2-.1-1.1-.3-2-.3-2.4v1.2h-.1v.6h0l-.2-1.7v1l-.4-3.7v-.2l-.2,5.8h0l-.2-1.8v1.6h0v-.3c-.1-1.1-.2-1.8-.2-1.8v1.6h0a22.8,22.8,0,0,1-.4-2.4v1.3l-.9-4.6v2h0l-.5-2.2v7.4h0l-.9-4.2h0l-.4-3.5-.2,6-.4-2v1.4l-.6-3.7v2.1h0l-.4-2.6v6.7l-.6-2.7v1.1l-.3-1.7a27.8,27.8,0,0,1-.5-3.5c-.1.7-.2,3-.3,5.2v.4h0l-.2-1.3v.9l-.3-2.5h0l-.2-1.8v1.6l-.2-.8v5.7l-1.2-5v1.3l-.7-3.5v6.1l-.8-2.3v-.1l-.4-1.1V176h0v-.6l-.5-2.1v5.2h0v.6l-.2-.5h0l-.2-.4h0v-1.4h0v.9h0l-.2-.5h0v-.3l-.2-1.5-.4-1.8v1.8h0l-.3-.8.3,2v2.4h0l-.9-2.2h0v-.5h0l-.6-1.3h0l-.2-.6v.3h0a5.8,5.8,0,0,0-.1,1.8V179h0c-.1-.2-.2-.4-.3-.4h-.1l-.4-1v-.3h0v-1.4l-.2-1.3v2.1l-.7-1.4c-.2-.2.1,2.3.2,3.8l-.2-.8v-.7l-.2-.6-.2-.9-.2-.7v2.5L29.1,175v3.6h0v-.7l-.3-.9-.2-.5-.3-.7v2.5h0L26.9,175l-.2,2.5h0l-.2-.5v-.2l-.5-1.3.2,1.3v.2l.2,1.3h0v1.5l-1.4-6.7V177a8.7,8.7,0,0,0-.6-1.3c-.1-.1-.2.5-.2,1.3v.6l-.7-3.1s-.1,2.7-.1,4.5h0v-.2c-.1-.2-.1-.4-.2-.5l-.2-.5h0l-.4-2.3-.2,1.1c0-.2-.1-.3-.2-.3s-.1.2,0,.7v.5a.7.7,0,0,0,.1.5l-.2,1.7v-.1h0l-.6-4.2-.4,2h0V177l-.5-1v3.9h0v.4l-.5-4-.4,3-.3-1h-.1V178l-.4-1-.4-1v2.2h0l-.2,1.5v.4c-.1-.1-.1,0-.1.2a3.8,3.8,0,0,0,.1,1l-.3-1v-.5l-.3-1.4v-.2l-.2-1.2-.2-1-.3-1.4v6.1l-.2-.4a.4.4,0,0,1-.1-.3v-.2h-.1l-.3-1.4v-.4l-.2-1.2-.2-.7-.2-.8v.8a1.7,1.7,0,0,1-.1.7v3.2h0a2.3,2.3,0,0,0,0,1.2,5,5,0,0,1-.3-1.2h0a7.8,7.8,0,0,0-.2-1.4,1.3,1.3,0,0,1-.1-.6l-.3-1.2c0-.3,0-.5-.1-.5h0v.5l-.2,1.2v2.1h0l-.2.9v-1l-.2-1.2V177l-.2,1.2-.2.8v1.2h0v0l-.2-1v-2.1l-.2,1v2.1l-.2-.8v2a14.1,14.1,0,0,0-.1,2v1.8a3.5,3.5,0,0,1-.1-.6c-.1-.3-.1-.7-.2-1.2a17.7,17.7,0,0,1-.4-2c0-.2-.1-.3-.1-.4a3.2,3.2,0,0,1-.1-.8h0v1.2l-.2,2-.2,1.2v-1.2l-.3-2v-.3l-.2-.9v0l-.2,1v.2l-.4,2-.2,1.2v0l-.2-1.2-.3-2h0v0H6l-.2,2-.2,1.2h0v1.5H4.9v1.8h-1l6.5,6.3H294.9Zm-55.8-4.9v-.2h0Zm41.8,3.5h0Zm-10.7.1Zm-16.3-4.8-.3.9v-.2h-.1v-.8Zm-2.2,0v.6h-.1v-.6l-.6,1.4v-1.5Zm-3.6.6v-.6h.1Zm0-.6c-.1.2-.1.4-.2.6v-.6Zm-8.8.1h0l-.2.4v-.4Zm-94.6-4.8v2.1h0l-.2.4v-.7Zm-34.8-8.4Zm-44.1,8.2v-1.4l.4,3.1-.3-1.6Zm-49.9,7.9v1.3l-.4-1.1v-.2Zm-2.7,0v0Zm-1.6,0v1.2l-.2-1v-.2Z"/>
  </g>
</svg>
