<svg id="Layer_1" data-name="Layer 1" xmlns="http://www.w3.org/2000/svg" viewBox="0 0 300 300">
  <defs>
    <style>
      .cls-1 {
        fill: #b76928;
      }
    </style>
  </defs>
  <title>1-01</title>
  <path class="cls-1" d="M5.4,196.3V172.8a1.4,1.4,0,0,1,1.1-1.6l69.9-26.3,9.5-3.6c.8-.3,1.1-.1,1.2.7s-2.8,2-4.1,3.1a8.7,8.7,0,0,0-1.5,2.5,4.9,4.9,0,0,1-2.9,2.4l-22.5,8.5L11.8,175.1c-.5.2-.9.4-.9,1.1.1,4.6.1,9.2.1,13.8v.7h3.4c0-.4.1-.7.1-1.1V179.1a1.4,1.4,0,0,1,1.1-1.7l23.1-8.8,34.1-12.9,1-.4a3.3,3.3,0,0,1-2,3.4L17.9,179.2c-.5.2-.9.4-.9,1.1v10c0,.1.1.2.1.4H85.4l-1-1.2h-.1c-.9-1.2-1.2-2.7-2.6-3.6s-.3-.8-.2-1.1a2.1,2.1,0,0,0-.8-2.6,3.9,3.9,0,0,1-1.9-4.3,2.4,2.4,0,0,0-.2-.8c-1.1-1.2-.9-2-.4-3.6a4.3,4.3,0,0,0-.4-3.1c-.5-1.1-.8-2.7-.1-3.7s.2-.9.2-1.5a10.1,10.1,0,0,1,.1-3h.1c1.5-.2,1.2-1.6,1.6-2.4a1.1,1.1,0,0,0-.1-1.1,2.3,2.3,0,0,1,.9-2.9c.7-.2.8-.6.8-1.2a2.6,2.6,0,0,1,1.3-2.7l1.7-1.2a1.6,1.6,0,0,0,1-2c-.3-1,1-1.8,2.3-1.4h.2c.3-1.7,1.7-2,3-2.4l2.3-.8a1.5,1.5,0,0,0,.6-.5,1.6,1.6,0,0,1,2.3-.9l1,.7c.5-1.3,1.5-1.2,2.6-1.2h8.1l6.1.5.2-4.5c5.4-.4,9.8.4,11.9,6.1,1.1,3,2.4,6,3.6,8.9a8.4,8.4,0,0,0,.4,1.2h-2.4a19.5,19.5,0,0,0,.9,2,.9.9,0,0,0,.5.3h7.6v-2.4h-3.3c-1.8,0-1.8,0-2.3-2l21.1-.9v7.1a1.6,1.6,0,0,0,2.4-.7c3.9-6.4,9.8-9.4,17.1-9.9a29.8,29.8,0,0,1,10.3.6c.9.3,1.7.8,2.6,1.2v.5l-1.5.4c-2.2.2-4.5.3-6.8.7a41.4,41.4,0,0,0-4.3,1.3v.5h1.1c3,.1,6-.3,8.9.7.9.3,2,.2,2.3,1.5s.6.2,1,.3l2.3.9c.7.4,1.3.9,1.1,1.9,1.5-.1,2.2.6,2.1,2a1.2,1.2,0,0,0,.4.9,15.6,15.6,0,0,0,2,1.6c.6.6,1.1,1.2.8,2.1s1.2,1.5,2,1.5h12.1a2.4,2.4,0,0,1,2.5,1.5c3.1,6.3,1.4,14.4-4,18.3a8,8,0,0,1-4.5,1.7h-.5l-1.1.9c.4.2.9.7,1.2.6a15.9,15.9,0,0,0,4.4-1.2c4.6-2.4,6.7-6.4,7.4-11.3a16.1,16.1,0,0,0-1.7-9.9,2.5,2.5,0,0,0-.2-.7h2.5c.6,0,.8-.2.8-.8s.1-2,.2-3a1.8,1.8,0,0,0-1.6-2,49.5,49.5,0,0,0-5.4-.6H194v-2.1h14.2l.4-.4a.7.7,0,0,0-.5-.4h-14v-1.7h13.6c.3,0,.6-.3.9-.4s-.6-.4-.9-.4l-12.4-.2h-1.1v-1.6h13.6c.3,0,.6-.3.8-.4a1.2,1.2,0,0,0-.8-.4l-11.8-.2h-1.8v-1.6h13.5a1.8,1.8,0,0,0,.9-.4c-.3-.1-.6-.4-.9-.4l-11.1-.3h-2.2v-1.7h1.5l11.3.4h.8l.6-.5-.7-.4h-1.2l-11.4-.4h-.9v-1.7h1.2l11.8.4a2.8,2.8,0,0,0,1.2-.4l-1.1-.5-11.7-.4c-1.5,0-1.5,0-1.3-1.7h1.1l12,.4h.7l.3-.3a.5.5,0,0,0-.3-.5h-.9l-12.2-.4a1.8,1.8,0,0,1-1.5-.8,12.2,12.2,0,0,0-2.5-2l-2.7-1.3v-.5l2.2-.2a100,100,0,0,1,16.3,2.3,3.9,3.9,0,0,1,3,2.4.8.8,0,0,0,.7.4h1.3l1,.4a3.5,3.5,0,0,1,.4,2.9,1.5,1.5,0,0,1-1.8.9h-1.5v8.7l5.6,1.3c.3.1.5.6.8.8l.9.6a9.3,9.3,0,0,1,2.5,1,5.6,5.6,0,0,1,1.3,1.6c1.2,0,1.6.5,1.6,2.1a1.3,1.3,0,0,0,.4.7l1.9,1.6a2.1,2.1,0,0,1,.9,2c0,.2.1.6.3.6a1.9,1.9,0,0,1,.9,1.9,8,8,0,0,0,1,4.8c.3.5,0,1.3-.1,2a2.5,2.5,0,0,1-.4,3.3,4.7,4.7,0,0,0-.3,2.4c-.1.6.1,1.2-.1,1.7a30,30,0,0,1-1.8,4.1,10.5,10.5,0,0,1-1.5,1.5c.4.9-.8,1.5-1.4,2.5H283V180.6a1.2,1.2,0,0,0-.9-1.4L228.8,159c-1.9-.7-2.2-2.1-2.7-3.7l.8.2,57.5,21.9a1.5,1.5,0,0,1,1.2,1.6c-.1,3.5-.1,7-.1,10.4v1.3H289v-.9c.1-4.5,0-8.9.1-13.4a1.2,1.2,0,0,0-1-1.3l-69.7-26.2-2.8-1.1c1.5-1.4,1.7-3.2,1.7-5.3l7.3,2.8,56.1,21.1,12.9,4.9c.6.2,1,.3,1,1.1v23.4a2,2,0,0,0-.1.5H202.6a14.8,14.8,0,0,1-10.8-4.4,17.1,17.1,0,0,0,2.8-7.3c-1.2,1-1,3-2.9,3-.1,2-1.2,3.2-2.5,3.3s-.8,1.4-1.3,1.7a17.6,17.6,0,0,1-11,3.7c-2.4-.1-4.9-.1-7.3,0-5.3.1-9.5-2.1-13-5.9l-.7-.8c-.8,2.8-3.5,3.6-5.7,4.8a16.8,16.8,0,0,1-7.7,1.8q-5.9.2-11.7,0a16.4,16.4,0,0,1-8.3-2.7c.7-1.6,1.5-3.1,2.3-4.7l-2.5,1c.3,1.1-.7,1.6-1.5,2.2a20.7,20.7,0,0,1-12.7,4.3H5.4Zm82.5-28.6a18.1,18.1,0,0,1,2.3-7.8,16.5,16.5,0,0,1,9.1-7.5,10.4,10.4,0,0,0-5.9,1.9c-4.6,3.3-6.8,8-7.9,13.4.6-7.8,3.4-14.1,11.4-16.8h-.8a13.2,13.2,0,0,0-7.6,4.5c-6,6.7-6.6,18.2-1.4,25.6,2.4,3.4,5.4,5.8,9.6,6.4,5.9.8,10.8-2.8,13.4-7.1v-.2l-.7.7a10.1,10.1,0,0,1-14.2.1c-6-5.3-6.4-16-.9-21.9a10.2,10.2,0,0,1,9.7-3.5l2.2.6v-.4a15,15,0,0,0-3.4-1.1c-4.9-.6-8.6,1.5-11.4,5.3A20.4,20.4,0,0,0,87.9,167.7Zm81.5-6.5c-6.8,1.2-9.9,5.9-11.3,12.2a14.8,14.8,0,0,1,2.4-8.2,13.2,13.2,0,0,1,6.7-5.1h-.9a11.3,11.3,0,0,0-5.8,3.5c-5.1,5.4-5.5,14.8-.9,20.7s13.3,6.5,18.3.2l.7-.9a1.5,1.5,0,0,0-.8.3,8.8,8.8,0,0,1-12-.2c-3.6-3.2-4.7-8.9-2.8-13.7s5.6-6.8,9.8-6.4a20,20,0,0,1,2.4.4,5.2,5.2,0,0,0-4-1.1,11.1,11.1,0,0,0-4,.9,10.7,10.7,0,0,0-3.5,2.5,15.6,15.6,0,0,0-2.3,3.4c-.6,1.2-1,2.6-1.5,3.9C160.7,167.7,163.6,163.4,169.4,161.2Zm-46.2,19.5h9.2a.8.8,0,0,0,.6-.4c.8-2.8,1.7-5.5,2.3-8.4s.5-2.3,2.6-2.9l.9-.2c2.1-.6,2.1-.6,2.2-2.8s.1-2.3-2.2-2.4c-.5,0-1.2,0-1.4-.3s-.9-.5-1.4-.5l-5.2.4h-.7c-1.2-.5-1.3-.5-1.6.7-1.2,3.7-2.3,7.3-3.5,10.9C124.4,176.7,123.8,178.6,123.2,180.7Zm80.5-6.9h-1.3c-1.1,0-2.3.3-3-1.1a1.3,1.3,0,0,0-.9-.4,13.3,13.3,0,0,0-2,0l-.5,2.1a8.8,8.8,0,0,1,.4,2,7.1,7.1,0,0,1-.8,1.9H198a2.1,2.1,0,0,0,2-1.1c.1-.3.6-.5,1-.5a24.3,24.3,0,0,1,2.7,0Zm-92.4-63a9.1,9.1,0,0,1,.1-1.7c.5-2.5.9-3,3.4-3.3,4.8-.6,9.6-1.2,14.5-1.6a68.5,68.5,0,0,1,9.1-.5c3.4,0,6.8.2,10.1.5l13.2,1.8,1.4.4c2.3.7,2.8,1.3,2.8,3.7.1.8-.1,1.4-1.3,1.2l3,23.2h-1.3l-10.9.3c-2.3.2-2.4.5-2.7,2.9s-.1,1.6-1.8,1.6l-25.3-.5a4,4,0,0,1-2.1-.7,10.2,10.2,0,0,0-5.6-1.7l-11.2-.5c-.8,0-1.2-.3-1-1.1v-.9c0-.6.2-.8.7-.8h3.3c.7,0,.9-.2,1-.8l1.5-12.7c.2-2,.4-4.1.7-6.1S113.1,111.5,111.3,110.8Zm36.3,2.3c.2,1.7.3,3.4.5,5s.3,4.1.6,6.2.5,1.5,1.7,1.3a6.5,6.5,0,0,1,5.8,1.7c1.8,1.7,3.7,3.4,5.4,5.2a1.8,1.8,0,0,0,2,.6l-.3-2.6-2.4-15.9c-.1-.8-.3-1.3-1.3-1.3l-6.1-.2Zm-24.8-.4-5.8-.5q-.7,6.3-1.5,12.3c-.4,2.8-.8,5.5,0,8.3.1.3.3.7.4.7h4.7v-.3l-.9-.5c0-1.8,0-1.8,1.6-2C121.8,124.8,122.3,118.9,122.8,112.7Zm2.3.3-.9,12.1,9.7.7a4.9,4.9,0,0,0,.1-1.1l.3-8.8c0-2.2,0-2.2-2.1-2.4Zm16,23.2.3-23.2-3.9.4c-.7.1-1,.4-.9,1.2,0,3.3-.1,6.7,0,10a19.7,19.7,0,0,0,.4,3.5c.4,2.2,1,4.4,1.5,6.6s.4,1.7,2.3,1.6Zm44.3,5.2c-.4,0-1,.6-1.2,1.1a3.1,3.1,0,0,0,0,1.9,2,2,0,0,0,1.3,1.1h5.3v-4.2Zm-55.9.1,22.9.5v-1.7l-22.9,1.1Zm35.3.4h-8.6c-.5,0-.8.1-.7.7v1.2h9.8V142Zm-32.2,7.3v.2l19.5.8v-1.9Zm-.8-2.6h0l20.4.5v-1.7Zm-.7-2.5,21.2.4V143l-21.2,1Zm24.5.9v1.9h6.3V145Zm-27.3,27.9a.8.8,0,0,0-.6.4l-2.1,6.3h4.7c.2,0,.5-.3.6-.5.6-2,1.1-4,1.7-6.2Zm2.9-3.9c-1.9,0-2.5.5-2.9,2.7h2.4c2.5,0,2.5,0,2.9-2.7Z"/>
</svg>
