<svg id="Layer_2" data-name="Layer 2" xmlns="http://www.w3.org/2000/svg" viewBox="0 0 300 300">
  <defs>
    <style>
      .cls-1 {
        fill: #fbd504;
      }

      .cls-1, .cls-2 {
        fill-rule: evenodd;
      }

      .cls-2 {
        fill: #327137;
      }
    </style>
  </defs>
  <title>1-10</title>
  <g>
    <path class="cls-1" d="M11.7,153.2a141,141,0,0,1,282,0v-3.4a141.1,141.1,0,0,0-282.1,0c0,1.1.1,2.3.1,3.4"/>
    <path class="cls-2" d="M225.2,170.4c-42.7-.5-58.2,18-66.3,33.4,0,32.5,3.8,44.4,39,44.8,2,.1,27.3-5.1,39.5,7.7,0,0-11.6-7.1-28.2-4.5,7.2,1.9,16.4,6,22.4,15,0,0-17.1-13.3-31.8-12.4-3.4.2-7,.5-10.8.6h0s21.6-.8,26.4,12.3c-8.6-7.7-16.6-7.3-26.4-8.3s-17-2.6-24.9-9.3c12.3,20.5,38.5,8,47.8,23.9,0,0-12.2-7.2-25.1-6.8,0,0,12.5,9.3,11.7,17.9,0,0-2.5-7.9-17.1-15.3,4.4,4.2,8.6,10.2,7.4,17.1-3.5-10.7-15.8-20.5-26.4-23.9,0,0,19.1,10.1,16.8,23.9-3.7-11.1-10.8-14.7-18.8-20.4l-2.6-2c5.3,6.9,11.9,11.6,8.9,24.7,0,0,1.3-12.9-13-21.3,0,0,1.5,15.7-6.3,19.2,0,0,4-4.6,1.9-19.9-11.9,8.3-10.8,19.9-10.8,19.9-2.3-10.3,1.3-15.5,5.5-20.5-7.9,5.6-15,9.3-18.7,20.3-2.3-13.8,16.8-23.9,16.8-23.9-10.6,3.4-22.9,13.2-26.4,23.9-1.2-6.9,2.9-12.9,7.4-17.1-14.6,7.4-17.1,15.3-17.1,15.3-.8-8.6,11.7-17.9,11.7-17.9-12.9-.4-25.1,6.8-25.1,6.8,9.3-15.9,35.5-3.4,47.8-23.9-7.9,6.7-13.7,8.2-24.9,9.3s-17.8.6-26.4,8.3c4.8-13.1,26.4-12.3,26.4-12.3h0c-3.8-.1-7.4-.4-10.8-.6-14.7-.9-31.8,12.4-31.8,12.4,6-9,15.2-13.1,22.4-15-16.7-2.6-28.2,4.5-28.2,4.5,12.2-12.8,37.5-7.6,39.4-7.7,34.5-.4,40-13.2,40-44.8-8.2-15.4-23.7-33.9-66.3-33.4,0,0,37.3,7.8,52.2,24.7-33.3,12.3-61.7-4.1-77.3-19.9-4.5-4.6-8.8-7-12.9-8.1,39.1-19.4,81.1-9.9,104.5,18-1.9-54.3-49-74.9-49-74.9,20.8,12.1,35.7,44.5,35.7,44.5C76.6,145,80.9,123.8,69.5,94.8c34.4,4,55.5,18.8,68.4,35.9-.2-20.9,7.4-49,44.2-65.6-1.5,23,6.3,37-31.7,56.7,0,0,3.3-26.3,15.2-39.5,0,0-30.2,26.5-16.8,67.2h0a100.4,100.4,0,0,1,3.8,9.9c8.6-26.7,30.1-58.5,83.1-64.6-11.4,29-7.1,50.2-64,59.9,0,0,15-32.4,35.7-44.5,0,0-47.1,20.6-49,75.1,23.4-28.1,65.6-37.6,104.8-18.2-4.1,1.1-8.4,3.5-12.9,8.1-15.7,15.8-44,32.2-77.3,19.9,14.9-16.9,52.2-24.7,52.2-24.7"/>
  </g>
</svg>
