<?xml version="1.0" encoding="utf-8"?>
<!-- Generator: Adobe Illustrator 27.8.1, SVG Export Plug-In . SVG Version: 6.00 Build 0)  -->
<svg version="1.1" xmlns="http://www.w3.org/2000/svg" xmlns:xlink="http://www.w3.org/1999/xlink" x="0px" y="0px"
	 viewBox="0 0 350 230" style="enable-background:new 0 0 350 230;" xml:space="preserve">
<style type="text/css">
	.st0{fill:#F5FFCA;}
	.st1{fill:#FFE8CA;}
	.st2{fill:#CAFFD6;}
	.st3{fill:#CCFDFF;}
	.st4{fill:#FFE4CA;}
	.st5{fill:#FFF5CC;}
	.st6{fill:#C72D2D;}
	.st7{fill:#00030E;}
	.st8{fill:#1A2655;}
	.st9{fill:#001044;}
	.st10{fill:#FFFAD4;}
	.st11{fill:#465EAA;}
	.st12{fill:#C7FEFF;}
	.st13{fill:#003F49;}
	.st14{fill:#8E032B;}
	.st15{fill:#87622B;}
	.st16{fill:#83014C;}
	.st17{fill:#B72204;}
	.st18{fill:#015254;}
	.st19{fill:#5B9C40;}
	.st20{fill:#0055B6;}
	.st21{fill-rule:evenodd;clip-rule:evenodd;fill:#3A1D03;}
	.st22{fill-rule:evenodd;clip-rule:evenodd;fill:#723600;}
	.st23{fill:#00438D;}
	.st24{fill:#162E50;}
	.st25{fill:#F6921E;}
	.st26{fill:#00237A;}
	.st27{fill:#563B00;}
	.st28{fill:#00FFB6;}
	.st29{fill:#9500FF;}
	.st30{fill:#440000;}
	.st31{fill:#45EDFF;}
	.st32{fill:#CC7F7F;}
	.st33{fill-rule:evenodd;clip-rule:evenodd;fill:#FFFFFF;}
	.st34{fill-rule:evenodd;clip-rule:evenodd;fill:#DDBC66;}
	.st35{fill-rule:evenodd;clip-rule:evenodd;fill:#041440;}
	.st36{fill-rule:evenodd;clip-rule:evenodd;fill:url(#SVGID_1_);}
	.st37{fill:#041440;}
	.st38{fill-rule:evenodd;clip-rule:evenodd;fill:url(#SVGID_00000096040024797918146500000008610278272544330154_);}
	.st39{fill-rule:evenodd;clip-rule:evenodd;fill:#A47B3E;}
	.st40{fill:#102D56;}
	.st41{fill:#BA9966;}
	.st42{fill:url(#SVGID_00000031888341526434819330000009808992097604064661_);}
	.st43{fill-rule:evenodd;clip-rule:evenodd;fill:url(#SVGID_00000146459066154792874230000005677008605558530232_);}
	.st44{fill:url(#SVGID_00000174601218972649820310000004269023138670454957_);}
	.st45{fill:#6D1B1B;}
	.st46{fill:#E8C052;}
	.st47{fill:#161314;}
	.st48{fill:#BD6A25;}
	.st49{fill:url(#SVGID_00000053516572169333125340000015072980275557829805_);}
	.st50{fill:#E0902C;}
	.st51{fill:#292F38;}
	.st52{fill:#E3B92E;}
	.st53{fill:#252D35;}
	.st54{fill:#D8A843;}
	.st55{fill:#4D479E;}
</style>
<g id="Layer_1">
</g>
<g id="Layer_2">
</g>
<g id="Layer_3">
</g>
<g id="Layer_4">
</g>
<g id="Layer_5">
</g>
<g id="Layer_6">
</g>
<g id="Layer_7">
</g>
<g id="Layer_8">
</g>
<g id="Layer_9">
</g>
<g id="Layer_10">
</g>
<g id="Layer_11">
</g>
<g id="Layer_12">
</g>
<g id="Layer_13">
</g>
<g id="Layer_14">
</g>
<g id="Layer_15">
	<g>
		<g>
			<path class="st40" d="M188.67,158.88c0.61-1.03,1.26-2.04,1.9-3.06c-0.04-0.05-0.08-0.1-0.12-0.16
				c-5.16,1.47-10.42,2.19-15.78,2.19c-5.36,0-10.63-0.75-15.98-2.25c0.73,1.19,1.34,2.15,1.94,3.13c0.86,1.42,0.37,2.74-1.21,3.3
				c-0.86,0.3-1.73,0.59-2.59,0.89c5.84,1.83,11.8,2.63,17.86,2.64c6.08,0.01,12.05-0.81,17.89-2.57c-0.91-0.38-1.82-0.67-2.72-0.97
				C188.45,161.54,187.92,160.15,188.67,158.88z M139.78,45.23c7.31-4.48,15.11-7.4,23.48-8.79c0.03-0.41,0.09-0.73-0.08-1.1
				c-8.6,1.41-16.59,4.39-24.03,8.97c0.16,0.24,0.26,0.4,0.37,0.55C139.58,44.96,139.66,45.06,139.78,45.23z M198.36,39.72
				c3.89,1.5,7.71,3.15,11.19,5.5c0.31-0.29,0.51-0.55,0.6-0.94c-7.41-4.54-15.35-7.58-23.94-8.91c-0.14,0.36-0.08,0.63-0.02,1.05
				C190.35,37.17,194.42,38.2,198.36,39.72z M212.14,51.33c-1.47-1.73-2.8-3.3-4.14-4.87c-0.09-0.11-0.25-0.19-0.39-0.22
				c-1.98-0.48-3.95-0.95-5.93-1.43c-0.03,0.04-0.06,0.09-0.09,0.13c1.37,1.62,2.75,3.24,4.11,4.85
				C207.8,50.29,209.87,50.78,212.14,51.33z M147.77,44.95c-0.04-0.04-0.07-0.09-0.11-0.13c-2.07,0.49-4.14,0.99-6.16,1.47
				c-1.41,1.66-2.76,3.26-4.26,5.03c2.28-0.54,4.35-1.03,6.43-1.52C145.04,48.18,146.41,46.56,147.77,44.95z M143.93,51.32
				c0.11,0.2,0.18,0.34,0.26,0.47c0.1,0.15,0.18,0.33,0.4,0.41c5.78-3.51,12.04-5.88,18.72-7.18c0-0.34,0-0.59,0-0.83
				c0-0.06-0.04-0.11-0.09-0.27C156.32,45.23,149.9,47.63,143.93,51.32z M186.1,45.01c6.67,1.29,12.93,3.68,18.74,7.2
				c0.3-0.31,0.51-0.56,0.56-0.91c-4.91-3.19-12.91-6.4-19.26-7.35C186.01,44.28,186.05,44.61,186.1,45.01z M133.11,140.38
				c-0.06,0.03-0.12,0.06-0.17,0.09c0.25,1.52,0.54,3.04,0.75,4.57c0.13,0.97,0.45,1.76,1.3,2.34c0.5,0.34,0.89,0.86,1.34,1.28
				c0.6,0.56,1.22,1.1,1.96,1.76c-0.39-2.22-0.75-4.25-1.12-6.34C135.87,142.84,134.36,141.75,133.11,140.38z M234.41,80.61
				c0.57-1.91,0.98-3.77,1.4-5.64c0.04-0.19,0.07-0.38-0.02-0.55c-0.78-1.63-1.57-3.25-2.35-4.87c-0.05,0.01-0.1,0.02-0.15,0.03
				c-0.44,2.02-0.88,4.04-1.32,6.05C232.82,77.37,233.62,78.99,234.41,80.61z M159.58,159.91c-1.14-1.84-2.15-3.47-3.16-5.11
				c-0.12-0.2-0.28-0.33-0.48-0.41c-1.68-0.61-3.36-1.22-5.2-1.88c1.18,1.9,2.26,3.65,3.35,5.42
				C155.86,158.56,157.62,159.2,159.58,159.91z M153.91,158.49c-1.95,0.65-3.89,1.29-5.83,1.93c0,0.06-0.01,0.11-0.01,0.17
				c1.77,0.64,3.53,1.28,5.26,1.91c2.01-0.67,3.95-1.31,6.05-2.01C157.45,159.77,155.68,159.13,153.91,158.49z M146.63,155.52
				c-2.12,0.37-4.09,0.72-6.28,1.11c1.86,1.01,3.51,1.9,5.11,2.77c2.08-0.37,4.08-0.72,6.28-1.1
				C149.89,157.3,148.24,156.4,146.63,155.52z M227.47,60.44c-1.24-1.5-2.42-2.92-3.69-4.45c0,2.19,0,4.22,0,6.21
				c1.27,1.47,2.38,2.97,3.69,4.37C227.47,64.41,227.47,62.4,227.47,60.44z M222.23,60.79c0.02-0.05,0.05-0.09,0.07-0.14
				c-1.39-1.26-2.78-2.51-4.17-3.76c-2.08-0.09-4.11-0.35-6.31-0.36c1.53,1.37,2.91,2.62,4.28,3.85
				C218.16,60.51,220.2,60.65,222.23,60.79z M138.39,145.26c0.68,2,1.06,4.04,1.83,5.96c1.53,1.03,3.06,2.05,4.59,3.08
				c0.04-0.03,0.09-0.06,0.13-0.09c-0.63-1.96-1.25-3.92-1.87-5.87C141.48,147.31,139.94,146.28,138.39,145.26z M152,157.73
				c-0.84-1.95-1.58-3.68-2.31-5.41c-0.1-0.24-0.22-0.45-0.45-0.56c-1.55-0.77-3-1.72-4.6-2.39l0.01-0.01c0,0-0.01,0-0.01,0.01
				c0,0,0,0,0,0c-0.19,0.12-0.05,0.27,0,0.38c0.75,1.76,1.52,3.51,2.28,5.28C148.56,155.91,150.19,156.78,152,157.73z M129.54,143.4
				c-0.95-1.47-2.23-2.35-4.01-2.43c-0.15-0.01-0.3-0.07-0.45-0.1c-1.05-0.22-2.1-0.43-3.37-0.7c1.3,1.58,2.46,2.99,3.68,4.47
				c1.97,0.42,3.93,0.83,6.05,1.28C130.81,144.92,130.07,144.23,129.54,143.4z M133.55,147.04c-2.04-0.2-4.04-0.42-6.12-0.29
				c1.37,1.24,2.73,2.48,4.07,3.69c2.08,0.15,4.09,0.29,6.33,0.44C136.37,149.39,134.89,148.27,133.55,147.04z M221.44,141.5
				c-1.19,1.44-2.34,2.84-3.49,4.23c0.04,0.06,0.08,0.11,0.12,0.17c1.96-0.42,3.92-0.83,5.92-1.26c1.18-1.42,2.36-2.85,3.54-4.27
				c-0.02-0.06-0.04-0.12-0.06-0.18C225.45,140.63,223.43,141.07,221.44,141.5z M217.47,145.37c1.18-1.42,2.36-2.84,3.62-4.34
				c0-1.97,0-4.02,0-6.21c-1.26,1.52-2.43,2.94-3.61,4.36C217.33,141.23,217.36,143.28,217.47,145.37z M131.68,138.97
				c-1.01-1.43-2.22-2.69-3.36-4.13c0,2.17,0,4.19,0,6.17c1.17,1.54,2.43,2.88,3.75,4.46c-0.11-1.91-0.16-3.58-0.16-5.25
				C131.91,139.8,131.96,139.37,131.68,138.97z M144.44,154.76c-1.54-1.03-3.07-2.06-4.6-3.09c-2.07,0.16-4.09,0.31-6.12,0.47
				c-0.01,0.05-0.02,0.1-0.03,0.15c1.51,1.02,3.02,2.04,4.62,3.12c2.05-0.16,4.08-0.32,6.12-0.48
				C144.43,154.88,144.44,154.82,144.44,154.76z M217.31,61.51c1.18,1.43,2.36,2.85,3.54,4.28c1.99,0.42,3.95,0.84,5.92,1.26
				c0.04-0.06,0.09-0.11,0.13-0.17c-1.18-1.42-2.35-2.85-3.51-4.25c-2.04-0.43-4.02-0.85-6.01-1.27
				C217.36,61.41,217.34,61.46,217.31,61.51z M126.93,60.8c2.26-0.15,4.29-0.29,6.34-0.43c1.37-1.24,2.75-2.48,4.12-3.73
				c-0.02-0.05-0.04-0.11-0.06-0.16c-2.09,0.14-4.17,0.28-6.14,0.41C129.75,58.22,128.42,59.44,126.93,60.8z M217.4,54.61
				c-0.71-2.2-1.35-4.19-1.97-6.11c-1.6-1.07-3.12-2.08-4.82-3.21c0.71,2.2,1.34,4.16,1.97,6.1
				C214.16,52.44,215.69,53.47,217.4,54.61z M226.28,135.39c-1,1.55-2.13,3-3.17,4.78c2.16-0.69,4.1-1.3,6.02-1.91
				c1.06-1.57,2.1-3.1,3.14-4.63c-0.03-0.04-0.06-0.09-0.09-0.13C230.22,134.14,228.26,134.77,226.28,135.39z M231.44,73.38
				c0.24-2.03,0.48-4.05,0.73-6.07c-0.98-1.61-1.95-3.18-2.91-4.76c-0.05,0.03-0.1,0.06-0.15,0.08c-0.25,2.03-0.49,4.05-0.73,6.06
				c0.98,1.61,1.94,3.19,2.9,4.76C231.33,73.43,231.38,73.4,231.44,73.38z M131.86,50.37c-0.06-0.01-0.11-0.02-0.17-0.03
				c-1.37,1.24-2.74,2.49-4.12,3.73c-0.34,2.03-0.68,4.05-1.06,6.29c1.55-1.4,2.92-2.64,4.32-3.9
				C131.17,54.44,131.52,52.41,131.86,50.37z M222.62,60.13c0.06-0.03,0.13-0.05,0.19-0.08c-0.34-2.01-0.68-4.03-1.02-6.02
				c-1.4-1.26-2.77-2.48-4.14-3.71c-0.04,0.04-0.09,0.07-0.13,0.11c0.34,2.01,0.68,4.02,1.02,6.03
				C219.91,57.7,221.27,58.91,222.62,60.13z M236.98,106.21c-0.1,1.89-0.19,3.73-0.28,5.57c0.05,0.02,0.1,0.04,0.16,0.06
				c1.34-1.53,2.68-3.05,4.03-4.6c0.1-1.85,0.2-3.71,0.3-5.56c-0.05-0.03-0.1-0.07-0.16-0.1
				C239.67,103.13,238.32,104.68,236.98,106.21z M222,66.98c0.97,1.59,1.94,3.19,2.9,4.76c1.95,0.73,3.85,1.44,5.75,2.15
				c0.04-0.04,0.07-0.09,0.11-0.13c-0.97-1.6-1.94-3.19-2.9-4.77c-1.95-0.72-3.85-1.42-5.76-2.13
				C222.07,66.9,222.04,66.94,222,66.98z M236.37,88.27c0.06,0,0.12,0,0.18,0c0.73-1.9,1.46-3.8,2.18-5.69
				c-0.56-1.79-1.11-3.56-1.67-5.33c-0.06,0.01-0.12,0.01-0.18,0.02c-0.74,1.93-1.48,3.87-2.18,5.72
				C235.28,84.83,235.82,86.55,236.37,88.27z M211.11,55.56c1.88-0.15,3.76-0.3,5.64-0.45c0.02-0.06,0.05-0.12,0.07-0.18
				c-1.51-1.02-3.02-2.04-4.58-3.09c-2,0.15-4.04,0.31-6.08,0.47c1.42,1.16,2.87,2.14,4.33,3.11
				C210.67,55.55,210.89,55.58,211.11,55.56z M126.69,139.65c0.05-0.02,0.11-0.04,0.16-0.06c0.15-2.06,0.3-4.12,0.44-6.11
				c-1.08-1.58-2.11-3.09-3.27-4.8c-0.16,2.28-0.31,4.34-0.46,6.37C124.62,136.62,125.65,138.13,126.69,139.65z M231.62,126.76
				c1.02-0.44,1.88-0.97,2.76-1.49c2.57-1.52,2.58-1.52,3.59-4.34c0.3-0.85,0.71-1.68,0.95-2.7c-1.86,1.14-3.6,2.21-5.39,3.31
				C232.88,123.31,232.25,125.03,231.62,126.76z M227.3,133.63c0.91-1.87,1.72-3.53,2.54-5.22c-0.46-2.07-0.89-4.05-1.38-6.24
				c-0.91,1.88-1.73,3.57-2.54,5.24C226.37,129.45,226.81,131.43,227.3,133.63z M197.85,158.18c0.01,0.06,0.02,0.11,0.03,0.17
				c1.88,0.33,3.77,0.66,5.65,0.99c0.18,0.03,0.38,0.05,0.55-0.04c1.59-0.85,3.17-1.7,4.93-2.65c-2.24-0.4-4.25-0.76-6.26-1.11
				C201.11,156.42,199.48,157.3,197.85,158.18z M136.82,51.38c0.62-1.94,1.25-3.91,1.89-5.89c-0.05-0.03-0.09-0.05-0.14-0.08
				c-1.56,1.05-3.12,2.1-4.63,3.13c-0.63,1.98-1.24,3.88-1.85,5.78c0.05,0.04,0.1,0.07,0.15,0.11
				C133.74,53.42,135.25,52.42,136.82,51.38z M215.86,146.97c-1.47,1.19-2.8,2.51-4.25,3.9c2.16-0.15,4.17-0.29,6.28-0.43
				c1.37-1.24,2.74-2.49,4.1-3.73c-0.02-0.06-0.04-0.11-0.07-0.17C219.9,146.68,217.87,146.83,215.86,146.97z M236.9,103.99
				c-0.09-1.69-0.17-3.38-0.26-5.08c-0.02-0.39-0.2-0.7-0.45-0.99c-1.07-1.21-2.11-2.43-3.18-3.63c-0.14-0.15-0.21-0.48-0.55-0.35
				c0.09,1.86,0.18,3.71,0.27,5.52c1.37,1.57,2.69,3.08,4.01,4.59C236.78,104.02,236.84,104.01,236.9,103.99z M121.01,68.67
				c-0.25-2.02-0.49-4.04-0.74-6.06c-0.06-0.01-0.12-0.02-0.18-0.03c-0.96,1.58-1.92,3.16-2.9,4.75c0.26,2.04,0.51,4.07,0.79,6.32
				C119.08,71.86,120.04,70.28,121.01,68.67z M132.34,55.08c1.36,0.12,2.5,0.13,3.62,0.33c1.88,0.33,3.52,0,4.96-1.31
				c0.63-0.57,1.46-0.9,2.09-1.54c-0.14-0.11-0.23-0.24-0.33-0.25c-1.85-0.17-3.7-0.33-5.53-0.49
				C135.53,52.92,134.03,53.94,132.34,55.08z M230.37,128.64c-0.74,1.62-1.61,3.18-2.28,4.84c-0.11,0.06-0.16,0.14-0.06,0.27
				c0.07-0.03,0.13-0.06,0.2-0.09l0,0c1.77-0.84,3.54-1.68,5.34-2.54c0.8-1.67,1.61-3.35,2.42-5.03c-0.04-0.04-0.09-0.08-0.13-0.12
				C234.04,126.86,232.23,127.74,230.37,128.64z M211.31,150.24c1.37-1.24,2.75-2.48,4.1-3.71c0.35-2.08,0.69-4.11,1.07-6.33
				c-1.55,1.41-2.94,2.68-4.33,3.93c-0.34,2.04-0.67,4.05-1,6.06C211.21,150.21,211.26,150.23,211.31,150.24z M228.68,79.72
				c1.07,1.68,1.22,3.69,1.99,5.43c1.69,1.16,3.36,2.29,5.2,3.55c-0.62-1.98-1.17-3.77-1.73-5.56c-1.6-1.1-3.19-2.19-4.77-3.28
				C229.14,79.7,228.92,79.57,228.68,79.72z M115,80.57c0.82-1.7,1.63-3.39,2.41-5c-0.46-2.07-0.9-4.01-1.33-5.96
				c-0.05,0-0.11-0.01-0.16-0.01c-0.81,1.66-1.61,3.32-2.43,5.01c0.46,2.05,0.9,4.01,1.35,5.97C114.88,80.57,114.94,80.57,115,80.57
				z M231.06,126.56c0.64-1.75,1.28-3.49,1.92-5.26c-0.64-1.93-1.28-3.87-1.92-5.8c-0.06,0.01-0.11,0.01-0.17,0.02
				c-0.64,1.74-1.27,3.48-1.9,5.21c0.64,1.98,1.27,3.91,1.91,5.85C230.95,126.57,231.01,126.57,231.06,126.56z M193.16,154.49
				c-1.12,1.78-2.2,3.51-3.28,5.23c0.05,0.04,0.1,0.08,0.15,0.12c1.73-0.63,3.47-1.26,5.25-1.91c1.1-1.78,2.16-3.49,3.23-5.21
				c-0.04-0.04-0.07-0.08-0.11-0.12C196.63,153.23,194.87,153.87,193.16,154.49z M222.08,133.5c0.15,2.06,0.31,4.1,0.46,6.13
				c0.06,0,0.11,0.01,0.17,0.01c1.03-1.53,2.07-3.06,3.1-4.59c-0.15-2.06-0.31-4.09-0.46-6.12c-0.05,0-0.11-0.01-0.16-0.01
				C224.17,130.41,223.15,131.92,222.08,133.5z M209.21,151.19c0.65-2.04,1.25-3.94,1.86-5.84c-0.05-0.03-0.1-0.05-0.15-0.08
				c-1.54,1.03-3.08,2.06-4.59,3.07c-0.64,1.99-1.26,3.92-1.88,5.86c0.04,0.03,0.08,0.07,0.12,0.1
				C206.12,153.26,207.68,152.22,209.21,151.19z M234.63,119.45c0.05,0.03,0.09,0.05,0.14,0.08c1.56-1.31,3.11-2.62,4.68-3.94
				c0.39-1.89,0.76-3.7,1.18-5.72c-1.75,1.47-3.33,2.8-4.89,4.11C235.36,115.84,234.99,117.65,234.63,119.45z M111.48,116.93
				c1.08,0.76,2.04,1.68,3.06,2.53c0.06-0.05,0.12-0.09,0.18-0.14c-0.36-1.76-0.71-3.51-1.09-5.35c-1.53-1.29-3.11-2.62-4.68-3.94
				c0.09,1.28,0.44,2.44,0.57,3.63C109.67,115.1,110.31,116.1,111.48,116.93z M235.17,113.84c-0.94-1.87-1.85-3.68-2.86-5.68
				c-0.42,2.02-0.8,3.82-1.19,5.7c0.92,1.81,1.85,3.66,2.88,5.69C234.42,117.48,234.8,115.65,235.17,113.84z M121.92,66.62
				c1.26-1.51,2.42-2.9,3.66-4.39c0-1.98,0-4.05,0-6.22c-0.79,0.95-1.47,1.92-2.3,2.72c-1.13,1.08-1.49,2.33-1.38,3.84
				C121.99,63.85,121.92,65.14,121.92,66.62z M204.73,154.92c2.27,0.18,4.32,0.34,6.35,0.5c1.58-1.07,3.11-2.1,4.82-3.26
				c-2.25-0.16-4.28-0.31-6.39-0.47C208,152.71,206.45,153.75,204.73,154.92z M236.11,111.73c0.08-1.64,0.16-3.28,0.25-4.92
				c0.03-0.46-0.07-0.83-0.35-1.2c-0.74-0.99-1.44-2.02-2.16-3.02c-0.33-0.46-0.61-0.96-1.14-1.47c-0.11,2.01-0.2,3.86-0.3,5.68
				c1.2,1.7,2.37,3.36,3.54,5.02C236,111.79,236.05,111.76,236.11,111.73z M111.82,96.02c0.37-1.82,0.74-3.63,1.11-5.44
				c-0.93-1.85-1.85-3.66-2.86-5.68c-0.42,2.04-0.79,3.84-1.18,5.71c0.94,1.85,1.86,3.66,2.78,5.47
				C111.71,96.05,111.77,96.04,111.82,96.02z M190,160.47c1.75,0.58,3.32,1.06,4.85,1.64c0.83,0.31,1.59,0.36,2.4-0.04
				c0.55-0.27,1.17-0.4,1.74-0.64c0.78-0.32,1.61-0.52,2.43-0.98c-2.05-0.68-4.02-1.33-5.95-1.97
				C193.67,159.14,191.92,159.77,190,160.47z M126.2,139.98c-1.04-1.53-2.07-3.06-3.12-4.59c-1.95-0.62-3.88-1.23-5.82-1.84
				c-0.05,0.04-0.09,0.08-0.14,0.12c1.05,1.55,2.1,3.11,3.13,4.62c2,0.63,3.93,1.24,5.86,1.85
				C126.14,140.08,126.17,140.03,126.2,139.98z M112.4,96.16c0.05,0.02,0.1,0.05,0.15,0.07c1.55-1.31,3.11-2.62,4.67-3.94
				c0.37-1.84,0.74-3.66,1.11-5.47c-0.05-0.02-0.1-0.05-0.15-0.07c-1.53,1.29-3.06,2.58-4.66,3.92
				C113.13,92.52,112.76,94.34,112.4,96.16z M111.89,103.89c0.09-1.82,0.19-3.65,0.28-5.49c-1.19-1.66-2.37-3.32-3.55-4.98
				c-0.05,0.02-0.11,0.04-0.16,0.07c-0.09,1.85-0.18,3.7-0.27,5.56c1.19,1.65,2.36,3.29,3.53,4.93
				C111.77,103.95,111.83,103.92,111.89,103.89z M113.02,88.27c0.54-1.73,1.09-3.46,1.65-5.28c-0.74-1.93-1.48-3.83-2.21-5.74
				c-0.06,0.01-0.11,0.03-0.17,0.04c-0.55,1.77-1.1,3.54-1.64,5.28c0.74,1.94,1.47,3.83,2.19,5.71
				C112.9,88.28,112.96,88.27,113.02,88.27z M127.76,65.94c0.32-0.07,0.69-0.05,0.93-0.35c1.12-1.36,2.23-2.71,3.35-4.07
				c-0.04-0.05-0.09-0.1-0.13-0.15c-1.96,0.42-3.93,0.84-5.94,1.28c-1.16,1.41-2.34,2.84-3.52,4.27
				C124.3,66.68,126.03,66.32,127.76,65.94z M113.61,88.41c0.05,0.04,0.1,0.08,0.16,0.12c1.67-1.14,3.34-2.28,5-3.42
				c0.56-1.82,1.11-3.6,1.72-5.58c-1.88,1.29-3.56,2.44-5.27,3.62C114.67,84.95,114.14,86.68,113.61,88.41z M112.67,111.7
				c-0.09-1.84-0.19-3.68-0.28-5.5c-1.36-1.56-2.7-3.1-4.04-4.63c-0.05,0.03-0.1,0.05-0.16,0.08c0.1,1.85,0.19,3.71,0.29,5.6
				c1.33,1.51,2.67,3.02,4,4.54C112.55,111.76,112.61,111.73,112.67,111.7z M235.89,90.73c-1.53-1.33-3.05-2.67-4.65-3.92
				c-0.06,0.03-0.11,0.07-0.17,0.1c0.36,1.77,0.71,3.55,1.08,5.37c1.54,1.3,3.09,2.61,4.64,3.92c0.06-0.04,0.11-0.07,0.17-0.11
				C236.61,94.34,236.26,92.59,235.89,90.73z M197.71,157.57c1.47-0.79,2.94-1.58,4.42-2.36c0.3-0.16,0.45-0.4,0.57-0.7
				c0.68-1.59,1.36-3.18,2.05-4.77c0.07-0.16,0.21-0.33-0.09-0.52c-1.48,1.04-3.19,1.76-4.79,2.71c-0.8,1.85-1.6,3.71-2.4,5.58
				C197.6,157.55,197.67,157.59,197.71,157.57z M121.4,133.61c-0.79-1.64-1.59-3.28-2.4-4.97c-1.82-0.88-3.65-1.77-5.49-2.66
				c-0.04,0.06-0.07,0.12-0.11,0.18c0.81,1.67,1.62,3.33,2.4,4.94c1.88,0.91,3.68,1.78,5.47,2.66
				C121.32,133.72,121.36,133.66,121.4,133.61z M118.5,126.5c0.63-1.92,1.27-3.84,1.9-5.76c-0.64-1.74-1.28-3.47-1.92-5.2
				c-0.06,0-0.13-0.01-0.19-0.01c-0.63,1.92-1.26,3.85-1.89,5.79c0.64,1.73,1.28,3.46,1.92,5.19
				C118.37,126.51,118.43,126.51,118.5,126.5z M123.44,127.37c-0.78-1.61-1.61-3.31-2.43-5c-0.05,0.02-0.1,0.04-0.16,0.06
				c-0.44,1.99-0.87,3.97-1.31,5.98c0.84,1.73,1.64,3.39,2.54,5.24C122.55,131.46,122.98,129.47,123.44,127.37z M118.67,73.68
				c0.04,0.06,0.08,0.11,0.12,0.17c1.89-0.7,3.79-1.41,5.69-2.12c0.89-1.63,2.02-3.11,2.92-4.93c-1.74,0.65-3.26,1.28-4.83,1.76
				c-0.75,0.23-1.21,0.61-1.58,1.26C120.24,71.13,119.44,72.4,118.67,73.68z M115.52,119.32c0.5-1,0.91-2.05,1.51-2.98
				c1.08-1.65,1.35-3.32,0.67-5.18c-0.23-0.63-0.29-1.33-0.44-2c-0.06-0.26,0.06-0.58-0.32-0.78c-0.91,1.83-1.83,3.66-2.73,5.47
				c0.39,1.86,0.76,3.67,1.14,5.49C115.41,119.34,115.47,119.33,115.52,119.32z M117.64,126.86c0.04-0.04,0.08-0.08,0.12-0.13
				c-0.64-1.74-1.27-3.47-1.92-5.22c-1.74-1.06-3.48-2.12-5.21-3.18c-0.05,0.04-0.1,0.07-0.15,0.11c0.65,1.72,1.3,3.45,1.96,5.17
				c0.1,0.26,0.29,0.51,0.57,0.56c0.45,0.08,0.78,0.36,1.15,0.58C115.32,125.44,116.48,126.16,117.64,126.86z M236.54,91.02
				c0.32,1.54,0.64,3.07,0.97,4.69c0.25-0.24,0.51-0.39,0.64-0.62c0.8-1.47,1.56-2.95,2.36-4.47c-0.39-1.89-0.76-3.7-1.18-5.73
				c-0.98,1.95-1.86,3.68-2.74,5.41C236.46,90.53,236.49,90.77,236.54,91.02z M112.73,103.97c1.32-1.51,2.63-3.02,3.93-4.51
				c0.06-1.9,0.27-3.75,0.22-5.76c-1.47,1.69-2.83,3.25-4.12,4.74c-0.06,1.91-0.26,3.69-0.21,5.47
				C112.61,103.93,112.67,103.95,112.73,103.97z M116.69,107.2c0.23-0.32,0.25-0.67,0.23-1.06c-0.09-1.63-0.16-3.27-0.24-4.9
				c-0.06-0.02-0.12-0.03-0.18-0.05c-1.19,1.68-2.38,3.36-3.56,5.03c0.24,1.85,0.13,3.68,0.42,5.67
				C114.55,110.22,115.63,108.71,116.69,107.2z M237.21,98.47c0.09,1.8,0.19,3.66,0.3,5.73c1.32-1.86,2.5-3.52,3.7-5.2
				c-0.1-1.64-0.2-3.27-0.3-4.91C240.07,94.16,239.66,94.64,237.21,98.47z M163.27,39.36c-5.17,0.9-10.06,2.39-14.77,4.5
				c0.12,0.4,0.33,0.66,0.62,0.94c4.52-2.02,9.25-3.43,14.15-4.32C163.27,40.1,163.27,39.8,163.27,39.36z M200.31,44.81
				c0.22-0.34,0.4-0.61,0.62-0.93c-4.78-2.15-9.67-3.63-14.74-4.5c-0.21,0.4-0.17,0.72-0.02,1.1C191,41.37,195.7,42.77,200.31,44.81
				z M233.76,80.76c-0.37-1.05-1.01-1.99-1.39-3.04c-0.5-1.4-1.42-2.29-2.82-2.82c-1.25-0.48-2.43-1.15-3.64-1.74
				c-0.04,0.04-0.07,0.08-0.11,0.12c0.82,1.68,1.63,3.37,2.45,5.05c1.81,0.87,3.6,1.73,5.39,2.59c0.07,0.04,0.14,0.08,0.21,0.01
				C233.89,80.83,233.84,80.79,233.76,80.76z M144.52,149.28c-0.02,0.11,0.01,0.17,0.12,0.09
				C144.62,149.3,144.59,149.27,144.52,149.28z M123.52,73.2c-0.09-0.05-0.14,0.01-0.18,0.08c-1.85,0.78-3.62,1.72-5.42,2.59
				c-0.81,1.69-1.6,3.36-2.4,5.02c0.05,0.03,0.1,0.06,0.15,0.08c1.83-0.89,3.66-1.79,5.47-2.67c0.8-1.66,1.58-3.27,2.36-4.89
				c0,0,0,0,0,0C123.55,73.35,123.58,73.28,123.52,73.2z M174.7,154.31c-29.7,0-53.86-24.16-53.86-53.86S145,46.59,174.7,46.59
				s53.86,24.16,53.86,53.86S204.4,154.31,174.7,154.31z M174.7,48.07c-28.88,0-52.38,23.5-52.38,52.38
				c0,28.88,23.5,52.38,52.38,52.38c28.88,0,52.38-23.5,52.38-52.38C227.08,71.57,203.58,48.07,174.7,48.07z"/>
			<path class="st41" d="M182.37,34.78l-4.61-0.67c-0.2-0.03-0.37-0.15-0.46-0.33l-2.06-4.17c-0.22-0.45-0.87-0.45-1.1,0l-2.06,4.17
				c-0.09,0.18-0.26,0.31-0.46,0.33l-4.61,0.67c-0.5,0.07-0.7,0.69-0.34,1.04l3.33,3.25c0.14,0.14,0.21,0.34,0.18,0.54l-0.79,4.59
				c-0.09,0.5,0.44,0.88,0.89,0.64l4.12-2.16c0.18-0.09,0.39-0.09,0.57,0l4.12,2.17c0.45,0.24,0.97-0.15,0.89-0.64l-0.79-4.59
				c-0.03-0.2,0.03-0.4,0.18-0.54l3.33-3.25C183.07,35.47,182.87,34.85,182.37,34.78z M205.86,78.83c1.6-0.25,3.18-0.57,4.74-1.01
				c0.79-0.22,1.59-0.4,2.42-0.78c-1.18-0.17-2.28-0.14-3.38-0.19c-3.24-0.16-6.45-0.48-9.6-1.34c-0.98-0.27-1.96-0.52-2.95-0.77
				c-2.06-0.51-4.13-0.92-6.26-0.99c-1.47-0.05-2.93,0.01-4.39,0.24c-1.39,0.22-2.73,0.59-4.05,1.08c-1.88,0.69-3.56,1.74-5.12,2.98
				c-0.36,0.28-0.75,0.55-1,0.99c1.5,1.83,2.64,3.85,3.62,6.07c0.71-0.88,1.38-1.61,2.14-2.27c2.82-2.46,6.17-3.56,9.84-3.79
				c2.08-0.13,4.17-0.07,6.25,0.1C200.72,79.35,203.3,79.22,205.86,78.83z M173.48,125.04c-0.31-1.52-0.56-3.05-0.73-4.59
				c-0.12-1.13-0.2-2.26-0.26-3.39c-0.07-1.34-0.08-2.67-0.04-4c0.07-2.17,0.23-4.33,0.49-6.48c0.16-1.31,0.35-2.61,0.53-3.91
				c0.09-0.62,0.33-1.22,0.15-1.87c-0.22-0.84-0.36-1.69-0.55-2.54c-0.58-2.57-1.34-5.09-2.37-7.52c-0.22-0.53-0.43-1.08-0.8-1.64
				c-0.09,0.2-0.15,0.32-0.2,0.44c-0.38,0.88-0.56,1.81-0.81,2.73c-0.83,3.05-1.24,6.18-1.36,9.33c-0.08,2-0.08,4,0.06,6
				c0.09,1.35,0.18,2.69,0.36,4.03c0.29,2.22,0.73,4.4,1.37,6.54c0.44,1.47,0.94,2.91,1.55,4.32c0.68,1.57,1.47,3.1,2.37,4.57
				c0.29,0.48,0.58,0.97,0.96,1.45c0.06-0.22,0.02-0.37-0.02-0.51C173.87,127.03,173.68,126.03,173.48,125.04z M181.32,96.16
				c-0.14-1.12-0.38-2.22-0.66-3.32c-0.4-1.57-0.82-3.14-1.47-4.63c-0.11-0.34-0.21-0.69-0.42-0.99c-0.4-1.12-0.97-2.16-1.59-3.17
				c-0.01-0.02-0.02-0.04-0.04-0.06c-0.15-0.31-0.31-0.61-0.54-0.87c-0.18-0.34-0.39-0.65-0.64-0.93c-0.14-0.29-0.34-0.53-0.56-0.76
				c-0.01-0.02-0.03-0.04-0.05-0.05c-0.22-0.34-0.48-0.64-0.76-0.93c-0.02-0.03-0.04-0.05-0.06-0.07c-0.17-0.18-0.3-0.41-0.52-0.53
				c-0.02-0.02-0.05-0.05-0.07-0.07c0.01-0.02,0-0.04-0.02-0.04c-0.02-0.03-0.04-0.05-0.06-0.07c-0.27-0.36-0.61-0.64-0.96-0.92
				c-0.08-0.08-0.16-0.15-0.24-0.23c-0.19-0.27-0.5-0.39-0.74-0.59c-0.16-0.13-0.32-0.27-0.48-0.4c-0.31-0.22-0.59-0.49-0.96-0.62
				c-0.59-0.48-1.25-0.83-1.95-1.1c-0.21-0.18-0.45-0.27-0.7-0.36c-0.24-0.15-0.51-0.26-0.78-0.34c-0.46-0.19-0.9-0.43-1.42-0.39
				c-0.04-0.2-0.2-0.21-0.36-0.2l-0.04-0.01c-1.65-0.53-3.36-0.73-5.09-0.78c-2.05-0.06-4.08,0.2-6.08,0.62
				c-0.83,0.18-1.68,0.31-2.47,0.63c-0.02,0.01-0.03,0.02-0.04,0.03c-0.17-0.02-0.32,0.02-0.49,0.06c-0.73,0.19-1.47,0.35-2.19,0.56
				c-0.48,0.14-1,0.15-1.46,0.39c-0.09,0.11-0.2,0.12-0.32,0.08c-0.04-0.08-0.1-0.05-0.17-0.04c-0.75,0.14-1.5,0.26-2.26,0.36
				c-1.14,0.14-2.28,0.26-3.43,0.33c-1.36,0.08-2.72,0.22-4.09,0.19c-0.28-0.01-0.57,0.02-0.85,0.02c0.23,0.22,0.49,0.12,0.65,0.18
				c0.69,0.42,1.38,0.6,2.1,0.71l0.03,0.03c0.55,0.15,1.1,0.34,1.68,0.38l0.03,0.01c0.59,0.21,1.21,0.28,1.82,0.39
				c0.52,0.09,1.02,0.25,1.56,0.17c0.44,0.1,0.89,0.11,1.34,0.15c0.15,0.17,0.36,0.14,0.55,0.16c1.71,0.14,3.42,0.13,5.13-0.01l0,0
				c0.05,0,0.1-0.01,0.15-0.01c0.98-0.04,1.96-0.07,2.94-0.12c1.61-0.09,3.22,0.01,4.82,0.21c1.33,0.17,2.62,0.54,3.89,0.96
				c0.01,0.02,0.03,0.03,0.05,0.03c0.99,0.4,1.92,0.92,2.84,1.45c0.02,0.02,0.05,0.04,0.08,0.06c0.2,0.18,0.42,0.35,0.67,0.46
				c0.04,0.03,0.07,0.06,0.11,0.1c0.04,0.09,0.12,0.13,0.21,0.16l0.03,0.02c0.16,0.14,0.31,0.27,0.47,0.41
				c0.03,0.03,0.07,0.06,0.1,0.09c0.09,0.13,0.2,0.23,0.35,0.31c0.02,0.02,0.03,0.04,0.06,0.06c0.01,0.03,0.02,0.04,0.05,0.04
				c0.01,0.02,0.03,0.03,0.05,0.05c0.08,0.08,0.16,0.17,0.24,0.25c0.02,0.03,0.04,0.05,0.06,0.07c0,0.03,0.01,0.04,0.04,0.04
				c0.02,0.02,0.03,0.04,0.06,0.05c0.13,0.22,0.31,0.38,0.5,0.55c0.03,0.04,0.07,0.07,0.1,0.11c0.1,0.14,0.17,0.29,0.31,0.39
				c0.03,0.03,0.06,0.07,0.09,0.1c0.02,0.03,0.05,0.06,0.07,0.08c0.01,0.02,0.03,0.04,0.05,0.06c-0.01,0.03,0.01,0.04,0.03,0.05
				c0.02,0.02,0.04,0.05,0.06,0.07c0.05,0.14,0.15,0.24,0.26,0.34c0.01,0.02,0.02,0.03,0.04,0.04c0.49,0.78,0.98,1.56,1.48,2.34
				c0.01,0.02,0.02,0.05,0.04,0.07c0.22,0.43,0.45,0.85,0.67,1.28c0.06,0.26,0.21,0.49,0.31,0.73c1.88,4.25,2.91,8.73,3.62,13.29
				c0.21,1.4,0.38,2.8,0.53,4.2c0.17,1.61,0.28,3.21,0.36,4.83c0.08,1.57,0.05,3.13,0,4.7c-0.02,0.66-0.05,1.33-0.12,1.99
				c-0.13,1.22-0.26,2.44-0.46,3.66c-0.2,1.19-0.41,2.38-0.68,3.57c-0.17,0.77-0.36,1.54-0.55,2.3c0.42-0.54,0.84-1.07,1.13-1.67
				c0.02-0.01,0.03-0.03,0.04-0.05c0.16-0.19,0.27-0.41,0.36-0.63c0.02-0.02,0.04-0.05,0.05-0.07c0.11-0.13,0.19-0.28,0.24-0.45
				c0.02-0.01,0.03-0.03,0.03-0.05c0.13-0.17,0.23-0.35,0.3-0.56c0.03-0.06,0.05-0.11,0.08-0.17c0.14-0.18,0.25-0.37,0.3-0.6
				c0.02-0.03,0.04-0.06,0.06-0.09c0.77-1.57,1.48-3.16,1.95-4.85c0.23-0.57,0.43-1.14,0.51-1.76c0.33-0.64,0.42-1.35,0.57-2.04
				c0.13-0.59,0.36-1.18,0.3-1.81c0.02-0.02,0.04-0.04,0.05-0.06c0.07-0.41,0.25-0.81,0.15-1.24c0.02-0.02,0.04-0.04,0.05-0.06
				c0.17-0.47,0.16-0.98,0.24-1.47c0.05-0.55,0.14-1.09,0.14-1.64c0.1-0.19,0.12-0.39,0-0.58c0.14-0.34,0.09-0.69,0.07-1.05
				c0.09-0.18,0.11-0.37,0.12-0.57c0.09-1.82,0.08-3.63,0.01-5.45C181.81,99.8,181.56,97.98,181.32,96.16z M167.66,71.5
				c0.15,0.36,0.32,0.7,0.6,0.98c0.05,0.2,0.17,0.35,0.34,0.46c0.06,0.16,0.15,0.29,0.3,0.38c0.92,1.06,2.06,1.78,3.42,2.14
				c0.45,0.17,0.93,0.18,1.4,0.19c1.45,0.05,2.78-0.33,3.96-1.2c0.31-0.19,0.61-0.4,0.84-0.69c0.31-0.22,0.57-0.49,0.76-0.83
				c0.49-0.52,0.84-1.14,1.11-1.8c1.12-2.44,1.16-4.92,0.24-7.44c-0.01-0.03-0.02-0.06-0.05-0.08c0-0.16-0.07-0.31-0.17-0.43
				c-0.18-0.48-0.43-0.93-0.79-1.31c-0.14-0.46-0.49-0.76-0.81-1.08c-0.45-0.47-0.9-0.95-1.55-1.14c0.03-0.22-0.17-0.22-0.29-0.29
				c-2.44-1.31-5.2-0.93-7.29,0.81c-0.97,0.81-1.74,1.78-2.19,2.98c-0.1,0.05-0.12,0.16-0.15,0.25c-0.67,1.7-0.91,3.46-0.61,5.27
				C166.89,69.67,167.15,70.63,167.66,71.5z M188.79,142.3h-27.79c-0.45,0-0.82-0.37-0.82-0.82v-4.21c0-0.45,0.37-0.82,0.82-0.82
				h27.79c0.45,0,0.82,0.37,0.82,0.82v4.21C189.61,141.93,189.24,142.3,188.79,142.3z M186.75,134.02h-23.72
				c-0.21,0-0.37-0.17-0.37-0.37v-1.91c0-0.21,0.17-0.37,0.37-0.37h23.72c0.21,0,0.37,0.17,0.37,0.37v1.91
				C187.12,133.86,186.96,134.02,186.75,134.02z M220.76,100c-0.14,0.44-0.31,0.86-0.51,1.27c-0.01,0.02-0.02,0.05-0.04,0.07
				c-1.68,3.44-5.21,5.82-9.3,5.82c-4.14,0-7.71-2.43-9.36-5.94c-0.01-0.03-0.03-0.06-0.04-0.08c-0.17-0.37-0.32-0.75-0.44-1.13
				L220.76,100L220.76,100z M218.84,97.97l-7.97-19.55l-7.97,19.55l-0.74,1.82c0.01,0.04,0.02,0.09,0.04,0.13l0.91-1.95l6.97-15
				l0.8,18.57l0.8-18.57l6.97,15l1,2.15c0.01-0.04,0.02-0.08,0.03-0.12L218.84,97.97z M210.87,81.26l-0.1,0.22L210.87,81.26
				l0.58,1.24L210.87,81.26z M148.32,100c-0.14,0.44-0.31,0.86-0.51,1.27c-0.01,0.02-0.02,0.05-0.04,0.07
				c-1.68,3.44-5.21,5.82-9.3,5.82c-4.14,0-7.71-2.43-9.36-5.94c-0.01-0.03-0.03-0.06-0.04-0.08c-0.17-0.37-0.32-0.75-0.44-1.13
				L148.32,100L148.32,100z M146.41,97.97l-7.97-19.55l-7.97,19.55l-0.74,1.82c0.01,0.04,0.02,0.09,0.04,0.13l0.91-1.95l6.97-15
				l0.8,18.57l0.8-18.57l6.97,15l1,2.15c0.01-0.04,0.02-0.08,0.03-0.12L146.41,97.97z M138.44,81.26l-0.1,0.22L138.44,81.26
				l0.58,1.24L138.44,81.26z"/>
		</g>
	</g>
</g>
</svg>
