<?xml version="1.0" encoding="utf-8"?>
<!-- Generator: Adobe Illustrator 27.8.1, SVG Export Plug-In . SVG Version: 6.00 Build 0)  -->
<svg version="1.1" xmlns="http://www.w3.org/2000/svg" xmlns:xlink="http://www.w3.org/1999/xlink" x="0px" y="0px"
	 viewBox="0 0 350 230" style="enable-background:new 0 0 350 230;" xml:space="preserve">
<style type="text/css">
	.st0{fill:#F5FFCA;}
	.st1{fill:#FFE8CA;}
	.st2{fill:#CAFFD6;}
	.st3{fill:#CCFDFF;}
	.st4{fill:#FFE4CA;}
	.st5{fill:#FFF5CC;}
	.st6{fill:#C72D2D;}
	.st7{fill:#00030E;}
	.st8{fill:#1A2655;}
	.st9{fill:#001044;}
	.st10{fill:#FFFAD4;}
	.st11{fill:#465EAA;}
	.st12{fill:#C7FEFF;}
	.st13{fill:#003F49;}
	.st14{fill:#8E032B;}
	.st15{fill:#87622B;}
	.st16{fill:#83014C;}
	.st17{fill:#B72204;}
	.st18{fill:#015254;}
	.st19{fill:#5B9C40;}
	.st20{fill:#0055B6;}
	.st21{fill-rule:evenodd;clip-rule:evenodd;fill:#3A1D03;}
	.st22{fill-rule:evenodd;clip-rule:evenodd;fill:#723600;}
	.st23{fill:#00438D;}
	.st24{fill:#162E50;}
	.st25{fill:#F6921E;}
	.st26{fill:#00237A;}
	.st27{fill:#563B00;}
	.st28{fill:#00FFB6;}
	.st29{fill:#9500FF;}
	.st30{fill:#440000;}
	.st31{fill:#45EDFF;}
	.st32{fill:#CC7F7F;}
	.st33{fill-rule:evenodd;clip-rule:evenodd;fill:#FFFFFF;}
	.st34{fill-rule:evenodd;clip-rule:evenodd;fill:#DDBC66;}
	.st35{fill-rule:evenodd;clip-rule:evenodd;fill:#041440;}
	.st36{fill-rule:evenodd;clip-rule:evenodd;fill:url(#SVGID_1_);}
	.st37{fill:#041440;}
	.st38{fill-rule:evenodd;clip-rule:evenodd;fill:url(#SVGID_00000060028473754029007760000011855664880150155705_);}
	.st39{fill-rule:evenodd;clip-rule:evenodd;fill:#A47B3E;}
	.st40{fill:#102D56;}
	.st41{fill:#BA9966;}
	.st42{fill:url(#SVGID_00000090271412265867522670000010250952200743080342_);}
	.st43{fill-rule:evenodd;clip-rule:evenodd;fill:url(#SVGID_00000054974423583447019490000017019440417596565404_);}
	.st44{fill:url(#SVGID_00000008863335007928693070000017226496741208928644_);}
	.st45{fill:#6D1B1B;}
	.st46{fill:#E8C052;}
	.st47{fill:#161314;}
	.st48{fill:#BD6A25;}
	.st49{fill:url(#SVGID_00000022526436269337901220000005296589344939033243_);}
	.st50{fill:#E0902C;}
	.st51{fill:#292F38;}
	.st52{fill:#E3B92E;}
	.st53{fill:#252D35;}
	.st54{fill:#D8A843;}
	.st55{fill:#4D479E;}
</style>
<g id="Layer_1">
</g>
<g id="Layer_2">
</g>
<g id="Layer_3">
</g>
<g id="Layer_4">
</g>
<g id="Layer_5">
</g>
<g id="Layer_6">
</g>
<g id="Layer_7">
</g>
<g id="Layer_8">
</g>
<g id="Layer_9">
</g>
<g id="Layer_10">
</g>
<g id="Layer_11">
</g>
<g id="Layer_12">
</g>
<g id="Layer_13">
</g>
<g id="Layer_14">
</g>
<g id="Layer_15">
	<g>
		<path class="st34" d="M126.48,48.52c27.13-27.13,71.13-27.13,98.26,0s27.13,71.13,0,98.26s-71.13,27.13-98.26,0
			S99.34,75.66,126.48,48.52z"/>
		<path class="st33" d="M128.38,50.42c26.09-26.09,68.38-26.09,94.46,0s26.09,68.38,0,94.46s-68.38,26.09-94.46,0
			S102.29,76.51,128.38,50.42z"/>
		<radialGradient id="SVGID_1_" cx="175.6109" cy="97.656" r="64.8086" gradientUnits="userSpaceOnUse">
			<stop  offset="0" style="stop-color:#FFFFFF"/>
			<stop  offset="0.1222" style="stop-color:#FBFBFC"/>
			<stop  offset="0.2482" style="stop-color:#EEF0F2"/>
			<stop  offset="0.376" style="stop-color:#DADCE3"/>
			<stop  offset="0.5051" style="stop-color:#BDC1CD"/>
			<stop  offset="0.6352" style="stop-color:#989EB0"/>
			<stop  offset="0.7661" style="stop-color:#6A738D"/>
			<stop  offset="0.8952" style="stop-color:#354265"/>
			<stop  offset="1" style="stop-color:#041440"/>
		</radialGradient>
		<path class="st36" d="M176.12,32.85c2.5,0.02,4.96,0.18,7.38,0.47l-7.38,56.54V32.85L176.12,32.85z M184.5,33.45l-7.4,56.68
			l14.8-55.22C189.48,34.28,187.01,33.8,184.5,33.45L184.5,33.45z M192.88,35.17l-14.76,55.09l21.77-52.72
			C197.61,36.62,195.27,35.83,192.88,35.17L192.88,35.17z M200.82,37.93L179,90.78l28.58-49.51
			C205.4,40.03,203.15,38.91,200.82,37.93L200.82,37.93z M208.46,41.77l-28.51,49.39l34.66-45.28
			C212.64,44.4,210.59,43.03,208.46,41.77L208.46,41.77z M215.41,46.5l-34.74,45.38l40.41-40.41
			C219.29,49.71,217.4,48.05,215.41,46.5L215.41,46.5z M221.8,52.19L181.48,92.5l45.2-34.76C225.16,55.8,223.53,53.94,221.8,52.19
			L221.8,52.19z M227.29,58.54l-45.31,34.85l49.51-28.58C230.21,62.64,228.81,60.54,227.29,58.54L227.29,58.54z M232,65.68
			L182.61,94.2l52.67-21.89C234.31,70.03,233.21,67.82,232,65.68L232,65.68z M235.67,73.25l-52.79,21.94l55.22-14.8
			C237.42,77.95,236.61,75.56,235.67,73.25L235.67,73.25z M238.36,81.37l-55.09,14.76l56.53-7.51
			C239.45,86.16,238.97,83.73,238.36,81.37L238.36,81.37z M239.93,89.62l-56.66,7.53h57.15C240.4,94.6,240.24,92.09,239.93,89.62
			L239.93,89.62z M240.42,98.16c-0.02,2.5-0.18,4.96-0.47,7.38l-56.54-7.38H240.42L240.42,98.16z M239.82,106.54l-56.68-7.4
			l55.22,14.8C238.99,111.53,239.47,109.06,239.82,106.54L239.82,106.54z M238.1,114.92L183,100.16l52.72,21.77
			C236.64,119.65,237.44,117.32,238.1,114.92L238.1,114.92z M235.34,122.86l-52.85-21.82L232,129.63
			C233.24,127.45,234.36,125.19,235.34,122.86L235.34,122.86z M231.49,130.5l-49.39-28.51l45.28,34.66
			C228.87,134.69,230.24,132.63,231.49,130.5L231.49,130.5z M226.77,137.45l-45.38-34.74l40.41,40.41
			C223.56,141.33,225.22,139.44,226.77,137.45L226.77,137.45z M221.08,143.84l-40.31-40.31l34.76,45.2
			C217.47,147.2,219.32,145.57,221.08,143.84L221.08,143.84z M214.72,149.34l-34.85-45.31l28.58,49.51
			C210.63,152.26,212.72,150.86,214.72,149.34L214.72,149.34z M207.58,154.05l-28.51-49.39l21.89,52.67
			C203.23,156.36,205.45,155.26,207.58,154.05L207.58,154.05z M200.02,157.71l-21.94-52.79l14.8,55.22
			C195.32,159.47,197.7,158.66,200.02,157.71L200.02,157.71z M191.9,160.41l-14.76-55.09l7.51,56.53
			C187.11,161.5,189.53,161.02,191.9,160.41L191.9,160.41z M183.64,161.98l-7.53-56.66v57.15
			C178.66,162.44,181.18,162.28,183.64,161.98L183.64,161.98z M175.1,162.46c-2.5-0.02-4.96-0.18-7.38-0.47l7.38-56.54V162.46
			L175.1,162.46z M166.72,161.86l7.4-56.68l-14.8,55.22C161.74,161.03,164.21,161.52,166.72,161.86L166.72,161.86z M158.34,160.14
			l14.76-55.09l-21.77,52.72C153.61,158.69,155.95,159.48,158.34,160.14L158.34,160.14z M150.4,157.39l21.82-52.85l-28.58,49.51
			C145.82,155.28,148.07,156.4,150.4,157.39L150.4,157.39z M142.76,153.54l28.51-49.39l-34.66,45.28
			C138.58,150.91,140.63,152.28,142.76,153.54L142.76,153.54z M135.81,148.81l34.74-45.38l-40.41,40.41
			C131.93,145.6,133.83,147.27,135.81,148.81L135.81,148.81z M129.42,143.12l40.31-40.31l-45.2,34.76
			C126.06,139.52,127.7,141.37,129.42,143.12L129.42,143.12z M123.93,136.77l45.31-34.85l-49.51,28.58
			C121.01,132.68,122.41,134.77,123.93,136.77L123.93,136.77z M119.22,129.63l49.39-28.51L115.94,123
			C116.91,125.28,118.01,127.49,119.22,129.63L119.22,129.63z M115.55,122.06l52.79-21.94l-55.22,14.8
			C113.8,117.36,114.61,119.75,115.55,122.06L115.55,122.06z M112.86,113.95l55.09-14.76l-56.53,7.51
			C111.77,109.16,112.25,111.58,112.86,113.95L112.86,113.95z M111.29,105.69l56.66-7.53H110.8
			C110.82,100.71,110.98,103.22,111.29,105.69L111.29,105.69z M110.8,97.15c0.02-2.5,0.18-4.96,0.47-7.38l56.54,7.38H110.8
			L110.8,97.15z M111.41,88.77l56.68,7.4l-55.22-14.8C112.24,83.78,111.75,86.25,111.41,88.77L111.41,88.77z M113.13,80.39
			l55.09,14.76L115.5,73.38C114.58,75.66,113.79,78,113.13,80.39L113.13,80.39z M115.88,72.45l52.85,21.82l-49.51-28.58
			C117.98,67.86,116.86,70.12,115.88,72.45L115.88,72.45z M119.73,64.81l49.39,28.51l-45.28-34.66
			C122.36,60.63,120.98,62.68,119.73,64.81L119.73,64.81z M124.45,57.86l45.38,34.74l-40.41-40.41
			C127.66,53.98,126,55.87,124.45,57.86L124.45,57.86z M130.14,51.47l40.31,40.31l-34.76-45.2
			C133.75,48.11,131.9,49.74,130.14,51.47L130.14,51.47z M136.5,45.97l34.85,45.31l-28.58-49.51
			C140.59,43.05,138.5,44.46,136.5,45.97L136.5,45.97z M143.64,41.27l28.51,49.39l-21.89-52.67
			C147.99,38.95,145.77,40.05,143.64,41.27L143.64,41.27z M151.2,37.6l21.94,52.79l-14.79-55.22
			C155.9,35.84,153.52,36.66,151.2,37.6L151.2,37.6z M159.32,34.91L174.08,90l-7.51-56.53C164.11,33.81,161.69,34.29,159.32,34.91
			L159.32,34.91z M167.58,33.34L175.1,90V32.85C172.56,32.87,170.05,33.03,167.58,33.34z"/>
		<path class="st33" d="M219.93,66.63c5.83,3.21,10.03,8.95,10.99,15.58c0.44,3.07,0.16,6.18-0.88,9.1
			c-0.98,2.74-2.59,5.22-4.68,7.25c-2.76,2.68-6.28,4.49-10.07,5.16c-1.89,0.34-3.84,0.38-5.75,0.15v50.52l-1.09,0.62
			c-1.26,0.72-2.54,1.4-3.84,2.04c-0.01,0-0.02,0.01-0.02,0.01v0.02l-1.26,0.58c-0.18,0.08-0.36,0.16-0.54,0.24
			c-0.11,0.05-0.21,0.1-0.32,0.14c-1.26,0.56-2.53,1.08-3.82,1.56c-1.53,0.57-3.08,1.08-4.64,1.53c-0.33,0.1-0.67,0.19-1,0.28
			c-2.36,0.64-4.76,1.15-7.17,1.53c-5.57,0.87-11.27,1.02-16.88,0.46c-0.99-0.1-1.97-0.22-2.95-0.36c-1.52-0.22-3.03-0.5-4.52-0.82
			c-0.87-0.19-1.74-0.4-2.61-0.62c-0.22-0.06-0.44-0.12-0.66-0.18c-0.33-0.09-0.67-0.19-1-0.28c-0.73-0.21-1.46-0.44-2.19-0.67
			c-0.64-0.21-1.28-0.43-1.92-0.66c-0.18-0.07-0.36-0.13-0.54-0.2c-0.32-0.12-0.65-0.24-0.97-0.37c-0.96-0.37-1.91-0.77-2.85-1.19
			c-0.29-0.13-0.57-0.26-0.86-0.39c-0.43-0.2-0.86-0.4-1.28-0.61c-0.52-0.25-1.03-0.51-1.54-0.78c-0.78-0.41-1.55-0.83-2.31-1.26
			l-1.09-0.63v-50.52c-1.91,0.23-3.85,0.19-5.75-0.15c-3.79-0.68-7.31-2.48-10.07-5.16c-2.09-2.02-3.7-4.51-4.68-7.25
			c-1.04-2.92-1.32-6.03-0.88-9.1c0.96-6.64,5.16-12.37,10.99-15.58v-8.53h88.64L219.93,66.63L219.93,66.63z"/>
		<path class="st35" d="M135.16,67.25c-0.13-0.14-0.25-0.28-0.36-0.44h-1.34v-6.55h84.3v6.55h-1.34c-0.11,0.15-0.23,0.3-0.36,0.44
			c6.6,2.39,11.69,8.22,12.71,15.27c0.39,2.72,0.15,5.47-0.78,8.06c-0.86,2.43-2.29,4.62-4.14,6.42c-2.45,2.38-5.58,3.98-8.95,4.58
			c-2.5,0.45-5.08,0.32-7.53-0.34v51.89c-9.36,5.37-20.2,8.44-31.76,8.44c-11.56,0-22.41-3.07-31.76-8.44v-51.89
			c-2.45,0.66-5.03,0.79-7.53,0.34c-3.37-0.6-6.49-2.21-8.95-4.58c-1.85-1.79-3.28-3.99-4.14-6.42c-0.92-2.59-1.17-5.34-0.78-8.06
			C123.47,75.47,128.55,69.64,135.16,67.25z"/>
		<path class="st34" d="M175.61,62.49h39.92v1.87h-39.92h-39.92v-1.87H175.61L175.61,62.49z M175.61,95.53
			c-1.54,0.01-2.79,1.29-2.79,2.87v63.12c-0.5-0.02-1-0.05-1.49-0.08V98.39c0-1.58-1.26-2.87-2.8-2.87c-1.54,0-2.8,1.29-2.8,2.87
			v62.42c-0.52-0.08-1.04-0.17-1.55-0.26V98.39c0-1.58-1.21-2.87-2.69-2.87c-1.48,0-2.69,1.29-2.69,2.87v60.94
			c-0.32-0.09-0.65-0.18-0.97-0.27V97.92c0-1.31-1.01-2.39-2.24-2.39c-1.24,0-2.25,1.07-2.25,2.39v59.66
			c-0.31-0.12-0.63-0.24-0.94-0.36V96.99c0-0.81-0.62-1.46-1.38-1.46c-0.76,0-1.38,0.66-1.38,1.46v59.08
			c-0.28-0.12-0.55-0.25-0.83-0.38V96.83c1.03-0.96,1.91-2.06,2.62-3.3c0.02-0.03,0.03-0.06,0.05-0.09h24.14h24.14
			c0.02,0.03,0.03,0.06,0.05,0.09c0.71,1.24,1.59,2.34,2.62,3.3v58.87c-0.27,0.13-0.55,0.25-0.83,0.37V96.99
			c0-0.81-0.62-1.46-1.38-1.46c-0.76,0-1.38,0.66-1.38,1.46v60.23c-0.31,0.12-0.63,0.24-0.94,0.36V97.92c0-1.32-1.01-2.39-2.25-2.39
			c-1.23,0-2.24,1.08-2.24,2.39v61.15c-0.32,0.09-0.65,0.19-0.97,0.27V98.39c0-1.58-1.21-2.87-2.69-2.87
			c-1.48,0-2.69,1.29-2.69,2.87v62.16c-0.52,0.09-1.03,0.18-1.55,0.26V98.39c0-1.58-1.26-2.87-2.81-2.87c-1.54,0-2.8,1.29-2.8,2.87
			v63.04c-0.5,0.03-0.99,0.06-1.49,0.08V98.39C178.4,96.82,177.15,95.53,175.61,95.53L175.61,95.53z M136.58,65.46
			c0.72,1.24,3.14,0.55,3.75,2.09l0.03-0.01h0.11c-0.06-0.15-0.09-0.31-0.12-0.47c-0.09-0.04-0.18-0.09-0.26-0.14
			c-0.52-0.34-0.77-0.87-0.82-1.46L136.58,65.46L136.58,65.46z M138.74,68.58c-7.28,1.3-13.06,7.19-14.09,14.26
			c-1.5,10.36,7.92,18.59,17.86,16.43c3.31-0.84,6.37-3.18,8.06-6.14c1.14-2.01,1.77-4.43,1.57-6.75c-0.16-1.73-0.71-3.38-1.66-4.84
			c-0.96-1.48-2.27-2.67-3.8-3.54c-1.25-0.71-2.65-1.15-4.08-1.29c-1.83-0.19-3.72,0.09-5.4,0.86c-1.69,0.77-3.1,2.01-4.03,3.63
			c-0.66,1.15-1.03,2.43-1.17,3.75c-0.15,1.46,0.07,2.92,0.71,4.24c0.58,1.21,1.48,2.24,2.58,3c1.1,0.76,2.38,1.24,3.71,1.38
			c1.46,0.15,2.9-0.12,4.22-0.75c0.38-0.18,0.74-0.41,1.07-0.67c1.14-0.89,1.98-2.17,2.39-3.54c0.42-1.43,0.36-2.95-0.29-4.31
			c-0.18-0.38-0.41-0.73-0.66-1.07c-0.3-0.39-0.64-0.74-1.03-1.05c-1.04-0.84-2.33-1.27-3.67-1.23c-1.16,0.03-2.35,0.42-3.27,1.13
			c-0.25,0.2-0.49,0.42-0.69,0.67c-0.32,0.4-0.58,0.85-0.76,1.33c-0.8,2.12-0.09,4.77,2.19,5.59c1.98,0.71,4.44-0.24,4.77-2.45
			c0.21-1.43-0.62-2.96-2.27-2.96c-1.3-0.03-2.11,1.23-1.52,2.35c0.14,0.26,0.34,0.46,0.57,0.59c0.86,0.5,2.17,0.19,2.48-1.14
			c0.77,2.87-3.36,4.06-4.96,1.68c-0.34-0.5-0.54-1.09-0.6-1.69c-0.07-0.61,0.01-1.24,0.24-1.81c0.31-0.77,0.84-1.39,1.57-1.79
			c0.86-0.48,1.89-0.6,2.84-0.42c1,0.18,1.94,0.68,2.62,1.45c0.39,0.44,0.7,0.95,0.92,1.5c0.22,0.56,0.35,1.16,0.36,1.76
			c0.04,1.54-0.63,2.9-1.77,3.91c-1.06,0.93-2.4,1.4-3.8,1.4c-0.93,0-1.86-0.21-2.71-0.59c-0.86-0.38-1.64-0.94-2.26-1.65
			c-0.98-1.11-1.5-2.49-1.5-3.98c0-0.14,0-0.29,0.01-0.43c0.11-2.17,1.04-4.07,2.76-5.42c1.47-1.16,3.39-1.8,5.26-1.8
			c0.13,0,0.26,0,0.4,0.01c2.38,0.12,4.76,1.19,6.39,2.93c1.66,1.77,2.41,4.01,2.41,6.42c0,0.75-0.1,1.49-0.29,2.21
			c-0.6,2.29-2.06,4.32-3.93,5.75c-2.04,1.56-4.52,2.43-7.09,2.43c-1.01,0-2.02-0.13-2.99-0.39c-3.42-0.89-6.43-2.93-8.28-5.98
			c-1.82-3-2.25-6.52-1.37-9.9c0.7-2.72,2.15-5.13,4.17-7.07c2.04-1.97,4.65-3.42,7.41-4.08c6.08-1.45,18.49,0.93,25.51,1.47
			c3.91,0.3,7.82,0.45,11.74,0.39h0h0c3.92,0.06,7.84-0.09,11.74-0.39c7.02-0.54,19.43-2.92,25.51-1.47
			c2.76,0.66,5.37,2.12,7.41,4.08c2.02,1.94,3.47,4.35,4.17,7.07c0.88,3.39,0.45,6.9-1.37,9.9c-1.85,3.04-4.86,5.08-8.28,5.98
			c-0.98,0.25-1.98,0.39-2.99,0.39c-2.57,0-5.06-0.87-7.09-2.43c-1.87-1.44-3.33-3.46-3.93-5.75c-0.19-0.72-0.29-1.46-0.29-2.21
			c0-2.41,0.75-4.65,2.41-6.42c1.64-1.74,4.01-2.81,6.39-2.93c0.13-0.01,0.26-0.01,0.4-0.01c1.87,0,3.79,0.64,5.26,1.8
			c1.71,1.35,2.65,3.25,2.76,5.42c0.01,0.14,0.01,0.29,0.01,0.43c0,1.48-0.52,2.86-1.5,3.98c-0.62,0.71-1.4,1.27-2.26,1.65
			c-0.85,0.38-1.78,0.59-2.71,0.59c-1.4,0-2.74-0.47-3.8-1.4c-1.14-1.01-1.81-2.37-1.77-3.91c0.02-0.6,0.14-1.2,0.36-1.76
			c0.22-0.55,0.53-1.06,0.92-1.5c0.68-0.77,1.61-1.27,2.62-1.45c0.96-0.17,1.99-0.05,2.84,0.42c0.72,0.4,1.26,1.02,1.57,1.79
			c0.23,0.57,0.31,1.2,0.24,1.81c-0.06,0.6-0.27,1.19-0.6,1.69c-1.6,2.38-5.74,1.19-4.96-1.68c0.31,1.34,1.63,1.64,2.48,1.14
			c0.24-0.14,0.44-0.34,0.57-0.59c0.59-1.12-0.21-2.38-1.52-2.35c-1.64,0-2.48,1.53-2.27,2.96c0.32,2.21,2.79,3.16,4.77,2.45
			c2.28-0.82,2.99-3.47,2.19-5.59c-0.18-0.48-0.44-0.93-0.76-1.33c-0.2-0.25-0.43-0.47-0.69-0.67c-0.92-0.72-2.11-1.1-3.27-1.13
			c-1.34-0.04-2.62,0.4-3.67,1.23c-0.38,0.31-0.73,0.66-1.03,1.05c-0.26,0.33-0.48,0.69-0.66,1.07c-0.65,1.36-0.72,2.87-0.29,4.31
			c0.41,1.38,1.25,2.66,2.39,3.54c0.33,0.26,0.69,0.48,1.07,0.67c1.32,0.64,2.76,0.9,4.22,0.75c1.33-0.14,2.61-0.62,3.71-1.38
			c1.1-0.76,1.99-1.79,2.58-3c0.64-1.33,0.86-2.78,0.71-4.24c-0.14-1.32-0.51-2.59-1.17-3.75c-0.93-1.62-2.33-2.86-4.03-3.63
			c-1.68-0.77-3.57-1.05-5.4-0.86c-1.43,0.15-2.83,0.58-4.08,1.29c-1.53,0.87-2.84,2.06-3.8,3.54c-0.95,1.46-1.5,3.11-1.66,4.84
			c-0.21,2.32,0.42,4.74,1.57,6.75c1.69,2.97,4.75,5.3,8.06,6.14c9.94,2.16,19.36-6.08,17.86-16.43
			c-1.02-7.07-6.81-12.95-14.09-14.26h-36.87H138.74L138.74,68.58z M146.08,98.87c0.52-0.31,1.01-0.64,1.49-1v57.24
			c-0.5-0.24-1-0.5-1.49-0.75V98.87L146.08,98.87z M205.15,154.35c-0.49,0.26-0.99,0.51-1.49,0.75V97.87c0.48,0.36,0.97,0.69,1.49,1
			V154.35L205.15,154.35z M175.61,85.21c0.11,0,0.21-0.01,0.32-0.03c0.77-0.14,1.35-0.77,1.71-1.43c0.23-0.41,0.39-0.87,0.5-1.34
			c0.03,0.42,0.12,0.84,0.26,1.22c0.23,0.62,0.65,1.22,1.3,1.46c0.19,0.07,0.4,0.11,0.6,0.11c0.84,0,1.56-0.58,2.05-1.21
			c0.51-0.66,0.85-1.48,1.04-2.3c-0.12,0.65-0.13,1.36,0.05,1.99c0.15,0.53,0.44,1.02,0.92,1.3c0.26,0.15,0.55,0.22,0.85,0.22
			c0.87,0,1.68-0.58,2.26-1.19c0.53-0.57,0.96-1.26,1.26-1.99c-0.22,0.96-0.27,2.3,0.59,2.91c0.26,0.19,0.57,0.27,0.89,0.27
			c0.88,0,1.75-0.6,2.36-1.18c0.8-0.76,1.45-1.76,1.86-2.78c0.35-0.87,0.64-2.13,0.28-3.07h7.98c-1.05,0.8-1.95,1.77-2.67,2.88
			c-1.03,1.58-1.63,3.37-1.8,5.24c-0.1,1.09-0.05,2.2,0.15,3.27h-22.75h-22.75c0.19-1.08,0.25-2.18,0.15-3.27
			c-0.17-1.87-0.77-3.66-1.8-5.24c-0.72-1.11-1.63-2.08-2.67-2.88h7.98c-0.36,0.94-0.07,2.2,0.28,3.07
			c0.41,1.02,1.06,2.02,1.86,2.78c0.61,0.58,1.49,1.18,2.36,1.18c0.32,0,0.63-0.08,0.89-0.27c0.87-0.62,0.82-1.96,0.59-2.91
			c0.3,0.73,0.73,1.43,1.26,1.99c0.57,0.61,1.39,1.19,2.26,1.19c0.3,0,0.59-0.07,0.85-0.22c0.48-0.28,0.77-0.78,0.92-1.3
			c0.18-0.64,0.16-1.35,0.05-1.99c0.18,0.83,0.53,1.64,1.04,2.3c0.49,0.63,1.21,1.21,2.05,1.21c0.21,0,0.41-0.04,0.6-0.11
			c0.65-0.24,1.06-0.84,1.3-1.46c0.14-0.39,0.23-0.8,0.26-1.22c0.11,0.47,0.27,0.92,0.5,1.34c0.36,0.66,0.94,1.29,1.71,1.43
			C175.4,85.2,175.5,85.21,175.61,85.21L175.61,85.21z M149.37,90.05c0.17-0.63,0.28-1.28,0.32-1.93
			C149.67,88.78,149.56,89.43,149.37,90.05L149.37,90.05z M172.54,67.53c0.06-0.15,0.09-0.31,0.12-0.47
			c0.02-0.01,0.04-0.02,0.06-0.03c0.01,0.05,0.03,0.09,0.04,0.14c0.05,0.13,0.11,0.25,0.19,0.36H172.54L172.54,67.53z M169.75,67.53
			c0.08-0.11,0.14-0.23,0.19-0.36c0.02-0.05,0.03-0.09,0.04-0.14c0.02,0.01,0.04,0.02,0.06,0.03c0.02,0.16,0.06,0.32,0.12,0.47
			H169.75L169.75,67.53z M166.6,67.53c0.06-0.15,0.09-0.31,0.12-0.47c0.02-0.01,0.04-0.02,0.06-0.03c0.01,0.05,0.03,0.09,0.04,0.14
			c0.05,0.13,0.11,0.25,0.19,0.36H166.6L166.6,67.53z M163.81,67.53c0.08-0.11,0.14-0.23,0.19-0.36c0.02-0.05,0.03-0.09,0.04-0.14
			c0.02,0.01,0.04,0.02,0.06,0.03c0.02,0.16,0.06,0.32,0.12,0.47H163.81L163.81,67.53z M160.66,67.53c0.06-0.15,0.09-0.31,0.12-0.47
			c0.02-0.01,0.04-0.02,0.06-0.03c0.01,0.05,0.03,0.09,0.04,0.14c0.05,0.13,0.11,0.25,0.19,0.36H160.66L160.66,67.53z M157.87,67.53
			c0.08-0.11,0.14-0.23,0.19-0.36c0.02-0.05,0.03-0.09,0.04-0.14c0.02,0.01,0.04,0.02,0.06,0.03c0.02,0.16,0.06,0.32,0.12,0.47
			H157.87L157.87,67.53z M154.84,67.06c0.02-0.01,0.04-0.02,0.06-0.03c0.01,0.05,0.03,0.09,0.04,0.14c0.05,0.13,0.11,0.25,0.19,0.36
			h-0.41C154.78,67.38,154.82,67.22,154.84,67.06L154.84,67.06z M151.93,67.53c0.08-0.11,0.14-0.23,0.19-0.36
			c0.02-0.05,0.03-0.09,0.04-0.14c0.02,0.01,0.04,0.02,0.06,0.03c0.02,0.16,0.06,0.32,0.12,0.47H151.93L151.93,67.53z M148.91,67.06
			c0.02-0.01,0.04-0.02,0.06-0.03c0.01,0.05,0.03,0.09,0.04,0.14c0.05,0.13,0.11,0.25,0.19,0.36h-0.41
			C148.85,67.38,148.88,67.22,148.91,67.06L148.91,67.06z M146.29,67.06c0.02,0.16,0.06,0.32,0.12,0.47H146
			c0.08-0.11,0.14-0.23,0.19-0.36c0.02-0.05,0.03-0.09,0.04-0.14C146.25,67.04,146.27,67.05,146.29,67.06L146.29,67.06z
			 M142.85,67.53c0.06-0.15,0.09-0.31,0.12-0.47c0.02-0.01,0.04-0.02,0.06-0.03c0.01,0.05,0.03,0.09,0.04,0.14
			c0.05,0.13,0.11,0.25,0.19,0.36H142.85L142.85,67.53z M214.64,65.46c-0.72,1.24-3.14,0.55-3.75,2.09l-0.03-0.01h-0.11
			c0.06-0.15,0.09-0.31,0.12-0.47c0.09-0.04,0.18-0.09,0.26-0.14c0.52-0.34,0.77-0.87,0.82-1.46L214.64,65.46L214.64,65.46z
			 M201.85,90.05c-0.19-0.62-0.3-1.27-0.32-1.93C201.57,88.77,201.68,89.42,201.85,90.05L201.85,90.05z M178.68,67.53
			c-0.06-0.15-0.09-0.31-0.12-0.47c-0.02-0.01-0.04-0.02-0.06-0.03c-0.01,0.05-0.03,0.09-0.04,0.14c-0.05,0.13-0.11,0.25-0.19,0.36
			H178.68L178.68,67.53z M181.47,67.53c-0.08-0.11-0.14-0.23-0.19-0.36c-0.02-0.05-0.03-0.09-0.04-0.14
			c-0.02,0.01-0.04,0.02-0.06,0.03c-0.02,0.16-0.06,0.32-0.12,0.47H181.47L181.47,67.53z M184.62,67.53
			c-0.06-0.15-0.09-0.31-0.12-0.47c-0.02-0.01-0.04-0.02-0.06-0.03c-0.01,0.05-0.03,0.09-0.04,0.14c-0.05,0.13-0.11,0.25-0.19,0.36
			H184.62L184.62,67.53z M187.41,67.53c-0.08-0.11-0.14-0.23-0.19-0.36c-0.02-0.05-0.03-0.09-0.04-0.14
			c-0.02,0.01-0.04,0.02-0.06,0.03c-0.02,0.16-0.06,0.32-0.12,0.47H187.41L187.41,67.53z M190.56,67.53
			c-0.06-0.15-0.09-0.31-0.12-0.47c-0.02-0.01-0.04-0.02-0.06-0.03c-0.01,0.05-0.03,0.09-0.04,0.14c-0.05,0.13-0.11,0.25-0.19,0.36
			H190.56L190.56,67.53z M193.35,67.53c-0.08-0.11-0.14-0.23-0.19-0.36c-0.02-0.05-0.03-0.09-0.04-0.14
			c-0.02,0.01-0.04,0.02-0.06,0.03c-0.02,0.16-0.06,0.32-0.12,0.47H193.35L193.35,67.53z M196.38,67.06
			c-0.02-0.01-0.04-0.02-0.06-0.03c-0.01,0.05-0.03,0.09-0.04,0.14c-0.05,0.13-0.11,0.25-0.19,0.36h0.41
			C196.44,67.38,196.4,67.22,196.38,67.06L196.38,67.06z M199.29,67.53c-0.08-0.11-0.14-0.23-0.19-0.36
			c-0.02-0.05-0.03-0.09-0.04-0.14c-0.02,0.01-0.04,0.02-0.06,0.03c-0.02,0.16-0.06,0.32-0.12,0.47H199.29L199.29,67.53z
			 M202.32,67.06c-0.02-0.01-0.04-0.02-0.06-0.03c-0.01,0.05-0.03,0.09-0.04,0.14c-0.05,0.13-0.11,0.25-0.19,0.36h0.41
			C202.38,67.38,202.34,67.22,202.32,67.06L202.32,67.06z M204.93,67.06c-0.02,0.16-0.06,0.32-0.12,0.47h0.41
			c-0.08-0.11-0.14-0.23-0.19-0.36c-0.02-0.05-0.03-0.09-0.04-0.14C204.97,67.04,204.95,67.05,204.93,67.06L204.93,67.06z
			 M208.37,67.53c-0.06-0.15-0.09-0.31-0.12-0.47c-0.02-0.01-0.04-0.02-0.06-0.03c-0.01,0.05-0.03,0.09-0.04,0.14
			c-0.05,0.13-0.11,0.25-0.19,0.36H208.37z"/>
		<path class="st33" d="M175.61,71.99c14.49-0.12,18.46-1.83,27.84-2.2c-8.26-0.2-15.34,1.2-27.84,1.14
			c-12.49,0.06-19.57-1.34-27.84-1.14C157.15,70.16,161.12,71.87,175.61,71.99z"/>
		<path class="st39" d="M206.59,67.75c-1.51-0.36-1.16-1.56-0.79-2.51h1.57C207.75,66.19,208.1,67.39,206.59,67.75L206.59,67.75z
			 M144.63,67.75c1.51-0.36,1.16-1.56,0.79-2.51h-1.57C143.47,66.19,143.12,67.39,144.63,67.75L144.63,67.75z M174.32,67.75
			c1.51-0.36,1.16-1.56,0.79-2.51h-1.57C173.16,66.19,172.81,67.39,174.32,67.75L174.32,67.75z M171.35,67.74
			c0,0-0.68,0.12-0.68-1.19c0,0-1.06-0.04-1.06-1.31h1.63v1.64c0,0.06,0.05,0.11,0.11,0.11l0,0c0.06,0,0.11-0.05,0.11-0.11v-1.64
			h1.63c0,1.27-1.06,1.31-1.06,1.31C172.03,67.86,171.35,67.74,171.35,67.74L171.35,67.74z M168.38,67.75
			c1.51-0.36,1.16-1.56,0.79-2.51h-1.57C167.23,66.19,166.87,67.39,168.38,67.75L168.38,67.75z M165.41,67.74
			c0,0-0.68,0.12-0.68-1.19c0,0-1.06-0.04-1.06-1.31h1.63v1.64c0,0.06,0.05,0.11,0.11,0.11l0,0c0.06,0,0.11-0.05,0.11-0.11v-1.64
			h1.63c0,1.27-1.06,1.31-1.06,1.31C166.09,67.86,165.41,67.74,165.41,67.74L165.41,67.74z M162.44,67.75
			c1.51-0.36,1.16-1.56,0.79-2.51h-1.57C161.29,66.19,160.93,67.39,162.44,67.75L162.44,67.75z M159.47,67.74
			c0,0-0.68,0.12-0.68-1.19c0,0-1.06-0.04-1.06-1.31h1.63v1.64c0,0.06,0.05,0.11,0.11,0.11l0,0c0.06,0,0.11-0.05,0.11-0.11v-1.64
			h1.63c0,1.27-1.06,1.31-1.06,1.31C160.15,67.86,159.47,67.74,159.47,67.74L159.47,67.74z M156.51,67.75
			c1.51-0.36,1.16-1.56,0.79-2.51h-1.57C155.35,66.19,155,67.39,156.51,67.75L156.51,67.75z M153.54,67.74c0,0-0.68,0.12-0.68-1.19
			c0,0-1.06-0.04-1.06-1.31h1.63v1.64c0,0.06,0.05,0.11,0.11,0.11l0,0c0.06,0,0.11-0.05,0.11-0.11v-1.64h1.63
			c0,1.27-1.06,1.31-1.06,1.31C154.22,67.86,153.54,67.74,153.54,67.74L153.54,67.74z M150.57,67.75c1.51-0.36,1.16-1.56,0.79-2.51
			h-1.57C149.41,66.19,149.06,67.39,150.57,67.75L150.57,67.75z M147.6,67.74c0,0-0.68,0.12-0.68-1.19c0,0-1.06-0.04-1.06-1.31h1.63
			v1.64c0,0.06,0.05,0.11,0.11,0.11l0,0c0.06,0,0.11-0.05,0.11-0.11v-1.64h1.63c0,1.27-1.06,1.31-1.06,1.31
			C148.28,67.86,147.6,67.74,147.6,67.74L147.6,67.74z M141.66,67.74c0,0-0.68,0.12-0.68-1.19c0,0-1.06-0.04-1.06-1.31h1.63v1.64
			c0,0.06,0.05,0.11,0.11,0.11l0,0c0.06,0,0.11-0.05,0.11-0.11v-1.64h1.63c0,1.27-1.06,1.31-1.06,1.31
			C142.34,67.86,141.66,67.74,141.66,67.74L141.66,67.74z M176.9,67.75c-1.51-0.36-1.16-1.56-0.79-2.51h1.57
			C178.06,66.19,178.41,67.39,176.9,67.75L176.9,67.75z M179.87,67.74c0,0,0.68,0.12,0.68-1.19c0,0,1.06-0.04,1.06-1.31h-1.63v1.64
			c0,0.06-0.05,0.11-0.11,0.11l0,0c-0.06,0-0.11-0.05-0.11-0.11v-1.64h-1.63c0,1.27,1.06,1.31,1.06,1.31
			C179.19,67.86,179.87,67.74,179.87,67.74L179.87,67.74z M182.84,67.75c-1.51-0.36-1.16-1.56-0.79-2.51h1.57
			C184,66.19,184.35,67.39,182.84,67.75L182.84,67.75z M185.81,67.74c0,0,0.68,0.12,0.68-1.19c0,0,1.06-0.04,1.06-1.31h-1.63v1.64
			c0,0.06-0.05,0.11-0.11,0.11l0,0c-0.06,0-0.11-0.05-0.11-0.11v-1.64h-1.63c0,1.27,1.06,1.31,1.06,1.31
			C185.13,67.86,185.81,67.74,185.81,67.74L185.81,67.74z M188.78,67.75c-1.51-0.36-1.16-1.56-0.79-2.51h1.57
			C189.93,66.19,190.29,67.39,188.78,67.75L188.78,67.75z M191.75,67.74c0,0,0.68,0.12,0.68-1.19c0,0,1.06-0.04,1.06-1.31h-1.63
			v1.64c0,0.06-0.05,0.11-0.11,0.11l0,0c-0.06,0-0.11-0.05-0.11-0.11v-1.64h-1.63c0,1.27,1.06,1.31,1.06,1.31
			C191.07,67.86,191.75,67.74,191.75,67.74L191.75,67.74z M194.72,67.75c-1.51-0.36-1.16-1.56-0.79-2.51h1.57
			C195.87,66.19,196.22,67.39,194.72,67.75L194.72,67.75z M197.68,67.74c0,0,0.68,0.12,0.68-1.19c0,0,1.06-0.04,1.06-1.31h-1.63
			v1.64c0,0.06-0.05,0.11-0.11,0.11l0,0c-0.06,0-0.11-0.05-0.11-0.11v-1.64h-1.63c0,1.27,1.06,1.31,1.06,1.31
			C197.01,67.86,197.68,67.74,197.68,67.74L197.68,67.74z M200.65,67.75c-1.51-0.36-1.16-1.56-0.79-2.51h1.57
			C201.81,66.19,202.16,67.39,200.65,67.75L200.65,67.75z M203.62,67.74c0,0,0.68,0.12,0.68-1.19c0,0,1.06-0.04,1.06-1.31h-1.63
			v1.64c0,0.06-0.05,0.11-0.11,0.11l0,0c-0.06,0-0.11-0.05-0.11-0.11v-1.64h-1.63c0,1.27,1.06,1.31,1.06,1.31
			C202.94,67.86,203.62,67.74,203.62,67.74L203.62,67.74z M209.56,67.74c0,0,0.68,0.12,0.68-1.19c0,0,1.06-0.04,1.06-1.31h-1.63
			v1.64c0,0.06-0.05,0.11-0.11,0.11l0,0c-0.06,0-0.11-0.05-0.11-0.11v-1.64h-1.63c0,1.27,1.06,1.31,1.06,1.31
			C208.88,67.86,209.56,67.74,209.56,67.74z"/>
		<path class="st34" d="M176.9,65.56h0.58c0.27,0.72,0.54,1.63-0.58,1.91V65.56L176.9,65.56z M174.32,65.56h-0.58
			c-0.27,0.72-0.54,1.63,0.58,1.91V65.56L174.32,65.56z M144.63,65.56h-0.58c-0.27,0.72-0.54,1.63,0.58,1.91V65.56L144.63,65.56z
			 M150.57,65.56h-0.58c-0.27,0.72-0.54,1.63,0.58,1.91V65.56L150.57,65.56z M156.51,65.56h-0.58c-0.27,0.72-0.54,1.63,0.58,1.91
			V65.56L156.51,65.56z M162.44,65.56h-0.58c-0.27,0.72-0.54,1.63,0.58,1.91V65.56L162.44,65.56z M168.38,65.56h-0.58
			c-0.27,0.72-0.54,1.63,0.58,1.91V65.56L168.38,65.56z M206.59,65.56h0.58c0.27,0.72,0.54,1.63-0.58,1.91V65.56L206.59,65.56z
			 M200.65,65.56h0.58c0.27,0.72,0.54,1.63-0.58,1.91V65.56L200.65,65.56z M194.72,65.56h0.58c0.27,0.72,0.54,1.63-0.58,1.91V65.56
			L194.72,65.56z M188.78,65.56h0.58c0.27,0.72,0.54,1.63-0.58,1.91V65.56L188.78,65.56z M182.84,65.56h0.58
			c0.27,0.72,0.54,1.63-0.58,1.91V65.56z"/>
		<path class="st39" d="M175.61,77.28c1.22,0,2.21,1.56,2.21,3.48c0,1.92-0.99,3.48-2.21,3.48c-1.22,0-2.21-1.56-2.21-3.48
			S174.39,77.28,175.61,77.28L175.61,77.28z M158.66,77.35c-1.16,0-1.57,1.44-0.93,3.22c0.65,1.78,2.12,3.22,3.28,3.22
			s1.57-1.44,0.93-3.22C161.29,78.79,159.82,77.35,158.66,77.35L158.66,77.35z M164.45,77.35c-1.22,0-1.85,1.5-1.4,3.34
			c0.45,1.84,1.8,3.34,3.02,3.34c1.22,0,1.85-1.5,1.4-3.34C167.03,78.84,165.67,77.35,164.45,77.35L164.45,77.35z M170.13,77.28
			c-1.22,0-2.02,1.55-1.78,3.46c0.24,1.91,1.42,3.46,2.64,3.46c1.22,0,2.02-1.55,1.78-3.46C172.53,78.83,171.35,77.28,170.13,77.28
			L170.13,77.28z M192.56,77.35c1.16,0,1.57,1.44,0.93,3.22c-0.65,1.78-2.12,3.22-3.28,3.22s-1.57-1.44-0.93-3.22
			C189.93,78.79,191.4,77.35,192.56,77.35L192.56,77.35z M186.77,77.35c1.22,0,1.85,1.5,1.4,3.34c-0.45,1.84-1.8,3.34-3.02,3.34
			c-1.22,0-1.85-1.5-1.4-3.34C184.19,78.84,185.55,77.35,186.77,77.35L186.77,77.35z M181.09,77.28c1.22,0,2.02,1.55,1.78,3.46
			c-0.24,1.91-1.42,3.46-2.64,3.46c-1.22,0-2.02-1.55-1.78-3.46C178.69,78.83,179.87,77.28,181.09,77.28z"/>
		<path class="st34" d="M191.76,78.55c0.49,0,0.67,0.57,0.39,1.28c-0.28,0.71-0.9,1.28-1.4,1.28c-0.49,0-0.67-0.57-0.39-1.28
			C190.64,79.12,191.27,78.55,191.76,78.55L191.76,78.55z M175.61,77.89c0.75,0,1.35,0.95,1.35,2.12c0,1.17-0.6,2.12-1.35,2.12
			s-1.35-0.95-1.35-2.12C174.26,78.84,174.86,77.89,175.61,77.89L175.61,77.89z M170.6,77.84c-0.79,0-1.31,0.97-1.15,2.17
			c0.15,1.2,0.92,2.17,1.71,2.17c0.79,0,1.31-0.97,1.15-2.17C172.16,78.81,171.39,77.84,170.6,77.84L170.6,77.84z M164.94,78.01
			c-0.69,0-1.03,0.83-0.75,1.85c0.28,1.02,1.07,1.85,1.76,1.85s1.03-0.83,0.75-1.85C166.42,78.84,165.63,78.01,164.94,78.01
			L164.94,78.01z M159.46,78.55c-0.49,0-0.67,0.57-0.39,1.28c0.28,0.71,0.9,1.28,1.4,1.28c0.49,0,0.67-0.57,0.39-1.28
			C160.58,79.12,159.96,78.55,159.46,78.55L159.46,78.55z M180.62,77.84c0.79,0,1.31,0.97,1.15,2.17s-0.92,2.17-1.71,2.17
			c-0.79,0-1.31-0.97-1.15-2.17C179.06,78.81,179.83,77.84,180.62,77.84L180.62,77.84z M186.28,78.01c0.69,0,1.03,0.83,0.75,1.85
			c-0.28,1.02-1.07,1.85-1.76,1.85c-0.69,0-1.03-0.83-0.75-1.85C184.8,78.84,185.59,78.01,186.28,78.01z"/>
		<path class="st39" d="M205.27,76.57c5.73-1.92,11.84,0.3,14.04,5.59c2.31,5.55-0.51,11.61-6.61,12.31
			c-3.65,0.42-7.55-1.41-8.81-5.69c-0.45-1.54-0.41-3.23,0.33-4.78c0.2-0.41,0.44-0.8,0.74-1.18c0.35-0.45,0.73-0.84,1.13-1.16
			c1.26-1.01,2.71-1.42,4.09-1.38c1.38,0.04,2.69,0.52,3.65,1.27c0.3,0.23,0.57,0.5,0.8,0.78c1.74,2.16,2.17,5.55-0.23,7.42
			c-2.17,1.69-5.91,0.99-6.92-1.67c-0.57-1.5-0.16-3.1,1.07-3.9c1.17-0.76,2.91-0.7,3.7,0.55c1.38,2.18-1.2,4.39-3.09,2.82
			c0.84,1.31,2.66,1.25,3.7,0.23c0.56-0.56,0.87-1.38,0.81-2.34c-0.08-1.43-1.29-2.61-2.88-2.63c-3.54-0.06-5.95,4.67-2.94,7.33
			c0.96,0.85,2.16,1.23,3.36,1.23c0.84,0,1.68-0.18,2.45-0.53c0.77-0.34,1.48-0.85,2.04-1.48c0.81-0.92,1.33-2.13,1.33-3.54
			c0-0.14,0-0.28-0.01-0.4c-0.11-2.19-1.11-3.84-2.51-4.94c-2.64-2.03-6.29-1.79-9.04-0.12c-2.38,1.44-3.9,3.9-4,6.86
			c-0.1,2.9,1.18,5.88,3.61,7.74c1.83,1.41,4.16,2.29,6.69,2.29c0.92,0,1.87-0.12,2.83-0.37c3.5-0.91,6.24-2.98,7.88-5.68
			c1.63-2.68,2.18-5.99,1.3-9.39c-0.58-2.24-1.76-4.06-3.18-5.63c-4.97-5.43-10.82-5.18-17.61-4.45c-9.53,1.03-8.11,2.64-27.42,2.64
			s-17.89-1.61-27.42-2.64c-6.79-0.73-12.64-0.99-17.61,4.45c-1.43,1.56-2.6,3.38-3.18,5.63c-0.88,3.41-0.34,6.71,1.3,9.39
			c1.64,2.7,4.39,4.77,7.88,5.68c0.96,0.25,1.91,0.37,2.83,0.37c2.54,0,4.86-0.89,6.69-2.29c2.43-1.86,3.71-4.85,3.61-7.74
			c-0.1-2.96-1.62-5.42-4-6.86c-2.75-1.67-6.4-1.91-9.04,0.12c-1.39,1.1-2.4,2.74-2.51,4.94c-0.01,0.12-0.01,0.26-0.01,0.4
			c0,1.41,0.52,2.62,1.33,3.54c0.56,0.64,1.27,1.14,2.04,1.48c0.77,0.34,1.61,0.53,2.45,0.53c1.21,0,2.4-0.39,3.36-1.23
			c3.01-2.66,0.6-7.39-2.94-7.33c-1.58,0.03-2.8,1.21-2.88,2.63c-0.05,0.96,0.25,1.78,0.81,2.34c1.04,1.02,2.86,1.08,3.7-0.23
			c-1.88,1.58-4.47-0.64-3.09-2.82c0.79-1.25,2.53-1.31,3.7-0.55c1.23,0.8,1.64,2.4,1.07,3.9c-1.01,2.66-4.75,3.36-6.92,1.67
			c-2.4-1.87-1.97-5.26-0.23-7.42c0.23-0.28,0.49-0.54,0.8-0.78c0.97-0.75,2.27-1.23,3.65-1.27c1.38-0.04,2.83,0.37,4.09,1.38
			c0.4,0.32,0.78,0.71,1.13,1.16c0.3,0.38,0.54,0.78,0.74,1.18c0.75,1.55,0.79,3.24,0.33,4.78c-1.26,4.28-5.16,6.11-8.81,5.69
			c-6.09-0.7-8.91-6.76-6.61-12.31c2.2-5.29,8.31-7.51,14.04-5.59h29.66L205.27,76.57L205.27,76.57z"/>
		<path class="st33" d="M199.4,86.88c0-6.37,6.38-11.09,12.4-9.59C211.8,77.29,201.65,76.05,199.4,86.88L199.4,86.88z M225.68,87.76
			c-0.55,7.96-10.06,13.39-18,10.62C209.13,98.59,221.7,100.32,225.68,87.76L225.68,87.76z M218.71,86.56
			c-2.5,8.08-10.19,6.04-10.19,6.04C212.99,94.71,218.72,91.5,218.71,86.56L218.71,86.56z M214.69,86.66
			c-1.33,3.4-4.71,2.67-4.71,2.67C212.12,90.25,214.57,89.12,214.69,86.66L214.69,86.66z M209.77,84.89c-0.4,0-0.72,0.32-0.72,0.72
			s0.32,0.72,0.72,0.72c0.4,0,0.72-0.32,0.72-0.72C210.48,85.21,210.16,84.89,209.77,84.89L209.77,84.89z M204.6,88.05
			c0.23-7.35,6.79-6.72,6.7-6.74C207.28,80.29,203.7,84.08,204.6,88.05z"/>
		<path class="st33" d="M170.98,78.68c-0.36,0-0.6,0.44-0.53,0.99c0.07,0.55,0.42,0.99,0.78,0.99s0.6-0.44,0.53-0.99
			C171.69,79.12,171.34,78.68,170.98,78.68L170.98,78.68z M180.25,78.68c0.36,0,0.6,0.44,0.53,0.99c-0.07,0.55-0.42,0.99-0.78,0.99
			s-0.6-0.44-0.53-0.99C179.53,79.12,179.88,78.68,180.25,78.68L180.25,78.68z M185.79,78.68c0.26,0,0.33,0.36,0.16,0.79
			c-0.18,0.44-0.53,0.79-0.8,0.79c-0.26,0-0.33-0.36-0.16-0.79C185.17,79.04,185.52,78.68,185.79,78.68L185.79,78.68z M165.43,78.68
			c-0.26,0-0.33,0.36-0.16,0.79c0.18,0.44,0.53,0.79,0.8,0.79s0.33-0.36,0.16-0.79C166.05,79.04,165.7,78.68,165.43,78.68
			L165.43,78.68z M175.61,78.28c-0.4,0-0.72,0.56-0.72,1.24s0.32,1.24,0.72,1.24c0.4,0,0.72-0.56,0.72-1.24
			C176.33,78.83,176.01,78.28,175.61,78.28z"/>
		<path class="st39" d="M177.17,161.56v-60.35c0-1.16-0.7-2.1-1.56-2.11c-0.86,0.01-1.56,0.96-1.56,2.11v60.35
			c0.52,0.01,1.04,0.02,1.56,0.02C176.13,161.58,176.65,161.57,177.17,161.56L177.17,161.56z M196.45,99.09
			c0.51,0,0.93,0.95,0.93,2.11v56.56c-0.61,0.22-1.23,0.43-1.85,0.64v-57.2C195.53,100.05,195.94,99.09,196.45,99.09L196.45,99.09z
			 M190.54,99.09c0.69,0,1.26,0.95,1.26,2.11v58.3c-0.83,0.22-1.67,0.42-2.52,0.6v-58.9C189.28,100.05,189.85,99.09,190.54,99.09
			L190.54,99.09z M183.48,99.09c0.79,0,1.43,0.95,1.43,2.11v59.69c-0.95,0.14-1.9,0.26-2.86,0.35v-60.04
			C182.05,100.05,182.69,99.09,183.48,99.09L183.48,99.09z M154.77,99.09c-0.51,0-0.93,0.95-0.93,2.11v56.56
			c0.61,0.22,1.23,0.44,1.85,0.64v-57.2C155.7,100.05,155.28,99.09,154.77,99.09L154.77,99.09z M160.68,99.09
			c-0.69,0-1.26,0.95-1.26,2.11v58.3c0.83,0.22,1.67,0.42,2.52,0.6v-58.9C161.94,100.05,161.37,99.09,160.68,99.09L160.68,99.09z
			 M167.75,99.09c-0.79,0-1.43,0.95-1.43,2.11v59.7c0.95,0.14,1.9,0.25,2.86,0.35v-60.05C169.17,100.05,168.53,99.09,167.75,99.09z"
			/>
		<path class="st33" d="M151.82,86.88c0-6.37-6.38-11.09-12.4-9.59C139.42,77.29,149.58,76.05,151.82,86.88L151.82,86.88z
			 M125.54,87.76c0.55,7.96,10.06,13.39,18,10.62C142.09,98.59,129.52,100.32,125.54,87.76L125.54,87.76z M132.51,86.56
			c2.5,8.08,10.19,6.04,10.19,6.04C138.23,94.71,132.5,91.5,132.51,86.56L132.51,86.56z M136.53,86.66c1.33,3.4,4.71,2.67,4.71,2.67
			C139.1,90.25,136.65,89.12,136.53,86.66L136.53,86.66z M141.45,84.89c0.4,0,0.72,0.32,0.72,0.72s-0.32,0.72-0.72,0.72
			s-0.72-0.32-0.72-0.72C140.74,85.21,141.06,84.89,141.45,84.89L141.45,84.89z M146.62,88.05c-0.23-7.35-6.79-6.72-6.7-6.74
			C143.94,80.29,147.52,84.08,146.62,88.05z"/>
	</g>
</g>
</svg>
