<?xml version="1.0" encoding="utf-8"?>
<!-- Generator: Adobe Illustrator 27.8.1, SVG Export Plug-In . SVG Version: 6.00 Build 0)  -->
<svg version="1.1" xmlns="http://www.w3.org/2000/svg" xmlns:xlink="http://www.w3.org/1999/xlink" x="0px" y="0px"
	 viewBox="0 0 350 230" style="enable-background:new 0 0 350 230;" xml:space="preserve">
<style type="text/css">
	.st0{fill:#F5FFCA;}
	.st1{fill:#FFE8CA;}
	.st2{fill:#CAFFD6;}
	.st3{fill:#CCFDFF;}
	.st4{fill:#FFE4CA;}
	.st5{fill:#FFF5CC;}
	.st6{fill:#C72D2D;}
	.st7{fill:#00030E;}
	.st8{fill:#1A2655;}
	.st9{fill:#001044;}
	.st10{fill:#FFFAD4;}
	.st11{fill:#465EAA;}
	.st12{fill:#C7FEFF;}
	.st13{fill:#003F49;}
	.st14{fill:#8E032B;}
	.st15{fill:#87622B;}
	.st16{fill:#83014C;}
	.st17{fill:#B72204;}
	.st18{fill:#015254;}
	.st19{fill:#5B9C40;}
	.st20{fill:#0055B6;}
	.st21{fill-rule:evenodd;clip-rule:evenodd;fill:#3A1D03;}
	.st22{fill-rule:evenodd;clip-rule:evenodd;fill:#723600;}
	.st23{fill:#00438D;}
	.st24{fill:#162E50;}
	.st25{fill:#F6921E;}
	.st26{fill:#00237A;}
	.st27{fill:#563B00;}
	.st28{fill:#00FFB6;}
	.st29{fill:#9500FF;}
	.st30{fill:#440000;}
	.st31{fill:#45EDFF;}
	.st32{fill:#CC7F7F;}
	.st33{fill-rule:evenodd;clip-rule:evenodd;fill:#FFFFFF;}
	.st34{fill-rule:evenodd;clip-rule:evenodd;fill:#DDBC66;}
	.st35{fill-rule:evenodd;clip-rule:evenodd;fill:#041440;}
	.st36{fill-rule:evenodd;clip-rule:evenodd;fill:url(#SVGID_1_);}
	.st37{fill:#041440;}
	.st38{fill-rule:evenodd;clip-rule:evenodd;fill:url(#SVGID_00000098934659147713937780000018093662522025065873_);}
	.st39{fill-rule:evenodd;clip-rule:evenodd;fill:#A47B3E;}
	.st40{fill:#102D56;}
	.st41{fill:#BA9966;}
	.st42{fill:url(#SVGID_00000003801278428650548510000009545615318642575545_);}
	.st43{fill-rule:evenodd;clip-rule:evenodd;fill:url(#SVGID_00000147920024556402340320000017926934751742988691_);}
	.st44{fill:url(#SVGID_00000018214760481919140940000013624516735521983374_);}
	.st45{fill:#6D1B1B;}
	.st46{fill:#E8C052;}
	.st47{fill:#161314;}
	.st48{fill:#BD6A25;}
	.st49{fill:url(#SVGID_00000134953769863457625450000016856979063398556566_);}
	.st50{fill:#E0902C;}
	.st51{fill:#292F38;}
	.st52{fill:#E3B92E;}
	.st53{fill:#252D35;}
	.st54{fill:#D8A843;}
	.st55{fill:#4D479E;}
</style>
<g id="Layer_1">
</g>
<g id="Layer_2">
</g>
<g id="Layer_3">
</g>
<g id="Layer_4">
</g>
<g id="Layer_5">
</g>
<g id="Layer_6">
</g>
<g id="Layer_7">
</g>
<g id="Layer_8">
</g>
<g id="Layer_9">
</g>
<g id="Layer_10">
</g>
<g id="Layer_11">
</g>
<g id="Layer_12">
</g>
<g id="Layer_13">
</g>
<g id="Layer_14">
</g>
<g id="Layer_15">
	<g>
		<path class="st52" d="M177.84,29.58c0-2.86-0.05-5.72,0.01-8.58c0.86,0.6,1.67,1.58,2.45,2.31c8.49,8.03,16.96,14.1,29.04,14.72
			c1.81,0.09,3.66,0.1,5.46-0.02c1.38-0.09,2.76-0.25,4.14-0.29c-2.61,1.92-5.35,3.68-7.98,5.58l-11.49,8.07
			c-6.88-4.89-13.14-7.51-21.6-8.19L177.84,29.58z M210.6,47.27c-2.04,1.43-4.1,2.82-6.09,4.31c2.4,1,4.86,2.2,7.12,3.48l0,59.77
			c0.34,0,0.76-0.02,1.09,0.07c1.1,0.31,3.84,2.13,4.66,2.99c1.25,1.31,0.84,3.92,0.83,5.63c-0.01,0.25-0.07,0.6,0.08,0.81
			c1.86,0.52,2.58,1.46,4.17,2.33c2.03-3.48,1.71-8.79,1.72-12.71c0.01-2.89-0.05-5.79,0.04-8.68c-1.63-2.06-3.15-4.15-4.42-6.45
			c-4.6-8.33-5.58-18.03-5.56-27.39l10.01,0.08l0-24.82l0.03-6.95c0-0.53,0.12-1.38,0-1.86c-0.02-0.06-0.06-0.11-0.09-0.16
			l-0.05-0.03c-2,1.56-4.13,2.97-6.21,4.42L210.6,47.27z"/>
		<path class="st53" d="M173.68,50.29c-0.35,0.47-0.57,1.01-0.67,1.59c-0.16,0.92-0.06,1.97-0.06,2.9c0.01,1.6,0,3.19,0.03,4.79
			c-4.71,1.3-9.38,2.75-14.01,4.35c-0.57-0.35-1.25-0.53-1.92-0.35c-0.64,0.17-1.17,0.66-1.47,1.24c-0.04,0.08-0.08,0.15-0.11,0.23
			c-0.03,0.08-0.06,0.16-0.08,0.24c-0.02,0.08-0.04,0.17-0.06,0.25c-0.02,0.08-0.03,0.17-0.03,0.25c-0.01,0.09-0.01,0.17-0.01,0.26
			c0,0.09,0.01,0.17,0.02,0.26c0.01,0.08,0.02,0.17,0.04,0.25c0.02,0.08,0.04,0.17,0.07,0.25c0.16,0.5,0.49,0.86,0.85,1.23
			c-0.56,1.16-1.02,2.38-1.54,3.56c-1.18,2.67-2.34,5.35-3.48,8.05c-1.01,2.4-2.19,4.81-3.05,7.26l-1.08,0
			c0.21,2.11,1.08,3.75,2.72,5.11c2.68,2.22,6.18,2.61,9.54,2.28c2.51-0.25,4.73-1.03,6.35-3.04c1.02-1.27,1.67-2.81,2.16-4.35
			l-1.15-0.07c-1.39-3.43-2.89-6.82-4.32-10.24c-1.09-2.61-2.35-5.92-3.69-8.35c0.72-0.53,1.16-0.92,1.37-1.82
			c4.3-1.22,8.57-2.62,12.83-3.97l0.01,52.88l-0.93,0.3c2.02,2.55,3.43,4.94,4.45,8.05l0.42-1.28c0.93-2.56,2.12-4.63,3.87-6.72
			l-0.9-0.3l0.04-52.92c4.49,1.26,9.02,2.6,13.43,4.13c0.23,0.77,0.46,1.1,1.1,1.56c-1.57,3.69-3.02,7.42-4.52,11.14
			c-1,2.49-2.1,4.97-2.99,7.5l-2.05-0.02c1.08,3.01,2.61,5.18,5.58,6.57c2.91,1.35,6.7,1.42,9.69,0.28c0.16-0.06,0.32-0.13,0.48-0.2
			c0.16-0.07,0.31-0.14,0.47-0.22c0.15-0.08,0.31-0.16,0.46-0.25c0.15-0.09,0.3-0.17,0.45-0.27c0.15-0.09,0.29-0.19,0.43-0.29
			c0.14-0.1,0.28-0.2,0.42-0.31c0.14-0.11,0.27-0.22,0.4-0.33c0.13-0.11,0.26-0.23,0.38-0.35c0.13-0.12,0.25-0.24,0.37-0.37
			c0.12-0.13,0.24-0.25,0.35-0.38c0.11-0.13,0.22-0.26,0.33-0.4c0.11-0.14,0.21-0.28,0.31-0.42c0.1-0.14,0.2-0.29,0.29-0.43
			c0.09-0.15,0.18-0.29,0.27-0.45c0.09-0.15,0.17-0.3,0.24-0.46c0.08-0.15,0.15-0.31,0.22-0.47c0.16-0.39,0.32-0.78,0.46-1.17
			l-1.9-0.01c-1.66-4.44-3.36-8.87-5.11-13.28c-0.72-1.81-1.33-3.83-2.29-5.53c0.59-0.59,1.03-1.18,1.06-2.06
			c0-0.09,0-0.17-0.01-0.25c-0.01-0.08-0.02-0.17-0.03-0.25c-0.02-0.08-0.04-0.17-0.06-0.25c-0.02-0.08-0.05-0.16-0.09-0.24
			c-0.03-0.08-0.07-0.15-0.11-0.23c-0.04-0.07-0.09-0.15-0.13-0.22c-0.05-0.07-0.1-0.14-0.15-0.2c-0.06-0.06-0.11-0.13-0.18-0.19
			c-0.06-0.06-0.12-0.11-0.19-0.17c-0.07-0.05-0.14-0.1-0.21-0.15c-0.07-0.05-0.14-0.09-0.22-0.13c-0.08-0.04-0.15-0.07-0.23-0.1
			c-0.08-0.03-0.16-0.06-0.24-0.08c-0.08-0.02-0.16-0.04-0.25-0.05c-0.08-0.01-0.17-0.02-0.25-0.03c-0.08-0.01-0.17-0.01-0.25,0
			c-0.53,0.02-0.99,0.21-1.46,0.44c-4.76-1.5-9.6-2.79-14.33-4.37c-0.02-1.55-0.02-3.09,0-4.64c0-1.06,0.13-2.31-0.13-3.33
			c-0.04-0.16-0.09-0.31-0.15-0.46c-0.06-0.15-0.13-0.29-0.21-0.43c-0.08-0.14-0.17-0.27-0.27-0.4c-0.1-0.13-0.21-0.25-0.32-0.36
			c-0.71-0.69-1.61-0.95-2.58-0.93c-0.04,0-0.09,0-0.13,0.01C175.07,49.12,174.29,49.47,173.68,50.29z M156.99,74.87l-0.01,12
			l-7.55-0.01l-0.07-0.04c-0.03-0.23,0.01-0.31,0.09-0.53c0.58-1.49,1.31-2.98,1.95-4.45l3.46-8.15c0.73-1.73,1.51-3.45,2.08-5.23
			c0.09,0.09,0.09,0.21,0.09,0.33C157.16,70.7,157,72.92,156.99,74.87z M164.11,83.06c0.38,0.91,1.42,2.92,1.53,3.76l-7.69,0.06
			c-0.04-4.08,0.01-8.16,0.01-12.24c0-2.06-0.14-4.18-0.03-6.23C158.33,68.86,163.31,81.12,164.11,83.06z M196.11,68.31
			c0.04,0.03,0.07,0.05,0.11,0.08c0.31,0.24,0.47,0.72,0.62,1.07c1.38,3.27,2.55,6.67,3.84,9.99c0.54,1.38,2.72,6.55,2.81,7.38
			l-7.45-0.01c-0.1-3.68,0.02-7.39,0.03-11.08C196.08,73.31,195.89,70.73,196.11,68.31z M195.13,73.49l0,13.31l-7.14,0l-0.09-0.08
			c0.01-0.35,1.7-4.15,1.94-4.73c1.25-3.02,2.42-6.09,3.62-9.13c0.54-1.38,1.01-2.83,1.65-4.16
			C195.32,69.38,195.14,72.49,195.13,73.49z M174.34,60.22c0-0.07,0.01-0.14,0.02-0.21c0.01-0.07,0.03-0.14,0.04-0.2
			c0.02-0.07,0.04-0.13,0.06-0.2c0.27-0.73,0.78-1.09,1.46-1.41c0.42-0.04,0.84-0.04,1.25,0.09c0.53,0.17,0.99,0.54,1.24,1.04
			c0.03,0.06,0.06,0.13,0.08,0.19c0.02,0.06,0.04,0.13,0.06,0.2c0.02,0.07,0.03,0.13,0.04,0.2c0.01,0.07,0.02,0.14,0.02,0.21
			c0,0.07,0,0.14,0,0.21c0,0.07-0.01,0.14-0.02,0.21c-0.01,0.07-0.02,0.14-0.04,0.2c-0.02,0.07-0.04,0.13-0.06,0.2
			c-0.27,0.76-0.85,1.19-1.56,1.5c-0.4,0.06-0.79,0.03-1.18-0.1c-0.07-0.02-0.13-0.05-0.2-0.08c-0.06-0.03-0.13-0.06-0.19-0.1
			c-0.06-0.04-0.12-0.08-0.18-0.12c-0.06-0.04-0.11-0.09-0.16-0.14c-0.05-0.05-0.1-0.1-0.15-0.15s-0.09-0.11-0.13-0.17
			c-0.04-0.06-0.08-0.12-0.12-0.18c-0.04-0.06-0.07-0.12-0.1-0.19c-0.03-0.06-0.06-0.13-0.08-0.19c-0.02-0.07-0.04-0.13-0.06-0.2
			c-0.02-0.07-0.03-0.13-0.04-0.2c-0.01-0.07-0.02-0.14-0.02-0.21C174.33,60.36,174.34,60.29,174.34,60.22z"/>
		<path class="st6" d="M176.64,151.79c-0.24-0.1-0.46-0.23-0.69-0.35c0.09-1.54-0.54-4.22-0.92-5.78
			c-2.19-9.01-6.5-17.7-12.71-24.64c-3.79-4.23-9.75-9.48-15.63-9.78c-0.8-0.04-1.63-0.01-2.43,0.12c2.82-2.17,7.1-2.55,10.52-2.12
			c6.95,0.88,13.57,5.74,17.76,11.21c1.64,2.13,3.04,4.47,3.95,7c3.03-7.22,9.43-14,16.75-16.97c4.84-1.97,10.1-2.06,14.97-0.13
			c-8.18,1.2-16.23,8.55-21.02,14.99C181.41,133.1,177.51,142.1,176.64,151.79z M135.5,63.91l0.02,38.46l-0.04,14.22
			c0,2.83-0.06,5.68,0.07,8.51c0.36,0.35,0.79,0.6,1.21,0.87c0-2.61-0.03-5.21,0-7.82c0.08-0.66,0.98-1.21,1.48-1.61
			c0.99-0.78,2.04-1.52,3-2.34l0.01-34.77c-0.01-8.25-0.09-16.51,0-24.76c2.28-1.03,4.61-1.95,6.89-2.98l-13.7-9.62l-3.7-2.58
			c-0.62-0.44-1.26-0.95-1.92-1.31l0.01,29.49C131.11,66.53,133.27,65.15,135.5,63.91z M238.83,111.61
			c-1.01,0.56-2.01,1.16-3.05,1.67c-1.11-0.42-2.11-1.05-3.2-1.51c-0.02,3.52-0.09,7.64-1.53,10.9c-0.12,0.26-0.69,1.31-0.61,1.51
			c0.31,0.04,0.59,0.05,0.9,0.04l9.71-0.02c-1.67-3.35-1.92-6.11-2.08-9.78C238.96,114.01,239.06,111.81,238.83,111.61z
			 M229.29,67.67c-0.98-2.8-0.34-5.04,0.95-7.6c0.32-0.65,0.67-1.28,1.04-1.9c0.38-0.62,0.78-1.22,1.21-1.8
			c1.31-1.79,2.75-3.45,3.72-5.47c0.55,0.65,0.91,1.57,1.4,2.28c0.87,1.28,1.89,2.46,2.79,3.72c1.9,2.67,3.89,5.9,3.3,9.31
			c-0.32,1.83-1.83,4.69-3.36,5.75c-1.33-0.04-2.66-0.04-3.99-0.01l-0.04-0.11c-0.77-2.33-0.41-4.57,0.76-6.7
			c0.45-0.82,0.97-1.6,1.37-2.44c0.16-0.32,0.36-0.97,0.24-1.31c-1.34,1.55-2.89,2.98-3.62,4.94c-0.76,2.05-0.52,3.67,0.37,5.61
			l-3.36,0.01C230.89,70.74,229.84,69.26,229.29,67.67z M136.63,39.71c-0.86-0.6-1.88-1.2-2.63-1.94c2.21,0.27,4.51,0.32,6.74,0.31
			c15.04-0.07,23.78-6.76,33.97-17.03c0.21,0.67,0.04,6.23,0.04,7.46l0.02,14.74c-7.73,0.34-15.46,3.47-21.58,8.13
			c-3.82-2.64-7.6-5.32-11.36-8.04C140.12,42.09,138.36,40.92,136.63,39.71z M217.47,74.83l37.31,0
			c-0.28,9.75-2.94,19.34-8.87,27.16c-2.77,3.75-6.32,6.61-10.23,9.1c-2.49-1.65-4.76-3.3-6.88-5.41
			c-6.55-6.5-9.69-14.91-10.82-23.93C217.69,79.46,217.48,77.15,217.47,74.83z M174.36,60.64c-0.01-0.07-0.02-0.14-0.02-0.21
			c0-0.07,0-0.14,0-0.21c0-0.07,0.01-0.14,0.02-0.21c0.01-0.07,0.03-0.14,0.04-0.2c0.02-0.07,0.04-0.13,0.06-0.2
			c0.27-0.73,0.78-1.09,1.46-1.41c0.42-0.04,0.84-0.04,1.25,0.09c0.53,0.17,0.99,0.54,1.24,1.04c0.03,0.06,0.06,0.13,0.08,0.19
			c0.02,0.06,0.04,0.13,0.06,0.2c0.02,0.07,0.03,0.13,0.04,0.2c0.01,0.07,0.02,0.14,0.02,0.21c0,0.07,0,0.14,0,0.21
			c0,0.07-0.01,0.14-0.02,0.21c-0.01,0.07-0.02,0.14-0.04,0.2c-0.02,0.07-0.04,0.13-0.06,0.2c-0.27,0.76-0.85,1.19-1.56,1.5
			c-0.4,0.06-0.79,0.03-1.18-0.1c-0.07-0.02-0.13-0.05-0.2-0.08c-0.06-0.03-0.13-0.06-0.19-0.1c-0.06-0.04-0.12-0.08-0.18-0.12
			c-0.06-0.04-0.11-0.09-0.16-0.14c-0.05-0.05-0.1-0.1-0.15-0.15s-0.09-0.11-0.13-0.17c-0.04-0.06-0.08-0.12-0.12-0.18
			c-0.04-0.06-0.07-0.12-0.1-0.19c-0.03-0.06-0.06-0.13-0.08-0.19c-0.02-0.07-0.04-0.13-0.06-0.2
			C174.38,60.77,174.36,60.71,174.36,60.64z"/>
		<path class="st53" d="M246.47,130.67l1.79-0.01l-0.01,4l-2.53,0.02l-22.48,0l0-4.07l2.28,0c0-1.45,0.02-2.89,0.05-4.34
			c6.97,0.03,13.93,0.03,20.9-0.02L246.47,130.67z M98.3,116.7l0-10.61L98.28,68.8c2.55,0.96,5.05,2.03,7.65,2.83
			c10.09,3.1,17.39,1.26,26.85-2.74l-0.02,38.39l-0.01,8.64c0,2.01,0.23,4.33-0.23,6.27c-0.52,2.22-1.93,3.64-3.81,4.81
			c-4.44,2.66-8.8,5.44-13.23,8.12c-1.3-0.92-2.73-1.7-4.08-2.53l-6.95-4.35c-1.42-0.88-3.1-1.69-4.3-2.86
			c-0.89-0.87-1.55-2.1-1.74-3.33C98.15,120.34,98.31,118.43,98.3,116.7z M102.38,121.88c1.31,1.02,2.74,1.87,4.14,2.74
			c2.96,1.84,6.12,3.61,9.01,5.52c1.45-0.72,2.83-1.62,4.21-2.46c1.87-1.14,3.77-2.27,5.6-3.48c1.15-0.74,2.37-1.48,3.41-2.37
			l-0.02-46.56c-9.63,3.3-16.77,3.4-26.35-0.21L102.38,121.88z M115.69,127.76c2.61-1.43,5.12-3.18,7.65-4.76
			c1.05-0.69,2.07-1.48,3.14-2.13l-0.01-42.57c-6.6,2.15-15.37,2.53-21.86-0.17c-0.14,5.52,0.02,11.07,0.02,16.59l-0.01,26.2
			C108.26,123.25,111.96,125.55,115.69,127.76z M221.81,132.99c-3.92,1.71-7.73,3.76-11.56,5.66l-18.38,8.91
			c-2.16,1.03-4.32,2.05-6.49,3.05c-1.38,0.64-2.75,1.35-4.17,1.88c1.13-0.89,2.47-1.59,3.7-2.34c2.32-1.4,4.64-2.79,6.98-4.15
			c6.32-3.74,12.72-7.35,19.2-10.81c3.4-1.85,6.82-3.88,10.35-5.47c-1.02-0.66-2.04-1.32-3.01-2.05c-3.14,2.02-6.55,3.66-9.8,5.49
			c-6.41,3.54-12.73,7.23-18.97,11.07c-3.49,2.11-7.82,4.6-10.87,7.26c1.44-2.38,3.05-4.54,4.76-6.72
			c6.59-8.39,13.21-13.52,22.18-19.12c2.8-1.75,5.67-3.54,8.63-5.02c0.06,1.65,0.19,3.29,0.39,4.93c0.17-1.84,0.21-3.67,0.22-5.52
			c-0.87-0.55-1.73-1.13-2.61-1.67c-10.63,5.64-22.54,13.78-29.72,23.56c-1.28,1.75-2.51,3.62-3.56,5.52
			c-0.69,1.24-1.57,3.35-2.43,4.35c-0.24-0.1-0.46-0.23-0.69-0.35c-0.21-0.12-3.14-5.4-3.62-6.18c-0.84-1.35-1.74-2.65-2.7-3.92
			c-0.96-1.27-1.97-2.49-3.04-3.67c-5.52-6.14-12.47-10.86-19.36-15.33c-2.17-1.41-4.34-2.91-6.57-4.23
			c-0.58,0.79-1.19,1.53-1.82,2.28c2.93,1.8,5.84,3.65,8.72,5.54c4.45,2.9,8.88,5.9,12.84,9.45c2.76,2.48,5.24,5.19,7.62,8.02
			c2.18,2.59,4.22,5.23,6.02,8.1c-3.24-2.58-6.94-4.73-10.49-6.85c-4.42-2.67-8.87-5.28-13.36-7.84c-3.81-2.22-7.63-4.4-11.48-6.54
			c-1.89-1.07-3.76-2.28-5.71-3.22c-0.57,0.78-1.21,1.52-1.76,2.32c8.04,4.35,15.97,8.95,23.9,13.49c4.02,2.27,8,4.59,11.96,6.97
			c1.51,0.9,3.09,1.74,4.56,2.7c-1.27-0.33-2.53-0.95-3.72-1.49c-2.22-1.01-4.42-2.09-6.62-3.13
			c-10.39-4.91-20.58-10.22-30.88-15.33l0,10.14c0,1.8-0.16,3.77,0.13,5.54c0.14,0.87,0.47,1.84,1.09,2.49
			c0.99,1.03,4.65,2.6,6.11,3.35l10.76,5.58c8.82,4.54,17.6,9.16,26.33,13.88l-0.01-14.48l2.91,0.01l0.04,14.63l30.19-16.08
			c3.02-1.59,6.04-3.21,9.03-4.84c1.1-0.6,2.41-1.15,3.42-1.88c0.5-0.36,0.95-0.91,1.13-1.51c0.48-1.6,0.24-5.05,0.24-6.88
			L221.81,132.99z"/>
	</g>
</g>
</svg>
