<?xml version="1.0" encoding="utf-8"?>
<!-- Generator: Adobe Illustrator 27.8.1, SVG Export Plug-In . SVG Version: 6.00 Build 0)  -->
<svg version="1.1" xmlns="http://www.w3.org/2000/svg" xmlns:xlink="http://www.w3.org/1999/xlink" x="0px" y="0px"
	 viewBox="0 0 350 230" style="enable-background:new 0 0 350 230;" xml:space="preserve">
<style type="text/css">
	.st0{fill:#F5FFCA;}
	.st1{fill:#FFE8CA;}
	.st2{fill:#CAFFD6;}
	.st3{fill:#CCFDFF;}
	.st4{fill:#FFE4CA;}
	.st5{fill:#FFF5CC;}
	.st6{fill:#C72D2D;}
	.st7{fill:#00030E;}
	.st8{fill:#1A2655;}
	.st9{fill:#001044;}
	.st10{fill:#FFFAD4;}
	.st11{fill:#465EAA;}
	.st12{fill:#C7FEFF;}
	.st13{fill:#003F49;}
	.st14{fill:#8E032B;}
	.st15{fill:#87622B;}
	.st16{fill:#83014C;}
	.st17{fill:#B72204;}
	.st18{fill:#015254;}
	.st19{fill:#5B9C40;}
	.st20{fill:#0055B6;}
	.st21{fill-rule:evenodd;clip-rule:evenodd;fill:#3A1D03;}
	.st22{fill-rule:evenodd;clip-rule:evenodd;fill:#723600;}
	.st23{fill:#00438D;}
	.st24{fill:#162E50;}
	.st25{fill:#F6921E;}
	.st26{fill:#00237A;}
	.st27{fill:#563B00;}
	.st28{fill:#00FFB6;}
	.st29{fill:#9500FF;}
	.st30{fill:#440000;}
	.st31{fill:#45EDFF;}
	.st32{fill:#CC7F7F;}
	.st33{fill-rule:evenodd;clip-rule:evenodd;fill:#FFFFFF;}
	.st34{fill-rule:evenodd;clip-rule:evenodd;fill:#DDBC66;}
	.st35{fill-rule:evenodd;clip-rule:evenodd;fill:#041440;}
	.st36{fill-rule:evenodd;clip-rule:evenodd;fill:url(#SVGID_1_);}
	.st37{fill:#041440;}
	.st38{fill-rule:evenodd;clip-rule:evenodd;fill:url(#SVGID_00000087403079061909020890000017907475062875643562_);}
	.st39{fill-rule:evenodd;clip-rule:evenodd;fill:#A47B3E;}
	.st40{fill:#102D56;}
	.st41{fill:#BA9966;}
	.st42{fill:url(#SVGID_00000047747775833455134580000016962070901305554310_);}
	.st43{fill-rule:evenodd;clip-rule:evenodd;fill:url(#SVGID_00000032640822806103997770000009891869550953102507_);}
	.st44{fill:url(#SVGID_00000093870441793837236270000000266209474031627448_);}
	.st45{fill:#6D1B1B;}
	.st46{fill:#E8C052;}
	.st47{fill:#161314;}
	.st48{fill:#BD6A25;}
	.st49{fill:url(#SVGID_00000101078135074689687130000002510053930892655004_);}
	.st50{fill:#E0902C;}
	.st51{fill:#292F38;}
	.st52{fill:#E3B92E;}
	.st53{fill:#252D35;}
	.st54{fill:#D8A843;}
	.st55{fill:#4D479E;}
</style>
<g id="Layer_1">
</g>
<g id="Layer_2">
</g>
<g id="Layer_3">
</g>
<g id="Layer_4">
</g>
<g id="Layer_5">
</g>
<g id="Layer_6">
</g>
<g id="Layer_7">
</g>
<g id="Layer_8">
</g>
<g id="Layer_9">
</g>
<g id="Layer_10">
</g>
<g id="Layer_11">
</g>
<g id="Layer_12">
</g>
<g id="Layer_13">
</g>
<g id="Layer_14">
</g>
<g id="Layer_15">
	<g>
		<path class="st54" d="M117.7,106.77c-2.41-0.61-4.87-1.08-7.18-2c-0.29-0.79-0.57-1.59-0.85-2.39c-0.27-0.8-0.54-1.6-0.8-2.41
			c-0.26-0.81-0.51-1.61-0.75-2.43c-0.24-0.81-0.47-1.62-0.7-2.44c-0.22-0.82-0.44-1.63-0.64-2.45c-0.21-0.82-0.4-1.64-0.59-2.47
			c-0.19-0.82-0.37-1.65-0.54-2.48c-0.17-0.83-0.33-1.66-0.49-2.49c-0.15-0.83-0.3-1.67-0.44-2.5c-0.14-0.83-0.26-1.67-0.38-2.51
			c-0.12-0.84-0.23-1.68-0.33-2.52c-0.1-0.84-0.19-1.68-0.28-2.52c-0.08-0.84-0.16-1.68-0.23-2.53c-0.07-0.84-0.12-1.69-0.17-2.53
			c-0.05-0.84-0.09-1.69-0.12-2.54c-0.03-0.85-0.05-1.69-0.07-2.54c0.62,1.25,1.16,2.55,1.78,3.8c2.04,4.21,4.22,8.34,6.53,12.41
			c0.75-7.81,2.05-15.87,4.24-23.41c0.89-3,1.89-5.97,3.01-8.9c1.12-2.93,2.35-5.81,3.68-8.64c-0.45,4.87-0.69,9.74-0.74,14.63
			c-0.03,2.25-0.11,4.52,0.02,6.77c1.24-1.8,2.39-3.67,3.74-5.4c10.97-14.02,24.96-22.71,40.16-31.41c1.87-1.07,3.77-2.13,5.6-3.28
			c1.17-0.73,2.3-1.64,3.52-2.27c1.68,1.19,3.4,2.32,5.16,3.39c3.26,1.95,6.63,3.7,9.88,5.67c11.31,6.84,21.43,13.99,30.52,23.7
			c1.46,1.53,2.86,3.11,4.2,4.75c1.34,1.64,2.62,3.32,3.83,5.05c0.12-5.05-0.49-10.2-0.97-15.23c-0.19-2.03-0.52-4.13-0.52-6.16
			c6.47,14.19,10.2,26.33,10.51,42.09c1.89-3.65,3.82-7.27,5.6-10.97c1.03-2.15,1.9-4.41,2.99-6.53
			c-0.35,13.28-1.68,27.3-7.17,39.57c-2.24,0.7-4.54,1.27-6.82,1.81c1.05-14.37-0.71-26.67-7.88-39.34
			c-2.03-3.59-4.4-7.09-7.1-10.21c-11.45-13.22-27.99-21.8-42.39-31.37l-0.09,0.07c-2.05,1.58-4.47,2.85-6.66,4.23l-12.72,8.14
			c-3.95,2.57-7.89,5.31-11.53,8.3c-13.58,11.16-23.44,25.65-25.84,43.33c-0.14,1.1-0.25,2.21-0.34,3.32
			c-0.08,1.11-0.14,2.22-0.17,3.33c-0.03,1.11-0.03,2.22-0.01,3.34c0.02,1.11,0.08,2.22,0.16,3.33
			C117.41,104.19,117.47,105.52,117.7,106.77z"/>
		<path class="st8" d="M165.52,162.41c-7.59-7.99-17.23-13.21-27.39-17.22c-12.72-5.03-28.78-9.09-39.34-18
			c-1.16-0.98-2.2-2.07-3.24-3.18c1.06,5.44,4.47,11.73,7.86,16.09c0.65,0.84,1.32,1.67,2.01,2.47c0.69,0.8,1.41,1.59,2.15,2.35
			c0.74,0.76,1.5,1.5,2.29,2.21c0.78,0.72,1.59,1.41,2.42,2.07c4.42,3.54,9.31,6.28,14.37,8.76c5.67,2.73,11.43,5.23,17.3,7.51
			c3.39,1.34,6.8,2.61,10.17,4c7.65,3.16,14.64,6.17,20.5,12.17c7.8-8.44,22.69-12.91,33.21-17.16c8.19-3.31,16.24-6.75,23.71-11.51
			c8.01-5.11,14.77-12.09,19.13-20.57c1.39-2.7,2.54-5.53,3.2-8.5c-11.74,12.69-30.82,16.04-46.15,22.49
			c-7.36,3.1-14.77,7.45-20.7,12.8c-2.73,2.46-5.27,5.19-7.31,8.26c-0.83,1.25-1.44,2.75-2.39,3.89
			c6.56-15.34,21.4-23.61,35.81-30.35c8.53-3.99,17.15-7.74,24.24-14.11c7.59-6.82,13.31-16.21,15.24-26.27
			c0.41-2.14,0.6-4.33,0.72-6.5c-3.53,5.35-8.56,8.57-14.58,10.52c-2.24,0.7-4.54,1.27-6.82,1.81c-3.24,0.7-6.47,1.48-9.67,2.34
			c-2.63,0.68-5.27,1.37-7.83,2.26c-2.86,0.99-5.62,2.19-8.38,3.44c-0.13-2.69-0.03-5.43-0.03-8.13c-2.17-0.34-4.23-0.99-6.13-2.11
			c-4.08-2.41-7.64-6.77-8.84-11.38c0.5,0,1.64,0.14,2.03-0.11c3.16-7.26,6.15-14.62,9.26-21.91c0.86-2.03,1.74-4.05,2.65-6.05
			c0.59-1.31,1.31-2.66,1.73-4.02c-0.15-0.86,0.2-2.07,0.22-2.98c0.56-0.01,1.12-0.01,1.68,0.02c0.52-0.15,0.94-0.45,1.29-0.85
			c0.06-0.07,0.11-0.14,0.17-0.21c0.05-0.07,0.1-0.15,0.14-0.23c0.04-0.08,0.08-0.16,0.12-0.24c0.04-0.08,0.07-0.17,0.09-0.25
			c0.03-0.09,0.05-0.17,0.07-0.26c0.02-0.09,0.03-0.18,0.04-0.27c0.01-0.09,0.01-0.18,0.01-0.27c0-0.09-0.01-0.18-0.02-0.27
			c-0.01-0.09-0.02-0.18-0.04-0.27c-0.02-0.09-0.04-0.18-0.07-0.26c-0.03-0.09-0.06-0.17-0.09-0.25c-0.03-0.08-0.07-0.16-0.12-0.24
			c-0.04-0.08-0.09-0.16-0.14-0.23c-0.05-0.07-0.11-0.15-0.16-0.21c-0.06-0.07-0.12-0.13-0.18-0.2c-0.06-0.06-0.13-0.12-0.2-0.18
			c-0.83-0.64-1.7-0.59-2.68-0.48c0-0.08,0-0.16,0-0.24c0.01-0.59-0.02-1.24-0.48-1.67c-0.25-0.23-0.54-0.33-0.87-0.37
			c-1.14-0.12-2.33-0.06-3.48-0.06l-5.74-0.01c-6.88-0.03-13.76-0.02-20.63,0.04c-0.68,0.04-1.35,0.02-2.03,0
			c-6.55-0.15-13.12-0.05-19.67-0.03l-6.07,0c-1.31,0-2.66-0.07-3.97,0.08c-0.4,0.04-0.61,0.13-0.9,0.41
			c-0.21,0.2-0.39,0.41-0.56,0.65c-0.01,0.34,0.03,0.72-0.09,1.04c-1.07-0.03-2.06,0.08-2.86,0.88c-0.48,0.48-0.69,1.08-0.69,1.76
			c0.01,0.89,0.34,1.8,0.99,2.41c0.19,0.17,0.39,0.32,0.6,0.47c-0.91,2.07-1.85,4.15-2.67,6.27c-0.02,1.03-0.82,2.36-1.26,3.31
			c0.22,0.06,1.02,0.33,1.19,0.22c0.82-0.53,0.73-2.39,1.59-2.92c0.64-1.41,1.27-2.82,1.88-4.24c0.37-0.84,0.72-1.79,1.24-2.56
			l0.14,0.04l-0.12-0.06l0.12-0.02c0.22,0.9-0.04,1.82,0.25,2.76c0.32,1.08,0.9,2.12,1.35,3.16l2.42,5.68l6.34,15.31
			c1.1,2.67,2.3,5.31,3.3,8.01c0.88,0,1.76,0.01,2.64,0.02c-1.36,4.74-4.92,8.57-9.2,10.93c-0.26,0.14-0.52,0.28-0.79,0.41
			c-0.27,0.13-0.53,0.25-0.81,0.37c-0.27,0.12-0.55,0.23-0.82,0.33c-0.28,0.1-0.56,0.2-0.84,0.29c-0.28,0.09-0.57,0.17-0.85,0.25
			c-0.29,0.08-0.57,0.15-0.86,0.21c-0.29,0.06-0.58,0.12-0.87,0.16c-0.29,0.05-0.59,0.09-0.88,0.12l0,8.65
			c-8.52-4.7-15.69-6.19-25.16-7.89c-2.41-0.61-4.87-1.08-7.18-2c-5.5-2.08-11.41-5-14.79-10.02c0.49,6.71,2.46,12.98,5.58,18.92
			c6.79,12.91,18.33,20.04,31.19,26c2.75,1.28,5.56,2.44,8.31,3.73c5.66,2.66,11.24,5.74,16.19,9.59
			c4.71,3.66,8.89,7.95,12.12,12.98c0.65,1.01,1.25,2.06,1.8,3.13c0.25,0.48,0.49,1.31,0.81,1.7c0.03,0.03,0.07,0.06,0.1,0.08
			l-0.03,0.07l0.03,0.09c-0.84-1.15-1.52-2.45-2.31-3.64C168.36,165.63,166.98,163.94,165.52,162.41z M206.79,54.99
			c0.1-0.47,0.36-0.67,0.75-0.92c0.05,0,0.09,0,0.14,0.01c0.39,0.02,0.72,0.1,0.99,0.41c0.19,0.22,0.26,0.51,0.22,0.79
			c-0.08,0.52-0.37,0.79-0.78,1.09c-0.18,0-0.39,0.01-0.57-0.03c-0.24-0.05-0.47-0.26-0.6-0.46
			C206.77,55.61,206.73,55.3,206.79,54.99z M142.56,55.55c-0.13,0.42-0.39,0.61-0.76,0.82c-0.19-0.02-0.38-0.04-0.56-0.08
			c-0.27-0.07-0.53-0.34-0.66-0.58c-0.15-0.27-0.16-0.54-0.07-0.83c0.12-0.38,0.45-0.56,0.79-0.71c0.12,0.01,0.24,0.01,0.36,0.03
			c0.3,0.04,0.62,0.2,0.78,0.47C142.61,54.93,142.66,55.23,142.56,55.55z M162.84,120.25c-0.02-0.97-0.07-2.06,0.47-2.91
			c0.44-0.7,1.15-1.04,1.93-1.21l12.58-0.04c1.82,0,4.44-0.2,6.16,0.1c0.63,0.11,1.06,0.32,1.51,0.79c0.89,0.92,0.91,2.11,0.88,3.3
			l-2.38-0.01L162.84,120.25z M177.8,112.59l-6.43,0l-0.01-1l-0.02-45c1.09,0.53,2.17,1.06,3.32,1.43c1.05-0.45,2.07-0.93,3.09-1.44
			c0.17,0.53,0.03,9.37,0.03,10.48L177.8,112.59z M176.39,113.41c1.67,0,3.7-0.16,5.31,0.01c0.45,0.05,0.93,0.15,1.29,0.46
			c0.29,0.25,0.47,0.61,0.49,0.99c0.02,0.25,0.02,0.28-0.13,0.46c-0.46,0.04-0.93,0.02-1.39,0.02l-11.25,0.01
			c-1.45,0-3.49,0.16-4.86-0.02c-0.22-0.03-0.21-0.04-0.35-0.23c0-0.15,0.01-0.24,0.07-0.37c0.3-0.61,1.04-1.09,1.64-1.32
			C170.26,113.29,173.35,113.4,176.39,113.41z M211.46,116.36c4.03-1.75,8.34-2.99,12.61-3.99c3.51-0.82,7.06-1.49,10.59-2.22
			c2.87-0.59,5.79-1.12,8.51-2.24c1.36-0.56,2.58-1.28,3.79-2.11c-0.01,0.05-0.01,0.1-0.02,0.14c-0.23,1.7-2.69,6.15-3.63,7.68
			c-12.18,19.81-32.77,21.46-49.94,34.11c-7.12,5.25-13.22,11.78-15.88,20.39c-0.4,1.3-0.81,2.64-1.02,3.99
			c-0.46-1.04,0.85-9.7,1.15-11.29C181.46,140.96,192.59,124.57,211.46,116.36z M151.96,66.56c-0.16,0.59-0.36,1.1-0.76,1.57
			c-0.38,0.44-0.88,0.68-1.46,0.69c-0.08,0-0.16,0-0.24,0c-0.08-0.01-0.16-0.01-0.23-0.03c-0.08-0.01-0.15-0.03-0.23-0.05
			c-0.08-0.02-0.15-0.04-0.22-0.07c-0.07-0.03-0.14-0.06-0.22-0.09c-0.07-0.04-0.14-0.07-0.2-0.12c-0.07-0.04-0.13-0.09-0.19-0.14
			c-0.06-0.05-0.12-0.1-0.18-0.15c-0.47-0.46-0.71-1.07-0.71-1.73c0-0.55,0.17-1.09,0.59-1.47c0.6-0.54,1.48-0.71,2.26-0.68
			c2.85-2.93,7.67-5.96,11.69-6.6c3.62-0.57,7.31,0.67,10.23,2.77c0.48-0.77,1.06-1.48,1.43-2.32c-0.35-0.11-0.72-0.23-1.03-0.43
			c-0.05-0.03-0.09-0.06-0.14-0.09c-0.04-0.03-0.09-0.07-0.13-0.1c-0.04-0.03-0.09-0.07-0.13-0.11c-0.04-0.04-0.08-0.07-0.12-0.11
			c-0.04-0.04-0.08-0.08-0.11-0.12c-0.04-0.04-0.07-0.08-0.11-0.12c-0.03-0.04-0.07-0.09-0.1-0.13c-0.03-0.04-0.06-0.09-0.09-0.14
			c-0.03-0.05-0.06-0.09-0.09-0.14c-0.03-0.05-0.05-0.1-0.08-0.14c-0.03-0.05-0.05-0.1-0.07-0.15c-0.02-0.05-0.04-0.1-0.06-0.15
			c-0.02-0.05-0.04-0.1-0.06-0.16c-0.02-0.05-0.03-0.1-0.05-0.16c-0.01-0.05-0.03-0.11-0.04-0.16c-0.01-0.05-0.02-0.11-0.03-0.16
			c-0.17-0.95,0.1-1.92,0.69-2.68c0.68-0.89,1.57-1.34,2.67-1.46c0.43,0.03,0.83,0.09,1.24,0.24c0.92,0.36,1.67,1.04,2.04,1.96
			c0.34,0.84,0.36,1.81-0.01,2.65c-0.44,1.01-1.21,1.44-2.18,1.84c0.4,0.86,0.96,1.68,1.43,2.51c2.11-1.87,4.92-2.83,7.7-3.06
			c5.9-0.48,10.55,3.26,14.76,6.85c0.44,0.06,0.93,0.1,1.33,0.3c0.49,0.23,0.9,0.6,1.06,1.13c0.16,0.54,0.05,1.18-0.22,1.67
			c-0.04,0.07-0.08,0.14-0.12,0.2c-0.05,0.06-0.09,0.13-0.14,0.19c-0.05,0.06-0.11,0.12-0.16,0.17c-0.06,0.05-0.12,0.11-0.18,0.15
			c-0.06,0.05-0.13,0.09-0.19,0.13c-0.07,0.04-0.14,0.08-0.21,0.11c-0.07,0.03-0.14,0.06-0.22,0.09c-0.07,0.03-0.15,0.05-0.23,0.07
			c-0.54,0.13-1.13,0.08-1.6-0.23c-0.58-0.38-0.88-0.98-1.02-1.63c-2.09-1.84-4.53-3.45-7.17-4.4c-6.35-2.28-10.39,1.6-15.76,4.13
			c-3.49-1.54-6.49-4.12-10.37-4.68C159.54,61.14,155.52,63.89,151.96,66.56z M171.62,167.53c-1.99-5.99-5.87-11.22-10.48-15.46
			c-5.58-5.14-12.29-9.11-19.12-12.35c-3.82-1.81-7.74-3.42-11.54-5.3c-1.76-0.87-3.45-1.88-5.15-2.86
			c-10.97-6.37-18.66-13.91-23.41-25.81c0.78,0.32,1.54,0.74,2.31,1.09c1.61,0.73,3.26,1.35,4.95,1.87
			c4.49,1.38,9.13,1.96,13.71,2.93c11.81,2.5,22.31,7.08,31.17,15.44c9.85,9.29,15.28,22.01,17.65,35.15c0.6,3.3,1.1,6.61,1.2,9.97
			C172.66,171.87,171.88,168.32,171.62,167.53z M145.41,70.68c3,7.4,6.19,14.73,9.07,22.17c-0.85,0.33-9.78,0.02-11.63,0.13
			l-0.01-18.32c0-3.39-0.18-6.85,0.05-10.23C143.68,66.53,144.56,68.59,145.41,70.68z M206.04,65.32c-0.49,1.51-1.15,2.97-1.76,4.43
			c-1.1,2.63-2.21,5.26-3.34,7.88l-3.98,9.38c-0.81,1.94-1.58,3.91-2.45,5.82c3.82-0.12,7.68,0.16,11.49-0.1l0.06-18.06
			C206.07,71.57,206.17,68.42,206.04,65.32z"/>
		<path class="st55" d="M130.44,80.95l7.26-16.73c-0.02,1.03-0.82,2.36-1.26,3.31c0.22,0.06,1.02,0.33,1.19,0.22
			c0.82-0.53,0.73-2.39,1.59-2.92c-0.64,1.72-1.54,3.34-2.26,5.03l-7.54,17.49c-0.78,1.82-1.83,3.78-2.47,5.61l10.89,0.06
			c1.61,0,3.43,0.17,5.01-0.05c1.85-0.1,10.78,0.21,11.63-0.13c0.47,0.17,1.16,0.08,1.66,0.07c0.88,0,1.76,0.01,2.64,0.02
			c-1.36,4.74-4.92,8.57-9.2,10.93c-0.26,0.14-0.52,0.28-0.79,0.41c-0.27,0.13-0.53,0.25-0.81,0.37c-0.27,0.12-0.55,0.23-0.82,0.33
			c-0.28,0.1-0.56,0.2-0.84,0.29c-0.28,0.09-0.57,0.17-0.85,0.25c-0.29,0.08-0.57,0.15-0.86,0.21c-0.29,0.06-0.58,0.12-0.87,0.16
			c-0.29,0.05-0.59,0.09-0.88,0.12c-3.79,0.52-8.03-0.52-11.25-2.54c-3.69-2.32-6.93-6.16-7.9-10.48l1.56,0
			C126.8,88.91,128.69,84.95,130.44,80.95z M177.51,46.52c0.81-2.44-1.97-6.68-3.05-8.86c-0.75,1.82-1.81,3.51-2.5,5.36
			c-0.44,1.2-0.81,2.57-0.21,3.78c0.39,0.8,1.02,1.22,1.84,1.5l0,1.99c0.68,0.02,1.35,0.03,2.03,0l0.06-1.85
			C176.52,47.97,177.19,47.48,177.51,46.52z M215.51,104.81c4.96-2.31,8.17-7.04,10.01-12.06c-0.73-0.02-1.46-0.02-2.18-0.02
			c-1.62-4.68-3.65-9.23-5.61-13.77l-6.08-14.17c-1.01-2.33-2.07-4.64-3.05-6.99c-0.56-0.02-1.12-0.03-1.68-0.02
			c-0.02,0.91-0.37,2.12-0.22,2.98c0.33-0.62,0.58-1.29,0.84-1.94c1.4,3.72,3.08,7.35,4.66,10.99l6.21,14.53
			c1.18,2.78,2.43,5.55,3.54,8.36l-10.36-0.04c-1.83,0-3.76-0.11-5.58,0.07c-3.8,0.26-7.67-0.03-11.49,0.1
			c-0.44,0.05-1.08,0.15-1.47-0.09c-0.39,0.25-1.53,0.11-2.03,0.11c1.2,4.61,4.76,8.98,8.84,11.38c1.9,1.12,3.96,1.78,6.13,2.11
			C209.32,106.6,212.45,106.23,215.51,104.81z"/>
	</g>
</g>
</svg>
