<?xml version="1.0" encoding="utf-8"?>
<!-- Generator: Adobe Illustrator 27.8.1, SVG Export Plug-In . SVG Version: 6.00 Build 0)  -->
<svg version="1.1" xmlns="http://www.w3.org/2000/svg" xmlns:xlink="http://www.w3.org/1999/xlink" x="0px" y="0px"
	 viewBox="0 0 350 230" style="enable-background:new 0 0 350 230;" xml:space="preserve">
<style type="text/css">
	.st0{fill:#F5FFCA;}
	.st1{fill:#FCFFE9;}
	.st2{fill:#CBE5BE;}
	.st3{fill:#CCFDFF;}
	.st4{fill:#FFE4CA;}
	.st5{fill:#CAFFD6;}
	.st6{fill:#FFF5CC;}
	.st7{fill:#001044;}
	.st8{fill:#FFF9DE;}
	.st9{fill:#FFFAD4;}
	.st10{fill:#E8C052;}
	.st11{fill:#C7FEFF;}
	.st12{fill:#003F49;}
	.st13{fill:#8E032B;}
	.st14{fill:#87622B;}
	.st15{fill:#83014C;}
	.st16{fill:#B72204;}
	.st17{fill:#015254;}
	.st18{fill:#5B9C40;}
	.st19{fill:#0055B6;}
	.st20{fill-rule:evenodd;clip-rule:evenodd;fill:#3A1D03;}
	.st21{fill-rule:evenodd;clip-rule:evenodd;fill:#723600;}
	.st22{fill:#00438D;}
	.st23{fill:#162E50;}
	.st24{fill:#F6921E;}
	.st25{fill:#00237A;}
	.st26{fill:#563B00;}
	.st27{fill:#00FFB6;}
	.st28{fill:#9500FF;}
	.st29{fill:#440000;}
	.st30{fill:#45EDFF;}
	.st31{fill:#CC7F7F;}
	.st32{fill-rule:evenodd;clip-rule:evenodd;fill:#FFFFFF;}
	.st33{fill-rule:evenodd;clip-rule:evenodd;fill:#DDBC66;}
	.st34{fill-rule:evenodd;clip-rule:evenodd;fill:#041440;}
	.st35{fill-rule:evenodd;clip-rule:evenodd;fill:url(#SVGID_1_);}
	.st36{fill:#041440;}
	.st37{fill-rule:evenodd;clip-rule:evenodd;fill:url(#SVGID_00000107583885556072075660000000121277752247367609_);}
	.st38{fill-rule:evenodd;clip-rule:evenodd;fill:#A47B3E;}
	.st39{fill:#102D56;}
	.st40{fill:#BA9966;}
	.st41{fill:url(#SVGID_00000009583390127812444400000014367425771330262169_);}
	.st42{fill-rule:evenodd;clip-rule:evenodd;fill:url(#SVGID_00000172424028454707816990000008347962782770226315_);}
	.st43{fill:url(#SVGID_00000181772749364819523080000006491221014883453323_);}
	.st44{fill:#6D1B1B;}
	.st45{fill:#161314;}
	.st46{fill:#BD6A25;}
	.st47{fill:url(#SVGID_00000157296891512619981450000003717687911063576983_);}
	.st48{fill:#E0902C;}
	.st49{fill:#292F38;}
	.st50{fill:#E3B92E;}
	.st51{fill:#252D35;}
	.st52{fill:#C72D2D;}
	.st53{fill:#D8A843;}
	.st54{fill:#1A2655;}
	.st55{fill:#4D479E;}
	.st56{fill:url(#SVGID_00000116924230516615156440000013974824996130337706_);}
	.st57{fill:#A6A8AB;}
	.st58{fill:#0267A3;}
	.st59{fill:url(#SVGID_00000013168640935702155030000015765121674890988216_);}
	.st60{fill:#0F8CB4;}
	.st61{fill:#0A3755;}
	.st62{fill:#4B281E;}
	.st63{fill:#1C4D60;}
	.st64{fill:#00324B;}
	.st65{fill:#007DA5;}
	.st66{fill:#FFFFFF;}
	.st67{fill:#FABE0F;}
	.st68{fill:#BC8B0F;}
	.st69{fill:#82D2F5;}
	.st70{fill:#66B2CC;}
	.st71{fill:#71B9D3;}
	.st72{fill:url(#SVGID_00000174575734104948545760000015673426848644681638_);}
	.st73{fill:url(#SVGID_00000135653070757056849240000013160287834123601799_);}
	.st74{fill:url(#SVGID_00000101095924464811117650000008658873275431107718_);}
	.st75{fill:#4D4D4D;}
	.st76{fill:url(#SVGID_00000091735082300601673310000008814086433276154018_);}
	.st77{fill:url(#SVGID_00000106852104533162651840000009748496497449837246_);}
	.st78{fill:url(#SVGID_00000031889197798866655900000008521066994667185030_);}
	.st79{fill:url(#SVGID_00000170249858190435091370000015849496420752727727_);}
	.st80{fill:url(#SVGID_00000052087406371794023300000001950950767940163717_);}
	.st81{fill-rule:evenodd;clip-rule:evenodd;fill:#C16A14;}
	.st82{fill-rule:evenodd;clip-rule:evenodd;fill:#BA880C;}
	.st83{fill-rule:evenodd;clip-rule:evenodd;fill:#755914;}
	.st84{fill-rule:evenodd;clip-rule:evenodd;fill:#FABE0F;}
	.st85{fill:#782D2D;}
	.st86{fill:#AA6565;}
	.st87{fill:url(#SVGID_00000153664569846666121920000005897104552832287922_);}
	.st88{fill-rule:evenodd;clip-rule:evenodd;fill:url(#SVGID_00000026122226611837985290000015751743316588122774_);}
	.st89{fill-rule:evenodd;clip-rule:evenodd;fill:url(#SVGID_00000183962354943246570020000006387447160679710636_);}
	.st90{fill-rule:evenodd;clip-rule:evenodd;fill:#9B5E26;}
	.st91{fill-rule:evenodd;clip-rule:evenodd;fill:#683C18;}
	.st92{fill:url(#XMLID_00000070817624471229267450000003714018433940715442_);}
	.st93{fill:#5B0505;}
	.st94{fill:#840808;}
	.st95{fill:#750404;}
	.st96{fill:url(#SVGID_00000103257975568859625370000003304465323932599460_);}
	.st97{fill:url(#SVGID_00000010306729967263860190000006968585501335145370_);}
	.st98{fill:#B5B5B5;}
	.st99{fill:url(#SVGID_00000075150266531541960040000010035501901465026180_);}
	.st100{fill:url(#SVGID_00000077311667985899323350000015584150002571852938_);}
	.st101{fill:#3C5A82;}
	.st102{fill:#44688E;}
	.st103{fill:#11114C;}
	.st104{fill:url(#SVGID_00000040574002137671587740000003693965553670769566_);}
	.st105{fill:#7B7BBF;}
	.st106{fill:#6B6BC6;}
	.st107{fill:#C7C7F9;}
	.st108{fill:#6B6B6B;}
	.st109{fill:#363663;}
	.st110{fill:#0C5977;}
	.st111{fill:#136D89;}
	.st112{fill:#64BCE8;}
	.st113{fill:url(#SVGID_00000171712382208550430440000006632471187128482699_);}
	.st114{fill:url(#SVGID_00000140728259249783399360000008923847115756845235_);}
	.st115{fill:#DC730A;}
	.st116{fill:#F4F4F4;}
	.st117{fill:#A3591D;}
	.st118{fill:#030333;}
	.st119{fill:url(#SVGID_00000009570731952161523040000013724268820229909667_);}
	.st120{fill:url(#SVGID_00000048495516164830959840000009698389418418131345_);}
	.st121{fill:url(#SVGID_00000047780379269162568050000018222695589181450882_);}
	.st122{fill:url(#SVGID_00000054264560209807620200000001031050755538246073_);}
	.st123{fill:url(#SVGID_00000055706822881546657530000009545802436937735822_);}
	.st124{fill:url(#SVGID_00000036950391551511943830000008531340185067931565_);}
	.st125{fill:url(#SVGID_00000058556705357190043190000012014670271876019389_);}
	.st126{fill:url(#SVGID_00000025433783029283781680000000301610390720506555_);}
	.st127{fill:url(#SVGID_00000015317667968276787870000006095539673901603204_);}
	.st128{fill:url(#SVGID_00000049209325627964445440000016693487043624047780_);}
	.st129{fill:url(#SVGID_00000162335646268409483200000010111054815395998629_);}
	.st130{fill:url(#SVGID_00000101100286535727528190000014426705185807315105_);}
	.st131{fill:url(#SVGID_00000122688830280304884220000001622557976581551496_);}
	.st132{fill:url(#SVGID_00000048500445503453062010000001781116003167429051_);}
	.st133{fill:url(#SVGID_00000139976896602281133240000010089172915669273489_);}
	.st134{fill:url(#SVGID_00000097499727117799814010000015626006860014086299_);}
	.st135{fill:url(#SVGID_00000123439487189370945110000005955173503654814100_);}
	.st136{fill:url(#SVGID_00000171679549208959241950000008299296706507055760_);}
	.st137{fill:url(#SVGID_00000140015552746010096520000001625520821251922325_);}
	.st138{fill:url(#SVGID_00000158747195810426860040000015126808823463121046_);}
	.st139{fill:url(#SVGID_00000007400169790532599150000000922711149459450287_);}
	.st140{fill:url(#SVGID_00000142878627759990023990000013727597609726049206_);}
	.st141{fill:url(#SVGID_00000161608407549861959510000009562934530105573250_);}
	.st142{fill:url(#SVGID_00000136412878235716634890000012438145024312812196_);}
	.st143{fill:url(#SVGID_00000085226721392008808910000007514665193010022546_);}
	.st144{fill:url(#SVGID_00000021095496647876742820000005532823475935083917_);}
	.st145{fill:url(#SVGID_00000159462318139411281560000007504875768292308637_);}
	.st146{fill:url(#SVGID_00000130608590716713716450000008173305747619954609_);}
	.st147{fill:url(#SVGID_00000182530531899933844330000012766302215072555698_);}
	.st148{fill:url(#SVGID_00000099647649066107504870000005754612786536163461_);}
	.st149{fill:url(#SVGID_00000152243660565027330830000003009759010014594996_);}
	.st150{fill:url(#SVGID_00000080187382709366800620000000963295884873600903_);}
	.st151{fill:url(#SVGID_00000093134822634380940540000004588043683685472897_);}
	.st152{fill:url(#SVGID_00000034051705365153616930000011131480501905822123_);}
	.st153{fill:url(#SVGID_00000106856649363130793260000001026015716246376602_);}
	.st154{fill:url(#SVGID_00000047028845879686466740000003733578041348099742_);}
	.st155{fill:#ED9443;}
	.st156{fill:url(#SVGID_00000042714781410802227940000004823323030484087177_);}
	.st157{fill:#4B4BAA;}
	.st158{fill:#5D5D91;}
</style>
<g id="Layer_1">
</g>
<g id="Layer_2">
</g>
<g id="Layer_3">
</g>
<g id="Layer_4">
</g>
<g id="Layer_5">
</g>
<g id="Layer_6">
</g>
<g id="Layer_7">
</g>
<g id="Layer_8">
</g>
<g id="Layer_9">
</g>
<g id="Layer_10">
</g>
<g id="Layer_11">
</g>
<g id="Layer_12">
</g>
<g id="Layer_13">
</g>
<g id="Layer_14">
</g>
<g id="Layer_15">
	<linearGradient id="SVGID_1_" gradientUnits="userSpaceOnUse" x1="114.7496" y1="53.5782" x2="256.556" y2="140.2879">
		<stop  offset="0" style="stop-color:#FCC25B"/>
		<stop  offset="0.6095" style="stop-color:#CB9421"/>
		<stop  offset="1" style="stop-color:#B07A00"/>
	</linearGradient>
	<path style="fill:url(#SVGID_1_);" d="M228.13,52.85c1.74,2.58,0.28,5.15,0.28,5.15s-2.93,0.39-4.67-2.19
		c-1.74-2.58-1.63-7.15-1.63-7.15S226.4,50.27,228.13,52.85z M233.47,50.28c0,0-3.31,3.16-3.9,6.21c-0.6,3.06,1.75,4.85,1.75,4.85
		s2.85-0.78,3.44-3.84C235.36,54.44,233.47,50.28,233.47,50.28z M225.52,63.74c3.05,0.59,4.85-1.76,4.85-1.76s-0.78-2.85-3.84-3.45
		c-3.05-0.59-7.21,1.3-7.21,1.3S222.47,63.15,225.52,63.74z M237.64,57.29c0,0-3.61,2.81-4.5,5.79c-0.89,2.98,1.27,5,1.27,5
		s2.91-0.5,3.8-3.48C239.1,61.62,237.64,57.29,237.64,57.29z M228.39,69.89c2.98,0.89,5-1.27,5-1.27s-0.5-2.91-3.48-3.8
		c-2.98-0.9-7.31,0.57-7.31,0.57S225.4,69,228.39,69.89z M240.65,64.58c0,0-3.84,2.48-4.98,5.38c-1.15,2.89,0.84,5.09,0.84,5.09
		s2.95-0.25,4.09-3.14C241.73,69.01,240.65,64.58,240.65,64.58z M230.34,76.34c2.89,1.14,5.09-0.84,5.09-0.84s-0.25-2.95-3.14-4.09
		c-2.89-1.14-7.33-0.06-7.33-0.06S227.45,75.19,230.34,76.34z M243.11,72.7c0,0-4.17,1.89-5.73,4.57c-1.57,2.69,0.06,5.15,0.06,5.15
		s2.95,0.2,4.52-2.48C243.53,77.26,243.11,72.7,243.11,72.7z M231.17,82.79c2.68,1.56,5.16-0.06,5.16-0.06s0.2-2.95-2.49-4.52
		c-2.69-1.56-7.24-1.15-7.24-1.15S228.48,81.22,231.17,82.79z M244.49,80.52c0,0-4.34,1.44-6.18,3.96
		c-1.83,2.51-0.47,5.14-0.47,5.14s2.92,0.5,4.75-2.01C244.43,85.09,244.49,80.52,244.49,80.52z M231.57,89.31
		c2.51,1.84,5.14,0.48,5.14,0.48s0.5-2.92-2.01-4.75c-2.51-1.83-7.08-1.89-7.08-1.89S229.06,87.48,231.57,89.31z M244.85,88.68
		c0,0-4.5,0.85-6.65,3.09c-2.16,2.25-1.16,5.03-1.16,5.03s2.82,0.89,4.97-1.36C244.17,93.21,244.85,88.68,244.85,88.68z
		 M230.85,95.67c2.24,2.16,5.03,1.16,5.03,1.16s0.88-2.82-1.36-4.97c-2.24-2.16-6.76-2.83-6.76-2.83S228.61,93.51,230.85,95.67z
		 M244.06,96.83c0,0-4.56,0.35-6.95,2.33c-2.39,1.99-1.71,4.87-1.71,4.87s2.71,1.2,5.1-0.79
		C242.89,101.25,244.06,96.83,244.06,96.83z M229.38,102.22c1.98,2.39,4.86,1.71,4.86,1.71s1.2-2.71-0.79-5.1
		c-1.99-2.39-6.4-3.56-6.4-3.56S227.39,99.82,229.38,102.22z M242.31,104.73c0,0-4.57-0.12-7.15,1.61c-2.58,1.74-2.2,4.66-2.2,4.66
		s2.57,1.47,5.15-0.27C240.69,109.01,242.31,104.73,242.31,104.73z M227.16,108.58c1.73,2.59,4.67,2.2,4.67,2.2s1.47-2.56-0.27-5.15
		c-1.74-2.59-6.01-4.19-6.01-4.19S225.42,106.01,227.16,108.58z M239.84,112.52c0,0-4.51-0.74-7.31,0.63
		c-2.79,1.36-2.81,4.32-2.81,4.32s2.35,1.8,5.15,0.43C237.66,116.54,239.84,112.52,239.84,112.52z M224.31,114.29
		c1.37,2.8,4.32,2.81,4.32,2.81s1.8-2.35,0.44-5.14c-1.37-2.8-5.39-4.98-5.39-4.98S222.94,111.5,224.31,114.29z M236.49,120.01
		c0,0-4.36-1.38-7.32-0.43c-2.96,0.95-3.4,3.87-3.4,3.87s2.07,2.12,5.02,1.17C233.75,123.67,236.49,120.01,236.49,120.01z
		 M220.86,119.53c0.95,2.96,3.88,3.4,3.88,3.4s2.12-2.07,1.17-5.02c-0.95-2.96-4.62-5.7-4.62-5.7S219.91,116.56,220.86,119.53z
		 M232.19,126.46c0,0-4.2-1.82-7.24-1.17c-3.04,0.65-3.77,3.52-3.77,3.52s1.84,2.32,4.88,1.66
		C229.09,129.83,232.19,126.46,232.19,126.46z M216.69,124.4c0.64,3.04,3.51,3.78,3.51,3.78s2.32-1.84,1.67-4.88
		c-0.65-3.04-4.02-6.13-4.02-6.13S216.04,121.36,216.69,124.4z M227.17,132.66c0,0-3.98-2.26-7.07-1.94
		c-3.09,0.31-4.13,3.08-4.13,3.08s1.58,2.5,4.67,2.19C223.73,135.67,227.17,132.66,227.17,132.66z M211.98,128.93
		c0.31,3.1,3.08,4.14,3.08,4.14s2.5-1.58,2.18-4.67c-0.31-3.1-3.33-6.54-3.33-6.54S211.67,125.83,211.98,128.93z M221.07,138.14
		c0,0-3.63-2.78-6.73-2.89c-3.11-0.12-4.52,2.48-4.52,2.48s1.22,2.7,4.33,2.81C217.25,140.66,221.07,138.14,221.07,138.14z
		 M206.54,132.36c-0.11,3.11,2.48,4.52,2.48,4.52s2.69-1.22,2.81-4.32c0.12-3.11-2.4-6.93-2.4-6.93S206.65,129.26,206.54,132.36z
		 M121.86,52.85c-1.74,2.58-0.28,5.15-0.28,5.15s2.93,0.39,4.67-2.19c1.74-2.58,1.63-7.15,1.63-7.15S123.6,50.27,121.86,52.85z
		 M115.23,57.5c0.59,3.06,3.44,3.84,3.44,3.84s2.35-1.79,1.76-4.85c-0.59-3.05-3.9-6.21-3.9-6.21S114.64,54.44,115.23,57.5z
		 M130.68,59.84c0,0-4.16-1.89-7.21-1.3c-3.06,0.59-3.84,3.45-3.84,3.45s1.8,2.35,4.85,1.76C127.53,63.15,130.68,59.84,130.68,59.84
		z M111.79,64.59c0.89,2.98,3.8,3.48,3.8,3.48s2.16-2.02,1.27-5c-0.89-2.98-4.5-5.79-4.5-5.79S110.9,61.62,111.79,64.59z
		 M127.4,65.39c0,0-4.33-1.47-7.31-0.57c-2.98,0.89-3.48,3.8-3.48,3.8s2.02,2.16,5,1.27C124.6,69,127.4,65.39,127.4,65.39z
		 M109.41,71.9c1.14,2.9,4.09,3.14,4.09,3.14s1.98-2.2,0.84-5.09c-1.15-2.89-4.99-5.38-4.99-5.38S108.27,69.01,109.41,71.9z
		 M125.04,71.36c0,0-4.44-1.09-7.33,0.06c-2.89,1.14-3.14,4.09-3.14,4.09s2.2,1.98,5.09,0.84
		C122.55,75.19,125.04,71.36,125.04,71.36z M108.04,79.95c1.57,2.69,4.52,2.48,4.52,2.48s1.63-2.47,0.06-5.15
		c-1.56-2.69-5.73-4.57-5.73-4.57S106.47,77.26,108.04,79.95z M123.41,77.06c0,0-4.56-0.41-7.25,1.15
		c-2.69,1.57-2.49,4.52-2.49,4.52s2.47,1.62,5.16,0.06C121.52,81.22,123.41,77.06,123.41,77.06z M107.4,87.6
		c1.83,2.51,4.75,2.01,4.75,2.01s1.36-2.63-0.47-5.14c-1.84-2.51-6.18-3.96-6.18-3.96S105.57,85.09,107.4,87.6z M122.39,83.14
		c0,0-4.57,0.06-7.08,1.89c-2.51,1.84-2.01,4.75-2.01,4.75s2.62,1.36,5.14-0.48C120.94,87.48,122.39,83.14,122.39,83.14z
		 M107.99,95.45c2.15,2.24,4.97,1.36,4.97,1.36s1-2.78-1.16-5.03c-2.15-2.24-6.65-3.09-6.65-3.09S105.83,93.21,107.99,95.45z
		 M122.24,89.02c0,0-4.52,0.67-6.76,2.83c-2.24,2.15-1.36,4.97-1.36,4.97s2.78,1,5.03-1.16C121.38,93.51,122.24,89.02,122.24,89.02z
		 M109.5,103.24c2.39,1.99,5.1,0.79,5.1,0.79s0.68-2.87-1.71-4.87c-2.4-1.99-6.95-2.33-6.95-2.33S107.11,101.25,109.5,103.24z
		 M122.95,95.26c0,0-4.42,1.17-6.41,3.56c-1.99,2.39-0.79,5.1-0.79,5.1s2.88,0.68,4.86-1.71C122.61,99.82,122.95,95.26,122.95,95.26
		z M111.89,110.74c2.58,1.74,5.15,0.27,5.15,0.27s0.39-2.93-2.2-4.66c-2.58-1.73-7.15-1.61-7.15-1.61S109.31,109.01,111.89,110.74z
		 M124.46,101.44c0,0-4.28,1.61-6.01,4.19c-1.73,2.59-0.27,5.15-0.27,5.15s2.94,0.39,4.67-2.2
		C124.58,106.01,124.46,101.44,124.46,101.44z M115.13,117.9c2.79,1.38,5.14-0.43,5.14-0.43s-0.02-2.96-2.81-4.32
		c-2.79-1.37-7.31-0.63-7.31-0.63S112.34,116.54,115.13,117.9z M126.32,106.98c0,0-4.02,2.18-5.39,4.98
		c-1.37,2.79,0.44,5.14,0.44,5.14s2.96-0.02,4.32-2.81C127.06,111.5,126.32,106.98,126.32,106.98z M119.21,124.62
		c2.95,0.95,5.02-1.17,5.02-1.17s-0.44-2.92-3.4-3.87c-2.96-0.96-7.32,0.43-7.32,0.43S116.25,123.67,119.21,124.62z M128.71,112.21
		c0,0-3.66,2.74-4.62,5.7c-0.95,2.95,1.17,5.02,1.17,5.02s2.92-0.44,3.88-3.4C130.09,116.56,128.71,112.21,128.71,112.21z
		 M123.95,130.47c3.04,0.65,4.88-1.66,4.88-1.66s-0.73-2.87-3.77-3.52c-3.04-0.65-7.24,1.17-7.24,1.17S120.91,129.83,123.95,130.47z
		 M132.15,117.16c0,0-3.37,3.09-4.02,6.13c-0.64,3.04,1.67,4.88,1.67,4.88s2.86-0.73,3.51-3.78
		C133.96,121.36,132.15,117.16,132.15,117.16z M129.36,135.99c3.1,0.31,4.67-2.19,4.67-2.19s-1.04-2.77-4.13-3.08
		c-3.1-0.32-7.07,1.94-7.07,1.94S126.27,135.67,129.36,135.99z M136.08,121.86c0,0-3.02,3.44-3.33,6.54
		c-0.32,3.09,2.19,4.67,2.19,4.67s2.77-1.04,3.08-4.14C138.33,125.83,136.08,121.86,136.08,121.86z M135.86,140.54
		c3.11-0.11,4.33-2.81,4.33-2.81s-1.41-2.6-4.52-2.48c-3.11,0.11-6.73,2.89-6.73,2.89S132.75,140.66,135.86,140.54z M140.56,125.63
		c0,0-2.51,3.82-2.4,6.93c0.12,3.11,2.81,4.32,2.81,4.32s2.59-1.41,2.48-4.52C143.35,129.26,140.56,125.63,140.56,125.63z"/>
	<path class="st115" d="M172.44,49.5c0-1.41,1.15-18.5,2.56-18.5s2.55,17.09,2.55,18.5c0,1.41-1.14,2.56-2.55,2.56
		S172.44,50.91,172.44,49.5z M207.63,91.56c-0.06,1.61-1.93,2.91-4.23,2.91h-12.45c-2.31,0-4.18-1.3-4.23-2.91h0.59l6.3-8.66
		c-0.51-0.7-0.81-1.56-0.81-2.49c0-2.12,1.55-3.88,3.57-4.21c7.07-8.12,8.41-18.88,0.81-22.09c-8.34-3.51-15.27,0.55-18.85,4.8v1
		h0.81c-7.25,17.19,7.24,29.18,0,46.36h-8.28c-7.24-17.18,7.25-29.17,0-46.36h0.81v-1c-3.58-4.25-10.51-8.31-18.85-4.8
		c-7.6,3.21-6.26,13.97,0.83,22.09c2.02,0.34,3.55,2.1,3.55,4.21c0,0.93-0.3,1.79-0.8,2.49l6.29,8.66h0.59
		c-0.05,1.61-1.92,2.91-4.23,2.91H146.6c-2.3,0-4.17-1.3-4.23-2.91h0.51l6.48-8.83c-0.44-0.67-0.69-1.46-0.69-2.32
		c0-1.42,0.69-2.67,1.76-3.45c-0.43-0.58-0.96-1.2-1.6-1.84c-6.03-6.06-7.49-21.78,4.38-25.62c7.94-2.56,14.79,1.27,18.46,4.1v-1.47
		h6.66v1.47c3.67-2.83,10.52-6.66,18.46-4.1c11.87,3.84,10.41,19.56,4.38,25.62c-0.64,0.64-1.17,1.26-1.6,1.84
		c1.07,0.78,1.76,2.03,1.76,3.45c0,0.86-0.25,1.65-0.69,2.32l6.48,8.83H207.63z M152.72,84.67c-1.34-0.06-2.52-0.75-3.24-1.77
		l-6.36,8.66h9.6V84.67z M152.94,84.68v6.88h9.51l-6.18-8.49C155.5,84.05,154.29,84.68,152.94,84.68z M197.06,84.68
		c-1.35,0-2.56-0.63-3.33-1.62l-6.18,8.5h9.51V84.68z M206.88,91.56l-6.36-8.66c-0.72,1.02-1.9,1.71-3.24,1.77v6.89H206.88z
		 M175,107.12c-12.71,0-23.08,7.01-23.68,15.81h47.36C198.08,114.13,187.71,107.12,175,107.12z"/>
	<path class="st116" d="M204.32,142.72v0.88c0,2.65-2.16,4.81-4.81,4.81h-51.93v-10.49h51.93
		C202.16,137.92,204.32,140.07,204.32,142.72z"/>
	<path class="st116" d="M200.86,130.64v0.78c0,2.33-1.9,4.24-4.24,4.24h-46.09v-9.26h46.09
		C198.96,126.4,200.86,128.31,200.86,130.64z"/>
	<path class="st117" d="M205.53,142.72v0.88c0,3.32-2.7,6.02-6.02,6.02h-55.04v-1.21h55.04c1.62,0,3.07-0.81,3.94-2.05
		c0.55-0.78,0.87-1.74,0.87-2.76v-0.88c0-2.65-2.16-4.8-4.81-4.8h-55.04v-1.21h3.61v-1.05h48.54c1.24,0,2.36-0.54,3.13-1.4
		c0.69-0.75,1.11-1.75,1.11-2.84v-0.78c0-2.33-1.9-4.24-4.24-4.24h-48.54v-1.06h48.54c2.92,0,5.3,2.38,5.3,5.3v0.78
		c0,2.86-2.28,5.2-5.12,5.29h2.71C202.83,136.71,205.53,139.41,205.53,142.72z"/>
	<path class="st98" d="M199.54,146.75c-1.45,0.03-3.52,0.08-6.01,0.11c-2.48,0.02-5.38,0.08-8.49,0.09
		c-3.11,0.01-6.42,0.03-9.73,0.04c-3.31-0.01-6.63-0.03-9.73-0.04c-3.11-0.01-6.01-0.07-8.49-0.09c-2.49-0.03-4.56-0.09-6.01-0.11
		c-1.45-0.04-2.28-0.06-2.28-0.06s0.83-0.02,2.28-0.06c1.45-0.02,3.52-0.08,6.01-0.11c2.49-0.03,5.39-0.08,8.49-0.09
		c3.11-0.01,6.42-0.03,9.73-0.04c3.31,0.01,6.63,0.03,9.73,0.04c3.11,0.01,6.01,0.07,8.49,0.09c2.49,0.03,4.56,0.09,6.01,0.11
		c1.45,0.04,2.28,0.06,2.28,0.06S200.99,146.72,199.54,146.75z M201.82,144.46c0,0-0.83-0.02-2.28-0.06
		c-1.45-0.03-3.52-0.08-6.01-0.11c-2.48-0.03-5.38-0.08-8.49-0.09c-3.11-0.01-6.42-0.03-9.73-0.04c-3.31,0.01-6.63,0.03-9.73,0.04
		c-3.11,0.01-6.01,0.07-8.49,0.09c-2.49,0.03-4.56,0.09-6.01,0.11c-1.45,0.04-2.28,0.06-2.28,0.06s0.83,0.02,2.28,0.06
		c1.45,0.03,3.52,0.09,6.01,0.11c2.49,0.03,5.39,0.08,8.49,0.09c3.11,0.01,6.42,0.03,9.73,0.04c3.31-0.01,6.63-0.03,9.73-0.04
		c3.11-0.01,6.01-0.07,8.49-0.09c2.49-0.03,4.56-0.09,6.01-0.11C200.99,144.48,201.82,144.46,201.82,144.46z M201.82,142.23
		c0,0-0.83-0.02-2.28-0.06c-1.45-0.02-3.52-0.08-6.01-0.11c-2.48-0.02-5.38-0.08-8.49-0.09c-3.11-0.01-6.42-0.03-9.73-0.04
		c-3.31,0.01-6.63,0.03-9.73,0.04c-3.11,0.01-6.01,0.07-8.49,0.09c-2.49,0.03-4.56,0.09-6.01,0.11c-1.45,0.04-2.28,0.06-2.28,0.06
		s0.83,0.02,2.28,0.06c1.45,0.02,3.52,0.08,6.01,0.11c2.49,0.02,5.39,0.08,8.49,0.09c3.11,0.01,6.42,0.03,9.73,0.04
		c3.31-0.01,6.63-0.03,9.73-0.04c3.11-0.01,6.01-0.07,8.49-0.09c2.49-0.03,4.56-0.09,6.01-0.11
		C200.99,142.25,201.82,142.23,201.82,142.23z M199.51,137.92h-51.93v1.59h50.49c0.76,0,1.48,0.16,2.14,0.44
		c-0.21,0-0.43-0.01-0.67-0.01c-1.45-0.03-3.53-0.09-6.01-0.11c-2.49-0.03-5.38-0.08-8.49-0.1c-3.11-0.01-6.42-0.02-9.74-0.04
		c-3.31,0.02-6.62,0.03-9.73,0.04c-3.11,0.01-6.01,0.07-8.49,0.1c-2.49,0.02-4.56,0.08-6.01,0.11c-1.45,0.03-2.28,0.06-2.28,0.06
		s0.83,0.02,2.28,0.06c1.45,0.02,3.52,0.08,6.01,0.11c2.48,0.02,5.38,0.08,8.49,0.09c3.11,0.01,6.42,0.03,9.73,0.04
		c3.32-0.01,6.63-0.03,9.74-0.04c3.11-0.01,6-0.07,8.49-0.09c2.48-0.03,4.56-0.09,6.01-0.11c0.31-0.01,0.59-0.02,0.84-0.02
		c1.83,0.85,3.1,2.72,3.1,4.88v0.88c0,0.19-0.01,0.38-0.03,0.56c0.55-0.78,0.87-1.74,0.87-2.76v-0.88
		C204.32,140.07,202.16,137.92,199.51,137.92z M197.88,133.99c0,0-0.72-0.02-1.99-0.05c-1.27-0.02-3.07-0.07-5.24-0.1
		c-2.17-0.02-4.7-0.07-7.41-0.08c-2.71-0.01-5.61-0.02-8.5-0.03c-2.89,0.01-5.79,0.02-8.5,0.03c-2.71,0.01-5.24,0.06-7.41,0.08
		c-2.17,0.02-3.98,0.08-5.24,0.1c-1.27,0.03-1.99,0.05-1.99,0.05s0.72,0.02,1.99,0.05c1.27,0.02,3.07,0.08,5.24,0.1
		c2.17,0.02,4.7,0.07,7.41,0.08c2.71,0.01,5.61,0.02,8.5,0.03c2.89-0.01,5.79-0.03,8.5-0.04c2.71-0.01,5.24-0.06,7.41-0.08
		c2.17-0.02,3.98-0.08,5.24-0.1C197.15,134.01,197.88,133.99,197.88,133.99z M195.89,132.09c-1.27,0.02-3.07,0.07-5.24,0.1
		c-2.17,0.02-4.7,0.07-7.41,0.08c-2.71,0.01-5.61,0.02-8.5,0.03c-2.89-0.01-5.79-0.02-8.5-0.03c-2.71-0.01-5.24-0.06-7.41-0.08
		c-2.17-0.02-3.98-0.08-5.24-0.1c-1.27-0.03-1.99-0.05-1.99-0.05s0.72-0.02,1.99-0.05c1.27-0.02,3.07-0.07,5.24-0.1
		c2.17-0.02,4.7-0.07,7.41-0.08c2.71-0.01,5.61-0.02,8.5-0.04c2.89,0.01,5.79,0.02,8.5,0.04c2.71,0.01,5.24,0.06,7.41,0.08
		c2.17,0.02,3.98,0.08,5.24,0.1c1.27,0.03,1.99,0.05,1.99,0.05S197.15,132.06,195.89,132.09z M195.89,130.14
		c-1.27,0.02-3.07,0.07-5.24,0.1c-2.17,0.02-4.7,0.07-7.41,0.08c-2.71,0.01-5.61,0.02-8.5,0.03c-2.89-0.01-5.79-0.02-8.5-0.03
		c-2.71-0.01-5.24-0.06-7.41-0.08c-2.17-0.02-3.98-0.08-5.24-0.1c-1.27-0.03-1.99-0.05-1.99-0.05s0.72-0.02,1.99-0.05
		c1.27-0.02,3.07-0.07,5.24-0.1c2.17-0.02,4.7-0.07,7.41-0.08c2.71-0.01,5.61-0.02,8.5-0.04c2.89,0.01,5.79,0.02,8.5,0.04
		c2.71,0.01,5.24,0.06,7.41,0.08c2.17,0.02,3.98,0.07,5.24,0.1c1.27,0.03,1.99,0.05,1.99,0.05S197.15,130.11,195.89,130.14z
		 M200.86,130.64v0.78c0,1.09-0.42,2.09-1.11,2.84c0.03-0.21,0.05-0.42,0.05-0.64v-0.77c0-2.3-1.62-4.21-3.78-4.66h-0.13
		c-1.27,0.02-3.07,0.08-5.25,0.1c-2.16,0.02-4.7,0.07-7.41,0.08s-5.6,0.02-8.5,0.04c-2.89-0.02-5.79-0.03-8.5-0.04
		s-5.24-0.06-7.41-0.08c-2.17-0.02-3.98-0.08-5.25-0.1c-1.26-0.03-1.98-0.05-1.98-0.05s0.72-0.02,1.98-0.05
		c0.16,0,0.33-0.01,0.5-0.01h-3.54v-1.68h46.09C198.96,126.4,200.86,128.31,200.86,130.64z"/>
	<path class="st155" d="M198.68,122.93c-0.6-8.8-10.97-15.81-23.68-15.81s-23.08,7.01-23.68,15.81
		c0.6-10.69,10.97-19.21,23.68-19.21S198.08,112.24,198.68,122.93z M178.04,51.11h-0.59c0.45,0,0.81-0.36,0.81-0.8
		c0-0.45-0.36-0.81-0.81-0.81h-4.9c-0.45,0-0.81,0.36-0.81,0.81c0,0.44,0.36,0.8,0.81,0.8h-0.59c-0.55,0-1,0.45-1,1s0.45,1,1,1h6.08
		c0.55,0,1-0.45,1-1S178.59,51.11,178.04,51.11z"/>
</g>
</svg>
