<?xml version="1.0" encoding="utf-8"?>
<!-- Generator: Adobe Illustrator 27.8.1, SVG Export Plug-In . SVG Version: 6.00 Build 0)  -->
<svg version="1.1" xmlns="http://www.w3.org/2000/svg" xmlns:xlink="http://www.w3.org/1999/xlink" x="0px" y="0px"
	 viewBox="0 0 350 230" style="enable-background:new 0 0 350 230;" xml:space="preserve">
<style type="text/css">
	.st0{fill:#F5FFCA;}
	.st1{fill:#FCFFE9;}
	.st2{fill:#CBE5BE;}
	.st3{fill:#CCFDFF;}
	.st4{fill:#FFE4CA;}
	.st5{fill:#CAFFD6;}
	.st6{fill:#FFF5CC;}
	.st7{fill:#001044;}
	.st8{fill:#FFF9DE;}
	.st9{fill:#FFFAD4;}
	.st10{fill:#E8C052;}
	.st11{fill:#C7FEFF;}
	.st12{fill:#003F49;}
	.st13{fill:#8E032B;}
	.st14{fill:#87622B;}
	.st15{fill:#83014C;}
	.st16{fill:#B72204;}
	.st17{fill:#015254;}
	.st18{fill:#5B9C40;}
	.st19{fill:#0055B6;}
	.st20{fill-rule:evenodd;clip-rule:evenodd;fill:#3A1D03;}
	.st21{fill-rule:evenodd;clip-rule:evenodd;fill:#723600;}
	.st22{fill:#00438D;}
	.st23{fill:#162E50;}
	.st24{fill:#F6921E;}
	.st25{fill:#00237A;}
	.st26{fill:#563B00;}
	.st27{fill:#00FFB6;}
	.st28{fill:#9500FF;}
	.st29{fill:#440000;}
	.st30{fill:#45EDFF;}
	.st31{fill:#CC7F7F;}
	.st32{fill-rule:evenodd;clip-rule:evenodd;fill:#FFFFFF;}
	.st33{fill-rule:evenodd;clip-rule:evenodd;fill:#DDBC66;}
	.st34{fill-rule:evenodd;clip-rule:evenodd;fill:#041440;}
	.st35{fill-rule:evenodd;clip-rule:evenodd;fill:url(#SVGID_1_);}
	.st36{fill:#041440;}
	.st37{fill-rule:evenodd;clip-rule:evenodd;fill:url(#SVGID_00000069385138215801013030000001246669915657959101_);}
	.st38{fill-rule:evenodd;clip-rule:evenodd;fill:#A47B3E;}
	.st39{fill:#102D56;}
	.st40{fill:#BA9966;}
	.st41{fill:url(#SVGID_00000158735103409223490240000013450122241527542945_);}
	.st42{fill-rule:evenodd;clip-rule:evenodd;fill:url(#SVGID_00000133526216618859711810000014182467508264240777_);}
	.st43{fill:url(#SVGID_00000064315772077084539490000017891331200987962279_);}
	.st44{fill:#6D1B1B;}
	.st45{fill:#161314;}
	.st46{fill:#BD6A25;}
	.st47{fill:url(#SVGID_00000120547008050640487740000012332231520549618086_);}
	.st48{fill:#E0902C;}
	.st49{fill:#292F38;}
	.st50{fill:#E3B92E;}
	.st51{fill:#252D35;}
	.st52{fill:#C72D2D;}
	.st53{fill:#D8A843;}
	.st54{fill:#1A2655;}
	.st55{fill:#4D479E;}
	.st56{fill:url(#SVGID_00000182507035925848365560000000515614019922584980_);}
	.st57{fill:#A6A8AB;}
	.st58{fill:#0267A3;}
	.st59{fill:url(#SVGID_00000089539276610736664880000017627836439040516512_);}
	.st60{fill:#0F8CB4;}
	.st61{fill:#0A3755;}
	.st62{fill:#4B281E;}
	.st63{fill:#1C4D60;}
	.st64{fill:#00324B;}
	.st65{fill:#007DA5;}
	.st66{fill:#FFFFFF;}
	.st67{fill:#FABE0F;}
	.st68{fill:#BC8B0F;}
	.st69{fill:#82D2F5;}
	.st70{fill:#66B2CC;}
	.st71{fill:#71B9D3;}
	.st72{fill:url(#SVGID_00000026161291439253079310000004374269859557788040_);}
	.st73{fill:url(#SVGID_00000162335238851349362640000005650961638680144038_);}
	.st74{fill:url(#SVGID_00000095328862891795299160000008930098575734247812_);}
	.st75{fill:#4D4D4D;}
	.st76{fill:url(#SVGID_00000175300079233232684990000011306096709964134045_);}
	.st77{fill:url(#SVGID_00000143579898890487987800000012929006410204186760_);}
	.st78{fill:url(#SVGID_00000008867832187586822640000008265721740657057681_);}
	.st79{fill:url(#SVGID_00000121280824359845530290000017145578377574972556_);}
	.st80{fill:url(#SVGID_00000019643204969875089370000006820102362430105009_);}
	.st81{fill-rule:evenodd;clip-rule:evenodd;fill:#C16A14;}
	.st82{fill-rule:evenodd;clip-rule:evenodd;fill:#BA880C;}
	.st83{fill-rule:evenodd;clip-rule:evenodd;fill:#755914;}
	.st84{fill-rule:evenodd;clip-rule:evenodd;fill:#FABE0F;}
	.st85{fill:#782D2D;}
	.st86{fill:#AA6565;}
	.st87{fill:url(#SVGID_00000062896508025361960860000017129988665834497675_);}
	.st88{fill-rule:evenodd;clip-rule:evenodd;fill:url(#SVGID_00000067941838254838272990000018151393855242070410_);}
	.st89{fill-rule:evenodd;clip-rule:evenodd;fill:url(#SVGID_00000146465590205333114210000008463246900407124665_);}
	.st90{fill-rule:evenodd;clip-rule:evenodd;fill:#9B5E26;}
	.st91{fill-rule:evenodd;clip-rule:evenodd;fill:#683C18;}
	.st92{fill:url(#XMLID_00000010283315461060430940000009373259835409393320_);}
	.st93{fill:#5B0505;}
	.st94{fill:#840808;}
	.st95{fill:#750404;}
	.st96{fill:url(#SVGID_00000091010746760261414150000011581424226895045286_);}
	.st97{fill:url(#SVGID_00000030466722997264104760000016131193932625292479_);}
	.st98{fill:#B5B5B5;}
	.st99{fill:url(#SVGID_00000052782551985624954390000012578593780054201253_);}
	.st100{fill:url(#SVGID_00000160897413210321365520000016271491464187293341_);}
	.st101{fill:#3C5A82;}
	.st102{fill:#44688E;}
	.st103{fill:#11114C;}
	.st104{fill:url(#SVGID_00000089563066183488814780000010316118018292476301_);}
	.st105{fill:#7B7BBF;}
	.st106{fill:#6B6BC6;}
	.st107{fill:#C7C7F9;}
	.st108{fill:#6B6B6B;}
	.st109{fill:#363663;}
	.st110{fill:#0C5977;}
	.st111{fill:#136D89;}
	.st112{fill:#64BCE8;}
	.st113{fill:url(#SVGID_00000095330384986313884790000000265206284110208693_);}
	.st114{fill:url(#SVGID_00000137125627511735907380000016791337853859766204_);}
	.st115{fill:#DC730A;}
	.st116{fill:#F4F4F4;}
	.st117{fill:#A3591D;}
	.st118{fill:#030333;}
	.st119{fill:url(#SVGID_00000018951014094783573210000008191845005896191651_);}
	.st120{fill:url(#SVGID_00000119810529664760828300000010939909365839476102_);}
	.st121{fill:url(#SVGID_00000163777439445411743800000016318578916871838135_);}
	.st122{fill:url(#SVGID_00000150081287180687359580000016931347872173560460_);}
	.st123{fill:url(#SVGID_00000177486282426136983570000000984988893776830352_);}
	.st124{fill:url(#SVGID_00000101085816413528484780000001774013796863652020_);}
	.st125{fill:url(#SVGID_00000023967095005834530690000006671073887454842552_);}
	.st126{fill:url(#SVGID_00000032626008025835930010000008856833728783115196_);}
	.st127{fill:url(#SVGID_00000054245846373921017090000017878567734662446978_);}
	.st128{fill:url(#SVGID_00000103971221176338002530000004237180157028740775_);}
	.st129{fill:url(#SVGID_00000065768294218848232720000018402690599698435234_);}
	.st130{fill:url(#SVGID_00000119834593351252896380000010889002758989161375_);}
	.st131{fill:url(#SVGID_00000160149403862022650170000005118265893916734344_);}
	.st132{fill:url(#SVGID_00000005267014035711044930000013237005945737402517_);}
	.st133{fill:url(#SVGID_00000013168816263408449400000002740738735144492191_);}
	.st134{fill:url(#SVGID_00000000213508371134543230000010528299026615158946_);}
	.st135{fill:url(#SVGID_00000174587320920697951700000015322105074306519224_);}
	.st136{fill:url(#SVGID_00000084503555009161432350000001798913345814026368_);}
	.st137{fill:url(#SVGID_00000094595514043751255900000012962739003758276017_);}
	.st138{fill:url(#SVGID_00000151533786090983693540000009468982395104819889_);}
	.st139{fill:url(#SVGID_00000098202994140147180670000001160828167115076996_);}
	.st140{fill:url(#SVGID_00000062878862149860527960000006389272315576962981_);}
	.st141{fill:url(#SVGID_00000049905143100678097980000001507766116073925050_);}
	.st142{fill:url(#SVGID_00000109717527674710498630000011537424886782343562_);}
	.st143{fill:url(#SVGID_00000015316971800550461720000014949545351833010086_);}
	.st144{fill:url(#SVGID_00000062873933107229628990000004565223214935151256_);}
	.st145{fill:url(#SVGID_00000008858719146077035970000013520021230217581696_);}
	.st146{fill:url(#SVGID_00000097475516556892824750000011194903413283478954_);}
	.st147{fill:url(#SVGID_00000006675661442695329220000016179218328383599293_);}
	.st148{fill:url(#SVGID_00000181077032484378368420000001259517154258535817_);}
	.st149{fill:url(#SVGID_00000021121301247037796180000016564768859024307878_);}
	.st150{fill:url(#SVGID_00000055688890592437486060000017758709321363807654_);}
	.st151{fill:url(#SVGID_00000065765762242955791980000013895407543237795721_);}
	.st152{fill:url(#SVGID_00000121969091450163892320000002402986962622034329_);}
	.st153{fill:url(#SVGID_00000003827388997676896380000018060503890835471027_);}
	.st154{fill:url(#SVGID_00000097500472513247946030000016786089243947528577_);}
	.st155{fill:#ED9443;}
	.st156{fill:url(#SVGID_00000163032191051795245150000008922470979891721371_);}
	.st157{fill:#4B4BAA;}
	.st158{fill:#5D5D91;}
</style>
<g id="Layer_1">
</g>
<g id="Layer_2">
</g>
<g id="Layer_3">
</g>
<g id="Layer_4">
</g>
<g id="Layer_5">
</g>
<g id="Layer_6">
</g>
<g id="Layer_7">
</g>
<g id="Layer_8">
</g>
<g id="Layer_9">
</g>
<g id="Layer_10">
</g>
<g id="Layer_11">
</g>
<g id="Layer_12">
</g>
<g id="Layer_13">
</g>
<g id="Layer_14">
</g>
<g id="Layer_15">
	<path class="st110" d="M221.01,93.07c-0.69,0.91-1.89,1.44-3.06,1.44c-0.53,0-1.05-0.11-1.52-0.34
		c-18.52-9.87-18.97-18.91-37.49-28.78c-0.08-0.04-0.15-0.08-0.21-0.13l-3.89,5.15c0.67,0.6,0.76,1.64,0.21,2.38
		c-0.6,0.79-1.72,0.94-2.51,0.35l-11.85-8.96c-0.79-0.59-0.95-1.71-0.35-2.5c0.35-0.47,0.88-0.71,1.42-0.71
		c0.32,0,0.64,0.08,0.92,0.26l11.75-15.55c-0.67-0.61-0.77-1.64-0.21-2.38c0.35-0.47,0.88-0.71,1.42-0.71
		c0.38,0,0.76,0.12,1.08,0.36l11.86,8.96c0.78,0.59,0.94,1.71,0.35,2.5c-0.56,0.74-1.58,0.93-2.35,0.45l-3.89,5.15
		c0.06,0.05,0.12,0.11,0.18,0.17c14.56,15.12,23.38,13.07,37.94,28.19C221.95,89.61,222,91.75,221.01,93.07z"/>
	<path class="st111" d="M184.26,57.95l-12.16-9.19l1.64-2.17l12.16,9.19L184.26,57.95z M177.26,67.21l-12.16-9.19l-1.64,2.17
		l12.16,9.19L177.26,67.21z M187.89,70.84c-0.44,0.59-0.33,1.43,0.26,1.88l0,0c0.59,0.45,1.43,0.33,1.88-0.26l2.68-3.55
		c0.45-0.59,0.33-1.43-0.26-1.88l0,0c-0.59-0.45-1.43-0.33-1.88,0.26L187.89,70.84z"/>
	<path class="st58" d="M190.23,81.99c0,0.57-0.22,1.07-0.58,1.45c-0.38,0.4-0.92,0.64-1.51,0.64h-26.23c-0.62,0-1.18-0.27-1.57-0.71
		c-0.32-0.37-0.51-0.85-0.51-1.38c0-0.57,0.23-1.09,0.61-1.47c0.38-0.38,0.9-0.61,1.47-0.61h26.23
		C189.3,79.91,190.23,80.84,190.23,81.99z"/>
	<path class="st58" d="M196.81,95.38v37.94h-43.47V95.38h3.58c-0.44-0.46-0.71-1.08-0.71-1.78c0-0.71,0.29-1.36,0.76-1.82
		c0.47-0.47,1.11-0.76,1.82-0.76h32.48c1.42,0,2.58,1.16,2.58,2.58c0,0.7-0.27,1.32-0.71,1.78H196.81z"/>
	<path class="st112" d="M191.13,101.4c-1.95,0-3.53,1.69-3.53,3.77v28.15h7.07v-28.15C194.67,103.09,193.08,101.4,191.13,101.4z
		 M180.43,101.4c-1.96,0-3.54,1.69-3.54,3.77v28.15h7.07v-28.15C183.96,103.09,182.38,101.4,180.43,101.4z M169.72,101.4
		c-1.95,0-3.54,1.69-3.54,3.77v28.15h7.07v-28.15C173.25,103.09,171.67,101.4,169.72,101.4z M159.01,101.4
		c-1.95,0-3.53,1.69-3.53,3.77v28.15h7.06v-28.15C162.54,103.09,160.96,101.4,159.01,101.4z M194.62,82.42
		c-2.18,0-3.79,0.41-4.97,1.02c-0.38,0.4-0.92,0.64-1.51,0.64h-26.23c-0.62,0-1.18-0.27-1.57-0.71c-1.16-0.57-2.72-0.95-4.81-0.95
		c-3.75,0.34-5.85,2.87-5.23,6.11s4.68,3.58,6.17,2.43c1.49-1.15,1.54-4.73-1.63-5.07c-2.03-0.17-2.11,1.96-1.64,2.55
		c-0.81-0.42-0.9-2.68,1.23-3.02c2.1-0.33,5.68,0.1,5.43,5.6h30.43c-0.26-5.5,3.32-5.93,5.42-5.6c2.13,0.34,2.05,2.6,1.24,3.02
		c0.47-0.59,0.38-2.72-1.65-2.55c-3.17,0.34-3.12,3.92-1.63,5.07c1.49,1.15,5.55,0.81,6.17-2.43
		C200.47,85.29,198.37,82.76,194.62,82.42z"/>
	<g>
		<g>
			<g>
				<g>
					<path class="st58" d="M227.32,54.15c1.71,2.54,0.27,5.07,0.27,5.07s-2.88,0.38-4.6-2.15c-1.71-2.54-1.6-7.04-1.6-7.04
						S225.6,51.61,227.32,54.15z"/>
					<g>
						<path class="st58" d="M233.85,58.72c-0.59,3.01-3.39,3.78-3.39,3.78s-2.31-1.76-1.73-4.77c0.58-3,3.84-6.11,3.84-6.11
							S234.43,55.72,233.85,58.72z"/>
						<path class="st58" d="M224.74,64.87c3.01,0.58,4.78-1.73,4.78-1.73s-0.77-2.81-3.78-3.39c-3-0.58-7.1,1.28-7.1,1.28
							S221.73,64.29,224.74,64.87z"/>
					</g>
					<g>
						<path class="st58" d="M237.23,65.71c-0.88,2.93-3.74,3.43-3.74,3.43s-2.13-1.99-1.25-4.92c0.88-2.93,4.43-5.7,4.43-5.7
							S238.11,62.78,237.23,65.71z"/>
						<path class="st58" d="M227.56,70.93c2.93,0.88,4.92-1.25,4.92-1.25s-0.49-2.87-3.43-3.74c-2.93-0.88-7.19,0.57-7.19,0.57
							S224.63,70.05,227.56,70.93z"/>
					</g>
					<g>
						<path class="st58" d="M239.58,72.91c-1.12,2.85-4.03,3.09-4.03,3.09s-1.95-2.17-0.82-5.01c1.13-2.85,4.91-5.29,4.91-5.29
							S240.71,70.06,239.58,72.91z"/>
						<path class="st58" d="M229.49,77.28c2.85,1.12,5.01-0.83,5.01-0.83s-0.25-2.9-3.1-4.03c-2.85-1.13-7.22-0.06-7.22-0.06
							S226.64,76.15,229.49,77.28z"/>
					</g>
					<g>
						<path class="st58" d="M240.93,80.83c-1.54,2.64-4.45,2.45-4.45,2.45s-1.6-2.43-0.06-5.08c1.54-2.64,5.65-4.5,5.65-4.5
							S242.47,78.18,240.93,80.83z"/>
						<path class="st58" d="M230.3,83.63c2.64,1.54,5.08-0.06,5.08-0.06s0.2-2.91-2.45-4.45c-2.64-1.54-7.13-1.14-7.13-1.14
							S227.65,82.09,230.3,83.63z"/>
					</g>
					<g>
						<path class="st58" d="M241.55,88.37c-1.8,2.47-4.67,1.98-4.67,1.98s-1.34-2.59,0.46-5.06c1.81-2.48,6.08-3.9,6.08-3.9
							S243.36,85.89,241.55,88.37z"/>
						<path class="st58" d="M230.7,90.05c2.47,1.81,5.06,0.47,5.06,0.47s0.49-2.87-1.98-4.68c-2.47-1.81-6.97-1.87-6.97-1.87
							S228.22,88.24,230.7,90.05z"/>
					</g>
					<g>
						<path class="st58" d="M240.98,96.09c-2.12,2.21-4.9,1.34-4.9,1.34s-0.98-2.74,1.14-4.95c2.12-2.21,6.55-3.05,6.55-3.05
							S243.11,93.88,240.98,96.09z"/>
						<path class="st58" d="M229.99,96.31c2.21,2.12,4.95,1.14,4.95,1.14s0.87-2.78-1.34-4.9c-2.21-2.12-6.66-2.79-6.66-2.79
							S227.79,94.19,229.99,96.31z"/>
					</g>
					<g>
						<path class="st58" d="M239.49,103.77c-2.35,1.96-5.02,0.77-5.02,0.77s-0.67-2.83,1.68-4.79c2.36-1.96,6.85-2.3,6.85-2.3
							S241.84,101.81,239.49,103.77z"/>
						<path class="st58" d="M228.54,102.75c1.95,2.35,4.79,1.68,4.79,1.68s1.18-2.66-0.78-5.02c-1.96-2.36-6.31-3.51-6.31-3.51
							S226.59,100.4,228.54,102.75z"/>
					</g>
					<g>
						<path class="st58" d="M237.14,111.15c-2.54,1.71-5.07,0.26-5.07,0.26s-0.38-2.88,2.16-4.59c2.54-1.71,7.04-1.59,7.04-1.59
							S239.68,109.44,237.14,111.15z"/>
						<path class="st58" d="M226.35,109.02c1.71,2.55,4.6,2.16,4.6,2.16s1.44-2.52-0.27-5.07c-1.71-2.55-5.92-4.13-5.92-4.13
							S224.64,106.49,226.35,109.02z"/>
					</g>
					<g>
						<path class="st58" d="M233.94,118.2c-2.75,1.35-5.07-0.42-5.07-0.42s0.02-2.91,2.77-4.25c2.75-1.35,7.19-0.62,7.19-0.62
							S236.7,116.85,233.94,118.2z"/>
						<path class="st58" d="M223.54,114.64c1.35,2.75,4.26,2.77,4.26,2.77s1.78-2.31,0.43-5.06c-1.35-2.75-5.31-4.9-5.31-4.9
							S222.2,111.89,223.54,114.64z"/>
					</g>
					<g>
						<path class="st58" d="M229.93,124.82c-2.91,0.93-4.94-1.16-4.94-1.16s0.44-2.88,3.35-3.81c2.92-0.94,7.21,0.42,7.21,0.42
							S232.85,123.88,229.93,124.82z"/>
						<path class="st58" d="M220.15,119.8c0.94,2.91,3.82,3.35,3.82,3.35s2.09-2.04,1.15-4.95c-0.94-2.92-4.55-5.61-4.55-5.61
							S219.21,116.88,220.15,119.8z"/>
					</g>
					<g>
						<path class="st58" d="M225.26,130.58c-3,0.64-4.8-1.64-4.8-1.64s0.72-2.82,3.71-3.46c2.99-0.64,7.13,1.15,7.13,1.15
							S228.26,129.94,225.26,130.58z"/>
						<path class="st58" d="M216.05,124.6c0.63,3,3.45,3.72,3.45,3.72s2.28-1.81,1.65-4.81c-0.64-3-3.96-6.04-3.96-6.04
							S215.4,121.6,216.05,124.6z"/>
					</g>
					<g>
						<path class="st58" d="M219.93,136c-3.05,0.31-4.6-2.16-4.6-2.16s1.03-2.73,4.07-3.03c3.05-0.31,6.97,1.91,6.97,1.91
							S222.98,135.69,219.93,136z"/>
						<path class="st58" d="M211.41,129.05c0.31,3.05,3.04,4.08,3.04,4.08s2.47-1.56,2.15-4.6c-0.31-3.05-3.28-6.43-3.28-6.43
							S211.1,126.01,211.41,129.05z"/>
					</g>
					<g>
						<path class="st58" d="M213.54,140.49c-3.06-0.11-4.26-2.77-4.26-2.77s1.39-2.56,4.45-2.45c3.06,0.11,6.63,2.85,6.63,2.85
							S216.6,140.6,213.54,140.49z"/>
						<path class="st58" d="M206.05,132.44c-0.11,3.06,2.44,4.45,2.44,4.45s2.66-1.2,2.77-4.26c0.12-3.06-2.36-6.82-2.36-6.82
							S206.16,129.38,206.05,132.44z"/>
					</g>
				</g>
			</g>
			<g>
				<g>
					<path class="st58" d="M122.68,54.15c-1.71,2.54-0.28,5.07-0.28,5.07s2.88,0.38,4.6-2.15c1.71-2.54,1.6-7.04,1.6-7.04
						S124.4,51.61,122.68,54.15z"/>
					<g>
						<path class="st58" d="M116.15,58.72c0.59,3.01,3.39,3.78,3.39,3.78s2.32-1.76,1.73-4.77c-0.58-3-3.84-6.11-3.84-6.11
							S115.57,55.72,116.15,58.72z"/>
						<path class="st58" d="M125.26,64.87c-3,0.58-4.77-1.73-4.77-1.73s0.77-2.81,3.78-3.39c3-0.58,7.1,1.28,7.1,1.28
							S128.27,64.29,125.26,64.87z"/>
					</g>
					<g>
						<path class="st58" d="M112.76,65.71c0.88,2.93,3.74,3.43,3.74,3.43s2.13-1.99,1.25-4.92c-0.88-2.93-4.43-5.7-4.43-5.7
							S111.88,62.78,112.76,65.71z"/>
						<path class="st58" d="M122.44,70.93c-2.93,0.88-4.92-1.25-4.92-1.25s0.49-2.87,3.43-3.74c2.93-0.88,7.19,0.57,7.19,0.57
							S125.37,70.05,122.44,70.93z"/>
					</g>
					<g>
						<path class="st58" d="M110.42,72.91c1.12,2.85,4.03,3.09,4.03,3.09s1.95-2.17,0.82-5.01c-1.13-2.85-4.91-5.29-4.91-5.29
							S109.29,70.06,110.42,72.91z"/>
						<path class="st58" d="M120.51,77.28c-2.85,1.12-5.01-0.83-5.01-0.83s0.25-2.9,3.09-4.03c2.85-1.13,7.22-0.06,7.22-0.06
							S123.36,76.15,120.51,77.28z"/>
					</g>
					<g>
						<path class="st58" d="M109.07,80.83c1.54,2.64,4.45,2.45,4.45,2.45s1.6-2.43,0.06-5.08c-1.54-2.64-5.64-4.5-5.64-4.5
							S107.53,78.18,109.07,80.83z"/>
						<path class="st58" d="M119.7,83.63c-2.64,1.54-5.08-0.06-5.08-0.06s-0.19-2.91,2.45-4.45c2.64-1.54,7.13-1.14,7.13-1.14
							S122.35,82.09,119.7,83.63z"/>
					</g>
					<g>
						<path class="st58" d="M108.44,88.37c1.8,2.47,4.68,1.98,4.68,1.98s1.34-2.59-0.46-5.06c-1.81-2.48-6.08-3.9-6.08-3.9
							S106.64,85.89,108.44,88.37z"/>
						<path class="st58" d="M119.3,90.05c-2.48,1.81-5.06,0.47-5.06,0.47s-0.49-2.87,1.98-4.68c2.47-1.81,6.97-1.87,6.97-1.87
							S121.78,88.24,119.3,90.05z"/>
					</g>
					<g>
						<path class="st58" d="M109.02,96.09c2.12,2.21,4.9,1.34,4.9,1.34s0.98-2.74-1.14-4.95c-2.12-2.21-6.54-3.05-6.54-3.05
							S106.89,93.88,109.02,96.09z"/>
						<path class="st58" d="M120.01,96.31c-2.21,2.12-4.95,1.14-4.95,1.14s-0.87-2.78,1.34-4.9c2.2-2.12,6.66-2.79,6.66-2.79
							S122.21,94.19,120.01,96.31z"/>
					</g>
					<g>
						<path class="st58" d="M110.51,103.77c2.36,1.96,5.02,0.77,5.02,0.77s0.67-2.83-1.68-4.79c-2.36-1.96-6.85-2.3-6.85-2.3
							S108.16,101.81,110.51,103.77z"/>
						<path class="st58" d="M121.46,102.75c-1.96,2.35-4.79,1.68-4.79,1.68s-1.18-2.66,0.78-5.02c1.95-2.36,6.31-3.51,6.31-3.51
							S123.41,100.4,121.46,102.75z"/>
					</g>
					<g>
						<path class="st58" d="M112.86,111.15c2.54,1.71,5.07,0.26,5.07,0.26s0.38-2.88-2.16-4.59c-2.54-1.71-7.04-1.59-7.04-1.59
							S110.32,109.44,112.86,111.15z"/>
						<path class="st58" d="M123.65,109.02c-1.71,2.55-4.6,2.16-4.6,2.16s-1.44-2.52,0.27-5.07c1.71-2.55,5.92-4.13,5.92-4.13
							S125.36,106.49,123.65,109.02z"/>
					</g>
					<g>
						<path class="st58" d="M116.06,118.2c2.75,1.35,5.07-0.42,5.07-0.42s-0.02-2.91-2.77-4.25c-2.75-1.35-7.19-0.62-7.19-0.62
							S113.3,116.85,116.06,118.2z"/>
						<path class="st58" d="M126.46,114.64c-1.35,2.75-4.26,2.77-4.26,2.77s-1.78-2.31-0.43-5.06c1.35-2.75,5.31-4.9,5.31-4.9
							S127.8,111.89,126.46,114.64z"/>
					</g>
					<g>
						<path class="st58" d="M120.07,124.82c2.91,0.93,4.94-1.16,4.94-1.16s-0.44-2.88-3.35-3.81c-2.92-0.94-7.21,0.42-7.21,0.42
							S117.15,123.88,120.07,124.82z"/>
						<path class="st58" d="M129.85,119.8c-0.94,2.91-3.82,3.35-3.82,3.35s-2.09-2.04-1.15-4.95c0.94-2.92,4.55-5.61,4.55-5.61
							S130.79,116.88,129.85,119.8z"/>
					</g>
					<g>
						<path class="st58" d="M124.73,130.58c3,0.64,4.81-1.64,4.81-1.64s-0.72-2.82-3.71-3.46c-2.99-0.64-7.13,1.15-7.13,1.15
							S121.74,129.94,124.73,130.58z"/>
						<path class="st58" d="M133.95,124.6c-0.63,3-3.45,3.72-3.45,3.72s-2.28-1.81-1.65-4.81c0.64-3,3.96-6.04,3.96-6.04
							S134.6,121.6,133.95,124.6z"/>
					</g>
					<g>
						<path class="st58" d="M130.07,136c3.05,0.31,4.6-2.16,4.6-2.16s-1.03-2.73-4.07-3.03c-3.05-0.31-6.97,1.91-6.97,1.91
							S127.02,135.69,130.07,136z"/>
						<path class="st58" d="M138.59,129.05c-0.31,3.05-3.04,4.08-3.04,4.08s-2.47-1.56-2.15-4.6c0.3-3.05,3.28-6.43,3.28-6.43
							S138.9,126.01,138.59,129.05z"/>
					</g>
					<g>
						<path class="st58" d="M136.46,140.49c3.06-0.11,4.26-2.77,4.26-2.77s-1.39-2.56-4.45-2.45c-3.06,0.11-6.63,2.85-6.63,2.85
							S133.4,140.6,136.46,140.49z"/>
						<path class="st58" d="M143.95,132.44c0.11,3.06-2.45,4.45-2.45,4.45s-2.65-1.2-2.77-4.26c-0.12-3.06,2.36-6.82,2.36-6.82
							S143.84,129.38,143.95,132.44z"/>
					</g>
				</g>
			</g>
		</g>
		<g>
			<g>
				<path class="st58" d="M209.19,138.5l-1.07-1.23c-0.08,0.06-5.64,4.84-12.67,8.38c-1.45-1.91-3.03-3.2-4.76-3.91
					c-4.81-1.97-9.93,0.8-14.88,3.48c-0.27,0.15-0.54,0.29-0.81,0.44c-0.27-0.15-0.54-0.29-0.81-0.44
					c-4.95-2.68-10.06-5.44-14.88-3.48c-1.73,0.71-3.31,2-4.76,3.91c-7.04-3.54-12.6-8.32-12.68-8.38l-1.06,1.23
					c0.32,0.28,5.76,4.95,12.78,8.52c-1.59,2.49-3.01,5.78-4.28,9.91l1.56,0.48c1.26-4.1,2.65-7.31,4.19-9.67
					c2.63,1.24,5.44,2.28,8.25,2.86c3.8,0.79,7.79-1.02,11.69-3.09c3.9,2.07,7.88,3.88,11.69,3.09c2.81-0.58,5.62-1.62,8.25-2.86
					c1.54,2.36,2.93,5.57,4.19,9.67l1.56-0.48c-1.27-4.13-2.69-7.42-4.28-9.91C203.43,143.45,208.87,138.78,209.19,138.5z
					 M163.64,149.01c-2.57-0.53-5.15-1.49-7.6-2.63c1.21-1.52,2.5-2.56,3.89-3.13c4.04-1.66,8.55,0.74,13.32,3.33
					C169.94,148.28,166.62,149.62,163.64,149.01z M186.36,149.01c-2.98,0.61-6.3-0.73-9.61-2.43c4.76-2.59,9.28-4.99,13.32-3.33
					c1.39,0.57,2.68,1.61,3.89,3.13C191.51,147.52,188.93,148.48,186.36,149.01z"/>
			</g>
		</g>
	</g>
	<linearGradient id="SVGID_1_" gradientUnits="userSpaceOnUse" x1="137.8907" y1="30.043" x2="212.1076" y2="30.043">
		<stop  offset="0" style="stop-color:#5BB4F6"/>
		<stop  offset="0.6095" style="stop-color:#2191E5"/>
		<stop  offset="1" style="stop-color:#007EDB"/>
	</linearGradient>
	<path style="fill:url(#SVGID_1_);" d="M175,18.85l2.55,5.16l5.7,0.83l-4.12,4.02l0.97,5.67l-5.1-2.68l-5.1,2.68l0.97-5.67
		l-4.12-4.02l5.7-0.83L175,18.85z M192.94,27.82l-4.22-0.6l2.09,3.71l-1.87,3.83l4.18-0.84l3.06,2.97l0.49-4.23l3.77-1.99
		l-3.88-1.78l-0.73-4.2L192.94,27.82z M207.18,34.38l-2.91-0.99l0.98,2.91l-1.84,2.46l3.07-0.03l1.77,2.51l0.92-2.93l2.94-0.91
		l-2.5-1.78l0.05-3.07L207.18,34.38z M154.17,24.69l-0.73,4.2l-3.88,1.78l3.77,1.99l0.49,4.23l3.06-2.97l4.18,0.84l-1.88-3.83
		l2.09-3.71l-4.22,0.6L154.17,24.69z M140.35,32.55l0.05,3.07l-2.5,1.78l2.94,0.91l0.92,2.93l1.77-2.51l3.07,0.03l-1.84-2.46
		l0.98-2.91l-2.91,0.99L140.35,32.55z"/>
</g>
</svg>
