<?xml version="1.0" encoding="utf-8"?>
<!-- Generator: Adobe Illustrator 27.8.1, SVG Export Plug-In . SVG Version: 6.00 Build 0)  -->
<svg version="1.1" xmlns="http://www.w3.org/2000/svg" xmlns:xlink="http://www.w3.org/1999/xlink" x="0px" y="0px"
	 viewBox="0 0 350 230" style="enable-background:new 0 0 350 230;" xml:space="preserve">
<style type="text/css">
	.st0{fill:#F5FFCA;}
	.st1{fill:#FCFFE9;}
	.st2{fill:#CBE5BE;}
	.st3{fill:#CCFDFF;}
	.st4{fill:#FFE4CA;}
	.st5{fill:#CAFFD6;}
	.st6{fill:#FFF5CC;}
	.st7{fill:#001044;}
	.st8{fill:#FFF9DE;}
	.st9{fill:#FFFAD4;}
	.st10{fill:#E8C052;}
	.st11{fill:#C7FEFF;}
	.st12{fill:#003F49;}
	.st13{fill:#8E032B;}
	.st14{fill:#87622B;}
	.st15{fill:#83014C;}
	.st16{fill:#B72204;}
	.st17{fill:#015254;}
	.st18{fill:#5B9C40;}
	.st19{fill:#0055B6;}
	.st20{fill-rule:evenodd;clip-rule:evenodd;fill:#3A1D03;}
	.st21{fill-rule:evenodd;clip-rule:evenodd;fill:#723600;}
	.st22{fill:#00438D;}
	.st23{fill:#162E50;}
	.st24{fill:#F6921E;}
	.st25{fill:#00237A;}
	.st26{fill:#563B00;}
	.st27{fill:#00FFB6;}
	.st28{fill:#9500FF;}
	.st29{fill:#440000;}
	.st30{fill:#45EDFF;}
	.st31{fill:#CC7F7F;}
	.st32{fill-rule:evenodd;clip-rule:evenodd;fill:#FFFFFF;}
	.st33{fill-rule:evenodd;clip-rule:evenodd;fill:#DDBC66;}
	.st34{fill-rule:evenodd;clip-rule:evenodd;fill:#041440;}
	.st35{fill-rule:evenodd;clip-rule:evenodd;fill:url(#SVGID_1_);}
	.st36{fill:#041440;}
	.st37{fill-rule:evenodd;clip-rule:evenodd;fill:url(#SVGID_00000108302568816176117110000013894926097370046101_);}
	.st38{fill-rule:evenodd;clip-rule:evenodd;fill:#A47B3E;}
	.st39{fill:#102D56;}
	.st40{fill:#BA9966;}
	.st41{fill:url(#SVGID_00000100356538030216029970000017418643057701709486_);}
	.st42{fill-rule:evenodd;clip-rule:evenodd;fill:url(#SVGID_00000005982872407945896250000010964136715572564414_);}
	.st43{fill:url(#SVGID_00000160886133834522574340000006922197335495519122_);}
	.st44{fill:#6D1B1B;}
	.st45{fill:#161314;}
	.st46{fill:#BD6A25;}
	.st47{fill:url(#SVGID_00000165202233928789824260000003888990372375102139_);}
	.st48{fill:#E0902C;}
	.st49{fill:#292F38;}
	.st50{fill:#E3B92E;}
	.st51{fill:#252D35;}
	.st52{fill:#C72D2D;}
	.st53{fill:#D8A843;}
	.st54{fill:#1A2655;}
	.st55{fill:#4D479E;}
	.st56{fill:url(#SVGID_00000086685665750349317480000006121515798124279691_);}
	.st57{fill:#A6A8AB;}
	.st58{fill:#0267A3;}
	.st59{fill:url(#SVGID_00000109739991139725891630000002210630089202303872_);}
	.st60{fill:#0F8CB4;}
	.st61{fill:#0A3755;}
	.st62{fill:#4B281E;}
	.st63{fill:#1C4D60;}
	.st64{fill:#00324B;}
	.st65{fill:#007DA5;}
	.st66{fill:#FFFFFF;}
	.st67{fill:#FABE0F;}
	.st68{fill:#BC8B0F;}
	.st69{fill:#82D2F5;}
	.st70{fill:#66B2CC;}
	.st71{fill:#71B9D3;}
	.st72{fill:url(#SVGID_00000143579270425712618440000010022774137748548482_);}
	.st73{fill:url(#SVGID_00000064338001116173719250000009897508390638769800_);}
	.st74{fill:url(#SVGID_00000105405819797568051080000011016208349001794993_);}
	.st75{fill:#4D4D4D;}
	.st76{fill:url(#SVGID_00000050646882052553487510000016913227960281235898_);}
	.st77{fill:url(#SVGID_00000007392866869020790290000009864182705887382454_);}
	.st78{fill:url(#SVGID_00000101784028576261417970000004569161615466300564_);}
	.st79{fill:url(#SVGID_00000026159136096607203230000001354032312469073042_);}
	.st80{fill:url(#SVGID_00000096022629185501707440000013247400020474402467_);}
	.st81{fill-rule:evenodd;clip-rule:evenodd;fill:#C16A14;}
	.st82{fill-rule:evenodd;clip-rule:evenodd;fill:#BA880C;}
	.st83{fill-rule:evenodd;clip-rule:evenodd;fill:#755914;}
	.st84{fill-rule:evenodd;clip-rule:evenodd;fill:#FABE0F;}
	.st85{fill:#782D2D;}
	.st86{fill:#AA6565;}
	.st87{fill:url(#SVGID_00000046332094046807456850000002960429685423553963_);}
	.st88{fill-rule:evenodd;clip-rule:evenodd;fill:url(#SVGID_00000165957392186528049840000011746399539486299291_);}
	.st89{fill-rule:evenodd;clip-rule:evenodd;fill:url(#SVGID_00000178896935168189990410000009962246668386600085_);}
	.st90{fill-rule:evenodd;clip-rule:evenodd;fill:#9B5E26;}
	.st91{fill-rule:evenodd;clip-rule:evenodd;fill:#683C18;}
	.st92{fill:url(#XMLID_00000023975410760213426630000005954412447526466474_);}
	.st93{fill:#5B0505;}
	.st94{fill:#840808;}
	.st95{fill:#750404;}
	.st96{fill:url(#SVGID_00000028324425537256270740000010192818800931847819_);}
	.st97{fill:url(#SVGID_00000029759289250409622910000003044683829351737246_);}
	.st98{fill:#B5B5B5;}
	.st99{fill:url(#SVGID_00000085947516918845937120000009462640783375566261_);}
	.st100{fill:url(#SVGID_00000168806499291009867810000006968036034202925194_);}
	.st101{fill:#3C5A82;}
	.st102{fill:#44688E;}
	.st103{fill:#11114C;}
	.st104{fill:url(#SVGID_00000066502996026378816480000000297467090217400488_);}
	.st105{fill:#7B7BBF;}
	.st106{fill:#6B6BC6;}
	.st107{fill:#C7C7F9;}
	.st108{fill:#6B6B6B;}
	.st109{fill:#363663;}
	.st110{fill:#0C5977;}
	.st111{fill:#136D89;}
	.st112{fill:#64BCE8;}
	.st113{fill:url(#SVGID_00000157272884239023408470000002002663768443490439_);}
	.st114{fill:url(#SVGID_00000016044890591324036150000010536292865637862056_);}
	.st115{fill:#DC730A;}
	.st116{fill:#F4F4F4;}
	.st117{fill:#A3591D;}
	.st118{fill:#030333;}
	.st119{fill:url(#SVGID_00000076576956172564098360000008725662787389781407_);}
	.st120{fill:url(#SVGID_00000096036287490173310250000002419565805244132265_);}
	.st121{fill:url(#SVGID_00000104671595165148155480000018260370386377015223_);}
	.st122{fill:url(#SVGID_00000103986767858430812670000006964559055773874342_);}
	.st123{fill:url(#SVGID_00000168092051607510848310000008082832906403159463_);}
	.st124{fill:url(#SVGID_00000047771416482678361710000006476048067970360981_);}
	.st125{fill:url(#SVGID_00000057134927494416623220000002612666962793266342_);}
	.st126{fill:url(#SVGID_00000178185669694037726430000007053349627969639090_);}
	.st127{fill:url(#SVGID_00000178902486944200950450000002351484694955327873_);}
	.st128{fill:url(#SVGID_00000105402714606585089070000017854951242718379141_);}
	.st129{fill:url(#SVGID_00000062165490554651203860000015271694338284839829_);}
	.st130{fill:url(#SVGID_00000075145834138380349870000011931436971249296536_);}
	.st131{fill:url(#SVGID_00000073703725720062723810000012951700105014821797_);}
	.st132{fill:url(#SVGID_00000057830819972096111880000005424450360817504138_);}
	.st133{fill:url(#SVGID_00000181085018156658755090000001254360944162196884_);}
	.st134{fill:url(#SVGID_00000065065753575185242620000004225930013476592794_);}
	.st135{fill:url(#SVGID_00000043432802826682426500000011979536919600909467_);}
	.st136{fill:url(#SVGID_00000059301464709790276500000008049075252737286798_);}
	.st137{fill:url(#SVGID_00000040559955240586258830000007087241880714762922_);}
	.st138{fill:url(#SVGID_00000113337207736333575840000008549620259620545974_);}
	.st139{fill:url(#SVGID_00000014596843524322079250000003842818720724621706_);}
	.st140{fill:url(#SVGID_00000075132387890865395760000000678487735419924150_);}
	.st141{fill:url(#SVGID_00000161600619224525612720000010302690935370819001_);}
	.st142{fill:url(#SVGID_00000065037433854084743700000003295776247802539146_);}
	.st143{fill:url(#SVGID_00000103246412569258897020000006447699943986240187_);}
	.st144{fill:url(#SVGID_00000008109232032101288700000003826577895464038276_);}
	.st145{fill:url(#SVGID_00000182500971173990284060000011807619079748537791_);}
	.st146{fill:url(#SVGID_00000052092379523500811790000003573575964421389467_);}
	.st147{fill:url(#SVGID_00000083809172914724508690000007601473166060832441_);}
	.st148{fill:url(#SVGID_00000034797074729016297820000015097446953795467413_);}
	.st149{fill:url(#SVGID_00000120556171769867456890000007436966470383630746_);}
	.st150{fill:url(#SVGID_00000097487830003816648370000001429470350249835403_);}
	.st151{fill:url(#SVGID_00000031917713100637025690000015555000523284070327_);}
	.st152{fill:url(#SVGID_00000078006850915015105970000000476921732609623439_);}
	.st153{fill:url(#SVGID_00000060729300235554522380000002192576886384338350_);}
	.st154{fill:url(#SVGID_00000165929369913332939250000001550563170203134374_);}
	.st155{fill:#ED9443;}
	.st156{fill:url(#SVGID_00000043435494818976157470000015945390490018883204_);}
	.st157{fill:#4B4BAA;}
	.st158{fill:#5D5D91;}
</style>
<g id="Layer_1">
</g>
<g id="Layer_2">
</g>
<g id="Layer_3">
</g>
<g id="Layer_4">
</g>
<g id="Layer_5">
</g>
<g id="Layer_6">
</g>
<g id="Layer_7">
</g>
<g id="Layer_8">
</g>
<g id="Layer_9">
</g>
<g id="Layer_10">
</g>
<g id="Layer_11">
</g>
<g id="Layer_12">
</g>
<g id="Layer_13">
</g>
<g id="Layer_14">
</g>
<g id="Layer_15">
	<linearGradient id="SVGID_1_" gradientUnits="userSpaceOnUse" x1="96.0736" y1="95.01" x2="253.9264" y2="95.01">
		<stop  offset="0" style="stop-color:#376EA5"/>
		<stop  offset="1" style="stop-color:#143C55"/>
	</linearGradient>
	<path class="st35" d="M253.93,55.24v1.47c0,0.75-0.61,1.36-1.36,1.36H97.44c-0.75,0-1.36-0.61-1.36-1.36v-1.47
		c0-0.75,0.61-1.36,1.36-1.36h155.13C253.31,53.88,253.93,54.49,253.93,55.24z M175,29.82L105.25,51.2h139.5L175,29.82z
		 M253.93,157.37v1.47c0,0.75-0.61,1.36-1.36,1.36H97.44c-0.75,0-1.36-0.62-1.36-1.36v-1.47c0-0.75,0.62-1.36,1.36-1.36h14.53
		c6.03-1.03,5.68-5.57,5.68-10.89V72.36c0-6.32-0.18-8.4-5.05-7.97c0.04,0.24,0.05,0.49,0.05,0.75c0,2.82-2.29,5.11-5.11,5.11
		c-2.82,0-5.11-2.29-5.11-5.11c0-2.82,2.29-5.11,5.11-5.11h134.57c2.82,0,5.11,2.29,5.11,5.11c0,2.82-2.29,5.11-5.11,5.11
		c-2.82,0-5.11-2.29-5.11-5.11c0-0.25,0.02-0.5,0.05-0.75c-4.88-0.43-5.05,1.65-5.05,7.97v72.75c0,5.32-0.35,9.86,5.68,10.89h14.88
		C253.31,156,253.93,156.62,253.93,157.37z M122.4,63.78h-2.14V156h2.14V63.78z M126.6,63.78h-2.02V156h2.02V63.78z M130.79,63.78
		h-2.02V156h2.02V63.78z M134.93,63.78h-2.14V156h2.14V63.78z M139.13,63.78h-2.02V156h2.02V63.78z M162.51,145.11V72.36
		c0-6.33-0.18-8.4-5.05-7.97l0,0.01l0,0.01l0,0.01l0,0.01l0,0.01l0,0.01l0,0.01l0,0.01v0l0,0.01l0,0.01l0,0.01l0,0.01l0,0.01l0,0.01
		l0,0.01l0,0.01l0,0.01l0,0.01l0,0.01l0,0.01v0.01l0,0.01l0,0.01v0.01l0,0.01l0,0.01l0,0.01l0,0.01l0,0.01l0,0.01l0,0.01l0,0.01v0
		v0.01l0,0.01l0,0.01l0,0.01l0,0.01l0,0.01l0,0.01l0,0.01v0.01l0,0.01l0,0.01v0v0.01v0.01l0,0.01l0,0.01v0.01l0,0.01v0.01l0,0.01
		v0.01l0,0.01V65v0v0.01l0,0.01v0.01v0.01v0.01l0,0.01v0.01v0.01v0.01v0.01v0.01c0,2.82-2.29,5.11-5.11,5.11
		c-2.82,0-5.11-2.29-5.11-5.11v-0.02V65.1v-0.02l0-0.02v-0.02v-0.02l0-0.02V65l0-0.02v-0.02l0-0.02l0-0.02v-0.02l0-0.02l0-0.02
		l0-0.02v0l0-0.02l0-0.02v-0.02l0-0.02l0-0.02l0-0.02l0-0.02l0-0.02v0l0-0.01l0-0.02l0-0.02l0-0.02l0-0.02l0-0.02l0-0.02l0-0.02v0
		l0-0.01l0-0.02l0-0.02l0-0.02l0-0.02l0-0.02l0-0.02l0-0.02l0,0l0-0.01l0-0.02l0-0.02l0-0.02l0-0.02l0-0.02l0-0.02l0-0.02v0l0-0.01
		l0-0.02l0-0.02l0-0.02l0-0.02l0-0.02l0-0.02l0-0.02v0l0-0.01l0-0.02l0-0.02l0-0.02l0-0.02l0-0.02l0-0.02l0-0.02
		c-4.78-0.29-5.79,1.27-5.79,8.07v73.16c0.02,5.28-0.27,9.65,5.68,10.66h9.54C162.86,154.97,162.51,150.43,162.51,145.11z
		 M167.25,63.78h-2.14V156h2.14V63.78z M171.45,63.78h-2.02V156h2.02V63.78z M175.65,63.78h-2.02V156h2.02V63.78z M179.79,63.78
		h-2.14V156h2.14V63.78z M183.98,63.78h-2.02V156h2.02V63.78z M208.05,72.18c0-6.8-1.01-8.35-5.79-8.07l0,0.02l0,0.02l0,0.02l0,0.02
		l0,0.02l0,0.02l0,0.02l0,0.01v0l0,0.02l0,0.02l0,0.02l0,0.02l0,0.02l0,0.02l0,0.02l0,0.01v0l0,0.02l0,0.02l0,0.02l0,0.02l0,0.02
		l0,0.02l0,0.02l0,0.01l0,0l0,0.02l0,0.02l0,0.02l0,0.02l0,0.02l0,0.02l0,0.02l0,0.01v0l0,0.02l0,0.02l0,0.02l0,0.02v0.02l0,0.02
		l0,0.02l0,0.01v0l0,0.02l0,0.02l0,0.02l0,0.02l0,0.02l0,0.02l0,0.02l0,0.02v0l0,0.02l0,0.02l0,0.02v0.02l0,0.02l0,0.02v0.02l0,0.02
		v0.02v0.02v0.02v0.02l0,0.02v0.02v0.02v0.02c0,2.82-2.29,5.11-5.11,5.11c-2.82,0-5.11-2.29-5.11-5.11v-0.02V65.1v-0.02l0-0.02
		v-0.02v-0.02l0-0.02V65l0-0.02v-0.02l0-0.02v-0.02v-0.02l0-0.02l0-0.02l0-0.02v0l0-0.02l0-0.02l0-0.02l0-0.02l0-0.02l0-0.02v-0.02
		l0-0.02v0l0-0.01l0-0.02l0-0.02l0-0.02l0-0.02l0-0.02l0-0.02l0-0.02v0l0-0.01l0-0.02l0-0.02l0-0.02l0-0.02l0-0.02l0-0.02l0-0.02
		l0,0l0-0.01l0-0.02l0-0.02l0-0.02l0-0.02l0-0.02l0-0.02l0-0.02v0l0-0.01l0-0.02l0-0.02l0-0.02l0-0.02l0-0.02l0-0.02l0-0.02v0
		l0-0.01l0-0.02l0-0.02l0-0.02l0-0.02l0-0.02l0-0.02l0-0.02c-4.78-0.29-5.8,1.27-5.8,8.07v73.16c0.02,5.28-0.27,9.65,5.68,10.66
		h10.24c5.95-1.02,5.66-5.38,5.68-10.66V72.18z M212.55,63.78h-2.02V156h2.02V63.78z M216.87,63.78h-2.14V156h2.14V63.78z
		 M220.89,63.78h-2.02V156h2.02V63.78z M225.08,63.78h-2.02V156h2.02V63.78z M229.4,63.78h-2.14V156h2.14V63.78z"/>
</g>
</svg>
