<?xml version="1.0" encoding="utf-8"?>
<!-- Generator: Adobe Illustrator 27.8.1, SVG Export Plug-In . SVG Version: 6.00 Build 0)  -->
<svg version="1.1" xmlns="http://www.w3.org/2000/svg" xmlns:xlink="http://www.w3.org/1999/xlink" x="0px" y="0px"
	 viewBox="0 0 350 230" style="enable-background:new 0 0 350 230;" xml:space="preserve">
<style type="text/css">
	.st0{fill:#F5FFCA;}
	.st1{fill:#FCFFE9;}
	.st2{fill:#CBE5BE;}
	.st3{fill:#CCFDFF;}
	.st4{fill:#FFE4CA;}
	.st5{fill:#CAFFD6;}
	.st6{fill:#FFF5CC;}
	.st7{fill:#001044;}
	.st8{fill:#FFF9DE;}
	.st9{fill:#FFFAD4;}
	.st10{fill:#C7FEFF;}
	.st11{fill:#003F49;}
	.st12{fill:#8E032B;}
	.st13{fill:#87622B;}
	.st14{fill:#83014C;}
	.st15{fill:#B72204;}
	.st16{fill:#015254;}
	.st17{fill:#5B9C40;}
	.st18{fill:#0055B6;}
	.st19{fill-rule:evenodd;clip-rule:evenodd;fill:#3A1D03;}
	.st20{fill-rule:evenodd;clip-rule:evenodd;fill:#723600;}
	.st21{fill:#00438D;}
	.st22{fill:#162E50;}
	.st23{fill:#F6921E;}
	.st24{fill:#00237A;}
	.st25{fill:#563B00;}
	.st26{fill:#00FFB6;}
	.st27{fill:#9500FF;}
	.st28{fill:#440000;}
	.st29{fill:#45EDFF;}
	.st30{fill:#CC7F7F;}
	.st31{fill-rule:evenodd;clip-rule:evenodd;fill:#FFFFFF;}
	.st32{fill-rule:evenodd;clip-rule:evenodd;fill:#DDBC66;}
	.st33{fill-rule:evenodd;clip-rule:evenodd;fill:#041440;}
	.st34{fill-rule:evenodd;clip-rule:evenodd;fill:url(#SVGID_1_);}
	.st35{fill:#041440;}
	.st36{fill-rule:evenodd;clip-rule:evenodd;fill:url(#SVGID_00000073715567344483426500000001882433268187694992_);}
	.st37{fill-rule:evenodd;clip-rule:evenodd;fill:#A47B3E;}
	.st38{fill:#102D56;}
	.st39{fill:#BA9966;}
	.st40{fill:url(#SVGID_00000152229928833823490020000001149003243878564265_);}
	.st41{fill-rule:evenodd;clip-rule:evenodd;fill:url(#SVGID_00000005259495550362588710000004233724062449626762_);}
	.st42{fill:url(#SVGID_00000165912822696883144110000017505891924906006959_);}
	.st43{fill:#6D1B1B;}
	.st44{fill:#E8C052;}
	.st45{fill:#161314;}
	.st46{fill:#BD6A25;}
	.st47{fill:url(#SVGID_00000180330381868516399580000001729489299717611913_);}
	.st48{fill:#E0902C;}
	.st49{fill:#292F38;}
	.st50{fill:#E3B92E;}
	.st51{fill:#252D35;}
	.st52{fill:#C72D2D;}
	.st53{fill:#D8A843;}
	.st54{fill:#1A2655;}
	.st55{fill:#4D479E;}
	.st56{fill:url(#SVGID_00000067943204877578867140000012935302679452012188_);}
	.st57{fill:#A6A8AB;}
	.st58{fill:#0267A3;}
	.st59{fill:url(#SVGID_00000087379180140781200840000017962313174866981807_);}
	.st60{fill:#4B281E;}
	.st61{fill:#1C4D60;}
	.st62{fill:#00324B;}
	.st63{fill:#007DA5;}
	.st64{fill:#FFFFFF;}
	.st65{fill:#FABE0F;}
	.st66{fill:#BC8B0F;}
	.st67{fill:#82D2F5;}
	.st68{fill:#66B2CC;}
	.st69{fill:#71B9D3;}
	.st70{fill:url(#SVGID_00000165953446445178083450000004710866299867229587_);}
	.st71{fill:url(#SVGID_00000153686019290787441520000009194788801303464351_);}
	.st72{fill:url(#SVGID_00000023969993811248864160000013566290141835227562_);}
	.st73{fill:#4D4D4D;}
	.st74{fill:url(#SVGID_00000165949498636214852570000017958091264783301299_);}
	.st75{fill:url(#SVGID_00000033331253443250695850000015189218800261928084_);}
	.st76{fill:url(#SVGID_00000021807297367678986100000016358941938150610860_);}
	.st77{fill:url(#SVGID_00000091699006829771752060000009855670509803923853_);}
	.st78{fill:url(#SVGID_00000087401526948854134330000012658299491016267439_);}
	.st79{fill:#030333;}
	.st80{fill:url(#SVGID_00000017517156397417870180000017988498093150060951_);}
	.st81{fill:url(#SVGID_00000076562761158945313150000006805635984791750818_);}
	.st82{fill:url(#SVGID_00000114767659404204607880000006347034492335349438_);}
	.st83{fill:url(#SVGID_00000155850393076797427560000002883372833917761701_);}
	.st84{fill:url(#SVGID_00000062885298217771945590000010928321165395641223_);}
	.st85{fill:url(#SVGID_00000108288937928285638400000017828006095849059742_);}
	.st86{fill:url(#SVGID_00000103983390679298489460000003339546773879695284_);}
	.st87{fill:url(#SVGID_00000034784035727513199180000001276874730960349098_);}
	.st88{fill:url(#SVGID_00000149348691193998736370000018195449425044810629_);}
	.st89{fill:url(#SVGID_00000112590646905062301640000000294848949644551556_);}
	.st90{fill:url(#SVGID_00000106122097651238547600000005227109124726043566_);}
	.st91{fill:url(#SVGID_00000088813510657488552680000017805891332418837140_);}
	.st92{fill:url(#SVGID_00000074410129029868503320000010611333289861093528_);}
	.st93{fill:url(#SVGID_00000114067430992893609530000010082022980793221505_);}
	.st94{fill:url(#SVGID_00000073707800855253530180000012825684305083443874_);}
	.st95{fill:url(#SVGID_00000108987999594361930450000004444526881879680696_);}
	.st96{fill:url(#SVGID_00000013910054608072925380000012535303695913516968_);}
	.st97{fill:url(#SVGID_00000011015077840732996700000017755434098181696132_);}
	.st98{fill:url(#SVGID_00000152946081354276374710000000050758357352575881_);}
	.st99{fill:url(#SVGID_00000121275578976651696300000013567289620823879069_);}
	.st100{fill:url(#SVGID_00000159431479565517913250000018047335732770729917_);}
	.st101{fill:url(#SVGID_00000014602781515318438160000012118323013318904466_);}
	.st102{fill:url(#SVGID_00000044168424164689777710000001105134561407710910_);}
	.st103{fill:url(#SVGID_00000103257873162832598970000001264175536378868132_);}
	.st104{fill:url(#SVGID_00000018927909915483811100000012198668447736783283_);}
	.st105{fill:url(#SVGID_00000052104232246249754480000013690638282896259980_);}
	.st106{fill:url(#SVGID_00000183971086633984465460000011597452074796273326_);}
	.st107{fill:url(#SVGID_00000088816145910885513780000000569632729246034096_);}
	.st108{fill:url(#SVGID_00000037651204194639127800000015541717912560879800_);}
	.st109{fill:url(#SVGID_00000024718658025295482820000010017553900021400234_);}
	.st110{fill:url(#SVGID_00000092437127405186007740000012839618167293584016_);}
	.st111{fill:url(#SVGID_00000157306302951662333610000007496956572093987220_);}
	.st112{fill:url(#SVGID_00000030463131720415047260000008978367934268409512_);}
	.st113{fill:url(#SVGID_00000090275118016354265150000012266697188518463617_);}
	.st114{fill:url(#SVGID_00000104678501949685390750000010693872827980956333_);}
	.st115{fill:url(#SVGID_00000119827899825099972620000008427558690087076232_);}
	.st116{fill-rule:evenodd;clip-rule:evenodd;fill:#C16A14;}
	.st117{fill-rule:evenodd;clip-rule:evenodd;fill:#BA880C;}
	.st118{fill-rule:evenodd;clip-rule:evenodd;fill:#755914;}
	.st119{fill-rule:evenodd;clip-rule:evenodd;fill:#FABE0F;}
	.st120{fill:#782D2D;}
	.st121{fill:#AA6565;}
	.st122{fill:url(#SVGID_00000000915720564928704940000013106822584267741346_);}
	.st123{fill-rule:evenodd;clip-rule:evenodd;fill:url(#SVGID_00000080916714389043561320000012963454450641921956_);}
	.st124{fill-rule:evenodd;clip-rule:evenodd;fill:url(#SVGID_00000029042585763619181320000001835765752838881727_);}
	.st125{fill-rule:evenodd;clip-rule:evenodd;fill:#9B5E26;}
	.st126{fill-rule:evenodd;clip-rule:evenodd;fill:#683C18;}
	.st127{fill:url(#XMLID_00000162350449894997169730000018420410883761359501_);}
	.st128{fill:#5B0505;}
	.st129{fill:#840808;}
	.st130{fill:#750404;}
	.st131{fill:url(#SVGID_00000038398833586066457950000005401155489998544034_);}
	.st132{fill:url(#SVGID_00000029765911531032230400000015793612034906400926_);}
	.st133{fill:#B5B5B5;}
	.st134{fill:url(#SVGID_00000031916454433510719560000004596864545939489463_);}
	.st135{fill:url(#SVGID_00000062877512937032115860000008826645724421951645_);}
	.st136{fill:#3C5A82;}
	.st137{fill:#44688E;}
	.st138{fill:#11114C;}
	.st139{fill:url(#SVGID_00000122692554139564566160000006367548581728598438_);}
	.st140{fill:#7B7BBF;}
	.st141{fill:#6B6BC6;}
	.st142{fill:#C7C7F9;}
	.st143{fill:#6B6B6B;}
	.st144{fill:#363663;}
	.st145{fill:#0C5977;}
	.st146{fill:#136D89;}
	.st147{fill:#64BCE8;}
	.st148{fill:url(#SVGID_00000074417026994850754030000010941110059346608512_);}
	.st149{fill:url(#SVGID_00000029735111882295197990000001825137624784274307_);}
	.st150{fill:#DC730A;}
	.st151{fill:#F4F4F4;}
	.st152{fill:#A3591D;}
	.st153{fill:#ED9443;}
	.st154{fill:url(#SVGID_00000148645077248784081930000014062532808708830634_);}
	.st155{fill:#4B4BAA;}
	.st156{fill:#5D5D91;}
	.st157{fill:#0F8CB4;}
	.st158{fill:#0A3755;}
</style>
<g id="Layer_1">
</g>
<g id="Layer_2">
</g>
<g id="Layer_3">
</g>
<g id="Layer_4">
</g>
<g id="Layer_5">
</g>
<g id="Layer_6">
</g>
<g id="Layer_7">
</g>
<g id="Layer_8">
</g>
<g id="Layer_9">
</g>
<g id="Layer_10">
</g>
<g id="Layer_11">
</g>
<g id="Layer_12">
</g>
<g id="Layer_13">
</g>
<g id="Layer_14">
</g>
<g id="Layer_15">
	<path class="st61" d="M240.06,51.08C203.02,45.2,171,24.77,171,24.77s-32.02,20.43-69.06,26.31c0,0-6.06,74.21,69.06,109.12
		C246.11,125.29,240.06,51.08,240.06,51.08z"/>
	<path class="st62" d="M171,158.69c-16.7-7.85-30.63-18.33-41.43-31.15c-8.73-10.37-15.45-22.29-19.97-35.44
		c-6.64-19.32-6.52-35.62-6.35-39.85c33.36-5.56,62.77-22.84,67.75-25.87c4.98,3.03,34.39,20.31,67.75,25.87
		c0.17,4.24,0.28,20.62-6.39,39.96c-4.53,13.13-11.25,25.03-19.98,35.38C201.59,140.39,187.67,150.85,171,158.69z"/>
	<path class="st63" d="M171,154.13c-15.38-7.5-28.25-17.33-38.29-29.24c-8.41-9.98-14.87-21.46-19.23-34.13
		c-5.27-15.34-6.13-28.6-6.18-35.06c29.73-5.65,55.22-19.54,63.69-24.53c8.47,4.99,33.96,18.87,63.68,24.52
		c-0.06,6.54-0.94,20.06-6.32,35.49c-4.38,12.59-10.86,24-19.26,33.92C199.09,136.93,186.28,146.68,171,154.13z"/>
	<path class="st64" d="M173.72,47.98c-0.2,3.54-1.2,6.5-1.92,8.24c0.63,0.29,1.06,0.93,1.06,1.67c0,1.02-0.83,1.85-1.86,1.85
		s-1.86-0.83-1.86-1.85c0-0.74,0.43-1.38,1.06-1.67c-0.72-1.74-1.72-4.7-1.92-8.24c-0.22-3.66,2.72-4.33,2.72-4.33
		S173.94,44.32,173.72,47.98z M188.58,63.52L188.58,63.52c0-0.94-0.76-1.7-1.7-1.7h-31.75c-0.94,0-1.7,0.76-1.7,1.7l0,0
		c0,0.94,0.76,1.7,1.7,1.7h31.75C187.81,65.22,188.58,64.46,188.58,63.52z M199.85,72.4c0,3.11-2.52,5.64-5.64,5.64
		c-2.15,0-4.02-1.21-4.97-2.99h-36.48c-0.95,1.78-2.82,2.99-4.97,2.99c-3.12,0-5.64-2.53-5.64-5.64c0-3.01,2.35-5.47,5.33-5.62
		c0.1-0.02,0.21-0.02,0.31-0.02h46.42c0.1,0,0.21,0,0.31,0.02C197.5,66.93,199.85,69.39,199.85,72.4z M188.6,72.8
		c-0.02-0.13-0.02-0.27-0.02-0.4c0-0.54,0.08-1.06,0.22-1.56h-35.6c0.14,0.5,0.22,1.02,0.22,1.56c0,0.13,0,0.27-0.02,0.4H188.6z
		 M183.94,76.9h-25.88c-0.67,0-1.2,0.54-1.2,1.2c0,0.67,0.53,1.21,1.2,1.21h0.63v49.94l4.11,4.04V83.98c0-1.76,1.44-3.19,3.2-3.19
		c0.88,0,1.68,0.36,2.26,0.93c0.57,0.58,0.93,1.38,0.93,2.26v54.15c0,0.42-0.08,0.83-0.23,1.19l2.04,2.01l2.04-2
		c-0.15-0.37-0.23-0.78-0.23-1.2V83.98c0-0.88,0.36-1.68,0.93-2.26c0.58-0.57,1.38-0.93,2.26-0.93c1.77,0,3.2,1.43,3.2,3.19v49.31
		l4.11-4.04V79.31h0.63c0.67,0,1.2-0.54,1.2-1.21C185.14,77.44,184.61,76.9,183.94,76.9z M152.49,98.2
		c-0.9,10.25-13.63,11.15-13.63,11.15h0c0,0-12.73-0.9-13.63-11.15c0.19,0.38,0.62,0.73,1.2,1.04l11.31-16.92
		c-0.2-0.25-0.32-0.55-0.32-0.89c0-0.79,0.64-1.43,1.43-1.43c0.79,0,1.43,0.64,1.43,1.43c0,0.34-0.12,0.65-0.32,0.89l11.31,16.92
		C151.88,98.94,152.3,98.58,152.49,98.2z M138.27,98.76V83.67l-5.9,8.83l0.06-0.07c-3.65,5.46-2.89,7.48-2.89,7.48l-0.69,0.15
		C131.88,100.73,136.02,100.58,138.27,98.76z M148.89,100.07l-0.69-0.15c0,0,0.76-2.02-2.89-7.48l0.06,0.07l-5.9-8.83v15.09
		C141.71,100.58,145.85,100.73,148.89,100.07z M190.71,99.24l11.31-16.92c-0.2-0.25-0.32-0.55-0.32-0.89c0-0.79,0.64-1.43,1.43-1.43
		s1.43,0.64,1.43,1.43c0,0.34-0.12,0.65-0.32,0.89l11.31,16.92c0.59-0.31,1.01-0.66,1.2-1.04c-0.9,10.25-13.63,11.15-13.63,11.15
		l0,0c0,0-12.73-0.9-13.63-11.15C189.69,98.58,190.12,98.94,190.71,99.24z M213.16,100.07l-0.69-0.15c0,0,0.76-2.02-2.89-7.48
		l0.06,0.07l-5.9-8.83v15.09C205.98,100.58,210.12,100.73,213.16,100.07z M202.54,98.76V83.67l-5.9,8.83l0.06-0.07
		c-3.65,5.46-2.89,7.48-2.89,7.48l-0.69,0.15C196.14,100.73,200.28,100.58,202.54,98.76z"/>
</g>
</svg>
