<?xml version="1.0" encoding="utf-8"?>
<!-- Generator: Adobe Illustrator 24.0.1, SVG Export Plug-In . SVG Version: 6.00 Build 0)  -->
<svg version="1.1" id="Layer_1" xmlns="http://www.w3.org/2000/svg" xmlns:xlink="http://www.w3.org/1999/xlink" x="0px" y="0px"
	 viewBox="0 0 300 300" style="enable-background:new 0 0 300 300;" xml:space="preserve">
<style type="text/css">
	.st0{fill:#72C169;}
	.st1{fill:#101128;}
</style>
<g>
	<path class="st0" d="M122.9,63.3L40.5,259.2H86l82.4-195.9H122.9z M274.7,105.7H170.9l18.2-42.4H292L274.7,105.7z M207.5,127.8
		h-44.7l-17.4,36.6h47.3L207.5,127.8z"/>
	<path class="st1" d="M125.4,172.7l-36.8,87.5c-0.4,1-1.4,1.7-2.6,1.7H14.7c-1.5,0-2.8-1.2-2.8-2.8c0-1.5,1.2-2.8,2.8-2.8h69.4
		l36.2-85.9c0.3-1.5,1.8-2.5,3.3-2.1c1.5,0.3,2.5,1.8,2.1,3.3C125.8,172,125.6,172.4,125.4,172.7z M211.2,149.6
		C211.2,149.6,211.2,149.6,211.2,149.6c-1.5-0.5-3.1,0.2-3.6,1.6l-8.1,20.3h-55.4c-1.1,0-2.1,0.7-2.4,1.7l-35.8,84.9
		c-0.6,1.4,0.1,3,1.5,3.6l1,0.2c1.1,0,2.2-0.7,2.6-1.7l34.9-83.1h55.4c1.1,0,2.1-0.7,2.6-1.7l8.8-22.2
		C213.3,151.8,212.6,150.2,211.2,149.6z M265.4,111.3h-97.2c-1.5,0-2.8,1.2-2.8,2.8c0,1.5,1.2,2.8,2.8,2.8h97.2
		c1.5,0,2.8-1.2,2.8-2.8C268.2,112.5,266.9,111.3,265.4,111.3z M9.5,193.1l54.8,2.4l-12.4,29.5c0,0,0,0.1,0,0.1
		c-0.6,1.4,0.1,2.9,1.4,3.5c0.3,0.2,0.7,0.3,1,0.2c1.1,0.1,2.2-0.6,2.6-1.6l68.5-162.9c0,0,0-0.1,0-0.1c0.6-1.4-0.1-2.9-1.4-3.5
		c-0.1,0-0.1,0-0.2-0.1c-1.4-0.5-2.9,0.2-3.4,1.6l-8.6,20.4l-77.6,2.9l75.3,2.6l-6.7,16l-73.4,2.7l71.1,2.5l-5.2,12.4l-70.5,2.8
		l68.3,2.6l-5.5,13l-67.4,2.7l65.2,2.5l-5.1,12l-63.2,2.8l60.9,2.5l-4.7,11.1c0,0,0,0-0.1,0l-59.2,2.9l57,2.6l-4.6,11L9.5,193.1z"/>
</g>
</svg>
