<?xml version="1.0" encoding="utf-8"?>
<!-- Generator: Adobe Illustrator 24.0.1, SVG Export Plug-In . SVG Version: 6.00 Build 0)  -->
<svg version="1.1" id="Layer_1" xmlns="http://www.w3.org/2000/svg" xmlns:xlink="http://www.w3.org/1999/xlink" x="0px" y="0px"
	 viewBox="0 0 300 300" style="enable-background:new 0 0 300 300;" xml:space="preserve">
<style type="text/css">
	.st0{fill:#F29320;}
	.st1{fill:#010101;}
</style>
<g>
	<path class="st0" d="M165.4,132.4l-39.9,30.1V31.2h39.9L165.4,132.4z M125.5,185v91.3h39.9V151.4L125.5,185z"/>
	<path class="st1" d="M280.6,50.9c-1.6,1.6-3.5,3.5-5.9,5.6c0.1,1.5,0.2,3.8,0.5,6.6l1.8-1.6c0.5-0.4,1.2-0.4,1.7,0.1l0.2,0.3
		c0.4,0.4,0.4,1.1,0,1.6l-3.5,3l0.3,5.2l1.7-1.5c0.5-0.4,1.2-0.4,1.7,0.1l0.2,0.3c0.4,0.4,0.4,1.1,0,1.6l-3.4,2.9
		c0.5,5.7,0.7,10.6,0.5,11.4c-0.5,0.8-1.1,1.5-1.8,2.1c-0.6,0.5-0.8-0.1-0.8-0.8s-1.8-6.4-3.5-11.7h-0.1c-0.2,0.2-0.5,0.1-0.7,0
		h-0.1c-0.1-0.2-0.1-0.6,0.1-0.7l0.3-0.5c-0.1-0.6-0.3-1.1-0.5-1.7h-0.1c-0.2,0.2-0.6,0.2-0.7,0h-0.1c-0.2-0.2-0.2-0.5,0-0.7
		l0.5-0.5c-0.1-0.5-0.2-0.9-0.5-1.4h-0.1c-0.1,0.2-0.3,0.2-0.5,0.1c0,0-0.1-0.1-0.1-0.1h-0.2c-0.1-0.2-0.1-0.6,0.1-0.7l0.5-0.5
		c-0.2-0.5-0.4-1-0.5-1.5l-0.3-0.7h-0.2c-0.3,0.3-0.8,0.3-1.1,0c0,0-0.1-0.1-0.1-0.1l-0.2-0.2c-0.3-0.4-0.2-0.9,0.1-1.2l0.5-0.5
		l-0.6-1.1c-2.6,2.3-5.5,4.7-8.7,7.2c0,0-2.7,2.1-5.9,4.3l0.8,11.5c0,0-1.1,3.5-2.1,2.7c-1-0.8-1.9-5.4-2.4-6.2
		c-0.5-0.8-1.4-3.5-1.8-4.8l-0.7,0.3l-1.9,1h-0.2l-1.2,1c-0.1,0.1-0.3,0.1-0.5,0c-0.1-0.2-0.1-0.4,0-0.6l1.2-1v-0.5l1.2-1.7
		c0.1-0.2,0.3-0.5,0.5-0.7l-4.6-2.5l-5.9-3.2c-0.7-1,2.9-1.7,2.9-1.7l11.4,2.3c2.5-2.9,4.8-5.4,4.8-5.4l8.2-7.7l-1-0.8l-0.5,0.6
		c-0.4,0.3-0.9,0.2-1.2-0.1l-0.2-0.2c-0.3-0.3-0.3-0.9,0-1.2l0.2-0.2l-0.7-0.3l-1.5-0.7l-0.5,0.3c-0.1,0.2-0.3,0.2-0.5,0.1
		c0,0-0.1-0.1-0.1-0.1h-0.3c-0.1-0.2-0.1-0.6,0.1-0.7h0.1l-1.4-0.9l-0.5,0.5c-0.2,0.2-0.5,0.2-0.7,0h-0.1c-0.2-0.2-0.2-0.6,0-0.7
		h0.1l-1.6-0.8l-0.5,0.5c-0.2,0.1-0.5,0.1-0.7-0.1h-0.1c-0.1-0.2-0.1-0.5,0-0.7h0.1l-11.2-5.4c-0.8,0-1.2-0.3-0.8-0.8
		c0.7-0.6,1.5-1.1,2.4-1.6c0.9,0,5.6,0.8,11.3,1.8l3.3-2.8c0.4-0.4,1-0.4,1.4-0.1c0.1,0.1,0.1,0.1,0.1,0.2l0.3,0.3
		c0.4,0.5,0.3,1.2-0.1,1.6l-1.7,1.5l5.2,1l3.4-3c0.5-0.3,1.1-0.3,1.6,0.1l0.3,0.3c0.4,0.5,0.4,1.2-0.1,1.7l-1.8,1.6l6.5,1.4
		c2.5-2.1,4.5-3.8,6.3-5.2c1.8-1.4,6-4.7,7.4-5c1.5-0.2,2.9,0.1,2.9,0.1s0.8,0-0.2,2.9C285.5,47.1,283.3,48.3,280.6,50.9z
		 M36.5,235.6l0.2-168.9H13v205.1l17-13.3L239.1,83.1L36.5,235.6z"/>
</g>
</svg>
