<?xml version="1.0" encoding="utf-8"?>
<!-- Generator: Adobe Illustrator 24.0.1, SVG Export Plug-In . SVG Version: 6.00 Build 0)  -->
<svg version="1.1" id="Layer_1" xmlns="http://www.w3.org/2000/svg" xmlns:xlink="http://www.w3.org/1999/xlink" x="0px" y="0px"
	 viewBox="0 0 300 300" style="enable-background:new 0 0 300 300;" xml:space="preserve">
<style type="text/css">
	.st0{fill:#121657;}
	.st1{fill:#81004A;}
</style>
<g>
	<path class="st0" d="M108.5,161.4l5.7,37.7l-19.2,70.3H14l3.3-11.9h63.5L108.5,161.4z M171.2,138.9l10.4-35.8L171,30.6H80
		l-3.3,11.9h79.7L171.2,138.9z M205.8,30.6l-3.3,11.9h66.2l-62.4,215.1h-79.1l1.7,11.9h91.6L286,30.6H205.8z"/>
	<path class="st1" d="M261.9,47.7l-59.5,204.7h-74.9l-1.9-12.1H176l52.5-180.4h-28.8l3.6-12.1L261.9,47.7z M124.1,59.8l16.2,104.8
		l23.5,1.5l4.1-13.9L151.9,47.7H77.4l-3.6,12.1L124.1,59.8z M104.8,135.4l-23.6-1.5L50.6,240.2H21.1l-3.6,12.1h59.4l29.9-103.6
		L104.8,135.4z"/>
</g>
</svg>
