<?xml version="1.0" encoding="utf-8"?>
<!-- Generator: Adobe Illustrator 24.0.1, SVG Export Plug-In . SVG Version: 6.00 Build 0)  -->
<svg version="1.1" id="Layer_1" xmlns="http://www.w3.org/2000/svg" xmlns:xlink="http://www.w3.org/1999/xlink" x="0px" y="0px"
	 viewBox="0 0 300 300" style="enable-background:new 0 0 300 300;" xml:space="preserve">
<style type="text/css">
	.st0{fill:#E1E31F;}
</style>
<g>
	<path class="st0" d="M78.1,279.6c5.8,0.9,11.7,1.3,17.7,1.2c87.2-1.1,78.7-87.2,78.7-87.2v-144H238l-20.9-36.7H55.9l17.5,35.5h52.4
		v164.3C125.9,212.7,122.9,262.9,78.1,279.6z M130.2,243.6c3.9-7.4,6.7-15.2,8.5-23.3l1.2-6.1c0.2-1,0.2-2,0.3-3l0.3-1.5v-14.2
		c0-16.7,0.1-33.6,0.4-50.3s0.5-33.6,1.2-50.3c0.7,16.7,1.1,33.6,1.2,50.3s0.4,33.6,0.4,50.4v14.2c-0.1,0.7-0.1,1.1-0.3,1.6
		c-0.1,1.1-0.2,2.2-0.4,3.2c-0.3,2.1-0.7,4.2-1.2,6.2c-1.9,8.3-5,16.3-9.3,23.7c-4.2,7.5-9.7,14.1-16.2,19.7
		c-3.3,2.7-6.8,5.1-10.5,7.1c-3.7,2.1-7.6,3.8-11.6,5.1c3.9-1.7,7.6-3.6,11.2-5.8c3.5-2.3,6.8-4.9,9.8-7.7
		C121.2,257.5,126.3,250.9,130.2,243.6z M212.4,56.2c-10.2,0.3-20.5,0.3-30.7,0.4l0.7,35.1v71.9c0,12-0.1,24-0.1,36
		c0.4,6.4,0.2,12.9-0.7,19.3c-0.7,6.4-2.1,12.6-4,18.7c-3.8,12.4-11,23.5-20.8,32.1c-9.8,8.2-21.6,13.7-34.2,15.8l-4.7,0.7l-4.7,0.5
		c-3.2,0.4-6.3,0.3-9.6,0.4c-6.3,0.1-12.6-0.4-18.9-1.5c6.3,0.8,12.6,1.1,18.9,0.8c3.2-0.3,6.3-0.3,9.4-0.8l4.7-0.5l4.6-0.9
		c12.3-2.6,23.9-7.8,33.3-16.2c9.4-8.4,15.8-19.5,19.5-31.3c1.9-6,3.2-12.1,3.9-18.3c0.7-6.2,0.9-12.4,0.5-18.6c0-12-0.1-24-0.1-36
		v-72l0.4-36v-0.9h0.9c10.5,0,21.2,0.1,31.7,0.4l31.7,0.5L212.4,56.2z"/>
</g>
</svg>
