<svg id="Layer_1" data-name="Layer 1" xmlns="http://www.w3.org/2000/svg" viewBox="0 0 300 300">
  <defs>
    <style>
      .cls-1 {
        fill: none;
      }
    </style>
  </defs>
  <title>1-05</title>
  <g>
    <path class="cls-1" d="M187.9,135.6l-1-.5Z"/>
    <path class="cls-1" d="M182.7,128a6.4,6.4,0,0,1,1.6-4.8,6.4,6.4,0,0,0-1.6,4.8,7.5,7.5,0,0,0,4.2,7.1A7.5,7.5,0,0,1,182.7,128Z"/>
    <path class="cls-1" d="M157.7,212.3v0Z"/>
    <path class="cls-1" d="M157.7,218.4v0Z"/>
    <path d="M79.5,155.9l-.6-.5h-.1a3.9,3.9,0,0,0,.6,1.1,4,4,0,0,1,1.7,2.8,16.3,16.3,0,0,0,.7,3,25.6,25.6,0,0,1,.5,2.7c.3,2.5.7,5.1.9,7.7a47.8,47.8,0,0,1-.2,5.3,12.7,12.7,0,0,1-.1,2l-1.2,7a18.7,18.7,0,0,1-.8,3.4,38.9,38.9,0,0,1-3.6,8.7c-1.2,2-2.3,4.1-3.6,6a33.1,33.1,0,0,1-8.9,9,34.8,34.8,0,0,1-6.9,3.6,23.7,23.7,0,0,1-7.7,1.4,16.7,16.7,0,0,1-5.8-.9,26.2,26.2,0,0,1-4.9-1.9,22.3,22.3,0,0,1-4.4-2.9,34.4,34.4,0,0,1-4.4-4.1,35.9,35.9,0,0,1-5.6-7.8c-1.3-2.7-2.8-5.3-4-8.1a59.5,59.5,0,0,1-2.2-5.9,56,56,0,0,1-1.7-5.4c-.6-2.1-.9-4.3-1.4-6.4a48.1,48.1,0,0,1-1.2-10.7c-.1-2.4-.4-4.8-.4-7.2s.3-6.3.6-9.4a65.1,65.1,0,0,1,1.3-7.7c.8-3.4,1.7-6.9,2.8-10.2a73.4,73.4,0,0,1,3.2-8.2,52,52,0,0,1,3.5-6c.8-1.3,1.9-2.6,2.8-3.8s2.2-2.7,3.1-4.1a63.3,63.3,0,0,0,3.6-5.4c1.2-2.1,2.3-4.3,3.4-6.6l3.6-7.6c1.8-3.6,3.5-7.1,5.4-10.7a49,49,0,0,1,3.1-4.8A5.8,5.8,0,0,1,52.3,72h1a2.3,2.3,0,0,1,.1,1.4C52.7,76,51.8,78.5,51,81s-1.3,4.4-1.8,6.7a52.9,52.9,0,0,0-1.3,6,58.3,58.3,0,0,0-.6,7.2,24.2,24.2,0,0,0,.9,6,18.6,18.6,0,0,0,5.7,8.4,60.4,60.4,0,0,1,7,7.3c3.1,3.9,6,8,8.8,12.1,1.5,2.2,2.6,4.6,3.9,6.9a42.3,42.3,0,0,1,2.2,4.2c.9,1.9,1.7,3.9,2.6,5.9l1.2,3.1c.1.3.1.7.2,1ZM219,183.3a43.4,43.4,0,0,0,1.4,6,39.9,39.9,0,0,0,2.5,5.6,35.8,35.8,0,0,0,3.4,5.7,55.5,55.5,0,0,0,4.9,5.8,34.1,34.1,0,0,0,6.8,5.2,35.7,35.7,0,0,0,8.3,3.5,13.3,13.3,0,0,0,3.4.5,36.5,36.5,0,0,0,7.4-.1,23.6,23.6,0,0,0,6.3-2.2,31,31,0,0,0,5.7-3.7,37,37,0,0,0,7.7-9.5,67.8,67.8,0,0,0,5.3-12.8,54.7,54.7,0,0,0,1.3-5.5c.1-.5.1-1,.2-1.5s.7-3.2,1-4.8.4-4,.6-6.1l.6-7.4c0-1-.1-2-.1-3s.1-1.5.1-2.3l-.6-6.8c-.2-2-.3-3.9-.6-5.9s-1.1-4.8-1.7-7.1a67.3,67.3,0,0,0-2.1-7.7,83.1,83.1,0,0,0-3.5-8.7,62.4,62.4,0,0,0-3.7-7.3c-1.9-3.3-3.9-6.4-5.9-9.6L264.8,99l-3.5-6.1-3.4-6.4-2.1-4.1c-.9-1.7-1.7-3.4-2.7-4.9s-1.6-3.1-3.2-4-.9-.4-1.2-.2a1.1,1.1,0,0,0-.5.9,20.2,20.2,0,0,0,.6,3.4,47.4,47.4,0,0,0,1.5,5c1.1,3.3,2.4,6.6,3.4,9.9a27,27,0,0,1,1.2,6.3c.2,2.3.4,4.7-.5,6.9s-1.6,3.9-2.4,5.8a30.9,30.9,0,0,1-5.3,8c-1.4,1.7-3.2,3-4.7,4.5-3,3-6,5.8-8.7,9a67.2,67.2,0,0,0-5.1,7.6c-1.3,2.3-2.5,4.8-3.6,7.2s-1.2,3-1.9,4.4a31,31,0,0,0-2.4,6.4c-.5,2.4-1.3,4.8-1.7,7.2s-.5,5.5-.9,8.9S218.5,180.2,219,183.3Zm-73.6-75a74.6,74.6,0,0,1-.6,9.5,76,76,0,0,1-1.9,9.5,67.7,67.7,0,0,1-2.8,7.5,28.7,28.7,0,0,1-7.2,10.4,21.4,21.4,0,0,1-6.1,4.2,20.1,20.1,0,0,1-6.9,1.8,32.7,32.7,0,0,1-4.4.4c-2.5-.3-5.1-.5-7.4-1.6a59.6,59.6,0,0,1-5.8-2.5,43.5,43.5,0,0,1-11.5-9.4,42.1,42.1,0,0,1-6.7-9.9c-1.1-2.5-2.4-5.1-3.4-7.7a47.7,47.7,0,0,1-1.5-5.4,37.2,37.2,0,0,1-1.1-4.8c-.4-2-.6-4-.8-6s-.5-4.4-.6-6.6.1-5.5.2-8.3v-.6c.2-2.4.3-4.8.7-7.1A50.6,50.6,0,0,1,79.4,74c1-2.7,2.2-5.3,3.4-7.9a68.2,68.2,0,0,1,3.9-6.4,70.1,70.1,0,0,1,4.8-6l10-11.3c1.9-2.2,3.8-4.5,5.8-6.7S110.5,32,112,30s4.4-6.2,6.4-9.4,3.3-5.2,4.9-7.7a52.2,52.2,0,0,1,3.8-5.4,2.9,2.9,0,0,1,1.8-1c.9-.2,1.3.5,1,1.3-1.4,2.8-2.8,5.6-4,8.4s-1.8,4.6-2.9,6.8a14.4,14.4,0,0,0-1.3,6.4,12.3,12.3,0,0,0,2.4,7.6c1.3,1.8,2.7,3.5,3.9,5.4s2.5,4.1,3.8,6.2v.5c-6.5-3.5-13.2-5.7-20.9-4.2a27.5,27.5,0,0,1,9.1,2.7,29.2,29.2,0,0,1,7,5.1,45.1,45.1,0,0,1,3.7,3.9,41.4,41.4,0,0,1,5.7,8.6c.8,1.9,1.9,3.6,2.7,5.6a60.1,60.1,0,0,1,2.2,6.4,51.6,51.6,0,0,1,1.6,5.2c.4,1.7.6,3.5.9,5.2s.7,4,1,6,.2,2.3.2,3.4C145.2,100.8,145.4,104.5,145.4,108.3ZM114,122.8c-5.2-.1-9.4,3.5-9.5,9.5a9,9,0,0,0,9.3,9.2c5.5.4,9.3-4.5,9.5-8.6C123.5,126.3,118.8,122.8,114,122.8ZM223,98a72.5,72.5,0,0,1-.9,8c-.1.6-.1,1.3-.2,1.9s-.4,2.8-.7,4.2l-.9,4.1c-.3,1.3-.5,2.6-.9,3.9s-1.4,3.9-2.2,5.8a33.6,33.6,0,0,1-2,4.3,31.7,31.7,0,0,1-2.7,4.7,53.3,53.3,0,0,1-5.4,6.2,28,28,0,0,1-9.5,6.4,21.1,21.1,0,0,1-6.5,1.9,45.7,45.7,0,0,1-5.2.5,16.7,16.7,0,0,1-6.6-1.1c-1.6-.7-3.3-1.2-4.8-2a48,48,0,0,1-4.8-3,19.9,19.9,0,0,1-5.4-5.8,47,47,0,0,1-3.7-6.5,57.8,57.8,0,0,1-2.4-7c-.4-1.4-.4-2.9-.8-4.4-1.1-4.7-.4-9.4-.5-14.1a40.7,40.7,0,0,1,.5-4.9,24.8,24.8,0,0,1,.3-2.7c.2-1.6.6-3.2.9-4.8l.9-4.2c.7-2.4,1.4-4.8,2.3-7.2a54.6,54.6,0,0,1,2.6-6.7c.8-1.7,1.8-3.4,2.8-5.1s3.1-5.2,4.8-7.7,2.6-3.9,3.9-5.9,3.1-5.1,4.5-7.6a45,45,0,0,0,2.3-4.3c.6-1.3,1-2.5,1.5-3.8a20.9,20.9,0,0,0,1.1-4.3,23.5,23.5,0,0,0-.2-5.3c-.3-2.5-1.7-4.7-2.7-6.9s-1.9-3.8-2.9-5.8l-3.3-6.7a24.9,24.9,0,0,1-1.1-2.9,2.7,2.7,0,0,1,0-.9c.4.1.9.1,1.1.3a17.8,17.8,0,0,1,2.2,2.6c1.5,2.1,2.9,4.1,4.3,6.3a45.8,45.8,0,0,0,7.1,8.7c1.9,1.8,4.1,3.4,6.1,5.1l7,6.1c2.5,2.3,5,4.5,7.4,6.9s2.3,3.1,3.5,4.6l.4,1.2c-6.1-3.2-12.3-4-18.7-1.8h1.9a15.4,15.4,0,0,1,6.1,1.2,21.9,21.9,0,0,1,8.6,5.8,33.2,33.2,0,0,1,4.4,6.2,42.8,42.8,0,0,1,4.2,10.4c.6,2.3.9,4.7,1.4,7.1C223.4,85.3,223.2,91.6,223,98Zm-36.4,24.7a8.4,8.4,0,0,0-6.8,3,1.8,1.8,0,0,0-.5.7,8.3,8.3,0,0,0-2,5.7c-.3,3.8,2.2,6.9,5.1,8.4l1.1.5,2.2.6a9.5,9.5,0,0,0,10.3-8.3C196.4,126.2,191.5,122.9,186.6,122.7ZM227,231.6a49.4,49.4,0,0,1-1.2,6.5,18.7,18.7,0,0,1-1.3,4A74.3,74.3,0,0,1,221,249a32.7,32.7,0,0,1-3.5,4.8,62.9,62.9,0,0,1-9.7,9.6l-5.6,4.1a36,36,0,0,1-8.3,4.2l-2.1.7a1.6,1.6,0,0,0-.8.8,20,20,0,0,1-4.4,8.7,19.6,19.6,0,0,1-7,5.8,53.2,53.2,0,0,1-6.9,3,58.4,58.4,0,0,1-6,1.5,48.9,48.9,0,0,1-14.2,1.3c-1.6,0-3.2.1-4.8,0s-4.9-.5-7.4-.9-4-.7-6-1.2c-4.7-1.4-9.2-3.3-12.9-6.5a21.1,21.1,0,0,1-6.2-8.6l-1.2-3.2a1.6,1.6,0,0,0-.7-.7,66,66,0,0,1-7.7-3.3,77.8,77.8,0,0,1-7.8-5.4,53.6,53.6,0,0,1-8.3-7.5,45.5,45.5,0,0,1-7.2-10.3c-1.1-2.3-2-4.5-2.9-6.9a27,27,0,0,1-.8-4.1,20.3,20.3,0,0,1-.6-4.2,42.3,42.3,0,0,1,.5-5,11,11,0,0,1,.2-1.8,40.3,40.3,0,0,1,3.4-8.7,42,42,0,0,1,5.2-7.3,46.4,46.4,0,0,1,8.4-7.5c1.8-1.4,3.8-2.6,5.7-3.8s4.7-2.8,6.8-4.4a51.9,51.9,0,0,0,7.7-7.1,34.2,34.2,0,0,0,6.4-10.7c.8-2.2,1.5-4.5,2.3-6.8s1.6-4.9,2.7-7.3a17,17,0,0,1,6.6-8.1,23.9,23.9,0,0,1,5.2-2.2c2-.7,4.1-1.1,6.1-1.6a6.3,6.3,0,0,1,1.9-.3c2.8.2,5.6-1,8.4,0a20.6,20.6,0,0,0,3.5.2l4.6,1,3,.7a29.8,29.8,0,0,1,4.4,2.1c1.7,1.2,3.4,2.3,4.5,4.2s2.2,3.7,3,5.6,1.6,4.7,2.4,7a45.2,45.2,0,0,0,2.1,6.2c.7,1.8,1.7,3.4,2.6,5.2s1.3,1.2,1,2.2l.3.2a2.7,2.7,0,0,1,.8.7,27.9,27.9,0,0,0,4.7,5,50.2,50.2,0,0,0,6.2,5c1.8,1.2,3.8,2.2,5.7,3.4s3.2,2.2,4.7,3.4,3.7,2.9,5.4,4.4a47.8,47.8,0,0,1,4.4,4.6,35.1,35.1,0,0,1,5,7.7,30,30,0,0,1,2.7,7.8A26.8,26.8,0,0,1,227,231.6Zm-94.4-53.1a17.6,17.6,0,0,0,.7,3.3,27.9,27.9,0,0,0,4,6.1,43.6,43.6,0,0,0,6.7,6.2,15.6,15.6,0,0,0,6.7,3,11.5,11.5,0,0,0,7.5-1.3,24.9,24.9,0,0,0,5-3.5,33.1,33.1,0,0,0,7.3-8.1,10.9,10.9,0,0,0,1.9-5.3,20.2,20.2,0,0,0-.1-3.5,17.8,17.8,0,0,0-.7-3.9c-.5-1.7-1.2-3.3-1.7-5a14,14,0,0,0-2.8-4.7c-2.1-2.2-4.9-3-7.7-3.7a51.5,51.5,0,0,0-6.5-.7,32.6,32.6,0,0,0-10.5,1.7,11.8,11.8,0,0,0-5.6,4.2c-1.9,2.7-2.6,5.8-3.5,8.8A15.4,15.4,0,0,0,132.6,178.5Zm-9.5,85.3a30.4,30.4,0,0,0,11.2-1.1,25.5,25.5,0,0,0,6.8-3.4,15.8,15.8,0,0,0,6.6-12.8V218c0-3.6.1-7.2,0-10.9a1.7,1.7,0,0,0-.6-1.2l-4.8-1.9c-2.4-.9-4.3-2.6-6.3-4.2s-3.3-2.8-4.9-4.2a5.4,5.4,0,0,0-4.2-1.3,13.3,13.3,0,0,0-4.8,1.4c-2.9,1.6-5.9,3-8.8,4.7s-6,3.5-8.9,5.4a55.2,55.2,0,0,0-6.6,5.1,35.1,35.1,0,0,0-7.2,8.6,22.5,22.5,0,0,0-2.7,6.9,18,18,0,0,0,.4,8.6c.5,1.6.7,3.4,1.5,4.8s2.8,4.5,4.2,6.8a46,46,0,0,0,7.8,8.1,38.2,38.2,0,0,0,7,4.9,45.3,45.3,0,0,0,8.6,3.4A21.8,21.8,0,0,0,123.1,263.8Zm56.7,10.6-6-.8c-2.3-.4-4.6-.8-6.9-1.4s-4.1-1.3-6.2-1.9-2.6-1.2-4-1.6a16.9,16.9,0,0,0-5-.8,19.7,19.7,0,0,0-5.1,1.5l-8.2,2.7a27.4,27.4,0,0,1-3.9.9,39.4,39.4,0,0,1-4.7,1l-4.5.3.6,1.1c2.7,3.3,6.4,5,10.4,6.2a30,30,0,0,0,6.1,1.3,63.1,63.1,0,0,0,7.6.8,45.5,45.5,0,0,0,11-.6l3.8-.6a44.3,44.3,0,0,0,4.9-1.3,29.6,29.6,0,0,0,4.9-2A12.7,12.7,0,0,0,179.8,274.4Zm36.9-49.6a44.8,44.8,0,0,0-1.8-4.4,57.2,57.2,0,0,0-3.2-4.8,39.9,39.9,0,0,0-8.4-8c-2.2-1.6-4.6-3-7-4.4s-3.9-2.5-5.9-3.6l-7.8-4.1a10.3,10.3,0,0,0-4.8-1.2,7,7,0,0,0-4.8,2l-5.6,4.8a27.2,27.2,0,0,1-7.2,4.2l-2.7.9v1.5c0,13.3-.1,26.5,0,39.8a14,14,0,0,0,.7,4,16.2,16.2,0,0,0,5.6,7.8,20.8,20.8,0,0,0,7.8,3.7,38.3,38.3,0,0,0,6.8.8,31.3,31.3,0,0,0,5.3-.2,18.4,18.4,0,0,0,4-.6,50.7,50.7,0,0,0,6.5-2.4,43.3,43.3,0,0,0,6.2-3.6,36.4,36.4,0,0,0,4.8-4,67.6,67.6,0,0,0,5.8-6.2,56.4,56.4,0,0,0,4-6.7,18.2,18.2,0,0,0,2.3-7.5C217.4,230,217.6,227.3,216.7,224.8ZM113,236.9a3.9,3.9,0,0,0-3.7,3.7c0,1.7,1.8,3.9,3.6,3.6s3.6-1.1,3.7-3.6A3.7,3.7,0,0,0,113,236.9Zm-6.6-15.5a3.7,3.7,0,0,0-3.6,3.6,3.9,3.9,0,0,0,3.6,3.7,3.8,3.8,0,0,0,3.8-3.7A3.7,3.7,0,0,0,106.4,221.4Zm15.8,2.3a3.4,3.4,0,0,0,3.6-3.5c0-2.5-1.2-3.7-3.4-3.7s-3.9,1.4-3.8,3.5A3.7,3.7,0,0,0,122.2,223.7Zm14.7,8.3a3.7,3.7,0,0,0,3.8-3.6,3.9,3.9,0,0,0-3.8-3.7,4,4,0,0,0-3.6,3.7C133.2,230.1,135.1,232.3,136.9,232Zm-9.9.7a4,4,0,0,0-3.7-3.6,3.8,3.8,0,0,0-3.7,3.7c-.1,1.6,1.8,3.9,3.7,3.5S127.1,234.3,127,232.7Zm2.3,17.3c2.3,0,3.7-1.4,3.7-3.4a3.6,3.6,0,1,0-7.2-.2A3.3,3.3,0,0,0,129.3,250Zm38.8-25.3a3.6,3.6,0,0,0-3.6,3.6A3.4,3.4,0,0,0,168,232a3.7,3.7,0,0,0,3.8-3.5A3.9,3.9,0,0,0,168.1,224.7Zm24,12.2a3.7,3.7,0,0,0,0,7.3c1.8.2,3.7-1.9,3.7-3.6S193.9,236.8,192.1,236.9Zm6.5-15.5a3.9,3.9,0,0,0-3.7,3.6,3.8,3.8,0,0,0,3.8,3.7,3.6,3.6,0,0,0,3.5-3.6C202.5,223.2,200.4,221.4,198.6,221.4Zm-16.8,7.7a3.7,3.7,0,0,0-3.7,3.7,3.5,3.5,0,0,0,3.7,3.5,3.4,3.4,0,0,0,3.6-3.5A3.8,3.8,0,0,0,181.8,229.1Zm1.1-12.6a3.4,3.4,0,0,0-3.7,3.4,3.7,3.7,0,0,0,3.6,3.8,3.7,3.7,0,0,0,3.7-3.7A3.4,3.4,0,0,0,182.9,216.5Zm-7.3,26.3a3.6,3.6,0,0,0-3.6,3.6,3.4,3.4,0,0,0,3.5,3.6c2.5-.1,3.7-1.2,3.7-3.6A3.4,3.4,0,0,0,175.6,242.8Z"/>
  </g>
</svg>
