<svg id="Layer_1" data-name="Layer 1" xmlns="http://www.w3.org/2000/svg" viewBox="0 0 300 300">
  <defs>
    <style>
      .cls-1 {
        fill: #fff;
      }

      .cls-2 {
        fill: #ed1c24;
      }
    </style>
  </defs>
  <title>1-07</title>
  <g>
    <path d="M279.4,152.4a62,62,0,0,1,4.8,5.6c5.1,7,5.8,14.5,2.2,22.3-5.5,12.4-20.1,19.7-32.2,16.3-5.1-1.4-8.9-4.7-12.1-8.7a79,79,0,0,1-5-6.8c-4.3-6.7-10.5-10.4-18.2-10.7-14-.4-28-.1-42.4-.1,1.3,5.3,2.8,10.2,3.8,15.2s1.6,9,2.2,13.5c.1.9-.5,1.8-.7,2.6a7.3,7.3,0,0,1-2.6-.9c-4.2-3.4-8.3-7-12.6-10.7-2.3,2-4.4,4-6.6,5.8l-6.4,5.4-1-.7V171h-8.8c-.3,3.1-.7,6.1-.7,9.2-.1,5.9,0,11.9,0,17.8a14.5,14.5,0,0,1-.7,2.6,10,10,0,0,1-2.6-.9c-3.6-3.1-7.1-6.4-10.8-9.7l-12.3,10.4c-.8.7-2,.8-3,1.2a10.5,10.5,0,0,1-.3-3c1.6-8.2,3.4-16.4,5.2-24.5.2-1.1.5-2.2.8-3.3l-.6-.4c-12.4,0-24.8-.4-37.1-.1a22.4,22.4,0,0,0-18.6,10,102,102,0,0,1-6.9,9c-7.7,8.7-18.5,10.6-28.9,5.3s-17-15.6-16.1-26.2c.4-4.9,2.7-9,6-12.6a30.5,30.5,0,0,1,3-2.6c-3.1-3.5-6.2-6.4-8.4-9.8-5.6-8.5-3.9-17.2.8-25.4s10.6-10.6,18.9-10.2,12.1,3.8,16.9,8.2,6.7,6,9.9,9.2a20.8,20.8,0,0,0,12.3,6L86,133c1.1-3.1,2.2-5.9,3-8.1-1.7-3.4-3.7-6.4-4.7-9.7s.2-8.3,4-11c8.4-6.1,17.6-6.8,27.1-3.2s16.9,9.6,23.3,17.1a3.8,3.8,0,0,0,4.1,1.4c3.8-.4,7.7.1,11.5.1a4.7,4.7,0,0,0,2.7-1.1c6.6-7.5,14.2-13.6,23.5-17.4,5.5-2.3,11.2-3.5,17.1-2.2s11.4,3.2,13.6,9.2-.5,11.2-4.7,15.6l3.4,9.1c8-.3,16.1-.5,24.1-2.9,4.9-1.4,7.9-5.5,11.6-8.5s5.4-5.3,8.4-7.7c9.8-8.1,22-8,29.9,0,10.3,10.6,9.6,26.7-1.6,36.3Zm-6.4,3.5-15.4,2.8c2.1-5.2,2.8-5.3,7-6.1a70.4,70.4,0,0,0,15.1-4.2c6.7-2.8,8.5-7.2,7.2-14.4-.2-.8-.3-1.6-.5-2.3-2.3-8.3-6.3-15.3-15.1-17.8s-16,.7-22.3,6.8c-2.2,2.2-4.5,4.3-6.8,6.4-4.5,4.2-9,8.4-15.5,9.2L211.1,138a3.5,3.5,0,0,0-2.5,1.4,12.1,12.1,0,0,1-9.7,6.7,130.4,130.4,0,0,1-17.7.4c-4.7-.2-9.3-1-14-1.6,2.1,5.4,4.3,10.6,5.9,16,1,3.4,2.6,4.3,6.1,4.2,13.9-.2,27.8-.3,41.8-.1,8.5.1,15.3,3.6,20.1,10.9a78.4,78.4,0,0,0,6.6,8.6c5.2,6,12,8.8,19.8,7.3,12.5-2.4,18.7-8.3,16.5-19.4a25.6,25.6,0,0,0-4.3-9.7C277.9,160,275.2,158,273,155.9ZM128.6,145.4c-9.5.5-19.1,1.3-28.8,1.3-5,.1-9.8-1.7-12.2-6.6-1-1.9-2.1-2.6-4-2.5H80.4c-7.6-.9-15-2.3-20.6-8.3a134.8,134.8,0,0,0-11.9-10.8c-9.6-8.1-22.7-6.9-29.9,2.8a29.3,29.3,0,0,0-5.5,14.5c-.6,5.6,1.3,9.9,6.6,12.4a44.8,44.8,0,0,0,16.4,4.7c3.8.2,5.3,1.5,6.1,5.9l-15-2.9a14.3,14.3,0,0,0-2.8,2.7c-2.6,3.5-5.9,6.7-7.4,10.6-2.2,5.9-2.5,12.2,2.9,17C29.4,195,44,194,52.6,183.7c2.5-2.9,4.7-6.2,7-9.3a20.2,20.2,0,0,1,14.5-8.8,105.9,105.9,0,0,1,13.7-.8l31.6.2a3.2,3.2,0,0,0,2.4-1.7C124.2,157.2,126.5,151,128.6,145.4Zm29.8-6.8c4,1.3,8,3.2,12.1,3.8,7.6,1.1,15.3,1.5,22.9,2a21.2,21.2,0,0,0,6.6-1.1c4-1.3,6.2-4.2,5.8-8.4s-1.2-5.9-1.8-8.9c-3,.5-4.9,2.6-8.1,1l3.4-1.7a13.9,13.9,0,0,0,8.5-8.9c1.7-5,.4-9-4-12a19.3,19.3,0,0,0-15.8-3.3c-12.5,2.8-21.7,10.3-29.4,20.1a10.7,10.7,0,0,0-1,2.6c3.6-1,6.6-1.6,9.5-2.6,8-2.9,16-5.7,23.8-9.2,4.3-1.9,4.4-3.3,1.7-8.2,1.7.5,3.1.5,3.6,1.2s1.4,2.9.9,3.8a12,12,0,0,1-4.6,4.6c-6.1,2.8-12.3,5.4-18.5,7.7s-9.8,2.9-14.7,4.3c-.3,4.4-.3,4.5,3.8,4.5l17.8-.6,3.8-.5v.9c-8.3,2.1-16.8,2-25.3,1.5C159.1,133.6,158.8,135.7,158.4,138.6Zm-22.7-13.3c-4.3-1.2-8.6-2.2-12.7-3.6-6.1-2.2-12.2-4.5-18.1-7.2a18.8,18.8,0,0,1-6-4.9c-1.4-1.5-.6-3.4.9-4.6a9.1,9.1,0,0,1,2.9-1c-2.2,3.7-2.1,4.7,1,7a21.6,21.6,0,0,0,6.1,3.4c8.7,3.1,17.5,5.9,26.2,8.7a6.8,6.8,0,0,0,1.9-.1,15.3,15.3,0,0,0-1.4-2.4c-5.8-7.3-12.7-13.3-21.2-16.9a41.1,41.1,0,0,0-13.8-3.4c-6.7-.4-12.9,4.4-14,9.6s2.8,12.4,9,15.3l2.5,1.1-.3,1.1-6.4-1c-5.5,8.6-2.3,16.6,7.9,17.5,7.3.6,14.7-.2,22.1-.9,4.1-.5,8.2-2.1,12.3-3.3.7-.2,1.7-1.2,1.6-1.7-.1-2.3-.5-4.5-.8-6.9A82.9,82.9,0,0,1,111,130v-.9l24.7,1.1Zm4.3,16.2c-.5-.1-1.6-.7-2.2-.4-2.9,1.2-5.7,2.4-6.8,5.8-3.8,11.7-7.9,23.4-11.6,35.1-1.6,4.9-2.2,10-3.3,15l.7.3,9.5-8c3-2.7,3-2.7,6.1.1l7.4,6.6c-.3-18.4,1.9-35.8,5.4-53-2.5-1.2-3.8-.2-4.5,2-1.3,3.8-2.5,7.7-3.8,11.6-.4.9-1,1.7-1.4,2.6l-1.3-.6Zm10.6,1.2a244.1,244.1,0,0,1,5.5,53.5c2.9-2.6,5.6-4.8,8-7.2s3.3-2.1,5.4-.2,6.4,5.6,10.3,8.9c-3.5-18.8-8.3-36.3-16.4-52.7-1.1-2.2-5.1-3-7.8-4.4-.1,0-.2.3,0-.1,1.9,5.6,3.6,10.8,5.2,16.1.2.7-.3,1.6-.4,2.4a5.9,5.9,0,0,1-1.3-1.9c-1.7-4.5-3.2-9-4.8-13.4C153.6,141.7,152.3,141.5,150.6,142.7Zm5.1-11.4h-.1c0-1.5.1-2.9,0-4.4s-2.5-5.8-5.3-6.2-7.1-1.5-9.7,2-2.1,12.4-.2,15.2a6.5,6.5,0,0,0,2.9,2.3c6.7,2,13.1,1.5,12.4-7.8Zm-4.1,34.1c-1.1-6.8-2.2-13.3-3.3-19.8h-.9c-1,6.5-2.1,13.1-3.1,19.7Z"/>
    <path class="cls-1" d="M273,155.9c2.2,2.1,4.9,4.1,6.7,6.8a25.6,25.6,0,0,1,4.3,9.7c2.2,11.1-4,17-16.5,19.4-7.8,1.5-14.6-1.3-19.8-7.3a78.4,78.4,0,0,1-6.6-8.6c-4.8-7.3-11.6-10.8-20.1-10.9-14-.2-27.9-.1-41.8.1-3.5.1-5.1-.8-6.1-4.2-1.6-5.4-3.8-10.6-5.9-16,4.7.6,9.3,1.4,14,1.6a130.4,130.4,0,0,0,17.7-.4,12.1,12.1,0,0,0,9.7-6.7,3.5,3.5,0,0,1,2.5-1.4l15.6-1.7c6.5-.8,11-5,15.5-9.2,2.3-2.1,4.6-4.2,6.8-6.4,6.3-6.1,13.5-9.3,22.3-6.8s12.8,9.5,15.1,17.8c.2.7.3,1.5.5,2.3,1.3,7.2-.5,11.6-7.2,14.4a70.4,70.4,0,0,1-15.1,4.2c-4.2.8-4.9.9-7,6.1Z"/>
    <path class="cls-1" d="M128.6,145.4c-2.1,5.6-4.4,11.8-6.8,17.9a3.2,3.2,0,0,1-2.4,1.7l-31.6-.2a105.9,105.9,0,0,0-13.7.8,20.2,20.2,0,0,0-14.5,8.8c-2.3,3.1-4.5,6.4-7,9.3C44,194,29.4,195,19.3,186.1c-5.4-4.8-5.1-11.1-2.9-17,1.5-3.9,4.8-7.1,7.4-10.6a14.3,14.3,0,0,1,2.8-2.7l15,2.9c-.8-4.4-2.3-5.7-6.1-5.9a44.8,44.8,0,0,1-16.4-4.7c-5.3-2.5-7.2-6.8-6.6-12.4A29.3,29.3,0,0,1,18,121.2c7.2-9.7,20.3-10.9,29.9-2.8a134.8,134.8,0,0,1,11.9,10.8c5.6,6,13,7.4,20.6,8.3h3.2c1.9-.1,3,.6,4,2.5,2.4,4.9,7.2,6.7,12.2,6.6C109.5,146.7,119.1,145.9,128.6,145.4Z"/>
    <path class="cls-2" d="M158.4,138.6c.4-2.9.7-5,1.1-7.4,8.5.5,17,.6,25.3-1.5v-.9l-3.8.5-17.8.6c-4.1,0-4.1-.1-3.8-4.5,4.9-1.4,9.9-2.6,14.7-4.3s12.4-4.9,18.5-7.7a12,12,0,0,0,4.6-4.6c.5-.9-.2-2.8-.9-3.8s-1.9-.7-3.6-1.2c2.7,4.9,2.6,6.3-1.7,8.2-7.8,3.5-15.8,6.3-23.8,9.2-2.9,1-5.9,1.6-9.5,2.6a10.7,10.7,0,0,1,1-2.6c7.7-9.8,16.9-17.3,29.4-20.1a19.3,19.3,0,0,1,15.8,3.3c4.4,3,5.7,7,4,12a13.9,13.9,0,0,1-8.5,8.9l-3.4,1.7c3.2,1.6,5.1-.5,8.1-1,.6,3,1.6,5.9,1.8,8.9s-1.8,7.1-5.8,8.4a21.2,21.2,0,0,1-6.6,1.1c-7.6-.5-15.3-.9-22.9-2C166.4,141.8,162.4,139.9,158.4,138.6ZM123,121.7c-6.1-2.2-12.2-4.5-18.1-7.2a18.8,18.8,0,0,1-6-4.9c-1.4-1.5-.6-3.4.9-4.6a9.1,9.1,0,0,1,2.9-1c-2.2,3.7-2.1,4.7,1,7a21.6,21.6,0,0,0,6.1,3.4c8.7,3.1,17.5,5.9,26.2,8.7a6.8,6.8,0,0,0,1.9-.1,15.3,15.3,0,0,0-1.4-2.4c-5.8-7.3-12.7-13.3-21.2-16.9a41.1,41.1,0,0,0-13.8-3.4c-6.7-.4-12.9,4.4-14,9.6s2.8,12.4,9,15.3l2.5,1.1-.3,1.1-6.4-1c-5.5,8.6-2.3,16.6,7.9,17.5,7.3.6,14.7-.2,22.1-.9,4.1-.5,8.2-2.1,12.3-3.3.7-.2,1.7-1.2,1.6-1.7-.1-2.3-.5-4.5-.8-6.9A82.9,82.9,0,0,1,111,130v-.9l24.7,1.1v-4.9C131.4,124.1,127.1,123.1,123,121.7Zm14.8,19.4c-2.9,1.2-5.7,2.4-6.8,5.8-3.8,11.7-7.9,23.4-11.6,35.1-1.6,4.9-2.2,10-3.3,15l.7.3,9.5-8c3-2.7,3-2.7,6.1.1l7.4,6.6c-.3-18.4,1.9-35.8,5.4-53-2.5-1.2-3.8-.2-4.5,2-1.3,3.8-2.5,7.7-3.8,11.6-.4.9-1,1.7-1.4,2.6l-1.3-.6,5.8-17.1C139.5,141.4,138.4,140.8,137.8,141.1Zm18.3,55.1c2.9-2.6,5.6-4.8,8-7.2s3.3-2.1,5.4-.2,6.4,5.6,10.3,8.9c-3.5-18.8-8.3-36.3-16.4-52.7-1.1-2.2-5.1-3-7.8-4.4-.1,0-.2.3,0-.1,1.9,5.6,3.6,10.8,5.2,16.1.2.7-.3,1.6-.4,2.4a5.9,5.9,0,0,1-1.3-1.9c-1.7-4.5-3.2-9-4.8-13.4-.7-2-2-2.2-3.7-1A244.1,244.1,0,0,1,156.1,196.2Zm-.5-64.9c0-1.5.1-2.9,0-4.4s-2.5-5.8-5.3-6.2-7.1-1.5-9.7,2-2.1,12.4-.2,15.2a6.5,6.5,0,0,0,2.9,2.3c6.7,2,13.1,1.5,12.4-7.8v-1.1Z"/>
    <path class="cls-1" d="M151.6,165.4h-7.3c1-6.6,2.1-13.2,3.1-19.7h.9C149.4,152.1,150.5,158.6,151.6,165.4Z"/>
  </g>
</svg>
