<svg id="Layer_1" data-name="Layer 1" xmlns="http://www.w3.org/2000/svg" viewBox="0 0 300 300">
  <defs>
    <style>
      .cls-1 {
        fill: #a76127;
        fill-rule: evenodd;
      }

      .cls-2 {
        fill: #2c2f69;
      }

      .cls-3 {
        fill: #28b34b;
      }
    </style>
  </defs>
  <title>1-20</title>
  <g>
    <path class="cls-1" d="M127.9,69.4a12.8,12.8,0,0,1,3.5-1.7c2.3-3.9,7.2-3.3,9.9-.7s2.8,6.4,7.4.6,11.8-13.2,17.6-19.2c.2,6.9-1.2,9.6-5.1,12.6l4.3-2.1c-.8,4.6-2,5.3-4.7,7.2l3.6-1.4a7,7,0,0,1-4.7,5.9,30.4,30.4,0,0,0,3.4-.9c-.4,2.6-2.9,3.9-5,4.4l3.2-.3c-2,2.6-4.4,2.7-6.1,3.1s-2.5,1.8-1.6,3.3c6.3,5.8,13.3,13,13.3,13l-5.4-2.7a59.7,59.7,0,0,1,6.2,8.8s-.7-.8-3.8-1.5l-3.3-.6s-5.3-9.6-8.4-11.1-6.4-1.5-11.6-4.4-7-8.4-8-10.3-4.7-2-4.7-2Zm16.2-.3c1.7-4.6,5.3-17,7.2-24.2,2.2,4.6,2.3,8.5.4,12L154,54c.5,3.7,0,4.8-1,6.7s-3.6,4.1-5.2,6.2-2.3,4.1-3.7,2.2Z"/>
    <path class="cls-2" d="M109.7,245.8l-14.9.6a50.6,50.6,0,0,1,.9-11.6c1.4-8.3.1-15.2.1-19.3s7.3-5.1,10.6-12.9,3.5-25,5.8-41.7c.9-7.1,3.8-12.5,8-16.4-7.1-.9-18.2-4.3-22.5-10.5l3.9,1.2c-4-5.2-4.3-11.2-3.3-17.3.2,2.4,2.3,6.3,3.7,8.4-3.2-9.4.7-15.5,7.7-22,3.3-3.1,5.4-7.4,2.2-11.7a5.8,5.8,0,0,1,4.7,5.9c.9-1.5,1.5-2.7,1.5-2.7a11.8,11.8,0,0,1,.5,5.5l1.9-1.7s.3,3.5-3,7.7l2.8-1.9a14.2,14.2,0,0,1-3.4,5.7c-13,15.3,1.8,26.5,15,26.7,17.4-8.9,40.6-5.2,59.6-8.8,12.8-5.2,14.9-15.8,14.9-15.8a20.4,20.4,0,0,1,9.5,3.6c4.3,3.2,8.8,16.3,8.8,16.3s-1.3-12.5-7-17.8-16-3.7-23.5-3.8-12-5.8-11.8-8.8h0c.2-4.3-5.2-7.4.5-10.4,3.4-1.8,9.3-3.3,11.1-4.3s2.4-4.6,4.2-8.6,3.5-4.5,7.3-5.6,12.3-3.1,16.1-2.1,12.7,3,14.3,3.9c5.1,2.8,6.3,8.5,6.2,15.2s-2.6,12.5-7.5,11.7c-1.5-.2-3.3-.7-5.4-1.2-7.5-2.5-7.3-5.5-5.4-11.9,1.1-3.5,2.2-7.3.6-11.6-.1,4.9-1.4,7.7-2.6,10.7-4.5,10.9,2.7,15.4,12.9,16.4,4.7.5,7.1-3,8.3-7.9a62.8,62.8,0,0,1,1.7,13.3c.3,12.6-.3,17.5.8,32.3.9,10.8-.9,18-4.4,24.2-7.8,13.6-7.4,31.1-8.7,46.7-.9,10.8-2,14.6,3.7,29a8.5,8.5,0,0,1,3.5-.4,11.6,11.6,0,0,1,4.4,3.8,4.1,4.1,0,0,1-.1,3.1L230,247.9c-1.1-3.1-3.4-8.9-5.6-16.2a73.7,73.7,0,0,1-3.2-16.1c-.2-2.2-1.9-23.9-2.3-28.8a54.5,54.5,0,0,0,9.4-9.4,64.1,64.1,0,0,1-7.4,4.9c2.1-3.7,5.1-9.7,5.5-14.3-3.6,9.7-11.4,16.2-11.5,18.6s.6,19.3,1,23.9,1.6,12,2,21.1,1.6,11.9,1.6,11.9a7.2,7.2,0,0,1,4.4,0,5,5,0,0,1,2.8,4.2l-15.5-1c0-1.1-.1-2.5,0-4.1v-1a5.7,5.7,0,0,1,1.8.1h0l-1.8-.6a61.5,61.5,0,0,0-2.1-9.3c-.5-1.9-2.8-2.6-3.5-4.9a25.8,25.8,0,0,1-.8-5.3,70.6,70.6,0,0,0-1.4-7.9c5-9.5,4-14.6,3-19.9a20,20,0,0,1-.5-2.6l.4-.4a3.1,3.1,0,0,0,1-2.4,3.6,3.6,0,0,0-2.2-3.3c0-3.6,1-7,4.8-8.8a6.1,6.1,0,0,0,2.3-1.5c1.2-1.8.7-3.5.3-4.9s0-2.1-.3-3.3-.7-1.8-1.9-1.8l-3.2-.2a21.2,21.2,0,0,1-3-2.3c-2.2-1.9-4.9-2-7.6-1.3-5,1.4-7.4.7-8.5-4.4-3.8,3-5.6,6.9-3.2,11.7a27.8,27.8,0,0,0-.8,3.6c-.3,2.4-.1,6.1-.3,9.6a5.3,5.3,0,0,0-.3,3.3c-.6,3.1-1.8,5.7-4.6,6.8-3.8-.9-7.6-2.1-11.6-3.4a31.9,31.9,0,0,1-3.9,8.2c-8.5,3.8-16.3,9.8-19.5,18a34.8,34.8,0,0,0-2.6,12.9,29.1,29.1,0,0,0,2.3,11.3,13.6,13.6,0,0,1-2.9.6l-3.3-9.1c-2.2-6.1-4.6-7.1-5-9.9a14.2,14.2,0,0,0,3.3-3.6,13.6,13.6,0,0,0,2.1-8.6.9.9,0,0,0,.1-.5c1.2-6.7-1-14.5-1-14.5,3-9,14.8-8.8,23.3-7.3l-3.8-1.3c-9-2.9-16.1-2.6-21.7,5.9-9.6,14.7-15.3,17-20.1,21.7s-7.8,10.9-8.6,15.8-.1,16.3-.1,16.3A7,7,0,0,1,109.7,245.8Zm32.9-5.3a19.7,19.7,0,0,1-8.7-.2,12.5,12.5,0,0,0-2.3,4.8h.3c2.3-3.8,6.9-4.4,9.2-1-2-1.6-4.6-.7-6.7,1h11.1C145.4,243,144.6,241,142.6,240.5Zm-21.5-1.7h0a11.1,11.1,0,0,0,2.6,2.5A12.3,12.3,0,0,0,121.1,238.8Zm9,.1a9.1,9.1,0,0,0-.7,2.5c-.1,1.1-.1,2.3-.1,3.3h0a15.1,15.1,0,0,1,2.4-5.1Zm66.9,1.6a6.4,6.4,0,0,0,2.3,1.8,5.7,5.7,0,0,1,1.8,1.5C200.6,241.9,199.4,240.4,197,240.5Zm-2.6,1.3a103.8,103.8,0,0,1-2.5-10.8c-1.1-6.3-2.1-11.1,2.2-16.4l.6-.6a30.5,30.5,0,0,1,3.6-4.7,16.3,16.3,0,0,0-.9,1.6l2.6-3.1c-.9,2.3-2.8,4.8-4.4,7.3-.5.7-.9,1.5-1.3,2.1a15.5,15.5,0,0,0-1.3,5.5c0,4.9,3.2,15.8,3.4,16.6a4.1,4.1,0,0,0,.5.9l2.4-.3a34.3,34.3,0,0,1-2.1-12.9,22.2,22.2,0,0,1,3.1-11.1c6.6-10.9,5.6-16.3,4.5-21.8-.1-.8-.3-1.6-.4-2.4h-.5a3.5,3.5,0,0,1-2.4-1l-.3-.4a35.8,35.8,0,0,1-9.7-.7,19.6,19.6,0,0,1-7-2.9c-.8,3.3-2.7,5.9-6.6,6.7-12.2,2.3-27.8,9.2-32.7,21.5a33.3,33.3,0,0,0-2.4,12.3,27.1,27.1,0,0,0,2.5,11.4l.4.8-.8.3-.4.2a4.8,4.8,0,0,1,3.2,3.3,7.5,7.5,0,0,1,6.4-6.2h0a10,10,0,0,0-4.5,7.5c.9-3.1,3.7-4.8,7.6-3h0c-3.3-.8-4.8,1.2-5.3,3.6l21.9.2a3.5,3.5,0,0,0,.5-2,2.8,2.8,0,0,0-1.7-2.9c-1.6-.7-4.1-.8-7.4-.4a8.2,8.2,0,0,0-2.9,1.8,4.6,4.6,0,0,1,.5-1.4h-.5l1-.7c2.1-2.4,6.6-2.2,9.1-5.9a8.5,8.5,0,0,0,1.3-6.6c-1.1-5.2-4.3-8.1-9.3-9.2a10.5,10.5,0,0,1,4,.5l-1.3-.7a13.7,13.7,0,0,1,5.7,2.4A11.6,11.6,0,0,1,177,232a43.9,43.9,0,0,0,5.7-2.9,44,44,0,0,0-3.5-10.1c4.3,3.1,8.1,16.8,10.1,20.8a15.7,15.7,0,0,1,1.9,5.1,4.4,4.4,0,0,1,.2,1l8.9.3c0-.2-.1-.3-.1-.4C199.4,243.6,195.3,244.4,194.4,241.8Zm-67.5.4a10.5,10.5,0,0,1,1.8-4.1,10,10,0,0,1-4.8-9.3c.6-7,7-7.7,10.4-13a12.5,12.5,0,0,0,1.9-5.9l-2.4,1.8c1.9-3.5.6-7.9-3.6-8.6a3.1,3.1,0,0,1,.2.8,4.8,4.8,0,0,1,.4,2,7,7,0,0,1-.1,2.9c-1.4,5.5-9.4,5.8-12,15.5a19.6,19.6,0,0,0,0,10.2,9.6,9.6,0,0,0,2.5,3.2A9.1,9.1,0,0,1,126.9,242.2Zm75.8-.3a10.1,10.1,0,0,1,.7,1.5c.1-.2.1-.4.2-.5a.3.3,0,0,1-.1-.2A2,2,0,0,0,202.7,241.9Zm-2.2-3.4a8.5,8.5,0,0,0,.3.9c.3.5,2.1.5,3.4,1.7s-.1-.4-.3-.6S201.4,239,200.5,238.5Zm8.7-63.6a3.8,3.8,0,0,0,1.7-1c.8-1.2.4-2.5.1-3.6s-.2-2-.4-3.2-.2-.7-.3-.7l-3.7-.2a29.7,29.7,0,0,1-3.5-2.7,6.6,6.6,0,0,0-6.2-1c-3.9,1.1-8,1.3-9.7-3-2.3,2.7-2.4,5.6-.7,8.7a27.4,27.4,0,0,0-.9,3.9c-.4,2.4-.2,5.7-.3,8.9h0a19,19,0,0,0,7.9,3.4,26.9,26.9,0,0,0,10.1.4h.2C203.5,180.7,204.7,177,209.2,174.9Z"/>
    <path class="cls-3" d="M3.5,255.1c13.7-2.1,28.6-3.9,44.5-5.4-.3-2.7-1.8-5-5.4-4.2,3.9-1.8,6.7-.1,7.6,3a10,10,0,0,0-4.5-7.5,7.8,7.8,0,0,1,6.5,6.2c.9-2.9,3.7-4.5,7.5-2.8-3.8-.8-5.2,1.8-5.4,4.7L67.6,248a6.8,6.8,0,0,0-7.1-2.4h0c3.1-2.7,6.7-.8,8.2.3a11.5,11.5,0,0,0-7.6-5.1c4.1-.9,7.5,1.4,9.5,3.8a11.6,11.6,0,0,0-7.3-6.6,9,9,0,0,1,8.5,4.4,8.7,8.7,0,0,1,6-7.4h0a9.5,9.5,0,0,0-3.7,6.5c-.1,1.1-.1,2.1-.1,3.1.7-2.6,2-5.3,3.4-6.3s3.9-1,5.4,1.2c-3.2-3.6-6.6,3.5-6.8,6.4,1.7-4.5,6.7-5.5,9.1-2.2-2.8-2.1-6.6.7-8.3,3.7l18-1,14.9-.6,10.1-.3a11.1,11.1,0,0,0-5.8-2.1h0a12.3,12.3,0,0,1,9,2.1h.3a20.7,20.7,0,0,0-7.3-5.9c3.1.8,7.9,2.7,9.6,5.6v.2h.2a12.5,12.5,0,0,0-2.2-4.1,12.3,12.3,0,0,0-2.6-2.5,16.8,16.8,0,0,0-3-1.5,14.6,14.6,0,0,1,3.1.4,9.1,9.1,0,0,1,5.7,4.5,10.5,10.5,0,0,1,1.8-4.1,9.4,9.4,0,0,1,4.9-3.5h0a10.5,10.5,0,0,0-3.5,4.3,9.1,9.1,0,0,0-.7,2.5c-.1,1.1-.1,2.3-.1,3.3h0a15.1,15.1,0,0,1,2.4-5.1,4.1,4.1,0,0,1,1.4-1.5c1.9-1.2,4.2-1,5.7,1.5-1.7-2-3.5-1.1-4.9.7a12.5,12.5,0,0,0-2.3,4.8c-.1.1-.1.1-.1.2h.3c0-.1,0-.1.1-.2,2.3-3.8,6.9-4.4,9.2-1-2-1.6-4.6-.7-6.7,1,0,.1-.1.1-.1.2h11.2c-.1-2.1-.9-4.1-2.9-4.6a5.2,5.2,0,0,0-2.5,0h0a5.9,5.9,0,0,1,4.4-.5,4.8,4.8,0,0,1,3.2,3.3,7.5,7.5,0,0,1,6.4-6.2h0a10,10,0,0,0-4.5,7.5c.9-3.1,3.7-4.8,7.6-3h0c-3.3-.8-4.8,1.2-5.3,3.6l21.9.2,17.6.5,8.9.3h1a10.1,10.1,0,0,0-.2-2.5c-.5-1.9-1.7-3.4-4.1-3.3h-1.1l1-.4,2.4-.3a4.8,4.8,0,0,1,3.4,2,10.1,10.1,0,0,1,.7,1.5c.1-.2.1-.4.2-.5a7.7,7.7,0,0,1,6.3-5.7h0a9.7,9.7,0,0,0-4.5,7.5,4.7,4.7,0,0,1,5.8-3.6l1.8.6h0a5.7,5.7,0,0,0-1.8-.1c-2.6.2-3.5,2.5-3.7,4.9l3.7.2,15.5,1,3.3.2,13.9,1.1h1.7a8.8,8.8,0,0,0-1.6-3.2,11.6,11.6,0,0,0-4.4-3.8l-1.7-.7c5.6.8,8.2,3.4,9.5,5.1-1-3-3.9-6.5-6.3-8.6,3.1,1.6,7.6,4.9,8.7,8.4a4.3,4.3,0,0,1,.2,1.1,13.6,13.6,0,0,0-6.1-11.3c4.6,1.2,7.1,4,8,7.4a10.4,10.4,0,0,1,9-6.3,10.9,10.9,0,0,0-6.1,6.1c-.4,1.2-.8,2.4-1.1,3.5,1.6-2.7,3.9-5.4,5.8-6s4.7.1,5.6,3c-2.4-5-8.4,1.9-9.6,5.1,3.4-4.6,9.2-4.2,10.9.4-2.2-3-6.8-1.7-9.7.8l17,1.9c-.6-1.9-2.1-3.2-5-2.6,3.9-1.8,6.7-.1,7.6,2.9h0a9.9,9.9,0,0,0-4.5-7.4,7.8,7.8,0,0,1,6.5,6.2c.9-2.9,3.7-4.5,7.5-2.8-3.7-.8-5.2,1.7-5.4,4.5l16.1,2.3ZM63.3,238Zm180.6-1.9Zm17,1.1Zm24.9,11.1ZM59.7,244.4Z"/>
  </g>
</svg>
