<svg id="Layer_1" data-name="Layer 1" xmlns="http://www.w3.org/2000/svg" viewBox="0 0 300 300">
  <defs>
    <style>
      .cls-1 {
        fill: none;
      }

      .cls-2 {
        fill: #f5b92b;
      }

      .cls-3 {
        fill: #0391b3;
      }
    </style>
  </defs>
  <title>1-13</title>
  <g>
    <rect class="cls-1" x="274" y="193.1" width="4.6" height="4.63"/>
    <path class="cls-2" d="M80.2,176l-.6.6V148.3h4.8a30,30,0,0,0,0,6l.3,3.1h-.8V162h1.4C85.8,166.9,85.4,171,80.2,176Zm24.2-8.2c-.2-2-3.2-3.6-5.3-2.5A7.8,7.8,0,0,1,104.4,167.8Zm-35.2,48-8.5.7H56.9v-45h4.4V160.6h8.1v10.9h4.4v10.2c-1.8,1.4-2.9,2.3-3.4,4.2a39.6,39.6,0,0,0-.9,5.3H66.3v4.6H69c-.6,6.4-1.2,13.7-1.3,15.9S68.2,215.1,69.2,215.8Zm-3.8-39.9H60.8v4.6h4.6Zm92.4,28.5v-.9L157,206c0,.1.1.2.1.3s.7-1.3,1-1.9Zm44.8-43.2H209V150.3h4.8V146h5.6v-9.4h6.4V146h5.5v4.3h4.8v29.1h3.8V163.1h5.2V154h2.4v-9.2h2.1V133.1h2.2v11.7h2.1V154h2.4v9.1h5.1v27.2h3.7v7.1h5.2v-8.6h14.1v33.4c-13.3-2.2-27.8-4-43.4-5.5a22,22,0,0,1,4.3-9.1,23,23,0,0,0-6.8,7.8,35.3,35.3,0,0,1,2.5-8.9,33.8,33.8,0,0,0-4.8,7.9,30.8,30.8,0,0,1,1.9-7.9,26.4,26.4,0,0,0-3.7,5.7c1.6-6.8,4.3-9.5,4.3-9.5a19.7,19.7,0,0,0-5.9,7.4,16.3,16.3,0,0,0-1.5-5.6,50.4,50.4,0,0,1-.8,8.5,24.4,24.4,0,0,0-3-4.9,30.9,30.9,0,0,1,1.5,7.6c-7.2-.6-14.6-1.1-22.1-1.5v-1.1c-.4-4.1-4.1-5.4-7.7-4.2-.1-6.9.4-17.3.8-25h3.6v-4.7h-3.4c.2-3,.3-5.2.3-5.6A27.9,27.9,0,0,1,202.6,161.2ZM274,197.7h4.6v-4.6H274Zm-21.4-15.6h4.6v-4.6h-4.6Zm0,9.1h4.6v-4.6h-4.6Zm-7.4-18.3h4.6v-4.7h-4.6Zm0,18.3h4.6v-4.6h-4.6Zm-18-31.2h4.6v-4.7h-4.6Zm0,22.8h4.6v-4.6h-4.6Zm-10.4-13.6h4.7v-4.6h-4.7Zm-57.6,35.2c-.2,1-.5,2.2-.7,3.6h.2c.7-1.3,1.3-2.5,1.9-3.5Zm52.9-77.7c2.2.9,4-3.2,3.5-5.4-5.4.9-22.4-16.9-25.1-22.5-.8-1.5-.9-2.9-.2-3.9-2.4.6-7.9,3.4-4.7,7.8C191.7,111,202.5,122.7,212.1,126.7Zm4.3.6a4.2,4.2,0,0,0,4.2,4.1,4.2,4.2,0,0,0,0-8.3A4.2,4.2,0,0,0,216.4,127.3Z"/>
    <path class="cls-3" d="M192.1,98c-.7-1.4-1.1-2-.4-3.5s3.8-4.5,5.9-7.1c-.8,7.2,1.5,17.1,8.1,21.8s16.3-2.7,12.6-11.7-1.9-14-1.9-14c-6.1,5.3,3,17.3-.8,22-2.5,3.1-8.1,4.5-11.6-1.1a28.3,28.3,0,0,1-3.8-19.2c.8-4.4,7.5-6.6,11.4-7s11.5-1.2,14.5-.9c4.7.6,11,7.7,11.4,9s.2,4.4.7,5.5,14.2,9.4,14.4,11a5.9,5.9,0,0,1-.6,3.1c0,3.3-2,7.3-5.3,7.7-.5,2.5-2.9,3.1-5,3.2-3.9.2-20,.3-23.5,1.6-1.6.6-2.3,1.6-4.2.9-3.8-1.5-8.9-6.2-11.7-9.1a85.5,85.5,0,0,1-6.5-7A30.8,30.8,0,0,1,192.1,98Zm96.1,124.8H11.8c14.7-2.5,31.2-4.6,48.9-6.3l8.5-.7c-1-.7-1.6-2.1-1.5-4.1s.7-9.5,1.3-15.9c.2-1.6.4-3.2.5-4.6a39.6,39.6,0,0,1,.9-5.3c.5-1.9,1.6-2.8,3.4-4.2a51,51,0,0,0,5.8-5.1l.6-.6c5.2-5,5.6-9.1,5.1-14-.1-1.4-.4-3-.6-4.6l-.3-3.1a30,30,0,0,1,0-6,26.9,26.9,0,0,1,4.4-13.1,32.2,32.2,0,0,1-3.4-5.1c-6.7-12.5-2.7-28.8,8.2-37.5A25.6,25.6,0,0,1,108.4,87c2.1-.1,1.4,1.4.7,1.5C92,93,86.8,112.3,95.3,126.5a9.9,9.9,0,0,0,.9,1.5c10.1-6.7,24.8-8.8,37.6-10.1,25.6-2.5,37.1-3.7,49.8-15l.6.8c6.1,8.4,16.6,19.7,26.3,24.2a6.5,6.5,0,0,0-.5,1.5,119.3,119.3,0,0,1-1.3,12.3h.1a46.1,46.1,0,0,1-4.5,15.6,24.8,24.8,0,0,0-1.7,3.8,27.9,27.9,0,0,0-2.1,12.4c0,.4-.1,2.6-.3,5.6-.1,1.4-.1,3-.2,4.7-.4,7.7-.9,18.1-.8,25,3.6-1.2,7.3.1,7.7,4.2v1.1c7.5.4,14.9.9,22.1,1.5a30.9,30.9,0,0,0-1.5-7.6,24.4,24.4,0,0,1,3,4.9,50.4,50.4,0,0,0,.8-8.5,16.3,16.3,0,0,1,1.5,5.6,19.7,19.7,0,0,1,5.9-7.4s-2.7,2.7-4.3,9.5a26.4,26.4,0,0,1,3.7-5.7,30.8,30.8,0,0,0-1.9,7.9,33.8,33.8,0,0,1,4.8-7.9,35.3,35.3,0,0,0-2.5,8.9,23,23,0,0,1,6.8-7.8,22,22,0,0,0-4.3,9.1c15.6,1.5,30.1,3.3,43.4,5.5ZM99.1,165.3a7.8,7.8,0,0,1,5.3,2.5C104.2,165.8,101.2,164.2,99.1,165.3Zm2.6,40-1.8.5a7.7,7.7,0,0,1,1,1.8A21.6,21.6,0,0,1,101.7,205.3Zm44.1,7.3v-.3h.3a15.1,15.1,0,0,0,5,0l1-.4a20,20,0,0,0-.2-4.3,7.3,7.3,0,0,0-2.7,0,25.7,25.7,0,0,1,.4-19.5c.9-2.5,1.7-5,2.3-7.4a45.7,45.7,0,0,0,1.6-6.1,25.5,25.5,0,0,1-.7,7.6,9,9,0,0,0,6.1,1.9,40.9,40.9,0,0,0-1.5,8.5c-.3,3.2-.4,6.3-.4,9.5a10.5,10.5,0,0,1,.8-1.1l1.2-1.3,1.7-1.4a5.6,5.6,0,0,0-1.1,1.4,21.3,21.3,0,0,0-1.8,3.7L157,206c0,.1.1.2.1.3s.7-1.3,1-1.9a23.5,23.5,0,0,1,2-2.7l-.9,2.7c-.2,1-.5,2.2-.7,3.6h.2c.7-1.3,1.3-2.5,1.9-3.5l1.9-2.6a.1.1,0,0,1,.1-.1.4.4,0,0,0-.1.3c-.2.4-.5,1.3-.9,2.4s-.6,2.2-.9,3.6h.5a20.4,20.4,0,0,1,5.2-5.4A21.8,21.8,0,0,0,163,209a4.8,4.8,0,0,1,1.8,3.5v.2l20.6.5a8.8,8.8,0,0,0-2.1-6.4,13,13,0,0,1,4.4,5.7c.6-3.3.3-8.1-1.8-11.3a11.1,11.1,0,0,1,3.5,4.7c-1.3-11.5-3.1-24.5-6.1-35.3l2.3-2.2,3-3.7-3,2.3a61,61,0,0,1-10.8,6.6,43.7,43.7,0,0,1-4.6,1.8,21.4,21.4,0,0,1-3.4.9,129.3,129.3,0,0,1,8-10.6,7.7,7.7,0,0,1,2.8-2h.2l.8-.4a2.8,2.8,0,0,0,.1-4.5,3.9,3.9,0,0,0-3.9-.6,6.9,6.9,0,0,0-2,.9,27.7,27.7,0,0,0-2.5,1.9l-3.6,3.5a102.9,102.9,0,0,0-7.5,7.4c-.6.7-2.1,1.6-2.6.6s.6-6.5-1.8-10.2a24.1,24.1,0,0,1-4-12.7c0-2.2,1-2.9,2.1-4.9s2.4-2.5,2.4-3.3a19.4,19.4,0,0,1-.2-2.4,7.3,7.3,0,0,0-1.1-2.6s-.1-1.4-1.1-1.3-3.3.4-4.2,0a9.9,9.9,0,0,0-5.7-1.9,11.5,11.5,0,0,0-4,1.2c-1.2-3-1.2-5.7-1.6-5.8s-1.2,3.3-1.3,7.3h0s-2.8-3.3-3.6-2.2-.3,8.6-.3,8.6-.8,1.6-.6,7-.3,8.3-2.5,10.1h-.2v.2a38.3,38.3,0,0,1-6,3.2,21.1,21.1,0,0,0-3,1.6l.3-2-1.1,2.4a30.1,30.1,0,0,0-8.8,7.6,26.4,26.4,0,0,0-2.3,3.5l-1.9.9a8.9,8.9,0,0,0-.8-5.4,8.6,8.6,0,0,0-3.7-4c-3.6-1.6-7.3,2.6-3.4,6.1s-2.1,7.5-6.3,9.6a20.3,20.3,0,0,0-3.6,2.3,36.5,36.5,0,0,0-4.9,2.8c-3.3,2.4-3.7,5.8-4.4,9.1s-1.8,11.7-1.8,11.7c3.4-1,6.7.5,7.1,4.2a4.2,4.2,0,0,1-.1,1.6l8.9-.5a18.4,18.4,0,0,1-.5-2.5,4.1,4.1,0,0,1-1.4-1.5,16,16,0,0,0,6.7,2.1,14.7,14.7,0,0,0-3.9-4.9,10.2,10.2,0,0,1,5.9,5,15.8,15.8,0,0,0-1.7-6.5c-7-.2-11.8-8.4-7.7-14.4a9.6,9.6,0,0,1,2.5-2.4l.6-.5,3.1-1.6c3.6-1.8,7.1-4.4,8.7-7.8l1.3-.6a36.2,36.2,0,0,0-2.1,9.8c-2.7,2.3-2.6,5.6-2.8,8.8s-.1,5.1-.1,7.7a13.3,13.3,0,0,1,4.1-4.7s-3.4,4-3.4,12.4h.8a12.8,12.8,0,0,1,4.4-3.9,7.6,7.6,0,0,0-2.5,3.9h4.3a.9.9,0,0,1,.1.5v.3l10.7-.4a25,25,0,0,0-2.9-7.8,19.9,19.9,0,0,1,3.4,3.6,38.6,38.6,0,0,0-.9-7.4,12.1,12.1,0,0,1,2.3,4.5,17.7,17.7,0,0,1,3.8-7.3s-1.8,2.7-2,8.8a20,20,0,0,1,2.2-5.5,29.7,29.7,0,0,0-.3,7.1,31.6,31.6,0,0,1,2.7-7.6,31.2,31.2,0,0,0-.5,8,20.3,20.3,0,0,1,4.4-7.9s-2.8,6-2.2,11.3h.5c4-6.3,1-13.7,1-13.7s2.2,3.2,3.1,8a39.9,39.9,0,0,1,3.2-7.5,35.9,35.9,0,0,0-1,11.1,24,24,0,0,1,3.9-6.6,30.4,30.4,0,0,0-.9,6.5,5.7,5.7,0,0,1,3.4-2.6,22.8,22.8,0,0,0-2,4.7Z"/>
  </g>
</svg>
