<svg id="Layer_1" data-name="Layer 1" xmlns="http://www.w3.org/2000/svg" viewBox="0 0 300 300">
  <defs>
    <style>
      .cls-1 {
        fill: #9c5f26;
      }
    </style>
  </defs>
  <title>1-26</title>
  <path class="cls-1" d="M95.8,289.3a58.9,58.9,0,0,1-25.3-4c-14-5.6-24.8-14.3-29.5-29.4s.8-34.1,15.2-46.1c11-9.2,22-18.5,32.3-28.5s17.5-21.6,23.2-34.4,13.7-22,27.5-25.7c19.6-5.1,37.2,2.9,46.9,20.9,5.4,10.1,10.9,20.2,17.4,29.5,8.9,12.8,20.9,22.7,33.1,32.3,3.9,3.1,7.7,6.5,11.5,9.8,18.5,16.1,17.2,49.7-5.3,64.6-13.8,9.2-28.7,13.7-45.2,9.7-4.3-1.1-8.2-3.8-12.2-5.8-2-1-2-2.3-1.2-4.3,2.8-7.2,5.8-14.3,7.8-21.7,1.3-5,1.2-10.5,1.3-15.7a13.6,13.6,0,0,1,3.9-9.7,249.3,249.3,0,0,0,17-20c2-2.5,3-6.1,3.5-9.3s-1.8-6.6-5.8-6.1c-9.3,1.2-16-1.6-21.2-9.8-3.8-5.9-10.1-5.7-15.6-1.2s-6,6.1-9.4,15.4c-9.9-2.7-19.7-3.1-29.2,3.9a43.6,43.6,0,0,0-.1-5.3c-.4-3.8-1.9-7.1-5.5-8.8s-6.4.3-8.7,2.3c-4,3.7-8.2,3.7-13,2a28.4,28.4,0,0,0-8.2-1.6c-9.2-.1-14.5,6.3-12.8,15.4a53.7,53.7,0,0,0,9.5,20.9c2.1,2.9,5.7,3.8,8.2,1.3s4.9-6.7,7.2-10.1,4.2-7,7.1-9.8,4.8-1.7,5.1,2.1.9,9.6-.6,13.7c-2.2,6.2-6,11.8-9.6,17.4a9.3,9.3,0,0,1-5.7,3.4c-16.8,3.4-24.9,21-17.3,35.1ZM126.6,32a43,43,0,0,0-13.9-16.9c-9.5-6.8-21-6.1-28.8,2.6a45.8,45.8,0,0,0-8.6,13.8c-6.6,16.5-6,33.4-1.6,50.3,3,11.3,7.7,21.8,16.6,29.9,11.7,10.6,25.1,9.4,34.5-3.2S134.9,83.8,135.5,72C135.4,56.8,132.4,44.1,126.6,32ZM229.2,48.8c-1.3-10.3-3.9-20.2-10.4-28.6-8.4-10.9-21.4-13-32-4.3a51.5,51.5,0,0,0-11.5,13.5c-9.9,17.1-12.4,35.7-9.2,55.2,1.4,8.8,4,17.3,9.7,24.4s11.7,11,20.6,9.6,14-6.2,18.7-12.5c11.2-15.1,14.6-32.4,14.6-50.6C229.6,53.2,229.5,51,229.2,48.8Zm58.5,45.1c-8-10.7-20.6-13.1-32-6-5.9,3.7-10,9-13.5,14.9-9.2,15.2-11.4,31.9-9.9,49.3a50.5,50.5,0,0,0,9.4,25.6c8.3,11.3,21,13.8,32,6.1a38.8,38.8,0,0,0,8.4-7.8,71.3,71.3,0,0,0,15.5-42.2C297.6,114.1,294.6,103.2,287.7,93.9ZM5.1,149.1c3.3,11.8,8,23,17.3,31.6,12.5,11.4,27.3,9.8,36.9-4.1,6.8-10,9.1-21.4,9.1-33.3.2-17.7-4.2-34-15.5-48C38.9,78,17.7,80.7,8.4,100.8c-4.2,9.1-5.6,18.9-6,32.1C3,136.3,3.5,142.8,5.1,149.1ZM139.3,276.2c7.4-5.6,7.7-15,.6-21-9.5-8-27.8-7.6-36.8.9-6.7,6.2-6.4,14,.7,19.8,5.3,4.3,11.5,5.6,18.4,5.8S134.2,280.2,139.3,276.2ZM110,258.7c3.1-4.2,8.3-5,13-2.1C119.9,261,114.8,261.8,110,258.7Zm25.6-34.1a18.2,18.2,0,0,0-7.8,13.5c-.2,3.4,0,6.6,3.2,8.7s6.9,1.3,9.9-.8,4.3-3.8,6.7-5.9a23.5,23.5,0,0,0,1.4,4c1.6,2.9,3.1,6,5.4,8.3,4.2,4.1,9.6,2.8,12.1-2.5a19.8,19.8,0,0,0-.1-17.9c-4-8.1-8.9-9.5-16.7-4.5C144.1,221.8,140.6,221,135.6,224.6Zm18,22.9c-4.6-3.8-5.4-14.3-1.4-18.7a5.9,5.9,0,0,1,7.9-1c4.5,3.2,6.2,7.8,6.4,13.4C157.4,235.9,154,240.5,153.6,247.5Zm-17.1-12.2c-4.8,1.8-3.6,5.8-3,9.8-2.9-1.5-4.1-3.7-3.8-6.5a15.9,15.9,0,0,1,7-12.3c2.5-1.6,5.1-2.4,7.9-.9s3.6,4.3,3,7.2a50.8,50.8,0,0,1-2.5,7.5C142.1,235.6,139.7,234,136.5,235.3Z"/>
</svg>
