<svg id="Layer_2" data-name="Layer 2" xmlns="http://www.w3.org/2000/svg" viewBox="0 0 300 300">
  <defs>
    <style>
      .cls-1 {
        fill: #231f20;
      }

      .cls-2 {
        fill: #696a6d;
      }
    </style>
  </defs>
  <title>1-02</title>
  <g>
    <path class="cls-1" d="M179.7,104.4c-18.4-3.5-36.5-21-36.5-21,6-16.8,31.2-29.6,31.2-29.6,28.3-19.7,21.7-3.1,21.7-3.1,19.4-2.2-1.3,17.5-1.3,17.5,6.4,4.4,5.5,17.7,5.5,17.7,17.4,14.8,6.6,18.7-3.6,20.7s-16.6-6.6-16.6-6.6ZM139.5,88c-9.3,1.8-20.4,23.1-20.4,23.1C84.4,129,80.3,163.5,79.9,166.8c-1.8,12.6,5,36.6,6.2,38.6s4.5,7.3-11,5.4S52.7,190.1,52.7,188c-.1-14.6,13.7-21.3,13.7-21.3s8.8-7.3-8.1-4.5-15.5,25.3-13.2,33.6,9.6,16.7,21.7,21.2,46.1,4.2,60.6,4.2,33.6-.5,33.6-.5c-1.2-4.3-2.3-9-12.7-7.5s-17.4-.9-17.4-.9c4.5-2.6,11.5-16.2,9.7-23-2.4-21.7-29.8-28-29.8-28,19-1.1,29.1,13.3,29.1,13.3,2-1.5,3.1-13.3,3.1-13.3l1.3.3c-.9,4.4,1.7,16.5,3.4,21.3s8.6,19,13.2,27.4,5.5,9.3,15.2,10.2,9.8-3.7,8.1-5.6a4.7,4.7,0,0,1-1.5-3.5c5,.9,5.2-.5,5.2-.5.8-3-1-8.6-5.8-7.7s-6.6.1-6.6.1c-9.7-9.3-12.1-37.6-12.1-37.6,18.3-18.4,15.6-27.2,15.6-35.9s.1-18.7.1-18.7C155,104.6,139.5,88,139.5,88Zm62.7,36.9c-1.7,3.2-6.7,4.8-6.7,4.8-1.2,7.1,5.2,9.6,6.7,10.6a2.1,2.1,0,0,1,1,2.4c6.7,4.4,16.8-3.4,16.8-3.4-4.6,9-16,7-16,7-5.6,17.6,4,25.8,6.6,31.2s1.5,22.2.7,27.2-5.2,2.2-8.1,4.8,1.1,4.3,3,4.1,2.7,1.1,5.9,1.3,4.1-.9,6.3-5.4a17,17,0,0,1,4.8-6.3c-1.3,1.4,3.3,7.3,3.3,7.3-6.7-.8-13.9,4.4-4.1,6s34-1.2,34-1.2c.3,10.6-5.3,14.9-15.2,14.9s-9.7,2.9-9.1,3.4,1.8,4,16.5.6,14.6-15.9,12.5-21.3-2.3-4.7-1.2-26.5-11.3-33.1-19.3-36.2-12.5-6.4-14.3-18-7.9-8.7-9.4-12.6a19.5,19.5,0,0,0-5.8-8.6c-2.3-2.1-2.4,11.3-2.4,11.3S204,121.8,202.2,124.9Z"/>
    <path class="cls-2" d="M179.4,223.7h0Zm65.1-4.3-9.4.6C238.3,219.9,241.5,219.7,244.5,219.4Zm50.1-2.2c-9.7-1.2-19.7-2.2-29.9-2.9a25.9,25.9,0,0,1,.4,4.1C283.6,217.5,294.6,217.2,294.6,217.2Zm-50.1,2.2,8.7-.4v-.3Zm-68.7,4.2c-6.1-.6-9.3-1.3-11.8-3.5l.9,3.5H161c-.2,0-19.3.5-33.6.5h-9.1c-19.1,0-42.4-.5-52.5-4.3l-.7-.3c-35.4,3.4-58.8,6.7-58.8,6.7l-.9,18c55.7-10,120.1-16.5,174-20.6h-3.6Zm46-4.1c-2.8-.5-4.6-1.3-5.7-2.3a7.5,7.5,0,0,1-3.5.7H212a12.5,12.5,0,0,1-4.5-1l-1-.2H206c-2.1,0-5.5-1-6.6-3.8,0-.2-.1-.3-.1-.5h-8.8a4.4,4.4,0,0,1-3,2,6.4,6.4,0,0,1,.1,4.9c-.8,1.7-2.6,3.7-6.9,4.2,19.9-1.5,38.4-2.7,54.4-3.6h-4.5A52.7,52.7,0,0,1,221.8,219.5Zm-59.4,10.6c42.1-3.7,80.4-6.3,80.4-6.3A548.5,548.5,0,0,0,162.4,230.1ZM54.7,255.8s45.7-16.3,107.7-25.7c-46,4.1-96.6,9.5-106.9,14.2Z"/>
  </g>
</svg>
