<?xml version="1.0" encoding="utf-8"?>
<!-- Generator: Adobe Illustrator 27.8.1, SVG Export Plug-In . SVG Version: 6.00 Build 0)  -->
<svg version="1.1" xmlns="http://www.w3.org/2000/svg" xmlns:xlink="http://www.w3.org/1999/xlink" x="0px" y="0px"
	 viewBox="0 0 350 230" style="enable-background:new 0 0 350 230;" xml:space="preserve">
<style type="text/css">
	.st0{fill:#94D3EC;}
	.st1{fill-rule:evenodd;clip-rule:evenodd;fill:#1F3A6E;}
	.st2{fill:#E73F2D;}
	.st3{fill:#253E92;}
	.st4{fill:#EF3E25;}
	.st5{fill:#45BA8B;}
	.st6{fill:none;}
	.st7{fill:#F5B92B;}
	.st8{fill:#0391B3;}
	.st9{fill:#116380;}
	.st10{fill:#939598;}
	.st11{fill:#36004C;}
	.st12{fill:#F2B21C;}
	.st13{fill:#E6E6E6;}
	.st14{fill:#33BFC7;}
	.st15{fill:#463895;}
	.st16{fill:#470000;}
	.st17{fill:#FFFFFF;}
	.st18{fill:#ED1C24;}
	.st19{fill:#373D01;}
	.st20{fill:#6D2700;}
	.st21{fill:#C94502;}
	.st22{fill:#4FAF76;}
	.st23{fill:#231F20;}
	.st24{fill:#0049FF;}
	.st25{fill:#9A5E26;}
	.st26{fill:#003321;}
	.st27{fill:#331F00;}
	.st28{fill:#060033;}
	.st29{fill:#D3FF99;}
	.st30{fill:#F0FF99;}
	.st31{fill:#99F1FF;}
	.st32{fill:#99FFC2;}
	.st33{fill:#FFBD99;}
	.st34{fill:#FF99B6;}
	.st35{fill:url(#SVGID_1_);}
	.st36{fill:url(#SVGID_00000049195252398422726740000010471081105173670585_);}
	.st37{fill:url(#SVGID_00000012437836775630623480000017681039742466044346_);}
	.st38{fill:url(#SVGID_00000090255824770026766110000001632515891347379337_);}
	.st39{fill:url(#SVGID_00000119815626851491446580000016313060879871413933_);}
	.st40{fill:url(#SVGID_00000106120403402390917570000008798460901427386276_);}
	.st41{fill:url(#SVGID_00000150099548891460502610000011601069423018169246_);}
	.st42{fill:url(#SVGID_00000057144259090785136110000005727170700437280431_);}
	.st43{fill:url(#SVGID_00000013905199356018681110000000314786614273380515_);}
	.st44{fill:url(#SVGID_00000044147927366265145960000001776774197265597088_);}
	.st45{fill:url(#SVGID_00000148632616637787441070000013352697575579740300_);}
	.st46{fill:url(#SVGID_00000034079553315184909050000008058409869565812390_);}
	.st47{fill:url(#SVGID_00000080187768345111440440000005702380306804779652_);}
	.st48{fill:url(#SVGID_00000114771535717597034030000015659183240733773699_);}
	.st49{fill:url(#SVGID_00000043425878372236026420000004540981268844383890_);}
</style>
<g id="Layer_1">
</g>
<g id="Layer_2">
</g>
<g id="Layer_3">
</g>
<g id="Layer_4">
</g>
<g id="Layer_5">
</g>
<g id="Layer_6">
</g>
<g id="Layer_7">
</g>
<g id="Layer_8">
</g>
<g id="Layer_9">
</g>
<g id="Layer_10">
</g>
<g id="Layer_11">
</g>
<g id="Layer_12">
</g>
<g id="Layer_13">
</g>
<g id="Layer_14">
</g>
<g id="Layer_15">
	<radialGradient id="SVGID_1_" cx="174.4637" cy="92.2845" r="49.3047" gradientUnits="userSpaceOnUse">
		<stop  offset="0" style="stop-color:#FFFFFF"/>
		<stop  offset="0.0758" style="stop-color:#DEDDDD"/>
		<stop  offset="0.2025" style="stop-color:#ADABAC"/>
		<stop  offset="0.3321" style="stop-color:#838081"/>
		<stop  offset="0.4624" style="stop-color:#605D5E"/>
		<stop  offset="0.5935" style="stop-color:#454243"/>
		<stop  offset="0.7259" style="stop-color:#322E2F"/>
		<stop  offset="0.8603" style="stop-color:#272324"/>
		<stop  offset="1" style="stop-color:#231F20"/>
	</radialGradient>
	<path class="st35" d="M193.85,101.92c0.63,1.23,1.09,2.55,1.37,3.93c1.14,5.74-0.8,10.96-2.65,16.24c-1.67-0.64-2.91,0.58-4.5,0.87
		c0.11-0.48,0.12-0.88,0.28-1.19c0.48-1,0.98-2.01,1.58-2.95c0.5-0.78,1.07-1.55,1.74-2.2c1.18-1.13,1.24-2.18-0.07-3.13
		c-1.89-1.36-4.01-2.08-6.36-2.16c-0.07,0-0.14-0.01-0.2-0.01c-2.27,1.49-4.87,2.37-7.8,2.66c-5.21,0.51-9.53-1.03-12.94-4.65
		l-0.01-0.01c-3.4-3.61-5.43-8.72-6.08-15.33c-0.65-6.61,0.35-12.01,2.99-16.22c2.64-4.21,6.57-6.56,11.78-7.08
		c3.53-0.35,6.77,0.25,9.69,1.79c2.92,1.55,5.29,3.88,7.1,6.99l32.67-3.21c-2.16-7.69-5.65-14.25-10.47-19.7
		c-4.81-5.45-10.75-9.44-17.81-11.99c-7.07-2.54-14.88-3.4-23.44-2.56c-9.96,0.98-18.41,3.95-25.35,8.91
		c-6.94,4.96-12.01,11.45-15.22,19.47c-3.2,8.02-4.33,16.91-3.36,26.69c0.96,9.77,3.8,18.29,8.5,25.53
		c4.71,7.24,10.95,12.62,18.72,16.14c0.55,0.25,1.1,0.48,1.67,0.71c7.3,2.94,15.54,3.98,24.72,3.1c0.45-0.33,0.69-0.85,0.59-1.57
		c-0.21-1.51-0.44-3.02-0.81-4.5c-0.26-1.02-1.13-1.45-2.18-1.51c-1.82-0.11-3.48,0.41-4.97,1.37c-1.81,1.16-3.7,1.4-5.82,1.09
		c-2.65-0.38-5.34-0.47-7.78-0.66c0.44-0.1,1.2-0.37,1.95-0.39c2.37-0.08,4.75-0.04,7.12-0.11c0.81-0.02,1.69-0.07,2.41-0.38
		c1.86-0.82,3.61-1.84,5.67-2.14c1.11-0.17,1.13-0.45,0.61-1.54c-1.5-3.08-2.09-6.34-1.69-9.8c0.18,0.71,0.28,1.44,0.55,2.11
		c1.08,2.69,2.11,5.4,3.34,8.02c1.36,2.89,2.39,5.82,2.53,9.04c0.01,0.27,0.04,0.54,0.11,0.78c2.41-0.29,4.73-0.7,6.97-1.24
		c-1.41-0.67-1.56-1.91-1.84-3.21c-0.69-3.34-0.19-6.55,0.96-9.7c0.29-0.77,0.59-1.55,0.88-2.32c0.09,0.02,0.18,0.04,0.27,0.06
		c-0.33,1.64-0.6,3.29-1.01,4.9c-0.72,2.81-0.91,5.6,0.04,8.38c0.11,0.32,0.27,0.65,0.5,0.89c0.27,0.29,0.54,0.57,0.82,0.85
		c1.23-0.31,2.42-0.65,3.59-1.04c-0.23-0.76-0.81-1.43-1.48-1.78c-0.43-0.22-0.91-0.64-1.07-1.08c-0.85-2.21-0.85-4.51-0.21-6.72
		c1.03-3.59,2.26-7.14,3.44-10.69c1.09-3.29,2.05-6.61,2.12-10.13c0.05-2.76-0.5-5.33-1.69-7.7L193.85,101.92z M186.55,100.5
		l-0.04-0.48l-0.06-0.79c-0.16,0.45-0.32,0.96-0.52,1.45c-0.3,0.72-0.72,1.41-1.4,1.76c0.84,0.06,1.53-0.58,1.89-1.31
		c0.88,0.18,1.75-0.47,2.09-1.31C187.91,100.2,187.26,100.7,186.55,100.5z M184.58,99.96c0.49,0.25,0.91,0.48,1.36,0.72
		c0.05,0.03,0.12,0.06,0.17,0.09c0.13,0.07,0.25,0.14,0.38,0.2c0.01-0.05,0-0.1,0.01-0.15c0-0.07,0.01-0.14,0.01-0.22
		c0-0.04,0-0.08,0-0.12c0.01-0.15,0.01-0.3,0.01-0.46c0.02-0.43,0.03-0.9,0.06-1.43C185.85,99.08,185.2,99.52,184.58,99.96z
		 M186.55,100.5l-0.04-0.48c0.02-0.43,0.03-0.9,0.06-1.43c-0.73,0.49-1.37,0.94-2,1.37c0.49,0.25,0.91,0.48,1.36,0.72
		c-0.3,0.72-0.72,1.41-1.4,1.76c0.84,0.06,1.53-0.58,1.89-1.31c0.88,0.18,1.75-0.47,2.09-1.31
		C187.91,100.2,187.26,100.7,186.55,100.5z M186.55,100.5l-0.04-0.48c0.02-0.43,0.03-0.9,0.06-1.43c-0.73,0.49-1.37,0.94-2,1.37
		c0.49,0.25,0.91,0.48,1.36,0.72c-0.3,0.72-0.72,1.41-1.4,1.76c0.84,0.06,1.53-0.58,1.89-1.31c0.88,0.18,1.75-0.47,2.09-1.31
		C187.91,100.2,187.26,100.7,186.55,100.5z M186.55,100.5l-0.04-0.48c0.02-0.43,0.03-0.9,0.06-1.43c-0.73,0.49-1.37,0.94-2,1.37
		c0.49,0.25,0.91,0.48,1.36,0.72c-0.3,0.72-0.72,1.41-1.4,1.76c0.84,0.06,1.53-0.58,1.89-1.31c0.88,0.18,1.75-0.47,2.09-1.31
		C187.91,100.2,187.26,100.7,186.55,100.5z M186.55,100.5l-0.04-0.48c0.02-0.43,0.03-0.9,0.06-1.43c-0.73,0.49-1.37,0.94-2,1.37
		c0.49,0.25,0.91,0.48,1.36,0.72c-0.3,0.72-0.72,1.41-1.4,1.76c0.84,0.06,1.53-0.58,1.89-1.31c0.88,0.18,1.75-0.47,2.09-1.31
		C187.91,100.2,187.26,100.7,186.55,100.5z M186.55,100.5l-0.04-0.48c0.02-0.43,0.03-0.9,0.06-1.43c-0.73,0.49-1.37,0.94-2,1.37
		c0.49,0.25,0.91,0.48,1.36,0.72c-0.3,0.72-0.72,1.41-1.4,1.76c0.84,0.06,1.53-0.58,1.89-1.31c0.88,0.18,1.75-0.47,2.09-1.31
		C187.91,100.2,187.26,100.7,186.55,100.5z M186.55,100.5l-0.04-0.48c0.02-0.43,0.03-0.9,0.06-1.43c-0.73,0.49-1.37,0.94-2,1.37
		c0.49,0.25,0.91,0.48,1.36,0.72c-0.3,0.72-0.72,1.41-1.4,1.76c0.84,0.06,1.53-0.58,1.89-1.31c0.88,0.18,1.75-0.47,2.09-1.31
		C187.91,100.2,187.26,100.7,186.55,100.5z M186.55,100.5l-0.04-0.48c0.02-0.43,0.03-0.9,0.06-1.43c-0.73,0.49-1.37,0.94-2,1.37
		c0.49,0.25,0.91,0.48,1.36,0.72c-0.3,0.72-0.72,1.41-1.4,1.76c0.84,0.06,1.53-0.58,1.89-1.31c0.88,0.18,1.75-0.47,2.09-1.31
		C187.91,100.2,187.26,100.7,186.55,100.5z M194.31,101.87c-0.37-0.78-0.82-1.54-1.34-2.27c-0.39-0.54-0.54-1.01-0.39-1.72
		c0.78-3.7-0.81-6.6-3.47-8.92c-1.36-1.18-2.24-2.47-2.76-4.16c-0.32-1.04-0.9-2.05-1.54-2.95c-0.65-0.92-1.3-0.77-1.6,0.31
		c-0.29,1-0.45,2.04-0.67,3.07c-0.38,1.72-1.14,3.11-2.84,3.9c-0.91,0.42-1.8,0.98-2.56,1.64c-1.31,1.15-2.77,1.07-4.33,0.82
		c-1.11-0.18-2.26-0.2-3.47-0.3c0.06,2.05,1,3.35,2.23,4.49c2.33,2.17,2.72,4.33,1.15,7.12c-0.36,0.63-0.95,1.36-1.59,1.57
		c-2.9,0.98-5.05,2.73-6.83,4.86c-1.23,1.46-2.29,3.09-3.3,4.76c-1.24,2.03-2.29,4.16-3.35,6.29c-1.41,2.82-1.4,5.82-0.9,8.84
		c0.29,1.69,0.75,3.36,0.94,5.06c0.08,0.84-0.19,1.76-0.5,2.56c-0.3,0.77-0.94,1.39-1.31,2.14c-0.08,0.17-0.15,0.33-0.19,0.49
		c7.3,2.94,15.54,3.98,24.72,3.1c0.45-0.33,0.69-0.85,0.59-1.57c-0.21-1.51-0.44-3.02-0.81-4.5c-0.26-1.02-1.13-1.45-2.18-1.51
		c-1.82-0.11-3.48,0.41-4.97,1.37c-1.81,1.16-3.7,1.4-5.82,1.09c-2.65-0.38-5.34-0.47-7.78-0.66c0.44-0.1,1.2-0.37,1.95-0.39
		c2.37-0.08,4.75-0.04,7.12-0.11c0.81-0.02,1.69-0.07,2.41-0.38c1.86-0.82,3.61-1.84,5.67-2.14c1.11-0.17,1.13-0.45,0.61-1.54
		c-1.5-3.08-2.09-6.34-1.69-9.8c0.18,0.71,0.28,1.44,0.55,2.11c1.08,2.69,2.11,5.4,3.34,8.02c1.36,2.89,2.39,5.82,2.53,9.04
		c0.01,0.27,0.04,0.54,0.11,0.78c2.41-0.29,4.73-0.7,6.97-1.24c-1.41-0.67-1.56-1.91-1.84-3.21c-0.69-3.34-0.19-6.55,0.96-9.7
		c0.29-0.77,0.59-1.55,0.88-2.32c0.09,0.02,0.18,0.04,0.27,0.06c-0.33,1.64-0.6,3.29-1.01,4.9c-0.72,2.81-0.91,5.6,0.04,8.38
		c0.11,0.32,0.27,0.65,0.5,0.89c0.27,0.29,0.54,0.57,0.82,0.85c1.23-0.31,2.42-0.65,3.59-1.04c-0.23-0.76-0.81-1.43-1.48-1.78
		c-0.43-0.22-0.91-0.64-1.07-1.08c-0.85-2.21-0.85-4.51-0.21-6.72c1.03-3.59,2.26-7.14,3.44-10.69c1.09-3.29,2.05-6.61,2.12-10.13
		C196.05,106.82,195.5,104.25,194.31,101.87z M187.44,94.47c-0.12,0.99-0.92,1.3-2.01,1.51c-0.08-0.63-0.16-1.21-0.23-1.76
		c0.59,0.22,0.99,0.38,1.39,0.54c-0.11-0.45-0.24-0.9-0.4-1.5c0.2-0.03,0.75-0.22,0.83-0.1C187.28,93.54,187.5,94.05,187.44,94.47z
		 M184.94,83.76c-0.02,0.36-0.05,0.73-0.07,1.1c0.19-0.06,0.33-0.1,0.57-0.18c-0.11,0.53-0.2,0.96-0.28,1.41
		c0.3,0.11,0.57,0.22,0.93,0.35c-0.23,0.31-0.43,0.56-0.57,0.76c0.35,0.22,0.69,0.42,1.03,0.62c-0.94,0.15-1.86,0.63-2.39-0.49
		C183.46,85.93,184.26,84.88,184.94,83.76z M182.6,86.31c0.1,0.01,0.19,0.01,0.29,0.02c0,0.79,0,1.59-0.02,2.38
		c-0.16,0-0.32,0-0.48,0.01C182.45,87.91,182.52,87.11,182.6,86.31z M179.59,97.47c0.41,0.54,0.68,0.91,0.96,1.27
		c0.09-0.05,0.18-0.1,0.28-0.15c-0.03-0.39-0.05-0.78-0.07-1.17c0.08-0.08,0.17-0.16,0.25-0.24c0.35,0.32,0.72,0.63,1.08,0.94
		c-0.42,0.38-0.82,1.05-1.26,1.07c-0.54,0.03-1.13-0.45-1.64-0.78C179.12,98.38,179.43,97.81,179.59,97.47z M172.47,94.66
		c0.07-0.05,0.13-0.09,0.21-0.14c-0.42-0.53-0.85-1.05-1.43-1.8c1.29,0.32,2.34,0.45,3.3,0.81c1.69,0.64,1.93,2.38,0.55,3.51
		c-0.26,0.22-0.52,0.41-1.01,0.78c-0.06-1.04-0.12-1.89-0.18-2.89C173.53,94.86,173,94.77,172.47,94.66z M192.57,122.09
		c-1.67-0.64-2.91,0.58-4.5,0.87c0.11-0.48,0.12-0.88,0.28-1.19c0.48-1,0.98-2.01,1.58-2.95c0.5-0.78,1.07-1.55,1.74-2.2
		c1.18-1.13,1.24-2.18-0.07-3.13c-1.89-1.36-4.01-2.08-6.36-2.16c-0.07,0-0.14-0.01-0.2-0.01c-2.95-0.12-5.73-0.87-8.21-2.55
		c-0.57-0.38-0.96-1-1.43-1.51c2.5,0.57,4.85,0.77,6.65,0.39c1.14-0.24,1.37-0.84,0.69-1.79c-0.29-0.39-0.65-0.74-0.91-1.16
		c-0.61-0.97-0.5-1.43,0.38-2.15c0.29-0.24,0.68-0.54,0.71-0.84c0.2-1.89,0.99-3.9-0.89-5.49c-0.21-0.17-0.25-0.89-0.07-1.09
		c0.27-0.31,0.89-0.64,1.19-0.52c0.62,0.24,1.26,0.67,1.63,1.21c0.65,0.95,1.34,1.3,2.48,0.96c1.25-0.38,2.16-0.06,2.63,0.89
		c0.39,0.79,0.74,1.43,1.79,1.22c0.15-0.02,0.41,0.24,0.53,0.42c0.62,0.82,1.17,1.69,1.63,2.59c0.63,1.23,1.09,2.55,1.37,3.93
		C196.36,111.59,194.42,116.81,192.57,122.09z M186.55,100.5l-0.04-0.48c0.02-0.43,0.03-0.9,0.06-1.43c-0.73,0.49-1.37,0.94-2,1.37
		c0.49,0.25,0.91,0.48,1.36,0.72c-0.3,0.72-0.72,1.41-1.4,1.76c0.84,0.06,1.53-0.58,1.89-1.31c0.88,0.18,1.75-0.47,2.09-1.31
		C187.91,100.2,187.26,100.7,186.55,100.5z M186.55,100.5l-0.04-0.48c0.02-0.43,0.03-0.9,0.06-1.43c-0.73,0.49-1.37,0.94-2,1.37
		c0.49,0.25,0.91,0.48,1.36,0.72c-0.3,0.72-0.72,1.41-1.4,1.76c0.84,0.06,1.53-0.58,1.89-1.31c0.88,0.18,1.75-0.47,2.09-1.31
		C187.91,100.2,187.26,100.7,186.55,100.5z M186.55,100.5l-0.04-0.48c0.02-0.43,0.03-0.9,0.06-1.43c-0.73,0.49-1.37,0.94-2,1.37
		c0.49,0.25,0.91,0.48,1.36,0.72c-0.3,0.72-0.72,1.41-1.4,1.76c0.84,0.06,1.53-0.58,1.89-1.31c0.88,0.18,1.75-0.47,2.09-1.31
		C187.91,100.2,187.26,100.7,186.55,100.5z M186.55,100.5l-0.04-0.48c0.02-0.43,0.03-0.9,0.06-1.43c-0.73,0.49-1.37,0.94-2,1.37
		c0.49,0.25,0.91,0.48,1.36,0.72c-0.3,0.72-0.72,1.41-1.4,1.76c0.84,0.06,1.53-0.58,1.89-1.31c0.88,0.18,1.75-0.47,2.09-1.31
		C187.91,100.2,187.26,100.7,186.55,100.5z M186.55,100.5l-0.04-0.48c0.02-0.43,0.03-0.9,0.06-1.43c-0.73,0.49-1.37,0.94-2,1.37
		c0.49,0.25,0.91,0.48,1.36,0.72c-0.3,0.72-0.72,1.41-1.4,1.76c0.84,0.06,1.53-0.58,1.89-1.31c0.88,0.18,1.75-0.47,2.09-1.31
		C187.91,100.2,187.26,100.7,186.55,100.5z M186.55,100.5l-0.04-0.48c0.02-0.43,0.03-0.9,0.06-1.43c-0.73,0.49-1.37,0.94-2,1.37
		c0.49,0.25,0.91,0.48,1.36,0.72c-0.3,0.72-0.72,1.41-1.4,1.76c0.84,0.06,1.53-0.58,1.89-1.31c0.88,0.18,1.75-0.47,2.09-1.31
		C187.91,100.2,187.26,100.7,186.55,100.5z M186.55,100.5l-0.04-0.48c0.02-0.43,0.03-0.9,0.06-1.43c-0.73,0.49-1.37,0.94-2,1.37
		c0.49,0.25,0.91,0.48,1.36,0.72c-0.3,0.72-0.72,1.41-1.4,1.76c0.84,0.06,1.53-0.58,1.89-1.31c0.88,0.18,1.75-0.47,2.09-1.31
		C187.91,100.2,187.26,100.7,186.55,100.5z"/>
</g>
</svg>
