<?xml version="1.0" encoding="utf-8"?>
<!-- Generator: Adobe Illustrator 27.8.1, SVG Export Plug-In . SVG Version: 6.00 Build 0)  -->
<svg version="1.1" xmlns="http://www.w3.org/2000/svg" xmlns:xlink="http://www.w3.org/1999/xlink" x="0px" y="0px"
	 viewBox="0 0 350 230" style="enable-background:new 0 0 350 230;" xml:space="preserve">
<style type="text/css">
	.st0{fill:#94D3EC;}
	.st1{fill-rule:evenodd;clip-rule:evenodd;fill:#1F3A6E;}
	.st2{fill:#E73F2D;}
	.st3{fill:#253E92;}
	.st4{fill:#EF3E25;}
	.st5{fill:#45BA8B;}
	.st6{fill:none;}
	.st7{fill:#F5B92B;}
	.st8{fill:#0391B3;}
	.st9{fill:#116380;}
	.st10{fill:#939598;}
	.st11{fill:#36004C;}
	.st12{fill:#F2B21C;}
	.st13{fill:#E6E6E6;}
	.st14{fill:#33BFC7;}
	.st15{fill:#463895;}
	.st16{fill:#470000;}
	.st17{fill:#FFFFFF;}
	.st18{fill:#ED1C24;}
	.st19{fill:#373D01;}
	.st20{fill:#6D2700;}
	.st21{fill:#C94502;}
	.st22{fill:#4FAF76;}
	.st23{fill:#231F20;}
	.st24{fill:#0049FF;}
	.st25{fill:#9A5E26;}
	.st26{fill:#003321;}
	.st27{fill:#331F00;}
	.st28{fill:#060033;}
	.st29{fill:#D3FF99;}
	.st30{fill:#F0FF99;}
	.st31{fill:#99F1FF;}
	.st32{fill:#99FFC2;}
	.st33{fill:#FFBD99;}
	.st34{fill:#FF99B6;}
	.st35{fill:url(#SVGID_1_);}
	.st36{fill:url(#SVGID_00000042002914351499896260000012592939154041687214_);}
	.st37{fill:url(#SVGID_00000106144024121626028510000012414750450782864804_);}
	.st38{fill:url(#SVGID_00000047031686443939578880000008174788986744414627_);}
	.st39{fill:url(#SVGID_00000077291086271017784270000018248535593699465901_);}
	.st40{fill:url(#SVGID_00000055664728893996329680000017347613668852315015_);}
	.st41{fill:url(#SVGID_00000173863997733030710210000015142036781066567311_);}
	.st42{fill:url(#SVGID_00000107571223819513587920000003070883561410819483_);}
	.st43{fill:url(#SVGID_00000056397238314996286860000018007991743153353383_);}
	.st44{fill:url(#SVGID_00000007425395228986750720000004959373022359184046_);}
	.st45{fill:url(#SVGID_00000175318391354321667090000012120509387560361646_);}
	.st46{fill:url(#SVGID_00000081621257689489011070000004284762742744289413_);}
	.st47{fill:url(#SVGID_00000155839184237075798900000017767610719641647285_);}
	.st48{fill:url(#SVGID_00000049925370258563385420000009721996671296172210_);}
	.st49{fill:url(#SVGID_00000000901358542352425440000004928392385286243493_);}
</style>
<g id="Layer_1">
</g>
<g id="Layer_2">
</g>
<g id="Layer_3">
</g>
<g id="Layer_4">
</g>
<g id="Layer_5">
</g>
<g id="Layer_6">
</g>
<g id="Layer_7">
</g>
<g id="Layer_8">
</g>
<g id="Layer_9">
</g>
<g id="Layer_10">
</g>
<g id="Layer_11">
</g>
<g id="Layer_12">
</g>
<g id="Layer_13">
</g>
<g id="Layer_14">
</g>
<g id="Layer_15">
	<radialGradient id="SVGID_1_" cx="174.5596" cy="87.0336" r="51.5769" gradientUnits="userSpaceOnUse">
		<stop  offset="0" style="stop-color:#FFFFFF"/>
		<stop  offset="0.1977" style="stop-color:#DCFFEA"/>
		<stop  offset="0.4034" style="stop-color:#BFFFD9"/>
		<stop  offset="0.6078" style="stop-color:#AAFFCC"/>
		<stop  offset="0.8082" style="stop-color:#9DFFC5"/>
		<stop  offset="1" style="stop-color:#99FFC2"/>
	</radialGradient>
	<path class="st35" d="M187.01,74.57c-0.06-0.05-0.18-0.09-0.25-0.07c0,0-0.01,0-0.02,0c0.1,0.04,0.19,0.07,0.29,0.11
		C187.03,74.59,187.02,74.58,187.01,74.57z M180.31,115.7c-0.02,0.01-0.04,0.03-0.06,0.05c-0.06,0.05-0.13,0.11-0.19,0.16
		c0.09,0.1,0.18,0.2,0.28,0.31C180.56,116,180.43,115.85,180.31,115.7z M180.73,115.28c-0.09,0.11-0.19,0.21-0.29,0.31
		c0.17,0.14,0.33,0.29,0.49,0.43c0.04-0.03,0.08-0.05,0.12-0.08C180.94,115.72,180.84,115.5,180.73,115.28z M181.16,114.7
		c-0.1,0.17-0.22,0.33-0.34,0.48c0.19,0.19,0.32,0.46,0.68,0.22C181.38,115.16,181.28,114.95,181.16,114.7z M215.01,93.24
		c-0.56-0.05-1.11-0.09-1.65-0.24c-2.83-0.78-5.65-1.61-8.48-2.43c-0.43-0.13-0.87-0.27-1.29-0.42c-0.6-0.22-1.21-0.3-1.84-0.39
		c-0.76-0.11-1.49-0.42-2.21-0.71c-0.93-0.39-1.81-0.84-2.87-0.87c-0.6-0.01-1.18-0.33-1.77-0.51c-0.09-0.03-0.18-0.03-0.33-0.05
		c0.29,0.52,1.14,0.43,1.25,1.06c-0.04,0.05-0.08,0.09-0.12,0.14c-0.38-0.2-0.75-0.41-1.13-0.61c-0.02,0.02-0.03,0.04-0.05,0.05
		c0.09,0.12,0.18,0.25,0.28,0.37c-0.02,0.04-0.04,0.07-0.05,0.1c-0.1-0.04-0.22-0.07-0.32-0.13c-0.5-0.3-0.97-0.67-1.5-0.9
		c-0.69-0.3-1.1-0.06-1.35,0.68c0.28-0.04,0.55-0.07,0.81-0.11c0.02,0.05,0.04,0.1,0.05,0.16c-0.46,0.23-0.93,0.47-1.4,0.71
		c0.01,0.05,0.03,0.09,0.04,0.14h0.86c-0.44,0.42-1.14,0.3-1.41,0.98c0.4-0.11,0.75-0.21,1.11-0.31c0.03,0.05,0.05,0.11,0.07,0.16
		c-0.72,0.42-1.45,0.84-2.17,1.27c0.02,0.06,0.05,0.12,0.06,0.19c0.42-0.06,0.83-0.12,1.25-0.17c0.01,0.07,0.03,0.14,0.05,0.2
		c-0.67,0.27-1.34,0.53-2.01,0.8c0.02,0.05,0.04,0.1,0.05,0.15c0.23-0.07,0.45-0.14,0.68-0.21c0.02,0.31,0.02,0.3-0.55,0.55
		c-0.26,0.11-0.51,0.26-0.76,0.39c0.01,0.04,0.03,0.08,0.04,0.12c0.37-0.1,0.73-0.2,1.09-0.3c0.02,0.06,0.05,0.12,0.08,0.18
		c-0.42,0.21-0.84,0.41-1.24,0.64c-0.42,0.25-0.79,0.58-1.22,0.82c-0.43,0.25-0.89,0.43-1.35,0.65c0.27,0.37-0.01,0.51-0.36,0.56
		c-0.25,0.05-0.52,0.03-0.78,0.03c-0.48,0-0.71,0.28-0.83,0.69c-0.13,0.43,0,0.83,0.3,1.12c0.1,0.1,0.38,0.07,0.56,0.03
		c0.51-0.12,1-0.27,1.51-0.41c0.14-0.04,0.29-0.07,0.54-0.12c-0.1,0.24-0.16,0.38-0.23,0.54c1.81-0.18,3.61-0.38,5.41-0.53
		c0.6-0.05,1.22-0.04,1.8,0.1c0.39,0.09,0.79,0.39,1.06,0.7c1.07,1.25,2.19,2.48,3.12,3.83c0.82,1.19,1.4,2.53,2.08,3.8
		c0.14,0.24,0.25,0.5,0.42,0.72c0.85,1.15,1.12,2.54,1.66,3.83c0.52,1.23,1.16,2.41,1.6,3.66c0.9,2.57,1.69,5.18,2.55,7.77
		c0.17,0.51,0.06,0.85-0.42,1.08h-0.49c-0.14-0.2-0.32-0.38-0.42-0.6c-0.36-0.8-0.56-1.63-0.71-2.52c-0.17-1.03-0.59-2.08-1.12-2.99
		c-0.89-1.54-1.42-3.2-2.06-4.84c-0.36-0.91-0.75-1.78-1.27-2.63c-0.75-1.23-1.33-2.57-2.03-3.84c-0.33-0.61-0.77-1.16-1.22-1.82
		c-0.1,0.25-0.15,0.37-0.21,0.51c-0.05,0.01-0.09,0.02-0.14,0.04c-0.14-0.34-0.29-0.67-0.42-0.97c-0.05,0.1-0.11,0.27-0.22,0.51
		c-0.27-0.5-0.5-0.91-0.72-1.32c-0.05,0.02-0.09,0.04-0.14,0.06c0.02,0.17,0.04,0.35,0.06,0.52c-0.05,0.02-0.09,0.05-0.14,0.07
		c-0.15-0.28-0.35-0.55-0.43-0.85c-0.14-0.53-0.23-1.08-0.31-1.62c-0.04-0.27-0.12-0.42-0.42-0.42c-0.4,0-0.81,0-1.33,0
		c0.26,0.18,0.42,0.3,0.58,0.41c-0.02,0.05-0.05,0.11-0.07,0.16c-0.5-0.12-1.01-0.24-1.51-0.36c0,0.02-0.01,0.03-0.01,0.05
		c0.1,0.05,0.25,0.07,0.3,0.14c0.11,0.17,0.18,0.36,0.27,0.55c-0.21,0-0.44,0.06-0.62-0.01c-0.6-0.25-1.19-0.55-1.82-0.76
		c0.15,0.41,0.84,0.28,0.75,1.04c-0.73-0.4-1.4-0.75-2.07-1.11c-0.02,0.03-0.04,0.07-0.06,0.1c0.31,0.25,0.63,0.51,0.94,0.76
		c-0.04,0.05-0.07,0.1-0.1,0.15c-0.79,0.08-1.1-0.8-1.8-0.92c0.41,0.38,0.81,0.76,1.22,1.14c-0.05,0.07-0.09,0.14-0.14,0.21
		c-0.29-0.15-0.6-0.28-0.87-0.47c-0.27-0.18-0.49-0.44-0.75-0.63c-0.14-0.1-0.33-0.23-0.47-0.21c-0.77,0.11-1.33-0.33-1.94-0.67
		c-0.08-0.05-0.17-0.07-0.35-0.14c0.59,0.67,1.44,0.96,1.64,1.82c-0.03,0.04-0.07,0.08-0.1,0.13c-0.22-0.17-0.45-0.32-0.65-0.51
		c-0.2-0.18-0.37-0.41-0.56-0.61c-0.03,0.03-0.06,0.05-0.09,0.08c0.45,0.5,0.89,1.01,1.39,1.58c-0.24,0.07-0.35,0.11-0.47,0.14
		c0.17,0.24,0.33,0.46,0.53,0.73c-0.6,0.19-0.29,0.54-0.12,0.92c-0.18-0.1-0.28-0.16-0.41-0.24c0.15,0.33,0.29,0.62,0.46,0.99
		c-0.21-0.02-0.32-0.04-0.44-0.05c0.16,0.28,0.32,0.55,0.51,0.9c-0.21-0.02-0.33-0.03-0.51-0.05c0.15,0.26,0.28,0.48,0.44,0.74
		c-0.14,0.02-0.26,0.04-0.41,0.06c0.19,0.3,0.36,0.58,0.6,0.97c-0.25-0.06-0.38-0.09-0.57-0.13c0.15,0.3,0.27,0.55,0.39,0.8
		c-0.03,0.02-0.05,0.04-0.08,0.06c-0.14-0.1-0.29-0.21-0.48-0.35c0.1,0.27,0.19,0.49,0.31,0.8c-0.18-0.09-0.28-0.14-0.46-0.22
		c0.23,0.37,0.41,0.69,0.6,1c-0.02,0.03-0.05,0.06-0.08,0.09c-0.22-0.17-0.44-0.34-0.66-0.51c-0.02,0.02-0.04,0.05-0.06,0.06
		c0.31,0.35,0.63,0.69,0.94,1.04c-0.04,0.05-0.07,0.09-0.1,0.14c-0.29-0.13-0.59-0.27-0.88-0.4c-0.03,0.03-0.05,0.05-0.08,0.08
		c0.29,0.21,0.59,0.41,0.88,0.62c-0.05,0.07-0.11,0.14-0.16,0.22c-0.26-0.13-0.51-0.26-0.81-0.4c0.23,0.33,0.44,0.64,0.65,0.94
		c-0.04,0.05-0.08,0.09-0.13,0.14c-0.27-0.22-0.55-0.44-0.84-0.68c-0.19,0.62,0.62,0.66,0.59,1.32c-0.37-0.22-0.66-0.4-1.04-0.62
		c0.21,0.28,0.37,0.5,0.54,0.72c-0.03,0.03-0.06,0.06-0.09,0.09c-0.18-0.09-0.36-0.18-0.6-0.3c0.16,0.29,0.3,0.54,0.51,0.92
		c-0.31-0.14-0.48-0.22-0.74-0.33c0.27,0.32,0.48,0.57,0.69,0.83c-0.03,0.05-0.06,0.09-0.1,0.14c-0.31-0.18-0.62-0.37-1.04-0.61
		c0.32,0.37,0.56,0.65,0.8,0.92c-0.05,0.04-0.09,0.08-0.14,0.12c-0.21-0.19-0.43-0.39-0.65-0.58c-0.02,0.01-0.04,0.02-0.05,0.04
		c0.19,0.28,0.39,0.57,0.59,0.85c-0.03,0.04-0.07,0.08-0.1,0.12c-0.18-0.14-0.37-0.28-0.51-0.37c-0.02,0.32-0.03,0.67-0.08,1.02
		c0,0.05-0.22,0.12-0.31,0.09c-0.13-0.05-0.23-0.17-0.37-0.28c0.03,0.13,0.05,0.23,0.08,0.38c-0.14-0.07-0.25-0.12-0.41-0.19
		c-0.01,0.02-0.02,0.04-0.03,0.06c-0.1,0.17-0.22,0.33-0.34,0.48c-0.03,0.03-0.05,0.07-0.09,0.1c-0.09,0.11-0.19,0.21-0.29,0.31
		c-0.04,0.04-0.08,0.08-0.13,0.12c-0.02,0.01-0.04,0.03-0.06,0.05c-0.06,0.05-0.13,0.11-0.19,0.16c-0.05,0.04-0.1,0.08-0.15,0.12
		c0.04,0.11,0.07,0.22,0.11,0.32h-0.5c-0.09,1.06-0.18,2.14-0.27,3.23c-0.03,0.36-0.02,0.73-0.12,1.07
		c-0.05,0.18-0.29,0.42-0.46,0.43c-0.18,0.02-0.51-0.16-0.55-0.32c-0.11-0.4-0.12-0.83-0.15-1.25c-0.05-0.79,0.17-1.6-0.3-2.51
		c-0.21,1.14-0.45,2.14-0.55,3.15c-0.05,0.45-0.21,0.62-0.59,0.65c-0.41,0.04-0.59-0.23-0.59-0.6c0.01-0.59,0.07-1.17,0.08-1.76
		c0-0.41-0.09-0.81-0.09-1.21c0-0.02,0-0.03,0-0.05h-0.02c-5.17,0-8.02-3.22-8.55-9.65h-11.19c-0.28,0.62-0.57,1.23-0.92,1.81
		c-0.86,1.46-1.3,3.02-1.76,4.62c-0.21,0.76-0.64,1.45-0.97,2.17c-0.09,0.19-0.2,0.37-0.27,0.57c-0.53,1.53-1.04,3.08-1.59,4.61
		c-0.09,0.25-0.29,0.5-0.51,0.67c-0.23,0.19-0.61,0.11-0.62-0.34c-0.03-1.12,0.29-2.16,0.66-3.19c0.82-2.3,1.81-4.54,2.42-6.89
		c0.37-1.4,0.88-2.73,1.45-4.03h-24.05c0.74,12.13,5.45,21.33,14.16,27.61c8.7,6.28,19.75,9.42,33.15,9.42
		c8.76,0,16.3-1.51,22.63-4.51c6.33-3,11.15-7.09,14.48-12.26c3.32-5.17,4.99-10.97,4.99-17.4
		C219.42,103.55,217.95,97.83,215.01,93.24z M198.16,52.85c-0.69,1.04-1.38,2.08-2.11,3.1c-0.7,1-1.41,1.99-2.19,2.93
		c-0.95,1.15-1.74,2.38-2.43,3.71c-0.55,1.07-1.17,2.11-1.8,3.15h27.88c-0.74-11.71-5.06-20.67-12.98-26.9
		c-7.91-6.23-18.57-9.34-31.96-9.34c-8.12,0-15.43,1.32-21.91,3.96c-6.49,2.64-11.6,6.52-15.35,11.63
		c-3.74,5.12-5.61,11.31-5.61,18.59c0,7.6,1.74,13.77,5.22,18.51c2.71,3.7,5.79,6.7,9.24,8.98c0.89-0.5,1.79-0.99,2.71-1.43
		c1.01-0.48,2.1-0.78,3.29-1.2c-0.47-0.12-0.8-0.2-1.13-0.28c0-0.04,0-0.07,0.01-0.1c0.5-0.07,1.01-0.11,1.5-0.21
		c1.67-0.34,3.34-0.7,5.01-1.08c0.6-0.14,1.16-0.4,1.76-0.51c0.93-0.15,1.87-0.23,2.81-0.32c0.78-0.08,1.56-0.12,2.33-0.19
		c0.4-0.04,0.65,0.15,0.74,0.49c0.14,0.51,0.37,0.79,0.95,0.78c0.26-0.01,0.53,0.13,0.79,0.19c0.03-0.04,0.06-0.09,0.09-0.13
		c-0.48-0.35-0.97-0.7-1.44-1.06c-0.13-0.09-0.23-0.23-0.34-0.35c0.15,0,0.31,0,0.47,0.01c0.12,0.01,0.23,0.06,0.38,0.05
		c-0.4-0.6-1.32-0.63-1.49-1.49c0.36,0.22,0.72,0.45,1.13,0.7c-0.14-0.94-1.29-1.06-1.47-1.93c0.34-0.19,0.46,0.09,0.61,0.27
		c0.16,0.19,0.29,0.41,0.48,0.58c0.08-1.15-1.15-1.48-1.48-2.36c0.25-0.06,0.25-0.06,1.1,0.55c-0.26-0.36-0.51-0.73-0.83-1.18
		c0.18,0.01,0.23,0.02,0.28,0.02c0.06,0.01,0.12,0.02,0.18,0.04c0.1-0.88-0.19-1.16-1.02-1.04c-0.43,0.06-0.88,0.06-1.31,0.09
		c0-0.06,0-0.12-0.01-0.18c0.32-0.02,0.64-0.05,0.96-0.07c0-0.06,0-0.11,0.01-0.17h-2.13v-0.18h1.76c0-0.05,0-0.1,0.01-0.15
		c-0.97-0.07-1.93-0.14-2.96-0.21c0.54-0.53,1.16,0,1.76-0.2c-0.48-0.32-0.94-0.35-1.43-0.29c-0.45,0.06-0.91,0.14-1.31-0.14
		c0-0.07,0.01-0.13,0.02-0.2c0.44,0.05,0.88,0.1,1.32,0.15c0.01-0.06,0.02-0.12,0.03-0.18c-0.37-0.09-0.76-0.15-1.12-0.28
		c-0.27-0.09-0.72-0.07-0.52-0.63c-2.33-0.88-4.63-1.81-6.98-2.59c-1.07-0.36-2.24-0.39-3.36-0.6c-0.85-0.16-1.68-0.4-2.52-0.55
		c-0.93-0.17-1.87-0.29-2.8-0.42c-1.26-0.18-2.51-0.4-3.65-0.99c-0.12-0.06-0.2-0.18-0.3-0.27c0.11-0.08,0.22-0.17,0.34-0.22
		c1-0.37,2.03-0.3,3.05-0.18c1.48,0.17,2.98,0.32,4.45,0.58c1.48,0.25,2.93,0.62,4.39,0.92c0.42,0.09,0.84,0.17,1.26,0.15
		c0.69-0.03,1.29,0.16,1.91,0.46c1.73,0.83,3.49,1.6,5.24,2.4c0.06,0.03,0.12,0.07,0.18,0.07c1.71,0.11,3.05,1.11,4.51,1.84
		c0.58,0.29,1.14,0.64,1.68,1c0.6,0.4,0.92,0.93,1.1,1.69c0.63,2.71,1.76,5.21,3.65,7.3c0.09,0.1,0.28,0.17,0.42,0.16
		c0.32-0.01,0.64-0.08,1.04-0.14c-0.18-0.14-0.3-0.24-0.49-0.38c0.2-0.04,0.33-0.06,0.58-0.11c-0.31-0.09-0.51-0.15-0.77-0.23
		c0.12-0.1,0.2-0.18,0.27-0.24c-0.17-0.06-0.35-0.13-0.53-0.19c0.01-0.05,0.02-0.09,0.03-0.14c0.25,0.03,0.5,0.05,0.74,0.08
		c0.03-0.05,0.05-0.1,0.08-0.16c-0.69-0.4-1.39-0.8-2.16-1.25c0.27-0.14,0.5-0.26,0.72-0.37c-0.74-0.67-1.46-1.34-2.18-2
		c0.04-0.05,0.07-0.09,0.11-0.14c0.36-0.04,0.56,0.23,0.79,0.47c0.23,0.23,0.46,0.45,0.69,0.67c0.05-0.05,0.1-0.1,0.15-0.15
		c-0.65-0.67-1.3-1.35-1.95-2.03c0.72-0.22,0.65,0.67,1.22,0.68c-0.34-1.1-1.29-1.74-1.89-2.63c0.02-0.05,0.04-0.09,0.05-0.14
		c0.13,0.05,0.29,0.05,0.37,0.14c0.19,0.18,0.33,0.41,0.51,0.6c0.05,0.06,0.16,0.07,0.25,0.1c0.01-0.1,0.08-0.23,0.04-0.29
		c-0.25-0.37-0.52-0.74-0.79-1.11c-0.18-0.25-0.37-0.5-0.56-0.74c0.05-0.05,0.1-0.1,0.15-0.16c0.32,0.27,0.64,0.53,0.95,0.8
		c0.03-0.01,0.05-0.03,0.08-0.04c-0.26-0.73-0.52-1.45-0.79-2.18c0.07-0.03,0.14-0.07,0.22-0.1c0.17,0.3,0.33,0.61,0.51,0.91
		c0.03-0.01,0.06-0.03,0.09-0.05c-0.28-0.71-0.57-1.42-0.86-2.13c0.07-0.04,0.14-0.07,0.22-0.1c0.22,0.37,0.44,0.75,0.66,1.13
		c0.03-0.01,0.05-0.02,0.09-0.04c-0.17-0.48-0.34-0.96-0.51-1.44c0.06-0.03,0.12-0.06,0.17-0.09c0.15,0.23,0.31,0.46,0.46,0.7
		c0.04-0.01,0.08-0.02,0.13-0.03c-0.09-0.38-0.15-0.76-0.27-1.13c-0.13-0.37-0.32-0.73-0.47-1.1c0.05-0.03,0.1-0.06,0.15-0.1
		c0.21,0.27,0.42,0.54,0.64,0.81c0.34-0.51,0.3-0.87-0.19-1.2c-0.37-0.24-0.77-0.43-1.15-0.65c-0.15-0.09-0.28-0.2-0.43-0.3
		c0.02-0.06,0.04-0.11,0.05-0.17c0.35,0.09,0.71,0.19,1.06,0.29c0.03-0.04,0.06-0.08,0.09-0.11c-0.15-0.14-0.28-0.32-0.46-0.42
		c-0.39-0.2-0.81-0.35-1.2-0.55c-0.17-0.09-0.3-0.26-0.53-0.45c0.64-0.2,0.91,0.32,1.39,0.45c-0.23-0.51-0.69-0.65-1.06-0.89
		c-0.39-0.24-0.77-0.49-1.12-0.8c0.63-0.4,0.87,0.39,1.4,0.37c-0.37-0.97-1.22-1.49-2.03-2.19c0.31-0.04,0.46-0.05,0.65-0.08
		c-0.66-0.92-1.29-1.83-1.94-2.73c-1.39-1.94-2.77-3.91-4.2-5.83c-0.99-1.34-2.04-2.62-3.09-3.92c-0.9-1.11-1.85-2.19-2.72-3.33
		c-0.43-0.56-0.76-1.21-1.11-1.84c-0.16-0.29-0.23-0.62,0.09-0.88h0.29c1.19,0.82,1.99,2,2.88,3.1c1.37,1.69,2.83,3.3,4.19,4.99
		c1.07,1.34,2.04,2.75,3.1,4.1c0.53,0.68,1.19,1.26,1.71,1.94c0.82,1.08,1.55,2.22,2.36,3.3c0.33,0.44,0.78,0.78,1.15,1.19
		c1.01,1.13,1.51,2.54,2.18,3.86c0.39,0.76,0.86,1.49,1.25,2.26c0.09,0.17,0.11,0.43,0.06,0.63c-0.35,1.48-0.58,2.98-0.51,4.51
		c0.07,1.38,0.24,2.75,0.7,4.08c0.56-0.31,0.56-0.3,0.65,0.35c0.07,0.42,0.32,0.69,0.87,0.83c0-0.3,0.05-0.56,0-0.81
		c-0.51-2.22-0.58-4.46-0.04-6.65c0.35-1.44,0.5-2.85,0.44-4.3c-0.01-0.23-0.16-0.48-0.32-0.65c-0.05-0.05-0.37,0.09-0.52,0.2
		c-0.34,0.27-0.64,0.6-1.11,0.27c-0.39-0.27-0.59-0.84-0.37-1.36c0.56-1.29,1.65-1.98,3.13-1.4c0.73,0.28,1.02,1.1,0.96,2.06
		c-0.19,2.55-0.61,5.08-1.04,7.6c-0.12,0.7-0.1,1.43-0.11,2.15c0,0.23,0.09,0.45,0.15,0.68c0.06,0,0.12,0,0.18,0.01
		c0.15-0.42,0.32-0.83,0.44-1.25c0.18-0.59,0.26-1.22,0.49-1.78c0.16-0.38,0.45-0.77,0.79-1c1.25-0.84,3.22-0.69,4.33,0.32
		c0.26,0.23,0.41,0.66,0.47,1.02c0.08,0.43-0.01,0.88,0.03,1.32c0.02,0.27,0.14,0.54,0.28,0.79c0.43-0.88,0.4-1.79,0.24-2.68
		c-0.18-1.07-0.54-2.12-0.65-3.19c-0.12-1.2-0.18-2.42-0.17-3.64c-3.31-1.29-5.89-2.46-7.76-3.52c-2.69-1.53-4.03-3.51-4.03-5.93
		c0-1.8,0.47-3.14,1.42-4.03c0.95-0.9,2.16-1.35,3.64-1.35c4.33,0,6.75,2.96,7.28,8.86h7.95c0.72-1.65,1.48-3.29,2.5-4.79
		c0.46-0.67,1.06-1.25,1.54-1.9c0.97-1.31,1.82-2.72,2.88-3.95c1.45-1.7,2.76-3.5,4.13-5.25c0.12-0.16,0.3-0.34,0.48-0.37
		c0.25-0.05,0.53,0.01,0.8,0.03c-0.03,0.24,0,0.53-0.11,0.72C199.33,51.12,198.74,51.98,198.16,52.85z M201.77,81.02
		c-2.24-1.18-4.76-2.37-7.57-3.56c-0.74,0.08-1.44,0.33-2.11,0.74c0.67-0.03,1.34-0.06,2-0.09c0.01,0.09,0.02,0.18,0.03,0.28
		c-0.54,0.07-1.07,0.15-1.61,0.22c-0.32,0.04-0.65,0.05-0.97,0.1c-0.79,0.14-1.07,0.54-1,1.38c0.48,0.03,0.74-0.79,1.4-0.34
		c-0.64,0.46-1.37,0.75-1.58,1.63c0.35-0.17,0.65-0.32,0.96-0.47c0.03,0.05,0.06,0.09,0.09,0.13c-0.24,0.24-0.5,0.47-0.71,0.74
		c-0.22,0.27-0.38,0.57-0.57,0.86c0.05,0.04,0.1,0.07,0.15,0.11c0.15-0.19,0.28-0.39,0.46-0.55c0.17-0.17,0.38-0.3,0.57-0.44
		c0.05,0.05,0.11,0.1,0.16,0.15c-0.14,0.2-0.27,0.42-0.44,0.61c-0.25,0.28-0.56,0.51-0.8,0.79c-0.14,0.17-0.2,0.42-0.23,0.65
		c0.47-0.08,0.53-0.77,1.26-0.55c-0.53,0.51-0.99,0.96-1.52,1.48c0.62,0.05,0.82-0.68,1.43-0.43c-0.64,0.69-1.59,0.99-1.99,1.92
		c0.46-0.24,0.87-0.45,1.28-0.66c0.04,0.06,0.07,0.12,0.11,0.18c-0.16,0.14-0.35,0.26-0.48,0.42c-0.14,0.18-0.74,0.09-0.38,0.61
		c0.01,0.02-0.15,0.23-0.27,0.26c-1.06,0.34-1.66,1.28-2.5,1.91c-0.36,0.27-0.66,0.63-0.94,0.99c-0.12,0.15-0.09,0.42-0.19,0.6
		c-0.09,0.18-0.23,0.37-0.4,0.46c-0.35,0.18-0.87,0.2-1.07,0.47c-0.19,0.26-0.07,0.75-0.09,1.15c0,0.18-0.03,0.35-0.05,0.68
		c0.6-0.45,1.12-0.83,1.65-1.21c0.03,0.02,0.05,0.05,0.08,0.06c-0.11,0.29-0.21,0.58-0.32,0.87c0.05,0.04,0.09,0.08,0.14,0.12
		c0.2-0.18,0.47-0.33,0.6-0.56c1.02-1.69,1.99-3.4,3.03-5.08c0.37-0.59,0.87-1.1,1.33-1.62c0.51-0.59,1.22-0.51,1.88-0.43
		c1.41,0.16,2.82,0.33,4.21,0.57c2.09,0.36,4.08,1.06,6.04,1.89c0.98,0.41,2.03,0.69,3.05,1.02c1.58,0.53,3.14,1.15,4.76,1.56
		c1.12,0.28,2.22,0.62,3.28,1.06C210.43,87.01,206.38,83.46,201.77,81.02z M187.03,74.61c0.01,0.05,0.01,0.14-0.02,0.17
		c-0.39,0.38-0.02,0.92-0.38,1.3c0.05,0.02,0.1,0.04,0.16,0.06c0.1-0.17,0.2-0.35,0.32-0.51c0.06-0.08,0.18-0.11,0.27-0.16
		c0.02,0.11,0.08,0.24,0.04,0.33c-0.16,0.36-0.36,0.7-0.46,1.1c0.16-0.25,0.32-0.5,0.47-0.74c0.05,0.02,0.11,0.05,0.17,0.07
		c-0.22,0.6-0.43,1.21-0.67,1.89c0.19-0.21,0.33-0.36,0.47-0.51c-0.01,1.03-0.61,1.82-0.9,2.74c0.28-0.42,0.56-0.85,0.85-1.27
		c0.07,0.04,0.14,0.09,0.21,0.13c-0.5,1-1,1.99-1.5,2.99c0.53-0.25,0.46-1.07,1.15-1.12c0.05,0.04,0.1,0.07,0.15,0.11
		c-0.39,0.6-0.78,1.21-1.17,1.82c0.06,0.05,0.12,0.1,0.18,0.15c0.14-0.23,0.28-0.46,0.42-0.69c0.04,0.04,0.09,0.08,0.13,0.12
		c-0.59,1.26-1.54,2.26-2.51,3.23c0.42,0.81-0.48,0.86-0.68,1.26c0.26,0.16,0.52,0.31,0.79,0.47c-0.01,0.05-0.03,0.09-0.04,0.13
		c-0.13,0.04-0.25,0.07-0.36,0.1c0.15,0.1,0.32,0.21,0.49,0.32c-0.02,0.04-0.04,0.08-0.06,0.12h-0.72c0.31,0.15,0.53,0.25,0.76,0.36
		c0.86-0.61,1.38-1.44,1.66-2.53c0.53-2.06,1.19-4.08,1.85-6.11c0.46-1.43,1.48-2.44,2.74-3.2c0.22-0.13,0.44-0.27,0.66-0.39
		C190.07,75.76,188.58,75.19,187.03,74.61z M186.46,74.4c-0.04,0.09-0.07,0.19-0.1,0.29c0.18-0.09,0.28-0.17,0.38-0.19
		C186.64,74.47,186.55,74.44,186.46,74.4z M184.11,74.3c0-0.24,0.02-0.49,0.05-0.73c-0.06-0.02-0.13-0.05-0.19-0.07
		c-1.13-0.4-2.2-0.79-3.21-1.16c-0.37,0.91-0.16,1.89,0.09,2.88c0.25,1.02,0.52,2.05,0.7,3.09c0.08,0.44-0.02,0.91-0.07,1.36
		c-0.08,0.69-0.2,1.39-0.25,2.09c-0.02,0.27,0.05,0.57,0.16,0.83c0.25,0.6,0.55,1.18,0.79,1.67c0.27-0.02,0.52-0.02,0.76-0.06
		c0.14-0.03,0.34-0.11,0.38-0.22c0.2-0.6,0.45-1.19,0.51-1.8c0.16-1.8,0.26-3.62,0.33-5.43C184.2,75.93,184.09,75.12,184.11,74.3z
		 M170.43,96.51c-0.07-0.36-0.25-0.7-0.4-1.09c-0.23,0.11-0.47,0.22-0.7,0.33c-0.34,0.17-0.6,0.18-0.63-0.32
		c-0.34,0.03-0.66,0.07-0.98,0.09c-0.32,0.03-0.57-0.05-0.86-0.28c-0.31-0.23-0.82-0.21-1.25-0.25c-0.32-0.03-0.62-0.03-0.67-0.49
		c0.47,0.07,0.92,0.13,1.49,0.21c-0.71-0.69-1.81-0.18-2.26-1.14c0.37,0.12,0.75,0.24,1.12,0.36c-0.63-0.62-1.68-0.59-2.08-1.55
		c0.42,0.21,0.83,0.42,1.25,0.63c0.02-0.03,0.04-0.07,0.06-0.1c-0.79-0.51-1.59-1.01-2.42-1.54c0.32-0.36,0.53-0.18,0.73-0.03
		c0.19,0.14,0.37,0.29,0.56,0.43c0.04-0.04,0.07-0.08,0.1-0.11c-0.3-0.27-0.61-0.54-0.91-0.82c-0.27-0.24-0.73-0.34-0.69-0.94
		c0.25,0.14,0.43,0.24,0.61,0.34c0.02-0.02,0.04-0.05,0.06-0.06c-0.46-0.42-0.91-0.84-1.37-1.25c0.03-0.06,0.06-0.11,0.1-0.17
		c0.22,0.08,0.43,0.15,0.64,0.22c-0.32-0.98-0.6-1.09-1.51-0.63c-0.32,0.17-0.65,0.28-0.98,0.42c-0.03-0.06-0.06-0.12-0.1-0.18
		c0.28-0.18,0.55-0.35,0.82-0.53c-0.01-0.02-0.02-0.05-0.03-0.07c-0.57,0.29-1.14,0.58-1.71,0.87c-0.05-0.06-0.09-0.13-0.13-0.19
		c0.17-0.13,0.32-0.28,0.51-0.38c0.21-0.12,0.44-0.19,0.66-0.29c-0.02-0.04-0.03-0.08-0.05-0.12c-0.73,0.31-1.45,0.63-2.25,0.97
		c0.11-0.63,0.69-0.53,1.05-0.84c-2.91,0.36-5.49,1.57-8.22,2.5c0.03-0.18,0.05-0.29,0.09-0.46c-1.16,0.54-2.28,1.05-3.4,1.57
		c-0.34,0.16-0.69,0.32-1.03,0.47c0.51,0.3,1.03,0.59,1.56,0.86c3.51,1.81,7.67,3.6,12.51,5.35c0.17-0.14,0.34-0.27,0.52-0.41
		c0.61-0.46,1.37-0.53,2.15-0.4c1.65,0.28,3.31,0.51,4.97,0.74c1.14,0.16,2.13-0.2,2.94-1C170.43,97.09,170.47,96.74,170.43,96.51z
		 M169.89,90.95c-0.38-0.03-0.72-0.04-1.06-0.09c-0.52-0.08-0.59-0.25-0.33-0.72c-0.73-0.25-1.42-0.49-2.16-0.74
		c0.07-0.11,0.14-0.21,0.2-0.31c-0.65-0.28-1.3-0.55-1.95-0.83c0.5-0.41,0.79,0.11,1.23,0.12c-0.52-0.77-1.36-0.69-2.15-1.05
		c0.62,1.02,1.21,1.92,1.73,2.85c0.65,1.18,1.57,2.06,2.78,2.64c0.58,0.28,1.16,0.53,1.88,0.5
		C169.47,92.53,170.02,91.71,169.89,90.95z"/>
</g>
</svg>
