<?xml version="1.0" encoding="utf-8"?>
<!-- Generator: Adobe Illustrator 27.8.1, SVG Export Plug-In . SVG Version: 6.00 Build 0)  -->
<svg version="1.1" xmlns="http://www.w3.org/2000/svg" xmlns:xlink="http://www.w3.org/1999/xlink" x="0px" y="0px"
	 viewBox="0 0 350 230" style="enable-background:new 0 0 350 230;" xml:space="preserve">
<style type="text/css">
	.st0{fill:#94D3EC;}
	.st1{fill-rule:evenodd;clip-rule:evenodd;fill:#1F3A6E;}
	.st2{fill:#E73F2D;}
	.st3{fill:#253E92;}
	.st4{fill:#EF3E25;}
	.st5{fill:#45BA8B;}
	.st6{fill:none;}
	.st7{fill:#F5B92B;}
	.st8{fill:#0391B3;}
	.st9{fill:#116380;}
	.st10{fill:#939598;}
	.st11{fill:#36004C;}
	.st12{fill:#F2B21C;}
	.st13{fill:#E6E6E6;}
	.st14{fill:#33BFC7;}
	.st15{fill:#463895;}
	.st16{fill:#470000;}
	.st17{fill:#FFFFFF;}
	.st18{fill:#ED1C24;}
	.st19{fill:#373D01;}
	.st20{fill:#6D2700;}
	.st21{fill:#C94502;}
	.st22{fill:#4FAF76;}
	.st23{fill:#231F20;}
	.st24{fill:#0049FF;}
	.st25{fill:#9A5E26;}
	.st26{fill:#003321;}
	.st27{fill:#331F00;}
	.st28{fill:#060033;}
	.st29{fill:#D3FF99;}
	.st30{fill:#F0FF99;}
	.st31{fill:#99F1FF;}
	.st32{fill:#99FFC2;}
	.st33{fill:#FFBD99;}
	.st34{fill:#FF99B6;}
	.st35{fill:url(#SVGID_1_);}
	.st36{fill:url(#SVGID_00000052062019001386282700000000362232105584251796_);}
	.st37{fill:url(#SVGID_00000025414666989123613580000011195536013430969009_);}
	.st38{fill:url(#SVGID_00000168113143400451271130000001081912846263468457_);}
	.st39{fill:url(#SVGID_00000077315437906488862350000011600940779544171140_);}
	.st40{fill:url(#SVGID_00000059990480042977499270000002182363759265726090_);}
	.st41{fill:url(#SVGID_00000098196057652181970060000012436976599993586875_);}
	.st42{fill:url(#SVGID_00000066515088652166000450000006514880883881998487_);}
	.st43{fill:url(#SVGID_00000059281920383304724320000009517178881923292835_);}
	.st44{fill:url(#SVGID_00000173854254150859728120000014010349043265547672_);}
	.st45{fill:url(#SVGID_00000125589433434884514410000012722065085998905248_);}
	.st46{fill:url(#SVGID_00000144297407547565198310000011354924373437788606_);}
	.st47{fill:url(#SVGID_00000028304859477632099730000007544878379979477676_);}
	.st48{fill:url(#SVGID_00000144307264564054066770000004656367811551156127_);}
	.st49{fill:url(#SVGID_00000049937563795282403120000018119556399773046451_);}
</style>
<g id="Layer_1">
</g>
<g id="Layer_2">
</g>
<g id="Layer_3">
</g>
<g id="Layer_4">
</g>
<g id="Layer_5">
</g>
<g id="Layer_6">
</g>
<g id="Layer_7">
</g>
<g id="Layer_8">
</g>
<g id="Layer_9">
</g>
<g id="Layer_10">
</g>
<g id="Layer_11">
</g>
<g id="Layer_12">
</g>
<g id="Layer_13">
</g>
<g id="Layer_14">
</g>
<g id="Layer_15">
	<radialGradient id="SVGID_1_" cx="175.1702" cy="83.2445" r="49.5421" gradientUnits="userSpaceOnUse">
		<stop  offset="0" style="stop-color:#FFFFFF"/>
		<stop  offset="0.0784" style="stop-color:#DDDCE6"/>
		<stop  offset="0.202" style="stop-color:#ADABC3"/>
		<stop  offset="0.3291" style="stop-color:#8381A5"/>
		<stop  offset="0.4573" style="stop-color:#625F8D"/>
		<stop  offset="0.5871" style="stop-color:#47447A"/>
		<stop  offset="0.7192" style="stop-color:#35316D"/>
		<stop  offset="0.855" style="stop-color:#2A2665"/>
		<stop  offset="1" style="stop-color:#262262"/>
	</radialGradient>
	<path class="st35" d="M127.42,94.13v7.17C127.16,98.85,127.15,96.43,127.42,94.13z M146.28,134.33h-18.86V101.3
		c1.11,10.69,6.88,21.92,15,26.46c0.78,0.44,2.05,0.84,2.19,1.46C145.01,130.96,145.64,132.65,146.28,134.33z M223.11,82.95
		c0,9.72-2.17,18.48-6.5,26.27c-4.33,7.79-10.51,13.93-18.54,18.4c-7.4,4.11-15.9,6.34-25.53,6.66c0.02-1.75,1.26-3.33,3.64-4.44
		c2.17-1.02,4.25-2.27,6.26-3.59c6.25-4.12,8.08-10.14,6.59-17.13c-0.76-3.56-2.2-7.03-3.65-10.4c3.51-3.86,5.25-9.11,5.25-15.77
		c0-1.33-0.07-2.6-0.21-3.82c3.06,2.01,12.19,4.13,16.9,3.09c-1.37-1.02-2.3-2-3.43-2.5c-5.62-2.47-10.08-6-13.33-11.42
		c-2.87-4.79-7.52-6.76-12.41-6.16c-3.18-1.33-6.86-1.99-11.04-1.99h-7.65v27.38c-4.43,0.11-8.54,1.37-12.65,2.46
		c-6.35,1.7-12.23,1.33-17.28-3.42c-1.12,2.26-1.81,4.83-2.11,7.56V32.15H170c10.68,0,20.03,2.17,28.07,6.5
		c8.03,4.33,14.21,10.34,18.54,18.04C220.94,64.38,223.11,73.14,223.11,82.95z M190.42,79.13c-0.47-0.31-0.8-0.62-0.95-0.91
		c-1.46,0.7-2.82,1.58-4.3,2.03c-4.41,1.34-6.39,4.74-4.64,9.03c1.3,3.17,3.36,6.02,4.73,9.17c0.04,0.09,0.08,0.18,0.12,0.27
		c3.51-3.86,5.25-9.11,5.25-15.77C190.63,81.62,190.56,80.35,190.42,79.13z M167.11,60.15h-7.65v27.38
		c1.98-0.06,4.03,0.11,6.16,0.63c-0.63,2.3-1.17,4.24-1.7,6.18c0.32,0.09,0.65,0.19,0.97,0.28c0.59-2.56,1.52-5.09,1.7-7.68
		c0.29-4.11-0.17-8.28,0.14-12.38c0.51-6.55,3.92-10.62,9.54-12.06c0.63-0.16,1.25-0.28,1.88-0.36
		C174.97,60.81,171.29,60.15,167.11,60.15z"/>
</g>
</svg>
