<?xml version="1.0" encoding="utf-8"?>
<!-- Generator: Adobe Illustrator 27.8.1, SVG Export Plug-In . SVG Version: 6.00 Build 0)  -->
<svg version="1.1" xmlns="http://www.w3.org/2000/svg" xmlns:xlink="http://www.w3.org/1999/xlink" x="0px" y="0px"
	 viewBox="0 0 350 230" style="enable-background:new 0 0 350 230;" xml:space="preserve">
<style type="text/css">
	.st0{fill:#000B23;}
	.st1{fill:#E6FFB0;}
	.st2{fill:#F7FFE1;}
	.st3{fill:#FFD8AE;}
	.st4{fill:#FEFFE1;}
	.st5{fill:#F9D6BB;}
	.st6{fill:#F3FFF4;}
	.st7{fill:#FFF7F0;}
	.st8{fill:#211202;}
	.st9{fill:#FDFFB0;}
	.st10{fill:#FDFFF3;}
	.st11{fill:#94D3EC;}
	.st12{fill-rule:evenodd;clip-rule:evenodd;fill:#1F3A6E;}
	.st13{fill:#E73F2D;}
	.st14{fill:#253E92;}
	.st15{fill:#EF3E25;}
	.st16{fill:#45BA8B;}
	.st17{fill:none;}
	.st18{fill:#F5B92B;}
	.st19{fill:#0391B3;}
	.st20{fill:#116380;}
	.st21{fill:#939598;}
	.st22{fill:#36004C;}
	.st23{fill:#F2B21C;}
	.st24{fill:#E6E6E6;}
	.st25{fill:#33BFC7;}
	.st26{fill:#463895;}
	.st27{fill:#470000;}
	.st28{fill:#FFFFFF;}
	.st29{fill:#ED1C24;}
	.st30{fill:#373D01;}
	.st31{fill:#6D2700;}
	.st32{fill:#C94502;}
	.st33{fill:#4FAF76;}
	.st34{fill:#231F20;}
	.st35{fill:#0049FF;}
	.st36{fill:#9A5E26;}
	.st37{fill:#003321;}
	.st38{fill:#331F00;}
	.st39{fill:#060033;}
	.st40{fill:#D3FF99;}
	.st41{fill:#F0FF99;}
	.st42{fill:#99F1FF;}
	.st43{fill:#99FFC2;}
	.st44{fill:#FFBD99;}
	.st45{fill:#FF99B6;}
	.st46{fill:url(#SVGID_1_);}
	.st47{fill:url(#SVGID_00000134235613205503526740000007910091332249067190_);}
	.st48{fill:url(#SVGID_00000068669640543681582250000015604409553424007808_);}
	.st49{fill:url(#SVGID_00000080185692672906548650000014464069599824384662_);}
	.st50{fill:url(#SVGID_00000000927824362412592240000010794042294925522836_);}
	.st51{fill:url(#SVGID_00000003826377726493653320000005975484961873631119_);}
	.st52{fill:url(#SVGID_00000023279855194557692280000004966401516130662821_);}
	.st53{fill:url(#SVGID_00000169528310476977638560000002780704158829268157_);}
	.st54{fill:url(#SVGID_00000173145250997394106690000012754571283808860590_);}
	.st55{fill:url(#SVGID_00000043452309176442416320000008123517507270635429_);}
	.st56{fill:url(#SVGID_00000168796281676206952900000006975177013046639270_);}
	.st57{fill:url(#SVGID_00000011731221813166731760000001736906566950615430_);}
	.st58{fill:url(#SVGID_00000142894447186079456130000001494016775930142348_);}
	.st59{fill:url(#SVGID_00000182523462553247699430000003023438345714501776_);}
	.st60{fill:url(#SVGID_00000144333216303655464420000018400540532082754984_);}
	.st61{fill:#009245;}
	.st62{fill:#A6CE45;}
	.st63{fill:#FEFADF;}
	.st64{fill:#2AA3AE;}
	.st65{fill:#00527A;}
	.st66{fill-rule:evenodd;clip-rule:evenodd;fill:#D73C2C;}
	.st67{fill-rule:evenodd;clip-rule:evenodd;fill:#F75C4C;}
	.st68{fill:#FDD100;}
	.st69{fill:#724033;}
	.st70{fill-rule:evenodd;clip-rule:evenodd;fill:#FDD100;}
	.st71{fill:url(#SVGID_00000021818036456763192520000017244789017055197861_);}
	.st72{fill:url(#SVGID_00000055677206532400759520000017343711801668779160_);}
	.st73{fill:url(#SVGID_00000020375150855943299720000005643788482286313621_);}
	.st74{fill:#7F3F05;}
	.st75{fill:#86A018;}
	.st76{fill:#FF993B;}
	.st77{fill:#145B9C;}
	.st78{fill-rule:evenodd;clip-rule:evenodd;fill:#A6CE45;}
	.st79{fill-rule:evenodd;clip-rule:evenodd;fill:#4A4A4D;}
	.st80{filter:url(#Adobe_OpacityMaskFilter);}
	.st81{fill:#F5FBFD;}
	.st82{fill:#F7FBFF;}
	.st83{fill:#F4F5F6;}
	.st84{fill:#F4F5F5;}
	.st85{fill:#F3F4F5;}
	.st86{fill:#F1F3F3;}
	.st87{fill:#F3F2F2;}
	.st88{fill:#F0EEED;}
	.st89{fill:#F1F1F1;}
	.st90{fill:#E8E6E8;}
	.st91{fill:#E7E5E4;}
	.st92{fill:#E8E7E6;}
	.st93{fill:#EBEAEB;}
	.st94{fill:#E1E1E1;}
	.st95{fill:#E3E2E1;}
	.st96{fill:#DFDFDD;}
	.st97{fill:#D5D4D4;}
	.st98{fill:#E9E9EA;}
	.st99{fill:#D4D2D1;}
	.st100{fill:#DBDBD9;}
	.st101{fill:#AEABAC;}
	.st102{fill:#808080;}
	.st103{fill:#E7E4E3;}
	.st104{fill:#D9D8D7;}
	.st105{fill:#8C8C8C;}
	.st106{fill:#E3E4E2;}
	.st107{fill:#E7E6E6;}
	.st108{fill:#C6C2C1;}
	.st109{fill:#A19F9F;}
	.st110{fill:#B1B4B4;}
	.st111{fill:#B1B1B1;}
	.st112{fill:#C0BFBF;}
	.st113{fill:#E0E0DF;}
	.st114{fill:#BDBABA;}
	.st115{fill:#C7C6C6;}
	.st116{fill:#C9C8C6;}
	.st117{fill:#ABAAA9;}
	.st118{fill:#B8B6B7;}
	.st119{fill:#B2B3B3;}
	.st120{fill:#CECDCB;}
	.st121{fill:#868787;}
	.st122{fill:#838283;}
	.st123{fill:#9F9E9F;}
	.st124{fill:#D5D4D3;}
	.st125{fill:#D4D3D3;}
	.st126{fill:#5A5A5A;}
	.st127{fill:#AAAAA9;}
	.st128{fill:#C2C1C0;}
	.st129{fill:#D8D7D6;}
	.st130{fill:#8A8A8A;}
	.st131{fill:#D2D0CF;}
	.st132{fill:#BFBCBB;}
	.st133{fill:#AEAEAE;}
	.st134{fill:#807F7F;}
	.st135{fill:#C1BFBD;}
	.st136{fill:#DFE0DF;}
	.st137{fill:#C6C4C2;}
	.st138{fill:#D2D2D2;}
	.st139{fill:#D7D7D5;}
	.st140{fill:#A2A0A0;}
	.st141{fill:#C6C5C5;}
	.st142{fill:#989896;}
	.st143{fill:#D1D1D1;}
	.st144{fill:#CDD0CE;}
	.st145{fill:#B5B5B6;}
	.st146{fill:#C6C3C2;}
	.st147{fill:#D8D7D4;}
	.st148{fill:#858485;}
	.st149{fill:#9E9C9E;}
	.st150{fill:#949493;}
	.st151{fill:#CBC8C7;}
	.st152{fill:#B9B9B8;}
	.st153{fill:#C3C1BF;}
	.st154{fill:#DFDFDE;}
	.st155{fill:#B2B2B2;}
	.st156{fill:#626564;}
	.st157{fill:#B8B6B8;}
	.st158{fill:#D4D1D0;}
	.st159{fill:#BCBAB9;}
	.st160{fill:#DBDAD9;}
	.st161{fill:#C0BDBD;}
	.st162{fill:#8E8F8D;}
	.st163{fill:#AEACAC;}
	.st164{fill:#949392;}
	.st165{fill:#949494;}
	.st166{fill:#DDDDDB;}
	.st167{fill:#B8B8B9;}
	.st168{fill:#C9C6C4;}
	.st169{fill:#CECDCC;}
	.st170{fill:#797778;}
	.st171{fill:#5F6060;}
	.st172{fill:#969698;}
	.st173{fill:#888888;}
	.st174{fill:#9A9B9B;}
	.st175{fill:#BBB9B9;}
	.st176{fill:#999999;}
	.st177{fill:#959494;}
	.st178{fill:#B4B4B5;}
	.st179{fill:#909090;}
	.st180{fill:#888787;}
	.st181{fill:#7B7A7A;}
	.st182{fill:#6C6C6D;}
	.st183{fill:#AEACAD;}
	.st184{fill:#9C9C9C;}
	.st185{fill:#636767;}
	.st186{fill:#B2B3B4;}
	.st187{fill:#747475;}
	.st188{fill:#757576;}
	.st189{fill:#99999A;}
	.st190{fill:#848384;}
	.st191{fill:#8D8C8C;}
	.st192{fill:#A7A6A5;}
	.st193{fill:#969595;}
	.st194{fill:#7E7F7F;}
	.st195{fill:#6A6A68;}
	.st196{fill:#A5A3A3;}
	.st197{fill:#7C7B7C;}
	.st198{fill:#545453;}
	.st199{fill:#929191;}
	.st200{fill:#908F8E;}
	.st201{fill:#7B7D7C;}
	.st202{fill:#828283;}
	.st203{fill:#2B2B2B;}
	.st204{fill:#616161;}
	.st205{fill:#6C6C6B;}
	.st206{fill:#696A6A;}
	.st207{fill:#464647;}
	.st208{fill:#5E5F5F;}
	.st209{fill:#898989;}
	.st210{fill:#6C6E6E;}
	.st211{fill:#4D4B4C;}
	.st212{fill:#555655;}
	.st213{fill:#5E5F5E;}
	.st214{fill:#797A7B;}
	.st215{fill:#5C5C5E;}
	.st216{fill:#4D4C4D;}
	.st217{fill:#6F6F6F;}
	.st218{fill:#808081;}
	.st219{fill:#1D1D1D;}
	.st220{fill:#444445;}
	.st221{fill:#626463;}
	.st222{fill:#515352;}
	.st223{fill:#535352;}
	.st224{fill:#353535;}
	.st225{fill:#727373;}
	.st226{fill:#787778;}
	.st227{fill:#747575;}
	.st228{fill:#676768;}
	.st229{fill:#818282;}
	.st230{fill:#555556;}
	.st231{fill:#5F6161;}
	.st232{mask:url(#SVGID_00000128474285080441944860000003404537359042579340_);}
	.st233{fill:#2AC0DB;}
	.st234{fill:#75459A;}
	.st235{fill:#F7D308;}
	.st236{fill:#F4831F;}
	.st237{fill:#E93B7B;}
	.st238{fill:#FFF100;}
	.st239{fill:#E29233;}
	.st240{fill:url(#SVGID_00000017505966327785219930000014006417384203243198_);}
	.st241{fill:#FF0226;}
	.st242{fill:#39B1D1;}
	.st243{fill:#FF7400;}
	.st244{fill:url(#SVGID_00000066515451691279262730000016510965694199691166_);}
	.st245{fill:#F65E41;}
	.st246{fill:#033A4D;}
	.st247{fill:url(#SVGID_00000021817104209271443460000010365708368623233673_);}
	.st248{fill-rule:evenodd;clip-rule:evenodd;fill:#211202;}
	.st249{fill-rule:evenodd;clip-rule:evenodd;fill:url(#SVGID_00000022521939211207126890000005636767100912248723_);}
	.st250{fill-rule:evenodd;clip-rule:evenodd;fill:url(#SVGID_00000072282649233389404030000000322430943876386979_);}
	.st251{fill:url(#SVGID_00000174594456978543928920000015404332356182535868_);}
	.st252{fill:url(#SVGID_00000051371018540110979240000003949355311478001563_);}
	.st253{fill:url(#SVGID_00000158010831470775881320000016521689080822757290_);}
	.st254{fill:#2D1201;}
	.st255{fill:#E67E22;}
	.st256{fill-rule:evenodd;clip-rule:evenodd;fill:#CCCCCC;}
	.st257{fill:#041B49;}
</style>
<g id="Layer_1">
</g>
<g id="Layer_2">
</g>
<g id="Layer_3">
</g>
<g id="Layer_4">
</g>
<g id="Layer_5">
</g>
<g id="Layer_6">
</g>
<g id="Layer_7">
</g>
<g id="Layer_8">
</g>
<g id="Layer_9">
</g>
<g id="Layer_10">
</g>
<g id="Layer_11">
</g>
<g id="Layer_12">
</g>
<g id="Layer_13">
</g>
<g id="Layer_14">
</g>
<g id="Layer_15">
	<g>
		<path class="st248" d="M189.2,84.88c1.88,8.22-5.24,11.74-11.83,9.48c-4.21-1.44-8.57-5.44-13.09-12.01
			c2.72,2.78,5.29,5.09,7.7,6.93c8.14,6.2,18.84,4.68,14.13-7.34c-2.77-7.08-9.34-16.32-3.65-23.57
			C179.13,67.46,187.32,76.63,189.2,84.88 M192.5,69.84c1.89-5.9,4.5-7.39,7.82-4.47c-0.65-0.25-1.3-0.34-1.96-0.28
			c0.5,0.54,0.64,1.34,0.32,2.04c-0.38,0.81-1.3,1.23-2.17,0.98c-0.7-0.2-1.2-0.79-1.31-1.48C194.31,67.4,193.41,68.47,192.5,69.84z
			 M229.96,71.33c2.04,5.99,3.15,12.4,3.15,19.08c0,6.45-1.33,14.32-3.45,20.16c-8.52,23.53-30.83,38.87-55.53,38.87
			c-26.71,0-50.51-17.95-57.24-44.43c2.26-3.89,5.05-8.13,7.59-11.55c11.36-15.3,28.89-29.12,44.47-35.67
			c12.85-5.4,25.17-3.45,37.11,6.18c8.91,4.02,22-6.37,21.15,8.54c-0.28,4.91-0.06,10.03-3.99,13.37c-3.34,2.84-6.96,2.56-11.1,2.96
			c-5.51,0.53-8.27,0.79-8.27,0.79l14.05,0.39c-2.57,3.51-7.45,5.28-14.63,5.31c-9.87,0.02-11.69,8.21-20.66,7.34
			c-11.8-1.15-22.32-18.95-36.37-24.56c0,0-0.03,1.42-0.19,8.38c0,0-3.09-1.79-8.51-1.77c0,0,3.63,5.01,4.47,8.77
			c-13.01,10.94-6.9,11.52-14.43,20.66c-2.67,3.09-2.06,4.92,3.44,7.7c2.55,6.09,7.71,4.89,10.53,4.91
			c8.44,0.06,12.25,4.38,13.9,14.37h36.74v-32.66h34.76l-0.07-0.09V85.95c2.81-3.78,2.77-8.49,3.04-13.27
			C229.94,72.24,229.95,71.79,229.96,71.33z M137.81,107.08c-0.85-4.2,1.67-5.67,7.54-4.41c-1.58,0.1-2.92,0.34-4,0.72
			c0.53,0.43,0.78,1.13,0.61,1.81c-0.21,0.85-1,1.42-1.87,1.35c-0.74-0.06-1.35-0.57-1.56-1.25
			C138.15,105.82,137.91,106.41,137.81,107.08z"/>
		<linearGradient id="SVGID_1_" gradientUnits="userSpaceOnUse" x1="110.1652" y1="90.4131" x2="239.8348" y2="90.4131">
			<stop  offset="0" style="stop-color:#16EA9E"/>
			<stop  offset="0.47" style="stop-color:#15B0F8"/>
			<stop  offset="1" style="stop-color:#C835F8"/>
		</linearGradient>
		<path style="fill-rule:evenodd;clip-rule:evenodd;fill:url(#SVGID_1_);" d="M178.55,31.38c21.58,0,41.49,11.65,51.94,30.88
			c-2.48-0.49-5.54-0.51-9.14-0.23c-2.53,0.19-5.48,0.57-7.97,0.05c-0.51-0.11-1.01-0.25-1.49-0.45c-4.88-3.88-9.98-6.65-15.28-8.16
			V39.69h-36.12v21.72c-5.13,3.11-10.28,6.81-15.2,10.95h-19.53v20.81c-1.85,2.56-3.62,5.23-5.27,7.94
			c-0.63-3.46-0.97-7.03-0.97-10.68C119.51,58.29,145.34,31.38,178.55,31.38 M175,152.26c-34.16,0-61.85-27.69-61.85-61.85
			c0-34.16,27.69-61.85,61.85-61.85c34.16,0,61.85,27.69,61.85,61.85C236.85,124.57,209.16,152.26,175,152.26 M110.17,90.41
			c0,35.81,29.03,64.84,64.83,64.84c35.81,0,64.84-29.03,64.84-64.84c0-35.81-29.03-64.83-64.84-64.83
			C139.19,25.58,110.17,54.61,110.17,90.41z"/>
	</g>
</g>
</svg>
