<?xml version="1.0" encoding="utf-8"?>
<!-- Generator: Adobe Illustrator 27.8.1, SVG Export Plug-In . SVG Version: 6.00 Build 0)  -->
<svg version="1.1" xmlns="http://www.w3.org/2000/svg" xmlns:xlink="http://www.w3.org/1999/xlink" x="0px" y="0px"
	 viewBox="0 0 350 230" style="enable-background:new 0 0 350 230;" xml:space="preserve">
<style type="text/css">
	.st0{fill:#000B23;}
	.st1{fill:#E6FFB0;}
	.st2{fill:#F7FFE1;}
	.st3{fill:#FFD8AE;}
	.st4{fill:#FEFFE1;}
	.st5{fill:#F9D6BB;}
	.st6{fill:#F3FFF4;}
	.st7{fill:#FFF7F0;}
	.st8{fill:#211202;}
	.st9{fill:#FDFFB0;}
	.st10{fill:#FDFFF3;}
	.st11{fill:#94D3EC;}
	.st12{fill-rule:evenodd;clip-rule:evenodd;fill:#1F3A6E;}
	.st13{fill:#E73F2D;}
	.st14{fill:#253E92;}
	.st15{fill:#EF3E25;}
	.st16{fill:#45BA8B;}
	.st17{fill:none;}
	.st18{fill:#F5B92B;}
	.st19{fill:#0391B3;}
	.st20{fill:#116380;}
	.st21{fill:#939598;}
	.st22{fill:#36004C;}
	.st23{fill:#F2B21C;}
	.st24{fill:#E6E6E6;}
	.st25{fill:#33BFC7;}
	.st26{fill:#463895;}
	.st27{fill:#470000;}
	.st28{fill:#FFFFFF;}
	.st29{fill:#ED1C24;}
	.st30{fill:#373D01;}
	.st31{fill:#6D2700;}
	.st32{fill:#C94502;}
	.st33{fill:#4FAF76;}
	.st34{fill:#231F20;}
	.st35{fill:#0049FF;}
	.st36{fill:#9A5E26;}
	.st37{fill:#003321;}
	.st38{fill:#331F00;}
	.st39{fill:#060033;}
	.st40{fill:#D3FF99;}
	.st41{fill:#F0FF99;}
	.st42{fill:#99F1FF;}
	.st43{fill:#99FFC2;}
	.st44{fill:#FFBD99;}
	.st45{fill:#FF99B6;}
	.st46{fill:url(#SVGID_1_);}
	.st47{fill:url(#SVGID_00000178909224577558735470000005223007495870768261_);}
	.st48{fill:url(#SVGID_00000140720087014123365080000013575219739727885455_);}
	.st49{fill:url(#SVGID_00000009551488626542602550000006898755816204431275_);}
	.st50{fill:url(#SVGID_00000102531588838346173700000016205700241364438656_);}
	.st51{fill:url(#SVGID_00000181083489905743697590000007250507164753241250_);}
	.st52{fill:url(#SVGID_00000126299190621961118430000017403079500330487444_);}
	.st53{fill:url(#SVGID_00000152960275421633791080000007613038641889526438_);}
	.st54{fill:url(#SVGID_00000112621104638956246620000011336681112711911568_);}
	.st55{fill:url(#SVGID_00000172422518252157938730000013631597092888964234_);}
	.st56{fill:url(#SVGID_00000045591182444876147000000017368356922968864435_);}
	.st57{fill:url(#SVGID_00000029045765790145726090000015193663786672353671_);}
	.st58{fill:url(#SVGID_00000069396764212669398110000013391921222707164314_);}
	.st59{fill:url(#SVGID_00000153694782092688501350000014838533583917475504_);}
	.st60{fill:url(#SVGID_00000008849212973708074580000010608574448210975163_);}
	.st61{fill:#009245;}
	.st62{fill:#A6CE45;}
	.st63{fill:#FEFADF;}
	.st64{fill:#2AA3AE;}
	.st65{fill:#00527A;}
	.st66{fill-rule:evenodd;clip-rule:evenodd;fill:#D73C2C;}
	.st67{fill-rule:evenodd;clip-rule:evenodd;fill:#F75C4C;}
	.st68{fill:#FDD100;}
	.st69{fill:#724033;}
	.st70{fill-rule:evenodd;clip-rule:evenodd;fill:#FDD100;}
	.st71{fill:url(#SVGID_00000053512506042916003370000017390528818408971413_);}
	.st72{fill:url(#SVGID_00000175308828029888562490000014608374412647360944_);}
	.st73{fill:url(#SVGID_00000023272519711625081990000013012253672952713397_);}
	.st74{fill:#7F3F05;}
	.st75{fill:#86A018;}
	.st76{fill:#FF993B;}
	.st77{fill:#145B9C;}
	.st78{fill-rule:evenodd;clip-rule:evenodd;fill:#A6CE45;}
	.st79{fill-rule:evenodd;clip-rule:evenodd;fill:#4A4A4D;}
	.st80{filter:url(#Adobe_OpacityMaskFilter);}
	.st81{fill:#F5FBFD;}
	.st82{fill:#F7FBFF;}
	.st83{fill:#F4F5F6;}
	.st84{fill:#F4F5F5;}
	.st85{fill:#F3F4F5;}
	.st86{fill:#F1F3F3;}
	.st87{fill:#F3F2F2;}
	.st88{fill:#F0EEED;}
	.st89{fill:#F1F1F1;}
	.st90{fill:#E8E6E8;}
	.st91{fill:#E7E5E4;}
	.st92{fill:#E8E7E6;}
	.st93{fill:#EBEAEB;}
	.st94{fill:#E1E1E1;}
	.st95{fill:#E3E2E1;}
	.st96{fill:#DFDFDD;}
	.st97{fill:#D5D4D4;}
	.st98{fill:#E9E9EA;}
	.st99{fill:#D4D2D1;}
	.st100{fill:#DBDBD9;}
	.st101{fill:#AEABAC;}
	.st102{fill:#808080;}
	.st103{fill:#E7E4E3;}
	.st104{fill:#D9D8D7;}
	.st105{fill:#8C8C8C;}
	.st106{fill:#E3E4E2;}
	.st107{fill:#E7E6E6;}
	.st108{fill:#C6C2C1;}
	.st109{fill:#A19F9F;}
	.st110{fill:#B1B4B4;}
	.st111{fill:#B1B1B1;}
	.st112{fill:#C0BFBF;}
	.st113{fill:#E0E0DF;}
	.st114{fill:#BDBABA;}
	.st115{fill:#C7C6C6;}
	.st116{fill:#C9C8C6;}
	.st117{fill:#ABAAA9;}
	.st118{fill:#B8B6B7;}
	.st119{fill:#B2B3B3;}
	.st120{fill:#CECDCB;}
	.st121{fill:#868787;}
	.st122{fill:#838283;}
	.st123{fill:#9F9E9F;}
	.st124{fill:#D5D4D3;}
	.st125{fill:#D4D3D3;}
	.st126{fill:#5A5A5A;}
	.st127{fill:#AAAAA9;}
	.st128{fill:#C2C1C0;}
	.st129{fill:#D8D7D6;}
	.st130{fill:#8A8A8A;}
	.st131{fill:#D2D0CF;}
	.st132{fill:#BFBCBB;}
	.st133{fill:#AEAEAE;}
	.st134{fill:#807F7F;}
	.st135{fill:#C1BFBD;}
	.st136{fill:#DFE0DF;}
	.st137{fill:#C6C4C2;}
	.st138{fill:#D2D2D2;}
	.st139{fill:#D7D7D5;}
	.st140{fill:#A2A0A0;}
	.st141{fill:#C6C5C5;}
	.st142{fill:#989896;}
	.st143{fill:#D1D1D1;}
	.st144{fill:#CDD0CE;}
	.st145{fill:#B5B5B6;}
	.st146{fill:#C6C3C2;}
	.st147{fill:#D8D7D4;}
	.st148{fill:#858485;}
	.st149{fill:#9E9C9E;}
	.st150{fill:#949493;}
	.st151{fill:#CBC8C7;}
	.st152{fill:#B9B9B8;}
	.st153{fill:#C3C1BF;}
	.st154{fill:#DFDFDE;}
	.st155{fill:#B2B2B2;}
	.st156{fill:#626564;}
	.st157{fill:#B8B6B8;}
	.st158{fill:#D4D1D0;}
	.st159{fill:#BCBAB9;}
	.st160{fill:#DBDAD9;}
	.st161{fill:#C0BDBD;}
	.st162{fill:#8E8F8D;}
	.st163{fill:#AEACAC;}
	.st164{fill:#949392;}
	.st165{fill:#949494;}
	.st166{fill:#DDDDDB;}
	.st167{fill:#B8B8B9;}
	.st168{fill:#C9C6C4;}
	.st169{fill:#CECDCC;}
	.st170{fill:#797778;}
	.st171{fill:#5F6060;}
	.st172{fill:#969698;}
	.st173{fill:#888888;}
	.st174{fill:#9A9B9B;}
	.st175{fill:#BBB9B9;}
	.st176{fill:#999999;}
	.st177{fill:#959494;}
	.st178{fill:#B4B4B5;}
	.st179{fill:#909090;}
	.st180{fill:#888787;}
	.st181{fill:#7B7A7A;}
	.st182{fill:#6C6C6D;}
	.st183{fill:#AEACAD;}
	.st184{fill:#9C9C9C;}
	.st185{fill:#636767;}
	.st186{fill:#B2B3B4;}
	.st187{fill:#747475;}
	.st188{fill:#757576;}
	.st189{fill:#99999A;}
	.st190{fill:#848384;}
	.st191{fill:#8D8C8C;}
	.st192{fill:#A7A6A5;}
	.st193{fill:#969595;}
	.st194{fill:#7E7F7F;}
	.st195{fill:#6A6A68;}
	.st196{fill:#A5A3A3;}
	.st197{fill:#7C7B7C;}
	.st198{fill:#545453;}
	.st199{fill:#929191;}
	.st200{fill:#908F8E;}
	.st201{fill:#7B7D7C;}
	.st202{fill:#828283;}
	.st203{fill:#2B2B2B;}
	.st204{fill:#616161;}
	.st205{fill:#6C6C6B;}
	.st206{fill:#696A6A;}
	.st207{fill:#464647;}
	.st208{fill:#5E5F5F;}
	.st209{fill:#898989;}
	.st210{fill:#6C6E6E;}
	.st211{fill:#4D4B4C;}
	.st212{fill:#555655;}
	.st213{fill:#5E5F5E;}
	.st214{fill:#797A7B;}
	.st215{fill:#5C5C5E;}
	.st216{fill:#4D4C4D;}
	.st217{fill:#6F6F6F;}
	.st218{fill:#808081;}
	.st219{fill:#1D1D1D;}
	.st220{fill:#444445;}
	.st221{fill:#626463;}
	.st222{fill:#515352;}
	.st223{fill:#535352;}
	.st224{fill:#353535;}
	.st225{fill:#727373;}
	.st226{fill:#787778;}
	.st227{fill:#747575;}
	.st228{fill:#676768;}
	.st229{fill:#818282;}
	.st230{fill:#555556;}
	.st231{fill:#5F6161;}
	.st232{mask:url(#SVGID_00000050663563770767748040000013750310438211289000_);}
	.st233{fill:#2AC0DB;}
	.st234{fill:#75459A;}
	.st235{fill:#F7D308;}
	.st236{fill:#F4831F;}
	.st237{fill:#E93B7B;}
	.st238{fill:#FFF100;}
	.st239{fill:#E29233;}
	.st240{fill:url(#SVGID_00000047032494721159801440000001826093671473960621_);}
	.st241{fill:#FF0226;}
	.st242{fill:#39B1D1;}
	.st243{fill:#FF7400;}
	.st244{fill:url(#SVGID_00000026855733338344501330000006258175279077009040_);}
	.st245{fill:#F65E41;}
	.st246{fill:#033A4D;}
	.st247{fill:url(#SVGID_00000008149959989547348060000011633074604950845367_);}
	.st248{fill-rule:evenodd;clip-rule:evenodd;fill:#211202;}
	.st249{fill-rule:evenodd;clip-rule:evenodd;fill:url(#SVGID_00000039091273754577451130000004804719036325000854_);}
	.st250{fill-rule:evenodd;clip-rule:evenodd;fill:url(#SVGID_00000000914222816775822770000017031156474281081511_);}
	.st251{fill:url(#SVGID_00000036966363285337466210000000710492632467428503_);}
	.st252{fill:url(#SVGID_00000149345431158208011380000007434162432114211224_);}
	.st253{fill:url(#SVGID_00000054264958680133655400000011844229769215166359_);}
	.st254{fill:#2D1201;}
	.st255{fill:#E67E22;}
	.st256{fill-rule:evenodd;clip-rule:evenodd;fill:#CCCCCC;}
	.st257{fill:#041B49;}
</style>
<g id="Layer_1">
</g>
<g id="Layer_2">
</g>
<g id="Layer_3">
</g>
<g id="Layer_4">
</g>
<g id="Layer_5">
</g>
<g id="Layer_6">
</g>
<g id="Layer_7">
</g>
<g id="Layer_8">
</g>
<g id="Layer_9">
</g>
<g id="Layer_10">
</g>
<g id="Layer_11">
</g>
<g id="Layer_12">
</g>
<g id="Layer_13">
</g>
<g id="Layer_14">
</g>
<g id="Layer_15">
	<g>
		<path class="st63" d="M175,25.77c-38.24,0-69.34,31.11-69.34,69.35c0,3.38,0.24,6.71,0.72,9.96c1.47,10.19,5.16,19.66,10.57,27.92
			c12.39,18.93,33.78,31.46,58.05,31.46s45.66-12.53,58.05-31.46c5.41-8.26,9.11-17.74,10.57-27.92c0.48-3.25,0.72-6.58,0.72-9.96
			C244.34,56.87,213.24,25.77,175,25.77z M223.13,133c-4.26,5.4-9.42,10.08-15.24,13.8c-0.94,0.6-1.91,1.18-2.89,1.73
			c-8.87,5.01-19.11,7.87-30.01,7.87c-1.96,0-3.91-0.09-5.83-0.28c-0.22-0.02-0.43-0.04-0.65-0.07c-1.81-0.19-3.6-0.46-5.36-0.81
			c-0.31-0.05-0.61-0.11-0.91-0.18c-4.94-1.05-9.66-2.69-14.09-4.86c-2.52-1.23-4.94-2.63-7.25-4.18
			c-5.34-3.58-10.07-7.98-14.05-13.02c-6.28-7.96-10.62-17.5-12.33-27.92c-0.54-3.24-0.81-6.57-0.81-9.96
			c0-33.79,27.49-61.28,61.28-61.28s61.28,27.49,61.28,61.28c0,3.39-0.28,6.72-0.81,9.96C233.76,115.5,229.41,125.04,223.13,133z"/>
		<path class="st63" d="M151.81,52.3c0.02-0.01,0.07-0.03,0.15-0.08C151.89,52.24,151.83,52.27,151.81,52.3z M162.45,70.8
			c-0.74-0.46-1.61-0.67-2.39-1.03c-0.66-0.34-1.29-0.88-1.87-1.47c-1.17-1.18-2.2-2.55-3.16-3.95c-0.79-1.51-1.79-2.86-3.31-3.61
			c0.76,0.11,1.7-1.03,1.82-1.53c0.15-0.58,1.23-1.73,2.17-1.3c0.94,0.43,2.89,0.79,3.76,0.29c0.87-0.5,0.22-2.31,0.65-2.39
			c0.43-0.07,0.79,0.07,0.72-0.36c-0.07-0.43-0.72-0.79-0.94-1.22c-0.24-0.06-0.48-0.12-0.73-0.19c-0.4-0.1-0.81-0.21-1.22-0.32
			c-0.42-0.11-0.84-0.22-1.26-0.32c-0.03-0.01-0.14-0.03-0.22-0.05c-0.01-0.01-0.03-0.01-0.03-0.01c-0.01-0.01-0.01-0.01-0.02,0
			c-0.01-0.01-0.02-0.01-0.02-0.01c-0.11-0.01-0.22-0.02-0.34-0.05c-1.16-0.27-2.18-1.17-3.39-1.19c-0.07,0-0.13,0-0.19,0.01
			c-0.01,0.13-0.04,0.28-0.05,0.36c-0.06,0.36-0.18,0.73-0.35,1.04c-0.05,0.09-0.24,0.3-0.25,0.39c-0.01,0.19-0.09,0.09,0.22,0.19
			c0.13,0.05,0.18,0.14,0.17,0.28c-0.09,0.75-0.26,1.5-0.49,2.22c-0.05,0.17-0.11,0.35-0.18,0.52c-0.44,1.16-1.13,2.22-1.52,3.34
			c0.51-0.12,1.03-0.14,1.36,0.12c0.63,0.61,1.22,1.25,1.67,1.95c0.5,0.73,0.66,1.59,1.08,2.33c0.81,1.6,1.83,3.06,3.11,4.38
			c0.93,0.96,2.18,1.83,3.58,2.08c2.04,0.65,3.88,1.69,5.83,2.69C165.42,72.76,164.02,71.67,162.45,70.8z M162.48,58.01
			c-0.38,0-0.81-0.38-0.81-0.68c0-0.63-0.16,0.84-0.44,1.11c-0.27,0.27-0.38,0.28,0,0.66c0.38,0.38,0.81,0.43,1.25,0
			C162.92,58.66,162.86,58.01,162.48,58.01z M162.3,65.44c-1.11,0-2.21,1.26-1.58,2.37c0.55,0.97,2.37-0.15,3.16-0.47
			C164.67,67.02,163.41,65.44,162.3,65.44z M162.55,54.88c0.53,0.46,0.89,0.03,1.28,0.42c0.14,0.14,0.19,0.03,0.18-0.17
			C163.53,55.07,163.04,54.98,162.55,54.88z M168.98,56.49c0.28-0.27-1.9-0.32-1.9-0.32c0,0.38,0.44,1.16,0.97,1.16
			c0.54,0,0.67-0.26,0.92,0C169.23,57.59,168.71,56.76,168.98,56.49z M167.9,92.96c-0.32-0.6,0.71-2.6,1.03-3.47
			c0.33-0.87-0.32-2.33-0.32-2.33c-0.22,0.11-0.11,0.92-0.16,1.63c-0.05,0.71-0.98,2.27-1.36,2.82s-0.22,0.87-0.11,1.36
			c0.11,0.48-0.22,1.51-0.49,1.95c-0.27,0.43,0.28,1.08-0.11,1.46c-0.38,0.38-0.48,2.44-0.59,3.09c-0.11,0.65-1.03,1.84-1.47,2.65
			c-0.44,0.81-0.27,1.57,0.87,2.06c1.14,0.49,1.24-0.81,1.47-1.51c0.22-0.71,0.87-0.81,1.57-1.47c0.71-0.65,0.33-1.57,0.17-2.33
			c-0.17-0.76,1.08-1.95,1.24-2.65C169.79,95.5,168.22,93.55,167.9,92.96z M170.66,65.81c-0.38,0.27-0.54,0.65-0.87,0.7
			c-0.32,0.05-0.71,0.71-0.48,1.03c0.22,0.32,0.38,0.43,0.7,0.59c0.26,0.13,0.44-0.43,0.87-0.81c0.44-0.38,0.17-0.81,0.33-1.19
			C171.36,65.75,171.04,65.54,170.66,65.81z M173.53,85.75c0-0.59-0.16-1.14-0.97-1.14h-1.73c-0.48,0-0.84,1.27-0.32,1.79
			c0.52,0.52,0.99,1.63,1.53,1.63c0.53,0,1.78-0.44,1.78-0.44S173.53,86.34,173.53,85.75z M174.29,55.08
			c0.25-0.24,0.07-1.38-0.32-0.99c-0.39,0.39-0.92,1.28-1.36,1.28c-0.43,0-1.03,1.28-1.03,2.02c0,0.64,0.99,0.37,1.36,0
			c0.36-0.36,0.76-0.67,0.76-0.94c0-0.27-1.09,0.05-0.76-0.27C173.26,55.84,174.05,55.33,174.29,55.08z M175.43,97.07
			c0.22-0.27,0.22-0.65-0.05-0.76c-0.28-0.11-0.81-0.43-0.81-0.87c0-0.43-0.6-0.65-0.92-0.54c-0.33,0.11-0.11-0.38-0.17-0.81
			c-0.05-0.44-0.32-0.71-0.7-0.6c-0.38,0.11-1.09,0.6-0.76,0.97c0.32,0.38,0.92,0.44,0.81,0.6c-0.11,0.16-0.81,0.71-0.76,1.3
			c0.05,0.6-0.38,1.14-0.22,1.57c0.17,0.44,0.22,1.08-0.05,1.36c-0.27,0.27-0.7,0.76-0.48,1.35c0.28,0.76,1.57,0.76,2.22,0.6
			c0.65-0.16,1.14-0.16,1.25-0.54c0.11-0.38-0.38-0.75-0.16-1.08c0.22-0.32,0.65-0.54,0.81-1.08
			C175.59,97.99,175.21,97.35,175.43,97.07z M175.77,73.61c-0.11-0.17-0.11-1.62-0.45-1.12c-0.34,0.5-2.29,0-2.96-0.05
			c-0.67-0.06-1.27,0.79-1.4,1.56c-0.05,0.34,0.56,0.34,0.89,0.28c0.34-0.05,0.22,0.78,0.44,1.23c0.23,0.44,1.34,0.22,1.73-0.06
			c0.39-0.28,1.28,0.4,1.73-0.17C176.22,74.72,175.88,73.78,175.77,73.61z M175.44,65.16c-0.67,0.27-0.93,1.75-1.61,1.75
			c-0.95,0,0.81,2.14,1.74,1.61c0.94-0.54,0.54-1.61,0.81-2.41C176.65,65.3,176.12,64.89,175.44,65.16z M180.36,55.23
			c-0.15-0.94-1-1.55-1.71-1.89c-0.46,0-0.92,0.01-1.38,0.02c0.01,0.18-0.01,0.39-0.21,0.59c-0.47,0.47-0.65,0.62-1.84,0.99
			c-1.19,0.38-1.3,2.12-1.3,2.71c0,0.6,1.46,0.54,2,1.08c0.54,0.54,1.07,1.26,1.47,1.66c0.39,0.39,1,0.05,1.4-0.36
			c0.41-0.41,0.76-0.32,1.3,0.22c0.54,0.54,1.03-0.65,1.03-1.3C181.12,58.31,180.63,56.9,180.36,55.23z M178.44,87.59
			c-1.16,0-3.18,2.49-3.18,3.47s-0.97,2.17,0,3.15c0.98,0.97,3.36,1.19,4.56,0c1.19-1.19,2.1-3.25,2.1-4.66
			C181.92,88.13,179.6,87.59,178.44,87.59z M184.21,80.33c0.27-0.27-2.02,0.05-2.28,0.33c-0.27,0.27-0.54,1.03-1.02,1.03
			c-0.49,0-1.2,0.7-1.2,1.08c0,0.38,0.28,0.92,0.81,0.92c0.38,0,0.08,0.35,0.38,0.65c0.3,0.3,0.86-0.17,1.02,0
			c0.17,0.16,1.25-0.38,1.25-0.97c0-0.6,0.71-1.09,1.03-1.41C184.53,81.63,183.93,80.6,184.21,80.33z M183.61,93.71
			c-0.81,0-1.95,0.38-2.76,2.72c-0.81,2.33-0.87,4.39,0,4.39c0.92,0,2.49-1.96,2.49-2.55c0-0.6,1.3-1.36,1.3-2.12
			C184.64,95.39,184.42,93.71,183.61,93.71z M187.84,95.07c0,0,0.16-1.36-0.38-1.36c-0.54,0-1.57,1.3-2.16,2.33
			c-0.6,1.03-1.47,3.25-1.47,4.07c0,0.54,1.16-0.25,1.41,0c0.24,0.24,0.62-1.12,1.14-1.63c0.52-0.52,0.58-0.61,1.19-1.22
			c0.61-0.6,0.62-1.67,0.83-2.24C188.5,94.72,187.84,95.07,187.84,95.07z M188.94,101.36c0,0-0.22,1.2-0.7,1.57
			c-0.49,0.38-0.98,0.81-0.81,1.2c0.11,0.27-0.13,0.63-0.24,0.95h2.33c-0.01-0.3-0.04-0.58,0.08-0.73
			C189.8,104.07,189.54,102.12,188.94,101.36z M195.15,92.14c-0.16,0.65-1.19,1.03-1.79,1.3c-0.6,0.27-0.6,1.47-0.32,1.84
			c0.27,0.38,0.16,1.03,0.05,2.39c-0.07,0.91,0.3,1.3,0.59,1.29c0.56-1.67,1.1-3.34,1.56-5.04c0.36-1.3,0.63-2.63,0.85-3.97
			C195.57,90.46,195.28,91.63,195.15,92.14z M196.11,79.3c-0.13,0.62-0.13,1.3,0.01,1.68c0.28,0.71,0.33,1.68-0.11,3.2
			c-0.24,0.83,0.13,1.85,0.5,2.54C196.73,84.23,196.53,81.75,196.11,79.3z M203.76,73.33C203.63,73.43,203.7,73.47,203.76,73.33
			L203.76,73.33z M203.13,69.57c-1.32-2.24-2.9-4.39-4.6-6.36c-0.81-0.93-1.66-1.81-2.66-2.54c-0.75-0.54-1.6-0.97-2.31-1.56
			s-1.33-1.24-2.02-1.83c-0.07,0.06-0.14,0.13-0.22,0.2c-1.01,1.01,1.12,3.51,0.51,4.12c-0.62,0.61-4.91,4.99-5.28,6.21
			c-0.36,1.23-3.9,3.54-4.55,6.79c-0.65,3.25,1.3,4.62,2.14,4.62c0.85,0,0.75,1.3,3.41,1.3c0.11,0,0.24-0.01,0.37-0.03
			c0.14,0.79,0.32,2.17-0.1,2.17c-0.6,0,1.16,2.74,1.68,3.25c0.51,0.51,0.05,2.11,0.76,2.11c0.7,0,1.79-0.87,2.16-2.6
			c0.38-1.73,0.49-3.09,0-3.58c-0.42-0.42,0.11-1.91,0.28-2.82c1.16-0.48,2.26-0.98,3.1-1.37c0.03-0.54,0.75-0.98,1.14-1.23
			c0.75-0.48,1.5-0.94,2.26-1.4c1.03-0.61,2.16-1.39,3.38-1.53c0.18-0.02,0.57-0.05,0.95-0.15c0.05-0.01,0.14-0.05,0.23-0.07
			c0-0.01,0.01-0.01,0.01-0.02c0.03-0.15,0.13-0.32,0.19-0.48C204.33,71.63,203.7,70.53,203.13,69.57z M209.11,149.77
			c-0.48-0.96-0.84-1.97-1.22-2.97c-0.23-0.59-0.46-1.17-0.73-1.74c-0.49-1.02-1.15-1.98-1.7-2.96c-1.18-2.12-2.41-4.27-3.35-6.5
			c-0.36-0.87-0.73-1.73-1.1-2.59c-0.5-1.21-1.03-2.41-1.61-3.58c-1.22-2.48-2.79-4.75-3.56-7.43c-0.38-1.32-0.79-2.64-1.23-3.94
			c-0.44-1.31-1.05-2.58-1.47-3.89c-0.07-0.23,0.01-0.52,0.08-0.89c0.12-0.65,0.23-1.31,0.28-1.98c0.07-1.09-0.2-2.11-0.09-3.21
			c0.09-0.99,0.24-2.02,0.52-2.99c0.09-0.33,0.2-0.66,0.33-0.97c0.3-0.73,0.58-1.47,0.85-2.21c0.95-2.6,1.86-5.23,2.66-7.88
			c0.72-2.4,1.18-4.82,1.54-7.3c0.48-3.37,0.16-6.71-0.48-10.03c0.31-0.19,0.63-0.38,0.93-0.56c0.24-0.14,0.48-0.29,0.73-0.42
			c0.11-0.06,0.22-0.12,0.32-0.19c0.01,0,0.01,0,0.02-0.01c0.01,0,0.01-0.01,0.01-0.01c0,0,0.01-0.01,0.01-0.01
			c0.01-0.01,0.01-0.01,0.02-0.01c0.01,0,0.01-0.01,0.02-0.01c0.13-0.01,0.26-0.01,0.32-0.02c2.69-0.39,6.73-2.5,5.65-5.81
			c-0.77-2.34-2.54-4.48-4.02-6.39c-1.7-2.2-3.49-4.03-5.86-5.5c-0.94-0.58-1.63-1.46-2.48-2.16c-1.35-1.12-2.9-2.02-4.51-2.71
			c-1.8-0.77-3.72-1.3-5.67-1.47c-1.92-0.17-3.89-0.05-5.81-0.01c-1.73,0.04-3.45,0.11-5.16,0.28c-1.35,0.14-2.73,0.32-3.97,0.91
			c-0.52,0.25-1.13,0.61-1.41,0.65c-0.51,0.07-1.07,0.04-1.58-0.03c-1.18-0.17-2.33-0.5-3.48-0.79c-1.22-0.32-2.43-0.67-3.66-0.94
			c-1.09-0.24-2.05-0.77-3.21-1.13c-1.88-0.6-4.07,0.16-5.52,1.42c-0.37,0.32-0.73,0.68-0.91,1.14c-0.15,0.43-0.07,0.89-0.23,1.33
			c-0.21,0.55-0.97,1.37-0.16,1.74c-0.11,0.91-0.34,1.83-0.72,2.66c-0.56,1.24-1.31,2.39-1.66,3.71c-0.4,1.5,0.21,3.16,0.73,4.56
			c0.72,1.94,1.73,3.88,3.21,5.34c0.46,0.46,1.1,0.76,1.4,1.32c0.36,0.67,0.73,1.32,1.16,1.95c0.54,0.75,1.17,1.51,1.98,1.99
			c0.79,0.47,1.78,0.42,2.67,0.45c0.96,0.03,1.81,0.18,2.48,0.94c0.65,0.74,1.04,1.72,1.41,2.62c0.84,2.01,1.52,4.09,2.08,6.2
			c0.22,0.84,0.44,1.7,0.55,2.57c0.01,0.11,0.04,0.5,0.08,0.5c-0.02,0.08-0.07,0.15-0.11,0.22c-1.26,2.86-2.65,5.66-3.94,8.49
			c-0.63,1.4-1.28,2.8-1.86,4.22c-0.18,0.44-0.34,0.9-0.48,1.36c-0.64,2.02-0.98,4.12-1.79,6.07c-0.1,0.24-0.22,0.48-0.34,0.72
			c-0.05,0.11-0.09,0.17-0.1,0.2c0-0.01,0.01-0.02,0.01-0.03c-0.01,0-0.01,0-0.01,0.01c-0.06,0.08-0.13,0.15-0.19,0.24
			c0,0.01-0.01,0.01-0.01,0.01c0,0,0,0.01-0.01,0.01c-0.01,0.01-0.02,0.02-0.03,0.03c0,0-0.01,0.01-0.02,0.01
			c0,0.01-0.01,0.01-0.01,0.02c-0.01,0.01-0.01,0.01-0.01,0.01l-0.06,0.06c-0.52,0.51-1.07,0.99-1.61,1.48
			c-1.51,1.32-3.04,2.61-4.53,3.96c-1.63,1.47-3.22,3-4.64,4.67c-1.48,1.75-2.49,3.64-3.29,5.78c-0.58,1.53-1.05,3.08-1.41,4.66
			c-0.26,1.08-0.45,2.17-0.59,3.27c-0.24,1.78-0.56,4.03,0.22,5.73c0.52,1.14,0.54,2.45,1.01,3.69c0.04,0.11,0.09,0.22,0.13,0.33
			c0.93,2.13,2.73,3.55,4.02,5.47c0.58,0.87,1.24,1.9,1.29,2.98c0.03,0.86,2.98-0.48,2.94-1.38c-0.03-0.99-0.44-1.98-1-2.88
			c-0.69-1.14-1.63-2.17-2.45-3.02c-1.39-1.47-2.45-3.4-2.65-5.44c-0.05-0.49-0.11-0.85-0.33-1.29c-0.4-0.81-0.45-1.69-0.45-2.59
			c0-1.62,0.2-3.25,0.51-4.85c0.12-0.64,0.26-1.28,0.42-1.91c0.63-2.54,1.47-5.29,2.94-7.49c1.1-1.64,2.53-3.07,3.96-4.43
			c1.53-1.45,3.14-2.84,4.74-4.21c1.17-1.01,2.4-2,3.42-3.17c1.4-1.59,1.73-3.98,2.26-5.95c0.07-0.26,0.14-0.51,0.22-0.76
			c0.46-1.53,1.05-2.99,1.7-4.46c1.42-3.18,2.89-6.34,4.37-9.49c0.38-0.81,0.79-1.4,0.67-2.31c-0.26-1.94-0.85-3.85-1.46-5.69
			c-0.62-1.88-1.23-4.07-2.42-5.69c-0.6-0.83-1.42-1.3-2.42-1.44c-0.89-0.13-1.86,0.05-2.72-0.22c-1.54-0.47-2.59-2.44-3.29-3.78
			c-0.3-0.58-0.69-0.77-1.2-1.22c-0.79-0.71-1.43-1.57-1.98-2.46c-0.99-1.62-1.74-3.43-2.17-5.28c-0.22-0.94-0.09-1.79,0.2-2.59
			c-0.71,0.16-1.4,0.52-1.49,0.56c0.36-0.98,0.96-1.97,1.38-2.88c0.21-0.44,0.36-0.91,0.48-1.35h0.01c0.22-0.83,0.32-1.53,0.33-1.69
			l0.01-0.03c-0.29,0-0.57-0.46-0.32-0.7c0.24-0.24,0.58-0.83,0.58-1.76c0-0.92,1.62-1.51,2.76-1.51c1.14,0,3.19,1.24,3.74,1.24
			c0,0,0.01,0.01,0.04,0.01c0.2,0.07,1.01,0.33,1.4,0.45c0.39,0.12,0.75,0.98,0.96,1.42c0.53,0.14,1.06,0.28,1.6,0.41
			c0.35,0.09,0.7,0.17,1.05,0.24c-0.02-0.02-0.05-0.04-0.07-0.07c-0.57-0.57-0.59-1.25-0.59-1.25c0.24,0.24,1.94,0.47,1.94,0.47
			s0.17,0.71,0.18,1.1c1.34,0.17,2.65,0.1,4.01-0.5c0.34-0.15,0.69-0.32,1.01-0.5c0.03-0.01,0.15-0.07,0.22-0.1
			c0.01-0.01,0.01-0.01,0.02-0.01c0,0,0,0,0.01,0c0.03-0.01,0.05-0.02,0.08-0.03c0.25-0.06,1.12-0.22,1.59-0.28
			c1.52-0.19,3.06-0.25,4.6-0.29c0.57-0.01,1.15-0.03,1.72-0.05c-0.01-0.24-0.04-0.42,0.34-0.42c0,0,0.48,0.12,1.05,0.4
			c2.51-0.03,5.01,0.11,7.43,0.95c1.63,0.58,3.21,1.36,4.64,2.34c0.29,0.2,0.56,0.42,0.83,0.64c0.91-0.81,1.62-0.79,2.2-0.21
			c2.06,2.01,1.36,1.08,3.9,2.98c2.55,1.9,6.88,8.23,7.47,9.7c0.6,1.47,0.6,1.68,0.05,3.03c-0.54,1.36-3.14,1.73-3.63,1.73
			c-0.48,0-4.28,2.44-4.28,2.44s-0.57,0.29-1.45,0.71c0,0.05,0,0.1,0.01,0.15c0.1,0.5,0.19,0.99,0.28,1.49
			c0.11-0.5,0.32-0.97,0.61-1.19c0,0,1.47,2.28,1.03,5.11c-0.27,1.76-0.71,3.77-0.65,4.2c0.03,0.19-0.28-0.14-0.58-0.71
			c-0.03,0.28-0.05,0.54-0.09,0.82c-0.1,0.8-0.21,1.6-0.34,2.41c0.14-0.14,0.3-0.23,0.47-0.24c0,0,0.54,2.82-0.22,4.44
			c-0.75,1.63-0.81,2.98-1.19,3.25c-0.38,0.27-0.97,0.65-1.14,1.24c-0.05,0.19-0.18,0.3-0.33,0.32c-0.34,0.98-0.69,1.96-1.04,2.94
			c-0.38,1.06-0.82,2.11-1.19,3.17c-0.3,0.84-0.56,1.69-0.73,2.56c-0.24,1.25-0.45,2.57-0.23,3.83c0.19,1.12-0.04,2.29-0.26,3.39
			c-0.07,0.4-0.15,0.57,0,0.95c0.24,0.6,0.51,1.18,0.74,1.79c0.54,1.42,1.01,2.88,1.46,4.34c0.39,1.24,0.71,2.51,1.22,3.72
			c0.63,1.46,1.4,2.86,2.2,4.23c0.58,0.99,1.1,2.04,1.58,3.1c0.53,1.18,1.02,2.37,1.49,3.56c0.88,2.2,2.04,4.28,3.16,6.36
			c0.62,1.13,1.32,2.22,1.94,3.35c0.39,0.73,0.7,1.49,0.99,2.26c0.38,1,0.74,2.02,1.22,2.97
			C206.59,152.21,209.52,150.58,209.11,149.77z M200.7,75.46c-0.14,0.05-0.26,0.08-0.24,0.05C200.47,75.48,200.57,75.47,200.7,75.46
			z M196.96,76.42c0.75-0.48,1.5-0.94,2.26-1.4c1.03-0.61,2.16-1.39,3.38-1.53c0.18-0.02,0.57-0.05,0.95-0.15
			c0.05-0.01,0.14-0.05,0.23-0.07c0-0.01,0.01-0.01,0.01-0.02c0.03-0.15,0.13-0.32,0.19-0.48c0.36-1.14-0.26-2.24-0.83-3.2
			c-1.32-2.24-2.9-4.39-4.6-6.36c-0.81-0.93-1.66-1.81-2.66-2.54c-0.75-0.54-1.6-0.97-2.31-1.56s-1.33-1.24-2.02-1.83
			c-0.07,0.06-0.14,0.13-0.22,0.2c-1.01,1.01,1.12,3.51,0.51,4.12c-0.62,0.61-4.91,4.99-5.28,6.21c-0.36,1.23-3.9,3.54-4.55,6.79
			c-0.65,3.25,1.3,4.62,2.14,4.62c0.85,0,0.75,1.3,3.41,1.3c0.11,0,0.24-0.01,0.37-0.03c0.14,0.79,0.32,2.17-0.1,2.17
			c-0.6,0,1.16,2.74,1.68,3.25c0.51,0.51,0.05,2.11,0.76,2.11c0.7,0,1.79-0.87,2.16-2.6c0.38-1.73,0.49-3.09,0-3.58
			c-0.42-0.42,0.11-1.91,0.28-2.82c1.16-0.48,2.26-0.98,3.1-1.37C195.85,77.11,196.57,76.67,196.96,76.42z M203.76,73.33
			C203.63,73.43,203.7,73.47,203.76,73.33L203.76,73.33z M196.11,79.3c-0.13,0.62-0.13,1.3,0.01,1.68c0.28,0.71,0.33,1.68-0.11,3.2
			c-0.24,0.83,0.13,1.85,0.5,2.54C196.73,84.23,196.53,81.75,196.11,79.3z M196.09,89.95c-0.52,0.5-0.81,1.68-0.94,2.19
			c-0.16,0.65-1.19,1.03-1.79,1.3c-0.6,0.27-0.6,1.47-0.32,1.84c0.27,0.38,0.16,1.03,0.05,2.39c-0.07,0.91,0.3,1.3,0.59,1.29
			c0.56-1.67,1.1-3.34,1.56-5.04C195.6,92.62,195.87,91.29,196.09,89.95z M188.24,102.93c-0.49,0.38-0.98,0.81-0.81,1.2
			c0.11,0.27-0.13,0.63-0.24,0.95h2.33c-0.01-0.3-0.04-0.58,0.08-0.73c0.22-0.27-0.05-2.22-0.65-2.98
			C188.94,101.36,188.72,102.55,188.24,102.93z M188.39,95.01c0.11-0.3-0.55,0.05-0.55,0.05s0.16-1.36-0.38-1.36
			c-0.54,0-1.57,1.3-2.16,2.33c-0.6,1.03-1.47,3.25-1.47,4.07c0,0.54,1.16-0.25,1.41,0c0.24,0.24,0.62-1.12,1.14-1.63
			c0.52-0.52,0.58-0.61,1.19-1.22C188.17,96.65,188.18,95.59,188.39,95.01z M183.61,93.71c-0.81,0-1.95,0.38-2.76,2.72
			c-0.81,2.33-0.87,4.39,0,4.39c0.92,0,2.49-1.96,2.49-2.55c0-0.6,1.3-1.36,1.3-2.12C184.64,95.39,184.42,93.71,183.61,93.71z
			 M181.92,80.66c-0.27,0.27-0.54,1.03-1.02,1.03c-0.49,0-1.2,0.7-1.2,1.08c0,0.38,0.28,0.92,0.81,0.92c0.38,0,0.08,0.35,0.38,0.65
			c0.3,0.3,0.86-0.17,1.02,0c0.17,0.16,1.25-0.38,1.25-0.97c0-0.6,0.71-1.09,1.03-1.41c0.32-0.32-0.28-1.36,0-1.63
			C184.48,80.06,182.19,80.38,181.92,80.66z M178.44,87.59c-1.16,0-3.18,2.49-3.18,3.47s-0.97,2.17,0,3.15
			c0.98,0.97,3.36,1.19,4.56,0c1.19-1.19,2.1-3.25,2.1-4.66C181.92,88.13,179.6,87.59,178.44,87.59z M177.06,53.95
			c-0.47,0.47-0.65,0.62-1.84,0.99c-1.19,0.38-1.3,2.12-1.3,2.71c0,0.6,1.46,0.54,2,1.08c0.54,0.54,1.07,1.26,1.47,1.66
			c0.39,0.39,1,0.05,1.4-0.36c0.41-0.41,0.76-0.32,1.3,0.22c0.54,0.54,1.03-0.65,1.03-1.3c0-0.65-0.49-2.06-0.76-3.73
			c-0.15-0.94-1-1.55-1.71-1.89c-0.46,0-0.92,0.01-1.38,0.02C177.27,53.54,177.26,53.75,177.06,53.95z M175.58,68.51
			c0.94-0.54,0.54-1.61,0.81-2.41c0.27-0.81-0.27-1.21-0.94-0.94c-0.67,0.27-0.93,1.75-1.61,1.75
			C172.89,66.91,174.64,69.05,175.58,68.51z M171.86,74.28c0.34-0.05,0.22,0.78,0.44,1.23c0.23,0.44,1.34,0.22,1.73-0.06
			c0.39-0.28,1.28,0.4,1.73-0.17c0.44-0.56,0.11-1.51,0-1.67c-0.11-0.17-0.11-1.62-0.45-1.12c-0.34,0.5-2.29,0-2.96-0.05
			c-0.67-0.06-1.27,0.79-1.4,1.56C170.91,74.33,171.53,74.33,171.86,74.28z M175.38,96.31c-0.28-0.11-0.81-0.43-0.81-0.87
			c0-0.43-0.6-0.65-0.92-0.54c-0.33,0.11-0.11-0.38-0.17-0.81c-0.05-0.44-0.32-0.71-0.7-0.6c-0.38,0.11-1.09,0.6-0.76,0.97
			c0.32,0.38,0.92,0.44,0.81,0.6c-0.11,0.16-0.81,0.71-0.76,1.3c0.05,0.6-0.38,1.14-0.22,1.57c0.17,0.44,0.22,1.08-0.05,1.36
			c-0.27,0.27-0.7,0.76-0.48,1.35c0.28,0.76,1.57,0.76,2.22,0.6c0.65-0.16,1.14-0.16,1.25-0.54c0.11-0.38-0.38-0.75-0.16-1.08
			c0.22-0.32,0.65-0.54,0.81-1.08c0.16-0.54-0.22-1.19,0-1.47C175.64,96.8,175.64,96.42,175.38,96.31z M174.29,55.08
			c0.25-0.24,0.07-1.38-0.32-0.99c-0.39,0.39-0.92,1.28-1.36,1.28c-0.43,0-1.03,1.28-1.03,2.02c0,0.64,0.99,0.37,1.36,0
			c0.36-0.36,0.76-0.67,0.76-0.94c0-0.27-1.09,0.05-0.76-0.27C173.26,55.84,174.05,55.33,174.29,55.08z M172.02,88.02
			c0.53,0,1.78-0.44,1.78-0.44s-0.28-1.24-0.28-1.84c0-0.59-0.16-1.14-0.97-1.14h-1.73c-0.48,0-0.84,1.27-0.32,1.79
			C171.01,86.92,171.49,88.02,172.02,88.02z M170.87,67.33c0.44-0.38,0.17-0.81,0.33-1.19c0.16-0.38-0.16-0.6-0.54-0.32
			c-0.38,0.27-0.54,0.65-0.87,0.7c-0.32,0.05-0.71,0.71-0.48,1.03c0.22,0.32,0.38,0.43,0.7,0.59
			C170.27,68.27,170.44,67.71,170.87,67.33z M168.92,89.49c0.33-0.87-0.32-2.33-0.32-2.33c-0.22,0.11-0.11,0.92-0.16,1.63
			c-0.05,0.71-0.98,2.27-1.36,2.82s-0.22,0.87-0.11,1.36c0.11,0.48-0.22,1.51-0.49,1.95c-0.27,0.43,0.28,1.08-0.11,1.46
			c-0.38,0.38-0.48,2.44-0.59,3.09c-0.11,0.65-1.03,1.84-1.47,2.65c-0.44,0.81-0.27,1.57,0.87,2.06c1.14,0.49,1.24-0.81,1.47-1.51
			c0.22-0.71,0.87-0.81,1.57-1.47c0.71-0.65,0.33-1.57,0.17-2.33c-0.17-0.76,1.08-1.95,1.24-2.65c0.16-0.71-1.41-2.65-1.73-3.25
			C167.57,92.36,168.6,90.36,168.92,89.49z M167.08,56.17c0,0.38,0.44,1.16,0.97,1.16c0.54,0,0.67-0.26,0.92,0
			c0.26,0.26-0.27-0.57,0-0.84C169.25,56.22,167.08,56.17,167.08,56.17z M163.83,55.3c0.14,0.14,0.19,0.03,0.18-0.17
			c-0.48-0.05-0.97-0.15-1.47-0.25C163.08,55.34,163.44,54.91,163.83,55.3z M160.72,67.81c0.55,0.97,2.37-0.15,3.16-0.47
			c0.79-0.32-0.47-1.9-1.58-1.9C161.19,65.44,160.09,66.71,160.72,67.81z M162.48,59.1c0.44-0.44,0.38-1.09,0-1.09
			c-0.38,0-0.81-0.38-0.81-0.68c0-0.63-0.16,0.84-0.44,1.11c-0.27,0.27-0.38,0.28,0,0.66C161.61,59.48,162.04,59.53,162.48,59.1z
			 M157.96,53.72c-0.42-0.11-0.84-0.22-1.26-0.32c-0.03-0.01-0.14-0.03-0.22-0.05c-0.01-0.01-0.03-0.01-0.03-0.01
			c-0.01-0.01-0.01-0.01-0.02,0c-0.01-0.01-0.02-0.01-0.02-0.01c-0.11-0.01-0.22-0.02-0.34-0.05c-1.16-0.27-2.18-1.17-3.39-1.19
			c-0.07,0-0.13,0-0.19,0.01c-0.01,0.13-0.04,0.28-0.05,0.36c-0.06,0.36-0.18,0.73-0.35,1.04c-0.05,0.09-0.24,0.3-0.25,0.39
			c-0.01,0.19-0.09,0.09,0.22,0.19c0.13,0.05,0.18,0.14,0.17,0.28c-0.09,0.75-0.26,1.5-0.49,2.22c-0.05,0.17-0.11,0.35-0.18,0.52
			c-0.44,1.16-1.13,2.22-1.52,3.34c0.51-0.12,1.03-0.14,1.36,0.12c0.63,0.61,1.22,1.25,1.67,1.95c0.5,0.73,0.66,1.59,1.08,2.33
			c0.81,1.6,1.83,3.06,3.11,4.38c0.93,0.96,2.18,1.83,3.58,2.08c2.04,0.65,3.88,1.69,5.83,2.69c-1.24-1.26-2.63-2.35-4.21-3.22
			c-0.74-0.46-1.61-0.67-2.39-1.03c-0.66-0.34-1.29-0.88-1.87-1.47c-1.17-1.18-2.2-2.55-3.16-3.95c-0.79-1.51-1.79-2.86-3.31-3.61
			c0.76,0.11,1.7-1.03,1.82-1.53c0.15-0.58,1.23-1.73,2.17-1.3c0.94,0.43,2.89,0.79,3.76,0.29c0.87-0.5,0.22-2.31,0.65-2.39
			c0.43-0.07,0.79,0.07,0.72-0.36c-0.07-0.43-0.72-0.79-0.94-1.22c-0.24-0.06-0.48-0.12-0.73-0.19
			C158.77,53.94,158.36,53.83,157.96,53.72z M151.96,52.22c-0.07,0.02-0.12,0.05-0.15,0.08C151.83,52.29,151.87,52.26,151.96,52.22z
			 M192.71,79.03c0.03-0.17,0.05-0.32,0.05-0.43c0-0.76-4.93,1.36-4.93,1.36s0.05,0.22,0.1,0.54c0.14,0.79,0.32,2.17-0.1,2.17
			c-0.6,0,1.16,2.74,1.68,3.25c0.51,0.51,0.05,2.11,0.76,2.11c0.7,0,1.79-0.87,2.16-2.6c0.38-1.73,0.49-3.09,0-3.58
			C192.02,81.43,192.55,79.94,192.71,79.03z M178.44,87.59c-1.16,0-3.18,2.49-3.18,3.47s-0.97,2.17,0,3.15
			c0.98,0.97,3.36,1.19,4.56,0c1.19-1.19,2.1-3.25,2.1-4.66C181.92,88.13,179.6,87.59,178.44,87.59z M183.61,93.71
			c-0.81,0-1.95,0.38-2.76,2.72c-0.81,2.33-0.87,4.39,0,4.39c0.92,0,2.49-1.96,2.49-2.55c0-0.6,1.3-1.36,1.3-2.12
			C184.64,95.39,184.42,93.71,183.61,93.71z M187.84,95.07c0,0,0.16-1.36-0.38-1.36c-0.54,0-1.57,1.3-2.16,2.33
			c-0.6,1.03-1.47,3.25-1.47,4.07c0,0.54,1.16-0.25,1.41,0c0.24,0.24,0.62-1.12,1.14-1.63c0.52-0.52,0.58-0.61,1.19-1.22
			c0.61-0.6,0.62-1.67,0.83-2.24C188.5,94.72,187.84,95.07,187.84,95.07z M173.53,85.75c0-0.59-0.16-1.14-0.97-1.14h-1.73
			c-0.48,0-0.84,1.27-0.32,1.79c0.52,0.52,0.99,1.63,1.53,1.63c0.53,0,1.78-0.44,1.78-0.44S173.53,86.34,173.53,85.75z
			 M184.21,80.33c0.27-0.27-2.02,0.05-2.28,0.33c-0.27,0.27-0.54,1.03-1.02,1.03c-0.49,0-1.2,0.7-1.2,1.08
			c0,0.38,0.28,0.92,0.81,0.92c0.38,0,0.08,0.35,0.38,0.65c0.3,0.3,0.86-0.17,1.02,0c0.17,0.16,1.25-0.38,1.25-0.97
			c0-0.6,0.71-1.09,1.03-1.41C184.53,81.63,183.93,80.6,184.21,80.33z M162.48,58.01c-0.38,0-0.81-0.38-0.81-0.68
			c0-0.63-0.16,0.84-0.44,1.11c-0.27,0.27-0.38,0.28,0,0.66c0.38,0.38,0.81,0.43,1.25,0C162.92,58.66,162.86,58.01,162.48,58.01z
			 M162.55,54.88c0.53,0.46,0.89,0.03,1.28,0.42c0.14,0.14,0.19,0.03,0.18-0.17C163.53,55.07,163.04,54.98,162.55,54.88z
			 M168.98,56.49c0.28-0.27-1.9-0.32-1.9-0.32c0,0.38,0.44,1.16,0.97,1.16c0.54,0,0.67-0.26,0.92,0
			C169.23,57.59,168.71,56.76,168.98,56.49z M174.29,55.08c0.25-0.24,0.07-1.38-0.32-0.99c-0.39,0.39-0.92,1.28-1.36,1.28
			c-0.43,0-1.03,1.28-1.03,2.02c0,0.64,0.99,0.37,1.36,0c0.36-0.36,0.76-0.67,0.76-0.94c0-0.27-1.09,0.05-0.76-0.27
			C173.26,55.84,174.05,55.33,174.29,55.08z M196.11,79.3c-0.13,0.62-0.13,1.3,0.01,1.68c0.28,0.71,0.33,1.68-0.11,3.2
			c-0.24,0.83,0.13,1.85,0.5,2.54C196.73,84.23,196.53,81.75,196.11,79.3z M195.15,92.14c-0.16,0.65-1.19,1.03-1.79,1.3
			c-0.6,0.27-0.6,1.47-0.32,1.84c0.27,0.38,0.16,1.03,0.05,2.39c-0.07,0.91,0.3,1.3,0.59,1.29c0.56-1.67,1.1-3.34,1.56-5.04
			c0.36-1.3,0.63-2.63,0.85-3.97C195.57,90.46,195.28,91.63,195.15,92.14z M197.61,139.81c0.27-0.49,0.58-2.99-0.6-2.76
			c-1.14,0.22-1.67,1.24-2.06,1.9c-0.38,0.65,0.71,1.35,0.11,2.27c-0.59,0.92-1.3,0.65-1.84,0.65c-0.54,0-0.92,1.14-0.71,1.57
			c0.22,0.43-0.11,1.14-0.59,2.16c-0.49,1.03-0.17,2.77,0.11,3.31c0.27,0.54,1.19-0.27,0.97,0.22c-0.22,0.49-0.44,2.06,0.05,2.33
			c0.48,0.27,0.65,1.25,0.65,1.25c0.27-0.65,1.03-1.79,2-2.39c0.97-0.6,0.76-1.52,0.87-2.12c0.11-0.59-0.05-1.4,0.43-1.73
			c0.49-0.32,0.44-2.65,0.33-3.03c-0.11-0.38-0.11-0.97,0.43-1.73C198.31,140.95,197.34,140.3,197.61,139.81z M169.17,156.12
			c0.04-0.7,0.62-1.51,0.57-2.02c-0.05-0.6-0.6-1.3-0.54-2.28c0.05-0.97-0.97-1.51-1.84-1.08c-0.65,0.33-0.27,1.14-0.76,1.63
			c-0.48,0.49-0.05,1.3,0.49,1.47c0.54,0.16,0.43,1.57,0.92,1.79c0.15,0.07,0.34,0.24,0.52,0.43c0.42,0.44,0.83,0.97,0.67,0.44
			C169.17,156.37,169.16,156.24,169.17,156.12z M183.9,139.62c-0.22-0.44-0.16-2-0.16-2.87c0-0.87-1.44-1.79-2.22-1.79
			c-0.6,0-1.03,0.7-1.14,1.46c-0.11,0.76,0.65,0.76,0.43,1.25c-0.22,0.48-0.48,1.3-0.16,1.35c0.32,0.05,0.22,0.76,0.44,1.36
			c0.22,0.6,0.59,0.27,1.03,0.43c0.43,0.17-0.16,0.92,0.48,1.2c0.65,0.27,1.3-0.76,1.73-1.09
			C184.77,140.59,184.12,140.05,183.9,139.62z M175.43,97.07c0.22-0.27,0.22-0.65-0.05-0.76c-0.28-0.11-0.81-0.43-0.81-0.87
			c0-0.43-0.6-0.65-0.92-0.54c-0.33,0.11-0.11-0.38-0.17-0.81c-0.05-0.44-0.32-0.71-0.7-0.6c-0.38,0.11-1.09,0.6-0.76,0.97
			c0.32,0.38,0.92,0.44,0.81,0.6c-0.11,0.16-0.81,0.71-0.76,1.3c0.05,0.6-0.38,1.14-0.22,1.57c0.17,0.44,0.22,1.08-0.05,1.36
			c-0.27,0.27-0.7,0.76-0.48,1.35c0.28,0.76,1.57,0.76,2.22,0.6c0.65-0.16,1.14-0.16,1.25-0.54c0.11-0.38-0.38-0.75-0.16-1.08
			c0.22-0.32,0.65-0.54,0.81-1.08C175.59,97.99,175.21,97.35,175.43,97.07z M177.25,141.71c0.05-0.26-0.2-1.19-0.29-1.51
			c0.06,0.36-0.19,1.08-0.19,1.08c-0.28,0.05-1.03-0.33-1.57-0.16c-0.54,0.16,0,1.51-0.38,1.79c-0.38,0.27-0.65,1.14-0.65,1.62
			c0,0.49-0.81,1.79-1.14,2.39c-0.32,0.6-0.54,1.25-0.27,1.52c0.27,0.27-0.11,1.47,0.11,1.24c0.22-0.22,1.03-1.57,1.03-1.57
			l0.22,1.03c0,0,0.65-0.44,1.14-0.76c0.48-0.32,1.19-1.9,1.57-2.22c0.31-0.26,0.4-1.15,0.42-1.37c-0.06,0.18-0.54,0.53-0.59,0.18
			c-0.05-0.38,0.28-1.84,0.6-2.28C177.58,142.26,177.2,142.04,177.25,141.71z M187.88,142.52c-0.38,0.27-0.54,0.65-0.87,0.71
			c-0.32,0.05-0.71,0.71-0.48,1.03c0.22,0.32,0.38,0.43,0.7,0.6c0.26,0.13,0.44-0.44,0.87-0.81c0.44-0.38,0.17-0.81,0.33-1.2
			C188.58,142.47,188.26,142.25,187.88,142.52z M170.66,65.81c-0.38,0.27-0.54,0.65-0.87,0.7c-0.32,0.05-0.71,0.71-0.48,1.03
			c0.22,0.32,0.38,0.43,0.7,0.59c0.26,0.13,0.44-0.43,0.87-0.81c0.44-0.38,0.17-0.81,0.33-1.19
			C171.36,65.75,171.04,65.54,170.66,65.81z M188.94,101.36c0,0-0.22,1.2-0.7,1.57c-0.49,0.38-0.98,0.81-0.81,1.2
			c0.11,0.27-0.13,0.63-0.24,0.95c-0.04,0.13-0.06,0.24-0.03,0.35c0.11,0.38,0.54,1.3,0.54,1.68s0.48-0.6,0.87-0.54
			c0.38,0.05,0.65-0.38,0.87-0.81c0.09-0.19,0.09-0.44,0.08-0.67c-0.01-0.3-0.04-0.58,0.08-0.73
			C189.8,104.07,189.54,102.12,188.94,101.36z M179.77,144.95c0,0-0.44,0.76-0.71,0.65c-0.27-0.11-0.32,0.65-0.27,1.08
			c0.05,0.44,0.27,1.73,0.38,1.9c0,0,1.52-2.17,1.47-3.41C180.64,145.17,180.09,145.61,179.77,144.95z M167.9,92.96
			c-0.32-0.6,0.71-2.6,1.03-3.47c0.33-0.87-0.32-2.33-0.32-2.33c-0.22,0.11-0.11,0.92-0.16,1.63c-0.05,0.71-0.98,2.27-1.36,2.82
			s-0.22,0.87-0.11,1.36c0.11,0.48-0.22,1.51-0.49,1.95c-0.27,0.43,0.28,1.08-0.11,1.46c-0.38,0.38-0.48,2.44-0.59,3.09
			c-0.11,0.65-1.03,1.84-1.47,2.65c-0.44,0.81-0.27,1.57,0.87,2.06c1.14,0.49,1.24-0.81,1.47-1.51c0.22-0.71,0.87-0.81,1.57-1.47
			c0.71-0.65,0.33-1.57,0.17-2.33c-0.17-0.76,1.08-1.95,1.24-2.65C169.79,95.5,168.22,93.55,167.9,92.96z M175.54,134.33
			c-0.3-0.26-0.19-0.91-0.33-1.33c-0.03-0.09-0.08-0.18-0.15-0.24c-0.38-0.32-0.32-1.11-1.14-1.4c-0.6-0.22-0.33,0.11-0.98,0.32
			c-0.4,0.13-0.71,0.71-1,1.32c-0.18,0.38-0.34,0.77-0.51,1.06c-0.44,0.76-0.16,1.95,0.22,1.84c0.38-0.11,1.03,0.38,1.9,0.81
			c0.87,0.43,1.73-0.32,2.22-0.65C176.24,135.74,175.92,134.66,175.54,134.33z M167.3,129.85c0,0.54-1.03,2.16-1.41,2.65
			c-0.13,0.16-0.23,0.32-0.31,0.49c-0.17,0.33-0.26,0.67-0.34,1.02c-0.11,0.54-0.71,0.98-0.49,1.47c0.22,0.49-0.32,1.47-0.71,2.06
			c-0.38,0.6-0.32,1.47,0.11,1.52c0.44,0.05,0.65,0.87,0.92,0.38c0.28-0.49,1.3-2.65,1.2-3.04c-0.11-0.38,0.48-2.44,0.87-3.25
			c0.02-0.05,0.04-0.1,0.06-0.15C167.49,132.06,167.3,129.85,167.3,129.85z M162.92,121.08c0.6-0.65,1.36-2.44,1.47-3.09
			c0.11-0.65-0.97-1.03-1.09-1.73c-0.11-0.71-1.57-1.14-2.06-0.22c-0.48,0.92-1.03,2.65-0.97,3.47c0.05,0.81,0.16,1.35-0.32,2
			c-0.49,0.65-1.57,2.17-1.3,2.82c0.27,0.65,0.22,1.47-0.16,2.06c-0.38,0.59-0.54,1.51-0.49,2.76c0.05,1.24-0.75,1.57-0.54,2.16
			c0.15,0.44,0.6,1.13,0.77,1.69c0.07,0.2,0.09,0.39,0.05,0.54c0,0,0.19-0.35,0.56-0.54c0.12-0.06,0.26-0.1,0.41-0.11
			c0.65-0.05,1.73-0.87,1.95-1.57c0.22-0.7,1.03-1.57,1.47-2.38c0.43-0.81,0.92-4.28,0.65-4.93
			C163.02,123.35,162.32,121.72,162.92,121.08z M175.44,65.16c-0.67,0.27-0.93,1.75-1.61,1.75c-0.95,0,0.81,2.14,1.74,1.61
			c0.94-0.54,0.54-1.61,0.81-2.41C176.65,65.3,176.12,64.89,175.44,65.16z M162.3,65.44c-1.11,0-2.21,1.26-1.58,2.37
			c0.55,0.97,2.37-0.15,3.16-0.47C164.67,67.02,163.41,65.44,162.3,65.44z M175.77,73.61c-0.11-0.17-0.11-1.62-0.45-1.12
			c-0.34,0.5-2.29,0-2.96-0.05c-0.67-0.06-1.27,0.79-1.4,1.56c-0.05,0.34,0.56,0.34,0.89,0.28c0.34-0.05,0.22,0.78,0.44,1.23
			c0.23,0.44,1.34,0.22,1.73-0.06c0.39-0.28,1.28,0.4,1.73-0.17C176.22,74.72,175.88,73.78,175.77,73.61z M152.9,130.77
			c-0.87,0.32-2.55-1.08-2.28-0.76c0.27,0.32-0.92,1.19-1.24,1.57c-0.33,0.38-1.63,0.43-1.9,0.81c-0.14,0.19-0.54,0.34-0.8,0.6
			c-0.25,0.24-0.36,0.58,0.04,1.14c0.81,1.14,2.77,1.03,3.85,0.81c0.97-0.19,1.81-1.39,1.89-1.95c0.02-0.07,0.02-0.12,0.01-0.17
			C152.35,132.4,153.41,130.58,152.9,130.77z M150.99,139.22c-0.97,0.38-1.84-0.92-2.65-1.46c-0.32-0.22-0.32-0.6,0.22-0.76
			c0.54-0.16,0.65-1.14,0.65-1.14c-0.76,0.38-1.84-0.28-2.71-0.28c-0.87,0-1.08,0.65-1.57,1.09c-0.48,0.43-0.92,1.08-0.48,1.46
			c0.43,0.38-0.16,1.41,0.11,1.63c0.27,0.22,0.71-0.38,1.19-0.43c0.49-0.06,0.81,0.59,0.44,0.97c-0.38,0.38-0.87,1.4-0.27,2
			c0.59,0.6,1.35,0.38,1.84,0.32c0.48-0.05,0.81,0.81,1.57,0.97c0.76,0.17,1.52-0.59,1.63-1.08c0.11-0.48,1.09-1.46,1.3-2
			C152.46,139.98,151.97,138.84,150.99,139.22z M152.9,139.98c0.04,0,0.09-0.03,0.13-0.09C152.9,139.94,152.83,139.98,152.9,139.98z
			 M157.93,142.91c0.49-0.54,1.52-1.63,1.14-2.17c-0.38-0.54-1.09-1.68-0.81-2c0.27-0.33,0.81-1.36,0.27-1.52
			c-0.54-0.16-1.08-1.03-0.87-1.35c0.22-0.33,0.54-1.57,0-1.73c-0.54-0.17-1.63,1.14-2.06,1.24c-0.44,0.11-0.33-0.6-0.33-0.6
			s-0.38,1.25-0.81,1.52c-0.43,0.27-1.9,1.08-1.9,1.47c0,0.38-0.22,0.97-0.22,0.97s0.87-0.44,0.97-0.05
			c0.09,0.31-0.11,0.97-0.3,1.21c0.29-0.1,0.89-0.22,1,0.03c0.16,0.38-0.27,2.49,0,2.87c0.27,0.38,0.6,1.63,0.22,2.06
			c-0.38,0.43-0.65,1.57-0.27,1.9c0.38,0.32,0.92,0.16,1.03,0.87s-0.11,2.33,0.71,2.6c0.81,0.27,1.08-0.27,1.52,0
			c0.43,0.27,0.7-0.87,0.32-1.24c-0.38-0.38,0.48-0.81,0.71-0.98c0.21-0.16-0.71-1.3-0.87-2S157.45,143.45,157.93,142.91z
			 M164.54,141.23c0,0-1.47,0.71-1.9,0.22c-0.44-0.49-0.75-0.91-0.55-1.35c-0.08,0.07-0.72,0.65-1.02,0.7
			c-0.32,0.05-0.81-0.38-0.92-0.11c-0.11,0.27-0.49,0.54-0.11,0.76c0,0-1.57,1.24-1.63,2c-0.05,0.76-0.76,1.08-0.54,1.79
			c0.22,0.71,0.44,1.96,0.92,2.28c0.49,0.32,0.54,1.35,0.44,1.63c-0.11,0.27-0.54,1.46-0.28,2c0.28,0.54,0.6,2.11,1.36,2.33
			c0.76,0.22,1.57,0.7,1.63,1.14c0.02,0.16,0.14,0.32,0.31,0.44c0.26,0.2,0.65,0.31,0.88,0.21c0.01-0.01,0.02-0.01,0.03-0.03
			c0.33-0.19,0.07-1.14,0.07-1.65c0-0.54,0.22-2.28-0.27-2.65c-0.48-0.38-1.3-0.22-1.63-1.14c-0.32-0.92-0.11-1.73,0.33-1.9
			c0.43-0.16,1.9-0.59,2-1.14C163.78,146.21,164.65,141.99,164.54,141.23z M186.86,148.64c0-0.49,0.22-1.3-0.05-1.41
			c-0.27-0.11-0.7,0.32-0.92,0.32c-0.22,0-0.48-0.59-0.48-0.76c0-0.16-0.22,0.71-0.54,0.76c-0.32,0.05-0.81,0.87-1.03,0.81
			c-0.22-0.05-0.97,0.49-0.76,0.81c0.22,0.33,0.32,1.25,0.11,1.57c-0.22,0.32-0.81,0.6-0.59,1.14c0.14,0.36,0.7,0.76,0.7,1.03
			c0,0.28,0.33,0.54,0.54,0.6c0.22,0.05,0.92-0.22,1.19,0c0.28,0.22,1.14,0.22,1.3-0.27c0.16-0.49,0.27-1.25,0.48-1.36
			c0.22-0.11,0.65-1.03,0.65-1.46C187.46,149.99,186.86,149.12,186.86,148.64z M151.81,52.3c0.02-0.01,0.07-0.03,0.15-0.08
			C151.89,52.24,151.83,52.27,151.81,52.3z M160.84,55.45c-0.07-0.43-0.72-0.79-0.94-1.22c-0.24-0.06-0.48-0.12-0.73-0.19
			c-0.4-0.1-0.81-0.21-1.22-0.32c-0.42-0.11-0.84-0.22-1.26-0.32c-0.03-0.01-0.14-0.03-0.22-0.05c-0.01-0.01-0.03-0.01-0.03-0.01
			c-0.01-0.01-0.01-0.01-0.02,0c-0.01-0.01-0.02-0.01-0.02-0.01c-0.11-0.01-0.22-0.02-0.34-0.05c-1.16-0.27-2.18-1.17-3.39-1.19
			c-0.07,0-0.13,0-0.19,0.01c-0.01,0.13-0.04,0.28-0.05,0.36c-0.06,0.36-0.18,0.73-0.35,1.04c-0.05,0.09-0.24,0.3-0.25,0.39
			c-0.01,0.19-0.09,0.09,0.22,0.19c0.13,0.05,0.18,0.14,0.17,0.28c-0.09,0.75-0.26,1.5-0.49,2.22c-0.05,0.17-0.11,0.35-0.18,0.52
			c-0.44,1.16-1.13,2.22-1.52,3.34c0.51-0.12,1.03-0.14,1.36,0.12c0.11,0.09,0.22,0.13,0.34,0.15c0,0,0,0,0.01,0
			c0.76,0.11,1.7-1.03,1.82-1.53c0.15-0.58,1.23-1.73,2.17-1.3c0.94,0.43,2.89,0.79,3.76,0.29c0.87-0.5,0.22-2.31,0.65-2.39
			C160.55,55.74,160.91,55.89,160.84,55.45z M180.36,55.23c-0.15-0.94-1-1.55-1.71-1.89c-0.46,0-0.92,0.01-1.38,0.02
			c0.01,0.18-0.01,0.39-0.21,0.59c-0.47,0.47-0.65,0.62-1.84,0.99c-1.19,0.38-1.3,2.12-1.3,2.71c0,0.6,1.46,0.54,2,1.08
			c0.54,0.54,1.07,1.26,1.47,1.66c0.39,0.39,1,0.05,1.4-0.36c0.41-0.41,0.76-0.32,1.3,0.22c0.54,0.54,1.03-0.65,1.03-1.3
			C181.12,58.31,180.63,56.9,180.36,55.23z M203.76,73.33C203.63,73.43,203.7,73.47,203.76,73.33L203.76,73.33z M203.13,69.57
			c-1.32-2.24-2.9-4.39-4.6-6.36c-0.81-0.93-1.66-1.81-2.66-2.54c-0.75-0.54-1.6-0.97-2.31-1.56s-1.33-1.24-2.02-1.83
			c-0.07,0.06-0.14,0.13-0.22,0.2c-1.01,1.01,1.12,3.51,0.51,4.12c-0.62,0.61-4.91,4.99-5.28,6.21c-0.36,1.23-3.9,3.54-4.55,6.79
			c-0.65,3.25,1.3,4.62,2.14,4.62c0.85,0,0.75,1.3,3.41,1.3c0.11,0,0.24-0.01,0.37-0.03c1.22-0.11,3.06-0.76,4.78-1.47
			c1.16-0.48,2.26-0.98,3.1-1.37c0.03-0.54,0.75-0.98,1.14-1.23c0.75-0.48,1.5-0.94,2.26-1.4c1.03-0.61,2.16-1.39,3.38-1.53
			c0.18-0.02,0.57-0.05,0.95-0.15c0.05-0.01,0.14-0.05,0.23-0.07c0-0.01,0.01-0.01,0.01-0.02c0.03-0.15,0.13-0.32,0.19-0.48
			C204.33,71.63,203.7,70.53,203.13,69.57z M162.45,70.8c-0.74-0.46-1.61-0.67-2.39-1.03c-0.66-0.34-1.29-0.88-1.87-1.47
			c-1.17-1.18-2.2-2.55-3.16-3.95c-0.79-1.51-1.79-2.86-3.31-3.61c-0.01,0-0.01,0-0.01,0c-0.11-0.05-0.22-0.11-0.34-0.15
			c0.63,0.61,1.22,1.25,1.67,1.95c0.5,0.73,0.66,1.59,1.08,2.33c0.81,1.6,1.83,3.06,3.11,4.38c0.93,0.96,2.18,1.83,3.58,2.08
			c2.04,0.65,3.88,1.69,5.83,2.69C165.42,72.76,164.02,71.67,162.45,70.8z"/>
		<path class="st64" d="M159.17,54.04c-0.33-1.01-1.41-1.57-1.63-1.68c-0.03-0.01-0.04-0.01-0.04-0.01c-0.54,0-2.6-1.24-3.74-1.24
			c-1.14,0-2.76,0.59-2.76,1.51c0,0.93-0.34,1.52-0.58,1.76c-0.25,0.24,0.03,0.7,0.32,0.7l-0.01,0.03l-0.34,1.69h0.01
			c0.31,0,0.8-0.07,1.32-0.19c1.18-0.28,2.48-0.81,1.97-1.32c-0.74-0.75-0.79-1.96-0.03-2.2c0.75-0.26,1.33,0.36,1.33,0.87
			c0,0.5-0.69,0.83-0.69,1.19c0,0.36,0.58,0.79,1.77,0.97c1.19,0.18,1.82-0.95,2.09-1.23c0.28-0.27,0.94,0.56,0.94,0.56
			C159.31,54.9,159.3,54.44,159.17,54.04z M180.55,58.33c-0.39-0.39-1.54-2.9-2.33-2.9c-0.79,0-1.34,0.96-1.73,1.35
			c-0.4,0.4-0.45,0.91-0.13,1.22c0,0,2.03,0.59,2.76,0.87C179.85,59.15,180.95,58.72,180.55,58.33z M106.38,105.07
			c1.47,10.19,5.16,19.66,10.57,27.92h116.1c5.41-8.26,9.11-17.74,10.57-27.92H106.38z M225.97,114.82c0.3-0.85,1.04-1.38,1.67-1.16
			c0.62,0.22,0.89,1.08,0.59,1.94c-0.3,0.85-1.05,1.37-1.67,1.16C225.93,116.55,225.67,115.68,225.97,114.82z M222.76,113.66
			c0.62-0.22,1.37,0.3,1.67,1.16c0.3,0.86,0.03,1.73-0.59,1.94c-0.62,0.22-1.37-0.3-1.67-1.16
			C221.87,114.74,222.13,113.88,222.76,113.66z M124.54,114.82c0.3-0.85,1.04-1.38,1.67-1.16c0.63,0.22,0.89,1.08,0.59,1.94
			c-0.3,0.85-1.04,1.37-1.67,1.16C124.5,116.55,124.24,115.68,124.54,114.82z M121.33,113.66c0.63-0.22,1.37,0.3,1.67,1.16
			c0.3,0.86,0.03,1.73-0.59,1.94c-0.62,0.22-1.37-0.3-1.67-1.16C120.44,114.74,120.7,113.88,121.33,113.66z M118.83,117.78
			c-0.4-0.6-0.36-1.33,0.08-1.62c0.44-0.29,1.12-0.03,1.52,0.58c0.4,0.6,0.36,1.33-0.08,1.62
			C119.91,118.65,119.23,118.39,118.83,117.78z M123.78,124.46c-2.15,0-3.9-0.99-3.9-2.8c0-1.81,1.75-4.27,3.9-4.27
			s3.89,2.47,3.89,4.27C127.67,123.47,125.93,124.46,123.78,124.46z M128.7,117.78c-0.4,0.6-1.08,0.87-1.52,0.58
			c-0.44-0.29-0.48-1.01-0.08-1.62c0.4-0.61,1.08-0.87,1.52-0.58C129.07,116.45,129.1,117.18,128.7,117.78z M220.26,117.78
			c-0.4-0.6-0.36-1.33,0.09-1.62c0.44-0.29,1.12-0.03,1.52,0.58c0.4,0.6,0.36,1.33-0.09,1.62
			C221.34,118.65,220.65,118.39,220.26,117.78z M225.2,124.46c-2.15,0-3.89-0.99-3.89-2.8c0-1.81,1.74-4.27,3.89-4.27
			c2.15,0,3.9,2.47,3.9,4.27C229.1,123.47,227.35,124.46,225.2,124.46z M230.13,117.78c-0.4,0.6-1.08,0.87-1.52,0.58
			c-0.44-0.29-0.48-1.01-0.09-1.62c0.4-0.61,1.08-0.87,1.52-0.58C230.49,116.45,230.53,117.18,230.13,117.78z"/>
	</g>
</g>
</svg>
