<?xml version="1.0" encoding="utf-8"?>
<!-- Generator: Adobe Illustrator 27.8.1, SVG Export Plug-In . SVG Version: 6.00 Build 0)  -->
<svg version="1.1" xmlns="http://www.w3.org/2000/svg" xmlns:xlink="http://www.w3.org/1999/xlink" x="0px" y="0px"
	 viewBox="0 0 350 230" style="enable-background:new 0 0 350 230;" xml:space="preserve">
<style type="text/css">
	.st0{fill:#000B23;}
	.st1{fill:#E6FFB0;}
	.st2{fill:#F7FFE1;}
	.st3{fill:#FFD8AE;}
	.st4{fill:#FEFFE1;}
	.st5{fill:#F9D6BB;}
	.st6{fill:#F3FFF4;}
	.st7{fill:#FFF7F0;}
	.st8{fill:#211202;}
	.st9{fill:#FDFFB0;}
	.st10{fill:#FDFFF3;}
	.st11{fill:#94D3EC;}
	.st12{fill-rule:evenodd;clip-rule:evenodd;fill:#1F3A6E;}
	.st13{fill:#E73F2D;}
	.st14{fill:#253E92;}
	.st15{fill:#EF3E25;}
	.st16{fill:#45BA8B;}
	.st17{fill:none;}
	.st18{fill:#F5B92B;}
	.st19{fill:#0391B3;}
	.st20{fill:#116380;}
	.st21{fill:#939598;}
	.st22{fill:#36004C;}
	.st23{fill:#F2B21C;}
	.st24{fill:#E6E6E6;}
	.st25{fill:#33BFC7;}
	.st26{fill:#463895;}
	.st27{fill:#470000;}
	.st28{fill:#FFFFFF;}
	.st29{fill:#ED1C24;}
	.st30{fill:#373D01;}
	.st31{fill:#6D2700;}
	.st32{fill:#C94502;}
	.st33{fill:#4FAF76;}
	.st34{fill:#231F20;}
	.st35{fill:#0049FF;}
	.st36{fill:#9A5E26;}
	.st37{fill:#003321;}
	.st38{fill:#331F00;}
	.st39{fill:#060033;}
	.st40{fill:#D3FF99;}
	.st41{fill:#F0FF99;}
	.st42{fill:#99F1FF;}
	.st43{fill:#99FFC2;}
	.st44{fill:#FFBD99;}
	.st45{fill:#FF99B6;}
	.st46{fill:url(#SVGID_1_);}
	.st47{fill:url(#SVGID_00000088838460303931850200000009943882516202180022_);}
	.st48{fill:url(#SVGID_00000109003282457332373770000018224211511455913888_);}
	.st49{fill:url(#SVGID_00000116233158389331170220000016065860516969599638_);}
	.st50{fill:url(#SVGID_00000088853806630377837890000015132825412301252485_);}
	.st51{fill:url(#SVGID_00000080907677840262447740000002901500903923821987_);}
	.st52{fill:url(#SVGID_00000073697736319469259400000000028252865917940608_);}
	.st53{fill:url(#SVGID_00000141442728656306505380000000477133701286797959_);}
	.st54{fill:url(#SVGID_00000106837966075823928620000015227636981158396837_);}
	.st55{fill:url(#SVGID_00000120519519613711125680000010173399315973238958_);}
	.st56{fill:url(#SVGID_00000124138057414623089090000018263342934996555189_);}
	.st57{fill:url(#SVGID_00000177478252208602914500000008849059706432454562_);}
	.st58{fill:url(#SVGID_00000059275967860949728670000012095169830077841592_);}
	.st59{fill:url(#SVGID_00000021804335112993870690000014762497998822576275_);}
	.st60{fill:url(#SVGID_00000152951418995933745620000002899855845291752377_);}
	.st61{fill:#009245;}
	.st62{fill:#A6CE45;}
	.st63{fill:#FEFADF;}
	.st64{fill:#2AA3AE;}
	.st65{fill:#00527A;}
	.st66{fill-rule:evenodd;clip-rule:evenodd;fill:#D73C2C;}
	.st67{fill-rule:evenodd;clip-rule:evenodd;fill:#F75C4C;}
	.st68{fill:#FDD100;}
	.st69{fill:#724033;}
	.st70{fill-rule:evenodd;clip-rule:evenodd;fill:#FDD100;}
	.st71{fill:url(#SVGID_00000084506694309303110350000010263371249309872801_);}
	.st72{fill:url(#SVGID_00000099622512402570306610000006323235497127197606_);}
	.st73{fill:url(#SVGID_00000134936354231329781110000007108250860119000211_);}
	.st74{fill:#7F3F05;}
	.st75{fill:#86A018;}
	.st76{fill:#FF993B;}
	.st77{fill:#145B9C;}
	.st78{fill-rule:evenodd;clip-rule:evenodd;fill:#A6CE45;}
	.st79{fill-rule:evenodd;clip-rule:evenodd;fill:#4A4A4D;}
	.st80{filter:url(#Adobe_OpacityMaskFilter);}
	.st81{fill:#F5FBFD;}
	.st82{fill:#F7FBFF;}
	.st83{fill:#F4F5F6;}
	.st84{fill:#F4F5F5;}
	.st85{fill:#F3F4F5;}
	.st86{fill:#F1F3F3;}
	.st87{fill:#F3F2F2;}
	.st88{fill:#F0EEED;}
	.st89{fill:#F1F1F1;}
	.st90{fill:#E8E6E8;}
	.st91{fill:#E7E5E4;}
	.st92{fill:#E8E7E6;}
	.st93{fill:#EBEAEB;}
	.st94{fill:#E1E1E1;}
	.st95{fill:#E3E2E1;}
	.st96{fill:#DFDFDD;}
	.st97{fill:#D5D4D4;}
	.st98{fill:#E9E9EA;}
	.st99{fill:#D4D2D1;}
	.st100{fill:#DBDBD9;}
	.st101{fill:#AEABAC;}
	.st102{fill:#808080;}
	.st103{fill:#E7E4E3;}
	.st104{fill:#D9D8D7;}
	.st105{fill:#8C8C8C;}
	.st106{fill:#E3E4E2;}
	.st107{fill:#E7E6E6;}
	.st108{fill:#C6C2C1;}
	.st109{fill:#A19F9F;}
	.st110{fill:#B1B4B4;}
	.st111{fill:#B1B1B1;}
	.st112{fill:#C0BFBF;}
	.st113{fill:#E0E0DF;}
	.st114{fill:#BDBABA;}
	.st115{fill:#C7C6C6;}
	.st116{fill:#C9C8C6;}
	.st117{fill:#ABAAA9;}
	.st118{fill:#B8B6B7;}
	.st119{fill:#B2B3B3;}
	.st120{fill:#CECDCB;}
	.st121{fill:#868787;}
	.st122{fill:#838283;}
	.st123{fill:#9F9E9F;}
	.st124{fill:#D5D4D3;}
	.st125{fill:#D4D3D3;}
	.st126{fill:#5A5A5A;}
	.st127{fill:#AAAAA9;}
	.st128{fill:#C2C1C0;}
	.st129{fill:#D8D7D6;}
	.st130{fill:#8A8A8A;}
	.st131{fill:#D2D0CF;}
	.st132{fill:#BFBCBB;}
	.st133{fill:#AEAEAE;}
	.st134{fill:#807F7F;}
	.st135{fill:#C1BFBD;}
	.st136{fill:#DFE0DF;}
	.st137{fill:#C6C4C2;}
	.st138{fill:#D2D2D2;}
	.st139{fill:#D7D7D5;}
	.st140{fill:#A2A0A0;}
	.st141{fill:#C6C5C5;}
	.st142{fill:#989896;}
	.st143{fill:#D1D1D1;}
	.st144{fill:#CDD0CE;}
	.st145{fill:#B5B5B6;}
	.st146{fill:#C6C3C2;}
	.st147{fill:#D8D7D4;}
	.st148{fill:#858485;}
	.st149{fill:#9E9C9E;}
	.st150{fill:#949493;}
	.st151{fill:#CBC8C7;}
	.st152{fill:#B9B9B8;}
	.st153{fill:#C3C1BF;}
	.st154{fill:#DFDFDE;}
	.st155{fill:#B2B2B2;}
	.st156{fill:#626564;}
	.st157{fill:#B8B6B8;}
	.st158{fill:#D4D1D0;}
	.st159{fill:#BCBAB9;}
	.st160{fill:#DBDAD9;}
	.st161{fill:#C0BDBD;}
	.st162{fill:#8E8F8D;}
	.st163{fill:#AEACAC;}
	.st164{fill:#949392;}
	.st165{fill:#949494;}
	.st166{fill:#DDDDDB;}
	.st167{fill:#B8B8B9;}
	.st168{fill:#C9C6C4;}
	.st169{fill:#CECDCC;}
	.st170{fill:#797778;}
	.st171{fill:#5F6060;}
	.st172{fill:#969698;}
	.st173{fill:#888888;}
	.st174{fill:#9A9B9B;}
	.st175{fill:#BBB9B9;}
	.st176{fill:#999999;}
	.st177{fill:#959494;}
	.st178{fill:#B4B4B5;}
	.st179{fill:#909090;}
	.st180{fill:#888787;}
	.st181{fill:#7B7A7A;}
	.st182{fill:#6C6C6D;}
	.st183{fill:#AEACAD;}
	.st184{fill:#9C9C9C;}
	.st185{fill:#636767;}
	.st186{fill:#B2B3B4;}
	.st187{fill:#747475;}
	.st188{fill:#757576;}
	.st189{fill:#99999A;}
	.st190{fill:#848384;}
	.st191{fill:#8D8C8C;}
	.st192{fill:#A7A6A5;}
	.st193{fill:#969595;}
	.st194{fill:#7E7F7F;}
	.st195{fill:#6A6A68;}
	.st196{fill:#A5A3A3;}
	.st197{fill:#7C7B7C;}
	.st198{fill:#545453;}
	.st199{fill:#929191;}
	.st200{fill:#908F8E;}
	.st201{fill:#7B7D7C;}
	.st202{fill:#828283;}
	.st203{fill:#2B2B2B;}
	.st204{fill:#616161;}
	.st205{fill:#6C6C6B;}
	.st206{fill:#696A6A;}
	.st207{fill:#464647;}
	.st208{fill:#5E5F5F;}
	.st209{fill:#898989;}
	.st210{fill:#6C6E6E;}
	.st211{fill:#4D4B4C;}
	.st212{fill:#555655;}
	.st213{fill:#5E5F5E;}
	.st214{fill:#797A7B;}
	.st215{fill:#5C5C5E;}
	.st216{fill:#4D4C4D;}
	.st217{fill:#6F6F6F;}
	.st218{fill:#808081;}
	.st219{fill:#1D1D1D;}
	.st220{fill:#444445;}
	.st221{fill:#626463;}
	.st222{fill:#515352;}
	.st223{fill:#535352;}
	.st224{fill:#353535;}
	.st225{fill:#727373;}
	.st226{fill:#787778;}
	.st227{fill:#747575;}
	.st228{fill:#676768;}
	.st229{fill:#818282;}
	.st230{fill:#555556;}
	.st231{fill:#5F6161;}
	.st232{mask:url(#SVGID_00000111892640218464298190000007736019989584951436_);}
	.st233{fill:#2AC0DB;}
	.st234{fill:#75459A;}
	.st235{fill:#F7D308;}
	.st236{fill:#F4831F;}
	.st237{fill:#E93B7B;}
	.st238{fill:#FFF100;}
	.st239{fill:#E29233;}
	.st240{fill:url(#SVGID_00000166654476931002562810000003715128408609602177_);}
	.st241{fill:#FF0226;}
	.st242{fill:#39B1D1;}
	.st243{fill:#FF7400;}
	.st244{fill:url(#SVGID_00000173851927210857331000000017967330839559604372_);}
	.st245{fill:#F65E41;}
	.st246{fill:#033A4D;}
	.st247{fill:url(#SVGID_00000039841787461095042250000006467029643366823300_);}
	.st248{fill-rule:evenodd;clip-rule:evenodd;fill:#211202;}
	.st249{fill-rule:evenodd;clip-rule:evenodd;fill:url(#SVGID_00000078746321245623319500000004273491591981193864_);}
	.st250{fill-rule:evenodd;clip-rule:evenodd;fill:url(#SVGID_00000145766861660657196780000012509508377944086184_);}
	.st251{fill:url(#SVGID_00000172417098807013009010000000181484252634801824_);}
	.st252{fill:url(#SVGID_00000008146024304940865810000016745158465811190206_);}
	.st253{fill:url(#SVGID_00000006698737313031083860000010706033174110639022_);}
	.st254{fill:#2D1201;}
	.st255{fill:#E67E22;}
	.st256{fill-rule:evenodd;clip-rule:evenodd;fill:#CCCCCC;}
	.st257{fill:#041B49;}
</style>
<g id="Layer_1">
</g>
<g id="Layer_2">
</g>
<g id="Layer_3">
</g>
<g id="Layer_4">
</g>
<g id="Layer_5">
</g>
<g id="Layer_6">
</g>
<g id="Layer_7">
</g>
<g id="Layer_8">
</g>
<g id="Layer_9">
</g>
<g id="Layer_10">
</g>
<g id="Layer_11">
</g>
<g id="Layer_12">
</g>
<g id="Layer_13">
</g>
<g id="Layer_14">
</g>
<g id="Layer_15">
	<radialGradient id="SVGID_1_" cx="175" cy="95.4265" r="68.2131" gradientUnits="userSpaceOnUse">
		<stop  offset="0" style="stop-color:#1C75BC"/>
		<stop  offset="1" style="stop-color:#15B0F8"/>
	</radialGradient>
	<path class="st46" d="M127.43,83.04c-4.04,3.74-6.14,3.42-8.83-1.43c-3.5-6.31-5.97-13.01-7.41-20.07
		c-0.77-3.77,0.39-6.98,3.61-9.16c2-1.35,4.23-2.38,6.71-3.75c-1.12,3.27-2.07,6.05-3.03,8.83c0.18,0.14,0.36,0.27,0.54,0.41
		c3.59-4.3,7.97-7.21,14.08-8.19c-5.49,4.39-8.5,9.65-9.01,16.29c4.82-9.33,11.67-15.88,22.74-16.64c0.02-0.16,0.04-0.32,0.07-0.47
		c-3.16-0.8-6.29-1.8-9.49-2.37c-7.61-1.34-15.08-0.63-22.36,2.02c-1.24,0.45-2.49,0.91-3.38-0.59c-0.73-1.24-0.48-3.19,0.66-4.15
		c0.74-0.63,1.6-1.2,2.49-1.56c13.18-5.3,26.16-4.8,38.85,1.58c2.22,1.12,4.15,2.79,6.31,4.06c0.64,0.38,1.67,0.52,2.38,0.31
		c8.22-2.49,16.41-2.54,24.59,0.08c1.11,0.36,1.7-0.05,2.48-0.61c14.45-10.47,29.9-11.91,46.23-5c0.93,0.39,1.84,1.06,2.47,1.83
		c0.92,1.11,0.72,2.39-0.16,3.54c-0.82,1.08-1.81,1.01-2.96,0.57c-6.2-2.38-12.7-2.67-19.26-2.56c1.72,0.25,3.45,0.46,5.16,0.77
		c5.11,0.91,9.85,2.78,14.16,5.68c3.16,2.12,4.43,5.06,3.72,8.89c-1.09,5.89-3.01,11.47-5.83,16.75c-2.09,3.92-5.24,5.51-9.5,4.32
		c-7.87-2.19-14.85-5.94-19.53-12.92c-2.22-3.32-4.01-6.94-5.87-10.48c-0.69-1.31-0.66-2.93,0.51-3.87c0.78-0.63,2.2-0.89,3.19-0.68
		c0.82,0.18,1.7,1.17,2.11,2.02c4.09,8.39,10.37,14.42,19.09,17.77c4.09,1.57,3.79,0.89,4.41-3.08c-0.43-0.21-0.88-0.44-1.34-0.66
		c-2.71-1.32-4.94-3.16-6.87-5.52c-4.2-5.13-8.64-10.08-12.88-15.19c-1.3-1.57-2.7-1.79-4.29-0.9c-3.38,1.9-6.84,3.73-9.97,6
		c-1.6,1.16-2.59,1.57-4.45,0.59c-4.73-2.51-9.98-3.01-15.24-3.3c-0.56-0.03-1.13,0.11-1.76,0.17c1.56,2.08,3.05,4.07,4.7,6.26
		c-3.66,0.72-6.4,2.39-8.32,5.66c1.67,0.25,3.16,0.42,4.62,0.74c0.51,0.11,1.28,0.55,1.35,0.94c1.28,6.94,2.39,13.88,1.21,20.98
		c-1.41,8.51-7.25,13.01-14.46,16.38c-4.64,2.16-9.39,4.14-13.78,6.72c-6.16,3.62-9.42,9.46-10.91,16.34
		c-0.27,1.27-0.01,2.3,0.83,3.38c7.9,10.2,18.49,15.52,31.05,17.32c6.41,0.92,12.78,0.67,19.08-0.89c0.93-0.23,1.48-0.17,1.85,0.87
		c0.57,1.57,1.33,3.08,2.13,4.91c-20.45,4.87-38.65,1.55-54.19-13.34c-1.42,1.13-2.85,2.28-4.5,3.6c-0.79-1.53-1.56-2.88-2.18-4.29
		c-0.6-1.38-1.04-2.83-1.59-4.36c-0.36,0.04-0.76,0.03-1.13,0.12c-2.28,0.6-2.43,0.64-2.93-1.75c-0.75-3.57-1.27-7.19-1.93-11.07
		c-0.81-0.04-1.99-0.1-3.38-0.16C117.8,107.24,120.98,94.76,127.43,83.04z M156.41,83.99c-3.03-1.44-6.65-0.52-8.91,2.14
		c-2.28,2.68-2.41,6.72-0.32,9.7c2.11,3,5.54,4.12,8.99,2.81c-3.72-1.18-5.41-3.79-5.66-7.44C150.22,87.05,153.01,85.3,156.41,83.99
		z M160.35,88.74c-0.01-1.65-1.28-2.89-2.89-2.83c-1.13,0.04-2.25,1.39-2.25,2.7c0.01,1.18,1.4,2.76,2.47,2.79
		C159.01,91.45,160.36,90.09,160.35,88.74z M212.68,130.17c0.51,1.62,1.82,2.54,3.49,2.35c3.54-0.42,4.94-2.82,4.98-6.36
		c2.26,1.24,3.6,2.74,3.59,5.19c-0.01,5.57-1.09,10.73-5.72,14.77c1.61,0.51,3.05,1.29,4.46,1.26c0.75-0.01,1.45-1.46,2.22-2.22
		c2.51-2.46,7.09-1.65,8.61,1.51c1.14,2.38,0.3,5.82-1.78,7.25c-2.26,1.55-5.21,1.03-7.22-1.24c-0.36-0.41-0.83-0.99-1.28-1.02
		c-1.75-0.12-3.51-0.05-5.35-0.05c1.23,5.23,5.74,8.63,10.76,8.35c6.53-0.36,9.68-4.33,10.52-8.97c1.14-6.29-2.3-10.24-10.76-12.96
		c0.19-0.89,0.42-1.78,0.57-2.69c0.99-6.12-0.88-10.57-5.6-13.14c-1.75-0.95-3.79-1.42-4.8-3.43c-0.16-0.32-0.63-0.5-0.98-0.7
		c-3.62-2.13-7.16-1.57-10.57,0.47c-3.75,2.24-5.41,5.7-5.71,10.08c2.38-0.05,4.42-0.03,5.5-2.7c0.99-2.46,3.06-3.9,5.78-4.24
		c1.17-0.15,2.08,0.08,2.57,1.64C213.11,124.77,211.68,126.97,212.68,130.17z M184.5,127.86c-0.9,7.1-3.87,10.43-9.3,10.6
		c-5.16,0.16-8.49-3.41-9.64-10.36c-4.43-0.58-8.39-4.2-9.06-9.28c-0.15-1.12-0.17-2.14,1.24-2.42c1.27-0.25,2,0.18,2.46,1.52
		c1.55,4.54,4.52,6.24,9.01,5.33c3.02-0.61,5.05-4.28,3.84-7.1c-0.17-0.4-0.88-0.63-1.39-0.83c-2.62-1.04-4.15-2.93-4.49-5.72
		c-0.31-2.57,0.99-4.85,3.41-5.93c3.71-1.67,7.31-1.29,10.6,1c1.79,1.25,2.47,3.28,2.16,5.41c-0.37,2.57-2,4.47-4.4,5.19
		c-1.79,0.53-1.89,1.47-1.75,2.9c0.33,3.31,1.88,5,4.94,5.32c3.65,0.38,6.46-1.31,7.4-4.44c0.73-2.42,1.54-3.15,3.03-2.69
		c1.47,0.46,1.8,2.01,1,4.14C191.97,124.69,188.96,127.12,184.5,127.86z M169.49,128.33c0.21,0.86,0.34,1.91,0.74,2.85
		c1.11,2.62,3.31,3.77,6.01,3.27c2.51-0.46,4.09-2.43,4.14-5.27c0.01-0.4-0.3-0.99-0.64-1.19c-1.64-0.95-3.33-1.8-4.9-2.62
		C173.22,126.26,171.52,127.2,169.49,128.33z M169.48,107.68c2.55-0.77,5.17-1.56,7.57-2.29
		C174.05,103.78,169.44,105.18,169.48,107.68z M107.82,75.66c-4.03,9.98-5.21,20.33-4.16,31.01c1.63,16.63,8.32,30.86,20.12,42.68
		c0.42,0.42,1.04,0.78,1.61,0.87c1.21,0.18,2.38-0.05,2.93-1.34c0.54-1.27,0.4-2.38-0.61-3.51c-7.65-8.47-13.26-18.08-16.07-29.22
		c-2.8-11.09-2.33-22.15,0.2-33.2c0.16-0.69,0.22-1.54-0.03-2.17c-0.9-2.26-1.96-4.47-3.13-7.08
		C108.27,74.63,108.03,75.14,107.82,75.66z M246.7,99.3c-0.05-8.8-1.96-17.19-5.62-25.64c-1.26,2.81-2.36,5.16-3.34,7.57
		c-0.18,0.45,0.09,1.11,0.2,1.66c0.79,4.22,1.98,8.41,2.32,12.66c0.82,10.32-1.24,20.24-4.93,29.87c-0.32,0.84-0.6,1.78-0.56,2.66
		c0.09,1.8,0.36,3.59,0.67,5.36c0.1,0.55,0.57,1.03,1.06,1.87C243.65,124,246.78,112.09,246.7,99.3z M199.32,132.26
		c-3.92,1.35-6.22,4.21-6.92,8.25c-1.65,9.54,8.8,19.44,18.2,17.31c3.81-0.87,6.53-5.16,4.97-8.17c-1.93-3.74-4.88-6.52-8.98-7.81
		c-3.9-1.22-7.17,1.5-6.82,5.6c0.09,1,0.33,1.99,0.49,2.99c-0.15,0.05-0.29,0.1-0.44,0.15c-0.78-1.91-1.71-3.77-2.29-5.74
		c-1.2-4.07,0.16-6.63,4.07-8.38c0.44-0.2,0.79-0.96,0.89-1.51c0.15-0.83,0.04-1.71,0.04-2.96
		C201.34,132.08,200.26,131.94,199.32,132.26z M213.17,82.47c5.85,10.25,9.37,21.23,10.43,33c0.03,0.37,0.36,0.84,0.69,1.03
		c2.18,1.24,4.41,2.42,6.74,3.68c-0.21,0.15-0.14,0.12-0.13,0.09c1.17-11.86-1.22-23.02-6.8-33.51c-0.26-0.5-0.87-0.96-1.41-1.14
		c-3.16-1.06-6.36-2.04-9.52-3.04C213.17,82.37,213.15,82.43,213.17,82.47z M158.72,39.14c0.36,0.21,1,0.11,1.46-0.02
		c9.46-2.6,18.94-2.67,28.44-0.24c0.43,0.11,0.98,0.25,1.34,0.08c2.37-1.13,4.7-2.35,7.04-3.54c-14.81-5.83-29.57-6.16-44.59-0.28
		C154.71,36.62,156.69,37.93,158.72,39.14z M202.92,91.16c-0.11,4.81-3.46,8.12-8.1,8.01c-4.27-0.1-7.62-3.69-7.52-8.05
		c0.11-4.65,3.25-7.82,7.63-7.72C199.46,83.5,203.02,86.95,202.92,91.16z M195.35,88.86c0-1.59-1.37-2.99-2.85-2.93
		c-1.17,0.05-2.2,1.34-2.16,2.72c0.03,1.45,1.11,2.53,2.53,2.55C194.27,91.22,195.35,90.2,195.35,88.86z M207.19,130.26
		c-1.97,0.03-3.89,2.31-3.87,4.61c0.02,2.32,1.8,4.21,3.97,4.21c2.68,0,4.56-1.81,4.56-4.4
		C211.86,131.86,210.13,130.22,207.19,130.26z M217.76,135.19c-2.18,0.01-4.2,2.18-4.19,4.49c0.01,2.38,1.84,4.35,4.06,4.38
		c2.46,0.04,4.24-1.87,4.24-4.54C221.87,136.8,220.33,135.17,217.76,135.19z"/>
</g>
</svg>
