<?xml version="1.0" encoding="utf-8"?>
<!-- Generator: Adobe Illustrator 27.8.1, SVG Export Plug-In . SVG Version: 6.00 Build 0)  -->
<svg version="1.1" xmlns="http://www.w3.org/2000/svg" xmlns:xlink="http://www.w3.org/1999/xlink" x="0px" y="0px"
	 viewBox="0 0 350 230" style="enable-background:new 0 0 350 230;" xml:space="preserve">
<style type="text/css">
	.st0{fill:#000B23;}
	.st1{fill:#E6FFB0;}
	.st2{fill:#F7FFE1;}
	.st3{fill:#FFD8AE;}
	.st4{fill:#FEFFE1;}
	.st5{fill:#F9D6BB;}
	.st6{fill:#F3FFF4;}
	.st7{fill:#FFF7F0;}
	.st8{fill:#211202;}
	.st9{fill:#FDFFB0;}
	.st10{fill:#FDFFF3;}
	.st11{fill:#94D3EC;}
	.st12{fill-rule:evenodd;clip-rule:evenodd;fill:#1F3A6E;}
	.st13{fill:#E73F2D;}
	.st14{fill:#253E92;}
	.st15{fill:#EF3E25;}
	.st16{fill:#45BA8B;}
	.st17{fill:none;}
	.st18{fill:#F5B92B;}
	.st19{fill:#0391B3;}
	.st20{fill:#116380;}
	.st21{fill:#939598;}
	.st22{fill:#36004C;}
	.st23{fill:#F2B21C;}
	.st24{fill:#E6E6E6;}
	.st25{fill:#33BFC7;}
	.st26{fill:#463895;}
	.st27{fill:#470000;}
	.st28{fill:#FFFFFF;}
	.st29{fill:#ED1C24;}
	.st30{fill:#373D01;}
	.st31{fill:#6D2700;}
	.st32{fill:#C94502;}
	.st33{fill:#4FAF76;}
	.st34{fill:#231F20;}
	.st35{fill:#0049FF;}
	.st36{fill:#9A5E26;}
	.st37{fill:#003321;}
	.st38{fill:#331F00;}
	.st39{fill:#060033;}
	.st40{fill:#D3FF99;}
	.st41{fill:#F0FF99;}
	.st42{fill:#99F1FF;}
	.st43{fill:#99FFC2;}
	.st44{fill:#FFBD99;}
	.st45{fill:#FF99B6;}
	.st46{fill:url(#SVGID_1_);}
	.st47{fill:url(#SVGID_00000049184495686930186570000015833218129200671374_);}
	.st48{fill:url(#SVGID_00000058553649418112566670000003191023566225918094_);}
	.st49{fill:url(#SVGID_00000122690150234089200950000008173709426651588542_);}
	.st50{fill:url(#SVGID_00000145748532516632522610000016408529575176965295_);}
	.st51{fill:url(#SVGID_00000069357183663450312850000012397452738908051095_);}
	.st52{fill:url(#SVGID_00000011714564371249073570000001787335955755072437_);}
	.st53{fill:url(#SVGID_00000083771651763124654970000011554371531739291579_);}
	.st54{fill:url(#SVGID_00000095319521071377461450000001134548722667042233_);}
	.st55{fill:url(#SVGID_00000062878994600873982020000004597098838139174840_);}
	.st56{fill:url(#SVGID_00000109710968756578066700000001873351352337481100_);}
	.st57{fill:url(#SVGID_00000177449429729558832640000009342353640734233513_);}
	.st58{fill:url(#SVGID_00000125592328363332959450000005700951558792473527_);}
	.st59{fill:url(#SVGID_00000089535489465001799990000004269979722282794140_);}
	.st60{fill:url(#SVGID_00000009553049213721083190000011459504834763701666_);}
	.st61{fill:#009245;}
	.st62{fill:#A6CE45;}
	.st63{fill:#FEFADF;}
	.st64{fill:#2AA3AE;}
	.st65{fill:#00527A;}
	.st66{fill-rule:evenodd;clip-rule:evenodd;fill:#D73C2C;}
	.st67{fill-rule:evenodd;clip-rule:evenodd;fill:#F75C4C;}
	.st68{fill:#FDD100;}
	.st69{fill:#724033;}
	.st70{fill-rule:evenodd;clip-rule:evenodd;fill:#FDD100;}
	.st71{fill:url(#SVGID_00000111894262821816383520000013623884036902996637_);}
	.st72{fill:url(#SVGID_00000004530457174183910370000014877887740086097310_);}
	.st73{fill:url(#SVGID_00000005952099426796038550000007825925113622268351_);}
	.st74{fill:#7F3F05;}
	.st75{fill:#86A018;}
	.st76{fill:#FF993B;}
	.st77{fill:#145B9C;}
	.st78{fill-rule:evenodd;clip-rule:evenodd;fill:#A6CE45;}
	.st79{fill-rule:evenodd;clip-rule:evenodd;fill:#4A4A4D;}
	.st80{filter:url(#Adobe_OpacityMaskFilter);}
	.st81{fill:#F5FBFD;}
	.st82{fill:#F7FBFF;}
	.st83{fill:#F4F5F6;}
	.st84{fill:#F4F5F5;}
	.st85{fill:#F3F4F5;}
	.st86{fill:#F1F3F3;}
	.st87{fill:#F3F2F2;}
	.st88{fill:#F0EEED;}
	.st89{fill:#F1F1F1;}
	.st90{fill:#E8E6E8;}
	.st91{fill:#E7E5E4;}
	.st92{fill:#E8E7E6;}
	.st93{fill:#EBEAEB;}
	.st94{fill:#E1E1E1;}
	.st95{fill:#E3E2E1;}
	.st96{fill:#DFDFDD;}
	.st97{fill:#D5D4D4;}
	.st98{fill:#E9E9EA;}
	.st99{fill:#D4D2D1;}
	.st100{fill:#DBDBD9;}
	.st101{fill:#AEABAC;}
	.st102{fill:#808080;}
	.st103{fill:#E7E4E3;}
	.st104{fill:#D9D8D7;}
	.st105{fill:#8C8C8C;}
	.st106{fill:#E3E4E2;}
	.st107{fill:#E7E6E6;}
	.st108{fill:#C6C2C1;}
	.st109{fill:#A19F9F;}
	.st110{fill:#B1B4B4;}
	.st111{fill:#B1B1B1;}
	.st112{fill:#C0BFBF;}
	.st113{fill:#E0E0DF;}
	.st114{fill:#BDBABA;}
	.st115{fill:#C7C6C6;}
	.st116{fill:#C9C8C6;}
	.st117{fill:#ABAAA9;}
	.st118{fill:#B8B6B7;}
	.st119{fill:#B2B3B3;}
	.st120{fill:#CECDCB;}
	.st121{fill:#868787;}
	.st122{fill:#838283;}
	.st123{fill:#9F9E9F;}
	.st124{fill:#D5D4D3;}
	.st125{fill:#D4D3D3;}
	.st126{fill:#5A5A5A;}
	.st127{fill:#AAAAA9;}
	.st128{fill:#C2C1C0;}
	.st129{fill:#D8D7D6;}
	.st130{fill:#8A8A8A;}
	.st131{fill:#D2D0CF;}
	.st132{fill:#BFBCBB;}
	.st133{fill:#AEAEAE;}
	.st134{fill:#807F7F;}
	.st135{fill:#C1BFBD;}
	.st136{fill:#DFE0DF;}
	.st137{fill:#C6C4C2;}
	.st138{fill:#D2D2D2;}
	.st139{fill:#D7D7D5;}
	.st140{fill:#A2A0A0;}
	.st141{fill:#C6C5C5;}
	.st142{fill:#989896;}
	.st143{fill:#D1D1D1;}
	.st144{fill:#CDD0CE;}
	.st145{fill:#B5B5B6;}
	.st146{fill:#C6C3C2;}
	.st147{fill:#D8D7D4;}
	.st148{fill:#858485;}
	.st149{fill:#9E9C9E;}
	.st150{fill:#949493;}
	.st151{fill:#CBC8C7;}
	.st152{fill:#B9B9B8;}
	.st153{fill:#C3C1BF;}
	.st154{fill:#DFDFDE;}
	.st155{fill:#B2B2B2;}
	.st156{fill:#626564;}
	.st157{fill:#B8B6B8;}
	.st158{fill:#D4D1D0;}
	.st159{fill:#BCBAB9;}
	.st160{fill:#DBDAD9;}
	.st161{fill:#C0BDBD;}
	.st162{fill:#8E8F8D;}
	.st163{fill:#AEACAC;}
	.st164{fill:#949392;}
	.st165{fill:#949494;}
	.st166{fill:#DDDDDB;}
	.st167{fill:#B8B8B9;}
	.st168{fill:#C9C6C4;}
	.st169{fill:#CECDCC;}
	.st170{fill:#797778;}
	.st171{fill:#5F6060;}
	.st172{fill:#969698;}
	.st173{fill:#888888;}
	.st174{fill:#9A9B9B;}
	.st175{fill:#BBB9B9;}
	.st176{fill:#999999;}
	.st177{fill:#959494;}
	.st178{fill:#B4B4B5;}
	.st179{fill:#909090;}
	.st180{fill:#888787;}
	.st181{fill:#7B7A7A;}
	.st182{fill:#6C6C6D;}
	.st183{fill:#AEACAD;}
	.st184{fill:#9C9C9C;}
	.st185{fill:#636767;}
	.st186{fill:#B2B3B4;}
	.st187{fill:#747475;}
	.st188{fill:#757576;}
	.st189{fill:#99999A;}
	.st190{fill:#848384;}
	.st191{fill:#8D8C8C;}
	.st192{fill:#A7A6A5;}
	.st193{fill:#969595;}
	.st194{fill:#7E7F7F;}
	.st195{fill:#6A6A68;}
	.st196{fill:#A5A3A3;}
	.st197{fill:#7C7B7C;}
	.st198{fill:#545453;}
	.st199{fill:#929191;}
	.st200{fill:#908F8E;}
	.st201{fill:#7B7D7C;}
	.st202{fill:#828283;}
	.st203{fill:#2B2B2B;}
	.st204{fill:#616161;}
	.st205{fill:#6C6C6B;}
	.st206{fill:#696A6A;}
	.st207{fill:#464647;}
	.st208{fill:#5E5F5F;}
	.st209{fill:#898989;}
	.st210{fill:#6C6E6E;}
	.st211{fill:#4D4B4C;}
	.st212{fill:#555655;}
	.st213{fill:#5E5F5E;}
	.st214{fill:#797A7B;}
	.st215{fill:#5C5C5E;}
	.st216{fill:#4D4C4D;}
	.st217{fill:#6F6F6F;}
	.st218{fill:#808081;}
	.st219{fill:#1D1D1D;}
	.st220{fill:#444445;}
	.st221{fill:#626463;}
	.st222{fill:#515352;}
	.st223{fill:#535352;}
	.st224{fill:#353535;}
	.st225{fill:#727373;}
	.st226{fill:#787778;}
	.st227{fill:#747575;}
	.st228{fill:#676768;}
	.st229{fill:#818282;}
	.st230{fill:#555556;}
	.st231{fill:#5F6161;}
	.st232{mask:url(#SVGID_00000138535077807242067830000005631159580969522108_);}
	.st233{fill:#2AC0DB;}
	.st234{fill:#75459A;}
	.st235{fill:#F7D308;}
	.st236{fill:#F4831F;}
	.st237{fill:#E93B7B;}
	.st238{fill:#FFF100;}
	.st239{fill:#E29233;}
	.st240{fill:url(#SVGID_00000163047759836551566200000013145769235127249853_);}
	.st241{fill:#FF0226;}
	.st242{fill:#39B1D1;}
	.st243{fill:#FF7400;}
	.st244{fill:url(#SVGID_00000126287251584924331470000009712416960368806558_);}
	.st245{fill:#F65E41;}
	.st246{fill:#033A4D;}
	.st247{fill:url(#SVGID_00000008151066554806896550000002366042373893470103_);}
	.st248{fill-rule:evenodd;clip-rule:evenodd;fill:#211202;}
	.st249{fill-rule:evenodd;clip-rule:evenodd;fill:url(#SVGID_00000141453588895457321730000017196240509575709109_);}
	.st250{fill-rule:evenodd;clip-rule:evenodd;fill:url(#SVGID_00000061466175612385914780000009492298662130366142_);}
	.st251{fill:url(#SVGID_00000134251765977157911230000004107370166256196533_);}
	.st252{fill:url(#SVGID_00000060716638637196220930000016247302427704536453_);}
	.st253{fill:url(#SVGID_00000059310649123769537000000013784963289532358847_);}
	.st254{fill:#2D1201;}
	.st255{fill:#E67E22;}
	.st256{fill-rule:evenodd;clip-rule:evenodd;fill:#CCCCCC;}
	.st257{fill:#041B49;}
</style>
<g id="Layer_1">
</g>
<g id="Layer_2">
</g>
<g id="Layer_3">
</g>
<g id="Layer_4">
</g>
<g id="Layer_5">
</g>
<g id="Layer_6">
</g>
<g id="Layer_7">
</g>
<g id="Layer_8">
</g>
<g id="Layer_9">
</g>
<g id="Layer_10">
</g>
<g id="Layer_11">
</g>
<g id="Layer_12">
</g>
<g id="Layer_13">
</g>
<g id="Layer_14">
</g>
<g id="Layer_15">
	<g>
		<path class="st69" d="M123.8,159.88c-7.51-6.99-13.59-15.51-17.75-25.05c-4-9.19-6.22-19.34-6.22-29.99
			c0-20.76,8.41-39.55,22.02-53.15c13.6-13.6,32.4-22.02,53.15-22.02c20.76,0,39.55,8.41,53.15,22.02
			c13.6,13.6,22.02,32.4,22.02,53.15c0,11.45-2.57,22.31-7.15,32.04c-4.76,10.09-11.71,18.96-20.22,25.98l-1.56-1.9
			c8.24-6.79,14.95-15.37,19.56-25.13c4.43-9.39,6.91-19.9,6.91-30.99c0-20.08-8.14-38.25-21.29-51.41
			c-13.16-13.16-31.33-21.3-51.41-21.3c-20.08,0-38.25,8.14-51.41,21.3c-13.16,13.16-21.29,31.33-21.29,51.41
			c0,10.32,2.15,20.13,6.01,29.01c4.02,9.23,9.9,17.47,17.17,24.23L123.8,159.88L123.8,159.88z M217.49,94.85
			c0-7.62-1.62-13.39-5.22-18.15c-3.56-4.71-9.02-8.36-16.73-11.81c-7.03-3.14-13.76-4.41-19.79-4.41c-7.25,0-13.51,1.83-18.12,4.46
			c-4.43,2.53-8.62,3.01-11.93,3.38c-2.76,0.31-4.97,0.56-6.56,1.82c-1.45,1.15-2.44,3.36-3.59,5.92
			c-1.56,3.48-3.45,7.69-6.96,10.02c-3.31,2.19-5.29,3.97-6.37,5.42c-1.33,1.79-1.41,2.8-1.18,3.48c0.24,0.51-0.43,0.76-1.15,1.26
			c-3.03,2.11-8.28,5.78-7.87,13.23c0.04,0.66,0.06,1.19,0.09,1.71c0.47,9.52,0.93,18.98,15.84,27.57
			c5.67,3.27,9.29,5.83,11.77,7.59c4.87,3.45,6.04,4.28,8.81,1.51l0.06-0.07l0.37-0.37c3.87-3.83,15.23-15.09,12.34-28.99
			c-1-4.84-2.77-9.22-4.45-13.4c-3.07-7.64-5.86-14.58-2.78-21.96c0.27-0.66-0.04-1.41-0.69-1.68c-0.66-0.27-1.41,0.04-1.68,0.69
			c-3.49,8.35-0.51,15.75,2.77,23.9c1.64,4.07,3.36,8.35,4.31,12.96c2.6,12.53-8.02,23.06-11.64,26.64l-0.37,0.36l-0.07,0.07
			c-1.24,1.25-2.07,0.66-5.52-1.78c-2.53-1.79-6.22-4.4-11.97-7.72c-13.69-7.89-14.12-16.66-14.55-25.47l-0.09-1.73
			c-0.33-6.02,4.18-9.16,6.78-10.97c1.79-1.25,2.99-2.08,2.31-3.53c-0.16-0.35-0.04-0.91,0.62-1.8c0.91-1.23,2.68-2.8,5.72-4.81
			c4.13-2.73,6.19-7.32,7.88-11.11c1.01-2.25,1.88-4.18,2.84-4.95c1.01-0.8,2.89-1.01,5.24-1.28c3.55-0.4,8.04-0.91,12.92-3.7
			c4.25-2.43,10.07-4.12,16.84-4.12c5.71,0,12.08,1.2,18.74,4.18c7.31,3.26,12.44,6.67,15.72,11.01c3.24,4.29,4.7,9.56,4.7,16.6
			c0,0.71,0.58,1.29,1.29,1.29C216.92,96.14,217.49,95.56,217.49,94.85L217.49,94.85z M202.16,85.44c2.2,2.89,4.19,5.15,6.43,6.96
			c2.27,1.83,4.77,3.17,7.97,4.21c0.64,0.21,1.36,0.43,2.13,0.66c6.32,1.94,16.81,5.15,16.74,11.25c-0.03,3.07-0.63,5.1-1.19,7.01
			c-0.88,2.98-1.68,5.71-0.57,11.3c0.24,1.19,0.32,2.22,0.28,3.11c-0.08,1.85-0.68,3.13-1.56,3.99c-0.89,0.88-2.11,1.37-3.36,1.62
			c-0.96,0.19-1.94,0.24-2.82,0.2c-2.17-0.09-5.02,0.73-7.83,1.94c-3.27,1.41-6.55,3.38-8.58,5.06l-0.74,0.62
			c-3.72,3.1-10.92,9.09-15.9,8.48c-2.63-0.32-4.75-1.46-6.46-3.23c-1.78-1.85-3.14-4.39-4.19-7.44c-0.23-0.67-0.96-1.02-1.63-0.79
			c-0.67,0.23-1.02,0.96-0.79,1.63c1.18,3.39,2.72,6.25,4.77,8.38c2.11,2.2,4.74,3.61,8,4.01c6.07,0.74,13.83-5.73,17.84-9.07
			l0.73-0.61c1.86-1.53,4.9-3.35,7.97-4.68c2.5-1.08,4.97-1.81,6.72-1.74c1.07,0.04,2.25-0.01,3.41-0.24
			c1.69-0.34,3.36-1.04,4.66-2.31c1.31-1.29,2.22-3.14,2.32-5.72c0.05-1.1-0.05-2.33-0.32-3.71c-0.99-4.98-0.27-7.43,0.51-10.09
			c0.61-2.07,1.26-4.27,1.29-7.71c0.09-8.01-11.53-11.57-18.55-13.72c-0.77-0.24-1.48-0.45-2.1-0.65c-2.88-0.93-5.12-2.13-7.14-3.77
			c-2.05-1.65-3.91-3.78-6-6.51c-0.43-0.56-1.24-0.67-1.8-0.24C201.84,84.07,201.73,84.88,202.16,85.44L202.16,85.44z M186,148.17
			c-12.27-8.66-25.46-20.12-25.5-20.16c-0.54-0.46-1.35-0.41-1.81,0.13c-0.46,0.54-0.4,1.35,0.13,1.81
			c0.04,0.03,13.34,11.6,25.7,20.32c0.58,0.41,1.38,0.27,1.79-0.31C186.72,149.38,186.58,148.58,186,148.17L186,148.17z
			 M229.66,134.95c-0.9-0.37-1.46-1.95-1.97-3.37c-0.74-2.05-1.4-3.89-3.34-3.89c-1.67,0-4.18,2.92-7.04,6.26
			c-2.55,2.97-5.42,6.31-7.64,7.78c-2.42,1.6-5.51,2.79-8.7,3.04c-2.67,0.21-5.39-0.23-7.79-1.65c-2.06-1.21-3.83-1.45-4.86-1.21
			c-1.01,0.23-1.6,0.86-1.67,1.71c-0.06,0.71,0.31,1.45,1.2,2.05c1.24,0.83,4.04,1.62,8.89,1.46c1.47,0.27,2.97,0.33,4.44,0.21
			c3.63-0.29,7.16-1.64,9.91-3.47c2.52-1.67,5.51-5.15,8.18-8.26c2.45-2.85,4.6-5.35,5.09-5.35c0.15,0,0.52,1.03,0.93,2.18
			c0.69,1.93,1.46,4.07,3.4,4.88c0.66,0.27,1.41-0.04,1.68-0.69C230.62,135.98,230.31,135.23,229.66,134.95L229.66,134.95z
			 M225.61,129.19c1.64-10.2,0.99-14.14,0.98-14.16c-0.11-0.7-0.77-1.17-1.47-1.06c-0.7,0.11-1.17,0.77-1.06,1.47
			c0,0.01,0.59,3.55-0.98,13.34c-0.11,0.7,0.37,1.36,1.07,1.47C224.84,130.36,225.5,129.89,225.61,129.19L225.61,129.19z
			 M231.94,111.21c-1.16-4.56-4.29-6.08-8.85-4.78c-4.56,1.3-4.92,4.51-8.4,4.25c-3.49-0.27-2.15,0.16-1.07,1.43
			c1.07,1.27,3.04,3.13,3.96,3.13c0.92,0,0.54-3.22,2.17-4.62c1.63-1.41,3.49-1.45,3.71-1.27c0.22,0.18-2.61,0.8-3.02,3.8
			c-0.4,2.99,1.35,4.49,5.01,4.13c3.66-0.36,4.24-1.47,4.58-3.98c0.34-2.5-0.74-3.49-0.74-3.82c0-0.34,1.27,0.49,1.72,1.14
			C231.45,111.26,231.94,111.66,231.94,111.21L231.94,111.21z M205.12,146.73c2.37,4.73,6.68,8,10.36,10.78
			c2.46,1.87,4.75,3.28,5.58,4.82c0.34,0.62,1.12,0.86,1.74,0.52c0.62-0.34,0.86-1.11,0.52-1.74c-1.09-2.02-3.59-3.6-6.3-5.65
			c-3.45-2.62-7.51-5.69-9.61-9.89c-0.32-0.63-1.09-0.89-1.72-0.57C205.06,145.33,204.8,146.1,205.12,146.73L205.12,146.73z
			 M169.81,98.95c2.65-1.09,4.68-2.62,6.44-3.95c2.45-1.85,4.27-3.22,6.19-1.61c1.92,1.6,3.07,3.27,3.44,4.98
			c0.36,1.66-0.01,3.43-1.12,5.25c-2.89,4.73-2.02,7.67-2.02,7.68c0.19,0.68,0.91,1.08,1.59,0.88c0.68-0.19,1.08-0.91,0.88-1.59
			c0-0.01-0.56-1.88,1.74-5.64c1.48-2.42,1.95-4.81,1.45-7.13c-0.5-2.28-1.94-4.43-4.32-6.41c-3.49-2.91-5.99-1.02-9.38,1.53
			c-1.65,1.24-3.54,2.67-5.87,3.63c-0.66,0.27-0.97,1.02-0.7,1.67C168.41,98.91,169.15,99.22,169.81,98.95L169.81,98.95z
			 M172.89,95.22c0.52,2.55,2.45,4.07,4.65,4.58c0.9,0.21,1.84,0.24,2.75,0.11c0.92-0.13,1.81-0.45,2.6-0.93
			c1.78-1.11,2.98-3.06,2.66-5.83c-0.08-0.71-0.72-1.21-1.42-1.13c-0.71,0.08-1.21,0.72-1.13,1.42c0.19,1.63-0.47,2.74-1.45,3.35
			c-0.47,0.29-1.03,0.48-1.62,0.57c-0.6,0.09-1.22,0.06-1.8-0.07c-1.3-0.3-2.42-1.16-2.71-2.59c-0.14-0.69-0.82-1.14-1.51-1
			C173.19,93.85,172.75,94.53,172.89,95.22L172.89,95.22z M212.8,86.1c-0.38-1.33-1.74-2.38-3.25-2.78
			c-0.64-0.17-1.32-0.23-1.97-0.15c-0.71,0.09-1.39,0.34-1.96,0.79c-0.97,0.76-1.58,2.03-1.45,3.92c0.05,0.71,0.66,1.24,1.37,1.19
			c0.71-0.05,1.24-0.66,1.19-1.37c-0.07-0.92,0.14-1.46,0.47-1.72c0.18-0.14,0.42-0.23,0.68-0.26c0.32-0.04,0.67-0.01,1.01,0.08
			c0.7,0.19,1.31,0.57,1.43,1c0.19,0.68,0.91,1.08,1.59,0.88C212.59,87.5,212.99,86.79,212.8,86.1L212.8,86.1z M208.71,85.4
			c0.54,0.95,0.65,1.81,0.54,2.5c-0.07,0.42-0.22,0.78-0.42,1.04c-0.11,0.15-0.21,0.26-0.3,0.31c-0.59-0.16-1.23,0.13-1.5,0.71
			c-0.29,0.64-0.01,1.41,0.63,1.7c0.5,0.23,1.04,0.24,1.58,0.07c0.6-0.19,1.19-0.64,1.66-1.27c0.41-0.56,0.74-1.3,0.88-2.16
			c0.19-1.2,0.02-2.64-0.84-4.16c-0.35-0.62-1.13-0.83-1.74-0.49C208.58,84,208.36,84.78,208.71,85.4L208.71,85.4z M179.23,80.81
			c5.71,0.57,7.09,2.31,7.09,2.31c0.45,0.54,1.26,0.62,1.81,0.17c0.54-0.45,0.62-1.26,0.17-1.81c-0.01-0.01-2.05-2.55-8.81-3.23
			c-0.71-0.07-1.33,0.45-1.4,1.15C178.01,80.11,178.52,80.74,179.23,80.81L179.23,80.81z M195.63,74.33
			c-1.08,2.06-1.13,5.16-1.13,5.17c-0.02,0.71,0.54,1.3,1.25,1.31c0.71,0.02,1.3-0.54,1.31-1.25c0-0.01,0.04-2.52,0.84-4.04
			c0.33-0.63,0.09-1.4-0.54-1.73C196.74,73.46,195.96,73.7,195.63,74.33L195.63,74.33z M210.15,115.85l-0.51,0.74
			c-0.4,0.58-0.26,1.38,0.33,1.79c0.58,0.4,1.38,0.26,1.79-0.33l0.51-0.74c0.4-0.58,0.26-1.38-0.33-1.79
			C211.35,115.12,210.55,115.27,210.15,115.85L210.15,115.85z M204.48,118.38c-0.68-0.02-1.29,0.24-1.82,0.47l-0.26,0.11
			c-0.66,0.27-0.98,1.02-0.71,1.67c0.27,0.66,1.02,0.98,1.67,0.71l0.31-0.13c0.3-0.13,0.64-0.27,0.75-0.27
			c0.71,0.02,1.3-0.54,1.31-1.25C205.75,118.99,205.19,118.4,204.48,118.38L204.48,118.38z M207.73,120.94
			c-0.84,0.37-1.06,0.55-1.33,0.77l0,0c-0.09,0.08-0.2,0.16-0.42,0.3c-0.61,0.37-0.8,1.16-0.44,1.76c0.37,0.61,1.16,0.8,1.76,0.44
			c0.39-0.23,0.57-0.38,0.72-0.51l0,0l0,0c0.12-0.1,0.22-0.18,0.74-0.41c0.65-0.29,0.94-1.05,0.65-1.69
			C209.13,120.94,208.37,120.65,207.73,120.94L207.73,120.94z M210.93,123.95c-0.32,0.28-0.5,0.73-0.42,1.18
			c0.12,0.7,0.78,1.17,1.48,1.05c0.32-0.06,0.91-0.47,1.18-0.93c0.2-0.34,0.34-0.76,0.28-1.19c-0.1-0.7-0.75-1.19-1.45-1.09
			C211.46,123.05,211.05,123.45,210.93,123.95L210.93,123.95z M214.05,125.75c0,0.01-0.02,0.05-0.05,0.14c0,0.01,0,0.01,0.01,0
			l0.01,0c-0.43,0.54-0.36,1.33,0.17,1.78c0.54,0.46,1.35,0.4,1.81-0.14c0.19-0.22,0.34-0.53,0.44-0.82c0.1-0.3,0.18-0.67,0.18-0.9
			c0.02-0.71-0.54-1.3-1.25-1.32C214.66,124.49,214.07,125.04,214.05,125.75L214.05,125.75z M214.05,125.87l-0.03,0.03l-0.01,0
			C214.03,125.88,214.08,125.83,214.05,125.87L214.05,125.87z M213.72,121.5c-0.23,0.62,0.06,1.33,0.67,1.61
			c0.64,0.29,1.41,0.01,1.7-0.63c0.12-0.25,0.18-0.53,0.19-0.8c0.02-0.26-0.01-0.54-0.07-0.77c-0.17-0.69-0.87-1.11-1.55-0.94
			C213.98,120.12,213.56,120.81,213.72,121.5L213.72,121.5z M200.81,124.58c-0.96,0.34-1.3,0.59-1.61,0.85
			c-0.35,0.02-0.69,0.18-0.93,0.48c-0.44,0.55-0.36,1.36,0.2,1.81l0.15,0.12c0.39,0.31,0.95,0.38,1.42,0.13
			c0.38-0.2,0.55-0.35,0.73-0.49l0,0l0,0c0.15-0.13,0.3-0.25,0.9-0.46c0.67-0.24,1.02-0.97,0.78-1.64
			C202.21,124.69,201.48,124.34,200.81,124.58L200.81,124.58z M209.1,128.02c-0.81-0.72-1.2-0.79-1.95,0.05
			c-0.15,0.16-0.19,0.26-0.25,0.4c-0.02,0.04-0.05,0.11-0.24,0.26c-0.56,0.44-0.66,1.24-0.22,1.8c0.44,0.56,1.24,0.66,1.8,0.22
			c0.32-0.25,0.54-0.48,0.69-0.68c0.1-0.06,0.2-0.15,0.29-0.24C209.68,129.3,209.63,128.49,209.1,128.02L209.1,128.02z
			 M203.39,127.1c-0.05,0.07-0.11,0.17-0.16,0.26c-0.04,0.07-0.08,0.13-0.17,0.22c-0.5,0.5-0.5,1.32,0,1.82c0.5,0.5,1.32,0.5,1.82,0
			c0.29-0.29,0.4-0.47,0.55-0.7l0.1-0.16c0.4-0.59,0.24-1.39-0.35-1.79C204.58,126.36,203.78,126.51,203.39,127.1L203.39,127.1z
			 M200.82,132.06c-0.54,0.18-0.91,0.7-0.87,1.29c0.04,0.71,0.65,1.25,1.36,1.21c0.51-0.03,1-0.28,1.35-0.64
			c0.33-0.33,0.59-0.8,0.65-1.28c0.09-0.7-0.4-1.35-1.1-1.44C201.59,131.12,201.02,131.49,200.82,132.06L200.82,132.06z
			 M191.39,65.65c5.26-1.95,8.3-2.74,10.91-2c2.65,0.76,5.19,3.16,9.41,7.58l0.61,0.64c8.04,8.43,10.7,11.21,11.02,15.73
			c0.31,4.47-3.35,7.74-3.36,7.75c-0.52,0.48-0.56,1.29-0.08,1.81c0.48,0.52,1.29,0.56,1.81,0.08c0.01-0.01,4.59-4.1,4.19-9.81
			c-0.38-5.44-3.2-8.39-11.72-17.32l-0.61-0.64c-4.54-4.76-7.32-7.36-10.56-8.29c-3.28-0.94-6.71-0.09-12.51,2.07
			c-0.66,0.25-1,0.99-0.75,1.65C189.98,65.55,190.72,65.89,191.39,65.65L191.39,65.65z M177.97,92.5c0.1,0.46,0.22,0.76,0.33,1.03
			c0.08,0.2,0.15,0.37,0.15,0.77c0,0.71,0.58,1.29,1.29,1.29c0.71,0,1.29-0.58,1.29-1.29c0-0.87-0.15-1.25-0.34-1.72
			c-0.06-0.16-0.14-0.34-0.2-0.63c-0.15-0.69-0.83-1.14-1.53-0.99C178.26,91.12,177.82,91.8,177.97,92.5L177.97,92.5z M206.27,86.62
			c0.02,0.69,0.59,1.24,1.29,1.24c0.71,0,1.29-0.58,1.29-1.29c0-0.37-0.04-0.5-0.12-0.79l-0.01-0.03c-0.06-0.22-0.23-0.5-0.39-0.71
			c-0.21-0.26-0.52-0.52-0.79-0.61c-0.67-0.23-1.4,0.13-1.63,0.8C205.72,85.75,205.88,86.29,206.27,86.62L206.27,86.62z
			 M125.58,159.5c2.59-3.96,3.98-7.18,4.82-11.27c0.81-3.93,0.69-7.72-0.6-11.03c-0.26-0.66-1-0.99-1.66-0.73
			c-0.66,0.26-0.99,1-0.73,1.66c1.1,2.82,1.19,6.13,0.48,9.58c-0.78,3.77-2.04,6.68-4.46,10.39c-0.39,0.59-0.22,1.39,0.38,1.77
			C124.4,160.27,125.19,160.1,125.58,159.5L125.58,159.5z"/>
		<path class="st70" d="M175.76,60.49c-7.25,0-13.51,1.83-18.12,4.46c-4.43,2.53-8.62,3.01-11.93,3.38
			c-2.76,0.31-4.97,0.56-6.56,1.82c-1.45,1.15-2.44,3.36-3.59,5.92c-1.56,3.48-3.45,7.69-6.96,10.02c-3.31,2.19-5.29,3.97-6.37,5.42
			c-1.33,1.79-1.41,2.8-1.18,3.48c0.24,0.51-0.43,0.76-1.15,1.26c-3.03,2.11-8.28,5.78-7.87,13.23l0.09,1.71
			c0.46,9.43,0.92,18.81,15.43,27.34c0.96,2.73,1.01,5.88,0.33,9.17c-0.69,3.34-1.76,6.01-3.68,9.15
			c-6.69-6.53-12.12-14.33-15.9-23.02c-3.87-8.88-6.01-18.69-6.01-29.01c0-20.08,8.14-38.25,21.29-51.41
			c13.16-13.16,31.33-21.3,51.41-21.3c20.08,0,38.25,8.14,51.41,21.3c13.16,13.16,21.29,31.33,21.29,51.41
			c0,11.09-2.48,21.59-6.91,30.99c-4.37,9.27-10.65,17.47-18.32,24.09c-1.29-1.49-3.3-2.82-5.45-4.45
			c-2.98-2.26-6.41-4.86-8.65-8.23c0.86-0.69,1.64-1.34,2.31-1.9l0.73-0.61c1.86-1.53,4.9-3.35,7.97-4.68
			c2.5-1.08,4.97-1.81,6.72-1.74c1.07,0.04,2.25-0.01,3.41-0.24c1.69-0.34,3.36-1.04,4.66-2.31c1.31-1.29,2.22-3.14,2.32-5.72
			c0.05-1.1-0.05-2.33-0.32-3.71c-0.99-4.98-0.27-7.43,0.51-10.09c0.61-2.07,1.26-4.27,1.29-7.71c0.08-6.78-8.26-10.38-15.07-12.63
			c1.33-1.65,3.24-4.71,2.98-8.49c-0.38-5.44-3.2-8.39-11.72-17.32l-0.61-0.64c-4.54-4.76-7.32-7.36-10.56-8.29
			c-3.2-0.91-6.54-0.13-12.07,1.91C185.57,61.26,180.45,60.49,175.76,60.49L175.76,60.49z"/>
	</g>
</g>
</svg>
