<?xml version="1.0" encoding="utf-8"?>
<!-- Generator: Adobe Illustrator 27.8.1, SVG Export Plug-In . SVG Version: 6.00 Build 0)  -->
<svg version="1.1" xmlns="http://www.w3.org/2000/svg" xmlns:xlink="http://www.w3.org/1999/xlink" x="0px" y="0px"
	 viewBox="0 0 350 230" style="enable-background:new 0 0 350 230;" xml:space="preserve">
<style type="text/css">
	.st0{fill:#000B23;}
	.st1{fill:#E6FFB0;}
	.st2{fill:#F7FFE1;}
	.st3{fill:#FFD8AE;}
	.st4{fill:#FEFFE1;}
	.st5{fill:#F9D6BB;}
	.st6{fill:#F3FFF4;}
	.st7{fill:#FFF7F0;}
	.st8{fill:#211202;}
	.st9{fill:#FDFFB0;}
	.st10{fill:#FDFFF3;}
	.st11{fill:#94D3EC;}
	.st12{fill-rule:evenodd;clip-rule:evenodd;fill:#1F3A6E;}
	.st13{fill:#E73F2D;}
	.st14{fill:#253E92;}
	.st15{fill:#EF3E25;}
	.st16{fill:#45BA8B;}
	.st17{fill:none;}
	.st18{fill:#F5B92B;}
	.st19{fill:#0391B3;}
	.st20{fill:#116380;}
	.st21{fill:#939598;}
	.st22{fill:#36004C;}
	.st23{fill:#F2B21C;}
	.st24{fill:#E6E6E6;}
	.st25{fill:#33BFC7;}
	.st26{fill:#463895;}
	.st27{fill:#470000;}
	.st28{fill:#FFFFFF;}
	.st29{fill:#ED1C24;}
	.st30{fill:#373D01;}
	.st31{fill:#6D2700;}
	.st32{fill:#C94502;}
	.st33{fill:#4FAF76;}
	.st34{fill:#231F20;}
	.st35{fill:#0049FF;}
	.st36{fill:#9A5E26;}
	.st37{fill:#003321;}
	.st38{fill:#331F00;}
	.st39{fill:#060033;}
	.st40{fill:#D3FF99;}
	.st41{fill:#F0FF99;}
	.st42{fill:#99F1FF;}
	.st43{fill:#99FFC2;}
	.st44{fill:#FFBD99;}
	.st45{fill:#FF99B6;}
	.st46{fill:url(#SVGID_1_);}
	.st47{fill:url(#SVGID_00000114758325473022228890000012256534859186254488_);}
	.st48{fill:url(#SVGID_00000023252386855140476000000009967934661946899135_);}
	.st49{fill:url(#SVGID_00000102539019916275865590000008026836542881594783_);}
	.st50{fill:url(#SVGID_00000103253307793434637400000014179736344965880999_);}
	.st51{fill:url(#SVGID_00000012460992106042258960000000349063393500574352_);}
	.st52{fill:url(#SVGID_00000137828197085017469620000008544538118850584228_);}
	.st53{fill:url(#SVGID_00000027602348466798788900000013669355149411197839_);}
	.st54{fill:url(#SVGID_00000094612417187552882950000012349723910264406449_);}
	.st55{fill:url(#SVGID_00000016042931244892244530000018127290108033665978_);}
	.st56{fill:url(#SVGID_00000160186982618791063460000006740832820184865168_);}
	.st57{fill:url(#SVGID_00000041261406682940888620000009240189206673091468_);}
	.st58{fill:url(#SVGID_00000085964735056427830220000017380343077692229780_);}
	.st59{fill:url(#SVGID_00000011710026906504020210000006872773358434521514_);}
	.st60{fill:url(#SVGID_00000008862746766232872310000004670240907217798329_);}
	.st61{fill:#009245;}
	.st62{fill:#A6CE45;}
	.st63{fill:#FEFADF;}
	.st64{fill:#2AA3AE;}
	.st65{fill:#00527A;}
	.st66{fill-rule:evenodd;clip-rule:evenodd;fill:#D73C2C;}
	.st67{fill-rule:evenodd;clip-rule:evenodd;fill:#F75C4C;}
	.st68{fill:#FDD100;}
	.st69{fill:#724033;}
	.st70{fill-rule:evenodd;clip-rule:evenodd;fill:#FDD100;}
	.st71{fill:url(#SVGID_00000008116867881756650100000002910531114429918124_);}
	.st72{fill:url(#SVGID_00000052081729676531322710000014078805910823057059_);}
	.st73{fill:url(#SVGID_00000030474308079392414430000003372523896653108108_);}
	.st74{fill:#7F3F05;}
	.st75{fill:#86A018;}
	.st76{fill:#FF993B;}
	.st77{fill:#145B9C;}
	.st78{fill-rule:evenodd;clip-rule:evenodd;fill:#A6CE45;}
	.st79{fill-rule:evenodd;clip-rule:evenodd;fill:#4A4A4D;}
	.st80{filter:url(#Adobe_OpacityMaskFilter);}
	.st81{fill:#F5FBFD;}
	.st82{fill:#F7FBFF;}
	.st83{fill:#F4F5F6;}
	.st84{fill:#F4F5F5;}
	.st85{fill:#F3F4F5;}
	.st86{fill:#F1F3F3;}
	.st87{fill:#F3F2F2;}
	.st88{fill:#F0EEED;}
	.st89{fill:#F1F1F1;}
	.st90{fill:#E8E6E8;}
	.st91{fill:#E7E5E4;}
	.st92{fill:#E8E7E6;}
	.st93{fill:#EBEAEB;}
	.st94{fill:#E1E1E1;}
	.st95{fill:#E3E2E1;}
	.st96{fill:#DFDFDD;}
	.st97{fill:#D5D4D4;}
	.st98{fill:#E9E9EA;}
	.st99{fill:#D4D2D1;}
	.st100{fill:#DBDBD9;}
	.st101{fill:#AEABAC;}
	.st102{fill:#808080;}
	.st103{fill:#E7E4E3;}
	.st104{fill:#D9D8D7;}
	.st105{fill:#8C8C8C;}
	.st106{fill:#E3E4E2;}
	.st107{fill:#E7E6E6;}
	.st108{fill:#C6C2C1;}
	.st109{fill:#A19F9F;}
	.st110{fill:#B1B4B4;}
	.st111{fill:#B1B1B1;}
	.st112{fill:#C0BFBF;}
	.st113{fill:#E0E0DF;}
	.st114{fill:#BDBABA;}
	.st115{fill:#C7C6C6;}
	.st116{fill:#C9C8C6;}
	.st117{fill:#ABAAA9;}
	.st118{fill:#B8B6B7;}
	.st119{fill:#B2B3B3;}
	.st120{fill:#CECDCB;}
	.st121{fill:#868787;}
	.st122{fill:#838283;}
	.st123{fill:#9F9E9F;}
	.st124{fill:#D5D4D3;}
	.st125{fill:#D4D3D3;}
	.st126{fill:#5A5A5A;}
	.st127{fill:#AAAAA9;}
	.st128{fill:#C2C1C0;}
	.st129{fill:#D8D7D6;}
	.st130{fill:#8A8A8A;}
	.st131{fill:#D2D0CF;}
	.st132{fill:#BFBCBB;}
	.st133{fill:#AEAEAE;}
	.st134{fill:#807F7F;}
	.st135{fill:#C1BFBD;}
	.st136{fill:#DFE0DF;}
	.st137{fill:#C6C4C2;}
	.st138{fill:#D2D2D2;}
	.st139{fill:#D7D7D5;}
	.st140{fill:#A2A0A0;}
	.st141{fill:#C6C5C5;}
	.st142{fill:#989896;}
	.st143{fill:#D1D1D1;}
	.st144{fill:#CDD0CE;}
	.st145{fill:#B5B5B6;}
	.st146{fill:#C6C3C2;}
	.st147{fill:#D8D7D4;}
	.st148{fill:#858485;}
	.st149{fill:#9E9C9E;}
	.st150{fill:#949493;}
	.st151{fill:#CBC8C7;}
	.st152{fill:#B9B9B8;}
	.st153{fill:#C3C1BF;}
	.st154{fill:#DFDFDE;}
	.st155{fill:#B2B2B2;}
	.st156{fill:#626564;}
	.st157{fill:#B8B6B8;}
	.st158{fill:#D4D1D0;}
	.st159{fill:#BCBAB9;}
	.st160{fill:#DBDAD9;}
	.st161{fill:#C0BDBD;}
	.st162{fill:#8E8F8D;}
	.st163{fill:#AEACAC;}
	.st164{fill:#949392;}
	.st165{fill:#949494;}
	.st166{fill:#DDDDDB;}
	.st167{fill:#B8B8B9;}
	.st168{fill:#C9C6C4;}
	.st169{fill:#CECDCC;}
	.st170{fill:#797778;}
	.st171{fill:#5F6060;}
	.st172{fill:#969698;}
	.st173{fill:#888888;}
	.st174{fill:#9A9B9B;}
	.st175{fill:#BBB9B9;}
	.st176{fill:#999999;}
	.st177{fill:#959494;}
	.st178{fill:#B4B4B5;}
	.st179{fill:#909090;}
	.st180{fill:#888787;}
	.st181{fill:#7B7A7A;}
	.st182{fill:#6C6C6D;}
	.st183{fill:#AEACAD;}
	.st184{fill:#9C9C9C;}
	.st185{fill:#636767;}
	.st186{fill:#B2B3B4;}
	.st187{fill:#747475;}
	.st188{fill:#757576;}
	.st189{fill:#99999A;}
	.st190{fill:#848384;}
	.st191{fill:#8D8C8C;}
	.st192{fill:#A7A6A5;}
	.st193{fill:#969595;}
	.st194{fill:#7E7F7F;}
	.st195{fill:#6A6A68;}
	.st196{fill:#A5A3A3;}
	.st197{fill:#7C7B7C;}
	.st198{fill:#545453;}
	.st199{fill:#929191;}
	.st200{fill:#908F8E;}
	.st201{fill:#7B7D7C;}
	.st202{fill:#828283;}
	.st203{fill:#2B2B2B;}
	.st204{fill:#616161;}
	.st205{fill:#6C6C6B;}
	.st206{fill:#696A6A;}
	.st207{fill:#464647;}
	.st208{fill:#5E5F5F;}
	.st209{fill:#898989;}
	.st210{fill:#6C6E6E;}
	.st211{fill:#4D4B4C;}
	.st212{fill:#555655;}
	.st213{fill:#5E5F5E;}
	.st214{fill:#797A7B;}
	.st215{fill:#5C5C5E;}
	.st216{fill:#4D4C4D;}
	.st217{fill:#6F6F6F;}
	.st218{fill:#808081;}
	.st219{fill:#1D1D1D;}
	.st220{fill:#444445;}
	.st221{fill:#626463;}
	.st222{fill:#515352;}
	.st223{fill:#535352;}
	.st224{fill:#353535;}
	.st225{fill:#727373;}
	.st226{fill:#787778;}
	.st227{fill:#747575;}
	.st228{fill:#676768;}
	.st229{fill:#818282;}
	.st230{fill:#555556;}
	.st231{fill:#5F6161;}
	.st232{mask:url(#SVGID_00000052805404719680559750000015544798935252644749_);}
	.st233{fill:#2AC0DB;}
	.st234{fill:#75459A;}
	.st235{fill:#F7D308;}
	.st236{fill:#F4831F;}
	.st237{fill:#E93B7B;}
	.st238{fill:#FFF100;}
	.st239{fill:#E29233;}
	.st240{fill:url(#SVGID_00000170266923475008604820000014692584789528910480_);}
	.st241{fill:#FF0226;}
	.st242{fill:#39B1D1;}
	.st243{fill:#FF7400;}
	.st244{fill:url(#SVGID_00000106125316886581594040000005265237120580859282_);}
	.st245{fill:#F65E41;}
	.st246{fill:#033A4D;}
	.st247{fill:url(#SVGID_00000129171999887750225870000009647919457312290465_);}
	.st248{fill-rule:evenodd;clip-rule:evenodd;fill:#211202;}
	.st249{fill-rule:evenodd;clip-rule:evenodd;fill:url(#SVGID_00000039113429116865267340000006815198050168615346_);}
	.st250{fill-rule:evenodd;clip-rule:evenodd;fill:url(#SVGID_00000080884755290098803010000004111740125780066959_);}
	.st251{fill:url(#SVGID_00000098937722143849550150000003470981155400261794_);}
	.st252{fill:url(#SVGID_00000072269291952879762850000012198606712014520970_);}
	.st253{fill:url(#SVGID_00000176738841637507323770000002205313810394783370_);}
	.st254{fill:#2D1201;}
	.st255{fill:#E67E22;}
	.st256{fill-rule:evenodd;clip-rule:evenodd;fill:#CCCCCC;}
	.st257{fill:#041B49;}
</style>
<g id="Layer_1">
</g>
<g id="Layer_2">
</g>
<g id="Layer_3">
</g>
<g id="Layer_4">
</g>
<g id="Layer_5">
</g>
<g id="Layer_6">
</g>
<g id="Layer_7">
</g>
<g id="Layer_8">
</g>
<g id="Layer_9">
</g>
<g id="Layer_10">
</g>
<g id="Layer_11">
</g>
<g id="Layer_12">
</g>
<g id="Layer_13">
</g>
<g id="Layer_14">
</g>
<g id="Layer_15">
	<radialGradient id="SVGID_1_" cx="175" cy="93.275" r="73.5091" gradientUnits="userSpaceOnUse">
		<stop  offset="0" style="stop-color:#6D6E71"/>
		<stop  offset="0.0219" style="stop-color:#66676A"/>
		<stop  offset="0.1348" style="stop-color:#474749"/>
		<stop  offset="0.257" style="stop-color:#2D2D2F"/>
		<stop  offset="0.3899" style="stop-color:#19191A"/>
		<stop  offset="0.5388" style="stop-color:#0B0B0B"/>
		<stop  offset="0.7167" style="stop-color:#030303"/>
		<stop  offset="1" style="stop-color:#000000"/>
	</radialGradient>
	<path class="st46" d="M191.79,42.87c-3.39,1.79-6.64,3.41-9.79,5.19c-8.5,4.8-14.42,11.69-17.21,21.2
		c-1.42,4.86-1.07,9.17,2.5,13.04c2.32,2.52,2.76,5.53,2.18,8.9c-0.5,2.92-0.89,5.95-0.62,8.87c0.67,7.22,4.86,11.49,12.01,12.83
		c4.75,0.9,9.43,0.26,14.13-0.53c3.57-0.6,7.12-0.46,10.56,0.79c4.15,1.52,5.65,4.18,4.84,8.49c-1.14,6.04-4.94,9.84-10.36,12.23
		c-4.65,2.06-9.63,2.59-14.64,2.83c-1.52,0.07-2.26,0.57-2.36,2.07c-0.15,2.33-0.44,4.65-0.45,6.98c-0.01,2.13,0.78,4.01,2.31,5.62
		c0.88,0.92,1.65,2.03,2.17,3.19c1,2.24,0.04,4.35-2.38,4.47c-5.04,0.25-10.18,0.55-15.14-0.17c-2.44-0.35-4.89-2.61-6.76-4.57
		c-4.97-5.2-7.98-11.66-10.39-18.35c-6.6-18.37-10.36-37.26-9.5-56.87c0.34-7.79,2-15.33,6.01-22.16
		c5.36-9.13,13.66-13.78,23.88-15.33C179.22,40.64,187.65,41.27,191.79,42.87z M131.84,61.26c-3.38,2.39-6.86,4.65-10.13,7.18
		c-6.48,5-12.22,10.67-15.83,18.19c-0.29,0.61-1.09,1.04-1.75,1.4c-4.61,2.52-7.9,6.08-9.03,11.35c-1.53,7.2,2.34,14.39,8.71,15.94
		c1.49,0.36,1.67,1.12,1.96,2.34c1.51,6.5,2.86,13.05,4.79,19.43c1.8,5.92,4.68,11.41,8.89,16.07c3.66,4.05,8.05,6.41,13.7,6.17
		c3.69-0.16,7.4-0.01,11.1-0.03c2.77-0.02,4.74-1.57,5.19-4.03c0.47-2.54-0.59-4.28-3.48-5.23c-4.83-1.58-7.92-4.89-8.86-9.73
		c-0.8-4.1-1.16-8.36-1.12-12.54c0.08-6.84-0.68-13.48-3.15-19.87c-1.8-4.66-3.8-9.24-5.69-13.86c-3.28-8.02-2.97-15.98,0.58-23.81
		c1.33-2.94,2.92-5.75,4.39-8.63C132.02,61.49,131.93,61.38,131.84,61.26z M201.19,141.84c0.83,3.63,0.94,7.09-2.2,9.87
		c-0.61,0.54-1.02,1.35-1.37,2.11c-1.44,3.19-0.01,5.44,3.48,5.47c3.44,0.04,6.9,0.22,10.32-0.07c2.12-0.18,4.56-0.62,6.16-1.86
		c3.04-2.36,6.03-5.04,8.23-8.16c9.84-13.88,14.62-29.39,13.99-46.48c-0.02-0.63-0.15-1.26-0.22-1.9
		c-6.72,19.34-20.71,31-39.17,38.27C200.73,140.22,201,141.02,201.19,141.84z M217.65,30.13c-4.1-3.41-10.66-3.94-15.37-1.25
		c-4.12,2.35-7.36,8.69-6.6,12.96c8.97-2.96,17.38-1.58,25.44,3.41C223.16,39.65,221.69,33.49,217.65,30.13z M205.59,80.03
		c-3.18-2.48-6.2-1.73-7.57,2.08c-1.21,3.38-1.99,6.97-2.49,10.53c-0.28,1.97,0.12,4.16,0.72,6.1c1,3.26,4.27,5.38,7.79,5.42
		c3.45,0.04,5.6-1.93,6.77-4.91c0.81-2.08,1.17-4.34,1.48-5.53C212.1,87.35,209.65,83.21,205.59,80.03z M205.09,88.03
		c0.52,1.69-0.17,3.6-1.66,4.58c-1.39,0.92-1.97,0.62-2.38-0.97c-0.34-1.34-0.9-2.63-1.36-3.94c-0.22-0.62-0.79-1.54-0.57-1.8
		c0.43-0.51,1.3-0.66,1.55-0.77C202.99,85.13,204.56,86.3,205.09,88.03z M241.48,84.3c4.37-0.99,8.07-2.45,10.77-5.69
		c2.8-3.37,3.92-7.22,2.1-11.4c-1.85-4.25-5.4-6.23-9.95-6.15c-2.49,0.04-4.98,0.59-7.95,0.97C242.25,68.88,243.7,76.12,241.48,84.3
		z M191.93,69.08c1.11-1.73,0.97-3.42-0.15-5.1c-3.8-5.65-12.88-6.8-17.94-2.27c-2.58,2.31-3.35,5.34-2.14,8.47
		c1.4,3.6,4.18,5.71,7.56,5.74C183.06,75.95,189.89,72.27,191.93,69.08z M184.05,65.25c0.96,0.2,2.04,1.11,2.51,2
		c0.73,1.38,0.1,2.73-0.92,3.67c-1.78-1.14-3.46-2.21-5.28-3.37C181.11,65.88,182.38,64.9,184.05,65.25z M186.46,97.18
		c2.1-0.72,2.65-1.92,1.38-3.72c-1.66-2.35-3.61-4.54-5.69-6.53c-1.37-1.31-3.2-2.65-5.23-1.78c-2.04,0.88-2.06,3.15-2.3,5.04
		c-0.65,5.07,1.85,7.95,6.77,8.13C183.08,97.96,184.83,97.74,186.46,97.18z"/>
</g>
</svg>
