<?xml version="1.0" encoding="utf-8"?>
<!-- Generator: Adobe Illustrator 27.8.1, SVG Export Plug-In . SVG Version: 6.00 Build 0)  -->
<svg version="1.1" xmlns="http://www.w3.org/2000/svg" xmlns:xlink="http://www.w3.org/1999/xlink" x="0px" y="0px"
	 viewBox="0 0 350 230" style="enable-background:new 0 0 350 230;" xml:space="preserve">
<style type="text/css">
	.st0{fill:#000B23;}
	.st1{fill:#E6FFB0;}
	.st2{fill:#F7FFE1;}
	.st3{fill:#FFD8AE;}
	.st4{fill:#FEFFE1;}
	.st5{fill:#F9D6BB;}
	.st6{fill:#F3FFF4;}
	.st7{fill:#FFF7F0;}
	.st8{fill:#211202;}
	.st9{fill:#FDFFB0;}
	.st10{fill:#FDFFF3;}
	.st11{fill:#94D3EC;}
	.st12{fill-rule:evenodd;clip-rule:evenodd;fill:#1F3A6E;}
	.st13{fill:#E73F2D;}
	.st14{fill:#253E92;}
	.st15{fill:#EF3E25;}
	.st16{fill:#45BA8B;}
	.st17{fill:none;}
	.st18{fill:#F5B92B;}
	.st19{fill:#0391B3;}
	.st20{fill:#116380;}
	.st21{fill:#939598;}
	.st22{fill:#36004C;}
	.st23{fill:#F2B21C;}
	.st24{fill:#E6E6E6;}
	.st25{fill:#33BFC7;}
	.st26{fill:#463895;}
	.st27{fill:#470000;}
	.st28{fill:#FFFFFF;}
	.st29{fill:#ED1C24;}
	.st30{fill:#373D01;}
	.st31{fill:#6D2700;}
	.st32{fill:#C94502;}
	.st33{fill:#4FAF76;}
	.st34{fill:#231F20;}
	.st35{fill:#0049FF;}
	.st36{fill:#9A5E26;}
	.st37{fill:#003321;}
	.st38{fill:#331F00;}
	.st39{fill:#060033;}
	.st40{fill:#D3FF99;}
	.st41{fill:#F0FF99;}
	.st42{fill:#99F1FF;}
	.st43{fill:#99FFC2;}
	.st44{fill:#FFBD99;}
	.st45{fill:#FF99B6;}
	.st46{fill:url(#SVGID_1_);}
	.st47{fill:url(#SVGID_00000165192761129597183620000016670549281302164145_);}
	.st48{fill:url(#SVGID_00000051380873674993834180000010511223195588674205_);}
	.st49{fill:url(#SVGID_00000088107912315515733220000002863539740448695196_);}
	.st50{fill:url(#SVGID_00000023282474451406882180000004907432879802841527_);}
	.st51{fill:url(#SVGID_00000130628937183118598700000007920052511492237241_);}
	.st52{fill:url(#SVGID_00000062166604025080335810000013374808700752474045_);}
	.st53{fill:url(#SVGID_00000159445250628114954620000001200512044138101927_);}
	.st54{fill:url(#SVGID_00000171707571234814442700000002101429709713079742_);}
	.st55{fill:url(#SVGID_00000130618346489883467140000006534730566559908748_);}
	.st56{fill:url(#SVGID_00000163038182822665630640000008403472155797532854_);}
	.st57{fill:url(#SVGID_00000054983001785741572400000012303719185413375164_);}
	.st58{fill:url(#SVGID_00000049211565247591893160000018116027846380672132_);}
	.st59{fill:url(#SVGID_00000011750757529822800140000017566070103195843736_);}
	.st60{fill:url(#SVGID_00000111902060351771574630000011326026703800418713_);}
	.st61{fill:#009245;}
	.st62{fill:#A6CE45;}
	.st63{fill:#FEFADF;}
	.st64{fill:#2AA3AE;}
	.st65{fill:#00527A;}
	.st66{fill-rule:evenodd;clip-rule:evenodd;fill:#D73C2C;}
	.st67{fill-rule:evenodd;clip-rule:evenodd;fill:#F75C4C;}
	.st68{fill:#FDD100;}
	.st69{fill:#724033;}
	.st70{fill-rule:evenodd;clip-rule:evenodd;fill:#FDD100;}
	.st71{fill:url(#SVGID_00000174575204033036245860000009753501406196101269_);}
	.st72{fill:url(#SVGID_00000044856189368178109730000006440533640593651637_);}
	.st73{fill:url(#SVGID_00000005228988990815086590000003597363140127887286_);}
	.st74{fill:#7F3F05;}
	.st75{fill:#86A018;}
	.st76{fill:#FF993B;}
	.st77{fill:#145B9C;}
	.st78{fill-rule:evenodd;clip-rule:evenodd;fill:#A6CE45;}
	.st79{fill-rule:evenodd;clip-rule:evenodd;fill:#4A4A4D;}
	.st80{filter:url(#Adobe_OpacityMaskFilter);}
	.st81{fill:#F5FBFD;}
	.st82{fill:#F7FBFF;}
	.st83{fill:#F4F5F6;}
	.st84{fill:#F4F5F5;}
	.st85{fill:#F3F4F5;}
	.st86{fill:#F1F3F3;}
	.st87{fill:#F3F2F2;}
	.st88{fill:#F0EEED;}
	.st89{fill:#F1F1F1;}
	.st90{fill:#E8E6E8;}
	.st91{fill:#E7E5E4;}
	.st92{fill:#E8E7E6;}
	.st93{fill:#EBEAEB;}
	.st94{fill:#E1E1E1;}
	.st95{fill:#E3E2E1;}
	.st96{fill:#DFDFDD;}
	.st97{fill:#D5D4D4;}
	.st98{fill:#E9E9EA;}
	.st99{fill:#D4D2D1;}
	.st100{fill:#DBDBD9;}
	.st101{fill:#AEABAC;}
	.st102{fill:#808080;}
	.st103{fill:#E7E4E3;}
	.st104{fill:#D9D8D7;}
	.st105{fill:#8C8C8C;}
	.st106{fill:#E3E4E2;}
	.st107{fill:#E7E6E6;}
	.st108{fill:#C6C2C1;}
	.st109{fill:#A19F9F;}
	.st110{fill:#B1B4B4;}
	.st111{fill:#B1B1B1;}
	.st112{fill:#C0BFBF;}
	.st113{fill:#E0E0DF;}
	.st114{fill:#BDBABA;}
	.st115{fill:#C7C6C6;}
	.st116{fill:#C9C8C6;}
	.st117{fill:#ABAAA9;}
	.st118{fill:#B8B6B7;}
	.st119{fill:#B2B3B3;}
	.st120{fill:#CECDCB;}
	.st121{fill:#868787;}
	.st122{fill:#838283;}
	.st123{fill:#9F9E9F;}
	.st124{fill:#D5D4D3;}
	.st125{fill:#D4D3D3;}
	.st126{fill:#5A5A5A;}
	.st127{fill:#AAAAA9;}
	.st128{fill:#C2C1C0;}
	.st129{fill:#D8D7D6;}
	.st130{fill:#8A8A8A;}
	.st131{fill:#D2D0CF;}
	.st132{fill:#BFBCBB;}
	.st133{fill:#AEAEAE;}
	.st134{fill:#807F7F;}
	.st135{fill:#C1BFBD;}
	.st136{fill:#DFE0DF;}
	.st137{fill:#C6C4C2;}
	.st138{fill:#D2D2D2;}
	.st139{fill:#D7D7D5;}
	.st140{fill:#A2A0A0;}
	.st141{fill:#C6C5C5;}
	.st142{fill:#989896;}
	.st143{fill:#D1D1D1;}
	.st144{fill:#CDD0CE;}
	.st145{fill:#B5B5B6;}
	.st146{fill:#C6C3C2;}
	.st147{fill:#D8D7D4;}
	.st148{fill:#858485;}
	.st149{fill:#9E9C9E;}
	.st150{fill:#949493;}
	.st151{fill:#CBC8C7;}
	.st152{fill:#B9B9B8;}
	.st153{fill:#C3C1BF;}
	.st154{fill:#DFDFDE;}
	.st155{fill:#B2B2B2;}
	.st156{fill:#626564;}
	.st157{fill:#B8B6B8;}
	.st158{fill:#D4D1D0;}
	.st159{fill:#BCBAB9;}
	.st160{fill:#DBDAD9;}
	.st161{fill:#C0BDBD;}
	.st162{fill:#8E8F8D;}
	.st163{fill:#AEACAC;}
	.st164{fill:#949392;}
	.st165{fill:#949494;}
	.st166{fill:#DDDDDB;}
	.st167{fill:#B8B8B9;}
	.st168{fill:#C9C6C4;}
	.st169{fill:#CECDCC;}
	.st170{fill:#797778;}
	.st171{fill:#5F6060;}
	.st172{fill:#969698;}
	.st173{fill:#888888;}
	.st174{fill:#9A9B9B;}
	.st175{fill:#BBB9B9;}
	.st176{fill:#999999;}
	.st177{fill:#959494;}
	.st178{fill:#B4B4B5;}
	.st179{fill:#909090;}
	.st180{fill:#888787;}
	.st181{fill:#7B7A7A;}
	.st182{fill:#6C6C6D;}
	.st183{fill:#AEACAD;}
	.st184{fill:#9C9C9C;}
	.st185{fill:#636767;}
	.st186{fill:#B2B3B4;}
	.st187{fill:#747475;}
	.st188{fill:#757576;}
	.st189{fill:#99999A;}
	.st190{fill:#848384;}
	.st191{fill:#8D8C8C;}
	.st192{fill:#A7A6A5;}
	.st193{fill:#969595;}
	.st194{fill:#7E7F7F;}
	.st195{fill:#6A6A68;}
	.st196{fill:#A5A3A3;}
	.st197{fill:#7C7B7C;}
	.st198{fill:#545453;}
	.st199{fill:#929191;}
	.st200{fill:#908F8E;}
	.st201{fill:#7B7D7C;}
	.st202{fill:#828283;}
	.st203{fill:#2B2B2B;}
	.st204{fill:#616161;}
	.st205{fill:#6C6C6B;}
	.st206{fill:#696A6A;}
	.st207{fill:#464647;}
	.st208{fill:#5E5F5F;}
	.st209{fill:#898989;}
	.st210{fill:#6C6E6E;}
	.st211{fill:#4D4B4C;}
	.st212{fill:#555655;}
	.st213{fill:#5E5F5E;}
	.st214{fill:#797A7B;}
	.st215{fill:#5C5C5E;}
	.st216{fill:#4D4C4D;}
	.st217{fill:#6F6F6F;}
	.st218{fill:#808081;}
	.st219{fill:#1D1D1D;}
	.st220{fill:#444445;}
	.st221{fill:#626463;}
	.st222{fill:#515352;}
	.st223{fill:#535352;}
	.st224{fill:#353535;}
	.st225{fill:#727373;}
	.st226{fill:#787778;}
	.st227{fill:#747575;}
	.st228{fill:#676768;}
	.st229{fill:#818282;}
	.st230{fill:#555556;}
	.st231{fill:#5F6161;}
	.st232{mask:url(#SVGID_00000052802932918360766810000010760546958592477375_);}
	.st233{fill:#2AC0DB;}
	.st234{fill:#75459A;}
	.st235{fill:#F7D308;}
	.st236{fill:#F4831F;}
	.st237{fill:#E93B7B;}
	.st238{fill:#FFF100;}
	.st239{fill:#E29233;}
	.st240{fill:url(#SVGID_00000119119875683388336830000013698875172754423940_);}
	.st241{fill:#FF0226;}
	.st242{fill:#39B1D1;}
	.st243{fill:#FF7400;}
	.st244{fill:url(#SVGID_00000061446699986655853390000013546209718025708675_);}
	.st245{fill:#F65E41;}
	.st246{fill:#033A4D;}
	.st247{fill:url(#SVGID_00000015356973403055442620000017866848844995005590_);}
	.st248{fill-rule:evenodd;clip-rule:evenodd;fill:#211202;}
	.st249{fill-rule:evenodd;clip-rule:evenodd;fill:url(#SVGID_00000159450789880820435080000011526467586429606273_);}
	.st250{fill-rule:evenodd;clip-rule:evenodd;fill:url(#SVGID_00000167373495360347067630000005144985664603759761_);}
	.st251{fill:url(#SVGID_00000138558560079960460440000013443737916830583700_);}
	.st252{fill:url(#SVGID_00000096767361858359744700000005881335311628997532_);}
	.st253{fill:url(#SVGID_00000172414882721287370850000010046140731724044973_);}
	.st254{fill:#2D1201;}
	.st255{fill:#E67E22;}
	.st256{fill-rule:evenodd;clip-rule:evenodd;fill:#CCCCCC;}
	.st257{fill:#041B49;}
</style>
<g id="Layer_1">
</g>
<g id="Layer_2">
</g>
<g id="Layer_3">
</g>
<g id="Layer_4">
</g>
<g id="Layer_5">
</g>
<g id="Layer_6">
</g>
<g id="Layer_7">
</g>
<g id="Layer_8">
</g>
<g id="Layer_9">
</g>
<g id="Layer_10">
</g>
<g id="Layer_11">
</g>
<g id="Layer_12">
</g>
<g id="Layer_13">
</g>
<g id="Layer_14">
</g>
<g id="Layer_15">
	<radialGradient id="SVGID_1_" cx="175" cy="89.9114" r="79.5736" gradientUnits="userSpaceOnUse">
		<stop  offset="0" style="stop-color:#16889E"/>
		<stop  offset="0.0499" style="stop-color:#138099"/>
		<stop  offset="0.219" style="stop-color:#0B6C8B"/>
		<stop  offset="0.4096" style="stop-color:#055D81"/>
		<stop  offset="0.6373" style="stop-color:#01557C"/>
		<stop  offset="1" style="stop-color:#00527A"/>
	</radialGradient>
	<path class="st46" d="M136.5,22.08c-1.37,0.83-2.61,1.54-3.82,2.32c-4.68,3.03-8.58,6.9-11.22,11.78
		c-2.7,4.98-3.11,10.37-0.65,15.59c4.72,10.03,11.87,18.05,20.97,24.34c0.64,0.44,1.32,0.84,2.02,1.18
		c6.43,3.1,11.37,0.69,14.34-5.12c2.61-5.09,2.94-10.54,1.84-16.13c-0.85-4.29-1.65-8.61-2.24-12.94c-0.5-3.64-0.58-7.33,0.3-10.97
		c0.12-0.51,0.13-1.05,0.09-1.6c-1.62,3.49-2.66,7.14-3.26,10.91c-0.18,1.15-0.24,2.33-0.25,3.5c-0.03,5.67,0.02,11.35-0.03,17.02
		c-0.03,3.41-1.3,6.32-3.83,8.65c-1.14,1.05-2.49,1.25-3.89,0.59c-3.55-1.68-6.23-4.43-8.87-7.22c-4.28-4.53-7.67-9.67-10.22-15.36
		c-2.03-4.54-1.41-8.79,1.5-12.71c4.4-5.92,10.22-9.9,17.07-12.52c12.15-4.65,24.65-6.15,37.46-3.87
		c6.67,1.18,11.92,4.92,15.67,10.64c0.49,0.75,0.98,1.51,1.38,2.32c2.43,4.9,6.51,7.59,11.75,8.59c4.49,0.86,9.01,1.57,13.52,2.33
		c2.54,0.43,5.1,0.78,7.64,1.23c4.17,0.73,6.33,4.57,4.84,8.74c-0.54,1.49-1.41,2.86-2.13,4.29c-0.56,1.11-1.09,2.22-1.67,3.32
		c-1.34,2.55-2.51,5.22-4.09,7.61c-3.44,5.2-8.75,7.4-14.64,8.31c-3.71,0.57-7.48,0.69-11.19,1.24c-3.5,0.52-6.72,1.85-9.24,4.45
		c-2.75,2.84-2.87,6.26-1.97,9.86c0.88,3.49,2.69,6.48,4.97,9.21c0.22,0.27,0.44,0.55,0.77,0.97c-0.56,0.16-1.02,0.31-1.49,0.43
		c-14.24,3.72-27.99,2.27-41.28-3.91c-11.36-5.28-20.82-12.92-28.4-22.89c-0.23-0.3-0.46-0.59-0.69-0.88
		c-0.09,0.05-0.17,0.1-0.26,0.14c0.16,0.41,0.3,0.83,0.5,1.22c7.84,16.11,20.81,25.94,37.81,30.76c11.38,3.23,22.72,2.92,33.98-0.67
		c1-0.32,1.52-0.12,2.13,0.7c2.4,3.25,3.6,7.02,4.7,10.81c3.25,11.12,2.5,22.05-1.97,32.71c-1.62,3.88-4.23,7.11-7.32,9.94
		c-0.18,0.17-0.43,0.27-0.83,0.35c1.69-4.72,2.06-9.44,0.43-14.29c-0.15,0.09-0.3,0.13-0.38,0.23c-4.61,5.55-10.65,8.65-17.49,10.54
		c-8.63,2.39-17.37,3.15-26.26,2.21c-0.14-0.01-0.28-0.05-0.7-0.12c7.59-5.11,11.09-12.05,10.67-21.29
		c-9.23,11.53-21.14,17-35.63,17.19c6.19-5.25,9.97-11.77,11.09-20.12c-1.03,0.88-1.81,1.56-2.61,2.23
		c-8.2,6.85-17.65,10.77-28.25,11.77c-5.13,0.49-10.3,0.56-15.45,0.8c-0.56,0.03-1.13-0.12-1.74-0.34c4.6-2.28,8.92-4.9,12.75-8.27
		c3.84-3.38,7.06-7.26,9.65-11.75c-7.35,4.99-15.47,7.37-24.33,7.46c0.32-0.2,0.64-0.4,0.96-0.6c14.49-8.87,25.04-20.97,30.49-37.23
		c2.48-7.39,3.92-14.98,3.91-22.79c-0.02-8.24-2.59-15.69-7.4-22.35c-5.59-7.75-4.24-16.02,1.2-22.01
		c5.05-5.57,11.32-9.03,18.68-10.54C136.02,22.05,136.18,22.08,136.5,22.08z M182.11,123.86c-0.24,0.05-0.9,0.02-1.35,0.31
		c-2.34,1.53-4.21,3.5-5.22,6.16c-0.66,1.75-0.09,3.15,1.64,3.81c0.78,0.3,1.79,0.42,2.59,0.21c2.16-0.55,4.23-0.81,6.41,0.04
		c1.46,0.57,3.08-0.03,3.73-0.99c0.7-1.04,0.54-2.87-0.31-4.08c-0.49-0.7-0.94-1.44-1.41-2.16
		C186.84,125.06,184.97,123.91,182.11,123.86z M193.93,39.34c0.1-3.43-1.85-5.31-5.62-5.41c-1.9-0.05-4.42,2.53-4.32,4.67
		c0.14,2.91,1.81,5.35,5.13,5.44C191.67,44.12,193.85,41.96,193.93,39.34z M180.39,116.29c0.34,1.31,0.48,2.42,0.94,3.38
		c0.28,0.58,1.05,1.27,1.6,1.27c0.61,0,1.46-0.59,1.79-1.16c0.49-0.85,0.75-1.89,0.86-2.88c0.17-1.44-0.33-2.69-1.59-3.55
		c-1.11-0.75-1.67-0.75-2.45,0.37C180.99,114.5,180.73,115.49,180.39,116.29z M191.65,118.91c-0.12-0.57-0.14-1.17-0.36-1.7
		c-0.62-1.5-2.21-1.8-3.34-0.67c-1.46,1.45-1.87,3.2-1.39,5.17c0.26,1.08,1.04,1.53,2.11,1.24
		C190.53,122.45,191.57,121.01,191.65,118.91z M179.6,120.42c0.03-2.33-1.16-3.99-3.03-4.55c-0.66-0.2-1.08-0.07-1.49,0.49
		c-1.03,1.43-1.01,3.27,0.1,5.03c0.71,1.13,2.19,1.92,3.15,1.5C179.46,122.41,179.48,121.26,179.6,120.42z M231.52,50.13
		c2.3,0.09,3.88-0.83,4.54-2.46c0.44-1.09,0.14-1.84-0.97-2.21c-2.15-0.72-4.03,0.04-5.64,1.35c-1.25,1.01-0.85,2.45,0.67,2.98
		C230.67,49.98,231.25,50.07,231.52,50.13z M170.2,124.15c-0.03,1.49,1.29,3.43,2.73,3.71c0.65,0.13,1.62,0.02,2.02-0.39
		c0.45-0.46,0.64-1.42,0.53-2.1c-0.2-1.31-1-2.35-2.19-3.02C171.3,121.24,170.24,121.86,170.2,124.15z M193.03,122
		c-0.09,0.02-0.63-0.04-0.88,0.2c-1.08,1.01-2.08,2.08-1.9,3.79c0.17,1.61,1.51,2.44,2.98,1.75c1.28-0.61,2.29-2.32,2.2-3.73
		C195.31,122.38,194.98,122.06,193.03,122z M252.64,114.03c-1.36,8.43-7.89,14.28-16.55,15.07c-5.74,0.52-10.52-1.82-15.05-4.89
		c-2.71-1.84-4.88-4.27-6.75-6.95c-0.13-0.18-0.21-0.39-0.33-0.61c3.31-0.7,6.99,0.91,9.8-2.12c-0.36,0-0.72,0.01-1.08,0
		c-3.01-0.14-6.03-0.12-9.01-0.5c-1.81-0.23-3.58-1.02-5.3-1.71c-1.1-0.44-1.78-2.15-1.44-3.04c0.36-0.93,1.71-1.43,3.02-1.23
		c3.82,0.57,7.64,1.09,11.46,1.63c0.03-0.14,0.06-0.29,0.09-0.43c-0.26-0.11-0.52-0.24-0.79-0.32c-4.48-1.2-8.72-2.97-12.76-5.26
		c-1.73-0.98-2.79-2.49-3.3-4.37c-0.42-1.53,0.68-3.04,2.2-2.75c1.57,0.3,3.17,0.84,4.57,1.62c4.06,2.27,8.02,4.71,12.02,7.08
		c0.26,0.15,0.54,0.26,0.81,0.39c0.06-0.08,0.12-0.16,0.17-0.24c-1.76-1.49-3.48-3.05-5.3-4.47c-3.12-2.43-5.74-5.28-7.69-8.75
		c-0.73-1.3-0.62-2.64-0.27-3.98c0.26-0.99,1.04-1.47,2.07-1.33c1.33,0.18,2.5,0.65,3.5,1.68c4.28,4.39,8.64,8.72,12.97,13.07
		c0.18,0.18,0.4,0.32,0.73,0.36c-0.22-0.34-0.43-0.69-0.65-1.03c-2.8-4.56-5.62-9.12-8.39-13.69c-0.88-1.46-1.22-3.03-0.73-4.73
		c0.56-1.93,2.38-2.71,4.1-1.65c0.58,0.35,1.1,0.9,1.46,1.47c4.08,6.52,7.33,13.44,9.69,20.77c0.11,0.33,0.24,0.66,0.47,1.3
		c1.48-0.9,2.93-1.69,4.27-2.63c0.82-0.58,1.58-1.31,2.2-2.1c2.13-2.68,7.35-3.86,11.24-1.2c1.48,1.01,2.13,2.74,2.69,4.44
		c0.2,0.61,0.62,1.26,1.13,1.64c1.43,1.07,2.95,2.01,4.06,2.75c-2.42,0-5.19-0.03-7.96,0.01c-3.73,0.04-6.6,1.67-8.56,4.85
		c-1.05,1.7-2.12,3.38-3.14,5.09c-0.8,1.35-1.87,2.28-3.45,2.56c-0.13,0.02-0.25,0.15-0.6,0.37c3.02,0.63,5.66-0.07,8.22-0.97
		C249.15,118.28,251.09,116.37,252.64,114.03z M249.79,101.24c-1.01-0.02-1.03,0.82-1.1,1.46c-0.12,1.05,0.64,1.29,1.49,1.37
		c1.1,0.11,1.15-0.77,1.28-1.46C251.6,101.82,250.91,101.29,249.79,101.24z"/>
</g>
</svg>
