<?xml version="1.0" encoding="utf-8"?>
<!-- Generator: Adobe Illustrator 27.8.1, SVG Export Plug-In . SVG Version: 6.00 Build 0)  -->
<svg version="1.1" xmlns="http://www.w3.org/2000/svg" xmlns:xlink="http://www.w3.org/1999/xlink" x="0px" y="0px"
	 viewBox="0 0 350 230" style="enable-background:new 0 0 350 230;" xml:space="preserve">
<style type="text/css">
	.st0{fill:#000B23;}
	.st1{fill:#E6FFB0;}
	.st2{fill:#F7FFE1;}
	.st3{fill:#FFD8AE;}
	.st4{fill:#FEFFE1;}
	.st5{fill:#F9D6BB;}
	.st6{fill:#F3FFF4;}
	.st7{fill:#FFF7F0;}
	.st8{fill:#211202;}
	.st9{fill:#FDFFB0;}
	.st10{fill:#FDFFF3;}
	.st11{fill:#94D3EC;}
	.st12{fill-rule:evenodd;clip-rule:evenodd;fill:#1F3A6E;}
	.st13{fill:#E73F2D;}
	.st14{fill:#253E92;}
	.st15{fill:#EF3E25;}
	.st16{fill:#45BA8B;}
	.st17{fill:none;}
	.st18{fill:#F5B92B;}
	.st19{fill:#0391B3;}
	.st20{fill:#116380;}
	.st21{fill:#939598;}
	.st22{fill:#36004C;}
	.st23{fill:#F2B21C;}
	.st24{fill:#E6E6E6;}
	.st25{fill:#33BFC7;}
	.st26{fill:#463895;}
	.st27{fill:#470000;}
	.st28{fill:#FFFFFF;}
	.st29{fill:#ED1C24;}
	.st30{fill:#373D01;}
	.st31{fill:#6D2700;}
	.st32{fill:#C94502;}
	.st33{fill:#4FAF76;}
	.st34{fill:#231F20;}
	.st35{fill:#0049FF;}
	.st36{fill:#9A5E26;}
	.st37{fill:#003321;}
	.st38{fill:#331F00;}
	.st39{fill:#060033;}
	.st40{fill:#D3FF99;}
	.st41{fill:#F0FF99;}
	.st42{fill:#99F1FF;}
	.st43{fill:#99FFC2;}
	.st44{fill:#FFBD99;}
	.st45{fill:#FF99B6;}
	.st46{fill:url(#SVGID_1_);}
	.st47{fill:url(#SVGID_00000003803487895981226670000013575409399354940815_);}
	.st48{fill:url(#SVGID_00000132073588418262852810000008781123588330479293_);}
	.st49{fill:url(#SVGID_00000000200251837659157880000014847188993615730333_);}
	.st50{fill:url(#SVGID_00000002346073934463126240000012409733767817500310_);}
	.st51{fill:url(#SVGID_00000007401260371391372960000010422217042510843545_);}
	.st52{fill:url(#SVGID_00000101082071283107811340000005285107730347283595_);}
	.st53{fill:url(#SVGID_00000107554930344868975450000001165287859501991589_);}
	.st54{fill:url(#SVGID_00000147193681974447953620000010854304045844413622_);}
	.st55{fill:url(#SVGID_00000095327946316865875490000001037981519637806509_);}
	.st56{fill:url(#SVGID_00000157290533266996709950000008308443371285224113_);}
	.st57{fill:url(#SVGID_00000183207766725228145890000003245246813843453834_);}
	.st58{fill:url(#SVGID_00000175288099328675330330000014932910064530199711_);}
	.st59{fill:url(#SVGID_00000010993619908152508270000007662646591991690920_);}
	.st60{fill:url(#SVGID_00000082328345694464160040000012004027078270713000_);}
	.st61{fill:#009245;}
	.st62{fill:#A6CE45;}
	.st63{fill:#FEFADF;}
	.st64{fill:#2AA3AE;}
	.st65{fill:#00527A;}
	.st66{fill-rule:evenodd;clip-rule:evenodd;fill:#D73C2C;}
	.st67{fill-rule:evenodd;clip-rule:evenodd;fill:#F75C4C;}
	.st68{fill:#FDD100;}
	.st69{fill:#724033;}
	.st70{fill-rule:evenodd;clip-rule:evenodd;fill:#FDD100;}
	.st71{fill:url(#SVGID_00000084503080528642456220000018051570255985932213_);}
	.st72{fill:url(#SVGID_00000148634079519330991900000007297436842792856229_);}
	.st73{fill:url(#SVGID_00000085241559550972496680000015289376412727146132_);}
	.st74{fill:#7F3F05;}
	.st75{fill:#86A018;}
	.st76{fill:#FF993B;}
	.st77{fill:#145B9C;}
	.st78{fill-rule:evenodd;clip-rule:evenodd;fill:#A6CE45;}
	.st79{fill-rule:evenodd;clip-rule:evenodd;fill:#4A4A4D;}
	.st80{filter:url(#Adobe_OpacityMaskFilter);}
	.st81{fill:#F5FBFD;}
	.st82{fill:#F7FBFF;}
	.st83{fill:#F4F5F6;}
	.st84{fill:#F4F5F5;}
	.st85{fill:#F3F4F5;}
	.st86{fill:#F1F3F3;}
	.st87{fill:#F3F2F2;}
	.st88{fill:#F0EEED;}
	.st89{fill:#F1F1F1;}
	.st90{fill:#E8E6E8;}
	.st91{fill:#E7E5E4;}
	.st92{fill:#E8E7E6;}
	.st93{fill:#EBEAEB;}
	.st94{fill:#E1E1E1;}
	.st95{fill:#E3E2E1;}
	.st96{fill:#DFDFDD;}
	.st97{fill:#D5D4D4;}
	.st98{fill:#E9E9EA;}
	.st99{fill:#D4D2D1;}
	.st100{fill:#DBDBD9;}
	.st101{fill:#AEABAC;}
	.st102{fill:#808080;}
	.st103{fill:#E7E4E3;}
	.st104{fill:#D9D8D7;}
	.st105{fill:#8C8C8C;}
	.st106{fill:#E3E4E2;}
	.st107{fill:#E7E6E6;}
	.st108{fill:#C6C2C1;}
	.st109{fill:#A19F9F;}
	.st110{fill:#B1B4B4;}
	.st111{fill:#B1B1B1;}
	.st112{fill:#C0BFBF;}
	.st113{fill:#E0E0DF;}
	.st114{fill:#BDBABA;}
	.st115{fill:#C7C6C6;}
	.st116{fill:#C9C8C6;}
	.st117{fill:#ABAAA9;}
	.st118{fill:#B8B6B7;}
	.st119{fill:#B2B3B3;}
	.st120{fill:#CECDCB;}
	.st121{fill:#868787;}
	.st122{fill:#838283;}
	.st123{fill:#9F9E9F;}
	.st124{fill:#D5D4D3;}
	.st125{fill:#D4D3D3;}
	.st126{fill:#5A5A5A;}
	.st127{fill:#AAAAA9;}
	.st128{fill:#C2C1C0;}
	.st129{fill:#D8D7D6;}
	.st130{fill:#8A8A8A;}
	.st131{fill:#D2D0CF;}
	.st132{fill:#BFBCBB;}
	.st133{fill:#AEAEAE;}
	.st134{fill:#807F7F;}
	.st135{fill:#C1BFBD;}
	.st136{fill:#DFE0DF;}
	.st137{fill:#C6C4C2;}
	.st138{fill:#D2D2D2;}
	.st139{fill:#D7D7D5;}
	.st140{fill:#A2A0A0;}
	.st141{fill:#C6C5C5;}
	.st142{fill:#989896;}
	.st143{fill:#D1D1D1;}
	.st144{fill:#CDD0CE;}
	.st145{fill:#B5B5B6;}
	.st146{fill:#C6C3C2;}
	.st147{fill:#D8D7D4;}
	.st148{fill:#858485;}
	.st149{fill:#9E9C9E;}
	.st150{fill:#949493;}
	.st151{fill:#CBC8C7;}
	.st152{fill:#B9B9B8;}
	.st153{fill:#C3C1BF;}
	.st154{fill:#DFDFDE;}
	.st155{fill:#B2B2B2;}
	.st156{fill:#626564;}
	.st157{fill:#B8B6B8;}
	.st158{fill:#D4D1D0;}
	.st159{fill:#BCBAB9;}
	.st160{fill:#DBDAD9;}
	.st161{fill:#C0BDBD;}
	.st162{fill:#8E8F8D;}
	.st163{fill:#AEACAC;}
	.st164{fill:#949392;}
	.st165{fill:#949494;}
	.st166{fill:#DDDDDB;}
	.st167{fill:#B8B8B9;}
	.st168{fill:#C9C6C4;}
	.st169{fill:#CECDCC;}
	.st170{fill:#797778;}
	.st171{fill:#5F6060;}
	.st172{fill:#969698;}
	.st173{fill:#888888;}
	.st174{fill:#9A9B9B;}
	.st175{fill:#BBB9B9;}
	.st176{fill:#999999;}
	.st177{fill:#959494;}
	.st178{fill:#B4B4B5;}
	.st179{fill:#909090;}
	.st180{fill:#888787;}
	.st181{fill:#7B7A7A;}
	.st182{fill:#6C6C6D;}
	.st183{fill:#AEACAD;}
	.st184{fill:#9C9C9C;}
	.st185{fill:#636767;}
	.st186{fill:#B2B3B4;}
	.st187{fill:#747475;}
	.st188{fill:#757576;}
	.st189{fill:#99999A;}
	.st190{fill:#848384;}
	.st191{fill:#8D8C8C;}
	.st192{fill:#A7A6A5;}
	.st193{fill:#969595;}
	.st194{fill:#7E7F7F;}
	.st195{fill:#6A6A68;}
	.st196{fill:#A5A3A3;}
	.st197{fill:#7C7B7C;}
	.st198{fill:#545453;}
	.st199{fill:#929191;}
	.st200{fill:#908F8E;}
	.st201{fill:#7B7D7C;}
	.st202{fill:#828283;}
	.st203{fill:#2B2B2B;}
	.st204{fill:#616161;}
	.st205{fill:#6C6C6B;}
	.st206{fill:#696A6A;}
	.st207{fill:#464647;}
	.st208{fill:#5E5F5F;}
	.st209{fill:#898989;}
	.st210{fill:#6C6E6E;}
	.st211{fill:#4D4B4C;}
	.st212{fill:#555655;}
	.st213{fill:#5E5F5E;}
	.st214{fill:#797A7B;}
	.st215{fill:#5C5C5E;}
	.st216{fill:#4D4C4D;}
	.st217{fill:#6F6F6F;}
	.st218{fill:#808081;}
	.st219{fill:#1D1D1D;}
	.st220{fill:#444445;}
	.st221{fill:#626463;}
	.st222{fill:#515352;}
	.st223{fill:#535352;}
	.st224{fill:#353535;}
	.st225{fill:#727373;}
	.st226{fill:#787778;}
	.st227{fill:#747575;}
	.st228{fill:#676768;}
	.st229{fill:#818282;}
	.st230{fill:#555556;}
	.st231{fill:#5F6161;}
	.st232{mask:url(#SVGID_00000093866122364954288390000014600132742587363757_);}
	.st233{fill:#2AC0DB;}
	.st234{fill:#75459A;}
	.st235{fill:#F7D308;}
	.st236{fill:#F4831F;}
	.st237{fill:#E93B7B;}
	.st238{fill:#FFF100;}
	.st239{fill:#E29233;}
	.st240{fill:url(#SVGID_00000000919585105416020480000011374250535520960151_);}
	.st241{fill:#FF0226;}
	.st242{fill:#39B1D1;}
	.st243{fill:#FF7400;}
	.st244{fill:url(#SVGID_00000024696954302127888620000005529106750214375332_);}
	.st245{fill:#F65E41;}
	.st246{fill:#033A4D;}
	.st247{fill:url(#SVGID_00000001621954862864607520000008145488961766741384_);}
	.st248{fill-rule:evenodd;clip-rule:evenodd;fill:#211202;}
	.st249{fill-rule:evenodd;clip-rule:evenodd;fill:url(#SVGID_00000111172215022904062000000004841156140944633744_);}
	.st250{fill-rule:evenodd;clip-rule:evenodd;fill:url(#SVGID_00000127759575489839281290000000564046110418445464_);}
	.st251{fill:url(#SVGID_00000093861494454248355390000010584910971929247394_);}
	.st252{fill:url(#SVGID_00000015331831219505702650000005595203975187587773_);}
	.st253{fill:url(#SVGID_00000162325147929082017300000012879079455338391197_);}
	.st254{fill:#2D1201;}
	.st255{fill:#E67E22;}
	.st256{fill-rule:evenodd;clip-rule:evenodd;fill:#CCCCCC;}
	.st257{fill:#041B49;}
</style>
<g id="Layer_1">
</g>
<g id="Layer_2">
</g>
<g id="Layer_3">
</g>
<g id="Layer_4">
</g>
<g id="Layer_5">
</g>
<g id="Layer_6">
</g>
<g id="Layer_7">
</g>
<g id="Layer_8">
</g>
<g id="Layer_9">
</g>
<g id="Layer_10">
</g>
<g id="Layer_11">
</g>
<g id="Layer_12">
</g>
<g id="Layer_13">
</g>
<g id="Layer_14">
</g>
<g id="Layer_15">
	<g id="Logo_1_">
		<path id="Fille" class="st255" d="M172.14,108.2c0.15,0.85,0.18,1.71,0.08,2.57c-0.11,0.93-0.15,1.88-0.23,2.82
			c-0.16,1.88-0.32,3.75-0.49,5.63c-0.17,1.88-0.34,3.75-0.51,5.63c-0.17,1.88-0.34,3.75-0.5,5.63c-0.16,1.88-0.31,3.75-0.45,5.63
			c-4.72-9.54-6.71-20.26-6.92-30.84c0.72,0.45,1.29,1.1,1.95,1.62c0.68,0.54,1.39,1.05,2.13,1.51c0.15,0.1,0.27,0.23,0.43,0.31
			c0.03,0.02,0.07,0.03,0.1,0.02c0.13-0.03,0.26-0.25,0.34-0.34c0.05-0.06,0.1-0.12,0.15-0.18c0.07-0.08,0.13-0.16,0.2-0.25
			c0.22-0.29,0.44-0.58,0.65-0.87c0-0.08,0.19-0.27,0.24-0.34c0.09-0.14,0.18-0.28,0.27-0.42c0.17-0.27,0.34-0.54,0.51-0.82
			c0.14-0.24,0.29-0.47,0.43-0.71c0.05-0.08,0.33-0.42,0.3-0.51C171.33,105.54,171.9,106.84,172.14,108.2z M174.21,98.02
			c-0.15,0.04-0.29,0.1-0.43,0.16c-1.67,0.74-2.91,2.19-3.91,3.71c-1,1.53-1.8,3.18-2.92,4.62c-4.24-3.35-7.7-7.69-10.02-12.58
			c-0.17-0.35-0.33-0.73-0.33-1.12c0-0.06,0.01-0.11,0.02-0.17c0.19-0.92,1.77-1.8,2.45-2.25c1.07-0.69,2.28-1.22,3.57-1.21
			c1.65,0.02,3.15,0.91,4.49,1.87c1.81,1.3,3.51,2.77,5.44,3.89h-0.01C173.66,95.66,174.06,97.07,174.21,98.02z M161.21,95.6
			c-0.62,0.76,0.73,1.66,1.27,0.89C163.1,95.71,161.74,94.82,161.21,95.6z M187.28,105.12c-0.22,0.19-0.43,0.39-0.65,0.59
			c-1.27,1.17-2.68,2.25-3.89,3.49c-0.02,0.02-0.03,0.03-0.06,0.04c-0.05,0.01-0.09-0.03-0.13-0.06c-0.74-0.76-1.44-1.51-2.1-2.35
			c-0.33-0.43-0.65-0.86-0.97-1.29c-0.17-0.22-0.33-0.44-0.5-0.66c-0.05-0.07-0.47-0.51-0.45-0.57c-1.5,4.21-0.26,8.64,0.06,12.93
			c0.83,6.47,1.11,13,2.03,19.46c2.4-3.63,3.55-7.89,4.65-12.04c1.42-6.59,2.6-13.29,2.6-20.05
			C187.86,104.7,187.36,105.04,187.28,105.12z M186.71,89.37c0.89-0.16,1.8-0.03,2.67,0.22c1.45,0.41,2.82,1.15,3.96,2.14
			c0.14,0.12,0.28,0.26,0.34,0.43c0.08,0.22,0.01,0.47-0.07,0.69c-0.47,1.41-1.18,2.73-1.96,4c-2.29,3.75-5.17,7.16-8.48,10.05
			c-2.54-2.71-3.88-6.66-7.07-8.51c0.09-0.86,0.41-2.44,1.5-3.28c2.3-1.19,4.25-2.99,6.4-4.46
			C184.83,90.08,185.72,89.55,186.71,89.37z M188.69,96.45c0.64-0.82-0.78-1.63-1.24-0.76C186.78,96.51,188.21,97.31,188.69,96.45z
			 M235.86,163.32c-17.65-6.21-36.24-9.71-54.93-10.48c-21.57-0.89-43.31,1.87-63.93,8.31c-3.95,1.23-7.84,2.67-11.45,4.71
			c-0.31,0.18-0.71,0.45-0.61,0.86c0.09,0.37,0.55,0.61,0.91,0.63c0.31,0.02,0.62-0.05,0.92-0.14c1.07-0.31,2.06-0.85,3.09-1.29
			c1.11-0.47,2.22-0.91,3.34-1.34c2.24-0.85,4.52-1.61,6.82-2.29c4.71-1.39,9.48-2.58,14.29-3.61c4.38-0.93,8.79-1.7,13.22-2.31
			c4.43-0.61,8.89-1.06,13.36-1.36c4.47-0.29,8.95-0.42,13.42-0.4c4.48,0.03,8.95,0.21,13.42,0.56c4.46,0.35,8.91,0.85,13.34,1.51
			c4.43,0.66,8.83,1.49,13.2,2.47c4.37,0.98,8.7,2.12,12.98,3.42c4.02,1.22,8,2.58,11.93,4.08c1.28,0.49,2.54,1,3.81,1.51
			c0.3,0.12,0.61,0.24,0.94,0.28c0.37,0.04,0.81-0.04,1.02-0.38c0.32-0.51-0.09-1.05-0.49-1.36c-0.56-0.43-1.24-0.65-1.89-0.89
			c-0.7-0.27-1.39-0.56-2.09-0.82C238.95,164.43,237.41,163.87,235.86,163.32z M228.62,95.29c0.52,0,0.99-0.34,1.13-0.86
			c0.17-0.63-0.2-1.27-0.83-1.44c-0.62-0.16-1.27,0.21-1.44,0.83c-0.17,0.63,0.2,1.27,0.83,1.44
			C228.41,95.28,228.52,95.29,228.62,95.29z M231.01,88.53c0.11-0.64-0.33-1.24-0.97-1.34c-0.64-0.1-1.24,0.33-1.34,0.97
			c-0.1,0.64,0.33,1.24,0.98,1.34c0.06,0.01,0.12,0.02,0.18,0.02C230.42,89.52,230.92,89.11,231.01,88.53z M227.2,98.63
			c-0.6-0.23-1.28,0.06-1.52,0.67c-0.23,0.6,0.06,1.28,0.66,1.52c0.14,0.05,0.29,0.08,0.43,0.08c0.47,0,0.91-0.28,1.09-0.74
			C228.1,99.55,227.8,98.87,227.2,98.63z M229.65,69.56c-0.64,0.11-1.07,0.71-0.97,1.35c0.09,0.57,0.59,0.98,1.16,0.98
			c0.06,0,0.12-0.01,0.18-0.02c0.64-0.1,1.08-0.7,0.97-1.34C230.89,69.89,230.29,69.46,229.65,69.56z M137.79,120.61
			c-0.42,0.49-0.38,1.22,0.12,1.65c0.22,0.19,0.49,0.29,0.77,0.29c0.33,0,0.65-0.14,0.88-0.4c0.42-0.49,0.37-1.23-0.11-1.66
			C138.95,120.07,138.22,120.12,137.79,120.61z M231.64,82.54c0.04-0.64-0.46-1.2-1.11-1.22c-0.64-0.04-1.2,0.46-1.23,1.11
			c-0.03,0.64,0.46,1.2,1.11,1.23c0.02,0,0.04,0,0.06,0C231.09,83.65,231.61,83.17,231.64,82.54z M230.4,75.41
			c-0.65,0.04-1.14,0.59-1.11,1.24c0.03,0.62,0.55,1.11,1.17,1.11c0.02,0,0.05,0,0.06,0c0.65-0.04,1.14-0.59,1.11-1.24
			C231.6,75.87,231.04,75.38,230.4,75.41z M213.01,118.42c-0.46,0.45-0.47,1.19-0.02,1.66c0.23,0.23,0.53,0.35,0.84,0.35
			c0.3,0,0.59-0.11,0.82-0.33c0.46-0.46,0.47-1.2,0.02-1.66C214.21,117.98,213.48,117.97,213.01,118.42z M223.3,104.56
			c-0.3,0.57-0.08,1.28,0.5,1.58c0.18,0.09,0.36,0.13,0.54,0.13c0.42,0,0.83-0.23,1.04-0.63c0.3-0.57,0.08-1.28-0.5-1.58
			C224.3,103.76,223.6,103.99,223.3,104.56z M217.08,115.83c0.22,0.18,0.49,0.27,0.75,0.27c0.33,0,0.67-0.15,0.9-0.43
			c0.41-0.5,0.34-1.24-0.16-1.65c-0.5-0.42-1.24-0.35-1.65,0.15C216.51,114.67,216.58,115.41,217.08,115.83z M220.63,47.93
			c-0.54,0.36-0.69,1.08-0.33,1.62c0.23,0.34,0.6,0.53,0.98,0.53c0.22,0,0.45-0.06,0.64-0.2c0.54-0.36,0.69-1.08,0.33-1.62
			C221.9,47.72,221.17,47.57,220.63,47.93z M127.33,52.62c0.4,0,0.8-0.21,1.01-0.57c0.33-0.56,0.14-1.28-0.42-1.61
			c-0.56-0.33-1.28-0.15-1.61,0.41c-0.33,0.56-0.14,1.28,0.42,1.6C126.92,52.57,127.13,52.62,127.33,52.62z M223.75,52.94
			c-0.57,0.3-0.8,1.01-0.5,1.58c0.21,0.4,0.62,0.63,1.04,0.63c0.19,0,0.37-0.04,0.54-0.13c0.57-0.3,0.8-1.01,0.5-1.58
			C225.02,52.87,224.32,52.65,223.75,52.94z M220.36,109.53c-0.36,0.54-0.2,1.27,0.33,1.63c0.2,0.13,0.42,0.19,0.64,0.19
			c0.38,0,0.75-0.19,0.98-0.53c0.36-0.54,0.21-1.26-0.33-1.62C221.45,108.85,220.72,109,220.36,109.53z M122.82,61.07
			c-0.61-0.21-1.28,0.13-1.48,0.74c-0.21,0.61,0.13,1.28,0.74,1.48c0.12,0.04,0.25,0.06,0.37,0.06c0.49,0,0.95-0.32,1.11-0.81
			C123.77,61.93,123.44,61.27,122.82,61.07z M217.01,43.27c-0.5,0.42-0.57,1.15-0.15,1.65c0.23,0.28,0.56,0.42,0.9,0.42
			c0.26,0,0.53-0.09,0.75-0.27c0.49-0.42,0.56-1.15,0.15-1.65C218.24,42.93,217.51,42.86,217.01,43.27z M226.31,58.26
			c-0.6,0.24-0.9,0.92-0.66,1.52c0.18,0.46,0.62,0.74,1.09,0.74c0.14,0,0.29-0.03,0.43-0.08c0.6-0.24,0.9-0.92,0.66-1.52
			C227.59,58.32,226.91,58.02,226.31,58.26z M129.96,111.8c-0.52,0.39-0.63,1.12-0.24,1.64c0.23,0.3,0.59,0.47,0.94,0.47
			c0.24,0,0.49-0.08,0.7-0.23c0.52-0.39,0.63-1.12,0.24-1.64C131.22,111.52,130.48,111.41,129.96,111.8z M119.76,67.63
			c-0.14,0.63,0.26,1.25,0.9,1.39c0.08,0.02,0.16,0.03,0.25,0.03c0.54,0,1.03-0.38,1.14-0.93c0.13-0.63-0.27-1.26-0.9-1.39
			C120.52,66.59,119.9,67,119.76,67.63z M228.28,63.82c-0.62,0.17-0.99,0.81-0.82,1.44c0.14,0.52,0.61,0.86,1.13,0.86
			c0.1,0,0.21-0.01,0.31-0.04c0.62-0.17,0.99-0.81,0.82-1.44C229.55,64.02,228.91,63.65,228.28,63.82z M124.12,57.75
			c0.16,0.07,0.32,0.11,0.48,0.11c0.45,0,0.87-0.26,1.07-0.69c0.26-0.59,0.01-1.28-0.59-1.55c-0.59-0.26-1.28-0.01-1.55,0.59
			c0.01,0,0.01,0,0.01,0C123.27,56.79,123.53,57.48,124.12,57.75z M127.39,109c0.2,0,0.41-0.05,0.6-0.16
			c0.56-0.33,0.74-1.05,0.41-1.61c-0.33-0.56-1.05-0.74-1.61-0.41c-0.56,0.33-0.74,1.05-0.41,1.61
			C126.6,108.8,126.99,109,127.39,109z M120.93,92.6c0.08,0,0.16-0.01,0.25-0.02c0.63-0.14,1.03-0.77,0.9-1.4
			c-0.14-0.63-0.76-1.03-1.39-0.89c-0.63,0.13-1.03,0.76-0.9,1.39C119.91,92.22,120.39,92.6,120.93,92.6z M124.65,103.78
			c0.16,0,0.33-0.03,0.49-0.11c0.59-0.27,0.85-0.96,0.58-1.55c-0.27-0.59-0.97-0.85-1.55-0.58c-0.59,0.27-0.85,0.97-0.58,1.56
			C123.79,103.52,124.21,103.78,124.65,103.78z M133.64,116.41c-0.47,0.44-0.5,1.18-0.06,1.66c0.23,0.25,0.54,0.37,0.86,0.37
			c0.29,0,0.57-0.11,0.8-0.32c0.47-0.44,0.5-1.18,0.06-1.65C134.86,116,134.11,115.97,133.64,116.41z M122.49,98.29
			c0.12,0,0.25-0.02,0.37-0.06c0.61-0.21,0.95-0.87,0.74-1.48c-0.21-0.61-0.87-0.95-1.48-0.74s-0.95,0.87-0.74,1.48
			C121.54,97.98,122,98.29,122.49,98.29z M129.66,45.84c-0.39,0.52-0.28,1.25,0.24,1.64c0.21,0.15,0.45,0.23,0.7,0.23
			c0.36,0,0.71-0.16,0.94-0.47c0.39-0.52,0.28-1.25-0.25-1.64C130.78,45.21,130.04,45.32,129.66,45.84z M118.5,79.65
			c0,0.02,0,0.04,0,0.06c0,0.64,0.52,1.17,1.17,1.17c0.64-0.01,1.17-0.53,1.17-1.18c0-0.02,0-0.04,0-0.06c0-0.02,0-0.04,0-0.06
			c0-0.65-0.52-1.17-1.17-1.17c-0.65,0-1.17,0.52-1.17,1.17C118.5,79.61,118.5,79.63,118.5,79.65z M119.98,86.78
			c0.04,0,0.09,0,0.13-0.01c0.64-0.07,1.11-0.65,1.04-1.29c-0.07-0.64-0.64-1.11-1.29-1.04c-0.64,0.07-1.11,0.65-1.04,1.29
			C118.89,86.33,119.39,86.78,119.98,86.78z M118.81,73.58c-0.06,0.64,0.4,1.22,1.04,1.29c0.04,0.01,0.09,0.01,0.13,0.01
			c0.59,0,1.1-0.45,1.16-1.05c0.07-0.64-0.4-1.22-1.04-1.29C119.45,72.46,118.88,72.93,118.81,73.58z M234.58,79.59
			c0,17.94-7.98,34.04-20.58,44.96c-1.03,0.89-1.1,2.46-0.13,3.43v0c0.87,0.87,2.26,0.92,3.19,0.11
			c13.6-11.77,22.22-29.14,22.22-48.5c0-14.24-4.67-27.41-12.55-38.07c-0.85-1.15-2.52-1.26-3.53-0.25l0,0
			c-0.82,0.82-0.91,2.11-0.23,3.04C230.26,54.19,234.58,66.4,234.58,79.59z M136.35,127.98L136.35,127.98
			c0.96-0.96,0.9-2.53-0.13-3.43c-12.6-10.91-20.58-27.02-20.58-44.96c0-13.19,4.32-25.4,11.62-35.27c0.69-0.93,0.59-2.22-0.23-3.04
			v0c-1.01-1.01-2.68-0.9-3.53,0.25c-7.88,10.66-12.55,23.83-12.55,38.07c0,19.35,8.62,36.73,22.21,48.5
			C134.09,128.89,135.48,128.84,136.35,127.98z M146.69,110.02c0.11-0.03,0.22-0.07,0.34-0.09l0.08-0.02
			c0.69-0.17,1.38-0.29,2.05-0.42c0.31-0.06,0.62-0.11,0.93-0.17l-5.25-3.77c-1.28-0.92-0.76-2.06,0.26-4.33l0.05-0.11
			c0.36-0.82,0.77-1.64,1.2-2.43c2.69-4.88,6.65-8.96,11.44-11.81c-3.88-0.84-7.87-2-11.44-4.04c-6.01-3.44-9.84-9.13-10-14.87
			c-0.16-5.67,2.89-10.44,6.59-15.13c-0.35-0.21-0.74-0.47-1.09-0.85c-5.77,7.26-9.23,16.44-9.23,26.44
			C132.62,90.96,138.05,102.24,146.69,110.02z M205.69,105.71l-4.3,3.28l2.5,0.74c8.46-7.77,13.76-18.92,13.76-31.31
			c0-10.1-3.53-19.37-9.41-26.67c-0.43,0.41-0.9,0.71-1.26,0.93l-0.8,0.49c0.66,0.77,1.25,1.6,1.77,2.47
			c0.16-0.04,0.31-0.06,0.47-0.06c0.59,0,1.17,0.3,1.5,0.83c3,4.85,4.13,9.27,3.47,13.51c-0.82,5.27-4.71,10.23-10.41,13.26
			c-3.37,1.79-6.97,2.82-10.59,3.6c6.34,3.88,11.37,9.93,13.88,16.93C206.54,104.44,206.3,105.25,205.69,105.71z"/>
		<path id="Outline" class="st257" d="M217.68,26.67c-2.26-4.65-6.39-8.72-11.5-9.47c-5.12-0.75-10.89,2.86-11.24,8.02
			c-12.03-7.17-28.13-6.86-39.88,0.76c0.05-3.93-2.81-7.72-6.61-8.75c-2.7-0.73-5.39-0.15-7.88,1.13c-2.66,1.37-5.09,3.55-7.06,5.8
			c-1.17,1.33-2.36,2.98-2,4.71c0.39,1.94,2.65,3.03,4.62,2.82c1.97-0.2,3.7-1.34,5.34-2.45c1.27,1.31,2.27,2.88,2.97,4.56
			c0.74,1.78,1.15,3.69,1.23,5.62c0.08,1.93-0.16,3.87-0.74,5.71c-0.3,0.96-0.66,1.83-1.28,2.63c-0.31,0.4-0.67,0.78-0.84,1.26
			c-0.15,0.43-0.13,0.92,0.05,1.34c0.29,0.66,0.93,0.93,1.52,1.26c0.11,0.06,1.17,0.78,1.21,0.72c-3.72,4.56-7.65,9.68-7.49,15.57
			c0.16,5.64,4.21,10.59,9.11,13.4c4.9,2.8,10.58,3.85,16.14,4.85c-0.26-0.05-0.89,0.35-1.14,0.45c-0.4,0.17-0.8,0.35-1.19,0.53
			c-0.76,0.36-1.51,0.76-2.24,1.19c-4.54,2.68-8.35,6.59-10.9,11.2c-0.41,0.75-0.79,1.51-1.13,2.29c-0.09,0.21-1.01,2.21-0.89,2.3
			c1.41,1.01,2.82,2.02,4.23,3.04c0.71,0.51,1.41,1.01,2.12,1.52c0.35,0.25,0.7,0.53,1.06,0.76c0.13,0.08,0.72,0.48,0.85,0.41
			c-1.99,1.11-4.42,1.25-6.6,1.77c-0.3,0.07-1.19,0.22-1.19,0.65c0.01,1.78,0.32,3.54,0.47,5.31c0.15,1.84,0.31,3.68,0.46,5.52
			c0.35,4.14,0.69,8.27,1.04,12.41c0.54-0.07,1.08-0.15,1.62-0.22c-0.69-7.51-1.39-15.03-2.08-22.54c4.5-0.85,9-1.69,13.5-2.54
			c0.61,8.82,2.64,17.53,5.97,25.72c0.44,1.09,0.97,2.25,1.99,2.84c0.85,0.49,1.88,0.51,2.86,0.51c2.45,0,4.89,0,7.34,0
			c0.92,0,1.91-0.02,2.65-0.57c0.61-0.46,0.93-1.2,1.22-1.91c3.39-8.46,5.51-17.43,6.27-26.51c4.4,0.57,8.77,1.38,13.08,2.44
			c0.02,0.01-0.11,0.88-0.11,0.93c-0.32,2.56-0.39,5.14-0.56,7.71c-0.18,2.67-0.36,5.34-0.61,8.01c-0.05,0.5-0.48,5.92-0.56,5.92
			c0.54,0.1,1.09,0.14,1.63,0.09c0.07-0.01,0.16-0.02,0.21-0.07c0.05-0.05,0.05-0.13,0.06-0.2c0.03-0.46,0.05-0.93,0.08-1.39
			c0.33-5.9,0.59-11.81,0.98-17.71c0.02-0.39,0.39-4.34,0.24-4.39c-2.16-0.64-4.32-1.29-6.48-1.93c2.35-1.79,4.7-3.58,7.04-5.38
			c-2.95-8.2-9.53-15.03-17.62-18.28c5.2-0.94,10.49-1.92,15.16-4.4c4.67-2.48,8.69-6.75,9.5-11.98c0.67-4.32-0.88-8.52-3.23-12.32
			c1.28,4.74,1.64,8.25,0.56,12.35c-0.94,4.14-3.57,7.95-7.49,9.48c4.21-2.83,7.01-7.65,7.38-12.71c0.37-5.06-1.71-10.24-5.47-13.64
			c0.44-0.27,0.87-0.54,1.31-0.81c0.44-0.27,0.88-0.54,1.32-0.81c0.73-0.45,1.46-0.89,1.57-1.83c0.08-0.75-0.31-1.29-0.78-1.83
			c-1.32-1.53-1.57-3.39-1.76-5.33c-0.21-2.09-0.18-4.2,0.09-6.29c0.29-2.26,1.19-4.87,3.39-5.49c1.64-0.47,3.32,0.37,4.94,0.88
			c1.62,0.51,3.78,0.49,4.59-1.01C218.69,29.19,218.23,27.81,217.68,26.67z M189.75,32.38c0.65,1.15-1.69,1.49-1.76,0.32
			C188.07,31.87,189.32,31.78,189.75,32.38z M184.71,38.44c0.46-0.69,1.13-1.25,1.94-1.53c1.94-0.68,4.05,0.34,5.25,1.88
			c0.55,0.71,0.95,1.53,1.24,2.38c0.15,0.44,0.27,0.89,0.37,1.34c0.04,0.16,0.13,1.2,0.22,1.24c-1.39-0.65-2.21-1.93-3.35-2.89
			c-1-0.84-2.41-0.48-3.53-0.06c-0.51,0.19-1,0.44-1.47,0.7c-0.13,0.07-1.14,0.56-1.14,0.69c0.01-0.34-0.09-0.68-0.14-1.02
			C183.93,40.22,184.18,39.23,184.71,38.44z M161.27,32.38c0.43-0.6,1.68-0.52,1.76,0.32C162.96,33.87,160.62,33.54,161.27,32.38z
			 M159.19,37.24c1.9-0.89,4.06-0.56,5.5,0.97c0.61,0.65,1.06,1.45,1.31,2.31c0.13,0.44,0.21,0.9,0.23,1.36
			c0,0.12-0.11,1.19-0.09,1.2c-1.13-0.72-1.97-1.89-3.22-2.42c-1.52-0.65-3.27-0.17-4.47,0.88c-0.22,0.19-2.23,1.96-2.2,2.07
			C155.58,41.14,156.86,38.34,159.19,37.24z M143.36,27.64c1.14-1.66,2.85-2.85,4.63-3.74c1.73,2.76,1.21,6.65-1.11,8.96
			C145.38,31.4,143.58,29.85,143.36,27.64z M141.01,65.47c-0.93,6.64,3.94,12.05,3.94,12.05s-5.24-3.25-5.04-9.8
			c0.24-7.67,3.77-10.39,5.69-11.91C145.61,55.82,141.94,58.83,141.01,65.47z M146.51,78.09c0.84-0.37,2.4,0.45,2.31,1.42
			C147.97,79.86,146.39,79.08,146.51,78.09z M153.52,70.86c-0.15,0.06-0.32,0.08-0.48,0.1c-0.44,0.05-0.96,0.08-1.3-0.27
			c-0.15-0.15-0.24-0.36-0.27-0.58c-0.08-0.48,0.09-0.95,0.39-1.27c0.36-0.37,0.91-0.55,1.46-0.34c0.18,0.07,0.36,0.18,0.47,0.34
			C154.15,69.36,154.2,70.58,153.52,70.86z M161.41,107.3c-0.38,1.01-1.11,1.94-2.12,2.3c-1.25,0.45-2.64-0.04-3.83-0.65
			c-1.45-0.73-2.8-1.63-4.11-2.6c-0.66-0.49-1.31-1.01-1.96-1.53c-0.31-0.25-0.62-0.5-0.93-0.76c-0.08-0.07-0.35-0.22-0.55-0.35
			c-0.12-0.08-0.21-0.15-0.22-0.19c-0.02-0.09,0.02-0.18,0.06-0.26c0.34-0.75,0.67-1.5,1.04-2.24c1.24-2.48,2.84-4.78,4.73-6.8
			c0.46-0.49,1.05-1.24,1.54-0.37c0.25,0.44,0.48,0.89,0.7,1.34c0.45,0.9,0.87,1.82,1.39,2.69c0.97,1.61,2.02,3.16,3.15,4.66
			c0.52,0.7,1.08,1.41,1.3,2.25C161.83,105.63,161.71,106.51,161.41,107.3z M172.22,110.76c-0.11,0.93-0.15,1.88-0.23,2.82
			c-0.16,1.88-0.32,3.75-0.49,5.63c-0.17,1.88-0.34,3.75-0.51,5.63c-0.17,1.88-0.34,3.75-0.5,5.63c-0.16,1.88-0.31,3.75-0.45,5.63
			c-4.72-9.54-6.71-20.26-6.92-30.84c0.72,0.45,1.29,1.1,1.95,1.62c0.68,0.54,1.39,1.05,2.13,1.51c0.15,0.1,0.27,0.23,0.43,0.31
			c0.03,0.02,0.07,0.03,0.1,0.02c0.13-0.03,0.26-0.25,0.34-0.34c0.05-0.06,0.1-0.12,0.15-0.18c0.07-0.08,0.13-0.16,0.2-0.25
			c0.22-0.29,0.44-0.58,0.65-0.87c0-0.08,0.19-0.27,0.24-0.34c0.09-0.14,0.18-0.28,0.27-0.42c0.17-0.27,0.34-0.54,0.51-0.82
			c0.14-0.24,0.29-0.47,0.43-0.71c0.05-0.08,0.33-0.42,0.3-0.51c0.53,1.27,1.09,2.56,1.34,3.93
			C172.29,109.05,172.32,109.91,172.22,110.76z M169.87,101.9c-1,1.53-1.8,3.18-2.92,4.62c-4.24-3.35-7.7-7.69-10.02-12.58
			c-0.17-0.35-0.33-0.73-0.33-1.12c0-0.06,0.01-0.11,0.02-0.17c0.19-0.92,1.77-1.8,2.45-2.25c1.07-0.69,2.28-1.22,3.57-1.21
			c1.65,0.02,3.15,0.91,4.49,1.87c1.81,1.3,3.51,2.77,5.44,3.89h-0.01c1.1,0.7,1.5,2.11,1.65,3.06c-0.15,0.04-0.29,0.1-0.43,0.16
			C172.11,98.92,170.86,100.37,169.87,101.9z M179.69,83.73c-2.45,2.38-6.84,2.11-9.42,0.05C172.84,81.37,176.97,81.81,179.69,83.73
			z M171.69,67.25c2.04-0.68,4.29-0.81,6.36-0.13C176.01,68.25,173.88,68.13,171.69,67.25z M175.39,108.61
			c-0.35,0.18-0.93,0.12-1.14-0.24c-0.09-0.15-0.1-0.35-0.05-0.52c0.15-0.51,0.71-0.79,1.22-0.66
			C176.18,107.39,175.99,108.31,175.39,108.61z M175.39,105.37c-0.35,0.18-0.93,0.12-1.14-0.24c-0.09-0.15-0.1-0.35-0.05-0.52
			c0.15-0.51,0.71-0.79,1.22-0.66C176.18,104.16,175.99,105.07,175.39,105.37z M185.26,124.66c-1.1,4.16-2.24,8.42-4.65,12.04
			c-0.93-6.46-1.2-12.99-2.03-19.46c-0.32-4.29-1.56-8.72-0.06-12.93c-0.02,0.06,0.4,0.5,0.45,0.57c0.17,0.22,0.34,0.44,0.5,0.66
			c0.32,0.43,0.64,0.86,0.97,1.29c0.65,0.84,1.36,1.59,2.1,2.35c0.04,0.04,0.08,0.08,0.13,0.06c0.02-0.01,0.04-0.02,0.06-0.04
			c1.22-1.24,2.63-2.32,3.89-3.49c0.21-0.2,0.43-0.4,0.65-0.59c0.09-0.08,0.59-0.42,0.59-0.51
			C187.86,111.37,186.68,118.07,185.26,124.66z M195.35,93.71c0.17-0.25,0.31-0.36,0.44-0.39c0.3-0.06,0.53,0.39,0.87,0.84
			c1.97,2.6,3.74,5.35,5.27,8.23c0.25,0.47,0.5,1.02,0.32,1.53c-0.11,0.3-0.36,0.52-0.6,0.73c-1.64,1.43-3.36,2.85-5.39,3.69
			c-1.67,0.68-4.42,1.35-5.99,0.09c-0.83-0.67-0.91-1.9-0.89-2.89c0.04-1.79,1.06-3.31,1.95-4.78c0.95-1.57,1.92-3.14,2.8-4.76
			C194.54,95.26,194.88,94.41,195.35,93.71z M189.38,89.59c1.45,0.41,2.82,1.15,3.96,2.14c0.14,0.12,0.28,0.26,0.34,0.43
			c0.08,0.22,0.01,0.47-0.07,0.69c-0.47,1.41-1.18,2.73-1.96,4c-2.29,3.75-5.17,7.16-8.48,10.05c-2.54-2.71-3.88-6.66-7.07-8.51
			c0.09-0.86,0.41-2.44,1.5-3.28c2.3-1.19,4.25-2.99,6.4-4.46c0.83-0.57,1.72-1.1,2.71-1.28C187.6,89.21,188.51,89.34,189.38,89.59z
			 M184.81,81.43c-2.85,0.59-5.91-0.45-8.2-2.14c-1.14-0.79-0.92-2.32-1.14-3.51c1.97-1.83,4.18-3.5,5.61-5.82
			c1-1.41,0.2-3.75-1.56-4.02c-2.82-0.62-5.78-0.63-8.62-0.17c-1.46,0.21-3.38,1.51-2.78,3.2c0.66,2.4,2.87,3.77,4.59,5.38
			c1.52,1.17,1.76,3.83,0.21,5.09c-2.17,2.12-5.81,3.1-8.51,1.42c-2.21-1.76-3.64-4.66-3.36-7.5c0.39-3.97,2.49-7.69,5.53-10.24
			c1.92-1.59,4.02-3.29,6.63-3.43c1.74-0.09,3.59-0.26,5.31,0.04c1.5,0.26,2.79,1.11,3.92,2.1c3.26,2.84,5.72,6.67,6.67,10.91
			C189.88,76.11,188.01,80.04,184.81,81.43z M170.93,58.69c0.98-1.72,1.89-3.54,3.02-5.16c0.52-0.81,1.66-1,2.5-0.59
			c1.29,1.33,2.08,2.98,2.9,4.62c0.14,0.28,0.28,0.56,0.42,0.84c0.06,0.12,0.21,0.6,0.31,0.64c-0.45-0.16-0.91-0.29-1.37-0.4
			c-2.53-0.59-5.09-0.35-7.56,0.35c-0.08,0.02-0.19,0.04-0.25-0.02C170.84,58.89,170.88,58.78,170.93,58.69z M197.93,70.86
			c-0.15,0.06-0.32,0.08-0.48,0.1c-0.44,0.05-0.96,0.08-1.3-0.27c-0.15-0.15-0.24-0.36-0.27-0.58c-0.08-0.48,0.09-0.95,0.39-1.27
			c0.36-0.37,0.91-0.55,1.46-0.34c0.18,0.07,0.36,0.18,0.47,0.34C198.56,69.36,198.61,70.58,197.93,70.86z M205.49,48.56
			c0.16,0.04,0.36,0.05,0.5,0.16c0.16,0.12,0.16,0.32,0.02,0.46c-0.11,0.11-0.25,0.18-0.38,0.25c-0.5,0.26-1.01,0.47-1.52,0.69
			c-0.3,0.13-0.6,0.24-0.9,0.36c-0.1,0.04-0.89,0.26-0.9,0.34c-0.52,3.52-1.33,7.47-4.45,9.64c-3.56,2.5-8.84,4.39-12.71,1.48
			c-3.73-2.35-5.13-6.72-6.36-10.7c-2.39,0.26-4.79,0.38-7.19,0.45c-0.84,2.71-1.58,5.58-3.34,7.87c-2.03,2.44-5.22,4.21-8.47,3.76
			c-3.1-0.42-6.19-1.68-8.42-3.91c-2.23-2.36-2.77-5.68-3.6-8.68c-0.48-0.11-0.96-0.23-1.44-0.32c-0.42-0.08-0.82-0.14-1.21-0.32
			c-0.26-0.11-0.63-0.27-0.79-0.5c-0.27-0.38,0.12-0.75,0.44-0.89c0.32-0.14,0.66-0.18,0.99-0.27c0.33-0.09,0.67-0.17,1-0.26
			c0.29-0.08,0.69-0.14,0.94-0.31c1.44-0.98,2.74-2.43,4.63-2.42c4.59-0.34,9.22-0.24,13.82-0.05c2.44,0.04,4.7,1.44,5.69,3.7
			c2.1,0.09,4.21,0.08,6.32-0.04c1.14-1.88,2.99-3.33,5.24-3.53c4.77-0.45,9.61-0.61,14.39-0.1c0.65,0.07,1.23,0.19,1.82,0.49
			c0.57,0.28,1.09,0.65,1.62,1c0.59,0.39,1.2,0.78,1.87,1.01c0.57,0.21,1.18,0.36,1.77,0.52C205.06,48.45,205.28,48.5,205.49,48.56z
			 M203.12,32.42c-2.46-2.4-1.73-6.02-0.95-8.97c1.79,1.19,3.67,2.41,4.89,4.23C206.78,29.8,205.13,31.71,203.12,32.42z
			 M204.08,20.4c5.1-0.53,8.89,2.27,10.84,6.67C211.28,24.88,207.66,22.66,204.08,20.4z M169.27,49.26c0.16,3.2-0.46,6.5-1.87,9.39
			c-1.26,2.57-4.37,3.5-7.04,3.45c-3.37-0.21-6.95-1.8-8.54-4.93c-1.56-2.95-1.71-6.39-1.53-9.65c5.04-0.84,10.19-0.7,15.27-0.4
			C166.93,47.33,169.15,47.47,169.27,49.26z M199.7,47.9c0.91,2.71,0.16,5.72-0.73,8.35c-1.99,5.89-10.85,7.99-15.16,3.47
			c-2.27-3.36-2.71-7.61-2.91-11.57c3.7-1.48,7.74-1.23,11.65-1.24C194.94,47,197.46,46.9,199.7,47.9z M184.85,75.45
			c-1.06,0.37-1.4-1.36-0.38-1.59C185.51,73.49,185.84,75.22,184.85,75.45z M165.1,75.45c-1-0.23-0.67-1.96,0.38-1.59
			C166.5,74.09,166.16,75.82,165.1,75.45z M162.47,96.49c-0.54,0.77-1.88-0.13-1.27-0.89C161.74,94.82,163.1,95.71,162.47,96.49z
			 M187.45,95.69c0.46-0.87,1.89-0.06,1.24,0.76C188.21,97.31,186.78,96.51,187.45,95.69z"/>
	</g>
</g>
</svg>
