<?xml version="1.0" encoding="utf-8"?>
<!-- Generator: Adobe Illustrator 27.8.1, SVG Export Plug-In . SVG Version: 6.00 Build 0)  -->
<svg version="1.1" id="Layer_1" xmlns="http://www.w3.org/2000/svg" xmlns:xlink="http://www.w3.org/1999/xlink" x="0px" y="0px"
	 viewBox="0 0 350 230" style="enable-background:new 0 0 350 230;" xml:space="preserve">
<style type="text/css">
	.st0{fill:#F2F2A0;}
	.st1{fill:#A0F2B9;}
	.st2{fill:#F4D79F;}
	.st3{fill:#FFFB66;}
	.st4{fill:#4FFFFF;}
	.st5{fill:#A0D3F2;}
	.st6{fill:#E0F2A0;}
	.st7{fill:#A0F2DC;}
	.st8{fill:#492D00;}
	.st9{fill:#FFFBB8;}
	.st10{fill:url(#SVGID_1_);}
	.st11{fill:url(#SVGID_00000074416248620531247940000010402542619736095898_);}
	.st12{fill:url(#SVGID_00000055707565573299349140000008129726109755868832_);}
	.st13{fill-rule:evenodd;clip-rule:evenodd;fill:url(#SVGID_00000038413844894568429760000017878079304055904188_);}
	.st14{fill:url(#SVGID_00000015349421988095617750000016552395157125246608_);}
	.st15{fill-rule:evenodd;clip-rule:evenodd;fill:url(#SVGID_00000182523970272904580570000001612999619426578323_);}
	.st16{fill:url(#SVGID_00000061448463151268214700000018401757186353673404_);}
	.st17{fill:url(#SVGID_00000108990651332503831950000010150383745618326401_);}
	.st18{fill:url(#SVGID_00000097472651328968554650000000210546162033574815_);}
	.st19{fill:url(#SVGID_00000027583431968984725050000017742124559416727737_);}
	.st20{fill:url(#SVGID_00000011715518908225450830000014658629943788419223_);}
	.st21{fill:url(#SVGID_00000102526683261334196430000010562861090038788754_);}
	.st22{fill:url(#SVGID_00000030482652346226914290000014536502177872759982_);}
	.st23{fill:url(#SVGID_00000013177463248423371840000000862686430765939623_);}
	.st24{fill:url(#SVGID_00000161605742756652671600000013241471432981579164_);}
	.st25{fill:url(#SVGID_00000000908665054166358680000001203850933717000606_);}
	.st26{fill:url(#SVGID_00000034053062525301868500000002793028700085555585_);}
	.st27{fill:url(#SVGID_00000052788514842543817340000014636763023202702770_);}
	.st28{fill:#FFFFFF;}
	.st29{fill:url(#SVGID_00000109746972106930555980000015279304606805397924_);}
	.st30{fill:url(#SVGID_00000064322578792146712500000014457904980337173916_);}
	.st31{fill:url(#SVGID_00000033337459525062665970000014415991527249443775_);}
	.st32{fill:url(#SVGID_00000164481707971762165860000016070935793961096369_);}
	.st33{fill:url(#SVGID_00000064330546763988230460000008096108665297430965_);}
	.st34{fill:url(#SVGID_00000064318749445933846170000016535148806588166293_);}
	.st35{fill:#00B5E8;}
	.st36{opacity:0.2;fill:#1F1E21;}
	.st37{fill:url(#SVGID_00000021802154154450087780000014876643997467855757_);}
	.st38{opacity:0.15;}
	.st39{fill:url(#SVGID_00000109737839528027398960000006608725540360484238_);}
	.st40{fill:url(#SVGID_00000059275977843510035750000001027140770968298414_);}
	.st41{fill:url(#SVGID_00000116223107498077980690000017444406615119235212_);}
	.st42{fill:url(#SVGID_00000175315939581871041920000016072566663582364837_);}
	.st43{fill:url(#SVGID_00000100380617476409870360000018044071551539663804_);}
	.st44{fill:url(#SVGID_00000150788577316592700030000008486394877864564904_);}
	.st45{fill:url(#SVGID_00000126301934336468915490000016943545591426364345_);}
	.st46{fill:url(#SVGID_00000016791842358146845020000005040583015053441977_);}
	.st47{fill:url(#SVGID_00000134933265770062834790000006399596616515162245_);}
	.st48{fill:url(#SVGID_00000050642394654182465930000013644241100968532399_);}
	.st49{fill:url(#SVGID_00000111162020154765352600000003651501758770554508_);}
	.st50{fill:url(#SVGID_00000183961391056545338570000003877072726312500382_);}
	.st51{fill:url(#SVGID_00000163065908274089482690000003519900683897133718_);}
	.st52{fill:#78151B;}
	.st53{fill:#CCCCCC;}
</style>
<g>
	<linearGradient id="SVGID_1_" gradientUnits="userSpaceOnUse" x1="162.3363" y1="73.7838" x2="195.7716" y2="146.0841">
		<stop  offset="0" style="stop-color:#008387"/>
		<stop  offset="0.491" style="stop-color:#006C70"/>
		<stop  offset="0.5498" style="stop-color:#007073"/>
		<stop  offset="0.8122" style="stop-color:#009196"/>
		<stop  offset="0.862" style="stop-color:#007377"/>
		<stop  offset="0.914" style="stop-color:#006569"/>
	</linearGradient>
	<path class="st10" d="M216.41,67.35l-1.1,0.59l-2.25,1.21L175,89.55l-3.23-1.73l-34.84-18.67l-2.08-1.12l-1.26-0.68l-2.22-1.19
		v70.01h11.74V81.02l31.85,18.64C175,99.7,175,99.7,175,99.67l31.87-18.66v55.16h11.74V66.16L216.41,67.35z M146.23,86.39v49.79
		h57.55V86.39L175,103.23L146.23,86.39z"/>
	<path class="st38" d="M175,84.12v15.55l31.87-18.66l6.18-11.87l3.35-6.44l4.46-8.58L175,84.12z M136.94,69.15l-3.34-6.43
		l-4.47-8.59l4.47,10.84l1.26,3.06l8.26,20.03v-7.04L136.94,69.15z M169.97,80.84c0,0,0.7,2.72,1.58,6.09
		c0.07,0.29,0.16,0.59,0.23,0.89c1.35,5.17,2.99,11.39,3.2,11.84C175,99.7,175,99.7,175,99.67V84.12L169.97,80.84z M169.97,80.84
		l-40.85-26.71l4.47,8.59l3.34,6.43l6.18,11.87l31.85,18.64l0.03,0.01V84.12L169.97,80.84z M136.94,69.15l-3.34-6.43l-4.47-8.59
		v82.05h14V81.02L136.94,69.15z M216.41,62.7l-3.35,6.44l-6.18,11.87v7.84l8.43-20.92l1.1-2.73l4.46-11.08L216.41,62.7z M175,84.12
		l-5.03-3.28l-40.85-26.71v82.05h14V81.02l31.85,18.64l0.03,0.01l31.87-18.66v55.16h9.53V65.21l4.46-11.08L175,84.12z M175,76.6
		l-52.07-34.06v98.56h104.14V42.54L175,76.6z M194.76,136.17v-31.71L175,115.06l-19.75-10.59v31.71h-1.77v-34.99L175,112.87
		l21.52-11.69v34.99H194.76z M203.78,136.17V86.39L175,103.23l-28.77-16.84v49.79h-3.11V81.02l31.85,18.64
		C175,99.7,175,99.7,175,99.67l31.87-18.66v55.16H203.78z M220.87,136.17h-4.46V65.21l4.46-11.08V136.17z M175,115.06l-19.75-10.59
		v31.71h39.51v-31.71L175,115.06z M175,89.19l-3.46-2.26L133.6,62.11v74.06h9.53V81.02l31.85,18.64C175,99.7,175,99.7,175,99.67
		l31.87-18.66v55.16h9.53V62.11L175,89.19z M175,115.06l-19.75-10.59v31.71h39.51v-31.71L175,115.06z"/>
</g>
</svg>
