<?xml version="1.0" encoding="utf-8"?>
<!-- Generator: Adobe Illustrator 27.8.1, SVG Export Plug-In . SVG Version: 6.00 Build 0)  -->
<svg version="1.1" id="Layer_1" xmlns="http://www.w3.org/2000/svg" xmlns:xlink="http://www.w3.org/1999/xlink" x="0px" y="0px"
	 viewBox="0 0 350 230" style="enable-background:new 0 0 350 230;" xml:space="preserve">
<style type="text/css">
	.st0{fill:#F2F2A0;}
	.st1{fill:#A0F2B9;}
	.st2{fill:#F4D79F;}
	.st3{fill:#FFFB66;}
	.st4{fill:#4FFFFF;}
	.st5{fill:#A0D3F2;}
	.st6{fill:#E0F2A0;}
	.st7{fill:#A0F2DC;}
	.st8{fill:#492D00;}
	.st9{fill:#FFFBB8;}
	.st10{fill:url(#SVGID_1_);}
	.st11{fill:url(#SVGID_00000119839126525865553890000007445703266847046582_);}
	.st12{fill:url(#SVGID_00000115499729498225451700000002750308911271825048_);}
	.st13{fill-rule:evenodd;clip-rule:evenodd;fill:url(#SVGID_00000032643523295609823410000004032914741978474154_);}
	.st14{fill:url(#SVGID_00000066504453537456376400000010201251060772572040_);}
	.st15{fill-rule:evenodd;clip-rule:evenodd;fill:url(#SVGID_00000083081866551165821530000005722208933703628423_);}
	.st16{fill:url(#SVGID_00000131337473726519763390000017541252432702799250_);}
	.st17{fill:url(#SVGID_00000084517776923912188200000013659568509628676514_);}
	.st18{fill:url(#SVGID_00000050625617568054950400000009734507322050196152_);}
	.st19{fill:url(#SVGID_00000104699183256707526280000007780839861707412104_);}
	.st20{fill:url(#SVGID_00000079462645717682073390000014855000044632917181_);}
	.st21{fill:url(#SVGID_00000080169248567430984590000015889315613891900068_);}
	.st22{fill:url(#SVGID_00000060713302548870720580000012181665169957890192_);}
	.st23{fill:url(#SVGID_00000069368469945819929250000013501066577277719219_);}
	.st24{fill:url(#SVGID_00000049932472875797068650000012586350041086061724_);}
	.st25{fill:url(#SVGID_00000051351533620763164050000010772952046165365382_);}
	.st26{fill:url(#SVGID_00000040545271082177110380000017462444512118119358_);}
	.st27{fill:url(#SVGID_00000010996625191254895000000012371867129194869896_);}
	.st28{fill:#FFFFFF;}
	.st29{fill:url(#SVGID_00000141433350951180042570000012443306110960670348_);}
	.st30{fill:url(#SVGID_00000173121715032196146140000014776560128418684049_);}
	.st31{fill:url(#SVGID_00000132769592626051539110000005278579820910823854_);}
	.st32{fill:url(#SVGID_00000061439589525622248070000011329374002685209524_);}
	.st33{fill:url(#SVGID_00000127043811592348989940000012939838573826322313_);}
	.st34{fill:url(#SVGID_00000163035630227546365910000001093300986903067024_);}
	.st35{fill:#00B5E8;}
	.st36{opacity:0.2;fill:#1F1E21;}
	.st37{fill:url(#SVGID_00000039854496489501854300000015794470973855306665_);}
	.st38{opacity:0.15;}
	.st39{fill:url(#SVGID_00000029734802495141151700000000645725151625403301_);}
	.st40{fill:url(#SVGID_00000023994719853525327930000000871224923320420766_);}
	.st41{fill:url(#SVGID_00000170256360499604033100000002388197909120779146_);}
	.st42{fill:url(#SVGID_00000034067429159323027140000015044631500817557177_);}
	.st43{fill:url(#SVGID_00000124161809886065232740000014075705156228946354_);}
	.st44{fill:url(#SVGID_00000132805640426202433720000011184618795659439261_);}
	.st45{fill:url(#SVGID_00000160871921156939446770000001741918521586850198_);}
	.st46{fill:url(#SVGID_00000060736783021838687300000006465153916437030534_);}
	.st47{fill:url(#SVGID_00000159431647903465860700000008687657859909675144_);}
	.st48{fill:url(#SVGID_00000071561976921040682940000003802341809872937146_);}
	.st49{fill:url(#SVGID_00000096754044993956398280000002670092953432287929_);}
	.st50{fill:url(#SVGID_00000161623353828037125280000002541951043620850330_);}
	.st51{fill:url(#SVGID_00000172415939516325464490000018030081005761583788_);}
	.st52{fill:#78151B;}
	.st53{fill:#CCCCCC;}
</style>
<g>
	
		<linearGradient id="SVGID_1_" gradientUnits="userSpaceOnUse" x1="-85143.875" y1="-60510.2188" x2="-83727.8906" y2="-58123.5977" gradientTransform="matrix(0.0283 0 0 0.0283 2554.2327 1763.9496)">
		<stop  offset="0" style="stop-color:#00AEEF"/>
		<stop  offset="0.3556" style="stop-color:#1C75BC"/>
		<stop  offset="0.549" style="stop-color:#2E3192"/>
		<stop  offset="1" style="stop-color:#2E3192"/>
	</linearGradient>
	<path style="fill-rule:evenodd;clip-rule:evenodd;fill:url(#SVGID_1_);" d="M156.03,102.55h0.8l55.02-31.77
		c0.01-0.35,0.02-0.7,0.02-1.06c0-6.95-2.54-12.77-7.63-17.47c-5.09-4.7-12.38-7.06-21.87-7.06h-57.01v75.52l30.67-17.71V102.55
		L156.03,102.55z M156.03,83.85V65.14h13.48c4.61,0,7.86,0.8,9.72,2.43c1.86,1.6,2.8,3.85,2.8,6.72c0,3.09-0.94,5.46-2.8,7.11
		c-1.86,1.63-5.18,2.45-9.93,2.45L156.03,83.85L156.03,83.85z"/>
	
		<linearGradient id="SVGID_00000134242035236432601750000015391280993571872940_" gradientUnits="userSpaceOnUse" x1="170.8814" y1="143.6759" x2="170.8814" y2="70.7837">
		<stop  offset="0" style="stop-color:#262262"/>
		<stop  offset="0.5412" style="stop-color:#1C0000"/>
		<stop  offset="1" style="stop-color:#0F0000"/>
	</linearGradient>
	<path style="fill:url(#SVGID_00000134242035236432601750000015391280993571872940_);" d="M156.03,122.49v-19.48l-30.67,17.71v22.96
		h52.54c2.25,0,6.79-0.46,13.64-1.35c5.16-0.66,9.01-1.74,11.58-3.21c4.1-2.38,7.36-5.59,9.74-9.67c2.36-4.08,3.55-8.67,3.55-13.78
		c0-6.26-1.67-11.46-5-15.61c-3.35-4.15-8.53-7.06-15.61-8.76c4.65-1.63,8.21-3.81,10.61-6.6c3.42-3.9,5.23-8.54,5.44-13.91
		l-55.02,31.77h14.65c5.34,0,9.08,0.89,11.21,2.66c2.13,1.77,3.19,4.1,3.19,7.01c0,3.14-1.08,5.62-3.23,7.47
		c-2.15,1.86-5.85,2.8-11.1,2.8L156.03,122.49L156.03,122.49z"/>
	
		<linearGradient id="SVGID_00000106113117627998248640000006646406108103097777_" gradientUnits="userSpaceOnUse" x1="-83352.2266" y1="-57441.2344" x2="-84735.7891" y2="-59842.332" gradientTransform="matrix(0.0283 0 0 0.0283 2554.2327 1763.9496)">
		<stop  offset="0" style="stop-color:#C7C5C5"/>
		<stop  offset="0.3294" style="stop-color:#FFFFFF"/>
		<stop  offset="0.4784" style="stop-color:#DBDBDB"/>
		<stop  offset="0.5804" style="stop-color:#A6A6A6"/>
		<stop  offset="0.7216" style="stop-color:#1F1F1F"/>
		<stop  offset="1" style="stop-color:#3B3B3B"/>
	</linearGradient>
	<path style="fill-rule:evenodd;clip-rule:evenodd;fill:url(#SVGID_00000106113117627998248640000006646406108103097777_);" d="
		M156.43,103.24l0.4-0.69l55.02-31.77c0.31,0.16,0.62,0.33,0.93,0.51c6.02,3.47,9.79,8.59,11.31,15.34
		c1.53,6.76-0.07,14.25-4.82,22.47c-6.67,11.54-13.33,23.09-20,34.63c-15,0.13-13.56-0.07-25.04-0.07
		c-13.99-10.63-30.21-18.49-48.88-22.96l30.67-17.71L156.43,103.24L156.43,103.24z M172.63,112.6c5.98,0.98,11.44,3.89,16.2,9.35
		l6.74-11.67c2.3-3.99,3.24-7.21,2.76-9.63c-0.46-2.41-1.94-4.35-4.42-5.78c-2.68-1.55-5.19-1.91-7.55-1.13
		c-2.34,0.79-4.71,3.26-7.09,7.37C177.05,104.93,174.84,108.76,172.63,112.6L172.63,112.6z"/>
</g>
</svg>
