<?xml version="1.0" encoding="utf-8"?>
<!-- Generator: Adobe Illustrator 24.0.1, SVG Export Plug-In . SVG Version: 6.00 Build 0)  -->
<svg version="1.1" id="Layer_1" xmlns="http://www.w3.org/2000/svg" xmlns:xlink="http://www.w3.org/1999/xlink" x="0px" y="0px"
	 viewBox="0 0 300 300" style="enable-background:new 0 0 300 300;" xml:space="preserve">
<style type="text/css">
	.st0{fill-rule:evenodd;clip-rule:evenodd;fill:#FEC660;}
	.st1{fill-rule:evenodd;clip-rule:evenodd;fill:#DB1F2C;}
	.st2{fill-rule:evenodd;clip-rule:evenodd;fill:#B9479A;}
	.st3{fill-rule:evenodd;clip-rule:evenodd;fill:#3B57A7;}
	.st4{fill-rule:evenodd;clip-rule:evenodd;fill:#3EAAE0;}
	.st5{fill-rule:evenodd;clip-rule:evenodd;fill:#80C342;}
</style>
<g>
	<path class="st0" d="M151.17,103.55l-12.2-28.74c-4.22-9.97-1.06-9.5,2.82-17.01c1.76-3.4,4.58-10.09,3.87-16.54
		c-4.34-12.08-9.74-23.93,3.87-34.25l5.98,14.08c7.39,17.36-13.73,20.41-5.63,39.3l9.62,22.41
		C163.73,92.52,157.16,96.27,151.17,103.55 M194.58,163.14l30.97-4.34c10.68-1.41,9.38,1.53,15.6,7.16
		c2.82,2.58,8.56,7.04,15.02,7.98c12.9-1.06,25.57-3.17,32.03,12.67l-15.02,2.11c-18.65,2.58-16.19-18.53-36.48-15.6l-24.17,3.52
		C201.97,178.15,199.97,170.88,194.58,163.14 M148.83,196.45l12.2,28.74c4.22,9.97,1.06,9.5-2.82,17.01
		c-1.76,3.4-4.58,10.09-3.87,16.54c4.34,12.2,9.74,23.93-3.87,34.25l-5.98-14.08c-7.27-17.24,13.73-20.29,5.63-39.18l-9.62-22.41
		C136.27,207.48,142.84,203.73,148.83,196.45 M103.55,148.83l-28.74,12.2c-9.97,4.22-9.5,1.06-17.01-2.82
		c-3.4-1.76-10.09-4.58-16.54-3.87c-12.08,4.34-23.93,9.74-34.25-3.87l14.08-5.98c17.24-7.27,20.41,13.73,39.3,5.63l22.41-9.62
		C92.52,136.27,96.27,142.84,103.55,148.83"/>
	<path class="st1" d="M174.28,110.35l3.75-30.97c1.41-10.79,3.87-8.68,11.03-13.37c3.17-1.99,8.92-6.45,11.5-12.32
		c2.35-12.67,3.64-25.57,20.53-27.68l-1.88,15.13c-2.23,18.65-22.05,10.79-24.52,31.2l-2.82,24.17
		C190.59,107.06,183.08,107.06,174.28,110.35 M189.65,174.28l30.97,3.75c10.79,1.41,8.8,3.87,13.37,11.03
		c1.99,3.17,6.45,9.03,12.32,11.5c12.79,2.35,25.57,3.64,27.68,20.53l-15.02-1.88c-18.77-2.23-10.79-22.05-31.2-24.52l-24.28-2.82
		C192.94,190.59,192.94,183.08,189.65,174.28 M136.86,194.58l4.34,30.97c1.53,10.68-1.53,9.38-7.16,15.6
		c-2.58,2.93-7.04,8.68-7.98,15.02c1.06,12.9,3.17,25.57-12.67,32.03l-2.11-15.02c-2.58-18.65,18.53-16.19,15.6-36.48l-3.52-24.17
		C121.85,201.97,129.12,200.09,136.86,194.58 M105.42,136.86l-30.85,4.34c-10.79,1.53-9.5-1.53-15.72-7.16
		c-2.82-2.58-8.56-7.04-15.02-7.98c-12.79,1.06-25.57,3.17-32.03-12.67l15.02-2.11c18.65-2.58,16.19,18.53,36.48,15.6l24.17-3.52
		C98.03,121.96,100.03,129.12,105.42,136.86"/>
	<path class="st2" d="M183.67,117.97L195.4,89c4.11-9.97,5.98-7.39,13.96-9.97c3.64-1.17,10.44-3.87,14.43-8.92
		c5.51-11.73,10.09-23.81,26.98-21.47l-5.63,14.08c-7.16,17.48-24.17,4.69-31.79,23.81l-9.03,22.64
		C200.33,119.03,193.05,117.15,183.67,117.97 M182.03,183.67L211,195.4c9.97,4.11,7.39,5.98,9.97,14.08
		c1.17,3.52,3.99,10.32,9.03,14.31c11.61,5.51,23.7,10.09,21.35,26.98l-14.08-5.63c-17.48-7.16-4.69-24.17-23.81-31.79l-22.64-9.03
		C180.97,200.33,182.85,193.05,182.03,183.67 M125.72,189.65l-3.75,30.97c-1.41,10.79-3.87,8.8-10.91,13.37
		c-3.28,1.99-9.03,6.45-11.61,12.32C97.09,259.1,95.8,271.88,78.91,274l1.88-15.02c2.23-18.77,22.05-10.79,24.52-31.2l2.82-24.28
		C109.41,192.94,116.92,192.94,125.72,189.65 M110.35,125.72l-30.97-3.75c-10.79-1.41-8.8-3.87-13.37-10.91
		c-1.99-3.28-6.45-9.03-12.32-11.61C41.02,97.09,28.12,95.8,26,78.91l15.13,1.88c18.65,2.23,10.79,22.05,31.2,24.52l24.17,2.82
		C107.06,109.41,107.06,116.92,110.35,125.72"/>
	<path class="st3" d="M190.82,127.83l18.77-24.99c6.57-8.56,7.74-5.63,16.19-5.98c3.75-0.23,11.03-1.17,16.19-4.93
		c8.33-9.85,15.95-20.41,31.67-13.73l-9.27,12.08c-11.26,15.02-24.52-1.64-36.72,14.78L213,124.66
		C206.66,133.11,200.09,129.35,190.82,127.83 M172.17,190.82l24.99,18.77c8.68,6.57,5.63,7.74,6.1,16.19
		c0.12,3.75,1.06,11.03,4.93,16.19c9.85,8.33,20.29,15.95,13.73,31.67l-12.2-9.15c-15.02-11.38,1.64-24.52-14.78-36.84L175.46,213
		C166.89,206.66,170.65,200.09,172.17,190.82 M116.33,182.03L104.6,211c-4.11,9.97-5.98,7.39-13.96,9.97
		C87,222.15,80.2,224.96,76.21,230c-5.51,11.61-10.09,23.7-26.98,21.47l5.75-14.19c7.04-17.36,24.05-4.69,31.67-23.81l9.03-22.64
		C99.67,180.97,106.95,182.96,116.33,182.03 M117.97,116.33L89,104.6c-9.97-4.11-7.39-5.98-9.97-13.96
		C77.85,87,75.16,80.2,70.11,76.21C58.38,70.7,46.3,66.12,48.64,49.23l14.08,5.75c17.48,7.04,4.69,24.05,23.81,31.67l22.64,9.03
		C119.03,99.67,117.15,106.95,117.97,116.33"/>
	<path class="st4" d="M163.14,105.42l-4.34-30.85c-1.41-10.79,1.53-9.5,7.16-15.72c2.58-2.82,7.04-8.56,7.98-15.02
		c-1.06-12.79-3.17-25.57,12.67-32.03l2.11,15.02c2.58,18.65-18.53,16.19-15.6,36.6l3.52,24.05
		C178.15,98.03,170.88,100.03,163.14,105.42 M195.16,139.21l24.63-19.24c8.56-6.69,8.92-3.52,17.13-1.76
		c3.75,0.82,11.03,1.88,17.01-0.59c10.56-7.27,20.53-15.48,34.02-5.04l-11.97,9.38c-14.78,11.61-23.23-7.98-39.42,4.69l-19.12,15.13
		C209.12,148.36,203.73,143.08,195.16,139.21 M109.18,172.17l-18.77,24.99c-6.57,8.68-7.74,5.63-16.19,6.1
		c-3.75,0.12-11.03,1.06-16.19,4.93c-8.33,9.85-15.84,20.29-31.67,13.73l9.27-12.2c11.26-15.02,24.52,1.76,36.84-14.78L87,175.46
		C93.34,166.89,99.91,170.65,109.18,172.17 M127.83,109.18l-24.99-18.77c-8.68-6.57-5.63-7.74-5.98-16.19
		c-0.23-3.75-1.17-11.03-4.93-16.19c-9.85-8.33-20.41-15.84-13.84-31.56l12.2,9.15c15.02,11.26-1.64,24.52,14.78,36.84L124.54,87
		C133.11,93.34,129.35,99.91,127.83,109.18"/>
	<path class="st5" d="M196.45,151.17l28.74-12.2c9.97-4.22,9.5-1.06,17.01,2.82c3.4,1.76,10.09,4.58,16.54,3.87
		c12.08-4.34,23.93-9.62,34.25,3.87l-14.08,5.98c-17.24,7.39-20.41-13.73-39.3-5.63l-22.41,9.62
		C207.48,163.73,203.73,157.16,196.45,151.17 M160.91,195.16l19.24,24.63c6.57,8.56,3.4,8.92,1.64,17.13
		c-0.82,3.75-1.76,11.03,0.59,17.01c7.27,10.56,15.48,20.53,5.04,34.02l-9.38-11.97c-11.5-14.78,7.98-23.23-4.69-39.42l-15.13-19.12
		C151.64,209.12,156.92,203.73,160.91,195.16 M104.84,160.91L80.2,180.15c-8.56,6.69-8.92,3.4-17.13,1.64
		c-3.75-0.82-10.91-1.76-16.89,0.59c-10.68,7.27-20.65,15.48-34.14,5.04l11.97-9.38c14.9-11.5,23.23,7.98,39.42-4.69l19.12-15.13
		C90.88,151.64,96.27,156.92,104.84,160.91 M139.09,104.84L119.97,80.2c-6.69-8.56-3.52-8.92-1.76-17.13
		c0.82-3.75,1.88-10.91-0.59-16.89c-7.27-10.68-15.48-20.65-5.04-34.14l9.38,11.97c11.61,14.9-7.98,23.23,4.69,39.42l15.13,19.12
		C148.36,90.88,143.08,96.27,139.09,104.84"/>
</g>
</svg>
