<?xml version="1.0" encoding="utf-8"?>
<!-- Generator: Adobe Illustrator 24.0.1, SVG Export Plug-In . SVG Version: 6.00 Build 0)  -->
<svg version="1.1" id="Layer_1" xmlns="http://www.w3.org/2000/svg" xmlns:xlink="http://www.w3.org/1999/xlink" x="0px" y="0px"
	 viewBox="0 0 300 300" style="enable-background:new 0 0 300 300;" xml:space="preserve">
<style type="text/css">
	.st0{fill:url(#SVGID_1_);}
	.st1{fill:#29AAE1;}
	.st2{fill:#DA1A5D;}
	.st3{fill:#D7DF28;}
	.st4{fill:#FFDE11;}
	.st5{fill:#8FC640;}
	.st6{fill:#F15B2B;}
</style>
<g>
	
		<linearGradient id="SVGID_1_" gradientUnits="userSpaceOnUse" x1="99.8417" y1="121.1102" x2="189.9572" y2="121.1102" gradientTransform="matrix(1 0 0 -1 0 300)">
		<stop  offset="0" style="stop-color:#692977"/>
		<stop  offset="0.34" style="stop-color:#7E2A83"/>
		<stop  offset="0.69" style="stop-color:#8D2A8B"/>
		<stop  offset="0.99" style="stop-color:#922A8E"/>
	</linearGradient>
	<path class="st0" d="M171.24,117.95c-10.74-14.36-28.14-26.5-42.85-26.5c-14.71,0-27.2,9.22-28.49,22.88
		c-1.28,13.66,4.79,25.22,20.43,34.79c22.08,13.49,36.42,36.68,38.64,62.46c1.4,16.46-3.39,39.69-12.37,54.75
		c0.82,0,34.67-22.3,42.03-69.81C192.96,167.68,186.54,138.26,171.24,117.95z"/>
	<path class="st1" d="M216.31,80.82c8.76-8.41,18.56-12.49,17.51-23.23c-1.28-13.89-19.73-24.05-37.24-12.26
		c-10.86,7.24-17.51,20.2-18.8,36.54c-1.11,16.11,2.67,32.19,10.86,46.11C188.87,128.34,183.73,112.35,216.31,80.82z"/>
	<path class="st2" d="M149.18,204.92c-5.37-21.01-19.38-37.71-35.84-42.61c-13.54-4.09-24.75,1.4-28.72,10.51
		c-3.97,9.11-1.05,16.81,5.95,24.4s12.02,8.52,26.38,13.31c8.41,2.69,14.24,7.35,17.86,12.96c8.76,13.89,4.79,30.7,2.1,34.91
		C149.76,245.55,154.31,225.59,149.18,204.92z M250.28,70.2c0.82,7.35,1.05,12.73,1.17,16.34c-0.03,1.13,0.01,2.26,0.12,3.39
		c0.93,15.99,11.21,23.23,20.78,23.23l0,0c6.25,0.03,12.12-2.97,15.76-8.06c4.55-6.54,5.14-15.53,1.63-25.57
		c-12.61-35.84-47.87-45.53-63.28-43.2C231.6,37.16,247.48,44.75,250.28,70.2z M84.5,73.12c6.73-1.36,13.57-2.06,20.43-2.1
		c20.08,0,37.94,7.71,46.11,18.56c-4.2-19.03-28.72-52.19-69.35-55.69c-15.64-1.28-34.09,2.69-35.96,18.68
		c-0.7,5.72,0.7,10.62,3.97,14.36C55.9,73.94,68.27,76.15,84.5,73.12z"/>
	<path class="st3" d="M75.51,144.57c-2.33-14.01,2.22-29.07,12.61-41.33s26.5-19.15,41.44-20.31c-5.81-1.64-11.82-2.46-17.86-2.45
		c-29.54,0-61.17,19.15-77.05,46.46c-25.57,44.01,10.16,72.62,33.86,50.9C76.21,170.72,77.85,157.99,75.51,144.57z"/>
	<path class="st4" d="M36.64,105.57c7.59-8.76,10.86-17.86,9.11-24.98c-1.75-7.12-8.41-10.86-14.94-10.86
		c-11.32,0-18.1,12.61-20.31,20.08c-6.42,21.71,0.82,48.33,7.94,60.01C16.32,140.01,26.83,116.9,36.64,105.57z"/>
	<path class="st5" d="M265.22,124.84c-4.9,5.49-5.6,14.83-4.55,28.6c1.52,19.73-6.77,41.68-11.21,46.11
		c0.82,0,31.4-26.03,39.34-51.13c1.4-4.44,4.32-16.23-1.4-23.23C281.68,118.18,270.71,118.53,265.22,124.84z"/>
	<path class="st1" d="M109.48,218c-29.77-7.59-35.96-28.84-35.49-31.87c-2.57,12.73,0.82,27.08,9.11,39.34
		c8.29,12.26,16.93,18.1,26.03,19.85s15.06,0.7,17.98-6.65C130.03,231.31,126.65,222.32,109.48,218z"/>
	<path class="st6" d="M233.94,85.14c-11.67-1.4-27.55,15.29-30.82,27.2c1.98-2.57,10.04-7.71,20.66-7
		c3.99,0.34,8.02,0.02,11.91-0.93C244.44,101.72,244.68,86.43,233.94,85.14z M89.99,118.07c-0.12,0.23-10.51,17.4-2.8,31.05
		c1.63,2.92,4.09,4.79,7.24,4.79c3.15,0,10.04-4.55,2.33-14.71C89.05,129.04,89.75,122.03,89.99,118.07z M243.98,124.37
		c-8.99-10.62-23.47-12.26-33.04-5.49c-14.83,10.62-13.66,22.53-12.02,37.59c0.47,4.44,0.93,8.87,1.05,13.78
		c0.7,28.37-10.16,70.51-31.87,88.26c18.21-5.49,35.61-17.98,51.6-34.21s28.72-38.06,31.99-57.44
		C255.53,143.87,249.58,131.02,243.98,124.37z"/>
</g>
</svg>
