<?xml version="1.0" encoding="utf-8"?>
<!-- Generator: Adobe Illustrator 24.0.1, SVG Export Plug-In . SVG Version: 6.00 Build 0)  -->
<svg version="1.1" id="Layer_1" xmlns="http://www.w3.org/2000/svg" xmlns:xlink="http://www.w3.org/1999/xlink" x="0px" y="0px"
	 viewBox="0 0 300 300" style="enable-background:new 0 0 300 300;" xml:space="preserve">
<style type="text/css">
	.st0{fill:#3166AC;}
	.st1{fill:#18A376;}
	.st2{fill:#7CBA54;}
	.st3{fill:#E47E26;}
	.st4{fill:#DE1F33;}
	.st5{fill:#B21F5C;}
</style>
<g>
	<g>
		<path class="st0" d="M143.21,124.03c0,0-96.27,57.29-114.81-44.45c-1.78-9.98,79.39-20.44,89.73,35.54
			c0.95,5.59-44.45,8.32-51.82-2.97c-4.4-6.66,23.06,6.06,31.14-7.49c6.54-10.82-46.95-28.52-53.36-18.18
			c-5.11,8.32,24.6,65.01,90.09,28.88C137.15,113.69,143.21,124.03,143.21,124.03z"/>
	</g>
	<g>
		<path class="st1" d="M124.07,142.93c0,0,1.43,111.96-95.91,77.14c-9.51-3.45,22.11-78.92,75.71-59.9
			c5.35,1.9-14.98,42.67-28.52,43.38c-7.96,0.48,16.76-16.88,9.15-30.78c-6.18-11.05-48.25,26.5-42.55,37.2
			c4.64,8.56,68.7,11.17,70-63.59C112.07,143.05,124.07,142.93,124.07,142.93z"/>
	</g>
	<g>
		<path class="st2" d="M130.85,168.96c0,0,97.82,54.67,18.9,121.59c-7.73,6.54-57.41-58.59-14.02-95.44
			c4.28-3.68,29.36,34.23,23.3,46.35c-3.57,7.13-6.3-22.94-22.11-23.3c-12.6-0.24-1.19,55.03,11.05,55.39
			c9.75,0.24,43.98-53.84-20.09-92.47C124.9,179.3,130.85,168.96,130.85,168.96z"/>
	</g>
	<g>
		<path class="st3" d="M156.76,175.97c0,0,96.39-57.17,114.81,44.57c1.78,9.98-79.39,20.32-89.73-35.66
			c-0.95-5.59,44.45-8.32,51.82,2.97c4.4,6.66-22.94-6.06-31.14,7.49c-6.54,10.93,47.07,28.64,53.36,18.18
			c5.11-8.2-24.6-65.01-90.09-28.76C162.94,186.31,156.76,175.97,156.76,175.97z"/>
	</g>
	<g>
		<path class="st4" d="M175.89,157.07c0,0-1.43-111.96,95.91-77.14c9.63,3.45-21.99,79.04-75.71,59.9
			c-5.23-1.9,14.98-42.55,28.52-43.38c7.96-0.48-16.76,16.88-9.03,30.78c6.06,11.05,48.14-26.5,42.43-37.2
			c-4.64-8.56-68.7-11.17-70,63.59C187.9,157.07,175.89,157.07,175.89,157.07z"/>
	</g>
	<g>
		<path class="st5" d="M169.12,131.16c0,0-97.82-54.79-18.9-121.7c7.73-6.54,57.41,58.59,14.02,95.56
			c-4.28,3.57-29.36-34.35-23.3-46.47c3.57-7.01,6.3,23.06,22.11,23.3c12.6,0.24,1.19-55.03-10.93-55.39
			c-9.75-0.24-43.98,53.96,19.97,92.47C175.06,120.7,169.12,131.16,169.12,131.16z"/>
	</g>
</g>
</svg>
