<?xml version="1.0" encoding="utf-8"?>
<!-- Generator: Adobe Illustrator 24.0.1, SVG Export Plug-In . SVG Version: 6.00 Build 0)  -->
<svg version="1.1" id="Layer_1" xmlns="http://www.w3.org/2000/svg" xmlns:xlink="http://www.w3.org/1999/xlink" x="0px" y="0px"
	 viewBox="0 0 300 300" style="enable-background:new 0 0 300 300;" xml:space="preserve">
<style type="text/css">
	.st0{fill:#F99E1E;}
	.st1{fill:#792E8F;}
	.st2{fill:#80C343;}
	.st3{fill:#EC1E3C;}
	.st4{fill:#F15B25;}
	.st5{fill:#BD1E8D;}
	.st6{fill:#EACC1E;}
	.st7{fill:#01A379;}
</style>
<g>
	<path class="st0" d="M148.9,125.45l5.86,5.86l-7.66,0.04L148.9,125.45z M55.6,134.55H43.1c-0.05,30.46,12.05,59.68,33.6,81.2
		l8.9-8.8C66.33,187.79,55.53,161.72,55.6,134.55z M158,19.55c-30.51-0.03-59.77,12.09-81.3,33.7l8.9,8.8
		c19.16-19.27,45.23-30.07,72.4-30V19.55z M76.4,134.55h44.24l8.87-28.49L100.2,76.75C84.28,92.73,76.35,113.65,76.4,134.55z"/>
	<path class="st1" d="M272.9,134.55c0.05,30.46-12.05,59.68-33.6,81.2l-8.9-8.8c4.82-4.79,9.11-10.01,12.83-15.57
		c0.93-1.39,1.83-2.8,2.68-4.23c2.15-3.58,4.07-7.28,5.76-11.09c0.68-1.52,1.31-3.06,1.91-4.62c1.5-3.88,2.76-7.86,3.77-11.91
		c0.41-1.62,0.77-3.25,1.1-4.89c0.16-0.82,0.32-1.64,0.46-2.47c0.29-1.65,0.53-3.31,0.73-4.98c0.2-1.67,0.37-3.34,0.49-5.03
		c0.18-2.52,0.27-5.06,0.26-7.61H272.9z M239.59,134.55H195.2l14.3,46.4v0.2c0,1.33-1.07,2.4-2.39,2.41c-0.01,0-0.01,0-0.02,0
		l8.55,8.54c0.05-0.05,0.1-0.1,0.15-0.15C231.62,176.08,239.54,155.32,239.59,134.55z"/>
	<path class="st2" d="M260.4,134.55c0.1-27.21-10.7-53.32-30-72.5l8.9-8.8c21.58,21.54,33.67,50.81,33.6,81.3L260.4,134.55
		L260.4,134.55L260.4,134.55L260.4,134.55z M158,52.75v20.3c5.61,0.01,10.24,0.51,13.6,1.6c3.4,1.1,6.3,3.9,7.7,8.3l7.14,23.16
		l0.46-0.46l28.89-28.89c-0.04-0.04-0.07-0.08-0.11-0.11c-0.4-0.4-0.81-0.77-1.21-1.16c-0.58-0.56-1.16-1.12-1.75-1.66
		c-0.27-0.24-0.55-0.47-0.82-0.71c-0.75-0.66-1.49-1.31-2.26-1.94c-0.13-0.11-0.26-0.2-0.4-0.31C194.8,59.2,176.74,52.75,158,52.75
		C158,52.75,158,52.75,158,52.75z M161.27,131.28l5.61-5.61l-8.78-28.42c-0.05-0.15-0.08-0.3-0.1-0.45v34.5L161.27,131.28z"/>
	<path class="st3" d="M158,154.75v61.2c-20.84,0-41.68-7.93-57.6-23.8c-0.02-0.02-0.03-0.03-0.05-0.05l8.56-8.55h19.48
		c1.61,0.04,3.02-1.04,3.4-2.6l7.9-25.6c0.2-0.6,0.3-0.6,0.5-0.6H158z M108.9,183.55c-1.32,0.17-2.52-0.77-2.68-2.08
		c-0.01-0.11-0.02-0.21-0.02-0.32v-0.2l14.44-46.4H76.4c0.05,20.84,8.04,41.66,23.95,57.55l8.56-8.55H108.9z M215.8,192.25
		c-0.96,0.96-1.93,1.9-2.93,2.8c-1,0.91-2.02,1.79-3.06,2.64c-2.08,1.71-4.23,3.31-6.45,4.79c-7.77,5.2-16.38,9.02-25.43,11.3
		c-1.49,0.37-2.98,0.69-4.49,0.98c-2.28,0.44-4.59,0.79-6.92,1.03c-0.25,0.03-0.49,0.05-0.74,0.08c-2.58,0.25-5.17,0.38-7.79,0.38
		v76.7c2.67,0,5.24-1.08,7.1-3l74.2-74.2l-8.9-8.8L215.8,192.25z"/>
	<path class="st4" d="M158,216.25v76.7c-2.67,0-5.24-1.08-7.1-3l-74.2-74.2l8.9-8.8l14.6-14.7
		C115.5,207.62,136.31,216.26,158,216.25L158,216.25L158,216.25z"/>
	<path class="st5" d="M207.09,183.56l8.55,8.54c-15.92,15.9-36.78,23.85-57.65,23.85v-61.2h17.5c0.2,0,0.3,0,0.5,0.5l7.9,25.9
		c0.48,1.46,1.86,2.43,3.4,2.4h19.6C206.96,183.56,207.03,183.56,207.09,183.56z M260.4,134.55h-20.7l0,0v0
		c0.03,21.65-8.57,42.42-23.9,57.7l14.6,14.7c4.82-4.79,9.11-10.01,12.83-15.57c0.93-1.39,1.83-2.8,2.68-4.23
		c2.15-3.58,4.07-7.28,5.76-11.09c0.68-1.52,1.31-3.06,1.91-4.62c1.5-3.88,2.76-7.86,3.77-11.91c0.41-1.62,0.77-3.25,1.1-4.89
		c0.16-0.82,0.32-1.64,0.46-2.47c0.29-1.65,0.53-3.31,0.73-4.98c0.2-1.67,0.37-3.34,0.49-5.03
		C260.32,139.64,260.41,137.1,260.4,134.55L260.4,134.55z"/>
	<path class="st6" d="M73.3,53.25c-20.93,20.83-32.67,49.17-32.6,78.7H27.1c-0.02-33.13,13.15-64.9,36.6-88.3L73.3,53.25z M158,96.8
		c-0.03-0.15-0.05-0.3-0.1-0.45c-0.11,0.34-0.24,0.68-0.4,1l-8.6,28.1l5.86,5.86l3.24-0.02V96.8z M136.7,82.95
		c1.3-4.4,3.9-7.2,7.6-8.3c3.7-1.1,7.8-1.6,13.5-1.6c0.07,0,0.13,0,0.2,0v-20.3c-21.69-0.01-42.5,8.63-57.8,24l29.31,29.31
		L136.7,82.95z M100.2,76.75l-14.6-14.7c-19.3,19.18-30.1,45.29-30,72.5h20.7C76.25,112.87,84.85,92.07,100.2,76.75z"/>
	<path class="st7" d="M161.27,131.28l5.61-5.61l1.72,5.58L161.27,131.28z M244.3,40.75C222.77,19.14,193.51,7.02,163,7.05v12.5
		c27.17-0.07,53.24,10.73,72.4,30L244.3,40.75z M186.44,106.11l0.46-0.46l28.89-28.89c15.91,15.97,23.85,36.89,23.8,57.79H195.2
		L186.44,106.11z M158,52.75v-20.7c27.17-0.07,53.24,10.73,72.4,30l-14.6,14.7v0l0,0c-0.04-0.04-0.08-0.07-0.11-0.11
		c-0.03-0.03-0.06-0.06-0.09-0.09c-0.37-0.36-0.75-0.71-1.12-1.06c-0.58-0.56-1.16-1.12-1.75-1.66c-0.27-0.24-0.55-0.47-0.82-0.71
		c-0.75-0.66-1.49-1.31-2.26-1.94c-0.13-0.11-0.26-0.2-0.4-0.31c-9.22-7.45-19.91-12.78-31.31-15.65c-2.59-0.65-5.21-1.18-7.86-1.57
		C166.1,53.05,162.07,52.75,158,52.75z"/>
</g>
</svg>
