<?xml version="1.0" encoding="utf-8"?>
<!-- Generator: Adobe Illustrator 24.0.1, SVG Export Plug-In . SVG Version: 6.00 Build 0)  -->
<svg version="1.1" id="Layer_1" xmlns="http://www.w3.org/2000/svg" xmlns:xlink="http://www.w3.org/1999/xlink" x="0px" y="0px"
	 viewBox="0 0 300 300" style="enable-background:new 0 0 300 300;" xml:space="preserve">
<style type="text/css">
	.st0{fill:#57AF47;}
	.st1{fill:#F78D24;}
</style>
<g id="Layer_2_1_">
	<g>
		<path class="st0" d="M52.62,217.25L148.2,10.99l47.4,101.31c0,0,36.07-6.12,48.7,3.78c0,0-37.5-6.64-75,22.01l-29.56-69.93
			L72.68,213.09c0,0,27.74-2.86,36.2,4.69c0,0-3.39-9.9-24.87-13.67c0,0,45.97-30.86,74.09-14.97c0,0-4.69-14.97-31.9-13.54
			c0,0,35.16-31.38,67.97-20.18c0,0-7.94-9.38-20.7-8.85c0,0,46.49-39.46,113.94-17.45c0,0-40.76-5.08-106.91,76.96
			C118.25,289,41.29,267.91,9,217.77C9,217.77,35.69,223.89,52.62,217.25z"/>
		<g>
			<path class="st1" d="M277.11,139.51c0,0-42.71,25.26-52.48,47.79l21.49,37.89c0,0,10.81,16.41,30.99,16.02v6.12H180.1v-4.69
				c0,0,30.86-1.43,24.87-21.62s-5.73-18.75-5.73-18.75S237.27,147.85,277.11,139.51z"/>
		</g>
	</g>
</g>
</svg>
