<?xml version="1.0" encoding="utf-8"?>
<!-- Generator: Adobe Illustrator 24.0.1, SVG Export Plug-In . SVG Version: 6.00 Build 0)  -->
<svg version="1.1" id="Layer_1" xmlns="http://www.w3.org/2000/svg" xmlns:xlink="http://www.w3.org/1999/xlink" x="0px" y="0px"
	 viewBox="0 0 300 300" style="enable-background:new 0 0 300 300;" xml:space="preserve">
<style type="text/css">
	.st0{fill:#1A1A1A;}
	.st1{fill:#E4314A;}
</style>
<g>
	<path class="st0" d="M49.47,224.54"/>
	<path class="st1" d="M136.28,254.17c-8.14,0.08-16.26-0.78-24.21-2.54c-15.1-3.34-28.93-9.57-40.58-19.71
		c-0.99-0.83-1.94-1.7-2.87-2.59c24.09,3.5,49.05-1.02,72.5-7.2l-22.13,11.76c18.21,0.12,37-9.91,47.73-24.55
		c-13.37,1.04-26.98,2.31-40.81,3.69l-15.22,1.61c-12.1,6.69-26.17,9.68-41.38,10.03c-1.64,0.08-3.28,0.11-4.92,0.12
		c-3.75-4.49-6.8-9.54-9.03-14.99c-3.54-8.32-4.54-17.51-2.88-26.4c2.09-10.13,7.1-19.43,14.41-26.74
		c4.23-4.26,8.96-8.02,14.06-11.18c-5.39,1.67-10.64,3.79-15.68,6.34c-9.11,4.96-17.18,11.3-23.29,19.71
		c-7.61,10.26-10.95,21.67-9.45,34.47c1.02,8.3,4.15,16.2,9.11,22.94c7.15,10.14,16.6,17.41,27.44,22.94
		c7.15,3.62,14.75,6.29,22.59,7.95c5.19,0.92,10.26,1.84,15.45,2.31c3.99,0.33,8,0.37,11.99,0.12c2.58,0.08,5.17-0.08,7.72-0.46
		c5.99-1.04,12.1-2.19,18.1-3.69c6.34-1.68,12.43-4.2,18.1-7.49h-1.04C153.61,252.93,144.97,254.13,136.28,254.17z"/>
	<path class="st0" d="M205.44,153.88c-4.81-9.84-13.93-16.87-24.67-19.02l1.04-1.5c10.72-12.91,21.21-25.82,32.05-38.62
		c17.41-20.4,35.28-40.23,54.76-58.68c6.69-6.46,13.72-12.57,20.63-18.91c0.35-0.35,0.69-0.92,1.27-1.04
		c0.72-0.19,1.49-0.15,2.19,0.12c0.48,0.58,0.69,1.33,0.58,2.08c-0.44,1.19-0.98,2.35-1.61,3.46c-9.8,19.36-20.69,38.14-32.62,56.26
		c-15.79,24.32-32.28,48.3-49.92,71.47l-3.11,4.73L205.44,153.88z M178.81,178.43c-3.62-5.43-8.99-9.46-15.22-11.41
		c0.12-0.35,0.12-0.69,0.23-0.92c2.85-8.1,6.64-15.84,11.3-23.06c0.41-0.8,1.33-1.19,2.19-0.92c10.72,1.61,18.1,7.38,22.13,17.41
		c0.14,0.54,0.1,1.1-0.12,1.61c-5.97,6.51-12.71,12.28-20.06,17.18L178.81,178.43z M166.94,177.16c-6.92-4.96-16.14-4.27-23.29,2.08
		c-2.62,2.23-4.84,4.88-6.57,7.84c-5.95,11.55-15.12,21.12-26.4,27.55l15.22-1.73c13.83-1.38,27.44-2.65,40.81-3.69
		c2.1-2.87,3.88-5.96,5.3-9.22C175.82,191.23,173.74,181.89,166.94,177.16z M193.34,267.2c-8.13,4.63-16.8,8.23-25.82,10.72
		c-8.42,2.19-17.18,3.8-25.82,5.3c-3.63,0.48-7.29,0.67-10.95,0.58c-5.68,0.31-11.38,0.27-17.06-0.12
		c-7.43-0.76-14.82-1.91-22.13-3.46c-11.19-2.27-22.01-6.07-32.16-11.3c-15.56-7.84-29.05-18.21-39.19-32.62
		c-6.92-9.91-11.64-20.75-13.03-32.85c-2.08-18.21,2.65-34.47,13.49-49.11c8.76-12.1,20.17-21.1,33.32-28.13
		c7.16-3.72,14.64-6.77,22.36-9.11c-7.3,4.48-14.03,9.82-20.06,15.91c-10.49,10.84-17.75,23.52-20.63,38.27
		c-2.54,12.91-0.81,25.48,4.03,37.58c5.05,12.22,12.96,23.05,23.06,31.59c16.72,14.64,36.31,23.52,57.98,28.13
		c11.31,2.54,22.88,3.78,34.47,3.69c12.43-0.01,24.8-1.72,36.77-5.07C192.19,267.08,192.42,267.2,193.34,267.2z"/>
</g>
</svg>
