<?xml version="1.0" encoding="utf-8"?>
<!-- Generator: Adobe Illustrator 24.0.1, SVG Export Plug-In . SVG Version: 6.00 Build 0)  -->
<svg version="1.1" id="Layer_1" xmlns="http://www.w3.org/2000/svg" xmlns:xlink="http://www.w3.org/1999/xlink" x="0px" y="0px"
	 viewBox="0 0 300 300" style="enable-background:new 0 0 300 300;" xml:space="preserve">
<style type="text/css">
	.st0{fill:url(#SVGID_1_);}
	.st1{opacity:0.75;}
	.st2{fill:#005D97;}
	.st3{fill:#FFCD06;}
	.st4{fill:#8C56A3;}
	.st5{fill:#8C328B;}
	.st6{fill:#BBD867;}
	.st7{fill:#1FAFB5;}
	.st8{fill:#D44194;}
</style>
<g>
	<g id="Layer_1_1_">
		<g>
			<g>
				
					<linearGradient id="SVGID_1_" gradientUnits="userSpaceOnUse" x1="147.9026" y1="285.8818" x2="147.9026" y2="186.8987" gradientTransform="matrix(1 0 0 -1 0 300)">
					<stop  offset="0" style="stop-color:#009EDD"/>
					<stop  offset="0.15" style="stop-color:#009ED8"/>
					<stop  offset="0.32" style="stop-color:#009FCA"/>
					<stop  offset="0.51" style="stop-color:#00A0B2"/>
					<stop  offset="0.7" style="stop-color:#00A292"/>
					<stop  offset="0.9" style="stop-color:#00A568"/>
					<stop  offset="1" style="stop-color:#00A651"/>
				</linearGradient>
				<path class="st0" d="M155.35,69.74V52.37c0.03-3.51,1.74-6.8,4.59-8.85c8.34-5.87,10.35-17.39,4.48-25.73
					c-3.65-5.19-9.72-8.15-16.06-7.82c-10.18,0.64-17.91,9.41-17.27,19.59c0.36,5.66,3.3,10.85,7.98,14.06
					c2.83,2,4.51,5.27,4.48,8.74v17.37c0.03,2.56-1.84,4.75-4.37,5.14c-11.88,1.59-23.18,6.09-32.89,13.11
					c-0.87,0.64-1.06,1.86-0.44,2.73l5.14,6.77c0.63,0.8,1.77,0.99,2.62,0.44c20.51-14.59,47.8-15.32,69.06-1.86
					c0.79,0.56,1.88,0.36,2.44-0.43c0.03-0.04,0.05-0.08,0.08-0.12l4.81-7.1c0.58-0.85,0.36-2-0.48-2.58
					c-0.02-0.01-0.04-0.03-0.06-0.04c-8.94-5.79-19.05-9.52-29.61-10.93C157.28,74.5,155.38,72.33,155.35,69.74z"/>
				<g>
					<g class="st1">
						<path class="st2" d="M155.35,69.74V52.37c0.03-3.51,1.74-6.8,4.59-8.85c8.34-5.87,10.35-17.39,4.48-25.73
							c-3.65-5.19-9.72-8.15-16.06-7.82c-10.18,0.64-17.91,9.41-17.27,19.59c0.36,5.66,3.3,10.85,7.98,14.06
							c2.83,2,4.51,5.27,4.48,8.74v17.37c0.03,2.56-1.84,4.75-4.37,5.14c-11.88,1.59-23.18,6.09-32.89,13.11
							c-0.87,0.64-1.06,1.86-0.44,2.73l5.14,6.77c0.63,0.8,1.77,0.99,2.62,0.44c20.51-14.59,47.8-15.32,69.06-1.86
							c0.79,0.56,1.88,0.36,2.44-0.43c0.03-0.04,0.05-0.08,0.08-0.12l4.81-7.1c0.58-0.85,0.36-2-0.48-2.58
							c-0.02-0.01-0.04-0.03-0.06-0.04c-8.94-5.79-19.05-9.52-29.61-10.93C157.28,74.5,155.38,72.33,155.35,69.74z"/>
					</g>
				</g>
			</g>
			<path class="st3" d="M289.97,148.31c-0.6-10.12-9.29-17.84-19.41-17.24c-5.71,0.34-10.94,3.32-14.14,8.06
				c-2,2.83-5.27,4.51-8.74,4.48h-59.55c-1.63-0.01-3.03-1.14-3.39-2.73c-0.75-3.31-1.93-6.5-3.5-9.51
				c-2.8-5.11-6.77-9.49-11.58-12.78c-5.99-3.98-13.02-6.1-20.21-6.12c-4.81-0.02-9.57,0.95-13.99,2.84
				c-2.19,0.91-4.27,2.05-6.23,3.39c-1,0.66-2.33,0.52-3.17-0.33l-41.3-41.19c-2.5-2.48-3.61-6.04-2.95-9.51
				c1.77-9.98-4.88-19.51-14.86-21.29s-19.51,4.88-21.29,14.86s4.88,19.51,14.86,21.29c2.13,0.38,4.3,0.38,6.43,0
				c3.43-0.68,6.97,0.43,9.4,2.95l41.74,41.63c0.76,0.84,0.89,2.08,0.33,3.06c-5.92,10.04-6.65,22.32-1.97,33
				c0.45,1.06,1.66,1.55,2.72,1.11c0.25-0.11,0.48-0.26,0.67-0.45c2.29-1.97,4.37-3.82,6.56-5.46c0.75-0.6,1.01-1.62,0.66-2.51
				c-0.9-2.33-1.35-4.82-1.31-7.32c-0.01-3.15,0.63-6.28,1.86-9.18c1.83-4.24,4.82-7.88,8.63-10.49c3.91-2.62,8.51-4.03,13.22-4.04
				c4.74,0.02,9.38,1.42,13.33,4.04c3.11,2.2,5.69,5.08,7.54,8.41c1.88,3.45,2.86,7.32,2.84,11.25c0.01,3.19-0.63,6.35-1.86,9.29
				c-3.38,8.06-10.96,13.57-19.67,14.31c-1.22,0.16-2.14,1.18-2.19,2.4v7.65c0.06,1.39,1.23,2.46,2.62,2.4c0,0,0,0,0,0
				c3.95-0.32,7.83-1.28,11.47-2.84c10.2-4.29,17.86-13.03,20.76-23.71c0.39-1.51,1.72-2.57,3.28-2.62h60.1
				c3.49,0.02,6.75,1.73,8.74,4.59c5.86,8.34,17.38,10.36,25.72,4.5C287.38,160.82,290.34,154.69,289.97,148.31L289.97,148.31z"/>
			<path class="st4" d="M147.6,130.82c-9.8,0.9-17.01,9.57-16.11,19.36c0.13,1.44,0.44,2.87,0.92,4.24c0.76,2.58,0.1,5.37-1.75,7.32
				l-53.54,53.54c-2.48,2.5-6.04,3.61-9.51,2.95c-5.94-1.11-12.05,0.82-16.28,5.14c-7.11,7.22-7.03,18.84,0.19,25.96
				c7.22,7.11,18.84,7.03,25.96-0.19c4.19-4.25,6.05-10.28,4.99-16.15c-0.6-3.43,0.5-6.93,2.95-9.4l55.07-54.96
				c1.58-1.64,3.88-2.38,6.12-1.97c1.66,0.26,3.35,0.29,5.03,0.11c9.84-1.86,16.32-11.35,14.46-21.19
				C164.43,136.76,156.56,130.49,147.6,130.82L147.6,130.82z"/>
			<path class="st5" d="M249.76,223.04c-4.29-4.6-10.65-6.66-16.83-5.46c-3.44,0.55-6.94-0.58-9.4-3.06l-15.19-15.19
				c-1.29-1.34-1.43-3.42-0.33-4.92c1.09-1.31,2.19-2.84,3.17-4.26c5.7-8.44,9.61-17.96,11.47-27.97c0.24-1.18-0.52-2.34-1.7-2.58
				c-0.16-0.03-0.32-0.05-0.48-0.04h-8.09c-1.05-0.02-1.97,0.71-2.19,1.75c-0.82,3.89-1.99,7.69-3.5,11.36
				c-4.76,11.06-12.56,20.53-22.51,27.32c-6.63,4.52-14.1,7.68-21.96,9.29c-1.02,0.16-1.76,1.05-1.75,2.08v8.3
				c0.05,1.21,1.06,2.15,2.27,2.1c0.08,0,0.16-0.01,0.25-0.02c5.29-0.96,10.45-2.5,15.41-4.59c5.95-2.59,11.56-5.89,16.72-9.83
				c1.47-1.09,3.5-0.95,4.81,0.33l15.3,15.3c2.5,2.44,3.61,5.97,2.95,9.4c-1.87,10.02,4.74,19.67,14.76,21.54
				c10.02,1.87,19.67-4.74,21.54-14.76C255.57,233.31,253.81,227.34,249.76,223.04L249.76,223.04z"/>
			<path class="st6" d="M229.65,85.7c-3.7,4.77-9.48,7.46-15.52,7.21c-3.5-0.11-6.84,1.47-8.96,4.26l-11.04,14.64
				c-0.82,1.1-1.02,2.54-0.55,3.82c2.78,3.57,5.06,7.5,6.77,11.69c1.43,3.3,2.53,6.75,3.28,10.27c0.12,0.9-0.51,1.72-1.41,1.84
				c-0.08,0.01-0.16,0.02-0.23,0.01h-9.62c-0.75,0.07-1.42-0.46-1.53-1.2c-2.79-11.38-10.19-21.08-20.43-26.77l-4.15-2.08
				c-5.27-2.16-10.91-3.28-16.61-3.28c-7.75-0.04-15.35,2.08-21.96,6.12c-0.79,0.39-1.74,0.26-2.4-0.33l-6.12-6.12
				c-0.76-0.86-0.69-2.17,0.17-2.93c0.05-0.05,0.1-0.09,0.16-0.13c2.76-1.84,5.68-3.42,8.74-4.7c6.77-2.89,14.06-4.38,21.42-4.37
				h2.84c8.63,0.44,17.02,2.95,24.48,7.32h0.11c0.06,0,0.11,0.05,0.11,0.11c0,0,0,0,0,0l3.28,1.97l0.66,0.55
				c1.71,1.02,3.92,0.6,5.14-0.98l9.51-12.67c2.19-2.7,2.85-6.32,1.75-9.62c-3.27-9.66,1.92-20.14,11.58-23.41
				c9.66-3.27,20.14,1.92,23.41,11.58C234.49,74.36,233.42,80.81,229.65,85.7L229.65,85.7z M110.45,132.14
				c0.44-1.09,0.87-2.08,1.42-3.17c0.46-0.87,0.28-1.95-0.44-2.62l-5.79-5.79c-0.93-0.86-2.38-0.82-3.24,0.11
				c-0.09,0.1-0.18,0.21-0.25,0.33c-8.64,15.01-9.81,33.18-3.17,49.17c1.29,3,2.82,5.89,4.59,8.63c0.8,1.13,2.37,1.4,3.5,0.6
				c0.11-0.08,0.22-0.17,0.32-0.27l5.35-5.35c0.81-0.76,0.99-1.98,0.44-2.95C106.13,159.1,105.12,144.72,110.45,132.14z"/>
			<path class="st7" d="M189.01,165.35c-3.2,7.63-8.55,14.16-15.41,18.79c-7.07,4.76-15.4,7.31-23.93,7.32
				c-5.71,0.01-11.36-1.15-16.61-3.39l-2.73-1.31c-0.92-0.41-1.99-0.24-2.73,0.44l-5.57,5.68c-0.93,0.95-0.91,2.47,0.04,3.4
				c0.12,0.12,0.26,0.22,0.4,0.32c5.78,3.29,12.11,5.52,18.68,6.56c1.99,0.32,3.47,2.02,3.5,4.04v40.54
				c-0.02,3.49-1.73,6.75-4.59,8.74c-8.34,5.87-10.35,17.39-4.48,25.73c3.65,5.19,9.72,8.15,16.06,7.82
				c9.46-0.66,16.9-8.34,17.26-17.81c0.24-6.27-2.77-12.22-7.98-15.73c-2.85-2.01-4.56-5.26-4.59-8.74v-40.87
				c0.07-2,1.53-3.68,3.5-4.04c3.88-0.66,7.66-1.8,11.25-3.39c9.85-4.13,18.28-11.04,24.26-19.89c3.55-5.31,6.17-11.19,7.76-17.37
				c0.24-1.18-0.52-2.34-1.7-2.58c-0.12-0.03-0.25-0.04-0.37-0.04h-8.41c-0.91,0.02-1.73,0.58-2.08,1.42
				C190.14,162.48,189.63,163.94,189.01,165.35z"/>
			<path class="st8" d="M97.99,183.27l0.66,0.87c0.88,1.25,0.74,2.95-0.33,4.04l-4.26,4.37c-1.25,1.22-3.26,1.2-4.48-0.05
				c-0.12-0.12-0.23-0.25-0.33-0.39c-7.05-9.64-11.63-20.85-13.33-32.67c-0.27-1.73-1.74-3.03-3.5-3.06h-20.1
				c-3.5-0.04-6.79,1.68-8.74,4.59c-5.67,8.4-17.08,10.62-25.48,4.94c-4.77-3.22-7.75-8.49-8.06-14.23
				c-0.59-10.18,7.18-18.92,17.36-19.51c6.39-0.37,12.51,2.59,16.19,7.82c1.95,2.91,5.24,4.63,8.74,4.59h19.67
				c1.79,0,3.27-1.38,3.39-3.17c0.22-1.31,0.33-2.73,0.55-4.04c0.19-1.68,1.7-2.89,3.38-2.71c0.15,0.02,0.3,0.04,0.45,0.08
				l5.79,1.09c1.67,0.27,2.8,1.84,2.53,3.51c-0.01,0.03-0.01,0.06-0.02,0.1c-0.39,3.01-0.6,6.04-0.66,9.07
				C87.44,160.9,91.12,172.98,97.99,183.27z M140.49,211.57c0.01-0.95-0.7-1.75-1.64-1.86c-4.65-0.83-9.2-2.19-13.55-4.04
				c-3.19-1.34-6.26-2.95-9.18-4.81c-0.78-0.46-1.77-0.32-2.4,0.33l-6.12,6.12c-0.77,0.68-0.84,1.85-0.16,2.62
				c0.11,0.13,0.24,0.24,0.38,0.33l0,0c9.13,6.13,19.5,10.16,30.38,11.8c1,0.24,2-0.37,2.24-1.37c0.04-0.16,0.06-0.33,0.05-0.49
				V211.57z"/>
		</g>
	</g>
</g>
</svg>
