<?xml version="1.0" encoding="utf-8"?>
<!-- Generator: Adobe Illustrator 24.0.1, SVG Export Plug-In . SVG Version: 6.00 Build 0)  -->
<svg version="1.1" id="Layer_1" xmlns="http://www.w3.org/2000/svg" xmlns:xlink="http://www.w3.org/1999/xlink" x="0px" y="0px"
	 viewBox="0 0 300 300" style="enable-background:new 0 0 300 300;" xml:space="preserve">
<style type="text/css">
	.st0{fill:#C83627;}
	.st1{opacity:0.2;fill:#351231;enable-background:new    ;}
	.st2{fill:#EF4823;}
	.st3{fill:#F58021;}
	.st4{fill:#F26922;}
	.st5{fill:#FAD01D;}
	.st6{fill:#008660;}
	.st7{fill:#007855;}
	.st8{fill:#03B178;}
	.st9{fill:#7B53A2;}
	.st10{fill:#7F3F98;}
	.st11{fill:#A667AB;}
	.st12{fill:#4376BB;}
	.st13{fill:#406AB3;}
	.st14{fill:#48A0D9;}
</style>
<g>
	<path class="st0" d="M212.16,108.81c4.28-4.47,9.24-8.24,14.7-11.16c0.19,1.18,0.34,2.36,0.46,3.54
		c-0.1-18.86-6.7-33.53-16.88-35.07c-12.56-1.9-25.82,16.87-29.61,41.93c-3.8,25.06,3.31,46.91,15.86,48.82
		c0.14,0.02,0.28,0.03,0.42,0.04C194.43,139.42,199.96,121.66,212.16,108.81z"/>
	<path class="st1" d="M197.1,156.9c0.05,0.32,0.08,0.64,0.13,0.96c0.53-0.28,1.04-0.59,1.56-0.88
		C198.23,156.99,197.67,156.96,197.1,156.9z"/>
	<path class="st0" d="M227.32,101.19c-0.12-1.18-0.27-2.37-0.46-3.54c-5.46,2.92-10.42,6.69-14.7,11.16
		c-12.19,12.85-17.72,30.61-15.05,48.09c0.56,0.06,1.13,0.09,1.69,0.08c9.95-5.67,17.86-14.13,22.86-24.18
		c2.06-5.38,3.67-11.41,4.65-17.87C227.02,110.2,227.34,105.58,227.32,101.19z"/>
	<path class="st1" d="M227.32,101.19c-0.12-1.18-0.27-2.37-0.46-3.54c-5.46,2.92-10.42,6.69-14.7,11.16
		c-12.19,12.85-17.72,30.61-15.05,48.09c0.56,0.06,1.13,0.09,1.69,0.08c9.95-5.67,17.86-14.13,22.86-24.18
		c2.06-5.38,3.67-11.41,4.65-17.87C227.02,110.2,227.34,105.58,227.32,101.19z"/>
	<path class="st2" d="M228.75,107.76c25.07-15.24,51.59-17.42,59.22-4.86s-6.5,35.1-31.57,50.34
		c-25.07,15.24-51.59,17.42-59.22,4.86S203.68,123,228.75,107.76z M250.47,92.92c-4.71,2.8-10.45,3.28-15.56,1.29
		c0.54-5.45,3.59-10.34,8.26-13.2c4.68-2.92,10.47-3.4,15.56-1.29C258.18,85.17,255.13,90.05,250.47,92.92z M263.01,159.13
		c7.68-0.64,14.16,1.94,14.49,5.78c0.32,3.84-5.64,7.47-13.32,8.12c-7.68,0.64-14.16-1.94-14.49-5.78
		C249.36,163.41,255.33,159.77,263.01,159.13z M245.75,63.3c-1.52,7.07-6.3,13-12.88,15.99c-8.29-9.52-7.29-23.96,2.23-32.25
		c1.68-1.47,3.57-2.68,5.61-3.59C245.45,48.88,247.33,56.26,245.75,63.3z"/>
	<path class="st3" d="M211.62,213.45c0.31-0.06,0.61-0.13,0.92-0.2C212.23,213.32,211.93,213.38,211.62,213.45z"/>
	<path class="st3" d="M226.22,208.19c-1.99,1.05-4.03,1.97-6.13,2.77c12.91-4.89,23.75-14.34,30.27-26.81
		c-3.93-3.81-8.39-7.04-13.24-9.59c-27.98-14.68-62.56-3.9-77.24,24.07C181.74,187.19,208.48,191.04,226.22,208.19z"/>
	<path class="st3" d="M219.67,211.12c-0.61,0.23-1.22,0.45-1.84,0.65C218.45,211.57,219.06,211.35,219.67,211.12z"/>
	<path class="st3" d="M215.96,212.36c-0.47,0.14-0.94,0.27-1.41,0.39C215.02,212.62,215.49,212.49,215.96,212.36z"/>
	<path class="st1" d="M220.09,210.96c-0.14,0.05-0.28,0.11-0.42,0.16C219.81,211.07,219.95,211.02,220.09,210.96z"/>
	<path class="st1" d="M211.62,213.45c-0.96,0.2-1.92,0.39-2.9,0.54C209.69,213.84,210.66,213.65,211.62,213.45z"/>
	<path class="st1" d="M217.83,211.77c-0.62,0.21-1.25,0.4-1.87,0.58C216.58,212.17,217.21,211.98,217.83,211.77z"/>
	<path class="st1" d="M214.55,212.75c-0.67,0.18-1.34,0.35-2.01,0.5C213.21,213.09,213.88,212.93,214.55,212.75z"/>
	<path class="st4" d="M214.55,212.75c0.47-0.13,0.94-0.25,1.41-0.39c0.63-0.18,1.25-0.38,1.87-0.58c0.62-0.21,1.23-0.42,1.84-0.65
		c0.14-0.05,0.28-0.11,0.42-0.16c2.09-0.8,4.14-1.72,6.13-2.77c-17.74-17.16-44.47-21.01-66.33-9.55
		c12.92,12.58,31.04,18.28,48.83,15.35c0.97-0.15,1.94-0.34,2.9-0.54c0.31-0.06,0.61-0.13,0.92-0.2
		C213.21,213.09,213.88,212.92,214.55,212.75z"/>
	<path class="st5" d="M159.81,198.83c9.59-11.14,35.39-4.67,57.63,14.46s32.51,43.68,22.92,54.82s-35.39,4.67-57.63-14.46
		S150.22,209.97,159.81,198.83z M238.02,229.23c-4.15-3.63-6.37-8.99-6.01-14.49c5.37-1.16,10.98,0.27,15.13,3.86
		c4.23,3.52,6.48,8.89,6.01,14.38C247.8,234.16,242.21,232.77,238.02,229.23z M165.79,267.01c-2.15-5.06-1.76-10.85,1.07-15.56
		c9.27,2.26,14.95,11.62,12.69,20.89c-0.41,1.68-1.07,3.28-1.95,4.77C172.27,275.82,167.88,272.07,165.79,267.01z M264.75,215.6
		c-7.21,0.7-14.33-2.04-19.21-7.41c6.59-10.84,20.72-14.28,31.56-7.69c1.87,1.14,3.57,2.53,5.04,4.15
		C278.4,210.85,271.95,214.91,264.75,215.6z"/>
	<path class="st6" d="M150.87,206.11c-11.5-22.48-29.95-36.05-41.25-30.37c12.84,12.64,18.98,30.58,16.57,48.44
		c-0.77,6.12-2.55,12.06-5.26,17.6c-4.44-4.3-8.13-9.31-10.95-14.81c-8.26-16.02-8.44-35-0.49-51.16
		c-11.23,5.83-11.02,28.73,0.49,51.23c11.53,22.53,30.03,36.11,41.32,30.33C162.59,251.6,162.4,228.65,150.87,206.11z"/>
	<path class="st7" d="M109.98,226.98c2.81,5.5,6.51,10.51,10.95,14.81c2.71-5.54,4.49-11.48,5.26-17.6
		c2.42-17.86-3.73-35.8-16.57-48.44c-0.03,0.01-0.05,0.02-0.08,0.03c-0.02,0.01-0.04,0.02-0.06,0.03
		C101.54,191.98,101.72,210.96,109.98,226.98z"/>
	<path class="st8" d="M64.51,214.61c11.32-27.07,31.5-44.41,45.06-38.74s15.38,32.21,4.05,59.28s-31.5,44.41-45.06,38.74
		S53.19,241.68,64.51,214.61z M104.61,259.5c2.12-5.06,6.49-8.84,11.81-10.2c2.81,4.72,3.21,10.5,1.07,15.56
		c-2.05,5.11-6.45,8.92-11.81,10.2C102.93,270.32,102.53,264.57,104.61,259.5z M46.34,202.5c4.13-3.64,9.76-5.08,15.13-3.86
		c0.4,5.48-1.84,10.82-6.01,14.38c-4.16,3.59-9.76,5.02-15.13,3.86C39.95,211.41,42.18,206.08,46.34,202.5z M125.76,280.75
		c-2.92-6.63-2.48-14.25,1.18-20.5c7.01,1.61,12.84,6.48,15.67,13.09c2.9,6.62,2.5,14.22-1.07,20.5
		C134.51,292.2,128.67,287.35,125.76,280.75z"/>
	<path class="st9" d="M115.69,120.89C115.69,120.89,115.69,120.89,115.69,120.89C107.65,137,92.5,148.4,74.78,151.63
		c-6.06,1.12-12.26,1.23-18.35,0.32c2.43-4.88,5.54-9.38,9.25-13.37c-16.83,17.64-23.42,38.51-14.67,47.23
		c8.99,8.95,30.75,1.68,48.62-16.25C117.48,151.63,124.68,129.84,115.69,120.89z"/>
	<path class="st1" d="M115.78,120.72c-0.1-0.01-0.2-0.02-0.31-0.03c0.07,0.07,0.15,0.13,0.22,0.2
		C115.72,120.83,115.75,120.78,115.78,120.72z"/>
	<path class="st1" d="M68.01,136.22c-0.28,0.27-0.58,0.53-0.86,0.81c-0.51,0.51-1,1.02-1.49,1.55c0.46-0.48,0.93-0.97,1.41-1.45
		C67.39,136.83,67.7,136.53,68.01,136.22z"/>
	<path class="st10" d="M74.78,151.63c17.72-3.24,32.88-14.63,40.91-30.75c-0.07-0.07-0.15-0.13-0.22-0.2
		c-17.38-2.41-34.88,3.34-47.46,15.53c-0.31,0.31-0.63,0.61-0.94,0.92c-0.48,0.48-0.94,0.96-1.41,1.45
		c-3.7,3.99-6.82,8.49-9.25,13.37C62.52,152.86,68.72,152.76,74.78,151.63z"/>
	<path class="st11" d="M65.01,89.92c20.83,1.7,39.64,13.11,50.77,30.8c-24.26,27.45-66.18,30.03-93.62,5.77
		c-4.73-4.18-8.84-9.01-12.2-14.35C23.77,96.46,44.18,88.22,65.01,89.92z M34.53,141.97c5.47,0.48,10.4,3.5,13.31,8.16
		c-6.44,7.2-17.5,7.83-24.7,1.39c-1.19-1.07-2.24-2.29-3.1-3.64C23.68,143.75,29.04,141.57,34.53,141.97z M70.81,68.99
		c4.73,2.8,7.81,7.72,8.26,13.2c-5.11,1.99-10.85,1.51-15.56-1.29c-4.66-2.88-7.71-7.76-8.26-13.2
		C60.33,65.59,66.13,66.07,70.81,68.99z M20.9,168.7c5.39-4.83,12.76-6.82,19.86-5.37c0.65,7.22-2.18,14.31-7.62,19.1
		c-5.38,4.86-12.78,6.82-19.86,5.26C12.72,180.52,15.54,173.49,20.9,168.7z"/>
	<path class="st12" d="M122.68,63.01c5.83,1.01,11.5,2.83,16.81,5.44C134.14,65.74,128.47,63.94,122.68,63.01z"/>
	<path class="st12" d="M127.9,80.26c-2.92-5.43-4.94-11.29-6.01-17.36c-11.38-1.66-23.15,0.1-33.71,5.34
		c0.94,5.42,2.67,10.68,5.11,15.61c14.04,28.3,48.37,39.86,76.67,25.82C152.09,107.08,136.48,96.17,127.9,80.26z"/>
	<path class="st13" d="M169.98,109.67c-1.74-10-6.07-19.21-12.4-26.8c-1.41-1.69-2.91-3.3-4.5-4.82c-1.6-1.52-3.28-2.95-5.05-4.28
		c-2.66-2-5.51-3.78-8.52-5.31c-5.32-2.61-10.98-4.43-16.81-5.44c-0.26-0.04-0.52-0.08-0.78-0.12c1.06,6.07,3.09,11.93,6.01,17.36
		C136.48,96.17,152.09,107.08,169.98,109.67z"/>
	<path class="st14" d="M145.49,6.53c14.31-3.38,31.38,17.02,38.12,45.58c6.75,28.55,0.62,54.44-13.68,57.83
		c-14.31,3.38-31.38-17.02-38.12-45.58C125.05,35.8,131.18,9.91,145.49,6.53z M124.68,39.05c1.24,5.34-0.12,10.95-3.65,15.13
		c-5.05-2.14-8.76-6.57-9.98-11.91c-1.23-5.35,0.07-10.98,3.54-15.24C119.66,29.23,123.39,33.68,124.68,39.05z M205.39,50.96
		c-1.26,5.36-5.01,9.79-10.09,11.91c-6.15-7.45-5.1-18.48,2.35-24.63c1.24-1.03,2.62-1.88,4.09-2.52
		C205.3,39.94,206.65,45.59,205.39,50.96z M95.06,34.32c6.25,3.67,10.39,10.08,11.16,17.28c-11.71,4.88-25.16-0.66-30.03-12.37
		c-0.84-2.01-1.39-4.14-1.63-6.31C81.23,30.11,88.84,30.62,95.06,34.32z"/>
</g>
</svg>
