<?xml version="1.0" encoding="utf-8"?>
<!-- Generator: Adobe Illustrator 24.0.1, SVG Export Plug-In . SVG Version: 6.00 Build 0)  -->
<svg version="1.1" id="Layer_1" xmlns="http://www.w3.org/2000/svg" xmlns:xlink="http://www.w3.org/1999/xlink" x="0px" y="0px"
	 viewBox="0 0 300 300" style="enable-background:new 0 0 300 300;" xml:space="preserve">
<style type="text/css">
	.st0{fill:url(#SVGID_1_);}
	.st1{fill:#275A9A;}
	.st2{fill:#4687C7;}
	.st3{fill:url(#SVGID_2_);}
	.st4{fill:url(#SVGID_3_);}
	.st5{fill:url(#SVGID_4_);}
	.st6{fill:url(#SVGID_5_);}
	.st7{fill:#507834;}
	.st8{fill:url(#SVGID_6_);}
	.st9{fill:#F2652E;}
	.st10{fill:#F6872E;}
	.st11{fill:url(#SVGID_7_);}
	.st12{fill:#8DC641;}
</style>
<g>
	
		<linearGradient id="SVGID_1_" gradientUnits="userSpaceOnUse" x1="196.2617" y1="50.9601" x2="137.6756" y2="75.721" gradientTransform="matrix(1 0 0 -1 0 300)">
		<stop  offset="0.01" style="stop-color:#4687C7"/>
		<stop  offset="0.56" style="stop-color:#2B61A2"/>
		<stop  offset="1" style="stop-color:#19478A"/>
	</linearGradient>
	<path class="st0" d="M243.21,269.38c0.1-0.29,0.19-0.59,0.26-0.9C243.33,268.74,243.33,269.13,243.21,269.38z"/>
	<path class="st1" d="M244.36,265.93c0.25-0.53,0.42-1.09,0.51-1.66c0.16-0.27,0.25-0.58,0.26-0.9c0.23-0.54,0.4-1.09,0.51-1.66
		c0.13-0.26,0.13-0.64,0.26-0.9l0.38-1.66c0.13-0.38,0.13-0.64,0.26-1.02l0.38-1.66c0-0.26,0.13-0.64,0.13-0.9
		c0.14-0.55,0.22-1.1,0.26-1.66l0.26-1.02c0-0.51,0.13-1.02,0.13-1.66c0.12-0.33,0.16-0.68,0.13-1.02c0.13-0.51,0.13-1.02,0.26-1.54
		v-1.15c0.11-0.5,0.15-1.02,0.13-1.54c0.1-0.37,0.15-0.76,0.13-1.15v-6.66c0-0.51-0.13-1.02-0.13-1.54v-1.02
		c-0.13-0.64-0.13-1.15-0.26-1.66v-1.02c-0.13-0.51-0.13-1.15-0.26-1.79c-0.13-0.64-0.13-0.51-0.13-0.77s-0.13-1.28-0.26-1.92
		c-0.1-0.2-0.15-0.42-0.13-0.64l-0.38-2.18c-0.09-0.11-0.14-0.24-0.13-0.38c-0.13-0.77-0.38-1.54-0.51-2.3v-0.26
		c-0.15-0.83-0.37-1.64-0.64-2.43l0,0c-3.2-11.2-8.89-21.52-16.64-30.21h-0.13c-8.13-9.3-18.42-16.47-29.96-20.87l-0.38-0.26
		c-5.05-1.92-10.28-3.29-15.62-4.1h-0.13c-9.01-1.37-18.19-1.19-27.14,0.51c0.9,1.66,1.79,3.46,2.56,5.12s0.38,0.64,0.51,1.02
		l0.77,1.66c0.16,0.53,0.37,1.05,0.64,1.54c0.13,0.51,0.38,0.9,0.51,1.41l0.77,1.79l0,0c5.86-0.38,11.74-0.13,17.54,0.77l0,0
		c5.33,0.91,10.56,2.33,15.62,4.22h0.38c11.56,4.43,21.88,11.59,30.09,20.87l0,0c15.82,17.84,22.57,41.96,18.31,65.42
		c0.13-0.26,0.13-0.64,0.26-0.9s0.38-1.02,0.64-1.66C244.2,266.36,244.28,266.14,244.36,265.93z M11.47,133.42
		c0.13,0.64,0.38,1.15,0.51,1.79c0.16,0.27,0.25,0.58,0.26,0.9c0.26,0.51,0.38,1.02,0.64,1.66l0.38,0.77
		c0.13,0.58,0.35,1.14,0.64,1.66l0.38,0.9c0.16,0.53,0.37,1.05,0.64,1.54l0.38,0.9l0.77,1.54c0.12,0.32,0.29,0.63,0.51,0.9
		c0.13,0.5,0.35,0.98,0.64,1.41l0.51,1.02l0.77,1.28c0.26,0.31,0.47,0.66,0.64,1.02l0.77,1.28c0.26,0.31,0.47,0.66,0.64,1.02
		l0.77,1.15l0.77,1.15l0.77,1.02l0.9,1.15l0.64,0.9l1.02,1.15l0.64,0.9l1.15,1.28l0.64,0.77l1.15,1.28l0.64,0.51l1.28,1.41
		l0.51,0.51l1.54,1.41l0.38,0.38l1.66,1.54h0.26l2.05,1.66l0,0c9.05,7.26,19.65,12.34,30.98,14.85l0,0
		c12.06,2.84,24.64,2.66,36.62-0.51h0.38c5.24-1.28,10.31-3.17,15.11-5.63h0.13c4.07-2.07,7.97-4.47,11.65-7.17
		c3.61-2.8,6.99-5.88,10.11-9.22l-5.12-2.56l-1.02-0.51l-1.41-0.9l-1.54-0.9l-1.28-0.9l-1.54-1.02h-0.13
		c-4.51,3.77-9.45,6.99-14.72,9.6l0,0c-4.83,2.43-9.89,4.36-15.11,5.76h-0.51c-11.95,3.05-24.46,3.23-36.49,0.51h-0.13
		c-23.21-5.32-42.69-20.99-52.88-42.51c0.13,0.26,0.13,0.51,0.26,0.77c0.11,0.61,0.28,1.21,0.51,1.79
		C11.24,132.92,11.33,133.18,11.47,133.42z"/>
	<path class="st2" d="M224.9,203.96L224.9,203.96c-8.2-9.28-18.52-16.43-30.09-20.87h-0.38c-5.06-1.9-10.29-3.31-15.62-4.22l0,0
		c-5.8-0.89-11.68-1.15-17.54-0.77l0,0c1.51,4.13,2.71,8.37,3.58,12.67c4.85,0.41,9.65,1.26,14.34,2.56
		c3.08,0.76,6.12,1.7,9.09,2.82c18.08,7.04,33.21,20.05,42.89,36.87c6.75,11.63,10.62,24.72,11.27,38.15c0.27-0.49,0.48-1,0.64-1.54
		v-0.26C247.37,245.94,240.67,221.83,224.9,203.96z M185.59,203.19c-2.69-1.13-5.48-2.03-8.32-2.69c-3.73-1.04-7.54-1.77-11.39-2.18
		c0.51,4.29,0.64,8.62,0.38,12.93v0.38l0,0c-0.71,12.6-4.21,24.89-10.24,35.98c32.52,34.31,68.5,36.1,78.74,35.98
		C238.52,248.74,218.33,215.72,185.59,203.19z M63.32,172.59h0.13c12.03,2.71,24.54,2.54,36.49-0.51h0.51
		c5.22-1.4,10.28-3.33,15.11-5.76l0,0c5.27-2.61,10.21-5.83,14.72-9.6h0.13c-3.73-2.52-7.24-5.35-10.5-8.45
		c-4.2,2.52-8.61,4.66-13.19,6.4c-2.94,1.09-5.93,2.03-8.96,2.82c-32.5,8.43-66.91-3.06-87.83-29.32c0.11,0.57,0.28,1.13,0.51,1.66
		v0.26C20.63,151.61,40.12,167.27,63.32,172.59z M95.84,150.32c2.82-0.77,5.63-1.66,8.32-2.69c3.6-1.31,7.07-2.93,10.37-4.87
		c-2.81-3.22-5.38-6.64-7.68-10.24c-0.13-0.13-0.26-0.26-0.26-0.38h-0.13c-6.78-10.65-11.11-22.68-12.67-35.21
		c-46.35-8.83-76.56,10.5-84.76,16.64C26.24,144.15,61.92,159.25,95.84,150.32z"/>
	
		<linearGradient id="SVGID_2_" gradientUnits="userSpaceOnUse" x1="158.834" y1="88.999" x2="158.834" y2="88.999" gradientTransform="matrix(1 0 0 -1 0 300)">
		<stop  offset="0.01" style="stop-color:#8DC641"/>
		<stop  offset="0.15" style="stop-color:#7FB53D"/>
		<stop  offset="0.73" style="stop-color:#4B7430"/>
		<stop  offset="1" style="stop-color:#375A2B"/>
	</linearGradient>
	<path class="st3" d="M158.83,211L158.83,211L158.83,211z"/>
	
		<linearGradient id="SVGID_3_" gradientUnits="userSpaceOnUse" x1="148.2076" y1="53.4069" x2="148.2076" y2="53.4069" gradientTransform="matrix(1 0 0 -1 0 300)">
		<stop  offset="0.01" style="stop-color:#8DC641"/>
		<stop  offset="0.15" style="stop-color:#7FB53D"/>
		<stop  offset="0.73" style="stop-color:#4B7430"/>
		<stop  offset="1" style="stop-color:#375A2B"/>
	</linearGradient>
	<path class="st4" d="M148.21,246.59L148.21,246.59z"/>
	
		<linearGradient id="SVGID_4_" gradientUnits="userSpaceOnUse" x1="146.5955" y1="66.3468" x2="142.9467" y2="126.6997" gradientTransform="matrix(1 0 0 -1 0 300)">
		<stop  offset="0.01" style="stop-color:#8DC641"/>
		<stop  offset="0.15" style="stop-color:#7FB53D"/>
		<stop  offset="0.73" style="stop-color:#4B7430"/>
		<stop  offset="1" style="stop-color:#375A2B"/>
	</linearGradient>
	<path class="st5" d="M148.21,246.59c-0.51,0.64-0.9,1.41-1.41,2.18C146.29,249.54,147.7,247.23,148.21,246.59z"/>
	
		<linearGradient id="SVGID_5_" gradientUnits="userSpaceOnUse" x1="157.9378" y1="105.1306" x2="157.9378" y2="105.1306" gradientTransform="matrix(1 0 0 -1 0 300)">
		<stop  offset="0.01" style="stop-color:#8DC641"/>
		<stop  offset="0.15" style="stop-color:#7FB53D"/>
		<stop  offset="0.73" style="stop-color:#4B7430"/>
		<stop  offset="1" style="stop-color:#375A2B"/>
	</linearGradient>
	<path class="st6" d="M157.94,194.87"/>
	<path class="st7" d="M177.14,111.14c-2.22,2.18-4.32,4.49-6.27,6.91l-0.26,0.38c-3.41,4.16-6.37,8.66-8.83,13.44l0,0
		c-4.17,8.17-6.86,17.01-7.94,26.12l3.58-0.64l1.02-0.26l2.56-0.26h1.15l2.43-0.26h3.97c1.42-6.12,3.57-12.05,6.4-17.67l0,0
		c2.42-4.67,5.29-9.08,8.58-13.19c0.13-0.13,0.26-0.26,0.26-0.38c7.67-9.38,17.45-16.79,28.55-21.64l0,0
		c22.07-9.65,47.43-8.18,68.24,3.97c-0.1-0.23-0.28-0.41-0.51-0.51l-1.66-1.28l-1.02-0.77c-1.94-1.55-4-2.97-6.15-4.22
		c-2.28-1.36-4.63-2.6-7.04-3.71l-3.84-1.79l-3.46-1.28l-4.99-1.54l-5.12-1.28l-5.12-0.9l-5.25-0.51c-2.6-0.23-5.21-0.28-7.81-0.13
		l-5.38,0.26c-7.99,0.87-15.8,2.94-23.17,6.15l0,0c-5.67,2.43-11,5.57-15.88,9.35C181.71,107.21,179.35,109.1,177.14,111.14z
		 M158.83,211.26V211l0,0c0.13-1.41,0.13-2.82,0.13-4.1c0.02-2.7-0.15-5.39-0.51-8.07c-0.13-1.28-0.26-2.69-0.51-3.97l0,0
		c-1.41-9.09-4.45-17.85-8.96-25.86l-2.18,2.43l-0.9,0.77l-1.41,1.41l-1.15,1.02l-1.28,1.15l-1.28,1.02
		c-0.13,0.26-0.38,0.38-0.64,0.64c2.32,5.63,3.95,11.52,4.87,17.54l0,0c0.88,5.33,1.18,10.74,0.9,16.13l0,0v0.26l0,0
		c-0.7,12.45-4.34,24.56-10.63,35.34l0,0c-11.83,20.12-32.01,33.92-55.05,37.64c8.47,0.13,16.9-1.12,24.97-3.71h0.26l2.05-0.64
		l0.38-0.26l1.92-0.64l0.51-0.26l1.79-0.64l0.64-0.38l1.54-0.64l0.77-0.38l1.54-0.77l0.77-0.38l1.54-0.77l0.77-0.51l1.41-0.77
		l0.77-0.51l1.28-0.9l0.9-0.51l1.28-0.9l0.9-0.51l1.15-0.9l0.9-0.64l1.15-0.9l0.9-0.77l1.15-0.9l0.9-0.77l1.02-0.9l0.9-0.9l1.02-0.9
		l0.9-0.9c0.27-0.33,0.57-0.63,0.9-0.9l0.9-1.02l0.9-0.9l0.9-1.02l0.77-1.02c0.36-0.28,0.67-0.63,0.9-1.02l0.77-0.9l0.9-1.15
		l0.77-1.02l0.9-1.28l0.64-0.9l0.9-1.41l0.51-0.77c0.51-0.77,0.9-1.54,1.41-2.18l0,0C154.53,235.67,158.17,223.64,158.83,211.26
		L158.83,211.26z"/>
	
		<linearGradient id="SVGID_6_" gradientUnits="userSpaceOnUse" x1="36.1822" y1="129.2001" x2="36.1822" y2="129.2001" gradientTransform="matrix(1 0 0 -1 0 300)">
		<stop  offset="0.01" style="stop-color:#4687C7"/>
		<stop  offset="0.56" style="stop-color:#2B61A2"/>
		<stop  offset="1" style="stop-color:#19478A"/>
	</linearGradient>
	<path class="st8" d="M36.18,170.8"/>
	<path class="st9" d="M133.48,24.08l-1.41,1.02l-0.77,0.64l-1.41,1.02c-0.26,0.26-0.38,0.51-0.64,0.64l-1.41,1.15
		c-0.13,0.26-0.38,0.38-0.64,0.64l-1.28,1.15l-0.77,0.64l-1.15,1.15l-0.64,0.77l-1.15,1.15l-0.77,0.9l-1.02,1.15l-0.77,0.9
		l-0.9,1.15l-0.77,0.9l-0.9,1.15l-0.77,1.02l-0.77,1.02l-0.77,1.28l-0.64,0.9c-0.22,0.47-0.53,0.91-0.9,1.28l-0.51,1.02l-0.9,1.41
		l-0.38,0.77c-0.37,0.51-0.68,1.07-0.9,1.66l-0.38,0.64c-0.25,0.62-0.55,1.22-0.9,1.79l-0.26,0.64l-0.9,1.92
		c0,0.13-0.13,0.26-0.13,0.38c-0.35,0.7-0.65,1.43-0.9,2.18v0.26c-0.37,0.78-0.68,1.6-0.9,2.43l0,0
		c-3.89,10.95-5.25,22.64-3.97,34.18l0,0c1.23,12.31,5.45,24.13,12.29,34.44l0.26,0.38c2.95,4.5,6.38,8.67,10.24,12.42h0.13
		c3.2,3.25,6.71,6.16,10.5,8.71c3.8,2.59,7.82,4.82,12.03,6.66c0.13-1.89,0.39-3.77,0.77-5.63c0-0.38,0.13-0.77,0.13-1.15l0.38-1.66
		l0.38-1.66l0.38-1.54l0.38-1.79v-0.26c-5.05-2.99-9.69-6.6-13.83-10.75l0,0c-3.86-3.78-7.34-7.94-10.37-12.42
		c0-0.13-0.13-0.26-0.26-0.38c-6.78-10.34-11-22.14-12.29-34.44l0,0c-2.56-23.71,5.94-47.27,23.05-63.89l-0.77,0.51l-1.41,1.02
		L133.48,24.08z"/>
	<path class="st10" d="M113.38,85.92L113.38,85.92c1.29,12.3,5.51,24.1,12.29,34.44c0.13,0.13,0.26,0.26,0.26,0.38
		c3.03,4.48,6.51,8.64,10.37,12.42l0,0c4.14,4.16,8.78,7.77,13.83,10.75v0.26c1.27-4.32,2.81-8.55,4.61-12.67
		c-3.7-3.16-7.12-6.63-10.24-10.37c-1.92-2.43-3.84-4.99-5.63-7.68c-18.38-28-18.63-64.18-0.64-92.44l-1.41,0.9h-0.26
		C119.37,38.52,110.81,62.15,113.38,85.92z M144.88,109.35c1.66,2.43,3.46,4.87,5.25,7.04c2.45,2.96,5.1,5.74,7.94,8.32
		c2.16-3.76,4.6-7.35,7.3-10.75c0-0.14,0.11-0.26,0.26-0.26l0,0c7.94-9.86,17.95-17.85,29.32-23.43
		c-6.66-46.73-34.82-69.14-43.27-74.9C128.33,41.53,125.55,80.11,144.88,109.35z"/>
	
		<linearGradient id="SVGID_7_" gradientUnits="userSpaceOnUse" x1="65.3333" y1="275.4266" x2="65.3333" y2="275.4266" gradientTransform="matrix(0.3239 0.9461 0.9461 -0.3239 -175.5256 87.0752)">
		<stop  offset="0.01" style="stop-color:#4687C7"/>
		<stop  offset="0.56" style="stop-color:#2B61A2"/>
		<stop  offset="1" style="stop-color:#19478A"/>
	</linearGradient>
	<path class="st11" d="M106.21,59.67L106.21,59.67z"/>
	<path class="st12" d="M280.59,107.43c-20.81-12.15-46.17-13.62-68.24-3.97l0,0c-11.1,4.84-20.89,12.26-28.55,21.64
		c0,0.13-0.13,0.26-0.26,0.38c-3.28,4.1-6.16,8.52-8.58,13.19l0,0c-2.83,5.61-4.98,11.54-6.4,17.67h-0.38
		c4.27-0.15,8.55,0.02,12.8,0.51c1.93-4.44,4.2-8.72,6.79-12.8c1.72-2.71,3.6-5.32,5.63-7.81c12.29-15,29.31-25.38,48.27-29.45
		c13.14-2.67,26.71-2.32,39.69,1.02l-1.28-1.02l-1.66-1.28l1.66,1.28C280.33,106.92,280.52,107.15,280.59,107.43z M199.16,141.1
		c-1.79,2.3-3.58,4.61-5.12,7.04c-2.08,3.23-3.92,6.61-5.51,10.11c4.23,0.92,8.38,2.17,12.42,3.71h0.51
		c11.74,4.59,22.32,11.71,30.98,20.87c42.63-20.36,55.56-53.9,58.51-63.76C258.91,104.72,221.21,113.76,199.16,141.1z
		 M135.28,247.11L135.28,247.11c6.28-10.77,9.92-22.88,10.63-35.34l0,0v-0.26l0,0c0.28-5.39-0.02-10.8-0.9-16.13l0,0
		c-0.91-6.02-2.55-11.91-4.87-17.54c0.26-0.26,0.51-0.38,0.64-0.64c-4.01,3.46-8.39,6.47-13.06,8.96c1.13,4.75,1.82,9.59,2.05,14.47
		c0.17,3.24,0.17,6.44,0,9.6c-1.96,33.34-23.32,62.41-54.54,74.26h1.66c9.57,0.51,19.15-0.71,28.29-3.58
		c-8.06,2.59-16.5,3.85-24.97,3.71C103.24,280.93,123.42,267.18,135.28,247.11z M122.35,209.34c0.13-2.82,0.13-5.76,0-8.71
		c-0.26-3.83-0.77-7.63-1.54-11.39c-4.1,1.82-8.34,3.31-12.67,4.48c-7.14,1.9-14.5,2.84-21.89,2.82c-5.19-0.02-10.38-0.5-15.49-1.41
		c-13.57,24.97-15.36,47.37-14.47,61.97c0.46,8.16,2.05,16.22,4.74,23.94C95.39,273.86,120.58,244.4,122.35,209.34z"/>
</g>
</svg>
