<?xml version="1.0" encoding="utf-8"?>
<!-- Generator: Adobe Illustrator 24.0.1, SVG Export Plug-In . SVG Version: 6.00 Build 0)  -->
<svg version="1.1" id="Layer_1" xmlns="http://www.w3.org/2000/svg" xmlns:xlink="http://www.w3.org/1999/xlink" x="0px" y="0px"
	 viewBox="0 0 300 300" style="enable-background:new 0 0 300 300;" xml:space="preserve">
<style type="text/css">
	.st0{fill:#FFEC00;}
	.st1{fill:#231F20;}
	.st2{fill:url(#SVGID_1_);}
	.st3{fill:#7A2F7E;}
	.st4{fill:#E4097E;}
	.st5{fill:#F4773A;}
</style>
<g>
	<path class="st0" d="M288.19,92.3c-0.02-0.03-0.03-0.06-0.06-0.09v0.02L288.19,92.3z"/>
	<polygon class="st0" points="282.53,97.7 282.73,97.9 283.23,97.9 283.23,97.5 282.33,97.5 	"/>
	<path class="st1" d="M138.28,187.59c1.75,1.15,3.6,2.31,5.5,3.44l-5.55,0.87c-11.7,1.6-23.5,2.7-35.3,3.8l-17.7,1.4l-17.7,1
		l17.6-2.4c5.8-0.7,11.7-1.5,17.5-2.4c11.7-1.7,23.4-3.5,35-5.6C137.85,187.66,138.06,187.63,138.28,187.59z M288.19,92.3
		c0.02,0.03,0.04,0.07,0.04,0.1h-0.1v-0.17l-0.1-0.13c0.04,0.04,0.07,0.07,0.1,0.11V92.1l-0.4-0.5l-0.8-1l-1.5-1.8l-3.3-3.4
		c-2.32-2.22-4.83-4.22-7.5-6c-2.71-1.82-5.63-3.3-8.7-4.4c-3.12-1.15-6.38-1.85-9.7-2.1c-3.31-0.25-6.64-0.05-9.9,0.6l-2.4,0.6
		l-2.3,0.8l-2.3,0.8l-1.1,0.4l-1.1,0.5c-5.92,2.56-11.24,6.34-15.6,11.1c-4.08,4.74-7.47,10.03-10.1,15.7
		c-2.58,5.49-4.81,11.13-6.7,16.9c-3.9,11.3-7.2,22.5-12.3,32.8c-0.46,0.98-0.95,1.94-1.46,2.89c0.36,3.62,0.47,7.29,0.26,11.01
		c-0.01,0.12-0.02,0.24-0.03,0.36c2.72-3.52,5.11-7.29,7.13-11.26c5.7-10.9,9.2-22.4,13.3-33.4c1.91-5.45,4.12-10.79,6.6-16
		c2.37-5,5.43-9.65,9.1-13.8c3.54-4.06,7.95-7.27,12.9-9.4l0.9-0.5l0.9-0.3l2-0.7l1.9-0.6l1.9-0.4c2.53-0.52,5.12-0.69,7.7-0.5
		c5.27,0.51,10.32,2.33,14.7,5.3c1.66,1.11,3.27,2.31,4.8,3.6c-1.6-0.03-3.21,0.04-4.8,0.2c-2.76,0.26-5.48,0.87-8.1,1.8
		c-2.78,1.03-5.32,2.59-7.5,4.6c-2.16,2-3.89,4.42-5.1,7.1c-1.06,2.58-1.83,5.26-2.3,8c-0.2,1.3-0.3,2.7-0.4,4v11.2
		c0,9.8,0.1,19.5-0.3,29.1c-0.29,9.59-1.29,19.15-3,28.6c-1.85,9.31-5.2,18.26-9.9,26.5c-2.49,4.01-5.37,7.76-8.6,11.2
		c-3.25,3.52-6.76,6.8-10.5,9.8c-7.54,6.06-15.68,11.32-24.3,15.7c-4.3,2.2-8.8,4.2-13.3,6.1l-3.4,1.4l-3.4,1.2l-6.9,2.5l7.1-2
		l3.5-1l3.5-1.1c4.66-1.51,9.23-3.28,13.7-5.3c9-3.93,17.55-8.83,25.5-14.6c4.05-2.93,7.86-6.17,11.4-9.7
		c3.57-3.54,6.79-7.43,9.6-11.6c2.76-4.23,5.11-8.72,7-13.4c1.89-4.67,3.4-9.49,4.5-14.4c2.12-9.71,3.45-19.58,4-29.5
		c0.6-9.9,0.7-19.7,0.9-29.4l0.2-7.3v-1.8c0.08-0.56,0.11-1.13,0.1-1.7c0.1-1.1,0.2-2.2,0.4-3.3c0.8-4.3,2.4-8.2,5.2-10.7
		c2.8-2.5,6.9-3.9,11.2-4.3c2.2-0.15,4.4-0.15,6.6,0l1.7,0.2h3l6.1-4.9L288.19,92.3z"/>
	<linearGradient id="SVGID_1_" gradientUnits="userSpaceOnUse" x1="161.1942" y1="87.3241" x2="119.6551" y2="137.171">
		<stop  offset="0" style="stop-color:#00657B"/>
		<stop  offset="0.05" style="stop-color:#006A83"/>
		<stop  offset="0.34" style="stop-color:#0082AC"/>
		<stop  offset="0.61" style="stop-color:#0094CA"/>
		<stop  offset="0.84" style="stop-color:#009FDC"/>
		<stop  offset="1" style="stop-color:#00A3E2"/>
	</linearGradient>
	<path class="st2" d="M191.23,167c-0.5,8.4-3.3,17.1-9.1,23.3c-0.9,0.95-1.89,1.81-2.93,2.59c1.02-1.22,1.97-2.63,2.83-4.29
		c0.03-0.05,0.04-0.1,0.07-0.14c0.93-1.13,1.75-2.34,2.43-3.66c3.8-7.2,4.2-16,2.5-23.9c-4.3-20.2-17.8-36.3-31.6-49.5
		c-7.72-7.36-16.21-13.82-25.3-19.31c-9.1-18.98-22.54-35-38.7-48.49c-0.19-0.11-0.26-0.36-0.15-0.55s0.36-0.26,0.55-0.15
		c19.7,7.8,36.7,18.5,43.3,23.4c15.27,11.67,28.2,26.13,38.1,42.6C183.43,125.9,192.43,145.7,191.23,167z"/>
	<path class="st3" d="M184.53,184.8c-0.68,1.31-1.5,2.53-2.43,3.66c0.44-0.83,0.81-1.69,1.13-2.57c0.98-1.81,1.73-3.75,2.2-5.79
		c1.9-8.3-0.2-17.2-4.1-24.6c-9.3-18.03-25.89-30.11-42.51-39.32c-0.9-0.5-1.8-0.99-2.69-1.48c-9.12-4.87-18.69-8.79-28.56-11.73
		C94.91,89.56,79.63,79.31,62.73,71.6c-0.4-0.2-0.3-0.7,0.1-0.7c20.4,2.2,38.9,7.8,46.3,10.7c7.29,2.93,14.31,6.45,21,10.49
		c9.09,5.49,17.58,11.95,25.3,19.31c13.8,13.2,27.3,29.3,31.6,49.5C188.73,168.8,188.33,177.6,184.53,184.8z"/>
	<path class="st4" d="M185.43,180.1c-0.47,2.03-1.22,3.97-2.2,5.79c0.67-1.8,1.09-3.66,1.26-5.56c0.34-1.51,0.53-3.06,0.54-4.63
		c0.1-8.3-3.6-16.4-8.8-22.8c-9.33-11.36-21.76-18.83-34.8-24.14c-5.55-2.26-11.22-4.14-16.8-5.76c-0.67-0.2-1.35-0.38-2.03-0.57
		c-13.26-3.68-26.94-5.49-40.66-5.38c-15.3-8.56-32.01-13.87-49.41-16.65c-0.4-0.1-0.5-0.7-0.1-0.8c21-3.3,41-2.9,49.2-2
		c8.8,1.04,17.48,2.84,25.94,5.37c9.87,2.94,19.44,6.86,28.56,11.73c0.9,0.48,1.8,0.98,2.69,1.48c16.62,9.22,33.21,21.3,42.51,39.32
		C185.23,162.9,187.33,171.8,185.43,180.1z"/>
	<path class="st5" d="M184.5,180.33c0.19-2.13,0.09-4.3-0.36-6.43c-1.6-8.3-7.1-15.6-13.6-20.8c-8.31-6.67-17.79-11.06-27.65-13.97
		c-4.23-1.25-8.53-2.22-12.85-2.99c-5.83-1.04-11.69-1.71-17.4-2.14c-2.5-0.19-5.01-0.32-7.52-0.38c-10.74-0.29-21.46,0.56-32,2.53
		c-16.31-5.07-33.34-6.77-50.58-5.95c-0.1-0.01-0.18-0.06-0.24-0.14c-0.14-0.17-0.12-0.42,0.05-0.56c19.4-7.4,38.7-11.1,46.7-11.8
		c4.3-0.41,8.61-0.62,12.91-0.65c13.72-0.1,27.4,1.71,40.66,5.38c0.68,0.19,1.35,0.37,2.03,0.57c5.59,1.61,11.25,3.49,16.8,5.76
		c13.04,5.31,25.47,12.78,34.8,24.14c5.2,6.4,8.9,14.5,8.8,22.8C185.03,177.27,184.83,178.82,184.5,180.33z"/>
	<path class="st0" d="M184.5,180.33c-0.17,1.9-0.59,3.76-1.26,5.56c-0.32,0.88-0.69,1.74-1.13,2.57c-0.02,0.05-0.04,0.1-0.07,0.14
		c-0.86,1.66-1.81,3.07-2.83,4.29c-10.75,12.9-29.39,2.4-42.27-6.19c-11.56-7.78-23.85-14.41-36.7-19.8
		c-29.3-11.9-59.2-11.7-88.2-4.1c-0.3,0.1-0.7-0.5-0.3-0.7c17.8-11.5,36.3-19.2,44.2-21.7c5.65-1.75,11.39-3.17,17.18-4.25
		c10.54-1.97,21.26-2.82,32-2.53c2.51,0.07,5.01,0.19,7.52,0.38c5.72,0.43,11.57,1.1,17.4,2.14c4.31,0.77,8.62,1.74,12.85,2.99
		c9.86,2.91,19.34,7.3,27.65,13.97c6.5,5.2,12,12.5,13.6,20.8C184.59,176.03,184.69,178.19,184.5,180.33z"/>
</g>
</svg>
