<?xml version="1.0" encoding="utf-8"?>
<!-- Generator: Adobe Illustrator 27.8.1, SVG Export Plug-In . SVG Version: 6.00 Build 0)  -->
<svg version="1.1" xmlns="http://www.w3.org/2000/svg" xmlns:xlink="http://www.w3.org/1999/xlink" x="0px" y="0px"
	 viewBox="0 0 350 230" style="enable-background:new 0 0 350 230;" xml:space="preserve">
<style type="text/css">
	.st0{fill:#C61A76;}
	.st1{fill:#8C449A;}
	.st2{fill:#A1FDFF;}
	.st3{fill:#FFF2A4;}
	.st4{fill:#FFF39F;}
	.st5{fill:#D4FFFF;}
	.st6{fill:#F7F3D0;}
	.st7{fill:#BDDBF2;}
	.st8{fill:#181333;}
	.st9{fill:#B5EAC8;}
	.st10{fill:#DA1C5C;}
	.st11{fill:#0C083F;}
	.st12{fill:#A3E5E3;}
	.st13{fill:url(#SVGID_1_);}
	.st14{fill:#841618;}
	.st15{fill:#E4314A;}
	.st16{fill:#5FBB46;}
	.st17{fill:#DCA127;}
	.st18{fill:#45B0E4;}
	.st19{fill:#1A1A1A;}
	.st20{fill:url(#SVGID_00000099630168717641897470000001047470200341658782_);}
	.st21{fill:#275A9A;}
	.st22{fill:#4687C7;}
	.st23{fill:url(#SVGID_00000103225116997282561590000011582222451417813182_);}
	.st24{fill:url(#SVGID_00000111176413326972593850000004593606161779235986_);}
	.st25{fill:url(#SVGID_00000073716854629414706540000015519197963128824223_);}
	.st26{fill:url(#SVGID_00000049907646440966097930000014100956359995050633_);}
	.st27{fill:#507834;}
	.st28{fill:url(#SVGID_00000103253850159408649230000013697477195056064400_);}
	.st29{fill:#F2652E;}
	.st30{fill:#F6872E;}
	.st31{fill:url(#SVGID_00000101063907317734271520000013826385367756094132_);}
	.st32{fill:#8DC641;}
	.st33{fill:#E26926;}
	.st34{fill:#3A77B7;}
	.st35{fill:#9B9DA0;}
	.st36{fill:#EE4079;}
	.st37{fill:#7DCBF1;}
	.st38{fill:#FEE81F;}
	.st39{fill:#231F20;}
	.st40{fill-rule:evenodd;clip-rule:evenodd;fill:#FEC660;}
	.st41{fill-rule:evenodd;clip-rule:evenodd;fill:#DB1F2C;}
	.st42{fill-rule:evenodd;clip-rule:evenodd;fill:#B9479A;}
	.st43{fill-rule:evenodd;clip-rule:evenodd;fill:#3B57A7;}
	.st44{fill-rule:evenodd;clip-rule:evenodd;fill:#3EAAE0;}
	.st45{fill-rule:evenodd;clip-rule:evenodd;fill:#80C342;}
	.st46{fill:#00ADEA;}
	.st47{fill:#EB2227;}
	.st48{fill:#14AB4B;}
	.st49{fill:none;}
	.st50{fill:#FBB03B;}
	.st51{fill:#C59C6D;}
	.st52{fill:url(#SVGID_00000001623672887530663820000014638321749067595961_);}
	.st53{fill:url(#SVGID_00000117645477478922843360000009088321530094661280_);}
	.st54{fill:url(#SVGID_00000090276088248846886690000018406988592251809931_);}
	.st55{fill:#010101;}
	.st56{fill:#CFD1D2;}
	.st57{fill:#A7A9AC;}
	.st58{fill:#00AEEF;}
	.st59{fill:#F7941D;}
	.st60{fill:#EC008C;}
	.st61{fill:#39B54A;}
	.st62{fill:url(#SVGID_00000025403097724630775860000013293734990710902206_);}
	.st63{opacity:0.75;}
	.st64{fill:#005D97;}
	.st65{fill:#FFCD06;}
	.st66{fill:#8C56A3;}
	.st67{fill:#8C328B;}
	.st68{fill:#BBD867;}
	.st69{fill:#1FAFB5;}
	.st70{fill:#D44194;}
	.st71{fill:#EF5AA0;}
	.st72{fill:#F89422;}
	.st73{fill:#FFF4DC;}
	.st74{fill:#FFE7B6;}
	.st75{fill:#FFDB93;}
	.st76{fill:#FFCF6F;}
	.st77{fill:#FEC24A;}
	.st78{fill:#FBAA19;}
	.st79{fill:#FADBE4;}
	.st80{fill:#F5B6CA;}
	.st81{fill:#F093B0;}
	.st82{fill:#E96E95;}
	.st83{fill:#E6497C;}
	.st84{fill:#DA1D49;}
	.st85{fill:#F6DBE9;}
	.st86{fill:#EBB7D5;}
	.st87{fill:#E195C0;}
	.st88{fill:#D673AD;}
	.st89{fill:#CF559F;}
	.st90{fill:#CF2A91;}
	.st91{fill:#D0B6D8;}
	.st92{fill:#B793C4;}
	.st93{fill:#9970B1;}
	.st94{fill:#8356A3;}
	.st95{fill:#74489D;}
	.st96{fill:#663F98;}
	.st97{fill:#DCECF9;}
	.st98{fill:#BADAF3;}
	.st99{fill:#99C6EB;}
	.st100{fill:#7CB5E2;}
	.st101{fill:#63A1D7;}
	.st102{fill:#447BBF;}
	.st103{fill:#DDEEDC;}
	.st104{fill:#BCDFB6;}
	.st105{fill:#9DD196;}
	.st106{fill:#81C674;}
	.st107{fill:#69BE55;}
	.st108{fill:#49B749;}
	.st109{fill:#ED2D88;}
	.st110{fill:#FFF200;}
	.st111{opacity:0.4;fill:#FFFFFF;}
	.st112{fill:#F9E720;}
	.st113{fill:#72CB1B;}
	.st114{fill:#EE6D01;}
	.st115{fill:#27BADC;}
	.st116{fill:#0C71A8;}
	.st117{fill:#F7E522;}
	.st118{fill:#FDFDFB;}
	.st119{fill:#F11B2A;}
	.st120{fill:#F091B9;}
	.st121{fill:#BD23E4;}
	.st122{fill:url(#SVGID_00000111873112706891498090000013784725843317477565_);}
	.st123{fill:url(#SVGID_00000137113872027138811170000004109621638885328280_);}
	.st124{fill:url(#SVGID_00000104667011519471142500000002726982814366950052_);}
	.st125{fill:url(#SVGID_00000065791281391609277440000010471131457541011110_);}
	.st126{fill:url(#SVGID_00000053508151323316056120000016936855172452073868_);}
	.st127{fill:#FFFFFF;}
	.st128{fill:url(#SVGID_00000036932097306577623760000005663041788802746245_);}
	.st129{fill:url(#SVGID_00000072959502357826058900000009033536988076758162_);}
	.st130{fill:url(#SVGID_00000091012510361489398910000013368458066475302296_);}
	.st131{fill:url(#SVGID_00000068643568343259889270000018081348656674076586_);}
	.st132{fill-rule:evenodd;clip-rule:evenodd;fill:url(#SVGID_00000008849150028561931120000006816576336257754270_);}
	.st133{fill:#BE9138;}
	.st134{fill:url(#SVGID_00000060027078025854820800000010400008414393304756_);}
	.st135{fill:url(#SVGID_00000125562266261651534090000007354091726747508362_);}
	.st136{fill:url(#SVGID_00000160902754231832851900000012524955879087439003_);}
	.st137{fill-rule:evenodd;clip-rule:evenodd;fill:url(#SVGID_00000088094132331346012910000013679270690916425638_);}
	.st138{fill-rule:evenodd;clip-rule:evenodd;fill:url(#SVGID_00000070814509900918894660000005034225402939153066_);}
	.st139{fill-rule:evenodd;clip-rule:evenodd;fill:url(#SVGID_00000152957418958133647970000003565515999628523664_);}
	.st140{fill-rule:evenodd;clip-rule:evenodd;fill:url(#SVGID_00000066476501040224710840000009923765965449031831_);}
	.st141{fill-rule:evenodd;clip-rule:evenodd;fill:url(#SVGID_00000173853205865838032300000012367953210385019782_);}
	.st142{fill-rule:evenodd;clip-rule:evenodd;fill:#060F12;}
	.st143{fill-rule:evenodd;clip-rule:evenodd;fill:#0057A7;}
	.st144{fill:url(#SVGID_00000127749351995424805680000012485938320888797576_);}
	.st145{fill-rule:evenodd;clip-rule:evenodd;fill:url(#SVGID_00000175288176483014647310000017618490868115865271_);}
	.st146{fill-rule:evenodd;clip-rule:evenodd;fill:#FF6D00;}
	.st147{fill-rule:evenodd;clip-rule:evenodd;fill:#FFED00;}
	.st148{fill-rule:evenodd;clip-rule:evenodd;fill:#FECC00;}
	.st149{fill-rule:evenodd;clip-rule:evenodd;fill:#FEFEFE;}
	.st150{fill-rule:evenodd;clip-rule:evenodd;fill:#C5C6C6;}
	.st151{fill:url(#SVGID_00000173855740426518458940000012029356963845182600_);}
	.st152{fill:url(#SVGID_00000042710639359555142570000012648558077064320407_);}
	.st153{fill:url(#SVGID_00000074400458391989796980000003604124747586648254_);}
	.st154{fill:url(#SVGID_00000090984410775111893890000003541655427022894239_);}
	.st155{fill:#B23735;}
	.st156{fill:#3B2C23;}
	.st157{fill:#F5D38C;}
	.st158{fill:#004C4C;}
</style>
<g id="Layer_1">
</g>
<g id="Layer_2">
</g>
<g id="Layer_3">
</g>
<g id="Layer_4">
</g>
<g id="Layer_5">
</g>
<g id="Layer_6">
</g>
<g id="Layer_7">
</g>
<g id="Layer_8">
</g>
<g id="Layer_9">
</g>
<g id="Layer_10">
</g>
<g id="Layer_11">
</g>
<g id="Layer_12">
</g>
<g id="Layer_13">
</g>
<g id="Layer_14">
</g>
<g id="Layer_15">
	<g>
		<radialGradient id="SVGID_1_" cx="199.5288" cy="127.3336" r="2.6182" gradientUnits="userSpaceOnUse">
			<stop  offset="0" style="stop-color:#FFFFFF"/>
			<stop  offset="9.641945e-03" style="stop-color:#F8FBFA"/>
			<stop  offset="0.0869" style="stop-color:#C5DAD6"/>
			<stop  offset="0.1695" style="stop-color:#96BCB6"/>
			<stop  offset="0.2556" style="stop-color:#6EA299"/>
			<stop  offset="0.3461" style="stop-color:#4C8C82"/>
			<stop  offset="0.4421" style="stop-color:#317B6E"/>
			<stop  offset="0.5457" style="stop-color:#1C6D60"/>
			<stop  offset="0.6606" style="stop-color:#0D6355"/>
			<stop  offset="0.7955" style="stop-color:#045E4F"/>
			<stop  offset="1" style="stop-color:#015C4D"/>
		</radialGradient>
		<path style="fill-rule:evenodd;clip-rule:evenodd;fill:url(#SVGID_1_);" d="M200.46,124.89c1.35,0.52,2.03,2.03,1.51,3.38
			c-0.52,1.35-2.03,2.03-3.38,1.51c-1.35-0.52-2.03-2.03-1.51-3.38C197.6,125.05,199.12,124.37,200.46,124.89"/>
		
			<radialGradient id="SVGID_00000011754030198498378630000011382043029010239119_" cx="192.0995" cy="133.0138" r="3.2731" gradientUnits="userSpaceOnUse">
			<stop  offset="0" style="stop-color:#FFFFFF"/>
			<stop  offset="0.011" style="stop-color:#FFFEF7"/>
			<stop  offset="0.0881" style="stop-color:#FFF6C4"/>
			<stop  offset="0.1707" style="stop-color:#FFEE95"/>
			<stop  offset="0.2567" style="stop-color:#FFE86D"/>
			<stop  offset="0.347" style="stop-color:#FFE34B"/>
			<stop  offset="0.443" style="stop-color:#FFDE30"/>
			<stop  offset="0.5464" style="stop-color:#FFDB1B"/>
			<stop  offset="0.661" style="stop-color:#FFD90C"/>
			<stop  offset="0.7958" style="stop-color:#FFD703"/>
			<stop  offset="1" style="stop-color:#FFD700"/>
		</radialGradient>
		<path style="fill-rule:evenodd;clip-rule:evenodd;fill:url(#SVGID_00000011754030198498378630000011382043029010239119_);" d="
			M195.16,134.18c-0.65,1.69-2.54,2.53-4.23,1.89c-1.69-0.65-2.53-2.54-1.89-4.23c0.65-1.69,2.54-2.53,4.23-1.89
			C194.96,130.6,195.8,132.5,195.16,134.18"/>
		
			<radialGradient id="SVGID_00000053503907684269753180000010333710052613310080_" cx="170.3266" cy="135.8909" r="5.4545" gradientUnits="userSpaceOnUse">
			<stop  offset="0" style="stop-color:#FFFFFF"/>
			<stop  offset="9.641945e-03" style="stop-color:#F8FAFE"/>
			<stop  offset="0.0869" style="stop-color:#C5D9F6"/>
			<stop  offset="0.1695" style="stop-color:#96BBEF"/>
			<stop  offset="0.2556" style="stop-color:#6EA0E9"/>
			<stop  offset="0.3461" style="stop-color:#4C8AE4"/>
			<stop  offset="0.4421" style="stop-color:#3178DF"/>
			<stop  offset="0.5457" style="stop-color:#1C6ADC"/>
			<stop  offset="0.6606" style="stop-color:#0D61DA"/>
			<stop  offset="0.7955" style="stop-color:#045BD8"/>
			<stop  offset="1" style="stop-color:#0159D8"/>
		</radialGradient>
		<path style="fill-rule:evenodd;clip-rule:evenodd;fill:url(#SVGID_00000053503907684269753180000010333710052613310080_);" d="
			M175.42,137.84c-1.08,2.81-4.23,4.22-7.04,3.14c-2.81-1.08-4.22-4.23-3.14-7.04c1.08-2.81,4.23-4.22,7.04-3.14
			C175.09,131.87,176.5,135.03,175.42,137.84"/>
		
			<radialGradient id="SVGID_00000137847522497125442440000000982347544608827823_" cx="156.5554" cy="127.9337" r="7.2465" gradientUnits="userSpaceOnUse">
			<stop  offset="0" style="stop-color:#FFFFFF"/>
			<stop  offset="0.011" style="stop-color:#FBF7F9"/>
			<stop  offset="0.0881" style="stop-color:#E1C4D1"/>
			<stop  offset="0.1707" style="stop-color:#C995AC"/>
			<stop  offset="0.2567" style="stop-color:#B56D8D"/>
			<stop  offset="0.347" style="stop-color:#A44B72"/>
			<stop  offset="0.443" style="stop-color:#96305C"/>
			<stop  offset="0.5464" style="stop-color:#8B1B4C"/>
			<stop  offset="0.661" style="stop-color:#840C40"/>
			<stop  offset="0.7958" style="stop-color:#7F0339"/>
			<stop  offset="1" style="stop-color:#7E0037"/>
		</radialGradient>
		<path style="fill-rule:evenodd;clip-rule:evenodd;fill:url(#SVGID_00000137847522497125442440000000982347544608827823_);" d="
			M153.97,134.7c-3.74-1.43-5.61-5.62-4.18-9.36c1.43-3.74,5.62-5.61,9.36-4.18c3.74,1.43,5.61,5.62,4.18,9.36
			C161.89,134.26,157.7,136.13,153.97,134.7"/>
		
			<radialGradient id="SVGID_00000021115826300524526530000011546476070338454665_" cx="173.0367" cy="111.8085" r="36.9903" gradientUnits="userSpaceOnUse">
			<stop  offset="0" style="stop-color:#FFFFFF"/>
			<stop  offset="0.011" style="stop-color:#F7F7F9"/>
			<stop  offset="0.0881" style="stop-color:#C4C4D6"/>
			<stop  offset="0.1707" style="stop-color:#9695B5"/>
			<stop  offset="0.2567" style="stop-color:#6E6D99"/>
			<stop  offset="0.347" style="stop-color:#4C4B82"/>
			<stop  offset="0.443" style="stop-color:#31306E"/>
			<stop  offset="0.5464" style="stop-color:#1B1B60"/>
			<stop  offset="0.661" style="stop-color:#0C0C55"/>
			<stop  offset="0.7958" style="stop-color:#04034F"/>
			<stop  offset="1" style="stop-color:#01004D"/>
		</radialGradient>
		<path style="fill-rule:evenodd;clip-rule:evenodd;fill:url(#SVGID_00000021115826300524526530000011546476070338454665_);" d="
			M180.49,95.49c-6.63-4.5-10.87-10.13-14.94-14.36l-7.22-5.41c-2.25-0.89-4.76-1.1-7.8-0.34c-20.75,5.21-22.4,62.42,15.26,72.27
			c22.52,5.89,54.24-13.59,41.35-36.7C200.66,99.35,191.31,102.83,180.49,95.49 M184.09,118.23c-14.4-8.49-7.84-23.59,10.14-14.86
			C211.87,111.94,199.82,127.51,184.09,118.23z M201.04,123.39c5.26,2.01,2.12,9.86-3.02,7.89
			C192.83,129.29,195.85,121.4,201.04,123.39z M164.12,132.52c-5.5,9.07-19.67,2.27-15.83-7.76c4.46-11.64,22-3.45,16.02,7.43
			c3.59-5.84,12.75-3.61,13.07,3.39c1.35-4.38,7.2-5.39,9.93-1.66c-0.71-3.69,2.94-6.85,6.53-5.47c7.11,2.72,0.79,13.22-4.94,8.24
			c-0.23-0.2-0.45-0.43-0.64-0.67c1.74,7.65-10.45,9.75-11.12,1.7C174.43,147.75,159.19,141.69,164.12,132.52z"/>
		<path class="st142" d="M198.32,76.03c-1.79,0-2.09,0-8.33,0l1.6-49.7c0.09-1.22,1.08-2.17,2.3-2.23c1.22-0.06,2.29,0.8,2.5,2
			L198.32,76.03z M197.19,81.02v1.31h-6.14v-1.31H197.19z M189.78,85.34h8.68v-7.31h-8.68V85.34z"/>
		<path class="st143" d="M184.21,133.5c-2.08-0.8-4.42,0.24-5.21,2.33c-0.8,2.08,0.24,4.41,2.32,5.21c2.08,0.8,4.42-0.24,5.22-2.32
			C187.33,136.62,186.29,134.29,184.21,133.5z M230.64,121.79c-1.21,1.36-2.41,3.03-2.83,4.19c-1.47,4.14-4.46,3.19-2.47-0.34
			c1.52-2.69,3.22-3.14,5.61-7.39c0.66-1.18,0.96-2.23,1.56-3.03c2.7-3.58,1.31-8.67-1.47-3c-0.89,1.82-1.77,4.26-2.75,6.07
			c-2.72,4.97-3.58-0.33-0.79-4.78c1.24-1.98,2.77-4.11,3.49-5.23c2.68-4.17,1.47-11.16-2.08-1.74c-2.65,7.05-4.69,1.57-2.88-0.84
			c0.93-1.24,4.67-5.54,0.55-5.46c-4.95,0.11-1.06,10.5-8.49,24.91c-8.12,15.75-24.45,26.4-43.1,26.61
			c-25.34-0.29-45.83-19.57-48.31-44.39c-0.29-2.8-0.36-7.06-3.28-7.13c-4.12-0.08-0.39,4.22,0.55,5.46
			c1.81,2.41-0.23,7.88-2.88,0.84c-3.54-9.43-4.75-2.43-2.09,1.74c0.72,1.13,2.26,3.25,3.5,5.23c2.79,4.45,1.92,9.75-0.79,4.78
			c-0.99-1.81-1.86-4.25-2.75-6.07c-2.77-5.68-4.16-0.58-1.48,3c0.61,0.8,0.9,1.84,1.57,3.03c2.39,4.25,4.09,4.7,5.61,7.39
			c1.98,3.52-1.01,4.48-2.47,0.34c-0.41-1.17-1.62-2.83-2.83-4.19c-2.39-2.68-3.13-0.69-1.52,1.53c1.12,1.54,1.96,3.39,2.01,3.45
			c1.53,1.76,2,4.06,2.42,4.52c4.99,9.68,12.52,17.81,21.68,23.52c16.97,10.6,40.13,10.04,58.09,2.3c1.43-0.62,2.72-1.48,4.02-2.3
			c9.16-5.72,16.68-13.85,21.67-23.52c0.42-0.46,0.88-2.76,2.42-4.52c0.05-0.06,0.89-1.91,2.01-3.45
			C233.77,121.1,233.03,119.11,230.64,121.79z M184.9,116.87c-12.47-7.34-7.64-19.92,8.62-12.03c0.38,0.19,0.74,0.37,1.09,0.56
			c-1.12-6.13-12.6-6.96-5.37-18.05c0,0,2.5,0.01,9.54,0c2.95,2.06-0.52,4.4-1.27,6.07c-2.31,5.14,5.47,8.13-0.24,13.67
			C207.21,114.63,197.34,124.21,184.9,116.87z"/>
	</g>
</g>
</svg>
