<?xml version="1.0" encoding="utf-8"?>
<!-- Generator: Adobe Illustrator 27.8.1, SVG Export Plug-In . SVG Version: 6.00 Build 0)  -->
<svg version="1.1" xmlns="http://www.w3.org/2000/svg" xmlns:xlink="http://www.w3.org/1999/xlink" x="0px" y="0px"
	 viewBox="0 0 350 230" style="enable-background:new 0 0 350 230;" xml:space="preserve">
<style type="text/css">
	.st0{fill:#C61A76;}
	.st1{fill:#8C449A;}
	.st2{fill:#A1FDFF;}
	.st3{fill:#FFF2A4;}
	.st4{fill:#FFF39F;}
	.st5{fill:#D4FFFF;}
	.st6{fill:#F7F3D0;}
	.st7{fill:#BDDBF2;}
	.st8{fill:#181333;}
	.st9{fill:#B5EAC8;}
	.st10{fill:#DA1C5C;}
	.st11{fill:#0C083F;}
	.st12{fill:#A3E5E3;}
	.st13{fill:url(#SVGID_1_);}
	.st14{fill:#841618;}
	.st15{fill:#E4314A;}
	.st16{fill:#5FBB46;}
	.st17{fill:#DCA127;}
	.st18{fill:#45B0E4;}
	.st19{fill:#1A1A1A;}
	.st20{fill:url(#SVGID_00000085229001712107625120000000038379898350826409_);}
	.st21{fill:#275A9A;}
	.st22{fill:#4687C7;}
	.st23{fill:url(#SVGID_00000127011419407436074740000010738014987933894531_);}
	.st24{fill:url(#SVGID_00000052072337335608265150000013335309014639204246_);}
	.st25{fill:url(#SVGID_00000029040993865012570400000003001994385896469893_);}
	.st26{fill:url(#SVGID_00000088828550512569904340000009175593809022551734_);}
	.st27{fill:#507834;}
	.st28{fill:url(#SVGID_00000149378693162169653220000017380254177881594803_);}
	.st29{fill:#F2652E;}
	.st30{fill:#F6872E;}
	.st31{fill:url(#SVGID_00000098202848525425281650000013323302867520310938_);}
	.st32{fill:#8DC641;}
	.st33{fill:#E26926;}
	.st34{fill:#3A77B7;}
	.st35{fill:#9B9DA0;}
	.st36{fill:#EE4079;}
	.st37{fill:#7DCBF1;}
	.st38{fill:#FEE81F;}
	.st39{fill:#231F20;}
	.st40{fill-rule:evenodd;clip-rule:evenodd;fill:#FEC660;}
	.st41{fill-rule:evenodd;clip-rule:evenodd;fill:#DB1F2C;}
	.st42{fill-rule:evenodd;clip-rule:evenodd;fill:#B9479A;}
	.st43{fill-rule:evenodd;clip-rule:evenodd;fill:#3B57A7;}
	.st44{fill-rule:evenodd;clip-rule:evenodd;fill:#3EAAE0;}
	.st45{fill-rule:evenodd;clip-rule:evenodd;fill:#80C342;}
	.st46{fill:#00ADEA;}
	.st47{fill:#EB2227;}
	.st48{fill:#14AB4B;}
	.st49{fill:none;}
	.st50{fill:#FBB03B;}
	.st51{fill:#C59C6D;}
	.st52{fill:url(#SVGID_00000009588107470748429420000010800097831841983160_);}
	.st53{fill:url(#SVGID_00000090260246475472433340000014210585310506058905_);}
	.st54{fill:url(#SVGID_00000066510371541094170860000012401578412742530192_);}
	.st55{fill:#010101;}
	.st56{fill:#CFD1D2;}
	.st57{fill:#A7A9AC;}
	.st58{fill:#00AEEF;}
	.st59{fill:#F7941D;}
	.st60{fill:#EC008C;}
	.st61{fill:#39B54A;}
	.st62{fill:url(#SVGID_00000096759694404661681670000018196313862462329993_);}
	.st63{opacity:0.75;}
	.st64{fill:#005D97;}
	.st65{fill:#FFCD06;}
	.st66{fill:#8C56A3;}
	.st67{fill:#8C328B;}
	.st68{fill:#BBD867;}
	.st69{fill:#1FAFB5;}
	.st70{fill:#D44194;}
	.st71{fill:#EF5AA0;}
	.st72{fill:#F89422;}
	.st73{fill:#FFF4DC;}
	.st74{fill:#FFE7B6;}
	.st75{fill:#FFDB93;}
	.st76{fill:#FFCF6F;}
	.st77{fill:#FEC24A;}
	.st78{fill:#FBAA19;}
	.st79{fill:#FADBE4;}
	.st80{fill:#F5B6CA;}
	.st81{fill:#F093B0;}
	.st82{fill:#E96E95;}
	.st83{fill:#E6497C;}
	.st84{fill:#DA1D49;}
	.st85{fill:#F6DBE9;}
	.st86{fill:#EBB7D5;}
	.st87{fill:#E195C0;}
	.st88{fill:#D673AD;}
	.st89{fill:#CF559F;}
	.st90{fill:#CF2A91;}
	.st91{fill:#D0B6D8;}
	.st92{fill:#B793C4;}
	.st93{fill:#9970B1;}
	.st94{fill:#8356A3;}
	.st95{fill:#74489D;}
	.st96{fill:#663F98;}
	.st97{fill:#DCECF9;}
	.st98{fill:#BADAF3;}
	.st99{fill:#99C6EB;}
	.st100{fill:#7CB5E2;}
	.st101{fill:#63A1D7;}
	.st102{fill:#447BBF;}
	.st103{fill:#DDEEDC;}
	.st104{fill:#BCDFB6;}
	.st105{fill:#9DD196;}
	.st106{fill:#81C674;}
	.st107{fill:#69BE55;}
	.st108{fill:#49B749;}
	.st109{fill:#ED2D88;}
	.st110{fill:#FFF200;}
	.st111{opacity:0.4;fill:#FFFFFF;}
	.st112{fill:#F9E720;}
	.st113{fill:#72CB1B;}
	.st114{fill:#EE6D01;}
	.st115{fill:#27BADC;}
	.st116{fill:#0C71A8;}
	.st117{fill:#F7E522;}
	.st118{fill:#FDFDFB;}
	.st119{fill:#F11B2A;}
	.st120{fill:#F091B9;}
	.st121{fill:#BD23E4;}
	.st122{fill:url(#SVGID_00000047759853466743762080000006726536975473400476_);}
	.st123{fill:url(#SVGID_00000009554879794380596890000006879821997715551931_);}
	.st124{fill:url(#SVGID_00000051361613546055845120000008655213317802357902_);}
	.st125{fill:url(#SVGID_00000147924862479635910760000011775117958692458416_);}
	.st126{fill:url(#SVGID_00000007391401959517854030000007131833694608732074_);}
	.st127{fill:#FFFFFF;}
	.st128{fill:url(#SVGID_00000075857827106171609410000009419478183411608989_);}
	.st129{fill:url(#SVGID_00000114762506749790031090000015440219190651554206_);}
	.st130{fill:url(#SVGID_00000062872672489751781240000000071556254018066851_);}
	.st131{fill:url(#SVGID_00000121977527717779632840000008199016894057214392_);}
	.st132{fill-rule:evenodd;clip-rule:evenodd;fill:url(#SVGID_00000095315821016541001520000014891025434429319327_);}
	.st133{fill:#BE9138;}
	.st134{fill:url(#SVGID_00000099632298456958667500000005040171772612099243_);}
	.st135{fill:url(#SVGID_00000048483137354205005800000000365220211879020439_);}
	.st136{fill:url(#SVGID_00000032636088470173888120000010498718150986313387_);}
	.st137{fill-rule:evenodd;clip-rule:evenodd;fill:url(#SVGID_00000145032738319222718710000012525282871797268369_);}
	.st138{fill-rule:evenodd;clip-rule:evenodd;fill:url(#SVGID_00000098930463333570718500000009890916929411416724_);}
	.st139{fill-rule:evenodd;clip-rule:evenodd;fill:url(#SVGID_00000101825022077665738220000002288455407552593838_);}
	.st140{fill-rule:evenodd;clip-rule:evenodd;fill:url(#SVGID_00000101101162466440466320000016680314968071064511_);}
	.st141{fill-rule:evenodd;clip-rule:evenodd;fill:url(#SVGID_00000127043962628171978500000003766751753517669288_);}
	.st142{fill-rule:evenodd;clip-rule:evenodd;fill:#060F12;}
	.st143{fill-rule:evenodd;clip-rule:evenodd;fill:#0057A7;}
	.st144{fill:url(#SVGID_00000086652859071218448580000012622704272023473058_);}
	.st145{fill-rule:evenodd;clip-rule:evenodd;fill:url(#SVGID_00000031185217766000486780000012938387639871237802_);}
	.st146{fill-rule:evenodd;clip-rule:evenodd;fill:#FF6D00;}
	.st147{fill-rule:evenodd;clip-rule:evenodd;fill:#FFED00;}
	.st148{fill-rule:evenodd;clip-rule:evenodd;fill:#FECC00;}
	.st149{fill-rule:evenodd;clip-rule:evenodd;fill:#FEFEFE;}
	.st150{fill-rule:evenodd;clip-rule:evenodd;fill:#C5C6C6;}
	.st151{fill:url(#SVGID_00000005974544325475282370000017135893187364084352_);}
	.st152{fill:url(#SVGID_00000035493868621403929650000008620700865915907733_);}
	.st153{fill:url(#SVGID_00000101079142989124073090000015700506082242838437_);}
	.st154{fill:url(#SVGID_00000096046641066645734720000011003666652888467119_);}
	.st155{fill:#B23735;}
	.st156{fill:#3B2C23;}
	.st157{fill:#F5D38C;}
	.st158{fill:#004C4C;}
</style>
<g id="Layer_1">
</g>
<g id="Layer_2">
</g>
<g id="Layer_3">
</g>
<g id="Layer_4">
</g>
<g id="Layer_5">
</g>
<g id="Layer_6">
</g>
<g id="Layer_7">
</g>
<g id="Layer_8">
</g>
<g id="Layer_9">
</g>
<g id="Layer_10">
</g>
<g id="Layer_11">
</g>
<g id="Layer_12">
</g>
<g id="Layer_13">
</g>
<g id="Layer_14">
</g>
<g id="Layer_15">
	<g id="OBJECTS">
		<path class="st157" d="M190.06,103.53c-7.65,14.98-52.18,14.02-71.15-10.04c-18.97-24.06-17.18-55.76,3.39-66.56
			c18.47-9.69,32.16,5.62,30.54,20.36s-0.62,27.22,18.35,31.39S195.82,92.25,190.06,103.53z M163.99,120.96
			c-21.17,1.8-13.27,46.36,9.29,41.77C195.84,158.15,204.23,117.54,163.99,120.96z M166.57,55.62c9.19,14.03,16.35,19.62,27.3,13.36
			c10.95-6.26,5.09-34.95-11.26-40.66C166.26,22.61,152.54,34.18,166.57,55.62z"/>
		<path class="st158" d="M179.33,38.29h-32.64c-19.13,0-34.68,15.56-34.68,34.68v59.86c0,0.84,0.68,1.52,1.52,1.52
			c0.84,0,1.52-0.67,1.52-1.52V72.98c0-17.45,14.2-31.65,31.65-31.65h32.64c0.84,0,1.52-0.67,1.52-1.52
			C180.84,38.98,180.17,38.29,179.33,38.29z M228.41,57.09c-0.83,0-1.52,0.68-1.52,1.52v42.24c0,0.84,0.68,1.52,1.52,1.52
			c0.84,0,1.52-0.67,1.52-1.52V58.61C229.92,57.78,229.25,57.09,228.41,57.09z M203.41,153.72c-0.17-0.82-0.97-1.35-1.79-1.18
			c-2.08,0.42-4.24,0.64-6.38,0.64h-61.28c-0.83,0-1.52,0.67-1.52,1.52c0,0.83,0.68,1.52,1.52,1.52h61.28c2.35,0,4.7-0.24,6.99-0.71
			C203.05,155.34,203.58,154.54,203.41,153.72z M199.45,55.31c-4.95,4.59-10.6,10-16.41,15.94c-2.64,2.7-5.32,5.51-7.98,8.4
			c-4.56,4.94-9.07,10.1-13.3,15.37c-5.28,6.56-9.58,11.97-13.09,16.41c-5.4,6.85-8.91,11.4-11.14,14.34
			c-0.61-0.46-1.49-0.4-2.02,0.17c-0.02,0.02-0.05,0.05-0.08,0.08c-0.02,0.02-0.04,0.05-0.05,0.08c0-0.01,0-0.01,0-0.02
			c-0.64,0.85-1.13,1.52-1.51,2.04c0,0.3,0.02,0.61,0.03,0.9c0.02,0.51,0.05,1.02,0.1,1.51c0.06,0.65,0.14,1.28,0.24,1.9
			c0.02,0.12,0.04,0.24,0.06,0.36c0.01,0.04,0.14,0.04,0.41,0.02c0.44-0.05,1.23-0.19,2.3-0.44c0.29-0.07,0.61-0.14,0.94-0.22
			c0.5-0.13,1.04-0.27,1.63-0.42l0.96-1.12l0.89-1.02c-0.17,0.05-0.33,0.11-0.49,0.15c0.05-0.46-0.11-0.93-0.47-1.27l-0.04-0.04
			l13.71-15.88l26.66-30.86l9.56-11.07l8.73-10.1l17.71-20.51C216.34,40.39,209.24,46.25,199.45,55.31z M137.33,129.7l-0.94,1.08
			c-0.16-0.14-0.3-0.26-0.42-0.37c0.22-0.3,0.51-0.69,0.86-1.18L137.33,129.7z M135.59,128.09l0.11,0.11
			c-0.11,0.15-0.21,0.29-0.31,0.42c-0.02-0.26-0.02-0.52-0.02-0.78C135.43,127.93,135.51,128.01,135.59,128.09z M199.42,57.82
			L199.42,57.82l-11.66,13.51l-8.43,9.76l-26.92,31.16l-13.09,15.16l-0.66-0.61c2.28-3.01,5.94-7.76,11.65-14.99v-0.01
			c3.43-4.34,7.59-9.56,12.63-15.84c4.36-5.42,9.03-10.75,13.73-15.82c2.76-2.98,5.53-5.86,8.26-8.63
			c5.1-5.19,10.07-9.95,14.52-14.1c0.58-0.55,1.16-1.08,1.72-1.6L199.42,57.82L199.42,57.82z M205.65,68.51
			c0.28-0.18,28.15-17.93,26.77-34.98c-0.42-5.12-2.21-8.53-5.35-10.12c-6.1-3.11-16.37,0.75-23.95,5.4
			c-2.82,1.74-6.33,4.33-10.15,7.6c-7.3,6.24-15.72,14.93-22.55,24.71c-3.19,4.56-6.04,9.37-8.28,14.27
			c-1.49,3.28-2.71,6.61-3.57,9.94c-0.18,0.73-0.87,1.21-1.61,1.13c-0.75-0.07-1.33-0.67-1.36-1.43l-0.36-6.6
			c-2.77,4.72-7.16,13.14-9.58,22.7c-0.18,0.71-0.84,1.18-1.58,1.14c-0.74-0.05-1.32-0.61-1.4-1.34l-0.53-4.84
			c-1.13,3.13-2.52,7.29-3.75,11.86c-1.56,5.82-2.86,12.3-3,18.14c0.02-0.02,0.03-0.05,0.05-0.07c2.09-2.79,5.69-7.47,11.64-15.02
			c3.58-4.54,8.02-10.11,13.5-16.94c4.08-5.08,8.43-10.07,12.83-14.86c2.66-2.9,5.34-5.72,8.01-8.45
			c6.38-6.53,12.58-12.46,17.92-17.39c9.57-8.82,16.38-14.42,16.53-14.54c0.61-0.5,1.49-0.45,2.05,0.11
			c0.55,0.56,0.58,1.46,0.06,2.05l-19.94,23.08v0.01l-0.01,0.02l-0.01,0.01l-4.29,4.96l-0.01,0.01l-11.48,13.29l-26.31,30.45
			l-14.49,16.78c4.43-1.36,10.54-3.61,17.24-7.01h0.01c0.35-0.18,0.7-0.36,1.05-0.55c0.01-0.01,0.02-0.01,0.02-0.02
			c4.51-2.35,9.26-5.22,13.9-8.7l-6.32,0.06h-0.02l-1.51,0.02c-0.01,0-0.02,0-0.02,0c-0.8,0-1.46-0.62-1.52-1.42
			c-0.05-0.8,0.53-1.51,1.33-1.61c0.11-0.01,10.58-1.52,25.37-14.29l-6.95,1.04c-0.77,0.11-1.5-0.37-1.69-1.13s0.23-1.54,0.96-1.8
			c0.06-0.02,2.81-1.05,7.6-4.13c5.39-3.48,13.37-9.59,22.99-19.85l-7.21,1.08c-0.71,0.11-1.39-0.3-1.65-0.97
			C204.78,69.65,205.04,68.89,205.65,68.51z M205.65,68.51c0.28-0.18,28.15-17.93,26.77-34.98c-0.42-5.12-2.21-8.53-5.35-10.12
			c-6.1-3.11-16.37,0.75-23.95,5.4c-2.82,1.74-6.33,4.33-10.15,7.6c-7.3,6.24-15.72,14.93-22.55,24.71
			c-3.19,4.56-6.04,9.37-8.28,14.27c-1.49,3.28-2.71,6.61-3.57,9.94c-0.18,0.73-0.87,1.21-1.61,1.13c-0.75-0.07-1.33-0.67-1.36-1.43
			l-0.36-6.6c-2.77,4.72-7.16,13.14-9.58,22.7c-0.18,0.71-0.84,1.18-1.58,1.14c-0.74-0.05-1.32-0.61-1.4-1.34l-0.53-4.84
			c-1.13,3.13-2.52,7.29-3.75,11.86c-1.56,5.82-2.86,12.3-3,18.14c0.02-0.02,0.03-0.05,0.05-0.07c2.09-2.79,5.69-7.47,11.64-15.02
			c3.58-4.54,8.02-10.11,13.5-16.94c4.08-5.08,8.43-10.07,12.83-14.86c2.66-2.9,5.34-5.72,8.01-8.45
			c6.38-6.53,12.58-12.46,17.92-17.39c9.57-8.82,16.38-14.42,16.53-14.54c0.61-0.5,1.49-0.45,2.05,0.11
			c0.55,0.56,0.58,1.46,0.06,2.05l-19.94,23.08v0.01l-0.01,0.02l-0.01,0.01l-4.29,4.96l-0.01,0.01l-11.48,13.29l-26.31,30.45
			l-14.49,16.78c4.43-1.36,10.54-3.61,17.24-7.01h0.01c0.35-0.18,0.7-0.36,1.05-0.55c0.01-0.01,0.02-0.01,0.02-0.02
			c4.51-2.35,9.26-5.22,13.9-8.7l-6.32,0.06h-0.02l-1.51,0.02c-0.01,0-0.02,0-0.02,0c-0.8,0-1.46-0.62-1.52-1.42
			c-0.05-0.8,0.53-1.51,1.33-1.61c0.11-0.01,10.58-1.52,25.37-14.29l-6.95,1.04c-0.77,0.11-1.5-0.37-1.69-1.13s0.23-1.54,0.96-1.8
			c0.06-0.02,2.81-1.05,7.6-4.13c5.39-3.48,13.37-9.59,22.99-19.85l-7.21,1.08c-0.71,0.11-1.39-0.3-1.65-0.97
			C204.78,69.65,205.04,68.89,205.65,68.51z M205.65,68.51c0.28-0.18,28.15-17.93,26.77-34.98c-0.42-5.12-2.21-8.53-5.35-10.12
			c-6.1-3.11-16.37,0.75-23.95,5.4c-2.82,1.74-6.33,4.33-10.15,7.6c-7.3,6.24-15.72,14.93-22.55,24.71
			c-3.19,4.56-6.04,9.37-8.28,14.27c-1.49,3.28-2.71,6.61-3.57,9.94c-0.18,0.73-0.87,1.21-1.61,1.13c-0.75-0.07-1.33-0.67-1.36-1.43
			l-0.36-6.6c-2.77,4.72-7.16,13.14-9.58,22.7c-0.18,0.71-0.84,1.18-1.58,1.14c-0.74-0.05-1.32-0.61-1.4-1.34l-0.53-4.84
			c-1.13,3.13-2.52,7.29-3.75,11.86c-1.56,5.82-2.86,12.3-3,18.14c0.02-0.02,0.03-0.05,0.05-0.07c2.09-2.79,5.69-7.47,11.64-15.02
			c3.58-4.54,8.02-10.11,13.5-16.94c4.08-5.08,8.43-10.07,12.83-14.86c2.66-2.9,5.34-5.72,8.01-8.45
			c6.38-6.53,12.58-12.46,17.92-17.39c9.57-8.82,16.38-14.42,16.53-14.54c0.61-0.5,1.49-0.45,2.05,0.11
			c0.55,0.56,0.58,1.46,0.06,2.05l-19.94,23.08v0.01l-0.01,0.02l-0.01,0.01l-4.29,4.96l-0.01,0.01l-11.48,13.29l-26.31,30.45
			l-14.49,16.78c4.43-1.36,10.54-3.61,17.24-7.01h0.01c0.35-0.18,0.7-0.36,1.05-0.55c0.01-0.01,0.02-0.01,0.02-0.02
			c4.51-2.35,9.26-5.22,13.9-8.7l-6.32,0.06h-0.02l-1.51,0.02c-0.01,0-0.02,0-0.02,0c-0.8,0-1.46-0.62-1.52-1.42
			c-0.05-0.8,0.53-1.51,1.33-1.61c0.11-0.01,10.58-1.52,25.37-14.29l-6.95,1.04c-0.77,0.11-1.5-0.37-1.69-1.13s0.23-1.54,0.96-1.8
			c0.06-0.02,2.81-1.05,7.6-4.13c5.39-3.48,13.37-9.59,22.99-19.85l-7.21,1.08c-0.71,0.11-1.39-0.3-1.65-0.97
			C204.78,69.65,205.04,68.89,205.65,68.51z M205.65,68.51c0.28-0.18,28.15-17.93,26.77-34.98c-0.42-5.12-2.21-8.53-5.35-10.12
			c-6.1-3.11-16.37,0.75-23.95,5.4c-2.82,1.74-6.33,4.33-10.15,7.6c-7.3,6.24-15.72,14.93-22.55,24.71
			c-3.19,4.56-6.04,9.37-8.28,14.27c-1.49,3.28-2.71,6.61-3.57,9.94c-0.18,0.73-0.87,1.21-1.61,1.13c-0.75-0.07-1.33-0.67-1.36-1.43
			l-0.36-6.6c-2.77,4.72-7.16,13.14-9.58,22.7c-0.18,0.71-0.84,1.18-1.58,1.14c-0.74-0.05-1.32-0.61-1.4-1.34l-0.53-4.84
			c-1.13,3.13-2.52,7.29-3.75,11.86c-1.56,5.82-2.86,12.3-3,18.14c0.02-0.02,0.03-0.05,0.05-0.07c2.09-2.79,5.69-7.47,11.64-15.02
			c3.58-4.54,8.02-10.11,13.5-16.94c4.08-5.08,8.43-10.07,12.83-14.86c2.66-2.9,5.34-5.72,8.01-8.45
			c6.38-6.53,12.58-12.46,17.92-17.39c9.57-8.82,16.38-14.42,16.53-14.54c0.61-0.5,1.49-0.45,2.05,0.11
			c0.55,0.56,0.58,1.46,0.06,2.05l-19.94,23.08v0.01l-0.01,0.02l-0.01,0.01l-4.29,4.96l-0.01,0.01l-11.48,13.29l-26.31,30.45
			l-14.49,16.78c4.43-1.36,10.54-3.61,17.24-7.01h0.01c0.35-0.18,0.7-0.36,1.05-0.55c0.01-0.01,0.02-0.01,0.02-0.02
			c4.51-2.35,9.26-5.22,13.9-8.7l-6.32,0.06h-0.02l-1.51,0.02c-0.01,0-0.02,0-0.02,0c-0.8,0-1.46-0.62-1.52-1.42
			c-0.05-0.8,0.53-1.51,1.33-1.61c0.11-0.01,10.58-1.52,25.37-14.29l-6.95,1.04c-0.77,0.11-1.5-0.37-1.69-1.13s0.23-1.54,0.96-1.8
			c0.06-0.02,2.81-1.05,7.6-4.13c5.39-3.48,13.37-9.59,22.99-19.85l-7.21,1.08c-0.71,0.11-1.39-0.3-1.65-0.97
			C204.78,69.65,205.04,68.89,205.65,68.51z M205.65,68.51c0.28-0.18,28.15-17.93,26.77-34.98c-0.42-5.12-2.21-8.53-5.35-10.12
			c-6.1-3.11-16.37,0.75-23.95,5.4c-2.82,1.74-6.33,4.33-10.15,7.6c-7.3,6.24-15.72,14.93-22.55,24.71
			c-3.19,4.56-6.04,9.37-8.28,14.27c-1.49,3.28-2.71,6.61-3.57,9.94c-0.18,0.73-0.87,1.21-1.61,1.13c-0.75-0.07-1.33-0.67-1.36-1.43
			l-0.36-6.6c-2.77,4.72-7.16,13.14-9.58,22.7c-0.18,0.71-0.84,1.18-1.58,1.14c-0.74-0.05-1.32-0.61-1.4-1.34l-0.53-4.84
			c-1.13,3.13-2.52,7.29-3.75,11.86c-1.56,5.82-2.86,12.3-3,18.14c0.02-0.02,0.03-0.05,0.05-0.07c2.09-2.79,5.69-7.47,11.64-15.02
			c3.58-4.54,8.02-10.11,13.5-16.94c4.08-5.08,8.43-10.07,12.83-14.86c2.66-2.9,5.34-5.72,8.01-8.45
			c6.38-6.53,12.58-12.46,17.92-17.39c9.57-8.82,16.38-14.42,16.53-14.54c0.61-0.5,1.49-0.45,2.05,0.11
			c0.55,0.56,0.58,1.46,0.06,2.05l-19.94,23.08v0.01l-0.01,0.02l-0.01,0.01l-4.29,4.96l-0.01,0.01l-11.48,13.29l-26.31,30.45
			l-14.49,16.78c4.43-1.36,10.54-3.61,17.24-7.01h0.01c0.35-0.18,0.7-0.36,1.05-0.55c0.01-0.01,0.02-0.01,0.02-0.02
			c4.51-2.35,9.26-5.22,13.9-8.7l-6.32,0.06h-0.02l-1.51,0.02c-0.01,0-0.02,0-0.02,0c-0.8,0-1.46-0.62-1.52-1.42
			c-0.05-0.8,0.53-1.51,1.33-1.61c0.11-0.01,10.58-1.52,25.37-14.29l-6.95,1.04c-0.77,0.11-1.5-0.37-1.69-1.13s0.23-1.54,0.96-1.8
			c0.06-0.02,2.81-1.05,7.6-4.13c5.39-3.48,13.37-9.59,22.99-19.85l-7.21,1.08c-0.71,0.11-1.39-0.3-1.65-0.97
			C204.78,69.65,205.04,68.89,205.65,68.51z M205.65,68.51c0.28-0.18,28.15-17.93,26.77-34.98c-0.42-5.12-2.21-8.53-5.35-10.12
			c-6.1-3.11-16.37,0.75-23.95,5.4c-2.82,1.74-6.33,4.33-10.15,7.6c-7.3,6.24-15.72,14.93-22.55,24.71
			c-3.19,4.56-6.04,9.37-8.28,14.27c-1.49,3.28-2.71,6.61-3.57,9.94c-0.18,0.73-0.87,1.21-1.61,1.13c-0.75-0.07-1.33-0.67-1.36-1.43
			l-0.36-6.6c-2.77,4.72-7.16,13.14-9.58,22.7c-0.18,0.71-0.84,1.18-1.58,1.14c-0.74-0.05-1.32-0.61-1.4-1.34l-0.53-4.84
			c-1.13,3.13-2.52,7.29-3.75,11.86c-1.56,5.82-2.86,12.3-3,18.14c0.02-0.02,0.03-0.05,0.05-0.07c2.09-2.79,5.69-7.47,11.64-15.02
			c3.58-4.54,8.02-10.11,13.5-16.94c4.08-5.08,8.43-10.07,12.83-14.86c2.66-2.9,5.34-5.72,8.01-8.45
			c6.38-6.53,12.58-12.46,17.92-17.39c9.57-8.82,16.38-14.42,16.53-14.54c0.61-0.5,1.49-0.45,2.05,0.11
			c0.55,0.56,0.58,1.46,0.06,2.05l-19.94,23.08v0.01l-0.01,0.02l-0.01,0.01l-4.29,4.96l-0.01,0.01l-11.48,13.29l-26.31,30.45
			l-14.49,16.78c4.43-1.36,10.54-3.61,17.24-7.01h0.01c0.35-0.18,0.7-0.36,1.05-0.55c0.01-0.01,0.02-0.01,0.02-0.02
			c4.51-2.35,9.26-5.22,13.9-8.7l-6.32,0.06h-0.02l-1.51,0.02c-0.01,0-0.02,0-0.02,0c-0.8,0-1.46-0.62-1.52-1.42
			c-0.05-0.8,0.53-1.51,1.33-1.61c0.11-0.01,10.58-1.52,25.37-14.29l-6.95,1.04c-0.77,0.11-1.5-0.37-1.69-1.13s0.23-1.54,0.96-1.8
			c0.06-0.02,2.81-1.05,7.6-4.13c5.39-3.48,13.37-9.59,22.99-19.85l-7.21,1.08c-0.71,0.11-1.39-0.3-1.65-0.97
			C204.78,69.65,205.04,68.89,205.65,68.51z M205.65,68.51c0.28-0.18,28.15-17.93,26.77-34.98c-0.42-5.12-2.21-8.53-5.35-10.12
			c-6.1-3.11-16.37,0.75-23.95,5.4c-2.82,1.74-6.33,4.33-10.15,7.6c-7.3,6.24-15.72,14.93-22.55,24.71
			c-3.19,4.56-6.04,9.37-8.28,14.27c-1.49,3.28-2.71,6.61-3.57,9.94c-0.18,0.73-0.87,1.21-1.61,1.13c-0.75-0.07-1.33-0.67-1.36-1.43
			l-0.36-6.6c-2.77,4.72-7.16,13.14-9.58,22.7c-0.18,0.71-0.84,1.18-1.58,1.14c-0.74-0.05-1.32-0.61-1.4-1.34l-0.53-4.84
			c-1.13,3.13-2.52,7.29-3.75,11.86c-1.56,5.82-2.86,12.3-3,18.14c0.02-0.02,0.03-0.05,0.05-0.07c2.09-2.79,5.69-7.47,11.64-15.02
			c3.58-4.54,8.02-10.11,13.5-16.94c4.08-5.08,8.43-10.07,12.83-14.86c2.66-2.9,5.34-5.72,8.01-8.45
			c6.38-6.53,12.58-12.46,17.92-17.39c9.57-8.82,16.38-14.42,16.53-14.54c0.61-0.5,1.49-0.45,2.05,0.11
			c0.55,0.56,0.58,1.46,0.06,2.05l-19.94,23.08v0.01l-0.01,0.02l-0.01,0.01l-4.29,4.96l-0.01,0.01l-11.48,13.29l-26.31,30.45
			l-14.49,16.78c4.43-1.36,10.54-3.61,17.24-7.01h0.01c0.35-0.18,0.7-0.36,1.05-0.55c0.01-0.01,0.02-0.01,0.02-0.02
			c4.51-2.35,9.26-5.22,13.9-8.7l-6.32,0.06h-0.02l-1.51,0.02c-0.01,0-0.02,0-0.02,0c-0.8,0-1.46-0.62-1.52-1.42
			c-0.05-0.8,0.53-1.51,1.33-1.61c0.11-0.01,10.58-1.52,25.37-14.29l-6.95,1.04c-0.77,0.11-1.5-0.37-1.69-1.13s0.23-1.54,0.96-1.8
			c0.06-0.02,2.81-1.05,7.6-4.13c5.39-3.48,13.37-9.59,22.99-19.85l-7.21,1.08c-0.71,0.11-1.39-0.3-1.65-0.97
			C204.78,69.65,205.04,68.89,205.65,68.51z M205.65,68.51c0.28-0.18,28.15-17.93,26.77-34.98c-0.42-5.12-2.21-8.53-5.35-10.12
			c-6.1-3.11-16.37,0.75-23.95,5.4c-2.82,1.74-6.33,4.33-10.15,7.6c-7.3,6.24-15.72,14.93-22.55,24.71
			c-3.19,4.56-6.04,9.37-8.28,14.27c-1.49,3.28-2.71,6.61-3.57,9.94c-0.18,0.73-0.87,1.21-1.61,1.13c-0.75-0.07-1.33-0.67-1.36-1.43
			l-0.36-6.6c-2.77,4.72-7.16,13.14-9.58,22.7c-0.18,0.71-0.84,1.18-1.58,1.14c-0.74-0.05-1.32-0.61-1.4-1.34l-0.53-4.84
			c-1.13,3.13-2.52,7.29-3.75,11.86c-1.56,5.82-2.86,12.3-3,18.14c0.02-0.02,0.03-0.05,0.05-0.07c2.09-2.79,5.69-7.47,11.64-15.02
			c3.58-4.54,8.02-10.11,13.5-16.94c4.08-5.08,8.43-10.07,12.83-14.86c2.66-2.9,5.34-5.72,8.01-8.45
			c6.38-6.53,12.58-12.46,17.92-17.39c9.57-8.82,16.38-14.42,16.53-14.54c0.61-0.5,1.49-0.45,2.05,0.11
			c0.55,0.56,0.58,1.46,0.06,2.05l-19.94,23.08v0.01l-0.01,0.02l-0.01,0.01l-4.29,4.96l-0.01,0.01l-11.48,13.29l-26.31,30.45
			l-14.49,16.78c4.43-1.36,10.54-3.61,17.24-7.01h0.01c0.35-0.18,0.7-0.36,1.05-0.55c0.01-0.01,0.02-0.01,0.02-0.02
			c4.51-2.35,9.26-5.22,13.9-8.7l-6.32,0.06h-0.02l-1.51,0.02c-0.01,0-0.02,0-0.02,0c-0.8,0-1.46-0.62-1.52-1.42
			c-0.05-0.8,0.53-1.51,1.33-1.61c0.11-0.01,10.58-1.52,25.37-14.29l-6.95,1.04c-0.77,0.11-1.5-0.37-1.69-1.13s0.23-1.54,0.96-1.8
			c0.06-0.02,2.81-1.05,7.6-4.13c5.39-3.48,13.37-9.59,22.99-19.85l-7.21,1.08c-0.71,0.11-1.39-0.3-1.65-0.97
			C204.78,69.65,205.04,68.89,205.65,68.51z M205.65,68.51c0.28-0.18,28.15-17.93,26.77-34.98c-0.42-5.12-2.21-8.53-5.35-10.12
			c-6.1-3.11-16.37,0.75-23.95,5.4c-2.82,1.74-6.33,4.33-10.15,7.6c-7.3,6.24-15.72,14.93-22.55,24.71
			c-3.19,4.56-6.04,9.37-8.28,14.27c-1.49,3.28-2.71,6.61-3.57,9.94c-0.18,0.73-0.87,1.21-1.61,1.13c-0.75-0.07-1.33-0.67-1.36-1.43
			l-0.36-6.6c-2.77,4.72-7.16,13.14-9.58,22.7c-0.18,0.71-0.84,1.18-1.58,1.14c-0.74-0.05-1.32-0.61-1.4-1.34l-0.53-4.84
			c-1.13,3.13-2.52,7.29-3.75,11.86c-1.56,5.82-2.86,12.3-3,18.14c0.02-0.02,0.03-0.05,0.05-0.07c2.09-2.79,5.69-7.47,11.64-15.02
			c3.58-4.54,8.02-10.11,13.5-16.94c4.08-5.08,8.43-10.07,12.83-14.86c2.66-2.9,5.34-5.72,8.01-8.45
			c6.38-6.53,12.58-12.46,17.92-17.39c9.57-8.82,16.38-14.42,16.53-14.54c0.61-0.5,1.49-0.45,2.05,0.11
			c0.55,0.56,0.58,1.46,0.06,2.05l-19.94,23.08v0.01l-0.01,0.02l-0.01,0.01l-4.29,4.96l-0.01,0.01l-11.48,13.29l-26.31,30.45
			l-14.49,16.78c4.43-1.36,10.54-3.61,17.24-7.01h0.01c0.35-0.18,0.7-0.36,1.05-0.55c0.01-0.01,0.02-0.01,0.02-0.02
			c4.51-2.35,9.26-5.22,13.9-8.7l-6.32,0.06h-0.02l-1.51,0.02c-0.01,0-0.02,0-0.02,0c-0.8,0-1.46-0.62-1.52-1.42
			c-0.05-0.8,0.53-1.51,1.33-1.61c0.11-0.01,10.58-1.52,25.37-14.29l-6.95,1.04c-0.77,0.11-1.5-0.37-1.69-1.13s0.23-1.54,0.96-1.8
			c0.06-0.02,2.81-1.05,7.6-4.13c5.39-3.48,13.37-9.59,22.99-19.85l-7.21,1.08c-0.71,0.11-1.39-0.3-1.65-0.97
			C204.78,69.65,205.04,68.89,205.65,68.51z M205.65,68.51c0.28-0.18,28.15-17.93,26.77-34.98c-0.42-5.12-2.21-8.53-5.35-10.12
			c-6.1-3.11-16.37,0.75-23.95,5.4c-2.82,1.74-6.33,4.33-10.15,7.6c-7.3,6.24-15.72,14.93-22.55,24.71
			c-3.19,4.56-6.04,9.37-8.28,14.27c-1.49,3.28-2.71,6.61-3.57,9.94c-0.18,0.73-0.87,1.21-1.61,1.13c-0.75-0.07-1.33-0.67-1.36-1.43
			l-0.36-6.6c-2.77,4.72-7.16,13.14-9.58,22.7c-0.18,0.71-0.84,1.18-1.58,1.14c-0.74-0.05-1.32-0.61-1.4-1.34l-0.53-4.84
			c-1.13,3.13-2.52,7.29-3.75,11.86c-1.56,5.82-2.86,12.3-3,18.14c0.02-0.02,0.03-0.05,0.05-0.07c2.09-2.79,5.69-7.47,11.64-15.02
			c3.58-4.54,8.02-10.11,13.5-16.94c4.08-5.08,8.43-10.07,12.83-14.86c2.66-2.9,5.34-5.72,8.01-8.45
			c6.38-6.53,12.58-12.46,17.92-17.39c9.57-8.82,16.38-14.42,16.53-14.54c0.61-0.5,1.49-0.45,2.05,0.11
			c0.55,0.56,0.58,1.46,0.06,2.05l-19.94,23.08v0.01l-0.01,0.02l-0.01,0.01l-4.29,4.96l-0.01,0.01l-11.48,13.29l-26.31,30.45
			l-14.49,16.78c4.43-1.36,10.54-3.61,17.24-7.01h0.01c0.35-0.18,0.7-0.36,1.05-0.55c0.01-0.01,0.02-0.01,0.02-0.02
			c4.51-2.35,9.26-5.22,13.9-8.7l-6.32,0.06h-0.02l-1.51,0.02c-0.01,0-0.02,0-0.02,0c-0.8,0-1.46-0.62-1.52-1.42
			c-0.05-0.8,0.53-1.51,1.33-1.61c0.11-0.01,10.58-1.52,25.37-14.29l-6.95,1.04c-0.77,0.11-1.5-0.37-1.69-1.13s0.23-1.54,0.96-1.8
			c0.06-0.02,2.81-1.05,7.6-4.13c5.39-3.48,13.37-9.59,22.99-19.85l-7.21,1.08c-0.71,0.11-1.39-0.3-1.65-0.97
			C204.78,69.65,205.04,68.89,205.65,68.51z M205.65,68.51c0.28-0.18,28.15-17.93,26.77-34.98c-0.42-5.12-2.21-8.53-5.35-10.12
			c-6.1-3.11-16.37,0.75-23.95,5.4c-2.82,1.74-6.33,4.33-10.15,7.6c-7.3,6.24-15.72,14.93-22.55,24.71
			c-3.19,4.56-6.04,9.37-8.28,14.27c-1.49,3.28-2.71,6.61-3.57,9.94c-0.18,0.73-0.87,1.21-1.61,1.13c-0.75-0.07-1.33-0.67-1.36-1.43
			l-0.36-6.6c-2.77,4.72-7.16,13.14-9.58,22.7c-0.18,0.71-0.84,1.18-1.58,1.14c-0.74-0.05-1.32-0.61-1.4-1.34l-0.53-4.84
			c-1.13,3.13-2.52,7.29-3.75,11.86c-1.56,5.82-2.86,12.3-3,18.14c0.02-0.02,0.03-0.05,0.05-0.07c2.09-2.79,5.69-7.47,11.64-15.02
			c3.58-4.54,8.02-10.11,13.5-16.94c4.08-5.08,8.43-10.07,12.83-14.86c2.66-2.9,5.34-5.72,8.01-8.45
			c6.38-6.53,12.58-12.46,17.92-17.39c9.57-8.82,16.38-14.42,16.53-14.54c0.61-0.5,1.49-0.45,2.05,0.11
			c0.55,0.56,0.58,1.46,0.06,2.05l-19.94,23.08v0.01l-0.01,0.02l-0.01,0.01l-4.29,4.96l-0.01,0.01l-11.48,13.29l-26.31,30.45
			l-14.49,16.78c4.43-1.36,10.54-3.61,17.24-7.01h0.01c0.35-0.18,0.7-0.36,1.05-0.55c0.01-0.01,0.02-0.01,0.02-0.02
			c4.51-2.35,9.26-5.22,13.9-8.7l-6.32,0.06h-0.02l-1.51,0.02c-0.01,0-0.02,0-0.02,0c-0.8,0-1.46-0.62-1.52-1.42
			c-0.05-0.8,0.53-1.51,1.33-1.61c0.11-0.01,10.58-1.52,25.37-14.29l-6.95,1.04c-0.77,0.11-1.5-0.37-1.69-1.13s0.23-1.54,0.96-1.8
			c0.06-0.02,2.81-1.05,7.6-4.13c5.39-3.48,13.37-9.59,22.99-19.85l-7.21,1.08c-0.71,0.11-1.39-0.3-1.65-0.97
			C204.78,69.65,205.04,68.89,205.65,68.51z M235.44,33.28c-0.51-6.24-2.86-10.48-7-12.58c-9.09-4.62-22.89,3.06-26.9,5.52
			c-2.74,1.68-6.41,4.37-10.48,7.85c-7.14,6.08-15.56,14.58-22.55,24.4c-3.43,4.8-6.5,9.92-8.94,15.21
			c-0.49,1.05-0.94,2.11-1.37,3.18L158,73.51c-0.03-0.64-0.47-1.2-1.09-1.38c-0.62-0.17-1.29,0.06-1.66,0.59
			c-0.3,0.42-6.2,8.92-10.37,20.59l-0.42-3.71c-0.06-0.61-0.49-1.11-1.06-1.29c-0.58-0.17-1.21,0.02-1.6,0.48
			c-0.08,0.09-3.46,8.01-6.16,17.89v0.01c-2.05,7.49-3.69,16.11-3.2,23.3c0.02,0.19,0.02,0.38,0.05,0.56v0.01
			c0.01,0.09,0.02,0.18,0.02,0.27c0.03,0.36,0.08,0.71,0.12,1.06c0.05,0.4,0.11,0.8,0.17,1.18c0.02,0.07,0.03,0.14,0.05,0.2
			c0.04,0.11,0.08,0.21,0.14,0.31c0.17,0.29,0.42,0.52,0.73,0.64c0.02,0.02,0.05,0.02,0.07,0.03c0.1,0.04,0.25,0.05,0.45,0.05
			c0.32,0,0.77-0.05,1.35-0.13c0.06-0.01,0.13-0.02,0.2-0.03c0.58-0.09,1.27-0.23,2.05-0.4v-0.01c0,0,0.01,0,0.02,0
			c3.59-0.82,9.2-2.54,15.71-5.37h0.01c4.55-1.97,9.52-4.48,14.55-7.6c3.67-2.27,7.37-4.87,10.94-7.82
			c0.48-0.39,0.67-1.05,0.48-1.64c0-0.02-0.01-0.04-0.02-0.05c-0.23-0.6-0.79-0.99-1.44-0.99l-2.87,0.03
			c4.32-2.03,9.95-5.35,16.43-10.78h0.01c1.64-1.38,3.34-2.89,5.09-4.55c0.48-0.45,0.61-1.17,0.32-1.77
			c-0.29-0.59-0.94-0.93-1.58-0.83l-3.22,0.49c6.12-3.9,15.43-11.08,26.77-23.74c0.43-0.48,0.51-1.17,0.21-1.73
			c-0.31-0.57-0.94-0.87-1.56-0.78l-5.06,0.76C221.11,60.96,236.57,47.32,235.44,33.28z M135.37,127.84
			c0.06,0.09,0.14,0.17,0.22,0.25l0.11,0.11c-0.11,0.15-0.21,0.29-0.31,0.42C135.38,128.36,135.37,128.1,135.37,127.84z
			 M150.31,111.81c3.43-4.34,7.59-9.56,12.63-15.84c4.36-5.42,9.03-10.75,13.73-15.82c2.76-2.98,5.53-5.86,8.26-8.63
			c5.1-5.19,10.07-9.95,14.52-14.1c0.58-0.55,1.16-1.08,1.72-1.6l-1.74,2l-0.01,0.01v0.01l-11.66,13.5l-8.43,9.76l-26.92,31.16
			l-13.09,15.16l-0.66-0.61C140.94,123.79,144.6,119.04,150.31,111.81L150.31,111.81z M137.33,129.7l-0.94,1.08
			c-0.16-0.14-0.3-0.26-0.42-0.37c0.22-0.3,0.51-0.69,0.86-1.18L137.33,129.7z M206.45,69.79l11.44-1.71
			c-11.17,12.47-20.36,19.55-26.37,23.41c-4.93,3.15-7.72,4.13-7.72,4.13l8.35-1.24l3.55-0.53c-1.22,1.16-2.41,2.24-3.58,3.25
			c-15.46,13.43-26.32,14.78-26.32,14.78l12.23-0.12h0.08c-4.31,3.56-8.76,6.57-13.09,9.11c-3.49,2.05-6.92,3.78-10.14,5.25
			c-6.16,2.8-11.57,4.59-15.29,5.62l0.96-1.12l0.89-1.02c-0.17,0.05-0.33,0.11-0.49,0.15c0.05-0.46-0.11-0.93-0.47-1.27l-0.04-0.04
			l13.71-15.88l26.66-30.86l9.56-11.07l8.73-10.1l17.71-20.51c-0.45,0.37-7.56,6.22-17.34,15.28c-4.95,4.59-10.6,10-16.41,15.94
			c-2.64,2.7-5.32,5.51-7.98,8.4c-4.56,4.94-9.07,10.1-13.3,15.37c-5.28,6.56-9.58,11.97-13.09,16.41
			c-5.4,6.85-8.91,11.4-11.14,14.34c-0.61-0.46-1.49-0.4-2.02,0.17c-0.02,0.02-0.05,0.05-0.08,0.08c-0.02,0.02-0.04,0.05-0.05,0.08
			c0-0.01,0-0.01,0-0.02c-0.64,0.85-1.13,1.52-1.51,2.04c-0.15-6.57,1.32-14.13,3.12-20.8c2.63-9.74,5.96-17.57,5.97-17.57
			l1.21,11.01c3.83-15.08,12.32-27.18,12.32-27.18l0.61,11.37c0.89-3.48,2.17-6.94,3.73-10.36v-0.01c2.33-5.1,5.3-10.07,8.62-14.78
			c6.91-9.78,15.31-18.4,22.58-24.6c3.89-3.32,7.45-5.94,10.29-7.69c12.42-7.63,30.13-12.3,31.6,5.88
			C235.39,51.59,206.45,69.79,206.45,69.79z M158.68,122.59c0.35-0.18,0.7-0.36,1.05-0.55c0.01-0.01,0.02-0.01,0.02-0.02
			c4.51-2.35,9.26-5.22,13.9-8.7l-6.32,0.06h-0.02l-1.51,0.02c-0.01,0-0.02,0-0.02,0c-0.8,0-1.46-0.62-1.52-1.42
			c-0.05-0.8,0.53-1.51,1.33-1.61c0.11-0.01,10.58-1.52,25.37-14.29l-6.95,1.04c-0.77,0.11-1.5-0.37-1.69-1.13s0.23-1.54,0.96-1.8
			c0.06-0.02,2.81-1.05,7.6-4.13c5.39-3.48,13.37-9.59,22.99-19.85l-7.21,1.08c-0.71,0.11-1.39-0.3-1.65-0.97
			c-0.25-0.67,0.01-1.43,0.61-1.81c0.28-0.18,28.15-17.93,26.77-34.98c-0.42-5.12-2.21-8.53-5.35-10.12
			c-6.1-3.11-16.37,0.75-23.95,5.4c-2.82,1.74-6.33,4.33-10.15,7.6c-7.3,6.24-15.72,14.93-22.55,24.71
			c-3.19,4.56-6.04,9.37-8.28,14.27c-1.49,3.28-2.71,6.61-3.57,9.94c-0.18,0.73-0.87,1.21-1.61,1.13c-0.75-0.07-1.33-0.67-1.36-1.43
			l-0.36-6.6c-2.77,4.72-7.16,13.14-9.58,22.7c-0.18,0.71-0.84,1.18-1.58,1.14c-0.74-0.05-1.32-0.61-1.4-1.34l-0.53-4.84
			c-1.13,3.13-2.52,7.29-3.75,11.86c-1.56,5.82-2.86,12.3-3,18.14c0.02-0.02,0.03-0.05,0.05-0.07c2.09-2.79,5.69-7.47,11.64-15.02
			c3.58-4.54,8.02-10.11,13.5-16.94c4.08-5.08,8.43-10.07,12.83-14.86c2.66-2.9,5.34-5.72,8.01-8.45
			c6.38-6.53,12.58-12.46,17.92-17.39c9.57-8.82,16.38-14.42,16.53-14.54c0.61-0.5,1.49-0.45,2.05,0.11
			c0.55,0.56,0.58,1.46,0.06,2.05l-19.94,23.08v0.01l-0.01,0.02l-0.01,0.01l-4.29,4.96l-0.01,0.01l-11.48,13.29l-26.31,30.45
			l-14.49,16.78C145.86,128.24,151.98,125.99,158.68,122.59L158.68,122.59z M205.65,68.51c0.28-0.18,28.15-17.93,26.77-34.98
			c-0.42-5.12-2.21-8.53-5.35-10.12c-6.1-3.11-16.37,0.75-23.95,5.4c-2.82,1.74-6.33,4.33-10.15,7.6
			c-7.3,6.24-15.72,14.93-22.55,24.71c-3.19,4.56-6.04,9.37-8.28,14.27c-1.49,3.28-2.71,6.61-3.57,9.94
			c-0.18,0.73-0.87,1.21-1.61,1.13c-0.75-0.07-1.33-0.67-1.36-1.43l-0.36-6.6c-2.77,4.72-7.16,13.14-9.58,22.7
			c-0.18,0.71-0.84,1.18-1.58,1.14c-0.74-0.05-1.32-0.61-1.4-1.34l-0.53-4.84c-1.13,3.13-2.52,7.29-3.75,11.86
			c-1.56,5.82-2.86,12.3-3,18.14c0.02-0.02,0.03-0.05,0.05-0.07c2.09-2.79,5.69-7.47,11.64-15.02c3.58-4.54,8.02-10.11,13.5-16.94
			c4.08-5.08,8.43-10.07,12.83-14.86c2.66-2.9,5.34-5.72,8.01-8.45c6.38-6.53,12.58-12.46,17.92-17.39
			c9.57-8.82,16.38-14.42,16.53-14.54c0.61-0.5,1.49-0.45,2.05,0.11c0.55,0.56,0.58,1.46,0.06,2.05l-19.94,23.08v0.01l-0.01,0.02
			l-0.01,0.01l-4.29,4.96l-0.01,0.01l-11.48,13.29l-26.31,30.45l-14.49,16.78c4.43-1.36,10.54-3.61,17.24-7.01h0.01
			c0.35-0.18,0.7-0.36,1.05-0.55c0.01-0.01,0.02-0.01,0.02-0.02c4.51-2.35,9.26-5.22,13.9-8.7l-6.32,0.06h-0.02l-1.51,0.02
			c-0.01,0-0.02,0-0.02,0c-0.8,0-1.46-0.62-1.52-1.42c-0.05-0.8,0.53-1.51,1.33-1.61c0.11-0.01,10.58-1.52,25.37-14.29l-6.95,1.04
			c-0.77,0.11-1.5-0.37-1.69-1.13s0.23-1.54,0.96-1.8c0.06-0.02,2.81-1.05,7.6-4.13c5.39-3.48,13.37-9.59,22.99-19.85l-7.21,1.08
			c-0.71,0.11-1.39-0.3-1.65-0.97C204.78,69.65,205.04,68.89,205.65,68.51z M205.65,68.51c0.28-0.18,28.15-17.93,26.77-34.98
			c-0.42-5.12-2.21-8.53-5.35-10.12c-6.1-3.11-16.37,0.75-23.95,5.4c-2.82,1.74-6.33,4.33-10.15,7.6
			c-7.3,6.24-15.72,14.93-22.55,24.71c-3.19,4.56-6.04,9.37-8.28,14.27c-1.49,3.28-2.71,6.61-3.57,9.94
			c-0.18,0.73-0.87,1.21-1.61,1.13c-0.75-0.07-1.33-0.67-1.36-1.43l-0.36-6.6c-2.77,4.72-7.16,13.14-9.58,22.7
			c-0.18,0.71-0.84,1.18-1.58,1.14c-0.74-0.05-1.32-0.61-1.4-1.34l-0.53-4.84c-1.13,3.13-2.52,7.29-3.75,11.86
			c-1.56,5.82-2.86,12.3-3,18.14c0.02-0.02,0.03-0.05,0.05-0.07c2.09-2.79,5.69-7.47,11.64-15.02c3.58-4.54,8.02-10.11,13.5-16.94
			c4.08-5.08,8.43-10.07,12.83-14.86c2.66-2.9,5.34-5.72,8.01-8.45c6.38-6.53,12.58-12.46,17.92-17.39
			c9.57-8.82,16.38-14.42,16.53-14.54c0.61-0.5,1.49-0.45,2.05,0.11c0.55,0.56,0.58,1.46,0.06,2.05l-19.94,23.08v0.01l-0.01,0.02
			l-0.01,0.01l-4.29,4.96l-0.01,0.01l-11.48,13.29l-26.31,30.45l-14.49,16.78c4.43-1.36,10.54-3.61,17.24-7.01h0.01
			c0.35-0.18,0.7-0.36,1.05-0.55c0.01-0.01,0.02-0.01,0.02-0.02c4.51-2.35,9.26-5.22,13.9-8.7l-6.32,0.06h-0.02l-1.51,0.02
			c-0.01,0-0.02,0-0.02,0c-0.8,0-1.46-0.62-1.52-1.42c-0.05-0.8,0.53-1.51,1.33-1.61c0.11-0.01,10.58-1.52,25.37-14.29l-6.95,1.04
			c-0.77,0.11-1.5-0.37-1.69-1.13s0.23-1.54,0.96-1.8c0.06-0.02,2.81-1.05,7.6-4.13c5.39-3.48,13.37-9.59,22.99-19.85l-7.21,1.08
			c-0.71,0.11-1.39-0.3-1.65-0.97C204.78,69.65,205.04,68.89,205.65,68.51z M205.65,68.51c0.28-0.18,28.15-17.93,26.77-34.98
			c-0.42-5.12-2.21-8.53-5.35-10.12c-6.1-3.11-16.37,0.75-23.95,5.4c-2.82,1.74-6.33,4.33-10.15,7.6
			c-7.3,6.24-15.72,14.93-22.55,24.71c-3.19,4.56-6.04,9.37-8.28,14.27c-1.49,3.28-2.71,6.61-3.57,9.94
			c-0.18,0.73-0.87,1.21-1.61,1.13c-0.75-0.07-1.33-0.67-1.36-1.43l-0.36-6.6c-2.77,4.72-7.16,13.14-9.58,22.7
			c-0.18,0.71-0.84,1.18-1.58,1.14c-0.74-0.05-1.32-0.61-1.4-1.34l-0.53-4.84c-1.13,3.13-2.52,7.29-3.75,11.86
			c-1.56,5.82-2.86,12.3-3,18.14c0.02-0.02,0.03-0.05,0.05-0.07c2.09-2.79,5.69-7.47,11.64-15.02c3.58-4.54,8.02-10.11,13.5-16.94
			c4.08-5.08,8.43-10.07,12.83-14.86c2.66-2.9,5.34-5.72,8.01-8.45c6.38-6.53,12.58-12.46,17.92-17.39
			c9.57-8.82,16.38-14.42,16.53-14.54c0.61-0.5,1.49-0.45,2.05,0.11c0.55,0.56,0.58,1.46,0.06,2.05l-19.94,23.08v0.01l-0.01,0.02
			l-0.01,0.01l-4.29,4.96l-0.01,0.01l-11.48,13.29l-26.31,30.45l-14.49,16.78c4.43-1.36,10.54-3.61,17.24-7.01h0.01
			c0.35-0.18,0.7-0.36,1.05-0.55c0.01-0.01,0.02-0.01,0.02-0.02c4.51-2.35,9.26-5.22,13.9-8.7l-6.32,0.06h-0.02l-1.51,0.02
			c-0.01,0-0.02,0-0.02,0c-0.8,0-1.46-0.62-1.52-1.42c-0.05-0.8,0.53-1.51,1.33-1.61c0.11-0.01,10.58-1.52,25.37-14.29l-6.95,1.04
			c-0.77,0.11-1.5-0.37-1.69-1.13s0.23-1.54,0.96-1.8c0.06-0.02,2.81-1.05,7.6-4.13c5.39-3.48,13.37-9.59,22.99-19.85l-7.21,1.08
			c-0.71,0.11-1.39-0.3-1.65-0.97C204.78,69.65,205.04,68.89,205.65,68.51z M205.65,68.51c0.28-0.18,28.15-17.93,26.77-34.98
			c-0.42-5.12-2.21-8.53-5.35-10.12c-6.1-3.11-16.37,0.75-23.95,5.4c-2.82,1.74-6.33,4.33-10.15,7.6
			c-7.3,6.24-15.72,14.93-22.55,24.71c-3.19,4.56-6.04,9.37-8.28,14.27c-1.49,3.28-2.71,6.61-3.57,9.94
			c-0.18,0.73-0.87,1.21-1.61,1.13c-0.75-0.07-1.33-0.67-1.36-1.43l-0.36-6.6c-2.77,4.72-7.16,13.14-9.58,22.7
			c-0.18,0.71-0.84,1.18-1.58,1.14c-0.74-0.05-1.32-0.61-1.4-1.34l-0.53-4.84c-1.13,3.13-2.52,7.29-3.75,11.86
			c-1.56,5.82-2.86,12.3-3,18.14c0.02-0.02,0.03-0.05,0.05-0.07c2.09-2.79,5.69-7.47,11.64-15.02c3.58-4.54,8.02-10.11,13.5-16.94
			c4.08-5.08,8.43-10.07,12.83-14.86c2.66-2.9,5.34-5.72,8.01-8.45c6.38-6.53,12.58-12.46,17.92-17.39
			c9.57-8.82,16.38-14.42,16.53-14.54c0.61-0.5,1.49-0.45,2.05,0.11c0.55,0.56,0.58,1.46,0.06,2.05l-19.94,23.08v0.01l-0.01,0.02
			l-0.01,0.01l-4.29,4.96l-0.01,0.01l-11.48,13.29l-26.31,30.45l-14.49,16.78c4.43-1.36,10.54-3.61,17.24-7.01h0.01
			c0.35-0.18,0.7-0.36,1.05-0.55c0.01-0.01,0.02-0.01,0.02-0.02c4.51-2.35,9.26-5.22,13.9-8.7l-6.32,0.06h-0.02l-1.51,0.02
			c-0.01,0-0.02,0-0.02,0c-0.8,0-1.46-0.62-1.52-1.42c-0.05-0.8,0.53-1.51,1.33-1.61c0.11-0.01,10.58-1.52,25.37-14.29l-6.95,1.04
			c-0.77,0.11-1.5-0.37-1.69-1.13s0.23-1.54,0.96-1.8c0.06-0.02,2.81-1.05,7.6-4.13c5.39-3.48,13.37-9.59,22.99-19.85l-7.21,1.08
			c-0.71,0.11-1.39-0.3-1.65-0.97C204.78,69.65,205.04,68.89,205.65,68.51z M205.65,68.51c0.28-0.18,28.15-17.93,26.77-34.98
			c-0.42-5.12-2.21-8.53-5.35-10.12c-6.1-3.11-16.37,0.75-23.95,5.4c-2.82,1.74-6.33,4.33-10.15,7.6
			c-7.3,6.24-15.72,14.93-22.55,24.71c-3.19,4.56-6.04,9.37-8.28,14.27c-1.49,3.28-2.71,6.61-3.57,9.94
			c-0.18,0.73-0.87,1.21-1.61,1.13c-0.75-0.07-1.33-0.67-1.36-1.43l-0.36-6.6c-2.77,4.72-7.16,13.14-9.58,22.7
			c-0.18,0.71-0.84,1.18-1.58,1.14c-0.74-0.05-1.32-0.61-1.4-1.34l-0.53-4.84c-1.13,3.13-2.52,7.29-3.75,11.86
			c-1.56,5.82-2.86,12.3-3,18.14c0.02-0.02,0.03-0.05,0.05-0.07c2.09-2.79,5.69-7.47,11.64-15.02c3.58-4.54,8.02-10.11,13.5-16.94
			c4.08-5.08,8.43-10.07,12.83-14.86c2.66-2.9,5.34-5.72,8.01-8.45c6.38-6.53,12.58-12.46,17.92-17.39
			c9.57-8.82,16.38-14.42,16.53-14.54c0.61-0.5,1.49-0.45,2.05,0.11c0.55,0.56,0.58,1.46,0.06,2.05l-19.94,23.08v0.01l-0.01,0.02
			l-0.01,0.01l-4.29,4.96l-0.01,0.01l-11.48,13.29l-26.31,30.45l-14.49,16.78c4.43-1.36,10.54-3.61,17.24-7.01h0.01
			c0.35-0.18,0.7-0.36,1.05-0.55c0.01-0.01,0.02-0.01,0.02-0.02c4.51-2.35,9.26-5.22,13.9-8.7l-6.32,0.06h-0.02l-1.51,0.02
			c-0.01,0-0.02,0-0.02,0c-0.8,0-1.46-0.62-1.52-1.42c-0.05-0.8,0.53-1.51,1.33-1.61c0.11-0.01,10.58-1.52,25.37-14.29l-6.95,1.04
			c-0.77,0.11-1.5-0.37-1.69-1.13s0.23-1.54,0.96-1.8c0.06-0.02,2.81-1.05,7.6-4.13c5.39-3.48,13.37-9.59,22.99-19.85l-7.21,1.08
			c-0.71,0.11-1.39-0.3-1.65-0.97C204.78,69.65,205.04,68.89,205.65,68.51z M205.65,68.51c0.28-0.18,28.15-17.93,26.77-34.98
			c-0.42-5.12-2.21-8.53-5.35-10.12c-6.1-3.11-16.37,0.75-23.95,5.4c-2.82,1.74-6.33,4.33-10.15,7.6
			c-7.3,6.24-15.72,14.93-22.55,24.71c-3.19,4.56-6.04,9.37-8.28,14.27c-1.49,3.28-2.71,6.61-3.57,9.94
			c-0.18,0.73-0.87,1.21-1.61,1.13c-0.75-0.07-1.33-0.67-1.36-1.43l-0.36-6.6c-2.77,4.72-7.16,13.14-9.58,22.7
			c-0.18,0.71-0.84,1.18-1.58,1.14c-0.74-0.05-1.32-0.61-1.4-1.34l-0.53-4.84c-1.13,3.13-2.52,7.29-3.75,11.86
			c-1.56,5.82-2.86,12.3-3,18.14c0.02-0.02,0.03-0.05,0.05-0.07c2.09-2.79,5.69-7.47,11.64-15.02c3.58-4.54,8.02-10.11,13.5-16.94
			c4.08-5.08,8.43-10.07,12.83-14.86c2.66-2.9,5.34-5.72,8.01-8.45c6.38-6.53,12.58-12.46,17.92-17.39
			c9.57-8.82,16.38-14.42,16.53-14.54c0.61-0.5,1.49-0.45,2.05,0.11c0.55,0.56,0.58,1.46,0.06,2.05l-19.94,23.08v0.01l-0.01,0.02
			l-0.01,0.01l-4.29,4.96l-0.01,0.01l-11.48,13.29l-26.31,30.45l-14.49,16.78c4.43-1.36,10.54-3.61,17.24-7.01h0.01
			c0.35-0.18,0.7-0.36,1.05-0.55c0.01-0.01,0.02-0.01,0.02-0.02c4.51-2.35,9.26-5.22,13.9-8.7l-6.32,0.06h-0.02l-1.51,0.02
			c-0.01,0-0.02,0-0.02,0c-0.8,0-1.46-0.62-1.52-1.42c-0.05-0.8,0.53-1.51,1.33-1.61c0.11-0.01,10.58-1.52,25.37-14.29l-6.95,1.04
			c-0.77,0.11-1.5-0.37-1.69-1.13s0.23-1.54,0.96-1.8c0.06-0.02,2.81-1.05,7.6-4.13c5.39-3.48,13.37-9.59,22.99-19.85l-7.21,1.08
			c-0.71,0.11-1.39-0.3-1.65-0.97C204.78,69.65,205.04,68.89,205.65,68.51z M205.65,68.51c0.28-0.18,28.15-17.93,26.77-34.98
			c-0.42-5.12-2.21-8.53-5.35-10.12c-6.1-3.11-16.37,0.75-23.95,5.4c-2.82,1.74-6.33,4.33-10.15,7.6
			c-7.3,6.24-15.72,14.93-22.55,24.71c-3.19,4.56-6.04,9.37-8.28,14.27c-1.49,3.28-2.71,6.61-3.57,9.94
			c-0.18,0.73-0.87,1.21-1.61,1.13c-0.75-0.07-1.33-0.67-1.36-1.43l-0.36-6.6c-2.77,4.72-7.16,13.14-9.58,22.7
			c-0.18,0.71-0.84,1.18-1.58,1.14c-0.74-0.05-1.32-0.61-1.4-1.34l-0.53-4.84c-1.13,3.13-2.52,7.29-3.75,11.86
			c-1.56,5.82-2.86,12.3-3,18.14c0.02-0.02,0.03-0.05,0.05-0.07c2.09-2.79,5.69-7.47,11.64-15.02c3.58-4.54,8.02-10.11,13.5-16.94
			c4.08-5.08,8.43-10.07,12.83-14.86c2.66-2.9,5.34-5.72,8.01-8.45c6.38-6.53,12.58-12.46,17.92-17.39
			c9.57-8.82,16.38-14.42,16.53-14.54c0.61-0.5,1.49-0.45,2.05,0.11c0.55,0.56,0.58,1.46,0.06,2.05l-19.94,23.08v0.01l-0.01,0.02
			l-0.01,0.01l-4.29,4.96l-0.01,0.01l-11.48,13.29l-26.31,30.45l-14.49,16.78c4.43-1.36,10.54-3.61,17.24-7.01h0.01
			c0.35-0.18,0.7-0.36,1.05-0.55c0.01-0.01,0.02-0.01,0.02-0.02c4.51-2.35,9.26-5.22,13.9-8.7l-6.32,0.06h-0.02l-1.51,0.02
			c-0.01,0-0.02,0-0.02,0c-0.8,0-1.46-0.62-1.52-1.42c-0.05-0.8,0.53-1.51,1.33-1.61c0.11-0.01,10.58-1.52,25.37-14.29l-6.95,1.04
			c-0.77,0.11-1.5-0.37-1.69-1.13s0.23-1.54,0.96-1.8c0.06-0.02,2.81-1.05,7.6-4.13c5.39-3.48,13.37-9.59,22.99-19.85l-7.21,1.08
			c-0.71,0.11-1.39-0.3-1.65-0.97C204.78,69.65,205.04,68.89,205.65,68.51z M205.65,68.51c0.28-0.18,28.15-17.93,26.77-34.98
			c-0.42-5.12-2.21-8.53-5.35-10.12c-6.1-3.11-16.37,0.75-23.95,5.4c-2.82,1.74-6.33,4.33-10.15,7.6
			c-7.3,6.24-15.72,14.93-22.55,24.71c-3.19,4.56-6.04,9.37-8.28,14.27c-1.49,3.28-2.71,6.61-3.57,9.94
			c-0.18,0.73-0.87,1.21-1.61,1.13c-0.75-0.07-1.33-0.67-1.36-1.43l-0.36-6.6c-2.77,4.72-7.16,13.14-9.58,22.7
			c-0.18,0.71-0.84,1.18-1.58,1.14c-0.74-0.05-1.32-0.61-1.4-1.34l-0.53-4.84c-1.13,3.13-2.52,7.29-3.75,11.86
			c-1.56,5.82-2.86,12.3-3,18.14c0.02-0.02,0.03-0.05,0.05-0.07c2.09-2.79,5.69-7.47,11.64-15.02c3.58-4.54,8.02-10.11,13.5-16.94
			c4.08-5.08,8.43-10.07,12.83-14.86c2.66-2.9,5.34-5.72,8.01-8.45c6.38-6.53,12.58-12.46,17.92-17.39
			c9.57-8.82,16.38-14.42,16.53-14.54c0.61-0.5,1.49-0.45,2.05,0.11c0.55,0.56,0.58,1.46,0.06,2.05l-19.94,23.08v0.01l-0.01,0.02
			l-0.01,0.01l-4.29,4.96l-0.01,0.01l-11.48,13.29l-26.31,30.45l-14.49,16.78c4.43-1.36,10.54-3.61,17.24-7.01h0.01
			c0.35-0.18,0.7-0.36,1.05-0.55c0.01-0.01,0.02-0.01,0.02-0.02c4.51-2.35,9.26-5.22,13.9-8.7l-6.32,0.06h-0.02l-1.51,0.02
			c-0.01,0-0.02,0-0.02,0c-0.8,0-1.46-0.62-1.52-1.42c-0.05-0.8,0.53-1.51,1.33-1.61c0.11-0.01,10.58-1.52,25.37-14.29l-6.95,1.04
			c-0.77,0.11-1.5-0.37-1.69-1.13s0.23-1.54,0.96-1.8c0.06-0.02,2.81-1.05,7.6-4.13c5.39-3.48,13.37-9.59,22.99-19.85l-7.21,1.08
			c-0.71,0.11-1.39-0.3-1.65-0.97C204.78,69.65,205.04,68.89,205.65,68.51z M199.45,55.31c-4.95,4.59-10.6,10-16.41,15.94
			c-2.64,2.7-5.32,5.51-7.98,8.4c-4.56,4.94-9.07,10.1-13.3,15.37c-5.28,6.56-9.58,11.97-13.09,16.41
			c-5.4,6.85-8.91,11.4-11.14,14.34c-0.61-0.46-1.49-0.4-2.02,0.17c-0.02,0.02-0.05,0.05-0.08,0.08c-0.02,0.02-0.04,0.05-0.05,0.08
			c-0.02,0.58-0.02,1.16-0.01,1.73c0.06,0.09,0.14,0.17,0.22,0.25l0.11,0.11c-0.11,0.15-0.21,0.29-0.31,0.42
			c0.02,0.44,0.04,0.88,0.08,1.31c0.02,0.35,0.05,0.69,0.1,1.03c0,0.06,0.01,0.12,0.02,0.18c0.18-0.04,0.39-0.08,0.61-0.13
			c0.11-0.02,0.24-0.05,0.37-0.08c0.48-0.11,1.03-0.24,1.64-0.41c0.17-0.05,0.36-0.09,0.54-0.14c0.67-0.18,1.4-0.39,2.19-0.63
			c0.05-0.46-0.11-0.93-0.47-1.27l-0.04-0.04l13.71-15.88l26.66-30.86l9.56-11.07l8.73-10.1l17.71-20.51
			C216.34,40.39,209.24,46.25,199.45,55.31z M136.39,130.79c-0.16-0.14-0.3-0.26-0.42-0.37c0.22-0.3,0.51-0.69,0.86-1.18l0.5,0.46
			L136.39,130.79z M199.42,57.82L199.42,57.82l-11.66,13.51l-8.43,9.76l-26.92,31.16l-13.09,15.16l-0.66-0.61
			c2.28-3.01,5.94-7.76,11.65-14.99v-0.01c3.43-4.34,7.59-9.56,12.63-15.84c4.36-5.42,9.03-10.75,13.73-15.82
			c2.76-2.98,5.53-5.86,8.26-8.63c5.1-5.19,10.07-9.95,14.52-14.1c0.58-0.55,1.16-1.08,1.72-1.6L199.42,57.82L199.42,57.82z
			 M205.65,68.51c0.28-0.18,28.15-17.93,26.77-34.98c-0.42-5.12-2.21-8.53-5.35-10.12c-6.1-3.11-16.37,0.75-23.95,5.4
			c-2.82,1.74-6.33,4.33-10.15,7.6c-7.3,6.24-15.72,14.93-22.55,24.71c-3.19,4.56-6.04,9.37-8.28,14.27
			c-1.49,3.28-2.71,6.61-3.57,9.94c-0.18,0.73-0.87,1.21-1.61,1.13c-0.75-0.07-1.33-0.67-1.36-1.43l-0.36-6.6
			c-2.77,4.72-7.16,13.14-9.58,22.7c-0.18,0.71-0.84,1.18-1.58,1.14c-0.74-0.05-1.32-0.61-1.4-1.34l-0.53-4.84
			c-1.13,3.13-2.52,7.29-3.75,11.86c-1.56,5.82-2.86,12.3-3,18.14c0.02-0.02,0.03-0.05,0.05-0.07c2.09-2.79,5.69-7.47,11.64-15.02
			c3.58-4.54,8.02-10.11,13.5-16.94c4.08-5.08,8.43-10.07,12.83-14.86c2.66-2.9,5.34-5.72,8.01-8.45
			c6.38-6.53,12.58-12.46,17.92-17.39c9.57-8.82,16.38-14.42,16.53-14.54c0.61-0.5,1.49-0.45,2.05,0.11
			c0.55,0.56,0.58,1.46,0.06,2.05l-19.94,23.08v0.01l-0.01,0.02l-0.01,0.01l-4.29,4.96l-0.01,0.01l-11.48,13.29l-26.31,30.45
			l-14.49,16.78c4.43-1.36,10.54-3.61,17.24-7.01h0.01c0.35-0.18,0.7-0.36,1.05-0.55c0.01-0.01,0.02-0.01,0.02-0.02
			c4.51-2.35,9.26-5.22,13.9-8.7l-6.32,0.06h-0.02l-1.51,0.02c-0.01,0-0.02,0-0.02,0c-0.8,0-1.46-0.62-1.52-1.42
			c-0.05-0.8,0.53-1.51,1.33-1.61c0.11-0.01,10.58-1.52,25.37-14.29l-6.95,1.04c-0.77,0.11-1.5-0.37-1.69-1.13s0.23-1.54,0.96-1.8
			c0.06-0.02,2.81-1.05,7.6-4.13c5.39-3.48,13.37-9.59,22.99-19.85l-7.21,1.08c-0.71,0.11-1.39-0.3-1.65-0.97
			C204.78,69.65,205.04,68.89,205.65,68.51z M199.45,55.31c-4.95,4.59-10.6,10-16.41,15.94c-2.64,2.7-5.32,5.51-7.98,8.4
			c-4.56,4.94-9.07,10.1-13.3,15.37c-5.28,6.56-9.58,11.97-13.09,16.41c-5.4,6.85-8.91,11.4-11.14,14.34
			c-0.74,0.98-1.34,1.78-1.83,2.43c-0.11,0.15-0.21,0.29-0.31,0.42c-0.19,0.26-0.36,0.49-0.51,0.69c-0.65,0.89-0.89,1.24-0.89,1.24
			c-0.36,0.38-0.73,0.74-1.08,1.07c-0.1,0.09-0.2,0.17-0.29,0.27c-0.23,0.2-0.45,0.4-0.68,0.59c-0.85,0.71-1.68,1.3-2.48,1.78
			c0.06,0.09,0.13,0.17,0.2,0.25c0.03,0.03,0.36,0.36,0.93,0.83c-4.74,3.02-8.74,2.76-10.81,2.27c-1.17,2.74-4.02,9.6-6.35,16.41
			l6.16-6.93l0.83-0.94c0.55-0.62,1.52-0.68,2.14-0.12c-0.61-0.55-0.67-1.49-0.12-2.11c0.3-0.33,0.71-0.5,1.11-0.5
			c0.35,0,0.71,0.12,0.99,0.37c0.3,0.27,0.47,0.63,0.49,1.03c0.02,0.39-0.11,0.78-0.37,1.08c-0.27,0.3-0.63,0.48-1.03,0.5
			c-0.4,0.02-0.78-0.11-1.08-0.37c0.63,0.55,0.68,1.51,0.13,2.14l-0.83,0.93l-6.15,6.91c6.47-3.12,12.94-6.74,15.53-8.22
			c-0.73-2.02-1.47-6.02,1.06-11.15c0.38,0.27,0.78,0.53,1.21,0.79c0.02,0.02,0.05,0.03,0.08,0.04c0.4-0.83,0.89-1.71,1.5-2.62
			c0.16-0.23,0.32-0.46,0.49-0.69c0.03-0.04,0.05-0.08,0.08-0.11c0.29-0.39,0.59-0.8,0.92-1.2l0.41-0.48l0.58-0.67l0.86-0.99
			l0.3-0.36l1.68-1.94l13.71-15.88l26.66-30.86l9.56-11.07l8.73-10.1l17.71-20.51C216.34,40.39,209.24,46.25,199.45,55.31z
			 M137.33,129.7l-0.94,1.08c-0.16-0.14-0.3-0.26-0.42-0.37c0.22-0.3,0.51-0.69,0.86-1.18L137.33,129.7z M199.42,57.82L199.42,57.82
			l-11.66,13.51l-8.43,9.76l-26.92,31.16l-13.09,15.16l-0.66-0.61c2.28-3.01,5.94-7.76,11.65-14.99v-0.01
			c3.43-4.34,7.59-9.56,12.63-15.84c4.36-5.42,9.03-10.75,13.73-15.82c2.76-2.98,5.53-5.86,8.26-8.63
			c5.1-5.19,10.07-9.95,14.52-14.1c0.58-0.55,1.16-1.08,1.72-1.6L199.42,57.82L199.42,57.82z M109.88,160.31
			c0.31-1.11,0.65-2.26,1.02-3.43l-2.15,2.43c-0.14,0.15-0.23,0.33-0.3,0.51c-0.02,0.06-0.04,0.12-0.05,0.18
			c-0.02,0.03-0.02,0.07-0.02,0.1c-0.05,0.3,0.01,0.61,0.14,0.88c0.04,0.08,0.08,0.16,0.14,0.23c0.04,0.05,0.07,0.08,0.11,0.13
			c0.04,0.04,0.08,0.08,0.11,0.11c0.29,0.25,0.64,0.39,1.01,0.39c0.1,0,0.2-0.01,0.29-0.03c0.09-0.02,0.17-0.04,0.26-0.08
			c0.01,0,0.02,0,0.03-0.01c0.02-0.01,0.03-0.02,0.05-0.02c0.19-0.09,0.36-0.21,0.52-0.38l2.15-2.43
			C112.05,159.4,110.95,159.88,109.88,160.31z M199.45,55.31c-4.95,4.59-10.6,10-16.41,15.94c-2.64,2.7-5.32,5.51-7.98,8.4
			c-4.56,4.94-9.07,10.1-13.3,15.37c-5.28,6.56-9.58,11.97-13.09,16.41c-5.4,6.85-8.91,11.4-11.14,14.34
			c-0.61-0.46-1.49-0.4-2.02,0.17c-0.02,0.02-0.05,0.05-0.08,0.08c-0.02,0.02-0.04,0.05-0.05,0.08c0-0.01,0-0.01,0-0.02
			c-0.64,0.85-1.13,1.52-1.51,2.04c-0.59,0.8-0.91,1.25-1.05,1.45c-0.13,0.14-0.26,0.27-0.39,0.39c-0.87,0.86-1.72,1.58-2.54,2.18
			c-0.02,0.01-0.04,0.02-0.05,0.04c-5.76,4.15-10.04,2.29-10.25,2.2c-0.37-0.18-0.8-0.2-1.18-0.05c-0.39,0.14-0.7,0.43-0.86,0.81
			c-0.06,0.14-6.21,14.25-9.1,24.66c-0.02,0.03-0.02,0.06-0.03,0.09c-0.01,0.03-0.02,0.06-0.02,0.09c-0.02,0.03-0.02,0.07-0.02,0.1
			c-0.05,0.3,0.01,0.61,0.14,0.88c0.04,0.08,0.08,0.16,0.14,0.23c0.04,0.05,0.07,0.08,0.11,0.13c0.04,0.04,0.08,0.08,0.11,0.11
			c0.29,0.25,0.64,0.39,1.01,0.39c0.1,0,0.2-0.01,0.29-0.03c0.09-0.02,0.17-0.04,0.26-0.08c0.01,0,0.02,0,0.03-0.01
			c0.02-0.01,0.03-0.02,0.05-0.02c9.99-4.09,23.33-11.88,23.46-11.96c0.36-0.2,0.6-0.55,0.71-0.94c0.1-0.39,0.03-0.82-0.18-1.17
			c-0.12-0.2-2.54-4.35,1.12-10.7c0.56-0.98,1.27-2,2.15-3.08l0.1-0.11l1.72-1.99l0.96-1.12l0.89-1.02
			c-0.17,0.05-0.33,0.11-0.49,0.15c0.05-0.46-0.11-0.93-0.47-1.27l-0.04-0.04l13.71-15.88l26.66-30.86l9.56-11.07l8.73-10.1
			l17.71-20.51C216.34,40.39,209.24,46.25,199.45,55.31z M137.33,129.7l-0.94,1.08c-0.16-0.14-0.3-0.26-0.42-0.37
			c0.22-0.3,0.51-0.69,0.86-1.18L137.33,129.7z M135.59,128.09l0.11,0.11c-0.11,0.15-0.21,0.29-0.31,0.42
			c-0.02-0.26-0.02-0.52-0.02-0.78C135.43,127.93,135.51,128.01,135.59,128.09z M133.2,148.43c0,0-10.62,6.22-20.03,10.46
			c-1.12,0.51-2.22,0.99-3.29,1.42c0.31-1.11,0.65-2.26,1.02-3.43c3.12-9.84,8.04-21.12,8.04-21.12s4.49,2.15,10.52-1.5
			c0.06,0.09,0.13,0.17,0.2,0.25c0.03,0.03,0.36,0.36,0.93,0.83c-4.74,3.02-8.74,2.76-10.81,2.27c-1.17,2.74-4.02,9.6-6.35,16.41
			l6.16-6.93l0.83-0.94c0.55-0.62,1.52-0.68,2.14-0.12c-0.61-0.55-0.67-1.49-0.12-2.11c0.3-0.33,0.71-0.5,1.11-0.5
			c0.35,0,0.71,0.12,0.99,0.37c0.3,0.27,0.47,0.63,0.49,1.03c0.02,0.39-0.11,0.78-0.37,1.08c-0.27,0.3-0.63,0.48-1.03,0.5
			c-0.4,0.02-0.78-0.11-1.08-0.37c0.63,0.55,0.68,1.51,0.13,2.14l-0.83,0.93l-6.15,6.91c6.47-3.12,12.94-6.74,15.53-8.22
			c-0.73-2.02-1.47-6.02,1.06-11.15c0.38,0.27,0.78,0.53,1.21,0.79c0.02,0.02,0.05,0.03,0.08,0.04
			C130.44,144.08,133.2,148.43,133.2,148.43z M199.42,57.82L199.42,57.82l-11.66,13.51l-8.43,9.76l-26.92,31.16l-13.09,15.16
			l-0.66-0.61c2.28-3.01,5.94-7.76,11.65-14.99v-0.01c3.43-4.34,7.59-9.56,12.63-15.84c4.36-5.42,9.03-10.75,13.73-15.82
			c2.76-2.98,5.53-5.86,8.26-8.63c5.1-5.19,10.07-9.95,14.52-14.1c0.58-0.55,1.16-1.08,1.72-1.6L199.42,57.82L199.42,57.82z
			 M135.96,130.42c-0.17,0.23-0.3,0.41-0.39,0.55c-0.22,0.3-0.31,0.43-0.32,0.44c-0.05,0.07-0.1,0.14-0.16,0.2
			c-0.29,0.3-0.57,0.58-0.86,0.85c-0.09,0.09-0.18,0.17-0.27,0.26c-0.28,0.27-0.57,0.52-0.85,0.76c-0.05,0.05-0.08,0.08-0.12,0.11
			c-0.81,0.69-1.61,1.27-2.39,1.77c-4.74,3.02-8.74,2.76-10.81,2.27c-1.17,2.74-4.02,9.6-6.35,16.41l6.16-6.93l0.83-0.94
			c0.55-0.62,1.52-0.68,2.14-0.12c-0.61-0.55-0.67-1.49-0.12-2.11c0.3-0.33,0.71-0.5,1.11-0.5c0.35,0,0.71,0.12,0.99,0.37
			c0.3,0.27,0.47,0.63,0.49,1.03c0.02,0.39-0.11,0.78-0.37,1.08c-0.27,0.3-0.63,0.48-1.03,0.5c-0.4,0.02-0.78-0.11-1.08-0.37
			c0.63,0.55,0.68,1.51,0.13,2.14l-0.83,0.93l-6.15,6.91c6.47-3.12,12.94-6.74,15.53-8.22c-0.73-2.02-1.47-6.02,1.06-11.15
			c0.39-0.79,0.85-1.6,1.4-2.43c0.04-0.06,0.08-0.13,0.13-0.19c0.2-0.3,0.4-0.59,0.62-0.89c0.08-0.11,0.15-0.2,0.23-0.31
			c0.23-0.31,0.47-0.61,0.73-0.92c0.01-0.02,0.02-0.02,0.02-0.03l0.74-0.86l0.2-0.23C136.23,130.65,136.09,130.53,135.96,130.42z
			 M138.66,126.8c-0.75,1-1.36,1.8-1.83,2.44l0.5,0.46l1.99-2.3L138.66,126.8z M199.45,55.31c-4.95,4.59-10.6,10-16.41,15.94
			c-2.64,2.7-5.32,5.51-7.98,8.4c0.27,0.08,0.55,0.17,0.81,0.25c0.27,0.08,0.54,0.16,0.8,0.25c2.76-2.98,5.53-5.86,8.26-8.63
			c5.1-5.19,10.07-9.95,14.52-14.1C199.47,56.72,199.48,56.02,199.45,55.31z M126.56,141.53c-1.86-1.65-4.72-1.49-6.38,0.38
			c-1.3,1.47-1.48,3.56-0.58,5.19l0.83-0.94c0.55-0.62,1.52-0.68,2.14-0.12c-0.61-0.55-0.67-1.49-0.12-2.11
			c0.3-0.33,0.71-0.5,1.11-0.5c0.35,0,0.71,0.12,0.99,0.37c0.3,0.27,0.47,0.63,0.49,1.03c0.02,0.39-0.11,0.78-0.37,1.08
			c-0.27,0.3-0.63,0.48-1.03,0.5c-0.4,0.02-0.78-0.11-1.08-0.37c0.63,0.55,0.68,1.51,0.13,2.14l-0.83,0.93
			c0.54,0.23,1.11,0.33,1.69,0.33c1.24,0,2.49-0.52,3.38-1.52C128.6,146.06,128.43,143.19,126.56,141.53z M137.95,132.17
			c-0.09-0.17-0.21-0.33-0.36-0.45c-0.03-0.04-0.07-0.07-0.11-0.09c-0.36-0.25-0.66-0.49-0.92-0.7c-0.06-0.05-0.12-0.1-0.17-0.14
			c-0.16-0.14-0.3-0.26-0.42-0.37c-0.22-0.2-0.39-0.36-0.49-0.49c-0.15-0.16-0.23-0.25-0.23-0.27c-0.1-0.14-0.22-0.26-0.35-0.36
			c-0.29-0.2-0.64-0.3-0.99-0.27c-0.27,0.02-0.53,0.11-0.77,0.27c-0.11,0.08-0.22,0.17-0.31,0.28c-0.22,0.27-0.34,0.61-0.34,0.96
			v0.01c0.01,0.09,0.02,0.18,0.02,0.27c0.04,0.2,0.11,0.41,0.24,0.59c0.03,0.04,0.08,0.11,0.17,0.2c0.17,0.23,0.51,0.6,1.05,1.09
			c0.15,0.14,0.32,0.28,0.51,0.43c0.34,0.28,0.74,0.59,1.21,0.92c0.02,0.02,0.04,0.02,0.05,0.04c0.02,0.02,0.04,0.03,0.06,0.04
			c0.25,0.17,0.53,0.24,0.81,0.24c0.43,0,0.86-0.19,1.16-0.54c0.03-0.03,0.06-0.07,0.08-0.11v-0.01
			C138.18,133.25,138.2,132.65,137.95,132.17z M135.11,134.86c-0.01-0.01-0.01-0.02-0.02-0.02c-0.3-0.18-0.58-0.36-0.85-0.55
			c-0.14-0.09-0.27-0.18-0.39-0.27c-0.27-0.2-0.52-0.38-0.74-0.56c-0.09-0.07-0.18-0.14-0.27-0.2c-0.42-0.35-0.74-0.63-0.9-0.79
			c-0.09-0.08-0.14-0.13-0.15-0.14c-0.52-0.51-1.31-0.57-1.9-0.18c-0.02,0.01-0.04,0.02-0.05,0.04c-0.07,0.05-0.14,0.11-0.2,0.17
			c-0.52,0.52-0.57,1.31-0.18,1.9c0.06,0.09,0.13,0.17,0.2,0.25c0.03,0.03,0.36,0.36,0.93,0.83c-4.74,3.02-8.74,2.76-10.81,2.27
			c-1.17,2.74-4.02,9.6-6.35,16.41l6.16-6.93l0.83-0.94c0.55-0.62,1.52-0.68,2.14-0.12c-0.61-0.55-0.67-1.49-0.12-2.11
			c0.3-0.33,0.71-0.5,1.11-0.5c0.35,0,0.71,0.12,0.99,0.37c0.3,0.27,0.47,0.63,0.49,1.03c0.02,0.39-0.11,0.78-0.37,1.08
			c-0.27,0.3-0.63,0.48-1.03,0.5c-0.4,0.02-0.78-0.11-1.08-0.37c0.63,0.55,0.68,1.51,0.13,2.14l-0.83,0.93l-6.15,6.91
			c6.47-3.12,12.94-6.74,15.53-8.22c-0.73-2.02-1.47-6.02,1.06-11.15c0.38,0.27,0.78,0.53,1.21,0.79c0.02,0.02,0.05,0.03,0.08,0.04
			c0.22,0.13,0.47,0.18,0.71,0.18c0.52,0,1.02-0.26,1.3-0.74C136.04,136.22,135.81,135.29,135.11,134.86z M199.45,55.31
			c-4.95,4.59-10.6,10-16.41,15.94c-2.64,2.7-5.32,5.51-7.98,8.4c-4.56,4.94-9.07,10.1-13.3,15.37
			c-5.28,6.56-9.58,11.97-13.09,16.41c-5.4,6.85-8.91,11.4-11.14,14.34c-0.61-0.46-1.49-0.4-2.02,0.17
			c-0.02,0.02-0.05,0.05-0.08,0.08c-0.02,0.02-0.04,0.05-0.05,0.08c-0.36,0.52-0.36,1.21-0.01,1.73c0.06,0.09,0.14,0.17,0.22,0.25
			l0.11,0.11l1.12,1.05l0.5,0.46l0.88,0.82l0.19,0.17c0.02,0.02,0.03,0.02,0.05,0.04c0.29,0.25,0.64,0.37,0.99,0.37
			c0.4,0,0.81-0.17,1.11-0.49l0.89-1.02c-0.17,0.05-0.33,0.11-0.49,0.15c0.05-0.46-0.11-0.93-0.47-1.27l-0.04-0.04l13.71-15.88
			l26.66-30.86l9.56-11.07l8.73-10.1l17.71-20.51C216.34,40.39,209.24,46.25,199.45,55.31z M199.42,57.82L199.42,57.82l-11.66,13.51
			l-8.43,9.76l-26.92,31.16l-13.09,15.16l-0.66-0.61c2.28-3.01,5.94-7.76,11.65-14.99v-0.01c3.43-4.34,7.59-9.56,12.63-15.84
			c4.36-5.42,9.03-10.75,13.73-15.82c2.76-2.98,5.53-5.86,8.26-8.63c5.1-5.19,10.07-9.95,14.52-14.1c0.58-0.55,1.16-1.08,1.72-1.6
			L199.42,57.82L199.42,57.82z M135.84,67.53h-0.67c-0.83,0-1.51-0.68-1.51-1.51v-2.21c0-0.63-0.51-1.14-1.14-1.14
			s-1.14,0.51-1.14,1.14v2.21c0,0.83-0.67,1.51-1.51,1.51h-0.67c-0.63,0-1.14,0.51-1.14,1.14c0,0.62,0.51,1.14,1.14,1.14h0.67
			c0.83,0,1.51,0.67,1.51,1.51v2.2c0,0.63,0.51,1.14,1.14,1.14s1.14-0.51,1.14-1.14v-2.2c0-0.83,0.67-1.51,1.51-1.51h0.67
			c0.63,0,1.14-0.52,1.14-1.14C136.97,68.04,136.46,67.53,135.84,67.53z M170.09,141.51h-0.67c-0.83,0-1.51-0.67-1.51-1.51v-2.2
			c0-0.63-0.51-1.14-1.14-1.14c-0.63,0-1.14,0.52-1.14,1.14v2.2c0,0.83-0.67,1.51-1.51,1.51h-0.67c-0.63,0-1.14,0.51-1.14,1.14
			c0,0.63,0.51,1.14,1.14,1.14h0.67c0.83,0,1.51,0.67,1.51,1.51v2.2c0,0.63,0.51,1.14,1.14,1.14c0.63,0,1.14-0.52,1.14-1.14v-2.2
			c0-0.83,0.67-1.51,1.51-1.51h0.67c0.63,0,1.14-0.51,1.14-1.14C171.23,142.02,170.72,141.51,170.09,141.51z M220.13,85.19h-0.67
			c-0.83,0-1.51-0.67-1.51-1.51v-2.2c0-0.63-0.52-1.14-1.14-1.14c-0.63,0-1.14,0.52-1.14,1.14v2.2c0,0.83-0.68,1.51-1.51,1.51h-0.67
			c-0.62,0-1.14,0.51-1.14,1.14c0,0.63,0.52,1.14,1.14,1.14h0.67c0.83,0,1.51,0.67,1.51,1.51v2.2c0,0.63,0.51,1.14,1.14,1.14
			c0.62,0,1.14-0.52,1.14-1.14v-2.2c0-0.83,0.67-1.51,1.51-1.51h0.67c0.63,0,1.14-0.51,1.14-1.14
			C221.27,85.7,220.76,85.19,220.13,85.19z M123.56,106.54c-2.1,0-3.81,1.71-3.81,3.81c0,2.1,1.71,3.81,3.81,3.81
			c2.1,0,3.81-1.71,3.81-3.81C127.37,108.24,125.66,106.54,123.56,106.54z M123.56,111.12c-0.42,0-0.77-0.35-0.77-0.77
			c0-0.42,0.35-0.77,0.77-0.77c0.42,0,0.77,0.35,0.77,0.77C124.34,110.77,123.99,111.12,123.56,111.12z M146.43,54.79
			c-2.1,0-3.81,1.71-3.81,3.81c0,2.1,1.71,3.81,3.81,3.81c2.1,0,3.81-1.71,3.81-3.81C150.23,56.5,148.53,54.79,146.43,54.79z
			 M146.43,59.37c-0.42,0-0.77-0.35-0.77-0.77c0-0.42,0.35-0.77,0.77-0.77c0.42,0,0.77,0.35,0.77,0.77
			C147.2,59.02,146.85,59.37,146.43,59.37z M232.75,117.06c-4.28-0.62-5.01-1.36-5.36-5.68H205.5c-0.68,4.1-1.68,5.35-4.37,5.62
			c-5.54,0.55-8.25,4.03-7.33,9.53c0.9,5.4,1.87,10.79,2.84,16.18c0.74,4.1,3.44,6.4,7.6,6.41c8.09,0.03,16.17,0.02,24.26,0
			c4.12-0.01,6.81-2.15,7.57-6.17c1.09-5.8,2.09-11.61,3.03-17.43C239.75,121.33,236.93,117.66,232.75,117.06z M232.3,136.66
			c-0.04,2.82-1.48,4.25-4.34,4.26c-7.73,0.03-15.47,0.03-23.2,0c-2.87-0.01-4.27-1.44-4.3-4.3c-0.04-3.3-0.04-6.61,0-9.91
			c0.03-2.83,1.46-4.2,4.34-4.22c3.87-0.03,7.73-0.01,11.6-0.01c3.87,0,7.73-0.02,11.6,0.01c2.88,0.02,4.27,1.38,4.31,4.25
			C232.35,130.05,232.35,133.36,232.3,136.66z M231.95,107.09c-0.03,1.7-1.19,2.37-2.86,2.37c-8.44-0.02-16.87-0.02-25.31,0
			c-1.72,0-2.94-0.58-2.92-2.49c0.02-1.82,1.23-2.32,2.85-2.31c6.07,0.02,12.14,0.01,18.09,0.01c0.07,0.02,0.14,0.03,0.21,0.03
			c0.76,0,1.52-0.02,2.28-0.05c-0.01,0.01-0.01,0.02-0.02,0.03c1.99,0,3.46,0.03,4.91-0.01
			C230.91,104.61,231.98,105.4,231.95,107.09z M237.46,117.07c5.19,0.95,7.63,4.43,6.78,9.16c-0.96,5.38-1.89,10.77-2.81,16.15
			c-0.66,3.89-2.77,6.06-6.75,6.65c4.49-4.63,3.57-10.74,4.98-16.17c0.46-1.76,0.51-3.61,0.95-5.37
			C241.58,123.53,240.72,120.14,237.46,117.07z M233.57,109.9c0-2.14,0-3.5,0-5.43c1.07,0.39,2.3,0.56,3.08,1.24
			c0.46,0.4,0.57,2,0.18,2.4C236.02,108.91,234.77,109.28,233.57,109.9z M229.35,111.32c1.06,0,2.02,0,3.01,0
			c0.29,1.29,0.57,2.55,0.86,3.81C230.23,115.5,229.19,114.56,229.35,111.32z M230.53,126.94c0.04-2.01-0.94-2.77-2.82-2.77
			c-7.59,0.02-15.17,0.01-22.76,0c-1.92,0-2.81,0.92-2.77,2.86c0.05,3.09,0.06,6.18,0,9.27c-0.05,1.97,0.79,2.81,2.76,2.79
			c3.87-0.05,7.73-0.02,11.59-0.02c3.87,0,7.73-0.01,11.59,0c1.66,0,2.43-0.76,2.41-2.44C230.49,133.41,230.47,130.17,230.53,126.94
			z M213.3,128.41c0.2-0.19,0.47-0.32,0.77-0.32h10.79c0.6,0,1.08,0.49,1.08,1.08c0,0.3-0.12,0.57-0.32,0.77
			c-0.2,0.19-0.47,0.32-0.77,0.32h-10.79c-0.6,0-1.09-0.49-1.09-1.08C212.98,128.87,213.1,128.6,213.3,128.41z M206.71,128.41
			c0.2-0.19,0.47-0.32,0.77-0.32h3.41c0.6,0,1.08,0.49,1.08,1.08c0,0.3-0.12,0.57-0.32,0.77c-0.19,0.19-0.46,0.32-0.76,0.32h-3.41
			c-0.6,0-1.08-0.49-1.08-1.08C206.39,128.87,206.51,128.6,206.71,128.41z M218.87,134.9c-0.2,0.19-0.47,0.32-0.77,0.32h-10.63
			c-0.6,0-1.08-0.49-1.08-1.08c0-0.3,0.12-0.57,0.32-0.77c0.2-0.19,0.47-0.32,0.77-0.32h10.63c0.6,0,1.09,0.49,1.09,1.08
			C219.2,134.43,219.07,134.7,218.87,134.9z M226.06,134.9c-0.2,0.19-0.47,0.32-0.77,0.32h-3.41c-0.6,0-1.08-0.49-1.08-1.08
			c0-0.3,0.12-0.57,0.32-0.77c0.2-0.19,0.47-0.32,0.77-0.32h3.41c0.6,0,1.08,0.49,1.08,1.08
			C226.37,134.43,226.25,134.7,226.06,134.9z"/>
	</g>
</g>
</svg>
