<?xml version="1.0" encoding="utf-8"?>
<!-- Generator: Adobe Illustrator 27.8.1, SVG Export Plug-In . SVG Version: 6.00 Build 0)  -->
<svg version="1.1" xmlns="http://www.w3.org/2000/svg" xmlns:xlink="http://www.w3.org/1999/xlink" x="0px" y="0px"
	 viewBox="0 0 350 230" style="enable-background:new 0 0 350 230;" xml:space="preserve">
<style type="text/css">
	.st0{fill:#C61A76;}
	.st1{fill:#8C449A;}
	.st2{fill:#A1FDFF;}
	.st3{fill:#FFF2A4;}
	.st4{fill:#FFF39F;}
	.st5{fill:#D4FFFF;}
	.st6{fill:#F7F3D0;}
	.st7{fill:#BDDBF2;}
	.st8{fill:#181333;}
	.st9{fill:#B5EAC8;}
	.st10{fill:#DA1C5C;}
	.st11{fill:#0C083F;}
	.st12{fill:#A3E5E3;}
	.st13{fill:url(#SVGID_1_);}
	.st14{fill:#841618;}
	.st15{fill:#E4314A;}
	.st16{fill:#5FBB46;}
	.st17{fill:#DCA127;}
	.st18{fill:#45B0E4;}
	.st19{fill:#1A1A1A;}
	.st20{fill:url(#SVGID_00000014634612420447302750000002045415395868547766_);}
	.st21{fill:#275A9A;}
	.st22{fill:#4687C7;}
	.st23{fill:url(#SVGID_00000159468855064770383580000012880519163524944038_);}
	.st24{fill:url(#SVGID_00000024722961760264279740000002287783111326796728_);}
	.st25{fill:url(#SVGID_00000078044112667206162840000016830064140201623449_);}
	.st26{fill:url(#SVGID_00000122719422944920856040000004227591003598085522_);}
	.st27{fill:#507834;}
	.st28{fill:url(#SVGID_00000019647196033623232510000002632075038823307929_);}
	.st29{fill:#F2652E;}
	.st30{fill:#F6872E;}
	.st31{fill:url(#SVGID_00000143588163917076128710000004880947345073108903_);}
	.st32{fill:#8DC641;}
	.st33{fill:#E26926;}
	.st34{fill:#3A77B7;}
	.st35{fill:#9B9DA0;}
	.st36{fill:#EE4079;}
	.st37{fill:#7DCBF1;}
	.st38{fill:#FEE81F;}
	.st39{fill:#231F20;}
	.st40{fill-rule:evenodd;clip-rule:evenodd;fill:#FEC660;}
	.st41{fill-rule:evenodd;clip-rule:evenodd;fill:#DB1F2C;}
	.st42{fill-rule:evenodd;clip-rule:evenodd;fill:#B9479A;}
	.st43{fill-rule:evenodd;clip-rule:evenodd;fill:#3B57A7;}
	.st44{fill-rule:evenodd;clip-rule:evenodd;fill:#3EAAE0;}
	.st45{fill-rule:evenodd;clip-rule:evenodd;fill:#80C342;}
	.st46{fill:#00ADEA;}
	.st47{fill:#EB2227;}
	.st48{fill:#14AB4B;}
	.st49{fill:none;}
	.st50{fill:#FBB03B;}
	.st51{fill:#C59C6D;}
	.st52{fill:url(#SVGID_00000032632839504699311610000016824888600774957974_);}
	.st53{fill:url(#SVGID_00000044159008023280179750000000295736699206152625_);}
	.st54{fill:url(#SVGID_00000131331567189090531390000013889896592573984144_);}
	.st55{fill:#010101;}
	.st56{fill:#CFD1D2;}
	.st57{fill:#A7A9AC;}
	.st58{fill:#00AEEF;}
	.st59{fill:#F7941D;}
	.st60{fill:#EC008C;}
	.st61{fill:#39B54A;}
	.st62{fill:url(#SVGID_00000161624316307947424370000011276052824997397695_);}
	.st63{opacity:0.75;}
	.st64{fill:#005D97;}
	.st65{fill:#FFCD06;}
	.st66{fill:#8C56A3;}
	.st67{fill:#8C328B;}
	.st68{fill:#BBD867;}
	.st69{fill:#1FAFB5;}
	.st70{fill:#D44194;}
	.st71{fill:#EF5AA0;}
	.st72{fill:#F89422;}
	.st73{fill:#FFF4DC;}
	.st74{fill:#FFE7B6;}
	.st75{fill:#FFDB93;}
	.st76{fill:#FFCF6F;}
	.st77{fill:#FEC24A;}
	.st78{fill:#FBAA19;}
	.st79{fill:#FADBE4;}
	.st80{fill:#F5B6CA;}
	.st81{fill:#F093B0;}
	.st82{fill:#E96E95;}
	.st83{fill:#E6497C;}
	.st84{fill:#DA1D49;}
	.st85{fill:#F6DBE9;}
	.st86{fill:#EBB7D5;}
	.st87{fill:#E195C0;}
	.st88{fill:#D673AD;}
	.st89{fill:#CF559F;}
	.st90{fill:#CF2A91;}
	.st91{fill:#D0B6D8;}
	.st92{fill:#B793C4;}
	.st93{fill:#9970B1;}
	.st94{fill:#8356A3;}
	.st95{fill:#74489D;}
	.st96{fill:#663F98;}
	.st97{fill:#DCECF9;}
	.st98{fill:#BADAF3;}
	.st99{fill:#99C6EB;}
	.st100{fill:#7CB5E2;}
	.st101{fill:#63A1D7;}
	.st102{fill:#447BBF;}
	.st103{fill:#DDEEDC;}
	.st104{fill:#BCDFB6;}
	.st105{fill:#9DD196;}
	.st106{fill:#81C674;}
	.st107{fill:#69BE55;}
	.st108{fill:#49B749;}
	.st109{fill:#ED2D88;}
	.st110{fill:#FFF200;}
	.st111{opacity:0.4;fill:#FFFFFF;}
	.st112{fill:#F9E720;}
	.st113{fill:#72CB1B;}
	.st114{fill:#EE6D01;}
	.st115{fill:#27BADC;}
	.st116{fill:#0C71A8;}
	.st117{fill:#F7E522;}
	.st118{fill:#FDFDFB;}
	.st119{fill:#F11B2A;}
	.st120{fill:#F091B9;}
	.st121{fill:#BD23E4;}
	.st122{fill:url(#SVGID_00000001663753876762981830000003839875403885950654_);}
	.st123{fill:url(#SVGID_00000011738515882130415310000005236300662195954050_);}
	.st124{fill:url(#SVGID_00000016058171133071976370000012036143851132318874_);}
	.st125{fill:url(#SVGID_00000183241104336974162810000005351147185495827846_);}
	.st126{fill:url(#SVGID_00000013875022545410963470000014793451873174384539_);}
	.st127{fill:#FFFFFF;}
	.st128{fill:url(#SVGID_00000154416390467720585700000017011569295833163168_);}
	.st129{fill:url(#SVGID_00000104693061521931681560000007154528523376310696_);}
	.st130{fill:url(#SVGID_00000063618596497559653630000012834091018306113185_);}
	.st131{fill:url(#SVGID_00000155826582912177460740000009885325429254811778_);}
	.st132{fill-rule:evenodd;clip-rule:evenodd;fill:url(#SVGID_00000098930040226476045610000001339541802051403158_);}
	.st133{fill:#BE9138;}
	.st134{fill:url(#SVGID_00000111891574003775680850000001169301163548123789_);}
	.st135{fill:url(#SVGID_00000107546788387444995390000018445128966324787075_);}
	.st136{fill:url(#SVGID_00000128484660906492636320000008132802247788920248_);}
	.st137{fill-rule:evenodd;clip-rule:evenodd;fill:url(#SVGID_00000076575355676576725610000009501061353125920909_);}
	.st138{fill-rule:evenodd;clip-rule:evenodd;fill:url(#SVGID_00000044179810996106627690000005943000229112169917_);}
	.st139{fill-rule:evenodd;clip-rule:evenodd;fill:url(#SVGID_00000101819339846109007840000004266263877452138668_);}
	.st140{fill-rule:evenodd;clip-rule:evenodd;fill:url(#SVGID_00000090259094739887935680000012010638945421407655_);}
	.st141{fill-rule:evenodd;clip-rule:evenodd;fill:url(#SVGID_00000013911061637188117460000008463359460088380821_);}
	.st142{fill-rule:evenodd;clip-rule:evenodd;fill:#060F12;}
	.st143{fill-rule:evenodd;clip-rule:evenodd;fill:#0057A7;}
	.st144{fill:url(#SVGID_00000176746857286040080180000017090623869310251938_);}
	.st145{fill-rule:evenodd;clip-rule:evenodd;fill:url(#SVGID_00000078037399857024210100000011997244377807557772_);}
	.st146{fill-rule:evenodd;clip-rule:evenodd;fill:#FF6D00;}
	.st147{fill-rule:evenodd;clip-rule:evenodd;fill:#FFED00;}
	.st148{fill-rule:evenodd;clip-rule:evenodd;fill:#FECC00;}
	.st149{fill-rule:evenodd;clip-rule:evenodd;fill:#FEFEFE;}
	.st150{fill-rule:evenodd;clip-rule:evenodd;fill:#C5C6C6;}
	.st151{fill:url(#SVGID_00000049940613137916705020000018435205467603380666_);}
	.st152{fill:url(#SVGID_00000156559757775000183890000000228754993360301493_);}
	.st153{fill:url(#SVGID_00000178184586498012274330000003215286731799582910_);}
	.st154{fill:url(#SVGID_00000098943937249547977180000000274305347472378523_);}
	.st155{fill:#B23735;}
	.st156{fill:#3B2C23;}
	.st157{fill:#F5D38C;}
	.st158{fill:#004C4C;}
</style>
<g id="Layer_1">
</g>
<g id="Layer_2">
</g>
<g id="Layer_3">
</g>
<g id="Layer_4">
</g>
<g id="Layer_5">
</g>
<g id="Layer_6">
</g>
<g id="Layer_7">
</g>
<g id="Layer_8">
</g>
<g id="Layer_9">
</g>
<g id="Layer_10">
</g>
<g id="Layer_11">
</g>
<g id="Layer_12">
</g>
<g id="Layer_13">
</g>
<g id="Layer_14">
</g>
<g id="Layer_15">
	<linearGradient id="SVGID_1_" gradientUnits="userSpaceOnUse" x1="95.1936" y1="91.9431" x2="254.8065" y2="91.9431">
		<stop  offset="0" style="stop-color:#6441C7"/>
		<stop  offset="0.087" style="stop-color:#505BD2"/>
		<stop  offset="0.2864" style="stop-color:#2592EA"/>
		<stop  offset="0.4354" style="stop-color:#0AB4F9"/>
		<stop  offset="0.5162" style="stop-color:#00C0FE"/>
		<stop  offset="0.5574" style="stop-color:#08BAFC"/>
		<stop  offset="0.623" style="stop-color:#20A9F7"/>
		<stop  offset="0.7048" style="stop-color:#458CEF"/>
		<stop  offset="0.7998" style="stop-color:#7A64E3"/>
		<stop  offset="0.9042" style="stop-color:#BC33D5"/>
		<stop  offset="1" style="stop-color:#FF00C6"/>
	</linearGradient>
	<path class="st13" d="M95.59,44.63c1.38-0.87,2.9-0.66,4.17-1.31c-1.5,0.27-3.01,0.55-4.51,0.82c-0.02-0.08-0.04-0.15-0.05-0.23
		c1.29-0.41,2.57-0.87,3.87-1.22c2.81-0.74,5.61-1.64,8.47-2.09c4.98-0.77,10.01-1.25,15.01-1.84c3.51-0.41,6.97-0.1,10.41,0.69
		c2.67,0.61,5.07,1.78,7.3,3.44c0.2-0.16,0.4-0.32,0.59-0.48c8.75-7.4,18.73-12.28,29.99-14.37c14.36-2.66,28.16-0.84,41.23,5.7
		c12.3,6.15,21.71,15.36,28.27,27.45c4.03,7.42,6.44,15.36,7.33,23.75c0.21,2.02,0.28,4.05,0.37,6.07c0.02,0.42,0.18,0.63,0.49,0.87
		c1.48,1.11,2.95,2.22,4.38,3.4c0.56,0.47,1.06,1.06,1.45,1.68c0.96,1.52,0.23,3.26-1.51,3.66c-0.2,0.05-0.47-0.04-0.66-0.15
		c-1.43-0.81-2.86-1.63-4.39-2.52c-1.43,13.82-6.54,26.02-15.59,36.47c-9.05,10.45-20.31,17.38-33.74,20.65
		c-13.45,3.27-26.71,2.45-39.52-2.78c-18.15-7.42-30.76-20.42-37.25-38.92c-6.49-18.5-4.51-36.47,4.75-53.69
		c-1.13-0.44-2.27-0.87-3.4-1.34c-2.92-1.22-5.47-3.04-7.95-4.98c-3.28-2.56-6.58-5.09-9.88-7.63c-0.22-0.17-0.46-0.32-0.7-0.47
		c-0.91-0.59-1.78-1.24-2.98-0.85c-0.27,0.09-0.6,0.03-0.9-0.02c-1.53-0.25-3.04-0.07-4.55,0.22C96,44.65,95.88,44.63,95.59,44.63z
		 M173.36,64.36c0.19,1.03,0.26,2.19,0.63,3.24c0.53,1.51,1.72,2.38,3.35,2.4c1.76,0.02,3.54-0.01,5.29-0.15
		c2.66-0.22,5.24-0.79,7.67-1.94c2.31-1.09,3.89-2.74,4.16-5.4c0.1-0.94,0.19-1.89-0.29-2.96c-0.05,0.33-0.09,0.48-0.1,0.64
		c-0.13,2.09-1.01,3.83-2.35,5.43c-0.85,1.01-1.91,1.02-2.89,0.69c-1.78-0.6-3.49-1.44-5.21-2.21c-0.66-0.29-0.77-0.65-0.51-1.31
		c0.75-1.96,0.71-3.93,0.12-5.91c-0.11-0.39-0.3-0.57-0.71-0.68c-1.69-0.45-3.37-0.93-5.03-1.46c-0.89-0.29-1.73-0.71-2.6-1.08
		c-0.36,3.08-0.76,4.05-1.87,4.44c0.81-1.63,1.04-3.3,0.74-5.11c-0.9,0-1.76-0.02-2.62,0.02c-0.19,0.01-0.39,0.19-0.54,0.34
		c-0.57,0.6-1.13,1.2-1.67,1.83c-4.98,5.79-9.95,11.59-14.94,17.37c-0.27,0.32-0.36,0.61-0.26,1.03c0.51,2.25,0.99,4.51,1.49,6.77
		c0.06,0.28,0.22,0.56,0.38,0.8c1.73,2.54,3.56,5.02,5.19,7.62c2.44,3.88,4.41,8.02,6.34,12.19c0.12,0.26,0.36,0.57,0.61,0.67
		c1.26,0.48,2.52,0.96,3.81,1.32c2.93,0.82,5.84,0.82,8.66-0.49c2.97-1.37,5.34-3.48,7.28-6.08c0.75-1.01,1.4-2.08,2.16-3.23
		c-0.29,2.67-1.62,4.69-3.38,6.44c-4.92,4.88-10.71,7.04-17.63,5.32c-0.07,0.51,0.05,0.73,0.49,0.81c3.46,0.65,6.88,0.51,10.26-0.45
		c0.21-0.06,0.43-0.11,0.64-0.17c0.01,0.06,0.02,0.12,0.03,0.17c-3.46,2.1-7.3,1.84-11.16,1.64c0.02,0.23,0.02,0.41,0.05,0.59
		c0.29,2.17,0.6,4.34,0.88,6.51c1.06,8.4,1.72,16.83,1.73,25.31c0,3.19-0.14,6.39-0.22,9.58c-0.01,0.3-0.08,0.57,0.38,0.66
		c4.2,0.82,8.44,1.16,12.71,1.07c0.43-0.01,0.54-0.18,0.56-0.57c0.07-1.1,0.18-2.2,0.27-3.31c0.68-8.38,0.8-16.78,0.57-25.18
		c-0.03-1.12,0-2.25,0-3.38c2.82,10.61,2.51,21.4,1.73,32.21c0.5,0.13,0.67-0.03,0.69-0.49c0.14-3.82,0.32-7.63,0.44-11.44
		c0.05-1.63,0.01-3.27,0.01-4.9c0.06,0,0.12,0,0.17-0.01c1.27,5.45,1.55,11,1.53,16.59c0.18-0.01,0.26-0.01,0.34-0.02
		c4-0.52,7.9-1.45,11.71-2.77c0.42-0.14,0.36-0.38,0.33-0.69c-0.52-6.05-1.12-12.09-1.53-18.14c-0.48-7.12-0.43-14.26,0.12-21.38
		c0.01-0.15,0-0.31,0-0.52c-2.09-0.1-4.14-0.24-5.85-1.32c1.75,0.14,3.56,0.3,5.38,0.43c0.65,0.04,0.7-0.06,0.53-0.72
		c-5.23,0.96-9.2-1.64-10.31-3.57c1.12,0.54,2.33,1.18,3.58,1.7c3.12,1.31,6.23,0.41,8.45-2.81c3.93-5.69,6.52-12.03,8.31-18.69
		c0.15-0.55-0.03-0.74-0.58-0.77c-0.89,2.38-1.52,4.91-3.53,6.69c0.92-2.34,1.83-4.68,2.76-7.05c-0.36-0.14-0.56-0.23-0.76-0.31
		c-2.07-0.77-4.14-1.55-6.22-2.29c-0.37-0.13-0.83-0.16-1.22-0.1c-2.04,0.33-4.07,0.29-5.67-1.1c-1-0.87-1.98-1.07-3.19-1
		c-0.74,0.04-1.49-0.06-2.27-0.11c0.71,1.39,1.41,2.73,2.06,4.08c1.68,3.48,3.2,7.02,4.02,10.82c0.32,1.49,0.39,2.91,0.18,3.71
		c-0.11-0.49-0.19-0.92-0.31-1.34c-1.66-5.85-4.12-11.36-6.92-16.74c-0.53-1.01-1.36-1.29-2.36-1.64c0.11,0.27,0.19,0.45,0.27,0.63
		c0.9,2.24,1.43,4.56,1.38,6.99c-0.02,0.96-0.18,1.5-0.41,1.73c-0.35-1.78-0.62-3.69-1.13-5.53c-0.51-1.86-1.46-3.51-3.06-4.72
		c0.01,0.27,0.09,0.51,0.21,0.72c1.64,2.86,2.4,5.93,2.38,9.22c-0.02,3.17-0.95,5.97-3.18,8.28c-0.31,0.32-0.66,0.61-1,0.91
		c0.25-0.73,0.6-1.37,0.91-2.04c2.24-4.81,2.4-9.64,0.15-14.5c-0.47-1.02-1.36-1.88-1-3.16c-0.19-0.04-0.28-0.08-0.38-0.08
		c-1.86,0.03-3.69-0.11-5.49-0.63c-0.14-0.04-0.37,0.02-0.48,0.12c-1.55,1.49-3.26,2.69-5.5,2.8c-0.22,2.07-0.94,3.87-2.38,5.33
		c-0.77,0.77-1.68,1.26-2.83,1.23c1.79-1.29,3.08-2.9,3.53-5.24c-1.68,1.1-3.33,1.93-5.31,1.71c1.81-0.58,3.48-1.4,4.91-2.61
		c-1.23-0.33-2.43-0.65-3.63-0.97c0.01-0.06,0.02-0.13,0.04-0.19c3.5-0.27,6.98-0.62,9.61-3.4
		C172.54,69.02,171.92,66.32,173.36,64.36z M166.01,148.11c0.08-0.87,0.14-1.65,0.21-2.42c0.6-6.51,0.94-13.03,0.65-19.56
		c-0.3-6.64-1.03-13.22-2.62-19.69c-1.15-4.69-2.55-9.31-4.95-13.54c-1.62-2.87-3.37-5.66-5.03-8.51c-0.58-1-1.25-2.01-1.56-3.11
		c-0.71-2.53-1.22-5.12-1.81-7.68c-0.05-0.23-0.14-0.49-0.09-0.71c0.35-1.75,1-3.35,2.3-4.62c1.42-1.39,2.87-2.76,4.3-4.14
		c0.23-0.23,0.45-0.47,0.73-0.77c-0.32-0.1-0.53-0.16-0.74-0.22c-3.67-1.05-7.35-2.06-11-3.16c-1.77-0.53-3.48-1.22-5.22-1.86
		c-0.36-0.13-0.59-0.08-0.89,0.2c-0.55,0.49-1.15,0.95-1.79,1.31c-1.42,0.79-2.98,1.07-4.58,1.13c-0.47,0.02-0.78,0.16-1,0.6
		c-0.36,0.7-0.79,1.35-1.17,2.04c-6.68,12.18-8.88,25.14-6.49,38.82c2.16,12.33,7.82,22.88,16.74,31.66
		c6.36,6.27,13.81,10.79,22.25,13.69C164.8,147.74,165.37,147.91,166.01,148.11z M206.38,145.77c0.24-0.1,0.42-0.16,0.6-0.24
		c7.08-3.16,13.32-7.54,18.62-13.19c9.81-10.45,15.16-22.86,16.06-37.18c0.02-0.35-0.05-0.55-0.38-0.71
		c-1.08-0.53-2.14-1.11-3.22-1.65c-7.18-3.62-14.51-6.91-21.96-9.94c-0.59-0.24-1.17-0.47-1.81-0.72c-0.1,0.34-0.17,0.59-0.24,0.84
		c-1.96,6.68-4.6,13.07-8.31,18.99c-0.46,0.74-0.81,1.57-1.04,2.41c-0.31,1.12-0.5,2.28-0.65,3.43c-0.77,6.32-0.57,12.64,0.06,18.95
		c0.5,4.96,1.16,9.9,1.75,14.85C206.05,142.96,206.21,144.34,206.38,145.77z M241.51,87.41c-0.93-17.56-12.06-39.59-35.64-49.57
		c-22.83-9.67-46.19-2.99-59.54,8.38c4.12,1.06,8.33,2.15,12.59,3.25c0.05-0.38,0.08-0.83,0.16-1.28c0.14-0.76,0.11-1.65,0.51-2.26
		c1.54-2.4,3.36-4.57,5.72-6.21c2.63-1.83,5.45-2.39,8.5-1.14c1.7,0.7,3.11,1.83,4.41,3.1c0.73,0.71,0.72,0.71,1.69,0.32
		c2.82-1.14,5.62-1.31,8.37,0.2c1.62,0.89,2.91,2.14,3.99,3.62c0.35,0.48,0.67,0.6,1.25,0.47c0.74-0.18,1.5-0.26,2.26-0.33
		c4.63-0.42,8.48,1.05,10.75,5.45c0.09,0.18,0.42,0.3,0.65,0.34c0.51,0.09,1.06,0.01,1.53,0.18c1.49,0.54,2.96,1.16,4.42,1.76
		c0.26,0.1,0.53,0.23,0.72,0.43c1.54,1.61,2.66,3.46,2.89,5.7c0.24,2.27-0.18,4.48-0.93,6.63c-0.13,0.37-0.15,0.65,0.09,1
		c0.56,0.82,0.84,1.75,0.78,2.74c-0.06,0.98-0.16,1.97-0.37,2.92c-0.15,0.66,0.09,0.9,0.63,1.17c7.64,3.78,15.19,7.72,22.57,11.99
		C240.16,86.62,240.82,87,241.51,87.41z M139.11,56.07c-0.28-0.07-0.44-0.11-0.61-0.16c-0.43-0.11-1.01-0.09-1.25-0.37
		c-0.89-1.01-2.09-1.35-3.26-1.82c-2.39-0.95-4.74-1.99-7.11-3c-0.21-0.09-0.42-0.19-0.63-0.29c3.25,0.44,6.17,1.83,9.17,3
		c-4.18-2.12-8.4-4.13-13-5.57c2.42,0.13,4.55,0.92,6.65,1.79c2.11,0.88,4.2,1.81,6.31,2.72c-5.42-3.68-11.59-5.53-17.78-7.34
		c5.95,0.86,11.67,2.53,17.16,5.01c-0.14-0.2-0.3-0.37-0.49-0.47c-1.41-0.76-2.77-1.64-4.25-2.23c-5.94-2.38-12.18-3.35-18.54-3.69
		c-1.72-0.09-3.45-0.18-5.17-0.32c-0.57-0.05-1.13-0.28-1.7-0.43c4.26-0.89,8.52-1.29,12.8-1.22c3.67,0.07,7.34,0.32,11.01,0.55
		c2.49,0.16,4.88,0.8,7.13,1.89c1.7,0.82,3.27,1.81,4.28,3.5c0.1,0.16,0.3,0.26,0.45,0.39c0.06-0.2,0.18-0.39,0.18-0.59
		c-0.05-1.3-0.77-2.21-1.76-2.94c-1.61-1.17-3.46-1.78-5.37-2.23c-4.05-0.94-8.2-1.12-12.33-1.27c-2.51-0.09-5.03-0.1-7.53,0.1
		c-3.2,0.26-6.38,0.77-9.57,1.18c-0.41,0.05-0.81,0.12-1.39,0.21c2.73,1.21,5.05,2.76,7.27,4.46c1.98,1.51,3.89,3.11,6.02,4.41
		c2.3,1.4,4.49,2.97,6.81,4.33c2.96,1.74,6.16,2.85,9.63,3C134.83,58.8,137.12,58.1,139.11,56.07z M128.82,60.31
		c-0.52-0.3-0.81-0.14-1.11,0.4c-5.61,10.08-8.35,20.87-8.15,32.41c0.17,9.77,2.45,19.03,6.94,27.71
		c6.33,12.26,15.66,21.57,27.97,27.8c11.76,5.95,24.24,7.95,37.3,6.19c9.23-1.24,17.76-4.42,25.58-9.45
		c9.23-5.95,16.45-13.78,21.66-23.44c4.07-7.54,6.45-15.61,7.29-24.13c0.06-0.62-0.17-0.87-0.7-0.97
		c-2.16,20.34-11.38,36.55-28.6,47.67c-17.21,11.11-35.85,13.15-55.14,6.33c-16.86-5.96-29.07-17.4-36.17-33.81
		C117.34,97.71,118.85,78.75,128.82,60.31z M188.61,70.75c0.02-0.01,0.04-0.03,0.05-0.03c0.15,0.06,0.3,0.11,0.44,0.18
		c1.57,0.74,3.21,1.27,4.94,1.5c0.38,0.05,0.65-0.01,0.9-0.32c0.43-0.53,0.91-1.02,1.34-1.55c4.03-4.82,6.9-10.24,8.46-16.34
		c0.07-0.28,0.14-0.64,0.02-0.86c-0.49-0.91-0.95-1.88-1.62-2.65c-1.74-2.02-4.12-2.55-6.66-2.43c-1.19,0.06-2.36,0.3-3.58,0.47
		c0.33,2.72-0.05,5.24-0.56,7.74c0.32,0.11,0.57,0.19,0.81,0.29c1.39,0.55,2.33,1.53,2.74,2.99c0.73,2.6-0.48,6.37-2.59,8.07
		c-1.77,1.43-3.84,2.23-6.01,2.8c-0.23,0.06-0.47,0.13-0.77,0.2c2.02,1.77,5.48,2.99,6.87,2.47
		C190.23,72.39,189.38,71.94,188.61,70.75z M213.49,57.63c-0.44-1.01-1.02-1.83-2.16-2.18c-0.9-0.27-1.77-0.66-2.63-1.05
		c-0.59-0.27-1.18-0.33-1.81-0.27c-0.42,0.04-0.61,0.18-0.72,0.61c-1.26,4.96-3.41,9.52-6.35,13.71c-0.6,0.85-1.23,1.67-1.89,2.56
		c1.43,0.81,2.81,1.63,4.23,2.37c0.59,0.31,0.83,0.62,0.47,1.23c-0.05,0.08-0.02,0.21-0.05,0.53c1.51-0.83,2.89-1.55,4.24-2.34
		c3.89-2.28,6.39-5.61,7.43-10.01c0.32-1.33,0.17-2.54-0.67-3.71c-1.32-1.83-3.05-2.99-5.2-3.59c-0.35-0.1-0.7-0.18-1.04-0.28
		C209.87,54.83,211.74,56.04,213.49,57.63z M161.06,60.31c0.05,0.02,0.09,0.05,0.14,0.07c0.54-0.53,1.09-1.04,1.61-1.59
		c0.07-0.07,0.04-0.3-0.01-0.43c-0.74-2-0.95-4.06-0.71-6.17c0.14-1.23,0.41-2.43,1.03-3.53c-0.18,2.99-0.27,5.96,0.99,8.84
		c0.16-0.14,0.27-0.23,0.37-0.32c1.61-1.57,3.3-3.07,4.8-4.74c1.01-1.12,2.17-1.31,3.51-1.24c0.3,0.02,0.61,0.01,0.9,0.1
		c0.45,0.14,0.89,0.31,1.31,0.53c0.52,0.27,1.02,0.59,1.54,0.91c0.05-0.14,0.09-0.18,0.08-0.21c-0.35-2.06-0.19-4.08,0.38-6.08
		c0.05-0.17-0.04-0.44-0.16-0.58c-1.7-1.98-3.81-3.18-6.47-3.26c-0.66-0.02-1.32,0-2.12,0c0.95-0.77,1.9-1.05,2.94-0.98
		c2.29,0.14,4.16,1.23,5.87,2.68c0.17,0.15,0.34,0.3,0.51,0.45c0.03-0.21-0.02-0.36-0.12-0.46c-0.8-0.76-1.55-1.59-2.42-2.26
		c-2.76-2.13-5.72-2.17-8.6-0.21c-1.75,1.2-3.14,2.75-4.3,4.51c-0.32,0.48-0.54,1.08-0.62,1.65c-0.47,3.25-0.23,6.49,0.02,9.74
		c0.03,0.45-0.12,0.93-0.21,1.39C161.25,59.51,161.15,59.91,161.06,60.31z M190.94,56.31c0.2-1.83,0.38-3.54,0.56-5.26
		c0.17-1.66-0.3-3.09-1.47-4.29c-0.22-0.23-0.42-0.49-0.64-0.72c-1.29-1.34-2.76-2.35-4.66-2.55c-0.64-0.07-1.29,0.01-1.94,0.01
		c0,0.06-0.01,0.12-0.01,0.17c2.85,0.17,4.94,1.46,6.19,4.08c-0.07,0.02-0.1,0.04-0.1,0.03c-0.14-0.12-0.27-0.23-0.41-0.35
		c-2.68-2.41-5.7-3.08-9.1-1.8c-0.25,0.09-0.55,0.32-0.64,0.55c-0.82,2.2-1.02,4.45-0.44,6.75c0.09,0.37,0.25,0.59,0.65,0.68
		c2.4,0.58,4.79,1.22,7.19,1.78C187.64,55.75,189.19,55.98,190.94,56.31z M141.94,44.61c0.18-0.15,0.3-0.25,0.42-0.35
		c4.09-3.46,8.51-6.41,13.34-8.72c11.86-5.69,24.31-7.53,37.29-5.46c13.71,2.19,25.45,8.32,35.07,18.31
		c11.01,11.43,16.8,25.17,17.57,41.01c0.03,0.64,0.33,0.85,0.86,1c-0.23-22.47-13.91-47.07-39.97-57.49
		c-24.47-9.78-49.83-2.63-65.08,11.11C141.59,44.2,141.75,44.38,141.94,44.61z M158.77,53.52c0.01-0.19,0-0.37,0.03-0.54
		c0.13-0.71-0.18-1.02-0.86-1.2c-2.68-0.72-5.32-1.57-8.01-2.23c-2.82-0.69-5.66-1.37-8.62-0.7c-1.64,0.37-2.5,1.33-2.41,2.99
		c0.05,1,0.47,1.86,1.07,2.64c0.51,0.66,1.15,1.1,1.99,1.35c4.12,1.23,8.22,2.53,12.32,3.8c1.45,0.45,2.91,0.89,4.39,1.35
		c0.17-1.02,0.39-1.98,0.48-2.95c0.1-1.08-0.08-1.31-1.12-1.61c-5.45-1.56-10.89-3.1-16.34-4.65c-0.2-0.06-0.4-0.13-0.61-0.19
		c0.19-0.63,0.61-0.97,1.13-1.08c0.72-0.15,1.47-0.27,2.2-0.26c2.31,0.02,4.55,0.53,6.76,1.12
		C153.68,52.03,156.18,52.78,158.77,53.52z M251.59,97.33c0.04-0.06,0.09-0.11,0.13-0.17c-0.76-0.65-1.49-1.34-2.29-1.94
		c-5.08-3.78-10.58-6.87-16.15-9.84c-4.56-2.43-9.2-4.69-13.8-7.03c-2.77-1.41-5.56-2.8-8.31-4.25c-0.89-0.47-1.49-0.09-2.22,0.41
		c3.68,1.93,7.31,3.8,10.66,6.16c-0.16,0-0.28-0.05-0.41-0.11c-3.71-1.64-7.42-3.29-11.13-4.92c-0.8-0.35-1.68-0.12-2.3,0.61
		C221.61,82.06,236.97,88.88,251.59,97.33z M190.27,63.47c0.77-1.67,0.92-3.39,0.68-5.18c-0.05-0.37-0.18-0.51-0.55-0.56
		c-0.79-0.11-1.58-0.26-2.37-0.41c-1.04-0.19-2.07-0.39-3.15-0.6c0,0.15-0.01,0.23,0,0.3c0.45,1.87,0.49,3.73-0.06,5.59
		c-0.04,0.13,0.13,0.41,0.27,0.47c1.36,0.6,2.72,1.2,4.11,1.72c0.36,0.13,1,0.13,1.22-0.1c1.74-1.74,2.52-3.83,2.03-6.3
		c-0.03-0.16-0.2-0.29-0.31-0.43C192,60.05,192.16,62.09,190.27,63.47z M200.99,74.51c-0.87-0.49-1.75-0.99-2.66-1.51
		c-0.23,0.32-0.41,0.61-0.63,0.86c-0.26,0.3-0.17,0.51,0.08,0.76c0.55,0.54,1.22,0.82,1.98,0.9
		C200.73,75.62,200.8,75.56,200.99,74.51z M174,101c4.14,0.14,7.73-1.25,10.76-4.04c1.3-1.19,2.19-2.67,2.58-4.41
		c0.24-1.06,0.27-2.13,0.11-3.14c-0.53,1.34-0.99,2.73-1.63,4.03c-0.78,1.6-1.84,3.05-3.35,4.04c-1.62,1.06-3.41,1.82-5.29,2.28
		c-1.57,0.39-3.18,0.6-4.9,0.91C172.92,100.8,173.46,100.98,174,101z M130.02,108.47c10.41-2.98,20.81-5.96,31.26-8.95
		c-0.21-0.55-0.39-1-0.59-1.5c-10.29,3.46-20.5,6.9-30.71,10.33C129.99,108.4,130,108.44,130.02,108.47z M135.99,120.53
		c0.17-0.09,0.34-0.17,0.51-0.26c5.38-3.1,10.76-6.2,16.14-9.3c3.29-1.9,6.58-3.79,9.87-5.7c0.17-0.1,0.4-0.34,0.38-0.49
		c-0.05-0.43-0.22-0.84-0.36-1.34c-8.91,5.69-17.75,11.34-26.59,16.99C135.96,120.47,135.98,120.5,135.99,120.53z M157.67,91.77
		c-0.2-0.49-0.52-0.59-1.03-0.58c-5.85,0.15-11.69,0.27-17.54,0.4c-4.07,0.09-8.14,0.19-12.22,0.29c0,0.03,0,0.05,0,0.08
		c10.38,0.24,20.76,0.48,31.29,0.72C157.95,92.29,157.77,92.04,157.67,91.77z M143.79,131.2c0.02-0.01,0.04-0.01,0.05-0.03
		c6.77-6.46,13.55-12.92,20.31-19.39c0.12-0.11,0.23-0.31,0.22-0.45c-0.05-0.46-0.17-0.92-0.29-1.51
		c-6.85,7.17-13.6,14.24-20.35,21.31C143.75,131.15,143.77,131.18,143.79,131.2z M130.13,75.52c7.39,2.49,14.78,4.97,22.28,7.5
		c-0.35-0.89-0.66-1.49-1.62-1.75c-4.48-1.21-8.93-2.52-13.39-3.8c-2.41-0.69-4.82-1.37-7.23-2.06
		C130.16,75.45,130.15,75.49,130.13,75.52z M154.37,138.98c0.19-0.07,0.29-0.2,0.38-0.33c3.42-5.35,6.81-10.71,10.27-16.02
		c0.59-0.91,0.76-1.76,0.45-2.91C161.73,126.2,158.05,132.59,154.37,138.98z M150.29,71.51c-4.75-2.73-9.46-5.45-14.18-8.17
		c-0.03,0.04-0.05,0.08-0.08,0.12c4.62,2.95,9.24,5.91,13.93,8.9C150.1,72.03,150.19,71.79,150.29,71.51z M155.95,64.31
		c-0.74-0.97-1.41-1.34-2.42-1.35c0.61,0.64,1.18,1.24,1.81,1.9C155.58,64.64,155.77,64.47,155.95,64.31z M205.26,105.73
		c-0.1,0.37,0.03,0.57,0.36,0.76c8.09,4.65,16.18,9.32,24.27,13.98c0.09,0.05,0.2,0.08,0.31,0.12c0.01-0.03,0.03-0.05,0.04-0.08
		c-8.22-5.25-16.44-10.51-24.76-15.83C205.39,105.11,205.35,105.43,205.26,105.73z M235.78,108.28c-0.19-0.07-0.37-0.14-0.56-0.2
		c-6.05-2.04-12.11-4.07-18.16-6.11c-2.68-0.9-5.37-1.81-8.06-2.7c-0.19-0.06-0.52-0.05-0.61,0.06c-0.25,0.29-0.4,0.67-0.62,1.06
		c9.37,2.68,18.65,5.34,27.93,8C235.73,108.35,235.75,108.31,235.78,108.28z M234.32,91.87c-0.25-0.04-0.49-0.11-0.74-0.12
		c-4.2-0.1-8.39-0.2-12.59-0.3c-2.77-0.06-5.54-0.13-8.31-0.18c-0.2,0-0.48,0.1-0.59,0.25c-0.19,0.29-0.28,0.64-0.45,1.07
		c7.63-0.17,15.15-0.35,22.66-0.52C234.31,92.01,234.31,91.94,234.32,91.87z M221.8,130.57c-5.7-5.97-11.41-11.94-17.11-17.91
		c-0.02,0.75-0.4,1.44,0.27,2.07c4.7,4.45,9.37,8.93,14.05,13.39c0.89,0.85,1.79,1.7,2.69,2.56
		C221.73,130.65,221.76,130.61,221.8,130.57z M205.08,127.97c0.15,0.55,0.19,1.17,0.47,1.63c1.62,2.63,3.31,5.22,4.97,7.82
		c0.3,0.47,0.61,0.93,0.92,1.4c0.04-0.02,0.08-0.05,0.11-0.07c-2.09-3.62-4.17-7.23-6.26-10.85
		C205.23,127.92,205.16,127.95,205.08,127.97z M230.09,63.27c-0.09,0.05-0.17,0.09-0.26,0.14c-3.91,2.25-7.82,4.52-11.74,6.75
		c-0.52,0.3-0.59,0.66-0.49,1.24c4.23-2.7,8.39-5.37,12.56-8.03C230.14,63.34,230.11,63.3,230.09,63.27z M226.67,78.29
		c0.32,0.01,0.67,0.1,0.96,0.01c1.64-0.52,3.27-1.09,4.9-1.64c1.01-0.34,2.02-0.68,3.02-1.02c-0.01-0.04-0.03-0.09-0.04-0.13
		c-2.95,0.84-5.91,1.69-8.86,2.53C226.66,78.13,226.67,78.21,226.67,78.29z M211.53,44.85c-1.25,1.96-2.5,3.92-3.75,5.88
		c0.05,0.05,0.11,0.1,0.16,0.16c0.17-0.14,0.4-0.24,0.51-0.42c0.44-0.71,0.85-1.45,1.27-2.18c0.64-1.12,1.29-2.24,1.93-3.37
		C211.61,44.89,211.57,44.87,211.53,44.85z M222.24,52.63c-1.61,1.53-3.22,3.06-4.82,4.6c-0.12,0.12-0.14,0.35-0.21,0.53
		c0.07,0.03,0.13,0.06,0.2,0.1c1.64-1.72,3.28-3.43,4.92-5.15C222.29,52.68,222.26,52.66,222.24,52.63z M199.36,39.23
		c-0.63,1.88-1.26,3.76-1.9,5.65c0.06,0.04,0.12,0.07,0.17,0.11c0.1-0.1,0.25-0.19,0.29-0.32c0.53-1.8,1.04-3.6,1.56-5.4
		C199.44,39.25,199.4,39.24,199.36,39.23z M156.39,47.77c-0.62-0.97-1.22-1.9-1.81-2.83C154.86,45.99,155.94,47.67,156.39,47.77z
		 M183.1,40.17c0.15-1.34-0.05-2.68-0.15-4.01c0,1.34,0,2.68,0,4.01C183,40.17,183.05,40.17,183.1,40.17z M203.43,53.42
		c-0.18-1.77-1.35-2.73-2.74-3.46c-1.95-1.03-3.97-1.39-6.04-0.29C198.23,49.4,201.18,50.56,203.43,53.42z M205.36,71.7
		c-0.6,0.58-1.29,1.06-1.95,1.6c1.62-0.05,3.42-1.76,3.62-3.48C206.46,70.48,205.95,71.14,205.36,71.7z"/>
</g>
</svg>
