<?xml version="1.0" encoding="utf-8"?>
<!-- Generator: Adobe Illustrator 27.8.1, SVG Export Plug-In . SVG Version: 6.00 Build 0)  -->
<svg version="1.1" xmlns="http://www.w3.org/2000/svg" xmlns:xlink="http://www.w3.org/1999/xlink" x="0px" y="0px"
	 viewBox="0 0 350 230" style="enable-background:new 0 0 350 230;" xml:space="preserve">
<style type="text/css">
	.st0{fill:#003799;}
	.st1{fill:#630000;}
	.st2{fill-rule:evenodd;clip-rule:evenodd;fill:#037FE1;}
	.st3{fill-rule:evenodd;clip-rule:evenodd;}
	.st4{fill-rule:evenodd;clip-rule:evenodd;fill:#562900;}
	.st5{fill-rule:evenodd;clip-rule:evenodd;fill:#00184C;}
	.st6{fill-rule:evenodd;clip-rule:evenodd;fill:#2C2C5B;}
	.st7{fill-rule:evenodd;clip-rule:evenodd;fill:#007C89;}
	.st8{fill:#C97C00;}
	.st9{fill:#7A6B00;}
	.st10{fill-rule:evenodd;clip-rule:evenodd;fill:#022B18;}
	.st11{fill-rule:evenodd;clip-rule:evenodd;fill:#03113F;}
	.st12{fill:#273F02;}
	.st13{fill:url(#SVGID_1_);}
	.st14{fill:#B62126;}
	.st15{fill:#231F20;}
	.st16{fill:#FFFFFF;}
	.st17{fill:#17629D;}
	.st18{fill:#540159;}
	.st19{fill:#66082A;}
	.st20{fill:#005C68;}
	.st21{fill:#E2FFD7;}
	.st22{fill:#FFFFCC;}
	.st23{fill:#ECFFCF;}
	.st24{fill:#F0F9E1;}
	.st25{fill:#F7F7E2;}
	.st26{fill:#F9D6AC;}
	.st27{fill:#E2F7F3;}
	.st28{fill:#FFF7D2;}
	.st29{fill:#563900;}
	.st30{fill:#66BFE6;}
	.st31{fill:url(#SVGID_00000060008773800690346290000006186048142934777004_);}
	.st32{fill:url(#SVGID_00000144332706465706973820000016031404610366523020_);}
	.st33{fill:url(#SVGID_00000085250598100936790560000006655388699642398385_);}
	.st34{fill:url(#SVGID_00000156578133434867706100000015334631321489136029_);}
	.st35{fill:url(#SVGID_00000061440052865886199420000012106371941109578419_);}
	.st36{fill:url(#SVGID_00000019640395347826102190000004926981210406711973_);}
	.st37{fill:#AEAEB6;}
	.st38{fill:url(#SVGID_00000006691771270651041830000004610115984519539111_);}
	.st39{fill:url(#SVGID_00000109736363651385249400000004557676974030899096_);}
	.st40{fill:url(#SVGID_00000076581007778365683290000005159725749309268120_);}
	.st41{fill:url(#SVGID_00000083800591924325058620000011706404777853162627_);}
	.st42{filter:url(#Adobe_OpacityMaskFilter);}
	.st43{filter:url(#Adobe_OpacityMaskFilter_00000052782226909457741470000007810840109408186541_);}
	
		.st44{mask:url(#SVGID_00000023987988941307549870000012800367098234736268_);fill:url(#SVGID_00000147192847409105801910000001821170070648715925_);}
	.st45{fill:url(#SVGID_00000130638559809696340600000014904515638826073004_);}
	.st46{filter:url(#Adobe_OpacityMaskFilter_00000175315652694008730430000013992269364400417683_);}
	.st47{filter:url(#Adobe_OpacityMaskFilter_00000000905092107330610470000005682370964678970543_);}
	
		.st48{mask:url(#SVGID_00000029737432587107746580000018107602593990358435_);fill:url(#SVGID_00000127036978555839653580000000951018006175084936_);}
	.st49{fill:url(#SVGID_00000147184702412933014470000004837226190515293114_);}
	.st50{fill:url(#SVGID_00000063609384629848091940000004916983197875394970_);}
	.st51{fill:url(#SVGID_00000150103464446186103840000012228714331029558411_);}
	.st52{fill:url(#SVGID_00000104668635609211127030000012672728952311583617_);}
	.st53{fill:url(#SVGID_00000183242538987322882060000002079684518749535624_);}
	.st54{fill:url(#SVGID_00000037669648423813712150000013050093206094007219_);}
	.st55{opacity:0.5;fill:url(#SVGID_00000158731563795194182070000007800243097327581093_);enable-background:new    ;}
	.st56{fill:url(#SVGID_00000093872664031676527260000015461714356995737023_);}
	.st57{fill:url(#SVGID_00000075862141096610094760000007089447921771486105_);}
	.st58{fill:url(#SVGID_00000079460431559969385540000003700538720935531668_);}
	.st59{fill:#3E2770;}
	.st60{fill:#010100;}
	.st61{fill:#0E2C31;}
	.st62{fill:url(#SVGID_00000087413208047642069030000006872502212095934870_);}
	.st63{fill:#FEFEFE;}
	.st64{fill:#CF0F0E;}
	.st65{fill:#272525;}
	.st66{fill:#0C4352;}
	.st67{fill:#2CAFB7;}
	.st68{fill:#A38F7E;}
	.st69{fill:#EA0314;}
	.st70{fill:#0E1D33;}
	.st71{fill:url(#SVGID_00000077312013231680700430000013832502009006209717_);}
	.st72{fill:url(#SVGID_00000085940600691207702960000012470440193962461875_);}
	.st73{fill:url(#SVGID_00000053524128808915066850000004925985769188072602_);}
	.st74{fill:#FF0000;}
	.st75{fill-rule:evenodd;clip-rule:evenodd;fill:#FF0202;}
	.st76{fill:none;}
	.st77{fill:#C41111;}
</style>
<g id="Logo1">
</g>
<g id="Logo2">
</g>
<g id="Logo3">
</g>
<g id="Logo4">
</g>
<g id="Logo5">
</g>
<g id="Logo6">
</g>
<g id="Logo7">
</g>
<g id="Logo8">
</g>
<g id="Logo9">
</g>
<g id="Logo10">
</g>
<g id="Logo11">
</g>
<g id="Logo12">
</g>
<g id="Logo13">
</g>
<g id="Logo14">
</g>
<g id="Layer_15">
	<g>
		<path d="M171.71,27.05c13.91-0.66,29.2,2,42.27,6.71c4.94,1.78,9.7,3.96,14.43,6.23c-0.05,3.67,0.03,7.34-0.02,11.02
			c3.19,1.67,6.28,3.47,9.41,5.25c2.89,1.65,5.8,3.28,8.65,5c0.09,0.64,0.17,1.29,0.25,1.93c0.08,0.65,0.14,1.29,0.21,1.94
			c0.06,0.65,0.12,1.29,0.17,1.94c0.05,0.65,0.09,1.3,0.13,1.95c0.04,0.65,0.07,1.3,0.1,1.95c0.03,0.65,0.04,1.3,0.06,1.95
			c0.01,0.65,0.02,1.3,0.02,1.95c0,0.65-0.01,1.3-0.02,1.95c-0.01,0.65-0.03,1.3-0.05,1.95c-0.02,0.65-0.06,1.3-0.09,1.95
			c-0.04,0.65-0.08,1.3-0.13,1.95c-0.05,0.65-0.11,1.3-0.17,1.94c-0.06,0.65-0.13,1.29-0.21,1.94c-0.07,0.65-0.16,1.29-0.24,1.94
			c-0.09,0.64-0.18,1.29-0.28,1.93c-0.1,0.64-0.21,1.28-0.32,1.92c-0.11,0.64-0.23,1.28-0.35,1.92c-0.12,0.64-0.25,1.27-0.39,1.91
			c-0.14,0.64-0.28,1.27-0.43,1.9c-0.15,0.63-0.3,1.26-0.46,1.89c-0.16,0.63-0.33,1.26-0.5,1.88c-0.17,0.63-0.35,1.25-0.54,1.87
			c-0.19,0.62-0.38,1.24-0.57,1.86c-0.2,0.62-0.4,1.24-0.61,1.85c-0.21,0.62-0.42,1.23-0.64,1.84c-0.22,0.61-0.45,1.22-0.68,1.83
			c-0.23,0.61-0.47,1.21-0.72,1.81c-0.24,0.6-0.49,1.2-0.75,1.8c-0.26,0.6-0.52,1.19-0.78,1.79c-0.27,0.59-0.54,1.18-0.82,1.77
			c-0.28,0.59-0.56,1.17-0.85,1.75c-0.29,0.58-0.59,1.16-0.89,1.74c-1.11,2.15-2.32,4.24-3.62,6.28c-1.3,2.04-2.68,4.02-4.16,5.94
			c-12.7,16.85-30.31,27.83-50.22,34.25c-1.21,0.36-2.33,0.84-3.6,0.58c-1.19-0.24-2.37-0.65-3.52-1.02
			c-3.09-0.97-6.1-2.06-9.08-3.33c-17.55-7.47-32.52-19.27-43.07-35.27c-0.49-0.75-0.97-1.5-1.43-2.26
			c-0.47-0.76-0.93-1.53-1.37-2.3c-0.45-0.77-0.88-1.55-1.31-2.34c-0.43-0.79-0.84-1.58-1.24-2.37c-0.4-0.8-0.8-1.6-1.18-2.41
			c-0.38-0.81-0.75-1.62-1.11-2.44c-0.36-0.82-0.71-1.64-1.04-2.47c-0.34-0.83-0.66-1.66-0.97-2.49c-0.31-0.84-0.62-1.68-0.91-2.52
			c-0.29-0.84-0.57-1.69-0.84-2.54c-0.27-0.85-0.52-1.71-0.77-2.57c-0.24-0.86-0.47-1.72-0.69-2.59c-0.22-0.87-0.43-1.73-0.62-2.6
			c-0.2-0.87-0.38-1.74-0.55-2.62c-0.17-0.88-0.33-1.75-0.48-2.64c-0.15-0.88-0.28-1.76-0.41-2.65c-0.55-4.11-0.88-8.24-0.99-12.39
			c-0.08-2.12-0.08-4.24,0-6.36c0.08-2.12,0.24-4.24,0.49-6.34c0.12-1.06,0.22-2.14,0.44-3.18c2.53-1.42,4.99-2.96,7.52-4.39
			c2.02-1.14,4.05-2.28,6.1-3.39c1.5-0.81,3.02-1.58,4.5-2.43c-0.03-3.75-0.04-7.5-0.02-11.26c1.99-0.9,3.91-1.9,5.92-2.75
			c9.58-4.03,20.12-7.25,30.42-8.73C162.56,27.52,167.15,27.22,171.71,27.05z"/>
		<path class="st63" d="M170.13,36.11c0.8-0.04,1.61-0.07,2.41-0.1c0.8-0.02,1.61-0.04,2.41-0.04c0.8,0,1.61,0,2.41,0.02
			c0.8,0.01,1.61,0.04,2.41,0.07c0.8,0.03,1.61,0.08,2.41,0.13c0.8,0.05,1.61,0.11,2.41,0.18c0.8,0.07,1.6,0.15,2.4,0.24
			c0.8,0.09,1.6,0.19,2.4,0.29c0.8,0.11,1.59,0.22,2.39,0.35c0.8,0.13,1.59,0.26,2.38,0.4c0.79,0.14,1.58,0.3,2.37,0.46
			c0.79,0.16,1.57,0.33,2.36,0.51c0.78,0.18,1.57,0.37,2.35,0.57c0.78,0.2,1.56,0.4,2.33,0.62c0.78,0.22,1.55,0.44,2.32,0.67
			c0.77,0.23,1.54,0.48,2.3,0.73c3.36,1.11,6.77,2.38,9.94,3.95c0.03,0.9,0.08,1.81,0.15,2.71c0.33,4.28,2.21,8.16,5.6,10.85
			c1.14,0.91,2.44,1.64,3.68,2.4l6.08,3.68c1.38,0.84,2.83,1.65,4.06,2.7c0.45,1.92,0.4,5.52,0.39,7.61
			c-0.09,11.96-1.89,24.26-6.65,35.3c-0.18,0.41-0.36,0.82-0.55,1.22c-0.19,0.41-0.37,0.81-0.57,1.21c-0.19,0.4-0.39,0.81-0.59,1.21
			c-0.2,0.4-0.4,0.8-0.61,1.2c-0.21,0.4-0.41,0.79-0.63,1.19c-0.21,0.39-0.43,0.79-0.64,1.18c-0.22,0.39-0.44,0.78-0.66,1.16
			c-0.22,0.39-0.45,0.77-0.68,1.15c-0.23,0.38-0.46,0.76-0.7,1.14c-0.24,0.38-0.48,0.76-0.72,1.13c-0.24,0.38-0.49,0.75-0.74,1.12
			c-0.25,0.37-0.5,0.74-0.76,1.11c-0.25,0.37-0.51,0.73-0.77,1.09c-0.26,0.36-0.52,0.72-0.79,1.08c-0.27,0.36-0.54,0.71-0.81,1.07
			c-0.27,0.35-0.55,0.71-0.83,1.06c-0.28,0.35-0.56,0.7-0.84,1.04c-0.28,0.35-0.57,0.69-0.86,1.03c-0.29,0.34-0.58,0.68-0.88,1.01
			c-0.29,0.34-0.59,0.67-0.89,1c-0.3,0.33-0.6,0.66-0.91,0.99c-0.31,0.33-0.61,0.65-0.93,0.97c-0.31,0.32-0.62,0.64-0.94,0.96
			c-0.32,0.32-0.63,0.63-0.96,0.94c-0.32,0.31-0.64,0.62-0.97,0.92c-0.33,0.31-0.65,0.61-0.99,0.91c-0.33,0.3-0.66,0.6-1,0.89
			c-0.34,0.29-0.67,0.59-1.01,0.88c-0.34,0.29-0.68,0.58-1.03,0.86c-0.35,0.28-0.69,0.56-1.04,0.84c-0.35,0.28-0.7,0.55-1.06,0.83
			c-0.35,0.27-0.71,0.54-1.07,0.81c-2.32,1.73-4.76,3.31-7.22,4.82c-1.27,0.78-2.53,1.6-3.83,2.32c-4.96,2.75-10.08,5.01-15.34,7.11
			c-1.22,0.49-2.44,0.94-3.68,1.37c-3.96-1.25-8.67-3.33-12.44-5.14c-16.44-7.9-30.54-19.22-39.8-35.15
			c-7.5-12.89-10.84-27.92-11-42.74c-0.03-2.54-0.2-6.35,0.44-8.77c1.04-1.05,2.57-1.81,3.84-2.55l5.03-2.97
			c2.18-1.26,4.78-2.49,6.59-4.25c2.05-1.99,3.54-4.97,3.89-7.81c0.2-1.6,0.14-3.24,0.17-4.85c1.83-1.08,3.97-1.76,5.96-2.49
			c1.3-0.47,2.61-0.92,3.93-1.34c1.32-0.42,2.65-0.82,3.98-1.19c1.33-0.37,2.68-0.72,4.02-1.03c1.35-0.32,2.7-0.61,4.06-0.88
			c1.36-0.27,2.72-0.51,4.09-0.72c1.37-0.22,2.74-0.4,4.12-0.57c1.38-0.16,2.75-0.3,4.13-0.41
			C167.36,36.25,168.74,36.17,170.13,36.11z"/>
		<path d="M173.81,40.28c12.57-0.3,28.76,2.43,40.18,7.91c0.06,0.75,0.13,1.5,0.25,2.24c0.71,4.28,3.05,8.57,6.4,11.37
			c1.08,0.9,2.31,1.62,3.49,2.37c1.91,1.2,3.84,2.38,5.78,3.54c1.25,0.76,2.56,1.48,3.75,2.33c0.69,14.17-1.39,28.43-7.33,41.39
			c-0.88,1.91-1.85,3.77-2.9,5.58c-1.05,1.82-2.19,3.58-3.41,5.29c-10.81,15.43-26.94,25.64-44.38,32.11l-0.74,0.24
			c-4.19-1.74-8.37-3.37-12.46-5.38c-0.66-0.33-1.32-0.66-1.97-1c-0.65-0.34-1.3-0.69-1.95-1.05c-0.64-0.36-1.28-0.72-1.92-1.09
			c-0.64-0.37-1.27-0.75-1.89-1.14c-0.63-0.39-1.25-0.78-1.86-1.19c-0.62-0.4-1.23-0.81-1.83-1.23c-0.61-0.42-1.21-0.84-1.8-1.27
			c-0.6-0.43-1.19-0.87-1.77-1.32c-0.59-0.45-1.17-0.9-1.74-1.36c-0.57-0.46-1.14-0.93-1.71-1.4c-0.56-0.47-1.12-0.96-1.67-1.44
			c-0.55-0.49-1.1-0.98-1.64-1.48c-0.54-0.5-1.07-1.01-1.6-1.52c-0.53-0.51-1.05-1.03-1.56-1.56c-0.51-0.53-1.02-1.06-1.53-1.6
			c-0.5-0.54-1-1.08-1.49-1.63c-1.63-1.87-3.1-3.83-4.53-5.85c-8.13-11.44-12.12-23.7-13.43-37.58c-0.23-2.37-0.38-4.74-0.42-7.12
			c-0.05-2.38,0-4.76,0.14-7.13l7.6-4.82c2.15-1.35,4.59-2.63,6.42-4.4c3.46-3.34,5.21-8.35,5.31-13.09
			c2.38-1.14,4.93-1.96,7.44-2.76c1.24-0.4,2.49-0.78,3.75-1.13c1.26-0.35,2.52-0.68,3.79-0.99c1.27-0.3,2.54-0.58,3.82-0.84
			c1.28-0.26,2.56-0.49,3.85-0.7c1.29-0.21,2.58-0.39,3.87-0.55c1.29-0.16,2.59-0.29,3.89-0.4c1.3-0.11,2.6-0.19,3.9-0.25
			C171.2,40.33,172.5,40.29,173.81,40.28z"/>
		<path class="st77" d="M134.72,124.18c2.83,0.2,6.34,0.12,9.19,0c-0.75,0.85-1.56,1.66-2.35,2.47l-2.37,2.45
			C138.48,128.42,134.88,124.82,134.72,124.18z M147.66,124.22c5.29,0.1,10.6,0.02,15.89,0c-1.23,1.32-2.55,2.56-3.83,3.84
			c-2.12,2.16-4.26,4.3-6.43,6.41c-1.25,1.24-2.48,2.54-3.81,3.71c-3.03-2.05-6.01-4.55-8.55-7.17c1.22-1.1,2.34-2.32,3.49-3.49
			C145.51,126.41,146.63,125.35,147.66,124.22z M204.38,48.05c1.19,0,5.51,1.76,6.76,2.32c0.05,1.52,0.71,3.07,1.16,4.51
			c-0.74,0.85-1.6,1.64-2.39,2.44c-2.07,2.1-4.16,4.2-6.26,6.27l-3.28,3.3c-0.62,0.62-1.22,1.31-1.91,1.85
			c-1.72-0.26-3.53-0.47-5.27-0.53c-2.87-0.25-5.74-0.31-8.62-0.35c1.61-1.85,3.46-3.58,5.19-5.32c2.82-2.86,5.67-5.68,8.55-8.48
			C200.34,52.1,202.19,49.87,204.38,48.05z M167.63,124.21c4.81,0.04,9.62,0.04,14.43,0.02c-0.56,0.65-1.22,1.25-1.82,1.86
			c-1.42,1.44-2.85,2.88-4.3,4.3l-12.41,12.34c-0.88,0.89-1.72,1.86-2.68,2.65c-3.11-1.57-6.26-3.51-9.05-5.59
			c2.48-2.73,5.23-5.23,7.83-7.83c1.67-1.7,3.37-3.37,5.09-5.02C165.68,126.03,166.6,125.04,167.63,124.21z M188.08,44.15
			c2.98,0.51,5.95,1.09,8.9,1.73c1.41,0.32,2.8,0.72,4.21,1.07c-1.07,1.27-2.37,2.44-3.54,3.62c-2.58,2.62-5.18,5.21-7.82,7.77
			c-3.18,3.15-6.15,6.49-9.45,9.53c-1.79,0.02-3.59,0.06-5.38,0.13c-4.07,0.29-7.9,0.56-11.95,1.19c1.5-1.57,3.14-3.01,4.68-4.55
			l14.15-14.1c0.91-0.92,1.83-1.83,2.75-2.74C185.85,46.65,187.18,45.57,188.08,44.15z M174.76,43.38c3.15-0.04,6.47,0.05,9.57,0.57
			c-1.99,2.17-4.21,4.19-6.3,6.26l-10.26,10.26c-2.41,2.4-4.79,4.84-7.23,7.21c-0.91,0.88-1.78,1.87-2.77,2.65
			c-0.77,0.6-1.91,0.92-2.76,1.45c-2.57,1.6-5.11,3.36-7.53,5.17c-1.42,1.09-2.8,2.23-4.13,3.42c-0.79,0.7-1.6,1.58-2.5,2.13
			c-1.05,0.65-3.5,1.16-4.81,1.6c-3.7,1.25-7.36,2.75-10.62,4.91c-1.87,1.24-3.4,2.74-4.9,4.38l0.23,0.03
			c-0.1-0.01-0.21,0.01-0.28-0.05c-0.02-0.08-0.03-0.13-0.03-0.22c0.04-0.43,0.46-0.89,0.75-1.2c1.07-1.13,2.24-2.18,3.35-3.27
			l5.4-5.39c1.06-1.05,2.18-2.04,3.23-3.1l36.57-36.71C171.4,43.44,173.08,43.4,174.76,43.38z"/>
		<path class="st63" d="M222.58,112.14l0.05,0.01l0.05,0.09l-0.95,1.47c-0.96,0.25-1.91,0.6-2.86,0.89
			c-2.81,0.86-5.62,1.77-8.45,2.54l-0.11-0.03c-0.03-0.05-0.06-0.1-0.08-0.15c-0.07-0.19,0.01-0.51,0.11-0.68
			c0.05-0.09,0.08-0.13,0.18-0.18c0.52-0.27,2.98-0.93,3.71-1.17C217.03,114.03,219.8,113.06,222.58,112.14z M122.95,96.82
			c0.57,0.32,4.34,3.94,5,4.67c-0.32,0.37-0.7,0.67-1.08,0.99c-0.31,0.25-0.58,0.44-0.95,0.61c-1.12-0.32-2.21-0.8-3.3-1.23
			C122.2,100.08,122.16,98.49,122.95,96.82z M180.68,71.53c3.14-0.11,6.27-0.09,9.41,0.06c3.13,0.14,6.26,0.42,9.37,0.81
			c1.3,0.18,2.71,0.28,3.97,0.62c-1.61,0.51-2.97,1.17-3.95,2.59c-2.53-0.96-7.72-1.4-10.49-1.63c-8.07-0.72-16.17-0.57-24.25-0.11
			c1.25-0.57,2.74-1.17,4.08-1.48c1.3-0.3,2.69-0.37,4.02-0.48C175.46,71.71,178.07,71.62,180.68,71.53z M186.46,94.95l0.17,0.01
			c-0.01,0.54-0.77,1.46-1.09,1.92c-0.63,0.91-1.79,2.69-2.71,3.18c-0.77,0.41-6.98,1.49-8.4,1.81c-2.23,0.5-4.43,1.16-6.67,1.58
			c-0.54-0.3-1.04-0.71-1.53-1.08c-0.49-0.34-0.91-0.65-1.29-1.12c0.85-0.39,1.71-0.76,2.58-1.12c0.87-0.36,1.74-0.7,2.62-1.03
			c0.88-0.33,1.76-0.64,2.65-0.93c0.89-0.3,1.79-0.57,2.69-0.84c0.9-0.26,1.81-0.51,2.71-0.74c0.91-0.23,1.82-0.45,2.74-0.64
			c0.92-0.2,1.84-0.38,2.76-0.55C184.6,95.23,185.53,95.08,186.46,94.95z M201.23,97.31c0.82-0.03,1.68,0.27,2.36,0.72
			c2.55,1.67,3.8,5.19,4.38,8.03c1.04,5.13,0.21,11.63-2.75,16.01c-1,1.48-2.2,2.53-3.99,2.88c-1.08,0.07-1.93-0.2-2.79-0.86
			c-2.7-2.08-3.79-6.24-4.21-9.45c-0.62-4.77,0.1-11.16,3.13-15.03C198.39,98.29,199.56,97.52,201.23,97.31z M165.28,72.59
			c0.41-0.05,0.85-0.04,1.26-0.06c-2.57,0.79-5.23,1.83-7.59,3.14c-3.8,2.1-9.72,6.82-12.37,10.34c10.45-0.21,20.89-0.34,31.34-0.4
			c2.73,0.01,5.46,0.04,8.19,0.09c2.14,0.03,4.45-0.02,6.57,0.31c-1.87,0.32-3.71,0.91-5.51,1.46c-5.43,1.66-10.62,3.69-15.56,6.5
			c-1.42,0.81-2.83,1.65-4.24,2.49c-1.37,0.82-2.74,1.79-4.29,2.23c-3.86,1.1-9.44,0.89-13.47,0.93c-5.63,0.03-11.27,0.02-16.9-0.05
			c-0.97-0.01-2.24,0.05-3.16-0.27c-0.36-0.12-0.69-0.33-0.99-0.55c-0.85-0.6-1.64-1.31-2.48-1.94c-0.69-0.52-1.51-0.98-2.12-1.6
			c0.01-0.09,0.01-0.14,0.05-0.23c0.27-0.64,1.49-1.26,2.07-1.61c4.96-2.96,10.8-5.34,16.32-7.06c0.25,0.32,0.52,0.59,0.81,0.87
			c-3.9,2.3-7.66,4.9-9.95,8.93c0.89-0.97,1.79-1.9,2.81-2.72c2.64-2.11,7.25-4.61,10.45-5.65c-1.31-0.7-2.32-1.45-2.87-2.9
			c3.4-3.48,11.21-9.14,15.67-10.91C161.25,73.17,163.23,72.75,165.28,72.59z M205.86,73.49c0.17,0,0.34,0,0.51,0
			c5.45,0.2,10.07,3.53,13.79,7.25c1.23,1.23,2.35,2.57,3.62,3.75c1.93,1.79,4.43,3.51,6.17,5.4c-0.2,1.25-0.43,2.49-0.69,3.73
			c-0.26,1.24-0.55,2.46-0.88,3.69c-0.32,1.22-0.68,2.43-1.06,3.64c-0.38,1.2-0.8,2.4-1.24,3.58c-0.82,2.15-1.81,4.22-2.7,6.34
			c-2.02,0.3-4.03,0.78-6.03,1.19c-2.19,0.44-4.39,0.86-6.59,1.25c0.35-5.65-0.39-12.41-3.85-17.09c-1.28-1.73-3.21-3.34-5.41-3.65
			c-2.1-0.3-4.06,0.66-5.54,2.1c-2.64,2.56-4.32,6.19-5.21,9.73c-0.4,1.61-0.65,3.24-0.89,4.88c-0.39,2.57-0.63,7.02-2.85,8.67
			l-0.09,0.06c-12.09,0.14-24.18,0.19-36.28,0.17l-9.9-0.04c-3.78,0-7.74,0.23-11.43-0.74c-0.35-0.78-0.77-1.54-1.16-2.3
			c1.34,0.31,2.68,0.74,3.95,1.25c-0.83-1.22-1.74-2.4-2.57-3.62c-0.47-0.69-0.85-1.56-1.41-2.16c-0.36-0.38-1.1-0.69-1.56-0.97
			c-0.55-0.33-1.09-0.68-1.63-1.02c-0.75-1.46-1.26-3.07-1.67-4.66c0.8,0.27,1.75,0.69,2.59,0.74c1.16,0.07,2.21-1.21,3.01-1.91
			c8.09,0.63,16.28,0.43,24.39,0.43l5.86-0.01c1.51,0,3.14-0.11,4.63,0.19c1.22,0.24,2.12,1.03,3.06,1.79
			c3.93-0.77,7.93-1.3,11.87-1.99c1.51-0.26,3.14-0.44,4.6-0.88c0.47-0.14,0.86-0.3,1.23-0.64c1-0.94,5.68-7.45,5.57-8.62
			c-0.02-0.19-0.05-0.33-0.23-0.43c-1.28-0.72-10.39,1.73-12.52,2.05c6.62-2.75,13.58-5.24,20.66-6.46
			c3.66-0.63,7.38-0.76,11.07-1.11c4.61-0.48,9.21-1.07,13.8-1.76c-0.18-0.25-0.37-0.48-0.55-0.72c-3.32-4.23-7.75-8.52-13.35-9.16
			c-1.61-0.18-3.33-0.08-4.63,1c-2.58,2.14-3,6.58-3.24,9.69c-1.71-0.05-3.4-0.02-5.11,0.05c1.45-3.05,3.12-8.11,5.24-10.53
			C202.44,74.21,204.02,73.63,205.86,73.49z"/>
		<path d="M199.8,99.91c0.12,0,0.24,0,0.36,0.01c0.12,0.01,0.24,0.03,0.36,0.05c0.12,0.02,0.23,0.06,0.35,0.09
			c0.11,0.04,0.23,0.08,0.34,0.13c1.52,0.71,2.49,2.44,3.06,3.95c1.66,4.38,1.33,10.33-0.61,14.57c-0.72,1.57-1.81,3.01-3.47,3.63
			c-0.63,0.17-1.15,0.11-1.73-0.21c-1.62-0.89-2.52-3.08-2.97-4.77c-1.18-4.43-1.17-10.87,1.21-14.94
			C197.45,101.16,198.34,100.29,199.8,99.91z M164.66,87.04c6.18-0.2,12.36,0.12,18.54,0.11l-5.14,1.07
			c-1.07,0.22-2.2,0.53-3.29,0.59c-0.77,0.04-1.53-0.06-2.3-0.16c-4.28-0.48-8.52-0.77-12.82-0.88c-0.72-0.02-5.85-0.06-6.04-0.24
			c0.9-0.11,1.83-0.13,2.74-0.19C159.1,87.18,161.88,87.12,164.66,87.04z M227.93,90.55l0.31-0.02c-1.13,0.45-2.53,0.61-3.72,0.87
			c-2.68,0.58-5.41,1.1-8.05,1.85c-1.03,0.29-2.01,0.62-3,1.03c-0.7,0.29-1.93,1.06-2.58,1.15l-0.15-0.24
			c-0.36-0.72-0.72-1.44-1.03-2.18C215.79,92.24,221.86,91.42,227.93,90.55z M157.84,112.02l0.1,0l0.01,0.11
			c-0.35,0.59-0.79,1.17-1.26,1.67c-0.67,0.71-1.44,1.02-2.4,1.04c-4.19,0.1-8.39,0.07-12.58,0.07c-1.21,0-2.42-0.01-3.63-0.03
			c-0.74-0.01-1.56,0.04-2.29-0.08c-0.61-0.1-0.99-0.39-1.43-0.81c-0.49-0.59-0.89-1.22-1.24-1.9c4.86,0.06,9.72,0.07,14.58,0.02
			C151.06,112.1,154.48,112.21,157.84,112.02z M145.62,108.43c4.96-0.03,9.92-0.03,14.88,0c-0.38,0.94-1.17,1.89-1.79,2.7
			c-1.29,0.03-2.59-0.02-3.88-0.03l-8.76-0.01c-4.49-0.03-8.98,0-13.47,0.09c-0.56-0.88-1.06-1.79-1.49-2.73L145.62,108.43z
			 M129.45,104.65c7.3,0.07,14.59,0.09,21.89,0.06l6.04,0c1.48,0,3.18-0.15,4.62,0.23c0.16,0.12,0.26,0.21,0.29,0.42
			c0.08,0.5-0.45,1.12-0.71,1.51l-0.51,0.62l-30.43-0.03C130.25,106.53,129.73,105.61,129.45,104.65z M177.37,108.76
			c0.69-0.04,1.36-0.05,2.05-0.04c1.41,0.92,4.85,4.49,5.96,5.87c-1.78,0.28-3.7,0.24-5.51,0.33l-12.09,0.46l-7.85,0.16
			c1.31-1.2,2.57-2.48,3.81-3.74c0.74-0.75,1.61-1.89,2.51-2.41C169.96,109.14,173.67,108.93,177.37,108.76z"/>
	</g>
</g>
</svg>
