<?xml version="1.0" encoding="utf-8"?>
<!-- Generator: Adobe Illustrator 27.8.1, SVG Export Plug-In . SVG Version: 6.00 Build 0)  -->
<svg version="1.1" xmlns="http://www.w3.org/2000/svg" xmlns:xlink="http://www.w3.org/1999/xlink" x="0px" y="0px"
	 viewBox="0 0 350 230" style="enable-background:new 0 0 350 230;" xml:space="preserve">
<style type="text/css">
	.st0{fill:#003799;}
	.st1{fill:#630000;}
	.st2{fill-rule:evenodd;clip-rule:evenodd;fill:#037FE1;}
	.st3{fill-rule:evenodd;clip-rule:evenodd;}
	.st4{fill-rule:evenodd;clip-rule:evenodd;fill:#562900;}
	.st5{fill-rule:evenodd;clip-rule:evenodd;fill:#00184C;}
	.st6{fill-rule:evenodd;clip-rule:evenodd;fill:#2C2C5B;}
	.st7{fill-rule:evenodd;clip-rule:evenodd;fill:#007C89;}
	.st8{fill:#C97C00;}
	.st9{fill:#7A6B00;}
	.st10{fill-rule:evenodd;clip-rule:evenodd;fill:#022B18;}
	.st11{fill-rule:evenodd;clip-rule:evenodd;fill:#03113F;}
	.st12{fill:#273F02;}
	.st13{fill:url(#SVGID_1_);}
	.st14{fill:#B62126;}
	.st15{fill:#231F20;}
	.st16{fill:#FFFFFF;}
	.st17{fill:#17629D;}
	.st18{fill:#540159;}
	.st19{fill:#66082A;}
	.st20{fill:#005C68;}
	.st21{fill:#E2FFD7;}
	.st22{fill:#FFFFCC;}
	.st23{fill:#ECFFCF;}
	.st24{fill:#F0F9E1;}
	.st25{fill:#F7F7E2;}
	.st26{fill:#F9D6AC;}
	.st27{fill:#E2F7F3;}
	.st28{fill:#FFF7D2;}
	.st29{fill:#563900;}
	.st30{fill:#66BFE6;}
	.st31{fill:url(#SVGID_00000057109842892849010980000009288218965952162692_);}
	.st32{fill:url(#SVGID_00000062170423440233214790000010298616141848660893_);}
	.st33{fill:url(#SVGID_00000137109951264446026510000013580188496272056991_);}
	.st34{fill:url(#SVGID_00000145040845302826557060000002882519472211579560_);}
	.st35{fill:url(#SVGID_00000114063896229214321780000000606430801484217252_);}
	.st36{fill:url(#SVGID_00000075854429709515501040000003034780387670056887_);}
	.st37{fill:#AEAEB6;}
	.st38{fill:url(#SVGID_00000009549753959473619570000012741124641359222679_);}
	.st39{fill:url(#SVGID_00000045597188596088893660000014114075553105079478_);}
	.st40{fill:url(#SVGID_00000163047582568261962830000012353160567461394605_);}
	.st41{fill:url(#SVGID_00000085212193319203988960000011327169201015492491_);}
	.st42{filter:url(#Adobe_OpacityMaskFilter);}
	.st43{filter:url(#Adobe_OpacityMaskFilter_00000056392331224051340700000011707594195074016437_);}
	
		.st44{mask:url(#SVGID_00000161622331843840946770000008570628152024886698_);fill:url(#SVGID_00000130629760922177402000000018131898516767242115_);}
	.st45{fill:url(#SVGID_00000111872931821545320960000003530513868455968169_);}
	.st46{filter:url(#Adobe_OpacityMaskFilter_00000134927863476505403580000007720917250957920191_);}
	.st47{filter:url(#Adobe_OpacityMaskFilter_00000040535851827567440330000011878514974654952126_);}
	
		.st48{mask:url(#SVGID_00000099622039904254154230000017954261194717492920_);fill:url(#SVGID_00000116231023104166335700000011585737200631342252_);}
	.st49{fill:url(#SVGID_00000178899039432479055300000001469965237161726106_);}
	.st50{fill:url(#SVGID_00000060019836075990166420000004011138847914217866_);}
	.st51{fill:url(#SVGID_00000103234256247130904680000008528331089960777605_);}
	.st52{fill:url(#SVGID_00000117643761378607559970000008756448370096706963_);}
	.st53{fill:url(#SVGID_00000116937563336046879570000017148439928847036295_);}
	.st54{fill:url(#SVGID_00000081637645528484151900000003640829658129075875_);}
	.st55{opacity:0.5;fill:url(#SVGID_00000057119460986423588100000001986476866893795469_);enable-background:new    ;}
	.st56{fill:url(#SVGID_00000029016384423686804730000010161485284597878461_);}
	.st57{fill:url(#SVGID_00000145775563858969919800000018241430750173068701_);}
	.st58{fill:url(#SVGID_00000080901422860290592760000003632506642492406912_);}
	.st59{fill:#3E2770;}
	.st60{fill:#010100;}
	.st61{fill:#0E2C31;}
	.st62{fill:url(#SVGID_00000165948920025320140550000017144227187571069368_);}
	.st63{fill:#FEFEFE;}
	.st64{fill:#CF0F0E;}
	.st65{fill:#272525;}
	.st66{fill:#0C4352;}
	.st67{fill:#2CAFB7;}
	.st68{fill:#A38F7E;}
	.st69{fill:#EA0314;}
	.st70{fill:#0E1D33;}
	.st71{fill:url(#SVGID_00000044161648171578510440000008186625127499220415_);}
	.st72{fill:url(#SVGID_00000047771204481992252710000012809873541151574677_);}
	.st73{fill:url(#SVGID_00000049223135817389809430000004313988749724238211_);}
	.st74{fill:#FF0000;}
	.st75{fill-rule:evenodd;clip-rule:evenodd;fill:#FF0202;}
	.st76{fill:none;}
	.st77{fill:#C41111;}
</style>
<g id="Logo1">
</g>
<g id="Logo2">
</g>
<g id="Logo3">
</g>
<g id="Logo4">
</g>
<g id="Logo5">
</g>
<g id="Logo6">
</g>
<g id="Logo7">
</g>
<g id="Logo8">
</g>
<g id="Logo9">
</g>
<g id="Logo10">
</g>
<g id="Logo11">
</g>
<g id="Logo12">
</g>
<g id="Logo13">
</g>
<g id="Logo14">
</g>
<g id="Layer_15">
	<g>
		<linearGradient id="SVGID_1_" gradientUnits="userSpaceOnUse" x1="257.5706" y1="177.8966" x2="257.5706" y2="95.2591">
			<stop  offset="0" style="stop-color:#ED1C24"/>
			<stop  offset="0.1522" style="stop-color:#E41C23"/>
			<stop  offset="0.3653" style="stop-color:#D31A21"/>
			<stop  offset="0.6144" style="stop-color:#B9171C"/>
			<stop  offset="0.8886" style="stop-color:#970F12"/>
			<stop  offset="1" style="stop-color:#88090C"/>
		</linearGradient>
		<path class="st13" d="M257.57,125.05c-3.64,0-6.61-2.96-6.61-6.61s2.96-6.61,6.61-6.61c3.64,0,6.61,2.96,6.61,6.61
			S261.21,125.05,257.57,125.05z M257.57,112.69c-3.17,0-5.75,2.58-5.75,5.75s2.58,5.75,5.75,5.75c3.17,0,5.75-2.58,5.75-5.75
			S260.74,112.69,257.57,112.69z M257.52,119.92c-0.77,0-1.39-0.62-1.39-1.39s0.62-1.39,1.39-1.39s1.39,0.62,1.39,1.39
			S258.28,119.92,257.52,119.92z M257.52,117.56c-0.53,0-0.97,0.43-0.97,0.97c0,0.53,0.43,0.97,0.97,0.97
			c0.53,0,0.97-0.43,0.97-0.97S258.05,117.56,257.52,117.56z"/>
		<path d="M254.58,123.18l0.41-3.69l-2.8-2.43l3.64-0.75l1.45-3.42l1.83,3.23l3.7,0.32l-2.5,2.74l0.84,3.62l-3.38-1.53
			L254.58,123.18z M253.87,117.5l1.94,1.68l-0.29,2.55l2.2-1.32l2.33,1.06l-0.58-2.5l1.73-1.89l-2.55-0.22l-1.27-2.23l-1,2.36
			L253.87,117.5z"/>
		
			<linearGradient id="SVGID_00000174594455337022966760000016732098055987716260_" gradientUnits="userSpaceOnUse" x1="175.6168" y1="136.9616" x2="171.0948" y2="-43.9186">
			<stop  offset="0" style="stop-color:#ED1C24"/>
			<stop  offset="0.1522" style="stop-color:#E41C23"/>
			<stop  offset="0.3653" style="stop-color:#D31A21"/>
			<stop  offset="0.6144" style="stop-color:#B9171C"/>
			<stop  offset="0.8886" style="stop-color:#970F12"/>
			<stop  offset="1" style="stop-color:#88090C"/>
		</linearGradient>
		<path style="fill:url(#SVGID_00000174594455337022966760000016732098055987716260_);" d="M288.49,93.18c0,0-13.41-7.58-69.11-6.42
			c0,0-17.5-16.62-50.45-20.71c0,0-31.55-2.59-73.49,11.37c0,0-12.87,4.69-32.95,9.04c0,0-9.92-6.42-11.08-10.5
			c0,0,10.43,3.79,34.41-2.04c0,0,55.73-20.36,97.11-11.08c0,0,24.5,4.96,39.95,16.91C222.87,79.77,266.91,78.89,288.49,93.18z
			 M297.53,105.82c0,0-2.33-5.54-16.91-6.12c0,0-0.43-1.7-4.67-5.83C275.95,93.87,290.53,90.66,297.53,105.82z"/>
		
			<linearGradient id="SVGID_00000052792575197010884530000015160302328448393102_" gradientUnits="userSpaceOnUse" x1="177.6394" y1="225.5533" x2="173.1783" y2="47.1081">
			<stop  offset="0" style="stop-color:#ED1C24"/>
			<stop  offset="0.1522" style="stop-color:#E41C23"/>
			<stop  offset="0.3653" style="stop-color:#D31A21"/>
			<stop  offset="0.6144" style="stop-color:#B9171C"/>
			<stop  offset="0.8886" style="stop-color:#970F12"/>
			<stop  offset="1" style="stop-color:#88090C"/>
		</linearGradient>
		<path style="fill:url(#SVGID_00000052792575197010884530000015160302328448393102_);" d="M83.44,118.12
			c0-11.61,9.42-21.03,21.03-21.03c7.5,0,14.09,3.93,17.81,9.84c-3.57-7.34-11.09-12.4-19.81-12.4c-12.16,0-22.01,9.85-22.01,22
			c0,10.47,7.31,19.22,17.1,21.45C89.34,135.13,83.44,127.32,83.44,118.12z M58.98,87.93c0,0-8.46,2.92-9.62,13.71
			c-1.17,10.79,0-21.87,0-21.87S50.24,82.1,58.98,87.93z M53.23,105.88c0,0-5.07,24.78,25.78,23.48c0,0-32.95,9.29-30.85-23.48
			H53.23z M161.34,88.23h50.16c0,0-21.58-18.37-41.55-17.5c0,0,22.02,4.37,27.85,13.41L161.34,88.23z M154.93,88.23V73.06
			c0,0-28.58-1.17-46.95,6.71c0,0,14-10.79,49.28-10.5L154.93,88.23z M297.53,108.65c0,0-16.3,15.55,4.41,21.92
			c0,0-13.41,0.05-17.2,0C284.73,130.57,284.11,110.11,297.53,108.65z M240.54,100.37L240.54,100.37
			c-39.66-17.57-70.9,15.6-121.96-7.19c0,0,30.01,44.8,105.04,20.83c0,0-32.87,22.8-89.15,2.24c0,0,59.74,32.58,103.76,13.96l0,0
			c3.06,3.84,7.37,6.64,12.32,7.76c-5.33-1.85-9.68-5.78-12.09-10.82c-6.62-13.87,3.48-30.07,18.99-30.07
			c7.5,0,14.09,3.93,17.81,9.84C268.79,93.61,251.33,90.41,240.54,100.37z"/>
		
			<radialGradient id="SVGID_00000034085632848418321380000012581872842140291217_" cx="181.0787" cy="118.4443" r="111.573" gradientUnits="userSpaceOnUse">
			<stop  offset="0" style="stop-color:#4D4D4F"/>
			<stop  offset="0.2117" style="stop-color:#39383A"/>
			<stop  offset="0.507" style="stop-color:#000000"/>
			<stop  offset="0.6307" style="stop-color:#2A2A2B"/>
			<stop  offset="0.8459" style="stop-color:#474748"/>
			<stop  offset="1" style="stop-color:#4D4D4F"/>
		</radialGradient>
		<path style="opacity:0.5;fill:url(#SVGID_00000034085632848418321380000012581872842140291217_);enable-background:new    ;" d="
			M257.57,100.07c-10.13,0-18.38,8.24-18.38,18.38s8.24,18.38,18.38,18.38c10.13,0,18.38-8.24,18.38-18.38
			S267.71,100.07,257.57,100.07z M257.57,131.02c-6.94,0-12.58-5.64-12.58-12.58c0-6.94,5.64-12.58,12.58-12.58
			c6.94,0,12.58,5.64,12.58,12.58C270.15,125.38,264.51,131.02,257.57,131.02z M266.65,106.28c-2.28-1.84-4.77-2.92-6.73-3.31
			c6.93,0.44,12.85,6,13.7,13.24l-1.41,0.05C271.77,111.36,268.95,108.13,266.65,106.28z M104.59,100.07
			c-10.13,0-18.38,8.24-18.38,18.38s8.24,18.38,18.38,18.38c10.13,0,18.38-8.24,18.38-18.38S114.72,100.07,104.59,100.07z
			 M104.59,131.02c-6.93,0-12.58-5.64-12.58-12.58c0-6.94,5.64-12.58,12.58-12.58c6.94,0,12.58,5.64,12.58,12.58
			C117.16,125.38,111.52,131.02,104.59,131.02z M113.67,106.28c-2.28-1.84-4.77-2.92-6.73-3.31c6.93,0.44,12.85,6,13.7,13.24
			l-1.42,0.05C118.79,111.36,115.97,108.13,113.67,106.28z"/>
		
			<radialGradient id="SVGID_00000093887166079046891930000016038939012865984400_" cx="181.0787" cy="118.4443" r="101.9986" gradientUnits="userSpaceOnUse">
			<stop  offset="0" style="stop-color:#808285"/>
			<stop  offset="0.0811" style="stop-color:#7B7D80"/>
			<stop  offset="0.1945" style="stop-color:#6E6F72"/>
			<stop  offset="0.3271" style="stop-color:#555658"/>
			<stop  offset="0.4732" style="stop-color:#171718"/>
			<stop  offset="0.493" style="stop-color:#000000"/>
			<stop  offset="0.6543" style="stop-color:#39383A"/>
			<stop  offset="0.9857" style="stop-color:#6B6C6F"/>
			<stop  offset="1" style="stop-color:#6D6E71"/>
		</radialGradient>
		<path style="fill:url(#SVGID_00000093887166079046891930000016038939012865984400_);" d="M257.57,100.07
			c-10.13,0-18.38,8.24-18.38,18.38s8.24,18.38,18.38,18.38c10.13,0,18.38-8.24,18.38-18.38S267.71,100.07,257.57,100.07z
			 M257.57,131.02c-6.94,0-12.58-5.64-12.58-12.58c0-6.94,5.64-12.58,12.58-12.58c6.94,0,12.58,5.64,12.58,12.58
			C270.15,125.38,264.51,131.02,257.57,131.02z M266.65,106.28c-2.28-1.84-4.77-2.92-6.73-3.31c6.93,0.44,12.85,6,13.7,13.24
			l-1.41,0.05C271.77,111.36,268.95,108.13,266.65,106.28z M104.59,100.07c-10.13,0-18.38,8.24-18.38,18.38s8.24,18.38,18.38,18.38
			c10.13,0,18.38-8.24,18.38-18.38S114.72,100.07,104.59,100.07z M104.59,131.02c-6.93,0-12.58-5.64-12.58-12.58
			c0-6.94,5.64-12.58,12.58-12.58c6.94,0,12.58,5.64,12.58,12.58C117.16,125.38,111.52,131.02,104.59,131.02z M113.67,106.28
			c-2.28-1.84-4.77-2.92-6.73-3.31c6.93,0.44,12.85,6,13.7,13.24l-1.42,0.05C118.79,111.36,115.97,108.13,113.67,106.28z"/>
		<g>
			
				<linearGradient id="SVGID_00000004536612863956349750000008923045124669723264_" gradientUnits="userSpaceOnUse" x1="104.6583" y1="177.7901" x2="104.6583" y2="95.1575">
				<stop  offset="0" style="stop-color:#ED1C24"/>
				<stop  offset="0.1522" style="stop-color:#E41C23"/>
				<stop  offset="0.3653" style="stop-color:#D31A21"/>
				<stop  offset="0.6144" style="stop-color:#B9171C"/>
				<stop  offset="0.8886" style="stop-color:#970F12"/>
				<stop  offset="1" style="stop-color:#88090C"/>
			</linearGradient>
			<path style="fill:url(#SVGID_00000004536612863956349750000008923045124669723264_);" d="M104.66,124.95
				c-3.64,0-6.61-2.96-6.61-6.61c0-3.64,2.96-6.61,6.61-6.61c3.64,0,6.61,2.96,6.61,6.61C111.27,121.98,108.3,124.95,104.66,124.95z
				 M104.66,112.59c-3.17,0-5.75,2.58-5.75,5.75c0,3.17,2.58,5.75,5.75,5.75s5.75-2.58,5.75-5.75
				C110.41,115.17,107.83,112.59,104.66,112.59z M104.6,119.82c-0.77,0-1.39-0.62-1.39-1.39c0-0.77,0.62-1.39,1.39-1.39
				s1.39,0.62,1.39,1.39C106,119.19,105.37,119.82,104.6,119.82z M104.6,117.46c-0.53,0-0.97,0.43-0.97,0.97
				c0,0.53,0.43,0.97,0.97,0.97c0.53,0,0.97-0.43,0.97-0.97C105.57,117.89,105.13,117.46,104.6,117.46z"/>
			<path d="M101.67,123.08l0.41-3.69l-2.8-2.43l3.64-0.75l1.45-3.42l1.83,3.23l3.7,0.32l-2.5,2.74l0.84,3.62l-3.38-1.53
				L101.67,123.08z M100.95,117.39l1.94,1.68l-0.29,2.55l2.2-1.32l2.33,1.06l-0.58-2.5l1.73-1.89l-2.55-0.22l-1.27-2.23l-1,2.36
				L100.95,117.39z"/>
		</g>
	</g>
</g>
</svg>
