<?xml version="1.0" encoding="utf-8"?>
<!-- Generator: Adobe Illustrator 27.8.1, SVG Export Plug-In . SVG Version: 6.00 Build 0)  -->
<svg version="1.1" xmlns="http://www.w3.org/2000/svg" xmlns:xlink="http://www.w3.org/1999/xlink" x="0px" y="0px"
	 viewBox="0 0 350 230" style="enable-background:new 0 0 350 230;" xml:space="preserve">
<style type="text/css">
	.st0{fill:#003799;}
	.st1{fill:#630000;}
	.st2{fill-rule:evenodd;clip-rule:evenodd;fill:#037FE1;}
	.st3{fill-rule:evenodd;clip-rule:evenodd;}
	.st4{fill-rule:evenodd;clip-rule:evenodd;fill:#562900;}
	.st5{fill-rule:evenodd;clip-rule:evenodd;fill:#00184C;}
	.st6{fill-rule:evenodd;clip-rule:evenodd;fill:#2C2C5B;}
	.st7{fill-rule:evenodd;clip-rule:evenodd;fill:#007C89;}
	.st8{fill:#C97C00;}
	.st9{fill:#7A6B00;}
	.st10{fill-rule:evenodd;clip-rule:evenodd;fill:#022B18;}
	.st11{fill-rule:evenodd;clip-rule:evenodd;fill:#03113F;}
	.st12{fill:#273F02;}
	.st13{fill:url(#SVGID_1_);}
	.st14{fill:#B62126;}
	.st15{fill:#231F20;}
	.st16{fill:#FFFFFF;}
	.st17{fill:#17629D;}
	.st18{fill:#540159;}
	.st19{fill:#66082A;}
	.st20{fill:#005C68;}
	.st21{fill:#E2FFD7;}
	.st22{fill:#FFFFCC;}
	.st23{fill:#ECFFCF;}
	.st24{fill:#F0F9E1;}
	.st25{fill:#F7F7E2;}
	.st26{fill:#F9D6AC;}
	.st27{fill:#E2F7F3;}
	.st28{fill:#FFF7D2;}
	.st29{fill:#563900;}
	.st30{fill:#66BFE6;}
	.st31{fill:url(#SVGID_00000082365763727471328260000004341328540697153982_);}
	.st32{fill:url(#SVGID_00000162314412643392087310000006901904480254436520_);}
	.st33{fill:url(#SVGID_00000050658595437117567520000015773378988805604779_);}
	.st34{fill:url(#SVGID_00000172403364675289945890000000310658083552273280_);}
	.st35{fill:url(#SVGID_00000017512526599372342160000008597406068524615069_);}
	.st36{fill:url(#SVGID_00000128486860474847429820000005089299326204344460_);}
	.st37{fill:#AEAEB6;}
	.st38{fill:url(#SVGID_00000139253076729683623890000014912163359904392337_);}
	.st39{fill:url(#SVGID_00000051372076967523641710000013190073211072642462_);}
	.st40{fill:url(#SVGID_00000085939980791588374850000011427196421535192238_);}
	.st41{fill:url(#SVGID_00000149383883290312638700000001022398673843315358_);}
	.st42{filter:url(#Adobe_OpacityMaskFilter);}
	.st43{filter:url(#Adobe_OpacityMaskFilter_00000039839179089834331500000005624493099800593543_);}
	
		.st44{mask:url(#SVGID_00000074423214733094649910000010216453689908506525_);fill:url(#SVGID_00000059268154677148095980000001772674250129360526_);}
	.st45{fill:url(#SVGID_00000135657395463034197030000007849206607916766854_);}
	.st46{filter:url(#Adobe_OpacityMaskFilter_00000154413946817354931490000009756289805091277727_);}
	.st47{filter:url(#Adobe_OpacityMaskFilter_00000154419245208131490640000017284726829308201131_);}
	
		.st48{mask:url(#SVGID_00000039099096912060093140000000783970201007266692_);fill:url(#SVGID_00000139294415803570747510000007332087713245580214_);}
	.st49{fill:url(#SVGID_00000069364040242961608180000003377438600401619889_);}
	.st50{fill:url(#SVGID_00000065763110806808633700000009662216302927162521_);}
	.st51{fill:url(#SVGID_00000130620614315613212480000010840134096847995540_);}
	.st52{fill:url(#SVGID_00000093162039504262756310000011017090274984511898_);}
	.st53{fill:url(#SVGID_00000178903884649378456880000018056598075824903093_);}
	.st54{fill:url(#SVGID_00000171000692894624721950000012148384572002272934_);}
	.st55{opacity:0.5;fill:url(#SVGID_00000163061211686555105990000002552918825469767572_);enable-background:new    ;}
	.st56{fill:url(#SVGID_00000060708898467968384710000002067920986533128069_);}
	.st57{fill:url(#SVGID_00000136397975169433466390000007685885455478469048_);}
	.st58{fill:url(#SVGID_00000011002407199092465080000012114214558475118263_);}
	.st59{fill:#3E2770;}
	.st60{fill:#010100;}
	.st61{fill:#0E2C31;}
	.st62{fill:url(#SVGID_00000127038531466256217330000006070444179430943905_);}
	.st63{fill:#FEFEFE;}
	.st64{fill:#CF0F0E;}
	.st65{fill:#272525;}
	.st66{fill:#0C4352;}
	.st67{fill:#2CAFB7;}
	.st68{fill:#A38F7E;}
	.st69{fill:#EA0314;}
	.st70{fill:#0E1D33;}
	.st71{fill:url(#SVGID_00000019654025233206633050000017224956125845036724_);}
	.st72{fill:url(#SVGID_00000168828827341952683430000001626330884777020295_);}
	.st73{fill:url(#SVGID_00000055702297619726411410000011653260133114209194_);}
	.st74{fill:#FF0000;}
	.st75{fill-rule:evenodd;clip-rule:evenodd;fill:#FF0202;}
	.st76{fill:none;}
	.st77{fill:#C41111;}
</style>
<g id="Logo1">
</g>
<g id="Logo2">
</g>
<g id="Logo3">
</g>
<g id="Logo4">
</g>
<g id="Logo5">
</g>
<g id="Logo6">
</g>
<g id="Logo7">
</g>
<g id="Logo8">
</g>
<g id="Logo9">
</g>
<g id="Logo10">
</g>
<g id="Logo11">
</g>
<g id="Logo12">
</g>
<g id="Logo13">
</g>
<g id="Logo14">
</g>
<g id="Layer_15">
	<g>
		<radialGradient id="SVGID_1_" cx="170.5246" cy="98.8932" r="62.9686" gradientUnits="userSpaceOnUse">
			<stop  offset="0" style="stop-color:#FFFFFF"/>
			<stop  offset="7.380247e-03" style="stop-color:#F6F6F6"/>
			<stop  offset="0.0477" style="stop-color:#C8C8C8"/>
			<stop  offset="0.0931" style="stop-color:#9D9D9D"/>
			<stop  offset="0.1419" style="stop-color:#777777"/>
			<stop  offset="0.195" style="stop-color:#575757"/>
			<stop  offset="0.2537" style="stop-color:#3B3B3B"/>
			<stop  offset="0.32" style="stop-color:#252525"/>
			<stop  offset="0.3974" style="stop-color:#141414"/>
			<stop  offset="0.4931" style="stop-color:#090909"/>
			<stop  offset="0.6274" style="stop-color:#020202"/>
			<stop  offset="1" style="stop-color:#000000"/>
		</radialGradient>
		<path class="st13" d="M113.93,82.84c1.24-4.83,3.49-9.55,5.96-13.86c0.88-1.54,1.9-2.98,2.93-4.41
			c7.82-10.93,19.5-19.4,32.52-22.92c15.87-4.3,32.19-2.38,46.47,5.83c0.41,0.24,0.82,0.48,1.22,0.73c0.4,0.25,0.8,0.5,1.2,0.75
			c0.4,0.26,0.79,0.52,1.18,0.78c0.39,0.27,0.78,0.54,1.16,0.81s0.77,0.56,1.14,0.84c0.38,0.28,0.75,0.57,1.12,0.87
			c0.37,0.29,0.74,0.59,1.1,0.89c0.36,0.3,0.72,0.61,1.08,0.92c0.36,0.31,0.71,0.63,1.06,0.95c0.35,0.32,0.69,0.64,1.04,0.97
			c0.34,0.33,0.68,0.66,1.01,1c0.33,0.34,0.66,0.68,0.99,1.02c0.32,0.34,0.65,0.69,0.96,1.04c0.32,0.35,0.63,0.71,0.94,1.07
			c0.31,0.36,0.61,0.72,0.91,1.09c0.3,0.37,0.59,0.74,0.88,1.11c0.29,0.37,0.58,0.75,0.86,1.13c0.28,0.38,0.56,0.76,0.83,1.15
			c0.27,0.39,0.54,0.78,0.8,1.17c0.26,0.39,0.52,0.79,0.77,1.19c0.25,0.4,0.5,0.8,0.74,1.21c0.24,0.41,0.48,0.82,0.71,1.23
			c0.23,0.41,0.46,0.83,0.68,1.24c0.22,0.42,0.44,0.84,0.65,1.26c0.21,0.42,0.42,0.85,0.62,1.28c0.2,0.43,0.4,0.86,0.59,1.29
			c0.19,0.43,0.38,0.87,0.56,1.3c0.18,0.44,0.36,0.88,0.53,1.32c0.17,0.44,0.34,0.88,0.5,1.33c0.16,0.45,0.32,0.89,0.47,1.34
			c0.15,0.45,0.29,0.9,0.43,1.35c0.14,0.45,0.27,0.91,0.4,1.36c-1.1,0.52-4.05,1.5-5.24,1.73c-0.74-2.8-1.84-5.49-3.08-8.1
			c-0.19-0.4-0.39-0.8-0.6-1.2c-0.2-0.4-0.41-0.79-0.62-1.19c-0.21-0.39-0.43-0.78-0.65-1.17c-0.22-0.39-0.45-0.77-0.68-1.15
			c-0.23-0.38-0.47-0.76-0.71-1.14s-0.49-0.75-0.74-1.12c-0.25-0.37-0.5-0.74-0.76-1.1c-0.26-0.36-0.52-0.72-0.79-1.08
			c-0.27-0.36-0.54-0.71-0.82-1.06c-0.28-0.35-0.56-0.7-0.84-1.04c-0.28-0.34-0.57-0.68-0.87-1.02c-0.29-0.34-0.59-0.67-0.89-1
			c-0.3-0.33-0.61-0.66-0.91-0.98c-0.31-0.32-0.62-0.64-0.94-0.96c-0.32-0.31-0.64-0.63-0.96-0.93c-0.32-0.31-0.65-0.61-0.98-0.91
			c-0.33-0.3-0.67-0.59-1.01-0.89c-0.34-0.29-0.68-0.58-1.03-0.86c-0.35-0.28-0.69-0.56-1.05-0.84c-0.35-0.27-0.71-0.54-1.07-0.81
			c-0.36-0.27-0.72-0.53-1.09-0.78c-0.37-0.26-0.73-0.51-1.11-0.76c-0.37-0.25-0.75-0.49-1.12-0.73c-0.38-0.24-0.76-0.47-1.14-0.7
			c-0.38-0.23-0.77-0.45-1.16-0.67c-0.39-0.22-0.78-0.44-1.17-0.65c-0.39-0.21-0.79-0.42-1.19-0.62c-0.4-0.2-0.8-0.4-1.2-0.59
			c-0.4-0.19-0.81-0.38-1.22-0.56c-0.41-0.18-0.82-0.36-1.23-0.53c-0.41-0.17-0.83-0.34-1.24-0.5c-0.42-0.16-0.83-0.32-1.25-0.47
			c-0.41-0.15-0.83-0.29-1.25-0.42c-0.42-0.14-0.84-0.26-1.26-0.39c-0.42-0.12-0.84-0.24-1.27-0.36c-0.42-0.11-0.85-0.22-1.28-0.33
			c-0.43-0.1-0.85-0.2-1.28-0.3c-0.43-0.09-0.86-0.18-1.29-0.27c-0.43-0.08-0.86-0.16-1.3-0.23c-0.43-0.07-0.87-0.14-1.3-0.2
			c-0.43-0.06-0.87-0.12-1.31-0.17c-0.44-0.05-0.87-0.1-1.31-0.14c-0.44-0.04-0.87-0.08-1.31-0.11c-0.44-0.03-0.88-0.06-1.31-0.08
			c-0.44-0.02-0.88-0.04-1.32-0.05c-0.44-0.01-0.88-0.01-1.32-0.01c-0.44,0-0.88,0.01-1.32,0.02c-0.44,0.01-0.88,0.03-1.32,0.05
			c-0.44,0.02-0.88,0.05-1.31,0.08c-0.44,0.03-0.87,0.07-1.31,0.11c-0.44,0.04-0.87,0.09-1.31,0.15c-0.44,0.05-0.87,0.11-1.3,0.18
			c-0.43,0.06-0.87,0.13-1.3,0.21c-0.43,0.07-0.86,0.16-1.29,0.24c-0.43,0.09-0.86,0.18-1.29,0.27c-0.43,0.1-0.86,0.2-1.28,0.3
			c-0.43,0.11-0.85,0.22-1.27,0.33c-0.42,0.12-0.84,0.24-1.27,0.36c-0.42,0.13-0.84,0.26-1.26,0.39c-0.42,0.14-0.83,0.28-1.25,0.43
			c-0.41,0.15-0.83,0.3-1.24,0.46c-0.41,0.16-0.82,0.32-1.22,0.49c-0.41,0.17-0.81,0.34-1.21,0.51c-0.4,0.18-0.8,0.36-1.2,0.54
			c-0.41,0.2-0.83,0.4-1.24,0.61c-0.41,0.21-0.82,0.42-1.22,0.64c-0.4,0.22-0.81,0.44-1.2,0.67c-0.4,0.23-0.79,0.46-1.19,0.7
			c-0.39,0.24-0.78,0.48-1.17,0.73c-0.39,0.25-0.77,0.5-1.15,0.76c-0.38,0.26-0.76,0.52-1.13,0.78c-0.37,0.27-0.75,0.54-1.11,0.81
			c-0.37,0.28-0.73,0.56-1.09,0.84c-0.36,0.28-0.72,0.57-1.07,0.87c-0.35,0.29-0.7,0.59-1.05,0.89c-0.35,0.3-0.69,0.61-1.03,0.92
			c-0.34,0.31-0.67,0.62-1,0.94c-0.33,0.32-0.66,0.64-0.98,0.97c-0.32,0.33-0.64,0.66-0.96,0.99c-0.32,0.33-0.63,0.67-0.93,1.01
			c-0.31,0.34-0.61,0.69-0.91,1.04c-0.3,0.35-0.59,0.7-0.88,1.06c-0.29,0.36-0.57,0.72-0.86,1.08c-0.28,0.36-0.56,0.73-0.83,1.1
			c-0.27,0.37-0.54,0.74-0.8,1.12c-0.26,0.38-0.52,0.76-0.77,1.14c-0.25,0.38-0.5,0.77-0.74,1.16c-0.24,0.39-0.48,0.78-0.72,1.18
			c-0.23,0.4-0.46,0.79-0.69,1.19c-0.22,0.4-0.44,0.8-0.66,1.21c-0.21,0.41-0.42,0.82-0.63,1.23c-0.2,0.41-0.4,0.83-0.6,1.24
			s-0.38,0.84-0.57,1.26c-0.18,0.42-0.36,0.84-0.54,1.27c-0.17,0.43-0.34,0.85-0.5,1.28c-0.16,0.43-0.32,0.86-0.47,1.29
			C117.86,82.15,115.92,82.43,113.93,82.84z M114,99.63c-0.6-1.51-1.54-3.41-3.1-4.11c-0.41-0.19-0.87-0.24-1.31-0.23
			c-0.91,0.25-1.48,0.83-1.94,1.63c-1.92,3.38-1.61,8.86-0.59,12.47c0.59,2.11,1.75,5.1,3.78,6.23c0.38,0.21,0.79,0.3,1.22,0.33
			c1.18-0.46,1.84-1.37,2.33-2.49C116.11,109.53,115.56,103.57,114,99.63z M113.26,110.95c-0.33,0.77-0.78,1.38-1.58,1.7
			c-0.3-0.02-0.58-0.08-0.84-0.23c-1.38-0.77-2.17-2.8-2.57-4.23c-0.69-2.46-0.9-6.19,0.4-8.49c0.31-0.55,0.71-0.93,1.32-1.1
			c0.3-0.02,0.61,0.02,0.89,0.15c1.07,0.48,1.71,1.76,2.11,2.8C114.06,104.23,114.43,108.28,113.26,110.95z M214.51,134.03
			l-10.29,4.81c-2.04,0.95-4.08,2.05-6.2,2.81c-1.66-0.36-3.31-0.81-4.97-1.2c-6.53-1.53-13.03-3.19-19.49-4.98l-5.61-1.53
			c-0.99-0.28-2.06-0.51-3-0.92c2.54-1,4.14-3.02,5.21-5.5c2.24-5.18,1.91-12.78-0.21-18c-1.29-3.17-3.48-6.66-6.75-8.02
			c-1.01-0.43-2.03-0.55-3.12-0.45c-2.08,0.4-3.65,1.62-4.83,3.35c-2.97,4.34-2.98,10.6-2.01,15.61c0.83,4.31,2.7,8.22,5.75,11.39
			c-12.63-3.64-25.18-7.53-37.65-11.67c-1.19-0.38-2.37-0.78-3.53-1.22c-1.15-0.44-2.26-0.93-3.43-1.29
			c1.23,3.78,2.75,7.41,4.7,10.87c5.38,9.53,14.25,18.26,24.02,23.23c10.52,5.35,20.47,7.42,32.24,7c2.56-0.19,5.1-0.43,7.63-0.9
			c0.42-0.08,0.83-0.16,1.25-0.24c0.42-0.09,0.83-0.17,1.25-0.27c0.41-0.09,0.83-0.19,1.24-0.29c0.41-0.11,0.83-0.21,1.24-0.32
			c0.41-0.12,0.82-0.23,1.23-0.35c0.4-0.12,0.81-0.25,1.22-0.37c0.4-0.13,0.81-0.27,1.21-0.4c0.4-0.14,0.8-0.28,1.2-0.43
			c0.4-0.15,0.8-0.3,1.2-0.45c0.4-0.15,0.79-0.31,1.18-0.48c0.4-0.16,0.79-0.33,1.18-0.5s0.78-0.34,1.16-0.52
			c0.39-0.18,0.77-0.37,1.16-0.55c0.38-0.19,0.76-0.38,1.14-0.58c0.37-0.2,0.75-0.39,1.12-0.6c0.38-0.2,0.75-0.41,1.12-0.62
			c0.37-0.21,0.73-0.43,1.1-0.65c0.36-0.22,0.73-0.44,1.09-0.67c0.36-0.23,0.71-0.46,1.07-0.69c0.35-0.24,0.71-0.48,1.06-0.72
			s0.69-0.49,1.04-0.74c0.34-0.25,0.68-0.5,1.02-0.76c0.34-0.25,0.68-0.51,1.01-0.78c0.34-0.26,0.67-0.53,1-0.8
			c0.32-0.27,0.65-0.55,0.97-0.83c0.32-0.28,0.64-0.56,0.96-0.84c0.31-0.29,0.63-0.58,0.94-0.87c0.31-0.29,0.61-0.58,0.92-0.88
			c0.3-0.3,0.6-0.6,0.9-0.91c0.3-0.3,0.59-0.61,0.88-0.92s0.58-0.62,0.86-0.94c0.29-0.32,0.57-0.64,0.85-0.96
			c1.93-2.24,3.92-4.75,5.3-7.38C220.15,131.28,217.32,132.69,214.51,134.03z M162.95,127.93c-0.43-0.03-0.85-0.12-1.23-0.33
			c-2.03-1.13-3.19-4.12-3.78-6.22c-1.02-3.61-1.33-9.09,0.59-12.48c0.46-0.8,1.04-1.37,1.94-1.62c0.45-0.02,0.9,0.04,1.31,0.22
			c1.57,0.71,2.51,2.6,3.11,4.12c1.56,3.94,2.1,9.89,0.39,13.82C164.79,126.57,164.13,127.47,162.95,127.93z M236.74,108.78
			c-0.24-1.93-1.54-4.89-2.43-6.65c-2.24-4.4-8.98-6.8-13.46-8.23c-2.09-0.67-4.21-1.26-6.34-1.78c-2.14-0.52-4.29-0.97-6.45-1.35
			c-1.35-0.24-2.71-0.46-4.08-0.64c-0.85-0.12-1.93-0.12-2.74-0.41c-1.04-0.38-2.05-1.3-3-1.89c-2.14-1.33-4.31-2.62-6.5-3.87
			c-2.61-1.47-5.26-2.87-7.95-4.2c-1.4-0.69-2.8-1.45-4.28-1.97c-1.74-0.62-3.57-0.93-5.39-1.23c-4.43-0.75-8.88-1.1-13.36-1.28
			c-2.4-0.1-4.81-0.17-7.21-0.09c-5.6,0.18-11.78,0.36-17.18,1.89c-2.58,0.73-5.08,1.8-7.46,3.02c-1.25,0.65-2.48,1.34-3.69,2.07
			c-1.27,0.77-2.57,1.77-4,2.2c-1.08,0.32-2.26,0.26-3.38,0.32c-3.1,0.19-6.62,0.66-9.24,2.41c-0.95-0.02-1.9-0.12-2.85-0.15
			c0.31,0.73,0.64,1.44,1.03,2.14c-2.68,3.4-2.79,8.17-2.29,12.3c0.28,2.35,0.99,4.5,1.59,6.77c-0.11-1.17-0.31-2.34-0.39-3.52
			c-0.21-3.21,0-7.54,2.14-10.1c0.52-0.63,1.23-1.14,2.06-1.21c0.91-0.09,1.65,0.36,2.31,0.93c3.16,2.75,4.35,8.67,4.61,12.68
			c0.11,1.84,0.1,3.73-0.08,5.56c6.84,2.01,13.69,3.97,20.56,5.88c5.12,1.52,10.25,2.98,15.41,4.38c-1.56-6.61-2.26-14.4,1.49-20.45
			c1.22-1.98,3-3.63,5.31-4.18c2.15-0.51,4.35,0.09,6.19,1.25c2.4,1.5,3.98,3.73,5.32,6.16c3.42,6.69,4.56,14.92,3.63,22.36
			c16.3,2.1,35.88,3.87,51.88-0.48c2.3-0.62,5.17-1.31,7.08-2.78c0.95-0.73,1.7-1.76,1.86-2.97c0.14-1.04-0.22-1.93-0.66-2.84
			C235.69,116.04,237.11,111.66,236.74,108.78z M233.77,101.89c0.45,0.69,1.63,2.98,1.37,3.72c-0.2,0.59-1.22,0.97-1.73,1.22
			l-2.85,1.26c0.14-0.66,0.34-1.28,0.43-1.95c0.35-2.68-0.7-5.08-1.94-7.39C230.79,99.34,232.74,100.32,233.77,101.89z M140.9,88.72
			c-2.41-0.16-4.82-0.42-7.24-0.61c-1.25-0.1-3.42-0.08-4.56-0.45c-1.07-0.35-2.21-1.23-3.18-1.83c3.53-3.53,8.5-6.58,13.52-7.08
			c1.77-0.11,3.48,0.09,5.09,0.86c3.79,1.81,7.27,6.45,8.66,10.35C149.11,89.39,145,89.1,140.9,88.72z M167.95,89.78
			c-3.01-0.07-6.07,0.04-9.07-0.19c-1.56-2.92-4.55-6.55-6.94-8.86c-0.97-0.94-2.02-1.79-3-2.73c4.02-0.35,8.04-0.56,12.08-0.61
			c4.68-0.07,9.35,0.07,14.02,0.43c1.25,0.11,2.68,0.15,3.89,0.49c1.45,0.4,2.88,1.33,4.2,2.04c2.91,1.56,5.77,3.21,8.57,4.96
			c2.43,1.52,4.81,3.12,7.27,4.59c-4.05,0.24-8.17,0.13-12.24,0.15C180.47,90.05,174.21,89.96,167.95,89.78z M178.16,98.35
			c1.49,0.35,2.95,0.76,4.41,1.22c1.45,0.47,2.88,0.98,4.3,1.55c2.69,1.06,5.31,2.42,7.9,3.72c2.79,1.4,5.58,2.78,8.35,4.23
			c-1.58-0.16-3.16-0.48-4.73-0.71c-1.94-0.27-11.9-1.48-13-2.06c-1.16-0.62-2.18-1.93-3.14-2.83c-2.95-2.75-6.28-4.84-10.11-6.14
			C174.16,97.44,176.2,97.87,178.16,98.35z"/>
		<path class="st74" d="M235.28,112.54c0.18,0.83-0.16,1.94-0.41,2.73c-1.06,3.39-2.04,4.56-5.23,6.23
			c-0.02-0.13,2.45-2.01,2.82-2.47c1.45-1.83,1.78-4.31,2.77-6.38L235.28,112.54z M198.82,84.9c1.11-0.05,4.31,0.41,5.11,1.15
			c0.28,0.26,0.77,1.24,0.77,1.64c-0.18,0.08-0.29,0.02-0.48-0.02c-1.13-0.29-5.46-1.66-6.17-2.31
			C198.23,85.14,198.57,85.02,198.82,84.9z M228.98,82.47c1.16-0.15,3.5-1.19,4.75-1.62l12.02-4.06c-0.79,1.48-1.49,3.01-2.23,4.52
			c-1.91,3.82-3.78,7.67-5.6,11.54c-0.75,1.6-1.51,3.19-2.28,4.78c-0.39,0.79-0.75,1.62-1.23,2.35c-0.61-1.15-1.31-2.24-2.23-3.16
			c-2.83-2.85-7.74-4.66-11.55-5.82c-2.01-0.59-4.05-1.09-6.11-1.5c-1.37-0.27-2.87-0.39-4.19-0.85c2.35-0.89,4.8-1.57,7.18-2.35
			c2.08-0.68,4.12-1.49,6.23-2.09C224.93,83.98,227.88,83,228.98,82.47z M169.1,48.66c1.01-0.06,2.02-0.08,3.04-0.07
			c1.01,0.01,2.02,0.05,3.03,0.12c1.01,0.07,2.02,0.17,3.02,0.31c1,0.13,2,0.3,3,0.5c10.66,2.04,19.96,7.51,27.48,15.27
			c2.08,2.14,4.11,4.47,5.79,6.94c-0.81-0.56-1.55-1.26-2.29-1.91c-1.24-1.07-2.49-2.15-3.83-3.09c-10-7.04-21.1-10.8-33.29-11.54
			c-0.15-0.01-0.3-0.02-0.44-0.03c-0.43-0.02-0.87-0.03-1.3-0.04c-0.43-0.01-0.87-0.01-1.3-0.02c-0.43,0-0.87,0-1.3,0.01
			c-0.43,0.01-0.87,0.02-1.3,0.04c-0.43,0.02-0.87,0.04-1.3,0.06c-0.43,0.03-0.87,0.06-1.3,0.09c-0.43,0.03-0.87,0.07-1.3,0.12
			c-0.43,0.04-0.86,0.09-1.3,0.14c-0.43,0.05-0.86,0.11-1.29,0.17c-0.43,0.06-0.86,0.13-1.29,0.2c-0.43,0.07-0.86,0.14-1.28,0.22
			c-0.43,0.08-0.85,0.16-1.28,0.25c-0.43,0.09-0.85,0.18-1.27,0.27c-0.42,0.1-0.85,0.2-1.27,0.3c-0.42,0.1-0.84,0.21-1.26,0.32
			c-0.42,0.11-0.84,0.23-1.26,0.35c-0.42,0.12-0.83,0.25-1.25,0.38c-0.41,0.13-0.83,0.26-1.24,0.4c-0.41,0.14-0.82,0.28-1.23,0.43
			c-0.41,0.15-0.82,0.3-1.22,0.45c-0.41,0.15-0.81,0.31-1.21,0.48c-0.4,0.16-0.8,0.33-1.2,0.5c-0.4,0.17-0.8,0.35-1.19,0.52
			c-0.4,0.18-0.79,0.36-1.18,0.55c-0.39,0.19-0.78,0.38-1.17,0.57c-0.39,0.19-0.78,0.39-1.16,0.6c-0.38,0.2-0.77,0.41-1.15,0.62
			c-0.38,0.21-0.76,0.42-1.13,0.64c-0.38,0.22-0.75,0.44-1.12,0.66c-0.37,0.23-0.74,0.45-1.11,0.69c-0.37,0.23-0.73,0.47-1.09,0.71
			c-0.36,0.24-0.72,0.48-1.08,0.73c-2.17,1.5-4.25,3.05-6.2,4.84c1.4-2.26,3.33-4.41,5.12-6.38c1.04-1.14,2.17-2.18,3.31-3.22
			c0.27-0.24,0.54-0.49,0.82-0.72c0.27-0.24,0.55-0.47,0.83-0.71c0.28-0.23,0.56-0.46,0.85-0.69c0.28-0.23,0.57-0.45,0.86-0.67
			c0.29-0.22,0.58-0.44,0.88-0.65c0.29-0.21,0.59-0.43,0.89-0.63c0.3-0.21,0.6-0.41,0.9-0.61c0.3-0.2,0.61-0.4,0.92-0.59
			c0.31-0.19,0.62-0.39,0.93-0.57c0.31-0.19,0.63-0.37,0.94-0.55c0.32-0.18,0.63-0.36,0.95-0.53c0.32-0.17,0.64-0.35,0.96-0.51
			c0.32-0.17,0.65-0.33,0.97-0.49c0.33-0.16,0.65-0.32,0.98-0.47c0.33-0.15,0.66-0.3,0.99-0.45c0.33-0.15,0.67-0.29,1-0.43
			c0.34-0.14,0.67-0.28,1.01-0.41c0.34-0.13,0.68-0.26,1.02-0.39c0.34-0.13,0.69-0.25,1.03-0.36c0.34-0.12,0.69-0.23,1.04-0.34
			c0.35-0.11,0.69-0.22,1.04-0.32c0.35-0.1,0.7-0.2,1.05-0.3c0.35-0.1,0.7-0.19,1.06-0.27c0.35-0.09,0.71-0.17,1.06-0.25
			c0.36-0.08,0.71-0.16,1.07-0.23c0.36-0.07,0.71-0.14,1.07-0.21c0.36-0.07,0.72-0.13,1.08-0.18c0.36-0.06,0.72-0.11,1.08-0.16
			c0.36-0.05,0.72-0.1,1.08-0.14c0.36-0.04,0.72-0.08,1.09-0.11c0.36-0.03,0.73-0.06,1.09-0.09
			C168.37,48.7,168.73,48.68,169.1,48.66z M174.55,114.1c0.72,0.53,1.34,1.57,1.92,2.27c0.94,1.13,1.94,2.17,3.08,3.09
			c4.4,3.53,8.67,4.88,14.16,5.69c1.4,0.21,2.95,0.15,4.31,0.55c0.04,0.01,0.09,0.03,0.13,0.04c-0.69,0.05-1.4-0.04-2.09-0.08
			c-1.56-0.06-3.12-0.16-4.68-0.29c-2.29-0.17-4.64-0.21-6.9-0.64c-0.52-0.09-1.03-0.23-1.53-0.4c-0.5-0.17-0.99-0.37-1.46-0.61
			C177.92,121.86,175.74,117.8,174.55,114.1z M177.81,108.56c2.06,0.51,4.18,0.84,6.27,1.23c2.03,0.38,4.04,0.82,6.06,1.22
			c1.35,0.27,2.82,0.33,4.1,0.82c-1.91-0.19-3.82-0.45-5.73-0.6c-1.4-0.11-2.81-0.13-4.22-0.21c-0.58-0.04-2.12-0.28-2.62-0.09
			c0.03,0.05,0.05,0.1,0.08,0.14c0.56,0.94,1.44,1.82,2.16,2.65c3.48,4.01,6.63,5.93,11.6,7.71c1.99,0.73,4.01,1.34,6.07,1.82
			c1.89,0.44,3.75,0.71,5.68,0.92l0.07,0.18l0.18-0.12c-0.02-0.01-0.04,0.01-0.07,0.01c-3.95,0.48-14.8-1.61-18.4-3.15
			c-1-0.43-1.87-1.06-2.72-1.73C183.2,116.89,179.39,112.23,177.81,108.56z"/>
		<path class="st63" d="M236.16,109.09l-0.02,0.07c-0.29,1.17-1.06,1.7-1.98,2.4c-2.49,1.9-9.28,5.52-12.39,5.99
			c-1.73,0.26-4.99-0.32-6.8-0.55c-7.12-0.93-14.21-2.11-21.25-3.53c-4.01-0.82-7.99-1.99-12.06-2.53c0.5-0.19,2.04,0.05,2.62,0.09
			c1.41,0.09,2.81,0.1,4.22,0.21c1.91,0.16,3.82,0.42,5.73,0.6c2.28,0.26,4.55,0.7,6.82,1.01c4.71,0.63,9.43,1.18,14.16,1.63
			c1.56,0.15,4.17,0.55,5.59,0.42c1.06-0.1,2.13-0.51,3.15-0.83c3.23-0.99,6.28-2.09,9.35-3.51
			C234.27,110.11,235.28,109.69,236.16,109.09z"/>
	</g>
</g>
</svg>
