<?xml version="1.0" encoding="utf-8"?>
<!-- Generator: Adobe Illustrator 27.8.1, SVG Export Plug-In . SVG Version: 6.00 Build 0)  -->
<svg version="1.1" xmlns="http://www.w3.org/2000/svg" xmlns:xlink="http://www.w3.org/1999/xlink" x="0px" y="0px"
	 viewBox="0 0 350 230" style="enable-background:new 0 0 350 230;" xml:space="preserve">
<style type="text/css">
	.st0{fill:#003799;}
	.st1{fill:#630000;}
	.st2{fill-rule:evenodd;clip-rule:evenodd;fill:#037FE1;}
	.st3{fill-rule:evenodd;clip-rule:evenodd;}
	.st4{fill-rule:evenodd;clip-rule:evenodd;fill:#562900;}
	.st5{fill-rule:evenodd;clip-rule:evenodd;fill:#00184C;}
	.st6{fill-rule:evenodd;clip-rule:evenodd;fill:#2C2C5B;}
	.st7{fill-rule:evenodd;clip-rule:evenodd;fill:#007C89;}
	.st8{fill:#C97C00;}
	.st9{fill:#7A6B00;}
	.st10{fill-rule:evenodd;clip-rule:evenodd;fill:#022B18;}
	.st11{fill-rule:evenodd;clip-rule:evenodd;fill:#03113F;}
	.st12{fill:#273F02;}
	.st13{fill:url(#SVGID_1_);}
	.st14{fill:#B62126;}
	.st15{fill:#231F20;}
	.st16{fill:#FFFFFF;}
	.st17{fill:#17629D;}
	.st18{fill:#540159;}
	.st19{fill:#66082A;}
	.st20{fill:#005C68;}
	.st21{fill:#E2FFD7;}
	.st22{fill:#FFFFCC;}
	.st23{fill:#ECFFCF;}
	.st24{fill:#F0F9E1;}
	.st25{fill:#F7F7E2;}
	.st26{fill:#F9D6AC;}
	.st27{fill:#E2F7F3;}
	.st28{fill:#FFF7D2;}
	.st29{fill:#563900;}
	.st30{fill:#66BFE6;}
	.st31{fill:url(#SVGID_00000088838655103356801910000006087442323377391251_);}
	.st32{fill:url(#SVGID_00000133519269164884096500000000716565520403574941_);}
	.st33{fill:url(#SVGID_00000165212084617158280330000007679878564966451587_);}
	.st34{fill:url(#SVGID_00000004532794685211744030000014359540716392151466_);}
	.st35{fill:url(#SVGID_00000093881149664239892490000016727836263843749271_);}
	.st36{fill:url(#SVGID_00000044880764251147082870000009378614873635563182_);}
	.st37{fill:#AEAEB6;}
	.st38{fill:url(#SVGID_00000146465058796609788820000017201282427582306197_);}
	.st39{fill:url(#SVGID_00000066491038910654530230000003953038532916330932_);}
	.st40{fill:url(#SVGID_00000043433035471544025550000015786485458447168426_);}
	.st41{fill:url(#SVGID_00000020367619785350837860000002082088177715959457_);}
	.st42{filter:url(#Adobe_OpacityMaskFilter);}
	.st43{filter:url(#Adobe_OpacityMaskFilter_00000129921046552056765630000005013152941751061419_);}
	
		.st44{mask:url(#SVGID_00000013915177983109705150000005130956068450896805_);fill:url(#SVGID_00000099622742626773413120000014619630124772426669_);}
	.st45{fill:url(#SVGID_00000122001288008554124600000001068123173130791347_);}
	.st46{filter:url(#Adobe_OpacityMaskFilter_00000006672272288402961800000005332230630735254207_);}
	.st47{filter:url(#Adobe_OpacityMaskFilter_00000116233005965791248740000011802955271166500483_);}
	
		.st48{mask:url(#SVGID_00000067922823481045081140000005753230346386434694_);fill:url(#SVGID_00000174589607411456216350000006452264564322794371_);}
	.st49{fill:url(#SVGID_00000000204400170971719670000011653168641910412188_);}
	.st50{fill:url(#SVGID_00000158010010505534296810000008179946076323306660_);}
	.st51{fill:url(#SVGID_00000127744437240091249320000014037866758465579173_);}
	.st52{fill:url(#SVGID_00000046320070701462517810000003613976665745554312_);}
	.st53{fill:url(#SVGID_00000131349079099761905770000005073485745089464730_);}
	.st54{fill:url(#SVGID_00000061454135894617171810000002183576764946783907_);}
	.st55{opacity:0.5;fill:url(#SVGID_00000172439110663445764810000009062201554438456482_);enable-background:new    ;}
	.st56{fill:url(#SVGID_00000180365792926795582440000005629960270182577318_);}
	.st57{fill:url(#SVGID_00000170277168469560271620000008064404148727727548_);}
	.st58{fill:url(#SVGID_00000067203054677625858120000013598857099447019940_);}
	.st59{fill:#3E2770;}
	.st60{fill:#010100;}
	.st61{fill:#0E2C31;}
	.st62{fill:url(#SVGID_00000063592301122578625220000010793019404086130100_);}
	.st63{fill:#FEFEFE;}
	.st64{fill:#CF0F0E;}
	.st65{fill:#272525;}
	.st66{fill:#0C4352;}
	.st67{fill:#2CAFB7;}
	.st68{fill:#A38F7E;}
	.st69{fill:#EA0314;}
	.st70{fill:#0E1D33;}
	.st71{fill:url(#SVGID_00000013154759808705931390000001406879141842162110_);}
	.st72{fill:url(#SVGID_00000095332442177849205560000002382997040527260599_);}
	.st73{fill:url(#SVGID_00000134932205026967535000000000974532569187295396_);}
	.st74{fill:#FF0000;}
	.st75{fill-rule:evenodd;clip-rule:evenodd;fill:#FF0202;}
	.st76{fill:none;}
	.st77{fill:#C41111;}
</style>
<g id="Logo1">
</g>
<g id="Logo2">
</g>
<g id="Logo3">
</g>
<g id="Logo4">
</g>
<g id="Logo5">
</g>
<g id="Logo6">
</g>
<g id="Logo7">
</g>
<g id="Logo8">
</g>
<g id="Logo9">
</g>
<g id="Logo10">
</g>
<g id="Logo11">
</g>
<g id="Logo12">
</g>
<g id="Logo13">
</g>
<g id="Logo14">
</g>
<g id="Layer_15">
	<radialGradient id="SVGID_1_" cx="183.6415" cy="92.9193" r="66.7231" gradientUnits="userSpaceOnUse">
		<stop  offset="0" style="stop-color:#FFFFFF"/>
		<stop  offset="0.0106" style="stop-color:#F6FAFC"/>
		<stop  offset="0.0709" style="stop-color:#C9DEEF"/>
		<stop  offset="0.1369" style="stop-color:#9FC5E3"/>
		<stop  offset="0.2072" style="stop-color:#7CAFD8"/>
		<stop  offset="0.2833" style="stop-color:#5E9DCF"/>
		<stop  offset="0.3667" style="stop-color:#468EC8"/>
		<stop  offset="0.4604" style="stop-color:#3383C3"/>
		<stop  offset="0.5706" style="stop-color:#267BBF"/>
		<stop  offset="0.7126" style="stop-color:#1E76BD"/>
		<stop  offset="1" style="stop-color:#1C75BC"/>
	</radialGradient>
	<path class="st13" d="M256.94,114.88c0.46-1.65,0.67-3.37,0.94-5.07c0.65-4.31-0.32-6.15-4.1-8.18
		c-9.61-5.16-20.02-6.76-30.74-7.17c-1.67-0.07-3.48-0.33-4.95-1.06c-16.31-8.09-32.71-8.64-49.32-1c-4.34,2-8.65,4.11-13.14,5.74
		c-5.89,2.13-11.21-0.09-13.9-5.33c-2.11-4.09-2.48-8.47-1.84-12.91c1.49-10.38,6.52-18.8,14.43-25.6
		c7.67-6.6,16.49-10.52,26.6-11.27c16.24-1.2,30.05,4.45,41.91,15.32c0.15,0.1-0.29-0.35,0.56-1.1c0.15-0.13,0.51,0.79,0.71,1.06
		c0.17,0.22,0.3-0.21,0.25-0.18c-0.84,0.41-0.27,0.27-0.87,0.99c0.85-0.45,0.65-0.21,1.58-0.11c0.03,0,0.09,0.03,0.16,0.07
		c0.67,0.37,1.17,0.99,1.41,1.71c0.54,1.6,1.29,2.67,2.22,3.92c5.35,7.19,9.32,14.96,11.42,23.67c0.76,3.18,1.52,3.71,5.12,3.65
		c-0.16-0.74-0.33-1.46-0.47-2.19c-3.03-15.88-11.11-28.72-23.71-38.7c-15.54-12.31-33.45-17-52.89-14.48
		c-18.54,2.4-34.53,10.42-45.95,25.72c-15.27,20.46-18.37,42.62-7.62,66.11c4.01,8.76,10.35,15.57,19.58,19.16
		c5.47,2.13,11.16,2.53,16.98,1.91c9.05-0.96,17.33-4.16,25.34-8.27c-0.47-0.05-0.89,0.04-1.32,0.15
		c-8.91,2.44-17.88,4.4-27.23,2.95c-0.64-0.1-2.51-0.41-3.21-0.33c-0.56,0.07-1.23,0.05-1.71-0.19c-1.29-0.66-1.28-0.83-2.61-1.33
		c-6.25-2.36-11.45-6.11-15.57-11.36c-8.94-11.41-11.73-24.53-9.49-38.5c3.22-20.03,13.73-35.24,32.01-44.62
		c2.5-1.29,5.24-2.13,7.86-3.17c0.09,0.2,0.17,0.41,0.26,0.61c-0.29,0.16-0.58,0.33-0.86,0.49c-6.88,3.73-13.31,8.09-18.68,13.85
		c-15.6,16.73-21.13,35.9-13.12,57.85c3.9,10.67,11.68,17.6,23.33,20.24c-0.77-0.99-1.34-1.72-1.96-2.51
		c0.32-0.46,0.63-0.91,1.04-1.5c-0.58-0.23-0.98-0.39-1.38-0.54c-7.18-2.66-12.55-7.44-15.43-14.48
		c-7.73-18.86-5.29-36.56,6.78-52.95c0.66-0.89,1.45-1.68,2.18-2.51c0.17,0.13,0.35,0.25,0.52,0.38c-0.5,1.14-0.96,2.29-1.5,3.41
		c-4.1,8.5-5.66,17.24-2.87,26.53c2.6,8.66,9.93,14.9,18.98,15.85c4.02-8.37,12.45-7.85,16.24,0.62c1.3,0.49,2.95,0.91,3.54,1.94
		c0.91,1.59-0.54,2.89-1.66,4.02c-0.83,0.83-1.64,1.68-2.45,2.51c0.35,1.74,1.49,1.7,2.91,1.51c6.66-0.93,13.33-1.78,20-2.62
		c2.12-0.27,4.25-0.42,6.34-0.62c0.1-11.27,7.64-15.58,13.05-14.89c3.44,0.44,6.19,2.16,8.21,4.97c3.53,4.9,3.42,10.13,0.83,15.92
		c13.05-3.14,25.73-4.68,39.25-2.76C256.6,118.57,256.39,116.89,256.94,114.88z M168.93,95.95c11.14-7,20.26-7.16,26.91,1.05
		C189.64,100.01,172.99,99.44,168.93,95.95z M218.61,100.65c7.29,0.18,13.85,1.67,20.48,4.04
		C234.37,108.95,221.95,106.58,218.61,100.65z M217.86,115.3c0.07,6.05-5.12,10.69-10.19,9.15c-3.82-1.16-6.5-5.64-6.09-10.17
		c0.42-4.63,3.59-8.03,7.86-8.44c3.97-0.38,7.98,3.69,8.42,8.56C217.88,114.7,217.86,115,217.86,115.3z M168.16,113.95
		c0.06,5.48-4.64,9.69-9.23,8.29c-3.46-1.05-5.89-5.11-5.51-9.21c0.38-4.2,3.25-7.27,7.12-7.65c3.6-0.35,7.23,3.34,7.63,7.76
		C168.18,113.4,168.16,113.67,168.16,113.95z M131.05,103.13c2.47,2.39,5.1,5.32,8.13,7.76c2.88,2.31,6.41,3.52,10.14,3.84
		c1.77,0.15,3.02,0.62,3.43,2.68c0.27,1.34,1.17,2.56,1.79,3.83C146.33,124.49,131.41,112.63,131.05,103.13z M131.73,111.82
		c0,0,16.7,26.54,52.46,11.58c1.02-0.43,2.06-0.8,3.12-1.1l5.53-1.52c0,0-25.91,11.07-32.82,10.15
		C153.83,130.1,136.93,123.96,131.73,111.82z"/>
</g>
</svg>
