<?xml version="1.0" encoding="utf-8"?>
<!-- Generator: Adobe Illustrator 27.8.1, SVG Export Plug-In . SVG Version: 6.00 Build 0)  -->
<svg version="1.1" xmlns="http://www.w3.org/2000/svg" xmlns:xlink="http://www.w3.org/1999/xlink" x="0px" y="0px"
	 viewBox="0 0 350 230" style="enable-background:new 0 0 350 230;" xml:space="preserve">
<style type="text/css">
	.st0{fill:#003799;}
	.st1{fill:#630000;}
	.st2{fill-rule:evenodd;clip-rule:evenodd;fill:#037FE1;}
	.st3{fill-rule:evenodd;clip-rule:evenodd;}
	.st4{fill-rule:evenodd;clip-rule:evenodd;fill:#562900;}
	.st5{fill-rule:evenodd;clip-rule:evenodd;fill:#00184C;}
	.st6{fill-rule:evenodd;clip-rule:evenodd;fill:#2C2C5B;}
	.st7{fill-rule:evenodd;clip-rule:evenodd;fill:#007C89;}
	.st8{fill:#C97C00;}
	.st9{fill:#7A6B00;}
	.st10{fill-rule:evenodd;clip-rule:evenodd;fill:#022B18;}
	.st11{fill-rule:evenodd;clip-rule:evenodd;fill:#03113F;}
	.st12{fill:#273F02;}
	.st13{fill:url(#SVGID_1_);}
	.st14{fill:#B62126;}
	.st15{fill:#231F20;}
	.st16{fill:#FFFFFF;}
	.st17{fill:#17629D;}
	.st18{fill:#540159;}
	.st19{fill:#66082A;}
	.st20{fill:#005C68;}
	.st21{fill:#FFFCE1;}
	.st22{fill:#ECFFE3;}
	.st23{fill:#E3FFFF;}
	.st24{fill:#E3FFF0;}
	.st25{fill:#FFFAD7;}
	.st26{fill:#F4FCD4;}
	.st27{fill:#F5FFE3;}
	.st28{fill:#E3FFEA;}
	.st29{fill:#E0DCC6;}
	.st30{fill:#FCF4B9;}
	.st31{fill:#FFFBD2;}
	.st32{fill:#E3F4FF;}
	.st33{fill:#563900;}
	.st34{fill:#E2FFD7;}
	.st35{fill:#FFFFCC;}
	.st36{fill:#ECFFCF;}
	.st37{fill:#F0F9E1;}
	.st38{fill:#F7F7E2;}
	.st39{fill:#F9D6AC;}
	.st40{fill:#E2F7F3;}
	.st41{fill:#FFF7D2;}
	.st42{fill:#66BFE6;}
	.st43{fill:url(#SVGID_00000088814168962043653490000005422279722386678914_);}
	.st44{fill:url(#SVGID_00000127007164063515099870000016668878324261090203_);}
	.st45{fill:url(#SVGID_00000012444570509995820430000008237616735638878090_);}
	.st46{fill:url(#SVGID_00000052788094263834095770000003690597353615259528_);}
	.st47{fill:url(#SVGID_00000182524291571078713430000003776284583807184290_);}
	.st48{fill:url(#SVGID_00000043445745154048691520000002016325740268028566_);}
	.st49{fill:#AEAEB6;}
	.st50{fill:url(#SVGID_00000093861411928630169290000000110996251866587794_);}
	.st51{fill:url(#SVGID_00000041990774718230214400000013122319052288156838_);}
	.st52{fill:url(#SVGID_00000173869860750730875670000008396947375924210074_);}
	.st53{fill:url(#SVGID_00000052815266546555801760000006067462326129917370_);}
	.st54{filter:url(#Adobe_OpacityMaskFilter);}
	.st55{filter:url(#Adobe_OpacityMaskFilter_00000046326692853600791890000016881216011809625530_);}
	
		.st56{mask:url(#SVGID_00000141426945600947977210000014464701934750452880_);fill:url(#SVGID_00000119096467084329108130000004959819672975453332_);}
	.st57{fill:url(#SVGID_00000132772863049609220190000015454646355114269367_);}
	.st58{filter:url(#Adobe_OpacityMaskFilter_00000131355755427094295570000002754712795134025390_);}
	.st59{filter:url(#Adobe_OpacityMaskFilter_00000133520718402372173400000003216854035632807858_);}
	
		.st60{mask:url(#SVGID_00000104673212801884062530000000511265049537792183_);fill:url(#SVGID_00000126318792496962572120000007538497852258109597_);}
	.st61{fill:url(#SVGID_00000178176676752331569610000002593007373961110162_);}
	.st62{fill:url(#SVGID_00000003804491213894796990000000592344912228453010_);}
	.st63{fill:url(#SVGID_00000003088787158499478870000013784457310913429941_);}
	.st64{fill:url(#SVGID_00000170237526780474437390000008046149246719988109_);}
	.st65{fill:url(#SVGID_00000181057872279196377200000007726092854314567594_);}
	.st66{fill:url(#SVGID_00000023994241929604915280000014660928412779318462_);}
	.st67{opacity:0.5;fill:url(#SVGID_00000055699843893562271520000001337327883428771734_);enable-background:new    ;}
	.st68{fill:url(#SVGID_00000114065777838830885950000008739710041426763399_);}
	.st69{fill:url(#SVGID_00000029727757512499844470000003140735520146362242_);}
	.st70{fill:url(#SVGID_00000088110312303915291540000013570666902534953136_);}
	.st71{fill:#3E2770;}
	.st72{fill:#010100;}
	.st73{fill:#0E2C31;}
	.st74{fill:url(#SVGID_00000103983215667382079000000001870127447585045676_);}
	.st75{fill:#FEFEFE;}
	.st76{fill:#CF0F0E;}
	.st77{fill:#272525;}
	.st78{fill:#0C4352;}
	.st79{fill:#2CAFB7;}
	.st80{fill:#A38F7E;}
	.st81{fill:#EA0314;}
	.st82{fill:#0E1D33;}
	.st83{fill:url(#SVGID_00000152942249429375593990000011493857024159873210_);}
	.st84{fill:url(#SVGID_00000028289342648842165610000016918796641999378832_);}
	.st85{fill:url(#SVGID_00000029736540140753064270000017539487966619776956_);}
	.st86{fill:#FF0000;}
	.st87{fill-rule:evenodd;clip-rule:evenodd;fill:#FF0202;}
	.st88{fill:none;}
	.st89{fill:#C41111;}
	.st90{fill:#435107;}
	.st91{fill:#848484;}
	.st92{fill:#8AA80C;}
	.st93{fill:#9ECE09;}
	.st94{fill:#B27953;}
	.st95{fill:#1C1C1A;}
	.st96{fill:#899EAA;}
	.st97{fill:#393B6D;}
	.st98{fill:#00B2D2;}
	.st99{fill:#037FE1;}
	.st100{fill:#474747;}
	.st101{fill:url(#SVGID_00000019665199320891795380000000151170631244332479_);}
	.st102{fill:url(#SVGID_00000075856056590823338120000014985540805496616848_);}
	.st103{fill:#00184C;}
	.st104{fill:url(#SVGID_00000122709473156364214820000003737723155739114931_);}
	.st105{fill:#8C8C8C;}
	.st106{fill:#B20808;}
	.st107{fill:#B65534;}
	.st108{fill:#222021;}
	.st109{fill:#00D5EC;}
	.st110{fill:url(#SVGID_00000034055042415581357510000001831602573424098700_);}
	.st111{fill:url(#SVGID_00000064343236287690620950000017426983568219840173_);}
	.st112{fill:#FFEC00;}
	.st113{fill:url(#SVGID_00000067924757030104177410000004543555527205784970_);}
	.st114{fill:url(#SVGID_00000047051070766940297230000002145573254278467970_);}
	.st115{fill:url(#SVGID_00000043441831836710429050000016951897834961191592_);}
	.st116{fill:#227D8D;}
	.st117{fill:#132A45;}
	.st118{fill:url(#SVGID_00000069395162078330541850000010713718922539563419_);}
	.st119{fill:#EA004E;}
	.st120{fill:url(#SVGID_00000083070260015530969080000003305002872035183292_);}
	.st121{fill:url(#SVGID_00000059293316216180562220000011715672154094834868_);}
	.st122{fill:url(#SVGID_00000008844142961573953710000017282925588775914423_);}
	.st123{fill:#606060;}
	.st124{fill:url(#SVGID_00000058578312396019547310000004228199058285780121_);}
	.st125{fill:url(#SVGID_00000106118515947945744250000011863827324708277900_);}
	.st126{fill:url(#SVGID_00000028284200911963543310000014222717894471988637_);}
	.st127{fill:url(#SVGID_00000149369180973667445290000000117184823746401165_);}
	.st128{fill:url(#SVGID_00000015327595554766440930000018246909513548941712_);}
	.st129{fill:url(#SVGID_00000102505288358899637940000010430404277591245996_);}
	.st130{fill:url(#SVGID_00000024708807099074570390000018054611043947813308_);}
	.st131{fill:url(#SVGID_00000007412087229454587830000002009143768071803577_);}
	.st132{fill-rule:evenodd;clip-rule:evenodd;fill:#BD3E8C;}
	.st133{fill-rule:evenodd;clip-rule:evenodd;fill:url(#SVGID_00000049922856627784934110000003115341309415553716_);}
	.st134{fill-rule:evenodd;clip-rule:evenodd;fill:url(#SVGID_00000021114565988567365260000013030026536514848417_);}
</style>
<g id="Logo1">
</g>
<g id="Logo2">
</g>
<g id="Logo3">
</g>
<g id="Logo4">
</g>
<g id="Logo5">
</g>
<g id="Logo6">
</g>
<g id="Logo7">
</g>
<g id="Logo8">
</g>
<g id="Logo9">
</g>
<g id="Logo10">
</g>
<g id="Logo11">
</g>
<g id="Logo12">
</g>
<g id="Logo13">
</g>
<g id="Logo14">
</g>
<g id="Layer_15">
	<g>
		<path class="st109" d="M212.17,120.36c11.3-0.54,22.78-1.19,34.28-1.59c11.45-0.41,22.9-0.47,34.32,0.73c-1.71,0-3.42,0.02-5.13,0
			c-11.9-0.13-23.76,0.42-35.59,1.65c-9.17,0.95-18.38,1.71-27.5,3.03c-14.53,2.1-29.03,4.4-43.48,6.97
			c-22.38,3.98-44.47,9.34-66.37,15.41c-5.61,1.55-11.11,3.48-16.67,5.21c-0.24,0.07-0.59,0.06-0.79-0.07
			c-4.58-3.03-9.16-6.08-13.71-9.15c-0.96-0.65-1.84-1.43-3.05-2.37c7.55-1.46,14.78-2.85,22.01-4.25c0,0.01,0-0.09-0.04-0.12
			c-2.92-1.69-4.78-4.2-5.79-7.4c-0.09-0.29-0.62-0.61-0.96-0.62c-1.92-0.1-3.84-0.09-5.75-0.19c-0.31-0.01-0.82-0.28-0.88-0.52
			c-0.88-3.58-1.7-7.18-2.52-10.77c-0.03-0.14,0-0.29,0-0.61c0.36,0,0.7,0,1.05,0c2.16,0.01,2.36-0.31,2.54-2.49
			c0.24-2.86,0.62-5.71,1.06-8.55c0.44-2.88,1.92-5.06,4.66-6.29c1.21-0.54,2.02-1.51,2.79-2.59c0.59-0.82,1.47-1.59,2.4-1.98
			c1.79-0.75,3.7-1.22,5.57-1.81c1.02-0.32,2.03-0.66,3.05-0.99c2.12-0.7,3.39-2.16,4.17-4.24c0.97-2.58,2.15-5.09,3.26-7.62
			c1.1-2.49,3.03-4.08,5.5-5.17c4.9-2.16,10-3.56,15.29-4.27c9.49-1.27,18.93-0.92,28.3,1c4.2,0.86,4.96,1.86,4.97,6.2
			c0.01,10.59-0.01,21.19-0.02,31.78c0,0.22-0.07,0.48,0.02,0.66c0.12,0.24,0.4,0.62,0.55,0.6c0.27-0.05,0.68-0.32,0.72-0.55
			c0.11-0.65,0.07-1.32,0.08-1.99c0.15-11.77,0.2-23.55,0.48-35.32c0.13-5.38,0.71-10.75,1.09-16.13c0.01-0.13,0.07-0.27,0.1-0.4
			c0.12,0,0.24,0,0.36,0c0.39,13.26,0.78,26.52,1.17,39.88c0.7-0.4,1.4-0.78,2.09-1.19c20.04-11.92,41.52-20.08,64.4-24.54
			c15.49-3.02,31-3.34,46.53-0.32c1.34,0.26,2.66,0.61,3.99,0.93c0.28,0.07,0.55,0.17,0.82,0.42c-2.08,0.12-4.15,0.25-6.23,0.34
			c-13.62,0.6-26.55,4.16-39.13,9.19c-13.54,5.41-26.22,12.33-37.73,21.34c-8.09,6.33-15.01,13.74-20.8,22.22
			c-0.16,0.24-0.31,0.49-0.6,0.94c1.98-0.25,3.77-0.47,5.56-0.72c4.16-0.59,8.32-1.21,12.49-1.77c0.83-0.11,1.39-0.45,1.89-1.13
			c2.9-3.91,5.65-7.95,8.79-11.65c8.66-10.2,19.23-18.04,30.92-24.44c0.09-0.05,0.2-0.07,0.61-0.2c0.52,3.25,1.19,6.43,1.51,9.64
			c0.8,7.91-0.07,15.69-2.18,23.34c-0.18,0.65-0.41,0.95-1.16,0.99c-6,0.32-12.01,0.69-18.01,1.07
			C215.64,120.02,213.81,120.22,212.17,120.36z M163.49,110.37c4.15,0.1,8.13,0.17,12.1,0.31c0.77,0.03,1.3-0.21,1.87-0.7
			c3.17-2.71,6.27-5.5,9.58-8.03c13.08-9.98,27.42-17.72,42.79-23.55c9.51-3.61,19.25-6.35,29.35-7.76
			c1.32-0.18,2.64-0.35,3.97-0.52c-0.29-0.22-0.57-0.26-0.85-0.27c-6.21-0.16-12.39,0.24-18.55,0.98
			c-9.47,1.13-18.55,3.78-27.52,6.89c-15.22,5.29-29.5,12.54-43.31,20.78c-2.91,1.74-5.76,3.59-8.6,5.44
			c-0.37,0.24-0.77,0.77-0.79,1.18C163.44,106.81,163.49,108.5,163.49,110.37z M131.7,92.4c0-0.18-0.01-0.36-0.01-0.54
			c-0.83-0.18-1.64-0.46-2.48-0.53c-6.92-0.63-13.85-0.76-20.78-0.2c-5.86,0.47-11.6,1.48-17.21,3.38
			c-2.26,0.76-3.37,2.17-3.94,4.29c-0.07,0.25-0.14,0.5-0.2,0.75c-1.03,4.35-0.26,8.57,0.96,12.75c0.07,0.24,0.51,0.51,0.79,0.52
			c4.87,0.16,9.73,0.29,14.6,0.38c0.32,0.01,0.78-0.35,0.94-0.66c1.01-2,1.84-4.11,2.95-6.05c4.3-7.5,5.05-8.27,13.93-11.14
			c2.87-0.93,5.85-1.49,8.78-2.25C130.6,92.93,131.14,92.63,131.7,92.4z M107.78,77.9c10.37-3.49,20.76-2.06,31.25-1.31
			c-2.12,5.3-4.17,10.4-6.28,15.65c1.48-0.18,2.57-0.45,2.84-1.99c0.13-0.71,0.44-1.41,0.75-2.08c1.43-3.11,2.86-6.22,4.35-9.3
			c0.53-1.1,1.51-1.76,2.75-1.76c2.68-0.01,5.39-0.13,8.05,0.13c3.16,0.31,3.75,1.15,3.89,4.38c0,0.07,0.01,0.15,0.01,0.22
			c0.05,2.77,0.12,5.53,0.14,8.3c0.01,1.19-0.1,2.39-0.15,3.61c-5.59-0.29-10.98-0.56-16.44-0.84c0.73-4.39,2.24-8.41,4.6-12.12
			c-3.32,3.81-5.22,8.22-5.78,13.23c0.23,0.08,0.33,0.14,0.43,0.15c5.31,0.25,10.61,0.51,15.92,0.74c0.23,0.01,0.57-0.05,0.69-0.21
			c0.79-1.01,1.7-1.95,1.69-3.38c-0.01-5.24-0.01-10.48,0.02-15.72c0-0.88-0.37-1.42-1.16-1.66c-1.13-0.34-2.26-0.66-3.41-0.92
			c-11.87-2.68-23.71-2.59-35.49,0.54C113.3,74.4,110.31,75.64,107.78,77.9z M75.28,116.09c-0.04,0.1-0.07,0.2-0.11,0.3
			c0.69,0.49,1.34,1.03,2.06,1.45c2.38,1.37,4.98,2.17,7.69,2.2c10.03,0.1,20.07,0.07,30.1,0.1c2,0.01,3.46-0.85,4.41-2.6
			c0.23-0.42,0.46-0.85,0.74-1.23c1.44-1.91,2.72-3.98,4.4-5.65c3.62-3.6,7.98-3.1,10.94,1.05c2.01,2.83,2.74,6.08,3,9.48
			c0.06,0.71,0.12,1.42,0.19,2.13c0.65-3.79-0.41-9.12-2.31-12.3c-1.22-2.04-2.78-3.72-5.16-4.44c-3.39-1.02-7.26,0.35-9.76,3.61
			c-0.91,1.19-1.67,2.52-2.34,3.87c-0.57,1.13-1.31,1.78-2.6,1.89c-1.69,0.15-3.36,0.48-5.05,0.57
			c-10.62,0.62-21.24,0.48-31.86-0.12C78.19,116.31,76.74,116.19,75.28,116.09z M125.85,123.17c0,2.31,0.46,4.3,1.34,5.98
			c0.84,1.6,2.04,2.87,3.91,2.84c1.7-0.03,2.94-1.18,3.7-2.65c2.15-4.15,2.18-8.4,0-12.51c-1.79-3.38-5.17-3.41-7.27-0.2
			C126.22,118.61,125.84,120.85,125.85,123.17z M124.11,101.58c-2.75,0.42-5.5,0.72-8.19,1.28c-1.26,0.26-2.56,0.84-3.58,1.62
			c-2.55,1.95-4.32,4.6-5.85,7.4c-0.02,0.05,0.02,0.13,0.04,0.22c0.09,0.04,0.19,0.14,0.28,0.13c3.34-0.26,6.68-0.51,10.01-0.81
			c0.27-0.02,0.6-0.29,0.77-0.53C119.73,107.87,121.85,104.82,124.11,101.58z M119.83,131.86c-0.76-1.25-1.38-2.34-2.08-3.37
			c-0.16-0.24-0.61-0.38-0.93-0.39c-3.8-0.03-7.6-0.01-11.4-0.03c-0.63,0-0.9,0.22-1.11,0.8c-0.71,2.02-1.92,3.73-3.47,5.2
			c-0.17,0.16-0.3,0.36-0.59,0.71C106.86,133.79,113.24,132.84,119.83,131.86z M158.41,121.36c0,2.43,0.49,4.17,1.38,5.23
			c1.31,1.56,2.87,1.52,4.03-0.11c1.81-2.55,1.74-7.7-0.15-10.2c-1.18-1.56-2.48-1.58-3.69-0.02
			C158.75,117.86,158.43,119.73,158.41,121.36z M173.79,121.23c-0.43-1.55-0.78-3.12-1.31-4.63c-0.3-0.88-0.99-1.82-1.99-1.62
			c-0.78,0.15-1.72,0.82-2.09,1.52c-1.61,3.05-1.46,6.19,0.21,9.19c0.93,1.67,2.49,1.66,3.63,0.1
			C173.22,124.45,173.53,122.91,173.79,121.23z M86.16,111.83c0.12-0.09,0.23-0.18,0.35-0.27c-0.73-1.86-1.34-3.8-2.25-5.57
			c-0.46-0.88-1.45-1.51-2.26-2.17c-0.34-0.27-0.87-0.35-1.02,0.32c-0.5,2.32-0.99,4.64-1.52,7.17
			C81.87,111.49,84.01,111.66,86.16,111.83z M142.97,120.84c4.15,0.14,8.25,0.27,12.42,0.41c0.11-0.52,0.21-0.94,0.3-1.37
			c0.24-1.23,0.12-1.33-1.13-1.28c-2.2,0.09-4.41,0.13-6.62,0.21c-1.64,0.06-3.29,0.15-4.97,0.23
			C142.97,119.69,142.97,120.19,142.97,120.84z M156.01,117.75c0.17-0.75,0.32-1.46,0.49-2.22c-4.27,0-8.45-0.02-12.64,0.04
			c-0.29,0-0.57,0.55-0.86,0.85c0.08,0.1,0.15,0.2,0.23,0.3C147.44,117.06,151.65,117.4,156.01,117.75z M157.36,112.96
			c-0.42-0.03-0.74-0.08-1.06-0.08c-3.57-0.1-7.13-0.19-10.7-0.29c-0.51-0.01-1.03-0.05-1.54,0c-0.2,0.02-0.37,0.23-0.56,0.35
			c0.13,0.19,0.22,0.45,0.4,0.56c0.21,0.12,0.49,0.13,0.75,0.15c3.51,0.34,7.03,0.68,10.54,1
			C156.87,114.8,156.87,114.78,157.36,112.96z M138.02,126.59c0.02,0.11,0.03,0.22,0.05,0.33c0.22,0.05,0.45,0.16,0.67,0.13
			c4.65-0.55,9.29-1.1,13.93-1.68c0.38-0.05,0.73-0.28,1.09-0.43c-0.03-0.1-0.05-0.2-0.08-0.29c-0.27-0.01-0.54-0.06-0.8-0.03
			c-4.43,0.5-8.86,0.99-13.29,1.52C139.06,126.2,138.55,126.44,138.02,126.59z"/>
		<path d="M92.14,155.46c11.29-3.28,22.56-6.66,33.88-9.82c16.2-4.52,32.51-8.58,48.96-12.09c14.47-3.08,29.05-5.61,43.73-7.43
			c12.56-1.56,25.14-2.96,37.74-4.1c7.63-0.69,15.32-0.75,22.99-1.09c0.4-0.02,0.8,0.05,1.21,0.26c-2.59,0.21-5.18,0.34-7.76,0.65
			c-8.06,0.96-16.16,1.65-24.14,3.05c-27.04,4.75-53.78,10.87-80.04,18.94c-18.48,5.68-36.77,11.89-54.38,19.93
			c-0.6,0.28-1.27,0.49-1.77,0.91c-1.11,0.94-2.14,0.72-3.3,0.11c-5.33-2.79-10.68-5.52-16.02-8.28c-0.38-0.2-0.74-0.46-1.1-0.7
			C92.14,155.69,92.14,155.57,92.14,155.46z M151.88,158.17c7.45,3.66,14.99,7.12,22.91,9.67c0.61,0.2,1.4,0.19,2.01-0.01
			c7.68-2.53,15.19-5.48,22.4-9.17c9.94-5.09,18.76-11.65,25.75-20.4c1.79-2.24,3.77-3.47,6.39-4.22
			c14.31-4.05,28.75-7.56,43.39-10.19c1.58-0.28,3.17-0.55,4.75-0.82c-32.65,2.5-63.96,10.91-94.84,21.27
			c-11.31,3.79-22.32,8.28-33.23,13.5C151.71,158.03,151.78,158.12,151.88,158.17z M221.82,50.25c-2.01,0.25-3.89,0.23-5.92-0.52
			c-12.86-4.76-25.78-9.35-38.7-13.94c-0.75-0.27-1.77-0.21-2.54,0.06c-11.78,4.06-23.54,8.17-35.3,12.27
			c-3.4,1.19-6.79,2.4-10.28,3.64c1.05,1.5,2.05,2.94,3.06,4.38c1.34-0.51,2.55-0.94,3.74-1.43c8.47-3.54,16.93-7.09,25.39-10.66
			c0.88-0.37,1.64-0.37,2.53-0.05c9.31,3.4,18.66,6.7,27.96,10.14c10.58,3.91,21.15,7.85,31.66,11.94c1.78,0.69,3.29,0.55,5.21,0.08
			c-3.07-3.14-6.01-6.16-9.02-9.25c1.55-2.26,3.11-4.52,4.75-6.92C223.41,50.08,222.62,50.15,221.82,50.25z M218.81,67.87
			c-0.41-0.17-0.81-0.36-1.22-0.5c-12.95-4.63-25.88-9.3-38.85-13.86c-5.15-1.81-10.37-3.38-15.58-5.01
			c-0.59-0.19-1.35-0.29-1.9-0.09c-7.13,2.6-14.26,5.24-21.36,7.93c-3.41,1.29-6.77,2.7-10.14,4.09c-0.61,0.25-1.16,0.65-1.71,1.02
			c-0.51,0.35-0.98,0.76-1.51,1.17c2.35-1.08,4.54-2.34,6.88-3.13c9.14-3.11,18.33-6.08,27.52-9.07c0.41-0.13,0.95-0.11,1.35,0.04
			c8.58,3.26,17.14,6.58,25.73,9.81c4.86,1.83,9.76,3.57,14.67,5.27c1.09,0.38,1.49,0.92,1.41,2.06c-0.1,1.52-0.03,3.06-0.03,4.71
			c5.07-1.45,9.91-2.83,14.75-4.21C218.84,68.03,218.83,67.95,218.81,67.87z"/>
		<path class="st96" d="M227.62,56.3c2.75,2.65,4.91,5.59,6.82,8.9c-1.32,0.2-2.51,0.43-3.71,0.54c-0.25,0.02-0.57-0.37-0.79-0.63
			c-1.86-2.2-3.68-4.42-5.55-6.6c-0.52-0.61-1.18-1.11-1.91-1.79c2.25-3.34,4.53-6.72,6.82-10.09c-1.05,0-2.14-0.06-3.21,0.01
			c-2.47,0.16-4.93,0.43-7.39,0.55c-0.88,0.04-1.83-0.09-2.66-0.38c-11.14-3.98-22.27-8.01-33.4-12.03
			c-1.98-0.71-3.95-1.42-5.95-2.09c-0.38-0.13-0.88-0.15-1.26-0.02c-8.04,2.81-16.07,5.63-24.09,8.49
			c-4.69,1.67-9.34,3.46-14.04,5.08c-1.33,0.46-2.79,0.68-4.21,0.76c-3.17,0.16-6.34,0.16-9.52,0.23c-0.14,0-0.28,0.05-0.63,0.11
			c2.29,3.27,4.51,6.45,6.75,9.66c-0.11,0.15-0.17,0.29-0.28,0.37c-4.17,3.04-7.39,6.97-10.5,11.02c-0.35,0.46-0.91,0.86-1.46,1.07
			c-1.57,0.6-3.19,1.08-5.06,1.7c3.32-5.72,7.57-10.34,12.09-14.9c-2.83-4.25-5.63-8.47-8.55-12.87c0.65-0.04,1.07-0.08,1.5-0.08
			c5.28-0.09,10.55-0.14,15.83-0.27c1.09-0.03,2.23-0.16,3.25-0.52c5.24-1.87,10.44-3.86,15.67-5.75c7.49-2.7,15-5.34,22.49-8.03
			c0.91-0.32,1.74-0.34,2.67-0.01c9.74,3.52,19.5,6.99,29.25,10.49c3.16,1.13,6.27,2.42,9.46,3.42c1.4,0.44,2.97,0.5,4.45,0.47
			c5.27-0.09,10.55-0.3,15.82-0.46c0.1,0,0.19,0.05,0.34,0.09C233.64,47.27,230.64,51.76,227.62,56.3z M144.94,162.17
			c0.64,0.37,1.27,0.75,1.93,1.09c9.13,4.73,18.6,8.61,28.55,11.26c0.46,0.12,1.03,0.08,1.48-0.08c4.19-1.41,8.4-2.79,12.55-4.31
			c8.76-3.2,17.19-7.04,24.72-12.67c8.31-6.22,15.79-13.2,21.16-22.21c0.42-0.71,0.86-1.41,1.43-2.34
			c-1.75,0.54-3.21,1.02-4.69,1.42c-1.19,0.32-2.05,0.96-2.77,2.01c-5.01,7.36-11.38,13.34-18.81,18.2
			c-10.52,6.88-22.07,11.52-33.94,15.45c-0.35,0.12-0.81,0.11-1.16-0.02c-4.09-1.47-8.23-2.83-12.24-4.52
			c-4.35-1.83-8.55-3.98-12.84-5.96c-0.36-0.17-0.89-0.3-1.21-0.15c-1.57,0.72-3.09,1.53-4.8,2.39
			C144.64,161.96,144.78,162.08,144.94,162.17z M240.87,118.37c2.65-0.2,2.66-0.2,3.32-2.78c2.08-8.13,2.11-16.35,0.94-24.6
			c-0.38-2.7-0.99-5.36-1.52-8.03c-0.16-0.81-0.56-1.14-1.4-0.66c-0.8,0.45-1.68,0.77-2.45,1.26c-0.26,0.17-0.49,0.7-0.44,1.01
			c0.29,1.71,0.72,3.39,1.01,5.1c1.3,7.78,1.4,15.55-0.37,23.29c-0.41,1.79-0.8,3.58-1.25,5.58
			C239.64,118.46,240.26,118.42,240.87,118.37z"/>
		<path class="st94" d="M107.06,101.54c-0.39,0.79-0.7,1.49-1.09,2.15c-0.12,0.2-0.44,0.41-0.67,0.41
			c-5.56-0.09-11.12-0.22-16.76-0.34c0-0.61,0-1.21,0-1.93C94.7,101.49,100.81,101.04,107.06,101.54z M106.27,97.63
			c-5.31-0.21-10.62-0.28-15.89,0.58c-1.17,0.19-1.66,0.76-1.62,1.95c0.21,0,0.43,0,0.64,0c5.68-0.13,11.36-0.33,17.03-0.36
			c1.49-0.01,2.33-0.55,2.93-1.95C108.3,97.77,107.29,97.67,106.27,97.63z M92.27,107.59c3.57,0.17,7.15,0.36,10.72,0.49
			c0.4,0.01,0.97-0.19,1.18-0.49c0.41-0.59,0.61-1.32,0.99-2.2c-5.64,0-11.12,0-16.67,0c0.07,0.65,0.14,1.3,0.22,2.04
			C89.99,107.49,91.13,107.54,92.27,107.59z M89.18,110.59c0.12,0.32,0.51,0.74,0.8,0.76c3.94,0.27,7.88,0.49,11.82,0.67
			c0.34,0.02,0.87-0.28,1.02-0.57c0.35-0.66,0.52-1.42,0.82-2.32c-4.98-0.15-9.79-0.29-14.75-0.44
			C89,109.51,88.99,110.08,89.18,110.59z"/>
	</g>
</g>
</svg>
