<?xml version="1.0" encoding="utf-8"?>
<!-- Generator: Adobe Illustrator 27.8.1, SVG Export Plug-In . SVG Version: 6.00 Build 0)  -->
<svg version="1.1" xmlns="http://www.w3.org/2000/svg" xmlns:xlink="http://www.w3.org/1999/xlink" x="0px" y="0px"
	 viewBox="0 0 350 230" style="enable-background:new 0 0 350 230;" xml:space="preserve">
<style type="text/css">
	.st0{fill:#003799;}
	.st1{fill:#630000;}
	.st2{fill-rule:evenodd;clip-rule:evenodd;fill:#037FE1;}
	.st3{fill-rule:evenodd;clip-rule:evenodd;}
	.st4{fill-rule:evenodd;clip-rule:evenodd;fill:#562900;}
	.st5{fill-rule:evenodd;clip-rule:evenodd;fill:#00184C;}
	.st6{fill-rule:evenodd;clip-rule:evenodd;fill:#2C2C5B;}
	.st7{fill-rule:evenodd;clip-rule:evenodd;fill:#007C89;}
	.st8{fill:#C97C00;}
	.st9{fill:#7A6B00;}
	.st10{fill-rule:evenodd;clip-rule:evenodd;fill:#022B18;}
	.st11{fill-rule:evenodd;clip-rule:evenodd;fill:#03113F;}
	.st12{fill:#273F02;}
	.st13{fill:url(#SVGID_1_);}
	.st14{fill:#B62126;}
	.st15{fill:#231F20;}
	.st16{fill:#FFFFFF;}
	.st17{fill:#17629D;}
	.st18{fill:#540159;}
	.st19{fill:#66082A;}
	.st20{fill:#005C68;}
	.st21{fill:#FFFCE1;}
	.st22{fill:#ECFFE3;}
	.st23{fill:#E3FFFF;}
	.st24{fill:#E3FFF0;}
	.st25{fill:#FFFAD7;}
	.st26{fill:#F4FCD4;}
	.st27{fill:#F5FFE3;}
	.st28{fill:#E3FFEA;}
	.st29{fill:#E0DCC6;}
	.st30{fill:#FCF4B9;}
	.st31{fill:#FFFBD2;}
	.st32{fill:#E3F4FF;}
	.st33{fill:#563900;}
	.st34{fill:#E2FFD7;}
	.st35{fill:#FFFFCC;}
	.st36{fill:#ECFFCF;}
	.st37{fill:#F0F9E1;}
	.st38{fill:#F7F7E2;}
	.st39{fill:#F9D6AC;}
	.st40{fill:#E2F7F3;}
	.st41{fill:#FFF7D2;}
	.st42{fill:#66BFE6;}
	.st43{fill:url(#SVGID_00000041291736763918183720000015511121429135949222_);}
	.st44{fill:url(#SVGID_00000078763325922255913550000014575764435297489313_);}
	.st45{fill:url(#SVGID_00000013151720738740895450000016096150588764722619_);}
	.st46{fill:url(#SVGID_00000161610744127340168660000009958076926526273201_);}
	.st47{fill:url(#SVGID_00000027594201603150390970000006376747606503191179_);}
	.st48{fill:url(#SVGID_00000168803366367798044940000005003103150561251482_);}
	.st49{fill:#AEAEB6;}
	.st50{fill:url(#SVGID_00000181084338295386557120000002136370366356895140_);}
	.st51{fill:url(#SVGID_00000012457523190614978930000000151433346442970251_);}
	.st52{fill:url(#SVGID_00000039132601989635678790000007250448456400773556_);}
	.st53{fill:url(#SVGID_00000067217960318341667500000001115639490463527040_);}
	.st54{filter:url(#Adobe_OpacityMaskFilter);}
	.st55{filter:url(#Adobe_OpacityMaskFilter_00000171679605985561618390000008595510348094872988_);}
	
		.st56{mask:url(#SVGID_00000111874958060129815180000005251487718652532394_);fill:url(#SVGID_00000106126697672335572620000014109534956284941966_);}
	.st57{fill:url(#SVGID_00000144315166630556310830000016132236452595639212_);}
	.st58{filter:url(#Adobe_OpacityMaskFilter_00000056418978074911893820000001650398420006012049_);}
	.st59{filter:url(#Adobe_OpacityMaskFilter_00000133487602874620074230000005147195614076713133_);}
	
		.st60{mask:url(#SVGID_00000022544743087255946860000015596492410993825721_);fill:url(#SVGID_00000087378745139013046790000017397480888837617283_);}
	.st61{fill:url(#SVGID_00000124843951269455071380000001588764468083398022_);}
	.st62{fill:url(#SVGID_00000111184658563504374160000010159794751818825913_);}
	.st63{fill:url(#SVGID_00000121243128399485595790000015565494904964649347_);}
	.st64{fill:url(#SVGID_00000049912772050309372550000013274193912183144638_);}
	.st65{fill:url(#SVGID_00000101782694268700507900000010752711551631959185_);}
	.st66{fill:url(#SVGID_00000041296701262510274630000005286660668700838291_);}
	.st67{opacity:0.5;fill:url(#SVGID_00000037653354568775001510000008720392928639088309_);enable-background:new    ;}
	.st68{fill:url(#SVGID_00000042017256399024231790000011332306027499551129_);}
	.st69{fill:url(#SVGID_00000165215758537475517410000016132079753511802559_);}
	.st70{fill:url(#SVGID_00000063626523460518838610000016763533281165386889_);}
	.st71{fill:#3E2770;}
	.st72{fill:#010100;}
	.st73{fill:#0E2C31;}
	.st74{fill:url(#SVGID_00000131331566432559742060000016416082175383073972_);}
	.st75{fill:#FEFEFE;}
	.st76{fill:#CF0F0E;}
	.st77{fill:#272525;}
	.st78{fill:#0C4352;}
	.st79{fill:#2CAFB7;}
	.st80{fill:#A38F7E;}
	.st81{fill:#EA0314;}
	.st82{fill:#0E1D33;}
	.st83{fill:url(#SVGID_00000032645504319500271500000000193770666767756961_);}
	.st84{fill:url(#SVGID_00000150812346450698444460000008464946639540105089_);}
	.st85{fill:url(#SVGID_00000183242298515406816320000011922111715405957050_);}
	.st86{fill:#FF0000;}
	.st87{fill-rule:evenodd;clip-rule:evenodd;fill:#FF0202;}
	.st88{fill:none;}
	.st89{fill:#C41111;}
	.st90{fill:#435107;}
	.st91{fill:#848484;}
	.st92{fill:#8AA80C;}
	.st93{fill:#9ECE09;}
	.st94{fill:#B27953;}
	.st95{fill:#1C1C1A;}
	.st96{fill:#899EAA;}
	.st97{fill:#393B6D;}
	.st98{fill:#00B2D2;}
	.st99{fill:#037FE1;}
	.st100{fill:#474747;}
	.st101{fill:url(#SVGID_00000158710244099401581540000011618618974895627907_);}
	.st102{fill:url(#SVGID_00000058565389185474390750000007299073390634321035_);}
	.st103{fill:#00184C;}
	.st104{fill:url(#SVGID_00000016789025161239599200000017616480224143579814_);}
	.st105{fill:#8C8C8C;}
	.st106{fill:#B20808;}
	.st107{fill:#B65534;}
	.st108{fill:#222021;}
	.st109{fill:#00D5EC;}
	.st110{fill:url(#SVGID_00000152953686258720641600000004010630500656799617_);}
	.st111{fill:url(#SVGID_00000147217841943500468350000002763166565498835089_);}
	.st112{fill:#FFEC00;}
	.st113{fill:url(#SVGID_00000098939512577875798080000015833020424799326903_);}
	.st114{fill:url(#SVGID_00000086685436424115950980000008731065933169134495_);}
	.st115{fill:url(#SVGID_00000158005374648541843760000011218763792821850559_);}
	.st116{fill:#227D8D;}
	.st117{fill:#132A45;}
	.st118{fill:url(#SVGID_00000082344788557921314830000010917994848813461158_);}
	.st119{fill:#EA004E;}
	.st120{fill:url(#SVGID_00000072964575694116475450000000282624527964917890_);}
	.st121{fill:url(#SVGID_00000036944613707346488300000007215129873218948797_);}
	.st122{fill:url(#SVGID_00000129166480744428182890000000802668136424469429_);}
	.st123{fill:#606060;}
	.st124{fill:url(#SVGID_00000106141689359530311850000001967653223592653450_);}
	.st125{fill:url(#SVGID_00000105396912919557206120000004150077748846673830_);}
	.st126{fill:url(#SVGID_00000003103683361594133270000014362664235803629733_);}
	.st127{fill:url(#SVGID_00000140708470536434670530000017131116266173091261_);}
	.st128{fill:url(#SVGID_00000160893213912603279870000009311501036968158344_);}
	.st129{fill:url(#SVGID_00000064349773309058229340000011856720278962379912_);}
	.st130{fill:url(#SVGID_00000058550985779900323860000013601362522345086608_);}
	.st131{fill:url(#SVGID_00000032628337235980243150000014499729507418708357_);}
	.st132{fill-rule:evenodd;clip-rule:evenodd;fill:#BD3E8C;}
	.st133{fill-rule:evenodd;clip-rule:evenodd;fill:url(#SVGID_00000139990144327508044550000001010004025721736623_);}
	.st134{fill-rule:evenodd;clip-rule:evenodd;fill:url(#SVGID_00000177457726866498550710000000676037724179762832_);}
</style>
<g id="Logo1">
</g>
<g id="Logo2">
</g>
<g id="Logo3">
</g>
<g id="Logo4">
</g>
<g id="Logo5">
</g>
<g id="Logo6">
</g>
<g id="Logo7">
</g>
<g id="Logo8">
</g>
<g id="Logo9">
</g>
<g id="Logo10">
</g>
<g id="Logo11">
</g>
<g id="Logo12">
</g>
<g id="Logo13">
</g>
<g id="Logo14">
</g>
<g id="Layer_15">
	<g>
		<path d="M262.9,151.62c-2.82-10.03-8.69-16.1-19.42-15.68c-6.88,0.27-14.68,4.51-16.83,15.46c-0.74,0-1.5,0-2.35,0
			c0-16.75,0-33.51,0-50.41c0.48-0.03,0.91-0.09,1.34-0.09c7.42-0.01,14.84,0,22.25-0.04c5.31-0.02,9.8,1.94,13.58,5.58
			c9.05,8.7,14.73,19.23,16.92,31.59c0.31,1.74,0.26,3.55,0.31,5.33c0.01,0.37-0.22,0.95-0.51,1.09
			C273.16,146.86,268.09,149.2,262.9,151.62z M241.8,106.11c0,5.89,0,11.66,0,17.44c8.73,0,17.4,0,26.34,0
			c-0.45-0.85-0.7-1.54-1.13-2.1c-2.63-3.39-5.23-6.81-7.98-10.09c-1.05-1.25-2.4-2.29-3.74-3.26
			C251.17,105.14,246.47,106.11,241.8,106.11z M71.4,110.01c4.36,0.32,8.73,0.58,13.08,0.96c5.53,0.49,11.05,1.05,16.56,1.65
			c8.14,0.9,16.09,2.83,24.01,4.83c4.56,1.15,9.13,2.11,13.88,2.11c15.08,0,30.15,0.08,45.23,0.12c2.23,0.01,4.45,0,6.68,0
			c9.69,0.01,19.38,0.01,29.06,0.04c0.96,0,1.25-0.34,1.24-1.28c-0.05-3.16-0.07-6.33,0.01-9.49c0.03-1.15-0.28-1.53-1.48-1.52
			c-8.59,0.04-17.19,0-25.78,0c-19.25,0.01-38.51,0.03-57.76,0.04c-11.26,0-22.53-0.13-33.79-0.01c-6.76,0.07-13.52,0.37-20.27,0.8
			c-3.61,0.23-7.19,0.96-10.79,1.46C71.33,109.82,71.36,109.92,71.4,110.01z M79,124.36c7.42,0.95,14.85,1.87,22.27,2.85
			c2.28,0.3,4.57,0.66,6.81,1.18c2.13,0.49,4.31,0.63,6.42,1.19c4.74,1.24,9.51,2.35,14.24,3.59c4.07,1.06,8.18,1.48,12.38,1.47
			c19.74-0.06,39.47-0.06,59.21-0.06c6.48,0,12.97,0,19.45,0.06c1.1,0.01,1.37-0.33,1.35-1.38c-0.06-3.12-0.02-6.24-0.03-9.36
			c0-0.39-0.04-0.79-0.07-1.27c-0.51-0.03-0.94-0.08-1.38-0.08c-3-0.02-6-0.05-9-0.05c-19.05,0.02-38.1,0.11-57.15,0.06
			c-10.25-0.03-20.5-0.38-30.75-0.39c-9.44-0.01-18.88,0.08-28.3,0.45c-5.19,0.2-10.36,1.08-15.54,1.66
			C78.94,124.29,78.97,124.32,79,124.36z M159.31,151.12c1.21-5.46,4.04-9.75,8.95-12.58c0.25-0.14,0.38-0.49,0.68-0.89
			c-0.44-0.07-0.63-0.13-0.82-0.13c-14.39-0.12-28.77-0.33-43.16-0.31c-7.21,0.01-14.41,0.39-21.62,0.71
			c-2.83,0.13-5.65,0.57-8.31,0.85c21.16,4.85,42.39,9.87,64.23,12.43C159.23,151.26,159.29,151.19,159.31,151.12z M191.73,154.28
			c0.09,8.83-6.65,14.09-13.33,14.35c-9.36,0.36-15.43-6.33-15.52-14.42c-0.09-7.79,6.62-14.46,14.68-14.41
			C185.63,139.86,191.63,145.7,191.73,154.28z M177.51,160.78c2.95,0.12,6.64-2.08,6.49-6.24c-0.14-3.94-2.73-6.71-6.58-6.77
			c-3.53-0.05-6.46,2.91-6.45,6.5C170.99,157.99,173.78,160.77,177.51,160.78z M258.81,153.69c-0.04,8.11-6.19,14.52-13.9,14.48
			c-8.45-0.04-14.7-6.17-14.67-14.37c0.03-7.97,6.41-14.24,14.47-14.23C252.6,139.58,258.84,145.83,258.81,153.69z M237.83,153.99
			c0,1.77,0.61,3.53,2.02,4.62c1.23,0.95,2.7,2.16,4.1,2.21c4.26,0.17,7.48-2.99,7.47-6.8c0-3.79-3.06-6.8-6.9-6.79
			C240.64,147.24,237.82,150.09,237.83,153.99z M185.15,137.82c0.66,0.35,1.37,0.64,1.98,1.07c1.15,0.81,2.35,1.58,3.33,2.57
			c2.38,2.39,3.68,5.39,4.48,8.62c0.18,0.74,0.49,1.06,1.31,1.06c7.78,0,15.56,0.02,23.34,0.08c1.1,0.01,1.52-0.4,1.51-1.49
			c-0.02-3.61-0.02-7.21,0.07-10.82c0.03-1.17-0.32-1.51-1.5-1.5c-11.1,0.05-22.21,0.03-33.31,0.04c-0.38,0-0.77,0.08-1.15,0.12
			C185.19,137.64,185.17,137.73,185.15,137.82z"/>
		<path class="st112" d="M174.64,104.01c0.89-2.92,2.42-5.31,4.17-7.54c5.03-6.4,11.77-9.75,19.75-10.68
			c5.03-0.59,10.1-0.81,15.11-1.46c7.83-1.01,15.04-3.57,20.88-9.17c0.1-0.1,0.25-0.15,0.73-0.43c-0.82,2.16-1.49,4.01-2.24,5.83
			c-2.78,6.73-6.54,12.76-12.54,17.13c-5.58,4.07-11.93,6.05-18.74,6.25c-8.7,0.26-17.42,0.15-26.13,0.2
			C175.36,104.14,175.09,104.07,174.64,104.01z M268.9,106.7c0.02-2.46-0.07-4.93-0.27-7.38c-0.39-4.92-1.21-9.81-2.49-14.6
			c-1.28-4.78-3.03-9.46-5.28-13.91c-1.12-2.22-2.37-4.39-3.74-6.48c-1.37-2.09-2.87-4.1-4.47-6.02c-1.61-1.92-3.31-3.76-5.14-5.49
			c-1.82-1.73-3.74-3.35-5.73-4.88c-2-1.52-4.09-2.92-6.23-4.24c-1.08-0.63-2.16-1.29-3.27-1.87l-0.83-0.45
			c-0.28-0.15-0.55-0.3-0.84-0.44l-1.69-0.84c-4.52-2.19-9.24-3.96-14.04-5.41c-0.6-0.18-1.21-0.34-1.81-0.51
			c-0.6-0.17-1.21-0.35-1.81-0.5l-1.82-0.45c-0.61-0.15-1.21-0.31-1.84-0.44c-2.48-0.55-5-0.96-7.54-1.23
			c-5.07-0.54-10.23-0.51-15.32,0.14c-2.54,0.31-5.09,0.81-7.54,1.38c-2.47,0.57-4.92,1.25-7.34,2.03
			c-2.42,0.77-4.82,1.64-7.17,2.63c-0.59,0.24-1.18,0.49-1.76,0.75l-1.75,0.79c-1.15,0.57-2.31,1.1-3.43,1.72
			c-2.28,1.17-4.48,2.51-6.64,3.9l-1.6,1.08c-0.27,0.18-0.54,0.36-0.8,0.55l-0.78,0.57l-1.56,1.15l-1.51,1.21
			c-8.07,6.47-14.71,14.79-19.5,24c-2.4,4.61-4.34,9.43-5.88,14.36c-1.54,4.93-2.67,9.97-3.49,15.03l9.88,1.35
			c0.56-4.66,1.4-9.28,2.59-13.78c1.2-4.51,2.75-8.9,4.72-13.1c1.96-4.2,4.33-8.2,7.09-11.92c1.36-1.87,2.87-3.64,4.42-5.36
			c0.39-0.43,0.8-0.84,1.2-1.26l0.61-0.63c0.2-0.21,0.4-0.42,0.62-0.62l1.27-1.2c0.21-0.2,0.42-0.41,0.64-0.6l0.66-0.57l1.32-1.15
			l1.36-1.1l0.68-0.55c0.23-0.18,0.47-0.35,0.7-0.53l1.41-1.04c1.92-1.34,3.87-2.65,5.91-3.81c1-0.61,2.06-1.14,3.09-1.71l1.58-0.79
			c0.52-0.27,1.06-0.52,1.6-0.76c2.14-1.01,4.33-1.91,6.56-2.72c2.23-0.82,4.49-1.55,6.78-2.18c2.31-0.64,4.57-1.18,6.89-1.57
			c4.63-0.79,9.37-1.02,14.08-0.72c2.36,0.15,4.71,0.43,7.05,0.85c0.58,0.09,1.17,0.22,1.76,0.34l1.77,0.36
			c0.59,0.12,1.17,0.27,1.76,0.4c0.58,0.14,1.17,0.27,1.76,0.42c4.66,1.19,9.24,2.7,13.64,4.61l1.64,0.74
			c0.28,0.12,0.55,0.25,0.81,0.38l0.81,0.4c1.09,0.51,2.14,1.09,3.2,1.65c2.09,1.17,4.14,2.43,6.12,3.8
			c1.96,1.38,3.86,2.86,5.68,4.44c1.81,1.58,3.52,3.28,5.15,5.06c1.62,1.78,3.14,3.66,4.55,5.62c1.41,1.96,2.7,4.01,3.89,6.12
			c2.37,4.23,4.28,8.73,5.74,13.38c1.46,4.65,2.48,9.45,3.07,14.31c0.3,2.43,0.49,4.87,0.57,7.33c0.08,2.45,0.07,4.91-0.15,7.36
			C268.75,111.62,268.87,109.16,268.9,106.7z"/>
	</g>
</g>
</svg>
