<?xml version="1.0" encoding="utf-8"?>
<!-- Generator: Adobe Illustrator 27.8.1, SVG Export Plug-In . SVG Version: 6.00 Build 0)  -->
<svg version="1.1" xmlns="http://www.w3.org/2000/svg" xmlns:xlink="http://www.w3.org/1999/xlink" x="0px" y="0px"
	 viewBox="0 0 350 230" style="enable-background:new 0 0 350 230;" xml:space="preserve">
<style type="text/css">
	.st0{fill:#003799;}
	.st1{fill:#630000;}
	.st2{fill-rule:evenodd;clip-rule:evenodd;fill:#037FE1;}
	.st3{fill-rule:evenodd;clip-rule:evenodd;}
	.st4{fill-rule:evenodd;clip-rule:evenodd;fill:#562900;}
	.st5{fill-rule:evenodd;clip-rule:evenodd;fill:#00184C;}
	.st6{fill-rule:evenodd;clip-rule:evenodd;fill:#2C2C5B;}
	.st7{fill-rule:evenodd;clip-rule:evenodd;fill:#007C89;}
	.st8{fill:#C97C00;}
	.st9{fill:#7A6B00;}
	.st10{fill-rule:evenodd;clip-rule:evenodd;fill:#022B18;}
	.st11{fill-rule:evenodd;clip-rule:evenodd;fill:#03113F;}
	.st12{fill:#273F02;}
	.st13{fill:url(#SVGID_1_);}
	.st14{fill:#B62126;}
	.st15{fill:#231F20;}
	.st16{fill:#FFFFFF;}
	.st17{fill:#17629D;}
	.st18{fill:#540159;}
	.st19{fill:#66082A;}
	.st20{fill:#005C68;}
	.st21{fill:#FFFCE1;}
	.st22{fill:#ECFFE3;}
	.st23{fill:#E3FFFF;}
	.st24{fill:#E3FFF0;}
	.st25{fill:#FFFAD7;}
	.st26{fill:#F4FCD4;}
	.st27{fill:#F5FFE3;}
	.st28{fill:#E3FFEA;}
	.st29{fill:#E0DCC6;}
	.st30{fill:#FCF4B9;}
	.st31{fill:#FFFBD2;}
	.st32{fill:#E3F4FF;}
	.st33{fill:#563900;}
	.st34{fill:#E2FFD7;}
	.st35{fill:#FFFFCC;}
	.st36{fill:#ECFFCF;}
	.st37{fill:#F0F9E1;}
	.st38{fill:#F7F7E2;}
	.st39{fill:#F9D6AC;}
	.st40{fill:#E2F7F3;}
	.st41{fill:#FFF7D2;}
	.st42{fill:#66BFE6;}
	.st43{fill:url(#SVGID_00000153670283156093288740000015742814752685722538_);}
	.st44{fill:url(#SVGID_00000086683243757055525830000000247340519331165338_);}
	.st45{fill:url(#SVGID_00000126304919685486198490000012656773976846114190_);}
	.st46{fill:url(#SVGID_00000118381413228719616780000017931273636653078689_);}
	.st47{fill:url(#SVGID_00000092440424572391753570000014114453461640144019_);}
	.st48{fill:url(#SVGID_00000164483122587531425110000003447357821742310030_);}
	.st49{fill:#AEAEB6;}
	.st50{fill:url(#SVGID_00000160166461605602175760000009715846192886971280_);}
	.st51{fill:url(#SVGID_00000020361271907194188670000012213018458874867620_);}
	.st52{fill:url(#SVGID_00000142154562298217053990000012438072906053924779_);}
	.st53{fill:url(#SVGID_00000171692905244147970600000016362336899228782739_);}
	.st54{filter:url(#Adobe_OpacityMaskFilter);}
	.st55{filter:url(#Adobe_OpacityMaskFilter_00000011737016324851791410000005039797308714740146_);}
	
		.st56{mask:url(#SVGID_00000121261091255017111730000001523167161919418033_);fill:url(#SVGID_00000063622456209990314970000002699912358926852235_);}
	.st57{fill:url(#SVGID_00000001626282631248316150000006717625968990651781_);}
	.st58{filter:url(#Adobe_OpacityMaskFilter_00000139984975157997269630000003459234337468206977_);}
	.st59{filter:url(#Adobe_OpacityMaskFilter_00000021830535612289266240000000435441329769480583_);}
	
		.st60{mask:url(#SVGID_00000127014124601820919820000004171082929143013278_);fill:url(#SVGID_00000059997832724275606620000004234420857805465260_);}
	.st61{fill:url(#SVGID_00000132775685862267637660000014666579456241781677_);}
	.st62{fill:url(#SVGID_00000029728014126529621540000006619771090832115857_);}
	.st63{fill:url(#SVGID_00000010291044084187988040000000202284791428932492_);}
	.st64{fill:url(#SVGID_00000123428563043197425140000011013902337500086968_);}
	.st65{fill:url(#SVGID_00000072972611453800637620000014548000746197442718_);}
	.st66{fill:url(#SVGID_00000120549985290082507120000010054147358258030777_);}
	.st67{opacity:0.5;fill:url(#SVGID_00000105405138352749560560000014899459295389989508_);enable-background:new    ;}
	.st68{fill:url(#SVGID_00000039842490020492631790000016270696337175114380_);}
	.st69{fill:url(#SVGID_00000044872376214288778070000011966699514351348665_);}
	.st70{fill:url(#SVGID_00000163059911113300709140000004090244072527457425_);}
	.st71{fill:#3E2770;}
	.st72{fill:#010100;}
	.st73{fill:#0E2C31;}
	.st74{fill:url(#SVGID_00000064314487286541456670000009420636851166933897_);}
	.st75{fill:#FEFEFE;}
	.st76{fill:#CF0F0E;}
	.st77{fill:#272525;}
	.st78{fill:#0C4352;}
	.st79{fill:#2CAFB7;}
	.st80{fill:#A38F7E;}
	.st81{fill:#EA0314;}
	.st82{fill:#0E1D33;}
	.st83{fill:url(#SVGID_00000092438754798955797320000004265504439888891547_);}
	.st84{fill:url(#SVGID_00000013151076843347125010000010182546007707385534_);}
	.st85{fill:url(#SVGID_00000090254160192233680860000007339648647998705589_);}
	.st86{fill:#FF0000;}
	.st87{fill-rule:evenodd;clip-rule:evenodd;fill:#FF0202;}
	.st88{fill:none;}
	.st89{fill:#C41111;}
	.st90{fill:#435107;}
	.st91{fill:#848484;}
	.st92{fill:#8AA80C;}
	.st93{fill:#9ECE09;}
	.st94{fill:#B27953;}
	.st95{fill:#1C1C1A;}
	.st96{fill:#899EAA;}
	.st97{fill:#393B6D;}
	.st98{fill:#00B2D2;}
	.st99{fill:#037FE1;}
	.st100{fill:#474747;}
	.st101{fill:url(#SVGID_00000147183710326940857730000002220596497982841006_);}
	.st102{fill:url(#SVGID_00000077308943440041203510000015323819290409910164_);}
	.st103{fill:#00184C;}
	.st104{fill:url(#SVGID_00000181045963091918753240000017508892721639998399_);}
	.st105{fill:#8C8C8C;}
	.st106{fill:#B20808;}
	.st107{fill:#B65534;}
	.st108{fill:#222021;}
	.st109{fill:#00D5EC;}
	.st110{fill:url(#SVGID_00000030489076775507723820000004634397959070723734_);}
	.st111{fill:url(#SVGID_00000046333556430093335410000010687932995520855701_);}
	.st112{fill:#FFEC00;}
	.st113{fill:url(#SVGID_00000162330651759533081100000009478404575292646827_);}
	.st114{fill:url(#SVGID_00000158735708442002460580000004688930682189508286_);}
	.st115{fill:url(#SVGID_00000160189879693347248420000015713853028180585662_);}
	.st116{fill:#227D8D;}
	.st117{fill:#132A45;}
	.st118{fill:url(#SVGID_00000064352612459346865180000006474574502419047564_);}
	.st119{fill:#EA004E;}
	.st120{fill:url(#SVGID_00000095303095724185930570000009550001241131430333_);}
	.st121{fill:url(#SVGID_00000045605037326138879100000005627162240855462272_);}
	.st122{fill:url(#SVGID_00000164511252696856730380000001410414231765385612_);}
	.st123{fill:#606060;}
	.st124{fill:url(#SVGID_00000176006116433035006340000014342304363521655953_);}
	.st125{fill:url(#SVGID_00000118397031385450333130000003210834564418719872_);}
	.st126{fill:url(#SVGID_00000059999161824117622630000005894529337298207875_);}
	.st127{fill:url(#SVGID_00000091695188493820496750000006554380864968478880_);}
	.st128{fill:url(#SVGID_00000145763756398147110730000000007014557578111923_);}
	.st129{fill:url(#SVGID_00000104675828798817798300000003108137219943042742_);}
	.st130{fill:url(#SVGID_00000126301651196897230040000016324979139753307808_);}
	.st131{fill:url(#SVGID_00000019672890855039351530000017557754653005741733_);}
	.st132{fill-rule:evenodd;clip-rule:evenodd;fill:#BD3E8C;}
	.st133{fill-rule:evenodd;clip-rule:evenodd;fill:url(#SVGID_00000111152583870663673940000013001972098389731487_);}
	.st134{fill-rule:evenodd;clip-rule:evenodd;fill:url(#SVGID_00000003091845719766453000000002243771295054481567_);}
</style>
<g id="Logo1">
</g>
<g id="Logo2">
</g>
<g id="Logo3">
</g>
<g id="Logo4">
</g>
<g id="Logo5">
</g>
<g id="Logo6">
</g>
<g id="Logo7">
</g>
<g id="Logo8">
</g>
<g id="Logo9">
</g>
<g id="Logo10">
</g>
<g id="Logo11">
</g>
<g id="Logo12">
</g>
<g id="Logo13">
</g>
<g id="Logo14">
</g>
<g id="Layer_15">
	<path class="st96" d="M182.44,107.22c0.24,2.43,0.72,4.74,1.39,6.88l-1.16,0.01c0,0-2.86-6.47-2.75-12.23
		c0.1-5.76,1.82-13.81,6.45-18.4c4.63-4.59,11.18-2.37,14.87,2.06c0.61,0.73,1.2,1.64,1.76,2.65c-2.64-2.82-5.81-4.36-9.06-4.04
		C186.42,84.88,181.27,95.21,182.44,107.22z M128.94,57.31l-51.09,5.99l49.58-3.85L128.94,57.31z M206.71,104.83
		c1.08,11.04-3.18,20.48-9.5,21.1c-6.32,0.62-12.32-7.83-13.4-18.87c-1.08-11.04,3.18-20.48,9.5-21.1
		C199.64,85.35,205.64,93.8,206.71,104.83z M201.71,119.16c-0.6,0.24-1.23,0.39-1.89,0.45c-5.28,0.47-10.23-5.32-11.04-12.92
		c-0.82-7.61,2.81-14.15,8.09-14.62c1.07-0.09,2.12,0.07,3.13,0.45c-1.65-1.4-3.52-2.12-5.43-1.93c-5.3,0.52-8.92,7.79-8.1,16.25
		c0.82,8.46,5.79,14.9,11.08,14.38C199.11,121.06,200.51,120.33,201.71,119.16z M198.94,93.24c-0.64-0.14-1.3-0.19-1.96-0.14
		c-4.88,0.43-8.23,6.48-7.48,13.52c0.75,7.03,5.32,12.38,10.21,11.95c0.4-0.04,0.79-0.11,1.17-0.22c-4.44-0.31-8.4-5.33-9.09-11.79
		C191.05,99.72,194.24,93.83,198.94,93.24z M204.16,105.2c-0.34-5.42-2.89-9.67-5.7-9.5c-2.81,0.18-4.82,4.71-4.48,10.13
		c0.34,5.42,2.89,9.67,5.7,9.5C202.5,115.16,204.5,110.63,204.16,105.2z M225.16,93.6c-0.01,0.21-0.04,0.41-0.08,0.61
		c0.65-0.74,1.07-1.71,1.13-2.8l0.43-8.24c0.17-3.22-1.95-6.02-4.75-6c-2.16,0.02-3.88,1.71-4.45,3.96c0.84-1.07,2.03-1.76,3.4-1.77
		c2.8-0.02,4.92,2.77,4.75,6L225.16,93.6z M281.88,80.23c-0.26-0.35-0.52-0.71-0.8-1.08c-0.26-0.37-0.59-0.71-0.89-1.07
		c-0.59-0.74-1.3-1.41-2-2.11c-0.34-0.36-0.73-0.67-1.11-1c-0.38-0.32-0.76-0.65-1.14-0.97c-0.81-0.58-1.61-1.18-2.43-1.72
		c-0.85-0.5-1.66-1.01-2.47-1.46c-0.83-0.41-1.64-0.8-2.41-1.17c-0.77-0.35-1.54-0.6-2.22-0.88c-0.34-0.13-0.67-0.26-0.99-0.38
		c-0.31-0.13-0.63-0.19-0.91-0.28c-0.57-0.17-1.08-0.31-1.49-0.43c-0.82-0.24-1.29-0.38-1.29-0.38s0.46,0.17,1.26,0.47
		c0.4,0.15,0.89,0.33,1.45,0.54c0.28,0.11,0.58,0.2,0.88,0.35c0.3,0.14,0.62,0.29,0.95,0.45c0.66,0.32,1.39,0.63,2.12,1.03
		c0.72,0.42,1.48,0.86,2.27,1.32c0.76,0.5,1.52,1.06,2.3,1.6c0.75,0.58,1.48,1.22,2.21,1.84c0.34,0.34,0.68,0.68,1.02,1.01
		c0.34,0.34,0.69,0.66,0.98,1.03c0.62,0.72,1.23,1.4,1.74,2.14c0.26,0.37,0.54,0.7,0.76,1.07c0.23,0.36,0.45,0.72,0.67,1.06
		c0.23,0.34,0.39,0.7,0.58,1.03c0.18,0.34,0.37,0.65,0.51,0.98c0.15,0.32,0.29,0.63,0.42,0.92c0.13,0.29,0.23,0.58,0.34,0.84
		c0.22,0.53,0.35,1,0.48,1.38c0.11,0.39,0.2,0.69,0.23,0.87c0.02,0.1,0.04,0.18,0.05,0.23l-0.75-6.76
		C282.11,80.56,282,80.39,281.88,80.23z M213.47,82.29c-0.8-0.77-1.69-1.5-2.61-2.21c-0.94-0.69-1.91-1.36-2.93-1.95
		c-0.25-0.15-0.51-0.3-0.76-0.44l-0.78-0.41c-0.51-0.28-1.05-0.51-1.57-0.75c-1.05-0.47-2.12-0.86-3.16-1.2
		c-1.05-0.33-2.07-0.61-3.05-0.81c-0.24-0.05-0.48-0.11-0.72-0.16c-0.24-0.04-0.48-0.08-0.71-0.12c-0.46-0.07-0.91-0.16-1.34-0.21
		c-0.87-0.09-1.65-0.2-2.36-0.23c-0.7-0.04-1.32-0.09-1.82-0.08c-1.01-0.01-1.59-0.01-1.59-0.01s0.58,0.04,1.58,0.11
		c0.5,0.02,1.11,0.11,1.81,0.2c0.7,0.07,1.47,0.23,2.32,0.37c0.42,0.07,0.86,0.19,1.31,0.29c0.23,0.05,0.46,0.11,0.69,0.16
		c0.23,0.07,0.46,0.13,0.7,0.2c0.95,0.26,1.93,0.6,2.93,0.98c1,0.39,2,0.84,2.99,1.36c0.49,0.27,1,0.52,1.47,0.82l0.73,0.44
		c0.24,0.15,0.47,0.32,0.71,0.47c0.94,0.62,1.83,1.33,2.68,2.04c0.83,0.74,1.63,1.48,2.34,2.26c0.72,0.77,1.37,1.55,1.95,2.32
		c0.59,0.76,1.09,1.52,1.54,2.23c0.89,1.42,1.51,2.67,1.9,3.55c0.2,0.44,0.33,0.79,0.42,1.02c0.09,0.24,0.12,0.33,0.12,0.35
		l-0.38-5.46c-0.13-0.19-0.26-0.38-0.4-0.58c-0.53-0.72-1.12-1.49-1.79-2.26C215.01,83.83,214.28,83.05,213.47,82.29z M290.21,88.7
		c-0.14,2.66-0.27,4.69-0.27,4.69l-1.58,0.68l-0.05,0.62c-0.08,0.01-0.27,0.06-0.27,0.06s-0.18,0.07-0.53,0.2
		c-0.34,0.12-0.86,0.31-1.52,0.52c-0.67,0.22-1.48,0.46-2.42,0.73c-0.94,0.26-2.01,0.55-3.19,0.84c-0.59,0.14-1.2,0.29-1.84,0.44
		c-0.64,0.14-1.3,0.28-1.98,0.42c-1.35,0.31-2.8,0.54-4.29,0.83c-1.5,0.25-3.04,0.51-4.62,0.74c-1.58,0.2-3.18,0.46-4.79,0.62
		c-1.61,0.17-3.22,0.38-4.81,0.5c-1.59,0.12-3.16,0.3-4.67,0.37c-1.52,0.09-2.99,0.18-4.38,0.26c-1.39,0.05-2.71,0.1-3.93,0.14
		c-0.61,0.02-1.19,0.04-1.75,0.06c-0.56,0.01-1.08,0.01-1.58,0.02c-0.99,0.01-1.85,0.02-2.56,0.03c-1.42,0.01-2.23,0.02-2.23,0.02
		s0.81,0.02,2.23,0.06c0.71,0.02,1.57,0.04,2.56,0.07c0.49,0.01,1.02,0.03,1.58,0.04c0.56,0,1.14,0,1.75,0c1.22,0,2.54,0,3.94,0
		c1.4-0.03,2.87-0.07,4.4-0.1c1.53-0.02,3.1-0.14,4.7-0.2c1.6-0.06,3.22-0.21,4.85-0.32c1.63-0.1,3.24-0.3,4.84-0.45
		c1.6-0.17,3.16-0.38,4.68-0.57c1.51-0.24,2.98-0.42,4.36-0.68c0.69-0.12,1.36-0.24,2.02-0.36c0.65-0.13,1.28-0.26,1.88-0.38
		c1.2-0.24,2.3-0.5,3.27-0.73c0.97-0.24,1.82-0.46,2.51-0.66c0.7-0.2,1.23-0.36,1.62-0.49l-0.12,1.33
		c-0.07,0.01-0.14,0.03-0.21,0.06l-0.02,0.01c0,0-0.12,0.05-0.36,0.15c-0.22,0.1-0.58,0.24-1.02,0.41c-0.45,0.17-0.99,0.38-1.62,0.6
		c-0.63,0.23-1.35,0.46-2.13,0.72c-0.79,0.24-1.64,0.52-2.55,0.77c-0.91,0.27-1.87,0.52-2.88,0.78c-1,0.27-2.05,0.49-3.1,0.75
		c-1.06,0.23-2.15,0.45-3.23,0.68c-1.09,0.2-2.17,0.42-3.25,0.6c-1.08,0.17-2.14,0.34-3.16,0.5c-1.03,0.14-2.02,0.27-2.97,0.4
		c-0.95,0.12-1.84,0.2-2.67,0.3c-0.83,0.09-1.59,0.18-2.26,0.23c-0.67,0.05-1.26,0.1-1.74,0.14c-0.97,0.08-1.52,0.12-1.52,0.12
		s0.55-0.02,1.53-0.04c0.49-0.01,1.08-0.03,1.75-0.05c0.68-0.01,1.44-0.06,2.27-0.1c0.83-0.05,1.73-0.09,2.69-0.16
		c0.95-0.08,1.96-0.16,3-0.24c1.04-0.11,2.11-0.22,3.2-0.34c1.09-0.13,2.19-0.29,3.3-0.43c1.1-0.17,2.2-0.35,3.29-0.52
		c1.08-0.2,2.15-0.37,3.17-0.59c1.03-0.21,2.02-0.41,2.95-0.64c0.94-0.21,1.82-0.44,2.63-0.64c0.81-0.22,1.56-0.42,2.21-0.62
		c0.66-0.19,1.23-0.37,1.7-0.52c0.32-0.11,0.59-0.2,0.81-0.27l-0.11,1.3c-0.06,0.02-0.12,0.03-0.18,0.06l-0.01,0.01
		c0,0-0.08,0.04-0.23,0.11c-0.15,0.07-0.37,0.17-0.64,0.3c-0.56,0.25-1.38,0.61-2.38,1c-0.5,0.19-1.04,0.41-1.62,0.62
		c-0.58,0.22-1.19,0.44-1.82,0.66c-1.27,0.45-2.64,0.88-4.01,1.3c-0.69,0.2-1.38,0.4-2.06,0.6c-0.68,0.18-1.36,0.36-2.01,0.54
		c-0.66,0.16-1.29,0.32-1.89,0.46c-0.6,0.15-1.18,0.27-1.7,0.39c-1.05,0.24-1.94,0.41-2.56,0.53c-0.62,0.12-0.97,0.19-0.97,0.19
		s0.36-0.04,0.99-0.11c0.63-0.07,1.53-0.17,2.6-0.32c0.54-0.08,1.12-0.15,1.73-0.25c0.61-0.1,1.26-0.2,1.93-0.31
		c0.67-0.12,1.36-0.25,2.06-0.37c0.7-0.14,1.41-0.29,2.12-0.43c1.27-0.28,2.53-0.57,3.72-0.87l6.51-2c0.09-0.03,0.17-0.06,0.25-0.09
		l-0.07,0.82l-9.07,3.18c-3.79,1.36-10.24,2.89-19.02,3.66c-6.22,0.54-14.73,0.77-21.93,0.78l-7.11,0.47l-15.23,1.5
		c0,0-0.04,0.37-0.12,0.96c5.63,0.13,7.41,0.31,13.72,0.57c10.45,0.41,20.31,0.99,29.1,1.66c-1.84-2.32-2.77-4.87-2.77-4.87
		s11.29-1.32,13.77-1.69c2.48-0.37,9.88-2.3,9.88-2.3c0.3,3.72-2.59,8.45-3,9.1c-0.02,0.03-0.03,0.05-0.05,0.08
		c3.41-3.26,4.43-6.99,4.65-9.76l5.31-2.11c0,0,0.16,4.41-2.6,9.27c-1.2,2.11-2.4,3.43-3.54,4.28c0.72,0.08,1.43,0.16,2.11,0.24
		c5.09,2.81-2.88,4.29-2.88,4.29c-12.47,2.05-25.09,3.35-37.67,4.42c-25.73,2.18-51.8,3.01-77.53,0.45
		c-11.9-1.18-23.76-2.66-35.64-3.98c-5.15-0.57-10.34-1.23-15.4-2.43c-1.68-0.4-3.87-0.83-5.69-1.69c0,0-5.59-0.79-6.16-3.17
		c-0.13-0.57,0.85-1.14,2.34-1.66c-0.19-0.23-0.38-0.47-0.56-0.73c-8.82-10.51-5.8-27.61-5.8-27.61c0.43-3.72,2.08-7.21,4.37-9.47
		l-2.17,0.04c-2.32,2.75-3.83,6.76-3.83,10.85c0,4.24,0.47,7.64,1,10.15c-2.63-5.19-5.17-13.09-2.02-20.91l-34.15,0.61l75.17-3.51
		c0.06,0.44,0.14,0.85,0.2,1.18c0.11,0.51,0.18,0.85,0.18,0.85s0.06-0.34,0.15-0.86c0.07-0.35,0.16-0.78,0.27-1.23
		c0.86-0.05,2.38-0.14,4.39-0.25c0,0.78,0.07,1.53,0.12,2.1c0.07,0.6,0.12,1.01,0.12,1.01s0.08-0.39,0.21-0.99
		c0.14-0.59,0.33-1.37,0.6-2.1c0.01-0.03,0.02-0.05,0.03-0.08c1.26-0.06,2.68-0.14,4.22-0.21c0,0.02-0.01,0.04-0.01,0.06
		c-0.04,0.45-0.06,0.89-0.07,1.3c-0.01,0.41,0.01,0.79,0.01,1.12c0.04,0.65,0.06,1.08,0.06,1.08s0.11-0.42,0.27-1.04
		c0.1-0.31,0.19-0.67,0.32-1.05c0.13-0.38,0.27-0.77,0.44-1.15c0.05-0.13,0.11-0.25,0.17-0.38c1.4-0.06,2.89-0.13,4.45-0.19
		c-0.04,0.15-0.07,0.31-0.1,0.46c-0.09,0.46-0.16,0.92-0.21,1.35c-0.06,0.43-0.08,0.83-0.11,1.17c-0.03,0.34-0.03,0.63-0.04,0.83
		c-0.01,0.2-0.01,0.31-0.01,0.31s0.04-0.11,0.1-0.3c0.07-0.19,0.15-0.46,0.27-0.78c0.12-0.32,0.26-0.69,0.43-1.07
		c0.16-0.39,0.36-0.79,0.56-1.18c0.16-0.3,0.33-0.59,0.51-0.86c1.34-0.05,2.72-0.1,4.13-0.14c-0.09,0.28-0.17,0.55-0.25,0.84
		c-0.13,0.49-0.24,0.99-0.33,1.46c-0.09,0.46-0.15,0.9-0.2,1.27c-0.06,0.37-0.08,0.68-0.1,0.9c-0.02,0.22-0.04,0.34-0.04,0.34
		s0.05-0.12,0.12-0.32c0.08-0.2,0.18-0.49,0.33-0.83c0.15-0.34,0.32-0.74,0.52-1.15c0.2-0.41,0.42-0.85,0.67-1.26
		c0.24-0.42,0.5-0.82,0.76-1.18c0.03-0.04,0.05-0.07,0.08-0.11c1.27-0.04,2.57-0.07,3.87-0.1c-0.12,0.29-0.23,0.59-0.33,0.89
		c-0.17,0.5-0.31,1.01-0.43,1.49c-0.12,0.48-0.21,0.92-0.28,1.31c-0.08,0.38-0.12,0.7-0.16,0.93c-0.04,0.22-0.06,0.35-0.06,0.35
		s0.05-0.12,0.14-0.33c0.1-0.2,0.21-0.5,0.38-0.85c0.17-0.35,0.36-0.75,0.59-1.17c0.23-0.42,0.48-0.86,0.76-1.27
		c0.27-0.42,0.57-0.82,0.85-1.18c0.06-0.07,0.11-0.14,0.17-0.21c1.36-0.02,2.72-0.05,4.09-0.06c-0.1,0.19-0.21,0.38-0.3,0.58
		c-0.13,0.29-0.28,0.58-0.4,0.88c-0.12,0.3-0.25,0.59-0.35,0.89c-0.1,0.3-0.22,0.58-0.3,0.87c-0.09,0.28-0.17,0.56-0.25,0.82
		c-0.07,0.26-0.13,0.51-0.19,0.74c-0.13,0.45-0.19,0.84-0.25,1.11c-0.06,0.27-0.09,0.42-0.09,0.42s0.06-0.14,0.17-0.39
		c0.12-0.25,0.26-0.61,0.47-1.02c0.1-0.21,0.22-0.43,0.34-0.67c0.13-0.23,0.27-0.48,0.41-0.73c0.13-0.25,0.3-0.5,0.46-0.76
		c0.15-0.26,0.34-0.51,0.51-0.76c0.17-0.25,0.36-0.49,0.54-0.73c0.18-0.23,0.37-0.45,0.55-0.67c0.19-0.21,0.38-0.41,0.56-0.6
		c1.24-0.01,2.48-0.01,3.71,0c-0.12,0.18-0.24,0.37-0.36,0.56c-0.17,0.31-0.36,0.61-0.52,0.93c-0.16,0.32-0.33,0.63-0.46,0.95
		c-0.14,0.32-0.28,0.63-0.4,0.94c-0.11,0.31-0.23,0.61-0.33,0.89c-0.09,0.29-0.17,0.56-0.25,0.81c-0.17,0.49-0.25,0.92-0.33,1.21
		c-0.07,0.29-0.12,0.46-0.12,0.46s0.07-0.16,0.2-0.43c0.14-0.27,0.3-0.67,0.55-1.12c0.12-0.23,0.25-0.47,0.39-0.73
		c0.15-0.25,0.31-0.51,0.48-0.79c0.16-0.27,0.36-0.54,0.55-0.81c0.18-0.28,0.4-0.53,0.6-0.8c0.21-0.27,0.43-0.51,0.64-0.76
		c0.23-0.24,0.44-0.47,0.67-0.68c0.23-0.22,0.46-0.43,0.68-0.61c1.19,0.01,2.37,0.03,3.53,0.06c-0.19,0.25-0.37,0.5-0.56,0.75
		c-0.23,0.35-0.46,0.7-0.67,1.06c-0.2,0.37-0.42,0.72-0.6,1.09c-0.18,0.37-0.36,0.73-0.51,1.08c-0.15,0.36-0.29,0.7-0.42,1.03
		c-0.12,0.33-0.23,0.65-0.33,0.94c-0.21,0.58-0.32,1.08-0.42,1.42c-0.1,0.34-0.15,0.54-0.15,0.54s0.09-0.19,0.23-0.51
		c0.16-0.32,0.34-0.79,0.64-1.32c0.14-0.27,0.3-0.56,0.47-0.86c0.18-0.29,0.37-0.6,0.57-0.93c0.2-0.32,0.44-0.63,0.66-0.95
		c0.22-0.32,0.49-0.62,0.73-0.93c0.25-0.3,0.53-0.59,0.78-0.88c0.28-0.27,0.54-0.55,0.82-0.78c0.27-0.24,0.54-0.47,0.8-0.67
		c0.02-0.02,0.04-0.03,0.06-0.04c1.33,0.04,2.63,0.09,3.88,0.16c-0.15,0.15-0.29,0.31-0.44,0.46c-0.36,0.35-0.67,0.77-1,1.15
		c-0.32,0.39-0.6,0.82-0.9,1.23c-0.27,0.42-0.52,0.85-0.76,1.25c-0.23,0.42-0.42,0.83-0.62,1.21c-0.2,0.38-0.33,0.77-0.48,1.12
		c-0.14,0.35-0.28,0.66-0.36,0.96c-0.09,0.29-0.17,0.54-0.23,0.75c-0.13,0.41-0.2,0.65-0.2,0.65s0.1-0.23,0.29-0.62
		c0.09-0.2,0.2-0.43,0.33-0.71c0.12-0.28,0.3-0.56,0.48-0.89c0.19-0.32,0.36-0.68,0.61-1.02c0.24-0.35,0.48-0.72,0.75-1.09
		c0.29-0.36,0.58-0.73,0.89-1.09c0.33-0.34,0.65-0.71,1-1.04c0.36-0.32,0.69-0.66,1.07-0.95c0.18-0.15,0.37-0.29,0.55-0.43
		c0.19-0.13,0.37-0.26,0.56-0.39c0.22-0.16,0.44-0.3,0.66-0.43c1.38,0.16,2.69,0.33,3.94,0.51c11.04,1.61,20.58,8.39,25.8,18.13
		c0.25,0.89,0.65,1.69,1.16,2.36c1.03,1.35,2.49,2.19,4.1,2.17c2.86-0.03,5.23-2.72,5.44-6.2l0.48-7.99
		c0.04-0.33,0.06-0.67,0.06-1.02c-0.1-10.83-20.35-11.74-27.61-12.11c-6.57-0.33-16.05-0.26-25.23-0.06l0,0l-47.58,2.57l-0.01,0.11
		c0-0.04,0.01-0.08,0.01-0.11l-5.89,0.32l5.96-1.24c0.06-0.6,0.13-1.23,0.22-1.87l-12.6,3.16l-14.74-2.41c0,0,14.11-5.79,29.02-7.92
		c0.68-2.02,1.49-3.76,2.38-4.79l9.01-9.72L74.63,59.09l69.68-13.95c0,0,25.85-5.66,44.23-4.98l2.44,0.09
		c3.59,0.13,7.06,0.93,10.27,2.3c-0.57-0.04-1.17-0.08-1.8-0.11c-1.26-0.08-2.63-0.12-4.08-0.17c-1.45-0.02-2.98-0.08-4.56-0.05
		c-0.79,0-1.59,0.01-2.4,0.01c-0.81,0.02-1.63,0.05-2.46,0.07c-1.66,0.03-3.34,0.14-5.02,0.23c-0.84,0.04-1.68,0.1-2.51,0.18
		c-0.83,0.07-1.67,0.14-2.49,0.21c-1.65,0.14-3.26,0.35-4.83,0.52c-1.57,0.17-3.07,0.43-4.5,0.62c-1.43,0.19-2.77,0.45-4.01,0.66
		c-1.24,0.23-2.38,0.4-3.38,0.62c-1,0.21-1.87,0.4-2.59,0.56c-1.43,0.31-2.25,0.48-2.25,0.48s0.83-0.14,2.27-0.38
		c0.72-0.12,1.6-0.27,2.61-0.44c1.01-0.18,2.15-0.3,3.4-0.47c1.25-0.16,2.59-0.36,4.02-0.48c1.43-0.13,2.94-0.32,4.5-0.42
		c1.57-0.1,3.18-0.24,4.82-0.3c0.82-0.03,1.65-0.06,2.48-0.1c0.83-0.04,1.67-0.07,2.5-0.07c1.67-0.01,3.34-0.05,4.98-0.01
		c0.82,0.01,1.64,0.03,2.44,0.04c0.8,0.03,1.6,0.06,2.38,0.09c1.56,0.04,3.07,0.17,4.5,0.25c1.43,0.12,2.78,0.22,4.02,0.35
		c1.24,0.12,2.38,0.25,3.38,0.38c1.01,0.12,1.87,0.26,2.59,0.36c0.4,0.06,0.74,0.12,1.03,0.17c0.16,0.11,0.32,0.23,0.48,0.34
		c-0.53-0.05-1.1-0.11-1.73-0.15c-0.53-0.04-1.09-0.08-1.68-0.13c-0.59-0.03-1.21-0.07-1.86-0.1c-1.3-0.08-2.7-0.11-4.19-0.16
		c-1.49-0.01-3.05-0.07-4.67-0.03c-0.81,0.01-1.63,0.02-2.46,0.03c-0.83,0.03-1.67,0.06-2.52,0.09c-1.7,0.04-3.42,0.17-5.14,0.28
		l-1.29,0.08l-1.28,0.12c-0.85,0.08-1.71,0.16-2.55,0.24c-0.85,0.07-1.68,0.18-2.5,0.29c-0.82,0.1-1.64,0.21-2.44,0.31
		c-0.8,0.09-1.59,0.21-2.35,0.34c-0.77,0.12-1.52,0.24-2.25,0.36c-1.46,0.21-2.83,0.5-4.1,0.75c-1.26,0.26-2.43,0.46-3.45,0.7
		c-1.02,0.24-1.91,0.45-2.64,0.62c-1.46,0.35-2.3,0.54-2.3,0.54s0.84-0.16,2.32-0.44c0.74-0.14,1.63-0.31,2.66-0.51
		c1.03-0.2,2.2-0.35,3.47-0.55c1.27-0.19,2.65-0.42,4.12-0.57c0.73-0.08,1.48-0.17,2.25-0.26c0.77-0.09,1.55-0.18,2.35-0.24
		c0.8-0.07,1.61-0.13,2.44-0.2c0.82-0.07,1.66-0.14,2.5-0.18c0.84-0.04,1.69-0.09,2.54-0.13l1.28-0.06l1.28-0.03
		c1.71-0.04,3.42-0.09,5.11-0.06c0.84,0.01,1.68,0.01,2.5,0.02c0.82,0.03,1.64,0.05,2.44,0.08c1.6,0.03,3.15,0.16,4.61,0.23
		c1.46,0.12,2.85,0.2,4.12,0.34c0.64,0.06,1.25,0.12,1.83,0.18c0.58,0.07,1.13,0.13,1.64,0.2c1.03,0.12,1.92,0.26,2.66,0.36
		c0.73,0.11,1.31,0.2,1.69,0.27c0.39,0.07,0.6,0.11,0.6,0.11l0.03-0.2c0.16,0.15,0.31,0.3,0.47,0.46c-0.09-0.01-0.18-0.02-0.28-0.03
		c-0.78-0.07-1.72-0.17-2.8-0.25c-0.54-0.04-1.11-0.08-1.72-0.12c-0.61-0.03-1.24-0.07-1.91-0.1c-1.33-0.08-2.77-0.1-4.29-0.15
		c-1.52,0-3.13-0.05-4.79,0c-0.83,0.02-1.67,0.03-2.53,0.05c-0.85,0.02-1.72,0.07-2.59,0.11c-0.87,0.05-1.75,0.07-2.62,0.13
		c-0.88,0.07-1.76,0.13-2.64,0.2c-1.76,0.11-3.52,0.34-5.25,0.51c-0.43,0.05-0.86,0.09-1.29,0.14c-0.43,0.06-0.85,0.12-1.27,0.18
		c-0.84,0.12-1.68,0.23-2.5,0.35c-0.41,0.06-0.82,0.11-1.22,0.17c-0.4,0.07-0.8,0.14-1.19,0.21c-0.78,0.14-1.55,0.27-2.3,0.4
		c-0.74,0.14-1.47,0.24-2.17,0.4c-0.7,0.15-1.37,0.29-2.02,0.43c-1.29,0.29-2.48,0.51-3.52,0.78c-1.04,0.27-1.95,0.5-2.69,0.69
		c-1.49,0.39-2.34,0.61-2.34,0.61s0.86-0.18,2.37-0.51c0.75-0.16,1.67-0.36,2.71-0.58c1.05-0.22,2.25-0.4,3.54-0.63
		c0.65-0.11,1.33-0.23,2.03-0.35c0.7-0.12,1.43-0.2,2.18-0.3c0.75-0.1,1.52-0.2,2.3-0.3c0.39-0.05,0.79-0.1,1.19-0.16
		c0.4-0.04,0.81-0.08,1.22-0.12c0.82-0.08,1.65-0.16,2.49-0.24c0.42-0.04,0.85-0.08,1.27-0.12c0.43-0.03,0.86-0.06,1.29-0.09
		c1.73-0.1,3.47-0.25,5.23-0.28c0.88-0.03,1.75-0.06,2.62-0.09c0.87-0.03,1.74-0.01,2.61-0.02c0.86,0,1.72-0.02,2.56,0
		c0.84,0.02,1.68,0.04,2.5,0.06c1.64,0.03,3.22,0.14,4.73,0.2c1.5,0.12,2.92,0.19,4.22,0.33c0.65,0.06,1.28,0.12,1.87,0.18
		c0.59,0.07,1.15,0.13,1.68,0.19c1.06,0.12,1.97,0.25,2.73,0.36c0.75,0.11,1.34,0.2,1.73,0.27c0.4,0.07,0.61,0.11,0.61,0.11
		l0.09-0.53c0.22,0.27,0.44,0.54,0.65,0.82c-0.18-0.02-0.37-0.04-0.58-0.06c-0.8-0.07-1.76-0.17-2.86-0.25
		c-0.55-0.04-1.14-0.08-1.76-0.12c-0.62-0.03-1.27-0.06-1.95-0.1c-1.36-0.08-2.84-0.09-4.39-0.14c-1.56,0-3.2-0.03-4.9,0.02
		c-1.7,0.04-3.45,0.07-5.23,0.19c-0.89,0.05-1.79,0.09-2.69,0.15c-0.9,0.07-1.8,0.15-2.7,0.23c-1.81,0.12-3.6,0.37-5.37,0.57
		c-0.44,0.05-0.88,0.1-1.32,0.15c-0.44,0.07-0.87,0.13-1.3,0.2c-0.86,0.13-1.71,0.26-2.55,0.39c-0.42,0.06-0.83,0.13-1.25,0.19
		c-0.41,0.07-0.81,0.15-1.21,0.23c-0.8,0.15-1.58,0.3-2.35,0.45c-0.76,0.15-1.51,0.27-2.22,0.44c-0.71,0.17-1.4,0.33-2.06,0.48
		c-1.32,0.32-2.53,0.57-3.59,0.86c-1.06,0.3-1.98,0.55-2.74,0.77c-1.52,0.42-2.39,0.67-2.39,0.67s0.88-0.21,2.41-0.57
		c0.77-0.18,1.7-0.4,2.77-0.65c1.07-0.25,2.29-0.45,3.62-0.71c0.66-0.13,1.35-0.26,2.07-0.39c0.72-0.13,1.46-0.22,2.23-0.34
		c0.76-0.11,1.55-0.23,2.35-0.35c0.4-0.06,0.81-0.12,1.22-0.18c0.41-0.05,0.83-0.09,1.25-0.14c0.84-0.09,1.69-0.19,2.55-0.28
		c0.43-0.05,0.86-0.09,1.3-0.14c0.44-0.03,0.88-0.07,1.32-0.1c1.76-0.12,3.55-0.29,5.35-0.34c0.9-0.04,1.79-0.08,2.69-0.11
		c0.89-0.03,1.78-0.03,2.67-0.04c1.77-0.04,3.5,0,5.18,0.03c1.68,0.02,3.3,0.12,4.84,0.18c1.54,0.11,2.99,0.18,4.33,0.31
		c0.67,0.06,1.31,0.12,1.92,0.17c0.61,0.07,1.18,0.13,1.72,0.19c1.08,0.12,2.02,0.25,2.79,0.36c0.77,0.11,1.37,0.2,1.77,0.28
		c0.41,0.07,0.63,0.11,0.63,0.11l0.04-0.26c0.1,0.17,0.21,0.34,0.31,0.51c-0.09-0.01-0.16-0.02-0.25-0.03
		c-0.81-0.08-1.8-0.17-2.93-0.25c-1.13-0.08-2.41-0.16-3.8-0.21c-1.39-0.08-2.9-0.09-4.5-0.13c-0.8-0.01-1.62,0-2.45,0
		c-0.84,0.01-1.69-0.01-2.56,0.03c-1.74,0.06-3.53,0.09-5.36,0.22c-0.91,0.06-1.83,0.11-2.75,0.17c-0.92,0.08-1.84,0.17-2.76,0.25
		c-1.85,0.14-3.68,0.4-5.49,0.63c-1.81,0.2-3.57,0.54-5.29,0.81c-1.72,0.25-3.35,0.64-4.91,0.94c-0.78,0.16-1.54,0.31-2.26,0.47
		c-0.72,0.18-1.43,0.36-2.1,0.53c-1.34,0.35-2.58,0.63-3.66,0.94c-1.08,0.32-2.02,0.61-2.79,0.84c-1.55,0.46-2.43,0.73-2.43,0.73
		s0.89-0.23,2.46-0.63c0.78-0.2,1.73-0.44,2.82-0.72c1.09-0.27,2.34-0.5,3.69-0.79c0.68-0.14,1.38-0.29,2.11-0.44
		c0.73-0.14,1.49-0.25,2.27-0.38c1.56-0.24,3.2-0.56,4.92-0.74c1.71-0.2,3.48-0.47,5.28-0.59c1.8-0.15,3.63-0.34,5.47-0.41
		c0.92-0.05,1.84-0.1,2.75-0.14c0.91-0.02,1.83-0.04,2.73-0.06c1.81-0.06,3.59-0.02,5.31-0.01c0.86,0,1.71,0.04,2.53,0.07
		c0.83,0.03,1.64,0.05,2.42,0.1c1.57,0.1,3.06,0.17,4.43,0.3c1.37,0.11,2.62,0.24,3.73,0.36c1.11,0.12,2.07,0.25,2.86,0.36
		c0.79,0.11,1.41,0.21,1.82,0.28c0.06,0.01,0.11,0.02,0.17,0.03l0.68,1.19l-2.37-0.33c-1.77-0.24-8.45-0.67-16.6-0.6
		c-2.78,0.02-5.52,0.1-8.15,0.24c-4.95,0.25-10.16,0.93-15.07,1.96l-24.13,5.05l-5.53-17.09l-1.81,0.3l2.54,17.62l-17.8,4.43
		l-0.2,1.86l47.2-9.83c0.07-0.01,0.14-0.03,0.21-0.04l0,0c4.44-0.93,9.56-1.65,14.7-1.91c11.88-0.61,22.39,0.07,24.31,0.34
		c0,0,3.32,0.46,3.32,0.46l0.83,0.21c-0.3,0-0.6,0-0.9-0.01c-0.9,0-1.8-0.01-2.71-0.01c-0.91,0-1.82,0.05-2.73,0.08
		c-0.91,0.04-1.82,0.04-2.73,0.1c-0.91,0.07-1.81,0.13-2.7,0.2c-1.79,0.1-3.54,0.34-5.24,0.53c-1.7,0.17-3.33,0.47-4.87,0.73
		c-0.77,0.13-1.52,0.26-2.25,0.38c-0.72,0.16-1.41,0.32-2.08,0.46c-1.33,0.31-2.56,0.56-3.63,0.83c-1.07,0.3-1.99,0.57-2.76,0.79
		c-1.53,0.44-2.4,0.69-2.4,0.69s0.88-0.22,2.42-0.61c0.77-0.19,1.71-0.43,2.78-0.7c1.08-0.24,2.31-0.45,3.65-0.71
		c0.67-0.13,1.36-0.26,2.09-0.39c0.73-0.1,1.48-0.2,2.25-0.3c1.55-0.21,3.17-0.45,4.87-0.57c1.69-0.14,3.44-0.32,5.22-0.36
		c0.89-0.04,1.79-0.07,2.69-0.11c0.9-0.03,1.81-0.01,2.71-0.01c0.91,0.01,1.81-0.01,2.71,0.01c0.9,0.03,1.8,0.07,2.69,0.1
		c0.44,0.02,0.89,0.03,1.33,0.05c0.44,0.03,0.88,0.06,1.31,0.09c0.87,0.06,1.73,0.13,2.57,0.19c0.85,0.06,1.67,0.17,2.48,0.25
		c0.81,0.09,1.61,0.15,2.37,0.27c1.54,0.21,2.99,0.39,4.33,0.62c1.34,0.2,2.56,0.44,3.64,0.64c0.22,0.04,0.43,0.09,0.63,0.13
		c-0.86-0.1-1.74-0.21-2.66-0.28c-1.23-0.1-2.49-0.23-3.78-0.28c-0.64-0.04-1.29-0.07-1.94-0.11c-0.65-0.02-1.31-0.03-1.96-0.05
		c-1.31-0.05-2.62-0.02-3.91-0.01c-1.29-0.01-2.55,0.09-3.78,0.13c-1.23,0.03-2.4,0.17-3.52,0.26c-0.56,0.05-1.1,0.09-1.63,0.15
		c-0.52,0.07-1.03,0.13-1.52,0.19c-0.97,0.13-1.86,0.22-2.65,0.36c-0.78,0.14-1.47,0.26-2.03,0.36c-1.12,0.2-1.77,0.31-1.77,0.31
		s0.65-0.08,1.78-0.23c0.56-0.07,1.25-0.16,2.04-0.26c0.79-0.1,1.68-0.15,2.66-0.23c0.49-0.04,0.99-0.08,1.52-0.13
		c0.52-0.04,1.07-0.05,1.63-0.07c1.12-0.03,2.29-0.12,3.51-0.1c1.22,0.01,2.48-0.03,3.76,0.04c1.28,0.05,2.58,0.07,3.87,0.18
		c0.65,0.05,1.29,0.09,1.94,0.14c0.64,0.06,1.28,0.13,1.92,0.19c1.27,0.11,2.52,0.29,3.72,0.45c1.2,0.16,2.36,0.36,3.46,0.54
		c1.09,0.21,2.13,0.38,3.08,0.59c0.47,0.09,0.92,0.19,1.35,0.29c-0.14-0.02-0.27-0.04-0.4-0.05c-1.06-0.11-2.14-0.24-3.26-0.31
		c-0.55-0.04-1.11-0.08-1.68-0.12c-0.56-0.03-1.13-0.05-1.69-0.07c-1.13-0.07-2.26-0.05-3.37-0.07c-1.11-0.03-2.21,0.05-3.26,0.07
		c-1.06,0.01-2.08,0.12-3.04,0.18c-0.48,0.04-0.95,0.06-1.41,0.11c-0.45,0.05-0.89,0.11-1.31,0.15c-0.84,0.1-1.61,0.18-2.29,0.28
		c-0.68,0.11-1.27,0.21-1.75,0.29c-0.97,0.16-1.52,0.25-1.52,0.25s0.56-0.06,1.54-0.17c0.49-0.06,1.08-0.12,1.76-0.2
		c0.68-0.07,1.45-0.1,2.29-0.16c0.42-0.03,0.86-0.06,1.31-0.09c0.45-0.02,0.92-0.02,1.4-0.04c0.96-0.01,1.98-0.07,3.03-0.02
		c1.05,0.03,2.13,0.02,3.23,0.1c1.1,0.07,2.22,0.12,3.33,0.24c0.56,0.05,1.11,0.11,1.67,0.16c0.55,0.07,1.1,0.14,1.65,0.21
		c1.09,0.13,2.16,0.31,3.19,0.48c1.03,0.17,2.02,0.37,2.96,0.55c0.86,0.19,1.68,0.36,2.43,0.55c-0.55-0.07-1.1-0.13-1.66-0.17
		c-0.51-0.04-1.02-0.09-1.53-0.14c-0.51-0.03-1.03-0.05-1.55-0.08c-1.03-0.07-2.06-0.07-3.08-0.08c-1.02-0.03-2.02,0.04-2.98,0.06
		c-0.97,0.01-1.9,0.12-2.78,0.19c-0.44,0.04-0.87,0.07-1.28,0.11c-0.41,0.06-0.81,0.11-1.19,0.16c-0.76,0.11-1.47,0.19-2.08,0.3
		c-0.61,0.12-1.15,0.22-1.59,0.31c-0.88,0.17-1.38,0.27-1.38,0.27s0.51-0.07,1.4-0.19c0.44-0.06,0.98-0.13,1.6-0.22
		c0.62-0.08,1.32-0.11,2.09-0.18c0.38-0.03,0.78-0.06,1.19-0.09c0.41-0.02,0.84-0.02,1.28-0.04c0.88-0.01,1.8-0.07,2.76-0.03
		c0.96,0.03,1.95,0.02,2.95,0.11c1,0.07,2.02,0.12,3.03,0.25c0.51,0.05,1.01,0.11,1.52,0.16c0.5,0.07,1,0.15,1.5,0.22
		c0.99,0.13,1.96,0.33,2.9,0.5c0.93,0.18,1.83,0.39,2.68,0.58c0.42,0.11,0.82,0.2,1.22,0.3c-0.37-0.04-0.75-0.08-1.13-0.12
		c-0.46-0.04-0.93-0.06-1.39-0.09c-0.46-0.02-0.93-0.07-1.39-0.07c-0.46-0.01-0.92-0.01-1.38-0.02c-0.91-0.03-1.81,0.03-2.68,0.06
		c-0.87,0.01-1.7,0.12-2.5,0.2c-0.39,0.04-0.78,0.08-1.15,0.12c-0.37,0.06-0.73,0.12-1.07,0.17c-0.68,0.12-1.31,0.2-1.86,0.31
		c-0.55,0.13-1.03,0.24-1.42,0.33c-0.79,0.18-1.24,0.28-1.24,0.28s0.46-0.07,1.25-0.2c0.4-0.06,0.88-0.14,1.43-0.23
		c0.55-0.08,1.19-0.12,1.87-0.19c0.34-0.03,0.7-0.07,1.07-0.1c0.37-0.01,0.75-0.03,1.15-0.04c0.79-0.02,1.62-0.08,2.48-0.04
		c0.86,0.02,1.74,0.02,2.64,0.11c0.45,0.03,0.9,0.07,1.35,0.1c0.45,0.03,0.91,0.11,1.36,0.16c0.45,0.06,0.91,0.11,1.36,0.17
		c0.45,0.08,0.89,0.15,1.34,0.23c0.89,0.13,1.75,0.35,2.58,0.52c0.76,0.18,1.48,0.36,2.17,0.55c-0.87-0.07-1.76-0.11-2.64-0.13
		c-0.49-0.01-0.99,0.01-1.48,0.01c-0.49,0.03-0.98,0.04-1.46,0.08c-0.97,0.08-1.91,0.18-2.82,0.33c-0.91,0.15-1.78,0.33-2.6,0.53
		c-0.41,0.11-0.8,0.21-1.19,0.32c-0.38,0.12-0.74,0.24-1.09,0.35c-0.7,0.23-1.32,0.47-1.88,0.69c-0.54,0.24-1.03,0.43-1.41,0.62
		c-0.77,0.38-1.2,0.59-1.2,0.59s0.45-0.19,1.23-0.52c0.39-0.16,0.88-0.32,1.44-0.53c0.56-0.18,1.2-0.39,1.9-0.57
		c0.35-0.09,0.72-0.18,1.1-0.28c0.38-0.08,0.78-0.16,1.19-0.24c0.82-0.15,1.68-0.28,2.58-0.37c0.9-0.09,1.83-0.14,2.78-0.16
		c0.47-0.01,0.95,0.01,1.43,0.01c0.48,0.03,0.96,0.04,1.44,0.08c0.96,0.07,1.91,0.17,2.85,0.32c0.93,0.13,1.85,0.32,2.72,0.51
		c0.87,0.2,1.72,0.41,2.5,0.65c0.79,0.23,1.53,0.48,2.2,0.72c1.35,0.48,2.44,0.96,3.18,1.32c0.37,0.18,0.66,0.32,0.85,0.42
		c0.19,0.1,0.28,0.15,0.28,0.15l0.03,0.01c0.02,0.01,0.03,0.02,0.05,0.02c0.25,0.12,1.18,0.1,0.99-0.13
		c0.11-0.09-2.14-2.4-2.54-2.55c-0.86-0.71-1.78-1.37-2.72-1.98c-6.49-4.2-14.14-7.08-21.77-9.17c0-0.01,0.01-0.02,0.02-0.04
		c0.02-0.07,0.02-0.14,0.02-0.21c0-0.28,21.54,0.48,24.12,0.69c5.37,0.43,11.19,1.05,16.26,2.89c4.28,1.55,7.32,4.65,7.9,9.26
		c0,0.02,0,0.04,0.01,0.06c0.01,0.09,0.01,0.15,0.01,0.15c0.03,0.29,0.04,0.58,0.02,0.88l-0.39,7.52c-0.05,1-0.44,1.88-1.03,2.56
		c0.03-0.18,0.06-0.37,0.07-0.56l0.39-7.52c0.15-2.94-1.78-5.49-4.33-5.47c-1.25,0.01-2.33,0.64-3.1,1.62
		c0.52-2.05,2.09-3.6,4.06-3.61c0.13,0,0.26,0.01,0.38,0.02c-2.31-2.29-5.14-3.49-8.23-4.3c-0.75-0.21-1.55-0.38-2.37-0.57
		c-0.83-0.16-1.68-0.36-2.56-0.5c-0.87-0.15-1.76-0.31-2.65-0.42c-0.89-0.12-1.78-0.25-2.66-0.33c-0.88-0.09-1.74-0.2-2.58-0.25
		c-0.84-0.06-1.65-0.12-2.41-0.17c-0.77-0.03-1.49-0.06-2.16-0.09c-0.67-0.04-1.28-0.05-1.83-0.05c-0.54-0.01-1.02-0.01-1.41-0.02
		c-0.78-0.01-1.23-0.02-1.23-0.02s19.87,6.3,24.3,19.82c0.27,0.83,0.6,1.51,0.98,2.05c0.86,2.11,2.66,3.54,4.7,3.52
		C287.76,91.32,289.28,90.29,290.21,88.7z M109.42,113.62c1.71-0.01,3.3-0.89,4.61-2.37c-0.86,0.59-1.81,0.93-2.8,0.93
		c-4.21,0.04-7.67-5.72-7.73-12.87c-0.06-7.14,3.3-12.96,7.5-13c0.71-0.01,1.4,0.16,2.06,0.46c-1.17-1.01-2.5-1.57-3.9-1.56
		c-4.66,0.04-8.38,6.43-8.31,14.28C100.92,107.34,104.76,113.66,109.42,113.62z M112.99,108.18c2.57-0.02,4.62-4.06,4.57-9.01
		c-0.04-4.95-2.16-8.95-4.73-8.93c-2.57,0.02-4.62,4.06-4.57,9.01C108.31,104.2,110.42,108.2,112.99,108.18z M105.89,99.08
		c-0.05-6.07,2.64-11.09,6.14-11.75c-0.25-0.04-0.5-0.06-0.75-0.06c-3.86,0.03-6.94,5.33-6.89,11.82c0.06,6.5,3.23,11.73,7.09,11.7
		c0.25,0,0.5-0.03,0.75-0.08C108.72,110.12,105.94,105.15,105.89,99.08z M123.42,98.47c-0.1-11.35-5.96-20.5-13.09-20.44
		c-4.07,0.04-7.67,3.07-9.99,7.77c2.06-2.82,4.74-4.54,7.69-4.56c6.63-0.06,12.07,8.45,12.16,19c0.08,9.25-3.98,16.99-9.45,18.8
		c0.28,0.03,0.55,0.04,0.82,0.05C118.28,118.3,123.51,109.35,123.42,98.47z M161.43,111.14l-30.06-3.82c0,0-0.67-1.26-1.86-2.59
		l-1.13-0.11c-0.32,1.63-0.91,3.88-2.01,6.76c1.82-0.15,3.65-0.28,5.47-0.37C141.67,110.54,151.51,110.91,161.43,111.14z
		 M189.39,127.56L189.39,127.56C189.4,127.56,189.4,127.56,189.39,127.56L189.39,127.56z M209.78,105.88l-0.67-5.03l-0.18-0.81
		c-0.71-3.02-1.79-5.77-3.16-8.1c-1.2-2.88-2.69-5.87-4.32-7.73c-3.98-4.57-11.03-6.85-16.01-2.12c-4.98,4.73-6.83,13.04-6.95,18.98
		c-0.07,3.86,1.19,8.02,2.09,10.47l1.3,3c0.44,0.03,0.9,0.06,1.38,0.06c-0.12,0,4.19,8.39,5.01,9.24c2.77,2.9,5.98,3.63,9.86,3.63
		c0.99-0.13,1.91-0.32,2.79-0.56C206.66,124.35,210.37,115.81,209.78,105.88z M275.19,91.35c-0.36-2.68-1.82-6.85-3.68-9.43
		c-1.86-2.58-6.56-3.54-12.68-3.99c-6.12-0.45-16.23,0.9-18.97,3.35c-0.17,0.15-0.32,0.29-0.46,0.43c-0.03,0.03-0.06,0.07-0.1,0.1
		c-0.21,0.21-0.38,0.4-0.53,0.58c-0.11,0.17-0.19,0.36-0.24,0.54c0.1-0.04,0.21-0.07,0.33-0.11c0.43-0.14,0.95-0.3,1.55-0.48
		c0.6-0.17,1.27-0.37,2.02-0.55c0.74-0.2,1.55-0.37,2.41-0.55c0.43-0.1,0.87-0.17,1.32-0.25c0.45-0.08,0.91-0.17,1.39-0.25
		c0.47-0.07,0.95-0.13,1.44-0.2c0.24-0.03,0.49-0.07,0.73-0.1c0.25-0.03,0.5-0.05,0.75-0.07c0.5-0.05,1-0.1,1.5-0.15
		c0.5-0.05,1.01-0.06,1.52-0.09c0.51-0.02,1.01-0.06,1.52-0.07c0.51,0,1.01,0,1.51,0c0.5,0.01,0.99-0.02,1.48,0.02
		c0.49,0.03,0.97,0.05,1.45,0.08c0.47,0.03,0.94,0.03,1.4,0.09c0.45,0.05,0.9,0.1,1.33,0.15c0.43,0.05,0.85,0.1,1.26,0.14
		c0.4,0.07,0.79,0.14,1.17,0.21c0.75,0.14,1.43,0.25,2.03,0.38c0.6,0.15,1.12,0.29,1.55,0.39c0.86,0.22,1.34,0.34,1.34,0.34
		s-0.49-0.1-1.36-0.27c-0.43-0.09-0.96-0.19-1.56-0.31c-0.6-0.1-1.29-0.17-2.04-0.27c-0.37-0.05-0.76-0.1-1.17-0.15
		c-0.41-0.03-0.82-0.05-1.26-0.08c-0.43-0.03-0.87-0.05-1.33-0.08c-0.45-0.04-0.92-0.01-1.39-0.02c-0.47,0-0.95,0-1.43,0
		c-0.48-0.01-0.97,0.04-1.47,0.06c-0.49,0.03-0.99,0.05-1.49,0.08c-0.5,0.04-1,0.1-1.49,0.15c-0.5,0.06-1,0.09-1.49,0.17
		c-0.49,0.07-0.98,0.15-1.47,0.22c-0.24,0.04-0.49,0.07-0.73,0.11c-0.24,0.05-0.48,0.09-0.71,0.14c-0.47,0.09-0.94,0.18-1.4,0.27
		c-0.46,0.1-0.9,0.21-1.34,0.31c-0.44,0.1-0.87,0.2-1.28,0.32c-0.83,0.22-1.61,0.43-2.32,0.66c-0.72,0.21-1.36,0.44-1.94,0.63
		c-0.57,0.2-1.07,0.39-1.47,0.54c-0.32,0.12-0.57,0.23-0.77,0.31c0.08,0.23,0.16,0.37,0.16,0.37l0.42,0.69
		c0.07-0.03,0.13-0.05,0.2-0.08c0.32-0.11,0.71-0.28,1.16-0.41c0.45-0.13,0.96-0.34,1.52-0.47c0.56-0.15,1.16-0.35,1.81-0.49
		c0.32-0.07,1.89-0.11,2.23-0.17c0.18-0.03,1.06-0.05,1.25-0.09c0.16-0.03,0.92-0.05,1.09-0.07c0.35-0.05,2.05-0.08,2.41-0.13
		c0.18-0.03,0.5-0.05,0.68-0.08c0.19-0.02,0.51-0.04,0.69-0.05c0.37-0.04,1.03-0.07,1.41-0.11c0.38-0.04,1.04-0.04,1.42-0.06
		c0.38-0.02,1.04-0.04,1.42-0.05c0.38,0,1.04,0,1.41,0c0.37,0.01,1.02-0.01,1.39,0.02c0.37,0.02,1,0.04,1.35,0.06
		c0.36,0.03,0.97,0.03,1.31,0.08c0.34,0.04,0.93,0.08,1.25,0.12c0.32,0.04,0.88,0.08,1.18,0.11c0.3,0.05,0.81,0.11,1.09,0.16
		c0.56,0.11,1.47,0.19,1.92,0.29c0.45,0.11,1.14,0.22,1.46,0.3c0.64,0.16,1.28,0.26,1.28,0.26s-0.7-0.06-1.35-0.19
		c-0.32-0.07-1.1-0.13-1.55-0.22c-0.45-0.08-1.47-0.11-2.03-0.19c-0.28-0.04-0.86-0.06-1.16-0.1c-0.3-0.02-0.92-0.03-1.24-0.05
		c-0.32-0.02-0.98-0.03-1.31-0.05c-0.34-0.03-1.02,0-1.37,0c-0.35,0-1.06,0.01-1.42,0.01c-0.36-0.01-1.08,0.04-1.45,0.06
		c-0.37,0.02-1.1,0.05-1.48,0.07c-0.37,0.03-1.11,0.09-1.48,0.12c-0.37,0.04-1.11,0.08-1.48,0.14c-0.37,0.06-1.1,0.12-1.46,0.18
		c-0.18,0.03-0.54,0.06-0.72,0.09c-0.18,0.03-0.53,0.08-0.71,0.11c-0.35,0.07-1.05,0.15-1.39,0.22c-0.34,0.07-1.01,0.17-1.34,0.24
		c-0.33,0.08-0.97,0.16-1.28,0.25c-0.62,0.17-1.8,0.35-2.33,0.52c-0.54,0.16-1.52,0.35-1.95,0.49c-0.43,0.15-1.18,0.3-1.48,0.42
		c-0.04,0.02-0.1,0.03-0.15,0.05l0.65,1.08c0.02-0.01,0.04-0.02,0.07-0.02c0.3-0.08,0.64-0.3,1.01-0.39c0.37-0.1,0.77-0.33,1.2-0.43
		c0.21-0.05,2.92-0.04,3.14-0.08c0.12-0.02,1.63-0.02,1.76-0.04c0.11-0.02,1.42-0.02,1.53-0.03c0.24-0.03,3.14-0.02,3.39-0.05
		c0.12-0.02,0.51-0.03,0.63-0.05c0.12-0.01,0.52-0.02,0.64-0.03c0.25-0.02,1.06-0.04,1.31-0.06c0.25-0.03,1.07-0.02,1.32-0.04
		c0.25-0.01,1.07-0.02,1.32-0.03c0.25,0,1.07,0.01,1.32,0.01c0.25,0,1.05,0,1.3,0.02c0.24,0.01,1.02,0.04,1.26,0.05
		c0.24,0.02,1,0.02,1.22,0.06c0.23,0.03,0.95,0.06,1.17,0.09c0.22,0.03,0.91,0.06,1.11,0.08c0.2,0.04,0.83,0.08,1.02,0.11
		c0.37,0.07,1.5,0.14,1.81,0.2c0.3,0.08,1.15,0.15,1.37,0.21c0.43,0.11,1.21,0.18,1.21,0.18s-0.91-0.03-1.34-0.11
		c-0.22-0.04-1.24-0.07-1.54-0.13c-0.3-0.05-1.64-0.05-2.02-0.1c-0.19-0.02-0.95-0.03-1.15-0.05c-0.2-0.01-1.01,0-1.23-0.02
		c-0.22-0.01-1.08,0-1.31-0.02c-0.23-0.02-1.12,0.02-1.35,0.01c-0.23,0-1.17,0.02-1.41,0.02c-0.24-0.01-1.2,0.05-1.44,0.05
		c-0.25,0.01-1.22,0.05-1.46,0.06c-0.25,0.02-1.22,0.08-1.47,0.1c-0.25,0.03-1.22,0.07-1.46,0.11c-0.25,0.04-1.21,0.1-1.45,0.14
		c-0.12,0.02-0.59,0.05-0.71,0.07c-0.12,0.02-0.59,0.06-0.7,0.08c-0.24,0.05-1.15,0.11-1.38,0.16c-0.23,0.05-1.12,0.13-1.34,0.18
		c-0.22,0.05-1.08,0.12-1.29,0.18c-0.41,0.11-1.99,0.26-2.34,0.37c-0.36,0.1-1.68,0.26-1.97,0.35c-0.16,0.06-0.55,0.12-0.89,0.18
		l0.48,0.79c0,0,0.01-0.01,0.01-0.01c0.11-0.02,3.94,0.02,4.05,0c0.06-0.01,2.21,0.02,2.27,0c0.05-0.01,1.91,0.01,1.97,0
		c0.12-0.02,4.24,0.04,4.36,0.02c0.06-0.01,0.52-0.01,0.58-0.02c0.06-0.01,0.53,0,0.59-0.01c0.12-0.01,1.09-0.01,1.22-0.02
		c0.13-0.01,1.09,0,1.22-0.01c0.13-0.01,1.1,0,1.23,0c0.13,0,1.1,0.02,1.22,0.01c0.13,0,1.08,0.01,1.21,0.02
		c0.12,0.01,1.04,0.03,1.16,0.03c0.12,0.01,1.02,0.02,1.13,0.04c0.11,0.01,0.98,0.04,1.09,0.05c0.11,0.01,0.93,0.04,1.03,0.05
		c0.1,0.02,0.85,0.05,0.95,0.06c0.19,0.04,1.54,0.08,1.69,0.12c0.15,0.04,1.17,0.09,1.28,0.11c0.21,0.05,1.14,0.1,1.14,0.1
		s-1.11,0.01-1.33-0.03c-0.11-0.02-1.39-0.01-1.54-0.04c-0.15-0.03-1.82,0.01-2-0.02c-0.09-0.01-1.04,0.01-1.14-0.01
		c-0.1-0.01-1.11,0.02-1.21,0.01c-0.11-0.01-1.18,0.02-1.29,0.01c-0.11-0.01-1.22,0.03-1.33,0.03c-0.12,0-1.28,0.04-1.4,0.04
		c-0.12,0-1.31,0.05-1.43,0.05c-0.12,0.01-1.33,0.05-1.45,0.06c-0.12,0.01-1.34,0.06-1.46,0.08c-0.12,0.01-1.33,0.06-1.45,0.08
		c-0.12,0.02-1.32,0.08-1.44,0.09c-0.06,0.01-0.64,0.04-0.7,0.05c-0.06,0.01-0.64,0.04-0.7,0.05c-0.12,0.02-1.26,0.08-1.37,0.1
		c-0.11,0.02-1.23,0.09-1.34,0.11c-0.11,0.03-1.19,0.08-1.29,0.11c-0.21,0.06-2.18,0.17-2.35,0.23c-0.18,0.05-1.84,0.16-1.99,0.21
		c-0.01,0-0.04,0.01-0.07,0.01l0.75,1.24l4.96,0.09l7.74,0.14L272,93.81l-15.47,0.55l-11.81,0.42l0.96,1.59
		c0.01,0.01,0.02,0.03,0.03,0.04l1.59-0.04c0.03-0.01,0.05-0.02,0.05-0.02s4.73-0.09,10.25-0.21l1.45-0.03l0,0
		c6.99-0.16,14.66-0.36,15.42-0.5C275.9,95.36,275.55,94.02,275.19,91.35z"/>
</g>
</svg>
