<?xml version="1.0" encoding="utf-8"?>
<!-- Generator: Adobe Illustrator 27.8.1, SVG Export Plug-In . SVG Version: 6.00 Build 0)  -->
<svg version="1.1" xmlns="http://www.w3.org/2000/svg" xmlns:xlink="http://www.w3.org/1999/xlink" x="0px" y="0px"
	 viewBox="0 0 350 230" style="enable-background:new 0 0 350 230;" xml:space="preserve">
<style type="text/css">
	.st0{fill:#003799;}
	.st1{fill:#630000;}
	.st2{fill-rule:evenodd;clip-rule:evenodd;fill:#037FE1;}
	.st3{fill-rule:evenodd;clip-rule:evenodd;}
	.st4{fill-rule:evenodd;clip-rule:evenodd;fill:#562900;}
	.st5{fill-rule:evenodd;clip-rule:evenodd;fill:#00184C;}
	.st6{fill-rule:evenodd;clip-rule:evenodd;fill:#2C2C5B;}
	.st7{fill-rule:evenodd;clip-rule:evenodd;fill:#007C89;}
	.st8{fill:#C97C00;}
	.st9{fill:#7A6B00;}
	.st10{fill-rule:evenodd;clip-rule:evenodd;fill:#022B18;}
	.st11{fill-rule:evenodd;clip-rule:evenodd;fill:#03113F;}
	.st12{fill:#273F02;}
	.st13{fill:url(#SVGID_1_);}
	.st14{fill:#B62126;}
	.st15{fill:#231F20;}
	.st16{fill:#FFFFFF;}
	.st17{fill:#17629D;}
	.st18{fill:#540159;}
	.st19{fill:#66082A;}
	.st20{fill:#005C68;}
	.st21{fill:#FFFCE1;}
	.st22{fill:#ECFFE3;}
	.st23{fill:#E3FFFF;}
	.st24{fill:#E3FFF0;}
	.st25{fill:#FFFAD7;}
	.st26{fill:#F4FCD4;}
	.st27{fill:#F5FFE3;}
	.st28{fill:#E3FFEA;}
	.st29{fill:#E0DCC6;}
	.st30{fill:#FCF4B9;}
	.st31{fill:#FFFBD2;}
	.st32{fill:#E3F4FF;}
	.st33{fill:#563900;}
	.st34{fill:#E2FFD7;}
	.st35{fill:#FFFFCC;}
	.st36{fill:#ECFFCF;}
	.st37{fill:#F0F9E1;}
	.st38{fill:#F7F7E2;}
	.st39{fill:#F9D6AC;}
	.st40{fill:#E2F7F3;}
	.st41{fill:#FFF7D2;}
	.st42{fill:#66BFE6;}
	.st43{fill:url(#SVGID_00000142172580630598038070000000203504492251165105_);}
	.st44{fill:url(#SVGID_00000083804198865960049990000002735263322555837627_);}
	.st45{fill:url(#SVGID_00000070087731445354510650000016678337342053911986_);}
	.st46{fill:url(#SVGID_00000062914176688370373050000007575617107796637828_);}
	.st47{fill:url(#SVGID_00000044158828735556556180000001996086766417289611_);}
	.st48{fill:url(#SVGID_00000166669800630049102010000009440235079099232414_);}
	.st49{fill:#AEAEB6;}
	.st50{fill:url(#SVGID_00000156570836200154828870000003720696846149755529_);}
	.st51{fill:url(#SVGID_00000168085203065394006900000010189694753998963889_);}
	.st52{fill:url(#SVGID_00000142879403551919023580000016378228740013787578_);}
	.st53{fill:url(#SVGID_00000162315931620422173130000010926685699525529736_);}
	.st54{filter:url(#Adobe_OpacityMaskFilter);}
	.st55{filter:url(#Adobe_OpacityMaskFilter_00000071538391116257898590000006381603076062894771_);}
	
		.st56{mask:url(#SVGID_00000002378304766296640730000006065397704410592942_);fill:url(#SVGID_00000045587411204382740030000015260842830489164458_);}
	.st57{fill:url(#SVGID_00000161604848309904489380000004064440965853223068_);}
	.st58{filter:url(#Adobe_OpacityMaskFilter_00000065046416223006198470000001454912657991450027_);}
	.st59{filter:url(#Adobe_OpacityMaskFilter_00000167359370797391304580000013290342197439374756_);}
	
		.st60{mask:url(#SVGID_00000054238499148084721780000017934532979748532618_);fill:url(#SVGID_00000018216686656563534470000017858778494517224888_);}
	.st61{fill:url(#SVGID_00000002386318388426191850000002987120347366386306_);}
	.st62{fill:url(#SVGID_00000152962492420318944270000009223448915982947979_);}
	.st63{fill:url(#SVGID_00000037669330667068083780000015144202051189111182_);}
	.st64{fill:url(#SVGID_00000151528108563688640700000005547808081776976523_);}
	.st65{fill:url(#SVGID_00000152237227198038589140000004026814712735532680_);}
	.st66{fill:url(#SVGID_00000098902475706996917330000012927014578823084193_);}
	.st67{opacity:0.5;fill:url(#SVGID_00000013190766698281263840000001890156761647443855_);enable-background:new    ;}
	.st68{fill:url(#SVGID_00000167389725484236570180000009743961807895336109_);}
	.st69{fill:url(#SVGID_00000102537761122225302450000014748781415123174323_);}
	.st70{fill:url(#SVGID_00000085211549273799847760000009149770668102912686_);}
	.st71{fill:#3E2770;}
	.st72{fill:#010100;}
	.st73{fill:#0E2C31;}
	.st74{fill:url(#SVGID_00000076601619047836450790000015286390200178686119_);}
	.st75{fill:#FEFEFE;}
	.st76{fill:#CF0F0E;}
	.st77{fill:#272525;}
	.st78{fill:#0C4352;}
	.st79{fill:#2CAFB7;}
	.st80{fill:#A38F7E;}
	.st81{fill:#EA0314;}
	.st82{fill:#0E1D33;}
	.st83{fill:url(#SVGID_00000059293055648488222930000000011862124743275651_);}
	.st84{fill:url(#SVGID_00000093169992311271794510000006537174895265496199_);}
	.st85{fill:url(#SVGID_00000035509488775240897440000002958090770329560984_);}
	.st86{fill:#FF0000;}
	.st87{fill-rule:evenodd;clip-rule:evenodd;fill:#FF0202;}
	.st88{fill:none;}
	.st89{fill:#C41111;}
	.st90{fill:#435107;}
	.st91{fill:#848484;}
	.st92{fill:#8AA80C;}
	.st93{fill:#9ECE09;}
	.st94{fill:#B27953;}
	.st95{fill:#1C1C1A;}
	.st96{fill:#899EAA;}
	.st97{fill:#393B6D;}
	.st98{fill:#00B2D2;}
	.st99{fill:#037FE1;}
	.st100{fill:#474747;}
	.st101{fill:url(#SVGID_00000140009129699377220390000005996970882369737870_);}
	.st102{fill:url(#SVGID_00000090294017602876515750000011664226746588703618_);}
	.st103{fill:#00184C;}
	.st104{fill:url(#SVGID_00000116210055866508563700000006253688410030501542_);}
	.st105{fill:#8C8C8C;}
	.st106{fill:#B20808;}
	.st107{fill:#B65534;}
	.st108{fill:#222021;}
	.st109{fill:#00D5EC;}
	.st110{fill:url(#SVGID_00000000191186622353587750000006596392867444584331_);}
	.st111{fill:url(#SVGID_00000005264029696330795620000003652934924677260675_);}
	.st112{fill:#FFEC00;}
	.st113{fill:url(#SVGID_00000138549183216378211590000011078991935737806501_);}
	.st114{fill:url(#SVGID_00000061464778369978362250000015939681864377922494_);}
	.st115{fill:url(#SVGID_00000003787932870215483610000017586601655958176901_);}
	.st116{fill:#227D8D;}
	.st117{fill:#132A45;}
	.st118{fill:url(#SVGID_00000171708706659373403010000002723449176551445405_);}
	.st119{fill:#EA004E;}
	.st120{fill:url(#SVGID_00000165197483309181599770000018350961215377915319_);}
	.st121{fill:url(#SVGID_00000085249242040964136850000006340502341612671667_);}
	.st122{fill:url(#SVGID_00000092421172071034694640000014003342999154878128_);}
	.st123{fill:#606060;}
	.st124{fill:url(#SVGID_00000126287866721335194380000016362721899923939992_);}
	.st125{fill:url(#SVGID_00000178927568538796475580000013458354431750392968_);}
	.st126{fill:url(#SVGID_00000159450574151974218880000004186856929592193179_);}
	.st127{fill:url(#SVGID_00000051368225640076493680000009398457528959428247_);}
	.st128{fill:url(#SVGID_00000062893612942393171390000006899426542570132359_);}
	.st129{fill:url(#SVGID_00000072987705151915376790000015731572802602854324_);}
	.st130{fill:url(#SVGID_00000169549015664200675020000015126573963527324848_);}
	.st131{fill:url(#SVGID_00000093886155733173586800000009692327529091381396_);}
	.st132{fill-rule:evenodd;clip-rule:evenodd;fill:#BD3E8C;}
	.st133{fill-rule:evenodd;clip-rule:evenodd;fill:url(#SVGID_00000069384612861164801360000002399789563100545953_);}
	.st134{fill-rule:evenodd;clip-rule:evenodd;fill:url(#SVGID_00000099624053230515964060000007973967682884124820_);}
</style>
<g id="Logo1">
</g>
<g id="Logo2">
</g>
<g id="Logo3">
</g>
<g id="Logo4">
</g>
<g id="Logo5">
</g>
<g id="Logo6">
</g>
<g id="Logo7">
</g>
<g id="Logo8">
</g>
<g id="Logo9">
</g>
<g id="Logo10">
</g>
<g id="Logo11">
</g>
<g id="Logo12">
</g>
<g id="Logo13">
</g>
<g id="Logo14">
</g>
<g id="Layer_15">
	<g>
		<path class="st94" d="M235.46,44.69c0.08,0,2,0.03,2.97,1.71c0.58,1,0.67,2.28,0.01,3.43c-1.53,6.03-3.42,12.41-5.73,19.04
			c0-2.02-0.4-4.77-2.22-6.91c-1.68-1.97-3.87-2.97-5.77-3.33c0.04-0.07,0.07-0.13,0.11-0.2c0.61-1.27,0.45-2.78-0.42-3.88
			c-1.07-1.35-2.52-2.39-4.03-3.18c0.01-0.13,0.02-0.27,0.02-0.41v-8.75C225.71,42.96,230.74,43.8,235.46,44.69z M214.27,100.09
			c-8.97,0.62-35.01,0.7-36.11,0.7c-0.01,0-0.01,0-0.01,0c-0.12,0-0.23-0.01-0.35-0.02l-47.05-4.45
			c12.42,23.72,27.05,43.37,41.27,59.28c0.66,1.15,1.82,1.73,2.98,1.73c1.23,0,2.37-0.66,2.98-1.73
			c12.85-12.9,28.44-31.43,41.44-56.16C217.41,99.75,215.62,100,214.27,100.09z"/>
		<path class="st95" d="M123.65,47.91v10.32l-2.46,0.27V48.34L123.65,47.91z M117.81,48.94v9.93l2.49-0.28V48.5L117.81,48.94z
			 M114.66,59.22l2.33-0.26v-9.88l-2.49,0.44v9.22C114.55,58.91,114.6,59.07,114.66,59.22z M113.9,57.02v-7.39l-1.9,0.34v1.26
			C112.61,53.15,113.24,55.08,113.9,57.02z M105.21,42.71c1.79-3.08,4.94-5.06,8.47-5.34c12.03-2.26,24.23-3.84,36.47-4.76
			l-34.97,8.23c-0.34,0.06-0.68,0.12-1.03,0.19c-2.4,0.13-4.53,1.43-5.75,3.53c-1.21,2.08-1.29,4.55-0.24,6.68
			c0.11,0.36,0.23,0.73,0.34,1.09c0,0,0,0.01,0,0.01c0.01,0.03,0.02,0.06,0.03,0.1c0.79,2.5,1.62,5.01,2.48,7.5
			c0,0.01,0.01,0.02,0.01,0.03l0.09,0.25c0.16,0.45,0.32,0.9,0.48,1.35c0,0.01,0.01,0.02,0.01,0.03l0.05,0.16
			c0,0.01,0.01,0.01,0.01,0.02c0.59,1.67,1.2,3.33,1.82,4.98c0,0,0,0.01,0,0.01l0.04,0.1c0.29,0.78,0.59,1.55,0.89,2.32
			c1.83,4.72,3.79,9.4,5.88,14.02c0.05,0.11,0.1,0.23,0.15,0.34c0,0.01,0.01,0.01,0.01,0.02c0.68,1.51,1.38,3.01,2.09,4.51
			c0.01,0.02,0.01,0.03,0.02,0.05c0.07,0.15,0.14,0.29,0.21,0.44c0.34,0.72,0.69,1.44,1.04,2.16c0.16,0.32,0.31,0.64,0.47,0.96
			c0.31,0.63,0.62,1.25,0.93,1.87c0.09,0.18,0.18,0.36,0.26,0.53c0.01,0.02,0.02,0.04,0.03,0.05
			c11.42,22.65,26.01,43.98,43.56,63.66c1.32,2.01,3.51,3.2,5.94,3.2c2.35,0,4.55-1.17,5.87-3.1c17.62-17.74,32.07-37.62,43.1-59.25
			c0.02,0,0.04-0.01,0.06-0.01c0.66-1.31,1.33-2.69,1.99-4.08c-4.6,0.8-9.36,1.68-12,1.86c-8.95,0.62-35.87,0.69-35.87,0.69
			l-49.39-4.67c-0.98-1.94-1.94-3.9-2.88-5.9c-0.14-1.07-0.22-2.24-0.22-3.47c0-0.33,0.01-0.65,0.02-0.97l-1.89-0.08
			c-0.43-0.94-0.85-1.89-1.27-2.85l1.74,0.02c-0.02-1.64,0.1-4.66,1.15-7.16c0.41-0.97,0.81-1.54,1.2-1.83l-7.78,0.13
			c-0.04-0.11-0.09-0.22-0.13-0.33l40.24-2.38l0.08,2.05l-31.11,0.51c0.57,0.36,1.1,1.13,1.57,1.85c0.81,1.25,1.03,5.24,1.08,7.23
			l28.17,0.3l0.08,2.71h9.3c0.08-0.04,0.16-0.09,0.25-0.13c-0.06-1.34-0.5-12.91,0.85-14.58c0.75-0.93,2.35-1.07,3.71-1
			c2.02,0.11,3.76,1.56,4.1,3.55c0.04,0.27,0.07,0.54,0.06,0.83c-0.08,2.28-0.08,2.87-0.08,2.87l52.41-1.52v1.94l-39.31,1.61v2.03
			l39.65-1.69v-1.1h0.92l-0.2,5.49h-2.75l-0.02,0.01c0.18,0.95,0.27,1.98,0.27,3.06c0,3.73-1.15,6.91-2.76,8.18
			c0.72,0.07,1.4,0.13,2.04,0.19c1.08-2.29,2.12-4.59,3.12-6.91c4.71-10.94,8.6-22.36,11.56-33.96c0.99-2.11,0.9-4.53-0.29-6.58
			c-1.41-2.43-3.87-3.4-5.73-3.53c-5.1-0.96-10.22-1.79-15.37-2.51c0.32-0.52,0.52-1.13,0.54-1.79c0.02-0.54-0.03-1.18-0.15-1.88
			c5.18,0.72,10.34,1.56,15.47,2.52c3.53,0.32,6.66,2.3,8.42,5.33c1.71,2.95,1.93,6.53,0.6,9.64c-3,11.68-6.93,23.18-11.67,34.2
			c-11.73,27.26-28.56,52.07-50.03,73.74c-2.03,2.76-5.25,4.4-8.69,4.4c-3.55,0-6.83-1.72-8.85-4.61
			c-24.09-27.06-42.66-57.19-55.19-89.56c-2.27-5.88-4.38-11.91-6.26-17.94C103.27,49.4,103.45,45.74,105.21,42.71z M128.01,89.08
			c0.45,0,0.85-0.72,1.12-1.88c-0.39-0.6-0.66-2.06-0.66-3.77c0-1.71,0.28-3.18,0.66-3.77c-0.28-1.15-0.68-1.88-1.12-1.88
			c-0.83,0-1.51,2.53-1.51,5.65S127.18,89.08,128.01,89.08z M129.31,74.83c-0.07-0.15-0.18-0.37-0.39-0.59
			c-0.11-0.11-0.24-0.22-0.42-0.31c-0.18-0.08-0.43-0.12-0.66-0.05c-0.23,0.07-0.42,0.22-0.56,0.39l-0.1,0.12
			c-0.03,0.04-0.06,0.09-0.09,0.13c-0.06,0.09-0.1,0.18-0.15,0.27c-0.09,0.18-0.16,0.37-0.21,0.55c-0.03,0.09-0.06,0.18-0.08,0.27
			c-0.02,0.09-0.05,0.18-0.06,0.27c-0.03,0.18-0.06,0.34-0.08,0.51c-0.02,0.16-0.03,0.31-0.04,0.45c0,0.14-0.01,0.27-0.01,0.39
			c0,0.11,0.01,0.22,0.02,0.3c0.01,0.17,0.03,0.26,0.03,0.26s0.04-0.09,0.1-0.24c0.03-0.08,0.07-0.17,0.1-0.28
			c0.04-0.11,0.08-0.23,0.13-0.36c0.09-0.26,0.19-0.56,0.3-0.88c0.06-0.16,0.11-0.32,0.18-0.48c0.06-0.16,0.13-0.32,0.2-0.47
			c0.04-0.07,0.07-0.15,0.12-0.22c0.02-0.03,0.04-0.07,0.06-0.1l0.07-0.09c0.09-0.11,0.18-0.21,0.28-0.25
			c0.09-0.05,0.2-0.06,0.31-0.03c0.12,0.02,0.24,0.08,0.35,0.14c0.22,0.13,0.4,0.28,0.52,0.38c0.06,0.05,0.11,0.1,0.14,0.13
			c0.03,0.03,0.05,0.05,0.05,0.05S129.37,74.99,129.31,74.83z M160.86,83.49l-8.39-0.33c-0.83,0.81-1.97,1.3-3.22,1.3
			c-1.38,0-2.63-0.61-3.48-1.57l-4.24-0.17c-0.05,2.53-0.43,4.78-1.01,6.38l20.11-0.5c0,0,0.55,0.03,1.53,0.08
			c-0.9-1.07-1.45-2.45-1.45-3.95C160.73,84.3,160.78,83.89,160.86,83.49z M175.28,73.07c-0.06-0.1-0.14-0.22-0.24-0.34
			c-0.1-0.13-0.22-0.27-0.37-0.41c-0.15-0.14-0.33-0.27-0.55-0.39c-0.22-0.11-0.49-0.19-0.78-0.2c-0.29-0.01-0.59,0.08-0.85,0.23
			c-0.26,0.15-0.47,0.35-0.66,0.57c-0.09,0.11-0.17,0.22-0.25,0.34c-0.07,0.12-0.14,0.23-0.21,0.35c-0.06,0.12-0.12,0.24-0.17,0.35
			c-0.05,0.12-0.1,0.24-0.14,0.35c-0.05,0.12-0.08,0.23-0.12,0.35c-0.03,0.11-0.07,0.22-0.1,0.33c-0.05,0.22-0.11,0.43-0.14,0.62
			c-0.03,0.19-0.06,0.37-0.09,0.53c-0.02,0.16-0.03,0.3-0.04,0.41c-0.02,0.23-0.02,0.36-0.02,0.36s0.06-0.12,0.15-0.33
			c0.04-0.1,0.1-0.23,0.15-0.38c0.06-0.14,0.13-0.31,0.2-0.49c0.07-0.18,0.16-0.37,0.24-0.57c0.05-0.1,0.09-0.2,0.14-0.3
			c0.05-0.1,0.09-0.21,0.15-0.31c0.05-0.1,0.11-0.21,0.16-0.32c0.06-0.1,0.12-0.21,0.18-0.31c0.06-0.1,0.13-0.2,0.19-0.3
			c0.07-0.1,0.14-0.19,0.21-0.28l0.11-0.13c0.02-0.02,0.04-0.04,0.06-0.06l0.06-0.05c0.04-0.04,0.08-0.08,0.12-0.11l0.13-0.09
			c0.18-0.11,0.36-0.18,0.55-0.2c0.19-0.02,0.39,0.01,0.58,0.07c0.19,0.06,0.36,0.15,0.52,0.24c0.16,0.09,0.3,0.19,0.42,0.28
			c0.12,0.09,0.23,0.18,0.31,0.25c0.08,0.08,0.15,0.13,0.2,0.18c0.04,0.04,0.07,0.06,0.07,0.06S175.39,73.27,175.28,73.07z
			 M175.78,78.81c-0.5-1.41-1.23-2.3-2.04-2.3c-1.51,0-2.74,3.1-2.74,6.92c0,2.41,0.49,4.53,1.23,5.77c0.02,0,0.03,0,0.05,0v0.07
			c0.42,0.68,0.92,1.08,1.46,1.08c0.81,0,1.54-0.89,2.04-2.3c-0.71-0.73-1.2-2.52-1.2-4.62C174.58,81.34,175.08,79.54,175.78,78.81z
			 M215.32,86.59l-0.49,0.24h-31.95l-0.67-0.04c-0.1,1-0.24,1.94-0.43,2.81c8.03,0.16,16.08-0.06,20.65,0.26
			c3.11,0.22,8.84,0.71,14.49,1.21C216.16,90.03,215.58,88.45,215.32,86.59z M148.17,43.55v11.96l4.62-0.51V42.73L148.17,43.55z
			 M143.81,44.33V56l3.29-0.36V43.74L143.81,44.33z M153.97,42.52v12.35l4.99-0.55V41.64L153.97,42.52z M160.14,41.43v12.77
			l5.62-0.62V40.43L160.14,41.43z M139.52,45.09v11.38l3.21-0.36v-11.6L139.52,45.09z M181.57,70.54h6.66
			c-0.13,0-0.13-1.83-0.14-2.01c-0.04-0.83-0.2-1.68-0.65-2.39c-0.01-0.02-0.02-0.04-0.04-0.05v1.71c0,0.6-0.49,1.09-1.09,1.09h-2.7
			c-0.6,0-1.09-0.49-1.09-1.09V66c0-0.6,0.49-1.09,1.09-1.09h2.67c-0.31-0.24-0.65-0.45-1-0.63c-1.1-0.59-2.3-0.99-3.5-1.32
			c-1.59-0.44-3.23-0.58-4.87-0.46c-0.83,0.06-1.66,0.18-2.48,0.36c-0.41,0.09-0.82,0.19-1.22,0.3c-0.38,0.1-0.77,0.28-1.15,0.35
			c0,0,2.34-0.41,3.46-0.34c1.12,0.06,2.64,0.24,4.04,1.85C180.97,66.63,181.57,70.54,181.57,70.54z M168.73,39.09l31.53,0.81
			l-31.53,0.81v0.5l31.53,0.81l-31.53,0.81v0.5l31.53,0.81l-31.53,0.81v0.5l31.53,0.81l-31.53,0.81v0.5l31.53,0.81l-31.53,0.81v0.5
			l31.53,0.81l-17.23,0.44h33.68V38.59c-1.13-1.01-5.53-1.25-5.53-1.25s-19.01-0.06-30.25-0.05l19.33,0.5l-31.53,0.81V39.09z
			 M112.77,45.18c-0.01,0.01-0.02,0.01-0.03,0.02l54.17-10.73c0.23-0.7,0.6-1.5,1.18-2.31L112.77,45.18z M135.5,45.8v11.12l3-0.33
			V45.27L135.5,45.8z M124.54,47.75v10.38l2.46-0.27V47.31L124.54,47.75z M131.79,46.46v10.87l2.69-0.3V45.98L131.79,46.46z
			 M127.95,47.14v10.61l2.88-0.32v-10.8L127.95,47.14z M158.96,64.23v-2.01l-42.04,3.25c0.03,0.09,0.06,0.17,0.1,0.26L158.96,64.23z
			 M217.95,59.49c-0.22,0-0.41,0.19-0.41,0.42v10.13c0,0.24,0.18,0.43,0.41,0.42l2.32-0.03c0.22,0,0.4-0.2,0.4-0.43V59.94
			c0-0.23-0.18-0.43-0.4-0.43L217.95,59.49z M227.69,64.34c1.94,2.28,1.18,6.42,1.18,6.42h-5.24c0.08-2.45-0.59-8.62-0.59-8.62
			S225.74,62.06,227.69,64.34z M223.61,67.58c0,0.84,0.68,1.52,1.52,1.52h0.95c0.84,0,1.52-0.68,1.52-1.52v-0.95
			c0-0.84-0.68-1.52-1.52-1.52h-0.95c-0.84,0-1.52,0.68-1.52,1.52V67.58z M115.11,60.52l51.22-4.12l-0.2-2.05l-51.07,6
			C115.08,60.42,115.1,60.47,115.11,60.52z M209.63,59.39c-0.23,0-0.42,0.19-0.42,0.43v10.3c0,0.24,0.19,0.43,0.42,0.43l2.7-0.03
			c0.23,0,0.42-0.2,0.42-0.44V59.86c0-0.24-0.19-0.43-0.42-0.44L209.63,59.39z M213.85,59.44c-0.23,0-0.41,0.19-0.41,0.43v10.21
			c0,0.24,0.19,0.43,0.41,0.43l2.65-0.03c0.22,0,0.41-0.2,0.41-0.43V59.9c0-0.24-0.18-0.43-0.41-0.43L213.85,59.44z M205.33,59.34
			c-0.24,0-0.43,0.19-0.43,0.43v10.39c0,0.24,0.19,0.44,0.43,0.43l2.75-0.03c0.23,0,0.42-0.2,0.42-0.44V59.82
			c0-0.24-0.19-0.44-0.42-0.44L205.33,59.34z M193.38,36.61h-0.66h-23.99c0,0-0.17-5.33,6.17-7.95c10.77-4.45,25.46-4.48,36.3,0
			c6.34,2.62,6.17,7.95,6.17,7.95H193.38z M183.5,32.18c0-0.84-0.68-1.52-1.52-1.52h-5.18c-1.81,0-3.3,1.48-3.3,3.3
			c0,0.84,0.68,1.52,1.52,1.52h6.96c0.84,0,1.52-0.68,1.52-1.52V32.18z M214.73,32.43c0-0.84-0.68-1.52-1.52-1.52h-5.18
			c-1.81,0-3.3,1.48-3.3,3.3c0,0.84,0.68,1.52,1.52,1.52h6.96c0.84,0,1.52-0.68,1.52-1.52V32.43z M191.96,59.19
			c-0.25,0-0.45,0.2-0.45,0.45v10.68c0,0.25,0.2,0.45,0.45,0.45l2.9-0.03c0.25,0,0.45-0.21,0.45-0.45v-10.6
			c0-0.25-0.2-0.45-0.45-0.45L191.96,59.19z M189.14,56.82h32.38c-2.54-3.21-9.13-4.14-9.13-4.14H177.3c0,0,0,0,3.64,0.76
			C184.57,54.2,189.14,56.82,189.14,56.82z M200.95,59.29c-0.24,0-0.44,0.19-0.44,0.44v10.49c0,0.24,0.2,0.44,0.44,0.44l2.79-0.03
			c0.24,0,0.43-0.2,0.43-0.45V59.77c0-0.24-0.19-0.44-0.43-0.44L200.95,59.29z M196.49,59.24c-0.24,0-0.44,0.2-0.44,0.44v10.58
			c0,0.25,0.2,0.45,0.44,0.44l2.84-0.03c0.24,0,0.44-0.21,0.44-0.45v-10.5c0-0.24-0.2-0.45-0.44-0.45L196.49,59.24z"/>
	</g>
</g>
</svg>
