<?xml version="1.0" encoding="utf-8"?>
<!-- Generator: Adobe Illustrator 27.8.1, SVG Export Plug-In . SVG Version: 6.00 Build 0)  -->
<svg version="1.1" xmlns="http://www.w3.org/2000/svg" xmlns:xlink="http://www.w3.org/1999/xlink" x="0px" y="0px"
	 viewBox="0 0 350 230" style="enable-background:new 0 0 350 230;" xml:space="preserve">
<style type="text/css">
	.st0{fill:#003799;}
	.st1{fill:#630000;}
	.st2{fill-rule:evenodd;clip-rule:evenodd;fill:#037FE1;}
	.st3{fill-rule:evenodd;clip-rule:evenodd;}
	.st4{fill-rule:evenodd;clip-rule:evenodd;fill:#562900;}
	.st5{fill-rule:evenodd;clip-rule:evenodd;fill:#00184C;}
	.st6{fill-rule:evenodd;clip-rule:evenodd;fill:#2C2C5B;}
	.st7{fill-rule:evenodd;clip-rule:evenodd;fill:#007C89;}
	.st8{fill:#C97C00;}
	.st9{fill:#7A6B00;}
	.st10{fill-rule:evenodd;clip-rule:evenodd;fill:#022B18;}
	.st11{fill-rule:evenodd;clip-rule:evenodd;fill:#03113F;}
	.st12{fill:#273F02;}
	.st13{fill:url(#SVGID_1_);}
	.st14{fill:#B62126;}
	.st15{fill:#231F20;}
	.st16{fill:#FFFFFF;}
	.st17{fill:#17629D;}
	.st18{fill:#540159;}
	.st19{fill:#66082A;}
	.st20{fill:#005C68;}
	.st21{fill:#FFFCE1;}
	.st22{fill:#ECFFE3;}
	.st23{fill:#E3FFFF;}
	.st24{fill:#E3FFF0;}
	.st25{fill:#FFFAD7;}
	.st26{fill:#F4FCD4;}
	.st27{fill:#F5FFE3;}
	.st28{fill:#E3FFEA;}
	.st29{fill:#E0DCC6;}
	.st30{fill:#FCF4B9;}
	.st31{fill:#FFFBD2;}
	.st32{fill:#E3F4FF;}
	.st33{fill:#563900;}
	.st34{fill:#E2FFD7;}
	.st35{fill:#FFFFCC;}
	.st36{fill:#ECFFCF;}
	.st37{fill:#F0F9E1;}
	.st38{fill:#F7F7E2;}
	.st39{fill:#F9D6AC;}
	.st40{fill:#E2F7F3;}
	.st41{fill:#FFF7D2;}
	.st42{fill:#66BFE6;}
	.st43{fill:url(#SVGID_00000025433160686160949970000001110770899368779904_);}
	.st44{fill:url(#SVGID_00000055668783208667424940000008932836803538468536_);}
	.st45{fill:url(#SVGID_00000007396252800627924240000015779822762441699262_);}
	.st46{fill:url(#SVGID_00000112633635917221767640000007116345954535933827_);}
	.st47{fill:url(#SVGID_00000132088731722028074970000014107541412927240857_);}
	.st48{fill:url(#SVGID_00000039126442933064093120000016175001091332327857_);}
	.st49{fill:#AEAEB6;}
	.st50{fill:url(#SVGID_00000034085664943993082120000017900513344695506344_);}
	.st51{fill:url(#SVGID_00000124859997092927151420000002036349161625775268_);}
	.st52{fill:url(#SVGID_00000067925028587676439700000005831084132722288044_);}
	.st53{fill:url(#SVGID_00000077283901300524460540000004571937446245021090_);}
	.st54{filter:url(#Adobe_OpacityMaskFilter);}
	.st55{filter:url(#Adobe_OpacityMaskFilter_00000167383960784189275290000002604950079205441932_);}
	
		.st56{mask:url(#SVGID_00000180347034748016000680000005787639064434296735_);fill:url(#SVGID_00000055701263628003660200000015152249827175115924_);}
	.st57{fill:url(#SVGID_00000042014870455770143150000012881514046033863336_);}
	.st58{filter:url(#Adobe_OpacityMaskFilter_00000029030706269347282060000016362349052056391086_);}
	.st59{filter:url(#Adobe_OpacityMaskFilter_00000101819851487756607770000003564613048466112690_);}
	
		.st60{mask:url(#SVGID_00000016768326528080788190000000476457309015847575_);fill:url(#SVGID_00000126308970666153085460000002429929796357570488_);}
	.st61{fill:url(#SVGID_00000133528041716123906150000010777798678806270882_);}
	.st62{fill:url(#SVGID_00000152986433200305788220000016676284701623403177_);}
	.st63{fill:url(#SVGID_00000061458194073312478810000013634192098437353378_);}
	.st64{fill:url(#SVGID_00000006698917782177044500000008437643397761743794_);}
	.st65{fill:url(#SVGID_00000150816944199209457310000012988472841209825171_);}
	.st66{fill:url(#SVGID_00000035498852402731664550000000978873595587695805_);}
	.st67{opacity:0.5;fill:url(#SVGID_00000106139295975414364760000004962894319160161418_);enable-background:new    ;}
	.st68{fill:url(#SVGID_00000162318601145303912440000014075478850343595162_);}
	.st69{fill:url(#SVGID_00000140006106218457799410000006952305835199483307_);}
	.st70{fill:url(#SVGID_00000016771202695122354590000012116250852211480759_);}
	.st71{fill:#3E2770;}
	.st72{fill:#010100;}
	.st73{fill:#0E2C31;}
	.st74{fill:url(#SVGID_00000173846196307889471280000005131297945093186493_);}
	.st75{fill:#FEFEFE;}
	.st76{fill:#CF0F0E;}
	.st77{fill:#272525;}
	.st78{fill:#0C4352;}
	.st79{fill:#2CAFB7;}
	.st80{fill:#A38F7E;}
	.st81{fill:#EA0314;}
	.st82{fill:#0E1D33;}
	.st83{fill:url(#SVGID_00000182506966165979882240000003602370312368530617_);}
	.st84{fill:url(#SVGID_00000129194645178586132900000011851988902465532851_);}
	.st85{fill:url(#SVGID_00000140013748359871558120000014226151876880479422_);}
	.st86{fill:#FF0000;}
	.st87{fill-rule:evenodd;clip-rule:evenodd;fill:#FF0202;}
	.st88{fill:none;}
	.st89{fill:#C41111;}
	.st90{fill:#435107;}
	.st91{fill:#848484;}
	.st92{fill:#8AA80C;}
	.st93{fill:#9ECE09;}
	.st94{fill:#B27953;}
	.st95{fill:#1C1C1A;}
	.st96{fill:#899EAA;}
	.st97{fill:#393B6D;}
	.st98{fill:#00B2D2;}
	.st99{fill:#037FE1;}
	.st100{fill:#474747;}
	.st101{fill:url(#SVGID_00000131339285807131054290000007266821737092816044_);}
	.st102{fill:url(#SVGID_00000040562398404159139070000017183417951998496398_);}
	.st103{fill:#00184C;}
	.st104{fill:url(#SVGID_00000022522663682136815270000013380676428276011912_);}
	.st105{fill:#8C8C8C;}
	.st106{fill:#B20808;}
	.st107{fill:#B65534;}
	.st108{fill:#222021;}
	.st109{fill:#00D5EC;}
	.st110{fill:url(#SVGID_00000051381206038426793450000017498552296665450671_);}
	.st111{fill:url(#SVGID_00000096061522342501441520000003220569436497246357_);}
	.st112{fill:#FFEC00;}
	.st113{fill:url(#SVGID_00000149358277968896152450000008581200640818669501_);}
	.st114{fill:url(#SVGID_00000139987052446066073640000013417130514850468484_);}
	.st115{fill:url(#SVGID_00000036960250570219307920000006201474963353362819_);}
	.st116{fill:#227D8D;}
	.st117{fill:#132A45;}
	.st118{fill:url(#SVGID_00000119099394420457960910000011505322459133114275_);}
	.st119{fill:#EA004E;}
	.st120{fill:url(#SVGID_00000067213321540463492170000013830598451599849919_);}
	.st121{fill:url(#SVGID_00000178193815106203759300000016277358208529297298_);}
	.st122{fill:url(#SVGID_00000127042409322017160190000009243485690634197643_);}
	.st123{fill:#606060;}
	.st124{fill:url(#SVGID_00000116220686891003386740000003420580413923329436_);}
	.st125{fill:url(#SVGID_00000070087304902561798610000010577927053112175489_);}
	.st126{fill:url(#SVGID_00000107580397003510587510000001439978851749838232_);}
	.st127{fill:url(#SVGID_00000152247494100857926000000006089065624169018759_);}
	.st128{fill:url(#SVGID_00000181773071131902673100000012880973934803262108_);}
	.st129{fill:url(#SVGID_00000053513365735222171640000014857820997448552107_);}
	.st130{fill:url(#SVGID_00000111875355580370789830000000779446969963900067_);}
	.st131{fill:url(#SVGID_00000132082643590845807080000007726555472733326495_);}
	.st132{fill-rule:evenodd;clip-rule:evenodd;fill:#BD3E8C;}
	.st133{fill-rule:evenodd;clip-rule:evenodd;fill:url(#SVGID_00000057845937992011672860000012189296374988202626_);}
	.st134{fill-rule:evenodd;clip-rule:evenodd;fill:url(#SVGID_00000000928910706116022400000014753381033576061586_);}
</style>
<g id="Logo1">
</g>
<g id="Logo2">
</g>
<g id="Logo3">
</g>
<g id="Logo4">
</g>
<g id="Logo5">
</g>
<g id="Logo6">
</g>
<g id="Logo7">
</g>
<g id="Logo8">
</g>
<g id="Logo9">
</g>
<g id="Logo10">
</g>
<g id="Logo11">
</g>
<g id="Logo12">
</g>
<g id="Logo13">
</g>
<g id="Logo14">
</g>
<g id="Layer_15">
	<linearGradient id="SVGID_1_" gradientUnits="userSpaceOnUse" x1="36.0954" y1="91.9327" x2="313.903" y2="91.9327">
		<stop  offset="0" style="stop-color:#94001D"/>
		<stop  offset="0.0504" style="stop-color:#920824"/>
		<stop  offset="0.2527" style="stop-color:#8A223A"/>
		<stop  offset="0.4333" style="stop-color:#853247"/>
		<stop  offset="0.5732" style="stop-color:#83384C"/>
		<stop  offset="0.5964" style="stop-color:#713548"/>
		<stop  offset="0.6477" style="stop-color:#4E2E42"/>
		<stop  offset="0.7023" style="stop-color:#32283C"/>
		<stop  offset="0.7606" style="stop-color:#1C2437"/>
		<stop  offset="0.8242" style="stop-color:#0C2134"/>
		<stop  offset="0.8971" style="stop-color:#032033"/>
		<stop  offset="1" style="stop-color:#001F32"/>
	</linearGradient>
	<path class="st13" d="M174.26,123.34c0.57-20.74-16.97-31.95-29.94-31.8c-7.99,0.1-14.85,2.95-20.67,8.36
		c-5.86,5.45-8.19,12.52-9.15,20.53c-5.87-2.43-11.59-4.8-17.31-7.17c0-0.08,0.01-0.17,0.01-0.25c4.34,0,8.67-0.08,13.01,0.04
		c1.68,0.05,2.54-0.33,2.91-2.12c0.37-1.75,1.21-3.4,1.93-5.33c-1-0.05-1.92-0.13-2.85-0.14c-6.65-0.12-13.31,0.06-19.93-0.4
		c-7.55-0.53-14.61-3.16-22-6.25c0.84-0.08,1.23-0.15,1.63-0.16c15.52-0.08,31.04-0.13,46.56-0.26c0.96-0.01,2.03-0.52,2.85-1.08
		c2.05-1.4,3.99-2.97,6.29-4.7c-0.93-0.05-1.57-0.1-2.2-0.11c-13.87-0.02-27.74-0.05-41.61-0.04c-10.88,0-20.87-2.88-29.81-9.17
		c-0.5-0.35-0.98-0.75-1.77-1.35c3.83,0.99,7.25,1.95,10.72,2.74c7.2,1.66,14.54,1.66,21.88,1.64c30.41-0.05,60.83-0.04,91.24-0.06
		c3.34,0,6.67,0,10.09,0c0-2.33,0-4.4,0-6.76c-2.93,0-5.75,0-8.57,0c-27.4,0.02-54.8,0.04-82.21,0.05c-7.9,0-15.8,0.03-23.71-0.02
		c-9.25-0.06-17.94-2.05-25.47-7.75c-1.72-1.3-3.37-2.72-4.9-4.23c-1.89-1.87-3.62-3.9-5.19-6.18c0.6,0.34,1.2,0.68,1.8,1.03
		c8.93,5.17,18.32,9.11,28.61,10.5c3.54,0.48,7.13,0.78,10.7,0.78c31.15,0.05,62.31,0.01,93.46,0.03c1.25,0,1.75-0.34,1.68-1.62
		c-0.08-1.52-0.02-3.04-0.02-4.81c-0.89,0-1.61,0-2.33,0c-23.88-0.03-47.75,0.02-71.63-0.12c-9-0.05-17.45-2.29-24.79-7.79
		c-3.82-2.87-7.07-6.29-9.5-10.5c0.32,0.18,0.65,0.35,0.96,0.55c10.32,6.79,21.75,10.44,34,10.93c11.23,0.45,22.49,0.12,33.74,0.12
		c0.55,0,1.11-0.11,1.66-0.16c0.01-0.14,0.02-0.28,0.03-0.42c-0.66-0.04-1.32-0.11-1.99-0.13c-6.4-0.21-12.69-1.02-18.66-3.49
		c-5.66-2.33-10.6-5.73-14.55-10.43c-1.29-1.54-2.3-3.31-3.43-4.98c0.11-0.1,0.23-0.2,0.34-0.31c1.54,1,3.06,2.03,4.61,3.01
		c9.18,5.8,19.24,8.64,30.06,8.65c20.01,0.01,40.02-0.13,60.03-0.17c15.34-0.03,27.34,9.57,30.51,24.69
		c3.46,16.5-1.64,30.37-13.55,41.96c-4.84,4.7-4.89,4.65-11.64,4.65c-6.65,0-13.3,0-19.95,0
		C175.6,123.34,174.93,123.34,174.26,123.34z M204.58,98.37c0-2.1,0-4.04,0-6.07c-14.88,0-29.6,0-44.67,0
		c2.4,1.87,4.48,3.58,6.66,5.15c0.67,0.49,1.6,0.86,2.42,0.87c11.25,0.09,22.49,0.11,33.74,0.14
		C203.34,98.45,203.95,98.4,204.58,98.37z M261.71,79.86c-0.68-0.87-0.99-1.32-1.34-1.72c-12.43-14.13-27.52-24-45.98-28.23
		c-3.9-0.89-7.99-1.26-11.99-1.29c-14.66-0.09-29.33,0.14-43.99,0.1c-8.37-0.02-16.36-1.83-23.67-6.08
		c-2.53-1.47-4.88-3.23-7.32-4.85c0.08-0.14,0.16-0.28,0.24-0.42c0.3,0.08,0.62,0.13,0.9,0.25c8.08,3.44,16.59,4.71,25.28,4.76
		c15.4,0.08,30.81,0.2,46.21-0.08c14.55-0.26,27.8,3.81,40.22,11.03c8.31,4.83,15.89,10.66,22,18.11c3.27,3.98,7.73,4.76,12.15,6.19
		c7.77,2.51,15.7,4.78,23.07,8.2c11.69,5.42,15.81,20.11,9.49,31.39c-2.81,5.02-7.49,7.23-13.03,6.23c-1.3-0.24-1.04-1.21-1.05-1.98
		c-0.06-4.28-1.03-8.32-2.96-12.14c-9.88-19.61-36.2-21.76-49.31-4.06c-3.58,4.83-5.2,10.28-5.5,16.21
		c-0.03,0.55-0.09,1.11-0.15,1.74c-10.22,0-20.35,0-30.75,0c14.95-10.7,22.41-24.7,20.8-43.35
		C237.13,79.86,249.17,79.86,261.71,79.86z M305.07,101.94c0-0.65,0.04-1.03-0.01-1.41c-0.48-4.07-2.49-7.27-6.07-9.13
		c-3.66-1.9-7.52-3.44-11.37-4.94c-2.4-0.93-4.95-1.49-7.67-2.28c0.15,0.55,0.15,0.79,0.26,0.95c1.85,2.65,3.59,5.41,5.63,7.91
		c1.15,1.41,2.65,2.78,4.29,3.52c3.81,1.74,7.78,3.12,11.7,4.59C302.8,101.52,303.86,101.66,305.07,101.94z M55.68,132.99
		c21.55-1.49,43.04-2.6,64.56-5.77c-1.47-9.32,0.29-17.49,7.39-23.95c4.83-4.4,10.49-6.61,17.06-6.58
		c13.01,0.05,27.04,11.65,24.2,30.7c23.63,0,47.24,0,71.05,0c-1.53-9.39,0.55-17.6,7.78-24.02c5.14-4.57,11.25-6.58,18.09-5.99
		c14.33,1.23,25.23,13.4,22.3,30c0.41,0.08,0.83,0.21,1.25,0.22c1.99,0.03,3.98,0.02,5.97,0.04c2.56,0.04,4.91-0.6,7.19-1.78
		c1.75-0.91,3.63-1.62,5.51-2.22c1.87-0.59,3.81-0.93,5.87-1.08c-1.08,0.8-2.12,1.67-3.25,2.4c-4.19,2.72-8.45,5.34-12.6,8.13
		c-2.28,1.53-4.71,2.35-7.39,1.96c-3.78-0.54-6.32,0.73-9.02,3.63c-10.64,11.45-28.47,10.07-37.73-2.5
		c-0.42-0.57-1.34-1.08-2.03-1.08c-25.06-0.04-50.13-0.01-75.19-0.03c-1.23,0-1.85,0.45-2.57,1.42c-4.99,6.72-11.82,10.05-20.1,9.98
		c-8.32-0.07-14.97-3.74-19.84-10.51c-0.61-0.85-1.24-1.1-2.24-1.13c-17.04-0.35-34.09-0.71-51.13-1.14
		C65.77,133.58,60.72,133.24,55.68,132.99z M161.77,121.67c-0.01-9.57-7.78-17.38-17.33-17.43c-9.8-0.05-17.55,7.67-17.55,17.48
		c0,9.65,7.81,17.48,17.41,17.48C153.83,139.19,161.78,131.21,161.77,121.67z M246.66,121.84c-0.02,9.83,7.66,17.33,17.79,17.38
		c9.09,0.05,17.07-8.12,17.02-17.41c-0.05-9.36-7.77-17.32-16.85-17.37C254.34,104.4,246.67,111.82,246.66,121.84z M159.82,121.76
		c-0.01,8.49-7.06,15.61-15.47,15.62c-8.67,0-15.68-7.07-15.64-15.77c0.04-8.56,6.94-15.39,15.58-15.42
		C153.05,106.16,159.82,112.95,159.82,121.76z M144.22,113.56c-4.46-0.12-8.16,3.43-8.32,7.96c-0.16,4.76,3.56,8.67,8.31,8.74
		c4.34,0.07,8.25-3.68,8.35-8.01C152.69,117.41,149.11,113.69,144.22,113.56z M279.46,121.86c0.06,8.64-6.61,15.46-15.19,15.53
		c-8.8,0.06-15.72-6.66-15.79-15.35c-0.07-8.88,6.75-15.74,15.73-15.81C272.74,106.15,279.39,112.97,279.46,121.86z M272.48,121.83
		c-0.01-4.72-3.61-8.38-8.27-8.41c-4.73-0.03-8.58,3.69-8.6,8.33c-0.02,4.68,3.78,8.66,8.29,8.69
		C268.51,130.46,272.49,126.47,272.48,121.83z"/>
</g>
</svg>
