<?xml version="1.0" encoding="utf-8"?>
<!-- Generator: Adobe Illustrator 27.8.1, SVG Export Plug-In . SVG Version: 6.00 Build 0)  -->
<svg version="1.1" id="Layer_1" xmlns="http://www.w3.org/2000/svg" xmlns:xlink="http://www.w3.org/1999/xlink" x="0px" y="0px"
	 viewBox="0 0 350 230" style="enable-background:new 0 0 350 230;" xml:space="preserve">
<style type="text/css">
	.st0{fill:#FCDBDB;}
	.st1{fill:#F5F9DC;}
	.st2{fill:#FFEEEE;}
	.st3{fill:#DCF9E7;}
	.st4{fill:#F9F4DC;}
	.st5{fill:#F7F6D7;}
	.st6{fill:#F6FCBE;}
	.st7{fill:url(#SVGID_1_);}
	.st8{fill:url(#SVGID_00000106842048794196036390000000043869498870651531_);}
	.st9{fill:url(#SVGID_00000031929644780999598490000008802283224848533407_);}
	.st10{fill:url(#SVGID_00000100365495033532828920000013666558213831249845_);}
	.st11{fill:url(#SVGID_00000057127571055900522820000015494203479261612710_);}
	.st12{fill:url(#SVGID_00000062164536631920700620000015209172949570588325_);}
	.st13{fill-rule:evenodd;clip-rule:evenodd;fill:#231F20;}
	.st14{fill:url(#SVGID_00000150077529627546936800000010307127983738761372_);}
	.st15{fill:url(#SVGID_00000113323658684056935830000015921080860005878925_);}
	.st16{fill:url(#SVGID_00000030481050676889819820000010831058881015730353_);}
	.st17{fill:url(#SVGID_00000133509906264018577630000014322472912855657914_);}
	.st18{fill-rule:evenodd;clip-rule:evenodd;fill:url(#SVGID_00000125590420711782831170000001233891493801088649_);}
	.st19{fill-rule:evenodd;clip-rule:evenodd;fill:url(#SVGID_00000012461246199900364140000009557687213670062756_);}
	.st20{fill-rule:evenodd;clip-rule:evenodd;fill:url(#SVGID_00000097475634362354904180000013459466253492932992_);}
	.st21{fill-rule:evenodd;clip-rule:evenodd;fill:url(#SVGID_00000026886414582349952710000008110984944701539494_);}
	.st22{fill-rule:evenodd;clip-rule:evenodd;fill:url(#SVGID_00000093892153659549672370000002515138882104150665_);}
	.st23{fill:url(#SVGID_00000040541316399132772160000003921623844844787868_);}
	.st24{fill:url(#SVGID_00000083072063025692822560000010934164776530295440_);}
	.st25{fill:url(#SVGID_00000106835569364824935040000008866212805197255844_);}
	.st26{fill:url(#SVGID_00000156557098075944420920000011295843944628507570_);}
	.st27{fill:url(#SVGID_00000174581620721057276320000015918514721671051964_);}
	.st28{fill:#FCCE3A;}
	.st29{fill:#5B62EE;}
	.st30{fill:url(#SVGID_00000083049764730892864060000018197566298640477571_);}
	.st31{fill:url(#SVGID_00000148629413483569339760000005534198267939972750_);}
	.st32{fill:url(#SVGID_00000162339860737176399820000005061435556117636524_);}
	.st33{fill:url(#SVGID_00000156579320104126031720000009668918031299784070_);}
	.st34{fill:url(#SVGID_00000021806213073678051190000000606703804683797938_);}
	.st35{fill-rule:evenodd;clip-rule:evenodd;fill:url(#SVGID_00000016070343264178225120000017612546865787901622_);}
	.st36{fill:url(#SVGID_00000111190618440493418890000009893820935608247432_);}
	.st37{fill:url(#SVGID_00000086678497102050884880000005982047797418661763_);}
	.st38{fill:url(#SVGID_00000147930375026498691190000014029966839869880754_);}
	.st39{fill:url(#SVGID_00000055678614759883119500000010081492780373984900_);}
	
		.st40{fill:url(#SVGID_00000163041607320934782610000009079958351887016600_);stroke:#000000;stroke-width:0.75;stroke-miterlimit:10;}
	.st41{fill:url(#SVGID_00000013167812368666722950000018063586313876526211_);}
	
		.st42{fill:url(#SVGID_00000170993965283933300570000001494635309005293696_);stroke:#000000;stroke-width:0.75;stroke-miterlimit:10;}
	.st43{fill:url(#SVGID_00000062893348146372610200000006211980335425745835_);}
	.st44{fill:url(#SVGID_00000119089655221763727980000009498862058191532982_);}
	.st45{fill:url(#SVGID_00000063594085119224849370000005937845865484025780_);}
	
		.st46{fill:url(#SVGID_00000178910160358245413320000015709514913876434104_);stroke:#000000;stroke-width:0.75;stroke-miterlimit:10;}
	.st47{fill:url(#SVGID_00000114777729281598323080000001864368416563022214_);}
	.st48{fill:url(#SVGID_00000125567598776831964530000007304073790562050956_);}
	.st49{fill:url(#SVGID_00000005239870120191743700000009764594487638561693_);}
	.st50{fill:url(#SVGID_00000001631382913362324010000014188228040241665427_);}
	.st51{fill:url(#XMLID_00000076565991774609723540000015163437541632449966_);}
	.st52{fill:url(#XMLID_00000129889871805983741310000012370044759255205307_);}
	.st53{fill:url(#SVGID_00000002354347710335356450000014657348057837992845_);}
	.st54{opacity:0.4;fill:url(#SVGID_00000056387067056600198730000010670520840097553333_);}
</style>
<g>
	<linearGradient id="SVGID_1_" gradientUnits="userSpaceOnUse" x1="120.6827" y1="98.9061" x2="211.4173" y2="98.9061">
		<stop  offset="0" style="stop-color:#35B053"/>
		<stop  offset="1" style="stop-color:#A5C44D"/>
	</linearGradient>
	<path class="st7" d="M197.49,91.16c-0.14,0.12-0.3,0.29-0.48,0.42c-4.03,2.71-8.01,5.51-12.11,8.11
		c-6.38,4.05-13.01,7.68-19.77,11.06c-0.54,0.27-0.85,0.22-1.28-0.2c-8.82-8.78-17.64-17.54-26.49-26.29
		c-0.53-0.52-0.61-0.95-0.41-1.65c1.57-5.58,3.09-11.18,4.64-16.77c1.98-7.1,8.19-11.97,15.57-12.07c5.94-0.08,11.87-0.08,17.81,0
		c7.33,0.09,13.55,4.94,15.53,12.03c2.3,8.26,4.56,16.54,6.84,24.81C197.38,90.76,197.42,90.91,197.49,91.16z M157.82,103.39
		c3.57,0,7.07,0,10.62,0c-0.05-0.27-0.08-0.5-0.13-0.73c-0.99-4.82-1.99-9.64-2.99-14.46c-0.49-2.38-1-4.75-1.48-7.14
		c-0.1-0.47-0.31-0.68-0.8-0.65c-0.6,0.04-0.59,0.51-0.67,0.9c-1.24,5.98-2.48,11.96-3.71,17.94
		C158.39,100.61,158.11,101.97,157.82,103.39z M203.22,114.31c-6.52,4.94-13.35,9.41-20.47,13.41c-5.34,3.01-10.79,5.81-16.2,8.69
		c-0.44,0.24-0.66,0.48-0.62,1c0.05,0.61,0.01,1.23,0.02,1.84c0.05,2.93,1.97,4.83,4.9,4.83c3.02,0.01,6.04,0,9.05,0
		c8.83,0,17.65,0,26.48,0c0.33,0,0.66-0.02,0.98-0.05c2.05-0.22,3.72-1.81,3.96-3.87c0.09-0.78,0.05-1.57,0.05-2.36
		c0.01-2.8,0.08-5.61,0.01-8.41c-0.05-2.28-1.75-4.03-4.03-4.3c-0.45-0.05-0.63-0.23-0.74-0.65c-0.69-2.56-1.4-5.11-2.1-7.66
		c-0.25-0.92-0.52-1.84-0.79-2.81C203.51,114.12,203.36,114.21,203.22,114.31z M129,111.64c-1.17,4.26-2.35,8.52-3.51,12.79
		c-0.12,0.45-0.32,0.63-0.79,0.68c-2.22,0.24-3.99,2.12-4,4.33c-0.03,3.42,0,6.83,0.03,10.25c0.01,1.29,0.52,2.38,1.5,3.24
		c0.95,0.83,2.07,1.16,3.33,1.16c9.94-0.01,19.88,0,29.82,0c0.35,0,0.7-0.02,1.05-0.07c2.22-0.3,4.04-2.45,3.85-4.29
		c-0.65-0.41-1.24-0.69-1.7-1.11c-1.98-1.83-3.91-3.7-5.86-5.56c-6.75-6.43-13.51-12.86-20.26-19.3c-1.04-0.99-2.09-1.98-3.19-3.02
		C129.16,111.1,129.07,111.37,129,111.64z"/>
	
		<linearGradient id="SVGID_00000127732183364452588860000015286361899032173744_" gradientUnits="userSpaceOnUse" x1="129.6307" y1="88.9704" x2="229.3168" y2="88.9704">
		<stop  offset="0" style="stop-color:#CB1625"/>
		<stop  offset="1" style="stop-color:#F2A812"/>
	</linearGradient>
	<path style="fill:url(#SVGID_00000127732183364452588860000015286361899032173744_);" d="M213.83,39.51
		c0.62,0.46,1.25,0.91,1.86,1.38c4.54,3.54,8.27,7.75,10.79,12.96c3.62,7.49,3.69,15.11,0.74,22.81c-2.03,5.32-5.17,9.97-8.86,14.27
		c-5.24,6.1-11.31,11.28-17.78,16.01c-10.01,7.32-20.72,13.5-31.76,19.11c-2.65,1.35-5.34,2.62-8,3.96
		c-0.64,0.32-1.11,0.27-1.64-0.24c-4.8-4.61-9.62-9.21-14.44-13.8c-4.31-4.11-8.63-8.21-12.96-12.3c-0.37-0.35-0.45-0.64-0.32-1.13
		c1.59-5.69,3.15-11.39,4.72-17.08c0.07-0.27,0.16-0.53,0.3-1.03c1.15,1.2,2.17,2.3,3.23,3.36c7.98,7.93,15.98,15.85,23.96,23.79
		c0.44,0.44,0.79,0.47,1.32,0.2c11.91-5.95,23.36-12.67,34.05-20.64c6.13-4.56,11.9-9.52,16.77-15.44c2.39-2.91,4.68-5.92,6.2-9.4
		c3.31-7.61,2.32-14.73-2.86-21.18c-1.47-1.83-3.26-3.41-4.91-5.1c-0.15-0.15-0.31-0.28-0.47-0.42
		C213.78,39.58,213.81,39.55,213.83,39.51z M226.02,87.35c-0.91,1.23-1.79,2.48-2.73,3.68c-5.1,6.5-11.19,12-17.66,17.09
		c-7.66,6.02-15.77,11.36-24.24,16.16c-6.69,3.79-13.51,7.32-20.43,10.67c-0.93,0.45-1.16,0.41-1.92-0.32
		c-0.9-0.86-1.8-1.72-2.7-2.58c-5.12-4.88-10.24-9.75-15.36-14.63c-3.38-3.22-6.76-6.43-10.14-9.65c-0.18-0.17-0.37-0.33-0.61-0.55
		c-0.18,0.65-0.3,1.21-0.5,1.74c-0.2,0.52-0.09,0.86,0.32,1.25c4.88,4.62,9.75,9.26,14.62,13.89c4.89,4.65,9.78,9.29,14.65,13.96
		c0.46,0.44,0.83,0.48,1.39,0.21c9.3-4.51,18.46-9.28,27.26-14.72c8.44-5.21,16.55-10.86,23.82-17.64
		c4.78-4.45,9.1-9.29,12.43-14.94c0.68-1.16,1.29-2.36,1.93-3.54C226.1,87.39,226.06,87.37,226.02,87.35z"/>
</g>
</svg>
