<?xml version="1.0" encoding="utf-8"?>
<!-- Generator: Adobe Illustrator 27.8.1, SVG Export Plug-In . SVG Version: 6.00 Build 0)  -->
<svg version="1.1" id="Layer_1" xmlns="http://www.w3.org/2000/svg" xmlns:xlink="http://www.w3.org/1999/xlink" x="0px" y="0px"
	 viewBox="0 0 350 230" style="enable-background:new 0 0 350 230;" xml:space="preserve">
<style type="text/css">
	.st0{fill:#FCDBDB;}
	.st1{fill:#F5F9DC;}
	.st2{fill:#FFEEEE;}
	.st3{fill:#DCF9E7;}
	.st4{fill:#F9F4DC;}
	.st5{fill:#F7F6D7;}
	.st6{fill:#F6FCBE;}
	.st7{fill:url(#SVGID_1_);}
	.st8{fill:url(#SVGID_00000183941397999645830140000007261763837637004712_);}
	.st9{fill:url(#SVGID_00000019671671356626395500000000807689936644730780_);}
	.st10{fill:url(#SVGID_00000046304167664570550890000003073379694230327168_);}
	.st11{fill:url(#SVGID_00000070084588789608782180000012003518021771774352_);}
	.st12{fill:url(#SVGID_00000152246785087517744140000018233271260206472376_);}
	.st13{fill-rule:evenodd;clip-rule:evenodd;fill:#231F20;}
	.st14{fill:url(#SVGID_00000042727957473222550920000004623062011812793740_);}
	.st15{fill:url(#SVGID_00000147180065547100266170000009410553077019226517_);}
	.st16{fill:url(#SVGID_00000040536417984560653610000010056725786817448578_);}
	.st17{fill:url(#SVGID_00000016051453589173096650000013366816653466353288_);}
	.st18{fill-rule:evenodd;clip-rule:evenodd;fill:url(#SVGID_00000029043707476445842000000012525570484693003693_);}
	.st19{fill-rule:evenodd;clip-rule:evenodd;fill:url(#SVGID_00000094583964428829366150000018205548363078073987_);}
	.st20{fill-rule:evenodd;clip-rule:evenodd;fill:url(#SVGID_00000130631619631150221140000014398860338740778415_);}
	.st21{fill-rule:evenodd;clip-rule:evenodd;fill:url(#SVGID_00000042695073684775928720000017092202422780103814_);}
	.st22{fill-rule:evenodd;clip-rule:evenodd;fill:url(#SVGID_00000143592882312021433120000010349279895627565982_);}
	.st23{fill:url(#SVGID_00000101789392447825058940000001590790886071889044_);}
	.st24{fill:url(#SVGID_00000060715100534030853270000007835194907580284308_);}
	.st25{fill:url(#SVGID_00000127023106952300650400000007765228810789693583_);}
	.st26{fill:url(#SVGID_00000031185996786584535610000017322916508082716855_);}
	.st27{fill:url(#SVGID_00000011002624688185331530000001224815195245842565_);}
	.st28{fill:#FCCE3A;}
	.st29{fill:#5B62EE;}
	.st30{fill:url(#SVGID_00000011725569988411360880000003474592048024866477_);}
	.st31{fill:url(#SVGID_00000005985686098295050390000013188165753492262820_);}
	.st32{fill:url(#SVGID_00000041273749379876537670000004353691434812124805_);}
	.st33{fill:url(#SVGID_00000060032566165936499110000017669009808834018228_);}
	.st34{fill:url(#SVGID_00000016053364467076427850000017774638408025220747_);}
	.st35{fill-rule:evenodd;clip-rule:evenodd;fill:url(#SVGID_00000087402411486030370260000009452185662897600944_);}
	.st36{fill:url(#SVGID_00000054258760994674355140000005572387695743047609_);}
	.st37{fill:url(#SVGID_00000045600264529816419170000013939019554865129402_);}
	.st38{fill:url(#SVGID_00000008108116569238629450000003781731703963546785_);}
	.st39{fill:url(#SVGID_00000037654867642917598400000016019439221913476760_);}
	
		.st40{fill:url(#SVGID_00000171719159130729746390000017694560984506048925_);stroke:#000000;stroke-width:0.75;stroke-miterlimit:10;}
	.st41{fill:url(#SVGID_00000026871191427209556900000018110825342768204716_);}
	
		.st42{fill:url(#SVGID_00000128484643046599955730000013080801110526877594_);stroke:#000000;stroke-width:0.75;stroke-miterlimit:10;}
	.st43{fill:url(#SVGID_00000168094597873588432270000008544282494197834889_);}
	.st44{fill:url(#SVGID_00000039850197357901916770000004177560230826146199_);}
	.st45{fill:url(#SVGID_00000151517543184150811940000008345846734201034150_);}
	
		.st46{fill:url(#SVGID_00000065764275549150330480000013838055198769564073_);stroke:#000000;stroke-width:0.75;stroke-miterlimit:10;}
	.st47{fill:url(#SVGID_00000073002662873009495710000012367027345829103776_);}
	.st48{fill:url(#SVGID_00000177456080194490512890000005968610362445129857_);}
	.st49{fill:url(#SVGID_00000149366505295440138230000008541848333344488616_);}
	.st50{fill:url(#SVGID_00000036950809230144167550000000277596745953032604_);}
	.st51{fill:url(#XMLID_00000121252928208327459470000016196167589330414483_);}
	.st52{fill:url(#XMLID_00000112611556782301569450000003138010631061634222_);}
	.st53{fill:url(#SVGID_00000133509860452533022010000005310934600797448847_);}
	.st54{opacity:0.4;fill:url(#SVGID_00000169526145041485693000000018012612019736299708_);}
</style>
<g>
	<g>
		<linearGradient id="SVGID_1_" gradientUnits="userSpaceOnUse" x1="204.8946" y1="127.216" x2="234.1608" y2="127.216">
			<stop  offset="0" style="stop-color:#CB1625"/>
			<stop  offset="1" style="stop-color:#F2A812"/>
		</linearGradient>
		<path class="st7" d="M234.16,110.99c-1.33,8.26-4.28,15.08-8.87,20.46c-4.24-0.59-7.4,0.86-11.2,5.19
			c-2.74,3.12-5.53,5.39-8.35,6.8c-0.11-0.85-0.41-1.64-0.85-2.33c3.67-3.64,6.56-8.85,8.65-15.64
			C216.99,114.28,222.17,111.46,234.16,110.99"/>
		
			<linearGradient id="SVGID_00000150785335768438858260000004842726919723684481_" gradientUnits="userSpaceOnUse" x1="191.5643" y1="101.782" x2="216.9716" y2="101.782">
			<stop  offset="0" style="stop-color:#35B053"/>
			<stop  offset="1" style="stop-color:#A5C44D"/>
		</linearGradient>
		<path style="fill:url(#SVGID_00000150785335768438858260000004842726919723684481_);" d="M205.95,64.03
			c15.58,25.38,14.64,50.55-2.81,75.51c-0.63-0.46-1.35-0.79-2.14-0.96c2.02-9.7,0.22-20.98-5.39-33.85
			C187.81,86.84,191.3,77.64,205.95,64.03"/>
		
			<linearGradient id="SVGID_00000163030564214548081600000007531170907004812206_" gradientUnits="userSpaceOnUse" x1="203.4084" y1="114.0153" x2="226.8544" y2="114.0153">
			<stop  offset="0" style="stop-color:#0273BE"/>
			<stop  offset="1" style="stop-color:#3ABEDF"/>
		</linearGradient>
		<path style="fill:url(#SVGID_00000163030564214548081600000007531170907004812206_);" d="M225.31,87.06
			c1.98,9,2.05,17.31,0.22,24.93c-6.04,1.65-9.37,5.38-11.83,13.35c-2.09,6.78-4.97,12-8.65,15.64c-0.43-0.67-0.99-1.24-1.65-1.68
			c3.37-6.44,4.67-14.74,3.88-24.89C206.12,99.23,211.03,93.34,225.31,87.06"/>
		<path class="st13" d="M179.13,46.86c8.56,7.68,15.2,15.91,19.91,24.68c-8.28,9.97-9.31,18.74-3.04,33.13
			c5.61,12.87,7.41,24.15,5.39,33.85c-0.39-0.08-0.79-0.13-1.2-0.13c-0.21,0-0.41,0.01-0.61,0.03c-0.55-12.71-6.67-26-18.36-39.88
			C165.72,80.17,166.6,68.08,179.13,46.86"/>
		
			<linearGradient id="SVGID_00000133529915142341911320000015934908543273030811_" gradientUnits="userSpaceOnUse" x1="205.7634" y1="138.5254" x2="231.8262" y2="138.5254">
			<stop  offset="0" style="stop-color:#662E90"/>
			<stop  offset="1" style="stop-color:#FDFDFD"/>
		</linearGradient>
		<path style="fill:url(#SVGID_00000133529915142341911320000015934908543273030811_);" d="M231.83,132.99
			c-6.29,9.58-14.98,13.87-26.06,12.89c0.24-0.63,0.37-1.3,0.37-2.01c0-0.25-0.02-0.49-0.05-0.73c2.82-1.41,5.6-3.67,8.35-6.8
			C219.86,130.16,224,129.84,231.83,132.99"/>
		
			<linearGradient id="SVGID_00000114073820138962883190000009718146283213914258_" gradientUnits="userSpaceOnUse" x1="194.925" y1="144.2089" x2="206.292" y2="144.2089">
			<stop  offset="0" style="stop-color:#CB1625"/>
			<stop  offset="1" style="stop-color:#F2A812"/>
		</linearGradient>
		<path style="fill:url(#SVGID_00000114073820138962883190000009718146283213914258_);" d="M200.61,138.53
			c3.14,0,5.68,2.54,5.68,5.68s-2.54,5.68-5.68,5.68s-5.68-2.54-5.68-5.68S197.47,138.53,200.61,138.53"/>
	</g>
	
		<linearGradient id="SVGID_00000083050653911349079410000018203790576364049574_" gradientUnits="userSpaceOnUse" x1="117.6153" y1="89.5781" x2="200.1515" y2="89.5781">
		<stop  offset="0" style="stop-color:#CB1625"/>
		<stop  offset="1" style="stop-color:#F2A812"/>
	</linearGradient>
	<path style="fill-rule:evenodd;clip-rule:evenodd;fill:url(#SVGID_00000083050653911349079410000018203790576364049574_);" d="
		M117.62,147.32h30.35l6.56-20.67h2.05h34.04h4.05c-2.68-8.61-7.68-16.62-13.26-23.62h-19.49l6.65-20.97
		c-3.93-13.85,3.34-26.36,10.14-37.89c8.13,7.3,14.87,14.25,20.57,23.73c0.29-0.31,0.59-0.62,0.89-0.93l-12.33-35.14h-36.02
		l4.36,5.15L117.62,147.32z"/>
</g>
</svg>
