<?xml version="1.0" encoding="utf-8"?>
<!-- Generator: Adobe Illustrator 27.8.1, SVG Export Plug-In . SVG Version: 6.00 Build 0)  -->
<svg version="1.1" id="Layer_1" xmlns="http://www.w3.org/2000/svg" xmlns:xlink="http://www.w3.org/1999/xlink" x="0px" y="0px"
	 viewBox="0 0 350 230" style="enable-background:new 0 0 350 230;" xml:space="preserve">
<style type="text/css">
	.st0{fill:#FCDBDB;}
	.st1{fill:#F5F9DC;}
	.st2{fill:#FFEEEE;}
	.st3{fill:#DCF9E7;}
	.st4{fill:#F9F4DC;}
	.st5{fill:#F7F6D7;}
	.st6{fill:#F6FCBE;}
	.st7{fill:url(#SVGID_1_);}
	.st8{fill:url(#SVGID_00000176766157694626179630000009896762672495979152_);}
	.st9{fill:url(#SVGID_00000104693247359634410980000013004226328471592883_);}
	.st10{fill:url(#SVGID_00000150086463470970992820000002490957999064900736_);}
	.st11{fill:url(#SVGID_00000051353046101647355770000011035347357580606119_);}
	.st12{fill:url(#SVGID_00000152961682188382016670000005579704559798733220_);}
	.st13{fill-rule:evenodd;clip-rule:evenodd;fill:#231F20;}
	.st14{fill:url(#SVGID_00000071526603024850834980000005430738657741324442_);}
	.st15{fill:url(#SVGID_00000011733339184279841700000011606512357750138803_);}
	.st16{fill:url(#SVGID_00000031919006638659810630000002328773791956758949_);}
	.st17{fill:url(#SVGID_00000033347321850153615010000004554648117311868817_);}
	.st18{fill-rule:evenodd;clip-rule:evenodd;fill:url(#SVGID_00000115484891408750887850000018334134713611677317_);}
	.st19{fill-rule:evenodd;clip-rule:evenodd;fill:url(#SVGID_00000145025032051173214050000016937741480680095875_);}
	.st20{fill-rule:evenodd;clip-rule:evenodd;fill:url(#SVGID_00000045585186323475734890000001536085756660034731_);}
	.st21{fill-rule:evenodd;clip-rule:evenodd;fill:url(#SVGID_00000125564136949328614590000015096493300439702966_);}
	.st22{fill-rule:evenodd;clip-rule:evenodd;fill:url(#SVGID_00000154415394647273474320000000901185162840624803_);}
	.st23{fill:url(#SVGID_00000124159168116454787280000007885507948511644072_);}
	.st24{fill:url(#SVGID_00000048480004338144481380000011368988482458386064_);}
	.st25{fill:url(#SVGID_00000163784836657107919310000001849935322869778317_);}
	.st26{fill:url(#SVGID_00000034049545792700447640000016827341066919329174_);}
	.st27{fill:url(#SVGID_00000112620612345588066810000013027830042002122624_);}
	.st28{fill:#FCCE3A;}
	.st29{fill:#5B62EE;}
	.st30{fill:url(#SVGID_00000048473509543453742570000009847325289548461999_);}
	.st31{fill:url(#SVGID_00000146461660104544248740000007694666112790797490_);}
	.st32{fill:url(#SVGID_00000080912034858426412400000016924826638514072757_);}
	.st33{fill:url(#SVGID_00000095326752356096043150000011568554220008679842_);}
	.st34{fill:url(#SVGID_00000147194115217754500970000008870612072249195150_);}
	.st35{fill-rule:evenodd;clip-rule:evenodd;fill:url(#SVGID_00000168082381322646427390000004475769416820501657_);}
	.st36{fill:url(#SVGID_00000052068726679327893570000017084904150072517528_);}
	.st37{fill:url(#SVGID_00000182495244467966506260000014934706650886896305_);}
	.st38{fill:url(#SVGID_00000183223971854109476150000017403492919339045504_);}
	.st39{fill:url(#SVGID_00000041993217101790618370000015069240814154999997_);}
	
		.st40{fill:url(#SVGID_00000132048992695204869500000014262140113606618047_);stroke:#000000;stroke-width:0.75;stroke-miterlimit:10;}
	.st41{fill:url(#SVGID_00000070796683234092411840000017608929700437883571_);}
	
		.st42{fill:url(#SVGID_00000183218503797685922590000001143549211683390387_);stroke:#000000;stroke-width:0.75;stroke-miterlimit:10;}
	.st43{fill:url(#SVGID_00000049931155310267381090000006564064255204754869_);}
	.st44{fill:url(#SVGID_00000084509202657721133810000001293753998636492210_);}
	.st45{fill:url(#SVGID_00000174574004460620560130000009870012325403327623_);}
	
		.st46{fill:url(#SVGID_00000102505534833109282840000009344418797692423566_);stroke:#000000;stroke-width:0.75;stroke-miterlimit:10;}
	.st47{fill:url(#SVGID_00000147217990759664216670000005527470038322645404_);}
	.st48{fill:url(#SVGID_00000181059603793827129260000006602602258113886336_);}
	.st49{fill:url(#SVGID_00000153675104843302060910000015664125217265947011_);}
	.st50{fill:url(#SVGID_00000074423474739737420660000006919726285700224688_);}
	.st51{fill:url(#XMLID_00000106109303221361166670000014463168862727506087_);}
	.st52{fill:url(#XMLID_00000037677860942249343410000016051983488456802456_);}
	.st53{fill:url(#SVGID_00000173881852389568214310000014055021448499153028_);}
	.st54{opacity:0.4;fill:url(#SVGID_00000015333581945705413090000016992371066951256231_);}
</style>
<g>
	<g>
		<linearGradient id="SVGID_1_" gradientUnits="userSpaceOnUse" x1="113.5501" y1="112.4956" x2="179.393" y2="112.4956">
			<stop  offset="0" style="stop-color:#88A400"/>
			<stop  offset="1" style="stop-color:#376500"/>
		</linearGradient>
		<path class="st7" d="M176.18,141.1h-55.64c-0.55,0-1.08-0.04-1.58-0.1c-0.38-0.05-0.74-0.12-1.08-0.22
			c-0.11-0.02-0.21-0.04-0.32-0.08c-0.83-0.25-1.55-0.6-2.14-1.05c-0.15-0.11-0.29-0.24-0.42-0.36c-0.12-0.11-0.24-0.24-0.33-0.36
			c-0.02-0.01-0.04-0.03-0.04-0.04c-0.08-0.1-0.16-0.19-0.23-0.3c-0.04-0.05-0.07-0.1-0.11-0.15c-0.04-0.07-0.09-0.15-0.13-0.23
			c-0.05-0.09-0.11-0.18-0.15-0.27c-0.07-0.15-0.13-0.3-0.18-0.45c-0.04-0.11-0.08-0.21-0.1-0.32c-0.04-0.08-0.05-0.17-0.07-0.25
			c-0.02-0.05-0.03-0.1-0.03-0.15c-0.03-0.12-0.05-0.25-0.07-0.38c-0.01-0.09-0.02-0.18-0.02-0.28c-0.01-0.07-0.02-0.14-0.01-0.22
			c-0.04-1.38,0.41-2.97,1.43-4.65l27.62-45.8c1.24-2.06,4.24-2.07,5.49,0l14.04,23.12h-12.76l-3.37-5.39
			c-0.95-1.52-2.48-1.51-3.4,0.03l-14.75,24.44c-0.93,1.52-0.22,2.78,1.57,2.78h30.39c1.79,0,2.47-1.24,1.52-2.75l-1.31-2.09h12.43
			l6.26,10.31l0.2,0.33C180.22,138.36,178.68,141.1,176.18,141.1z"/>
		
			<radialGradient id="SVGID_00000174571796045379215730000003839950031954298529_" cx="179.9117" cy="101.1142" r="34.1315" gradientUnits="userSpaceOnUse">
			<stop  offset="0" style="stop-color:#FF61A1"/>
			<stop  offset="1" style="stop-color:#8500BB"/>
		</radialGradient>
		<path style="fill:url(#SVGID_00000174571796045379215730000003839950031954298529_);" d="M206.83,137c0.18,0.6,0.16,1.23-0.01,1.8
			C207,138.23,207,137.61,206.83,137z M206.82,138.8c-0.09,0.29-0.22,0.58-0.39,0.83c-0.11,0.18-0.25,0.33-0.39,0.48
			c-0.56,0.6-1.37,0.98-2.3,0.98h-6.04c-1.12,0-2.16-0.59-2.74-1.54l-8.48-13.97h13.54l6.47,10.65c0.08,0.13,0.15,0.27,0.21,0.4
			c0.05,0.12,0.1,0.25,0.13,0.38C207,137.61,206.99,138.23,206.82,138.8z M189.69,108.56h-13.54l-22.82-37.59
			c-0.61-1.02-0.62-2.3,0-3.31l3.01-4.99c0.7-1.16,1.95-1.66,3.13-1.52c0.01,0,0.01,0,0.02,0c0.26,0.03,0.52,0.09,0.76,0.18
			c0.38,0.14,0.73,0.36,1.03,0.65c0.2,0.19,0.39,0.42,0.54,0.67L189.69,108.56z"/>
		
			<radialGradient id="SVGID_00000063602480477339200110000006773095212441525176_" cx="201.5793" cy="89.2771" r="44.1657" gradientUnits="userSpaceOnUse">
			<stop  offset="0" style="stop-color:#F2A812"/>
			<stop  offset="0.2115" style="stop-color:#F1A512"/>
			<stop  offset="0.3758" style="stop-color:#EF9B14"/>
			<stop  offset="0.5242" style="stop-color:#EA8B16"/>
			<stop  offset="0.6632" style="stop-color:#E47319"/>
			<stop  offset="0.7957" style="stop-color:#DC551D"/>
			<stop  offset="0.9215" style="stop-color:#D23122"/>
			<stop  offset="1" style="stop-color:#CB1625"/>
		</radialGradient>
		<path style="fill:url(#SVGID_00000063602480477339200110000006773095212441525176_);" d="M233.26,141.1h-7.6
			c-1.1,0-2.14-0.58-2.72-1.53l-8.52-13.98h15.06l6.49,10.67C237.27,138.38,235.75,141.1,233.26,141.1z M176.79,38.99
			c-1.17-1.94-3.93-2.06-5.28-0.24l-0.58,0.79l-3.6,4.86c-0.77,1.04-0.83,2.44-0.16,3.55l36.9,60.62l10.18,0.04l4.91,0.02
			L176.79,38.99z"/>
		
			<linearGradient id="SVGID_00000029026496904476858200000011563913242362472862_" gradientUnits="userSpaceOnUse" x1="138.3881" y1="117.1331" x2="233.7384" y2="117.1331">
			<stop  offset="0" style="stop-color:#0056A2"/>
			<stop  offset="1" style="stop-color:#089DFB"/>
		</linearGradient>
		
			<path style="fill:url(#SVGID_00000029026496904476858200000011563913242362472862_);stroke:#000000;stroke-width:0.75;stroke-miterlimit:10;" d="
			M231.85,122.83h-89.11l-1.16-0.01c-2.5-0.01-4.02-2.74-2.72-4.87l0.75-1.24l2.4-3.92c0.39-0.65,1-1.12,1.7-1.36h56.68l27.46,0.09
			c1.19,0.01,2.29,0.67,2.83,1.73l1.8,3.46l0.89,1.72C234.26,120.14,233.44,122.11,231.85,122.83z"/>
	</g>
</g>
</svg>
