<?xml version="1.0" encoding="utf-8"?>
<!-- Generator: Adobe Illustrator 27.8.1, SVG Export Plug-In . SVG Version: 6.00 Build 0)  -->
<svg version="1.1" id="Layer_1" xmlns="http://www.w3.org/2000/svg" xmlns:xlink="http://www.w3.org/1999/xlink" x="0px" y="0px"
	 viewBox="0 0 350 230" style="enable-background:new 0 0 350 230;" xml:space="preserve">
<style type="text/css">
	.st0{fill:#FBFFCC;}
	.st1{fill:#FFD9E2;}
	.st2{fill:#DCE1FF;}
	.st3{fill:#CACFFF;}
	.st4{fill:#FFCADE;}
	.st5{fill:#F9E4EC;}
	.st6{fill:#F4F7E7;}
	.st7{fill:#E5CAD5;}
	.st8{fill:#FFF9CC;}
	.st9{fill:#E6FFFA;}
	.st10{fill:#ECF7E2;}
	.st11{fill:#F9F9DC;}
	.st12{fill:#F9E1FF;}
	.st13{fill:#CCFFFE;}
	.st14{fill:#FFE9CC;}
	.st15{fill:#FFFECF;}
	.st16{fill:#E9F5FF;}
	.st17{fill:#FCDBDB;}
	.st18{fill:#F5F9DC;}
	.st19{fill:#FFEEEE;}
	.st20{fill:#DCF9E7;}
	.st21{fill:#F9F4DC;}
	.st22{fill:#F7F6D7;}
	.st23{fill:#F6FCBE;}
	.st24{fill:url(#SVGID_1_);}
	.st25{fill:url(#SVGID_00000103263336298873822600000008591136533389526679_);}
	.st26{fill:url(#SVGID_00000005969490828559479500000012074211456195783850_);}
	.st27{fill:url(#SVGID_00000181782891805842401030000006243038044678436788_);}
	.st28{fill:url(#SVGID_00000073701944385936280480000014161452933319764369_);}
	.st29{fill:url(#SVGID_00000111154255766835876200000006362268730548481703_);}
	.st30{fill-rule:evenodd;clip-rule:evenodd;fill:#231F20;}
	.st31{fill:url(#SVGID_00000010302761681799581030000001385316181380594569_);}
	.st32{fill:url(#SVGID_00000140724117195474593870000004270186060455653561_);}
	.st33{fill:url(#SVGID_00000143616676946175730660000007657628058425226420_);}
	.st34{fill:url(#SVGID_00000121994114936919870460000013289836857615437497_);}
	.st35{fill-rule:evenodd;clip-rule:evenodd;fill:url(#SVGID_00000108298828467457815880000000396378920175324298_);}
	.st36{fill-rule:evenodd;clip-rule:evenodd;fill:url(#SVGID_00000099658235595012043080000006626271137747575968_);}
	.st37{fill-rule:evenodd;clip-rule:evenodd;fill:url(#SVGID_00000032612191520080916140000000205056073114807180_);}
	.st38{fill-rule:evenodd;clip-rule:evenodd;fill:url(#SVGID_00000111874210578283964670000005803704260745126333_);}
	.st39{fill-rule:evenodd;clip-rule:evenodd;fill:url(#SVGID_00000122680984168921608610000006637489915105440656_);}
	.st40{fill:url(#SVGID_00000140703172827471558840000003289712138923522193_);}
	.st41{fill:url(#SVGID_00000155848474867984346420000010778613624484006333_);}
	.st42{fill:url(#SVGID_00000164512544361933378110000004181471349647787912_);}
	.st43{fill:url(#SVGID_00000034776395075156943760000017214198182695870609_);}
	.st44{fill:url(#SVGID_00000129171366420045062860000015449651821077366177_);}
	.st45{fill:#FCCE3A;}
	.st46{fill:#5B62EE;}
	.st47{fill:url(#SVGID_00000062907109584239787490000011987442969449383093_);}
	.st48{fill:url(#SVGID_00000177453936852400192870000010059612911660887227_);}
	.st49{fill:url(#SVGID_00000132797180971441538170000009724444071916181140_);}
	.st50{fill:url(#SVGID_00000007416146504687999180000018158373749144320173_);}
	.st51{fill:url(#SVGID_00000139295237545393139900000015949307518196502147_);}
	.st52{fill-rule:evenodd;clip-rule:evenodd;fill:url(#SVGID_00000152955252028568951960000002823588057729245878_);}
	.st53{fill:url(#SVGID_00000145757706783234206990000009080335328605296270_);}
	.st54{fill:url(#SVGID_00000177460036599222340710000013522117452458136486_);}
	.st55{fill:url(#SVGID_00000021111179957546620290000000511096195964830908_);}
	.st56{fill:url(#SVGID_00000092424260233604291640000006359228659368538280_);}
	
		.st57{fill:url(#SVGID_00000119802838756357944360000008610249075492451756_);stroke:#000000;stroke-width:0.75;stroke-miterlimit:10;}
	.st58{fill:url(#SVGID_00000150074549810348759460000011834691583089347743_);}
	
		.st59{fill:url(#SVGID_00000156569727265092736600000009926012863621314965_);stroke:#000000;stroke-width:0.75;stroke-miterlimit:10;}
	.st60{fill:url(#SVGID_00000045588625430206368550000010158531962615308179_);}
	.st61{fill:url(#SVGID_00000178181387829672340550000003229994652822669499_);}
	.st62{fill:url(#SVGID_00000158002129557141680640000000475884191259697307_);}
	
		.st63{fill:url(#SVGID_00000044165532300731718320000011859177569638145441_);stroke:#000000;stroke-width:0.75;stroke-miterlimit:10;}
	.st64{fill:url(#SVGID_00000112616657762231730280000010451125871948225183_);}
	.st65{fill:url(#SVGID_00000061452484309713164910000007902151462317462918_);}
	.st66{fill:url(#SVGID_00000007401272851285141060000008195612595190365874_);}
	.st67{fill:url(#SVGID_00000175307196723140646100000003810224692104757689_);}
	.st68{fill:url(#XMLID_00000147905942978923970760000001039201316067111053_);}
	.st69{fill:url(#XMLID_00000139276757915437813060000016288013005497503908_);}
	.st70{fill:url(#SVGID_00000155119119032202385460000012308192480221880207_);}
	.st71{opacity:0.4;fill:url(#SVGID_00000103265567121867580050000003349224143896709279_);}
	.st72{fill:#E91E63;}
	.st73{fill:#D742E4;}
	.st74{fill:url(#SVGID_00000098901190632628363640000015577890364829621657_);}
	.st75{fill:url(#SVGID_00000183964893089715901860000007016227868566977706_);}
	.st76{fill:url(#SVGID_00000116929461241248189240000016567658428393266823_);}
	.st77{fill:url(#SVGID_00000080914740202607518070000018366819903934176183_);}
	.st78{fill-rule:evenodd;clip-rule:evenodd;fill:url(#SVGID_00000122687628895005308050000004471207588888215685_);}
	.st79{fill-rule:evenodd;clip-rule:evenodd;fill:url(#SVGID_00000038405551667284103840000003994007141950122390_);}
	.st80{fill-rule:evenodd;clip-rule:evenodd;fill:url(#SVGID_00000162347656472161983150000010116880101885740187_);}
	.st81{fill-rule:evenodd;clip-rule:evenodd;fill:url(#SVGID_00000169538211459812674590000005518946859403697046_);}
	.st82{fill-rule:evenodd;clip-rule:evenodd;fill:#1E1A18;}
	.st83{fill-rule:evenodd;clip-rule:evenodd;fill:#FBB03B;}
	.st84{fill:url(#SVGID_00000060749806537291013280000014130663716364232351_);}
	.st85{fill:url(#SVGID_00000049929019397414689310000017606929501787744425_);}
	.st86{fill:url(#SVGID_00000183246302941006658580000014672982000170103427_);}
	.st87{fill:url(#SVGID_00000000904156756329796890000011818772822517405845_);}
	.st88{fill-rule:evenodd;clip-rule:evenodd;fill:#054B9C;}
	.st89{fill-rule:evenodd;clip-rule:evenodd;fill:#6B0896;}
	.st90{fill-rule:evenodd;clip-rule:evenodd;fill:#F7B835;}
	.st91{fill-rule:evenodd;clip-rule:evenodd;fill:#DB69F3;}
	.st92{fill-rule:evenodd;clip-rule:evenodd;fill:#031691;}
	.st93{fill-rule:evenodd;clip-rule:evenodd;fill:url(#SVGID_00000048480707645948778110000015432996097950337689_);}
	.st94{fill-rule:evenodd;clip-rule:evenodd;fill:#E45C4A;}
	.st95{fill:url(#SVGID_00000100342756988382951890000005848406504016354193_);}
	.st96{fill:url(#SVGID_00000151545733631465491470000003760719047826159293_);}
	.st97{fill:url(#SVGID_00000021817621475638209880000012845165114105709974_);}
	.st98{fill:url(#SVGID_00000074399921476446915760000006743828625674525851_);}
	.st99{fill:url(#SVGID_00000182487538710397415960000003884854302974039223_);}
	.st100{fill:url(#SVGID_00000177453377545499015840000007465508962615853705_);}
	.st101{fill:url(#SVGID_00000160190874721970367880000012432762875317506190_);}
	.st102{fill:url(#SVGID_00000065056526278533192210000005856754811201841288_);}
	.st103{fill:url(#SVGID_00000125588864651315216620000008308047735152714644_);}
	.st104{fill:url(#SVGID_00000173141770795891544350000009160363684471612561_);}
	.st105{fill:url(#SVGID_00000041997348887325837490000007620899932169971890_);}
	.st106{fill:#3A4146;}
	.st107{fill:url(#SVGID_00000103247601736521217430000000194949205152427451_);}
	.st108{fill:url(#SVGID_00000022541931377756227210000002625624734458011298_);}
	.st109{fill:#6B16A0;}
	.st110{fill:url(#SVGID_00000003074916352000762780000000722430386744287105_);}
	.st111{fill:url(#SVGID_00000078739325043599333400000010483313543814072479_);}
	.st112{fill:url(#SVGID_00000073697534036256272550000001479250208680048259_);}
	.st113{fill:url(#SVGID_00000147208153304517779640000007279341478893682838_);}
	.st114{fill:url(#SVGID_00000000941408541536294740000004537678328310646159_);}
	.st115{fill:url(#SVGID_00000182527749317330374500000016548121520859675040_);}
	.st116{fill:url(#SVGID_00000030461609914929299580000016391968996720712074_);}
	.st117{fill:url(#SVGID_00000170972136069817709160000004602351788107116966_);}
	.st118{fill:url(#SVGID_00000101086162441965842890000002152525338359704712_);}
	.st119{fill:url(#SVGID_00000101105095419360401570000010901770622319792256_);}
	.st120{fill:url(#XMLID_00000070106611751446396670000014007028738179928988_);}
	.st121{fill:url(#SVGID_00000080893318253780914110000005660211285877151903_);}
	.st122{fill:#F47E20;}
	.st123{fill:#8C7DB5;}
	.st124{fill:#68BBE8;}
	.st125{fill:#DEDF20;}
	.st126{fill:#EB2250;}
	.st127{fill:#F3AC1C;}
	.st128{fill:#8AC241;}
	.st129{fill:#179ED9;}
	.st130{fill:url(#SVGID_00000003816203287839106330000016642547182383046561_);}
	.st131{fill:url(#SVGID_00000131336727390854735400000000778504998577307296_);}
	.st132{fill:url(#SVGID_00000150791565466215046830000003151007680271895435_);}
	.st133{fill:url(#SVGID_00000114067196105652941430000011501832182341865145_);}
	.st134{fill:url(#SVGID_00000132055036613357451380000012899698075096759702_);}
	.st135{fill:#4E4748;}
	.st136{fill:url(#SVGID_00000127740598027972568810000013857013276456042649_);}
	.st137{fill:url(#SVGID_00000161621670535499802220000010678235955461101726_);}
	.st138{fill:url(#XMLID_00000074420653003604299170000001406432051952773289_);}
	.st139{fill:#1B1715;}
	.st140{fill:#989289;}
	.st141{fill:#1E1A18;}
	.st142{fill:#842739;}
	.st143{fill-rule:evenodd;clip-rule:evenodd;fill:#00033F;stroke:#967200;stroke-miterlimit:10;}
	.st144{fill-rule:evenodd;clip-rule:evenodd;fill:url(#SVGID_00000166674358761073066530000007291740024848153019_);}
	.st145{fill-rule:evenodd;clip-rule:evenodd;fill:url(#SVGID_00000027582135806226635870000009275430695045868434_);}
	.st146{fill-rule:evenodd;clip-rule:evenodd;fill:url(#SVGID_00000000919794097318279600000010626225461710433180_);}
	.st147{fill-rule:evenodd;clip-rule:evenodd;fill:url(#SVGID_00000143589312493009938890000015887284700371813289_);}
	.st148{fill-rule:evenodd;clip-rule:evenodd;fill:url(#SVGID_00000037656393739805286470000005165840121120235667_);}
	.st149{fill-rule:evenodd;clip-rule:evenodd;fill:url(#SVGID_00000080895213075180510370000015801062717794840763_);}
	.st150{fill-rule:evenodd;clip-rule:evenodd;fill:url(#SVGID_00000116931826678309573930000007697057652726699161_);}
	.st151{fill-rule:evenodd;clip-rule:evenodd;fill:url(#SVGID_00000005230063626192476170000008305594285240423861_);}
	.st152{fill:url(#SVGID_00000138574842076483834010000015882639223514500743_);}
</style>
<g>
	<linearGradient id="SVGID_1_" gradientUnits="userSpaceOnUse" x1="218.8755" y1="143.9665" x2="91.1177" y2="41.8476">
		<stop  offset="0" style="stop-color:#FF54FF"/>
		<stop  offset="0.4926" style="stop-color:#9C00BF"/>
		<stop  offset="1" style="stop-color:#5A00A9"/>
	</linearGradient>
	<path style="fill-rule:evenodd;clip-rule:evenodd;fill:url(#SVGID_1_);" d="M119.03,70.38c0.05,0.62,0.13,1.25,0.25,1.85
		c-0.05-0.27-0.09-0.54-0.12-0.82C119.1,71.06,119.06,70.72,119.03,70.38z M208.83,137.84c-2.99,2.3-6.17,4.65-9.5,7.06
		c-0.23,0.16-0.46,0.33-0.68,0.5c-1.21,0.88-2.45,1.76-3.7,2.65c-0.71,0.5-1.42,1-2.14,1.5c8.91-7.1,5.82-17.65-1.49-24.37
		c-11-10.19-39.48-26.58-60.54-38.01c-0.75-0.4-1.46-0.84-2.14-1.28c-0.01-0.01-0.01-0.01-0.01-0.01c-0.44-0.3-0.88-0.61-1.3-0.92
		c-0.21-0.16-0.42-0.33-0.62-0.49c-0.6-0.49-1.17-1-1.7-1.52c-0.36-0.35-0.69-0.72-1.03-1.08c-0.26-0.3-0.52-0.61-0.77-0.93
		c-0.49-0.62-0.94-1.27-1.35-1.93c-0.12-0.2-0.24-0.4-0.36-0.61c-0.12-0.2-0.23-0.41-0.34-0.62c-0.16-0.3-0.3-0.61-0.45-0.93
		c-0.14-0.31-0.27-0.63-0.4-0.95c0,0,0,0-0.01-0.01c-0.19-0.5-0.37-1.01-0.51-1.53c-0.05-0.14-0.09-0.28-0.12-0.42
		c-0.09-0.3-0.16-0.59-0.23-0.89c-0.05-0.26-0.11-0.54-0.16-0.82c-0.05-0.27-0.09-0.55-0.12-0.82c-0.05-0.34-0.09-0.68-0.12-1.03
		c-0.02-0.32-0.05-0.64-0.06-0.96c-0.01-0.17-0.01-0.34-0.01-0.51c0-0.17-0.01-0.33-0.01-0.5c0-0.3,0.01-0.61,0.02-0.91
		c0,0,0,0,0.01,0c0.15-3.85,1.27-7.88,3.35-11.85c49.35,26.97,78.46,45.22,86.32,54.62C215.43,118.37,216.73,130.52,208.83,137.84z"
		/>
	
		<linearGradient id="SVGID_00000146471943828873621420000008978444726446538420_" gradientUnits="userSpaceOnUse" x1="108.8435" y1="31.243" x2="241.1614" y2="131.622">
		<stop  offset="0" style="stop-color:#FB872B"/>
		<stop  offset="1" style="stop-color:#D9E021"/>
	</linearGradient>
	<path style="fill-rule:evenodd;clip-rule:evenodd;fill:url(#SVGID_00000146471943828873621420000008978444726446538420_);" d="
		M126.83,29.3c2.3-0.12,4.84,0.32,7.56,1.48C131.67,29.61,129.12,29.17,126.83,29.3z M126.83,29.3c-0.49,0.02-0.96,0.07-1.43,0.16
		C125.86,29.38,126.34,29.33,126.83,29.3z M125.4,29.45c-0.69,0.1-1.35,0.26-1.98,0.47C124.05,29.73,124.71,29.56,125.4,29.45z
		 M227.43,121.79c-0.86,0.89-1.77,1.8-2.75,2.72c-0.54,0.51-1.09,1.03-1.67,1.55c-0.55,0.52-1.14,1.03-1.73,1.56l-0.01,0.01
		c-3.6,3.2-7.8,6.64-12.45,10.22c7.9-7.32,6.6-19.47-0.19-27.57c-7.87-9.4-36.98-27.65-86.32-54.62c-8.42-4.6-9.63-13.29-6.3-19.44
		c0.07-0.12,0.14-0.25,0.21-0.37c0.07-0.12,0.14-0.24,0.22-0.37c0.08-0.12,0.16-0.24,0.23-0.36c0.08-0.12,0.16-0.23,0.24-0.35
		c0.08-0.12,0.16-0.23,0.25-0.34c0.13-0.18,0.27-0.35,0.41-0.51c0.09-0.11,0.18-0.22,0.27-0.32c0.23-0.26,0.48-0.52,0.74-0.76
		c0.1-0.1,0.2-0.19,0.31-0.29c0.79-0.72,1.68-1.33,2.65-1.83c0.19-0.09,0.37-0.19,0.56-0.27c0.02-0.01,0.03-0.02,0.05-0.02
		c0.19-0.08,0.38-0.16,0.58-0.23c0.21-0.09,0.42-0.16,0.63-0.23c0.02-0.01,0.02-0.01,0.04-0.02c0.64-0.2,1.3-0.37,1.98-0.47
		c0.47-0.08,0.94-0.12,1.43-0.16c2.3-0.12,4.84,0.32,7.56,1.48c0.4,0.17,0.82,0.36,1.23,0.57c0.41,0.21,0.82,0.43,1.25,0.67
		c31.57,17.98,67.02,40.05,87.18,55.92C237.68,98.67,240.03,108.85,227.43,121.79z"/>
	
		<linearGradient id="SVGID_00000094588872245112016050000007124527162538604712_" gradientUnits="userSpaceOnUse" x1="152.0294" y1="157.4408" x2="191.1443" y2="124.6346">
		<stop  offset="0" style="stop-color:#5E5E5E"/>
		<stop  offset="0.4926" style="stop-color:#404040"/>
		<stop  offset="1" style="stop-color:#1C1C1C"/>
	</linearGradient>
	<path style="fill-rule:evenodd;clip-rule:evenodd;fill:url(#SVGID_00000094588872245112016050000007124527162538604712_);" d="
		M191.32,125.17c-3.88-3.61-9.95-7.99-17.11-12.64c4.62,3.23,4.93,7.77,0.49,11.26c-2.8,2.23-8.84,6.39-15.06,10.29
		c-20.58,12.86-4.55,40.1,15.88,26.98c5.09-3.25,10.04-6.54,14.76-9.77c0.01,0,0.01-0.01,0.02-0.02c0.21-0.14,0.41-0.29,0.62-0.43
		c0.63-0.44,1.25-0.89,1.89-1.3C201.71,142.45,198.62,131.9,191.32,125.17z M174.27,158.72c-17.88,11.49-30.93-11.38-12.93-22.62
		c-10.4,11.63,4.31,26.71,16.86,20.09C176.9,157.03,175.59,157.87,174.27,158.72z"/>
	
		<linearGradient id="SVGID_00000000199123211682762840000001775925184608874663_" gradientUnits="userSpaceOnUse" x1="146.8031" y1="143.8673" x2="133.0105" y2="90.1238">
		<stop  offset="0" style="stop-color:#2A77FF"/>
		<stop  offset="0.5265" style="stop-color:#003AF5"/>
		<stop  offset="1" style="stop-color:#0D007A"/>
	</linearGradient>
	<path style="fill-rule:evenodd;clip-rule:evenodd;fill:url(#SVGID_00000000199123211682762840000001775925184608874663_);" d="
		M164.85,115.88l-38.68-23c-2.16-1.3-4.85,0.26-4.85,2.75v50.65c0,2.6,2.94,4.12,5.07,2.6l38.69-27.65
		C166.97,119.89,166.87,117.07,164.85,115.88z M127.84,142.93c-1.04,0.74-2.54,0-2.54-1.3v-14.31c2.72,8.37,10.93,8.7,21.84,1.82
		L127.84,142.93z"/>
</g>
</svg>
