<?xml version="1.0" encoding="utf-8"?>
<!-- Generator: Adobe Illustrator 27.8.1, SVG Export Plug-In . SVG Version: 6.00 Build 0)  -->
<svg version="1.1" id="Layer_1" xmlns="http://www.w3.org/2000/svg" xmlns:xlink="http://www.w3.org/1999/xlink" x="0px" y="0px"
	 viewBox="0 0 350 230" style="enable-background:new 0 0 350 230;" xml:space="preserve">
<style type="text/css">
	.st0{fill:#FBFFCC;}
	.st1{fill:#FFD9E2;}
	.st2{fill:#DCE1FF;}
	.st3{fill:#CACFFF;}
	.st4{fill:#FFCADE;}
	.st5{fill:#F9E4EC;}
	.st6{fill:#F4F7E7;}
	.st7{fill:#E5CAD5;}
	.st8{fill:#FFF9CC;}
	.st9{fill:#E6FFFA;}
	.st10{fill:#ECF7E2;}
	.st11{fill:#F9F9DC;}
	.st12{fill:#F9E1FF;}
	.st13{fill:#CCFFFE;}
	.st14{fill:#FFE9CC;}
	.st15{fill:#FFFECF;}
	.st16{fill:#E9F5FF;}
	.st17{fill:#FCDBDB;}
	.st18{fill:#F5F9DC;}
	.st19{fill:#FFEEEE;}
	.st20{fill:#DCF9E7;}
	.st21{fill:#F9F4DC;}
	.st22{fill:#F7F6D7;}
	.st23{fill:#F6FCBE;}
	.st24{fill:url(#SVGID_1_);}
	.st25{fill:url(#SVGID_00000071537435166940709270000008582217679775846328_);}
	.st26{fill:url(#SVGID_00000106830629235629281530000011106406320785958031_);}
	.st27{fill:url(#SVGID_00000164495824985189438900000002945137307016280246_);}
	.st28{fill:url(#SVGID_00000023271416128393592750000004639522627380510622_);}
	.st29{fill:url(#SVGID_00000005233300587197514810000011554987238668889744_);}
	.st30{fill-rule:evenodd;clip-rule:evenodd;fill:#231F20;}
	.st31{fill:url(#SVGID_00000063599687105612453920000014533023734303229091_);}
	.st32{fill:url(#SVGID_00000121259614948592233850000013538271176338599060_);}
	.st33{fill:url(#SVGID_00000127007313550644904000000014568153672231275432_);}
	.st34{fill:url(#SVGID_00000166657105389998506130000014464525659840664999_);}
	.st35{fill-rule:evenodd;clip-rule:evenodd;fill:url(#SVGID_00000109747278784355466650000001268288884181747644_);}
	.st36{fill-rule:evenodd;clip-rule:evenodd;fill:url(#SVGID_00000137098405351309844330000007407141275834419852_);}
	.st37{fill-rule:evenodd;clip-rule:evenodd;fill:url(#SVGID_00000035504886809635649870000017643933002472242360_);}
	.st38{fill-rule:evenodd;clip-rule:evenodd;fill:url(#SVGID_00000063592622273654524670000002579350536694654354_);}
	.st39{fill-rule:evenodd;clip-rule:evenodd;fill:url(#SVGID_00000124161767653483834860000014660823933227676042_);}
	.st40{fill:url(#SVGID_00000075864907517305687470000006532653267170181515_);}
	.st41{fill:url(#SVGID_00000150081956085057307700000000612718878039403162_);}
	.st42{fill:url(#SVGID_00000088830247564529600110000016415876634552406656_);}
	.st43{fill:url(#SVGID_00000111162053184987391740000011508556576738760109_);}
	.st44{fill:url(#SVGID_00000065777214155564495610000003379360010667110313_);}
	.st45{fill:#FCCE3A;}
	.st46{fill:#5B62EE;}
	.st47{fill:url(#SVGID_00000080204947747637228060000000780775425662893220_);}
	.st48{fill:url(#SVGID_00000178920259424379055290000004246994504463821449_);}
	.st49{fill:url(#SVGID_00000018210372175883645870000014990992497151568558_);}
	.st50{fill:url(#SVGID_00000068643562523954502080000004708585492172007330_);}
	.st51{fill:url(#SVGID_00000005968308377781138210000001505397513170251687_);}
	.st52{fill-rule:evenodd;clip-rule:evenodd;fill:url(#SVGID_00000145045780861225837100000004774844191802531213_);}
	.st53{fill:url(#SVGID_00000070831215686624153810000013793383952531962013_);}
	.st54{fill:url(#SVGID_00000029752791519774163460000007061090268629055374_);}
	.st55{fill:url(#SVGID_00000061431860854602145640000012099205241971270539_);}
	.st56{fill:url(#SVGID_00000110471384739089464000000004090130601704485301_);}
	
		.st57{fill:url(#SVGID_00000020368582104243642370000017687589404135908250_);stroke:#000000;stroke-width:0.75;stroke-miterlimit:10;}
	.st58{fill:url(#SVGID_00000168812403504478225610000012213877565215763628_);}
	
		.st59{fill:url(#SVGID_00000118373703365325836910000013787851045305106093_);stroke:#000000;stroke-width:0.75;stroke-miterlimit:10;}
	.st60{fill:url(#SVGID_00000032612915367783241920000009850133108596498618_);}
	.st61{fill:url(#SVGID_00000134219857508072192940000008678065046037992837_);}
	.st62{fill:url(#SVGID_00000139986269110982959740000005967523465525986181_);}
	
		.st63{fill:url(#SVGID_00000127739841066252658420000005009163438614394778_);stroke:#000000;stroke-width:0.75;stroke-miterlimit:10;}
	.st64{fill:url(#SVGID_00000013173848587157635260000014282084905006029751_);}
	.st65{fill:url(#SVGID_00000026878362358163965630000012683451888815048077_);}
	.st66{fill:url(#SVGID_00000099632952788944790960000014947644042245322410_);}
	.st67{fill:url(#SVGID_00000124147508656767018420000018178328624995297933_);}
	.st68{fill:url(#XMLID_00000156564325709175069300000013902995254185898417_);}
	.st69{fill:url(#XMLID_00000079470291134395634920000017478013055204648634_);}
	.st70{fill:url(#SVGID_00000158019834190544855320000017675791805648832673_);}
	.st71{opacity:0.4;fill:url(#SVGID_00000017491960639298886300000005922920814106102420_);}
	.st72{fill:#E91E63;}
	.st73{fill:#D742E4;}
	.st74{fill:url(#SVGID_00000147192977387008628380000016551163185282009242_);}
	.st75{fill:url(#SVGID_00000130613543355275102380000013603703172664073605_);}
	.st76{fill:url(#SVGID_00000108283090762550863360000016381424651832662200_);}
	.st77{fill:url(#SVGID_00000089565248428651906190000002882722601243504824_);}
	.st78{fill-rule:evenodd;clip-rule:evenodd;fill:url(#SVGID_00000121251153482230718180000000491844946927929532_);}
	.st79{fill-rule:evenodd;clip-rule:evenodd;fill:url(#SVGID_00000078040173714960959600000013646340344757856928_);}
	.st80{fill-rule:evenodd;clip-rule:evenodd;fill:url(#SVGID_00000144327701462498324170000006167005330562053558_);}
	.st81{fill-rule:evenodd;clip-rule:evenodd;fill:url(#SVGID_00000181781600208428315820000001386144560977611698_);}
	.st82{fill-rule:evenodd;clip-rule:evenodd;fill:#1E1A18;}
	.st83{fill-rule:evenodd;clip-rule:evenodd;fill:#FBB03B;}
	.st84{fill:url(#SVGID_00000034784457554013242580000006750676185647382713_);}
	.st85{fill:url(#SVGID_00000158714943400385704650000011246610346488933543_);}
	.st86{fill:url(#SVGID_00000078027892617019790570000009202889675057154748_);}
	.st87{fill:url(#SVGID_00000039845681990853529620000007932763000278146230_);}
	.st88{fill-rule:evenodd;clip-rule:evenodd;fill:#054B9C;}
	.st89{fill-rule:evenodd;clip-rule:evenodd;fill:#6B0896;}
	.st90{fill-rule:evenodd;clip-rule:evenodd;fill:#F7B835;}
	.st91{fill-rule:evenodd;clip-rule:evenodd;fill:#DB69F3;}
	.st92{fill-rule:evenodd;clip-rule:evenodd;fill:#031691;}
	.st93{fill-rule:evenodd;clip-rule:evenodd;fill:url(#SVGID_00000066482620440235931750000002511984830115325333_);}
	.st94{fill-rule:evenodd;clip-rule:evenodd;fill:#E45C4A;}
	.st95{fill:url(#SVGID_00000147901332494553390610000003108688001858217645_);}
	.st96{fill:url(#SVGID_00000149369745296539163330000014212744528349527437_);}
	.st97{fill:url(#SVGID_00000147932899153332319150000000737773480612347555_);}
	.st98{fill:url(#SVGID_00000010293361038989743750000006232508869193688715_);}
	.st99{fill:url(#SVGID_00000060713936188558125850000017941352647217562775_);}
	.st100{fill:url(#SVGID_00000026128232708114499600000017565872836171490214_);}
	.st101{fill:url(#SVGID_00000006677231630157879570000003041402235444611001_);}
	.st102{fill:url(#SVGID_00000060007618017967900610000006279239114803364024_);}
	.st103{fill:url(#SVGID_00000029764847833112787550000008013858463667551628_);}
	.st104{fill:url(#SVGID_00000137102938536702803330000016935861740525328828_);}
	.st105{fill:url(#SVGID_00000000180880049359833810000009848013025318547388_);}
	.st106{fill:#3A4146;}
	.st107{fill:url(#SVGID_00000138541633847980981250000002819943279891379614_);}
	.st108{fill:url(#SVGID_00000147180568205703203580000011994241408150705331_);}
	.st109{fill:#6B16A0;}
	.st110{fill:url(#SVGID_00000140008697935626411970000012754474421469678466_);}
	.st111{fill:url(#SVGID_00000056401115205376115850000005422679625685223340_);}
	.st112{fill:url(#SVGID_00000023263333837541347460000017670447842749182599_);}
	.st113{fill:url(#SVGID_00000030470551220071247020000013853931836993777305_);}
	.st114{fill:url(#SVGID_00000011717515624285146580000011946525812190101411_);}
	.st115{fill:url(#SVGID_00000024715371654087286490000015579687889417443977_);}
	.st116{fill:url(#SVGID_00000114054584074731259020000006436899893501228217_);}
	.st117{fill:url(#SVGID_00000147921008620334128750000007241326965562390940_);}
	.st118{fill:url(#SVGID_00000067934279920877178970000005584660405269476791_);}
	.st119{fill:url(#SVGID_00000047051928510524482090000006077155654049024908_);}
	.st120{fill:url(#XMLID_00000054260278291369508300000008620171659688975499_);}
	.st121{fill:url(#SVGID_00000181051673955052647030000015116820276515496343_);}
	.st122{fill:#F47E20;}
	.st123{fill:#8C7DB5;}
	.st124{fill:#68BBE8;}
	.st125{fill:#DEDF20;}
	.st126{fill:#EB2250;}
	.st127{fill:#F3AC1C;}
	.st128{fill:#8AC241;}
	.st129{fill:#179ED9;}
	.st130{fill:url(#SVGID_00000040561013529154579810000015526263118355696826_);}
	.st131{fill:url(#SVGID_00000165927021612137803880000015225313788841203077_);}
	.st132{fill:url(#SVGID_00000043451224816832629270000005281319806505178786_);}
	.st133{fill:url(#SVGID_00000080884864423607125980000018305403591301677755_);}
	.st134{fill:url(#SVGID_00000136392494742574614930000011796977877124963994_);}
	.st135{fill:#4E4748;}
	.st136{fill:url(#SVGID_00000157284658591796317600000013578945196114855075_);}
	.st137{fill:url(#SVGID_00000029768136000139785000000007528214931574756249_);}
	.st138{fill:url(#XMLID_00000119080998784941593640000015783886704333313416_);}
	.st139{fill:#1B1715;}
	.st140{fill:#989289;}
	.st141{fill:#1E1A18;}
	.st142{fill:#842739;}
	.st143{fill-rule:evenodd;clip-rule:evenodd;fill:#00033F;stroke:#967200;stroke-miterlimit:10;}
	.st144{fill-rule:evenodd;clip-rule:evenodd;fill:url(#SVGID_00000100345185523078913440000015622574321138016139_);}
	.st145{fill-rule:evenodd;clip-rule:evenodd;fill:url(#SVGID_00000079467223854688399070000013855750196205914777_);}
	.st146{fill-rule:evenodd;clip-rule:evenodd;fill:url(#SVGID_00000111149028861127322700000007090896267263465863_);}
	.st147{fill-rule:evenodd;clip-rule:evenodd;fill:url(#SVGID_00000080891792126147437430000006401984442291981745_);}
	.st148{fill-rule:evenodd;clip-rule:evenodd;fill:url(#SVGID_00000027600514262074482260000000732341830467430319_);}
	.st149{fill-rule:evenodd;clip-rule:evenodd;fill:url(#SVGID_00000011752171692506548870000014306035820619682959_);}
	.st150{fill-rule:evenodd;clip-rule:evenodd;fill:url(#SVGID_00000115473818638904423930000018018305479523619771_);}
	.st151{fill-rule:evenodd;clip-rule:evenodd;fill:url(#SVGID_00000000217825072332506760000016682164694908677031_);}
	.st152{fill:url(#SVGID_00000103957372924176127410000016817853694012615562_);}
</style>
<g>
	<path class="st82" d="M131.49,128.11c0.45-0.06,0.89-0.14,1.34-0.17c4.43-0.33,8.02-2.38,11.09-5.46
		c3.06-3.07,5.42-6.65,7.49-10.43c2.57-4.7,4.96-9.5,7.55-14.19c2.36-4.25,4.87-8.42,7.36-12.6l0,0l3.73-5.02l0,0
		c1.89-2.08,3.76-4.19,5.81-6.09c4.94-4.58,10.68-7.74,17.35-9.06c4-0.79,8.02-0.76,12.03-0.03c0.16,0.03,0.31,0.13,0.45,0.39
		c-0.23,0.03-0.46,0.08-0.69,0.07c-8.77-0.04-16.28,3.19-22.86,8.82c-5.12,4.38-9.18,9.65-12.6,15.41
		c-2.68,4.52-5.15,9.16-7.63,13.79c-2.85,5.35-5.49,10.82-9.06,15.75c-2.14,2.95-4.56,5.63-7.75,7.48
		c-3.28,1.91-6.82,2.61-10.59,2.11c-0.83-0.11-1.65-0.24-2.47-0.38c-0.2-0.03-0.39-0.13-0.59-0.2
		C131.48,128.25,131.49,128.18,131.49,128.11z M237.36,47.84c-7.53,3.57-15.05,7.15-22.64,10.75c3.6,4.39,7.16,8.73,10.78,13.13
		c4.01-7.96,7.99-15.87,11.97-23.77C237.43,47.91,237.39,47.88,237.36,47.84z M202.31,47.13c0.16,0.13,0.32,0.25,0.47,0.38
		c2.65,2.36,5.3,4.72,7.93,7.1c0.37,0.34,0.69,0.4,1.16,0.26c8.14-2.39,16.28-4.76,24.42-7.13c0.22-0.06,0.43-0.14,0.65-0.21
		c-0.01-0.04-0.03-0.07-0.04-0.11c-11.5-0.15-23-0.3-34.5-0.46C202.38,47.02,202.34,47.08,202.31,47.13z"/>
	<path class="st83" d="M153.97,95.19c-0.5,0.05-1.01,0.11-1.51,0.14c-3.89,0.22-7.54,1.28-10.97,3.12
		c-4.15,2.23-7.52,5.32-10.19,9.19c-2.08,3.02-3.62,6.26-4.41,9.86c-0.23,1.05-0.6,2.1-0.64,3.16c-0.06,1.44,0.04,2.9,0.25,4.33
		c0.27,1.8,0.79,3.53,1.89,5.05c1.55,2.15,3.63,3.42,6.21,3.92c3.64,0.71,7.24,0.74,10.75-0.62c2.09-0.81,3.93-2.06,5.56-3.6
		c2.92-2.76,5.12-6.05,6.97-9.59c1.64-3.14,3.21-6.32,4.75-9.51c1.67-3.47,3.16-7.04,4.94-10.46c2.02-3.9,4.12-7.78,6.47-11.49
		c1.82-2.88,3.94-5.6,6.19-8.17c3.72-4.27,8.19-7.66,13.41-9.92c4.79-2.07,9.82-2.97,15.05-2.6c3.04,0.22,6.02,0.76,8.87,1.9
		c0.32,0.13,0.6,0.33,0.9,0.5c-0.01,0.08-0.02,0.16-0.03,0.23c-0.8,0.07-1.61,0.15-2.41,0.19c-4.7,0.23-9.1,1.55-13.13,3.92
		c-3.97,2.33-7.33,5.41-10.27,8.96c-3.13,3.79-5.83,7.86-8.12,12.21c-1.95,3.71-3.89,7.43-5.68,11.21
		c-1.81,3.83-3.45,7.75-5.14,11.64c-1.25,2.87-2.41,5.77-3.71,8.62c-0.81,1.78-1.74,3.51-2.7,5.21c-1.24,2.18-2.43,4.4-3.88,6.44
		c-1.85,2.63-4.22,4.77-6.91,6.57c-3.42,2.29-7.13,3.84-11.18,4.64c-3.5,0.7-7.01,0.82-10.55,0.34c-3.43-0.46-6.67-1.45-9.71-3.11
		c-5.18-2.83-8.83-7.01-10.88-12.52c-0.7-1.88-1.05-3.87-1.35-5.88c-0.4-2.8-0.3-5.56,0.08-8.31c0.48-3.52,1.31-6.97,2.61-10.29
		c1.09-2.79,2.41-5.44,4.18-7.86c2.46-3.37,5.53-6.06,9.33-7.81c3.28-1.51,6.74-2.35,10.38-2.42c2.95-0.06,5.89,0.05,8.78,0.66
		c1.82,0.39,3.59,0.95,5.38,1.46c0.19,0.05,0.34,0.27,0.51,0.41C154.01,95.01,153.99,95.1,153.97,95.19z M236.58,47.88
		c-0.08,0.01-0.16,0.02-0.23,0.04c-8.07,2.41-16.15,4.82-24.22,7.26c-0.24,0.07-0.48,0.31-0.62,0.54c-0.96,1.61-1.9,3.24-2.85,4.86
		c-0.08,0.13-0.12,0.28-0.25,0.57c9.5-4.44,18.84-8.8,28.19-13.17C236.59,47.95,236.58,47.92,236.58,47.88z M224.61,84.56
		c1.34-1.4,2.75-2.75,3.97-4.25c3.45-4.27,5.29-9.13,4.97-14.7c-0.1-1.74-0.4-3.44-0.96-5.26c-0.6,1.45-1.15,2.75-1.66,4.06
		c-0.12,0.31-0.12,0.68-0.1,1.02c0.1,1.24,0.35,2.49,0.34,3.73c-0.02,4.14-1.49,7.84-3.75,11.22c-1.22,1.83-2.66,3.5-3.93,5.16
		C223.8,85.27,224.24,84.94,224.61,84.56z M196.45,42.77c3.19-0.93,6.44-1.38,9.77-1.31c3.92,0.09,7.72,0.78,11.04,2.96
		c1.49,0.99,3.01,1.39,4.72,1.43c0.46,0.01,0.91,0.08,1.37,0.1c0.23,0.01,0.47,0,0.83,0c-1.86-1.53-3.76-2.77-5.83-3.71
		c-4.36-1.99-8.93-2.45-13.65-1.8c-2.99,0.41-5.87,1.2-8.65,2.42C196.18,42.84,196.32,42.81,196.45,42.77z M216.28,61.06
		c-0.53-0.67-1.08-1.32-1.59-2c-0.23-0.31-0.42-0.36-0.77-0.19c-1.59,0.74-3.19,1.45-4.79,2.17c-0.11,0.05-0.21,0.14-0.31,0.2
		c2.49,0,4.95,0,7.4,0C216.25,61.18,216.27,61.12,216.28,61.06z"/>
</g>
</svg>
