<?xml version="1.0" encoding="utf-8"?>
<!-- Generator: Adobe Illustrator 27.8.1, SVG Export Plug-In . SVG Version: 6.00 Build 0)  -->
<svg version="1.1" id="Layer_1" xmlns="http://www.w3.org/2000/svg" xmlns:xlink="http://www.w3.org/1999/xlink" x="0px" y="0px"
	 viewBox="0 0 350 230" style="enable-background:new 0 0 350 230;" xml:space="preserve">
<style type="text/css">
	.st0{fill:#FBFFCC;}
	.st1{fill:#FFD9E2;}
	.st2{fill:#DCE1FF;}
	.st3{fill:#CACFFF;}
	.st4{fill:#FFCADE;}
	.st5{fill:#F9E4EC;}
	.st6{fill:#F4F7E7;}
	.st7{fill:#E5CAD5;}
	.st8{fill:#FFF9CC;}
	.st9{fill:#E6FFFA;}
	.st10{fill:#ECF7E2;}
	.st11{fill:#F9F9DC;}
	.st12{fill:#F9E1FF;}
	.st13{fill:#CCFFFE;}
	.st14{fill:#FFE9CC;}
	.st15{fill:#FFFECF;}
	.st16{fill:#E9F5FF;}
	.st17{fill:#FCDBDB;}
	.st18{fill:#F5F9DC;}
	.st19{fill:#FFEEEE;}
	.st20{fill:#DCF9E7;}
	.st21{fill:#F9F4DC;}
	.st22{fill:#F7F6D7;}
	.st23{fill:#F6FCBE;}
	.st24{fill:url(#SVGID_1_);}
	.st25{fill:url(#SVGID_00000047752700529693478130000006401328460888862592_);}
	.st26{fill:url(#SVGID_00000059289618731935720200000018318576441755587000_);}
	.st27{fill:url(#SVGID_00000114035120664740640160000003357965383654488224_);}
	.st28{fill:url(#SVGID_00000078041418277288445750000015360384667611179931_);}
	.st29{fill:url(#SVGID_00000137850732592108474130000010196874381643388567_);}
	.st30{fill-rule:evenodd;clip-rule:evenodd;fill:#231F20;}
	.st31{fill:url(#SVGID_00000108291575563073929960000007550640565862438026_);}
	.st32{fill:url(#SVGID_00000149380599367512472090000012591712653706640556_);}
	.st33{fill:url(#SVGID_00000092425305513585018590000016862708240637772966_);}
	.st34{fill:url(#SVGID_00000039108748407148680090000001586564792341539770_);}
	.st35{fill-rule:evenodd;clip-rule:evenodd;fill:url(#SVGID_00000062872505869029559870000009710124616739571125_);}
	.st36{fill-rule:evenodd;clip-rule:evenodd;fill:url(#SVGID_00000158008858027275536540000000162307035211823539_);}
	.st37{fill-rule:evenodd;clip-rule:evenodd;fill:url(#SVGID_00000167378955139694010200000001408942541803564973_);}
	.st38{fill-rule:evenodd;clip-rule:evenodd;fill:url(#SVGID_00000182509183801540055590000012386437413093074336_);}
	.st39{fill-rule:evenodd;clip-rule:evenodd;fill:url(#SVGID_00000038382741785038696960000015600898222276426421_);}
	.st40{fill:url(#SVGID_00000073702899790703988160000015898543812419680400_);}
	.st41{fill:url(#SVGID_00000022528003828918290370000012158231055786286266_);}
	.st42{fill:url(#SVGID_00000123421319783095240980000000712311411023834241_);}
	.st43{fill:url(#SVGID_00000181778020976659515650000013276317078469574031_);}
	.st44{fill:url(#SVGID_00000034077474624428121120000010679393900007554489_);}
	.st45{fill:#FCCE3A;}
	.st46{fill:#5B62EE;}
	.st47{fill:url(#SVGID_00000109012131738162061910000013732203061716465339_);}
	.st48{fill:url(#SVGID_00000125580657362893128100000011918459556700853907_);}
	.st49{fill:url(#SVGID_00000177480487857617750050000000004547336678290060_);}
	.st50{fill:url(#SVGID_00000170987312541048648680000007400360609038287512_);}
	.st51{fill:url(#SVGID_00000021798556838608453560000004226476046515824268_);}
	.st52{fill-rule:evenodd;clip-rule:evenodd;fill:url(#SVGID_00000124143262450522868520000013785688077102023814_);}
	.st53{fill:url(#SVGID_00000121263489968061178880000013877331316713926813_);}
	.st54{fill:url(#SVGID_00000067203844096124831240000005406763727036691123_);}
	.st55{fill:url(#SVGID_00000084492677203918251940000005606484608562412445_);}
	.st56{fill:url(#SVGID_00000183961114430621028970000007823449186403991218_);}
	
		.st57{fill:url(#SVGID_00000165946825943939724340000016930959418214023342_);stroke:#000000;stroke-width:0.75;stroke-miterlimit:10;}
	.st58{fill:url(#SVGID_00000034047558382910836860000005317753571260491159_);}
	
		.st59{fill:url(#SVGID_00000079480772860616865730000012013805056295299974_);stroke:#000000;stroke-width:0.75;stroke-miterlimit:10;}
	.st60{fill:url(#SVGID_00000011751596312193502590000011039826196573258407_);}
	.st61{fill:url(#SVGID_00000057142351111640445450000006617133907241470606_);}
	.st62{fill:url(#SVGID_00000065765905029742726260000006075818897283257229_);}
	
		.st63{fill:url(#SVGID_00000052791405228450688110000016814598149887540396_);stroke:#000000;stroke-width:0.75;stroke-miterlimit:10;}
	.st64{fill:url(#SVGID_00000104671282898214696490000015606464140826622885_);}
	.st65{fill:url(#SVGID_00000070826270904001731970000018377476901402067383_);}
	.st66{fill:url(#SVGID_00000070103583598424004350000012130242039427121577_);}
	.st67{fill:url(#SVGID_00000054980667164042779110000016380103510480371350_);}
	.st68{fill:url(#XMLID_00000041253619531808412430000017630783873566207654_);}
	.st69{fill:url(#XMLID_00000145756239554922559200000003165512147284102533_);}
	.st70{fill:url(#SVGID_00000145770529965302968810000007276229201695721355_);}
	.st71{opacity:0.4;fill:url(#SVGID_00000088093497780090663630000004894039047221699507_);}
	.st72{fill:#E91E63;}
	.st73{fill:#D742E4;}
	.st74{fill:url(#SVGID_00000057116159019135384110000015433055464058650296_);}
	.st75{fill:url(#SVGID_00000083047180624601691990000007562862250092999827_);}
	.st76{fill:url(#SVGID_00000134242463801322840870000000329846361036749984_);}
	.st77{fill:url(#SVGID_00000067938653226478641240000013641331804723736709_);}
	.st78{fill-rule:evenodd;clip-rule:evenodd;fill:url(#SVGID_00000013193535899868239230000016065023399034380976_);}
	.st79{fill-rule:evenodd;clip-rule:evenodd;fill:url(#SVGID_00000085961028519514043460000011401276496095766184_);}
	.st80{fill-rule:evenodd;clip-rule:evenodd;fill:url(#SVGID_00000025439586797907395350000013587137805729403301_);}
	.st81{fill-rule:evenodd;clip-rule:evenodd;fill:url(#SVGID_00000129198585211860149090000003249135658290023305_);}
	.st82{fill-rule:evenodd;clip-rule:evenodd;fill:#1E1A18;}
	.st83{fill-rule:evenodd;clip-rule:evenodd;fill:#FBB03B;}
	.st84{fill:url(#SVGID_00000075125003631042868230000011909084881749925523_);}
	.st85{fill:url(#SVGID_00000085962785090527008550000009499765639326882710_);}
	.st86{fill:url(#SVGID_00000049224277166901545730000002080887677540625311_);}
	.st87{fill:url(#SVGID_00000084513622876578473790000005081582276920354450_);}
	.st88{fill-rule:evenodd;clip-rule:evenodd;fill:#054B9C;}
	.st89{fill-rule:evenodd;clip-rule:evenodd;fill:#6B0896;}
	.st90{fill-rule:evenodd;clip-rule:evenodd;fill:#F7B835;}
	.st91{fill-rule:evenodd;clip-rule:evenodd;fill:#DB69F3;}
	.st92{fill-rule:evenodd;clip-rule:evenodd;fill:#031691;}
	.st93{fill-rule:evenodd;clip-rule:evenodd;fill:url(#SVGID_00000111908055136778940890000014602275832839458439_);}
	.st94{fill-rule:evenodd;clip-rule:evenodd;fill:#E45C4A;}
	.st95{fill:url(#SVGID_00000169525796442826924150000017707160030692065205_);}
	.st96{fill:url(#SVGID_00000034050561341037372800000013128614935187946115_);}
	.st97{fill:url(#SVGID_00000142874315829486837900000001555518097335530423_);}
	.st98{fill:url(#SVGID_00000174583888868880130400000000433486455283839933_);}
	.st99{fill:url(#SVGID_00000102510801196238515240000006703436499968252079_);}
	.st100{fill:url(#SVGID_00000065757957546708219820000015427220020159480448_);}
	.st101{fill:url(#SVGID_00000004515340701707781660000014610579468179171478_);}
	.st102{fill:url(#SVGID_00000054237255401439193890000003618882355504433538_);}
	.st103{fill:url(#SVGID_00000013878222166306150120000018345548028880993448_);}
	.st104{fill:url(#SVGID_00000080925993703388580750000013234867461480588214_);}
	.st105{fill:url(#SVGID_00000023982882685100793690000010163483707891561869_);}
	.st106{fill:#3A4146;}
	.st107{fill:url(#SVGID_00000116212356723968910080000017959254179299284925_);}
	.st108{fill:url(#SVGID_00000044870692643988502550000003126357777637592730_);}
	.st109{fill:#6B16A0;}
	.st110{fill:url(#SVGID_00000005967922081060740230000007720659639863627168_);}
	.st111{fill:url(#SVGID_00000068657913071608627480000015315864515945174947_);}
	.st112{fill:url(#SVGID_00000029010847900533429380000014801971174013870236_);}
	.st113{fill:url(#SVGID_00000152981694806759084240000016268742707448312731_);}
	.st114{fill:url(#SVGID_00000086666901387609850090000012672418748093287860_);}
	.st115{fill:url(#SVGID_00000111165390758526810080000003034807316428180615_);}
	.st116{fill:url(#SVGID_00000127755391717322976680000014175711196273248902_);}
	.st117{fill:url(#SVGID_00000121961894353223623330000001524124622635082658_);}
	.st118{fill:url(#SVGID_00000121239815896863109200000010762560098748201864_);}
	.st119{fill:url(#SVGID_00000009564554658646029760000012955088853454436994_);}
	.st120{fill:url(#XMLID_00000151534887711146964730000010401929408756249738_);}
	.st121{fill:url(#SVGID_00000170245016368895025080000007006027787023593656_);}
	.st122{fill:#F47E20;}
	.st123{fill:#8C7DB5;}
	.st124{fill:#68BBE8;}
	.st125{fill:#DEDF20;}
	.st126{fill:#EB2250;}
	.st127{fill:#F3AC1C;}
	.st128{fill:#8AC241;}
	.st129{fill:#179ED9;}
	.st130{fill:url(#SVGID_00000165924592484687422900000006302076713867510456_);}
	.st131{fill:url(#SVGID_00000171682501624119295430000012114917838353987490_);}
	.st132{fill:url(#SVGID_00000047747430063520641560000009226399972016151983_);}
	.st133{fill:url(#SVGID_00000129188824514395389960000007933898376871020948_);}
	.st134{fill:url(#SVGID_00000098914450408016792710000000122549565552455042_);}
	.st135{fill:#4E4748;}
	.st136{fill:url(#SVGID_00000062898011756809622050000015522380541674867610_);}
	.st137{fill:url(#SVGID_00000014616363205799152440000017977987977987544737_);}
	.st138{fill:url(#XMLID_00000057134801167597576520000000897575366794460074_);}
	.st139{fill:#1B1715;}
	.st140{fill:#989289;}
	.st141{fill:#1E1A18;}
	.st142{fill:#842739;}
	.st143{fill-rule:evenodd;clip-rule:evenodd;fill:#00033F;stroke:#967200;stroke-miterlimit:10;}
	.st144{fill-rule:evenodd;clip-rule:evenodd;fill:url(#SVGID_00000055685831314959559140000011205084749856456877_);}
	.st145{fill-rule:evenodd;clip-rule:evenodd;fill:url(#SVGID_00000041264268698760460590000012724871004566409145_);}
	.st146{fill-rule:evenodd;clip-rule:evenodd;fill:url(#SVGID_00000146458466474437106350000009370688018783611564_);}
	.st147{fill-rule:evenodd;clip-rule:evenodd;fill:url(#SVGID_00000176762491133858492870000006343033423702770326_);}
	.st148{fill-rule:evenodd;clip-rule:evenodd;fill:url(#SVGID_00000132075410947754044830000011066832387753192577_);}
	.st149{fill-rule:evenodd;clip-rule:evenodd;fill:url(#SVGID_00000180365057718719098270000000304968560767545750_);}
	.st150{fill-rule:evenodd;clip-rule:evenodd;fill:url(#SVGID_00000158718926724993372750000006075916209322512316_);}
	.st151{fill-rule:evenodd;clip-rule:evenodd;fill:url(#SVGID_00000048499516329311637580000018045129739914393493_);}
	.st152{fill:url(#SVGID_00000150095813184740921480000002632204855480337568_);}
</style>
<g>
	<linearGradient id="SVGID_1_" gradientUnits="userSpaceOnUse" x1="117.2305" y1="132.472" x2="235.853" y2="132.472">
		<stop  offset="0" style="stop-color:#D0008E"/>
		<stop  offset="0.4731" style="stop-color:#FF9300"/>
		<stop  offset="0.5432" style="stop-color:#FF9706"/>
		<stop  offset="0.6346" style="stop-color:#FEA316"/>
		<stop  offset="0.7376" style="stop-color:#FDB631"/>
		<stop  offset="0.8493" style="stop-color:#FCD256"/>
		<stop  offset="0.9666" style="stop-color:#FAF486"/>
		<stop  offset="1" style="stop-color:#FAFF95"/>
	</linearGradient>
	<path class="st24" d="M175.63,145.65c-17.95,1.35-28.82-5.23-28.82-5.23c5.1,6.75,11.69,10.25,12.1,10.46
		c-10.25-3.03-19.28-8.85-26.25-16.58c-1.78-8.48,3.49-16.08,12.25-20.24c6.15,10.3,17.41,17.21,30.25,17.21
		c1.58,0,3.15-0.1,4.67-0.31c-16.34,5.17-27.34,1.27-27.76,1.12C161.23,142.48,175.63,145.65,175.63,145.65z"/>
	
		<linearGradient id="SVGID_00000060000663407247348020000016365768426061352584_" gradientUnits="userSpaceOnUse" x1="111.1321" y1="139.4345" x2="229.754" y2="139.4345">
		<stop  offset="0" style="stop-color:#D0008E"/>
		<stop  offset="0.4731" style="stop-color:#FF9300"/>
		<stop  offset="0.5432" style="stop-color:#FF9706"/>
		<stop  offset="0.6346" style="stop-color:#FEA316"/>
		<stop  offset="0.7376" style="stop-color:#FDB631"/>
		<stop  offset="0.8493" style="stop-color:#FCD256"/>
		<stop  offset="0.9666" style="stop-color:#FAF486"/>
		<stop  offset="1" style="stop-color:#FAFF95"/>
	</linearGradient>
	<path style="fill:url(#SVGID_00000060000663407247348020000016365768426061352584_);" d="M195.86,143.73c0,0-10.52,9.54-26.76,9.18
		c-3.49-0.37-6.9-1.05-10.17-2.02c0,0-0.01,0-0.02-0.01c-0.41-0.21-7.01-3.7-12.1-10.46c0,0,10.87,6.59,28.82,5.23
		c0,0-14.4-3.17-23.55-13.57c0.42,0.15,11.43,4.04,27.76-1.12c0.01,0,0.03-0.01,0.04-0.01c5.05-0.67,9.75-2.42,13.89-5
		c0,0-7.51,7.96-17.23,10.13c0,0,13.37,1.8,23.67-1.9c0,0-5.73,5.79-15.55,9.56C184.66,143.73,191.87,145.34,195.86,143.73z"/>
	
		<linearGradient id="SVGID_00000103946455432798092350000004828064212700568472_" gradientUnits="userSpaceOnUse" x1="105.9469" y1="133.2498" x2="224.5709" y2="133.2498">
		<stop  offset="0" style="stop-color:#D0008E"/>
		<stop  offset="0.4731" style="stop-color:#FF9300"/>
		<stop  offset="0.5432" style="stop-color:#FF9706"/>
		<stop  offset="0.6346" style="stop-color:#FEA316"/>
		<stop  offset="0.7376" style="stop-color:#FDB631"/>
		<stop  offset="0.8493" style="stop-color:#FCD256"/>
		<stop  offset="0.9666" style="stop-color:#FAF486"/>
		<stop  offset="1" style="stop-color:#FAFF95"/>
	</linearGradient>
	<path style="fill:url(#SVGID_00000103946455432798092350000004828064212700568472_);" d="M228.21,117.43
		c-8.46,20.99-29.02,35.8-53.04,35.8c-2.05,0-4.07-0.11-6.07-0.32c16.24,0.37,26.76-9.18,26.76-9.18c-4,1.61-11.2,0-11.2,0
		c9.83-3.77,15.55-9.56,15.55-9.56c-10.3,3.7-23.67,1.9-23.67,1.9c9.71-2.17,17.23-10.13,17.23-10.13
		c5.02-3.14,9.21-7.5,12.12-12.68c-0.09,0.49-1.7,8.59-6.13,14.45c0,0,5.37-1.13,12.57-6.51c0,0-1.94,7.87-7.54,12.96
		C204.79,134.17,217.79,131.15,228.21,117.43z"/>
	
		<linearGradient id="SVGID_00000158026182621808564420000009994235558039479177_" gradientUnits="userSpaceOnUse" x1="126.0731" y1="120.5516" x2="244.6988" y2="120.5516">
		<stop  offset="0" style="stop-color:#D0008E"/>
		<stop  offset="0.4731" style="stop-color:#FF9300"/>
		<stop  offset="0.5432" style="stop-color:#FF9706"/>
		<stop  offset="0.6346" style="stop-color:#FEA316"/>
		<stop  offset="0.7376" style="stop-color:#FDB631"/>
		<stop  offset="0.8493" style="stop-color:#FCD256"/>
		<stop  offset="0.9666" style="stop-color:#FAF486"/>
		<stop  offset="1" style="stop-color:#FAFF95"/>
	</linearGradient>
	<path style="fill:url(#SVGID_00000158026182621808564420000009994235558039479177_);" d="M132.67,134.3
		c-3.72-10.88,0.19-21.03,8.96-27.5c0.82,2.56,1.93,5,3.29,7.26C136.15,118.22,130.88,125.82,132.67,134.3z"/>
	
		<linearGradient id="SVGID_00000037656756814896766320000006768291942439826342_" gradientUnits="userSpaceOnUse" x1="-76.3457" y1="99.8993" x2="357.6077" y2="99.8993">
		<stop  offset="0" style="stop-color:#521C89"/>
		<stop  offset="0.5164" style="stop-color:#8D1AF1"/>
		<stop  offset="1" style="stop-color:#FFA5F6"/>
	</linearGradient>
	<path style="fill:url(#SVGID_00000037656756814896766320000006768291942439826342_);" d="M205.9,67.55c0,0-4.48,9.14-14.42,10.76
		c-3.7,0.6-7.01-0.32-9.42-1.41c1.84,0.24,3.87,0.25,5.92-0.21c8.65-1.95,13.13-8.21,14.81-11.19
		C204.58,66.38,205.9,67.55,205.9,67.55z M174.1,74.25l-2.59,7.32l-12.03,5.63l-1.39,3.91l16.92-7.92l2.54-7.4
		C175.44,75.05,174.1,74.25,174.1,74.25z M132.53,134.15c0.04,0.06,0.08,0.1,0.14,0.16c-16.94-25.53,6.19-47.31,24.83-52.98
		l1.44-4.03C139.95,81.57,111.24,107.14,132.53,134.15z"/>
	
		<linearGradient id="SVGID_00000110431203730578502850000003244589442858435989_" gradientUnits="userSpaceOnUse" x1="101.9834" y1="86.5887" x2="229.8714" y2="86.5887">
		<stop  offset="0" style="stop-color:#521C89"/>
		<stop  offset="0.5164" style="stop-color:#8D1AF1"/>
		<stop  offset="1" style="stop-color:#FFA5F6"/>
	</linearGradient>
	<path style="fill:url(#SVGID_00000110431203730578502850000003244589442858435989_);" d="M230.85,83l-76.87,18.09
		c-4.75,1.23-8.92,3.19-12.35,5.72c-8.76,6.47-12.68,16.62-8.96,27.5c-16.94-25.53,6.19-47.31,24.83-52.98l-2.91,8.17l4.89-2.3
		l-1.39,3.91l16.92-7.92l2.54-7.4c1.26,0.45,2.81,0.88,4.5,1.11c2.42,1.09,5.73,2.01,9.42,1.41c9.93-1.62,14.42-10.76,14.42-10.76
		s-1.32-1.17-3.11-2.05c0.3-0.53,0.51-0.95,0.64-1.23c-1.59-1.44-8.68-7.14-18.92-5.73c-7.18,0.99-12.14,7.15-12.14,7.15l-4.99-5.95
		l-18.63-1.49l8.35,9.9c0,0-23.75,1.88-37.95,16.38c5.33-26.05,28.39-45.65,56.02-45.65C202.26,38.88,224.95,57.7,230.85,83z
		 M187.16,63.41c-4.07,0.62-7.11,2.88-6.78,5.05c0.33,2.17,3.9,3.44,7.97,2.82c4.07-0.62,7.11-2.88,6.78-5.05
		C194.8,64.06,191.23,62.79,187.16,63.41z"/>
</g>
</svg>
