<?xml version="1.0" encoding="utf-8"?>
<!-- Generator: Adobe Illustrator 27.8.1, SVG Export Plug-In . SVG Version: 6.00 Build 0)  -->
<svg version="1.1" id="Layer_1" xmlns="http://www.w3.org/2000/svg" xmlns:xlink="http://www.w3.org/1999/xlink" x="0px" y="0px"
	 viewBox="0 0 350 230" style="enable-background:new 0 0 350 230;" xml:space="preserve">
<style type="text/css">
	.st0{fill:#FBFFCC;}
	.st1{fill:#FFD9E2;}
	.st2{fill:#DCE1FF;}
	.st3{fill:#CACFFF;}
	.st4{fill:#FFCADE;}
	.st5{fill:#F9E4EC;}
	.st6{fill:#F4F7E7;}
	.st7{fill:#E5CAD5;}
	.st8{fill:#FFF9CC;}
	.st9{fill:#E6FFFA;}
	.st10{fill:#ECF7E2;}
	.st11{fill:#F9F9DC;}
	.st12{fill:#F9E1FF;}
	.st13{fill:#CCFFFE;}
	.st14{fill:#FFE9CC;}
	.st15{fill:#FFFECF;}
	.st16{fill:#E9F5FF;}
	.st17{fill:#FCDBDB;}
	.st18{fill:#F5F9DC;}
	.st19{fill:#FFEEEE;}
	.st20{fill:#DCF9E7;}
	.st21{fill:#F9F4DC;}
	.st22{fill:#F7F6D7;}
	.st23{fill:#F6FCBE;}
	.st24{fill:url(#SVGID_1_);}
	.st25{fill:url(#SVGID_00000085930049307858122460000016028268310228100003_);}
	.st26{fill:url(#SVGID_00000158748170043976833980000017442102046019905979_);}
	.st27{fill:url(#SVGID_00000047742954668028110150000016229353559622916257_);}
	.st28{fill:url(#SVGID_00000092414106374276435960000010114396478707206799_);}
	.st29{fill:url(#SVGID_00000056388892519489043440000016586288764395335811_);}
	.st30{fill-rule:evenodd;clip-rule:evenodd;fill:#231F20;}
	.st31{fill:url(#SVGID_00000182501047071968456220000012269225428680446338_);}
	.st32{fill:url(#SVGID_00000010286092960336253210000003827481054465901247_);}
	.st33{fill:url(#SVGID_00000113337621099287575260000004628626388320067216_);}
	.st34{fill:url(#SVGID_00000063595954791359296760000001814351891744694666_);}
	.st35{fill-rule:evenodd;clip-rule:evenodd;fill:url(#SVGID_00000181787003453945116440000007350117721631978681_);}
	.st36{fill-rule:evenodd;clip-rule:evenodd;fill:url(#SVGID_00000103962091662040991690000004237297022583167928_);}
	.st37{fill-rule:evenodd;clip-rule:evenodd;fill:url(#SVGID_00000152225381849591451860000013395585952994398849_);}
	.st38{fill-rule:evenodd;clip-rule:evenodd;fill:url(#SVGID_00000039113193036093852060000001950890721677118126_);}
	.st39{fill-rule:evenodd;clip-rule:evenodd;fill:url(#SVGID_00000070818424561257045860000010164643520526862751_);}
	.st40{fill:url(#SVGID_00000143605261585968026640000013118325455798808712_);}
	.st41{fill:url(#SVGID_00000137122378030160030630000002011708292190426257_);}
	.st42{fill:url(#SVGID_00000057110586252631260790000011419196965866978219_);}
	.st43{fill:url(#SVGID_00000073698564973648484370000004277963241619506337_);}
	.st44{fill:url(#SVGID_00000041276497999919498960000007851534182035087538_);}
	.st45{fill:#FCCE3A;}
	.st46{fill:#5B62EE;}
	.st47{fill:url(#SVGID_00000127742316752717270220000005329736189252751527_);}
	.st48{fill:url(#SVGID_00000167392797115912116750000010551314021332065952_);}
	.st49{fill:url(#SVGID_00000048482888057360455320000016589705720978302142_);}
	.st50{fill:url(#SVGID_00000015313673411338016120000003119540097988905858_);}
	.st51{fill:url(#SVGID_00000165221238562022453120000017578294805981883325_);}
	.st52{fill-rule:evenodd;clip-rule:evenodd;fill:url(#SVGID_00000134950504132868890100000008590222501030497154_);}
	.st53{fill:url(#SVGID_00000112613139326797630300000007794423130472661660_);}
	.st54{fill:url(#SVGID_00000050622563583793520750000016523613842801519534_);}
	.st55{fill:url(#SVGID_00000046322871246406922370000003507298443319634321_);}
	.st56{fill:url(#SVGID_00000076572382321162472880000008121134525364874904_);}
	
		.st57{fill:url(#SVGID_00000167382022456197093990000001075977275104929210_);stroke:#000000;stroke-width:0.75;stroke-miterlimit:10;}
	.st58{fill:url(#SVGID_00000123415231422551791190000009586311853712929959_);}
	
		.st59{fill:url(#SVGID_00000068654684844272676850000006278128106695639453_);stroke:#000000;stroke-width:0.75;stroke-miterlimit:10;}
	.st60{fill:url(#SVGID_00000093178935905480871380000002126909074072916921_);}
	.st61{fill:url(#SVGID_00000143613514475356634700000008323752020047649976_);}
	.st62{fill:url(#SVGID_00000150808701456462558590000013299965728559494021_);}
	
		.st63{fill:url(#SVGID_00000010997442624448575170000012518570801083358636_);stroke:#000000;stroke-width:0.75;stroke-miterlimit:10;}
	.st64{fill:url(#SVGID_00000137133413769344365190000003041779821889554874_);}
	.st65{fill:url(#SVGID_00000066494637489655620540000009590464244481075337_);}
	.st66{fill:url(#SVGID_00000133517981771171683100000002801634554174407868_);}
	.st67{fill:url(#SVGID_00000154421845730523328900000008982692888862800532_);}
	.st68{fill:url(#XMLID_00000068635623374538438410000005788303934841528964_);}
	.st69{fill:url(#XMLID_00000103243683947995796920000016412692006770197181_);}
	.st70{fill:url(#SVGID_00000059292214404472314500000009929748129434301881_);}
	.st71{opacity:0.4;fill:url(#SVGID_00000039094855532345478250000017116969048672462522_);}
	.st72{fill:#E91E63;}
	.st73{fill:#D742E4;}
	.st74{fill:url(#SVGID_00000138571304972615090140000017711272022798598821_);}
	.st75{fill:url(#SVGID_00000139251303427751989070000011587509808220538807_);}
	.st76{fill:url(#SVGID_00000173155506906818687880000000539095931654539161_);}
	.st77{fill:url(#SVGID_00000061442588323863927950000011781390512266389667_);}
	.st78{fill-rule:evenodd;clip-rule:evenodd;fill:url(#SVGID_00000111165971811473246190000001178291357881846433_);}
	.st79{fill-rule:evenodd;clip-rule:evenodd;fill:url(#SVGID_00000176728314084520167250000017582152956903766694_);}
	.st80{fill-rule:evenodd;clip-rule:evenodd;fill:url(#SVGID_00000032628119461362308960000014097808594777780631_);}
	.st81{fill-rule:evenodd;clip-rule:evenodd;fill:url(#SVGID_00000125597238794675154630000012387546248075931795_);}
	.st82{fill-rule:evenodd;clip-rule:evenodd;fill:#1E1A18;}
	.st83{fill-rule:evenodd;clip-rule:evenodd;fill:#FBB03B;}
	.st84{fill:url(#SVGID_00000137107362148163455240000010101861741686999195_);}
	.st85{fill:url(#SVGID_00000065774605976541122900000010121048917905598087_);}
	.st86{fill:url(#SVGID_00000039121898914471422850000016019234128039663764_);}
	.st87{fill:url(#SVGID_00000026133121491137388320000007425209959278639499_);}
	.st88{fill-rule:evenodd;clip-rule:evenodd;fill:#054B9C;}
	.st89{fill-rule:evenodd;clip-rule:evenodd;fill:#6B0896;}
	.st90{fill-rule:evenodd;clip-rule:evenodd;fill:#F7B835;}
	.st91{fill-rule:evenodd;clip-rule:evenodd;fill:#DB69F3;}
	.st92{fill-rule:evenodd;clip-rule:evenodd;fill:#031691;}
	.st93{fill-rule:evenodd;clip-rule:evenodd;fill:url(#SVGID_00000067215511015729592160000004853456286867970187_);}
	.st94{fill-rule:evenodd;clip-rule:evenodd;fill:#E45C4A;}
	.st95{fill:url(#SVGID_00000073693854803532498470000003520972696508555655_);}
	.st96{fill:url(#SVGID_00000183943311417709531080000002361311673022879876_);}
	.st97{fill:url(#SVGID_00000183251317839222077180000005755998128789501100_);}
	.st98{fill:url(#SVGID_00000031924146230908991150000009409759808169429411_);}
	.st99{fill:url(#SVGID_00000075845494902395407260000005543733629265086357_);}
	.st100{fill:url(#SVGID_00000097490340238782666400000016426227243440511875_);}
	.st101{fill:url(#SVGID_00000016053534803147568740000006329870660439148943_);}
	.st102{fill:url(#SVGID_00000155845211760014410850000017631256142515040899_);}
	.st103{fill:url(#SVGID_00000066486870970400844220000003781661050244689303_);}
	.st104{fill:url(#SVGID_00000052095309620567510090000013311339124012873401_);}
	.st105{fill:url(#SVGID_00000155128791710778999410000011136913730253990585_);}
	.st106{fill:#3A4146;}
	.st107{fill:url(#SVGID_00000053544209803000906180000007737827372371431048_);}
	.st108{fill:url(#SVGID_00000103961640535553152720000001891496870483362969_);}
	.st109{fill:#6B16A0;}
	.st110{fill:url(#SVGID_00000018224987403649360540000006433364869708709509_);}
	.st111{fill:url(#SVGID_00000083085400387201162180000006061669126972844160_);}
	.st112{fill:url(#SVGID_00000075845839855836475720000007662643948671046576_);}
	.st113{fill:url(#SVGID_00000125567621327496614910000012182961405256305595_);}
	.st114{fill:url(#SVGID_00000132050518215822013290000010587011588173666447_);}
	.st115{fill:url(#SVGID_00000165214357512356177900000015451271050970581682_);}
	.st116{fill:url(#SVGID_00000088820745721855713360000000718597046071111079_);}
	.st117{fill:url(#SVGID_00000171716708075611994740000007384690979813900698_);}
	.st118{fill:url(#SVGID_00000061443043083862906230000016951580089221789572_);}
	.st119{fill:url(#SVGID_00000097480095892445878840000011258306036164315790_);}
	.st120{fill:url(#XMLID_00000122694210937200443600000011977532266651628672_);}
	.st121{fill:url(#SVGID_00000116200398308132390720000001612373447959616702_);}
	.st122{fill:#F47E20;}
	.st123{fill:#8C7DB5;}
	.st124{fill:#68BBE8;}
	.st125{fill:#DEDF20;}
	.st126{fill:#EB2250;}
	.st127{fill:#F3AC1C;}
	.st128{fill:#8AC241;}
	.st129{fill:#179ED9;}
	.st130{fill:url(#SVGID_00000168815800065316813190000001462659737928695721_);}
	.st131{fill:url(#SVGID_00000080921107742653690820000011384680768545196459_);}
	.st132{fill:url(#SVGID_00000100370199282926210990000010920320630130082232_);}
	.st133{fill:url(#SVGID_00000037673599634107200520000010047776549674675630_);}
	.st134{fill:url(#SVGID_00000051342122542955159900000010790553466579021725_);}
	.st135{fill:#4E4748;}
	.st136{fill:url(#SVGID_00000058566462500272628210000002244779179901632385_);}
	.st137{fill:url(#SVGID_00000026845546045256987800000016523280409351158193_);}
	.st138{fill:url(#XMLID_00000159438600138071582410000000189321303259961756_);}
	.st139{fill:#1B1715;}
	.st140{fill:#989289;}
	.st141{fill:#1E1A18;}
	.st142{fill:#842739;}
	.st143{fill-rule:evenodd;clip-rule:evenodd;fill:#00033F;stroke:#967200;stroke-miterlimit:10;}
	.st144{fill-rule:evenodd;clip-rule:evenodd;fill:url(#SVGID_00000142172305348676352890000000388202817715451264_);}
	.st145{fill-rule:evenodd;clip-rule:evenodd;fill:url(#SVGID_00000165218729473061493700000016497950662627918723_);}
	.st146{fill-rule:evenodd;clip-rule:evenodd;fill:url(#SVGID_00000183955816268393607480000011471909823056730519_);}
	.st147{fill-rule:evenodd;clip-rule:evenodd;fill:url(#SVGID_00000100372410531948166900000003723843337271410561_);}
	.st148{fill-rule:evenodd;clip-rule:evenodd;fill:url(#SVGID_00000086652748474614813890000012709390537354624909_);}
	.st149{fill-rule:evenodd;clip-rule:evenodd;fill:url(#SVGID_00000037679272557905769680000002926353074166962606_);}
	.st150{fill-rule:evenodd;clip-rule:evenodd;fill:url(#SVGID_00000013886342894314076620000004893340378383407023_);}
	.st151{fill-rule:evenodd;clip-rule:evenodd;fill:url(#SVGID_00000005988645976774985080000000381815609331576468_);}
	.st152{fill:url(#SVGID_00000005266044956222417980000014745078432775752582_);}
</style>
<g id="XMLID_00000101091554554706001230000016297450062394200251_">
	<g id="XMLID_00000065754518111061232630000008891378545009926554_">
		<linearGradient id="SVGID_1_" gradientUnits="userSpaceOnUse" x1="103.1604" y1="94.9135" x2="223.0842" y2="94.9135">
			<stop  offset="0" style="stop-color:#5E5E5E"/>
			<stop  offset="0.4926" style="stop-color:#404040"/>
			<stop  offset="1" style="stop-color:#1C1C1C"/>
		</linearGradient>
		<path class="st24" d="M120.4,109.2c7.98-18.55,30.27-70.43,30.27-70.82c0-0.48,24.03,0,24.03,0l22.04,50.1
			c-0.9,0.63-1.83,1.27-2.77,1.91c-5.32,3.59-11.59,7.41-18.58,10.91l-12.55-29.17l-16.4,39.73c-6.5,1.45-13.25,2.3-20.14,2.3
			c-0.48,0-0.96,0-1.43-0.01c-0.95-0.02-1.87-0.23-2.67-0.62c-0.9-0.44-1.5-1.01-1.78-1.69C120.11,111.06,120.18,110.11,120.4,109.2
			z M110.28,133.29l-6.91,15.07c-0.67,1.47,0.4,3.15,2.02,3.15h23.24l8.1-17.91c-4.63,0.69-9.13,1.04-13.42,1.04
			C118.48,134.64,114.07,134.18,110.28,133.29z M202.81,102.38c-4.18,3.63-8.57,7-13.15,10.09c-7.42,5.02-15.34,9.31-23.54,12.75
			c-0.75,0.31-1.5,0.62-2.25,0.92c-0.19,0.08-0.32,0.26-0.32,0.47c0,0.28,0.22,0.5,0.5,0.5h22.4l11.01,24.56h23.39
			c1.6,0,2.67-1.64,2.04-3.11L202.81,102.38z"/>
		
			<linearGradient id="SVGID_00000174574772388083227890000005408522065916056734_" gradientUnits="userSpaceOnUse" x1="128.5049" y1="126.8564" x2="230.8331" y2="24.5282">
			<stop  offset="0" style="stop-color:#FFF23A"/>
			<stop  offset="0.0401" style="stop-color:#FEE62D"/>
			<stop  offset="0.1171" style="stop-color:#FED41A"/>
			<stop  offset="0.1964" style="stop-color:#FDC90F"/>
			<stop  offset="0.2809" style="stop-color:#FDC60B"/>
			<stop  offset="0.6685" style="stop-color:#F28F3F"/>
			<stop  offset="0.8876" style="stop-color:#ED693C"/>
			<stop  offset="1" style="stop-color:#E83E39"/>
		</linearGradient>
		<path style="fill:url(#SVGID_00000174574772388083227890000005408522065916056734_);" d="M226.25,70.46
			c-2.8,6.95-16.04,21.14-16.04,21.14c-2.77,2.91-5.62,5.63-8.53,8.19c-12.19,10.72-25.38,18.41-38.13,23.58
			c-8.88,3.6-17.55,5.98-25.51,7.3c-10.46,1.73-19.7,1.65-26.62,0.14c-7.47-1.63-12.24-4.93-12.91-9.39
			c-2.56-17.01,29.08-36.29,29.08-36.29l-2.4,5.83c-2.12,5.14-4.35,10.23-6.6,15.31c-1.58,3.56-1.22,5.94-0.15,7.52
			c0.57,0.85,1.35,1.47,2.14,1.92c0.15,0.09,0.31,0.17,0.46,0.24c1.18,0.58,2.49,0.87,3.81,0.9c5.39,0.09,10.7-0.32,15.9-1.14
			c1.5-0.23,2.98-0.5,4.46-0.8c11.17-2.27,21.72-6.31,31.28-11.11c7.88-3.95,15.08-8.41,21.38-12.8
			c14.83-10.34,24.65-20.29,26.54-22.26c0.3-0.31,0.68-0.55,1.1-0.67C227.41,67.53,226.25,70.46,226.25,70.46z"/>
		
			<linearGradient id="XMLID_00000181071380478338465550000005332505771961748638_" gradientUnits="userSpaceOnUse" x1="148.621" y1="146.9725" x2="250.9492" y2="44.6443">
			<stop  offset="0" style="stop-color:#FFF23A"/>
			<stop  offset="0.0401" style="stop-color:#FEE62D"/>
			<stop  offset="0.1171" style="stop-color:#FED41A"/>
			<stop  offset="0.1964" style="stop-color:#FDC90F"/>
			<stop  offset="0.2809" style="stop-color:#FDC60B"/>
			<stop  offset="0.6685" style="stop-color:#F28F3F"/>
			<stop  offset="0.8876" style="stop-color:#ED693C"/>
			<stop  offset="1" style="stop-color:#E83E39"/>
		</linearGradient>
		
			<path id="XMLID_00000065032371092039250980000002626352065433267076_" style="fill:url(#XMLID_00000181071380478338465550000005332505771961748638_);" d="
			M251.5,44.39c-9.66-1.32-16.37,4.35-18.49,6.45c-0.49,0.49-1.15,0.79-1.85,0.83L227,51.95c-0.74,0.05-1.43,0.41-1.89,1l-3.02,3.86
			c-0.31,0.4-0.58,0.83-0.78,1.3c-2.06,4.86,6.62,3.42,6.62,3.42c-0.4,6.87,6.29,6.15,6.29,6.15v3.74c0,0.36,0.02,0.72,0.08,1.07
			c0.52,3.25,2.83,1.9,3.64,1.3c0.44-0.32,0.87-0.64,1.32-0.95l3.21-2.24c0.64-0.45,1.05-1.16,1.11-1.95l0.31-4.18
			c0.05-0.68,0.33-1.32,0.81-1.8C253.15,54.07,251.5,44.39,251.5,44.39z M242.39,57.39c-2.23,0-4.04-1.81-4.04-4.04
			c0-2.23,1.81-4.04,4.04-4.04s4.04,1.81,4.04,4.04C246.43,55.58,244.62,57.39,242.39,57.39z"/>
	</g>
</g>
</svg>
