<?xml version="1.0" encoding="utf-8"?>
<!-- Generator: Adobe Illustrator 27.8.1, SVG Export Plug-In . SVG Version: 6.00 Build 0)  -->
<svg version="1.1" id="Layer_1" xmlns="http://www.w3.org/2000/svg" xmlns:xlink="http://www.w3.org/1999/xlink" x="0px" y="0px"
	 viewBox="0 0 350 230" style="enable-background:new 0 0 350 230;" xml:space="preserve">
<style type="text/css">
	.st0{fill:#F9EAE4;}
	.st1{fill:#F9FCD9;}
	.st2{fill:#FFDCE7;}
	.st3{fill:#F9E4D9;}
	.st4{fill:#F9D4D2;}
	.st5{fill:#F0FFFE;}
	.st6{fill:#E7E8D6;}
	.st7{fill:#F4F3DC;}
	.st8{fill:#F9E8E1;}
	.st9{fill:#E1E2D5;}
	.st10{fill:#E6FFFE;}
	.st11{fill:#EACFC1;}
	.st12{fill:#F3F4C1;}
	.st13{fill:#C2F2D8;}
	.st14{fill:#A15FAC;}
	.st15{fill:#002C6B;}
	.st16{fill:#56001D;}
	.st17{fill:#8C002F;}
	.st18{fill:#043866;}
	.st19{fill:#506600;}
	.st20{fill:#604500;}
	.st21{fill-rule:evenodd;clip-rule:evenodd;fill:#C600C6;}
	.st22{fill-rule:evenodd;clip-rule:evenodd;fill:#464748;}
	.st23{fill-rule:evenodd;clip-rule:evenodd;fill:#FF838C;}
	.st24{fill-rule:evenodd;clip-rule:evenodd;fill:#005968;}
	.st25{fill:#F9C1C4;}
	.st26{fill-rule:evenodd;clip-rule:evenodd;fill:#002B26;}
	.st27{fill-rule:evenodd;clip-rule:evenodd;fill:#6D0008;}
	.st28{fill:#5B0A54;}
	.st29{fill:#FFFFFF;}
	.st30{fill-rule:evenodd;clip-rule:evenodd;fill:#C97943;}
	.st31{fill-rule:evenodd;clip-rule:evenodd;fill:#E9CEEA;}
	.st32{fill-rule:evenodd;clip-rule:evenodd;fill:#034C42;}
	.st33{fill:#026683;}
	.st34{fill:#26BCBC;}
	.st35{fill:#001F59;}
	.st36{fill:#7D1839;}
	.st37{fill:#A8007D;}
	.st38{fill:#5B2F00;}
	.st39{fill:#A8228D;}
	.st40{fill:#4C0231;}
	.st41{fill:#304C19;}
	.st42{fill:#F52287;}
	.st43{fill:#231F20;}
	.st44{fill:#D3407F;}
	.st45{fill:#568429;}
	.st46{fill-rule:evenodd;clip-rule:evenodd;fill:#424200;}
	.st47{fill:url(#SVGID_1_);}
	.st48{fill:#5B2B00;}
	.st49{fill:#CAA095;}
	.st50{fill:#F7C844;}
	.st51{fill-rule:evenodd;clip-rule:evenodd;fill:#FFFFFF;}
	.st52{fill:url(#SVGID_00000053505988944891787590000007696254160757103784_);}
	.st53{fill-rule:evenodd;clip-rule:evenodd;fill:#ED1A23;}
	.st54{fill-rule:evenodd;clip-rule:evenodd;fill:#242021;}
	.st55{fill-rule:evenodd;clip-rule:evenodd;fill:#757072;}
	.st56{fill:#66405E;}
	.st57{fill:#CBA390;}
	.st58{fill:#230003;}
	.st59{fill:#004255;}
	.st60{fill:#FF93AC;}
	.st61{fill:#CC004A;}
	.st62{fill:#62007A;}
	.st63{fill-rule:evenodd;clip-rule:evenodd;fill:#E6FFFE;}
	.st64{fill-rule:evenodd;clip-rule:evenodd;fill:#F2B8B0;}
	.st65{fill-rule:evenodd;clip-rule:evenodd;fill:url(#SVGID_00000175319806943734028200000013844294666294963865_);}
	.st66{fill-rule:evenodd;clip-rule:evenodd;fill:#6B006B;}
	.st67{fill-rule:evenodd;clip-rule:evenodd;fill:#005B5B;}
</style>
<path d="M155.02,98.59c0.09-0.19,0.25-0.37,0.27-0.56c0.04-0.54,0.01-1.08,0.01-1.7c1.28-0.12,2.27-0.75,2.98-1.82
	c0.09,0.02,0.18,0.05,0.26,0.07c0.16,2.56,0.46,5.13,0.44,7.69c-0.08,11.14-2.87,21.6-8.24,31.36c-1.79,3.25-4.06,6.11-7.27,8.12
	c-2.55,1.6-5.32,2.44-8.34,2.46c-0.2,0-0.39-0.02-0.6-0.16c0.7-0.13,1.41-0.24,2.11-0.4c2.08-0.45,4.05-1.2,5.72-2.56
	c1.75-1.42,2.95-3.16,2.71-5.56c-0.15-1.45-0.99-2.42-2.14-3.11c0.41,0.73,0.99,1.43,1.21,2.23c0.71,2.56-1.27,4.96-4.15,5.16
	c-3.74,0.26-6.66-2.35-7.03-6.29c-0.05-0.54-0.08-1.08-0.11-1.6c-1.2-0.19-2.38-0.29-3.53-0.56c-5.19-1.22-8.92-5.37-9.56-10.76
	c-0.15-1.29-0.58-2.22-1.53-3.15c-2.83-2.78-4.03-6.34-4.48-10.21c-0.27-2.36-0.14-4.69,0.57-6.96c1.15-3.69,3.7-5.9,7.34-6.98
	c1.99-0.59,4.03-0.53,6.07-0.53c0.34,0,0.69,0,1.24,0c-0.23-0.19-0.29-0.26-0.36-0.3c-4.21-2.33-6.51-6.08-7.64-10.58
	c-1.55-6.17-0.78-12.04,3.18-17.2c3.05-3.97,7.05-6.34,12.21-6.37c2.79-0.02,5.29,0.95,7.63,2.38c0.67,0.41,1.34,0.81,2,1.23
	c2.76,1.73,5.47,1.53,8.15-0.18c2.08-1.32,3.64-3.16,5-5.18c1.03-1.53,2.01-3.11,3.14-4.57c1.97-2.54,4.44-4.38,7.69-4.99
	c0.35-0.06,0.7-0.11,1.06-0.13c0.35-0.02,0.71,0,1.06,0c0.01-0.08,0.02-0.15,0.03-0.23c-0.85-0.08-1.71-0.24-2.56-0.23
	c-3.27,0.05-5.91,1.56-7.99,3.93c-1.59,1.81-2.88,3.87-4.36,5.78c-0.93,1.19-1.85,2.43-2.99,3.39c-2.34,1.97-5.02,2.29-7.86,1.08
	c-0.57-0.24-1.12-0.51-1.66-0.81c-2.42-1.35-4.92-2.44-7.79-2.63c1-0.45,1.98-0.96,3.01-1.32c1.05-0.36,1.45-0.98,1.7-2.09
	c2.64-12.06,9.81-20.36,21.22-24.89c7.36-2.92,14.99-3.25,22.71-1.58c0.09,0.02,0.18,0.04,0.29,0.13c-3.93,0.47-7.56,1.68-10.8,4.27
	c0.21-0.04,0.28-0.04,0.34-0.07c6.94-3.54,13.99-3.43,21.11-0.59c4.15,1.65,7.77,4.13,11.01,7.18c0.34,0.32,0.65,0.43,1.13,0.38
	c1.98-0.2,3.93-0.05,5.81,0.65c0.1,0.04,0.2,0.09,0.48,0.22c-1.23,0-2.25-0.06-3.27,0.02c-1.03,0.08-2.05,0.29-3.06,0.52
	c2.81-0.21,5.51,0.24,8.08,1.3c8.26,3.42,13.04,9.66,14.56,18.4c0.7,3.99,0.23,7.89-1.67,11.54c-0.17,0.33-0.38,0.65-0.55,0.92
	c3.34-10.01,1.4-18.79-6.86-25.56c-5.51-4.52-12.11-5.63-19.09-3.94c0.92-0.15,1.84-0.36,2.77-0.43c8.05-0.54,14.57,2.3,19.29,8.92
	c2.33,3.26,3.72,6.9,4.12,10.91c0.59,5.84-1.38,10.8-5.14,15.16c-1.52,1.76-3.03,3.52-4.5,5.32c-0.52,0.64-0.91,1.4-1.25,2.16
	c0.59-0.7,1.18-1.4,1.77-2.1c0.05,0.03,0.1,0.06,0.15,0.1c-0.59,1.03-1.17,2.06-1.76,3.09c1.94-2.22,3.94-4.24,7.06-4.55
	c1.28-0.13,2.41,0.12,3.2,0.74c-2.3,0.6-4.09,1.69-4.58,4.18c1.03,0.11,2.13,0.04,2.95,0.94c-1.28,0.08-2.53,0.06-3.75,0.26
	c-2.33,0.37-4.24,1.5-5.46,3.57c-1.09,1.84-0.77,3.8,0.76,5.07c0.05,0.04,0.12,0.07,0.22,0.13c-0.01-0.09,0-0.16-0.02-0.21
	c-1.14-2.4-0.62-4.46,1.53-6.06c3.4-2.54,8.07-1.51,10.37,2.29c2.47,4.08,1.12,9.28-3.17,11.83c-3.48,2.07-7.2,2.08-10.99,0.9
	c-0.2-0.06-0.39-0.14-0.72-0.25c6.09,3.99,14.79,2.15,17.21-5.41c0.07,0.01,0.14,0.02,0.21,0.03c-0.16,1.01-0.19,2.07-0.49,3.03
	c-1.35,4.25-4.41,6.71-8.61,7.75c-3.79,0.94-7.43,0.43-10.82-1.6c-0.49-0.29-1.01-0.52-1.52-0.77c-0.1-0.05-0.22-0.05-0.32-0.07
	c-0.06,0.05-0.12,0.1-0.19,0.15c0.3,0.45,0.53,0.96,0.9,1.33c1.55,1.53,3.47,2.39,5.58,2.77c4.99,0.91,9.47-0.09,13.17-3.74
	c1.5-1.48,2.5-3.26,3.06-5.29c0.1-0.38,0.22-0.76,0.38-1.33c0.51,2.19,0.58,4.16-0.08,6.17c2.78-1.02,3.44-3.78,2.07-8.17
	c0.27,0.3,0.57,0.58,0.81,0.91c2.16,2.9,1.67,8.01-3.2,9.14c-0.74,0.17-1.2,0.51-1.61,1.17c-0.6,0.95-1.43,1.76-2.14,2.64
	c-0.16,0.2-0.34,0.47-0.35,0.71c-0.17,5.52-3.09,9.13-7.93,11.39c-1.69,0.79-3.5,1.17-5.36,1.32c-0.35,0.03-0.7,0.06-1.11,0.1
	c0.06,0.55,0.13,1.06,0.16,1.57c0.24,4.36-1.34,8.1-4.12,11.33c-4.21,4.89-9.7,6.78-16.01,6.42c-2.13-0.12-4.24-0.64-6.36-0.98
	c0.66,1.38,1.68,2.55,3.23,3.21c2.25,0.96,4.54,0.75,6.83,0.16c0.41-0.1,0.81-0.23,1.28-0.25c-0.22,0.18-0.43,0.39-0.66,0.55
	c-1.79,1.25-3.79,1.91-5.97,2.07c-2.3,0.17-4.56,0.01-6.69-0.93c-4.17-1.84-6.45-5.06-6.8-9.61c-0.23-2.93,0.15-5.82,0.51-8.71
	c0.21-1.65,0.41-3.29,0.65-4.93c0.06-0.44-0.07-0.68-0.44-0.92c-6.5-4.27-11.78-9.8-16.38-16.02c-0.02-0.03-0.03-0.08-0.11-0.31
	c0.39,0.31,0.66,0.53,0.92,0.73c5.53,4.28,11.47,7.81,18.27,9.71c2.31,0.65,4.67,1.07,7.09,0.7c1.75-0.26,3.18-1.07,4.26-2.46
	c0.44-0.56,0.87-1.14,1.2-1.76c2.65-4.98,5.35-9.93,7.88-14.96c1.78-3.53,2.88-7.29,2.67-11.29c-0.1-1.98-0.51-3.94-0.79-5.91
	c-0.02-0.13-0.1-0.25-0.21-0.53c-0.36,1.81-1.7,2.21-3.09,2.43c-1.76,0.28-3.36-0.22-4.79-1.32c2.12,0.27,4.27,1.31,6.31-0.24
	c0.22,0.1,0.42,0.19,0.62,0.27c-0.04,0.09-0.08,0.18-0.12,0.27c0.16-0.16,0.31-0.32,0.56-0.59c-0.31-0.04-0.48-0.07-0.74-0.1
	c0.44-0.37,0.8-0.68,1.36-1.15c-0.78-0.32-1.37-0.55-1.98-0.8c-0.11,1.78-0.56,2.43-1.77,2.67c-1.33,0.26-2.1-0.22-2.86-1.81
	c-0.57,0.15-1.15,0.3-1.73,0.45c-0.03-0.07-0.05-0.13-0.08-0.2c1.59-1.94,3.9-2.34,6.23-2.69c-2.06-0.38-3.85,0.43-5.72,1.1
	c0.39-0.32,0.74-0.7,1.17-0.94c2.03-1.14,4.12-1.27,6.26-0.29c0.39,0.18,0.75,0.31,1.04-0.17c0.95-1.6,1.73-3.26,1.92-5.15
	c0.06-0.59-0.15-0.85-0.7-0.66c-0.75,0.27-1.49,0.6-2.2,0.96c-1.72,0.85-3.38,1.81-5.14,2.57c-1.3,0.55-2.15,1.42-2.71,2.65
	c-1.08,2.34-1.09,4.77-0.65,7.24c0.16,0.9,0.39,1.8,0.58,2.7c-0.06,0.02-0.13,0.05-0.19,0.07c-0.34-0.97-0.78-1.93-1-2.93
	c-1.02-4.7,0.54-8.57,3.96-11.8c0.24-0.23,0.51-0.45,0.8-0.58c2.28-0.98,4.57-1.94,6.85-2.91c0.09-0.04,0.17-0.07,0.33-0.13
	c-0.25-5.9-0.76-11.72-4.61-16.72c-1.18,0.82-2.29,1.59-3.39,2.36c-1.53,1.06-3.11,2.01-4.95,2.43c-3.81,0.87-7.34-0.73-9.27-4.18
	c-0.13-0.23-0.25-0.45-0.41-0.75c-1.27,0.95-2.73,0.97-4.2,1.04c-2.77,0.13-4.87,1.54-6.61,3.58c-1.78,2.1-3.03,4.52-4.13,7.02
	c-1.34,3.01-2.61,6.05-4.01,9.02c-1.93,4.1-4.42,7.79-8.13,10.52c-2.46,1.82-5.15,3.19-8.08,4.07c-0.29,0.09-0.59,0.19-0.88,0.29
	c-0.06,0.02-0.12,0.07-0.28,0.16c1.2,1.79,2.26,3.65,4.38,4.55c0.22,0.09,0.37,0.46,0.47,0.73c0.23,0.6,0.42,1.22,0.63,1.83
	c-0.2-0.05-0.4-0.11-0.66-0.18c-0.12,0.23-0.28,0.45-0.33,0.69c-0.13,0.56-0.32,1.02-0.77,1.45c-0.65,0.61-0.52,1.91,0.15,2.66
	c0.59,0.67,1.71,0.81,2.54,0.33c0.69-0.41,1.27-1.83,0.8-2.42C156.11,100.32,155.98,99.17,155.02,98.59z M176.17,50.08
	c-0.27-0.11-0.54-0.26-0.82-0.34c-1.82-0.53-3.57-0.24-5.25,0.56c-2.29,1.09-4.06,2.82-5.41,4.91c-1.38,2.15-2.62,4.39-3.82,6.65
	c-1.47,2.74-2.81,5.54-4.78,7.97c-2.45,3.01-5.41,5.29-9.23,6.32c-1.89,0.51-3.79,0.62-5.69,0.09c-1.4-0.39-2.76-1.51-3.08-2.53
	c3.01,1.32,5.8,0.85,8.46-0.92c-0.78-2.32-3.49-4.18-5.85-4.06c-2.53,0.13-4.23,2.11-3.91,4.58c0.17,1.32,0.88,2.33,1.93,3.12
	c1.36,1.04,2.93,1.53,4.61,1.68c3.6,0.31,6.77-0.85,9.67-2.88c3.13-2.2,5.43-5.13,7.26-8.44c1.69-3.05,3.23-6.17,5.02-9.16
	c0.96-1.61,2.17-3.12,3.48-4.46C170.76,51.13,173.2,49.94,176.17,50.08z M156.34,81.36c-0.07,0.04-0.15,0.07-0.22,0.12
	c-4.48,3.19-9.46,4.35-14.88,3.58c-3.62-0.52-6.93-1.78-9.62-4.35c-3.7-3.54-4.12-9.02-1.06-13.2c2.9-3.95,8.22-5.09,12.66-2.71
	c0.14,0.08,0.29,0.14,0.56,0.27c-2.98-3.7-8.24-4.53-12.32-2.08c-6.46,3.87-8.51,14.17-0.29,19.63c4.69,3.12,9.92,3.99,15.43,3.23
	C150.27,85.33,153.51,83.76,156.34,81.36z M118.3,98.5c-0.03-0.01-0.05-0.01-0.08-0.02c-0.04,0.11-0.09,0.21-0.11,0.32
	c-0.69,2.85-0.69,5.69,0.33,8.46c1.84,5.04,6.64,7.71,11.81,6.36c5.64-1.48,9.13-5.3,10.66-10.85c0.89-3.22,0.37-6.3-1.57-9.08
	c-0.13-0.19-0.3-0.36-0.46-0.54c-0.06,0.21,0,0.33,0.07,0.44c0.95,1.56,1.4,3.26,1.42,5.07c0.06,5.53-3.84,11.08-9.05,12.93
	c-4.77,1.69-9.25-0.03-11.65-4.49c-1.12-2.07-1.6-4.29-1.5-6.64C118.19,99.81,118.25,99.15,118.3,98.5z M190.96,59.45
	c-0.01-0.01,0.07,0.04,0.15,0.07c0.13,0.04,0.27,0.08,0.41,0.11c3.16,0.66,5.64-0.43,7.48-3.01c0.82-1.15,1.53-2.39,2.3-3.59
	c3.14-4.9,7.76-6.57,13.33-5.95c1.48,0.16,2.92,0.69,4.34,1.03c-0.01-0.01-0.07-0.08-0.14-0.12c-3.19-2.02-6.62-3.37-10.41-3.69
	c-2.81-0.23-5.55,0.09-8.05,1.5c-2.29,1.29-3.63,3.27-4.15,5.83c1.21-2.32,2.86-4.17,5.35-5.15c2.41-0.95,4.9-1.02,7.48-0.73
	c-0.08,0.1-0.11,0.16-0.14,0.16c-4.17,0.93-6.9,3.55-8.7,7.31c-0.46,0.96-0.98,1.89-1.54,2.8c-1.11,1.77-2.68,2.95-4.77,3.28
	C192.92,59.44,191.89,59.4,190.96,59.45z M148.1,109.73c-0.53,2.62-1.63,4.96-3.42,6.97c-1.86,2.08-4.91,3.84-6.73,3.8
	c1.81-0.88,3.38-1.93,4.61-3.41c1.34-1.6,2.39-3.97,2.28-4.99c-2.87,6.43-7.79,9.15-15.04,7.86c0.41,0.26,0.66,0.43,0.92,0.59
	c4.68,2.88,9.78,2.35,13.44-1.45C146.68,116.49,147.73,113.25,148.1,109.73z M226.03,59.35c0,0.05-0.02,0.09-0.01,0.14
	c1.47,5.02,0.22,9.4-3.18,13.24c-1.41,1.6-2.93,3.1-4.39,4.65c-2.38,2.54-4.38,5.31-5.18,8.77c-1.08,4.65-0.09,8.69,3.64,11.87
	c0.14,0.12,0.32,0.21,0.48,0.31c-0.48-0.68-1.06-1.25-1.5-1.91c-2.67-4.04-2.7-8.27-0.75-12.57c1.33-2.93,3.4-5.34,5.65-7.6
	c1.71-1.71,3.45-3.39,4.64-5.53C227.49,67.01,227.73,63.21,226.03,59.35z M203.69,37c-0.48-0.15-0.92-0.33-1.37-0.43
	c-6.04-1.3-11.3,0.3-15.82,4.4c-2.24,2.03-3.72,4.54-3.96,7.63c-0.17,2.18,0.42,4.15,1.85,5.83c-0.19-0.6-0.49-1.16-0.66-1.76
	c-0.87-3.06-0.29-5.9,1.57-8.41c3.47-4.69,8.29-6.89,14.02-7.25C200.76,36.93,202.2,37,203.69,37z M210.56,134.54
	c-1.44,2.13-3.19,3.93-5.38,5.3c-1.93,1.22-6.24,2.66-7,2.14c3.59-0.95,6.48-2.87,8.42-6.1c-2.08,2.6-4.78,4.26-7.94,5.15
	c-3.27,0.92-6.4,0.45-9.36-1.25c2.02,2.28,4.56,3.49,7.58,3.63c3.31,0.15,6.24-0.97,8.85-2.95
	C207.81,138.88,209.4,136.88,210.56,134.54z M211.26,120.05c-0.88,0.8-1.57,1.58-2.41,2.13c-0.83,0.55-1.79,1.07-2.75,1.21
	c-0.98,0.15-2.11,0.02-3.04-0.35c-0.9-0.36-1.73-1.08-2.39-1.81c-0.64-0.72-1.04-1.66-1.54-2.5c0.18,0.83,0.38,1.66,0.72,2.43
	c1.82,4.24,6.74,6,10.53,3.8c2.44-1.42,4.48-5.14,4.39-7.69c-0.53,1.05-1.09,2.37-1.82,3.59c-0.77,1.27-1.92,2.21-3.23,2.93
	c-1.31,0.72-3.18,1.05-4.13,0.73C208.09,123.87,209.89,122.36,211.26,120.05z M124.77,94.08c3.09,0.4,5.77,1.35,7.08,4.36
	c1.32,3.04,0.03,5.58-1.84,7.96c0.34-0.17,0.66-0.35,0.87-0.61c0.83-1.07,1.63-2.16,2.4-3.2c-0.13,3.16-1.78,5.56-4.39,7.42
	c3.87-1.2,6.42-5.78,5.46-9.69C133.37,96.35,128.83,93.36,124.77,94.08z M222.63,119.5c-0.03-0.02-0.06-0.05-0.09-0.07
	c-1.07,0.55-2.12,1.15-3.23,1.62c-1.11,0.48-2.27,0.83-3.53,1.27c0.55,0.29,1,0.6,1.5,0.78c4.73,1.75,8.34-2,9.53-5.76
	c-1.78,3.35-4.43,4.99-8.07,5.07c0.69-0.45,1.38-0.85,2.01-1.32C221.41,120.6,222,120.03,222.63,119.5z M209.82,108.64
	c-0.03,0.15-0.05,0.24-0.06,0.32c-0.25,2.83,1.23,5.3,4.04,6.64c2.43,1.16,4.99,1.46,7.62,0.94c1.13-0.22,2.22-0.64,3.33-0.97
	c-0.02-0.08-0.05-0.15-0.07-0.23c-0.27,0.07-0.54,0.14-0.81,0.2c-3.2,0.74-6.35,0.71-9.37-0.74c-2.5-1.21-4.33-2.97-4.57-5.94
	C209.93,108.82,209.88,108.76,209.82,108.64z M226.15,99.79c2.03-0.91,3.3-3.34,3.1-5.81c-0.17-2.14-1.75-4.63-3.19-5.04
	c1.79,2.84,2.33,5.67-0.16,8.47c0.07,0.04,0.13,0.09,0.2,0.13c0.72-0.73,1.45-1.46,2.18-2.2C228.14,97.1,227.36,98.53,226.15,99.79z
	 M134.64,127.69c0.01,0.02,0.01,0.05,0.02,0.07c1.41-0.13,2.83-0.25,4.24-0.38c0.02,0.05,0.04,0.1,0.07,0.16
	c-1.41,0.72-2.81,1.44-4.16,2.13c2.97,0.02,6.58-2.32,7.95-4.64C140.1,125.9,137.37,126.79,134.64,127.69z M213.39,75.96
	c0.53-1.49,1.51-2.62,2.76-3.53c0.71-0.51,1.47-0.96,2.15-1.51c0.78-0.65,1.54-1.33,2.2-2.09c0.71-0.83,1.07-1.85,0.95-2.96
	c-0.05-0.46-0.26-0.9-0.39-1.35c-0.06,0.01-0.13,0.02-0.19,0.03c0.46,1.75-0.21,3.12-1.46,4.27c-0.52,0.48-1.1,0.89-1.65,1.34
	c-0.97,0.79-2.01,1.51-2.9,2.38C213.9,73.43,213.36,74.59,213.39,75.96z M173.39,55.96c-3.5,1.13-6,5.74-5.22,9.52
	C168.86,61.77,170.32,58.46,173.39,55.96z M166.69,35.49c-2.7-0.93-5.11-0.5-7.46,0.32c1.36,0.29,2.79,0.45,4.1,0.93
	c1.31,0.48,2.51,1.3,3.6,1.89c-0.98-1.62-2.77-2.37-4.64-3.14C163.7,35.49,165.1,35.49,166.69,35.49z M200.37,39.47
	c-4.37-0.28-9.57,2.61-9.86,5.45C192.96,41.58,196.54,40.29,200.37,39.47z M211.65,69.61c0.88-0.99,1.8-2,2.7-3.03
	c1-1.14,2.01-2.27,2.94-3.45c0.4-0.51,0.61-1.16,0.91-1.75c-0.71,0.74-1.32,1.53-1.98,2.26c-0.81,0.89-1.69,1.72-2.5,2.62
	C212.8,67.26,212.04,68.36,211.65,69.61z M149.06,86.98c-5.43,1.81-10.93,2-16.5,0.72C138.14,89.49,143.64,89.25,149.06,86.98z
	 M183.15,31.95c-4.83,1.41-7.69,5.24-8.02,8.54C176.58,36.4,179.24,33.57,183.15,31.95z M205.01,51.68c0.77-0.4,1.35-0.76,1.98-1.02
	c0.61-0.25,1.26-0.43,1.9-0.56c0.64-0.12,1.3-0.14,2.12-0.21C208.71,49.41,206.5,50.07,205.01,51.68z M168.64,42.49
	c1.57,0.34,2.87,1.15,3.99,2.29C171.71,43.29,170.36,42.56,168.64,42.49z M201.4,82.81c-0.06,0.02-0.13,0.03-0.19,0.05
	c-0.03,0.15-0.06,0.3-0.09,0.48c-0.19-0.18-0.36-0.33-0.53-0.49c-0.07,0.06-0.14,0.11-0.21,0.17c0.18,0.24,0.33,0.53,0.57,0.69
	c0.1,0.07,0.52-0.08,0.57-0.21C201.57,83.31,201.44,83.04,201.4,82.81z M202.02,137.64c-0.75,0.71-1.5,1.43-2.36,2.25
	C200.77,139.34,201.49,138.6,202.02,137.64z M197.18,106.45c0.11,2.52-1,3.75-3.51,3.94c-2.68,0.2-5.03-0.58-7.12-2.27
	c-1-0.82-2.06-1.56-3.09-2.33c0.33-0.08,0.79-0.12,1.18-0.3c1.29-0.57,2.56-1.2,3.84-1.8c0.83-0.39,1.65-0.84,2.51-1.15
	c0.94-0.34,1.9-0.32,2.79,0.25c0.77,0.5,1.56,0.49,2.35,0.03c0.72-0.42,1.4-0.38,2.02,0.19c0.6,0.55,1.03,1.23,0.86,2.07
	c-0.17,0.85-0.86,1.19-1.67,1.31C197.32,106.4,197.27,106.42,197.18,106.45z M194.97,106.21c-2.48-0.76-4.68-0.68-5.62,0.15
	C191.18,106.79,193.03,107.24,194.97,106.21z M171.18,75.73c1.01-0.33,2.05-0.6,3.01-1.05c2.51-1.19,4.89-0.98,7.25,0.39
	c1.82,1.05,3.68,2.05,5.55,3.03c0.57,0.3,1.23,0.54,1.86,0.59c0.38,0.03,1-0.25,1.15-0.57c0.17-0.36,0.09-1.01-0.14-1.36
	c-0.32-0.46-0.84-0.87-1.36-1.08c-2.72-1.09-5.46-2.15-8.21-3.16c-1.74-0.64-3.48-0.48-5.09,0.4c-1.63,0.88-3.2,1.89-4.96,2.95
	C170.67,75.81,170.94,75.81,171.18,75.73z M170.91,80.45c1.04,0.33,2.02,0.64,3.18,1.02c-0.14-0.36-0.19-0.49-0.26-0.65
	c0.07,0,0.15-0.02,0.2,0c1.09,0.55,2.19,0.59,3.37,0.29c1.12-0.29,2.27-0.46,3.42-0.6c1.79-0.21,3.42,0.28,4.9,1.39
	c-0.11,0.05-0.22,0.1-0.35,0.17c0.27,0.4,0.54,0.8,0.82,1.2c-0.04,0.05-0.07,0.1-0.11,0.15c-0.98-0.51-1.97-1.03-2.81-1.46
	c-0.21,0.75-0.28,1.52-0.65,2.1c-0.28,0.44-0.92,0.76-1.45,0.89c-1.45,0.36-2.29-0.28-3.23-2.37
	C174.93,84.2,172.79,82.8,170.91,80.45z M180.25,82.64c-0.07-0.07-0.14-0.15-0.2-0.22c-0.31,0.11-0.65,0.2-0.93,0.37
	c-0.05,0.03,0.04,0.45,0.17,0.59c0.1,0.11,0.47,0.16,0.53,0.08C180.02,83.22,180.12,82.91,180.25,82.64z M184.88,84.43
	c-1.4,0.31-2.82,0.9-4.2,0.84c-1.38-0.06-2.73-0.79-4.09-1.23c-0.01,0.02-0.03,0.05-0.04,0.07c0.36,0.24,0.71,0.49,1.19,0.81
	c-0.4-0.06-0.64-0.1-0.97-0.15C179.35,86.7,183.72,86.48,184.88,84.43z M176.9,80.88c0.7-0.11,1.38-0.35,2.08-0.44
	c1.3-0.16,2.62-0.34,3.93-0.32c0.73,0.01,1.45,0.43,2.26,0.69c-0.7-0.91-1.58-1.33-2.6-1.46c-2.37-0.31-4.5,0.5-6.63,1.46
	C176.26,80.84,176.59,80.93,176.9,80.88z M193.34,96.37c-0.84,0.23-1.27,0.7-1.28,1.2c1.05-0.2,2.14-0.4,3.23-0.6
	C194.9,96.35,194.23,96.13,193.34,96.37z M198.77,93.57c0.68,2.2-0.97,3.05-2.12,4.29C198.92,97.42,199.99,95.38,198.77,93.57z
	 M154.8,101.69c0.62-0.93,0.62-1.41-0.03-2.23C154.1,100.64,154.11,100.89,154.8,101.69z M154.28,103.25
	c0.31-0.89-0.24-1.47-0.66-2.17C153.28,101.89,153.49,102.55,154.28,103.25z M155.18,103.56c0.27-0.31,0.54-0.63,0.81-0.94
	c-0.09-0.08-0.19-0.16-0.28-0.24c-0.26,0.32-0.52,0.64-0.78,0.97C155.01,103.42,155.1,103.49,155.18,103.56z"/>
</svg>
