<?xml version="1.0" encoding="utf-8"?>
<!-- Generator: Adobe Illustrator 27.8.1, SVG Export Plug-In . SVG Version: 6.00 Build 0)  -->
<svg version="1.1" id="Layer_1" xmlns="http://www.w3.org/2000/svg" xmlns:xlink="http://www.w3.org/1999/xlink" x="0px" y="0px"
	 viewBox="0 0 350 230" style="enable-background:new 0 0 350 230;" xml:space="preserve">
<style type="text/css">
	.st0{fill:#F9EAE4;}
	.st1{fill:#F9FCD9;}
	.st2{fill:#FFDCE7;}
	.st3{fill:#F9E4D9;}
	.st4{fill:#F9D4D2;}
	.st5{fill:#F0FFFE;}
	.st6{fill:#E7E8D6;}
	.st7{fill:#F4F3DC;}
	.st8{fill:#F9E8E1;}
	.st9{fill:#E1E2D5;}
	.st10{fill:#E6FFFE;}
	.st11{fill:#EACFC1;}
	.st12{fill:#F3F4C1;}
	.st13{fill:#C2F2D8;}
	.st14{fill:#A15FAC;}
	.st15{fill:#002C6B;}
	.st16{fill:#56001D;}
	.st17{fill:#8C002F;}
	.st18{fill:#043866;}
	.st19{fill:#506600;}
	.st20{fill:#604500;}
	.st21{fill-rule:evenodd;clip-rule:evenodd;fill:#C600C6;}
	.st22{fill-rule:evenodd;clip-rule:evenodd;fill:#464748;}
	.st23{fill-rule:evenodd;clip-rule:evenodd;fill:#FF838C;}
	.st24{fill-rule:evenodd;clip-rule:evenodd;fill:#005968;}
	.st25{fill:#F9C1C4;}
	.st26{fill-rule:evenodd;clip-rule:evenodd;fill:#002B26;}
	.st27{fill-rule:evenodd;clip-rule:evenodd;fill:#6D0008;}
	.st28{fill:#5B0A54;}
	.st29{fill:#FFFFFF;}
	.st30{fill-rule:evenodd;clip-rule:evenodd;fill:#C97943;}
	.st31{fill-rule:evenodd;clip-rule:evenodd;fill:#E9CEEA;}
	.st32{fill-rule:evenodd;clip-rule:evenodd;fill:#034C42;}
	.st33{fill:#026683;}
	.st34{fill:#26BCBC;}
	.st35{fill:#001F59;}
	.st36{fill:#7D1839;}
	.st37{fill:#A8007D;}
	.st38{fill:#5B2F00;}
	.st39{fill:#A8228D;}
	.st40{fill:#4C0231;}
	.st41{fill:#304C19;}
	.st42{fill:#F52287;}
	.st43{fill:#231F20;}
	.st44{fill:#D3407F;}
	.st45{fill:#568429;}
	.st46{fill-rule:evenodd;clip-rule:evenodd;fill:#424200;}
	.st47{fill:url(#SVGID_1_);}
	.st48{fill:#5B2B00;}
	.st49{fill:#CAA095;}
	.st50{fill:#F7C844;}
	.st51{fill-rule:evenodd;clip-rule:evenodd;fill:#FFFFFF;}
	.st52{fill:url(#SVGID_00000072268670079813510200000005228443271620392858_);}
	.st53{fill-rule:evenodd;clip-rule:evenodd;fill:#ED1A23;}
	.st54{fill-rule:evenodd;clip-rule:evenodd;fill:#242021;}
	.st55{fill-rule:evenodd;clip-rule:evenodd;fill:#757072;}
	.st56{fill:#66405E;}
	.st57{fill:#CBA390;}
	.st58{fill:#230003;}
	.st59{fill:#004255;}
	.st60{fill:#FF93AC;}
	.st61{fill:#CC004A;}
	.st62{fill:#62007A;}
	.st63{fill-rule:evenodd;clip-rule:evenodd;fill:#E6FFFE;}
	.st64{fill-rule:evenodd;clip-rule:evenodd;fill:#F2B8B0;}
	.st65{fill-rule:evenodd;clip-rule:evenodd;fill:url(#SVGID_00000078737200454234958390000009465594375618822811_);}
	.st66{fill-rule:evenodd;clip-rule:evenodd;fill:#6B006B;}
	.st67{fill-rule:evenodd;clip-rule:evenodd;fill:#005B5B;}
</style>
<g>
	<path class="st56" d="M128.47,31.28c25.7-25.7,67.36-25.7,93.06,0s25.7,67.36,0,93.06s-67.36,25.7-93.06,0
		S102.78,56.98,128.47,31.28z"/>
	<path class="st57" d="M213.38,98.79c0.09-1.08-1.29-1.91-1.88-2.65c-0.53-0.66-0.72-1.35-0.34-2.14c0.38-0.8,1.06-1.44,1.7-2.03
		c1.01-0.93,1.88-2.29,1.56-3.73c-0.19-0.86-0.86-1.48-1.62-1.87c-0.27-0.14-0.56-0.25-0.85-0.33c-0.26-0.07-0.25-0.07-0.51-0.18
		c-0.66-0.27-1.32-0.55-1.95-0.89c-3.67-1.98-5.35-5.9-6.49-9.72c-0.51-1.7-0.91-3.43-1.26-5.17c-0.31-1.51-0.71-2.99-1.35-4.4
		c-0.89-1.97-2.2-3.76-3.96-5.03c-2.12-1.52-4.82-2.27-7.42-2.07c-0.15,0.01-0.31,0.02-0.46,0.05c-4.8,0.15-9.66,0.75-14.2,2.39
		c-3.34,1.2-6.49,3-8.98,5.54c-2.14,2.18-3.72,4.85-4.73,7.73c-1.02,2.92-1.46,6.02-1.56,9.11c-0.1,3.13,0.15,6.27,0.58,9.37
		c0.41,2.97,1,5.92,1.66,8.84c0.55,2.45,1.16,4.89,1.68,7.35c0.2,0.92,0.38,1.85,0.51,2.79c0.25,1.82,0.12,3.65-0.25,5.44
		c-0.99,4.8-3.42,9.27-6.06,13.34c-1.82,2.8-3.82,5.49-6,8.02c-0.11,0.13-0.23,0.26-0.34,0.39c-0.06,0.06,0.07,0.13,0.11,0.15
		c5.91,2.36,12.14,3.93,18.48,4.52c3.79,0.35,7.65,0.39,11.43-0.09c0.65-0.08,1.31-0.17,1.95-0.31c0.02,0,0.03-0.02,0.04-0.03
		c1.38-5.48,2.99-11.09,5.85-16.01c0.77-1.32,1.64-2.56,2.57-3.78c0.77-1.01,1.48-2.11,2.36-3.02c0.81-0.83,1.85-1.03,2.96-1.15
		c2.7-0.28,5.42-0.32,8.11-0.6c3.14-0.33,7.82-1.6,7.52-5.61c-0.05-0.61-0.23-1.11-0.46-1.66c-0.42-1.05-0.74-2.27-0.49-3.4
		c0.17-0.78,0.69-1.21,1.15-1.82c0.33-0.44,0.6-0.96,0.48-1.52c-0.2-1-1.48-1.43-1.52-2.46c-0.03-0.66,0.47-1.28,0.88-1.75
		C212.68,99.92,213.32,99.46,213.38,98.79z"/>
	<path class="st17" d="M188.69,93.37c-1.86-2.95-5.41-4.46-8.83-3.86c-4.01,0.7-6.95,4.18-7.02,8.24c0.06,3.55,2.3,6.68,5.66,7.88
		c3.34,1.19,7.22,0.16,9.5-2.56C190.28,100.36,190.59,96.38,188.69,93.37z M179.89,105.34c-3.67-0.69-6.34-3.87-6.41-7.59
		c0.06-3.26,2.1-6.15,5.18-7.26c3.09-1.11,6.64-0.2,8.79,2.29c2.14,2.47,2.44,6.12,0.75,8.91
		C186.5,104.5,183.11,105.95,179.89,105.34z"/>
	<path class="st58" d="M201.36,72.28c0.14,0.03,0.26,0.1,0.32,0.21c0.08,0.14,0.1,0.35-0.24,0.62c-0.65,0.52-4.25,0.15-5.62,0.07
		c-0.34-0.02-0.67,0.17-0.84,0.46l-2.47,4.51c0,0,2.03-5.24,2.48-5.53C195.42,72.35,199.73,71.97,201.36,72.28z M199.29,75.17
		c0,0-1.01-0.37-1.07,1.27c-0.06,1.64,0.47,5.62,1.47,5.34s0.52-3.6,0.52-3.6S199.75,75.33,199.29,75.17z M204.68,73.51
		c-1.66,1.26-3.71,2.1-5.88,1.63c-0.16-0.03,0.16,0.38,0.29,0.41c2.22,0.48,4.29-0.34,6-1.63
		C205.17,73.86,204.78,73.43,204.68,73.51L204.68,73.51z M204.27,72.06c-0.39,0.63-0.89,1.21-1.42,1.73
		c-0.93,0.92-2.43,2.03-3.89,1.65c-0.1-0.03-0.58-0.06-0.27,0.02c2.62,0.68,4.84-1.3,6.09-3.3
		C204.79,72.15,204.33,71.97,204.27,72.06L204.27,72.06z"/>
	<path class="st29" d="M201.58,32.78c-3.09-4.06-8.06-5.58-12.82-6.69c-5.4-1.27-11.02-2.26-16.59-1.97
		c-3.3,0.17-6.7,0.84-9.52,2.66c-2.09,1.35-3.68,3.29-4.8,5.49c-1.03,2.04-1.68,4.23-2.36,6.4c-0.31,0.99-0.63,1.98-1.03,2.94
		c-0.55,1.33-1.32,2.53-2.15,3.69c-3.21,4.47-7.31,8.26-11.14,12.19c-3.84,3.93-7.74,8.03-10.35,12.91
		c-1.17,2.19-2.05,4.57-2.35,7.05c-0.32,2.68,0,5.49,0.55,8.12c1.18,5.62,3.78,10.87,6.96,15.62c3.19,4.77,7,9.12,11.08,13.15
		c3.47,3.44,7.16,6.65,10.96,9.72c0.78,0.63,1.55,1.33,2.4,1.87c0.48,0.3,1.26,0.67,1.58-0.02c0.2-0.43,0.21-0.96,0.26-1.42
		c0.06-0.63,0.12-1.25,0.21-1.87c0.13-0.96,0.32-1.91,0.53-2.86c1.19-5.15,3.35-10.07,5.93-14.67c1.73-3.07,3.68-6.01,5.81-8.82
		c2.39-3.16,5.05-6.06,7.75-8.95c4.1-4.39,8.12-8.88,11.79-13.64c1.76-2.29,3.5-4.65,4.88-7.2c0.47-0.87,0.96-1.79,1.02-2.8
		c0.04-1.32,0.34-2.63,0.66-3.92c0.41-1.67,0.89-3.32,1.35-4.97c1.03-3.75,2-7.58,2.17-11.48C204.54,39.6,203.88,35.79,201.58,32.78
		z M205.7,84.79c-0.49-0.64-1.33-0.34-1.8,0.11c-0.01,0.01-0.01,0.02-0.02,0.03c0-0.01-0.12,0.15-0.15,0.19
		c-0.14,0.16-0.31,0.3-0.48,0.43c-0.67,0.48-1.51,0.7-2.32,0.74c-0.67,0.03-1.35-0.04-2.01-0.19c-0.45-0.1-0.9-0.31-1.37-0.26
		c-0.71,0.08-1.23,0.52-1.11,1.28c0.15,0.95,1.02,1.72,1.77,2.24c0.96,0.68,2.11,1.15,3.29,1.22c2.23,0.13,3.65-1.52,4.2-3.52
		C205.88,86.43,206.14,85.37,205.7,84.79z M203.87,84.94C203.87,84.94,203.87,84.94,203.87,84.94
		C203.87,84.94,203.87,84.95,203.87,84.94C203.87,84.94,203.87,84.94,203.87,84.94z"/>
</g>
</svg>
