<?xml version="1.0" encoding="utf-8"?>
<!-- Generator: Adobe Illustrator 27.8.1, SVG Export Plug-In . SVG Version: 6.00 Build 0)  -->
<svg version="1.1" id="Layer_1" xmlns="http://www.w3.org/2000/svg" xmlns:xlink="http://www.w3.org/1999/xlink" x="0px" y="0px"
	 viewBox="0 0 350 230" style="enable-background:new 0 0 350 230;" xml:space="preserve">
<style type="text/css">
	.st0{fill:#F9EAE4;}
	.st1{fill:#F9FCD9;}
	.st2{fill:#FFDCE7;}
	.st3{fill:#F9E4D9;}
	.st4{fill:#F9D4D2;}
	.st5{fill:#F0FFFE;}
	.st6{fill:#E7E8D6;}
	.st7{fill:#F4F3DC;}
	.st8{fill:#F9E8E1;}
	.st9{fill:#E1E2D5;}
	.st10{fill:#E6FFFE;}
	.st11{fill:#EACFC1;}
	.st12{fill:#F3F4C1;}
	.st13{fill:#C2F2D8;}
	.st14{fill:#A15FAC;}
	.st15{fill:#002C6B;}
	.st16{fill:#56001D;}
	.st17{fill:#8C002F;}
	.st18{fill:#043866;}
	.st19{fill:#506600;}
	.st20{fill:#604500;}
	.st21{fill-rule:evenodd;clip-rule:evenodd;fill:#C600C6;}
	.st22{fill-rule:evenodd;clip-rule:evenodd;fill:#464748;}
	.st23{fill-rule:evenodd;clip-rule:evenodd;fill:#FF838C;}
	.st24{fill-rule:evenodd;clip-rule:evenodd;fill:#005968;}
	.st25{fill:#F9C1C4;}
	.st26{fill-rule:evenodd;clip-rule:evenodd;fill:#002B26;}
	.st27{fill-rule:evenodd;clip-rule:evenodd;fill:#6D0008;}
	.st28{fill:#5B0A54;}
	.st29{fill:#FFFFFF;}
	.st30{fill-rule:evenodd;clip-rule:evenodd;fill:#C97943;}
	.st31{fill-rule:evenodd;clip-rule:evenodd;fill:#E9CEEA;}
	.st32{fill-rule:evenodd;clip-rule:evenodd;fill:#034C42;}
	.st33{fill:#026683;}
	.st34{fill:#26BCBC;}
	.st35{fill:#001F59;}
	.st36{fill:#7D1839;}
	.st37{fill:#A8007D;}
	.st38{fill:#5B2F00;}
	.st39{fill:#A8228D;}
	.st40{fill:#4C0231;}
	.st41{fill:#304C19;}
	.st42{fill:#F52287;}
	.st43{fill:#231F20;}
	.st44{fill:#D3407F;}
	.st45{fill:#568429;}
	.st46{fill-rule:evenodd;clip-rule:evenodd;fill:#424200;}
	.st47{fill:url(#SVGID_1_);}
	.st48{fill:#5B2B00;}
	.st49{fill:#CAA095;}
	.st50{fill:#F7C844;}
	.st51{fill-rule:evenodd;clip-rule:evenodd;fill:#FFFFFF;}
	.st52{fill:url(#SVGID_00000091709273348272896220000007619320552155560838_);}
	.st53{fill-rule:evenodd;clip-rule:evenodd;fill:#ED1A23;}
	.st54{fill-rule:evenodd;clip-rule:evenodd;fill:#242021;}
	.st55{fill-rule:evenodd;clip-rule:evenodd;fill:#757072;}
	.st56{fill:#66405E;}
	.st57{fill:#CBA390;}
	.st58{fill:#230003;}
	.st59{fill:#004255;}
	.st60{fill:#FF93AC;}
	.st61{fill:#CC004A;}
	.st62{fill:#62007A;}
	.st63{fill-rule:evenodd;clip-rule:evenodd;fill:#E6FFFE;}
	.st64{fill-rule:evenodd;clip-rule:evenodd;fill:#F2B8B0;}
	.st65{fill-rule:evenodd;clip-rule:evenodd;fill:url(#SVGID_00000165928969973676372450000005483076876973430155_);}
	.st66{fill-rule:evenodd;clip-rule:evenodd;fill:#6B006B;}
	.st67{fill-rule:evenodd;clip-rule:evenodd;fill:#005B5B;}
</style>
<g>
	<path class="st43" d="M159.65,45.8c-4.87,3.44-9.49,7.05-10.95,13.23c0.08,0.06,0.16,0.13,0.23,0.19c0.71-0.97,1.37-1.99,2.14-2.91
		c2.42-2.89,5.35-4.96,9.16-5.59c0.81-0.13,0.86,0.09,0.71,0.76c-0.82,3.66-2.11,7.06-4.23,10.25c-4.33,6.52-10.72,8.49-18.11,9
		c0.26-0.76,0.8-1.11,1.18-1.55c2.73-3.15,4.45-6.89,6.12-10.63c2.73-6.13,7.37-10.16,13.44-12.71
		C159.43,45.79,159.55,45.81,159.65,45.8z M167.77,142.29c-1.67,0.85-3.44,1.36-5.24,1.73c-7.47,1.52-14.45,0.28-20.69-4.14
		c-6.27-4.44-9.95-10.68-11.91-18.02c-1.26-4.74-1.4-9.55-0.89-14.39c0.03-0.25,0.16-0.48,0.24-0.72c0.27-2.47,1.06-4.78,2.08-7.02
		c1.83-4.09,4.46-7.63,7.57-10.83c2.38-2.62,4.91-5.08,7.51-7.48c4.97-4.61,9.99-9.17,13.95-14.73c0.72-1.01,1.39-2.06,2.08-3.09
		c0.07-0.09,0.13-0.18,0.2-0.27c0.06-0.33,0.22-0.6,0.45-0.84c0.38,0.16,0.68,0.59,0.59,0.83c-0.37,1.03,0.45,1.22,0.99,1.63
		c-1.93,4.39-4.79,8.17-7.85,11.82c-2.29,2.74-4.63,5.45-7.09,8.05c-1.42,1.51-2.67,3.18-4,4.78c-1.98,2.67-3.98,5.3-5.58,8.23
		c-1.72,3.16-2.87,6.54-3.69,10.02c-0.06,0.09-0.13,0.17-0.2,0.25c0.01,0.07-0.01,0.13-0.04,0.2c-0.06,1.01-0.13,2.01-0.19,3.01
		c-0.51,8.82,2.18,16.44,8.48,22.73c1.31,1.31,2.7,2.71,4.23,3.54c3.64,1.98,7.47,3.67,11.68,4.23
		C162.89,142.12,165.31,142.23,167.77,142.29z M129.64,109.29c0-0.09-0.06-0.23-0.12-0.25c-0.18-0.05-0.25,0.09-0.23,0.23
		c0.01,0.08,0.09,0.15,0.17,0.28C129.54,109.43,129.63,109.36,129.64,109.29z M154.08,70.69c-1.25-0.08-2.28,0.95-3.52,0.31
		c-0.13,0.1-0.27,0.2-0.4,0.3l-0.51,0.39c-4.1,2.72-8.49,4.76-13.35,5.68c-5.24,0.99-10.43,1.03-15.42-1.19
		c-3.32-1.47-5.53-3.92-6.09-7.63c-0.24-1.58-0.06-3.15,0.17-4.71c0.06-0.13,0.14-0.25,0.2-0.38c2.09-5.85,7.2-8.82,13.24-7.56
		c2.89,0.6,5.12,2.15,6,5.16c0.85,2.91-0.02,5.34-2.15,7.36c-1.55,1.48-3.91,1.79-5.82,0.84c-1.84-0.91-2.68-2.5-2.52-4.59
		c0.04-0.56,0.47-1.02,0.42-1.65c-1.37,1.06-1.77,2.31-1.32,3.93c1.09,3.87,5.88,5.49,9.52,3.42c4.31-2.46,5.21-9.61,1.49-13.31
		c-2.73-2.71-6.01-3.7-9.73-3.37c-5.69,0.51-10.02,3.19-12.7,8.34c-1.41,2.68-1.93,5.52-1.33,8.49c1.11,5.49,4.79,8.76,9.76,10.68
		c6.64,2.58,13.26,1.68,19.74-0.7c5.11-1.88,9.68-4.68,13.61-8.49l0.3-0.26c0.16-0.14,0.31-0.3,0.48-0.44
		C153.74,71.14,154.15,70.78,154.08,70.69z M140.18,56c-1.2,1.52-1.74,3.28-1.89,5.18c-0.15,1.88-0.5,3.72-1.2,5.7
		c0.75-0.37,1.28-0.61,1.79-0.89c3.81-2.07,4.97-5.87,4.51-9.34c-0.12-0.91-0.41-0.81-1.02-0.38c-1.07,0.75-1.72,1.78-2.22,2.93
		c-0.16,0.37-0.29,0.76-0.5,1.31c-0.36-1.99,0.66-3.41,1.29-4.95C140.43,55.46,140.35,55.79,140.18,56z M138.18,85.53
		c-1.93,2.32-3.83,4.67-6.49,6.24c-1.33,0.73-2.74,1.18-4.28,1.37c0.03-0.35,0.28-0.26,0.4-0.36c0.18-0.13,0.39-0.2,0.58-0.31
		c2.89-1.67,5.1-3.9,6.08-7.19c0.22-0.75,0.16-1.15-0.82-0.98c-2.5,0.45-4.93,1.11-7.18,2.32c-3.37,1.8-5.65,4.54-7,8.08
		c-0.67,1.76-1.08,3.57-1.23,5.57c1.11-0.73,2.06-1.42,3.06-1.99c2.15-1.22,4.41-2.21,6.75-3.03c1.19-0.42,2.26-1.15,3.38-1.74
		c-0.08-0.11-0.14-0.23-0.22-0.34c0.31-0.03,0.62-0.05,0.92-0.07c0.13-0.09,0.26-0.18,0.4-0.27c0.02-0.23-0.02-0.48,0.23-0.62
		c0.06,0.06,0.13,0.13,0.2,0.2l0.06,0.06c2.39-1.79,4.01-4.18,5.27-6.85C138.26,85.59,138.22,85.56,138.18,85.53z M131.22,93.16
		c0.08,0.11,0.14,0.23,0.22,0.34c0.33,0.03,0.54-0.15,0.7-0.41C131.83,93.11,131.52,93.14,131.22,93.16z M132.96,92.39
		c-0.06-0.06-0.13-0.13-0.2-0.2c-0.25,0.14-0.21,0.4-0.23,0.62c0.16-0.12,0.33-0.24,0.48-0.36L132.96,92.39z M138.71,84.72
		c-0.07,0.15-0.14,0.29-0.21,0.44l-0.02-0.02C138.7,85.08,138.65,84.87,138.71,84.72L138.71,84.72z M138.18,85.53
		c0.04,0.03,0.08,0.06,0.11,0.08c0.18-0.1,0.21-0.26,0.19-0.45C138.27,85.2,138.24,85.38,138.18,85.53z M138.48,85.15v0.02
		c0.01-0.01,0.01-0.01,0.02-0.01L138.48,85.15z M138.71,84.72l0.03-0.03C138.73,84.69,138.7,84.71,138.71,84.72
		C138.7,84.71,138.71,84.72,138.71,84.72z M129.52,109.04c-0.18-0.05-0.25,0.09-0.23,0.23c0.01,0.08,0.09,0.15,0.17,0.28
		c0.08-0.12,0.17-0.19,0.18-0.26C129.64,109.2,129.58,109.05,129.52,109.04z M241.61,125.33c0.48-1.81,0.6-3.83,0.39-5.69
		c-0.82-7.09-5.16-12.14-10.27-16.57c-7.31-6.35-15.8-10.62-24.98-13.57c-1.91-0.62-3.74-1.36-4.16-3.53
		c-0.37-1.95-0.84-4.04-0.5-5.93c1.12-6.3,2.65-12.52,3.9-18.8c0.94-4.7,2.19-9.4,2.41-14.15c0.31-6.84-3.06-11.71-8.33-13.54
		c-3.31-1.15-6.63-0.93-9.93-0.03c-10.66,2.9-18.12,10.18-25.55,18.65c4.94-2.15,9.39-3.53,14.24-3.28
		c5.88,0.3,10.19,3.4,12.09,8.99c1.57,4.64,1.27,9.28,0.17,13.99c-1.26,5.38-2.64,10.76-3.3,16.23c-1.13,9.33,3.71,15,12.69,16.17
		c4.75,0.62,9.52,1.52,14.08,2.95c6.84,2.15,13.28,5.25,18.37,10.56c4.67,4.87,5.17,10.64,1.28,16.16
		c-1.08,1.53-2.39,2.89-3.59,4.33C235.68,135.13,240.02,131.33,241.61,125.33z M226.2,90.24c-4.54-4.22-6.8-9.43-7.52-15.41
		c-0.6-5-0.78-10.05-1.51-15.03c-0.72-4.93-2.97-9.3-5.42-12.86c-1.56,7.01-3.19,14.25-4.76,21.5c-0.9,4.14-1.95,8.27-2.45,12.47
		c-0.5,4.26,0.77,5.97,4.68,7.62c1.62,0.68,3.29,1.25,4.96,1.8c6.98,2.3,13.7,5.05,18.83,10.71
		C231.84,96.74,229.37,93.19,226.2,90.24z M217.1,142.9c5.15-1.92,10.04-4.27,13.94-8.25c5.19-5.29,5.15-11.08-0.2-16.22
		c-5.59-5.38-12.75-7.74-20.06-9.96c0.35,0.66,1,0.97,1.47,1.46c3.66,3.77,6.48,7.99,6.52,13.49c0.06,6.85-3.46,12-8.62,15.88
		c-4.11,3.08-8.78,5.42-13.12,8.03C203.72,146.57,210.54,145.35,217.1,142.9z M170.89,83.42c-2.52-0.45-5-1.18-7.53-1.53
		c-5.07-0.72-9.54,0.38-13.09,5.24c4.8-2.66,9.43-2.68,14.17-1.86c3.79,0.65,7.57,1.35,11.38,1.81c2.58,0.31,2.94-0.37,2.04-2.62
		C175.45,84.1,173.16,83.83,170.89,83.42z M159.33,94.7c1.44,0.46,3.29,1.68,4.21,1.19c1.33-0.72,1.98-2.69,2.92-4.12
		c0.76-0.47,2.05-0.51,3.28-0.26c1.21,0.24,2.36,0.77,3.8,1.26c-3.12-3.56-11.36-3.96-16.48-0.21c-1.41,1.03-2.99,1.82-4.61,2.79
		c2.28,0.63,4.72,1.3,7.17,1.97c0.04-0.14,0.07-0.27,0.11-0.41c-0.82-0.35-1.65-0.71-2.78-1.2c0.95-0.8,1.6-1.34,2.25-1.89
		C159.25,94.11,159.29,94.41,159.33,94.7z"/>
	<path class="st44" d="M176.09,129.51c2.67-1.76,5.25-3.34,7.7-5.1c2.16-1.56,4.24-2.28,6.61-0.15c2.95-3.84,5.64-1.3,8.38,0.24
		C195.85,136.19,188.41,137.87,176.09,129.51z"/>
</g>
</svg>
