<?xml version="1.0" encoding="utf-8"?>
<!-- Generator: Adobe Illustrator 27.8.1, SVG Export Plug-In . SVG Version: 6.00 Build 0)  -->
<svg version="1.1" id="Layer_1" xmlns="http://www.w3.org/2000/svg" xmlns:xlink="http://www.w3.org/1999/xlink" x="0px" y="0px"
	 viewBox="0 0 350 230" style="enable-background:new 0 0 350 230;" xml:space="preserve">
<style type="text/css">
	.st0{fill:#F9EAE4;}
	.st1{fill:#F9FCD9;}
	.st2{fill:#FFDCE7;}
	.st3{fill:#F9E4D9;}
	.st4{fill:#F9D4D2;}
	.st5{fill:#F0FFFE;}
	.st6{fill:#E7E8D6;}
	.st7{fill:#F4F3DC;}
	.st8{fill:#F9E8E1;}
	.st9{fill:#E1E2D5;}
	.st10{fill:#E6FFFE;}
	.st11{fill:#EACFC1;}
	.st12{fill:#F3F4C1;}
	.st13{fill:#C2F2D8;}
	.st14{fill:#A15FAC;}
	.st15{fill:#002C6B;}
	.st16{fill:#56001D;}
	.st17{fill:#8C002F;}
	.st18{fill:#043866;}
	.st19{fill:#506600;}
	.st20{fill:#604500;}
	.st21{fill-rule:evenodd;clip-rule:evenodd;fill:#C600C6;}
	.st22{fill-rule:evenodd;clip-rule:evenodd;fill:#464748;}
	.st23{fill-rule:evenodd;clip-rule:evenodd;fill:#FF838C;}
	.st24{fill-rule:evenodd;clip-rule:evenodd;fill:#005968;}
	.st25{fill:#F9C1C4;}
	.st26{fill-rule:evenodd;clip-rule:evenodd;fill:#002B26;}
	.st27{fill-rule:evenodd;clip-rule:evenodd;fill:#6D0008;}
	.st28{fill:#5B0A54;}
	.st29{fill:#FFFFFF;}
	.st30{fill-rule:evenodd;clip-rule:evenodd;fill:#C97943;}
	.st31{fill-rule:evenodd;clip-rule:evenodd;fill:#E9CEEA;}
	.st32{fill-rule:evenodd;clip-rule:evenodd;fill:#034C42;}
	.st33{fill:#026683;}
	.st34{fill:#26BCBC;}
	.st35{fill:#001F59;}
	.st36{fill:#7D1839;}
	.st37{fill:#A8007D;}
	.st38{fill:#5B2F00;}
	.st39{fill:#A8228D;}
	.st40{fill:#4C0231;}
	.st41{fill:#304C19;}
	.st42{fill:#F52287;}
	.st43{fill:#231F20;}
	.st44{fill:#D3407F;}
	.st45{fill:#568429;}
	.st46{fill-rule:evenodd;clip-rule:evenodd;fill:#424200;}
	.st47{fill:url(#SVGID_1_);}
	.st48{fill:#5B2B00;}
	.st49{fill:#CAA095;}
	.st50{fill:#F7C844;}
	.st51{fill-rule:evenodd;clip-rule:evenodd;fill:#FFFFFF;}
	.st52{fill:url(#SVGID_00000160905749231328007970000014808195145525564815_);}
	.st53{fill-rule:evenodd;clip-rule:evenodd;fill:#ED1A23;}
	.st54{fill-rule:evenodd;clip-rule:evenodd;fill:#242021;}
	.st55{fill-rule:evenodd;clip-rule:evenodd;fill:#757072;}
	.st56{fill:#66405E;}
	.st57{fill:#CBA390;}
	.st58{fill:#230003;}
	.st59{fill:#004255;}
	.st60{fill:#FF93AC;}
	.st61{fill:#CC004A;}
	.st62{fill:#62007A;}
	.st63{fill-rule:evenodd;clip-rule:evenodd;fill:#E6FFFE;}
	.st64{fill-rule:evenodd;clip-rule:evenodd;fill:#F2B8B0;}
	.st65{fill-rule:evenodd;clip-rule:evenodd;fill:url(#SVGID_00000144311780519966760250000016363026094573333684_);}
	.st66{fill-rule:evenodd;clip-rule:evenodd;fill:#6B006B;}
	.st67{fill-rule:evenodd;clip-rule:evenodd;fill:#005B5B;}
</style>
<g>
	<path class="st59" d="M154.12,55.7c2.6,16.21,12.89,27.58,23.72,38.67c7.54,7.71,15.53,15.1,22.15,23.56
		c11.16,14.27,8.44,27.37-6.85,37.03c-14.3,9.03-29.48,9.17-45.98,3.97c1.78-1.62,2.94-2.86,4.28-3.86
		c17.01-12.76,22.25-29.43,15.2-49.68c-1.93-5.55-4.61-10.87-7.21-16.17C154.21,78.61,151.76,67.62,154.12,55.7z M216.02,100.79
		c-4.6-7.68-11.32-14.64-18.47-20.14c-15.53-11.94-23.67-26.78-22.09-46.46c0.39-4.81,1.65-9.56,2.66-15.2
		c-1.77,1.4-3.04,2.17-4.03,3.21c-17.24,18-17.9,40.57-1.03,60.4c7.98,9.38,17.21,17.68,25.7,26.63
		c7.24,7.63,13.84,15.71,14.87,27.06C220.39,124.74,223.01,112.47,216.02,100.79z"/>
	<path class="st60" d="M138.43,110.66c2.24-4.79,0.08-5.91-7.43-10.95c-1.41-0.95-1.54-2.99-0.23-4.06
		c7.96-6.51,11.61-16.05,12.47-25.6c0.66-7.26,3.15-14.35,5.96-21.48c-4.13,18.82,2.56,34.96,10.68,51.06
		c4.67,9.26,6.51,19.32,4.42,29.95c-1.56,7.96-7.09,10.5-12.28,10.87c-5.3,0.37-4.19-10.16-4.85-14.17
		c-0.74-4.54-6.79-6.03-8.86-10.98C137.69,113.8,137.75,112.11,138.43,110.66z M181.62,32.79c0,5.39,4.37,9.76,9.76,9.76
		c5.39,0,9.76-4.37,9.76-9.76s-4.37-9.76-9.76-9.76C185.99,23.02,181.62,27.39,181.62,32.79z M190.73,56.87
		c0,4.1,3.32,7.42,7.42,7.42s7.42-3.32,7.42-7.42s-3.32-7.42-7.42-7.42S190.73,52.77,190.73,56.87z M206.22,73.4
		c0,2.3,1.86,4.17,4.17,4.17c2.3,0,4.17-1.86,4.17-4.17s-1.86-4.17-4.17-4.17C208.08,69.23,206.22,71.1,206.22,73.4z"/>
</g>
</svg>
