<?xml version="1.0" encoding="utf-8"?>
<!-- Generator: Adobe Illustrator 27.8.1, SVG Export Plug-In . SVG Version: 6.00 Build 0)  -->
<svg version="1.1" id="Layer_1" xmlns="http://www.w3.org/2000/svg" xmlns:xlink="http://www.w3.org/1999/xlink" x="0px" y="0px"
	 viewBox="0 0 350 230" style="enable-background:new 0 0 350 230;" xml:space="preserve">
<style type="text/css">
	.st0{fill:#F9EAE4;}
	.st1{fill:#F9FCD9;}
	.st2{fill:#FFDCE7;}
	.st3{fill:#F9E4D9;}
	.st4{fill:#F9D4D2;}
	.st5{fill:#F0FFFE;}
	.st6{fill:#E7E8D6;}
	.st7{fill:#F4F3DC;}
	.st8{fill:#F9E8E1;}
	.st9{fill:#E1E2D5;}
	.st10{fill:#E6FFFE;}
	.st11{fill:#EACFC1;}
	.st12{fill:#F3F4C1;}
	.st13{fill:#C2F2D8;}
	.st14{fill:#A15FAC;}
	.st15{fill:#002C6B;}
	.st16{fill:#56001D;}
	.st17{fill:#8C002F;}
	.st18{fill:#043866;}
	.st19{fill:#506600;}
	.st20{fill:#604500;}
	.st21{fill-rule:evenodd;clip-rule:evenodd;fill:#C600C6;}
	.st22{fill-rule:evenodd;clip-rule:evenodd;fill:#464748;}
	.st23{fill-rule:evenodd;clip-rule:evenodd;fill:#FF838C;}
	.st24{fill-rule:evenodd;clip-rule:evenodd;fill:#005968;}
	.st25{fill:#F9C1C4;}
	.st26{fill-rule:evenodd;clip-rule:evenodd;fill:#002B26;}
	.st27{fill-rule:evenodd;clip-rule:evenodd;fill:#6D0008;}
	.st28{fill:#5B0A54;}
	.st29{fill:#FFFFFF;}
	.st30{fill-rule:evenodd;clip-rule:evenodd;fill:#C97943;}
	.st31{fill-rule:evenodd;clip-rule:evenodd;fill:#E9CEEA;}
	.st32{fill-rule:evenodd;clip-rule:evenodd;fill:#034C42;}
	.st33{fill:#026683;}
	.st34{fill:#26BCBC;}
	.st35{fill:#001F59;}
	.st36{fill:#7D1839;}
	.st37{fill:#A8007D;}
	.st38{fill:#5B2F00;}
	.st39{fill:#A8228D;}
	.st40{fill:#4C0231;}
	.st41{fill:#304C19;}
	.st42{fill:#F52287;}
	.st43{fill:#231F20;}
	.st44{fill:#D3407F;}
	.st45{fill:#568429;}
	.st46{fill-rule:evenodd;clip-rule:evenodd;fill:#424200;}
	.st47{fill:url(#SVGID_1_);}
	.st48{fill:#5B2B00;}
	.st49{fill:#CAA095;}
	.st50{fill:#F7C844;}
	.st51{fill-rule:evenodd;clip-rule:evenodd;fill:#FFFFFF;}
	.st52{fill:url(#SVGID_00000154417121970977273730000010038530082131315123_);}
	.st53{fill-rule:evenodd;clip-rule:evenodd;fill:#ED1A23;}
	.st54{fill-rule:evenodd;clip-rule:evenodd;fill:#242021;}
	.st55{fill-rule:evenodd;clip-rule:evenodd;fill:#757072;}
	.st56{fill:#66405E;}
	.st57{fill:#CBA390;}
	.st58{fill:#230003;}
	.st59{fill:#004255;}
	.st60{fill:#FF93AC;}
	.st61{fill:#CC004A;}
	.st62{fill:#62007A;}
	.st63{fill-rule:evenodd;clip-rule:evenodd;fill:#E6FFFE;}
	.st64{fill-rule:evenodd;clip-rule:evenodd;fill:#F2B8B0;}
	.st65{fill-rule:evenodd;clip-rule:evenodd;fill:url(#SVGID_00000073710832241672811060000009850504512010826935_);}
	.st66{fill-rule:evenodd;clip-rule:evenodd;fill:#6B006B;}
	.st67{fill-rule:evenodd;clip-rule:evenodd;fill:#005B5B;}
</style>
<g>
	<path class="st51" d="M175.83,78.7c-1.18-0.11-2.28,0.25-3.19,0.88c-0.18,0.87,0.31,1.78,1.17,2.1c0.26,0.1,0.54,0.14,0.8,0.11
		c0.09-0.01,0.18-0.02,0.27-0.04c0.04-0.01,0.09-0.02,0.14-0.03c0.52-0.17,0.97-0.57,1.18-1.12
		C176.45,79.92,176.29,79.19,175.83,78.7z M175.26,79.31c0.21,0,0.37,0.17,0.37,0.38c0,0.05-0.01,0.11-0.04,0.15
		c-0.02,0.07-0.07,0.12-0.13,0.15c-0.06,0.04-0.13,0.07-0.21,0.07c-0.21,0-0.38-0.17-0.38-0.37c0-0.12,0.06-0.23,0.15-0.3
		c0.03-0.02,0.07-0.04,0.1-0.06C175.17,79.32,175.22,79.31,175.26,79.31z"/>
	<radialGradient id="SVGID_1_" cx="175.0002" cy="78.1426" r="60.2629" gradientUnits="userSpaceOnUse">
		<stop  offset="0" style="stop-color:#000000"/>
		<stop  offset="0.2012" style="stop-color:#1A0A13"/>
		<stop  offset="0.5493" style="stop-color:#401830"/>
		<stop  offset="0.8278" style="stop-color:#582142"/>
		<stop  offset="1" style="stop-color:#612449"/>
	</radialGradient>
	<path class="st47" d="M197.18,103.94c-0.15,0.39-0.29,0.77-0.43,1.14c-0.37,0.99-0.97,2.55-1.16,3.49c-0.35,1.7-1.06,3.09-2.3,4.52
		c-0.32,0.37-0.7,0.7-1.12,0.99c-2.69,1.85-7.05,2.05-11.97,1.27c-4.16-0.65-13.9-4.17-15.65-8.87c2.57,3.72,11.32,7.19,15.59,7.87
		c4.74,0.76,8.93,0.45,11.45-1.29c0.37-0.26,0.7-0.55,0.98-0.87c1.11-1.28,1.92-2.64,2.25-4.24c0.2-0.96,0.79-2.03,1.19-3.08
		c0.14-0.38,0.29-0.76,0.43-1.15c1.34-3.49,2.35-8.01,1.63-12.72c-0.03-0.19-0.06-0.39-0.1-0.58l0.74,0.12
		c0.1,0.56,0.18,1.12,0.23,1.66C199.41,96.65,198.45,100.62,197.18,103.94z M149.62,14.06c-0.2,0.59-0.33,1.17-0.42,1.69
		c0.16-0.64,0.36-1.22,0.6-1.74C149.75,14.03,149.68,14.05,149.62,14.06z M195.27,99.43l-0.79,0.74c-0.21,0.19-0.4,0.4-0.57,0.62
		c-0.62,0.76-1.12,1.51-1.9,2.14c-1.11,0.87-2.42,1.16-3.8,1.19c-3.91,0.08-6.75-1.7-10.33-2.83l-2.08-0.65l2.1-0.59
		c0.65-0.18,1.3-0.43,1.92-0.68c0.86-0.35,1.7-0.72,2.55-1.05c0.73-0.28,1.56-0.57,2.33-0.65c0.57-0.06,1.11-0.07,1.67-0.1
		c0.65-0.03,1.26-0.14,1.89-0.28l0.03-0.01l0.04-0.01c1.17-0.13,2.38-0.11,3.47,0.35c0.71,0.3,1.17,0.72,1.81,1.12
		c0.19,0.12,0.4,0.23,0.62,0.32L195.27,99.43z M182.8,92.56c-2.14-0.76-3.3-3.06-0.18-4.53C180.84,89.39,181.09,91.09,182.8,92.56z
		 M187.44,91.97c-1.07,0.29-3.11,0.23-4.19,0.53C184.19,90.88,186.21,91.03,187.44,91.97z M177.84,78.95
		c-0.11-0.06-0.23-0.12-0.35-0.17c-0.07-0.04-0.15-0.07-0.22-0.1c-0.12-0.06-0.25-0.1-0.38-0.15
		C177.22,78.63,177.53,78.78,177.84,78.95z M179.27,79.93c-0.03-0.01-0.07-0.02-0.1-0.04c-0.19-0.18-0.39-0.35-0.59-0.5
		C178.87,79.58,179.1,79.77,179.27,79.93z M176.87,81.62c-0.61,0.29-1.33,0.49-2.06,0.59C175.49,82.08,176.2,81.85,176.87,81.62z
		 M179.07,74.15c-1.41,1.64-9.81-1.09-13.96,2.41c2.71-3.58,7.36-4.94,10.34-3.46c-0.4-0.38-0.79-0.41-1.29-0.61
		c0.54,0.07,1.48,0.27,1.99,0.46c-0.02-0.1-0.29-0.27-0.42-0.47C176.85,72.77,179.27,73.91,179.07,74.15z M191.69,107.01
		c-1.9,2.82-5.04,2.01-6.9,0.71C186.77,108.08,190.19,108.22,191.69,107.01z M179.91,80.71c-0.81,0.07-1.89,0.51-3.04,0.9
		c-0.68,0.23-1.38,0.46-2.06,0.59c-0.93,0.18-1.83,0.19-2.57-0.18c-0.65-0.01-1.06,0.04-1.75,0.48c0.12-0.34,0.6-0.65,0.9-0.75
		c0.04-0.01,0.09-0.02,0.13-0.03c-0.53-0.1-1.31,0.23-1.95,0.6c0.37-0.54,0.79-0.73,1.31-0.81c-0.76-0.12-1.73,0.31-2.22,0.48
		c0.06-0.07,0.92-0.71,1.76-0.84c-0.54,0.01-2.5,0.01-3.44-0.94c1.02,0.41,2.21,0.43,2.78-0.12c-0.94-0.01-1.75-0.17-2.55-0.96
		c0.96,0.49,2.44,0.73,3.41,0.3c-0.93-0.07-2-0.51-2.45-1.14c1.15,0.71,2.03,0.74,3.17,0.65c0.07,0,0.15-0.01,0.23-0.04
		c-0.69-0.12-1.64-0.66-1.75-1.03c1.09,0.82,2.2,0.83,2.47,0.79c-0.43-0.05-1.06-0.48-1.2-0.75c0.76,0.51,1.31,0.49,1.87,0.47
		c1.26-0.43,2.43-0.27,2.97-0.15c0.35,0.09,0.68,0.18,0.98,0.29c0.13,0.05,0.26,0.1,0.38,0.15c0.07,0.03,0.15,0.06,0.22,0.1
		c0.12,0.05,0.23,0.11,0.35,0.17c0.1,0.04,0.18,0.09,0.26,0.15c0.08,0.04,0.16,0.09,0.23,0.14c0.01,0,0.01,0.01,0.01,0.01
		c0.04,0.02,0.08,0.04,0.12,0.07c0.04,0.02,0.07,0.05,0.11,0.07c0.21,0.15,0.4,0.32,0.59,0.5
		C179.43,80.13,179.68,80.41,179.91,80.71z M175.83,78.7c-1.18-0.11-2.28,0.25-3.19,0.88c-0.18,0.87,0.31,1.78,1.17,2.1
		c0.26,0.1,0.54,0.14,0.8,0.11c0.1,0,0.18-0.01,0.27-0.04c0.04-0.01,0.09-0.02,0.14-0.03c0.52-0.17,0.97-0.57,1.18-1.12
		C176.45,79.92,176.29,79.19,175.83,78.7z M178.11,79.1c0.08,0.04,0.16,0.09,0.23,0.14c0.01,0,0.01,0.01,0.01,0.01
		c0.04,0.02,0.08,0.04,0.12,0.07C178.36,79.24,178.24,79.17,178.11,79.1z M155.98,96.45c-0.75,0.18-1.51,0.19-2.27,0.23
		c0.76,0.04,1.38,0.81,2.14,0.86c0.26-0.06,0.54-0.17,0.8-0.32c0.82-0.47,1.57-1.34,1.92-2.37
		C157.73,95.82,156.87,96.26,155.98,96.45z M150.09,81.49c-3.18,4.49,2.04,12.32,6.47,13.51C152.17,93.07,148.63,85.83,150.09,81.49
		L150.09,81.49z M157.04,91.39c0-1.26-0.59-3.55-0.59-4.81c-1.59-2.87-4.14-4.61-6.45-5.4c1.98,1.3,3.22,2.02,3.83,4.22
		C153.3,87.92,153.02,90.28,157.04,91.39L157.04,91.39z M157.13,113.35c-1.12,2.3-2.5,5.26-3.71,7.79c-0.35-0.17-0.7-0.32-1.05-0.48
		c-3.11,2.14-4.18,4.02-7.28,6.16c0.79-0.02,1.56-0.02,2.32-0.01c-6.35,5.71-14.13,14.81-17.21,21.5
		c2.15-8.71,14.48-24.11,21.03-27.88c1.32-2.67,2.87-5.23,4.18-7.91C155.71,112.49,156.84,113.39,157.13,113.35z M185.24,141.52
		c-3.44-5.36-1.68-19.45-0.04-26.21c0.47-0.15,1.75,0.19,2.22,0.04C184.72,122.55,182.63,135.03,185.24,141.52z M153.42,121.14
		c-0.35-0.17-0.7-0.32-1.05-0.48c-3.11,2.14-4.18,4.02-7.28,6.16c0.79-0.02,1.56-0.02,2.32-0.01c11.64,0.34,21.16,5.92,30.28,12.8
		C171.7,133.03,162.32,125.29,153.42,121.14z M223.34,71.93c-0.29,1.37-0.91,6.17-0.91,6.17c-0.33,0.98-0.67,3.14-1,4.12
		c-0.13-0.65-0.23-1.86-0.35-3c-0.08-0.9-0.17-1.75-0.27-2.26c-0.54,1-1.39,1.88-2.25,2.76c-0.35,0.37-0.71,0.74-1.04,1.12
		c0.03-0.61-0.01-1.2-0.12-1.74c-0.32,0.23-1.26,0.99-1.59,1.23c0.35,1.26,0.3,2.44,0.11,3.69c0,0.01,0,0.01-0.01,0.02
		c-0.5,1.73-1.4,4.44-2.46,6c-0.36,1.97-1,6.81-2.97,9.94c1.3-3.69,0.76-5.73-0.75-11.22c-1.08,2.2-3.38,4.51-2.48,8.52
		c-1.86-1.43-2.5-5.93-2.8-7.67c0,0-2.35,10.21-2.58,12.02c-0.23,1.81-0.12-3.55,0.09-5.51c0.22-1.95-0.72-6.14-0.72-6.14
		s-1.53,3.4-1.82,5.79c0.12-1.67-0.07-2.73-0.47-3.55c-0.05-0.54-0.13-1.1-0.23-1.66l-0.74-0.12c0.04,0.19,0.07,0.39,0.1,0.58
		c-1.18-1.22-2.98-2.31-4.89-5.62c-0.52,1.96-0.21,1.92,2.4,6.03c-1.25-1.1-2.44-2.06-3.56-3.02c-0.57,1.83-2.77,3.3-2.94,3.4
		c0.77-0.68,2.27-2.5,1.98-4.25c-1.09-1-2.08-2.05-2.91-3.3c-1.37-1.14-2.46-2.05-3.33-3.3c-1.25-1.78-1.98-3.54-2.29-5.45
		l-0.01-0.1c-0.09-0.54,0.01-1.59,0.54-2.66c-0.01-1.78,0.04-3.6-0.15-5.33c-1.13-1.25-4.09-2.88-5.22-4.13
		c0.08,1.57-1.74,4.55,1.08,6.69c-3.76-1.22-2-4.03-2.53-8.88c-0.95-0.98-1.85-1.73-2.7-2.28c-1.84,2-5.73,3.98-8.31,2.92
		c2.83,0.21,5.57-1.02,7.16-3.58c-0.36-0.18-0.7-0.32-1.04-0.43c-1.78,1.04-3.94,1.65-5.61,1.11c0.03-0.02,0.06-0.05,0.1-0.07
		c1.62,0.05,3.2-0.38,4.54-1.27c-1.77-0.28-3.28,0.29-4.54,1.27c-0.12,0-0.24-0.01-0.36-0.01c0.09,0.04,0.18,0.07,0.26,0.09
		c-0.79,0.63-1.48,1.42-2.08,2.25c-2.68,2.43-0.26,4.13,0.04,6.66c-1.41-0.23-4.41-0.12-5.81-0.36c-4.63,3.46,1.7,13.32-0.33,18.7
		c-1.56-2.28-3.91-2.55-5.45-4.84c-6.42-4.32-3.83,12.94,3.89,15.23c-0.75,0.18-1.51,0.19-2.27,0.23c0.76,0.04,1.38,0.81,2.14,0.86
		c0.26-0.06,0.54-0.17,0.8-0.32c1.14,3.19,1.49,5.53,3.52,10c-1.62,2.66-2.94,5.29-4.55,7.94c-0.04,0-0.48-0.63-1.12-1.42
		c-0.76,0.18-2.7,0.58-4.05,0.51c-0.29-0.01-0.54-0.07-0.73-0.13c0.06,0.71,0.02,1.18-0.39,0.97c-3.63-1.88-4.15-6.33-3.54-7.44
		c0.61-1.11,2.42-3.32,1.3-4.07c-0.74-0.5-2.52,1.22-3.67,1.43c-0.01,0-0.01,0.01-0.01,0c-1.19,0.85-2.58-0.29-3.96-2.24
		c-1.21-1.69,0.7-4.39,1.28-5.15c0.19-2.07-1.97-4.54-0.8-5.87c2.61-2.97-7.28,1.17-3.01-6.75c0,0-3.41-1.23-3.88-2.8
		c-0.48-1.57-1-4.1-0.68-5.18c0.32-1.07-1.57-2.04-2.21-3.74c-0.65-1.7,0.41-4.05,0.41-4.05s-0.11-2.21-0.92-4.04
		c-0.81-1.83-0.2-4.27-0.2-4.27s-3.32-3.02-2.72-5.45c0.6-2.44,1.42-6.83,1.42-6.83c0.52-0.49-0.23-3.02,0.21-4.72
		c0.77-3.02,2.46-5.69,1.6-5.78c-1.87-2.5,0.35-6.92,3.64-8.13c0.22-1.91,1.2-2.42,1.42-4.32c5.05-7.69,5.84-8.91,9.46-10.11
		c-1.76-1.6-4.72-0.65-6.74,2.98c1.15-2.53,4.11-6.47,8.02-3.37c1.05-0.3,2.31-0.65,3.88-1.13c-0.2,0.59-0.33,1.17-0.42,1.69
		c0.16-0.64,0.36-1.22,0.6-1.74c0.65-0.2,1.35-0.42,2.11-0.67c0,0,1.62-0.84,3.61-1.84c-1.87-1.51-4.36-0.55-5.73,2.51
		c-0.06,0.02-0.12,0.04-0.18,0.05c0.89-2.72,3.02-5.64,7.27-3.24c2.42-1.17,5-2.35,5.85-2.44c3.71-1.18,7.47,0.6,9.23,0.4
		c1.75-0.21,5.23-0.9,8.8-0.73c3.39,0.17,7.22-0.52,8.88,1.79c3.81-2.49,6.51,1.37,7.56,3.85c-2.03-3.9-5.19-4.84-6.95-2.89
		c1.58,2.33,4.21,3.05,4.21,3.05c3.59,1.16,7.19,2.32,10.78,3.48c0.76,1.39,1.51,2.79,2.26,4.18c1.72,1.18,3.44,2.36,5.15,3.55
		c0,0,1.41,3.76,0.49,3.57c-0.36-0.07-0.45,0.23-0.34,0.73c5.26-0.2,5.15,4.85,4.49,7.6c0.7-4.42-1.37-7.07-4.02-6.42
		c0.26,0.52,0.62,1.07,1.02,1.51c1.19,1.34,2.04,4.8,2.04,4.8c0.71,1.45,1.42,2.89,2.14,4.34c1.07,1.55,2.14,3.11,3.21,4.66
		c-0.43,0.1-1.31,0.1-1.75,0.2c0,0,0.82,1.98,1.27,3.26c0.44,1.28,0.37,1.89,0.37,1.89c0.39,2.69,0.78,5.39,1.17,8.08
		c-0.26,2.05-0.51,4.1-0.76,6.16c-0.35-0.11-0.71-0.21-1.07-0.32C220.91,65.1,223.63,70.56,223.34,71.93z M142.37,104.01
		c-0.01-0.12-0.02-0.25-0.03-0.39c-0.1-2.81-1.77-3.11-1.97-4.21c-0.1,0.3-0.18,0.65-0.24,1.06c-0.37,2.27,0.12,3.47,2.04,3.54
		C142.23,104.01,142.3,104.02,142.37,104.01z M149.62,113.3c1.56,0.5,3.08,0.55,4.52,0.01c-1.13-1.36-2.74-3.01-3.88-2.84
		C149.37,110.6,149.49,112.05,149.62,113.3z M173.41,56.16c-0.04-0.03-0.07-0.05-0.11-0.06c-0.02,0.08-0.05,0.16-0.08,0.24
		C173.29,56.28,173.36,56.22,173.41,56.16z"/>
	<path class="st53" d="M194.03,99.7c-1.55-0.53-1.98-2.17-5.61-1.76c-1.82,0.41-2.03,0.23-3.65,0.39c-1.72,0.17-4.31,1.67-6.7,2.35
		c3.6,1.14,6.32,2.87,10.12,2.79C192.03,103.39,192.48,101.15,194.03,99.7L194.03,99.7z"/>
	<path class="st51" d="M186.5,101.51c-2.64,0.28-3.52,0.11-5.68-0.34c2.25,0.91,2.27,1.36,4.85,1.49
		C187.53,102.76,187.72,101.38,186.5,101.51L186.5,101.51z M184.52,98.58c-0.91,0.24-2.07,0.47-2.76,0.99
		c0.97-0.08,2.19-0.27,3.01-0.5C184.97,99,184.87,98.49,184.52,98.58L184.52,98.58z"/>
	<path class="st54" d="M177.61,100.64c3.05-0.53,7.05-0.34,10.24-0.54c2.3-0.15,4.16-0.48,6.45-0.53c-0.36,0.11,0.08,0.81-0.32,0.83
		c-2.06,0.11-4.07,0.25-6.08,0.4c-3.04,0.22-6.93,0-10.09,0.21C177.76,100.93,177.66,100.71,177.61,100.64L177.61,100.64z"/>
	<path class="st54" d="M156.4,96.56c-0.14-0.03-0.28-0.07-0.42-0.11c-0.75,0.18-1.51,0.19-2.27,0.23c0.76,0.04,1.38,0.81,2.14,0.86
		c0.26-0.06,0.54-0.17,0.8-0.32C156.57,97.01,156.49,96.79,156.4,96.56z M165.46,58.73c0.09,0.04,0.18,0.07,0.26,0.09
		c0.03-0.02,0.06-0.05,0.1-0.07C165.71,58.74,165.58,58.73,165.46,58.73z M173.3,56.11c-0.02,0.08-0.05,0.16-0.08,0.24
		c0.07-0.07,0.13-0.12,0.19-0.18C173.38,56.13,173.34,56.11,173.3,56.11z M198.71,90.56l-0.74-0.12c0.04,0.19,0.07,0.39,0.1,0.58
		c0.35,0.37,0.65,0.75,0.88,1.2C198.9,91.67,198.82,91.12,198.71,90.56z"/>
	<path class="st55" d="M175.6,79.85c-0.02,0.07-0.07,0.12-0.13,0.15c-0.06,0.04-0.13,0.07-0.21,0.07c-0.21,0-0.38-0.17-0.38-0.37
		c0-0.12,0.06-0.23,0.15-0.3c0.03-0.02,0.07-0.04,0.1-0.06c-0.16-0.1-0.35-0.15-0.55-0.15c-0.62,0-1.13,0.51-1.13,1.13
		c0,0.62,0.51,1.12,1.13,1.12c0.62,0,1.12-0.51,1.12-1.12C175.71,80.15,175.67,79.99,175.6,79.85z"/>
	<path class="st54" d="M175.48,80.18c0,0.5-0.4,0.9-0.9,0.9c-0.5,0-0.9-0.4-0.9-0.9c0-0.5,0.4-0.91,0.9-0.91
		c0.16,0,0.32,0.04,0.45,0.12c-0.09,0.07-0.15,0.18-0.15,0.3c0,0.21,0.17,0.37,0.38,0.37c0.07,0,0.15-0.02,0.21-0.07
		C175.48,80.06,175.48,80.12,175.48,80.18z"/>
</g>
</svg>
