<?xml version="1.0" encoding="utf-8"?>
<!-- Generator: Adobe Illustrator 27.8.1, SVG Export Plug-In . SVG Version: 6.00 Build 0)  -->
<svg version="1.1" xmlns="http://www.w3.org/2000/svg" xmlns:xlink="http://www.w3.org/1999/xlink" x="0px" y="0px"
	 viewBox="0 0 350 230" style="enable-background:new 0 0 350 230;" xml:space="preserve">
<style type="text/css">
	.st0{fill:#F9FCD9;}
	.st1{fill:#FEF5F6;}
	.st2{fill:#FFDCE7;}
	.st3{fill:#F5FAFE;}
	.st4{fill:#C2F2D8;}
	.st5{fill:#F1FBEF;}
	.st6{fill:#E1E2D5;}
	.st7{fill:#F3F4C1;}
	.st8{fill:#F0FFFE;}
	.st9{fill:#EACFC1;}
	.st10{fill:#FFE9EC;}
	.st11{fill:#FFF2D9;}
	.st12{fill:#3D0010;}
	.st13{fill:#AE005A;}
	.st14{fill:#AF0043;}
	.st15{fill:#F52287;}
	.st16{fill:url(#SVGID_1_);}
	.st17{fill:url(#SVGID_00000122686030246793314440000013501559491635868563_);}
	.st18{fill:url(#SVGID_00000182507578875407122910000010541827663957125803_);}
	.st19{fill:#8E495D;}
	.st20{fill:#B76FC6;}
	.st21{fill:#750D24;}
	.st22{fill:#FFA697;}
	.st23{fill:#FFFFFF;stroke:#231F20;stroke-miterlimit:10;}
	.st24{fill:#E8E6E6;}
	.st25{fill-rule:evenodd;clip-rule:evenodd;fill:#470054;}
	.st26{fill-rule:evenodd;clip-rule:evenodd;fill:#012D2D;}
	.st27{fill:#8DAF00;}
	.st28{fill:#442A00;}
	.st29{fill:#426060;}
	.st30{fill:#5E0007;}
	.st31{fill:#63775F;}
	.st32{fill:#A86300;}
	.st33{fill-rule:evenodd;clip-rule:evenodd;fill:#BA9567;}
	.st34{fill:url(#SVGID_00000003787345121317766650000002804508928029084598_);}
	.st35{fill:url(#SVGID_00000137095607470042315990000008243647771489636525_);}
	.st36{fill:url(#SVGID_00000170982895186494224530000003009867269488763535_);}
	.st37{fill:#CAA095;}
	.st38{fill:#513536;}
	.st39{fill:#EDCFC9;}
	.st40{fill:#A86B76;}
	.st41{fill:url(#SVGID_00000026862020127177777430000004413540257083154598_);}
	.st42{fill:url(#SVGID_00000000211204305684159410000012013700413051179962_);}
	.st43{fill:url(#SVGID_00000139999424917892537360000005223832900561049751_);}
	.st44{fill:#FF838C;}
	.st45{fill-rule:evenodd;clip-rule:evenodd;fill:#D3B39C;}
	.st46{fill-rule:evenodd;clip-rule:evenodd;fill:#F2B8B0;}
	.st47{fill-rule:evenodd;clip-rule:evenodd;fill:#6D0008;}
	.st48{fill-rule:evenodd;clip-rule:evenodd;}
	.st49{fill-rule:evenodd;clip-rule:evenodd;fill:#905B6E;}
	.st50{fill-rule:evenodd;clip-rule:evenodd;fill:#661300;}
	.st51{fill-rule:evenodd;clip-rule:evenodd;fill:#816528;}
	.st52{fill:url(#SVGID_00000025413693351009648360000017543786876793888959_);}
	.st53{fill-rule:evenodd;clip-rule:evenodd;fill:#990014;}
	.st54{fill:#242021;}
	.st55{fill:#FFFFFF;}
	.st56{fill:#002175;}
	.st57{fill:#5BBAB7;}
	.st58{fill:#4C0231;}
	.st59{fill:#E20071;}
	.st60{opacity:0.5;}
	.st61{fill:#F9A74E;}
	.st62{fill:#BE1E2D;}
	.st63{stroke:#000000;stroke-width:0.75;stroke-miterlimit:10;}
	.st64{fill:none;stroke:#000000;stroke-width:2;stroke-miterlimit:10;}
	.st65{fill:url(#SVGID_00000102519425002750510610000007360462599287169671_);}
	.st66{fill:url(#SVGID_00000168098002286857214450000013975743426735382917_);}
	.st67{fill:url(#SVGID_00000052802062333197655700000002147728299010625683_);}
	.st68{fill:url(#SVGID_00000135687143045320552860000002240142703864732313_);}
	.st69{fill:url(#SVGID_00000013876913966462447220000008550873332693742004_);}
	.st70{fill:url(#SVGID_00000013908741442793842420000005876847659476024474_);}
	.st71{fill:url(#SVGID_00000028309086968075476900000001290733407873082768_);}
	.st72{fill:url(#SVGID_00000140009975879489007020000012865484930763772813_);}
	.st73{fill:url(#SVGID_00000031181243846621701200000013594032100873427335_);}
	.st74{fill:url(#SVGID_00000180327584150662772880000010774247482227358102_);}
	.st75{fill:url(#SVGID_00000102540723865131911690000018096060425412614317_);}
	.st76{fill:url(#SVGID_00000073002511869459277480000017662349658115007880_);}
	.st77{fill:url(#SVGID_00000153684318605383691780000012478126853231111553_);}
	.st78{fill:url(#SVGID_00000085226796440082881590000011871349068193341825_);}
	.st79{fill:url(#SVGID_00000000917173876809809560000003394186259009242780_);}
	.st80{fill:url(#SVGID_00000116202173060605540840000006956448670488832662_);}
	.st81{fill:url(#SVGID_00000008110008185283920520000006549227541770238363_);}
	.st82{fill:url(#SVGID_00000106144316436245310010000013637961503642138268_);}
	.st83{fill:url(#SVGID_00000134229474239710325180000000165214497254458031_);}
	.st84{fill:url(#SVGID_00000037663766439192618290000013466526655914465426_);}
	.st85{fill:url(#SVGID_00000105395867663675334890000017598456729725263007_);}
	.st86{fill:url(#SVGID_00000105398715126199075260000005791205220925975984_);}
	.st87{fill:url(#SVGID_00000052823019786042075380000004710108347749840013_);}
	.st88{fill:url(#SVGID_00000182522155542085801360000016165440026993504440_);}
	.st89{fill:none;stroke:#000000;stroke-miterlimit:10;}
	.st90{fill:url(#SVGID_00000111878792243001862370000001014462108768047540_);}
	.st91{fill:#543088;}
	.st92{fill:#B2875D;}
	.st93{fill:#231F20;}
	.st94{fill:#C19870;}
	.st95{stroke:#000000;stroke-width:2;stroke-miterlimit:10;}
	.st96{fill:url(#SVGID_00000031168515180053189720000017258474110292644750_);}
	
		.st97{fill:url(#SVGID_00000039117224551252105170000012350051928817280143_);stroke:url(#SVGID_00000179616315640440649830000012422196181797477803_);stroke-width:4;stroke-miterlimit:10;}
	
		.st98{fill:url(#SVGID_00000070821021042896926940000007415613819596574371_);stroke:url(#SVGID_00000051385404250378248530000003209821843850729896_);stroke-width:4;stroke-miterlimit:10;}
	.st99{fill:url(#SVGID_00000014594052847110506890000002746703618155371423_);}
	.st100{fill:url(#SVGID_00000026130984448389586830000010484078304405862822_);}
	.st101{fill:url(#SVGID_00000126322015519783994640000015073780361993004702_);}
	.st102{fill:url(#SVGID_00000134241252893821039960000008537635632674516872_);}
	.st103{fill:url(#SVGID_00000076571281230472464660000001234942894965500315_);}
	.st104{fill:url(#SVGID_00000051360651950943156770000003970716138390963365_);}
	.st105{fill:url(#SVGID_00000142156318287799769970000006539307542377228713_);}
	.st106{fill:url(#SVGID_00000168826652586740344580000004322933230507925942_);}
	.st107{fill:url(#SVGID_00000075159350220462824550000003110632912083760047_);}
	.st108{fill:url(#SVGID_00000016773394622466673070000010834891865924536470_);}
	.st109{fill:url(#SVGID_00000048501047194160969310000008661437402396824240_);}
	.st110{fill:url(#SVGID_00000028313575190339348030000002464651918359234734_);}
	.st111{fill:url(#SVGID_00000045600776612777641530000013336728277415490720_);}
	.st112{fill:url(#SVGID_00000098921016722918835790000005774016219585871523_);}
	.st113{fill:url(#SVGID_00000082338087784698759400000005857127530019863978_);}
	.st114{fill:url(#SVGID_00000093869078505165260690000010770944078699356587_);}
	.st115{fill:url(#SVGID_00000028296006968807457210000007803169434565740953_);}
	.st116{fill:url(#SVGID_00000063606338453696554160000014429368108784241581_);}
	.st117{fill:url(#SVGID_00000134249763901480024160000002512649297591079064_);}
	.st118{fill:url(#SVGID_00000072997243140351323990000000166527815531668366_);}
	.st119{fill:url(#SVGID_00000078755707304194137900000013198983657039670947_);}
	.st120{fill:#A15FAC;}
	.st121{fill:#A8007D;}
	.st122{fill:#5B2F00;}
	.st123{fill:#002C6B;}
	.st124{fill:#56001D;}
	.st125{fill:#8C002F;}
	.st126{fill:#043866;}
	.st127{fill:#506600;}
	.st128{fill:#604500;}
	.st129{fill-rule:evenodd;clip-rule:evenodd;fill:#C600C6;}
	.st130{fill-rule:evenodd;clip-rule:evenodd;fill:#464748;}
	.st131{fill-rule:evenodd;clip-rule:evenodd;fill:#FF838C;}
	.st132{fill-rule:evenodd;clip-rule:evenodd;fill:#005968;}
	.st133{fill:#F9C1C4;}
	.st134{fill-rule:evenodd;clip-rule:evenodd;fill:#002B26;}
	.st135{fill:#5B0A54;}
	.st136{fill-rule:evenodd;clip-rule:evenodd;fill:#C97943;}
	.st137{fill-rule:evenodd;clip-rule:evenodd;fill:#E9CEEA;}
	.st138{fill-rule:evenodd;clip-rule:evenodd;fill:#034C42;}
	.st139{fill:#026683;}
	.st140{fill:#26BCBC;}
	.st141{fill:#001F59;}
	.st142{fill:#7D1839;}
	.st143{fill:#A8228D;}
	.st144{fill:#304C19;}
	.st145{fill:#D3407F;}
	.st146{fill:#568429;}
	.st147{fill-rule:evenodd;clip-rule:evenodd;fill:#424200;}
	.st148{fill:url(#SVGID_00000135649946939272829530000013241812590290338972_);}
	.st149{fill:#5B2B00;}
	.st150{fill:#F7C844;}
	.st151{fill-rule:evenodd;clip-rule:evenodd;fill:#FFFFFF;}
	.st152{fill:url(#SVGID_00000079479101321230304680000008035564365084124597_);}
	.st153{fill-rule:evenodd;clip-rule:evenodd;fill:#ED1A23;}
	.st154{fill-rule:evenodd;clip-rule:evenodd;fill:#242021;}
	.st155{fill-rule:evenodd;clip-rule:evenodd;fill:#757072;}
	.st156{fill:#66405E;}
	.st157{fill:#CBA390;}
	.st158{fill:#230003;}
	.st159{fill:#004255;}
	.st160{fill:#FF93AC;}
	.st161{fill:#CC004A;}
	.st162{fill:#62007A;}
	.st163{fill-rule:evenodd;clip-rule:evenodd;fill:#E6FFFE;}
	.st164{fill-rule:evenodd;clip-rule:evenodd;fill:url(#SVGID_00000136411106030682366890000017623989562227734437_);}
	.st165{fill-rule:evenodd;clip-rule:evenodd;fill:#6B006B;}
	.st166{fill-rule:evenodd;clip-rule:evenodd;fill:#005B5B;}
	.st167{fill:#410163;}
	.st168{fill:#5E0D00;}
	.st169{fill:#0A0002;}
	.st170{fill:#FF0037;}
	.st171{fill:#7F4E8B;}
	.st172{fill:#C28CB3;}
	.st173{fill:#4D3D52;}
</style>
<g id="Logo1">
</g>
<g id="Logo2">
</g>
<g id="Logo3">
</g>
<g id="Logo4">
</g>
<g id="Logo5">
</g>
<g id="Logo6">
</g>
<g id="Logo7">
</g>
<g id="Logo8">
</g>
<g id="Logo9">
</g>
<g id="Logo10">
</g>
<g id="Logo11">
</g>
<g id="Logo12">
</g>
<g id="Logo13">
</g>
<g id="Logo14">
</g>
<g id="Logo15">
</g>
<g id="Logo16">
</g>
<g id="Logo17">
</g>
<g id="Logo18">
</g>
<g id="Logo19">
</g>
<g id="Logo20">
</g>
<g id="Logo21">
</g>
<g id="Logo22">
</g>
<g id="Logo23">
</g>
<g id="Logo24">
</g>
<g id="Logo25">
</g>
<g id="Logo26">
</g>
<g id="Logo27">
</g>
<g id="Logo28">
</g>
<g id="Logo29">
</g>
<g id="Logo30">
</g>
<g id="Logo31">
</g>
<g id="Logo32">
</g>
<g id="Logo33">
</g>
<g id="Logo34">
</g>
<g id="Logo35">
</g>
<g id="Logo36">
</g>
<g id="Logo37">
</g>
<g id="Logo38">
</g>
<g id="Logo39">
</g>
<g id="Logo40">
</g>
<g id="Logo41">
</g>
<g id="Logo42">
</g>
<g id="Logo43">
	<g>
		<path class="st37" d="M188.9,51.4c-1-0.22-1.33-0.87-3.25,1.95c-1.92,2.82-4.13,6.11-6.9,6.98c-2.76,0.87-4.45,2.59-4.45,2.59
			s-0.66-2.55,0.3-3.34c0.97-0.79,1.23-0.89,2.53-1.14c1.3-0.26,3.2-0.09,5.35-2.63c2.15-2.55,3.68-6.77,3.02-6.58
			c-0.66,0.19-0.97-0.59-2.91,2.48c-1.94,3.07-2.98,4.72-5.87,5.58c-1.45,0.43-1.95,0.7-2.09,0.86c-0.12-0.51-0.02-1.95,3.32-4.49
			c4.26-3.23,5.02-4.66,5.38-5.75c0.35-1.09,2.3-4.28,1.32-4.74s-2.73,3.37-2.73,3.37s-1.4,2.74-2.89,3.73
			c-1.5,0.99-4.41,4.96-4.41,4.96s0.7-6.29,1.95-7.43c1.25-1.13,5.31-3.63,5.9-4.45c0.59-0.82,5.46-8.11,3.08-10.07
			c0,0-1.4-0.13-1.88,2.45c-0.49,2.57-1.79,5.7-2.49,6.38c-0.7,0.68-4.47,4.21-4.52,4.7c-0.04,0.49,0.23-5.34,2.36-7.76
			c2.14-2.42,5.32-9.37,3.99-11.61c0,0-1.07-0.85-1.62,0.98c-0.55,1.82-0.99,5.27-1.58,6.21c-0.6,0.94-2.06,4.43-2.1,4.8
			c-0.03,0.37-0.34-3.27,0.27-4.46c0.62-1.19-0.05-5.12-0.84-4.81c0,0-1.17,0.27-1.03,2.9c0.15,2.63,1,8.82,0.41,11.01
			c-0.58,2.19-1.01,4.15-1.01,4.15s-1.38-1.75-1.33-3.73s-0.02-2.62-0.79-2.56c0,0-0.97,0.79-0.5,2.7c0.47,1.91,2.13,4.68,2.13,4.68
			l-0.1,1.11c0,0-1.83-2.41-2.09-3.8c0,0-0.83-0.7-0.59,0.82c0.25,1.52,2.19,4.06,2.19,4.06l-0.38,2.83c0,0-1.96-2.42-2.16-4.43
			c-0.2-2.01-0.33-3.4-1.14-2.97c-0.81,0.43,0.23,6,2.79,8.73l-0.08,3.73c0,0-0.81-3.81-2.59-5.34c-1.78-1.53-1.86-7.77-1.86-7.77
			s-0.05-0.88-0.89-0.08c-0.84,0.8-0.98,5.15,2.17,8.55c3.15,3.4,2.21,5.31,2.21,5.31s-4.07-3.11-4.37-5.38
			c-0.31-2.27-0.99-4.58-1.53-4.25s-0.54,0.33-0.47,0.95c0.07,0.63,0.53,4.04,1.84,5.15c1.31,1.12,3.78,3.46,3.97,4.22
			c0.19,0.76-3.59-1.32-4.73-2.8c-1.15-1.47-2.07-2.56-2.39-1.84c-0.32,0.72-0.54,1.7,0.81,2.32c1.35,0.62,8.05,4.34,8.33,5.49
			l0.08,0.75l0.54-0.05c0,0-0.08-2.4,6.06-3.84C186.78,59.31,189.9,51.61,188.9,51.4z"/>
		<path class="st38" d="M207.82,118.91c-5.72-3-11.97-5.07-18.25-6.52c-0.38-0.09-0.76-0.17-1.13-0.25
			c-10.44-2.3-21.45-3.17-31.99-0.99c-7.33,1.51-14.62,4.59-20.02,9.89c-4.05,3.98-6.96,9.35-7.02,15.12
			c-0.06,5.9,2.87,11.28,7.17,15.18c6.09,5.53,14.16,8,22.14,9.16c11.87,1.71,24.38,2.59,36.19-0.02
			c7.04-1.55,14.02-4.59,18.9-10.05c3.68-4.11,6.02-9.51,6.69-14.98C221.45,127.69,213.88,122.08,207.82,118.91z"/>
		<path class="st39" d="M200.48,93.82c-0.35-2.43-2.03-4.56-3.79-6.19c-1.76-1.63-3.95-2.69-6.2-3.47
			c-3.72-1.28-7.71-1.89-11.63-2.09c-0.24-0.01-0.47-0.02-0.71-0.03c-9.9,0.5-19.82,1.06-29.68,2.09c-2.01,0.21-4.2,0.3-6.15,0.88
			c-1.48,0.44-2.78,1.41-3.78,2.57c-2.37,2.73-3.2,6.64-1.87,10.03c2.12,5.4,7.52,8.79,12.78,10.53c4.34,1.44,8.94,2.11,13.47,2.66
			c4.33,0.52,8.7,0.8,13.06,0.64c6.22-0.23,12.96-1.31,18.13-5.04c2-1.45,3.68-3.31,4.82-5.5
			C200.03,98.78,200.83,96.22,200.48,93.82z"/>
		<path class="st40" d="M165.65,63.17l-0.46-0.09c0,0-13.26-0.73-12.42,7.1c0.84,7.82,14.19,12.88,23.12,13.7
			C184.82,84.69,201.47,65.99,165.65,63.17z"/>
	</g>
</g>
<g id="Logo44">
</g>
<g id="Logo45">
</g>
<g id="Logo46">
</g>
<g id="Logo47">
</g>
<g id="Logo48">
</g>
<g id="Logo49">
</g>
<g id="Logo50">
</g>
</svg>
