<?xml version="1.0" encoding="utf-8"?>
<!-- Generator: Adobe Illustrator 27.8.1, SVG Export Plug-In . SVG Version: 6.00 Build 0)  -->
<svg version="1.1" xmlns="http://www.w3.org/2000/svg" xmlns:xlink="http://www.w3.org/1999/xlink" x="0px" y="0px"
	 viewBox="0 0 350 230" style="enable-background:new 0 0 350 230;" xml:space="preserve">
<style type="text/css">
	.st0{fill:#F9FCD9;}
	.st1{fill:#FEF5F6;}
	.st2{fill:#FFDCE7;}
	.st3{fill:#F5FAFE;}
	.st4{fill:#C2F2D8;}
	.st5{fill:#F1FBEF;}
	.st6{fill:#E1E2D5;}
	.st7{fill:#F3F4C1;}
	.st8{fill:#F0FFFE;}
	.st9{fill:#EACFC1;}
	.st10{fill:#FFE9EC;}
	.st11{fill:#FFF2D9;}
	.st12{fill:#3D0010;}
	.st13{fill:#AE005A;}
	.st14{fill:#AF0043;}
	.st15{fill:#F52287;}
	.st16{fill:url(#SVGID_1_);}
	.st17{fill:url(#SVGID_00000088827149858644909780000017977615711900557962_);}
	.st18{fill:url(#SVGID_00000168795770630434814490000007843226072423154337_);}
	.st19{fill:#8E495D;}
	.st20{fill:#B76FC6;}
	.st21{fill:#750D24;}
	.st22{fill:#FFA697;}
	.st23{fill:#FFFFFF;stroke:#231F20;stroke-miterlimit:10;}
	.st24{fill:#E8E6E6;}
	.st25{fill-rule:evenodd;clip-rule:evenodd;fill:#470054;}
	.st26{fill-rule:evenodd;clip-rule:evenodd;fill:#012D2D;}
	.st27{fill:#8DAF00;}
	.st28{fill:#442A00;}
	.st29{fill:#426060;}
	.st30{fill:#5E0007;}
	.st31{fill:#63775F;}
	.st32{fill:#A86300;}
	.st33{fill-rule:evenodd;clip-rule:evenodd;fill:#BA9567;}
	.st34{fill:url(#SVGID_00000065073929554651104230000001213456528721632922_);}
	.st35{fill:url(#SVGID_00000049909735819924730320000009419916275090656150_);}
	.st36{fill:url(#SVGID_00000142174504671430973780000002479468526280580251_);}
	.st37{fill:#CAA095;}
	.st38{fill:#513536;}
	.st39{fill:#EDCFC9;}
	.st40{fill:#A86B76;}
	.st41{fill:url(#SVGID_00000038376334494569802460000003369050748440372115_);}
	.st42{fill:url(#SVGID_00000059270870205216455580000003407322552916939931_);}
	.st43{fill:url(#SVGID_00000085253005129192210460000013728857904358830504_);}
	.st44{fill:#FF838C;}
	.st45{fill-rule:evenodd;clip-rule:evenodd;fill:#D3B39C;}
	.st46{fill-rule:evenodd;clip-rule:evenodd;fill:#F2B8B0;}
	.st47{fill-rule:evenodd;clip-rule:evenodd;fill:#6D0008;}
	.st48{fill-rule:evenodd;clip-rule:evenodd;}
	.st49{fill-rule:evenodd;clip-rule:evenodd;fill:#905B6E;}
	.st50{fill-rule:evenodd;clip-rule:evenodd;fill:#661300;}
	.st51{fill-rule:evenodd;clip-rule:evenodd;fill:#816528;}
	.st52{fill:url(#SVGID_00000031911029539906505480000010905800380536584834_);}
	.st53{fill-rule:evenodd;clip-rule:evenodd;fill:#990014;}
	.st54{fill:#242021;}
	.st55{fill:#FFFFFF;}
	.st56{fill:#002175;}
	.st57{fill:#5BBAB7;}
	.st58{fill:#4C0231;}
	.st59{fill:#E20071;}
	.st60{opacity:0.5;}
	.st61{fill:#F9A74E;}
	.st62{fill:#BE1E2D;}
	.st63{stroke:#000000;stroke-width:0.75;stroke-miterlimit:10;}
	.st64{fill:none;stroke:#000000;stroke-width:2;stroke-miterlimit:10;}
	.st65{fill:url(#SVGID_00000040552777882696885310000003207920745299166382_);}
	.st66{fill:url(#SVGID_00000016045234080184857610000008904749057808015240_);}
	.st67{fill:url(#SVGID_00000051370930967993419020000014260107762546110866_);}
	.st68{fill:url(#SVGID_00000098204436725457018910000013305831510556353982_);}
	.st69{fill:url(#SVGID_00000083085169536040617950000014707374939865258174_);}
	.st70{fill:url(#SVGID_00000132059909604900233370000009835442017527617669_);}
	.st71{fill:url(#SVGID_00000040550636183183766490000004349029963932925096_);}
	.st72{fill:url(#SVGID_00000102533397102629645930000018092750139042094215_);}
	.st73{fill:url(#SVGID_00000062897459792524788290000004122909448215749044_);}
	.st74{fill:url(#SVGID_00000114785265838390938370000001753347787694653345_);}
	.st75{fill:url(#SVGID_00000073716235197939441660000016005548835838184839_);}
	.st76{fill:url(#SVGID_00000106136120201914410950000006989338335917272725_);}
	.st77{fill:url(#SVGID_00000055697500076991633490000017831879118763782308_);}
	.st78{fill:url(#SVGID_00000116226101157692617230000002514732242330789526_);}
	.st79{fill:url(#SVGID_00000084496296036796993240000011281561518958029469_);}
	.st80{fill:url(#SVGID_00000072279729038458791050000006151552383580391073_);}
	.st81{fill:url(#SVGID_00000172428429533730985570000007728054471248176527_);}
	.st82{fill:url(#SVGID_00000109737346463461646200000010784887331531275706_);}
	.st83{fill:url(#SVGID_00000083069589359530463380000011454633471486700188_);}
	.st84{fill:url(#SVGID_00000158002896864629499220000010213750725170469293_);}
	.st85{fill:url(#SVGID_00000136404122447162997770000012492519194164932751_);}
	.st86{fill:url(#SVGID_00000047062431568898873440000013293015896493176995_);}
	.st87{fill:url(#SVGID_00000129182413154109484270000004511664088270345626_);}
	.st88{fill:url(#SVGID_00000119837255844920503050000010914674297543169707_);}
	.st89{fill:none;stroke:#000000;stroke-miterlimit:10;}
	.st90{fill:url(#SVGID_00000081627377945101655710000018125621170702396298_);}
	.st91{fill:#543088;}
	.st92{fill:#B2875D;}
	.st93{fill:#231F20;}
	.st94{fill:#C19870;}
	.st95{stroke:#000000;stroke-width:2;stroke-miterlimit:10;}
	.st96{fill:url(#SVGID_00000054227227764168375900000017289181475322080903_);}
	
		.st97{fill:url(#SVGID_00000178889869971509176160000001768865564469590165_);stroke:url(#SVGID_00000095326930770206238100000004826336515300484744_);stroke-width:4;stroke-miterlimit:10;}
	
		.st98{fill:url(#SVGID_00000008139290830660353540000004418384109381930624_);stroke:url(#SVGID_00000124163466126887799790000011606330437102517893_);stroke-width:4;stroke-miterlimit:10;}
	.st99{fill:url(#SVGID_00000170965255252852429410000005291529903383318958_);}
	.st100{fill:url(#SVGID_00000004545027694240706540000016658542466052012187_);}
	.st101{fill:url(#SVGID_00000051355935419164086920000007558267115934310586_);}
	.st102{fill:url(#SVGID_00000033346247416392735450000005822429418544557448_);}
	.st103{fill:url(#SVGID_00000145745324209944778560000015949512264494371750_);}
	.st104{fill:url(#SVGID_00000002378608739134390160000003836123382734554273_);}
	.st105{fill:url(#SVGID_00000170271367150991849390000006211905965641451655_);}
	.st106{fill:url(#SVGID_00000104667035971532945800000017025269625170765202_);}
	.st107{fill:url(#SVGID_00000072982783080711387390000004954930335066680240_);}
	.st108{fill:url(#SVGID_00000006674467218704419040000000696478889386139782_);}
	.st109{fill:url(#SVGID_00000060713292059798792170000009241586504682820024_);}
	.st110{fill:url(#SVGID_00000030466345915437541470000008585227782693337236_);}
	.st111{fill:url(#SVGID_00000040555505991896050160000004782276007393104295_);}
	.st112{fill:url(#SVGID_00000079448918938749946950000009330547806610578562_);}
	.st113{fill:url(#SVGID_00000148658194731089176500000018318063449957396152_);}
	.st114{fill:url(#SVGID_00000051345274723723639930000004540459030407862164_);}
	.st115{fill:url(#SVGID_00000045582562763642209780000011441948877121964476_);}
	.st116{fill:url(#SVGID_00000093865667530984593820000009455389301879171512_);}
	.st117{fill:url(#SVGID_00000151511735540956227960000011674201196419838909_);}
	.st118{fill:url(#SVGID_00000078764130870144393280000004206479408463543965_);}
	.st119{fill:url(#SVGID_00000176733279953067651890000006188354631648235423_);}
	.st120{fill:#A15FAC;}
	.st121{fill:#A8007D;}
	.st122{fill:#5B2F00;}
	.st123{fill:#002C6B;}
	.st124{fill:#56001D;}
	.st125{fill:#8C002F;}
	.st126{fill:#043866;}
	.st127{fill:#506600;}
	.st128{fill:#604500;}
	.st129{fill-rule:evenodd;clip-rule:evenodd;fill:#C600C6;}
	.st130{fill-rule:evenodd;clip-rule:evenodd;fill:#464748;}
	.st131{fill-rule:evenodd;clip-rule:evenodd;fill:#FF838C;}
	.st132{fill-rule:evenodd;clip-rule:evenodd;fill:#005968;}
	.st133{fill:#F9C1C4;}
	.st134{fill-rule:evenodd;clip-rule:evenodd;fill:#002B26;}
	.st135{fill:#5B0A54;}
	.st136{fill-rule:evenodd;clip-rule:evenodd;fill:#C97943;}
	.st137{fill-rule:evenodd;clip-rule:evenodd;fill:#E9CEEA;}
	.st138{fill-rule:evenodd;clip-rule:evenodd;fill:#034C42;}
	.st139{fill:#026683;}
	.st140{fill:#26BCBC;}
	.st141{fill:#001F59;}
	.st142{fill:#7D1839;}
	.st143{fill:#A8228D;}
	.st144{fill:#304C19;}
	.st145{fill:#D3407F;}
	.st146{fill:#568429;}
	.st147{fill-rule:evenodd;clip-rule:evenodd;fill:#424200;}
	.st148{fill:url(#SVGID_00000023253311007092817600000002784181754955000996_);}
	.st149{fill:#5B2B00;}
	.st150{fill:#F7C844;}
	.st151{fill-rule:evenodd;clip-rule:evenodd;fill:#FFFFFF;}
	.st152{fill:url(#SVGID_00000159444727209184869830000003940936309781941380_);}
	.st153{fill-rule:evenodd;clip-rule:evenodd;fill:#ED1A23;}
	.st154{fill-rule:evenodd;clip-rule:evenodd;fill:#242021;}
	.st155{fill-rule:evenodd;clip-rule:evenodd;fill:#757072;}
	.st156{fill:#66405E;}
	.st157{fill:#CBA390;}
	.st158{fill:#230003;}
	.st159{fill:#004255;}
	.st160{fill:#FF93AC;}
	.st161{fill:#CC004A;}
	.st162{fill:#62007A;}
	.st163{fill-rule:evenodd;clip-rule:evenodd;fill:#E6FFFE;}
	.st164{fill-rule:evenodd;clip-rule:evenodd;fill:url(#SVGID_00000177479307675831845420000017122394032080516492_);}
	.st165{fill-rule:evenodd;clip-rule:evenodd;fill:#6B006B;}
	.st166{fill-rule:evenodd;clip-rule:evenodd;fill:#005B5B;}
	.st167{fill:#410163;}
	.st168{fill:#5E0D00;}
	.st169{fill:#0A0002;}
	.st170{fill:#FF0037;}
	.st171{fill:#7F4E8B;}
	.st172{fill:#C28CB3;}
	.st173{fill:#4D3D52;}
</style>
<g id="Logo1">
</g>
<g id="Logo2">
</g>
<g id="Logo3">
</g>
<g id="Logo4">
</g>
<g id="Logo5">
</g>
<g id="Logo6">
</g>
<g id="Logo7">
</g>
<g id="Logo8">
</g>
<g id="Logo9">
</g>
<g id="Logo10">
</g>
<g id="Logo11">
</g>
<g id="Logo12">
</g>
<g id="Logo13">
</g>
<g id="Logo14">
</g>
<g id="Logo15">
</g>
<g id="Logo16">
</g>
<g id="Logo17">
</g>
<g id="Logo18">
</g>
<g id="Logo19">
</g>
<g id="Logo20">
</g>
<g id="Logo21">
</g>
<g id="Logo22">
</g>
<g id="Logo23">
</g>
<g id="Logo24">
</g>
<g id="Logo25">
</g>
<g id="Logo26">
</g>
<g id="Logo27">
</g>
<g id="Logo28">
</g>
<g id="Logo29">
</g>
<g id="Logo30">
</g>
<g id="Logo31">
</g>
<g id="Logo32">
</g>
<g id="Logo33">
</g>
<g id="Logo34">
</g>
<g id="Logo35">
</g>
<g id="Logo36">
</g>
<g id="Logo37">
</g>
<g id="Logo38">
</g>
<g id="Logo39">
</g>
<g id="Logo40">
</g>
<g id="Logo41">
</g>
<g id="Logo42">
</g>
<g id="Logo43">
	<path class="st19" d="M252.75,126.36c-5.73-2.38-11.17-5.51-16.27-9.12c-7.5-5.32-16.93-12.97-19.27-22.54c0,0,0,0,0,0
		c-1.51-2.62-2.83-5.33-3.72-8.22c-2.3-7.48-1.59-15.48-0.95-23.43c0.69-15.03-2.31-19.2-17.02-31.6
		c-14.47-12.21-30.67,0.08-34.34,3.19c0,0,0,0,0,0c-3.03,3.87-6.28,7.26-10.98,8.28c-3.24,0.7-6.6,0.07-9.9-0.28
		c-5.97-0.63-12.02-0.34-17.96-1.17c0,0,0,0,0,0c-5.38,0.05-11.7-3.47-16.11-5.28c-2.35-0.97-4.67-2-6.95-3.13c0,0,0,0,0,0
		c-0.67-0.21-1.36-0.39-2.06-0.57c1.09,0.43,2.12,1.03,3.08,1.75L97.3,32.5c-0.02-0.01-0.04,0.01-0.03,0.03
		c0.75,1.51,15.4,30.78,31.52,46.95c0,0,0,0,0,0c1.77,2.78,3.82,5.38,6.1,7.74c0.7,0.73,1.43,1.44,2.17,2.13
		c0.01,0,0.01,0.01,0.01,0.02c-0.06,0.35-0.19,0.67-0.43,0.93c-0.64,0.69-1.8,0.65-2.84,0.56l-0.81-0.07l0.65,0.94
		c0.63,0.92,1.76,1.11,2.71,1.69c0.01,0.01,0.01,0.02,0.01,0.03c-1.01,1.86-2.15,3.67-3.39,5.38c-1.02,1.41-2.23,3.46-1.06,5.03
		c0.58,0.78,1.48,1.04,2.36,1.3c0.26,0.08,0.52,0.15,0.77,0.25c0.62,0.23,1.19,0.75,1.37,1.24c0.09,0.25,0.08,0.48-0.05,0.69
		c-0.14,0.25-0.42,0.41-0.74,0.6c-0.32,0.19-0.69,0.41-0.94,0.77c-0.29,0.4-0.36,0.95-0.19,1.46c0.17,0.51,0.55,0.91,1.01,1.07
		c0.34,0.11,0.69,0.1,1.01,0.09c0.19,0,0.37,0,0.54,0.01c0.2,0.03,0.43,0.16,0.52,0.3c0.05,0.08,0.04,0.12,0.03,0.15
		c-0.03,0.1-0.19,0.2-0.35,0.31c-0.22,0.15-0.48,0.31-0.62,0.61c-0.29,0.61,0.11,1.28,0.64,1.6c0.2,0.12,0.41,0.21,0.6,0.29
		c0.21,0.09,0.41,0.17,0.57,0.29c0.93,0.67,0.54,2.24,0.39,2.71c-0.05,0.18-0.11,0.35-0.17,0.53l-0.02,0.05
		c-0.18,0.54-0.36,1.08-0.44,1.64c0,0.01,0.01,0.01,0.01,0.02c-0.34,2.05,5.66,2.74,9.25,3.12c0.45,0,0.9-0.01,1.36-0.01
		c2.77-0.31,5.54-0.4,8.02,0.69c2.17,0.95,2.73,3.39,3.16,6.03c0.6,3.7,0.7,7.28,0.35,10.66l-0.18,1.16
		c-0.01,0.01-0.02,0.01-0.03,0.02c-1.83-0.13-3.64,0.24-5.35,0.91c0,0,0,0,0,0c-17.98,5.03,13.77,24.78,14.1,24.99c0,0,0,0,0.01,0
		c44.94-27.29,22.02-31.19,22.02-31.19c-0.18-0.15-0.39-0.25-0.62-0.31c-1.49-0.41-3.9-0.21-5.33,0.38l0,0l-0.53,0.28l-0.35-0.43
		l-0.81-4.92c0-0.04-0.01-0.11-0.02-0.15l-0.44-6.97c0-0.05,0-0.09,0-0.14l0.02-2.22c0,0,0,0,0,0l0.14-0.74
		c0-0.01,0.01-0.02,0.02-0.02c0.33,0.04,0.67,0.08,1,0.13c3.98,0.21,8.06-1.57,11.68-5.17c0.35,0.28,0.22,0.18,0.56,0.46
		c-1.19,1.75-2.65,3.32-4.34,4.62c0,0.02,0,0.02,0.01,0.04c1.17,0.38,2.44,0.4,3.64,0.12c1.21-0.29,2.41-0.64,3.56-1.01
		c2.22-0.72,4.34-1.56,6.32-2.63c0,0,0.01,0,0.01,0c5.26,0.79,10.54,1.52,15.73,2.63c7.3,1.56,14.55,3.38,21.77,5.26c0,0,0,0,0,0
		c3.67,0.42,6.95,0.72,9.78,0.95C252.76,126.4,252.77,126.37,252.75,126.36z M210.79,83.09c-9.61,3.43-19.63,0.28-28.71-4.17
		c-7.08-3.47-13.76-7.88-19.24-13.58c-5.48-5.69-9.72-12.72-11.58-20.49c0-0.01,0.01-0.03,0.02-0.03c1.17-0.04,2.38-0.28,3.43-0.82
		c0.33-0.17,0.65-0.38,0.96-0.6c0.01-0.01,0.03,0,0.03,0.01c3.37,8.99,10.9,16.08,19.12,21.04c10.99,6.65,22.79,9.98,35.25,11.86
		c0,0.06,0.01,0.11,0.01,0.17c0.07,0.91,0.14,1.82,0.21,2.72c0.1,1.28,0.22,2.61,0.52,3.86C210.8,83.08,210.8,83.09,210.79,83.09z"
		/>
</g>
<g id="Logo44">
</g>
<g id="Logo45">
</g>
<g id="Logo46">
</g>
<g id="Logo47">
</g>
<g id="Logo48">
</g>
<g id="Logo49">
</g>
<g id="Logo50">
</g>
</svg>
