<?xml version="1.0" encoding="utf-8"?>
<!-- Generator: Adobe Illustrator 27.8.1, SVG Export Plug-In . SVG Version: 6.00 Build 0)  -->
<svg version="1.1" xmlns="http://www.w3.org/2000/svg" xmlns:xlink="http://www.w3.org/1999/xlink" x="0px" y="0px"
	 viewBox="0 0 350 230" style="enable-background:new 0 0 350 230;" xml:space="preserve">
<style type="text/css">
	.st0{fill:#F9FCD9;}
	.st1{fill:#FEF5F6;}
	.st2{fill:#FFDCE7;}
	.st3{fill:#F5FAFE;}
	.st4{fill:#C2F2D8;}
	.st5{fill:#F1FBEF;}
	.st6{fill:#E1E2D5;}
	.st7{fill:#F3F4C1;}
	.st8{fill:#F0FFFE;}
	.st9{fill:#EACFC1;}
	.st10{fill:#FFE9EC;}
	.st11{fill:#FFF2D9;}
	.st12{fill:#3D0010;}
	.st13{fill:#AE005A;}
	.st14{fill:#AF0043;}
	.st15{fill:#F52287;}
	.st16{fill:url(#SVGID_1_);}
	.st17{fill:url(#SVGID_00000124154698876678809380000004830409343596062377_);}
	.st18{fill:url(#SVGID_00000107579743393892980820000015654399079069996479_);}
	.st19{fill:#8E495D;}
	.st20{fill:#B76FC6;}
	.st21{fill:#750D24;}
	.st22{fill:#FFA697;}
	.st23{fill:#FFFFFF;stroke:#231F20;stroke-miterlimit:10;}
	.st24{fill:#E8E6E6;}
	.st25{fill-rule:evenodd;clip-rule:evenodd;fill:#470054;}
	.st26{fill-rule:evenodd;clip-rule:evenodd;fill:#012D2D;}
	.st27{fill:#8DAF00;}
	.st28{fill:#442A00;}
	.st29{fill:#426060;}
	.st30{fill:#5E0007;}
	.st31{fill:#63775F;}
	.st32{fill:#A86300;}
	.st33{fill-rule:evenodd;clip-rule:evenodd;fill:#BA9567;}
	.st34{fill:url(#SVGID_00000129910716016988009260000016553942700593252785_);}
	.st35{fill:url(#SVGID_00000123403903626289599620000004148980801588643213_);}
	.st36{fill:url(#SVGID_00000168838521118423276670000011939663982616056762_);}
	.st37{fill:#CAA095;}
	.st38{fill:#513536;}
	.st39{fill:#EDCFC9;}
	.st40{fill:#A86B76;}
	.st41{fill:url(#SVGID_00000088128966276882694530000001056531226198436766_);}
	.st42{fill:url(#SVGID_00000145757803716164484490000010839058544750027663_);}
	.st43{fill:url(#SVGID_00000134217099873918158610000017462005879882793603_);}
	.st44{fill:#FF838C;}
	.st45{fill-rule:evenodd;clip-rule:evenodd;fill:#D3B39C;}
	.st46{fill-rule:evenodd;clip-rule:evenodd;fill:#F2B8B0;}
	.st47{fill-rule:evenodd;clip-rule:evenodd;fill:#6D0008;}
	.st48{fill-rule:evenodd;clip-rule:evenodd;}
	.st49{fill-rule:evenodd;clip-rule:evenodd;fill:#905B6E;}
	.st50{fill-rule:evenodd;clip-rule:evenodd;fill:#661300;}
	.st51{fill-rule:evenodd;clip-rule:evenodd;fill:#816528;}
	.st52{fill:url(#SVGID_00000122689667339503208660000011770792793973991851_);}
	.st53{fill-rule:evenodd;clip-rule:evenodd;fill:#990014;}
	.st54{fill:#242021;}
	.st55{fill:#FFFFFF;}
	.st56{fill:#002175;}
	.st57{fill:#5BBAB7;}
	.st58{fill:#4C0231;}
	.st59{fill:#E20071;}
	.st60{opacity:0.5;}
	.st61{fill:#F9A74E;}
	.st62{fill:#BE1E2D;}
	.st63{stroke:#000000;stroke-width:0.75;stroke-miterlimit:10;}
	.st64{fill:none;stroke:#000000;stroke-width:2;stroke-miterlimit:10;}
	.st65{fill:url(#SVGID_00000008112569994027727870000012683884872238447284_);}
	.st66{fill:url(#SVGID_00000058558615342747633130000004788637384573949581_);}
	.st67{fill:url(#SVGID_00000111909657577020563380000001330798277891272895_);}
	.st68{fill:url(#SVGID_00000081626294065563867890000016117964289173053076_);}
	.st69{fill:url(#SVGID_00000024681704930113935680000006342862867037517982_);}
	.st70{fill:url(#SVGID_00000116237037027124344520000017179491932750779269_);}
	.st71{fill:url(#SVGID_00000168797955516929512210000007549155482806361217_);}
	.st72{fill:url(#SVGID_00000158015895417634453930000003125090958670883003_);}
	.st73{fill:url(#SVGID_00000147214206758479286720000005267635261852402334_);}
	.st74{fill:url(#SVGID_00000181077003969958096030000010203815686162144386_);}
	.st75{fill:url(#SVGID_00000068675107047993126800000018395450859858276005_);}
	.st76{fill:url(#SVGID_00000011004539841476386550000013223175471893687222_);}
	.st77{fill:url(#SVGID_00000046341030379160164790000013419094516213162659_);}
	.st78{fill:url(#SVGID_00000094605602393731299250000004508070955409952150_);}
	.st79{fill:url(#SVGID_00000114070976790767378910000013607299593811937674_);}
	.st80{fill:url(#SVGID_00000050632700271408955120000012191357294875160973_);}
	.st81{fill:url(#SVGID_00000049194429451675738690000002074355360088340372_);}
	.st82{fill:url(#SVGID_00000021094640951211285790000011326767983285531801_);}
	.st83{fill:url(#SVGID_00000123436266422187902910000015552439094917287296_);}
	.st84{fill:url(#SVGID_00000000194363577666862880000002467243127581295025_);}
	.st85{fill:url(#SVGID_00000180364759177083918620000018375274763947615128_);}
	.st86{fill:url(#SVGID_00000023988459591247154190000015062889818902709404_);}
	.st87{fill:url(#SVGID_00000017517431490252901000000003250645741691668921_);}
	.st88{fill:url(#SVGID_00000049937862155608594980000007060130404915536300_);}
	.st89{fill:none;stroke:#000000;stroke-miterlimit:10;}
	.st90{fill:url(#SVGID_00000096034396488619836540000009496175359339213751_);}
	.st91{fill:#543088;}
	.st92{fill:#B2875D;}
	.st93{fill:#231F20;}
	.st94{fill:#C19870;}
	.st95{stroke:#000000;stroke-width:2;stroke-miterlimit:10;}
	.st96{fill:url(#SVGID_00000112607017132579777030000017305922313154141118_);}
	
		.st97{fill:url(#SVGID_00000009557582870732286010000016241139954578697895_);stroke:url(#SVGID_00000109736896924086681800000018122151293764727465_);stroke-width:4;stroke-miterlimit:10;}
	
		.st98{fill:url(#SVGID_00000183965176971496444680000000640939236609306555_);stroke:url(#SVGID_00000102505669954911528560000012996854322277514676_);stroke-width:4;stroke-miterlimit:10;}
	.st99{fill:url(#SVGID_00000149369613339705192040000000834262324395068839_);}
	.st100{fill:url(#SVGID_00000033345320245189617150000009752131828883083693_);}
	.st101{fill:url(#SVGID_00000168106324898551960910000010659860199028585860_);}
	.st102{fill:url(#SVGID_00000170970558829801529460000005201819853991547042_);}
	.st103{fill:url(#SVGID_00000076571339497232798010000011570793260017178502_);}
	.st104{fill:url(#SVGID_00000049940799513531252640000009465825143706884250_);}
	.st105{fill:url(#SVGID_00000060002334397191698610000013726855860517982891_);}
	.st106{fill:url(#SVGID_00000177483461842665748230000013207623934820299182_);}
	.st107{fill:url(#SVGID_00000124151492904244699620000017268322485079825321_);}
	.st108{fill:url(#SVGID_00000167376947552318955600000004639105917519070605_);}
	.st109{fill:url(#SVGID_00000147899277484332318700000016882965721338661762_);}
	.st110{fill:url(#SVGID_00000172423935945357364650000007388186582478222465_);}
	.st111{fill:url(#SVGID_00000074437338553972883670000014633656821725791630_);}
	.st112{fill:url(#SVGID_00000097494904464308195000000006481719906931149958_);}
	.st113{fill:url(#SVGID_00000147192617990512011430000001726818906306843580_);}
	.st114{fill:url(#SVGID_00000137128059129247817820000015204622685634142376_);}
	.st115{fill:url(#SVGID_00000010282001523984986590000003286613224143639174_);}
	.st116{fill:url(#SVGID_00000023966256471613391390000010845928854565494659_);}
	.st117{fill:url(#SVGID_00000170259043431619341450000001708282212586499748_);}
	.st118{fill:url(#SVGID_00000104676239605948109330000007817787526431890337_);}
	.st119{fill:url(#SVGID_00000132080394425974899840000003416747285704343981_);}
	.st120{fill:#A15FAC;}
	.st121{fill:#A8007D;}
	.st122{fill:#5B2F00;}
	.st123{fill:#002C6B;}
	.st124{fill:#56001D;}
	.st125{fill:#8C002F;}
	.st126{fill:#043866;}
	.st127{fill:#506600;}
	.st128{fill:#604500;}
	.st129{fill-rule:evenodd;clip-rule:evenodd;fill:#C600C6;}
	.st130{fill-rule:evenodd;clip-rule:evenodd;fill:#464748;}
	.st131{fill-rule:evenodd;clip-rule:evenodd;fill:#FF838C;}
	.st132{fill-rule:evenodd;clip-rule:evenodd;fill:#005968;}
	.st133{fill:#F9C1C4;}
	.st134{fill-rule:evenodd;clip-rule:evenodd;fill:#002B26;}
	.st135{fill:#5B0A54;}
	.st136{fill-rule:evenodd;clip-rule:evenodd;fill:#C97943;}
	.st137{fill-rule:evenodd;clip-rule:evenodd;fill:#E9CEEA;}
	.st138{fill-rule:evenodd;clip-rule:evenodd;fill:#034C42;}
	.st139{fill:#026683;}
	.st140{fill:#26BCBC;}
	.st141{fill:#001F59;}
	.st142{fill:#7D1839;}
	.st143{fill:#A8228D;}
	.st144{fill:#304C19;}
	.st145{fill:#D3407F;}
	.st146{fill:#568429;}
	.st147{fill-rule:evenodd;clip-rule:evenodd;fill:#424200;}
	.st148{fill:url(#SVGID_00000123408520890041722100000016441998040986969273_);}
	.st149{fill:#5B2B00;}
	.st150{fill:#F7C844;}
	.st151{fill-rule:evenodd;clip-rule:evenodd;fill:#FFFFFF;}
	.st152{fill:url(#SVGID_00000127001957970435170470000014465590712294959518_);}
	.st153{fill-rule:evenodd;clip-rule:evenodd;fill:#ED1A23;}
	.st154{fill-rule:evenodd;clip-rule:evenodd;fill:#242021;}
	.st155{fill-rule:evenodd;clip-rule:evenodd;fill:#757072;}
	.st156{fill:#66405E;}
	.st157{fill:#CBA390;}
	.st158{fill:#230003;}
	.st159{fill:#004255;}
	.st160{fill:#FF93AC;}
	.st161{fill:#CC004A;}
	.st162{fill:#62007A;}
	.st163{fill-rule:evenodd;clip-rule:evenodd;fill:#E6FFFE;}
	.st164{fill-rule:evenodd;clip-rule:evenodd;fill:url(#SVGID_00000077306359961511409670000006235533227427288461_);}
	.st165{fill-rule:evenodd;clip-rule:evenodd;fill:#6B006B;}
	.st166{fill-rule:evenodd;clip-rule:evenodd;fill:#005B5B;}
	.st167{fill:#410163;}
	.st168{fill:#5E0D00;}
	.st169{fill:#0A0002;}
	.st170{fill:#FF0037;}
	.st171{fill:#7F4E8B;}
	.st172{fill:#C28CB3;}
	.st173{fill:#4D3D52;}
</style>
<g id="Logo1">
</g>
<g id="Logo2">
</g>
<g id="Logo3">
</g>
<g id="Logo4">
</g>
<g id="Logo5">
</g>
<g id="Logo6">
</g>
<g id="Logo7">
</g>
<g id="Logo8">
</g>
<g id="Logo9">
</g>
<g id="Logo10">
</g>
<g id="Logo11">
</g>
<g id="Logo12">
</g>
<g id="Logo13">
</g>
<g id="Logo14">
</g>
<g id="Logo15">
</g>
<g id="Logo16">
</g>
<g id="Logo17">
</g>
<g id="Logo18">
</g>
<g id="Logo19">
</g>
<g id="Logo20">
</g>
<g id="Logo21">
</g>
<g id="Logo22">
</g>
<g id="Logo23">
</g>
<g id="Logo24">
</g>
<g id="Logo25">
</g>
<g id="Logo26">
</g>
<g id="Logo27">
</g>
<g id="Logo28">
	<g>
		<path class="st25" d="M191.66,93.69c3.51-5.67,12.06-15.77,11.99-21.24c-0.07-5.69-8.77-25.78-19.13-24.6
			c-0.07,5.52,14.54,6.65-1.21,11.69c-0.23,0.07-0.46,0.16-0.69,0.25c0.04-0.66-0.51-1.23-1.3-1.8c0.07-0.03,0.15-0.05,0.22-0.06
			c15.83-3.53-6.1-7.74,1.05-13.16c10.3-7.81-4.12-4.83-2.17-11.96c1.34-4.9,2.09-8.52,1.31-11.5c-1.34-5.07-6.06-7.54-10.78-7.52
			c-5.09,0.02-10.16,2.93-10.96,8.59c-0.39,2.77,0.34,6.11,1.52,10.43c1.95,7.13-9.81,2.76-3.81,10c5.73,6.9-9.9,11.2,2.69,15.12
			c0.63,0.19,1.31,0.71,1.96,1.45c-0.56,0.42-1.11,0.81-1.57,1.2c-0.7-0.47-1.43-0.81-2.16-1.04c-15.48-4.96-1.64-6.13-1.22-11.41
			c-12.25,3.32-10.14,3.71-4.7,32.01c3.9,20.3,0.43,33.59-3.37,43.9c1.08-7.68,6.8-20.23,0.81-42.93
			c-7.09-26.85-8.26-32.41,7.07-34.38c-0.19-0.54-0.51-1.12-1.01-1.74c-9.04-11.4,1.4-3.67,1.46-11.45
			c0.03-4.78,0.22-8.57,0.72-11.56c0.61-3.64,2.68-6.28,5.39-7.91c-31.55,5.33-55.58,32.79-55.58,65.85
			c0,36.89,29.91,66.8,66.8,66.8c3.2,0,6.35-0.23,9.42-0.66c7.04-14.5,12.41-26.92,12.48-34.03c0.16-15.37-12.38-16.43-14.78-28.87
			c-0.83-4.29,2.29-15.63,6.85-17.99c1.65-0.86,8.15,7.31,8.3,8.81c0.35,3.55-6.5,13.11-8.27,17.22
			C189.79,92.11,190.79,92.84,191.66,93.69z M155.97,107.71c7.68-20.1,0.31-29.52,0.5-41.46c0.03-2.09,1.57-2.2,1.56,0
			C157.93,78.2,164.87,89.17,155.97,107.71z M175.08,64.26c-1.34,0.55-2.68,1.48-3.71,2.95c1.35,1.86,2.37,4.74,1.99,7.82
			c-0.39-2.92-1.49-4.93-2.86-6.27c-0.51,1.16-0.85,2.55-0.93,4.22c-0.4-1.94-0.46-3.64-0.15-5.11c-0.72-0.5-1.48-0.85-2.24-1.09
			c-18.15-5.82,4.03-6.42-2.42-14.56c-6.58-8.3,1.48-6.12,1.53-13.82c0.01-1.29-2.24-3.58-2.21-4.73
			c9.29,7.25-2.85,11.97,2.17,16.38c6.73,5.92-9.9,11.2,2.69,15.12c0.38,0.12,0.78,0.35,1.19,0.69c0.65-1.23,1.66-2.24,3.06-3.06
			c11.38-6.64-4.77-8.84,1.48-15.28c4.65-4.8-7.82-8.54,0.86-16.5c0.13,1.15-1.94,3.6-1.82,4.89c0.67,7.67,8.53,4.86,2.63,13.66
			C170.56,58.17,192.72,57.01,175.08,64.26z"/>
		<path class="st26" d="M241.8,79.92c0,33.57-24.76,61.35-57.01,66.08c22.34-36.35,15.4-43.79,7.8-51.18
			c3.29-4.23,12.91-17.3,13.05-22.18c0.19-6.64-9.7-27.64-20.33-27.05c0.13-0.2,0.27-0.4,0.43-0.61c9.04-11.4-1.4-3.67-1.46-11.45
			c-0.04-5.08-0.24-9.04-0.82-12.11c-0.78-4.15-3.5-6.9-6.87-8.29C212.75,13.99,241.8,43.56,241.8,79.92z M189.12,65.99
			c-3.69,0.72-5.21,13.56-4.59,16.93c0.51,2.77,1.71,4.94,3.21,6.85c1.64-2.73,7.83-12.13,8.09-14.77
			C196.1,72.32,189.35,65.94,189.12,65.99z"/>
	</g>
</g>
<g id="Logo29">
</g>
<g id="Logo30">
</g>
<g id="Logo31">
</g>
<g id="Logo32">
</g>
<g id="Logo33">
</g>
<g id="Logo34">
</g>
<g id="Logo35">
</g>
<g id="Logo36">
</g>
<g id="Logo37">
</g>
<g id="Logo38">
</g>
<g id="Logo39">
</g>
<g id="Logo40">
</g>
<g id="Logo41">
</g>
<g id="Logo42">
</g>
<g id="Logo43">
</g>
<g id="Logo44">
</g>
<g id="Logo45">
</g>
<g id="Logo46">
</g>
<g id="Logo47">
</g>
<g id="Logo48">
</g>
<g id="Logo49">
</g>
<g id="Logo50">
</g>
</svg>
