<?xml version="1.0" encoding="utf-8"?>
<!-- Generator: Adobe Illustrator 24.0.1, SVG Export Plug-In . SVG Version: 6.00 Build 0)  -->
<svg version="1.1" id="Layer_1" xmlns="http://www.w3.org/2000/svg" xmlns:xlink="http://www.w3.org/1999/xlink" x="0px" y="0px"
	 viewBox="0 0 300 300" style="enable-background:new 0 0 300 300;" xml:space="preserve">
<style type="text/css">
	.st0{fill-rule:evenodd;clip-rule:evenodd;fill:#4B2263;}
</style>
<g>
	<path class="st0" d="M127.7,59.5c-1.1,1.3-2,2.7-2.7,4.2c-1,2.1-1.3,4.5-0.9,6.7c3.1-1.6,6.5-1.5,10.1-0.6
		c5.6,1.6,11.2,5.6,14.5,8.6l0.8,0.7l0,0c5,4.9,10.5,9.3,16.3,13.1c7.8,5.4,17.5,11.4,29.3,18.2l-0.6,1l0.6-1l17.8,10.4l18.7,10.9
		l1.4-4.3l0.3-1.7l-0.2,0.5c-23.2-11-43.2-24.9-60-41.6c-7.1-6.5-14.8-12.2-23-17.1C146.7,65.6,129.9,57.1,127.7,59.5z M129.4,57.9
		c7.5,1.7,14.7,4.6,21.3,8.6c8.3,4.9,16.1,10.7,23.2,17.3l0,0c17.4,17.1,37.5,31,59.6,41.4l0.3-1.1c-9-4.8-17.6-10.3-25.7-16.3
		c-8.8-6.5-17.1-13.7-24.9-21.4l0.8-0.8l-0.8,0.8C173,76,163.6,68.2,154.9,63.2c-8.7-5-16.2-7.3-23.2-7.3L129.4,57.9z M143.9,50.4
		c-2.8,0.9-5.4,2-8,3.4c6.3,0.7,13,3.1,20.2,7.3s18.4,13,28.8,23.5l0,0c7.7,7.6,15.9,14.6,24.6,21c7.9,5.9,16.2,11.2,24.9,15.9
		c0.5-1.5,0.8-2.9,1.3-4.2l-0.3,0.5c-8.6-6.3-17-13-24.9-20.1c-7.7-7-15-14.4-21.9-22.2h-0.1C173.9,59.9,148.9,48.5,143.9,50.4z
		 M228.2,175.1c4.1-1.6,8.8-4.8,13.9-9.7l1.7,1.7c-5.5,5.1-10.4,8.5-14.7,10.3c-2.8,1.2-5.9,1.6-8.9,1.1l0,0c0.1,1.1,1,2,2.2,2.1
		c4.7-0.4,9.2-1.7,13.4-3.9c3.8-2,7.1-4.9,9.6-8.3l0.9,0.7c-2.6,3.6-6,6.6-9.9,8.7c-4.1,2.1-8.5,3.4-13,3.9c1.7,1,2.2,1.4,4.2,1.3
		c8.9-0.6,16.7-5.7,23.1-12.9c9-10.2,15.2-24.3,17.5-35.4h0.1c1.1-2.4,2.1-4.7,2.9-6.9c0.7-1.8,1.3-3.5,1.8-5.4
		c0-1.3-0.1-2.6-0.5-3.9c-0.2-1.1-0.7-2-1.4-2.9H271c-1-1.9-2.5-3.5-4.3-4.6c-1.3-0.6-2.6-1.1-4-1.4c2.6,3.1,4.1,6.9,4.3,11
		c0.6,5.5-0.7,12-3.5,19.5l-2.3-0.8c2.9-7.2,4-13.4,3.5-18.5c-0.3-4-2-7.7-4.7-10.6c1.9,4,2.8,8.5,2.7,12.9
		c-0.1,6.2-1.3,12.4-3.5,18.2l-1-0.5c2.1-5.7,3.3-11.7,3.4-17.7c0.1-4.9-1.1-9.7-3.4-13.9l0.5-0.2l-1.3-0.7
		c0.9,4.2,1.1,8.6,0.3,12.9c-0.8,6.7-3.2,15-6.9,24.6l-2.3-0.8c3.2-7.8,5.5-15.9,6.9-24.1c0.8-6.3,0.5-11.2-1.3-14.7l-0.3-0.2
		l-0.9-0.8c1,4.8,0.9,10.5-0.5,17.4s-4.2,15.5-8.2,25l-1.1-0.5c3.6-7.9,6.4-16.3,8.2-24.8c1.4-7.1,1.5-13,0.2-17.7h0.6
		c-0.5-0.6-1-1.2-1.5-1.8l0,0c-1-1.4-1.8-1.9-2.6-1.9c-0.8,0-1.4,0.6-2.2,1.8l0,0l-0.2,0.3c-2.5,3.6-4.6,7.4-6.2,11.4
		c-1.8,4.6-3.2,9.4-4.1,14.3l0,0c-2.7,9.1-5.5,17-8,23.5c-2.1,5.5-4.6,10.8-7.5,15.9c-0.2,0.4-0.4,0.8-0.6,1.3
		c1.5,0.5,3.1,0.5,4.6,0c3-0.9,5.8-2.3,8.3-4.1l1.4,1.9c-3.4,2.3-6.4,3.9-9.1,4.5c-1.9,0.6-3.9,0.6-5.8,0c-0.2,0.6-0.2,1.3-0.1,1.9
		c0,0.8,0.1,1.6,0.3,2.4C221.4,176.7,224.6,176.6,228.2,175.1z M244,179.2c1.6,1.5,3.6,2.6,5.7,3.2c6.4,2.1,13.5,2.4,18.5-2.7
		c-3.7,1.4-7.6,2.1-11.5,1.9c-3.9-0.1-7.6-1.4-10.7-3.7l0.3-0.5L244,179.2z M147.2,49.2c18.6,5.3,32.7,13.8,42.2,25.5
		c6.8,7.8,14.1,15.1,21.8,22.1c7.8,7.1,16.1,13.8,24.7,20l0.3-0.9c-8.8-8-16.5-15.4-23.3-22.3c-6.9-7-12.8-13.3-17.6-19.1
		c-8-8.2-15.8-14.6-23.3-19s-14.4-6.9-21.3-7.4L147.2,49.2z M273.4,128.4c-0.8,2.1-1.8,4.3-3,6.9c-2.4,11.3-8.8,25.8-18.1,36.3
		c-1.7,2-3.6,3.8-5.6,5.4c2.9,2,6.4,3.2,9.9,3.4c3.7,0.1,7.5-0.5,11-1.8c2.2-0.8,2.1-0.8,2.3-1.1c1-1.6,1.6-3.3,1.9-5.1
		c-2,1.7-4.3,3.2-6.7,4.3l-1-2.1c4.8-2.4,8.2-5.3,10.4-8.7l-2.2-0.3c0.5-2.8,1.4-5.5,2.6-8c1.5-3.1,3.9-3.9,5-6.7
		c1.1-2.9,3.2-22.4-5.7-25l0.2-0.6C274.2,126.2,273.8,127.3,273.4,128.4z M277.2,158.2l-0.2,0.6c-1.1,2.2-1.8,4.6-2.3,7
		C276.2,163.4,277.1,160.8,277.2,158.2z M192.2,115.6c-9.1-4.8-17.5-9.6-25-14.3c-7.4-4.6-14.5-9.7-21.3-15.2
		c-0.3,1.4-0.5,2.8-0.3,4.2c0.5,3.3,2.4,6.6,5.8,9.8l0,0c1.9,1.7,3.9,3.2,6.2,4.3c3,1.7,6.1,3,9.4,4.1c3.4,1.5,6.9,2.8,10.5,3.8
		c4,1,8.7,2.2,13.9,3.1h0.8L192.2,115.6z M199.9,119.3c0.6,0.7,1.1,1.5,1.6,2.3c8.1,7.4,17.9,12.7,28.6,15.4
		c0.3-0.9,0.6-1.9,0.9-2.9l-19.2-11.1l-17.8-10.4l0,0c-11.9-6.7-21.6-12.9-29.5-18.3c-5.8-3.9-11.3-8.3-16.3-13.1
		c-0.9,1.4-1.6,2.8-2.1,4.3l0.3-0.5c6.8,5.5,14,10.5,21.4,15.2c8.1,5.1,17.3,10.2,27.2,15.4l-0.2,0.5
		C196.7,116.8,198.4,117.9,199.9,119.3z M214.1,157.5c1.2,2.6,2.7,5.1,4.5,7.4c2.5-4.5,4.6-9.2,6.5-14.1c1.4-3.4,2.7-7.3,4.1-11.7
		c-9-2.1-17.7-6.5-26.1-13.1c2.4,3.4,4.6,7,6.3,10.9l0,0c1.8,4,2.8,8.3,2.9,12.7l0,0C212.4,152.3,213,155,214.1,157.5z M257.9,208.9
		c0,0.7,0.1,1.5,0.2,2.2c0.2,0.8,0.6,1.5,1.3,1.9c1.1,0.6,2.3,1,3.5,1.1c1.6,0.4,3.3,0,4.6-1h0.1c-2,1-4.3,1-6.3,0
		c-1.9-0.9-1.5-1.5-1.8-3.3c1.2-0.5,2.4-1.2,3.4-1.9c2.1,0.9,4.3,1.5,6.5,1.7l1-2.2c-3.4-0.8-5.9-6.3,1.8-4.1l1.4-3
		c-0.2-0.1-0.3-0.3-0.5-0.5c-2.3-2.3-0.8-1.6,0.8-0.7c0.2-0.3,0.3-0.6,0.5-0.9l-0.6-0.3c-1.8-0.9-0.8-1.5,1-1.7h0.2l0.2-0.5
		c-0.7-0.1-0.7-0.8,0.9-2.7l0,0c4.7-13.8,7.1-28.3,7.1-42.9v-0.2c-0.8,1.4-1.8,2.8-2.7,4.1h-0.2c-1,0.8-0.8,8.3-3.9,13
		c-0.6,0.8-1.1,1.7-1.8,2.5c-0.2,3.8-1.6,7.4-3.9,10.4c-5.6,7.2-13.8,7.1-21.8,4.6c-2.6-0.8-5-2.2-7-4.1c-7,4.3-15.2,7.4-22.1,1.8
		c-1.1-1.1-2-2.4-2.6-3.9c0.4,5.7,1.3,11.4,2.5,17c1,4.8,2.4,9.9,4,15.3c1.6-1.3,2.5-0.9,5.8-2.3c0.3,0.3,0.9,0.6,1.1,1
		c0.2,0.5,0.1,0.2,0.1,0.7l-1,3.3c-0.7,1.2-1.5,2.3-2.4,3.4c-0.3,0.7-0.2,0.6,0.2,1.1c0.5,0.6,1.3-1.8,1.9-2.9
		c0.7-0.9,1.2-2,1.5-3.1c1.6,1.4-0.8,3.9-1.8,5c-0.8,0.6-1.5,1.4-2.2,2.2c-0.1,0.2-0.2,0.4-0.2,0.7l0.7,1.8l3.2-3.2
		c1-1,5.7-5.4,6.1-5.9c4.6-9.7,3.4-6.9,0.1-9.7c-1.7-1.1-1.3-4-0.2-5.7s2.2-3.5,5.1-4.8s1.5-1.1,2.5-0.6c-1,0.8,0.1,0.7-1.6,1.5
		c-3.5,1.6-3.4,1.7-4.5,4.2s-1,2.6-0.7,3.8c0.2,1.1,0.9,2.1,1.9,2.5l0.6,0.6c0.8-0.5,0.7-0.8,1.5-1h0.6c-1.1,1.1-1.9,2.5-2.2,4
		l-0.9,2.3c-1.3,3.1,5.5-1.3,7.4-2.1l7.3-3c2-0.7,3.8-1.5,5.6-2.6c0.4,0.1,0.8,0.3,1.1,0.6l4.8,1.5l-5.6-0.8l-8.1,3.4
		c-0.3,0.7,1,0.7,1,0.7c2.4,0.3,4.8,1.4,7.1,0.3C259.4,208.8,258.7,208.7,257.9,208.9z M271.2,192.1c0.1-0.9,0.4-1.7,0.9-2.4
		c1.2-1.7,3-3,4.9-3.7c0.3,1.5-1.1,3.8-2.1,4.9c-0.5,0.8-1,1.5-1.7,2.2c-0.3,0.4-0.7,0.7-1.1,0.9C270,195.2,270.3,195.2,271.2,192.1
		z M261.2,190.4c1.4-1.2,3-2.1,4.7-2.9l0.8-0.5c-0.5,1.5-0.9,3-1,4.6c-0.7,2.2-1.6,2.2-3,3.7c-1.1-2.4-4.3-0.5-3.7-1.1H259
		C259.8,192.9,259.9,191.5,261.2,190.4L261.2,190.4z M269.5,193c-0.2,0.7-0.5,0.8-1,1.4c-0.4,0.3-0.7,0.7-0.9,1.1
		c-2.2,0.3-2.2,1-3.2,0.9C266,195.2,267.1,193.4,269.5,193z M240.3,203.5c-0.7-0.5-0.9-0.2-1.5-1.1c-0.6-0.9-0.6-2.4-0.1-3.9
		c0.5-1.5,0.8-2.3,1.9-3.1c0.6-0.4,1.3-0.8,1.9-1.1c1.5-0.6,3-1.2,4.6-1.6L247,193l-0.2,0.2l-0.6,0.7c-1.1,1.6-1.1,2.7-1.8,4.3
		c-0.7,1.6-0.3,2.5-0.8,3.2S240.9,202.9,240.3,203.5z M249.1,205.8c-3.8,1.7-7,2.9-5-1.5c0.4-0.9,1-1.8,1.8-2.4
		c1.7-1,5.9-1.8,6.5-0.5C253,202.9,250.8,205.1,249.1,205.8z M251.4,199.4c0.3-2.3-1.5-1.7-1-4.1c0.1-1.2,0.5-2.4,1.1-3.4
		c1.9-2,3.9-3.8,6.2-5.4c-0.1,0.6-0.1,1.1-0.2,1.8c-0.1,0.7,0.5,5.1-1.7,7l-3,2.7L251.4,199.4z M259.4,199.9c-1.4,1-3,1.5-4.7,1.5
		c-1.4,0.1-1.8,1.7-1.3-0.9l0.3-1.5c1.3-3.3,4.9-4.3,7.3-4.1h0.7C262.6,197.1,261.1,198.7,259.4,199.9L259.4,199.9z M260.6,201.5
		l0.6-0.6c1.8-1.7,2.9-4.6,6.9-4.6c1,0,1.9-0.3,2.7,0.1c0.8,0.5-1,1.5-1.9,2.1C263.3,202.3,263.2,200.5,260.6,201.5L260.6,201.5z
		 M195.3,275.4c0,0.1-0.1,0.1-0.1,0.1h0h0.1V275.4z M189,45.5c3.3,1.8,6.4,4,9.3,6.4c6.5,5.6,12.3,11.9,17.4,18.7l-0.9,0.7l1-0.7
		c4.2,6.7,8.6,13.1,13,19.1c4.5,5.9,8.1,10.5,12.3,15.4l1-1.9l-0.6,0.2c-2.7-10.2-7-19.9-12.7-28.8c-3.1-4.9-16.8-21.7-21.4-23.8
		C201.6,48.2,195.4,46.4,189,45.5z M229.9,73.9c5.6,8.8,9.9,18.5,12.7,28.6l0.8-1c-0.6-6.6-2.3-13-5-19.1
		C235.5,76,231.6,70,227,64.8c-4.5-4.8-9.8-8.9-15.7-12C218.5,58.9,224.8,66,229.9,73.9z M223.1,92.3c-4.9-6.2-9.8-12.9-14.7-20.3
		c-4.2-5.6-9-10.8-14.4-15.3c-3-2.6-15.3-12.2-18.5-12.1c-6.3,0.1-12.6,0.7-18.7,2.1c5.8,1.5,11.4,3.8,16.6,6.9
		c7.7,4.5,15.7,11,23.9,19.4l-0.9,0.9l0.9-0.8c4.8,5.7,10.6,12,17.5,19c6.9,7,14.1,13.7,22.5,21.5V113c0.8-2.1,1.7-3.9,2.6-5.7
		c-4.3-5-8.7-10.5-13-16.2c-4.3-5.7-8.8-12.3-13-19.1c-5-6.7-10.7-12.8-17-18.3c-4.6-4-9.8-7-15.5-9h-3c5.9,3.1,11.4,6.9,16.5,11.2
		c5.4,4.6,10.4,9.8,14.6,15.5l0,0c4.5,7,9.4,13.8,14.6,20.2c4.7,5.8,9.7,11.2,15.1,16.3l-0.8,0.9C232.8,103.7,227.7,98.2,223.1,92.3
		z M159.3,110.5c-0.1,0.3-0.1,0.5-0.1,0.8c-0.6,2.3-0.5,4.8,0.5,7.1c1,1.8,2.6,3.1,4.6,3.7l2.1,0.5c4.7,0.9,7.8-0.8,11.4-2.9l1-0.6
		c-4.2-0.8-8.4-2-12.3-3.8C163.7,114.3,161.2,112.6,159.3,110.5z M184.2,116.4l-7.4-1.7c-3.6-1.1-7.2-2.3-10.6-3.8
		c-2.3-0.9-4.5-1.7-6.3-2.6c-0.2,0.5-0.4,1-0.5,1.5l0.5-0.3c1.9,2.1,4.3,3.8,7,4.8c4.1,1.7,8.4,3,12.8,3.8v0.6
		C181.1,117.8,182.6,117.1,184.2,116.4z M275.3,122v0.3l0,0l-0.7,2.1c3.8,1.1,6.2,3.8,7.2,8.1c1,4.3,0.8,9.1-0.5,15.7l0.7-1
		c0.5-0.9,0.9-1.8,1.3-2.7c-0.2-6.1-0.9-12.1-1.9-18.1C279.6,124.6,277.5,123.2,275.3,122z M266.4,215.3c-2.2,0.6-7.7,0.8-8.8-1.8
		c-1.1-2.6,0-2.7-0.7-4.6l-1.7-0.3c-1.3-0.3-2.7-0.6-4.1-0.7c-1.1,0-1.1-0.5-2.7,0.5c-3.4,1.4-6.7,3-9.8,4.9c-1.9,1-4.1,3.7-5.1,4.7
		c-1.1,1.1-2.2,2.3-3.2,3.5c-1.1,1-2.2,2-3.2,3.1l-0.6-1.4l0.8-0.8l-1.7,0.6c-0.5-1.1-0.8-2.4-1.3-3.5h-0.3v-0.8l-0.3-1
		c-1.3-0.3-2.5-2.6-1.5-4.7c-1.8-5.9-3.3-11.5-4.5-16.8c-2.1-9.6-4.6-19.7-0.2-28.8c-2.2-2.7-4-5.7-5.4-8.8
		c-1.3-2.8-1.9-5.8-1.9-8.8l0,0c-0.1-4.1-1.1-8.1-2.7-11.8c-1.1-2.4-2.3-4.8-3.8-7v1.4l0,0c-0.4,4-1.8,7.9-4,11.3
		c-2.4,3.7-5.5,6.9-9.1,9.5c-1,0.9-2.1,1.6-3.3,2.2c-1.4,0.7-2.8,1.3-4.3,1.7h-0.5c-3-0.2-5-1-6.4-2.4s-1.8-3.5-1.4-6.2l2.4,0.5
		c-0.4,1.4-0.2,2.9,0.7,4.1c1.3,1.1,3,1.7,4.7,1.6c1.3-0.4,2.6-0.9,3.8-1.5c1-0.5,2-1.2,2.9-1.9l0.8,0.9l-0.8-0.9
		c3.4-2.4,6.4-5.4,8.7-8.9c2-3.1,3.2-6.6,3.5-10.3c0.1-0.6,0.1-1.3,0.1-1.9c-0.2-4-1.1-7.1-3.1-9c-1.9-1.9-4.4-3-7.1-3.2H188
		c-3.2,1-6.3,2.3-9.1,4c-4.1,2.3-7.5,4.1-12.9,3.2c-0.8-0.1-1.6-0.4-2.4-0.7c-2.6-0.7-4.8-2.4-6.1-4.8c-1.1-2.7-1.3-5.7-0.7-8.6
		c0.2-1.1,0.6-2.3,0.9-3.5l-1.3-0.7c-2.4-1.2-4.7-2.8-6.6-4.7l0,0c-3.9-3.7-6.1-7.4-6.5-11.3c-0.5-3.7,0.6-7.3,3.1-11.1
		c-3.3-2.6-8.1-5.9-12.9-7.3s-6.7-0.9-9.4,1.1c-4.2,4-7.5,8.8-9.8,14.2c-2.2,5.4-3.3,11.2-3.1,17l0,0v0.2c-0.4,1.3-0.6,2.7-0.7,4.1
		c0,1.1,0.2,2.2,0.6,3.3c0.9,1.9,1.3,4,1.1,6.1c0,0.5,0,1.1-0.1,1.6l1.9-0.9c1-0.4,1.7-1.1,2.2-2.1l1,0.5c-0.5,1.2-1.5,2.1-2.6,2.6
		l4.2,0.5c3.1,0.6,6.1,1.5,9,2.6l-0.5,1.1l-2.4-0.9c-1,1.1-2.2,2-3.5,2.6c-1.8,0.8-3.7,1.3-5.6,1.7l-0.2-1.1l2.9-0.7
		c-0.6-0.6-1.1-1.3-1.4-2.1c-0.2-0.8-0.2-1.6,0.1-2.3c-1.7-0.3-3.5-0.4-5.3-0.5c-0.3,1.2-0.7,2.3-1.3,3.4h-0.1
		c-3.5,4.9-7.3,9.6-11.1,14.1c-0.8,1-1.5,2.2-1.9,3.4c-0.3,0.8-0.3,1.6-0.1,2.4l0,0c0.3,1.1,0.9,2,1.7,2.7c2.3,2.2,5.4,2.5,6.7,4.1
		c0.7,0.8,1.2,1.9,1.3,3l0,0c0,0.6,0,1.1-0.1,1.7c-0.1,0.7-0.3,1.5-0.6,2.2h-0.1c7,2.7,9.6,6.9,16.1,9.5c-1.3,0.1-6.2,0.1-7,1.1l0,0
		c-0.9,1-1.9,2-3,2.9l-1.9,1.3c1.3,1.3,1.9,3.2,1.6,5v0.2l0,0c-0.2,0.7-0.4,1.4-0.6,2.2c-0.2,0.8-0.3,1.6-0.6,2.4
		c-0.1,2.2,0.4,4.3,1.4,6.3c0.9,1.6,2.4,2.9,4.1,3.7c2.9,0.9,6,1.4,9,1.5c3.6,0.1,7.2-0.3,10.7-1c3.1-0.9,6.4-0.9,9.6-0.1
		c2.7,1,4.9,3,5.9,5.7h0.1c0.6,1.7,1.3,3.3,2.2,4.8c0.8,1.5,1.8,3.1,3,4.8h0.1c0.6,1.4,1,2.8,1.4,4.2c0.6-0.5,1.2-0.9,1.8-1.3
		c1.6,2.3,0.7,4.1-0.1,5.9c-1.5,3.9-6.2,10.7-8.9,13.8c-0.5,0.7-0.7,0.7-0.6,1.6c2.7,0.1,6.6-3.2,8.2-4.8c1.3-1.2,2.6-2.4,3.8-3.8
		c0,1.3-0.3,2.5-0.9,3.7c-1.8,2.3-4.2,4-7,4.9c-1.5,0.2-3.1,0-4.6,0.7c-1.5,0.7-0.2,0.2,0,1.3l-1-0.3c-0.7,1.5-1.1,3.1-1.1,4.8
		c0,0.3,0,0.6-0.1,0.9v0.7l0,0l-1.4-0.6l1.7-5v-0.3c-0.3-1.6-3.8,2.9-5.1,4.2s-0.8,0-2.2,0.5c-1.4,0.5,4.3-4.1,5.3-4.7
		c0.9-0.6,1.4-0.5,1.6-1.7c0.2-1.3-5.7-0.6-6.6-0.7c-2.1-0.3-4.2-0.9-6.2-1.6c0.4-3.5-0.6-7.1-2.7-9.9l0.5,0.2l3.9,2.7
		c3.3,2.7,6.8,5.2,10.5,7.4c1.8,1.3,1,1.6,2.2,1.5c1.1-0.1-0.8-2.6-1.3-3.8l-1.5-4.1c-2.1-5-3.8-10.2-5.1-15.4
		c-0.3-2.3-1.1-7.2-0.2-8.6c0.9-1.4,4.5,3.7,5.7,5.8c1.5,3,2.3,6.3,2.3,9.7c0.3,3.4,0.4,6.9,0.2,10.3v4.2c-0.1,0.8,0.1,1.5,0.7,2.1
		c0.7-0.6,0.5-0.5,0.8-1.1l0.7-1.3c2.1-3.4,2.6-10.2,5-14.6l-0.3-1.8c-0.3-1.4-0.7-2.8-1.3-4.1c-1.1-1.6-2.2-3.2-3.1-4.9
		c-0.8-1.6-1.6-3.2-2.2-4.9c-0.9-2-2.6-3.6-4.7-4.3c-2.7-0.7-5.5-0.7-8.2,0.1h-0.2c-3.7,0.8-7.5,1.1-11.3,1
		c-3.3-0.1-6.5-0.6-9.6-1.6h-0.1c-2.3-0.9-4.2-2.6-5.4-4.7c-1.2-2.3-1.8-4.9-1.6-7.5h1.1l-1.1-0.2c0.1-0.8,0.3-1.7,0.6-2.5l0,0
		c0.1-0.8,0.3-1.5,0.6-2.3c0-0.7-0.1-1.5-0.3-2.2c-0.2-0.5-0.6-1-1.1-1.3c-1-0.2-1.8-0.7-2.4-1.5c-0.6-0.8-0.9-1.8-0.9-2.9
		c-0.3-1.2,0-2.4,0.7-3.3c0.3-0.5,0.6-1,1-1.4c-1.4-0.8-2.5-2.1-3.1-3.7c-0.3-0.8-0.4-1.7-0.2-2.5c0.2-1.5,1-1.9,1.1-3.4
		c0.1-0.4,0.1-0.8,0.1-1.3c0-0.6-0.2-1.1-0.6-1.6c-0.4-0.5-1-0.7-1.6-0.8h-0.2c-1.8-0.7-3.4-1.8-4.8-3.1c-1.2-1.1-2-2.5-2.4-4
		c-0.3-1.2-0.2-2.5,0.2-3.7c0.5-1.5,1.2-2.9,2.2-4.1h0.1c3.7-4.5,7.4-9,11-13.9c0.4-0.7,0.7-1.4,0.8-2.2h-2.1l2.2-0.5
		c0.2-0.7,0.4-1.5,0.3-2.3c0-1.8-0.3-3.5-1-5.1l0,0c-0.5-1.3-0.7-2.7-0.7-4.1c0-1.5,0.2-3.1,0.7-4.6c-0.5-12.2,4.3-23.9,13.1-32.3
		c-0.8-3.1-0.5-6.4,0.8-9.3c8-17.8,46.9-21.7,61.8-20.3c15,1.4,32.3,7.8,44,20.3l0,0c4.9,5.4,8.9,11.5,11.9,18.2
		c2.5,5.6,4.1,11.5,4.9,17.5c0.7-0.6,1.5-0.9,2.4-1c1.6,0,3.1,0.9,4.6,3l0,0c0.8,1.1,1.8,2,2.9,2.7c1.3,1.1,2.8,2.1,4.3,2.9
		c2.8,0.1,5.6,0.9,8.1,2.2c2.2,1.3,4,3.2,5.3,5.5c0.8,1,1.4,2.3,1.7,3.5l0.3,1.7c1.9,0.9,3.8,2,5.5,3.3
		C265.4,50.5,194.7,4.3,122.6,19.4S4.3,105.2,19.4,177.4c9,42.9,38.4,78.6,78.8,95.6l20.2-4.7l5.6-1c1.9-0.3,3.9-0.9,5.7-1.1
		l-0.3,2.6l-5.1,0.7c-4.5,0.7-13.9,2.7-22.6,4.9c8.1,3.2,16.5,5.6,25,7.1c2.3-2.9,2.7-6.6,3.2-10.2c2.1-15-0.8-20-0.6-24.9
		c0-0.9,0.2-2.2-1.1-1.4c-0.7,0.6-1.2,1.2-1.7,1.9c-2.2,2.9-4.6,5.7-7.3,8.1c-3.2,2.6-6.5,4.9-9.9,7.1c-2,1.1-4.1,2.1-6.2,3
		c-3,1.3-13.3,3.7-15.4,2.1c-0.9-0.7-1.1-2.1-0.5-3.1c2.9-4.9,14.9-11.2,20.8-13.6l4.2-1.4c5.3-1.4,11.5-4.9,15.2-5.9
		c0.2-0.1,2.5-0.3,1.5-0.9l-0.6-0.2c-12.2-3.2-25.1-4.5-36.5-10.5c-0.8-0.5-4.3-2.6-4.7-3.5c-1.7-3.9,12.6-2.5,14.3-2.2
		c1.8,0.5,3.6,1.2,5.4,1.9c4.4,2,8.6,4.5,12.5,7.4l4.8,3.4c0.9,0.6,3.3,2.5,4.5,2.5c1.1,0,0.7-0.2,0.6-0.7c-0.1-0.5-1.8-4.1-2.9-5.5
		c-3.1-4.5-9.3-9.1-11.2-13.9c-0.8-1.9-2.1-4.2-1.9-6.4c0.1-2.2-0.2-0.5,0.3-0.9l0.3-0.2c0.8-0.1,1.6,0.1,2.3,0.6
		c1,0.5,1.8,1.2,2.5,2.1c3.5,4.1,5.9,9.9,8,15.1c0.5,1.1,0.5,1.7,1,3.1l2.2,5.5c0.3,0.6,0.8,0.7,1.1-0.1s0.9-6.7,0.7-8.6
		c-0.2-1.8-1.7-8.6-1.9-10.5V220c4.1,3.3,4.6,6.2,4.7,11.4c0.1,5.3-1.8,5.4-3,9.1c-0.2,0.8-0.2,0.7,0.1,1.7c3.1-0.6,7-1.3,9.9-1.5
		c3-0.2,7.4,1.4,10.5,2.7l3.8,2.2c3.5,2.6,6.6,8.3,4,10.4c-0.7-0.1-5.4-4-7.5-5.4c-3.5-2-7.2-3.8-10.9-5.4l-1.4-0.5l-1.5-0.7
		c-1.9-0.7-3.9-1.2-5.9-1.5c-6.4-0.3,11.9,11.1,12.1,11.2c3,2.3,7.4,4.8,9.8,7.9s0.6,8.2-3.2,5.1c-2.5-2-4.9-4.1-7.2-6.4
		c-4.4-4.6-8.4-9.5-12-14.7c-0.7-0.8-0.6-0.8-1.3-1.3c-0.7-0.5-0.6,0.5-0.5,1.4c0.2,1.8,0.6,3.6,1.1,5.4c1.8,9,3.7,11.4,3.7,21.3
		c0,3.1-0.6,6.1-1.8,8.9l-0.3,0.8c5.6,0.8,11.3,1.2,17,1.1c13.6,0,27.2-2.1,40.2-6.2c-3-3.7-0.1-7.1-1-9.8c-0.9-2.7-2.7-3.3-0.2-5
		c0.7,0.3,1.3,0.8,1.8,1.4c1,1.1-0.1,0.6,1.7,1.8c1.2-0.8,2.7-1.2,4.1-0.9c5,0.3,6.1,3.1,7.4,4.3s1.4,0.7-1.4,1.1l-2.2,0.5
		c-4.7,0.7-4.2,0.3-7.5-1.4c-1.6-0.9-2.1-1.8-2.9-1.7h-0.2c-0.1,0.5,0.9,1,1.4,1.3l1.5,0.9c1,0.7,2.1,1.3,3.2,1.6
		c1.4,0.4,2.6,1.3,3.4,2.5c28.4-11.3,52-32,67-58.6L266.4,215.3z M185.2,123c0.3-0.3,0.7-0.5,1.1-0.6h0.9c1.8-0.2,3.5,0.2,5,1.1
		c1.7,1.1,3.2,2.5,4.2,4.2l0.5,0.8l-1-0.7c-2.3-1.5-5.9-3.9-8.5-2.4c-0.4,0.3-0.9,0.5-1.5,0.6c-0.6,0-1-0.3-1.3-1.4
		c-0.2-1-0.1-0.2-0.1-0.3C184.6,123.8,184.8,123.3,185.2,123z M179.4,139.6c1.5-1.3,3-0.9,6.2,0c3.2,0.9,5.6-2.3,8.6-4.2l1.5-0.9
		l-0.6,0.9c-1.4,2.3-3.3,4.3-5.6,5.7c-2,1.2-4.4,1.7-6.7,1.5h-1.3c-0.5-0.2-1-0.4-1.5-0.8c-0.5-0.4-0.7-1-0.7-1.6
		C179.3,139.9,179.3,139.8,179.4,139.6L179.4,139.6z M129,111.4c-3.9-1.5-10.3-3.8-13.4-0.6c-0.6,0.6-1.3,1.1-2.2,1.4
		c-0.8,0.1-1.7-0.2-2.4-1.6s-0.1-0.3-0.1-0.6c-0.3-0.6-0.2-1.4,0.2-1.9c0.4-0.6,1-1,1.6-1.4l1.4-0.5c2.6-0.9,5.4-0.9,8,0
		c2.9,1,5.6,2.6,7.8,4.8l0.9,0.9L129,111.4z M125.7,249.2c0.2-0.2,0.4-0.4,0.5-0.7c1.3-1.7,0.7-0.8,2.4-1.5c0.3,1.3,0.5,2.7,0.5,4.1
		l-2.6,0.6c-0.9,0-1.8,0.1-2.7,0.2L125.7,249.2z M116.5,245.7c0.5,0.1,0.9,0.3,1.4,0.6l-4.1,1.5c-0.2-0.5-0.5-1-0.8-1.5
		c-0.3-0.8-0.1-0.6-0.5-1.5C113.9,244.9,115.3,245.2,116.5,245.7L116.5,245.7z M129.8,224.6c0.2,1.8,0.6,3.5,1,5.3
		c-1.2-0.4-2.4-0.9-3.4-1.6c-1.9-1.1-1.5-0.6-2.7-3.4c-1.2-2.9-2.8-5.7-4.7-8.2c1.5,0.2,3,0.6,4.5,1.1l2.1,0.9
		c0.7,0.5,1.5,0.8,2.3,1C129,221.3,129.4,222.9,129.8,224.6L129.8,224.6z M156.5,245.4L156,245l-1.3-0.8c-4.3-2.3-1-1.1-4.2-8.8
		c0.6,0.3,5,5.1,5.7,7c0.7,1.8,0.5,2.3,0.9,3.3L156.5,245.4z M135.8,247.2c-2.2-1.8-3.2-1.9-1.8-2.7c1.4-0.8,2.2-0.1,4.3,0.5
		C137.7,245.9,136.9,246.7,135.8,247.2z M147.7,255c-0.8-0.2-1.5-0.6-2.1-1.1l-2.1-1.4c0.1-1.6,0.5-3.3,0.7-4.8
		c1.3,0.5,2.6,1.1,3.9,1.8C148,251.3,147.9,253.2,147.7,255L147.7,255z M131.7,250c0-1-0.2-1.9-0.5-2.9c-0.3-1.5-0.2-0.2,0.1-1
		c0.6,1,1.3,2,2.1,3C132.3,249.4,132.5,249.5,131.7,250L131.7,250z M141.6,259.3l1,0.8c0.4,0.3,0.7,0.7,1,1.1
		c-0.2,0.9-0.7,1.9-1.6,2.2c-1.2,0.3-2.4,0.4-3.5,0.5L141.6,259.3z M137.4,268h-0.9c-0.6,0-0.2,0.2-0.7-0.2s-0.1-1.7-0.3-2.6
		l10.6-1.5l0.8,0.7l0.8,0.7c0.6,0.4,1.1,0.9,1.6,1.5L137.4,268z M249.8,208.9c9-1.8,5.8,3.9-0.1,4.9S244.2,210.1,249.8,208.9
		L249.8,208.9z M235.4,222.5c2.5-0.8,5.3-0.1,7.1,1.8c0.7,1,1.6,1.8,2.6,2.5c-7,2.9-4.9,1-7.1,0.1c-2.2-0.9-5.4-1.4-6.1-2.2
		C233.1,224.1,233.8,223,235.4,222.5L235.4,222.5z M219.1,222.6c1.1-0.1,0.9-0.7,2.4-0.9c1.5-0.2,3.3,0.2,4.3,2.1
		c1,1.8-0.2,1.1-1.4,1.5l-1.5,0.7c-0.8,0.5-0.6,0.5-0.6,1l0.8-0.2c1-0.7,2.2-1.1,3.4-1.1c2.1,5,1.3,4.6-0.9,7.4
		c-0.1,0.1-0.1,0.2-0.2,0.5l-0.2,0.5c-1,2.5-5,3-7.3,1.8l-0.3-0.6c0.8,0.1,1.1-0.1,2.3-1.4c0.6-0.5,1.2-1.1,1.6-1.8
		c0.9-1.6,1.5-5.1-1.1-6.6c-2.6-1.5-4-0.5-7.4,1c0-0.9,0.3-1.7,1-2.2C215.6,222.5,217,222.7,219.1,222.6L219.1,222.6z M217,238.9
		c0.5-0.5,1-0.9,1.6-1.3c1.3-0.4,2.7-0.5,4-0.3c1.9,0.5,4.8,3.8,5.8,4.7c-1.3,0.5-2.6,1-3.9,1.4c-2.1,0.5-1.4-0.3-2.9-1.3l-1.6-0.6
		l-4.3-1.3L217,238.9z M215,234.4l-1-0.5c-1-0.5-0.8-0.1-1.6-0.9c-0.8-0.8-0.5-5,1.6-6.4c2.1-1.4,3.7-2.1,5.8-0.7s0.5,0.2,1.3,1.4
		C221.8,228.5,218.8,236.2,215,234.4L215,234.4z M215.6,221c-0.9,2.4-3.8,3.7-6.5,3.5c-0.2-1.6,1.7-3.5,2.3-5.9
		c0.6-2.4-1.7-2.2,4.6-5C216.3,215.9,216.4,219.2,215.6,221L215.6,221z M196,238.2c-2.5-3.3,1.5-5.5,4.2-6.6
		c0.3,0.5,4.2,1.8,2.3,5.1l-1.6,3.4c-0.3,0.7-0.6,0.9-0.9,1.7c-1.5,3.5-0.9,3.2-2.1,4C198.9,240.5,198.5,241.7,196,238.2L196,238.2z
		 M201.7,230.5c0.3-2.6,2.7-5.3,5.5-6.4c0.5,2,0.6,4,0.3,6.1c-2.3,1-3.2,1.5-4.3,2.9C202.5,232.1,201.5,231.7,201.7,230.5
		L201.7,230.5z M203.7,234.7c-0.1-1.3-0.5-0.7-0.1-0.9v-0.2c0.7-1.4,3.7-2.5,4-2.7c0.3-0.2,0.8,1.5,0.8,3.7c0,4.3-2.6,7.1-7.3,6.9
		C201.7,238.7,204,236.7,203.7,234.7L203.7,234.7z M208.2,224.1c-0.1,0-0.1,0-0.1-0.1l-0.6-0.5c-1.1-0.5-0.8,0.8-2.3-0.3
		c-1.5-1.1-2.6-2.6-1.9-4.7c1.5-4,3-2.2,4.6-4C212.3,217.5,210.9,218.3,208.2,224.1L208.2,224.1z M211.9,209
		c0.8-0.7,1.6-1.2,2.5-1.7c0.7-0.2,0.7,0,0.7,0.6c0.7,4.8,0.8,5.1-1.8,6.4c-2.6,1.3-1.6,1.1-2.5,1.7c-0.9,0.6-1.5-1.1-1.4-2.3
		C209.8,212,210.7,210.4,211.9,209L211.9,209z M202,213.6c0.2-1,0.6-1.9,1.1-2.7l1.1-1.9c1.8-2.6,0.6-1.7,1.8-3.2
		c1.4,0.9,3.7,3,3.4,5.1c-0.2,2.2-0.1,0.3-0.3,1c-0.4,0.7-0.6,1.5-0.6,2.3c-1.5-0.3-4.6,1.3-5.4,2.5
		C202.3,216,201.8,214.8,202,213.6L202,213.6z M194.4,230.4c0.1-1.3,3.1-6.7,4.1-7.9c1.6,1.4,4.1,3.8,3.2,6.2l-0.6,1.1l0,0l-0.3,1.1
		c-1.9-0.5-4,1.5-5.4,2.5C194.6,231.9,194.3,232.5,194.4,230.4L194.4,230.4z M180.1,228.2c0.5,1.5,0.6,2.9-0.7,3.8
		C178,231.1,178.4,230.4,180.1,228.2L180.1,228.2z M176.5,229.5c1.3,2.9,1.4,2.2,3.2,3.4c3-3.7,0-4.3,1.4-5.6l0.5,0.8
		c0.6,2.1-0.1,0.9,1.3,3.2s1,2.9,0.6,3.8c-0.9,2.3-1.5,4.7-1.7,7.1c0.7-0.2,0.7,0.3,0.9-1.5c0.7-6.2,2.2-6.3,5-8.5
		c2.9-2.2,5.3-5.4,3.3,2.4c-1,3.8-2.3,5.8-6.1,7.4c0,0.3,1.4,3.9-0.3,4.6s-2.3-2.7-3.2-4.2c-0.9-1.5-2.5-1.6-4-3.2
		C174.7,236.6,174.4,232.5,176.5,229.5L176.5,229.5z M165.3,234.7c0.5-1.6,1.7-5.6,1.5-2.2c0.1,0.6,0.3,0.7,0.5,1.3
		c0.1,0.6-0.5,1.6-0.8,2.4S165,235.7,165.3,234.7L165.3,234.7z M163.4,234.1c1.4,3.3,2.1,1.7,3.2,3.2c2.9-3.5,0-4.2,1.6-5.7
		c0.7,2.2-0.1,1.7,1.5,4c0.5,0.6,0.8,1.3,0.9,2.1c0.2,1.3,0.2,0.9-0.2,1.8c-1,1.9-1.6,3.9-1.7,6.1c0,1.1,0.6,1.6,0.8-0.2
		c0.2-1.8,0.6-4.9,2.5-6.9c0.7-0.9,1.7-1.6,2.7-2.1c1.4,3.2,1.1,1.9,2.7,4.1c-0.5,0.5-2.4,3.7-2.6,3.9c-2.1,1.9-1.7,0.9-3.2,2.1
		c2.3,5.1-1.7,5.8-2.5,2.6c-0.8-3.2-1.7-3.1-4.1-5C160.5,240.7,162.1,235.1,163.4,234.1L163.4,234.1z M153.9,257.6
		c-1.3,0.6-0.8-1.6-0.7-2.2c0-1,0.2-2,0.5-3c1,0.9,2,1.7,3.1,2.4C156.2,256.1,155.2,257.1,153.9,257.6z M186.4,261.4
		c-3.2-2.3-4.5-2.3-7.8-1.4l-13.8,3.8c-0.6,0.1-7.4,1.6-8.2,1.5s0-1.6-1-3.1c4.4-0.7,8.8-1.6,13-2.9c2.1-2.1,1.7-6.7,2.7-7.8
		s-0.6,6.7-0.7,7.2l2.4-0.9c1.1-0.5,1.1-0.2,2.2-0.7l4.5-1.8c3-1.4,3.1-1.3,3.7-6.1c0.2-1.8,0.7-1.5,1.4-1.8
		c-0.1,1.1-0.3,2.1-0.7,3.1c-1,3.9,0.9,2.6,3.2,1.6l-0.5,1.3c-0.4,1.2-0.9,2.3-1.5,3.4c-1.6,3,0.8,1.8,2.9,5.4
		C187.3,262.3,187.2,262,186.4,261.4L186.4,261.4z M189.1,260.6c-5.1-1.4-2.4-4.9-2.3-5.3s0.5-2.2,1.7-3c1.3-0.8,2.9-0.3,3.8-0.3
		c3.5,0.2,7.1,5.7,0.8,8.3l-2.1,0.3L189.1,260.6z M198.5,259.6c-0.7,0.5-2.1,2.1-3.7,2.5c-1.6,0.5-3.2,0.1-3.8-0.6
		c3-0.6,5.8-1.5,6.2-4.8c0.1-0.8-0.1-1.6-0.3-2.4c-1.6-2.5-4.7-3.7-7.7-3c-1.4,0.2-0.7,0.9-1.5,0.5c1-1.4,0.7-1.9,2.5-3.3
		c1.2-1.1,3-1.5,4.6-1c1.7,0.6,5.5-0.8,6.4,4.9c-0.6,0.5-1.3,0.8-1.9,1.1l-1.6,0.6h-0.1c0.2,0.3,0,0.8,1.9,0
		c0.7-0.3,1.4-0.7,2.1-1.1C203.7,258.3,199.3,258.9,198.5,259.6L198.5,259.6z M203.2,252.6c-0.9-1.9,0-3.9-1.3-5.4l-1.6,1l-0.8-0.6
		c-0.6-0.3-1.7-0.5-2.3-0.8c3.8-1.6,11-7.3,13-9.7c4.3-5.1,2.9-1.5,5.4-1.8c0,0.6,0,0.6-0.8,1.3l-1,1c-1.6,1.6-4.3,1.5,0.7,3.1
		c2.4,0.7,5.6,1.4,6.5,1.8c0.9,0.5,1.6,3.9,1.5,4.9c-6.4,2.5-3.3,0.9-5.1-0.3s-0.5-0.5-1.1-1c-0.7-0.6-1.8-1.1-1.8-2.4
		s-3.2-3.9-3.8-3.2c-0.6,0.7-3.7,1.8-5.7,3.7c-2.1,1.8-0.5,0.9-2.3,2.2l3.2,1c3,0.6,5.6,1.1,5.5,4.6l-0.3,1.4
		c-1.8,0.8-3.1,1.6-4.6,1.4C205,254.5,203.8,253.7,203.2,252.6L203.2,252.6z M216.9,247.8c-6.3,2.6-5,1.3-6.7,0.2s-4.3-1.3-5.9-1.8
		c1.7-2.2,3.8-3.8,6.9-3.1S216,247,216.9,247.8L216.9,247.8z M216.6,260.5l-5.9-1.1c-3.5-0.8-3.7-1.9-4.3-4c0.7,0.2,1.5,0.1,2.2-0.2
		c2.6-1,3-0.9,3.2-2.1c2.9,1.5,3.2,0.8,4.1,2.3C216.6,256.9,216.9,258.7,216.6,260.5L216.6,260.5z M220.6,253.3
		c-0.8,0.3-1.6,0.5-2.4,0.6c-0.8,0.1-1.5,0-2.3-0.1c-2.4-0.5-3.9-0.5-4-2.6c-0.1-2.2-0.9,0,4.7-2.4l0.5-0.2c0.6,0.9,0.8,0.7,1.6,1.6
		c0.8,0.9,1,1.3,1.6,1.8C220.8,252.5,221.8,252.6,220.6,253.3L220.6,253.3z M228.1,254.6c-1.5-0.1-4-0.9-6.3-1.1
		c-0.2-1.4,0.6-0.5-0.9-1.9c-1.5-1.5-1-1.4-1.7-1.9l2.5-1c1.3-0.6,1.3-0.5,1.5-1.4c2.6,1.3,3.3,0.8,4.1,2.3
		C228.1,251.1,228.4,252.9,228.1,254.6L228.1,254.6z M232.1,247.4l-1.1,0.3c-3.4,1-6.6-1-7.5-1.3c-0.9-0.2-0.1-1.3,0-2.3l2.2-0.5
		l2.3-0.9c1.1-0.3,0.2-0.2,1,0.2c0.9,0.6,1.7,1.3,2.3,2.2c0.2,0.3,0.4,0.6,0.7,0.9l0.7,0.6C232.8,247.3,232.8,247.1,232.1,247.4
		L232.1,247.4z M231,231c-0.9-4.5,2.1-3.2-3.4-6.7c0.9-0.1,1,0.3,1.8,0.8c0.8,0.5,3.9,1,5.6,1.6c1.7,0.6,4,0.7,4.2,3.8
		c0,0.9-0.7,1.7-0.5,1.7v0.2c-2.4,0.9-2.7,1.4-4.7,1.1C232.1,233.3,231.3,232.8,231,231L231,231z M244.4,239.4
		c-1.7,0.3-1.1-0.7-3.1-0.6c-1,0-2-0.2-3-0.6c-1.9-0.3-4.2-1.5-4.1-4.1c1.5,0.3,4.9-0.7,5.5-2.3
		C240.8,233.3,245.1,232.6,244.4,239.4L244.4,239.4z M239.9,231.5c-0.1-0.8,0.1-0.3,0-1.3c0-0.4-0.1-0.8-0.2-1.1
		c3.5-0.6,1.8,0,5.4-1.5c1.6,1.2,2.9,2.6,4,4.2C243.9,234.2,243.2,232.1,239.9,231.5L239.9,231.5z M247.8,227.8
		c-0.1-0.4-0.2-0.8-0.2-1.3l0.5,0.3l1.8,1.5c1.1,0.6,1.9,0.5,2.4,1C250.5,229.9,248.6,229.6,247.8,227.8L247.8,227.8z M249.2,219.4
		c3.2,3.4,1.1,2.5,6.1,5.1c1.1,0.6,2.1,1.3,3.1,2.2c-1.3,0.6-1.7,0.5-3.1,1c-1.4,0.6-1.6,0.8-2.7,0.7c-2.5-0.4-4.6-2.1-5.7-4.3
		c-1.5-2.4-5-2.1-2.3-5.8l-0.7-1.1c0.9-0.1,0.9,0.2,2.3-0.3s1.5-0.6,2.4,0c3.5,2.5,2.2,3.7,7.3,4.3l2.7,0.3h0.1c0.8,0,0.5-0.2,1,0.3
		c-0.9,0.6-1.8,1.2-2.7,1.6c-1.6,0.7-1.5,0.8-3.9-0.8c-0.9-0.6-1.6-1.4-2.3-2.3c-0.6-0.9-1.3-1.7-2.3-2.2c-0.9-0.5-2-0.5-2.9,0
		C246.6,219.3,247.2,217.4,249.2,219.4L249.2,219.4z"/>
</g>
</svg>
