<?xml version="1.0" encoding="utf-8"?>
<!-- Generator: Adobe Illustrator 24.0.1, SVG Export Plug-In . SVG Version: 6.00 Build 0)  -->
<svg version="1.1" id="Layer_1" xmlns="http://www.w3.org/2000/svg" xmlns:xlink="http://www.w3.org/1999/xlink" x="0px" y="0px"
	 viewBox="0 0 300 300" style="enable-background:new 0 0 300 300;" xml:space="preserve">
<style type="text/css">
	.st0{fill:#F27EB2;}
	.st1{fill-rule:evenodd;clip-rule:evenodd;fill:#010101;}
</style>
<g>
	<title>1</title>
	<g>
		<path class="st0" d="M282.7,218.8c-24.8-49.5-70-46.1-120.3-48.7c-44-2.4-100.4-20.5-116.3-65c-0.1,7,2.5,15.4,6.7,24.1
			c76.7,108.2,191.1,29.7,229,87.9c-0.3-0.1-0.6-0.1-0.9-0.1C281.5,217.5,282.1,218.1,282.7,218.8z"/>
		<path class="st1" d="M6,92.1c123.9-82.5,195.1-5.4,288,44.3c-6.9,7.1-39.4-0.6-53-3.5C124.8,107.5,135.3,27.3,6,92.1L6,92.1z
			 M52.8,129.2C52.8,129.2,52.8,129.2,52.8,129.2c1.9,4.6,3.8,9.1,5.7,13.2c-6.4-3.4-14-3.9-20.7-1.1c8-1.9,16.8,0.9,22.9,5.7
			c-5-2.3-12.2-3.8-17.4-2.5c6-0.7,13,2.3,17.5,5.9c-5.5-2.9-16.2-6.2-27-2.1c8.9-2.4,20.9,0.9,29.5,6.3c-8.1-3.2-18.4-3.6-25.9,2.3
			c6.7-3.7,15-3.5,21.6-1.1c-5.1-0.9-11.2-0.5-16.1,2.4c5.3-2.1,13.2-1.4,18.2,0.8c-5.8-1.4-18.2-1.4-24.1,4.5
			c5.1-3.2,12.4-3.8,19.6-2.9c-5.5,0.4-10.9,2.3-15.5,5.4c6.7-3.5,14.4-4.4,21.7-2.4c-10.4-0.5-20.5,2.3-27.6,9.6
			c7.5-6,19.2-7.5,28.8-5.2c-7.3,0.6-14.2,3.4-19.8,8.1c7.1-4.2,15.5-7.1,24-4.9c-14.2,1.6-28.3,7.7-41.5,19.2
			c11.8-8.4,25.2-13.7,39.2-13.6c-9.9,1.6-19.8,6.2-29,14.2c9.8-6.9,21.1-11.1,32.9-10.3l-0.9,0.2c-17.5,2.8-33,11.6-45.9,27.1
			c15.5-13.3,32.7-21.6,50.4-22c-16.4,2.5-32.4,11.1-42,28.1c12.2-15.4,40.8-22.7,58.9-22.6c-19.9,3.2-34.2,6.4-44.1,20.5
			c9.9-9.7,26.8-14.6,40.1-14.2c-14.4,2.5-38.1,11.8-51.9,34.9c13.1-18,40.7-29.4,64.4-31.3c-16.2,3.5-31.8,13-44.1,31.1
			c15.8-17.3,34.7-25.4,50.6-26.9c-15.4,4-29.8,13.6-38.1,30.4c10.6-15.4,29.2-24,46.3-25.7c-12.3,3.4-25.2,11-32.8,22.4
			c9.3-9.6,20.8-16.5,34-17.1c-14.1,3.4-34.6,15.9-41.4,35.3c6.3-14.1,24.8-24.5,44.3-29.7c-13.1,7.8-28,19.9-35,40.7
			c12.4-24.2,31-35.5,50.4-40c-15.7,6.4-29.6,18.8-39,33.3c13.2-14.7,30.2-27.7,51-29.3c-10.6,7.6-18.9,19.4-18.9,34.9
			c2.3-14.4,12.9-26.6,24.4-33c-6.9,6.4-14.4,17-15.7,26.2c2.9-9.8,12-19.1,20.7-23.7c-8.3,6.8-20.2,21.4-20.8,41.3
			c1.7-13.3,11.1-27.5,22.5-37.4c-7.1,8.7-11.5,20.3-11.3,35.2c2.4-19,11.9-32.8,22-40.1c-6.8,7.1-11.6,15.9-11.9,26.1
			c2.4-12.7,11.6-23.4,22-29.4c-6.9,5.7-12.9,14-14.5,23.5c2.9-9.2,12.5-18.8,20.8-22.8c-7.9,6.1-21.5,22.3-20.2,36.5
			c1.8-12.5,12.2-25.7,24.2-34.5c-7.8,7.8-12.9,18.2-14.4,31.6c3.3-15,11.6-26.8,24.2-33.7c-7.3,7.3-12.7,16.4-15.6,26.3
			c5-10.3,11.9-20.2,21.8-26.2c-4.9,5.7-7.7,12.9-8,20.3c1.8-10.1,8.6-18.6,16.6-24.3l1.2-0.3c-5.3,5-9.8,11.9-11.1,19.4
			c2.6-8.3,11.2-16.7,18.5-20.5c-7.1,5.5-19.1,19.9-18.1,32.6c1.6-11.1,10.9-22.8,21.6-30.6c-7,6.9-11.5,16.2-12.9,28.3
			c2.9-13.5,10.5-24,21.7-30.2c-6.6,6.6-11.4,14.7-14,23.6c5.8-12,14.6-23.5,28.5-27.4c4.7-1.2,6.8-1.6,7.5-1.7
			c8.2-0.8,16.4-0.4,24.5,1c0.3,0.1,0.6,0.1,0.9,0.1C243.9,158.9,129.6,237.4,52.8,129.2z"/>
	</g>
</g>
</svg>
