<?xml version="1.0" encoding="utf-8"?>
<!-- Generator: Adobe Illustrator 27.8.1, SVG Export Plug-In . SVG Version: 6.00 Build 0)  -->
<svg version="1.1" id="Layer_1" xmlns="http://www.w3.org/2000/svg" xmlns:xlink="http://www.w3.org/1999/xlink" x="0px" y="0px"
	 viewBox="0 0 350 230" style="enable-background:new 0 0 350 230;" xml:space="preserve">
<style type="text/css">
	.st0{fill:#FFF1B6;}
	.st1{fill:#FFFAD7;}
	.st2{fill:#D9FFF0;}
	.st3{fill:#D2FBFC;}
	.st4{fill:#EFFFCC;}
	.st5{fill:#FFF6C0;}
	.st6{fill:#FFFFB0;}
	.st7{fill:#858BFF;}
	.st8{fill:#00585E;}
	.st9{fill:#007984;}
	.st10{fill:#00373A;}
	.st11{fill:#00FFFF;}
	.st12{fill:#663567;}
	.st13{fill:#2B002D;}
	.st14{fill:#083300;}
	.st15{fill:#58E505;}
	.st16{fill:#1734BF;}
	.st17{fill:#511404;}
	.st18{fill:#EB5CFF;}
	.st19{fill:#007C6D;}
	.st20{fill:#A38800;}
	.st21{fill:#A710C1;}
	.st22{fill:#52025B;}
	.st23{fill:#007A6E;}
	.st24{fill:#0000FF;}
	.st25{fill:#4D2207;}
	.st26{fill:#4B4900;}
	.st27{opacity:0.5;}
	.st28{clip-path:url(#SVGID_00000091727575502049335320000013166629298070558623_);fill:#003F49;}
	.st29{fill:#00F7D9;}
	.st30{fill:#C0C900;}
	
		.st31{fill-rule:evenodd;clip-rule:evenodd;fill:url(#SVGID_00000009562841952701838410000014624722588771650456_);stroke:#ED9E00;stroke-width:0.5;stroke-miterlimit:10;}
	.st32{fill-rule:evenodd;clip-rule:evenodd;fill:#434EDD;}
	.st33{fill-rule:evenodd;clip-rule:evenodd;fill:#FFFFFF;}
	.st34{fill-rule:evenodd;clip-rule:evenodd;fill:#A5CB39;stroke:#465900;stroke-width:0.25;stroke-miterlimit:10;}
	.st35{fill-rule:evenodd;clip-rule:evenodd;fill:#94964D;}
	.st36{fill-rule:evenodd;clip-rule:evenodd;fill:#470A0A;}
	.st37{fill-rule:evenodd;clip-rule:evenodd;fill:#F200FF;}
	.st38{fill-rule:evenodd;clip-rule:evenodd;fill:#0A0089;}
	.st39{fill-rule:evenodd;clip-rule:evenodd;fill:#FF6700;}
	.st40{fill-rule:evenodd;clip-rule:evenodd;fill:#00FFF8;}
	.st41{fill:#00FFD3;}
	.st42{fill:#5B0038;}
	.st43{fill:url(#XMLID_00000103983495263970820310000007590272163011221674_);}
	.st44{fill:url(#XMLID_00000095320670448123299710000016116377402016967834_);}
	.st45{fill:url(#XMLID_00000153669539141052910190000014692459539256730798_);}
	.st46{fill:url(#XMLID_00000170978502388921123680000011595827205583429286_);}
	.st47{fill:url(#XMLID_00000041976957072324618070000001560531022311349411_);}
	.st48{fill:url(#XMLID_00000065045251888654794780000006880197451013638587_);}
	.st49{fill:url(#XMLID_00000004517068481909943650000014194436410397933480_);}
	.st50{fill:url(#XMLID_00000126308894114414424420000005315103555707622577_);}
	.st51{fill:url(#XMLID_00000088117590764576613060000006516323895549404348_);}
	.st52{fill:url(#XMLID_00000011732840820551549280000009016955004449893022_);}
	.st53{fill:url(#SVGID_00000076592582111647798540000012762557395184459946_);}
	.st54{fill:url(#SVGID_00000002345149491920678710000014548105856531720621_);}
	.st55{fill:#0A484F;}
	.st56{fill:url(#SVGID_00000134966240180107752870000000404170078525140143_);}
	.st57{fill:url(#SVGID_00000026151618306212276610000002132741053024578704_);}
	.st58{fill:url(#SVGID_00000168093167596426208630000008696624590177717679_);}
	.st59{fill:url(#SVGID_00000115476728294779842860000003764868154478855090_);}
	.st60{fill:url(#SVGID_00000044895025896952280070000017546688745868020904_);}
	.st61{fill:url(#SVGID_00000043439080013575912440000012650315624839701662_);}
	.st62{fill:url(#SVGID_00000054260274994127044510000015212439680582973315_);}
	.st63{fill:url(#SVGID_00000137131631789568237480000015902350716413621926_);}
	.st64{fill:url(#SVGID_00000120520964561287916810000010002032303502092698_);}
	.st65{fill:url(#XMLID_00000168108264534921079200000014637552386044152716_);}
	.st66{fill:url(#XMLID_00000125596398729216359310000006638967235748131717_);}
	.st67{fill:url(#XMLID_00000116926665000396965970000000495409737751875481_);}
	.st68{fill:url(#XMLID_00000030479092951210953860000017558606555305557136_);}
	.st69{fill:url(#XMLID_00000111159552207142007040000015483381700156983740_);}
	.st70{fill:url(#XMLID_00000005982569135868232970000011957871313879293847_);}
	.st71{fill:url(#SVGID_00000130612310104698533680000006136100492210438281_);}
	.st72{fill:#009345;}
	.st73{fill:url(#SVGID_00000072279862527846568270000015208813788315433400_);}
	.st74{fill:url(#SVGID_00000116219440312799599280000006318251912289352121_);}
	.st75{fill:url(#SVGID_00000069395246099238862400000006555312698296936068_);}
	.st76{fill:url(#SVGID_00000067209576713173502020000011648030476464697237_);}
	.st77{fill:url(#SVGID_00000062901494419641622230000015516501561726324888_);}
	.st78{fill:url(#SVGID_00000115483733791470026780000005803754268946931375_);}
	.st79{fill:url(#SVGID_00000036932904590283030170000009643965698038838690_);}
	.st80{fill:url(#SVGID_00000031177141300002652430000009070409753737363117_);}
	.st81{fill:url(#SVGID_00000151543147808922525980000000571530977854951101_);}
	.st82{fill:url(#SVGID_00000146459659158786403790000002660833546667247262_);}
	.st83{fill:url(#XMLID_00000049906005168830957400000014837910912200956299_);}
	.st84{fill:url(#XMLID_00000124869136196240373450000006919575495908696461_);}
	.st85{fill:url(#XMLID_00000164480567612247488540000010493267363260064132_);}
	.st86{fill:url(#XMLID_00000150814650384960121240000015576032082445038270_);}
	.st87{fill:url(#XMLID_00000061430074835786726260000010542413579404187550_);}
	.st88{fill:url(#XMLID_00000148636981581937038330000011052120144734304410_);}
	.st89{fill:url(#XMLID_00000047762097919123255690000015075721915121006996_);}
	.st90{fill:url(#XMLID_00000079480870346742150480000010485058789774779801_);}
	.st91{fill:url(#XMLID_00000150798785454122867610000005831530315074840967_);}
	.st92{fill:url(#XMLID_00000172418209408742078970000015215484998542484382_);}
	.st93{fill:url(#XMLID_00000041281242769320450540000011483684663719994754_);}
	.st94{fill:url(#XMLID_00000154423918790242039900000017813606686548859325_);}
	.st95{fill:#3999FF;}
	.st96{fill:#F69220;}
	.st97{fill:#8F0222;}
	.st98{fill:url(#SVGID_00000162335664983228466180000001943407552327574407_);}
	.st99{fill-rule:evenodd;clip-rule:evenodd;fill:url(#SVGID_00000047051105358616447410000005561326298648403596_);}
	.st100{fill-rule:evenodd;clip-rule:evenodd;fill:url(#SVGID_00000063625443132996902070000015299486476200350109_);}
</style>
<g>
	
		<radialGradient id="SVGID_00000096017421007912434220000010326747554629955725_" cx="175.0003" cy="112.6283" r="65.0158" gradientUnits="userSpaceOnUse">
		<stop  offset="0" style="stop-color:#4DFF3F"/>
		<stop  offset="0.3856" style="stop-color:#4CFD41"/>
		<stop  offset="0.5246" style="stop-color:#4AF647"/>
		<stop  offset="0.6236" style="stop-color:#46EB51"/>
		<stop  offset="0.7037" style="stop-color:#41DA60"/>
		<stop  offset="0.7723" style="stop-color:#3AC474"/>
		<stop  offset="0.833" style="stop-color:#31A88C"/>
		<stop  offset="0.888" style="stop-color:#2688A9"/>
		<stop  offset="0.9384" style="stop-color:#1A62CB"/>
		<stop  offset="0.9834" style="stop-color:#0D39F0"/>
		<stop  offset="1" style="stop-color:#0728FF"/>
	</radialGradient>
	<path style="fill:url(#SVGID_00000096017421007912434220000010326747554629955725_);" d="M212.63,71.52v48.58h-0.57V71.52
		c0-20.44-16.63-37.07-37.07-37.07c-20.44,0-37.07,16.63-37.07,37.07v48.58h-0.57V71.52c0-20.75,16.88-37.63,37.63-37.63
		C195.75,33.88,212.63,50.77,212.63,71.52z M135.38,120.1V71.52c0-21.84,17.77-39.62,39.62-39.62c21.84,0,39.62,17.77,39.62,39.62
		v48.58h1.51V71.52c0-22.68-18.45-41.13-41.13-41.13s-41.12,18.45-41.12,41.13v48.58H135.38z M143.93,174.93h0.68
		c6.71,9.59,17.83,15.87,30.39,15.87c12.56,0,23.68-6.29,30.39-15.87h0.68c-6.78,9.92-18.18,16.44-31.07,16.44
		C162.11,191.37,150.71,184.85,143.93,174.93z M208.44,174.93c-7.03,11.06-19.39,18.42-33.44,18.42c-14.05,0-26.41-7.36-33.44-18.42
		h-1.79c7.21,11.93,20.3,19.93,35.23,19.93c14.93,0,28.02-8,35.23-19.93H208.44z"/>
	
		<radialGradient id="SVGID_00000092450279801579917960000006918402228030060941_" cx="175" cy="85.3142" r="48.2921" gradientUnits="userSpaceOnUse">
		<stop  offset="0" style="stop-color:#4DFF3F"/>
		<stop  offset="0.1153" style="stop-color:#4BFA3D"/>
		<stop  offset="0.2583" style="stop-color:#46EA39"/>
		<stop  offset="0.4159" style="stop-color:#3DD131"/>
		<stop  offset="0.5841" style="stop-color:#31AE25"/>
		<stop  offset="0.7606" style="stop-color:#218117"/>
		<stop  offset="0.9415" style="stop-color:#0E4A06"/>
		<stop  offset="1" style="stop-color:#073700"/>
	</radialGradient>
	<path style="fill:url(#SVGID_00000092450279801579917960000006918402228030060941_);" d="M191.79,122.45
		c-3.98,0-5.5-2.12-5.52-3.45l0-0.24l-0.08,0.01l0.08-0.38c0.89-4.43,5.64-6.16,8.39-6.8l0.34-0.08l0.02,0.35
		c0.14,1.96-0.71,3.66-2.46,4.92c-1.26,0.91-2.95,1.54-4.82,1.83c1.07-0.07,2.05-0.1,2.97-0.1c4.15,0,6.74,0.7,7.71,2.08l0.22,0.31
		l-0.35,0.14C195.86,121.98,193.67,122.45,191.79,122.45C191.79,122.45,191.79,122.45,191.79,122.45z M158.21,122.45
		c-1.88,0-4.07-0.48-6.5-1.42l-0.35-0.14l0.22-0.31c0.96-1.38,3.56-2.08,7.71-2.08c0.93,0,1.91,0.03,2.97,0.1
		c-1.88-0.29-3.56-0.92-4.82-1.83c-1.75-1.26-2.6-2.96-2.46-4.92l0.02-0.35l0.34,0.08c2.75,0.64,7.5,2.36,8.39,6.8l0.08,0.38
		l-0.08-0.01l0,0.24C163.71,120.34,162.19,122.45,158.21,122.45C158.21,122.45,158.21,122.45,158.21,122.45z M202.34,120.53
		c-3.93,0-6.98-2.2-7.77-3.21l-0.27-0.35l0.43-0.12c0.3-0.08,0.65-0.17,1.04-0.25l0.02-0.25c0.16-1.86,0.76-3.65,1.68-5.04
		c1.2-1.8,2.88-2.95,5.02-3.41l0.27-0.06l0.08,0.26c0.55,1.89-0.21,6.24-5.78,8.26c1.32-0.2,2.88-0.35,4.42-0.35
		c2.31,0,5.46,0.32,7.37,1.87l0.31,0.25l-0.32,0.23C206.78,119.81,204.6,120.53,202.34,120.53
		C202.34,120.53,202.34,120.53,202.34,120.53z M147.66,120.53c-2.26,0-4.44-0.73-6.48-2.16l-0.32-0.23l0.31-0.25
		c1.91-1.54,5.06-1.87,7.37-1.87c1.54,0,3.1,0.14,4.42,0.35c-5.57-2.02-6.33-6.37-5.78-8.26l0.08-0.26l0.27,0.06
		c2.14,0.46,3.82,1.61,5.02,3.41c0.92,1.39,1.52,3.18,1.68,5.04l0.02,0.25c0.39,0.08,0.74,0.16,1.04,0.25l0.43,0.12l-0.27,0.35
		C154.64,118.33,151.59,120.53,147.66,120.53C147.66,120.53,147.66,120.53,147.66,120.53z M208.19,116c-2.69,0-4.91-1.1-5.75-1.83
		l-0.33-0.29l0.39-0.2c0.3-0.15,0.67-0.32,1.12-0.5l-0.02-0.2c-0.18-1.73,0.13-3.88,0.81-5.61c0.6-1.53,1.78-3.48,3.96-4.07
		l0.23-0.06l0.11,0.21c0.46,0.87,0.77,2.57,0.16,4.5c-0.43,1.35-1.46,3.22-3.93,4.75c1.66-0.55,3.81-1.03,5.99-1.03
		c1.7,0,3.16,0.3,4.35,0.9l0.38,0.19l-0.32,0.29C213.2,115.01,210.8,116,208.19,116C208.19,116,208.19,116,208.19,116z M141.81,116
		c-2.61,0-5.01-0.99-7.14-2.94l-0.32-0.29l0.38-0.19c1.18-0.6,2.65-0.9,4.35-0.9c2.18,0,4.32,0.48,5.99,1.03
		c-2.47-1.54-3.5-3.4-3.93-4.75c-0.61-1.93-0.3-3.63,0.16-4.5l0.11-0.21l0.23,0.06c2.18,0.6,3.35,2.54,3.96,4.07
		c0.68,1.72,0.99,3.87,0.81,5.61l-0.02,0.2c0.44,0.18,0.82,0.35,1.12,0.5l0.39,0.2l-0.33,0.29C146.73,114.91,144.5,116,141.81,116
		C141.81,116,141.81,116,141.81,116z M214.89,110.44c-2.27,0-3.96-0.86-4.57-1.24l-0.33-0.2l0.28-0.27
		c0.17-0.16,0.35-0.32,0.53-0.47l-0.05-0.14c-1.15-3.23-0.5-8.48,2.98-11.82l0.27-0.26l0.19,0.33c1.5,2.6,1.13,5.17,0.56,6.87
		c-0.46,1.37-1.24,2.69-2.19,3.76c2.51-1.52,5.34-2.22,7.42-2.22c0.95,0,1.77,0.14,2.43,0.41l0.32,0.13l-0.17,0.29
		C220.2,109.6,217.09,110.44,214.89,110.44C214.89,110.44,214.89,110.44,214.89,110.44z M135.11,110.44c-2.2,0-5.31-0.84-7.66-4.83
		l-0.17-0.29l0.32-0.13c0.66-0.27,1.48-0.41,2.43-0.41c2.08,0,4.92,0.7,7.43,2.22c-0.95-1.07-1.73-2.39-2.19-3.76
		c-0.57-1.7-0.94-4.27,0.56-6.87l0.19-0.33l0.27,0.26c3.48,3.34,4.14,8.58,2.98,11.82l-0.05,0.14c0.18,0.15,0.35,0.31,0.53,0.47
		l0.28,0.27l-0.33,0.2C139.07,109.57,137.38,110.44,135.11,110.44C135.11,110.44,135.11,110.44,135.11,110.44z M216.58,102.66
		c1.03-1.42,6.8-6.63,10.25-6.63c0.05,0,0.09,0,0.14,0l0.27,0.01l0.01,0.27c0.08,1.93-0.41,3.47-1.46,4.58
		c-2.09,2.2-5.87,2.22-8.36,2.23c-0.21,0-0.42,0-0.61,0l-0.59,0.01L216.58,102.66z M133.18,103.13c-0.19,0-0.39,0-0.61,0
		c-2.5-0.01-6.27-0.04-8.36-2.23c-1.05-1.11-1.54-2.65-1.46-4.58l0.01-0.27l0.27-0.01c0.05,0,0.09,0,0.14,0
		c3.45,0,9.22,5.21,10.25,6.63l0.35,0.48L133.18,103.13z M216.82,101.71c-1.42-3.45-1.66-8.66,1.15-11.96l0.21-0.25l0.23,0.24
		c0.73,0.77,1.56,2.61,1.67,4.82c0.09,1.88-0.31,4.67-2.78,7.25l-0.31,0.33L216.82,101.71z M132.7,101.8
		c-2.47-2.58-2.87-5.37-2.78-7.25c0.11-2.21,0.94-4.04,1.67-4.82l0.23-0.24l0.21,0.25c2.81,3.3,2.57,8.52,1.15,11.96l-0.17,0.42
		L132.7,101.8z M222.02,95.43c-0.07,0-0.14,0-0.2,0l-0.47-0.01l0.21-0.42c0.17-0.34,0.37-0.71,0.61-1.11l-0.21-0.29
		c-1.71-2.38-3.67-6.07-0.89-10.67l0.15-0.25l0.25,0.15c1.43,0.85,2.27,2.62,2.35,4.97c0.06,1.68-0.29,3.49-0.94,4.94
		c1.78-2.66,4.64-5.8,7.76-6.19l0.32-0.04l0.01,0.32c0.09,2.31-0.63,4.34-2.1,5.87C227.22,94.44,224.72,95.43,222.02,95.43
		C222.02,95.43,222.02,95.43,222.02,95.43z M127.98,95.43c-2.7,0-5.2-0.99-6.86-2.72c-1.47-1.53-2.19-3.56-2.1-5.87l0.01-0.32
		l0.32,0.04c3.13,0.39,5.98,3.52,7.76,6.19c-0.64-1.44-0.99-3.25-0.94-4.94c0.08-2.35,0.91-4.12,2.35-4.97l0.25-0.15l0.15,0.25
		c2.78,4.6,0.82,8.29-0.89,10.67l-0.21,0.29c0.24,0.4,0.44,0.78,0.61,1.11l0.21,0.42l-0.47,0.01
		C128.12,95.43,128.05,95.43,127.98,95.43z M225.21,86.6c0.04-0.14,0.07-0.28,0.11-0.42c0.04-0.15,0.08-0.3,0.12-0.46l-0.17-0.14
		c-1.32-1.07-2.54-2.59-3.26-4.08c-0.94-1.93-1.08-3.79-0.41-5.37l0.11-0.25l0.26,0.09c0.93,0.32,2.28,1.38,3.19,3.04
		c0.56,1.03,1.1,2.57,0.95,4.51c0.76-2.11,2.05-4.45,4.64-5.83l0.32-0.17l0.1,0.35c0.76,2.6-0.02,4.59-0.81,5.8
		c-1.31,2.01-3.41,3.12-4.81,3.3l-0.43,0.06L225.21,86.6z M124.46,86.97c-1.39-0.18-3.49-1.29-4.81-3.3
		c-0.79-1.21-1.58-3.21-0.81-5.8l0.1-0.35l0.32,0.17c2.59,1.38,3.88,3.71,4.64,5.83c-0.16-1.94,0.39-3.48,0.95-4.51
		c0.9-1.66,2.25-2.72,3.19-3.04l0.26-0.09l0.11,0.25c0.67,1.58,0.53,3.44-0.41,5.37c-0.72,1.49-1.94,3.01-3.26,4.08l-0.17,0.14
		c0.04,0.16,0.08,0.31,0.12,0.46c0.04,0.15,0.07,0.29,0.11,0.42l0.11,0.42L124.46,86.97z M226.4,78.74
		c0.02-0.23,0.05-0.48,0.08-0.74l-0.23-0.13c-1.61-0.92-2.83-2.02-3.62-3.29c-1.09-1.74-1.4-3.79-0.93-6.1l0.06-0.31l0.31,0.09
		c0.78,0.22,2.09,1.16,3.12,2.71c0.78,1.17,1.64,3.04,1.58,5.58c0.67-2.72,2.14-6,4.16-6.66l0.28-0.09l0.09,0.28
		c0.73,2.22,0.68,4.15-0.15,5.71c-1.15,2.16-3.45,3.01-4.38,3.27l-0.41,0.12L226.4,78.74z M123.22,79.05
		c-0.93-0.26-3.23-1.11-4.38-3.27c-0.83-1.57-0.89-3.49-0.15-5.71l0.09-0.28l0.28,0.09c2.03,0.66,3.5,3.95,4.16,6.66
		c-0.06-2.54,0.8-4.41,1.58-5.57c1.04-1.54,2.34-2.48,3.12-2.71l0.31-0.09l0.06,0.31c0.48,2.3,0.16,4.36-0.93,6.1
		c-0.8,1.27-2.02,2.38-3.62,3.29L123.51,78c0.04,0.26,0.07,0.51,0.08,0.74l0.03,0.42L123.22,79.05z M226.63,72.13
		c-0.04-0.54-0.07-1.06-0.09-1.56l-0.15-0.07c-1.25-0.58-2.76-2.05-3.84-3.75c-1.28-2.02-1.82-4.07-1.52-5.78l0.06-0.33l0.32,0.1
		c2.09,0.63,4.48,3.79,5.2,7.22c0.26-3.15,1.21-5.58,2.85-7.27l0.35-0.36l0.14,0.48c0.99,3.28,0.96,6.11-0.08,8.39
		c-0.99,2.17-2.52,3.02-2.81,3.16l-0.39,0.19L226.63,72.13z M122.94,72.37c-0.3-0.15-1.83-0.99-2.81-3.16
		c-1.04-2.28-1.06-5.11-0.08-8.39l0.14-0.48l0.35,0.36c1.63,1.68,2.59,4.11,2.85,7.26c0.72-3.43,3.11-6.59,5.2-7.22l0.32-0.1
		l0.06,0.33c0.3,1.71-0.24,3.76-1.52,5.78c-1.08,1.7-2.59,3.17-3.84,3.75l-0.15,0.07c-0.01,0.51-0.04,1.03-0.09,1.56l-0.04,0.44
		L122.94,72.37z M226.47,65.37c-2.52-2.42-4.55-9.29-4.74-15.97l-0.02-0.76l0.53,0.55c5.92,6.15,6.17,10.87,4.72,16.05l-0.13,0.48
		L226.47,65.37z M123.04,65.24c-1.45-5.19-1.2-9.9,4.72-16.05l0.53-0.55l-0.02,0.76c-0.19,6.68-2.23,13.55-4.74,15.97l-0.36,0.34
		L123.04,65.24z M222.02,49.39c5.49,5.7,6.21,10.19,4.65,15.77C224.25,62.83,222.21,56.11,222.02,49.39 M127.98,49.39
		c-0.19,6.72-2.23,13.43-4.65,15.77C121.77,59.58,122.49,55.09,127.98,49.39 M229.66,60.9c2.25,7.5-1.51,10.59-2.74,11.21
		C226.73,69.72,226.49,64.16,229.66,60.9 M120.34,60.9c3.18,3.27,2.93,8.83,2.74,11.21C121.84,71.49,118.09,68.39,120.34,60.9
		 M221.32,61.02c2.36,0.71,5.34,5.06,5.2,9.21C224.18,69.15,220.68,64.67,221.32,61.02 M128.68,61.02c0.64,3.65-2.86,8.14-5.2,9.21
		C123.34,66.08,126.32,61.73,128.68,61.02 M221.99,68.54c1.32,0.38,5.09,3.5,4.41,9.07C223.93,76.2,220.96,73.53,221.99,68.54
		 M128.01,68.54c1.03,4.99-1.93,7.66-4.41,9.07C122.91,72.03,126.69,68.92,128.01,68.54 M231.03,70.15
		c2.01,6.12-2.62,8.12-4.33,8.61C226.9,76.15,228.55,70.97,231.03,70.15 M118.97,70.15c2.49,0.81,4.13,6,4.33,8.61
		C121.59,78.28,116.96,76.28,118.97,70.15 M221.87,76.24c1.79,0.61,5.08,4.09,3.58,9.11C223.18,83.5,220.43,79.61,221.87,76.24
		 M128.13,76.24c1.44,3.38-1.31,7.27-3.58,9.11C123.06,80.33,126.34,76.85,128.13,76.24 M230.88,77.94c1.47,5-2.83,8.4-5.38,8.73
		C226.12,84.27,226.99,80.01,230.88,77.94 M119.12,77.94c3.88,2.07,4.76,6.33,5.38,8.73C121.96,86.34,117.65,82.94,119.12,77.94
		 M221.32,83.09c2.96,1.76,2.63,7.41,0.88,10.34C220.22,90.69,218.78,87.29,221.32,83.09 M128.68,83.09
		c2.54,4.2,1.1,7.61-0.88,10.34C126.05,90.49,125.72,84.85,128.68,83.09 M230.68,86.85c0.22,5.49-4.27,8.29-8.67,8.29
		c-0.07,0-0.13,0-0.2,0C223.17,92.45,226.75,87.34,230.68,86.85 M119.32,86.85c3.94,0.49,7.52,5.59,8.86,8.28c-0.07,0-0.13,0-0.2,0
		C123.58,95.14,119.09,92.34,119.32,86.85 M218.2,89.93c1.32,1.4,3.3,7.06-1.11,11.66C215.73,98.28,215.43,93.18,218.2,89.93
		 M131.8,89.93c2.77,3.25,2.47,8.35,1.11,11.66C128.51,96.99,130.48,91.34,131.8,89.93 M226.83,96.32c0.04,0,0.08,0,0.13,0
		c0.3,6.84-6.8,6.47-10.14,6.51C217.85,101.41,223.53,96.32,226.83,96.32 M123.17,96.32c3.29,0,8.98,5.09,10.01,6.51
		c-3.34-0.04-10.44,0.33-10.14-6.51C123.09,96.32,123.13,96.32,123.17,96.32 M213.93,96.52c2.54,4.4-0.14,9.43-2.91,11.51
		C209.97,105.07,210.39,99.92,213.93,96.52 M136.07,96.52c3.54,3.4,3.96,8.56,2.91,11.51C136.22,105.95,133.53,100.92,136.07,96.52
		 M208.44,103.59c0.88,1.69,1.04,6.48-4.55,9.36C203.57,109.87,204.8,104.59,208.44,103.59 M141.56,103.59
		c3.64,1,4.88,6.28,4.55,9.36C140.51,110.07,140.68,105.28,141.56,103.59 M219.98,105.07c0.89,0,1.69,0.13,2.32,0.38
		c-2.11,3.58-4.92,4.68-7.4,4.68c-1.77,0-3.37-0.56-4.42-1.19C213.16,106.4,217.09,105.07,219.98,105.07 M130.02,105.07
		c2.89,0,6.81,1.33,9.51,3.87c-1.05,0.63-2.65,1.19-4.42,1.19c-2.48,0-5.3-1.11-7.4-4.68C128.34,105.2,129.13,105.07,130.02,105.07
		 M202.55,108.2c0.5,1.7-0.14,6.34-6.47,8.19C196.35,113.25,198.01,109.18,202.55,108.2 M147.45,108.2c4.54,0.98,6.2,5.05,6.47,8.19
		C147.59,114.54,146.96,109.9,147.45,108.2 M194.73,111.88c0.28,3.99-3.79,6.24-8.17,6.57
		C187.37,114.43,191.49,112.63,194.73,111.88 M155.27,111.88c3.23,0.75,7.36,2.54,8.17,6.57
		C159.06,118.13,154.99,115.88,155.27,111.88 M210.92,111.97c1.51,0,2.97,0.24,4.21,0.87c-2.37,2.17-4.82,2.87-6.94,2.87
		c-2.69,0-4.83-1.12-5.56-1.76C204.36,113.07,207.72,111.97,210.92,111.97 M139.08,111.97c3.19,0,6.56,1.1,8.29,1.98
		c-0.73,0.64-2.87,1.76-5.56,1.76c-2.12,0-4.57-0.7-6.94-2.87C136.11,112.22,137.58,111.97,139.08,111.97 M201.47,116.33
		c2.71,0,5.5,0.44,7.19,1.8c-2.21,1.56-4.37,2.11-6.31,2.11c-3.87,0-6.84-2.21-7.54-3.09C196.2,116.75,198.8,116.33,201.47,116.33
		 M148.53,116.33c2.67,0,5.27,0.43,6.66,0.82c-0.7,0.88-3.67,3.09-7.54,3.09c-1.94,0-4.1-0.56-6.31-2.11
		C143.03,116.77,145.82,116.33,148.53,116.33 M190.71,118.81c3.01,0,6.36,0.37,7.46,1.95c-2.6,1.01-4.72,1.4-6.39,1.4
		c-3.63,0-5.2-1.84-5.22-3.16C187.59,118.91,189.1,118.81,190.71,118.81 M159.29,118.81c1.61,0,3.12,0.11,4.14,0.19
		c-0.02,1.32-1.58,3.16-5.22,3.16c-1.67,0-3.79-0.39-6.39-1.4C152.93,119.18,156.28,118.81,159.29,118.81 M221.39,47.88l0.04,1.53
		c0.09,3.28,0.63,6.71,1.51,9.68c0.36,1.21,0.77,2.32,1.21,3.28c-0.86-0.97-1.79-1.65-2.67-1.92l-0.64-0.19l-0.12,0.66
		c-0.31,1.78,0.24,3.91,1.56,5.99c1.12,1.76,2.63,3.24,3.95,3.85c0.02,0.45,0.04,0.92,0.08,1.39l0.03,0.4
		c-0.28-0.69-0.61-1.28-0.93-1.75c-1.08-1.6-2.46-2.59-3.28-2.83l-0.61-0.18l-0.13,0.62c-0.49,2.38-0.17,4.51,0.97,6.31
		c0.82,1.31,2.08,2.45,3.73,3.39l0.06,0.03c-0.03,0.19-0.04,0.38-0.06,0.56l-0.06,0.85l0.82-0.23c0.97-0.27,3.36-1.16,4.56-3.42
		c0.87-1.64,0.93-3.64,0.17-5.94l-0.18-0.56l-0.56,0.18c-0.46,0.15-0.88,0.42-1.27,0.76c0.2-0.31,0.38-0.65,0.56-1.02
		c1.07-2.35,1.1-5.24,0.09-8.6l-0.29-0.96l-0.7,0.72c-0.53,0.55-0.99,1.17-1.38,1.86c0.24-1.86,0.13-3.55-0.3-5.18
		c-0.72-2.71-2.34-5.31-5.11-8.19L221.39,47.88L221.39,47.88z M226.5,66.43c-0.12-0.34-0.25-0.68-0.41-1.02
		c0.06,0.06,0.12,0.12,0.17,0.17l0.33,0.32C226.56,66.08,226.53,66.25,226.5,66.43L226.5,66.43z M226.52,72.96l0.67-0.33
		c0.16-0.08,0.65-0.35,1.23-0.88c-0.38,0.59-0.7,1.22-0.95,1.8c-0.18,0.41-0.34,0.83-0.49,1.27
		C226.88,74.14,226.72,73.52,226.52,72.96L226.52,72.96z M128.61,47.88l-1.06,1.1c-2.77,2.88-4.39,5.48-5.11,8.19
		c-0.43,1.63-0.53,3.32-0.3,5.18c-0.39-0.7-0.85-1.32-1.38-1.86l-0.7-0.72l-0.29,0.96c-1.01,3.36-0.98,6.25,0.09,8.6
		c0.17,0.38,0.36,0.72,0.56,1.03c-0.38-0.34-0.8-0.61-1.27-0.76l-0.56-0.18l-0.18,0.56c-0.76,2.3-0.7,4.3,0.17,5.94
		c1.2,2.26,3.59,3.14,4.56,3.42l0.82,0.23l-0.06-0.85c-0.01-0.18-0.03-0.37-0.06-0.56l0.06-0.03c1.65-0.94,2.9-2.08,3.73-3.39
		c1.13-1.81,1.46-3.93,0.97-6.31l-0.13-0.62l-0.61,0.18c-0.83,0.24-2.21,1.22-3.28,2.83c-0.32,0.47-0.65,1.06-0.93,1.75l0.03-0.4
		c0.04-0.48,0.07-0.94,0.08-1.39c1.32-0.61,2.83-2.08,3.95-3.85c1.32-2.08,1.88-4.21,1.56-5.99l-0.12-0.66l-0.64,0.19
		c-0.87,0.26-1.81,0.94-2.67,1.92c0.44-0.96,0.85-2.06,1.21-3.28c0.88-2.97,1.42-6.41,1.51-9.68L128.61,47.88L128.61,47.88z
		 M123.41,65.9l0.33-0.32c0.06-0.06,0.12-0.11,0.17-0.17c-0.15,0.34-0.29,0.68-0.41,1.02C123.47,66.25,123.44,66.08,123.41,65.9
		L123.41,65.9z M123.02,74.82c-0.15-0.44-0.32-0.87-0.49-1.27c-0.25-0.57-0.57-1.21-0.95-1.8c0.58,0.54,1.07,0.8,1.23,0.88
		l0.67,0.33C123.28,73.52,123.12,74.14,123.02,74.82L123.02,74.82z M221.54,75.5l-0.22,0.51c-0.71,1.67-0.57,3.61,0.41,5.62
		c0.75,1.54,1.97,3.07,3.34,4.18l0.03,0.02c-0.02,0.09-0.05,0.19-0.07,0.28c-0.04,0.15-0.07,0.29-0.11,0.42l-0.22,0.85l0.87-0.11
		c1.46-0.19,3.65-1.34,5.02-3.44c0.83-1.27,1.64-3.34,0.85-6.05l-0.2-0.7l-0.64,0.34c-2.12,1.13-3.39,2.87-4.22,4.61
		c-0.13-1.32-0.54-2.39-0.97-3.18c-1.01-1.84-2.43-2.86-3.35-3.18L221.54,75.5L221.54,75.5z M128.46,75.5l-0.52,0.18
		c-0.92,0.31-2.34,1.33-3.35,3.18c-0.43,0.79-0.85,1.86-0.97,3.18c-0.82-1.75-2.1-3.48-4.22-4.61l-0.64-0.34l-0.2,0.7
		c-0.79,2.71,0.02,4.78,0.85,6.05c1.37,2.09,3.56,3.25,5.02,3.44l0.87,0.11l-0.22-0.85c-0.03-0.14-0.07-0.28-0.11-0.42
		c-0.02-0.09-0.05-0.18-0.07-0.28l0.03-0.02c1.37-1.11,2.59-2.64,3.34-4.18c0.98-2.01,1.12-3.95,0.41-5.62L128.46,75.5L128.46,75.5z
		 M128.88,82.28l-0.5,0.3c-1.52,0.91-2.41,2.76-2.49,5.22c-0.04,1.07,0.09,2.18,0.34,3.23c-1.79-2.26-4.22-4.43-6.84-4.76
		l-0.64-0.08l-0.03,0.64c-0.1,2.4,0.66,4.5,2.18,6.09c1.72,1.79,4.29,2.81,7.08,2.81c0.07,0,0.14,0,0.21,0l0.94-0.02l-0.42-0.84
		c-0.15-0.29-0.32-0.62-0.52-0.96l0.09-0.13c1.76-2.44,3.78-6.24,0.9-11L128.88,82.28L128.88,82.28z M221.12,82.28l-0.3,0.5
		c-2.87,4.75-0.86,8.55,0.9,11l0.09,0.13c-0.2,0.34-0.37,0.67-0.52,0.96l-0.42,0.84l0.94,0.02c0.07,0,0.14,0,0.21,0
		c2.78,0,5.36-1.02,7.08-2.81c1.53-1.59,2.28-3.69,2.18-6.09l-0.03-0.64l-0.64,0.08c-2.62,0.33-5.05,2.5-6.84,4.76
		c0.26-1.05,0.38-2.16,0.34-3.23c-0.08-2.46-0.97-4.31-2.49-5.22L221.12,82.28L221.12,82.28z M218.17,89.05l-0.43,0.5
		c-1.35,1.58-2.12,3.71-2.24,6.16c-0.1,2.06,0.27,4.23,1.04,6.11l0.11,0.28c-0.13,0.15-0.24,0.28-0.32,0.39l-0.7,0.96l1.18-0.02
		c0.19,0,0.39,0,0.6,0c2.55-0.01,6.4-0.04,8.58-2.33c1.11-1.17,1.63-2.78,1.54-4.8l-0.02-0.54l-0.54-0.02c-0.05,0-0.1,0-0.15,0
		c-1.95,0-4.45,1.54-6.21,2.84c-0.48,0.35-0.95,0.72-1.39,1.09c1.03-1.91,1.22-3.75,1.15-5.13c-0.11-2.28-0.99-4.19-1.75-5.01
		L218.17,89.05L218.17,89.05z M131.83,89.05l-0.45,0.48c-0.76,0.81-1.64,2.73-1.75,5.01c-0.07,1.38,0.12,3.22,1.15,5.13
		c-0.44-0.37-0.91-0.74-1.39-1.09c-1.75-1.3-4.25-2.84-6.21-2.84c-0.05,0-0.1,0-0.15,0l-0.54,0.02l-0.02,0.54
		c-0.09,2.02,0.43,3.63,1.54,4.8c2.18,2.29,6.03,2.31,8.58,2.33c0.21,0,0.41,0,0.6,0l1.18,0.02l-0.7-0.96
		c-0.08-0.11-0.19-0.25-0.32-0.39l0.11-0.28c0.77-1.87,1.14-4.04,1.04-6.11c-0.12-2.45-0.89-4.58-2.24-6.16L131.83,89.05
		L131.83,89.05z M214.06,95.57l-0.54,0.52c-2.15,2.06-3.01,4.53-3.35,6.23c-0.41,2.05-0.31,4.18,0.27,5.85
		c-0.13,0.11-0.26,0.23-0.38,0.35l-0.57,0.54l0.67,0.4c0.64,0.38,2.38,1.28,4.73,1.28c2.27,0,5.49-0.86,7.91-4.97l0.35-0.59
		l-0.63-0.26c-0.69-0.28-1.55-0.43-2.54-0.43c-1.78,0-4.11,0.5-6.32,1.58c0.58-0.84,1.05-1.78,1.37-2.73
		c0.59-1.75,0.97-4.41-0.58-7.11L214.06,95.57L214.06,95.57z M135.94,95.57l-0.38,0.65c-1.56,2.7-1.18,5.36-0.58,7.11
		c0.32,0.96,0.8,1.89,1.37,2.73c-2.22-1.08-4.54-1.58-6.32-1.58c-0.99,0-1.85,0.14-2.54,0.43l-0.63,0.26l0.35,0.59
		c2.42,4.11,5.64,4.97,7.91,4.97c2.35,0,4.09-0.89,4.73-1.28l0.67-0.4l-0.57-0.54c-0.13-0.12-0.25-0.23-0.38-0.35
		c0.58-1.67,0.68-3.8,0.27-5.85c-0.34-1.7-1.2-4.17-3.35-6.23L135.94,95.57L135.94,95.57z M208.75,102.89l-0.46,0.13
		c-1.82,0.5-3.25,1.97-4.16,4.25c-0.69,1.76-1.01,3.95-0.83,5.72c-0.34,0.14-0.65,0.29-0.93,0.43l-0.78,0.4l0.65,0.58
		c0.87,0.77,3.17,1.91,5.95,1.91c1.23,0,2.44-0.22,3.59-0.66c1.33-0.5,2.59-1.3,3.76-2.36l0.63-0.58l-0.76-0.39
		c-1.23-0.62-2.73-0.94-4.48-0.94c-1.48,0-3.03,0.23-4.46,0.58c1.58-1.34,2.33-2.8,2.69-3.92c0.64-2.01,0.3-3.8-0.18-4.73
		L208.75,102.89L208.75,102.89z M141.25,102.89l-0.22,0.42c-0.48,0.92-0.82,2.71-0.18,4.73c0.35,1.12,1.1,2.57,2.69,3.92
		c-1.43-0.35-2.98-0.58-4.46-0.58c-1.75,0-3.25,0.31-4.48,0.94l-0.76,0.39l0.63,0.58c1.16,1.06,2.42,1.86,3.75,2.36
		c1.15,0.44,2.36,0.66,3.59,0.66c2.77,0,5.08-1.14,5.95-1.91l0.65-0.58l-0.78-0.4c-0.28-0.14-0.6-0.29-0.93-0.43
		c0.18-1.77-0.14-3.96-0.83-5.72c-0.9-2.28-2.34-3.75-4.16-4.25L141.25,102.89L141.25,102.89z M202.96,107.51l-0.54,0.12
		c-2.21,0.48-3.96,1.67-5.2,3.54c-0.95,1.43-1.57,3.27-1.73,5.18l0,0.03c-0.31,0.07-0.6,0.14-0.84,0.21l-0.85,0.24l0.55,0.7
		c0.25,0.32,0.72,0.75,1.36,1.2c-0.13-0.03-0.27-0.07-0.41-0.1c-1.23-0.26-2.76-0.4-4.57-0.4c-0.08,0-0.16,0-0.24,0
		c0.85-0.32,1.61-0.72,2.27-1.19c1.83-1.32,2.73-3.11,2.58-5.18l-0.05-0.69l-0.67,0.16c-2.02,0.47-3.82,1.21-5.19,2.14
		c-1.88,1.28-3.03,2.92-3.42,4.88l-0.15,0.76l0.15-0.01c0.04,0.89,0.6,1.8,1.49,2.46c0.74,0.55,2.1,1.2,4.32,1.2
		c1.92,0,4.14-0.48,6.6-1.44l0.7-0.27l-0.43-0.62c-0.07-0.1-0.15-0.2-0.24-0.3c1.15,0.42,2.48,0.71,3.92,0.71
		c2.32,0,4.56-0.75,6.65-2.22l0.64-0.45l-0.61-0.49c-1.98-1.6-5.2-1.93-7.56-1.93c-0.88,0-1.73,0.04-2.53,0.11
		c1.86-1.03,2.89-2.31,3.46-3.33c0.99-1.78,1.01-3.53,0.73-4.49L202.96,107.51L202.96,107.51z M147.04,107.51l-0.15,0.53
		c-0.28,0.96-0.26,2.71,0.73,4.49c0.57,1.02,1.6,2.29,3.46,3.33c-0.8-0.07-1.66-0.11-2.53-0.11c-2.36,0-5.58,0.34-7.56,1.93
		l-0.61,0.49l0.64,0.45c2.09,1.47,4.33,2.22,6.65,2.22c1.44,0,2.77-0.29,3.92-0.71c-0.09,0.1-0.17,0.2-0.24,0.3l-0.43,0.62l0.7,0.27
		c2.46,0.96,4.68,1.44,6.6,1.44c2.22,0,3.57-0.65,4.32-1.2c0.9-0.66,1.45-1.58,1.49-2.46l0.15,0.01l-0.15-0.76
		c-0.39-1.96-1.55-3.61-3.42-4.88c-1.37-0.93-3.17-1.67-5.19-2.14l-0.67-0.16l-0.05,0.69c-0.15,2.07,0.75,3.86,2.58,5.18
		c0.66,0.47,1.42,0.87,2.27,1.19c-0.08,0-0.16,0-0.24,0c-1.81,0-3.35,0.13-4.57,0.4c-0.14,0.03-0.28,0.06-0.41,0.1
		c0.64-0.45,1.11-0.88,1.36-1.2l0.55-0.7l-0.85-0.24c-0.24-0.07-0.53-0.14-0.84-0.21l0-0.03c-0.17-1.9-0.78-3.74-1.73-5.18
		c-1.24-1.87-2.99-3.06-5.2-3.54L147.04,107.51L147.04,107.51z"/>
	<path class="st55" d="M205.28,77.53l-0.77-0.36l2.15-2.13c0.56-0.57,0.88-1.31,0.88-2.11c0-0.79-0.31-1.54-0.87-2.1l-0.04-0.03
		c-0.28-0.29-0.62-0.51-0.99-0.66l-0.58-0.23l0.26-0.57c0.18-0.38,0.26-0.79,0.26-1.23c0-0.79-0.3-1.54-0.87-2.1l-0.04-0.04
		c-0.92-0.93-2.31-1.14-3.48-0.53l-0.57,0.3l-0.25-0.59c-0.15-0.35-0.36-0.67-0.63-0.94l-0.03-0.03c-0.56-0.56-1.3-0.87-2.1-0.87
		s-1.54,0.31-2.1,0.87l-5.47,5.47l-0.35-0.77c-0.4-0.86-1.21-1.47-2.19-1.65c-0.18-0.03-0.36-0.04-0.53-0.04
		c-0.79,0-1.55,0.31-2.09,0.86l-8.1,8.1c-0.7,0.7-1.3,1.46-1.8,2.27c0.25,0.4,0.48,0.81,0.67,1.24c0.52-0.97,1.18-1.86,1.98-2.66
		l8.1-8.1c0.34-0.33,0.79-0.52,1.26-0.52c0.48,0,0.93,0.18,1.27,0.52c0.33,0.34,0.52,0.79,0.52,1.27c0,0.48-0.18,0.92-0.52,1.26
		l-4.1,4.1c-0.17,0.16-0.27,0.45-0.13,0.69v0.02c1.91,3.79,1.18,8.37-1.83,11.38c-0.23,0.23-0.23,0.62,0,0.85
		c0.23,0.23,0.62,0.23,0.85,0c3.17-3.17,4.11-7.89,2.4-12.02l-0.15-0.36l11.09-11.09c0.84-0.78,1.88-0.58,2.49,0.03
		c0.6,0.6,0.81,1.65,0.03,2.49l-7.46,7.46c-0.39,0.43-0.08,0.79-0.01,0.85s0.43,0.38,0.86,0l9.02-9.03
		c0.51-0.51,1.24-0.65,1.92-0.38c0.69,0.28,1.13,0.94,1.14,1.67c0,0.48-0.19,0.92-0.53,1.25l-9.06,9.01
		c-0.03,0.03-0.06,0.06-0.08,0.09c-0.04,0.07-0.08,0.14-0.09,0.22c-0.01,0.08-0.01,0.16,0,0.23c0.02,0.08,0.05,0.15,0.09,0.22
		c0.02,0.03,0.04,0.07,0.08,0.09c0.12,0.12,0.27,0.18,0.43,0.18c0.16,0,0.31-0.06,0.43-0.18c1.84-1.83,5.85-5.82,7.63-7.59
		c0.51-0.51,1.24-0.65,1.92-0.38c0.69,0.28,1.13,0.94,1.13,1.66c0,0.48-0.18,0.92-0.52,1.25c-2.27,2.26-6.31,6.27-8.56,8.52
		c-0.11,0.11-0.18,0.26-0.18,0.43c0,0.16,0.06,0.31,0.18,0.43c0.13,0.12,0.28,0.18,0.43,0.18c0.16,0,0.31-0.06,0.43-0.18
		c0.08-0.08,0.53-0.53,1.1-1.1c1.11-1.1,2.78-2.77,3.53-3.52c0.5-0.5,1.25-0.64,1.92-0.36c0.67,0.28,1.09,0.91,1.09,1.62
		c0,0.47-0.18,0.91-0.52,1.24l-9.39,9.36l-2.19,2.2c-2.01,2.1-4.93,3.3-8,3.3h-0.01c-3.07,0-5.99-1.19-8-3.29
		c-0.79-0.79-1.45-1.69-1.97-2.65c-0.26-0.48-0.48-0.99-0.67-1.5c-0.18,0.52-0.41,1.02-0.67,1.5c0.19,0.42,0.42,0.83,0.67,1.23
		c0.49,0.81,1.09,1.57,1.8,2.27l0.01,0.01c2.21,2.31,5.44,3.63,8.84,3.63h0.01c3.41-0.01,6.63-1.33,8.85-3.64l0.01-0.01l2.19-2.21
		l9.38-9.35c0.69-0.68,0.99-1.62,0.83-2.59C206.74,78.75,206.14,77.93,205.28,77.53z M175,88.86c-0.18,0.52-0.41,1.02-0.67,1.5
		c-0.52,0.96-1.18,1.85-1.97,2.65c-2.01,2.1-4.93,3.29-8,3.29c0,0,0,0-0.01,0c-3.07,0-5.99-1.2-8-3.3l-2.19-2.2l-9.38-9.36
		c-0.33-0.33-0.52-0.78-0.52-1.24c-0.01-0.71,0.42-1.35,1.08-1.62c0.67-0.28,1.42-0.14,1.92,0.36c0.75,0.74,2.43,2.41,3.53,3.52
		c0.58,0.57,1.03,1.02,1.11,1.1c0.23,0.23,0.61,0.23,0.84,0c0.12-0.12,0.18-0.27,0.18-0.43c0-0.17-0.06-0.32-0.18-0.43
		c-2.26-2.25-6.28-6.27-8.55-8.52c-0.33-0.33-0.52-0.78-0.52-1.25c-0.01-0.73,0.43-1.38,1.12-1.66c0.68-0.28,1.41-0.13,1.92,0.38
		c1.78,1.77,5.8,5.76,7.63,7.59c0.23,0.23,0.62,0.23,0.85,0c0.12-0.12,0.18-0.28,0.18-0.43c0-0.15-0.06-0.31-0.18-0.43l-9.06-9.01
		c-0.33-0.33-0.52-0.78-0.52-1.25c0-0.74,0.44-1.39,1.14-1.67c0.68-0.28,1.41-0.13,1.92,0.38l9.02,9.03c0.43,0.38,0.79,0.07,0.85,0
		s0.38-0.43,0-0.85l-2-1.99c-1.87-1.87-4.2-4.2-5.45-5.46l-0.02-0.02c-0.78-0.84-0.58-1.89,0.03-2.49c0.6-0.61,1.65-0.81,2.49-0.03
		l11.08,11.09l-0.15,0.36c-1.7,4.14-0.77,8.86,2.4,12.02c0.23,0.23,0.62,0.23,0.85,0c0.23-0.23,0.23-0.62,0-0.85
		c-3.01-3.01-3.74-7.59-1.83-11.38l0.01-0.02c0.13-0.24,0.03-0.53-0.13-0.69l-4.1-4.1c-0.33-0.34-0.53-0.79-0.53-1.26
		c0-0.48,0.18-0.93,0.53-1.27c0.33-0.33,0.79-0.52,1.26-0.52c0.48,0,0.93,0.18,1.26,0.52l8.1,8.1c0.79,0.79,1.46,1.69,1.98,2.65
		c0.19-0.42,0.42-0.83,0.67-1.23c-0.49-0.81-1.09-1.57-1.8-2.27l-8.1-8.1c-0.54-0.55-1.29-0.86-2.08-0.86
		c-0.18,0-0.35,0.02-0.53,0.04c-0.97,0.18-1.79,0.79-2.18,1.65l-0.36,0.77l-5.47-5.47c-0.56-0.56-1.3-0.87-2.1-0.87
		s-1.54,0.31-2.1,0.87l-0.03,0.03c-0.27,0.27-0.48,0.58-0.63,0.94l-0.25,0.59l-0.57-0.3c-1.15-0.6-2.55-0.39-3.48,0.53l-0.04,0.04
		c-0.56,0.56-0.87,1.3-0.87,2.1c0,0.43,0.09,0.84,0.27,1.23l0.26,0.57l-0.58,0.23c-0.38,0.15-0.71,0.37-0.99,0.66l-0.03,0.03
		c-0.56,0.56-0.87,1.3-0.87,2.1c0,0.79,0.31,1.54,0.87,2.11l2.15,2.13l-0.76,0.36c-0.85,0.4-1.46,1.22-1.62,2.18
		c-0.17,0.97,0.13,1.91,0.82,2.59l9.38,9.35l2.2,2.21l0.01,0.01c2.21,2.31,5.43,3.63,8.84,3.64c0.01,0,0.01,0,0.01,0
		c3.41,0,6.62-1.33,8.84-3.63l0.01-0.01c0.7-0.7,1.3-1.46,1.8-2.27c0.25-0.4,0.48-0.81,0.67-1.23
		C175.41,89.88,175.18,89.38,175,88.86z"/>
	<path class="st55" d="M175.67,90.37c-0.26-0.48-0.48-0.99-0.67-1.5c0.43-1.22,0.66-2.51,0.66-3.84c0-1.33-0.23-2.62-0.66-3.84
		c0.19-0.51,0.41-1,0.67-1.49C177.26,83.06,177.25,87,175.67,90.37z"/>
	<path class="st55" d="M175.67,79.68L175.67,79.68c-0.26,0.49-0.48,0.99-0.67,1.5c-0.43,1.22-0.66,2.51-0.66,3.84
		c0,1.33,0.23,2.62,0.66,3.84c-0.18,0.52-0.41,1.02-0.67,1.5c-1.6-3.38-1.6-7.32,0-10.69c0.19-0.42,0.42-0.83,0.67-1.23
		C175.25,78.85,175.47,79.25,175.67,79.68z"/>
</g>
</svg>
