<?xml version="1.0" encoding="utf-8"?>
<!-- Generator: Adobe Illustrator 27.8.1, SVG Export Plug-In . SVG Version: 6.00 Build 0)  -->
<svg version="1.1" id="Layer_1" xmlns="http://www.w3.org/2000/svg" xmlns:xlink="http://www.w3.org/1999/xlink" x="0px" y="0px"
	 viewBox="0 0 350 230" style="enable-background:new 0 0 350 230;" xml:space="preserve">
<style type="text/css">
	.st0{fill:#FFF1B6;}
	.st1{fill:#FFFAD7;}
	.st2{fill:#D9FFF0;}
	.st3{fill:#D2FBFC;}
	.st4{fill:#EFFFCC;}
	.st5{fill:#FFF6C0;}
	.st6{fill:#FFFFB0;}
	.st7{fill:#858BFF;}
	.st8{fill:#00585E;}
	.st9{fill:#007984;}
	.st10{fill:#00373A;}
	.st11{fill:#00FFFF;}
	.st12{fill:#663567;}
	.st13{fill:#2B002D;}
	.st14{fill:#083300;}
	.st15{fill:#58E505;}
	.st16{fill:#1734BF;}
	.st17{fill:#511404;}
	.st18{fill:#EB5CFF;}
	.st19{fill:#007C6D;}
	.st20{fill:#A38800;}
	.st21{fill:#A710C1;}
	.st22{fill:#52025B;}
	.st23{fill:#007A6E;}
	.st24{fill:#0000FF;}
	.st25{fill:#4D2207;}
	.st26{fill:#4B4900;}
	.st27{opacity:0.5;}
	.st28{clip-path:url(#SVGID_00000055708179581927647580000009241624348409621925_);fill:#003F49;}
	.st29{fill:#00F7D9;}
	.st30{fill:#C0C900;}
	
		.st31{fill-rule:evenodd;clip-rule:evenodd;fill:url(#SVGID_00000003075881882395287550000010229470227400201873_);stroke:#ED9E00;stroke-width:0.5;stroke-miterlimit:10;}
	.st32{fill-rule:evenodd;clip-rule:evenodd;fill:#434EDD;}
	.st33{fill-rule:evenodd;clip-rule:evenodd;fill:#FFFFFF;}
	.st34{fill-rule:evenodd;clip-rule:evenodd;fill:#A5CB39;stroke:#465900;stroke-width:0.25;stroke-miterlimit:10;}
	.st35{fill-rule:evenodd;clip-rule:evenodd;fill:#94964D;}
	.st36{fill-rule:evenodd;clip-rule:evenodd;fill:#470A0A;}
	.st37{fill-rule:evenodd;clip-rule:evenodd;fill:#F200FF;}
	.st38{fill-rule:evenodd;clip-rule:evenodd;fill:#0A0089;}
	.st39{fill-rule:evenodd;clip-rule:evenodd;fill:#FF6700;}
	.st40{fill-rule:evenodd;clip-rule:evenodd;fill:#00FFF8;}
	.st41{fill:#00FFD3;}
	.st42{fill:#5B0038;}
	.st43{fill:url(#XMLID_00000016768409484050458160000015082014149574618022_);}
	.st44{fill:url(#XMLID_00000154419010679058448780000005660611502243477892_);}
	.st45{fill:url(#XMLID_00000155861275475435640740000015487136017323079062_);}
	.st46{fill:url(#XMLID_00000076562267422771348360000017565119968691958443_);}
	.st47{fill:url(#XMLID_00000066477511035519700960000011078231664055714945_);}
	.st48{fill:url(#XMLID_00000170278385162860342710000013074497421740724403_);}
	.st49{fill:url(#XMLID_00000084529214169139600410000012305381089284438447_);}
	.st50{fill:url(#XMLID_00000103234480755712848430000008554264774753440395_);}
	.st51{fill:url(#XMLID_00000019672612238183603750000018063291031706029490_);}
	.st52{fill:url(#XMLID_00000029764011100298812160000000652088041400110498_);}
	.st53{fill:url(#SVGID_00000087413100488331314210000006982795185267858314_);}
	.st54{fill:url(#SVGID_00000132770863377430794200000011884405967929379202_);}
	.st55{fill:#0A484F;}
	.st56{fill:url(#SVGID_00000088122446426913339510000005185218673623306139_);}
	.st57{fill:url(#SVGID_00000086693554680466608480000003326375796970764448_);}
	.st58{fill:url(#SVGID_00000044873267372082508890000014999482371827841196_);}
	.st59{fill:url(#SVGID_00000131326612073228449400000008378120171659433648_);}
	.st60{fill:url(#SVGID_00000011024423558773979060000015968697646647862696_);}
	.st61{fill:url(#SVGID_00000059995361574452540990000016224463967890448039_);}
	.st62{fill:url(#SVGID_00000034080794095743952500000012242413304112602505_);}
	.st63{fill:url(#SVGID_00000117666586809140488370000015839042812085786535_);}
	.st64{fill:url(#SVGID_00000129913574246483600200000018130555126910106008_);}
	.st65{fill:url(#XMLID_00000054240805662737650940000001626085853016139153_);}
	.st66{fill:url(#XMLID_00000163053459956678044530000000705559639644860857_);}
	.st67{fill:url(#XMLID_00000081618524715642256170000008558155614370040704_);}
	.st68{fill:url(#XMLID_00000136398859861876980210000003972908770813508028_);}
	.st69{fill:url(#XMLID_00000111192502252777023130000015027819734321639563_);}
	.st70{fill:url(#XMLID_00000089554512168979289280000014548762593766080403_);}
	.st71{fill:url(#SVGID_00000142141688553964678900000004347428069359288747_);}
	.st72{fill:#009345;}
	.st73{fill:url(#SVGID_00000158026325690153036810000004819038097374636963_);}
	.st74{fill:url(#SVGID_00000025426886763813580500000000390573256883670705_);}
	.st75{fill:url(#SVGID_00000074442390994586786440000014733700625733641105_);}
	.st76{fill:url(#SVGID_00000109735012144972604140000013187238988389137033_);}
	.st77{fill:url(#SVGID_00000098199030901356384540000009975087824679962033_);}
	.st78{fill:url(#SVGID_00000008833723803441331720000008484561246022971267_);}
	.st79{fill:url(#SVGID_00000124126897167163582240000012129768179542773905_);}
	.st80{fill:url(#SVGID_00000018939358047535252840000011127850525619796915_);}
	.st81{fill:url(#SVGID_00000139982881715965712700000018248282270855055764_);}
	.st82{fill:url(#SVGID_00000158714363534031055120000006080022540387773878_);}
	.st83{fill:url(#XMLID_00000024703398578931078860000007723506669308265361_);}
	.st84{fill:url(#XMLID_00000106844715240463259260000010715492255406455995_);}
	.st85{fill:url(#XMLID_00000079444315201443648100000016315584295838163343_);}
	.st86{fill:url(#XMLID_00000031178755628276623070000003602473386844798363_);}
	.st87{fill:url(#XMLID_00000077291978736422320980000007168000263984195500_);}
	.st88{fill:url(#XMLID_00000070116154316606664610000008815747237675224724_);}
	.st89{fill:url(#XMLID_00000096017612000080831490000007635104834293180596_);}
	.st90{fill:url(#XMLID_00000026853695060556837420000018387909742374148497_);}
	.st91{fill:url(#XMLID_00000092440326622290833170000008775074672322589320_);}
	.st92{fill:url(#XMLID_00000183245940167500042530000010568467454792026047_);}
	.st93{fill:url(#XMLID_00000006683294975236668370000000873925954805914517_);}
	.st94{fill:url(#XMLID_00000021085050097122915060000000399298946488588710_);}
	.st95{fill:#3999FF;}
	.st96{fill:#F69220;}
	.st97{fill:#8F0222;}
	.st98{fill:url(#SVGID_00000150075332127382920450000008226438390501764255_);}
	.st99{fill-rule:evenodd;clip-rule:evenodd;fill:url(#SVGID_00000091700101681862995180000017807594531068387517_);}
	.st100{fill-rule:evenodd;clip-rule:evenodd;fill:url(#SVGID_00000008145402852763466050000014850230327922258862_);}
</style>
<radialGradient id="XMLID_00000011739283062702206780000013159769961680571576_" cx="175.5962" cy="101.9246" r="64.7842" gradientUnits="userSpaceOnUse">
	<stop  offset="0" style="stop-color:#FFFFFF"/>
	<stop  offset="0.038" style="stop-color:#EFF2EF"/>
	<stop  offset="0.1936" style="stop-color:#B2C1B0"/>
	<stop  offset="0.3477" style="stop-color:#7E977B"/>
	<stop  offset="0.4966" style="stop-color:#53754F"/>
	<stop  offset="0.6393" style="stop-color:#325A2C"/>
	<stop  offset="0.774" style="stop-color:#1A4714"/>
	<stop  offset="0.8977" style="stop-color:#0C3B05"/>
	<stop  offset="1" style="stop-color:#073700"/>
</radialGradient>
<path id="XMLID_840_" style="fill:url(#XMLID_00000011739283062702206780000013159769961680571576_);" d="M182.69,94.83
	c0,0-14.74-35.1,28-44.42c0,0-7.3,5.44-12.68,17.76c0,0,2.32-0.1,5.89,0.46c12.16,1.93,22.74,9.41,28.89,20.07l3.78,6.55
	C236.58,95.25,201.7,56.83,182.69,94.83z M208.88,63.95c2.3,3.99,7.4,5.35,11.38,3.05c3.99-2.3,5.35-7.4,3.05-11.38
	c-2.3-3.99-7.4-5.35-11.38-3.05C207.94,54.86,206.58,59.96,208.88,63.95z M211.87,151.4l3.78-6.55c6.16-10.66,7.34-23.56,2.93-35.06
	c-1.29-3.38-2.55-5.33-2.55-5.33c13.36-1.5,21.72,2.1,21.72,2.1c-29.44-32.35-52.47-2.04-52.47-2.04
	C227.7,101.98,211.87,151.4,211.87,151.4z M225.13,111.76c-2.3,3.99-0.94,9.08,3.05,11.38s9.08,0.94,11.38-3.05
	c2.3-3.99,0.94-9.08-3.05-11.38C232.53,106.41,227.43,107.77,225.13,111.76z M150.88,158.07h7.56c12.31,0,24.07-5.42,31.83-14.99
	c2.28-2.81,3.35-4.87,3.35-4.87c7.98,10.82,9.04,19.86,9.04,19.86c13.3-41.67-24.47-46.46-24.47-46.46
	C201.6,147.08,150.88,158.07,150.88,158.07z M191.85,149.74c-4.6,0-8.33,3.73-8.33,8.33c0,4.6,3.73,8.33,8.33,8.33
	s8.33-3.73,8.33-8.33C200.18,153.47,196.45,149.74,191.85,149.74z M114.62,108.6l3.78,6.55c6.16,10.66,16.73,18.14,28.89,20.07
	c3.57,0.57,5.89,0.46,5.89,0.46c-5.38,12.32-12.68,17.76-12.68,17.76c42.74-9.32,28-44.42,28-44.42
	C149.49,147.02,114.62,108.6,114.62,108.6z M142.31,139.9c-2.3-3.99-7.4-5.35-11.38-3.05c-3.99,2.3-5.35,7.4-3.05,11.38
	c2.3,3.99,7.4,5.35,11.38,3.05C143.25,148.99,144.62,143.89,142.31,139.9z M139.33,52.45L135.55,59
	c-6.16,10.66-7.34,23.56-2.93,35.06c1.29,3.38,2.55,5.33,2.55,5.33c-13.36,1.5-21.72-2.1-21.72-2.1
	c29.44,32.35,52.47,2.04,52.47,2.04C123.49,101.87,139.33,52.45,139.33,52.45z M126.06,92.09c2.3-3.99,0.94-9.08-3.05-11.38
	c-3.99-2.3-9.08-0.94-11.38,3.05c-2.3,3.99-0.94,9.08,3.05,11.38C118.67,97.44,123.76,96.08,126.06,92.09z M200.31,45.78h-7.56
	c-12.31,0-24.07,5.42-31.83,14.99c-2.28,2.81-3.35,4.87-3.35,4.87c-7.98-10.82-9.04-19.86-9.04-19.86
	C135.23,87.45,173,92.24,173,92.24C149.59,56.77,200.31,45.78,200.31,45.78z M159.35,54.11c4.6,0,8.33-3.73,8.33-8.33
	c0-4.6-3.73-8.33-8.33-8.33c-4.6,0-8.33,3.73-8.33,8.33C151.01,50.38,154.74,54.11,159.35,54.11z"/>
</svg>
