<?xml version="1.0" encoding="utf-8"?>
<!-- Generator: Adobe Illustrator 27.8.1, SVG Export Plug-In . SVG Version: 6.00 Build 0)  -->
<svg version="1.1" id="Layer_1" xmlns="http://www.w3.org/2000/svg" xmlns:xlink="http://www.w3.org/1999/xlink" x="0px" y="0px"
	 viewBox="0 0 350 230" style="enable-background:new 0 0 350 230;" xml:space="preserve">
<style type="text/css">
	.st0{fill:#FFF1B6;}
	.st1{fill:#FFFAD7;}
	.st2{fill:#D9FFF0;}
	.st3{fill:#D2FBFC;}
	.st4{fill:#EFFFCC;}
	.st5{fill:#FFF6C0;}
	.st6{fill:#FFFFB0;}
	.st7{fill:#858BFF;}
	.st8{fill:#00585E;}
	.st9{fill:#007984;}
	.st10{fill:#00373A;}
	.st11{fill:#00FFFF;}
	.st12{fill:#663567;}
	.st13{fill:#2B002D;}
	.st14{fill:#083300;}
	.st15{fill:#58E505;}
	.st16{fill:#1734BF;}
	.st17{fill:#511404;}
	.st18{fill:#EB5CFF;}
	.st19{fill:#007C6D;}
	.st20{fill:#A38800;}
	.st21{fill:#A710C1;}
	.st22{fill:#52025B;}
	.st23{fill:#007A6E;}
	.st24{fill:#0000FF;}
	.st25{fill:#4D2207;}
	.st26{fill:#4B4900;}
	.st27{opacity:0.5;}
	.st28{clip-path:url(#SVGID_00000073681607272226079600000007478750582333578672_);fill:#003F49;}
	.st29{fill:#00F7D9;}
	.st30{fill:#C0C900;}
	
		.st31{fill-rule:evenodd;clip-rule:evenodd;fill:url(#SVGID_00000067233284513057234290000001554055288500300697_);stroke:#ED9E00;stroke-width:0.5;stroke-miterlimit:10;}
	.st32{fill-rule:evenodd;clip-rule:evenodd;fill:#434EDD;}
	.st33{fill-rule:evenodd;clip-rule:evenodd;fill:#FFFFFF;}
	.st34{fill-rule:evenodd;clip-rule:evenodd;fill:#A5CB39;stroke:#465900;stroke-width:0.25;stroke-miterlimit:10;}
	.st35{fill-rule:evenodd;clip-rule:evenodd;fill:#94964D;}
	.st36{fill-rule:evenodd;clip-rule:evenodd;fill:#470A0A;}
	.st37{fill-rule:evenodd;clip-rule:evenodd;fill:#F200FF;}
	.st38{fill-rule:evenodd;clip-rule:evenodd;fill:#0A0089;}
	.st39{fill-rule:evenodd;clip-rule:evenodd;fill:#FF6700;}
	.st40{fill-rule:evenodd;clip-rule:evenodd;fill:#00FFF8;}
	.st41{fill:#00FFD3;}
	.st42{fill:#5B0038;}
	.st43{fill:url(#XMLID_00000106148725228802990940000004123490046091082884_);}
	.st44{fill:url(#XMLID_00000160874688033880194980000016883704144484273320_);}
	.st45{fill:url(#XMLID_00000154399162577407752810000007016682760478172079_);}
	.st46{fill:url(#XMLID_00000172413241064361624480000009387520476357056920_);}
	.st47{fill:url(#XMLID_00000137109581013090853510000016176792584724862629_);}
	.st48{fill:url(#XMLID_00000104692520286460513070000000416621714149537413_);}
	.st49{fill:url(#XMLID_00000033349398813702977050000014204220825558801594_);}
	.st50{fill:url(#XMLID_00000036971990331104433810000008362110686781480598_);}
	.st51{fill:url(#XMLID_00000178925396153291289660000000822886280493193099_);}
	.st52{fill:url(#XMLID_00000173146867140143117220000017223246120337765034_);}
	.st53{fill:url(#SVGID_00000131336086014505752000000001407064870999863477_);}
	.st54{fill:url(#SVGID_00000116225048174717471380000018401857588032266929_);}
	.st55{fill:#0A484F;}
	.st56{fill:url(#SVGID_00000021824322551867814650000011258975655579996322_);}
	.st57{fill:url(#SVGID_00000094577436236882740860000016277129166166400911_);}
	.st58{fill:url(#SVGID_00000107573624104294897630000016198784882699043212_);}
	.st59{fill:url(#SVGID_00000039117573442709804940000017902326559270593426_);}
	.st60{fill:url(#SVGID_00000000931954929802865620000003586675508222126999_);}
	.st61{fill:url(#SVGID_00000054959839665243638340000008045984293962605492_);}
	.st62{fill:url(#SVGID_00000063628008590354319790000004488044027346780605_);}
	.st63{fill:url(#SVGID_00000154399948245735033210000011679475048139307924_);}
	.st64{fill:url(#SVGID_00000060725001267205540390000016345352099189050773_);}
	.st65{fill:url(#XMLID_00000173156159679441406690000015980750753883593863_);}
	.st66{fill:url(#XMLID_00000048497263486451028740000014620302951259595689_);}
	.st67{fill:url(#XMLID_00000176007810374242352480000006139483952186249401_);}
	.st68{fill:url(#XMLID_00000139269974700057630560000011096752360418474938_);}
	.st69{fill:url(#XMLID_00000138550363845221613070000017348625195943827594_);}
	.st70{fill:url(#XMLID_00000058574105794679840170000004941270650510764427_);}
	.st71{fill:url(#SVGID_00000121978433750276303180000007411534842386739344_);}
	.st72{fill:#009345;}
	.st73{fill:url(#SVGID_00000075137229250213649980000008008803991449373873_);}
	.st74{fill:url(#SVGID_00000166651529439568824890000000732087679618781061_);}
	.st75{fill:url(#SVGID_00000133517935455147901900000008432159924965449647_);}
	.st76{fill:url(#SVGID_00000038410144643482061750000012586787337815669690_);}
	.st77{fill:url(#SVGID_00000067935696653045511140000001615301361330479777_);}
	.st78{fill:url(#SVGID_00000122719198422341978580000017379048001022346428_);}
	.st79{fill:url(#SVGID_00000070086404245305508320000004222124527312709556_);}
	.st80{fill:url(#SVGID_00000142165300710675991980000010496579511075333543_);}
	.st81{fill:url(#SVGID_00000157266435253690759860000010966060134523057285_);}
	.st82{fill:url(#SVGID_00000130613683278069354800000015316800328255113388_);}
	.st83{fill:url(#XMLID_00000039114262871684731460000016494548522179740803_);}
	.st84{fill:url(#XMLID_00000115513074967783774700000015038023059751471263_);}
	.st85{fill:url(#XMLID_00000114752177493117034970000018389762601110378416_);}
	.st86{fill:url(#XMLID_00000052064988560405902530000017726160702503622576_);}
	.st87{fill:url(#XMLID_00000000190688545001992340000001610159535621749134_);}
	.st88{fill:url(#XMLID_00000114784057974195911030000013429542415752497845_);}
	.st89{fill:url(#XMLID_00000161627426509709338800000015499484075561752214_);}
	.st90{fill:url(#XMLID_00000026156240428459636280000005199520037806551979_);}
	.st91{fill:url(#XMLID_00000129902220486826899000000017578390713833916843_);}
	.st92{fill:url(#XMLID_00000026847436145252479700000010251995855259947954_);}
	.st93{fill:url(#XMLID_00000098939738188882115700000000212617176846549147_);}
	.st94{fill:url(#XMLID_00000154398228213091287030000016782617709051322256_);}
	.st95{fill:#3999FF;}
	.st96{fill:#F69220;}
	.st97{fill:#8F0222;}
	.st98{fill:url(#SVGID_00000183247031384823558100000004092139213442217388_);}
	.st99{fill-rule:evenodd;clip-rule:evenodd;fill:url(#SVGID_00000122720618451748862550000013322397757094317750_);}
	.st100{fill-rule:evenodd;clip-rule:evenodd;fill:url(#SVGID_00000111870037019527834030000001548616661629340587_);}
</style>
<radialGradient id="SVGID_00000165944055635019601300000001618017697920434330_" cx="235.9707" cy="-24.2674" r="345.1102" gradientUnits="userSpaceOnUse">
	<stop  offset="0" style="stop-color:#19B0FF"/>
	<stop  offset="0.1164" style="stop-color:#1697E0"/>
	<stop  offset="0.3369" style="stop-color:#116CAB"/>
	<stop  offset="0.5431" style="stop-color:#0C4A81"/>
	<stop  offset="0.7287" style="stop-color:#093163"/>
	<stop  offset="0.8872" style="stop-color:#082251"/>
	<stop  offset="1" style="stop-color:#071D4A"/>
</radialGradient>
<path style="fill:url(#SVGID_00000165944055635019601300000001618017697920434330_);" d="M176.54,124.46c0,4.81-3.9,8.71-8.71,8.71
	c-3.32,0-6.21-1.86-7.68-4.6c-8.83-1.33-17.02-3.17-24.51-5.56c-10.67-3.59-18.84-7.88-22.66-13.4c-0.09-0.13-0.18-0.26-0.27-0.4
	c-0.03-0.04-0.06-0.09-0.08-0.13c-1.84-2.95-2.28-6.54-1.31-10.75c0.75,2.15,2.06,4.08,3.86,5.84c1.63,1.59,3.68,3.03,6.09,4.33
	c1.35,0.74,2.82,1.42,4.4,2.07c0.02,0.01,0.03,0.01,0.05,0.01c1.83,0.75,3.79,1.44,5.9,2.09c3.98,1.22,8.45,2.27,13.32,3.16
	c1.31,0.24,2.66,0.47,4.04,0.69c0.91,0.15,1.85,0.29,2.79,0.42c0.16,0.02,0.32,0.04,0.47,0.07l-0.01,0c0.48,0.07,1,0.14,1.55,0.21
	c0.06,0.01,0.12,0.02,0.18,0.02c0.44,0.06,0.89,0.11,1.36,0.17c0.34,0.04,0.68,0.08,1.01,0.12c1.68,0.2,3.54,0.41,5.51,0.62
	c1.56-1.49,3.67-2.41,6-2.41C172.64,115.74,176.54,119.64,176.54,124.46z M238.68,98.33c-0.75,2.15-2.06,4.08-3.86,5.84
	c-1.63,1.59-3.68,3.03-6.09,4.33c-1.35,0.74-2.82,1.42-4.4,2.07c-0.02,0.01-0.03,0.01-0.05,0.01c-1.83,0.75-3.79,1.44-5.9,2.09
	c-3.98,1.22-8.45,2.27-13.32,3.16c-1.31,0.24-2.66,0.47-4.04,0.69c-0.91,0.15-1.85,0.29-2.79,0.42c-0.16,0.02-0.32,0.04-0.47,0.07
	l0.01,0c-0.48,0.07-1,0.14-1.55,0.21c-0.06,0.01-0.12,0.02-0.18,0.02c-0.15,0.02-0.3,0.04-0.46,0.06
	c-5.76,0.69-11.19,1.27-15.92,1.6l-0.93,0.05c0.84,1.65,1.31,3.52,1.31,5.5c0,1.87-0.42,3.65-1.18,5.23
	c5.69-0.43,11.37-1.14,17.06-2.14c6.53-1.2,12.68-2.71,18.42-4.55c10.67-3.59,18.84-7.88,22.66-13.4c0.09-0.13,0.18-0.26,0.27-0.4
	c0.03-0.04,0.06-0.09,0.08-0.13C239.21,106.12,239.65,102.54,238.68,98.33z M173.46,145.06c0,4.81,3.9,8.71,8.71,8.71
	c3.32,0,6.21-1.86,7.68-4.6c8.83-1.33,17.02-3.17,24.51-5.56c10.67-3.59,18.84-7.88,22.66-13.4c0.09-0.13,0.18-0.26,0.27-0.4
	c0.03-0.04,0.06-0.09,0.08-0.13c1.84-2.95,2.28-6.54,1.31-10.75c-0.75,2.15-2.06,4.08-3.86,5.84c-1.63,1.59-3.68,3.03-6.09,4.33
	c-1.35,0.74-2.82,1.42-4.4,2.07c-0.02,0.01-0.03,0.01-0.05,0.01c-1.83,0.75-3.79,1.44-5.9,2.09c-3.98,1.22-8.45,2.27-13.32,3.16
	c-1.31,0.24-2.66,0.47-4.04,0.69c-0.91,0.15-1.85,0.29-2.79,0.42c-0.16,0.02-0.32,0.04-0.47,0.07l0.01,0
	c-0.48,0.07-1,0.14-1.55,0.21c-0.06,0.01-0.12,0.02-0.18,0.02c-0.44,0.06-0.89,0.11-1.36,0.17c-0.34,0.04-0.68,0.08-1.01,0.12
	c-1.68,0.2-3.54,0.41-5.51,0.62c-1.56-1.49-3.67-2.41-6-2.41C177.36,136.35,173.46,140.25,173.46,145.06z M112.63,129.68
	c0.03,0.04,0.05,0.09,0.08,0.13c0.09,0.13,0.18,0.27,0.27,0.4c3.83,5.52,11.99,9.81,22.66,13.4c5.74,1.84,11.89,3.34,18.42,4.55
	c5.69,1,11.37,1.71,17.06,2.14c-0.76-1.59-1.18-3.36-1.18-5.23c0-1.98,0.47-3.84,1.31-5.5l-0.93-0.05
	c-4.73-0.34-10.16-0.91-15.92-1.6c-0.15-0.02-0.31-0.04-0.46-0.06c-0.06-0.01-0.12-0.02-0.18-0.02c-0.55-0.07-1.07-0.14-1.55-0.21
	l0.01,0c-0.16-0.02-0.32-0.04-0.47-0.07c-0.94-0.14-1.87-0.28-2.79-0.42c-1.37-0.22-2.72-0.45-4.04-0.69
	c-4.87-0.89-9.34-1.94-13.32-3.16c-2.11-0.64-4.07-1.33-5.9-2.09c-0.02,0-0.03-0.01-0.05-0.01c-1.57-0.65-3.04-1.33-4.4-2.07
	c-2.41-1.3-4.45-2.74-6.09-4.33c-1.81-1.76-3.11-3.7-3.86-5.84C110.35,123.14,110.79,126.72,112.63,129.68z M175,58.8
	c4.3,0,7.79-3.49,7.79-7.79c0-4.3-3.49-7.79-7.79-7.79s-7.79,3.49-7.79,7.79C167.21,55.31,170.7,58.8,175,58.8z M160.31,85.21
	c0-3.22-2.61-5.84-5.84-5.84s-5.84,2.61-5.84,5.84s2.61,5.84,5.84,5.84S160.31,88.44,160.31,85.21z M171.7,83.98
	c-0.04-0.09-0.08-0.17-0.13-0.25c-0.03-0.05-0.05-0.1-0.08-0.15c-0.18-0.29-0.41-0.54-0.68-0.74c-0.02-0.02-0.03-0.03-0.04-0.04
	c-0.43-0.3-0.94-0.48-1.49-0.48c-0.79,0-1.49,0.35-1.98,0.9l-12.83,14.7l-12.83-14.7c-0.48-0.55-1.18-0.9-1.98-0.9
	c-0.55,0-1.06,0.18-1.49,0.48V82.8c-0.02,0.02-0.03,0.03-0.05,0.04c-0.27,0.2-0.5,0.45-0.68,0.74c-0.03,0.05-0.06,0.1-0.08,0.15
	c-0.05,0.08-0.09,0.17-0.13,0.25c-0.24,0.57-0.29,1.23-0.15,1.99c0.11,0.57,0.39,1.2,0.74,1.88l0.85,1.51l0.06,0.11
	c0.29,0.48,0.57,0.95,0.86,1.42c2.3,3.71,4.61,7.4,6.88,11.12c0.22,0.35,0.24,0.86,0.24,1.29c0.02,1.26,0.03,2.53,0.03,3.8v1.47
	c-0.01,1.07-0.01,2.14-0.04,3.2c0,0.19,0.01,0.36,0.04,0.52v0.31c0.93,0.16,1.85,0.32,2.76,0.46c0.91,0.14,1.83,0.28,2.75,0.42
	l0.45,0.06v0.07l0.01-0.07c0.47,0.07,0.97,0.14,1.5,0.21l0.18,0.03c0.44,0.06,0.88,0.11,1.34,0.17c0.34,0.04,0.67,0.08,1,0.12
	c1.25,0.15,2.6,0.3,4.01,0.46c0.48-0.34,0.97-0.64,1.48-0.91v-6.73h-0.03c0-1.19,0.02-2.38,0.03-3.57c0-0.43,0.03-0.94,0.24-1.29
	c2.27-3.72,4.58-7.42,6.88-11.12c0.29-0.47,0.57-0.95,0.86-1.42l0.06-0.11l0.84-1.51c0.36-0.67,0.63-1.3,0.74-1.88
	C171.99,85.21,171.94,84.55,171.7,83.98z M142,67.46c0-3.81-3.09-6.89-6.89-6.89c-3.81,0-6.89,3.09-6.89,6.89
	c0,3.81,3.09,6.89,6.89,6.89C138.92,74.35,142,71.26,142,67.46z M155.45,66c-0.04-0.11-0.1-0.2-0.15-0.3
	c-0.03-0.06-0.06-0.12-0.1-0.18c-0.21-0.34-0.48-0.64-0.8-0.88c-0.02-0.01-0.03-0.03-0.05-0.04c-0.5-0.35-1.1-0.56-1.76-0.56
	c-0.93,0-1.76,0.42-2.33,1.07l-15.15,17.35l-15.15-17.35c-0.57-0.65-1.4-1.07-2.33-1.07c-0.66,0-1.26,0.21-1.76,0.56l-0.01-0.01
	c-0.02,0.02-0.03,0.04-0.05,0.05c-0.33,0.24-0.6,0.54-0.81,0.88c-0.04,0.06-0.06,0.12-0.09,0.18c-0.06,0.1-0.11,0.19-0.15,0.3
	c-0.29,0.67-0.34,1.45-0.18,2.35c0.13,0.68,0.46,1.42,0.87,2.22l1,1.78v0.01l0.07,0.12c0.34,0.56,0.67,1.12,1.01,1.68
	c2.72,4.37,5.45,8.73,8.13,13.13c0.26,0.42,0.29,1.01,0.29,1.52c0.01,1.49,0.03,2.99,0.03,4.48v1.73c0,1.26-0.01,2.52-0.04,3.79
	c-0.01,0.23,0.01,0.43,0.04,0.61v7.49c0.3,0.13,0.61,0.26,0.92,0.39l0.07,0.03l0.08,0.03c1.68,0.69,3.56,1.36,5.59,1.97
	c3.38,1.04,7.29,1.99,11.63,2.82v-10.86c-1.46-2.38-2.95-4.77-4.39-7.09l-1.55-2.5c-0.22-0.35-0.43-0.7-0.64-1.05l-0.24-0.4
	l-0.92-1.65c-0.5-0.95-0.78-1.66-0.9-2.32c-0.2-1.06-0.12-2.02,0.24-2.86c0.04-0.1,0.1-0.22,0.16-0.33
	c0.01-0.01,0.03-0.06,0.03-0.07c0.05-0.08,0.09-0.16,0.13-0.23c0.25-0.41,0.59-0.78,0.98-1.09c0.03-0.02,0.05-0.04,0.07-0.06
	c0.06-0.04,0.11-0.08,0.17-0.12c0.67-0.45,1.45-0.68,2.26-0.68c1.19,0,2.32,0.52,3.11,1.42l2.86,3.27c2.33-3.8,4.69-7.58,7.04-11.37
	c0.35-0.56,0.68-1.12,1.01-1.68l0.07-0.12v-0.01l1-1.78c0.42-0.8,0.74-1.54,0.87-2.22C155.79,67.45,155.73,66.67,155.45,66z
	 M182.79,51.01c0-4.3-3.49-7.79-7.79-7.79c-4.3,0-7.79,3.49-7.79,7.79c0,4.3,3.49,7.79,7.79,7.79
	C179.3,58.8,182.79,55.31,182.79,51.01z M195.53,91.05c3.22,0,5.84-2.61,5.84-5.84s-2.61-5.84-5.84-5.84s-5.84,2.61-5.84,5.84
	S192.3,91.05,195.53,91.05z M212.76,83.98c-0.04-0.09-0.08-0.17-0.13-0.25c-0.03-0.05-0.05-0.1-0.08-0.15
	c-0.18-0.29-0.41-0.54-0.68-0.74c-0.02-0.02-0.03-0.03-0.04-0.04l-0.01,0.01c-0.42-0.3-0.93-0.48-1.49-0.48
	c-0.79,0-1.49,0.35-1.98,0.9l-12.83,14.7l-12.83-14.7c-0.48-0.55-1.18-0.9-1.98-0.9c-0.56,0-1.07,0.18-1.49,0.48V82.8
	c-0.02,0.02-0.03,0.03-0.05,0.04c-0.27,0.2-0.5,0.45-0.68,0.74c-0.03,0.05-0.05,0.1-0.08,0.15c-0.04,0.08-0.09,0.17-0.12,0.25
	c-0.24,0.57-0.29,1.23-0.15,1.99c0.11,0.57,0.39,1.2,0.74,1.88l0.85,1.51l0.06,0.11c0.29,0.48,0.57,0.95,0.86,1.42
	c2.3,3.71,4.61,7.4,6.88,11.12c0.22,0.35,0.24,0.86,0.24,1.29c0.01,1.19,0.02,2.38,0.03,3.57h-0.03v7.79
	c2.23-0.24,4.68-0.51,7.4-0.84l0.58-0.08c0.56-0.08,1.06-0.14,1.53-0.21l0.01,0.07v-0.07l0.47-0.07c0.91-0.13,1.83-0.27,2.73-0.41
	c0.92-0.15,1.85-0.3,2.77-0.47v-0.3c0.02-0.16,0.04-0.33,0.03-0.52c-0.02-1.07-0.03-2.14-0.03-3.2v-1.47
	c0.01-1.26,0.02-2.53,0.03-3.8c0-0.43,0.03-0.94,0.24-1.29c2.27-3.72,4.58-7.42,6.88-11.12c0.29-0.47,0.57-0.95,0.86-1.42l0.06-0.11
	l0.84-1.51c0.36-0.67,0.63-1.3,0.74-1.88C213.04,85.21,213,84.55,212.76,83.98z M214.89,74.35c3.81,0,6.89-3.09,6.89-6.89
	c0-3.81-3.09-6.89-6.89-6.89S208,63.65,208,67.46C208,71.26,211.08,74.35,214.89,74.35z M235.22,66c-0.04-0.11-0.1-0.2-0.15-0.3
	c-0.03-0.06-0.06-0.12-0.1-0.18c-0.21-0.34-0.48-0.64-0.8-0.88c-0.02-0.01-0.03-0.03-0.05-0.04c-0.5-0.35-1.11-0.56-1.76-0.56
	c-0.94,0-1.76,0.42-2.33,1.07l-15.15,17.35l-15.15-17.35c-0.57-0.65-1.4-1.07-2.33-1.07c-0.66,0-1.26,0.21-1.76,0.56l-0.01-0.01
	c-0.02,0.02-0.03,0.04-0.05,0.05c-0.33,0.24-0.6,0.54-0.81,0.88c-0.04,0.06-0.06,0.12-0.1,0.18c-0.05,0.1-0.1,0.19-0.15,0.3
	c-0.29,0.67-0.34,1.45-0.18,2.35c0.13,0.68,0.46,1.42,0.87,2.22l1,1.78v0.01l0.07,0.12c0.34,0.56,0.67,1.12,1.01,1.68
	c2.36,3.79,4.71,7.57,7.04,11.37l2.85-3.27c0.79-0.9,1.92-1.42,3.11-1.42c0.81,0,1.58,0.24,2.26,0.68c0.06,0.04,0.12,0.08,0.17,0.12
	c0.03,0.02,0.05,0.04,0.07,0.06c0.4,0.31,0.74,0.68,0.99,1.09c0.05,0.07,0.09,0.15,0.13,0.23c0.01,0.01,0.03,0.06,0.04,0.07
	c0.06,0.12,0.12,0.24,0.16,0.33c0.36,0.84,0.44,1.8,0.24,2.86c-0.13,0.66-0.4,1.37-0.9,2.32l-0.93,1.65l-0.24,0.4
	c-0.21,0.35-0.42,0.7-0.63,1.05l-1.55,2.5c-1.45,2.33-2.93,4.71-4.39,7.09v10.86c4.34-0.83,8.25-1.77,11.63-2.81
	c2.03-0.62,3.91-1.28,5.59-1.98l0.08-0.04l0.06-0.02c0.31-0.13,0.62-0.26,0.92-0.39v-7.49c0.03-0.19,0.05-0.39,0.04-0.61
	c-0.03-1.26-0.04-2.52-0.04-3.79v-1.73c0.01-1.49,0.02-2.99,0.04-4.48c0-0.51,0.03-1.11,0.28-1.52c2.68-4.39,5.41-8.75,8.13-13.13
	c0.35-0.56,0.68-1.12,1.01-1.68l0.07-0.12v-0.01l1-1.78c0.42-0.8,0.74-1.54,0.87-2.22C235.56,67.45,235.51,66.67,235.22,66z
	 M197.98,49.36c-0.05-0.12-0.11-0.23-0.17-0.34c-0.04-0.07-0.07-0.13-0.11-0.2c-0.24-0.39-0.55-0.72-0.91-0.99
	c-0.02-0.02-0.04-0.04-0.06-0.05h-0.01c-0.56-0.4-1.25-0.63-1.99-0.63c-1.06,0-2,0.47-2.64,1.21L175,67.97l-17.12-19.6
	c-0.64-0.74-1.58-1.21-2.64-1.21c-0.74,0-1.42,0.24-1.99,0.63c-0.02,0.02-0.04,0.04-0.06,0.05c-0.37,0.27-0.67,0.6-0.91,0.99
	c-0.04,0.07-0.07,0.13-0.11,0.2c-0.06,0.11-0.12,0.22-0.17,0.34c-0.32,0.76-0.39,1.65-0.2,2.66c0.15,0.76,0.51,1.6,0.98,2.5
	l1.13,2.02l0.08,0.14c0.38,0.64,0.76,1.27,1.14,1.9c3.07,4.94,6.16,9.88,9.19,14.84c0.29,0.47,0.32,1.14,0.32,1.72
	c0.02,1.77,0.04,3.55,0.04,5.33v1.08c0,0.8-0.01,1.6-0.01,2.4l1.48-1.7c0.79-0.9,1.92-1.42,3.11-1.42c0.81,0,1.59,0.24,2.27,0.68
	c0.05,0.04,0.11,0.07,0.16,0.11c0.02,0.01,0.05,0.04,0.07,0.06c0.41,0.31,0.74,0.68,1.01,1.12c0.03,0.05,0.07,0.12,0.11,0.19
	c0,0.01,0.04,0.07,0.04,0.08c0.07,0.12,0.13,0.24,0.18,0.36c0.34,0.81,0.43,1.77,0.23,2.82c-0.13,0.67-0.4,1.38-0.88,2.3l-0.92,1.65
	l-0.24,0.4c-0.22,0.36-0.43,0.72-0.65,1.08l-1.55,2.49c-1.44,2.32-2.93,4.71-4.39,7.08v11.4c1.01-0.28,2.07-0.41,3.14-0.41
	c3.25,0,6.2,1.27,8.39,3.35l3.24-0.19c1.77-0.13,3.71-0.29,5.84-0.5v-13.65c-1.46-2.38-2.94-4.76-4.39-7.08l-1.54-2.49
	c-0.22-0.36-0.44-0.72-0.65-1.08l-0.24-0.4l-0.92-1.65c-0.49-0.92-0.76-1.62-0.89-2.3c-0.2-1.05-0.12-2.02,0.23-2.82
	c0.05-0.13,0.11-0.24,0.17-0.36c0.01-0.01,0.04-0.07,0.04-0.08c0.04-0.07,0.08-0.14,0.11-0.19c0.27-0.44,0.6-0.81,1-1.12
	c0.03-0.02,0.06-0.05,0.08-0.06c0.05-0.04,0.1-0.08,0.16-0.11c0.68-0.45,1.45-0.68,2.26-0.68c1.19,0,2.32,0.52,3.11,1.42l1.48,1.7
	c-0.01-0.8-0.01-1.6-0.01-2.4v-1.08c0.01-1.78,0.02-3.55,0.04-5.33c0-0.58,0.04-1.25,0.32-1.72c3.03-4.96,6.12-9.9,9.19-14.84
	c0.39-0.63,0.76-1.26,1.14-1.9l0.08-0.14l1.13-2.02c0.47-0.9,0.83-1.74,0.98-2.5C198.37,51.01,198.31,50.12,197.98,49.36z"/>
</svg>
