<?xml version="1.0" encoding="utf-8"?>
<!-- Generator: Adobe Illustrator 27.8.1, SVG Export Plug-In . SVG Version: 6.00 Build 0)  -->
<svg version="1.1" id="Layer_1" xmlns="http://www.w3.org/2000/svg" xmlns:xlink="http://www.w3.org/1999/xlink" x="0px" y="0px"
	 viewBox="0 0 350 230" style="enable-background:new 0 0 350 230;" xml:space="preserve">
<style type="text/css">
	.st0{fill:#FFF1B6;}
	.st1{fill:#FFFAD7;}
	.st2{fill:#D9FFF0;}
	.st3{fill:#D2FBFC;}
	.st4{fill:#EFFFCC;}
	.st5{fill:#FFF6C0;}
	.st6{fill:#FFFFB0;}
	.st7{fill:#858BFF;}
	.st8{fill:#00585E;}
	.st9{fill:#007984;}
	.st10{fill:#00373A;}
	.st11{fill:#00FFFF;}
	.st12{fill:#663567;}
	.st13{fill:#2B002D;}
	.st14{fill:#083300;}
	.st15{fill:#58E505;}
	.st16{fill:#1734BF;}
	.st17{fill:#511404;}
	.st18{fill:#EB5CFF;}
	.st19{fill:#007C6D;}
	.st20{fill:#A38800;}
	.st21{fill:#A710C1;}
	.st22{fill:#52025B;}
	.st23{fill:#007A6E;}
	.st24{fill:#0000FF;}
	.st25{fill:#4D2207;}
	.st26{fill:#4B4900;}
	.st27{opacity:0.5;}
	.st28{clip-path:url(#SVGID_00000080893176558879828830000013702381541727291581_);fill:#003F49;}
	.st29{fill:#00F7D9;}
	.st30{fill:#C0C900;}
	
		.st31{fill-rule:evenodd;clip-rule:evenodd;fill:url(#SVGID_00000175311335589610404750000014514048763241490572_);stroke:#ED9E00;stroke-width:0.5;stroke-miterlimit:10;}
	.st32{fill-rule:evenodd;clip-rule:evenodd;fill:#434EDD;}
	.st33{fill-rule:evenodd;clip-rule:evenodd;fill:#FFFFFF;}
	.st34{fill-rule:evenodd;clip-rule:evenodd;fill:#A5CB39;stroke:#465900;stroke-width:0.25;stroke-miterlimit:10;}
	.st35{fill-rule:evenodd;clip-rule:evenodd;fill:#94964D;}
	.st36{fill-rule:evenodd;clip-rule:evenodd;fill:#470A0A;}
	.st37{fill-rule:evenodd;clip-rule:evenodd;fill:#F200FF;}
	.st38{fill-rule:evenodd;clip-rule:evenodd;fill:#0A0089;}
	.st39{fill-rule:evenodd;clip-rule:evenodd;fill:#FF6700;}
	.st40{fill-rule:evenodd;clip-rule:evenodd;fill:#00FFF8;}
	.st41{fill:#00FFD3;}
	.st42{fill:#5B0038;}
	.st43{fill:url(#XMLID_00000075872519781784632780000012243364378197921726_);}
	.st44{fill:url(#XMLID_00000023981980892532716050000000718069986032374180_);}
	.st45{fill:url(#XMLID_00000039846245811999854450000015630700515820168863_);}
	.st46{fill:url(#XMLID_00000144313137495892022430000004732445602047469955_);}
	.st47{fill:url(#XMLID_00000165931489395652167570000009541336220159334301_);}
	.st48{fill:url(#XMLID_00000080165042033354392370000003520906019977597592_);}
	.st49{fill:url(#XMLID_00000084521723673214991930000007539217909999205549_);}
	.st50{fill:url(#XMLID_00000049210843214929684840000013711607383891479459_);}
	.st51{fill:url(#XMLID_00000109029305194808161680000014108713024260633265_);}
	.st52{fill:url(#XMLID_00000052063420179342970860000013455713982494768006_);}
	.st53{fill:url(#SVGID_00000169547215238479907330000000119115323812268681_);}
	.st54{fill:url(#SVGID_00000029022256094587906350000006773069474656930952_);}
	.st55{fill:#0A484F;}
	.st56{fill:url(#SVGID_00000002351507067809934550000015823880310778932902_);}
	.st57{fill:url(#SVGID_00000080175751303863338850000011933705975703148197_);}
	.st58{fill:url(#SVGID_00000067918102274551440750000014105959238478577061_);}
	.st59{fill:url(#SVGID_00000113335053985220155300000013548255965542048701_);}
	.st60{fill:url(#SVGID_00000076595525438452312020000010685309696141165225_);}
	.st61{fill:url(#SVGID_00000016776746746480014570000008631418551842549894_);}
	.st62{fill:url(#SVGID_00000001641854959219912820000005588535433030693774_);}
	.st63{fill:url(#SVGID_00000020358452251672705710000005755615728310732928_);}
	.st64{fill:url(#SVGID_00000012439607384888159110000007994792714950833057_);}
	.st65{fill:url(#XMLID_00000039107165146373255950000012769149190130089614_);}
	.st66{fill:url(#XMLID_00000049215172056399430260000000567697363588553405_);}
	.st67{fill:url(#XMLID_00000056408558384739575940000007029044265896048049_);}
	.st68{fill:url(#XMLID_00000139978858513484739550000013472255225340327854_);}
	.st69{fill:url(#XMLID_00000066479155770815330350000007891990461885572000_);}
	.st70{fill:url(#XMLID_00000155108318127428900840000000198921477153575354_);}
	.st71{fill:url(#SVGID_00000095301484797115603840000011587776593570789274_);}
	.st72{fill:#009345;}
	.st73{fill:url(#SVGID_00000048476251749564227610000017635996035034953102_);}
	.st74{fill:url(#SVGID_00000072998816466716409890000004432813177752751510_);}
	.st75{fill:url(#SVGID_00000071553605620162195150000005717141061128403645_);}
	.st76{fill:url(#SVGID_00000039104621769446156680000003704898154342334365_);}
	.st77{fill:url(#SVGID_00000011716017325949488120000012372996359858013105_);}
	.st78{fill:url(#SVGID_00000168830725324605874500000002653795018360021416_);}
	.st79{fill:url(#SVGID_00000179641193675420308200000014022723870464882340_);}
	.st80{fill:url(#SVGID_00000181785008539401486190000007623924097191616685_);}
	.st81{fill:url(#SVGID_00000115504382275041044730000008340750363669039295_);}
	.st82{fill:url(#SVGID_00000010286774111238010850000016599192264568025523_);}
	.st83{fill:url(#XMLID_00000094608963753109558330000000331547837038489742_);}
	.st84{fill:url(#XMLID_00000145054220041690231990000003617779257858616997_);}
	.st85{fill:url(#XMLID_00000132782240619611610870000004205647144164227482_);}
	.st86{fill:url(#XMLID_00000017518726756218806390000006828330507626191259_);}
	.st87{fill:url(#XMLID_00000078747340969766445190000018087758814304292746_);}
	.st88{fill:url(#XMLID_00000167359943020464626910000016063043425823955645_);}
	.st89{fill:url(#XMLID_00000096026216595933217240000017765992046108006043_);}
	.st90{fill:url(#XMLID_00000072239913941417426020000017819849158192951196_);}
	.st91{fill:url(#XMLID_00000145048707821556469440000014479800939859987621_);}
	.st92{fill:url(#XMLID_00000024717547939074429700000015678006584345215381_);}
	.st93{fill:url(#XMLID_00000114047916378047185450000003239520008456922290_);}
	.st94{fill:url(#XMLID_00000139277705032336818830000000185836910766423438_);}
	.st95{fill:#3999FF;}
	.st96{fill:#F69220;}
	.st97{fill:#8F0222;}
	.st98{fill:url(#SVGID_00000038386454048952724080000016627002460513117595_);}
	.st99{fill-rule:evenodd;clip-rule:evenodd;fill:url(#SVGID_00000145766954855239401530000003273394791290894208_);}
	.st100{fill-rule:evenodd;clip-rule:evenodd;fill:url(#SVGID_00000037689354004321733580000009903936459667592872_);}
</style>
<g>
	
		<radialGradient id="SVGID_00000103972593230080881830000009398144299460388228_" cx="243.162" cy="79.9109" r="30.6653" gradientUnits="userSpaceOnUse">
		<stop  offset="0" style="stop-color:#3FB8FF"/>
		<stop  offset="0.023" style="stop-color:#3FACEE"/>
		<stop  offset="0.0837" style="stop-color:#3E8FC8"/>
		<stop  offset="0.1509" style="stop-color:#3D75A6"/>
		<stop  offset="0.2241" style="stop-color:#3C6089"/>
		<stop  offset="0.3055" style="stop-color:#3C4F72"/>
		<stop  offset="0.3985" style="stop-color:#3B4160"/>
		<stop  offset="0.5101" style="stop-color:#3B3853"/>
		<stop  offset="0.6591" style="stop-color:#3B334C"/>
		<stop  offset="1" style="stop-color:#3B314A"/>
	</radialGradient>
	<path style="fill:url(#SVGID_00000103972593230080881830000009398144299460388228_);" d="M239.62,71.66
		c-5.89-3.84-7.76-7.81-6.18-12.87c1.35-4.34,5.43-7.21,10.07-7.09c4.49,0.11,8.42,3.25,9.56,7.62c1.28,4.89-0.83,9.05-6.33,12.27
		c1.25,0.23,2.35,0.41,3.45,0.64c14.92,3.16,25.9,16.65,25.92,31.83c0,2.61-1.4,4.03-3.99,4.05c-1.2,0.01-2.4,0-3.6,0
		c-2.33-0.02-3.79-1.37-3.84-3.73c-0.13-5.62-2.02-10.51-5.84-14.64c-5.87-6.33-15.15-8.48-23.24-5.41
		c-8.13,3.09-13.64,10.79-13.87,19.41c-0.08,3.13-1.31,4.35-4.41,4.37c-1.01,0.01-2.01,0.01-3.02,0c-2.65-0.02-4.16-1.45-4.05-4.12
		c0.5-12.7,6.28-22.26,17.32-28.57C231.22,73.34,235.23,72.2,239.62,71.66z"/>
	
		<radialGradient id="SVGID_00000104685199264731428440000016655572161030802839_" cx="106.9796" cy="79.9313" r="30.6376" gradientUnits="userSpaceOnUse">
		<stop  offset="0" style="stop-color:#FF0000"/>
		<stop  offset="0.0416" style="stop-color:#DF0008"/>
		<stop  offset="0.101" style="stop-color:#B90013"/>
		<stop  offset="0.1669" style="stop-color:#97001C"/>
		<stop  offset="0.2388" style="stop-color:#7A0023"/>
		<stop  offset="0.3187" style="stop-color:#630029"/>
		<stop  offset="0.4099" style="stop-color:#51002E"/>
		<stop  offset="0.5194" style="stop-color:#440032"/>
		<stop  offset="0.6655" style="stop-color:#3D0033"/>
		<stop  offset="1" style="stop-color:#3B0034"/>
	</radialGradient>
	<path style="fill:url(#SVGID_00000104685199264731428440000016655572161030802839_);" d="M103.47,71.65
		c-5.92-3.89-7.69-7.62-6.21-12.75c1.19-4.12,5.09-7.07,9.43-7.15c4.57-0.08,8.54,2.67,9.95,6.94c0.85,2.58,0.68,5.11-0.46,7.57
		c-1.14,2.45-3.07,4.1-5.51,5.41c0.5,0.09,1,0.2,1.51,0.28c14.58,2.36,25.72,13.94,27.49,28.6c0.14,1.19,0.21,2.39,0.22,3.59
		c0.03,2.46-1.39,3.89-3.87,3.94c-1.16,0.03-2.32,0.02-3.48,0c-2.64-0.03-4.02-1.38-4.06-4.01c-0.09-5.24-1.8-9.91-5.32-13.77
		c-5.95-6.52-13.35-8.93-21.87-6.55C92.73,86.15,87.6,92,85.82,100.71c-0.25,1.21-0.3,2.46-0.38,3.69
		c-0.13,2.14-1.46,3.57-3.57,3.66c-1.39,0.06-2.79,0.07-4.18,0c-2.28-0.11-3.59-1.53-3.61-3.84c-0.19-15.64,12.04-29.98,27.5-32.26
		C102.15,71.89,102.71,71.78,103.47,71.65z"/>
	
		<radialGradient id="SVGID_00000107575418814824312690000015979433898627992454_" cx="209.1121" cy="116.594" r="30.6275" gradientUnits="userSpaceOnUse">
		<stop  offset="0" style="stop-color:#19B0FF"/>
		<stop  offset="0.023" style="stop-color:#17A2EE"/>
		<stop  offset="0.0837" style="stop-color:#1483C8"/>
		<stop  offset="0.1509" style="stop-color:#1068A6"/>
		<stop  offset="0.2241" style="stop-color:#0D5089"/>
		<stop  offset="0.3055" style="stop-color:#0B3D72"/>
		<stop  offset="0.3985" style="stop-color:#092F60"/>
		<stop  offset="0.5101" style="stop-color:#082553"/>
		<stop  offset="0.6591" style="stop-color:#071F4C"/>
		<stop  offset="1" style="stop-color:#071D4A"/>
	</radialGradient>
	<path style="fill:url(#SVGID_00000107575418814824312690000015979433898627992454_);" d="M212.73,124.91
		c5.6,3.49,7.57,7.47,6.22,12.35c-1.22,4.4-5.04,7.38-9.65,7.51c-4.4,0.13-8.47-2.77-9.86-7.07c-0.84-2.58-0.65-5.11,0.51-7.56
		c1.16-2.44,3.11-4.06,5.82-5.26c-1.5-0.28-2.7-0.47-3.89-0.73c-14.8-3.25-25.55-16.52-25.67-31.66c-0.02-2.71,1.3-4.05,4.04-4.07
		c1.12-0.01,2.24-0.01,3.37,0c2.6,0.02,3.91,1.31,3.98,3.91c0.15,5.66,2.15,10.56,6.07,14.65c6.01,6.28,15.26,8.25,23.41,5.02
		c7.99-3.17,13.38-10.96,13.52-19.55c0.04-2.72,1.37-4.03,4.1-4.04c1.28,0,2.56-0.03,3.83,0.01c2.02,0.06,3.45,1.44,3.45,3.47
		c0.03,8.45-2.76,15.87-8.42,22.13c-5.47,6.06-12.3,9.64-20.42,10.68C213.06,124.73,212.96,124.8,212.73,124.91z"/>
	
		<radialGradient id="SVGID_00000008829859547031446560000017553795551679725753_" cx="141.4771" cy="116.594" r="30.6275" gradientUnits="userSpaceOnUse">
		<stop  offset="0" style="stop-color:#0DCC7F"/>
		<stop  offset="5.105138e-03" style="stop-color:#0DCA7C"/>
		<stop  offset="0.0767" style="stop-color:#0BAB5B"/>
		<stop  offset="0.1552" style="stop-color:#0A913F"/>
		<stop  offset="0.2437" style="stop-color:#097C28"/>
		<stop  offset="0.345" style="stop-color:#086B16"/>
		<stop  offset="0.4665" style="stop-color:#076009"/>
		<stop  offset="0.6287" style="stop-color:#075902"/>
		<stop  offset="1" style="stop-color:#075700"/>
	</radialGradient>
	<path style="fill:url(#SVGID_00000008829859547031446560000017553795551679725753_);" d="M145.09,124.91
		c5.6,3.49,7.57,7.47,6.22,12.35c-1.22,4.4-5.04,7.38-9.65,7.51c-4.4,0.13-8.47-2.77-9.86-7.07c-0.84-2.58-0.65-5.11,0.51-7.56
		c1.16-2.44,3.11-4.06,5.82-5.26c-1.5-0.28-2.7-0.47-3.89-0.73c-14.8-3.25-25.55-16.52-25.67-31.66c-0.02-2.71,1.3-4.05,4.04-4.07
		c1.12-0.01,2.24-0.01,3.37,0c2.6,0.02,3.91,1.31,3.98,3.91c0.15,5.66,2.15,10.56,6.07,14.65c6.01,6.28,15.26,8.25,23.41,5.02
		c7.99-3.17,13.38-10.96,13.52-19.55c0.04-2.72,1.37-4.03,4.1-4.04c1.28,0,2.56-0.03,3.83,0.01c2.02,0.06,3.45,1.44,3.45,3.47
		c0.03,8.45-2.76,15.87-8.42,22.13c-5.47,6.06-12.3,9.64-20.42,10.68C145.42,124.73,145.33,124.8,145.09,124.91z"/>
	
		<radialGradient id="SVGID_00000140714068023422155410000011903116040163371454_" cx="175.0693" cy="79.9263" r="30.6195" gradientUnits="userSpaceOnUse">
		<stop  offset="0" style="stop-color:#FFCB00"/>
		<stop  offset="0.0137" style="stop-color:#F6C104"/>
		<stop  offset="0.0749" style="stop-color:#D09B14"/>
		<stop  offset="0.1427" style="stop-color:#AE7923"/>
		<stop  offset="0.2167" style="stop-color:#925C2F"/>
		<stop  offset="0.2989" style="stop-color:#7B4539"/>
		<stop  offset="0.3927" style="stop-color:#6A3341"/>
		<stop  offset="0.5054" style="stop-color:#5D2646"/>
		<stop  offset="0.6558" style="stop-color:#561F49"/>
		<stop  offset="1" style="stop-color:#541D4A"/>
	</radialGradient>
	<path style="fill:url(#SVGID_00000140714068023422155410000011903116040163371454_);" d="M171.69,71.66
		c-5.78-3.69-7.76-7.55-6.43-12.3c1.25-4.45,5.05-7.51,9.43-7.59c4.68-0.09,8.66,2.66,10.03,6.96c0.84,2.63,0.67,5.19-0.55,7.67
		c-1.18,2.42-3.12,4.07-5.68,5.1c2.56,0.65,5.05,1.04,7.37,1.91c12.56,4.71,19.8,13.81,21.86,27.04c0.2,1.26,0.23,2.55,0.24,3.82
		c0.01,2.24-1.33,3.65-3.54,3.76c-1.28,0.06-2.56,0.08-3.83,0.05c-2.6-0.06-3.87-1.25-3.96-3.83c-0.15-4.15-1.15-8.06-3.51-11.5
		c-5.06-7.36-12.11-10.78-20.96-9.6c-8.5,1.14-14.35,6.06-17.32,14.11c-0.83,2.24-1.01,4.74-1.31,7.14
		c-0.28,2.31-1.35,3.51-3.69,3.62c-1.35,0.06-2.71,0.07-4.06,0c-2.38-0.13-3.68-1.52-3.62-3.92c0.26-9.85,4.01-18.1,11.44-24.6
		c5-4.37,10.87-6.87,17.45-7.74C171.21,71.75,171.36,71.72,171.69,71.66z"/>
</g>
</svg>
