<?xml version="1.0" encoding="utf-8"?>
<!-- Generator: Adobe Illustrator 27.8.1, SVG Export Plug-In . SVG Version: 6.00 Build 0)  -->
<svg version="1.1" id="Layer_1" xmlns="http://www.w3.org/2000/svg" xmlns:xlink="http://www.w3.org/1999/xlink" x="0px" y="0px"
	 viewBox="0 0 350 230" style="enable-background:new 0 0 350 230;" xml:space="preserve">
<style type="text/css">
	.st0{fill:#BACEE2;}
	.st1{fill:#2C4975;}
	.st2{fill:#FFF0D3;}
	.st3{fill:#476E95;}
	.st4{fill:#00202D;}
	.st5{fill:#D2FBFC;}
	.st6{fill:#EFFFCC;}
	.st7{fill:#FFFAD7;}
	.st8{fill:#D9FFF0;}
	.st9{fill:#FFF1B6;}
	.st10{fill:#FFF6C0;}
	.st11{fill:#FFFFB0;}
	.st12{fill:#858BFF;}
	.st13{fill:#00585E;}
	.st14{fill:#007984;}
	.st15{fill:#00373A;}
	.st16{fill:#00FFFF;}
	.st17{fill:#663567;}
	.st18{fill:#2B002D;}
	.st19{fill:#083300;}
	.st20{fill:#58E505;}
	.st21{fill:#1734BF;}
	.st22{fill:#511404;}
	.st23{fill:#EB5CFF;}
	.st24{fill:#007C6D;}
	.st25{fill:#A38800;}
	.st26{fill:#A710C1;}
	.st27{fill:#52025B;}
	.st28{fill:#007A6E;}
	.st29{fill:#0000FF;}
	.st30{fill:#4D2207;}
	.st31{fill:#4B4900;}
	.st32{opacity:0.5;}
	.st33{clip-path:url(#SVGID_00000121971657228544244590000012196052292608306341_);fill:#003F49;}
	.st34{fill:#00F7D9;}
	.st35{fill:#C0C900;}
	
		.st36{fill-rule:evenodd;clip-rule:evenodd;fill:url(#SVGID_00000165917296827557226430000011623374571608178063_);stroke:#ED9E00;stroke-width:0.5;stroke-miterlimit:10;}
	.st37{fill-rule:evenodd;clip-rule:evenodd;fill:#434EDD;}
	.st38{fill-rule:evenodd;clip-rule:evenodd;fill:#FFFFFF;}
	.st39{fill-rule:evenodd;clip-rule:evenodd;fill:#A5CB39;stroke:#465900;stroke-width:0.25;stroke-miterlimit:10;}
	.st40{fill-rule:evenodd;clip-rule:evenodd;fill:#94964D;}
	.st41{fill-rule:evenodd;clip-rule:evenodd;fill:#470A0A;}
	.st42{fill-rule:evenodd;clip-rule:evenodd;fill:#F200FF;}
	.st43{fill-rule:evenodd;clip-rule:evenodd;fill:#0A0089;}
	.st44{fill-rule:evenodd;clip-rule:evenodd;fill:#FF6700;}
	.st45{fill-rule:evenodd;clip-rule:evenodd;fill:#00FFF8;}
	.st46{fill:#00FFD3;}
	.st47{fill:#5B0038;}
	.st48{fill:url(#XMLID_00000105392026412521428360000001218242205503614628_);}
	.st49{fill:url(#XMLID_00000004528549779267695000000018436416401273813692_);}
	.st50{fill:url(#XMLID_00000112612803391101935780000012326466062078159527_);}
	.st51{fill:url(#XMLID_00000111889114465504610270000007488649389259470261_);}
	.st52{fill:url(#XMLID_00000004539465974880074310000009118958069097051019_);}
	.st53{fill:url(#XMLID_00000093860100213928949590000000354934447188851084_);}
	.st54{fill:url(#XMLID_00000174584774953374975440000008582953858208536990_);}
	.st55{fill:url(#XMLID_00000068661969450549802070000001806681202308401815_);}
	.st56{fill:url(#XMLID_00000016784243911318960400000004710471764214430347_);}
	.st57{fill:url(#XMLID_00000159457701008476494790000011571233889569980309_);}
	.st58{fill:url(#SVGID_00000119080015435984385570000003720026415676023479_);}
	.st59{fill:url(#SVGID_00000142147022770273929660000005046951462737795732_);}
	.st60{fill:#0A484F;}
	.st61{fill:url(#SVGID_00000025437687588161206950000001565062051680528307_);}
	.st62{fill:url(#SVGID_00000135684945011929880070000012617100511851725730_);}
	.st63{fill:url(#SVGID_00000025406638730246628160000011702883633101237675_);}
	.st64{fill:url(#SVGID_00000030450380790739507390000007706365914302484136_);}
	.st65{fill:url(#SVGID_00000165213376635950629230000017658775607089151886_);}
	.st66{fill:url(#SVGID_00000024707642869494804350000015875846868057753993_);}
	.st67{fill:url(#SVGID_00000044883451345342044270000006689148853726787262_);}
	.st68{fill:url(#SVGID_00000130624985455299204640000001933202600640447623_);}
	.st69{fill:url(#SVGID_00000127041573702833700360000004734025940442976172_);}
	.st70{fill:url(#XMLID_00000160179450863794517370000013952143981004388514_);}
	.st71{fill:url(#XMLID_00000013887280413346442510000017695148588014915775_);}
	.st72{fill:url(#XMLID_00000080913888442808931640000010143424104488008079_);}
	.st73{fill:url(#XMLID_00000080171585840060621240000005108225187861504683_);}
	.st74{fill:url(#XMLID_00000050647120089643770850000005759175572503085984_);}
	.st75{fill:url(#XMLID_00000128473191518066590040000002743242729825671578_);}
	.st76{fill:url(#SVGID_00000034082656355763567990000014288704894281650080_);}
	.st77{fill:#009345;}
	.st78{fill:url(#SVGID_00000183939103404584174690000008328222538905155980_);}
	.st79{fill:url(#SVGID_00000088819584393599128700000007026581897995218570_);}
	.st80{fill:url(#SVGID_00000106112302366234575460000008097495027128960179_);}
	.st81{fill:url(#SVGID_00000017514663508894862090000005353731427110715824_);}
	.st82{fill:url(#SVGID_00000052081030709456862440000008308587806811834555_);}
	.st83{fill:url(#SVGID_00000009567846939084905600000016230100694802602640_);}
	.st84{fill:url(#SVGID_00000047753553464008852490000014134832979810613927_);}
	.st85{fill:url(#SVGID_00000121962851827851728930000001429381012279016124_);}
	.st86{fill:url(#SVGID_00000176044584415299914370000001439377138801327759_);}
	.st87{fill:url(#SVGID_00000036221341975232391440000014046384368360286900_);}
	.st88{fill:url(#XMLID_00000007387860942100294670000008406659762627003822_);}
	.st89{fill:url(#XMLID_00000109012606467059094780000005740093738144587648_);}
	.st90{fill:url(#XMLID_00000025407007544851288640000013609645039440074888_);}
	.st91{fill:url(#XMLID_00000032646577120948271380000014963176423330990007_);}
	.st92{fill:url(#XMLID_00000095334848287853519020000013824918214819753622_);}
	.st93{fill:url(#XMLID_00000130639351498410849940000007864527391633714350_);}
	.st94{fill:url(#XMLID_00000139290200630917621240000005211457776674038428_);}
	.st95{fill:url(#XMLID_00000052077166100964336320000007276525675931305621_);}
	.st96{fill:url(#XMLID_00000179635970362940398070000015422579404595267983_);}
	.st97{fill:url(#XMLID_00000062168527059598778100000007165757939723062146_);}
	.st98{fill:url(#XMLID_00000119822743039821751440000008555087729177873571_);}
	.st99{fill:url(#XMLID_00000152256859217635947170000015089781814504577969_);}
	.st100{fill:#3999FF;}
	.st101{fill:#F69220;}
	.st102{fill:#8F0222;}
	.st103{fill:url(#SVGID_00000149364798351770361980000002090211897696128154_);}
	.st104{fill-rule:evenodd;clip-rule:evenodd;fill:url(#SVGID_00000005226570569801000260000001292548595477889415_);}
	.st105{fill-rule:evenodd;clip-rule:evenodd;fill:url(#SVGID_00000034787708112426619370000015977095002456836260_);}
	.st106{fill-rule:evenodd;clip-rule:evenodd;fill:url(#SVGID_00000181774825004626417820000018286264458177363384_);}
	.st107{fill:url(#SVGID_00000176725958987385426380000001100526248852996767_);}
	.st108{opacity:0.7;fill-rule:evenodd;clip-rule:evenodd;fill:#FFFFFF;}
	.st109{fill-rule:evenodd;clip-rule:evenodd;fill:#FF8530;}
	.st110{fill-rule:evenodd;clip-rule:evenodd;fill:#FE6361;}
	.st111{fill:url(#SVGID_00000118396329861237107380000006788534511483978124_);}
	.st112{fill:url(#SVGID_00000081627568364276276180000013887138213475653269_);}
	.st113{fill-rule:evenodd;clip-rule:evenodd;fill:url(#SVGID_00000165939597781629929700000009231788459659883942_);}
	.st114{fill-rule:evenodd;clip-rule:evenodd;fill:url(#SVGID_00000100371925727409637460000012554950112669441971_);}
	.st115{fill-rule:evenodd;clip-rule:evenodd;fill:url(#SVGID_00000041268204968771812670000001728184763466633372_);}
	.st116{fill-rule:evenodd;clip-rule:evenodd;fill:#DFAD25;}
	.st117{fill-rule:evenodd;clip-rule:evenodd;fill:#F1B91B;}
	.st118{fill-rule:evenodd;clip-rule:evenodd;fill:#CEBDDB;}
	.st119{fill-rule:evenodd;clip-rule:evenodd;fill:#BFE8E6;}
	.st120{fill-rule:evenodd;clip-rule:evenodd;fill:#E8DCBF;}
	.st121{fill:#F9E6C5;}
	.st122{fill:#D9C5E8;}
	.st123{fill:#E8BFBF;}
	.st124{fill:#C0ACD1;}
	.st125{fill:#D1A7A7;}
	.st126{fill:#E5D1B5;}
	.st127{fill-rule:evenodd;clip-rule:evenodd;fill:#C0ACD1;}
	.st128{fill-rule:evenodd;clip-rule:evenodd;fill:#E5D1B5;}
	.st129{fill:#F7E7C9;}
	.st130{fill:#F2D3D5;}
	.st131{fill:#D6CAE5;}
	.st132{fill:#C7D8EF;}
	.st133{fill:#C8EDEB;}
	.st134{fill:#CDEAC7;}
	.st135{fill:#A7BACE;}
	.st136{fill:#B3E0DC;}
	.st137{fill:#C8B2DB;}
	.st138{fill:#92C6FF;}
	.st139{fill:#7AB3E5;}
	.st140{fill:#FFC6FF;}
	.st141{fill:#EBB0ED;}
	.st142{fill:#FFAEAD;}
	.st143{fill:#EF9A9A;}
	.st144{fill:#FFCD97;}
	.st145{fill:#EFBB89;}
	.st146{fill:#BFB0FF;}
	.st147{fill:#ADA6F7;}
	.st148{fill:#B4CFED;}
	.st149{fill:#C5E8BC;}
	.st150{fill:url(#SVGID_00000107579716480850455900000004468743293906793103_);}
	.st151{fill:#A4C2FF;}
	.st152{fill:#FBC8FF;}
	.st153{fill:#FFD7A6;}
	.st154{fill:#FFACAD;}
	.st155{fill:#BDB2FF;}
	.st156{fill-rule:evenodd;clip-rule:evenodd;fill:#AF3862;}
	.st157{fill-rule:evenodd;clip-rule:evenodd;fill:#8B5090;}
	.st158{fill-rule:evenodd;clip-rule:evenodd;fill:#2C4975;}
	.st159{fill-rule:evenodd;clip-rule:evenodd;fill:#FFD080;}
	.st160{fill-rule:evenodd;clip-rule:evenodd;fill:#FFA600;}
	.st161{fill:#FE6361;}
	.st162{fill:#BD5091;}
	.st163{fill:#BFEAB5;}
	.st164{fill:#5CC49C;}
	.st165{fill:#4F7EEA;}
	.st166{fill:#B8E269;}
	.st167{fill:#4C7273;}
	.st168{fill:#042630;}
	.st169{fill:#67E3E5;}
	.st170{fill:#82BFBE;}
	.st171{fill:#3A9EFD;}
	.st172{fill:#8C61FF;}
	.st173{fill:#44C2FD;}
	.st174{fill:#6592FD;}
	.st175{fill:#5F59F7;}
	.st176{fill:#343090;}
	.st177{fill-rule:evenodd;clip-rule:evenodd;fill:#AAA7D3;}
	.st178{fill-rule:evenodd;clip-rule:evenodd;fill:#503A65;}
	.st179{fill-rule:evenodd;clip-rule:evenodd;fill:#B7B7ED;}
	.st180{fill-rule:evenodd;clip-rule:evenodd;fill:#574F7D;}
	.st181{fill-rule:evenodd;clip-rule:evenodd;fill:#312144;}
	.st182{fill-rule:evenodd;clip-rule:evenodd;fill:#7D76AD;}
	.st183{fill-rule:evenodd;clip-rule:evenodd;fill:#5F59F7;}
	.st184{fill-rule:evenodd;clip-rule:evenodd;fill:#6592FD;}
	.st185{fill-rule:evenodd;clip-rule:evenodd;fill:#44C2FD;}
	.st186{fill-rule:evenodd;clip-rule:evenodd;fill:#8C61FF;}
	.st187{fill-rule:evenodd;clip-rule:evenodd;fill:#3A9EFD;}
	.st188{fill-rule:evenodd;clip-rule:evenodd;fill:#343090;}
	.st189{fill-rule:evenodd;clip-rule:evenodd;fill:#DEDEFF;}
	.st190{fill-rule:evenodd;clip-rule:evenodd;fill:#1C102D;}
	.st191{fill-rule:evenodd;clip-rule:evenodd;fill:#5CC49C;}
	.st192{fill-rule:evenodd;clip-rule:evenodd;fill:#B8E269;}
	.st193{fill-rule:evenodd;clip-rule:evenodd;fill:#67E3E5;}
	.st194{fill-rule:evenodd;clip-rule:evenodd;fill:#4F7EEA;}
	.st195{fill:#7D76AD;}
	.st196{fill:#AAA7D3;}
	.st197{fill:#312144;}
	.st198{fill:#503A65;}
</style>
<g>
	<path class="st183" d="M190.04,35.67c0-1.51-0.22-2.96-0.64-4.34c-0.57-1.89,0.05-3.84,1.61-5.05c1.31-1.02,2.92-1.6,4.68-1.61
		c5.98-0.03,9.65,6.45,6.78,11.5l-12.61,21.85c-0.74,1.28-2.28,1.82-3.66,1.28c-3.47-1.36-7.25-2.1-11.2-2.1
		c-3.95,0-7.73,0.75-11.21,2.1c-1.38,0.54-2.92,0-3.66-1.28l-12.51-21.66c-1.42-2.39-1.46-5.37-0.08-7.79
		c2.43-4.25,7.86-4.98,11.36-2.36c1.61,1.2,2.26,3.19,1.68,5.11c-0.42,1.38-0.64,2.84-0.64,4.35c0,7.79,5.93,14.2,13.52,14.97
		c0.16,0.02,0.3,0.02,0.47,0.02h2.11c0.16,0,0.3-0.01,0.47-0.02C184.11,49.87,190.04,43.46,190.04,35.67 M174.99,46.66
		c6.07,0,11-4.92,11-11c0-6.07-4.92-11-11-10.99c-6.07,0-10.99,4.92-10.99,11C164,41.74,168.92,46.66,174.99,46.66"/>
	<path class="st184" d="M227.84,74.86c1.31-0.75,2.45-1.67,3.44-2.72c1.35-1.44,3.35-1.87,5.18-1.13c1.54,0.62,2.85,1.73,3.73,3.25
		c3.02,5.16-0.76,11.58-6.57,11.63l-25.23,0c-1.48,0-2.72-1.07-2.94-2.53c-1.18-7.82-5.31-14.67-11.2-19.39
		c-1.16-0.93-1.46-2.53-0.72-3.81l12.51-21.67c1.36-2.43,3.92-3.95,6.71-3.96c4.9-0.02,8.24,4.32,7.72,8.66
		c-0.24,2-1.63,3.55-3.59,4.01c-1.4,0.33-2.78,0.87-4.09,1.62c-6.75,3.9-9.34,12.24-6.2,19.19c0.07,0.15,0.13,0.28,0.21,0.42
		l1.05,1.82c0.08,0.14,0.16,0.26,0.25,0.39C212.58,76.82,221.09,78.75,227.84,74.86 M210.8,67.33c3.04,5.26,9.76,7.06,15.02,4.02
		c5.26-3.04,7.06-9.76,4.02-15.02c-3.04-5.26-9.76-7.06-15.02-4.02C209.56,55.34,207.76,62.07,210.8,67.33"/>
	<path class="st185" d="M212.8,127.19c1.31,0.75,2.68,1.29,4.07,1.62c1.92,0.45,3.3,1.96,3.57,3.92c0.23,1.65-0.08,3.33-0.95,4.86
		c-2.96,5.19-10.41,5.13-13.35,0.12l-12.62-21.85c-0.74-1.28-0.44-2.89,0.72-3.81c5.9-4.73,10.02-11.58,11.2-19.4
		c0.22-1.47,1.46-2.53,2.94-2.53h25.02c2.78-0.04,5.38,1.42,6.79,3.83c2.47,4.23,0.38,9.3-3.63,11.02c-1.85,0.79-3.89,0.37-5.27-1.1
		c-0.98-1.05-2.14-1.97-3.45-2.73c-6.75-3.9-15.27-1.97-19.72,4.23c-0.1,0.13-0.17,0.25-0.25,0.39l-1.05,1.82
		c-0.08,0.14-0.15,0.27-0.21,0.42C203.47,114.95,206.05,123.29,212.8,127.19 M210.8,108.66c-3.04,5.26-1.24,11.98,4.02,15.02
		c5.26,3.04,11.98,1.23,15.02-4.03c3.04-5.26,1.23-11.98-4.03-15.02C220.56,101.6,213.84,103.41,210.8,108.66"/>
	<path class="st186" d="M159.96,140.33c0,1.51,0.22,2.96,0.63,4.34c0.57,1.89-0.05,3.83-1.61,5.05c-1.31,1.02-2.92,1.6-4.68,1.61
		c-5.98,0.03-9.65-6.45-6.78-11.5l12.61-21.85c0.74-1.28,2.28-1.82,3.66-1.28c3.47,1.36,7.25,2.1,11.2,2.1
		c3.95,0,7.73-0.75,11.21-2.1c1.38-0.54,2.92,0,3.66,1.28l12.51,21.66c1.43,2.39,1.46,5.37,0.08,7.79
		c-2.43,4.25-7.86,4.98-11.36,2.36c-1.61-1.2-2.26-3.19-1.68-5.11c0.42-1.38,0.64-2.84,0.64-4.35c0-7.79-5.93-14.2-13.52-14.97
		c-0.16-0.02-0.3-0.02-0.47-0.02h-2.11c-0.17,0-0.3,0.01-0.47,0.02C165.89,126.13,159.96,132.54,159.96,140.33 M175.01,129.34
		c-6.07,0-11,4.92-11,11c0,6.07,4.92,11,11,10.99c6.07,0,10.99-4.92,10.99-11C186,134.26,181.08,129.34,175.01,129.34"/>
	<path class="st187" d="M122.16,101.14c-1.3,0.75-2.45,1.67-3.44,2.72c-1.35,1.44-3.35,1.87-5.18,1.13
		c-1.54-0.62-2.85-1.73-3.73-3.25c-3.02-5.16,0.76-11.58,6.57-11.62l25.23,0c1.48,0,2.72,1.06,2.94,2.53
		c1.18,7.82,5.31,14.67,11.2,19.39c1.16,0.93,1.46,2.53,0.72,3.81l-12.51,21.67c-1.36,2.43-3.92,3.95-6.71,3.96
		c-4.9,0.02-8.24-4.32-7.72-8.66c0.24-1.99,1.63-3.55,3.58-4.01c1.4-0.33,2.78-0.86,4.09-1.62c6.75-3.9,9.34-12.24,6.2-19.19
		c-0.07-0.15-0.13-0.28-0.21-0.42l-1.05-1.82c-0.08-0.14-0.16-0.26-0.26-0.39C137.42,99.18,128.91,97.25,122.16,101.14
		 M139.2,108.67c-3.04-5.26-9.76-7.06-15.02-4.02c-5.26,3.04-7.06,9.76-4.02,15.02c3.04,5.26,9.76,7.06,15.02,4.02
		C140.44,120.66,142.24,113.93,139.2,108.67"/>
	<path class="st188" d="M137.2,48.81c-1.31-0.75-2.68-1.29-4.07-1.62c-1.92-0.45-3.3-1.96-3.57-3.92c-0.23-1.65,0.08-3.33,0.95-4.86
		c2.97-5.19,10.41-5.13,13.35-0.12l12.62,21.85c0.74,1.28,0.44,2.89-0.72,3.81c-5.9,4.73-10.02,11.58-11.2,19.4
		c-0.22,1.47-1.46,2.53-2.94,2.53h-25.02c-2.78,0.04-5.38-1.42-6.79-3.83c-2.47-4.23-0.38-9.3,3.63-11.02
		c1.85-0.79,3.89-0.37,5.27,1.1c0.98,1.05,2.14,1.97,3.45,2.73c6.75,3.9,15.27,1.97,19.72-4.23c0.1-0.13,0.17-0.25,0.26-0.39
		l1.05-1.82c0.08-0.14,0.15-0.27,0.21-0.42C146.53,61.05,143.95,52.71,137.2,48.81 M139.2,67.34c3.04-5.26,1.23-11.98-4.03-15.02
		c-5.26-3.04-11.98-1.23-15.02,4.03c-3.04,5.26-1.23,11.98,4.02,15.02C129.44,74.4,136.16,72.59,139.2,67.34"/>
</g>
</svg>
