<?xml version="1.0" encoding="utf-8"?>
<!-- Generator: Adobe Illustrator 27.8.1, SVG Export Plug-In . SVG Version: 6.00 Build 0)  -->
<svg version="1.1" id="Layer_1" xmlns="http://www.w3.org/2000/svg" xmlns:xlink="http://www.w3.org/1999/xlink" x="0px" y="0px"
	 viewBox="0 0 350 230" style="enable-background:new 0 0 350 230;" xml:space="preserve">
<style type="text/css">
	.st0{fill:#BACEE2;}
	.st1{fill:#2C4975;}
	.st2{fill:#FFF0D3;}
	.st3{fill:#476E95;}
	.st4{fill:#00202D;}
	.st5{fill:#D2FBFC;}
	.st6{fill:#EFFFCC;}
	.st7{fill:#FFFAD7;}
	.st8{fill:#D9FFF0;}
	.st9{fill:#FFF1B6;}
	.st10{fill:#FFF6C0;}
	.st11{fill:#FFFFB0;}
	.st12{fill:#858BFF;}
	.st13{fill:#00585E;}
	.st14{fill:#007984;}
	.st15{fill:#00373A;}
	.st16{fill:#00FFFF;}
	.st17{fill:#663567;}
	.st18{fill:#2B002D;}
	.st19{fill:#083300;}
	.st20{fill:#58E505;}
	.st21{fill:#1734BF;}
	.st22{fill:#511404;}
	.st23{fill:#EB5CFF;}
	.st24{fill:#007C6D;}
	.st25{fill:#A38800;}
	.st26{fill:#A710C1;}
	.st27{fill:#52025B;}
	.st28{fill:#007A6E;}
	.st29{fill:#0000FF;}
	.st30{fill:#4D2207;}
	.st31{fill:#4B4900;}
	.st32{opacity:0.5;}
	.st33{clip-path:url(#SVGID_00000160890609173634352370000009765128373553608864_);fill:#003F49;}
	.st34{fill:#00F7D9;}
	.st35{fill:#C0C900;}
	
		.st36{fill-rule:evenodd;clip-rule:evenodd;fill:url(#SVGID_00000160888125090284714880000009955073641998878366_);stroke:#ED9E00;stroke-width:0.5;stroke-miterlimit:10;}
	.st37{fill-rule:evenodd;clip-rule:evenodd;fill:#434EDD;}
	.st38{fill-rule:evenodd;clip-rule:evenodd;fill:#FFFFFF;}
	.st39{fill-rule:evenodd;clip-rule:evenodd;fill:#A5CB39;stroke:#465900;stroke-width:0.25;stroke-miterlimit:10;}
	.st40{fill-rule:evenodd;clip-rule:evenodd;fill:#94964D;}
	.st41{fill-rule:evenodd;clip-rule:evenodd;fill:#470A0A;}
	.st42{fill-rule:evenodd;clip-rule:evenodd;fill:#F200FF;}
	.st43{fill-rule:evenodd;clip-rule:evenodd;fill:#0A0089;}
	.st44{fill-rule:evenodd;clip-rule:evenodd;fill:#FF6700;}
	.st45{fill-rule:evenodd;clip-rule:evenodd;fill:#00FFF8;}
	.st46{fill:#00FFD3;}
	.st47{fill:#5B0038;}
	.st48{fill:url(#XMLID_00000176755747295970856630000008769470483260883869_);}
	.st49{fill:url(#XMLID_00000044888525390456225320000014251507128389292939_);}
	.st50{fill:url(#XMLID_00000045582903105283867970000008353783073045128125_);}
	.st51{fill:url(#XMLID_00000113345920591742620480000010041574221587421603_);}
	.st52{fill:url(#XMLID_00000121256767079249452660000015856553666142321288_);}
	.st53{fill:url(#XMLID_00000101061676249674228790000009031966976508760754_);}
	.st54{fill:url(#XMLID_00000008137992418529402420000015863879241469168021_);}
	.st55{fill:url(#XMLID_00000042729776335541478310000006545063952491851146_);}
	.st56{fill:url(#XMLID_00000183247157694235067560000012559255578716355482_);}
	.st57{fill:url(#XMLID_00000176017824067574088850000014194425777406494365_);}
	.st58{fill:url(#SVGID_00000183222942973716183500000011567902371206349494_);}
	.st59{fill:url(#SVGID_00000016034572497587857510000009692369116635257999_);}
	.st60{fill:#0A484F;}
	.st61{fill:url(#SVGID_00000074428875036785741630000008416342687751383680_);}
	.st62{fill:url(#SVGID_00000172434408114414811260000004012742038870700180_);}
	.st63{fill:url(#SVGID_00000114044181575510482690000016690529407354776708_);}
	.st64{fill:url(#SVGID_00000181066840054946798890000009489919576606148002_);}
	.st65{fill:url(#SVGID_00000163037670042977822430000000307511854993677490_);}
	.st66{fill:url(#SVGID_00000150094970554740780510000007079787099865769894_);}
	.st67{fill:url(#SVGID_00000056428004014516684130000017206979992430385305_);}
	.st68{fill:url(#SVGID_00000072969431940750851150000006782111710066482105_);}
	.st69{fill:url(#SVGID_00000025413219807349904050000013981772422022323639_);}
	.st70{fill:url(#XMLID_00000021089873365659746520000015519445614073205643_);}
	.st71{fill:url(#XMLID_00000003092925871312961440000007125220457914068657_);}
	.st72{fill:url(#XMLID_00000145027719880334532760000003041516051543172249_);}
	.st73{fill:url(#XMLID_00000099654786133800261230000000927800240461110959_);}
	.st74{fill:url(#XMLID_00000096747509152737649250000005709142949807506079_);}
	.st75{fill:url(#XMLID_00000159434684814969966220000017244979145465447332_);}
	.st76{fill:url(#SVGID_00000034076511660049365350000005975007182240229299_);}
	.st77{fill:#009345;}
	.st78{fill:url(#SVGID_00000128443216205137688940000018219083459271331715_);}
	.st79{fill:url(#SVGID_00000093179307299938685320000001554628480910176414_);}
	.st80{fill:url(#SVGID_00000068658636661589937070000018194864016724451493_);}
	.st81{fill:url(#SVGID_00000136387628542511084300000016711047792067981203_);}
	.st82{fill:url(#SVGID_00000122687309874191455480000017674453930132802488_);}
	.st83{fill:url(#SVGID_00000132770251930976731630000017346113542716071090_);}
	.st84{fill:url(#SVGID_00000119083504076645425940000012269833172095184815_);}
	.st85{fill:url(#SVGID_00000123429107755693835340000004791218854540689337_);}
	.st86{fill:url(#SVGID_00000054252505140529139450000009324673583966281655_);}
	.st87{fill:url(#SVGID_00000052105398219702156020000009404447400348926083_);}
	.st88{fill:url(#XMLID_00000161624057467645217560000001951170467248219803_);}
	.st89{fill:url(#XMLID_00000094582053302191460220000005014376277647767742_);}
	.st90{fill:url(#XMLID_00000139986950633758573260000005497015588367741852_);}
	.st91{fill:url(#XMLID_00000124869020120521967190000013197841630024192189_);}
	.st92{fill:url(#XMLID_00000082352979245545702170000000480292906132218023_);}
	.st93{fill:url(#XMLID_00000132066851996374708700000016977568356608997050_);}
	.st94{fill:url(#XMLID_00000043453604505316079600000009123924434582734225_);}
	.st95{fill:url(#XMLID_00000176030790627629347860000015104376232386935733_);}
	.st96{fill:url(#XMLID_00000139998254075700961790000000600291974966898353_);}
	.st97{fill:url(#XMLID_00000181809616577029538540000013996095455208616610_);}
	.st98{fill:url(#XMLID_00000181771289666914346490000009422831350306844586_);}
	.st99{fill:url(#XMLID_00000013161167041378012880000005591765976158465692_);}
	.st100{fill:#3999FF;}
	.st101{fill:#F69220;}
	.st102{fill:#8F0222;}
	.st103{fill:url(#SVGID_00000182495535051013296440000005635913168853512080_);}
	.st104{fill-rule:evenodd;clip-rule:evenodd;fill:url(#SVGID_00000140735072371588680580000012602720640044627589_);}
	.st105{fill-rule:evenodd;clip-rule:evenodd;fill:url(#SVGID_00000149349218641208879060000013116385628488935838_);}
	.st106{fill-rule:evenodd;clip-rule:evenodd;fill:url(#SVGID_00000139275218942979606440000017656262143709007285_);}
	.st107{fill:url(#SVGID_00000085956817008650688360000002429580018996189622_);}
	.st108{opacity:0.7;fill-rule:evenodd;clip-rule:evenodd;fill:#FFFFFF;}
	.st109{fill-rule:evenodd;clip-rule:evenodd;fill:#FF8530;}
	.st110{fill-rule:evenodd;clip-rule:evenodd;fill:#FE6361;}
	.st111{fill:url(#SVGID_00000149382403435533080210000003680008037179373758_);}
	.st112{fill:url(#SVGID_00000160906059439793525580000000940800748448124307_);}
	.st113{fill-rule:evenodd;clip-rule:evenodd;fill:url(#SVGID_00000029036273642649317080000009825856445767717049_);}
	.st114{fill-rule:evenodd;clip-rule:evenodd;fill:url(#SVGID_00000096060604575840380130000006941757776623353251_);}
	.st115{fill-rule:evenodd;clip-rule:evenodd;fill:url(#SVGID_00000171709216019655159170000010431904659376258228_);}
	.st116{fill-rule:evenodd;clip-rule:evenodd;fill:#DFAD25;}
	.st117{fill-rule:evenodd;clip-rule:evenodd;fill:#F1B91B;}
	.st118{fill-rule:evenodd;clip-rule:evenodd;fill:#CEBDDB;}
	.st119{fill-rule:evenodd;clip-rule:evenodd;fill:#BFE8E6;}
	.st120{fill-rule:evenodd;clip-rule:evenodd;fill:#E8DCBF;}
	.st121{fill:#F9E6C5;}
	.st122{fill:#D9C5E8;}
	.st123{fill:#E8BFBF;}
	.st124{fill:#C0ACD1;}
	.st125{fill:#D1A7A7;}
	.st126{fill:#E5D1B5;}
	.st127{fill-rule:evenodd;clip-rule:evenodd;fill:#C0ACD1;}
	.st128{fill-rule:evenodd;clip-rule:evenodd;fill:#E5D1B5;}
	.st129{fill:#F7E7C9;}
	.st130{fill:#F2D3D5;}
	.st131{fill:#D6CAE5;}
	.st132{fill:#C7D8EF;}
	.st133{fill:#C8EDEB;}
	.st134{fill:#CDEAC7;}
	.st135{fill:#A7BACE;}
	.st136{fill:#B3E0DC;}
	.st137{fill:#C8B2DB;}
	.st138{fill:#92C6FF;}
	.st139{fill:#7AB3E5;}
	.st140{fill:#FFC6FF;}
	.st141{fill:#EBB0ED;}
	.st142{fill:#FFAEAD;}
	.st143{fill:#EF9A9A;}
	.st144{fill:#FFCD97;}
	.st145{fill:#EFBB89;}
	.st146{fill:#BFB0FF;}
	.st147{fill:#ADA6F7;}
	.st148{fill:#B4CFED;}
	.st149{fill:#C5E8BC;}
	.st150{fill:url(#SVGID_00000160890833619167833960000017441155281011646134_);}
	.st151{fill:#A4C2FF;}
	.st152{fill:#FBC8FF;}
	.st153{fill:#FFD7A6;}
	.st154{fill:#FFACAD;}
	.st155{fill:#BDB2FF;}
	.st156{fill-rule:evenodd;clip-rule:evenodd;fill:#AF3862;}
	.st157{fill-rule:evenodd;clip-rule:evenodd;fill:#8B5090;}
	.st158{fill-rule:evenodd;clip-rule:evenodd;fill:#2C4975;}
	.st159{fill-rule:evenodd;clip-rule:evenodd;fill:#FFD080;}
	.st160{fill-rule:evenodd;clip-rule:evenodd;fill:#FFA600;}
	.st161{fill:#FE6361;}
	.st162{fill:#BD5091;}
	.st163{fill:#BFEAB5;}
	.st164{fill:#5CC49C;}
	.st165{fill:#4F7EEA;}
	.st166{fill:#B8E269;}
	.st167{fill:#4C7273;}
	.st168{fill:#042630;}
	.st169{fill:#67E3E5;}
	.st170{fill:#82BFBE;}
	.st171{fill:#3A9EFD;}
	.st172{fill:#8C61FF;}
	.st173{fill:#44C2FD;}
	.st174{fill:#6592FD;}
	.st175{fill:#5F59F7;}
	.st176{fill:#343090;}
	.st177{fill-rule:evenodd;clip-rule:evenodd;fill:#AAA7D3;}
	.st178{fill-rule:evenodd;clip-rule:evenodd;fill:#503A65;}
	.st179{fill-rule:evenodd;clip-rule:evenodd;fill:#B7B7ED;}
	.st180{fill-rule:evenodd;clip-rule:evenodd;fill:#574F7D;}
	.st181{fill-rule:evenodd;clip-rule:evenodd;fill:#312144;}
	.st182{fill-rule:evenodd;clip-rule:evenodd;fill:#7D76AD;}
	.st183{fill-rule:evenodd;clip-rule:evenodd;fill:#5F59F7;}
	.st184{fill-rule:evenodd;clip-rule:evenodd;fill:#6592FD;}
	.st185{fill-rule:evenodd;clip-rule:evenodd;fill:#44C2FD;}
	.st186{fill-rule:evenodd;clip-rule:evenodd;fill:#8C61FF;}
	.st187{fill-rule:evenodd;clip-rule:evenodd;fill:#3A9EFD;}
	.st188{fill-rule:evenodd;clip-rule:evenodd;fill:#343090;}
	.st189{fill-rule:evenodd;clip-rule:evenodd;fill:#DEDEFF;}
	.st190{fill-rule:evenodd;clip-rule:evenodd;fill:#1C102D;}
	.st191{fill-rule:evenodd;clip-rule:evenodd;fill:#5CC49C;}
	.st192{fill-rule:evenodd;clip-rule:evenodd;fill:#B8E269;}
	.st193{fill-rule:evenodd;clip-rule:evenodd;fill:#67E3E5;}
	.st194{fill-rule:evenodd;clip-rule:evenodd;fill:#4F7EEA;}
	.st195{fill:#7D76AD;}
	.st196{fill:#AAA7D3;}
	.st197{fill:#312144;}
	.st198{fill:#503A65;}
</style>
<path class="st164" d="M157.17,97.46v0.29c0,0.27,0.01,0.54,0.04,0.8v0.13c0.09,0.97,0.3,1.8,0.67,2.69
	c0.01,0.07,0.04,0.13,0.07,0.19c0.19,0.49,0.43,0.94,0.71,1.39l0.21,0.39l11.55,20.14c0.39,0.69,0.61,1.49,0.66,2.19
	c0,0.53-0.06,1.04-0.19,1.53c-0.34,1.26-1.16,2.3-2.29,2.96c-2.13,1.21-4.8,0.66-6.29-1.23c-0.1-0.14-0.2-0.29-0.29-0.44
	c-0.04-0.04-0.07-0.09-0.1-0.14l-0.64-1.13l-12.68-22.12c-2.23-3.89-3.53-8.07-3.9-12.49c-0.09-0.9-0.11-1.8-0.11-2.7
	c0-10.8,5.8-20.98,15.31-26.42c4.69-2.67,9.86-4.04,15.12-4.04c2.67,0,5.37,0.36,8.03,1.07c7.86,2.14,14.41,7.2,18.46,14.28
	c2.54,4.44,3.92,9.36,4.02,14.38c-3.63-1.23-7.45-1.87-11.39-1.87l-26.72-0.01c-0.01,0-0.01,0-0.01,0c-5.32,0-9.72,4.09-10.19,9.29
	C157.19,96.83,157.17,97.15,157.17,97.46z M175.08,34.45c-4.72,0-8.55,3.83-8.55,8.55c0,4.72,3.83,8.55,8.55,8.55
	c4.72,0,8.55-3.83,8.55-8.55C183.64,38.28,179.81,34.45,175.08,34.45z"/>
<path class="st165" d="M195.63,115.1l-13.32,23.27c-2.22,3.87-5.17,7.13-8.79,9.67c-9.63,6.89-22.51,7.53-32.81,1.64
	c-7.07-4.04-12.13-10.6-14.28-18.46c-2.13-7.86-1.09-16.08,2.96-23.15c2.54-4.44,6.1-8.12,10.38-10.75
	c0.77,3.76,2.16,7.37,4.14,10.78l13.18,22.47l0.23,0.41c0.23,0.41,0.5,0.8,0.79,1.17c0.13,0.17,0.29,0.36,0.43,0.53
	c3.16,3.66,8.57,4.67,12.9,2.16c1.84-1.07,2.84-2.1,3.96-4.06l11.75-20.54c0.4-0.69,0.96-1.29,1.56-1.67
	c0.46-0.27,0.93-0.47,1.4-0.6c0.2-0.06,0.4-0.09,0.59-0.11c1.09-0.17,2.17,0.03,3.13,0.57c1.03,0.59,1.76,1.5,2.14,2.54
	c0.06,0.16,0.11,0.33,0.16,0.49C196.42,112.64,196.29,113.95,195.63,115.1z M162.05,128.46c-0.04-0.04-0.07-0.09-0.1-0.14
	l-0.64-1.13L162.05,128.46z M107.31,148.73c2.36,4.09,7.6,5.49,11.69,3.13s5.49-7.6,3.13-11.69s-7.6-5.49-11.69-3.13
	C106.35,139.41,104.95,144.64,107.31,148.73z"/>
<path class="st166" d="M224.68,123.23c0,16.81-13.68,30.48-30.5,30.48c-5.12,0-10.06-1.26-14.48-3.66c2.87-2.54,5.33-5.54,7.3-8.95
	l13.29-23.21c1.53-2.67,1.71-5.76,0.77-8.47c-0.11-0.36-0.26-0.73-0.44-1.07c-0.84-1.86-2.27-3.47-4.17-4.56
	c-1.86-1.06-3.97-1.5-6.07-1.29h-22.99c-0.8,0-1.59-0.19-2.22-0.51c-0.47-0.26-0.89-0.57-1.23-0.91c-0.23-0.23-0.43-0.47-0.6-0.71
	l-0.04-0.09c-0.2-0.3-0.36-0.61-0.49-0.94c-0.14-0.36-0.23-0.73-0.27-1.11c0-0.01,0-0.03,0-0.03c-0.03-0.21-0.03-0.44-0.03-0.71
	c0-0.29,0.03-0.57,0.09-0.84c0.46-2.22,2.43-3.9,4.79-3.9h26.8c4.47,0,8.76,0.96,12.78,2.83
	C217.72,100.51,224.68,111.37,224.68,123.23z M242.7,148.7c2.35-4.1,0.94-9.32-3.16-11.68c-4.1-2.35-9.32-0.94-11.68,3.16
	c-2.35,4.1-0.94,9.32,3.16,11.68C235.12,154.21,240.35,152.8,242.7,148.7z"/>
</svg>
