<?xml version="1.0" encoding="utf-8"?>
<!-- Generator: Adobe Illustrator 27.8.1, SVG Export Plug-In . SVG Version: 6.00 Build 0)  -->
<svg version="1.1" xmlns="http://www.w3.org/2000/svg" xmlns:xlink="http://www.w3.org/1999/xlink" x="0px" y="0px"
	 viewBox="0 0 350 230" style="enable-background:new 0 0 350 230;" xml:space="preserve">
<style type="text/css">
	.st0{fill:#FFFCCA;}
	.st1{fill:#E4FFCC;}
	.st2{fill:#CDFFCC;}
	.st3{fill:#CCFFF5;}
	.st4{fill:#CCE3FF;}
	.st5{fill:#300000;}
	.st6{fill:#F0FFCF;}
	.st7{fill:#FFCCCC;}
	.st8{fill:#00F9FF;}
	.st9{fill:#FFE9CC;}
	.st10{fill:#CCFFE3;}
	.st11{fill:#7BC7FF;}
	.st12{fill:#FFFFFF;}
	.st13{opacity:0.75;fill:#E1F3FF;enable-background:new    ;}
	.st14{fill:#DCE9F4;}
	.st15{fill:#012A5B;}
	.st16{fill:#A2BE3B;}
	.st17{fill:#0071A9;}
	.st18{fill-rule:evenodd;clip-rule:evenodd;fill:#00AEEF;}
	.st19{fill:#196AB4;}
	.st20{fill-rule:evenodd;clip-rule:evenodd;fill:#CEFF00;}
	.st21{fill-rule:evenodd;clip-rule:evenodd;fill:#00374C;}
	.st22{fill:#00CFFF;}
	.st23{fill:#00C605;}
	.st24{fill:none;}
	.st25{fill:#720041;}
	.st26{fill:#29ABE2;}
	.st27{fill:#29B574;}
	.st28{fill:#273A93;}
	.st29{fill:#7BC143;}
	.st30{fill:#019AC4;}
	.st31{fill:#A3CD39;}
	.st32{fill:#26A6D8;}
	.st33{fill:#00AEEF;}
	.st34{fill:#00B9F2;}
	.st35{fill:#8DC63F;}
	.st36{fill:#2A66B1;}
	.st37{fill:#5BC6F2;}
	.st38{fill:#4171B8;}
	.st39{fill:#4C015E;}
	.st40{fill:#00333F;}
	.st41{fill:url(#SVGID_1_);}
	.st42{fill:url(#SVGID_00000159457484613019592800000013557562986799901069_);}
	.st43{fill:url(#SVGID_00000146475567559840666820000005090437232012198325_);}
	.st44{fill:#1CC7EC;}
	.st45{fill:#00426C;}
	.st46{fill:url(#SVGID_00000065773722496061297980000002269643203121617575_);}
	.st47{fill:url(#SVGID_00000002344525852518014280000016788917954207047845_);}
	.st48{fill:url(#SVGID_00000142166534645014960520000005399401363568868486_);}
	.st49{fill:#F6921E;}
	.st50{fill:#E8BD7F;}
	.st51{fill:#0580A5;}
	.st52{fill:#EC1C24;}
	.st53{fill:#111A37;}
	.st54{fill:#FFD99B;}
	.st55{fill:#EF4F5A;}
	.st56{fill:#58595B;}
	.st57{fill:#C9424C;}
	.st58{fill:url(#SVGID_00000098185544234623110270000014298626364145712522_);}
	.st59{fill:#05417D;}
	.st60{fill:#14B6B2;}
	.st61{fill:#FFFFFF;stroke:#05417D;stroke-width:1.3474;stroke-miterlimit:10;}
	.st62{fill:#00A0FF;}
	.st63{fill:#E6F1F4;}
	.st64{fill:url(#SVGID_00000059296992426021064780000003193753601352684201_);}
	.st65{fill:url(#SVGID_00000065039482840393404030000009380896153290339504_);}
	.st66{fill:url(#SVGID_00000138538020095224972080000008976613421480445591_);}
	.st67{fill:url(#SVGID_00000016767143365429004680000011194280291639233714_);}
	.st68{fill:url(#SVGID_00000031922183389413485620000015772034946397386152_);}
	.st69{fill:#003359;}
	.st70{fill:#1779C1;}
	.st71{fill:url(#SVGID_00000054232666727528241320000013014837596669494179_);}
	.st72{fill:url(#SVGID_00000173848559693705086400000006814592457445356475_);}
	.st73{fill:url(#SVGID_00000140735136019565804310000017045730401011546270_);}
	.st74{opacity:0.45;fill:url(#SVGID_00000047745985849849782940000000029752973826189696_);}
	.st75{fill:url(#SVGID_00000040546476485179424240000015834863357903320987_);}
	.st76{fill:url(#SVGID_00000023993116198604166310000008194192717216077483_);}
	.st77{fill:url(#SVGID_00000052819676463371298170000007549163338456787591_);}
	.st78{fill:url(#SVGID_00000133493031460328559810000014171313923715860378_);}
	.st79{fill:#144866;}
	.st80{fill:#F78E3B;}
	.st81{fill:url(#XMLID_00000180343218840357670240000001425808654428760467_);}
	.st82{fill:#33ADDD;}
</style>
<g id="Layer_1">
</g>
<g id="Layer_2">
</g>
<g id="Layer_3">
</g>
<g id="Layer_4">
</g>
<g id="Layer_5">
</g>
<g id="Layer_6">
</g>
<g id="Layer_7">
</g>
<g id="Layer_8">
</g>
<g id="Layer_9">
</g>
<g id="Layer_10">
</g>
<g id="Layer_11">
</g>
<g id="Layer_12">
</g>
<g id="Layer_13">
</g>
<g id="Layer_14">
</g>
<g id="Layer_15">
	<g>
		<path class="st8" d="M138.68,118.51l-0.04,0.1c0.86,0.3,1.53,1.05,1.67,2.01c0.2,1.38-0.76,2.65-2.14,2.85
			c-1.05,0.15-2.04-0.37-2.54-1.24l-3.85,3.16l-2.71-6.17c-0.33,0.13-0.68,0.22-1.04,0.27c-2.65,0.38-5.11-1.47-5.48-4.12
			c-0.38-2.65,1.47-5.11,4.12-5.48c2.6-0.37,5.01,1.4,5.46,3.97l0.02,0c-0.18-1.81,1.09-3.46,2.91-3.72c1.87-0.27,3.6,1.03,3.87,2.9
			c0.15,1.03-0.19,2-0.82,2.72l0.02,0.02c0.25-0.25,0.57-0.42,0.94-0.47c0.91-0.13,1.75,0.5,1.88,1.41c0.13,0.91-0.5,1.75-1.41,1.88
			C139.23,118.66,138.94,118.62,138.68,118.51z M199.53,118.73c0.08-1.31-0.92-2.43-2.23-2.51c-0.54-0.03-1.04,0.13-1.45,0.4
			c-0.29-1.5-1.56-2.68-3.16-2.78c-1.89-0.11-3.52,1.33-3.63,3.23c-0.05,0.89,0.25,1.72,0.77,2.36c-0.2-0.07-0.42-0.12-0.64-0.13
			c-1.14-0.07-2.14,0.65-2.5,1.68c-1.11-1.36-2.8-2.22-4.69-2.22c-1.52,0-2.9,0.56-3.97,1.48c0.06-0.27,0.09-0.56,0.09-0.85
			c0-2.3-1.87-4.17-4.17-4.17c-1.05,0-1.99,0.4-2.73,1.04c-0.28-2.53-2.43-4.51-5.04-4.51c-2.79,0-5.05,2.25-5.07,5.03
			c-0.57-0.61-1.38-0.99-2.27-0.99c-1.73,0-3.14,1.4-3.14,3.14c0,0.08,0.02,0.16,0.02,0.24c-0.81-0.6-1.81-0.96-2.9-0.96
			c-2.33,0-4.27,1.63-4.76,3.81c-0.65-0.75-1.6-1.24-2.67-1.24c-1.96,0-3.55,1.59-3.55,3.55c0,1.55,1.01,2.86,2.4,3.34v1.37
			c0,0,8.57,3.44,21.02,3.44c7.62,0,12.85-0.93,15.77-1.66c0.32,0.05,0.64,0.08,0.97,0.08c3.35,0,6.31-1.09,6.31-4.45
			c0-0.25-0.02-0.5-0.05-0.75c0.27,0.12,0.57,0.21,0.88,0.22c0.8,0.05,2.43-0.88,2.93-1.44l0,0l6.27-3.85l0,0
			C199.01,120.26,199.48,119.56,199.53,118.73z M198.89,75.31c0,2.05,1.67,3.72,3.72,3.72c2.05,0,3.72-1.67,3.72-3.72
			c0-2.05-1.67-3.72-3.72-3.72C200.56,71.59,198.89,73.26,198.89,75.31z M204.41,71.7c0,1.36,1.1,2.46,2.46,2.46
			c1.36,0,2.46-1.1,2.46-2.46s-1.1-2.46-2.46-2.46C205.51,69.24,204.41,70.34,204.41,71.7z M192.04,73.31c0,1.11,0.9,2.01,2.01,2.01
			s2.01-0.9,2.01-2.01s-0.9-2.01-2.01-2.01S192.04,72.2,192.04,73.31z"/>
		<path class="st59" d="M108.67,79.77c0-14.31,5.1-27.96,13.72-38.04c-7.52,9.29-11.91,21.68-11.91,34.56
			c0,29.85,24.2,54.05,54.05,54.05c16.3,0,30.9-7.22,40.81-18.63l5.92,4.25c-10.57,13.11-26.76,21.5-44.91,21.5
			C134.5,137.45,108.67,111.63,108.67,79.77z"/>
		<path class="st60" d="M211.27,115.95l11.78,8.23c-13.2,17.2-32.29,26.39-53.98,26.39c-35.44,0-64.16-28.73-64.16-64.16
			c0-17.24,6.41-34.29,20.6-48.03c-0.09,0.1-0.17,0.21-0.25,0.32c-10.41,13.4-16.58,26.77-16.58,41.08
			c0,31.86,25.83,57.68,57.68,57.68C184.51,137.45,200.69,129.06,211.27,115.95z"/>
		<path class="st12" d="M135.91,122.61c-0.1-0.11-0.19-0.24-0.27-0.37l-0.23,0.19c0.29,0.19,0.59,0.37,0.88,0.55
			c-0.12-0.09-0.23-0.2-0.33-0.31C135.94,122.65,135.92,122.63,135.91,122.61z M211.38,115.37l-0.21-0.15l-5.91-4.24l-0.32,0.37
			c-0.42,0.49-0.86,0.97-1.31,1.44c-1.44,1.56-2.98,3.02-4.59,4.37c-9.59,8.11-21.79,12.64-34.5,12.64c-8.1,0-15.78-1.81-22.67-5.04
			c-1.01-0.47-1.99-0.97-2.96-1.51c-5.66-3.1-10.71-7.2-14.91-12.05c-8.08-9.38-12.98-21.59-12.98-34.92
			c0-6.43,1.14-12.86,3.27-18.84c1.04-2.93,2.32-5.76,3.82-8.43c0.05-0.09,0.1-0.18,0.16-0.27c1.05-1.86,2.21-3.63,3.47-5.31
			c0.02-0.03,0.04-0.06,0.06-0.08c0.33-0.44,0.67-0.87,1.01-1.29l-0.06-0.05l-0.35-0.29l-0.08-0.07l-0.33-0.27
			c-1.82,2.13-3.49,4.42-4.98,6.84c-0.01,0.02-0.03,0.04-0.03,0.06c-1.22,1.97-2.32,4.03-3.3,6.16c-3.3,7.2-5.22,15.17-5.5,23.24
			c-0.01,0.35-0.02,0.7-0.03,1.05c-0.01,0.34-0.01,0.69-0.01,1.04c0,32.1,26.12,58.21,58.22,58.21c1.24,0,2.47-0.04,3.69-0.12
			c0.42-0.02,0.83-0.05,1.25-0.09c1.77-0.15,3.52-0.37,5.26-0.69c0.89-0.15,1.78-0.33,2.66-0.52c0.73-0.17,1.45-0.35,2.18-0.55
			c0.36-0.09,0.71-0.19,1.07-0.29c2.1-0.6,4.15-1.32,6.16-2.15c0.47-0.19,0.93-0.39,1.39-0.6c0.49-0.21,0.98-0.44,1.46-0.67
			c0.51-0.24,1.01-0.49,1.51-0.75c0.45-0.23,0.9-0.47,1.35-0.72c0.47-0.26,0.94-0.52,1.4-0.79c0.59-0.35,1.18-0.71,1.76-1.08
			c0.32-0.2,0.65-0.41,0.97-0.63c0.45-0.29,0.89-0.6,1.33-0.91c0.35-0.24,0.69-0.48,1.03-0.74c0.36-0.26,0.71-0.53,1.06-0.8
			c0.71-0.54,1.4-1.1,2.08-1.69c0.3-0.25,0.59-0.5,0.88-0.76c0.96-0.84,1.89-1.72,2.8-2.65c0.26-0.26,0.51-0.52,0.76-0.78
			c0.68-0.7,1.33-1.41,1.96-2.15c0.16-0.17,0.31-0.35,0.45-0.53c0.29-0.34,0.58-0.69,0.86-1.04l0.02-0.03l0.34-0.41L211.38,115.37z
			 M209.65,117.05l-0.15,0.18c-0.25,0.29-0.5,0.57-0.76,0.85c-0.35,0.4-0.72,0.8-1.1,1.18c-0.18,0.2-0.37,0.4-0.56,0.58
			c-0.19,0.2-0.38,0.38-0.57,0.57c-0.22,0.23-0.45,0.45-0.68,0.66c-0.25,0.26-0.51,0.5-0.77,0.74c-0.48,0.43-0.96,0.87-1.46,1.29
			c-0.28,0.26-0.58,0.5-0.87,0.74c-0.33,0.28-0.66,0.55-1,0.81c-0.41,0.33-0.83,0.66-1.26,0.97c-0.41,0.31-0.83,0.61-1.25,0.91
			c-0.24,0.17-0.49,0.34-0.73,0.5c-0.3,0.21-0.6,0.41-0.91,0.61c-1.22,0.8-2.48,1.56-3.76,2.26c-0.35,0.19-0.7,0.38-1.06,0.57
			c-1.04,0.54-2.1,1.06-3.17,1.53c-0.48,0.21-0.96,0.42-1.45,0.62c-0.39,0.16-0.77,0.32-1.16,0.47c-0.76,0.29-1.53,0.57-2.29,0.83
			c-0.89,0.3-1.79,0.58-2.69,0.83c-0.59,0.17-1.18,0.33-1.77,0.47c-0.89,0.23-1.78,0.43-2.69,0.61c-1.76,0.34-3.54,0.61-5.33,0.79
			c-0.35,0.04-0.71,0.07-1.06,0.1c-1.59,0.13-3.18,0.2-4.79,0.2c-12.94,0-24.89-4.32-34.48-11.6c-0.06-0.05-0.13-0.09-0.19-0.15
			c-2.59-1.98-5.01-4.18-7.23-6.57c-0.01-0.01-0.01-0.01-0.02-0.02c-0.42-0.46-0.85-0.94-1.26-1.41c-0.01-0.01-0.02-0.02-0.02-0.02
			c-8.69-10.03-13.95-23.11-13.95-37.38c0-0.42,0.01-0.84,0.02-1.26c0-0.4,0.01-0.81,0.04-1.21c0.16-4.05,0.75-8.07,1.73-11.98
			c-0.23,1.19-0.42,2.39-0.57,3.6c-0.31,2.43-0.47,4.88-0.47,7.36c0,13.66,5.04,26.16,13.35,35.74c3.5,4.03,7.58,7.54,12.1,10.41
			c0.29,0.19,0.59,0.37,0.88,0.55c0.02,0.01,0.03,0.02,0.04,0.03c0.01,0.01,0.03,0.01,0.04,0.02c0.12,0.06,0.22,0.13,0.34,0.2
			c1.82,1.08,3.71,2.06,5.65,2.93c6.78,3.03,14.29,4.71,22.18,4.71c12.86,0,25.21-4.54,34.95-12.7c1.75-1.45,3.42-3.03,4.98-4.71
			c0.33-0.35,0.65-0.7,0.96-1.05l5.06,3.63l0.01,0.01c-0.22,0.27-0.45,0.54-0.69,0.81C209.76,116.92,209.7,116.99,209.65,117.05z
			 M135.96,122.67c-0.02-0.02-0.04-0.04-0.05-0.06c-0.1-0.11-0.19-0.24-0.27-0.37l-0.23,0.19c0.29,0.19,0.59,0.37,0.88,0.55
			C136.17,122.89,136.06,122.79,135.96,122.67z M211.38,115.37l-0.21-0.15l-0.32,0.39c-0.01,0.01-0.01,0.01-0.02,0.02
			c-0.11,0.14-0.22,0.28-0.34,0.41c-0.22,0.28-0.45,0.55-0.68,0.82c-0.05,0.06-0.11,0.13-0.16,0.19s-0.1,0.11-0.16,0.17
			c-0.24,0.29-0.49,0.58-0.75,0.86c-0.35,0.4-0.72,0.8-1.1,1.18c-0.18,0.2-0.37,0.39-0.56,0.58c-0.19,0.2-0.38,0.38-0.57,0.57
			c-0.22,0.23-0.45,0.45-0.68,0.66c-0.25,0.25-0.51,0.49-0.77,0.74c-0.48,0.43-0.96,0.87-1.46,1.29c-0.29,0.25-0.58,0.5-0.87,0.74
			c-0.33,0.28-0.66,0.55-1,0.81c-0.42,0.33-0.84,0.65-1.26,0.97c-0.41,0.31-0.83,0.61-1.25,0.91c-0.24,0.17-0.49,0.34-0.73,0.5
			c-0.3,0.21-0.6,0.41-0.91,0.61c-1.22,0.8-2.48,1.56-3.76,2.26c-0.35,0.19-0.7,0.38-1.06,0.57c-1.04,0.54-2.1,1.06-3.17,1.53
			c-0.48,0.22-0.97,0.42-1.45,0.62c-0.39,0.16-0.77,0.32-1.16,0.47c-0.76,0.29-1.53,0.57-2.29,0.83c-0.89,0.3-1.79,0.58-2.69,0.83
			c-0.59,0.17-1.18,0.33-1.77,0.47c-0.89,0.23-1.78,0.43-2.69,0.61c-1.76,0.34-3.54,0.61-5.33,0.79c-0.35,0.04-0.71,0.07-1.06,0.1
			c-1.59,0.13-3.18,0.2-4.79,0.2c-12.94,0-24.89-4.32-34.48-11.6c-0.06-0.05-0.13-0.09-0.19-0.15c-2.59-1.98-5.01-4.18-7.23-6.57
			c-0.01-0.01-0.01-0.01-0.02-0.02c-0.42-0.46-0.85-0.94-1.26-1.41c-0.01-0.01-0.02-0.02-0.02-0.02
			c-8.69-10.03-13.95-23.11-13.95-37.38c0-0.42,0.01-0.84,0.02-1.26c0.01-0.4,0.02-0.81,0.04-1.21c0.15-2.78,0.53-5.57,1.16-8.38
			c0.4-1.83,0.91-3.67,1.53-5.52l0.01-0.01c0.65-1.97,1.43-3.95,2.32-5.95c2.71-6.02,6.51-12.17,11.44-18.5l0.18-0.23l-0.78-0.73
			c-13.58,13.15-20.76,29.89-20.76,48.42c0,35.67,29.03,64.69,64.7,64.69c21.45,0,40.4-9.03,53.52-25.47
			c0.3-0.37,0.59-0.74,0.88-1.12l0.34-0.44L211.38,115.37z M169.07,150.03c-35.09,0-63.63-28.55-63.63-63.63
			c0-11.5,2.81-22.3,8.24-31.96c1.14-2.02,2.39-3.99,3.75-5.9c0.01-0.02,0.02-0.03,0.04-0.05c0.54-0.77,1.11-1.53,1.69-2.28
			c0.01-0.01,0.01-0.01,0.01-0.02c0.15-0.18,0.29-0.36,0.43-0.54c-0.86,1.32-1.67,2.63-2.43,3.93c-0.01,0.02-0.02,0.04-0.03,0.06
			c-2.29,3.88-4.12,7.72-5.52,11.51v0.01c-2.07,5.57-3.21,11.06-3.44,16.52c-0.01,0.35-0.02,0.7-0.03,1.05
			c-0.01,0.34-0.01,0.69-0.01,1.04c0,32.1,26.12,58.21,58.22,58.21c1.24,0,2.47-0.04,3.69-0.12c0.42-0.02,0.83-0.05,1.25-0.09
			c1.77-0.15,3.52-0.37,5.26-0.69c0.89-0.15,1.78-0.33,2.66-0.52c0.73-0.17,1.45-0.35,2.18-0.55c0.36-0.09,0.71-0.19,1.07-0.29
			c2.1-0.6,4.15-1.32,6.16-2.15c0.47-0.19,0.93-0.39,1.39-0.6c0.49-0.21,0.98-0.44,1.46-0.67c0.51-0.24,1.01-0.49,1.51-0.75
			c0.45-0.23,0.9-0.47,1.35-0.72c0.47-0.26,0.94-0.52,1.4-0.79c0.59-0.35,1.18-0.71,1.76-1.08c0.32-0.2,0.65-0.41,0.97-0.63
			c0.45-0.29,0.89-0.6,1.33-0.91c0.35-0.24,0.69-0.48,1.03-0.74c0.36-0.26,0.71-0.53,1.06-0.8c0.71-0.54,1.4-1.1,2.08-1.69
			c0.3-0.25,0.59-0.5,0.88-0.76c0.96-0.84,1.89-1.72,2.8-2.65c0.26-0.26,0.51-0.52,0.76-0.78c0.68-0.7,1.33-1.41,1.96-2.15
			c0.16-0.17,0.31-0.35,0.45-0.53c0.19-0.22,0.37-0.43,0.55-0.65l10.92,7.62c-0.21,0.27-0.42,0.54-0.64,0.8
			C208.73,141.18,190.12,150.03,169.07,150.03z M204.88,137.53l-0.61-0.88c5.1-3.52,9.83-7.61,14.04-12.15l0.78,0.73
			C214.83,129.83,210.04,133.97,204.88,137.53z M200.69,123.72l-0.64-0.85c-1.49,1.12-3.07,2.15-4.69,3.07l0.52,0.93
			C197.54,125.92,199.16,124.86,200.69,123.72z M142.11,134.94c-4.48-1.59-9.46-4.99-9.52-5.02c-4.16-2.77-7.81-6.19-10.83-10.18
			l-0.85,0.64c3.09,4.08,6.82,7.59,11.08,10.42c0.21,0.14,5.15,3.51,9.76,5.14L142.11,134.94z M132.03,132.39
			c-1.83-1.25-3.58-2.64-5.19-4.16l-0.73,0.78c1.65,1.55,3.44,2.98,5.32,4.26L132.03,132.39z M169.75,144.35
			c0.51,0.07,1,0.26,1.32,0.66c0.33,0.39,0.38,0.85,0.37,1.44c-0.01-0.58,0.08-1.04,0.41-1.44c0.33-0.39,0.81-0.59,1.32-0.66
			c-0.51-0.07-1-0.26-1.32-0.66c-0.33-0.39-0.41-0.85-0.41-1.44c0.01,0.59-0.05,1.04-0.37,1.44
			C170.75,144.09,170.26,144.28,169.75,144.35z M162.27,142.25c0.38,0.05,0.75,0.2,1,0.49c0.25,0.3,0.29,0.64,0.28,1.08
			c-0.01-0.44,0.06-0.79,0.31-1.08c0.25-0.3,0.61-0.44,1-0.49c-0.38-0.05-0.75-0.2-1-0.49c-0.25-0.3-0.31-0.64-0.31-1.08
			c0.01,0.45-0.03,0.79-0.28,1.08C163.02,142.06,162.65,142.2,162.27,142.25z M115.88,116.82c0.38,0.05,0.75,0.2,1,0.49
			c0.25,0.3,0.29,0.64,0.28,1.08c-0.01-0.44,0.06-0.79,0.31-1.08c0.25-0.3,0.61-0.44,1-0.49c-0.38-0.05-0.75-0.2-1-0.49
			c-0.25-0.3-0.31-0.64-0.31-1.08c0.01,0.45-0.03,0.79-0.28,1.08C116.63,116.63,116.26,116.77,115.88,116.82z M189.95,137.09
			c0.67,0.09,1.3,0.34,1.73,0.86c0.43,0.52,0.5,1.11,0.49,1.88c-0.01-0.77,0.11-1.37,0.53-1.88c0.43-0.52,1.07-0.77,1.73-0.86
			c-0.67-0.09-1.3-0.34-1.73-0.86c-0.43-0.52-0.54-1.12-0.53-1.88c0.01,0.78-0.06,1.37-0.49,1.88
			C191.25,136.75,190.61,137.01,189.95,137.09z M233.66,106.3c-0.51,0.72-1.51,0.88-2.22,0.37l0.33,0.24l0.24,0.17
			c0.71,0.51,0.88,1.51,0.37,2.22c-0.51,0.72-1.51,0.88-2.22,0.37l-0.36-0.25l-0.19-0.14c0.42,0.32,0.64,0.8,0.64,1.29
			c0,0.32-0.09,0.64-0.29,0.92c-0.51,0.72-1.51,0.88-2.22,0.37l-1.3-0.92l-0.05-0.03c0.58,0.54,0.69,1.44,0.22,2.11
			c-0.51,0.71-1.51,0.88-2.23,0.37l-9.75-6.97c-0.95-0.67-1.8-1.41-2.48-2.04c0.71-0.86,1.4-1.73,2.06-2.62
			c2.49-3.35,5.09-6.37,7.5-9.58c0.35,0.09,0.56,0.17,0.56,0.17c0.11,0.04,0.21,0.1,0.31,0.17l6.96,4.96
			c0.71,0.51,0.88,1.51,0.37,2.23c-0.46,0.64-1.32,0.84-2.01,0.5c-0.08-0.04-0.15-0.08-0.22-0.13l5.61,4
			C234.01,104.59,234.17,105.59,233.66,106.3z"/>
		<path class="st61" d="M223.37,96.59l4.36,3.11l1.22,0.87 M231.27,106.16l-6-4.33 M229.44,108.77l-6.07-4.28 M226.22,110.4
			l-4.68-3.35 M220.01,91.48c-0.56,0-1.18,0.08-1.82,0.3l-3.18-2.28l-7.58,10.62v0.01l2.9,2.07c0,0,0.63,0.73,1.65,1.67
			c0.71-0.86,1.4-1.73,2.06-2.62c2.49-3.35,5.09-6.37,7.5-9.58C221.17,91.58,220.63,91.48,220.01,91.48z M212.28,87.55l-7.58,10.62
			l2.73,1.95l7.58-10.62L212.28,87.55z M225.3,123.79c-0.42-0.15-0.83-0.36-1.18-0.64 M223.05,122.47
			c-0.44-0.21-0.88-0.44-1.29-0.71 M220.39,121.02c-0.44-0.27-0.87-0.54-1.3-0.81 M217.89,119.17c-0.35-0.26-0.73-0.5-1.13-0.69
			 M242.31,99.56c-0.15,0.46-0.35,0.91-0.59,1.32 M241.25,102.15c-0.91,2-2.07,3.89-3.44,5.61 M211.38,115.37l-0.21-0.15l-5.91-4.24
			l-0.32,0.37c-0.42,0.49-0.86,0.97-1.31,1.44c0.14,0.11,0.28,0.23,0.43,0.34c0.14,0.11,0.27,0.22,0.41,0.33
			c1.61,1.25,3.29,2.51,5.02,3.76l0.01,0.01c0.14,0.1,0.29,0.2,0.43,0.31c0.14,0.1,0.29,0.2,0.44,0.31
			c3.65,2.58,7.49,5.07,11.28,7.24c0.15,0.09,0.31,0.18,0.47,0.26c0.15,0.09,0.31,0.18,0.47,0.27c0.3-0.37,0.59-0.74,0.88-1.12
			l0.34-0.44L211.38,115.37z M245.63,98.51c-5.55,12.55-12.96,21.64-20.84,28.3c-0.73-0.38-1.47-0.78-2.2-1.19
			c0.3-0.37,0.59-0.74,0.88-1.12l0.34-0.44l-12.43-8.69l-0.21-0.15l-5.91-4.24l-0.32,0.37c-0.42,0.49-0.86,0.97-1.31,1.44
			c-0.11-0.09-0.22-0.17-0.33-0.26c3.16-2.6,6.08-5.5,8.68-8.66c0.68,0.63,1.53,1.37,2.48,2.04l9.75,6.97
			c0.72,0.51,1.72,0.34,2.23-0.37c0.47-0.67,0.36-1.57-0.22-2.11l0.05,0.03l1.3,0.92c0.71,0.51,1.71,0.35,2.22-0.37
			c0.2-0.28,0.29-0.6,0.29-0.92c0-0.49-0.22-0.97-0.64-1.29l0.19,0.14l0.36,0.25c0.71,0.51,1.71,0.35,2.22-0.37
			c0.51-0.71,0.34-1.71-0.37-2.22l-0.24-0.17l-0.33-0.24c0.71,0.51,1.71,0.35,2.22-0.37c0.51-0.71,0.35-1.71-0.37-2.22l-5.61-4
			c0.07,0.05,0.14,0.09,0.22,0.13c0.69,0.34,1.55,0.14,2.01-0.5c0.51-0.72,0.34-1.72-0.37-2.23l-6.96-4.96
			c-0.1-0.07-0.2-0.13-0.31-0.17c0,0-0.21-0.08-0.56-0.17c1.36-1.8,2.67-3.66,3.86-5.67C231.83,90.75,238.65,95,245.63,98.51z"/>
		<path class="st12" d="M156.71,73.87c1.38-1.67,1.6-3.59,1.57-6.1c-0.03,2.48,0.34,4.42,1.73,6.1c1.38,1.67,3.45,2.5,5.61,2.78
			c-2.15,0.28-4.22,1.11-5.61,2.78c-1.38,1.67-1.76,3.62-1.73,6.1c0.03-2.51-0.19-4.42-1.57-6.1c-1.38-1.67-3.45-2.5-5.61-2.78
			C153.26,76.37,155.33,75.55,156.71,73.87z M133.53,73.08c1.5,0.2,2.93,0.77,3.89,1.93c0.96,1.16,1.11,2.49,1.09,4.23
			c-0.02-1.72,0.24-3.07,1.2-4.23c0.96-1.16,2.4-1.74,3.89-1.93c-1.5-0.2-2.93-0.77-3.89-1.93c-0.96-1.16-1.22-2.51-1.2-4.23
			c0.02,1.74-0.13,3.07-1.09,4.23C136.47,72.31,135.03,72.89,133.53,73.08z M144.48,84.06c1.06,0.14,2.09,0.55,2.77,1.38
			c0.68,0.83,0.79,1.77,0.78,3.02c-0.02-1.23,0.17-2.19,0.85-3.02c0.68-0.83,1.71-1.24,2.77-1.38c-1.06-0.14-2.09-0.55-2.77-1.38
			s-0.87-1.79-0.85-3.02c0.02,1.24-0.09,2.19-0.78,3.02C146.57,83.51,145.54,83.92,144.48,84.06z M149.99,55.72
			c1.38-1.67,1.6-3.59,1.57-6.1c-0.03,2.48,0.34,4.42,1.73,6.1c1.38,1.67,3.45,2.5,5.61,2.78c-2.15,0.28-4.22,1.11-5.61,2.78
			c-1.38,1.67-1.76,3.62-1.73,6.1c0.03-2.51-0.19-4.42-1.57-6.1c-1.38-1.67-3.45-2.5-5.61-2.78
			C146.53,58.22,148.6,57.39,149.99,55.72z M126.81,54.93c1.5,0.2,2.93,0.77,3.89,1.93c0.96,1.16,1.11,2.49,1.09,4.23
			c-0.02-1.72,0.24-3.07,1.2-4.23c0.96-1.16,2.4-1.74,3.89-1.93c-1.5-0.2-2.93-0.77-3.89-1.93c-0.96-1.16-1.22-2.51-1.2-4.23
			c0.02,1.74-0.13,3.07-1.09,4.23C129.74,54.16,128.3,54.73,126.81,54.93z M137.75,65.9c1.06,0.14,2.09,0.55,2.77,1.38
			c0.68,0.83,0.79,1.77,0.78,3.02c-0.02-1.23,0.17-2.19,0.85-3.02c0.68-0.83,1.71-1.24,2.77-1.38c-1.06-0.14-2.09-0.55-2.77-1.38
			c-0.68-0.83-0.87-1.79-0.85-3.02c0.02,1.24-0.09,2.19-0.78,3.02C139.84,65.35,138.82,65.76,137.75,65.9z M232.86,83.91
			c0.51,0.07,1,0.26,1.32,0.66c0.33,0.39,0.38,0.85,0.37,1.44c-0.01-0.58,0.08-1.04,0.41-1.44c0.33-0.39,0.81-0.59,1.32-0.66
			c-0.51-0.07-1-0.26-1.32-0.66c-0.33-0.39-0.41-0.85-0.41-1.44c0.01,0.59-0.05,1.04-0.37,1.44
			C233.85,83.64,233.36,83.84,232.86,83.91z M136.97,100.5c0.59,0.08,1.16,0.3,1.54,0.76c0.38,0.46,0.44,0.99,0.43,1.68
			c-0.01-0.68,0.09-1.22,0.47-1.68c0.38-0.46,0.95-0.69,1.54-0.76c-0.59-0.08-1.16-0.3-1.54-0.76s-0.48-1-0.47-1.68
			c0.01,0.69-0.05,1.22-0.43,1.68C138.13,100.19,137.56,100.42,136.97,100.5z M130.48,104.04c0.51,0.07,1,0.26,1.32,0.66
			c0.33,0.39,0.38,0.85,0.37,1.44c-0.01-0.58,0.08-1.04,0.41-1.44c0.33-0.39,0.81-0.59,1.32-0.66c-0.51-0.07-1-0.26-1.32-0.66
			c-0.33-0.39-0.41-0.85-0.41-1.44c0.01,0.59-0.05,1.04-0.37,1.44C131.48,103.78,130.99,103.98,130.48,104.04z M240.76,86
			c0.67,0.09,1.3,0.34,1.73,0.86c0.43,0.52,0.5,1.11,0.49,1.88c-0.01-0.77,0.11-1.37,0.53-1.88c0.43-0.52,1.07-0.77,1.73-0.86
			c-0.67-0.09-1.3-0.34-1.73-0.86c-0.43-0.52-0.54-1.12-0.53-1.88c0.01,0.78-0.06,1.37-0.49,1.88
			C242.07,85.66,241.43,85.91,240.76,86z M194.86,103.63c0.89,0.12,1.74,0.46,2.32,1.15c0.57,0.69,0.66,1.48,0.65,2.52
			c-0.01-1.02,0.14-1.83,0.71-2.52c0.57-0.69,1.43-1.03,2.32-1.15c-0.89-0.12-1.74-0.46-2.32-1.15c-0.57-0.69-0.73-1.5-0.71-2.52
			c0.01,1.04-0.08,1.83-0.65,2.52C196.6,103.17,195.75,103.51,194.86,103.63z M115.53,63.27c0.49,0.06,0.95,0.25,1.27,0.63
			c0.31,0.38,0.36,0.81,0.36,1.38c-0.01-0.56,0.08-1,0.39-1.38c0.31-0.38,0.78-0.56,1.27-0.63c-0.49-0.06-0.95-0.25-1.27-0.63
			c-0.31-0.38-0.4-0.82-0.39-1.38c0.01,0.57-0.04,1-0.36,1.38C116.48,63.02,116.01,63.2,115.53,63.27z"/>
	</g>
</g>
</svg>
