<?xml version="1.0" encoding="utf-8"?>
<!-- Generator: Adobe Illustrator 27.8.1, SVG Export Plug-In . SVG Version: 6.00 Build 0)  -->
<svg version="1.1" xmlns="http://www.w3.org/2000/svg" xmlns:xlink="http://www.w3.org/1999/xlink" x="0px" y="0px"
	 viewBox="0 0 350 230" style="enable-background:new 0 0 350 230;" xml:space="preserve">
<style type="text/css">
	.st0{fill:#FFFCCA;}
	.st1{fill:#E4FFCC;}
	.st2{fill:#CDFFCC;}
	.st3{fill:#CCFFF5;}
	.st4{fill:#CCE3FF;}
	.st5{fill:#300000;}
	.st6{fill:#F0FFCF;}
	.st7{fill:#FFCCCC;}
	.st8{fill:#00F9FF;}
	.st9{fill:#FFE9CC;}
	.st10{fill:#CCFFE3;}
	.st11{fill:#7BC7FF;}
	.st12{fill:#FFFFFF;}
	.st13{opacity:0.75;fill:#E1F3FF;enable-background:new    ;}
	.st14{fill:#DCE9F4;}
	.st15{fill:#012A5B;}
	.st16{fill:#A2BE3B;}
	.st17{fill:#0071A9;}
	.st18{fill-rule:evenodd;clip-rule:evenodd;fill:#00AEEF;}
	.st19{fill:#196AB4;}
	.st20{fill-rule:evenodd;clip-rule:evenodd;fill:#CEFF00;}
	.st21{fill-rule:evenodd;clip-rule:evenodd;fill:#00374C;}
	.st22{fill:#00CFFF;}
	.st23{fill:#00C605;}
	.st24{fill:none;}
	.st25{fill:#720041;}
	.st26{fill:#29ABE2;}
	.st27{fill:#29B574;}
	.st28{fill:#273A93;}
	.st29{fill:#7BC143;}
	.st30{fill:#019AC4;}
	.st31{fill:#A3CD39;}
	.st32{fill:#26A6D8;}
	.st33{fill:#00AEEF;}
	.st34{fill:#00B9F2;}
	.st35{fill:#8DC63F;}
	.st36{fill:#2A66B1;}
	.st37{fill:#5BC6F2;}
	.st38{fill:#4171B8;}
	.st39{fill:#4C015E;}
	.st40{fill:#00333F;}
	.st41{fill:url(#SVGID_1_);}
	.st42{fill:url(#SVGID_00000183960145334996078030000006428715741862728373_);}
	.st43{fill:url(#SVGID_00000132791363953405016970000010245835519135658911_);}
	.st44{fill:#1CC7EC;}
	.st45{fill:#00426C;}
	.st46{fill:url(#SVGID_00000159437691124002592880000017439541303617767063_);}
	.st47{fill:url(#SVGID_00000033331673735752311780000000745377175196597141_);}
	.st48{fill:url(#SVGID_00000152984394331161125920000006012453763370250157_);}
	.st49{fill:#F6921E;}
	.st50{fill:#E8BD7F;}
	.st51{fill:#0580A5;}
	.st52{fill:#EC1C24;}
	.st53{fill:#111A37;}
	.st54{fill:#FFD99B;}
	.st55{fill:#EF4F5A;}
	.st56{fill:#58595B;}
	.st57{fill:#C9424C;}
	.st58{fill:url(#SVGID_00000119839503723873157200000009312752285649888937_);}
	.st59{fill:#05417D;}
	.st60{fill:#14B6B2;}
	.st61{fill:#FFFFFF;stroke:#05417D;stroke-width:1.3474;stroke-miterlimit:10;}
	.st62{fill:#00A0FF;}
	.st63{fill:#E6F1F4;}
	.st64{fill:url(#SVGID_00000018237796968014085150000017780660076019810202_);}
	.st65{fill:url(#SVGID_00000005236989371785288060000011601763131512934572_);}
	.st66{fill:url(#SVGID_00000076588595981799411040000011240744305233856678_);}
	.st67{fill:url(#SVGID_00000011735498725593244000000000586589812573781391_);}
	.st68{fill:url(#SVGID_00000080190141675442684330000001556646914699893130_);}
	.st69{fill:#003359;}
	.st70{fill:#1779C1;}
	.st71{fill:url(#SVGID_00000098211957553300693990000008862732699931561356_);}
	.st72{fill:url(#SVGID_00000003819333256394637170000016186413914792444567_);}
	.st73{fill:url(#SVGID_00000078758032054323557330000001124375162533636279_);}
	.st74{opacity:0.45;fill:url(#SVGID_00000177469371033638964090000001137972702755750807_);}
	.st75{fill:url(#SVGID_00000096057844423630612040000008937406762395006381_);}
	.st76{fill:url(#SVGID_00000012444335342975633370000012587481433450264253_);}
	.st77{fill:url(#SVGID_00000114067411434300608480000006410586884868086428_);}
	.st78{fill:url(#SVGID_00000160904569834012022440000016417538822836388225_);}
	.st79{fill:#144866;}
	.st80{fill:#F78E3B;}
	.st81{fill:url(#XMLID_00000158013323525972296730000012498693789887934603_);}
	.st82{fill:#33ADDD;}
</style>
<g id="Layer_1">
</g>
<g id="Layer_2">
</g>
<g id="Layer_3">
</g>
<g id="Layer_4">
</g>
<g id="Layer_5">
</g>
<g id="Layer_6">
</g>
<g id="Layer_7">
</g>
<g id="Layer_8">
</g>
<g id="Layer_9">
</g>
<g id="Layer_10">
</g>
<g id="Layer_11">
</g>
<g id="Layer_12">
</g>
<g id="Layer_13">
</g>
<g id="Layer_14">
</g>
<g id="Layer_15">
	<g>
		<radialGradient id="SVGID_1_" cx="177.6916" cy="115.2366" r="48.4699" gradientUnits="userSpaceOnUse">
			<stop  offset="0" style="stop-color:#00BCCB"/>
			<stop  offset="0.3567" style="stop-color:#00BACB"/>
			<stop  offset="0.5645" style="stop-color:#00B2CB"/>
			<stop  offset="0.7342" style="stop-color:#00A4CC"/>
			<stop  offset="0.8823" style="stop-color:#0090CC"/>
			<stop  offset="1" style="stop-color:#007ACD"/>
		</radialGradient>
		<path class="st41" d="M222.71,115.74c5.2-11.66,6.83-25.28,3.62-39.31c6.83,15.11,6.28,31.12,0.46,44.92
			C226.36,118.92,224.82,116.87,222.71,115.74z M214.47,129.14c-12.55,15.42-32.68,24.33-55.4,20.63
			c-13.24-2.14-25.33-8.81-34.99-18.35c10.82,18.86,33.99,28.99,55.41,26.03c18.77-2.41,34.29-13.46,43.31-28.31H214.47z
			 M218.13,117.89c-0.62,0-1.22,0.12-1.77,0.32c-1.12-2.27-3.45-3.84-6.16-3.84c-2.84,0-5.28,1.72-6.32,4.18
			c-0.09,0-0.18-0.01-0.27-0.01c-2.64,0-4.79,2.14-4.79,4.79c0,0.61,0.12,1.19,0.33,1.73h23.65c0.28-0.63,0.43-1.32,0.43-2.05
			C223.24,120.17,220.95,117.89,218.13,117.89z M190.34,88.2l7.54,3.16c0.6-0.94,0.96-2.06,0.96-3.26c0-2.93-2.08-5.38-4.85-5.94
			c0.11-0.53,0.17-1.07,0.17-1.63c0-4.42-3.59-8.01-8.01-8.01c-2.47,0-4.69,1.12-6.16,2.89c-1.06-0.92-2.45-1.48-3.96-1.48
			c-2.78,0-5.12,1.88-5.83,4.43h7.51C183.42,78.35,188.83,82.62,190.34,88.2z"/>
		
			<radialGradient id="SVGID_00000127022375659823152120000003777258744427283842_" cx="164.2547" cy="89.1805" r="51.3481" gradientUnits="userSpaceOnUse">
			<stop  offset="0" style="stop-color:#57519B"/>
			<stop  offset="0.0591" style="stop-color:#4F4993"/>
			<stop  offset="0.2702" style="stop-color:#37327A"/>
			<stop  offset="0.4912" style="stop-color:#262168"/>
			<stop  offset="0.7264" style="stop-color:#1B165E"/>
			<stop  offset="1" style="stop-color:#18135A"/>
		</radialGradient>
		<path style="fill:url(#SVGID_00000127022375659823152120000003777258744427283842_);" d="M207.95,66.33
			c-0.45-0.43-1.45-1.43-1.87-1.84c-0.37-0.35-1.54-1.38-1.94-1.74c0,0-1.35-1.09-1.35-1.09c-0.33-0.29-1.02-0.8-1.37-1.06
			l-1.39-1.02l-1.44-0.94c-8.47-5.44-18.67-8.17-28.72-7.49c-5.18,0.28-10.19,1.5-14.86,3.48l-0.84-4.11
			c-0.19-0.92-0.61-1.76-1.18-2.47c5.32-1.82,10.99-2.74,16.79-2.53c10.37,0.22,20.62,3.82,28.67,10.35
			C202.2,58.83,205.38,62.43,207.95,66.33z M129.58,109.55c-2.6-8.07-2.84-16.9-0.65-25.09c1.85-7.17,5.53-13.61,10.44-18.87
			l-1.83-8.93c-9.93,8.09-16.89,19.87-18.31,33.03c-2.32,17.67,5.55,36.16,20,46.61c17.96,13.52,44.5,12.76,60.69-2.93
			C174.17,149.82,139.14,138.99,129.58,109.55z M154.79,102.24l-5.26-25.61h4.69c1.32,0,2.16-1.07,1.89-2.38l-4.75-23.15
			c-0.27-1.32-1.55-2.38-2.87-2.38h-4.69l-2.17-10.59c-0.63-3.08-3.65-5.58-6.73-5.58h-6.68l1.02,4.97h4.4c1.6,0,3.16,1.3,3.49,2.89
			l12.77,62.21c1.13-0.29,2.31-0.44,3.52-0.44C153.88,102.17,154.34,102.19,154.79,102.24z M195.41,125.07
			c-0.17-0.64-0.26-1.29-0.26-1.96c0-1.83,0.65-3.5,1.73-4.81c-9.59,0-20.45,0-29.41,0c-0.35,2.53-1.36,4.84-2.86,6.76
			C173.4,125.07,184.94,125.07,195.41,125.07z M209.69,110.88c-2.75,0.11-5.27,1.35-7.03,3.35h-9.88h-25.34
			c-0.72-4.82-3.87-8.85-8.17-10.8l-2.7-13.16l-1.16-5.63c-0.36-1.76,0.99-3.42,2.79-3.42h19.51c4.58,0,9.05,3.71,9.99,8.29
			l0.15,0.75l14.98,6.28c2.61,1.09,4.62,3.47,5.16,6.09L209.69,110.88z M184.52,90.49l-0.1-0.47c-0.71-3.44-4.19-6.34-7.6-6.34
			h-2.39c3.06,0.61,6.14,3.41,6.76,6.44c0.1,0.5-0.25,0.98-0.75,1.03l-7.8,0.86h10.63C184.08,92.01,184.69,91.27,184.52,90.49z
			 M205.69,107.82l-0.96-4.69c-0.37-1.82-1.86-3.56-3.71-4.33l-7.67-3.23c-1.95-0.82-4.05-1.24-6.16-1.24h-0.27l10.87,4.58
			c1.85,0.77,3.34,2.51,3.71,4.33l0.29,1.4C202.16,106.49,203.79,107.82,205.69,107.82z"/>
		<path d="M153.42,106.33c-5.54,0-10.02,4.49-10.02,10.02c0,5.54,4.49,10.02,10.02,10.02c5.54,0,10.02-4.49,10.02-10.02
			C163.44,110.81,158.95,106.33,153.42,106.33z M153.42,120.26c-2.16,0-3.91-1.75-3.91-3.91s1.75-3.91,3.91-3.91
			c2.16,0,3.91,1.75,3.91,3.91S155.58,120.26,153.42,120.26z M118.7,35.02L118.7,35.02c0-1.37,1.11-2.49,2.49-2.49h4.56l1.02,4.97
			h-5.58C119.81,37.51,118.7,36.39,118.7,35.02z"/>
		
			<radialGradient id="SVGID_00000036234632377975441490000008619408477772912009_" cx="213.2789" cy="79.2097" r="11.6336" gradientUnits="userSpaceOnUse">
			<stop  offset="0" style="stop-color:#00BCCB"/>
			<stop  offset="0.3567" style="stop-color:#00BACB"/>
			<stop  offset="0.5645" style="stop-color:#00B2CB"/>
			<stop  offset="0.7342" style="stop-color:#00A4CC"/>
			<stop  offset="0.8823" style="stop-color:#0090CC"/>
			<stop  offset="1" style="stop-color:#007ACD"/>
		</radialGradient>
		<path style="fill:url(#SVGID_00000036234632377975441490000008619408477772912009_);" d="M208.17,73.41
			c5.06-0.63,5.57-1.14,6.2-6.2c0.63,5.06,1.14,5.57,6.2,6.2c-5.06,0.63-5.57,1.14-6.2,6.2C213.74,74.54,213.23,74.04,208.17,73.41z
			 M206.96,87.74c0.5-4.03,0.9-4.43,4.93-4.93c-4.03-0.5-4.43-0.9-4.93-4.93c-0.5,4.03-0.9,4.43-4.93,4.93
			C206.05,83.31,206.46,83.71,206.96,87.74z M219.6,91.21c0.5-4.03,0.9-4.43,4.93-4.93c-4.03-0.5-4.43-0.9-4.93-4.93
			c-0.5,4.03-0.9,4.43-4.93,4.93C218.7,86.78,219.1,87.18,219.6,91.21z"/>
	</g>
</g>
</svg>
