<?xml version="1.0" encoding="utf-8"?>
<!-- Generator: Adobe Illustrator 27.8.1, SVG Export Plug-In . SVG Version: 6.00 Build 0)  -->
<svg version="1.1" xmlns="http://www.w3.org/2000/svg" xmlns:xlink="http://www.w3.org/1999/xlink" x="0px" y="0px"
	 viewBox="0 0 350 230" style="enable-background:new 0 0 350 230;" xml:space="preserve">
<style type="text/css">
	.st0{fill:#FFFCCA;}
	.st1{fill:#E4FFCC;}
	.st2{fill:#CDFFCC;}
	.st3{fill:#CCFFF5;}
	.st4{fill:#CCE3FF;}
	.st5{fill:#300000;}
	.st6{fill:#F0FFCF;}
	.st7{fill:#FFCCCC;}
	.st8{fill:#00F9FF;}
	.st9{fill:#FFE9CC;}
	.st10{fill:#CCFFE3;}
	.st11{fill:#7BC7FF;}
	.st12{fill:#FFFFFF;}
	.st13{opacity:0.75;fill:#E1F3FF;enable-background:new    ;}
	.st14{fill:#DCE9F4;}
	.st15{fill:#012A5B;}
	.st16{fill:#A2BE3B;}
	.st17{fill:#0071A9;}
	.st18{fill-rule:evenodd;clip-rule:evenodd;fill:#00AEEF;}
	.st19{fill:#196AB4;}
	.st20{fill-rule:evenodd;clip-rule:evenodd;fill:#CEFF00;}
	.st21{fill-rule:evenodd;clip-rule:evenodd;fill:#00374C;}
	.st22{fill:#00CFFF;}
	.st23{fill:#00C605;}
	.st24{fill:none;}
	.st25{fill:#720041;}
	.st26{fill:#29ABE2;}
	.st27{fill:#29B574;}
	.st28{fill:#273A93;}
	.st29{fill:#7BC143;}
	.st30{fill:#019AC4;}
	.st31{fill:#A3CD39;}
	.st32{fill:#26A6D8;}
	.st33{fill:#00AEEF;}
	.st34{fill:#00B9F2;}
	.st35{fill:#8DC63F;}
	.st36{fill:#2A66B1;}
	.st37{fill:#5BC6F2;}
	.st38{fill:#4171B8;}
	.st39{fill:#4C015E;}
	.st40{fill:#00333F;}
	.st41{fill:url(#SVGID_1_);}
	.st42{fill:url(#SVGID_00000034074026044131756380000004023865438535323798_);}
	.st43{fill:url(#SVGID_00000182496915258663665490000008535299011928232327_);}
	.st44{fill:#1CC7EC;}
	.st45{fill:#00426C;}
	.st46{fill:url(#SVGID_00000132794764998255557140000000545005684889069452_);}
	.st47{fill:url(#SVGID_00000122707617378124105190000011080802325969081985_);}
	.st48{fill:url(#SVGID_00000024681664524513974370000004847675348877230213_);}
	.st49{fill:#F6921E;}
	.st50{fill:#E8BD7F;}
	.st51{fill:#0580A5;}
	.st52{fill:#EC1C24;}
	.st53{fill:#111A37;}
	.st54{fill:#FFD99B;}
	.st55{fill:#EF4F5A;}
	.st56{fill:#58595B;}
	.st57{fill:#C9424C;}
	.st58{fill:url(#SVGID_00000060023258304766592170000001547454573528214156_);}
	.st59{fill:#05417D;}
	.st60{fill:#14B6B2;}
	.st61{fill:#FFFFFF;stroke:#05417D;stroke-width:1.3474;stroke-miterlimit:10;}
	.st62{fill:#00A0FF;}
	.st63{fill:#E6F1F4;}
	.st64{fill:url(#SVGID_00000126288800056491191540000005674003230044737157_);}
	.st65{fill:url(#SVGID_00000023250469240611871640000013238540535594546567_);}
	.st66{fill:url(#SVGID_00000034084707088185780000000004184379898566621868_);}
	.st67{fill:url(#SVGID_00000162324137887076657160000006827861962128531854_);}
	.st68{fill:url(#SVGID_00000036970902945082339420000006241618282957758643_);}
	.st69{fill:#003359;}
	.st70{fill:#1779C1;}
	.st71{fill:url(#SVGID_00000021830255295880204350000008667315340760577932_);}
	.st72{fill:url(#SVGID_00000001643926284216232320000008568005294195113608_);}
	.st73{fill:url(#SVGID_00000117640235237675124350000008933313272786194593_);}
	.st74{opacity:0.45;fill:url(#SVGID_00000053540460344292050340000015679731265538944933_);}
	.st75{fill:url(#SVGID_00000009551603305148071740000017653522664677311645_);}
	.st76{fill:url(#SVGID_00000165947185286033981940000013553289853417263001_);}
	.st77{fill:url(#SVGID_00000051364067458595689920000006245924478494740659_);}
	.st78{fill:url(#SVGID_00000048485614567533660910000003150387515138012289_);}
	.st79{fill:#144866;}
	.st80{fill:#F78E3B;}
	.st81{fill:url(#XMLID_00000024712757255876724090000001306191292511629720_);}
	.st82{fill:#33ADDD;}
</style>
<g id="Layer_1">
</g>
<g id="Layer_2">
</g>
<g id="Layer_3">
</g>
<g id="Layer_4">
</g>
<g id="Layer_5">
</g>
<g id="Layer_6">
</g>
<g id="Layer_7">
</g>
<g id="Layer_8">
</g>
<g id="Layer_9">
</g>
<g id="Layer_10">
</g>
<g id="Layer_11">
</g>
<g id="Layer_12">
</g>
<g id="Layer_13">
</g>
<g id="Layer_14">
</g>
<g id="Layer_15">
	<g>
		<path class="st44" d="M264.17,84.39c-0.7-7.84-9.03-5.27-9.03-5.27s3.04-2.01,1.75-5.79c-1.29-3.78-6.48-1.66-6.48-1.66
			c4.03-3.6,4.91-13-5.51-15.76c-7.45-1.98-11.32,2.58-12.91,5.34l16.8,18.83h-6.98v10.92c0.21-0.06,0.43-0.1,0.66-0.1
			c1.4,0,2.54,1.14,2.54,2.54c0,0.54-0.17,1.04-0.46,1.46l13.71-2.06c0.09-0.01,0.18-0.02,0.26-0.02c0.58,0,1.1,0.29,1.42,0.73
			C262.45,92.01,264.61,89.27,264.17,84.39z M244.94,88.91c-0.61,0-1.11-0.5-1.11-1.11c0-0.61,0.5-1.11,1.11-1.11
			s1.11,0.5,1.11,1.11C246.05,88.42,245.55,88.91,244.94,88.91z M249.65,85.62c-0.43,0-0.78-0.35-0.78-0.78
			c0-0.43,0.35-0.78,0.78-0.78c0.43,0,0.78,0.35,0.78,0.78C250.43,85.27,250.08,85.62,249.65,85.62z M261.49,88.96
			c0.34-0.65,0.53-1.39,0.53-2.18c0-2.63-2.13-4.76-4.76-4.76c-1.42,0-2.68,0.62-3.56,1.6c0.79-1.53,2.39-2.59,4.23-2.59
			c2.63,0,4.76,2.13,4.76,4.76C262.69,87.01,262.23,88.12,261.49,88.96z M106.68,111.77c0-1.02,0.63-1.89,1.53-2.24
			c-0.08-0.19-0.12-0.4-0.12-0.61c0-0.87,0.7-1.57,1.57-1.57c0.38,0,0.73,0.14,1,0.37V93.45h-8.15l28.87-32.35
			c-1.46-3.08-5.21-5.33-10.3-4.24c-6.68,1.43-7.06,9.27-7.06,9.27c-4.05-0.74-4.61,2.65-4.61,2.67c-1.03-2.26-4.3-4.08-5.75-4.51
			c-16.13-4.72-23.24,19.01-7.71,23.14c0,0-3.52-0.58-4.79,3.78c-0.98,3.33,2.77,5.74,2.77,5.74c-6.36,0.4-10.51,6.61-6.64,14.44
			c2.7,5.46,9.2,5.82,12.89,5.53c0.95-1.7,2.64-2.97,4.69-3.28l2.38-0.36C106.9,112.87,106.68,112.34,106.68,111.77z M96.44,111.49
			c-0.79,0-1.43-0.64-1.43-1.43c0-0.79,0.64-1.43,1.43-1.43c0.79,0,1.43,0.64,1.43,1.43C97.87,110.85,97.23,111.49,96.44,111.49z
			 M94.12,70.83c1.03-2.61,3.61-4.47,6.64-4.47c3.93,0,7.12,3.13,7.12,6.98c0,1.23-0.33,2.39-0.9,3.39
			c0.31-0.78,0.48-1.63,0.48-2.52c0-3.86-3.19-6.98-7.12-6.98C97.66,67.24,95.33,68.69,94.12,70.83z M101.24,103.33
			c-1.2,0-2.17-0.97-2.17-2.17s0.97-2.17,2.17-2.17c1.2,0,2.17,0.97,2.17,2.17S102.43,103.33,101.24,103.33z M105.71,105.68
			c-0.54,0-0.97-0.43-0.97-0.97c0-0.54,0.44-0.97,0.97-0.97c0.54,0,0.97,0.44,0.97,0.97C106.68,105.25,106.25,105.68,105.71,105.68z
			 M108.98,44.56c-3.23,0-5.85,2.62-5.85,5.85c0,3.23,2.62,5.85,5.85,5.85s5.85-2.62,5.85-5.85
			C114.83,47.18,112.21,44.56,108.98,44.56z M112.55,53.05c0.39-0.64,0.61-1.39,0.61-2.19c0-2.35-1.91-4.26-4.26-4.26
			c-1.26,0-2.39,0.55-3.17,1.42c0.75-1.24,2.1-2.07,3.65-2.07c2.35,0,4.26,1.91,4.26,4.26C113.64,51.3,113.22,52.29,112.55,53.05z
			 M124.47,41.27c0,1.23-1,2.24-2.24,2.24c-1.23,0-2.24-1-2.24-2.24s1-2.24,2.24-2.24C123.47,39.03,124.47,40.03,124.47,41.27z
			 M234.74,38.71c-3.12,0-5.65,2.53-5.65,5.65c0,3.12,2.53,5.65,5.65,5.65c3.12,0,5.65-2.53,5.65-5.65
			C240.38,41.24,237.86,38.71,234.74,38.71z M237.83,47.2c0.57-0.75,0.9-1.69,0.86-2.71c-0.09-2.31-2.03-4.12-4.35-4.04
			c-1,0.04-1.9,0.42-2.6,1.03c0.73-0.96,1.87-1.59,3.17-1.64c2.31-0.09,4.26,1.72,4.35,4.04C239.31,45.2,238.75,46.4,237.83,47.2z
			 M255.5,47.52c0,1.33-1.07,2.4-2.4,2.4c-1.33,0-2.4-1.07-2.4-2.4c0-1.33,1.07-2.4,2.4-2.4C254.43,45.12,255.5,46.19,255.5,47.52z"
			/>
		<path class="st45" d="M147.04,57.9l18.29-20.5l2.84,3.18L152.72,57.9H147.04z M246.66,79.12L208.8,36.69h-42.84l37.85,42.43
			H246.66z M134.01,59.57L104.63,92.5h6.97l25.89-29.02L134.01,59.57z M134.65,58.85l30.02,33.65h36.4l-30.02-33.65H134.65z
			 M143.04,86.6v6.89l-5.16,1.11v-6.89L143.04,86.6z M130.6,89.27l5.38-1.16V95l-5.38,1.16V89.27z M137.88,96.54l5.16-1.11v6.01
			l-5.16,1.11V96.54z M130.6,98.11l5.38-1.16v6.01l-5.38,1.16V98.11z M259.28,99.31l-16.84,2.53c-0.43,0.07-0.84-0.23-0.91-0.66
			l-0.12-0.74l-56.8,8.54l0.08,0.5c0.1,0.59-0.31,1.15-0.9,1.24l-34.65,5.21c-0.6,1.97-2.29,3.52-4.45,3.84l-17.13,2.58
			c-3.31,2.86-12.98,11.61-14.25,17c-1.44,6.12-0.99,9.31,1.42,13.3l1.65,0.65l-1.29,3.2l-24.4-8.73l11.5-23.59
			c-0.97-0.85-1.65-2.04-1.83-3.42c-0.39-2.98,1.68-5.73,4.65-6.18l38.04-5.72c1.84-0.28,3.6,0.39,4.8,1.64
			c0.1-0.05,0.2-0.08,0.31-0.1l34.74-5.23c0.58-0.09,1.12,0.31,1.22,0.89l0.09,0.51l56.8-8.54l-0.13-0.8
			c-0.07-0.44,0.23-0.86,0.67-0.93l16.84-2.53c0.43-0.07,0.84,0.23,0.91,0.66l0.66,3.96C260.03,98.83,259.72,99.24,259.28,99.31z
			 M121.9,123.21l-4.89,0.74c-6.83,3.85-14.42,12.32-16.19,16.76c-1.91,4.79,1.23,6.94,1.23,6.94l5.22,2.06
			c0.55-0.43,1.36-1.24,1.36-2.31c0-1.6,0.37-6.94,3.44-12.41C114.89,129.97,119.01,125.52,121.9,123.21z"/>
	</g>
</g>
</svg>
