<?xml version="1.0" encoding="utf-8"?>
<!-- Generator: Adobe Illustrator 27.8.1, SVG Export Plug-In . SVG Version: 6.00 Build 0)  -->
<svg version="1.1" xmlns="http://www.w3.org/2000/svg" xmlns:xlink="http://www.w3.org/1999/xlink" x="0px" y="0px"
	 viewBox="0 0 350 230" style="enable-background:new 0 0 350 230;" xml:space="preserve">
<style type="text/css">
	.st0{fill:#FFFCCA;}
	.st1{fill:#E4FFCC;}
	.st2{fill:#CDFFCC;}
	.st3{fill:#CCFFF5;}
	.st4{fill:#CCE3FF;}
	.st5{fill:#300000;}
	.st6{fill:#F0FFCF;}
	.st7{fill:#FFCCCC;}
	.st8{fill:#00F9FF;}
	.st9{fill:#FFE9CC;}
	.st10{fill:#CCFFE3;}
	.st11{fill:#7BC7FF;}
	.st12{fill:#FFFFFF;}
	.st13{opacity:0.75;fill:#E1F3FF;enable-background:new    ;}
	.st14{fill:#DCE9F4;}
	.st15{fill:#012A5B;}
	.st16{fill:#A2BE3B;}
	.st17{fill:#0071A9;}
	.st18{fill-rule:evenodd;clip-rule:evenodd;fill:#00AEEF;}
	.st19{fill:#196AB4;}
	.st20{fill-rule:evenodd;clip-rule:evenodd;fill:#CEFF00;}
	.st21{fill-rule:evenodd;clip-rule:evenodd;fill:#00374C;}
	.st22{fill:#00CFFF;}
	.st23{fill:#00C605;}
	.st24{fill:none;}
	.st25{fill:#720041;}
	.st26{fill:#29ABE2;}
	.st27{fill:#29B574;}
	.st28{fill:#273A93;}
	.st29{fill:#7BC143;}
	.st30{fill:#019AC4;}
	.st31{fill:#A3CD39;}
	.st32{fill:#26A6D8;}
	.st33{fill:#00AEEF;}
	.st34{fill:#00B9F2;}
	.st35{fill:#8DC63F;}
	.st36{fill:#2A66B1;}
	.st37{fill:#5BC6F2;}
	.st38{fill:#4171B8;}
	.st39{fill:#4C015E;}
	.st40{fill:#00333F;}
	.st41{fill:url(#SVGID_1_);}
	.st42{fill:url(#SVGID_00000018222762766889638400000009324123112483442874_);}
	.st43{fill:url(#SVGID_00000072968175307008702430000010455128703975037330_);}
	.st44{fill:#1CC7EC;}
	.st45{fill:#00426C;}
	.st46{fill:url(#SVGID_00000088823361635383879580000017063261898459605385_);}
	.st47{fill:url(#SVGID_00000162342401286387564220000012413895524618022308_);}
	.st48{fill:url(#SVGID_00000032631884860912117520000004458612077136146324_);}
	.st49{fill:#F6921E;}
	.st50{fill:#E8BD7F;}
	.st51{fill:#0580A5;}
	.st52{fill:#EC1C24;}
	.st53{fill:#111A37;}
	.st54{fill:#FFD99B;}
	.st55{fill:#EF4F5A;}
	.st56{fill:#58595B;}
	.st57{fill:#C9424C;}
	.st58{fill:url(#SVGID_00000083070328929051927660000000523842425121668480_);}
	.st59{fill:#05417D;}
	.st60{fill:#14B6B2;}
	.st61{fill:#FFFFFF;stroke:#05417D;stroke-width:1.3474;stroke-miterlimit:10;}
	.st62{fill:#00A0FF;}
	.st63{fill:#E6F1F4;}
	.st64{fill:url(#SVGID_00000127023462340660489430000005657928918147521209_);}
	.st65{fill:url(#SVGID_00000036232359103947082350000003783123509308623039_);}
	.st66{fill:url(#SVGID_00000176013606015459640140000009501778537391013008_);}
	.st67{fill:url(#SVGID_00000009551454923642908760000014137808266449206672_);}
	.st68{fill:url(#SVGID_00000052067275664859605030000011508384773652355716_);}
	.st69{fill:#003359;}
	.st70{fill:#1779C1;}
	.st71{fill:url(#SVGID_00000031167362142248238860000008403872838033441928_);}
	.st72{fill:url(#SVGID_00000079459341485418049020000015344918870917202613_);}
	.st73{fill:url(#SVGID_00000065061935021080234220000012247328022101587382_);}
	.st74{opacity:0.45;fill:url(#SVGID_00000005979294796552071300000000274800326887533184_);}
	.st75{fill:url(#SVGID_00000102503478251394166030000007477550618994182535_);}
	.st76{fill:url(#SVGID_00000058548506381741490650000004434705657296178571_);}
	.st77{fill:url(#SVGID_00000163047871372817763500000014574781063825881730_);}
	.st78{fill:url(#SVGID_00000143602899514995648410000011747252103406550933_);}
	.st79{fill:#144866;}
	.st80{fill:#F78E3B;}
	.st81{fill:url(#XMLID_00000139283374482402299840000004029926843338089352_);}
	.st82{fill:#33ADDD;}
</style>
<g id="Layer_1">
</g>
<g id="Layer_2">
</g>
<g id="Layer_3">
</g>
<g id="Layer_4">
</g>
<g id="Layer_5">
</g>
<g id="Layer_6">
</g>
<g id="Layer_7">
</g>
<g id="Layer_8">
</g>
<g id="Layer_9">
</g>
<g id="Layer_10">
</g>
<g id="Layer_11">
</g>
<g id="Layer_12">
</g>
<g id="Layer_13">
</g>
<g id="Layer_14">
</g>
<g id="Layer_15">
	<g>
		<radialGradient id="SVGID_1_" cx="174.9994" cy="95.1594" r="61.6732" gradientUnits="userSpaceOnUse">
			<stop  offset="0" style="stop-color:#57519B"/>
			<stop  offset="1" style="stop-color:#18135A"/>
		</radialGradient>
		<path class="st41" d="M234.22,91.16l-57.16-58.62c-1.13-1.16-3-1.16-4.13,0l-19.19,19.69c5.23,1.06,9.09,5.96,8.5,11.62
			c-0.52,4.94-4.5,8.95-9.44,9.49c-5.59,0.61-10.44-3.12-11.61-8.24l-25.41,26.06c-1.25,1.29-0.34,3.45,1.45,3.45h10.15v60.72
			c0,1.84,1.49,3.33,3.33,3.33h18.95l0.32-0.84c0.03-0.08,3.12-8.09,6.46-16.27c0.98-2.41,1.85-4.49,2.61-6.3
			c-0.17-0.21-0.27-0.48-0.27-0.77v-14.62c0-0.69,0.56-1.25,1.25-1.25h10.58c0.78-0.57,1.57-1.12,2.3-1.64
			c0.2-0.14,0.39-0.27,0.58-0.4h-13.47c-0.69,0-1.25-0.56-1.25-1.25v-14.62c0-0.69,0.56-1.25,1.25-1.25h14.62
			c0.69,0,1.25,0.56,1.25,1.25v14.23c1.14-0.76,1.97-1.27,2.57-1.61c0.01-0.21,0.04-0.42,0.1-0.63l1.75-6.24
			c0.16-0.57,0.49-1.06,0.93-1.43c-1.04-3.11-4.66-10.68-15.72-14.27c-0.63-0.2-1.11-0.65-1.38-1.2l-1.05-0.3
			c-0.6-0.17-1.11-0.57-1.41-1.12c-0.3-0.55-0.37-1.19-0.2-1.79l1.61-5.46c0.3-1.02,1.23-1.68,2.25-1.68c0.2,0,0.4,0.03,0.6,0.08
			l1.35,0.36c0.32-0.16,0.67-0.25,1.05-0.25l0.09,0c3.02,0,29.85,0.28,42.48,10.09c5.08,3.95,8.97,8.23,11.7,12.89v-7.75h10.15
			C234.56,94.61,235.47,92.45,234.22,91.16z M146.71,90.47c-0.12,0.01-0.24,0.01-0.36,0.01c-3.46,0.01-6.46-2.26-7.3-5.61
			c-1.2-4.76,2.25-9.18,6.89-9.42c0.13-0.01,0.26-0.01,0.39-0.01c3.48,0,6.48,2.3,7.3,5.69C154.76,85.85,151.32,90.23,146.71,90.47z
			 M219.62,118.77c-0.33-2.57-1.92-8.83-9.61-12.72c-1.36,0.44-4.4,1.66-6.78,4.38c0.19,0.53,0.22,1.1,0.08,1.66l-1.5,6.06
			c-0.08,0.31-0.21,0.6-0.37,0.87c0.63,2.52,2.96,11.8,3.25,13.94c0.1,0.77,0.26,1.93-3.68,14.55c-1.48,4.76-3,9.39-3.59,11.15
			h21.87c1.84,0,3.33-1.49,3.33-3.33v-33.8C221.09,121.45,219.82,120.29,219.62,118.77z"/>
		<path class="st44" d="M133.45,69.02c0,2.22-1.8,4.01-4.01,4.01c-2.22,0-4.01-1.8-4.01-4.01c0-2.22,1.8-4.01,4.01-4.01
			C131.65,65.01,133.45,66.81,133.45,69.02z M120.7,56.01c-1.06,0-1.93,0.86-1.93,1.93s0.86,1.93,1.93,1.93
			c1.06,0,1.93-0.86,1.93-1.93S121.76,56.01,120.7,56.01z M150.51,36.89c-2.92,0-5.29,2.37-5.29,5.29c0,2.92,2.37,5.29,5.29,5.29
			s5.29-2.37,5.29-5.29C155.8,39.26,153.43,36.89,150.51,36.89z M159.96,62.7c0,4.61-3.74,8.35-8.35,8.35
			c-4.61,0-8.35-3.74-8.35-8.35s3.74-8.35,8.35-8.35C156.22,54.35,159.96,58.09,159.96,62.7z M142.79,56.01
			c0,2.78-2.25,5.03-5.03,5.03c-2.78,0-5.03-2.25-5.03-5.03c0-2.78,2.25-5.03,5.03-5.03C140.54,50.99,142.79,53.24,142.79,56.01z
			 M154.03,69.02c0,0-6.35-0.46-8.22-6.51C145.81,62.51,145.01,69.79,154.03,69.02z M146.59,88.13c-2.86,0.15-5.29-2.05-5.44-4.9
			c-0.15-2.86,2.05-5.29,4.9-5.44c2.86-0.15,5.29,2.05,5.44,4.9S149.44,87.98,146.59,88.13z M147.28,86.79c0,0-3.36-0.8-4.49-3.46
			C142.79,83.34,142.63,87.13,147.28,86.79z"/>
		
			<linearGradient id="SVGID_00000086690818442253691750000008704953637278548386_" gradientUnits="userSpaceOnUse" x1="152.1745" y1="120.0909" x2="225.0746" y2="120.0909">
			<stop  offset="0" style="stop-color:#5C0B9E"/>
			<stop  offset="1" style="stop-color:#FF4D9A"/>
		</linearGradient>
		<path style="fill:url(#SVGID_00000086690818442253691750000008704953637278548386_);" d="M167.1,81.99l-1.74-0.46l-1.61,5.46
			l1.71,0.48L167.1,81.99z M199.03,119.07c0,0-17.84-4.1-18.59-4.1c-0.76,0-11.19,7.26-13.59,9.52
			c-2.4,2.27-14.68,34.16-14.68,34.16h3.77c3.17-7.7,12.77-30.95,13.62-31.89c1.02-1.13,11.26-6.69,11.26-6.69
			s-9.21,6.92-10.12,7.82c-0.73,0.73-9.35,22.4-12.66,30.76h36.92c0,0,7.71-23.13,7.41-25.39
			C202.06,130.99,199.03,119.07,199.03,119.07z M198.84,118.01c0.31,0.07,0.62-0.12,0.7-0.43l1.5-6.06
			c0.08-0.32-0.12-0.63-0.43-0.71l-17.31-4.15c-0.31-0.07-0.62,0.11-0.7,0.41l-1.75,6.24c-0.09,0.32,0.11,0.66,0.44,0.73
			L198.84,118.01z M209.48,91.31c-12.55-9.75-41.12-9.6-41.12-9.6l-0.17,0.57l-1.69,5.49l-0.23,0.74
			c13.09,4.25,16.68,13.8,17.45,16.52c0.13,0.46,0.49,0.82,0.96,0.93l15.12,3.73c0.49,0.12,1.01-0.04,1.32-0.42
			c3.77-4.61,9.11-5.72,9.11-5.72c9.59,4.42,11.38,12.28,11.71,14.92c0.06,0.48,0.52,0.8,0.99,0.71l1.46-0.29
			c0.41-0.08,0.7-0.46,0.67-0.88C224.49,110.54,221.62,100.75,209.48,91.31z"/>
	</g>
</g>
</svg>
