<?xml version="1.0" encoding="utf-8"?>
<!-- Generator: Adobe Illustrator 27.8.1, SVG Export Plug-In . SVG Version: 6.00 Build 0)  -->
<svg version="1.1" xmlns="http://www.w3.org/2000/svg" xmlns:xlink="http://www.w3.org/1999/xlink" x="0px" y="0px"
	 viewBox="0 0 350 230" style="enable-background:new 0 0 350 230;" xml:space="preserve">
<style type="text/css">
	.st0{fill:#FFFDDC;}
	.st1{fill:#FFFDE6;}
	.st2{fill:#FEFFE9;}
	.st3{fill:#FFFCEB;}
	.st4{fill:#FFF9CF;}
	.st5{fill:#F1FFCC;}
	.st6{fill:#60361A;}
	.st7{fill:#FFF4C5;}
	.st8{fill:#FEFFCF;}
	.st9{fill:#FFFFFF;}
	.st10{fill:#FCBEF3;}
	.st11{fill:#007769;}
	.st12{fill:#990000;}
	.st13{fill:#EE388C;}
	.st14{fill:#4862AD;}
	.st15{fill:#EE4B9B;}
	.st16{fill:#FAEE35;}
	.st17{fill:#01A79D;}
	.st18{fill:#8FC640;}
	.st19{fill:#EC2227;}
	.st20{fill:#E7BD20;}
	.st21{fill:#DC8927;}
	.st22{fill:#2F99D5;}
	.st23{fill:#663366;}
	.st24{fill:#FFC907;}
	.st25{fill:#4B83C3;}
	.st26{fill:#F0535B;}
	.st27{fill:#A92990;}
	.st28{fill:#E16E25;}
	.st29{fill:#426CB4;}
	.st30{fill:#E9292B;}
	.st31{fill:#0F77B7;}
	.st32{fill:#EF4A6C;}
	.st33{fill:#65C5B3;}
	.st34{fill:#965724;}
	.st35{fill:#F1A422;}
	.st36{fill:#18479E;}
	.st37{fill:#64C5B2;}
	.st38{fill:#FAE072;}
	.st39{fill:#EF496E;}
	.st40{fill:#231F20;}
	.st41{fill-rule:evenodd;clip-rule:evenodd;fill:#5C493A;}
	.st42{fill-rule:evenodd;clip-rule:evenodd;fill:#F26767;}
	.st43{fill-rule:evenodd;clip-rule:evenodd;fill:#87C443;}
	.st44{fill-rule:evenodd;clip-rule:evenodd;fill:#EE3E96;}
	.st45{fill-rule:evenodd;clip-rule:evenodd;fill:#2195D2;}
	.st46{fill-rule:evenodd;clip-rule:evenodd;fill:#FFCD05;}
	.st47{fill-rule:evenodd;clip-rule:evenodd;fill:#83C341;}
	.st48{fill-rule:evenodd;clip-rule:evenodd;fill:#0F77B7;}
	.st49{fill-rule:evenodd;clip-rule:evenodd;fill:#ED8D36;}
	.st50{fill-rule:evenodd;clip-rule:evenodd;fill:#3CA356;}
	.st51{fill-rule:evenodd;clip-rule:evenodd;fill:#7F4A25;}
	.st52{fill-rule:evenodd;clip-rule:evenodd;fill:#A3B539;}
	.st53{fill-rule:evenodd;clip-rule:evenodd;fill:#FAAF37;}
	.st54{fill-rule:evenodd;clip-rule:evenodd;fill:#0BB4A1;}
	.st55{fill:#00A9CB;}
	.st56{fill:#79AA41;}
	.st57{fill:#CD8F2A;}
	.st58{fill:#0393B0;}
	.st59{fill:#E82F7B;}
	.st60{fill:#D7DF2A;}
	.st61{fill:#8DC443;}
	.st62{fill:#F0A422;}
	.st63{fill:#3A3A3B;}
	.st64{fill:#29AAE1;}
	.st65{fill:#E9246E;}
	.st66{fill:url(#SVGID_1_);}
	.st67{fill:#00EFFF;}
	.st68{fill-rule:evenodd;clip-rule:evenodd;fill:url(#SVGID_00000161602713556582228950000003861649925224452225_);}
	.st69{fill-rule:evenodd;clip-rule:evenodd;fill:url(#SVGID_00000170248016959835707490000005320661092108241543_);}
	.st70{fill-rule:evenodd;clip-rule:evenodd;fill:url(#SVGID_00000005235206476571823500000014569191733407418798_);}
	.st71{fill-rule:evenodd;clip-rule:evenodd;fill:url(#SVGID_00000106842904377330220650000010928909019813861527_);}
	.st72{fill-rule:evenodd;clip-rule:evenodd;fill:url(#SVGID_00000067230663776761300210000012784377144890467490_);}
	.st73{fill-rule:evenodd;clip-rule:evenodd;fill:url(#SVGID_00000183208478329790512590000005814656686106286482_);}
	.st74{fill-rule:evenodd;clip-rule:evenodd;fill:url(#SVGID_00000062194537530703363490000005093620207065354414_);}
	.st75{fill-rule:evenodd;clip-rule:evenodd;fill:url(#SVGID_00000033341936538383525600000015365724420183377541_);}
	.st76{fill-rule:evenodd;clip-rule:evenodd;fill:url(#SVGID_00000080201980113103047960000010578931626916679579_);}
	.st77{fill:url(#SVGID_00000150819413154079423310000008003581700179462572_);}
	.st78{fill:#00889E;}
	.st79{fill:url(#SVGID_00000160907558170346418170000010939359259109608589_);}
	.st80{fill:url(#SVGID_00000067193862831198692100000009578419176404968330_);}
	.st81{fill:url(#SVGID_00000064355069327149673130000017869776813105864885_);}
	.st82{fill:#009AFF;}
	.st83{fill:url(#SVGID_00000079481150474872795610000010057804534356446851_);}
	.st84{fill:url(#SVGID_00000070811799948540711520000010141177502403103139_);}
	.st85{fill:#EF1A24;}
	.st86{fill:url(#SVGID_00000072972506522500249660000006415471919880317102_);}
	.st87{fill:url(#SVGID_00000056388273125909166990000017872435381843458447_);}
	.st88{fill-rule:evenodd;clip-rule:evenodd;fill:#1B2E7A;}
	.st89{fill-rule:evenodd;clip-rule:evenodd;fill:#FFFFFF;}
	.st90{fill-rule:evenodd;clip-rule:evenodd;fill:#FF004D;}
	.st91{fill:#1B2E7A;}
	.st92{fill-rule:evenodd;clip-rule:evenodd;fill:#FFD373;}
	.st93{fill-rule:evenodd;clip-rule:evenodd;fill:#EDB337;}
	.st94{fill-rule:evenodd;clip-rule:evenodd;fill:#FFEDB0;}
	.st95{fill:url(#SVGID_00000023270718913461594470000010810330670130240171_);}
	.st96{fill:#A25F00;}
	.st97{fill:#1B5302;}
	.st98{fill:#00AEEF;}
	.st99{fill:#ED1966;}
	.st100{fill:url(#SVGID_00000140697682562888611710000003204925894793461947_);}
	.st101{fill:url(#SVGID_00000033333101947286588890000001984504948804045958_);}
	.st102{fill:#79BACC;}
	.st103{fill:#E8E3D8;}
	.st104{fill:#F2B220;}
	.st105{fill:url(#SVGID_00000114063981081600816920000010734676851620886457_);}
	.st106{fill:url(#SVGID_00000110435476840484475020000003797891936089950907_);}
	.st107{fill:url(#SVGID_00000106829645533988692230000010962941135956953231_);}
	.st108{fill:url(#SVGID_00000142862959820503600850000004655192018658952638_);}
	.st109{fill:url(#SVGID_00000164500984069552200190000017715757089206163134_);}
	.st110{fill:url(#SVGID_00000153694252471946233200000017894405595937426102_);}
	.st111{fill:url(#SVGID_00000065067370105024012130000017770123593391050142_);}
	.st112{fill:#9B85BE;}
	.st113{fill:#776599;}
	.st114{fill:#FD3861;}
	.st115{fill:#C42244;}
	.st116{fill:#009FE2;}
	.st117{fill:#30B17B;}
	.st118{fill:#FF7D9C;}
	.st119{fill:#9ACA3D;}
	.st120{fill:#856DB5;}
	.st121{fill:url(#SVGID_00000050624706848299408590000017601501968563396018_);}
	.st122{fill:#0075B0;}
	.st123{fill:#CDE250;}
	.st124{fill:#7DDDFF;}
	.st125{fill:#B9EA81;}
	.st126{fill:#FF7D87;}
	.st127{fill-rule:evenodd;clip-rule:evenodd;fill:#FFC60B;}
	.st128{fill-rule:evenodd;clip-rule:evenodd;fill:#9ABE37;}
	.st129{fill-rule:evenodd;clip-rule:evenodd;fill:#74D7E2;}
	.st130{fill-rule:evenodd;clip-rule:evenodd;fill:#FF598A;}
	.st131{fill-rule:evenodd;clip-rule:evenodd;fill:#856DB5;}
	.st132{fill:#ED5681;}
	.st133{fill:#E5B189;}
	.st134{fill:#CE9976;}
	.st135{fill:#80DEFF;}
	.st136{fill:#61C7E2;}
	.st137{fill:#715BA5;}
	.st138{fill:#CCED56;}
	.st139{fill:#9ABE37;}
	.st140{fill:#7D9D2B;}
	.st141{fill:#F4C11E;}
	.st142{fill:#E19A00;}
	.st143{fill:#FFBE00;}
	.st144{fill:#C74D96;}
	.st145{fill:#F4A408;}
	.st146{fill:#00B0DD;}
	.st147{fill:#E62944;}
	.st148{fill:#553590;}
	.st149{fill:#035A31;}
	.st150{fill:#80BE26;}
	.st151{fill:#00549A;}
	.st152{fill:#844596;}
	.st153{fill:#009C42;}
	.st154{fill-rule:evenodd;clip-rule:evenodd;fill:#1F7099;}
	.st155{fill-rule:evenodd;clip-rule:evenodd;fill:#406FB5;}
	.st156{fill-rule:evenodd;clip-rule:evenodd;fill:#A418ED;}
	.st157{fill-rule:evenodd;clip-rule:evenodd;fill:#28834F;}
	.st158{fill-rule:evenodd;clip-rule:evenodd;fill:#1FEA75;}
	.st159{fill-rule:evenodd;clip-rule:evenodd;fill:#07A8A8;}
	.st160{fill-rule:evenodd;clip-rule:evenodd;fill:#25C9EF;}
	.st161{fill-rule:evenodd;clip-rule:evenodd;fill:#FF7D9C;}
	.st162{fill:#724329;}
	.st163{fill:#FFD766;}
	.st164{fill:#6ED9FF;}
	.st165{fill:#FFA9C2;}
	.st166{fill-rule:evenodd;clip-rule:evenodd;fill:url(#SVGID_00000131325404989210703730000007948474690346349742_);}
	.st167{fill-rule:evenodd;clip-rule:evenodd;fill:url(#SVGID_00000053542780779619627950000017600977203647981454_);}
	.st168{fill-rule:evenodd;clip-rule:evenodd;fill:url(#SVGID_00000000929516756936947400000009796510300450564773_);}
	.st169{fill-rule:evenodd;clip-rule:evenodd;fill:#2B61D8;}
	.st170{fill-rule:evenodd;clip-rule:evenodd;fill:#78E9FF;}
	.st171{fill-rule:evenodd;clip-rule:evenodd;fill:#844596;}
	.st172{fill-rule:evenodd;clip-rule:evenodd;fill:#A667FC;}
	.st173{fill-rule:evenodd;clip-rule:evenodd;fill:#379CC0;}
	.st174{fill-rule:evenodd;clip-rule:evenodd;fill:url(#SVGID_00000064352558811381874660000005542506872087965346_);}
	.st175{fill:#FF439D;}
	.st176{fill:#29ABE2;}
	.st177{fill:#AA3AAA;}
	.st178{fill:#78E9FF;}
	.st179{fill:#FFC60B;}
	.st180{fill:#A667FC;}
	.st181{fill-rule:evenodd;clip-rule:evenodd;fill:#CCED56;}
	.st182{fill-rule:evenodd;clip-rule:evenodd;fill:#776599;}
	.st183{fill-rule:evenodd;clip-rule:evenodd;fill:#80DEFF;}
	.st184{fill:#379CC0;}
	.st185{fill:#916E00;}
	.st186{fill:#BAAE1C;}
	.st187{fill:#84BC7A;}
	.st188{fill:#BCAD64;}
	.st189{fill:#D18D2A;}
	.st190{fill:#FFB278;}
	.st191{fill-rule:evenodd;clip-rule:evenodd;fill:#785EF7;}
	.st192{fill-rule:evenodd;clip-rule:evenodd;fill:#C2FF7B;}
	.st193{fill-rule:evenodd;clip-rule:evenodd;fill:#6F96EF;}
	.st194{fill-rule:evenodd;clip-rule:evenodd;fill:#E5B189;}
	.st195{fill-rule:evenodd;clip-rule:evenodd;fill:#72D392;}
	.st196{fill-rule:evenodd;clip-rule:evenodd;fill:#F9C55D;}
	.st197{fill-rule:evenodd;clip-rule:evenodd;fill:#61C165;}
	.st198{fill-rule:evenodd;clip-rule:evenodd;fill:#6786D3;}
	.st199{fill-rule:evenodd;clip-rule:evenodd;fill:#FCB1E3;}
	.st200{fill-rule:evenodd;clip-rule:evenodd;fill:#1CC1E4;}
	.st201{fill-rule:evenodd;clip-rule:evenodd;fill:#6D6DB2;}
	.st202{fill-rule:evenodd;clip-rule:evenodd;fill:#66A2AA;}
	.st203{fill-rule:evenodd;clip-rule:evenodd;fill:#D2FC86;}
	.st204{fill:#7FBC62;}
	.st205{fill:#442109;}
	.st206{fill:#A08657;}
	.st207{fill:#FFCD5C;}
	.st208{fill:#7DA22E;}
	.st209{fill:#F9C941;}
	.st210{fill:#6AC6B4;}
	.st211{fill:#E2C159;}
	.st212{fill:#EF8550;}
</style>
<g id="Layer_1">
</g>
<g id="Layer_2">
</g>
<g id="Layer_3">
</g>
<g id="Layer_4">
</g>
<g id="Layer_5">
</g>
<g id="Layer_6">
</g>
<g id="Layer_7">
</g>
<g id="Layer_8">
</g>
<g id="Layer_9">
</g>
<g id="Layer_10">
</g>
<g id="Layer_11">
</g>
<g id="Layer_12">
</g>
<g id="Layer_13">
</g>
<g id="Layer_14">
</g>
<g id="Layer_15">
	<g>
		<path class="st186" d="M191.5,155.8c-1.42-0.06-1.9-1.38-2.2-2.57c-0.3-1.19-2.02-11.56-2.26-12.57s-1.31-4.27-4.1-2.73
			c-2.79,1.54-5.82,11.63-6.35,12.7c-0.53,1.07-1.07,2.43-3.09,2.02c-2.37-0.65-1.3-2.97-1.3-2.97c1.78-3.74,4.21-20.48,3.32-29.74
			c-0.89-9.26-5.64-30.81-5.64-32.41c0,0-0.54-2.24,1.47-2.78c2.02-0.53,2.62,2.24,2.62,2.24c1,4.05,4.5,22.74,5.28,24.44
			s2.54,3.54,5.21,4.25s6.24,0.77,8.97-2.2c2.73-2.97,10.5-18.4,11.22-19.82c0.71-1.42,2.18-2.62,3.62-1.48
			c1.44,1.14,0.26,3.17,0.26,3.17c-5.01,8.17-10.88,20.24-13.24,31.55c-2.91,13.96-1.69,26.53-1.69,26.53
			C193.76,154.72,192.93,155.86,191.5,155.8z M180.64,107.9c0,3.54,2.87,6.41,6.41,6.41c3.54,0,6.41-2.87,6.41-6.41
			c0-3.54-2.87-6.41-6.41-6.41C183.51,101.49,180.64,104.36,180.64,107.9z"/>
		<path class="st187" d="M159.38,151.76c0,0,1.22-12.57-1.69-26.53c-2.36-11.31-8.23-23.38-13.24-31.55c0,0-1.17-2.03,0.26-3.17
			c1.44-1.14,2.91,0.06,3.62,1.48c0.71,1.42,8.49,16.85,11.22,19.82s6.3,2.91,8.97,2.2s4.43-2.56,5.21-4.25s4.28-20.39,5.28-24.44
			c0,0,0.6-2.78,2.62-2.24s1.47,2.78,1.47,2.78c0,1.6-4.75,23.15-5.64,32.41c-0.89,9.26,1.54,26,3.32,29.74c0,0,1.08,2.32-1.3,2.97
			c-2.02,0.42-2.55-0.95-3.09-2.02c-0.53-1.07-3.56-11.16-6.35-12.7c-2.79-1.54-3.86,1.72-4.1,2.73s-1.96,11.38-2.26,12.57
			c-0.3,1.19-0.77,2.51-2.2,2.57C160.08,154.19,159.25,153.06,159.38,151.76z M165.97,99.83c-3.54,0-6.41,2.87-6.41,6.41
			s2.87,6.41,6.41,6.41c3.54,0,6.41-2.87,6.41-6.41S169.51,99.83,165.97,99.83z"/>
		<path class="st185" d="M211.94,69.64c-0.15,0.37-0.31,0.72-0.48,1.05c-0.35,0.66-0.74,1.26-1.17,1.79
			c-0.86,1.08-1.85,1.94-2.94,2.65c-1.1,0.7-2.29,1.25-3.63,1.58c-0.67,0.17-1.37,0.27-2.12,0.32c-0.37,0.02-0.76,0.02-1.16,0
			c-0.4-0.03-0.82-0.07-1.27-0.17c0.09-0.46,0.23-0.85,0.37-1.23c0.15-0.37,0.31-0.73,0.48-1.06c0.35-0.66,0.74-1.26,1.17-1.79
			c0.86-1.07,1.85-1.94,2.95-2.64c1.1-0.7,2.3-1.24,3.63-1.57c0.67-0.17,1.37-0.27,2.12-0.32c0.37-0.02,0.76-0.02,1.16,0
			c0.4,0.02,0.82,0.07,1.27,0.17C212.22,68.87,212.08,69.26,211.94,69.64z M218.57,80.06c-0.41-0.21-0.8-0.35-1.19-0.48
			c-0.38-0.12-0.76-0.22-1.12-0.29c-0.73-0.15-1.44-0.21-2.13-0.22c-1.38-0.01-2.67,0.21-3.91,0.62c-1.24,0.41-2.41,1-3.51,1.82
			c-0.55,0.41-1.08,0.89-1.58,1.45c-0.25,0.28-0.49,0.58-0.73,0.9c-0.23,0.33-0.46,0.68-0.67,1.09c0.41,0.21,0.8,0.36,1.19,0.48
			c0.38,0.12,0.76,0.22,1.12,0.29c0.73,0.15,1.44,0.22,2.13,0.22c1.37,0.01,2.67-0.22,3.91-0.63c1.23-0.41,2.41-1,3.51-1.83
			c0.55-0.41,1.08-0.89,1.58-1.45c0.25-0.28,0.5-0.58,0.73-0.9C218.14,80.82,218.37,80.47,218.57,80.06z M185.92,53.29
			c-0.41,0.22-0.74,0.47-1.06,0.72c-0.31,0.25-0.6,0.51-0.87,0.77c-0.53,0.53-0.98,1.08-1.37,1.64c-0.78,1.14-1.31,2.34-1.66,3.59
			c-0.35,1.25-0.52,2.56-0.44,3.93c0.04,0.69,0.14,1.39,0.32,2.12c0.09,0.36,0.2,0.73,0.34,1.11c0.14,0.38,0.3,0.76,0.54,1.16
			c0.41-0.22,0.74-0.47,1.06-0.72c0.31-0.25,0.6-0.51,0.87-0.77c0.53-0.53,0.98-1.08,1.37-1.64c0.78-1.14,1.31-2.34,1.66-3.59
			c0.35-1.26,0.51-2.56,0.44-3.93c-0.04-0.69-0.14-1.39-0.32-2.12c-0.09-0.36-0.2-0.73-0.34-1.11
			C186.31,54.07,186.15,53.69,185.92,53.29z M175.17,53c-0.34,0.32-0.61,0.63-0.86,0.95c-0.24,0.32-0.46,0.64-0.66,0.96
			c-0.39,0.64-0.7,1.28-0.94,1.92c-0.48,1.29-0.71,2.58-0.76,3.88c-0.04,1.3,0.11,2.61,0.51,3.92c0.2,0.66,0.47,1.32,0.82,1.98
			c0.18,0.33,0.37,0.66,0.6,1c0.23,0.33,0.48,0.67,0.8,1c0.34-0.32,0.61-0.63,0.86-0.95c0.25-0.32,0.46-0.64,0.66-0.96
			c0.39-0.64,0.7-1.28,0.94-1.92c0.48-1.29,0.71-2.58,0.75-3.88c0.04-1.3-0.12-2.61-0.52-3.92c-0.2-0.66-0.47-1.32-0.82-1.98
			c-0.18-0.33-0.37-0.66-0.6-1C175.74,53.67,175.49,53.34,175.17,53z M203.97,60.49c-0.46,0.02-0.87,0.1-1.27,0.18
			c-0.39,0.09-0.76,0.19-1.12,0.31c-0.71,0.24-1.36,0.54-1.95,0.88c-1.2,0.68-2.2,1.52-3.07,2.49c-0.87,0.97-1.59,2.07-2.13,3.34
			c-0.27,0.63-0.49,1.31-0.64,2.04c-0.08,0.37-0.14,0.75-0.18,1.15c-0.04,0.4-0.06,0.82-0.03,1.28c0.46-0.02,0.87-0.09,1.27-0.18
			c0.39-0.09,0.76-0.19,1.12-0.31c0.71-0.24,1.36-0.54,1.95-0.88c1.19-0.68,2.2-1.53,3.07-2.5c0.86-0.97,1.58-2.08,2.12-3.34
			c0.27-0.63,0.49-1.31,0.64-2.04c0.08-0.37,0.14-0.75,0.18-1.15C203.98,61.36,204,60.95,203.97,60.49z M146.19,65.96
			c0.03,0.4,0.09,0.78,0.16,1.15c0.14,0.73,0.35,1.42,0.6,2.05c0.51,1.28,1.21,2.39,2.06,3.38c0.85,0.99,1.84,1.85,3.02,2.56
			c0.59,0.35,1.23,0.66,1.94,0.91c0.35,0.13,0.72,0.24,1.11,0.33c0.39,0.09,0.8,0.17,1.27,0.2c0.04-0.46,0.02-0.88-0.01-1.28
			c-0.03-0.4-0.09-0.78-0.16-1.15c-0.14-0.74-0.35-1.42-0.6-2.05c-0.51-1.28-1.22-2.39-2.06-3.38c-0.85-0.99-1.84-1.85-3.03-2.55
			c-0.59-0.35-1.23-0.66-1.94-0.91c-0.35-0.13-0.72-0.24-1.11-0.33c-0.39-0.09-0.8-0.17-1.26-0.2
			C146.15,65.14,146.16,65.56,146.19,65.96z M161.28,54.33c-0.16,0.37-0.29,0.73-0.4,1.09c-0.22,0.72-0.35,1.41-0.42,2.1
			c-0.14,1.37-0.04,2.68,0.24,3.95c0.29,1.27,0.76,2.5,1.48,3.67c0.36,0.59,0.78,1.16,1.29,1.71c0.25,0.28,0.53,0.55,0.83,0.81
			c0.31,0.26,0.63,0.52,1.03,0.77c0.25-0.39,0.43-0.77,0.59-1.14c0.16-0.37,0.29-0.73,0.4-1.09c0.22-0.72,0.35-1.42,0.42-2.1
			c0.14-1.37,0.04-2.68-0.25-3.95c-0.29-1.27-0.77-2.5-1.49-3.67c-0.36-0.59-0.78-1.16-1.29-1.71c-0.25-0.28-0.53-0.55-0.83-0.81
			c-0.3-0.26-0.63-0.53-1.02-0.77C161.62,53.58,161.44,53.96,161.28,54.33z M132.59,80.94c0.23,0.33,0.46,0.64,0.7,0.92
			c0.49,0.57,1,1.06,1.53,1.49c1.07,0.86,2.23,1.49,3.45,1.94c1.22,0.45,2.51,0.71,3.89,0.75c0.69,0.01,1.4-0.03,2.14-0.16
			c0.37-0.06,0.75-0.15,1.13-0.26c0.39-0.11,0.78-0.25,1.2-0.45c-0.19-0.42-0.41-0.78-0.63-1.11c-0.23-0.33-0.46-0.64-0.7-0.93
			c-0.49-0.57-1-1.06-1.53-1.49c-1.07-0.86-2.23-1.48-3.45-1.93c-1.22-0.44-2.51-0.71-3.89-0.74c-0.69-0.01-1.4,0.03-2.14,0.16
			c-0.37,0.06-0.75,0.15-1.13,0.25c-0.39,0.11-0.78,0.24-1.2,0.44C132.15,80.25,132.37,80.61,132.59,80.94z"/>
		<path class="st188" d="M168.86,64.41c0.37,0.28,0.66,0.57,0.94,0.87c0.27,0.29,0.52,0.59,0.74,0.89c0.45,0.6,0.81,1.21,1.12,1.83
			c0.6,1.24,0.96,2.5,1.12,3.8c0.16,1.29,0.14,2.61-0.13,3.95c-0.14,0.67-0.34,1.36-0.63,2.05c-0.14,0.35-0.31,0.7-0.5,1.05
			c-0.2,0.35-0.41,0.71-0.7,1.07c-0.37-0.28-0.67-0.57-0.95-0.86c-0.27-0.29-0.52-0.59-0.75-0.89c-0.45-0.6-0.82-1.21-1.12-1.83
			c-0.6-1.24-0.95-2.5-1.11-3.8c-0.16-1.29-0.13-2.61,0.14-3.96c0.14-0.67,0.34-1.36,0.63-2.05c0.14-0.35,0.31-0.69,0.5-1.05
			C168.36,65.13,168.58,64.77,168.86,64.41z M189.39,65.42c-0.43,0.17-0.79,0.38-1.14,0.59c-0.34,0.21-0.66,0.43-0.95,0.66
			c-0.59,0.46-1.1,0.95-1.56,1.47c-0.91,1.03-1.58,2.16-2.08,3.36c-0.5,1.2-0.82,2.48-0.91,3.85c-0.04,0.69-0.03,1.4,0.06,2.14
			c0.05,0.37,0.11,0.75,0.21,1.14c0.1,0.39,0.21,0.79,0.39,1.22c0.43-0.17,0.79-0.38,1.14-0.58c0.34-0.21,0.66-0.43,0.96-0.66
			c0.59-0.46,1.11-0.95,1.56-1.47c0.91-1.03,1.58-2.16,2.08-3.37c0.49-1.2,0.82-2.48,0.91-3.85c0.04-0.69,0.03-1.4-0.06-2.14
			c-0.05-0.37-0.11-0.75-0.2-1.14C189.68,66.24,189.57,65.84,189.39,65.42z M178.3,68.77c-0.36,0.29-0.65,0.59-0.92,0.89
			c-0.27,0.3-0.5,0.6-0.72,0.91c-0.43,0.61-0.78,1.23-1.07,1.86c-0.57,1.25-0.89,2.53-1.02,3.82c-0.13,1.3-0.07,2.61,0.24,3.95
			c0.16,0.67,0.38,1.35,0.68,2.03c0.15,0.34,0.33,0.69,0.53,1.03c0.21,0.35,0.43,0.7,0.73,1.05c0.36-0.29,0.65-0.59,0.92-0.89
			c0.27-0.3,0.51-0.6,0.72-0.91c0.43-0.61,0.78-1.23,1.07-1.86c0.57-1.25,0.88-2.53,1.01-3.83c0.12-1.3,0.06-2.61-0.25-3.95
			c-0.16-0.67-0.38-1.35-0.68-2.03c-0.15-0.34-0.33-0.69-0.53-1.03C178.82,69.48,178.59,69.13,178.3,68.77z M203.91,78.55
			c-0.46-0.01-0.88,0.03-1.28,0.09c-0.4,0.06-0.77,0.13-1.14,0.23c-0.72,0.19-1.39,0.43-2.01,0.73c-1.24,0.59-2.31,1.35-3.25,2.26
			c-0.94,0.9-1.74,1.95-2.37,3.17c-0.31,0.61-0.58,1.27-0.79,1.99c-0.1,0.36-0.19,0.74-0.26,1.13c-0.07,0.4-0.12,0.81-0.13,1.28
			c0.46,0.01,0.88-0.03,1.28-0.08c0.4-0.06,0.78-0.13,1.14-0.23c0.73-0.19,1.39-0.43,2.01-0.73c1.24-0.59,2.31-1.36,3.25-2.26
			c0.93-0.91,1.74-1.95,2.36-3.17c0.31-0.61,0.58-1.27,0.79-1.99c0.11-0.36,0.2-0.73,0.27-1.13
			C203.85,79.42,203.9,79.01,203.91,78.55z M195.26,74.71c-0.45,0.11-0.84,0.26-1.21,0.41c-0.37,0.16-0.71,0.33-1.04,0.52
			c-0.65,0.37-1.23,0.78-1.76,1.22c-1.05,0.89-1.88,1.91-2.56,3.02c-0.67,1.12-1.18,2.33-1.47,3.67c-0.15,0.67-0.23,1.38-0.25,2.13
			c-0.01,0.37,0,0.76,0.04,1.16c0.04,0.4,0.09,0.81,0.21,1.26c0.45-0.11,0.84-0.25,1.21-0.41c0.37-0.16,0.72-0.33,1.04-0.51
			c0.65-0.37,1.23-0.78,1.76-1.22c1.05-0.89,1.88-1.91,2.55-3.03c0.67-1.12,1.17-2.33,1.46-3.68c0.14-0.67,0.23-1.38,0.25-2.13
			c0.01-0.37,0-0.76-0.04-1.16C195.43,75.57,195.38,75.15,195.26,74.71z M207.25,86.99c-0.46-0.09-0.87-0.12-1.27-0.13
			c-0.4-0.01-0.79,0-1.16,0.04c-0.75,0.06-1.44,0.2-2.11,0.38c-1.32,0.37-2.51,0.95-3.58,1.68c-1.07,0.74-2.04,1.63-2.87,2.73
			c-0.41,0.55-0.79,1.16-1.11,1.83c-0.16,0.34-0.31,0.69-0.45,1.07c-0.13,0.38-0.26,0.78-0.34,1.24c0.46,0.09,0.87,0.12,1.27,0.13
			c0.4,0.01,0.79,0,1.16-0.03c0.75-0.06,1.45-0.19,2.11-0.38c1.32-0.37,2.5-0.95,3.58-1.69c1.07-0.74,2.04-1.63,2.86-2.74
			c0.41-0.55,0.79-1.16,1.11-1.83c0.16-0.34,0.32-0.69,0.45-1.07C207.05,87.84,207.17,87.45,207.25,86.99z M156.67,80.83
			c0.03,0.4,0.09,0.78,0.16,1.15c0.14,0.73,0.35,1.42,0.61,2.05c0.51,1.28,1.21,2.39,2.06,3.38c0.85,0.99,1.84,1.85,3.02,2.55
			c0.59,0.35,1.23,0.66,1.94,0.91c0.35,0.13,0.72,0.24,1.11,0.33c0.39,0.09,0.8,0.17,1.27,0.2c0.04-0.46,0.02-0.88-0.01-1.28
			c-0.03-0.4-0.09-0.78-0.16-1.15c-0.14-0.74-0.35-1.42-0.6-2.05c-0.51-1.28-1.22-2.39-2.07-3.37c-0.85-0.99-1.84-1.85-3.03-2.55
			c-0.59-0.35-1.23-0.66-1.94-0.91c-0.35-0.13-0.72-0.24-1.11-0.33c-0.39-0.09-0.8-0.17-1.26-0.2
			C156.62,80.01,156.63,80.43,156.67,80.83z M157.82,68.41c-0.04,0.4-0.05,0.79-0.05,1.16c0.01,0.75,0.09,1.46,0.23,2.13
			c0.27,1.35,0.76,2.57,1.42,3.7c0.65,1.13,1.47,2.15,2.51,3.06c0.52,0.45,1.1,0.87,1.74,1.24c0.32,0.19,0.67,0.36,1.04,0.53
			c0.37,0.16,0.76,0.31,1.21,0.43c0.12-0.45,0.18-0.86,0.22-1.26c0.04-0.4,0.06-0.79,0.05-1.16c-0.01-0.75-0.09-1.46-0.22-2.13
			c-0.27-1.35-0.77-2.57-1.42-3.69c-0.66-1.12-1.48-2.15-2.52-3.05c-0.52-0.45-1.1-0.87-1.74-1.24c-0.32-0.19-0.67-0.36-1.03-0.53
			c-0.37-0.16-0.76-0.31-1.2-0.43C157.92,67.6,157.86,68.01,157.82,68.41z M148.91,89.04c0.18,0.36,0.38,0.69,0.59,1
			c0.41,0.62,0.86,1.18,1.34,1.67c0.96,0.98,2.03,1.75,3.19,2.34c1.16,0.59,2.41,1.01,3.77,1.21c0.68,0.1,1.39,0.14,2.14,0.1
			c0.37-0.02,0.76-0.06,1.16-0.12c0.4-0.07,0.81-0.15,1.25-0.3c-0.14-0.44-0.31-0.82-0.49-1.18c-0.18-0.36-0.38-0.69-0.58-1
			c-0.41-0.63-0.86-1.18-1.34-1.67c-0.96-0.98-2.03-1.74-3.2-2.33c-1.16-0.59-2.41-1.01-3.77-1.2c-0.68-0.1-1.39-0.14-2.14-0.1
			c-0.37,0.02-0.76,0.05-1.15,0.12c-0.4,0.06-0.8,0.15-1.24,0.29C148.55,88.31,148.72,88.68,148.91,89.04z M143.04,76.2
			c0.13,0.38,0.27,0.74,0.42,1.08c0.31,0.68,0.67,1.3,1.06,1.86c0.79,1.12,1.73,2.04,2.78,2.81c1.05,0.77,2.22,1.38,3.53,1.79
			c0.66,0.2,1.35,0.35,2.1,0.44c0.37,0.04,0.76,0.06,1.16,0.06c0.4,0,0.82-0.02,1.28-0.1c-0.07-0.46-0.18-0.86-0.3-1.25
			c-0.12-0.38-0.27-0.74-0.42-1.08c-0.31-0.68-0.67-1.3-1.06-1.86c-0.79-1.12-1.74-2.04-2.79-2.81c-1.06-0.76-2.22-1.37-3.54-1.78
			c-0.66-0.2-1.35-0.35-2.1-0.44c-0.37-0.04-0.76-0.07-1.16-0.07c-0.4,0-0.82,0.02-1.28,0.09C142.8,75.42,142.91,75.82,143.04,76.2z
			"/>
		<path class="st189" d="M201.72,50.94c0,0.4-0.02,0.79-0.06,1.16c-0.08,0.74-0.22,1.44-0.42,2.1c-0.4,1.32-1,2.49-1.75,3.55
			c-0.76,1.06-1.67,2.01-2.78,2.81c-0.56,0.4-1.17,0.76-1.85,1.08c-0.34,0.16-0.7,0.3-1.08,0.43c-0.38,0.13-0.78,0.24-1.24,0.31
			c-0.08-0.46-0.1-0.87-0.11-1.28c0-0.4,0.02-0.79,0.05-1.16c0.08-0.74,0.22-1.44,0.42-2.1c0.4-1.32,1-2.49,1.76-3.54
			c0.76-1.06,1.67-2.01,2.79-2.81c0.56-0.4,1.17-0.76,1.85-1.08c0.34-0.16,0.7-0.3,1.08-0.43c0.38-0.13,0.78-0.24,1.24-0.32
			C201.69,50.12,201.71,50.54,201.72,50.94z M170.39,43.03c-0.35,0.3-0.63,0.61-0.89,0.91c-0.26,0.31-0.49,0.62-0.7,0.93
			c-0.41,0.62-0.75,1.25-1.02,1.88c-0.54,1.27-0.82,2.55-0.92,3.85c-0.1,1.3,0,2.61,0.34,3.94c0.17,0.67,0.41,1.34,0.73,2.01
			c0.16,0.34,0.35,0.68,0.56,1.02c0.21,0.34,0.45,0.69,0.76,1.03c0.35-0.3,0.64-0.61,0.9-0.91c0.26-0.31,0.49-0.62,0.7-0.93
			c0.42-0.62,0.75-1.25,1.02-1.88c0.53-1.27,0.82-2.55,0.91-3.85c0.09-1.3-0.01-2.61-0.35-3.94c-0.17-0.67-0.41-1.34-0.73-2.01
			c-0.16-0.34-0.34-0.68-0.55-1.02C170.93,43.72,170.69,43.38,170.39,43.03z M217.02,56.25c-0.46-0.03-0.88-0.01-1.28,0.03
			c-0.4,0.04-0.78,0.1-1.15,0.17c-0.73,0.15-1.41,0.37-2.05,0.63c-1.27,0.53-2.37,1.24-3.35,2.1c-0.98,0.86-1.83,1.86-2.52,3.05
			c-0.34,0.6-0.64,1.24-0.89,1.95c-0.12,0.35-0.23,0.73-0.32,1.12c-0.09,0.39-0.16,0.8-0.19,1.27c0.46,0.03,0.88,0.01,1.28-0.02
			c0.4-0.04,0.78-0.1,1.15-0.17c0.73-0.15,1.41-0.37,2.05-0.63c1.27-0.53,2.37-1.25,3.35-2.11c0.98-0.86,1.83-1.87,2.51-3.06
			c0.34-0.6,0.64-1.24,0.89-1.95c0.12-0.35,0.23-0.72,0.32-1.12C216.92,57.12,216.99,56.72,217.02,56.25z M223.93,71.07
			c-0.42-0.19-0.82-0.31-1.21-0.42c-0.39-0.1-0.77-0.18-1.14-0.23c-0.74-0.11-1.45-0.14-2.14-0.11c-1.37,0.06-2.66,0.35-3.87,0.82
			c-1.21,0.47-2.36,1.12-3.41,2c-0.53,0.44-1.03,0.94-1.5,1.52c-0.24,0.29-0.46,0.6-0.68,0.94c-0.22,0.34-0.43,0.7-0.61,1.13
			c0.42,0.19,0.82,0.32,1.21,0.42c0.39,0.1,0.77,0.18,1.14,0.23c0.74,0.11,1.45,0.14,2.14,0.11c1.37-0.06,2.66-0.35,3.87-0.82
			c1.21-0.47,2.36-1.12,3.41-2.01c0.53-0.44,1.03-0.94,1.5-1.52c0.24-0.29,0.47-0.6,0.68-0.94
			C223.53,71.86,223.74,71.5,223.93,71.07z M127.01,69.64c0.15,0.37,0.31,0.72,0.48,1.05c0.35,0.66,0.74,1.26,1.17,1.79
			c0.86,1.08,1.85,1.94,2.94,2.65c1.1,0.7,2.29,1.25,3.63,1.58c0.67,0.17,1.37,0.27,2.12,0.32c0.37,0.02,0.76,0.02,1.16,0
			c0.4-0.03,0.82-0.07,1.27-0.17c-0.09-0.46-0.23-0.85-0.37-1.23c-0.15-0.37-0.31-0.73-0.48-1.06c-0.35-0.66-0.74-1.26-1.17-1.79
			c-0.86-1.07-1.85-1.94-2.95-2.64c-1.1-0.7-2.3-1.24-3.63-1.57c-0.67-0.17-1.37-0.27-2.12-0.32c-0.37-0.02-0.76-0.02-1.16,0
			c-0.4,0.02-0.82,0.07-1.27,0.17C126.73,68.87,126.87,69.26,127.01,69.64z M149.61,54.24c-0.08,0.39-0.13,0.78-0.17,1.15
			c-0.07,0.75-0.06,1.46,0.01,2.14c0.14,1.37,0.5,2.63,1.03,3.82c0.54,1.19,1.25,2.29,2.19,3.3c0.47,0.5,1,0.98,1.61,1.42
			c0.3,0.22,0.63,0.43,0.98,0.63c0.35,0.2,0.72,0.39,1.16,0.55c0.17-0.43,0.27-0.84,0.35-1.23c0.08-0.39,0.14-0.78,0.17-1.15
			c0.07-0.75,0.06-1.46-0.01-2.14c-0.14-1.37-0.5-2.63-1.04-3.82c-0.54-1.18-1.25-2.29-2.2-3.29c-0.47-0.5-1-0.98-1.61-1.42
			c-0.3-0.22-0.63-0.43-0.97-0.63c-0.35-0.2-0.72-0.39-1.16-0.55C149.79,53.44,149.69,53.84,149.61,54.24z M135.01,61.77
			c0.04,0.4,0.1,0.78,0.18,1.15c0.16,0.73,0.38,1.41,0.64,2.04c0.54,1.27,1.26,2.37,2.12,3.34c0.86,0.97,1.87,1.82,3.07,2.5
			c0.6,0.34,1.25,0.63,1.96,0.88c0.35,0.12,0.73,0.22,1.12,0.31c0.4,0.08,0.8,0.16,1.27,0.18c0.03-0.46,0.01-0.88-0.03-1.28
			c-0.04-0.4-0.1-0.78-0.18-1.15c-0.16-0.73-0.37-1.41-0.64-2.04c-0.54-1.27-1.26-2.36-2.13-3.34c-0.87-0.97-1.88-1.81-3.07-2.49
			c-0.6-0.34-1.25-0.63-1.95-0.88c-0.35-0.12-0.73-0.23-1.12-0.31c-0.39-0.09-0.8-0.16-1.27-0.18
			C134.95,60.95,134.97,61.36,135.01,61.77z"/>
		<path class="st190" d="M197.29,40.18c0.07,0.39,0.11,0.78,0.14,1.15c0.05,0.75,0.02,1.46-0.06,2.14
			c-0.17,1.36-0.56,2.62-1.13,3.79c-0.57,1.17-1.3,2.26-2.27,3.24c-0.48,0.49-1.03,0.95-1.64,1.38c-0.31,0.21-0.64,0.41-0.99,0.61
			c-0.36,0.19-0.73,0.37-1.17,0.52c-0.16-0.44-0.25-0.84-0.32-1.24c-0.07-0.4-0.12-0.78-0.14-1.15c-0.05-0.75-0.03-1.46,0.06-2.14
			c0.17-1.36,0.57-2.62,1.13-3.79c0.57-1.17,1.31-2.26,2.28-3.24c0.48-0.49,1.03-0.95,1.64-1.38c0.31-0.21,0.64-0.42,0.99-0.61
			c0.36-0.19,0.73-0.37,1.17-0.52C197.13,39.38,197.22,39.78,197.29,40.18z M182.94,39.5c-0.4,0.23-0.73,0.48-1.05,0.73
			c-0.31,0.26-0.59,0.52-0.85,0.79c-0.52,0.54-0.97,1.09-1.34,1.67c-0.76,1.15-1.28,2.36-1.61,3.62c-0.33,1.26-0.48,2.57-0.38,3.94
			c0.05,0.69,0.16,1.39,0.35,2.11c0.1,0.36,0.22,0.73,0.36,1.1c0.15,0.38,0.32,0.76,0.55,1.16c0.4-0.23,0.74-0.48,1.05-0.73
			c0.31-0.25,0.59-0.52,0.86-0.78c0.52-0.54,0.97-1.09,1.35-1.67c0.76-1.15,1.27-2.36,1.6-3.62c0.33-1.26,0.47-2.57,0.37-3.94
			c-0.05-0.69-0.16-1.39-0.35-2.11c-0.1-0.36-0.21-0.73-0.36-1.1C183.34,40.27,183.17,39.89,182.94,39.5z M214.17,44.95
			c-0.46,0.03-0.87,0.1-1.26,0.19c-0.39,0.09-0.76,0.2-1.12,0.32c-0.71,0.25-1.35,0.55-1.95,0.89c-1.19,0.69-2.19,1.54-3.06,2.51
			c-0.86,0.98-1.58,2.08-2.1,3.35c-0.26,0.64-0.48,1.31-0.63,2.05c-0.07,0.37-0.13,0.75-0.17,1.15c-0.03,0.4-0.06,0.82-0.02,1.28
			c0.46-0.03,0.87-0.1,1.27-0.19c0.39-0.09,0.76-0.2,1.12-0.32c0.71-0.24,1.35-0.54,1.95-0.89c1.19-0.69,2.19-1.54,3.05-2.52
			c0.86-0.98,1.57-2.09,2.1-3.36c0.26-0.64,0.48-1.31,0.63-2.05c0.08-0.37,0.13-0.75,0.17-1.15
			C214.18,45.83,214.2,45.41,214.17,44.95z M234.68,74.71c-0.39-0.24-0.77-0.42-1.14-0.57c-0.37-0.15-0.74-0.28-1.1-0.38
			c-0.72-0.21-1.42-0.33-2.1-0.4c-1.37-0.13-2.68-0.01-3.95,0.29c-1.27,0.3-2.49,0.79-3.65,1.53c-0.58,0.37-1.15,0.8-1.69,1.31
			c-0.27,0.26-0.54,0.54-0.8,0.84c-0.26,0.31-0.52,0.64-0.76,1.03c0.39,0.25,0.77,0.42,1.14,0.58c0.37,0.15,0.74,0.28,1.1,0.38
			c0.72,0.21,1.42,0.34,2.1,0.4c1.37,0.12,2.68,0.01,3.94-0.3c1.26-0.31,2.49-0.8,3.65-1.53c0.58-0.37,1.15-0.8,1.69-1.31
			c0.27-0.26,0.54-0.53,0.8-0.84C234.19,75.44,234.45,75.11,234.68,74.71z M226.98,60.59c-0.44-0.13-0.85-0.19-1.25-0.24
			c-0.4-0.05-0.78-0.07-1.16-0.07c-0.75,0-1.46,0.06-2.13,0.19c-1.35,0.25-2.58,0.72-3.72,1.35c-1.14,0.63-2.18,1.43-3.1,2.46
			c-0.46,0.51-0.89,1.08-1.28,1.72c-0.19,0.32-0.38,0.66-0.54,1.03c-0.17,0.37-0.33,0.75-0.45,1.2c0.45,0.13,0.86,0.2,1.26,0.25
			c0.4,0.05,0.78,0.07,1.16,0.07c0.75,0.01,1.46-0.06,2.13-0.19c1.35-0.25,2.58-0.72,3.72-1.36c1.13-0.64,2.18-1.44,3.1-2.46
			c0.46-0.51,0.89-1.08,1.28-1.72c0.19-0.32,0.38-0.66,0.55-1.02C226.7,61.42,226.85,61.04,226.98,60.59z M137.23,50.94
			c0,0.4,0.02,0.79,0.06,1.16c0.08,0.74,0.22,1.44,0.42,2.1c0.4,1.32,1,2.49,1.75,3.55c0.76,1.06,1.67,2.01,2.78,2.81
			c0.56,0.4,1.17,0.76,1.85,1.08c0.34,0.16,0.7,0.3,1.08,0.43c0.38,0.13,0.78,0.24,1.24,0.31c0.08-0.46,0.1-0.87,0.11-1.28
			c0-0.4-0.02-0.79-0.06-1.16c-0.08-0.74-0.22-1.44-0.42-2.1c-0.4-1.32-1-2.49-1.76-3.54c-0.76-1.06-1.67-2.01-2.79-2.81
			c-0.56-0.4-1.17-0.76-1.85-1.08c-0.34-0.16-0.7-0.3-1.08-0.43c-0.38-0.13-0.78-0.24-1.24-0.32
			C137.25,50.12,137.23,50.54,137.23,50.94z M149.22,41.25c-0.07,0.39-0.12,0.78-0.14,1.15c-0.05,0.75-0.03,1.46,0.06,2.14
			c0.17,1.37,0.56,2.62,1.12,3.8c0.56,1.17,1.3,2.26,2.26,3.25c0.48,0.49,1.02,0.95,1.64,1.38c0.31,0.21,0.64,0.42,0.99,0.61
			c0.36,0.19,0.73,0.37,1.17,0.52c0.16-0.44,0.25-0.84,0.32-1.24c0.07-0.4,0.12-0.78,0.14-1.15c0.05-0.75,0.03-1.46-0.06-2.14
			c-0.17-1.36-0.56-2.62-1.13-3.79c-0.57-1.17-1.31-2.26-2.27-3.24c-0.48-0.49-1.02-0.95-1.64-1.38c-0.31-0.21-0.64-0.42-0.99-0.61
			c-0.36-0.19-0.73-0.37-1.17-0.52C149.38,40.45,149.29,40.85,149.22,41.25z M160.58,37.26c-0.19,0.35-0.35,0.7-0.5,1.05
			c-0.28,0.69-0.48,1.38-0.62,2.05c-0.27,1.35-0.29,2.66-0.13,3.96c0.17,1.29,0.52,2.56,1.13,3.79c0.3,0.62,0.67,1.23,1.12,1.82
			c0.23,0.3,0.47,0.6,0.75,0.89c0.28,0.29,0.58,0.58,0.95,0.86c0.29-0.37,0.5-0.72,0.7-1.07c0.19-0.35,0.36-0.7,0.5-1.05
			c0.28-0.69,0.48-1.38,0.62-2.05c0.27-1.35,0.29-2.66,0.12-3.95c-0.17-1.29-0.53-2.56-1.13-3.79c-0.3-0.62-0.67-1.23-1.12-1.82
			c-0.23-0.3-0.47-0.6-0.75-0.89c-0.28-0.29-0.57-0.58-0.94-0.86C160.98,36.55,160.77,36.9,160.58,37.26z M122.12,57.52
			c0.09,0.39,0.2,0.76,0.32,1.12c0.25,0.71,0.54,1.35,0.89,1.95c0.69,1.19,1.54,2.2,2.51,3.06c0.98,0.86,2.08,1.58,3.35,2.11
			c0.63,0.26,1.31,0.48,2.05,0.63c0.37,0.08,0.75,0.13,1.15,0.17c0.4,0.04,0.82,0.06,1.28,0.02c-0.03-0.46-0.1-0.87-0.19-1.27
			c-0.09-0.39-0.2-0.76-0.32-1.12c-0.24-0.71-0.54-1.35-0.89-1.95c-0.69-1.19-1.54-2.19-2.52-3.05c-0.98-0.86-2.08-1.57-3.35-2.1
			c-0.64-0.26-1.31-0.48-2.05-0.63c-0.37-0.08-0.75-0.14-1.15-0.17c-0.4-0.04-0.82-0.06-1.28-0.03
			C121.95,56.72,122.03,57.12,122.12,57.52z M115.93,73.41c0.22,0.34,0.45,0.65,0.68,0.94c0.47,0.58,0.98,1.08,1.5,1.52
			c1.05,0.88,2.2,1.53,3.41,2.01c1.21,0.47,2.5,0.76,3.87,0.82c0.69,0.03,1.4,0,2.14-0.11c0.37-0.06,0.75-0.13,1.14-0.23
			c0.39-0.11,0.79-0.23,1.21-0.42c-0.18-0.43-0.39-0.79-0.61-1.13c-0.22-0.34-0.45-0.65-0.68-0.94c-0.47-0.58-0.98-1.08-1.5-1.52
			c-1.05-0.88-2.2-1.53-3.41-2c-1.22-0.47-2.5-0.76-3.87-0.82c-0.69-0.03-1.4,0-2.14,0.11c-0.37,0.06-0.75,0.13-1.14,0.23
			c-0.39,0.1-0.79,0.23-1.21,0.42C115.5,72.71,115.71,73.07,115.93,73.41z"/>
	</g>
</g>
</svg>
