<?xml version="1.0" encoding="utf-8"?>
<!-- Generator: Adobe Illustrator 27.8.1, SVG Export Plug-In . SVG Version: 6.00 Build 0)  -->
<svg version="1.1" xmlns="http://www.w3.org/2000/svg" xmlns:xlink="http://www.w3.org/1999/xlink" x="0px" y="0px"
	 viewBox="0 0 350 230" style="enable-background:new 0 0 350 230;" xml:space="preserve">
<style type="text/css">
	.st0{fill:#FFFDDC;}
	.st1{fill:#FFFDE6;}
	.st2{fill:#FEFFE9;}
	.st3{fill:#FFFCEB;}
	.st4{fill:#FFF9CF;}
	.st5{fill:#F1FFCC;}
	.st6{fill:#60361A;}
	.st7{fill:#FFF4C5;}
	.st8{fill:#FEFFCF;}
	.st9{fill:#FFFFFF;}
	.st10{fill:#FCBEF3;}
	.st11{fill:#007769;}
	.st12{fill:#990000;}
	.st13{fill:#EE388C;}
	.st14{fill:#4862AD;}
	.st15{fill:#EE4B9B;}
	.st16{fill:#FAEE35;}
	.st17{fill:#01A79D;}
	.st18{fill:#8FC640;}
	.st19{fill:#EC2227;}
	.st20{fill:#E7BD20;}
	.st21{fill:#DC8927;}
	.st22{fill:#2F99D5;}
	.st23{fill:#663366;}
	.st24{fill:#FFC907;}
	.st25{fill:#4B83C3;}
	.st26{fill:#F0535B;}
	.st27{fill:#A92990;}
	.st28{fill:#E16E25;}
	.st29{fill:#426CB4;}
	.st30{fill:#E9292B;}
	.st31{fill:#0F77B7;}
	.st32{fill:#EF4A6C;}
	.st33{fill:#65C5B3;}
	.st34{fill:#965724;}
	.st35{fill:#F1A422;}
	.st36{fill:#18479E;}
	.st37{fill:#64C5B2;}
	.st38{fill:#FAE072;}
	.st39{fill:#EF496E;}
	.st40{fill:#231F20;}
	.st41{fill-rule:evenodd;clip-rule:evenodd;fill:#5C493A;}
	.st42{fill-rule:evenodd;clip-rule:evenodd;fill:#F26767;}
	.st43{fill-rule:evenodd;clip-rule:evenodd;fill:#87C443;}
	.st44{fill-rule:evenodd;clip-rule:evenodd;fill:#EE3E96;}
	.st45{fill-rule:evenodd;clip-rule:evenodd;fill:#2195D2;}
	.st46{fill-rule:evenodd;clip-rule:evenodd;fill:#FFCD05;}
	.st47{fill-rule:evenodd;clip-rule:evenodd;fill:#83C341;}
	.st48{fill-rule:evenodd;clip-rule:evenodd;fill:#0F77B7;}
	.st49{fill-rule:evenodd;clip-rule:evenodd;fill:#ED8D36;}
	.st50{fill-rule:evenodd;clip-rule:evenodd;fill:#3CA356;}
	.st51{fill-rule:evenodd;clip-rule:evenodd;fill:#7F4A25;}
	.st52{fill-rule:evenodd;clip-rule:evenodd;fill:#A3B539;}
	.st53{fill-rule:evenodd;clip-rule:evenodd;fill:#FAAF37;}
	.st54{fill-rule:evenodd;clip-rule:evenodd;fill:#0BB4A1;}
	.st55{fill:#00A9CB;}
	.st56{fill:#79AA41;}
	.st57{fill:#CD8F2A;}
	.st58{fill:#0393B0;}
	.st59{fill:#E82F7B;}
	.st60{fill:#D7DF2A;}
	.st61{fill:#8DC443;}
	.st62{fill:#F0A422;}
	.st63{fill:#3A3A3B;}
	.st64{fill:#29AAE1;}
	.st65{fill:#E9246E;}
	.st66{fill:url(#SVGID_1_);}
	.st67{fill:#00EFFF;}
	.st68{fill-rule:evenodd;clip-rule:evenodd;fill:url(#SVGID_00000039817785183697016490000017986008232787637423_);}
	.st69{fill-rule:evenodd;clip-rule:evenodd;fill:url(#SVGID_00000091011392466348909410000009597971529503267501_);}
	.st70{fill-rule:evenodd;clip-rule:evenodd;fill:url(#SVGID_00000123408111598969931680000006165232478708691361_);}
	.st71{fill-rule:evenodd;clip-rule:evenodd;fill:url(#SVGID_00000142854206586123772660000004483335919925485463_);}
	.st72{fill-rule:evenodd;clip-rule:evenodd;fill:url(#SVGID_00000146488167798003649820000014594932710130700426_);}
	.st73{fill-rule:evenodd;clip-rule:evenodd;fill:url(#SVGID_00000041285510175823185450000006773722500468177056_);}
	.st74{fill-rule:evenodd;clip-rule:evenodd;fill:url(#SVGID_00000177483262951064439680000013461170136504832173_);}
	.st75{fill-rule:evenodd;clip-rule:evenodd;fill:url(#SVGID_00000129895557520814543190000002478330391816187799_);}
	.st76{fill-rule:evenodd;clip-rule:evenodd;fill:url(#SVGID_00000114790702950266200440000016035752326135139772_);}
	.st77{fill:url(#SVGID_00000038396323713952157940000002908795264637028535_);}
	.st78{fill:#00889E;}
	.st79{fill:url(#SVGID_00000029018913430184239770000008474758440457772690_);}
	.st80{fill:url(#SVGID_00000160911257752769315110000010284866315486592156_);}
	.st81{fill:url(#SVGID_00000031183297858329182910000017861406028091880342_);}
	.st82{fill:#009AFF;}
	.st83{fill:url(#SVGID_00000069358882228741969490000001621677548963831704_);}
	.st84{fill:url(#SVGID_00000098935171785986591230000007717718401372744122_);}
	.st85{fill:#EF1A24;}
	.st86{fill:url(#SVGID_00000153701713121383975320000009480324518631424912_);}
	.st87{fill:url(#SVGID_00000178913290341731297540000004540590933717223578_);}
	.st88{fill-rule:evenodd;clip-rule:evenodd;fill:#1B2E7A;}
	.st89{fill-rule:evenodd;clip-rule:evenodd;fill:#FFFFFF;}
	.st90{fill-rule:evenodd;clip-rule:evenodd;fill:#FF004D;}
	.st91{fill:#1B2E7A;}
	.st92{fill-rule:evenodd;clip-rule:evenodd;fill:#FFD373;}
	.st93{fill-rule:evenodd;clip-rule:evenodd;fill:#EDB337;}
	.st94{fill-rule:evenodd;clip-rule:evenodd;fill:#FFEDB0;}
	.st95{fill:url(#SVGID_00000018195385407497465190000012235951424212842654_);}
	.st96{fill:#A25F00;}
	.st97{fill:#1B5302;}
	.st98{fill:#00AEEF;}
	.st99{fill:#ED1966;}
	.st100{fill:url(#SVGID_00000006696217766033160670000015723570580077901967_);}
	.st101{fill:url(#SVGID_00000070815019472070446430000001138562338131208619_);}
	.st102{fill:#79BACC;}
	.st103{fill:#E8E3D8;}
	.st104{fill:#F2B220;}
	.st105{fill:url(#SVGID_00000087403860505648723190000000925777009948523146_);}
	.st106{fill:url(#SVGID_00000085951901252914856460000016039379506389208207_);}
	.st107{fill:url(#SVGID_00000006676228803340590310000002749431409982830976_);}
	.st108{fill:url(#SVGID_00000096737797763256566510000016441346079453498510_);}
	.st109{fill:url(#SVGID_00000054247692727785196310000003895029963725353877_);}
	.st110{fill:url(#SVGID_00000093141883866024150480000009174081875622601915_);}
	.st111{fill:url(#SVGID_00000137128885352547333040000004726181081550188217_);}
	.st112{fill:#9B85BE;}
	.st113{fill:#776599;}
	.st114{fill:#FD3861;}
	.st115{fill:#C42244;}
	.st116{fill:#009FE2;}
	.st117{fill:#30B17B;}
	.st118{fill:#FF7D9C;}
	.st119{fill:#9ACA3D;}
	.st120{fill:#856DB5;}
	.st121{fill:url(#SVGID_00000052784743787263561020000007880946260755844744_);}
	.st122{fill:#0075B0;}
	.st123{fill:#CDE250;}
	.st124{fill:#7DDDFF;}
	.st125{fill:#B9EA81;}
	.st126{fill:#FF7D87;}
	.st127{fill-rule:evenodd;clip-rule:evenodd;fill:#FFC60B;}
	.st128{fill-rule:evenodd;clip-rule:evenodd;fill:#9ABE37;}
	.st129{fill-rule:evenodd;clip-rule:evenodd;fill:#74D7E2;}
	.st130{fill-rule:evenodd;clip-rule:evenodd;fill:#FF598A;}
	.st131{fill-rule:evenodd;clip-rule:evenodd;fill:#856DB5;}
	.st132{fill:#ED5681;}
	.st133{fill:#E5B189;}
	.st134{fill:#CE9976;}
	.st135{fill:#80DEFF;}
	.st136{fill:#61C7E2;}
	.st137{fill:#715BA5;}
	.st138{fill:#CCED56;}
	.st139{fill:#9ABE37;}
	.st140{fill:#7D9D2B;}
	.st141{fill:#F4C11E;}
	.st142{fill:#E19A00;}
	.st143{fill:#FFBE00;}
	.st144{fill:#C74D96;}
	.st145{fill:#F4A408;}
	.st146{fill:#00B0DD;}
	.st147{fill:#E62944;}
	.st148{fill:#553590;}
	.st149{fill:#035A31;}
	.st150{fill:#80BE26;}
	.st151{fill:#00549A;}
	.st152{fill:#844596;}
	.st153{fill:#009C42;}
	.st154{fill-rule:evenodd;clip-rule:evenodd;fill:#1F7099;}
	.st155{fill-rule:evenodd;clip-rule:evenodd;fill:#406FB5;}
	.st156{fill-rule:evenodd;clip-rule:evenodd;fill:#A418ED;}
	.st157{fill-rule:evenodd;clip-rule:evenodd;fill:#28834F;}
	.st158{fill-rule:evenodd;clip-rule:evenodd;fill:#1FEA75;}
	.st159{fill-rule:evenodd;clip-rule:evenodd;fill:#07A8A8;}
	.st160{fill-rule:evenodd;clip-rule:evenodd;fill:#25C9EF;}
	.st161{fill-rule:evenodd;clip-rule:evenodd;fill:#FF7D9C;}
	.st162{fill:#724329;}
	.st163{fill:#FFD766;}
	.st164{fill:#6ED9FF;}
	.st165{fill:#FFA9C2;}
	.st166{fill-rule:evenodd;clip-rule:evenodd;fill:url(#SVGID_00000073716703420456223610000001253355062086551446_);}
	.st167{fill-rule:evenodd;clip-rule:evenodd;fill:url(#SVGID_00000035492160765598814960000012807374883755897252_);}
	.st168{fill-rule:evenodd;clip-rule:evenodd;fill:url(#SVGID_00000108297374754913867460000004794562379860381329_);}
	.st169{fill-rule:evenodd;clip-rule:evenodd;fill:#2B61D8;}
	.st170{fill-rule:evenodd;clip-rule:evenodd;fill:#78E9FF;}
	.st171{fill-rule:evenodd;clip-rule:evenodd;fill:#844596;}
	.st172{fill-rule:evenodd;clip-rule:evenodd;fill:#A667FC;}
	.st173{fill-rule:evenodd;clip-rule:evenodd;fill:#379CC0;}
	.st174{fill-rule:evenodd;clip-rule:evenodd;fill:url(#SVGID_00000175283003773356289290000005073769898173926529_);}
	.st175{fill:#FF439D;}
	.st176{fill:#29ABE2;}
	.st177{fill:#AA3AAA;}
	.st178{fill:#78E9FF;}
	.st179{fill:#FFC60B;}
	.st180{fill:#A667FC;}
	.st181{fill-rule:evenodd;clip-rule:evenodd;fill:#CCED56;}
	.st182{fill-rule:evenodd;clip-rule:evenodd;fill:#776599;}
	.st183{fill-rule:evenodd;clip-rule:evenodd;fill:#80DEFF;}
	.st184{fill:#379CC0;}
	.st185{fill:#916E00;}
	.st186{fill:#BAAE1C;}
	.st187{fill:#84BC7A;}
	.st188{fill:#BCAD64;}
	.st189{fill:#D18D2A;}
	.st190{fill:#FFB278;}
	.st191{fill-rule:evenodd;clip-rule:evenodd;fill:#785EF7;}
	.st192{fill-rule:evenodd;clip-rule:evenodd;fill:#C2FF7B;}
	.st193{fill-rule:evenodd;clip-rule:evenodd;fill:#6F96EF;}
	.st194{fill-rule:evenodd;clip-rule:evenodd;fill:#E5B189;}
	.st195{fill-rule:evenodd;clip-rule:evenodd;fill:#72D392;}
	.st196{fill-rule:evenodd;clip-rule:evenodd;fill:#F9C55D;}
	.st197{fill-rule:evenodd;clip-rule:evenodd;fill:#61C165;}
	.st198{fill-rule:evenodd;clip-rule:evenodd;fill:#6786D3;}
	.st199{fill-rule:evenodd;clip-rule:evenodd;fill:#FCB1E3;}
	.st200{fill-rule:evenodd;clip-rule:evenodd;fill:#1CC1E4;}
	.st201{fill-rule:evenodd;clip-rule:evenodd;fill:#6D6DB2;}
	.st202{fill-rule:evenodd;clip-rule:evenodd;fill:#66A2AA;}
	.st203{fill-rule:evenodd;clip-rule:evenodd;fill:#D2FC86;}
	.st204{fill:#7FBC62;}
	.st205{fill:#442109;}
	.st206{fill:#A08657;}
	.st207{fill:#FFCD5C;}
	.st208{fill:#7DA22E;}
	.st209{fill:#F9C941;}
	.st210{fill:#6AC6B4;}
	.st211{fill:#E2C159;}
	.st212{fill:#EF8550;}
</style>
<g id="Layer_1">
</g>
<g id="Layer_2">
</g>
<g id="Layer_3">
</g>
<g id="Layer_4">
</g>
<g id="Layer_5">
</g>
<g id="Layer_6">
</g>
<g id="Layer_7">
</g>
<g id="Layer_8">
</g>
<g id="Layer_9">
</g>
<g id="Layer_10">
</g>
<g id="Layer_11">
</g>
<g id="Layer_12">
</g>
<g id="Layer_13">
</g>
<g id="Layer_14">
</g>
<g id="Layer_15">
	<g>
		<path id="XMLID_767_" class="st118" d="M184.91,102.08c-1.29,1.18-2.76,2.45-4.13,3.71c1.31,1.47,2.54,2.97,3.66,4.49
			c1.59,2.28,2.9,4.7,3.99,7.09c2.18,4.8,3.28,9.62,3.66,13.73c0.81,8.29-1.08,13.52-1.08,13.52s-0.49-5.43-2.82-12.73
			c-1.19-3.64-2.87-7.73-5.19-11.75c-1.11-2.04-2.58-3.94-3.96-5.92c-0.95-1.21-2-2.27-3.02-3.38c-0.52,0.62-1.1,1.15-1.6,1.79
			c-1.38,1.98-2.85,3.88-3.96,5.92c-2.32,4.02-4,8.11-5.19,11.75c-2.33,7.3-2.82,12.73-2.82,12.73s-1.89-5.23-1.08-13.52
			c0.37-4.11,1.48-8.93,3.66-13.73c1.09-2.4,2.4-4.81,3.99-7.09c0.67-0.92,1.39-1.83,2.13-2.74c-0.89-0.78-1.8-1.56-2.6-2.29
			c-2.15-1.72-3.95-3.85-5.68-5.9c-1.65-2.17-2.97-4.5-3.86-6.92c-0.83-2.44-1.3-4.9-1.05-7.18c0.25-4.59,2.54-7.71,4.15-9.43
			c1.69-1.76,2.91-2.37,2.91-2.37s-0.85,1.08-1.78,3.14c-0.91,2.04-1.9,5.13-1.32,8.56c0.17,1.71,0.96,3.44,1.81,5.2
			c0.96,1.74,2.33,3.38,3.8,5.08c1.6,1.62,3.36,3.17,5.29,4.68c1.03,0.88,2.02,1.68,3.01,2.49c1.6-1.42,3.17-2.67,4.82-4.08
			c1.93-1.51,3.69-3.06,5.29-4.68c1.46-1.69,2.84-3.33,3.8-5.07c0.85-1.75,1.63-3.48,1.81-5.2c0.57-3.43-0.41-6.52-1.32-8.56
			c-0.93-2.06-1.78-3.14-1.78-3.14s1.23,0.61,2.91,2.37c1.61,1.72,3.9,4.84,4.15,9.43c0.25,2.27-0.22,4.73-1.05,7.18
			c-0.89,2.42-2.21,4.75-3.86,6.92C188.86,98.23,187.05,100.36,184.91,102.08z M176.72,94.25c3.03,0,5.49-2.46,5.49-5.49
			c0-3.03-2.46-5.49-5.49-5.49c-3.03,0-5.49,2.46-5.49,5.49C171.23,91.79,173.69,94.25,176.72,94.25z"/>
		<path id="XMLID_773_" class="st133" d="M145.96,106.37c-1.15,0.75-2.45,1.53-3.67,2.33c0.82,1.31,1.58,2.62,2.24,3.95
			c0.94,1.97,1.63,4,2.16,6c1.06,3.99,1.29,7.86,1.05,11.08c-0.45,6.51-2.59,10.31-2.59,10.31s0.32-4.26-0.53-10.2
			c-0.45-2.97-1.22-6.34-2.49-9.75c-0.6-1.72-1.48-3.38-2.29-5.09c-0.57-1.06-1.25-2.02-1.9-3c-0.48,0.41-1,0.74-1.47,1.18
			c-1.32,1.35-2.7,2.63-3.82,4.06c-2.32,2.81-4.14,5.75-5.53,8.41c-2.74,5.34-3.82,9.48-3.82,9.48s-0.79-4.29,0.91-10.59
			c0.82-3.13,2.3-6.71,4.6-10.14c1.15-1.71,2.47-3.41,4-4.96c0.64-0.62,1.31-1.23,2-1.84c-0.59-0.72-1.19-1.43-1.72-2.11
			c-1.44-1.61-2.55-3.49-3.62-5.3c-0.99-1.89-1.71-3.86-2.09-5.85c-0.32-1.99-0.37-3.96,0.12-5.68c0.79-3.51,2.96-5.63,4.43-6.75
			c1.53-1.14,2.56-1.46,2.56-1.46s-0.8,0.72-1.78,2.2c-0.97,1.46-2.13,3.72-2.13,6.45c-0.09,1.35,0.3,2.79,0.72,4.25
			c0.52,1.47,1.37,2.92,2.28,4.41c1.03,1.46,2.19,2.88,3.49,4.3c0.68,0.82,1.35,1.56,2.01,2.32c1.42-0.89,2.79-1.65,4.25-2.53
			c1.69-0.92,3.25-1.89,4.7-2.93c1.35-1.12,2.62-2.21,3.59-3.43c0.88-1.24,1.71-2.48,2.07-3.78c0.89-2.58,0.53-5.09,0.09-6.79
			c-0.45-1.72-0.97-2.66-0.97-2.66s0.87,0.63,1.94,2.21c1.02,1.54,2.39,4.25,1.99,7.82c-0.1,1.79-0.78,3.63-1.74,5.41
			c-1,1.75-2.32,3.39-3.88,4.85C149.51,103.91,147.85,105.32,145.96,106.37z M140.65,99.26c2.34,0.39,4.56-1.19,4.95-3.53
			c0.39-2.34-1.19-4.56-3.53-4.95c-2.34-0.39-4.56,1.19-4.95,3.53C136.73,96.65,138.31,98.87,140.65,99.26z"/>
		<path id="XMLID_789_" class="st120" d="M202.58,102.55c-1.56-1.46-2.87-3.1-3.88-4.85c-0.96-1.78-1.64-3.62-1.74-5.41
			c-0.4-3.58,0.97-6.29,1.99-7.82c1.08-1.58,1.94-2.21,1.94-2.21s-0.52,0.94-0.97,2.66c-0.44,1.69-0.8,4.21,0.09,6.79
			c0.36,1.3,1.19,2.54,2.07,3.78c0.97,1.22,2.24,2.31,3.59,3.43c1.45,1.04,3.01,2.01,4.7,2.93c1.46,0.88,2.83,1.64,4.25,2.53
			c0.66-0.76,1.33-1.5,2.01-2.32c1.3-1.42,2.46-2.85,3.49-4.3c0.91-1.5,1.76-2.94,2.28-4.41c0.43-1.46,0.81-2.9,0.72-4.25
			c0-2.73-1.16-4.99-2.13-6.45c-0.98-1.48-1.78-2.2-1.78-2.2s1.03,0.31,2.56,1.46c1.47,1.12,3.64,3.24,4.43,6.75
			c0.49,1.72,0.44,3.69,0.12,5.68c-0.38,1.98-1.09,3.96-2.09,5.85c-1.07,1.81-2.19,3.69-3.62,5.3c-0.53,0.67-1.13,1.39-1.72,2.11
			c0.69,0.6,1.36,1.22,2,1.84c1.53,1.56,2.85,3.25,4,4.96c2.31,3.43,3.78,7.01,4.6,10.14c1.7,6.3,0.91,10.59,0.91,10.59
			s-1.08-4.13-3.82-9.48c-1.39-2.66-3.22-5.6-5.53-8.41c-1.12-1.44-2.5-2.71-3.82-4.06c-0.47-0.43-0.98-0.77-1.47-1.18
			c-0.65,0.99-1.32,1.94-1.9,3c-0.81,1.71-1.7,3.36-2.29,5.09c-1.28,3.41-2.04,6.78-2.49,9.75c-0.85,5.95-0.53,10.2-0.53,10.2
			s-2.14-3.8-2.59-10.31c-0.24-3.23-0.01-7.09,1.05-11.08c0.53-1.99,1.23-4.03,2.16-6c0.66-1.32,1.42-2.64,2.24-3.95
			c-1.22-0.8-2.52-1.59-3.67-2.33C205.84,105.32,204.18,103.91,202.58,102.55z M216.57,94.31c-0.39-2.34-2.61-3.92-4.95-3.53
			c-2.34,0.39-3.92,2.61-3.53,4.95c0.39,2.34,2.61,3.92,4.95,3.53C215.38,98.87,216.97,96.65,216.57,94.31z"/>
		<path class="st178" d="M126.22,112.56c-5.28-12.31-12.68-22.65-15.6-36.17c-5.02-23.2,7.89-44.05,31.69-47.93
			c10.43-1.7,19.43,1.5,27.22,8.44c4.08,3.64,9.25,12.37,15.21,12.92c16.36,1.49,27.58-19.73,44.51-8.79
			c12.56,8.12,16.74,27.29,13.63,41.09c-1.91,8.45-6.45,16.27-12.81,22.11c1.84-3.11,3.77-16.88,4.07-18.84
			c1.58-10.36-0.3-21.39-10.49-26.82c-4.51-2.4-9.87-2.9-14.81-1.78c-5.39,1.22-8.86,6.33-14.1,7.57
			c-5.68,1.34-11.74-0.18-16.88-2.68c-5.71-2.77-10.84-6.66-16.22-10c-5.38-3.34-12.01-4.12-18.14-2.66
			C117.26,55.26,117.78,92.87,126.22,112.56z M243.75,158.98c-9.31-3.47-19.94-6.28-31.3-8.28c-11.64-1.89-23.16-2.81-36.13-2.99
			c-10.76,0.16-24.13,1.1-35.3,2.99c-11.38,1.98-22.01,4.81-31.32,8.28c-3.24,1.22-6.35,2.51-9.29,3.84
			c7.77-1.43,15.94-2.67,24.4-3.68c16.24-1.89,35.67-2.83,51.31-2.99c18.88,0.18,35.63,1.1,52.53,2.99
			c8.46,1.01,16.63,2.25,24.4,3.68C250.09,161.49,246.99,160.2,243.75,158.98z"/>
	</g>
</g>
</svg>
