<?xml version="1.0" encoding="utf-8"?>
<!-- Generator: Adobe Illustrator 27.8.1, SVG Export Plug-In . SVG Version: 6.00 Build 0)  -->
<svg version="1.1" xmlns="http://www.w3.org/2000/svg" xmlns:xlink="http://www.w3.org/1999/xlink" x="0px" y="0px"
	 viewBox="0 0 350 230" style="enable-background:new 0 0 350 230;" xml:space="preserve">
<style type="text/css">
	.st0{fill:#FFFDDC;}
	.st1{fill:#FFFDE6;}
	.st2{fill:#FEFFE9;}
	.st3{fill:#FFFCEB;}
	.st4{fill:#FFF9CF;}
	.st5{fill:#F1FFCC;}
	.st6{fill:#60361A;}
	.st7{fill:#FFF4C5;}
	.st8{fill:#FEFFCF;}
	.st9{fill:#FFFFFF;}
	.st10{fill:#FCBEF3;}
	.st11{fill:#007769;}
	.st12{fill:#990000;}
	.st13{fill:#EE388C;}
	.st14{fill:#4862AD;}
	.st15{fill:#EE4B9B;}
	.st16{fill:#FAEE35;}
	.st17{fill:#01A79D;}
	.st18{fill:#8FC640;}
	.st19{fill:#EC2227;}
	.st20{fill:#E7BD20;}
	.st21{fill:#DC8927;}
	.st22{fill:#2F99D5;}
	.st23{fill:#663366;}
	.st24{fill:#FFC907;}
	.st25{fill:#4B83C3;}
	.st26{fill:#F0535B;}
	.st27{fill:#A92990;}
	.st28{fill:#E16E25;}
	.st29{fill:#426CB4;}
	.st30{fill:#E9292B;}
	.st31{fill:#0F77B7;}
	.st32{fill:#EF4A6C;}
	.st33{fill:#65C5B3;}
	.st34{fill:#965724;}
	.st35{fill:#F1A422;}
	.st36{fill:#18479E;}
	.st37{fill:#64C5B2;}
	.st38{fill:#FAE072;}
	.st39{fill:#EF496E;}
	.st40{fill:#231F20;}
	.st41{fill-rule:evenodd;clip-rule:evenodd;fill:#5C493A;}
	.st42{fill-rule:evenodd;clip-rule:evenodd;fill:#F26767;}
	.st43{fill-rule:evenodd;clip-rule:evenodd;fill:#87C443;}
	.st44{fill-rule:evenodd;clip-rule:evenodd;fill:#EE3E96;}
	.st45{fill-rule:evenodd;clip-rule:evenodd;fill:#2195D2;}
	.st46{fill-rule:evenodd;clip-rule:evenodd;fill:#FFCD05;}
	.st47{fill-rule:evenodd;clip-rule:evenodd;fill:#83C341;}
	.st48{fill-rule:evenodd;clip-rule:evenodd;fill:#0F77B7;}
	.st49{fill-rule:evenodd;clip-rule:evenodd;fill:#ED8D36;}
	.st50{fill-rule:evenodd;clip-rule:evenodd;fill:#3CA356;}
	.st51{fill-rule:evenodd;clip-rule:evenodd;fill:#7F4A25;}
	.st52{fill-rule:evenodd;clip-rule:evenodd;fill:#A3B539;}
	.st53{fill-rule:evenodd;clip-rule:evenodd;fill:#FAAF37;}
	.st54{fill-rule:evenodd;clip-rule:evenodd;fill:#0BB4A1;}
	.st55{fill:#00A9CB;}
	.st56{fill:#79AA41;}
	.st57{fill:#CD8F2A;}
	.st58{fill:#0393B0;}
	.st59{fill:#E82F7B;}
	.st60{fill:#D7DF2A;}
	.st61{fill:#8DC443;}
	.st62{fill:#F0A422;}
	.st63{fill:#3A3A3B;}
	.st64{fill:#29AAE1;}
	.st65{fill:#E9246E;}
	.st66{fill:url(#SVGID_1_);}
	.st67{fill:#00EFFF;}
	.st68{fill-rule:evenodd;clip-rule:evenodd;fill:url(#SVGID_00000090984500363685919920000004739981571260126093_);}
	.st69{fill-rule:evenodd;clip-rule:evenodd;fill:url(#SVGID_00000042715850954759658960000006286986473826076327_);}
	.st70{fill-rule:evenodd;clip-rule:evenodd;fill:url(#SVGID_00000045594757899496273110000003699878778672585094_);}
	.st71{fill-rule:evenodd;clip-rule:evenodd;fill:url(#SVGID_00000131325050233135670090000013811551184793260714_);}
	.st72{fill-rule:evenodd;clip-rule:evenodd;fill:url(#SVGID_00000067205986406728718270000015308201980441864852_);}
	.st73{fill-rule:evenodd;clip-rule:evenodd;fill:url(#SVGID_00000088827326044879757620000009721249506845471677_);}
	.st74{fill-rule:evenodd;clip-rule:evenodd;fill:url(#SVGID_00000032608078283805592060000010072106407278958753_);}
	.st75{fill-rule:evenodd;clip-rule:evenodd;fill:url(#SVGID_00000025418234809028456820000013833109139804392352_);}
	.st76{fill-rule:evenodd;clip-rule:evenodd;fill:url(#SVGID_00000156551716993553765190000007935875978984109236_);}
	.st77{fill:url(#SVGID_00000102516503268269852710000013721472383861680270_);}
	.st78{fill:#00889E;}
	.st79{fill:url(#SVGID_00000175301624701283695350000010072756601854943105_);}
	.st80{fill:url(#SVGID_00000021106175045115293550000009204179074594456451_);}
	.st81{fill:url(#SVGID_00000161631440247677470950000005635816422612503428_);}
	.st82{fill:#009AFF;}
	.st83{fill:url(#SVGID_00000088848830321939416930000000014998130229990550_);}
	.st84{fill:url(#SVGID_00000088829965841465486270000000054231042298479291_);}
	.st85{fill:#EF1A24;}
	.st86{fill:url(#SVGID_00000169527581594257771340000000922998328498382748_);}
	.st87{fill:url(#SVGID_00000172434571834140885150000011874274206070322317_);}
	.st88{fill-rule:evenodd;clip-rule:evenodd;fill:#1B2E7A;}
	.st89{fill-rule:evenodd;clip-rule:evenodd;fill:#FFFFFF;}
	.st90{fill-rule:evenodd;clip-rule:evenodd;fill:#FF004D;}
	.st91{fill:#1B2E7A;}
	.st92{fill-rule:evenodd;clip-rule:evenodd;fill:#FFD373;}
	.st93{fill-rule:evenodd;clip-rule:evenodd;fill:#EDB337;}
	.st94{fill-rule:evenodd;clip-rule:evenodd;fill:#FFEDB0;}
	.st95{fill:url(#SVGID_00000005971324615881876150000004735462098133412754_);}
	.st96{fill:#A25F00;}
	.st97{fill:#1B5302;}
	.st98{fill:#00AEEF;}
	.st99{fill:#ED1966;}
	.st100{fill:url(#SVGID_00000042014274859302781370000010870459368321227164_);}
	.st101{fill:url(#SVGID_00000018227640820689953500000002673423831912615561_);}
	.st102{fill:#79BACC;}
	.st103{fill:#E8E3D8;}
	.st104{fill:#F2B220;}
	.st105{fill:url(#SVGID_00000030478327879008454780000000905019297163155377_);}
	.st106{fill:url(#SVGID_00000036953468865736119800000011001920286312280998_);}
	.st107{fill:url(#SVGID_00000010282813301224130080000003894610555728168614_);}
	.st108{fill:url(#SVGID_00000155834993311813180740000014709870635743256209_);}
	.st109{fill:url(#SVGID_00000106133510166205363840000007207179130145578134_);}
	.st110{fill:url(#SVGID_00000132803713622267882530000003081104914983939978_);}
	.st111{fill:url(#SVGID_00000031166352705232042940000014914175709083179397_);}
	.st112{fill:#9B85BE;}
	.st113{fill:#776599;}
	.st114{fill:#FD3861;}
	.st115{fill:#C42244;}
	.st116{fill:#009FE2;}
	.st117{fill:#30B17B;}
	.st118{fill:#FF7D9C;}
	.st119{fill:#9ACA3D;}
	.st120{fill:#856DB5;}
	.st121{fill:url(#SVGID_00000122705225022612564620000005477532147196368529_);}
	.st122{fill:#0075B0;}
	.st123{fill:#CDE250;}
	.st124{fill:#7DDDFF;}
	.st125{fill:#B9EA81;}
	.st126{fill:#FF7D87;}
	.st127{fill-rule:evenodd;clip-rule:evenodd;fill:#FFC60B;}
	.st128{fill-rule:evenodd;clip-rule:evenodd;fill:#9ABE37;}
	.st129{fill-rule:evenodd;clip-rule:evenodd;fill:#74D7E2;}
	.st130{fill-rule:evenodd;clip-rule:evenodd;fill:#FF598A;}
	.st131{fill-rule:evenodd;clip-rule:evenodd;fill:#856DB5;}
	.st132{fill:#ED5681;}
	.st133{fill:#E5B189;}
	.st134{fill:#CE9976;}
	.st135{fill:#80DEFF;}
	.st136{fill:#61C7E2;}
	.st137{fill:#715BA5;}
	.st138{fill:#CCED56;}
	.st139{fill:#9ABE37;}
	.st140{fill:#7D9D2B;}
	.st141{fill:#F4C11E;}
	.st142{fill:#E19A00;}
	.st143{fill:#FFBE00;}
	.st144{fill:#C74D96;}
	.st145{fill:#F4A408;}
	.st146{fill:#00B0DD;}
	.st147{fill:#E62944;}
	.st148{fill:#553590;}
	.st149{fill:#035A31;}
	.st150{fill:#80BE26;}
	.st151{fill:#00549A;}
	.st152{fill:#844596;}
	.st153{fill:#009C42;}
	.st154{fill-rule:evenodd;clip-rule:evenodd;fill:#1F7099;}
	.st155{fill-rule:evenodd;clip-rule:evenodd;fill:#406FB5;}
	.st156{fill-rule:evenodd;clip-rule:evenodd;fill:#A418ED;}
	.st157{fill-rule:evenodd;clip-rule:evenodd;fill:#28834F;}
	.st158{fill-rule:evenodd;clip-rule:evenodd;fill:#1FEA75;}
	.st159{fill-rule:evenodd;clip-rule:evenodd;fill:#07A8A8;}
	.st160{fill-rule:evenodd;clip-rule:evenodd;fill:#25C9EF;}
	.st161{fill-rule:evenodd;clip-rule:evenodd;fill:#FF7D9C;}
	.st162{fill:#724329;}
	.st163{fill:#FFD766;}
	.st164{fill:#6ED9FF;}
	.st165{fill:#FFA9C2;}
	.st166{fill-rule:evenodd;clip-rule:evenodd;fill:url(#SVGID_00000023959680180823128550000015667444231302490552_);}
	.st167{fill-rule:evenodd;clip-rule:evenodd;fill:url(#SVGID_00000038375075489778592060000017179405477103481239_);}
	.st168{fill-rule:evenodd;clip-rule:evenodd;fill:url(#SVGID_00000007416904586171571210000017631261709927082915_);}
	.st169{fill-rule:evenodd;clip-rule:evenodd;fill:#2B61D8;}
	.st170{fill-rule:evenodd;clip-rule:evenodd;fill:#78E9FF;}
	.st171{fill-rule:evenodd;clip-rule:evenodd;fill:#844596;}
	.st172{fill-rule:evenodd;clip-rule:evenodd;fill:#A667FC;}
	.st173{fill-rule:evenodd;clip-rule:evenodd;fill:#379CC0;}
	.st174{fill-rule:evenodd;clip-rule:evenodd;fill:url(#SVGID_00000117661893992570690500000008002842773934913456_);}
	.st175{fill:#FF439D;}
	.st176{fill:#29ABE2;}
	.st177{fill:#AA3AAA;}
	.st178{fill:#78E9FF;}
	.st179{fill:#FFC60B;}
	.st180{fill:#A667FC;}
	.st181{fill-rule:evenodd;clip-rule:evenodd;fill:#CCED56;}
	.st182{fill-rule:evenodd;clip-rule:evenodd;fill:#776599;}
	.st183{fill-rule:evenodd;clip-rule:evenodd;fill:#80DEFF;}
	.st184{fill:#379CC0;}
	.st185{fill:#916E00;}
	.st186{fill:#BAAE1C;}
	.st187{fill:#84BC7A;}
	.st188{fill:#BCAD64;}
	.st189{fill:#D18D2A;}
	.st190{fill:#FFB278;}
	.st191{fill-rule:evenodd;clip-rule:evenodd;fill:#785EF7;}
	.st192{fill-rule:evenodd;clip-rule:evenodd;fill:#C2FF7B;}
	.st193{fill-rule:evenodd;clip-rule:evenodd;fill:#6F96EF;}
	.st194{fill-rule:evenodd;clip-rule:evenodd;fill:#E5B189;}
	.st195{fill-rule:evenodd;clip-rule:evenodd;fill:#72D392;}
	.st196{fill-rule:evenodd;clip-rule:evenodd;fill:#F9C55D;}
	.st197{fill-rule:evenodd;clip-rule:evenodd;fill:#61C165;}
	.st198{fill-rule:evenodd;clip-rule:evenodd;fill:#6786D3;}
	.st199{fill-rule:evenodd;clip-rule:evenodd;fill:#FCB1E3;}
	.st200{fill-rule:evenodd;clip-rule:evenodd;fill:#1CC1E4;}
	.st201{fill-rule:evenodd;clip-rule:evenodd;fill:#6D6DB2;}
	.st202{fill-rule:evenodd;clip-rule:evenodd;fill:#66A2AA;}
	.st203{fill-rule:evenodd;clip-rule:evenodd;fill:#D2FC86;}
	.st204{fill:#7FBC62;}
	.st205{fill:#442109;}
	.st206{fill:#A08657;}
	.st207{fill:#FFCD5C;}
	.st208{fill:#7DA22E;}
	.st209{fill:#F9C941;}
	.st210{fill:#6AC6B4;}
	.st211{fill:#E2C159;}
	.st212{fill:#EF8550;}
</style>
<g id="Layer_1">
</g>
<g id="Layer_2">
</g>
<g id="Layer_3">
</g>
<g id="Layer_4">
</g>
<g id="Layer_5">
</g>
<g id="Layer_6">
</g>
<g id="Layer_7">
</g>
<g id="Layer_8">
</g>
<g id="Layer_9">
</g>
<g id="Layer_10">
</g>
<g id="Layer_11">
</g>
<g id="Layer_12">
</g>
<g id="Layer_13">
</g>
<g id="Layer_14">
</g>
<g id="Layer_15">
	<g>
		<path class="st135" d="M207.92,141.57c-0.56-0.88-2.28-1.58-2.28-1.58s-1.78-2.06-2.99-3.34c0.88-0.58,1.31-0.99,1.31-0.99
			s-1.14-2.35-2.28-4.91l2.14-5.74l-2.96,3.84l-0.1,0.13l-0.61,0.79l1.5,5.16l-5.15-2.18l-5.27,3.55l1.15-6.14l-5.08-3.63l5.93-1.38
			l0.86-5.42l3.22,4.46c-0.09,0.51-0.16,0.89-0.16,0.89s-0.22,0.55-0.61,0.65c-0.39,0.09-2.2,0.6-2.62,0.56
			c-0.41-0.04-0.42,0.74,0.16,0.97c0.39,0.16,1.1,0.22,1.27,0.2c0.18-0.02,0.49,0.25,0.31,0.75c-0.18,0.5-1.46,2.73-0.89,2.99
			c0.43,0.2,1.46-1.66,1.58-1.88c-0.05,0.17-0.39,1.29-0.42,1.93c-0.01,0.29,0.15,0.37,0.25,0.4c0.34,0.12,1.24-1.72,1.24-1.72
			s-0.6,2-0.12,2.16c0.44,0.15,1.16-1.97,1.36-2.13c0.2-0.16,0.13,2.12,0.67,1.71c0.53-0.41,0.35-1.91,0.46-2.45
			c0.11-0.54,0.08-1.93,0.2-2.25c0.01-0.02,0.03-0.07,0.05-0.13c0,0,0,0,0-0.01c0.13-0.34,0.47-1.2,0.76-2.15
			c0.35-1.16,0.64-2.44,0.44-3.11c-1.53-5.22-5.23-6.84-5.93-7.1c-0.08-0.04-0.12-0.05-0.12-0.05c-0.31-0.13-0.65-0.25-1.01-0.37
			c-1.31-0.43-2.54-0.84-2.77-0.92c-0.51-0.19-0.65-1.26-0.65-1.26s3.19-0.51,5.47-3c-0.05,0.42-0.29,1.26-1.43,1.84
			c0,0,0.19,2.62,3.94,3.72c2.71,0.8,6.32-0.47,6.99-2.93c0,0-1.74,1.13-3.57-1.08c-1.43-1.72-3.59-2.45-5.64-1.9
			c0.19-0.22,0.37-0.46,0.53-0.71c2.24-3.4,2.9-8.67-0.97-11.75c0,0-3.92-5.08-9.57-4.52c-5.64,0.56-6.85,5.36-6.85,5.36l1.35-0.51
			c0,0-0.65,0.93-0.32,2.07c0,0-1.12,2.83-1.78,5.58c-0.65,2.75,1.9,5.95,4.93,7.21c0.04,0.25-0.13,0.92-0.35,1.29
			c0,0-2.37-0.75-3.73-2.23c0,0-0.05,0.05-0.14,0.15c-1.23-2.37-3.31-5.95-3.62-6.73c-0.32-0.85-0.42-2.49-0.24-3.61
			c0.16-0.91,0.37-2.89,1.15-3.68c0.77-0.8-0.73-1.1-1.7-0.43c-0.98,0.68-0.75,1.93-0.96,2.1c-0.2,0.16-1.63-0.58-2.26-1.22
			c0.05-0.81-0.09-1.6-0.35-1.72c-0.05-0.65-0.22-1.15-0.48-1.08c-0.15,0.05-0.29,0.33-0.4,0.67c-0.56-1.06-1.14-2.11-1.48-2.07
			c-0.61,0.07,0.49,2.57,0.37,3.55c-0.11,0.99-0.33,1.74,0.81,3.42c1.15,1.69,1.37,1.88,2.36,5.52c1.25,4.63,1.54,5.63,3.06,8.43
			c0.07,0.13,0.15,0.26,0.23,0.4c-0.15,0.14-0.3,0.27-0.44,0.4c0,0,2.49,4.39,3.44,6.14c0,0,0.13,11.56,4.14,19.02
			c0,0,0.36,0.15,1.08,0.33c0.71,2.89,1.49,6.4,1.27,6.8c-0.3,0.52-2.81,2.41-4.33,3.49c-6.9-0.09-13.63-1.2-20.02-3.19
			c0.02-0.31-0.09-0.64-0.42-0.93c-0.77-0.67-5.85-6.4-6.18-7.48c-0.24-0.78,1.51-8.04,2.5-12.03c0.62-0.07,0.99-0.14,0.99-0.14
			c1-5.67,1.51-10.24,1.72-12.49c-3.3,0.64-6.35,0.33-7.77,0.12c5.07,0.01,8.68-1.24,8.68-1.24s0.83-10.23-1.24-18.37
			c0.49,0.63,0.79,1.28,0.96,1.75c1.77-1.17,3.03-2.75,3.03-2.75c0-0.06-0.01-0.11-0.02-0.17c0.74-0.76,1.41-1.47,1.93-2.1
			c2.76-3.31,3.42-4.55,6.3-10.36c2.26-4.57,2.61-4.76,4.58-6.7c1.96-1.93,1.86-2.98,1.97-4.32c0.11-1.33,2.23-4.36,1.43-4.61
			c-0.43-0.14-1.48,1.09-2.5,2.35c-0.06-0.48-0.17-0.89-0.35-0.99c-0.33-0.16-0.69,0.45-0.92,1.3c-0.38,0.1-0.77,1.1-0.93,2.19
			c-1,0.69-3.09,1.29-3.31,1.02c-0.24-0.28,0.4-1.88-0.72-3.03c-1.12-1.15-3.19-1.15-2.37,0.11s0.58,3.94,0.54,5.19
			c-0.04,1.54-0.61,3.67-1.26,4.72c-0.66,1.04-4.95,5.85-7.1,8.63c-0.08,0.1-0.16,0.2-0.24,0.3c-0.2-0.23-0.32-0.36-0.32-0.36
			c-2.69,1.93-5.18,2.63-6.3,2.87c-0.26-0.01-0.52-0.05-0.75-0.1l-0.34-1.35c0,0,3.87-1.16,5.41-5c1.53-3.84-0.6-9.63-0.6-9.63
			s0.51-0.13,0.89-1.97c0.39-1.83-0.47-3.18-0.47-3.18s0.22-2.04-2.22-3.86c-2.43-1.82-6.99-1.87-7.31-2.34
			c-0.33-0.47-2.36-1.31-5.85-0.25c-3.49,1.07-5.44,4.11-5.44,4.11s-3.96,0.71-5.58,5.41c-1.63,4.71-0.49,8.61,3.13,11.06
			c0,0-0.79,0.39-0.39,1.99c0.39,1.61,2.72,2.89,5.1,2.26c0,0,1.18,0.96,4.28,1.33c0.74,0.1,1.26,1.61,1.26,1.61
			s-3.02,0.43-4.79,2.12c-1.56,1.48-4.85,4.46-4.85,4.46s0.01,0.14,0.06,0.37c-0.24,0.22-0.43,0.39-0.43,0.39
			c-0.75,0.63-2.44,2.08-3.99,3.42c-1.55,1.33-2.97,2.55-3.19,2.69c-0.5,0.32-3.88,0.71-4.39,0.7c-0.52,0-3.56-0.83-4.62-0.99
			c0,0-0.77-0.17-0.93,0.21c-0.17,0.38,0.11,0.91,2.97,1.54c0,0-2.19-0.18-3.29,0.17c-0.8,0.25-0.17,1.04-0.17,1.04
			s-0.6,0.49,0.16,1.11c0.38,0.32,2.82,0.05,3.13,0.02c-0.31,0.12-2.75,1.04-2.8,1.47c-0.05,0.47,0.25,1.15,3.52,0.38
			c1.55-0.4,3.62-0.93,3.93-0.8c0.32,0.12-0.6,2.09-0.6,2.09s-1.52,1.41-0.85,2.07c0.45,0.44,1.96-1.01,2.41-1.29
			c0.46-0.28,1.73-2.12,2.36-2.76c0.63-0.63,1.15-1.14,1.15-1.14s7.63-4.25,9.53-5.32c0,0,0.01-0.01,0.03-0.02
			c0.07,0.03,0.14,0.06,0.21,0.09l0.88-0.4c0,0-0.44,2.1-1.05,4.49c-0.24,0.93-1.78,5.24-1.78,5.24s0.19,0.1,0.56,0.26l-4.15,10.43
			c0.49,0.38,0.98,0.72,1.48,1.02c-1.09,2.28-2.39,4.95-3.37,6.76c-9.82-9.81-16.86-22.62-19.54-37.31
			c-4.21-23.1,3.29-45.61,18.28-61.45c-21.5,15.48-33.4,42.44-28.33,70.24c5.93,32.48,33.14,55.72,64.62,57.94h0.03
			c3.07,0.09,17.2-0.29,29.83-7.06c1.73-0.92,3.43-1.96,5.07-3.15h0.01c0.91-0.65,1.81-1.35,2.68-2.09c1.06-0.9,2.09-1.88,3.07-2.92
			c0.67-0.7,1.3-1.43,1.92-2.2c3.2-3.98,4.49-7.16,5.46-10.84C213.52,135.27,210.89,138.86,207.92,141.57z M149.47,138.58
			c-0.19,0.38-1,1.7-1.29,2.84c-4.29-2.36-8.33-5.16-12.04-8.35c1.56-1.92,4.25-5.17,6.27-8.29c2.2,0.17,3.72-0.14,3.72-0.14
			l1.52-3.65l-0.4,3.71c0.85,0.56,1.77,0.97,2.7,1.26C149.33,131.44,149.69,138.15,149.47,138.58z"/>
		<path class="st118" d="M243.4,118.72c-7.88,15.62-18.6,26.76-32.99,33.09c-22.52,9.9-41.77,7.27-43.63,6.98
			c0.1,0.01,0.24,0.01,0.43,0.02h0.03c3.07,0.09,17.2-0.29,29.83-7.06c1.73-0.92,3.43-1.96,5.07-3.15h0.01
			c0.91-0.65,1.81-1.35,2.68-2.09c1.06-0.9,2.09-1.88,3.07-2.92c0.67-0.7,1.3-1.43,1.92-2.2c3.2-3.98,4.49-7.16,5.46-10.84
			c0.21-0.82,0.41-1.66,0.61-2.54c0.96-5.4-1.22-11.95-0.92-14.72c0.3-2.78,1.73-10.67,0.83-15.46c0.27-2.49,4.74-0.24,4.93,5.17
			c0.18,5.15,0.75,10.85,0.83,11.15c0.02-0.29,4.06-6.84,6.24-22.3c1.25-5.4,6.87-5.77,1.17,19.83c0.24-0.5,4.07-8.65,6.39-21.46
			c1.15-4.04,8.33-3.58-1.19,22.89c0.27-0.39,4.61-6.81,7.66-16.77c1.43-3.66,6.73-0.96-3.65,21.31c0.29-0.28,4.87-4.85,8.42-13.84
			C248.25,100.94,251.28,103.09,243.4,118.72z M187.74,54.28l7.77-1.43l-6.72-3.76l1.27-8.06l-6.13,5.14l-6.8-3.61l2.87,7.19
			l-5.41,5.58l7.67-0.47l3.68,6.83L187.74,54.28z"/>
	</g>
	<g>
		<g>
			<path class="st5" d="M324.74,132.98c3.22,0,3.22-5,0-5C321.52,127.98,321.52,132.98,324.74,132.98L324.74,132.98z"/>
		</g>
	</g>
</g>
</svg>
