<?xml version="1.0" encoding="utf-8"?>
<!-- Generator: Adobe Illustrator 27.8.1, SVG Export Plug-In . SVG Version: 6.00 Build 0)  -->
<svg version="1.1" xmlns="http://www.w3.org/2000/svg" xmlns:xlink="http://www.w3.org/1999/xlink" x="0px" y="0px"
	 viewBox="0 0 350 230" style="enable-background:new 0 0 350 230;" xml:space="preserve">
<style type="text/css">
	.st0{fill:#FFFDDC;}
	.st1{fill:#FFFDE6;}
	.st2{fill:#FEFFE9;}
	.st3{fill:#FFFCEB;}
	.st4{fill:#FFF9CF;}
	.st5{fill:#F1FFCC;}
	.st6{fill:#60361A;}
	.st7{fill:#FFF4C5;}
	.st8{fill:#FEFFCF;}
	.st9{fill:#FFFFFF;}
	.st10{fill:#FCBEF3;}
	.st11{fill:#007769;}
	.st12{fill:#990000;}
	.st13{fill:#EE388C;}
	.st14{fill:#4862AD;}
	.st15{fill:#EE4B9B;}
	.st16{fill:#FAEE35;}
	.st17{fill:#01A79D;}
	.st18{fill:#8FC640;}
	.st19{fill:#EC2227;}
	.st20{fill:#E7BD20;}
	.st21{fill:#DC8927;}
	.st22{fill:#2F99D5;}
	.st23{fill:#663366;}
	.st24{fill:#FFC907;}
	.st25{fill:#4B83C3;}
	.st26{fill:#F0535B;}
	.st27{fill:#A92990;}
	.st28{fill:#E16E25;}
	.st29{fill:#426CB4;}
	.st30{fill:#E9292B;}
	.st31{fill:#0F77B7;}
	.st32{fill:#EF4A6C;}
	.st33{fill:#65C5B3;}
	.st34{fill:#965724;}
	.st35{fill:#F1A422;}
	.st36{fill:#18479E;}
	.st37{fill:#64C5B2;}
	.st38{fill:#FAE072;}
	.st39{fill:#EF496E;}
	.st40{fill:#231F20;}
	.st41{fill-rule:evenodd;clip-rule:evenodd;fill:#5C493A;}
	.st42{fill-rule:evenodd;clip-rule:evenodd;fill:#F26767;}
	.st43{fill-rule:evenodd;clip-rule:evenodd;fill:#87C443;}
	.st44{fill-rule:evenodd;clip-rule:evenodd;fill:#EE3E96;}
	.st45{fill-rule:evenodd;clip-rule:evenodd;fill:#2195D2;}
	.st46{fill-rule:evenodd;clip-rule:evenodd;fill:#FFCD05;}
	.st47{fill-rule:evenodd;clip-rule:evenodd;fill:#83C341;}
	.st48{fill-rule:evenodd;clip-rule:evenodd;fill:#0F77B7;}
	.st49{fill-rule:evenodd;clip-rule:evenodd;fill:#ED8D36;}
	.st50{fill-rule:evenodd;clip-rule:evenodd;fill:#3CA356;}
	.st51{fill-rule:evenodd;clip-rule:evenodd;fill:#7F4A25;}
	.st52{fill-rule:evenodd;clip-rule:evenodd;fill:#A3B539;}
	.st53{fill-rule:evenodd;clip-rule:evenodd;fill:#FAAF37;}
	.st54{fill-rule:evenodd;clip-rule:evenodd;fill:#0BB4A1;}
	.st55{fill:#00A9CB;}
	.st56{fill:#79AA41;}
	.st57{fill:#CD8F2A;}
	.st58{fill:#0393B0;}
	.st59{fill:#E82F7B;}
	.st60{fill:#D7DF2A;}
	.st61{fill:#8DC443;}
	.st62{fill:#F0A422;}
	.st63{fill:#3A3A3B;}
	.st64{fill:#29AAE1;}
	.st65{fill:#E9246E;}
	.st66{fill:url(#SVGID_1_);}
	.st67{fill:#00EFFF;}
	.st68{fill-rule:evenodd;clip-rule:evenodd;fill:url(#SVGID_00000152258367527019855570000013857380110964163976_);}
	.st69{fill-rule:evenodd;clip-rule:evenodd;fill:url(#SVGID_00000175291139721918477780000001260241303718155401_);}
	.st70{fill-rule:evenodd;clip-rule:evenodd;fill:url(#SVGID_00000163074831147889741100000003755178399303157168_);}
	.st71{fill-rule:evenodd;clip-rule:evenodd;fill:url(#SVGID_00000126324773454715885360000016353737655209241494_);}
	.st72{fill-rule:evenodd;clip-rule:evenodd;fill:url(#SVGID_00000102535252456606915780000016699980299761056172_);}
	.st73{fill-rule:evenodd;clip-rule:evenodd;fill:url(#SVGID_00000002377952299540539560000009551706278698095761_);}
	.st74{fill-rule:evenodd;clip-rule:evenodd;fill:url(#SVGID_00000178203896777914537300000015232180543183919276_);}
	.st75{fill-rule:evenodd;clip-rule:evenodd;fill:url(#SVGID_00000144312010247192123620000002357920422549465742_);}
	.st76{fill-rule:evenodd;clip-rule:evenodd;fill:url(#SVGID_00000010271203239626414740000010781707842244093615_);}
	.st77{fill:url(#SVGID_00000004524226609811209710000014644775966032356028_);}
	.st78{fill:#00889E;}
	.st79{fill:url(#SVGID_00000128475083947501427990000011595188727472631946_);}
	.st80{fill:url(#SVGID_00000150782749644938533150000005312821933616827069_);}
	.st81{fill:url(#SVGID_00000067225569154375436400000015086246961115657091_);}
	.st82{fill:#009AFF;}
	.st83{fill:url(#SVGID_00000055702849550796474800000000079637394987726252_);}
	.st84{fill:url(#SVGID_00000083800884705640633070000009179761331994399139_);}
	.st85{fill:#EF1A24;}
	.st86{fill:url(#SVGID_00000004539910137328014530000008874684135115488934_);}
	.st87{fill:url(#SVGID_00000057122326287326384290000005208029693330427054_);}
	.st88{fill-rule:evenodd;clip-rule:evenodd;fill:#1B2E7A;}
	.st89{fill-rule:evenodd;clip-rule:evenodd;fill:#FFFFFF;}
	.st90{fill-rule:evenodd;clip-rule:evenodd;fill:#FF004D;}
	.st91{fill:#1B2E7A;}
	.st92{fill-rule:evenodd;clip-rule:evenodd;fill:#FFD373;}
	.st93{fill-rule:evenodd;clip-rule:evenodd;fill:#EDB337;}
	.st94{fill-rule:evenodd;clip-rule:evenodd;fill:#FFEDB0;}
	.st95{fill:url(#SVGID_00000008125126371221764890000004810144650262295452_);}
	.st96{fill:#A25F00;}
	.st97{fill:#1B5302;}
	.st98{fill:#00AEEF;}
	.st99{fill:#ED1966;}
	.st100{fill:url(#SVGID_00000015333372463209701990000007192398582002741943_);}
	.st101{fill:url(#SVGID_00000065760537700675926000000009287756384063750283_);}
	.st102{fill:#79BACC;}
	.st103{fill:#E8E3D8;}
	.st104{fill:#F2B220;}
	.st105{fill:url(#SVGID_00000066486054409054438570000017211041509695612597_);}
	.st106{fill:url(#SVGID_00000108995970785532364200000001471114161849094579_);}
	.st107{fill:url(#SVGID_00000083802664136122934110000014774191765647355797_);}
	.st108{fill:url(#SVGID_00000023996463166689773680000008558863818030672288_);}
	.st109{fill:url(#SVGID_00000182491649971175668530000012222106629250073497_);}
	.st110{fill:url(#SVGID_00000011746997556031545290000003864304174429158304_);}
	.st111{fill:url(#SVGID_00000181047857869584712560000011555716614203214006_);}
	.st112{fill:#9B85BE;}
	.st113{fill:#776599;}
	.st114{fill:#FD3861;}
	.st115{fill:#C42244;}
	.st116{fill:#009FE2;}
	.st117{fill:#30B17B;}
	.st118{fill:#FF7D9C;}
	.st119{fill:#9ACA3D;}
	.st120{fill:#856DB5;}
	.st121{fill:url(#SVGID_00000057140992255747219540000008127388424061268115_);}
	.st122{fill:#0075B0;}
	.st123{fill:#CDE250;}
	.st124{fill:#7DDDFF;}
	.st125{fill:#B9EA81;}
	.st126{fill:#FF7D87;}
	.st127{fill-rule:evenodd;clip-rule:evenodd;fill:#FFC60B;}
	.st128{fill-rule:evenodd;clip-rule:evenodd;fill:#9ABE37;}
	.st129{fill-rule:evenodd;clip-rule:evenodd;fill:#74D7E2;}
	.st130{fill-rule:evenodd;clip-rule:evenodd;fill:#FF598A;}
	.st131{fill-rule:evenodd;clip-rule:evenodd;fill:#856DB5;}
	.st132{fill:#ED5681;}
	.st133{fill:#E5B189;}
	.st134{fill:#CE9976;}
	.st135{fill:#80DEFF;}
	.st136{fill:#61C7E2;}
	.st137{fill:#715BA5;}
	.st138{fill:#CCED56;}
	.st139{fill:#9ABE37;}
	.st140{fill:#7D9D2B;}
	.st141{fill:#F4C11E;}
	.st142{fill:#E19A00;}
	.st143{fill:#FFBE00;}
	.st144{fill:#C74D96;}
	.st145{fill:#F4A408;}
	.st146{fill:#00B0DD;}
	.st147{fill:#E62944;}
	.st148{fill:#553590;}
	.st149{fill:#035A31;}
	.st150{fill:#80BE26;}
	.st151{fill:#00549A;}
	.st152{fill:#844596;}
	.st153{fill:#009C42;}
	.st154{fill-rule:evenodd;clip-rule:evenodd;fill:#1F7099;}
	.st155{fill-rule:evenodd;clip-rule:evenodd;fill:#406FB5;}
	.st156{fill-rule:evenodd;clip-rule:evenodd;fill:#A418ED;}
	.st157{fill-rule:evenodd;clip-rule:evenodd;fill:#28834F;}
	.st158{fill-rule:evenodd;clip-rule:evenodd;fill:#1FEA75;}
	.st159{fill-rule:evenodd;clip-rule:evenodd;fill:#07A8A8;}
	.st160{fill-rule:evenodd;clip-rule:evenodd;fill:#25C9EF;}
	.st161{fill-rule:evenodd;clip-rule:evenodd;fill:#FF7D9C;}
	.st162{fill:#724329;}
	.st163{fill:#FFD766;}
	.st164{fill:#6ED9FF;}
	.st165{fill:#FFA9C2;}
	.st166{fill-rule:evenodd;clip-rule:evenodd;fill:url(#SVGID_00000085251765217699362280000004503779964022667938_);}
	.st167{fill-rule:evenodd;clip-rule:evenodd;fill:url(#SVGID_00000050645139997440754550000016877416474349252740_);}
	.st168{fill-rule:evenodd;clip-rule:evenodd;fill:url(#SVGID_00000132810310772808713320000014905618292647310227_);}
	.st169{fill-rule:evenodd;clip-rule:evenodd;fill:#2B61D8;}
	.st170{fill-rule:evenodd;clip-rule:evenodd;fill:#78E9FF;}
	.st171{fill-rule:evenodd;clip-rule:evenodd;fill:#844596;}
	.st172{fill-rule:evenodd;clip-rule:evenodd;fill:#A667FC;}
	.st173{fill-rule:evenodd;clip-rule:evenodd;fill:#379CC0;}
	.st174{fill-rule:evenodd;clip-rule:evenodd;fill:url(#SVGID_00000150066481682865604640000010909770957700834948_);}
	.st175{fill:#FF439D;}
	.st176{fill:#29ABE2;}
	.st177{fill:#AA3AAA;}
	.st178{fill:#78E9FF;}
	.st179{fill:#FFC60B;}
	.st180{fill:#A667FC;}
	.st181{fill-rule:evenodd;clip-rule:evenodd;fill:#CCED56;}
	.st182{fill-rule:evenodd;clip-rule:evenodd;fill:#776599;}
	.st183{fill-rule:evenodd;clip-rule:evenodd;fill:#80DEFF;}
	.st184{fill:#379CC0;}
	.st185{fill:#916E00;}
	.st186{fill:#BAAE1C;}
	.st187{fill:#84BC7A;}
	.st188{fill:#BCAD64;}
	.st189{fill:#D18D2A;}
	.st190{fill:#FFB278;}
	.st191{fill-rule:evenodd;clip-rule:evenodd;fill:#785EF7;}
	.st192{fill-rule:evenodd;clip-rule:evenodd;fill:#C2FF7B;}
	.st193{fill-rule:evenodd;clip-rule:evenodd;fill:#6F96EF;}
	.st194{fill-rule:evenodd;clip-rule:evenodd;fill:#E5B189;}
	.st195{fill-rule:evenodd;clip-rule:evenodd;fill:#72D392;}
	.st196{fill-rule:evenodd;clip-rule:evenodd;fill:#F9C55D;}
	.st197{fill-rule:evenodd;clip-rule:evenodd;fill:#61C165;}
	.st198{fill-rule:evenodd;clip-rule:evenodd;fill:#6786D3;}
	.st199{fill-rule:evenodd;clip-rule:evenodd;fill:#FCB1E3;}
	.st200{fill-rule:evenodd;clip-rule:evenodd;fill:#1CC1E4;}
	.st201{fill-rule:evenodd;clip-rule:evenodd;fill:#6D6DB2;}
	.st202{fill-rule:evenodd;clip-rule:evenodd;fill:#66A2AA;}
	.st203{fill-rule:evenodd;clip-rule:evenodd;fill:#D2FC86;}
	.st204{fill:#7FBC62;}
	.st205{fill:#442109;}
	.st206{fill:#A08657;}
	.st207{fill:#FFCD5C;}
	.st208{fill:#7DA22E;}
	.st209{fill:#F9C941;}
	.st210{fill:#6AC6B4;}
	.st211{fill:#E2C159;}
	.st212{fill:#EF8550;}
</style>
<g id="Layer_1">
</g>
<g id="Layer_2">
</g>
<g id="Layer_3">
</g>
<g id="Layer_4">
</g>
<g id="Layer_5">
</g>
<g id="Layer_6">
</g>
<g id="Layer_7">
</g>
<g id="Layer_8">
</g>
<g id="Layer_9">
</g>
<g id="Layer_10">
</g>
<g id="Layer_11">
</g>
<g id="Layer_12">
</g>
<g id="Layer_13">
</g>
<g id="Layer_14">
</g>
<g id="Layer_15">
	<g>
		<path class="st152" d="M223.93,98.57c-2.11-24.55-18.66-43.65-38.8-43.65c-1.51,0-3.02,0.12-4.46,0.32
			c3.22-3.5,9.75-7.92,11.02-8.59c16.55-8.67,35.69,7.52,37.36,24.07C230.02,80.51,227.95,89.94,223.93,98.57z"/>
		<path id="XMLID_873_" class="st178" d="M180.12,56.32h-0.36c-0.72,0-1.43,0.04-2.15,0.12c-0.08-0.16-0.2-0.32-0.32-0.52
			c0,0,0,0-0.04,0c-3.34-5.21-12.81-15.36-33.54-11.34c-11.06,2.11-19.3,11.9-22.08,22.48c-2.67,10.31,0.04,25.94,13.13,26.86
			c2.67,0.16,5.21,0,7.52-0.64c1.95-0.52,3.74-1.39,5.29-2.63c0.84-0.64,1.59-1.43,2.27-2.31c3.82-5.01,4.5-9.91,4.06-13.77
			c-0.2-1.63-0.56-3.1-0.99-4.3c-0.56-1.63-1.23-2.79-1.59-3.38c0.72,0.99,1.35,1.99,1.95,2.9c0.64,1.03,1.23,2.07,1.71,3.02
			c7.8,14.96-0.4,22.92-8.71,26.94c-1.71,0.84-3.46,1.51-5.05,2.07c-3.98,1.31-7.08,1.75-7.08,1.75c1.43,2.9,4.1,5.61,7.32,8.24
			c1.83,1.51,3.82,3.02,5.93,4.54c5.45,3.98,11.42,8.08,15.6,12.77c8.59,9.59,7.6,19.54,7.6,19.54c0.08-0.68,8.16-4.22,9.11-4.81
			c3.58-2.15,7.04-4.5,10.39-6.96c7.04-5.21,13.65-11.02,19.62-17.47c3.46-3.74,6.68-7.8,9.43-12.1c0.04-0.64,0.04-1.31,0.04-1.99
			C219.16,78.28,201.69,56.32,180.12,56.32z M158,69.77c0-0.4,0.04-0.76,0.08-1.15c0.56-4.54,4.34-8,8.99-8.12h0.2
			c5.13,0,9.27,4.14,9.27,9.27c0,5.13-4.14,9.27-9.27,9.27C162.14,79.04,158,74.9,158,69.77z M191.54,99.81
			c3.02-0.24,6.05-0.68,8.95-1.51c2.98-0.84,5.01,3.02,2.51,4.85c-1.91,1.39-3.98,2.63-6.13,3.7c-1.27,0.64-2.55,1.23-3.86,1.75
			c-1.23,0.52-2.82,0.8-3.9,1.51c-0.12,0.08,0.72,0.68,0.84,0.72c0.4,0.16,0.8,0.08,1.23,0.08c0.99,0.04,1.95,0.12,2.9,0.12
			c2.51,0,5.01-0.2,7.44-0.64c0.6,0.52-0.04,1.71-0.92,2.86c-9.39,4.89-24.67,10.58-37.84,4.93c-8.12-3.5-13.17-6.17-16.35-8.08
			c-4.97-2.98-5.33-4.22-5.33-4.22s2.07-0.04,5.01-0.76c5.49-1.43,13.97-5.41,16.67-16.47c0,0,14.01-6.72,24.19-16.99
			c2.27-2.27,5.89,0.28,4.5,3.14c-1.99,4.14-5.13,8.48-9.95,12.1c-0.64,0.48-0.2,1.51,0.6,1.39c3.9-0.6,11.02-2.15,18.03-5.81
			c2.82-1.47,5.57,2.11,3.34,4.34c-2.31,2.31-4.81,4.34-7.52,6.21c-1.71,1.15-3.46,2.27-5.25,3.3c-0.8,0.44-5.45,2.31-5.25,3.18
			C185.69,100.56,190.75,99.89,191.54,99.81z"/>
	</g>
</g>
</svg>
