<?xml version="1.0" encoding="utf-8"?>
<!-- Generator: Adobe Illustrator 27.8.1, SVG Export Plug-In . SVG Version: 6.00 Build 0)  -->
<svg version="1.1" xmlns="http://www.w3.org/2000/svg" xmlns:xlink="http://www.w3.org/1999/xlink" x="0px" y="0px"
	 viewBox="0 0 350 230" style="enable-background:new 0 0 350 230;" xml:space="preserve">
<style type="text/css">
	.st0{fill:#FFFDDC;}
	.st1{fill:#FFFDE6;}
	.st2{fill:#FEFFE9;}
	.st3{fill:#FFFCEB;}
	.st4{fill:#FFF9CF;}
	.st5{fill:#F1FFCC;}
	.st6{fill:#60361A;}
	.st7{fill:#FFF4C5;}
	.st8{fill:#FEFFCF;}
	.st9{fill:#FFFFFF;}
	.st10{fill:#FCBEF3;}
	.st11{fill:#007769;}
	.st12{fill:#990000;}
	.st13{fill:#EE388C;}
	.st14{fill:#4862AD;}
	.st15{fill:#EE4B9B;}
	.st16{fill:#FAEE35;}
	.st17{fill:#01A79D;}
	.st18{fill:#8FC640;}
	.st19{fill:#EC2227;}
	.st20{fill:#E7BD20;}
	.st21{fill:#DC8927;}
	.st22{fill:#2F99D5;}
	.st23{fill:#663366;}
	.st24{fill:#FFC907;}
	.st25{fill:#4B83C3;}
	.st26{fill:#F0535B;}
	.st27{fill:#A92990;}
	.st28{fill:#E16E25;}
	.st29{fill:#426CB4;}
	.st30{fill:#E9292B;}
	.st31{fill:#0F77B7;}
	.st32{fill:#EF4A6C;}
	.st33{fill:#65C5B3;}
	.st34{fill:#965724;}
	.st35{fill:#F1A422;}
	.st36{fill:#18479E;}
	.st37{fill:#64C5B2;}
	.st38{fill:#FAE072;}
	.st39{fill:#EF496E;}
	.st40{fill:#231F20;}
	.st41{fill-rule:evenodd;clip-rule:evenodd;fill:#5C493A;}
	.st42{fill-rule:evenodd;clip-rule:evenodd;fill:#F26767;}
	.st43{fill-rule:evenodd;clip-rule:evenodd;fill:#87C443;}
	.st44{fill-rule:evenodd;clip-rule:evenodd;fill:#EE3E96;}
	.st45{fill-rule:evenodd;clip-rule:evenodd;fill:#2195D2;}
	.st46{fill-rule:evenodd;clip-rule:evenodd;fill:#FFCD05;}
	.st47{fill-rule:evenodd;clip-rule:evenodd;fill:#83C341;}
	.st48{fill-rule:evenodd;clip-rule:evenodd;fill:#0F77B7;}
	.st49{fill-rule:evenodd;clip-rule:evenodd;fill:#ED8D36;}
	.st50{fill-rule:evenodd;clip-rule:evenodd;fill:#3CA356;}
	.st51{fill-rule:evenodd;clip-rule:evenodd;fill:#7F4A25;}
	.st52{fill-rule:evenodd;clip-rule:evenodd;fill:#A3B539;}
	.st53{fill-rule:evenodd;clip-rule:evenodd;fill:#FAAF37;}
	.st54{fill-rule:evenodd;clip-rule:evenodd;fill:#0BB4A1;}
	.st55{fill:#00A9CB;}
	.st56{fill:#79AA41;}
	.st57{fill:#CD8F2A;}
	.st58{fill:#0393B0;}
	.st59{fill:#E82F7B;}
	.st60{fill:#D7DF2A;}
	.st61{fill:#8DC443;}
	.st62{fill:#F0A422;}
	.st63{fill:#3A3A3B;}
	.st64{fill:#29AAE1;}
	.st65{fill:#E9246E;}
	.st66{fill:url(#SVGID_1_);}
	.st67{fill:#00EFFF;}
	.st68{fill-rule:evenodd;clip-rule:evenodd;fill:url(#SVGID_00000092456805259391841190000007821827694111837842_);}
	.st69{fill-rule:evenodd;clip-rule:evenodd;fill:url(#SVGID_00000026129961857502229390000004705911218381447335_);}
	.st70{fill-rule:evenodd;clip-rule:evenodd;fill:url(#SVGID_00000093152290769958553550000014247500814822011829_);}
	.st71{fill-rule:evenodd;clip-rule:evenodd;fill:url(#SVGID_00000137822407246716108210000016484645667073469570_);}
	.st72{fill-rule:evenodd;clip-rule:evenodd;fill:url(#SVGID_00000088839145366961262520000011335443540639060871_);}
	.st73{fill-rule:evenodd;clip-rule:evenodd;fill:url(#SVGID_00000013184329707345422210000011574302037919537079_);}
	.st74{fill-rule:evenodd;clip-rule:evenodd;fill:url(#SVGID_00000119835984846385640230000009680047848291173788_);}
	.st75{fill-rule:evenodd;clip-rule:evenodd;fill:url(#SVGID_00000034084282457422187460000007580939500338621333_);}
	.st76{fill-rule:evenodd;clip-rule:evenodd;fill:url(#SVGID_00000145752012717077244490000009504274763416353671_);}
	.st77{fill:url(#SVGID_00000067225411022064758660000013735192909976234129_);}
	.st78{fill:#00889E;}
	.st79{fill:url(#SVGID_00000143578137882397182470000009094983616732584327_);}
	.st80{fill:url(#SVGID_00000038402077764620190750000017282002771600758401_);}
	.st81{fill:url(#SVGID_00000013155320877004286420000006668010025173524117_);}
	.st82{fill:#009AFF;}
	.st83{fill:url(#SVGID_00000088851094601849888700000005502007020677120406_);}
	.st84{fill:url(#SVGID_00000183232762880489521290000017238762157857064576_);}
	.st85{fill:#EF1A24;}
	.st86{fill:url(#SVGID_00000082354331525934858310000006635722494842028430_);}
	.st87{fill:url(#SVGID_00000068673930948331418060000011638196528627356305_);}
	.st88{fill-rule:evenodd;clip-rule:evenodd;fill:#1B2E7A;}
	.st89{fill-rule:evenodd;clip-rule:evenodd;fill:#FFFFFF;}
	.st90{fill-rule:evenodd;clip-rule:evenodd;fill:#FF004D;}
	.st91{fill:#1B2E7A;}
	.st92{fill-rule:evenodd;clip-rule:evenodd;fill:#FFD373;}
	.st93{fill-rule:evenodd;clip-rule:evenodd;fill:#EDB337;}
	.st94{fill-rule:evenodd;clip-rule:evenodd;fill:#FFEDB0;}
	.st95{fill:url(#SVGID_00000172434988658283807550000002944964660958143128_);}
	.st96{fill:#A25F00;}
	.st97{fill:#1B5302;}
	.st98{fill:#00AEEF;}
	.st99{fill:#ED1966;}
	.st100{fill:url(#SVGID_00000112622493659992348440000018350718388397193354_);}
	.st101{fill:url(#SVGID_00000167397325981834351080000015983653607750515603_);}
	.st102{fill:#79BACC;}
	.st103{fill:#E8E3D8;}
	.st104{fill:#F2B220;}
	.st105{fill:url(#SVGID_00000020378006755966995760000007356268586830954646_);}
	.st106{fill:url(#SVGID_00000175305759902106957150000011791248277188632238_);}
	.st107{fill:url(#SVGID_00000168101900467130530350000000155320615757501625_);}
	.st108{fill:url(#SVGID_00000016073405561049396820000018405465891958192002_);}
	.st109{fill:url(#SVGID_00000146480020038490926700000011017680366165360060_);}
	.st110{fill:url(#SVGID_00000142175700499518887230000017721561908141465481_);}
	.st111{fill:url(#SVGID_00000137095365812951171700000007087335222580869798_);}
	.st112{fill:#9B85BE;}
	.st113{fill:#776599;}
	.st114{fill:#FD3861;}
	.st115{fill:#C42244;}
	.st116{fill:#009FE2;}
	.st117{fill:#30B17B;}
	.st118{fill:#FF7D9C;}
	.st119{fill:#9ACA3D;}
	.st120{fill:#856DB5;}
	.st121{fill:url(#SVGID_00000137812098041037353050000011705806001413162902_);}
	.st122{fill:#0075B0;}
	.st123{fill:#CDE250;}
	.st124{fill:#7DDDFF;}
	.st125{fill:#B9EA81;}
	.st126{fill:#FF7D87;}
	.st127{fill-rule:evenodd;clip-rule:evenodd;fill:#FFC60B;}
	.st128{fill-rule:evenodd;clip-rule:evenodd;fill:#9ABE37;}
	.st129{fill-rule:evenodd;clip-rule:evenodd;fill:#74D7E2;}
	.st130{fill-rule:evenodd;clip-rule:evenodd;fill:#FF598A;}
	.st131{fill-rule:evenodd;clip-rule:evenodd;fill:#856DB5;}
	.st132{fill:#ED5681;}
	.st133{fill:#E5B189;}
	.st134{fill:#CE9976;}
	.st135{fill:#80DEFF;}
	.st136{fill:#61C7E2;}
	.st137{fill:#715BA5;}
	.st138{fill:#CCED56;}
	.st139{fill:#9ABE37;}
	.st140{fill:#7D9D2B;}
	.st141{fill:#F4C11E;}
	.st142{fill:#E19A00;}
	.st143{fill:#FFBE00;}
	.st144{fill:#C74D96;}
	.st145{fill:#F4A408;}
	.st146{fill:#00B0DD;}
	.st147{fill:#E62944;}
	.st148{fill:#553590;}
	.st149{fill:#035A31;}
	.st150{fill:#80BE26;}
	.st151{fill:#00549A;}
	.st152{fill:#844596;}
	.st153{fill:#009C42;}
	.st154{fill-rule:evenodd;clip-rule:evenodd;fill:#1F7099;}
	.st155{fill-rule:evenodd;clip-rule:evenodd;fill:#406FB5;}
	.st156{fill-rule:evenodd;clip-rule:evenodd;fill:#A418ED;}
	.st157{fill-rule:evenodd;clip-rule:evenodd;fill:#28834F;}
	.st158{fill-rule:evenodd;clip-rule:evenodd;fill:#1FEA75;}
	.st159{fill-rule:evenodd;clip-rule:evenodd;fill:#07A8A8;}
	.st160{fill-rule:evenodd;clip-rule:evenodd;fill:#25C9EF;}
	.st161{fill-rule:evenodd;clip-rule:evenodd;fill:#FF7D9C;}
	.st162{fill:#724329;}
	.st163{fill:#FFD766;}
	.st164{fill:#6ED9FF;}
	.st165{fill:#FFA9C2;}
	.st166{fill-rule:evenodd;clip-rule:evenodd;fill:url(#SVGID_00000176759316906210720400000003667179649342782594_);}
	.st167{fill-rule:evenodd;clip-rule:evenodd;fill:url(#SVGID_00000167392875012022102580000013401532033956587906_);}
	.st168{fill-rule:evenodd;clip-rule:evenodd;fill:url(#SVGID_00000121265600184534402210000008121001843113074304_);}
	.st169{fill-rule:evenodd;clip-rule:evenodd;fill:#2B61D8;}
	.st170{fill-rule:evenodd;clip-rule:evenodd;fill:#78E9FF;}
	.st171{fill-rule:evenodd;clip-rule:evenodd;fill:#844596;}
	.st172{fill-rule:evenodd;clip-rule:evenodd;fill:#A667FC;}
	.st173{fill-rule:evenodd;clip-rule:evenodd;fill:#379CC0;}
	.st174{fill-rule:evenodd;clip-rule:evenodd;fill:url(#SVGID_00000111167955969607997830000014788977132179782802_);}
	.st175{fill:#FF439D;}
	.st176{fill:#29ABE2;}
	.st177{fill:#AA3AAA;}
	.st178{fill:#78E9FF;}
	.st179{fill:#FFC60B;}
	.st180{fill:#A667FC;}
	.st181{fill-rule:evenodd;clip-rule:evenodd;fill:#CCED56;}
	.st182{fill-rule:evenodd;clip-rule:evenodd;fill:#776599;}
	.st183{fill-rule:evenodd;clip-rule:evenodd;fill:#80DEFF;}
	.st184{fill:#379CC0;}
	.st185{fill:#916E00;}
	.st186{fill:#BAAE1C;}
	.st187{fill:#84BC7A;}
	.st188{fill:#BCAD64;}
	.st189{fill:#D18D2A;}
	.st190{fill:#FFB278;}
	.st191{fill-rule:evenodd;clip-rule:evenodd;fill:#785EF7;}
	.st192{fill-rule:evenodd;clip-rule:evenodd;fill:#C2FF7B;}
	.st193{fill-rule:evenodd;clip-rule:evenodd;fill:#6F96EF;}
	.st194{fill-rule:evenodd;clip-rule:evenodd;fill:#E5B189;}
	.st195{fill-rule:evenodd;clip-rule:evenodd;fill:#72D392;}
	.st196{fill-rule:evenodd;clip-rule:evenodd;fill:#F9C55D;}
	.st197{fill-rule:evenodd;clip-rule:evenodd;fill:#61C165;}
	.st198{fill-rule:evenodd;clip-rule:evenodd;fill:#6786D3;}
	.st199{fill-rule:evenodd;clip-rule:evenodd;fill:#FCB1E3;}
	.st200{fill-rule:evenodd;clip-rule:evenodd;fill:#1CC1E4;}
	.st201{fill-rule:evenodd;clip-rule:evenodd;fill:#6D6DB2;}
	.st202{fill-rule:evenodd;clip-rule:evenodd;fill:#66A2AA;}
	.st203{fill-rule:evenodd;clip-rule:evenodd;fill:#D2FC86;}
	.st204{fill:#7FBC62;}
	.st205{fill:#442109;}
	.st206{fill:#A08657;}
	.st207{fill:#FFCD5C;}
	.st208{fill:#7DA22E;}
	.st209{fill:#F9C941;}
	.st210{fill:#6AC6B4;}
	.st211{fill:#E2C159;}
	.st212{fill:#EF8550;}
</style>
<g id="Layer_1">
</g>
<g id="Layer_2">
</g>
<g id="Layer_3">
</g>
<g id="Layer_4">
</g>
<g id="Layer_5">
</g>
<g id="Layer_6">
</g>
<g id="Layer_7">
</g>
<g id="Layer_8">
</g>
<g id="Layer_9">
</g>
<g id="Layer_10">
</g>
<g id="Layer_11">
</g>
<g id="Layer_12">
</g>
<g id="Layer_13">
</g>
<g id="Layer_14">
</g>
<g id="Layer_15">
	<g>
		<linearGradient id="SVGID_1_" gradientUnits="userSpaceOnUse" x1="215.4054" y1="10.9668" x2="100.524" y2="195.2524">
			<stop  offset="0.23" style="stop-color:#E5419C"/>
			<stop  offset="0.2378" style="stop-color:#E6439C"/>
			<stop  offset="0.3421" style="stop-color:#F15D9C"/>
			<stop  offset="0.4504" style="stop-color:#F96F9C"/>
			<stop  offset="0.5642" style="stop-color:#FD799C"/>
			<stop  offset="0.6925" style="stop-color:#FF7D9C"/>
		</linearGradient>
		<path style="fill-rule:evenodd;clip-rule:evenodd;fill:url(#SVGID_1_);" d="M207.84,63.82c-1.57-0.68-3.38-1.35-5.54-2.11
			c-2.3-0.81-4.65-1.54-7-2.14c3.84-2.86,6.43-7.46,6.97-12.19c2.46,0.73,4.89,1.57,7.3,2.49c19.7,7.57,21.51,14.16,18.65,34.35
			c-0.24,1.68-0.51,3.38-0.81,5.08C226.74,78.52,221.87,69.23,207.84,63.82L207.84,63.82z M135.36,83.15
			c3.05,20.65,10.41,41.97,25.49,55c0.46,0.41,0.95,0.81,1.43,1.22c6.84,5.49,11.05,7.43,16.03,5.81l0,0
			c-12.08,5.41-21.49,5.41-30.11-0.16c-2.49-2.49-4.76-5.13-6.84-7.97c-11.24-15.19-17-34.62-19.57-52.81
			c-2.89-20.19-1.08-26.78,18.62-34.35c2.57-0.97,6.43-2.24,9.03-3c0.84,4.81,3.73,9.38,7.86,11.97c-2.81,0.68-6.86,1.89-9.62,2.86
			C133.36,66.77,133.2,68.55,135.36,83.15L135.36,83.15z"/>
		
			<linearGradient id="SVGID_00000103243806369272748840000001021186032673914763_" gradientUnits="userSpaceOnUse" x1="106.0634" y1="136.8497" x2="161.6102" y2="136.8497">
			<stop  offset="0.2237" style="stop-color:#80DEFF"/>
			<stop  offset="0.7296" style="stop-color:#336BFF"/>
		</linearGradient>
		<path style="fill-rule:evenodd;clip-rule:evenodd;fill:url(#SVGID_00000103243806369272748840000001021186032673914763_);" d="
			M196.76,133.36c-7.11,3.73-12.22,3.89-17.97,2.73l0.05,0.05c8.62,5.57,18.03,5.57,30.11,0.16l0,0
			C204.97,137.6,201.49,136.6,196.76,133.36L196.76,133.36z"/>
		
			<linearGradient id="SVGID_00000093863727787941886020000003746515344569842853_" gradientUnits="userSpaceOnUse" x1="116.1295" y1="173.6774" x2="270.6092" y2="53.6476">
			<stop  offset="0.2237" style="stop-color:#80DEFF"/>
			<stop  offset="0.7296" style="stop-color:#336BFF"/>
		</linearGradient>
		<path style="fill-rule:evenodd;clip-rule:evenodd;fill:url(#SVGID_00000093863727787941886020000003746515344569842853_);" d="
			M178.3,145.17c2.7-0.86,5.65-2.81,9.41-5.81c13.05-10.49,20.59-27.03,24.65-44.3c0.95-3.95,1.68-7.95,2.27-11.92
			c1.84-12.38,2-15.54-6.78-19.32l0,0c14.03,5.41,18.89,14.7,19.57,25.49c-1.59,9.22-4.05,18.62-7.65,27.51
			c-5.73,14.13-14.35,27.03-27.03,35.81c-13.86,9.62-21.62,9.62-35.49,0c-3.3-2.27-6.3-4.84-9.05-7.62
			C156.82,150.58,166.22,150.58,178.3,145.17L178.3,145.17z"/>
		<path class="st169" d="M215.38,77.52c0.86-7.86-0.27-10.57-7.54-13.7l0,0c14.03,5.41,18.89,14.7,19.57,25.49l-0.03,0.14
			C223.84,83.42,221.38,80.82,215.38,77.52L215.38,77.52z"/>
		<path class="st170" d="M170.6,37.34c3.41,3.84,5.05,9.89,3.35,15.19c-0.97,3.03-2.73,5.68-4.86,6.89
			c-0.14,0.08-0.27,0.16-0.41,0.22l7.73,16.86l-0.43,0.16l-7.73-16.86c-0.14,0.05-0.27,0.11-0.43,0.14
			c-2.38,0.59-5.46-0.11-8.27-1.62c-5.03-2.7-8.05-8.43-8.11-13.68C151.36,34.55,163.87,29.77,170.6,37.34L170.6,37.34z"/>
		<path class="st171" d="M186.14,36.26c1.73,4.84,1,11.08-2.54,15.35c-2.05,2.46-4.68,4.24-7.08,4.59
			c-0.16,0.03-0.32,0.03-0.46,0.05v19.57h-0.46V56.25c-0.16-0.03-0.32-0.03-0.46-0.05c-2.43-0.35-5.05-2.14-7.08-4.59
			c-3.65-4.38-4.32-10.84-2.41-15.73C169.33,26.53,182.71,26.74,186.14,36.26L186.14,36.26z"/>
		<path class="st172" d="M200.74,46.58c-0.35,5.11-3.54,10.54-8.51,13c-2.86,1.43-5.97,2.03-8.32,1.38
			c-0.16-0.05-0.3-0.11-0.43-0.16l-7.41,14.92l-0.43-0.19l7.41-14.89c-0.14-0.08-0.27-0.16-0.41-0.24
			c-2.08-1.27-3.76-3.97-4.62-7.05c-1.57-5.49,0.41-11.65,4.11-15.35C189.25,30.88,201.44,36.47,200.74,46.58L200.74,46.58z"/>
		<path class="st173" d="M173.2,88.6c-0.22-0.89-0.46-1.81-0.7-2.7c-0.81-5.73-10.3-3.84-10.86,1.41c-4.32-0.49-3.27,4.73-1.62,7.11
			c1.46,2.14,1.73,3.22,1.38,5.65c2.05-2,3.16-5.24,0.92-8.51c-0.19-0.27-0.7-1.05-0.35-1.89c0.08,0.22,0.19,0.43,0.3,0.68
			c0.65,1.3,1.62,1.7,2.89,2.57c0.73,0.54,1.46,1.05,2.19,1.57c-3.3,2.84-5.19,4.19-2.81,8.62c-0.16,3.05-0.32,6.08-0.46,9.13
			c-0.05,0.97-0.35,1.68-0.68,2.54c-0.46,1.27,1.89,3.68,3.3,1.81c0.24-0.35,0.35-0.68,0.11-1.22c-0.16-0.32-0.3-0.68-0.43-1.03
			c0.19,0.05,0.41,0.08,0.62,0.14c0.97,0.16,0.7-0.76,0.27-1.22c-0.16-0.16-0.3-0.32-0.46-0.49c-0.54-0.57-0.35-0.54-0.19-1.32
			c0.41-1.97,0.81-3.92,1.24-5.86c0.05,4.46,0.11,8.95,0.16,13.4c0.03,2.38,0.73,3.86,2.22,3.62c0.57,2.3,1.14,4.59,1.7,6.89
			c0.05,1.46,0.08,2.95,0.11,4.43c0.05,1.62,1.08,2.38,2.32,2.68c3.19,0.76,3.43-0.24,2.24-2.95c-0.57-1.32-1.14-2.65-1.7-3.97
			c0.11-2.41,0.19-4.81,0.3-7.22c-0.19-0.86-0.38-1.76-0.57-2.65c1.3-0.78,2.7-1.35,4.27-1.3c0.11,0,0.22,0.03,0.32,0.03
			c0.65,1.38,1.32,2.76,1.97,4.14c1.05,2.35,1.76,3.78,2.35,6.3c0.14,0.76,0.3,1.49,0.46,2.22c0.62,2.84,2.73,3.76,3.57,0.92
			c0.57-1.95-0.24-3.11-0.92-4.97c-0.7-4.08-1.51-6.38-2.89-10.3c-0.08,0,0.46-0.68,0.54-0.78c0.81-1.19,1.65-2.19,3.05-3.41
			c1.16-0.97,1.57-1.59,0.57-3.59c-2.16-4.43-6.19-6.65-10.32-10.22c-0.65-2.11-0.84-2.81-1.49-4.92c1.32-6.76,0.97-8.89,0.41-15.38
			c0.24-0.57,0.49-1.14,0.73-1.7c0.76-1.81-0.38-2.24-1.65-2.32c-1.24-0.08-0.97,0.24-1.22,1.51c-0.27,1.27-0.27,1.95-0.05,3.86
			C174.09,82.79,174.14,85.82,173.2,88.6L173.2,88.6z"/>
		
			<linearGradient id="SVGID_00000021095863412772802770000004323417973859188618_" gradientUnits="userSpaceOnUse" x1="151.8974" y1="77.7243" x2="270.1555" y2="58.9501">
			<stop  offset="0" style="stop-color:#A64FA0"/>
			<stop  offset="1" style="stop-color:#000000"/>
		</linearGradient>
		<path style="fill-rule:evenodd;clip-rule:evenodd;fill:url(#SVGID_00000021095863412772802770000004323417973859188618_);" d="
			M165.71,63.82l0.76,1.49l1.57,0.54l-1.19,1.19l-0.03,1.65l-1.49-0.76l-1.59,0.49l0.27-1.65l-0.95-1.38l1.65-0.24L165.71,63.82z
			 M191.98,64.81l-1.65,0.24l0.95,1.38l-0.27,1.65l1.59-0.49l1.49,0.76l0.03-1.65l1.19-1.19l-1.57-0.54l-0.76-1.49L191.98,64.81z
			 M206.46,67.58l-1.65,0.24l0.95,1.38l-0.27,1.65l1.59-0.49l1.49,0.76l0.03-1.65l1.19-1.19l-1.57-0.54l-0.76-1.49L206.46,67.58z
			 M183.61,73.12l-1.65,0.24l0.95,1.38l-0.27,1.65l1.59-0.49l1.49,0.76l0.03-1.65l1.19-1.19l-1.57-0.54l-0.76-1.49L183.61,73.12z
			 M197.88,79.05l-1.65,0.24l0.95,1.38l-0.27,1.65l1.59-0.49l1.49,0.76l0.03-1.65l1.19-1.19l-1.57-0.54l-0.76-1.49L197.88,79.05z
			 M149.85,66.72l-1.65,0.24l0.95,1.38l-0.27,1.65l1.59-0.49l1.49,0.76l0.03-1.65l1.19-1.19l-1.57-0.54l-0.76-1.49L149.85,66.72z
			 M158.56,77.15l-1.65,0.24l0.95,1.38l-0.27,1.65l1.59-0.49l1.49,0.76l0.03-1.65l1.19-1.19l-1.57-0.54l-0.76-1.49L158.56,77.15z
			 M141.63,74.71l-1.65,0.24l0.95,1.38l-0.27,1.65l1.59-0.49l1.49,0.76l0.03-1.65l1.19-1.19l-1.57-0.54l-0.76-1.49L141.63,74.71z"/>
	</g>
</g>
</svg>
