<?xml version="1.0" encoding="utf-8"?>
<!-- Generator: Adobe Illustrator 27.8.1, SVG Export Plug-In . SVG Version: 6.00 Build 0)  -->
<svg version="1.1" xmlns="http://www.w3.org/2000/svg" xmlns:xlink="http://www.w3.org/1999/xlink" x="0px" y="0px"
	 viewBox="0 0 350 230" style="enable-background:new 0 0 350 230;" xml:space="preserve">
<style type="text/css">
	.st0{fill:#FFFDDC;}
	.st1{fill:#FFFDE6;}
	.st2{fill:#FEFFE9;}
	.st3{fill:#FFFCEB;}
	.st4{fill:#FFF9CF;}
	.st5{fill:#F1FFCC;}
	.st6{fill:#60361A;}
	.st7{fill:#FFF4C5;}
	.st8{fill:#FEFFCF;}
	.st9{fill:#FFFFFF;}
	.st10{fill:#FCBEF3;}
	.st11{fill:#007769;}
	.st12{fill:#990000;}
	.st13{fill:#EE388C;}
	.st14{fill:#4862AD;}
	.st15{fill:#EE4B9B;}
	.st16{fill:#FAEE35;}
	.st17{fill:#01A79D;}
	.st18{fill:#8FC640;}
	.st19{fill:#EC2227;}
	.st20{fill:#E7BD20;}
	.st21{fill:#DC8927;}
	.st22{fill:#2F99D5;}
	.st23{fill:#663366;}
	.st24{fill:#FFC907;}
	.st25{fill:#4B83C3;}
	.st26{fill:#F0535B;}
	.st27{fill:#A92990;}
	.st28{fill:#E16E25;}
	.st29{fill:#426CB4;}
	.st30{fill:#E9292B;}
	.st31{fill:#0F77B7;}
	.st32{fill:#EF4A6C;}
	.st33{fill:#65C5B3;}
	.st34{fill:#965724;}
	.st35{fill:#F1A422;}
	.st36{fill:#18479E;}
	.st37{fill:#64C5B2;}
	.st38{fill:#FAE072;}
	.st39{fill:#EF496E;}
	.st40{fill:#231F20;}
	.st41{fill-rule:evenodd;clip-rule:evenodd;fill:#5C493A;}
	.st42{fill-rule:evenodd;clip-rule:evenodd;fill:#F26767;}
	.st43{fill-rule:evenodd;clip-rule:evenodd;fill:#87C443;}
	.st44{fill-rule:evenodd;clip-rule:evenodd;fill:#EE3E96;}
	.st45{fill-rule:evenodd;clip-rule:evenodd;fill:#2195D2;}
	.st46{fill-rule:evenodd;clip-rule:evenodd;fill:#FFCD05;}
	.st47{fill-rule:evenodd;clip-rule:evenodd;fill:#83C341;}
	.st48{fill-rule:evenodd;clip-rule:evenodd;fill:#0F77B7;}
	.st49{fill-rule:evenodd;clip-rule:evenodd;fill:#ED8D36;}
	.st50{fill-rule:evenodd;clip-rule:evenodd;fill:#3CA356;}
	.st51{fill-rule:evenodd;clip-rule:evenodd;fill:#7F4A25;}
	.st52{fill-rule:evenodd;clip-rule:evenodd;fill:#A3B539;}
	.st53{fill-rule:evenodd;clip-rule:evenodd;fill:#FAAF37;}
	.st54{fill-rule:evenodd;clip-rule:evenodd;fill:#0BB4A1;}
	.st55{fill:#00A9CB;}
	.st56{fill:#79AA41;}
	.st57{fill:#CD8F2A;}
	.st58{fill:#0393B0;}
	.st59{fill:#E82F7B;}
	.st60{fill:#D7DF2A;}
	.st61{fill:#8DC443;}
	.st62{fill:#F0A422;}
	.st63{fill:#3A3A3B;}
	.st64{fill:#29AAE1;}
	.st65{fill:#E9246E;}
	.st66{fill:url(#SVGID_1_);}
	.st67{fill:#00EFFF;}
	.st68{fill-rule:evenodd;clip-rule:evenodd;fill:url(#SVGID_00000120558948169832933240000009084520108412688276_);}
	.st69{fill-rule:evenodd;clip-rule:evenodd;fill:url(#SVGID_00000050660090873302769320000007566466321677667247_);}
	.st70{fill-rule:evenodd;clip-rule:evenodd;fill:url(#SVGID_00000139283801661579224290000008326313590394550408_);}
	.st71{fill-rule:evenodd;clip-rule:evenodd;fill:url(#SVGID_00000007417998022873599240000000068068840937608629_);}
	.st72{fill-rule:evenodd;clip-rule:evenodd;fill:url(#SVGID_00000169533886758332033410000008535992680381909945_);}
	.st73{fill-rule:evenodd;clip-rule:evenodd;fill:url(#SVGID_00000096057799006061092900000006727858568836241810_);}
	.st74{fill-rule:evenodd;clip-rule:evenodd;fill:url(#SVGID_00000161596942271950335260000005063690242756790657_);}
	.st75{fill-rule:evenodd;clip-rule:evenodd;fill:url(#SVGID_00000060009103567286619170000001019893501108509071_);}
	.st76{fill-rule:evenodd;clip-rule:evenodd;fill:url(#SVGID_00000035496004086641009330000004055879304544506557_);}
	.st77{fill:url(#SVGID_00000031175486132906610190000009592761289464388234_);}
	.st78{fill:#00889E;}
	.st79{fill:url(#SVGID_00000018214833568293085950000012465119892594004923_);}
	.st80{fill:url(#SVGID_00000096756566430001433610000011189716467678505400_);}
	.st81{fill:url(#SVGID_00000134955655939585903470000016493515182612020893_);}
	.st82{fill:#009AFF;}
	.st83{fill:url(#SVGID_00000172399788713030759360000015577775283240151487_);}
	.st84{fill:url(#SVGID_00000182521873344208197480000016331225776966872463_);}
	.st85{fill:#EF1A24;}
	.st86{fill:url(#SVGID_00000140006234772327025780000003067947704012141474_);}
	.st87{fill:url(#SVGID_00000029732307261990405650000018363406970386827668_);}
	.st88{fill-rule:evenodd;clip-rule:evenodd;fill:#1B2E7A;}
	.st89{fill-rule:evenodd;clip-rule:evenodd;fill:#FFFFFF;}
	.st90{fill-rule:evenodd;clip-rule:evenodd;fill:#FF004D;}
	.st91{fill:#1B2E7A;}
	.st92{fill-rule:evenodd;clip-rule:evenodd;fill:#FFD373;}
	.st93{fill-rule:evenodd;clip-rule:evenodd;fill:#EDB337;}
	.st94{fill-rule:evenodd;clip-rule:evenodd;fill:#FFEDB0;}
	.st95{fill:url(#SVGID_00000071530668303100839440000009716029307318030512_);}
	.st96{fill:#A25F00;}
	.st97{fill:#1B5302;}
	.st98{fill:#00AEEF;}
	.st99{fill:#ED1966;}
	.st100{fill:url(#SVGID_00000120531489295030866130000010336288076379403962_);}
	.st101{fill:url(#SVGID_00000170240311915880355730000008317772805742548657_);}
	.st102{fill:#79BACC;}
	.st103{fill:#E8E3D8;}
	.st104{fill:#F2B220;}
	.st105{fill:url(#SVGID_00000056416335961217559350000004797904942128105119_);}
	.st106{fill:url(#SVGID_00000173130518775837001590000001355506970743657403_);}
	.st107{fill:url(#SVGID_00000178927454993266230950000011102175419530174086_);}
	.st108{fill:url(#SVGID_00000052790990724099270060000009509392967664597163_);}
	.st109{fill:url(#SVGID_00000121989500473400952970000015976712252037693841_);}
	.st110{fill:url(#SVGID_00000137108408037994486880000007298509120360429737_);}
	.st111{fill:url(#SVGID_00000178180264888178284580000006335778986964099470_);}
	.st112{fill:#9B85BE;}
	.st113{fill:#776599;}
	.st114{fill:#FD3861;}
	.st115{fill:#C42244;}
	.st116{fill:#009FE2;}
	.st117{fill:#30B17B;}
	.st118{fill:#FF7D9C;}
	.st119{fill:#9ACA3D;}
	.st120{fill:#856DB5;}
	.st121{fill:url(#SVGID_00000149356323254983600100000007901233439801254029_);}
	.st122{fill:#0075B0;}
	.st123{fill:#CDE250;}
	.st124{fill:#7DDDFF;}
	.st125{fill:#B9EA81;}
	.st126{fill:#FF7D87;}
	.st127{fill-rule:evenodd;clip-rule:evenodd;fill:#FFC60B;}
	.st128{fill-rule:evenodd;clip-rule:evenodd;fill:#9ABE37;}
	.st129{fill-rule:evenodd;clip-rule:evenodd;fill:#74D7E2;}
	.st130{fill-rule:evenodd;clip-rule:evenodd;fill:#FF598A;}
	.st131{fill-rule:evenodd;clip-rule:evenodd;fill:#856DB5;}
	.st132{fill:#ED5681;}
	.st133{fill:#E5B189;}
	.st134{fill:#CE9976;}
	.st135{fill:#80DEFF;}
	.st136{fill:#61C7E2;}
	.st137{fill:#715BA5;}
	.st138{fill:#CCED56;}
	.st139{fill:#9ABE37;}
	.st140{fill:#7D9D2B;}
	.st141{fill:#F4C11E;}
	.st142{fill:#E19A00;}
	.st143{fill:#FFBE00;}
	.st144{fill:#C74D96;}
	.st145{fill:#F4A408;}
	.st146{fill:#00B0DD;}
	.st147{fill:#E62944;}
	.st148{fill:#553590;}
	.st149{fill:#035A31;}
	.st150{fill:#80BE26;}
	.st151{fill:#00549A;}
	.st152{fill:#844596;}
	.st153{fill:#009C42;}
	.st154{fill-rule:evenodd;clip-rule:evenodd;fill:#1F7099;}
	.st155{fill-rule:evenodd;clip-rule:evenodd;fill:#406FB5;}
	.st156{fill-rule:evenodd;clip-rule:evenodd;fill:#A418ED;}
	.st157{fill-rule:evenodd;clip-rule:evenodd;fill:#28834F;}
	.st158{fill-rule:evenodd;clip-rule:evenodd;fill:#1FEA75;}
	.st159{fill-rule:evenodd;clip-rule:evenodd;fill:#07A8A8;}
	.st160{fill-rule:evenodd;clip-rule:evenodd;fill:#25C9EF;}
	.st161{fill-rule:evenodd;clip-rule:evenodd;fill:#FF7D9C;}
	.st162{fill:#724329;}
	.st163{fill:#FFD766;}
	.st164{fill:#6ED9FF;}
	.st165{fill:#FFA9C2;}
	.st166{fill-rule:evenodd;clip-rule:evenodd;fill:url(#SVGID_00000041269703924526684070000006207089604641414051_);}
	.st167{fill-rule:evenodd;clip-rule:evenodd;fill:url(#SVGID_00000053508297909453955240000001011557622644493234_);}
	.st168{fill-rule:evenodd;clip-rule:evenodd;fill:url(#SVGID_00000084522527950719862330000010245017678164382083_);}
	.st169{fill-rule:evenodd;clip-rule:evenodd;fill:#2B61D8;}
	.st170{fill-rule:evenodd;clip-rule:evenodd;fill:#78E9FF;}
	.st171{fill-rule:evenodd;clip-rule:evenodd;fill:#844596;}
	.st172{fill-rule:evenodd;clip-rule:evenodd;fill:#A667FC;}
	.st173{fill-rule:evenodd;clip-rule:evenodd;fill:#379CC0;}
	.st174{fill-rule:evenodd;clip-rule:evenodd;fill:url(#SVGID_00000005966807898956538660000003349166914217728685_);}
	.st175{fill:#FF439D;}
	.st176{fill:#29ABE2;}
	.st177{fill:#AA3AAA;}
	.st178{fill:#78E9FF;}
	.st179{fill:#FFC60B;}
	.st180{fill:#A667FC;}
	.st181{fill-rule:evenodd;clip-rule:evenodd;fill:#CCED56;}
	.st182{fill-rule:evenodd;clip-rule:evenodd;fill:#776599;}
	.st183{fill-rule:evenodd;clip-rule:evenodd;fill:#80DEFF;}
	.st184{fill:#379CC0;}
	.st185{fill:#916E00;}
	.st186{fill:#BAAE1C;}
	.st187{fill:#84BC7A;}
	.st188{fill:#BCAD64;}
	.st189{fill:#D18D2A;}
	.st190{fill:#FFB278;}
	.st191{fill-rule:evenodd;clip-rule:evenodd;fill:#785EF7;}
	.st192{fill-rule:evenodd;clip-rule:evenodd;fill:#C2FF7B;}
	.st193{fill-rule:evenodd;clip-rule:evenodd;fill:#6F96EF;}
	.st194{fill-rule:evenodd;clip-rule:evenodd;fill:#E5B189;}
	.st195{fill-rule:evenodd;clip-rule:evenodd;fill:#72D392;}
	.st196{fill-rule:evenodd;clip-rule:evenodd;fill:#F9C55D;}
	.st197{fill-rule:evenodd;clip-rule:evenodd;fill:#61C165;}
	.st198{fill-rule:evenodd;clip-rule:evenodd;fill:#6786D3;}
	.st199{fill-rule:evenodd;clip-rule:evenodd;fill:#FCB1E3;}
	.st200{fill-rule:evenodd;clip-rule:evenodd;fill:#1CC1E4;}
	.st201{fill-rule:evenodd;clip-rule:evenodd;fill:#6D6DB2;}
	.st202{fill-rule:evenodd;clip-rule:evenodd;fill:#66A2AA;}
	.st203{fill-rule:evenodd;clip-rule:evenodd;fill:#D2FC86;}
	.st204{fill:#7FBC62;}
	.st205{fill:#442109;}
	.st206{fill:#A08657;}
	.st207{fill:#FFCD5C;}
	.st208{fill:#7DA22E;}
	.st209{fill:#F9C941;}
	.st210{fill:#6AC6B4;}
	.st211{fill:#E2C159;}
	.st212{fill:#EF8550;}
</style>
<g id="Layer_1">
</g>
<g id="Layer_2">
</g>
<g id="Layer_3">
</g>
<g id="Layer_4">
</g>
<g id="Layer_5">
</g>
<g id="Layer_6">
</g>
<g id="Layer_7">
</g>
<g id="Layer_8">
</g>
<g id="Layer_9">
</g>
<g id="Layer_10">
</g>
<g id="Layer_11">
</g>
<g id="Layer_12">
</g>
<g id="Layer_13">
</g>
<g id="Layer_14">
</g>
<g id="Layer_15">
	<g>
		<path class="st118" d="M120.67,81.02c4.42-1.97,9.28-1.66,13.25,0.44c-4.9,0.66-9.56,2.16-13.87,5.66
			c4.76-2.14,10.25-3.9,14.85-3.96c-0.89,4.58-3.01,9.16-8.61,10.47c-5.18,1.21-7.54-4.19-14.42-1.12
			C112.66,87.61,115.81,83.2,120.67,81.02z M159.11,68.29c-3.72,3-5.62,7.42-5.56,11.86c2.78-4.02,6.19-7.44,11.2-9.66
			c-4.02,3.22-8.04,7.27-10.15,11.29c4.43,1.27,9.41,1.46,13.08-2.87c3.39-4.02-0.31-8.51,5.49-13.19
			C168.5,64.2,163.2,64.99,159.11,68.29z M229.33,81.02c-4.42-1.97-9.28-1.66-13.25,0.44c4.9,0.66,9.56,2.16,13.87,5.66
			c-4.76-2.14-10.25-3.9-14.85-3.96c0.89,4.58,3.01,9.16,8.61,10.47c5.18,1.21,7.54-4.19,14.42-1.12
			C237.34,87.61,234.19,83.2,229.33,81.02z M176.84,65.71c5.79,4.67,2.09,9.17,5.49,13.19c3.66,4.34,8.65,4.14,13.08,2.87
			c-2.12-4.02-6.14-8.07-10.15-11.29c5.02,2.22,8.42,5.65,11.2,9.66c0.06-4.44-1.84-8.86-5.56-11.86
			C186.8,64.99,181.5,64.2,176.84,65.71z"/>
		<path class="st179" d="M175,57.59c0.97,0,1.76,0.79,1.76,1.76c0,0.97-0.79,1.76-1.76,1.76s-1.76-0.79-1.76-1.76
			C173.24,58.38,174.03,57.59,175,57.59z M135.58,78.32c5.95,4.38,2.48,9,6.02,12.84c3.82,4.14,8.76,3.73,13.09,2.28
			c-2.28-3.89-6.44-7.73-10.56-10.75c5.07,1.98,8.59,5.23,11.53,9.09c-0.13-4.4-2.21-8.7-6.03-11.51
			C145.42,77.16,140.13,76.61,135.58,78.32z M136.95,48.69c1.5,2.74,4.13,4.48,6.99,4.96c-2.26-2.26-4.07-4.85-4.92-8.33
			c1.61,2.96,3.75,6.02,6.09,7.85c1.33-2.7,2.03-5.89-0.34-8.75c-2.19-2.65-5.52-0.79-7.86-5.06
			C135.4,42.16,135.3,45.67,136.95,48.69z M155.07,64.46c-1.05,0-1.91,0.85-1.91,1.91c0,1.05,0.85,1.91,1.91,1.91
			c1.05,0,1.91-0.85,1.91-1.91C156.98,65.31,156.13,64.46,155.07,64.46z M200.38,80.25c-3.82,2.81-5.9,7.11-6.03,11.51
			c2.94-3.86,6.46-7.11,11.53-9.09c-4.12,3.02-8.29,6.86-10.56,10.75c4.33,1.45,9.27,1.86,13.09-2.28
			c3.54-3.84,0.07-8.45,6.02-12.84C209.87,76.61,204.58,77.16,200.38,80.25z M213.08,39.34c-2.34,4.27-5.66,2.41-7.86,5.06
			c-2.37,2.86-1.67,6.05-0.34,8.75c2.34-1.83,4.48-4.89,6.09-7.85c-0.85,3.49-2.66,6.08-4.92,8.33c2.86-0.48,5.49-2.21,6.99-4.96
			C214.7,45.67,214.6,42.16,213.08,39.34z M193.02,66.37c0,1.05,0.85,1.91,1.91,1.91c1.05,0,1.91-0.85,1.91-1.91
			c0-1.05-0.85-1.91-1.91-1.91C193.87,64.46,193.02,65.31,193.02,66.37z"/>
		<path class="st113" d="M171.59,40.9c1.91,2.32,2.51,5.28,1.91,8.01c-1.2-2.83-2.86-5.37-5.66-7.38c2.06,2.5,4.02,5.5,4.81,8.24
			c-2.89,0.22-5.98-0.3-7.68-3.44c-1.57-2.91,1.28-5.2-1.69-8.82C166.34,37.18,169.5,38.35,171.59,40.9z M125.73,55.39
			c7.9,5.2,3.77,11.34,8.55,16c5.16,5.04,11.44,4.18,16.88,2.03c-3.17-4.82-8.75-9.45-14.22-13.03c6.61,2.2,11.34,6.11,15.35,10.85
			c-0.47-5.62-3.41-10.97-8.48-14.31C138.23,53.25,131.43,52.9,125.73,55.39z M136.63,88.7c-0.95,0-1.72,0.77-1.72,1.72
			s0.77,1.72,1.72,1.72s1.72-0.77,1.72-1.72S137.58,88.7,136.63,88.7z M171.34,79.77c-1,0-1.82,0.81-1.82,1.82
			c0,1,0.81,1.82,1.82,1.82c1,0,1.82-0.81,1.82-1.82C173.16,80.59,172.34,79.77,171.34,79.77z M178.41,40.9
			c-1.91,2.32-2.51,5.28-1.91,8.01c1.2-2.83,2.86-5.37,5.66-7.38c-2.06,2.5-4.02,5.5-4.81,8.24c2.89,0.22,5.98-0.3,7.68-3.44
			c1.57-2.91-1.28-5.2,1.69-8.82C183.66,37.18,180.5,38.35,178.41,40.9z M206.19,56.93c-5.07,3.34-8.02,8.69-8.48,14.31
			c4.01-4.74,8.73-8.65,15.35-10.85c-5.47,3.58-11.05,8.21-14.22,13.03c5.44,2.15,11.72,3,16.88-2.03c4.78-4.67,0.65-10.8,8.55-16
			C218.57,52.9,211.77,53.25,206.19,56.93z M211.65,90.42c0,0.95,0.77,1.72,1.72,1.72s1.72-0.77,1.72-1.72s-0.77-1.72-1.72-1.72
			S211.65,89.47,211.65,90.42z M176.84,81.59c0,1,0.81,1.82,1.82,1.82c1,0,1.82-0.81,1.82-1.82c0-1-0.81-1.82-1.82-1.82
			C177.66,79.77,176.84,80.59,176.84,81.59z"/>
		<path class="st178" d="M175,70.9c1.58,0,2.86,1.28,2.86,2.86s-1.28,2.86-2.86,2.86s-2.86-1.28-2.86-2.86S173.42,70.9,175,70.9z
			 M143.82,96.87c-8.23,0-14.89,6.67-14.89,14.89s6.67,14.89,14.89,14.89s14.89-6.67,14.89-14.89S152.04,96.87,143.82,96.87z
			 M169.6,131.63c-0.76-1.47-1.66-2.86-2.66-4.16c2.47-3.03,3.95-6.89,3.95-11.1c0-7.75-5.01-14.33-11.97-16.67
			c2.65,3.31,4.24,7.5,4.24,12.07c0,3.55-0.95,6.87-2.62,9.73c-1.41,2.41-3.32,4.49-5.6,6.09c-2.15,1.51-4.61,2.6-7.28,3.13
			c-0.66,0.48-1.28,1.01-1.86,1.57c-3.29,3.2-5.33,7.67-5.33,12.62c0,5.1,2.17,9.69,5.63,12.9c-1.99-7.3-0.04-14.23,4.85-16.16
			c5.43-2.14,12.42,2.72,15.61,10.85c0.91,2.32,1.42,4.65,1.54,6.85c0,0,0,0,0,0c2.88-4.33,4.56-9.53,4.56-15.12
			C172.67,139.68,171.56,135.4,169.6,131.63z M112.94,68.88c5.75,1.43,4.58,5.92,8.37,7.68c4.1,1.9,7.63,0.1,10.4-2.3
			c-2.87-2.19-7.13-3.77-11.11-4.75c4.36-0.08,7.97,1.26,11.32,3.22c-1.44-3.22-4.29-5.77-7.98-6.7
			C119.88,65.03,115.79,66.23,112.94,68.88z M158.3,84.36c-0.73,0-1.32,0.59-1.32,1.32c0,0.73,0.59,1.32,1.32,1.32
			c0.73,0,1.32-0.59,1.32-1.32C159.62,84.95,159.03,84.36,158.3,84.36z M165.81,54.73c-1.94,1.58-2.93,3.89-2.89,6.21
			c1.45-2.11,3.23-3.9,5.85-5.07c-2.1,1.69-4.19,3.82-5.3,5.92c2.32,0.66,4.93,0.75,6.84-1.52c1.77-2.11-0.17-4.45,2.85-6.91
			C170.72,52.58,167.94,53,165.81,54.73z M191.29,111.77c0,8.23,6.67,14.89,14.89,14.89s14.89-6.67,14.89-14.89
			s-6.67-14.89-14.89-14.89S191.29,103.54,191.29,111.77z M177.33,144.22c0,5.59,1.68,10.79,4.56,15.12c0,0,0,0,0,0
			c0.13-2.2,0.63-4.53,1.54-6.85c3.2-8.13,10.19-12.98,15.61-10.85c4.89,1.92,6.85,8.86,4.85,16.16c3.47-3.21,5.63-7.8,5.63-12.9
			c0-4.95-2.04-9.42-5.33-12.62c-0.58-0.57-1.2-1.09-1.86-1.57c-2.67-0.53-5.13-1.62-7.28-3.13c-2.28-1.6-4.19-3.68-5.6-6.09
			c-1.67-2.86-2.62-6.18-2.62-9.73c0-4.57,1.58-8.76,4.24-12.07c-6.96,2.34-11.97,8.92-11.97,16.67c0,4.21,1.48,8.08,3.95,11.1
			c-1.01,1.3-1.9,2.69-2.66,4.16C178.44,135.4,177.33,139.68,177.33,144.22z M226.06,66.04c-3.69,0.92-6.54,3.47-7.98,6.7
			c3.35-1.97,6.96-3.3,11.32-3.22c-3.98,0.98-8.23,2.56-11.11,4.75c2.77,2.4,6.3,4.21,10.4,2.3c3.79-1.76,2.63-6.25,8.37-7.68
			C234.21,66.23,230.12,65.03,226.06,66.04z M190.38,85.68c0,0.73,0.59,1.32,1.32,1.32c0.73,0,1.32-0.59,1.32-1.32
			c0-0.73-0.59-1.32-1.32-1.32C190.97,84.36,190.38,84.95,190.38,85.68z M176.84,53.36c3.03,2.46,1.08,4.8,2.85,6.91
			c1.91,2.28,4.52,2.18,6.84,1.52c-1.1-2.11-3.2-4.23-5.3-5.92c2.62,1.17,4.4,2.97,5.85,5.07c0.04-2.32-0.95-4.64-2.89-6.21
			C182.06,53,179.28,52.58,176.84,53.36z"/>
		<path class="st180" d="M158.58,35.75c-1.63,7.76,4.45,8.97,4.35,14.57c-0.1,6.04-4.35,9.24-8.85,11.17
			c-0.96-4.74-0.37-10.79,0.78-16.15c-2.64,5.21-3.15,10.33-2.74,15.51c-3.04-3.62-4.44-8.55-3.39-13.53
			C149.88,41.86,153.72,37.64,158.58,35.75z M173.15,85.33c-4.55,3.18-7.01-0.4-10.59,1.2c-3.87,1.73-4.76,5.34-4.77,8.78
			c3.32-0.68,7.05-2.73,10.2-4.94c-2.63,3.14-5.79,4.87-9.25,6.03c3.17,0.96,6.73,0.51,9.65-1.53
			C171.61,92.62,173.27,88.98,173.15,85.33z M126.91,61.21c-0.97,0-1.76,0.79-1.76,1.76c0,0.97,0.79,1.76,1.76,1.76
			s1.76-0.79,1.76-1.76C128.67,62,127.88,61.21,126.91,61.21z M191.42,35.75c1.63,7.76-4.45,8.97-4.35,14.57
			c0.1,6.04,4.35,9.24,8.85,11.17c0.96-4.74,0.37-10.79-0.78-16.15c2.64,5.21,3.15,10.33,2.74,15.51c3.04-3.62,4.44-8.55,3.39-13.53
			C200.12,41.86,196.28,37.64,191.42,35.75z M181.61,94.87c2.92,2.05,6.48,2.49,9.65,1.53c-3.46-1.16-6.61-2.89-9.25-6.03
			c3.14,2.21,6.87,4.25,10.2,4.94c-0.01-3.44-0.9-7.05-4.77-8.78c-3.58-1.6-6.04,1.98-10.59-1.2
			C176.73,88.98,178.39,92.62,181.61,94.87z M221.33,62.97c0,0.97,0.79,1.76,1.76,1.76c0.97,0,1.76-0.79,1.76-1.76
			c0-0.97-0.79-1.76-1.76-1.76C222.12,61.21,221.33,62,221.33,62.97z M172.07,36.17c0,1.62,1.31,2.93,2.93,2.93s2.93-1.31,2.93-2.93
			c0-1.62-1.31-2.93-2.93-2.93S172.07,34.55,172.07,36.17z"/>
	</g>
</g>
</svg>
