<?xml version="1.0" encoding="utf-8"?>
<!-- Generator: Adobe Illustrator 27.8.1, SVG Export Plug-In . SVG Version: 6.00 Build 0)  -->
<svg version="1.1" xmlns="http://www.w3.org/2000/svg" xmlns:xlink="http://www.w3.org/1999/xlink" x="0px" y="0px"
	 viewBox="0 0 350 230" style="enable-background:new 0 0 350 230;" xml:space="preserve">
<style type="text/css">
	.st0{fill:#FFFDB8;}
	.st1{fill:#FFF4C5;}
	.st2{fill:#F1FFCC;}
	.st3{fill:#FFF9CF;}
	.st4{fill:#5B0034;}
	.st5{fill:#FEFFCF;}
	.st6{fill:#FFFFFF;}
	.st7{fill:#FCBEF3;}
	.st8{fill:#007769;}
	.st9{fill:#990000;}
	.st10{fill:#EE388C;}
	.st11{fill:#4862AD;}
	.st12{fill:#EE4B9B;}
	.st13{fill:#FAEE35;}
	.st14{fill:#01A79D;}
	.st15{fill:#8FC640;}
	.st16{fill:#EC2227;}
	.st17{fill:#E7BD20;}
	.st18{fill:#DC8927;}
	.st19{fill:#2F99D5;}
	.st20{fill:#663366;}
	.st21{fill:#FFC907;}
	.st22{fill:#4B83C3;}
	.st23{fill:#F0535B;}
	.st24{fill:#A92990;}
	.st25{fill:#E16E25;}
	.st26{fill:#426CB4;}
	.st27{fill:#E9292B;}
	.st28{fill:#0F77B7;}
	.st29{fill:#EF4A6C;}
	.st30{fill:#65C5B3;}
	.st31{fill:#965724;}
	.st32{fill:#F1A422;}
	.st33{fill:#18479E;}
	.st34{fill:#64C5B2;}
	.st35{fill:#FAE072;}
	.st36{fill:#EF496E;}
	.st37{fill:#231F20;}
	.st38{fill-rule:evenodd;clip-rule:evenodd;fill:#5C493A;}
	.st39{fill-rule:evenodd;clip-rule:evenodd;fill:#F26767;}
	.st40{fill-rule:evenodd;clip-rule:evenodd;fill:#87C443;}
	.st41{fill-rule:evenodd;clip-rule:evenodd;fill:#EE3E96;}
	.st42{fill-rule:evenodd;clip-rule:evenodd;fill:#2195D2;}
	.st43{fill-rule:evenodd;clip-rule:evenodd;fill:#FFCD05;}
	.st44{fill-rule:evenodd;clip-rule:evenodd;fill:#83C341;}
	.st45{fill-rule:evenodd;clip-rule:evenodd;fill:#0F77B7;}
	.st46{fill-rule:evenodd;clip-rule:evenodd;fill:#ED8D36;}
	.st47{fill-rule:evenodd;clip-rule:evenodd;fill:#3CA356;}
	.st48{fill-rule:evenodd;clip-rule:evenodd;fill:#7F4A25;}
	.st49{fill-rule:evenodd;clip-rule:evenodd;fill:#A3B539;}
	.st50{fill-rule:evenodd;clip-rule:evenodd;fill:#FAAF37;}
	.st51{fill-rule:evenodd;clip-rule:evenodd;fill:#0BB4A1;}
	.st52{fill:#00A9CB;}
	.st53{fill:#79AA41;}
	.st54{fill:#CD8F2A;}
	.st55{fill:#0393B0;}
	.st56{fill:#E82F7B;}
	.st57{fill:#D7DF2A;}
	.st58{fill:#8DC443;}
	.st59{fill:#F0A422;}
	.st60{fill:#3A3A3B;}
	.st61{fill:#29AAE1;}
	.st62{fill:#E9246E;}
	.st63{fill:url(#SVGID_1_);}
	.st64{fill:#00EFFF;}
	.st65{fill-rule:evenodd;clip-rule:evenodd;fill:url(#SVGID_00000126303613491309868670000005134395192316878214_);}
	.st66{fill-rule:evenodd;clip-rule:evenodd;fill:url(#SVGID_00000098212178053107849930000009276829026308657804_);}
	.st67{fill-rule:evenodd;clip-rule:evenodd;fill:url(#SVGID_00000080165809276080071230000002007120724977394052_);}
	.st68{fill-rule:evenodd;clip-rule:evenodd;fill:url(#SVGID_00000144320715442336885860000006636933629877587123_);}
	.st69{fill-rule:evenodd;clip-rule:evenodd;fill:url(#SVGID_00000149381221264890306070000014230916893653289108_);}
	.st70{fill-rule:evenodd;clip-rule:evenodd;fill:url(#SVGID_00000135684783527342748930000012948970528241307326_);}
	.st71{fill-rule:evenodd;clip-rule:evenodd;fill:url(#SVGID_00000059290207871492815910000000622328238538017974_);}
	.st72{fill-rule:evenodd;clip-rule:evenodd;fill:url(#SVGID_00000134953976698930807390000001095924285008336809_);}
	.st73{fill-rule:evenodd;clip-rule:evenodd;fill:url(#SVGID_00000060721597126020178100000000360873179267027367_);}
	.st74{fill:url(#SVGID_00000143592053988473780300000014766800953781715107_);}
	.st75{fill:#00889E;}
	.st76{fill:url(#SVGID_00000023275685665773743180000005479168425742410917_);}
	.st77{fill:url(#SVGID_00000158009271314371269170000005845887921173171097_);}
	.st78{fill:url(#SVGID_00000163061314301424816780000005861946694107942793_);}
	.st79{fill:#009AFF;}
	.st80{fill:url(#SVGID_00000019641487423392453900000016998406607622091177_);}
	.st81{fill:url(#SVGID_00000106826635642960368110000005271440954408998581_);}
	.st82{fill:#EF1A24;}
	.st83{fill:url(#SVGID_00000049920751148116875070000005736678581082658739_);}
	.st84{fill:url(#SVGID_00000064337429459785411220000015970747734492356005_);}
	.st85{fill-rule:evenodd;clip-rule:evenodd;fill:#1B2E7A;}
	.st86{fill-rule:evenodd;clip-rule:evenodd;fill:#FFFFFF;}
	.st87{fill-rule:evenodd;clip-rule:evenodd;fill:#FF004D;}
	.st88{fill:#1B2E7A;}
	.st89{fill-rule:evenodd;clip-rule:evenodd;fill:#FFD373;}
	.st90{fill-rule:evenodd;clip-rule:evenodd;fill:#EDB337;}
	.st91{fill-rule:evenodd;clip-rule:evenodd;fill:#FFEDB0;}
	.st92{fill:url(#SVGID_00000115510184615555918160000004622797229532743855_);}
	.st93{fill:#A25F00;}
	.st94{fill:#1B5302;}
	.st95{fill:#00AEEF;}
	.st96{fill:#ED1966;}
	.st97{fill:url(#SVGID_00000060002504598602568510000012743558298980144572_);}
	.st98{fill:url(#SVGID_00000119083462852970355000000014565157580995709833_);}
	.st99{fill:#79BACC;}
	.st100{fill:#E8E3D8;}
	.st101{fill:#F2B220;}
	.st102{fill:url(#SVGID_00000160908545704992836500000010906268635893906611_);}
	.st103{fill:url(#SVGID_00000122690462447826005910000014133293770309945235_);}
	.st104{fill:url(#SVGID_00000147183140503093946200000014056541436472109474_);}
	.st105{fill:url(#SVGID_00000035529895396668507470000004714846962539142835_);}
	.st106{fill:url(#SVGID_00000172432949669541403050000014278487937083255709_);}
	.st107{fill:url(#SVGID_00000011741434084174159510000017949525447739933324_);}
	.st108{fill:url(#SVGID_00000039109888724333923570000008137049280951097009_);}
	.st109{fill:#9B85BE;}
	.st110{fill:#776599;}
	.st111{fill:#FD3861;}
	.st112{fill:#C42244;}
	.st113{fill:#009FE2;}
	.st114{fill:#30B17B;}
	.st115{fill:#FF7D9C;}
	.st116{fill:#9ACA3D;}
	.st117{fill:#856DB5;}
	.st118{fill:url(#SVGID_00000032643257917263455030000018098525377795495586_);}
	.st119{fill:#0075B0;}
	.st120{fill:#CDE250;}
	.st121{fill:#7DDDFF;}
	.st122{fill:#B9EA81;}
	.st123{fill:#FF7D87;}
	.st124{fill-rule:evenodd;clip-rule:evenodd;fill:#FFC60B;}
	.st125{fill-rule:evenodd;clip-rule:evenodd;fill:#9ABE37;}
	.st126{fill-rule:evenodd;clip-rule:evenodd;fill:#74D7E2;}
	.st127{fill-rule:evenodd;clip-rule:evenodd;fill:#FF598A;}
	.st128{fill-rule:evenodd;clip-rule:evenodd;fill:#856DB5;}
	.st129{fill:#ED5681;}
	.st130{fill:#E5B189;}
	.st131{fill:#CE9976;}
	.st132{fill:#80DEFF;}
	.st133{fill:#61C7E2;}
	.st134{fill:#715BA5;}
	.st135{fill:#CCED56;}
	.st136{fill:#9ABE37;}
	.st137{fill:#7D9D2B;}
	.st138{fill:#F4C11E;}
	.st139{fill:#E19A00;}
	.st140{fill:#FFBE00;}
	.st141{fill:#C74D96;}
	.st142{fill:#F4A408;}
	.st143{fill:#00B0DD;}
	.st144{fill:#E62944;}
	.st145{fill:#553590;}
	.st146{fill:#035A31;}
	.st147{fill:#80BE26;}
	.st148{fill:#00549A;}
	.st149{fill:#844596;}
	.st150{fill:#009C42;}
	.st151{fill-rule:evenodd;clip-rule:evenodd;fill:#1F7099;}
	.st152{fill-rule:evenodd;clip-rule:evenodd;fill:#406FB5;}
	.st153{fill-rule:evenodd;clip-rule:evenodd;fill:#A418ED;}
	.st154{fill-rule:evenodd;clip-rule:evenodd;fill:#28834F;}
	.st155{fill-rule:evenodd;clip-rule:evenodd;fill:#1FEA75;}
	.st156{fill-rule:evenodd;clip-rule:evenodd;fill:#07A8A8;}
	.st157{fill-rule:evenodd;clip-rule:evenodd;fill:#25C9EF;}
	.st158{fill-rule:evenodd;clip-rule:evenodd;fill:#FF7D9C;}
	.st159{fill:#724329;}
	.st160{fill:#FFD766;}
	.st161{fill:#6ED9FF;}
	.st162{fill:#FFA9C2;}
	.st163{fill-rule:evenodd;clip-rule:evenodd;fill:url(#SVGID_00000025415986278641504800000016940636703689323181_);}
	.st164{fill-rule:evenodd;clip-rule:evenodd;fill:url(#SVGID_00000014616845220098080280000008330219105076371898_);}
	.st165{fill-rule:evenodd;clip-rule:evenodd;fill:url(#SVGID_00000142871822715316200160000011874889500314923191_);}
	.st166{fill-rule:evenodd;clip-rule:evenodd;fill:#2B61D8;}
	.st167{fill-rule:evenodd;clip-rule:evenodd;fill:#78E9FF;}
	.st168{fill-rule:evenodd;clip-rule:evenodd;fill:#844596;}
	.st169{fill-rule:evenodd;clip-rule:evenodd;fill:#A667FC;}
	.st170{fill-rule:evenodd;clip-rule:evenodd;fill:#379CC0;}
	.st171{fill-rule:evenodd;clip-rule:evenodd;fill:url(#SVGID_00000052823722813977657150000000849976678307888017_);}
	.st172{fill:#FF439D;}
	.st173{fill:#29ABE2;}
	.st174{fill:#AA3AAA;}
	.st175{fill:#78E9FF;}
	.st176{fill:#FFC60B;}
	.st177{fill:#A667FC;}
	.st178{fill-rule:evenodd;clip-rule:evenodd;fill:#CCED56;}
	.st179{fill-rule:evenodd;clip-rule:evenodd;fill:#776599;}
	.st180{fill-rule:evenodd;clip-rule:evenodd;fill:#80DEFF;}
	.st181{fill:#379CC0;}
	.st182{fill:#BAAE1C;}
	.st183{fill:#84BC7A;}
	.st184{fill:#916E00;}
	.st185{fill:#BCAD64;}
	.st186{fill:#D18D2A;}
	.st187{fill:#FFB278;}
	.st188{fill-rule:evenodd;clip-rule:evenodd;fill:#785EF7;}
	.st189{fill-rule:evenodd;clip-rule:evenodd;fill:#C2FF7B;}
	.st190{fill-rule:evenodd;clip-rule:evenodd;fill:#6F96EF;}
	.st191{fill-rule:evenodd;clip-rule:evenodd;fill:#E5B189;}
	.st192{fill-rule:evenodd;clip-rule:evenodd;fill:#72D392;}
	.st193{fill-rule:evenodd;clip-rule:evenodd;fill:#F9C55D;}
	.st194{fill-rule:evenodd;clip-rule:evenodd;fill:#61C165;}
	.st195{fill-rule:evenodd;clip-rule:evenodd;fill:#6786D3;}
	.st196{fill-rule:evenodd;clip-rule:evenodd;fill:#FCB1E3;}
	.st197{fill-rule:evenodd;clip-rule:evenodd;fill:#1CC1E4;}
	.st198{fill-rule:evenodd;clip-rule:evenodd;fill:#6D6DB2;}
	.st199{fill-rule:evenodd;clip-rule:evenodd;fill:#66A2AA;}
	.st200{fill-rule:evenodd;clip-rule:evenodd;fill:#D2FC86;}
	.st201{fill:#7FBC62;}
	.st202{fill:#442109;}
	.st203{fill:#60361A;}
	.st204{fill:#A08657;}
	.st205{fill:#FFCD5C;}
	.st206{fill:#7DA22E;}
	.st207{fill:#F9C941;}
	.st208{fill:#6AC6B4;}
	.st209{fill:#E2C159;}
	.st210{fill:#EF8550;}
</style>
<g id="Layer_1">
</g>
<g id="Layer_2">
</g>
<g id="Layer_3">
</g>
<g id="Layer_4">
</g>
<g id="Layer_5">
</g>
<g id="Layer_6">
</g>
<g id="Layer_7">
</g>
<g id="Layer_8">
</g>
<g id="Layer_9">
</g>
<g id="Layer_10">
</g>
<g id="Layer_11">
</g>
<g id="Layer_12">
</g>
<g id="Layer_13">
</g>
<g id="Layer_14">
</g>
<g id="Layer_15">
	<g>
		<path class="st135" d="M168.94,122.83c0,0-1.28-2.42-2.9-3.61c0,0-1.05-1.28,0.55-2.7c0,0,0,0,0,0c-0.13-0.38-0.2-0.78-0.2-1.2
			c0-2.09,1.7-3.79,3.79-3.79s3.79,1.7,3.79,3.79c0,2.09-1.7,3.79-3.79,3.79c-1.26,0-2.37-0.62-3.06-1.57l0,0
			c0,0-0.83,0.56,0.63,1.43C167.75,118.97,170.29,120.71,168.94,122.83z M177.65,120.01c1.18-1.49,2.66-4.38,2.44-9.32
			c0,0-1.63,4.67-5.69,8.24c-1.08,0.95-2.07,2.01-2.84,3.22c-1.25,1.95-2.6,4.86-2.19,7.97c0,0,0.1-3.05,4.36-6.8
			c0.29,1.36,0.6,3.83-0.28,6.2c0,0-1.13,2.48-0.22,5.05l1.17-1.22c0,0,0.76,1.85-1.17,3.79c0,0-0.75,0.59,0.7,1.73c0,0,0,0,0,0
			c0,0,0,0,0.01,0c0.15,0.19,1.93,2.37,2.62,2.54l0.48-0.37c0,0-0.74-0.6-1.05-1.42c-0.21-0.57-0.23-1.24,0.33-1.89
			c0,0,0-0.01,0.01-0.01c0.2-0.29,1.24-1.95,0.91-4.23l4-0.26C181.21,133.23,181.34,124.39,177.65,120.01z M186.21,88.7
			c-5.37,0-9.72,4.35-9.72,9.72s4.35,9.72,9.72,9.72s9.72-4.35,9.72-9.72S191.58,88.7,186.21,88.7z"/>
		<path class="st115" d="M200.74,65.48l-0.06,0.19c-0.37-0.02-0.83-0.34-1.12-0.53c-0.98-0.64-1.71-1.61-2.23-2.64
			c-1.11-2.2-1.54-4.6-0.45-6.89c0.98-2.06,2.73-3.66,4.64-4.84c-0.08,0.05-0.13,0.39-0.15,0.47c-0.11,0.44-0.15,0.89-0.14,1.34
			c0.01,1.71,0.77,3.14,1.44,4.66c0.94,2.12,1.49,5.07,0.17,7.15c-0.32,0.51-0.75,0.94-1.24,1.28c1.1-6.53-1.48-9.83-1.48-9.83
			C202.16,60.09,200.74,65.48,200.74,65.48z M214.6,63.55l-0.2,0.04c-0.03,0.37,0.24,0.87,0.39,1.17c0.52,1.05,1.39,1.9,2.35,2.54
			c2.05,1.38,4.37,2.09,6.78,1.3c2.17-0.71,3.96-2.26,5.38-4.01c-0.06,0.08-0.4,0.08-0.48,0.09c-0.45,0.05-0.9,0.04-1.35-0.02
			c-1.69-0.22-3.03-1.15-4.45-2.01c-1.99-1.2-4.85-2.1-7.07-1.04c-0.54,0.26-1.02,0.63-1.42,1.07c6.62-0.29,9.57,2.68,9.57,2.68
			C220.13,62.8,214.6,63.55,214.6,63.55z M193.72,75.68l-0.2,0.04c-0.03,0.37,0.24,0.87,0.39,1.17c0.52,1.05,1.39,1.9,2.35,2.54
			c2.05,1.38,4.37,2.09,6.78,1.3c2.17-0.71,3.96-2.26,5.38-4.01c-0.06,0.08-0.4,0.08-0.48,0.09c-0.45,0.05-0.9,0.04-1.35-0.02
			c-1.69-0.22-3.03-1.15-4.45-2.01c-1.99-1.2-4.85-2.1-7.07-1.04c-0.54,0.26-1.02,0.63-1.42,1.07c6.62-0.29,9.57,2.68,9.57,2.68
			C199.25,74.93,193.72,75.68,193.72,75.68z M176.41,66.88l-0.07,0.19c0.3,0.22,0.87,0.27,1.21,0.3c1.18,0.12,2.37-0.16,3.44-0.64
			c2.28-1.01,4.15-2.61,4.77-5.1c0.56-2.24,0.21-4.61-0.53-6.77c0.03,0.09-0.15,0.38-0.19,0.46c-0.2,0.41-0.46,0.79-0.75,1.14
			c-1.1,1.33-2.62,1.97-4.12,2.72c-2.1,1.06-4.42,3.02-4.71,5.49c-0.07,0.6-0.01,1.21,0.15,1.79c3.32-5.82,7.46-6.74,7.46-6.74
			C178.75,61.75,176.41,66.88,176.41,66.88z M136.64,53.92l-0.07,0.19c0.3,0.21,0.87,0.24,1.21,0.27c1.17,0.09,2.34-0.22,3.39-0.72
			c2.23-1.06,4.03-2.69,4.58-5.17c0.49-2.23,0.08-4.56-0.7-6.67c0.03,0.09-0.14,0.38-0.17,0.46c-0.18,0.41-0.43,0.8-0.71,1.15
			c-1.06,1.34-2.53,2.01-4,2.8c-2.05,1.1-4.28,3.1-4.51,5.55c-0.06,0.6,0.02,1.2,0.2,1.77c3.13-5.84,7.19-6.86,7.19-6.86
			C138.82,48.79,136.64,53.92,136.64,53.92z M154.88,66.47c0,0,4.19,0.03,8.61,4.97c0.04-0.6-0.03-1.2-0.23-1.77
			c-0.8-2.32-3.44-3.74-5.69-4.33c-1.61-0.42-3.21-0.72-4.55-1.78c-0.35-0.28-0.68-0.59-0.96-0.95c-0.05-0.07-0.29-0.31-0.28-0.41
			c-0.27,2.24-0.12,4.6,0.89,6.65c1.12,2.28,3.26,3.44,5.67,3.94c1.14,0.24,2.35,0.27,3.46-0.1c0.32-0.1,0.87-0.27,1.11-0.54
			l-0.11-0.17C162.8,71.99,159.48,67.52,154.88,66.47z M166.11,47.28c0,0,4.05,1.1,7.07,6.99c0.19-0.57,0.27-1.17,0.23-1.77
			c-0.18-2.45-2.38-4.49-4.41-5.63c-1.45-0.82-2.92-1.51-3.95-2.88c-0.27-0.36-0.51-0.75-0.69-1.16c-0.03-0.08-0.2-0.37-0.16-0.46
			c-0.83,2.09-1.28,4.42-0.83,6.66c0.5,2.49,2.28,4.15,4.48,5.25c1.04,0.52,2.2,0.85,3.37,0.78c0.34-0.02,0.9-0.04,1.21-0.24
			l-0.06-0.19C172.37,54.63,170.29,49.45,166.11,47.28z M123.62,34.02c0,0,4.05,1.1,7.07,6.99c0.19-0.57,0.27-1.17,0.23-1.77
			c-0.18-2.45-2.38-4.49-4.41-5.63c-1.45-0.82-2.92-1.51-3.95-2.88c-0.27-0.36-0.51-0.75-0.69-1.16c-0.03-0.08-0.2-0.37-0.16-0.46
			c-0.83,2.09-1.28,4.42-0.83,6.66c0.5,2.49,2.28,4.15,4.48,5.25c1.04,0.52,2.2,0.85,3.37,0.78c0.34-0.02,0.9-0.04,1.21-0.24
			l-0.06-0.19C129.88,41.38,127.8,36.2,123.62,34.02z M129.54,68.84c0,0,4.18,0.29,8.29,5.48c0.07-0.59,0.04-1.2-0.12-1.78
			c-0.66-2.37-3.21-3.94-5.42-4.66c-1.58-0.52-3.16-0.92-4.43-2.05c-0.34-0.3-0.65-0.64-0.9-1.01c-0.05-0.07-0.27-0.33-0.25-0.42
			c-0.4,2.22-0.39,4.59,0.49,6.69c0.98,2.34,3.04,3.63,5.42,4.28c1.12,0.3,2.33,0.41,3.46,0.11c0.33-0.09,0.88-0.22,1.14-0.48
			l-0.1-0.18C137.11,74.83,134.06,70.16,129.54,68.84z"/>
		<path class="st117" d="M215.73,56.99l-0.14,0.15c-0.33-0.17-0.63-0.65-0.81-0.93c-0.64-0.98-0.92-2.16-0.98-3.32
			c-0.13-2.46,0.44-4.83,2.36-6.49c1.72-1.49,3.97-2.25,6.2-2.56c-0.1,0.01-0.27,0.3-0.32,0.37c-0.27,0.36-0.49,0.76-0.67,1.17
			c-0.68,1.57-0.56,3.19-0.56,4.85c0.01,2.32-0.68,5.24-2.73,6.61c-0.5,0.33-1.06,0.56-1.65,0.67c3.64-5.53,2.6-9.59,2.6-9.59
			C219.21,52.62,215.73,56.99,215.73,56.99z M191.2,58.76c0,0,2.59,3.3,1.48,9.83c0.49-0.34,0.92-0.77,1.24-1.28
			c1.32-2.07,0.77-5.02-0.17-7.15c-0.67-1.52-1.43-2.96-1.44-4.66c0-0.45,0.04-0.91,0.14-1.34c0.02-0.08,0.06-0.42,0.15-0.47
			c-1.91,1.18-3.67,2.78-4.64,4.84c-1.08,2.29-0.66,4.69,0.45,6.89c0.52,1.03,1.26,2,2.23,2.64c0.28,0.18,0.75,0.51,1.12,0.53
			l0.06-0.19C191.83,68.4,193.25,63,191.2,58.76z M178.13,77.63l-0.2,0.04c-0.03,0.37,0.24,0.87,0.39,1.17
			c0.52,1.05,1.39,1.9,2.35,2.54c2.05,1.38,4.37,2.09,6.78,1.3c2.17-0.71,3.96-2.26,5.38-4.01c-0.06,0.08-0.4,0.08-0.48,0.09
			c-0.45,0.05-0.9,0.04-1.35-0.02c-1.69-0.22-3.03-1.15-4.45-2.01c-1.99-1.2-4.85-2.1-7.07-1.04c-0.54,0.26-1.02,0.63-1.42,1.07
			c6.62-0.29,9.57,2.68,9.57,2.68C183.66,76.88,178.13,77.63,178.13,77.63z M180.68,53.25l-0.05,0.2c0.32,0.17,0.89,0.14,1.23,0.13
			c1.17-0.04,2.3-0.49,3.28-1.11c2.09-1.31,3.7-3.14,3.96-5.66c0.23-2.27-0.44-4.54-1.47-6.55c0.04,0.09-0.09,0.4-0.12,0.48
			c-0.14,0.43-0.34,0.84-0.57,1.22c-0.89,1.45-2.29,2.29-3.65,3.24c-1.9,1.33-3.9,3.57-3.84,6.03c0.01,0.6,0.16,1.19,0.4,1.73
			c2.44-6.16,6.36-7.64,6.36-7.64C182.25,47.89,180.68,53.25,180.68,53.25z M135.07,43.27L135,43.45c0.29,0.22,0.86,0.28,1.19,0.32
			c1.16,0.14,2.35-0.12,3.41-0.57c2.27-0.96,4.14-2.52,4.8-4.97c0.59-2.2,0.28-4.55-0.42-6.7c0.03,0.09-0.15,0.38-0.19,0.45
			c-0.2,0.4-0.46,0.78-0.76,1.12c-1.11,1.3-2.62,1.9-4.12,2.63c-2.09,1.01-4.41,2.91-4.74,5.35c-0.08,0.59-0.03,1.2,0.12,1.78
			c3.38-5.7,7.48-6.55,7.48-6.55C137.47,38.23,135.07,43.27,135.07,43.27z M161.31,57.53c0,0,4.05,1.1,7.07,6.99
			c0.19-0.57,0.27-1.17,0.23-1.77c-0.18-2.45-2.38-4.49-4.41-5.63c-1.45-0.82-2.92-1.51-3.95-2.88c-0.27-0.36-0.51-0.75-0.69-1.16
			c-0.03-0.08-0.2-0.37-0.16-0.46c-0.83,2.09-1.28,4.42-0.83,6.66c0.5,2.49,2.28,4.15,4.48,5.25c1.04,0.52,2.2,0.85,3.37,0.78
			c0.34-0.02,0.9-0.04,1.21-0.24l-0.06-0.19C167.57,64.88,165.49,59.71,161.31,57.53z M123.62,45.34c0,0,4.05,1.1,7.07,6.99
			c0.19-0.57,0.27-1.17,0.23-1.77c-0.18-2.45-2.38-4.49-4.41-5.63c-1.45-0.82-2.92-1.51-3.95-2.88c-0.27-0.36-0.51-0.75-0.69-1.16
			c-0.03-0.08-0.2-0.37-0.16-0.46c-0.83,2.09-1.28,4.42-0.83,6.66c0.5,2.49,2.28,4.15,4.48,5.25c1.04,0.52,2.2,0.85,3.37,0.78
			c0.34-0.02,0.9-0.04,1.21-0.24l-0.06-0.19C129.88,52.7,127.8,47.52,123.62,45.34z M128.31,80.97c0,0,4.18,0.29,8.29,5.48
			c0.07-0.59,0.04-1.2-0.12-1.78c-0.66-2.37-3.21-3.94-5.42-4.66c-1.58-0.52-3.16-0.92-4.43-2.05c-0.34-0.3-0.65-0.64-0.9-1.01
			c-0.05-0.07-0.27-0.33-0.25-0.42c-0.4,2.22-0.39,4.59,0.49,6.69c0.98,2.34,3.04,3.63,5.42,4.28c1.12,0.3,2.33,0.41,3.46,0.11
			c0.33-0.09,0.88-0.22,1.14-0.48l-0.1-0.18C135.88,86.96,132.83,82.29,128.31,80.97z"/>
		<path class="st132" d="M208.94,59.92l-0.06,0.19c-0.37-0.02-0.83-0.34-1.12-0.53c-0.98-0.64-1.71-1.61-2.23-2.64
			c-1.11-2.2-1.54-4.6-0.45-6.89c0.98-2.06,2.73-3.66,4.64-4.84c-0.08,0.05-0.13,0.39-0.15,0.47c-0.11,0.44-0.15,0.89-0.14,1.34
			c0.01,1.71,0.77,3.14,1.44,4.66c0.94,2.12,1.49,5.07,0.17,7.15c-0.32,0.51-0.75,0.94-1.24,1.28c1.1-6.53-1.48-9.83-1.48-9.83
			C210.37,54.53,208.94,59.92,208.94,59.92z M135.71,25c0,0,1.04,4.06-2.6,9.59c0.59-0.12,1.15-0.34,1.65-0.67
			c2.04-1.37,2.73-4.29,2.73-6.61c0-1.66-0.12-3.28,0.56-4.85c0.18-0.41,0.4-0.81,0.67-1.17c0.05-0.07,0.23-0.36,0.32-0.37
			c-2.23,0.31-4.48,1.07-6.2,2.56c-1.92,1.66-2.49,4.03-2.36,6.49c0.06,1.16,0.34,2.34,0.98,3.32c0.18,0.28,0.48,0.77,0.81,0.93
			l0.14-0.15C132.4,34.07,135.87,29.7,135.71,25z M205.33,71l-0.2,0.04c-0.03,0.37,0.24,0.87,0.39,1.17
			c0.52,1.05,1.39,1.9,2.35,2.54c2.05,1.38,4.37,2.09,6.78,1.3c2.17-0.71,3.96-2.26,5.38-4.01c-0.06,0.08-0.4,0.08-0.48,0.09
			c-0.45,0.05-0.9,0.04-1.35-0.02c-1.69-0.22-3.03-1.15-4.45-2.01c-1.99-1.2-4.85-2.1-7.07-1.04c-0.54,0.26-1.02,0.63-1.42,1.07
			c6.62-0.29,9.57,2.68,9.57,2.68C210.86,70.25,205.33,71,205.33,71z M164.64,81.52l-0.2,0.04c-0.03,0.37,0.24,0.87,0.39,1.17
			c0.52,1.05,1.39,1.9,2.35,2.54c2.05,1.38,4.37,2.09,6.78,1.3c2.17-0.71,3.96-2.26,5.38-4.01c-0.06,0.08-0.4,0.08-0.48,0.09
			c-0.45,0.05-0.9,0.04-1.35-0.02c-1.69-0.22-3.03-1.15-4.45-2.01c-1.99-1.2-4.85-2.1-7.07-1.04c-0.54,0.26-1.02,0.63-1.42,1.07
			c6.62-0.29,9.57,2.68,9.57,2.68C170.16,80.77,164.64,81.52,164.64,81.52z M142.61,63.25l-0.07,0.19c0.3,0.21,0.87,0.23,1.21,0.25
			c1.17,0.08,2.34-0.25,3.38-0.76c2.22-1.08,4.01-2.73,4.53-5.22c0.47-2.23,0.04-4.56-0.77-6.66c0.04,0.09-0.13,0.39-0.17,0.46
			c-0.18,0.41-0.42,0.8-0.7,1.16c-1.04,1.35-2.51,2.04-3.97,2.84c-2.03,1.12-4.25,3.14-4.45,5.59c-0.05,0.6,0.03,1.2,0.21,1.77
			c3.07-5.87,7.12-6.93,7.12-6.93C144.74,58.09,142.61,63.25,142.61,63.25z M126.41,57.07c0,0,4.18,0.29,8.29,5.48
			c0.07-0.59,0.04-1.2-0.12-1.78c-0.66-2.37-3.21-3.94-5.42-4.66c-1.58-0.52-3.16-0.92-4.43-2.05c-0.34-0.3-0.65-0.64-0.9-1.01
			c-0.05-0.07-0.27-0.33-0.25-0.42c-0.4,2.22-0.39,4.59,0.49,6.69c0.98,2.34,3.04,3.63,5.42,4.28c1.12,0.3,2.33,0.41,3.46,0.11
			c0.33-0.09,0.88-0.22,1.14-0.48l-0.1-0.18C133.99,63.06,130.94,58.39,126.41,57.07z M175.61,37.94c0,0,2.77,3.14,2.04,9.73
			c0.47-0.37,0.87-0.82,1.16-1.35c1.2-2.15,0.49-5.06-0.58-7.13c-0.76-1.48-1.6-2.87-1.71-4.57c-0.03-0.45-0.01-0.91,0.07-1.35
			c0.02-0.08,0.04-0.42,0.12-0.48c-1.84,1.29-3.5,2.98-4.36,5.1c-0.95,2.35-0.39,4.72,0.85,6.85c0.58,1,1.37,1.92,2.38,2.51
			c0.29,0.17,0.78,0.47,1.14,0.46l0.05-0.2C176.79,47.52,177.9,42.06,175.61,37.94z"/>
		<path class="st159" d="M139.93,111.4c0.07,6.74,1.63,12.18,4,16.57c0,0,0,0,0,0.01c3.84,7.09,9.78,11.41,14.98,14
			c0.44-0.08,7.72-1.35,13.29,0.44c1.29,0.41,2.64,0.6,4,0.59c2.49-0.02,5.68,0.17,7.42-0.91c0,0-0.14,5.31-7.87,4.4
			c-1.09-0.13-2.18-0.19-3.28-0.13c-1.08,0.06-2.24,0.23-2.91,0.65c0,0,5,2.42,10.88,0.95c0,0,12.52-8.02,14.94-3.8
			c-3.12,2.12-6.23,4.24-9.35,6.35c-1.75,1.19-3.48,2.68-5.31,3.71c-3.08,1.73-6.72,1.59-10.13,1.36c-4.79-0.32-9.5-1.47-13.92-3.34
			c-0.78-0.33-1.54-0.68-2.29-1.06c-10.31-5.15-18.26-14.34-21.76-25.5l-0.8-2.92h0.03c-4.64-18.72,5.81-34.45,5.81-34.45
			c6.01-12.38-2.04-28.16-2.04-28.16c-8.51-14.61-1.64-23.21-1.36-23.56c-6.39,9.78,3.49,22.88,3.49,22.88
			c7.88,11.32,6.19,25.4,6.19,25.4c6.13-5.62,12.32-8.73,15.41-10.06c2.17-0.94,4.22-2.15,6.03-3.67
			c9.9-8.37,11.88-20.58,11.88-20.58c0.58,10.01-8.28,21.18-8.28,21.18c9.16-2.19,23.95-1.79,23.95-1.79
			c16.21-0.35,21.13-9.57,22.03-11.62c-5.39,13.59-20.52,14.06-33.39,15.48c-6.28,0.7-11.27,2.19-12.95,2.86
			C139.59,88.09,139.93,111.4,139.93,111.4z"/>
	</g>
</g>
</svg>
