<?xml version="1.0" encoding="utf-8"?>
<!-- Generator: Adobe Illustrator 27.8.1, SVG Export Plug-In . SVG Version: 6.00 Build 0)  -->
<svg version="1.1" xmlns="http://www.w3.org/2000/svg" xmlns:xlink="http://www.w3.org/1999/xlink" x="0px" y="0px"
	 viewBox="0 0 350 230" style="enable-background:new 0 0 350 230;" xml:space="preserve">
<style type="text/css">
	.st0{fill:#FFFDB8;}
	.st1{fill:#FFF4C5;}
	.st2{fill:#F1FFCC;}
	.st3{fill:#FFF9CF;}
	.st4{fill:#5B0034;}
	.st5{fill:#FEFFCF;}
	.st6{fill:#FFFFFF;}
	.st7{fill:#FCBEF3;}
	.st8{fill:#007769;}
	.st9{fill:#990000;}
	.st10{fill:#EE388C;}
	.st11{fill:#4862AD;}
	.st12{fill:#EE4B9B;}
	.st13{fill:#FAEE35;}
	.st14{fill:#01A79D;}
	.st15{fill:#8FC640;}
	.st16{fill:#EC2227;}
	.st17{fill:#E7BD20;}
	.st18{fill:#DC8927;}
	.st19{fill:#2F99D5;}
	.st20{fill:#663366;}
	.st21{fill:#FFC907;}
	.st22{fill:#4B83C3;}
	.st23{fill:#F0535B;}
	.st24{fill:#A92990;}
	.st25{fill:#E16E25;}
	.st26{fill:#426CB4;}
	.st27{fill:#E9292B;}
	.st28{fill:#0F77B7;}
	.st29{fill:#EF4A6C;}
	.st30{fill:#65C5B3;}
	.st31{fill:#965724;}
	.st32{fill:#F1A422;}
	.st33{fill:#18479E;}
	.st34{fill:#64C5B2;}
	.st35{fill:#FAE072;}
	.st36{fill:#EF496E;}
	.st37{fill:#231F20;}
	.st38{fill-rule:evenodd;clip-rule:evenodd;fill:#5C493A;}
	.st39{fill-rule:evenodd;clip-rule:evenodd;fill:#F26767;}
	.st40{fill-rule:evenodd;clip-rule:evenodd;fill:#87C443;}
	.st41{fill-rule:evenodd;clip-rule:evenodd;fill:#EE3E96;}
	.st42{fill-rule:evenodd;clip-rule:evenodd;fill:#2195D2;}
	.st43{fill-rule:evenodd;clip-rule:evenodd;fill:#FFCD05;}
	.st44{fill-rule:evenodd;clip-rule:evenodd;fill:#83C341;}
	.st45{fill-rule:evenodd;clip-rule:evenodd;fill:#0F77B7;}
	.st46{fill-rule:evenodd;clip-rule:evenodd;fill:#ED8D36;}
	.st47{fill-rule:evenodd;clip-rule:evenodd;fill:#3CA356;}
	.st48{fill-rule:evenodd;clip-rule:evenodd;fill:#7F4A25;}
	.st49{fill-rule:evenodd;clip-rule:evenodd;fill:#A3B539;}
	.st50{fill-rule:evenodd;clip-rule:evenodd;fill:#FAAF37;}
	.st51{fill-rule:evenodd;clip-rule:evenodd;fill:#0BB4A1;}
	.st52{fill:#00A9CB;}
	.st53{fill:#79AA41;}
	.st54{fill:#CD8F2A;}
	.st55{fill:#0393B0;}
	.st56{fill:#E82F7B;}
	.st57{fill:#D7DF2A;}
	.st58{fill:#8DC443;}
	.st59{fill:#F0A422;}
	.st60{fill:#3A3A3B;}
	.st61{fill:#29AAE1;}
	.st62{fill:#E9246E;}
	.st63{fill:url(#SVGID_1_);}
	.st64{fill:#00EFFF;}
	.st65{fill-rule:evenodd;clip-rule:evenodd;fill:url(#SVGID_00000066475132867585988220000015327521013050621574_);}
	.st66{fill-rule:evenodd;clip-rule:evenodd;fill:url(#SVGID_00000005980722900062606590000017523014421887620241_);}
	.st67{fill-rule:evenodd;clip-rule:evenodd;fill:url(#SVGID_00000060014908793656458040000002648902058791795355_);}
	.st68{fill-rule:evenodd;clip-rule:evenodd;fill:url(#SVGID_00000034778787251091652980000004680525481106544257_);}
	.st69{fill-rule:evenodd;clip-rule:evenodd;fill:url(#SVGID_00000003814978315964190470000003837479141893405313_);}
	.st70{fill-rule:evenodd;clip-rule:evenodd;fill:url(#SVGID_00000078016182165105124980000001547229105801303699_);}
	.st71{fill-rule:evenodd;clip-rule:evenodd;fill:url(#SVGID_00000020396967918973074980000009761419282280795783_);}
	.st72{fill-rule:evenodd;clip-rule:evenodd;fill:url(#SVGID_00000147198390126493274050000009011844065887978414_);}
	.st73{fill-rule:evenodd;clip-rule:evenodd;fill:url(#SVGID_00000025412363404118209120000006674267878699316142_);}
	.st74{fill:url(#SVGID_00000181062748354157823760000005029847015584331944_);}
	.st75{fill:#00889E;}
	.st76{fill:url(#SVGID_00000069395471957722902710000002570989190415193235_);}
	.st77{fill:url(#SVGID_00000119808255453820068110000017065364617798813610_);}
	.st78{fill:url(#SVGID_00000120540221291122127460000000892489667850057376_);}
	.st79{fill:#009AFF;}
	.st80{fill:url(#SVGID_00000021081053794731255010000002127068351242107551_);}
	.st81{fill:url(#SVGID_00000117644181609265932690000003642013391678707383_);}
	.st82{fill:#EF1A24;}
	.st83{fill:url(#SVGID_00000178192563199575974440000002904556786543378325_);}
	.st84{fill:url(#SVGID_00000160184724209355907060000009645573047237933720_);}
	.st85{fill-rule:evenodd;clip-rule:evenodd;fill:#1B2E7A;}
	.st86{fill-rule:evenodd;clip-rule:evenodd;fill:#FFFFFF;}
	.st87{fill-rule:evenodd;clip-rule:evenodd;fill:#FF004D;}
	.st88{fill:#1B2E7A;}
	.st89{fill-rule:evenodd;clip-rule:evenodd;fill:#FFD373;}
	.st90{fill-rule:evenodd;clip-rule:evenodd;fill:#EDB337;}
	.st91{fill-rule:evenodd;clip-rule:evenodd;fill:#FFEDB0;}
	.st92{fill:url(#SVGID_00000142881264747096447430000008744280856736620164_);}
	.st93{fill:#A25F00;}
	.st94{fill:#1B5302;}
	.st95{fill:#00AEEF;}
	.st96{fill:#ED1966;}
	.st97{fill:url(#SVGID_00000124150397694555737020000015359530209838297475_);}
	.st98{fill:url(#SVGID_00000129175178758216766190000000339062844645526686_);}
	.st99{fill:#79BACC;}
	.st100{fill:#E8E3D8;}
	.st101{fill:#F2B220;}
	.st102{fill:url(#SVGID_00000080888463753725924340000001221473104090060219_);}
	.st103{fill:url(#SVGID_00000088094697781001320610000000333075286719752623_);}
	.st104{fill:url(#SVGID_00000152945837468995636770000013057577840414402712_);}
	.st105{fill:url(#SVGID_00000178917754682641237350000013982426465337208198_);}
	.st106{fill:url(#SVGID_00000108292743814738413210000004410556046964286143_);}
	.st107{fill:url(#SVGID_00000161618436897573595610000013049601795718865030_);}
	.st108{fill:url(#SVGID_00000037671397188047637670000002570283178302349696_);}
	.st109{fill:#9B85BE;}
	.st110{fill:#776599;}
	.st111{fill:#FD3861;}
	.st112{fill:#C42244;}
	.st113{fill:#009FE2;}
	.st114{fill:#30B17B;}
	.st115{fill:#FF7D9C;}
	.st116{fill:#9ACA3D;}
	.st117{fill:#856DB5;}
	.st118{fill:url(#SVGID_00000048470671665645328520000010978946632522986417_);}
	.st119{fill:#0075B0;}
	.st120{fill:#CDE250;}
	.st121{fill:#7DDDFF;}
	.st122{fill:#B9EA81;}
	.st123{fill:#FF7D87;}
	.st124{fill-rule:evenodd;clip-rule:evenodd;fill:#FFC60B;}
	.st125{fill-rule:evenodd;clip-rule:evenodd;fill:#9ABE37;}
	.st126{fill-rule:evenodd;clip-rule:evenodd;fill:#74D7E2;}
	.st127{fill-rule:evenodd;clip-rule:evenodd;fill:#FF598A;}
	.st128{fill-rule:evenodd;clip-rule:evenodd;fill:#856DB5;}
	.st129{fill:#ED5681;}
	.st130{fill:#E5B189;}
	.st131{fill:#CE9976;}
	.st132{fill:#80DEFF;}
	.st133{fill:#61C7E2;}
	.st134{fill:#715BA5;}
	.st135{fill:#CCED56;}
	.st136{fill:#9ABE37;}
	.st137{fill:#7D9D2B;}
	.st138{fill:#F4C11E;}
	.st139{fill:#E19A00;}
	.st140{fill:#FFBE00;}
	.st141{fill:#C74D96;}
	.st142{fill:#F4A408;}
	.st143{fill:#00B0DD;}
	.st144{fill:#E62944;}
	.st145{fill:#553590;}
	.st146{fill:#035A31;}
	.st147{fill:#80BE26;}
	.st148{fill:#00549A;}
	.st149{fill:#844596;}
	.st150{fill:#009C42;}
	.st151{fill-rule:evenodd;clip-rule:evenodd;fill:#1F7099;}
	.st152{fill-rule:evenodd;clip-rule:evenodd;fill:#406FB5;}
	.st153{fill-rule:evenodd;clip-rule:evenodd;fill:#A418ED;}
	.st154{fill-rule:evenodd;clip-rule:evenodd;fill:#28834F;}
	.st155{fill-rule:evenodd;clip-rule:evenodd;fill:#1FEA75;}
	.st156{fill-rule:evenodd;clip-rule:evenodd;fill:#07A8A8;}
	.st157{fill-rule:evenodd;clip-rule:evenodd;fill:#25C9EF;}
	.st158{fill-rule:evenodd;clip-rule:evenodd;fill:#FF7D9C;}
	.st159{fill:#724329;}
	.st160{fill:#FFD766;}
	.st161{fill:#6ED9FF;}
	.st162{fill:#FFA9C2;}
	.st163{fill-rule:evenodd;clip-rule:evenodd;fill:url(#SVGID_00000175301847794077324220000014379425177826087072_);}
	.st164{fill-rule:evenodd;clip-rule:evenodd;fill:url(#SVGID_00000170966726033302613380000011743681420679103404_);}
	.st165{fill-rule:evenodd;clip-rule:evenodd;fill:url(#SVGID_00000142888121824606968080000004629999343151369372_);}
	.st166{fill-rule:evenodd;clip-rule:evenodd;fill:#2B61D8;}
	.st167{fill-rule:evenodd;clip-rule:evenodd;fill:#78E9FF;}
	.st168{fill-rule:evenodd;clip-rule:evenodd;fill:#844596;}
	.st169{fill-rule:evenodd;clip-rule:evenodd;fill:#A667FC;}
	.st170{fill-rule:evenodd;clip-rule:evenodd;fill:#379CC0;}
	.st171{fill-rule:evenodd;clip-rule:evenodd;fill:url(#SVGID_00000035533215244337998120000008445886489251885227_);}
	.st172{fill:#FF439D;}
	.st173{fill:#29ABE2;}
	.st174{fill:#AA3AAA;}
	.st175{fill:#78E9FF;}
	.st176{fill:#FFC60B;}
	.st177{fill:#A667FC;}
	.st178{fill-rule:evenodd;clip-rule:evenodd;fill:#CCED56;}
	.st179{fill-rule:evenodd;clip-rule:evenodd;fill:#776599;}
	.st180{fill-rule:evenodd;clip-rule:evenodd;fill:#80DEFF;}
	.st181{fill:#379CC0;}
	.st182{fill:#BAAE1C;}
	.st183{fill:#84BC7A;}
	.st184{fill:#916E00;}
	.st185{fill:#BCAD64;}
	.st186{fill:#D18D2A;}
	.st187{fill:#FFB278;}
	.st188{fill-rule:evenodd;clip-rule:evenodd;fill:#785EF7;}
	.st189{fill-rule:evenodd;clip-rule:evenodd;fill:#C2FF7B;}
	.st190{fill-rule:evenodd;clip-rule:evenodd;fill:#6F96EF;}
	.st191{fill-rule:evenodd;clip-rule:evenodd;fill:#E5B189;}
	.st192{fill-rule:evenodd;clip-rule:evenodd;fill:#72D392;}
	.st193{fill-rule:evenodd;clip-rule:evenodd;fill:#F9C55D;}
	.st194{fill-rule:evenodd;clip-rule:evenodd;fill:#61C165;}
	.st195{fill-rule:evenodd;clip-rule:evenodd;fill:#6786D3;}
	.st196{fill-rule:evenodd;clip-rule:evenodd;fill:#FCB1E3;}
	.st197{fill-rule:evenodd;clip-rule:evenodd;fill:#1CC1E4;}
	.st198{fill-rule:evenodd;clip-rule:evenodd;fill:#6D6DB2;}
	.st199{fill-rule:evenodd;clip-rule:evenodd;fill:#66A2AA;}
	.st200{fill-rule:evenodd;clip-rule:evenodd;fill:#D2FC86;}
	.st201{fill:#7FBC62;}
	.st202{fill:#442109;}
	.st203{fill:#60361A;}
	.st204{fill:#A08657;}
	.st205{fill:#FFCD5C;}
	.st206{fill:#7DA22E;}
	.st207{fill:#F9C941;}
	.st208{fill:#6AC6B4;}
	.st209{fill:#E2C159;}
	.st210{fill:#EF8550;}
</style>
<g id="Layer_1">
</g>
<g id="Layer_2">
</g>
<g id="Layer_3">
</g>
<g id="Layer_4">
</g>
<g id="Layer_5">
</g>
<g id="Layer_6">
</g>
<g id="Layer_7">
</g>
<g id="Layer_8">
</g>
<g id="Layer_9">
</g>
<g id="Layer_10">
</g>
<g id="Layer_11">
</g>
<g id="Layer_12">
</g>
<g id="Layer_13">
</g>
<g id="Layer_14">
</g>
<g id="Layer_15">
	<g>
		<path class="st120" d="M137.5,88.08c1.04-2.34,3.12-4.19,5.81-4.81c2.69-0.62,5.37,0.13,7.33,1.77c-1.04,2.34-3.12,4.19-5.81,4.81
			C142.14,90.47,139.46,89.73,137.5,88.08z M131.74,68.94c1.86,2.04,4.49,2.94,7.04,2.69c0.47-2.52-0.2-5.22-2.06-7.25
			c-1.86-2.03-4.49-2.94-7.04-2.69C129.21,64.21,129.88,66.91,131.74,68.94z M171.08,49.27c-0.04,2.76,1.26,5.22,3.29,6.78
			c2.07-1.51,3.43-3.94,3.46-6.7c0.04-2.76-1.26-5.22-3.29-6.78C172.47,44.09,171.11,46.51,171.08,49.27z M220.32,61.69
			c-2.55-0.25-5.18,0.66-7.04,2.69c-1.86,2.04-2.53,4.73-2.06,7.25c2.55,0.25,5.18-0.66,7.04-2.69
			C220.12,66.91,220.79,64.21,220.32,61.69z"/>
		<path class="st117" d="M155.74,106.89c-1.7-1.92-2.52-4.57-1.97-7.28c0.55-2.7,2.34-4.83,4.65-5.94c1.7,1.92,2.52,4.57,1.97,7.28
			C159.84,103.66,158.05,105.79,155.74,106.89z M132.85,83.11c2.69-0.62,4.77-2.46,5.81-4.81c-1.96-1.65-4.64-2.39-7.33-1.77
			c-2.69,0.62-4.77,2.46-5.81,4.81C127.48,82.98,130.16,83.73,132.85,83.11z M142.56,69.1c0.59,2.7,2.41,4.8,4.74,5.86
			c1.67-1.94,2.45-4.61,1.86-7.31c-0.59-2.69-2.41-4.8-4.74-5.86C142.75,63.74,141.97,66.41,142.56,69.1z M166.08,67.33
			c1.48,2.33,3.91,3.68,6.46,3.88c0.9-2.4,0.71-5.17-0.77-7.5c-1.48-2.33-3.91-3.68-6.46-3.88C164.42,62.23,164.6,65,166.08,67.33z
			 M187.95,37.1c-2.56,0.1-5.04,1.36-6.61,3.63c-1.57,2.27-1.86,5.04-1.05,7.47c2.56-0.1,5.04-1.36,6.61-3.63
			C188.47,42.29,188.76,39.53,187.95,37.1z M194.26,106.89c1.7-1.92,2.52-4.57,1.97-7.28c-0.55-2.7-2.34-4.83-4.65-5.94
			c-1.7,1.92-2.52,4.57-1.97,7.28C190.16,103.66,191.95,105.79,194.26,106.89z M224.48,81.33c-1.04-2.34-3.12-4.19-5.81-4.81
			c-2.69-0.62-5.37,0.13-7.33,1.77c1.04,2.34,3.12,4.19,5.81,4.81C219.84,83.73,222.52,82.98,224.48,81.33z M205.58,61.79
			c-2.33,1.07-4.15,3.17-4.74,5.86c-0.59,2.7,0.19,5.36,1.86,7.31c2.33-1.07,4.15-3.17,4.74-5.86
			C208.03,66.41,207.25,63.74,205.58,61.79z"/>
		<path class="st115" d="M117.13,71.12c1.82-1.8,4.43-2.77,7.16-2.37c2.73,0.4,4.95,2.07,6.18,4.31c-1.82,1.8-4.43,2.77-7.16,2.37
			C120.58,75.04,118.36,73.37,117.13,71.12z M164.33,56.36c2.01,1.89,4.7,2.58,7.23,2.14c0.27-2.55-0.6-5.19-2.61-7.07
			c-2.01-1.89-4.7-2.58-7.23-2.14C161.44,51.83,162.32,54.47,164.33,56.36z M161.74,79.31c0.43,2.73,2.12,4.93,4.38,6.14
			c1.78-1.84,2.72-4.46,2.29-7.18c-0.43-2.73-2.12-4.93-4.38-6.14C162.25,73.97,161.31,76.58,161.74,79.31z M149.16,54.32
			c-0.04,2.76,1.26,5.22,3.29,6.78c2.07-1.51,3.43-3.94,3.46-6.7c0.04-2.76-1.26-5.22-3.29-6.78
			C150.55,49.14,149.19,51.57,149.16,54.32z M152.72,96.26c1.85-2.05,2.49-4.75,2.01-7.27c-2.55-0.23-5.17,0.7-7.02,2.75
			c-1.85,2.05-2.49,4.75-2.01,7.27C148.26,99.23,150.88,98.31,152.72,96.26z M187.71,49.28c-2.52-0.44-5.21,0.26-7.23,2.14
			c-2.01,1.89-2.89,4.53-2.61,7.07c2.52,0.44,5.21-0.26,7.23-2.14C187.11,54.47,187.98,51.83,187.71,49.28z M232.87,71.12
			c-1.82-1.8-4.43-2.77-7.16-2.37c-2.73,0.4-4.95,2.07-6.18,4.31c1.82,1.8,4.43,2.77,7.16,2.37
			C229.42,75.04,231.64,73.37,232.87,71.12z M185.97,72.13c-2.26,1.2-3.95,3.41-4.38,6.14c-0.43,2.73,0.51,5.34,2.29,7.18
			c2.26-1.2,3.95-3.41,4.38-6.14C188.69,76.58,187.75,73.97,185.97,72.13z M197.38,47.63c-2.03,1.57-3.32,4.03-3.29,6.78
			c0.04,2.76,1.4,5.18,3.46,6.7c2.03-1.57,3.32-4.03,3.29-6.78C200.81,51.57,199.45,49.14,197.38,47.63z M204.3,99
			c0.49-2.51-0.16-5.22-2.01-7.27c-1.85-2.05-4.47-2.97-7.02-2.75c-0.49,2.51,0.16,5.22,2.01,7.27
			C199.12,98.31,201.74,99.23,204.3,99z"/>
		<path class="st121" d="M137.99,50.52c2.52-0.44,5.21,0.26,7.23,2.14c2.01,1.89,2.89,4.53,2.61,7.07
			c-2.52,0.44-5.21-0.26-7.23-2.14C138.58,55.71,137.71,53.07,137.99,50.52z M162.53,44.56c1.57,2.27,4.05,3.52,6.61,3.63
			c0.81-2.43,0.52-5.19-1.05-7.47c-1.57-2.27-4.05-3.52-6.61-3.63C160.67,39.53,160.96,42.29,162.53,44.56z M155.86,65.42
			c-0.91,2.6-0.47,5.35,0.95,7.48c2.44-0.78,4.5-2.64,5.42-5.24c0.91-2.6,0.47-5.35-0.95-7.48
			C158.84,60.96,156.77,62.82,155.86,65.42z M184.59,59.83c-2.55,0.2-4.98,1.55-6.46,3.88c-1.48,2.33-1.67,5.1-0.77,7.5
			c2.55-0.2,4.98-1.55,6.46-3.88C185.31,65,185.49,62.23,184.59,59.83z M131.9,93.8c1.85-2.05,2.49-4.75,2.01-7.27
			c-2.55-0.23-5.17,0.7-7.02,2.75c-1.85,2.05-2.49,4.75-2.01,7.27C127.43,96.78,130.06,95.85,131.9,93.8z M212.01,50.52
			c-2.52-0.44-5.21,0.26-7.23,2.14c-2.01,1.89-2.89,4.53-2.61,7.07c2.52,0.44,5.21-0.26,7.23-2.14
			C211.41,55.71,212.29,53.07,212.01,50.52z M188.72,60.18c-1.42,2.13-1.87,4.88-0.95,7.48c0.91,2.6,2.98,4.47,5.42,5.24
			c1.42-2.13,1.87-4.88,0.95-7.48C193.22,62.82,191.16,60.96,188.72,60.18z M225.12,96.55c0.49-2.51-0.16-5.22-2.01-7.27
			c-1.85-2.05-4.47-2.97-7.02-2.75c-0.49,2.51,0.16,5.22,2.01,7.27C219.94,95.85,222.56,96.78,225.12,96.55z"/>
		<path class="st122" d="M137.78,129.72c-4.84,0-9.76,0.67-14.64,1.98c-0.81-0.99-1.3-2.25-1.3-3.63c0-3.16,2.56-5.72,5.72-5.72
			c0.14,0,0.27,0.01,0.4,0.02c1.08-3.38,4.25-5.84,8-5.84c3.83,0,7.05,2.56,8.06,6.06c0.67-0.28,1.41-0.43,2.18-0.43
			c3.16,0,5.72,2.56,5.72,5.72c0,1.33-0.46,2.56-1.23,3.53C146.62,130.3,142.29,129.72,137.78,129.72z M175.28,148.5
			c5.4-7.6,12.76-13.11,21.36-16.13c-6.15-1.36-13.28-2.15-20.91-2.15c-7.88,0-15.25,0.84-21.54,2.28
			c4.18,1.51,8.06,3.61,11.56,6.26C169.35,141.45,172.56,144.71,175.28,148.5z"/>
		<path class="st123" d="M208.44,104.55V76.78c0.3-0.14,0.6-0.28,0.91-0.41c1.45-0.59,3.1-1.11,4.57-1.65
			c1.12-0.31,3.62-0.84,4.76-1.12c-1.22,0.07-3.76,0.21-4.93,0.31c-1.59,0.3-3.33,0.52-4.91,0.87c-5.05,1.26-9.84,3.24-14.36,5.78
			c1.6-3.72,2.65-7.66,2.93-11.72c0.04-0.97,0-2.03,0.01-3.02c-0.06-0.7-0.25-2.23-0.32-2.96c-0.06,0.71-0.11,2.25-0.18,2.95
			c-0.16,0.94-0.31,1.98-0.5,2.89c-1.64,6.74-7.14,16.27-17.33,23.62c-1.44-8.26-2.41-16.64-3.15-24.27
			c-0.23-2.39-0.44-4.69-0.64-6.91c-0.02-0.3-0.04-0.59-0.07-0.88c-0.03,0.28-0.05,0.58-0.07,0.88c-0.2,2.22-0.41,4.52-0.65,6.91
			c-0.74,7.63-1.71,16.01-3.15,24.27c-10.19-7.34-15.69-16.87-17.33-23.62c-0.19-0.91-0.33-1.95-0.5-2.89
			c-0.06-0.7-0.12-2.24-0.17-2.95c-0.08,0.73-0.27,2.26-0.33,2.96c0.01,0.99-0.04,2.04,0.01,3.02c0.28,4.06,1.33,8,2.93,11.72
			c-4.51-2.54-9.31-4.52-14.36-5.78c-1.57-0.34-3.31-0.57-4.91-0.87c-1.17-0.1-3.71-0.24-4.93-0.31c1.14,0.28,3.65,0.82,4.77,1.12
			c1.47,0.54,3.12,1.06,4.57,1.65c4.41,1.92,8.5,4.46,12.23,7.46c11.99,9.6,15.71,26.47,8.55,40.05c-0.62,1.18-1.28,2.3-1.96,3.36
			c5.07-0.67,10.4-1.03,15.82-1.03c5.02,0,9.98,0.31,14.71,0.89c-0.65-1.02-1.27-2.1-1.86-3.22c-7.17-13.58-3.44-30.44,8.54-40.05
			c3.04-2.44,6.31-4.57,9.81-6.31v27.04c-5.54,0.39-9.92,4.99-9.92,10.63c0,5.9,4.78,10.68,10.67,10.68
			c5.9,0,10.67-4.78,10.67-10.68C218.35,109.55,213.98,104.94,208.44,104.55z M174.37,110.7h-3.39v-5.13h3.39V110.7z M174.37,103.87
			h-3.39v-1.81c0-2.04,1.45-3.76,3.39-4.15V103.87z M179.45,110.7h-3.38v-5.13h3.38V110.7z M179.45,103.87h-3.38v-5.96
			c1.93,0.39,3.38,2.1,3.38,4.15V103.87z M207.67,119.57c-2.42,0-4.38-1.96-4.38-4.39c0-2.42,1.96-4.38,4.38-4.38
			c2.43,0,4.39,1.96,4.39,4.38C212.06,117.61,210.1,119.57,207.67,119.57z M229.24,153.07l-46.53,0.05
			c5.81-4.95,23.25-16.48,47.13-2.2C230.85,151.52,230.41,153.07,229.24,153.07z M231.41,139.46v6.32
			c-9.17-4.19-19.13-6.93-29.21-5.58c-7.68,0.95-14.97,4.32-21.03,9.16c-2.09,1.64-4.06,3.5-5.81,5.53c0,0-0.07-0.04-0.15-0.09
			c-0.08,0.05-0.15,0.09-0.15,0.09c-1.75-2.03-3.72-3.89-5.81-5.53c-6.06-4.84-13.35-8.21-21.03-9.16
			c-10.08-1.35-20.04,1.39-29.21,5.58v-6.32c0-2.13,1.4-4.02,3.44-4.62c20.16-5.96,41.65-0.41,52.76,19.04
			c11.11-19.45,32.59-25,52.76-19.04C230.01,135.44,231.41,137.33,231.41,139.46z M122.89,150.17c23.22-13.12,40.14-1.91,45.85,2.94
			l-45.07-0.04C122.08,153.07,121.51,150.96,122.89,150.17z"/>
	</g>
</g>
</svg>
