<?xml version="1.0" encoding="utf-8"?>
<!-- Generator: Adobe Illustrator 27.8.1, SVG Export Plug-In . SVG Version: 6.00 Build 0)  -->
<svg version="1.1" xmlns="http://www.w3.org/2000/svg" xmlns:xlink="http://www.w3.org/1999/xlink" x="0px" y="0px"
	 viewBox="0 0 350 230" style="enable-background:new 0 0 350 230;" xml:space="preserve">
<style type="text/css">
	.st0{fill:#FFFDB8;}
	.st1{fill:#FFF4C5;}
	.st2{fill:#F1FFCC;}
	.st3{fill:#FFF9CF;}
	.st4{fill:#5B0034;}
	.st5{fill:#FEFFCF;}
	.st6{fill:#FFFFFF;}
	.st7{fill:#FCBEF3;}
	.st8{fill:#007769;}
	.st9{fill:#990000;}
	.st10{fill:#EE388C;}
	.st11{fill:#4862AD;}
	.st12{fill:#EE4B9B;}
	.st13{fill:#FAEE35;}
	.st14{fill:#01A79D;}
	.st15{fill:#8FC640;}
	.st16{fill:#EC2227;}
	.st17{fill:#E7BD20;}
	.st18{fill:#DC8927;}
	.st19{fill:#2F99D5;}
	.st20{fill:#663366;}
	.st21{fill:#FFC907;}
	.st22{fill:#4B83C3;}
	.st23{fill:#F0535B;}
	.st24{fill:#A92990;}
	.st25{fill:#E16E25;}
	.st26{fill:#426CB4;}
	.st27{fill:#E9292B;}
	.st28{fill:#0F77B7;}
	.st29{fill:#EF4A6C;}
	.st30{fill:#65C5B3;}
	.st31{fill:#965724;}
	.st32{fill:#F1A422;}
	.st33{fill:#18479E;}
	.st34{fill:#64C5B2;}
	.st35{fill:#FAE072;}
	.st36{fill:#EF496E;}
	.st37{fill:#231F20;}
	.st38{fill-rule:evenodd;clip-rule:evenodd;fill:#5C493A;}
	.st39{fill-rule:evenodd;clip-rule:evenodd;fill:#F26767;}
	.st40{fill-rule:evenodd;clip-rule:evenodd;fill:#87C443;}
	.st41{fill-rule:evenodd;clip-rule:evenodd;fill:#EE3E96;}
	.st42{fill-rule:evenodd;clip-rule:evenodd;fill:#2195D2;}
	.st43{fill-rule:evenodd;clip-rule:evenodd;fill:#FFCD05;}
	.st44{fill-rule:evenodd;clip-rule:evenodd;fill:#83C341;}
	.st45{fill-rule:evenodd;clip-rule:evenodd;fill:#0F77B7;}
	.st46{fill-rule:evenodd;clip-rule:evenodd;fill:#ED8D36;}
	.st47{fill-rule:evenodd;clip-rule:evenodd;fill:#3CA356;}
	.st48{fill-rule:evenodd;clip-rule:evenodd;fill:#7F4A25;}
	.st49{fill-rule:evenodd;clip-rule:evenodd;fill:#A3B539;}
	.st50{fill-rule:evenodd;clip-rule:evenodd;fill:#FAAF37;}
	.st51{fill-rule:evenodd;clip-rule:evenodd;fill:#0BB4A1;}
	.st52{fill:#00A9CB;}
	.st53{fill:#79AA41;}
	.st54{fill:#CD8F2A;}
	.st55{fill:#0393B0;}
	.st56{fill:#E82F7B;}
	.st57{fill:#D7DF2A;}
	.st58{fill:#8DC443;}
	.st59{fill:#F0A422;}
	.st60{fill:#3A3A3B;}
	.st61{fill:#29AAE1;}
	.st62{fill:#E9246E;}
	.st63{fill:url(#SVGID_1_);}
	.st64{fill:#00EFFF;}
	.st65{fill-rule:evenodd;clip-rule:evenodd;fill:url(#SVGID_00000083785282238432712180000018234392730566450337_);}
	.st66{fill-rule:evenodd;clip-rule:evenodd;fill:url(#SVGID_00000060002180830179714280000011772608049334264455_);}
	.st67{fill-rule:evenodd;clip-rule:evenodd;fill:url(#SVGID_00000168814462089151401200000010103204145574526131_);}
	.st68{fill-rule:evenodd;clip-rule:evenodd;fill:url(#SVGID_00000162331880365079893740000016789954463312785575_);}
	.st69{fill-rule:evenodd;clip-rule:evenodd;fill:url(#SVGID_00000009562771505812601150000009274027440167210173_);}
	.st70{fill-rule:evenodd;clip-rule:evenodd;fill:url(#SVGID_00000118376606823642030020000004769817575575924619_);}
	.st71{fill-rule:evenodd;clip-rule:evenodd;fill:url(#SVGID_00000037670804134631055740000002993420169515223459_);}
	.st72{fill-rule:evenodd;clip-rule:evenodd;fill:url(#SVGID_00000044136071726512430670000002518937272952335756_);}
	.st73{fill-rule:evenodd;clip-rule:evenodd;fill:url(#SVGID_00000021117565503859197350000004864532019762602126_);}
	.st74{fill:url(#SVGID_00000119829291454450291250000000798867347076190133_);}
	.st75{fill:#00889E;}
	.st76{fill:url(#SVGID_00000029754730477620825480000014828345460437064840_);}
	.st77{fill:url(#SVGID_00000130605465648779001200000002758493080924617105_);}
	.st78{fill:url(#SVGID_00000002359533815505095500000007526351867542368410_);}
	.st79{fill:#009AFF;}
	.st80{fill:url(#SVGID_00000147940763769049741770000007237668309902005147_);}
	.st81{fill:url(#SVGID_00000078032844182953014140000009729588032890310553_);}
	.st82{fill:#EF1A24;}
	.st83{fill:url(#SVGID_00000085242893732074277690000010148841464687032480_);}
	.st84{fill:url(#SVGID_00000178889899565689520740000017215830130822140837_);}
	.st85{fill-rule:evenodd;clip-rule:evenodd;fill:#1B2E7A;}
	.st86{fill-rule:evenodd;clip-rule:evenodd;fill:#FFFFFF;}
	.st87{fill-rule:evenodd;clip-rule:evenodd;fill:#FF004D;}
	.st88{fill:#1B2E7A;}
	.st89{fill-rule:evenodd;clip-rule:evenodd;fill:#FFD373;}
	.st90{fill-rule:evenodd;clip-rule:evenodd;fill:#EDB337;}
	.st91{fill-rule:evenodd;clip-rule:evenodd;fill:#FFEDB0;}
	.st92{fill:url(#SVGID_00000009581683879628893350000003378070737964275604_);}
	.st93{fill:#A25F00;}
	.st94{fill:#1B5302;}
	.st95{fill:#00AEEF;}
	.st96{fill:#ED1966;}
	.st97{fill:url(#SVGID_00000041275521879948239510000011717148677955328180_);}
	.st98{fill:url(#SVGID_00000044144699833808664400000002985938626107783063_);}
	.st99{fill:#79BACC;}
	.st100{fill:#E8E3D8;}
	.st101{fill:#F2B220;}
	.st102{fill:url(#SVGID_00000168830403701777957210000013635201356121831852_);}
	.st103{fill:url(#SVGID_00000114055595008272263530000002694359549786354869_);}
	.st104{fill:url(#SVGID_00000060747636345562664790000002130366609966098562_);}
	.st105{fill:url(#SVGID_00000181789355119465486980000007625643278376219278_);}
	.st106{fill:url(#SVGID_00000146459383939569058450000012266867768508953744_);}
	.st107{fill:url(#SVGID_00000075159465029875439280000007630808644928721301_);}
	.st108{fill:url(#SVGID_00000017484276429026443620000014761828157887592380_);}
	.st109{fill:#9B85BE;}
	.st110{fill:#776599;}
	.st111{fill:#FD3861;}
	.st112{fill:#C42244;}
	.st113{fill:#009FE2;}
	.st114{fill:#30B17B;}
	.st115{fill:#FF7D9C;}
	.st116{fill:#9ACA3D;}
	.st117{fill:#856DB5;}
	.st118{fill:url(#SVGID_00000047739924481105402650000002046300194489262527_);}
	.st119{fill:#0075B0;}
	.st120{fill:#CDE250;}
	.st121{fill:#7DDDFF;}
	.st122{fill:#B9EA81;}
	.st123{fill:#FF7D87;}
	.st124{fill-rule:evenodd;clip-rule:evenodd;fill:#FFC60B;}
	.st125{fill-rule:evenodd;clip-rule:evenodd;fill:#9ABE37;}
	.st126{fill-rule:evenodd;clip-rule:evenodd;fill:#74D7E2;}
	.st127{fill-rule:evenodd;clip-rule:evenodd;fill:#FF598A;}
	.st128{fill-rule:evenodd;clip-rule:evenodd;fill:#856DB5;}
	.st129{fill:#ED5681;}
	.st130{fill:#E5B189;}
	.st131{fill:#CE9976;}
	.st132{fill:#80DEFF;}
	.st133{fill:#61C7E2;}
	.st134{fill:#715BA5;}
	.st135{fill:#CCED56;}
	.st136{fill:#9ABE37;}
	.st137{fill:#7D9D2B;}
	.st138{fill:#F4C11E;}
	.st139{fill:#E19A00;}
	.st140{fill:#FFBE00;}
	.st141{fill:#C74D96;}
	.st142{fill:#F4A408;}
	.st143{fill:#00B0DD;}
	.st144{fill:#E62944;}
	.st145{fill:#553590;}
	.st146{fill:#035A31;}
	.st147{fill:#80BE26;}
	.st148{fill:#00549A;}
	.st149{fill:#844596;}
	.st150{fill:#009C42;}
	.st151{fill-rule:evenodd;clip-rule:evenodd;fill:#1F7099;}
	.st152{fill-rule:evenodd;clip-rule:evenodd;fill:#406FB5;}
	.st153{fill-rule:evenodd;clip-rule:evenodd;fill:#A418ED;}
	.st154{fill-rule:evenodd;clip-rule:evenodd;fill:#28834F;}
	.st155{fill-rule:evenodd;clip-rule:evenodd;fill:#1FEA75;}
	.st156{fill-rule:evenodd;clip-rule:evenodd;fill:#07A8A8;}
	.st157{fill-rule:evenodd;clip-rule:evenodd;fill:#25C9EF;}
	.st158{fill-rule:evenodd;clip-rule:evenodd;fill:#FF7D9C;}
	.st159{fill:#724329;}
	.st160{fill:#FFD766;}
	.st161{fill:#6ED9FF;}
	.st162{fill:#FFA9C2;}
	.st163{fill-rule:evenodd;clip-rule:evenodd;fill:url(#SVGID_00000061440545671708302180000008960001391010088383_);}
	.st164{fill-rule:evenodd;clip-rule:evenodd;fill:url(#SVGID_00000179634684445420225760000015987609034051737275_);}
	.st165{fill-rule:evenodd;clip-rule:evenodd;fill:url(#SVGID_00000173141785304914801220000009071708528713528479_);}
	.st166{fill-rule:evenodd;clip-rule:evenodd;fill:#2B61D8;}
	.st167{fill-rule:evenodd;clip-rule:evenodd;fill:#78E9FF;}
	.st168{fill-rule:evenodd;clip-rule:evenodd;fill:#844596;}
	.st169{fill-rule:evenodd;clip-rule:evenodd;fill:#A667FC;}
	.st170{fill-rule:evenodd;clip-rule:evenodd;fill:#379CC0;}
	.st171{fill-rule:evenodd;clip-rule:evenodd;fill:url(#SVGID_00000067935754825214328530000009570438428887916204_);}
	.st172{fill:#FF439D;}
	.st173{fill:#29ABE2;}
	.st174{fill:#AA3AAA;}
	.st175{fill:#78E9FF;}
	.st176{fill:#FFC60B;}
	.st177{fill:#A667FC;}
	.st178{fill-rule:evenodd;clip-rule:evenodd;fill:#CCED56;}
	.st179{fill-rule:evenodd;clip-rule:evenodd;fill:#776599;}
	.st180{fill-rule:evenodd;clip-rule:evenodd;fill:#80DEFF;}
	.st181{fill:#379CC0;}
	.st182{fill:#BAAE1C;}
	.st183{fill:#84BC7A;}
	.st184{fill:#916E00;}
	.st185{fill:#BCAD64;}
	.st186{fill:#D18D2A;}
	.st187{fill:#FFB278;}
	.st188{fill-rule:evenodd;clip-rule:evenodd;fill:#785EF7;}
	.st189{fill-rule:evenodd;clip-rule:evenodd;fill:#C2FF7B;}
	.st190{fill-rule:evenodd;clip-rule:evenodd;fill:#6F96EF;}
	.st191{fill-rule:evenodd;clip-rule:evenodd;fill:#E5B189;}
	.st192{fill-rule:evenodd;clip-rule:evenodd;fill:#72D392;}
	.st193{fill-rule:evenodd;clip-rule:evenodd;fill:#F9C55D;}
	.st194{fill-rule:evenodd;clip-rule:evenodd;fill:#61C165;}
	.st195{fill-rule:evenodd;clip-rule:evenodd;fill:#6786D3;}
	.st196{fill-rule:evenodd;clip-rule:evenodd;fill:#FCB1E3;}
	.st197{fill-rule:evenodd;clip-rule:evenodd;fill:#1CC1E4;}
	.st198{fill-rule:evenodd;clip-rule:evenodd;fill:#6D6DB2;}
	.st199{fill-rule:evenodd;clip-rule:evenodd;fill:#66A2AA;}
	.st200{fill-rule:evenodd;clip-rule:evenodd;fill:#D2FC86;}
	.st201{fill:#7FBC62;}
	.st202{fill:#442109;}
	.st203{fill:#60361A;}
	.st204{fill:#A08657;}
	.st205{fill:#FFCD5C;}
	.st206{fill:#7DA22E;}
	.st207{fill:#F9C941;}
	.st208{fill:#6AC6B4;}
	.st209{fill:#E2C159;}
	.st210{fill:#EF8550;}
</style>
<g id="Layer_1">
</g>
<g id="Layer_2">
</g>
<g id="Layer_3">
</g>
<g id="Layer_4">
</g>
<g id="Layer_5">
</g>
<g id="Layer_6">
</g>
<g id="Layer_7">
</g>
<g id="Layer_8">
</g>
<g id="Layer_9">
</g>
<g id="Layer_10">
</g>
<g id="Layer_11">
</g>
<g id="Layer_12">
</g>
<g id="Layer_13">
</g>
<g id="Layer_14">
</g>
<g id="Layer_15">
	<g>
		<path class="st128" d="M144.39,125.51c8.3,2.04,16.36,1.42,24.29-1.76c2.07-0.83,4.26-1.8,6.42-1.87
			c1.77-0.06,4.22,0.62,5.22,1.88c1.61,2.01-0.09,4.04-1.78,5.48c-3.77,3.2-8.17,5.05-13.05,5.78c-0.59,0.09-1.17,0.23-2.62,0.51
			c4.91,2.88,9.43,3.72,14.14,3.2c5.45-0.6,10.33-2.71,14.38-6.54c0.93-0.88,1.95-1.71,3.01-2.43c3.62-2.45,5.76-1.42,6.13,2.93
			c1.49-0.13,3.2-0.74,4.41-0.22c0.97,0.41,1.35,2.21,1.65,2.77c1.63,1.02,3.53,1.53,4.1,2.7c0.29,0.59,0.21,1.34-0.12,2.11
			c-3.48,2.76-7.35,5.15-11.59,7.16c-7.36,3.48-15.08,5.26-22.76,5.46c-2.82-0.15-5.82-0.32-8.87-0.48
			c-2.32-0.31-4.61-0.77-6.87-1.37c-0.01-0.01-0.03-0.02-0.04-0.02c-1.03-0.45-2.14-0.7-3.27-0.96c-6.07-2.01-11.86-5.08-17.11-9.13
			c-0.31-0.26-0.67-0.57-1.12-0.95c-8.77-7.35-15.01-16.42-18.35-27.43c-0.15-0.48-0.2-1-0.41-2.06
			C126.8,118.35,134.84,123.16,144.39,125.51z M231.67,95.78L175,39.11l-0.12,0.12l-7.94,7.94l-40.47,40.47l-8.14,8.14
			c-0.01,1.09,0.01,2.19,0.07,3.3c0.1,2.01,0.13,4.45,1.09,6.01L175,49.57l49.17,49.16l6.8,6.8
			C231.49,102.36,231.72,99.11,231.67,95.78z"/>
		<path class="st132" d="M201.71,90.35c0.56-1.17,2.11-1.73,2.11-1.73c-1.25-0.36-2.16-0.05-2.75,0.37
			c0.18-1.39-0.08-3.35-2.37-4.71c0,0,1.96,2.43,0.35,5.02c-1.34-0.39-2.76-0.6-4.22-0.6c-8.39,0-15.22,6.83-15.22,15.22
			c0,8.39,6.83,15.22,15.22,15.22c8.39,0,15.22-6.83,15.22-15.22C210.04,98,206.65,92.87,201.71,90.35z M194.82,117.11
			c-7.28,0-13.2-5.92-13.2-13.2c0-1.07,0.13-2.11,0.37-3.11c3.35-0.58,13.19-2.71,17.67-8.45c0,0,2.74,6.98,8.24,9.79
			c0.35,0.18,0.7,0.34,1.07,0.48c-0.37-0.14-0.73-0.3-1.07-0.48c0.08,0.58,0.12,1.17,0.12,1.77
			C208.02,111.19,202.1,117.11,194.82,117.11z M187.32,108.83h15.01c-0.61,1.9-3.74,6.33-7.5,6.33
			C191.06,115.16,187.93,110.73,187.32,108.83z M188.29,102.37c0-0.97,0.79-1.76,1.76-1.76c0.97,0,1.76,0.79,1.76,1.76
			c0,0.97-0.79,1.76-1.76,1.76C189.08,104.14,188.29,103.35,188.29,102.37z M197.83,102.37c0-0.97,0.79-1.76,1.76-1.76
			c0.97,0,1.76,0.79,1.76,1.76c0,0.97-0.79,1.76-1.76,1.76C198.62,104.14,197.83,103.35,197.83,102.37z"/>
		<path class="st158" d="M181.23,39.55c24.39,2.57,44.32,20.47,49.16,44.58c0.37,1.83,0.65,3.64,0.86,5.44l-9.45-9.45
			c-1.77-5.33-4.5-10.31-8.2-14.86c-6.25-7.68-14.15-13.12-22.76-16.1L181.23,39.55z M128.47,79.84c0.31-0.89,0.64-1.78,1.01-2.66
			c4.87-11.8,13.17-20.51,24.71-25.97c1.63-0.77,3.27-1.44,4.94-2.02l9.61-9.6c-0.98,0.11-1.96,0.23-2.95,0.39
			c-24.61,3.9-44.2,24.09-47.09,49.65L128.47,79.84z M223.58,103.95c-1.65,10.13-6.41,19.13-14.07,26.98
			c1.88,1.62,3.64,3.13,5.59,4.81c7.48-7.69,12.42-16.2,14.84-25.43L223.58,103.95z M174.03,65.65h-8.57v8.57h8.57V65.65z
			 M184.54,65.65h-8.57v8.57h8.57V65.65z M174.03,76.08h-8.57v8.57h8.57V76.08z M184.54,76.08h-8.57v8.57h8.57V76.08z
			 M181.18,103.91c0,8.39-6.83,15.22-15.22,15.22c-8.39,0-15.22-6.83-15.22-15.22c0-6.07,3.57-11.32,8.72-13.76
			c-1.94-3.51-5.99-1.44-6.73,2.59c-1.59,8.67-6.92,8.35-9.5,6.97c-3.03-1.62-3.26-3.98-3.26-3.98c1.77,1.73,5.63,1.01,5.39-3.42
			c-0.36-6.64,4.2-12.81,11.6-10.81c5.46,1.48,6.27,5.44,6.31,7.42c0.88-0.16,1.78-0.25,2.7-0.25
			C174.35,88.69,181.18,95.52,181.18,103.91z M178.67,100.39c0.41,0.35,0.81,0.73,1.19,1.14
			C179.49,101.12,179.09,100.73,178.67,100.39c-6.54-5.54-16.74-3.3-16.74-3.3l-0.68-3.08l-1,3.3c-4.31,0.52-6.2,1.97-6.93,2.77
			c-0.37,1.22-0.57,2.5-0.57,3.84c0,7.28,5.92,13.2,13.2,13.2c7.28,0,13.2-5.92,13.2-13.2
			C179.16,102.69,178.99,101.51,178.67,100.39z M165.96,115.16c3.77,0,6.89-4.43,7.5-6.33h-15.01
			C159.06,110.73,162.19,115.16,165.96,115.16z M161.26,104.14c0.97,0,1.76-0.79,1.76-1.76c0-0.97-0.79-1.76-1.76-1.76
			c-0.97,0-1.76,0.79-1.76,1.76C159.49,103.35,160.28,104.14,161.26,104.14z M170.8,104.14c0.97,0,1.76-0.79,1.76-1.76
			c0-0.97-0.79-1.76-1.76-1.76c-0.97,0-1.76,0.79-1.76,1.76C169.03,103.35,169.82,104.14,170.8,104.14z"/>
	</g>
</g>
</svg>
