<?xml version="1.0" encoding="utf-8"?>
<!-- Generator: Adobe Illustrator 27.8.1, SVG Export Plug-In . SVG Version: 6.00 Build 0)  -->
<svg version="1.1" xmlns="http://www.w3.org/2000/svg" xmlns:xlink="http://www.w3.org/1999/xlink" x="0px" y="0px"
	 viewBox="0 0 350 230" style="enable-background:new 0 0 350 230;" xml:space="preserve">
<style type="text/css">
	.st0{fill:#FFFDB8;}
	.st1{fill:#FFF4C5;}
	.st2{fill:#F1FFCC;}
	.st3{fill:#FFF9CF;}
	.st4{fill:#5B0034;}
	.st5{fill:#FEFFCF;}
	.st6{fill:#FFFFFF;}
	.st7{fill:#FCBEF3;}
	.st8{fill:#007769;}
	.st9{fill:#990000;}
	.st10{fill:#EE388C;}
	.st11{fill:#4862AD;}
	.st12{fill:#EE4B9B;}
	.st13{fill:#FAEE35;}
	.st14{fill:#01A79D;}
	.st15{fill:#8FC640;}
	.st16{fill:#EC2227;}
	.st17{fill:#E7BD20;}
	.st18{fill:#DC8927;}
	.st19{fill:#2F99D5;}
	.st20{fill:#663366;}
	.st21{fill:#FFC907;}
	.st22{fill:#4B83C3;}
	.st23{fill:#F0535B;}
	.st24{fill:#A92990;}
	.st25{fill:#E16E25;}
	.st26{fill:#426CB4;}
	.st27{fill:#E9292B;}
	.st28{fill:#0F77B7;}
	.st29{fill:#EF4A6C;}
	.st30{fill:#65C5B3;}
	.st31{fill:#965724;}
	.st32{fill:#F1A422;}
	.st33{fill:#18479E;}
	.st34{fill:#64C5B2;}
	.st35{fill:#FAE072;}
	.st36{fill:#EF496E;}
	.st37{fill:#231F20;}
	.st38{fill-rule:evenodd;clip-rule:evenodd;fill:#5C493A;}
	.st39{fill-rule:evenodd;clip-rule:evenodd;fill:#F26767;}
	.st40{fill-rule:evenodd;clip-rule:evenodd;fill:#87C443;}
	.st41{fill-rule:evenodd;clip-rule:evenodd;fill:#EE3E96;}
	.st42{fill-rule:evenodd;clip-rule:evenodd;fill:#2195D2;}
	.st43{fill-rule:evenodd;clip-rule:evenodd;fill:#FFCD05;}
	.st44{fill-rule:evenodd;clip-rule:evenodd;fill:#83C341;}
	.st45{fill-rule:evenodd;clip-rule:evenodd;fill:#0F77B7;}
	.st46{fill-rule:evenodd;clip-rule:evenodd;fill:#ED8D36;}
	.st47{fill-rule:evenodd;clip-rule:evenodd;fill:#3CA356;}
	.st48{fill-rule:evenodd;clip-rule:evenodd;fill:#7F4A25;}
	.st49{fill-rule:evenodd;clip-rule:evenodd;fill:#A3B539;}
	.st50{fill-rule:evenodd;clip-rule:evenodd;fill:#FAAF37;}
	.st51{fill-rule:evenodd;clip-rule:evenodd;fill:#0BB4A1;}
	.st52{fill:#00A9CB;}
	.st53{fill:#79AA41;}
	.st54{fill:#CD8F2A;}
	.st55{fill:#0393B0;}
	.st56{fill:#E82F7B;}
	.st57{fill:#D7DF2A;}
	.st58{fill:#8DC443;}
	.st59{fill:#F0A422;}
	.st60{fill:#3A3A3B;}
	.st61{fill:#29AAE1;}
	.st62{fill:#E9246E;}
	.st63{fill:url(#SVGID_1_);}
	.st64{fill:#00EFFF;}
	.st65{fill-rule:evenodd;clip-rule:evenodd;fill:url(#SVGID_00000168828706178688366040000015456721464377266580_);}
	.st66{fill-rule:evenodd;clip-rule:evenodd;fill:url(#SVGID_00000034071758078133241700000001310360266588208039_);}
	.st67{fill-rule:evenodd;clip-rule:evenodd;fill:url(#SVGID_00000167383050180363439180000006669200063075881619_);}
	.st68{fill-rule:evenodd;clip-rule:evenodd;fill:url(#SVGID_00000091015334407936042740000015613011576160148392_);}
	.st69{fill-rule:evenodd;clip-rule:evenodd;fill:url(#SVGID_00000162336539335956444080000003961076309329912459_);}
	.st70{fill-rule:evenodd;clip-rule:evenodd;fill:url(#SVGID_00000130623582338870497270000013219508436172878775_);}
	.st71{fill-rule:evenodd;clip-rule:evenodd;fill:url(#SVGID_00000066505741590443967620000011724769389349891510_);}
	.st72{fill-rule:evenodd;clip-rule:evenodd;fill:url(#SVGID_00000036215695436762587480000007756169256305974975_);}
	.st73{fill-rule:evenodd;clip-rule:evenodd;fill:url(#SVGID_00000103265332951573723070000017465915727720339873_);}
	.st74{fill:url(#SVGID_00000085243545261244141940000018162797256546361533_);}
	.st75{fill:#00889E;}
	.st76{fill:url(#SVGID_00000020396476167677860910000014703734270336067516_);}
	.st77{fill:url(#SVGID_00000085957253726314137140000008525070014332829576_);}
	.st78{fill:url(#SVGID_00000010285618958767584000000011913838480549319859_);}
	.st79{fill:#009AFF;}
	.st80{fill:url(#SVGID_00000030477029659658951640000002966046513872670135_);}
	.st81{fill:url(#SVGID_00000112591764847731605560000004383640613602990733_);}
	.st82{fill:#EF1A24;}
	.st83{fill:url(#SVGID_00000095309362166623414920000008987434733794742661_);}
	.st84{fill:url(#SVGID_00000044147030193033038520000007677269678198178718_);}
	.st85{fill-rule:evenodd;clip-rule:evenodd;fill:#1B2E7A;}
	.st86{fill-rule:evenodd;clip-rule:evenodd;fill:#FFFFFF;}
	.st87{fill-rule:evenodd;clip-rule:evenodd;fill:#FF004D;}
	.st88{fill:#1B2E7A;}
	.st89{fill-rule:evenodd;clip-rule:evenodd;fill:#FFD373;}
	.st90{fill-rule:evenodd;clip-rule:evenodd;fill:#EDB337;}
	.st91{fill-rule:evenodd;clip-rule:evenodd;fill:#FFEDB0;}
	.st92{fill:url(#SVGID_00000090261231207690766330000010241496256052438912_);}
	.st93{fill:#A25F00;}
	.st94{fill:#1B5302;}
	.st95{fill:#00AEEF;}
	.st96{fill:#ED1966;}
	.st97{fill:url(#SVGID_00000124158768216531713540000012460054606656763047_);}
	.st98{fill:url(#SVGID_00000183212964542154193440000015548620403523031190_);}
	.st99{fill:#79BACC;}
	.st100{fill:#E8E3D8;}
	.st101{fill:#F2B220;}
	.st102{fill:url(#SVGID_00000122682122298741065290000012198454944963431823_);}
	.st103{fill:url(#SVGID_00000129169373279045306090000013532169202605801650_);}
	.st104{fill:url(#SVGID_00000102540171763382104870000004699365463504748942_);}
	.st105{fill:url(#SVGID_00000127739246166423699650000014440031134048614327_);}
	.st106{fill:url(#SVGID_00000176740054939717745680000001667772886600817815_);}
	.st107{fill:url(#SVGID_00000078746402700488565190000016360075121348506284_);}
	.st108{fill:url(#SVGID_00000033334204390744068370000005487897401696265097_);}
	.st109{fill:#9B85BE;}
	.st110{fill:#776599;}
	.st111{fill:#FD3861;}
	.st112{fill:#C42244;}
	.st113{fill:#009FE2;}
	.st114{fill:#30B17B;}
	.st115{fill:#FF7D9C;}
	.st116{fill:#9ACA3D;}
	.st117{fill:#856DB5;}
	.st118{fill:url(#SVGID_00000114767991170768212220000015629018476618549398_);}
	.st119{fill:#0075B0;}
	.st120{fill:#CDE250;}
	.st121{fill:#7DDDFF;}
	.st122{fill:#B9EA81;}
	.st123{fill:#FF7D87;}
	.st124{fill-rule:evenodd;clip-rule:evenodd;fill:#FFC60B;}
	.st125{fill-rule:evenodd;clip-rule:evenodd;fill:#9ABE37;}
	.st126{fill-rule:evenodd;clip-rule:evenodd;fill:#74D7E2;}
	.st127{fill-rule:evenodd;clip-rule:evenodd;fill:#FF598A;}
	.st128{fill-rule:evenodd;clip-rule:evenodd;fill:#856DB5;}
	.st129{fill:#ED5681;}
	.st130{fill:#E5B189;}
	.st131{fill:#CE9976;}
	.st132{fill:#80DEFF;}
	.st133{fill:#61C7E2;}
	.st134{fill:#715BA5;}
	.st135{fill:#CCED56;}
	.st136{fill:#9ABE37;}
	.st137{fill:#7D9D2B;}
	.st138{fill:#F4C11E;}
	.st139{fill:#E19A00;}
	.st140{fill:#FFBE00;}
	.st141{fill:#C74D96;}
	.st142{fill:#F4A408;}
	.st143{fill:#00B0DD;}
	.st144{fill:#E62944;}
	.st145{fill:#553590;}
	.st146{fill:#035A31;}
	.st147{fill:#80BE26;}
	.st148{fill:#00549A;}
	.st149{fill:#844596;}
	.st150{fill:#009C42;}
	.st151{fill-rule:evenodd;clip-rule:evenodd;fill:#1F7099;}
	.st152{fill-rule:evenodd;clip-rule:evenodd;fill:#406FB5;}
	.st153{fill-rule:evenodd;clip-rule:evenodd;fill:#A418ED;}
	.st154{fill-rule:evenodd;clip-rule:evenodd;fill:#28834F;}
	.st155{fill-rule:evenodd;clip-rule:evenodd;fill:#1FEA75;}
	.st156{fill-rule:evenodd;clip-rule:evenodd;fill:#07A8A8;}
	.st157{fill-rule:evenodd;clip-rule:evenodd;fill:#25C9EF;}
	.st158{fill-rule:evenodd;clip-rule:evenodd;fill:#FF7D9C;}
	.st159{fill:#724329;}
	.st160{fill:#FFD766;}
	.st161{fill:#6ED9FF;}
	.st162{fill:#FFA9C2;}
	.st163{fill-rule:evenodd;clip-rule:evenodd;fill:url(#SVGID_00000073688529486445872360000010091117701357889941_);}
	.st164{fill-rule:evenodd;clip-rule:evenodd;fill:url(#SVGID_00000030458023735826754930000006113508907132653455_);}
	.st165{fill-rule:evenodd;clip-rule:evenodd;fill:url(#SVGID_00000010301427038324218090000002551914543200099761_);}
	.st166{fill-rule:evenodd;clip-rule:evenodd;fill:#2B61D8;}
	.st167{fill-rule:evenodd;clip-rule:evenodd;fill:#78E9FF;}
	.st168{fill-rule:evenodd;clip-rule:evenodd;fill:#844596;}
	.st169{fill-rule:evenodd;clip-rule:evenodd;fill:#A667FC;}
	.st170{fill-rule:evenodd;clip-rule:evenodd;fill:#379CC0;}
	.st171{fill-rule:evenodd;clip-rule:evenodd;fill:url(#SVGID_00000108267714601141635100000002490540799166622891_);}
	.st172{fill:#FF439D;}
	.st173{fill:#29ABE2;}
	.st174{fill:#AA3AAA;}
	.st175{fill:#78E9FF;}
	.st176{fill:#FFC60B;}
	.st177{fill:#A667FC;}
	.st178{fill-rule:evenodd;clip-rule:evenodd;fill:#CCED56;}
	.st179{fill-rule:evenodd;clip-rule:evenodd;fill:#776599;}
	.st180{fill-rule:evenodd;clip-rule:evenodd;fill:#80DEFF;}
	.st181{fill:#379CC0;}
	.st182{fill:#BAAE1C;}
	.st183{fill:#84BC7A;}
	.st184{fill:#916E00;}
	.st185{fill:#BCAD64;}
	.st186{fill:#D18D2A;}
	.st187{fill:#FFB278;}
	.st188{fill-rule:evenodd;clip-rule:evenodd;fill:#785EF7;}
	.st189{fill-rule:evenodd;clip-rule:evenodd;fill:#C2FF7B;}
	.st190{fill-rule:evenodd;clip-rule:evenodd;fill:#6F96EF;}
	.st191{fill-rule:evenodd;clip-rule:evenodd;fill:#E5B189;}
	.st192{fill-rule:evenodd;clip-rule:evenodd;fill:#72D392;}
	.st193{fill-rule:evenodd;clip-rule:evenodd;fill:#F9C55D;}
	.st194{fill-rule:evenodd;clip-rule:evenodd;fill:#61C165;}
	.st195{fill-rule:evenodd;clip-rule:evenodd;fill:#6786D3;}
	.st196{fill-rule:evenodd;clip-rule:evenodd;fill:#FCB1E3;}
	.st197{fill-rule:evenodd;clip-rule:evenodd;fill:#1CC1E4;}
	.st198{fill-rule:evenodd;clip-rule:evenodd;fill:#6D6DB2;}
	.st199{fill-rule:evenodd;clip-rule:evenodd;fill:#66A2AA;}
	.st200{fill-rule:evenodd;clip-rule:evenodd;fill:#D2FC86;}
	.st201{fill:#7FBC62;}
	.st202{fill:#442109;}
	.st203{fill:#60361A;}
	.st204{fill:#A08657;}
	.st205{fill:#FFCD5C;}
	.st206{fill:#7DA22E;}
	.st207{fill:#F9C941;}
	.st208{fill:#6AC6B4;}
	.st209{fill:#E2C159;}
	.st210{fill:#EF8550;}
</style>
<g id="Layer_1">
</g>
<g id="Layer_2">
</g>
<g id="Layer_3">
</g>
<g id="Layer_4">
</g>
<g id="Layer_5">
</g>
<g id="Layer_6">
</g>
<g id="Layer_7">
</g>
<g id="Layer_8">
</g>
<g id="Layer_9">
</g>
<g id="Layer_10">
</g>
<g id="Layer_11">
</g>
<g id="Layer_12">
</g>
<g id="Layer_13">
</g>
<g id="Layer_14">
</g>
<g id="Layer_15">
	<g>
		<path class="st132" d="M170.94,96.36c-0.23-2.36,1.5-4.46,3.85-4.69s4.46,1.5,4.69,3.85c0.23,2.36-1.5,4.46-3.85,4.69
			C173.26,100.44,171.17,98.71,170.94,96.36z M191.29,65.43c5.76,2.8,12.71,0.4,15.51-5.37c2.8-5.76,0.4-12.71-5.37-15.51
			c-5.76-2.8-12.71-0.4-15.51,5.37C183.12,55.69,185.52,62.63,191.29,65.43z M224.77,68.23c-0.81-0.06-1.94-0.04-1.94-0.04
			s2.17-0.76,3.06-1.25c0.89-0.49,0.31-1.26-0.48-1.13c-0.78,0.13-2.91,0.67-2.91,0.67s2.67-1.67,3.37-2.31
			c0.7-0.64,0.15-1.74-0.97-1.17c-1.11,0.56-3.67,1.86-3.67,1.86s1.94-1.49,2.86-2.51c0.92-1.01-0.16-1.77-0.97-1.24
			c-0.81,0.52-3.57,2.8-3.57,2.8c1.12-1.54,0.45-2.56-0.17-2.34c-0.61,0.22-1.57,2.98-2.98,3.63c-4.13,0.8-8.25,1.61-12.38,2.41
			c-2.33,0.45-4.58,1.33-6.95,1.52c-3.41,0.28-7.06-0.51-9.63-2.86c-2.28-2.08-3.49-5.02-4.46-7.88c-1.11-3.27-2.34-6.5-3.53-9.74
			c-0.47-1.29-0.95-2.58-1.42-3.87c-0.23-1.54,1.57-3.85,1.41-4.48c-0.15-0.63-1.37-0.64-2.05,1.14c0,0,0.39-3.56,0.39-4.52
			c0-0.96-1.22-1.45-1.57-0.13c-0.35,1.32-0.54,3.76-0.54,3.76s-0.32-2.85-0.45-4.09c-0.14-1.25-1.36-1.11-1.51-0.18
			c-0.15,0.94-0.1,4.08-0.1,4.08s-0.71-2.08-1.03-2.8c-0.32-0.73-1.28-0.8-1.21,0.22c0.07,1.02,0.62,3.25,0.62,3.25
			s-0.6-0.96-1.09-1.6c-0.53-0.68-1.1-0.38-0.93,0.35c0.17,0.73,1.09,3.98,1.52,6.65l3.22,34.81c0.76,6.52,7.89,10.18,13.63,7
			l30.05-16.61c0.06-0.02,0.12-0.04,0.19-0.07c2.47-1.1,5.7-2.1,6.4-2.36C225.69,68.94,225.64,68.3,224.77,68.23z"/>
		<path class="st135" d="M222.73,93.37c6.11,1,10.25,6.75,9.25,12.86c-1,6.11-6.75,10.25-12.86,9.25c-6.11-1-10.25-6.75-9.25-12.86
			C210.86,96.52,216.62,92.38,222.73,93.37z M216.55,134.38c-0.17-0.77-0.5-1.8-0.5-1.8s1.3,1.79,2.01,2.48
			c0.7,0.69,1.26-0.06,0.91-0.75c-0.34-0.69-1.42-2.51-1.42-2.51s2.28,2.01,3.07,2.48s1.65-0.34,0.81-1.22
			c-0.83-0.87-2.73-2.88-2.73-2.88s1.92,1.38,3.11,1.95c1.19,0.57,1.59-0.63,0.88-1.24c-0.71-0.6-3.58-2.53-3.58-2.53
			c1.74,0.61,2.49-0.29,2.12-0.8c-0.37-0.51-3.19-0.62-4.19-1.75c-1.89-3.59-3.77-7.19-5.66-10.78c-1.06-2.03-2.5-3.87-3.33-6.01
			c-1.2-3.08-1.48-6.67-0.02-9.7c1.3-2.69,3.67-4.62,6.06-6.31c2.72-1.93,5.36-3.97,8.03-5.96c1.06-0.79,2.12-1.59,3.19-2.38
			c1.37-0.64,3.99,0.38,4.54,0.07c0.55-0.32,0.22-1.45-1.62-1.58c0,0,3.4-0.62,4.29-0.89c0.89-0.27,1.01-1.53-0.31-1.49
			c-1.32,0.05-3.63,0.54-3.63,0.54s2.55-1.08,3.65-1.55c1.12-0.47,0.66-1.56-0.25-1.45c-0.91,0.12-3.8,1.04-3.8,1.04
			s1.72-1.24,2.31-1.73c0.59-0.5,0.38-1.41-0.54-1.06c-0.92,0.35-2.83,1.47-2.83,1.47s0.72-0.82,1.18-1.45
			c0.49-0.68,0.05-1.12-0.58-0.77c-0.63,0.36-3.38,2.11-5.73,3.25l-31.31,12.61c-5.82,2.51-7.23,10.11-2.71,14.55l23.68,23.2
			c0.03,0.05,0.07,0.1,0.11,0.15c1.7,1.98,3.52,4.69,3.96,5.27C216.15,135.43,216.73,135.19,216.55,134.38z"/>
		<path class="st130" d="M151.04,45.64l-0.7,1.58c-0.05,0.12-0.05,0.27,0.02,0.39l0.82,1.51c0.2,0.37-0.18,0.78-0.57,0.61l-1.58-0.7
			c-0.12-0.06-0.27-0.05-0.39,0.02l-1.51,0.82c-0.37,0.2-0.78-0.18-0.61-0.57l0.7-1.58c0.06-0.12,0.05-0.27-0.02-0.39l-0.82-1.51
			c-0.2-0.37,0.18-0.78,0.57-0.61l1.58,0.7c0.12,0.06,0.27,0.05,0.39-0.02l1.51-0.82C150.8,44.87,151.21,45.25,151.04,45.64z
			 M213.71,45.8l-0.91,1.09c-0.07,0.09-0.18,0.13-0.29,0.13l-1.42-0.05c-0.35-0.01-0.51,0.42-0.25,0.64l1.09,0.91
			c0.09,0.07,0.13,0.18,0.13,0.29l-0.05,1.42c-0.01,0.35,0.42,0.51,0.64,0.25l0.91-1.09c0.07-0.09,0.18-0.13,0.29-0.13l1.42,0.05
			c0.35,0.01,0.51-0.42,0.25-0.64l-1.09-0.91c-0.09-0.07-0.13-0.18-0.13-0.29l0.05-1.42C214.37,45.7,213.93,45.54,213.71,45.8z
			 M197.6,143.27l0.01,1.42c0,0.11-0.05,0.22-0.14,0.29l-1.11,0.88c-0.27,0.21-0.12,0.65,0.23,0.65l1.42-0.01
			c0.11,0,0.22,0.05,0.29,0.14l0.88,1.11c0.21,0.27,0.65,0.12,0.65-0.23l-0.01-1.42c0-0.11,0.05-0.22,0.14-0.29l1.11-0.88
			c0.27-0.21,0.12-0.65-0.23-0.65l-1.42,0.01c-0.11,0-0.22-0.05-0.29-0.14l-0.88-1.11C198.03,142.77,197.6,142.93,197.6,143.27z
			 M230.82,88.25l-0.27,1.39c-0.02,0.11-0.09,0.2-0.19,0.25l-1.27,0.64c-0.31,0.16-0.25,0.61,0.09,0.68l1.39,0.27
			c0.11,0.02,0.2,0.09,0.25,0.19l0.64,1.27c0.16,0.31,0.61,0.25,0.68-0.09l0.27-1.39c0.02-0.11,0.09-0.2,0.19-0.25l1.27-0.64
			c0.31-0.16,0.25-0.61-0.09-0.68l-1.39-0.27c-0.11-0.02-0.2-0.09-0.25-0.19l-0.64-1.27C231.35,87.85,230.89,87.91,230.82,88.25z
			 M123.44,101.63l-1.4,0.25c-0.11,0.02-0.22-0.01-0.31-0.09l-1.06-0.95c-0.26-0.23-0.66-0.01-0.6,0.34l0.25,1.4
			c0.02,0.11-0.01,0.22-0.09,0.31l-0.95,1.06c-0.23,0.26-0.01,0.66,0.34,0.6l1.4-0.25c0.11-0.02,0.22,0.01,0.31,0.09l1.06,0.95
			c0.26,0.23,0.66,0.01,0.6-0.34l-0.25-1.4c-0.02-0.11,0.01-0.22,0.09-0.31l0.95-1.06C124,101.97,123.78,101.57,123.44,101.63z
			 M217.29,52l-1.29,1.55c-0.1,0.12-0.26,0.19-0.42,0.19l-2.02-0.07c-0.49-0.02-0.73,0.6-0.35,0.91l1.55,1.29
			c0.12,0.1,0.19,0.26,0.19,0.42l-0.07,2.02c-0.02,0.49,0.6,0.73,0.91,0.35l1.29-1.55c0.1-0.12,0.26-0.19,0.42-0.19l2.02,0.07
			c0.49,0.02,0.73-0.6,0.35-0.91l-1.55-1.29c-0.12-0.1-0.19-0.26-0.19-0.42l0.07-2.02C218.22,51.86,217.6,51.62,217.29,52z
			 M193.39,147.89l0.02,2.02c0,0.16-0.07,0.31-0.2,0.41l-1.59,1.25c-0.39,0.31-0.17,0.93,0.33,0.92l2.02-0.02
			c0.16,0,0.31,0.07,0.41,0.2l1.25,1.59c0.31,0.39,0.93,0.17,0.92-0.33l-0.02-2.02c0-0.16,0.07-0.31,0.2-0.41l1.59-1.25
			c0.39-0.31,0.17-0.93-0.33-0.92l-2.02,0.02c-0.16,0-0.31-0.07-0.41-0.2l-1.25-1.59C194.01,147.18,193.39,147.4,193.39,147.89z
			 M121.95,107.58l-1.99,0.36c-0.16,0.03-0.32-0.02-0.44-0.12l-1.5-1.35c-0.37-0.33-0.94-0.01-0.85,0.48l0.36,1.99
			c0.03,0.16-0.02,0.32-0.12,0.44l-1.35,1.5c-0.33,0.37-0.01,0.94,0.48,0.85l1.99-0.36c0.16-0.03,0.32,0.02,0.44,0.12l1.5,1.35
			c0.37,0.33,0.94,0.01,0.85-0.48l-0.36-1.99c-0.03-0.16,0.02-0.32,0.12-0.44l1.35-1.5C122.76,108.07,122.44,107.49,121.95,107.58z
			 M167.24,87.28 M179.6,129.74c-6.07,0.87-10.29,6.49-9.43,12.56s6.49,10.29,12.56,9.43s10.29-6.49,9.43-12.56
			C191.3,133.09,185.67,128.87,179.6,129.74z M151.54,145.45c0.68-0.38,1.56-1.01,1.56-1.01s-1.31,1.76-1.75,2.63
			c-0.44,0.87,0.43,1.17,0.98,0.64c0.55-0.52,1.95-2.09,1.95-2.09s-1.22,2.75-1.43,3.64c-0.21,0.88,0.81,1.46,1.4,0.41
			c0.58-1.04,1.92-3.44,1.92-3.44s-0.74,2.22-0.92,3.52c-0.19,1.3,1.07,1.32,1.43,0.47c0.36-0.85,1.34-4.14,1.34-4.14
			c-0.06,1.82,1.01,2.27,1.38,1.77c0.37-0.5-0.35-3.2,0.42-4.48c2.84-2.85,5.68-5.69,8.53-8.54c1.6-1.61,2.92-3.51,4.7-4.93
			c2.56-2.05,5.87-3.38,9.18-2.89c2.92,0.43,5.46,2.11,7.76,3.86c2.63,2,5.34,3.9,8.02,5.83c1.07,0.77,2.13,1.54,3.2,2.31
			c1.01,1.1,0.82,3.89,1.28,4.31c0.46,0.42,1.43-0.22,1.02-2c0,0,1.59,3.04,2.11,3.8c0.52,0.76,1.75,0.5,1.31-0.74
			c-0.43-1.24-1.59-3.27-1.59-3.27s1.78,2.09,2.54,3c0.78,0.92,1.67,0.16,1.29-0.67c-0.38-0.83-2.11-3.29-2.11-3.29
			s1.68,1.26,2.32,1.67c0.65,0.41,1.44-0.05,0.84-0.82c-0.6-0.77-2.23-2.24-2.23-2.24s0.99,0.44,1.72,0.68
			c0.79,0.26,1.08-0.29,0.55-0.78c-0.53-0.49-3-2.57-4.77-4.46l-21.2-25.89c-4.1-4.76-11.71-3.85-14.57,1.74l-14.95,29.27
			c-0.04,0.05-0.08,0.09-0.11,0.15c-1.37,2.2-3.39,4.72-3.81,5.3C150.42,145.38,150.82,145.86,151.54,145.45z"/>
		<g>
			<path class="st117" d="M145.33,110.41c-3.05-5.32-9.84-7.16-15.16-4.11c-5.32,3.05-7.16,9.84-4.11,15.16
				c3.05,5.32,9.84,7.16,15.16,4.11C146.54,122.52,148.38,115.74,145.33,110.41z"/>
			<path class="st117" d="M120.34,90.16c0.61,0.49,1.51,1.08,1.51,1.08s-2.12-0.57-3.1-0.66c-0.97-0.09-0.93,0.83-0.23,1.15
				c0.69,0.32,2.66,1.04,2.66,1.04s-3.01-0.12-3.91,0.01c-0.9,0.13-1.06,1.3,0.14,1.45c1.18,0.15,3.9,0.51,3.9,0.51
				s-2.34,0.14-3.61,0.44c-1.27,0.31-0.83,1.48,0.09,1.5c0.92,0.02,4.34-0.29,4.34-0.29c-1.72,0.62-1.73,1.78-1.13,1.94
				c0.6,0.16,2.84-1.51,4.32-1.27c3.7,1.59,7.39,3.17,11.09,4.76c2.08,0.89,4.34,1.42,6.32,2.54c2.85,1.62,5.31,4.2,6.08,7.46
				c0.68,2.88,0.06,5.85-0.72,8.64c-0.89,3.18-1.65,6.4-2.45,9.61c-0.32,1.28-0.64,2.55-0.96,3.83c-0.65,1.34-3.31,2.2-3.53,2.79
				c-0.22,0.58,0.74,1.25,2.23,0.2c0,0-2.23,2.6-2.75,3.37s0.18,1.81,1.17,0.95c0.99-0.86,2.45-2.69,2.45-2.69s-1.29,2.43-1.85,3.47
				c-0.57,1.06,0.47,1.61,1.1,0.95c0.63-0.66,2.28-3.18,2.28-3.18s-0.55,2.03-0.69,2.77c-0.14,0.75,0.58,1.32,1.07,0.48
				c0.49-0.85,1.26-2.9,1.26-2.9s-0.04,1.08,0,1.85c0.05,0.83,0.66,0.9,0.93,0.22c0.26-0.67,1.28-3.74,2.38-6.08l16.22-29.27
				c2.91-5.57-0.76-12.3-7.01-12.89l-32.73-3.06c-0.06-0.02-0.12-0.04-0.18-0.05c-2.55-0.46-5.64-1.41-6.34-1.58
				C120,89.1,119.7,89.64,120.34,90.16z"/>
		</g>
		<path class="st115" d="M135.77,73.63c-4.45-4.01-4.81-10.88-0.79-15.33c4.01-4.45,10.88-4.81,15.33-0.79
			c4.45,4.01,4.81,10.88,0.79,15.33C147.09,77.29,140.23,77.65,135.77,73.63z M162.32,43.47c-0.27,0.71-0.54,1.73-0.54,1.73
			s-0.12-2.14-0.33-3.07c-0.21-0.93-1.05-0.61-1.14,0.13c-0.08,0.74-0.16,2.79-0.16,2.79s-0.81-2.83-1.2-3.63
			c-0.39-0.8-1.53-0.59-1.3,0.57c0.22,1.14,0.71,3.78,0.71,3.78s-0.84-2.13-1.51-3.22c-0.67-1.09-1.63-0.32-1.37,0.54
			c0.26,0.86,1.59,3.94,1.59,3.94c-1.09-1.41-2.18-1.07-2.14-0.46c0.04,0.61,2.27,2.18,2.49,3.63c-0.35,3.92-0.7,7.83-1.05,11.75
			c-0.2,2.21,0,4.46-0.44,6.64c-0.64,3.14-2.29,6.21-5.08,7.91c-2.47,1.51-5.42,1.83-8.24,1.96c-3.22,0.15-6.45,0.42-9.67,0.64
			c-1.28,0.09-2.56,0.18-3.85,0.27c-1.45-0.2-3.05-2.41-3.66-2.44c-0.61-0.03-0.93,1.06,0.49,2.14c0,0-3.1-1.28-3.96-1.53
			c-0.87-0.25-1.62,0.72-0.52,1.37c1.1,0.66,3.24,1.46,3.24,1.46s-2.65-0.46-3.79-0.66c-1.16-0.2-1.35,0.93-0.55,1.31
			c0.8,0.38,3.65,1.15,3.65,1.15s-2.05,0.1-2.79,0.2c-0.74,0.1-1.05,0.94-0.12,1.14c0.93,0.2,3.08,0.29,3.08,0.29
			s-1.01,0.29-1.72,0.57c-0.75,0.3-0.63,0.89,0.07,0.93c0.7,0.04,3.86,0.05,6.37,0.36L161,91.84c6.05,1.01,11.2-4.45,9.84-10.43
			l-7.12-31.33c0-0.06,0-0.12-0.01-0.19c-0.35-2.51-0.41-5.67-0.46-6.37C163.2,42.83,162.61,42.71,162.32,43.47z"/>
	</g>
</g>
</svg>
