<?xml version="1.0" encoding="utf-8"?>
<!-- Generator: Adobe Illustrator 27.8.1, SVG Export Plug-In . SVG Version: 6.00 Build 0)  -->
<svg version="1.1" xmlns="http://www.w3.org/2000/svg" xmlns:xlink="http://www.w3.org/1999/xlink" x="0px" y="0px"
	 viewBox="0 0 350 230" style="enable-background:new 0 0 350 230;" xml:space="preserve">
<style type="text/css">
	.st0{fill:#FFFDB8;}
	.st1{fill:#FFF4C5;}
	.st2{fill:#F1FFCC;}
	.st3{fill:#FFF9CF;}
	.st4{fill:#5B0034;}
	.st5{fill:#FEFFCF;}
	.st6{fill:#FFFFFF;}
	.st7{fill:#FCBEF3;}
	.st8{fill:#007769;}
	.st9{fill:#990000;}
	.st10{fill:#EE388C;}
	.st11{fill:#4862AD;}
	.st12{fill:#EE4B9B;}
	.st13{fill:#FAEE35;}
	.st14{fill:#01A79D;}
	.st15{fill:#8FC640;}
	.st16{fill:#EC2227;}
	.st17{fill:#E7BD20;}
	.st18{fill:#DC8927;}
	.st19{fill:#2F99D5;}
	.st20{fill:#663366;}
	.st21{fill:#FFC907;}
	.st22{fill:#4B83C3;}
	.st23{fill:#F0535B;}
	.st24{fill:#A92990;}
	.st25{fill:#E16E25;}
	.st26{fill:#426CB4;}
	.st27{fill:#E9292B;}
	.st28{fill:#0F77B7;}
	.st29{fill:#EF4A6C;}
	.st30{fill:#65C5B3;}
	.st31{fill:#965724;}
	.st32{fill:#F1A422;}
	.st33{fill:#18479E;}
	.st34{fill:#64C5B2;}
	.st35{fill:#FAE072;}
	.st36{fill:#EF496E;}
	.st37{fill:#231F20;}
	.st38{fill-rule:evenodd;clip-rule:evenodd;fill:#5C493A;}
	.st39{fill-rule:evenodd;clip-rule:evenodd;fill:#F26767;}
	.st40{fill-rule:evenodd;clip-rule:evenodd;fill:#87C443;}
	.st41{fill-rule:evenodd;clip-rule:evenodd;fill:#EE3E96;}
	.st42{fill-rule:evenodd;clip-rule:evenodd;fill:#2195D2;}
	.st43{fill-rule:evenodd;clip-rule:evenodd;fill:#FFCD05;}
	.st44{fill-rule:evenodd;clip-rule:evenodd;fill:#83C341;}
	.st45{fill-rule:evenodd;clip-rule:evenodd;fill:#0F77B7;}
	.st46{fill-rule:evenodd;clip-rule:evenodd;fill:#ED8D36;}
	.st47{fill-rule:evenodd;clip-rule:evenodd;fill:#3CA356;}
	.st48{fill-rule:evenodd;clip-rule:evenodd;fill:#7F4A25;}
	.st49{fill-rule:evenodd;clip-rule:evenodd;fill:#A3B539;}
	.st50{fill-rule:evenodd;clip-rule:evenodd;fill:#FAAF37;}
	.st51{fill-rule:evenodd;clip-rule:evenodd;fill:#0BB4A1;}
	.st52{fill:#00A9CB;}
	.st53{fill:#79AA41;}
	.st54{fill:#CD8F2A;}
	.st55{fill:#0393B0;}
	.st56{fill:#E82F7B;}
	.st57{fill:#D7DF2A;}
	.st58{fill:#8DC443;}
	.st59{fill:#F0A422;}
	.st60{fill:#3A3A3B;}
	.st61{fill:#29AAE1;}
	.st62{fill:#E9246E;}
	.st63{fill:url(#SVGID_1_);}
	.st64{fill:#00EFFF;}
	.st65{fill-rule:evenodd;clip-rule:evenodd;fill:url(#SVGID_00000142871795295866556680000008533567105587637943_);}
	.st66{fill-rule:evenodd;clip-rule:evenodd;fill:url(#SVGID_00000125570995539927119180000005666207448873050782_);}
	.st67{fill-rule:evenodd;clip-rule:evenodd;fill:url(#SVGID_00000104694412179793125640000001632116604146287790_);}
	.st68{fill-rule:evenodd;clip-rule:evenodd;fill:url(#SVGID_00000067210909028171076410000009159419543334250384_);}
	.st69{fill-rule:evenodd;clip-rule:evenodd;fill:url(#SVGID_00000173142307880422810210000006820067725187326848_);}
	.st70{fill-rule:evenodd;clip-rule:evenodd;fill:url(#SVGID_00000112605834911129146510000003636179825764699051_);}
	.st71{fill-rule:evenodd;clip-rule:evenodd;fill:url(#SVGID_00000047746608992626660350000009690068384325041297_);}
	.st72{fill-rule:evenodd;clip-rule:evenodd;fill:url(#SVGID_00000093167743573922395740000001536803412829445547_);}
	.st73{fill-rule:evenodd;clip-rule:evenodd;fill:url(#SVGID_00000013890024099050966100000001218522950690072245_);}
	.st74{fill:url(#SVGID_00000085244837127846397410000016865205076371171739_);}
	.st75{fill:#00889E;}
	.st76{fill:url(#SVGID_00000013184330466094910310000003649854490732400518_);}
	.st77{fill:url(#SVGID_00000180338410648854210600000012530215703112930179_);}
	.st78{fill:url(#SVGID_00000152959645158766026910000012590821461199068835_);}
	.st79{fill:#009AFF;}
	.st80{fill:url(#SVGID_00000050632318011848849150000001493750673080090540_);}
	.st81{fill:url(#SVGID_00000112626155383046478070000001087328840270533052_);}
	.st82{fill:#EF1A24;}
	.st83{fill:url(#SVGID_00000182514312029313544730000007816283149835972488_);}
	.st84{fill:url(#SVGID_00000097484111074482715820000016538630816749333153_);}
	.st85{fill-rule:evenodd;clip-rule:evenodd;fill:#1B2E7A;}
	.st86{fill-rule:evenodd;clip-rule:evenodd;fill:#FFFFFF;}
	.st87{fill-rule:evenodd;clip-rule:evenodd;fill:#FF004D;}
	.st88{fill:#1B2E7A;}
	.st89{fill-rule:evenodd;clip-rule:evenodd;fill:#FFD373;}
	.st90{fill-rule:evenodd;clip-rule:evenodd;fill:#EDB337;}
	.st91{fill-rule:evenodd;clip-rule:evenodd;fill:#FFEDB0;}
	.st92{fill:url(#SVGID_00000106111281461259183030000002050092715535372473_);}
	.st93{fill:#A25F00;}
	.st94{fill:#1B5302;}
	.st95{fill:#00AEEF;}
	.st96{fill:#ED1966;}
	.st97{fill:url(#SVGID_00000121270711029137021930000002325657740574977959_);}
	.st98{fill:url(#SVGID_00000137825936132630757530000008525061780443168164_);}
	.st99{fill:#79BACC;}
	.st100{fill:#E8E3D8;}
	.st101{fill:#F2B220;}
	.st102{fill:url(#SVGID_00000051378863667991812340000007523232499977886857_);}
	.st103{fill:url(#SVGID_00000051354228096607517940000018058423249220017047_);}
	.st104{fill:url(#SVGID_00000072987460135504452830000011639027867029210773_);}
	.st105{fill:url(#SVGID_00000019666066748318656310000008540183436066068654_);}
	.st106{fill:url(#SVGID_00000025415754617306292330000009215120771867711381_);}
	.st107{fill:url(#SVGID_00000059993519232730276410000013737831456839996036_);}
	.st108{fill:url(#SVGID_00000137132153125819126850000009163046586819446151_);}
	.st109{fill:#9B85BE;}
	.st110{fill:#776599;}
	.st111{fill:#FD3861;}
	.st112{fill:#C42244;}
	.st113{fill:#009FE2;}
	.st114{fill:#30B17B;}
	.st115{fill:#FF7D9C;}
	.st116{fill:#9ACA3D;}
	.st117{fill:#856DB5;}
	.st118{fill:url(#SVGID_00000125592217271120395440000003428712504260902559_);}
	.st119{fill:#0075B0;}
	.st120{fill:#CDE250;}
	.st121{fill:#7DDDFF;}
	.st122{fill:#B9EA81;}
	.st123{fill:#FF7D87;}
	.st124{fill-rule:evenodd;clip-rule:evenodd;fill:#FFC60B;}
	.st125{fill-rule:evenodd;clip-rule:evenodd;fill:#9ABE37;}
	.st126{fill-rule:evenodd;clip-rule:evenodd;fill:#74D7E2;}
	.st127{fill-rule:evenodd;clip-rule:evenodd;fill:#FF598A;}
	.st128{fill-rule:evenodd;clip-rule:evenodd;fill:#856DB5;}
	.st129{fill:#ED5681;}
	.st130{fill:#E5B189;}
	.st131{fill:#CE9976;}
	.st132{fill:#80DEFF;}
	.st133{fill:#61C7E2;}
	.st134{fill:#715BA5;}
	.st135{fill:#CCED56;}
	.st136{fill:#9ABE37;}
	.st137{fill:#7D9D2B;}
	.st138{fill:#F4C11E;}
	.st139{fill:#E19A00;}
	.st140{fill:#FFBE00;}
	.st141{fill:#C74D96;}
	.st142{fill:#F4A408;}
	.st143{fill:#00B0DD;}
	.st144{fill:#E62944;}
	.st145{fill:#553590;}
	.st146{fill:#035A31;}
	.st147{fill:#80BE26;}
	.st148{fill:#00549A;}
	.st149{fill:#844596;}
	.st150{fill:#009C42;}
	.st151{fill-rule:evenodd;clip-rule:evenodd;fill:#1F7099;}
	.st152{fill-rule:evenodd;clip-rule:evenodd;fill:#406FB5;}
	.st153{fill-rule:evenodd;clip-rule:evenodd;fill:#A418ED;}
	.st154{fill-rule:evenodd;clip-rule:evenodd;fill:#28834F;}
	.st155{fill-rule:evenodd;clip-rule:evenodd;fill:#1FEA75;}
	.st156{fill-rule:evenodd;clip-rule:evenodd;fill:#07A8A8;}
	.st157{fill-rule:evenodd;clip-rule:evenodd;fill:#25C9EF;}
	.st158{fill-rule:evenodd;clip-rule:evenodd;fill:#FF7D9C;}
	.st159{fill:#724329;}
	.st160{fill:#FFD766;}
	.st161{fill:#6ED9FF;}
	.st162{fill:#FFA9C2;}
	.st163{fill-rule:evenodd;clip-rule:evenodd;fill:url(#SVGID_00000158721640936916048340000017629686829862297228_);}
	.st164{fill-rule:evenodd;clip-rule:evenodd;fill:url(#SVGID_00000121242063514546644680000010045982818864770703_);}
	.st165{fill-rule:evenodd;clip-rule:evenodd;fill:url(#SVGID_00000016795615356593263720000009989060166313782936_);}
	.st166{fill-rule:evenodd;clip-rule:evenodd;fill:#2B61D8;}
	.st167{fill-rule:evenodd;clip-rule:evenodd;fill:#78E9FF;}
	.st168{fill-rule:evenodd;clip-rule:evenodd;fill:#844596;}
	.st169{fill-rule:evenodd;clip-rule:evenodd;fill:#A667FC;}
	.st170{fill-rule:evenodd;clip-rule:evenodd;fill:#379CC0;}
	.st171{fill-rule:evenodd;clip-rule:evenodd;fill:url(#SVGID_00000157991443955097147510000016835548021759181227_);}
	.st172{fill:#FF439D;}
	.st173{fill:#29ABE2;}
	.st174{fill:#AA3AAA;}
	.st175{fill:#78E9FF;}
	.st176{fill:#FFC60B;}
	.st177{fill:#A667FC;}
	.st178{fill-rule:evenodd;clip-rule:evenodd;fill:#CCED56;}
	.st179{fill-rule:evenodd;clip-rule:evenodd;fill:#776599;}
	.st180{fill-rule:evenodd;clip-rule:evenodd;fill:#80DEFF;}
	.st181{fill:#379CC0;}
	.st182{fill:#BAAE1C;}
	.st183{fill:#84BC7A;}
	.st184{fill:#916E00;}
	.st185{fill:#BCAD64;}
	.st186{fill:#D18D2A;}
	.st187{fill:#FFB278;}
	.st188{fill-rule:evenodd;clip-rule:evenodd;fill:#785EF7;}
	.st189{fill-rule:evenodd;clip-rule:evenodd;fill:#C2FF7B;}
	.st190{fill-rule:evenodd;clip-rule:evenodd;fill:#6F96EF;}
	.st191{fill-rule:evenodd;clip-rule:evenodd;fill:#E5B189;}
	.st192{fill-rule:evenodd;clip-rule:evenodd;fill:#72D392;}
	.st193{fill-rule:evenodd;clip-rule:evenodd;fill:#F9C55D;}
	.st194{fill-rule:evenodd;clip-rule:evenodd;fill:#61C165;}
	.st195{fill-rule:evenodd;clip-rule:evenodd;fill:#6786D3;}
	.st196{fill-rule:evenodd;clip-rule:evenodd;fill:#FCB1E3;}
	.st197{fill-rule:evenodd;clip-rule:evenodd;fill:#1CC1E4;}
	.st198{fill-rule:evenodd;clip-rule:evenodd;fill:#6D6DB2;}
	.st199{fill-rule:evenodd;clip-rule:evenodd;fill:#66A2AA;}
	.st200{fill-rule:evenodd;clip-rule:evenodd;fill:#D2FC86;}
	.st201{fill:#7FBC62;}
	.st202{fill:#442109;}
	.st203{fill:#60361A;}
	.st204{fill:#A08657;}
	.st205{fill:#FFCD5C;}
	.st206{fill:#7DA22E;}
	.st207{fill:#F9C941;}
	.st208{fill:#6AC6B4;}
	.st209{fill:#E2C159;}
	.st210{fill:#EF8550;}
</style>
<g id="Layer_1">
</g>
<g id="Layer_2">
</g>
<g id="Layer_3">
</g>
<g id="Layer_4">
</g>
<g id="Layer_5">
</g>
<g id="Layer_6">
</g>
<g id="Layer_7">
</g>
<g id="Layer_8">
</g>
<g id="Layer_9">
</g>
<g id="Layer_10">
</g>
<g id="Layer_11">
</g>
<g id="Layer_12">
</g>
<g id="Layer_13">
</g>
<g id="Layer_14">
</g>
<g id="Layer_15">
	<g>
		<path class="st111" d="M117.6,84.25c2.28-1.23,5.44,0.89,5.01,3.48c-0.01,0.07-0.03,0.14-0.04,0.21
			c-0.23,0.89-0.96,1.62-1.83,1.92c-0.87,0.3-1.86,0.18-2.68-0.24c-1.77-0.9-2.59-3.79-0.84-5.12
			C117.33,84.41,117.46,84.33,117.6,84.25z"/>
		<path class="st113" d="M137.54,124.68c-4.21-7.28-8.09-14.7-13.02-21.56c-1.38-1.92-3.88-4.19-4.06-6.69
			c-0.27-3.65,4.63-5.06,7.39-4.57c3.35,0.59,6.69,2.78,8.86,5.36c1.66,1.97,2.92,4.23,4.05,6.53c0.86,1.75,1.43,4.8,3.76,5.05
			c0.84,0.09,1.69-0.15,2.45-0.52c3.29-1.57,4.29-4.98,5.53-8.12c2.84-7.17,4.13-14.8,5.23-22.4c0.56-3.87,1.07-7.74,1.72-11.59
			c0.53-3.13,0.79-7.36,2.56-10.07c1.05-1.61,3.05-2.76,4.88-1.63c2.43,1.5,2.58,4.47,2.47,7.01c-0.19,4.48-0.81,8.92-0.97,13.4
			c-0.09,2.45-0.16,4.89-0.31,7.34c-0.13,2.05-0.84,4.56-0.22,6.57c0.29,0.93,1.01,1.8,1.97,1.97c1.42,0.26,2.66-1.05,3.21-2.38
			c2.17-5.31,3.64-11.02,6.37-16.11c1.54-2.87,2.6-5.97,4.24-8.8c1.51-2.62,4-6.51,7.57-5.8c2.95,0.59,3.61,3.15,3.19,5.73
			c-0.37,2.29-1.52,4.9-2.52,6.98c-2.2,4.56-4.23,9.21-6.15,13.9c-1.09,2.66-2.5,5.15-3.44,7.9c-0.59,1.73-0.55,3.98,0.95,5.03
			c3.92,2.74,8.18-4.56,9.74-7.12c3.46-5.67,6.62-11.53,10.34-17.04c1.39-2.07,5-5.82,7.72-3.69c3.43,2.7,0.22,7.63-1.23,10.51
			c-2.43,4.81-4.94,9.58-7.82,14.15c-1.51,2.39-3.13,4.68-4.83,6.94c-1.41,1.89-3.28,3.77-1.95,6.3c2.07,3.93,6.13,1.31,8.96,0.19
			c3.36-1.32,15.19-9.39,16.95-3.48c0.85,2.84-2.92,5.32-4.76,6.96c-2.46,2.2-5.19,4.08-7.91,5.93c-3.19,2.16-6.44,4.27-9.38,6.77
			c-3.62,3.08-6.12,7.08-9.32,10.54c-3.32,3.59-7.22,6.65-11.49,9.03c-2.69,1.5-5.75,2.64-8.85,2.78c-1.53,0.07-3.07-0.1-4.53-0.6
			c-1.51-0.51-2.57-1.73-3.96-2.29c-2.49-1.03-4.95-0.45-7.22-1.13C145.74,139.57,141.41,131.36,137.54,124.68z"/>
		<path class="st115" d="M149.26,33.78c0.58-0.61,1.42-1,2.45-0.9c4.83,0.43,2.39,7.93-1.73,5.73
			C147.99,37.53,148.01,35.11,149.26,33.78z M197.09,50.98c0.07,2.59,3.37,3.52,5.22,2.03c0.81-0.66,1.28-1.76,1.09-2.79
			c-0.41-2.31-2.66-2.98-4.36-2.29C197.93,48.39,197.05,49.43,197.09,50.98z M153.71,141.94c2.27,0.67,4.73,0.1,7.22,1.13
			c1.38,0.57,2.45,1.79,3.96,2.29c1.46,0.49,3,0.67,4.53,0.6c3.1-0.14,6.16-1.28,8.85-2.78c4.27-2.38,8.16-5.44,11.49-9.03
			c3.2-3.45,5.7-7.46,9.32-10.54c2.94-2.5,6.19-4.61,9.38-6.77c2.73-1.85,5.45-3.73,7.91-5.93c1.84-1.64,5.61-4.12,4.76-6.96
			c-1.76-5.9-13.59,2.16-16.95,3.48c-2.83,1.11-6.89,3.74-8.96-0.19c-1.34-2.53,0.54-4.42,1.95-6.3c1.69-2.26,3.32-4.55,4.83-6.94
			c2.87-4.56,5.39-9.34,7.82-14.15c1.45-2.88,4.67-7.81,1.23-10.51c-2.72-2.14-6.33,1.62-7.72,3.69
			c-3.71,5.52-6.88,11.37-10.34,17.04c-1.56,2.56-5.82,9.86-9.74,7.12c-1.5-1.05-1.54-3.29-0.95-5.03c0.94-2.74,2.35-5.23,3.44-7.9
			c1.92-4.69,3.94-9.34,6.15-13.9c1.01-2.08,2.15-4.69,2.52-6.98c0.42-2.58-0.24-5.14-3.19-5.73c-3.57-0.71-6.05,3.18-7.57,5.8
			c-1.63,2.82-2.7,5.93-4.24,8.8c-2.73,5.09-4.2,10.8-6.37,16.11c-0.55,1.34-1.79,2.64-3.21,2.38c-0.96-0.17-1.68-1.04-1.97-1.97
			c-0.62-2.01,0.09-4.52,0.22-6.57c0.15-2.44,0.22-4.89,0.31-7.34c0.16-4.47,0.78-8.92,0.97-13.4c0.11-2.54-0.04-5.51-2.47-7.01
			c-1.84-1.13-3.83,0.02-4.88,1.63c-1.78,2.71-2.03,6.94-2.56,10.07c-0.66,3.85-1.16,7.73-1.72,11.59c-1.1,7.6-2.39,15.23-5.23,22.4
			c-1.24,3.14-2.23,6.55-5.53,8.12c-0.76,0.36-1.61,0.61-2.45,0.52c-2.33-0.25-2.9-3.3-3.76-5.05c-1.13-2.31-2.39-4.56-4.05-6.53
			c-2.17-2.58-5.51-4.77-8.86-5.36c-2.76-0.49-7.66,0.92-7.39,4.57c0.19,2.5,2.68,4.77,4.06,6.69c4.93,6.86,8.81,14.29,13.02,21.56
			C141.41,131.36,145.74,139.57,153.71,141.94z"/>
		<path class="st129" d="M141.54,110.5c-3.08-0.35-5.43-3-6.75-5.8c-1.32-2.8-1.93-5.91-3.3-8.69c-0.67-1.36-1.56-2.67-2.82-3.52
			c-0.45-0.31-0.95-0.53-1.46-0.7c0.22,0.02,0.43,0.04,0.63,0.07c3.35,0.59,6.69,2.78,8.86,5.36c1.66,1.97,2.92,4.23,4.05,6.53
			c0.86,1.75,1.43,4.8,3.76,5.05c0.84,0.09,1.69-0.15,2.45-0.52c0.35-0.17,0.68-0.36,0.98-0.57
			C146.34,109.54,143.95,110.77,141.54,110.5z M170.75,90.7c-0.3,0.08-0.6,0.11-0.92,0.05c-0.96-0.17-1.68-1.04-1.97-1.97
			c-0.62-2.01,0.09-4.52,0.22-6.57c0.15-2.44,0.22-4.89,0.31-7.34c0.16-4.47,0.78-8.92,0.97-13.4c0.11-2.52-0.04-5.47-2.43-6.98
			c0.03,0.08,0.06,0.16,0.08,0.24c0.51,1.69,0.35,3.51,0.18,5.27c-0.65,6.8-1.3,13.61-1.95,20.41c-0.28,2.89-0.63,6.66,1.16,9.19
			c0.61,0.87,1.59,1.51,2.66,1.56C169.66,91.2,170.26,91.03,170.75,90.7z M184.34,97.7c-0.36-0.09-0.73-0.26-1.09-0.51
			c-1.5-1.05-1.54-3.29-0.95-5.03c0.94-2.74,2.35-5.23,3.44-7.9c1.92-4.69,3.94-9.34,6.15-13.9c1.01-2.08,2.15-4.69,2.52-6.98
			c0.42-2.58-0.24-5.14-3.19-5.73c-0.46-0.09-0.9-0.11-1.32-0.06c0.97,0.43,1.79,1.1,2.28,2.07c1.18,2.34-0.11,5.1-1.35,7.41
			c-3.41,6.37-6.51,12.9-9.29,19.57c-0.97,2.33-1.93,4.87-1.36,7.33C180.63,95.92,182.47,97.62,184.34,97.7z M195.22,107.24
			c-1.34-2.53,0.54-4.42,1.95-6.3c1.69-2.26,3.32-4.55,4.83-6.94c2.87-4.56,5.39-9.34,7.82-14.15c1.45-2.88,4.67-7.81,1.23-10.51
			c-0.31-0.24-0.65-0.43-1.03-0.52c0.38,0.56,0.9,1.14,0.99,1.82c0.36,2.81-1.77,5.47-3.14,7.73c-1.76,2.89-3.77,5.62-5.62,8.46
			c-1.94,2.98-4.29,5.71-6.26,8.68c-1.65,2.5-3.23,5.29-3.03,8.28c0.15,2.27,1.8,4.52,3.85,5.15
			C196.2,108.63,195.66,108.09,195.22,107.24z M213.38,102.93c1.97,0.09,3.57,1.3,2.48,3.37c-0.44,0.84-1.2,1.47-1.96,2.05
			c-4.33,3.3-9.31,5.58-14.11,8.05c-4.32,2.23-8.32,5.09-11.81,8.48c-3.54,3.45-6.6,7.46-10.69,10.24
			c-4.09,2.78-9.51,3.68-13.77,1.16c-4.29,2.91-9.74,4.02-14.84,3.13c1.51,1.1,3.17,1.97,5.03,2.53c2.27,0.67,4.73,0.1,7.22,1.13
			c1.38,0.57,2.45,1.79,3.96,2.29c1.46,0.49,3,0.67,4.53,0.6c3.1-0.14,6.16-1.28,8.85-2.78c4.27-2.38,8.16-5.44,11.49-9.03
			c3.2-3.45,5.7-7.46,9.32-10.54c2.94-2.5,6.19-4.61,9.38-6.77c2.73-1.85,5.45-3.73,7.91-5.93c1.84-1.64,5.61-4.12,4.76-6.96
			C220.25,101.04,216.93,101.53,213.38,102.93z M172.27,122.09c0.8-4.03-0.28-8.54-3.3-11.34c-3.01-2.8-8.11-3.9-11.45-1.5
			c4.38,1.41,8.02,4.93,9.6,9.25c1.57,4.32,1.04,9.35-1.4,13.25C168.84,129.08,171.46,126.12,172.27,122.09z"/>
		<path class="st130" d="M201.08,62.23c-0.63-2.69,1.2-5.46,3.93-5.81c1.15-0.14,2.37,0.18,3.22,0.95c1.63,1.47,1.36,4.24,0.08,5.84
			C206.45,65.53,201.87,65.56,201.08,62.23z M222.26,49.72c2.34,2.58,6.65-1.09,3.57-3.43c-1.48-1.12-3.9-0.53-4.16,1.45
			C221.55,48.54,221.81,49.22,222.26,49.72z M139.99,93.92c1,1.19,1.83,2.58,3.16,3.37c2.2,1.31,4.58-0.1,4.24-2.69
			c-0.22-1.63-0.91-3.3-1.54-4.82c-2.16-5.17-6.91-8.94-9-14.15c-1.55-3.88-1.48-8.25-0.59-12.33c0.89-4.08,2.56-7.94,4.16-11.8
			c0.96-2.32,1.92-4.79,1.57-7.28c-0.39-2.88-2.67-5.4-5.49-6.09c-6.58-1.6-12.91,3.85-15.81,9.26c-2.76,5.14-3.87,11.38-3.48,17.11
			c0.42,6.07,2.77,12.04,6.82,16.59C128.38,86.01,135.78,88.91,139.99,93.92z"/>
		<path class="st131" d="M147.38,94.61c0.35,2.59-2.04,4-4.24,2.69c-0.5-0.3-0.93-0.68-1.33-1.11c0.58-0.06,1.14-0.27,1.58-0.66
			c1.05-0.93,1.15-2.6,0.62-3.9c-0.53-1.3-1.56-2.31-2.58-3.28c-4.15-3.97-8.5-7.9-11.38-12.88c-2.88-4.97-4.1-11.3-1.64-16.5
			c1.13-2.39,2.95-4.37,4.69-6.37c1.74-1.99,3.45-4.1,4.31-6.6c0.86-2.5,0.71-5.51-1.01-7.51c-0.15-0.17-0.31-0.32-0.48-0.47
			c0.19,0.03,0.38,0.07,0.57,0.12c2.82,0.69,5.1,3.21,5.49,6.09c0.34,2.49-0.61,4.96-1.57,7.28c-1.6,3.86-3.26,7.72-4.16,11.8
			c-0.89,4.08-0.97,8.45,0.59,12.33c2.08,5.2,6.83,8.97,9,14.15C146.48,91.3,147.16,92.98,147.38,94.61z"/>
		<path class="st132" d="M176.73,40.96c1.75-2.5,4.08-4.66,6.81-6.31c4.75-2.86,10.39-4.07,15.94-3.95
			c5.84,0.13,10.57,1.98,14.68,6.21c1.45,1.49,6.21,8.98,1.63,9.44c-1.25,0.13-2.27-0.92-3.19-1.77c-5.08-4.68-13.87-5.8-18.64-0.12
			c-1.94,2.31-3.13,5.14-4.63,7.77c-1.49,2.62-3.45,5.18-6.25,6.31c-4.88,1.97-9.23-0.71-9.67-5.76
			C173.04,48.58,174.33,44.4,176.73,40.96z"/>
		<path class="st133" d="M216.65,40.68c1.27,2.54,1.92,5.39-0.85,5.67c-1.25,0.13-2.27-0.92-3.19-1.77
			c-5.08-4.68-13.87-5.8-18.64-0.12c-1.94,2.31-3.13,5.14-4.63,7.77c-1.49,2.62-3.45,5.18-6.25,6.31c-3.92,1.58-7.51,0.15-8.99-3.09
			c0.84,0.42,1.75,0.68,2.7,0.72c3.43,0.12,6.37-2.49,8.25-5.37c1.87-2.88,3.1-6.18,5.32-8.8c2.7-3.19,6.83-5.13,11.02-5.18
			c4.18-0.04,8.35,1.81,11.12,4.94c0.44,0.49,0.88,1.05,1.51,1.23c0.89,0.27,1.87-0.33,2.3-1.16
			C216.5,41.48,216.6,41.08,216.65,40.68z"/>
		<path class="st117" d="M152.01,79.23c-0.19,0.77-0.67,1.5-1.4,1.83c-1.79,0.8-3.52-1.73-4.3-2.99
			c-4.17-6.69-5.59-15.04-3.87-22.73c0.94-4.22,2.91-8.38,6.32-11.04c4.39-3.42,12.45-3.88,14.67,2.33
			c2.03,5.71-4.73,9.43-7.67,13.07c-2.4,2.98-3.62,6.83-3.99,10.6c-0.19,1.9-0.17,3.84,0.11,5.73c0.1,0.68,0.24,1.39,0.25,2.09
			C152.13,78.5,152.1,78.87,152.01,79.23z M211.15,93.14c-1.21,1.52-4.73,5.49-0.94,6.72c1.13,0.37,3-0.48,3.98-0.96
			c2.75-1.34,5.04-3.52,7.33-5.51c3.66-3.18,6.8-6.99,8.97-11.34c2.95-5.91,4.58-13.94,1.92-20.23c-1.51-3.56-4.39-6.87-8.33-7.73
			c-5.86-1.28-10.53,3.7-10.36,9.42c0.13,4.1,2.93,7.52,3.96,11.38c0.98,3.67,0.21,7.18-1.35,10.43
			C214.99,88.13,213.05,90.76,211.15,93.14z"/>
		<path class="st134" d="M155.75,59.7c-2.4,2.98-3.62,6.83-3.99,10.6c-0.19,1.9-0.17,3.84,0.11,5.73c0.1,0.68,0.24,1.39,0.25,2.09
			c0.01,0.38-0.02,0.75-0.11,1.11c-0.19,0.77-0.67,1.5-1.4,1.83c-1.79,0.8-3.52-1.73-4.3-2.99c-0.26-0.41-0.51-0.84-0.74-1.26
			c0.54,0.21,1.1,0.25,1.63,0.01c1.59-0.7,1.35-2.98,0.97-4.68c-0.7-3.12-0.99-6.38-0.32-9.51c0.81-3.77,2.91-6.44,6.07-8.51
			c2.38-1.55,5.16-3.53,5.3-6.79c0.16-3.64-3.35-5.52-7.67-4.63c4.41-1.77,10.07-1.13,11.87,3.91
			C165.46,52.34,158.69,56.06,155.75,59.7z M224.08,54.09c-2.49-0.54-4.76,0.04-6.54,1.33c1.66-0.37,3.51-0.15,5.02,0.64
			c2.91,1.52,4.72,4.59,5.71,7.72c1.76,5.55,1.38,11.71-0.87,17.08c-2.25,5.37-6.31,9.93-11.28,12.95c-1.01,0.61-2.1,1.18-3.27,1.29
			c-0.94,0.09-1.95-0.18-2.63-0.8c-1.4,1.83-3.03,4.57,0,5.54c1.13,0.37,3-0.48,3.98-0.96c2.75-1.34,5.04-3.52,7.33-5.51
			c3.66-3.18,6.8-6.99,8.97-11.34c2.95-5.91,4.58-13.94,1.92-20.23C230.91,58.25,228.02,54.95,224.08,54.09z"/>
		<path class="st6" d="M139.46,119.57c-2.51-6.21-7.98-10.25-12.01-15.39c-2.05-2.61-6.23-8.52-1.49-10.65
			c0.78-0.35,1.17,0.92,0.4,1.27c-4.92,2.21,6.01,12.92,7.66,14.69c2.73,2.93,5.19,5.94,6.71,9.69
			C141.04,119.97,139.77,120.36,139.46,119.57z M182.83,69.83c-1.44,3.93-2.87,7.87-4.31,11.8c-1.23,3.37-2.14,8.7-5.5,10.58
			c-0.96,0.53-0.1,2,0.86,1.47c3.13-1.74,4.01-5.37,5.16-8.52l5.43-14.88C184.85,69.25,183.21,68.81,182.83,69.83z M189.11,59.53
			c-2.51,1.05-4.13,3.33-4.28,6.05c-0.06,1.09,1.64,1.04,1.7-0.04c0.1-1.9,1.31-3.64,3.07-4.38
			C190.61,60.74,190.12,59.11,189.11,59.53z M195.19,90.16c-1.08,1.83-2.16,3.66-3.24,5.5c-1.14,1.94-2.56,5.01-5.32,4.41
			c-1.07-0.23-1.52,1.41-0.45,1.64c2.28,0.49,4.12-0.59,5.48-2.39c1.93-2.55,3.38-5.55,5-8.3
			C197.22,90.07,195.75,89.21,195.19,90.16z M200.14,81.74c-1.17,1.8-2.34,3.59-3.52,5.39c-0.6,0.92,0.87,1.77,1.47,0.86
			c1.17-1.8,2.34-3.59,3.52-5.39C202.21,81.68,200.74,80.83,200.14,81.74z M207.32,70.47c-1.55,0.74-2.72,2.05-3.24,3.7
			c-0.33,1.04,1.26,1.63,1.59,0.59c0.39-1.23,1.18-2.18,2.35-2.74C209.02,71.54,208.31,70,207.32,70.47z M211.08,105.67
			c-4.5,2.34-10.1,6.52-15.35,6.33c-1.09-0.04-1.09,1.66,0,1.7c5.7,0.21,11.36-4.04,16.21-6.56
			C212.91,106.63,212.05,105.16,211.08,105.67z M154.05,135.2c-5.69-2.32-10.28-7.16-12.34-12.95c-0.3-0.84-1.66-0.48-1.35,0.37
			c2.24,6.3,7.14,11.4,13.32,13.93C154.51,136.89,154.88,135.53,154.05,135.2z M152.35,127.89c-1.77-0.91-3.15-2.25-4.09-3.98
			c-0.18-0.32-0.65-0.45-0.96-0.25c-0.33,0.21-0.44,0.61-0.25,0.96c1.04,1.91,2.66,3.5,4.59,4.49c0.33,0.17,0.78,0.1,0.96-0.25
			C152.78,128.53,152.7,128.07,152.35,127.89z M166.29,57.28c-0.01-0.07-0.03-0.13-0.06-0.19c-0.14-0.27-0.43-0.44-0.73-0.48
			c-0.52-0.08-1.22,0.07-1.68,0.33c-0.62,0.34-1.14,0.9-1.45,1.54c-1.07,2.24-1.1,5.36-1.39,7.8c-0.12,1.02,1.48,1.01,1.59,0
			c0.17-1.41,0.27-2.84,0.43-4.25c0.13-1.18,0.39-2.38,1.08-3.34c0.22-0.31,0.52-0.59,0.91-0.66c0.34-0.06,0.75,0.08,1.06-0.12
			C166.25,57.78,166.33,57.52,166.29,57.28z M160.28,72.4c-0.6,9.01-2.07,17.88-4.37,26.6c-0.26,0.99,1.27,1.42,1.54,0.42
			c2.34-8.87,3.82-17.88,4.43-27.03C161.94,71.37,160.35,71.38,160.28,72.4z M129.35,78.29c-1.85-1.87-3.22-4.15-3.99-6.66
			c-0.32-1.04-1.96-0.6-1.64,0.45c0.86,2.79,2.38,5.34,4.43,7.41C128.92,80.27,130.12,79.07,129.35,78.29z M130.53,43.44
			c-6.64,4.63-10.18,12.89-9.01,20.89c0.16,1.08,1.8,0.62,1.64-0.45c-1.05-7.19,2.28-14.82,8.23-18.98
			C132.28,44.29,131.43,42.81,130.53,43.44z M152.62,46.72c-0.25-0.38-0.76-0.55-1.16-0.3c-1.8,1.08-3.32,2.61-4.39,4.41
			c-0.23,0.38-0.1,0.95,0.3,1.16c0.41,0.22,0.92,0.1,1.16-0.3c0.13-0.21,0.26-0.42,0.4-0.62c0.06-0.09,0.13-0.18,0.19-0.28
			c0.03-0.05,0.07-0.09,0.1-0.14c0.01-0.01,0.02-0.03,0.03-0.04c0.28-0.38,0.61-0.73,0.94-1.06c0.33-0.33,0.69-0.64,1.05-0.94
			c0.01,0,0,0,0,0c0,0,0,0,0.01-0.01c0.05-0.04,0.11-0.08,0.16-0.12c0.09-0.07,0.18-0.13,0.27-0.19c0.2-0.14,0.41-0.27,0.62-0.4
			C152.7,47.66,152.87,47.11,152.62,46.72z M188.65,35.61c-7.31,2.24-12.38,9.01-12.47,16.66c-0.01,1.09,1.69,1.09,1.7,0
			c0.08-6.89,4.64-13,11.22-15.02C190.15,36.93,189.7,35.29,188.65,35.61z M204.15,34c-2.86-0.86-5.93-0.91-8.82-0.15
			c-1.06,0.28-0.61,1.92,0.45,1.64c2.61-0.69,5.33-0.63,7.91,0.15C204.75,35.96,205.2,34.32,204.15,34z M219.17,82.46
			c-0.47,1.26-1.11,2.43-1.88,3.53c-0.42,0.6,0.56,1.17,0.98,0.57c0.83-1.18,1.48-2.45,1.99-3.8
			C220.52,82.08,219.43,81.78,219.17,82.46z M220.46,57.04c-0.02-0.12-0.1-0.25-0.27-0.37c-0.23-0.18-0.47-0.15-0.72-0.04
			c-1.12,0.49-2.18,2.35-2.57,3.45c-2.36,6.74,5.95,12.5,3.01,19.14c-0.29,0.66,0.68,1.24,0.98,0.57c1.45-3.28,0.55-6.44-0.85-9.61
			c-1.18-2.68-2.78-5.5-2.31-8.53c0.03-0.2,0.07-0.4,0.12-0.6c0.32-1.29,1.05-2.47,2.11-3.28
			C220.23,57.57,220.51,57.32,220.46,57.04z"/>
	</g>
</g>
</svg>
