<?xml version="1.0" encoding="utf-8"?>
<!-- Generator: Adobe Illustrator 24.0.1, SVG Export Plug-In . SVG Version: 6.00 Build 0)  -->
<svg version="1.1" id="Layer_1" xmlns="http://www.w3.org/2000/svg" xmlns:xlink="http://www.w3.org/1999/xlink" x="0px" y="0px"
	 viewBox="0 0 300 300" style="enable-background:new 0 0 300 300;" xml:space="preserve">
<style type="text/css">
	.st0{fill:#64C5B2;}
	.st1{fill:#FAE072;}
	.st2{fill:#EF496E;}
	.st3{fill:#231F20;}
</style>
<g>
	<g>
		<path class="st0" d="M151.4,131.9c8.6,0,15.6-7.8,15.6-17.3s-7-17.3-15.6-17.3s-15.5,7.7-15.5,17.3S142.9,131.9,151.4,131.9z"/>
		<path class="st0" d="M105.5,113l-0.8-1L105.5,113z"/>
		<path class="st0" d="M182.5,145.4c-43.7,5.8-72-26.2-77-32.4c72.8,91.8,33.9,121.8,33.9,121.8
			C186.4,201.3,182.5,145.4,182.5,145.4z"/>
	</g>
	<path class="st0" d="M105.5,113l-0.8-1L105.5,113z"/>
	<path class="st0" d="M151.4,131.9c8.6,0,15.6-7.8,15.6-17.3s-7-17.3-15.6-17.3s-15.5,7.7-15.5,17.3S142.9,131.9,151.4,131.9z
		 M182.5,145.4c-43.7,5.8-72-26.2-77-32.4c72.8,91.8,33.9,121.8,33.9,121.8C186.4,201.3,182.5,145.4,182.5,145.4z"/>
	<path class="st1" d="M207.8,170.6c4.9,2.2,10.9-0.4,13.4-5.9c2.5-5.5,0.5-11.9-4.5-14.1c-5-2.2-11,0.4-13.5,5.9
		S202.8,168.3,207.8,170.6z M239.4,171.6l0.7-0.4L239.4,171.6z M186.3,170.3c0,0-16.8,31.5,1.7,63c0,0-14.7-27.5,51.5-61.7
		C234.8,173.9,210,185.1,186.3,170.3z M207.8,170.6c4.9,2.2,10.9-0.4,13.4-5.9c2.5-5.5,0.5-11.9-4.5-14.1c-5-2.2-11,0.4-13.5,5.9
		S202.8,168.3,207.8,170.6z M239.4,171.6l0.7-0.4L239.4,171.6z M186.3,170.3c0,0-16.8,31.5,1.7,63c0,0-14.7-27.5,51.5-61.7
		C234.8,173.9,210,185.1,186.3,170.3z"/>
	<path class="st2" d="M110.6,172.5c5-2.2,7-8.5,4.6-14.1s-8.5-8.1-13.5-5.9c-5,2.2-7,8.5-4.6,14.1S105.6,174.7,110.6,172.5z
		 M79,173.5l-0.7-0.3L79,173.5z M132.1,172.2c-23.8,14.7-48.5,3.5-53,1.3c66.2,34.3,51.4,61.8,51.4,61.8
		C148.9,203.6,132.1,172.2,132.1,172.2z M110.6,172.5c5-2.2,7-8.5,4.6-14.1s-8.5-8.1-13.5-5.9c-5,2.2-7,8.5-4.6,14.1
		S105.6,174.7,110.6,172.5z M79,173.5l-0.7-0.3L79,173.5z M132.1,172.2c-23.8,14.7-48.5,3.5-53,1.3c66.2,34.3,51.4,61.8,51.4,61.8
		C148.9,203.6,132.1,172.2,132.1,172.2z"/>
	<path class="st3" d="M7.3,132.4L5.3,128L142,63.6l5.8-2.8l5.7,2.8L290.2,128l-2.1,4.5L147.8,66.3L7.3,132.4z M264.2,125.5h-0.1
		L153.5,73.4l-5.7-2.7l-5.8,2.7L5.3,137.8l2.1,4.5L34,129.7v109.4h0.5v0.1H116v-4.9H38.9V127.4l108.9-51.3l111.5,52.5v110.5h4.9V131
		l24,11.3l2.1-4.5l-26.1-12.2V125.5z"/>
</g>
</svg>
