<?xml version="1.0" encoding="utf-8"?>
<!-- Generator: Adobe Illustrator 24.0.1, SVG Export Plug-In . SVG Version: 6.00 Build 0)  -->
<svg version="1.1" id="Layer_1" xmlns="http://www.w3.org/2000/svg" xmlns:xlink="http://www.w3.org/1999/xlink" x="0px" y="0px"
	 viewBox="0 0 300 300" style="enable-background:new 0 0 300 300;" xml:space="preserve">
<style type="text/css">
	.st0{fill:#EE388C;}
</style>
<g>
	<path class="st0" d="M111.9,251.6c-2.7-12.1,0.4-26.1,9.5-34.6c3.5-3.2,7.6-5.8,12-7.5c0.7-4.8,1.6-9.5,2.7-14.2
		c-11.8-6.3-16.3-21-10-32.9c4.2-7.8,12.2-12.7,21-12.8l-3.7-7c-6.8-12.3-15-24.1-25.9-33S93.2,94.9,79.3,95.4
		c-17.6,0.8-33.8,12.3-42.7,27.8s-10.9,34.5-7.8,52.2s10.8,34.4,20.3,49.7s24.1,32.6,40.4,44.3s35.7,19.4,55.5,19.9h2.3
		c-5.3-0.8-10.5-3.8-14.7-7.1C122.7,274.5,114.7,263.9,111.9,251.6z M16.5,47.1c7-17.8,27-26.6,44.9-19.7S88,54.4,81,72.2
		c-7,17.8-27,26.6-44.9,19.7S9.5,64.9,16.5,47.1z M220.7,95.4c-13.8-0.5-27.4,5.3-38.3,14.2c-10.9,8.9-19,20.7-25.8,33
		c-1.4,2.5-2.7,4.9-4,7.5c13.1,2.5,21.7,15.2,19.1,28.3c-1.1,5.6-4.1,10.7-8.6,14.3c1.5,5.7,2.7,11.6,3.7,17.5
		c3.2,1.6,6,3.8,8.5,6.4c7.9,8.7,10.6,21.4,8.7,33s-8.2,22.1-16.4,30.7c-4,4.1-8.6,8-14.3,9h1.6c19.9-0.5,39.3-8.2,55.5-19.9
		c16.2-11.7,29.6-27.3,40.4-44.3c10.8-17.1,17.5-31.9,20.5-49.7c3-17.7,1.1-36.7-7.8-52.2C254.6,107.5,238.4,96.2,220.7,95.4z
		 M256.9,25.7c-18.8-3.1-36.5,9.7-39.6,28.5c-3.1,18.8,9.7,36.5,28.5,39.6c18.8,3.1,36.5-9.7,39.6-28.4
		C288.6,46.6,275.8,28.8,256.9,25.7C257,25.7,257,25.7,256.9,25.7z"/>
</g>
</svg>
