<?xml version="1.0" encoding="utf-8"?>
<!-- Generator: Adobe Illustrator 24.0.1, SVG Export Plug-In . SVG Version: 6.00 Build 0)  -->
<svg version="1.1" id="Layer_1" xmlns="http://www.w3.org/2000/svg" xmlns:xlink="http://www.w3.org/1999/xlink" x="0px" y="0px"
	 viewBox="0 0 300 300" style="enable-background:new 0 0 300 300;" xml:space="preserve">
<style type="text/css">
	.st0{fill:#64C7C7;}
</style>
<g>
	<path d="M213.7,187.8c-6.2,3.6-12.1,6.9-18,10.5c-8.2,5.1-15.8,11-21.5,18.9c-2.8,3.6-4.5,7.9-5,12.4c-0.4,5.5,1.6,11,5.5,14.9
		c4.2,4.4,9,8.1,14.4,11.1c5.5,3.2,11.1,6.1,16.7,9.1c0.6,0.3,1.2,0.8,1.6,1.3l-3.9-0.8c-17.6-4.8-32.9-13.7-44.6-28
		c-6.4-7.6-10.4-16.8-11.6-26.6c0-0.5-0.1-1-0.4-1.5c-13,19.4-31.3,30.1-53.4,35c4.3-2.3,8.8-4.4,12.8-7c6-3.5,11.7-7.4,17.3-11.6
		c5.5-4.2,8.9-9.9,8.6-17.2c-0.4-4.7-2.1-9.1-5-12.8c-5.1-7.4-12-13-19.6-17.7c-7.6-4.8-12.4-7.2-18.6-10.9
		c-0.6-0.3-1.2-0.7-1.6-1.2c4.6,1.3,9,2.6,13.5,3.6c7,1.8,14,3.3,21.2,2.9c2.6-0.1,5.2-0.5,7.7-1.2c7.7-2.5,11.3-9.5,9.1-17.2
		c-2.2-7.7-5.1-11-8.9-15.9c-0.7-0.8-1.4-1.7-2-2.6c6.8,4.8,12.7,10.7,17.6,17.5c4.9,7,7.8,15.2,8.5,23.7
		c4.9-7.5,11.2-13.9,18.7-18.9c-0.4,0.5-0.7,1-1.2,1.5c-3.9,4.8-7.4,9.7-9.2,15.5c-3,9.2,1.8,17.2,11.3,18.9
		c7.5,1.3,14.8,0.2,22.1-1.4c7.2-1.6,11-2.8,16.3-4.3L213.7,187.8z"/>
	<path d="M190.5,178.1c0.6,6.5-4.3,12.3-10.8,12.9s-12.3-4.3-12.9-10.8c-0.1-0.8-0.1-1.6,0-2.3c0-6.5,5.3-11.8,11.8-11.8
		c0.1,0,0.2,0,0.4,0c6.4,0.1,11.6,5.3,11.6,11.8C190.6,178,190.6,178,190.5,178.1z"/>
	<path d="M110.9,156.1c0-6.6,5.3-11.9,11.9-11.9c6.6,0,11.9,5.3,11.9,11.9c0,6.6-5.3,11.9-11.9,11.9l0,0
		c-6.5,0.1-11.8-5.2-11.9-11.7C110.9,156.2,110.9,156.1,110.9,156.1z"/>
	<path class="st0" d="M146.6,120.5c0,0-35.2-44.9,21.4-86.5c0,0,38.2,49.5-18.4,86.8c0,0,1.3-38.2,12.6-62.1
		C162.1,58.7,144.8,78.5,146.6,120.5z M124.2,130.5c0,0-40.4-14.7-20.7-63.8c0,0,44.1,16.6,22.6,62.9c0,0-14.4-24.9-16.6-44.7
		C109.6,84.9,106.4,104.4,124.2,130.5z M175.1,154.8c0,0,40.4-14.6,20.8-63.7c0,0-44.1,16.5-22.8,62.9c0,0,14.4-25,16.6-44.7
		C189.7,109.3,192.9,128.6,175.1,154.8z M203,155.6c0,0,48.8,22.2,72.5-39.9c0,0-53.7-23.8-73.5,37.3c0,0,34-10,52.6-26.1
		C254.6,126.9,241.1,147.4,203,155.6z M222.9,190.6c0,0,27.5,30.5,63.1-6c0,0-30.5-33.1-63.1,3.7c0,0,27,3.4,45-2.2
		C267.9,186.2,252.2,196.4,222.9,190.6z M102.4,137.9c0,0-53.1,21.6-77.6-44.6c0,0,58.3-23.2,78.8,41.8c0,0-36.5-11.7-56.5-29.3
		C47.1,105.8,61.5,127.8,102.4,137.9z M80.4,166.5c0,0-29.8,30.7-66.4-7.1c0,0,33-33.4,66.4,4.9c0,0-28.5,2.9-47.4-3
		C33,161.2,49.4,171.9,80.4,166.5z"/>
</g>
</svg>
