<?xml version="1.0" encoding="utf-8"?>
<!-- Generator: Adobe Illustrator 24.0.1, SVG Export Plug-In . SVG Version: 6.00 Build 0)  -->
<svg version="1.1" id="Layer_1" xmlns="http://www.w3.org/2000/svg" xmlns:xlink="http://www.w3.org/1999/xlink" x="0px" y="0px"
	 viewBox="0 0 300 300" style="enable-background:new 0 0 300 300;" xml:space="preserve">
<style type="text/css">
	.st0{fill:#FDBA12;}
	.st1{fill:#4862AD;}
	.st2{fill:#EE4B9B;}
</style>
<g>
	<g id="Layer_1_1_">
		<g>
			<path class="st0" d="M270.9,57.5c-28.9-41.4-86.8-35.2-121-6.2c-34.1-29-92.1-35.2-120.9,6.2s4.4,109.9,38.9,137.6
				C37.8,150.1,29.1,89.7,61.8,69.7c42.7-25.9,88.1,21.8,88.1,21.8s45.4-47.6,88.1-21.8c32.7,19.9,24.1,80.3-6.2,125.4
				C266.4,167.4,300.1,99.3,270.9,57.5z"/>
			<path class="st1" d="M92.8,118.8c0.1,7.7-6.1,13.9-13.8,14c-7.7,0.1-13.9-6.1-14-13.8c-0.1-7.7,6.1-13.9,13.8-14
				c0.1,0,0.1,0,0.2,0C86.6,105.1,92.8,111.2,92.8,118.8z M207,118.8c-0.1,7.7,6.1,13.9,13.8,14c7.7,0.1,13.9-6.1,14-13.8
				s-6.1-13.9-13.8-14c0,0-0.1,0-0.1,0c-7.6-0.1-13.8,6-13.9,13.6C207,118.7,207,118.8,207,118.8z M193.6,135
				c-6.3-11.7,7.8-32.1,21.2-46.6c-61.2,24.8-64.9,86.4-64.9,86.4s-3.6-61.6-64.9-86.4c13.4,14.5,27.5,35,21.2,46.6
				c-6.9,13.5-32.8,4.7-44.1,9.4c40.3,12.7,79.6,50.8,87.8,124.2c8.1-73.4,47.5-111.6,87.8-124.2C226.3,139.7,200.5,148.5,193.6,135
				z"/>
			<path class="st2" d="M26.1,163.9c-4.3,1,0.4,23.7,13.9,50.9s16.4,32.6,39.3,35.6s44.7,17.4,47.7,21.5c1-23-5.6-56.1-12.5-69.4
				s-24.8-12-35.9-26.8c0,0-6.5,9.8,0.8,17.9c7.3,8.1,20.2,15.1,12.1,29.8c-2.2,4.1-15.7,2.1-28.7-10.7
				C46.4,196.6,31.4,162.7,26.1,163.9z M273.6,163.9c4.3,1-0.3,23.7-13.9,50.9c-13.5,27.3-16.4,32.6-39.3,35.6s-44.7,17.4-47.6,21.5
				c-1.1-23,5.6-56.1,12.4-69.4s24.8-12,35.9-26.8c0,0,6.5,9.8-0.8,17.9s-19.6,15.8-12.1,29.8c2.1,4.1,15.7,2.1,28.7-10.7
				C253.4,196.6,268.5,162.7,273.6,163.9z"/>
		</g>
	</g>
</g>
</svg>
