<?xml version="1.0" encoding="utf-8"?>
<!-- Generator: Adobe Illustrator 24.0.1, SVG Export Plug-In . SVG Version: 6.00 Build 0)  -->
<svg version="1.1" id="Layer_1" xmlns="http://www.w3.org/2000/svg" xmlns:xlink="http://www.w3.org/1999/xlink" x="0px" y="0px"
	 viewBox="0 0 300 300" style="enable-background:new 0 0 300 300;" xml:space="preserve">
<style type="text/css">
	.st0{fill:#01A79D;}
	.st1{fill:#8FC640;}
	.st2{fill:#EC2227;}
	.st3{fill:#E7BD20;}
</style>
<g>
	<path class="st0" d="M137.8,161.4c-2.8-2.8-4.5-6.6-4.7-10.7c-0.1-1.1,0-2.2,0.2-3.3c0.2-1.5,0.7-3,1.3-4.3l-55.2-25.7l18.4-20
		L24.2,22.6l21.4,131.9l51.3,47.1l20,18.3l25.7-55.3C140.7,163.9,139.1,162.8,137.8,161.4z"/>
	<path class="st1" d="M144.8,46.1L97.7,97.4l-18.4,20l55.2,25.7c0.8-1.8,2-3.4,3.3-4.8c2.8-2.8,6.6-4.6,10.8-4.8
		c1.1,0,2.1,0,3.2,0.2c1.6,0.2,3.1,0.7,4.4,1.4L181.9,80l20,18.3l74.8-73.6L144.8,46.1z"/>
	<path class="st2" d="M164.2,156.9c-0.8,1.8-2,3.4-3.4,4.7c-2.8,2.7-6.6,4.4-10.7,4.6c-1,0-2,0-3.1-0.2c0,0-0.1,0-0.1,0
		c-1.6-0.2-3-0.7-4.4-1.3L116.8,220l-20-18.3l-74.7,73.5l131.8-21.2l47.2-51.3l18.4-20L164.2,156.9z"/>
	<g>
		<circle class="st3" cx="42.2" cy="197.8" r="19.2"/>
		<circle class="st3" cx="99.5" cy="44.9" r="19.2"/>
		<circle class="st3" cx="258.7" cy="100.6" r="19.2"/>
		<circle class="st3" cx="203" cy="248.8" r="19.2"/>
		<path class="st3" d="M201.9,98.3l-20-18.3l-25.6,55.1c1.8,0.8,3.4,2,4.8,3.4c2.8,2.9,4.5,6.7,4.7,10.8c0,1,0,2-0.2,3.1
			c-0.2,1.6-0.7,3.1-1.4,4.5l55.3,25.7l-18.4,20l73.6,74.8l-21.4-131.9L201.9,98.3z"/>
	</g>
</g>
</svg>
