<?xml version="1.0" encoding="utf-8"?>
<!-- Generator: Adobe Illustrator 24.0.1, SVG Export Plug-In . SVG Version: 6.00 Build 0)  -->
<svg version="1.1" id="Layer_1" xmlns="http://www.w3.org/2000/svg" xmlns:xlink="http://www.w3.org/1999/xlink" x="0px" y="0px"
	 viewBox="0 0 300 300" style="enable-background:new 0 0 300 300;" xml:space="preserve">
<style type="text/css">
	.st0{fill:#BF1B83;}
	.st1{fill:#F06191;}
</style>
<g>
	<title>1</title>
	<g>
		<path class="st0" d="M143.2,251.1l-21.2-7.5c-8.5-3-17.1-5.6-25.3-9.5c-5.9-2.8-11.3-6.1-14.8-11.9c-1.6-2.9-2.3-6.2-2-9.5
			c0.1-2.4,1.6-1.6,2.8-1c3.1,1.6,6.3,3,9.6,4.2c14.4,5.1,29.5,7.3,44.3,10.7c14.8,3.4,28.1,6.5,39.8,16
			c8.2,6.3,14.6,14.7,18.5,24.3c2.3,5.2,4,10.6,5.1,16.1c0.4,2.1-0.4,2.3-2.1,2c-13.1-2.4-26.4-3.2-39.7-4.8
			c-23-2.8-46-5.9-67.9-13.8c-21.9-7.9-39.1-18.9-53.6-35.6c-9.8-11.2-17.6-23.8-23.3-37.6c-0.4-1-1.7-2.1-0.6-3.1
			c1.1-0.5,2.3-0.5,3.4-0.1c6.1,1.5,11.7,4.2,16.7,8c9,7.2,16,16.5,24.3,24.6c13.2,12.7,29.6,21.4,47.4,25.3
			c12.6,3,25.4,3.7,38.3,4.2L143.2,251.1z"/>
		<path class="st1" d="M165.9,107.7c4.9,8.1,2.9,18.6-4.7,24.3c-9.7,7.5-25.4,8.2-36.3,1.1c-13.8-9-18.8-22.6-16.9-38.4
			c4.1-36,25.3-58.7,58.6-70c37.6-12.8,71-4.5,99,23.7C281,63.9,289,83.4,292,105c3.5,26.3-2.3,51.1-11.9,75.2
			c-12.3,30.7-30.4,58.7-53.4,82.4c-6.1,6.2-12.5,12.2-19.2,17.8c-0.6-1.7-1.1-3.2-1.6-4.8c-3.5-12.6-9.3-24-18.8-33.3
			c-2.4-2.3-1.3-2.7,1-3.5c15.6-6.3,28.8-17.5,37.6-31.9c3-4.8,5.2-10,6.8-15.4c0.3-1.9,1.9-3.3,3.8-3.2c6.6-0.5,12.2-4.9,14.3-11.2
			c2.4-6.6,2-13.1-2.3-19.1c-2.4-3.5-6.4-5.5-10.6-5.5c-2.7,0-3.2-1.3-3.7-3.4c-5.8-29.5-21.6-52-48.4-65.6
			c-10.9-5.5-23.1-7.8-35.3-6.5c-12.6,1.3-21.6,10.6-22.2,22.9c-0.4,7.5,5.4,16.7,11.7,19.2c6.4,2.5,16.5,0.3,21.7-5.9
			C163.2,111.5,164.5,109.5,165.9,107.7z M101.5,93.9c-6.6,6.2-12.6,12.1-17.2,19.2c-7.5,11.1-12.6,23.6-15,36.7
			c-0.3,1.4-0.3,2.7-2.4,2.7c-13.3,0-17.6,14.5-14.1,24.1c2.1,6.6,7.9,11.2,14.8,11.7c1.7,0,3.1,1.2,3.4,2.8
			c0.7,2.7,1.7,5.3,2.8,7.9c0.7,2,0.7,4.2-0.1,6.2c-2.5,7.2-1.8,15.1,1.8,21.7c-1.1,0.8-1.7,0.1-2.5-0.4
			c-14.4-12.4-24.8-28.8-29.9-47.2c-4.5-16-5.9-32.7-4.2-49.3c0.1-0.6,0-1.1-0.1-1.7c-6.4,19.9-7.7,41.1-3.8,61.7l-8-4.4
			c-4.8-2.1-9.9-3.3-15.1-3.5c-1.7,0-2.4-0.7-2.8-2.4c-7.1-33.2,6.2-69.9,39.8-84.4c11.9-4.9,24.9-6.5,37.7-4.8
			C91.5,91.3,96.6,92.4,101.5,93.9z M151.9,218.6c-8.9-0.3-17.1-2.3-23.6-8.8c-1.9-2.1-3.4-4.5-4.4-7.2c-1.3-3.4-0.3-4.7,3.2-4.2
			c2.3,0.4,4.6,0.9,6.8,1.6c13.3,2.9,27.1,2.5,40.2-1.1c1.8-0.4,4.2-1.4,5.6,0.1s-0.1,4-1,5.6c-4.4,8.2-11.7,11.9-20.5,13.4
			C156.3,218.4,154.1,218.6,151.9,218.6z M125.8,170.8c0,1.3,0.3,2.8-1.3,3.4c-1.6,0.6-2.8-0.8-4-1.8c-5.8-5.4-9.9-6.5-15.7-3.5
			c-1.5,0.8-2.8,1.8-4.1,2.8c-0.8,0.6-1.8,1.8-3.1,1c-1.3-0.8-0.7-2.4-0.4-3.5c1.3-4.7,4.5-7.6,8.8-9.6
			C115.6,155.3,125.7,161.1,125.8,170.8z M206.4,170.7c0,0.7,0.1,1.7-0.7,2.1c-0.8,0.3-1.7,0-2.3-0.7c-1.4-0.8-2.5-2-4-2.8
			c-4.7-3.2-10.9-2.5-14.8,1.6l-0.3,0.3c-1.7,1.4-3.2,4.1-5.5,3c-2.3-1.1-1-4.5-0.4-6.8c2-6.8,8-10,15.5-8.8
			C201.5,159.8,206.6,165.3,206.4,170.7z"/>
	</g>
</g>
</svg>
