<?xml version="1.0" encoding="utf-8"?>
<!-- Generator: Adobe Illustrator 27.8.1, SVG Export Plug-In . SVG Version: 6.00 Build 0)  -->
<svg version="1.1" xmlns="http://www.w3.org/2000/svg" xmlns:xlink="http://www.w3.org/1999/xlink" x="0px" y="0px"
	 viewBox="0 0 350 230" style="enable-background:new 0 0 350 230;" xml:space="preserve">
<style type="text/css">
	.st0{fill:#FFF4C5;}
	.st1{fill:#F1FFCC;}
	.st2{fill:#FFF9CF;}
	.st3{fill:#5B0034;}
	.st4{fill:#FFFDB8;}
	.st5{fill:#FEFFCF;}
	.st6{fill:#FFFFFF;}
	.st7{fill:#FCBEF3;}
	.st8{fill:#007769;}
	.st9{fill:#990000;}
	.st10{fill:#EE388C;}
	.st11{fill:#4862AD;}
	.st12{fill:#EE4B9B;}
	.st13{fill:#FAEE35;}
	.st14{fill:#01A79D;}
	.st15{fill:#8FC640;}
	.st16{fill:#EC2227;}
	.st17{fill:#E7BD20;}
	.st18{fill:#DC8927;}
	.st19{fill:#2F99D5;}
	.st20{fill:#663366;}
	.st21{fill:#FFC907;}
	.st22{fill:#4B83C3;}
	.st23{fill:#F0535B;}
	.st24{fill:#A92990;}
	.st25{fill:#E16E25;}
	.st26{fill:#426CB4;}
	.st27{fill:#E9292B;}
	.st28{fill:#0F77B7;}
	.st29{fill:#EF4A6C;}
	.st30{fill:#65C5B3;}
	.st31{fill:#965724;}
	.st32{fill:#F1A422;}
	.st33{fill:#18479E;}
	.st34{fill:#64C5B2;}
	.st35{fill:#FAE072;}
	.st36{fill:#EF496E;}
	.st37{fill:#231F20;}
	.st38{fill-rule:evenodd;clip-rule:evenodd;fill:#5C493A;}
	.st39{fill-rule:evenodd;clip-rule:evenodd;fill:#F26767;}
	.st40{fill-rule:evenodd;clip-rule:evenodd;fill:#87C443;}
	.st41{fill-rule:evenodd;clip-rule:evenodd;fill:#EE3E96;}
	.st42{fill-rule:evenodd;clip-rule:evenodd;fill:#2195D2;}
	.st43{fill-rule:evenodd;clip-rule:evenodd;fill:#FFCD05;}
	.st44{fill-rule:evenodd;clip-rule:evenodd;fill:#83C341;}
	.st45{fill-rule:evenodd;clip-rule:evenodd;fill:#0F77B7;}
	.st46{fill-rule:evenodd;clip-rule:evenodd;fill:#ED8D36;}
	.st47{fill-rule:evenodd;clip-rule:evenodd;fill:#3CA356;}
	.st48{fill-rule:evenodd;clip-rule:evenodd;fill:#7F4A25;}
	.st49{fill-rule:evenodd;clip-rule:evenodd;fill:#A3B539;}
	.st50{fill-rule:evenodd;clip-rule:evenodd;fill:#FAAF37;}
	.st51{fill-rule:evenodd;clip-rule:evenodd;fill:#0BB4A1;}
	.st52{fill:#00A9CB;}
	.st53{fill:#79AA41;}
	.st54{fill:#CD8F2A;}
	.st55{fill:#0393B0;}
	.st56{fill:#E82F7B;}
	.st57{fill:#D7DF2A;}
	.st58{fill:#8DC443;}
	.st59{fill:#F0A422;}
	.st60{fill:#3A3A3B;}
	.st61{fill:#29AAE1;}
	.st62{fill:#E9246E;}
	.st63{fill:url(#SVGID_1_);}
	.st64{fill:#00EFFF;}
	.st65{fill-rule:evenodd;clip-rule:evenodd;fill:url(#SVGID_00000043432564407664503050000015320732108451924630_);}
	.st66{fill-rule:evenodd;clip-rule:evenodd;fill:url(#SVGID_00000007415958540547089120000013439436007565919903_);}
	.st67{fill-rule:evenodd;clip-rule:evenodd;fill:url(#SVGID_00000041253133155457623490000015824660940740284316_);}
	.st68{fill-rule:evenodd;clip-rule:evenodd;fill:url(#SVGID_00000173847997914283592090000017970177370652162187_);}
	.st69{fill-rule:evenodd;clip-rule:evenodd;fill:url(#SVGID_00000046337955660548901360000011636008192585387957_);}
	.st70{fill-rule:evenodd;clip-rule:evenodd;fill:url(#SVGID_00000007389521299099366950000004547232021817442199_);}
	.st71{fill-rule:evenodd;clip-rule:evenodd;fill:url(#SVGID_00000140736710626287119740000015180083965033494956_);}
	.st72{fill-rule:evenodd;clip-rule:evenodd;fill:url(#SVGID_00000150805916468343012000000011006200536750825097_);}
	.st73{fill-rule:evenodd;clip-rule:evenodd;fill:url(#SVGID_00000067213486430524553440000012787806988830076058_);}
	.st74{fill:url(#SVGID_00000048492830588316460900000000674101817122755500_);}
	.st75{fill:#00889E;}
	.st76{fill:url(#SVGID_00000156562199202347893410000008004708276731761072_);}
	.st77{fill:url(#SVGID_00000016066900902739143540000010347613594780123296_);}
	.st78{fill:url(#SVGID_00000019639367119787021870000007050450705060847013_);}
	.st79{fill:#009AFF;}
	.st80{fill:url(#SVGID_00000121996746626178336110000015824080005304114091_);}
	.st81{fill:url(#SVGID_00000059303819976510368910000005596192012522502844_);}
	.st82{fill:#EF1A24;}
	.st83{fill:url(#SVGID_00000114056524343962779940000012255465213118261681_);}
	.st84{fill:url(#SVGID_00000055690157107930540510000010893913710518377371_);}
	.st85{fill-rule:evenodd;clip-rule:evenodd;fill:#1B2E7A;}
	.st86{fill-rule:evenodd;clip-rule:evenodd;fill:#FFFFFF;}
	.st87{fill-rule:evenodd;clip-rule:evenodd;fill:#FF004D;}
	.st88{fill:#1B2E7A;}
	.st89{fill-rule:evenodd;clip-rule:evenodd;fill:#FFD373;}
	.st90{fill-rule:evenodd;clip-rule:evenodd;fill:#EDB337;}
	.st91{fill-rule:evenodd;clip-rule:evenodd;fill:#FFEDB0;}
	.st92{fill:url(#SVGID_00000160180075476769084050000004632723563828776116_);}
	.st93{fill:#A25F00;}
	.st94{fill:#1B5302;}
	.st95{fill:#00AEEF;}
	.st96{fill:#ED1966;}
	.st97{fill:url(#SVGID_00000131347996727034782380000002344584043940496770_);}
	.st98{fill:url(#SVGID_00000170959290948758270660000013424659517579060667_);}
	.st99{fill:#79BACC;}
	.st100{fill:#E8E3D8;}
	.st101{fill:#F2B220;}
	.st102{fill:url(#SVGID_00000096768273854313822280000016302840228971206571_);}
	.st103{fill:url(#SVGID_00000011726945175418731220000002410172784391536557_);}
	.st104{fill:url(#SVGID_00000078723045585775745540000008221138865102842267_);}
	.st105{fill:url(#SVGID_00000062173899855099671990000004424793703193003963_);}
	.st106{fill:url(#SVGID_00000052087447818841962300000007507698877942595755_);}
	.st107{fill:url(#SVGID_00000039106288272897383270000016408224036347430558_);}
	.st108{fill:url(#SVGID_00000058547032043701272610000015992940117178100916_);}
</style>
<g id="Layer_1">
</g>
<g id="Layer_2">
</g>
<g id="Layer_3">
</g>
<g id="Layer_4">
</g>
<g id="Layer_5">
</g>
<g id="Layer_6">
</g>
<g id="Layer_7">
</g>
<g id="Layer_8">
</g>
<g id="Layer_9">
</g>
<g id="Layer_10">
</g>
<g id="Layer_11">
</g>
<g id="Layer_12">
</g>
<g id="Layer_13">
</g>
<g id="Layer_14">
</g>
<g id="Layer_15">
	<g>
		<radialGradient id="SVGID_1_" cx="175.0849" cy="87.8005" r="53.1724" gradientUnits="userSpaceOnUse">
			<stop  offset="0" style="stop-color:#FFFFFF"/>
			<stop  offset="1" style="stop-color:#00B0FF"/>
		</radialGradient>
		<path class="st63" d="M185.99,111.16c1.54,0.55,2.77,0.46,4.01,0.18c0.98-0.22,1.47-0.7,1.38-1.75c-0.11-1.35-0.07-2.63,0.88-3.82
			c0.87-1.09,0.56-2.52,0.51-3.82c-0.03-0.73-0.74-0.95-1.24-1.23c-1.84-1.02-2.61-2.73-3.12-4.63c-0.15-0.54-0.15-1.02,0.39-1.36
			c2.77-1.73,3.51-4.53,3.68-7.48c0.36-6.6-2.88-11.57-7.59-15.74c-4.29-3.8-9.43-5.94-15.01-6.84c-5.9-0.95-11.67-0.09-17.2,2.21
			c-5.73,2.38-10.39,6.19-13.8,11.33c-3.44,5.17-5.38,10.89-5.25,17.2c0.01,0.23,0,0.46,0,0.86c-0.99-0.71-1.51-1.66-2.23-2.41
			c-0.39-0.41-0.73-0.86-1.13-1.24c-1.48-1.41-2.8-1.32-4.01,0.36c-1.65,2.3-2.9,4.82-3.88,7.46c-1.31,3.52-2.16,7.16-2.6,11.23
			c-1.13-3.53-1.67-6.84-1.88-10.17c-0.59-9.43,0.62-18.6,4.44-27.33c2.32-5.31,5.33-10.17,9.08-14.6
			c5.54-6.53,12.13-11.69,19.92-15.21c6.92-3.13,14.17-5.02,21.84-5.2c4.81-0.11,9.6,0.24,14.23,1.37
			c9.27,2.26,17.63,6.38,24.89,12.71c6.06,5.28,10.89,11.5,14.34,18.7c3.23,6.75,5.23,13.88,5.66,21.45
			c0.36,6.29-0.25,12.43-1.81,18.5c-1.21,4.69-3.16,9.1-5.38,13.4c-0.25,0.48-0.57,0.63-1.11,0.64
			c-11.41,0.3-21.69,4.14-31.32,10.04c-0.23,0.14-0.49,0.26-1.02,0.54c0.5-1.08,0.83-1.92,0.36-2.85c-0.49-0.97-1.45-1.13-2.28-1.5
			c-4.45-1.97-9.13-3.01-13.97-3.39c-0.37-0.03-0.74-0.09-1.11-0.15c-2.04-0.34-2.07-0.39-0.83-2.07c0.39-0.53,0.78-1.05,1.2-1.55
			c1-1.2,2.12-1.99,3.86-1.84c1.96,0.17,3.89-0.14,5.8-0.77c3.86-1.26,5.26-5.04,5.81-8.12c0.14-0.78-0.43-1.14-1.15-1.32
			C187.46,112.43,187.34,112.35,185.99,111.16z M211.65,93.85c6.46,0.42,12.14-5.34,12.11-11.44c-0.03-6.7-5.07-11.93-11.59-11.95
			c-6.86-0.02-11.9,4.89-12.11,11.39C199.84,88.41,205.21,94.08,211.65,93.85z M193.07,49.69c-3.42,0.69-4.75,2.93-4.95,7.97
			c-1.39-0.73-2.18-0.69-2.66,0.14c-0.52,0.89-0.12,2.24,0.88,2.77c0.75,0.39,1.56,0.68,2.42,0.59c0.91-0.1,1.44,0.25,1.88,1.07
			c1.31,2.42,3.74,3.13,6.3,4.02c-0.53-2.01-1.49-3.56-2.39-5.12c-0.39-0.68-0.4-1.01,0.52-1.2c1.64-0.34,3.29-0.51,5.08-0.5
			c-1.88-2.08-4.17-2.43-6.6-2.07c-0.88,0.13-1.23-0.07-1.37-0.86c-0.1-0.6-0.21-1.19-0.29-1.79
			C191.67,52.96,192.43,51.43,193.07,49.69z M208.64,113.06c3.53,0.56,4.77,1.53,5.25,4.04c0.1,0.54,0,1.27,0.64,1.41
			c0.69,0.15,0.78-0.68,1.14-1.06c0.13-0.13,0.2-0.32,0.28-0.49c0.97-2.08,2.56-2.85,4.8-2.34c0.25,0.06,0.66,0.05,0.79-0.1
			c0.24-0.28-0.05-0.61-0.22-0.88c-1.12-1.83-3.44-2.25-5.25-0.91c-0.39,0.29-0.56,0.62-1.07,0.04
			C213.06,110.54,210.85,110.64,208.64,113.06z M152.1,53.69c3.63,0.43,4.43,1.17,5.34,4.74c0.08,0.31-0.02,0.88,0.49,0.87
			c0.25,0,0.53-0.34,0.74-0.58c0.21-0.24,0.37-0.54,0.52-0.83c0.94-1.77,2.26-2.81,4.4-2.42c0.37,0.07,0.99,0.28,1.14-0.16
			c0.17-0.53-0.18-1.05-0.64-1.44c-1.31-1.1-2.98-1.25-4.55-0.29c-0.44,0.27-0.65,0.47-1.1-0.07
			C156.49,51.22,154.16,51.27,152.1,53.69z M221.51,83.16c0.09,3.04-1.24,5.28-3.86,6.8c-0.68,0.4-1.38,0.57-1.85-0.17
			c-0.42-0.67,0.2-1.09,0.66-1.49c1.87-1.58,3.42-3.34,3.45-5.99c0-0.31,0.16-0.63,0.29-0.93c0.14-0.34,0.42-0.49,0.79-0.46
			c0.44,0.03,0.5,0.36,0.51,0.7C221.52,82.13,221.51,82.65,221.51,83.16z M215.27,73.82c1.32,0.01,2.29,0.98,2.28,2.28
			c-0.01,1.12-0.71,1.41-1.66,1.4c-1.29-0.01-2.33-1.06-2.3-2.31C213.62,74.09,214.31,73.79,215.27,73.82z"/>
		
			<radialGradient id="SVGID_00000177472790759732053660000012578972185312148916_" cx="172.654" cy="111.2777" r="46.4338" gradientUnits="userSpaceOnUse">
			<stop  offset="0" style="stop-color:#FFFFFF"/>
			<stop  offset="0.0365" style="stop-color:#E0EAE0"/>
			<stop  offset="0.0988" style="stop-color:#B1C9B1"/>
			<stop  offset="0.1667" style="stop-color:#87AC87"/>
			<stop  offset="0.2387" style="stop-color:#639363"/>
			<stop  offset="0.3161" style="stop-color:#447E44"/>
			<stop  offset="0.4003" style="stop-color:#2B6D2B"/>
			<stop  offset="0.4941" style="stop-color:#185F18"/>
			<stop  offset="0.6029" style="stop-color:#0A560A"/>
			<stop  offset="0.7404" style="stop-color:#025102"/>
			<stop  offset="1" style="stop-color:#004F00"/>
		</radialGradient>
		<path style="fill:url(#SVGID_00000177472790759732053660000012578972185312148916_);" d="M152.4,133.99
			c-1.22-2.55-1.18-4.83,0.46-7.03c0.95-1.28,1.81-2.63,1.6-4.66c-1.15,3.54-3.8,4.96-6.82,5.92c-3.49,1.11-3.58,1.12-3.75-2.62
			c-0.15-3.2,0.78-5.98,4.68-6.76c0.4-0.08,0.84-0.18,1.08-0.61c-0.19-0.38-0.52-0.61-0.89-0.83c-6.2-3.7-9.62-9.3-11.01-16.24
			c-2.25-11.25,2.24-22.2,11.86-28.44c7.42-4.81,15.56-5.99,23.97-3.29c6.05,1.94,11.17,5.4,14.04,11.41c1.38,2.9,1.77,5.9,0.7,9.01
			c-0.31,0.89-0.69,1.72-1.55,2.43c-0.55-1.46-1.12-2.82-1.93-4.06c-0.82-1.24-1.65-2.45-3.04-3.56c0.02,1.59-0.06,2.93-0.43,4.22
			c-1.41,5.04-4.78,8.15-9.66,9.72c-0.73,0.24-1.04,0.49-1.19,1.26c-0.44,2.17-1.54,3.98-3.18,5.5c-0.7,0.65-1.1,0.55-1.71-0.03
			c-1.57-1.51-3.45-2.01-5.57-1.44c-2.32,0.63-3.52,2.29-3.77,4.56c-0.29,2.64,0.77,4.75,2.99,6.25c1.9,1.29,4.05,1.19,6.51,1.07
			c-2.1,2.05-4.16,3.58-6.77,4.53c0.46,0.83,0.97,1.63,1.37,2.5c1.27,2.74,0.62,5.25-1.75,7.12c-1.11,0.88-2.38,1.5-3.61,2.17
			C154.13,132.58,153.29,133.15,152.4,133.99z M152.43,115.56c0.11-0.05,0.22-0.1,0.33-0.15c-0.11-0.39-0.2-0.8-0.34-1.18
			c-1.56-4.18-2.05-8.53-2.01-12.97c0.01-0.96,0.17-1.42,1.24-1.7c4.15-1.09,6.71-4.4,6.94-8.66c0.1-1.85-0.48-2.48-2.37-2.39
			c-2.81,0.12-5.12,1.27-6.46,3.8c-0.58,1.08-1.01,1.05-2,0.62c-2.08-0.91-4.25-1.14-6.36,0.01c-0.83,0.45-1.35,1.06-0.83,2.05
			c1.48,2.81,3.3,5.16,6.9,5.06c0.74-0.02,0.93,0.22,0.94,0.96c0.02,2.62,0.13,5.25,0.72,7.82
			C149.72,111.33,150.58,113.7,152.43,115.56z M173.22,81.36c-0.58,3.98-1.94,7.63-4.39,10.82c-2.45,3.2-5.59,5.51-9.54,6.95
			C168.12,99.72,174.34,91.71,173.22,81.36z M172.03,140.07c-8.31,1.04-16.09,3.19-23.58,6.37c-0.88,0.37-3.31-0.4-3.68-1.19
			c-0.22-0.46,0.19-0.79,0.39-1.12c1.9-3,4.48-5.28,7.57-6.97c7.93-4.34,16.43-5.5,25.31-4.51c3.28,0.36,6.45,1.13,9.53,2.3
			c0.39,0.15,1.15,0.09,0.62,0.97c-3.41,5.73-7.46,10.91-12.86,14.91c-4,2.96-8.42,3.62-13.22,2.5c-3.58-0.84-6.95-2.17-10.51-3.89
			C158.09,145.41,164.9,142.66,172.03,140.07z M132.74,116.4c0.74,6.23,1.08,12.44-0.22,18.84c-5.56-6.08-9.67-12.51-9.22-21.01
			c0.3-5.74,1.38-11.24,4.01-16.39c0.15-0.29,0.33-0.57,0.46-0.87c0.46-1.01,0.94-1.08,1.65-0.18c5.14,6.51,9.25,13.56,10.76,21.83
			c1.27,6.91,0.4,13.62-2.45,20.06c-0.41,0.93-0.73,0.85-1.35,0.24c-0.77-0.74-1.35-1.3-1.14-2.67c1.03-6.57-0.19-12.97-1.96-19.29
			c-0.05-0.18-0.15-0.34-0.26-0.49C132.99,116.44,132.87,116.44,132.74,116.4z M187.92,152.96c2.57-2.25,4.97-4.69,7.66-6.81
			c0.83-0.66,1.67-1.31,2.44-2.07c-1.54,0.34-2.84,1.23-4.16,2c-3.37,1.97-6.51,4.27-9.15,7.16c-1.21,1.32-2.83,0.57-4.25,1.3
			c3.17-10.87,27.73-25.5,41.58-24.87c-1.73,2.51-3.72,4.72-5.76,6.89c-7.54,8.01-16.6,13.46-27.25,16.27
			c-0.37,0.1-0.72,0.19-1.1,0.08L187.92,152.96z M185.82,101.08c0.03,0.81,0.03,1.71-0.91,1.97c-1.01,0.29-1.52-0.52-1.92-1.27
			c-0.55-1.05-0.85-2.16-0.4-3.36c0.19-0.5,0.41-0.95,1.02-1c0.55-0.04,0.98,0.17,1.32,0.62
			C185.61,98.96,185.83,99.98,185.82,101.08z M187.94,152.92l0.03,0.07l-0.04-0.03L187.94,152.92z M150.24,96.91
			c0.07-3.35,1.98-5.65,5.05-6.34c1.16-0.26,1.39,0.1,1.21,1.18c-0.5,2.94-2.09,4.94-4.9,5.99
			C150.6,98.12,149.94,98.17,150.24,96.91z M144.23,94.12c1.5,0.01,2.83,0.53,4.07,1.29c1.21,0.74,0.28,1.78,0.26,2.65
			c-0.03,0.84-0.84,0.3-1.21,0.25c-1.68-0.22-3.07-1.01-4.01-2.47c-0.27-0.42-0.85-0.84-0.63-1.33
			C142.97,93.93,143.7,94.2,144.23,94.12z"/>
	</g>
</g>
</svg>
