<?xml version="1.0" encoding="utf-8"?>
<!-- Generator: Adobe Illustrator 27.8.1, SVG Export Plug-In . SVG Version: 6.00 Build 0)  -->
<svg version="1.1" xmlns="http://www.w3.org/2000/svg" xmlns:xlink="http://www.w3.org/1999/xlink" x="0px" y="0px"
	 viewBox="0 0 350 230" style="enable-background:new 0 0 350 230;" xml:space="preserve">
<style type="text/css">
	.st0{fill:#FFF4C5;}
	.st1{fill:#F1FFCC;}
	.st2{fill:#FFF9CF;}
	.st3{fill:#5B0034;}
	.st4{fill:#FFFDB8;}
	.st5{fill:#FEFFCF;}
	.st6{fill:#FFFFFF;}
	.st7{fill:#FCBEF3;}
	.st8{fill:#007769;}
	.st9{fill:#990000;}
	.st10{fill:#EE388C;}
	.st11{fill:#4862AD;}
	.st12{fill:#EE4B9B;}
	.st13{fill:#FAEE35;}
	.st14{fill:#01A79D;}
	.st15{fill:#8FC640;}
	.st16{fill:#EC2227;}
	.st17{fill:#E7BD20;}
	.st18{fill:#DC8927;}
	.st19{fill:#2F99D5;}
	.st20{fill:#663366;}
	.st21{fill:#FFC907;}
	.st22{fill:#4B83C3;}
	.st23{fill:#F0535B;}
	.st24{fill:#A92990;}
	.st25{fill:#E16E25;}
	.st26{fill:#426CB4;}
	.st27{fill:#E9292B;}
	.st28{fill:#0F77B7;}
	.st29{fill:#EF4A6C;}
	.st30{fill:#65C5B3;}
	.st31{fill:#965724;}
	.st32{fill:#F1A422;}
	.st33{fill:#18479E;}
	.st34{fill:#64C5B2;}
	.st35{fill:#FAE072;}
	.st36{fill:#EF496E;}
	.st37{fill:#231F20;}
	.st38{fill-rule:evenodd;clip-rule:evenodd;fill:#5C493A;}
	.st39{fill-rule:evenodd;clip-rule:evenodd;fill:#F26767;}
	.st40{fill-rule:evenodd;clip-rule:evenodd;fill:#87C443;}
	.st41{fill-rule:evenodd;clip-rule:evenodd;fill:#EE3E96;}
	.st42{fill-rule:evenodd;clip-rule:evenodd;fill:#2195D2;}
	.st43{fill-rule:evenodd;clip-rule:evenodd;fill:#FFCD05;}
	.st44{fill-rule:evenodd;clip-rule:evenodd;fill:#83C341;}
	.st45{fill-rule:evenodd;clip-rule:evenodd;fill:#0F77B7;}
	.st46{fill-rule:evenodd;clip-rule:evenodd;fill:#ED8D36;}
	.st47{fill-rule:evenodd;clip-rule:evenodd;fill:#3CA356;}
	.st48{fill-rule:evenodd;clip-rule:evenodd;fill:#7F4A25;}
	.st49{fill-rule:evenodd;clip-rule:evenodd;fill:#A3B539;}
	.st50{fill-rule:evenodd;clip-rule:evenodd;fill:#FAAF37;}
	.st51{fill-rule:evenodd;clip-rule:evenodd;fill:#0BB4A1;}
	.st52{fill:#00A9CB;}
	.st53{fill:#79AA41;}
	.st54{fill:#CD8F2A;}
	.st55{fill:#0393B0;}
	.st56{fill:#E82F7B;}
	.st57{fill:#D7DF2A;}
	.st58{fill:#8DC443;}
	.st59{fill:#F0A422;}
	.st60{fill:#3A3A3B;}
	.st61{fill:#29AAE1;}
	.st62{fill:#E9246E;}
	.st63{fill:url(#SVGID_1_);}
	.st64{fill:#00EFFF;}
	.st65{fill-rule:evenodd;clip-rule:evenodd;fill:url(#SVGID_00000015353939883023437820000015493153629851071636_);}
	.st66{fill-rule:evenodd;clip-rule:evenodd;fill:url(#SVGID_00000081614637601796220360000000626926923912751029_);}
	.st67{fill-rule:evenodd;clip-rule:evenodd;fill:url(#SVGID_00000040544337119513501240000015808296278765805201_);}
	.st68{fill-rule:evenodd;clip-rule:evenodd;fill:url(#SVGID_00000041266352013344716760000015017952726189455511_);}
	.st69{fill-rule:evenodd;clip-rule:evenodd;fill:url(#SVGID_00000163034164044050731200000001447605181073954224_);}
	.st70{fill-rule:evenodd;clip-rule:evenodd;fill:url(#SVGID_00000100369102185625698310000011660443805614192786_);}
	.st71{fill-rule:evenodd;clip-rule:evenodd;fill:url(#SVGID_00000173869101167667701040000007967370465188396987_);}
	.st72{fill-rule:evenodd;clip-rule:evenodd;fill:url(#SVGID_00000000941986817711989900000006779723722852937869_);}
	.st73{fill-rule:evenodd;clip-rule:evenodd;fill:url(#SVGID_00000067956314182542526400000009927000543359031982_);}
	.st74{fill:url(#SVGID_00000120521579866704821080000008110527856611226549_);}
	.st75{fill:#00889E;}
	.st76{fill:url(#SVGID_00000064339849381176695960000016900079537734494389_);}
	.st77{fill:url(#SVGID_00000157270887934325727060000016040296157780183939_);}
	.st78{fill:url(#SVGID_00000181051176594306172810000004085067313170990010_);}
	.st79{fill:#009AFF;}
	.st80{fill:url(#SVGID_00000000198012829574083370000017982471480787968160_);}
	.st81{fill:url(#SVGID_00000027574100782801698370000018250142087279147166_);}
	.st82{fill:#EF1A24;}
	.st83{fill:url(#SVGID_00000023266404865949047050000010954407555115438231_);}
	.st84{fill:url(#SVGID_00000155147283803324948830000013950291537911360932_);}
	.st85{fill-rule:evenodd;clip-rule:evenodd;fill:#1B2E7A;}
	.st86{fill-rule:evenodd;clip-rule:evenodd;fill:#FFFFFF;}
	.st87{fill-rule:evenodd;clip-rule:evenodd;fill:#FF004D;}
	.st88{fill:#1B2E7A;}
	.st89{fill-rule:evenodd;clip-rule:evenodd;fill:#FFD373;}
	.st90{fill-rule:evenodd;clip-rule:evenodd;fill:#EDB337;}
	.st91{fill-rule:evenodd;clip-rule:evenodd;fill:#FFEDB0;}
	.st92{fill:url(#SVGID_00000170994458359783609450000003514524590577453979_);}
	.st93{fill:#A25F00;}
	.st94{fill:#1B5302;}
	.st95{fill:#00AEEF;}
	.st96{fill:#ED1966;}
	.st97{fill:url(#SVGID_00000139281432241778417290000008632914773858939285_);}
	.st98{fill:url(#SVGID_00000047025437374494842310000000274433786859254691_);}
	.st99{fill:#79BACC;}
	.st100{fill:#E8E3D8;}
	.st101{fill:#F2B220;}
	.st102{fill:url(#SVGID_00000123442540227140245790000005126589542731976856_);}
	.st103{fill:url(#SVGID_00000155848136448311894050000010551113566461209227_);}
	.st104{fill:url(#SVGID_00000165941306961957070530000005522347729084205449_);}
	.st105{fill:url(#SVGID_00000091005914216112001320000018289834794088283071_);}
	.st106{fill:url(#SVGID_00000105396496524402053230000011123667330929545088_);}
	.st107{fill:url(#SVGID_00000064317719527493772210000010958594266198767255_);}
	.st108{fill:url(#SVGID_00000044176767673657649710000017376372138389799614_);}
</style>
<g id="Layer_1">
</g>
<g id="Layer_2">
</g>
<g id="Layer_3">
</g>
<g id="Layer_4">
</g>
<g id="Layer_5">
</g>
<g id="Layer_6">
</g>
<g id="Layer_7">
</g>
<g id="Layer_8">
</g>
<g id="Layer_9">
</g>
<g id="Layer_10">
</g>
<g id="Layer_11">
</g>
<g id="Layer_12">
</g>
<g id="Layer_13">
</g>
<g id="Layer_14">
</g>
<g id="Layer_15">
	<g>
		<radialGradient id="SVGID_1_" cx="174.9726" cy="91.5334" r="57.1157" gradientUnits="userSpaceOnUse">
			<stop  offset="0" style="stop-color:#FFFFFF"/>
			<stop  offset="6.840587e-03" style="stop-color:#FAF9FC"/>
			<stop  offset="0.0568" style="stop-color:#DCCEE5"/>
			<stop  offset="0.1125" style="stop-color:#BFA8D1"/>
			<stop  offset="0.1728" style="stop-color:#A786C0"/>
			<stop  offset="0.239" style="stop-color:#936AB1"/>
			<stop  offset="0.313" style="stop-color:#8254A5"/>
			<stop  offset="0.3985" style="stop-color:#75429C"/>
			<stop  offset="0.5026" style="stop-color:#6D3696"/>
			<stop  offset="0.6447" style="stop-color:#672F92"/>
			<stop  offset="1" style="stop-color:#662D91"/>
		</radialGradient>
		<path class="st63" d="M175.02,34.43c31.87,0.12,57.23,25.79,57.08,57.76c-0.15,31.31-26,56.59-57.71,56.45
			c-31.1-0.14-56.72-26.04-56.54-57.16C118.03,59.86,143.64,34.31,175.02,34.43z M159,66.65c0.73-0.59,1.13-1.01,1.61-1.28
			c3.12-1.78,6.27-3.5,9.38-5.31c0.63-0.37,1.11-1.01,1.66-1.53c-0.65-0.47-1.3-1.34-1.94-1.34c-2.11,0.01-4.27,0.1-6.31,0.59
			c-2.02,0.49-3.87,1.63-5.86,2.24c-2.14,0.65-4.35,1.22-6.56,1.41c-1.84,0.16-2.78-1.09-2.19-2.83c0.49-1.48,1.34-2.97,2.41-4.09
			c4.93-5.14,11.04-8.12,18.05-9.23c3.29-0.52,6.62-0.8,9.91-1.32c0.79-0.12,1.64-0.6,2.21-1.17c0.99-0.99,0.69-1.97-0.67-2.11
			c-3.2-0.33-6.48-1.04-9.6-0.64c-16.86,2.13-30.11,10.4-38.97,24.88c-9.47,15.47-10.01,31.92-2.39,48.18
			c9.19,19.62,25.32,29.24,46.84,29.64c11.63,0.22,22.34-2.85,31.41-10.53c3.5-2.97,6.43-6.34,7.9-10.79
			c1.58-4.8,1.67-9.51-0.9-14.04c-0.63-1.11-1.36-2.16-3.01-2.44c0.21,0.61,0.3,1.07,0.5,1.47c4.56,8.93,0.52,17.89-5.69,22.36
			c-5.85,4.2-12.42,5.11-19.37,3.83c-7.22-1.33-12.85-5.1-16.61-11.42c-2.33-3.92-1.36-7.97,2.27-10.71
			c3.76-2.84,7.93-3.28,12.41-2.17c0.71,0.18,1.55-0.14,2.33-0.23c-0.24-0.81-0.24-1.86-0.77-2.4c-1.31-1.33-2.82-2.48-4.33-3.59
			c-0.99-0.73-2.02-1.33-1.66-2.79c0.36-1.45,1.6-1.99,2.83-1.96c1.8,0.05,3.58,0.46,5.37,0.76c0.58,0.1,1.13,0.32,1.91,0.54
			c-1.71-3.45-5.63-5.04-9.22-3.95c-1.92,0.58-3.37,1.7-3.76,3.79c-0.41,2.16,0.48,3.75,2.29,4.92c1,0.65,1.93,1.39,3.19,2.31
			c-1.58,0-2.7-0.05-3.82,0.01c-5.47,0.27-9.78,2.64-11.72,7.84c-1.01,2.7-2.59,3.69-5.09,4c-1.01,0.13-2.03,0.31-3.04,0.33
			c-10.59,0.24-20.81-7.38-23.78-17.7c-2.95-10.26,1.61-21.85,10.86-27.41c5.6-3.37,11.55-4.89,18.05-3.01
			c5.82,1.68,9.86,5.48,12.83,10.61c0.46,0.8,1.09,1.71,1.87,2.09c3.75,1.81,5.59,4.7,5.51,8.86c-0.01,0.5,0.21,1,0.32,1.5
			c0.15-0.01,0.3-0.01,0.45-0.02c0.15-0.43,0.35-0.84,0.43-1.28c0.68-3.96-0.99-7.57-4.57-9.49c-1.57-0.84-2.44-2.05-3.25-3.59
			c-1.11-2.11-2.38-4.25-4.04-5.91c-3.08-3.08-7.02-4.7-11.33-5.35C162.03,66.97,160.71,66.85,159,66.65z M202.77,113.09
			c0.06-0.17,0.13-0.34,0.19-0.51c-0.55-0.47-1.09-0.95-1.66-1.4c-2.72-2.19-4.8-4.8-5.16-8.41c-0.44-4.45,2.89-7.43,7.25-6.61
			c2.73,0.52,5,1.88,7,3.76c0.55,0.51,1.05,1.1,1.67,1.51c0.34,0.23,0.94,0.32,1.3,0.17c0.24-0.09,0.38-0.73,0.36-1.11
			c-0.04-0.69-0.37-1.38-0.34-2.06c0.03-0.8,0.11-2.12,0.52-2.27c0.69-0.26,1.8,0.01,2.49,0.44c2.61,1.63,3.83,5.41,2.89,8.4
			c-0.21,0.67-0.36,1.37-0.53,2.06c0.2,0.11,0.4,0.23,0.6,0.34c0.58-0.74,1.31-1.42,1.71-2.25c1.91-4.01-1.09-10.66-5.34-11.99
			c-2.41-0.76-4.11,0.07-5,2.39c-0.11,0.28-0.28,0.53-0.4,0.77c-1.79-0.84-3.43-1.78-5.19-2.39c-3.54-1.23-6.79-0.24-9.1,2.27
			c-4.9,5.34-0.62,15.15,5.09,16.77C201.63,113.11,202.21,113.05,202.77,113.09z M197.98,63.62c0.6,4.25,4.79,7.08,9.05,6.23
			c4.35-0.86,7.08-5.13,6.05-9.47c-1.02-4.33-5.38-6.86-9.87-5.53c2.97,0.84,4.65,2.61,4.66,5.57c0.01,2.17-1.06,3.83-3.01,4.77
			C202.24,66.45,199.98,65.66,197.98,63.62z M150.96,57.14c0.15,0.21,0.3,0.41,0.45,0.62c0.8-0.23,1.59-0.48,2.4-0.69
			c3.21-0.85,6.38-2.12,9.64-2.4c3.59-0.31,7.26,0.28,10.89,0.49c1.08,0.06,2.12,0.04,2.45-1.25c0.37-1.4-0.8-1.58-1.68-1.88
			c-7.51-2.56-14.62-1.25-21.41,2.43C152.63,55.05,151.87,56.23,150.96,57.14z M154.42,77.61c-1.29,0.73-1.73,1.76-1.78,2.98
			c-0.1,2.11,0.88,3.63,2.78,4.46c2.32,1.02,4.6,0.64,6.24-1.03c2.63-2.68,2.61-6.89-0.03-9.59c-2.72-2.79-8.36-2.16-9.45,0.24
			c1.77,0,3.67-0.29,5.43,0.07c3,0.61,4.45,4.34,2.82,6.74c-0.91,1.35-2.24,1.85-3.79,1.5c-1.46-0.33-2.03-1.5-2.2-2.86
			C154.34,79.36,154.42,78.57,154.42,77.61z M160.56,49.87c4.61-0.03,9.03-0.12,13.46-0.06c1.6,0.02,3.19,0.59,4.78,0.56
			c1.15-0.02,2.33-0.54,3.42-1.02c0.37-0.16,0.73-0.92,0.66-1.33c-0.06-0.34-0.74-0.71-1.2-0.81c-6.19-1.32-12.28-0.97-18.22,1.23
			C162.44,48.82,161.5,49.4,160.56,49.87z M155.11,103.33c1.98,1.1,3.87,1.58,5.75,0.38c1.64-1.05,2.3-2.67,2.04-4.59
			c-0.11-0.84-0.3-1.79-1.7-1.8C161.03,101.14,158.74,102.85,155.11,103.33z M170.56,89.2c2.01,1.68,4.6,1.3,5.99-0.51
			c1.35-1.76,1.33-3.47-0.27-4.53C175.47,86.89,173.8,88.77,170.56,89.2z M225.8,85.32c0.32-1.02,0.64-2.05,0.93-3
			c-0.86-0.57-1.79-1.18-2.65-1.75c-0.83,0.66-1.71,1.36-2.46,1.96c0.36,0.99,0.73,2,1.08,2.96
			C223.68,85.43,224.75,85.37,225.8,85.32z M181.16,53.92c0.37,0.98,0.77,2.03,1.09,2.88c1.1,0,2.17,0,3.09,0
			c0.32-1.09,0.63-2.13,0.91-3.09c-0.89-0.59-1.83-1.21-2.63-1.74C182.8,52.63,181.95,53.29,181.16,53.92z M194.9,85.48
			c0.27-0.94,0.57-1.97,0.82-2.84c-0.84-0.58-1.69-1.17-2.42-1.67c-0.8,0.62-1.61,1.25-2.33,1.81c0.34,0.92,0.69,1.88,0.99,2.71
			C192.94,85.48,193.93,85.48,194.9,85.48z M170.07,99.63c0.95,0.92,2.05,1.17,2.94,0.42c0.64-0.54,1.06-1.55,1.21-2.42
			c0.12-0.66-0.4-1.54-1.3-0.82C171.9,97.63,171.05,98.66,170.07,99.63z M226.12,73.19c-0.47,0.38-0.97,0.78-1.41,1.13
			c0.25,0.63,0.46,1.15,0.64,1.62c0.6,0,1.17,0,1.74,0c0.17-0.62,0.33-1.2,0.48-1.74C227.07,73.86,226.6,73.53,226.12,73.19z
			 M197.36,56.97c-0.44,0.36-0.92,0.74-1.42,1.15c0.23,0.55,0.47,1.12,0.69,1.66c0.62-0.04,1.18-0.08,1.72-0.12
			c0.15-0.59,0.29-1.13,0.43-1.66C198.3,57.65,197.84,57.31,197.36,56.97z M213.41,74.13c0.22,0.55,0.45,1.12,0.65,1.61
			c0.63,0,1.19,0,1.75,0c0.15-0.61,0.3-1.21,0.44-1.77c-0.53-0.35-1-0.66-1.48-0.97C214.32,73.37,213.88,73.74,213.41,74.13z"/>
		<path class="st64" d="M174.96,154.67c-34.72-0.01-63.12-28.33-63.06-62.91c0.05-34.96,28.13-63.33,62.65-63.31
			c35.23,0.03,63.56,28.07,63.55,62.91C238.09,126.42,209.92,154.67,174.96,154.67z M175.02,34.43
			c-31.38-0.12-56.99,25.43-57.17,57.05c-0.18,31.11,25.44,57.01,56.54,57.16c31.71,0.15,57.56-25.13,57.71-56.45
			C232.25,60.22,206.89,34.55,175.02,34.43z M160.62,65.36c3.12-1.78,6.27-3.5,9.38-5.31c0.63-0.37,1.11-1.01,1.66-1.53
			c-0.65-0.47-1.3-1.34-1.94-1.34c-2.11,0.01-4.27,0.1-6.31,0.59c-2.02,0.49-3.87,1.63-5.86,2.24c-2.14,0.65-4.35,1.22-6.56,1.41
			c-1.84,0.16-2.78-1.09-2.19-2.83c0.49-1.48,1.34-2.97,2.41-4.09c4.93-5.14,11.04-8.12,18.05-9.23c3.29-0.52,6.62-0.8,9.91-1.32
			c0.79-0.12,1.64-0.6,2.21-1.17c0.99-0.99,0.69-1.97-0.67-2.11c-3.2-0.33-6.48-1.04-9.6-0.64c-16.86,2.13-30.11,10.4-38.97,24.88
			c-9.47,15.47-10.01,31.92-2.39,48.18c9.19,19.62,25.32,29.24,46.84,29.64c11.63,0.22,22.34-2.85,31.41-10.53
			c3.5-2.97,6.43-6.34,7.9-10.79c1.58-4.8,1.67-9.51-0.9-14.04c-0.63-1.11-1.36-2.16-3.01-2.44c0.21,0.61,0.3,1.07,0.5,1.47
			c4.56,8.93,0.52,17.89-5.69,22.36c-5.85,4.2-12.42,5.11-19.37,3.83c-7.22-1.33-12.85-5.1-16.61-11.42
			c-2.33-3.92-1.36-7.97,2.27-10.71c3.76-2.84,7.93-3.28,12.41-2.17c0.71,0.18,1.55-0.14,2.33-0.23c-0.24-0.81-0.24-1.86-0.77-2.4
			c-1.31-1.33-2.82-2.48-4.33-3.59c-0.99-0.73-2.02-1.33-1.66-2.79c0.36-1.45,1.6-1.99,2.83-1.96c1.8,0.05,3.58,0.46,5.37,0.76
			c0.58,0.1,1.13,0.32,1.91,0.54c-1.71-3.45-5.63-5.04-9.22-3.95c-1.92,0.58-3.37,1.7-3.76,3.79c-0.41,2.16,0.48,3.75,2.29,4.92
			c1,0.65,1.93,1.39,3.19,2.31c-1.58,0-2.7-0.05-3.82,0.01c-5.47,0.27-9.78,2.64-11.72,7.84c-1.01,2.7-2.59,3.69-5.09,4
			c-1.01,0.13-2.03,0.31-3.04,0.33c-10.59,0.24-20.81-7.38-23.78-17.7c-2.95-10.26,1.61-21.85,10.86-27.41
			c5.6-3.37,11.55-4.89,18.05-3.01c5.82,1.68,9.86,5.48,12.83,10.61c0.46,0.8,1.09,1.71,1.87,2.09c3.75,1.81,5.59,4.7,5.51,8.86
			c-0.01,0.5,0.21,1,0.32,1.5c0.15-0.01,0.3-0.01,0.45-0.02c0.15-0.43,0.35-0.84,0.43-1.28c0.68-3.96-0.99-7.57-4.57-9.49
			c-1.57-0.84-2.44-2.05-3.25-3.59c-1.11-2.11-2.38-4.25-4.04-5.91c-3.08-3.08-7.02-4.7-11.33-5.35c-1.31-0.2-2.62-0.32-4.33-0.52
			C159.73,66.06,160.13,65.64,160.62,65.36z M202.96,112.58c-0.55-0.47-1.09-0.95-1.66-1.4c-2.72-2.19-4.8-4.8-5.16-8.41
			c-0.44-4.45,2.89-7.43,7.25-6.61c2.73,0.52,5,1.88,7,3.76c0.55,0.51,1.05,1.1,1.67,1.51c0.34,0.23,0.94,0.32,1.3,0.17
			c0.24-0.09,0.38-0.73,0.36-1.11c-0.04-0.69-0.37-1.38-0.34-2.06c0.03-0.8,0.11-2.12,0.52-2.27c0.69-0.26,1.8,0.01,2.49,0.44
			c2.61,1.63,3.83,5.41,2.89,8.4c-0.21,0.67-0.36,1.37-0.53,2.06c0.2,0.11,0.4,0.23,0.6,0.34c0.58-0.74,1.31-1.42,1.71-2.25
			c1.91-4.01-1.09-10.66-5.34-11.99c-2.41-0.76-4.11,0.07-5,2.39c-0.11,0.28-0.28,0.53-0.4,0.77c-1.79-0.84-3.43-1.78-5.19-2.39
			c-3.54-1.23-6.79-0.24-9.1,2.27c-4.9,5.34-0.62,15.15,5.09,16.77c0.52,0.15,1.11,0.09,1.66,0.13
			C202.83,112.92,202.9,112.75,202.96,112.58z M207.03,69.85c4.35-0.86,7.08-5.13,6.05-9.47c-1.02-4.33-5.38-6.86-9.87-5.53
			c2.97,0.84,4.65,2.61,4.66,5.57c0.01,2.17-1.06,3.83-3.01,4.77c-2.61,1.26-4.88,0.46-6.88-1.58
			C198.58,67.87,202.77,70.69,207.03,69.85z M151.42,57.76c0.8-0.23,1.59-0.48,2.4-0.69c3.21-0.85,6.38-2.12,9.64-2.4
			c3.59-0.31,7.26,0.28,10.89,0.49c1.08,0.06,2.12,0.04,2.45-1.25c0.37-1.4-0.8-1.58-1.68-1.88c-7.51-2.56-14.62-1.25-21.41,2.43
			c-1.08,0.59-1.84,1.77-2.75,2.68C151.11,57.35,151.26,57.56,151.42,57.76z M152.64,80.59c-0.1,2.11,0.88,3.63,2.78,4.46
			c2.32,1.02,4.6,0.64,6.24-1.03c2.63-2.68,2.61-6.89-0.03-9.59c-2.72-2.79-8.36-2.16-9.45,0.24c1.77,0,3.67-0.29,5.43,0.07
			c3,0.61,4.45,4.34,2.82,6.74c-0.91,1.35-2.24,1.85-3.79,1.5c-1.46-0.33-2.03-1.5-2.2-2.86c-0.09-0.77-0.02-1.56-0.02-2.51
			C153.13,78.34,152.7,79.37,152.64,80.59z M174.02,49.81c1.6,0.02,3.19,0.59,4.78,0.56c1.15-0.02,2.33-0.54,3.42-1.02
			c0.37-0.16,0.73-0.92,0.66-1.33c-0.06-0.34-0.74-0.71-1.2-0.81c-6.19-1.32-12.28-0.97-18.22,1.23c-1.01,0.38-1.95,0.95-2.9,1.43
			C165.16,49.84,169.59,49.75,174.02,49.81z M160.86,103.7c1.64-1.05,2.3-2.67,2.04-4.59c-0.11-0.84-0.3-1.79-1.7-1.8
			c-0.17,3.82-2.46,5.53-6.09,6.01C157.09,104.43,158.98,104.91,160.86,103.7z M176.55,88.69c1.35-1.76,1.33-3.47-0.27-4.53
			c-0.81,2.73-2.47,4.61-5.72,5.04C172.57,90.88,175.16,90.5,176.55,88.69z M226.73,82.32c-0.86-0.57-1.79-1.18-2.65-1.75
			c-0.83,0.66-1.71,1.36-2.46,1.96c0.36,0.99,0.73,2,1.08,2.96c0.99-0.05,2.05-0.11,3.1-0.16C226.12,84.3,226.44,83.27,226.73,82.32
			z M182.25,56.8c1.1,0,2.17,0,3.09,0c0.32-1.09,0.63-2.13,0.91-3.09c-0.89-0.59-1.83-1.21-2.63-1.74
			c-0.83,0.65-1.68,1.32-2.47,1.94C181.53,54.89,181.93,55.94,182.25,56.8z M195.72,82.64c-0.84-0.58-1.69-1.17-2.42-1.67
			c-0.8,0.62-1.61,1.25-2.33,1.81c0.34,0.92,0.69,1.88,0.99,2.71c0.98,0,1.96,0,2.94,0C195.18,84.53,195.47,83.51,195.72,82.64z
			 M173.01,100.06c0.64-0.54,1.06-1.55,1.21-2.42c0.12-0.66-0.4-1.54-1.3-0.82c-1.02,0.82-1.88,1.84-2.85,2.81
			C171.02,100.56,172.13,100.8,173.01,100.06z M224.7,74.32c0.25,0.63,0.46,1.15,0.64,1.62c0.6,0,1.17,0,1.74,0
			c0.17-0.62,0.33-1.2,0.48-1.74c-0.5-0.34-0.96-0.67-1.45-1.01C225.65,73.57,225.14,73.97,224.7,74.32z M195.94,58.12
			c0.23,0.55,0.47,1.12,0.69,1.66c0.62-0.04,1.18-0.08,1.72-0.12c0.15-0.59,0.29-1.13,0.43-1.66c-0.48-0.35-0.95-0.68-1.42-1.03
			C196.92,57.33,196.44,57.72,195.94,58.12z M214.05,75.74c0.63,0,1.19,0,1.75,0c0.15-0.61,0.3-1.21,0.44-1.77
			c-0.53-0.35-1-0.66-1.48-0.97c-0.44,0.37-0.89,0.74-1.36,1.14C213.63,74.68,213.86,75.25,214.05,75.74z"/>
	</g>
</g>
</svg>
