<?xml version="1.0" encoding="utf-8"?>
<!-- Generator: Adobe Illustrator 27.8.1, SVG Export Plug-In . SVG Version: 6.00 Build 0)  -->
<svg version="1.1" xmlns="http://www.w3.org/2000/svg" xmlns:xlink="http://www.w3.org/1999/xlink" x="0px" y="0px"
	 viewBox="0 0 350 230" style="enable-background:new 0 0 350 230;" xml:space="preserve">
<style type="text/css">
	.st0{fill:#FFF4C5;}
	.st1{fill:#F1FFCC;}
	.st2{fill:#FFF9CF;}
	.st3{fill:#5B0034;}
	.st4{fill:#FFFDB8;}
	.st5{fill:#FEFFCF;}
	.st6{fill:#FFFFFF;}
	.st7{fill:#FCBEF3;}
	.st8{fill:#007769;}
	.st9{fill:#990000;}
	.st10{fill:#EE388C;}
	.st11{fill:#4862AD;}
	.st12{fill:#EE4B9B;}
	.st13{fill:#FAEE35;}
	.st14{fill:#01A79D;}
	.st15{fill:#8FC640;}
	.st16{fill:#EC2227;}
	.st17{fill:#E7BD20;}
	.st18{fill:#DC8927;}
	.st19{fill:#2F99D5;}
	.st20{fill:#663366;}
	.st21{fill:#FFC907;}
	.st22{fill:#4B83C3;}
	.st23{fill:#F0535B;}
	.st24{fill:#A92990;}
	.st25{fill:#E16E25;}
	.st26{fill:#426CB4;}
	.st27{fill:#E9292B;}
	.st28{fill:#0F77B7;}
	.st29{fill:#EF4A6C;}
	.st30{fill:#65C5B3;}
	.st31{fill:#965724;}
	.st32{fill:#F1A422;}
	.st33{fill:#18479E;}
	.st34{fill:#64C5B2;}
	.st35{fill:#FAE072;}
	.st36{fill:#EF496E;}
	.st37{fill:#231F20;}
	.st38{fill-rule:evenodd;clip-rule:evenodd;fill:#5C493A;}
	.st39{fill-rule:evenodd;clip-rule:evenodd;fill:#F26767;}
	.st40{fill-rule:evenodd;clip-rule:evenodd;fill:#87C443;}
	.st41{fill-rule:evenodd;clip-rule:evenodd;fill:#EE3E96;}
	.st42{fill-rule:evenodd;clip-rule:evenodd;fill:#2195D2;}
	.st43{fill-rule:evenodd;clip-rule:evenodd;fill:#FFCD05;}
	.st44{fill-rule:evenodd;clip-rule:evenodd;fill:#83C341;}
	.st45{fill-rule:evenodd;clip-rule:evenodd;fill:#0F77B7;}
	.st46{fill-rule:evenodd;clip-rule:evenodd;fill:#ED8D36;}
	.st47{fill-rule:evenodd;clip-rule:evenodd;fill:#3CA356;}
	.st48{fill-rule:evenodd;clip-rule:evenodd;fill:#7F4A25;}
	.st49{fill-rule:evenodd;clip-rule:evenodd;fill:#A3B539;}
	.st50{fill-rule:evenodd;clip-rule:evenodd;fill:#FAAF37;}
	.st51{fill-rule:evenodd;clip-rule:evenodd;fill:#0BB4A1;}
	.st52{fill:#00A9CB;}
	.st53{fill:#79AA41;}
	.st54{fill:#CD8F2A;}
	.st55{fill:#0393B0;}
	.st56{fill:#E82F7B;}
	.st57{fill:#D7DF2A;}
	.st58{fill:#8DC443;}
	.st59{fill:#F0A422;}
	.st60{fill:#3A3A3B;}
	.st61{fill:#29AAE1;}
	.st62{fill:#E9246E;}
	.st63{fill:url(#SVGID_1_);}
	.st64{fill:#00EFFF;}
	.st65{fill-rule:evenodd;clip-rule:evenodd;fill:url(#SVGID_00000042737819818562666940000008463464238913404835_);}
	.st66{fill-rule:evenodd;clip-rule:evenodd;fill:url(#SVGID_00000108994669300595083240000011313681055889291929_);}
	.st67{fill-rule:evenodd;clip-rule:evenodd;fill:url(#SVGID_00000157989294971916235980000013349341552052486785_);}
	.st68{fill-rule:evenodd;clip-rule:evenodd;fill:url(#SVGID_00000006672781902505951950000010451964574011541394_);}
	.st69{fill-rule:evenodd;clip-rule:evenodd;fill:url(#SVGID_00000001643220379151686690000016847548748085244316_);}
	.st70{fill-rule:evenodd;clip-rule:evenodd;fill:url(#SVGID_00000083798158884648820580000005804132855662942105_);}
	.st71{fill-rule:evenodd;clip-rule:evenodd;fill:url(#SVGID_00000088100265971535530850000003824286443297396401_);}
	.st72{fill-rule:evenodd;clip-rule:evenodd;fill:url(#SVGID_00000094588731518271318540000005986838496264905346_);}
	.st73{fill-rule:evenodd;clip-rule:evenodd;fill:url(#SVGID_00000116236302087762423390000010230518575457906597_);}
	.st74{fill:url(#SVGID_00000110472775233829185260000017665812649155252407_);}
	.st75{fill:#00889E;}
	.st76{fill:url(#SVGID_00000152942519458694464510000016758941245513222572_);}
	.st77{fill:url(#SVGID_00000053541377072998243180000007321269339522015930_);}
	.st78{fill:url(#SVGID_00000036947079451515899600000010314550398215621763_);}
	.st79{fill:#009AFF;}
	.st80{fill:url(#SVGID_00000150080529995598841980000005150465874313686452_);}
	.st81{fill:url(#SVGID_00000032625239100991109790000016743638682211257989_);}
	.st82{fill:#EF1A24;}
	.st83{fill:url(#SVGID_00000174565774171681206140000006240100279921823394_);}
	.st84{fill:url(#SVGID_00000062893165572573219020000007143123791192736678_);}
	.st85{fill-rule:evenodd;clip-rule:evenodd;fill:#1B2E7A;}
	.st86{fill-rule:evenodd;clip-rule:evenodd;fill:#FFFFFF;}
	.st87{fill-rule:evenodd;clip-rule:evenodd;fill:#FF004D;}
	.st88{fill:#1B2E7A;}
	.st89{fill-rule:evenodd;clip-rule:evenodd;fill:#FFD373;}
	.st90{fill-rule:evenodd;clip-rule:evenodd;fill:#EDB337;}
	.st91{fill-rule:evenodd;clip-rule:evenodd;fill:#FFEDB0;}
	.st92{fill:url(#SVGID_00000178885940070332127250000004797680044152672666_);}
	.st93{fill:#A25F00;}
	.st94{fill:#1B5302;}
	.st95{fill:#00AEEF;}
	.st96{fill:#ED1966;}
	.st97{fill:url(#SVGID_00000160153491581288444090000001504686442458371247_);}
	.st98{fill:url(#SVGID_00000041265145104335152190000005173269565201365393_);}
	.st99{fill:#79BACC;}
	.st100{fill:#E8E3D8;}
	.st101{fill:#F2B220;}
	.st102{fill:url(#SVGID_00000083065373065447640260000015689205221452290466_);}
	.st103{fill:url(#SVGID_00000035509680267905033580000018190495365755482783_);}
	.st104{fill:url(#SVGID_00000061442852939409387160000015992593920096671417_);}
	.st105{fill:url(#SVGID_00000048464312871504357460000007196522804139659413_);}
	.st106{fill:url(#SVGID_00000065760895798994844860000014938557751244102561_);}
	.st107{fill:url(#SVGID_00000039093453864110195470000002162200754666999175_);}
	.st108{fill:url(#SVGID_00000116936193876867593820000013535097885204404894_);}
</style>
<g id="Layer_1">
</g>
<g id="Layer_2">
</g>
<g id="Layer_3">
</g>
<g id="Layer_4">
</g>
<g id="Layer_5">
</g>
<g id="Layer_6">
</g>
<g id="Layer_7">
</g>
<g id="Layer_8">
</g>
<g id="Layer_9">
</g>
<g id="Layer_10">
</g>
<g id="Layer_11">
</g>
<g id="Layer_12">
</g>
<g id="Layer_13">
</g>
<g id="Layer_14">
</g>
<g id="Layer_15">
	<g>
		<radialGradient id="SVGID_1_" cx="195.7941" cy="87.3563" r="49.8726" gradientUnits="userSpaceOnUse">
			<stop  offset="0" style="stop-color:#FFFFFF"/>
			<stop  offset="0.0342" style="stop-color:#F6F0F3"/>
			<stop  offset="0.1911" style="stop-color:#CDB2C1"/>
			<stop  offset="0.3464" style="stop-color:#AA7B96"/>
			<stop  offset="0.4962" style="stop-color:#8E4F73"/>
			<stop  offset="0.6394" style="stop-color:#782D58"/>
			<stop  offset="0.7746" style="stop-color:#681444"/>
			<stop  offset="0.8982" style="stop-color:#5E0538"/>
			<stop  offset="1" style="stop-color:#5B0034"/>
		</radialGradient>
		<path class="st63" d="M161.69,56.75c-0.14,2.67,0.5,5.07,1.74,7.32c0.69,1.26,1.44,2.49,2.15,3.73c1.49,2.62,1.9,5.37,1.12,8.31
			c-0.54,2.06-0.14,2.55,1.97,2.58c1.23,0.02,2.28,0.22,2.77,1.58c0.26,0.71,0.94,0.89,1.67,0.79c0.6-0.08,1.21-0.17,1.81-0.25
			c0.14,0.17,0.28,0.34,0.42,0.52c-0.36,0.16-0.88,0.22-1.04,0.49c-0.23,0.4-0.39,1.05-0.21,1.4c0.17,0.34,0.82,0.61,1.25,0.6
			c1.3-0.04,1.57,0.1,1.84,1.42c0.32,1.55,1.4,2.36,2.9,1.93c1.19-0.35,2.38-0.86,3.41-1.55c4.41-2.93,7.68-6.81,9.38-11.9
			c0.07-0.22,0.21-0.41,0.44-0.82c0.24,0.83,0.44,1.45,0.6,2.08c1.04,4.03,2.14,8.05,3.09,12.11c1.07,4.58,0.38,8.91-2.33,12.84
			c-0.11,0.16-0.2,0.35-0.4,0.69c5.28-1.34,10.42-1.87,15.57-0.19c2.35,0.76,4.49,1.93,6.52,3.55c-0.17,0.04-0.25,0.08-0.31,0.07
			c-11.45-1.84-21.78,0.92-31,7.8c-5.84,4.36-9.97,10-11.7,17.19c-1.31,5.45-0.74,10.78,1.19,16c0.11,0.29,0.21,0.59,0.31,0.89
			c0.01,0.02-0.03,0.06-0.07,0.16c-3.31-3.04-5.52-6.71-6.38-11.1c-1.45-7.45,0.43-14.23,4.4-20.53c1.96-3.11,4.49-5.7,7.3-8.07
			c2.59-2.19,5.06-4.53,7.41-6.97c1.66-1.73,2.71-3.9,3.04-6.35c0.25-1.87-0.19-3.62-0.87-5.33c-0.32-0.82-0.93-0.92-1.61-0.51
			c-0.81,0.49-1.58,1.04-2.35,1.59c-2.11,1.49-4.39,2.45-7.05,2.3c-1.5-0.08-2.7-0.67-3.55-1.92c-0.77-1.13-1.49-2.27-2.86-2.83
			c-0.43-0.18-0.68-0.77-1.02-1.17c-1.33-1.58-2.75-2.85-5-3.12c-2.51-0.3-3.38-1.58-3.36-4.13c0.01-2.03,0.2-4.06,0.03-6.07
			c-0.08-1.02-0.59-2.13-1.23-2.95c-6.1-7.89-6.45-16.24-1.68-24.75c4.41-7.86,11.17-12.89,20.03-14.71
			c8.04-1.65,15.88-0.93,23.02,3.49c8.78,5.44,13.34,13.43,13.84,23.73c0.1,2.06,0.22,2.22,2.26,2.5
			c13.88,1.91,20.39,17.55,12.01,28.84c-1.75,2.36-1.75,2.36,0.06,4.58c5.52,6.75,4.7,14.86-2.07,20.55
			c-2.5,2.1-5.38,3.48-8.43,4.63c-1.37,0.52-2.73,1.33-3.8,2.33c-1.87,1.75-1.25,4.16,1.16,5.08c2.1,0.8,4.14,0.43,5.92-0.76
			c1.55-1.03,2.88-2.39,4.15-3.48c-0.05,3.31-3.67,7.27-7.54,7.97c-2.03,0.37-3.98,0.14-5.83-0.78c-3.1-1.53-4.58-4.59-3.82-7.95
			c0.52-2.32,1.59-4.34,3.43-5.89c1.31-1.11,2.68-2.15,4-3.25c3.34-2.78,3.84-5.42,1.93-9.3c-1.23-2.48-3.03-4.44-5.15-6.15
			c-0.87-0.7-1.75-1.41-2.67-2.05c-6.4-4.46-10.37-10.63-12.5-18.02c-0.82-2.85-1.32-5.8-1.94-8.71c-0.08-0.35-0.01-0.74-0.01-1.27
			c0.33,0.17,0.58,0.22,0.72,0.37c2.09,2.22,4.75,3.42,7.59,4.32c2.1,0.66,4.25,1.21,6.32,1.96c7.64,2.73,10.45,9.08,7.42,16.63
			c-0.13,0.31-0.25,0.63-0.3,0.98c2.33-1.69,3.74-3.99,4.3-6.78c1.34-6.71-2.53-13.07-9.09-15.03c-1.95-0.58-3.9-1.14-5.84-1.75
			c-2.23-0.7-4.26-1.74-6.05-3.29c-1.83-1.59-4.03-1.99-6.32-1.4c-1.89,0.48-3.73,1.18-5.55,1.92c-4.59,1.85-9.33,2.82-14.28,2.28
			c-5.97-0.65-10.63-3.69-14.42-8.21c-0.2-0.24-0.41-0.48-0.62-0.71C161.93,56.8,161.88,56.8,161.69,56.75z M209.91,57.45
			c-2.16-2.79-5.02-4.37-8.55-4.64c-4.69-0.36-8.92,1.11-12.9,3.4c-7.67,4.43-17.36,2.46-22.64-4.65c-0.26-0.36-0.53-0.71-0.79-1.07
			c0.29,2.95,1.62,5.36,3.9,7.14c5.31,4.14,11.23,4.91,17.55,2.83c2.16-0.71,4.23-1.67,6.36-2.46c3.74-1.39,7.57-2.39,11.6-1.81
			C206.26,56.46,208.03,57.01,209.91,57.45z"/>
		
			<radialGradient id="SVGID_00000098900170387237082610000012647428445895594175_" cx="144.6674" cy="121.4937" r="32.7218" gradientUnits="userSpaceOnUse">
			<stop  offset="0" style="stop-color:#FFFFFF"/>
			<stop  offset="0.0128" style="stop-color:#F3F0FF"/>
			<stop  offset="0.0467" style="stop-color:#D8CDFF"/>
			<stop  offset="0.0841" style="stop-color:#C1B0FF"/>
			<stop  offset="0.1252" style="stop-color:#AE97FF"/>
			<stop  offset="0.1715" style="stop-color:#9F85FF"/>
			<stop  offset="0.2261" style="stop-color:#9578FF"/>
			<stop  offset="0.2967" style="stop-color:#8F70FF"/>
			<stop  offset="0.4413" style="stop-color:#8D6EFF"/>
			<stop  offset="1" style="stop-color:#38003D"/>
		</radialGradient>
		<path style="fill:url(#SVGID_00000098900170387237082610000012647428445895594175_);" d="M159.57,104.03c0-1-0.05-2.01,0.01-3.01
			c0.05-0.83,0.17-1.67,0.38-2.47c0.08-0.29,0.54-0.71,0.77-0.67c0.33,0.05,0.77,0.41,0.87,0.73c0.21,0.67,0.23,1.4,0.5,2.13
			c0.11-0.56,0.19-1.13,0.34-1.68c0.12-0.43,0.23-0.9,0.49-1.25c0.55-0.73,1.41-0.54,1.66,0.33c0.13,0.45,0.15,0.94,0.27,1.72
			c0.23-0.63,0.3-1.01,0.5-1.3c0.24-0.33,0.6-0.58,0.91-0.86c0.31,0.37,0.86,0.73,0.88,1.12c0.05,0.75-0.19,1.51-0.31,2.27
			c-0.04,0.23-0.07,0.47,0.1,0.82c0.29-0.35,0.52-0.77,0.88-1.04c0.34-0.25,0.81-0.34,1.22-0.51c0.13,0.43,0.45,0.91,0.36,1.28
			c-0.19,0.76-0.61,1.47-0.95,2.22c0.12,0.06,0.2,0.12,0.29,0.15c0.51,0.15,1.37,0.2,1.45,0.47c0.14,0.47-0.11,1.15-0.4,1.61
			c-0.46,0.73-1.03,1.43-1.67,2.02c-2.22,2.03-3.35,4.62-3.97,7.48c-0.35,1.61-0.69,3.22-1.08,4.82c-0.67,2.78-2.08,5.19-3.87,7.39
			c-1.98,2.44-4.63,3.78-7.65,4.48c-2.83,0.66-2.84,0.68-1.42,3.15c1.43,2.49,2.88,4.97,4.31,7.46c0.22,0.39,0.36,0.82,0.65,1.5
			c-1.43-0.68-2.67-1.2-3.83-1.84c-1.69-0.93-3.36-1.89-4.97-2.93c-2.75-1.78-4.8-4.17-5.93-7.29c-1.5-4.14-4.4-7.13-8.01-9.44
			c-1.98-1.27-3.31-2.96-4.36-4.98c-0.73-1.4-1.51-2.76-2.31-4.12c-0.37-0.63-0.91-1.16-1.72-0.85c-0.84,0.31-0.78,1.03-0.65,1.77
			c0.42,2.48,1.52,4.66,3.04,6.61c1.44,1.85,3.02,3.59,4.51,5.41c0.93,1.13,1.81,2.31,2.71,3.46c-0.06,0.09-0.12,0.18-0.18,0.26
			c-0.53-0.27-1.09-0.48-1.57-0.81c-3.21-2.16-5.72-5.03-8.11-8.03c-0.21-0.27-0.43-0.53-0.83-0.72c0.14,0.45,0.27,0.9,0.43,1.35
			c2.8,8.23,8.26,14.27,15.52,18.83c7.2,4.52,15.11,7.15,23.41,8.64c4.06,0.73,8.19,1.06,12.29,1.56c0.48,0.06,0.96,0.09,1.51,0.32
			c-0.66,0.36-1.3,0.75-1.98,1.08c-6.36,3.13-13.06,3.54-19.79,1.82c-14.72-3.78-25.78-12.39-32.89-25.89
			c-1.81-3.44-2.76-7.17-3.09-11.06c-0.04-0.43-0.22-0.88-0.43-1.27c-1.05-1.98-2.13-3.94-3.2-5.91
			c-3.62-6.69,0.18-17.86,7.99-21.14c6.2-2.6,12.12-2.43,17.83,1.26c3.02,1.95,4.7,4.72,4.96,8.34c0.06,0.9,0.23,1.81,0.42,2.7
			c0.26,1.22,0.88,2.22,2.02,2.8c0.91,0.46,1.22,1.1,1.01,2.14c-0.15,0.74-0.13,1.55-0.03,2.3c0.75,5.47-3,9.79-8.66,10.68
			c-0.96,0.15-1.95,0.18-3.02,0.28c0.14,0.16,0.24,0.33,0.38,0.43c3.81,2.81,7.97,3.64,12.38,1.74c4.4-1.9,6.87-5.36,7.54-10.12
			c0.32-2.25-0.13-4.38-0.8-6.5c-0.17-0.53-0.43-1.08-0.41-1.61c0.01-0.41,0.3-1.02,0.63-1.16c0.33-0.14,0.94,0.09,1.28,0.35
			c0.39,0.3,0.62,0.81,0.93,1.22C159.28,104.06,159.42,104.04,159.57,104.03z"/>
	</g>
</g>
</svg>
