<svg id="Layer_1" data-name="Layer 1" xmlns="http://www.w3.org/2000/svg" viewBox="0 0 300 300">
  <defs>
    <style>
      .cls-1 {
        fill: #fff;
      }

      .cls-1, .cls-2, .cls-3 {
        fill-rule: evenodd;
      }

      .cls-2 {
        fill: #a2be3b;
      }

      .cls-3 {
        fill: #0071a9;
      }
    </style>
  </defs>
  <title>1-03</title>
  <g>
    <polygon class="cls-1" points="109.1 185.7 108.4 180.5 107.1 179.1 102 178.2 107.2 177.6 108.5 176.3 109.4 171.2 110 176.3 111.3 177.7 116.5 178.6 111.3 179.2 109.9 180.5 109.1 185.7"/>
    <path class="cls-2" d="M84,137.9,65.9,151.8V233H66l30.3-17.5V128.4l26.4,20.4v51.4l7.7-4.4,2.5,1.4V83.1L84,120.7Zm39,0,1.4-1.3.9-5.1.6,5.2,1.3,1.3,5.1.9-5.2.7-1.3,1.2-.9,5.2-.6-5.2-1.3-1.3-5.2-.9Zm168.9,20.5-49.2,28.4a1.5,1.5,0,0,1-2-.5l-3-5.2a1.4,1.4,0,0,1,.6-2L261,165.9l-11.7-20.2a.6.6,0,0,1,0-.6l-20.5-35.4,3.3-1.9,20.4,35.5.6.3,11.6,20.2,22.7-13.1a1.5,1.5,0,0,1,2.1.5l3,5.2A1.5,1.5,0,0,1,291.9,158.4ZM82.8,96.5l-4.5-.8,4.6-.6L84,94l.8-4.5.6,4.5,1.1,1.2L91,96l-4.5.6-1.2,1.1-.8,4.5L84,97.7Z"/>
    <path class="cls-3" d="M182.7,233c-2.5,1-5.1,1.9-7.6,2.7L130.4,210l-53,30.6L69,238.3l61.4-35.5Zm-13.1-29.8-13.1,7.6,6.2,3.5,6.9-3.9,27.9,16.1,6.4-3.4ZM125,226.7v4.5h4.5v-4.5Zm6.4,0v4.5h4.4v-4.5Zm4.4,6.4h-4.4v4.5h4.4v-4.5Zm-6.3,0H125v4.5h4.5Zm90.6-73.6,2.3-2.1,8.7-1.1-8.7-1.5-2.2-2.3-1-8.8-1.5,8.7-2.3,2.2-8.8,1.1,8.7,1.5,2.2,2.3,1,8.8Zm-18.8-44.9L203,113l6.5-.8-6.5-1.1-1.6-1.7-.8-6.6-1.1,6.5-1.7,1.6-6.6.8,6.5,1.1,1.6,1.8.8,6.5ZM53.6,213.2l1.8-1.6,6.7-.8-6.7-1.2-1.6-1.7-.8-6.7-1.2,6.6-1.7,1.7-6.7.8,6.6,1.1,1.7,1.8.8,6.7Zm16.2,50.2,1.4-1.2,5.2-.7-5.2-.9-1.3-1.3-.6-5.2-.9,5.1-1.3,1.3-5.2.7,5.1.9,1.3,1.3.7,5.2ZM212,136.8v83.9l-34.3-19.8V110.4l-21.9,16.8v76.9l-5.4,3.2L143,203V118.9l.3,2.5.9-5.1,1.4-1.3,5.2-.7-5.2-.9-1.3-1.3-.6-5.2-.7,3.9V44.9L122.7,60.6V85.9l-7.8,6V57.2L143,35.5l52.4,40.3V124ZM165.7,79.4,153.5,70V82.1l12.2,9.4Zm0-14.7-12.2-9.4V67.4l12.2,9.4Zm11.9,23.9-10.3-8V92.7l10.3,8Zm0-14.7-10.3-8V78l10.3,8ZM191.3,162v-9.4l-7.6-5.8v9.4Zm-7.6-3.1v8.2l7.6,5.8v-8.2Zm7.6-8.9v-9.5l-7.6-5.8v9.5Zm0-12.1v-8.7l-7.6-5.8v8.7ZM179.2,87.2l8.6,6.6v-12l-8.6-6.7Zm0,14.7,8.6,6.6v-12l-8.6-6.7Zm15.4,96.3-5.1-.9-1.3-1.3-.6-5.2-.9,5.1-1.4,1.3-5.2.7,5.2.8,1.3,1.4.6,5.2.9-5.2,1.4-1.3Zm4.5-27.5L193,166v8.2l6.1,4.7Zm0-12.1-6.1-4.7v9.4l6.1,4.8Zm0-12-6.1-4.8v9.5l6.1,4.7Zm0-11.4-6.1-4.7v8.7l6.1,4.7Zm8.2,41.8-6.5-5v8.2l6.5,5Zm0-12.1-6.5-5v9.5l6.5,5Zm0-12-6.5-5v9.4l6.5,5Zm0-11.4-6.5-5v8.7l6.5,5Zm-7.7,89.7.2-1.1c-1.9,1.1-4,2-6,3l4.5-.6Zm-26.7,26.1-5-.9-1.3-1.3-.6-5.2-.9,5.1-1.3,1.3-5.2.7,5.1.9.7.6c-54.6,6.8-115.4-6.1-157.1-51C60,258,138.8,258.1,193.5,233.2l4.7.8,1.3,1.4.7,5.2.9-5.2,1.3-1.3,5.2-.6-5.1-.9-1.3-1.3-.2-1.7c21.1-11.1,38-26,47.1-43.2l41.3-23.8C292.4,207.7,238.3,246.6,172.9,257.3ZM250,221.5l-5.1-.9-1.3-1.4-.7-5.1-.9,5.1-1.3,1.3-5.2.6,5.2.9,1.2,1.4.7,5.2.9-5.2,1.3-1.3Zm26.4-24-5.1-.9-1.3-1.3-.7-5.2-.8,5.1-1.4,1.3-5.2.7,5.2.8,1.2,1.4.7,5.2.9-5.2,1.3-1.3ZM167.8,258.1l4-.6-3.9.5ZM270.3,139.8l1.7-1.6,6.5-.8-6.5-1.1-1.6-1.7-.8-6.5-1.1,6.4-1.7,1.7-6.5.8,6.4,1.1,1.7,1.7.8,6.5Z"/>
  </g>
</svg>
