<svg id="Layer_1" data-name="Layer 1" xmlns="http://www.w3.org/2000/svg" viewBox="0 0 300 300">
  <defs>
    <style>
      .cls-1 {
        fill: #52c9ed;
      }

      .cls-2 {
        fill: #231f20;
      }
    </style>
  </defs>
  <title>1-20</title>
  <g>
    <path class="cls-1" d="M119.2,204.5c-8.4,1.5-9.5,2.6-11,11-1.4-8.4-2.5-9.5-10.9-11,8.4-1.4,9.5-2.5,10.9-10.9C109.7,202,110.8,203.1,119.2,204.5Z"/>
    <path class="cls-1" d="M50,47.6A100.5,100.5,0,0,1,63.7,56l6.4,4.8c2.2,1.7,4.2,3.4,6.2,5.1A283.8,283.8,0,0,1,99.2,88.2a298.9,298.9,0,0,1,20.4,24.6c6.3,8.6,12.3,17.5,17,27.2-7.2-8-14.3-15.7-21.5-23.4l-21.6-23L71.7,70.8ZM171.6,163.8c-1.6,9.5-2.9,10.8-12.3,12.4,9.4,1.6,10.7,2.8,12.3,12.3,1.6-9.5,2.9-10.7,12.3-12.3C174.5,174.6,173.2,173.3,171.6,163.8Zm57,66.4c-15.7,18.3-38.3,27.7-61.2,28h-1.3c-22.9-.3-45.5-9.7-61.2-28C85.4,207.6,82.1,183.4,87.1,160L76.7,146.8c-9.8-12.5-19.5-24.9-29.6-37.5a160.3,160.3,0,0,1,19.3,14.6c3,2.6,6.1,5.3,8.9,8.1l4.4,4.1,4.2,4.3a415.7,415.7,0,0,1,31.5,36.3A448.2,448.2,0,0,1,143.1,216,290.7,290.7,0,0,1,164,254.4l77.8-59.7h-.1a520,520,0,0,0-34-45c-6-7.3-12.3-14.3-18.6-21.2s-12.8-13.7-19.3-20.4c-13.2-13.4-26.9-26.3-40.6-39.2S101.6,43.2,87.4,30.6a209,209,0,0,1,24.5,14.7c7.9,5.4,15.5,11.1,23,17l5.2,4.3c6.2-7.9,11.1-14.5,13.5-19.3,5.1-7.7,9.1-17.4,12.5-26.7a13.4,13.4,0,0,1,.7-1.8l.6,1.8c3.4,9.3,7.4,19,12.5,26.7C194,74.9,289,160.2,228.6,230.2ZM214.4,112.1c-8.5-1.4-9.7-2.6-11.1-11.1-1.4,8.5-2.6,9.7-11.1,11.1,8.5,1.5,9.7,2.6,11.1,11.1C204.7,114.7,205.9,113.6,214.4,112.1ZM90.9,252.5c-1.8,10.9-3.3,12.4-14.2,14.2,10.9,1.8,12.4,3.3,14.2,14.1,1.8-10.8,3.3-12.3,14.2-14.1C94.2,264.9,92.7,263.4,90.9,252.5Zm80-41.3c-1,5.8-1.8,6.6-7.6,7.6,5.8,1,6.6,1.8,7.6,7.7,1-5.9,1.8-6.7,7.7-7.7C172.7,217.8,171.9,217,170.9,211.2Zm42.5-28.5c-1,5.9-1.8,6.7-7.6,7.7,5.8,1,6.6,1.8,7.6,7.6,1-5.8,1.8-6.6,7.7-7.6C215.2,189.4,214.4,188.6,213.4,182.7Z"/>
    <path class="cls-2" d="M230.5,256.1l13.6,18.4a3.4,3.4,0,0,1-.9,4.8l-1.7,1.3a3.5,3.5,0,0,1-4.8-.8L223,261.3Zm12.4-63-82,58.2a1.8,1.8,0,0,0-.4,2.5l7.1,9.7a1.8,1.8,0,0,0,2.5.4l4.7-3.3,9.8,2,14.8,2.9a8.2,8.2,0,0,0,6.6-1.4l32.7-23.2a8.3,8.3,0,0,0,3.5-5.8l2.1-14.8,1.4-10,6.4-4.6a1.8,1.8,0,0,0,.5-2.6l-7.1-9.6A1.9,1.9,0,0,0,242.9,193.1Z"/>
  </g>
</svg>
