<svg id="Layer_1" data-name="Layer 1" xmlns="http://www.w3.org/2000/svg" xmlns:xlink="http://www.w3.org/1999/xlink" viewBox="0 0 300 300">
  <defs>
    <style>
      .cls-1 {
        fill: url(#linear-gradient);
      }

      .cls-2 {
        fill: url(#linear-gradient-2);
      }

      .cls-3 {
        fill: url(#linear-gradient-3);
      }

      .cls-4 {
        fill: url(#linear-gradient-4);
      }

      .cls-5 {
        fill: #46a5dc;
      }

      .cls-6 {
        fill: #fff;
      }

      .cls-7 {
        fill: url(#linear-gradient-5);
      }
    </style>
    <linearGradient id="linear-gradient" x1="144.53" y1="178.59" x2="144.53" y2="154.06" gradientTransform="translate(1.1 -0.3)" gradientUnits="userSpaceOnUse">
      <stop offset="0" stop-color="#3453a4"/>
      <stop offset="1" stop-color="#436bb4"/>
    </linearGradient>
    <linearGradient id="linear-gradient-2" x1="155.36" y1="178.59" x2="155.36" y2="154.06" xlink:href="#linear-gradient"/>
    <linearGradient id="linear-gradient-3" x1="144.53" y1="178.59" x2="144.53" y2="154.06" xlink:href="#linear-gradient"/>
    <linearGradient id="linear-gradient-4" x1="155.35" y1="178.59" x2="155.35" y2="154.06" xlink:href="#linear-gradient"/>
    <linearGradient id="linear-gradient-5" x1="205.41" y1="158.18" x2="53.25" y2="154.64" gradientTransform="matrix(1, 0, 0, 1, 0, 0)" xlink:href="#linear-gradient"/>
  </defs>
  <title>1-21</title>
  <g>
    <g>
      <rect class="cls-1" x="140.8" y="144.1" width="9.5" height="12.99" transform="translate(-0.4 0.4) rotate(-0.2)"/>
      <rect class="cls-2" x="151.7" y="144.1" width="9.5" height="12.99" transform="translate(-0.4 0.4) rotate(-0.2)"/>
      <rect class="cls-3" x="140.9" y="158.6" width="9.5" height="12.99" transform="translate(-0.4 0.4) rotate(-0.2)"/>
      <rect class="cls-4" x="151.7" y="158.5" width="9.5" height="12.99" transform="translate(-0.4 0.4) rotate(-0.2)"/>
    </g>
    <path class="cls-5" d="M227,183.9l-74.1-70.3L79.3,184.3H63.8l89.1-85.6,89.5,85.1ZM141.1,68.1c-8.1-9-25.9-7.9-23.1-1.3S132,60.6,141.1,68.1Zm4.8-19.9c-5.4-5.2-8.5,7.9-2,15.1C138.2,54.5,150.1,52.3,145.9,48.2Zm-7.5,13.7c-3.7-7.6-9.2-7-9-4.7S135,57.3,138.4,61.9ZM137,55.7c-4.2-4.5.5-9.2-2.9-10S132.3,51.8,137,55.7Zm-3.6,21.9c3.9,1.5-.5-5.8,4.6-8.4C133.3,69.7,129.5,76.1,133.4,77.6Z"/>
    <path class="cls-6" d="M294.8,137.4a14.9,14.9,0,0,1,.2,2.1,14.8,14.8,0,0,1,.1,2.1v2.1a16.2,16.2,0,0,1-.3,2c-.1-.7-.1-1.4-.2-2s-.1-1.4-.1-2.1a14.8,14.8,0,0,1,.1-2.1A14.9,14.9,0,0,1,294.8,137.4Z"/>
    <path class="cls-7" d="M120.3,133.7,72.2,180.1H59.6L40.9,139,22.4,180.2H16.8L38.6,134ZM39.8,161.4H36.1v5h3.6Zm4.2,0H40.3v5H44ZM39.8,167H36.2v5h3.6Zm4.2,0H40.3v5H44Zm236.1,40.7c0,1.3-.1,2.7-.2,4.2,0,12.6-2.5,27.4-9.1,34.4l.5.4a15.7,15.7,0,0,1-1.2,1.9c3.8,2.8,5.6,5.9.2,5.7-1.6-.8-12.1-5.3-12.5-5.9-1.7-4.5,1.1-5,4.8-3.8a19.8,19.8,0,0,1,2.4-7.1c.8-3.6,1.6-6.9,2.5-10l-13.8-12.6c-4.6-4.2-1.6-16.6-.4-24.5-2-2-3.3-3.8-3.5-5.6,2.3-2.2,1.1-9,1.9-14.2h-.1l-3.2-2.9-.5-.5-1-.9.7-.8-2.2-2.1h0l-46.3-42-2.6,2.8-.7-.7,2.5-2.8-1.3-1.3-2.2,2.4-.4-.3,2.2-2.4-1.1-1-2.1,2.4-.4-.4,2.1-2.3-1.1-1-2.1,2.3-.4-.3,2.2-2.4-1.1-1-2.2,2.4-.4-.3,2.2-2.4-1.1-1-2.2,2.4-.3-.4,2.1-2.4-1.1-.9-2.1,2.3-.4-.3,2.1-2.4-1-1-2.2,2.4-.4-.4,2.2-2.3-1.1-1-2.2,2.4-.4-.4,2.2-2.4-1.1-.9-2.1,2.3-.4-.3,2.1-2.4-1.1-1-2.1,2.4-.4-.4,2.2-2.3-1.1-1-2.2,2.3-.4-.3,2.2-2.4-1.1-1-2.2,2.4-.3-.3,2.1-2.4-1.1-1-2.1,2.4-.4-.4,2.1-2.3-1-1-2.2,2.3-.4-.3,2.2-2.4-1.1-1-2.2,2.4-.4-.4,2.2-2.3-1.1-1-2.1,2.4-.4-.4,2.1-2.4-1.1-.9-2.1,2.3-.4-.3,2.1-2.4-1-1-2.2,2.4-.4-.4,2.2-2.3-1.1-1-2.2,2.3-.3-.3,2.1-2.4-1.1-1-2.1,2.4-.4-.3,2.1-2.4-1.1-1-2.1,2.4-.4-.4,2.2-2.3-1.1-1-2.2,2.3-.4-.3,2.2-2.4-1.1-1-2.1,2.4-.4-.3,2.1-2.4-1.1-1L161,91.2l-.4-.4,2.1-2.4-1-.9-2.2,2.3-.4-.3,2.2-2.4-1.1-1L158,88.5l-.3-.4,2.1-2.3-1.3-1.2L156,87.4l-.8-.7,2.5-2.8-2.3-2.1a8.6,8.6,0,0,1-1.3,1.4L139,72.2l1.6-1.8h0l7.5-8.2,12.4,14-1.3,1.4,2.3,2.1,2.6-2.8.7.7-2.5,2.8,1.3,1.2,2.1-2.4.4.4L164,82l1.1.9,2.1-2.3.4.3-2.2,2.4,1.1,1,2.2-2.4.4.4-2.2,2.3,1.1,1,2.2-2.4.3.4L168.4,86l1.1,1,2.1-2.4.4.3-2.1,2.4,1.1,1,2.1-2.4.4.4-2.2,2.3,1.1,1,2.2-2.3.4.3L172.8,90l1.1,1,2.1-2.4.4.3-2.1,2.4,1.1,1,2.1-2.4.4.4-2.1,2.4,1,.9,2.2-2.3.4.3L177.2,94l1.1,1,2.2-2.4.3.4-2.1,2.3,1.1,1,2.1-2.4.4.4-2.1,2.4,1.1.9,2.1-2.3.4.3L181.6,98l1.1,1,2.2-2.4.4.4-2.2,2.3,1.1,1,2.1-2.3.4.3-2.1,2.4,1.1,1,2.1-2.4.4.3-2.1,2.4,1,1,2.2-2.4.4.4-2.2,2.3,1.1,1,2.2-2.3.3.3-2.1,2.4,1.1,1,2.1-2.4.4.4-2.1,2.3,1.1,1,2.1-2.4.4.4-2.2,2.4,1.1.9,2.2-2.3.4.3-2.2,2.4,1.1,1,2.1-2.4.4.4-2.1,2.3,1.1,1,2.1-2.3.4.3-2.1,2.4,1,1,2.2-2.4.4.3-2.2,2.4,1.1,1,2.2-2.4.3.4-2.1,2.3,1.1,1,2.1-2.3.4.3-2.1,2.4,1.3,1.2,2.6-2.8.7.7-2.5,2.8,48.5,44.1.8-.9,4.2,3.8a6,6,0,0,1,2.4-.2C303.6,198.8,292.4,208,280.1,207.7Zm-8.5.4-.4-.4v-2a9.5,9.5,0,0,1-1.7-1,92.8,92.8,0,0,0-11.7-10.3c-2,12.1-4.4,15,11.1,28.1A62.8,62.8,0,0,0,271.6,208.1Zm-8.3-9.1h0l-1-.8s-2.8,5.1,3.7,11.8c0,0-2-4.9.6-7.9Zm-19.1-18.9H5.2V185h239Z"/>
  </g>
</svg>
