<?xml version="1.0" encoding="utf-8"?>
<!-- Generator: Adobe Illustrator 27.8.1, SVG Export Plug-In . SVG Version: 6.00 Build 0)  -->
<svg version="1.1" xmlns="http://www.w3.org/2000/svg" xmlns:xlink="http://www.w3.org/1999/xlink" x="0px" y="0px"
	 viewBox="0 0 350 230" style="enable-background:new 0 0 350 230;" xml:space="preserve">
<style type="text/css">
	.st0{fill:#D2FCFF;}
	.st1{fill:#ECFCD4;}
	.st2{fill:#FFFDC7;}
	.st3{fill:#FFE0C7;}
	.st4{fill:#D4F9F7;}
	.st5{fill:#F7F9D4;}
	.st6{fill:#DBF9D4;}
	.st7{fill:#ADF7BD;}
	.st8{fill:#F9F3AC;}
	.st9{fill:#E6007E;}
	.st10{fill:#FFED00;}
	.st11{fill:#009FE3;}
	.st12{fill:#A6A6ED;}
	.st13{fill:#F7595F;}
	.st14{fill:#F2BD65;}
	.st15{fill:#560033;}
	.st16{fill:#FFFFFF;}
	.st17{fill:#062BB5;}
	.st18{fill:#006D6D;}
	.st19{fill:#00B1FF;}
	.st20{fill:#2A8E00;}
	.st21{fill:#A09002;}
	.st22{fill:#FFCE00;}
	.st23{fill:#23D513;}
	.st24{fill:#E33056;}
	.st25{fill:#4399DE;}
	.st26{fill:none;stroke:#1D1D1B;stroke-width:1.6634;stroke-miterlimit:10;}
	.st27{fill:none;stroke:#1D1D1B;stroke-width:1.2062;stroke-miterlimit:10;}
	.st28{fill:none;stroke:#1D1D1B;stroke-width:1.6634;stroke-linecap:round;stroke-linejoin:round;stroke-miterlimit:10;}
	.st29{fill:#23D513;stroke:#FFFFFF;stroke-width:1.5;stroke-miterlimit:10;}
	.st30{fill:#FFCE00;stroke:#FFFFFF;stroke-width:1.5;stroke-miterlimit:10;}
	.st31{fill:#4399DE;stroke:#FFFFFF;stroke-width:1.5;stroke-miterlimit:10;}
	.st32{fill:#E33056;stroke:#FFFFFF;stroke-width:1.5;stroke-miterlimit:10;}
	.st33{fill:#005D72;}
	.st34{fill:#1C0007;}
	.st35{fill:url(#SVGID_1_);stroke:#539873;stroke-width:0.0823;}
	.st36{opacity:0.5325;fill:#0D2B5E;enable-background:new    ;}
	.st37{opacity:0.5325;fill:#FFFFFF;enable-background:new    ;}
	.st38{opacity:0.1774;fill:#89E2FF;enable-background:new    ;}
	.st39{fill:url(#path45522_00000081631327210301339870000007075222084242882969_);}
	.st40{fill:url(#path45518_00000157998894513331211250000017945542315140410813_);}
	.st41{opacity:0.401;fill:#FEAE53;enable-background:new    ;}
	
		.st42{fill:url(#SVGID_00000033341740813776648340000017785649681549751430_);stroke:#93A8B1;stroke-width:0.0823;stroke-opacity:0.8667;}
	.st43{opacity:0.6876;fill:#641991;enable-background:new    ;}
	.st44{opacity:0.428;fill:#B51238;enable-background:new    ;}
	.st45{fill:url(#SVGID_00000059269253855523577230000005053543391072685208_);}
	.st46{opacity:0.1774;fill:#40E3FF;enable-background:new    ;}
	.st47{opacity:0.5325;fill:#00275F;enable-background:new    ;}
	.st48{fill:url(#SVGID_00000170265525131137334880000011441919819269229955_);}
	.st49{opacity:0.5187;fill:url(#SVGID_00000182528397276633971280000012625204566960040588_);enable-background:new    ;}
	.st50{opacity:0.5325;fill:#180137;enable-background:new    ;}
	.st51{fill:url(#SVGID_00000085960202044570349200000001734784246563614366_);}
	.st52{fill:url(#SVGID_00000052074855118827928540000015608900509242033028_);}
	.st53{opacity:0.401;fill:#FFB04B;enable-background:new    ;}
	.st54{fill-rule:evenodd;clip-rule:evenodd;fill:#4C4C4C;}
	.st55{fill-rule:evenodd;clip-rule:evenodd;fill:url(#SVGID_00000143617912006701221970000008899323246987325098_);}
	.st56{fill-rule:evenodd;clip-rule:evenodd;fill:url(#SVGID_00000170253112443288104170000017487713875713791370_);}
	.st57{fill-rule:evenodd;clip-rule:evenodd;fill:url(#SVGID_00000041982482235531867660000010205907000649688971_);}
	.st58{fill-rule:evenodd;clip-rule:evenodd;fill:url(#SVGID_00000047740397417405808480000007755440814690008486_);}
	.st59{fill:url(#SVGID_00000102508959690644604220000015082595380880390275_);}
	.st60{fill:url(#SVGID_00000146472905976220924890000002034213588649109120_);}
	.st61{fill:url(#SVGID_00000101073896364435694150000006343810243326722222_);}
	.st62{fill:url(#SVGID_00000088097901540589023500000001354687054902123705_);}
	.st63{fill:url(#SVGID_00000089560319927167929890000000961837104919732406_);}
	.st64{fill:url(#SVGID_00000057842874335991216300000013469516175533890724_);}
	.st65{fill:url(#SVGID_00000140016877772520084580000003247648174087658899_);}
	.st66{fill:url(#SVGID_00000176019055237078931450000000690723712303199156_);}
	.st67{fill:url(#SVGID_00000162348975274204047540000003880582807190294188_);}
	.st68{fill:url(#SVGID_00000088111363580515542210000011568938228770057608_);}
	.st69{fill:url(#SVGID_00000062896285223947675460000000095721097525941432_);}
	.st70{fill:url(#SVGID_00000081611473416707966200000001447716974865075888_);}
	.st71{fill:url(#SVGID_00000057846451474541141040000012156563868247955590_);}
	.st72{fill:url(#SVGID_00000181080477257835672040000008443558739113905597_);}
	.st73{fill:url(#SVGID_00000142875732130210013310000009259504971681321873_);}
	.st74{fill:url(#SVGID_00000057862625238377347270000009671385279518426789_);}
	.st75{fill:url(#SVGID_00000136371409320474062340000007124339602222439068_);}
	.st76{fill:url(#SVGID_00000016773055566202128290000007761311132368574859_);}
	.st77{fill:url(#SVGID_00000097465298756107785140000014676439084687212681_);}
	.st78{fill:url(#SVGID_00000023280052200520251370000011863055326479064741_);}
	.st79{fill:url(#SVGID_00000041992397930614864110000016208378221056597638_);}
	.st80{fill:url(#SVGID_00000154401010818795339720000018080051384926423956_);}
	.st81{fill:url(#SVGID_00000034793306341565735010000000038300493765037202_);}
	.st82{fill:url(#SVGID_00000103970312428168252270000001950042832395062155_);}
	.st83{fill:url(#SVGID_00000072991708377293725400000006449149823251434647_);}
	.st84{fill:url(#SVGID_00000178912516618392965600000016803301630278186162_);}
	.st85{fill:url(#SVGID_00000179621542488367637650000013644590153404797830_);}
	.st86{fill:url(#SVGID_00000067917277000833850920000000008477249346935465_);}
	.st87{fill:url(#SVGID_00000028313897541119375130000014329517801787075739_);}
	.st88{fill:url(#SVGID_00000003819274188649987800000017031007207929292728_);}
	.st89{fill:url(#SVGID_00000009549138367373489020000003737108322131664538_);}
	.st90{fill:url(#SVGID_00000135681968119230334760000017890554322377593779_);}
	.st91{fill:url(#SVGID_00000169541003399139809050000007781057340052883128_);}
	.st92{fill:url(#SVGID_00000057843998806628454150000017250903864260235190_);}
	.st93{fill:url(#SVGID_00000113344642100888277960000006237241653453398173_);}
	.st94{fill:url(#SVGID_00000096777634557258279010000009753665619359314317_);}
	.st95{fill:url(#SVGID_00000171701304571607952790000017947563185423419280_);}
	.st96{fill:url(#SVGID_00000119104874142914147390000014414851057198342587_);}
	.st97{fill:url(#SVGID_00000108301236006567045540000008629980057044938417_);}
	.st98{fill:#FFF100;}
</style>
<g id="Layer_1">
</g>
<g id="Layer_2">
</g>
<g id="Layer_3">
</g>
<g id="Layer_4">
</g>
<g id="Layer_5">
</g>
<g id="Layer_6">
</g>
<g id="Layer_7">
</g>
<g id="Layer_8">
</g>
<g id="Layer_9">
</g>
<g id="Layer_10">
</g>
<g id="Layer_11">
</g>
<g id="Layer_12">
</g>
<g id="Layer_13">
</g>
<g id="Layer_14">
</g>
<g id="_x31_-15">
	<g>
		<linearGradient id="SVGID_1_" gradientUnits="userSpaceOnUse" x1="115.5037" y1="95.7012" x2="237.3465" y2="95.7012">
			<stop  offset="0" style="stop-color:#EF7EC0"/>
			<stop  offset="0.2278" style="stop-color:#EC66AE"/>
			<stop  offset="0.7061" style="stop-color:#E52981"/>
			<stop  offset="1" style="stop-color:#E00063"/>
		</linearGradient>
		<path style="fill:url(#SVGID_1_);" d="M237.34,90.16c0.19,15-7.38,30.02-19.88,38.31c-7.13,4.73-15.53,7.24-23.98,8.58
			c-1.47,0.23-2.94,0.42-4.42,0.58c0,0.19,0.01,0.39-0.02,0.58c-0.44,2.5-2.7,5.17-4.35,7.01c-3.68,4.11-8.68,7.07-14.12,8.13
			c-1.02,0.2-2.09,0.33-3.07-0.01c-0.98-0.34-1.82-1.28-1.72-2.31c0.06-0.66,0.48-1.22,0.85-1.76c2.09-3.1,3.13-7.18,1.68-10.62
			c-0.18-0.42-0.39-0.85-0.55-1.28c-6.56-0.94-12.98-2.73-19.03-5.46c-13.88-6.27-25.61-17.82-30.65-32.19
			c-5.04-14.37-2.77-31.44,7.04-43.09c11.27-13.39,28.9-19.16,45.52-18.74c16.95,0.42,32.64,2.74,46.86,13.59
			C229.44,60.56,237.16,75.16,237.34,90.16z"/>
		
			<linearGradient id="SVGID_00000112611099124484724420000018016633395980939930_" gradientUnits="userSpaceOnUse" x1="175.3848" y1="43.8129" x2="175.3848" y2="126.9102">
			<stop  offset="0" style="stop-color:#45F4FF"/>
			<stop  offset="0.357" style="stop-color:#43CFFE"/>
			<stop  offset="1" style="stop-color:#3F83FB"/>
		</linearGradient>
		<path style="fill:url(#SVGID_00000112611099124484724420000018016633395980939930_);" d="M144.89,36.44
			c7.19,2.93,13.99,9.99,13.33,18.3c-0.48,6.09-5.07,11.64-10.95,13.27c-1.81,0.5-4.01,0.89-4.73,2.63c-1.24,3,3.48,6.26,1.95,9.12
			c-1.91,2.61-12.33-4.48-15.65-9.97c-0.37-0.62-0.74-1.28-1.36-1.65c-0.55-0.33-1.21-0.37-1.84-0.43
			c-4.46-0.42-8.9-1.94-12.28-4.87c-3.39-2.93-5.59-7.36-5.27-11.83c0.37-5.11,3.91-9.52,8.13-12.43
			C124.79,32.66,135.5,32.61,144.89,36.44z M211.18,68.6c-2.35,1.14-4.5,2.73-6.12,4.78c-3.24,4.11-4.01,10.03-1.93,14.82
			c2.09,4.8,6.93,8.28,12.15,8.71c0.17,2.18-0.68,4.41-2.26,5.93c-0.62,0.6-1.43,1.35-1.13,2.17c0.21,0.58,0.91,0.82,1.53,0.89
			c3.48,0.38,6.58-2.27,8.54-5.17c0.29-0.43,0.58-0.89,1.01-1.19c0.69-0.5,1.6-0.52,2.45-0.55c2.34-0.09,4.67-0.41,6.95-0.96
			c1.6-0.38,3.21-0.89,4.57-1.81c1.36-0.93,2.42-2.24,3.28-3.65c2.5-4.14,3.27-9.4,1.61-13.95c-2.01-5.52-5.11-8.51-11.2-10.54
			C224.51,66.05,216.93,65.81,211.18,68.6z"/>
		
			<linearGradient id="SVGID_00000017483830028426966720000004925964967653376389_" gradientUnits="userSpaceOnUse" x1="127.689" y1="111.2418" x2="213.4572" y2="111.2418">
			<stop  offset="0" style="stop-color:#FAEF5F"/>
			<stop  offset="0.3135" style="stop-color:#F9D757"/>
			<stop  offset="0.9729" style="stop-color:#F59A42"/>
			<stop  offset="1" style="stop-color:#F59741"/>
		</linearGradient>
		<path style="fill:url(#SVGID_00000017483830028426966720000004925964967653376389_);" d="M213.4,152.39
			c-0.08,0.2-0.25,0.36-0.42,0.5c-5.91,5.03-12.84,8.15-20.54,9.17c-4.49,0.59-25.46,1.69-27.87,1.63
			c-4.53-0.11-10.84-1.39-15.33-1.98c-7.7-1.01-14.72-1.83-20.63-6.86c-0.17-0.14-0.83-1.34-0.91-1.55
			c-0.12-0.29,0.59-1.53,0.68-1.84c1.06-3.61,2.11-7.23,3.44-10.75c0.63-1.66,1.35-3.35,2.59-4.62c1.31-1.34,3.09-2.11,4.84-2.8
			c3.87-1.51,7.84-2.78,11.87-3.77c1.63-0.41,3.26-0.87,4.7-1.74c2.32-1.4,5.99-9.18,1.63-15.79c-0.11-0.15-0.23-0.3-0.35-0.46
			c-0.86-1.18-2.06-2.87-3.28-4.95c-0.45-0.22-0.88-0.51-1.23-0.87c-0.64-0.65-1.1-1.45-1.49-2.27c-0.85-1.75-1.45-3.62-1.77-5.53
			c0-0.01,0-0.04,0-0.06c-0.48-0.94-0.84-1.92-0.97-2.98c-0.08-0.69-0.06-1.38-0.18-2.06c-0.13-0.74-0.41-1.44-0.61-2.16
			c-0.91-3.2-0.1-6.8,1.94-9.4c0.54-0.68,1.23-1.67,2.02-2.12c0.01-1.27,0.04-2.53,0.5-3.75c0.41-1.1,1.1-2.07,1.79-3.01
			c1.69-2.28,3.5-4.47,5.42-6.55c2.52-2.73,5.44-5.4,9.08-6.11c0.77-0.15,1.61-0.2,2.31,0.17c0.7,0.36,1.17,1.25,0.83,1.96
			c2.56-1.54,5.44-2.55,8.4-2.95c0.72-0.1,1.47-0.16,2.16,0.05c1.53,0.46,2.43,2.17,2.39,3.77c-0.04,1.6-0.84,3.08-1.79,4.37
			c1.84-0.16,3.7-0.12,5.53,0.13c1.53,0.21,3.31,0.79,3.73,2.28c0.42,1.49-0.77,2.9-1.87,3.99c2.04,0.25,3.84,1.83,4.37,3.81
			c0.53,1.98-0.25,4.25-1.89,5.48c1.4,0.28,2.34,1.92,1.88,3.27c-0.33,0.98-1.25,1.72-1.38,2.74c-0.07,0.56,0.11,1.14,0,1.69
			c-0.04,0.21-0.14,0.4-0.25,0.58c0.13,0.04,0.27,0.03,0.39,0.1c0.78,0.49,0.94,1.47,0.91,2.32c-0.03,0.86-0.21,1.71-0.42,2.55
			c-0.35,1.42-0.8,2.83-1.51,4.11c-0.33,0.6-0.74,1.15-1.2,1.66c-0.05,0.15-0.09,0.31-0.14,0.46c-1.44,3.92-3.73,7.49-6.56,10.55
			c-4.21,4.9-1.79,13.11,1.7,14.99c1.48,0.8,3.07,1.33,4.7,1.74c4.03,1,8,2.26,11.87,3.77c1.75,0.68,3.53,1.45,4.84,2.8
			c1.24,1.27,1.96,2.96,2.59,4.62c1.33,3.52,2.39,7.13,3.44,10.75C213.43,151.77,213.52,152.09,213.4,152.39z M163.02,90.5
			c-1.16,0-2.1,0.94-2.1,2.1s0.94,2.1,2.1,2.1c1.16,0,2.1-0.94,2.1-2.1S164.18,90.5,163.02,90.5z M180.35,90.5
			c-1.16,0-2.1,0.94-2.1,2.1s0.94,2.1,2.1,2.1c1.16,0,2.1-0.94,2.1-2.1S181.51,90.5,180.35,90.5z M175.69,99.89
			c0.24,0.91,0.2,1.96-0.38,2.7c-0.77,0.97-2.41,1.06-3.28,0.17c0,1.01,0.92,1.87,1.92,1.96c1,0.08,1.99-0.52,2.52-1.37
			c0.53-0.86,0.64-1.92,0.47-2.91c-0.17-0.99-0.59-1.92-1.07-2.81c-0.26-0.48-0.55-0.96-0.79-1.45c-0.24-0.48-0.36-1.34-0.71-1.69
			C173.09,95.73,175.36,98.63,175.69,99.89z M161.19,84.96c0.75-0.23,1.56-0.25,2.33-0.06c0.36,0.09,0.76,0.22,1.09,0.05
			c0.37-0.19,0.46-0.72,0.29-1.09c-0.18-0.38-0.55-0.62-0.93-0.78c-1.03-0.43-2.27-0.34-3.23,0.24c-0.16,0.1-0.32,0.21-0.45,0.36
			c-0.17,0.19-0.28,0.43-0.37,0.67c-0.1,0.26-0.17,0.55-0.09,0.81C160.1,85.98,160.76,85.08,161.19,84.96z M182.91,85.66
			c0.09-0.26,0.01-0.55-0.09-0.81c-0.09-0.24-0.2-0.48-0.37-0.67c-0.13-0.14-0.28-0.26-0.45-0.36c-0.96-0.58-2.19-0.67-3.23-0.24
			c-0.38,0.16-0.76,0.41-0.93,0.78c-0.18,0.38-0.08,0.9,0.29,1.09c0.33,0.17,0.73,0.04,1.09-0.05c0.76-0.19,1.58-0.17,2.33,0.06
			C181.97,85.6,182.63,86.49,182.91,85.66z M169.57,112.83c0.19,0.35,0.57,0.57,0.96,0.66c0.39,0.09,0.79,0.09,1.19,0.13
			c0.55,0.05,1.38,0.3,1.88-0.04c0.38-0.26-0.08-0.3-0.36-0.33C172.01,113.1,170.79,113.18,169.57,112.83z M168.93,106.56
			c-0.46-0.2-0.92-0.42-1.43-0.51c-0.9-0.14-1.88,0.28-2.31,0.97c-0.43,0.69-0.33,1.58,0.2,2.22c0.39,0.47,0.98,0.79,1.57,1.06
			c2.53,1.14,5.56,1.46,8.34,0.88c1.01-0.21,2.01-0.55,2.77-1.16c0.75-0.61,1.22-1.52,1-2.39c-0.11-0.44-0.56-0.95-1.15-0.92
			c-0.57,0.02-1.2,0.42-1.77,0.52C174.76,107.5,171.39,107.64,168.93,106.56z"/>
	</g>
</g>
</svg>
