<?xml version="1.0" encoding="utf-8"?>
<!-- Generator: Adobe Illustrator 27.8.1, SVG Export Plug-In . SVG Version: 6.00 Build 0)  -->
<svg version="1.1" xmlns="http://www.w3.org/2000/svg" xmlns:xlink="http://www.w3.org/1999/xlink" x="0px" y="0px"
	 viewBox="0 0 350 230" style="enable-background:new 0 0 350 230;" xml:space="preserve">
<style type="text/css">
	.st0{fill:#D2FCFF;}
	.st1{fill:#ECFCD4;}
	.st2{fill:#FFFDC7;}
	.st3{fill:#FFE0C7;}
	.st4{fill:#D4F9F7;}
	.st5{fill:#F7F9D4;}
	.st6{fill:#DBF9D4;}
	.st7{fill:#ADF7BD;}
	.st8{fill:#F9F3AC;}
	.st9{fill:#E6007E;}
	.st10{fill:#FFED00;}
	.st11{fill:#009FE3;}
	.st12{fill:#A6A6ED;}
	.st13{fill:#F7595F;}
	.st14{fill:#F2BD65;}
	.st15{fill:#560033;}
	.st16{fill:#FFFFFF;}
	.st17{fill:#062BB5;}
	.st18{fill:#006D6D;}
	.st19{fill:#00B1FF;}
	.st20{fill:#2A8E00;}
	.st21{fill:#A09002;}
	.st22{fill:#FFCE00;}
	.st23{fill:#23D513;}
	.st24{fill:#E33056;}
	.st25{fill:#4399DE;}
	.st26{fill:none;stroke:#1D1D1B;stroke-width:1.6634;stroke-miterlimit:10;}
	.st27{fill:none;stroke:#1D1D1B;stroke-width:1.2062;stroke-miterlimit:10;}
	.st28{fill:none;stroke:#1D1D1B;stroke-width:1.6634;stroke-linecap:round;stroke-linejoin:round;stroke-miterlimit:10;}
	.st29{fill:#23D513;stroke:#FFFFFF;stroke-width:1.5;stroke-miterlimit:10;}
	.st30{fill:#FFCE00;stroke:#FFFFFF;stroke-width:1.5;stroke-miterlimit:10;}
	.st31{fill:#4399DE;stroke:#FFFFFF;stroke-width:1.5;stroke-miterlimit:10;}
	.st32{fill:#E33056;stroke:#FFFFFF;stroke-width:1.5;stroke-miterlimit:10;}
	.st33{fill:#005D72;}
	.st34{fill:#1C0007;}
	.st35{fill:url(#SVGID_1_);stroke:#539873;stroke-width:0.0823;}
	.st36{opacity:0.5325;fill:#0D2B5E;enable-background:new    ;}
	.st37{opacity:0.5325;fill:#FFFFFF;enable-background:new    ;}
	.st38{opacity:0.1774;fill:#89E2FF;enable-background:new    ;}
	.st39{fill:url(#path45522_00000106829132179400152030000013726220708874121604_);}
	.st40{fill:url(#path45518_00000177468352336487842960000012726435142818745002_);}
	.st41{opacity:0.401;fill:#FEAE53;enable-background:new    ;}
	
		.st42{fill:url(#SVGID_00000065759490611323122640000014260479000203925181_);stroke:#93A8B1;stroke-width:0.0823;stroke-opacity:0.8667;}
	.st43{opacity:0.6876;fill:#641991;enable-background:new    ;}
	.st44{opacity:0.428;fill:#B51238;enable-background:new    ;}
	.st45{fill:url(#SVGID_00000066488234384953001500000015561598478994048680_);}
	.st46{opacity:0.1774;fill:#40E3FF;enable-background:new    ;}
	.st47{opacity:0.5325;fill:#00275F;enable-background:new    ;}
	.st48{fill:url(#SVGID_00000085226504199131456200000001395120501091559601_);}
	.st49{opacity:0.5187;fill:url(#SVGID_00000139278354144154738490000005137068197820890256_);enable-background:new    ;}
	.st50{opacity:0.5325;fill:#180137;enable-background:new    ;}
	.st51{fill:url(#SVGID_00000034090999912693072240000012265533627395267212_);}
	.st52{fill:url(#SVGID_00000034794673763517820330000016477342019504423605_);}
	.st53{opacity:0.401;fill:#FFB04B;enable-background:new    ;}
	.st54{fill-rule:evenodd;clip-rule:evenodd;fill:#4C4C4C;}
	.st55{fill-rule:evenodd;clip-rule:evenodd;fill:url(#SVGID_00000160869279866168104360000011960787531325085349_);}
	.st56{fill-rule:evenodd;clip-rule:evenodd;fill:url(#SVGID_00000088107221260481994260000014140342948976292992_);}
	.st57{fill-rule:evenodd;clip-rule:evenodd;fill:url(#SVGID_00000008127395758540978080000003998371131885991346_);}
	.st58{fill-rule:evenodd;clip-rule:evenodd;fill:url(#SVGID_00000067957040144377222050000004436746715433437583_);}
	.st59{fill:url(#SVGID_00000117649420391337171500000008048468135397330616_);}
	.st60{fill:url(#SVGID_00000047046794505074229090000008142860002465997240_);}
	.st61{fill:url(#SVGID_00000075854538242322503330000006411980456585784986_);}
	.st62{fill:url(#SVGID_00000071561934761753896010000013684076564952886148_);}
	.st63{fill:url(#SVGID_00000062150892778158525310000001709076829814468771_);}
	.st64{fill:url(#SVGID_00000017499200438494126110000013183663345515553946_);}
	.st65{fill:url(#SVGID_00000027584495291025962540000002518101684611893946_);}
	.st66{fill:url(#SVGID_00000052800705052231787720000011519935434727704751_);}
	.st67{fill:url(#SVGID_00000168110299766420971410000012940451463428566207_);}
	.st68{fill:url(#SVGID_00000108289927420863350530000000704317596447803071_);}
	.st69{fill:url(#SVGID_00000038405672420603818910000001219981376130636478_);}
	.st70{fill:url(#SVGID_00000070823752455832521010000008887772708465563575_);}
	.st71{fill:url(#SVGID_00000005971922687808938870000015288739721345856425_);}
	.st72{fill:url(#SVGID_00000005236170459648047030000000973547260957693863_);}
	.st73{fill:url(#SVGID_00000173144045977602264730000014115773725722772903_);}
	.st74{fill:url(#SVGID_00000170983288190094902210000013938701769639831456_);}
	.st75{fill:url(#SVGID_00000074435419521873842920000003601456189412851844_);}
	.st76{fill:url(#SVGID_00000020389523862699673870000015641376293506241424_);}
	.st77{fill:url(#SVGID_00000098201116127760002340000010471324360184048303_);}
	.st78{fill:url(#SVGID_00000031198038348805341420000009380173381028864415_);}
	.st79{fill:url(#SVGID_00000121962934641859675410000002397651162860497595_);}
	.st80{fill:url(#SVGID_00000049196093634424526390000015643285010027946170_);}
	.st81{fill:url(#SVGID_00000168093610407037762650000010311766036180359064_);}
	.st82{fill:url(#SVGID_00000163755802302317757790000005136443290043973802_);}
	.st83{fill:url(#SVGID_00000044153613634191543410000012880528920352343210_);}
	.st84{fill:url(#SVGID_00000155853296824152543840000012290620362465947017_);}
	.st85{fill:url(#SVGID_00000165222276363876581990000011569827678328845477_);}
	.st86{fill:url(#SVGID_00000144337185087359931610000005488597143905448072_);}
	.st87{fill:url(#SVGID_00000177475338318450059360000008846505580488944799_);}
	.st88{fill:url(#SVGID_00000033349966366489868330000003668714141398589362_);}
	.st89{fill:url(#SVGID_00000078761702551475044060000009536909351604684706_);}
	.st90{fill:url(#SVGID_00000026133531936615206020000007991439302011736227_);}
	.st91{fill:url(#SVGID_00000134209499179784525540000000713136181378237878_);}
	.st92{fill:url(#SVGID_00000178913597925114846080000005975166996670187432_);}
	.st93{fill:url(#SVGID_00000095329677852429487000000004436846425610299570_);}
	.st94{fill:url(#SVGID_00000031899494188172503510000010260046097589735302_);}
	.st95{fill:url(#SVGID_00000091716390602276346820000011621114229939633579_);}
	.st96{fill:url(#SVGID_00000168075418148873029890000016313900800558245792_);}
	.st97{fill:url(#SVGID_00000139992691875996590120000010508622078371944073_);}
	.st98{fill:#FFF100;}
</style>
<g id="Layer_1">
</g>
<g id="Layer_2">
</g>
<g id="Layer_3">
</g>
<g id="Layer_4">
</g>
<g id="Layer_5">
</g>
<g id="Layer_6">
</g>
<g id="Layer_7">
</g>
<g id="Layer_8">
</g>
<g id="Layer_9">
</g>
<g id="Layer_10">
</g>
<g id="Layer_11">
</g>
<g id="Layer_12">
</g>
<g id="Layer_13">
</g>
<g id="Layer_14">
</g>
<g id="_x31_-15">
	<g>
		<linearGradient id="SVGID_1_" gradientUnits="userSpaceOnUse" x1="191.0576" y1="95.3812" x2="275.2953" y2="95.3812">
			<stop  offset="0" style="stop-color:#EF7EC0"/>
			<stop  offset="0.2278" style="stop-color:#EC66AE"/>
			<stop  offset="0.7061" style="stop-color:#E52981"/>
			<stop  offset="1" style="stop-color:#E00063"/>
		</linearGradient>
		<path style="fill:url(#SVGID_1_);" d="M274.96,84.13c-0.51,1.06-1.9,1.8-3,1.28c0.54,1.73,0.72,3.57,0.51,5.36
			c-0.11,1.01-0.41,2.05-1.06,2.83c-3.34,16.44-15.34,25.57-21.83,29.86c-1.53,1.01-3.13,2-4.29,3.39c-0.98,1.17-2.96,6.55-3.63,7.9
			c-2.75,5.56-7.05,11.06-13.34,12.55c-0.84,0.2-1.75,0.32-2.57,0.03c-0.82-0.29-1.48-1.09-1.31-1.9c0.08-0.39,0.34-0.73,0.58-1.06
			c3.12-4.25,6.51-12.26,3-17.07c-2.03,1.4-4.15,2.7-6.55,3.37c-2.7,0.75-5.82,0.58-8.04-1.06c-0.85-0.63-1.55-1.48-1.78-2.47
			c-0.4-1.77,0.64-3.95-0.69-5.25c-0.81-0.79-2.23-0.89-2.86-1.81c-0.65-0.96-0.03-2.3,0.95-2.97c0.97-0.67,2.2-0.88,3.33-1.27
			c2.7-0.92,6.99-4.14,7.26-6.85c0.27-2.71-2.17-5.59-5.02-5.33c-2.43,0.22-2.75,2.25-8.12,4.51c-2.17,0.91-4.59,1.44-6.85,0.76
			c-0.37-0.11-0.75-0.26-0.98-0.55c-0.63-0.81,0.28-1.94,0.16-2.94c-0.18-1.51-2.29-1.8-3.86-2.13c-1.21-0.25-2.39-0.79-3.16-1.71
			c-0.77-0.92-1.04-2.26-0.46-3.3c0.96-1.71,3.47-1.8,5.21-2.8c2.28-1.32,3.01-4.55,1.5-6.64c-0.71-0.98-1.85-1.77-2.08-2.95
			c-0.1-0.54,0.01-1.1,0.12-1.64c0.28-1.37,0.45-4.38,1.04-7.29c0.17-1.82,0.39-3.63,0.7-5.44c0.28-1.6,0.66-3.25,1.28-4.77
			c-0.27-0.2-0.5-0.45-0.66-0.78c-0.58-1.26,0.34-2.65,1.22-3.74c-1.15,0.08-2.33,0.15-3.42-0.2c-1.09-0.35-2.07-1.25-2.11-2.34
			c-0.04-1.16,0.93-2.12,1.96-2.74c1.25-0.75,2.69-1.2,4.16-1.35c-0.72-0.05-1.41-0.65-1.53-1.35c-0.15-0.88,0.39-1.77,1.15-2.29
			c0.76-0.52,1.71-0.73,2.64-0.86c1.89-0.26,3.82-0.22,5.7,0.11c-1.26-0.73-1.21-2.64-0.2-3.67c1-1.03,2.58-1.34,4.06-1.38
			c3.18-0.09,6.34,0.85,9.11,2.35c-0.08-1.28,0.05-2.57,0.4-3.81c0.1-0.36,0.23-0.73,0.5-1c0.49-0.46,1.26-0.46,1.95-0.38
			c4.77,0.54,9.23,3.22,11.78,7.09c-0.33-1.23-0.26-2.73,0.79-3.52c1.14-0.85,2.81-0.45,4.11,0.15c3.05,1.41,5.56,3.77,7.2,6.57
			c0.2-0.48,0.46-0.95,0.91-1.24c0.92-0.58,2.16-0.18,3.12,0.34c3.06,1.68,5.41,4.49,6.43,7.71c0.17-0.67,1-1.04,1.71-0.94
			c0.72,0.1,1.32,0.57,1.79,1.1c1.54,1.73,1.96,4.11,2.07,6.38c0.03,0.5,0.1,1.35,0.15,2.33c2.59,0.15,4.75,0.22,6.93,1.88
			c0.71,0.54,1.37,1.27,1.42,2.13c0.05,0.86-0.82,1.78-1.69,1.52c2.4,0.98,3.69,3.48,4.27,5.9
			C275.32,81.84,275.47,83.07,274.96,84.13z"/>
		
			<linearGradient id="SVGID_00000022520393123554188380000001817419416479582123_" gradientUnits="userSpaceOnUse" x1="127.647" y1="44.5622" x2="127.647" y2="161.4014">
			<stop  offset="0" style="stop-color:#45F4FF"/>
			<stop  offset="0.357" style="stop-color:#43CFFE"/>
			<stop  offset="1" style="stop-color:#3F83FB"/>
		</linearGradient>
		<path style="fill:url(#SVGID_00000022520393123554188380000001817419416479582123_);" d="M177.04,103.25
			c-1.22,0.62-2.61,0.78-3.9,1.24c-1.28,0.46-2.56,1.4-2.76,2.76c-0.11,0.77,0.15,1.57-0.08,2.32c-0.39,1.27-1.94,1.72-3.26,1.83
			c-2.7,0.23-5.44-0.14-7.98-1.07c-0.75-0.28-1.65-0.59-2.3-0.12c-0.37,0.26-0.55,0.72-0.64,1.16c-0.36,1.77,0.52,3.62,1.86,4.84
			c1.34,1.21,3.08,1.89,4.81,2.4c0.92,0.27,2.07,0.78,2.01,1.74c-0.08,1.41-2.33,1.2-3.4,2.13c-0.99,0.86-0.68,2.43-0.78,3.74
			c-0.22,2.93-2.94,5.2-5.82,5.74c-2.88,0.54-5.85-0.3-8.56-1.4c-2.48-1.01-4.88-2.27-7.07-3.81c-2.07,4.85,0.84,11.89,3.56,15.78
			c0.23,0.33,0.47,0.66,0.55,1.06c0.16,0.81-0.47,1.62-1.25,1.9c-0.77,0.29-1.64,0.17-2.44-0.03c-5.97-1.48-10.05-6.98-12.66-12.55
			c-0.63-1.35-1.22-2.75-2.15-3.92c-1.1-1.39-2.61-2.38-4.07-3.39c-1.66-1.16-3.29-2.39-4.85-3.69c-0.6,0.3-1.2,0.59-1.81,0.83
			c-2.37,0.95-5.58,0.98-6.94-1.17c2.08-0.55,2.67-3.42,1.76-5.36c-0.91-1.94-2.76-3.24-4.33-4.71c-0.17-0.16-0.32-0.32-0.48-0.48
			c-3.2,2.77-7.49,4.32-11.76,4.67c-3.65,0.3-7.46-0.21-10.6-2.1c-3.14-1.89-5.47-5.31-5.46-8.97c0.01-3.66,2.76-7.3,6.39-7.77
			c-1.62,0.62-2.03,2.83-1.48,4.47c0.94,2.81,4.27,4.7,7.06,3.71c2.58-0.92,3.99-3.82,4.16-6.55c0.2-3.39-1.08-6.69-2.69-9.68
			c-1.61-2.99-3.57-5.79-4.91-8.91c-3.34-7.74-2.39-17.18,2.41-24.11c3.56-5.13,9.51-8.94,15.74-8.55c2.13,0.14,4.21,0.75,6.21,1.51
			c3.27,1.25,5.69,2.92,7.55,5.62c1.89-1.07,3.57-1.85,4.84-2.39c4.91-2.09,10.23-3.15,15.56-3.21c9.49-0.11,18.47,2.97,26.1,8.55
			c0.44,0.32,0.84,0.65,1.21,0.99c0.66-0.06,1.3-0.03,1.88,0.12c4.09,1.03,6.89,5.42,7.22,9.43c0.25,3.01-0.67,6.03-2.33,8.58
			c0.04,1.57-0.05,3.13-0.29,4.66c-0.64,3.96-2.17,8.2-0.38,11.79c1.04,2.07,3.04,3.51,5.16,4.44c1.37,0.6,3.02,1.25,3.35,2.7
			C179.3,101.33,178.26,102.64,177.04,103.25z"/>
	</g>
</g>
</svg>
