<?xml version="1.0" encoding="utf-8"?>
<!-- Generator: Adobe Illustrator 27.8.1, SVG Export Plug-In . SVG Version: 6.00 Build 0)  -->
<svg version="1.1" xmlns="http://www.w3.org/2000/svg" xmlns:xlink="http://www.w3.org/1999/xlink" x="0px" y="0px"
	 viewBox="0 0 350 230" style="enable-background:new 0 0 350 230;" xml:space="preserve">
<style type="text/css">
	.st0{fill:#D2FCFF;}
	.st1{fill:#ECFCD4;}
	.st2{fill:#FFFDC7;}
	.st3{fill:#FFE0C7;}
	.st4{fill:#D4F9F7;}
	.st5{fill:#F7F9D4;}
	.st6{fill:#DBF9D4;}
	.st7{fill:#ADF7BD;}
	.st8{fill:#F9F3AC;}
	.st9{fill:#E6007E;}
	.st10{fill:#FFED00;}
	.st11{fill:#009FE3;}
	.st12{fill:#A6A6ED;}
	.st13{fill:#F7595F;}
	.st14{fill:#F2BD65;}
	.st15{fill:#560033;}
	.st16{fill:#FFFFFF;}
	.st17{fill:#062BB5;}
	.st18{fill:#006D6D;}
	.st19{fill:#00B1FF;}
	.st20{fill:#2A8E00;}
	.st21{fill:#A09002;}
	.st22{fill:#FFCE00;}
	.st23{fill:#23D513;}
	.st24{fill:#E33056;}
	.st25{fill:#4399DE;}
	.st26{fill:none;stroke:#1D1D1B;stroke-width:1.6634;stroke-miterlimit:10;}
	.st27{fill:none;stroke:#1D1D1B;stroke-width:1.2062;stroke-miterlimit:10;}
	.st28{fill:none;stroke:#1D1D1B;stroke-width:1.6634;stroke-linecap:round;stroke-linejoin:round;stroke-miterlimit:10;}
	.st29{fill:#23D513;stroke:#FFFFFF;stroke-width:1.5;stroke-miterlimit:10;}
	.st30{fill:#FFCE00;stroke:#FFFFFF;stroke-width:1.5;stroke-miterlimit:10;}
	.st31{fill:#4399DE;stroke:#FFFFFF;stroke-width:1.5;stroke-miterlimit:10;}
	.st32{fill:#E33056;stroke:#FFFFFF;stroke-width:1.5;stroke-miterlimit:10;}
	.st33{fill:#005D72;}
	.st34{fill:#1C0007;}
	.st35{fill:url(#SVGID_1_);stroke:#539873;stroke-width:0.0823;}
	.st36{opacity:0.5325;fill:#0D2B5E;enable-background:new    ;}
	.st37{opacity:0.5325;fill:#FFFFFF;enable-background:new    ;}
	.st38{opacity:0.1774;fill:#89E2FF;enable-background:new    ;}
	.st39{fill:url(#path45522_00000156548261803036423310000005220752942150176941_);}
	.st40{fill:url(#path45518_00000105393048409076939550000006119601558902208142_);}
	.st41{opacity:0.401;fill:#FEAE53;enable-background:new    ;}
	
		.st42{fill:url(#SVGID_00000013913409568969151230000013500517410450730376_);stroke:#93A8B1;stroke-width:0.0823;stroke-opacity:0.8667;}
	.st43{opacity:0.6876;fill:#641991;enable-background:new    ;}
	.st44{opacity:0.428;fill:#B51238;enable-background:new    ;}
	.st45{fill:url(#SVGID_00000125581166149064038050000006674996529800484766_);}
	.st46{opacity:0.1774;fill:#40E3FF;enable-background:new    ;}
	.st47{opacity:0.5325;fill:#00275F;enable-background:new    ;}
	.st48{fill:url(#SVGID_00000176750699646266068010000005926268565936296611_);}
	.st49{opacity:0.5187;fill:url(#SVGID_00000093867987052370312750000000561687701658302880_);enable-background:new    ;}
	.st50{opacity:0.5325;fill:#180137;enable-background:new    ;}
	.st51{fill:url(#SVGID_00000040541283479274082380000006700723967916282766_);}
	.st52{fill:url(#SVGID_00000003090108797619452570000015553843010565954972_);}
	.st53{opacity:0.401;fill:#FFB04B;enable-background:new    ;}
	.st54{fill-rule:evenodd;clip-rule:evenodd;fill:#4C4C4C;}
	.st55{fill-rule:evenodd;clip-rule:evenodd;fill:url(#SVGID_00000126319831143554364340000000623253526863320980_);}
	.st56{fill-rule:evenodd;clip-rule:evenodd;fill:url(#SVGID_00000136401879495549971730000015087794697063888277_);}
	.st57{fill-rule:evenodd;clip-rule:evenodd;fill:url(#SVGID_00000091014488729403930410000005345469304719449485_);}
	.st58{fill-rule:evenodd;clip-rule:evenodd;fill:url(#SVGID_00000178914346345502617340000010612043415556223136_);}
	.st59{fill:url(#SVGID_00000147196805272625151920000013552561286774439847_);}
	.st60{fill:url(#SVGID_00000062911360273525886020000015657741940749653407_);}
	.st61{fill:url(#SVGID_00000137116489136377377080000007953407776810090133_);}
	.st62{fill:url(#SVGID_00000003095344146732914230000006478111236936026013_);}
	.st63{fill:url(#SVGID_00000106868381927405123370000001269092030399201203_);}
	.st64{fill:url(#SVGID_00000145749987566932988930000004854692983202746813_);}
	.st65{fill:url(#SVGID_00000097468568471076309240000002018895793137191587_);}
	.st66{fill:url(#SVGID_00000003808468436891523510000013765127626761694621_);}
	.st67{fill:url(#SVGID_00000000194656539719580730000008342282097953831088_);}
	.st68{fill:url(#SVGID_00000104678767275402507700000003505826310013740688_);}
	.st69{fill:url(#SVGID_00000107546212833070245570000006289445626123035809_);}
	.st70{fill:url(#SVGID_00000153707280681362478080000007133930161751996804_);}
	.st71{fill:url(#SVGID_00000132077436082326429020000004713424901737954202_);}
	.st72{fill:url(#SVGID_00000124142781466877599600000005277025806581997967_);}
	.st73{fill:url(#SVGID_00000115472500210573640400000002607838494765265296_);}
	.st74{fill:url(#SVGID_00000023249097451940466010000014352900435029631368_);}
	.st75{fill:url(#SVGID_00000129195383674741772870000008361436155401706881_);}
	.st76{fill:url(#SVGID_00000155133220625571575950000002019484413292641968_);}
	.st77{fill:url(#SVGID_00000060711724473295409530000013176309525649188518_);}
	.st78{fill:url(#SVGID_00000049934380171980149070000015983428983269218951_);}
	.st79{fill:url(#SVGID_00000147196914165371007130000003839324073630369204_);}
	.st80{fill:url(#SVGID_00000094592872267791925840000011390169652309932190_);}
	.st81{fill:url(#SVGID_00000042705143403114543370000002099214198224354983_);}
	.st82{fill:url(#SVGID_00000018223611458652073200000012339807191142616985_);}
	.st83{fill:url(#SVGID_00000035533053589243819310000004583801733895643580_);}
	.st84{fill:url(#SVGID_00000139282901054030378320000016671058426374405270_);}
	.st85{fill:url(#SVGID_00000066513215758738505190000012418061873580868240_);}
	.st86{fill:url(#SVGID_00000159472304253070382610000010873399221609476752_);}
	.st87{fill:url(#SVGID_00000001653592113460646090000000785014576810851503_);}
	.st88{fill:url(#SVGID_00000025428629198428689040000015200881059700886961_);}
	.st89{fill:url(#SVGID_00000071520119129802226340000000803902217221668531_);}
	.st90{fill:url(#SVGID_00000057138183540545606580000005787889249344652181_);}
	.st91{fill:url(#SVGID_00000039109551827980053670000000182851094896844214_);}
	.st92{fill:url(#SVGID_00000139984340479126620290000007550137984208955818_);}
	.st93{fill:url(#SVGID_00000175293260576754380740000001427572501074615937_);}
	.st94{fill:url(#SVGID_00000105396754666404637450000007231517005970796726_);}
	.st95{fill:url(#SVGID_00000151542243603962799120000016745594634690736309_);}
	.st96{fill:url(#SVGID_00000004538736548521018330000014578112385309330597_);}
	.st97{fill:url(#SVGID_00000000921852566707312980000018032472876277488034_);}
	.st98{fill:#FFF100;}
</style>
<g id="Layer_1">
</g>
<g id="Layer_2">
</g>
<g id="Layer_3">
</g>
<g id="Layer_4">
</g>
<g id="Layer_5">
</g>
<g id="Layer_6">
</g>
<g id="Layer_7">
</g>
<g id="Layer_8">
</g>
<g id="Layer_9">
</g>
<g id="Layer_10">
</g>
<g id="Layer_11">
</g>
<g id="Layer_12">
</g>
<g id="Layer_13">
</g>
<g id="Layer_14">
</g>
<g id="_x31_-15">
	<g>
		<linearGradient id="SVGID_1_" gradientUnits="userSpaceOnUse" x1="117.582" y1="135.371" x2="221.5844" y2="31.3687">
			<stop  offset="0" style="stop-color:#5C10C9"/>
			<stop  offset="1" style="stop-color:#8264FA"/>
		</linearGradient>
		<path style="fill:url(#SVGID_1_);" d="M170.15,110.84l37.23-4.37c0,0,17.97,1.46,19.9-21.13V37.06l-6.42,34.43
			c0,0-1.93,26.23-28.24,27.69l-13.48,0.73c0,0-11.55-1.46-16.69,4.37c0,0-5.14-34.25,34.66-44.45c0,0,11.55-3.64,16.69-14.57
			c0,0,3.21,21.13-17.33,29.87c0,0-18.62,5.1-23.75,15.3c0,0,7.7-8.01,20.54-10.2c0,0,22.47-2.19,25.68-29.87l2.25-13.3
			l-84.41,15.48c0,0-19.9,2.91-19.9,28.42v35.34l30.81-3.28l-10.91,41.53L170.15,110.84z M127.52,94.44
			c-2.83,0.22-5.28-2.21-5.47-5.43c-0.19-3.21,1.95-5.99,4.78-6.21c2.83-0.22,5.28,2.21,5.47,5.43
			C132.49,91.44,130.35,94.22,127.52,94.44z M141.93,93.34c-2.83,0.22-5.28-2.21-5.47-5.43c-0.19-3.21,1.95-5.99,4.78-6.21
			c2.83-0.22,5.28,2.21,5.47,5.43C146.9,90.35,144.76,93.12,141.93,93.34z M155.65,80.61c2.83-0.22,5.28,2.21,5.47,5.43
			c0.19,3.21-1.95,5.99-4.78,6.21c-2.83,0.22-5.28-2.21-5.47-5.43C150.68,83.6,152.82,80.83,155.65,80.61z"/>
		
			<linearGradient id="SVGID_00000065762441406460842990000014240270502397761414_" gradientUnits="userSpaceOnUse" x1="135.1467" y1="136.0117" x2="229.6072" y2="41.5512">
			<stop  offset="0" style="stop-color:#00FFC9"/>
			<stop  offset="0.1279" style="stop-color:#05F9CB"/>
			<stop  offset="0.2989" style="stop-color:#13E8D0"/>
			<stop  offset="0.4944" style="stop-color:#2BCCD9"/>
			<stop  offset="0.708" style="stop-color:#4BA5E5"/>
			<stop  offset="0.9338" style="stop-color:#7574F5"/>
			<stop  offset="1" style="stop-color:#8264FA"/>
		</linearGradient>
		<path style="fill:url(#SVGID_00000065762441406460842990000014240270502397761414_);" d="M212.52,115.21L174,118.85l-26.32,29.69
			l24.39-33.34l35.31-4.37c12.2-1.46,20.54-8.02,23.11-20.4l0.64-47.36l3.21,40.8C234.85,102.07,225.35,113.03,212.52,115.21z
			 M132.29,88.62c0,3.28-2.29,5.94-5.12,5.94s-5.12-2.66-5.12-5.94c0-3.28,2.29-5.94,5.12-5.94S132.29,85.34,132.29,88.62z
			 M141.58,81.58c-2.83,0-5.12,2.66-5.12,5.94c0,3.28,2.29,5.94,5.12,5.94s5.12-2.66,5.12-5.94
			C146.7,84.24,144.41,81.58,141.58,81.58z M155.99,80.48c-2.83,0-5.12,2.66-5.12,5.94c0,3.28,2.29,5.94,5.12,5.94
			c2.83,0,5.12-2.66,5.12-5.94C161.11,83.14,158.82,80.48,155.99,80.48z"/>
	</g>
</g>
</svg>
