<?xml version="1.0" encoding="utf-8"?>
<!-- Generator: Adobe Illustrator 27.8.1, SVG Export Plug-In . SVG Version: 6.00 Build 0)  -->
<svg version="1.1" xmlns="http://www.w3.org/2000/svg" xmlns:xlink="http://www.w3.org/1999/xlink" x="0px" y="0px"
	 viewBox="0 0 350 230" style="enable-background:new 0 0 350 230;" xml:space="preserve">
<style type="text/css">
	.st0{fill:#D2FCFF;}
	.st1{fill:#ECFCD4;}
	.st2{fill:#FFFDC7;}
	.st3{fill:#FFE0C7;}
	.st4{fill:#D4F9F7;}
	.st5{fill:#F7F9D4;}
	.st6{fill:#DBF9D4;}
	.st7{fill:#ADF7BD;}
	.st8{fill:#F9F3AC;}
	.st9{fill:#E6007E;}
	.st10{fill:#FFED00;}
	.st11{fill:#009FE3;}
	.st12{fill:#A6A6ED;}
	.st13{fill:#F7595F;}
	.st14{fill:#F2BD65;}
	.st15{fill:#560033;}
	.st16{fill:#FFFFFF;}
	.st17{fill:#062BB5;}
	.st18{fill:#006D6D;}
	.st19{fill:#00B1FF;}
	.st20{fill:#2A8E00;}
	.st21{fill:#A09002;}
	.st22{fill:#FFCE00;}
	.st23{fill:#23D513;}
	.st24{fill:#E33056;}
	.st25{fill:#4399DE;}
	.st26{fill:none;stroke:#1D1D1B;stroke-width:1.6634;stroke-miterlimit:10;}
	.st27{fill:none;stroke:#1D1D1B;stroke-width:1.2062;stroke-miterlimit:10;}
	.st28{fill:none;stroke:#1D1D1B;stroke-width:1.6634;stroke-linecap:round;stroke-linejoin:round;stroke-miterlimit:10;}
	.st29{fill:#23D513;stroke:#FFFFFF;stroke-width:1.5;stroke-miterlimit:10;}
	.st30{fill:#FFCE00;stroke:#FFFFFF;stroke-width:1.5;stroke-miterlimit:10;}
	.st31{fill:#4399DE;stroke:#FFFFFF;stroke-width:1.5;stroke-miterlimit:10;}
	.st32{fill:#E33056;stroke:#FFFFFF;stroke-width:1.5;stroke-miterlimit:10;}
	.st33{fill:#005D72;}
	.st34{fill:#1C0007;}
	.st35{fill:url(#SVGID_1_);stroke:#539873;stroke-width:0.0823;}
	.st36{opacity:0.5325;fill:#0D2B5E;enable-background:new    ;}
	.st37{opacity:0.5325;fill:#FFFFFF;enable-background:new    ;}
	.st38{opacity:0.1774;fill:#89E2FF;enable-background:new    ;}
	.st39{fill:url(#path45522_00000120542312357777242130000013691043280183330973_);}
	.st40{fill:url(#path45518_00000117658276628301906770000017360069317796869790_);}
	.st41{opacity:0.401;fill:#FEAE53;enable-background:new    ;}
	
		.st42{fill:url(#SVGID_00000013180092106402472860000015968555346526245001_);stroke:#93A8B1;stroke-width:0.0823;stroke-opacity:0.8667;}
	.st43{opacity:0.6876;fill:#641991;enable-background:new    ;}
	.st44{opacity:0.428;fill:#B51238;enable-background:new    ;}
	.st45{fill:url(#SVGID_00000088102213364731989530000008339985252451155636_);}
	.st46{opacity:0.1774;fill:#40E3FF;enable-background:new    ;}
	.st47{opacity:0.5325;fill:#00275F;enable-background:new    ;}
	.st48{fill:url(#SVGID_00000183951350218050672530000009897631968325811084_);}
	.st49{opacity:0.5187;fill:url(#SVGID_00000161626674057114500940000001604106091998653581_);enable-background:new    ;}
	.st50{opacity:0.5325;fill:#180137;enable-background:new    ;}
	.st51{fill:url(#SVGID_00000027605198821584163770000007479064644628064143_);}
	.st52{fill:url(#SVGID_00000080208414758950251930000003921275176533842103_);}
	.st53{opacity:0.401;fill:#FFB04B;enable-background:new    ;}
	.st54{fill-rule:evenodd;clip-rule:evenodd;fill:#4C4C4C;}
	.st55{fill-rule:evenodd;clip-rule:evenodd;fill:url(#SVGID_00000096756960714826768780000015835758507926123157_);}
	.st56{fill-rule:evenodd;clip-rule:evenodd;fill:url(#SVGID_00000168813883695892461070000002909885612827934131_);}
	.st57{fill-rule:evenodd;clip-rule:evenodd;fill:url(#SVGID_00000044145891645179378590000000014389310693365948_);}
	.st58{fill-rule:evenodd;clip-rule:evenodd;fill:url(#SVGID_00000047767670178764018300000003269569337004913811_);}
	.st59{fill:url(#SVGID_00000093159956677968929910000012413895698328497556_);}
	.st60{fill:url(#SVGID_00000137113212378520040480000008588805314720652473_);}
	.st61{fill:url(#SVGID_00000090973674492030826690000015693805205200640936_);}
	.st62{fill:url(#SVGID_00000016032851863555124200000012544687704520080796_);}
	.st63{fill:url(#SVGID_00000126300488829924885650000007734916372848991361_);}
	.st64{fill:url(#SVGID_00000081644634169107429620000005988707482314733722_);}
	.st65{fill:url(#SVGID_00000151520979794012734730000013917896056319835266_);}
	.st66{fill:url(#SVGID_00000095318006195219834080000003770537858041769351_);}
	.st67{fill:url(#SVGID_00000162329937149766628650000005743603504037816455_);}
	.st68{fill:url(#SVGID_00000116203511275193124220000014804587571340499353_);}
	.st69{fill:url(#SVGID_00000165209243806478106940000018210479175958225296_);}
	.st70{fill:url(#SVGID_00000140014341212882129680000017308876723579084672_);}
	.st71{fill:url(#SVGID_00000053544229324877138970000012713902263827271072_);}
	.st72{fill:url(#SVGID_00000038388431691018227200000008810889823569441174_);}
	.st73{fill:url(#SVGID_00000005261718110711115930000015181341068044298921_);}
	.st74{fill:url(#SVGID_00000032620226787590171040000017858826651133838505_);}
	.st75{fill:url(#SVGID_00000073686567147853587300000016511215160080491934_);}
	.st76{fill:url(#SVGID_00000091717962722853613240000004735959764356486282_);}
	.st77{fill:url(#SVGID_00000090289051032552309830000000112807737849548468_);}
	.st78{fill:url(#SVGID_00000077285634770703336580000009015654776092211865_);}
	.st79{fill:url(#SVGID_00000011020973046728803580000014235623229201217725_);}
	.st80{fill:url(#SVGID_00000116950695358917178710000012055557233378080190_);}
	.st81{fill:url(#SVGID_00000168830288152122140270000017288319047010596504_);}
	.st82{fill:url(#SVGID_00000177485558908287092620000014554489703902217404_);}
	.st83{fill:url(#SVGID_00000010271913884257864770000016982511401672360613_);}
	.st84{fill:url(#SVGID_00000000939370616663287470000009343691299661768604_);}
	.st85{fill:url(#SVGID_00000022559011247822729760000016330497028071749505_);}
	.st86{fill:url(#SVGID_00000086658688879760456850000014188773437387318958_);}
	.st87{fill:url(#SVGID_00000138559198009962620770000018000858586138307999_);}
	.st88{fill:url(#SVGID_00000018924432375396355940000014487272820131857305_);}
	.st89{fill:url(#SVGID_00000097490634761472908230000010305081452482523313_);}
	.st90{fill:url(#SVGID_00000131329139426391794880000009784091168769114035_);}
	.st91{fill:url(#SVGID_00000087381939556454736510000002687291376014563763_);}
	.st92{fill:url(#SVGID_00000164512828573616250060000017001619771199941521_);}
	.st93{fill:url(#SVGID_00000040561236989754746370000006478469685946648456_);}
	.st94{fill:url(#SVGID_00000125579437042863063570000016853857741497148812_);}
	.st95{fill:url(#SVGID_00000069378302903831017670000007732735940891391893_);}
	.st96{fill:url(#SVGID_00000173145439601216320660000017540122429144630196_);}
	.st97{fill:url(#SVGID_00000183247363236105138030000010742244624065341352_);}
	.st98{fill:#FFF100;}
</style>
<g id="Layer_1">
</g>
<g id="Layer_2">
</g>
<g id="Layer_3">
</g>
<g id="Layer_4">
</g>
<g id="Layer_5">
</g>
<g id="Layer_6">
</g>
<g id="Layer_7">
</g>
<g id="Layer_8">
</g>
<g id="Layer_9">
</g>
<g id="Layer_10">
</g>
<g id="Layer_11">
</g>
<g id="Layer_12">
</g>
<g id="Layer_13">
</g>
<g id="Layer_14">
</g>
<g id="_x31_-15">
	<g>
		<linearGradient id="SVGID_1_" gradientUnits="userSpaceOnUse" x1="218.7075" y1="103.8056" x2="118.5001" y2="123.6941">
			<stop  offset="0" style="stop-color:#FAEF5F"/>
			<stop  offset="0.3135" style="stop-color:#F9D757"/>
			<stop  offset="0.9729" style="stop-color:#F59A42"/>
			<stop  offset="1" style="stop-color:#F59741"/>
		</linearGradient>
		<path style="fill:url(#SVGID_1_);" d="M219.97,116.64c-2.42,7.05-3.32,14.52-3.82,21.95c-0.11,1.57-0.22,3.22-1.09,4.53
			c-0.77,1.16-2.03,1.89-3.27,2.53c-6,3.1-12.58,4.96-19.29,5.67c-1.45,3.98-4.06,7.57-7.41,10.38c-3.95,3.31-8.78,5.6-13.82,7.09
			c-3.18,0.94-7.06,1.44-9.51-0.7c-0.25-0.22-0.49-0.48-0.57-0.79c-0.21-0.76,0.52-1.43,1.15-1.94c2.55-2.07,4.71-4.57,6.37-7.32
			c1.38-2.28,2.34-4.7,3.06-7.23c0.09-0.32,0.18-0.64,0.27-0.97c-5.79-1.49-11.35-3.88-16.35-7.17c-3.84-2.53-7.39-5.56-10.21-9.19
			c-4.19-5.39-6.68-11.97-7.73-18.71c-2.95-18.79,5.85-38.92,21.64-49.52c5.07-3.4,10.72-5.85,16.49-7.82
			c7.13-2.43,14.65-4.14,22.21-3.98c3.08,0.07,8.49,0.04,11.14,1.82c2.26,1.52,2.31,6.24,3.79,8.78c1.41,2.42,3.47,4.38,5.38,6.43
			c4.88,5.24,9.05,11.62,9.63,18.76C228.78,98.82,223.09,107.55,219.97,116.64z"/>
		
			<linearGradient id="SVGID_00000116195912495023260890000014546001749658878854_" gradientUnits="userSpaceOnUse" x1="194.384" y1="41.6261" x2="213.2137" y2="117.2179">
			<stop  offset="0" style="stop-color:#EF7EC0"/>
			<stop  offset="0.2278" style="stop-color:#EC66AE"/>
			<stop  offset="0.7061" style="stop-color:#E52981"/>
			<stop  offset="1" style="stop-color:#E00063"/>
		</linearGradient>
		<path style="fill:url(#SVGID_00000116195912495023260890000014546001749658878854_);" d="M198.55,80.1
			c1.34-6.19-2.08-12.36-0.91-18.33c0.62-3.16,2.05-6.41,4.42-8.2c1-0.76,16.82,0.44,20.65,2.94c11.35,7.41,16.03,22.76,13.65,36.11
			c-0.6,3.38-1.75,6.64-3.01,9.84c-0.52,1.33-1.07,2.67-1.34,4.07c-0.26,1.36-0.24,2.76-0.25,4.14c-0.05,5.5-0.57,11-1.55,16.42
			c-1,5.52-30.48,23.02-30.48,23.02s-2.9-0.2-4.99-1.24c-2.09-1.04-3.83-3.06-3.95-5.4c-0.1-2.1,1.06-4.01,1.81-5.97
			c0.75-1.96,0.98-4.49-0.59-5.88c-1.44-1.28-4.25-1.59-4.23-3.52c0.01-1.64,2.16-2.21,3.8-2.35c7.12-0.62,14.73-3.02,18.68-8.98
			c0.84-1.27,1.5-2.72,1.52-4.24c0.02-1.52-0.72-3.12-2.08-3.8c-5.34,5.09-12.88,7.8-20.24,7.27c-1.59-0.11-3.68-1.17-3.09-2.65
			c0.27-0.67,1-1,1.64-1.34c2.46-1.3,4.32-3.67,5.02-6.37c-3.38,1.11-6.96,2.22-10.45,1.52c-3.49-0.71-6.74-3.95-6.11-7.46
			c0.4-2.23,2.23-3.97,4.25-5.02c2.01-1.05,4.25-1.57,6.36-2.41C192.15,90.27,197.35,85.65,198.55,80.1z"/>
		
			<linearGradient id="SVGID_00000008131283139531465470000006501969774315963031_" gradientUnits="userSpaceOnUse" x1="205.7349" y1="44.6091" x2="223.4583" y2="115.7593">
			<stop  offset="0" style="stop-color:#EF7EC0"/>
			<stop  offset="0.2278" style="stop-color:#EC66AE"/>
			<stop  offset="0.7061" style="stop-color:#E52981"/>
			<stop  offset="1" style="stop-color:#E00063"/>
		</linearGradient>
		<path style="fill:url(#SVGID_00000008131283139531465470000006501969774315963031_);" d="M200.16,57.17
			c0,0,21.09-11.8,40.89,13.77c19.8,25.57,5.23,70.64-41.32,79.18c0,0,1.8-0.53,10.76-25.52c9.96-27.81,4.17-37.99,4.17-39.64
			c0-1.65,6.39-1.44,0-7.42c-6.39-5.98-10.72-10.1-11.75-11.55C201.86,64.54,209.85,57.41,200.16,57.17z"/>
		
			<linearGradient id="SVGID_00000139977184489139545650000017899203024018027450_" gradientUnits="userSpaceOnUse" x1="128.1684" y1="27.2438" x2="169.0824" y2="132.3701">
			<stop  offset="0" style="stop-color:#45F4FF"/>
			<stop  offset="0.357" style="stop-color:#43CFFE"/>
			<stop  offset="1" style="stop-color:#3F83FB"/>
		</linearGradient>
		<path style="fill:url(#SVGID_00000139977184489139545650000017899203024018027450_);" d="M185.3,77.13
			c-3.58,8.22-10.55,14.69-18.58,18.67c-2.52,1.25-5.16,2.19-7.85,3.01c0.33,2.09,0.5,4.21,1.16,6.27c1.01,3.14,2.74,6.13,5.39,8.1
			c0.6,0.44,1.3,0.94,1.34,1.69c0.03,0.65-0.52,1.22-1.13,1.42c-0.62,0.21-1.29,0.13-1.94,0.03c-7.29-1.11-14.18-4.66-19.33-9.94
			c-1.36-1.4-2.58-3.01-3.41-4.77c-0.09,0-0.18,0.02-0.27,0.02c-8.85,0.23-17.97-0.95-25.74-5.18
			c-7.78-4.23-13.56-11.98-14.87-20.74c-2.83-18.96,5.03-45.63,55.61-44.02c8.58,0.27,21.8,5.39,28,16.58
			C188.51,56.95,189.22,68.13,185.3,77.13z"/>
	</g>
</g>
</svg>
