<?xml version="1.0" encoding="utf-8"?>
<!-- Generator: Adobe Illustrator 27.8.1, SVG Export Plug-In . SVG Version: 6.00 Build 0)  -->
<svg version="1.1" xmlns="http://www.w3.org/2000/svg" xmlns:xlink="http://www.w3.org/1999/xlink" x="0px" y="0px"
	 viewBox="0 0 350 230" style="enable-background:new 0 0 350 230;" xml:space="preserve">
<style type="text/css">
	.st0{fill:#D2FCFF;}
	.st1{fill:#ECFCD4;}
	.st2{fill:#FFFDC7;}
	.st3{fill:#FFE0C7;}
	.st4{fill:#D4F9F7;}
	.st5{fill:#F7F9D4;}
	.st6{fill:#DBF9D4;}
	.st7{fill:#ADF7BD;}
	.st8{fill:#F9F3AC;}
	.st9{fill:#E6007E;}
	.st10{fill:#FFED00;}
	.st11{fill:#009FE3;}
	.st12{fill:#A6A6ED;}
	.st13{fill:#F7595F;}
	.st14{fill:#F2BD65;}
	.st15{fill:#560033;}
	.st16{fill:#FFFFFF;}
	.st17{fill:#062BB5;}
	.st18{fill:#006D6D;}
	.st19{fill:#00B1FF;}
	.st20{fill:#2A8E00;}
	.st21{fill:#A09002;}
	.st22{fill:#FFCE00;}
	.st23{fill:#23D513;}
	.st24{fill:#E33056;}
	.st25{fill:#4399DE;}
	.st26{fill:none;stroke:#1D1D1B;stroke-width:1.6634;stroke-miterlimit:10;}
	.st27{fill:none;stroke:#1D1D1B;stroke-width:1.2062;stroke-miterlimit:10;}
	.st28{fill:none;stroke:#1D1D1B;stroke-width:1.6634;stroke-linecap:round;stroke-linejoin:round;stroke-miterlimit:10;}
	.st29{fill:#23D513;stroke:#FFFFFF;stroke-width:1.5;stroke-miterlimit:10;}
	.st30{fill:#FFCE00;stroke:#FFFFFF;stroke-width:1.5;stroke-miterlimit:10;}
	.st31{fill:#4399DE;stroke:#FFFFFF;stroke-width:1.5;stroke-miterlimit:10;}
	.st32{fill:#E33056;stroke:#FFFFFF;stroke-width:1.5;stroke-miterlimit:10;}
	.st33{fill:#005D72;}
	.st34{fill:#1C0007;}
	.st35{fill:url(#SVGID_1_);stroke:#539873;stroke-width:0.0823;}
	.st36{opacity:0.5325;fill:#0D2B5E;enable-background:new    ;}
	.st37{opacity:0.5325;fill:#FFFFFF;enable-background:new    ;}
	.st38{opacity:0.1774;fill:#89E2FF;enable-background:new    ;}
	.st39{fill:url(#path45522_00000134217062882696546700000004076004094479196061_);}
	.st40{fill:url(#path45518_00000129884801617066699310000011261371543491230129_);}
	.st41{opacity:0.401;fill:#FEAE53;enable-background:new    ;}
	
		.st42{fill:url(#SVGID_00000073706435328416761180000011761806412363933825_);stroke:#93A8B1;stroke-width:0.0823;stroke-opacity:0.8667;}
	.st43{opacity:0.6876;fill:#641991;enable-background:new    ;}
	.st44{opacity:0.428;fill:#B51238;enable-background:new    ;}
	.st45{fill:url(#SVGID_00000155148629602966664330000005714075082450951316_);}
	.st46{opacity:0.1774;fill:#40E3FF;enable-background:new    ;}
	.st47{opacity:0.5325;fill:#00275F;enable-background:new    ;}
	.st48{fill:url(#SVGID_00000106148784721458618550000017025579910088065435_);}
	.st49{opacity:0.5187;fill:url(#SVGID_00000065045794195682991330000010591481111112988592_);enable-background:new    ;}
	.st50{opacity:0.5325;fill:#180137;enable-background:new    ;}
	.st51{fill:url(#SVGID_00000017488789876136630190000016954588918474886326_);}
	.st52{fill:url(#SVGID_00000045578638139311155730000002984683468042127524_);}
	.st53{opacity:0.401;fill:#FFB04B;enable-background:new    ;}
	.st54{fill-rule:evenodd;clip-rule:evenodd;fill:#4C4C4C;}
	.st55{fill-rule:evenodd;clip-rule:evenodd;fill:url(#SVGID_00000124132484636187251280000009616190803077701764_);}
	.st56{fill-rule:evenodd;clip-rule:evenodd;fill:url(#SVGID_00000068641417009086028370000003756816484751869104_);}
	.st57{fill-rule:evenodd;clip-rule:evenodd;fill:url(#SVGID_00000085937110132086244560000004408611184602061233_);}
	.st58{fill-rule:evenodd;clip-rule:evenodd;fill:url(#SVGID_00000067209044949669755310000017819404194013880506_);}
	.st59{fill:url(#SVGID_00000091719506589419343980000005582478255903486338_);}
	.st60{fill:url(#SVGID_00000021119017117377210350000013483064467383100068_);}
	.st61{fill:url(#SVGID_00000116922693994971877800000007847092688235284097_);}
	.st62{fill:url(#SVGID_00000116943148124412671240000001418693207512631468_);}
	.st63{fill:url(#SVGID_00000088096440780088800050000002490149658949368999_);}
	.st64{fill:url(#SVGID_00000015326263729029181520000001919104648888308369_);}
	.st65{fill:url(#SVGID_00000130608255692097240200000016306988256125856388_);}
	.st66{fill:url(#SVGID_00000163763619063969433660000012657311422999701644_);}
	.st67{fill:url(#SVGID_00000083058278093735269180000011231416267199957893_);}
	.st68{fill:url(#SVGID_00000058576146073714414130000005522461836651435705_);}
	.st69{fill:url(#SVGID_00000070091186302170221400000003697755629652311735_);}
	.st70{fill:url(#SVGID_00000009579478575039350700000007070647145532620974_);}
	.st71{fill:url(#SVGID_00000061434231181834887620000004315775331635244725_);}
	.st72{fill:url(#SVGID_00000129204302574240793910000017017201691244478129_);}
	.st73{fill:url(#SVGID_00000060751314696905340880000012944755254676991121_);}
	.st74{fill:url(#SVGID_00000120553912346567162100000012895137676170938258_);}
	.st75{fill:url(#SVGID_00000108308222103775673550000007955439923702137755_);}
	.st76{fill:url(#SVGID_00000056418090954278344110000015070482254402323840_);}
	.st77{fill:url(#SVGID_00000130632986957075685970000016326593418565577884_);}
	.st78{fill:url(#SVGID_00000021801603455912477400000006732219985703628177_);}
	.st79{fill:url(#SVGID_00000041981422150966694480000010350173084805683111_);}
	.st80{fill:url(#SVGID_00000037681438354088255480000014597834738537355701_);}
	.st81{fill:url(#SVGID_00000018230379117012077950000005283684880460472253_);}
	.st82{fill:url(#SVGID_00000052802507305624820240000011048199584328842405_);}
	.st83{fill:url(#SVGID_00000157988565180467489590000002919016713691432835_);}
	.st84{fill:url(#SVGID_00000120534509815050120000000002193752194720046484_);}
	.st85{fill:url(#SVGID_00000168088174240257637280000006431664245493430188_);}
	.st86{fill:url(#SVGID_00000082339915463363819500000005578995457360716720_);}
	.st87{fill:url(#SVGID_00000160182368870373008400000010891845915717956751_);}
	.st88{fill:url(#SVGID_00000046335461514315491910000004018154769534884998_);}
	.st89{fill:url(#SVGID_00000142858234500463126410000002597468405793232024_);}
	.st90{fill:url(#SVGID_00000018201426952953885980000016521172561154121135_);}
	.st91{fill:url(#SVGID_00000119801319618722384860000005745812406873572783_);}
	.st92{fill:url(#SVGID_00000160185477262181735580000017202679647166093965_);}
	.st93{fill:url(#SVGID_00000124146169930453346940000011260023724283780486_);}
	.st94{fill:url(#SVGID_00000108305827856463134860000015750472966766949016_);}
	.st95{fill:url(#SVGID_00000163064900712964748930000013477366515648241070_);}
	.st96{fill:url(#SVGID_00000144329241057750559610000012604937497324906133_);}
	.st97{fill:url(#SVGID_00000157294403356771256900000006392656830196186498_);}
	.st98{fill:#FFF100;}
</style>
<g id="Layer_1">
</g>
<g id="Layer_2">
</g>
<g id="Layer_3">
</g>
<g id="Layer_4">
</g>
<g id="Layer_5">
</g>
<g id="Layer_6">
</g>
<g id="Layer_7">
</g>
<g id="Layer_8">
</g>
<g id="Layer_9">
</g>
<g id="Layer_10">
</g>
<g id="Layer_11">
</g>
<g id="Layer_12">
</g>
<g id="Layer_13">
</g>
<g id="Layer_14">
</g>
<g id="_x31_-15">
	<g>
		<linearGradient id="SVGID_1_" gradientUnits="userSpaceOnUse" x1="126.958" y1="128.4718" x2="225.5478" y2="128.4718">
			<stop  offset="0" style="stop-color:#FF00FF"/>
			<stop  offset="1" style="stop-color:#FFFF00"/>
		</linearGradient>
		<path style="fill:url(#SVGID_1_);" d="M193.59,145.18c5.5-2.39,10.4-5.87,14.45-10.18c0.09-0.1,0.19-0.2,0.29-0.28
			c1.2-1.01,3-0.86,4.02,0.35l7.48,8.87v-35.89h-87.04c0.71,10.89,5.41,20.69,12.67,27.94c7.88,7.88,18.78,12.76,30.81,12.76
			C182.43,148.75,188.29,147.48,193.59,145.18 M209.98,141.11c-4.11,3.86-8.89,7.03-14.14,9.31c-6.02,2.61-12.65,4.06-19.59,4.06
			c-13.61,0-25.94-5.52-34.86-14.44c-8.92-8.92-14.44-21.24-14.44-34.86c0-1.58,1.28-2.86,2.86-2.86h92.86
			c1.58,0,2.86,1.28,2.86,2.86v46.58c0,1.58-1.28,2.86-2.86,2.86c-0.98,0-1.84-0.49-2.36-1.24L209.98,141.11z M160.32,116
			c4.41,0,7.99,3.58,7.99,7.99c0,4.41-3.58,7.99-7.99,7.99c-4.41,0-7.99-3.58-7.99-7.99C152.33,119.58,155.91,116,160.32,116
			 M179.39,117.34c3.67,0,6.65,2.98,6.65,6.65c0,3.67-2.98,6.65-6.65,6.65c-3.67,0-6.65-2.98-6.65-6.65
			C172.74,120.32,175.72,117.34,179.39,117.34 M195.1,118.82c2.86,0,5.17,2.31,5.17,5.17c0,2.86-2.31,5.17-5.17,5.17
			s-5.17-2.31-5.17-5.17C189.93,121.14,192.24,118.82,195.1,118.82"/>
		
			<linearGradient id="SVGID_00000017493998427213858300000017273257770650471837_" gradientUnits="userSpaceOnUse" x1="124.4522" y1="67.4542" x2="223.042" y2="67.4542">
			<stop  offset="0" style="stop-color:#FF981B"/>
			<stop  offset="1" style="stop-color:#FC236C"/>
		</linearGradient>
		<path style="fill:url(#SVGID_00000017493998427213858300000017273257770650471837_);" d="M156.41,50.75
			c-5.5,2.39-10.4,5.87-14.45,10.18c-0.09,0.1-0.19,0.2-0.29,0.28c-1.2,1.01-3,0.86-4.02-0.35l-7.48-8.87v35.89h87.04
			c-0.71-10.89-5.41-20.69-12.67-27.94c-7.88-7.88-18.78-12.76-30.81-12.76C167.57,47.18,161.71,48.45,156.41,50.75 M140.02,54.82
			c4.11-3.86,8.89-7.03,14.14-9.31c6.02-2.61,12.65-4.06,19.59-4.06c13.61,0,25.94,5.52,34.86,14.44
			c8.92,8.92,14.44,21.24,14.44,34.86c0,1.58-1.28,2.86-2.86,2.86h-92.86c-1.58,0-2.86-1.28-2.86-2.86V44.17
			c0-1.58,1.28-2.86,2.86-2.86c0.98,0,1.84,0.49,2.36,1.24L140.02,54.82z M189.68,79.93c-4.41,0-7.99-3.58-7.99-7.99
			c0-4.41,3.58-7.99,7.99-7.99c4.41,0,7.99,3.58,7.99,7.99C197.67,76.35,194.09,79.93,189.68,79.93 M170.61,78.58
			c-3.67,0-6.65-2.98-6.65-6.65c0-3.67,2.98-6.65,6.65-6.65c3.67,0,6.65,2.98,6.65,6.65C177.26,75.61,174.28,78.58,170.61,78.58
			 M154.9,77.11c-2.86,0-5.17-2.31-5.17-5.17c0-2.86,2.31-5.17,5.17-5.17s5.17,2.31,5.17,5.17
			C160.07,74.79,157.76,77.11,154.9,77.11"/>
	</g>
	<path class="st16" d="M189.68,77.98c-3.34,0-6.04-2.71-6.04-6.04c0-3.34,2.71-6.04,6.04-6.04c3.34,0,6.04,2.71,6.04,6.04
		C195.72,75.27,193.02,77.98,189.68,77.98 M170.61,76.96c-2.78,0-5.03-2.25-5.03-5.03c0-2.78,2.25-5.03,5.03-5.03
		c2.78,0,5.03,2.25,5.03,5.03C175.64,74.71,173.39,76.96,170.61,76.96 M154.9,75.85c-2.16,0-3.91-1.75-3.91-3.91
		c0-2.16,1.75-3.91,3.91-3.91c2.16,0,3.91,1.75,3.91,3.91C158.81,74.1,157.06,75.85,154.9,75.85"/>
	<path class="st16" d="M160.45,130.03c-3.34,0-6.04-2.71-6.04-6.04c0-3.34,2.71-6.04,6.04-6.04c3.34,0,6.04,2.71,6.04,6.04
		C166.5,127.33,163.79,130.03,160.45,130.03 M179.52,129.02c-2.78,0-5.03-2.25-5.03-5.03c0-2.78,2.25-5.03,5.03-5.03
		c2.78,0,5.03,2.25,5.03,5.03C184.55,126.77,182.3,129.02,179.52,129.02 M195.23,127.9c-2.16,0-3.91-1.75-3.91-3.91
		c0-2.16,1.75-3.91,3.91-3.91s3.91,1.75,3.91,3.91C199.14,126.15,197.39,127.9,195.23,127.9"/>
</g>
</svg>
