<?xml version="1.0" encoding="utf-8"?>
<!-- Generator: Adobe Illustrator 27.8.1, SVG Export Plug-In . SVG Version: 6.00 Build 0)  -->
<svg version="1.1" id="Layer_1" xmlns="http://www.w3.org/2000/svg" xmlns:xlink="http://www.w3.org/1999/xlink" x="0px" y="0px"
	 viewBox="0 0 350 230" style="enable-background:new 0 0 350 230;" xml:space="preserve">
<style type="text/css">
	.st0{fill:#EAE4B0;}
	.st1{fill:#332700;}
	.st2{fill:#EBEBFF;}
	.st3{fill:#FBFFAE;}
	.st4{fill:#B0FFD5;}
	.st5{fill:#B3FFFB;}
	.st6{fill:#FFFAB6;}
	.st7{fill:#2B2700;}
	.st8{fill:#FFFFB8;}
	.st9{fill:#040028;}
	.st10{fill:#260000;}
	.st11{opacity:0.5;fill:#848484;}
	.st12{fill:#2B2401;}
	.st13{fill:#FF7C6C;}
	.st14{fill:#CC2D21;}
	.st15{fill:#F75C4C;}
	.st16{fill:#FFE5CF;}
	.st17{fill:#FFFFFF;}
	.st18{fill:#CFDAE3;}
	.st19{fill:#006C11;}
	.st20{fill:#A11E10;}
	.st21{fill:#EDBC93;}
	.st22{fill:#898989;}
	.st23{fill:#2B1536;}
	.st24{fill:#15352A;}
	.st25{fill:#E4EAF5;}
	.st26{fill:#F2F5F5;}
	.st27{fill:#D6363D;}
	.st28{fill:#600000;fill-opacity:0.5098;}
	.st29{fill:#F2CCA3;}
	.st30{fill:#D28F5F;}
	.st31{fill:#FF0000;fill-opacity:0.5098;}
	.st32{fill:#C7D5F5;}
	.st33{fill:#F3DBC0;}
	.st34{fill:#F58086;}
	.st35{fill:url(#SVGID_1_);}
	.st36{fill:#FCC7A2;}
	.st37{fill:url(#SVGID_00000079462170207083295050000017286908368597890491_);}
	.st38{fill:#E20328;}
	.st39{fill:url(#SVGID_00000008132974688273914130000011827836523652019643_);}
	.st40{fill:#F4BDA8;}
	.st41{fill:#DCF7F6;}
	.st42{fill:url(#SVGID_00000080185079986041634690000000847945223014429340_);}
	.st43{fill:url(#SVGID_00000136387808388289025110000005313925366650674877_);}
	.st44{fill:url(#SVGID_00000096019741353284376980000002488341072442291861_);}
	.st45{fill:url(#SVGID_00000088844538636211170670000008889864257354588581_);}
	.st46{fill:url(#SVGID_00000183224120282906144120000017077193764728407695_);}
	.st47{fill:url(#SVGID_00000179630861997533319900000008088510161636236440_);}
	.st48{fill:url(#SVGID_00000163781856778359945320000008139850357297692834_);}
	.st49{fill:url(#SVGID_00000054951641585939994920000002551346695873087653_);}
	.st50{fill:url(#SVGID_00000113322441888796729910000003710495324760286853_);}
	.st51{fill:#E2B881;}
	.st52{fill:#FFFFFF;stroke:#000000;stroke-width:0.05;stroke-miterlimit:10;}
	.st53{fill:url(#SVGID_00000092429680411868135200000014737074910971488130_);}
	.st54{fill:url(#SVGID_00000139285053450889538790000001923390002840400260_);}
	.st55{fill:#0B9ED8;}
	.st56{fill:#FCDFB0;}
	.st57{fill:#FF0013;}
	.st58{fill:url(#SVGID_00000038414353625284923740000005998804224441913267_);}
	.st59{fill:#0A50FF;}
	.st60{fill:#FFB773;}
	.st61{fill-rule:evenodd;clip-rule:evenodd;fill:url(#SVGID_00000073701687961915832800000016919410516575008917_);}
	.st62{fill:#FF334F;}
	.st63{fill:#FFAB66;}
	.st64{fill:#FF8B41;}
	.st65{fill:#BB386B;}
	.st66{fill:#CBCBCB;}
	.st67{fill:#D37250;}
	.st68{fill:#D06D2E;}
	.st69{fill-rule:evenodd;clip-rule:evenodd;fill:#FFFFFF;}
	.st70{fill:#CAFFEC;}
	.st71{fill:#FFF6B3;}
	.st72{fill:#FFFBD2;}
	.st73{fill:#EFFFD2;}
	.st74{fill:#A01D21;}
	.st75{fill:#00261B;}
	.st76{fill:#F4FFB6;}
	.st77{fill:url(#SVGID_00000069373453681109075930000017740453691429973182_);}
	.st78{fill:#002340;}
	.st79{fill:url(#SVGID_00000052071139699000034020000013408183340226593706_);}
	.st80{fill:url(#SVGID_00000106840591268560569920000010624220575455236997_);}
	.st81{fill:#D91215;}
	.st82{fill:#98BBCE;}
	.st83{fill:#00A70C;}
	.st84{fill:#C47E2A;}
	.st85{fill-rule:evenodd;clip-rule:evenodd;fill:#1F1D1D;}
	.st86{fill-rule:evenodd;clip-rule:evenodd;fill:#2B2700;}
	.st87{fill-rule:evenodd;clip-rule:evenodd;fill:#FF1943;}
	.st88{fill:url(#SVGID_00000054970927298457172630000011175211743634716830_);}
	.st89{fill:url(#SVGID_00000136409554345741489980000008461341551113794745_);}
	.st90{fill:url(#SVGID_00000012450424551149778330000005966928417520710784_);}
	.st91{fill:url(#SVGID_00000151545574097379341170000017965027198799022476_);}
	.st92{fill:url(#SVGID_00000005251888970309243470000014306000885732219569_);}
	.st93{fill:url(#SVGID_00000047044809799691400900000013731866196489665707_);}
	.st94{fill:#E31E26;}
	.st95{fill:#811517;}
	.st96{fill:url(#SVGID_00000103984749738823908940000005568537008491321516_);}
	.st97{fill:url(#SVGID_00000102525760794890194960000016845409418666073754_);}
	.st98{fill:url(#SVGID_00000020362185925865340900000015118709272287861381_);}
	.st99{fill:#B47920;}
	.st100{fill:#089E32;}
	.st101{fill:#FFE30B;}
	.st102{fill-rule:evenodd;clip-rule:evenodd;fill:#EE1D24;}
	.st103{fill:#17377D;}
	.st104{filter:url(#Adobe_OpacityMaskFilter);}
	.st105{opacity:0.28;mask:url(#SVGID_00000045604323416817229580000006346245207419403405_);}
	.st106{fill:#3A3132;}
	.st107{fill:url(#SVGID_00000055684044904456821700000006467725404766617494_);}
	.st108{filter:url(#Adobe_OpacityMaskFilter_00000070097010873701032470000004618914601721532837_);}
	.st109{opacity:0.28;mask:url(#SVGID_00000165220275252283773350000000620842949611257500_);}
	.st110{fill:#102A63;}
	.st111{filter:url(#Adobe_OpacityMaskFilter_00000016065219487455871270000005676089827613913769_);}
	.st112{opacity:0.28;mask:url(#SVGID_00000054951285422146001730000004278803668676861844_);}
	.st113{fill:#0E2458;}
	.st114{filter:url(#Adobe_OpacityMaskFilter_00000174593254512116290720000013523337050214132151_);}
	.st115{opacity:0.25;mask:url(#SVGID_00000176009723851193496320000011448609747095312811_);}
	.st116{fill:url(#SVGID_00000052093409232866152820000003543525224965308302_);}
	.st117{fill:#00BEC6;}
	.st118{fill:url(#SVGID_00000060739488828291479350000002024444339681011641_);}
	.st119{fill:url(#SVGID_00000127018864460050252440000015443762869890586000_);stroke:#FFFFFF;stroke-miterlimit:10;}
	
		.st120{fill:url(#SVGID_00000031893091954956356710000000428625522769471414_);stroke:#FFFFFF;stroke-width:0.5;stroke-miterlimit:10;}
	.st121{fill:url(#SVGID_00000080918971142530960430000014861292491781156282_);}
	.st122{fill:#F9D075;}
	.st123{fill:#FFEF92;}
	.st124{fill:url(#SVGID_00000090286067923095610080000005608479013171274161_);}
	.st125{fill:url(#SVGID_00000165946102300240620130000010918847045052466871_);}
	.st126{fill:url(#SVGID_00000057868086282119730580000002362281741889317789_);}
	.st127{fill:#09890F;}
	.st128{fill:#A9CE4D;}
	.st129{fill:#FF9501;}
	.st130{fill:#AA1523;}
	.st131{fill:#006B52;}
	.st132{fill:#EEC200;}
	.st133{fill:#9F4641;}
	.st134{fill:url(#SVGID_00000110466667666226511690000011690569269360163212_);stroke:#FFFFFF;stroke-miterlimit:10;}
	.st135{fill:none;stroke:#FFFFFF;stroke-width:1.7883;stroke-miterlimit:10;}
	.st136{fill:none;stroke:#BFDADD;stroke-width:2;stroke-linecap:round;stroke-linejoin:round;stroke-miterlimit:10;}
	.st137{fill:none;stroke:#016D39;stroke-width:2;stroke-linecap:round;stroke-linejoin:round;stroke-miterlimit:10;}
	.st138{fill:none;stroke:#00BFAD;stroke-width:2;stroke-linecap:round;stroke-linejoin:round;stroke-miterlimit:10;}
	.st139{fill:#12162E;}
	.st140{fill:none;stroke:#12162E;stroke-miterlimit:10;}
	.st141{fill:#016D39;}
	.st142{fill:#083F24;}
	.st143{fill:#FF5635;}
	.st144{fill:#C63724;}
	.st145{fill:#FFBE00;}
	.st146{fill:#00BFAD;}
	.st147{fill:#D1D3D3;}
	.st148{fill:#9A4641;}
	.st149{fill:url(#SVGID_00000064340966844836867550000007768410224357419699_);}
	.st150{fill:url(#SVGID_00000101816530573811918880000011728978984822513033_);stroke:#FFFFFF;stroke-miterlimit:10;}
	.st151{fill:#F75D58;}
	.st152{fill:url(#SVGID_00000152950696184365703770000005565582473209518497_);}
	.st153{opacity:0.42;fill:#FFFFFF;}
	.st154{fill:#229200;}
	.st155{fill:#FF0000;}
	.st156{fill:#0C1F26;}
	.st157{fill:#E43724;}
	.st158{fill:#6B2422;}
	.st159{fill:#FBF1E5;}
	.st160{fill:#FAF8F0;}
	.st161{fill:#EEEEED;}
	.st162{fill:#DBDEDD;}
	.st163{fill:#A6453D;}
	.st164{fill:#E3E4E7;}
	.st165{fill:#D2301D;}
	.st166{fill:#E2D7D0;}
	.st167{fill:#FCF8EF;}
	.st168{fill:#C42C1E;}
	.st169{fill:#0C232B;}
	.st170{fill:#0D3B6E;}
	.st171{fill:#139AEC;}
	.st172{fill:#F52A3C;}
	.st173{fill:url(#SVGID_00000065775677763151419090000003175231585177445561_);}
	.st174{fill:#890924;}
	.st175{fill:url(#SVGID_00000145756051428076604290000001968744311738725262_);}
	.st176{fill-rule:evenodd;clip-rule:evenodd;fill:url(#SVGID_00000099628570939283797030000018197357563715411589_);}
	.st177{fill-rule:evenodd;clip-rule:evenodd;fill:#CE1515;}
	.st178{fill-rule:evenodd;clip-rule:evenodd;fill:#FFFBDD;}
	.st179{fill-rule:evenodd;clip-rule:evenodd;fill:#06542B;}
	.st180{fill-rule:evenodd;clip-rule:evenodd;fill:#AA1111;}
	.st181{fill:#005C01;}
	.st182{fill:#F5AB35;}
	.st183{fill-rule:evenodd;clip-rule:evenodd;fill:#215605;}
	.st184{fill:#215605;}
	.st185{fill-rule:evenodd;clip-rule:evenodd;fill:url(#SVGID_00000092446465664958520080000008141268009989689513_);}
	.st186{fill:url(#SVGID_00000052085443232204664380000016531454292037107600_);}
	.st187{fill:url(#SVGID_00000008119424276895385000000017411639443117515144_);}
	.st188{fill:url(#SVGID_00000089573095172148678140000008513473737858381704_);}
	.st189{fill:url(#SVGID_00000163758628729597149770000018147658710373790106_);}
	.st190{fill:url(#SVGID_00000066513167627726931550000004345077079969503412_);}
	.st191{fill:url(#SVGID_00000036217822785623630380000000937079363913582266_);}
	.st192{fill:url(#SVGID_00000023257067956048094470000000768721509088163241_);}
	.st193{fill:url(#SVGID_00000170991990954756424160000005813993387657567917_);}
	.st194{fill:url(#SVGID_00000140721994410869747380000009897046010646229655_);}
	.st195{fill:#B6FFFF;}
	.st196{fill:url(#SVGID_00000055701171673126232970000015341777661464214691_);}
	.st197{fill:url(#SVGID_00000075127563023132710030000009137906144369544613_);}
	.st198{fill:url(#SVGID_00000022557335175883721930000011243218608199798930_);}
	.st199{fill:url(#SVGID_00000071529381980355226600000000163397902648187835_);}
	.st200{fill:url(#SVGID_00000113331607681882139450000015075430673800418452_);}
	.st201{fill:url(#SVGID_00000120530131440000514720000002870197524204067463_);}
	.st202{fill:url(#SVGID_00000055703356826840293070000008383913639168129441_);}
	.st203{fill:url(#SVGID_00000088835422903211804500000003960064985394547843_);}
	.st204{fill:url(#SVGID_00000098216911174446570560000011363469477685553035_);}
	.st205{fill:url(#SVGID_00000121256130188701394310000013780790824599474569_);}
	.st206{fill:url(#SVGID_00000133513541321041915670000015713976013923403436_);}
	.st207{fill:url(#SVGID_00000074435998683194931540000018009291149838496940_);}
	.st208{fill:url(#SVGID_00000139274817023529622810000016641077935421981595_);}
	.st209{fill:url(#SVGID_00000095338395782427332470000010435637958453410994_);}
	.st210{fill:url(#SVGID_00000055701935148597774970000006691279233635201976_);}
	.st211{fill:url(#SVGID_00000023278276794374942130000002858412719037396403_);}
	.st212{fill:#CE4A43;}
	.st213{fill:url(#SVGID_00000033367391501405688110000011987285943448373916_);}
	.st214{fill:#CE4A43;stroke:#FFFFFF;stroke-miterlimit:10;}
	.st215{fill:none;stroke:#CE4A43;stroke-miterlimit:10;}
</style>
<g>
	<path class="st87" d="M189.83,64.94l1.16,1.05l1.35-0.78l-0.64,1.42l1.16,1.04l-1.55-0.17l-0.63,1.43l-0.32-1.53l-1.55-0.16
		l1.35-0.78L189.83,64.94z M200.08,88.78l2.27,2.05l2.65-1.53l-1.25,2.79l2.28,2.04l-3.04-0.33l-1.24,2.8l-0.63-2.99l-3.04-0.31
		l2.65-1.52L200.08,88.78z M196.52,77.26l0.42,1.05l1.13-0.08l-0.87,0.72l0.42,1.05l-0.96-0.61l-0.87,0.73l0.28-1.1l-0.96-0.6
		l1.13-0.07L196.52,77.26z M220.48,123.87l2.27,2.05l2.65-1.53l-1.25,2.79l2.28,2.04l-3.04-0.33l-1.24,2.8l-0.63-2.99l-3.04-0.31
		l2.65-1.53L220.48,123.87z M214.71,162.83l2.27,2.05l2.65-1.53l-1.25,2.79l2.28,2.04l-3.04-0.33l-1.24,2.8l-0.63-2.99l-3.04-0.31
		l2.65-1.53L214.71,162.83z M215.67,100.62l1.16,1.05l1.35-0.78l-0.64,1.42l1.16,1.04l-1.55-0.17l-0.63,1.42l-0.32-1.53l-1.55-0.16
		l1.35-0.78L215.67,100.62z M235.7,155.52l1.16,1.05l1.35-0.78l-0.64,1.42l1.16,1.04l-1.55-0.17l-0.63,1.43l-0.32-1.53l-1.55-0.16
		l1.35-0.78L235.7,155.52z M189.83,164.75l1.16,1.05l1.35-0.78l-0.64,1.42l1.16,1.04l-1.55-0.17l-0.63,1.42l-0.32-1.53l-1.55-0.16
		l1.35-0.78L189.83,164.75z M211.15,113.21l0.42,1.05l1.13-0.08l-0.87,0.72l0.42,1.05l-0.96-0.61l-0.87,0.73l0.28-1.1l-0.96-0.6
		l1.13-0.07L211.15,113.21z M231.13,116.08l0.42,1.05l1.13-0.08l-0.87,0.72l0.42,1.05l-0.96-0.61l-0.87,0.73l0.28-1.1l-0.96-0.6
		l1.13-0.07L231.13,116.08z M212.63,85.4l0.42,1.05l1.13-0.08l-0.87,0.72l0.42,1.05l-0.96-0.61l-0.87,0.73l0.28-1.1l-0.96-0.6
		l1.13-0.07L212.63,85.4z M240.14,140.36l0.42,1.05l1.13-0.08l-0.87,0.72l0.42,1.05l-0.96-0.61l-0.87,0.73l0.28-1.1l-0.96-0.6
		l1.13-0.07L240.14,140.36z M234.6,167.3l0.42,1.05l1.13-0.08l-0.87,0.72l0.42,1.05l-0.96-0.61l-0.87,0.73l0.28-1.1l-0.96-0.6
		l1.13-0.07L234.6,167.3z M204.47,161.39l0.42,1.05l1.13-0.08l-0.87,0.72l0.42,1.05l-0.96-0.61l-0.87,0.73l0.28-1.1l-0.96-0.6
		l1.13-0.07L204.47,161.39z M162.29,64.94l-1.16,1.05l-1.35-0.78l0.64,1.42l-1.16,1.04l1.55-0.17l0.63,1.43l0.32-1.53l1.55-0.16
		l-1.35-0.78L162.29,64.94z M152.04,88.78l-2.27,2.05l-2.65-1.53l1.25,2.79l-2.28,2.04l3.04-0.33l1.24,2.8l0.63-2.99l3.04-0.31
		l-2.65-1.52L152.04,88.78z M155.61,77.26l-0.42,1.05l-1.13-0.08l0.87,0.72l-0.42,1.05l0.96-0.61l0.87,0.73l-0.28-1.1l0.96-0.6
		l-1.13-0.07L155.61,77.26z M131.65,123.87l-2.27,2.05l-2.65-1.53l1.25,2.79l-2.28,2.04l3.04-0.33l1.24,2.8l0.63-2.99l3.04-0.31
		l-2.65-1.53L131.65,123.87z M137.41,162.83l-2.27,2.05l-2.65-1.53l1.25,2.79l-2.28,2.04l3.04-0.33l1.24,2.8l0.63-2.99l3.04-0.31
		l-2.65-1.53L137.41,162.83z M136.45,100.62l-1.16,1.05l-1.35-0.78l0.64,1.42l-1.16,1.04l1.55-0.17l0.63,1.42l0.32-1.53l1.55-0.16
		l-1.35-0.78L136.45,100.62z M116.42,155.52l-1.16,1.05l-1.35-0.78l0.64,1.42l-1.16,1.04l1.55-0.17l0.63,1.43l0.32-1.53l1.55-0.16
		l-1.35-0.78L116.42,155.52z M162.29,164.75l-1.16,1.05l-1.35-0.78l0.64,1.42l-1.16,1.04l1.55-0.17l0.63,1.42l0.32-1.53l1.55-0.16
		l-1.35-0.78L162.29,164.75z M140.97,113.21l-0.42,1.05l-1.13-0.08l0.87,0.72l-0.42,1.05l0.96-0.61l0.87,0.73l-0.28-1.1l0.96-0.6
		l-1.13-0.07L140.97,113.21z M120.99,116.08l-0.42,1.05l-1.13-0.08l0.87,0.72l-0.42,1.05l0.96-0.61l0.87,0.73l-0.28-1.1l0.96-0.6
		l-1.13-0.07L120.99,116.08z M139.5,85.4l-0.42,1.05l-1.13-0.08l0.87,0.72l-0.42,1.05l0.96-0.61l0.87,0.73l-0.28-1.1l0.96-0.6
		l-1.13-0.07L139.5,85.4z M111.98,140.36l-0.42,1.05l-1.13-0.08l0.87,0.72l-0.42,1.05l0.96-0.61l0.87,0.73l-0.28-1.1l0.96-0.6
		l-1.13-0.07L111.98,140.36z M117.52,167.3l-0.42,1.05l-1.13-0.08l0.87,0.72l-0.42,1.05l0.96-0.61l0.87,0.73l-0.28-1.1l0.96-0.6
		l-1.13-0.07L117.52,167.3z M147.65,161.39l-0.42,1.05l-1.13-0.08l0.87,0.72l-0.42,1.05l0.96-0.61l0.87,0.73l-0.28-1.1l0.96-0.6
		l-1.13-0.07L147.65,161.39z M174.09,31.79l2.27,2.05l2.65-1.54l-1.25,2.79l2.28,2.04L177,36.82l-1.24,2.8l-0.63-2.99l-3.04-0.31
		l2.65-1.53L174.09,31.79z M161.76,53.03l0.42,1.05l1.13-0.08l-0.87,0.72l0.42,1.05l-0.96-0.61l-0.87,0.73l0.28-1.1l-0.96-0.6
		l1.13-0.07L161.76,53.03z M183.54,42.86l0.42,1.05l1.13-0.08l-0.87,0.72l0.42,1.05L183.68,45l-0.87,0.73l0.28-1.1l-0.96-0.6
		l1.13-0.07L183.54,42.86z M177.36,165.86l0.42,1.05l1.13-0.08l-0.87,0.72l0.42,1.05l-0.96-0.61l-0.87,0.73l0.28-1.1l-0.96-0.6
		l1.13-0.07L177.36,165.86z M198.53,143.24l1.16,1.05l1.35-0.78l-0.64,1.42l1.16,1.04l-1.55-0.17l-0.63,1.42l-0.32-1.53l-1.55-0.16
		l1.35-0.78L198.53,143.24z M185.66,144.35l0.42,1.05l1.13-0.08l-0.87,0.72l0.42,1.05l-0.96-0.61l-0.87,0.73l0.28-1.1l-0.96-0.6
		l1.13-0.07L185.66,144.35z M172.13,143.79l1.16,1.05l1.35-0.78l-0.64,1.42l1.16,1.04l-1.55-0.17l-0.63,1.43l-0.32-1.53l-1.55-0.16
		l1.35-0.78L172.13,143.79z M160.47,143.79l0.42,1.05l1.13-0.08l-0.87,0.72l0.42,1.05l-0.96-0.61l-0.87,0.73l0.28-1.1l-0.96-0.6
		l1.13-0.07L160.47,143.79z M150.08,141.24l1.16,1.05l1.35-0.78l-0.64,1.42l1.16,1.04l-1.55-0.17l-0.63,1.43l-0.32-1.53l-1.55-0.16
		l1.35-0.78L150.08,141.24z M184.2,116.17l2.27,2.05l2.65-1.53l-1.25,2.79l2.28,2.04l-3.04-0.33l-1.24,2.8l-0.63-2.99l-3.04-0.31
		l2.65-1.52L184.2,116.17z M165.16,108.26l2.27,2.05l2.65-1.53l-1.25,2.79l2.28,2.04l-3.04-0.33l-1.24,2.8l-0.63-2.99l-3.04-0.31
		l2.65-1.53L165.16,108.26z M166.13,121.87l1.16,1.05l1.35-0.78l-0.64,1.42l1.16,1.04l-1.55-0.17l-0.63,1.42l-0.32-1.53l-1.55-0.16
		l1.35-0.78L166.13,121.87z M182.78,107.58l1.16,1.05l1.35-0.78l-0.64,1.42l1.16,1.04l-1.55-0.17l-0.63,1.43l-0.32-1.53l-1.55-0.16
		l1.35-0.78L182.78,107.58z M176.57,118.96l0.42,1.05l1.13-0.08l-0.87,0.72l0.42,1.05l-0.96-0.61l-0.87,0.73l0.28-1.1l-0.96-0.6
		l1.13-0.07L176.57,118.96z M157.56,123.87l0.42,1.05l1.13-0.08l-0.87,0.72l0.42,1.05l-0.96-0.61l-0.87,0.73l0.28-1.1l-0.96-0.6
		l1.13-0.07L157.56,123.87z M195.53,124.42l0.42,1.05l1.13-0.08l-0.87,0.72l0.42,1.05l-0.96-0.61l-0.87,0.73l0.28-1.1l-0.96-0.6
		l1.13-0.07L195.53,124.42z M174.09,84.36l2.27,2.05l2.65-1.54l-1.25,2.79l2.28,2.04L177,89.39l-1.24,2.8l-0.63-2.99l-3.04-0.31
		l2.65-1.53L174.09,84.36z M175.06,78.14l1.16,1.05l1.35-0.78l-0.64,1.42l1.16,1.04l-1.55-0.17l-0.63,1.42l-0.32-1.53l-1.55-0.16
		l1.35-0.78L175.06,78.14z M175.44,70.36l0.42,1.05l1.13-0.08l-0.87,0.72l0.42,1.05l-0.96-0.61l-0.87,0.73l0.28-1.1l-0.96-0.6
		l1.13-0.07L175.44,70.36z"/>
	<radialGradient id="SVGID_1_" cx="175.1586" cy="82.6163" r="53.9579" gradientUnits="userSpaceOnUse">
		<stop  offset="0" style="stop-color:#FFFFFF"/>
		<stop  offset="7.380247e-03" style="stop-color:#F6F8F6"/>
		<stop  offset="0.0477" style="stop-color:#C8D6C8"/>
		<stop  offset="0.0931" style="stop-color:#9DB69D"/>
		<stop  offset="0.1419" style="stop-color:#779A77"/>
		<stop  offset="0.195" style="stop-color:#578257"/>
		<stop  offset="0.2537" style="stop-color:#3B6E3B"/>
		<stop  offset="0.32" style="stop-color:#255E25"/>
		<stop  offset="0.3974" style="stop-color:#145114"/>
		<stop  offset="0.4931" style="stop-color:#094809"/>
		<stop  offset="0.6274" style="stop-color:#024302"/>
		<stop  offset="1" style="stop-color:#004200"/>
	</radialGradient>
	<path class="st35" d="M167.17,77.3c0,0-1.54,0.19-6.82,4.7c-5.28,4.51-7.02,4.81-7.02,4.81s1.27,0.18,3.44-0.34
		c2.17-0.51,3.49-0.93,3.49-0.93s-0.69,0.58-4.74,4.69c-4.05,4.11-5.78,5.04-5.78,5.04s2.02-0.19,3.42-0.59c1.4-0.4,2.71-1,2.71-1
		s-1.61,0.83-5.36,4.95c-3.76,4.11-4.75,5.04-4.75,5.04s2.7-1.43,5.4-2.39c2.7-0.96,3.89-1.16,3.89-1.16s-2.01,1.89-6.16,4.96
		c-4.16,3.07-7.18,3.87-7.18,3.87s3.39,0.78,7.07,0c0,0-4.37,2.08-7.64,6.93c0,0,2.92-1.74,8.51-3.5c5.59-1.76,6.33-2.63,6.33-2.63
		s-0.3,1.81-2.09,4.11c-1.78,2.3-2.25,2.76-2.25,2.76s2.51,0.26,6.91-3.04c4.4-3.29,5.46-2.96,5.46-2.96s-1.14,0.6-2.05,2.95
		c-0.92,2.34-1.72,4.56-1.72,4.56s1.99-3.12,6.1-5.31c4.11-2.19,4.88-3.36,4.88-3.36s-0.21,1.04-1,3.74c-0.79,2.7-1.2,3.93-1.2,3.93
		s1.57-1.61,3.44-3.69c1.86-2.09,2.72-3.42,2.72-3.42s0.86,1.33,2.72,3.42c1.86,2.09,3.44,3.69,3.44,3.69s-0.42-1.24-1.2-3.93
		c-0.79-2.7-1-3.74-1-3.74s0.77,1.17,4.88,3.36c4.11,2.19,6.1,5.31,6.1,5.31s-0.8-2.22-1.72-4.56c-0.92-2.34-2.05-2.95-2.05-2.95
		s1.06-0.33,5.46,2.96c4.4,3.29,6.91,3.04,6.91,3.04s-0.47-0.47-2.25-2.76c-1.78-2.3-2.09-4.11-2.09-4.11s0.74,0.87,6.33,2.63
		c5.59,1.76,8.51,3.5,8.51,3.5c-3.28-4.85-7.64-6.93-7.64-6.93c3.68,0.78,7.07,0,7.07,0s-3.02-0.8-7.18-3.87
		c-4.16-3.07-6.16-4.96-6.16-4.96s1.19,0.19,3.89,1.16c2.7,0.96,5.4,2.39,5.4,2.39s-1-0.93-4.75-5.04
		c-3.76-4.11-5.36-4.95-5.36-4.95s1.32,0.59,2.71,1c1.4,0.4,3.42,0.59,3.42,0.59s-1.73-0.93-5.78-5.04
		c-4.05-4.11-4.74-4.69-4.74-4.69s1.32,0.42,3.48,0.93c2.17,0.51,3.44,0.34,3.44,0.34s-1.73-0.3-7.02-4.81
		c-5.28-4.51-6.83-4.7-6.83-4.7c1.87,2.55,3.39,5.82,3.39,5.82s-0.96-0.64-3.65-1.64c-2.68-1-3.21-2.22-3.21-2.22
		s0.05,0.85,0.37,2.25c0.32,1.4,1.32,3.15,1.32,3.15s-1.17-0.22-3.02-1.81c-1.85-1.59-3.19-3.52-3.19-3.52s-1.34,1.93-3.19,3.52
		c-1.85,1.59-3.02,1.81-3.02,1.81s1-1.75,1.32-3.15c0.32-1.4,0.37-2.25,0.37-2.25s-0.53,1.22-3.21,2.22c-2.68,1-3.65,1.64-3.65,1.64
		S165.31,79.85,167.17,77.3z M152.5,113.2c0,0-1.96-0.16-7.23,3.02c-5.27,3.18-7.74,4.85-15,6.49c0,0,6.55,2.54,14.39,0.61
		c0,0-7.68,5.68-20.36,6.52c0,0,9.44,3.53,15.51,3.47c6.07-0.06,11.02-3.95,11.02-3.95s-2.73,4.21-6.74,6.46
		c0,0,8.13-1.12,14.9-5.69c0,0-1.54,3.52-3.19,5.69c0,0,3.92-2.4,9.84-2.57c0,0-1.65,1.16-3.71,4.21c0,0,3.87-0.1,9.43-3.69
		c0,0-1.38,3.66-3.18,5.75c0,0,3.98-1.45,6.98-4.79c3,3.34,6.98,4.79,6.98,4.79c-1.8-2.09-3.18-5.75-3.18-5.75
		c5.56,3.6,9.43,3.69,9.43,3.69c-2.06-3.05-3.71-4.21-3.71-4.21c5.93,0.18,9.84,2.57,9.84,2.57c-1.65-2.17-3.19-5.69-3.19-5.69
		c6.78,4.56,14.9,5.69,14.9,5.69c-4.01-2.25-6.74-6.46-6.74-6.46s4.95,3.89,11.02,3.95c6.07,0.06,15.51-3.47,15.51-3.47
		c-12.69-0.84-20.36-6.52-20.36-6.52c7.84,1.93,14.39-0.61,14.39-0.61c-7.26-1.64-9.73-3.31-15-6.49c-5.27-3.18-7.23-3.02-7.23-3.02
		c1.73,3.24,4.23,4.43,4.23,4.43s-3.28,0.51-6.39-0.16c-3.12-0.67-5.11-2.92-5.11-2.92s0.55,0.9,1.12,3.59
		c0.58,2.69,1.45,3.77,1.45,3.77s-0.95-0.42-4.27-3.31c-3.33-2.89-6.65-4.72-6.65-4.72c0.74,3.24,2.31,7.23,2.31,7.23
		c-5.49-1.67-9.36-7.93-9.36-7.93s-3.87,6.26-9.36,7.93c0,0,1.57-3.99,2.31-7.23c0,0-3.32,1.83-6.65,4.72
		c-3.33,2.89-4.27,3.31-4.27,3.31s0.87-1.08,1.45-3.77c0.58-2.69,1.12-3.59,1.12-3.59s-1.99,2.26-5.11,2.92
		c-3.12,0.67-6.39,0.16-6.39,0.16S150.77,116.44,152.5,113.2z M175.16,33.7l0.78,2.67c0,0,0.99,7.02,2.17,9.44
		c1.17,2.42,1.33,3.02,1.17,6.39c-0.16,3.37,0.8,3.02,4.14,9.09c3.34,6.07,6.71,8.61,6.71,8.61s-1.38-0.64-3.76-2.25
		c-2.38-1.61-4.46-4.18-4.46-4.18s1.09,4.3,3.82,7.48c2.73,3.18,3.66,4.37,6.52,7.1c2.86,2.73,5.01,3.95,5.01,3.95
		s-2.57,0-5.78-1.61c-3.21-1.61-5.54-2.94-7.74-4.08c-2.2-1.14-3.74-1.3-3.74-1.3s1.19,1.16,2.33,3.07
		c1.14,1.91,1.48,2.63,1.48,2.63s-1.98-0.75-3.53-2.73c-1.56-1.98-2.3-2.49-2.3-2.49s-0.03,1.44,0.1,3.21
		c0.13,1.77,0.33,2.11,0.33,2.11s-0.56-0.65-1.49-1.89c-0.93-1.24-1.74-2.74-1.74-2.74s-0.81,1.5-1.74,2.74
		c-0.93,1.24-1.49,1.89-1.49,1.89s0.2-0.34,0.33-2.11c0.13-1.77,0.1-3.21,0.1-3.21s-0.74,0.51-2.3,2.49
		c-1.56,1.98-3.53,2.73-3.53,2.73s0.34-0.72,1.48-2.63c1.14-1.91,2.33-3.07,2.33-3.07s-1.54,0.16-3.74,1.3
		c-2.2,1.14-4.53,2.47-7.74,4.08C155.63,82,153.06,82,153.06,82s2.15-1.22,5.01-3.95c2.86-2.73,3.79-3.92,6.52-7.1
		c2.73-3.18,3.82-7.48,3.82-7.48s-2.09,2.57-4.46,4.18c-2.38,1.61-3.76,2.25-3.76,2.25s3.37-2.54,6.71-8.61
		c3.34-6.07,4.3-5.72,4.14-9.09c-0.16-3.37,0-3.97,1.17-6.39c1.17-2.42,2.17-9.44,2.17-9.44L175.16,33.7z M175.16,25.73l2.23,6.92
		l7.27-0.01l-5.89,4.26l2.26,6.91l-5.87-4.28l-5.87,4.28l2.26-6.91l-5.89-4.26l7.27,0.01L175.16,25.73z"/>
</g>
</svg>
