<?xml version="1.0" encoding="utf-8"?>
<!-- Generator: Adobe Illustrator 27.8.1, SVG Export Plug-In . SVG Version: 6.00 Build 0)  -->
<svg version="1.1" id="Layer_1" xmlns="http://www.w3.org/2000/svg" xmlns:xlink="http://www.w3.org/1999/xlink" x="0px" y="0px"
	 viewBox="0 0 350 230" style="enable-background:new 0 0 350 230;" xml:space="preserve">
<style type="text/css">
	.st0{fill:#EAE4B0;}
	.st1{fill:#332700;}
	.st2{fill:#EBEBFF;}
	.st3{fill:#FBFFAE;}
	.st4{fill:#B0FFD5;}
	.st5{fill:#B3FFFB;}
	.st6{fill:#FFFAB6;}
	.st7{fill:#2B2700;}
	.st8{fill:#FFFFB8;}
	.st9{fill:#040028;}
	.st10{fill:#260000;}
	.st11{opacity:0.5;fill:#848484;}
	.st12{fill:#2B2401;}
	.st13{fill:#FF7C6C;}
	.st14{fill:#CC2D21;}
	.st15{fill:#F75C4C;}
	.st16{fill:#FFE5CF;}
	.st17{fill:#FFFFFF;}
	.st18{fill:#CFDAE3;}
	.st19{fill:#006C11;}
	.st20{fill:#A11E10;}
	.st21{fill:#EDBC93;}
	.st22{fill:#898989;}
	.st23{fill:#2B1536;}
	.st24{fill:#15352A;}
	.st25{fill:#E4EAF5;}
	.st26{fill:#F2F5F5;}
	.st27{fill:#D6363D;}
	.st28{fill:#600000;fill-opacity:0.5098;}
	.st29{fill:#F2CCA3;}
	.st30{fill:#D28F5F;}
	.st31{fill:#FF0000;fill-opacity:0.5098;}
	.st32{fill:#C7D5F5;}
	.st33{fill:#F3DBC0;}
	.st34{fill:#F58086;}
	.st35{fill:url(#SVGID_1_);}
	.st36{fill:#FCC7A2;}
	.st37{fill:url(#SVGID_00000047748772615121610150000011035052252087986313_);}
	.st38{fill:#E20328;}
	.st39{fill:url(#SVGID_00000128450240636683416650000014129952526660702630_);}
	.st40{fill:#F4BDA8;}
	.st41{fill:#DCF7F6;}
	.st42{fill:url(#SVGID_00000080206082115059041310000014125764155511566493_);}
	.st43{fill:url(#SVGID_00000099645834174111049130000003812172081887211946_);}
	.st44{fill:url(#SVGID_00000147211871163860932810000017661592215571565208_);}
	.st45{fill:url(#SVGID_00000108291308351161403720000013486401087552100283_);}
	.st46{fill:url(#SVGID_00000045605425974408471860000004063842033312810167_);}
	.st47{fill:url(#SVGID_00000011716908531006268740000011592950964295219086_);}
	.st48{fill:url(#SVGID_00000051385828101113127660000002838708569375535515_);}
	.st49{fill:url(#SVGID_00000017481090023262843600000009537350461642221476_);}
	.st50{fill:url(#SVGID_00000089555498655557080290000001665049549068122251_);}
	.st51{fill:#E2B881;}
	.st52{fill:#FFFFFF;stroke:#000000;stroke-width:0.05;stroke-miterlimit:10;}
	.st53{fill:url(#SVGID_00000017503726359448154900000003581940415011604368_);}
	.st54{fill:url(#SVGID_00000170980929068952378480000013623603652973636539_);}
	.st55{fill:#0B9ED8;}
	.st56{fill:#FCDFB0;}
	.st57{fill:#FF0013;}
	.st58{fill:url(#SVGID_00000102528205130777390660000016280038936811997868_);}
	.st59{fill:#0A50FF;}
	.st60{fill:#FFB773;}
	.st61{fill-rule:evenodd;clip-rule:evenodd;fill:url(#SVGID_00000107563035423792124470000013570060390838697619_);}
	.st62{fill:#FF334F;}
	.st63{fill:#FFAB66;}
	.st64{fill:#FF8B41;}
	.st65{fill:#BB386B;}
	.st66{fill:#CBCBCB;}
	.st67{fill:#D37250;}
	.st68{fill:#D06D2E;}
	.st69{fill-rule:evenodd;clip-rule:evenodd;fill:#FFFFFF;}
	.st70{fill:#CAFFEC;}
	.st71{fill:#FFF6B3;}
	.st72{fill:#FFFBD2;}
	.st73{fill:#EFFFD2;}
	.st74{fill:#A01D21;}
	.st75{fill:#00261B;}
	.st76{fill:#F4FFB6;}
	.st77{fill:url(#SVGID_00000116202961388433627070000003532997283079255710_);}
	.st78{fill:#002340;}
	.st79{fill:url(#SVGID_00000007390224532574387030000013611325189182045320_);}
	.st80{fill:url(#SVGID_00000040569938663116193920000015822740916223279749_);}
	.st81{fill:#D91215;}
	.st82{fill:#98BBCE;}
	.st83{fill:#00A70C;}
	.st84{fill:#C47E2A;}
	.st85{fill-rule:evenodd;clip-rule:evenodd;fill:#1F1D1D;}
	.st86{fill-rule:evenodd;clip-rule:evenodd;fill:#2B2700;}
	.st87{fill-rule:evenodd;clip-rule:evenodd;fill:#FF1943;}
	.st88{fill:url(#SVGID_00000180363342712371477190000011000735050630711701_);}
	.st89{fill:url(#SVGID_00000052803295669083738030000012375385853995910057_);}
	.st90{fill:url(#SVGID_00000006706833638267698460000011595787623095851925_);}
	.st91{fill:url(#SVGID_00000062873850070584060330000017717046685461502870_);}
	.st92{fill:url(#SVGID_00000103242583534665657060000008688708114115754162_);}
	.st93{fill:url(#SVGID_00000031889457143129773390000008639348398589227137_);}
	.st94{fill:#E31E26;}
	.st95{fill:#811517;}
	.st96{fill:url(#SVGID_00000073710646376175402760000010385319105455036598_);}
	.st97{fill:url(#SVGID_00000048469677500970767410000000838603031752944035_);}
	.st98{fill:url(#SVGID_00000070807996139279274260000000672573357413183163_);}
	.st99{fill:#B47920;}
	.st100{fill:#089E32;}
	.st101{fill:#FFE30B;}
	.st102{fill-rule:evenodd;clip-rule:evenodd;fill:#EE1D24;}
	.st103{fill:#17377D;}
	.st104{filter:url(#Adobe_OpacityMaskFilter);}
	.st105{opacity:0.28;mask:url(#SVGID_00000111907466348250674950000006700984960079852467_);}
	.st106{fill:#3A3132;}
	.st107{fill:url(#SVGID_00000095334307526955816460000014484084985953082289_);}
	.st108{filter:url(#Adobe_OpacityMaskFilter_00000100380873523243912700000011489563010941302416_);}
	.st109{opacity:0.28;mask:url(#SVGID_00000150783259558052204750000013921818401491505065_);}
	.st110{fill:#102A63;}
	.st111{filter:url(#Adobe_OpacityMaskFilter_00000129895150097950376020000015973635888461073803_);}
	.st112{opacity:0.28;mask:url(#SVGID_00000011009392540948560790000012232414641933742270_);}
	.st113{fill:#0E2458;}
	.st114{filter:url(#Adobe_OpacityMaskFilter_00000128444988473464719440000003276987371210166965_);}
	.st115{opacity:0.25;mask:url(#SVGID_00000076587142609655123710000017662663291320352184_);}
	.st116{fill:url(#SVGID_00000045599559074102570900000017174904626058717097_);}
	.st117{fill:#00BEC6;}
	.st118{fill:url(#SVGID_00000111888071307124972350000013865418449405260955_);}
	.st119{fill:url(#SVGID_00000041990054584518688110000008697015771766065038_);stroke:#FFFFFF;stroke-miterlimit:10;}
	
		.st120{fill:url(#SVGID_00000151504044312811141700000009142856675344299940_);stroke:#FFFFFF;stroke-width:0.5;stroke-miterlimit:10;}
	.st121{fill:url(#SVGID_00000067207854357308762490000001639875837799944082_);}
	.st122{fill:#F9D075;}
	.st123{fill:#FFEF92;}
	.st124{fill:url(#SVGID_00000137821453944898489330000012408533792442598795_);}
	.st125{fill:url(#SVGID_00000173142262181438188470000005541100149524865453_);}
	.st126{fill:url(#SVGID_00000030483076322581224280000014848297696611990402_);}
	.st127{fill:#09890F;}
	.st128{fill:#A9CE4D;}
	.st129{fill:#FF9501;}
	.st130{fill:#AA1523;}
	.st131{fill:#006B52;}
	.st132{fill:#EEC200;}
	.st133{fill:#9F4641;}
	.st134{fill:url(#SVGID_00000166648334597065155830000008649337622010993068_);stroke:#FFFFFF;stroke-miterlimit:10;}
	.st135{fill:none;stroke:#FFFFFF;stroke-width:1.7883;stroke-miterlimit:10;}
	.st136{fill:none;stroke:#BFDADD;stroke-width:2;stroke-linecap:round;stroke-linejoin:round;stroke-miterlimit:10;}
	.st137{fill:none;stroke:#016D39;stroke-width:2;stroke-linecap:round;stroke-linejoin:round;stroke-miterlimit:10;}
	.st138{fill:none;stroke:#00BFAD;stroke-width:2;stroke-linecap:round;stroke-linejoin:round;stroke-miterlimit:10;}
	.st139{fill:#12162E;}
	.st140{fill:none;stroke:#12162E;stroke-miterlimit:10;}
	.st141{fill:#016D39;}
	.st142{fill:#083F24;}
	.st143{fill:#FF5635;}
	.st144{fill:#C63724;}
	.st145{fill:#FFBE00;}
	.st146{fill:#00BFAD;}
	.st147{fill:#D1D3D3;}
	.st148{fill:#9A4641;}
	.st149{fill:url(#SVGID_00000046314602390598910940000015170839864834069905_);}
	.st150{fill:url(#SVGID_00000090987712268970247760000000442784682427973044_);stroke:#FFFFFF;stroke-miterlimit:10;}
	.st151{fill:#F75D58;}
	.st152{fill:url(#SVGID_00000007409932247077630510000004115163034399579265_);}
	.st153{opacity:0.42;fill:#FFFFFF;}
	.st154{fill:#229200;}
	.st155{fill:#FF0000;}
	.st156{fill:#0C1F26;}
	.st157{fill:#E43724;}
	.st158{fill:#6B2422;}
	.st159{fill:#FBF1E5;}
	.st160{fill:#FAF8F0;}
	.st161{fill:#EEEEED;}
	.st162{fill:#DBDEDD;}
	.st163{fill:#A6453D;}
	.st164{fill:#E3E4E7;}
	.st165{fill:#D2301D;}
	.st166{fill:#E2D7D0;}
	.st167{fill:#FCF8EF;}
	.st168{fill:#C42C1E;}
	.st169{fill:#0C232B;}
	.st170{fill:#0D3B6E;}
	.st171{fill:#139AEC;}
	.st172{fill:#F52A3C;}
	.st173{fill:url(#SVGID_00000132052716404460634760000006331422167807137206_);}
	.st174{fill:#890924;}
	.st175{fill:url(#SVGID_00000078017848463031824700000006996142393017923734_);}
	.st176{fill-rule:evenodd;clip-rule:evenodd;fill:url(#SVGID_00000176003627500077317190000000549800863898210979_);}
	.st177{fill-rule:evenodd;clip-rule:evenodd;fill:#CE1515;}
	.st178{fill-rule:evenodd;clip-rule:evenodd;fill:#FFFBDD;}
	.st179{fill-rule:evenodd;clip-rule:evenodd;fill:#06542B;}
	.st180{fill-rule:evenodd;clip-rule:evenodd;fill:#AA1111;}
	.st181{fill:#005C01;}
	.st182{fill:#F5AB35;}
	.st183{fill-rule:evenodd;clip-rule:evenodd;fill:#215605;}
	.st184{fill:#215605;}
	.st185{fill-rule:evenodd;clip-rule:evenodd;fill:url(#SVGID_00000157282938279986715110000016268350565536070061_);}
	.st186{fill:url(#SVGID_00000011711346392053068420000002691256888198132868_);}
	.st187{fill:url(#SVGID_00000034790276469576845320000000381318600484418439_);}
	.st188{fill:url(#SVGID_00000071561167510476274830000006172418942344570774_);}
	.st189{fill:url(#SVGID_00000100357558262282609990000016210789188970669185_);}
	.st190{fill:url(#SVGID_00000178924067034124813240000006692561486613109924_);}
	.st191{fill:url(#SVGID_00000036212957672421918620000011247515593606638982_);}
	.st192{fill:url(#SVGID_00000085947935401988416750000001390448845705591943_);}
	.st193{fill:url(#SVGID_00000168810381131944545350000006614255948120709564_);}
	.st194{fill:url(#SVGID_00000049938380109369407690000009993848329889967006_);}
	.st195{fill:#B6FFFF;}
	.st196{fill:url(#SVGID_00000069385551347010087810000008979164540840147341_);}
	.st197{fill:url(#SVGID_00000156572094423900095810000007532039049661122452_);}
	.st198{fill:url(#SVGID_00000047759475715732061590000002665497778428091318_);}
	.st199{fill:url(#SVGID_00000005988550753516326090000015623223893755270816_);}
	.st200{fill:url(#SVGID_00000091698735240040787370000001965384388053151927_);}
	.st201{fill:url(#SVGID_00000093151093887700352810000015811516719018380445_);}
	.st202{fill:url(#SVGID_00000066488408896812273850000013092525472138012593_);}
	.st203{fill:url(#SVGID_00000181044791844104066910000003478892934329997503_);}
	.st204{fill:url(#SVGID_00000038392417114668798860000007074984781087396741_);}
	.st205{fill:url(#SVGID_00000129173707021837455960000003977370708829295023_);}
	.st206{fill:url(#SVGID_00000026855746988075234270000000540724199165198980_);}
	.st207{fill:url(#SVGID_00000003095207731150412140000006187873411760062635_);}
	.st208{fill:url(#SVGID_00000151527514657719882810000002310966586470988675_);}
	.st209{fill:url(#SVGID_00000078758426561982514800000015496318391171318667_);}
	.st210{fill:url(#SVGID_00000111892259188435760070000003944588757645457328_);}
	.st211{fill:url(#SVGID_00000005967198408839282540000017320622707691367583_);}
	.st212{fill:#CE4A43;}
	.st213{fill:url(#SVGID_00000031195830459576207360000008384337560965946753_);}
	.st214{fill:#CE4A43;stroke:#FFFFFF;stroke-miterlimit:10;}
	.st215{fill:none;stroke:#CE4A43;stroke-miterlimit:10;}
</style>
<radialGradient id="SVGID_1_" cx="176.0599" cy="100.2079" r="65.1995" gradientUnits="userSpaceOnUse">
	<stop  offset="0" style="stop-color:#FFFFFF"/>
	<stop  offset="0.0312" style="stop-color:#E1EBDF"/>
	<stop  offset="0.087" style="stop-color:#B2CCAB"/>
	<stop  offset="0.1453" style="stop-color:#88B07D"/>
	<stop  offset="0.205" style="stop-color:#659857"/>
	<stop  offset="0.2664" style="stop-color:#488537"/>
	<stop  offset="0.33" style="stop-color:#31761F"/>
	<stop  offset="0.3968" style="stop-color:#216B0E"/>
	<stop  offset="0.4689" style="stop-color:#186503"/>
	<stop  offset="0.5559" style="stop-color:#156300"/>
	<stop  offset="0.5907" style="stop-color:#13501A"/>
	<stop  offset="0.6316" style="stop-color:#114031"/>
	<stop  offset="0.6792" style="stop-color:#103342"/>
	<stop  offset="0.7367" style="stop-color:#0F2B4F"/>
	<stop  offset="0.8144" style="stop-color:#0E2556"/>
	<stop  offset="1" style="stop-color:#0E2458"/>
</radialGradient>
<path class="st35" d="M167.39,44.4c-2.78-5.48-2.57-10.42,2.3-14.45c3.26-2.7,8.07-3.04,11.58-0.71c5.85,3.88,6.42,9.15,3.33,15.24
	c1.33,0.17,2.54,0.33,3.74,0.47c10.48,1.25,20.53,4.06,30,8.73c3.85,1.9,7.52,4.18,11.25,6.34c0.67,0.39,1.27,0.94,1.83,1.49
	c0.91,0.9,1.4,2.01,1.41,3.3c0.03,3.05,0.07,6.1,0.07,9.16c0.02,17.89-0.11,35.79,0.1,53.68c0.08,6.89-2.32,12.6-6.62,17.71
	c-5.53,6.56-12.4,11.3-20.31,14.48c-5.25,2.12-10.62,3.96-15.94,5.9c-3.98,1.45-7.83,3.12-11.32,5.6c-2.7,1.92-3.32,1.83-5.87-0.18
	c-3.23-2.54-6.98-4-10.77-5.39c-5.4-1.98-10.86-3.79-16.19-5.94c-8.66-3.49-16.02-8.79-21.7-16.31c-3.09-4.09-5.04-8.61-5.12-13.79
	c-0.08-5.04,0-10.09,0-15.13c0.01-16.12,0.01-32.24,0.01-48.36c0-0.44,0.02-0.87,0-1.31c-0.09-1.9,0.78-3.29,2.32-4.32
	c11.81-7.87,24.69-13.04,38.74-15.17c2.02-0.31,4.05-0.55,6.08-0.83C166.63,44.57,166.94,44.49,167.39,44.4z M206.12,70.62
	c0.3-0.33,0.43-0.46,0.54-0.6c0.56-0.7,1.09-1.44,1.7-2.09c0.18-0.19,0.6-0.16,0.91-0.23c0.05,0.29,0.21,0.61,0.14,0.87
	c-0.1,0.41-0.34,0.8-0.54,1.18c-1.67,3.17-1.55,6.31,0.07,9.48c0.6,1.18,1.51,1.84,2.69,2.35c0.95,0.41,1.96,0.93,2.66,1.67
	c1.6,1.67,3.41,2.65,5.74,2.7c1.31,0.02,2.95,1.57,2.12,3.1c-0.15,0.27-0.11,0.64-0.15,0.96c-0.29,2.45-1.89,3.66-4.3,3.32
	c-1.54-0.22-3.08-0.45-4.63-0.48c-0.7-0.01-1.55,0.28-2.08,0.73c-2.16,1.82-3.26,4.13-3,7.06c0.18,2.06,0.24,4.14,0.15,6.21
	c-0.05,1.24,0.17,2.29,1.06,3.12c0.73,0.68,1.51,1.35,2.37,1.83c1.83,1.02,3.71,1.97,5.61,2.85c1.43,0.67,2.19,1.76,2.39,3.27
	c0.3,2.27,0.58,4.54,0.85,6.82c0.51,4.2-1.33,7.42-4.35,10.04c-1.44,1.24-3.45,0.54-4.12-1.24c-0.72-1.89-0.16-3.42,1.86-4.79
	c0.77-0.52,1.17-1.16,1.08-2.04c-0.18-1.87-0.4-3.73-0.67-5.59c-0.06-0.4-0.3-0.85-0.6-1.13c-2.08-1.98-4.67-2.76-7.51-3.21
	c0.09,0.29,0.15,0.47,0.2,0.64c0.86,2.72,2.24,5.13,4.2,7.21c0.73,0.77,1.07,1.72,0.66,2.71c-0.46,1.09-0.95,2.24-1.71,3.11
	c-2.37,2.69-5.13,4.97-8.07,7.01c-1.84,1.27-3.86,2.13-6.01,2.69c-1.09,0.28-2.07,0.06-2.84-0.78c-0.78-0.84-0.9-1.82-0.55-2.9
	c0.71-2.19,2.09-3.22,4.56-3.43c0.92-0.08,1.91-0.07,2.73-0.42c1.86-0.8,3.53-1.94,4.96-3.4c1.11-1.14,1.14-2.04-0.16-2.91
	c-1.84-1.25-3.81-2.31-5.76-3.4c-0.29-0.16-0.77-0.17-1.1-0.06c-1.52,0.51-3.01,1.12-4.53,1.62c-4.45,1.46-9.03,1.62-13.59,0.98
	c-2.87-0.4-5.21,0.26-7.3,2.16c-0.46,0.42-0.95,0.82-1.41,1.25c-3.49,3.29-6.85,6.73-11.04,9.19c-0.55,0.32-1.05,0.81-1.44,1.32
	c-0.93,1.21-1.89,2.41-2.63,3.74c-1.29,2.31-2.4,4.71-3.62,7.05c-0.69,1.32-1.43,2.6-2.17,3.93c0.18,0.08,0.34,0.17,0.52,0.23
	c3.08,1.11,6.16,2.2,9.23,3.32c5.63,2.04,11.38,3.82,16.45,7.17c0.22,0.15,0.74,0.06,1-0.11c3.04-1.96,6.33-3.42,9.71-4.67
	c5.34-1.97,10.74-3.81,16.04-5.88c7.75-3.02,14.51-7.5,19.69-14.13c2.7-3.45,4.26-7.25,4.2-11.75c-0.12-8.21-0.06-16.42-0.06-24.63
	c-0.01-12.16-0.01-24.33,0.01-36.49c0-0.99-0.32-1.59-1.15-2.12c-5.98-3.8-12.31-6.89-19.01-9.21c-0.32-0.11-0.65-0.2-1.11-0.34
	c-0.17,1.16-0.32,2.21-0.48,3.25c1.03-0.56,1.8-1.21,2.62-1.79c0.23-0.16,0.62-0.12,0.93-0.17c-0.03,0.34,0.06,0.75-0.11,0.99
	c-0.62,0.89-1.31,1.74-2.02,2.58c-0.76,0.91-1.09,1.93-0.96,3.11c0.06,0.57,0.09,1.14,0.18,1.71
	C205.46,66.9,205.78,68.66,206.12,70.62z M158.86,82.58c-0.1-0.07-0.2-0.15-0.3-0.22c-1.04,1.11-2.11,2.18-3.09,3.34
	c-0.32,0.37-0.53,0.94-0.55,1.44c-0.05,1.06-0.05,2.14,0.13,3.18c0.3,1.7-0.76,2.49-1.94,3.23c-0.46,0.29-0.96,0.27-1.31-0.21
	c-0.36-0.5-0.29-1.05,0.22-1.35c1.29-0.76,1.21-1.75,0.73-3.72c-0.82,0.87-1.49,1.75-2.32,2.44c-0.99,0.83-1.27,1.7-1.01,2.98
	c0.46,2.23,0.3,2.35-1.9,3.05c-0.64,0.2-1.22,0.26-1.51-0.47c-0.31-0.75,0.22-1.14,0.81-1.35c0.6-0.21,0.78-0.49,0.65-1.14
	c-0.27-1.33-0.23-1.34-1.61-1.54c-0.24-0.04-0.48-0.06-0.75-0.09c-0.14,0.32-0.26,0.63-0.41,0.91c-0.28,0.54-0.69,0.88-1.32,0.6
	c-0.58-0.25-0.68-0.74-0.49-1.3c0.15-0.44,0.32-0.87,0.46-1.31c0.26-0.81,0.81-1.2,1.63-0.93c2.08,0.72,3.59-0.03,4.83-1.7
	c0.42-0.57,0.99-1.02,1.49-1.53c-0.04-0.09-0.07-0.18-0.11-0.27c-0.76,0-1.51,0-2.27,0c-0.11,0-0.25,0.01-0.31,0.07
	c-0.32,0.33-0.62,0.69-0.95,1.01c-0.42,0.42-0.91,0.52-1.39,0.11c-0.45-0.38-0.4-0.85-0.11-1.32c0.78-1.28,1.71-2.27,3.42-1.83
	c0.21,0.05,0.44-0.01,0.65,0.04c2.24,0.44,4.04-0.18,5.39-2.09c0.32-0.46,0.81-0.81,1.2-1.22c0.14-0.14,0.24-0.32,0.44-0.6
	c-1.48,0.08-2.81,0.21-4.13,0.21c-1.08,0-1.96,0.3-2.63,1.18c-0.16,0.21-0.38,0.4-0.6,0.54c-0.47,0.31-0.94,0.28-1.31-0.17
	c-0.35-0.42-0.33-0.85,0.06-1.25c0.48-0.49,0.98-0.95,1.44-1.45c0.45-0.5,0.97-0.7,1.65-0.73c2.32-0.1,4.63-0.25,6.94-0.42
	c0.39-0.03,0.86-0.11,1.14-0.34c0.7-0.59,1.3-1.29,2.02-2.01c-0.25-0.05-0.4-0.1-0.55-0.1c-3.08-0.04-6.16-0.1-9.24-0.08
	c-0.46,0-1,0.28-1.36,0.6c-1.3,1.12-2.55,2.31-3.81,3.47c-1.17,1.08-2.48,1.31-3.87,0.55c-0.29-0.16-0.56-0.7-0.53-1.03
	c0.03-0.28,0.49-0.6,0.82-0.72c0.3-0.11,0.69,0.06,1.04,0.08c0.27,0.02,0.63,0.1,0.78-0.03c1.02-0.86,2-1.78,3.16-2.83
	c-1.25,0-2.24,0.11-3.2-0.02c-1.84-0.26-3.01,0.44-4.05,1.97c-1.52,2.25-1.4,2.15-4.2,0.91c-0.56-0.25-0.91-0.66-0.65-1.29
	c0.28-0.67,0.82-0.69,1.44-0.48c1.28,0.44,1.29,0.43,2.12-0.64c0.05-0.06,0.1-0.13,0.15-0.19c1.06-1.35,1.06-1.35,0.01-2.7
	c-0.95-1.21-0.95-1.22-2.42-0.79c-0.58,0.17-1.04,0.06-1.29-0.52c-0.25-0.59,0.04-1.01,0.56-1.27c0.51-0.25,1.05-0.45,1.57-0.69
	c0.78-0.36,1.42-0.2,1.94,0.49c0.55,0.74,1.16,1.45,1.69,2.21c0.4,0.58,0.93,0.81,1.6,0.82c0.79,0.01,1.58,0.02,2.37,0.02
	c0.71,0,1.42,0,2.14,0c-0.58-0.79-1.25-1.35-1.85-1.97c-0.68-0.72-1.38-1.22-2.42-0.83c-0.19,0.07-0.48,0.08-0.64-0.02
	c-0.27-0.18-0.59-0.43-0.68-0.71c-0.08-0.25,0.06-0.67,0.25-0.87c0.67-0.71,2.96-0.7,3.7-0.03c1.29,1.17,2.59,2.33,3.85,3.55
	c0.69,0.67,1.46,0.97,2.42,0.95c2.73-0.05,5.45-0.05,8.18-0.07c0.28,0,0.57-0.02,0.85-0.04c0.08-0.12,0.16-0.23,0.24-0.35
	c-0.55-0.44-1.14-0.83-1.63-1.33c-0.49-0.49-0.99-0.76-1.71-0.78c-2.12-0.08-4.25-0.36-6.37-0.34c-1.88,0.02-2.71-1.31-3.7-2.46
	c-0.17-0.19-0.08-0.88,0.13-1.06c0.25-0.21,0.8-0.25,1.14-0.14c0.35,0.12,0.6,0.53,0.92,0.78c0.34,0.27,0.68,0.68,1.05,0.72
	c1.77,0.2,3.55,0.29,5.32,0.42c-1.14-1.4-2.33-2.62-3.55-3.81c-0.16-0.15-0.51-0.16-0.77-0.16c-1.06,0.01-2.15-0.07-3.18,0.11
	c-1.53,0.27-2.49-0.35-3.27-1.57c-0.47-0.74-0.52-1.28,0-1.66c0.5-0.38,1.02-0.18,1.6,0.47c0.29,0.32,0.69,0.68,1.09,0.74
	c0.72,0.12,1.47,0.03,2.21,0.03c0.04-0.11,0.08-0.23,0.13-0.34c-0.73-0.69-1.55-1.3-2.18-2.07c-0.94-1.17-1.98-1.53-3.48-1.19
	c-1.89,0.43-1.99,0.28-2.64-1.59c-0.17-0.49-0.21-1.01-0.31-1.52c-3.92,1.3-12.87,5.9-16.22,8.32c-0.53,0.38-0.77,0.8-0.77,1.48
	c0.02,9.63,0.01,19.25,0.01,28.88c0,10.77,0.09,21.55-0.05,32.32c-0.08,5.97,2.62,10.53,6.52,14.66c0.46-0.41,0.86-0.87,1.35-1.18
	c2.07-1.31,3.4-3.19,4.29-5.42c1.43-3.57,2.83-7.14,4.21-10.73c0.5-1.3,1.35-2.13,2.59-2.77c1.29-0.67,2.74-1.41,3.54-2.53
	c1.83-2.56,3.32-5.35,4.9-8.08c0.26-0.46,0.29-1.05,0.47-1.74c-2.34,0.67-4.37,0.31-6.35-0.54c-1.17-0.5-1.85-1.42-2.15-2.61
	c-0.35-1.38,0.3-2.38,1.71-2.46c1.1-0.06,2.28-0.07,3.32,0.25c3.87,1.21,7.06-0.55,10.38-2.05c-0.19-0.47-0.36-0.87-0.52-1.27
	c-0.46-1.19-0.39-1.46,0.6-2.23c0.64-0.5,1.27-1.03,1.95-1.49c0.63-0.42,0.9-0.94,0.87-1.71c-0.04-1.28,0.01-2.56,0.02-3.84
	c0-0.19-0.05-0.39-0.09-0.72c-0.61,0.66-1.08,1.22-1.61,1.73c-0.84,0.8-1.55,1.62-1.08,2.9c0.04,0.12,0.05,0.31-0.02,0.4
	c-0.2,0.26-0.42,0.62-0.69,0.69c-0.28,0.07-0.72-0.08-0.93-0.29c-0.7-0.74-0.63-2.96,0.06-3.71c1.21-1.33,2.42-2.67,3.66-3.97
	c0.56-0.59,0.83-1.22,0.82-2.05c-0.06-2.83-0.08-5.67-0.12-8.5c0-0.23-0.04-0.46-0.08-0.9c-0.61,0.6-1.06,1.09-1.57,1.53
	c-0.6,0.52-0.84,1.13-0.86,1.93c-0.08,2.18-0.28,4.35-0.35,6.53c-0.06,1.74-1.36,2.5-2.51,3.37c-0.2,0.15-0.81,0.05-1-0.15
	c-0.2-0.21-0.27-0.74-0.15-1.02c0.19-0.43,0.62-0.74,0.9-1.13c0.3-0.41,0.73-0.84,0.78-1.29C158.76,85.91,158.78,84.24,158.86,82.58
	z M165.9,77.84c-0.09,0.04-0.18,0.08-0.26,0.13c-0.02,0.26-0.04,0.53-0.05,0.79c-0.02,2.86-0.02,5.73-0.06,8.59
	c-0.01,0.71,0.2,1.25,0.68,1.76c1.27,1.35,2.55,2.7,3.75,4.11c0.35,0.42,0.54,1.04,0.61,1.6c0.06,0.49-0.15,1.02-0.26,1.52
	c-0.17,0.72-0.64,1.08-1.21,0.9c-0.67-0.21-0.79-0.7-0.7-1.36c0.07-0.47,0.16-1.09-0.08-1.41c-0.76-1.02-1.67-1.93-2.65-3.03
	c0,1.81-0.04,3.39,0.03,4.96c0.02,0.42,0.32,0.91,0.64,1.2c0.74,0.68,1.58,1.25,2.38,1.87c0.6,0.46,0.77,1.03,0.47,1.73
	c-0.08,0.2-0.14,0.41-0.21,0.62c2.59,0.73,5.15,1.48,7.73,2.16c0.56,0.14,1.21,0.1,1.78-0.03c5.08-1.15,9.96-2.84,14.45-5.51
	c0.55-0.33,1.11-0.74,1.51-1.23c2.44-3.06,4.24-6.45,5.23-10.26c0.26-1.01-0.07-1.69-0.86-2.34c-0.94-0.77-1.87-1.61-2.62-2.56
	c-0.96-1.22-1.79-2.56-1.93-4.17c-0.08-0.86,0.27-1.22,1.1-1c0.84,0.22,1.68,0.49,2.44,0.9c1.2,0.66,2.34,1.45,3.72,2.33
	c-0.26-0.49-0.37-0.79-0.55-1.04c-0.88-1.18-1.74-2.37-2.67-3.51c-1.1-1.35-2.3-2.62-3.41-3.97c-1.3-1.59-1.87-3.45-1.71-5.49
	c0.09-1.19,0.26-2.38,0.47-3.57c0.57-3.29-0.15-6.25-1.98-9.03c-0.77-1.17-1.71-1.67-3.1-1.84c-6.35-0.77-12.71-1.12-19.1-0.6
	c-0.61,0.05-1.21,0.35-1.78,0.61c-1.82,0.83-2.28,2.32-2.06,4.2c0.11,0.92,0.02,1.87,0.02,3.03c0.61-0.67,1.07-1.2,1.57-1.69
	c0.85-0.83,1.72-1.64,1.14-3.01c-0.02-0.05-0.03-0.13,0-0.16c0.27-0.33,0.5-0.79,0.85-0.93c0.49-0.2,0.89,0.16,1.04,0.66
	c0.13,0.44,0.15,0.92,0.28,1.36c0.24,0.83,0,1.45-0.59,2.06c-1.25,1.29-2.49,2.6-3.64,3.99c-0.4,0.48-0.71,1.2-0.72,1.81
	c-0.06,2.86,0,5.73,0.02,8.59c0,0.28,0.05,0.55,0.07,0.83c0.08,0.04,0.16,0.07,0.23,0.11c0.57-0.62,1.19-1.2,1.7-1.86
	c0.28-0.37,0.48-0.87,0.52-1.33c0.16-2.09,0.38-4.2,0.3-6.29c-0.07-1.92,1.23-2.8,2.4-3.81c0.21-0.18,0.96-0.11,1.13,0.11
	c0.22,0.27,0.23,0.86,0.09,1.22c-0.14,0.38-0.62,0.62-0.84,0.98c-0.31,0.51-0.66,1.06-0.73,1.63c-0.17,1.29-0.18,2.61-0.25,3.92
	c-0.01,0.24,0,0.49,0,0.97c1.31-1.33,2.47-2.45,3.55-3.63c0.26-0.28,0.35-0.79,0.36-1.2c0.02-1.06,0.06-2.15-0.12-3.18
	c-0.31-1.74,0.75-2.55,1.98-3.29c0.68-0.41,1.55,0.06,1.45,0.78c-0.05,0.38-0.43,0.71-0.67,1.05c-0.24,0.34-0.66,0.65-0.72,1.02
	c-0.11,0.73-0.03,1.49-0.03,2.24c0.08,0.03,0.16,0.07,0.24,0.1c0.76-0.76,1.47-1.58,2.3-2.26c1.03-0.85,1.36-1.77,1.09-3.13
	c-0.44-2.14-0.56-2.18,2.04-3.02c0.58-0.19,1.12-0.14,1.36,0.51c0.24,0.63-0.08,1.14-0.66,1.28c-0.9,0.22-0.9,0.77-0.74,1.47
	c0.08,0.34,0.12,0.69,0.18,1.07c1.07,0.08,2.27,0.83,2.76-0.9c0.06-0.2,0.77-0.42,1.02-0.3c0.3,0.15,0.62,0.67,0.58,0.99
	c-0.07,0.63-0.37,1.25-0.59,1.86c-0.19,0.53-0.59,0.77-1.15,0.7c-0.73-0.08-1.47-0.13-2.19-0.28c-0.6-0.12-1.05,0-1.47,0.44
	c-0.87,0.9-1.77,1.78-2.66,2.67c-0.14,0.14-0.23,0.31-0.4,0.54c1.45,0.03,2.88,0.51,3.73-1.06c0.02-0.04,0.08-0.1,0.13-0.1
	c0.38-0.01,0.88-0.15,1.11,0.03c0.24,0.19,0.38,0.75,0.29,1.06c-0.36,1.26-1.67,2.15-2.98,2.13c-0.65-0.01-1.32,0.05-1.96-0.07
	c-1.77-0.33-3.1,0.26-4.18,1.68c-0.58,0.76-1.34,1.37-2.02,2.05c1.01,0.12,1.93,0.06,2.85,0.03c1.61-0.06,3.22-0.04,4.29-1.61
	c0.32-0.47,0.93-0.5,1.37-0.06c0.47,0.47,0.39,0.99-0.04,1.45c-0.41,0.44-0.79,0.93-1.28,1.26c-0.51,0.35-1.12,0.7-1.71,0.76
	c-2.2,0.21-4.41,0.41-6.61,0.4c-1.81,0-2.34,1.47-3.62,2.45c0.41,0.05,0.54,0.07,0.67,0.07c3.08,0.02,6.16,0.07,9.25,0.03
	c0.48-0.01,1.05-0.3,1.43-0.63c1.35-1.15,2.63-2.38,3.93-3.58c0.98-0.9,2.72-1.07,3.81-0.3c0.25,0.18,0.47,0.66,0.41,0.94
	c-0.06,0.29-0.43,0.61-0.74,0.73c-0.27,0.11-0.64-0.04-0.96-0.05c-0.32-0.01-0.75-0.13-0.95,0.02c-1.04,0.84-2.02,1.76-3.2,2.8
	c1.28,0,2.3-0.1,3.28,0.02c1.8,0.22,2.97-0.47,3.99-1.97c1.48-2.18,1.58-2.11,3.98-1.02c0.07,0.03,0.15,0.06,0.22,0.1
	c0.55,0.27,0.89,0.68,0.63,1.31c-0.26,0.61-0.76,0.72-1.36,0.49c-0.43-0.16-0.86-0.32-1.32-0.49c-0.7,0.9-1.38,1.78-2.07,2.67
	c0.73,0.93,1.41,1.8,2.08,2.65c0.6-0.21,1.1-0.52,1.62-0.53c0.36-0.01,0.89,0.31,1.03,0.63c0.11,0.24-0.15,0.86-0.42,1.04
	c-0.55,0.37-1.24,0.55-1.85,0.84c-0.75,0.35-1.31,0.1-1.77-0.52c-0.56-0.74-1.15-1.45-1.69-2.21c-0.4-0.56-0.89-0.82-1.59-0.81
	c-1.25,0.02-2.51-0.02-3.76-0.03c-0.24,0-0.49,0-0.73,0c-0.04,0.09-0.07,0.18-0.11,0.27c0.22,0.16,0.44,0.32,0.65,0.49
	c1.26,1.01,2.17,2.73,4.24,2.02c0.05-0.02,0.12,0,0.16,0.03c0.22,0.22,0.58,0.42,0.62,0.67c0.05,0.29-0.07,0.73-0.28,0.94
	c-0.7,0.69-2.97,0.64-3.71-0.03c-1.35-1.23-2.7-2.46-4.03-3.71c-0.57-0.54-1.21-0.78-1.99-0.77c-2.81,0.05-5.62,0.07-8.43,0.11
	c-0.26,0-0.52,0.04-0.95,0.07c0.52,0.57,0.95,1.01,1.34,1.47c0.57,0.67,1.27,0.96,2.14,1c2.29,0.09,4.58,0.23,6.86,0.38
	c0.36,0.02,0.78,0.13,1.05,0.35c0.63,0.52,1.19,1.12,1.75,1.71c0.4,0.43,0.46,0.95,0.04,1.4c-0.43,0.47-0.92,0.39-1.38-0.01
	c-0.33-0.29-0.62-0.61-0.95-0.9c-0.24-0.21-0.51-0.52-0.79-0.54c-1.77-0.17-3.56-0.27-5.33-0.4c-0.03,0.07-0.06,0.14-0.09,0.21
	c0.43,0.44,0.94,0.82,1.28,1.32c1.56,2.29,3.73,2.89,6.31,2.36c1.51-0.31,2.49,0.3,3.27,1.53c0.45,0.72,0.51,1.3,0.02,1.67
	c-0.49,0.37-1.02,0.14-1.61-0.46c-0.37-0.38-0.9-0.71-1.41-0.8c-0.61-0.1-1.26,0.08-2.13,0.16c1.15,1.13,2.17,2.1,3.15,3.11
	c0.44,0.46,0.89,0.63,1.53,0.47c0.66-0.16,1.35-0.27,2.02-0.27c0.39,0,0.97,0.15,1.12,0.42c0.38,0.67,0.64,1.45,0.79,2.21
	c0.05,0.27-0.3,0.81-0.58,0.91c-0.28,0.1-0.75-0.11-1.06-0.31c-0.2-0.12-0.29-0.45-0.37-0.71c-0.14-0.42-0.37-0.54-0.8-0.43
	c-0.37,0.1-0.76,0.09-1.13,0.17c-0.17,0.04-0.42,0.15-0.45,0.26c-0.12,0.59-0.28,1.19-0.22,1.77c0.02,0.22,0.56,0.41,0.87,0.59
	c0.51,0.28,0.81,0.68,0.59,1.27c-0.23,0.6-0.74,0.73-1.28,0.54c-2.5-0.85-2.48-0.82-2.15-3.09c0.01-0.05,0-0.11,0.02-0.16
	c0.42-1.18-0.02-2.01-0.94-2.78c-0.86-0.72-1.61-1.58-2.58-2.55c-0.02,1.52-0.62,2.89,0.95,3.79c0.45,0.26,0.57,0.81,0.21,1.3
	c-0.37,0.5-0.85,0.56-1.36,0.21c-0.38-0.26-0.72-0.58-1.11-0.83c-0.64-0.42-0.85-0.98-0.8-1.74c0.09-1.28,0.12-2.56,0.13-3.84
	c0-0.34,0-0.79-0.2-1c-1.16-1.23-2.37-2.4-3.74-3.77c0.05,1.12,0.11,1.99,0.14,2.85c0.06,1.66-0.02,3.36,1.64,4.42
	c0.02,0.01,0.04,0.04,0.05,0.06c0.33,0.45,0.4,0.91,0,1.34c-0.44,0.46-0.95,0.38-1.39,0c-0.43-0.37-0.8-0.82-1.24-1.19
	c-0.65-0.55-0.9-1.23-0.93-2.08c-0.08-2.26-0.23-4.52-0.38-6.78c-0.02-0.37-0.1-0.8-0.32-1.07
	C167.19,79.17,166.53,78.52,165.9,77.84z M143.33,151.34c0.67-0.36,1.12-0.72,1.63-0.86c1.05-0.29,1.68-0.96,2.06-1.93
	c0.66-1.7,1.35-3.39,1.97-5.11c0.85-2.36,1.61-4.76,3.22-6.75c1.98-2.43,3.18-5.18,3.46-8.33c0.08-0.93,0.22-1.86,0.35-2.85
	c-0.98,0.06-1.82,0.12-2.66,0.17c-4.45,0.27-7.84,1.96-9.3,6.56c-1.01,3.16-2.26,6.25-3.43,9.36c-0.78,2.07-2,3.81-3.95,4.95
	c-0.03,0.02-0.03,0.09-0.08,0.31C138.82,148.35,141.1,149.87,143.33,151.34z M163.34,72.45c0.04-0.19,0.07-0.29,0.07-0.38
	c0.04-3.16,0.11-6.32,0.1-9.49c0-0.41-0.28-0.88-0.56-1.21c-1.05-1.22-2.1-2.45-3.27-3.55c-1.07-1.01-1.45-2.08-1.03-3.5
	c0.27-0.91,0.59-1.35,1.21-1.26c0.64,0.09,0.89,0.58,0.76,1.55c-0.02,0.16-0.08,0.32-0.08,0.48c0.01,0.26-0.05,0.6,0.09,0.77
	c0.84,0.98,1.73,1.93,2.73,3.02c0.03-0.45,0.06-0.71,0.06-0.96c0-1.25-0.02-2.51-0.03-3.76c-0.01-1.28-1.24-2.33-2.5-2.1
	c-1.98,0.37-3.97,0.73-5.93,1.16c-1.8,0.4-3.57,0.9-5.26,1.33c-0.13,0.94-0.18,1.73-0.36,2.5c-0.21,0.92-0.01,1.59,0.73,2.22
	c0.96,0.82,1.81,1.77,2.7,2.67c0.17-1.36,0.8-2.77-0.8-3.61c-0.05-0.02-0.1-0.08-0.11-0.12c-0.02-0.42-0.17-0.91-0.01-1.25
	c0.23-0.47,0.76-0.49,1.21-0.2c0.39,0.25,0.73,0.57,1.12,0.82c0.69,0.45,0.92,1.06,0.86,1.88c-0.1,1.25-0.13,2.5-0.15,3.76
	c0,0.36,0.04,0.83,0.26,1.07c1.13,1.23,2.33,2.4,3.5,3.59c0.07-0.03,0.13-0.07,0.2-0.1c-0.08-1.57-0.12-3.14-0.27-4.69
	c-0.05-0.49-0.35-0.99-0.63-1.42c-0.28-0.43-0.79-0.72-1-1.17c-0.15-0.31-0.1-0.89,0.11-1.15c0.17-0.22,0.83-0.33,1.06-0.18
	c1.39,0.91,2.44,2.06,2.5,3.88c0.07,2.1,0.19,4.19,0.32,6.29c0.02,0.37,0.08,0.82,0.3,1.07C161.87,71.11,162.59,71.73,163.34,72.45z
	 M197.99,70.76c0.17-0.34,0.3-0.58,0.42-0.82c0.62-1.27,1.21-2.56,1.87-3.81c0.13-0.25,0.53-0.35,0.8-0.53
	c0.16,0.32,0.42,0.63,0.45,0.96c0.03,0.36-0.14,0.74-0.25,1.1c-1.6,5.07,0.38,7.2,3.71,10.03c-0.02-0.22-0.02-0.4-0.05-0.58
	c-0.33-1.85-0.67-3.7-1.01-5.55c-0.4-2.2-0.87-4.39-1.19-6.6c-0.49-3.36-0.33-6.68,0.86-10c-1.56-0.44-3.06-0.86-4.54-1.28
	c-0.49,1.56-0.99,3-1.4,4.46c-0.56,2.02-1.18,4.03-1.56,6.09C195.64,66.62,196.2,68.82,197.99,70.76z M175.98,43.86
	c3.21,0,5.72-2.5,5.71-5.7c-0.01-3.11-2.51-5.61-5.62-5.63c-3.19-0.02-5.71,2.5-5.71,5.71C170.36,41.35,172.87,43.85,175.98,43.86z
	 M195.88,57.73c0.62-1.34,1.3-2.79,2.02-4.34c-1.71-0.35-3.27-0.68-4.72-0.98C194.08,54.2,194.98,55.96,195.88,57.73z M162.3,101.81
	c1.49-0.1,2.91-0.18,4.32-0.29c0.16-0.01,0.37-0.21,0.42-0.36c0.05-0.15-0.01-0.4-0.12-0.54c-0.14-0.19-0.37-0.31-0.57-0.46
	c-0.61-0.45-1.22-1.24-1.83-1.24c-0.61,0-1.23,0.77-1.83,1.23C161.76,100.86,161.76,100.87,162.3,101.81z M144.12,56.43
	c0.29,0.49,0.52,0.91,0.78,1.31c0.11,0.16,0.26,0.38,0.41,0.41c1.28,0.2,1.94-0.3,2.13-1.55c0.01-0.08,0.03-0.16,0.04-0.24
	c0.08-0.73-0.23-1-0.96-0.77C145.7,55.86,144.89,56.17,144.12,56.43z"/>
</svg>
