<?xml version="1.0" encoding="utf-8"?>
<!-- Generator: Adobe Illustrator 27.8.1, SVG Export Plug-In . SVG Version: 6.00 Build 0)  -->
<svg version="1.1" id="Layer_1" xmlns="http://www.w3.org/2000/svg" xmlns:xlink="http://www.w3.org/1999/xlink" x="0px" y="0px"
	 viewBox="0 0 350 230" style="enable-background:new 0 0 350 230;" xml:space="preserve">
<style type="text/css">
	.st0{fill:#EAE4B0;}
	.st1{fill:#332700;}
	.st2{fill:#EBEBFF;}
	.st3{fill:#FBFFAE;}
	.st4{fill:#B0FFD5;}
	.st5{fill:#B3FFFB;}
	.st6{fill:#FFFAB6;}
	.st7{fill:#2B2700;}
	.st8{fill:#FFFFB8;}
	.st9{fill:#040028;}
	.st10{fill:#260000;}
	.st11{opacity:0.5;fill:#848484;}
	.st12{fill:#2B2401;}
	.st13{fill:#FF7C6C;}
	.st14{fill:#CC2D21;}
	.st15{fill:#F75C4C;}
	.st16{fill:#FFE5CF;}
	.st17{fill:#FFFFFF;}
	.st18{fill:#CFDAE3;}
	.st19{fill:#006C11;}
	.st20{fill:#A11E10;}
	.st21{fill:#EDBC93;}
	.st22{fill:#898989;}
	.st23{fill:#2B1536;}
	.st24{fill:#15352A;}
	.st25{fill:#E4EAF5;}
	.st26{fill:#F2F5F5;}
	.st27{fill:#D6363D;}
	.st28{fill:#600000;fill-opacity:0.5098;}
	.st29{fill:#F2CCA3;}
	.st30{fill:#D28F5F;}
	.st31{fill:#FF0000;fill-opacity:0.5098;}
	.st32{fill:#C7D5F5;}
	.st33{fill:#F3DBC0;}
	.st34{fill:#F58086;}
	.st35{fill:url(#SVGID_1_);}
	.st36{fill:#FCC7A2;}
	.st37{fill:url(#SVGID_00000044882777420861705390000011308647159038983313_);}
	.st38{fill:#E20328;}
	.st39{fill:url(#SVGID_00000144330353665540387500000006002017924436270738_);}
	.st40{fill:#F4BDA8;}
	.st41{fill:#DCF7F6;}
	.st42{fill:url(#SVGID_00000053539858864873671970000001273776941043126426_);}
	.st43{fill:url(#SVGID_00000086692308742649266290000008830985068110551979_);}
	.st44{fill:url(#SVGID_00000151511379124147561880000008692908353302037906_);}
	.st45{fill:url(#SVGID_00000175306419068241521890000011669970927605025972_);}
	.st46{fill:url(#SVGID_00000021828854370548846060000010638580653272828588_);}
	.st47{fill:url(#SVGID_00000123408516337085184430000012755157038286124730_);}
	.st48{fill:url(#SVGID_00000133531520909207920700000001481271285895852189_);}
	.st49{fill:url(#SVGID_00000164475945086355034910000007972559553909221258_);}
	.st50{fill:url(#SVGID_00000158001758135887473350000000791074755752402562_);}
	.st51{fill:#E2B881;}
	.st52{fill:#FFFFFF;stroke:#000000;stroke-width:0.05;stroke-miterlimit:10;}
	.st53{fill:url(#SVGID_00000017485852351460138700000010301099634419072425_);}
	.st54{fill:url(#SVGID_00000029724802902736074540000010209950201585410473_);}
	.st55{fill:#0B9ED8;}
	.st56{fill:#FCDFB0;}
	.st57{fill:#FF0013;}
	.st58{fill:url(#SVGID_00000009558320463070844020000013265521259238661763_);}
	.st59{fill:#0A50FF;}
	.st60{fill:#FFB773;}
	.st61{fill-rule:evenodd;clip-rule:evenodd;fill:url(#SVGID_00000088820298921660133320000004725412092137395614_);}
	.st62{fill:#FF334F;}
	.st63{fill:#FFAB66;}
	.st64{fill:#FF8B41;}
	.st65{fill:#BB386B;}
	.st66{fill:#CBCBCB;}
	.st67{fill:#D37250;}
	.st68{fill:#D06D2E;}
	.st69{fill-rule:evenodd;clip-rule:evenodd;fill:#FFFFFF;}
	.st70{fill:#CAFFEC;}
	.st71{fill:#FFF6B3;}
	.st72{fill:#FFFBD2;}
	.st73{fill:#EFFFD2;}
	.st74{fill:#A01D21;}
	.st75{fill:#00261B;}
	.st76{fill:#F4FFB6;}
	.st77{fill:url(#SVGID_00000098192148698567357570000016476567295161041064_);}
	.st78{fill:#002340;}
	.st79{fill:url(#SVGID_00000111191579119782233150000002829057681137499813_);}
	.st80{fill:url(#SVGID_00000030484393445721229170000010540354683639345831_);}
	.st81{fill:#D91215;}
	.st82{fill:#98BBCE;}
	.st83{fill:#00A70C;}
	.st84{fill:#C47E2A;}
	.st85{fill-rule:evenodd;clip-rule:evenodd;fill:#1F1D1D;}
	.st86{fill-rule:evenodd;clip-rule:evenodd;fill:#2B2700;}
	.st87{fill-rule:evenodd;clip-rule:evenodd;fill:#FF1943;}
	.st88{fill:url(#SVGID_00000163067873239212823000000003172909240301444226_);}
	.st89{fill:url(#SVGID_00000125572327208000796990000002954479562030174879_);}
	.st90{fill:url(#SVGID_00000007407021806776831710000015841414386629230740_);}
	.st91{fill:url(#SVGID_00000159438972247410447780000000879567372255033526_);}
	.st92{fill:url(#SVGID_00000174593502339352832920000011711890211138810041_);}
	.st93{fill:url(#SVGID_00000121983492850491741600000002233162977499978156_);}
	.st94{fill:#E31E26;}
	.st95{fill:#811517;}
	.st96{fill:url(#SVGID_00000072978015236836091080000002718530822970855099_);}
	.st97{fill:url(#SVGID_00000084493575414234743850000016460249179196361388_);}
	.st98{fill:url(#SVGID_00000071520766501140892490000011615549687614897806_);}
	.st99{fill:#B47920;}
	.st100{fill:#089E32;}
	.st101{fill:#FFE30B;}
	.st102{fill-rule:evenodd;clip-rule:evenodd;fill:#EE1D24;}
	.st103{fill:#17377D;}
	.st104{filter:url(#Adobe_OpacityMaskFilter);}
	.st105{opacity:0.28;mask:url(#SVGID_00000089551037048888727870000007251500481029384862_);}
	.st106{fill:#3A3132;}
	.st107{fill:url(#SVGID_00000118393587985028392390000004747573427426722494_);}
	.st108{filter:url(#Adobe_OpacityMaskFilter_00000098215005229337202850000012869635325587068053_);}
	.st109{opacity:0.28;mask:url(#SVGID_00000090273937705437104180000010861395416768101803_);}
	.st110{fill:#102A63;}
	.st111{filter:url(#Adobe_OpacityMaskFilter_00000106860342107804574140000017515224448880317853_);}
	.st112{opacity:0.28;mask:url(#SVGID_00000130633656185495090230000008971330991244753289_);}
	.st113{fill:#0E2458;}
	.st114{filter:url(#Adobe_OpacityMaskFilter_00000037665175546421365500000004922538012548853911_);}
	.st115{opacity:0.25;mask:url(#SVGID_00000054966976168039212630000012518621594214365321_);}
	.st116{fill:url(#SVGID_00000119087861300148963220000017865699964304072121_);}
	.st117{fill:#00BEC6;}
	.st118{fill:url(#SVGID_00000088828348422005992050000006268177721429830837_);}
	.st119{fill:url(#SVGID_00000028282841066079684510000002296895796207813762_);stroke:#FFFFFF;stroke-miterlimit:10;}
	
		.st120{fill:url(#SVGID_00000058562209109989377200000007870643161521825712_);stroke:#FFFFFF;stroke-width:0.5;stroke-miterlimit:10;}
	.st121{fill:url(#SVGID_00000162317479192502120980000003370624466590060463_);}
	.st122{fill:#F9D075;}
	.st123{fill:#FFEF92;}
	.st124{fill:url(#SVGID_00000003102376625760053740000003989721666033051019_);}
	.st125{fill:url(#SVGID_00000098937439044919244030000010560602449987259303_);}
	.st126{fill:url(#SVGID_00000031179388992818392030000010110267516517376142_);}
	.st127{fill:#09890F;}
	.st128{fill:#A9CE4D;}
	.st129{fill:#FF9501;}
	.st130{fill:#AA1523;}
	.st131{fill:#006B52;}
	.st132{fill:#EEC200;}
	.st133{fill:#9F4641;}
	.st134{fill:url(#SVGID_00000029009988254698248490000009413483915428188554_);stroke:#FFFFFF;stroke-miterlimit:10;}
	.st135{fill:none;stroke:#FFFFFF;stroke-width:1.7883;stroke-miterlimit:10;}
	.st136{fill:none;stroke:#BFDADD;stroke-width:2;stroke-linecap:round;stroke-linejoin:round;stroke-miterlimit:10;}
	.st137{fill:none;stroke:#016D39;stroke-width:2;stroke-linecap:round;stroke-linejoin:round;stroke-miterlimit:10;}
	.st138{fill:none;stroke:#00BFAD;stroke-width:2;stroke-linecap:round;stroke-linejoin:round;stroke-miterlimit:10;}
	.st139{fill:#12162E;}
	.st140{fill:none;stroke:#12162E;stroke-miterlimit:10;}
	.st141{fill:#016D39;}
	.st142{fill:#083F24;}
	.st143{fill:#FF5635;}
	.st144{fill:#C63724;}
	.st145{fill:#FFBE00;}
	.st146{fill:#00BFAD;}
	.st147{fill:#D1D3D3;}
	.st148{fill:#9A4641;}
	.st149{fill:url(#SVGID_00000132052198088694656920000005072854747961643421_);}
	.st150{fill:url(#SVGID_00000013164294558936807040000005065900653454439613_);stroke:#FFFFFF;stroke-miterlimit:10;}
	.st151{fill:#F75D58;}
	.st152{fill:url(#SVGID_00000164485113780735409810000000934033909363188096_);}
	.st153{opacity:0.42;fill:#FFFFFF;}
	.st154{fill:#229200;}
	.st155{fill:#FF0000;}
	.st156{fill:#0C1F26;}
	.st157{fill:#E43724;}
	.st158{fill:#6B2422;}
	.st159{fill:#FBF1E5;}
	.st160{fill:#FAF8F0;}
	.st161{fill:#EEEEED;}
	.st162{fill:#DBDEDD;}
	.st163{fill:#A6453D;}
	.st164{fill:#E3E4E7;}
	.st165{fill:#D2301D;}
	.st166{fill:#E2D7D0;}
	.st167{fill:#FCF8EF;}
	.st168{fill:#C42C1E;}
	.st169{fill:#0C232B;}
	.st170{fill:#0D3B6E;}
	.st171{fill:#139AEC;}
	.st172{fill:#F52A3C;}
	.st173{fill:url(#SVGID_00000141414968018638100080000006517728047598393503_);}
	.st174{fill:#890924;}
	.st175{fill:url(#SVGID_00000168103454084447077200000000213804519592112529_);}
	.st176{fill-rule:evenodd;clip-rule:evenodd;fill:url(#SVGID_00000016762953494349773900000007330836036572960902_);}
	.st177{fill-rule:evenodd;clip-rule:evenodd;fill:#CE1515;}
	.st178{fill-rule:evenodd;clip-rule:evenodd;fill:#FFFBDD;}
	.st179{fill-rule:evenodd;clip-rule:evenodd;fill:#06542B;}
	.st180{fill-rule:evenodd;clip-rule:evenodd;fill:#AA1111;}
	.st181{fill:#005C01;}
	.st182{fill:#F5AB35;}
	.st183{fill-rule:evenodd;clip-rule:evenodd;fill:#215605;}
	.st184{fill:#215605;}
	.st185{fill-rule:evenodd;clip-rule:evenodd;fill:url(#SVGID_00000143611897735811513360000011267686857678390185_);}
	.st186{fill:url(#SVGID_00000150792393741667246360000009016955298445607054_);}
	.st187{fill:url(#SVGID_00000031917947910189478360000004644911646815358084_);}
	.st188{fill:url(#SVGID_00000072985950531272225730000000436420761947419299_);}
	.st189{fill:url(#SVGID_00000170975805229106064480000002895520090579527556_);}
	.st190{fill:url(#SVGID_00000158745353011113465380000005203483877001088445_);}
	.st191{fill:url(#SVGID_00000063597577956449161270000017988698272888166822_);}
	.st192{fill:url(#SVGID_00000041976389537472297360000006988422115447609023_);}
	.st193{fill:url(#SVGID_00000117677198645993417850000011714244404147201711_);}
	.st194{fill:url(#SVGID_00000168815506279692687310000006584692684490790291_);}
	.st195{fill:#B6FFFF;}
	.st196{fill:url(#SVGID_00000098197729541247684390000013383590297023605657_);}
	.st197{fill:url(#SVGID_00000101783215812312320460000002235261830744208530_);}
	.st198{fill:url(#SVGID_00000011743226145495948520000000339866447949682576_);}
	.st199{fill:url(#SVGID_00000080187794188261925270000014861703236725715106_);}
	.st200{fill:url(#SVGID_00000132771991198131888000000006730883567077392021_);}
	.st201{fill:url(#SVGID_00000152240414558288454820000015258416027006656182_);}
	.st202{fill:url(#SVGID_00000183224557652975732020000000044955439308435594_);}
	.st203{fill:url(#SVGID_00000001649337320418225360000011427302073491513756_);}
	.st204{fill:url(#SVGID_00000183952607498424127300000006391816802563181478_);}
	.st205{fill:url(#SVGID_00000023246503182560257780000006649182659728276892_);}
	.st206{fill:url(#SVGID_00000129196267048395247920000014584739738943944080_);}
	.st207{fill:url(#SVGID_00000057853580065357684830000018359029191854000273_);}
	.st208{fill:url(#SVGID_00000085233552037504731100000001483185409823087005_);}
	.st209{fill:url(#SVGID_00000138564320161169718910000003231640283630540199_);}
	.st210{fill:url(#SVGID_00000036949537078803190070000003666091284507488911_);}
	.st211{fill:url(#SVGID_00000038372484131503403710000006505363106466687899_);}
	.st212{fill:#CE4A43;}
	.st213{fill:url(#SVGID_00000121971794965991055980000000367244222993712302_);}
	.st214{fill:#CE4A43;stroke:#FFFFFF;stroke-miterlimit:10;}
	.st215{fill:none;stroke:#CE4A43;stroke-miterlimit:10;}
</style>
<g>
	<path class="st183" d="M175.07,89.29c0.73,0,1.32,0.59,1.32,1.32c0,0.73-0.59,1.32-1.32,1.32c-0.73,0-1.32-0.59-1.32-1.32
		C173.74,89.88,174.34,89.29,175.07,89.29 M175.39,88.16c0.44,0.06,0.85,0.23,1.18,0.49l0.99-0.99v-2.52c0-0.12,0.1-0.22,0.22-0.22
		c0.12,0,0.22,0.1,0.22,0.22v2.08l0.39-0.39v-2.52c0-0.12,0.1-0.22,0.22-0.22h0c0.12,0,0.22,0.1,0.22,0.22v2.08l0.39-0.39V83.5
		c0-0.12,0.1-0.22,0.22-0.22c0.12,0,0.22,0.1,0.22,0.22v2.08l0.39-0.39v-2.52c0-0.12,0.1-0.22,0.22-0.22s0.22,0.1,0.22,0.22v2.08
		l0.34-0.34c0.13-0.13,0.33-0.13,0.45,0c0.12,0.13,0.12,0.33,0,0.45l-0.34,0.34H183c0.12,0,0.22,0.1,0.22,0.22v0
		c0,0.12-0.1,0.22-0.22,0.22h-2.52l-0.39,0.39h2.08c0.12,0,0.22,0.1,0.22,0.22v0c0,0.12-0.1,0.22-0.22,0.22h-2.52l-0.39,0.39h2.08
		c0.12,0,0.22,0.1,0.22,0.22c0,0.12-0.1,0.22-0.22,0.22h-2.52l-0.39,0.39h2.08c0.12,0,0.22,0.1,0.22,0.22c0,0.12-0.1,0.22-0.22,0.22
		h-2.52l-0.99,0.99c0.26,0.34,0.43,0.74,0.49,1.18h1.4l1.78-1.78c0.08-0.08,0.22-0.08,0.31,0c0.08,0.08,0.08,0.22,0,0.31l-1.47,1.47
		h0.55l1.78-1.78c0.08-0.08,0.22-0.08,0.31,0l0,0c0.08,0.08,0.08,0.22,0,0.31l-1.47,1.47h0.55l1.78-1.78c0.08-0.08,0.22-0.08,0.31,0
		h0c0.08,0.08,0.08,0.22,0,0.31l-1.47,1.47h0.55l1.78-1.78c0.08-0.08,0.22-0.08,0.31,0h0c0.08,0.08,0.08,0.22,0,0.31l-1.47,1.47
		h0.48c0.18,0,0.32,0.14,0.32,0.32c0,0.18-0.14,0.32-0.32,0.32h-0.48l1.47,1.47c0.08,0.08,0.08,0.22,0,0.31h0
		c-0.08,0.08-0.22,0.08-0.31,0l-1.78-1.78h-0.55l1.47,1.47c0.08,0.08,0.08,0.22,0,0.31h0c-0.08,0.08-0.22,0.08-0.31,0l-1.78-1.78
		h-0.55l1.47,1.47c0.08,0.08,0.08,0.22,0,0.31c-0.08,0.08-0.22,0.08-0.31,0l-1.78-1.78h-0.55l1.47,1.47c0.08,0.08,0.08,0.22,0,0.31
		c-0.08,0.08-0.22,0.08-0.31,0l-1.78-1.78h-1.4c-0.06,0.44-0.23,0.85-0.49,1.18l0.99,0.99h2.52c0.12,0,0.22,0.1,0.22,0.22v0
		c0,0.12-0.1,0.22-0.22,0.22h-2.08l0.39,0.39h2.52c0.12,0,0.22,0.1,0.22,0.22c0,0.12-0.1,0.22-0.22,0.22h-2.08l0.39,0.39h2.52
		c0.12,0,0.22,0.1,0.22,0.22c0,0.12-0.1,0.22-0.22,0.22h-2.08l0.39,0.39H183c0.12,0,0.22,0.1,0.22,0.22c0,0.12-0.1,0.22-0.22,0.22
		h-2.08l0.34,0.34c0.12,0.13,0.12,0.33,0,0.45c-0.13,0.12-0.33,0.12-0.45,0l-0.34-0.34v2.08c0,0.12-0.1,0.22-0.22,0.22
		c-0.12,0-0.22-0.1-0.22-0.22v-2.52l-0.39-0.39v2.08c0,0.12-0.1,0.22-0.22,0.22c-0.12,0-0.22-0.1-0.22-0.22v-2.52l-0.39-0.39v2.08
		c0,0.12-0.1,0.22-0.22,0.22c-0.12,0-0.22-0.1-0.22-0.22v-2.52L178,94v2.08c0,0.12-0.1,0.22-0.22,0.22c-0.12,0-0.22-0.1-0.22-0.22
		v-2.52l-0.99-0.99c-0.34,0.26-0.74,0.43-1.18,0.49v1.4l1.78,1.78c0.08,0.08,0.08,0.22,0,0.31c-0.08,0.08-0.22,0.08-0.31,0
		l-1.47-1.47v0.55l1.78,1.78c0.08,0.08,0.08,0.22,0,0.31c-0.08,0.08-0.22,0.08-0.31,0l-1.47-1.47v0.55l1.78,1.78
		c0.08,0.08,0.08,0.22,0,0.31c-0.08,0.08-0.22,0.08-0.31,0l-1.47-1.47v0.55l1.78,1.78c0.08,0.08,0.08,0.22,0,0.31
		c-0.08,0.08-0.22,0.08-0.31,0l-1.47-1.47v0.48c0,0.18-0.14,0.32-0.32,0.32c-0.18,0-0.32-0.14-0.32-0.32v-0.48l-1.47,1.47
		c-0.08,0.08-0.22,0.08-0.31,0c-0.08-0.08-0.08-0.22,0-0.31l1.78-1.78v-0.55l-1.47,1.47c-0.08,0.08-0.22,0.08-0.31,0
		s-0.08-0.22,0-0.31l1.78-1.78v-0.55l-1.47,1.47c-0.08,0.08-0.22,0.08-0.31,0c-0.08-0.08-0.08-0.22,0-0.31l1.78-1.78v-0.55
		l-1.47,1.47c-0.08,0.08-0.22,0.08-0.31,0h0c-0.08-0.08-0.08-0.22,0-0.31l1.78-1.78v-1.4c-0.44-0.06-0.85-0.23-1.18-0.49l-0.99,0.99
		v2.52c0,0.12-0.1,0.22-0.22,0.22s-0.22-0.1-0.22-0.22V94l-0.39,0.39v2.52c0,0.12-0.1,0.22-0.22,0.22c-0.12,0-0.22-0.1-0.22-0.22
		v-2.08l-0.39,0.39v2.52c0,0.12-0.1,0.22-0.22,0.22c-0.12,0-0.22-0.1-0.22-0.22v-2.08l-0.39,0.39v2.52c0,0.12-0.1,0.22-0.22,0.22
		c-0.12,0-0.22-0.1-0.22-0.22v-2.08l-0.34,0.34c-0.13,0.12-0.33,0.12-0.45,0c-0.12-0.12-0.12-0.33,0-0.45l0.34-0.34h-2.08
		c-0.12,0-0.22-0.1-0.22-0.22v0c0-0.12,0.1-0.22,0.22-0.22h2.52l0.39-0.39h-2.08c-0.12,0-0.22-0.1-0.22-0.22
		c0-0.12,0.1-0.22,0.22-0.22h2.52l0.39-0.39h-2.08c-0.12,0-0.22-0.1-0.22-0.22c0-0.12,0.1-0.22,0.22-0.22h2.52l0.39-0.39h-2.08
		c-0.12,0-0.22-0.1-0.22-0.22c0-0.12,0.1-0.22,0.22-0.22h2.52l0.99-0.99c-0.26-0.34-0.43-0.74-0.49-1.18h-1.4l-1.78,1.78
		c-0.08,0.08-0.22,0.08-0.31,0c-0.08-0.08-0.08-0.22,0-0.31l1.47-1.47h-0.55l-1.78,1.78c-0.08,0.08-0.22,0.08-0.31,0
		c-0.08-0.08-0.08-0.22,0-0.31l1.47-1.47h-0.55l-1.78,1.78c-0.08,0.08-0.22,0.08-0.31,0h0c-0.08-0.08-0.08-0.22,0-0.31l1.47-1.47
		h-0.55l-1.78,1.78c-0.08,0.08-0.22,0.08-0.31,0h0c-0.08-0.08-0.08-0.22,0-0.31l1.47-1.47h-0.48c-0.18,0-0.32-0.14-0.32-0.32
		c0-0.18,0.14-0.32,0.32-0.32h0.48l-1.47-1.47c-0.08-0.08-0.08-0.22,0-0.31h0c0.08-0.08,0.22-0.08,0.31,0l1.78,1.78h0.55l-1.47-1.47
		c-0.08-0.08-0.08-0.22,0-0.31h0c0.08-0.08,0.22-0.08,0.31,0l1.78,1.78h0.55l-1.47-1.47c-0.08-0.08-0.08-0.22,0-0.31
		c0.08-0.08,0.22-0.08,0.31,0l1.78,1.78h0.55l-1.47-1.47c-0.08-0.08-0.08-0.22,0-0.31c0.08-0.08,0.22-0.08,0.31,0l1.78,1.78h1.4
		c0.06-0.44,0.23-0.85,0.49-1.18l-0.99-0.99h-2.52c-0.12,0-0.22-0.1-0.22-0.22c0-0.12,0.1-0.22,0.22-0.22h2.08l-0.39-0.39h-2.52
		c-0.12,0-0.22-0.1-0.22-0.22c0-0.12,0.1-0.22,0.22-0.22h2.08l-0.39-0.39h-2.52c-0.12,0-0.22-0.1-0.22-0.22v0
		c0-0.12,0.1-0.22,0.22-0.22h2.08l-0.39-0.39h-2.52c-0.12,0-0.22-0.1-0.22-0.22c0-0.12,0.1-0.22,0.22-0.22h2.08l-0.34-0.34
		c-0.12-0.12-0.12-0.33,0-0.45c0.13-0.13,0.33-0.13,0.45,0l0.34,0.34v-2.08c0-0.12,0.1-0.22,0.22-0.22s0.22,0.1,0.22,0.22v2.52
		l0.39,0.39V83.5c0-0.12,0.1-0.22,0.22-0.22c0.12,0,0.22,0.1,0.22,0.22v2.52l0.39,0.39v-2.08c0-0.12,0.1-0.22,0.22-0.22
		c0.12,0,0.22,0.1,0.22,0.22v2.52l0.39,0.39v-2.08c0-0.12,0.1-0.22,0.22-0.22h0c0.12,0,0.22,0.1,0.22,0.22v2.52l0.99,0.99
		c0.34-0.26,0.74-0.43,1.18-0.49v-1.4l-1.78-1.78c-0.08-0.08-0.08-0.22,0-0.31c0.09-0.08,0.22-0.08,0.31,0l1.47,1.47V85.6
		l-1.78-1.78c-0.08-0.08-0.08-0.22,0-0.31s0.22-0.08,0.31,0l1.47,1.47v-0.55l-1.78-1.78c-0.08-0.08-0.08-0.22,0-0.31
		c0.08-0.08,0.22-0.08,0.31,0l1.47,1.47v-0.55l-1.78-1.78c-0.08-0.08-0.08-0.22,0-0.31s0.22-0.08,0.31,0l1.47,1.47v-0.48v-0.16
		c0-0.09,0.07-0.16,0.16-0.16c0.02,0,0.05,0.01,0.07,0.01c0.03-0.01,0.06-0.01,0.09-0.01c0.18,0,0.32,0.14,0.32,0.32v0.48l1.47-1.47
		c0.08-0.08,0.22-0.08,0.31,0c0.08,0.08,0.08,0.22,0,0.31l-1.78,1.78v0.55l1.47-1.47c0.08-0.08,0.22-0.08,0.31,0
		c0.08,0.08,0.08,0.22,0,0.31l-1.78,1.78v0.55l1.47-1.47c0.08-0.08,0.22-0.08,0.31,0c0.08,0.08,0.08,0.22,0,0.31l-1.78,1.78v0.55
		l1.47-1.47c0.08-0.08,0.22-0.08,0.31,0h0c0.08,0.08,0.08,0.22,0,0.31l-1.78,1.78L175.39,88.16L175.39,88.16z"/>
	<path class="st184" d="M215.12,137.76c-0.68-1.05-1.94-2.14-4.05-3.2c-5.49-2.77-9-5.23-10.9-7.35c-1.19-1.33-1.81-2.59-1.95-3.79
		c-0.16-1.42,0.31-2.64,1.34-3.67c0.83-0.83,2.02-1.5,3.51-2.01c2.48-0.85,4.74-2.03,5.02-3.57c0.3-1.68-1.45-4.17-7.09-7.86
		c-10.2-6.69-7.35-11.53-4.07-14.12c-4.64-2.19-11.95-7.83-15.38-22.15c-2.62-10.9-4.68-16.35-6.33-16.35
		c-1.65,0-3.71,5.45-6.33,16.35c-3.44,14.32-10.74,19.96-15.38,22.15c3.28,2.59,6.13,7.43-4.07,14.12c-5.64,3.7-7.39,6.19-7.09,7.86
		c0.28,1.54,2.54,2.72,5.02,3.57c1.49,0.51,2.69,1.18,3.51,2.01c1.03,1.03,1.5,2.26,1.34,3.67c-0.14,1.2-0.77,2.46-1.95,3.79
		c-1.9,2.12-5.41,4.58-10.9,7.35c-2.07,1.05-3.33,2.11-4.02,3.15c-1.59,0.17-3.18,0.36-4.77,0.55c0.43-2.18,2.47-4.61,7.14-6.97
		c5.07-2.56,8.23-4.73,9.83-6.52c0.65-0.73,0.98-1.32,1.04-1.77c0.03-0.24-0.08-0.47-0.29-0.68c-0.41-0.42-1.13-0.79-2.09-1.12
		c-3.56-1.21-6.86-3.19-7.44-6.39c-0.55-3.06,1.54-6.89,8.67-11.57c9.34-6.12,1.84-9.48,1.08-9.8c-0.63-0.22-1.11-0.78-1.2-1.48
		c-0.13-1,0.57-1.92,1.57-2.05c0.03,0,11.81-1.36,16.46-20.73c3.07-12.78,6.26-19.17,9.88-19.17c3.61,0,6.81,6.39,9.88,19.17
		c4.65,19.37,16.42,20.72,16.45,20.73v0c0.63,0.08,1.21,0.5,1.46,1.14c0.37,0.94-0.09,2-1.02,2.37c-0.02,0.01-8.79,3.39,1.02,9.82
		c7.14,4.68,9.23,8.51,8.67,11.57c-0.58,3.2-3.88,5.17-7.44,6.39c-0.97,0.33-1.68,0.71-2.09,1.12c-0.22,0.22-0.32,0.45-0.29,0.68
		c0.05,0.46,0.39,1.04,1.04,1.77c1.6,1.79,4.76,3.96,9.83,6.52c4.59,2.32,6.5,4.76,6.85,6.98
		C218.09,138.1,216.61,137.93,215.12,137.76"/>
	<radialGradient id="SVGID_1_" cx="175.0678" cy="118.451" r="17.473" gradientUnits="userSpaceOnUse">
		<stop  offset="0" style="stop-color:#FFFFFF"/>
		<stop  offset="0.021" style="stop-color:#FAEFEF"/>
		<stop  offset="0.0931" style="stop-color:#E9BDBD"/>
		<stop  offset="0.1708" style="stop-color:#DA9090"/>
		<stop  offset="0.2522" style="stop-color:#CD6969"/>
		<stop  offset="0.3382" style="stop-color:#C24949"/>
		<stop  offset="0.4304" style="stop-color:#B92E2E"/>
		<stop  offset="0.5308" style="stop-color:#B21A1A"/>
		<stop  offset="0.6438" style="stop-color:#AD0B0B"/>
		<stop  offset="0.7796" style="stop-color:#AA0303"/>
		<stop  offset="1" style="stop-color:#A90000"/>
	</radialGradient>
	<path style="fill-rule:evenodd;clip-rule:evenodd;fill:url(#SVGID_1_);" d="M159.35,135.9v-2.98h14.48v2.65
		C169,135.58,164.18,135.69,159.35,135.9 M190.78,132.92v2.98c-4.82-0.21-9.65-0.32-14.48-0.34v-2.65L190.78,132.92L190.78,132.92z
		 M178.65,110.39c2.39,0.2,4.85-0.35,6.96-1.43c1.29-0.66,4.2-2.67,4.01-4.4c-0.01-0.1-0.03-0.19-0.07-0.28
		c-0.13-0.32-0.34-0.73-0.67-0.88c-1.76-0.76-5.9,2.52-7.09,3.6C180.81,107.87,179.62,109.11,178.65,110.39z M171.49,110.39
		c-2.39,0.2-4.85-0.35-6.96-1.43c-1.29-0.66-4.2-2.67-4.01-4.4c0.01-0.1,0.03-0.19,0.07-0.28c0.13-0.32,0.34-0.73,0.67-0.88
		c1.76-0.76,5.9,2.52,7.09,3.6C169.32,107.87,170.52,109.11,171.49,110.39z M190.78,117.59v12.85h-14.48v-12.85h-2.48v12.85h-14.48
		v-12.85h-1.78v-5.65h8.14c-4.91-1.63-8.48-5.46-7.26-8.52c2.33-5.88,10.71,0.12,14.76,5.44c0.38-0.88,1.07-1.47,1.86-1.47
		c0.79,0,1.48,0.59,1.86,1.47c4.05-5.32,12.43-11.31,14.76-5.44c1.21,3.06-2.35,6.89-7.26,8.52h8.14v5.65H190.78z"/>
	<path class="st183" d="M220.46,162.91c-30.09-4.77-60.75-4.77-90.84,0c0,0-1.36-6.92-4.07-20.76c32.84-4.52,66.14-4.52,98.97,0
		C221.81,155.99,220.46,162.91,220.46,162.91 M227.05,145.41h13.29l-5.11,10.52l5.11,10.52h-17.41L227.05,145.41z M123.08,145.71
		h-13.29l5.11,10.52l-5.11,10.52h17.41L123.08,145.71z"/>
	<path class="st183" d="M153.72,69.98l1.09,3.38c0.02,0.05,0.06,0.08,0.12,0.08l3.55-0.01c0.05,0,0.1,0.03,0.12,0.08
		c0.02,0.05,0,0.1-0.04,0.14l-2.88,2.08c-0.04,0.03-0.06,0.08-0.04,0.14l1.1,3.38c0.02,0.05,0,0.1-0.04,0.14
		c-0.04,0.03-0.1,0.03-0.14,0l-2.87-2.09c-0.04-0.03-0.1-0.03-0.14,0l-2.87,2.09c-0.04,0.03-0.1,0.03-0.14,0
		c-0.04-0.03-0.06-0.08-0.04-0.14l1.1-3.38c0.02-0.05,0-0.1-0.04-0.14l-2.88-2.08c-0.04-0.03-0.06-0.08-0.04-0.14
		c0.02-0.05,0.06-0.08,0.12-0.08l3.55,0.01c0.05,0,0.1-0.03,0.12-0.08l1.09-3.38c0.02-0.05,0.06-0.08,0.12-0.08
		C153.65,69.89,153.7,69.93,153.72,69.98 M135.91,92.95l1.5,4.64c0.02,0.07,0.08,0.12,0.16,0.12l4.88-0.01
		c0.07,0,0.14,0.04,0.16,0.11c0.02,0.07,0,0.14-0.06,0.19l-3.95,2.86c-0.06,0.04-0.08,0.12-0.06,0.19l1.52,4.64
		c0.02,0.07,0,0.14-0.06,0.19c-0.06,0.04-0.14,0.04-0.2,0l-3.94-2.87c-0.06-0.04-0.14-0.04-0.2,0l-3.94,2.87
		c-0.06,0.04-0.14,0.04-0.2,0c-0.06-0.04-0.08-0.12-0.06-0.19l1.52-4.64c0.02-0.07,0-0.14-0.06-0.19l-3.95-2.86
		c-0.06-0.04-0.08-0.12-0.06-0.19c0.02-0.07,0.09-0.12,0.16-0.11l4.88,0.01c0.07,0,0.14-0.05,0.16-0.12l1.5-4.64
		c0.02-0.07,0.08-0.12,0.16-0.12C135.83,92.83,135.89,92.88,135.91,92.95 M196.45,69.98l-1.09,3.38c-0.02,0.05-0.06,0.08-0.12,0.08
		l-3.55-0.01c-0.05,0-0.1,0.03-0.12,0.08c-0.02,0.05,0,0.1,0.04,0.14l2.88,2.08c0.04,0.03,0.06,0.08,0.04,0.14l-1.1,3.38
		c-0.02,0.05,0,0.1,0.04,0.14c0.04,0.03,0.1,0.03,0.14,0l2.87-2.09c0.04-0.03,0.1-0.03,0.14,0l2.87,2.09c0.04,0.03,0.1,0.03,0.14,0
		c0.04-0.03,0.06-0.08,0.04-0.14l-1.1-3.38c-0.02-0.05,0-0.1,0.04-0.14l2.88-2.08c0.04-0.03,0.06-0.08,0.04-0.14
		c-0.02-0.05-0.06-0.08-0.12-0.08l-3.55,0.01c-0.05,0-0.1-0.03-0.12-0.08l-1.09-3.38c-0.02-0.05-0.06-0.08-0.12-0.08
		C196.51,69.89,196.47,69.93,196.45,69.98 M214.25,92.95l-1.5,4.64c-0.02,0.07-0.08,0.12-0.16,0.11l-4.88-0.01
		c-0.07,0-0.14,0.05-0.16,0.11c-0.02,0.07,0,0.14,0.06,0.19l3.95,2.86c0.06,0.04,0.08,0.12,0.06,0.19l-1.52,4.64
		c-0.02,0.07,0,0.14,0.06,0.19c0.06,0.04,0.14,0.04,0.2,0l3.94-2.87c0.06-0.04,0.14-0.04,0.2,0l3.94,2.87c0.06,0.04,0.14,0.04,0.2,0
		c0.06-0.04,0.08-0.12,0.06-0.19l-1.52-4.64c-0.02-0.07,0-0.14,0.06-0.19l3.95-2.86c0.06-0.04,0.08-0.12,0.06-0.19
		c-0.02-0.07-0.09-0.12-0.16-0.11l-4.88,0.01c-0.07,0-0.14-0.05-0.16-0.11l-1.5-4.64c-0.02-0.07-0.09-0.12-0.16-0.12
		C214.34,92.83,214.28,92.88,214.25,92.95"/>
	
		<linearGradient id="SVGID_00000000195853049439510510000013394685629076781759_" gradientUnits="userSpaceOnUse" x1="163.6262" y1="38.9676" x2="186.4506" y2="38.9676">
		<stop  offset="0" style="stop-color:#DE7C09"/>
		<stop  offset="0.26" style="stop-color:#F8D82E"/>
		<stop  offset="0.59" style="stop-color:#DE7C09"/>
		<stop  offset="1" style="stop-color:#F8D82E"/>
	</linearGradient>
	<path style="fill:url(#SVGID_00000000195853049439510510000013394685629076781759_);" d="M175.3,28.29l2.49,7.72
		c0.04,0.12,0.14,0.19,0.26,0.19l8.11-0.02c0.12,0,0.23,0.07,0.26,0.19c0.04,0.12,0,0.24-0.1,0.31l-6.57,4.76
		c-0.1,0.07-0.14,0.19-0.1,0.31l2.52,7.71c0.04,0.12,0,0.24-0.1,0.31c-0.1,0.07-0.23,0.07-0.33,0L175.2,45
		c-0.1-0.07-0.23-0.07-0.33,0l-6.56,4.78c-0.1,0.07-0.23,0.07-0.33,0c-0.1-0.07-0.14-0.19-0.1-0.31l2.52-7.71
		c0.04-0.12,0-0.24-0.1-0.31l-6.57-4.76c-0.1-0.07-0.14-0.19-0.1-0.31c0.04-0.12,0.14-0.19,0.26-0.19l8.11,0.02
		c0.12,0,0.23-0.08,0.26-0.19l2.49-7.72c0.04-0.12,0.14-0.19,0.26-0.19C175.16,28.1,175.26,28.18,175.3,28.29"/>
</g>
</svg>
