<?xml version="1.0" encoding="utf-8"?>
<!-- Generator: Adobe Illustrator 27.8.1, SVG Export Plug-In . SVG Version: 6.00 Build 0)  -->
<svg version="1.1" id="Layer_1" xmlns="http://www.w3.org/2000/svg" xmlns:xlink="http://www.w3.org/1999/xlink" x="0px" y="0px"
	 viewBox="0 0 350 230" style="enable-background:new 0 0 350 230;" xml:space="preserve">
<style type="text/css">
	.st0{fill:#EAE4B0;}
	.st1{fill:#332700;}
	.st2{fill:#EBEBFF;}
	.st3{fill:#FBFFAE;}
	.st4{fill:#B0FFD5;}
	.st5{fill:#B3FFFB;}
	.st6{fill:#FFFAB6;}
	.st7{fill:#2B2700;}
	.st8{fill:#FFFFB8;}
	.st9{fill:#040028;}
	.st10{fill:#260000;}
	.st11{opacity:0.5;fill:#848484;}
	.st12{fill:#2B2401;}
	.st13{fill:#FF7C6C;}
	.st14{fill:#CC2D21;}
	.st15{fill:#F75C4C;}
	.st16{fill:#FFE5CF;}
	.st17{fill:#FFFFFF;}
	.st18{fill:#CFDAE3;}
	.st19{fill:#006C11;}
	.st20{fill:#A11E10;}
	.st21{fill:#EDBC93;}
	.st22{fill:#898989;}
	.st23{fill:#2B1536;}
	.st24{fill:#15352A;}
	.st25{fill:#E4EAF5;}
	.st26{fill:#F2F5F5;}
	.st27{fill:#D6363D;}
	.st28{fill:#600000;fill-opacity:0.5098;}
	.st29{fill:#F2CCA3;}
	.st30{fill:#D28F5F;}
	.st31{fill:#FF0000;fill-opacity:0.5098;}
	.st32{fill:#C7D5F5;}
	.st33{fill:#F3DBC0;}
	.st34{fill:#F58086;}
	.st35{fill:url(#SVGID_1_);}
	.st36{fill:#FCC7A2;}
	.st37{fill:url(#SVGID_00000001663438900439215260000000805207000814475927_);}
	.st38{fill:#E20328;}
	.st39{fill:url(#SVGID_00000031916739822229859270000003661953018814716071_);}
	.st40{fill:#F4BDA8;}
	.st41{fill:#DCF7F6;}
	.st42{fill:url(#SVGID_00000139981445683073786990000010845242654417794445_);}
	.st43{fill:url(#SVGID_00000063601222663670317320000003528756133284499089_);}
	.st44{fill:url(#SVGID_00000020379745586595099870000015646415891152027292_);}
	.st45{fill:url(#SVGID_00000011725554246833059840000008833524380318577827_);}
	.st46{fill:url(#SVGID_00000136404507228149636610000006532255865283617706_);}
	.st47{fill:url(#SVGID_00000146497967228905636190000008565023383926370994_);}
	.st48{fill:url(#SVGID_00000097484225651089368480000006043993845436890497_);}
	.st49{fill:url(#SVGID_00000002364042665214788950000007805283716701609369_);}
	.st50{fill:url(#SVGID_00000003797868664422080700000001080865090930529954_);}
	.st51{fill:#E2B881;}
	.st52{fill:#FFFFFF;stroke:#000000;stroke-width:0.05;stroke-miterlimit:10;}
	.st53{fill:url(#SVGID_00000181046677174201389280000004887673860087880591_);}
	.st54{fill:url(#SVGID_00000129910884198997597090000012593954385473960858_);}
	.st55{fill:#0B9ED8;}
	.st56{fill:#FCDFB0;}
	.st57{fill:#FF0013;}
	.st58{fill:url(#SVGID_00000052075707388596123810000013256641957130053044_);}
	.st59{fill:#0A50FF;}
	.st60{fill:#FFB773;}
	.st61{fill-rule:evenodd;clip-rule:evenodd;fill:url(#SVGID_00000055671440034482828510000013547633450681857678_);}
	.st62{fill:#FF334F;}
	.st63{fill:#FFAB66;}
	.st64{fill:#FF8B41;}
	.st65{fill:#BB386B;}
	.st66{fill:#CBCBCB;}
	.st67{fill:#D37250;}
	.st68{fill:#D06D2E;}
	.st69{fill-rule:evenodd;clip-rule:evenodd;fill:#FFFFFF;}
	.st70{fill:#CAFFEC;}
	.st71{fill:#FFF6B3;}
	.st72{fill:#FFFBD2;}
	.st73{fill:#EFFFD2;}
	.st74{fill:#A01D21;}
	.st75{fill:#00261B;}
	.st76{fill:#F4FFB6;}
	.st77{fill:url(#SVGID_00000153694032298991410470000013408983636871610515_);}
	.st78{fill:#002340;}
	.st79{fill:url(#SVGID_00000093883211996451780280000003703275255911082376_);}
	.st80{fill:url(#SVGID_00000129911900199648603430000009754743953422135728_);}
	.st81{fill:#D91215;}
	.st82{fill:#98BBCE;}
	.st83{fill:#00A70C;}
	.st84{fill:#C47E2A;}
	.st85{fill-rule:evenodd;clip-rule:evenodd;fill:#1F1D1D;}
	.st86{fill-rule:evenodd;clip-rule:evenodd;fill:#2B2700;}
	.st87{fill-rule:evenodd;clip-rule:evenodd;fill:#FF1943;}
	.st88{fill:url(#SVGID_00000085951770430367453200000012166864414041757320_);}
	.st89{fill:url(#SVGID_00000006676099489460358720000010991858723556354442_);}
	.st90{fill:url(#SVGID_00000035521175832114108690000001528429855663868088_);}
	.st91{fill:url(#SVGID_00000072971335594002718610000010222721459506631045_);}
	.st92{fill:url(#SVGID_00000026886010651870116260000016500751917231434640_);}
	.st93{fill:url(#SVGID_00000098902955560987904010000014704988435638736560_);}
	.st94{fill:#E31E26;}
	.st95{fill:#811517;}
	.st96{fill:url(#SVGID_00000024716340778761139250000005900219596547135933_);}
	.st97{fill:url(#SVGID_00000169556792203502049460000004116016879245151913_);}
	.st98{fill:url(#SVGID_00000087398163541899861460000002729386145706276235_);}
	.st99{fill:#B47920;}
	.st100{fill:#089E32;}
	.st101{fill:#FFE30B;}
	.st102{fill-rule:evenodd;clip-rule:evenodd;fill:#EE1D24;}
	.st103{fill:#17377D;}
	.st104{filter:url(#Adobe_OpacityMaskFilter);}
	.st105{opacity:0.28;mask:url(#SVGID_00000159437010210062271840000007777414353946418095_);}
	.st106{fill:#3A3132;}
	.st107{fill:url(#SVGID_00000061440601877872006740000008743605688464432543_);}
	.st108{filter:url(#Adobe_OpacityMaskFilter_00000047742033129185858730000007273048434848393363_);}
	.st109{opacity:0.28;mask:url(#SVGID_00000130638699003357737830000003585102938300024748_);}
	.st110{fill:#102A63;}
	.st111{filter:url(#Adobe_OpacityMaskFilter_00000120531355364669434390000017597994188982237841_);}
	.st112{opacity:0.28;mask:url(#SVGID_00000139253541245347429960000013838534979447123851_);}
	.st113{fill:#0E2458;}
	.st114{filter:url(#Adobe_OpacityMaskFilter_00000165225100072421600780000001269820588087721918_);}
	.st115{opacity:0.25;mask:url(#SVGID_00000023974065567230397820000008991925111321970563_);}
	.st116{fill:url(#SVGID_00000018948599594368021070000007898155296952425867_);}
	.st117{fill:#00BEC6;}
	.st118{fill:url(#SVGID_00000052104600256201275850000009938743162703103877_);}
	.st119{fill:url(#SVGID_00000023269809207048348150000014594962504545067416_);stroke:#FFFFFF;stroke-miterlimit:10;}
	
		.st120{fill:url(#SVGID_00000131335885245431420320000000135858532208188832_);stroke:#FFFFFF;stroke-width:0.5;stroke-miterlimit:10;}
	.st121{fill:url(#SVGID_00000031207279132592228160000015802762761727757990_);}
	.st122{fill:#F9D075;}
	.st123{fill:#FFEF92;}
	.st124{fill:url(#SVGID_00000026152532588615389690000016337535055407173543_);}
	.st125{fill:url(#SVGID_00000023964108179782403020000000874581448886244536_);}
	.st126{fill:url(#SVGID_00000124875671973420851520000008994030488218711436_);}
	.st127{fill:#09890F;}
	.st128{fill:#A9CE4D;}
	.st129{fill:#FF9501;}
	.st130{fill:#AA1523;}
	.st131{fill:#006B52;}
	.st132{fill:#EEC200;}
	.st133{fill:#9F4641;}
	.st134{fill:url(#SVGID_00000114795275780517140130000014512016631873162919_);stroke:#FFFFFF;stroke-miterlimit:10;}
	.st135{fill:none;stroke:#FFFFFF;stroke-width:1.7883;stroke-miterlimit:10;}
	.st136{fill:none;stroke:#BFDADD;stroke-width:2;stroke-linecap:round;stroke-linejoin:round;stroke-miterlimit:10;}
	.st137{fill:none;stroke:#016D39;stroke-width:2;stroke-linecap:round;stroke-linejoin:round;stroke-miterlimit:10;}
	.st138{fill:none;stroke:#00BFAD;stroke-width:2;stroke-linecap:round;stroke-linejoin:round;stroke-miterlimit:10;}
	.st139{fill:#12162E;}
	.st140{fill:none;stroke:#12162E;stroke-miterlimit:10;}
	.st141{fill:#016D39;}
	.st142{fill:#083F24;}
	.st143{fill:#FF5635;}
	.st144{fill:#C63724;}
	.st145{fill:#FFBE00;}
	.st146{fill:#00BFAD;}
	.st147{fill:#D1D3D3;}
	.st148{fill:#9A4641;}
	.st149{fill:url(#SVGID_00000105409880731953430760000007244734531240292286_);}
	.st150{fill:url(#SVGID_00000043440702406451154500000007486080681101526200_);stroke:#FFFFFF;stroke-miterlimit:10;}
	.st151{fill:#F75D58;}
	.st152{fill:url(#SVGID_00000035525146266702736330000016901455646173954476_);}
	.st153{opacity:0.42;fill:#FFFFFF;}
	.st154{fill:#229200;}
	.st155{fill:#FF0000;}
	.st156{fill:#0C1F26;}
	.st157{fill:#E43724;}
	.st158{fill:#6B2422;}
	.st159{fill:#FBF1E5;}
	.st160{fill:#FAF8F0;}
	.st161{fill:#EEEEED;}
	.st162{fill:#DBDEDD;}
	.st163{fill:#A6453D;}
	.st164{fill:#E3E4E7;}
	.st165{fill:#D2301D;}
	.st166{fill:#E2D7D0;}
	.st167{fill:#FCF8EF;}
	.st168{fill:#C42C1E;}
	.st169{fill:#0C232B;}
	.st170{fill:#0D3B6E;}
	.st171{fill:#139AEC;}
	.st172{fill:#F52A3C;}
	.st173{fill:url(#SVGID_00000008854503221046088000000003039677294150746506_);}
	.st174{fill:#890924;}
	.st175{fill:url(#SVGID_00000110458011795764396030000012615975260110270080_);}
	.st176{fill-rule:evenodd;clip-rule:evenodd;fill:url(#SVGID_00000113347149153291429440000013393224128905001898_);}
	.st177{fill-rule:evenodd;clip-rule:evenodd;fill:#CE1515;}
	.st178{fill-rule:evenodd;clip-rule:evenodd;fill:#FFFBDD;}
	.st179{fill-rule:evenodd;clip-rule:evenodd;fill:#06542B;}
	.st180{fill-rule:evenodd;clip-rule:evenodd;fill:#AA1111;}
	.st181{fill:#005C01;}
	.st182{fill:#F5AB35;}
	.st183{fill-rule:evenodd;clip-rule:evenodd;fill:#215605;}
	.st184{fill:#215605;}
	.st185{fill-rule:evenodd;clip-rule:evenodd;fill:url(#SVGID_00000136392078310257050300000002855902665636298936_);}
	.st186{fill:url(#SVGID_00000034061840140924452010000002664546269884562049_);}
	.st187{fill:url(#SVGID_00000081624242969996940910000004515047610252282799_);}
	.st188{fill:url(#SVGID_00000122702759975846341390000002366793798447369881_);}
	.st189{fill:url(#SVGID_00000034062075053874474130000002720994523916969113_);}
	.st190{fill:url(#SVGID_00000039102904738551978850000014381467364237536668_);}
	.st191{fill:url(#SVGID_00000024720179661627570940000009950845120028293007_);}
	.st192{fill:url(#SVGID_00000181801451542365312840000011034742727317338016_);}
	.st193{fill:url(#SVGID_00000004540136168921687850000017044592908176589442_);}
	.st194{fill:url(#SVGID_00000163768726676437120830000012893942653811661199_);}
	.st195{fill:#B6FFFF;}
	.st196{fill:url(#SVGID_00000150097820495623460470000012997693910310464696_);}
	.st197{fill:url(#SVGID_00000015330495836733183030000002524937127059312517_);}
	.st198{fill:url(#SVGID_00000078026318743889252240000009476273890085316508_);}
	.st199{fill:url(#SVGID_00000116211333437470659490000011110489453289376187_);}
	.st200{fill:url(#SVGID_00000124869357223202261270000006043209941931131534_);}
	.st201{fill:url(#SVGID_00000023277279638645507660000018400924732562786728_);}
	.st202{fill:url(#SVGID_00000018917318894327416660000001418958391169995648_);}
	.st203{fill:url(#SVGID_00000049927714149872472090000005318171139001733770_);}
	.st204{fill:url(#SVGID_00000130610060216988906860000006617883325632635830_);}
	.st205{fill:url(#SVGID_00000081630197053660269710000017864499906724597684_);}
	.st206{fill:url(#SVGID_00000127028360597287934660000012037099999842239128_);}
	.st207{fill:url(#SVGID_00000067929917436442798840000006823909453167983031_);}
	.st208{fill:url(#SVGID_00000157283722271552691860000013256420823534997683_);}
	.st209{fill:url(#SVGID_00000168796669077060803490000007575697229085278908_);}
	.st210{fill:url(#SVGID_00000040573924635429230210000007312045982075092869_);}
	.st211{fill:url(#SVGID_00000144316807368361026030000012168677681442212228_);}
	.st212{fill:#CE4A43;}
	.st213{fill:url(#SVGID_00000162348557589830406300000001257588551895459500_);}
	.st214{fill:#CE4A43;stroke:#FFFFFF;stroke-miterlimit:10;}
	.st215{fill:none;stroke:#CE4A43;stroke-miterlimit:10;}
</style>
<radialGradient id="SVGID_1_" cx="174.3514" cy="94.5654" r="55.8757" gradientUnits="userSpaceOnUse">
	<stop  offset="0" style="stop-color:#FFFFFF"/>
	<stop  offset="0.021" style="stop-color:#FAEFEF"/>
	<stop  offset="0.0931" style="stop-color:#E9BDBD"/>
	<stop  offset="0.1708" style="stop-color:#DA9090"/>
	<stop  offset="0.2522" style="stop-color:#CD6969"/>
	<stop  offset="0.3382" style="stop-color:#C24949"/>
	<stop  offset="0.4304" style="stop-color:#B92E2E"/>
	<stop  offset="0.5308" style="stop-color:#B21A1A"/>
	<stop  offset="0.6438" style="stop-color:#AD0B0B"/>
	<stop  offset="0.7796" style="stop-color:#AA0303"/>
	<stop  offset="1" style="stop-color:#A90000"/>
</radialGradient>
<path class="st35" d="M165.95,71.56c-4.39-4.56-4.39-4.56-5.73-8.95c-0.17,0.3-0.32,0.5-0.42,0.73c-1.88,4.06-4.68,7.33-8.4,9.82
	c-1.37,0.91-1.36,0.93-2.43-0.46c2.77-4.83,3.09-10.15,2.85-15.56c-0.2-4.49-0.42-8.98,0.44-13.43c2.03-10.48,9.95-18.23,20.5-19.73
	c7.45-1.06,14.48,0.26,20.73,4.72c0.27,0.19,0.51,0.41,0.89,0.71c-1.49,0.18-2.82,0.27-4.12,0.52c-5.05,0.95-9.44,3.29-13.47,6.39
	c-2.78,2.14-5.35,4.49-7.36,7.4c-1.6,2.32-2.85,4.81-3,7.65c-0.09,1.83,0.21,3.69,0.49,5.58c6.1-7.19,13.98-11.77,21.87-16.33
	c0.08,0.1,0.16,0.2,0.25,0.3c-0.53,0.49-1.07,0.97-1.6,1.46c0.03,0.05,0.06,0.1,0.09,0.15c2.4-0.98,4.86-1.85,7.19-2.99
	c1.87-0.91,2.78-3.5,2.2-5.81c-0.29-1.15-0.88-2.23-1.27-3.16c2.46,1.4,5,5.83,4.95,8.88c-0.03,1.79-0.56,2.57-2.48,3.62
	c0.62,0.97,0.74,2.01,0.37,3.12c-0.24,0.72,0.11,1.28,0.58,1.76c0.88,0.89,1.77,1.76,2.65,2.64c0.22,0.22,0.45,0.43,0.67,0.65
	c1.7,1.76,1.48,2.94-0.81,4.05c2.04,2.16,3.34,4.55,1.97,7.55c-0.67,1.46-1.96,2.16-3.29,2.55c0.56-1.3,1.25-2.59,1.65-3.97
	c0.25-0.86,0.18-1.86,0.05-2.77c-0.24-1.62-1.39-2.4-3.02-2.18c-1.81,0.24-3.19,1.21-4.2,2.69c-0.59,0.87-1.08,1.8-1.61,2.7
	c-0.1-0.05-0.2-0.08-0.2-0.1c0.18-1.21-0.43-1.56-1.56-1.79c-2.76-0.56-5.05-3.25-5.4-6.04c-0.02-0.17-0.04-0.34-0.17-0.51
	c-1.99,3.02-1.61,6.07-0.06,9.13c-1.41-0.2-3.44-3.2-4.02-5.07c-0.56-1.82-0.54-2.65,0.12-6.77c-0.91,0.98-1.95,1.86-2.71,2.95
	c-2.7,3.89-3.44,8.25-2.58,12.85c1.15,6.16,4.92,10.61,9.73,14.47c-0.9-2.53-1.75-4.94-2.61-7.35c3.02,2.8,10.7,12.95,11.43,21.98
	c1.18-2.7,1.25-5.55,1.12-8.48c3.1,4.94,5.37,10.2,6.12,16.29c2.22-3.22,2.85-6.7,3.08-10.29c0.23-3.58-0.41-7.05-1.58-10.44
	c0.08-0.04,0.16-0.07,0.25-0.11c0.86,1.12,1.72,2.25,2.7,3.53c0.72-4.82,0.02-9.31-1.54-13.79c0.16,0.25,0.34,0.5,0.49,0.77
	c2.25,3.97,3.19,8.29,3.37,12.8c0.29,7.19-1,14.08-3.84,20.7c-0.36,0.83-0.56,1.81-0.54,2.71c0.33,14.21-3.85,26.98-12.37,38.31
	c-5.89,7.84-13.5,13.4-22.86,16.46c-2.79,0.92-5.66,1.53-8.63,1.43c-0.34-0.01-0.67-0.21-1-0.32c0.21-0.31,0.37-0.68,0.65-0.91
	c1.22-1.05,2.65-1.91,3.69-3.1c2.26-2.59,2.6-6.3,0.85-9.26c-1.31-2.22-2.83-4.33-4.36-6.41c-7.4-10.02-10.32-21.38-10.05-33.68
	c0.24-10.4,2.45-20.33,7.34-29.58c1.97-3.72,4.41-7.09,7.39-10.07C165.59,71.97,165.76,71.76,165.95,71.56z M139.55,79
	c-0.09,2.99,2.25,5.43,5.28,5.49c3.1,0.07,5.61-2.29,5.68-5.35c0.07-2.96-2.28-5.31-5.38-5.39C142.15,73.69,139.64,76.05,139.55,79z
	"/>
</svg>
