<?xml version="1.0" encoding="utf-8"?>
<!-- Generator: Adobe Illustrator 27.8.1, SVG Export Plug-In . SVG Version: 6.00 Build 0)  -->
<svg version="1.1" id="Layer_1" xmlns="http://www.w3.org/2000/svg" xmlns:xlink="http://www.w3.org/1999/xlink" x="0px" y="0px"
	 viewBox="0 0 350 230" style="enable-background:new 0 0 350 230;" xml:space="preserve">
<style type="text/css">
	.st0{fill:#EAE4B0;}
	.st1{fill:#332700;}
	.st2{fill:#EBEBFF;}
	.st3{fill:#FBFFAE;}
	.st4{fill:#B0FFD5;}
	.st5{fill:#B3FFFB;}
	.st6{fill:#FFFAB6;}
	.st7{fill:#2B2700;}
	.st8{fill:#FFFFB8;}
	.st9{fill:#040028;}
	.st10{fill:#260000;}
	.st11{opacity:0.5;fill:#848484;}
	.st12{fill:#2B2401;}
	.st13{fill:#FF7C6C;}
	.st14{fill:#CC2D21;}
	.st15{fill:#F75C4C;}
	.st16{fill:#FFE5CF;}
	.st17{fill:#FFFFFF;}
	.st18{fill:#CFDAE3;}
	.st19{fill:#006C11;}
	.st20{fill:#A11E10;}
	.st21{fill:#EDBC93;}
	.st22{fill:#898989;}
	.st23{fill:#2B1536;}
	.st24{fill:#15352A;}
	.st25{fill:#E4EAF5;}
	.st26{fill:#F2F5F5;}
	.st27{fill:#D6363D;}
	.st28{fill:#600000;fill-opacity:0.5098;}
	.st29{fill:#F2CCA3;}
	.st30{fill:#D28F5F;}
	.st31{fill:#FF0000;fill-opacity:0.5098;}
	.st32{fill:#C7D5F5;}
	.st33{fill:#F3DBC0;}
	.st34{fill:#F58086;}
	.st35{fill:url(#SVGID_1_);}
	.st36{fill:#FCC7A2;}
	.st37{fill:url(#SVGID_00000071554789320056967090000001799601192917269175_);}
	.st38{fill:#E20328;}
	.st39{fill:url(#SVGID_00000020379259165018155480000000483738565961366671_);}
	.st40{fill:#F4BDA8;}
	.st41{fill:#DCF7F6;}
	.st42{fill:url(#SVGID_00000018923434708291999480000001201514807615968688_);}
	.st43{fill:url(#SVGID_00000082331230341641095900000010855211726981395383_);}
	.st44{fill:url(#SVGID_00000096029595222101953160000016026945064756285593_);}
	.st45{fill:url(#SVGID_00000104697769023044638450000006372607428436950925_);}
	.st46{fill:url(#SVGID_00000079448003834498108110000007566750086998047662_);}
	.st47{fill:url(#SVGID_00000143611176844926428490000015637928222835895216_);}
	.st48{fill:url(#SVGID_00000178187932086468189450000006908394139844554686_);}
	.st49{fill:url(#SVGID_00000000908195216566037580000012648315927588115358_);}
	.st50{fill:url(#SVGID_00000051344520201763110930000005104748166197171604_);}
	.st51{fill:#E2B881;}
	.st52{fill:#FFFFFF;stroke:#000000;stroke-width:0.05;stroke-miterlimit:10;}
	.st53{fill:url(#SVGID_00000030489368703020489580000009482817699322448271_);}
	.st54{fill:url(#SVGID_00000173857790716754165970000007806504181754305701_);}
	.st55{fill:#0B9ED8;}
	.st56{fill:#FCDFB0;}
	.st57{fill:#FF0013;}
	.st58{fill:url(#SVGID_00000080884650124100710400000000808958853316429756_);}
	.st59{fill:#0A50FF;}
	.st60{fill:#FFB773;}
	.st61{fill-rule:evenodd;clip-rule:evenodd;fill:url(#SVGID_00000100373493791306262080000011431895609247028636_);}
	.st62{fill:#FF334F;}
	.st63{fill:#FFAB66;}
	.st64{fill:#FF8B41;}
	.st65{fill:#BB386B;}
	.st66{fill:#CBCBCB;}
	.st67{fill:#D37250;}
	.st68{fill:#D06D2E;}
	.st69{fill-rule:evenodd;clip-rule:evenodd;fill:#FFFFFF;}
	.st70{fill:#CAFFEC;}
	.st71{fill:#FFF6B3;}
	.st72{fill:#FFFBD2;}
	.st73{fill:#EFFFD2;}
	.st74{fill:#A01D21;}
	.st75{fill:#00261B;}
	.st76{fill:#F4FFB6;}
	.st77{fill:url(#SVGID_00000041258711467762887660000000505877425378526104_);}
	.st78{fill:#002340;}
	.st79{fill:url(#SVGID_00000019678137608608785220000000151879223077157297_);}
	.st80{fill:url(#SVGID_00000068647718222007233240000003908282623540813461_);}
	.st81{fill:#D91215;}
	.st82{fill:#98BBCE;}
	.st83{fill:#00A70C;}
	.st84{fill:#C47E2A;}
	.st85{fill-rule:evenodd;clip-rule:evenodd;fill:#1F1D1D;}
	.st86{fill-rule:evenodd;clip-rule:evenodd;fill:#2B2700;}
	.st87{fill-rule:evenodd;clip-rule:evenodd;fill:#FF1943;}
	.st88{fill:url(#SVGID_00000140002679928147933730000004394554355566776469_);}
	.st89{fill:url(#SVGID_00000116921697976068374530000008024351411319713718_);}
	.st90{fill:url(#SVGID_00000047059406888159195630000000014970969566688411_);}
	.st91{fill:url(#SVGID_00000152979984419594779720000001421444042077362843_);}
	.st92{fill:url(#SVGID_00000178176147662350850300000016004433335232443805_);}
	.st93{fill:url(#SVGID_00000057834510583546302600000010481787874283122853_);}
	.st94{fill:#E31E26;}
	.st95{fill:#811517;}
	.st96{fill:url(#SVGID_00000087405649198672734510000003907168541452722582_);}
	.st97{fill:url(#SVGID_00000027581475885862708730000001907883244660298930_);}
	.st98{fill:url(#SVGID_00000096017933237237745580000007329864557494929314_);}
	.st99{fill:#B47920;}
	.st100{fill:#089E32;}
	.st101{fill:#FFE30B;}
	.st102{fill-rule:evenodd;clip-rule:evenodd;fill:#EE1D24;}
	.st103{fill:#17377D;}
	.st104{filter:url(#Adobe_OpacityMaskFilter);}
	.st105{opacity:0.28;mask:url(#SVGID_00000139980484756631654900000008847256394176486834_);}
	.st106{fill:#3A3132;}
	.st107{fill:url(#SVGID_00000142148834232875532340000009330812170254915486_);}
	.st108{filter:url(#Adobe_OpacityMaskFilter_00000060709915144820327270000009112711743905877920_);}
	.st109{opacity:0.28;mask:url(#SVGID_00000108286031912184382230000004100677419877706909_);}
	.st110{fill:#102A63;}
	.st111{filter:url(#Adobe_OpacityMaskFilter_00000183930688433149658740000001318321865832683185_);}
	.st112{opacity:0.28;mask:url(#SVGID_00000018921969536524620640000014853623919697336990_);}
	.st113{fill:#0E2458;}
	.st114{filter:url(#Adobe_OpacityMaskFilter_00000182487271034872038530000001757593633290625704_);}
	.st115{opacity:0.25;mask:url(#SVGID_00000137825524724819469490000005199918038837651116_);}
	.st116{fill:url(#SVGID_00000160185741977303322900000002940482549376721080_);}
	.st117{fill:#00BEC6;}
	.st118{fill:url(#SVGID_00000183952414453212822850000017393748651582994596_);}
	.st119{fill:url(#SVGID_00000158736719422820091760000004369972286092059809_);stroke:#FFFFFF;stroke-miterlimit:10;}
	
		.st120{fill:url(#SVGID_00000067942719178002368550000004693616140096851113_);stroke:#FFFFFF;stroke-width:0.5;stroke-miterlimit:10;}
	.st121{fill:url(#SVGID_00000046333988517317721600000012138072588404945302_);}
	.st122{fill:#F9D075;}
	.st123{fill:#FFEF92;}
	.st124{fill:url(#SVGID_00000039107189873450354250000018280604816038043537_);}
	.st125{fill:url(#SVGID_00000091006457562467428410000004572643617778637969_);}
	.st126{fill:url(#SVGID_00000124873480833295916020000010013053601710611073_);}
	.st127{fill:#09890F;}
	.st128{fill:#A9CE4D;}
	.st129{fill:#FF9501;}
	.st130{fill:#AA1523;}
	.st131{fill:#006B52;}
	.st132{fill:#EEC200;}
	.st133{fill:#9F4641;}
	.st134{fill:url(#SVGID_00000163036767623530419710000014478319610821673883_);stroke:#FFFFFF;stroke-miterlimit:10;}
	.st135{fill:none;stroke:#FFFFFF;stroke-width:1.7883;stroke-miterlimit:10;}
	.st136{fill:none;stroke:#BFDADD;stroke-width:2;stroke-linecap:round;stroke-linejoin:round;stroke-miterlimit:10;}
	.st137{fill:none;stroke:#016D39;stroke-width:2;stroke-linecap:round;stroke-linejoin:round;stroke-miterlimit:10;}
	.st138{fill:none;stroke:#00BFAD;stroke-width:2;stroke-linecap:round;stroke-linejoin:round;stroke-miterlimit:10;}
	.st139{fill:#12162E;}
	.st140{fill:none;stroke:#12162E;stroke-miterlimit:10;}
	.st141{fill:#016D39;}
	.st142{fill:#083F24;}
	.st143{fill:#FF5635;}
	.st144{fill:#C63724;}
	.st145{fill:#FFBE00;}
	.st146{fill:#00BFAD;}
	.st147{fill:#D1D3D3;}
	.st148{fill:#9A4641;}
	.st149{fill:url(#SVGID_00000183248495254968777210000007097335431071751581_);}
	.st150{fill:url(#SVGID_00000047776224554596158900000014172060886732656062_);stroke:#FFFFFF;stroke-miterlimit:10;}
	.st151{fill:#F75D58;}
	.st152{fill:url(#SVGID_00000095315947708577087960000004629838273230870701_);}
	.st153{opacity:0.42;fill:#FFFFFF;}
	.st154{fill:#229200;}
	.st155{fill:#FF0000;}
	.st156{fill:#0C1F26;}
	.st157{fill:#E43724;}
	.st158{fill:#6B2422;}
	.st159{fill:#FBF1E5;}
	.st160{fill:#FAF8F0;}
	.st161{fill:#EEEEED;}
	.st162{fill:#DBDEDD;}
	.st163{fill:#A6453D;}
	.st164{fill:#E3E4E7;}
	.st165{fill:#D2301D;}
	.st166{fill:#E2D7D0;}
	.st167{fill:#FCF8EF;}
	.st168{fill:#C42C1E;}
	.st169{fill:#0C232B;}
	.st170{fill:#0D3B6E;}
	.st171{fill:#139AEC;}
	.st172{fill:#F52A3C;}
	.st173{fill:url(#SVGID_00000179642199007902473460000005855981786602303360_);}
	.st174{fill:#890924;}
	.st175{fill:url(#SVGID_00000145779002289017082040000011739614799067188144_);}
	.st176{fill-rule:evenodd;clip-rule:evenodd;fill:url(#SVGID_00000090994809383846518700000010017314843383802277_);}
	.st177{fill-rule:evenodd;clip-rule:evenodd;fill:#CE1515;}
	.st178{fill-rule:evenodd;clip-rule:evenodd;fill:#FFFBDD;}
	.st179{fill-rule:evenodd;clip-rule:evenodd;fill:#06542B;}
	.st180{fill-rule:evenodd;clip-rule:evenodd;fill:#AA1111;}
	.st181{fill:#005C01;}
	.st182{fill:#F5AB35;}
	.st183{fill-rule:evenodd;clip-rule:evenodd;fill:#215605;}
	.st184{fill:#215605;}
	.st185{fill-rule:evenodd;clip-rule:evenodd;fill:url(#SVGID_00000109739790763030647210000017210622534201790633_);}
	.st186{fill:url(#SVGID_00000029758598787828003350000006875648641821634221_);}
	.st187{fill:url(#SVGID_00000149341725613453160510000000229239594916309163_);}
	.st188{fill:url(#SVGID_00000053547449393089944310000001756157016970362810_);}
	.st189{fill:url(#SVGID_00000080886979152772513180000010932702832675780491_);}
	.st190{fill:url(#SVGID_00000072246493892141818270000010284862161089214622_);}
	.st191{fill:url(#SVGID_00000034062289934569264210000011785437163059569059_);}
	.st192{fill:url(#SVGID_00000065054758274332946930000004598967208046089873_);}
	.st193{fill:url(#SVGID_00000013880137409809096880000017363421601602976653_);}
	.st194{fill:url(#SVGID_00000023276996625844925350000003111161549875238789_);}
	.st195{fill:#B6FFFF;}
	.st196{fill:url(#SVGID_00000119087713598315101250000010730294508394633099_);}
	.st197{fill:url(#SVGID_00000105421931305776574400000008254482147667429789_);}
	.st198{fill:url(#SVGID_00000095305654091375650760000005721154733851907734_);}
	.st199{fill:url(#SVGID_00000034074981785418930860000015825305366864651420_);}
	.st200{fill:url(#SVGID_00000169520975530218908300000001714422526294540967_);}
	.st201{fill:url(#SVGID_00000139286338433940184740000009203461077098589572_);}
	.st202{fill:url(#SVGID_00000064334021200698582700000012654343768942469821_);}
	.st203{fill:url(#SVGID_00000052067079457595981530000013575650113414634158_);}
	.st204{fill:url(#SVGID_00000031900122429255887790000016139202512904412076_);}
	.st205{fill:url(#SVGID_00000092433773026878087290000007755946286970790299_);}
	.st206{fill:url(#SVGID_00000094585500909767659530000017505612914244739510_);}
	.st207{fill:url(#SVGID_00000029048061211950447400000017565290176788200883_);}
	.st208{fill:url(#SVGID_00000122721790060229396060000003234070787539690368_);}
	.st209{fill:url(#SVGID_00000066485315185191141290000010895603742375602612_);}
	.st210{fill:url(#SVGID_00000147938444102714927210000000630122664825253508_);}
	.st211{fill:url(#SVGID_00000054978556567352952650000001544013533244745864_);}
	.st212{fill:#CE4A43;}
	.st213{fill:url(#SVGID_00000144296490278890374950000011017768018334095261_);}
	.st214{fill:#CE4A43;stroke:#FFFFFF;stroke-miterlimit:10;}
	.st215{fill:none;stroke:#CE4A43;stroke-miterlimit:10;}
</style>
<g>
	<path class="st11" d="M209.54,91.26c0.13-20.28-9.08-37.49-20.9-48.22c-5.24-4.76-11-8.25-16.71-10.19
		c-5.8-1.97-11.55-2.34-16.67-0.81c-5.93,1.77-10.95,6.05-14.14,13.32c-2.73-1.03-5.78-0.33-7.8,1.7c-2.88,2.88-2.88,7.55,0,10.43
		c2.89,2.88,7.56,2.88,10.44,0c2.8-2.8,2.89-7.32,0.19-10.23c3.82-3.37,8.32-4.14,12.05-2.97c3.44,1.08,6.06,3.73,7.1,7.26
		c1.5,5.14-0.26,12.41-8.05,20.65c-8.06,6.21-12.42,15.67-13.9,19.37c-4.82-2.27-10.6-3.27-15.02-3.33
		c8.79,4.02,4.22,20.3,17.45,22.62c-1.13,2.74-4.01,7.72-5.88,8.82c1.14-0.17,2.23-0.42,3.25-0.73c-2.37,5.51-1,12.99,3.02,17.33
		c-0.07-1.34-0.02-2.5,0.13-3.51c1.24,7.02,5.44,12.06,13.28,14.2c0-0.01-0.53-0.81-1.22-2.19c3.39,2.57,6.84,3.56,11.73,5.32
		c-0.63-1.03-1.17-2.13-1.65-3.28c3.78,3.38,5.73,5.67,8.79,11.09c3.05-5.42,5.01-7.71,8.79-11.09c-0.48,1.15-1.04,2.25-1.65,3.28
		c4.88-1.77,8.33-2.75,11.73-5.32c-0.7,1.38-1.22,2.18-1.22,2.19c7.84-2.15,12.04-7.18,13.28-14.2c0.15,1.02,0.19,2.17,0.13,3.51
		c4.02-4.34,5.39-11.82,3.02-17.33c1.03,0.31,2.11,0.56,3.24,0.73c-1.86-1.1-4.75-6.08-5.88-8.82c13.24-2.32,8.07-18.55,17.45-22.62
		C219.67,88.29,214.22,89.21,209.54,91.26z M141.73,55.48c-1.77,1.77-4.64,1.77-6.4,0c-0.12-0.12-0.23-0.25-0.34-0.39
		c-0.08-0.09-0.15-0.18-0.22-0.28c-0.06-0.1-0.11-0.19-0.17-0.29c-0.99-1.73-0.76-3.98,0.72-5.45c1.37-1.37,3.4-1.68,5.06-0.92
		c0.16,0.07,0.3,0.15,0.45,0.23c0.09,0.04,0.17,0.1,0.25,0.16c0.23,0.16,0.43,0.33,0.63,0.53C143.51,50.84,143.51,53.7,141.73,55.48
		z M190.41,50.2c0,1.24-1.01,2.24-2.24,2.24s-2.24-1-2.24-2.24c0-1.24,1-2.24,2.24-2.24S190.41,48.96,190.41,50.2z M185.16,45.78
		c0.78,0,1.41,0.64,1.41,1.41c0,0.78-0.63,1.42-1.41,1.42c-0.78,0-1.42-0.63-1.42-1.42C183.75,46.41,184.38,45.78,185.16,45.78z
		 M179.51,122.71c-0.76,1.06-2.14,2.13-4.64,2.15c-2.5-0.02-3.88-1.09-4.64-2.15c1.79-0.27,4.3-0.55,4.64-0.02
		C175.2,122.16,177.72,122.44,179.51,122.71z M201.7,95.98c-0.13-0.1-0.26-0.21-0.39-0.3c-0.19-0.16-0.39-0.3-0.6-0.45
		c-0.29-0.22-0.57-0.43-0.86-0.63c-0.23-0.17-0.47-0.33-0.7-0.49c-0.81-0.56-1.64-1.07-2.47-1.56c-0.26-0.16-0.51-0.3-0.77-0.44
		c-0.27-0.16-0.55-0.3-0.83-0.45c-0.45-0.24-0.9-0.47-1.36-0.7c-0.23-0.11-0.48-0.23-0.72-0.34c-1.28-0.6-2.57-1.13-3.89-1.59
		c-0.3-0.1-0.58-0.2-0.88-0.3c-0.58-0.2-1.17-0.37-1.76-0.54c-0.27-0.08-0.55-0.16-0.82-0.23c-0.43-0.11-0.85-0.22-1.28-0.31
		c-0.49-0.11-0.97-0.22-1.47-0.31c-0.94-0.18-1.87-0.33-2.82-0.44c-0.56-0.07-1.12-0.13-1.68-0.17c-0.3-0.03-0.61-0.05-0.9-0.07
		c-0.22-0.02-0.44-0.03-0.66-0.03c-1.9-0.1-3.79-0.06-5.67,0.1c-0.56,0.04-1.12,0.1-1.68,0.17c-0.29,0.03-0.58,0.08-0.87,0.12
		c-0.3,0.04-0.58,0.09-0.88,0.14c-1.17,0.19-2.35,0.44-3.51,0.74c-0.27,0.07-0.55,0.15-0.82,0.23c-0.14,0.03-0.28,0.08-0.43,0.12
		c-0.23,0.07-0.47,0.14-0.7,0.21c-1.47,0.45-2.92,0.99-4.35,1.61c-0.22,0.1-0.43,0.2-0.64,0.3c-0.6,0.27-1.19,0.56-1.78,0.86
		c-0.27,0.15-0.54,0.29-0.81,0.43c-0.54,0.29-1.08,0.6-1.61,0.92c-0.53,0.32-1.05,0.65-1.57,1c-0.26,0.17-0.52,0.35-0.77,0.53
		c-0.26,0.18-0.51,0.36-0.77,0.55c-0.25,0.18-0.5,0.37-0.76,0.57c-0.24,0.18-0.5,0.38-0.74,0.58c-0.07,0.06-0.14,0.11-0.2,0.17
		c-0.18,0.15-0.37,0.3-0.54,0.44c0.25,0.3,0.48,0.59,0.7,0.9c15.28-10.6,38.23-10.61,53.11,0c0.21-0.31,0.44-0.61,0.69-0.9
		C202.07,96.27,201.89,96.12,201.7,95.98z M171.01,75.32c0.02-0.29,0.05-0.56,0.1-0.83c0.03-0.19,0.06-0.38,0.1-0.57
		c0-0.02,0-0.03,0.01-0.05c0.04-0.2,0.1-0.4,0.15-0.6c0-0.01,0.01-0.02,0.01-0.03c1.57-5.44,7.32-7.63,6.23-16.95
		c-1.84-15.75-13.46-19.62-25.89-15.34c0.46-0.03,0.93-0.03,1.38-0.02h0.11c0.07,0.01,0.13,0.01,0.19,0.02
		c1.26,0.07,2.49,0.3,3.65,0.69c0.15,0.05,0.3,0.1,0.44,0.16c0.34,0.12,0.67,0.26,1,0.42c0.16,0.07,0.31,0.15,0.46,0.22
		c0.26,0.14,0.51,0.28,0.76,0.43c0.15,0.08,0.3,0.17,0.43,0.27c0.44,0.28,0.87,0.59,1.27,0.93c0.14,0.1,0.27,0.22,0.4,0.34
		c0.13,0.11,0.26,0.23,0.39,0.37c0.13,0.12,0.25,0.24,0.37,0.37c0.12,0.13,0.24,0.26,0.36,0.39c0.32,0.37,0.63,0.75,0.91,1.16
		c0.1,0.15,0.21,0.3,0.31,0.46c0.1,0.16,0.19,0.31,0.29,0.47c0.07,0.12,0.14,0.24,0.21,0.37c0.47,0.86,0.85,1.79,1.14,2.77
		c1.39,4.78,0.33,10.87-4.52,17.74c2.12-0.9,4.43-1.57,6.92-1.88c-4.49,2.37-18.21,8.75-24.57,26.3c0.34,0.21,0.68,0.43,1,0.66
		c0.03,0.02,0.05,0.04,0.08,0.06c0.32,0.23,0.64,0.47,0.95,0.72c7.78-6.34,17.56-9.7,27.48-10.06c-1.56-3.47-2.16-6.11-2.16-8.25
		C170.99,75.81,170.99,75.56,171.01,75.32z M206.68,89.36c-0.01-0.25-0.02-0.5-0.03-0.74c-0.01-0.41-0.03-0.81-0.05-1.22
		c0-0.05,0-0.11-0.01-0.17c-0.03-0.43-0.05-0.85-0.1-1.28c-0.01-0.26-0.03-0.53-0.06-0.79c-0.03-0.46-0.09-0.91-0.14-1.37
		c-0.06-0.53-0.13-1.06-0.2-1.59c-0.01-0.09-0.03-0.17-0.03-0.24c-0.05-0.35-0.1-0.7-0.16-1.04c-0.14-0.85-0.3-1.7-0.47-2.53
		c-0.09-0.45-0.18-0.9-0.29-1.34c-0.11-0.51-0.23-1.03-0.37-1.53c-0.17-0.66-0.34-1.3-0.53-1.96c-0.13-0.45-0.26-0.9-0.41-1.35
		c-0.15-0.49-0.3-0.96-0.47-1.44c-0.18-0.57-0.38-1.12-0.59-1.68c-0.19-0.51-0.38-1.02-0.59-1.51c-0.17-0.43-0.34-0.84-0.52-1.26
		c-0.07-0.18-0.15-0.37-0.23-0.55c-0.38-0.88-0.79-1.74-1.21-2.59c-0.23-0.48-0.48-0.95-0.72-1.41c-0.17-0.31-0.32-0.62-0.49-0.91
		c-0.29-0.51-0.57-1.03-0.87-1.53c-0.17-0.3-0.36-0.6-0.54-0.9c-0.16-0.26-0.32-0.52-0.49-0.78c-0.26-0.42-0.53-0.84-0.8-1.24
		c-0.02-0.03-0.03-0.04-0.04-0.07c-0.27-0.4-0.54-0.8-0.82-1.19c-0.27-0.38-0.54-0.77-0.81-1.14c-0.07-0.09-0.13-0.17-0.19-0.26
		c-0.06-0.07-0.11-0.15-0.17-0.22c0-0.01-0.01-0.03-0.02-0.03c-2.31-3.1-4.86-5.89-7.55-8.32c-0.99-0.9-2.01-1.76-3.04-2.56
		c0,0-0.01,0-0.01-0.01c-0.25-0.2-0.5-0.39-0.76-0.58c-0.32-0.23-0.64-0.47-0.97-0.7c-0.97-0.7-1.96-1.35-2.95-1.96
		c-0.79-0.49-1.59-0.94-2.39-1.36c-0.26-0.14-0.53-0.28-0.79-0.41c-0.27-0.14-0.54-0.27-0.81-0.39c-0.5-0.24-1.01-0.47-1.52-0.69
		c-0.04-0.02-0.1-0.03-0.14-0.06c-0.24-0.1-0.5-0.2-0.74-0.3c-0.27-0.1-0.53-0.21-0.8-0.3c-0.27-0.1-0.53-0.2-0.8-0.29
		c-5.25-1.78-10.41-2.13-14.94-0.78c-3.38,1.01-6.44,3-8.93,6.07c-0.08,0.09-0.12,0.14-0.12,0.14c14.94-7.12,30.18-3.53,32.36,15.11
		c0.37,3.17,0.03,5.56-0.64,7.51v0.01c-0.06,0.16-0.11,0.31-0.17,0.46c-0.23,0.62-0.5,1.19-0.8,1.73c-0.14,0.27-0.3,0.53-0.45,0.79
		c-0.17,0.26-0.33,0.53-0.5,0.78c-0.2,0.31-0.41,0.62-0.62,0.91c-0.31,0.44-0.63,0.89-0.92,1.32c-0.1,0.14-0.19,0.27-0.28,0.41
		c-0.3,0.44-0.59,0.9-0.84,1.37c-0.09,0.16-0.17,0.3-0.24,0.46c-0.16,0.31-0.3,0.63-0.43,0.97c-0.05,0.14-0.1,0.27-0.15,0.41
		c-0.14,0.42-0.25,0.86-0.32,1.32c-0.03,0.14-0.05,0.28-0.07,0.43c-0.03,0.18-0.04,0.37-0.06,0.57v0.04
		c-0.01,0.2-0.02,0.4-0.02,0.61c0,2.08,0.62,4.65,2.22,8.08c10.48,0.03,20.96,3.39,29.25,10.09c0.72-0.59,1.5-1.13,2.34-1.63
		C206.71,91.61,206.71,90.48,206.68,89.36z M188.17,47.95c1.24,0,2.24,1.01,2.24,2.24c0,1.24-1.01,2.24-2.24,2.24s-2.24-1-2.24-2.24
		C185.93,48.96,186.93,47.95,188.17,47.95z M185.16,45.78c0.78,0,1.41,0.64,1.41,1.41c0,0.78-0.63,1.42-1.41,1.42
		c-0.78,0-1.42-0.63-1.42-1.42C183.75,46.41,184.38,45.78,185.16,45.78z M170.76,123.35c1.72-0.24,3.8-0.42,4.1,0.06
		c0.31-0.47,2.38-0.3,4.1-0.06c0.21-0.21,0.39-0.42,0.54-0.64c-1.79-0.27-4.3-0.55-4.64-0.02c-0.34-0.52-2.85-0.25-4.64,0.02
		C170.38,122.93,170.56,123.14,170.76,123.35z M166.47,122.45c0.2-0.07,0.41-0.14,0.64-0.22c1.48,3.14,4.6,4.73,7.75,4.77
		c3.15-0.04,6.27-1.64,7.75-4.77c0.23,0.08,0.44,0.16,0.64,0.22c-2.74,3.57-5.57,5.38-8.39,5.44
		C172.04,127.83,169.22,126.02,166.47,122.45L166.47,122.45z M182.29,107.85c-0.03-0.1-0.05-0.21-0.1-0.31
		c-0.03-0.09-0.09-0.18-0.15-0.28c-0.07-0.11-0.15-0.22-0.25-0.33c-0.3-0.35-0.73-0.68-1.3-0.99c-4.08-2.29-10.43-1.15-12.29,0.98
		c-0.04,0.05-0.08,0.1-0.12,0.15c-0.03,0.05-0.07,0.1-0.1,0.15c-0.03,0.05-0.06,0.1-0.09,0.16c-0.14,0.25-0.22,0.52-0.22,0.79
		c0,0.13,0.02,0.27,0.06,0.4c0,0.04,0.02,0.09,0.03,0.13c0.06,0.17,0.16,0.35,0.28,0.52c0.07,0.1,0.14,0.18,0.23,0.27
		c0.05,0.06,0.11,0.12,0.18,0.18c0.05,0.05,0.11,0.1,0.17,0.15c0.17,0.14,0.35,0.26,0.54,0.39c0.1,0.05,0.19,0.11,0.3,0.17
		c0.47,0.26,1.02,0.49,1.62,0.68c0.15,0.04,0.3,0.09,0.45,0.13c0.27,0.07,0.53,0.14,0.81,0.19c0.16,0.03,0.31,0.06,0.47,0.09
		c0.18,0.03,0.37,0.05,0.55,0.08c0.06,0.01,0.12,0.02,0.18,0.03c0.17,0.02,0.34,0.03,0.51,0.04c0.04,0.01,0.09,0.01,0.13,0.01
		c0.14,0.02,0.28,0.02,0.43,0.03c0.05,0,0.1,0.01,0.16,0c0.11,0.01,0.23,0.01,0.35,0.01c1.87,0,3.79-0.37,5.38-1.26
		c1.23-0.68,1.84-1.45,1.84-2.23C182.33,108.06,182.32,107.95,182.29,107.85z M146.54,99.65c-0.36-0.57-1.17-1.7-2.65-2.97
		c-0.06-0.05-0.12-0.1-0.19-0.17c-0.34-0.28-0.71-0.57-1.13-0.85c-0.49-0.35-1.03-0.69-1.62-1.02c-0.2-0.11-0.4-0.23-0.61-0.33
		c-0.42-0.23-0.87-0.44-1.34-0.65c-0.23-0.11-0.48-0.22-0.72-0.31c-0.25-0.1-0.5-0.2-0.77-0.3c-0.26-0.1-0.53-0.2-0.81-0.29
		c-0.21-0.08-0.42-0.15-0.63-0.21c-0.17-0.05-0.34-0.1-0.51-0.15c-0.34-0.11-0.7-0.21-1.06-0.3c-0.2-0.05-0.4-0.1-0.61-0.15
		c-0.28-0.07-0.56-0.13-0.84-0.19c0.26,0.37,0.5,0.76,0.7,1.15c0.11,0.19,0.21,0.39,0.3,0.59c0.09,0.17,0.17,0.36,0.25,0.54
		c0.56,1.24,0.96,2.55,1.32,3.84c0.14,0.48,0.28,0.96,0.42,1.43c0.08,0.26,0.15,0.51,0.23,0.77c0.08,0.25,0.16,0.5,0.24,0.76
		c0.08,0.25,0.17,0.5,0.25,0.75c0.01,0.01,0.01,0.02,0.01,0.03c0.1,0.23,0.18,0.47,0.28,0.7c0.1,0.23,0.2,0.45,0.3,0.68
		c0,0.02,0.01,0.03,0.02,0.04c0.09,0.17,0.17,0.33,0.25,0.49c0.05,0.11,0.11,0.22,0.17,0.31c0.22,0.37,0.44,0.72,0.7,1.05
		c0.01,0.01,0.02,0.02,0.03,0.03c0.01,0.01,0.01,0.01,0.01,0.02s0,0.01,0,0.01c1.24,1.57,3.07,2.72,5.99,3.17
		c0,0,0.11-5.91-5.56-10.21c0,0,5.34,0.95,6.99,4.79c0.29-1.36,0.48-2.44,0.57-3.03C146.57,99.68,146.56,99.67,146.54,99.65z
		 M215.84,91.97c-0.21,0.04-0.41,0.1-0.61,0.15c-0.37,0.09-0.72,0.18-1.06,0.3c-0.17,0.04-0.34,0.1-0.51,0.15
		c-0.21,0.06-0.42,0.13-0.63,0.21c-0.28,0.09-0.55,0.18-0.81,0.29c-0.26,0.1-0.51,0.19-0.77,0.3c-0.24,0.1-0.49,0.2-0.72,0.31
		c-0.47,0.21-0.92,0.43-1.34,0.65c-0.21,0.1-0.41,0.22-0.61,0.33c-0.59,0.33-1.13,0.67-1.62,1.02c-0.42,0.29-0.79,0.57-1.13,0.85
		c-0.07,0.06-0.13,0.11-0.19,0.17c-1.49,1.26-2.3,2.39-2.65,2.97c-0.02,0.03-0.03,0.03-0.03,0.03c0.1,0.58,0.29,1.67,0.57,3.03
		c1.65-3.84,6.99-4.79,6.99-4.79c-5.68,4.31-5.56,10.21-5.56,10.21c2.92-0.45,4.75-1.61,5.99-3.17c0,0,0,0,0-0.01s0-0.01,0.01-0.02
		c0.02-0.01,0.03-0.02,0.03-0.03c0.26-0.33,0.49-0.69,0.7-1.05c0.06-0.1,0.12-0.2,0.17-0.31c0.09-0.16,0.17-0.32,0.25-0.49
		c0.01-0.02,0.02-0.03,0.02-0.04c0.1-0.23,0.21-0.45,0.3-0.68c0.1-0.23,0.18-0.46,0.28-0.7c0-0.01,0-0.02,0.01-0.03
		c0.09-0.25,0.17-0.5,0.25-0.75c0.09-0.25,0.17-0.5,0.24-0.76c0.09-0.26,0.16-0.51,0.23-0.77c0.14-0.47,0.28-0.95,0.42-1.43
		c0.37-1.3,0.77-2.6,1.32-3.84c0.08-0.18,0.17-0.37,0.25-0.54c0.1-0.2,0.19-0.4,0.3-0.59c0.21-0.39,0.44-0.77,0.7-1.15
		C216.39,91.84,216.11,91.9,215.84,91.97z M197.95,110.22c-0.11-0.21-0.23-0.42-0.33-0.63c-0.18-0.35-0.35-0.7-0.5-1.06
		c-0.12-0.28-0.24-0.57-0.35-0.85c-0.26-0.69-0.49-1.39-0.68-2.11c-0.08-0.28-0.15-0.56-0.21-0.84c-0.06-0.22-0.1-0.44-0.15-0.67
		c-0.14-0.72-0.25-1.47-0.34-2.23c-0.03-0.25-0.06-0.5-0.07-0.75c-0.03-0.25-0.04-0.5-0.05-0.76c-0.01-0.19-0.02-0.39-0.03-0.59
		c-0.01-0.28-0.02-0.55-0.02-0.83c0-0.26,0-0.51,0.01-0.77v-0.01c0-0.08,0.01-0.16,0.01-0.23c0.01-0.38,0.03-0.77,0.06-1.16
		c-0.58-0.33-1.17-0.64-1.77-0.94c0-0.01-0.01-0.01-0.01-0.01s-0.01-0.01-0.02-0.01c-1.7-0.86-3.47-1.59-5.28-2.19
		c0,0-0.01-0.01-0.02-0.01c-0.5-0.17-1-0.32-1.5-0.47c-0.1-0.03-0.18-0.05-0.27-0.08c-0.43-0.12-0.85-0.23-1.28-0.34
		c-0.2-0.05-0.39-0.1-0.59-0.15c-0.33-0.08-0.66-0.16-0.99-0.22c-0.15-0.04-0.3-0.07-0.45-0.1c-0.27-0.06-0.54-0.11-0.81-0.16
		c-0.48-0.09-0.96-0.17-1.44-0.23c-0.31-0.05-0.63-0.1-0.94-0.13c-0.43-0.06-0.86-0.1-1.3-0.14c-0.26-0.03-0.52-0.05-0.79-0.07
		c-0.38-0.03-0.77-0.05-1.17-0.07c-0.06-0.01-0.12-0.01-0.18-0.01c-0.55-0.03-1.1-0.04-1.65-0.04c-0.55,0-1.1,0.02-1.65,0.04
		c-0.06,0-0.12,0-0.18,0.01c-0.39,0.02-0.78,0.04-1.17,0.07c-0.27,0.02-0.53,0.04-0.79,0.07c-0.43,0.03-0.86,0.08-1.3,0.14
		c-0.31,0.03-0.63,0.08-0.94,0.13c-0.49,0.07-0.97,0.15-1.44,0.23c-0.27,0.04-0.54,0.1-0.81,0.16c-0.16,0.03-0.3,0.05-0.45,0.1
		c-0.33,0.06-0.66,0.14-0.99,0.22c-0.2,0.04-0.39,0.1-0.59,0.15c-0.43,0.1-0.85,0.22-1.28,0.34c-0.09,0.03-0.17,0.05-0.27,0.08
		c-0.5,0.15-1,0.3-1.5,0.47c-0.01,0-0.02,0.01-0.02,0.01c-1.81,0.6-3.58,1.33-5.28,2.19c-0.01,0-0.02,0.01-0.02,0.01v0.01
		c-0.07,0.03-0.14,0.06-0.2,0.1c-0.53,0.27-1.05,0.55-1.57,0.84c0.03,0.39,0.05,0.77,0.06,1.16c0,0.08,0.01,0.16,0.01,0.23v0.01
		c0.01,0.26,0.01,0.51,0.01,0.77c0,0.28-0.01,0.55-0.02,0.83c-0.01,0.2-0.02,0.4-0.03,0.59c-0.01,0.25-0.03,0.5-0.05,0.76
		c-0.01,0.25-0.03,0.5-0.07,0.75c-0.09,0.76-0.2,1.5-0.34,2.23c-0.04,0.23-0.09,0.45-0.15,0.67c-0.06,0.28-0.13,0.56-0.21,0.84
		c-0.19,0.72-0.42,1.43-0.68,2.11c-0.1,0.29-0.23,0.57-0.35,0.85c-0.15,0.36-0.31,0.71-0.5,1.06c-0.1,0.22-0.22,0.43-0.33,0.63
		c-0.35,0.63-0.72,1.24-1.14,1.83c1.65-0.3,3.29-0.43,4.88-0.57c3.48-0.3,6.78-0.57,9.36-2.59c-0.02-0.1-0.03-0.2-0.03-0.3
		c-0.01-0.1-0.02-0.2-0.02-0.3v-0.01c-0.03-1.32,0.52-2.51,1.5-3.51c0.5-0.5,1.1-0.95,1.78-1.33c1.76-0.98,4.14-1.59,6.75-1.62
		c2.61,0.03,4.99,0.64,6.75,1.62c0.65,0.37,1.24,0.79,1.71,1.26c1.03,1.01,1.62,2.23,1.57,3.58v0.05c0,0,0,0,0,0.01
		c0,0.08-0.01,0.16-0.02,0.23c-0.01,0.1-0.02,0.2-0.03,0.3c2.58,2.03,5.88,2.3,9.36,2.59c1.59,0.13,3.23,0.27,4.88,0.57
		C198.67,111.46,198.3,110.85,197.95,110.22z M195.25,97.88c-0.02-0.03-0.04-0.07-0.07-0.1c-0.1-0.17-0.22-0.35-0.34-0.5
		c-0.13-0.18-0.26-0.36-0.4-0.52c-0.18-0.23-0.37-0.44-0.56-0.64c-0.07-0.08-0.15-0.15-0.22-0.22c-0.04-0.05-0.1-0.1-0.15-0.14
		c-1.63-1.53-3.49-2.17-5.28-2.19c-0.05-0.01-0.1-0.01-0.16-0.01c-0.09,0-0.21,0-0.36,0.01c-4.41,0.19-8.16,3.95-6.53,6.83
		c5.98-3.52,7.65-2.86,12.99-2.37c0.09,0.01,0.17,0.02,0.27,0.03c0.25,0.03,0.51,0.04,0.79,0.07c0.05,0,0.11,0.01,0.17,0.01
		C195.36,98.05,195.31,97.97,195.25,97.88z M187.78,98.37c-2.49,0-4.5,2.53-4.5,5.65c0,0.23,0.01,0.47,0.04,0.7
		c0.13,1.46,0.71,2.74,1.57,3.64c0,0,0,0,0,0.01c0.78,0.82,1.78,1.3,2.88,1.3h0.06c0.14,0,0.27-0.01,0.4-0.03
		c2.27-0.3,4.04-2.69,4.04-5.62C192.28,100.9,190.27,98.37,187.78,98.37z M161.89,98.37c-2.49,0-4.5,2.53-4.5,5.65
		c0,2.33,1.12,4.33,2.73,5.19c0.54,0.3,1.14,0.45,1.77,0.45c0.14,0,0.28-0.01,0.42-0.03c0.13-0.01,0.26-0.03,0.38-0.07
		c0.01,0.01,0.02,0,0.02,0c0.1-0.02,0.19-0.04,0.28-0.08c0.05-0.01,0.11-0.03,0.17-0.05c0.08-0.03,0.16-0.05,0.23-0.1
		c0.11-0.04,0.22-0.1,0.32-0.16c0.09-0.04,0.17-0.1,0.25-0.15c0.05-0.03,0.1-0.07,0.16-0.1c0.1-0.07,0.2-0.15,0.3-0.23
		c0.12-0.1,0.23-0.21,0.35-0.32c0.03-0.03,0.05-0.05,0.08-0.09c0.81-0.87,1.37-2.11,1.5-3.51c0.03-0.25,0.05-0.5,0.05-0.77
		C166.38,100.9,164.37,98.37,161.89,98.37z M162,93.57c-0.15-0.01-0.27-0.01-0.36-0.01c-0.05,0-0.1,0-0.16,0.01
		c-1.79,0.03-3.65,0.66-5.28,2.19c-0.01,0-0.02,0.02-0.02,0.02c-0.04,0.03-0.09,0.08-0.13,0.12c-0.07,0.07-0.15,0.14-0.22,0.22
		c-0.19,0.19-0.37,0.41-0.56,0.64c-0.14,0.17-0.27,0.34-0.4,0.52c-0.12,0.16-0.23,0.33-0.34,0.5c-0.03,0.03-0.05,0.06-0.07,0.1
		c-0.05,0.09-0.1,0.17-0.16,0.25c0.05,0,0.11-0.01,0.17-0.01c0.28-0.03,0.54-0.04,0.79-0.07c0.1-0.01,0.18-0.02,0.27-0.03
		c5.33-0.49,7-1.15,12.99,2.37C170.16,97.52,166.41,93.77,162,93.57z M204.43,113.75c-2.55-5.13-3.76-11.66-4.07-13.57
		c-0.74-0.6-1.5-1.17-2.29-1.71v0.48c0,0.44,0.01,0.88,0.03,1.3c0.02,0.43,0.05,0.84,0.1,1.24c0,0.06,0.01,0.11,0.02,0.17
		c0.03,0.28,0.06,0.55,0.1,0.82c0.02,0.12,0.03,0.25,0.06,0.37c0,0.03,0,0.04,0.01,0.06c0.04,0.29,0.1,0.57,0.16,0.84
		c0.06,0.31,0.13,0.62,0.22,0.91c0.03,0.13,0.07,0.26,0.1,0.39c0.07,0.23,0.14,0.47,0.21,0.7c0.02,0.07,0.04,0.14,0.07,0.21
		c0.1,0.28,0.19,0.55,0.3,0.82c0,0.02,0.01,0.03,0.02,0.05c0.24,0.62,0.51,1.19,0.8,1.74c0.02,0.03,0.03,0.06,0.04,0.09
		c0.28,0.52,0.57,1.01,0.88,1.46c0.17,0.24,0.33,0.48,0.5,0.7c0.15,0.2,0.3,0.38,0.43,0.57c0.03,0.03,0.06,0.07,0.08,0.1
		c0.17,0.19,0.33,0.38,0.49,0.56l0.04,0.04c0.17,0.19,0.36,0.38,0.53,0.57c0.1,0.1,0.2,0.19,0.3,0.29c0.09,0.08,0.17,0.17,0.26,0.24
		c-0.01-0.01-0.03-0.03-0.04-0.04C203.99,113.36,204.21,113.56,204.43,113.75z M183.52,111.44c-0.01,0.01-0.02,0.02-0.03,0.03
		c-0.02,0.02-0.04,0.04-0.07,0.08c-0.07,0.07-0.15,0.14-0.23,0.22c-0.01,0-0.02,0.01-0.03,0.03c-0.22,0.2-0.45,0.38-0.7,0.57
		c-0.84,0.58-1.84,1.05-2.94,1.41c-0.29,0.1-0.59,0.18-0.9,0.26c-0.91,0.22-1.88,0.37-2.86,0.43c1.24,2.01,4.39,3.87,6.72,5.04
		c-0.34-0.66-0.57-1.39-0.69-2.21c2.07,3.45,7.69,4.4,11.66,4.63c-0.65-0.89-1.07-2.04-1.12-3.63c0.97,3.86,11.54,3.34,14.54,8.43
		c0.01-0.07,0.01-0.12,0.01-0.18C207.67,108.86,192.9,118.23,183.52,111.44z M203.26,127.65c-4.44-4.32-10.26-1.78-16.23-4.31
		c-1.41,2.24-5.91,8.51-12.16,8.39c-6.25,0.11-10.75-6.15-12.16-8.39c-5.97,2.52-11.79-0.02-16.23,4.31
		c-0.12,1.39-0.33,6.92,3.21,11.87c0.25,0.36,0.52,0.7,0.82,1.05c0.11,0.13,0.23,0.27,0.36,0.4c0.25,0.29,0.52,0.57,0.82,0.85
		c-1.23-3.8-1.05-8.78,1.1-11.74c0.01,0,0.01-0.01,0.01-0.01c-0.52,7.97,1.8,11.73,9.52,15.15c-1.23-5.04-1.17-11.18,1.99-16
		c-1.71,9.04-0.51,11.6,2.2,14.22c0.25,0.23,0.51,0.48,0.78,0.72c0.27,0.24,0.55,0.5,0.84,0.76c0.3,0.25,0.59,0.52,0.9,0.81
		c1.72,1.57,3.73,3.59,5.85,6.89c2.11-3.3,4.12-5.32,5.85-6.89c0.31-0.29,0.61-0.56,0.9-0.81c0.3-0.26,0.57-0.51,0.84-0.76
		c0.27-0.24,0.53-0.49,0.78-0.72c2.71-2.62,3.91-5.18,2.2-14.22c3.16,4.82,3.22,10.96,1.98,16c7.72-3.43,10.04-7.18,9.52-15.15
		c0,0,0,0.01,0.01,0.01c2.15,2.97,2.32,7.94,1.1,11.74c0.3-0.29,0.58-0.57,0.84-0.87c0.12-0.14,0.24-0.28,0.36-0.42
		c0.29-0.34,0.55-0.68,0.79-1.02v-0.01C203.59,134.56,203.37,129.03,203.26,127.65z M171.11,114.03c-0.3-0.08-0.61-0.17-0.9-0.26
		c-1.1-0.36-2.11-0.83-2.94-1.41c-0.25-0.18-0.49-0.37-0.7-0.57c-0.02-0.02-0.03-0.03-0.03-0.03c-0.08-0.08-0.16-0.15-0.23-0.22
		c-0.03-0.03-0.05-0.06-0.07-0.08c-0.01-0.01-0.02-0.02-0.03-0.03c-9.38,6.78-24.15-2.58-23.36,15.09c0,0.06,0,0.11,0.01,0.18
		c2.99-5.09,13.57-4.57,14.54-8.43c-0.05,1.59-0.47,2.74-1.12,3.63c3.97-0.23,9.59-1.17,11.66-4.63c-0.11,0.82-0.35,1.55-0.69,2.21
		c2.33-1.17,5.49-3.03,6.72-5.04C172.99,114.39,172.02,114.24,171.11,114.03z M193.12,96.85c-3.89-3.91-10.7-0.43-11.26,1.81
		c4.82-3.05,8.92-2.2,11.27-1.8C193.14,96.85,193.13,96.85,193.12,96.85z M156.61,96.85c-0.01,0.01-0.02,0.01-0.02,0.01
		c2.36-0.4,6.45-1.25,11.27,1.8C167.31,96.42,160.5,92.94,156.61,96.85z M151.65,98.46c-0.77,0.54-1.54,1.11-2.28,1.71
		c-0.31,1.91-1.52,8.44-4.07,13.57c0.22-0.18,0.44-0.39,0.66-0.59c-0.01,0.01-0.03,0.03-0.04,0.04c0.09-0.08,0.17-0.17,0.26-0.24
		c0.1-0.1,0.19-0.19,0.3-0.29c0.17-0.18,0.36-0.37,0.53-0.57c0.01-0.01,0.03-0.03,0.04-0.04c0.16-0.18,0.32-0.37,0.49-0.57
		c0.11-0.15,0.23-0.29,0.36-0.44c0.04-0.07,0.1-0.14,0.16-0.21c0.17-0.23,0.33-0.46,0.5-0.7c0.3-0.46,0.6-0.95,0.88-1.46
		c0.01-0.03,0.03-0.06,0.04-0.09c0.3-0.55,0.56-1.13,0.8-1.75c0.01-0.02,0.01-0.03,0.02-0.03c0.11-0.3,0.23-0.61,0.33-0.92
		c0.01-0.03,0.02-0.07,0.03-0.1c0.07-0.23,0.15-0.48,0.22-0.72c0.03-0.12,0.07-0.24,0.1-0.37c0.07-0.29,0.14-0.57,0.21-0.88
		c0.06-0.29,0.12-0.58,0.17-0.88c0.01-0.02,0.01-0.04,0.01-0.06c0.03-0.13,0.04-0.25,0.06-0.38c0.04-0.26,0.08-0.53,0.1-0.8
		c0.01-0.05,0.02-0.11,0.02-0.17c0.04-0.4,0.08-0.82,0.1-1.24c0.03-0.42,0.03-0.85,0.03-1.3C151.66,98.81,151.65,98.64,151.65,98.46
		z M188.98,98.83c-0.7,0-1.28,0.96-1.28,2.13c0,1.18,0.57,2.14,1.28,2.14c0.71,0,1.29-0.96,1.29-2.14
		C190.27,99.79,189.7,98.83,188.98,98.83z M162.99,98.91c-0.71,0-1.29,0.96-1.29,2.13c0,1.18,0.57,2.13,1.29,2.13
		c0.7,0,1.28-0.95,1.28-2.13C164.27,99.86,163.7,98.91,162.99,98.91z M199.47,120.51c-5.67-1.98-6.46-4.09-6.46-4.09
		c-2.47,1.86-1.11,4.41-1.11,4.41c-6.78-1.17-9.25-5.79-9.25-5.79c-1.58,1.07-1.63,2.14-1.63,2.14c-0.92-1.9,1.84-5.02,2.4-5.63
		c0.03-0.03,0.05-0.06,0.07-0.08c-0.1,0.1-0.19,0.19-0.3,0.3c-0.01,0-0.02,0.01-0.03,0.03c-0.22,0.2-0.45,0.38-0.7,0.57
		c-0.84,0.58-1.84,1.05-2.94,1.41c-0.29,0.1-0.59,0.18-0.9,0.26c-0.91,0.22-1.88,0.37-2.86,0.43c1.24,2.01,4.39,3.87,6.72,5.04
		c-0.34-0.66-0.57-1.39-0.69-2.21c2.07,3.45,7.69,4.4,11.66,4.63c-0.65-0.89-1.07-2.04-1.12-3.63c0.97,3.86,11.54,3.34,14.54,8.43
		c0.01-0.07,0.01-0.12,0.01-0.18C205.63,123.83,202.94,121.71,199.47,120.51z M199.93,106.34c0.24,0.46,1.19,1.19,1.31,1.29
		c-1.17-2.55-0.89-7.45-0.89-7.45c-0.74-0.6-1.5-1.17-2.29-1.71v0.48c0,0.44,0.01,0.88,0.03,1.3c0.02,0.43,0.05,0.84,0.1,1.24
		c0,0.06,0.01,0.11,0.02,0.17c0.03,0.28,0.06,0.55,0.1,0.82c0.02,0.12,0.03,0.25,0.06,0.37c0,0.03,0,0.04,0.01,0.06
		c0.04,0.29,0.1,0.57,0.16,0.84c0.06,0.31,0.13,0.62,0.22,0.91c0.03,0.13,0.07,0.26,0.1,0.39c0.07,0.23,0.14,0.47,0.21,0.7
		c0.02,0.07,0.04,0.14,0.07,0.21c0.1,0.28,0.19,0.55,0.3,0.82c0,0.02,0.01,0.03,0.02,0.05c0.24,0.61,0.51,1.19,0.8,1.74
		c0.02,0.03,0.03,0.06,0.04,0.09c0.28,0.52,0.57,1.01,0.88,1.46c0.17,0.24,0.33,0.48,0.5,0.7c0.15,0.2,0.3,0.38,0.43,0.57
		c0.03,0.03,0.06,0.07,0.08,0.1c0.17,0.19,0.33,0.38,0.49,0.56l0.04,0.04c0.17,0.19,0.36,0.38,0.53,0.57c0.1,0.1,0.2,0.19,0.3,0.29
		c0.09,0.08,0.17,0.17,0.26,0.24C201.93,111.26,200.14,106.88,199.93,106.34z M196.96,130.08c2.15,2.97,2.32,7.94,1.1,11.74
		c0.3-0.29,0.58-0.57,0.84-0.87c0.12-0.14,0.24-0.28,0.36-0.42c0.29-0.34,0.55-0.68,0.79-1.02v-0.01
		C199.98,132.87,197.13,130.24,196.96,130.08z M196.95,130.07c-0.06,4.62-5.8,7.25-5.8,7.25c-0.63-5.16-5.71-8.09-5.71-8.09
		c3.16,4.82,3.22,10.96,1.98,16C195.15,141.8,197.46,138.04,196.95,130.07z M185.44,129.23c0,0-0.29,8.7-6.13,10.88
		c0,0,2.23-2.69,2.78-7.85c0,0-2.66,3.85-7.23,5.16v15.2c2.11-3.3,4.12-5.32,5.85-6.89c0.31-0.29,0.61-0.56,0.9-0.81
		c0.3-0.26,0.57-0.51,0.84-0.76c0.27-0.24,0.53-0.49,0.78-0.72C185.96,140.83,187.16,138.27,185.44,129.23z M151.65,98.46
		c-0.77,0.54-1.54,1.11-2.28,1.71c0,0,0.28,4.91-0.89,7.45c0.12-0.1,1.07-0.83,1.31-1.29c-0.21,0.54-2,4.91-3.88,6.85
		c0.09-0.08,0.17-0.17,0.26-0.24c0.1-0.1,0.19-0.19,0.3-0.29c0.17-0.18,0.36-0.37,0.53-0.57c0.01-0.01,0.03-0.03,0.04-0.04
		c0.16-0.18,0.32-0.37,0.49-0.57c0.11-0.15,0.23-0.29,0.36-0.44c0.04-0.07,0.1-0.14,0.16-0.21c0.17-0.23,0.33-0.46,0.5-0.7
		c0.3-0.46,0.6-0.95,0.88-1.46c0.01-0.03,0.03-0.06,0.04-0.09c0.29-0.55,0.56-1.13,0.8-1.75c0.01-0.02,0.01-0.03,0.02-0.03
		c0.11-0.3,0.23-0.61,0.33-0.92c0.01-0.03,0.02-0.07,0.03-0.1c0.07-0.23,0.15-0.48,0.22-0.72c0.03-0.12,0.07-0.24,0.1-0.37
		c0.07-0.29,0.14-0.57,0.21-0.88c0.06-0.29,0.12-0.58,0.17-0.88c0.01-0.02,0.01-0.04,0.01-0.06c0.03-0.13,0.04-0.25,0.06-0.38
		c0.04-0.26,0.08-0.53,0.1-0.8c0.01-0.05,0.02-0.11,0.02-0.17c0.04-0.4,0.08-0.82,0.1-1.24c0.03-0.42,0.03-0.85,0.03-1.3
		C151.66,98.81,151.65,98.64,151.65,98.46z M171.11,114.03c-0.3-0.08-0.6-0.17-0.9-0.26c-1.1-0.36-2.11-0.83-2.94-1.41
		c-0.25-0.18-0.49-0.37-0.7-0.57c-0.02-0.02-0.03-0.03-0.03-0.03c-0.1-0.1-0.2-0.2-0.3-0.3c0.02,0.02,0.04,0.04,0.07,0.08
		c0.57,0.61,3.32,3.73,2.4,5.63c0,0-0.04-1.07-1.63-2.14c0,0-2.47,4.62-9.25,5.79c0,0,1.36-2.55-1.11-4.41c0,0-0.79,2.11-6.46,4.09
		c-3.46,1.21-6.16,3.32-7.4,6.03c0,0.06,0,0.11,0.01,0.18c2.99-5.09,13.57-4.57,14.54-8.43c-0.05,1.59-0.47,2.74-1.12,3.63
		c3.97-0.23,9.59-1.17,11.66-4.63c-0.11,0.82-0.35,1.55-0.69,2.21c2.33-1.17,5.49-3.03,6.72-5.04
		C172.99,114.39,172.02,114.24,171.11,114.03z M152.77,130.08c-0.17,0.16-3.02,2.8-3.09,9.44c0.25,0.36,0.52,0.7,0.82,1.05
		c0.11,0.13,0.23,0.27,0.36,0.4c0.25,0.29,0.52,0.57,0.82,0.85C150.45,138.02,150.62,133.05,152.77,130.08z M164.29,129.23
		c0,0-5.07,2.93-5.71,8.09c0,0-5.74-2.63-5.8-7.25c-0.52,7.97,1.8,11.73,9.52,15.15C161.07,140.19,161.12,134.05,164.29,129.23z
		 M167.64,132.27c0.56,5.16,2.78,7.85,2.78,7.85c-5.85-2.18-6.13-10.88-6.13-10.88c-1.71,9.04-0.51,11.6,2.2,14.22
		c0.25,0.23,0.51,0.48,0.78,0.72c0.27,0.24,0.55,0.5,0.84,0.76c0.3,0.25,0.59,0.52,0.9,0.81c1.72,1.57,3.73,3.59,5.85,6.89v-15.2
		C170.3,136.12,167.64,132.27,167.64,132.27z M193.12,96.85c-0.31-0.1-4.01-1.33-8.25-0.1c0,0-0.11-0.22,0.39-0.63
		c0,0-2.31,1.01-3.39,2.55c4.82-3.05,8.92-2.2,11.27-1.8C193.14,96.85,193.13,96.85,193.12,96.85z M164.47,96.11
		c0.5,0.42,0.39,0.63,0.39,0.63c-4.24-1.23-7.94,0-8.25,0.1c-0.01,0.01-0.02,0.01-0.02,0.01c2.36-0.4,6.45-1.25,11.27,1.8
		C166.78,97.12,164.47,96.11,164.47,96.11z M161.61,52.43c-15.53,4.94-27.32,18.23-30.11,34.6c3,0.45,6.03,1.24,8.76,2.35
		c3.02-6.92,7.75-13.82,13.67-18.41C158.22,66.39,163.25,59.11,161.61,52.43z M131.6,100.7c-0.17-0.51-0.33-1.04-0.5-1.56
		c0.7,6.77,2.95,13.08,6.36,18.59c0.77-0.78,1.64-2.1,2.04-2.73c0.6-0.95,1.19-1.97,1.71-3.01
		C135.82,110.31,133.41,106.16,131.6,100.7z M218.19,100.7c-0.81,2.57-1.77,5.12-3.47,7.25c-1.6,2.01-3.6,3.31-5.94,4.04
		c0.52,1.04,1.12,2.07,1.72,3.02c0.41,0.63,1.28,1.95,2.04,2.73c3.6-5.8,5.9-12.51,6.46-19.7
		C218.72,98.93,218.46,99.83,218.19,100.7z M204.51,61.68c4.07,8.44,6.37,17.74,6.65,27.17c2.34-0.84,4.85-1.44,7.35-1.82
		C216.8,77.03,211.74,68.18,204.51,61.68z M143.64,92.92c0.35,0.22,0.68,0.43,1,0.66c0.03,0.02,0.05,0.04,0.08,0.06
		c0.1,0.07,0.2,0.14,0.3,0.21c0,0,8.14-18.95,23.2-27.24C163.72,68.98,150,75.37,143.64,92.92z M182.92,42
		c-0.32-0.23-0.64-0.47-0.97-0.7c-0.97-0.7-1.96-1.35-2.95-1.96c-0.79-0.49-1.59-0.94-2.39-1.36c-0.26-0.14-0.53-0.28-0.79-0.41
		c-0.27-0.14-0.54-0.27-0.81-0.39c-0.5-0.24-1.01-0.47-1.52-0.69c-0.04-0.02-0.1-0.03-0.14-0.06c-0.24-0.1-0.5-0.2-0.74-0.3
		c-0.27-0.1-0.53-0.21-0.8-0.3c-0.27-0.1-0.53-0.2-0.8-0.29c-5.25-1.78-10.41-2.13-14.94-0.78c-3.38,1.01-6.44,3-8.93,6.07
		c1.3-1.37,12.87-12.42,36.54,1.75C183.42,42.38,183.17,42.19,182.92,42z M168.21,66.62l-3.38-0.55c0,0,11.32-24.88-11.61-25.14
		h-0.04c0.08,0.01,0.16,0.01,0.23,0.02c1.26,0.07,2.49,0.3,3.65,0.69c0.15,0.05,0.3,0.1,0.44,0.16c0.34,0.12,0.67,0.26,1,0.42
		c0.16,0.07,0.3,0.15,0.46,0.22c0.26,0.14,0.51,0.28,0.76,0.43c0.15,0.09,0.3,0.17,0.43,0.27c0.44,0.28,0.87,0.59,1.27,0.93
		c0.14,0.11,0.27,0.23,0.4,0.34c0.14,0.12,0.26,0.23,0.39,0.37c0.13,0.12,0.25,0.24,0.37,0.37c0.12,0.12,0.24,0.25,0.36,0.39
		c0.32,0.37,0.63,0.75,0.91,1.16c0.11,0.15,0.22,0.3,0.31,0.46c0.1,0.16,0.2,0.31,0.29,0.47c0.08,0.12,0.14,0.24,0.21,0.37
		c0.47,0.86,0.85,1.79,1.14,2.77c1.39,4.78,0.33,10.87-4.52,17.74C163.41,67.59,165.71,66.93,168.21,66.62z M170.99,76.06
		c0-0.26,0.01-0.5,0.03-0.75c0.02-0.29,0.05-0.56,0.1-0.83c0.03-0.19,0.06-0.38,0.1-0.57c0-0.02,0-0.03,0.01-0.05
		c0.04-0.2,0.1-0.4,0.15-0.6c0-0.01,0.01-0.02,0.01-0.03c-2.96,5.31-26.37,20.62-26.37,20.62c0.23,0.17,0.44,0.34,0.65,0.51
		c7.78-6.34,17.56-9.7,27.48-10.06C171.59,80.84,170.99,78.2,170.99,76.06z M206.68,89.36c-0.01-0.25-0.02-0.5-0.03-0.74
		c-0.01-0.41-0.03-0.81-0.05-1.22c0-0.05,0-0.11-0.01-0.17c-0.03-0.43-0.05-0.85-0.1-1.28c-0.01-0.26-0.03-0.53-0.06-0.79
		c-0.03-0.46-0.09-0.91-0.14-1.37c-0.06-0.53-0.13-1.06-0.2-1.59c-0.01-0.09-0.03-0.17-0.03-0.24c-0.05-0.35-0.1-0.7-0.16-1.04
		c-0.14-0.85-0.3-1.7-0.47-2.53c-0.09-0.45-0.18-0.9-0.29-1.34c-0.11-0.51-0.23-1.03-0.37-1.53c-0.17-0.66-0.34-1.3-0.53-1.96
		c-0.13-0.45-0.26-0.9-0.41-1.35c-0.15-0.49-0.3-0.96-0.47-1.44c-0.18-0.57-0.38-1.12-0.59-1.68c-0.19-0.51-0.38-1.02-0.59-1.51
		c-0.17-0.43-0.34-0.84-0.52-1.26c-0.07-0.18-0.15-0.37-0.23-0.55c-0.38-0.88-0.79-1.74-1.21-2.59c-0.23-0.48-0.48-0.95-0.72-1.41
		c-0.17-0.31-0.32-0.62-0.49-0.91c-0.29-0.51-0.57-1.03-0.87-1.53c-0.17-0.3-0.36-0.6-0.54-0.9c-0.16-0.26-0.32-0.52-0.49-0.78
		c-0.26-0.42-0.53-0.84-0.8-1.24c-0.02-0.03-0.03-0.04-0.04-0.07c-0.27-0.4-0.54-0.8-0.82-1.19c-0.27-0.38-0.54-0.77-0.81-1.14
		c-0.07-0.09-0.13-0.17-0.19-0.26c-0.07-0.09-0.13-0.17-0.19-0.25c0.01,0.01,0.02,0.03,0.02,0.03
		c13.19,20.61-14.4,36.83-15.55,10.09c-0.06,0.16-0.11,0.31-0.17,0.46c-0.23,0.62-0.5,1.19-0.8,1.73c-0.15,0.27-0.3,0.53-0.45,0.79
		c-0.17,0.26-0.33,0.53-0.5,0.78c-0.2,0.31-0.41,0.62-0.62,0.91c-0.31,0.44-0.63,0.89-0.92,1.32c-0.1,0.14-0.19,0.27-0.28,0.41
		c-0.3,0.44-0.59,0.9-0.84,1.37c-0.09,0.16-0.17,0.3-0.24,0.46c-0.16,0.31-0.3,0.63-0.43,0.97c-0.05,0.14-0.1,0.27-0.15,0.41
		c-0.14,0.42-0.25,0.86-0.32,1.32c-0.03,0.14-0.05,0.28-0.07,0.43c-0.03,0.18-0.04,0.37-0.06,0.57v0.04
		c-0.01,0.2-0.02,0.4-0.02,0.61c0,2.08,0.62,4.65,2.22,8.08c10.48,0.03,20.96,3.39,29.25,10.09c0.72-0.59,1.5-1.13,2.34-1.63
		C206.71,91.61,206.71,90.48,206.68,89.36z M201.31,95.68c-0.19-0.16-0.39-0.3-0.6-0.45c-0.29-0.22-0.57-0.43-0.86-0.63
		c-0.23-0.17-0.47-0.33-0.7-0.49c-0.81-0.56-1.64-1.07-2.47-1.56c-0.26-0.16-0.51-0.3-0.77-0.44c-0.27-0.16-0.55-0.3-0.83-0.45
		c-0.45-0.24-0.9-0.47-1.36-0.7c-0.23-0.11-0.48-0.23-0.72-0.34c-1.28-0.6-2.57-1.13-3.89-1.59c-0.3-0.1-0.58-0.2-0.88-0.3
		c-0.58-0.2-1.17-0.37-1.76-0.54c-0.27-0.08-0.55-0.16-0.82-0.23c-0.43-0.11-0.85-0.22-1.28-0.31c-0.49-0.11-0.98-0.22-1.47-0.31
		c-0.94-0.18-1.87-0.33-2.82-0.44c-0.56-0.07-1.12-0.13-1.68-0.17c-0.3-0.03-0.61-0.05-0.9-0.07c-0.22-0.02-0.44-0.03-0.66-0.03
		c-1.9-0.1-3.79-0.06-5.67,0.1c-0.57,0.04-1.12,0.1-1.68,0.17c-0.29,0.03-0.58,0.08-0.87,0.12c-0.3,0.04-0.58,0.09-0.88,0.14
		c-1.17,0.19-2.35,0.44-3.51,0.74c-0.27,0.07-0.55,0.15-0.82,0.23c-0.14,0.03-0.28,0.08-0.43,0.12c-0.23,0.07-0.47,0.14-0.7,0.21
		c-1.47,0.45-2.92,0.99-4.35,1.61c-0.22,0.1-0.43,0.2-0.64,0.3c-0.6,0.27-1.19,0.56-1.78,0.86c-0.27,0.15-0.54,0.29-0.81,0.43
		c-0.54,0.29-1.08,0.6-1.61,0.92c-0.53,0.32-1.05,0.65-1.57,1c-0.26,0.17-0.52,0.35-0.77,0.53c-0.26,0.18-0.51,0.36-0.77,0.55
		c-0.25,0.18-0.5,0.37-0.76,0.57c-0.24,0.18-0.5,0.38-0.74,0.58c-0.07,0.05-0.13,0.1-0.2,0.16v0.01c0.05,0.08,0.1,0.14,0.16,0.21
		c0.27-0.18,0.55-0.37,0.83-0.55c0.01-0.01,0.01-0.01,0.02-0.01c14.74-11.3,35.2-11.5,50.64-0.54c0,0.01,0.01,0.01,0.01,0.01
		c0.23,0.15,0.45,0.3,0.68,0.44c0.31,0.21,0.63,0.43,0.94,0.64c0.04-0.07,0.1-0.13,0.14-0.2C201.57,95.88,201.44,95.78,201.31,95.68
		z M201.7,95.98c-0.04,0.07-0.1,0.13-0.14,0.2c-0.31-0.22-0.63-0.43-0.94-0.64c-0.23-0.15-0.45-0.3-0.68-0.44c0,0-0.01,0-0.01-0.01
		c-14.6-9.32-35.92-9.14-50.64,0.54c-0.01,0-0.01,0-0.02,0.01c-0.28,0.18-0.56,0.37-0.83,0.55c-0.05-0.07-0.1-0.13-0.16-0.21v-0.01
		c-0.17,0.15-0.36,0.3-0.54,0.45c0.25,0.3,0.48,0.59,0.7,0.9c15.28-10.6,38.23-10.61,53.11,0c0.21-0.31,0.44-0.61,0.69-0.9
		C202.07,96.27,201.89,96.12,201.7,95.98z M165.39,122.79c0.3-0.09,0.92-0.28,1.72-0.57c1.48,3.14,4.6,4.73,7.75,4.77
		c3.15-0.04,6.27-1.64,7.75-4.77c0.8,0.29,1.42,0.48,1.72,0.57c-3.08,4.57-6.28,6.88-9.48,6.94
		C171.67,129.67,168.47,127.36,165.39,122.79L165.39,122.79z M206.92,105.51c0.29-2.85,5.4-8.68,5.4-8.68
		c-3.05-0.1-6.16,1.81-6.16,1.81c0.23-0.69,1.73-2.27,1.73-2.27c-2.15,0.5-4.43,2.97-4.71,3.28c-0.02,0.03-0.03,0.03-0.03,0.03
		c0.1,0.58,0.29,1.67,0.57,3.03c1.65-3.84,6.99-4.79,6.99-4.79c-5.68,4.31-5.56,10.21-5.56,10.21c4.27-1.59,3.66-5.5,3.66-5.5
		C208.37,104.56,206.92,105.51,206.92,105.51z M197.95,110.22c-0.12-0.21-0.23-0.43-0.33-0.63c-0.18-0.35-0.35-0.7-0.5-1.06
		c-0.12-0.28-0.24-0.57-0.35-0.85c-0.26-0.69-0.49-1.39-0.68-2.11c-0.08-0.28-0.15-0.56-0.21-0.84c0,0-0.5,4.82-4.93,5.35
		c0,0,1.75-1.27,1.88-3.98c0,0-1.46,2.67-3.23,3.12c-0.43,0.23-0.88,0.37-1.37,0.43c-0.13,0.02-0.26,0.03-0.4,0.03h-0.06
		c-1.1-0.02-2.11-0.53-2.88-1.37v0.05c0,0,0,0,0,0.01c0,0.08-0.01,0.16-0.02,0.23c-0.01,0.1-0.02,0.2-0.03,0.3
		c2.58,2.03,5.88,2.3,9.36,2.59c1.59,0.13,3.23,0.27,4.88,0.57C198.67,111.46,198.3,110.85,197.95,110.22z M182.29,107.85
		c-0.03-0.1-0.05-0.21-0.1-0.31c-0.03-0.09-0.09-0.18-0.15-0.28c-0.07-0.11-0.15-0.22-0.25-0.33c-0.31,0.35-0.74,0.67-1.3,0.98
		c-1.65,0.92-3.68,1.29-5.63,1.25c-2.87-0.05-5.57-0.97-6.66-2.24c-0.04,0.05-0.08,0.1-0.12,0.15c-0.03,0.05-0.07,0.1-0.1,0.15
		c-0.03,0.05-0.06,0.1-0.09,0.16c-0.14,0.25-0.22,0.52-0.22,0.79c0,0.13,0.02,0.27,0.06,0.4c0,0.04,0.02,0.09,0.03,0.13
		c0.06,0.17,0.16,0.35,0.28,0.52c0.07,0.1,0.14,0.18,0.23,0.27c0.05,0.06,0.11,0.12,0.18,0.18c0.05,0.05,0.11,0.1,0.17,0.15
		c0.17,0.14,0.35,0.26,0.54,0.39c0.1,0.06,0.19,0.11,0.3,0.17c0.47,0.26,1.02,0.49,1.62,0.68c0.15,0.04,0.3,0.09,0.45,0.13
		c0.27,0.07,0.53,0.14,0.81,0.19c0.16,0.03,0.31,0.06,0.47,0.09c0.18,0.03,0.37,0.05,0.55,0.08c0.06,0.01,0.12,0.02,0.18,0.03
		c0.17,0.02,0.34,0.03,0.51,0.04c0.04,0.01,0.09,0.01,0.13,0.01c0.14,0.02,0.28,0.02,0.43,0.03c0.05,0,0.1,0.01,0.16,0
		c0.03,0.01,0.06,0.01,0.1,0.01h0.25c1.87,0,3.79-0.37,5.38-1.26c1.23-0.68,1.84-1.45,1.84-2.23
		C182.33,108.06,182.32,107.95,182.29,107.85z M186.73,93.1c-0.1-0.03-0.18-0.05-0.27-0.08c-0.43-0.12-0.85-0.23-1.28-0.34
		c-0.2-0.05-0.39-0.1-0.59-0.15c-0.33-0.08-0.66-0.16-0.99-0.22c-0.15-0.04-0.3-0.07-0.45-0.1c-0.27-0.06-0.54-0.11-0.81-0.16
		c-0.48-0.1-0.96-0.17-1.44-0.23c-0.31-0.05-0.63-0.1-0.94-0.13c-0.43-0.06-0.86-0.1-1.3-0.14c-0.26-0.03-0.52-0.05-0.79-0.07
		c-0.38-0.03-0.77-0.05-1.17-0.07c-0.06-0.01-0.12-0.01-0.18-0.01c-0.55-0.03-1.1-0.04-1.65-0.04c-0.55,0-1.1,0.02-1.65,0.04
		c-0.06,0-0.12,0-0.18,0.01c-0.39,0.02-0.78,0.04-1.17,0.07c-0.27,0.02-0.53,0.04-0.79,0.07c-0.43,0.03-0.86,0.08-1.3,0.14
		c-0.31,0.03-0.63,0.08-0.94,0.13c-0.49,0.07-0.97,0.15-1.44,0.23c-0.27,0.04-0.54,0.1-0.81,0.16c-0.16,0.03-0.3,0.05-0.45,0.1
		c-0.33,0.06-0.66,0.14-0.99,0.22c-0.2,0.04-0.39,0.1-0.59,0.15c-0.43,0.1-0.85,0.22-1.28,0.34c-0.09,0.03-0.17,0.05-0.27,0.08
		c-0.5,0.15-1,0.3-1.5,0.47h0.14c0.09,0,0.21,0,0.36,0.01c1.79,0.04,8.05,0.59,12.87,5.63c4.81-5.04,11.07-5.58,12.87-5.63
		c0.15-0.01,0.27-0.01,0.36-0.01h0.14C187.73,93.4,187.23,93.24,186.73,93.1z M146.54,99.65c-0.28-0.3-2.56-2.77-4.71-3.28
		c0,0,1.5,1.58,1.73,2.27c0,0-3.11-1.91-6.16-1.81c0,0,5.11,5.83,5.4,8.68c0,0-1.45-0.95-1.91-2.88c0,0-0.61,3.91,3.66,5.5
		c0,0,0.11-5.91-5.56-10.21c0,0,5.34,0.95,6.99,4.79c0.29-1.36,0.48-2.44,0.57-3.03C146.57,99.68,146.56,99.67,146.54,99.65z
		 M183.61,122.57c-5.75,7.83-11.73,7.83-17.49,0c-0.31,0.1-0.57,0.18-0.72,0.23c6.2,9.19,12.74,9.19,18.95,0
		C184.18,122.75,183.93,122.67,183.61,122.57z M164.84,108.59c-0.01-0.1-0.02-0.2-0.02-0.3c-0.03,0.03-0.05,0.05-0.08,0.08
		c-0.11,0.12-0.23,0.23-0.35,0.32c-0.1,0.09-0.19,0.17-0.3,0.23c-0.05,0.03-0.1,0.07-0.16,0.1c-0.08,0.05-0.17,0.1-0.25,0.15
		c-0.1,0.06-0.21,0.11-0.32,0.16c-0.07,0.04-0.15,0.07-0.23,0.1c-0.05,0.03-0.11,0.04-0.17,0.05c-0.09,0.03-0.18,0.06-0.28,0.08
		c0,0-0.01,0.01-0.02,0c-0.12,0.03-0.25,0.06-0.38,0.07c-0.14,0.02-0.28,0.03-0.42,0.03c-0.63,0-1.23-0.16-1.77-0.45
		c-1.77-0.45-3.24-3.12-3.24-3.12c0.14,2.71,1.89,3.98,1.89,3.98c-4.43-0.53-4.93-5.35-4.93-5.35c-0.06,0.28-0.13,0.56-0.21,0.84
		c-0.19,0.72-0.42,1.43-0.68,2.11c-0.1,0.29-0.23,0.57-0.35,0.85c-0.15,0.36-0.31,0.71-0.5,1.06c-0.1,0.21-0.21,0.43-0.33,0.63
		c-0.35,0.63-0.72,1.24-1.14,1.83c1.65-0.3,3.29-0.43,4.88-0.57c3.48-0.3,6.78-0.57,9.36-2.59
		C164.86,108.79,164.85,108.68,164.84,108.59z M175,105.5c-2.32,0-4.2,0.27-4.2,0.59c0,0.33,1.88,0.59,4.2,0.59
		c2.33,0,4.21-0.26,4.21-0.59C179.21,105.77,177.33,105.5,175,105.5z M134.31,93.13c3.78,0.19,9.22,3.34,9.56,3.54
		c-0.05-0.05-0.11-0.1-0.17-0.16c-0.34-0.28-0.71-0.57-1.13-0.85c-0.49-0.34-1.03-0.69-1.62-1.02c-0.2-0.11-0.4-0.23-0.61-0.33
		c-0.42-0.23-0.87-0.44-1.34-0.65c-0.23-0.11-0.48-0.22-0.72-0.31c-0.25-0.1-0.5-0.2-0.77-0.3c-0.26-0.1-0.53-0.2-0.81-0.29
		c-0.21-0.08-0.42-0.15-0.63-0.21c-0.17-0.05-0.34-0.1-0.51-0.15c-0.34-0.11-0.7-0.21-1.06-0.3c-0.2-0.05-0.4-0.1-0.61-0.15
		c-0.28-0.07-0.56-0.13-0.84-0.19c0.26,0.37,0.5,0.76,0.7,1.15c0.04,0.07,0.08,0.13,0.11,0.2c0.07,0.13,0.13,0.26,0.19,0.39
		c0.1,0.18,0.17,0.36,0.25,0.54c0.56,1.24,0.96,2.55,1.32,3.84c0.14,0.48,0.28,0.96,0.42,1.43c0.08,0.26,0.15,0.51,0.23,0.77
		c0.08,0.25,0.16,0.5,0.24,0.76c0.08,0.25,0.17,0.5,0.25,0.75c0.01,0.01,0.01,0.02,0.01,0.03c0.1,0.23,0.18,0.47,0.28,0.7
		c0.1,0.23,0.2,0.45,0.3,0.68c0,0.02,0.01,0.03,0.02,0.04c0.09,0.17,0.17,0.33,0.25,0.49c0.05,0.11,0.11,0.22,0.17,0.31
		c0.22,0.37,0.44,0.72,0.7,1.05c0.02,0.02,0.03,0.03,0.04,0.04c0-0.01,0-0.01-0.01-0.02C138.47,104.46,136.91,96.8,134.31,93.13z
		 M215.84,91.97c-0.21,0.04-0.41,0.1-0.61,0.15c-0.37,0.09-0.72,0.18-1.06,0.3c-0.17,0.04-0.34,0.1-0.51,0.15
		c-0.21,0.06-0.42,0.13-0.63,0.21c-0.28,0.09-0.55,0.18-0.81,0.29c-0.26,0.1-0.51,0.19-0.77,0.3c-0.24,0.1-0.49,0.2-0.72,0.31
		c-0.47,0.21-0.92,0.43-1.34,0.65c-0.21,0.1-0.41,0.22-0.61,0.33c-0.59,0.33-1.13,0.68-1.62,1.02c-0.42,0.29-0.79,0.57-1.13,0.85
		c-0.06,0.05-0.12,0.1-0.17,0.16c0.34-0.2,5.78-3.35,9.56-3.54c-2.6,3.67-4.16,11.33-4.24,11.8c-0.01,0.01-0.01,0.01-0.01,0.02
		l0.04-0.04c0.26-0.33,0.49-0.69,0.7-1.05c0.06-0.1,0.12-0.2,0.17-0.31c0.09-0.16,0.17-0.32,0.25-0.49
		c0.01-0.02,0.02-0.03,0.02-0.04c0.1-0.23,0.21-0.45,0.3-0.68c0.1-0.23,0.18-0.46,0.28-0.7c0-0.01,0-0.02,0.01-0.03
		c0.09-0.25,0.17-0.5,0.25-0.75c0.09-0.25,0.17-0.5,0.24-0.76c0.09-0.26,0.16-0.51,0.23-0.77c0.14-0.47,0.28-0.95,0.42-1.43
		c0.37-1.3,0.77-2.6,1.32-3.84c0.08-0.18,0.16-0.36,0.25-0.54c0.06-0.13,0.12-0.26,0.19-0.39c0.03-0.07,0.07-0.13,0.11-0.2
		c0.21-0.39,0.44-0.77,0.7-1.15C216.39,91.84,216.11,91.9,215.84,91.97z M195.74,104.05c-0.14-0.72-0.25-1.47-0.34-2.23
		c-0.03-0.25-0.05-0.5-0.07-0.75c-0.03-0.25-0.04-0.5-0.05-0.76c-0.01-0.19-0.02-0.39-0.03-0.59c-0.01-0.27-0.02-0.55-0.02-0.83
		c0-0.26,0-0.51,0.01-0.77v-0.01c-0.27-0.02-0.54-0.03-0.79-0.06c-0.1-0.01-0.18-0.02-0.27-0.03c2.11,4.27-0.21,9.64-0.21,9.64
		c1.44-1.12,1.91-2.95,1.91-2.95C195.83,104.5,195.79,104.27,195.74,104.05z M155.55,98.03c-0.09,0.01-0.17,0.02-0.27,0.03
		c-0.25,0.03-0.52,0.04-0.79,0.06v0.01c0.01,0.26,0.01,0.51,0.01,0.77c0,0.28-0.01,0.56-0.02,0.83c-0.01,0.2-0.02,0.4-0.03,0.59
		c-0.01,0.25-0.03,0.5-0.05,0.76c-0.02,0.25-0.04,0.5-0.07,0.75c-0.09,0.76-0.2,1.5-0.34,2.23c-0.05,0.23-0.1,0.45-0.15,0.67
		c0,0,0.48,1.83,1.91,2.95C155.75,107.67,153.43,102.3,155.55,98.03z M193.55,95.78c0.04,0.03,0.08,0.08,0.12,0.12
		c0.07,0.07,0.15,0.14,0.22,0.22c0.19,0.19,0.37,0.41,0.56,0.64c0.14,0.17,0.27,0.34,0.4,0.52c0.12,0.16,0.23,0.33,0.34,0.5
		c0.03,0.03,0.05,0.06,0.07,0.1c0.01-0.38,0.03-0.77,0.06-1.16C194.73,96.39,194.15,96.08,193.55,95.78z M155.99,95.88
		c-0.53,0.27-1.05,0.55-1.57,0.84c0.03,0.39,0.05,0.77,0.06,1.16c0.02-0.03,0.04-0.07,0.07-0.1c0.1-0.17,0.22-0.35,0.34-0.5
		c0.13-0.18,0.26-0.36,0.4-0.52c0.18-0.23,0.37-0.44,0.56-0.64c0.07-0.08,0.15-0.15,0.22-0.22c0.04-0.04,0.09-0.09,0.13-0.12v-0.01
		C156.12,95.81,156.06,95.85,155.99,95.88z M209.49,163.89c0,0.79-15.5,1.43-34.63,1.43s-34.63-0.64-34.63-1.43
		s15.5-1.43,34.63-1.43S209.49,163.1,209.49,163.89z"/>
	<g>
		<path class="st12" d="M209.54,90.39c0.13-20.28-9.08-37.49-20.9-48.22c-5.24-4.76-11-8.25-16.71-10.19
			c-5.8-1.97-11.55-2.34-16.67-0.81c-5.93,1.77-10.95,6.05-14.14,13.32c-2.73-1.03-5.78-0.33-7.8,1.7c-2.88,2.88-2.88,7.55,0,10.43
			c2.89,2.88,7.56,2.88,10.44,0c2.8-2.8,2.89-7.32,0.19-10.23c3.82-3.37,8.32-4.14,12.05-2.97c3.44,1.08,6.06,3.73,7.1,7.26
			c1.5,5.14-0.26,12.41-8.05,20.65c-8.06,6.21-12.42,15.67-13.9,19.37c-4.82-2.27-10.6-3.27-15.02-3.33
			c8.79,4.02,4.22,20.3,17.45,22.62c-1.13,2.74-4.01,7.72-5.88,8.82c1.14-0.17,2.23-0.42,3.25-0.73c-2.37,5.51-1,12.99,3.02,17.33
			c-0.07-1.34-0.02-2.5,0.13-3.51c1.24,7.02,5.44,12.06,13.28,14.2c0-0.01-0.53-0.81-1.22-2.19c3.39,2.57,6.84,3.56,11.73,5.32
			c-0.63-1.03-1.17-2.13-1.65-3.28c3.78,3.38,5.73,5.67,8.79,11.09c3.05-5.42,5.01-7.71,8.79-11.09c-0.48,1.15-1.04,2.25-1.65,3.28
			c4.88-1.77,8.33-2.75,11.73-5.32c-0.7,1.38-1.22,2.18-1.22,2.19c7.84-2.15,12.04-7.18,13.28-14.2c0.15,1.02,0.19,2.17,0.13,3.51
			c4.02-4.34,5.39-11.82,3.02-17.33c1.03,0.31,2.11,0.56,3.24,0.73c-1.86-1.1-4.75-6.08-5.88-8.82
			c13.24-2.32,8.07-18.55,17.45-22.62C219.67,87.43,214.22,88.34,209.54,90.39z M141.73,54.61c-1.77,1.77-4.64,1.77-6.4,0
			c-0.12-0.12-0.23-0.25-0.34-0.39c-0.08-0.09-0.15-0.18-0.22-0.28c-0.06-0.1-0.11-0.19-0.17-0.29c-0.99-1.73-0.76-3.98,0.72-5.45
			c1.37-1.37,3.4-1.68,5.06-0.92c0.16,0.07,0.3,0.15,0.45,0.23c0.09,0.04,0.17,0.1,0.25,0.16c0.23,0.16,0.43,0.33,0.63,0.53
			C143.51,49.97,143.51,52.83,141.73,54.61z M190.41,49.33c0,1.24-1.01,2.24-2.24,2.24s-2.24-1-2.24-2.24c0-1.24,1-2.24,2.24-2.24
			S190.41,48.09,190.41,49.33z M185.16,44.91c0.78,0,1.41,0.64,1.41,1.41c0,0.78-0.63,1.42-1.41,1.42c-0.78,0-1.42-0.63-1.42-1.42
			C183.75,45.54,184.38,44.91,185.16,44.91z"/>
		<path class="st13" d="M179.51,121.84c-0.76,1.06-2.14,2.13-4.64,2.15c-2.5-0.02-3.88-1.09-4.64-2.15c1.79-0.27,4.3-0.55,4.64-0.02
			C175.2,121.29,177.72,121.57,179.51,121.84z"/>
		<path class="st14" d="M201.7,95.11c-0.13-0.1-0.26-0.21-0.39-0.3c-0.19-0.16-0.39-0.3-0.6-0.45c-0.29-0.22-0.57-0.43-0.86-0.63
			c-0.23-0.17-0.47-0.33-0.7-0.49c-0.81-0.56-1.64-1.07-2.47-1.56c-0.26-0.16-0.51-0.3-0.77-0.44c-0.27-0.16-0.55-0.3-0.83-0.45
			c-0.45-0.24-0.9-0.47-1.36-0.7c-0.23-0.11-0.48-0.23-0.72-0.34c-1.28-0.6-2.57-1.13-3.89-1.59c-0.3-0.1-0.58-0.2-0.88-0.3
			c-0.58-0.2-1.17-0.37-1.76-0.54c-0.27-0.08-0.55-0.16-0.82-0.23c-0.43-0.11-0.85-0.22-1.28-0.31c-0.49-0.11-0.97-0.22-1.47-0.31
			c-0.94-0.18-1.87-0.33-2.82-0.44c-0.56-0.07-1.12-0.13-1.68-0.17c-0.3-0.03-0.61-0.05-0.9-0.07c-0.22-0.02-0.44-0.03-0.66-0.03
			c-1.9-0.1-3.79-0.06-5.67,0.1c-0.56,0.04-1.12,0.1-1.68,0.17c-0.29,0.03-0.58,0.08-0.87,0.12c-0.3,0.04-0.58,0.09-0.88,0.14
			c-1.17,0.19-2.35,0.44-3.51,0.74c-0.27,0.07-0.55,0.15-0.82,0.23c-0.14,0.03-0.28,0.08-0.43,0.12c-0.23,0.07-0.47,0.14-0.7,0.21
			c-1.47,0.45-2.92,0.99-4.35,1.61c-0.22,0.1-0.43,0.2-0.64,0.3c-0.6,0.27-1.19,0.56-1.78,0.86c-0.27,0.15-0.54,0.29-0.81,0.43
			c-0.54,0.29-1.08,0.6-1.61,0.92c-0.53,0.32-1.05,0.65-1.57,1c-0.26,0.17-0.52,0.35-0.77,0.53c-0.26,0.18-0.51,0.36-0.77,0.55
			c-0.25,0.18-0.5,0.37-0.76,0.57c-0.24,0.18-0.5,0.38-0.74,0.58c-0.07,0.06-0.14,0.11-0.2,0.17c-0.18,0.15-0.37,0.3-0.54,0.44
			c0.25,0.3,0.48,0.59,0.7,0.9c15.28-10.6,38.23-10.61,53.11,0c0.21-0.31,0.44-0.61,0.69-0.9C202.07,95.4,201.89,95.25,201.7,95.11z
			 M171.01,74.45c0.02-0.29,0.05-0.56,0.1-0.83c0.03-0.19,0.06-0.38,0.1-0.57c0-0.02,0-0.03,0.01-0.05c0.04-0.2,0.1-0.4,0.15-0.6
			c0-0.01,0.01-0.02,0.01-0.03c1.57-5.44,7.32-7.63,6.23-16.95c-1.84-15.75-13.46-19.62-25.89-15.34c0.46-0.03,0.93-0.03,1.38-0.02
			h0.11c0.07,0.01,0.13,0.01,0.19,0.02c1.26,0.07,2.49,0.3,3.65,0.69c0.15,0.05,0.3,0.1,0.44,0.16c0.34,0.12,0.67,0.26,1,0.42
			c0.16,0.07,0.31,0.15,0.46,0.22c0.26,0.14,0.51,0.28,0.76,0.43c0.15,0.08,0.3,0.17,0.43,0.27c0.44,0.28,0.87,0.59,1.27,0.93
			c0.14,0.1,0.27,0.22,0.4,0.34c0.13,0.11,0.26,0.23,0.39,0.37c0.13,0.12,0.25,0.24,0.37,0.37c0.12,0.13,0.24,0.26,0.36,0.39
			c0.32,0.37,0.63,0.75,0.91,1.16c0.1,0.15,0.21,0.3,0.31,0.46c0.1,0.16,0.19,0.31,0.29,0.47c0.07,0.12,0.14,0.24,0.21,0.37
			c0.47,0.86,0.85,1.79,1.14,2.77c1.39,4.78,0.33,10.87-4.52,17.74c2.12-0.9,4.43-1.57,6.92-1.88c-4.49,2.37-18.21,8.75-24.57,26.3
			c0.34,0.21,0.68,0.43,1,0.66c0.03,0.02,0.05,0.04,0.08,0.06c0.32,0.23,0.64,0.47,0.95,0.72c7.78-6.34,17.56-9.7,27.48-10.06
			c-1.56-3.47-2.16-6.11-2.16-8.25C170.99,74.94,170.99,74.69,171.01,74.45z M206.68,88.5c-0.01-0.25-0.02-0.5-0.03-0.74
			c-0.01-0.41-0.03-0.81-0.05-1.22c0-0.05,0-0.11-0.01-0.17c-0.03-0.43-0.05-0.85-0.1-1.28c-0.01-0.26-0.03-0.53-0.06-0.79
			c-0.03-0.46-0.09-0.91-0.14-1.37c-0.06-0.53-0.13-1.06-0.2-1.59c-0.01-0.09-0.03-0.17-0.03-0.24c-0.05-0.35-0.1-0.7-0.16-1.04
			c-0.14-0.85-0.3-1.7-0.47-2.53c-0.09-0.45-0.18-0.9-0.29-1.34c-0.11-0.51-0.23-1.03-0.37-1.53c-0.17-0.66-0.34-1.3-0.53-1.96
			c-0.13-0.45-0.26-0.9-0.41-1.35c-0.15-0.49-0.3-0.96-0.47-1.44c-0.18-0.57-0.38-1.12-0.59-1.68c-0.19-0.51-0.38-1.02-0.59-1.51
			c-0.17-0.43-0.34-0.84-0.52-1.26c-0.07-0.18-0.15-0.37-0.23-0.55c-0.38-0.88-0.79-1.74-1.21-2.59c-0.23-0.48-0.48-0.95-0.72-1.41
			c-0.17-0.31-0.32-0.62-0.49-0.91c-0.29-0.51-0.57-1.03-0.87-1.53c-0.17-0.3-0.36-0.6-0.54-0.9c-0.16-0.26-0.32-0.52-0.49-0.78
			c-0.26-0.42-0.53-0.84-0.8-1.24c-0.02-0.03-0.03-0.04-0.04-0.07c-0.27-0.4-0.54-0.8-0.82-1.19c-0.27-0.38-0.54-0.77-0.81-1.14
			c-0.07-0.09-0.13-0.17-0.19-0.26c-0.06-0.07-0.11-0.15-0.17-0.22c0-0.01-0.01-0.03-0.02-0.03c-2.31-3.1-4.86-5.89-7.55-8.32
			c-0.99-0.9-2.01-1.76-3.04-2.56c0,0-0.01,0-0.01-0.01c-0.25-0.2-0.5-0.39-0.76-0.58c-0.32-0.23-0.64-0.47-0.97-0.7
			c-0.97-0.7-1.96-1.35-2.95-1.96c-0.79-0.49-1.59-0.94-2.39-1.36c-0.26-0.14-0.53-0.28-0.79-0.41c-0.27-0.14-0.54-0.27-0.81-0.39
			c-0.5-0.24-1.01-0.47-1.52-0.69c-0.04-0.02-0.1-0.03-0.14-0.06c-0.24-0.1-0.5-0.2-0.74-0.3c-0.27-0.1-0.53-0.21-0.8-0.3
			c-0.27-0.1-0.53-0.2-0.8-0.29c-5.25-1.78-10.41-2.13-14.94-0.78c-3.38,1.01-6.44,3-8.93,6.07c-0.08,0.09-0.12,0.14-0.12,0.14
			c14.94-7.12,30.18-3.53,32.36,15.11c0.37,3.17,0.03,5.56-0.64,7.51v0.01c-0.06,0.16-0.11,0.31-0.17,0.46
			c-0.23,0.62-0.5,1.19-0.8,1.73c-0.14,0.27-0.3,0.53-0.45,0.79c-0.17,0.26-0.33,0.53-0.5,0.78c-0.2,0.31-0.41,0.62-0.62,0.91
			c-0.31,0.44-0.63,0.89-0.92,1.32c-0.1,0.14-0.19,0.27-0.28,0.41c-0.3,0.44-0.59,0.9-0.84,1.37c-0.09,0.16-0.17,0.3-0.24,0.46
			c-0.16,0.31-0.3,0.63-0.43,0.97c-0.05,0.14-0.1,0.27-0.15,0.41c-0.14,0.42-0.25,0.86-0.32,1.32c-0.03,0.14-0.05,0.28-0.07,0.43
			c-0.03,0.18-0.04,0.37-0.06,0.57v0.04c-0.01,0.2-0.02,0.4-0.02,0.61c0,2.08,0.62,4.65,2.22,8.08
			c10.48,0.03,20.96,3.39,29.25,10.09c0.72-0.59,1.5-1.13,2.34-1.63C206.71,90.74,206.71,89.61,206.68,88.5z M188.17,47.08
			c1.24,0,2.24,1.01,2.24,2.24c0,1.24-1.01,2.24-2.24,2.24s-2.24-1-2.24-2.24C185.93,48.09,186.93,47.08,188.17,47.08z
			 M185.16,44.91c0.78,0,1.41,0.64,1.41,1.41c0,0.78-0.63,1.42-1.41,1.42c-0.78,0-1.42-0.63-1.42-1.42
			C183.75,45.54,184.38,44.91,185.16,44.91z"/>
		<path class="st15" d="M170.76,122.48c1.72-0.24,3.8-0.42,4.1,0.06c0.31-0.47,2.38-0.3,4.1-0.06c0.21-0.21,0.39-0.42,0.54-0.64
			c-1.79-0.27-4.3-0.55-4.64-0.02c-0.34-0.52-2.85-0.25-4.64,0.02C170.38,122.06,170.56,122.27,170.76,122.48z"/>
		<path class="st16" d="M166.47,121.58c0.2-0.07,0.41-0.14,0.64-0.22c1.48,3.14,4.6,4.73,7.75,4.77c3.15-0.04,6.27-1.64,7.75-4.77
			c0.23,0.08,0.44,0.16,0.64,0.22c-2.74,3.57-5.57,5.38-8.39,5.44C172.04,126.96,169.22,125.15,166.47,121.58L166.47,121.58z
			 M182.29,106.98c-0.03-0.1-0.05-0.21-0.1-0.31c-0.03-0.09-0.09-0.18-0.15-0.28c-0.07-0.11-0.15-0.22-0.25-0.33
			c-0.3-0.35-0.73-0.68-1.3-0.99c-4.08-2.29-10.43-1.15-12.29,0.98c-0.04,0.05-0.08,0.1-0.12,0.15c-0.03,0.05-0.07,0.1-0.1,0.15
			c-0.03,0.05-0.06,0.1-0.09,0.16c-0.14,0.25-0.22,0.52-0.22,0.79c0,0.13,0.02,0.27,0.06,0.4c0,0.04,0.02,0.09,0.03,0.13
			c0.06,0.17,0.16,0.35,0.28,0.52c0.07,0.1,0.14,0.18,0.23,0.27c0.05,0.06,0.11,0.12,0.18,0.18c0.05,0.05,0.11,0.1,0.17,0.15
			c0.17,0.14,0.35,0.26,0.54,0.39c0.1,0.05,0.19,0.11,0.3,0.17c0.47,0.26,1.02,0.49,1.62,0.68c0.15,0.04,0.3,0.09,0.45,0.13
			c0.27,0.07,0.53,0.14,0.81,0.19c0.16,0.03,0.31,0.06,0.47,0.09c0.18,0.03,0.37,0.05,0.55,0.08c0.06,0.01,0.12,0.02,0.18,0.03
			c0.17,0.02,0.34,0.03,0.51,0.04c0.04,0.01,0.09,0.01,0.13,0.01c0.14,0.02,0.28,0.02,0.43,0.03c0.05,0,0.1,0.01,0.16,0
			c0.11,0.01,0.23,0.01,0.35,0.01c1.87,0,3.79-0.37,5.38-1.26c1.23-0.68,1.84-1.45,1.84-2.23
			C182.33,107.19,182.32,107.08,182.29,106.98z M146.54,98.78c-0.36-0.57-1.17-1.7-2.65-2.97c-0.06-0.05-0.12-0.1-0.19-0.17
			c-0.34-0.28-0.71-0.57-1.13-0.85c-0.49-0.35-1.03-0.69-1.62-1.02c-0.2-0.11-0.4-0.23-0.61-0.33c-0.42-0.23-0.87-0.44-1.34-0.65
			c-0.23-0.11-0.48-0.22-0.72-0.31c-0.25-0.1-0.5-0.2-0.77-0.3c-0.26-0.1-0.53-0.2-0.81-0.29c-0.21-0.08-0.42-0.15-0.63-0.21
			c-0.17-0.05-0.34-0.1-0.51-0.15c-0.34-0.11-0.7-0.21-1.06-0.3c-0.2-0.05-0.4-0.1-0.61-0.15c-0.28-0.07-0.56-0.13-0.84-0.19
			c0.26,0.37,0.5,0.76,0.7,1.15c0.11,0.19,0.21,0.39,0.3,0.59c0.09,0.17,0.17,0.36,0.25,0.54c0.56,1.24,0.96,2.55,1.32,3.84
			c0.14,0.48,0.28,0.96,0.42,1.43c0.08,0.26,0.15,0.51,0.23,0.77c0.08,0.25,0.16,0.5,0.24,0.76c0.08,0.25,0.17,0.5,0.25,0.75
			c0.01,0.01,0.01,0.02,0.01,0.03c0.1,0.23,0.18,0.47,0.28,0.7c0.1,0.23,0.2,0.45,0.3,0.68c0,0.02,0.01,0.03,0.02,0.04
			c0.09,0.17,0.17,0.33,0.25,0.49c0.05,0.11,0.11,0.22,0.17,0.31c0.22,0.37,0.44,0.72,0.7,1.05c0.01,0.01,0.02,0.02,0.03,0.03
			c0.01,0.01,0.01,0.01,0.01,0.02s0,0.01,0,0.01c1.24,1.57,3.07,2.72,5.99,3.17c0,0,0.11-5.91-5.56-10.21c0,0,5.34,0.95,6.99,4.79
			c0.29-1.36,0.48-2.44,0.57-3.03C146.57,98.81,146.56,98.8,146.54,98.78z M215.84,91.1c-0.21,0.04-0.41,0.1-0.61,0.15
			c-0.37,0.09-0.72,0.18-1.06,0.3c-0.17,0.04-0.34,0.1-0.51,0.15c-0.21,0.06-0.42,0.13-0.63,0.21c-0.28,0.09-0.55,0.18-0.81,0.29
			c-0.26,0.1-0.51,0.19-0.77,0.3c-0.24,0.1-0.49,0.2-0.72,0.31c-0.47,0.21-0.92,0.43-1.34,0.65c-0.21,0.1-0.41,0.22-0.61,0.33
			c-0.59,0.33-1.13,0.67-1.62,1.02c-0.42,0.29-0.79,0.57-1.13,0.85c-0.07,0.06-0.13,0.11-0.19,0.17c-1.49,1.26-2.3,2.39-2.65,2.97
			c-0.02,0.03-0.03,0.03-0.03,0.03c0.1,0.58,0.29,1.67,0.57,3.03c1.65-3.84,6.99-4.79,6.99-4.79c-5.68,4.31-5.56,10.21-5.56,10.21
			c2.92-0.45,4.75-1.61,5.99-3.17c0,0,0,0,0-0.01s0-0.01,0.01-0.02c0.02-0.01,0.03-0.02,0.03-0.03c0.26-0.33,0.49-0.69,0.7-1.05
			c0.06-0.1,0.12-0.2,0.17-0.31c0.09-0.16,0.17-0.32,0.25-0.49c0.01-0.02,0.02-0.03,0.02-0.04c0.1-0.23,0.21-0.45,0.3-0.68
			c0.1-0.23,0.18-0.46,0.28-0.7c0-0.01,0-0.02,0.01-0.03c0.09-0.25,0.17-0.5,0.25-0.75c0.09-0.25,0.17-0.5,0.24-0.76
			c0.09-0.26,0.16-0.51,0.23-0.77c0.14-0.47,0.28-0.95,0.42-1.43c0.37-1.3,0.77-2.6,1.32-3.84c0.08-0.18,0.17-0.37,0.25-0.54
			c0.1-0.2,0.19-0.4,0.3-0.59c0.21-0.39,0.44-0.77,0.7-1.15C216.39,90.97,216.11,91.03,215.84,91.1z M197.95,109.35
			c-0.11-0.21-0.23-0.42-0.33-0.63c-0.18-0.35-0.35-0.7-0.5-1.06c-0.12-0.28-0.24-0.57-0.35-0.85c-0.26-0.69-0.49-1.39-0.68-2.11
			c-0.08-0.28-0.15-0.56-0.21-0.84c-0.06-0.22-0.1-0.44-0.15-0.67c-0.14-0.72-0.25-1.47-0.34-2.23c-0.03-0.25-0.06-0.5-0.07-0.75
			c-0.03-0.25-0.04-0.5-0.05-0.76c-0.01-0.19-0.02-0.39-0.03-0.59c-0.01-0.28-0.02-0.55-0.02-0.83c0-0.26,0-0.51,0.01-0.77v-0.01
			c0-0.08,0.01-0.16,0.01-0.23c0.01-0.38,0.03-0.77,0.06-1.16c-0.58-0.33-1.17-0.64-1.77-0.94c0-0.01-0.01-0.01-0.01-0.01
			s-0.01-0.01-0.02-0.01c-1.7-0.86-3.47-1.59-5.28-2.19c0,0-0.01-0.01-0.02-0.01c-0.5-0.17-1-0.32-1.5-0.47
			c-0.1-0.03-0.18-0.05-0.27-0.08c-0.43-0.12-0.85-0.23-1.28-0.34c-0.2-0.05-0.39-0.1-0.59-0.15c-0.33-0.08-0.66-0.16-0.99-0.22
			c-0.15-0.04-0.3-0.07-0.45-0.1c-0.27-0.06-0.54-0.11-0.81-0.16c-0.48-0.09-0.96-0.17-1.44-0.23c-0.31-0.05-0.63-0.1-0.94-0.13
			c-0.43-0.06-0.86-0.1-1.3-0.14c-0.26-0.03-0.52-0.05-0.79-0.07c-0.38-0.03-0.77-0.05-1.17-0.07c-0.06-0.01-0.12-0.01-0.18-0.01
			c-0.55-0.03-1.1-0.04-1.65-0.04c-0.55,0-1.1,0.02-1.65,0.04c-0.06,0-0.12,0-0.18,0.01c-0.39,0.02-0.78,0.04-1.17,0.07
			c-0.27,0.02-0.53,0.04-0.79,0.07c-0.43,0.03-0.86,0.08-1.3,0.14c-0.31,0.03-0.63,0.08-0.94,0.13c-0.49,0.07-0.97,0.15-1.44,0.23
			c-0.27,0.04-0.54,0.1-0.81,0.16c-0.16,0.03-0.3,0.05-0.45,0.1c-0.33,0.06-0.66,0.14-0.99,0.22c-0.2,0.04-0.39,0.1-0.59,0.15
			c-0.43,0.1-0.85,0.22-1.28,0.34c-0.09,0.03-0.17,0.05-0.27,0.08c-0.5,0.15-1,0.3-1.5,0.47c-0.01,0-0.02,0.01-0.02,0.01
			c-1.81,0.6-3.58,1.33-5.28,2.19c-0.01,0-0.02,0.01-0.02,0.01v0.01c-0.07,0.03-0.14,0.06-0.2,0.1c-0.53,0.27-1.05,0.55-1.57,0.84
			c0.03,0.39,0.05,0.77,0.06,1.16c0,0.08,0.01,0.16,0.01,0.23v0.01c0.01,0.26,0.01,0.51,0.01,0.77c0,0.28-0.01,0.55-0.02,0.83
			c-0.01,0.2-0.02,0.4-0.03,0.59c-0.01,0.25-0.03,0.5-0.05,0.76c-0.01,0.25-0.03,0.5-0.07,0.75c-0.09,0.76-0.2,1.5-0.34,2.23
			c-0.04,0.23-0.09,0.45-0.15,0.67c-0.06,0.28-0.13,0.56-0.21,0.84c-0.19,0.72-0.42,1.43-0.68,2.11c-0.1,0.29-0.23,0.57-0.35,0.85
			c-0.15,0.36-0.31,0.71-0.5,1.06c-0.1,0.22-0.22,0.43-0.33,0.63c-0.35,0.63-0.72,1.24-1.14,1.83c1.65-0.3,3.29-0.43,4.88-0.57
			c3.48-0.3,6.78-0.57,9.36-2.59c-0.02-0.1-0.03-0.2-0.03-0.3c-0.01-0.1-0.02-0.2-0.02-0.3v-0.01c-0.03-1.32,0.52-2.51,1.5-3.51
			c0.5-0.5,1.1-0.95,1.78-1.33c1.76-0.98,4.14-1.59,6.75-1.62c2.61,0.03,4.99,0.64,6.75,1.62c0.65,0.37,1.24,0.79,1.71,1.26
			c1.03,1.01,1.62,2.23,1.57,3.58v0.05c0,0,0,0,0,0.01c0,0.08-0.01,0.16-0.02,0.23c-0.01,0.1-0.02,0.2-0.03,0.3
			c2.58,2.03,5.88,2.3,9.36,2.59c1.59,0.13,3.23,0.27,4.88,0.57C198.67,110.59,198.3,109.98,197.95,109.35z"/>
		<path class="st12" d="M195.25,97.01c-0.02-0.03-0.04-0.07-0.07-0.1c-0.1-0.17-0.22-0.35-0.34-0.5c-0.13-0.18-0.26-0.36-0.4-0.52
			c-0.18-0.23-0.37-0.44-0.56-0.64c-0.07-0.08-0.15-0.15-0.22-0.22c-0.04-0.05-0.1-0.1-0.15-0.14c-1.63-1.53-3.49-2.17-5.28-2.19
			c-0.05-0.01-0.1-0.01-0.16-0.01c-0.09,0-0.21,0-0.36,0.01c-4.41,0.19-8.16,3.95-6.53,6.83c5.98-3.52,7.65-2.86,12.99-2.37
			c0.09,0.01,0.17,0.02,0.27,0.03c0.25,0.03,0.51,0.04,0.79,0.07c0.05,0,0.11,0.01,0.17,0.01C195.36,97.18,195.31,97.1,195.25,97.01
			z M187.78,97.5c-2.49,0-4.5,2.53-4.5,5.65c0,0.23,0.01,0.47,0.04,0.7c0.13,1.46,0.71,2.74,1.57,3.64c0,0,0,0,0,0.01
			c0.78,0.82,1.78,1.3,2.88,1.3h0.06c0.14,0,0.27-0.01,0.4-0.03c2.27-0.3,4.04-2.69,4.04-5.62
			C192.28,100.03,190.27,97.5,187.78,97.5z M161.89,97.5c-2.49,0-4.5,2.53-4.5,5.65c0,2.33,1.12,4.33,2.73,5.19
			c0.54,0.3,1.14,0.45,1.77,0.45c0.14,0,0.28-0.01,0.42-0.03c0.13-0.01,0.26-0.03,0.38-0.07c0.01,0.01,0.02,0,0.02,0
			c0.1-0.02,0.19-0.04,0.28-0.08c0.05-0.01,0.11-0.03,0.17-0.05c0.08-0.03,0.16-0.05,0.23-0.1c0.11-0.04,0.22-0.1,0.32-0.16
			c0.09-0.04,0.17-0.1,0.25-0.15c0.05-0.03,0.1-0.07,0.16-0.1c0.1-0.07,0.2-0.15,0.3-0.23c0.12-0.1,0.23-0.21,0.35-0.32
			c0.03-0.03,0.05-0.05,0.08-0.09c0.81-0.87,1.37-2.11,1.5-3.51c0.03-0.25,0.05-0.5,0.05-0.77
			C166.38,100.03,164.37,97.5,161.89,97.5z M162,92.71c-0.15-0.01-0.27-0.01-0.36-0.01c-0.05,0-0.1,0-0.16,0.01
			c-1.79,0.03-3.65,0.66-5.28,2.19c-0.01,0-0.02,0.02-0.02,0.02c-0.04,0.03-0.09,0.08-0.13,0.12c-0.07,0.07-0.15,0.14-0.22,0.22
			c-0.19,0.19-0.37,0.41-0.56,0.64c-0.14,0.17-0.27,0.34-0.4,0.52c-0.12,0.16-0.23,0.33-0.34,0.5c-0.03,0.03-0.05,0.06-0.07,0.1
			c-0.05,0.09-0.1,0.17-0.16,0.25c0.05,0,0.11-0.01,0.17-0.01c0.28-0.03,0.54-0.04,0.79-0.07c0.1-0.01,0.18-0.02,0.27-0.03
			c5.33-0.49,7-1.15,12.99,2.37C170.16,96.65,166.41,92.9,162,92.71z"/>
		<path class="st17" d="M204.43,112.88c-2.55-5.13-3.76-11.66-4.07-13.57c-0.74-0.6-1.5-1.17-2.29-1.71v0.48
			c0,0.44,0.01,0.88,0.03,1.3c0.02,0.43,0.05,0.84,0.1,1.24c0,0.06,0.01,0.11,0.02,0.17c0.03,0.28,0.06,0.55,0.1,0.82
			c0.02,0.12,0.03,0.25,0.06,0.37c0,0.03,0,0.04,0.01,0.06c0.04,0.29,0.1,0.57,0.16,0.84c0.06,0.31,0.13,0.62,0.22,0.91
			c0.03,0.13,0.07,0.26,0.1,0.39c0.07,0.23,0.14,0.47,0.21,0.7c0.02,0.07,0.04,0.14,0.07,0.21c0.1,0.28,0.19,0.55,0.3,0.82
			c0,0.02,0.01,0.03,0.02,0.05c0.24,0.62,0.51,1.19,0.8,1.74c0.02,0.03,0.03,0.06,0.04,0.09c0.28,0.52,0.57,1.01,0.88,1.46
			c0.17,0.24,0.33,0.48,0.5,0.7c0.15,0.2,0.3,0.38,0.43,0.57c0.03,0.03,0.06,0.07,0.08,0.1c0.17,0.19,0.33,0.38,0.49,0.56l0.04,0.04
			c0.17,0.19,0.36,0.38,0.53,0.57c0.1,0.1,0.2,0.19,0.3,0.29c0.09,0.08,0.17,0.17,0.26,0.24c-0.01-0.01-0.03-0.03-0.04-0.04
			C203.99,112.49,204.21,112.69,204.43,112.88z M183.52,110.57c-0.01,0.01-0.02,0.02-0.03,0.03c-0.02,0.02-0.04,0.04-0.07,0.08
			c-0.07,0.07-0.15,0.14-0.23,0.22c-0.01,0-0.02,0.01-0.03,0.03c-0.22,0.2-0.45,0.38-0.7,0.57c-0.84,0.58-1.84,1.05-2.94,1.41
			c-0.29,0.1-0.59,0.18-0.9,0.26c-0.91,0.22-1.88,0.37-2.86,0.43c1.24,2.01,4.39,3.87,6.72,5.04c-0.34-0.66-0.57-1.39-0.69-2.21
			c2.07,3.45,7.69,4.4,11.66,4.63c-0.65-0.89-1.07-2.04-1.12-3.63c0.97,3.86,11.54,3.34,14.54,8.43c0.01-0.07,0.01-0.12,0.01-0.18
			C207.67,107.99,192.9,117.36,183.52,110.57z M203.26,126.78c-4.44-4.32-10.26-1.78-16.23-4.31c-1.41,2.24-5.91,8.51-12.16,8.39
			c-6.25,0.11-10.75-6.15-12.16-8.39c-5.97,2.52-11.79-0.02-16.23,4.31c-0.12,1.39-0.33,6.92,3.21,11.87
			c0.25,0.36,0.52,0.7,0.82,1.05c0.11,0.13,0.23,0.27,0.36,0.4c0.25,0.29,0.52,0.57,0.82,0.85c-1.23-3.8-1.05-8.78,1.1-11.74
			c0.01,0,0.01-0.01,0.01-0.01c-0.52,7.97,1.8,11.73,9.52,15.15c-1.23-5.04-1.17-11.18,1.99-16c-1.71,9.04-0.51,11.6,2.2,14.22
			c0.25,0.23,0.51,0.48,0.78,0.72c0.27,0.24,0.55,0.5,0.84,0.76c0.3,0.25,0.59,0.52,0.9,0.81c1.72,1.57,3.73,3.59,5.85,6.89
			c2.11-3.3,4.12-5.32,5.85-6.89c0.31-0.29,0.61-0.56,0.9-0.81c0.3-0.26,0.57-0.51,0.84-0.76c0.27-0.24,0.53-0.49,0.78-0.72
			c2.71-2.62,3.91-5.18,2.2-14.22c3.16,4.82,3.22,10.96,1.98,16c7.72-3.43,10.04-7.18,9.52-15.15c0,0,0,0.01,0.01,0.01
			c2.15,2.97,2.32,7.94,1.1,11.74c0.3-0.29,0.58-0.57,0.84-0.87c0.12-0.14,0.24-0.28,0.36-0.42c0.29-0.34,0.55-0.68,0.79-1.02v-0.01
			C203.59,133.69,203.37,128.16,203.26,126.78z M171.11,113.16c-0.3-0.08-0.61-0.17-0.9-0.26c-1.1-0.36-2.11-0.83-2.94-1.41
			c-0.25-0.18-0.49-0.37-0.7-0.57c-0.02-0.02-0.03-0.03-0.03-0.03c-0.08-0.08-0.16-0.15-0.23-0.22c-0.03-0.03-0.05-0.06-0.07-0.08
			c-0.01-0.01-0.02-0.02-0.03-0.03c-9.38,6.78-24.15-2.58-23.36,15.09c0,0.06,0,0.11,0.01,0.18c2.99-5.09,13.57-4.57,14.54-8.43
			c-0.05,1.59-0.47,2.74-1.12,3.63c3.97-0.23,9.59-1.17,11.66-4.63c-0.11,0.82-0.35,1.55-0.69,2.21c2.33-1.17,5.49-3.03,6.72-5.04
			C172.99,113.52,172.02,113.37,171.11,113.16z M193.12,95.98c-3.89-3.91-10.7-0.43-11.26,1.81c4.82-3.05,8.92-2.2,11.27-1.8
			C193.14,95.98,193.13,95.98,193.12,95.98z M156.61,95.98c-0.01,0.01-0.02,0.01-0.02,0.01c2.36-0.4,6.45-1.25,11.27,1.8
			C167.31,95.55,160.5,92.07,156.61,95.98z M151.65,97.59c-0.77,0.54-1.54,1.11-2.28,1.71c-0.31,1.91-1.52,8.44-4.07,13.57
			c0.22-0.18,0.44-0.39,0.66-0.59c-0.01,0.01-0.03,0.03-0.04,0.04c0.09-0.08,0.17-0.17,0.26-0.24c0.1-0.1,0.19-0.19,0.3-0.29
			c0.17-0.18,0.36-0.37,0.53-0.57c0.01-0.01,0.03-0.03,0.04-0.04c0.16-0.18,0.32-0.37,0.49-0.57c0.11-0.15,0.23-0.29,0.36-0.44
			c0.04-0.07,0.1-0.14,0.16-0.21c0.17-0.23,0.33-0.46,0.5-0.7c0.3-0.46,0.6-0.95,0.88-1.46c0.01-0.03,0.03-0.06,0.04-0.09
			c0.3-0.55,0.56-1.13,0.8-1.75c0.01-0.02,0.01-0.03,0.02-0.03c0.11-0.3,0.23-0.61,0.33-0.92c0.01-0.03,0.02-0.07,0.03-0.1
			c0.07-0.23,0.15-0.48,0.22-0.72c0.03-0.12,0.07-0.24,0.1-0.37c0.07-0.29,0.14-0.57,0.21-0.88c0.06-0.29,0.12-0.58,0.17-0.88
			c0.01-0.02,0.01-0.04,0.01-0.06c0.03-0.13,0.04-0.25,0.06-0.38c0.04-0.26,0.08-0.53,0.1-0.8c0.01-0.05,0.02-0.11,0.02-0.17
			c0.04-0.4,0.08-0.82,0.1-1.24c0.03-0.42,0.03-0.85,0.03-1.3C151.66,97.94,151.65,97.77,151.65,97.59z M188.98,97.96
			c-0.7,0-1.28,0.96-1.28,2.13c0,1.18,0.57,2.14,1.28,2.14c0.71,0,1.29-0.96,1.29-2.14C190.27,98.92,189.7,97.96,188.98,97.96z
			 M162.99,98.04c-0.71,0-1.29,0.96-1.29,2.13c0,1.18,0.57,2.13,1.29,2.13c0.7,0,1.28-0.95,1.28-2.13
			C164.27,98.99,163.7,98.04,162.99,98.04z"/>
		<path class="st18" d="M199.47,119.64c-5.67-1.98-6.46-4.09-6.46-4.09c-2.47,1.86-1.11,4.41-1.11,4.41
			c-6.78-1.17-9.25-5.79-9.25-5.79c-1.58,1.07-1.63,2.14-1.63,2.14c-0.92-1.9,1.84-5.02,2.4-5.63c0.03-0.03,0.05-0.06,0.07-0.08
			c-0.1,0.1-0.19,0.19-0.3,0.3c-0.01,0-0.02,0.01-0.03,0.03c-0.22,0.2-0.45,0.38-0.7,0.57c-0.84,0.58-1.84,1.05-2.94,1.41
			c-0.29,0.1-0.59,0.18-0.9,0.26c-0.91,0.22-1.88,0.37-2.86,0.43c1.24,2.01,4.39,3.87,6.72,5.04c-0.34-0.66-0.57-1.39-0.69-2.21
			c2.07,3.45,7.69,4.4,11.66,4.63c-0.65-0.89-1.07-2.04-1.12-3.63c0.97,3.86,11.54,3.34,14.54,8.43c0.01-0.07,0.01-0.12,0.01-0.18
			C205.63,122.96,202.94,120.84,199.47,119.64z M199.93,105.47c0.24,0.46,1.19,1.19,1.31,1.29c-1.17-2.55-0.89-7.45-0.89-7.45
			c-0.74-0.6-1.5-1.17-2.29-1.71v0.48c0,0.44,0.01,0.88,0.03,1.3c0.02,0.43,0.05,0.84,0.1,1.24c0,0.06,0.01,0.11,0.02,0.17
			c0.03,0.28,0.06,0.55,0.1,0.82c0.02,0.12,0.03,0.25,0.06,0.37c0,0.03,0,0.04,0.01,0.06c0.04,0.29,0.1,0.57,0.16,0.84
			c0.06,0.31,0.13,0.62,0.22,0.91c0.03,0.13,0.07,0.26,0.1,0.39c0.07,0.23,0.14,0.47,0.21,0.7c0.02,0.07,0.04,0.14,0.07,0.21
			c0.1,0.28,0.19,0.55,0.3,0.82c0,0.02,0.01,0.03,0.02,0.05c0.24,0.61,0.51,1.19,0.8,1.74c0.02,0.03,0.03,0.06,0.04,0.09
			c0.28,0.52,0.57,1.01,0.88,1.46c0.17,0.24,0.33,0.48,0.5,0.7c0.15,0.2,0.3,0.38,0.43,0.57c0.03,0.03,0.06,0.07,0.08,0.1
			c0.17,0.19,0.33,0.38,0.49,0.56l0.04,0.04c0.17,0.19,0.36,0.38,0.53,0.57c0.1,0.1,0.2,0.19,0.3,0.29
			c0.09,0.08,0.17,0.17,0.26,0.24C201.93,110.39,200.14,106.01,199.93,105.47z M196.96,129.21c2.15,2.97,2.32,7.94,1.1,11.74
			c0.3-0.29,0.58-0.57,0.84-0.87c0.12-0.14,0.24-0.28,0.36-0.42c0.29-0.34,0.55-0.68,0.79-1.02v-0.01
			C199.98,132,197.13,129.37,196.96,129.21z M196.95,129.2c-0.06,4.62-5.8,7.25-5.8,7.25c-0.63-5.16-5.71-8.09-5.71-8.09
			c3.16,4.82,3.22,10.96,1.98,16C195.15,140.93,197.46,137.17,196.95,129.2z M185.44,128.36c0,0-0.29,8.7-6.13,10.88
			c0,0,2.23-2.69,2.78-7.85c0,0-2.66,3.85-7.23,5.16v15.2c2.11-3.3,4.12-5.32,5.85-6.89c0.31-0.29,0.61-0.56,0.9-0.81
			c0.3-0.26,0.57-0.51,0.84-0.76c0.27-0.24,0.53-0.49,0.78-0.72C185.96,139.96,187.16,137.4,185.44,128.36z M151.65,97.59
			c-0.77,0.54-1.54,1.11-2.28,1.71c0,0,0.28,4.91-0.89,7.45c0.12-0.1,1.07-0.83,1.31-1.29c-0.21,0.54-2,4.91-3.88,6.85
			c0.09-0.08,0.17-0.17,0.26-0.24c0.1-0.1,0.19-0.19,0.3-0.29c0.17-0.18,0.36-0.37,0.53-0.57c0.01-0.01,0.03-0.03,0.04-0.04
			c0.16-0.18,0.32-0.37,0.49-0.57c0.11-0.15,0.23-0.29,0.36-0.44c0.04-0.07,0.1-0.14,0.16-0.21c0.17-0.23,0.33-0.46,0.5-0.7
			c0.3-0.46,0.6-0.95,0.88-1.46c0.01-0.03,0.03-0.06,0.04-0.09c0.29-0.55,0.56-1.13,0.8-1.75c0.01-0.02,0.01-0.03,0.02-0.03
			c0.11-0.3,0.23-0.61,0.33-0.92c0.01-0.03,0.02-0.07,0.03-0.1c0.07-0.23,0.15-0.48,0.22-0.72c0.03-0.12,0.07-0.24,0.1-0.37
			c0.07-0.29,0.14-0.57,0.21-0.88c0.06-0.29,0.12-0.58,0.17-0.88c0.01-0.02,0.01-0.04,0.01-0.06c0.03-0.13,0.04-0.25,0.06-0.38
			c0.04-0.26,0.08-0.53,0.1-0.8c0.01-0.05,0.02-0.11,0.02-0.17c0.04-0.4,0.08-0.82,0.1-1.24c0.03-0.42,0.03-0.85,0.03-1.3
			C151.66,97.94,151.65,97.77,151.65,97.59z M171.11,113.16c-0.3-0.08-0.6-0.17-0.9-0.26c-1.1-0.36-2.11-0.83-2.94-1.41
			c-0.25-0.18-0.49-0.37-0.7-0.57c-0.02-0.02-0.03-0.03-0.03-0.03c-0.1-0.1-0.2-0.2-0.3-0.3c0.02,0.02,0.04,0.04,0.07,0.08
			c0.57,0.61,3.32,3.73,2.4,5.63c0,0-0.04-1.07-1.63-2.14c0,0-2.47,4.62-9.25,5.79c0,0,1.36-2.55-1.11-4.41c0,0-0.79,2.11-6.46,4.09
			c-3.46,1.21-6.16,3.32-7.4,6.03c0,0.06,0,0.11,0.01,0.18c2.99-5.09,13.57-4.57,14.54-8.43c-0.05,1.59-0.47,2.74-1.12,3.63
			c3.97-0.23,9.59-1.17,11.66-4.63c-0.11,0.82-0.35,1.55-0.69,2.21c2.33-1.17,5.49-3.03,6.72-5.04
			C172.99,113.52,172.02,113.37,171.11,113.16z M152.77,129.21c-0.17,0.16-3.02,2.8-3.09,9.44c0.25,0.36,0.52,0.7,0.82,1.05
			c0.11,0.13,0.23,0.27,0.36,0.4c0.25,0.29,0.52,0.57,0.82,0.85C150.45,137.15,150.62,132.18,152.77,129.21z M164.29,128.36
			c0,0-5.07,2.93-5.71,8.09c0,0-5.74-2.63-5.8-7.25c-0.52,7.97,1.8,11.73,9.52,15.15C161.07,139.32,161.12,133.18,164.29,128.36z
			 M167.64,131.4c0.56,5.16,2.78,7.85,2.78,7.85c-5.85-2.18-6.13-10.88-6.13-10.88c-1.71,9.04-0.51,11.6,2.2,14.22
			c0.25,0.23,0.51,0.48,0.78,0.72c0.27,0.24,0.55,0.5,0.84,0.76c0.3,0.25,0.59,0.52,0.9,0.81c1.72,1.57,3.73,3.59,5.85,6.89v-15.2
			C170.3,135.25,167.64,131.4,167.64,131.4z M193.12,95.98c-0.31-0.1-4.01-1.33-8.25-0.1c0,0-0.11-0.22,0.39-0.63
			c0,0-2.31,1.01-3.39,2.55c4.82-3.05,8.92-2.2,11.27-1.8C193.14,95.98,193.13,95.98,193.12,95.98z M164.47,95.24
			c0.5,0.42,0.39,0.63,0.39,0.63c-4.24-1.23-7.94,0-8.25,0.1c-0.01,0.01-0.02,0.01-0.02,0.01c2.36-0.4,6.45-1.25,11.27,1.8
			C166.78,96.25,164.47,95.24,164.47,95.24z"/>
		<path class="st19" d="M161.61,51.56c-15.53,4.94-27.32,18.23-30.11,34.6c3,0.45,6.03,1.24,8.76,2.35
			c3.02-6.92,7.75-13.82,13.67-18.41C158.22,65.52,163.25,58.24,161.61,51.56z M131.6,99.83c-0.17-0.51-0.33-1.04-0.5-1.56
			c0.7,6.77,2.95,13.08,6.36,18.59c0.77-0.78,1.64-2.1,2.04-2.73c0.6-0.95,1.19-1.97,1.71-3.01
			C135.82,109.44,133.41,105.29,131.6,99.83z M218.19,99.83c-0.81,2.57-1.77,5.12-3.47,7.25c-1.6,2.01-3.6,3.31-5.94,4.04
			c0.52,1.04,1.12,2.07,1.72,3.02c0.41,0.63,1.28,1.95,2.04,2.73c3.6-5.8,5.9-12.51,6.46-19.7
			C218.72,98.06,218.46,98.96,218.19,99.83z M204.51,60.81c4.07,8.44,6.37,17.74,6.65,27.17c2.34-0.84,4.85-1.44,7.35-1.82
			C216.8,76.16,211.74,67.31,204.51,60.81z M143.64,92.05c0.35,0.22,0.68,0.43,1,0.66c0.03,0.02,0.05,0.04,0.08,0.06
			c0.1,0.07,0.2,0.14,0.3,0.21c0,0,8.14-18.95,23.2-27.24C163.72,68.11,150,74.5,143.64,92.05z"/>
		<path class="st20" d="M182.92,41.13c-0.32-0.23-0.64-0.47-0.97-0.7c-0.97-0.7-1.96-1.35-2.95-1.96c-0.79-0.49-1.59-0.94-2.39-1.36
			c-0.26-0.14-0.53-0.28-0.79-0.41c-0.27-0.14-0.54-0.27-0.81-0.39c-0.5-0.24-1.01-0.47-1.52-0.69c-0.04-0.02-0.1-0.03-0.14-0.06
			c-0.24-0.1-0.5-0.2-0.74-0.3c-0.27-0.1-0.53-0.21-0.8-0.3c-0.27-0.1-0.53-0.2-0.8-0.29c-5.25-1.78-10.41-2.13-14.94-0.78
			c-3.38,1.01-6.44,3-8.93,6.07c1.3-1.37,12.87-12.42,36.54,1.75C183.42,41.51,183.17,41.32,182.92,41.13z M168.21,65.75l-3.38-0.55
			c0,0,11.32-24.88-11.61-25.14h-0.04c0.08,0.01,0.16,0.01,0.23,0.02c1.26,0.07,2.49,0.3,3.65,0.69c0.15,0.05,0.3,0.1,0.44,0.16
			c0.34,0.12,0.67,0.26,1,0.42c0.16,0.07,0.3,0.15,0.46,0.22c0.26,0.14,0.51,0.28,0.76,0.43c0.15,0.09,0.3,0.17,0.43,0.27
			c0.44,0.28,0.87,0.59,1.27,0.93c0.14,0.11,0.27,0.23,0.4,0.34c0.14,0.12,0.26,0.23,0.39,0.37c0.13,0.12,0.25,0.24,0.37,0.37
			c0.12,0.12,0.24,0.25,0.36,0.39c0.32,0.37,0.63,0.75,0.91,1.16c0.11,0.15,0.22,0.3,0.31,0.46c0.1,0.16,0.2,0.31,0.29,0.47
			c0.08,0.12,0.14,0.24,0.21,0.37c0.47,0.86,0.85,1.79,1.14,2.77c1.39,4.78,0.33,10.87-4.52,17.74
			C163.41,66.72,165.71,66.06,168.21,65.75z M170.99,75.2c0-0.26,0.01-0.5,0.03-0.75c0.02-0.29,0.05-0.56,0.1-0.83
			c0.03-0.19,0.06-0.38,0.1-0.57c0-0.02,0-0.03,0.01-0.05c0.04-0.2,0.1-0.4,0.15-0.6c0-0.01,0.01-0.02,0.01-0.03
			c-2.96,5.31-26.37,20.62-26.37,20.62c0.23,0.17,0.44,0.34,0.65,0.51c7.78-6.34,17.56-9.7,27.48-10.06
			C171.59,79.97,170.99,77.33,170.99,75.2z M206.68,88.5c-0.01-0.25-0.02-0.5-0.03-0.74c-0.01-0.41-0.03-0.81-0.05-1.22
			c0-0.05,0-0.11-0.01-0.17c-0.03-0.43-0.05-0.85-0.1-1.28c-0.01-0.26-0.03-0.53-0.06-0.79c-0.03-0.46-0.09-0.91-0.14-1.37
			c-0.06-0.53-0.13-1.06-0.2-1.59c-0.01-0.09-0.03-0.17-0.03-0.24c-0.05-0.35-0.1-0.7-0.16-1.04c-0.14-0.85-0.3-1.7-0.47-2.53
			c-0.09-0.45-0.18-0.9-0.29-1.34c-0.11-0.51-0.23-1.03-0.37-1.53c-0.17-0.66-0.34-1.3-0.53-1.96c-0.13-0.45-0.26-0.9-0.41-1.35
			c-0.15-0.49-0.3-0.96-0.47-1.44c-0.18-0.57-0.38-1.12-0.59-1.68c-0.19-0.51-0.38-1.02-0.59-1.51c-0.17-0.43-0.34-0.84-0.52-1.26
			c-0.07-0.18-0.15-0.37-0.23-0.55c-0.38-0.88-0.79-1.74-1.21-2.59c-0.23-0.48-0.48-0.95-0.72-1.41c-0.17-0.31-0.32-0.62-0.49-0.91
			c-0.29-0.51-0.57-1.03-0.87-1.53c-0.17-0.3-0.36-0.6-0.54-0.9c-0.16-0.26-0.32-0.52-0.49-0.78c-0.26-0.42-0.53-0.84-0.8-1.24
			c-0.02-0.03-0.03-0.04-0.04-0.07c-0.27-0.4-0.54-0.8-0.82-1.19c-0.27-0.38-0.54-0.77-0.81-1.14c-0.07-0.09-0.13-0.17-0.19-0.26
			c-0.07-0.09-0.13-0.17-0.19-0.25c0.01,0.01,0.02,0.03,0.02,0.03c13.19,20.61-14.4,36.83-15.55,10.09
			c-0.06,0.16-0.11,0.31-0.17,0.46c-0.23,0.62-0.5,1.19-0.8,1.73c-0.15,0.27-0.3,0.53-0.45,0.79c-0.17,0.26-0.33,0.53-0.5,0.78
			c-0.2,0.31-0.41,0.62-0.62,0.91c-0.31,0.44-0.63,0.89-0.92,1.32c-0.1,0.14-0.19,0.27-0.28,0.41c-0.3,0.44-0.59,0.9-0.84,1.37
			c-0.09,0.16-0.17,0.3-0.24,0.46c-0.16,0.31-0.3,0.63-0.43,0.97c-0.05,0.14-0.1,0.27-0.15,0.41c-0.14,0.42-0.25,0.86-0.32,1.32
			c-0.03,0.14-0.05,0.28-0.07,0.43c-0.03,0.18-0.04,0.37-0.06,0.57v0.04c-0.01,0.2-0.02,0.4-0.02,0.61c0,2.08,0.62,4.65,2.22,8.08
			c10.48,0.03,20.96,3.39,29.25,10.09c0.72-0.59,1.5-1.13,2.34-1.63C206.71,90.74,206.71,89.61,206.68,88.5z M201.31,94.81
			c-0.19-0.16-0.39-0.3-0.6-0.45c-0.29-0.22-0.57-0.43-0.86-0.63c-0.23-0.17-0.47-0.33-0.7-0.49c-0.81-0.56-1.64-1.07-2.47-1.56
			c-0.26-0.16-0.51-0.3-0.77-0.44c-0.27-0.16-0.55-0.3-0.83-0.45c-0.45-0.24-0.9-0.47-1.36-0.7c-0.23-0.11-0.48-0.23-0.72-0.34
			c-1.28-0.6-2.57-1.13-3.89-1.59c-0.3-0.1-0.58-0.2-0.88-0.3c-0.58-0.2-1.17-0.37-1.76-0.54c-0.27-0.08-0.55-0.16-0.82-0.23
			c-0.43-0.11-0.85-0.22-1.28-0.31c-0.49-0.11-0.98-0.22-1.47-0.31c-0.94-0.18-1.87-0.33-2.82-0.44c-0.56-0.07-1.12-0.13-1.68-0.17
			c-0.3-0.03-0.61-0.05-0.9-0.07c-0.22-0.02-0.44-0.03-0.66-0.03c-1.9-0.1-3.79-0.06-5.67,0.1c-0.57,0.04-1.12,0.1-1.68,0.17
			c-0.29,0.03-0.58,0.08-0.87,0.12c-0.3,0.04-0.58,0.09-0.88,0.14c-1.17,0.19-2.35,0.44-3.51,0.74c-0.27,0.07-0.55,0.15-0.82,0.23
			c-0.14,0.03-0.28,0.08-0.43,0.12c-0.23,0.07-0.47,0.14-0.7,0.21c-1.47,0.45-2.92,0.99-4.35,1.61c-0.22,0.1-0.43,0.2-0.64,0.3
			c-0.6,0.27-1.19,0.56-1.78,0.86c-0.27,0.15-0.54,0.29-0.81,0.43c-0.54,0.29-1.08,0.6-1.61,0.92c-0.53,0.32-1.05,0.65-1.57,1
			c-0.26,0.17-0.52,0.35-0.77,0.53c-0.26,0.18-0.51,0.36-0.77,0.55c-0.25,0.18-0.5,0.37-0.76,0.57c-0.24,0.18-0.5,0.38-0.74,0.58
			c-0.07,0.05-0.13,0.1-0.2,0.16v0.01c0.05,0.08,0.1,0.14,0.16,0.21c0.27-0.18,0.55-0.37,0.83-0.55c0.01-0.01,0.01-0.01,0.02-0.01
			c14.74-11.3,35.2-11.5,50.64-0.54c0,0.01,0.01,0.01,0.01,0.01c0.23,0.15,0.45,0.3,0.68,0.44c0.31,0.21,0.63,0.43,0.94,0.64
			c0.04-0.07,0.1-0.13,0.14-0.2C201.57,95.01,201.44,94.91,201.31,94.81z M201.7,95.11c-0.04,0.07-0.1,0.13-0.14,0.2
			c-0.31-0.22-0.63-0.43-0.94-0.64c-0.23-0.15-0.45-0.3-0.68-0.44c0,0-0.01,0-0.01-0.01c-14.6-9.32-35.92-9.14-50.64,0.54
			c-0.01,0-0.01,0-0.02,0.01c-0.28,0.18-0.56,0.37-0.83,0.55c-0.05-0.07-0.1-0.13-0.16-0.21V95.1c-0.17,0.15-0.36,0.3-0.54,0.45
			c0.25,0.3,0.48,0.59,0.7,0.9c15.28-10.6,38.23-10.61,53.11,0c0.21-0.31,0.44-0.61,0.69-0.9C202.07,95.4,201.89,95.25,201.7,95.11z
			"/>
		<path class="st21" d="M165.39,121.92c0.3-0.09,0.92-0.28,1.72-0.57c1.48,3.14,4.6,4.73,7.75,4.77c3.15-0.04,6.27-1.64,7.75-4.77
			c0.8,0.29,1.42,0.48,1.72,0.57c-3.08,4.57-6.28,6.88-9.48,6.94C171.67,128.8,168.47,126.49,165.39,121.92L165.39,121.92z
			 M206.92,104.64c0.29-2.85,5.4-8.68,5.4-8.68c-3.05-0.1-6.16,1.81-6.16,1.81c0.23-0.69,1.73-2.27,1.73-2.27
			c-2.15,0.5-4.43,2.97-4.71,3.28c-0.02,0.03-0.03,0.03-0.03,0.03c0.1,0.58,0.29,1.67,0.57,3.03c1.65-3.84,6.99-4.79,6.99-4.79
			c-5.68,4.31-5.56,10.21-5.56,10.21c4.27-1.59,3.66-5.5,3.66-5.5C208.37,103.69,206.92,104.64,206.92,104.64z M197.95,109.35
			c-0.12-0.21-0.23-0.43-0.33-0.63c-0.18-0.35-0.35-0.7-0.5-1.06c-0.12-0.28-0.24-0.57-0.35-0.85c-0.26-0.69-0.49-1.39-0.68-2.11
			c-0.08-0.28-0.15-0.56-0.21-0.84c0,0-0.5,4.82-4.93,5.35c0,0,1.75-1.27,1.88-3.98c0,0-1.46,2.67-3.23,3.12
			c-0.43,0.23-0.88,0.37-1.37,0.43c-0.13,0.02-0.26,0.03-0.4,0.03h-0.06c-1.1-0.02-2.11-0.53-2.88-1.37v0.05c0,0,0,0,0,0.01
			c0,0.08-0.01,0.16-0.02,0.23c-0.01,0.1-0.02,0.2-0.03,0.3c2.58,2.03,5.88,2.3,9.36,2.59c1.59,0.13,3.23,0.27,4.88,0.57
			C198.67,110.59,198.3,109.98,197.95,109.35z M182.29,106.98c-0.03-0.1-0.05-0.21-0.1-0.31c-0.03-0.09-0.09-0.18-0.15-0.28
			c-0.07-0.11-0.15-0.22-0.25-0.33c-0.31,0.35-0.74,0.67-1.3,0.98c-1.65,0.92-3.68,1.29-5.63,1.25c-2.87-0.05-5.57-0.97-6.66-2.24
			c-0.04,0.05-0.08,0.1-0.12,0.15c-0.03,0.05-0.07,0.1-0.1,0.15c-0.03,0.05-0.06,0.1-0.09,0.16c-0.14,0.25-0.22,0.52-0.22,0.79
			c0,0.13,0.02,0.27,0.06,0.4c0,0.04,0.02,0.09,0.03,0.13c0.06,0.17,0.16,0.35,0.28,0.52c0.07,0.1,0.14,0.18,0.23,0.27
			c0.05,0.06,0.11,0.12,0.18,0.18c0.05,0.05,0.11,0.1,0.17,0.15c0.17,0.14,0.35,0.26,0.54,0.39c0.1,0.06,0.19,0.11,0.3,0.17
			c0.47,0.26,1.02,0.49,1.62,0.68c0.15,0.04,0.3,0.09,0.45,0.13c0.27,0.07,0.53,0.14,0.81,0.19c0.16,0.03,0.31,0.06,0.47,0.09
			c0.18,0.03,0.37,0.05,0.55,0.08c0.06,0.01,0.12,0.02,0.18,0.03c0.17,0.02,0.34,0.03,0.51,0.04c0.04,0.01,0.09,0.01,0.13,0.01
			c0.14,0.02,0.28,0.02,0.43,0.03c0.05,0,0.1,0.01,0.16,0c0.03,0.01,0.06,0.01,0.1,0.01h0.25c1.87,0,3.79-0.37,5.38-1.26
			c1.23-0.68,1.84-1.45,1.84-2.23C182.33,107.19,182.32,107.08,182.29,106.98z M186.73,92.23c-0.1-0.03-0.18-0.05-0.27-0.08
			c-0.43-0.12-0.85-0.23-1.28-0.34c-0.2-0.05-0.39-0.1-0.59-0.15c-0.33-0.08-0.66-0.16-0.99-0.22c-0.15-0.04-0.3-0.07-0.45-0.1
			c-0.27-0.06-0.54-0.11-0.81-0.16c-0.48-0.1-0.96-0.17-1.44-0.23c-0.31-0.05-0.63-0.1-0.94-0.13c-0.43-0.06-0.86-0.1-1.3-0.14
			c-0.26-0.03-0.52-0.05-0.79-0.07c-0.38-0.03-0.77-0.05-1.17-0.07c-0.06-0.01-0.12-0.01-0.18-0.01c-0.55-0.03-1.1-0.04-1.65-0.04
			c-0.55,0-1.1,0.02-1.65,0.04c-0.06,0-0.12,0-0.18,0.01c-0.39,0.02-0.78,0.04-1.17,0.07c-0.27,0.02-0.53,0.04-0.79,0.07
			c-0.43,0.03-0.86,0.08-1.3,0.14c-0.31,0.03-0.63,0.08-0.94,0.13c-0.49,0.07-0.97,0.15-1.44,0.23c-0.27,0.04-0.54,0.1-0.81,0.16
			c-0.16,0.03-0.3,0.05-0.45,0.1c-0.33,0.06-0.66,0.14-0.99,0.22c-0.2,0.04-0.39,0.1-0.59,0.15c-0.43,0.1-0.85,0.22-1.28,0.34
			c-0.09,0.03-0.17,0.05-0.27,0.08c-0.5,0.15-1,0.3-1.5,0.47h0.14c0.09,0,0.21,0,0.36,0.01c1.79,0.04,8.05,0.59,12.87,5.63
			c4.81-5.04,11.07-5.58,12.87-5.63c0.15-0.01,0.27-0.01,0.36-0.01h0.14C187.73,92.53,187.23,92.37,186.73,92.23z M146.54,98.78
			c-0.28-0.3-2.56-2.77-4.71-3.28c0,0,1.5,1.58,1.73,2.27c0,0-3.11-1.91-6.16-1.81c0,0,5.11,5.83,5.4,8.68c0,0-1.45-0.95-1.91-2.88
			c0,0-0.61,3.91,3.66,5.5c0,0,0.11-5.91-5.56-10.21c0,0,5.34,0.95,6.99,4.79c0.29-1.36,0.48-2.44,0.57-3.03
			C146.57,98.81,146.56,98.8,146.54,98.78z M183.61,121.7c-5.75,7.83-11.73,7.83-17.49,0c-0.31,0.1-0.57,0.18-0.72,0.23
			c6.2,9.19,12.74,9.19,18.95,0C184.18,121.88,183.93,121.8,183.61,121.7z M164.84,107.72c-0.01-0.1-0.02-0.2-0.02-0.3
			c-0.03,0.03-0.05,0.05-0.08,0.08c-0.11,0.12-0.23,0.23-0.35,0.32c-0.1,0.09-0.19,0.17-0.3,0.23c-0.05,0.03-0.1,0.07-0.16,0.1
			c-0.08,0.05-0.17,0.1-0.25,0.15c-0.1,0.06-0.21,0.11-0.32,0.16c-0.07,0.04-0.15,0.07-0.23,0.1c-0.05,0.03-0.11,0.04-0.17,0.05
			c-0.09,0.03-0.18,0.06-0.28,0.08c0,0-0.01,0.01-0.02,0c-0.12,0.03-0.25,0.06-0.38,0.07c-0.14,0.02-0.28,0.03-0.42,0.03
			c-0.63,0-1.23-0.16-1.77-0.45c-1.77-0.45-3.24-3.12-3.24-3.12c0.14,2.71,1.89,3.98,1.89,3.98c-4.43-0.53-4.93-5.35-4.93-5.35
			c-0.06,0.28-0.13,0.56-0.21,0.84c-0.19,0.72-0.42,1.43-0.68,2.11c-0.1,0.29-0.23,0.57-0.35,0.85c-0.15,0.36-0.31,0.71-0.5,1.06
			c-0.1,0.21-0.21,0.43-0.33,0.63c-0.35,0.63-0.72,1.24-1.14,1.83c1.65-0.3,3.29-0.43,4.88-0.57c3.48-0.3,6.78-0.57,9.36-2.59
			C164.86,107.92,164.85,107.81,164.84,107.72z M175,104.63c-2.32,0-4.2,0.27-4.2,0.59c0,0.33,1.88,0.59,4.2,0.59
			c2.33,0,4.21-0.26,4.21-0.59C179.21,104.9,177.33,104.63,175,104.63z M134.31,92.26c3.78,0.19,9.22,3.34,9.56,3.54
			c-0.05-0.05-0.11-0.1-0.17-0.16c-0.34-0.28-0.71-0.57-1.13-0.85c-0.49-0.34-1.03-0.69-1.62-1.02c-0.2-0.11-0.4-0.23-0.61-0.33
			c-0.42-0.23-0.87-0.44-1.34-0.65c-0.23-0.11-0.48-0.22-0.72-0.31c-0.25-0.1-0.5-0.2-0.77-0.3c-0.26-0.1-0.53-0.2-0.81-0.29
			c-0.21-0.08-0.42-0.15-0.63-0.21c-0.17-0.05-0.34-0.1-0.51-0.15c-0.34-0.11-0.7-0.21-1.06-0.3c-0.2-0.05-0.4-0.1-0.61-0.15
			c-0.28-0.07-0.56-0.13-0.84-0.19c0.26,0.37,0.5,0.76,0.7,1.15c0.04,0.07,0.08,0.13,0.11,0.2c0.07,0.13,0.13,0.26,0.19,0.39
			c0.1,0.18,0.17,0.36,0.25,0.54c0.56,1.24,0.96,2.55,1.32,3.84c0.14,0.48,0.28,0.96,0.42,1.43c0.08,0.26,0.15,0.51,0.23,0.77
			c0.08,0.25,0.16,0.5,0.24,0.76c0.08,0.25,0.17,0.5,0.25,0.75c0.01,0.01,0.01,0.02,0.01,0.03c0.1,0.23,0.18,0.47,0.28,0.7
			c0.1,0.23,0.2,0.45,0.3,0.68c0,0.02,0.01,0.03,0.02,0.04c0.09,0.17,0.17,0.33,0.25,0.49c0.05,0.11,0.11,0.22,0.17,0.31
			c0.22,0.37,0.44,0.72,0.7,1.05c0.02,0.02,0.03,0.03,0.04,0.04c0-0.01,0-0.01-0.01-0.02C138.47,103.59,136.91,95.93,134.31,92.26z
			 M215.84,91.1c-0.21,0.04-0.41,0.1-0.61,0.15c-0.37,0.09-0.72,0.18-1.06,0.3c-0.17,0.04-0.34,0.1-0.51,0.15
			c-0.21,0.06-0.42,0.13-0.63,0.21c-0.28,0.09-0.55,0.18-0.81,0.29c-0.26,0.1-0.51,0.19-0.77,0.3c-0.24,0.1-0.49,0.2-0.72,0.31
			c-0.47,0.21-0.92,0.43-1.34,0.65c-0.21,0.1-0.41,0.22-0.61,0.33c-0.59,0.33-1.13,0.68-1.62,1.02c-0.42,0.29-0.79,0.57-1.13,0.85
			c-0.06,0.05-0.12,0.1-0.17,0.16c0.34-0.2,5.78-3.35,9.56-3.54c-2.6,3.67-4.16,11.33-4.24,11.8c-0.01,0.01-0.01,0.01-0.01,0.02
			l0.04-0.04c0.26-0.33,0.49-0.69,0.7-1.05c0.06-0.1,0.12-0.2,0.17-0.31c0.09-0.16,0.17-0.32,0.25-0.49
			c0.01-0.02,0.02-0.03,0.02-0.04c0.1-0.23,0.21-0.45,0.3-0.68c0.1-0.23,0.18-0.46,0.28-0.7c0-0.01,0-0.02,0.01-0.03
			c0.09-0.25,0.17-0.5,0.25-0.75c0.09-0.25,0.17-0.5,0.24-0.76c0.09-0.26,0.16-0.51,0.23-0.77c0.14-0.47,0.28-0.95,0.42-1.43
			c0.37-1.3,0.77-2.6,1.32-3.84c0.08-0.18,0.16-0.36,0.25-0.54c0.06-0.13,0.12-0.26,0.19-0.39c0.03-0.07,0.07-0.13,0.11-0.2
			c0.21-0.39,0.44-0.77,0.7-1.15C216.39,90.97,216.11,91.03,215.84,91.1z M195.74,103.18c-0.14-0.72-0.25-1.47-0.34-2.23
			c-0.03-0.25-0.05-0.5-0.07-0.75c-0.03-0.25-0.04-0.5-0.05-0.76c-0.01-0.19-0.02-0.39-0.03-0.59c-0.01-0.27-0.02-0.55-0.02-0.83
			c0-0.26,0-0.51,0.01-0.77v-0.01c-0.27-0.02-0.54-0.03-0.79-0.06c-0.1-0.01-0.18-0.02-0.27-0.03c2.11,4.27-0.21,9.64-0.21,9.64
			c1.44-1.12,1.91-2.95,1.91-2.95C195.83,103.63,195.79,103.4,195.74,103.18z M155.55,97.16c-0.09,0.01-0.17,0.02-0.27,0.03
			c-0.25,0.03-0.52,0.04-0.79,0.06v0.01c0.01,0.26,0.01,0.51,0.01,0.77c0,0.28-0.01,0.56-0.02,0.83c-0.01,0.2-0.02,0.4-0.03,0.59
			c-0.01,0.25-0.03,0.5-0.05,0.76c-0.02,0.25-0.04,0.5-0.07,0.75c-0.09,0.76-0.2,1.5-0.34,2.23c-0.05,0.23-0.1,0.45-0.15,0.67
			c0,0,0.48,1.83,1.91,2.95C155.75,106.8,153.43,101.43,155.55,97.16z M193.55,94.91c0.04,0.03,0.08,0.08,0.12,0.12
			c0.07,0.07,0.15,0.14,0.22,0.22c0.19,0.19,0.37,0.41,0.56,0.64c0.14,0.17,0.27,0.34,0.4,0.52c0.12,0.16,0.23,0.33,0.34,0.5
			c0.03,0.03,0.05,0.06,0.07,0.1c0.01-0.38,0.03-0.77,0.06-1.16C194.73,95.52,194.15,95.21,193.55,94.91z M155.99,95.01
			c-0.53,0.27-1.05,0.55-1.57,0.84c0.03,0.39,0.05,0.77,0.06,1.16c0.02-0.03,0.04-0.07,0.07-0.1c0.1-0.17,0.22-0.35,0.34-0.5
			c0.13-0.18,0.26-0.36,0.4-0.52c0.18-0.23,0.37-0.44,0.56-0.64c0.07-0.08,0.15-0.15,0.22-0.22c0.04-0.04,0.09-0.09,0.13-0.12v-0.01
			C156.12,94.94,156.06,94.98,155.99,95.01z"/>
		<path class="st22" d="M209.49,163.02c0,0.79-15.5,1.43-34.63,1.43s-34.63-0.64-34.63-1.43s15.5-1.43,34.63-1.43
			S209.49,162.23,209.49,163.02z"/>
	</g>
</g>
</svg>
