<?xml version="1.0" encoding="utf-8"?>
<!-- Generator: Adobe Illustrator 27.8.1, SVG Export Plug-In . SVG Version: 6.00 Build 0)  -->
<svg version="1.1" id="Layer_1" xmlns="http://www.w3.org/2000/svg" xmlns:xlink="http://www.w3.org/1999/xlink" x="0px" y="0px"
	 viewBox="0 0 350 230" style="enable-background:new 0 0 350 230;" xml:space="preserve">
<style type="text/css">
	.st0{fill:#EAE4B0;}
	.st1{fill:#332700;}
	.st2{fill:#EBEBFF;}
	.st3{fill:#FBFFAE;}
	.st4{fill:#B0FFD5;}
	.st5{fill:#B3FFFB;}
	.st6{fill:#FFFAB6;}
	.st7{fill:#2B2700;}
	.st8{fill:#FFFFB8;}
	.st9{fill:#040028;}
	.st10{fill:#260000;}
	.st11{opacity:0.5;fill:#848484;}
	.st12{fill:#2B2401;}
	.st13{fill:#FF7C6C;}
	.st14{fill:#CC2D21;}
	.st15{fill:#F75C4C;}
	.st16{fill:#FFE5CF;}
	.st17{fill:#FFFFFF;}
	.st18{fill:#CFDAE3;}
	.st19{fill:#006C11;}
	.st20{fill:#A11E10;}
	.st21{fill:#EDBC93;}
	.st22{fill:#898989;}
	.st23{fill:#2B1536;}
	.st24{fill:#15352A;}
	.st25{fill:#E4EAF5;}
	.st26{fill:#F2F5F5;}
	.st27{fill:#D6363D;}
	.st28{fill:#600000;fill-opacity:0.5098;}
	.st29{fill:#F2CCA3;}
	.st30{fill:#D28F5F;}
	.st31{fill:#FF0000;fill-opacity:0.5098;}
	.st32{fill:#C7D5F5;}
	.st33{fill:#F3DBC0;}
	.st34{fill:#F58086;}
	.st35{fill:url(#SVGID_1_);}
	.st36{fill:#FCC7A2;}
	.st37{fill:url(#SVGID_00000101818144367703162350000017626993636958853795_);}
	.st38{fill:#E20328;}
	.st39{fill:url(#SVGID_00000062873524058254715720000008491250120186844317_);}
	.st40{fill:#F4BDA8;}
	.st41{fill:#DCF7F6;}
	.st42{fill:url(#SVGID_00000101796765377947592950000009426506675751254420_);}
	.st43{fill:url(#SVGID_00000011729343916287443940000015558344426732583830_);}
	.st44{fill:url(#SVGID_00000140009810885161184470000000752130380408214684_);}
	.st45{fill:url(#SVGID_00000052811692398455279970000007332937246484373950_);}
	.st46{fill:url(#SVGID_00000153703143473951141970000009791219748905820813_);}
	.st47{fill:url(#SVGID_00000105426948912241614950000009627196416437893793_);}
	.st48{fill:url(#SVGID_00000065768230502813776330000002560395859031692458_);}
	.st49{fill:url(#SVGID_00000041260577069609203340000013813742379510956985_);}
	.st50{fill:url(#SVGID_00000103966583525170678110000017247545662134990252_);}
	.st51{fill:#E2B881;}
	.st52{fill:#FFFFFF;stroke:#000000;stroke-width:0.05;stroke-miterlimit:10;}
	.st53{fill:url(#SVGID_00000079474132020361298830000010729461388559321785_);}
	.st54{fill:url(#SVGID_00000078747174842069884330000001935192413679798944_);}
	.st55{fill:#0B9ED8;}
	.st56{fill:#FCDFB0;}
	.st57{fill:#FF0013;}
	.st58{fill:url(#SVGID_00000060012663960797452920000001020400583494386355_);}
	.st59{fill:#0A50FF;}
	.st60{fill:#FFB773;}
	.st61{fill-rule:evenodd;clip-rule:evenodd;fill:url(#SVGID_00000132060937822725825040000012847391935241060992_);}
	.st62{fill:#FF334F;}
	.st63{fill:#FFAB66;}
	.st64{fill:#FF8B41;}
	.st65{fill:#BB386B;}
	.st66{fill:#CBCBCB;}
	.st67{fill:#D37250;}
	.st68{fill:#D06D2E;}
	.st69{fill-rule:evenodd;clip-rule:evenodd;fill:#FFFFFF;}
	.st70{fill:#CAFFEC;}
	.st71{fill:#FFF6B3;}
	.st72{fill:#FFFBD2;}
	.st73{fill:#EFFFD2;}
	.st74{fill:#A01D21;}
	.st75{fill:#00261B;}
	.st76{fill:#F4FFB6;}
	.st77{fill:url(#SVGID_00000001662687473678994340000015757893581251355789_);}
	.st78{fill:#002340;}
	.st79{fill:url(#SVGID_00000138562539741986954580000009219149546256524716_);}
	.st80{fill:url(#SVGID_00000072244258807494349850000015038738033779743653_);}
	.st81{fill:#D91215;}
	.st82{fill:#98BBCE;}
	.st83{fill:#00A70C;}
	.st84{fill:#C47E2A;}
	.st85{fill-rule:evenodd;clip-rule:evenodd;fill:#1F1D1D;}
	.st86{fill-rule:evenodd;clip-rule:evenodd;fill:#2B2700;}
	.st87{fill-rule:evenodd;clip-rule:evenodd;fill:#FF1943;}
	.st88{fill:url(#SVGID_00000161611905178524983960000009376002134004447679_);}
	.st89{fill:url(#SVGID_00000172436933462580556240000000624184400378574982_);}
	.st90{fill:url(#SVGID_00000073699010433391139950000018418017464622683789_);}
	.st91{fill:url(#SVGID_00000134939652971383928560000012285813033806154641_);}
	.st92{fill:url(#SVGID_00000118355848041297043650000012767732629237672622_);}
	.st93{fill:url(#SVGID_00000150815455079917787360000015381518193091176628_);}
	.st94{fill:#E31E26;}
	.st95{fill:#811517;}
	.st96{fill:url(#SVGID_00000177457441026508842730000017095774032652700064_);}
	.st97{fill:url(#SVGID_00000020395491014375875460000011824208354184535437_);}
	.st98{fill:url(#SVGID_00000101063233808227006620000001833556399079451545_);}
	.st99{fill:#B47920;}
	.st100{fill:#089E32;}
	.st101{fill:#FFE30B;}
	.st102{fill-rule:evenodd;clip-rule:evenodd;fill:#EE1D24;}
	.st103{fill:#17377D;}
	.st104{filter:url(#Adobe_OpacityMaskFilter);}
	.st105{opacity:0.28;mask:url(#SVGID_00000116937556727120644110000012618598435848685722_);}
	.st106{fill:#3A3132;}
	.st107{fill:url(#SVGID_00000095313696495446396260000001277526352273593479_);}
	.st108{filter:url(#Adobe_OpacityMaskFilter_00000075858008929175964930000014457772130476681405_);}
	.st109{opacity:0.28;mask:url(#SVGID_00000052074774397770866360000014101267921498234246_);}
	.st110{fill:#102A63;}
	.st111{filter:url(#Adobe_OpacityMaskFilter_00000067932499172036177700000017231783502198192017_);}
	.st112{opacity:0.28;mask:url(#SVGID_00000127041343963673603550000013087224759913515144_);}
	.st113{fill:#0E2458;}
	.st114{filter:url(#Adobe_OpacityMaskFilter_00000019645653631613248680000005945970342570575773_);}
	.st115{opacity:0.25;mask:url(#SVGID_00000034783112514954937720000016884985081299228310_);}
	.st116{fill:url(#SVGID_00000133495862319336090230000005885476437087479938_);}
	.st117{fill:#00BEC6;}
	.st118{fill:url(#SVGID_00000025418676569566709940000004808929048535117440_);}
	.st119{fill:url(#SVGID_00000114752842830823741940000006152159417685129880_);stroke:#FFFFFF;stroke-miterlimit:10;}
	
		.st120{fill:url(#SVGID_00000031921271270680909170000007887517133960755851_);stroke:#FFFFFF;stroke-width:0.5;stroke-miterlimit:10;}
	.st121{fill:url(#SVGID_00000121242997769106697820000012038143857476543360_);}
	.st122{fill:#F9D075;}
	.st123{fill:#FFEF92;}
	.st124{fill:url(#SVGID_00000067208862589872702250000010267503301799831169_);}
	.st125{fill:url(#SVGID_00000022558351891422249400000000846199057912155524_);}
	.st126{fill:url(#SVGID_00000181791930959102399800000004473949464486920611_);}
	.st127{fill:#09890F;}
	.st128{fill:#A9CE4D;}
	.st129{fill:#FF9501;}
	.st130{fill:#AA1523;}
	.st131{fill:#006B52;}
	.st132{fill:#EEC200;}
	.st133{fill:#9F4641;}
	.st134{fill:url(#SVGID_00000137832186536068471900000010642291647751017888_);stroke:#FFFFFF;stroke-miterlimit:10;}
	.st135{fill:none;stroke:#FFFFFF;stroke-width:1.7883;stroke-miterlimit:10;}
	.st136{fill:none;stroke:#BFDADD;stroke-width:2;stroke-linecap:round;stroke-linejoin:round;stroke-miterlimit:10;}
	.st137{fill:none;stroke:#016D39;stroke-width:2;stroke-linecap:round;stroke-linejoin:round;stroke-miterlimit:10;}
	.st138{fill:none;stroke:#00BFAD;stroke-width:2;stroke-linecap:round;stroke-linejoin:round;stroke-miterlimit:10;}
	.st139{fill:#12162E;}
	.st140{fill:none;stroke:#12162E;stroke-miterlimit:10;}
	.st141{fill:#016D39;}
	.st142{fill:#083F24;}
	.st143{fill:#FF5635;}
	.st144{fill:#C63724;}
	.st145{fill:#FFBE00;}
	.st146{fill:#00BFAD;}
	.st147{fill:#D1D3D3;}
	.st148{fill:#9A4641;}
	.st149{fill:url(#SVGID_00000034785923415677594650000015289274282495452039_);}
	.st150{fill:url(#SVGID_00000039852795747456220630000015430440349533445274_);stroke:#FFFFFF;stroke-miterlimit:10;}
	.st151{fill:#F75D58;}
	.st152{fill:url(#SVGID_00000155848513698291255310000000202511554404567964_);}
	.st153{opacity:0.42;fill:#FFFFFF;}
	.st154{fill:#229200;}
	.st155{fill:#FF0000;}
	.st156{fill:#0C1F26;}
	.st157{fill:#E43724;}
	.st158{fill:#6B2422;}
	.st159{fill:#FBF1E5;}
	.st160{fill:#FAF8F0;}
	.st161{fill:#EEEEED;}
	.st162{fill:#DBDEDD;}
	.st163{fill:#A6453D;}
	.st164{fill:#E3E4E7;}
	.st165{fill:#D2301D;}
	.st166{fill:#E2D7D0;}
	.st167{fill:#FCF8EF;}
	.st168{fill:#C42C1E;}
	.st169{fill:#0C232B;}
	.st170{fill:#0D3B6E;}
	.st171{fill:#139AEC;}
	.st172{fill:#F52A3C;}
	.st173{fill:url(#SVGID_00000144308369975407544710000003010938247482251415_);}
	.st174{fill:#890924;}
	.st175{fill:url(#SVGID_00000111877545029602455600000017031161623670119596_);}
	.st176{fill-rule:evenodd;clip-rule:evenodd;fill:url(#SVGID_00000094576641650585323390000015208380518120139913_);}
	.st177{fill-rule:evenodd;clip-rule:evenodd;fill:#CE1515;}
	.st178{fill-rule:evenodd;clip-rule:evenodd;fill:#FFFBDD;}
	.st179{fill-rule:evenodd;clip-rule:evenodd;fill:#06542B;}
	.st180{fill-rule:evenodd;clip-rule:evenodd;fill:#AA1111;}
	.st181{fill:#005C01;}
	.st182{fill:#F5AB35;}
	.st183{fill-rule:evenodd;clip-rule:evenodd;fill:#215605;}
	.st184{fill:#215605;}
	.st185{fill-rule:evenodd;clip-rule:evenodd;fill:url(#SVGID_00000023978038288688740210000005200605317364265893_);}
	.st186{fill:url(#SVGID_00000084520290548534402840000017096805999822683546_);}
	.st187{fill:url(#SVGID_00000057146702065722363840000004757678425473637280_);}
	.st188{fill:url(#SVGID_00000061470006817418255550000006964020461490245289_);}
	.st189{fill:url(#SVGID_00000124132791564953796560000007385935354491738032_);}
	.st190{fill:url(#SVGID_00000145741685772759383330000013737215849574494613_);}
	.st191{fill:url(#SVGID_00000172402388133635315430000009784862731480534402_);}
	.st192{fill:url(#SVGID_00000012431002432422188710000011758652934960803200_);}
	.st193{fill:url(#SVGID_00000051382506374837086920000007839250077625610380_);}
	.st194{fill:url(#SVGID_00000025419382936812814740000016078187692176888980_);}
	.st195{fill:#B6FFFF;}
	.st196{fill:url(#SVGID_00000085235965626545111910000004751283635634653592_);}
	.st197{fill:url(#SVGID_00000183236483271955060850000015184408729059357568_);}
	.st198{fill:url(#SVGID_00000096738393623742005200000018297144403213727886_);}
	.st199{fill:url(#SVGID_00000097477341248711781230000003945071259374082187_);}
	.st200{fill:url(#SVGID_00000026860352498524796570000001391974850892700557_);}
	.st201{fill:url(#SVGID_00000099657927521163018740000017197433717609424572_);}
	.st202{fill:url(#SVGID_00000051359193242299616850000001506813478196349614_);}
	.st203{fill:url(#SVGID_00000145752799452832658440000014176973932094067861_);}
	.st204{fill:url(#SVGID_00000058561815702641266320000015695315973114037380_);}
	.st205{fill:url(#SVGID_00000115493025068325814410000012278752942135275669_);}
	.st206{fill:url(#SVGID_00000037694577514443361070000006643650886734226823_);}
	.st207{fill:url(#SVGID_00000178927390312296009570000018362355381441033367_);}
	.st208{fill:url(#SVGID_00000098206896890742457500000005783319335569567879_);}
	.st209{fill:url(#SVGID_00000072238155305035317480000008325862917174597552_);}
	.st210{fill:url(#SVGID_00000114793591182315816790000013534829448914024577_);}
	.st211{fill:url(#SVGID_00000094615966291916194000000001921578686803429262_);}
	.st212{fill:#CE4A43;}
	.st213{fill:url(#SVGID_00000127025479656955089640000017386037330461194668_);}
	.st214{fill:#CE4A43;stroke:#FFFFFF;stroke-miterlimit:10;}
	.st215{fill:none;stroke:#CE4A43;stroke-miterlimit:10;}
</style>
<g>
	<path class="st52" d="M194.11,124.01c0,0,2.95,14.78-4.72,22.88v-2.35c0,0-9.44,11.77-17.11,15.54l0.98-2.45
		c0,0-5.96,4.8-12.27,7.34c-6.31-2.54-12.27-7.34-12.27-7.34l0.98,2.45c-7.67-3.77-17.11-15.54-17.11-15.54v2.35
		c-7.67-8.1-4.72-22.88-4.72-22.88l-1.02,0.47c4.88-8.66,2.33-18.27,2.33-18.27l-1.51,0.38c5.51-9.23,2.07-21.56,2.07-21.56
		l1.87,1.38c0,0,5.7,10.57,4.91,21.59c-0.18,2.56-0.47,6.53,0.8,10.42c-1.21-0.86-2.34-2.11-3.34-3.89c0,0-1.36,4.06,0.55,7.37
		h-0.81c0,0,2.36,5.37,7.52,5.63l-1.21,0.72c0,0,5.6,1.86,10.34,1.02c2.91,0.72,6.41,1.13,10.62,1.13c4.21,0,7.72-0.41,10.62-1.13
		c4.74,0.84,10.33-1.02,10.33-1.02l-1.21-0.72c5.16-0.26,7.52-5.63,7.52-5.63h-0.81c1.91-3.31,0.55-7.37,0.55-7.37
		c-0.99,1.78-2.12,3.03-3.34,3.89c1.26-3.89,0.98-7.86,0.8-10.42c-0.79-11.02,4.82-20.67,4.82-20.67l2.26,0.8
		c0,0-3.74,9.23,1.77,18.46l-1.5-0.38c0,0-2.56,9.61,2.33,18.27L194.11,124.01z M137.31,118.07c-1.21-0.89-2.34-2.2-3.34-4.06
		c0,0-1.36,4.24,0.55,7.69h-0.81c0,0,2.36,5.61,7.52,5.88l-1.21,0.75c0,0,5.6,1.94,10.34,1.07
		C142.28,127.32,138.77,122.75,137.31,118.07z M188,114.02c-0.99,1.86-2.12,3.17-3.34,4.06c-1.45,4.68-4.96,9.25-13.05,11.34
		c4.74,0.87,10.33-1.07,10.33-1.07l-1.21-0.75c5.16-0.27,7.52-5.88,7.52-5.88h-0.81C189.35,118.26,188,114.02,188,114.02z
		 M188,114.53c-0.99,1.78-2.12,3.03-3.34,3.89c-5.46,3.86-12.6-0.37-16.34-1.27c-4.56-1.1-7.33,1.93-7.33,1.93s-2.77-3.03-7.33-1.93
		c-3.73,0.9-10.88,5.12-16.34,1.27c-1.21-0.86-2.34-2.11-3.34-3.89c0,0-1.36,4.06,0.55,7.37h-0.81c0,0,2.36,5.37,7.52,5.63
		l-1.21,0.72c0,0,5.6,1.86,10.34,1.02c1.07-0.19,2.08-0.51,2.99-1.02c4.94-2.79,6.45-3.41,7.63-3.41c1.18,0,2.69,0.62,7.63,3.41
		c0.91,0.51,1.93,0.84,2.99,1.02c4.74,0.84,10.33-1.02,10.33-1.02l-1.21-0.72c5.16-0.26,7.52-5.63,7.52-5.63h-0.81
		C189.35,118.59,188,114.53,188,114.53z"/>
	<linearGradient id="SVGID_1_" gradientUnits="userSpaceOnUse" x1="190.8765" y1="83.7156" x2="128.9161" y2="103.1543">
		<stop  offset="0" style="stop-color:#262262"/>
		<stop  offset="0.535" style="stop-color:#FA324D"/>
		<stop  offset="1" style="stop-color:#262262"/>
	</linearGradient>
	<path class="st35" d="M166.66,85.33c-2.22,1.39-5.24,1.34-5.24,1.34s-3.01,0.05-5.24-1.34c-2.22-1.39-18.58-3.85-26.84-0.42v4.12
		c0,0,2.25-0.28,2.87,3.89c0.63,4.17,0.7,12.17,13.49,12.17c12.79,0,12.72-11.89,12.72-11.89s-0.1-3.44,2.99-3.44
		c3.1,0,2.99,3.44,2.99,3.44s-0.07,11.89,12.72,11.89c12.79,0,12.86-7.99,13.49-12.17c0.63-4.17,2.88-3.89,2.88-3.89v-4.12
		C185.25,81.48,168.89,83.94,166.66,85.33z M156.69,90.24c0,14.14-11.58,12.79-11.58,12.79c-11.54,0.23-10.75-11.03-10.75-13.16
		c0-2.13,1.3-4.36,9.59-4.36C157.32,85.51,156.69,90.24,156.69,90.24z M177.74,103.03c0,0-11.59,1.35-11.59-12.79
		c0,0-0.63-4.73,12.75-4.73c8.3,0,9.59,2.22,9.59,4.36C188.49,92,189.28,103.27,177.74,103.03z"/>
	
		<radialGradient id="SVGID_00000025407344687952339210000013139519156236242826_" cx="174.0465" cy="59.5496" r="38.1826" gradientUnits="userSpaceOnUse">
		<stop  offset="0" style="stop-color:#FC2353"/>
		<stop  offset="0.2527" style="stop-color:#FA5269"/>
		<stop  offset="0.3677" style="stop-color:#EE3B57"/>
		<stop  offset="0.5421" style="stop-color:#E01F40"/>
		<stop  offset="0.6947" style="stop-color:#D70E32"/>
		<stop  offset="0.8077" style="stop-color:#D4082D"/>
	</radialGradient>
	<path style="fill:url(#SVGID_00000025407344687952339210000013139519156236242826_);" d="M213.87,88.72l1.35,2.05
		c0,0-3.36,0.26-5.76,2.24c-6.56-4.18-10.54-20.54-10.54-20.54c-0.64,1.08-1.24,1.84-1.78,2.37c-0.42-1.28-1.05-2.5-1.92-3.58
		l-0.12,1.65c0,0-3-10.93-16.23-13.4l1.1,1.62c0,0-11.51-4.27-21.85-4.92l1.59,1.32c0,0-13.13-1.68-20.44,0.14l2.4,1.19
		c0,0-5.02,0.71-9.99,2.9c2.41-7.77,12.6-34.77,38.43-35.66c30.18-1.04,32.68,18.07,40.46,26.12c7.23,7.48,2.41,26.07,5.86,36.73
		C215.64,88.84,214.8,88.75,213.87,88.72z"/>
	<path class="st17" d="M206.37,95.23l-0.88,0.79c-0.58-3.17,1.26-5.24,3.31-6.53c2.19-1.37,4.62-1.86,4.62-1.86
		c1.08-0.18,2.03-0.22,2.86-0.15c4.9,0.37,5.82,4.3,5.82,4.3l-1.12-0.31c3.85,3.8,2.38,7.85,2.38,7.85l-0.58-0.64
		c0.2,3.51-4.14,6.36-6.69,7.5l-0.22-0.68l-1.91,1.3l-2.08-1.87l0.09,1.28c-3.83-2.02-5.06-4.51-5.06-4.51l-0.19,1.23
		C204.83,100.67,206.34,95.36,206.37,95.23z M132.15,86.2c-0.19-0.29-3.5-9.42,12.05-4.64c0,0-0.31-1.47-1.74-2.69
		c0,0,15.55,0.67,21.36,4.39c0,0,0.29-1.52-0.76-2.67c0,0,19.12,2.22,23.73,9.63c0,0,0.39-1.02,0.36-1.88c0,0,5.65,4.38,5.4,9.91
		c0,0,5.8-7.9,3.12-16.23c0,0,1.69,1.08,2.18,2.68c0,0,1.16-6.13-1.44-12.19c-1.12-2.61-3.48-5.09-6.39-7.18l2.08-0.62
		c0,0-12.3-7.29-22.93-6.66c0,0,0.89-1.26,1.87-1.76c0,0-23.07-1.97-28.7,0.75c0,0,0.54-1.33,0.92-1.9c0,0-2.71,0.22-5.95,1.43l0,0
		c-3.6,1.34-7.85,3.92-9.73,8.78C127.59,65.37,122.8,77.06,132.15,86.2z"/>
	<path class="st9" d="M190.33,100.21c0.41,1.39,0.58,3.05,1.62,4.13c-2.06-0.89-1.49,2.42-1.47,3.55c0.43,4.61,0.63,9.43,1.99,13.86
		c0,0-0.31,0.22-0.31,0.22c-0.23-0.39-0.15,0.46-0.04,0.92c0.38,1.61,1.01,3.16,1.6,4.7c-0.14,3.75-0.47,7.53-1.12,11.24
		c-0.27,1.56-0.71,3.11-1.71,4.41c-0.11-1.67,0.01-3.51-0.53-5.08c-0.01-0.01,0.01,0.02,0.05,0.03c0.05,0.03,0.12,0.01,0.14,0
		c0.05-0.03,0,0-0.04,0.06c-1.65,2.32-3.27,4.71-5.01,6.97c-2.95,3.68-5.82,7.85-10.22,9.89c0.11-0.45,0.56-2.53,0.68-3.03
		c0,0,0.62,0.35,0.62,0.35c-2.29,2.16-4.66,4.2-7.16,6.11c-2.58,1.84-5.26,4.02-8.5,4.42c-5.54-2.77-10.96-5.82-15.65-9.91
		c0,0,0.57-0.46,0.57-0.46c0.29,0.64,0.77,1.18,0.71,1.94c-0.1,0.31-0.51,0.38-0.75,0.2c-3.7-2.71-8.38-6.57-9.75-10.48
		c-1.99-2.4-3.58-5.13-4.27-8.19c0,0,0.61-0.1,0.61-0.1c0.07,1.34,0.31,2.63,0.08,3.98c-0.06,0.15-0.18,0.27-0.38,0.27
		c-0.11-0.01-0.2-0.08-0.27-0.16c-1.86-3.23-2.36-7.33-1.41-10.92c0.39-1.61,0.6-3.28,0.43-4.92c-0.1-0.53-0.16-1.3-0.53-1.62
		c0-0.01,0.02-0.01-0.09,0.04c-0.04,0.01-0.05,0.02-0.13,0c-0.13-0.03-0.17-0.16-0.18-0.23c0.13-0.95,0.58-1.81,0.88-2.7
		c0,0,0.88-2.36,0.88-2.36c1.11-2.37,0.52-4.89,0.39-7.38c-0.15-1.45-0.25-2.93-0.65-4.34c-0.07-0.21-0.16-0.45-0.33-0.53
		c0.97-1.94,1.04-4.25,0.58-6.35c0.12,0.53,0.22,1.06,0.27,1.6c0.13,1.44-0.02,3.68-0.76,4.68c0.24,0.14,0.28,0.37,0.36,0.56
		c0.43,1.41,0.55,2.9,0.73,4.36c0.19,2.49,0.79,5.16-0.28,7.51c-0.48,1.46-1.32,3.45-1.67,4.91c-0.01-0.01,0.01,0-0.03-0.06
		c-0.02-0.02-0.05-0.05-0.1-0.07c-0.06-0.01-0.06-0.01-0.09,0c-0.07,0.03,0,0,0.05-0.02c0.45-0.18,0.71,0.4,0.83,0.67
		c0.66,2.06,0.34,4.3-0.1,6.35c-0.86,3.21-0.36,6.67,0.96,9.67c0.1,0.26,0.28,0.56,0.42,0.77c-0.07-0.07-0.25-0.04-0.29,0.01
		c-0.02,0.01-0.04,0.05-0.05,0.05c0.14-1.17-0.06-2.51-0.15-3.71c0,0,0.61-0.1,0.61-0.1c0.68,2.9,2.28,5.59,4.17,7.86
		c0.45,1.25,1.18,2.45,2.09,3.53c2.15,2.56,4.82,4.87,7.52,6.78c-0.13-0.02-0.28,0.06-0.31,0.2c-0.03,0.09,0,0.02-0.03-0.04
		c-0.27-0.85-1.27-2.4-1.69-3.21c4.97,4.65,10.95,8.15,17.03,11.14c0,0-0.18-0.04-0.18-0.04c2.94-0.4,5.58-2.53,7.99-4.23
		c2.79-2.12,5.46-4.45,8-6.87c-0.17,0.79-0.62,2.65-0.79,3.45c0,0-0.49-0.42-0.49-0.42c1.95-0.91,3.54-2.57,5.02-4.14
		c3-3.29,5.63-6.92,8.2-10.56c0,0,0.98-1.37,0.98-1.37l0.14-0.18c1.5-1.52,1.35,3.74,1.43,4.45c0,0-0.54-0.18-0.54-0.18
		c0.6-0.93,0.87-2.2,1.12-3.38c0.72-3.49,0.98-7.78,1.25-10.96c-0.65-1.85-1.5-3.68-1.69-5.65c-0.01-0.18,0.03-0.42,0.19-0.54
		c0.26-0.15,0.45-0.02,0.63,0.12c0,0-0.31,0.22-0.31,0.22c-0.98-3.02-1.1-6.19-1.45-9.32c-0.14-1.56-0.25-3.12-0.33-4.69
		c0.03-1.18-0.55-4.3,1.46-3.71c0,0-0.04,0.06-0.04,0.06C190.87,103.1,190.68,101.57,190.33,100.21L190.33,100.21z"/>
</g>
</svg>
