<?xml version="1.0" encoding="utf-8"?>
<!-- Generator: Adobe Illustrator 27.8.1, SVG Export Plug-In . SVG Version: 6.00 Build 0)  -->
<svg version="1.1" id="Layer_1" xmlns="http://www.w3.org/2000/svg" xmlns:xlink="http://www.w3.org/1999/xlink" x="0px" y="0px"
	 viewBox="0 0 350 230" style="enable-background:new 0 0 350 230;" xml:space="preserve">
<style type="text/css">
	.st0{fill:#EAE4B0;}
	.st1{fill:#332700;}
	.st2{fill:#EBEBFF;}
	.st3{fill:#FBFFAE;}
	.st4{fill:#B0FFD5;}
	.st5{fill:#B3FFFB;}
	.st6{fill:#FFFAB6;}
	.st7{fill:#2B2700;}
	.st8{fill:#FFFFB8;}
	.st9{fill:#040028;}
	.st10{fill:#260000;}
	.st11{opacity:0.5;fill:#848484;}
	.st12{fill:#2B2401;}
	.st13{fill:#FF7C6C;}
	.st14{fill:#CC2D21;}
	.st15{fill:#F75C4C;}
	.st16{fill:#FFE5CF;}
	.st17{fill:#FFFFFF;}
	.st18{fill:#CFDAE3;}
	.st19{fill:#006C11;}
	.st20{fill:#A11E10;}
	.st21{fill:#EDBC93;}
	.st22{fill:#898989;}
	.st23{fill:#2B1536;}
	.st24{fill:#15352A;}
	.st25{fill:#E4EAF5;}
	.st26{fill:#F2F5F5;}
	.st27{fill:#D6363D;}
	.st28{fill:#600000;fill-opacity:0.5098;}
	.st29{fill:#F2CCA3;}
	.st30{fill:#D28F5F;}
	.st31{fill:#FF0000;fill-opacity:0.5098;}
	.st32{fill:#C7D5F5;}
	.st33{fill:#F3DBC0;}
	.st34{fill:#F58086;}
	.st35{fill:url(#SVGID_1_);}
	.st36{fill:#FCC7A2;}
	.st37{fill:url(#SVGID_00000052065847579287499180000008680399568309608606_);}
	.st38{fill:#E20328;}
	.st39{fill:url(#SVGID_00000119818067585371796870000015640082470977461942_);}
	.st40{fill:#F4BDA8;}
	.st41{fill:#DCF7F6;}
	.st42{fill:url(#SVGID_00000016044232148257595100000011017310195739370171_);}
	.st43{fill:url(#SVGID_00000105428509413179639480000017946976838711550643_);}
	.st44{fill:url(#SVGID_00000134957222663310472390000005577640743531481246_);}
	.st45{fill:url(#SVGID_00000075124469430564986310000005648910948850721978_);}
	.st46{fill:url(#SVGID_00000109733412068563682500000004008734456425447817_);}
	.st47{fill:url(#SVGID_00000176025570890192948400000018111420032628618923_);}
	.st48{fill:url(#SVGID_00000030479160519080411770000009737959848286728847_);}
	.st49{fill:url(#SVGID_00000091014967391220340580000009600637358986046596_);}
	.st50{fill:url(#SVGID_00000094610169386964948380000006374318030080969662_);}
	.st51{fill:#E2B881;}
	.st52{fill:#FFFFFF;stroke:#000000;stroke-width:0.05;stroke-miterlimit:10;}
	.st53{fill:url(#SVGID_00000035494492867311668930000001348635437200964795_);}
	.st54{fill:url(#SVGID_00000015349336683787619410000005199438890567017380_);}
	.st55{fill:#0B9ED8;}
	.st56{fill:#FCDFB0;}
	.st57{fill:#FF0013;}
	.st58{fill:url(#SVGID_00000053528248889266904600000013369907511475633298_);}
	.st59{fill:#0A50FF;}
	.st60{fill:#FFB773;}
	.st61{fill-rule:evenodd;clip-rule:evenodd;fill:url(#SVGID_00000011738957401603749380000005073581429227723158_);}
	.st62{fill:#FF334F;}
	.st63{fill:#FFAB66;}
	.st64{fill:#FF8B41;}
	.st65{fill:#BB386B;}
	.st66{fill:#CBCBCB;}
	.st67{fill:#D37250;}
	.st68{fill:#D06D2E;}
	.st69{fill-rule:evenodd;clip-rule:evenodd;fill:#FFFFFF;}
	.st70{fill:#CAFFEC;}
	.st71{fill:#FFF6B3;}
	.st72{fill:#FFFBD2;}
	.st73{fill:#EFFFD2;}
	.st74{fill:#A01D21;}
	.st75{fill:#00261B;}
	.st76{fill:#F4FFB6;}
	.st77{fill:url(#SVGID_00000103238538424689839270000011426852483670915968_);}
	.st78{fill:#002340;}
	.st79{fill:url(#SVGID_00000080901985997776463310000000472799187485095326_);}
	.st80{fill:url(#SVGID_00000146461113561395860810000003600819443969355942_);}
	.st81{fill:#D91215;}
	.st82{fill:#98BBCE;}
	.st83{fill:#00A70C;}
	.st84{fill:#C47E2A;}
	.st85{fill-rule:evenodd;clip-rule:evenodd;fill:#1F1D1D;}
	.st86{fill-rule:evenodd;clip-rule:evenodd;fill:#2B2700;}
	.st87{fill-rule:evenodd;clip-rule:evenodd;fill:#FF1943;}
	.st88{fill:url(#SVGID_00000171695237732394792570000006747056015762852499_);}
	.st89{fill:url(#SVGID_00000114073156097624245520000000266756122606858942_);}
	.st90{fill:url(#SVGID_00000092450034949643894880000006164248868447006608_);}
	.st91{fill:url(#SVGID_00000103960944255978117420000006506918096339592857_);}
	.st92{fill:url(#SVGID_00000145017918283708295940000003176179359099893413_);}
	.st93{fill:url(#SVGID_00000064325341147429059350000000237852628768661156_);}
	.st94{fill:#E31E26;}
	.st95{fill:#811517;}
	.st96{fill:url(#SVGID_00000173874433776377944320000008215296834157850791_);}
	.st97{fill:url(#SVGID_00000045602330639844456400000009757876028400263591_);}
	.st98{fill:url(#SVGID_00000096767260595865860090000016797883875475955597_);}
	.st99{fill:#B47920;}
	.st100{fill:#089E32;}
	.st101{fill:#FFE30B;}
	.st102{fill-rule:evenodd;clip-rule:evenodd;fill:#EE1D24;}
	.st103{fill:#17377D;}
	.st104{filter:url(#Adobe_OpacityMaskFilter);}
	.st105{opacity:0.28;mask:url(#SVGID_00000119809342305996980280000009828113986044868786_);}
	.st106{fill:#3A3132;}
	.st107{fill:url(#SVGID_00000116923942118668041720000002961442768355900080_);}
	.st108{filter:url(#Adobe_OpacityMaskFilter_00000174593293960340051760000013838850852418363570_);}
	.st109{opacity:0.28;mask:url(#SVGID_00000120534620406662914820000015667290951184852109_);}
	.st110{fill:#102A63;}
	.st111{filter:url(#Adobe_OpacityMaskFilter_00000071533425960126957440000018298294032225761684_);}
	.st112{opacity:0.28;mask:url(#SVGID_00000139990159662381436830000003157783629456597949_);}
	.st113{fill:#0E2458;}
	.st114{filter:url(#Adobe_OpacityMaskFilter_00000149371028142893907710000011293866200341779898_);}
	.st115{opacity:0.25;mask:url(#SVGID_00000073701216060599090480000014331141807039036588_);}
	.st116{fill:url(#SVGID_00000008866025384203520680000006692337135979555502_);}
	.st117{fill:#00BEC6;}
	.st118{fill:url(#SVGID_00000119086950525923740030000003610307002238122903_);}
	.st119{fill:url(#SVGID_00000108301423536031919100000002270359555181855674_);stroke:#FFFFFF;stroke-miterlimit:10;}
	
		.st120{fill:url(#SVGID_00000067944261015186666120000013321530511409845148_);stroke:#FFFFFF;stroke-width:0.5;stroke-miterlimit:10;}
	.st121{fill:url(#SVGID_00000178883456299122446050000011943117715125202354_);}
	.st122{fill:#F9D075;}
	.st123{fill:#FFEF92;}
	.st124{fill:url(#SVGID_00000059275049890693881290000017329470362535983259_);}
	.st125{fill:url(#SVGID_00000089560387445224500170000017014150237360628902_);}
	.st126{fill:url(#SVGID_00000130633429190423589530000000530873728953596563_);}
	.st127{fill:#09890F;}
	.st128{fill:#A9CE4D;}
	.st129{fill:#FF9501;}
	.st130{fill:#AA1523;}
	.st131{fill:#006B52;}
	.st132{fill:#EEC200;}
	.st133{fill:#9F4641;}
	.st134{fill:url(#SVGID_00000078006345221816074500000013807774314776546208_);stroke:#FFFFFF;stroke-miterlimit:10;}
	.st135{fill:none;stroke:#FFFFFF;stroke-width:1.7883;stroke-miterlimit:10;}
	.st136{fill:none;stroke:#BFDADD;stroke-width:2;stroke-linecap:round;stroke-linejoin:round;stroke-miterlimit:10;}
	.st137{fill:none;stroke:#016D39;stroke-width:2;stroke-linecap:round;stroke-linejoin:round;stroke-miterlimit:10;}
	.st138{fill:none;stroke:#00BFAD;stroke-width:2;stroke-linecap:round;stroke-linejoin:round;stroke-miterlimit:10;}
	.st139{fill:#12162E;}
	.st140{fill:none;stroke:#12162E;stroke-miterlimit:10;}
	.st141{fill:#016D39;}
	.st142{fill:#083F24;}
	.st143{fill:#FF5635;}
	.st144{fill:#C63724;}
	.st145{fill:#FFBE00;}
	.st146{fill:#00BFAD;}
	.st147{fill:#D1D3D3;}
	.st148{fill:#9A4641;}
	.st149{fill:url(#SVGID_00000080888649237540645240000010997256876336796833_);}
	.st150{fill:url(#SVGID_00000046311165674172265570000008186788062175275922_);stroke:#FFFFFF;stroke-miterlimit:10;}
	.st151{fill:#F75D58;}
	.st152{fill:url(#SVGID_00000026854876545796409300000016751508342905683595_);}
	.st153{opacity:0.42;fill:#FFFFFF;}
	.st154{fill:#229200;}
	.st155{fill:#FF0000;}
	.st156{fill:#0C1F26;}
	.st157{fill:#E43724;}
	.st158{fill:#6B2422;}
	.st159{fill:#FBF1E5;}
	.st160{fill:#FAF8F0;}
	.st161{fill:#EEEEED;}
	.st162{fill:#DBDEDD;}
	.st163{fill:#A6453D;}
	.st164{fill:#E3E4E7;}
	.st165{fill:#D2301D;}
	.st166{fill:#E2D7D0;}
	.st167{fill:#FCF8EF;}
	.st168{fill:#C42C1E;}
	.st169{fill:#0C232B;}
	.st170{fill:#0D3B6E;}
	.st171{fill:#139AEC;}
	.st172{fill:#F52A3C;}
	.st173{fill:url(#SVGID_00000072277914376782452150000017838165193266917816_);}
	.st174{fill:#890924;}
	.st175{fill:url(#SVGID_00000120545107108215715160000002974485077484009636_);}
	.st176{fill-rule:evenodd;clip-rule:evenodd;fill:url(#SVGID_00000106869509278777115420000002601247430553457289_);}
	.st177{fill-rule:evenodd;clip-rule:evenodd;fill:#CE1515;}
	.st178{fill-rule:evenodd;clip-rule:evenodd;fill:#FFFBDD;}
	.st179{fill-rule:evenodd;clip-rule:evenodd;fill:#06542B;}
	.st180{fill-rule:evenodd;clip-rule:evenodd;fill:#AA1111;}
	.st181{fill:#005C01;}
	.st182{fill:#F5AB35;}
	.st183{fill-rule:evenodd;clip-rule:evenodd;fill:#215605;}
	.st184{fill:#215605;}
	.st185{fill-rule:evenodd;clip-rule:evenodd;fill:url(#SVGID_00000023989056408110317580000006758245767905644688_);}
	.st186{fill:url(#SVGID_00000170973281870114497530000017165826254576948642_);}
	.st187{fill:url(#SVGID_00000059310582537745362260000009671466868095121033_);}
	.st188{fill:url(#SVGID_00000135683443477901103960000008039397407927672237_);}
	.st189{fill:url(#SVGID_00000070077943062799668430000016007683550398572941_);}
	.st190{fill:url(#SVGID_00000003792876840209267090000011475977623354197933_);}
	.st191{fill:url(#SVGID_00000105425788461815490540000009832794741078886801_);}
	.st192{fill:url(#SVGID_00000137830622014145556310000001391016651799523774_);}
	.st193{fill:url(#SVGID_00000087389327637007513820000015843780528361305990_);}
	.st194{fill:url(#SVGID_00000163756058723348021810000014081601551360068499_);}
	.st195{fill:#B6FFFF;}
	.st196{fill:url(#SVGID_00000026852579835601304280000017027006612353821316_);}
	.st197{fill:url(#SVGID_00000065044250698681939410000005241841872926469514_);}
	.st198{fill:url(#SVGID_00000133492950129098339470000006269441295887204499_);}
	.st199{fill:url(#SVGID_00000017515138758424445890000013412569121473822652_);}
	.st200{fill:url(#SVGID_00000167370439528890560480000007593997401798447522_);}
	.st201{fill:url(#SVGID_00000077290716752410896990000010316071981413714621_);}
	.st202{fill:url(#SVGID_00000009586869533571285610000007750595741470344592_);}
	.st203{fill:url(#SVGID_00000179633889926139720570000015073072486264471465_);}
	.st204{fill:url(#SVGID_00000070106137211085825570000003280240680160070318_);}
	.st205{fill:url(#SVGID_00000003786557234942533450000009543999108937513661_);}
	.st206{fill:url(#SVGID_00000031914915551980524160000008787095940561944477_);}
	.st207{fill:url(#SVGID_00000178206120001071579310000014486078457497111426_);}
	.st208{fill:url(#SVGID_00000157989109106869787980000005339428592170626185_);}
	.st209{fill:url(#SVGID_00000023263292961252653980000018020114592781048729_);}
	.st210{fill:url(#SVGID_00000056403548654278169120000005217648976487951000_);}
	.st211{fill:url(#SVGID_00000083075855511091799190000012479256395787515557_);}
	.st212{fill:#CE4A43;}
	.st213{fill:url(#SVGID_00000152259879324424945320000016498866048252970401_);}
	.st214{fill:#CE4A43;stroke:#FFFFFF;stroke-miterlimit:10;}
	.st215{fill:none;stroke:#CE4A43;stroke-miterlimit:10;}
</style>
<g>
	<radialGradient id="SVGID_1_" cx="175.8948" cy="114.9203" r="65.9181" gradientUnits="userSpaceOnUse">
		<stop  offset="0.1986" style="stop-color:#A01D21"/>
		<stop  offset="0.2406" style="stop-color:#9B1C20"/>
		<stop  offset="0.5709" style="stop-color:#741717"/>
		<stop  offset="0.8355" style="stop-color:#5D1311"/>
		<stop  offset="1" style="stop-color:#54120F"/>
	</radialGradient>
	<path class="st35" d="M264.28,132.92l-0.03,0.14H87.52l-0.03-0.14h-2.52c0.22,0.83,0.34,1.69,0.34,2.59h181.16
		c0-0.9,0.12-1.76,0.34-2.59H264.28z M266.47,94.33H85.31c0,0.9-0.12,1.76-0.34,2.59h2.52l0.03-0.14h176.73l0.03,0.14h2.53
		C266.59,96.09,266.47,95.23,266.47,94.33z"/>
	<path class="st17" d="M93.2,89.85v1.23h165.38v-1.23H93.2z M93.2,138.76v1.23h165.38v-1.23H93.2z"/>
	<path class="st17" d="M214.88,154.51c-1.06-1.05-2.52-1.43-3.88-1.14l-4.63-10.69h-1.81l4.92,11.35c-0.2,0.14-0.4,0.3-0.58,0.48
		s-0.33,0.38-0.47,0.58l-21.02-9.12l-1.43-3.29h-2.61l1.68,4.27l-8.41,21.31c-0.24-0.05-0.49-0.08-0.75-0.08
		c-0.25,0-0.5,0.03-0.75,0.08l-8.41-21.31l1.69-4.27h-2.62l-1.43,3.29l-21.01,9.12c-0.14-0.2-0.3-0.4-0.48-0.58
		s-0.38-0.34-0.58-0.48l4.92-11.35h-1.8l-4.64,10.69c-1.35-0.29-2.82,0.09-3.87,1.14c-1.65,1.65-1.65,4.32,0,5.97
		c1.65,1.65,4.32,1.65,5.97,0c1.05-1.05,1.43-2.52,1.14-3.87l20.03-8.69l-4.59,11.09c-0.86,0-1.67,0.5-2.01,1.34
		c-0.46,1.11,0.06,2.38,1.17,2.84s2.38-0.07,2.84-1.18c0.35-0.84,0.13-1.77-0.47-2.37l4.59-11.08l8.02,20.3
		c-1.16,0.76-1.93,2.06-1.93,3.54c0,2.34,1.89,4.23,4.22,4.23s4.23-1.89,4.23-4.23c0-1.48-0.78-2.78-1.94-3.54l8.02-20.3l4.59,11.08
		c-0.6,0.6-0.82,1.53-0.47,2.37c0.46,1.11,1.73,1.64,2.84,1.18c1.11-0.46,1.63-1.73,1.18-2.84c-0.35-0.84-1.16-1.34-2.01-1.34
		l-4.6-11.09l20.03,8.69c-0.29,1.35,0.09,2.82,1.14,3.87c1.65,1.65,4.33,1.65,5.98,0S216.53,156.16,214.88,154.51z M214.88,69.36
		c-1.65-1.65-4.33-1.65-5.98,0c-1.05,1.05-1.43,2.52-1.14,3.87l-20.03,8.69l4.6-11.09c0.85,0,1.66-0.5,2.01-1.34
		c0.45-1.11-0.07-2.38-1.18-2.84c-1.11-0.46-2.38,0.07-2.84,1.18c-0.35,0.84-0.13,1.77,0.47,2.37l-4.59,11.08l-8.02-20.3
		c1.16-0.76,1.94-2.06,1.94-3.54c0-2.34-1.9-4.23-4.23-4.23s-4.22,1.89-4.22,4.23c0,1.48,0.77,2.78,1.93,3.54l-8.02,20.3
		l-4.59-11.08c0.6-0.6,0.82-1.53,0.47-2.37c-0.46-1.11-1.73-1.64-2.84-1.18s-1.63,1.73-1.17,2.84c0.34,0.84,1.15,1.34,2.01,1.34
		l4.59,11.09l-20.03-8.69c0.29-1.35-0.09-2.82-1.14-3.87c-1.65-1.65-4.32-1.65-5.97,0c-1.65,1.65-1.65,4.32,0,5.97
		c1.05,1.05,2.52,1.43,3.87,1.14l4.64,10.69h1.8l-4.92-11.35c0.2-0.14,0.4-0.3,0.58-0.48c0.18-0.18,0.34-0.38,0.48-0.58l21.01,9.12
		l1.43,3.29h2.62l-1.69-4.27l8.41-21.31c0.25,0.05,0.5,0.08,0.75,0.08c0.26,0,0.5-0.03,0.75-0.08l8.41,21.31l-1.68,4.27h2.61
		l1.43-3.29l21.02-9.12c0.14,0.2,0.29,0.4,0.47,0.58c0.18,0.18,0.38,0.34,0.58,0.48l-4.92,11.35h1.81L211,76.47
		c1.36,0.29,2.82-0.09,3.88-1.14C216.53,73.68,216.53,71.01,214.88,69.36z"/>
</g>
</svg>
