<?xml version="1.0" encoding="utf-8"?>
<!-- Generator: Adobe Illustrator 27.8.1, SVG Export Plug-In . SVG Version: 6.00 Build 0)  -->
<svg version="1.1" id="Layer_1" xmlns="http://www.w3.org/2000/svg" xmlns:xlink="http://www.w3.org/1999/xlink" x="0px" y="0px"
	 viewBox="0 0 350 230" style="enable-background:new 0 0 350 230;" xml:space="preserve">
<style type="text/css">
	.st0{fill:#EAE4B0;}
	.st1{fill:#332700;}
	.st2{fill:#EBEBFF;}
	.st3{fill:#FBFFAE;}
	.st4{fill:#B0FFD5;}
	.st5{fill:#B3FFFB;}
	.st6{fill:#FFFAB6;}
	.st7{fill:#2B2700;}
	.st8{fill:#FFFFB8;}
	.st9{fill:#040028;}
	.st10{fill:#260000;}
	.st11{opacity:0.5;fill:#848484;}
	.st12{fill:#2B2401;}
	.st13{fill:#FF7C6C;}
	.st14{fill:#CC2D21;}
	.st15{fill:#F75C4C;}
	.st16{fill:#FFE5CF;}
	.st17{fill:#FFFFFF;}
	.st18{fill:#CFDAE3;}
	.st19{fill:#006C11;}
	.st20{fill:#A11E10;}
	.st21{fill:#EDBC93;}
	.st22{fill:#898989;}
	.st23{fill:#2B1536;}
	.st24{fill:#15352A;}
	.st25{fill:#E4EAF5;}
	.st26{fill:#F2F5F5;}
	.st27{fill:#D6363D;}
	.st28{fill:#600000;fill-opacity:0.5098;}
	.st29{fill:#F2CCA3;}
	.st30{fill:#D28F5F;}
	.st31{fill:#FF0000;fill-opacity:0.5098;}
	.st32{fill:#C7D5F5;}
	.st33{fill:#F3DBC0;}
	.st34{fill:#F58086;}
	.st35{fill:url(#SVGID_1_);}
	.st36{fill:#FCC7A2;}
	.st37{fill:url(#SVGID_00000022550079220740382360000005565896552948784785_);}
	.st38{fill:#E20328;}
	.st39{fill:url(#SVGID_00000180338899019758469630000010952923990733105290_);}
	.st40{fill:#F4BDA8;}
	.st41{fill:#DCF7F6;}
	.st42{fill:url(#SVGID_00000152953959239690028760000011123778319268951739_);}
	.st43{fill:url(#SVGID_00000066507368528842044560000016569801950191688118_);}
	.st44{fill:url(#SVGID_00000082359939555404645970000000166179460229718407_);}
	.st45{fill:url(#SVGID_00000091712568842680952270000001563838275979160987_);}
	.st46{fill:url(#SVGID_00000148640533868837364610000013277151687391948688_);}
	.st47{fill:url(#SVGID_00000105416173475377474930000003416519638750215558_);}
	.st48{fill:url(#SVGID_00000101802233731855219560000001513682822632178879_);}
	.st49{fill:url(#SVGID_00000056395172321069733980000015013915830921449088_);}
	.st50{fill:url(#SVGID_00000031897477168347496290000011206374505667006101_);}
	.st51{fill:#E2B881;}
	.st52{fill:#FFFFFF;stroke:#000000;stroke-width:0.05;stroke-miterlimit:10;}
	.st53{fill:url(#SVGID_00000154392686444697563920000006262841561315609226_);}
	.st54{fill:url(#SVGID_00000130631999117612848200000008162396683197792923_);}
	.st55{fill:#0B9ED8;}
	.st56{fill:#FCDFB0;}
	.st57{fill:#FF0013;}
	.st58{fill:url(#SVGID_00000034810467013075632010000003185249295663286423_);}
	.st59{fill:#0A50FF;}
	.st60{fill:#FFB773;}
	.st61{fill-rule:evenodd;clip-rule:evenodd;fill:url(#SVGID_00000155148372985671843900000001069381431830786488_);}
	.st62{fill:#FF334F;}
	.st63{fill:#FFAB66;}
	.st64{fill:#FF8B41;}
	.st65{fill:#BB386B;}
	.st66{fill:#CBCBCB;}
	.st67{fill:#D37250;}
	.st68{fill:#D06D2E;}
	.st69{fill-rule:evenodd;clip-rule:evenodd;fill:#FFFFFF;}
	.st70{fill:#CAFFEC;}
	.st71{fill:#FFF6B3;}
	.st72{fill:#FFFBD2;}
	.st73{fill:#EFFFD2;}
	.st74{fill:#A01D21;}
	.st75{fill:#00261B;}
	.st76{fill:#F4FFB6;}
	.st77{fill:url(#SVGID_00000046329825515695335910000001253026352954011819_);}
	.st78{fill:#002340;}
	.st79{fill:url(#SVGID_00000112615099064345882770000009159338166113391540_);}
	.st80{fill:url(#SVGID_00000064320864364327707970000013768180895028579201_);}
	.st81{fill:#D91215;}
	.st82{fill:#98BBCE;}
	.st83{fill:#00A70C;}
	.st84{fill:#C47E2A;}
	.st85{fill-rule:evenodd;clip-rule:evenodd;fill:#1F1D1D;}
	.st86{fill-rule:evenodd;clip-rule:evenodd;fill:#2B2700;}
	.st87{fill-rule:evenodd;clip-rule:evenodd;fill:#FF1943;}
	.st88{fill:url(#SVGID_00000090260803224603201580000008005064620015983247_);}
	.st89{fill:url(#SVGID_00000083084297895436395380000011333615719640252064_);}
	.st90{fill:url(#SVGID_00000182522223881763038730000013941470263857668527_);}
	.st91{fill:url(#SVGID_00000157989866936834368000000007631107440241811621_);}
	.st92{fill:url(#SVGID_00000149349846702803265160000016169112026748787089_);}
	.st93{fill:url(#SVGID_00000101076043111482816860000001198388753958810276_);}
	.st94{fill:#E31E26;}
	.st95{fill:#811517;}
	.st96{fill:url(#SVGID_00000028297539523794584330000010909439978733288581_);}
	.st97{fill:url(#SVGID_00000050663701572541306980000016915332206183835294_);}
	.st98{fill:url(#SVGID_00000047040106291660605500000005677453343790042004_);}
	.st99{fill:#B47920;}
	.st100{fill:#089E32;}
	.st101{fill:#FFE30B;}
	.st102{fill-rule:evenodd;clip-rule:evenodd;fill:#EE1D24;}
	.st103{fill:#17377D;}
	.st104{filter:url(#Adobe_OpacityMaskFilter);}
	.st105{opacity:0.28;mask:url(#SVGID_00000014629680016709370130000009880833168934910645_);}
	.st106{fill:#3A3132;}
	.st107{fill:url(#SVGID_00000107584217983283980010000013432076920715217303_);}
	.st108{filter:url(#Adobe_OpacityMaskFilter_00000063619818664806208370000017335212261377107358_);}
	.st109{opacity:0.28;mask:url(#SVGID_00000085240374049308116140000004147204246892015033_);}
	.st110{fill:#102A63;}
	.st111{filter:url(#Adobe_OpacityMaskFilter_00000065040736615669752680000015712456148883061378_);}
	.st112{opacity:0.28;mask:url(#SVGID_00000105401502605785109930000013267887043947980436_);}
	.st113{fill:#0E2458;}
	.st114{filter:url(#Adobe_OpacityMaskFilter_00000008116067781812452340000007248893174400814228_);}
	.st115{opacity:0.25;mask:url(#SVGID_00000129889817374235606060000006737744126185975978_);}
	.st116{fill:url(#SVGID_00000052798681140007008450000014963074361434983307_);}
	.st117{fill:#00BEC6;}
	.st118{fill:url(#SVGID_00000181053865344512962940000012218654431020750502_);}
	.st119{fill:url(#SVGID_00000121276748384229594360000011255170605447165611_);stroke:#FFFFFF;stroke-miterlimit:10;}
	
		.st120{fill:url(#SVGID_00000073712670844811435520000001507581691472478371_);stroke:#FFFFFF;stroke-width:0.5;stroke-miterlimit:10;}
	.st121{fill:url(#SVGID_00000130622871125136263120000013976714505725896118_);}
	.st122{fill:#F9D075;}
	.st123{fill:#FFEF92;}
	.st124{fill:url(#SVGID_00000134972334061224599890000009377560125225938592_);}
	.st125{fill:url(#SVGID_00000093178690493133341060000001193746163052139702_);}
	.st126{fill:url(#SVGID_00000039099366193859230520000013598977771409878171_);}
	.st127{fill:#09890F;}
	.st128{fill:#A9CE4D;}
	.st129{fill:#FF9501;}
	.st130{fill:#AA1523;}
	.st131{fill:#006B52;}
	.st132{fill:#EEC200;}
	.st133{fill:#9F4641;}
	.st134{fill:url(#SVGID_00000143581793835500968880000005631214365384355756_);stroke:#FFFFFF;stroke-miterlimit:10;}
	.st135{fill:none;stroke:#FFFFFF;stroke-width:1.7883;stroke-miterlimit:10;}
	.st136{fill:none;stroke:#BFDADD;stroke-width:2;stroke-linecap:round;stroke-linejoin:round;stroke-miterlimit:10;}
	.st137{fill:none;stroke:#016D39;stroke-width:2;stroke-linecap:round;stroke-linejoin:round;stroke-miterlimit:10;}
	.st138{fill:none;stroke:#00BFAD;stroke-width:2;stroke-linecap:round;stroke-linejoin:round;stroke-miterlimit:10;}
	.st139{fill:#12162E;}
	.st140{fill:none;stroke:#12162E;stroke-miterlimit:10;}
	.st141{fill:#016D39;}
	.st142{fill:#083F24;}
	.st143{fill:#FF5635;}
	.st144{fill:#C63724;}
	.st145{fill:#FFBE00;}
	.st146{fill:#00BFAD;}
	.st147{fill:#D1D3D3;}
	.st148{fill:#9A4641;}
	.st149{fill:url(#SVGID_00000152958759661078882190000007043450268013204666_);}
	.st150{fill:url(#SVGID_00000097479212964157156780000001659326303777207452_);stroke:#FFFFFF;stroke-miterlimit:10;}
	.st151{fill:#F75D58;}
	.st152{fill:url(#SVGID_00000133498010712887960840000010648408203642215853_);}
	.st153{opacity:0.42;fill:#FFFFFF;}
	.st154{fill:#229200;}
	.st155{fill:#FF0000;}
	.st156{fill:#0C1F26;}
	.st157{fill:#E43724;}
	.st158{fill:#6B2422;}
	.st159{fill:#FBF1E5;}
	.st160{fill:#FAF8F0;}
	.st161{fill:#EEEEED;}
	.st162{fill:#DBDEDD;}
	.st163{fill:#A6453D;}
	.st164{fill:#E3E4E7;}
	.st165{fill:#D2301D;}
	.st166{fill:#E2D7D0;}
	.st167{fill:#FCF8EF;}
	.st168{fill:#C42C1E;}
	.st169{fill:#0C232B;}
	.st170{fill:#0D3B6E;}
	.st171{fill:#139AEC;}
	.st172{fill:#F52A3C;}
	.st173{fill:url(#SVGID_00000084511146334082209040000007272680319745762206_);}
	.st174{fill:#890924;}
	.st175{fill:url(#SVGID_00000018918517400146844120000012242355496855381670_);}
	.st176{fill-rule:evenodd;clip-rule:evenodd;fill:url(#SVGID_00000080895519974213852060000004597829959003000989_);}
	.st177{fill-rule:evenodd;clip-rule:evenodd;fill:#CE1515;}
	.st178{fill-rule:evenodd;clip-rule:evenodd;fill:#FFFBDD;}
	.st179{fill-rule:evenodd;clip-rule:evenodd;fill:#06542B;}
	.st180{fill-rule:evenodd;clip-rule:evenodd;fill:#AA1111;}
	.st181{fill:#005C01;}
	.st182{fill:#F5AB35;}
	.st183{fill-rule:evenodd;clip-rule:evenodd;fill:#215605;}
	.st184{fill:#215605;}
	.st185{fill-rule:evenodd;clip-rule:evenodd;fill:url(#SVGID_00000052784228949653502220000017728273278316137627_);}
	.st186{fill:url(#SVGID_00000062186365715176719900000012031601152746845868_);}
	.st187{fill:url(#SVGID_00000153679461673284008060000011843576080669197976_);}
	.st188{fill:url(#SVGID_00000037672737456340923990000009761646643118235286_);}
	.st189{fill:url(#SVGID_00000041264684074783785270000011543989679727830405_);}
	.st190{fill:url(#SVGID_00000007419600581759044440000012802758116716535477_);}
	.st191{fill:url(#SVGID_00000001665958623792200710000002666397199795806387_);}
	.st192{fill:url(#SVGID_00000171706641831034718830000017054422790993513356_);}
	.st193{fill:url(#SVGID_00000181791269882611507270000006709302791420959384_);}
	.st194{fill:url(#SVGID_00000141432983862781431620000006537397285144395955_);}
	.st195{fill:#B6FFFF;}
	.st196{fill:url(#SVGID_00000063630079276649850540000018339747300506470784_);}
	.st197{fill:url(#SVGID_00000036940491810801251400000005104492136164173966_);}
	.st198{fill:url(#SVGID_00000127025339860398343060000005882613822541475503_);}
	.st199{fill:url(#SVGID_00000153705755486762097420000004024096042563542195_);}
	.st200{fill:url(#SVGID_00000030464712502958883100000001635702256043642264_);}
	.st201{fill:url(#SVGID_00000121971209035546850340000002231586974753404296_);}
	.st202{fill:url(#SVGID_00000036972447808571291120000000374360000096311223_);}
	.st203{fill:url(#SVGID_00000090978957130933621170000013717713078567712178_);}
	.st204{fill:url(#SVGID_00000171717457328961919790000012589623908566234002_);}
	.st205{fill:url(#SVGID_00000152945911845366267370000018434102173088673161_);}
	.st206{fill:url(#SVGID_00000149369175552501383850000004898083223987546774_);}
	.st207{fill:url(#SVGID_00000174574133496070132040000018155484020838002341_);}
	.st208{fill:url(#SVGID_00000145760295161849842660000014628099314041109947_);}
	.st209{fill:url(#SVGID_00000029018622326471631550000014087018149191485595_);}
	.st210{fill:url(#SVGID_00000093893114989599144550000006170405811166124418_);}
	.st211{fill:url(#SVGID_00000020396676132231117920000010714789719254711981_);}
	.st212{fill:#CE4A43;}
	.st213{fill:url(#SVGID_00000056417862786845075360000009520468045223740823_);}
	.st214{fill:#CE4A43;stroke:#FFFFFF;stroke-miterlimit:10;}
	.st215{fill:none;stroke:#CE4A43;stroke-miterlimit:10;}
</style>
<path class="st17" d="M154.08,65.46c6.17-1.3,11.78-3.43,16.73-6.16c-2.37-0.66-4.71-1.47-7-2.42c5.08-2.02,9.59-4.68,13.44-7.78
	c-1.69-0.35-3.37-0.79-5.03-1.31c6.79-4.35,11.9-10.07,15.08-16.27c3.18,6.2,8.3,11.91,15.08,16.27c-1.66,0.53-3.34,0.96-5.03,1.31
	c3.85,3.1,8.36,5.76,13.44,7.78c-2.3,0.95-4.63,1.76-7,2.42c4.94,2.73,10.56,4.86,16.73,6.16
	C199.64,76.09,174.95,76.09,154.08,65.46z M140.64,67.08l-3.44,0.5l2.49,2.43l-0.59,3.42l3.08-1.62l3.08,1.62l-0.59-3.42l2.49-2.43
	l-3.44-0.5l-1.54-3.12L140.64,67.08z M126.03,67.08l-3.44,0.5l2.49,2.43l-0.59,3.42l3.08-1.62l3.08,1.62l-0.59-3.42l2.49-2.43
	l-3.44-0.5l-1.54-3.12L126.03,67.08z M111.42,67.08l-3.44,0.5l2.49,2.43l-0.59,3.42l3.08-1.62l3.08,1.62l-0.59-3.42l2.49-2.43
	l-3.44-0.5l-1.54-3.12L111.42,67.08z M102.74,110.98c0,1.36,1.1,2.46,2.46,2.46c1.36,0,2.46-1.1,2.46-2.46
	c0-1.36-1.1-2.46-2.46-2.46C103.84,108.51,102.74,109.62,102.74,110.98z M96.87,110.98c0,1.36,1.1,2.46,2.46,2.46
	c1.36,0,2.46-1.1,2.46-2.46c0-1.36-1.1-2.46-2.46-2.46C97.97,108.51,96.87,109.62,96.87,110.98z M96.87,116.88
	c0,1.36,1.1,2.46,2.46,2.46c1.36,0,2.46-1.1,2.46-2.46c0-1.36-1.1-2.46-2.46-2.46C97.97,114.41,96.87,115.52,96.87,116.88z
	 M77.23,88.87L77.23,88.87L77.23,88.87c0,10.86,8.8,19.66,19.66,19.66v0l0,0C96.89,97.67,88.08,88.87,77.23,88.87z M75.67,117.25
	L75.67,117.25L75.67,117.25c6.78,4.5,15.92,2.64,20.42-4.14l0,0l0,0C89.31,108.62,80.16,110.47,75.67,117.25z M101.47,107.73
	L101.47,107.73L101.47,107.73c6.78-4.5,8.64-13.64,4.14-20.42l0,0l0,0C98.82,91.81,96.97,100.95,101.47,107.73z M269.39,108.51
	c-1.36,0-2.46,1.1-2.46,2.46c0,1.36,1.1,2.46,2.46,2.46s2.46-1.1,2.46-2.46C271.85,109.62,270.75,108.51,269.39,108.51z
	 M275.26,108.51c-1.36,0-2.46,1.1-2.46,2.46c0,1.36,1.1,2.46,2.46,2.46s2.46-1.1,2.46-2.46
	C277.72,109.62,276.62,108.51,275.26,108.51z M275.26,114.41c-1.36,0-2.46,1.1-2.46,2.46c0,1.36,1.1,2.46,2.46,2.46
	s2.46-1.1,2.46-2.46C277.72,115.52,276.62,114.41,275.26,114.41z M277.7,108.53L277.7,108.53L277.7,108.53
	c10.86,0,19.66-8.8,19.66-19.66l0,0l0,0C286.51,88.87,277.7,97.67,277.7,108.53z M278.5,113.11L278.5,113.11L278.5,113.11
	c4.5,6.78,13.64,8.63,20.42,4.14l0,0l0,0C294.43,110.47,285.28,108.62,278.5,113.11z M268.99,87.31L268.99,87.31L268.99,87.31
	c-4.5,6.78-2.64,15.92,4.14,20.42l0,0h0C277.62,100.95,275.77,91.81,268.99,87.31z M249.22,120.88H125.37v1.41h123.84V120.88z
	 M287.54,169.01h-90.41v1.41h90.41V169.01z M177.47,169.01H87.06v1.41h90.41V169.01z M232.41,63.97l-1.54,3.12l-3.44,0.5l2.49,2.43
	l-0.59,3.42l3.08-1.62l3.08,1.62l-0.59-3.42l2.49-2.43l-3.44-0.5L232.41,63.97z M247.02,63.97l-1.54,3.12l-3.44,0.5l2.49,2.43
	l-0.59,3.42l3.08-1.62l3.08,1.62l-0.59-3.42l2.49-2.43l-3.44-0.5L247.02,63.97z M261.64,63.97l-1.54,3.12l-3.44,0.5l2.49,2.43
	l-0.59,3.42l3.08-1.62l3.08,1.62l-0.59-3.42l2.49-2.43l-3.44-0.5L261.64,63.97z"/>
</svg>
