<?xml version="1.0" encoding="utf-8"?>
<!-- Generator: Adobe Illustrator 27.8.1, SVG Export Plug-In . SVG Version: 6.00 Build 0)  -->
<svg version="1.1" id="Layer_1" xmlns="http://www.w3.org/2000/svg" xmlns:xlink="http://www.w3.org/1999/xlink" x="0px" y="0px"
	 viewBox="0 0 350 230" style="enable-background:new 0 0 350 230;" xml:space="preserve">
<style type="text/css">
	.st0{fill:#EAE4B0;}
	.st1{fill:#332700;}
	.st2{fill:#EBEBFF;}
	.st3{fill:#FBFFAE;}
	.st4{fill:#B0FFD5;}
	.st5{fill:#B3FFFB;}
	.st6{fill:#FFFAB6;}
	.st7{fill:#2B2700;}
	.st8{fill:#FFFFB8;}
	.st9{fill:#040028;}
	.st10{fill:#260000;}
	.st11{opacity:0.5;fill:#848484;}
	.st12{fill:#2B2401;}
	.st13{fill:#FF7C6C;}
	.st14{fill:#CC2D21;}
	.st15{fill:#F75C4C;}
	.st16{fill:#FFE5CF;}
	.st17{fill:#FFFFFF;}
	.st18{fill:#CFDAE3;}
	.st19{fill:#006C11;}
	.st20{fill:#A11E10;}
	.st21{fill:#EDBC93;}
	.st22{fill:#898989;}
	.st23{fill:#2B1536;}
	.st24{fill:#15352A;}
	.st25{fill:#E4EAF5;}
	.st26{fill:#F2F5F5;}
	.st27{fill:#D6363D;}
	.st28{fill:#600000;fill-opacity:0.5098;}
	.st29{fill:#F2CCA3;}
	.st30{fill:#D28F5F;}
	.st31{fill:#FF0000;fill-opacity:0.5098;}
	.st32{fill:#C7D5F5;}
	.st33{fill:#F3DBC0;}
	.st34{fill:#F58086;}
	.st35{fill:url(#SVGID_1_);}
	.st36{fill:#FCC7A2;}
	.st37{fill:url(#SVGID_00000057847872513152227080000012391199740626888874_);}
	.st38{fill:#E20328;}
	.st39{fill:url(#SVGID_00000025431543472534404440000011849941667190013879_);}
	.st40{fill:#F4BDA8;}
	.st41{fill:#DCF7F6;}
	.st42{fill:url(#SVGID_00000034801906271748359770000017791779575027184515_);}
	.st43{fill:url(#SVGID_00000181075796326011502240000013542971085436998832_);}
	.st44{fill:url(#SVGID_00000005264181403483786360000013696473969154789517_);}
	.st45{fill:url(#SVGID_00000099633031140000558660000006960731569252683661_);}
	.st46{fill:url(#SVGID_00000062150803621894104820000013524001913916211867_);}
	.st47{fill:url(#SVGID_00000023252912815200697320000007414103637231041156_);}
	.st48{fill:url(#SVGID_00000075846452352130567380000001481042315379125951_);}
	.st49{fill:url(#SVGID_00000135665259931594638770000009565979918218416790_);}
	.st50{fill:url(#SVGID_00000017488254749978353310000007409586356002759049_);}
	.st51{fill:#E2B881;}
	.st52{fill:#FFFFFF;stroke:#000000;stroke-width:0.05;stroke-miterlimit:10;}
	.st53{fill:url(#SVGID_00000103948930886858253780000010234800980060978070_);}
	.st54{fill:url(#SVGID_00000010311835924746089660000012319912676279887232_);}
	.st55{fill:#0B9ED8;}
	.st56{fill:#FCDFB0;}
	.st57{fill:#FF0013;}
	.st58{fill:url(#SVGID_00000166671418517600478220000008984109497284383370_);}
	.st59{fill:#0A50FF;}
	.st60{fill:#FFB773;}
	.st61{fill-rule:evenodd;clip-rule:evenodd;fill:url(#SVGID_00000096045688196128934100000005700993846074564777_);}
	.st62{fill:#FF334F;}
	.st63{fill:#FFAB66;}
	.st64{fill:#FF8B41;}
	.st65{fill:#BB386B;}
	.st66{fill:#CBCBCB;}
	.st67{fill:#D37250;}
	.st68{fill:#D06D2E;}
	.st69{fill-rule:evenodd;clip-rule:evenodd;fill:#FFFFFF;}
	.st70{fill:#CAFFEC;}
	.st71{fill:#FFF6B3;}
	.st72{fill:#FFFBD2;}
	.st73{fill:#EFFFD2;}
	.st74{fill:#A01D21;}
	.st75{fill:#00261B;}
	.st76{fill:#F4FFB6;}
	.st77{fill:url(#SVGID_00000167364500571144376290000004943537738687499701_);}
	.st78{fill:#002340;}
	.st79{fill:url(#SVGID_00000143577662370605944810000013262802463136628380_);}
	.st80{fill:url(#SVGID_00000022525203478482852850000005780178196656601233_);}
	.st81{fill:#D91215;}
	.st82{fill:#98BBCE;}
	.st83{fill:#00A70C;}
	.st84{fill:#C47E2A;}
	.st85{fill-rule:evenodd;clip-rule:evenodd;fill:#1F1D1D;}
	.st86{fill-rule:evenodd;clip-rule:evenodd;fill:#2B2700;}
	.st87{fill-rule:evenodd;clip-rule:evenodd;fill:#FF1943;}
	.st88{fill:url(#SVGID_00000178883319902487291890000006231210505442977178_);}
	.st89{fill:url(#SVGID_00000147927483578671562220000012253414019312645302_);}
	.st90{fill:url(#SVGID_00000127759912191469646410000014675908299624896897_);}
	.st91{fill:url(#SVGID_00000140008590985886812980000017617271440307491981_);}
	.st92{fill:url(#SVGID_00000031181021667093750120000008102504000841618321_);}
	.st93{fill:url(#SVGID_00000084491951547601601660000008484812697697688471_);}
	.st94{fill:#E31E26;}
	.st95{fill:#811517;}
	.st96{fill:url(#SVGID_00000075163216309928757560000004020132412309161407_);}
	.st97{fill:url(#SVGID_00000006674643595507577270000000859314566288072598_);}
	.st98{fill:url(#SVGID_00000097479544130065915740000012710883131791091123_);}
	.st99{fill:#B47920;}
	.st100{fill:#089E32;}
	.st101{fill:#FFE30B;}
	.st102{fill-rule:evenodd;clip-rule:evenodd;fill:#EE1D24;}
	.st103{fill:#17377D;}
	.st104{filter:url(#Adobe_OpacityMaskFilter);}
	.st105{opacity:0.28;mask:url(#SVGID_00000165215081157007371090000004131357736036532636_);}
	.st106{fill:#3A3132;}
	.st107{fill:url(#SVGID_00000096025919048240963310000004427900252749649568_);}
	.st108{filter:url(#Adobe_OpacityMaskFilter_00000122700860469349678860000006630228883839700644_);}
	.st109{opacity:0.28;mask:url(#SVGID_00000123422548795856059890000005460556537170903986_);}
	.st110{fill:#102A63;}
	.st111{filter:url(#Adobe_OpacityMaskFilter_00000012460743385802407350000013980909700360009378_);}
	.st112{opacity:0.28;mask:url(#SVGID_00000049918230750184465780000014492963642355256509_);}
	.st113{fill:#0E2458;}
	.st114{filter:url(#Adobe_OpacityMaskFilter_00000052787033639370818500000014916033144554969730_);}
	.st115{opacity:0.25;mask:url(#SVGID_00000147198841725307116410000000640607237966336417_);}
	.st116{fill:url(#SVGID_00000004516792073826081330000015288461145622277275_);}
	.st117{fill:#00BEC6;}
	.st118{fill:url(#SVGID_00000003080811884337913050000010979914185760892073_);}
	.st119{fill:url(#SVGID_00000111899884026886982970000003680407690417309852_);stroke:#FFFFFF;stroke-miterlimit:10;}
	
		.st120{fill:url(#SVGID_00000054945988828887215020000003792895378926359741_);stroke:#FFFFFF;stroke-width:0.5;stroke-miterlimit:10;}
	.st121{fill:url(#SVGID_00000009554223840181596040000008156940270087582887_);}
	.st122{fill:#F9D075;}
	.st123{fill:#FFEF92;}
	.st124{fill:url(#SVGID_00000163786132969983835360000010342574039458635445_);}
	.st125{fill:url(#SVGID_00000031196571069110744840000008032492894537823406_);}
	.st126{fill:url(#SVGID_00000015351633467764465440000016829335469212335761_);}
	.st127{fill:#09890F;}
	.st128{fill:#A9CE4D;}
	.st129{fill:#FF9501;}
	.st130{fill:#AA1523;}
	.st131{fill:#006B52;}
	.st132{fill:#EEC200;}
	.st133{fill:#9F4641;}
	.st134{fill:url(#SVGID_00000133509903975097190760000018364376173519164544_);stroke:#FFFFFF;stroke-miterlimit:10;}
	.st135{fill:none;stroke:#FFFFFF;stroke-width:1.7883;stroke-miterlimit:10;}
	.st136{fill:none;stroke:#BFDADD;stroke-width:2;stroke-linecap:round;stroke-linejoin:round;stroke-miterlimit:10;}
	.st137{fill:none;stroke:#016D39;stroke-width:2;stroke-linecap:round;stroke-linejoin:round;stroke-miterlimit:10;}
	.st138{fill:none;stroke:#00BFAD;stroke-width:2;stroke-linecap:round;stroke-linejoin:round;stroke-miterlimit:10;}
	.st139{fill:#12162E;}
	.st140{fill:none;stroke:#12162E;stroke-miterlimit:10;}
	.st141{fill:#016D39;}
	.st142{fill:#083F24;}
	.st143{fill:#FF5635;}
	.st144{fill:#C63724;}
	.st145{fill:#FFBE00;}
	.st146{fill:#00BFAD;}
	.st147{fill:#D1D3D3;}
	.st148{fill:#9A4641;}
	.st149{fill:url(#SVGID_00000160897560462251444840000006023181162167329693_);}
	.st150{fill:url(#SVGID_00000067938156794020919790000000465617077097755524_);stroke:#FFFFFF;stroke-miterlimit:10;}
	.st151{fill:#F75D58;}
	.st152{fill:url(#SVGID_00000089560172161267427510000011040362926353246373_);}
	.st153{opacity:0.42;fill:#FFFFFF;}
	.st154{fill:#229200;}
	.st155{fill:#FF0000;}
	.st156{fill:#0C1F26;}
	.st157{fill:#E43724;}
	.st158{fill:#6B2422;}
	.st159{fill:#FBF1E5;}
	.st160{fill:#FAF8F0;}
	.st161{fill:#EEEEED;}
	.st162{fill:#DBDEDD;}
	.st163{fill:#A6453D;}
	.st164{fill:#E3E4E7;}
	.st165{fill:#D2301D;}
	.st166{fill:#E2D7D0;}
	.st167{fill:#FCF8EF;}
	.st168{fill:#C42C1E;}
	.st169{fill:#0C232B;}
	.st170{fill:#0D3B6E;}
	.st171{fill:#139AEC;}
	.st172{fill:#F52A3C;}
	.st173{fill:url(#SVGID_00000105404295579450854370000007249976174927432116_);}
	.st174{fill:#890924;}
	.st175{fill:url(#SVGID_00000067927517028027953060000003584421541121828772_);}
	.st176{fill-rule:evenodd;clip-rule:evenodd;fill:url(#SVGID_00000006695356934510112190000004494419797298598554_);}
	.st177{fill-rule:evenodd;clip-rule:evenodd;fill:#CE1515;}
	.st178{fill-rule:evenodd;clip-rule:evenodd;fill:#FFFBDD;}
	.st179{fill-rule:evenodd;clip-rule:evenodd;fill:#06542B;}
	.st180{fill-rule:evenodd;clip-rule:evenodd;fill:#AA1111;}
	.st181{fill:#005C01;}
	.st182{fill:#F5AB35;}
	.st183{fill-rule:evenodd;clip-rule:evenodd;fill:#215605;}
	.st184{fill:#215605;}
	.st185{fill-rule:evenodd;clip-rule:evenodd;fill:url(#SVGID_00000152260009289449519650000012031820632867992752_);}
	.st186{fill:url(#SVGID_00000009586486875539194660000004550816690610673031_);}
	.st187{fill:url(#SVGID_00000117658031917018641610000001687902226856325263_);}
	.st188{fill:url(#SVGID_00000162328413747700813930000015777189693145132170_);}
	.st189{fill:url(#SVGID_00000144299072890517257290000007084103834920762803_);}
	.st190{fill:url(#SVGID_00000075869118389924840790000011269968367767723905_);}
	.st191{fill:url(#SVGID_00000060020565069258511030000015301856925835718031_);}
	.st192{fill:url(#SVGID_00000116936809803915552890000007424920519470034596_);}
	.st193{fill:url(#SVGID_00000129186939864707435000000000599032930034837659_);}
	.st194{fill:url(#SVGID_00000177467197382616062560000007198604889421120409_);}
	.st195{fill:#B6FFFF;}
	.st196{fill:url(#SVGID_00000047778173394384502850000005238849416563960224_);}
	.st197{fill:url(#SVGID_00000103952292134114159930000002052651734658754953_);}
	.st198{fill:url(#SVGID_00000083767727698196748050000003834423202786786448_);}
	.st199{fill:url(#SVGID_00000080925441954193313010000012238354174704536495_);}
	.st200{fill:url(#SVGID_00000113333413016230571790000001063130388845236635_);}
	.st201{fill:url(#SVGID_00000059279403498837890690000005261893159264354733_);}
	.st202{fill:url(#SVGID_00000072968087584697281540000006605104160475775370_);}
	.st203{fill:url(#SVGID_00000111876668283541348800000003798215282867062916_);}
	.st204{fill:url(#SVGID_00000119088854659076745880000006125360014726263953_);}
	.st205{fill:url(#SVGID_00000054965951474705474550000009434575050480944057_);}
	.st206{fill:url(#SVGID_00000047057263544770995490000010583724669434307996_);}
	.st207{fill:url(#SVGID_00000134234979669637556200000000703170485395022480_);}
	.st208{fill:url(#SVGID_00000133503958449983157200000017554689159072875454_);}
	.st209{fill:url(#SVGID_00000159445755463664253330000004946114031011314330_);}
	.st210{fill:url(#SVGID_00000142158383441218784860000016022309990694389126_);}
	.st211{fill:url(#SVGID_00000068663690608624231700000006498736459713469626_);}
	.st212{fill:#CE4A43;}
	.st213{fill:url(#SVGID_00000130605460554253005630000011469096288466077868_);}
	.st214{fill:#CE4A43;stroke:#FFFFFF;stroke-miterlimit:10;}
	.st215{fill:none;stroke:#CE4A43;stroke-miterlimit:10;}
</style>
<g>
	<path class="st136" d="M215.87,168.9c0,0,29.64-27.67,25.28-76.77 M240.1,119.53c0,0,4.32-13.33,13.61-20.06 M247.4,105.79
		c0,0,0.95-4.37,2.23-6.22 M247.69,105.42l6.02-2.63 M246.24,107.39c0,0,2.83,0.03,5.17-1.17 M245.67,108.24
		c0,0-0.54-2.77-0.06-4.88 M244.17,110.68c0,0,3.98,0.13,6.86-1.9 M243.63,111.64c0,0-0.62-2.37-0.37-4.47 M242.24,114.35
		c0,0,2.78,0.05,4.61-1.21 M241.52,98.15c0,0,1.78-1.61,2.06-3.83 M241.57,99.97c0,0-1.92-3.09-1.89-5.65 M241.58,102.93
		c0,0,1.7-1.64,2.55-3.58 M241.47,106.87c0,0-2.02-3.65-2.46-6.05 M241.27,110.13c0,0-1.9-2.38-2.42-3.92 M241.49,106.34
		c0,0,0.77-0.92,1.41-2.38 M240.69,115.69c0,0-1.54-3.14-1.61-4.82 M239.72,121.62c0,0,2.64-2.2,3.42-4.59 M239.27,123.8
		c0,0-1.61-5.13-1.32-7.47 M238.69,126.34c0,0,3.05-1.23,4.36-3.57 M238.19,128.29c0,0-1.75-3.55-1.5-5.65 M237.72,130
		c0,0,2.49-1.26,3.18-2.38 M237.08,132.14c0,0-1.25-2.89-1.48-4.44 M236.53,133.88c0,0,3.01-1.24,3.81-2.58 M235.15,137.78
		c0,0,3.88-1.78,4.98-3.15 M233.56,141.74c0,0,3.48-1.7,4.62-2.9 M230.23,148.77c0,0,3.62-3.75,5.73-4.69 M133.9,168.9
		c0,0-29.64-27.67-25.28-76.77 M109.67,119.53c0,0-4.32-13.33-13.61-20.06 M102.37,105.79c0,0-0.95-4.37-2.23-6.22 M102.09,105.42
		l-6.02-2.63 M103.54,107.39c0,0-2.83,0.03-5.17-1.17 M104.11,108.24c0,0,0.54-2.77,0.06-4.88 M105.61,110.68
		c0,0-3.98,0.13-6.86-1.9 M106.14,111.64c0,0,0.62-2.37,0.37-4.47 M107.53,114.35c0,0-2.78,0.05-4.61-1.21 M108.25,98.15
		c0,0-1.78-1.61-2.06-3.83 M108.21,99.97c0,0,1.92-3.09,1.89-5.65 M108.19,102.93c0,0-1.7-1.64-2.55-3.58 M108.3,106.87
		c0,0,2.02-3.65,2.46-6.05 M108.5,110.13c0,0,1.9-2.38,2.42-3.92 M108.28,106.34c0,0-0.77-0.92-1.41-2.38 M116.89,138.11
		c0,0-1.55-1.64-1.78-3.07 M109.09,115.69c0,0,1.54-3.14,1.61-4.82 M110.06,121.62c0,0-2.64-2.2-3.42-4.59 M110.5,123.8
		c0,0,1.61-5.13,1.32-7.47 M111.09,126.34c0,0-3.05-1.23-4.36-3.57 M111.58,128.29c0,0,1.75-3.55,1.5-5.65 M112.06,130
		c0,0-2.49-1.26-3.18-2.38 M112.69,132.14c0,0,1.25-2.89,1.48-4.44 M113.25,133.88c0,0-3.01-1.24-3.81-2.58 M114.62,137.78
		c0,0-3.88-1.78-4.98-3.15 M116.21,141.74c0,0-3.48-1.7-4.62-2.9 M119.55,148.77c0,0-3.62-3.75-5.73-4.69"/>
	<path class="st137" d="M165.59,183.48c0,0,39.52,9.08,77.77-22.02 M194,183.62c0,0,13.6-4.65,25.02-20.26 M220.07,175.92
		c0,0,13.46-3.88,24.24,0.05"/>
	<path class="st137" d="M235.54,174.28c0,0,4.15-1.66,6.4-1.64 M236.01,174.31l5.54,3.52 M233.56,174.22c0,0,1.56,2.36,3.86,3.63
		 M232.53,174.22c0,0,1.99-2,4.01-2.78 M229.67,174.34c0,0,2.12,3.37,5.42,4.62 M228.58,174.43c0,0,1.62-1.84,3.5-2.81
		 M225.56,174.8c0,0,1.51,2.33,3.58,3.14 M238.57,165.13c0,0,2.33,0.57,4.33-0.44 M237.1,166.19c0,0,1.49-3.32,3.63-4.73
		 M234.65,167.86c0,0,2.31,0.5,4.4,0.11 M231.32,169.98c0,0,1.9-3.72,3.64-5.43 M228.51,171.63c0,0,0.9-2.91,1.9-4.2 M231.77,169.7
		c0,0,1.19,0.12,2.76-0.16 M214.27,169.15c0,0,2.98-1.48,4.23-2.93 M211.95,171.55c0,0,1.2-3.89,2.52-5.33 M210.08,173.31
		c0,0,2.81-0.69,4.48-1.96 M206.67,176.18c0,0,1.5-3.79,2.93-4.82 M203.91,178.22c0,0,3.47-0.55,4.92-1.98 M204.47,177.83
		c0,0-0.16-2.44,0.6-3.42 M200.63,180.34c0,0,2.22,0.37,3.54-0.25 M199.47,181.01c0,0,1.19-2.62,2.26-3.93 M223.58,174.26
		c0,0,1.74-3.04,3.1-4.03 M218.12,176.78c0,0,3.3,0.96,5.72,0.27 M216.07,177.63c0,0,3.35-4.21,5.45-5.28 M213.63,178.56
		c0,0,2.72,1.84,5.4,1.61 M211.74,179.24c0,0,1.96-3.44,3.84-4.41 M210.05,179.81c0,0,2.43,1.36,3.75,1.3 M207.92,180.48
		c0,0,1.69-2.65,2.85-3.71 M206.17,181c0,0,2.71,1.8,4.27,1.72 M202.18,182.04c0,0,3.65,2.22,5.4,2.37 M197.99,182.94
		c0,0,3.35,1.94,4.99,2.2 M192,183.9c0,0,2.67-1.96,4.13-3.68 M190.31,184.11c0,0,5.13,0.9,7.09,2.12"/>
	<path class="st138" d="M184.41,185.59c0,0,39.85-7.47,62.48-51.27 M210.5,174.37c0,0,10.61-9.7,14.84-28.57 M231.32,156.9
		c0,0,10.79-8.94,22.24-9.64 M244.85,149.21c0,0,3.14-3.18,5.22-4.06 M245.29,149.05l6.49,1.01 M243,149.94c0,0,2.38,1.54,4.99,1.78
		 M242.07,150.35c0,0,1.02-2.63,2.56-4.15 M239.49,151.61c0,0,3.29,2.24,6.81,2.07 M238.53,152.13c0,0,0.75-2.33,2.08-3.97
		 M235.9,153.67c0,0,2.32,1.53,4.54,1.44 M243.97,139.61c0,0,2.36-0.4,3.79-2.13 M243.04,141.16c0,0,0.04-3.64,1.44-5.78
		 M241.46,143.67c0,0,2.32-0.47,4.07-1.66 M239.26,146.94c0,0,0.25-4.16,1.16-6.43 M237.34,149.59c0,0-0.33-3.03,0.06-4.61
		 M239.56,146.51c0,0,1.14-0.36,2.46-1.25 M223.3,153.01c0,0,2.14-2.54,2.71-4.37 M222.13,156.13c0,0-0.45-4.05,0.18-5.9
		 M221.12,158.49c0,0,2.29-1.76,3.33-3.58 M219.14,162.49c0,0-0.14-4.07,0.76-5.59 M217.43,165.46c0,0,2.96-1.89,3.72-3.79
		 M217.78,164.88c0,0-1.12-2.18-0.82-3.38 M215.27,168.72c0,0,2.19-0.55,3.15-1.64 M214.48,169.79c0,0,0.04-2.88,0.5-4.5
		 M233.87,153.96c0,0,0.38-3.48,1.23-4.94 M229.87,158.46c0,0,3.41-0.44,5.35-2.04 M228.33,160.05c0,0,1.39-5.2,2.89-7.01
		 M226.47,161.89c0,0,3.23,0.6,5.6-0.68 M225.01,163.27c0,0,0.43-3.94,1.76-5.58 M223.69,164.46c0,0,2.77,0.27,3.96-0.31
		 M222.01,165.93c0,0,0.49-3.11,1.13-4.54 M220.61,167.1c0,0,3.21,0.56,4.6-0.13 M217.36,169.65c0,0,4.23,0.58,5.89,0.01
		 M213.89,172.15c0,0,3.85,0.43,5.46,0.02 M208.78,175.43c0,0,1.66-2.86,2.31-5.02 M207.31,176.29c0,0,5.06-1.23,7.35-0.89"/>
	<path class="st137" d="M185.4,183.48c0,0-39.52,9.08-77.77-22.02 M130.93,175.92c0,0-13.46-3.88-24.24,0.05 M115.45,174.28
		c0,0-4.15-1.66-6.4-1.64 M114.98,174.31l-5.54,3.52 M117.43,174.22c0,0-1.56,2.36-3.86,3.63 M118.46,174.22c0,0-1.99-2-4.01-2.78
		 M121.32,174.34c0,0-2.12,3.37-5.42,4.62 M122.41,174.43c0,0-1.62-1.84-3.5-2.81 M125.43,174.8c0,0-1.51,2.33-3.58,3.14
		 M112.42,165.13c0,0-2.33,0.57-4.33-0.44 M113.89,166.19c0,0-1.49-3.32-3.63-4.73 M116.34,167.86c0,0-2.31,0.5-4.4,0.11
		 M119.67,169.98c0,0-1.9-3.72-3.64-5.43 M122.48,171.63c0,0-0.9-2.91-1.9-4.2 M119.22,169.7c0,0-1.19,0.12-2.76-0.16
		 M136.72,169.15c0,0-2.98-1.48-4.23-2.93 M139.04,171.55c0,0-1.2-3.89-2.52-5.33 M140.91,173.31c0,0-2.81-0.69-4.48-1.96
		 M144.32,176.18c0,0-1.5-3.79-2.93-4.82 M147.08,178.22c0,0-3.47-0.55-4.92-1.98 M146.52,177.83c0,0,0.16-2.44-0.6-3.42
		 M150.37,180.34c0,0-2.22,0.37-3.54-0.25 M151.52,181.01c0,0-1.19-2.62-2.26-3.93 M127.41,174.26c0,0-1.74-3.04-3.1-4.03
		 M132.88,176.78c0,0-3.3,0.96-5.72,0.27 M134.93,177.63c0,0-3.35-4.21-5.45-5.28 M137.37,178.56c0,0-2.72,1.84-5.4,1.61
		 M139.25,179.24c0,0-1.96-3.44-3.84-4.41 M140.94,179.81c0,0-2.43,1.36-3.75,1.3 M143.07,180.48c0,0-1.69-2.65-2.85-3.71
		 M144.82,181c0,0-2.71,1.8-4.27,1.72 M148.82,182.04c0,0-3.65,2.22-5.4,2.37 M153,182.94c0,0-3.35,1.94-4.99,2.2 M158.99,183.9
		c0,0-2.67-1.96-4.13-3.68 M160.69,184.11c0,0-5.13,0.9-7.09,2.12"/>
	<path class="st138" d="M166.59,185.59c0,0-39.85-7.47-62.48-51.27 M140.49,174.37c0,0-10.61-9.7-14.84-28.57 M119.67,156.9
		c0,0-10.79-8.94-22.24-9.64 M106.14,149.21c0,0-3.14-3.18-5.22-4.06 M105.7,149.05l-6.49,1.01 M107.99,149.94
		c0,0-2.38,1.54-4.99,1.78 M108.93,150.35c0,0-1.02-2.63-2.56-4.15 M111.5,151.61c0,0-3.29,2.24-6.81,2.07 M112.47,152.13
		c0,0-0.75-2.33-2.08-3.97 M115.09,153.67c0,0-2.32,1.53-4.54,1.44 M107.02,139.61c0,0-2.36-0.4-3.79-2.13 M107.95,141.16
		c0,0-0.04-3.64-1.44-5.78 M109.53,143.67c0,0-2.32-0.47-4.07-1.66 M111.73,146.94c0,0-0.25-4.16-1.16-6.43 M113.65,149.59
		c0,0,0.33-3.03-0.06-4.61 M111.43,146.51c0,0-1.14-0.36-2.46-1.25 M127.69,153.01c0,0-2.14-2.54-2.71-4.37 M128.86,156.13
		c0,0,0.45-4.05-0.18-5.9 M129.87,158.49c0,0-2.29-1.76-3.33-3.58 M131.85,162.49c0,0,0.14-4.07-0.76-5.59 M133.56,165.46
		c0,0-2.96-1.89-3.72-3.79 M133.21,164.88c0,0,1.12-2.18,0.82-3.38 M135.73,168.72c0,0-2.19-0.55-3.15-1.64 M136.52,169.79
		c0,0-0.04-2.88-0.5-4.5 M117.12,153.96c0,0-0.38-3.48-1.23-4.94 M121.12,158.46c0,0-3.41-0.44-5.35-2.04 M122.66,160.05
		c0,0-1.39-5.2-2.89-7.01 M124.52,161.89c0,0-3.23,0.6-5.6-0.68 M125.98,163.27c0,0-0.43-3.94-1.76-5.58 M127.3,164.46
		c0,0-2.77,0.27-3.96-0.31 M128.98,165.93c0,0-0.49-3.11-1.13-4.54 M130.38,167.1c0,0-3.21,0.56-4.6-0.13 M133.63,169.65
		c0,0-4.23,0.58-5.89,0.01 M137.1,172.15c0,0-3.85,0.43-5.46,0.02 M142.21,175.43c0,0-1.66-2.86-2.31-5.02 M143.68,176.29
		c0,0-5.06-1.23-7.35-0.89"/>
	<path class="st139" d="M175.5,181.17c-32.07,0-58.16-26.09-58.16-58.16c0-32.07,26.09-58.16,58.16-58.16
		c32.07,0,58.16,26.09,58.16,58.16C233.65,155.09,207.56,181.17,175.5,181.17z M175.5,66.17c-31.34,0-56.84,25.5-56.84,56.84
		c0,31.34,25.5,56.84,56.84,56.84c31.34,0,56.84-25.5,56.84-56.84C232.34,91.67,206.84,66.17,175.5,66.17z M175.5,179.41
		c-31.09,0-56.39-25.3-56.39-56.39c0-31.09,25.3-56.39,56.39-56.39c31.09,0,56.39,25.3,56.39,56.39
		C231.89,154.11,206.59,179.41,175.5,179.41z M175.5,67.94c-30.37,0-55.08,24.71-55.08,55.08c0,30.37,24.71,55.08,55.08,55.08
		c30.37,0,55.08-24.71,55.08-55.08C230.57,92.65,205.87,67.94,175.5,67.94z"/>
	<path class="st140" d="M127.74,143.28h95.51 M167.15,152.6h-12.61 M196.45,152.6h-12.61"/>
	<path class="st141" d="M182.14,184c0,0-2.2-6.1,0.22-10.23c0,0,5.04,0.66,6.22-3.25c4.22,1.27,6.75-4.53,6.75-4.53
		c3.9,1.3,6.59-3,6.59-3s-1.82,5.3,0.86,6.43c-3.95,2.74-4.11,5.05-2.91,6.78c-2.92,0.2-5.52,2.77-4.84,5.55
		C191.56,184.32,186.32,185.28,182.14,184z M178.76,184.84c0,0,2.96-4.16,1.99-7.81c0,0-3.96-0.56-4.04-3.78
		c-3.47,0.07-4.17-4.86-4.17-4.86c-3.23,0.17-4.37-3.66-4.37-3.66s0.26,4.4-2,4.7c2.42,2.91,2.05,4.69,0.78,5.76
		c2.17,0.77,3.6,3.26,2.51,5.23C171.55,183.1,175.32,184.93,178.76,184.84z M167.05,184.82c0,0,1.53-6.13-1.23-9.9
		c0,0-4.82,1.14-6.36-2.54c-3.96,1.65-6.99-3.72-6.99-3.72c-3.65,1.65-6.68-2.25-6.68-2.25s2.29,4.96-0.19,6.32
		c4.1,2.27,4.48,4.49,3.49,6.29c2.85-0.09,5.62,2.14,5.25,4.9C157.95,186.06,163.13,186.47,167.05,184.82z"/>
	<path class="st142" d="M167.75,170.07c1.15,0.75,1.95,3.93,0.8,5.44c1.35,0.55,2.98,2.84,2.28,4.24c-0.7,1.4,3.54,3.81,5.9,4.5
		c2.35,0.69,2.78-1.49,3.93-3.58c-0.59,2.32-1.9,4.17-1.9,4.17c-3.44,0.09-7.21-1.74-9.3-4.42c1.1-1.97-0.34-4.46-2.51-5.23
		c1.28-1.07,1.64-2.85-0.78-5.76c2.26-0.29,2-4.7,2-4.7S169.17,169.83,167.75,170.07z M165.5,183.91c-0.12-0.12-2.09-2.07-4.92-4.32
		c-2,0.34-5.02,0.15-7.69-2.99c2.01,1.45,5.46,2.28,7.24,2.64c-2.69-2.12-6.07-4.42-9.34-5.69c4.68,0.61,8.07,2.65,10.4,4.75
		c-0.13-1.05-0.48-2.58-1.43-3.47c1.7,1.16,2.99,4.9,3.07,5.13C164.64,182.02,165.44,183.78,165.5,183.91z M167.37,179.14
		c-0.39,2.93,0.1,5.64-2.93,5.9c-3.03,0.26-9-0.6-8.82-2.54c0.17-1.93-2.74-3.84-4.54-3.87c0.65-2.26-1.71-5.57-3.37-5.91
		c1.48-0.89-1.76-6.08-1.92-6.33c0.09,0.2,2.23,4.98-0.2,6.32c4.1,2.27,4.49,4.49,3.49,6.29c2.85-0.09,5.62,2.14,5.24,4.9
		c3.62,2.15,8.79,2.56,12.72,0.91C167.05,184.82,167.73,182.08,167.37,179.14z M176.22,175.19c0.45,0.94,0.26,2.2,0.05,3.03
		c0.31,0.61,0.55,1.19,0.75,1.74C177.02,179.81,177.16,176.57,176.22,175.19z M175.19,178.61
		C175.19,178.61,175.19,178.61,175.19,178.61c-1.24-0.8-3.59-2.44-4.68-4.12c1.08,3.15,3.31,4.18,4.91,4.51
		C175.35,178.88,175.27,178.75,175.19,178.61z M177.85,183.71c0,0-0.07-1.6-0.84-3.74l-1.03-0.87c-0.17-0.02-0.36-0.05-0.56-0.09
		C176.93,181.61,177.85,183.71,177.85,183.71z M169.84,171.58c2.08,1.92,3.94,4.64,5.35,7.02c0,0,0,0,0,0
		c0.48,0.31,0.79,0.49,0.79,0.49s0.14-0.36,0.28-0.88C175.13,175.94,173.18,173.42,169.84,171.58z M202.78,169.42
		c-2.58-1.09-0.98-6.06-0.87-6.41c-0.19,0.38-2.88,5.89-1.29,6.64c-1.67,0.52-3.72,4.15-2.82,6.38c-1.83,0.21-4.61,2.47-4.23,4.42
		c0.38,1.96-5.63,3.45-8.75,3.51c-3.11,0.05-2.9-2.77-3.6-5.72c-0.07,3.03,0.91,5.75,0.91,5.75c4.18,1.28,9.41,0.32,12.88-2.25
		c-0.67-2.78,1.93-5.34,4.84-5.54C198.67,174.47,198.83,172.16,202.78,169.42z M197.56,170.8c-4.7,1.11-7.95,3.54-10.11,5.93
		c0.02-1.09,0.21-2.68,1.08-3.69c-1.66,1.41-2.6,5.57-2.6,5.57c-1.62,2.28-2.26,4.17-2.3,4.29c0.13-0.16,1.94-2.34,4.57-4.93
		c2.07,0.14,5.14-0.37,7.54-3.85c-1.9,1.69-5.33,2.9-7.12,3.45C191.16,175.13,194.37,172.43,197.56,170.8z"/>
	<path class="st143" d="M178.79,183.07c0.31,3.66-2.41,6.88-6.08,7.19c-3.66,0.31-6.88-2.41-7.19-6.08
		c-0.31-3.66,2.41-6.88,6.08-7.19C175.26,176.68,178.48,179.4,178.79,183.07z M183.95,191.12c0.24,2.84-1.87,5.33-4.71,5.57
		c-2.84,0.24-5.33-1.87-5.57-4.7c-0.24-2.84,1.87-5.33,4.71-5.57C181.22,186.17,183.71,188.28,183.95,191.12z M187.32,183.19
		c0.24,2.84-1.87,5.33-4.71,5.57c-2.84,0.24-5.33-1.87-5.57-4.71c-0.24-2.84,1.87-5.33,4.71-5.57
		C184.59,178.25,187.08,180.36,187.32,183.19z"/>
	<path class="st144" d="M178.79,183.07c-0.21-2.48-1.75-4.52-3.86-5.49c0.67,0.94,1.11,2.07,1.22,3.3c0.31,3.66-2.41,6.88-6.08,7.19
		c-1.19,0.1-2.32-0.12-3.33-0.59c1.32,1.85,3.55,2.98,5.98,2.78C176.38,189.95,179.1,186.73,178.79,183.07z M183.95,191.12
		c-0.16-1.92-1.36-3.5-2.99-4.25c0.52,0.73,0.86,1.6,0.94,2.56c0.24,2.84-1.87,5.33-4.71,5.57c-0.92,0.08-1.8-0.09-2.58-0.45
		c1.02,1.43,2.75,2.31,4.63,2.15C182.08,196.45,184.19,193.95,183.95,191.12z M187.32,183.19c-0.16-1.92-1.36-3.5-2.99-4.25
		c0.52,0.73,0.86,1.6,0.94,2.56c0.24,2.84-1.87,5.33-4.71,5.57c-0.92,0.08-1.8-0.09-2.58-0.45c1.02,1.43,2.75,2.31,4.63,2.15
		C185.45,188.52,187.56,186.03,187.32,183.19z"/>
	<path class="st139" d="M173.72,187.56c0.06,0.68-0.45,1.28-1.13,1.33c-0.68,0.06-1.28-0.45-1.33-1.13
		c-0.06-0.68,0.45-1.28,1.13-1.33C173.07,186.38,173.67,186.88,173.72,187.56z M180.03,194.6c0.04,0.53-0.35,0.99-0.87,1.03
		c-0.53,0.04-0.99-0.35-1.03-0.87c-0.04-0.53,0.35-0.99,0.87-1.03C179.52,193.68,179.98,194.07,180.03,194.6z M183.4,186.67
		c0.04,0.53-0.35,0.99-0.87,1.03c-0.53,0.04-0.99-0.35-1.03-0.87c-0.04-0.53,0.35-0.99,0.87-1.03
		C182.89,185.76,183.35,186.15,183.4,186.67z"/>
	<path class="st145" d="M136.02,36.4c-4.69,0-8.49,3.8-8.49,8.5c0,1.65,0.48,3.2,1.3,4.5c1.38,0.99,3.08,1.57,4.92,1.57
		c4.69,0,8.49-3.8,8.49-8.49c0-1.65-0.47-3.2-1.29-4.5C139.56,36.99,137.86,36.4,136.02,36.4z M129.12,49.84
		c-0.1-0.14-0.2-0.29-0.29-0.44c0,0-0.01,0-0.01,0C128.92,49.54,129.01,49.69,129.12,49.84z M129.12,49.84
		c0.2,0.29,0.42,0.56,0.66,0.82C129.55,50.4,129.33,50.13,129.12,49.84z M234.6,49.68c0.02,0,0.04,0.02,0.06,0.04
		C234.64,49.7,234.61,49.69,234.6,49.68L234.6,49.68z M234.6,49.68c-2.04-1.46-4.54-2.31-7.25-2.31c-6.91,0-12.51,5.6-12.51,12.5
		c0,2.43,0.7,4.7,1.9,6.62c2.05,1.46,4.54,2.32,7.25,2.32c6.91,0,12.51-5.6,12.51-12.5C236.49,53.86,235.8,51.6,234.6,49.68
		L234.6,49.68z M239.85,59.86c0,6.9-5.6,12.51-12.5,12.51c-0.2,0-0.4,0-0.59-0.02c-0.02,0-0.05,0-0.07,0
		c-0.19-0.01-0.38-0.03-0.58-0.04c-0.01,0-0.03,0-0.03,0c-0.19-0.02-0.37-0.04-0.56-0.07c-0.03,0-0.07-0.01-0.1-0.01
		c-0.17-0.03-0.35-0.06-0.52-0.09c-0.14-0.03-0.29-0.06-0.44-0.1c-0.11-0.02-0.22-0.05-0.33-0.08c-0.39-0.1-0.78-0.23-1.15-0.37
		c-0.16-0.06-0.31-0.12-0.46-0.18c-0.11-0.05-0.23-0.1-0.34-0.15c-0.1-0.04-0.19-0.09-0.29-0.14c-0.13-0.06-0.25-0.12-0.38-0.19
		c-0.09-0.05-0.17-0.09-0.26-0.14c-0.13-0.07-0.27-0.15-0.4-0.23c-0.17-0.1-0.33-0.21-0.49-0.32c-0.28-0.18-0.54-0.38-0.8-0.58
		c-0.1-0.08-0.19-0.16-0.28-0.24c-0.1-0.08-0.2-0.17-0.29-0.25c-0.1-0.09-0.19-0.17-0.28-0.27c-0.09-0.09-0.18-0.18-0.28-0.27
		c-0.18-0.18-0.36-0.38-0.52-0.57c-0.17-0.2-0.34-0.4-0.5-0.61c-0.08-0.1-0.15-0.2-0.23-0.31c-0.15-0.21-0.29-0.42-0.43-0.65
		c2.05,1.46,4.54,2.32,7.25,2.32c6.91,0,12.51-5.6,12.51-12.5c0-2.44-0.7-4.7-1.9-6.62c0.02,0,0.04,0.02,0.06,0.04
		c0.08,0.06,0.16,0.11,0.24,0.17c0.23,0.17,0.46,0.36,0.68,0.55c0.15,0.13,0.29,0.26,0.44,0.4c0.09,0.08,0.17,0.17,0.26,0.25
		c0.09,0.09,0.17,0.17,0.25,0.27c0.08,0.09,0.16,0.18,0.24,0.27c0.16,0.18,0.32,0.38,0.47,0.57c0.07,0.08,0.13,0.17,0.2,0.26
		c0.11,0.16,0.23,0.32,0.34,0.49c0.09,0.14,0.18,0.27,0.26,0.41c0.01,0.01,0.02,0.03,0.03,0.04c0.09,0.15,0.18,0.31,0.27,0.46
		c0.1,0.19,0.2,0.39,0.3,0.59c0.08,0.17,0.17,0.36,0.24,0.54c0.06,0.13,0.11,0.26,0.16,0.39c0.03,0.09,0.07,0.18,0.1,0.28
		c0.06,0.16,0.11,0.32,0.16,0.48c0.05,0.16,0.1,0.33,0.14,0.49c0.06,0.21,0.11,0.42,0.15,0.62c0.01,0.07,0.03,0.13,0.04,0.2
		c0.03,0.17,0.07,0.35,0.09,0.52c0.03,0.2,0.06,0.41,0.08,0.61c0.02,0.16,0.03,0.33,0.04,0.49c0,0.06,0.01,0.11,0.01,0.17
		C239.85,59.45,239.85,59.66,239.85,59.86z"/>
	<path class="st146" d="M213.31,34.79c0.02,0.01,0.04,0.02,0.06,0.04C213.35,34.81,213.33,34.79,213.31,34.79
		C213.31,34.78,213.31,34.78,213.31,34.79z M113.23,58.02c-3.43,0-6.21,2.78-6.21,6.21c0,1.21,0.35,2.33,0.94,3.29
		c1.01,0.72,2.26,1.15,3.6,1.15c3.43,0,6.2-2.78,6.2-6.21c0-1.21-0.35-2.33-0.94-3.28C115.81,58.45,114.57,58.02,113.23,58.02z
		 M214.75,37.58c0,1.9-1.54,3.45-3.45,3.45c-0.08,0-0.15,0-0.23-0.01c-0.08,0-0.15-0.01-0.23-0.02c-0.15-0.02-0.29-0.05-0.44-0.09
		c-0.06-0.02-0.13-0.03-0.19-0.05c-0.42-0.14-0.81-0.36-1.15-0.65c-0.05-0.05-0.1-0.09-0.15-0.14c-0.21-0.2-0.39-0.42-0.54-0.66
		c-0.33-0.53-0.52-1.15-0.52-1.82c0-1.9,1.54-3.45,3.45-3.45c0.75,0,1.44,0.24,2,0.65c0.02,0.01,0.04,0.02,0.06,0.04
		c0.23,0.17,0.44,0.37,0.62,0.59c0.03,0.03,0.06,0.07,0.08,0.11c0.07,0.09,0.13,0.18,0.19,0.28c0.03,0.05,0.06,0.1,0.08,0.14
		c0.03,0.05,0.05,0.1,0.07,0.15c0.16,0.33,0.27,0.7,0.31,1.08c0.01,0.07,0.02,0.13,0.02,0.2C214.75,37.44,214.75,37.51,214.75,37.58
		z"/>
	<path class="st143" d="M146.84,63.33c3.79-5.76,10.57-19.6,15.38-20.77c4.81-1.17,6.3-3.21,13.28-2.19
		c6.98,1.02,14.27,1.6,16.6,4.66c2.33,3.06,9.29,18.62,9.29,18.62L146.84,63.33z M246.24,75.45c1.9,0,3.45,1.54,3.45,3.45
		c0,1.9-1.54,3.45-3.45,3.45s-3.45-1.54-3.45-3.45C242.79,76.99,244.33,75.45,246.24,75.45z M110.92,78.9c1.9,0,3.45,1.54,3.45,3.45
		s-1.54,3.45-3.45,3.45s-3.45-1.54-3.45-3.45S109.02,78.9,110.92,78.9z"/>
	<path class="st144" d="M146.84,63.33l54.55,0.33c0,0-6.96-15.56-9.29-18.62c-1.12-1.47-6.18-3.01-6.18-3.01s6.27,6.73,3.88,11.41
		c-2.14,4.21-18.69,3.26-26.42,2.97c-7.72-0.29-14.7,3.93-14.7,3.94C148.01,61.47,147.39,62.49,146.84,63.33z M248.23,76.09
		c0.33,0.53,0.52,1.15,0.52,1.82c0,1.9-1.54,3.45-3.45,3.45c-0.74,0-1.43-0.24-2-0.64c0.61,0.97,1.69,1.62,2.92,1.62
		c1.9,0,3.45-1.54,3.45-3.45C249.68,77.74,249.11,76.71,248.23,76.09z M112.92,79.54c0.33,0.53,0.52,1.15,0.52,1.82
		c0,1.9-1.54,3.45-3.45,3.45c-0.74,0-1.43-0.24-2-0.64c0.61,0.97,1.69,1.62,2.92,1.62c1.9,0,3.45-1.54,3.45-3.45
		C114.37,81.18,113.8,80.16,112.92,79.54z"/>
	<path class="st147" d="M145.9,71.93c0.29,0.5,0.63,0.98,1.02,1.41C146.54,72.9,146.2,72.43,145.9,71.93z M202.4,69.14
		c-0.17,0.66-0.38,1.26-0.6,1.81C202.02,70.41,202.22,69.81,202.4,69.14c0.05-0.18,0.1-0.35,0.14-0.52
		C202.49,68.79,202.44,68.96,202.4,69.14z M202.6,63.07c0.33,0.98,0.44,2.17,0.28,3.61C203.04,65.25,202.94,64.06,202.6,63.07z
		 M166.79,41.87c-0.11-0.12-0.2-0.24-0.28-0.37C166.59,41.62,166.68,41.74,166.79,41.87z M179.71,40.96
		c-1.75,2.92-8.89,3.64-11.66,1.89c-0.08-0.05-0.17-0.1-0.24-0.16c-0.07-0.04-0.13-0.09-0.19-0.13c-0.13-0.09-0.24-0.17-0.34-0.25
		c-0.06-0.05-0.11-0.1-0.17-0.14c-0.05-0.04-0.09-0.08-0.13-0.12c-0.07-0.06-0.13-0.13-0.18-0.19c-0.11-0.12-0.2-0.24-0.28-0.37
		c-0.03-0.06-0.07-0.12-0.1-0.18c-0.46-1.01,0.2-2.16,0.73-4.58c0.99-4.55,6.87-3.79,9.26-2.19c0.14,0.1,0.29,0.19,0.43,0.29
		c1.13,0.77,2.25,1.61,2.89,2.6c0.03,0.04,0.05,0.08,0.08,0.12c0.03,0.06,0.07,0.11,0.09,0.17c0.02,0.03,0.04,0.07,0.06,0.11
		c0.03,0.07,0.06,0.13,0.08,0.19c0.02,0.05,0.04,0.1,0.06,0.15c0.01,0.03,0.03,0.07,0.03,0.1c0.02,0.05,0.03,0.1,0.04,0.16
		C180.38,39.19,180.27,40.02,179.71,40.96z M202.88,66.68c-0.05,0.45-0.13,0.92-0.23,1.42c-0.07,0.34-0.15,0.68-0.25,1.04
		c-0.56,2.13-1.39,3.6-2.46,4.63c-2.54,2.42-6.44,2.31-11.4,2.49c-7.06,0.25-16.55-5.06-29.55-0.91c-2.1,0.67-3.95,0.93-5.57,0.87
		c-0.08,0-0.16-0.01-0.24-0.01c-0.14-0.01-0.28-0.02-0.42-0.03c-0.02,0-0.03,0-0.05,0c-0.16-0.02-0.32-0.04-0.48-0.06
		c-0.17-0.03-0.34-0.05-0.5-0.09c-0.08-0.01-0.16-0.03-0.24-0.05c-0.06-0.01-0.11-0.02-0.16-0.04c-0.1-0.02-0.21-0.05-0.31-0.08
		c-0.32-0.09-0.63-0.19-0.93-0.31c-0.11-0.04-0.22-0.09-0.32-0.14c-0.28-0.12-0.54-0.26-0.79-0.41c-0.1-0.06-0.2-0.12-0.3-0.18
		c-0.1-0.06-0.2-0.13-0.29-0.19c-0.29-0.2-0.56-0.41-0.81-0.64c-0.08-0.08-0.16-0.15-0.24-0.23c-0.56-0.55-1.04-1.17-1.43-1.83
		c-0.06-0.1-0.11-0.19-0.16-0.29c-0.1-0.19-0.2-0.39-0.29-0.59c-0.04-0.1-0.09-0.2-0.13-0.3c-0.04-0.1-0.08-0.21-0.12-0.31
		c-0.03-0.1-0.07-0.21-0.11-0.31c0,0,0,0,0,0c-0.93-2.74-0.69-5.87,0.61-8.11c2.65-4.59,38.31-4.15,45.92-3.72
		c3.19,0.18,6.01,0.55,8.05,1.57c0,0,0,0,0-0.01c0.04,0.02,0.07,0.04,0.11,0.06c0.12,0.06,0.24,0.13,0.36,0.2
		c0.06,0.03,0.11,0.07,0.17,0.1c0.38,0.24,0.72,0.51,1.03,0.81c0.06,0.06,0.12,0.12,0.18,0.18c0.07,0.08,0.14,0.16,0.21,0.25
		c0.06,0.08,0.12,0.15,0.18,0.23c0.06,0.08,0.12,0.17,0.17,0.25c0.06,0.1,0.12,0.2,0.17,0.3c0.04,0.08,0.09,0.16,0.13,0.24
		c0.09,0.19,0.17,0.38,0.24,0.59C202.93,64.06,203.04,65.25,202.88,66.68z"/>
</g>
</svg>
