<?xml version="1.0" encoding="utf-8"?>
<!-- Generator: Adobe Illustrator 27.8.1, SVG Export Plug-In . SVG Version: 6.00 Build 0)  -->
<svg version="1.1" id="Layer_1" xmlns="http://www.w3.org/2000/svg" xmlns:xlink="http://www.w3.org/1999/xlink" x="0px" y="0px"
	 viewBox="0 0 350 230" style="enable-background:new 0 0 350 230;" xml:space="preserve">
<style type="text/css">
	.st0{fill:#EAE4B0;}
	.st1{fill:#332700;}
	.st2{fill:#EBEBFF;}
	.st3{fill:#FBFFAE;}
	.st4{fill:#B0FFD5;}
	.st5{fill:#B3FFFB;}
	.st6{fill:#FFFAB6;}
	.st7{fill:#2B2700;}
	.st8{fill:#FFFFB8;}
	.st9{fill:#040028;}
	.st10{fill:#260000;}
	.st11{opacity:0.5;fill:#848484;}
	.st12{fill:#2B2401;}
	.st13{fill:#FF7C6C;}
	.st14{fill:#CC2D21;}
	.st15{fill:#F75C4C;}
	.st16{fill:#FFE5CF;}
	.st17{fill:#FFFFFF;}
	.st18{fill:#CFDAE3;}
	.st19{fill:#006C11;}
	.st20{fill:#A11E10;}
	.st21{fill:#EDBC93;}
	.st22{fill:#898989;}
	.st23{fill:#2B1536;}
	.st24{fill:#15352A;}
	.st25{fill:#E4EAF5;}
	.st26{fill:#F2F5F5;}
	.st27{fill:#D6363D;}
	.st28{fill:#600000;fill-opacity:0.5098;}
	.st29{fill:#F2CCA3;}
	.st30{fill:#D28F5F;}
	.st31{fill:#FF0000;fill-opacity:0.5098;}
	.st32{fill:#C7D5F5;}
	.st33{fill:#F3DBC0;}
	.st34{fill:#F58086;}
	.st35{fill:url(#SVGID_1_);}
	.st36{fill:#FCC7A2;}
	.st37{fill:url(#SVGID_00000129921462813646534330000009134494921010327191_);}
	.st38{fill:#E20328;}
	.st39{fill:url(#SVGID_00000170980774149372795250000010115993583264401297_);}
	.st40{fill:#F4BDA8;}
	.st41{fill:#DCF7F6;}
	.st42{fill:url(#SVGID_00000041292833918679146630000006335989124462305205_);}
	.st43{fill:url(#SVGID_00000085955553314401179060000017817623201875330951_);}
	.st44{fill:url(#SVGID_00000145751847105298515260000014934287128473890725_);}
	.st45{fill:url(#SVGID_00000070805581717951439800000014284636973021241489_);}
	.st46{fill:url(#SVGID_00000103242301419593984830000000029103766856074414_);}
	.st47{fill:url(#SVGID_00000140706357495492058620000011182029015740271284_);}
	.st48{fill:url(#SVGID_00000016772915811268710880000010990299762450698173_);}
	.st49{fill:url(#SVGID_00000116202182577512349800000014101219318841302675_);}
	.st50{fill:url(#SVGID_00000034062092772040031640000008540963403921910664_);}
	.st51{fill:#E2B881;}
	.st52{fill:#FFFFFF;stroke:#000000;stroke-width:0.05;stroke-miterlimit:10;}
	.st53{fill:url(#SVGID_00000098223208838999713660000004538990130128831646_);}
	.st54{fill:url(#SVGID_00000034774912376042133210000017492316502018887838_);}
	.st55{fill:#0B9ED8;}
	.st56{fill:#FCDFB0;}
	.st57{fill:#FF0013;}
	.st58{fill:url(#SVGID_00000015348769124570019410000016994558075792776863_);}
	.st59{fill:#0A50FF;}
	.st60{fill:#FFB773;}
	.st61{fill-rule:evenodd;clip-rule:evenodd;fill:url(#SVGID_00000097473186898557394310000003466933989045721782_);}
	.st62{fill:#FF334F;}
	.st63{fill:#FFAB66;}
	.st64{fill:#FF8B41;}
	.st65{fill:#BB386B;}
	.st66{fill:#CBCBCB;}
	.st67{fill:#D37250;}
	.st68{fill:#D06D2E;}
	.st69{fill-rule:evenodd;clip-rule:evenodd;fill:#FFFFFF;}
	.st70{fill:#CAFFEC;}
	.st71{fill:#FFF6B3;}
	.st72{fill:#FFFBD2;}
	.st73{fill:#EFFFD2;}
	.st74{fill:#A01D21;}
	.st75{fill:#00261B;}
	.st76{fill:#F4FFB6;}
	.st77{fill:url(#SVGID_00000121974541547237042640000006717754612049179288_);}
	.st78{fill:#002340;}
	.st79{fill:url(#SVGID_00000034799806510507719870000012450595515394078628_);}
	.st80{fill:url(#SVGID_00000162324818005949571600000008882093529614808986_);}
	.st81{fill:#D91215;}
	.st82{fill:#98BBCE;}
	.st83{fill:#00A70C;}
	.st84{fill:#C47E2A;}
	.st85{fill-rule:evenodd;clip-rule:evenodd;fill:#1F1D1D;}
	.st86{fill-rule:evenodd;clip-rule:evenodd;fill:#2B2700;}
	.st87{fill-rule:evenodd;clip-rule:evenodd;fill:#FF1943;}
	.st88{fill:url(#SVGID_00000083078175234533681310000001909664327021373609_);}
	.st89{fill:url(#SVGID_00000163034422454115954400000007992521085335725963_);}
	.st90{fill:url(#SVGID_00000020394808202697665410000013689708814180259469_);}
	.st91{fill:url(#SVGID_00000079458206010423131030000006085832306260034459_);}
	.st92{fill:url(#SVGID_00000063627408821584218670000000609019756515950500_);}
	.st93{fill:url(#SVGID_00000140696236605603178510000008792011894815192251_);}
	.st94{fill:#E31E26;}
	.st95{fill:#811517;}
	.st96{fill:url(#SVGID_00000076587864868510084950000015853097581485510815_);}
	.st97{fill:url(#SVGID_00000134234305254967354070000006732816454647480714_);}
	.st98{fill:url(#SVGID_00000173873752577718300040000013980097647371916200_);}
	.st99{fill:#B47920;}
	.st100{fill:#089E32;}
	.st101{fill:#FFE30B;}
	.st102{fill-rule:evenodd;clip-rule:evenodd;fill:#EE1D24;}
	.st103{fill:#17377D;}
	.st104{filter:url(#Adobe_OpacityMaskFilter);}
	.st105{opacity:0.28;mask:url(#SVGID_00000088849140289949165110000007655487441966286736_);}
	.st106{fill:#3A3132;}
	.st107{fill:url(#SVGID_00000147911845703684087290000001261203995267396019_);}
	.st108{filter:url(#Adobe_OpacityMaskFilter_00000064356128415567418880000018019839678021615765_);}
	.st109{opacity:0.28;mask:url(#SVGID_00000132802285102958786170000010111506614279133620_);}
	.st110{fill:#102A63;}
	.st111{filter:url(#Adobe_OpacityMaskFilter_00000122713783938886245380000010437183454781854869_);}
	.st112{opacity:0.28;mask:url(#SVGID_00000086681373140616023280000014286172797653492408_);}
	.st113{fill:#0E2458;}
	.st114{filter:url(#Adobe_OpacityMaskFilter_00000105403151946195559240000003426463122760917435_);}
	.st115{opacity:0.25;mask:url(#SVGID_00000069388292700904353370000002875480989837488809_);}
	.st116{fill:url(#SVGID_00000030483739712706033710000002913273718317597074_);}
	.st117{fill:#00BEC6;}
	.st118{fill:url(#SVGID_00000170991055427861824930000006370332300727867780_);}
	.st119{fill:url(#SVGID_00000064333718570678407440000012953829899004863390_);stroke:#FFFFFF;stroke-miterlimit:10;}
	
		.st120{fill:url(#SVGID_00000124862022846602444510000014301352269257506711_);stroke:#FFFFFF;stroke-width:0.5;stroke-miterlimit:10;}
	.st121{fill:url(#SVGID_00000042700002792509637660000016486331732270569897_);}
	.st122{fill:#F9D075;}
	.st123{fill:#FFEF92;}
	.st124{fill:url(#SVGID_00000065787905713534097250000005417132109681300634_);}
	.st125{fill:url(#SVGID_00000083810354483425752950000000472614150527897475_);}
	.st126{fill:url(#SVGID_00000042697141026157468480000005704040734327390360_);}
	.st127{fill:#09890F;}
	.st128{fill:#A9CE4D;}
	.st129{fill:#FF9501;}
	.st130{fill:#AA1523;}
	.st131{fill:#006B52;}
	.st132{fill:#EEC200;}
	.st133{fill:#9F4641;}
	.st134{fill:url(#SVGID_00000067228973208285496910000006060553031600000139_);stroke:#FFFFFF;stroke-miterlimit:10;}
	.st135{fill:none;stroke:#FFFFFF;stroke-width:1.7883;stroke-miterlimit:10;}
	.st136{fill:none;stroke:#BFDADD;stroke-width:2;stroke-linecap:round;stroke-linejoin:round;stroke-miterlimit:10;}
	.st137{fill:none;stroke:#016D39;stroke-width:2;stroke-linecap:round;stroke-linejoin:round;stroke-miterlimit:10;}
	.st138{fill:none;stroke:#00BFAD;stroke-width:2;stroke-linecap:round;stroke-linejoin:round;stroke-miterlimit:10;}
	.st139{fill:#12162E;}
	.st140{fill:none;stroke:#12162E;stroke-miterlimit:10;}
	.st141{fill:#016D39;}
	.st142{fill:#083F24;}
	.st143{fill:#FF5635;}
	.st144{fill:#C63724;}
	.st145{fill:#FFBE00;}
	.st146{fill:#00BFAD;}
	.st147{fill:#D1D3D3;}
	.st148{fill:#9A4641;}
	.st149{fill:url(#SVGID_00000125599669089677954700000017791328982221387690_);}
	.st150{fill:url(#SVGID_00000166672980132256195650000015943600135789932434_);stroke:#FFFFFF;stroke-miterlimit:10;}
	.st151{fill:#F75D58;}
	.st152{fill:url(#SVGID_00000124152405083084653570000018218213748796017557_);}
	.st153{opacity:0.42;fill:#FFFFFF;}
	.st154{fill:#229200;}
	.st155{fill:#FF0000;}
	.st156{fill:#0C1F26;}
	.st157{fill:#E43724;}
	.st158{fill:#6B2422;}
	.st159{fill:#FBF1E5;}
	.st160{fill:#FAF8F0;}
	.st161{fill:#EEEEED;}
	.st162{fill:#DBDEDD;}
	.st163{fill:#A6453D;}
	.st164{fill:#E3E4E7;}
	.st165{fill:#D2301D;}
	.st166{fill:#E2D7D0;}
	.st167{fill:#FCF8EF;}
	.st168{fill:#C42C1E;}
	.st169{fill:#0C232B;}
	.st170{fill:#0D3B6E;}
	.st171{fill:#139AEC;}
	.st172{fill:#F52A3C;}
	.st173{fill:url(#SVGID_00000107572965786091955280000014947588558085716152_);}
	.st174{fill:#890924;}
	.st175{fill:url(#SVGID_00000142169566624081647620000016414551310168822669_);}
	.st176{fill-rule:evenodd;clip-rule:evenodd;fill:url(#SVGID_00000108988537236512269690000016147008470287367552_);}
	.st177{fill-rule:evenodd;clip-rule:evenodd;fill:#CE1515;}
	.st178{fill-rule:evenodd;clip-rule:evenodd;fill:#FFFBDD;}
	.st179{fill-rule:evenodd;clip-rule:evenodd;fill:#06542B;}
	.st180{fill-rule:evenodd;clip-rule:evenodd;fill:#AA1111;}
	.st181{fill:#005C01;}
	.st182{fill:#F5AB35;}
	.st183{fill-rule:evenodd;clip-rule:evenodd;fill:#215605;}
	.st184{fill:#215605;}
	.st185{fill-rule:evenodd;clip-rule:evenodd;fill:url(#SVGID_00000012459680103373724030000016678401382167496841_);}
	.st186{fill:url(#SVGID_00000064348707302973533860000016167665642018767237_);}
	.st187{fill:url(#SVGID_00000095336043049802882100000007480826279757256883_);}
	.st188{fill:url(#SVGID_00000128462708269026126580000010852462098905052092_);}
	.st189{fill:url(#SVGID_00000066497089562224978640000011067845448028258432_);}
	.st190{fill:url(#SVGID_00000161617724782708747150000017040899777460811451_);}
	.st191{fill:url(#SVGID_00000098181003045611410530000004847953694558056583_);}
	.st192{fill:url(#SVGID_00000066494106707912103050000010090297006234211494_);}
	.st193{fill:url(#SVGID_00000121254584246533632570000012597775296711861673_);}
	.st194{fill:url(#SVGID_00000048469280730179972340000011738487102684398724_);}
	.st195{fill:#B6FFFF;}
	.st196{fill:url(#SVGID_00000085232399266230234920000010163272537988995219_);}
	.st197{fill:url(#SVGID_00000018923171369802481770000017678897380605043641_);}
	.st198{fill:url(#SVGID_00000034083042481059920550000016867349453182413736_);}
	.st199{fill:url(#SVGID_00000076581391905650008400000016506036013304661932_);}
	.st200{fill:url(#SVGID_00000015348180252953930200000009894020536565959867_);}
	.st201{fill:url(#SVGID_00000176729309740086395810000018017330248841795260_);}
	.st202{fill:url(#SVGID_00000075162877739741544740000010897715259221882255_);}
	.st203{fill:url(#SVGID_00000140004855543974740650000009927665345425200811_);}
	.st204{fill:url(#SVGID_00000167375447781427337970000017001579670804848573_);}
	.st205{fill:url(#SVGID_00000133511578461684611740000000143854303310951563_);}
	.st206{fill:url(#SVGID_00000110436585375929883040000004902477106136653446_);}
	.st207{fill:url(#SVGID_00000041271048719670856370000007550052513644681130_);}
	.st208{fill:url(#SVGID_00000054253346337461698610000007721027826799734912_);}
	.st209{fill:url(#SVGID_00000014597577003386925900000007141499964474292645_);}
	.st210{fill:url(#SVGID_00000115508789641380144150000009879525200219803038_);}
	.st211{fill:url(#SVGID_00000080181782295823557590000004618391841010942899_);}
	.st212{fill:#CE4A43;}
	.st213{fill:url(#SVGID_00000066493169748392605040000007992175484084061352_);}
	.st214{fill:#CE4A43;stroke:#FFFFFF;stroke-miterlimit:10;}
	.st215{fill:none;stroke:#CE4A43;stroke-miterlimit:10;}
</style>
<g>
	<path class="st170" d="M217.25,92.29c0.54,0.04,1.08,0.09,1.62,0.11l-1.31,1.1C217.49,93.09,217.41,92.67,217.25,92.29z
		 M226.84,95.82c0.34,0.12,0.66,0.28,0.99,0.42c0.28-0.14,0.57-0.25,0.85-0.37c-0.06,0.16-0.14,0.34-0.16,0.52
		c-0.06,0.42,0.33,0.79,0.58,1.09c-0.28,0.03-0.56,0.09-0.83,0.15c-0.2,0.29-0.42,0.55-0.64,0.82c-0.5-0.92-0.59-0.6-1.19-1.12
		c0.08-0.24,0.36-0.43,0.55-0.6C226.93,96.42,226.88,96.12,226.84,95.82z M220.8,127.35c0.28,0.14,0.42,0.47,0.58,0.73
		c0.34,0.03,0.69,0.04,1.03,0.06c-0.22,0.32-0.49,0.62-0.74,0.92l0.28,0.9l-0.8-0.36l-0.08-0.03c-0.33,0.09-0.62,0.34-0.9,0.53
		l0.12-0.97l-0.76-0.74l0.93-0.25L220.8,127.35z M126.84,80.91c0.17,0,0.35,0,0.52,0.04c0.29,0.07,0.58,0.26,0.74,0.52
		c0.16,0.25,0.19,0.56,0.11,0.84c-0.13,0.45-0.43,0.6-0.82,0.8c-0.21,0.01-0.43,0.02-0.63-0.04c-0.03-0.01-0.07-0.02-0.1-0.04
		c-0.03-0.01-0.07-0.03-0.1-0.05c-0.03-0.02-0.06-0.04-0.09-0.06c-0.03-0.02-0.06-0.04-0.09-0.06c-0.03-0.02-0.05-0.05-0.08-0.07
		c-0.03-0.03-0.05-0.05-0.07-0.08c-0.02-0.03-0.04-0.06-0.06-0.09c-0.02-0.03-0.04-0.06-0.05-0.09c-0.13-0.27-0.13-0.58-0.04-0.86
		C126.22,81.26,126.47,81.11,126.84,80.91z M154.81,50.44c0.22,0,0.42,0.05,0.62,0.15c0.04,0.02,0.07,0.04,0.11,0.06
		c0.03,0.02,0.07,0.05,0.1,0.07c0.03,0.03,0.06,0.05,0.09,0.08c0.03,0.03,0.06,0.06,0.08,0.09c0.03,0.03,0.05,0.06,0.07,0.1
		c0.02,0.03,0.04,0.07,0.06,0.11c0.02,0.04,0.04,0.07,0.05,0.11c0.02,0.04,0.03,0.08,0.04,0.12c0.08,0.29,0.05,0.61-0.11,0.87
		c-0.2,0.34-0.45,0.44-0.82,0.54c-0.25-0.02-0.5-0.04-0.72-0.17c-0.29-0.16-0.51-0.46-0.59-0.78c-0.01-0.03-0.01-0.07-0.02-0.1
		c0-0.03-0.01-0.07-0.01-0.11c0-0.04,0-0.07,0-0.11c0-0.04,0.01-0.07,0.01-0.11c0.01-0.03,0.01-0.07,0.02-0.1
		c0.01-0.03,0.02-0.07,0.03-0.1c0.01-0.03,0.03-0.07,0.04-0.1c0.02-0.03,0.03-0.06,0.05-0.09
		C154.14,50.64,154.43,50.54,154.81,50.44z M202.02,68.9c0.21,0.3,0.4,0.62,0.59,0.93l1.09,0.1c-0.24,0.3-0.51,0.55-0.79,0.81
		l0.23,0.95l-1.1-0.38c-0.35,0.02-0.78,0.28-1.1,0.43c0.05-0.34,0.11-0.67,0.17-1c-0.23-0.25-0.49-0.48-0.73-0.72
		c0.31-0.09,0.64-0.14,0.95-0.21C201.65,69.53,201.86,69.29,202.02,68.9z M221.22,79.75c0.32,0.21,0.48,0.62,0.65,0.95
		c0.38-0.02,0.77-0.01,1.15-0.02c-0.14,0.32-0.32,0.61-0.51,0.91l0.62,1.02c-0.44-0.04-0.88-0.1-1.32-0.16
		c-0.21,0.37-0.4,0.73-0.58,1.11l-0.03,0.04c-0.1-0.06-0.36-0.95-0.44-1.14l-1.15,0.13c0.22-0.32,0.39-0.67,0.57-1.01
		c-0.22-0.25-0.47-0.48-0.71-0.72c0.44-0.02,0.88-0.03,1.32-0.04C220.92,80.45,221.07,80.1,221.22,79.75z M136.06,136.28
		c0.34,0.28,0.46,0.95,0.57,1.37c0.53,0.09,1.08,0.13,1.61,0.19c-0.46,0.32-0.9,0.65-1.34,0.99c0.11,0.47,0.22,0.94,0.33,1.41
		c-0.4-0.25-0.84-0.69-1.3-0.8l-1.38,0.77c0.15-0.5,0.34-1,0.52-1.49c-0.38-0.38-0.82-0.72-1.23-1.07c0.57,0.02,1.13,0.05,1.7,0.08
		L136.06,136.28z M132.12,87.22l0.58,1.81c0.6,0.04,1.2,0.05,1.8,0.06c-0.51,0.34-1.01,0.68-1.5,1.03c0.19,0.58,0.39,1.15,0.59,1.72
		c-0.46-0.3-0.89-0.65-1.34-0.97c-0.46,0.11-1.1,0.64-1.52,0.9c0.2-0.57,0.39-1.14,0.6-1.7c-0.42-0.4-0.91-0.76-1.37-1.12
		c0.55,0.07,1.11,0.07,1.67,0.08C131.82,88.43,131.97,87.82,132.12,87.22z M150.3,66.8c0.23,0.51,0.37,1.09,0.57,1.62
		c0.67,0.05,1.34,0.04,2.01,0.05l-1.67,1.07c0.21,0.56,0.4,1.12,0.58,1.69l-1.37-0.91l-0.14-0.04c-0.53,0.24-0.97,0.62-1.4,1
		c0.2-0.53,0.33-1.1,0.48-1.65c-0.51-0.34-0.99-0.73-1.48-1.1l1.76-0.04L150.3,66.8z M212.19,137.57c0.27,0.44,0.51,0.9,0.75,1.35
		c0.44,0,0.89,0.06,1.33,0.1c-0.31,0.38-0.62,0.77-0.97,1.12c0.1,0.5,0.2,1,0.28,1.5c-0.4-0.31-0.81-0.57-1.26-0.81
		c-0.56,0.16-0.98,0.43-1.45,0.75l0.32-1.58c-0.46-0.28-0.83-0.61-1.21-0.98c0.52-0.03,1.03-0.09,1.54-0.14L212.19,137.57z
		 M212.75,122.52c0.25,0.2,0.47,0.86,0.62,1.16c0.5,0.18,1.05,0.25,1.57,0.34c-0.43,0.31-0.84,0.62-1.23,0.97
		c0.03,0.47,0.1,0.94,0.16,1.41c-0.47-0.23-0.94-0.44-1.42-0.64c-0.37,0.27-0.76,0.47-1.17,0.69l0.29-1.55l-1.1-1.05
		c0.52-0.01,1.04-0.05,1.56-0.1C212.3,123.36,212.52,122.93,212.75,122.52z M216.37,90.72c0.27,0.54,0.55,1.06,0.88,1.57
		c0.17,0.38,0.25,0.8,0.31,1.21c-0.03,0.6,0.13,1.18,0.28,1.75c-0.41-0.27-0.91-0.68-1.4-0.77c-0.6-0.11-1.18,0.4-1.64,0.71
		c0.06-0.55,0.24-1.1,0.39-1.63c-0.35-0.37-0.72-0.7-1.06-1.08c0.58-0.1,1.12-0.17,1.66-0.43L216.37,90.72z M140.59,82.45
		c0.29,0.27,0.43,1.08,0.55,1.47c0.66,0.03,1.32,0.05,1.97,0.05c-0.48,0.41-0.97,0.81-1.45,1.23c0.15,0.61,0.33,1.18,0.54,1.77
		l-1.45-1.1c-0.57,0.19-1.15,0.75-1.62,1.12c0.17-0.57,0.33-1.14,0.5-1.72c-0.42-0.5-0.92-0.92-1.44-1.31
		c0.61,0.01,1.21,0,1.82-0.01L140.59,82.45z M128.9,124.67c0.18,0.58,0.37,1.15,0.57,1.72c0.61,0.11,1.22,0.15,1.84,0.19
		c-0.48,0.35-0.96,0.68-1.47,0.98c0.08,0.58,0.19,1.14,0.31,1.7c-0.47-0.36-0.97-0.67-1.47-0.99c-0.52,0.23-1.01,0.54-1.5,0.82
		c0.13-0.53,0.36-1.04,0.56-1.54c-0.47-0.32-0.91-0.72-1.36-1.08c0.54,0.01,1.09-0.01,1.63-0.03
		C128.38,125.91,128.65,125.28,128.9,124.67z M193.27,48.55c0.3,0.41,0.56,0.88,0.82,1.32c0.49,0.14,1.01,0.23,1.52,0.35
		c-0.35,0.36-0.71,0.7-1.08,1.04c0.01,0.48,0.07,0.96,0.11,1.43c-0.4-0.19-0.8-0.41-1.19-0.61c-0.34,0-1.04,0.4-1.39,0.54
		c0.07-0.32,0.17-0.68,0.16-1.01c-0.02-0.61-0.7-1.05-1.11-1.43l1.42-0.22C192.73,49.47,192.95,48.99,193.27,48.55z M208.71,82.13
		c0.29,0.19,0.59,0.93,0.76,1.26c0.55,0.06,1.1,0.15,1.65,0.23c-0.37,0.43-0.85,0.74-1.22,1.19c0.03,0.48,0.1,0.95,0.19,1.43
		l-1.19-0.65c-0.43-0.05-1.15,0.39-1.56,0.58l0.27-1.4c-0.31-0.25-0.85-0.58-0.97-0.96l0.08-0.14c0.43-0.18,0.93-0.17,1.39-0.23
		C208.32,83,208.51,82.56,208.71,82.13z M217.94,102.71c0.25,0.51,0.4,1.05,0.68,1.55c0.57,0.09,1.15,0.16,1.73,0.23
		c-0.43,0.4-0.89,0.74-1.25,1.21l0.26,1.4c-0.47-0.2-0.91-0.47-1.36-0.71c-0.51,0.22-1.02,0.43-1.48,0.74
		c0.12-0.49,0.2-0.96,0.26-1.46c-0.42-0.36-0.9-0.71-1.24-1.15c0.54-0.06,1.06-0.14,1.59-0.24
		C217.45,103.79,217.69,103.24,217.94,102.71z M215.7,68c0.31,1.12,0.25,2.31,0.72,3.4c1.04-0.34,2.02-0.84,3.07-1.14
		c-0.89,0.65-1.61,1.47-2.55,2.05c0.65,0.83,1.39,1.6,2.14,2.34c-0.94-0.36-1.88-0.73-2.84-1.05c-0.26,1.05-0.47,2.12-0.65,3.19
		l-0.01,0.04c-0.15-0.25-0.52-2.64-0.67-3.2c-1.08,0.21-2.11,0.56-3.15,0.91c0.87-0.68,1.72-1.4,2.56-2.12
		c-0.7-0.81-1.57-1.5-2.38-2.19c1.01,0.32,2.02,0.62,3,1C215.26,70.16,215.46,69.07,215.7,68z M207.51,55.65
		c0.5,0.98,0.41,2.2,0.85,3.21c1.09-0.47,2.23-0.78,3.37-1.08c-0.89,0.71-1.79,1.41-2.7,2.08c0.79,0.92,1.83,1.58,2.61,2.52
		c-1.09-0.46-2.18-0.9-3.29-1.32c-0.26,1.02-0.51,2.04-0.76,3.06l-0.08,0.13c-0.05-0.04-0.51-2.82-0.6-3.2
		c-1.13,0.51-2.3,0.9-3.48,1.29c0.98-0.75,1.91-1.56,2.86-2.35c-0.82-0.82-1.82-1.52-2.7-2.29c1.12,0.31,2.23,0.66,3.33,1.05
		C207.2,57.74,207.33,56.69,207.51,55.65z M226.74,107.25c0.23,0.21,0.64,2.96,0.74,3.48c1.05-0.56,2.28-0.78,3.42-1.07
		c-0.94,0.65-1.82,1.4-2.69,2.14c0.73,0.8,1.6,1.48,2.42,2.18c-1.09-0.31-2.15-0.69-3.23-1.03c-0.18,1.18-0.51,2.36-0.59,3.55
		c-0.43-1.07-0.54-2.43-0.7-3.58c-1.03,0.52-2.21,0.8-3.33,1.06c0.93-0.61,1.78-1.42,2.63-2.13c-0.8-0.78-1.76-1.42-2.53-2.22
		c1.08,0.3,2.15,0.64,3.22,0.99C226.24,109.49,226.47,108.37,226.74,107.25z M125.58,107.18c0.1,1.18,0.49,2.31,0.58,3.49
		c1.16-0.34,2.29-0.76,3.46-1.07l-2.6,2.1c0.68,0.91,1.66,1.61,2.48,2.38c-1.11-0.36-2.19-0.74-3.25-1.25
		c-0.18,1.23-0.46,2.45-0.71,3.66c-0.33-1.18-0.53-2.39-0.71-3.6c-1.16,0.45-2.43,0.76-3.62,1.12c0.99-0.69,1.93-1.41,2.84-2.21
		c-0.83-0.86-1.84-1.62-2.82-2.32c1.19,0.32,2.36,0.75,3.54,1.09C125.04,109.47,125.19,108.24,125.58,107.18z M137.52,67.14
		c0.33,1.1,0.44,2.36,0.65,3.5c1.17-0.42,2.44-0.77,3.65-1.07c-0.95,0.71-1.85,1.59-2.84,2.22c0.98,0.81,1.96,1.64,2.93,2.46
		l-3.73-1.28c-0.17,1.2-0.45,2.4-0.7,3.59l-0.03,0.05c-0.18-0.21-0.59-3.17-0.67-3.68c-1.15,0.46-2.32,0.84-3.47,1.34
		c0.97-0.85,1.93-1.7,2.89-2.55c-1.01-0.75-1.99-1.53-2.95-2.34c1.19,0.51,2.47,0.81,3.67,1.31
		C137.03,69.5,137.28,68.31,137.52,67.14z M145.09,55.26c0.2,0.19,0.85,2.68,1.03,3.13c1.09-0.3,2.19-0.6,3.28-0.89
		c-0.78,0.64-1.96,1.41-2.48,2.26c0.69,0.78,1.47,1.63,2.27,2.28c-0.03-0.01-0.07-0.02-0.1-0.03c-1.04-0.27-1.99-0.79-3.02-1.1
		c-0.34,1.12-0.54,2.3-0.83,3.44l-0.02,0.02l-0.06-0.03c-0.13-1.19-0.4-2.37-0.6-3.55c-1.07,0.31-2.13,0.66-3.17,1.04
		c0.79-0.71,1.52-1.5,2.25-2.27c-0.79-0.76-1.69-1.48-2.56-2.15c1.07,0.36,2.18,0.63,3.27,0.93C144.7,57.33,144.9,56.3,145.09,55.26
		z M194.08,38.76c0.65-0.04,1.3,0.02,1.87,0.36c0.6,0.37,1.01,0.99,1.15,1.67c0.02,0.09,0.03,0.18,0.04,0.27
		c0.01,0.09,0.01,0.18,0.01,0.27s0,0.18-0.01,0.27c-0.01,0.09-0.02,0.18-0.04,0.27c-0.02,0.09-0.04,0.17-0.07,0.26
		c-0.03,0.09-0.06,0.17-0.09,0.25c-0.03,0.08-0.07,0.16-0.11,0.24c-0.04,0.08-0.09,0.16-0.14,0.23c-0.46,0.69-1.12,1.07-1.91,1.24
		c-0.61,0.04-1.2-0.04-1.74-0.35c-0.04-0.02-0.08-0.05-0.11-0.07c-0.04-0.02-0.07-0.05-0.11-0.08c-0.04-0.03-0.07-0.05-0.11-0.08
		c-0.03-0.03-0.07-0.06-0.1-0.09c-0.03-0.03-0.07-0.06-0.1-0.09c-0.03-0.03-0.06-0.06-0.09-0.1c-0.03-0.03-0.06-0.07-0.09-0.1
		c-0.03-0.04-0.06-0.07-0.08-0.11c-0.03-0.04-0.05-0.07-0.08-0.11c-0.02-0.04-0.05-0.08-0.07-0.11c-0.02-0.04-0.04-0.08-0.06-0.12
		c-0.02-0.04-0.04-0.08-0.06-0.12c-0.02-0.04-0.04-0.08-0.05-0.12c-0.02-0.04-0.03-0.08-0.05-0.13c-0.01-0.04-0.03-0.09-0.04-0.13
		c-0.01-0.04-0.02-0.09-0.03-0.13c-0.02-0.09-0.04-0.18-0.05-0.27c-0.01-0.09-0.02-0.18-0.02-0.27c0-0.09,0-0.18,0.01-0.27
		c0.01-0.09,0.02-0.18,0.03-0.27c0.02-0.09,0.04-0.18,0.06-0.26c0.02-0.09,0.05-0.17,0.09-0.26c0.03-0.08,0.07-0.17,0.11-0.25
		c0.04-0.08,0.09-0.16,0.13-0.23C192.62,39.26,193.28,38.94,194.08,38.76z M230.18,73.25c0.66-0.05,1.26,0.03,1.82,0.39
		c0.61,0.39,1.08,1.05,1.23,1.75c0.14,0.69-0.02,1.44-0.41,2.03c-0.47,0.69-1.13,1-1.92,1.16c-0.59,0.05-1.14,0.01-1.68-0.26
		c-0.04-0.02-0.08-0.04-0.12-0.06c-0.04-0.02-0.08-0.05-0.11-0.07c-0.04-0.02-0.07-0.05-0.11-0.07s-0.07-0.05-0.11-0.08
		c-0.03-0.03-0.07-0.06-0.1-0.09c-0.03-0.03-0.07-0.06-0.1-0.09c-0.03-0.03-0.06-0.06-0.09-0.1c-0.03-0.03-0.06-0.07-0.09-0.1
		c-0.03-0.03-0.06-0.07-0.08-0.1c-0.03-0.04-0.05-0.07-0.08-0.11c-0.02-0.04-0.05-0.07-0.07-0.11c-0.02-0.04-0.04-0.08-0.07-0.12
		c-0.02-0.04-0.04-0.08-0.06-0.12c-0.02-0.04-0.04-0.08-0.05-0.12c-0.02-0.04-0.03-0.08-0.05-0.12c-0.01-0.04-0.03-0.08-0.04-0.13
		c-0.2-0.69-0.07-1.42,0.28-2.04C228.62,73.9,229.34,73.5,230.18,73.25z M156.68,38.68c0.57-0.03,1.01-0.03,1.55,0.19
		c0.66,0.27,1.21,0.8,1.48,1.47c0.03,0.08,0.06,0.17,0.08,0.25c0.02,0.09,0.04,0.17,0.06,0.26c0.01,0.09,0.03,0.18,0.03,0.26
		c0.01,0.09,0.01,0.18,0,0.27c0,0.09-0.01,0.18-0.02,0.26c-0.01,0.09-0.03,0.17-0.05,0.26c-0.02,0.09-0.05,0.17-0.07,0.26
		c-0.03,0.08-0.06,0.17-0.1,0.25c-0.39,0.87-1.04,1.32-1.9,1.64c-0.61,0.09-1.24,0.03-1.81-0.24c-0.65-0.31-1.16-0.87-1.38-1.57
		c-0.22-0.73-0.16-1.61,0.23-2.27C155.2,39.23,155.89,38.91,156.68,38.68z M235.98,92.13c0.57-0.05,1.11-0.06,1.65,0.17
		c0.68,0.29,1.18,0.88,1.43,1.57c0.25,0.67,0.21,1.38-0.1,2.03c-0.41,0.83-1.06,1.27-1.91,1.58c-0.64,0.14-1.29,0.07-1.87-0.24
		c-0.04-0.02-0.08-0.04-0.12-0.07c-0.04-0.02-0.08-0.05-0.11-0.07c-0.04-0.03-0.07-0.05-0.11-0.08c-0.04-0.03-0.07-0.06-0.11-0.08
		c-0.03-0.03-0.07-0.06-0.1-0.09c-0.03-0.03-0.07-0.06-0.1-0.09c-0.03-0.03-0.06-0.07-0.09-0.1c-0.03-0.03-0.06-0.07-0.09-0.1
		c-0.03-0.04-0.06-0.07-0.08-0.11c-0.03-0.04-0.05-0.07-0.08-0.11c-0.02-0.04-0.05-0.08-0.07-0.12c-0.02-0.04-0.04-0.08-0.06-0.12
		c-0.02-0.04-0.04-0.08-0.06-0.12c-0.02-0.04-0.04-0.08-0.05-0.13c-0.02-0.04-0.03-0.08-0.05-0.13c-0.01-0.04-0.03-0.09-0.04-0.13
		c-0.21-0.74-0.14-1.55,0.26-2.21C234.57,92.65,235.2,92.32,235.98,92.13z M212.08,49.05c0.62,0.03,1.16,0.14,1.68,0.5
		c0.07,0.05,0.15,0.11,0.22,0.16c0.07,0.06,0.13,0.12,0.2,0.18c0.06,0.06,0.12,0.13,0.18,0.2c0.06,0.07,0.11,0.14,0.16,0.22
		c0.05,0.08,0.09,0.15,0.14,0.23c0.04,0.08,0.08,0.16,0.11,0.25c0.03,0.08,0.06,0.17,0.09,0.26c0.02,0.09,0.04,0.17,0.06,0.26
		c0.01,0.05,0.02,0.1,0.02,0.14s0.01,0.1,0.02,0.14c0,0.05,0.01,0.1,0.01,0.15c0,0.05,0,0.1,0,0.15c0,0.05,0,0.1-0.01,0.15
		c0,0.05-0.01,0.1-0.01,0.14c-0.01,0.05-0.01,0.1-0.02,0.14c-0.01,0.05-0.02,0.1-0.03,0.14c-0.01,0.05-0.02,0.09-0.04,0.14
		c-0.01,0.05-0.03,0.09-0.04,0.14c-0.02,0.05-0.03,0.09-0.05,0.14c-0.02,0.05-0.04,0.09-0.06,0.13c-0.02,0.04-0.04,0.09-0.06,0.13
		c-0.02,0.04-0.05,0.09-0.07,0.13c-0.02,0.04-0.05,0.08-0.08,0.12c-0.03,0.04-0.05,0.08-0.08,0.12c-0.54,0.74-1.23,1.01-2.11,1.13
		c-0.07,0-0.14-0.01-0.21-0.01s-0.14-0.02-0.21-0.03c-0.07-0.01-0.14-0.03-0.21-0.04c-0.07-0.02-0.14-0.04-0.21-0.06
		c-0.07-0.02-0.14-0.05-0.2-0.07c-0.07-0.03-0.13-0.06-0.2-0.09c-0.06-0.03-0.13-0.06-0.19-0.1c-0.06-0.04-0.12-0.07-0.18-0.11
		c-0.65-0.44-1.09-1.11-1.2-1.88c-0.11-0.77,0.03-1.62,0.53-2.23C210.54,49.38,211.28,49.14,212.08,49.05z M120.96,73.18
		c0.59-0.03,1.15,0.1,1.66,0.42c0.62,0.39,1.03,1.02,1.18,1.74c0.16,0.77,0.07,1.62-0.37,2.28c-0.49,0.72-1.19,1.04-2.01,1.21
		c-0.75,0-1.39-0.1-2.01-0.55c-0.07-0.05-0.14-0.11-0.21-0.17c-0.07-0.06-0.13-0.13-0.19-0.19c-0.06-0.07-0.12-0.14-0.17-0.21
		c-0.05-0.07-0.1-0.15-0.15-0.23s-0.09-0.16-0.13-0.24c-0.04-0.08-0.07-0.17-0.1-0.25c-0.03-0.09-0.05-0.17-0.08-0.26
		c-0.02-0.09-0.04-0.18-0.05-0.27c-0.01-0.05-0.01-0.1-0.01-0.14c0-0.05-0.01-0.1-0.01-0.14c0-0.05,0-0.1,0-0.14
		c0-0.05,0-0.1,0.01-0.14c0-0.05,0.01-0.1,0.01-0.14s0.01-0.1,0.02-0.14c0.01-0.05,0.02-0.09,0.03-0.14
		c0.01-0.05,0.02-0.09,0.04-0.14c0.01-0.05,0.03-0.09,0.04-0.14c0.02-0.05,0.03-0.09,0.05-0.14c0.02-0.04,0.04-0.09,0.06-0.13
		c0.02-0.04,0.04-0.09,0.06-0.13c0.02-0.04,0.04-0.09,0.07-0.13c0.02-0.04,0.05-0.08,0.07-0.12c0.03-0.04,0.05-0.08,0.08-0.12
		c0.03-0.04,0.06-0.08,0.09-0.12C119.47,73.59,120.14,73.29,120.96,73.18z M236.3,112.09c0.51-0.03,0.99,0.02,1.46,0.22
		c0.04,0.02,0.09,0.04,0.13,0.06c0.04,0.02,0.09,0.04,0.13,0.07c0.04,0.02,0.08,0.05,0.13,0.07c0.04,0.03,0.08,0.05,0.12,0.08
		c0.04,0.03,0.08,0.06,0.12,0.08c0.04,0.03,0.08,0.06,0.11,0.09c0.04,0.03,0.07,0.06,0.11,0.1c0.04,0.03,0.07,0.07,0.1,0.1
		c0.03,0.03,0.07,0.07,0.1,0.11c0.03,0.04,0.06,0.07,0.09,0.11c0.03,0.04,0.06,0.08,0.09,0.12c0.03,0.04,0.05,0.08,0.08,0.12
		c0.03,0.04,0.05,0.08,0.07,0.12c0.02,0.04,0.05,0.08,0.07,0.13c0.02,0.04,0.04,0.09,0.06,0.13c0.02,0.04,0.04,0.09,0.05,0.13
		c0.02,0.04,0.03,0.09,0.05,0.14c0.01,0.05,0.03,0.09,0.04,0.14c0.01,0.05,0.02,0.09,0.03,0.14c0.01,0.05,0.02,0.09,0.03,0.14
		c0.01,0.05,0.01,0.1,0.02,0.14c0.01,0.05,0.01,0.1,0.01,0.14c0,0.05,0,0.1,0,0.14c0,0.05,0,0.1,0,0.14c0,0.05-0.01,0.1-0.01,0.14
		c0,0.05-0.01,0.1-0.02,0.14c-0.01,0.05-0.02,0.1-0.02,0.14c-0.01,0.05-0.02,0.09-0.03,0.14c-0.01,0.05-0.03,0.09-0.04,0.14
		c-0.01,0.05-0.03,0.09-0.05,0.14c-0.02,0.05-0.03,0.09-0.05,0.13c-0.02,0.04-0.04,0.09-0.06,0.13c-0.42,0.85-1.13,1.28-2,1.56
		c-0.68,0.03-1.22,0-1.84-0.33c-0.68-0.36-1.27-1-1.48-1.76c-0.21-0.74-0.08-1.61,0.32-2.26
		C234.7,112.63,235.45,112.29,236.3,112.09z M113.94,102.16c0.54-0.02,1,0.09,1.48,0.35c0.04,0.02,0.08,0.05,0.13,0.07
		c0.04,0.03,0.08,0.05,0.12,0.08s0.08,0.06,0.12,0.09c0.04,0.03,0.08,0.06,0.11,0.09c0.04,0.03,0.07,0.06,0.11,0.1
		c0.04,0.03,0.07,0.07,0.1,0.1c0.03,0.04,0.07,0.07,0.1,0.11c0.03,0.04,0.06,0.07,0.09,0.11c0.03,0.04,0.06,0.08,0.09,0.12
		c0.03,0.04,0.05,0.08,0.08,0.12c0.03,0.04,0.05,0.08,0.07,0.13c0.02,0.04,0.05,0.09,0.07,0.13c0.02,0.04,0.04,0.09,0.06,0.13
		c0.02,0.04,0.04,0.09,0.05,0.14c0.02,0.05,0.03,0.09,0.05,0.14c0.01,0.05,0.03,0.09,0.04,0.14c0.02,0.09,0.04,0.17,0.05,0.26
		c0.01,0.09,0.02,0.18,0.03,0.27c0,0.09,0.01,0.18,0,0.27c0,0.09-0.01,0.18-0.03,0.27c-0.01,0.09-0.03,0.18-0.05,0.26
		c-0.02,0.09-0.05,0.17-0.08,0.26s-0.06,0.17-0.1,0.25c-0.04,0.08-0.08,0.16-0.13,0.24c-0.51,0.83-1.27,1.19-2.18,1.44
		c-0.71,0.01-1.35-0.08-1.95-0.48c-0.04-0.03-0.08-0.05-0.12-0.08s-0.07-0.06-0.11-0.09s-0.07-0.06-0.11-0.09
		c-0.03-0.03-0.07-0.07-0.1-0.1c-0.03-0.03-0.06-0.07-0.1-0.1c-0.03-0.04-0.06-0.07-0.09-0.11c-0.03-0.04-0.06-0.08-0.08-0.11
		c-0.03-0.04-0.05-0.08-0.08-0.12c-0.03-0.04-0.05-0.08-0.07-0.12c-0.02-0.04-0.04-0.08-0.07-0.13c-0.02-0.04-0.04-0.09-0.06-0.13
		c-0.02-0.04-0.04-0.09-0.05-0.13c-0.02-0.04-0.03-0.09-0.05-0.13s-0.03-0.09-0.04-0.14c-0.01-0.05-0.02-0.09-0.03-0.14
		c-0.01-0.05-0.02-0.09-0.02-0.14c-0.01-0.05-0.01-0.1-0.02-0.14c0-0.05-0.01-0.1-0.01-0.15c0-0.05,0-0.1,0-0.15
		c0-0.05,0-0.1,0-0.15c0-0.05,0.01-0.1,0.01-0.15c0-0.05,0.01-0.1,0.02-0.15c0.01-0.05,0.02-0.1,0.03-0.14s0.02-0.1,0.03-0.14
		c0.01-0.05,0.03-0.09,0.04-0.14c0.01-0.05,0.03-0.09,0.05-0.14c0.02-0.05,0.03-0.09,0.05-0.14c0.02-0.04,0.04-0.09,0.06-0.13
		c0.02-0.04,0.04-0.09,0.07-0.13c0.02-0.04,0.05-0.08,0.07-0.13c0.03-0.04,0.05-0.08,0.08-0.12c0.03-0.04,0.06-0.08,0.09-0.12
		C112.33,102.53,113.07,102.29,113.94,102.16z M114.8,92.4c0.6,0.03,1.07,0.11,1.59,0.45c0.64,0.43,1.13,1.16,1.27,1.91
		c0.14,0.77-0.08,1.62-0.55,2.25c-0.53,0.73-1.29,1.04-2.16,1.15c-0.57-0.04-1.07-0.14-1.58-0.43c-0.66-0.39-1.11-1.02-1.28-1.77
		c-0.01-0.05-0.02-0.1-0.03-0.14c-0.01-0.05-0.02-0.1-0.02-0.15c-0.01-0.05-0.01-0.1-0.01-0.15c0-0.05-0.01-0.1-0.01-0.15
		c0-0.05,0-0.1,0-0.15c0-0.05,0.01-0.1,0.01-0.15c0-0.05,0.01-0.1,0.02-0.15s0.02-0.1,0.02-0.14c0.01-0.05,0.02-0.1,0.03-0.14
		c0.01-0.05,0.03-0.09,0.04-0.14c0.01-0.05,0.03-0.09,0.05-0.14c0.02-0.05,0.04-0.09,0.05-0.14c0.02-0.05,0.04-0.09,0.06-0.13
		c0.02-0.04,0.04-0.09,0.07-0.13c0.02-0.04,0.05-0.08,0.08-0.13c0.03-0.04,0.05-0.08,0.08-0.12C113.1,92.92,113.88,92.57,114.8,92.4
		z M188.66,135.59l1.52,0c-0.09,2.39-0.05,4.79-0.05,7.18l-0.01,11.47c-0.49,0.03-1,0.02-1.49,0.03L188.66,135.59z M191.63,135.59
		l1.48,0l0,12.44c0,2.06,0.11,4.19-0.02,6.25l-1.52-0.01C191.61,148.04,191.54,141.81,191.63,135.59z M197.5,135.58l1.58-0.01
		l0.07,18.71l-1.56,0.02C197.65,148.06,197.62,141.82,197.5,135.58z M194.53,135.57l1.57,0l0.03,18.72l-1.58,0L194.53,135.57z
		 M200.56,135.56l1.58,0l-0.05,18.7c-0.5,0.05-1.03,0.01-1.53,0.01L200.56,135.56z M203.76,135.54c0.47,0,0.95-0.02,1.42-0.03
		c0.04,2.01,0.13,18.45-0.09,18.77l-1.46-0.05l-0.03-13.09l-0.01-3.62c0-0.62-0.07-1.29,0.04-1.9L203.76,135.54z M197.55,131.11
		c0.28,0.09,0.55,0.13,0.84,0.16l-0.11,0.25c0.49,0.48,7.33,0.27,8.47,0.28c0,1.06,0.01,2.13-0.01,3.19c-3.14,0.13-6.31-0.01-9.45,0
		c0.01-0.97,0.15-2.57-0.07-3.49C197.3,131.28,197.37,131.25,197.55,131.11z M194.84,131.62c0.43-0.18,1.13-0.2,1.59-0.09
		c-0.08,1.15-0.04,2.32-0.04,3.48c-3.61,0.06-7.22-0.05-10.82-0.01c0.07-1.06,0.06-2.12,0.06-3.18l5.28-0.02
		C192.13,131.78,193.66,131.94,194.84,131.62z M179.18,137.9c2.58-0.02,5.18,0.08,7.75,0l-0.01,4.3l-10.5,0l0.02-4.14
		C177.34,137.88,178.3,138.09,179.18,137.9z M151.25,125.09c0.63-0.07,1.15,0.05,1.67,0.43c1.28,0.96,1.65,2.94,1.83,4.42
		c0.18-1.42,0.84-3.16,2-4.07c0.38-0.3,0.9-0.55,1.4-0.47c0.93,0.14,2.67,1.98,3.19,2.77c0.19,0.28,0.5,0.79,0.37,1.15
		c-0.33,0.9-4.16,2.01-5.16,2.36c2.97,0.09,5.93,0.12,8.9,0.09c-0.05,1.13,0.01,2.28,0.04,3.41l-5.2-0.03
		c-1.65-0.02-3.29-0.01-4.94,0.01c0-1.17,0-2.35-0.01-3.52l-0.91,0c-0.03,1.17-0.01,2.35-0.02,3.53c-3.18-0.05-6.36-0.01-9.54,0
		c-0.05-1.11-0.03-2.22-0.03-3.32c2.76-0.21,5.58-0.04,8.35-0.19c-0.99-0.32-4.53-1.48-4.93-2.37c-0.09-0.2-0.04-0.41,0.02-0.61
		C148.67,127.51,150.15,125.68,151.25,125.09z M176.43,142.88l9.55,0.01c-0.12,5.75,0.08,11.49-0.1,17.24
		c-0.87,0.15-1.99,0.03-2.88,0.03l-6.59,0.03L176.43,142.88z M174.09,80.6c0.48,0.07,2.09,1.14,2.58,1.43
		c1.98,1.15,4,2.17,6.07,3.17c-1.7,1.75-3.6,3.34-5.49,4.87c-3.36,2.73-6.81,5.28-10.6,7.38l-1.02-0.65
		c-2.02-1.5-3.98-3.08-5.88-4.73c-1.19-1.02-2.47-2.03-3.44-3.27c1.8-0.57,3.56-1.35,5.29-2.1
		C165.87,84.86,169.99,82.78,174.09,80.6z M229.44,129.72c0.09,0.34,0.16,0.68,0.34,0.99c0.39,0.68,1.01,1.15,1.77,1.32
		c0.95,0.21,1.71-0.11,2.49-0.62c-0.75,1.62-1.52,3.17-2.44,4.7c-0.57,0.87-1.04,1.8-1.59,2.68c-0.92,1.47-1.97,2.95-3.02,4.33
		c-0.33,0.43-0.66,0.85-1,1.27c-0.34,0.42-0.68,0.84-1.03,1.25c-0.35,0.41-0.7,0.82-1.06,1.22c-0.36,0.4-0.72,0.8-1.09,1.2
		c-0.37,0.39-0.74,0.78-1.12,1.17c-0.38,0.39-0.76,0.77-1.15,1.14c-0.39,0.38-0.78,0.75-1.18,1.11c-0.4,0.37-0.8,0.73-1.2,1.08
		c-0.41,0.36-0.82,0.71-1.23,1.05c-0.41,0.35-0.83,0.69-1.26,1.02c-0.42,0.34-0.85,0.67-1.28,0.99c-0.43,0.33-0.87,0.65-1.3,0.96
		c-0.44,0.31-0.88,0.62-1.33,0.93c-0.45,0.3-0.9,0.6-1.35,0.89c-0.45,0.29-0.91,0.58-1.37,0.86c-0.46,0.28-0.93,0.56-1.39,0.83
		c-2.11,1.24-4.27,2.4-6.52,3.36c-4.74,2.02-9.84,3.61-14.92,4.48c-0.35,0.06-0.7,0.11-1.06,0.16c-0.35,0.05-0.71,0.1-1.06,0.14
		c-0.35,0.05-0.71,0.09-1.06,0.13c-0.35,0.04-0.71,0.08-1.06,0.11c-0.35,0.03-0.71,0.06-1.06,0.09c-0.36,0.03-0.71,0.05-1.07,0.07
		c-0.36,0.02-0.71,0.04-1.07,0.05c-0.36,0.02-0.71,0.03-1.07,0.04s-0.71,0.02-1.07,0.02c-0.36,0-0.71,0-1.07,0
		c-0.36,0-0.71-0.01-1.07-0.02c-0.36-0.01-0.71-0.02-1.07-0.03c-0.36-0.01-0.71-0.03-1.07-0.05c-0.36-0.02-0.71-0.04-1.07-0.07
		c-0.36-0.03-0.71-0.06-1.07-0.09c-0.35-0.03-0.71-0.07-1.06-0.11c-0.35-0.04-0.71-0.08-1.06-0.12c-0.35-0.04-0.71-0.09-1.06-0.14
		c-0.35-0.05-0.7-0.1-1.06-0.16c-0.35-0.06-0.7-0.12-1.05-0.18c-0.35-0.06-0.7-0.13-1.05-0.2c-0.35-0.07-0.7-0.14-1.05-0.21
		c-0.35-0.07-0.7-0.15-1.04-0.23s-0.69-0.16-1.04-0.25c-0.35-0.09-0.69-0.17-1.04-0.27c-0.34-0.09-0.69-0.19-1.03-0.28
		c-0.34-0.1-0.68-0.2-1.03-0.3s-0.68-0.21-1.02-0.32c-0.34-0.11-0.68-0.22-1.01-0.33c-0.34-0.11-0.67-0.23-1.01-0.35
		c-0.34-0.12-0.67-0.24-1-0.37c-0.33-0.13-0.67-0.25-1-0.39c-0.39-0.15-0.77-0.31-1.15-0.47c-0.38-0.16-0.76-0.33-1.14-0.49
		c-0.38-0.17-0.76-0.34-1.13-0.52c-0.38-0.18-0.75-0.35-1.12-0.54c-0.37-0.18-0.74-0.37-1.11-0.56c-0.37-0.19-0.74-0.38-1.1-0.58
		c-0.37-0.2-0.73-0.4-1.09-0.6c-0.36-0.2-0.72-0.41-1.08-0.62c-0.36-0.21-0.71-0.43-1.07-0.64c-0.35-0.22-0.71-0.44-1.06-0.66
		c-0.35-0.22-0.7-0.45-1.04-0.68c-0.35-0.23-0.69-0.47-1.03-0.7s-0.68-0.48-1.01-0.72c-0.34-0.24-0.67-0.49-1-0.74
		c-0.33-0.25-0.66-0.51-0.99-0.76c-0.33-0.26-0.65-0.52-0.97-0.78c-0.32-0.26-0.64-0.53-0.96-0.8c-0.32-0.27-0.63-0.54-0.94-0.82
		c-0.31-0.28-0.62-0.55-0.92-0.84c-0.31-0.28-0.61-0.57-0.91-0.85c-0.3-0.29-0.6-0.58-0.89-0.87c-0.29-0.29-0.59-0.59-0.87-0.89
		c-0.29-0.3-0.57-0.6-0.86-0.91c-0.28-0.3-0.56-0.61-0.84-0.92c-0.28-0.31-0.55-0.62-0.82-0.94c-0.27-0.32-0.54-0.63-0.8-0.95
		c-0.26-0.32-0.53-0.64-0.78-0.97c-0.26-0.33-0.51-0.65-0.77-0.98c-0.25-0.33-0.5-0.66-0.75-1c-0.25-0.34-0.49-0.67-0.73-1.01
		c-0.24-0.34-0.47-0.68-0.71-1.03c-0.23-0.34-0.46-0.69-0.69-1.04c-1.62-2.5-3.18-5.11-4.34-7.86c0.13,0.06,0.26,0.11,0.39,0.16
		c0.73,0.28,1.58,0.27,2.3-0.06c0.81-0.38,1.25-1.08,1.55-1.88c0.33,1.1,1.73,3.34,2.36,4.44c5.57,9.67,14.01,17.41,23.73,22.78
		c6.38,3.52,13.31,5.43,20.5,6.36c2.12,0.27,4.26,0.51,6.39,0.53c0.73,0,1.46-0.01,2.19-0.03c0.73-0.02,1.46-0.06,2.19-0.11
		c0.73-0.05,1.46-0.11,2.19-0.19c0.73-0.08,1.45-0.16,2.18-0.26c0.72-0.1,1.45-0.22,2.17-0.34c0.72-0.13,1.44-0.27,2.15-0.42
		c0.72-0.15,1.43-0.32,2.14-0.5c0.71-0.18,1.41-0.37,2.12-0.57c0.41-0.12,0.81-0.25,1.22-0.37c0.4-0.13,0.81-0.26,1.21-0.4
		c0.4-0.14,0.8-0.28,1.2-0.43c0.4-0.15,0.79-0.3,1.19-0.45c0.39-0.15,0.79-0.31,1.18-0.48c0.39-0.16,0.78-0.33,1.17-0.5
		c0.39-0.17,0.77-0.35,1.16-0.53c0.38-0.18,0.77-0.36,1.15-0.55c0.38-0.19,0.76-0.38,1.14-0.57c0.38-0.2,0.75-0.39,1.12-0.6
		c0.37-0.2,0.74-0.41,1.11-0.62c0.37-0.21,0.73-0.43,1.1-0.64c0.36-0.22,0.72-0.44,1.08-0.67c0.36-0.23,0.71-0.46,1.07-0.69
		c0.35-0.23,0.7-0.47,1.05-0.71c0.35-0.24,0.69-0.49,1.04-0.74c0.34-0.25,0.68-0.5,1.02-0.76c0.34-0.26,0.67-0.52,1.01-0.78
		c0.33-0.26,0.66-0.53,0.99-0.8c0.33-0.27,0.65-0.54,0.97-0.82c0.32-0.28,0.64-0.56,0.95-0.84c0.32-0.28,0.63-0.57,0.94-0.86
		c0.31-0.29,0.62-0.58,0.92-0.88c0.3-0.3,0.6-0.6,0.9-0.9c0.3-0.3,0.59-0.61,0.88-0.92c0.29-0.31,0.58-0.62,0.86-0.94
		c0.28-0.32,0.56-0.63,0.84-0.95c0.28-0.32,0.55-0.65,0.82-0.97c0.27-0.33,0.54-0.66,0.8-0.99c0.26-0.33,0.52-0.67,0.78-1.01
		c0.26-0.34,0.51-0.68,0.76-1.02c0.25-0.34,0.49-0.69,0.74-1.04c1.17-1.72,2.19-3.49,3.15-5.33
		C228.45,131.71,228.9,130.69,229.44,129.72z M176.16,40.79c0.39,0.47,0.86,1.22,1.36,1.56l-0.03,0.14
		c0.51,0.48,1.36,1.95,1.82,2.61c1.15,1.67,2.32,3.36,3.59,4.95c4.21,5.29,8.82,10.23,13.32,15.27c-2.55-0.14-5.12,0.07-7.67-0.11
		l1.11,1.11c-0.6,0.46-1.1,1.07-1.63,1.6c-0.79,0.78-1.61,1.52-2.47,2.22c-3.35,2.74-7.17,4.93-10.93,7.05
		c-2.79-1.33-6.33-3.8-8.81-5.73c2.46-1.5,4.95-2.9,7.33-4.53c1.39-0.96,2.65-2.05,3.95-3.13c0.91-0.76,1.86-1.47,2.75-2.24
		c1.57-1.37,4.4-4.16,5.25-5.98c-0.04-0.37-0.07-0.75-0.13-1.12c-0.12-0.69-0.47-0.99-1.01-1.36c-0.7,1.2-1.65,2.29-2.58,3.32
		c-4.28,4.77-9.55,8.45-15.04,11.7c-1.65,0.97-3.5,1.69-5.07,2.76l-0.09,0.06c1.8,2.21,8.05,6.28,10.6,7.81
		c-0.94,0.65-2.12,1.13-3.14,1.67c-3.56,1.89-7.21,3.52-10.93,5.07c-1.64,0.68-3.51,1.25-5.08,2.04l-0.25,1.01
		c2.8,3.81,7.7,7.78,11.66,10.34c-5.26,2.47-10,4.04-15.76,4.85c-0.83,0.77-1.37,1.9-1.92,2.87c4.9-0.03,11.01-2.04,15.49-3.96
		c1.58-0.68,3.11-1.5,4.7-2.14c1.37,1.05,2.92,1.89,4.43,2.72c3.51,1.93,6.86,3.47,10.53,5.05c-1.89,0.98-3.76,2.1-5.73,2.9
		c-1.9,0.77-3.83,1.52-5.8,2.09c-6.25,1.8-13.14,2.21-19.49,0.65c-2.61-0.64-5.08-1.58-7.55-2.63c-0.84,0.5-1.64,1.04-2.42,1.63
		c1.84,1.31,5.86,2.67,8.11,3.25c2.24,0.57,4.6,1.06,6.9,1.26c7.83,0.68,15.85-1.24,22.9-4.6c1.98-0.95,3.91-2.06,5.8-3.18
		c0.95,0.21,1.88,0.61,2.79,0.94c1.07,0.4,2.16,0.76,3.26,1.08c6.14,1.79,12.23,2.86,18.64,2.91c1.27,0.01,2.57,0.06,3.84-0.08
		c-0.76-0.96-1.63-1.82-2.42-2.75c-8.41,0.19-15.5-1.46-23.39-4.2c3.36-2.51,6.76-5.04,9.83-7.9c1.48-1.38,2.93-2.84,4.3-4.33
		c0.54-0.59,1.05-1.22,1.6-1.81c-0.58-0.59-1.21-1.14-1.79-1.74c-1.36,1.24-2.53,2.71-3.86,3.99c-2.65,2.51-5.47,4.8-8.35,7.04
		c-1.47,1.14-2.94,2.33-4.48,3.37c-5.06-1.71-10.51-4.36-15.12-7.06c1.39-0.66,2.67-1.6,3.94-2.47c1.69-1.15,3.33-2.36,4.94-3.61
		c1.61-1.26,3.17-2.57,4.69-3.93c1.04-0.92,2.1-1.82,3.08-2.8c4.44,1.9,9.99,3.15,14.8,3.37c-0.94-0.94-1.79-1.97-2.7-2.95
		c-2.52-0.6-5.16-0.8-7.6-1.74c0.21-0.29,0.45-0.55,0.69-0.81c0.37,0.06,0.74,0.14,1.11,0.22c-0.05-0.49-0.1-0.98-0.11-1.47
		l0.73-0.68c-1-0.53-1.4-0.55-2.01-1.58c-0.25,0.33-0.5,0.6-0.83,0.85l-1.22-0.03c0.16,0.28,0.33,0.57,0.37,0.9
		c0.07,0.5-0.21,0.82-0.51,1.18c0.37,0.1,0.73,0.24,1.09,0.37c0.21,0.32,0.36,0.66,0.51,1.02c-0.76-0.24-1.53-0.4-2.29-0.65
		c-3.82-1.26-7.56-2.99-10.85-5.31c1.69-0.94,3.39-1.87,5.01-2.92c3.35-2.19,6.33-4.75,9.27-7.45c1.85,1.89,3.71,3.79,5.52,5.71
		c2.44,2.59,4.84,5.25,7.43,7.69c-1.1,0.08-2.25,0-3.35-0.01c-1.8-0.01-3.6,0.02-5.4-0.01c2.1,2.37,4.37,4.57,6.59,6.81
		c1.67,1.69,3.29,3.43,4.94,5.13c1.68,1.72,3.4,3.41,5.04,5.16c-2.19-0.03-4.38-0.07-6.56-0.12c-1.16-0.03-2.38,0-3.53-0.16
		c1.34,1.71,2.94,3.28,4.44,4.85l5.73,6l5.54,5.77c1.17,1.21,2.33,2.53,3.62,3.62l-7.93-0.76c-1.46-0.14-2.94-0.22-4.39-0.46
		c-0.53,2.26-1.26,4.55-2.02,6.74c-3.47-1.6-6.93-3.25-10.46-4.73c-0.83,1.12-1.96,2.11-2.91,3.13c-1.01,1.08-1.93,2.23-2.96,3.29
		c-2.26-1.57-5.69-3.23-8.21-4.49c0.1,3.25,0.04,6.51,0.14,9.76c-0.74-0.27-1.47-0.62-2.19-0.95c-1.52,0.89-2.84,2.05-4.35,2.94
		c-1.17-1.08-2.52-1.95-3.66-3.08c-0.51,0.19-1.02,0.33-1.55,0.47c0.13-3.26,0.31-6.52,0.51-9.78c-1.09,0.59-2.1,1.36-3.14,2.04
		c-1.93,1.27-3.87,2.5-5.87,3.65c-1.79-2.34-3.85-4.48-5.74-6.73l-6.96,2.55c-1.61,0.59-3.26,1.15-4.81,1.87
		c-0.86-2.27-1.9-4.51-2.65-6.82c-3.92,0.67-7.84,1.3-11.83,1.24c1.12-0.8,2.11-1.72,3.12-2.64c2.11-1.9,4.11-3.87,6.13-5.86
		c2.72-2.67,5.34-5.4,8.01-8.11c1.4-1.42,2.86-2.78,4.22-4.24c-1.44,0.09-2.87,0.39-4.3,0.55c-2.17,0.24-4.36,0.31-6.55,0.34
		c0.55-0.5,1.05-1.1,1.56-1.65l3.18-3.36c3.83-4.05,7.57-8.17,11.22-12.37c-3.18,0.14-6.42,0.36-9.59,0.74
		c0.9-0.72,1.67-1.58,2.47-2.41l3.78-3.96l11.02-11.43c-2.7,0.46-5.42,0.78-8.12,1.24c3.4-3.74,6.75-7.53,10.04-11.36
		c1.44-1.7,2.92-3.36,4.26-5.15c1.62-2.16,3.02-4.45,4.46-6.73c0.15-0.25,0.28-0.51,0.42-0.78
		C175.69,41.41,175.97,41.08,176.16,40.79z M176.16,40.79c0.39,0.47,0.86,1.22,1.36,1.56l-0.03,0.14c-0.69,0.17-1.61,0.06-2.33,0.03
		c0.15-0.25,0.28-0.51,0.42-0.78C175.69,41.41,175.97,41.08,176.16,40.79z"/>
	<path class="st171" d="M184.54,64.93c0.19,0,0.36-0.01,0.5,0.13c0.14,0.14,0.2,0.3,0.2,0.5c-0.01,0.23-0.12,0.37-0.27,0.52
		c-0.17-0.04-0.39-0.08-0.53-0.17c-0.18-0.11-0.21-0.22-0.26-0.41C184.25,65.24,184.36,65.12,184.54,64.93z M156.96,95.86
		c0.28,0.28,0.49,0.71,0.69,1.05l1.32,0.02c-0.64,0.85-0.77,1.76-1,2.78l-0.76-0.41l-0.16,0.01c-0.06,0-0.13,0.01-0.19,0.01
		c-0.23,0-0.31,0.03-0.51,0.15c-0.13,0.08-0.21,0.15-0.37,0.15c-0.01-0.06-0.02-0.14-0.04-0.19c-0.38-1.05,0.15-0.93-0.71-2.01
		c0.39-0.26,0.71-0.39,1.18-0.5C156.59,96.56,156.78,96.21,156.96,95.86z M175.12,54.44c0.08,0.34,0.13,0.72,0.26,1.04
		c0.2,0.5,0.69,0.61,1.15,0.81l-0.01,0.19c-0.16,0.3-0.51,0.45-0.76,0.67c0.14,0.39-0.15,1.14-0.23,1.57l-1.06-0.68
		c-0.28,0.02-0.55,0.11-0.83,0.13c-0.21,0.01-0.31-0.04-0.46-0.17c-0.09-0.4,0.12-0.85,0.25-1.23c-0.23-0.27-0.57-0.66-0.66-1
		c-0.04-0.14-0.01-0.13,0.06-0.24c0.3-0.09,0.64-0.05,0.95-0.08c0.38-0.04,0.58-0.16,0.81-0.46
		C174.76,54.78,174.92,54.61,175.12,54.44z M198.87,101.7c0.33-0.01,0.67-0.03,0.99,0.07c0.47,0.15,0.89,0.54,1.11,0.98
		c0.18,0.36,0.23,0.77,0.09,1.16c-0.19,0.53-0.65,0.8-1.13,1.03c-0.48,0.08-0.87,0.13-1.32-0.1c-0.45-0.23-0.78-0.62-0.92-1.1
		c-0.12-0.42-0.09-0.88,0.13-1.26C198.07,102.06,198.42,101.83,198.87,101.7z M193.02,91.43c0.11,0.03,0.07,0.02,0.17,0.03
		c0.23,0.02,0.45,0.03,0.66,0.13c0.06,0.03,0.13,0.06,0.19,0.1c0.06,0.04,0.12,0.07,0.18,0.12c0.06,0.04,0.11,0.09,0.17,0.13
		c0.05,0.05,0.1,0.1,0.15,0.15c0.05,0.05,0.09,0.11,0.14,0.16c0.04,0.06,0.08,0.12,0.12,0.18c0.04,0.06,0.07,0.12,0.1,0.19
		c0.03,0.06,0.06,0.13,0.08,0.2c0.15,0.43,0.13,0.92-0.07,1.33c-0.27,0.55-0.71,0.84-1.27,1.02c-0.32,0-0.67,0-0.98-0.12
		c-0.05-0.02-0.11-0.05-0.16-0.08c-0.05-0.03-0.1-0.06-0.15-0.09c-0.05-0.03-0.1-0.07-0.14-0.11c-0.05-0.04-0.09-0.08-0.13-0.12
		c-0.04-0.04-0.08-0.09-0.12-0.13c-0.04-0.05-0.07-0.09-0.1-0.14c-0.03-0.05-0.06-0.1-0.09-0.15c-0.03-0.05-0.05-0.11-0.07-0.16
		c-0.19-0.48-0.19-1.04,0.02-1.51C191.98,91.91,192.42,91.66,193.02,91.43z M173.34,69.33c1.39,1.33,1.12,0.26,1.95,0.7
		c0.03,0.18-0.01,0.27-0.09,0.43c0.27,0.06,0.43,0.14,0.58,0.39c0.02,0.04,0.04,0.09,0.06,0.13c-0.15,0.03-0.29,0.03-0.37,0.19
		c-0.01,0.03-0.01,0.06-0.02,0.09c0.15,0.3-0.16,0.3-0.19,0.59c0.09,0.13,0.24,0.31,0.31,0.46c0.07,0.17,0.03,0.22-0.05,0.36
		c-0.25,0.08-0.54,0-0.79-0.05c-0.24,0.41-0.48,0.81-0.72,1.21c-0.24-0.33-0.48-0.67-0.69-1.02c-0.41,0.1-0.83,0.15-1.24,0.22
		c0.04-0.37,0.09-0.7,0.21-1.05c-0.23-0.4-0.57-0.81-0.69-1.25c0.13-0.33,0.75-0.4,1.05-0.61C172.9,69.95,173.14,69.59,173.34,69.33
		z M185.59,75.18c0.39,0,0.81,0.1,1.15,0.28c0.05,0.03,0.1,0.06,0.14,0.09c0.05,0.03,0.09,0.06,0.13,0.1
		c0.04,0.04,0.08,0.07,0.12,0.11c0.04,0.04,0.08,0.08,0.11,0.13c0.03,0.04,0.07,0.09,0.1,0.14c0.03,0.05,0.06,0.1,0.08,0.15
		c0.03,0.05,0.05,0.1,0.07,0.15c0.02,0.05,0.04,0.11,0.05,0.16c0.14,0.49,0.06,1.06-0.2,1.5c-0.32,0.55-0.78,0.77-1.38,0.91
		c-0.72,0.03-1.03-0.1-1.63-0.47c-0.13-0.24-0.27-0.49-0.34-0.76c-0.14-0.54-0.12-1.16,0.18-1.64
		C184.53,75.5,185.01,75.31,185.59,75.18z M185.09,114.21c0.51-0.02,0.95-0.05,1.41,0.19c0.47,0.25,0.79,0.65,0.94,1.16
		c0.14,0.48,0.11,1.04-0.14,1.49c-0.28,0.49-0.67,0.71-1.2,0.86c-0.44,0.09-0.84,0.12-1.26-0.07c-0.48-0.21-0.83-0.61-1-1.1
		c-0.18-0.52-0.15-1.13,0.1-1.62C184.21,114.62,184.58,114.39,185.09,114.21z"/>
	<path class="st172" d="M125.32,98.5c0.2-0.01,0.4-0.03,0.59,0c0.31,0.05,0.62,0.27,0.79,0.53c0.16,0.26,0.2,0.57,0.12,0.86
		c-0.12,0.46-0.42,0.65-0.81,0.88c-0.21,0.04-0.39,0.07-0.6,0.03c-0.28-0.05-0.55-0.22-0.71-0.46c-0.19-0.29-0.23-0.63-0.15-0.96
		C124.66,98.95,124.95,98.73,125.32,98.5z M135.72,101.62c0.24-0.02,0.48-0.04,0.71,0.03c0.33,0.1,0.62,0.33,0.77,0.64
		c0.15,0.31,0.15,0.67,0.03,0.99c-0.16,0.42-0.47,0.62-0.86,0.81c-0.16,0.02-0.33,0.04-0.49,0.02c-0.31-0.05-0.64-0.22-0.83-0.48
		c-0.2-0.29-0.25-0.63-0.18-0.97C134.97,102.13,135.3,101.9,135.72,101.62z M139.28,125.79c0.34,0.36,0.59,1.18,0.8,1.65
		c0.61,0.08,1.22,0.15,1.83,0.2c-0.48,0.37-0.97,0.73-1.35,1.21c0.04,0.52,0.04,1.05,0.04,1.58c-0.45-0.25-0.92-0.48-1.39-0.7
		l-0.07-0.06c-0.44,0.24-0.9,0.45-1.35,0.66l0.27-1.42c-0.36-0.49-0.77-0.95-1.16-1.41c0.52-0.07,1.04-0.1,1.56-0.14
		C138.77,126.85,139.02,126.32,139.28,125.79z M146.34,135.73l1.17,0l-0.06,18.54l-1.07,0.02
		C146.44,148.11,146.31,141.92,146.34,135.73z M236.48,102.31c0.62-0.04,1.19,0.04,1.73,0.35c0.63,0.37,1.06,0.98,1.23,1.69
		c0.17,0.72,0.06,1.51-0.33,2.14c-0.45,0.72-1.12,1.03-1.92,1.22c-0.54,0.04-1.07-0.05-1.55-0.3c-0.04-0.02-0.09-0.05-0.13-0.07
		c-0.04-0.02-0.08-0.05-0.12-0.08c-0.04-0.03-0.08-0.05-0.12-0.08c-0.04-0.03-0.08-0.06-0.12-0.09c-0.04-0.03-0.07-0.06-0.11-0.1
		c-0.04-0.03-0.07-0.07-0.11-0.1c-0.03-0.03-0.07-0.07-0.1-0.11c-0.03-0.04-0.06-0.07-0.1-0.11c-0.03-0.04-0.06-0.08-0.09-0.12
		c-0.03-0.04-0.06-0.08-0.08-0.12c-0.03-0.04-0.05-0.08-0.08-0.12c-0.02-0.04-0.05-0.08-0.07-0.13c-0.02-0.04-0.04-0.09-0.06-0.13
		c-0.02-0.04-0.04-0.09-0.06-0.13c-0.02-0.05-0.03-0.09-0.05-0.14c-0.02-0.05-0.03-0.09-0.04-0.14c-0.01-0.04-0.02-0.08-0.03-0.13
		c-0.01-0.04-0.02-0.09-0.03-0.13c-0.01-0.04-0.01-0.09-0.02-0.13c-0.01-0.04-0.01-0.09-0.01-0.13c0-0.04,0-0.09-0.01-0.13
		c0-0.04,0-0.09,0-0.13c0-0.04,0-0.09,0.01-0.13c0-0.04,0.01-0.09,0.02-0.13c0.01-0.04,0.01-0.09,0.02-0.13
		c0.01-0.04,0.02-0.09,0.03-0.13c0.01-0.04,0.02-0.08,0.04-0.13c0.01-0.04,0.03-0.08,0.04-0.12c0.02-0.04,0.03-0.08,0.05-0.12
		c0.02-0.04,0.04-0.08,0.05-0.12c0.02-0.04,0.04-0.08,0.06-0.12c0.02-0.04,0.04-0.08,0.07-0.11
		C234.94,102.88,235.66,102.5,236.48,102.31z M147.25,43.45c0.6-0.07,1.16-0.08,1.73,0.14c0.04,0.02,0.08,0.03,0.12,0.05
		c0.04,0.02,0.08,0.04,0.12,0.06c0.04,0.02,0.08,0.04,0.12,0.07c0.04,0.02,0.08,0.05,0.12,0.07c0.04,0.02,0.08,0.05,0.11,0.08
		c0.04,0.03,0.07,0.05,0.11,0.08c0.04,0.03,0.07,0.06,0.1,0.09c0.03,0.03,0.07,0.06,0.1,0.09c0.03,0.03,0.06,0.06,0.09,0.1
		c0.03,0.03,0.06,0.07,0.09,0.1c0.03,0.03,0.06,0.07,0.08,0.11s0.05,0.07,0.08,0.11c0.03,0.04,0.05,0.08,0.07,0.11
		c0.02,0.04,0.05,0.08,0.07,0.12c0.02,0.04,0.04,0.08,0.06,0.12c0.02,0.04,0.04,0.08,0.05,0.12c0.02,0.04,0.03,0.08,0.05,0.12
		c0.02,0.04,0.03,0.08,0.04,0.12c0.01,0.04,0.02,0.08,0.04,0.13c0.01,0.04,0.02,0.09,0.03,0.13c0.01,0.04,0.02,0.09,0.02,0.13
		c0.01,0.04,0.01,0.09,0.02,0.13c0,0.04,0.01,0.09,0.01,0.13c0,0.04,0,0.09,0,0.13c0,0.04,0,0.09,0,0.13c0,0.04-0.01,0.09-0.01,0.13
		c0,0.04-0.01,0.09-0.02,0.13c-0.01,0.04-0.01,0.09-0.02,0.13c-0.01,0.04-0.02,0.09-0.03,0.13c-0.01,0.04-0.02,0.08-0.04,0.13
		c-0.01,0.04-0.03,0.08-0.04,0.12c-0.02,0.04-0.03,0.08-0.05,0.12c-0.35,0.81-1,1.32-1.81,1.62c-0.57,0.12-1.23,0.06-1.78-0.15
		c-0.08-0.03-0.16-0.07-0.24-0.11c-0.08-0.04-0.16-0.09-0.23-0.14c-0.07-0.05-0.15-0.1-0.22-0.16c-0.07-0.06-0.14-0.12-0.2-0.18
		c-0.06-0.06-0.12-0.13-0.18-0.2c-0.06-0.07-0.11-0.14-0.16-0.22c-0.05-0.07-0.1-0.15-0.14-0.23c-0.04-0.08-0.08-0.16-0.11-0.24
		c-0.28-0.7-0.25-1.54,0.08-2.22C145.86,44.12,146.48,43.73,147.25,43.45z M234.05,82.57c0.42-0.02,0.86,0.08,1.24,0.27
		c0.71,0.35,1.19,1.02,1.41,1.77c0.2,0.69,0.13,1.4-0.23,2.03c-0.48,0.82-1.17,1.2-2.05,1.44c-0.71-0.01-1.32-0.11-1.92-0.54
		c-0.07-0.05-0.14-0.11-0.21-0.17c-0.07-0.06-0.13-0.12-0.19-0.19c-0.06-0.07-0.12-0.13-0.17-0.2c-0.05-0.07-0.1-0.14-0.15-0.22
		c-0.05-0.08-0.09-0.15-0.13-0.24c-0.04-0.08-0.07-0.16-0.1-0.25c-0.03-0.08-0.06-0.17-0.08-0.26c-0.02-0.09-0.04-0.17-0.05-0.26
		c-0.11-0.77,0.09-1.58,0.57-2.19C232.53,82.87,233.21,82.66,234.05,82.57z M131.12,56.71c0.64-0.03,1.2-0.04,1.78,0.27
		c0.04,0.02,0.08,0.04,0.12,0.07c0.04,0.02,0.08,0.05,0.11,0.07c0.04,0.03,0.07,0.05,0.11,0.08c0.04,0.03,0.07,0.05,0.11,0.08
		s0.07,0.06,0.1,0.09c0.03,0.03,0.07,0.06,0.1,0.09c0.03,0.03,0.06,0.07,0.09,0.1c0.03,0.03,0.06,0.07,0.09,0.1
		c0.03,0.04,0.06,0.07,0.08,0.11c0.03,0.04,0.05,0.07,0.08,0.11c0.02,0.04,0.05,0.08,0.07,0.12c0.02,0.04,0.04,0.08,0.06,0.12
		c0.02,0.04,0.04,0.08,0.06,0.12c0.02,0.04,0.04,0.08,0.05,0.12c0.02,0.04,0.03,0.08,0.04,0.13c0.01,0.04,0.03,0.09,0.04,0.13
		c0.19,0.73,0.1,1.57-0.31,2.21c-0.44,0.7-1.1,1.04-1.88,1.22c-0.67,0.04-1.25,0.02-1.85-0.32c-0.61-0.35-1.09-0.94-1.27-1.63
		c-0.19-0.71-0.04-1.47,0.34-2.09C129.69,57.3,130.32,56.91,131.12,56.71z M116.74,121.82c0.56-0.04,1.09,0.01,1.61,0.26
		c0.66,0.32,1.15,0.9,1.38,1.59c0.02,0.04,0.03,0.09,0.04,0.13c0.01,0.05,0.03,0.09,0.04,0.14c0.01,0.05,0.02,0.09,0.03,0.14
		c0.01,0.05,0.02,0.09,0.02,0.14c0.01,0.05,0.01,0.09,0.01,0.14c0,0.05,0.01,0.09,0.01,0.14c0,0.05,0,0.09,0,0.14
		c0,0.05,0,0.09-0.01,0.14c0,0.05-0.01,0.09-0.02,0.14c-0.01,0.05-0.01,0.09-0.02,0.14c-0.01,0.05-0.02,0.09-0.03,0.14
		c-0.01,0.05-0.02,0.09-0.04,0.14c-0.01,0.05-0.03,0.09-0.04,0.13c-0.02,0.04-0.03,0.09-0.05,0.13c-0.02,0.04-0.04,0.09-0.06,0.13
		c-0.02,0.04-0.04,0.08-0.06,0.13c-0.41,0.74-1.05,1.13-1.83,1.37c-0.71,0.1-1.32,0.07-1.96-0.31c-0.08-0.05-0.15-0.1-0.22-0.15
		c-0.07-0.05-0.14-0.11-0.21-0.17c-0.07-0.06-0.13-0.13-0.19-0.19c-0.06-0.07-0.12-0.14-0.17-0.21c-0.05-0.07-0.1-0.15-0.15-0.23
		c-0.05-0.08-0.09-0.16-0.13-0.24c-0.04-0.08-0.07-0.17-0.1-0.25c-0.03-0.09-0.06-0.17-0.08-0.26c-0.02-0.09-0.04-0.18-0.05-0.26
		c-0.01-0.09-0.02-0.18-0.02-0.27c0-0.09,0-0.18,0-0.27c0.01-0.09,0.01-0.18,0.03-0.27c0.01-0.09,0.03-0.18,0.05-0.26
		c0.02-0.09,0.05-0.17,0.08-0.26c0.03-0.08,0.07-0.17,0.11-0.25c0.04-0.08,0.08-0.16,0.13-0.24
		C115.27,122.43,115.94,122.01,116.74,121.82z M156.9,135.73l1.29,0c0.04,2.17-0.01,4.35-0.01,6.53l0,11.98l-1.29,0.01L156.9,135.73
		z M114.66,112.35c0.57-0.05,1.18,0.02,1.71,0.26c0.64,0.3,1.1,0.84,1.31,1.51c0.03,0.09,0.05,0.18,0.07,0.27s0.03,0.18,0.04,0.27
		s0.01,0.18,0.01,0.28c0,0.09,0,0.18-0.01,0.28c-0.01,0.09-0.02,0.18-0.04,0.27c-0.02,0.09-0.04,0.18-0.07,0.27
		c-0.03,0.09-0.06,0.17-0.09,0.26c-0.04,0.08-0.07,0.17-0.12,0.25c-0.45,0.84-1.14,1.25-2.02,1.52c-0.63,0.06-1.17,0.03-1.75-0.27
		c-0.04-0.02-0.08-0.04-0.12-0.07c-0.04-0.02-0.08-0.05-0.11-0.07c-0.04-0.02-0.07-0.05-0.11-0.08c-0.04-0.03-0.07-0.05-0.11-0.08
		c-0.03-0.03-0.07-0.06-0.1-0.09c-0.03-0.03-0.07-0.06-0.1-0.09c-0.03-0.03-0.06-0.06-0.09-0.1c-0.03-0.03-0.06-0.07-0.09-0.1
		c-0.03-0.03-0.06-0.07-0.08-0.11s-0.05-0.07-0.08-0.11c-0.02-0.04-0.05-0.08-0.07-0.11c-0.02-0.04-0.04-0.08-0.07-0.12
		c-0.02-0.04-0.04-0.08-0.06-0.12c-0.02-0.04-0.04-0.08-0.05-0.12c-0.02-0.04-0.03-0.08-0.05-0.13c-0.01-0.04-0.03-0.09-0.04-0.13
		c-0.01-0.05-0.03-0.09-0.04-0.14c-0.01-0.05-0.02-0.09-0.03-0.14s-0.02-0.09-0.02-0.14c-0.01-0.05-0.01-0.09-0.01-0.14
		c0-0.05-0.01-0.1-0.01-0.14c0-0.05,0-0.1,0-0.14c0-0.05,0-0.1,0.01-0.14c0-0.05,0.01-0.1,0.01-0.14c0.01-0.05,0.01-0.09,0.02-0.14
		c0.01-0.05,0.02-0.09,0.03-0.14c0.01-0.05,0.02-0.09,0.04-0.14c0.01-0.05,0.03-0.09,0.04-0.14c0.02-0.05,0.03-0.09,0.05-0.13
		c0.02-0.04,0.04-0.09,0.06-0.13c0.02-0.04,0.04-0.09,0.06-0.13c0.02-0.04,0.05-0.08,0.07-0.12
		C113.13,112.9,113.81,112.57,114.66,112.35z M168.15,33.6c0.98-0.22,2.98-0.27,4.03-0.29c0.15,0.05,0.3,0.09,0.45,0.15
		c0.08,0.37,0.11,0.9,0.28,1.23c0.15,0.31,0.51,0.42,0.64,0.76c-0.13-0.01-0.2-0.02-0.32-0.06l-0.05,0.11l1.7,0.51
		c0.35,0.06,0.7,0.15,1.02,0.32l0.07,0.21l-0.12,0.15c-0.11,0.07-0.22,0.13-0.32,0.21l-3.29,1.74c-0.82-0.79-1.79-1.42-2.62-2.22
		c-1.04-0.97-2.15-1.9-3.27-2.77C166.94,33.63,167.54,33.62,168.15,33.6z M233.54,121.9c0.59-0.02,1.19,0.09,1.71,0.37
		c0.63,0.35,1.1,0.92,1.3,1.62c0.2,0.73,0.06,1.59-0.34,2.23c-0.49,0.77-1.17,1.02-2.02,1.2c-0.67,0.04-1.27-0.03-1.86-0.38
		c-0.04-0.02-0.08-0.05-0.11-0.07c-0.04-0.03-0.07-0.05-0.11-0.08c-0.04-0.03-0.07-0.06-0.11-0.08c-0.03-0.03-0.07-0.06-0.1-0.09
		c-0.03-0.03-0.07-0.06-0.1-0.09c-0.03-0.03-0.06-0.07-0.09-0.1c-0.03-0.03-0.06-0.07-0.09-0.1c-0.03-0.04-0.06-0.07-0.08-0.11
		c-0.03-0.04-0.05-0.07-0.08-0.11c-0.02-0.04-0.05-0.08-0.07-0.12c-0.02-0.04-0.04-0.08-0.07-0.12c-0.02-0.04-0.04-0.08-0.06-0.12
		c-0.02-0.04-0.04-0.08-0.05-0.12c-0.02-0.04-0.03-0.08-0.05-0.13c-0.01-0.04-0.03-0.09-0.04-0.13c-0.01-0.04-0.02-0.09-0.03-0.13
		c-0.16-0.7-0.06-1.48,0.34-2.09C231.92,122.4,232.69,122.06,233.54,121.9z M116.98,82.56c0.65-0.04,1.21-0.02,1.8,0.31
		c0.68,0.37,1.2,1.05,1.41,1.8c0.02,0.09,0.04,0.17,0.05,0.26c0.01,0.09,0.02,0.17,0.03,0.26c0.01,0.09,0.01,0.18,0,0.26
		c0,0.09-0.01,0.18-0.02,0.26c-0.01,0.09-0.03,0.17-0.05,0.26c-0.02,0.09-0.05,0.17-0.07,0.25c-0.03,0.08-0.06,0.16-0.1,0.24
		c-0.04,0.08-0.08,0.16-0.12,0.23c-0.43,0.74-1.11,1.14-1.92,1.34c-0.68,0.03-1.27,0.01-1.87-0.33c-0.64-0.36-1.12-1.01-1.31-1.72
		c-0.19-0.71-0.05-1.5,0.31-2.14C115.55,83.11,116.17,82.78,116.98,82.56z M219.04,56.93c0.59-0.04,1.12-0.03,1.67,0.2
		c0.04,0.02,0.08,0.04,0.12,0.05c0.04,0.02,0.08,0.04,0.12,0.06c0.04,0.02,0.08,0.04,0.11,0.07c0.04,0.02,0.07,0.05,0.11,0.07
		c0.04,0.03,0.07,0.05,0.11,0.08c0.03,0.03,0.07,0.05,0.1,0.08c0.03,0.03,0.07,0.06,0.1,0.09c0.03,0.03,0.06,0.06,0.09,0.09
		c0.03,0.03,0.06,0.06,0.09,0.1c0.03,0.03,0.06,0.07,0.08,0.1c0.03,0.04,0.05,0.07,0.08,0.11c0.02,0.04,0.05,0.07,0.07,0.11
		s0.04,0.08,0.07,0.11c0.02,0.04,0.04,0.08,0.06,0.12c0.02,0.04,0.04,0.08,0.05,0.12c0.02,0.04,0.03,0.08,0.05,0.12
		c0.02,0.05,0.03,0.09,0.04,0.14c0.01,0.05,0.03,0.09,0.04,0.14c0.01,0.05,0.02,0.09,0.03,0.14c0.01,0.05,0.02,0.09,0.02,0.14
		c0.01,0.05,0.01,0.1,0.02,0.14c0,0.05,0.01,0.1,0.01,0.14c0,0.05,0,0.1,0,0.14c0,0.05,0,0.1-0.01,0.14c0,0.05-0.01,0.1-0.01,0.14
		c-0.01,0.05-0.01,0.1-0.02,0.14c-0.01,0.05-0.02,0.09-0.03,0.14c-0.01,0.05-0.02,0.09-0.03,0.14c-0.01,0.05-0.03,0.09-0.04,0.14
		c-0.01,0.05-0.03,0.09-0.05,0.14c-0.02,0.04-0.04,0.09-0.05,0.13c-0.02,0.04-0.04,0.09-0.06,0.13c-0.43,0.85-1.13,1.27-2,1.55
		c-0.62,0.04-1.16,0.02-1.72-0.28c-0.69-0.36-1.2-1.02-1.4-1.76c-0.19-0.68-0.14-1.44,0.21-2.06
		C217.48,57.53,218.2,57.15,219.04,56.93z M159.5,135.71l1.35,0l0.01,18.57l-1.4-0.01L159.5,135.71z M151.45,135.72l1.35,0
		l0.01,18.56l-1.39,0L151.45,135.72z M162.15,135.71l1.31,0l0.09,18.57l-1.37,0L162.15,135.71z M148.81,135.73l1.39,0l0,18.56
		l-1.4-0.01L148.81,135.73z M154.07,135.73l1.43,0l-0.01,18.54l-1.47,0L154.07,135.73z M176.22,36.89l0.05-0.19l0.09-0.02
		c0.46,0.49,0.67,1.17,1.07,1.71c0-0.02-0.01-0.04-0.01-0.07c-0.09-0.39-0.31-0.72-0.39-1.11l0.07-0.09
		c1.08,0.05,2.72,1.19,3.45,1.16c0.58,2.37,1.07,4.75,1.47,7.15c0.09,0.4,0.13,0.81,0.19,1.22c-0.95-0.64-4.31-4.17-4.68-4.31
		c-0.5-0.34-0.97-1.08-1.36-1.56C176.15,39.51,176.47,38.16,176.22,36.89z M185.08,33.62l0.96,0.01c-1.88,1.5-3.75,3.01-5.5,4.66
		c-0.74,0.04-2.37-1.11-3.45-1.16l-0.07,0.09c0.08,0.39,0.3,0.72,0.39,1.11c0,0.02,0.01,0.04,0.01,0.07
		c-0.4-0.53-0.62-1.22-1.07-1.71l-0.09,0.02l-0.05,0.19c0.25,1.27-0.07,2.62-0.06,3.9c-0.2,0.29-0.47,0.62-0.58,0.96
		c-0.11,0.04-0.2,0.08-0.29,0.16c-0.71,0.62-1.36,1.32-2.05,1.95c-0.97,0.89-1.99,1.72-3,2.57l0.77-3.12
		c0.31-1.57,0.75-3.12,1.2-4.66l3.29-1.74c0.1-0.08,0.21-0.14,0.32-0.21l0.12-0.15l0.29-0.11c0.25-0.04,0.45-0.09,0.68-0.18
		c1.69-0.77,4.41-1.49,6.24-1.99c0.53-0.15,1.21-0.18,1.71-0.38C185.03,33.81,185.02,33.77,185.08,33.62z M172.22,38.64l3.29-1.74
		c-0.09,0.36-3.52,5.94-3.96,6.57c-0.11,0.16-0.22,0.32-0.39,0.41c-0.03,0.02-0.06,0.02-0.09,0.03l-0.08-0.12
		c0.08-0.22,0.14-0.26,0.04-0.48c0-0.01-0.01-0.02-0.01-0.02C171.34,41.72,171.77,40.18,172.22,38.64z M176.35,25.97
		c0.98,2.37,1.99,4.77,2.8,7.21c1.93-0.05,4.02,0.21,5.94,0.45c-0.06,0.15-0.06,0.19-0.22,0.26c-0.5,0.21-1.17,0.24-1.71,0.38
		c-1.82,0.5-4.55,1.22-6.24,1.99c-0.23,0.09-0.44,0.14-0.68,0.18l-0.29,0.11l-0.07-0.21c-0.32-0.17-0.67-0.25-1.02-0.32l-1.7-0.51
		l0.05-0.11c0.12,0.04,0.19,0.05,0.32,0.06c-0.13-0.34-0.49-0.46-0.64-0.76c-0.16-0.33-0.19-0.86-0.28-1.23
		c-0.15-0.06-0.3-0.1-0.45-0.15c0.47-0.08,0.96-0.07,1.43-0.07c0.2-0.58,0.38-1.17,0.62-1.74c0.17-0.61,0.39-1.2,0.6-1.79
		c0.35-0.9,0.71-1.78,1.11-2.65C176.08,26.7,176.22,26.33,176.35,25.97z M174.23,31.5c0.03-0.03,0.06-0.07,0.09-0.1
		c0.04-0.04,0.07-0.09,0.1-0.13c0,0.03,0.01,0.05,0.01,0.08c0.19,0.89,0.89,1.71,1.21,2.57c0.28,0.76,0.27,1.56,0.49,2.32
		c-0.1,0.1-0.12,0.08-0.25,0.09c-0.32-0.17-0.67-0.25-1.02-0.32l-1.7-0.51l0.05-0.11c0.12,0.04,0.19,0.05,0.32,0.06
		c-0.13-0.34-0.49-0.46-0.64-0.76c-0.16-0.33-0.19-0.86-0.28-1.23c-0.15-0.06-0.3-0.1-0.45-0.15c0.47-0.08,0.96-0.07,1.43-0.07
		C173.81,32.66,173.99,32.06,174.23,31.5z M193.29,125.98c0.39-0.59,0.88-1.25,1.61-1.42c0.54-0.13,1.16,0.16,1.61,0.44
		c0.76,0.47,1.77,1.34,1.97,2.23c0.01,0.03,0.01,0.05,0.02,0.08c0.51-0.21,0.69-1.14,1.52-1.4c0.64-0.21,1.36,0.07,1.93,0.37
		c0.64,0.34,1.29,0.87,1.49,1.58c0.01,0.05,0.03,0.11,0.04,0.16c0.01,0.05,0.02,0.11,0.02,0.16c0,0.06,0,0.11,0,0.17
		c0,0.06-0.01,0.11-0.02,0.16c-0.01,0.05-0.02,0.11-0.03,0.16c-0.01,0.05-0.03,0.11-0.05,0.16c-0.02,0.05-0.04,0.1-0.07,0.15
		c-0.02,0.05-0.05,0.1-0.08,0.14c-0.77,1.21-2.56,1.55-3.85,1.84c-0.34,0.1-0.68,0.2-1.01,0.3c-0.29-0.03-0.56-0.07-0.84-0.16
		c-0.18,0.14-0.25,0.17-0.34,0.39c-0.27,0.06-0.51,0.05-0.78,0.03c-0.46-0.1-1.16-0.08-1.59,0.09c-1.38-0.26-3.92-0.54-4.78-1.76
		c-0.27-0.39-0.31-0.86-0.22-1.32c0.18-0.87,0.72-1.79,1.49-2.27C191.97,125.88,192.57,125.81,193.29,125.98z M173.4,137.99
		c-1.38-0.58-2.93-1.13-4.06-2.13c-0.4-0.35-0.77-0.78-0.78-1.33c-0.01-0.56,0.37-1.11,0.76-1.47c0.44-0.41,0.99-0.61,1.6-0.58
		c1.8,0.11,4.06,1.82,5.23,3.11c0.51-0.67,1.21-1.27,1.92-1.74c1.01-0.67,2.34-1.24,3.56-0.96c0.54,0.13,1.1,0.44,1.39,0.93
		c0.18,0.3,0.22,0.64,0.13,0.98c-0.4,1.41-2.78,2.4-3.96,3.1c-0.89,0.19-1.84-0.02-2.72,0.15l-0.87-0.04l-0.01,4.14l-6.28-0.02
		c-1.21,0-2.48-0.08-3.68,0.09l0-4.33C168.22,137.9,170.81,137.93,173.4,137.99z M166.96,142.88l8.64,0l0,17.28
		c-2.89-0.01-5.78-0.01-8.67,0.01C166.88,154.4,166.89,148.64,166.96,142.88z M177.71,49.62c0.23-0.17,0.4-0.28,0.7-0.23
		c0.49,0.08,1.02,0.43,1.29,0.84c0.03,0.05,0.06,0.09,0.08,0.14c0.03,0.05,0.05,0.1,0.07,0.15c0.02,0.05,0.04,0.1,0.05,0.16
		c0.01,0.05,0.03,0.11,0.03,0.16c0.01,0.05,0.01,0.11,0.02,0.17c0,0.06,0,0.11,0,0.17c0,0.06-0.01,0.11-0.02,0.17
		c-0.01,0.05-0.02,0.11-0.04,0.16c-0.01,0.05-0.03,0.11-0.05,0.16c-0.02,0.05-0.04,0.1-0.07,0.15c-0.02,0.05-0.05,0.1-0.08,0.15
		c-0.03,0.05-0.06,0.09-0.1,0.14c-0.03,0.04-0.07,0.09-0.11,0.13c-0.04,0.04-0.08,0.08-0.12,0.11c-0.04,0.04-0.09,0.07-0.13,0.1
		c-0.05,0.03-0.09,0.06-0.14,0.09c-0.39,0.21-0.84,0.24-1.26,0.09c-0.57-0.2-1.08-0.71-1.33-1.25c-0.03-0.08-0.03-0.07-0.06-0.16
		C177.11,50.79,177.46,50.38,177.71,49.62z M182.8,94.88c0.19-0.03,0.51,0.16,0.66,0.26c0.05,0.04,0.1,0.07,0.15,0.11
		c0.05,0.04,0.1,0.08,0.14,0.13c0.04,0.04,0.09,0.09,0.13,0.14c0.04,0.05,0.08,0.1,0.11,0.15c0.03,0.05,0.07,0.11,0.1,0.16
		c0.03,0.06,0.06,0.11,0.08,0.17c0.02,0.06,0.04,0.12,0.06,0.18c0.02,0.06,0.03,0.12,0.04,0.18c0.01,0.05,0.02,0.11,0.02,0.16
		c0,0.05,0.01,0.11,0.01,0.16c0,0.05,0,0.11-0.01,0.16c-0.01,0.05-0.02,0.11-0.03,0.16c-0.01,0.05-0.03,0.11-0.04,0.16
		c-0.02,0.05-0.04,0.1-0.06,0.15c-0.02,0.05-0.05,0.1-0.07,0.15c-0.03,0.05-0.06,0.09-0.09,0.14c-0.41,0.55-0.97,0.67-1.61,0.76
		c-0.44-0.06-0.78-0.18-1.11-0.48c-0.04-0.04-0.08-0.08-0.12-0.12c-0.04-0.04-0.07-0.08-0.1-0.13c-0.03-0.04-0.06-0.09-0.09-0.14
		c-0.03-0.05-0.05-0.1-0.08-0.15c-0.02-0.05-0.04-0.1-0.06-0.15c-0.02-0.05-0.03-0.11-0.04-0.16c-0.01-0.05-0.02-0.11-0.03-0.16
		c-0.01-0.05-0.01-0.11-0.01-0.16c0-0.06,0-0.13,0.01-0.19c0.01-0.06,0.01-0.12,0.02-0.19c0.01-0.06,0.03-0.12,0.04-0.18
		c0.02-0.06,0.04-0.12,0.06-0.18c0.02-0.06,0.05-0.11,0.08-0.17s0.06-0.11,0.1-0.16c0.04-0.05,0.07-0.1,0.11-0.15
		c0.04-0.05,0.08-0.09,0.13-0.14C181.75,94.94,182.21,94.88,182.8,94.88z M179.22,65.57c0.34,0,0.65,0.03,0.96,0.17
		c0.46,0.21,0.78,0.61,0.92,1.09c0.02,0.06,0.03,0.13,0.05,0.19c0.01,0.06,0.02,0.13,0.03,0.19c0.01,0.06,0.01,0.13,0.01,0.19
		c0,0.06,0,0.13-0.01,0.19c-0.01,0.06-0.02,0.13-0.03,0.19c-0.01,0.06-0.03,0.13-0.05,0.19c-0.02,0.06-0.04,0.12-0.07,0.18
		c-0.03,0.06-0.05,0.12-0.09,0.17c-0.32,0.55-0.76,0.77-1.36,0.94c-0.3,0-0.56-0.03-0.83-0.15c-0.48-0.21-0.84-0.59-1.02-1.09
		c-0.17-0.49-0.14-1.04,0.11-1.49C178.15,65.98,178.61,65.75,179.22,65.57z M162.15,107.03c0.25,0.33,0.43,0.78,0.57,1.17
		c0.48-0.15,0.96-0.28,1.44-0.41c-0.15,0.49-0.31,0.86-0.65,1.25c0.42,0.19,0.96,0.34,1.3,0.64l-0.02,0.13
		c-0.34,0.24-0.76,0.31-1.15,0.43c0.13,0.38,0.35,0.87,0.24,1.27l-0.15,0.08c-0.36-0.06-0.67-0.3-0.98-0.48l-0.34,0.75
		c-0.13,0.13-0.14,0.15-0.31,0.18c-0.3-0.22-0.48-0.68-0.67-1.01c-0.22,0.22-0.45,0.53-0.77,0.58l-0.1-0.12
		c-0.06-0.38,0.05-0.76,0.12-1.14c-0.41-0.13-0.79-0.32-1.17-0.5c0.37-0.22,0.76-0.42,1.14-0.63l-0.41-1.26
		c0.4,0.13,0.81,0.27,1.23,0.33c0.22-0.13,0.43-0.9,0.64-1.19L162.15,107.03z"/>
	<linearGradient id="SVGID_1_" gradientUnits="userSpaceOnUse" x1="172.6378" y1="35.9818" x2="173.2398" y2="38.114">
		<stop  offset="0" style="stop-color:#E3485D"/>
		<stop  offset="1" style="stop-color:#F87988"/>
	</linearGradient>
	<path class="st35" d="M169.6,36.42c0.11-0.02,0.21-0.04,0.32-0.05c0.57-0.05,1.13-0.13,1.7-0.17l-0.02-0.27
		c-0.24-0.19-0.56-0.18-0.86-0.19c0.94-0.13,1.86,0.03,2.78,0.21c0.3,0.06,0.68,0.18,0.98,0.18c0.16,0,0.23-0.04,0.37-0.12
		c0.35,0.06,0.7,0.15,1.02,0.32l0.07,0.21l-0.12,0.15c-0.11,0.07-0.22,0.13-0.32,0.21l-3.29,1.74
		C171.4,37.85,170.43,37.22,169.6,36.42z"/>
	<path class="st174" d="M176.22,36.89l0.05-0.19l0.09-0.02c0.46,0.49,0.67,1.17,1.07,1.71c0.53,1.23,3.47,6.55,4.56,7.03
		c0.01,0,0.02,0.01,0.03,0.01c0.09,0.4,0.13,0.81,0.19,1.22c-0.95-0.64-4.31-4.17-4.68-4.31c-0.5-0.34-0.97-1.08-1.36-1.56
		C176.15,39.51,176.47,38.16,176.22,36.89z M197.82,130.81c0.43-0.09,0.84-0.18,1.25-0.32l0.32,0.47c-0.34,0.1-0.68,0.2-1.01,0.3
		c-0.29-0.03-0.56-0.07-0.84-0.16L197.82,130.81z"/>
	<path class="st17" d="M125.69,64.76c0.59-0.03,1.17,0.1,1.67,0.4c0.08,0.05,0.16,0.1,0.23,0.16c0.07,0.06,0.15,0.11,0.21,0.18
		c0.07,0.06,0.13,0.13,0.2,0.2c0.06,0.07,0.12,0.14,0.18,0.22c0.06,0.07,0.11,0.15,0.15,0.23c0.05,0.08,0.09,0.16,0.13,0.25
		c0.04,0.08,0.07,0.17,0.11,0.26c0.03,0.09,0.06,0.18,0.08,0.27c0.18,0.7,0.08,1.45-0.3,2.07c-0.47,0.77-1.2,1.13-2.05,1.33
		c-0.62,0.03-1.16-0.03-1.71-0.36c-0.68-0.41-1.11-1.13-1.28-1.9c-0.16-0.71-0.07-1.46,0.33-2.08
		C124.13,65.23,124.85,64.92,125.69,64.76z M224.94,64.76c0.57-0.05,1.09-0.05,1.63,0.16c0.05,0.02,0.09,0.04,0.13,0.06
		c0.04,0.02,0.09,0.04,0.13,0.06c0.04,0.02,0.09,0.04,0.13,0.07c0.04,0.02,0.08,0.05,0.12,0.08c0.04,0.03,0.08,0.05,0.12,0.08
		c0.04,0.03,0.08,0.06,0.12,0.09c0.04,0.03,0.07,0.06,0.11,0.09c0.04,0.03,0.07,0.07,0.11,0.1c0.03,0.03,0.07,0.07,0.1,0.1
		c0.03,0.04,0.06,0.07,0.1,0.11c0.03,0.04,0.06,0.08,0.09,0.11c0.03,0.04,0.06,0.08,0.08,0.12s0.05,0.08,0.08,0.12
		c0.02,0.04,0.05,0.08,0.07,0.13c0.02,0.04,0.04,0.09,0.06,0.13c0.02,0.04,0.04,0.09,0.06,0.13c0.02,0.04,0.03,0.09,0.05,0.13
		c0.02,0.04,0.03,0.09,0.04,0.13c0.01,0.04,0.02,0.09,0.04,0.14c0.01,0.05,0.02,0.09,0.03,0.14c0.01,0.05,0.02,0.09,0.02,0.14
		c0.01,0.05,0.01,0.09,0.01,0.14s0.01,0.09,0.01,0.14c0,0.05,0,0.09,0,0.14c0,0.05,0,0.09-0.01,0.14c0,0.05-0.01,0.09-0.02,0.14
		c-0.01,0.05-0.01,0.09-0.02,0.14c-0.01,0.05-0.02,0.09-0.03,0.14c-0.01,0.05-0.02,0.09-0.04,0.14c-0.01,0.04-0.03,0.09-0.04,0.13
		c-0.02,0.04-0.03,0.09-0.05,0.13c-0.02,0.04-0.04,0.09-0.06,0.13c-0.41,0.84-1.15,1.23-1.99,1.52c-0.62,0.12-1.32,0.08-1.89-0.18
		c-0.07-0.03-0.15-0.07-0.22-0.11c-0.07-0.04-0.14-0.08-0.21-0.13c-0.07-0.05-0.13-0.1-0.19-0.15c-0.06-0.05-0.12-0.11-0.18-0.17
		c-0.06-0.06-0.11-0.12-0.16-0.19c-0.05-0.06-0.1-0.13-0.14-0.2c-0.04-0.07-0.08-0.14-0.12-0.21c-0.04-0.07-0.07-0.15-0.1-0.22
		c-0.02-0.05-0.03-0.09-0.05-0.14c-0.01-0.05-0.03-0.09-0.04-0.14c-0.01-0.05-0.02-0.09-0.03-0.14c-0.01-0.05-0.02-0.1-0.03-0.14
		c-0.01-0.05-0.01-0.1-0.02-0.14c-0.01-0.05-0.01-0.1-0.01-0.15c0-0.05,0-0.1-0.01-0.15c0-0.05,0-0.1,0-0.15c0-0.05,0-0.1,0.01-0.15
		c0-0.05,0.01-0.1,0.02-0.15c0.01-0.05,0.01-0.1,0.02-0.14c0.01-0.05,0.02-0.1,0.03-0.14c0.01-0.05,0.02-0.09,0.04-0.14
		c0.01-0.05,0.03-0.09,0.04-0.14c0.02-0.05,0.03-0.09,0.05-0.14c0.02-0.05,0.04-0.09,0.06-0.13
		C223.41,65.5,224.07,65.07,224.94,64.76z M202.86,43.38c0.69-0.04,1.29-0.03,1.92,0.34c0.66,0.38,1.19,1.08,1.37,1.82
		c0.16,0.7-0.02,1.44-0.4,2.05c-0.05,0.08-0.11,0.16-0.17,0.24c-0.06,0.08-0.12,0.15-0.19,0.23c-0.07,0.07-0.14,0.14-0.21,0.21
		s-0.15,0.13-0.23,0.19c-0.08,0.06-0.16,0.11-0.25,0.16c-0.08,0.05-0.17,0.1-0.26,0.14c-0.09,0.04-0.18,0.08-0.27,0.11
		c-0.09,0.03-0.19,0.06-0.28,0.08c-0.59,0.03-1.19-0.06-1.73-0.31c-0.72-0.34-1.27-0.93-1.51-1.69c-0.22-0.69-0.2-1.46,0.14-2.1
		C201.24,44,201.99,43.63,202.86,43.38z M138.65,49.04c0.54-0.04,1.17,0.08,1.65,0.33c0.65,0.33,1.11,0.93,1.32,1.63
		c0.22,0.75,0.07,1.54-0.32,2.21c-0.47,0.81-1.13,1.25-2.03,1.48c-0.69,0.03-1.22-0.02-1.83-0.4c-0.66-0.42-1.17-1.12-1.32-1.89
		c-0.15-0.77,0.06-1.62,0.53-2.25C137.15,49.45,137.83,49.19,138.65,49.04z M195.58,125.8c0.37,0.06,0.68,0.17,0.99,0.38
		c0.82,0.54,1.14,1.38,1.34,2.29c-0.28,0.49-0.53,0.99-0.78,1.5l-0.1-0.01c-0.59-1.21-1.61-2.13-2.2-3.32
		C195.07,126.32,195.31,126.07,195.58,125.8z M200.63,127.09c0.4,0.21,0.92,0.53,1.11,0.96c0.1,0.23,0.11,0.46,0.01,0.69
		c-0.38,0.86-1.85,1.42-2.67,1.74l0.32,0.47c-0.34,0.1-0.68,0.2-1.01,0.3c-0.29-0.03-0.56-0.07-0.84-0.16l0.28-0.29
		C198.64,129.58,199.5,128.05,200.63,127.09z M192.4,127c0.02,0,0.05,0,0.07,0.01c1.01,0.28,2.27,2.98,2.82,3.9l-1.15-0.18
		c-0.94-0.19-2.21-0.61-2.83-1.38c-0.19-0.24-0.31-0.52-0.26-0.83C191.14,127.86,191.9,127.37,192.4,127z M171.19,133.97
		c0.7,0.06,1.35,0.22,1.96,0.58c1.11,0.67,1.57,1.67,1.85,2.88c-0.26-0.06-0.51-0.15-0.76-0.23c-0.8-0.23-1.63-0.43-2.37-0.81
		c-0.63-0.32-1.46-0.96-1.59-1.7c-0.02-0.13-0.02-0.22,0.05-0.33C170.53,134.08,170.88,134.03,171.19,133.97z M180.24,134.19
		c0.24-0.01,0.54-0.04,0.76,0.02c0.17,0.05,0.34,0.13,0.42,0.3c0.1,0.2,0.04,0.43-0.04,0.62c-0.52,1.19-2.36,1.93-3.5,2.34
		c-0.42,0.1-0.83,0.17-1.26,0.22c0.07-0.68,0.11-1.31,0.52-1.89C177.79,134.85,179.15,134.38,180.24,134.19z M151.34,126.7
		c0.1,0.03,0.21,0.06,0.31,0.12c1.1,0.58,1.79,2.74,2.12,3.85l-1.04-0.27c-0.8-0.31-1.95-0.66-2.42-1.42
		c-0.17-0.28-0.24-0.61-0.15-0.93C150.31,127.53,150.9,126.96,151.34,126.7z M158.03,127.17c0.29-0.03,0.57-0.07,0.85,0.06
		c0.04,0.02,0.08,0.04,0.11,0.06c0.04,0.02,0.07,0.04,0.11,0.07c0.03,0.03,0.07,0.05,0.1,0.08c0.03,0.03,0.06,0.06,0.09,0.09
		c0.03,0.03,0.06,0.06,0.08,0.1c0.03,0.03,0.05,0.07,0.07,0.11s0.04,0.07,0.06,0.11c0.02,0.04,0.04,0.08,0.05,0.12
		c0.13,0.37,0.09,0.78-0.08,1.12c-0.44,0.89-1.64,1.15-2.5,1.46c-0.41,0.14-0.83,0.25-1.25,0.36
		C156.07,129.46,156.74,127.97,158.03,127.17z M166.55,88.15c0.27,0.1,0.49,0.42,0.73,0.59c0.74,0.52,0.75-0.33,1.29-0.42
		c0.06,0.04,0.1,0.07,0.15,0.13c0.11,0.16,0.12,0.3,0.11,0.49c0,0.04,0,0.07-0.01,0.11c-0.01,0.33,0.18,0.44,0.39,0.66l0.76,0.16
		c-0.31,0.31-0.61,0.56-0.97,0.8c0.02,0.16,0.05,0.32,0.08,0.48c0.06,0.33,0.16,0.62-0.03,0.92c-0.28,0.04-0.36-0.04-0.61-0.16
		c-0.15,0-0.31-0.01-0.45,0.01c-0.5,0.07-0.76,0.63-1.01,1.02c-0.09-0.35-0.17-0.88-0.48-1.1c-0.27-0.2-0.6-0.13-0.91-0.08l0.75-0.8
		c-0.36-0.34-0.66-0.69-0.95-1.1c0.23-0.09,0.65-0.19,0.82-0.36c0.18-0.17,0.23-0.35,0.26-0.58
		C166.46,88.66,166.5,88.41,166.55,88.15z M174.12,47.28c0.03-0.04,0.06-0.07,0.08-0.12c0.03-0.07,0.05-0.24,0.06-0.3
		c0.14-0.05,0.18-0.04,0.33-0.04c0.61,0.02,1.21-0.12,1.82-0.1l0.02,0.1l-0.05,0.07c-0.1,0.15-0.19,0.26-0.18,0.45
		c0.09,0.11,0.18,0.22,0.29,0.32c-0.48-0.04-0.96-0.11-1.43,0.04l-0.38,0.17c-0.19,0.04-0.34,0.05-0.53,0.04
		c-0.27-0.02-0.61-0.07-0.8-0.29l0.06-0.12C173.64,47.36,173.86,47.32,174.12,47.28z M166.41,56.15c0.37,0.28,0.57,0.69,0.8,1.08
		c0.29,0.06,0.61,0.1,0.88,0.2c0.2,0.07,0.27,0.13,0.35,0.32c-0.08,0.39-0.39,0.66-0.65,0.95l0.01,1.35l-1.26-0.5
		c-0.32,0.15-0.61,0.31-0.96,0.36c-0.1-0.03-0.19-0.02-0.24-0.12c-0.17-0.3,0.04-0.8,0.12-1.11c-0.38-0.37-0.79-0.71-1.16-1.09
		c0.52-0.12,1.01-0.19,1.53-0.25L166.41,56.15z M184.86,58.24c0.28,0.13,0.6,0.86,0.77,1.14c0.52,0.16,1.03,0.37,1.54,0.56
		c-0.33,0.38-0.71,0.72-1.04,1.11c0.03,0.3,0.09,0.64,0.06,0.94c-0.02,0.2-0.06,0.27-0.22,0.38c-0.37-0.02-0.74-0.27-1.08-0.43
		c-0.35,0.09-0.84,0.33-1.2,0.31c-0.21-0.01-0.23-0.05-0.35-0.21c-0.07-0.33,0.03-0.64,0.1-0.96c-0.25-0.31-0.63-0.69-0.8-1.03
		c-0.08-0.16-0.06-0.19-0.01-0.34c0.36-0.24,0.81-0.23,1.23-0.27C184.18,59.01,184.49,58.61,184.86,58.24z M175.05,47.69
		c0.47-0.14,0.95-0.08,1.43-0.04c0.55,0.3,0.91,0.56,1.1,1.2c0.07,0.25,0.1,0.51,0.14,0.77c-0.25,0.75-0.61,1.17-1.27,1.59
		c-0.13,0.04-0.25,0.06-0.38,0.07c-0.59,0.03-1.19-0.12-1.62-0.54c-0.37-0.36-0.55-0.85-0.53-1.37c0.02-0.6,0.34-1.12,0.78-1.51
		L175.05,47.69z M160.86,76.74c0.45-0.05,0.88-0.04,1.29,0.16c0.47,0.22,0.82,0.61,0.99,1.1c0.02,0.06,0.04,0.12,0.05,0.19
		c0.01,0.06,0.03,0.13,0.03,0.19c0.01,0.06,0.01,0.13,0.02,0.19c0,0.06,0,0.13,0,0.19c0,0.06-0.01,0.13-0.02,0.19
		c-0.01,0.06-0.02,0.13-0.04,0.19c-0.02,0.06-0.04,0.12-0.06,0.19c-0.02,0.06-0.05,0.12-0.08,0.18c-0.28,0.56-0.73,0.83-1.31,1.03
		c-0.34,0.01-0.7,0.03-1.03-0.09c-0.06-0.02-0.12-0.05-0.18-0.07c-0.06-0.03-0.12-0.06-0.17-0.09c-0.06-0.03-0.11-0.07-0.16-0.11
		c-0.05-0.04-0.1-0.08-0.15-0.12c-0.05-0.04-0.09-0.09-0.14-0.14c-0.04-0.05-0.08-0.1-0.12-0.15c-0.04-0.05-0.07-0.11-0.11-0.16
		c-0.03-0.06-0.06-0.11-0.09-0.17c-0.21-0.46-0.25-0.99-0.06-1.47C159.77,77.36,160.27,77,160.86,76.74z M172.93,106.26
		c0.33,0.01,0.72,0.03,1.02,0.17c0.52,0.24,0.92,0.68,1.1,1.23c0.16,0.49,0.13,1.05-0.12,1.51c-0.33,0.63-0.88,0.91-1.53,1.11
		c-0.48-0.01-0.86-0.02-1.28-0.28c-0.06-0.04-0.12-0.08-0.18-0.12c-0.06-0.04-0.11-0.09-0.17-0.14c-0.05-0.05-0.1-0.1-0.15-0.16
		c-0.05-0.05-0.09-0.11-0.13-0.17c-0.04-0.06-0.08-0.12-0.12-0.18c-0.04-0.06-0.07-0.13-0.1-0.19c-0.03-0.07-0.05-0.13-0.08-0.2
		c-0.02-0.07-0.04-0.14-0.05-0.21c-0.01-0.07-0.02-0.14-0.03-0.2c-0.01-0.07-0.01-0.14-0.01-0.21c0-0.07,0.01-0.14,0.01-0.21
		c0.01-0.07,0.02-0.14,0.03-0.2c0.02-0.07,0.03-0.13,0.05-0.2c0.02-0.07,0.05-0.13,0.08-0.19c0.03-0.06,0.06-0.12,0.09-0.18
		c0.03-0.06,0.07-0.12,0.11-0.17C171.88,106.55,172.33,106.35,172.93,106.26z"/>
</g>
</svg>
