<?xml version="1.0" encoding="utf-8"?>
<!-- Generator: Adobe Illustrator 27.8.1, SVG Export Plug-In . SVG Version: 6.00 Build 0)  -->
<svg version="1.1" id="Layer_1" xmlns="http://www.w3.org/2000/svg" xmlns:xlink="http://www.w3.org/1999/xlink" x="0px" y="0px"
	 viewBox="0 0 350 230" style="enable-background:new 0 0 350 230;" xml:space="preserve">
<style type="text/css">
	.st0{fill:#EAE4B0;}
	.st1{fill:#332700;}
	.st2{fill:#EBEBFF;}
	.st3{fill:#FBFFAE;}
	.st4{fill:#B0FFD5;}
	.st5{fill:#B3FFFB;}
	.st6{fill:#FFFAB6;}
	.st7{fill:#2B2700;}
	.st8{fill:#FFFFB8;}
	.st9{fill:#040028;}
	.st10{fill:#260000;}
	.st11{opacity:0.5;fill:#848484;}
	.st12{fill:#2B2401;}
	.st13{fill:#FF7C6C;}
	.st14{fill:#CC2D21;}
	.st15{fill:#F75C4C;}
	.st16{fill:#FFE5CF;}
	.st17{fill:#FFFFFF;}
	.st18{fill:#CFDAE3;}
	.st19{fill:#006C11;}
	.st20{fill:#A11E10;}
	.st21{fill:#EDBC93;}
	.st22{fill:#898989;}
	.st23{fill:#2B1536;}
	.st24{fill:#15352A;}
	.st25{fill:#E4EAF5;}
	.st26{fill:#F2F5F5;}
	.st27{fill:#D6363D;}
	.st28{fill:#600000;fill-opacity:0.5098;}
	.st29{fill:#F2CCA3;}
	.st30{fill:#D28F5F;}
	.st31{fill:#FF0000;fill-opacity:0.5098;}
	.st32{fill:#C7D5F5;}
	.st33{fill:#F3DBC0;}
	.st34{fill:#F58086;}
	.st35{fill:url(#SVGID_1_);}
	.st36{fill:#FCC7A2;}
	.st37{fill:url(#SVGID_00000003794888982737914300000002356862008987611545_);}
	.st38{fill:#E20328;}
	.st39{fill:url(#SVGID_00000116927202909143986590000001901061907345460368_);}
	.st40{fill:#F4BDA8;}
	.st41{fill:#DCF7F6;}
	.st42{fill:url(#SVGID_00000045598246035109277520000015531090056609421192_);}
	.st43{fill:url(#SVGID_00000092417346035191781040000007752991310383427228_);}
	.st44{fill:url(#SVGID_00000146481625043600352830000000918289799988546974_);}
	.st45{fill:url(#SVGID_00000119818404979563350720000010057528892083284151_);}
	.st46{fill:url(#SVGID_00000029749866811507899630000001371765806361708417_);}
	.st47{fill:url(#SVGID_00000028286074368963153900000006067028414392441004_);}
	.st48{fill:url(#SVGID_00000109751790380034360210000000850117046796848805_);}
	.st49{fill:url(#SVGID_00000023281286094651064290000000778562261459605650_);}
	.st50{fill:url(#SVGID_00000107565421617640132860000016502797176313720992_);}
	.st51{fill:#E2B881;}
	.st52{fill:#FFFFFF;stroke:#000000;stroke-width:0.05;stroke-miterlimit:10;}
	.st53{fill:url(#SVGID_00000183964453396593047020000013042677504017840815_);}
	.st54{fill:url(#SVGID_00000045580423280347084790000003197777755180493752_);}
	.st55{fill:#0B9ED8;}
	.st56{fill:#FCDFB0;}
	.st57{fill:#FF0013;}
	.st58{fill:url(#SVGID_00000115502008923730211690000005065892290534505883_);}
	.st59{fill:#0A50FF;}
	.st60{fill:#FFB773;}
	.st61{fill-rule:evenodd;clip-rule:evenodd;fill:url(#SVGID_00000039130265401041369260000008229435554710894763_);}
	.st62{fill:#FF334F;}
	.st63{fill:#FFAB66;}
	.st64{fill:#FF8B41;}
	.st65{fill:#BB386B;}
	.st66{fill:#CBCBCB;}
	.st67{fill:#D37250;}
	.st68{fill:#D06D2E;}
	.st69{fill-rule:evenodd;clip-rule:evenodd;fill:#FFFFFF;}
	.st70{fill:#CAFFEC;}
	.st71{fill:#FFF6B3;}
	.st72{fill:#FFFBD2;}
	.st73{fill:#EFFFD2;}
	.st74{fill:#A01D21;}
	.st75{fill:#00261B;}
	.st76{fill:#F4FFB6;}
	.st77{fill:url(#SVGID_00000148648468339943831530000007532127189150074249_);}
	.st78{fill:#002340;}
	.st79{fill:url(#SVGID_00000004521309054280197050000014303253012780123266_);}
	.st80{fill:url(#SVGID_00000051344286885025667270000012143023577589603504_);}
	.st81{fill:#D91215;}
	.st82{fill:#98BBCE;}
	.st83{fill:#00A70C;}
	.st84{fill:#C47E2A;}
	.st85{fill-rule:evenodd;clip-rule:evenodd;fill:#1F1D1D;}
	.st86{fill-rule:evenodd;clip-rule:evenodd;fill:#2B2700;}
	.st87{fill-rule:evenodd;clip-rule:evenodd;fill:#FF1943;}
	.st88{fill:url(#SVGID_00000102543974624665164130000007957038781042281094_);}
	.st89{fill:url(#SVGID_00000116949531664299958350000007633757633539146635_);}
	.st90{fill:url(#SVGID_00000040555837977908183750000009743287940857615264_);}
	.st91{fill:url(#SVGID_00000078767785150199440610000003687710245087733902_);}
	.st92{fill:url(#SVGID_00000124864312725371953440000001652828286014470816_);}
	.st93{fill:url(#SVGID_00000108271326848852167310000013058376152550273415_);}
	.st94{fill:#E31E26;}
	.st95{fill:#811517;}
	.st96{fill:url(#SVGID_00000144328547258954499730000009340406104514220440_);}
	.st97{fill:url(#SVGID_00000182529059709153850940000007747498778070577810_);}
	.st98{fill:url(#SVGID_00000150801732480404021070000012777840067489643143_);}
	.st99{fill:#B47920;}
	.st100{fill:#089E32;}
	.st101{fill:#FFE30B;}
	.st102{fill-rule:evenodd;clip-rule:evenodd;fill:#EE1D24;}
	.st103{fill:#17377D;}
	.st104{filter:url(#Adobe_OpacityMaskFilter);}
	.st105{opacity:0.28;mask:url(#SVGID_00000109739077886801951680000005004711848870707604_);}
	.st106{fill:#3A3132;}
	.st107{fill:url(#SVGID_00000098194573762207212700000006997656058509947822_);}
	.st108{filter:url(#Adobe_OpacityMaskFilter_00000011754171464203618520000005556350253514465448_);}
	.st109{opacity:0.28;mask:url(#SVGID_00000105425963826939196370000009210137496109327006_);}
	.st110{fill:#102A63;}
	.st111{filter:url(#Adobe_OpacityMaskFilter_00000146462053572260711560000015206083956805740961_);}
	.st112{opacity:0.28;mask:url(#SVGID_00000003096278239586913120000004914697296526388144_);}
	.st113{fill:#0E2458;}
	.st114{filter:url(#Adobe_OpacityMaskFilter_00000093140118656171559510000005481616813841843883_);}
	.st115{opacity:0.25;mask:url(#SVGID_00000078020071884389864530000008410523289548411578_);}
	.st116{fill:url(#SVGID_00000123439924350950632870000005371670894264077441_);}
	.st117{fill:#00BEC6;}
	.st118{fill:url(#SVGID_00000087375308676847849730000000328832036435595653_);}
	.st119{fill:url(#SVGID_00000160156138179329779420000005994180432381876899_);stroke:#FFFFFF;stroke-miterlimit:10;}
	
		.st120{fill:url(#SVGID_00000000928900937826192570000017260297707253080994_);stroke:#FFFFFF;stroke-width:0.5;stroke-miterlimit:10;}
	.st121{fill:url(#SVGID_00000070805391295704550880000013041841384805460098_);}
	.st122{fill:#F9D075;}
	.st123{fill:#FFEF92;}
	.st124{fill:url(#SVGID_00000136401546473151844930000006395672915996930463_);}
	.st125{fill:url(#SVGID_00000147935418956193440160000002707734747743634818_);}
	.st126{fill:url(#SVGID_00000153681532807448902640000002862535873274356119_);}
	.st127{fill:#09890F;}
	.st128{fill:#A9CE4D;}
	.st129{fill:#FF9501;}
	.st130{fill:#AA1523;}
	.st131{fill:#006B52;}
	.st132{fill:#EEC200;}
	.st133{fill:#9F4641;}
	.st134{fill:url(#SVGID_00000168111910416591742750000014408121020857209476_);stroke:#FFFFFF;stroke-miterlimit:10;}
	.st135{fill:none;stroke:#FFFFFF;stroke-width:1.7883;stroke-miterlimit:10;}
	.st136{fill:none;stroke:#BFDADD;stroke-width:2;stroke-linecap:round;stroke-linejoin:round;stroke-miterlimit:10;}
	.st137{fill:none;stroke:#016D39;stroke-width:2;stroke-linecap:round;stroke-linejoin:round;stroke-miterlimit:10;}
	.st138{fill:none;stroke:#00BFAD;stroke-width:2;stroke-linecap:round;stroke-linejoin:round;stroke-miterlimit:10;}
	.st139{fill:#12162E;}
	.st140{fill:none;stroke:#12162E;stroke-miterlimit:10;}
	.st141{fill:#016D39;}
	.st142{fill:#083F24;}
	.st143{fill:#FF5635;}
	.st144{fill:#C63724;}
	.st145{fill:#FFBE00;}
	.st146{fill:#00BFAD;}
	.st147{fill:#D1D3D3;}
	.st148{fill:#9A4641;}
	.st149{fill:url(#SVGID_00000088837180328488222460000000510581087900540306_);}
	.st150{fill:url(#SVGID_00000065049459030609792870000012502475913200096933_);stroke:#FFFFFF;stroke-miterlimit:10;}
	.st151{fill:#F75D58;}
	.st152{fill:url(#SVGID_00000084523536516684625970000011674652167212985265_);}
	.st153{opacity:0.42;fill:#FFFFFF;}
	.st154{fill:#229200;}
	.st155{fill:#FF0000;}
	.st156{fill:#0C1F26;}
	.st157{fill:#E43724;}
	.st158{fill:#6B2422;}
	.st159{fill:#FBF1E5;}
	.st160{fill:#FAF8F0;}
	.st161{fill:#EEEEED;}
	.st162{fill:#DBDEDD;}
	.st163{fill:#A6453D;}
	.st164{fill:#E3E4E7;}
	.st165{fill:#D2301D;}
	.st166{fill:#E2D7D0;}
	.st167{fill:#FCF8EF;}
	.st168{fill:#C42C1E;}
	.st169{fill:#0C232B;}
	.st170{fill:#0D3B6E;}
	.st171{fill:#139AEC;}
	.st172{fill:#F52A3C;}
	.st173{fill:url(#SVGID_00000127030889615665955360000014171024897025097113_);}
	.st174{fill:#890924;}
	.st175{fill:url(#SVGID_00000008126648300566734640000001785722815289610917_);}
	.st176{fill-rule:evenodd;clip-rule:evenodd;fill:url(#SVGID_00000137099859563231441610000008674979502003779756_);}
	.st177{fill-rule:evenodd;clip-rule:evenodd;fill:#CE1515;}
	.st178{fill-rule:evenodd;clip-rule:evenodd;fill:#FFFBDD;}
	.st179{fill-rule:evenodd;clip-rule:evenodd;fill:#06542B;}
	.st180{fill-rule:evenodd;clip-rule:evenodd;fill:#AA1111;}
	.st181{fill:#005C01;}
	.st182{fill:#F5AB35;}
	.st183{fill-rule:evenodd;clip-rule:evenodd;fill:#215605;}
	.st184{fill:#215605;}
	.st185{fill-rule:evenodd;clip-rule:evenodd;fill:url(#SVGID_00000047768453005584080380000013011033071286345657_);}
	.st186{fill:url(#SVGID_00000040549042519243094580000018080953155932941993_);}
	.st187{fill:url(#SVGID_00000175318442400240309290000017007242338948199565_);}
	.st188{fill:url(#SVGID_00000142176908847108408640000009456062989349546428_);}
	.st189{fill:url(#SVGID_00000026146896338497374330000003152498474379063728_);}
	.st190{fill:url(#SVGID_00000178897906802125336120000009132161998110089121_);}
	.st191{fill:url(#SVGID_00000141434905373972426120000017957070987468872579_);}
	.st192{fill:url(#SVGID_00000012462557280321769920000007316477579706263184_);}
	.st193{fill:url(#SVGID_00000147939765559863663290000006057240441652462268_);}
	.st194{fill:url(#SVGID_00000096032328053539901300000003021750938973595304_);}
	.st195{fill:#B6FFFF;}
	.st196{fill:url(#SVGID_00000107554397754863761550000007855196723205519756_);}
	.st197{fill:url(#SVGID_00000078731228297617713580000017135129436077437321_);}
	.st198{fill:url(#SVGID_00000044887523894095952620000001128535603855911554_);}
	.st199{fill:url(#SVGID_00000160896730206378033730000012138985145321134526_);}
	.st200{fill:url(#SVGID_00000022559814491505585940000016597735333326400679_);}
	.st201{fill:url(#SVGID_00000067232627837380492010000006298201539299923346_);}
	.st202{fill:url(#SVGID_00000030480205374260370700000000369802174401505155_);}
	.st203{fill:url(#SVGID_00000163035255204846374370000012484685534251598518_);}
	.st204{fill:url(#SVGID_00000003803142722782010050000013625208847061097613_);}
	.st205{fill:url(#SVGID_00000055676308190863632890000014141771514252827022_);}
	.st206{fill:url(#SVGID_00000074423311465595657570000002853011954588457607_);}
	.st207{fill:url(#SVGID_00000078732815586594756170000015402227991659765167_);}
	.st208{fill:url(#SVGID_00000037657796644581692480000011592598636878023600_);}
	.st209{fill:url(#SVGID_00000173141756994741252260000007484452458124559008_);}
	.st210{fill:url(#SVGID_00000150805548815435767420000008027124748325599919_);}
	.st211{fill:url(#SVGID_00000058570373450489855320000015204855746698872234_);}
	.st212{fill:#CE4A43;}
	.st213{fill:url(#SVGID_00000131329383932288492660000010006646796676870288_);}
	.st214{fill:#CE4A43;stroke:#FFFFFF;stroke-miterlimit:10;}
	.st215{fill:none;stroke:#CE4A43;stroke-miterlimit:10;}
</style>
<g>
	<path class="st69" d="M224.54,130.83c0.46-0.23,0.21-0.9-0.74-2.02l-0.55,0.04c0.52-0.44,0.48-0.78-0.02-0.86
		c-0.5,0.02-0.99,0.04-1.49,0.02c-0.82-0.13-1.49-0.38-1.98-0.71c-0.1-0.02-0.13-0.1-0.13-0.19c0-0.08,0.04-0.15,0.11-0.19
		c0.1-0.04,0.17-0.02,0.23,0.04c0.61,0.4,1.16,0.63,1.66,0.69c-0.31-0.27-0.55-0.63-0.67-1.03c-0.02-0.06,0-0.11,0.04-0.15
		c0.04-0.04,0.1-0.06,0.15-0.06c0.06,0.02,0.11,0.08,0.11,0.13c0.25,0.63,0.55,0.99,0.92,1.05c0.17,0.02,0.34,0.02,0.52-0.02
		c-0.25-0.32-0.38-0.72-0.4-1.13c-0.02-0.06,0-0.11,0.04-0.15c0.06-0.04,0.11-0.04,0.15-0.02c0.06,0.04,0.08,0.1,0.08,0.15
		c0.04,0.59,0.38,1.03,1.01,1.32c0.1,0.02,0.19,0,0.31-0.02c0.27-0.13,0.48-0.38,0.55-0.67c-0.04-0.15-0.13-0.29-0.27-0.34
		c-0.04-0.04-0.08-0.08-0.08-0.13c0.02-0.04,0.04-0.1,0.1-0.11c0.04-0.02,0.1,0,0.13,0.04c0.15,0.11,0.29,0.29,0.36,0.46
		c0.02,0.04,0.06,0.06,0.1,0.04c0.02,0,0.06-0.02,0.08-0.04c0.04-0.36-0.11-0.72-0.4-0.95c-0.04-0.04-0.06-0.1-0.06-0.15
		c0.02-0.06,0.08-0.11,0.13-0.11c0.06-0.02,0.11,0.02,0.13,0.06c0.31,0.36,0.46,0.82,0.42,1.3c0.34-0.06,0.65-0.31,0.78-0.65
		c0.02-0.17-0.08-0.36-0.23-0.46c-0.06-0.02-0.08-0.1-0.06-0.15c0-0.06,0.06-0.11,0.11-0.11c0.08,0,0.13,0.02,0.15,0.08
		c0.21,0.25,0.27,0.59,0.15,0.9c-0.1,0.31-0.36,0.53-0.67,0.59c-0.71,0.19-1.14,0.42-1.32,0.65c0.23,0.06,0.42,0.08,0.55,0.08
		c0.78-0.13,1.16-0.1,1.16,0.11c-0.1,0.19-0.32,0.38-0.67,0.59c0.06,0.27,0.21,0.5,0.48,0.71c0.63,0.19,0.97,0.63,1.03,1.35
		c0.02,0.4,0.15,0.63,0.42,0.71l1.11-0.08c0.25,0.06,0.31,0.36,0.13,0.92c-0.44,0.57-1.01,1.05-1.76,1.47
		c-0.02-0.27,0-0.46,0.06-0.57c0.5-0.31,0.8-0.61,0.95-0.92c0.08-0.31-0.04-0.38-0.36-0.25c-0.25,0.27-0.67,0.38-1.26,0.34
		c-0.13,0-0.29,0.04-0.44,0.1c-0.61,0.32-1.34,0.32-2.16-0.04c-0.19-0.06-0.4-0.04-0.55,0.08c-0.23,0.25-0.55,0.38-0.97,0.42
		l-1.2,0.1c-0.17,0-0.31,0.02-0.42,0.1l-1.39,1.07c-0.1,0.04-0.19,0.02-0.27-0.06c-0.08-0.06-0.1-0.15-0.06-0.25
		c0.15-0.27,0.42-0.46,0.72-0.53c0.13-0.02,0.25-0.06,0.32-0.1c0.25-0.13,0.42-0.31,0.52-0.48c0.06-0.13,0.19-0.21,0.4-0.25
		c0.31-0.02,0.48-0.04,0.48-0.04c0.13-0.15,0.27-0.25,0.38-0.29c0.31-0.27,0.46-0.44,0.44-0.55c0.06-0.15-0.04-0.31-0.27-0.48
		c-0.1-0.06-0.13-0.17-0.08-0.25c0.04-0.1,0.15-0.13,0.25-0.1c0.21,0.13,0.4,0.17,0.61,0.13L224.54,130.83L224.54,130.83z
		 M208.75,132.68l-2.35,0.36c-0.19,0.06-0.4,0.02-0.63-0.1c-0.1-0.02-0.19,0.02-0.23,0.11c-0.04,0.11,0,0.21,0.1,0.25
		c0.25,0.17,0.36,0.32,0.31,0.46c0.04,0.11-0.1,0.31-0.36,0.61c-0.11,0.04-0.25,0.13-0.36,0.31c-0.02,0-0.17,0.02-0.48,0.08
		c-0.21,0.06-0.32,0.15-0.36,0.27c-0.1,0.19-0.25,0.36-0.48,0.53c-0.08,0.04-0.19,0.08-0.32,0.11c-0.29,0.11-0.53,0.32-0.67,0.59
		c-0.02,0.1,0,0.19,0.08,0.27c0.08,0.06,0.19,0.06,0.27,0.02l1.3-1.18c0.11-0.08,0.25-0.11,0.4-0.11l1.2-0.21
		c0.4-0.08,0.72-0.25,0.93-0.5c0.13-0.13,0.34-0.17,0.52-0.11c0.86,0.27,1.58,0.23,2.16-0.15c0.13-0.06,0.29-0.11,0.44-0.13
		c0.59,0,0.99-0.15,1.2-0.44c0.31-0.17,0.44-0.1,0.38,0.23c-0.11,0.31-0.4,0.63-0.88,0.99c-0.02,0.11-0.02,0.31,0.02,0.57
		c0.69-0.48,1.22-1.03,1.6-1.62c0.11-0.57,0.04-0.88-0.21-0.92l-1.11,0.17c-0.27-0.04-0.42-0.27-0.46-0.67
		c-0.13-0.71-0.52-1.13-1.16-1.26c-0.27-0.19-0.44-0.42-0.52-0.69c0.32-0.23,0.52-0.44,0.59-0.63c-0.02-0.21-0.4-0.23-1.14-0.02
		c-0.15,0-0.34,0-0.57-0.04c0.15-0.25,0.57-0.5,1.26-0.74c0.31-0.1,0.53-0.34,0.61-0.67c0.08-0.31-0.02-0.63-0.23-0.86
		c-0.04-0.06-0.1-0.1-0.17-0.08c-0.06,0.02-0.1,0.06-0.11,0.13c0,0.06,0.04,0.11,0.1,0.13c0.15,0.1,0.25,0.27,0.25,0.44
		c-0.08,0.36-0.36,0.63-0.72,0.71c0.02-0.46-0.17-0.92-0.52-1.24c-0.02-0.06-0.1-0.08-0.15-0.06c-0.06,0.02-0.1,0.06-0.1,0.11
		c-0.02,0.06,0.02,0.11,0.06,0.15c0.31,0.21,0.5,0.55,0.5,0.92c-0.02,0.04-0.06,0.06-0.1,0.06c-0.04,0.02-0.06,0-0.1-0.02
		c-0.08-0.19-0.23-0.34-0.4-0.44c-0.04-0.04-0.1-0.04-0.13-0.02c-0.04,0.02-0.08,0.08-0.08,0.11c0,0.06,0.04,0.1,0.08,0.11
		c0.15,0.06,0.25,0.17,0.31,0.32c-0.04,0.31-0.23,0.57-0.5,0.72c-0.1,0.04-0.19,0.04-0.31,0.06c-0.65-0.25-1.03-0.67-1.11-1.26
		c0-0.06-0.04-0.1-0.08-0.13c-0.06-0.02-0.11-0.02-0.17,0.04c-0.04,0.04-0.06,0.1-0.04,0.15c0.06,0.4,0.25,0.78,0.52,1.09
		c-0.17,0.04-0.32,0.06-0.5,0.06c-0.38-0.02-0.72-0.36-1.01-0.97c-0.02-0.06-0.08-0.1-0.13-0.11c-0.06-0.02-0.11,0.02-0.15,0.06
		c-0.04,0.06-0.04,0.11-0.02,0.17c0.15,0.38,0.42,0.72,0.76,0.97c-0.5-0.04-1.07-0.21-1.7-0.55c-0.08-0.06-0.17-0.06-0.25-0.02
		c-0.08,0.04-0.11,0.11-0.1,0.19c0,0.1,0.06,0.17,0.13,0.19c0.53,0.29,1.22,0.46,2.04,0.53c0.5-0.02,0.99-0.08,1.49-0.13
		c0.48,0.02,0.57,0.36,0.1,0.84l0.53-0.08C208.86,131.78,209.17,132.43,208.75,132.68L208.75,132.68z M196.52,136.51l-2.12,1.07
		c-0.15,0.1-0.36,0.13-0.61,0.1c-0.1,0-0.19,0.08-0.19,0.17c0,0.11,0.08,0.19,0.17,0.21c0.29,0.08,0.42,0.19,0.44,0.34
		c0.06,0.1,0,0.32-0.19,0.69c-0.08,0.08-0.17,0.21-0.25,0.4c0,0-0.13,0.08-0.42,0.23c-0.17,0.11-0.27,0.23-0.27,0.36
		c-0.02,0.21-0.11,0.42-0.29,0.65c-0.06,0.06-0.13,0.13-0.27,0.21c-0.25,0.19-0.4,0.46-0.46,0.76c0,0.11,0.08,0.19,0.15,0.23
		c0.1,0.04,0.21,0,0.27-0.06l0.88-1.53c0.08-0.11,0.19-0.19,0.34-0.25l1.07-0.55c0.36-0.21,0.61-0.46,0.74-0.74
		c0.1-0.17,0.27-0.29,0.46-0.29c0.9,0,1.56-0.27,2-0.8c0.11-0.11,0.23-0.19,0.36-0.27c0.57-0.17,0.9-0.44,1.01-0.8
		c0.25-0.25,0.4-0.21,0.44,0.11c-0.02,0.32-0.19,0.72-0.52,1.2c0,0.13,0.06,0.31,0.17,0.55c0.52-0.67,0.86-1.35,1.03-2.02
		c-0.06-0.59-0.21-0.86-0.48-0.82l-0.99,0.5c-0.27,0.06-0.48-0.11-0.65-0.5c-0.32-0.63-0.82-0.92-1.49-0.84
		c-0.32-0.08-0.55-0.25-0.71-0.48c0.23-0.32,0.36-0.57,0.36-0.8c-0.08-0.19-0.44-0.08-1.09,0.34c-0.13,0.06-0.32,0.1-0.55,0.15
		c0.08-0.29,0.4-0.67,0.95-1.11c0.27-0.19,0.42-0.5,0.4-0.82c-0.04-0.32-0.21-0.61-0.5-0.74c-0.06-0.06-0.11-0.06-0.17-0.04
		c-0.06,0.04-0.1,0.1-0.08,0.17c0.02,0.06,0.06,0.1,0.13,0.11c0.17,0.04,0.32,0.15,0.38,0.32c0.02,0.36-0.17,0.71-0.48,0.9
		c-0.13-0.44-0.46-0.82-0.88-1.03c-0.06-0.04-0.11-0.04-0.17,0c-0.04,0.04-0.08,0.1-0.06,0.15c0,0.06,0.06,0.1,0.11,0.11
		c0.34,0.1,0.63,0.38,0.74,0.72c-0.02,0.04-0.04,0.08-0.06,0.08c-0.04,0.02-0.08,0.02-0.11,0.02c-0.13-0.15-0.31-0.27-0.52-0.31
		c-0.04-0.02-0.1,0-0.13,0.02c-0.04,0.04-0.04,0.1-0.02,0.13c0,0.06,0.06,0.1,0.1,0.1c0.15,0.02,0.29,0.1,0.38,0.21
		c0.06,0.31-0.04,0.61-0.25,0.84c-0.08,0.06-0.17,0.11-0.27,0.15c-0.71-0.04-1.18-0.32-1.45-0.84c0-0.06-0.06-0.11-0.11-0.11
		c-0.06,0-0.11,0.02-0.13,0.08c-0.04,0.04-0.04,0.11,0,0.15c0.19,0.36,0.48,0.69,0.82,0.9c-0.13,0.08-0.29,0.15-0.46,0.21
		c-0.36,0.08-0.78-0.13-1.26-0.63c-0.04-0.06-0.1-0.08-0.15-0.08c-0.06,0.02-0.1,0.06-0.13,0.11c-0.02,0.06,0,0.11,0.04,0.15
		c0.27,0.32,0.63,0.57,1.03,0.71c-0.5,0.11-1.09,0.11-1.79,0c-0.08-0.04-0.17-0.02-0.23,0.04c-0.06,0.06-0.08,0.15-0.06,0.23
		c0.04,0.08,0.11,0.13,0.21,0.13c0.59,0.11,1.28,0.08,2.1-0.11c0.46-0.17,0.92-0.38,1.37-0.59c0.48-0.11,0.65,0.17,0.34,0.78
		l0.5-0.23C196.37,135.6,196.86,136.13,196.52,136.51L196.52,136.51z M170.69,140.48c-0.17,0.55-0.69,0.93-1.26,0.93
		c-0.59,0-1.11-0.36-1.3-0.9c-0.29-0.71-0.13-1.51,0.36-2.06c0.36-0.38,0.92-0.55,1.43-0.44c0.72,0.06,1.35,0.72,1.87,1.98
		l0.36,1.01c0.42,0.42,1.26,0.42,2.56,0.06c2.02-0.59,3.43-0.29,4.22,0.93c1.14,1.43,2.14,1.93,3,1.47l3.57-1.09
		c0.46-0.27,0.71-0.82,0.59-1.34c-0.11-0.53-0.57-0.93-1.11-0.99c-1.64,0.04-2.61-0.4-2.92-1.35c-0.36-0.97-0.04-2.06,0.82-2.65
		c0.4-0.23,0.9-0.29,1.35-0.17c0.34,0.08,0.67,0.25,0.92,0.52c0.29,0.29,0.44,0.69,0.4,1.09c-0.02,0.4-0.23,0.78-0.53,1.03
		c-1.05,0.46-1.66,0.29-1.85-0.57c-0.06-0.15-0.02-0.32,0.1-0.44c0.1-0.11,0.27-0.17,0.42-0.13c0.17,0.04,0.29,0.15,0.34,0.31
		c0.02,0.15,0.13,0.27,0.29,0.25c0.17,0,0.34-0.08,0.46-0.21c0.11-0.13,0.15-0.32,0.11-0.5c-0.11-0.42-0.53-0.69-0.97-0.63
		c-0.44,0.02-0.86,0.21-1.13,0.57c-0.29,0.34-0.38,0.78-0.31,1.22c0.1,0.55,0.48,0.92,1.16,1.11c0.19,0.04,0.46,0.04,0.84,0
		c1.14-0.04,1.89,0.31,2.21,1.01c0.52,1.18,0.25,2.1-0.82,2.79c-0.08,0.1-1.14,0.46-3.19,1.09l-0.36,0.13
		c-1.05,0.34-2.1,0.02-3.13-0.99c0.1,1.24-0.4,2.02-1.49,2.31c-0.21,0.04-0.42-0.08-0.48-0.29c-0.08-0.21,0.04-0.42,0.23-0.52
		c0.9-0.21,1.28-0.84,1.16-1.85c-0.27-1.03-1.05-1.58-2.35-1.62c-0.42-0.02-0.9,0.04-1.45,0.17c-1.2,0.27-2.06,0.19-2.56-0.19
		c0.5,1.93,0.93,3.22,1.3,3.87c0.17,0.34,0.46,0.61,0.82,0.76c0.19,0.11,0.29,0.34,0.19,0.55c-0.08,0.19-0.31,0.31-0.52,0.25
		c-0.53-0.1-1.05-1.03-1.56-2.79l-1.16-3.76c-0.15-0.34-0.34-0.67-0.59-0.95c-0.46-0.63-1.01-0.78-1.64-0.48
		c-0.29,0.13-0.5,0.4-0.57,0.71c-0.08,0.31-0.02,0.63,0.17,0.88c0.17,0.27,0.52,0.4,0.82,0.31c0.31-0.1,0.52-0.4,0.52-0.72
		c0.06-0.11,0.17-0.19,0.31-0.21c0.13-0.02,0.25,0.06,0.32,0.15C170.75,140.21,170.75,140.37,170.69,140.48L170.69,140.48z
		 M180.9,145.67c-0.04-0.04-0.06-0.08-0.08-0.11l-0.06-0.19c-0.04-0.13,0.04-0.27,0.15-0.31c0.11-0.04,0.25,0.04,0.29,0.15
		l0.06,0.21c0.02,0.04,0.02,0.08,0.02,0.11c1.53-0.46,3.13-0.97,4.83-1.51c-0.04-0.04-0.06-0.08-0.06-0.11l-0.08-0.19
		c-0.04-0.11,0.04-0.25,0.15-0.29c0.13-0.04,0.27,0.04,0.31,0.15l0.06,0.19c0,0.02,0,0.04,0,0.06c0.67-0.38,1.11-1.09,1.16-1.89
		c0.04-0.92-0.46-1.77-1.28-2.19c-0.13-0.06-0.23-0.19-0.23-0.34c-0.02-0.15,0.08-0.29,0.19-0.36c0.13-0.08,0.31-0.06,0.42,0.04
		c0.92,0.61,1.41,1.68,1.3,2.77c-0.11,1.09-0.84,2.02-1.85,2.44c-5.91,1.79-10.95,3.4-15.07,4.85c-0.11,0.06-0.23,0.04-0.32-0.04
		c-0.08-0.08-0.11-0.19-0.08-0.31c0.04-0.11,0.13-0.19,0.25-0.19c1.58-0.44,3.32-0.95,5.23-1.51c-0.02-0.04-0.04-0.06-0.04-0.08
		l-0.08-0.21c-0.04-0.11,0.04-0.25,0.15-0.29c0.13-0.04,0.27,0.04,0.31,0.15l0.06,0.19c0,0.04,0.02,0.08,0,0.1
		C177.96,146.57,179.39,146.13,180.9,145.67L180.9,145.67z M169.89,142.29l-0.23-0.71l-0.65,0.19l0.32,0.69L169.89,142.29z
		 M169.79,141.53l0.23,0.72l0.57-0.17l-0.11-0.76L169.79,141.53z M170.61,142.22l-0.55,0.17l0.27,0.88l0.4-0.11L170.61,142.22z
		 M170.21,143.32l-0.29-0.9l-0.53,0.17l0.42,0.84L170.21,143.32z M174.24,142.18c-0.42-0.23-0.93-0.06-1.16,0.36
		c-0.21,0.42-0.06,0.95,0.36,1.18c0.44,0.21,0.95,0.06,1.18-0.38C174.83,142.92,174.68,142.41,174.24,142.18L174.24,142.18z
		 M175.21,142.83c-0.15-0.08-0.34-0.02-0.42,0.13s-0.02,0.34,0.13,0.42s0.34,0.02,0.42-0.13
		C175.42,143.09,175.36,142.9,175.21,142.83L175.21,142.83z M173.8,143.91c-0.19-0.1-0.44-0.02-0.55,0.17
		c-0.1,0.21-0.02,0.46,0.17,0.55c0.21,0.11,0.46,0.04,0.55-0.17C174.08,144.28,174.01,144.03,173.8,143.91L173.8,143.91z
		 M175.25,141.97c-0.19-0.11-0.44-0.04-0.55,0.17c-0.1,0.19-0.02,0.44,0.17,0.53c0.21,0.11,0.46,0.04,0.55-0.17
		C175.53,142.31,175.46,142.06,175.25,141.97L175.25,141.97z M175.38,143.57c-0.42-0.21-0.95-0.06-1.18,0.38
		c-0.21,0.42-0.06,0.93,0.38,1.16c0.42,0.23,0.93,0.06,1.16-0.36C175.97,144.31,175.8,143.8,175.38,143.57L175.38,143.57z
		 M175.99,142.43c-0.19-0.11-0.44-0.02-0.53,0.17c-0.11,0.19-0.04,0.44,0.17,0.55c0.19,0.1,0.44,0.02,0.53-0.17
		C176.28,142.77,176.2,142.52,175.99,142.43L175.99,142.43z M175.84,141.87c-0.11-0.06-0.27-0.02-0.34,0.11
		c-0.06,0.11-0.02,0.27,0.11,0.32c0.11,0.08,0.27,0.02,0.34-0.1C176.01,142.08,175.95,141.93,175.84,141.87L175.84,141.87z
		 M175.63,143.23c-0.1-0.04-0.19,0-0.25,0.08c-0.04,0.1,0,0.21,0.08,0.25c0.1,0.06,0.21,0.02,0.25-0.08
		C175.76,143.38,175.73,143.28,175.63,143.23L175.63,143.23z M175.99,143.49c-0.11-0.06-0.25-0.02-0.31,0.1
		c-0.04,0.1,0,0.23,0.1,0.29c0.11,0.06,0.23,0.02,0.29-0.1C176.13,143.69,176.09,143.55,175.99,143.49L175.99,143.49z
		 M175.95,143.23c-0.06-0.02-0.13,0-0.15,0.04c-0.04,0.06-0.02,0.13,0.04,0.15c0.06,0.04,0.13,0.02,0.15-0.04
		C176.03,143.32,175.99,143.25,175.95,143.23L175.95,143.23z M176.3,143.09c-0.08-0.04-0.19,0-0.23,0.08
		c-0.04,0.1-0.02,0.19,0.08,0.25c0.08,0.04,0.19,0,0.23-0.08C176.43,143.25,176.39,143.15,176.3,143.09L176.3,143.09z M176.2,143.93
		c-0.11-0.06-0.25-0.02-0.31,0.1c-0.06,0.11-0.02,0.25,0.1,0.31c0.1,0.06,0.25,0.02,0.31-0.1
		C176.35,144.12,176.3,143.99,176.2,143.93L176.2,143.93z M176.83,143.38c-0.19-0.1-0.44-0.02-0.53,0.17
		c-0.11,0.21-0.04,0.44,0.17,0.55c0.19,0.1,0.44,0.02,0.53-0.17C177.12,143.72,177.04,143.49,176.83,143.38L176.83,143.38z
		 M177.9,143.06c-0.21-0.11-0.46-0.04-0.55,0.17c-0.1,0.19-0.02,0.44,0.17,0.55c0.19,0.1,0.44,0.02,0.55-0.17
		C178.17,143.4,178.09,143.15,177.9,143.06L177.9,143.06z M177.25,141.91c-0.19-0.1-0.44-0.02-0.55,0.17
		c-0.1,0.21-0.02,0.46,0.17,0.55c0.21,0.11,0.46,0.04,0.55-0.17C177.54,142.27,177.46,142.03,177.25,141.91L177.25,141.91z
		 M175.25,145.36c-0.19-0.1-0.44-0.02-0.55,0.17c-0.1,0.21-0.02,0.44,0.17,0.55c0.21,0.1,0.46,0.02,0.55-0.17
		C175.53,145.73,175.46,145.48,175.25,145.36L175.25,145.36z M176.76,144.56c-0.21-0.11-0.46-0.04-0.55,0.17
		c-0.1,0.19-0.02,0.44,0.17,0.53c0.19,0.11,0.44,0.04,0.55-0.17C177.02,144.91,176.95,144.66,176.76,144.56L176.76,144.56z
		 M177.14,142.85c-0.13-0.06-0.29-0.02-0.34,0.11c-0.06,0.11-0.02,0.27,0.11,0.32c0.11,0.08,0.27,0.02,0.32-0.1
		C177.31,143.06,177.25,142.9,177.14,142.85L177.14,142.85z M176.64,142.58c-0.13-0.06-0.29-0.02-0.34,0.11
		c-0.06,0.11-0.02,0.27,0.1,0.32c0.13,0.08,0.29,0.02,0.34-0.1C176.81,142.79,176.76,142.64,176.64,142.58L176.64,142.58z
		 M176.43,142.03c-0.13-0.06-0.29-0.02-0.34,0.1c-0.06,0.13-0.02,0.29,0.11,0.34c0.11,0.08,0.27,0.02,0.32-0.1
		C176.6,142.24,176.55,142.08,176.43,142.03L176.43,142.03z M177.84,142.46c-0.11-0.08-0.27-0.02-0.34,0.1
		c-0.06,0.13,0,0.29,0.11,0.34c0.11,0.06,0.27,0.02,0.34-0.11C178.01,142.67,177.98,142.52,177.84,142.46L177.84,142.46z
		 M177.44,143.88c-0.11-0.06-0.27-0.02-0.34,0.1c-0.06,0.13,0,0.29,0.11,0.34c0.11,0.08,0.27,0.02,0.34-0.1
		C177.61,144.09,177.58,143.93,177.44,143.88L177.44,143.88z M178.03,143.88c-0.11-0.08-0.27-0.02-0.34,0.1
		c-0.06,0.13-0.02,0.29,0.11,0.34c0.11,0.08,0.27,0.02,0.34-0.1C178.21,144.09,178.17,143.93,178.03,143.88L178.03,143.88z
		 M177.71,144.37c-0.11-0.06-0.27-0.02-0.34,0.11c-0.06,0.11,0,0.27,0.11,0.32c0.11,0.08,0.27,0.02,0.34-0.1
		C177.88,144.58,177.84,144.43,177.71,144.37L177.71,144.37z M175.78,145.12c-0.13-0.08-0.29-0.02-0.34,0.1
		c-0.08,0.13-0.02,0.27,0.1,0.34c0.13,0.06,0.29,0.02,0.34-0.11C175.95,145.33,175.9,145.17,175.78,145.12L175.78,145.12z
		 M174.54,145.19c-0.11-0.08-0.27-0.02-0.34,0.1c-0.06,0.13-0.02,0.27,0.11,0.34c0.11,0.06,0.27,0.02,0.34-0.11
		C174.71,145.4,174.68,145.25,174.54,145.19L174.54,145.19z M174.16,144.81c-0.13-0.06-0.29,0-0.34,0.11
		c-0.08,0.11-0.02,0.27,0.1,0.34c0.13,0.06,0.29,0.02,0.34-0.11C174.31,145.04,174.28,144.89,174.16,144.81L174.16,144.81z
		 M172.92,142.06c-0.11-0.08-0.27-0.02-0.34,0.1c-0.06,0.13-0.02,0.27,0.11,0.34c0.11,0.06,0.27,0.02,0.34-0.11
		C173.09,142.27,173.04,142.12,172.92,142.06L172.92,142.06z M176.09,144.43c-0.06-0.02-0.13,0-0.15,0.06
		c-0.04,0.06,0,0.11,0.04,0.15c0.06,0.02,0.13,0,0.15-0.06C176.16,144.52,176.14,144.47,176.09,144.43L176.09,144.43z
		 M175.99,144.72c-0.06-0.04-0.11-0.02-0.15,0.04c-0.02,0.06,0,0.13,0.06,0.15c0.06,0.04,0.11,0,0.13-0.04
		C176.07,144.81,176.05,144.73,175.99,144.72L175.99,144.72z M176.37,144.31c-0.06-0.04-0.11,0-0.15,0.04
		c-0.02,0.06,0,0.13,0.06,0.15c0.06,0.04,0.11,0.02,0.15-0.04C176.45,144.41,176.43,144.33,176.37,144.31L176.37,144.31z
		 M176.64,144.22c-0.06-0.04-0.13-0.02-0.15,0.04c-0.04,0.06-0.02,0.13,0.04,0.15c0.06,0.04,0.11,0.02,0.15-0.04
		C176.7,144.31,176.68,144.24,176.64,144.22L176.64,144.22z M176.91,144.24c-0.06-0.02-0.13,0-0.15,0.04
		c-0.02,0.06,0,0.13,0.04,0.15c0.06,0.04,0.13,0.02,0.15-0.04C176.98,144.33,176.97,144.28,176.91,144.24L176.91,144.24z
		 M177.19,144.39c-0.06-0.04-0.11,0-0.13,0.04c-0.04,0.06-0.02,0.13,0.04,0.15c0.06,0.04,0.11,0.02,0.15-0.04
		C177.27,144.49,177.25,144.41,177.19,144.39L177.19,144.39z M177.02,144.07c-0.04-0.02-0.1,0-0.11,0.04c-0.02,0.04,0,0.1,0.04,0.11
		c0.04,0.02,0.1,0,0.11-0.04C177.08,144.14,177.06,144.09,177.02,144.07L177.02,144.07z M176.05,144.96c-0.06-0.02-0.13,0-0.15,0.06
		c-0.04,0.06-0.02,0.11,0.04,0.13c0.06,0.04,0.11,0.02,0.15-0.04C176.11,145.06,176.09,145,176.05,144.96L176.05,144.96z
		 M176.62,143.09c-0.06-0.02-0.13,0-0.15,0.06c-0.02,0.06,0,0.11,0.04,0.15c0.06,0.02,0.13,0,0.15-0.06
		C176.7,143.19,176.68,143.13,176.62,143.09L176.62,143.09z M177.21,143.42c-0.06-0.02-0.11,0-0.15,0.06
		c-0.02,0.06,0,0.11,0.04,0.15c0.06,0.02,0.13,0,0.15-0.06C177.29,143.51,177.27,143.46,177.21,143.42L177.21,143.42z
		 M177.38,142.65c-0.06-0.04-0.11-0.02-0.15,0.04c-0.02,0.06,0,0.11,0.06,0.15c0.06,0.02,0.11,0,0.15-0.06
		C177.46,142.75,177.44,142.67,177.38,142.65L177.38,142.65z M177.42,142.92c-0.04-0.04-0.08-0.02-0.1,0.02
		c-0.02,0.04,0,0.1,0.04,0.11c0.04,0.02,0.08,0,0.1-0.04C177.48,142.98,177.46,142.94,177.42,142.92L177.42,142.92z M185.57,140.16
		c1.39-0.44,1.76-1.14,2.1-1.81c0.48-0.92,0.9-1.76,4.79-1.43c0.1,0,1.01-0.34,2.37-0.88c3.45-1.34,9.81-3.8,11.83-4.03
		c1.83-0.21,2.27-0.53,2.71-0.86c0.65-0.5,1.35-1.01,7.73-1.24c1.03-0.04,1.83-0.31,2.63-0.59c1.22-0.42,2.5-0.86,4.83-0.5
		c0.11,0.02,0.21-0.04,0.23-0.15c0.02-0.11-0.06-0.21-0.17-0.23c-2.42-0.38-3.74,0.08-5.02,0.52c-0.78,0.27-1.53,0.53-2.52,0.57
		c-6.51,0.23-7.25,0.78-7.94,1.32c-0.4,0.31-0.8,0.59-2.52,0.78c-2.08,0.23-8.47,2.71-11.92,4.04c-1.3,0.52-2.19,0.86-2.21,0.86
		c-4.14-0.34-4.62,0.59-5.15,1.64c-0.31,0.59-0.65,1.22-1.87,1.62c-0.1,0.02-0.15,0.13-0.13,0.23
		C185.36,140.14,185.47,140.19,185.57,140.16L185.57,140.16z"/>
	<radialGradient id="SVGID_1_" cx="175.0002" cy="97.8509" r="69.2646" gradientUnits="userSpaceOnUse">
		<stop  offset="0" style="stop-color:#FFFFFF"/>
		<stop  offset="0.021" style="stop-color:#FAEFEF"/>
		<stop  offset="0.0931" style="stop-color:#E9BDBD"/>
		<stop  offset="0.1708" style="stop-color:#DA9090"/>
		<stop  offset="0.2522" style="stop-color:#CD6969"/>
		<stop  offset="0.3382" style="stop-color:#C24949"/>
		<stop  offset="0.4304" style="stop-color:#B92E2E"/>
		<stop  offset="0.5308" style="stop-color:#B21A1A"/>
		<stop  offset="0.6438" style="stop-color:#AD0B0B"/>
		<stop  offset="0.7796" style="stop-color:#AA0303"/>
		<stop  offset="1" style="stop-color:#A90000"/>
	</radialGradient>
	<path style="fill-rule:evenodd;clip-rule:evenodd;fill:url(#SVGID_1_);" d="M115.35,143.74c-3.99,2.8-11.12,5.42-21.42,7.84
		c10.85-3.19,17.88-6.24,21-9.2c1.7-1.7,4.88-3.01,9.52-3.97c1.62-0.1,2.96,0.08,3.97,0.48c0.67,0.13,1.16,0.02,1.47-0.32
		c3.32-2.46,6.73-2.54,10.23-0.23c5.46,3.62,9.4,6.03,11.85,7.25c3.82,1.26,7.82,2.8,12.04,4.64c2.27,0.61,5.11,0.25,8.53-1.11
		c10-3.32,17.78-5.74,23.35-7.29c0.48-0.17,1.13-0.57,1.95-1.2c5.65-4.06,9.52-5.38,11.62-3.97c0.9,0.57,1.6,1.13,2.1,1.68
		c0.44,0.13,1.05-0.17,1.81-0.92c3.22-1.87,6.16-3.13,8.81-3.76c1.51-0.48,2.84-0.27,4.01,0.59c10.07,3.72,20.05,8.09,29.91,13.11
		c-0.5-0.04-1.01-0.11-1.53-0.17c-7.02-2.94-15.26-6.12-24.7-9.52c-0.93-0.21-2.61-0.9-5.06-2.04c-1.56-0.31-3.3,0.1-5.23,1.16
		c-2.14,0.9-4.22,1.91-6.24,3.01c-1.14,1.03-2.23,1.05-3.26,0.06c-1.62-1.7-3.15-2.02-4.56-1.01c-1.58,0.72-4.06,2.27-7.44,4.64
		c-1.09,0.69-4.14,1.62-9.16,2.86l-7.61,2.56l-6.62,2.23c-5.28,1.87-9.54,2.17-12.76,0.92c-3.49-1.32-7.1-2.73-10.78-4.24
		c-2.79-1.07-6.72-3.51-11.77-7.29c-2.08-2.48-5.02-2.59-8.79-0.36c-0.67,0.65-1.39,0.84-2.16,0.55c-1.87-1.07-3.72-1.16-5.49-0.29
		c-0.57,0.61-1.81,1.07-3.74,1.39C118.21,141.89,116.93,142.52,115.35,143.74L115.35,143.74z M205.5,138.86
		c-1.58,0.72-4.06,2.27-7.44,4.64c-1.09,0.69-4.14,1.62-9.16,2.86l-7.61,2.56c9.04-2.21,13.91-2.79,14.63-1.72
		c0.63,0.29,1.37-0.06,2.17-1.07c3.11-2.67,4.96-4.22,5.55-4.69c0.55-0.48,0.95-0.42,1.22,0.17c0.13,1.93,0.65,2.35,1.58,1.22
		c1.28-2.27,2.5-2.86,3.64-1.74c2.08,3.28,4.16,5,6.24,5.15c2.54,0.69,4.83,1.01,6.85,0.95c-4.18-1.41-6.64-3.05-7.36-4.92
		c-0.29-0.84-0.92-1.51-1.91-1.98c-0.04-0.53,0.5-0.78,1.62-0.74c3.22-0.48,5.68-1.51,7.33-3.05c1.3,1.68,2.46,2.69,3.53,3.01
		c0.76-0.32,1.32-0.69,1.72-1.09c5.48,4.12,9.58,7.02,12.3,8.7c-0.93-1.41-1.87-2.73-2.79-3.97c6.28,2.06,11.92,3.41,16.92,4.04
		c-7.02-2.94-15.26-6.12-24.7-9.52c-0.93-0.21-2.61-0.9-5.06-2.04c-1.56-0.31-3.3,0.1-5.23,1.16c-2.14,0.9-4.22,1.91-6.24,3.01
		c-1.14,1.03-2.23,1.05-3.26,0.06C208.44,138.17,206.92,137.85,205.5,138.86L205.5,138.86z M231.07,108.09
		c-12.78-22.11-41.05-29.7-63.18-16.92c-18.22,10.51-26.57,31.57-21.81,51.03c2.48,1.55,4.44,2.69,5.88,3.4
		c3.82,1.26,7.82,2.8,12.04,4.64c2.27,0.61,5.11,0.25,8.53-1.11c10-3.32,17.78-5.74,23.35-7.29c0.48-0.17,1.13-0.57,1.95-1.2
		c5.65-4.06,9.52-5.38,11.62-3.97c0.9,0.57,1.6,1.13,2.1,1.68c0.44,0.13,1.05-0.17,1.81-0.92c3.22-1.87,6.16-3.13,8.81-3.76
		c1.51-0.48,2.84-0.27,4.01,0.59c3.53,1.3,7.04,2.67,10.53,4.14C238.3,128.31,236.56,117.63,231.07,108.09L231.07,108.09z
		 M169.93,138.02c0.72,0.06,1.35,0.72,1.87,1.98l0.36,1.01c0.42,0.42,1.26,0.42,2.56,0.06c2.02-0.59,3.43-0.29,4.22,0.93
		c1.14,1.43,2.14,1.93,3,1.47l3.57-1.09c0.46-0.27,0.71-0.82,0.59-1.34c-0.11-0.53-0.57-0.93-1.11-0.99
		c-1.64,0.04-2.61-0.4-2.92-1.35c-0.36-0.97-0.04-2.06,0.82-2.65c0.4-0.23,0.9-0.29,1.35-0.17c0.34,0.08,0.67,0.25,0.92,0.52
		c0.29,0.29,0.44,0.69,0.4,1.09c-0.02,0.4-0.23,0.78-0.53,1.03c-1.05,0.46-1.66,0.29-1.85-0.57c-0.06-0.15-0.02-0.32,0.1-0.44
		c0.1-0.11,0.27-0.17,0.42-0.13c0.17,0.04,0.29,0.15,0.34,0.31c0.02,0.15,0.13,0.27,0.29,0.25c0.17,0,0.34-0.08,0.46-0.21
		c0.11-0.13,0.15-0.32,0.11-0.5c-0.11-0.42-0.53-0.69-0.97-0.63c-0.44,0.02-0.86,0.21-1.13,0.57c-0.29,0.34-0.38,0.78-0.31,1.22
		c0.1,0.55,0.48,0.92,1.16,1.11c0.19,0.04,0.46,0.04,0.84,0c0.52-0.02,0.95,0.04,1.3,0.19c0.13-0.06,0.27-0.11,0.38-0.19
		c-0.02-0.02-0.02-0.04-0.02-0.08c-0.02-0.15,0.08-0.29,0.21-0.36c0.11-0.06,0.27-0.06,0.38,0.02c0.27-0.29,0.44-0.59,0.59-0.9
		c0.53-1.05,1.01-1.98,5.15-1.64c0.02,0,0.92-0.34,2.21-0.86c0.31-0.11,0.65-0.25,1.01-0.38c-0.19-0.11-0.4-0.23-0.65-0.34
		l-0.5,0.23c0.31-0.61,0.13-0.9-0.34-0.78c-0.46,0.21-0.92,0.42-1.37,0.59c-0.82,0.19-1.51,0.23-2.1,0.11
		c-0.1,0-0.17-0.06-0.21-0.13c-0.02-0.08,0-0.17,0.06-0.23c0.06-0.06,0.15-0.08,0.23-0.04c0.71,0.11,1.3,0.11,1.79,0
		c-0.4-0.13-0.76-0.38-1.03-0.71c-0.04-0.04-0.06-0.1-0.04-0.15c0.04-0.06,0.08-0.1,0.13-0.11c0.06,0,0.11,0.02,0.15,0.08
		c0.48,0.5,0.9,0.71,1.26,0.63c0.17-0.06,0.32-0.13,0.46-0.21c-0.34-0.21-0.63-0.53-0.82-0.9c-0.04-0.04-0.04-0.11,0-0.15
		c0.02-0.06,0.08-0.08,0.13-0.08c0.06,0,0.11,0.06,0.11,0.11c0.27,0.52,0.74,0.8,1.45,0.84c0.1-0.04,0.19-0.1,0.27-0.15
		c0.21-0.23,0.31-0.53,0.25-0.84c-0.1-0.11-0.23-0.19-0.38-0.21c-0.04,0-0.1-0.04-0.1-0.1c-0.02-0.04-0.02-0.1,0.02-0.13
		c0.04-0.02,0.1-0.04,0.13-0.02c0.21,0.04,0.38,0.15,0.52,0.29c0.04,0.02,0.08,0.02,0.11,0c0.02,0,0.04-0.04,0.06-0.08
		c-0.11-0.34-0.4-0.63-0.74-0.72c-0.06-0.02-0.11-0.06-0.11-0.11c-0.02-0.06,0.02-0.11,0.06-0.15c0.06-0.04,0.11-0.04,0.17,0
		c0.42,0.21,0.74,0.59,0.88,1.03c0.31-0.19,0.5-0.53,0.48-0.9c-0.06-0.17-0.21-0.29-0.38-0.32c-0.08-0.02-0.11-0.06-0.13-0.11
		c-0.02-0.08,0.02-0.13,0.08-0.17c0.06-0.02,0.11-0.02,0.17,0.04c0.29,0.13,0.46,0.42,0.5,0.74c0.02,0.32-0.13,0.63-0.4,0.82
		c-0.55,0.44-0.88,0.82-0.95,1.11c0.23-0.06,0.42-0.1,0.55-0.15c0.65-0.42,1.01-0.53,1.09-0.34c0,0.23-0.13,0.48-0.36,0.8
		c0.15,0.23,0.38,0.38,0.69,0.48c3.51-1.34,8.05-3.01,9.75-3.2c0.84-0.1,1.35-0.21,1.72-0.34c-0.13-0.17-0.31-0.34-0.52-0.55
		l-0.53,0.08c0.48-0.48,0.38-0.82-0.1-0.84c-0.5,0.06-0.99,0.11-1.49,0.13c-0.82-0.08-1.51-0.25-2.04-0.53
		c-0.08-0.02-0.13-0.1-0.13-0.19c-0.02-0.08,0.02-0.15,0.1-0.19c0.08-0.04,0.17-0.04,0.25,0.02c0.63,0.34,1.2,0.52,1.7,0.55
		c-0.34-0.25-0.61-0.59-0.76-0.97c-0.02-0.06-0.02-0.11,0.02-0.17c0.04-0.04,0.1-0.08,0.15-0.06c0.06,0.02,0.11,0.06,0.13,0.11
		c0.29,0.61,0.63,0.95,1.01,0.97c0.17,0,0.32-0.02,0.5-0.06c-0.27-0.31-0.46-0.69-0.52-1.09c-0.02-0.06,0-0.11,0.04-0.15
		c0.06-0.06,0.11-0.06,0.17-0.04c0.04,0.04,0.08,0.08,0.08,0.13c0.08,0.59,0.46,1.01,1.11,1.26c0.11-0.02,0.21-0.02,0.31-0.06
		c0.27-0.15,0.46-0.42,0.5-0.72c-0.06-0.15-0.15-0.27-0.31-0.32c-0.04-0.02-0.08-0.06-0.08-0.11c0-0.04,0.04-0.1,0.08-0.11
		c0.04-0.02,0.1-0.02,0.13,0.02c0.17,0.1,0.32,0.25,0.4,0.44c0.04,0.02,0.06,0.04,0.1,0.02c0.04,0,0.08-0.02,0.1-0.06
		c0-0.36-0.19-0.71-0.5-0.92c-0.04-0.04-0.08-0.1-0.06-0.15c0-0.06,0.04-0.1,0.1-0.11c0.06-0.02,0.13,0,0.15,0.06
		c0.34,0.32,0.53,0.78,0.52,1.24c0.36-0.08,0.65-0.34,0.72-0.71c0-0.17-0.1-0.34-0.25-0.44c-0.06-0.02-0.1-0.08-0.1-0.13
		c0.02-0.08,0.06-0.11,0.11-0.13c0.08-0.02,0.13,0.02,0.17,0.08c0.21,0.23,0.31,0.55,0.23,0.86c-0.08,0.32-0.31,0.57-0.61,0.67
		c-0.69,0.25-1.11,0.5-1.26,0.74c0.23,0.04,0.42,0.04,0.57,0.04c0.74-0.21,1.13-0.19,1.14,0.02c-0.08,0.19-0.27,0.4-0.59,0.63
		c0.02,0.1,0.06,0.19,0.11,0.27c0.69-0.5,1.56-1.05,7.88-1.26c0.99-0.04,1.74-0.31,2.52-0.57c1.09-0.38,2.21-0.76,4.03-0.63
		c0.02-0.17-0.11-0.31-0.38-0.34c-0.5,0.02-0.99,0.04-1.49,0.02c-0.82-0.13-1.49-0.38-1.98-0.71c-0.1-0.02-0.13-0.1-0.13-0.19
		c0-0.08,0.04-0.15,0.11-0.19c0.1-0.04,0.17-0.02,0.23,0.04c0.61,0.4,1.16,0.63,1.66,0.69c-0.31-0.27-0.55-0.63-0.67-1.03
		c-0.02-0.06,0-0.11,0.04-0.15c0.04-0.04,0.1-0.06,0.15-0.06c0.06,0.02,0.11,0.08,0.11,0.13c0.25,0.63,0.55,0.99,0.92,1.05
		c0.17,0.02,0.34,0.02,0.52-0.02c-0.25-0.32-0.38-0.72-0.4-1.13c-0.02-0.06,0-0.11,0.04-0.15c0.06-0.04,0.11-0.04,0.15-0.02
		c0.06,0.04,0.08,0.1,0.08,0.15c0.04,0.59,0.38,1.03,1.01,1.32c0.1,0.02,0.19,0,0.31-0.02c0.27-0.13,0.48-0.38,0.55-0.67
		c-0.04-0.15-0.13-0.29-0.27-0.34c-0.04-0.04-0.08-0.08-0.08-0.13c0.02-0.04,0.04-0.1,0.1-0.11c0.04-0.02,0.1,0,0.13,0.04
		c0.15,0.11,0.29,0.29,0.36,0.46c0.02,0.04,0.06,0.06,0.1,0.04c0.02,0,0.06-0.02,0.08-0.04c0.04-0.36-0.11-0.72-0.4-0.95
		c-0.04-0.04-0.06-0.1-0.06-0.15c0.02-0.06,0.08-0.11,0.13-0.11c0.06-0.02,0.11,0.02,0.13,0.06c0.31,0.36,0.46,0.82,0.42,1.3
		c0.34-0.06,0.65-0.31,0.78-0.65c0.02-0.17-0.08-0.36-0.23-0.46c-0.06-0.02-0.08-0.1-0.08-0.15c0.02-0.06,0.08-0.11,0.13-0.11
		c0.08,0,0.13,0.02,0.15,0.1c0.21,0.23,0.27,0.57,0.15,0.88c-0.1,0.31-0.36,0.53-0.67,0.59c-0.71,0.19-1.14,0.42-1.32,0.65
		c0.23,0.06,0.42,0.08,0.55,0.08c0.78-0.13,1.16-0.1,1.16,0.11c-0.1,0.19-0.32,0.38-0.67,0.59c0.06,0.27,0.21,0.5,0.48,0.71
		c0.63,0.19,0.97,0.63,1.03,1.35c0.02,0.4,0.15,0.63,0.42,0.71l1.11-0.08c0.25,0.06,0.31,0.36,0.13,0.92
		c-0.44,0.57-1.01,1.05-1.76,1.47c-0.02-0.27,0-0.46,0.06-0.57c0.5-0.31,0.8-0.61,0.95-0.92c0.08-0.31-0.04-0.38-0.36-0.25
		c-0.25,0.27-0.67,0.38-1.26,0.34c-0.13,0-0.29,0.04-0.44,0.1c-0.61,0.32-1.34,0.32-2.16-0.04c-0.19-0.06-0.4-0.04-0.55,0.08
		c-0.23,0.25-0.55,0.38-0.97,0.42l-1.2,0.1c-0.17,0-0.31,0.02-0.42,0.1l-1.39,1.07c-0.1,0.04-0.19,0.02-0.27-0.06
		c-0.08-0.06-0.1-0.15-0.06-0.25c0.15-0.27,0.42-0.46,0.72-0.53c0.13-0.02,0.25-0.06,0.32-0.1c0.25-0.13,0.42-0.31,0.52-0.48
		c0.06-0.13,0.19-0.21,0.4-0.25l0.48-0.04c0.13-0.15,0.27-0.25,0.38-0.29c0.31-0.27,0.46-0.44,0.44-0.55
		c0.06-0.15-0.04-0.31-0.27-0.48c-0.1-0.06-0.13-0.17-0.08-0.25c0.04-0.1,0.15-0.13,0.25-0.1c0.21,0.13,0.4,0.17,0.61,0.13
		l2.37-0.15c0.46-0.23,0.21-0.9-0.74-2.02l-0.55,0.04c0.06-0.06,0.1-0.1,0.15-0.13c-1.64-0.1-2.69,0.27-3.68,0.61
		c-0.8,0.29-1.6,0.55-2.63,0.59c-6.1,0.21-7.02,0.71-7.65,1.18c0.06,0.04,0.1,0.08,0.15,0.11c0.65,0.13,1.03,0.55,1.16,1.26
		c0.04,0.4,0.19,0.63,0.46,0.67l1.11-0.17c0.25,0.04,0.32,0.34,0.21,0.92c-0.38,0.59-0.92,1.14-1.6,1.62
		c-0.04-0.27-0.04-0.46,0-0.57c0.46-0.36,0.74-0.69,0.86-0.99c0.06-0.32-0.08-0.4-0.38-0.23c-0.21,0.29-0.61,0.44-1.2,0.44
		c-0.15,0.02-0.31,0.08-0.44,0.13c-0.57,0.38-1.3,0.42-2.16,0.15c-0.17-0.06-0.38-0.02-0.52,0.11c-0.21,0.25-0.53,0.42-0.93,0.5
		l-1.2,0.21c-0.15,0-0.29,0.04-0.4,0.11l-1.3,1.18c-0.08,0.04-0.19,0.04-0.27-0.02c-0.08-0.08-0.11-0.17-0.08-0.27
		c0.13-0.27,0.38-0.48,0.67-0.59c0.13-0.04,0.25-0.08,0.32-0.11c0.23-0.17,0.38-0.34,0.48-0.53c0.04-0.11,0.15-0.21,0.36-0.27
		l0.48-0.08c0.11-0.17,0.25-0.27,0.36-0.31c0.27-0.31,0.4-0.5,0.36-0.61c0.06-0.13-0.06-0.29-0.31-0.46
		c-0.1-0.04-0.13-0.13-0.1-0.25c0.04-0.1,0.13-0.13,0.23-0.11c0.23,0.11,0.44,0.15,0.63,0.1l2.35-0.36
		c0.29-0.17,0.23-0.53-0.15-1.07c-0.4,0.15-0.97,0.29-1.95,0.4c-1.55,0.17-5.61,1.66-8.99,2.94c0.29,0.13,0.52,0.38,0.71,0.72
		c0.17,0.38,0.38,0.55,0.65,0.5l0.99-0.5c0.27-0.04,0.42,0.23,0.48,0.82c-0.17,0.67-0.52,1.35-1.03,2.02
		c-0.11-0.25-0.17-0.42-0.17-0.55c0.32-0.48,0.5-0.88,0.52-1.2c-0.04-0.32-0.19-0.36-0.44-0.11c-0.11,0.36-0.44,0.63-1.01,0.8
		c-0.13,0.08-0.25,0.15-0.36,0.27c-0.44,0.53-1.11,0.8-2,0.8c-0.19,0-0.36,0.11-0.46,0.29c-0.13,0.29-0.38,0.53-0.74,0.74
		l-1.07,0.55c-0.15,0.06-0.27,0.13-0.34,0.25l-0.88,1.53c-0.06,0.06-0.17,0.1-0.27,0.06c-0.08-0.04-0.15-0.11-0.15-0.23
		c0.06-0.31,0.21-0.57,0.46-0.76c0.13-0.08,0.21-0.15,0.27-0.21c0.17-0.23,0.27-0.44,0.29-0.65c0-0.13,0.1-0.25,0.27-0.36l0.42-0.23
		c0.08-0.19,0.17-0.32,0.25-0.4c0.19-0.36,0.25-0.59,0.19-0.69c-0.02-0.15-0.15-0.27-0.44-0.34c-0.1-0.02-0.17-0.1-0.17-0.21
		c0-0.1,0.1-0.17,0.19-0.17c0.25,0.04,0.46,0,0.61-0.1l2.12-1.07c0.23-0.27,0.08-0.57-0.44-0.95c-0.46,0.17-0.88,0.32-1.26,0.48
		c-1.35,0.53-2.27,0.88-2.37,0.88c-3.89-0.32-4.31,0.52-4.79,1.43c-0.17,0.32-0.34,0.65-0.63,0.95c0.72,0.63,1.11,1.58,1.01,2.56
		c-0.11,1.09-0.84,2.02-1.85,2.44c-5.91,1.79-10.95,3.4-15.07,4.85c-0.11,0.06-0.23,0.04-0.32-0.04c-0.08-0.08-0.11-0.19-0.08-0.31
		c0.04-0.11,0.13-0.19,0.25-0.19c1.58-0.44,3.32-0.95,5.23-1.51c-0.02-0.04-0.04-0.06-0.04-0.08l-0.08-0.21
		c-0.04-0.11,0.04-0.25,0.15-0.29c0.13-0.04,0.27,0.04,0.31,0.15l0.06,0.19c0,0.04,0.02,0.08,0,0.1c1.35-0.4,2.79-0.84,4.29-1.3
		c-0.04-0.04-0.06-0.08-0.08-0.11l-0.06-0.19c-0.04-0.13,0.04-0.27,0.15-0.31c0.11-0.04,0.25,0.04,0.29,0.15l0.06,0.21
		c0.02,0.04,0.02,0.08,0.02,0.11c1.53-0.46,3.13-0.97,4.83-1.51c-0.04-0.04-0.06-0.08-0.06-0.1l-0.08-0.21
		c-0.04-0.11,0.04-0.25,0.15-0.29c0.13-0.04,0.27,0.04,0.31,0.15l0.06,0.19v0.06c0.67-0.38,1.11-1.09,1.16-1.89
		c0.04-0.9-0.44-1.74-1.22-2.17c-0.06,0.06-0.13,0.1-0.21,0.13c0.21,0.15,0.36,0.34,0.48,0.59c0.52,1.18,0.25,2.1-0.82,2.79
		c-0.08,0.1-1.14,0.46-3.19,1.09l-0.36,0.13c-1.05,0.34-2.1,0.02-3.13-0.99c0.1,1.24-0.4,2.02-1.49,2.31
		c-0.21,0.04-0.42-0.08-0.48-0.29c-0.08-0.21,0.04-0.42,0.23-0.52c0.9-0.21,1.28-0.84,1.16-1.85c-0.27-1.03-1.05-1.58-2.35-1.62
		c-0.42-0.02-0.9,0.04-1.45,0.17c-1.2,0.27-2.06,0.19-2.56-0.19c0.5,1.93,0.93,3.22,1.3,3.87c0.17,0.34,0.46,0.61,0.82,0.76
		c0.19,0.11,0.29,0.34,0.19,0.55c-0.08,0.19-0.31,0.31-0.52,0.25c-0.53-0.1-1.05-1.03-1.56-2.79l-1.16-3.76
		c-0.15-0.34-0.34-0.67-0.59-0.95c-0.46-0.63-1.01-0.78-1.64-0.48c-0.29,0.13-0.5,0.4-0.57,0.71c-0.08,0.31-0.02,0.63,0.17,0.88
		c0.17,0.27,0.52,0.4,0.82,0.31c0.31-0.1,0.52-0.4,0.52-0.72c0.06-0.11,0.17-0.19,0.31-0.21c0.13-0.02,0.25,0.06,0.32,0.15
		c0.08,0.11,0.08,0.27,0.02,0.38c-0.17,0.55-0.69,0.93-1.26,0.93c-0.59,0-1.11-0.36-1.3-0.9c-0.29-0.71-0.13-1.51,0.36-2.06
		C168.86,138.08,169.41,137.9,169.93,138.02L169.93,138.02z M176.7,142.08c0.11-0.19,0.36-0.27,0.55-0.15
		c0.21,0.1,0.29,0.34,0.17,0.53c-0.1,0.21-0.34,0.29-0.55,0.17C176.68,142.54,176.6,142.29,176.7,142.08L176.7,142.08z
		 M177.23,142.69c0.04-0.06,0.1-0.08,0.15-0.04c0.06,0.02,0.08,0.1,0.06,0.13c-0.04,0.06-0.1,0.08-0.15,0.06
		C177.23,142.81,177.21,142.75,177.23,142.69L177.23,142.69z M177.33,142.94c0.02-0.04,0.06-0.06,0.1-0.02
		c0.04,0.02,0.06,0.06,0.04,0.1c-0.02,0.04-0.06,0.06-0.1,0.04C177.33,143.04,177.31,142.98,177.33,142.94L177.33,142.94z
		 M176.79,142.96c0.06-0.13,0.21-0.17,0.34-0.11c0.11,0.06,0.17,0.21,0.1,0.34c-0.06,0.11-0.21,0.17-0.32,0.1
		C176.77,143.23,176.74,143.07,176.79,142.96L176.79,142.96z M177.06,143.48c0.04-0.06,0.1-0.08,0.15-0.06
		c0.06,0.04,0.08,0.1,0.04,0.15c-0.02,0.06-0.1,0.08-0.15,0.06C177.06,143.59,177.04,143.53,177.06,143.48L177.06,143.48z
		 M176.09,142.12c0.06-0.11,0.21-0.15,0.34-0.1c0.11,0.06,0.17,0.21,0.1,0.34c-0.06,0.11-0.21,0.17-0.32,0.1
		C176.07,142.41,176.03,142.25,176.09,142.12L176.09,142.12z M176.3,142.69c0.06-0.13,0.21-0.17,0.34-0.11
		c0.11,0.06,0.17,0.21,0.1,0.34c-0.06,0.11-0.21,0.17-0.34,0.1C176.28,142.96,176.24,142.81,176.3,142.69L176.3,142.69z
		 M176.47,143.15c0.02-0.06,0.1-0.08,0.15-0.06c0.06,0.04,0.08,0.1,0.04,0.15c-0.02,0.06-0.1,0.08-0.15,0.06
		C176.47,143.27,176.45,143.21,176.47,143.15L176.47,143.15z M174.69,142.14c0.11-0.21,0.36-0.29,0.55-0.17
		c0.21,0.1,0.29,0.34,0.17,0.53c-0.1,0.21-0.34,0.29-0.55,0.17C174.68,142.58,174.6,142.33,174.69,142.14L174.69,142.14z
		 M175.63,143.15c-0.21-0.11-0.29-0.36-0.17-0.55c0.1-0.19,0.34-0.29,0.53-0.17c0.21,0.1,0.29,0.34,0.17,0.55
		C176.07,143.17,175.82,143.25,175.63,143.15L175.63,143.15z M175.38,143.3c0.06-0.08,0.15-0.11,0.25-0.08
		c0.1,0.06,0.13,0.15,0.08,0.25c-0.04,0.1-0.15,0.13-0.25,0.08C175.38,143.51,175.34,143.4,175.38,143.3L175.38,143.3z
		 M175.38,143.57c0.42,0.23,0.59,0.74,0.36,1.18c-0.23,0.42-0.74,0.59-1.16,0.36c-0.44-0.23-0.59-0.74-0.38-1.16
		C174.43,143.51,174.96,143.36,175.38,143.57L175.38,143.57z M175.84,144.75c0.04-0.06,0.1-0.08,0.15-0.04
		c0.06,0.02,0.08,0.1,0.04,0.15c-0.02,0.04-0.08,0.08-0.13,0.04C175.84,144.89,175.82,144.81,175.84,144.75L175.84,144.75z
		 M175.9,145.02c0.02-0.06,0.1-0.08,0.15-0.06c0.04,0.04,0.06,0.1,0.04,0.15c-0.04,0.06-0.1,0.08-0.15,0.04
		C175.88,145.13,175.86,145.08,175.9,145.02L175.9,145.02z M176.3,143.55c0.1-0.19,0.34-0.27,0.53-0.17
		c0.21,0.11,0.29,0.34,0.17,0.55c-0.1,0.19-0.34,0.27-0.53,0.17C176.26,143.99,176.18,143.76,176.3,143.55L176.3,143.55z
		 M176.91,144.1c0.02-0.04,0.08-0.06,0.11-0.04c0.04,0.02,0.06,0.08,0.04,0.11c-0.02,0.04-0.08,0.06-0.11,0.04
		C176.91,144.2,176.89,144.14,176.91,144.1L176.91,144.1z M177.06,144.43c0.02-0.04,0.08-0.08,0.13-0.04
		c0.06,0.02,0.08,0.1,0.06,0.15c-0.04,0.06-0.1,0.08-0.15,0.04C177.04,144.56,177.02,144.49,177.06,144.43L177.06,144.43z
		 M176.76,144.28c0.02-0.04,0.1-0.06,0.15-0.04c0.06,0.04,0.08,0.1,0.04,0.15c-0.02,0.06-0.1,0.08-0.15,0.04
		C176.76,144.41,176.74,144.33,176.76,144.28L176.76,144.28z M175.84,141.87c0.11,0.06,0.17,0.21,0.11,0.34
		c-0.08,0.11-0.23,0.17-0.34,0.1c-0.13-0.06-0.17-0.21-0.11-0.32C175.57,141.85,175.73,141.82,175.84,141.87L175.84,141.87z
		 M176.07,143.17c0.04-0.08,0.15-0.11,0.23-0.08c0.1,0.06,0.13,0.15,0.08,0.25c-0.04,0.08-0.15,0.11-0.23,0.08
		C176.05,143.36,176.03,143.27,176.07,143.17L176.07,143.17z M176.49,144.26c0.02-0.06,0.1-0.08,0.15-0.04
		c0.04,0.02,0.06,0.1,0.04,0.15c-0.04,0.06-0.1,0.08-0.15,0.04C176.47,144.39,176.45,144.31,176.49,144.26L176.49,144.26z
		 M176.2,143.93c0.1,0.06,0.15,0.19,0.1,0.31c-0.06,0.11-0.21,0.15-0.31,0.1c-0.11-0.06-0.15-0.19-0.1-0.31
		C175.95,143.91,176.09,143.88,176.2,143.93L176.2,143.93z M176.22,144.35c0.04-0.04,0.1-0.08,0.15-0.04
		c0.06,0.02,0.08,0.1,0.06,0.15c-0.04,0.06-0.1,0.08-0.15,0.04C176.22,144.49,176.2,144.41,176.22,144.35L176.22,144.35z
		 M175.69,143.59c0.06-0.11,0.19-0.15,0.31-0.1c0.1,0.06,0.13,0.19,0.08,0.29c-0.06,0.11-0.17,0.15-0.29,0.1
		C175.69,143.82,175.65,143.69,175.69,143.59L175.69,143.59z M175.93,144.49c0.02-0.06,0.1-0.08,0.15-0.06
		c0.06,0.04,0.08,0.1,0.04,0.15c-0.02,0.06-0.1,0.08-0.15,0.06C175.93,144.6,175.9,144.54,175.93,144.49L175.93,144.49z
		 M172.58,142.16c0.08-0.11,0.23-0.17,0.34-0.1c0.11,0.06,0.17,0.21,0.11,0.32c-0.08,0.13-0.23,0.17-0.34,0.11
		C172.56,142.43,172.52,142.29,172.58,142.16L172.58,142.16z M173.07,142.54c0.23-0.42,0.74-0.59,1.16-0.36
		c0.44,0.23,0.59,0.74,0.38,1.16c-0.23,0.44-0.74,0.59-1.18,0.38C173.02,143.49,172.86,142.96,173.07,142.54L173.07,142.54z
		 M173.8,143.91c0.21,0.11,0.29,0.36,0.17,0.55c-0.1,0.21-0.34,0.29-0.55,0.17c-0.19-0.1-0.27-0.34-0.17-0.55
		C173.36,143.89,173.61,143.82,173.8,143.91L173.8,143.91z M173.82,144.93c0.06-0.11,0.21-0.17,0.34-0.11
		c0.11,0.08,0.15,0.23,0.1,0.34c-0.06,0.13-0.21,0.17-0.34,0.11C173.8,145.19,173.74,145.04,173.82,144.93L173.82,144.93z
		 M174.2,145.29c0.08-0.11,0.23-0.17,0.34-0.1c0.13,0.06,0.17,0.21,0.11,0.32c-0.08,0.13-0.23,0.17-0.34,0.11
		C174.18,145.55,174.14,145.42,174.2,145.29L174.2,145.29z M174.79,142.96c0.08-0.15,0.27-0.21,0.42-0.13s0.21,0.27,0.13,0.42
		c-0.08,0.15-0.27,0.21-0.42,0.13S174.71,143.11,174.79,142.96L174.79,142.96z M175.44,145.21c0.06-0.11,0.21-0.17,0.34-0.1
		c0.11,0.06,0.17,0.21,0.1,0.32c-0.06,0.13-0.21,0.17-0.34,0.11C175.42,145.48,175.36,145.34,175.44,145.21L175.44,145.21z
		 M177.1,143.97c0.08-0.11,0.23-0.15,0.34-0.1c0.13,0.06,0.17,0.21,0.11,0.34c-0.08,0.11-0.23,0.17-0.34,0.1
		C177.1,144.26,177.04,144.1,177.1,143.97L177.1,143.97z M177.37,144.49c0.08-0.13,0.23-0.17,0.34-0.11
		c0.13,0.06,0.17,0.21,0.11,0.34c-0.08,0.11-0.23,0.17-0.34,0.1C177.37,144.75,177.31,144.6,177.37,144.49L177.37,144.49z
		 M177.61,142.9c-0.11-0.06-0.17-0.21-0.1-0.34c0.06-0.11,0.21-0.17,0.32-0.1c0.13,0.06,0.17,0.21,0.11,0.32
		C177.88,142.92,177.73,142.96,177.61,142.9L177.61,142.9z M177.35,143.23c0.1-0.21,0.34-0.29,0.55-0.17
		c0.19,0.1,0.27,0.34,0.17,0.55c-0.11,0.19-0.36,0.27-0.55,0.17C177.33,143.67,177.25,143.42,177.35,143.23L177.35,143.23z
		 M177.69,143.97c0.08-0.11,0.23-0.17,0.34-0.1c0.13,0.06,0.17,0.21,0.11,0.34c-0.08,0.11-0.23,0.17-0.34,0.1
		C177.67,144.26,177.63,144.1,177.69,143.97L177.69,143.97z M176.2,144.73c0.1-0.21,0.34-0.29,0.55-0.17
		c0.19,0.1,0.27,0.34,0.17,0.53c-0.11,0.21-0.36,0.29-0.55,0.17C176.18,145.17,176.11,144.93,176.2,144.73L176.2,144.73z
		 M174.69,145.54c0.11-0.19,0.36-0.27,0.55-0.17c0.21,0.11,0.29,0.36,0.17,0.55c-0.1,0.19-0.34,0.27-0.55,0.17
		C174.68,145.97,174.6,145.75,174.69,145.54L174.69,145.54z M175.8,143.27c0.02-0.04,0.1-0.06,0.15-0.04
		c0.04,0.02,0.08,0.1,0.04,0.15c-0.02,0.06-0.1,0.08-0.15,0.04C175.78,143.4,175.76,143.32,175.8,143.27L175.8,143.27z
		 M169.79,141.53l0.69-0.21l0.11,0.76l-0.57,0.17L169.79,141.53z M169.93,142.43l0.29,0.9l-0.4,0.11l-0.42-0.84L169.93,142.43z
		 M170.06,142.39l0.55-0.17l0.11,0.93l-0.4,0.11L170.06,142.39z M169.01,141.78l0.65-0.19l0.23,0.71l-0.55,0.17L169.01,141.78z
		 M133.11,75.87c0.46,0.74,0.97,1.13,1.56,1.11c-0.67,0.31-1.01,0.84-1.03,1.6c-0.17-0.71-0.65-1.07-1.45-1.11
		C132.9,77.37,133.2,76.84,133.11,75.87L133.11,75.87z M152.07,79.09c0.52,0.82,1.09,1.22,1.74,1.22c-0.74,0.32-1.11,0.9-1.14,1.76
		c-0.17-0.76-0.71-1.18-1.6-1.22C151.84,80.75,152.18,80.16,152.07,79.09L152.07,79.09z M120.86,118.75
		c0.4,0.63,0.84,0.93,1.34,0.93c-0.55,0.25-0.86,0.71-0.88,1.37c-0.13-0.61-0.55-0.92-1.24-0.95
		C120.69,120.03,120.94,119.57,120.86,118.75L120.86,118.75z M115.17,85.23c0.31,0.52,0.67,0.76,1.07,0.76
		c-0.46,0.19-0.69,0.55-0.71,1.07c-0.11-0.48-0.44-0.72-0.97-0.74C115.04,86.26,115.25,85.9,115.17,85.23L115.17,85.23z
		 M132.86,91.43c1.07,1.76,2.31,2.61,3.7,2.61c-1.58,0.69-2.38,1.95-2.44,3.78c-0.38-1.66-1.55-2.54-3.45-2.61
		C132.34,95,133.07,93.74,132.86,91.43L132.86,91.43z M176.55,69.06c1.07,1.74,2.31,2.61,3.7,2.59c-1.58,0.69-2.38,1.95-2.44,3.78
		c-0.38-1.66-1.53-2.52-3.45-2.59C176.03,72.6,176.76,71.34,176.55,69.06L176.55,69.06z M236.03,54.52
		c1.07,1.76,2.29,2.63,3.68,2.61c-1.56,0.69-2.38,1.95-2.42,3.78c-0.4-1.66-1.55-2.52-3.45-2.59
		C235.51,58.09,236.24,56.83,236.03,54.52L236.03,54.52z M165.23,62.87c0.5,0.82,1.07,1.22,1.72,1.22c-0.72,0.31-1.11,0.9-1.13,1.76
		c-0.19-0.78-0.72-1.18-1.62-1.22C164.98,64.53,165.33,63.94,165.23,62.87L165.23,62.87z M193.47,54.69
		c0.5,0.82,1.07,1.22,1.72,1.22c-0.72,0.32-1.11,0.9-1.14,1.76c-0.17-0.76-0.71-1.18-1.6-1.22
		C193.22,56.35,193.56,55.76,193.47,54.69L193.47,54.69z M218.32,72.57c0.52,0.82,1.09,1.22,1.74,1.22
		c-0.74,0.31-1.13,0.9-1.14,1.76c-0.17-0.78-0.71-1.18-1.6-1.22C218.1,74.23,218.44,73.63,218.32,72.57L218.32,72.57z M168.46,84.28
		c0.5,0.82,1.09,1.22,1.74,1.2c-0.74,0.32-1.13,0.92-1.14,1.77c-0.17-0.78-0.72-1.18-1.6-1.22
		C168.23,85.94,168.55,85.35,168.46,84.28L168.46,84.28z M217.45,48.97c0.5,0.82,1.07,1.22,1.72,1.22c-0.72,0.31-1.11,0.9-1.13,1.76
		c-0.19-0.78-0.72-1.18-1.62-1.22C217.2,50.63,217.54,50.04,217.45,48.97L217.45,48.97z M201.94,67.59c0.52,0.8,1.09,1.22,1.74,1.2
		c-0.74,0.32-1.11,0.92-1.14,1.77c-0.17-0.78-0.71-1.18-1.6-1.22C201.71,69.25,202.05,68.65,201.94,67.59L201.94,67.59z
		 M252.82,62.74c0.52,0.8,1.09,1.22,1.74,1.2c-0.74,0.32-1.11,0.92-1.14,1.77c-0.17-0.78-0.71-1.18-1.6-1.22
		C252.59,64.4,252.93,63.81,252.82,62.74L252.82,62.74z M239.33,78.02c0.5,0.8,1.07,1.22,1.72,1.2c-0.72,0.32-1.11,0.92-1.13,1.77
		c-0.19-0.78-0.72-1.18-1.6-1.22C239.08,79.68,239.42,79.09,239.33,78.02L239.33,78.02z M239.33,42.88c0.5,0.82,1.07,1.22,1.72,1.22
		c-0.72,0.32-1.11,0.92-1.13,1.76c-0.19-0.76-0.72-1.16-1.6-1.2C239.08,44.54,239.42,43.95,239.33,42.88L239.33,42.88z
		 M111.24,70.56c0.5,0.82,1.07,1.22,1.72,1.22c-0.72,0.32-1.11,0.92-1.13,1.76c-0.19-0.76-0.72-1.16-1.6-1.2
		C111,72.22,111.34,71.63,111.24,70.56L111.24,70.56z M96.04,99.46c0.5,0.82,1.07,1.22,1.72,1.22c-0.72,0.32-1.11,0.9-1.14,1.76
		c-0.17-0.76-0.71-1.18-1.6-1.22C95.79,101.12,96.14,100.53,96.04,99.46L96.04,99.46z"/>
</g>
</svg>
