<?xml version="1.0" encoding="utf-8"?>
<!-- Generator: Adobe Illustrator 27.8.1, SVG Export Plug-In . SVG Version: 6.00 Build 0)  -->
<svg version="1.1" id="Layer_1" xmlns="http://www.w3.org/2000/svg" xmlns:xlink="http://www.w3.org/1999/xlink" x="0px" y="0px"
	 viewBox="0 0 350 230" style="enable-background:new 0 0 350 230;" xml:space="preserve">
<style type="text/css">
	.st0{fill:#EAE4B0;}
	.st1{fill:#332700;}
	.st2{fill:#EBEBFF;}
	.st3{fill:#FBFFAE;}
	.st4{fill:#B0FFD5;}
	.st5{fill:#B3FFFB;}
	.st6{fill:#FFFAB6;}
	.st7{fill:#2B2700;}
	.st8{fill:#FFFFB8;}
	.st9{fill:#040028;}
	.st10{fill:#260000;}
	.st11{opacity:0.5;fill:#848484;}
	.st12{fill:#2B2401;}
	.st13{fill:#FF7C6C;}
	.st14{fill:#CC2D21;}
	.st15{fill:#F75C4C;}
	.st16{fill:#FFE5CF;}
	.st17{fill:#FFFFFF;}
	.st18{fill:#CFDAE3;}
	.st19{fill:#006C11;}
	.st20{fill:#A11E10;}
	.st21{fill:#EDBC93;}
	.st22{fill:#898989;}
	.st23{fill:#2B1536;}
	.st24{fill:#15352A;}
	.st25{fill:#E4EAF5;}
	.st26{fill:#F2F5F5;}
	.st27{fill:#D6363D;}
	.st28{fill:#600000;fill-opacity:0.5098;}
	.st29{fill:#F2CCA3;}
	.st30{fill:#D28F5F;}
	.st31{fill:#FF0000;fill-opacity:0.5098;}
	.st32{fill:#C7D5F5;}
	.st33{fill:#F3DBC0;}
	.st34{fill:#F58086;}
	.st35{fill:url(#SVGID_1_);}
	.st36{fill:#FCC7A2;}
	.st37{fill:url(#SVGID_00000093172681096902852140000009877989368441136560_);}
	.st38{fill:#E20328;}
	.st39{fill:url(#SVGID_00000112623276348697935900000010875815009275349664_);}
	.st40{fill:#F4BDA8;}
	.st41{fill:#DCF7F6;}
	.st42{fill:url(#SVGID_00000181053904886168702700000015524376883200546438_);}
	.st43{fill:url(#SVGID_00000009558473155142760530000008457925959912935843_);}
	.st44{fill:url(#SVGID_00000006702784743880293990000006700900612464372894_);}
	.st45{fill:url(#SVGID_00000074440317368736291770000006385457766988976517_);}
	.st46{fill:url(#SVGID_00000016793450046080641400000000789957527306568342_);}
	.st47{fill:url(#SVGID_00000178195209589615867760000008036086189026146442_);}
	.st48{fill:url(#SVGID_00000013903759551420364590000009398341630074424462_);}
	.st49{fill:url(#SVGID_00000141454783523138359050000012201084216795371402_);}
	.st50{fill:url(#SVGID_00000008859410704836436870000002105513391175091899_);}
	.st51{fill:#E2B881;}
	.st52{fill:#FFFFFF;stroke:#000000;stroke-width:0.05;stroke-miterlimit:10;}
	.st53{fill:url(#SVGID_00000032648662890031058220000009349865818063039404_);}
	.st54{fill:url(#SVGID_00000007426404344292707620000009216894694374500492_);}
	.st55{fill:#0B9ED8;}
	.st56{fill:#FCDFB0;}
	.st57{fill:#FF0013;}
	.st58{fill:url(#SVGID_00000131353355533641998570000008834468647662492038_);}
	.st59{fill:#0A50FF;}
	.st60{fill:#FFB773;}
	.st61{fill-rule:evenodd;clip-rule:evenodd;fill:url(#SVGID_00000025434906639005199080000017255439262605424513_);}
	.st62{fill:#FF334F;}
	.st63{fill:#FFAB66;}
	.st64{fill:#FF8B41;}
	.st65{fill:#BB386B;}
	.st66{fill:#CBCBCB;}
	.st67{fill:#D37250;}
	.st68{fill:#D06D2E;}
	.st69{fill-rule:evenodd;clip-rule:evenodd;fill:#FFFFFF;}
	.st70{fill:#CAFFEC;}
	.st71{fill:#FFF6B3;}
	.st72{fill:#FFFBD2;}
	.st73{fill:#EFFFD2;}
	.st74{fill:#A01D21;}
	.st75{fill:#00261B;}
	.st76{fill:#F4FFB6;}
	.st77{fill:url(#SVGID_00000041997288527100902840000015504703604089840034_);}
	.st78{fill:#002340;}
	.st79{fill:url(#SVGID_00000085237410046334563680000000055150601034207672_);}
	.st80{fill:url(#SVGID_00000037689905785660737540000016360978140190952844_);}
	.st81{fill:#D91215;}
	.st82{fill:#98BBCE;}
	.st83{fill:#00A70C;}
	.st84{fill:#C47E2A;}
	.st85{fill-rule:evenodd;clip-rule:evenodd;fill:#1F1D1D;}
	.st86{fill-rule:evenodd;clip-rule:evenodd;fill:#2B2700;}
	.st87{fill-rule:evenodd;clip-rule:evenodd;fill:#FF1943;}
	.st88{fill:url(#SVGID_00000065043854641375485490000009927624949815906236_);}
	.st89{fill:url(#SVGID_00000181804300422955395880000005909471113427972522_);}
	.st90{fill:url(#SVGID_00000052804725103459947470000003039989291229795217_);}
	.st91{fill:url(#SVGID_00000161627134545317180760000013925410868772202139_);}
	.st92{fill:url(#SVGID_00000147214414353119117860000014962807097087931272_);}
	.st93{fill:url(#SVGID_00000022551908526174286180000004840482753567117997_);}
	.st94{fill:#E31E26;}
	.st95{fill:#811517;}
	.st96{fill:url(#SVGID_00000054946603437553800050000003658014059652893366_);}
	.st97{fill:url(#SVGID_00000144313617376347731240000010679528662135856794_);}
	.st98{fill:url(#SVGID_00000057826696099110540590000005323466817059576237_);}
	.st99{fill:#B47920;}
	.st100{fill:#089E32;}
	.st101{fill:#FFE30B;}
	.st102{fill-rule:evenodd;clip-rule:evenodd;fill:#EE1D24;}
	.st103{fill:#17377D;}
	.st104{filter:url(#Adobe_OpacityMaskFilter);}
	.st105{opacity:0.28;mask:url(#SVGID_00000031889652157755804440000017755804594234729146_);}
	.st106{fill:#3A3132;}
	.st107{fill:url(#SVGID_00000008134289968854221270000011438185002444914052_);}
	.st108{filter:url(#Adobe_OpacityMaskFilter_00000075161423299396994860000016782872064498999938_);}
	.st109{opacity:0.28;mask:url(#SVGID_00000003795694095904195030000002734783503878935485_);}
	.st110{fill:#102A63;}
	.st111{filter:url(#Adobe_OpacityMaskFilter_00000081612857096909382570000014352874645526642063_);}
	.st112{opacity:0.28;mask:url(#SVGID_00000136373686367500824250000004253293867224873649_);}
	.st113{fill:#0E2458;}
	.st114{filter:url(#Adobe_OpacityMaskFilter_00000110461981737900248890000013491530032514109614_);}
	.st115{opacity:0.25;mask:url(#SVGID_00000117671285991091762200000014223535664800048305_);}
	.st116{fill:url(#SVGID_00000150784545883797999230000017076383456247849917_);}
	.st117{fill:#00BEC6;}
	.st118{fill:url(#SVGID_00000148628687855769692960000004217838102542002861_);}
	.st119{fill:url(#SVGID_00000149377680098243753510000005910363941244308148_);stroke:#FFFFFF;stroke-miterlimit:10;}
	
		.st120{fill:url(#SVGID_00000156583637462953103990000004525477035767336622_);stroke:#FFFFFF;stroke-width:0.5;stroke-miterlimit:10;}
	.st121{fill:url(#SVGID_00000054943920219807442940000002853355502621243825_);}
	.st122{fill:#F9D075;}
	.st123{fill:#FFEF92;}
	.st124{fill:url(#SVGID_00000018938648119029893520000003908980533419919512_);}
	.st125{fill:url(#SVGID_00000136401240833821000600000018197606770730857607_);}
	.st126{fill:url(#SVGID_00000138553037541081316820000009332815090197557655_);}
	.st127{fill:#09890F;}
	.st128{fill:#A9CE4D;}
	.st129{fill:#FF9501;}
	.st130{fill:#AA1523;}
	.st131{fill:#006B52;}
	.st132{fill:#EEC200;}
	.st133{fill:#9F4641;}
	.st134{fill:url(#SVGID_00000167381758839182112800000009939394471921835395_);stroke:#FFFFFF;stroke-miterlimit:10;}
	.st135{fill:none;stroke:#FFFFFF;stroke-width:1.7883;stroke-miterlimit:10;}
	.st136{fill:none;stroke:#BFDADD;stroke-width:2;stroke-linecap:round;stroke-linejoin:round;stroke-miterlimit:10;}
	.st137{fill:none;stroke:#016D39;stroke-width:2;stroke-linecap:round;stroke-linejoin:round;stroke-miterlimit:10;}
	.st138{fill:none;stroke:#00BFAD;stroke-width:2;stroke-linecap:round;stroke-linejoin:round;stroke-miterlimit:10;}
	.st139{fill:#12162E;}
	.st140{fill:none;stroke:#12162E;stroke-miterlimit:10;}
	.st141{fill:#016D39;}
	.st142{fill:#083F24;}
	.st143{fill:#FF5635;}
	.st144{fill:#C63724;}
	.st145{fill:#FFBE00;}
	.st146{fill:#00BFAD;}
	.st147{fill:#D1D3D3;}
	.st148{fill:#9A4641;}
	.st149{fill:url(#SVGID_00000162329203890984468880000007632579228318113723_);}
	.st150{fill:url(#SVGID_00000147190855281353001100000005825642126384127626_);stroke:#FFFFFF;stroke-miterlimit:10;}
	.st151{fill:#F75D58;}
	.st152{fill:url(#SVGID_00000020357798938549997090000016911657554719665547_);}
	.st153{opacity:0.42;fill:#FFFFFF;}
	.st154{fill:#229200;}
	.st155{fill:#FF0000;}
	.st156{fill:#0C1F26;}
	.st157{fill:#E43724;}
	.st158{fill:#6B2422;}
	.st159{fill:#FBF1E5;}
	.st160{fill:#FAF8F0;}
	.st161{fill:#EEEEED;}
	.st162{fill:#DBDEDD;}
	.st163{fill:#A6453D;}
	.st164{fill:#E3E4E7;}
	.st165{fill:#D2301D;}
	.st166{fill:#E2D7D0;}
	.st167{fill:#FCF8EF;}
	.st168{fill:#C42C1E;}
	.st169{fill:#0C232B;}
	.st170{fill:#0D3B6E;}
	.st171{fill:#139AEC;}
	.st172{fill:#F52A3C;}
	.st173{fill:url(#SVGID_00000017506372924237902380000010499822056310122940_);}
	.st174{fill:#890924;}
	.st175{fill:url(#SVGID_00000158723477442319242850000011765580939170647964_);}
	.st176{fill-rule:evenodd;clip-rule:evenodd;fill:url(#SVGID_00000166672454233662543790000001096421122350285441_);}
	.st177{fill-rule:evenodd;clip-rule:evenodd;fill:#CE1515;}
	.st178{fill-rule:evenodd;clip-rule:evenodd;fill:#FFFBDD;}
	.st179{fill-rule:evenodd;clip-rule:evenodd;fill:#06542B;}
	.st180{fill-rule:evenodd;clip-rule:evenodd;fill:#AA1111;}
	.st181{fill:#005C01;}
	.st182{fill:#F5AB35;}
	.st183{fill-rule:evenodd;clip-rule:evenodd;fill:#215605;}
	.st184{fill:#215605;}
	.st185{fill-rule:evenodd;clip-rule:evenodd;fill:url(#SVGID_00000106852842865279449850000000011005297911845760_);}
	.st186{fill:url(#SVGID_00000053535415009520032670000014833535804709476996_);}
	.st187{fill:url(#SVGID_00000083070701816748867500000015992817901888883075_);}
	.st188{fill:url(#SVGID_00000134244710372688827980000013333699447283577766_);}
	.st189{fill:url(#SVGID_00000079483511146080974000000008808682883504711848_);}
	.st190{fill:url(#SVGID_00000052085501535548935970000013763468407491428786_);}
	.st191{fill:url(#SVGID_00000152950675623088583410000012392650866040546971_);}
	.st192{fill:url(#SVGID_00000080165632107705307850000004988332536543916974_);}
	.st193{fill:url(#SVGID_00000181050559238150306140000012879948945972039096_);}
	.st194{fill:url(#SVGID_00000021112168182016234370000012521384222770685625_);}
	.st195{fill:#B6FFFF;}
	.st196{fill:url(#SVGID_00000007405288436110793860000016967491962285624229_);}
	.st197{fill:url(#SVGID_00000008859737609478698440000011747418018977528487_);}
	.st198{fill:url(#SVGID_00000085949145587199558220000015174762328797763743_);}
	.st199{fill:url(#SVGID_00000108268056182080537110000003619602494058200490_);}
	.st200{fill:url(#SVGID_00000124846018756214461100000010857350686082922405_);}
	.st201{fill:url(#SVGID_00000108302081653070010460000005048866464170191033_);}
	.st202{fill:url(#SVGID_00000163772389576652768880000006837994589150358440_);}
	.st203{fill:url(#SVGID_00000093174436439429337080000007529012390333963914_);}
	.st204{fill:url(#SVGID_00000036955587927313557040000007515547759157940099_);}
	.st205{fill:url(#SVGID_00000032633443744634493250000004355123391723846589_);}
	.st206{fill:url(#SVGID_00000009560234369462135780000003482843706199076265_);}
	.st207{fill:url(#SVGID_00000039847897196152805810000015554234811558275755_);}
	.st208{fill:url(#SVGID_00000107560252455192105320000012331179325707652772_);}
	.st209{fill:url(#SVGID_00000059310178930041314160000012218882275109372575_);}
	.st210{fill:url(#SVGID_00000151528805964262341110000006699883277049903545_);}
	.st211{fill:url(#SVGID_00000138531400289849065040000009959585607878538886_);}
	.st212{fill:#CE4A43;}
	.st213{fill:url(#SVGID_00000116933791656521146380000006080052855677480095_);}
	.st214{fill:#CE4A43;stroke:#FFFFFF;stroke-miterlimit:10;}
	.st215{fill:none;stroke:#CE4A43;stroke-miterlimit:10;}
</style>
<path class="st17" d="M173.85,23.62l1.59,3.23l3.56,0.52l-2.58,2.51l0.61,3.55l-3.19-1.68l-3.19,1.68l0.61-3.55l-2.58-2.51
	l3.56-0.52L173.85,23.62z M261.85,117.59c-6.33-2.98-12.78-5.62-19.32-7.93c-4.01,4.22-7.87,8.55-11.55,12.97
	c2.07-6.58,4.13-13.16,6.2-19.74c-41.22-12.94-85.45-12.94-126.66,0c2.07,6.58,4.13,13.16,6.2,19.74
	c-3.68-4.42-7.54-8.74-11.55-12.97c-6.54,2.3-12.98,4.94-19.32,7.93c4.54,1.68,8.95,3.5,13.22,5.47c-1.65,4.41-3.12,8.83-4.42,13.25
	c13.43-6.32,27.43-10.95,41.7-13.88c-0.32-1.54-0.64-3.09-0.95-4.63c25.36-5.22,51.54-5.22,76.91,0c-0.32,1.54-0.64,3.09-0.95,4.63
	c14.26,2.94,28.26,7.56,41.7,13.88c-1.29-4.42-2.77-8.84-4.42-13.25C252.91,121.09,257.32,119.26,261.85,117.59z M237.18,102.89
	c-41.22-12.94-85.45-12.94-126.66,0 M170.7,82.56c-0.38,2.49-1.98,4.76-2.98,7.14c-0.58,0.03-1.14,0.1-1.72,0.14
	c5.23-0.19,10.47-0.19,15.7,0c-0.64-0.05-1.27-0.12-1.91-0.16c-1.01-2.37-2.6-4.64-2.98-7.12c12.03-0.44,24-3.43,35.03-9.05
	c-7.07-1.49-13.51-3.93-19.18-7.06c2.72-0.76,5.4-1.68,8.03-2.78c-5.83-2.31-11-5.36-15.41-8.92c1.94-0.4,3.86-0.9,5.76-1.5
	c-7.78-4.99-13.64-11.54-17.29-18.65c-3.65,7.11-9.51,13.66-17.29,18.65c1.9,0.6,3.82,1.1,5.76,1.5c-4.41,3.55-9.58,6.6-15.41,8.92
	c2.63,1.09,5.31,2.02,8.03,2.78c-5.67,3.13-12.11,5.57-19.18,7.06C146.71,79.12,158.67,82.12,170.7,82.56z M210.48,82.19
	c-2.72,1.22-5.75,2.07-9.02,2.47c1.19,0.91,2.43,1.74,3.71,2.49c-3.3,0.83-6.9,1.21-10.69,1.02c1.18,1.06,2.42,2.02,3.7,2.93
	c11.59,1.34,23.1,3.68,34.4,6.95c-3.13-1.65-5.88-3.62-8.19-5.82c1.48-0.02,2.97-0.13,4.45-0.33c-2.65-1.96-4.87-4.2-6.63-6.6
	c1.04,0.06,2.08,0.06,3.13,0.01c-3.28-3.58-5.38-7.69-6.29-11.79c-2.81,3.12-6.66,5.67-11.29,7.16
	C208.64,81.22,209.55,81.73,210.48,82.19z M118.87,91.88c1.48,0.2,2.97,0.31,4.45,0.33c-2.31,2.2-5.06,4.18-8.19,5.82
	c11.3-3.27,22.8-5.6,34.4-6.95c1.27-0.91,2.52-1.87,3.7-2.93c-3.79,0.19-7.39-0.19-10.69-1.02c1.28-0.75,2.52-1.58,3.71-2.49
	c-3.27-0.4-6.31-1.25-9.02-2.47c0.93-0.46,1.84-0.98,2.73-1.54c-4.62-1.49-8.48-4.04-11.29-7.16c-0.9,4.1-3,8.22-6.29,11.79
	c1.05,0.05,2.09,0.05,3.13-0.01C123.74,87.68,121.52,89.92,118.87,91.88z M171.08,124.98c0.68,2.06,0.2,4.43-1.44,6.07l-2.82,2.82
	c-0.53,0.53-0.68,1.32-0.4,2.02c0.63,1.54,0.68,2.8,0.02,3.46c-1.42,1.42-5.6-0.45-9.33-4.19c-3.73-3.73-5.61-7.91-4.19-9.33
	c0.66-0.66,1.93-0.61,3.46,0.02c0.69,0.28,1.49,0.13,2.01-0.4l2.82-2.82c1.64-1.64,4-2.12,6.07-1.44c0.01-0.01,0.01-0.01,0.02-0.02
	c1.05-1.05,2.74-1.05,3.79,0c1.05,1.05,1.05,2.74,0,3.79C171.09,124.97,171.09,124.98,171.08,124.98z M161.15,131.14
	c-2.85-2.85-6-4.34-7.03-3.31c-1.03,1.03,0.45,4.17,3.31,7.03c2.85,2.85,6,4.34,7.03,3.31S164,133.99,161.15,131.14z M168.74,123.55
	c-1.84-1.84-4.83-1.84-6.67,0L160.6,125c-0.23,0.23-0.23,0.6,0,0.82c0.23,0.23,0.6,0.23,0.82,0l0.64-0.64
	c1.84-1.84,4.83-1.84,6.67,0v0c0.71,0.71,1.14,1.59,1.31,2.51C170.3,126.24,169.87,124.68,168.74,123.55z M162.1,134.08
	c-0.01,0.01-0.02,0.02-0.03,0.03c-0.77,0.77-0.77,2.01,0,2.78c0.59,0.59,1.47,0.71,2.19,0.38
	C164.28,136.07,162.75,134.63,162.1,134.08z M176.6,124.97c-1.05-1.05-1.05-2.74,0-3.79c1.05-1.05,2.74-1.05,3.79,0
	c0.01,0.01,0.01,0.01,0.02,0.02c2.06-0.68,4.43-0.2,6.07,1.44l2.82,2.82c0.53,0.53,1.32,0.68,2.01,0.4c1.54-0.63,2.8-0.68,3.46-0.02
	c1.42,1.42-0.45,5.6-4.19,9.33c-3.73,3.73-7.91,5.61-9.33,4.19c-0.66-0.66-0.61-1.93,0.02-3.46c0.28-0.69,0.13-1.49-0.4-2.02
	l-2.82-2.82c-1.64-1.64-2.12-4-1.44-6.07C176.62,124.98,176.61,124.97,176.6,124.97z M183.25,138.16c1.03,1.03,4.17-0.45,7.03-3.31
	c2.85-2.85,4.34-6,3.31-7.03c-1.03-1.03-4.17,0.45-7.03,3.31C183.7,133.99,182.22,137.14,183.25,138.16z M177.66,127.71
	c0.16-0.92,0.6-1.8,1.31-2.51v0c1.84-1.84,4.83-1.84,6.67,0l0.64,0.64c0.23,0.23,0.6,0.23,0.82,0c0.23-0.23,0.23-0.6,0-0.82
	l-1.46-1.46c-1.84-1.84-4.83-1.84-6.67,0C177.84,124.68,177.4,126.24,177.66,127.71z M183.45,137.27c0.72,0.33,1.6,0.21,2.19-0.38
	c0.77-0.77,0.77-2.01,0-2.78c-0.01-0.01-0.02-0.02-0.03-0.03C184.95,134.63,183.43,136.07,183.45,137.27z M288.6,186.86H59.1v1.6
	H288.6V186.86z"/>
</svg>
