<?xml version="1.0" encoding="utf-8"?>
<!-- Generator: Adobe Illustrator 26.0.1, SVG Export Plug-In . SVG Version: 6.00 Build 0)  -->
<svg version="1.1" id="Layer_1" xmlns="http://www.w3.org/2000/svg" xmlns:xlink="http://www.w3.org/1999/xlink" x="0px" y="0px"
	 viewBox="0 0 350 230" style="enable-background:new 0 0 350 230;" xml:space="preserve">
<style type="text/css">
	.st0{fill:#FFF6CF;}
	.st1{fill:#F5FFD2;}
	.st2{fill:#DEFFCF;}
	.st3{fill:#FFEFD4;}
	.st4{fill:#CAFFCA;}
	.st5{fill:#D2E2FF;}
	.st6{fill:#FFE1E1;}
	.st7{fill:#D2FFFD;}
	.st8{fill:#FFD4FB;}
	.st9{fill:url(#SVGID_1_);}
	.st10{fill:url(#SVGID_00000125601193054479421000000009773640812868422072_);}
	.st11{fill:url(#SVGID_00000106117996767500390920000016577612727479031201_);}
	.st12{fill:url(#SVGID_00000058552836786002739490000009982334860770314886_);}
	.st13{fill:url(#SVGID_00000165946177753209367830000010415226925160009910_);}
	.st14{fill:url(#SVGID_00000133504882799831621210000016979560282729063358_);}
	.st15{fill:url(#SVGID_00000047030450197896910080000001109121197308759705_);}
	.st16{fill:url(#SVGID_00000173865691647207365400000007543203088729489574_);}
	.st17{fill:#00512C;}
	.st18{fill:url(#SVGID_00000105407052256355675320000011643192061970728335_);}
	.st19{fill:#21B5C1;}
	.st20{fill:url(#SVGID_00000086693258643383095160000018176695432948772260_);}
	.st21{fill:url(#SVGID_00000087407217092907251920000017441176213220831896_);}
	.st22{fill:url(#SVGID_00000045606094135389619580000009210614354461348250_);}
	.st23{fill:url(#SVGID_00000115505993861279107630000002564535197775521418_);}
	.st24{fill:url(#SVGID_00000147222226473471233050000006617759905246042498_);}
	.st25{fill:url(#SVGID_00000045603117485098033110000009869227530040614837_);}
	.st26{fill:url(#SVGID_00000003798438688251360390000015460541903328823466_);}
	.st27{fill:url(#SVGID_00000125568969941556933780000012644578782893236905_);}
	.st28{fill:url(#SVGID_00000149355387549801356620000011544267653194480276_);}
	.st29{fill:url(#SVGID_00000134969987401910615560000011289624377039964579_);}
	.st30{fill:url(#SVGID_00000071539781844244124860000017757217530690211475_);}
	.st31{fill:url(#SVGID_00000101078802227336250450000006435761716440320399_);}
	.st32{fill:url(#SVGID_00000037675822930163168080000004152441869698349231_);}
	.st33{fill:url(#SVGID_00000137113119964613711490000013478479249235199160_);}
	.st34{fill:url(#SVGID_00000092447359859160396300000008377446842578276745_);}
</style>
<radialGradient id="SVGID_1_" cx="175.5066" cy="98.0378" r="70.661" gradientUnits="userSpaceOnUse">
	<stop  offset="0" style="stop-color:#EE2A7B"/>
	<stop  offset="0.067" style="stop-color:#D02368"/>
	<stop  offset="0.1778" style="stop-color:#A41A4E"/>
	<stop  offset="0.2938" style="stop-color:#7E1237"/>
	<stop  offset="0.4139" style="stop-color:#600C24"/>
	<stop  offset="0.5392" style="stop-color:#480615"/>
	<stop  offset="0.672" style="stop-color:#37030B"/>
	<stop  offset="0.8176" style="stop-color:#2D0105"/>
	<stop  offset="1" style="stop-color:#2A0003"/>
</radialGradient>
<path class="st9" d="M194.68,31.17c0.93,0.28,1.74,0.5,2.52,0.78c18.17,6.35,32.78,22.72,37.03,41.52c0.4,1.75,0.68,3.54,0.92,5.32
	c0.06,0.44-0.09,1.07-0.39,1.36c-1.4,1.36-2.89,2.63-4.39,3.97c-0.14-1.11-0.27-2.23-0.42-3.34c-2.3-17.56-14.1-33.7-30.19-41.29
	c-0.84-0.4-1.7-0.77-2.56-1.14c-0.55-0.24-0.96-0.61-0.89-1.24c0.22-2.06-0.51-3.85-1.5-5.58
	C194.79,31.48,194.78,31.41,194.68,31.17z M151.99,32.64c-14.12,5.8-24.39,15.73-31.17,29.32c-2.7,5.42-4.53,11.15-5.01,17.23
	c-0.03,0.32,0.15,0.76,0.39,0.99c1.28,1.2,2.61,2.35,3.92,3.52c0.12,0.11,0.27,0.19,0.31,0.22c0.52-2.79,0.88-5.6,1.58-8.33
	c3.25-12.64,10.05-22.95,20.46-30.85c3.52-2.67,7.38-4.79,11.46-6.48c0.61-0.25,0.8-0.59,0.77-1.25c-0.04-0.76-0.03-1.57,0.18-2.3
	c0.33-1.17,0.84-2.3,1.33-3.59C154.75,31.64,153.35,32.09,151.99,32.64z M227.51,106.46c1.72-2.9,2.33-6.06,2.16-9.38
	c-0.11-2.24-0.31-4.47-0.46-6.61c-4.99,4.9-5.81,11.32-2.07,16.56C227.27,106.83,227.4,106.65,227.51,106.46z M242.36,103.56
	c2.15-1.4,4.84-4.96,4.99-6.67c-2.25,1.29-4.68,2.04-7.16,2.66c-2.74,0.68-4.68,2.42-6.25,4.8
	C236.88,104.83,239.71,105.28,242.36,103.56z M231.96,100.04c0.06-0.02,0.14-0.02,0.18-0.06c0.28-0.29,0.57-0.59,0.84-0.89
	c1.93-2.22,3.42-4.66,3.77-7.66c0.25-2.12,0.44-4.24,0.67-6.46C232.99,87.67,229.77,96.69,231.96,100.04z M175.13,139.09
	c0.32-1.53,0.55-3.09,0.97-4.6c1.09-3.95,3.29-7.24,6.3-9.99c1.75-1.6,3.5-3.2,5.3-4.75c2.68-2.3,3.65-5.25,3.2-8.65
	c-0.23-1.75-0.76-3.46-1.16-5.19c-0.14-0.62-0.51-0.69-1.08-0.56c-1.51,0.35-3.03,0.66-4.55,0.95c-0.46,0.09-0.96,0.09-1.43,0.06
	c-1.48-0.1-2.21-0.96-1.96-2.43c0.13-0.78,0.16-1.41-0.55-1.94c-0.37-0.28-0.26-0.7,0.1-1c0.18-0.16,0.38-0.3,0.64-0.5
	c-0.24-0.11-0.39-0.19-0.55-0.26c-0.56-0.25-0.75-0.61-0.59-1.25c0.41-1.64,0.38-1.65-1.11-2.43c-0.16-0.08-0.33-0.16-0.48-0.26
	c-0.74-0.44-0.85-0.87-0.36-1.57c0.56-0.81,1.18-1.57,1.72-2.39c0.38-0.59,0.71-1.22,0.99-1.87c0.35-0.84,0.22-1.26-0.5-1.86
	c-1.5-1.25-2.59-2.77-2.99-4.7c-0.69-3.34,0.28-6.25,3.02-8.18c6.08-4.29,12.8-5.72,20.05-3.53c2.84,0.86,5.21,2.58,7.29,4.7
	c0.31,0.32,0.57,0.7,0.89,1.1c-0.56,0.15-1.05,0.24-1.51,0.4c-1.65,0.6-2.18,1.6-1.76,3.29c0.1,0.41,0.17,0.83,0.29,1.45
	c0.87-0.83,1.66-1.58,2.45-2.33c0.05,0.04,0.1,0.08,0.15,0.11c-0.63,0.87-1.26,1.74-1.88,2.6c1.85,0.91,3.41-0.42,3.88-3.49
	c0.15,0.21,0.28,0.36,0.38,0.52c1.45,2.33,2.08,4.91,2.16,7.61c0.06,1.89,0.07,3.79-0.09,5.67c-0.62,7.16,2.42,12.72,7.48,17.43
	c0.19,0.18,0.41,0.32,0.68,0.46c-1.88-4.22-1.31-8.23,0.92-12.24c0.91,2.91,2.45,5.48,2.73,8.47c0.15,1.65,0.09,3.29-0.36,4.88
	c-0.19,0.66,0.04,0.95,0.62,1.08c0.31,0.07,0.63,0.14,0.94,0.13c0.15-0.01,0.4-0.16,0.44-0.3c1.63-5.53,5.16-9.9,8.74-14.23
	c1.32-1.6,2.58-3.25,3.85-4.89c0.78-1.01,1.05-2.1,0.68-3.4c-0.37-1.31-0.19-2.65,0.37-3.88c1.74-3.83,4.88-6.26,8.44-8.42
	c0.03,0.29,0.05,0.45,0.06,0.62c0.04,2.72,0.06,5.43-0.73,8.07c-0.61,2.05-1.54,3.9-3.26,5.26c-1.03,0.82-2.19,1.35-3.58,1.65
	c0.42-1.17,0.8-2.24,1.17-3.3c-0.03-0.02-0.06-0.04-0.1-0.06c-0.18,0.31-0.41,0.61-0.53,0.94c-1.6,4.44-4.51,8.03-7.46,11.62
	c-2.44,2.97-4.55,6.18-5.75,9.87c-0.27,0.83-0.65,1.21-1.51,1.35c-3.49,0.55-6.94,1.33-10.44,1.73c-3.35,0.38-6.65-0.14-9.66-1.83
	c-3.13-1.76-4.97-4.55-6.08-7.88c-0.92-2.77-1.22-5.65-1.51-8.53c-0.06-0.58-0.12-1.15-0.34-1.75c-0.04,0.06-0.1,0.12-0.11,0.18
	c-0.54,3.27-0.92,6.56-0.29,9.86c1.32,6.92,6.07,10.9,13.11,11.01c0.37,0.01,0.75,0,1.24,0c-3.25,1.97-7.14,1.77-10.07-0.43
	c-3.52-2.64-5.47-6.12-5.6-10.54c-0.07-2.55-0.01-5.1-0.01-7.82c-0.27,1.09-0.5,2.04-0.74,2.99c-0.67,2.67-0.92,5.35-0.29,8.06
	c1.13,4.86,4.14,8,8.79,9.65c0.41,0.14,0.81,0.29,1.36,0.48c-0.45,0.2-0.77,0.35-1.09,0.49c-5.81,2.56-11.29,5.65-16.09,9.86
	c-5.39,4.73-9.62,10.32-12.6,16.85c-0.07,0.16-0.16,0.32-0.28,0.57c-0.11-0.2-0.2-0.32-0.25-0.45c-4.45-9.92-11.64-17.32-20.9-22.83
	c-5.2-3.09-10.66-5.58-16.47-7.25c-0.31-0.09-0.62-0.14-0.93-0.2c-0.99-0.17-1.14-0.47-0.62-1.32c0.47-0.78,0.96-1.55,1.42-2.34
	c0.63-1.06,1.28-2.11,1.87-3.18c0.24-0.44,0.55-0.59,1.04-0.58c2.75,0.04,5.28,0.9,7.74,2.04c2.54,1.17,4.93,2.57,6.93,4.56
	c0.05,0.05,0.13,0.09,0.28,0.05c-0.09-0.13-0.18-0.27-0.28-0.4c-3.43-4.09-7.84-6.6-12.9-8.08c-1.04-0.3-1.06-0.32-0.61-1.27
	c0.62-1.32,1.29-2.62,1.92-3.93c0.18-0.37,0.39-0.45,0.76-0.28c0.39,0.17,0.8,0.29,1.27,0.46c0.19-2.62,0.41-5.12-0.85-7.53
	c-1.73-3.29-3.31-6.66-4.25-10.28c-0.51-1.95-0.69-3.9-0.12-5.87c0.51-1.76,1.5-3.14,3.08-4.12c0.29-0.18,0.58-0.56,0.62-0.88
	c0.39-3.27,2.33-5.3,5.19-6.61c2.57-1.18,5.27-1.34,8.04-1.1c3.45,0.3,6.61,1.48,9.71,3.12c0.06-0.22,0.12-0.41,0.17-0.59
	c0.05-0.17,0.1-0.35,0.17-0.59c0.48,0.22,0.93,0.41,1.37,0.63c2.32,1.12,4.67,1.02,7.05,0.18c1.27-0.45,1.37-0.37,1.23,0.98
	c-0.39,3.81-2.02,6.87-5.39,8.87c-0.56,0.33-0.66,0.73-0.46,1.38c0.45,1.43,0.83,2.89,1.14,4.35c0.09,0.43-0.06,0.99-0.27,1.4
	c-0.35,0.7-0.34,1.38-0.05,2.05c0.55,1.3,1.16,2.57,1.75,3.86c0.29,0.62,0.6,1.23,0.88,1.85c0.4,0.89,0.32,1.06-0.61,1.4
	c-0.4,0.15-0.83,0.26-1.25,0.34c-0.64,0.13-0.98,0.45-0.87,1.14c0.03,0.18,0.02,0.36,0.04,0.55c0.07,1.09-0.02,1.23-1.03,1.6
	c-0.01,0.04-0.03,0.09-0.02,0.12c0.65,1.02,0.62,0.99-0.15,2c-0.27,0.35-0.35,0.86-0.48,1.31c-0.05,0.16,0.02,0.36,0.04,0.54
	c0.2,2.16-1,3.31-3.15,2.9c-1.75-0.33-3.47-0.77-5.2-1.19c-0.45-0.11-0.61-0.01-0.69,0.44c-0.42,2.17-0.82,4.34-1.34,6.48
	c-0.21,0.89-0.09,1.53,0.52,2.23c3.97,4.57,7.57,9.42,10.35,14.83c1.7,3.31,3.13,6.74,4.13,10.33
	C175.05,139.04,175.1,139.07,175.13,139.09z M201.02,82.13c-1.51,0.15-2.81,0.6-3.27,2.07c-0.43,1.35-0.62,2.78-0.91,4.17
	c0.05,0.03,0.11,0.06,0.16,0.09c1.72-1.09,3.96-0.39,5.67-1.79c-0.21,1.73,0.38,3,1.72,3.93c0.68,0.48,1.35,0.97,2.07,1.49
	c0.68-1.55,1.42-3.13,1.27-4.95c1.32,0.26,1.82,0.58,3.42,2.15c-0.39-3.52-2.83-5.89-5.31-5.08c0.13,0.25,0.25,0.48,0.38,0.72
	c-0.2-0.04-0.3-0.15-0.43-0.24c-0.29-0.19-0.48-0.11-0.5,0.25c-0.05,0.88-0.11,1.77-0.13,2.65c-0.01,0.41,0.05,0.81,0.08,1.22
	c-0.08,0.01-0.16,0.02-0.24,0.03c-0.24-1.36-0.49-2.73-0.74-4.14c-0.33,0.28-0.63,0.53-0.9,0.76c0-0.57,0.19-1.22-0.05-1.6
	c-0.26-0.4-0.92-0.55-1.55-0.89c0.6-0.13,1.06-0.24,1.58-0.36c-0.83-1.3-1.82-2.43-2.15-3.93c0.99,1.28,1.99,2.56,3.07,3.94
	c0.47-1.79,0.62-3.4-0.71-4.69c-1.52-1.48-3.44-1.55-5.43-1.4C198.96,79.99,199.33,80.7,201.02,82.13z M164.79,71.52
	c-4.35,1.35-8.77,2.04-13.28,2.24c3.16-1.59,6.84-1.85,9.84-3.83c-4.51,0.54-9.18,0.26-13.28,2.8c1.28-2.53,3.67-3.67,6.02-4.88
	c-1.8,0.27-3.44,0.89-4.91,1.94c-1.37,0.98-2.2,2.32-2.64,3.95c-0.12,0.47-0.44,0.94-0.79,1.27c-0.79,0.75-1.38,1.6-1.72,2.62
	c0.24-0.15,0.45-0.33,0.65-0.51c0.97-0.92,2.09-1.55,3.44-1.67c2.15-0.2,4.31-0.36,6.47-0.53c3.12-0.24,6.13-0.91,8.87-2.48
	C163.93,72.17,164.35,71.82,164.79,71.52z M187.36,86.74c-3.24-1.63-5.59-4-6.49-7.67c-0.13,0.9-0.25,1.78-0.11,2.63
	c0.42,2.56,1.89,4.46,4.01,5.86c4.03,2.65,8.5,3.37,13.22,2.86c0.74-0.08,1.47-0.32,2.2-0.49c-8.56-0.37-14.65-3.94-17.11-12.71
	C182.79,81.28,184.58,84.22,187.36,86.74z M148.88,81.18c2.98-1.03,6.07-0.82,9.14-0.92c1.52-0.05,3.05-0.19,4.55-0.43
	c2.37-0.38,4.59-1.2,6.43-2.82c0.36-0.32,0.67-0.71,1-1.06c-0.04-0.04-0.08-0.08-0.11-0.13c-2.42,1.56-5.12,2.21-7.93,2.55
	c-3.05,0.37-6.11,0.76-9.15,1.19C151.37,79.76,150.04,80.26,148.88,81.18z M186.79,90.55c-0.03,0.06-0.07,0.13-0.1,0.19
	c1.15,0.61,2.27,1.31,3.47,1.81c2.44,1.03,5.07,1.24,7.68,1.51c2.49,0.26,4.91,0.72,7.09,2.04c0.44,0.27,0.85,0.57,1.37,0.92
	c-0.07-0.17-0.08-0.24-0.11-0.28c-0.14-0.15-0.28-0.3-0.44-0.43c-1.87-1.56-3.97-2.7-6.35-3.17c-3.1-0.62-6.24-1.08-9.34-1.67
	C188.94,91.27,187.87,90.87,186.79,90.55z M152.84,76.27c2.99,0.51,5.96,0.75,8.92-0.06c1.94-0.53,3.72-1.37,5.24-2.69
	c0.54-0.47,0.97-1.07,1.44-1.62c-0.05-0.05-0.11-0.1-0.16-0.15c-0.07,0.04-0.15,0.08-0.22,0.13c-3.06,2.06-6.45,3.25-10.09,3.74
	C156.26,75.85,154.55,76.06,152.84,76.27z M210.95,112.83c0.05-0.08,0.09-0.17,0.14-0.25c-4.53-2.59-7.05-6.57-8.06-11.61
	c-0.07,0.27-0.12,0.51-0.11,0.76c0.23,4.37,2.13,7.81,5.78,10.22C209.36,112.38,210.19,112.54,210.95,112.83z M157.3,89.35
	c0.06-0.04,0.11-0.07,0.17-0.11c-0.23-0.48-0.41-0.99-0.7-1.42c-0.6-0.88-1.51-1.21-2.43-0.99c-0.88,0.22-1.46,0.93-1.61,1.99
	c-0.26,1.76,0.72,3.76,2.27,4.63c0.36,0.2,0.74,0.36,1.11,0.55c-0.01-0.19-0.08-0.25-0.16-0.28c-1.76-0.76-2.66-2.38-2.35-4.23
	c0.12-0.69,0.41-1.26,1.12-1.51c0.68-0.23,1.25,0.03,1.75,0.48C156.77,88.73,157.03,89.05,157.3,89.35z M189.3,75.15
	c-0.05,0.04-0.09,0.07-0.14,0.11c0.5,0.76,0.96,1.57,1.52,2.28c1.49,1.88,3.29,3.34,5.7,3.85c0.55,0.12,1.13,0.07,1.7,0.09
	C194.65,80,191.66,78.02,189.3,75.15z M153.89,82.85c0,0.08-0.01,0.16-0.01,0.24c2.08,0.11,4.15,0.3,6.23,0.29
	c1.15-0.01,2.25-0.48,3.09-1.41c-1.57,0.21-3.09,0.46-4.61,0.6C157.03,82.72,155.46,82.76,153.89,82.85z M186.87,81.88
	c1.4,2.81,6.91,5.07,8.87,4.45c-1.52-0.59-3.16-1.1-4.67-1.86C189.55,83.7,188.16,82.68,186.87,81.88z M142.81,83.74
	c0.64-1.02,1.25-2.24,2.09-3.25c0.84-1.01,1.92-1.81,2.84-2.65C145.25,78.11,143.01,80.8,142.81,83.74z M164.76,82.07
	c-1.51,1.47-3.03,2.94-4.62,4.48C162.41,86.11,164.72,83.95,164.76,82.07z M150.89,104.11c1.72,1.79,3.52,3.65,5.31,5.51
	C154.93,107.24,153.17,105.35,150.89,104.11z M125.49,114.83c-1.18,0.13-1.68-0.13-2.08-1.03c-0.28-0.65-0.46-1.34-0.74-1.98
	c-0.26-0.6-0.61-1.15-0.92-1.73c-3.02,1.85-9.87-0.58-11.6-4.02c0.03-0.03,0.05-0.09,0.08-0.09c2.02,0.11,4.05,0.16,6.06,0.37
	c2.06,0.22,3.52,1.49,4.73,3.08c0.12,0.16,0.24,0.32,0.5,0.4c-0.3-0.59-0.54-1.23-0.92-1.76c-1.6-2.21-3.18-4.45-4.9-6.58
	c-2.19-2.71-4.16-5.54-5.37-8.84c-0.16-0.43-0.39-0.82-0.59-1.23c-0.04-0.08-0.1-0.15-0.29-0.16c0.4,1.04,0.8,2.08,1.24,3.22
	c-1.27-0.16-2.37-0.59-3.35-1.3c-1.89-1.38-2.98-3.3-3.59-5.51c-0.78-2.83-0.71-5.72-0.64-8.6c0.08-0.02,0.14-0.06,0.16-0.04
	c2.47,1.49,4.82,3.13,6.59,5.46c1.07,1.41,1.98,2.94,2.11,4.74c0.07,0.96-0.08,1.95-0.26,2.9c-0.1,0.54-0.07,0.95,0.22,1.41
	c1.94,3.11,4.37,5.83,6.68,8.65c2.81,3.43,5.17,7.11,6.56,11.36C125.33,113.95,125.39,114.37,125.49,114.83z M121.64,91.2
	c-0.06,1.16-0.1,2.32-0.18,3.48c-0.18,2.5-0.32,5,0.25,7.48c0.4,1.72,1.07,3.32,2.18,4.74c3.6-5.24,2.99-11.51-2.2-16.39
	C121.67,90.77,121.65,90.99,121.64,91.2z M116.98,104.23c-0.72-0.82-1.4-1.64-2.13-2.41c-0.88-0.92-1.92-1.6-3.15-1.97
	c-2.72-0.81-5.48-1.54-8.09-2.94C104.73,102.54,112,106.51,116.98,104.23z M113.92,89.39c0.29,4.06,1.85,7.53,4.77,10.37
	c0.1,0.1,0.26,0.17,0.39,0.17c0.06,0,0.16-0.21,0.17-0.33c0.08-0.66,0.14-1.31,0.21-1.97c0.54-5.39-2.04-9.33-5.83-12.75
	C113.73,86.41,113.82,87.9,113.92,89.39z M131.56,106.72c0.08-2.5-0.49-4.82-1.96-7c-0.73,1.87-1.44,3.57-2.05,5.3
	c-1.14,3.24-0.78,6.44,0.35,9.7C130.33,112.55,131.46,109.87,131.56,106.72z M175.48,160.67c0.13-0.18,0.24-0.3,0.31-0.43
	c2.69-4.76,6.46-8.58,10.6-12.06c4.63-3.9,9.65-7.2,15.32-9.4c1.8-0.7,3.66-1.31,5.54-1.71c2.3-0.49,4.38-1.38,6.29-2.71
	c2.13-1.49,4.51-2.4,7.08-2.72c1.4-0.17,2.82-0.27,4.23-0.24c2.88,0.07,5.69-0.28,8.41-1.23c0.08-0.03,0.16-0.04,0.35-0.08
	c-0.78,1.6-1.79,2.9-2.94,4.1c-2.41,2.5-5.41,3.72-8.84,3.67c-2.34-0.04-4.68-0.36-7.01-0.6c-2.43-0.25-4.81-0.12-7.15,0.75
	c0.45,0.07,0.92,0.11,1.36,0.21c2.36,0.53,4.72,1,7.06,1.62c4.11,1.09,8.08,0.78,11.96-0.94c0.1-0.04,0.2-0.07,0.45-0.16
	c-1.86,2.83-4.06,5.06-7.08,6.38c-4.23,1.84-8.53,1.62-12.85,0.38c-1.66-0.48-3.29-1.08-4.95-1.59c-2.12-0.65-4.27-0.97-6.51-0.47
	c0.1,0.06,0.19,0.15,0.3,0.19c2.76,0.86,5.37,2.05,7.84,3.53c4.78,2.85,9.73,3.03,14.86,1.19c0.64-0.23,1.28-0.46,1.93-0.69
	c0.02-0.01,0.04,0.02,0.11,0.05c-1.32,1.6-2.94,2.8-4.73,3.78c-4.3,2.34-8.82,2.42-13.41,1.11c-2.49-0.71-4.93-1.64-7.39-2.47
	c-2.31-0.78-4.65-1.3-7.11-1.15c-0.23,0.01-0.45,0.04-0.68,0.07c-0.08,0.01-0.15,0.06-0.28,0.1c4.27,1.96,8.46,3.96,12.73,5.78
	c1.44,0.62,3.08,0.8,4.63,1.17c0.19,0.05,0.38,0.08,0.71,0.15c-1.53,0.77-3.03,1.1-4.56,1.33c-4.41,0.65-8.62-0.21-12.74-1.73
	c-1.79-0.66-3.6-1.18-5.53-1.03c-0.21,0.02-0.43,0.05-0.55,0.07c3.11,1.75,6.24,3.52,9.57,5.39c-0.66,0.07-1.12,0.14-1.58,0.18
	c-3.08,0.26-6.02-0.48-8.95-1.3c-0.59-0.16-1.2-0.27-1.79-0.43c-0.74-0.2-1.28,0.01-1.68,0.67c-0.37,0.6-0.79,1.17-1.19,1.75
	c-0.99,1.43-0.99,2.74-0.02,4.2c0.15,0.23,0.35,0.71,0.29,0.75c-0.36,0.26-0.77,0.5-1.19,0.59c-0.15,0.03-0.43-0.37-0.58-0.62
	c-0.22-0.36-0.38-0.77-0.65-1.33c-0.41,0.81-0.76,1.47-1.12,2.17c-0.15-0.09-0.24-0.15-0.33-0.2c-1.05-0.57-1.06-0.58-0.57-1.72
	c0.99-2.3,1.07-1.54-0.29-3.74c-0.35-0.56-0.67-1.14-0.99-1.72c-0.54-0.97-0.81-1.11-1.87-0.86c-2.04,0.47-4.09,0.94-6.12,1.44
	c-1.94,0.48-3.89,0.38-5.86,0.15c3.13-1.85,6.05-4.03,9.71-5.31c-1.37-0.35-2.53-0.25-3.66,0.08c-2.21,0.63-4.41,1.32-6.63,1.93
	c-4.13,1.14-8.24,1.12-12.33-0.22c-0.34-0.11-0.67-0.25-1.01-0.51c0.45-0.07,0.89-0.14,1.34-0.22c3.34-0.6,6.39-1.97,9.41-3.44
	c2.29-1.12,4.61-2.19,6.92-3.28c0.08-0.04,0.15-0.09,0.21-0.27c-1.15,0-2.3-0.1-3.44,0.02c-2.66,0.27-5.11,1.31-7.6,2.21
	c-2.99,1.08-6,2.03-9.22,2.15c-5.06,0.18-9.26-1.64-12.65-5.37c-0.07-0.08-0.13-0.16-0.24-0.3c1.44,0.44,2.8,0.89,4.18,1.26
	c3.97,1.05,7.76,0.59,11.4-1.32c2.9-1.53,5.78-3.12,8.93-4.1c0.03-0.01,0.04-0.07,0.08-0.15c-1.71-0.36-3.41-0.31-5.06,0.15
	c-2.11,0.58-4.18,1.3-6.27,1.92c-3.47,1.03-6.97,1.42-10.52,0.47c-4-1.07-6.88-3.6-9.03-7.12c0.2,0.07,0.4,0.12,0.59,0.2
	c4.14,1.86,8.34,1.76,12.63,0.52c2.37-0.69,4.8-1.17,7.38-1.79c-1.37-0.2-2.61-0.45-3.86-0.55c-2.75-0.22-5.46,0.2-8.17,0.58
	c-6.09,0.84-11.05-1.82-13.73-7.35c-0.03-0.06-0.03-0.12-0.05-0.19c1.19,0.27,2.34,0.66,3.53,0.77c2.36,0.22,4.73,0.33,7.09,0.42
	c2.64,0.1,5.16,0.59,7.48,1.9c0.22,0.12,0.45,0.23,0.64,0.39c2.16,1.77,4.73,2.59,7.38,3.26c6.77,1.7,12.73,5.02,18.27,9.17
	c3.83,2.87,7.32,6.1,10.31,9.85c1.01,1.26,1.83,2.66,2.74,4C175.19,160.2,175.31,160.41,175.48,160.67z M109.3,123.24
	c1.81,2.49,4.13,4.31,7.2,4.98c1.07,0.23,2.15,0.39,3.24,0.49c2.43,0.21,4.86,0.37,7.29,0.55c0.53,0.04,1.06,0.12,1.62,0.19
	c-0.22-2.31-0.65-4.45-1.53-6.48c-1.86-4.27-5.86-6.81-10.38-6.53c3.87,2.05,6.1,5.41,8.13,9.17c-1.7-0.17-3.25-0.31-4.81-0.5
	c-2.48-0.3-4.84-0.94-6.8-2.59c-0.74-0.63-1.4-1.34-2.1-2.02c0.04-0.05,0.08-0.1,0.12-0.15c3.29,2.21,7.15,2.41,10.9,3.16
	c-0.02-0.12-0.02-0.18-0.05-0.24c-1.65-3.48-4.14-6.02-7.9-7.16c-2.84-0.87-5.89-1.12-8.57-3
	C106.17,116.9,107.15,120.29,109.3,123.24z M225.29,120.45c-2.07,2.61-2.59,5.75-2.9,9c0.46-0.08,0.81-0.18,1.17-0.21
	c2.57-0.2,5.13-0.44,7.7-0.56c4.96-0.23,8.66-2.48,11.2-6.73c1.4-2.34,2.14-4.92,2.68-7.56c0.07-0.36,0.12-0.73,0.18-1.05
	c-1.27,0.51-2.46,1.08-3.71,1.48c-1.3,0.42-2.65,0.68-3.97,1.01c-3.28,0.8-5.81,2.67-7.65,5.47c-0.4,0.6-0.63,1.31-1.01,2.14
	c3.82-0.61,7.44-1,10.67-2.89c-1.84,2.32-4.15,3.84-7.08,4.31c-1.35,0.22-2.71,0.34-4.07,0.49c-0.7,0.08-1.41,0.13-2.23,0.21
	c1.99-3.85,4.25-7.28,8.21-9.21C230.93,116.71,227.61,117.52,225.29,120.45z M167.82,145.23c0.15,1.06,0.27,2.13,0.46,3.19
	c0.07,0.37,0.23,0.78,0.47,1.06c0.78,0.92,1.62,1.79,2.42,2.69c0.37,0.42,0.71,0.87,1.16,1.43c-0.84-7.28-3.62-13.37-9.3-17.96
	c0.02,0.32,0.09,0.63,0.19,0.92c0.76,2.14,1.33,4.31,1.28,6.6c-0.02,0.77-0.34,1.64-0.06,2.26c0.28,0.63,1.12,1.02,1.71,1.52
	c0.37,0.31,0.72,0.64,1.22,1.08c0.07-1.05,0.13-1.91,0.18-2.76C167.66,145.25,167.74,145.24,167.82,145.23z M178.99,153.16
	c0.94-1.11,1.83-2.27,2.84-3.32c0.58-0.59,0.96-1.12,0.89-2c-0.07-0.89,0.18-1.76,0.64-2.56c0.08,0.44,0.04,0.88,0.09,1.31
	c0.04,0.41,0.16,0.82,0.25,1.26c0.91-0.77,1.77-1.44,2.56-2.18c0.19-0.17,0.29-0.58,0.24-0.85c-0.27-1.6-0.2-3.19,0.15-4.76
	c0.32-1.44,0.72-2.86,1.12-4.39c-5.68,4.71-8.43,10.8-9.12,17.97C178.76,153.48,178.87,153.31,178.99,153.16z M136.79,121.65
	c1.25,1.55,2.3,3.23,3.04,5.08c0.96,2.37,1.28,4.83,1.13,7.37c-0.01,0.25,0.16,0.68,0.34,0.73c1.41,0.44,2.84,0.8,4.32,1.21
	c0-0.31,0.02-0.56,0-0.8c-0.19-2.51-0.67-4.97-1.59-7.32c-0.78-1.98-1.87-3.75-3.59-5.07c-1.21-0.92-2.56-1.54-4.19-1.9
	C136.49,121.27,136.64,121.46,136.79,121.65z M207.53,126.58c-1.18,2.35-1.75,4.88-2.1,7.47c-0.08,0.61-0.01,1.25-0.01,1.93
	c1.29-0.32,2.52-0.65,3.76-0.93c0.64-0.14,0.85-0.48,0.79-1.12c-0.33-4.02,0.93-7.6,3.16-10.88c0.46-0.67,0.99-1.3,1.54-2.03
	C211.55,121.74,208.94,123.78,207.53,126.58z M203.14,136.55c0.53-0.18,0.79-0.45,0.78-1.03c-0.06-2.39,0.57-4.64,1.45-6.84
	c0.74-1.83,1.75-3.49,3.2-5.1c-2.29,0.71-4.16,1.75-5.63,3.41c-2.81,3.15-3.4,7.1-4,11.04C200.4,137.51,201.76,137.01,203.14,136.55
	z M142.67,123.59c0.14,0.2,0.27,0.4,0.41,0.6c2.2,3.06,3.68,6.43,3.87,10.2c0.08,1.49,0.56,2.18,1.94,2.54
	c1.01,0.26,1.96,0.77,2.97,1.18c-0.23-3.49-1.07-6.75-2.78-9.75c-0.84-1.48-1.97-2.67-3.49-3.46c-0.93-0.48-1.88-0.93-2.82-1.39
	C142.74,123.55,142.7,123.57,142.67,123.59z M139.61,133.81c0.05-3.46-0.67-6.73-2.22-9.84c-1.18-2.36-3.05-3.81-5.58-4.44
	c-0.31-0.08-0.62-0.15-1.03-0.25c0.1,0.21,0.12,0.28,0.16,0.33c2.82,3.17,4.24,6.87,4.17,11.12c0,0.2,0.16,0.48,0.33,0.59
	c1.35,0.93,2.72,1.82,4.15,2.77C139.59,133.98,139.61,133.89,139.61,133.81z M215.15,131.67c0.51-0.31,0.72-0.69,0.7-1.28
	c-0.1-3.74,1.15-7.01,3.44-9.93c0.29-0.36,0.57-0.73,0.86-1.09c-1.01,0.22-1.94,0.51-2.83,0.9c-1.24,0.54-2.25,1.39-2.99,2.53
	c-2.22,3.44-3.07,7.26-3.1,11.38C212.59,133.31,213.86,132.47,215.15,131.67z M202.38,125.85c-1.17,0.69-2.41,1.27-3.49,2.08
	c-4.39,3.26-5.3,8.1-5.9,13.06c1.39-0.68,2.75-1.31,4.06-2.02c0.27-0.15,0.47-0.58,0.55-0.92c0.11-0.5,0.04-1.05,0.13-1.56
	c0.68-3.9,2.16-7.43,4.79-10.43C202.48,125.99,202.43,125.92,202.38,125.85z M153.26,138.21c0.01,0.22,0.22,0.52,0.42,0.64
	c1.38,0.79,2.77,1.54,4.23,2.34c-0.08-0.61-0.15-1.19-0.24-1.76c-0.45-2.83-1.14-5.58-2.61-8.08c-1.53-2.6-3.79-4.3-6.6-5.34
	C151.28,129.61,153.15,133.56,153.26,138.21z M133.77,130.38c-0.08-2.6-0.6-5.09-1.68-7.48c-1.26-2.76-3.47-4.26-6.31-4.96
	c-0.53-0.13-1.09-0.13-1.64-0.19c0.21,0.38,0.46,0.6,0.71,0.81c2.23,1.92,3.85,4.25,4.55,7.14c0.24,0.99,0.33,2.02,0.47,3.03
	c0.08,0.57,0.3,1.02,0.87,1.19c0.98,0.28,1.97,0.53,2.99,0.8C133.74,130.6,133.77,130.49,133.77,130.38z M226.64,117.7
	c-1.31,0.39-2.63,0.72-3.91,1.17c-1.31,0.45-2.32,1.31-3.06,2.5c-0.98,1.59-1.71,3.28-2.05,5.11c-0.26,1.4-0.39,2.81-0.6,4.3
	c1.28-0.35,2.38-0.62,3.45-0.98c0.24-0.08,0.53-0.48,0.53-0.73c0-2.43,0.85-4.6,1.93-6.7c0.92-1.79,2.23-3.26,3.79-4.52
	C226.69,117.8,226.67,117.75,226.64,117.7z M190.65,142.46c0.65-0.37,0.94-0.82,0.97-1.57c0.1-2.23,0.56-4.39,1.49-6.42
	c0.76-1.66,1.71-3.22,2.52-4.73c-0.03,0.02-0.24,0.09-0.42,0.21c-1.36,0.95-2.74,1.88-4.08,2.86c-1.36,1-2.16,2.38-2.59,3.99
	c-0.22,0.83-0.42,1.68-0.57,2.53c-0.3,1.66-0.43,3.32-0.26,5.04C188.75,143.69,189.67,143.02,190.65,142.46z M155.31,130.02
	c2.4,3.42,3.9,7.15,3.89,11.39c0,0.2,0.11,0.48,0.26,0.59c1.2,0.84,2.43,1.64,3.78,2.55c-0.08-1.52-0.11-2.93-0.23-4.34
	c-0.42-5.06-3.22-8.35-7.77-10.35C155.27,129.94,155.28,129.99,155.31,130.02z M240.72,106.14c-1.69,0-3.37-0.04-5.05,0.02
	c-0.65,0.02-1.31,0.18-1.93,0.4c-1.9,0.68-3.2,2.06-4.26,3.74C232.77,111.75,239.75,109.14,240.72,106.14z M175.54,32.4
	c1-1.95,2.52-3.05,4.62-3.2c3.87-0.29,6.84,3.06,6.19,6.93c-0.25,1.5-0.83,2.84-1.77,4.02c-2.49,3.14-5.53,5.67-8.73,8.04
	c-0.19,0.14-0.66,0.14-0.84,0c-3.08-2.42-6.21-4.81-8.62-7.96c-1.21-1.58-2-3.3-1.89-5.36c0.14-2.5,1.71-4.66,3.97-5.39
	c2.37-0.77,4.89-0.05,6.35,1.83C175.08,31.62,175.27,31.98,175.54,32.4z M172.39,56.26c-1.14,0.51-1.73,1.64-1.4,2.86
	c0.13,0.49,0.37,1.01,0.71,1.37c1.08,1.14,2.22,2.21,3.34,3.31c0.29,0.28,0.55,0.22,0.83-0.04c0.93-0.87,1.88-1.72,2.79-2.62
	c0.42-0.41,0.8-0.88,1.1-1.38c0.66-1.09,0.4-2.45-0.55-3.2c-1.01-0.8-2.24-0.73-3.22,0.19c-0.18,0.17-0.34,0.36-0.54,0.58
	C174.51,56.09,173.52,55.76,172.39,56.26z M208.79,50.84c-2.59-0.53-4.06-2.08-4.43-4.71c-0.33,2.7-1.8,4.24-4.41,4.78
	c2.57,0.41,3.86,2.02,4.39,4.46C204.7,52.77,206.23,51.36,208.79,50.84z M210.18,54.78c-0.39,2.46-1.9,3.72-4.24,4.21
	c2.5,0.48,3.75,2.08,4.14,4.23c0.44-0.81,0.78-1.89,1.48-2.62c0.71-0.75,1.78-1.16,2.61-1.67
	C211.97,58.56,210.69,57.07,210.18,54.78z M147,52.18c-0.66-0.7-0.97-1.72-1.39-2.5c-0.32,2.13-1.71,3.5-4.02,4.02
	c2.29,0.51,3.64,1.83,4.03,4.14c0.46-2.27,1.77-3.64,3.84-4.05C148.66,53.28,147.66,52.89,147,52.18z M141.02,58.25
	c-0.75,2.05-0.94,2.27-2.46,3.05c0.49,0.36,1.1,0.66,1.5,1.13c0.41,0.49,0.62,1.16,0.95,1.8c0.25-1.54,1.16-2.47,2.79-2.94
	C142.07,60.88,141.34,59.79,141.02,58.25z M217.02,69.72c0.48,0.46,1.02,0.98,1.44,1.38c0.5-0.47,1.07-1.01,1.5-1.42
	c-0.48-0.54-1.01-1.15-1.44-1.63C218.04,68.58,217.47,69.21,217.02,69.72z M131.07,72.52c0.09-0.88,0.17-1.77,0.27-2.78
	c-0.46,0.17-0.81,0.23-1.07,0.42c-0.21,0.15-0.49,0.53-0.43,0.66c0.29,0.63,0.7,1.2,1.06,1.8
	C130.95,72.59,131.01,72.56,131.07,72.52z M199.25,85.56c0.76-0.32,1.52-0.64,2.28-0.96c-0.04-0.09-0.08-0.17-0.12-0.26
	c-0.75,0.33-1.51,0.67-2.26,1C199.19,85.42,199.22,85.49,199.25,85.56z"/>
</svg>
