<?xml version="1.0" encoding="utf-8"?>
<!-- Generator: Adobe Illustrator 26.0.1, SVG Export Plug-In . SVG Version: 6.00 Build 0)  -->
<svg version="1.1" id="Layer_1" xmlns="http://www.w3.org/2000/svg" xmlns:xlink="http://www.w3.org/1999/xlink" x="0px" y="0px"
	 viewBox="0 0 350 230" style="enable-background:new 0 0 350 230;" xml:space="preserve">
<style type="text/css">
	.st0{fill:#FFF6CF;}
	.st1{fill:#F5FFD2;}
	.st2{fill:#DEFFCF;}
	.st3{fill:#FFEFD4;}
	.st4{fill:#CAFFCA;}
	.st5{fill:#D2E2FF;}
	.st6{fill:#FFE1E1;}
	.st7{fill:#D2FFFD;}
	.st8{fill:#FFD4FB;}
	.st9{fill:url(#SVGID_1_);}
	.st10{fill:url(#SVGID_00000041267610792572283010000005633949226180202170_);}
	.st11{fill:url(#SVGID_00000183959728963588021070000009703395663368427172_);}
	.st12{fill:url(#SVGID_00000055701344714041470940000011269913138224538809_);}
	.st13{fill:url(#SVGID_00000136382365595593713790000009922978962739426707_);}
	.st14{fill:url(#SVGID_00000178902084340579044400000010999012628267451536_);}
	.st15{fill:url(#SVGID_00000005949578687207841220000007538771338004542619_);}
	.st16{fill:url(#SVGID_00000110444239351589652120000013779179266790971277_);}
	.st17{fill:#00512C;}
	.st18{fill:url(#SVGID_00000085937777739904541680000010271415789643614908_);}
	.st19{fill:#21B5C1;}
	.st20{fill:url(#SVGID_00000118364622673212283720000005811067449045748117_);}
	.st21{fill:url(#SVGID_00000016779694203112619180000002467786271822280872_);}
	.st22{fill:url(#SVGID_00000030483725379981831230000007605198525405371009_);}
	.st23{fill:url(#SVGID_00000115508870050784014580000003435819243368714628_);}
	.st24{fill:url(#SVGID_00000001633726466713858060000016199033649714897595_);}
	.st25{fill:url(#SVGID_00000121265230759513785890000012167974079273907089_);}
	.st26{fill:url(#SVGID_00000167355703957572780590000016107325937071310748_);}
	.st27{fill:url(#SVGID_00000160166405173990593940000004539262060276712854_);}
	.st28{fill:url(#SVGID_00000094616494834922800150000000152517300227678395_);}
	.st29{fill:url(#SVGID_00000003811133391920423120000006587273125973574069_);}
	.st30{fill:url(#SVGID_00000047044910114032368230000017988602350640727946_);}
	.st31{fill:url(#SVGID_00000003824800078381489070000016082468793822016447_);}
	.st32{fill:url(#SVGID_00000078740014702780302050000009750592046536012165_);}
	.st33{fill:url(#SVGID_00000009588160535090437750000008787878252735188866_);}
	.st34{fill:url(#SVGID_00000072996943384974160440000010205685241850579645_);}
</style>
<radialGradient id="SVGID_1_" cx="175.5067" cy="98.7958" r="68.7033" gradientUnits="userSpaceOnUse">
	<stop  offset="0" style="stop-color:#029AFF"/>
	<stop  offset="1" style="stop-color:#002A7B"/>
</radialGradient>
<path class="st9" d="M213.86,91.41c4.17-0.82,8.34-1.64,12.5-2.45c1.88-0.37,3.76-0.73,5.63-1.1c0.72-0.14,0.82-0.34,0.58-1.05
	c-0.18-0.51-0.31-1.04-0.5-1.55c-0.28-0.72-0.65-0.92-1.41-0.82c-5.29,0.69-10.58,1.38-15.88,2.06c-0.17,0.02-0.35,0-0.54-0.08
	c0.22-0.06,0.45-0.1,0.67-0.17c4.96-1.4,9.92-2.81,14.87-4.22c0.65-0.19,0.7-0.34,0.42-0.96c-0.81-1.79-0.9-1.87-2.83-1.56
	c-4.37,0.7-8.74,1.44-13.11,2.16c-0.1,0.02-0.19,0.02-0.31-0.07c1.24-0.42,2.5-0.83,3.73-1.28c3.1-1.13,6.2-2.28,9.29-3.44
	c0.8-0.3,0.82-0.41,0.36-1.11c-0.24-0.35-0.43-0.73-0.67-1.08c-0.42-0.63-0.81-0.75-1.56-0.57c-3.74,0.87-7.49,1.73-11.27,2.49
	c0.2-0.09,0.4-0.18,0.59-0.27c3.17-1.45,6.33-2.91,9.5-4.36c0.46-0.21,0.56-0.45,0.21-0.86c-0.39-0.46-0.7-0.99-1.09-1.45
	c-0.57-0.68-1-0.7-1.82-0.44c-2.47,0.78-4.95,1.51-7.43,2.26c-0.02-0.06-0.05-0.12-0.07-0.19c0.27-0.15,0.54-0.3,0.8-0.46
	c1.74-1.08,3.49-2.16,5.23-3.26c0.84-0.54,0.84-0.62,0.16-1.34c-7.68-8.17-16.89-13.86-27.58-17.21c-4.04-1.27-8.15-2.09-12.36-2.42
	c-1.26-0.1-2.52-0.21-3.79-0.3c-0.65-0.05-0.92,0.17-0.92,0.81c0.02,3.31,0.08,6.62,0.75,9.87c0.72,3.54,2.77,5.38,6.48,5.95
	c0.47,0.07,0.93,0.14,1.39,0.31c-0.67,0.11-1.34,0.2-2.01,0.34c-3.77,0.8-5.76,3.02-6.26,7.06c-0.19,1.56-0.3,3.13-0.45,4.69
	c-0.01,0.16-0.04,0.32-0.12,0.47c-0.17-1.44-0.31-2.89-0.53-4.33c-0.15-0.97-0.34-1.95-0.65-2.88c-1.09-3.27-3.52-4.81-6.84-5.17
	c-0.3-0.03-0.59-0.09-0.9-0.27c0.37-0.08,0.75-0.12,1.11-0.23c1.19-0.36,2.45-0.59,3.54-1.15c2.02-1.05,3.04-2.96,3.35-5.13
	c0.41-2.91,0.61-5.84,0.89-8.77c0.01-0.14,0-0.28,0.02-0.42c0.1-1.17,0.24-1.2-1.06-1.12c-3.03,0.18-6.05,0.43-9.04,1.01
	c-5.03,0.98-9.85,2.59-14.48,4.75c-7.43,3.47-13.9,8.26-19.52,14.22c-0.06,0.06-0.11,0.12-0.17,0.17c-0.49,0.54-0.47,0.68,0.13,1.06
	c1.53,0.97,3.07,1.94,4.6,2.9c0.37,0.23,0.74,0.47,1.07,0.84c-0.31-0.06-0.63-0.11-0.94-0.2c-2.15-0.61-4.3-1.21-6.44-1.85
	c-0.53-0.16-0.88-0.07-1.2,0.37c-0.38,0.52-0.8,1.01-1.21,1.51c-0.42,0.51-0.42,0.67,0.17,0.95c3.18,1.47,6.36,2.93,9.55,4.39
	c0.2,0.09,0.4,0.17,0.56,0.37c-0.94-0.22-1.88-0.44-2.83-0.66c-2.97-0.67-5.93-1.34-8.9-2.02c-0.46-0.11-0.76,0.04-1,0.45
	c-0.25,0.44-0.55,0.84-0.84,1.26c-0.41,0.58-0.37,0.75,0.3,1.01c2.55,1,5.1,2,7.66,2.99c1.44,0.56,2.89,1.09,4.3,1.77
	c-0.42-0.07-0.84-0.13-1.25-0.2c-2.93-0.52-5.87-1.05-8.8-1.58c-0.97-0.18-1.94-0.36-2.9-0.58c-0.84-0.19-1.17-0.08-1.59,0.67
	c-0.2,0.37-0.38,0.76-0.58,1.13c-0.31,0.58-0.27,0.71,0.34,0.91c1.8,0.59,3.59,1.21,5.4,1.75c2.89,0.86,5.81,1.67,8.71,2.5
	c0.19,0.05,0.37,0.12,0.55,0.23c-2.34-0.29-4.67-0.59-7.01-0.88c-2.94-0.37-5.88-0.75-8.81-1.13c-0.41-0.05-0.64,0.1-0.78,0.48
	c-0.24,0.64-0.51,1.27-0.77,1.9c-0.25,0.6-0.2,0.73,0.45,0.88c2.04,0.46,4.09,0.9,6.14,1.32c3.49,0.71,6.99,1.4,10.49,2.09
	c0.17,0.03,0.34,0.09,0.51,0.21c-1.17-0.09-2.35-0.2-3.52-0.28c-3.58-0.23-7.16-0.45-10.74-0.68c-1.13-0.07-2.25-0.18-3.37-0.26
	c-0.85-0.06-1.03,0.07-1.22,0.88c-0.12,0.49-0.24,0.98-0.36,1.47c-0.19,0.8-0.11,0.93,0.69,1.02c2.12,0.26,4.24,0.5,6.36,0.75
	c3.52,0.43,7.04,0.87,10.56,1.3c0.8,0.1,1.6,0.17,2.33,0.25c-2.73-0.06-5.51-0.17-8.3-0.19c-3.85-0.03-7.7,0-11.55,0
	c-0.5,0-0.79,0.18-0.87,0.7c-0.09,0.53-0.29,1.05-0.36,1.59c-0.12,0.81,0.21,1.16,1.02,1.21c6.57,0.43,13.15,0.87,19.72,1.32
	c0.51,0.03,1.02,0.12,1.53,0.19c0,0.06,0,0.12,0.01,0.18c-0.19,0.02-0.39,0.05-0.58,0.05c-5.96,0.11-11.93,0.21-17.89,0.32
	c-1.09,0.02-2.18,0.06-3.26,0.09c-0.84,0.02-0.99,0.18-0.99,0.99c0,0.26-0.04,0.52-0.06,0.78c-0.05,0.63,0.1,0.8,0.73,0.81
	c2.48,0.04,4.96,0.06,7.43,0.12c1.2,0.03,2.4,0.11,3.6,0.23c-3.6,0.1-7.19,0.2-10.79,0.31c-0.78,0.02-1.21,0.38-1.17,0.99
	c0.03,0.41,0.17,0.64,0.67,0.64c5.6,0.02,11.21,0.07,16.81,0.12c0.05,0,0.11,0.02,0.17,0.14c-0.22,0.04-0.44,0.12-0.66,0.12
	c-5.2,0.07-10.4,0.13-15.6,0.19c-0.2,0-0.4,0-0.6,0.01c-0.12,0.01-0.26,0.01-0.35,0.07c-0.66,0.44-0.28,1.1-0.33,1.66
	c-0.04,0.37,0.19,0.61,0.57,0.65c0.22,0.03,0.44,0.04,0.66,0.04c3.49,0.06,6.97,0.12,10.46,0.18c0.32,0.01,0.64,0.03,0.96,0.13
	c-0.96,0.04-1.92,0.1-2.89,0.13c-2.82,0.09-5.64,0.19-8.46,0.25c-1.4,0.03-1.47,0.1-1.29,1.54c0.04,0.34,0.16,0.42,0.5,0.42
	c3.75-0.05,7.49-0.08,11.24-0.11c0.43,0,0.85,0,1.28,0c0,0.06,0,0.13,0,0.19c-1.01,0.05-2.03,0.11-3.04,0.13
	c-1.47,0.03-2.94-0.02-4.41,0.05c-1.71,0.08-3.41,0.26-5.12,0.39c-0.35,0.03-0.43,0.24-0.4,0.54c0.04,0.51,0.07,1.03,0.11,1.54
	c-0.07,0.02-0.15,0.04-0.22,0.06c-0.5-1.49-1.1-2.96-1.49-4.48c-1.26-4.91-1.48-9.91-1.06-14.95c0.55-6.63,2.19-12.99,5.02-19
	c5.99-12.69,15-22.63,27.22-29.58c6.77-3.85,13.99-6.5,21.71-7.64c11.99-1.77,23.53-0.17,34.59,4.83c6.63,3,12.68,6.87,17.96,11.88
	c9.79,9.28,16.38,20.4,19.01,33.71c1.4,7.1,1.5,14.22-0.42,21.27c-0.37,1.35-0.88,2.66-1.33,3.99c-0.07-0.01-0.13-0.02-0.2-0.04
	c0.03-0.45,0.04-0.91,0.09-1.36c0.06-0.55-0.17-0.75-0.71-0.79c-1.16-0.1-2.31-0.25-3.47-0.37c-0.12-0.01-0.24,0.02-0.36,0.02
	c-1.23,0.01-2.45,0.05-3.68,0.03c-1.53-0.03-3.06-0.11-4.59-0.17c-0.23-0.01-0.46,0-0.69,0c-0.01-0.05-0.01-0.1-0.02-0.15
	c0.14-0.03,0.27-0.1,0.41-0.1c3.87,0.01,7.74,0.02,11.61,0.04c0.22,0,0.44,0.02,0.66,0.04c0.83,0.08,0.9,0.03,0.94-0.8
	c0.01-0.26,0.02-0.54-0.07-0.77c-0.06-0.15-0.28-0.34-0.44-0.34c-4.19-0.13-8.38-0.24-12.57-0.36c-0.18-0.01-0.36-0.05-0.54-0.08
	c0-0.06,0-0.12,0.01-0.18c0.18-0.02,0.37-0.05,0.55-0.05c4.05,0,8.1,0,12.15,0c0.88,0,0.97-0.09,0.92-0.98
	c0-0.08-0.01-0.16-0.01-0.24c-0.08-1.05-0.23-1.21-1.28-1.23c-3.91-0.05-7.82-0.09-11.73-0.14c-1.23-0.01-2.46-0.03-3.69-0.05
	c-0.15,0-0.31-0.04-0.48-0.2c0.19-0.02,0.38-0.07,0.57-0.07c5.2-0.05,10.4-0.09,15.6-0.14c0.42,0,0.94,0.15,0.92-0.59
	c-0.02-0.88-0.18-1.06-0.99-1.07c-4.03-0.07-8.06-0.15-12.09-0.23c-0.09,0-0.18-0.03-0.28-0.16c0.18-0.01,0.36-0.04,0.53-0.04
	c3.97-0.07,7.94-0.13,11.91-0.2c0.68-0.01,0.82-0.17,0.78-0.83c-0.09-1.62-0.26-1.74-1.87-1.79c-6.53-0.18-13.05-0.39-19.58-0.58
	c-0.12,0-0.23-0.03-0.36-0.15c0.96-0.09,1.91-0.2,2.87-0.27c5.81-0.39,11.62-0.77,17.43-1.16c0.97-0.06,1.07-0.21,0.9-1.16
	c-0.08-0.48-0.11-0.96-0.2-1.43c-0.14-0.66-0.43-0.9-1.09-0.89c-5.56,0.04-11.12,0.08-16.68,0.13c-0.69,0.01-1.39,0.09-2.09,0.05
	c1.61-0.21,3.22-0.43,4.84-0.63c4.52-0.57,9.04-1.12,13.55-1.69c0.8-0.1,0.85-0.2,0.65-0.97c-0.15-0.56-0.27-1.14-0.45-1.69
	c-0.19-0.54-0.6-0.76-1.19-0.71c-2.55,0.2-5.1,0.38-7.65,0.57c-3.47,0.26-6.95,0.54-10.42,0.8c-0.22,0.02-0.44,0.02-0.66,0.03
	C213.85,91.45,213.85,91.43,213.86,91.41z M161.05,43.66c3.48-0.87,7.03-1.36,10.6-1.49c2.81-0.1,5.63-0.01,8.44,0.11
	c1.9,0.08,3.8,0.37,5.69,0.58c0.78,0.09,1.55,0.24,2.33,0.36c-0.21-0.16-0.43-0.24-0.66-0.29c-2.95-0.65-5.91-1.2-8.94-1.36
	c-5.72-0.29-11.34,0.22-16.87,1.74C161.44,43.37,161.26,43.55,161.05,43.66c-0.64,0.14-1.29,0.24-1.91,0.42
	c-0.95,0.28-1.88,0.62-2.82,0.94c0.01,0.03,0.02,0.07,0.04,0.1C157.92,44.63,159.49,44.15,161.05,43.66z M138.99,55.62
	c0.01-0.63-0.37-1.02-1-1.02c-0.61,0-1,0.37-1,0.96c0,0.6,0.44,1.05,1.02,1.04C138.6,56.6,138.98,56.22,138.99,55.62z M246.74,123.7
	c-2.33,4.43-5.63,7.39-10.79,7.74c-0.61,0.04-1.26-0.03-1.85-0.19c-0.57-0.15-0.9-0.01-1.23,0.45c-2.6,3.62-5.44,7.05-8.47,10.32
	c-4.75,5.12-9.85,9.83-15.87,13.43c-7.28,4.35-15.06,7.4-23.48,8.69c-10.09,1.54-19.97,0.68-29.64-2.54
	c-10.6-3.52-19.58-9.49-27.07-17.78c-3.62-4.01-7.32-7.94-10.49-12.33c-0.14-0.19-0.52-0.36-0.75-0.31c-5.1,0.99-8.72-1.3-11.6-5.22
	c-0.37-0.5-0.67-1.05-0.98-1.59c-0.39-0.68-0.32-0.8,0.49-0.84c3.66-0.19,6.86,0.95,9.63,3.33c1.87,1.62,3.41,3.53,4.89,5.5
	c2.49,3.31,5.21,6.41,8.18,9.3c0.14,0.13,0.29,0.26,0.42,0.38c0.06-0.04,0.09-0.05,0.08-0.06c-0.41-2.25,0.43-4.44,0.27-6.72
	c-0.29-4.15,1.59-7.21,5.34-9.09c0.28-0.14,0.61-0.48,0.65-0.77c0.48-3.3,2.21-5.84,4.75-7.87c0.93-0.74,1.91-1.4,2.9-2.12
	c-0.04-0.06-0.07-0.13-0.12-0.18c-2.24-2.09-2.74-4.64-1.97-7.52c0.77-2.89,2.26-5.32,4.61-7.21c0.23-0.18,0.46-0.42,0.56-0.69
	c1.75-4.78,5.21-7.79,9.85-9.59c4.7-1.83,9.43-1.99,14.16-0.15c1.22,0.48,2.35,1.2,3.54,1.82c-0.07-0.15-0.15-0.32-0.24-0.49
	c-0.56-1.1-0.84-2.26-0.78-3.5c0.09-1.85,0.94-3.2,2.55-4.11c0.46-0.26,0.91-0.59,1.28-0.97c1.76-1.76,3.74-3.13,6.28-3.47
	c1.94-0.26,3.82,0.08,5.64,0.75c1.98,0.73,3.92,1.6,5.92,2.28c2.28,0.78,4.62,1.41,6.95,2.06c-1.02-0.95-2.15-1.78-3.43-2.32
	c-1.31-0.56-2.67-1.01-4.04-1.4c-1.35-0.38-2.74-0.62-4.11-0.98c2.32-0.6,4.64-1.12,7.04-1.16c2.1-0.04,4.2-0.03,6.2,0.73
	c2.83,1.08,4.69,3.05,5.44,6.01c0.13,0.51,0.3,0.95,0.78,1.23c3.02,1.72,4.3,4.5,4.76,7.79c0.05,0.36,0.03,0.73,0.11,1.08
	c0.04,0.2,0.21,0.37,0.32,0.54c-0.08,0.15-0.31,0.4-0.31,0.64c0,4.23-1.13,8.19-2.68,12.07c-1.12,2.8-2.05,5.66-1.93,8.73
	c0.16,4.24,1.86,7.64,5.55,9.95c1.88,1.18,3.7,2.44,5.55,3.67c2.66,1.78,5.33,3.55,7.98,5.35c0.42,0.29,0.62,0.26,0.96-0.17
	c2.13-2.73,4.19-5.53,6.49-8.11c2.79-3.14,6.4-4.66,10.65-4.56c0.22,0.01,0.44,0.03,0.66,0.06
	C246.43,123.59,246.54,123.64,246.74,123.7z M202.32,109.44c0.35,0.16,0.7,0.36,1.08,0.5c0.57,0.21,1.14,0.15,1.57-0.3
	c1.84-1.92,2.83-4.15,2.34-6.86c-0.25-1.38-1.54-2.23-2.92-2c-0.99,0.16-1.76,0.71-2.16,1.58c-0.4,0.84-0.68,1.76-0.84,2.68
	c-0.22,1.28-0.39,2.55-1.11,3.67c-0.45,0.71-1.03,1.29-1.79,1.75c0.1-1.15,0.23-2.21,0.28-3.27c0.11-2.74-0.63-5.1-3.05-6.69
	c-0.23-0.15-0.44-0.35-0.64-0.56c-0.78-0.82-0.87-1.73-0.17-2.62c0.38-0.49,0.88-0.88,1.34-1.3c0.19-0.18,0.42-0.32,0.63-0.48
	c-0.18-0.05-0.32-0.03-0.45,0c-2.94,0.68-5.92,0.83-8.88,0.32c-2.36-0.41-4.67-1.04-7.01-1.56c-0.19-0.04-0.46-0.12-0.57-0.03
	c-0.42,0.35-0.83,0.19-1.25,0.07c-1.4-0.39-2.68-1.01-3.77-2c0.72,1.87,2.54,1.95,4.09,2.5c-0.05,0.19-0.08,0.32-0.13,0.45
	c-0.74,1.73-0.89,3.54-0.77,5.39c0.06,1,0.46,1.78,1.35,2.35c0.46,0.29,0.93,0.81,1.06,1.31c0.17,0.65,0.11,1.4-0.04,2.07
	c-0.37,1.55-0.85,3.06-1.28,4.59c-0.28,1,0.16,1.48,1.19,1.31c0.5-0.08,0.98-0.27,1.48-0.3c0.52-0.04,1.05,0.05,1.58,0.09
	c0,0.07,0,0.14-0.01,0.21c-0.16,0.06-0.33,0.13-0.49,0.19c-1.64,0.56-1.69,0.7-1.25,2.35c0.16,0.6,0.44,0.64,0.99,0.62
	c1.76-0.09,3.53-0.09,5.3-0.12c0.04,0,0.09,0.06,0.16,0.12c-0.15,0.09-0.26,0.16-0.38,0.22c-1.58,0.75-3.24,1.07-4.98,1
	c-0.2-0.01-0.52,0.06-0.57,0.18c-0.07,0.19-0.03,0.54,0.1,0.65c0.32,0.27,0.7,0.5,1.1,0.62c0.34,0.1,0.73,0.02,1.27,0.02
	c-0.26,0.28-0.37,0.51-0.53,0.54c-1.01,0.21-0.89,0.87-0.68,1.58c0.02,0.08,0.02,0.16,0.03,0.24c0.19,2.08,0.67,2.48,2.77,2.34
	c0.16-0.01,0.32-0.02,0.48-0.05c4.83-1.15,9.2-3.3,13.22-6.17c1.14-0.82,1.84-1.98,2.02-3.39
	C202.16,111.98,202.22,110.71,202.32,109.44z M149.95,149.05c0.46-2.34,2.07-3.25,4.07-3.61c3.18-0.58,6.58,0.98,8.35,3.83
	c1.32,2.13,1.34,4.35,0.11,6.54c-0.69,1.22-1.83,1.96-3.06,2.57c-0.25,0.13-0.51,0.24-0.9,0.43c2.02,0.63,3.86,1.2,5.7,1.79
	c0.4,0.13,0.68,0,0.97-0.27c5.42-4.92,10.84-9.82,16.26-14.73c0.14-0.13,0.28-0.27,0.47-0.45c-0.42-0.16-0.77-0.3-1.13-0.43
	c-3.33-1.2-6.67-2.39-10-3.61c-2.08-0.76-3.28-2.23-3.56-4.46c-0.28-2.22-1.36-4.04-3.08-5.44c-1.46-1.19-3-2.3-4.42-3.38
	c0.45,2.27,0.93,4.64,1.4,7.02c-0.07,0.02-0.14,0.04-0.21,0.06c-0.38-0.78-0.77-1.56-1.15-2.34c0.05,3.56-0.66,6.9-2.35,10.01
	c0.09,0.05,0.12,0.08,0.15,0.09c0.28,0.04,0.56,0.08,0.84,0.11c2.22,0.28,4.35,0.85,6.31,1.94c3.31,1.85,4.96,5.21,4.22,8.59
	c-0.12,0.55-0.36,1.08-0.54,1.61c-0.14-0.12-0.14-0.2-0.14-0.27c0.17-2.25-0.53-4.2-2.06-5.86c-3.23-3.49-7.28-4.82-11.93-4.54
	c-1.47,0.09-2.72,0.69-3.66,1.86c-0.11,0.13-0.22,0.27-0.4,0.5c0.18-3.13,1.66-5.65,3.01-8.22c-1.99,2.06-3.48,4.39-3.92,7.27
	C149.12,146.81,149.18,147.95,149.95,149.05z M171.41,113.72c-0.01,0.07-0.02,0.13-0.03,0.2c-1.2,0.06-2.4,0.19-3.59,0.15
	c-1.72-0.06-3.15-0.79-4.14-2.25c-0.21-0.31-0.4-0.35-0.75-0.19c-1.47,0.65-2.97,1.24-4.43,1.91c-0.28,0.13-0.56,0.47-0.64,0.76
	c-0.54,2.2-0.48,4.4,0.13,6.57c0.46,1.63,1.39,2.95,2.81,3.88c2.25,1.47,4.61,2.72,7.13,3.67c1.43,0.54,2.9,0.84,4.44,0.6
	c0.74-0.12,1.21-0.49,1.48-1.23c0.38-1.03,0.87-2.03,1.36-3.02c0.5-1.01,1.1-1.97,1.59-2.98c0.92-1.89,1.34-3.88,1.11-5.98
	c-0.01-0.14-0.09-0.36-0.17-0.38c-0.39-0.1-0.8-0.14-1.26-0.22c0.26,0.74,0.52,1.4,0.73,2.07c0.33,1.05,0.1,1.57-0.9,2.05
	c-0.44,0.22-0.89,0.42-1.38,0.64c-0.43-0.89-1.47-0.79-2.32-1.28c0.36-0.1,0.57-0.19,0.78-0.2c0.58-0.02,1.16-0.03,1.74,0
	c0.95,0.05,1.32-0.39,1.05-1.3c-0.1-0.33-0.23-0.64-0.37-0.96c-0.51-1.22-0.83-2.47-0.81-3.81c0.03-1.78,0.59-2.61,2.26-3.23
	c0.43-0.16,0.52-0.38,0.35-0.77c-0.27-0.61-0.55-1.21-0.77-1.84c-0.5-1.44-0.96-2.89-1.45-4.35c-1.55,2.07-3.38,3.94-5.66,5.46
	c1.15,0.43,2.18,0.82,3.27,1.23c-0.12,0.2-0.19,0.37-0.3,0.5c-0.6,0.69-1.84,0.86-2.67,0.51c-0.65-0.28-1.38-0.59-2.05-0.55
	c-1.18,0.06-2.16,0.79-3.23,1.38c0.76,0.81,1.64,1.18,2.64,1.34c0.98,0.15,1.95,0.33,2.81-0.64
	C170.04,112.61,170.68,113.19,171.41,113.72z M194.06,133.32c1.04,1.13,2.11,2.16,3.04,3.32c0.92,1.15,1.69,2.43,2.53,3.65
	c-0.06,0.05-0.13,0.1-0.19,0.15c-0.85-0.76-1.7-1.52-2.61-2.33c-0.46,1.04-0.91,2-1.31,2.99c-0.1,0.24-0.05,0.56-0.01,0.83
	c0.29,2.05,0.61,4.1,0.9,6.16c0.19,1.32,0.35,2.65,0.54,4.11c0.13-0.25,0.2-0.37,0.25-0.49c2.75-5.69,5.49-11.39,8.25-17.08
	c1.27-2.63,2.59-5.23,3.87-7.86c0.12-0.25,0.22-0.63,0.12-0.85c-0.44-0.89-0.97-1.74-1.51-2.68
	C204.35,128.16,199.38,131.03,194.06,133.32z M150.18,124.43c-0.04-0.03-0.08-0.06-0.12-0.1c-2.76,1.63-5.52,3.24-8.26,4.89
	c-1.7,1.03-3.2,2.31-4.51,3.81c-2.4,2.76-3.67,5.94-3.54,9.63c0.03,0.77,0.17,1.51,0.58,2.19c-0.01-6.2,2.74-10.84,7.89-14.11
	c-0.03,0.14-0.19,0.18-0.28,0.27c-1.64,1.71-3.13,3.52-4.22,5.64c-1.56,3.05-2.27,6.24-1.62,9.65c1.24,6.52,7.78,10.44,13.77,9.73
	c0.8-0.09,1.57-0.38,2.35-0.57c-1.24-0.09-2.44-0.01-3.62-0.1c-6.04-0.46-10.91-6.11-10.54-12.17c0.23-3.71,1.57-7,3.92-9.83
	c1.76-2.12,3.75-4.05,5.62-6.07C148.47,126.34,149.32,125.38,150.18,124.43z M180.02,117.27c-0.09,0.84-0.14,1.56-0.25,2.27
	c-0.42,2.54-1.58,4.77-2.94,6.89c-1.24,1.93-2.56,3.81-3.82,5.73c-0.32,0.49-0.54,1.04-0.86,1.68c0.23-0.06,0.31-0.07,0.38-0.1
	c4.06-1.5,8.12-3,12.17-4.51c0.25-0.09,0.55-0.26,0.67-0.48c0.78-1.37,1.53-2.77,2.36-4.31c-1,0-1.86,0.06-2.72-0.01
	c-1.9-0.15-2.7-0.89-3-2.77C181.77,120.04,180.99,118.68,180.02,117.27z M194.8,131.39c0.19-0.07,0.29-0.1,0.37-0.15
	c1.85-1.09,3.75-2.12,5.54-3.31c2.04-1.35,3.84-3,5.34-4.95c0.59-0.76,0.88-1.62,0.72-2.6c-0.2-1.25-0.36-2.51-0.58-3.75
	c-0.23-1.32-0.52-2.62-0.8-4.02c-1.02,2.49-1.93,4.88-2.97,7.21c-1.04,2.35-2.36,4.56-3.94,6.62c0.49-1.87,0.97-3.74,1.46-5.62
	c-1.36,1.04-2.66,2.12-3.87,3.29c-0.7,0.68-1.35,1.45-1.85,2.29c-0.32,0.53-0.51,1.29-0.41,1.88
	C194,129.33,194.45,130.34,194.8,131.39z M188.92,139.4c0.54-1.86,1.49-3.46,2.7-4.93c0.76-0.92,0.76-0.92-0.03-1.8
	c-1.33-1.49-2.43-3.11-2.88-5.1c-0.04-0.19-0.09-0.37-0.16-0.67c-0.9,1.76-1.3,3.51-1.45,5.33c-0.52,6.09-0.16,12.12,1.1,18.1
	c0.18,0.86,0.41,1.72,0.62,2.58c0.05,0,0.11-0.01,0.16-0.01c0.05-0.25,0.1-0.5,0.15-0.75c0.58-3.25,1.08-6.52,1.76-9.75
	c0.35-1.64-0.65-2.8-0.98-4.33C189.51,138.61,189.22,139,188.92,139.4z M156.08,151.14c-0.22,0.14-0.34,0.22-0.46,0.3
	c-1.47,1.01-3.05,1.2-4.71,0.57c-1.29-0.48-2.4-1.23-3.31-2.27c-1.82-2.08-2.65-4.58-2.94-7.27c-0.37-3.36,0.29-6.57,1.5-9.69
	c0.21-0.55,0.44-1.1,0.67-1.65c-1.26,1.21-2.2,2.64-2.98,4.17c-1.4,2.74-2.37,5.59-2.23,8.73c0.24,5.21,3.31,8.79,8.36,9.7
	C152.29,154.13,154.9,153.06,156.08,151.14z M172.84,98.55c-0.09-0.08-0.19-0.15-0.28-0.23c-0.1,0.2-0.16,0.44-0.31,0.58
	c-1.18,1.13-2.33,2.29-3.56,3.35c-3.41,2.93-7.18,5.21-11.65,6.08c-4.13,0.8-8.16,0.85-11.59-2.18c-0.01,0.06-0.04,0.1-0.03,0.13
	c0.06,0.15,0.13,0.29,0.21,0.43c1.35,2.49,3.59,3.6,6.27,3.99c3.4,0.5,6.66-0.12,9.83-1.35c5.04-1.95,8.81-5.27,10.94-10.31
	C172.72,98.9,172.77,98.72,172.84,98.55z M201.78,90.33c-0.25-0.03-0.31-0.05-0.36-0.04c-0.22,0.05-0.43,0.1-0.65,0.15
	c-4.44,1.19-8.59,0.59-12.38-2.08c-0.95-0.67-1.86-1.41-2.75-2.16c-1.59-1.35-3.32-2.42-5.42-2.76c-1.43-0.23-2.82-0.18-4.17,0.44
	c0.23,0.07,0.46,0.08,0.69,0.06c1.32-0.09,2.53,0.29,3.62,0.96c0.82,0.5,1.61,1.09,2.3,1.75c4.17,4.01,9.15,5.65,14.87,5.07
	C198.99,91.58,200.36,91.15,201.78,90.33z M152.76,113.45c-4.03,5.83-9.84,8.86-16.03,11.36c0.19,0.05,0.35,0.04,0.51,0.03
	c3.75-0.33,7.17-1.59,10.27-3.71c1.86-1.28,3.48-2.8,4.53-4.84C152.46,115.46,152.73,114.59,152.76,113.45z M170.82,94.45
	c-0.2-0.09-0.3-0.16-0.41-0.18c-1.35-0.22-2.69-0.57-4.04-0.63c-4.32-0.17-8.04,1.28-11,4.46c-0.73,0.78-1.23,1.78-1.81,2.69
	c-0.27,0.43-0.01,0.72,0.32,0.96c0.4,0.28,0.46-0.15,0.63-0.32c0.6-0.63,1.18-1.27,1.78-1.9c2.74-2.87,6.03-4.7,10.02-5.07
	C167.75,94.33,169.23,94.45,170.82,94.45z M164.48,96.78c-0.01-0.03-0.03-0.06-0.04-0.09c-0.16,0.05-0.34,0.07-0.49,0.15
	c-1.16,0.6-2.36,1.13-3.46,1.83c-2.16,1.39-3.82,3.31-5.36,5.35c-1.29,1.71-2.74,3.22-4.85,3.94c-0.01,0-0.01,0.06-0.02,0.09
	c0.78,0,2.19-0.46,3.36-1.07c2.2-1.14,3.8-2.94,5.41-4.75c1.34-1.5,2.74-2.95,4.14-4.39C163.57,97.44,164.05,97.13,164.48,96.78z
	 M154.96,125.39c-1.52,5.65-5.29,9.83-9.04,14.07c1.64-1.01,3.25-2.02,4.73-3.22C154.08,133.46,155.44,129.78,154.96,125.39z
	 M190.02,94.22c0.01-0.04,0.02-0.09,0.03-0.13c-0.81-0.29-1.63-0.54-2.41-0.86c-2.35-0.98-4.22-2.63-6.04-4.36
	c-0.76-0.72-1.51-1.45-2.33-2.1c-0.87-0.7-1.91-1.04-3.04-0.95c-0.75,0.06-1.42,0.3-1.92,0.96c1.67-0.69,2.87,0.17,4.02,1.15
	c0.72,0.62,1.42,1.25,2.1,1.9c1.89,1.79,4.09,3.07,6.59,3.78C188,93.9,189.02,94.03,190.02,94.22z M167.85,99.25
	c-0.04-0.02-0.08-0.03-0.12-0.05c-2.33,1.65-4.64,3.33-7,4.94c-2.37,1.61-4.92,2.92-7.59,4c0.3,0.03,0.58,0.03,0.86-0.01
	c2.27-0.31,4.34-1.17,6.34-2.25c2.46-1.33,4.76-2.87,6.53-5.09C167.25,100.32,167.53,99.76,167.85,99.25z M181.44,81.71
	c1.49,0.01,2.93,0.28,4.23,1.01c0.94,0.54,1.85,1.14,2.72,1.8c1.41,1.06,2.94,1.91,4.61,2.47c0.55,0.19,1.13,0.3,1.69,0.45
	c-0.36-0.33-0.79-0.47-1.13-0.74c-1.12-0.85-2.25-1.69-3.29-2.63c-1.5-1.35-3.13-2.4-5.13-2.78
	C183.86,81.05,182.63,81.14,181.44,81.71z M144.93,114.58c-1.25-1.22-1.69-2.73-1.72-4.4c-0.03-2.05,0.35-4.05,0.92-6.01
	c0.06-0.22,0.12-0.43,0.18-0.65c-1.22,1.41-2.11,2.96-2.45,4.78c-0.24,1.29-0.18,2.57,0.27,3.81
	C142.61,113.43,143.55,114.26,144.93,114.58z M131.78,143.49c-0.18-3.34-0.02-6.49,1.36-9.63
	C130.64,136.3,130.02,140.71,131.78,143.49z M204.6,85.4c-0.33-3.66-3.52-5.5-7.54-5.28c1.52,0.39,2.93,1.02,4.25,1.85
	C202.65,82.81,203.73,83.94,204.6,85.4z M138.61,126.88c-3.78-0.11-8.09,2.82-8.35,5.75C132.27,129.5,135.41,128.26,138.61,126.88z
	 M138.63,121.43c0.03,0.06,0.06,0.11,0.09,0.17c3.36-0.8,6.52-2,9.01-4.53C144.7,118.52,141.67,119.97,138.63,121.43z
	 M151.22,102.09c-0.05-0.69,0.08-1.42-0.68-1.66c-0.79-0.25-1.66-0.35-2.36,0.23c-0.65,0.55-0.66,1.35-0.54,2.12
	c0.14,0.9,0.9,1.5,1.84,1.51c0.87,0.01,1.46-0.49,1.66-1.44C151.19,102.58,151.2,102.29,151.22,102.09z M177.81,110.9
	c-0.87-0.27-1.69,0.14-1.98,0.95c-0.32,0.89,0.32,1.73,1.26,1.61c0.16-0.02,0.4-0.23,0.43-0.39
	C177.65,112.37,177.71,111.65,177.81,110.9z M152.52,96.08c2.22-1.83,4.77-3.02,7.49-3.91C156.98,92.48,154.31,93.45,152.52,96.08z
	 M150.68,130.02c1.74-2.2,2.46-4.73,2.58-7.61C152.37,125.03,151.53,127.52,150.68,130.02z M151.71,100.97
	c0.69-0.08,1.02-0.58,0.95-1.37c-0.05-0.63-0.49-1.06-1.1-1.06c-0.49,0-1.07,0.52-1.1,1.03c-0.01,0.14,0.17,0.4,0.26,0.4
	C151.39,99.95,151.65,100.33,151.71,100.97z M151.35,103.16c-0.05,0.41,0.44,0.93,0.9,0.98c0.31,0.03,1.1-0.73,1.16-1.12
	c0.05-0.3-0.58-0.85-1.06-0.92C151.85,102.03,151.42,102.48,151.35,103.16z M149.58,99.13c-0.13-0.23-0.33-0.63-0.57-1.01
	c-0.2-0.31-0.55-0.33-0.77-0.08c-0.25,0.28-0.61,0.74-0.52,0.96c0.15,0.39,0.56,0.75,0.95,0.96
	C149.18,100.24,149.56,99.93,149.58,99.13z M151.4,105.61c-0.01-0.73-0.42-1.31-0.87-1.29c-0.57,0.03-0.97,0.36-0.97,0.79
	c0.01,0.54,0.75,1.31,1.26,1.28C151.36,106.37,151.37,105.96,151.4,105.61z M147.63,106.18c0.6,0,1.4-0.69,1.38-1.17
	c-0.01-0.34-0.58-0.72-1.06-0.71c-0.41,0.01-0.98,0.71-0.98,1.23C146.97,105.99,147.24,106.16,147.63,106.18z M146.74,104.11
	c0.4-0.04,0.65-0.3,0.64-0.75c-0.01-0.83-0.2-1.09-0.72-1.06c-0.67,0.04-1.3,0.48-1.28,0.89
	C145.4,103.54,146.23,104.12,146.74,104.11z M146.78,101.68c0.46,0,0.81-0.36,0.81-0.86c0.01-0.46-0.55-0.98-1.07-0.94
	c-0.45,0.03-0.76,0.28-0.8,0.75C145.68,101.08,146.3,101.68,146.78,101.68z M123.68,140.15c-2.56-2.55-5.69-3.07-9.1-2.5
	c-3.01,0.5-5.49,2.1-7.85,3.92c-0.42,0.33-0.22,0.55,0.11,0.78c2.63,1.8,5.51,2.7,8.72,2.35c3.33-0.36,6.05-1.91,8.38-4.27
	C123.84,140.33,123.76,140.23,123.68,140.15z M239.14,138.5c-2.92-1.25-5.88-1.43-8.88-0.32c-1.29,0.48-2.41,1.24-3.34,2.26
	c5.53,5.69,12.7,5.25,17.62,1.44C242.83,140.54,241.1,139.34,239.14,138.5z M122.91,151.6c2.92-1.44,4.79-3.62,4.9-7.02
	c0.02-0.73-0.09-0.83-0.82-0.87c-5.32-0.24-9.96,2.56-12.23,8.16c-0.17,0.42-0.07,0.6,0.36,0.64c0.84,0.07,1.68,0.15,2.52,0.22
	C119.91,152.66,121.27,152.41,122.91,151.6z M235.63,152.52c0.71-0.08,0.74-0.16,0.47-0.85c-1.05-2.63-2.79-4.68-5.15-6.22
	c-2.16-1.4-4.53-1.93-7.08-1.68c-0.55,0.05-0.77,0.27-0.73,0.84c0.14,1.98,0.76,3.73,2.21,5.14c2.2,2.13,4.93,2.85,8.19,2.97
	C234.03,152.67,234.83,152.61,235.63,152.52z M235.46,125.34c2.07-1.51,4.07-3.09,5.65-5.14c2.36-3.05,3.27-6.46,2.58-10.28
	c-0.16-0.86-0.3-0.92-0.97-0.4c-2.45,1.9-4.37,4.23-5.28,7.2c-0.87,2.8-1.46,5.68-2.18,8.53
	C235.32,125.28,235.39,125.31,235.46,125.34z M107.1,114.05c0.39,3.02,1.82,5.53,3.98,7.62c1.37,1.32,2.87,2.51,4.31,3.75
	c0.05-0.03,0.1-0.07,0.15-0.1c-0.02-0.17-0.02-0.34-0.05-0.5c-0.34-1.53-0.69-3.06-1.03-4.6c-0.64-2.95-1.63-5.74-3.58-8.1
	c-0.97-1.17-2.03-2.23-3.42-3.06C107.01,110.76,106.89,112.4,107.1,114.05z M229.6,127.72c-0.84-3.31-3.09-5.36-6.01-6.83
	c-0.65-0.33-0.72-0.28-0.84,0.45c-0.87,5.25,1.71,10,6.68,12.21C229.92,131.58,230.09,129.66,229.6,127.72z M125.81,130.36
	c2.26-2.74,2.83-5.92,2.37-9.36c-0.05-0.37-0.26-0.44-0.55-0.27c-0.82,0.46-1.69,0.87-2.44,1.42c-3.79,2.79-4.95,7.33-3.65,11.22
	C122.69,133.05,124.79,131.59,125.81,130.36z M232.54,127.98c0.86-1.59,1.47-3.26,1.81-5.04c0.54-2.89,0.08-5.58-1.74-7.95
	c-0.15-0.19-0.44-0.36-0.68-0.38c-0.12-0.01-0.32,0.31-0.4,0.52c-1.03,2.66-1.15,5.39-0.5,8.14c0.37,1.6,0.87,3.17,1.31,4.75
	C232.4,128.01,232.47,128,232.54,127.98z M119.81,123.53c0.66-2.82,0.62-5.63-0.44-8.37c-0.28-0.73-0.53-0.81-0.96-0.19
	c-0.58,0.85-1.21,1.74-1.54,2.7c-1.24,3.67-0.11,7.04,1.67,10.32C118.97,126.51,119.46,125.04,119.81,123.53z M107.39,134.58
	c3.34,2.05,6.83,1.34,10.35,0.61c-2.31-2.52-8.74-3.2-11.01-1.08C106.98,134.29,107.18,134.45,107.39,134.58z M244.16,134.05
	c-2.24-2.02-8.04-1.45-10.75,1.09C237.42,136.37,241.62,136.23,244.16,134.05z M226.31,114.68c0.88,0.08,1.77,0.13,2.65,0.17
	c0.13,0.01,0.27-0.16,0.41-0.24c-0.12-0.07-0.23-0.21-0.35-0.21c-2.11-0.01-4.23-0.01-5.76-0.01
	C223.91,114.45,225.11,114.57,226.31,114.68z M127.89,114.22c-0.28,0-0.56-0.01-0.84,0c-1.73,0.06-3.46,0.12-5.19,0.19
	c-0.14,0.01-0.28,0.12-0.42,0.19c0.15,0.09,0.31,0.27,0.45,0.26c2-0.16,4-0.35,6-0.53C127.89,114.29,127.89,114.25,127.89,114.22z
	 M222.58,116.77c1.94,0.19,3.87,0.38,5.81,0.56c0.14,0.01,0.28-0.11,0.42-0.17c-0.02-0.06-0.03-0.12-0.05-0.18
	c-2.06-0.12-4.12-0.24-6.18-0.36C222.59,116.67,222.58,116.72,222.58,116.77z M127.82,116.67c-0.11-0.01-0.21-0.03-0.32-0.03
	c-1.7,0.1-3.4,0.2-5.1,0.31c-0.1,0.01-0.19,0.13-0.29,0.2c0.12,0.07,0.25,0.2,0.37,0.19c0.94-0.08,1.88-0.19,2.81-0.29
	c0.85-0.09,1.69-0.18,2.54-0.26C127.82,116.75,127.82,116.71,127.82,116.67z M224.89,119.34c1.14,0.18,2.28,0.36,3.42,0.52
	c0.08,0.01,0.19-0.1,0.28-0.15c-0.11-0.09-0.21-0.24-0.32-0.25c-1.12-0.1-2.23-0.18-3.35-0.26
	C224.91,119.25,224.9,119.29,224.89,119.34z M125.94,119.19c-0.22,0.01-0.44,0.02-0.65,0.04c-0.86,0.07-1.72,0.14-2.57,0.23
	c-0.12,0.01-0.22,0.17-0.32,0.26c0.11,0.05,0.23,0.17,0.33,0.15c1.08-0.16,2.16-0.35,3.24-0.53
	C125.95,119.29,125.94,119.24,125.94,119.19z M136.32,82.14c0.47-0.1,0.93-0.21,1.4-0.28c2.89-0.45,4.53-2.21,5.1-5
	c0.28-1.36,0.37-2.75,0.54-4.13c0.02-0.19,0.05-0.37,0.18-0.55c0.12,1.09,0.2,2.2,0.38,3.28c0.15,0.87,0.37,1.73,0.64,2.57
	c0.62,1.93,1.96,3.15,3.92,3.66c0.8,0.21,1.61,0.36,2.58,0.57c-0.52,0.11-0.9,0.17-1.28,0.26c-0.55,0.13-1.1,0.24-1.64,0.41
	c-2.54,0.83-3.81,2.69-4.23,5.24c-0.14,0.89-0.25,1.79-0.46,2.69c-0.12-0.77-0.24-1.55-0.37-2.32c-0.08-0.46-0.17-0.91-0.29-1.36
	c-0.71-2.83-2.6-4.34-5.43-4.76c-0.36-0.05-0.71-0.11-1.07-0.17C136.31,82.23,136.31,82.18,136.32,82.14z M200.77,60.3
	c-2.31-0.49-3.71-1.9-4.24-4.19c-0.13-0.55-0.23-1.1-0.35-1.65c-0.03-0.14-0.07-0.27-0.11-0.41c-0.21,1.54-0.52,3-1.44,4.27
	c-0.93,1.28-2.28,1.85-3.62,2.13c0.83,0.36,1.76,0.67,2.6,1.16c0.87,0.52,1.4,1.4,1.71,2.35c0.3,0.91,0.5,1.85,0.77,2.86
	c0.26-1.54,0.46-3.03,1.36-4.28c0.96-1.32,2.42-1.73,4.05-2.06C201.15,60.4,200.96,60.34,200.77,60.3z M158.82,62.14
	c-0.13,0.77-0.25,1.55-0.39,2.32c-0.39,2.27-1.66,3.74-3.92,4.31c-0.08,0.02-0.16,0.04-0.23,0.07c-0.07,0.03-0.15,0.06-0.35,0.14
	c3.52,0.6,4.45,3.14,4.92,6.06c0.24-1.41,0.46-2.8,1.28-4.01c0.84-1.25,2.13-1.73,3.53-2.05c-1.38-0.31-2.62-0.84-3.32-2.06
	c-0.47-0.82-0.76-1.76-1.04-2.68c-0.2-0.68-0.25-1.41-0.37-2.12C158.89,62.13,158.86,62.14,158.82,62.14z M211.47,71.27
	c-2.05-0.5-3.18-1.86-3.59-3.88c-0.13-0.62-0.25-1.24-0.38-1.87c-0.45,2.7-0.97,5.31-4.37,5.87c3.29,0.48,3.86,2.98,4.35,5.57
	c0.41-2.68,0.99-5.2,4.35-5.58C211.72,71.35,211.6,71.3,211.47,71.27z M164.13,51.41c-0.35,1.56-0.95,2.84-2.72,3.18
	c1.76,0.27,2.48,1.44,2.72,3.06c0.23-1.67,1.08-2.69,2.7-3.07C165.14,54.17,164.47,52.94,164.13,51.41z M187.88,53.58
	c-1.29-0.35-1.72-1.24-2.04-2.42c-0.19,1.31-0.82,2.02-2.03,2.42c1.28,0.23,1.7,1.1,2.07,2.08
	C186.12,54.63,186.67,53.88,187.88,53.58z M184.2,71c1.06,0.22,1.49,0.91,1.79,1.94c0.21-1.04,0.66-1.68,1.65-2
	c-1.16-0.33-1.37-1.22-1.67-2.11C185.78,69.84,185.32,70.62,184.2,71z M147.3,62.19c0.02,0.01,0.04,0.02,0.05,0.03
	c0.16-0.7,0.6-1.15,1.13-1.33c-0.41-0.53-0.82-1.06-1.14-1.46c-0.33,0.41-0.75,0.91-1.1,1.35c0.33,0.4,0.73,0.88,1.13,1.35
	C147.35,62.15,147.33,62.17,147.3,62.19z M234.7,57.74c0.41-3.17,1.68-5.54,5.21-6c-3.51-0.44-4.78-2.82-5.19-6.08
	c-0.81,4.27-1.88,5.45-5.46,6.13C232.82,52.17,234.27,54.47,234.7,57.74z M112.75,51.64c1.2-0.3,2.26-0.75,3.01-1.72
	c0.72-0.93,1-2.02,1.21-3.17c0.38,2.4,1.29,4.31,3.98,4.85c-2.63,0.4-3.61,2.2-3.98,4.57C116.57,53.7,115.45,51.94,112.75,51.64z
	 M215.24,42.02c2.67-0.55,3.75-2.32,3.95-4.86c0.47,2.25,1.15,4.28,3.8,4.81c-2.67,0.56-3.46,2.51-3.76,4.88
	C218.77,44.52,218.1,42.41,215.24,42.02z M130.26,43.95c0.34,2.03,1.19,3.59,3.4,4.09c-2.41,0.31-3.06,2.05-3.33,4.01
	c-0.35-0.87-0.63-1.77-1.07-2.57c-0.49-0.87-1.4-1.22-2.39-1.45C129.05,47.53,129.89,45.96,130.26,43.95z M111.73,77.46
	c-0.29-1.1-0.85-1.88-2.16-2.1c1.29-0.4,1.92-1.19,2.15-2.39c0.28,1.09,0.77,2,2.1,2.37C112.5,75.6,111.96,76.38,111.73,77.46z
	 M138.96,37.88c0.3,1.02,0.74,1.86,2.05,2.2c-1.23,0.27-1.75,1.01-2.04,2.04c-0.3-1.09-0.97-1.79-2.1-2.03
	C138,39.73,138.71,39.04,138.96,37.88z M238.6,77.32c-0.27-1.04-0.91-1.67-2.07-1.93c1.2-0.41,1.84-1.14,2.08-2.29
	c0.31,1.07,0.85,1.92,2.18,2.27C239.58,75.64,238.86,76.23,238.6,77.32z M111.61,64.22c-0.31-1.04-0.76-1.72-1.76-1.99
	c0.99-0.31,1.53-0.99,1.77-1.99c0.3,0.92,0.71,1.7,1.91,1.98C112.41,62.51,111.81,63.09,111.61,64.22z M212.22,36.1
	c-0.44-0.53-0.88-1.05-1.33-1.59c0.66-0.27,1.01-0.96,1.23-1.79c0.21,0.85,0.57,1.56,1.57,1.87
	C212.78,34.84,212.31,35.33,212.22,36.1z M237.22,67.12c-0.27,0.25-0.55,0.51-0.81,0.76c-0.27-0.25-0.53-0.51-0.77-0.73
	c0.27-0.35,0.55-0.71,0.81-1.05C236.68,66.41,236.94,66.75,237.22,67.12z M121.91,59c0.24,0.36,0.44,0.66,0.66,0.98
	c-0.32,0.15-0.46,0.83-0.94,0.37C121.04,59.8,121.77,59.47,121.91,59z M151.72,59.23c0.1,0.09,0.47,0.07,0.58-0.04
	c0.46-0.48-0.07-0.66-0.33-0.97C151.75,58.56,151.25,58.8,151.72,59.23z M211.92,65.94c0.56-0.57,0.55-0.69-0.08-1.23
	C211.29,65.33,211.31,65.55,211.92,65.94z M154.26,77.28c0.11,0.1,0.51,0.04,0.63-0.08c0.43-0.44-0.12-0.57-0.34-0.88
	C154.27,76.65,153.8,76.87,154.26,77.28z M191.78,104.43c-1.03,0.15-2.02,0.32-3.01,0.42c-0.69,0.07-1.41,0.1-2.1,0.01
	c-0.56-0.07-0.88-0.55-0.97-1.11c-0.08-0.52,0.37-0.66,0.71-0.86c1.42-0.83,2.95-1,4.55-0.82c0.7,0.08,1.41,0.15,2.11,0.22
	c-1.55-1.35-3.3-2.15-5.32-1.78c-1.66,0.3-3.27,0.83-4.9,1.26c-0.48,0.13-0.49,0.39-0.2,0.74c0.57,0.68,1.29,1.08,2.19,1.11
	c0.43,0.01,0.64,0.19,0.73,0.63c0.23,1.05-0.09,1.85-1.08,2.4C187.63,107.39,190.8,106.43,191.78,104.43z M204.02,107.07
	c0.86-0.88,0.89-1.29,0.22-2.33c-0.43-0.67-0.38-1.15,0.21-1.69c0.42-0.39,0.75-0.36,1.44,0.15c0.07,0.05,0.15,0.1,0.32,0.21
	c-0.21-0.81-0.65-1.23-1.35-1.41c-0.71-0.17-1.26,0.05-1.69,0.62c-0.63,0.85-0.62,1.75-0.25,2.69c0.31,0.78,0.53,1.56,0.32,2.48
	C203.5,107.55,203.78,107.32,204.02,107.07z M168.81,122.09c0.2,0.12,0.39,0.28,0.61,0.34c0.7,0.19,1.4,0.39,2.11,0.5
	c1.05,0.16,2.11,0.24,3.16,0.34c0.1,0.01,0.26-0.04,0.31-0.11c0.22-0.33,0.41-0.67,0.61-1.01c-0.31-0.15-0.63-0.42-0.94-0.41
	c-1.94,0.01-3.88,0.07-5.82,0.12C168.83,121.93,168.82,122.01,168.81,122.09z M172.22,124.5c0.51,0.57,1,0.97,1.66,0.72
	c0.7-0.26,0.75-0.97,0.85-1.61C174.11,124.47,173.22,124.53,172.22,124.5z M150.81,102.17c0.01,0.89-0.64,1.8-1.28,1.8
	c-0.68,0-1.55-0.98-1.55-1.76c0-0.84,0.63-1.49,1.47-1.51C150.31,100.68,150.8,101.21,150.81,102.17z M148.56,102.19
	c0,0.69,0.38,1.29,0.82,1.3c0.41,0,0.98-0.67,0.97-1.15c-0.01-0.54-0.44-0.96-1.01-0.97C148.82,101.35,148.56,101.62,148.56,102.19z
	"/>
</svg>
