<?xml version="1.0" encoding="utf-8"?>
<!-- Generator: Adobe Illustrator 26.0.1, SVG Export Plug-In . SVG Version: 6.00 Build 0)  -->
<svg version="1.1" id="Layer_1" xmlns="http://www.w3.org/2000/svg" xmlns:xlink="http://www.w3.org/1999/xlink" x="0px" y="0px"
	 viewBox="0 0 350 230" style="enable-background:new 0 0 350 230;" xml:space="preserve">
<style type="text/css">
	.st0{fill:#FFF6CF;}
	.st1{fill:#F5FFD2;}
	.st2{fill:#DEFFCF;}
	.st3{fill:#FFEFD4;}
	.st4{fill:#CAFFCA;}
	.st5{fill:#D2E2FF;}
	.st6{fill:#FFE1E1;}
	.st7{fill:#D2FFFD;}
	.st8{fill:#FFD4FB;}
	.st9{fill:url(#SVGID_1_);}
	.st10{fill:url(#SVGID_00000005233764887073224880000016676785500845424572_);}
	.st11{fill:url(#SVGID_00000150786988659789878710000005100482976702003892_);}
	.st12{fill:url(#SVGID_00000169534150357176252980000010285053252084867753_);}
	.st13{fill:url(#SVGID_00000040573701127253187130000015837416354470249121_);}
	.st14{fill:url(#SVGID_00000179610397454319782910000015984464728463473031_);}
	.st15{fill:url(#SVGID_00000104700829416966811860000004805160993630535596_);}
	.st16{fill:url(#SVGID_00000072985939085770141560000012663017993094731193_);}
	.st17{fill:#00512C;}
	.st18{fill:url(#SVGID_00000116927391200976122780000002936737233513532087_);}
	.st19{fill:#21B5C1;}
	.st20{fill:url(#SVGID_00000170964037054583394430000007271944333498768801_);}
	.st21{fill:url(#SVGID_00000152227114463632608410000008801298970373609888_);}
	.st22{fill:url(#SVGID_00000054257070452985176630000000951463120741786025_);}
	.st23{fill:url(#SVGID_00000029026787055426486400000002048006157940181641_);}
	.st24{fill:url(#SVGID_00000178186656147103208190000002962601786976839572_);}
	.st25{fill:url(#SVGID_00000119836472954239946150000009281330661308413361_);}
	.st26{fill:url(#SVGID_00000114787294545775993440000000045572248080880007_);}
	.st27{fill:url(#SVGID_00000001653509478632187430000013365521044272508072_);}
	.st28{fill:url(#SVGID_00000023272868612067648220000004225898621447804035_);}
	.st29{fill:url(#SVGID_00000018955475348184361240000013891873918647140507_);}
	.st30{fill:url(#SVGID_00000044870402545445183900000008046520198326545322_);}
	.st31{fill:url(#SVGID_00000011001272143773100280000003828659583232706749_);}
	.st32{fill:url(#SVGID_00000075135138134386915030000011189357640164404639_);}
	.st33{fill:url(#SVGID_00000142860508643296262190000001421968904379332749_);}
	.st34{fill:url(#SVGID_00000041266395124040514710000002807252285456528827_);}
</style>
<radialGradient id="SVGID_1_" cx="175.7094" cy="100.4785" r="70.8039" gradientUnits="userSpaceOnUse">
	<stop  offset="0" style="stop-color:#EE2A7B"/>
	<stop  offset="0.0337" style="stop-color:#DB2776"/>
	<stop  offset="0.1335" style="stop-color:#A91E69"/>
	<stop  offset="0.2381" style="stop-color:#7C165E"/>
	<stop  offset="0.3457" style="stop-color:#560F54"/>
	<stop  offset="0.4569" style="stop-color:#380A4D"/>
	<stop  offset="0.5731" style="stop-color:#200547"/>
	<stop  offset="0.6962" style="stop-color:#0F0242"/>
	<stop  offset="0.831" style="stop-color:#050140"/>
	<stop  offset="1" style="stop-color:#02003F"/>
</radialGradient>
<path class="st9" d="M131.48,154.89c0-3.34,0-6.58,0-9.82c0-0.7-0.05-1.41-0.01-2.11c0.01-0.19,0.18-0.46,0.35-0.55
	c7.79-4.06,16.06-6.64,24.71-8.08c8.09-1.35,16.24-1.84,24.43-1.46c5.81,0.27,11.57,1.03,17.28,2.12
	c6.45,1.24,12.61,3.35,18.61,5.98c1.02,0.45,1.95,1.11,2.89,1.71c0.17,0.11,0.34,0.39,0.34,0.59c-0.01,3.72-0.04,7.43-0.07,11.15
	c0,0.05-0.02,0.11-0.05,0.23c-0.77-0.3-1.53-0.6-2.29-0.89c-5.91-2.3-12.03-3.85-18.23-5.13c-5.51-1.13-11.05-2.06-16.67-2.37
	c-5.39-0.3-10.78-0.3-16.16,0.15c-6.24,0.52-12.4,1.48-18.5,2.87c-5.12,1.16-10.13,2.66-14.91,4.84
	C132.65,154.34,132.12,154.59,131.48,154.89z M139.36,146.19c-0.01-1.19-1.01-2.16-2.2-2.16c-1.08,0.01-2.12,1.15-2.09,2.29
	c0.03,1.14,0.91,2.03,1.98,2.02C138.39,148.33,139.37,147.41,139.36,146.19z M212.34,146.17c-0.01,1.21,0.84,2.13,1.97,2.14
	c1.23,0.01,2.26-0.97,2.28-2.16c0.02-1.23-0.9-2.18-2.14-2.18C213.34,143.97,212.34,145,212.34,146.17z M194.11,130.13
	c0.57-0.76,1.22-1.47,1.7-2.28c1.15-1.96,1.13-4.1,0.61-6.21c-1.5-6.09-4.82-11-9.87-14.73c-0.54-0.4-1.11-0.74-1.65-1.12
	c-2.2-1.52-4.6-1.8-7.2-1.31c-3.36,0.63-6.16,2.31-8.63,4.55c-3.45,3.12-5.88,6.93-7.08,11.46c-0.58,2.2-0.67,4.4,0.35,6.53
	c0.58,1.2,1.49,2.1,2.59,2.92c-0.14,0.05-0.21,0.11-0.29,0.11c-4.96,0.43-9.63-0.51-13.98-2.96c-0.05-0.03-0.1-0.06-0.15-0.09
	c-0.57-0.26-0.75-0.61-0.6-1.29c1.65-7.6,5.13-14.17,10.75-19.58c0.45-0.44,1.12-0.82,1.26-1.35c0.14-0.52-0.26-1.18-0.44-1.78
	c-1.11-3.7-0.93-7.33,0.55-10.89c0.45-1.08,1.07-2.07,1.99-2.82c0.35-0.29,0.82-0.46,1.25-0.64c0.4-0.17,0.83-0.27,1.22-0.39
	c0-0.09,0.01-0.05,0-0.03c-0.77,0.87-0.81,1.04-0.07,1.94c0.8,0.96,1.68,1.86,2.6,2.87c0.95-1.08,1.89-2.05,2.71-3.11
	c0.51-0.66,0.37-1.02-0.31-1.51c-0.25-0.18-0.48-0.4-0.68-0.65c1.43,0.8,3.16,1.07,4.22,2.53c0.14-0.13,0.24-0.2,0.32-0.3
	c0.73-0.98,1.8-1.44,2.89-1.86c0.88-0.34,1.69-0.8,2.3-1.54c0.12-0.14,0.23-0.3,0.25-0.33c-0.43-0.72-0.8-1.37-1.21-1.99
	c-0.1-0.16-0.31-0.27-0.49-0.35c-0.82-0.36-0.93-0.6-0.75-1.46c0.11-0.5,0.21-1.01,0.24-1.52c0.08-1.28,0.74-2.2,1.95-2.61
	c0.83-0.28,1.68-0.34,2.53-0.13c1.37,0.34,2.21,1.66,1.96,3.05c-0.06,0.36-0.04,0.76,0.06,1.1c0.25,0.9,0.09,1.23-0.79,1.56
	c-0.18,0.07-0.37,0.27-0.43,0.45c-0.16,0.51-0.4,0.93-0.88,1.21c-0.46,0.28-0.5,0.72-0.13,1.06c0.5,0.46,1.03,0.96,1.64,1.19
	c4.07,1.51,5.53,4.88,6.27,8.73c0.51,2.62,0.25,5.24-0.48,7.8c-0.15,0.52-0.07,0.85,0.38,1.21c3.56,2.86,6.55,6.2,8.65,10.29
	c1.52,2.96,2.66,6.06,3.29,9.34c0.09,0.48-0.06,0.81-0.33,1.15c-1.26,1.58-2.93,2.54-4.82,3.13c-1.08,0.34-2.2,0.55-3.3,0.82
	C194.11,130.23,194.11,130.18,194.11,130.13z M173.76,90.08c0.15,0.75,0.31,1.36,0.37,1.97c0.17,1.59-0.37,3.04-0.97,4.47
	c-0.47,1.12-0.93,2.25-1.37,3.38c-0.08,0.2-0.1,0.53,0.01,0.69c0.77,1.14,1.61,2.22,2.75,3.03c0.11,0.08,0.39,0.1,0.47,0.02
	c0.9-0.93,1.77-1.88,2.65-2.83c0.32-0.35,0.42-0.77,0.24-1.22c-0.46-1.16-0.88-2.34-1.39-3.48c-0.67-1.47-1.54-2.88-1.58-4.54
	C174.92,90.71,174.34,90.54,173.76,90.08z M187.86,91.69c-0.11,0.21-0.18,0.3-0.21,0.4c-0.41,1.15-0.83,2.29-1.22,3.44
	c-0.46,1.37-0.93,2.74-1.33,4.12c-0.09,0.3,0,0.72,0.17,1c0.97,1.64,2.42,2.81,3.96,3.89c0.05,0.04,0.14,0.03,0.33,0.06
	c0.21-1.46,0.46-2.88,0.6-4.31c0.26-2.75-0.35-5.33-1.65-7.75C188.34,92.26,188.11,92.02,187.86,91.69z M164.2,90.56
	c-2.77,2.58-3.59,11.07-1.4,13.61c1.19-1.02,2.3-2.11,3.12-3.45c0.12-0.2,0.13-0.55,0.06-0.79c-0.45-1.39-0.98-2.76-1.41-4.16
	c-0.46-1.49-0.81-3.01-0.37-4.59C164.24,91.03,164.2,90.86,164.2,90.56z M181.25,91.24c1.09-0.17,2.15-0.28,3.19-0.5
	c0.44-0.1,0.89-0.37,1.22-0.68c0.54-0.51,0.35-1.22-0.34-1.45c-1.11-0.38-2.17-0.82-2.96-1.75c-0.27-0.32-0.68-0.52-1.12-0.25
	c-1.14,0.71-2.28,1.44-3.42,2.14c-0.93,0.57-0.93,1.15,0.02,1.71c0.21,0.12,0.44,0.25,0.68,0.3
	C179.42,90.93,180.34,91.08,181.25,91.24z M202.48,133.45c0.44,0.11,0.88,0.24,1.32,0.36c1.28,0.36,1.3,0.37,2.06-0.74
	c2.16-3.2,4.02-6.56,5.37-10.18c2.65-7.14,3.36-14.43,1.75-21.91c-1.8-8.31-5.84-15.33-12.07-21.14
	c-10.77-10.05-26.69-12.79-40.1-6.71c-10.57,4.8-17.48,12.93-20.94,23.93c-2.95,9.38-2.36,18.65,1.62,27.67
	c1.41,3.21,3.26,6.15,5.43,8.91c0.12,0.16,0.37,0.37,0.52,0.34c1.12-0.23,2.23-0.52,3.27-0.77c-1.35-2.01-2.76-3.89-3.95-5.9
	c-4.29-7.21-5.92-15.03-4.79-23.34c1.33-9.79,5.97-17.76,13.84-23.74c7.57-5.76,16.14-7.77,25.51-6.22
	c5.15,0.85,9.88,2.75,14.05,5.98c10.38,8.05,15.47,18.53,14.64,31.73c-0.44,7.05-2.92,13.38-7.1,19.06
	c-0.57,0.78-1.18,1.54-1.82,2.38C201.59,133.26,202.03,133.34,202.48,133.45z M144.53,161.64c-0.62-0.26-1.24-0.54-1.88-0.77
	c-4.13-1.5-8.46-2.06-12.78-2.63c-0.48-0.06-0.63-0.2-0.63-0.69c0.01-2.34-0.02-4.69-0.05-7.03c0-0.41-0.06-0.82-0.09-1.24
	c-0.24,0-0.41-0.01-0.58,0c-4.55,0.3-8.98,1.22-13.3,2.65c-3.43,1.14-6.71,2.59-9.8,4.48c-0.31,0.19-0.59,0.43-0.99,0.72
	c4,0.46,7.85,0.81,11.58,2.19c-2.95,3.41-4.99,7.21-6.19,11.48c1.92-2.21,4.32-3.73,6.93-4.95c7.42-3.45,15.28-4.56,23.37-4.38
	c1.46,0.03,2.91,0.16,4.37,0.25C144.51,161.7,144.52,161.67,144.53,161.64z M235.69,159.31c3.77-1.24,7.48-1.96,11.29-2.25
	c-7.54-4.7-15.62-7.62-24.64-7.8c0,0.35,0,0.58,0,0.8c0,2.59-0.02,5.18,0.01,7.77c0.01,0.59-0.16,0.73-0.74,0.74
	c-4.72,0.07-9.32,0.84-13.74,2.54c-0.18,0.07-0.35,0.15-0.53,0.22c0.34,0.07,0.64,0.05,0.94,0.04c2.05-0.07,4.11-0.24,6.16-0.17
	c5.56,0.18,10.96,1.27,16.23,3.02c3.12,1.03,6.14,2.29,8.78,4.31c0.87,0.67,1.64,1.46,2.54,2.27
	C240.43,166.65,238.7,162.69,235.69,159.31z M219.92,138.91c3.63-3.95,6.75-8.24,9-13.14c3.83-8.39,5.4-17.14,4.2-26.32
	c-0.89-6.85-3.04-13.27-6.58-19.21c-3.48-5.83-7.77-10.91-13.5-14.67c-0.74-0.49-1.34-1.23-1.94-1.91c-0.58-0.66-1.01-1.44-1.6-2.08
	c-3.65-3.96-8.18-6.2-13.52-6.79c-0.68-0.08-1.38-0.01-2.13-0.01c0.23,0.37,0.41,0.73,0.67,1.04c0.96,1.16,1.91,2.32,2.92,3.44
	c2.68,2.97,5.98,4.91,9.86,5.86c1.3,0.32,2.59,0.64,3.72,1.4c2.27,1.51,4.45,3.15,6.41,5.06c5.03,4.89,8.71,10.64,11.05,17.26
	c2.24,6.37,3.51,12.88,3.02,19.67c-0.34,4.67-1.38,9.18-3.04,13.55c-2.13,5.63-5.38,10.57-9.26,15.13
	c-0.54,0.63-1.12,1.24-1.67,1.86C218.62,139.97,218.96,139.96,219.92,138.91z M150.88,150.99c1.33,1.16,2.64,2.35,4,3.48
	c6.27,5.2,13.26,9.27,20.53,12.88c0.37,0.18,0.69,0.22,1.07,0.02c2.61-1.38,5.26-2.68,7.83-4.14c5.41-3.06,10.39-6.72,14.99-10.9
	c0.37-0.34,0.72-0.71,1.16-1.15c-1.5-0.29-2.86-0.56-4.22-0.8c-0.15-0.03-0.36,0.07-0.49,0.17c-1.49,1.21-2.94,2.48-4.46,3.65
	c-4.47,3.44-9.27,6.34-14.31,8.87c-0.69,0.34-1.24,0.4-1.96,0.02c-4.52-2.35-8.89-4.95-13.07-7.86c-2.11-1.47-4.11-3.08-6.18-4.62
	c-0.23-0.17-0.55-0.36-0.8-0.33c-1.34,0.12-2.68,0.32-4.01,0.48C150.92,150.85,150.9,150.92,150.88,150.99z M139.7,65.26
	c-2.73,1.53-5.15,3.47-7.29,5.74c-8.03,8.48-12.6,18.59-13.98,30.13c-0.73,6.08-0.09,12.09,1.63,17.97
	c1.19,4.06,2.94,7.87,5.12,11.5c1.92,3.19,4.27,6.03,6.88,8.66c0.13,0.13,0.42,0.26,0.55,0.21c0.52-0.22,1.01-0.51,1.56-0.8
	c-0.21-0.23-0.35-0.4-0.51-0.56c-2.46-2.56-4.67-5.33-6.57-8.33c-4.03-6.41-6.37-13.37-6.85-20.95c-0.28-4.54-0.1-9.06,0.93-13.52
	c1.57-6.83,4.57-12.97,8.81-18.53c2.8-3.67,6.07-6.88,9.64-9.79c0.67-0.54,0.71-1.24,0.81-2.11C140.1,65.05,139.9,65.15,139.7,65.26
	z M175.73,43.65c1.02-0.67,1.91-1.41,2.92-1.91c5.59-2.72,12.29,1.04,12.79,7.13c0.24,2.92-0.54,5.56-2.09,7.97
	c-3,4.67-7.38,7.48-12.64,9c-0.49,0.14-1.09,0.15-1.58,0.01c-5.58-1.59-10.22-4.5-13.2-9.65c-1.54-2.67-2.09-5.53-1.47-8.58
	c0.71-3.45,3.34-5.93,6.92-6.59c3.02-0.56,5.65,0.2,7.92,2.25c0.13,0.11,0.25,0.23,0.38,0.34
	C175.73,43.66,175.77,43.67,175.73,43.65z M175.87,47.4c-0.4-0.62-0.75-1.18-1.12-1.73c-2.24-3.31-6.36-3.63-8.96-2.17
	c-2.42,1.36-3.49,3.55-3.63,6.22c-0.15,2.85,0.92,5.33,2.6,7.56c2.09,2.78,4.85,4.68,7.95,6.18c2.08,1.01,4.11,1.1,6.2,0.1
	c3.63-1.74,6.69-4.16,8.86-7.59c1.45-2.3,2.09-4.8,1.64-7.53c-0.47-2.83-2.56-5-5.36-5.58c-2.66-0.54-5.98,0.65-7.35,3.06
	C176.43,46.39,176.17,46.86,175.87,47.4z M175.3,31.65c-1.72-2.53-4.75-1.46-5.78,0.24c-0.98,1.62-0.69,3.22,0.25,4.74
	c1.11,1.8,2.74,3.1,4.38,4.38c0.58,0.45,1.16,0.9,1.75,1.35c0.85-0.71,1.69-1.34,2.45-2.05c1.14-1.06,2.33-2.09,3.31-3.29
	c1.12-1.37,1.31-3.03,0.63-4.69c-0.49-1.2-1.41-2-2.74-2.14c-1.39-0.16-2.49,0.38-3.25,1.58c-0.12,0.19-0.25,0.37-0.43,0.65
	C175.64,32.11,175.46,31.88,175.3,31.65z M138.2,53.49c-1.91,1.54-3.58,3.31-5.05,5.27c-2.46,3.27-3.67,6.94-3.43,11.04
	c0.04,0.72,0.24,1.43,0.37,2.14c0.08,0.02,0.17,0.04,0.25,0.05c2.2-2.11,4.41-4.22,5.87-6.97c1.95-3.67,2.64-7.62,2.46-11.88
	C138.44,53.32,138.31,53.4,138.2,53.49z M117.33,89.42c-0.92-3.58-2.79-6.65-5.13-9.56c-2.61,6.02,0.34,17.34,5.33,20.51
	C118.04,96.67,118.26,93.03,117.33,89.42z M232.83,138.95c2.75-1.03,5.2-2.54,7.26-4.73c-7.03-2.14-16.28,0.37-19.96,5.44
	C224.48,140.68,228.69,140.49,232.83,138.95z M233.76,93.94c-0.07,2.08,0.03,4.14,0.5,6.3c0.28-0.22,0.43-0.33,0.57-0.45
	c2.66-2.32,4.29-5.25,5.06-8.67c0.62-2.74,0.45-5.48,0.05-8.23c-0.13-0.92-0.29-1.83-0.45-2.85
	C235.92,84.12,233.93,88.66,233.76,93.94z M113.12,135.01c0.82,0.65,1.64,1.3,2.49,1.91c3.78,2.7,7.89,4.36,12.65,3.77
	c1.02-0.13,2.02-0.41,3.08-0.63c-1.78-2.56-5.32-5.04-8.25-5.79c-3.59-0.92-7.2-0.98-10.93-0.12
	C112.54,134.48,112.81,134.77,113.12,135.01z M123.36,129.53c-0.45-1.74-3.58-6.54-5.25-7.98c-3.06-2.64-6.69-4.13-10.63-5.2
	C109.66,123.07,115.26,128.32,123.36,129.53z M238.24,125.24c2.82-2.38,4.7-5.41,6.15-8.93c-3.8,0.94-7.29,2.13-10.18,4.62
	c-2.57,2.22-4.34,5.03-6,8.14C231.95,128.48,235.4,127.64,238.24,125.24z M143.07,69.19c-1.98,0.21-3.89,0.68-5.69,1.56
	c-2.94,1.44-4.94,3.87-6.76,6.49c-0.01,0.02,0.01,0.07,0.03,0.13c4.18,0.09,8.17-0.68,11.91-2.6c2.65-1.36,4.92-3.21,6.95-5.59
	C147.25,68.97,145.16,68.97,143.07,69.19z M121.65,85.28c0.08-0.1,0.17-0.21,0.23-0.33c1.41-2.71,2.44-5.54,2.53-8.63
	c0.12-3.76-0.73-7.36-1.85-10.92c-0.06-0.19-0.16-0.36-0.28-0.61c-0.14,0.23-0.24,0.36-0.31,0.51c-0.73,1.69-1.57,3.35-2.14,5.09
	c-1.22,3.71-1.55,7.48-0.29,11.27c0.45,1.34,1.02,2.61,1.88,3.82C121.54,85.38,121.6,85.33,121.65,85.28z M232.66,74.2
	c-0.45-3.37-1.71-6.45-3.35-9.46c-3.13,7.36-2.81,14.38,1.54,21.21C232.63,82.15,233.21,78.25,232.66,74.2z M237.13,104.71
	c-2.18,2.83-3,6.17-3.7,9.61c2.04-0.35,6.24-3.45,8.18-5.99c2.31-3.03,3.49-6.52,4.22-10.22
	C242.41,99.67,239.42,101.73,237.13,104.71z M213.18,54.07c-0.28,2.19-0.02,4.33,0.52,6.45c0.94,3.7,3.02,6.7,5.79,9.26
	c0.82,0.76,1.64,1.51,2.5,2.3c1.49-5.4-3.42-15.67-8.75-18.32C213.21,53.89,213.19,53.98,213.18,54.07z M112.57,102.47
	c-1.96-1.82-4.15-3.28-6.65-4.52c1.34,7.63,4.86,13.45,12.16,16.5C117.05,110.09,116.06,105.71,112.57,102.47z M157.69,54.86
	c-0.28,0-0.54-0.01-0.8,0c-3.29,0.15-6.38,1.01-9.23,2.65c-2.38,1.36-4.42,3.11-5.88,5.46c-0.47,0.76-0.81,1.58-0.84,2.5
	C146.41,65.69,156.01,59.61,157.69,54.86z M212.13,69.87c-3.3-1.12-6.64-1.13-10.13-0.34c2.65,2.72,5.57,4.76,9.04,5.97
	c2.19,0.76,4.49,1.02,6.78,1.26c0.92,0.1,1.84,0.17,2.8,0.26C219.7,74.66,215.28,70.94,212.13,69.87z M219.56,88.86
	c2.58,2.01,5.63,2.9,8.79,3.68c-0.02-0.22-0.02-0.34-0.05-0.45c-0.59-2.57-1.82-4.79-3.71-6.63c-3.01-2.93-6.77-4.19-10.93-4.85
	C214.78,84.05,216.8,86.72,219.56,88.86z M225.77,116.28c-1.07-3.18-2.87-5.85-5.64-7.95c-0.9,3.64-0.7,7.14,0.44,10.59
	c0.97,2.96,2.48,5.61,4.78,7.96C226.28,123.26,226.95,119.8,225.77,116.28z M137.03,80.67c-1.28,0.36-2.57,0.69-3.84,1.09
	c-4.87,1.56-8.19,4.76-9.99,9.54c-0.16,0.43-0.26,0.88-0.41,1.43c3.62-0.7,6.8-1.97,9.53-4.23c2.53-2.1,4.04-4.89,5.51-7.93
	C137.43,80.61,137.22,80.61,137.03,80.67z M130.82,108.79c-1.52,1.54-2.85,3.22-3.9,5.12c-1.56,2.83-2.35,5.82-1.79,9.06
	c0.23,1.34,0.73,2.58,1.5,3.73c1.57-1.56,3.93-6.08,4.57-8.71c0.77-3.17,0.5-6.34,0.11-9.63
	C131.09,108.55,130.95,108.67,130.82,108.79z M216.06,121.71c-2.55,4.46-3.96,9.21-3.67,14.39c0.01,0.2,0.22,0.48,0.41,0.58
	c0.99,0.53,2.01,1,3.01,1.51c0.34,0.18,0.51,0.07,0.66-0.25c1.04-2.17,1.71-4.44,1.92-6.83c0.27-3.11-0.42-6.06-1.51-8.93
	c-0.11-0.3-0.29-0.57-0.48-0.94C216.23,121.47,216.13,121.58,216.06,121.71z M127.36,97.36c-4.86,2.86-6.7,7.21-6.23,12.69
	c0.02,0.18,0.08,0.35,0.13,0.54c4.7-2.1,10.25-10.48,10.05-15.35C129.93,95.98,128.62,96.62,127.36,97.36z M139.07,136.69
	c0.14-0.06,0.25-0.33,0.26-0.51c0.13-2.19,0.18-4.37-0.23-6.54c-0.58-3.09-2.09-5.82-3.38-8.64c-0.09-0.2-0.25-0.37-0.45-0.66
	c-2.32,6.03-2.4,11.86,0.63,17.63C136.99,137.54,138.04,137.14,139.07,136.69z M228.35,101.01c-1.92-2.78-4.55-4.62-7.81-5.76
	c0.54,3.76,1.67,7.15,3.93,10.1c1.61,2.09,3.44,3.95,5.71,5.54C230.5,107.33,230.4,103.98,228.35,101.01z M169.71,87.01
	c0.17-0.28,0.29-0.62,0.53-0.83c0.61-0.54,1.26-1.04,1.92-1.52c0.52-0.37,0.67-0.86,0.4-1.39c-0.35-0.69-0.81-1.32-1.2-1.99
	c-0.09-0.15-0.16-0.38-0.11-0.52c0.48-1.14,0.29-1.59-0.87-2.08c-0.28-0.12-0.58-0.3-0.76-0.54c-0.48-0.64-0.82-0.7-1.26-0.04
	c-0.27,0.41-0.57,0.54-1.03,0.52c-0.28-0.01-0.57,0.05-0.83,0.14c-0.56,0.2-0.91,0.71-0.64,1.21c0.44,0.81,0.13,1.27-0.48,1.71
	c-0.03,0.02-0.05,0.06-0.08,0.08c-1.06,1.22-0.95,2.02,0.32,3c0.66,0.51,1.29,1.07,1.9,1.64c0.28,0.26,0.55,0.56,0.69,0.9
	c0.18,0.42,0.31,0.52,0.69,0.28c0.29-0.18,0.59-0.34,0.88-0.51C169.77,87.05,169.74,87.03,169.71,87.01z M146.35,159.36
	c-0.42-0.32-0.86-0.62-1.27-0.95c-1.62-1.33-3.24-2.65-4.83-4.01c-0.48-0.41-0.89-0.59-1.52-0.29c-0.87,0.42-1.81,0.7-2.71,1.07
	c-0.95,0.39-1.88,0.81-2.81,1.22c0.01,0.05,0.01,0.1,0.02,0.14c4.37,0.97,8.74,1.94,13.11,2.91
	C146.33,159.41,146.34,159.38,146.35,159.36z M218.16,156.26c-2.08-0.77-4.15-1.54-6.24-2.29c-0.14-0.05-0.41,0.04-0.53,0.16
	c-0.52,0.48-0.99,1.01-1.51,1.48c-1.4,1.26-2.82,2.49-4.04,3.58c1.83-0.51,3.87-1.16,5.95-1.64c2.09-0.48,4.21-0.8,6.32-1.18
	C218.13,156.33,218.15,156.29,218.16,156.26z"/>
</svg>
