<?xml version="1.0" encoding="utf-8"?>
<!-- Generator: Adobe Illustrator 26.0.1, SVG Export Plug-In . SVG Version: 6.00 Build 0)  -->
<svg version="1.1" id="Layer_1" xmlns="http://www.w3.org/2000/svg" xmlns:xlink="http://www.w3.org/1999/xlink" x="0px" y="0px"
	 viewBox="0 0 350 230" style="enable-background:new 0 0 350 230;" xml:space="preserve">
<style type="text/css">
	.st0{fill:#FFF6CF;}
	.st1{fill:#F5FFD2;}
	.st2{fill:#DEFFCF;}
	.st3{fill:#FFEFD4;}
	.st4{fill:#CAFFCA;}
	.st5{fill:#D2E2FF;}
	.st6{fill:#FFE1E1;}
	.st7{fill:#D2FFFD;}
	.st8{fill:#FFD4FB;}
	.st9{fill:url(#SVGID_1_);}
	.st10{fill:url(#SVGID_00000181782420701719036490000012794817131870308028_);}
	.st11{fill:url(#SVGID_00000142144529660742716880000017660164280614115499_);}
	.st12{fill:url(#SVGID_00000071533098238358602860000014066653053924549813_);}
	.st13{fill:url(#SVGID_00000109015158591313403880000002937402808592377497_);}
	.st14{fill:url(#SVGID_00000021094424994318223260000002355059722927064504_);}
	.st15{fill:url(#SVGID_00000176741584111636213050000008494628987324847235_);}
	.st16{fill:url(#SVGID_00000025405037987589099440000011605601652687111568_);}
	.st17{fill:#00512C;}
	.st18{fill:url(#SVGID_00000034779195220183546500000011419955821493335192_);}
	.st19{fill:#21B5C1;}
	.st20{fill:url(#SVGID_00000029726823230820845950000015410744136414492835_);}
	.st21{fill:url(#SVGID_00000000911189237225663130000007865082826858727324_);}
	.st22{fill:url(#SVGID_00000083769724264625144820000013519089783225273515_);}
	.st23{fill:url(#SVGID_00000088832293457343578660000004101685733876533667_);}
	.st24{fill:url(#SVGID_00000115472692003251354650000005188258442332815492_);}
	.st25{fill:url(#SVGID_00000121257954384662422100000013214935171993573249_);}
	.st26{fill:url(#SVGID_00000051346252384698678800000015942178640130197124_);}
	.st27{fill:url(#SVGID_00000011002156112533720170000001528992040818628239_);}
	.st28{fill:url(#SVGID_00000156564396423281778340000003642195306485844670_);}
	.st29{fill:url(#SVGID_00000074428510555825817490000006381527561951457177_);}
	.st30{fill:url(#SVGID_00000106116054976793455860000017060818067467323544_);}
	.st31{fill:url(#SVGID_00000085944734859647537800000013974839863989236653_);}
	.st32{fill:url(#SVGID_00000055676344493508506010000004346447105696274306_);}
	.st33{fill:url(#SVGID_00000016039987697708115460000014585199955158225291_);}
	.st34{fill:url(#SVGID_00000160148362220894781380000007592390929468140718_);}
</style>
<radialGradient id="SVGID_1_" cx="175.7098" cy="94.0775" r="67.7722" gradientUnits="userSpaceOnUse">
	<stop  offset="5.025126e-03" style="stop-color:#6D2A7B"/>
	<stop  offset="0.5185" style="stop-color:#5C2350"/>
	<stop  offset="1" style="stop-color:#4A1C24"/>
</radialGradient>
<path class="st9" d="M146.7,146.65c-2.14-1.74-4.15-3.57-5.88-5.69c-4.87-5.94-7.09-12.74-6.57-20.41
	c0.63-9.31,4.37-17.35,10.17-24.51c0.52-0.64,0.58-1.15,0.33-1.92c-0.66-2.06-1.28-4.15-1.78-6.25c-0.74-3.15-2.45-5.51-5.29-7.04
	c-1.84-1-3.59-2.11-4.93-3.76c-2.01-2.49-2.61-5.23-1.45-8.27c0.03-0.08,0.04-0.16-0.05-0.31c-0.23,0.35-0.5,0.67-0.69,1.04
	c-1.52,2.88-1.01,6.45,1.3,9.09c1.14,1.3,2.55,2.25,4,3.16c1.12,0.71,2.28,1.42,3.2,2.34c1.83,1.84,2.41,4.12,1.59,6.61
	c-0.79,2.43-2.58,3.79-5.06,4.28c-0.19,0.04-0.39,0.04-0.74,0.07c0.22-0.19,0.33-0.3,0.45-0.39c3.25-2.54,3.32-6.82,0.1-9.4
	c-1.12-0.9-2.36-1.64-3.54-2.47c-2.18-1.53-4.06-3.33-4.99-5.89c-1.49-4.08-0.41-7.56,2.61-10.54c2.37-2.34,5.31-3.65,8.44-4.57
	c2.57-0.75,5.17-1.42,7.74-2.18c0.9-0.26,1.76-0.67,2.6-1.11c-1.61,0.26-3.22,0.5-4.83,0.78c-2.14,0.36-4.3,0.63-6.41,1.13
	c-4.47,1.06-8.09,3.41-10.54,7.39c-0.02,0.03-0.06,0.06-0.19,0.16c0.36-1.68,0.94-3.17,1.9-4.46c0.95-1.29,2.05-2.48,3.07-3.69
	c-3.39,0.86-6.7,2-8.9,5.1c-1.32,1.87-1.56,3.86-0.59,5.97c0.06,0.12,0.1,0.24,0.15,0.37c0.01,0.01-0.02,0.04-0.06,0.13
	c-1.24-0.88-2-2.07-2.33-3.5c-0.55-2.3-0.08-4.46,1.26-6.39c2.19-3.17,5.3-5.1,8.88-6.34c3.1-1.08,6.33-1.49,9.57-1.87
	c2.97-0.35,5.94-0.71,8.75-1.83c0.16-0.06,0.32-0.13,0.47-0.28c-0.57,0.04-1.15,0.11-1.72,0.1c-1.99-0.01-4-0.15-5.98-0.04
	c-6.13,0.37-12.02,1.62-17.29,4.98c-1.66,1.06-2.98,2.49-4.13,4.09c0.61-3.32,2.42-5.83,5.18-7.67c2.44-1.63,5.2-2.23,8.08-2.27
	c2.9-0.05,5.8,0.04,8.71,0.07c0.62,0.01,1.24-0.02,1.86,0c1.22,0.04,1.66-0.23,2.01-1.37c0.62-2.01,1.58-3.84,2.71-5.6
	c0.36-0.57,0.68-0.65,1.22-0.24c0.59,0.45,1.27,0.62,2.01,0.43c0.53-0.14,0.61-0.4,0.25-0.8c-0.59-0.66-1.26-1.1-2.22-0.76
	c-1.03,0.36-1.77-0.25-2.56-0.85c1-0.74,2.03-0.99,3.27-0.52c-0.1-1.59,0.92-2.38,2-3.12c3.79-2.63,7.71-3.02,11.8-0.71
	c1.33,0.75,2.68,1.46,3.98,2.27c1.29,0.8,2.38,1.85,3.24,3.11c1.73,2.52,1.43,5.28-0.79,7.38c-0.39,0.37-0.82,0.69-1.17,1.08
	c-0.35,0.38-0.62,0.83-1.04,1.22c0.39-1.32,0.77-2.65,1.18-4.06c-0.15,0.08-0.21,0.09-0.25,0.13c-2.84,3.12-6.51,4.66-10.53,5.53
	c-0.76,0.16-1.52,0.32-2.28,0.43c-0.6,0.09-0.82,0.42-0.98,0.98c-0.57,1.95-1.06,3.94-1.87,5.8c-1.37,3.14-3.82,5.2-7.07,6.33
	c-0.81,0.28-1.61,0.62-2.37,1.04c-1.68,0.93-2.38,2.32-2.09,4.21c1.06,6.93,2.66,13.74,4.69,20.44c0.2,0.67,0.63,1.08,1.28,1.33
	c5.3,2.05,10.76,3.57,16.34,4.62c2.24,0.42,4.51,0.71,6.76,1.06c1.44,0.23,2.78-0.1,4.06-0.72c0.91-0.44,1.8-0.91,2.69-1.37
	c0.03-0.08,0.07-0.17,0.1-0.25c-0.37-0.26-0.74-0.51-1.11-0.77c0.05-0.05,0.1-0.11,0.15-0.16c0.43,0.25,0.86,0.51,1.3,0.75
	c3.21,1.75,6.57,2.71,10.28,2.05c1.1-0.2,1.86-0.74,2.55-1.64c-0.07,1.01-0.13,2.03-0.21,3.04c-0.04,0.53-0.1,1.06-0.17,1.59
	c-0.08,0.55,0.16,0.71,0.68,0.66c1.44-0.16,1.52-0.06,1.29,1.76c1.46-0.34,2.85-0.67,4.24-1c-0.01-0.07-0.03-0.14-0.04-0.2
	c-0.88,0.17-1.75,0.32-2.63,0.5c-0.79,0.16-0.87,0.09-0.95-0.7c-0.29-2.8-0.57-5.59-0.91-8.38c-0.17-1.37-0.72-1.69-2.15-1.43
	c0.08,0.45,0.16,0.9,0.24,1.4c-1.17-0.53-2.24-1.11-3.38-1.51c-1.6-0.56-3.24-1.07-4.89-1.44c-2.16-0.48-3.84-0.03-5.8,1.42
	c2.96-0.36,5.58,0.09,7.85,1.9c-0.49-0.16-1.02-0.24-1.46-0.48c-1.57-0.88-3.27-1.07-5.01-1.03c-0.31,0.01-0.62,0.02-0.93,0.01
	c-0.57-0.03-1,0-0.9,0.8c0.03,0.22-0.34,0.59-0.61,0.73c-1,0.51-2.05,0.92-3.06,1.41c-0.76,0.36-1.53,0.4-2.33,0.22
	c-4.43-0.97-8.68-2.48-12.89-4.14c-1.65-0.65-3.27-1.37-4.9-2.06c-0.71-0.3-1.23-0.79-1.49-1.52c-1.51-4.27-2.9-8.57-3.26-13.11
	c-0.07-0.87-0.02-1.78,0.16-2.63c0.35-1.63,1.35-2.43,3.02-2.61c1.99-0.22,3.84,0.25,5.57,1.19c1.22,0.66,2.37,1.44,3.59,2.2
	c2.3-3.32,5.25-6.04,9.41-7.6c-0.58-0.15-0.96-0.25-1.35-0.35c-1.53-0.38-3.04-0.79-4.58-1.12c-2.25-0.48-3.55-1.83-3.84-4.09
	c-0.25-1.86-0.39-3.74-0.49-5.65c1.2,1.99,2.86,3.36,5.02,4.14c-0.02,0.08-0.04,0.16-0.06,0.24c-0.7-0.11-1.41-0.17-2.09-0.35
	c-0.82-0.22-1-0.14-1.05,0.69c-0.12,1.95,0.43,2.72,2.35,3.15c1.66,0.37,3.34,0.67,5.01,1.02c0.45,0.09,0.91,0.21,1.35,0.33
	c1.83,0.51,2.86,1.75,3.02,3.62c0.26,2.91,0.43,5.83,0.67,8.75c0.28,3.42,0.59,6.84,0.89,10.26c0.02,0.21,0.08,0.41,0.12,0.62
	c0.05,0,0.11,0,0.16-0.01c0.18-1.32,0.36-2.63,0.55-3.95c0.76-5.33,1.52-10.66,2.27-15.99c0.23-1.6,0.97-2.83,2.34-3.76
	c2.25-1.54,4.44-3.16,6.65-4.75c0.16-0.11,0.33-0.22,0.68-0.45c-2.86,7.78-3.46,15.51-1.18,23.37c0.09-1.47,0.21-2.95,0.26-4.42
	c0.16-4.23,1.1-8.34,2.06-12.43c0.08-0.32,0.15-0.65,0.19-0.98c0.08-0.64-0.11-0.77-0.71-0.55c-0.16,0.06-0.32,0.13-0.48,0.19
	c-0.04-0.05-0.08-0.09-0.12-0.14c0.8-0.8,1.58-1.62,2.4-2.39c0.64-0.6,0.65-0.69,0.26-1.45c-0.5-0.96-0.94-1.95-1.37-2.94
	c-0.52-1.22-0.91-1.42-2.21-1.13c-0.67,0.15-1.35,0.24-2.03,0.32c-0.56,0.07-0.94-0.22-1.13-0.73c-0.2-0.54-0.32-1.11-0.55-1.64
	c-0.22-0.52-0.53-1-0.8-1.5c-0.08-0.15-0.16-0.31-0.18-0.47c-0.1-0.84-0.39-1.13-1.26-1.25c-1.02-0.14-1.11-0.27-0.86-1.29
	c0.13-0.52,0.27-1.03,0.41-1.54c0.28-1,0.29-1.93-0.06-2.97c-0.36-1.09-0.33-2.3-0.43-3.47c-0.03-0.34-0.02-0.6-0.44-0.67
	c-2.49-0.37-3.54-2.14-4.09-4.32c-0.33-1.3-0.16-2.58,0.48-3.85c0.2,1.64,0.85,2.89,2.67,3.33c-0.34-1.61-0.72-3.18,0.05-4.83
	c0.09,0.22,0.14,0.33,0.18,0.45c0.68,1.87,2.01,2.63,3.96,2.22c0.93-0.19,1.84-0.47,2.76-0.72c0.29-0.08,0.58-0.2,0.86-0.39
	c-1.04,0-2.07,0-3.11,0c-0.03-0.06-0.06-0.11-0.08-0.17c0.36-0.26,0.69-0.57,1.08-0.76c3.78-1.85,7.5-2.2,11.07,0.51
	c0.6,0.46,1.19,0.93,1.82,1.34c1.41,0.92,2.06,2.26,2.3,3.87c0.35,2.3,0.07,4.55-0.47,6.78c-0.34,1.4-0.67,2.8-0.91,4.21
	c-0.22,1.27-0.03,2.53,0.52,3.7c0.29,0.6,0.2,1.04-0.25,1.49c-2.08,2.05-4.14,4.13-6.24,6.16c-1.26,1.22-1.18,0.92-0.06,2.07
	c0.69,0.72,1.37,1.45,2.05,2.18c0.02,0.02,0.01,0.08,0.03,0.2c-0.25-0.13-0.45-0.24-0.65-0.33c-0.68-0.31-1.2-0.15-1.42,0.58
	c-0.25,0.84-0.46,1.72-0.54,2.59c-0.39,4.44-0.73,8.88-1.08,13.31c-0.01,0.06,0.01,0.13,0.11,0.23c2.34-9.09,5.85-17.71,10.16-26.03
	c0.05,0.03,0.12,0.06,0.16,0.1c2.12,2.68,5.1,4.21,7.99,5.84c0.96,0.54,1.96,1.03,2.96,1.51c1.97,0.95,3.19,2.48,3.63,4.63
	c1.69,8.15,3.39,16.3,5.08,24.46c0.14,0.69,0.21,1.4,0.25,2.11c0.18,2.75-0.97,4.78-3.56,5.76c-2.31,0.87-4.72,1.51-7.09,2.22
	c-1.12,0.34-1.14,0.32-0.96,1.45c0.89,5.47,1.79,10.93,2.68,16.39c0.22,1.34,0.22,1.35-1.17,1.44c-9.42,0.63-18.34-1.19-26.74-5.49
	c-0.79-0.4-1.55-0.86-2.34-1.26c-0.84-0.43-1.21-1.09-1.17-2.05c0.17-3.67,0.32-7.35,0.48-11.02c0.01-0.21,0-0.43,0-0.8
	c-0.42,0.49-0.75,0.89-1.09,1.28c-1.71,1.98-3.43,3.94-5.13,5.93c-0.41,0.48-0.71,0.4-1.05-0.06c-0.96-1.3-1.94-2.59-2.91-3.88
	c-0.25-0.33-0.5-0.67-0.79-1.06c0.69-0.21,1.36-0.4,2.02-0.6c0-0.04,0-0.08,0-0.11c-1.04-0.12-2.08-0.24-3.12-0.37
	c-6.69-0.82-13.19-2.42-19.48-4.85c-0.39-0.15-0.7-0.19-0.99,0.19c-4.24,5.48-7.37,11.5-8.48,18.39
	c-1.65,10.21,1.19,19.11,8.23,26.67c4.61,4.95,10.33,8.07,16.75,9.99c4.71,1.41,9.52,1.73,14.41,1.33
	c-1.24-0.14-2.49-0.23-3.72-0.43c-8.47-1.33-16.13-4.46-22.34-10.53c-4.62-4.52-7.75-9.93-8.98-16.34
	c-0.73-3.77-0.63-7.54,0.05-11.3c0.01-0.06,0.04-0.11,0.09-0.22c0,1.05-0.04,2.04,0.01,3.03c0.35,7.2,2.95,13.49,7.84,18.79
	c6.49,7.05,14.6,10.99,24.03,12.34c7.75,1.11,15.33,0.56,22.72-2.12c0.51-0.19,1.02-0.4,1.52-0.71c-0.22,0-0.45-0.01-0.67,0
	c-4.24,0.27-8.46,0.26-12.64-0.64c-8.82-1.9-16.86-5.4-23.47-11.71c-5.16-4.92-8.93-10.69-10.57-17.72
	c-1.06-4.58-1.12-9.17-0.09-13.77c0.06-0.26,0.13-0.52,0.2-0.77c0.02-0.06,0.07-0.1,0.19-0.29c0,0.42,0.02,0.71,0,1
	c-0.6,8.27,2.31,15.31,7.63,21.45c7,8.1,15.95,12.89,26.35,15.02c6.2,1.27,12.44,1.32,18.58-0.33c10.82-2.91,18.73-9.52,24.1-19.27
	c0.03-0.06,0.05-0.12,0.07-0.18c0.01-0.02-0.01-0.04-0.04-0.2c-0.16,0.18-0.27,0.32-0.39,0.45c-6.28,6.87-14.05,10.67-23.33,11.45
	c-13.35,1.12-24.59-3.39-34-12.69c-3.81-3.77-6.41-8.34-8.11-13.42c-0.03-0.08-0.04-0.17,0.04-0.31c0.12,0.18,0.24,0.35,0.35,0.54
	c2.45,4.3,5.58,8.04,9.37,11.21c6.91,5.79,14.83,9.38,23.75,10.66c6.8,0.97,13.49,0.41,19.97-1.98c5.22-1.93,9.71-4.92,13.03-9.47
	c2.52-3.46,4.02-7.35,4.55-11.57c0.6-4.79,1.04-9.6,1.47-14.41c0.5-5.52,1.04-11.03,2.38-16.42c0.83-3.36,3.12-5.39,6.15-6.76
	c0.86,2.89-0.52,6.89-3.14,8.51c-2.16,1.33-3.07,3.24-3.38,5.63c-0.73,5.61-1,11.25-1.07,16.91c-0.01,1.01,0,2.01,0,3.23
	c0.48-1.74,1-3.29,1.33-4.88c0.36-1.77,0.56-3.58,0.81-5.38c0.79-5.64,4.18-7.45,8.17-8.18c0.19-0.03,0.39,0,0.65,0
	c-0.05,0.17-0.08,0.31-0.14,0.43c-1.69,3.52-3.62,6.9-6.06,9.97c-1.82,2.29-2.64,4.99-3.01,7.84c-1.88,14.19-7.9,26.36-17.84,36.62
	c-10.57,10.9-23.38,17.73-38.23,20.58c-14.17,2.73-27.76,0.78-40.36-6.36c-13.35-7.56-22.5-18.64-26.86-33.48
	c-1.03-3.5-2.86-6.51-5.35-9.14c-2.13-2.25-3.8-4.84-5.34-7.51c-0.03-0.05-0.04-0.12-0.12-0.39c0.87,0.04,1.68-0.03,2.45,0.14
	c3.75,0.81,6.08,3.14,6.92,6.87c0.75,3.33,1.51,6.65,2.77,9.84c0.05,0.12,0.1,0.23,0.25,0.33c-0.12-1.23-0.23-2.46-0.37-3.69
	c-0.43-4.05-0.82-8.11-1.34-12.15c-0.23-1.75-0.72-3.46-1.12-5.19c-0.24-1.06-0.91-1.77-1.84-2.32c-3.24-1.91-4.83-4.77-4.84-8.51
	c0-0.21,0.02-0.43,0.04-0.76c0.37,0.17,0.67,0.3,0.95,0.43c3.27,1.57,5.38,4.06,6.21,7.65c1.17,5.1,1.93,10.27,2.61,15.45
	c0.64,4.92,1.28,9.84,2.92,14.57c1.02,2.95,2.43,5.7,4.2,8.26c0.06,0.08,0.13,0.16,0.17,0.21c-0.69-1.86-1.45-3.72-2.05-5.62
	c-1.29-4.11-1.79-8.31-0.99-12.59c0.31-1.66,0.96-3.18,2.03-4.5c2.81-3.45,7.87-3.27,10.39,0.3c1.82,2.59,1.26,8.08-3.85,9.13
	c-0.25,0.05-0.51,0.04-0.88,0.06c0.66-0.58,1.26-1.03,1.76-1.57c1.61-1.7,1.7-4.06,0.26-5.72c-1.5-1.73-3.68-1.67-5.06,0.16
	c-0.9,1.19-1.28,2.57-1.31,4.04c-0.06,3.09,0.69,6.03,1.98,8.81c3.66,7.91,8.62,14.86,15.57,20.25c1.39,1.08,2.95,1.96,4.43,2.93
	C146.43,146.54,146.57,146.59,146.7,146.65z M163.58,84.73c-0.03-0.05-0.07-0.11-0.1-0.16c0.14-0.12,0.29-0.23,0.43-0.35
	c1.45-1.3,2.94-2.56,4.34-3.92c1.01-0.98,1.61-2.21,1.76-3.64c0.24-2.35-1.86-4.79-4.06-4.6c-0.77,0.07-1.55,0.36-2.26,0.7
	c-1.64,0.78-2.87,2.05-3.95,3.48c-0.5,0.66-0.58,0.66-1.15,0.05c-1.87-2-4.18-3.18-6.86-3.63c-1.79-0.3-3.13,0.74-3.36,2.55
	c-0.24,1.84,0.13,3.58,1.29,5.01c0.94,1.16,2.1,2.14,3.17,3.19c0.22,0.21,0.48,0.38,0.72,0.57c-0.04,0.06-0.08,0.12-0.13,0.18
	c-1.02-0.54-2.05-1.08-3.18-1.68c0.66,1.11,1.28,2.15,1.92,3.23c-0.36-0.23-0.7-0.45-1.21-0.77c0.41,1.29,0.76,2.38,1.09,3.48
	c0.15,0.52,0.49,0.81,0.98,0.99c4.15,1.59,8.3,3.2,12.46,4.79c1.27,0.49,2.56,0.95,3.74,1.38c-0.76-2.9-1.51-5.79-2.27-8.69
	c-0.52,1.27-1.06,2.59-1.6,3.9c-0.04-0.01-0.07-0.02-0.11-0.03c0.06-0.93,0.13-1.86,0.19-2.79c-0.04-0.01-0.09-0.03-0.13-0.04
	c-0.43,0.55-0.85,1.09-1.28,1.64c-0.04-0.03-0.09-0.05-0.13-0.08c1.28-2.42,2.56-4.85,3.84-7.29
	C166.32,83.08,164.95,83.91,163.58,84.73z M168.58,46.31c-3.8,3.3-10.02,2.23-12.99,1.33c3.98,0.19,7.6-0.17,10.23-3.36
	c-0.09-0.07-0.15-0.06-0.2-0.03c-3.41,2-7.1,2.6-11,2.32c-1.41-0.1-2.83-0.1-4.25-0.05c-1.62,0.06-2.9,0.8-3.9,2.36
	c2.2-1.49,4.35-1.11,6.51-0.44c0.59,0.18,1.18,0.37,1.78,0.53c3.36,0.9,6.72,1.09,10.07-0.05
	C166.33,48.41,167.64,47.62,168.58,46.31z M140.01,78.05c-0.74-1.8-1.56-3.53-2.15-5.32c-0.87-2.63-0.12-4.89,1.95-6.69
	c0.53-0.46,1.11-0.89,1.69-1.28c1.47-0.98,2.96-1.94,4.44-2.91c0.15-0.1,0.28-0.22,0.42-0.33c-0.14-0.09-0.23-0.1-0.3-0.07
	c-1.66,0.78-3.36,1.49-4.97,2.38c-1.18,0.66-2.38,1.42-3.32,2.38c-2.06,2.11-2.46,4.62-1.24,7.35
	C137.34,75.33,138.7,76.67,140.01,78.05z M204,69.16c-1.78-0.65-4.12,0.41-5.5,2.51c0.8,0,1.58-0.02,2.37,0
	C202.68,71.74,203.66,70.96,204,69.16z M196.87,71.4c0.54-0.79,1.15-1.55,1.63-2.39c0.79-1.37,0.38-3.03-0.91-4
	c-0.69,1.05-1.04,2.17-0.9,3.44C196.8,69.42,196.82,70.39,196.87,71.4z M201.9,74.64c-0.76-1.11-1.57-2.01-2.93-2.03
	c-1.09-0.01-1.78,0.7-2.32,1.48c0.54,0.22,1.06,0.35,1.5,0.62C199.39,75.46,200.58,75.27,201.9,74.64z M150.3,53.12
	c-1.5,0.87-3.12,1.95-4.87,2.77c-1.76,0.83-3.64,1.39-5.39,2.04C143.59,58.28,148.3,56.19,150.3,53.12z M195.01,69.58
	c-0.81,1.02-1.14,2.1-0.61,3.29c0.37,0.83,0.27,1.58-0.16,2.34c-0.09,0.16-0.16,0.34-0.24,0.52c0.58-0.59,1.03-1.25,1.46-1.91
	c0.18-0.28,0.35-0.57,0.48-0.87C196.46,71.83,196.09,70.42,195.01,69.58z M206.24,83.14c0,2-0.01,3.85,0.02,5.7
	c0,0.24,0.2,0.62,0.4,0.69c0.59,0.23,1.23,0.33,1.79,0.47C207.71,87.72,207,85.5,206.24,83.14z M200.87,66.31
	c-1.38,0.72-2,1.74-1.85,2.98c0.08,0.64,0.33,0.77,0.89,0.46C201.08,69.1,201.45,67.78,200.87,66.31z M153.92,39.8
	c-0.39,0.72-0.82,1.34-1.04,2.03c-0.13,0.41-0.03,0.96,0.12,1.4c0.19,0.55,0.48,0.56,0.87,0.13C154.85,42.28,154.9,41.3,153.92,39.8
	z M151.13,38.88c-0.8,1.72-0.45,3.07,0.94,3.6C152.85,40.81,152.56,39.71,151.13,38.88z M156.21,40.88
	c-0.09-0.07-0.19-0.14-0.28-0.22c-0.25,0.34-0.48,0.69-0.74,1.02c-0.52,0.69-0.52,1.62-0.02,2.29c0.29,0.39,0.54,0.41,0.81-0.01
	C156.61,42.97,156.71,41.95,156.21,40.88z M157.74,42.4c-1.34,0.92-1.64,1.85-0.49,3.41C158.43,44.73,158.61,43.46,157.74,42.4z
	 M151.8,44.37c-0.15,0.09-0.56,0.19-0.64,0.41c-0.08,0.22,0.1,0.64,0.31,0.82c0.3,0.26,0.71,0.45,1.1,0.55
	c0.43,0.11,0.81-0.07,0.91-0.55c0.1-0.46-0.05-0.85-0.52-1.01C152.65,44.49,152.31,44.46,151.8,44.37z M175.91,38.53
	c0.75,2.09,4.04,2.12,5.94,1.05C179.7,39.88,177.75,39.66,175.91,38.53z M156.34,46.06c-0.23-1.16-1.57-1.75-2.6-1.15
	C154.15,45.76,155.38,46.31,156.34,46.06z M150.66,44.92c-0.09-0.5-0.24-0.73-0.66-0.56c-0.4,0.17-0.8,0.37-1.16,0.62
	c-0.1,0.07-0.11,0.5-0.09,0.51c0.39,0.11,0.82,0.32,1.17,0.22C150.22,45.63,150.42,45.2,150.66,44.92z M230.71,108.92
	c0.71-2.39,1.18-4.68,1.26-7.03c0.2-5.88-1.89-10.64-6.85-13.99c-0.52-0.35-1.07-0.67-1.73-1.09
	C223.57,95,225.73,102.36,230.71,108.92z M234.15,91.32c0.89-8.18-2.79-15.48-11.52-17.86C222.11,78.01,229.21,89.03,234.15,91.32z
	 M128.72,92.81c-8.51,2.12-11.9,9.64-10.6,17.8C123.88,105.94,127.68,100.23,128.72,92.81z M120.42,78.84
	c-2.52,2.26-4.32,4.96-4.96,8.34c-0.43,2.3-0.17,4.59,0.16,6.87c0.15,1.06,0.36,2.11,0.56,3.21c0.65-0.91,1.24-1.73,1.82-2.56
	c1.79-2.51,3.34-5.14,3.86-8.22c0.36-2.15,0.5-4.35,0.72-6.52c0.1-1,0.18-2,0.28-3.16C121.97,77.55,121.17,78.17,120.42,78.84z
	 M228.47,58.43c0.17,1.07,0.34,2.14,0.53,3.21c0.39,2.24,0.66,4.51,1.21,6.71c0.6,2.4,1.81,4.55,3.43,6.45
	c0.78,0.91,1.47,1.9,2.26,2.92c0.22-2,0.48-3.93,0.65-5.87c0.31-3.68-0.7-6.96-3.1-9.79c-1.41-1.67-3.12-3-5.06-4.35
	C228.42,58.06,228.44,58.25,228.47,58.43z M230.9,127.03c0.3-0.35,0.62-0.68,0.9-1.04c3.07-3.99,5.91-8.14,8.24-12.61
	c1.75-3.37,2.88-6.91,2.62-10.77c-0.13-1.93-0.63-3.76-1.45-5.52c0.03,1.75-0.4,3.38-1.02,4.99c-0.56,1.45-1.22,2.87-1.61,4.36
	c-0.58,2.22-0.99,4.49-1.41,6.75c-0.74,3.99-2.39,7.58-4.57,10.96c-0.61,0.94-1.18,1.9-1.76,2.85
	C230.86,127.01,230.88,127.02,230.9,127.03z M124.11,139.15c-0.32-0.36-0.64-0.73-0.96-1.09c-2.81-3.23-5.26-6.71-6.51-10.85
	c-0.93-3.11-2.17-6.07-3.59-8.98c-0.67-1.35-1.01-2.87-1.49-4.31c-0.06-0.18-0.09-0.36-0.13-0.55c-0.21,0.34-0.32,0.67-0.4,1.01
	c-1.23,5.04-0.21,9.65,2.92,13.72c2.02,2.63,4.26,5.09,6.45,7.58c1.12,1.27,2.33,2.46,3.5,3.68
	C123.97,139.3,124.04,139.23,124.11,139.15z M224.62,113.78c0.7-1.86,0.27-3.51-1.06-4.9c-1.24-1.29-2.81-1.65-4.52-1.09
	c-1.59,0.52-2.55,1.63-2.77,3.32c-0.27,2.07,1.42,3.7,3.33,3.3c-0.45-0.46-1-0.89-1.37-1.44c-0.64-0.94-0.46-2.14,0.33-2.92
	c0.78-0.78,1.88-0.92,2.87-0.38c1.23,0.68,1.9,2.09,1.64,3.49c-0.27,1.49-1.06,2.66-2.22,3.59c-0.49,0.4-1.03,0.74-1.67,1.19
	C221.83,117.49,223.7,116.24,224.62,113.78z M199.05,135.04c-10.23,0.11-19.62-2.78-28.37-8.01
	C178.95,133.9,188.42,136.54,199.05,135.04z M175.08,145.12c-6.27-2.2-12.16-5.11-17.33-9.34
	C162.26,141.24,168.13,144.18,175.08,145.12z"/>
</svg>
