<?xml version="1.0" encoding="utf-8"?>
<!-- Generator: Adobe Illustrator 27.8.1, SVG Export Plug-In . SVG Version: 6.00 Build 0)  -->
<svg version="1.1" xmlns="http://www.w3.org/2000/svg" xmlns:xlink="http://www.w3.org/1999/xlink" x="0px" y="0px"
	 viewBox="0 0 350 230" style="enable-background:new 0 0 350 230;" xml:space="preserve">
<style type="text/css">
	.st0{fill:#FFF8D9;}
	.st1{fill:#FF7F00;}
	.st2{fill:#893700;}
	.st3{fill:#23234E;}
	.st4{fill:#FFFECA;}
	.st5{fill:#B8E8F2;}
	.st6{fill:#FEFEFE;}
	.st7{fill:#FDFFDC;}
	.st8{fill:#EFE8CB;}
	.st9{fill:#E6F4D3;}
	.st10{fill:#E1E1F9;}
	.st11{fill:#DCFFFA;}
	.st12{fill:#F2EDD7;}
	.st13{fill:#DCFBFF;}
	.st14{fill:#FFFDDC;}
	.st15{fill:#FFF9DE;}
	.st16{fill:#017F6A;}
	.st17{fill:#29ABE2;}
	.st18{fill:#F2C0AA;}
	.st19{fill:#1C75BC;}
	.st20{fill:#FFC200;}
	.st21{fill:#911717;}
	.st22{fill:#C1272D;}
	.st23{fill:#F7931E;}
	.st24{fill:#2D828E;}
	.st25{fill:#93BC20;}
	.st26{fill:#CC781D;}
	.st27{fill:#FF5500;}
	.st28{fill:#F79019;}
	.st29{fill:#C4C400;}
	.st30{fill:url(#SVGID_1_);}
	.st31{fill:url(#SVGID_00000060013454062782943050000002681426484156065979_);}
	.st32{fill:url(#SVGID_00000039128469760757246940000010962343911052809651_);}
	.st33{fill:#0092FF;}
	.st34{fill:#09578C;}
	.st35{fill:#3B9FE2;}
	.st36{fill:#BE1E2D;}
	.st37{fill:#231F20;}
	.st38{fill:#FF9D00;}
	.st39{fill:#F15A29;}
	.st40{fill:#0ABC9C;}
	.st41{fill:#F5A72B;}
	.st42{fill:#D86926;}
	.st43{fill:#212F50;}
	.st44{fill:#D0162D;}
	.st45{fill:url(#SVGID_00000018230924710106704650000008045906234065243281_);}
	.st46{fill:#E56031;}
	.st47{fill:#000F71;}
	.st48{fill:url(#SVGID_00000132788795887513933240000011759975712642371487_);}
	.st49{fill:#16246D;}
	.st50{fill:#1A85F8;}
	.st51{fill:url(#SVGID_00000020400441024984591590000005877683033646666426_);}
	.st52{opacity:0.5;fill:url(#SVGID_00000034797780698288146800000013827382248847660735_);}
	.st53{fill:url(#SVGID_00000106825607777492606290000008340858130900387253_);}
	.st54{opacity:0.5;fill:url(#SVGID_00000149344474372096165280000013738916995882161800_);}
	.st55{fill:#00A9E2;}
	.st56{fill:#666666;}
	.st57{fill:#072248;}
	.st58{fill:#1075B9;}
	.st59{fill:#F35525;}
	.st60{fill:#0E386A;}
	.st61{fill:#3C9B88;}
	.st62{fill:#125695;}
	.st63{fill:#F5C970;}
	.st64{fill:#80A843;}
	.st65{fill:#F8A32D;}
	.st66{fill:url(#SVGID_00000065787424537676768440000007383779140137078972_);}
	.st67{fill-rule:evenodd;clip-rule:evenodd;fill:#1A85F8;}
	.st68{fill:url(#Layer_x5F_1_00000080913188329582595990000002374649264881921723_);}
	.st69{fill:#043730;stroke:#FFFFFF;stroke-miterlimit:10;}
	.st70{fill:#FFFFFF;stroke:#E56031;stroke-linecap:round;stroke-linejoin:round;stroke-miterlimit:10;}
	.st71{fill:#FFFFFF;stroke:#E56031;stroke-miterlimit:10;}
	.st72{fill:#043730;stroke:#E56031;stroke-miterlimit:10;}
	.st73{fill:#043730;}
	.st74{fill:none;stroke:#E56031;stroke-linecap:round;stroke-linejoin:round;stroke-miterlimit:10;}
	.st75{fill:url(#SVGID_00000072280264328746193330000010963613875733426607_);}
	.st76{fill:#F9626D;}
	.st77{fill:#1B75BC;}
	.st78{fill:#FBB040;}
	.st79{fill:#358FA0;}
	.st80{fill:url(#SVGID_00000110450406500673545050000004085615407997914258_);}
	.st81{fill:url(#SVGID_00000077315812200715070000000015520251699827496887_);}
	.st82{fill:#00406B;}
	.st83{fill:#E5E6C6;}
	.st84{fill:#E5D7C7;}
	.st85{fill:#DCF7FF;}
	.st86{fill:#E2E5C7;}
	.st87{fill:#D3D3AE;}
	.st88{fill:#FFFFDE;}
	.st89{fill:#FFE5CC;}
	.st90{fill:#D4EEB8;}
	.st91{fill:url(#SVGID_00000135656926843361355350000013039752661018164887_);}
	.st92{fill:#FDFDFC;}
	.st93{fill:url(#SVGID_00000168821253956968890480000018306298932921320324_);}
	.st94{fill:#372E2D;}
	.st95{fill:#2390BA;}
	.st96{fill:url(#SVGID_00000135681507174185276400000015981958502635722899_);}
	.st97{fill:url(#SVGID_00000123413833786312609720000014499504893934631855_);}
	.st98{fill:#1C2849;}
	.st99{fill:#162C33;}
	.st100{fill:#172E34;}
	.st101{fill:#F7FBFC;}
	.st102{fill:#212655;}
	.st103{fill:url(#SVGID_00000088841660031275660840000010770361964975793287_);}
	.st104{fill:#465A9B;}
	.st105{fill:#F3A75E;}
	.st106{fill:url(#SVGID_00000161609384845352252330000015665852378315780797_);}
	.st107{fill:#E66546;}
	.st108{fill:url(#SVGID_00000170985504697230315780000004622605087278742166_);}
	.st109{fill:url(#SVGID_00000143609693252113502950000005633851909606605449_);}
	.st110{fill:#68488A;}
	.st111{fill:url(#SVGID_00000010991804976205507750000003833004950646860184_);}
	.st112{fill:#1C375E;}
	.st113{fill:#02A4F7;}
	.st114{fill:#062768;}
	.st115{fill:#0F6AAD;}
	.st116{fill:#2F92AA;}
	.st117{fill:#F99F0D;}
	.st118{fill:#EB473F;}
	.st119{fill:url(#SVGID_00000108306056856035982410000013108923649916751745_);}
	.st120{fill:#FDFDFD;}
	.st121{fill:#1A313F;}
	.st122{fill:url(#SVGID_00000163071054986863295790000000516911818648424083_);}
	.st123{fill:url(#SVGID_00000075123405795272020620000005935837227040845758_);}
	.st124{fill:#0E5490;}
	.st125{fill:#71B7CB;}
	.st126{fill:#543450;}
	.st127{fill:#F7872D;}
	.st128{fill:#0F2257;}
	.st129{fill:#F98F34;}
	.st130{fill:#1E5D95;}
	.st131{fill:url(#SVGID_00000162335768941285562550000009755714420256612250_);}
	.st132{fill:#1B3A6A;}
	.st133{fill:#F3682F;}
	.st134{fill:#DD3136;}
	.st135{fill:#2587C3;}
</style>
<g id="Logo1">
</g>
<g id="Logo2">
</g>
<g id="Logo3">
</g>
<g id="Logo4">
</g>
<g id="Logo5">
</g>
<g id="Logo6">
</g>
<g id="Logo7">
</g>
<g id="Logo8">
	<radialGradient id="SVGID_1_" cx="175" cy="93.6989" r="72.7015" gradientUnits="userSpaceOnUse">
		<stop  offset="0" style="stop-color:#006D8F"/>
		<stop  offset="1" style="stop-color:#00008A"/>
	</radialGradient>
	<path class="st30" d="M172.56,30.47c2.23-2.05,4.37-4.04,6.3-6.39c-0.48,2-1.2,3.73-2.13,5.55c3.84,0.02,9.48,0.65,13.12,1.77
		c-0.61,0.14-2.23-0.37-2.92-0.51c-2.22-0.44-4.47-0.74-6.71-1c-1.12-0.13-2.48,0.11-3.53-0.21c-0.09-0.37,0.26-0.68,0.22-1.08
		c-0.19,0-0.1,0.02-0.28-0.04c-0.15-0.25-0.33-0.52-0.39-0.8c-0.03-0.14-0.05-0.22-0.13-0.34c-1.19,0.78-2.06,2.22-3.3,3.03
		c-0.03,0.02-0.07,0.04-0.1,0.06c-0.17,0.24-0.2,0.35-0.16,0.65c0.05,0.42-0.07,0.71-0.24,1.09c-0.19,0.16-0.32,0.22-0.39,0.47
		c-0.34,1.27-1.18,2.4-0.95,3.8c0.18,0.25,0.57,0.31,0.87,0.35c0.71,0.11,1.19,0.03,1.67,0.65c0.27,0.34,0.44,0.66,0.9,0.75
		c0.73,0.15,1.89-0.06,2.7-0.02c3.83,0.2,7.67,0.58,11.39,1.54c0.41,0.11,0.94,0.15,1.3,0.36l-0.04,0.08
		c-1.51-0.27-2.98-0.74-4.5-0.99c-8.83-1.43-15.51-0.94-24.2,0.85c2.37-2.13,4.84-4.09,7.28-6.14
		C169.69,32.84,171.12,31.4,172.56,30.47z M149.54,149.89c0.75,0.7,0.81,1.27,0.86,2.27l-0.08,0.12c-0.2-0.08-0.34-0.18-0.51-0.3
		c0.03,0.15-0.01,0.09,0.09,0.18c0.31,0.31,0.37,0.56,0.46,0.97c0.42,0.33,0.93,0.65,0.97,1.23c0.04,0.63-0.66,1.47-0.15,2.03
		c0.16,0.17,0.2,0.18,0.24,0.42c-0.24,0.5-0.55,1.07-0.94,1.47c-0.09,0.1-0.14,0.16-0.19,0.28c4.7,1.81,9.48,3.19,14.47,3.94
		c0.93,0.14,1.93,0.35,2.86,0.36c0.33-0.04,0.66-0.02,0.99-0.05c-0.15-0.05-0.08-0.02-0.21-0.1c-0.01-0.3,0.13-0.42,0.29-0.67
		c-0.09-0.17-0.05-0.11-0.14-0.26c-0.23-0.38,0.72-0.97,0.8-1.35c0.14-0.6-0.27-1-0.32-1.56c-0.03-0.35,0.22-0.85,0.3-1.21
		l-0.26-0.17c-0.12-0.34,0.28-0.57,0.36-0.88c0.03-0.12-0.06-0.44-0.06-0.59l0.44-0.06l0.09-0.13l-0.11-0.19
		c-0.44-0.22-1.09-0.16-1.59-0.24l-0.05-0.15c-4.48-0.76-8.8-1.57-13.08-3.16c-1.87-0.7-3.68-1.55-5.49-2.39L149.54,149.89z
		 M217.25,112c-3.93,1.03-7.93,1.54-11.88,2.42c-8.39,1.87-15.34,6.05-20.91,12.59c-3.41,4.01-6.26,9.21-7.39,14.39
		c-0.32,1.47-0.86,4.15-0.55,5.56c1.58-5.94,5.28-11.74,10.68-14.89c2.39-1.39,5.24-2.46,7.95-2.97c1.66-0.31,3.35-0.46,5.01-0.78
		c9.27-1.78,18.28-5.95,24.89-12.79c2.33-2.41,5.06-5.78,5.84-9.09c0.03-0.11,0.03-0.22,0.04-0.33l-0.08-0.09
		C226.62,108.77,222.14,110.72,217.25,112z M132.02,121.49c4.94,3.03,10.86,5.2,16.48,6.54c2.37,0.57,4.78,0.68,7.15,1.17
		c6.82,1.43,12.35,5.44,15.74,11.53c0.72,1.29,1.4,2.67,1.84,4.09c0.27,0.85,0.43,1.75,0.75,2.59c-0.13-8.4-4.11-16.83-10.11-22.64
		c-6.85-6.63-13.11-9.49-22.45-11.05c-3.44-0.57-6.84-0.93-10.21-1.88c-2.98-0.84-6-2.05-8.76-3.44c-1.05-0.53-2.04-1.32-3.13-1.76
		C120.85,113.07,126.59,118.16,132.02,121.49z M108.9,105.29c1.72,13.85,7.3,26.58,16.97,36.76c0.71,0.76,1.45,1.5,2.19,2.22
		c0.75,0.72,1.51,1.43,2.29,2.12c0.78,0.69,1.58,1.36,2.39,2.01c0.81,0.65,1.64,1.28,2.48,1.9c0.84,0.61,1.7,1.21,2.56,1.78
		c0.87,0.57,1.75,1.13,2.64,1.66c0.89,0.53,1.8,1.05,2.72,1.54c0.92,0.49,1.85,0.96,2.78,1.41c1.43,0.68,2.91,1.27,4.37,1.88
		c0.06-0.12,0.1-0.18,0.19-0.28c0.38-0.4,0.7-0.98,0.94-1.47c-0.04-0.24-0.08-0.24-0.24-0.42c-0.52-0.56,0.19-1.4,0.15-2.03
		c-0.04-0.59-0.55-0.9-0.97-1.23c-0.09-0.41-0.15-0.67-0.46-0.97c-0.1-0.09-0.06-0.03-0.09-0.18c0.17,0.13,0.31,0.22,0.51,0.3
		l0.08-0.12c-0.06-0.99-0.11-1.57-0.86-2.27l0.04-0.2c-2.55-1.27-5.01-2.62-7.38-4.22c-9.98-6.78-18.52-17.39-22.37-28.88
		c-0.38-1.14-0.74-2.28-1.07-3.43c-0.33-1.15-0.64-2.31-0.91-3.48c-0.28-1.17-0.53-2.34-0.75-3.52c-0.22-1.18-0.42-2.36-0.58-3.55
		c-3.23-2.2-5.82-4.34-8.2-7.45C108.22,98.58,108.48,101.91,108.9,105.29z M113.03,89.41c1.09,0.44,2.25,0.8,3.32,1.29
		c0.03-0.27,0.06-0.54,0.09-0.82c2.36-17.71,11.8-31.85,26.55-41.74c1.89-1.28,3.86-2.42,5.91-3.42c1.18-0.56,3.15-1.18,4.14-1.88
		c0.74-0.52,1.33-1.33,1.94-2c0.73-0.81,1.49-1.59,2.26-2.36c1.3-1.27,2.71-2.43,4.08-3.63c1.78-1.54,3.54-3.09,5.41-4.52
		c-1.89,0.14-3.78,0.55-5.62,0.97c-0.62,0.14-1.23,0.29-1.84,0.45c-0.61,0.16-1.22,0.33-1.83,0.5c-0.61,0.18-1.21,0.36-1.81,0.56
		c-0.6,0.19-1.2,0.4-1.79,0.61c-0.6,0.21-1.19,0.43-1.78,0.66c-0.59,0.23-1.17,0.46-1.76,0.71c-0.58,0.24-1.16,0.5-1.74,0.76
		c-0.58,0.26-1.15,0.53-1.71,0.8c-0.57,0.28-1.13,0.56-1.69,0.85c-0.56,0.29-1.12,0.59-1.67,0.9c-0.55,0.31-1.1,0.62-1.64,0.95
		c-0.54,0.32-1.08,0.65-1.61,0.99c-0.53,0.34-1.06,0.68-1.59,1.04c-0.52,0.35-1.04,0.71-1.56,1.08c-0.51,0.37-1.02,0.74-1.52,1.12
		c-0.5,0.38-1,0.77-1.49,1.17c-0.32,0.25-0.63,0.51-0.94,0.77c-0.31,0.26-0.62,0.52-0.93,0.78c-0.31,0.26-0.61,0.53-0.92,0.8
		s-0.6,0.54-0.9,0.81c-0.3,0.27-0.59,0.55-0.89,0.83c-0.29,0.28-0.58,0.56-0.87,0.85c-0.29,0.28-0.57,0.57-0.86,0.86
		c-0.28,0.29-0.56,0.58-0.84,0.87c-0.28,0.29-0.55,0.59-0.83,0.89c-0.27,0.3-0.54,0.6-0.81,0.9c-0.27,0.3-0.53,0.61-0.8,0.92
		c-0.26,0.31-0.52,0.62-0.78,0.93c-0.26,0.31-0.51,0.63-0.76,0.94c-0.25,0.32-0.5,0.64-0.75,0.96c-0.25,0.32-0.49,0.64-0.73,0.97
		c-0.24,0.33-0.48,0.65-0.72,0.98c-0.24,0.33-0.47,0.66-0.7,0.99c-0.23,0.33-0.46,0.67-0.68,1.01s-0.45,0.68-0.66,1.02
		c-0.22,0.34-0.43,0.68-0.65,1.03c-0.21,0.34-0.42,0.69-0.63,1.04c-0.21,0.35-0.41,0.7-0.61,1.05c-0.2,0.35-0.4,0.71-0.59,1.06
		c-0.19,0.36-0.39,0.71-0.57,1.07c-0.19,0.36-0.37,0.72-0.56,1.08c-0.18,0.36-0.36,0.73-0.54,1.09c-0.18,0.36-0.35,0.73-0.52,1.1
		c-0.17,0.37-0.34,0.74-0.5,1.11c-0.16,0.37-0.32,0.74-0.48,1.12s-0.31,0.75-0.46,1.12c-0.15,0.38-0.3,0.75-0.44,1.13
		c-0.14,0.38-0.28,0.76-0.42,1.14c-1.34,3.62-2.63,7.95-3.03,11.79C110.14,88.15,111.56,88.82,113.03,89.41z M179.39,75.69
		c-1.44,0.71-2.92,1.35-4.35,2.08c-3.43-1.94-7.26-3.47-10.84-5.13c-2.28-1.06-4.58-2.43-6.97-3.2l0.06,17.39
		c2.09,1.07,4.21,2.18,6.05,3.66c3.69,2.92,6.73,5.73,9.38,9.68c0.97,1.44,1.85,2.93,2.49,4.55c0.68-1.66,1.38-3.34,2.29-4.89
		c2.92-5.02,7.7-9.64,13.09-11.92c0.82-0.35,1.67-0.59,2.51-0.87c-0.03-2,0.11-17.63-0.1-18.12
		C188.51,71.24,183.93,73.46,179.39,75.69z M172.55,31.17c0.05,0.42-0.07,0.71-0.24,1.09c-0.19,0.16-0.32,0.22-0.39,0.47
		c-0.34,1.27-1.18,2.4-0.95,3.8c0.18,0.25,0.57,0.31,0.87,0.35c0.71,0.11,1.19,0.03,1.67,0.65c0.27,0.34,0.44,0.66,0.9,0.75
		c0.73,0.15,1.89-0.06,2.7-0.02c3.83,0.2,7.67,0.58,11.39,1.54c0.41,0.11,0.94,0.15,1.3,0.36l-0.04,0.08c1,0.44,2.18,0.65,3.23,0.98
		c1.55,0.49,3.06,1.05,4.55,1.7c5.92,2.51,11.69,5.94,16.57,10.14c1.87,1.61,3.61,3.43,5.24,5.29c4.65,5.28,8.17,10.75,10.89,17.25
		c0.87,2.07,1.7,4.3,2.28,6.46c0.34,1.28,0.5,2.78,1.01,3.99c0.01,0.02,0.02,0.05,0.03,0.07c2.6-1.24,4.79-2.35,7.25-3.89
		c-0.98-2.84-1.71-5.75-2.75-8.58c-1.97-5.37-5.02-10.66-8.42-15.25c-1.78-2.41-3.63-4.82-5.67-7.02c-0.45-0.48-0.91-0.95-1.37-1.42
		c-0.46-0.47-0.94-0.93-1.41-1.38c-0.48-0.45-0.96-0.9-1.45-1.34c-0.49-0.44-0.99-0.87-1.49-1.3c-0.5-0.43-1.01-0.85-1.53-1.26
		c-0.51-0.41-1.04-0.82-1.56-1.21c-0.53-0.4-1.06-0.79-1.6-1.17c-0.54-0.38-1.08-0.76-1.63-1.12c-0.55-0.37-1.1-0.72-1.66-1.08
		c-0.56-0.35-1.12-0.69-1.69-1.03c-0.57-0.33-1.14-0.66-1.72-0.98c-0.58-0.32-1.16-0.63-1.74-0.93c-0.59-0.3-1.18-0.6-1.77-0.88
		c-0.59-0.29-1.19-0.56-1.79-0.83c-0.6-0.27-1.21-0.53-1.82-0.78c-0.61-0.25-1.22-0.49-1.84-0.73c-2.54-0.97-5.37-2.14-8.07-2.55
		c-0.61,0.14-2.23-0.37-2.92-0.51c-2.22-0.44-4.47-0.74-6.71-1c-1.12-0.13-2.48,0.11-3.53-0.21c-0.09-0.37,0.26-0.68,0.22-1.08
		c-0.19,0-0.1,0.02-0.28-0.04c-0.15-0.25-0.33-0.52-0.39-0.8c-0.03-0.14-0.05-0.22-0.13-0.34c-1.19,0.78-2.06,2.22-3.3,3.03
		c-0.03,0.02-0.07,0.04-0.1,0.06C172.54,30.76,172.51,30.87,172.55,31.17z M245.59,85.49c-3.3,1.89-6.78,3.34-10.31,4.72
		c-5.61,2.2-11.32,4.11-17.13,5.73c-2.83,0.82-5.74,1.9-8.63,2.42c1.79-6.23,5.35-10.46,10.61-14.11c1.1-0.77,2.3-1.38,3.41-2.14
		c-11.8,3.33-22.13,7.82-30.75,16.8c-0.83,0.86-1.63,1.74-2.4,2.65c-0.77,0.91-1.51,1.84-2.22,2.8c-0.71,0.96-1.38,1.94-2.03,2.94
		c-0.64,1-1.25,2.03-1.83,3.07c-0.82,1.48-1.62,3.01-2.32,4.55c-2.11,4.48-3.58,9.59-4.45,14.45c-0.33,1.84-0.52,3.7-0.77,5.55
		c-0.14,1.04-0.56,2.82-0.39,3.83c0.9-4.03,2.48-7.58,4.54-11.15c4.52-7.82,8.89-12.13,16.47-16.94c3.6-2.29,9.56-4.86,13.63-6.04
		c3.39-0.98,6.86-1.66,10.26-2.62c2.92-0.83,5.67-1.89,8.46-3.06c6.47-2.71,11.97-5.67,16.78-10.88c1.48-1.6,3.54-3.81,4.15-5.92
		l-0.06-0.06C248.94,83.23,247.34,84.49,245.59,85.49z M115.65,96.97c6.22,2.76,12.83,4.29,19.32,6.27
		c6.99,2.14,13.68,4.68,19.85,8.64c1.48,0.95,2.92,1.91,4.28,3.04c1.71,1.42,3.28,3.04,4.76,4.69c0.46,0.5,0.9,1.02,1.33,1.54
		c0.43,0.52,0.85,1.06,1.26,1.6c0.41,0.54,0.8,1.1,1.18,1.66c0.38,0.56,0.75,1.13,1.11,1.71c0.36,0.58,0.7,1.17,1.03,1.76
		c0.33,0.6,0.64,1.2,0.94,1.81c0.3,0.61,0.59,1.23,0.86,1.85c0.27,0.62,0.53,1.25,0.77,1.89c0.63,1.62,1.11,3.29,1.52,4.98
		c0.06-1.73-0.36-3.58-0.56-5.29c-0.21-1.78-0.38-3.53-0.74-5.29c-2-9.83-7.04-20.27-13.9-27.62c-9.13-9.78-19.07-15.05-32.04-18.19
		c2.01,1.3,4.08,2.62,5.87,4.22c2.56,2.29,4.59,5.43,6.38,8.34c1.05,1.71,2.02,3.49,3.17,5.13c-3.22-1.86-6.72-3.03-10.24-4.17
		c-2.93-0.94-5.87-1.85-8.82-2.72c-2.07-0.61-4.65-1.3-6.62-2.13c-1.07-0.48-2.23-0.85-3.32-1.29c-1.47-0.59-2.89-1.26-4.31-1.95
		c-3.29-1.61-6.32-3.47-9.39-5.48C101.94,88.75,109.21,94.12,115.65,96.97z M232.86,107.22c-0.25,1.58-0.61,3.17-1.01,4.72
		c-0.1,0.37-0.2,0.74-0.3,1.12s-0.21,0.74-0.32,1.11c-0.11,0.37-0.23,0.74-0.35,1.1c-0.12,0.37-0.24,0.73-0.37,1.1
		c-0.13,0.36-0.26,0.73-0.39,1.09c-0.13,0.36-0.27,0.72-0.41,1.08c-0.14,0.36-0.29,0.72-0.43,1.07c-0.15,0.36-0.3,0.71-0.45,1.06
		c-0.16,0.35-0.31,0.7-0.48,1.05c-0.16,0.35-0.33,0.7-0.5,1.04c-0.17,0.35-0.34,0.69-0.52,1.03c-0.18,0.34-0.36,0.68-0.54,1.02
		c-0.18,0.34-0.37,0.68-0.56,1.01c-0.19,0.34-0.38,0.67-0.58,1c-0.2,0.33-0.4,0.66-0.6,0.99c-0.2,0.33-0.41,0.65-0.62,0.98
		c-0.21,0.32-0.42,0.64-0.64,0.96c-0.22,0.32-0.43,0.64-0.66,0.95c-0.22,0.31-0.45,0.63-0.68,0.94c-0.23,0.31-0.46,0.62-0.69,0.92
		c-0.23,0.31-0.47,0.61-0.71,0.91c-0.24,0.3-0.48,0.6-0.73,0.89c-0.25,0.3-0.5,0.59-0.75,0.88c-0.25,0.29-0.51,0.58-0.77,0.86
		c-0.26,0.29-0.52,0.57-0.78,0.85c-0.26,0.28-0.53,0.56-0.8,0.83c-0.27,0.28-0.54,0.55-0.82,0.82c-0.28,0.27-0.55,0.54-0.83,0.8
		c-0.28,0.26-0.56,0.53-0.85,0.78c-0.29,0.26-0.57,0.51-0.86,0.77c-0.29,0.25-0.58,0.5-0.88,0.75c-0.3,0.25-0.59,0.49-0.89,0.73
		c-2.16,1.76-4.46,3.28-6.84,4.72c-0.3,0.18-0.6,0.36-0.9,0.54c-0.3,0.18-0.61,0.35-0.91,0.52c-0.31,0.17-0.61,0.34-0.92,0.5
		c-0.31,0.16-0.62,0.33-0.93,0.49c-0.31,0.16-0.62,0.32-0.94,0.47c-0.31,0.15-0.63,0.31-0.95,0.45c-0.32,0.15-0.63,0.29-0.95,0.44
		c-0.32,0.14-0.64,0.28-0.96,0.42c-0.32,0.14-0.64,0.27-0.97,0.4c-0.32,0.13-0.65,0.26-0.98,0.38s-0.65,0.25-0.98,0.37
		c-0.33,0.12-0.66,0.24-0.99,0.35c-0.33,0.11-0.66,0.22-0.99,0.33c-0.33,0.11-0.67,0.21-1,0.31c-0.33,0.1-0.67,0.2-1.01,0.3
		c-0.34,0.1-0.67,0.19-1.01,0.28c-0.34,0.09-0.68,0.18-1.02,0.26c-0.34,0.08-0.68,0.16-1.02,0.24c-0.34,0.08-0.68,0.15-1.02,0.22
		c-0.34,0.07-0.68,0.14-1.03,0.21c-0.34,0.07-0.69,0.13-1.03,0.19c-0.34,0.06-0.69,0.12-1.03,0.17c-0.35,0.05-0.69,0.1-1.04,0.15
		c-0.35,0.05-0.69,0.09-1.04,0.13c-0.35,0.04-0.69,0.08-1.04,0.11c-0.35,0.03-0.7,0.07-1.04,0.09c-0.35,0.03-0.7,0.05-1.05,0.08
		c-0.35,0.02-0.7,0.04-1.05,0.06c-0.35,0.02-0.7,0.03-1.05,0.04c-0.35,0.01-0.7,0.02-1.05,0.02c-0.35,0-0.7,0-1.05,0
		c-0.35,0-0.7-0.01-1.05-0.02c-1.71-0.04-3.42-0.23-5.12-0.4l0.05,0.15c0.5,0.08,1.14,0.01,1.59,0.24l0.11,0.19l-0.09,0.13
		l-0.44,0.06c0,0.15,0.09,0.47,0.06,0.59c-0.07,0.31-0.48,0.53-0.36,0.88l0.26,0.17c-0.08,0.36-0.33,0.86-0.3,1.21
		c0.04,0.55,0.46,0.96,0.32,1.56c-0.09,0.39-1.04,0.97-0.8,1.35c0.09,0.15,0.06,0.09,0.14,0.26c-0.16,0.25-0.3,0.37-0.29,0.67
		c0.13,0.08,0.06,0.05,0.21,0.1c-0.33,0.03-0.66,0.01-0.99,0.05c2.37,0.5,5.39,0.46,7.82,0.45c0.54,0,1.08,0,1.62-0.02
		c0.54-0.01,1.08-0.03,1.62-0.06c0.54-0.03,1.08-0.06,1.62-0.1c0.54-0.04,1.08-0.08,1.61-0.14c0.54-0.05,1.07-0.11,1.61-0.18
		c0.54-0.07,1.07-0.14,1.61-0.22c0.53-0.08,1.07-0.16,1.6-0.25c0.53-0.09,1.06-0.19,1.59-0.29c0.53-0.1,1.06-0.22,1.59-0.33
		c0.53-0.12,1.05-0.24,1.58-0.37c0.52-0.13,1.05-0.27,1.57-0.41c0.52-0.14,1.04-0.29,1.56-0.45c0.52-0.16,1.03-0.32,1.55-0.49
		c0.51-0.17,1.02-0.34,1.53-0.52c0.51-0.18,1.02-0.37,1.52-0.56c0.5-0.19,1.01-0.39,1.51-0.6c0.5-0.21,1-0.42,1.49-0.63
		c0.49-0.22,0.99-0.44,1.47-0.67c0.49-0.23,0.97-0.47,1.46-0.71c0.48-0.24,0.96-0.49,1.44-0.74c0.48-0.25,0.95-0.51,1.42-0.78
		c0.47-0.26,0.94-0.54,1.4-0.81c0.46-0.28,0.92-0.56,1.38-0.85c0.46-0.29,0.91-0.58,1.36-0.88c0.45-0.3,0.9-0.6,1.34-0.91
		c0.44-0.31,0.88-0.62,1.32-0.95c0.43-0.32,0.87-0.65,1.29-0.98c0.43-0.33,0.85-0.67,1.27-1.01c0.42-0.34,0.83-0.69,1.24-1.04
		c0.41-0.35,0.82-0.71,1.22-1.07c0.4-0.36,0.8-0.73,1.19-1.1c0.39-0.37,0.78-0.75,1.16-1.13c11.38-11.48,18.28-25.74,19.48-41.93
		c0.15-1.99,0.14-3.99,0.13-5.99c-1.05,1.01-2.01,2.11-3.03,3.15c-1.71,1.77-3.54,3.41-5.48,4.93
		C233.11,105.23,233.02,106.23,232.86,107.22z M159.39,54.05l-9.06,4.47c-2.2,1.08-4.41,2.11-6.58,3.24
		c1.47,0.61,2.92,1.25,4.35,1.93c1.14,0.54,2.27,1.12,3.45,1.58c-0.06,2.2-0.09,4.41-0.07,6.61c0,1.43,0.1,2.93-0.13,4.35
		c-0.32,1.98-1.74,3.8-1.85,5.8c-0.05,0.95,0.33,1.86,0.98,2.55c0.58,0.62,1.36,1.08,2.14,1.4c1.22-0.51,2.84-1.14,3.38-2.45
		c0.05-0.13,0.09-0.26,0.13-0.39c0.47-1.95-1.75-5.24-2.13-7.42c-0.19-1.09-0.1-2.28-0.1-3.39c0-2,0.03-4-0.02-6
		c1.5,0.65,3,1.29,4.46,2.01l10.37,4.88c2.09,0.97,4.41,1.84,6.33,3.11c4.42-2.36,9.04-4.41,13.54-6.64l9.09-4.44
		c2.61-1.31,5.18-2.69,7.86-3.87l-30.45-14.92C169.82,48.95,164.59,51.47,159.39,54.05z"/>
</g>
<g id="Logo9">
</g>
<g id="Logo10">
</g>
<g id="Logo11">
</g>
<g id="Logo12">
</g>
<g id="Layer_13">
</g>
<g id="Layer_14">
</g>
<g id="Layer_15">
</g>
</svg>
