<?xml version="1.0" encoding="utf-8"?>
<!-- Generator: Adobe Illustrator 27.8.1, SVG Export Plug-In . SVG Version: 6.00 Build 0)  -->
<svg version="1.1" xmlns="http://www.w3.org/2000/svg" xmlns:xlink="http://www.w3.org/1999/xlink" x="0px" y="0px"
	 viewBox="0 0 350 230" style="enable-background:new 0 0 350 230;" xml:space="preserve">
<style type="text/css">
	.st0{fill:#FFF8D9;}
	.st1{fill:#FF7F00;}
	.st2{fill:#893700;}
	.st3{fill:#23234E;}
	.st4{fill:#FFFECA;}
	.st5{fill:#B8E8F2;}
	.st6{fill:#FEFEFE;}
	.st7{fill:#FDFFDC;}
	.st8{fill:#EFE8CB;}
	.st9{fill:#E6F4D3;}
	.st10{fill:#E1E1F9;}
	.st11{fill:#DCFFFA;}
	.st12{fill:#F2EDD7;}
	.st13{fill:#DCFBFF;}
	.st14{fill:#FFFDDC;}
	.st15{fill:#FFF9DE;}
	.st16{fill:#017F6A;}
	.st17{fill:#29ABE2;}
	.st18{fill:#F2C0AA;}
	.st19{fill:#1C75BC;}
	.st20{fill:#FFC200;}
	.st21{fill:#911717;}
	.st22{fill:#C1272D;}
	.st23{fill:#F7931E;}
	.st24{fill:#2D828E;}
	.st25{fill:#93BC20;}
	.st26{fill:#CC781D;}
	.st27{fill:#FF5500;}
	.st28{fill:#F79019;}
	.st29{fill:#C4C400;}
	.st30{fill:url(#SVGID_1_);}
	.st31{fill:url(#SVGID_00000087382268417796117710000014479209556485020549_);}
	.st32{fill:url(#SVGID_00000090259935467977524290000009745287338103131056_);}
	.st33{fill:#0092FF;}
	.st34{fill:#09578C;}
	.st35{fill:#3B9FE2;}
	.st36{fill:#BE1E2D;}
	.st37{fill:#231F20;}
	.st38{fill:#FF9D00;}
	.st39{fill:#F15A29;}
	.st40{fill:#0ABC9C;}
	.st41{fill:#F5A72B;}
	.st42{fill:#D86926;}
	.st43{fill:#212F50;}
	.st44{fill:#D0162D;}
	.st45{fill:url(#SVGID_00000003099994876447044760000014354947245174501792_);}
	.st46{fill:#E56031;}
	.st47{fill:#000F71;}
	.st48{fill:url(#SVGID_00000093175939663593523510000011563111273099314072_);}
	.st49{fill:#16246D;}
	.st50{fill:#1A85F8;}
	.st51{fill:url(#SVGID_00000164480268175848619770000014492997949125808561_);}
	.st52{opacity:0.5;fill:url(#SVGID_00000090991724037177532360000005659682236546424465_);}
	.st53{fill:url(#SVGID_00000109004960857735079460000012057222735150444442_);}
	.st54{opacity:0.5;fill:url(#SVGID_00000127764735925115931330000000932532244470362519_);}
	.st55{fill:#00A9E2;}
	.st56{fill:#666666;}
	.st57{fill:#072248;}
	.st58{fill:#1075B9;}
	.st59{fill:#F35525;}
	.st60{fill:#0E386A;}
	.st61{fill:#3C9B88;}
	.st62{fill:#125695;}
	.st63{fill:#F5C970;}
	.st64{fill:#80A843;}
	.st65{fill:#F8A32D;}
	.st66{fill:url(#SVGID_00000161623845479075382860000015829467879485924522_);}
	.st67{fill-rule:evenodd;clip-rule:evenodd;fill:#1A85F8;}
	.st68{fill:url(#Layer_x5F_1_00000145772345981980210220000008248570788068252061_);}
	.st69{fill:#043730;stroke:#FFFFFF;stroke-miterlimit:10;}
	.st70{fill:#FFFFFF;stroke:#E56031;stroke-linecap:round;stroke-linejoin:round;stroke-miterlimit:10;}
	.st71{fill:#FFFFFF;stroke:#E56031;stroke-miterlimit:10;}
	.st72{fill:#043730;stroke:#E56031;stroke-miterlimit:10;}
	.st73{fill:#043730;}
	.st74{fill:none;stroke:#E56031;stroke-linecap:round;stroke-linejoin:round;stroke-miterlimit:10;}
	.st75{fill:url(#SVGID_00000172414126075321849090000007931841906161995698_);}
	.st76{fill:#F9626D;}
	.st77{fill:#1B75BC;}
	.st78{fill:#FBB040;}
	.st79{fill:#358FA0;}
	.st80{fill:url(#SVGID_00000144339633145428990040000000601200137530716300_);}
	.st81{fill:url(#SVGID_00000092447269067757455730000011451235708822320009_);}
	.st82{fill:#00406B;}
	.st83{fill:#E5E6C6;}
	.st84{fill:#E5D7C7;}
	.st85{fill:#DCF7FF;}
	.st86{fill:#E2E5C7;}
	.st87{fill:#D3D3AE;}
	.st88{fill:#FFFFDE;}
	.st89{fill:#FFE5CC;}
	.st90{fill:#D4EEB8;}
	.st91{fill:url(#SVGID_00000121967393694327459450000006167575932731156629_);}
	.st92{fill:#FDFDFC;}
	.st93{fill:url(#SVGID_00000070093446782890516570000005250430074460107193_);}
	.st94{fill:#372E2D;}
	.st95{fill:#2390BA;}
	.st96{fill:url(#SVGID_00000146481845546489428920000000166092056621113222_);}
	.st97{fill:url(#SVGID_00000040564461412508816230000006029527033596415118_);}
	.st98{fill:#1C2849;}
	.st99{fill:#162C33;}
	.st100{fill:#172E34;}
	.st101{fill:#F7FBFC;}
	.st102{fill:#212655;}
	.st103{fill:url(#SVGID_00000181799122342958454690000015137408155976911007_);}
	.st104{fill:#465A9B;}
	.st105{fill:#F3A75E;}
	.st106{fill:url(#SVGID_00000065064392537312146180000015257289563341816995_);}
	.st107{fill:#E66546;}
	.st108{fill:url(#SVGID_00000145741367140687800070000014947978393388404147_);}
	.st109{fill:url(#SVGID_00000018958405234451020520000014988702645731996844_);}
	.st110{fill:#68488A;}
	.st111{fill:url(#SVGID_00000034772658742330203630000006033766678556781447_);}
	.st112{fill:#1C375E;}
	.st113{fill:#02A4F7;}
	.st114{fill:#062768;}
	.st115{fill:#0F6AAD;}
	.st116{fill:#2F92AA;}
	.st117{fill:#F99F0D;}
	.st118{fill:#EB473F;}
	.st119{fill:url(#SVGID_00000039109394666461200980000013984624923984573118_);}
	.st120{fill:#FDFDFD;}
	.st121{fill:#1A313F;}
	.st122{fill:url(#SVGID_00000091730716479700499010000005268061249389505706_);}
	.st123{fill:url(#SVGID_00000087402496578215763110000006432234243552702869_);}
	.st124{fill:#0E5490;}
	.st125{fill:#71B7CB;}
	.st126{fill:#543450;}
	.st127{fill:#F7872D;}
	.st128{fill:#0F2257;}
	.st129{fill:#F98F34;}
	.st130{fill:#1E5D95;}
	.st131{fill:url(#SVGID_00000031920796232696750460000014782459944242459018_);}
	.st132{fill:#1B3A6A;}
	.st133{fill:#F3682F;}
	.st134{fill:#DD3136;}
	.st135{fill:#2587C3;}
</style>
<g id="Logo1">
</g>
<g id="Logo2">
</g>
<g id="Logo3">
</g>
<g id="Logo4">
</g>
<g id="Logo5">
</g>
<g id="Logo6">
</g>
<g id="Logo7">
</g>
<g id="Logo8">
	<path class="st28" d="M226.95,117.17c7.08-15,7.3-30,1-45.05c-3.53-8.43-8.98-15.49-16.24-21.38c0,0.45,0,0.69,0,0.94
		c0,14.89-0.04,29.77,0.04,44.66c0.01,2.55-0.67,4.8-1.86,7.04c0-0.27,0-0.54,0-0.82c-0.01-12.55-0.04-25.1-0.02-37.65
		c0-0.71-0.23-1.03-0.85-1.32c-11.11-5.27-22.21-10.56-33.32-15.85c-0.39-0.18-0.72-0.34-1.2-0.11
		c-11.14,5.37-22.3,10.72-33.46,16.05c-0.57,0.27-0.78,0.58-0.78,1.23c0.02,12.6,0.01,25.19,0.01,37.79c0,0.27,0,0.53,0,0.8
		c-0.04,0.01-0.09,0.02-0.13,0.03c-0.53-1.12-1.08-2.23-1.58-3.37c-0.14-0.32-0.17-0.71-0.17-1.07c-0.03-15.6-0.05-31.19-0.08-46.79
		c0-0.36,0-0.72,0-1.31c-6.63,5.25-11.69,11.51-15.34,18.92c-3.67,7.46-5.45,15.36-5.49,23.65c-0.04,8.27,1.63,16.17,5.54,23.71
		c-1.16-0.23-2.16-0.54-3.18-0.62c-1.31-0.1-1.89-0.82-2.33-1.97c-1.99-5.23-3.29-10.6-3.7-16.19c-1.1-14.94,3.18-28.24,12.27-40.05
		c2.49-3.24,5.19-6.29,8.34-8.9c1.95-1.62,4.2-2.76,6.45-3.89c11.14-5.58,22.29-11.16,33.43-16.74c0.44-0.22,0.82-0.27,1.29-0.04
		c12.21,6.06,24.42,12.1,36.63,18.15c1.67,0.82,3.02,2.05,4.37,3.29c7.77,7.15,13.29,15.78,16.74,25.73
		c1.52,4.38,2.34,8.92,2.74,13.55c0.74,8.61-0.53,16.92-3.57,24.99c-0.42,1.12-1.03,1.74-2.17,1.94
		C229.25,116.69,228.18,116.92,226.95,117.17z M178.54,45.19c0.05-0.03,0.09-0.06,0.14-0.09c-0.27-0.94-0.55-1.87-0.82-2.81
		c-0.42-1.43-0.41-1.43,0.76-2.36c0.72-0.57,1.43-1.15,2.28-1.84c-1.42,0-2.62-0.02-3.83,0.01c-0.44,0.01-0.63-0.14-0.76-0.57
		c-0.31-1.07-0.69-2.13-1.04-3.19c-0.06-0.18-0.16-0.34-0.29-0.62c-0.53,1.57-1,3-1.48,4.42c-1.42,0-2.78,0-4.28,0
		c1.01,0.79,1.88,1.53,2.8,2.19c0.51,0.37,0.68,0.71,0.45,1.35c-0.41,1.13-0.7,2.3-1.08,3.57c1.11-0.81,2.11-1.52,3.1-2.25
		c0.4-0.3,0.74-0.31,1.15,0.02C176.59,43.77,177.57,44.47,178.54,45.19z M186.71,39.38c-0.06,0.01-0.11,0.03-0.17,0.04
		c-0.14,0.46-0.3,0.91-0.41,1.37c-0.1,0.41-0.29,0.62-0.75,0.57c-0.42-0.05-0.85-0.01-1.48-0.01c0.42,0.36,0.68,0.61,0.96,0.82
		c0.55,0.39,0.79,0.83,0.39,1.49c-0.16,0.27-0.2,0.62-0.34,1.07c0.51-0.34,0.91-0.56,1.25-0.85c0.35-0.29,0.63-0.28,0.97-0.01
		c0.38,0.29,0.79,0.55,1.33,0.91c-0.17-0.52-0.25-0.88-0.41-1.2c-0.3-0.63-0.23-1.09,0.43-1.43c0.32-0.17,0.58-0.46,0.87-0.69
		c-0.51-0.14-0.97-0.17-1.42-0.13c-0.43,0.03-0.6-0.16-0.71-0.55C187.09,40.3,186.89,39.84,186.71,39.38z M166.37,41.35
		c-0.62,0-1.1-0.03-1.57,0.01c-0.37,0.03-0.53-0.13-0.63-0.45c-0.15-0.49-0.33-0.97-0.56-1.64c-0.22,0.66-0.4,1.12-0.51,1.59
		c-0.09,0.39-0.29,0.51-0.67,0.49c-0.5-0.03-1.01-0.01-1.52-0.01c0.35,0.46,0.71,0.78,1.1,1.05c0.32,0.23,0.45,0.45,0.28,0.86
		c-0.19,0.45-0.28,0.95-0.45,1.54c0.26-0.17,0.41-0.26,0.56-0.37c1.19-0.84,1.19-0.84,2.42-0.06c0.15,0.09,0.3,0.18,0.56,0.32
		c-0.21-0.71-0.64-1.39-0.48-1.89C165.04,42.26,165.77,41.9,166.37,41.35z M153.59,96.31c2.13-1.69,4.34-3.02,6.69-4.12
		c0.53-0.25,0.67-0.54,0.66-1.09c-0.02-2.91-0.01-5.81-0.01-8.77c-0.38-0.05-0.68-0.09-1.03-0.13c0-0.47,0-0.91,0-1.42
		c0.29-0.02,0.57-0.04,0.95-0.06c0.01-0.26,0.03-0.52,0.04-0.78c0.01-3.64,0.02-7.28,0-10.92c0-0.5,0.11-0.76,0.63-0.93
		c4.33-1.47,8.64-2.98,12.97-4.45c0.34-0.12,0.79-0.13,1.12-0.01c4.14,1.46,8.26,2.96,12.4,4.43c0.49,0.17,0.65,0.4,0.64,0.92
		c-0.03,3.69-0.01,7.37-0.01,11.06c0,0.2,0,0.41,0,0.68c0.4,0.03,0.75,0.05,1.18,0.08c-0.02,0.47-0.04,0.91-0.06,1.39
		c-0.38,0.02-0.71,0.04-1.12,0.06c0,0.29,0,0.53,0,0.78c0,2.77,0.02,5.54-0.01,8.31c-0.01,0.53,0.16,0.78,0.64,1.03
		c1.99,1.02,3.94,2.11,5.9,3.19c0.31,0.17,0.59,0.42,0.91,0.67c-7.06,5.14-14.06,10.24-21.12,15.38
		C167.87,106.51,160.77,101.44,153.59,96.31z M185.8,90.62c0-2.61,0-5.21,0-7.85c-1.62,0-3.18,0-4.79,0c0,2.27,0,4.51,0,6.72
		C182.61,89.87,184.18,90.24,185.8,90.62z M168.79,82.77c-1.67,0-3.24,0-4.84,0c0,2.63,0,5.22,0,7.83c1.56-0.36,3.07-0.7,4.57-1.07
		c0.11-0.03,0.26-0.26,0.26-0.39C168.79,87.04,168.79,84.94,168.79,82.77z M177.36,88.99c0-1.08,0-2.11,0-3.14c0-1.02,0-2.04,0-3.07
		c-1.7,0-3.29,0-4.94,0c0,1.07,0,2.1,0,3.12c0,1.02,0,2.04,0,3.09C174.11,88.99,175.68,88.99,177.36,88.99z M110.75,115.4
		c4.75,5.17,10.67,7.53,17.64,7.37c1.04-0.02,2.07,0,3.11,0c-7.26,0.81-14.51,1.71-21.7,2.98c0.31,0.06,0.6,0.05,0.9,0.06
		c13.65,0.16,27.29,0.32,40.94,0.48c5.36,0.06,10.72,0.12,16.07,0.15c0.57,0,0.72,0.21,0.68,0.72c-0.03,0.36-0.01,0.71-0.01,1.05
		c4.43,0,8.74,0,13.15,0c0-0.65,0-1.25,0-1.91c0.34,0,0.59,0,0.83,0c17.67-0.21,35.35,0.36,53.02-0.28
		c1.59-0.06,3.18-0.11,4.78-0.17c0.01-0.07,0.02-0.14,0.02-0.22c-6.84-1.2-13.68-2.39-20.52-3.59c2.11,0.02,4.2,0.2,6.29,0.35
		c0.61,0.04,1.25,0.13,1.83-0.01c2.98-0.74,5.73-2.02,8.14-3.95c0.62-0.5,1.2-1.06,1.78-1.61c0.56-0.54,1.09-1.11,1.63-1.66
		c-0.18-0.03-0.28,0.02-0.39,0.07c-4.11,1.86-8.36,3.22-12.92,3.37c-2.4,0.08-4.7,0.65-6.98,1.38c-0.46,0.15-0.68,0.38-0.62,0.88
		c0.04,0.33,0.01,0.66,0.01,1.05c-0.37-0.06-0.62-0.12-0.87-0.12c-0.57-0.01-0.72-0.28-0.68-0.82c0.05-0.63,0.01-1.28,0.01-1.92
		c-0.24-0.08-0.43-0.14-0.63-0.21c-5.12-1.59-10.39-2.31-15.73-2.6c-5.37-0.29-10.71-0.09-15.97,1.11
		c-2.37,0.54-4.68,1.24-6.86,2.35c-0.59,0.3-0.94,0.64-0.83,1.37c0.07,0.48,0.01,0.98,0.01,1.57c-0.59-0.35-1.07-0.61-1.52-0.92
		c-0.31-0.21-0.54-0.23-0.85,0.01c-0.44,0.34-0.93,0.63-1.49,1c0-0.59-0.07-1.06,0.01-1.5c0.19-1.05-0.36-1.48-1.23-1.85
		c-4.77-2.05-9.76-3.09-14.93-3.26c-6.85-0.23-13.62,0.36-20.25,2.2c-1.44,0.4-2.87,0.87-4.36,1.32c0.27,0.46,0.46,0.79,0.72,1.23
		c-0.94-0.21-1.68-0.42-2.11-1.22c-0.08-0.14-0.35-0.24-0.54-0.26c-1.55-0.15-3.1-0.25-4.65-0.41c-4.24-0.46-8.4-1.29-12.42-2.75
		c-0.91-0.33-1.8-0.73-2.82-1.15C110.64,115.26,110.69,115.33,110.75,115.4z M219.34,126.67c-0.27,0-0.54,0.04-0.8-0.01
		c-0.87-0.16-1.42,0.24-1.97,0.89c-2.59,3.04-5.39,5.87-8.59,8.27c-7.35,5.51-15.62,8.87-24.67,10.33c-0.56,0.09-1.13,0.13-1.7,0.19
		c-0.01-0.05-0.02-0.1-0.03-0.15c8.17-5.96,16.34-11.92,24.6-17.95c-7.78,0-15.41,0-23.1,0c0,0.6,0,1.14,0,1.71
		c-5.42,0-10.78,0-16.21,0c0-0.57,0-1.09,0-1.6c-7.74,0-15.41,0-23.22,0c8.49,6.04,16.85,12,25.22,17.96
		c-1.14-0.01-2.23-0.12-3.3-0.33c-12.68-2.4-23.37-8.34-32.02-17.95c-0.14-0.16-0.34-0.35-0.53-0.37c-0.6-0.05-1.2-0.02-1.8-0.02
		c-0.01,0.07-0.03,0.14-0.04,0.21c0.37,0.46,0.71,0.94,1.11,1.38c4.56,5.1,9.84,9.3,15.87,12.53c6.46,3.46,13.38,5.55,20.66,6.34
		c1.98,0.22,3.81,0.57,5.31,1.96c0.12,0.11,0.28,0.16,0.4,0.27c0.33,0.29,0.61,0.25,0.96,0c0.82-0.58,1.66-1.13,2.51-1.67
		c0.22-0.14,0.49-0.24,0.74-0.27c2.73-0.41,5.5-0.65,8.2-1.24c11.47-2.49,21.31-7.95,29.36-16.53c1.12-1.19,2.13-2.49,3.2-3.74
		C219.44,126.82,219.39,126.74,219.34,126.67z M125.71,134.84c5.27,6.46,11.65,11.61,18.99,15.55c8.81,4.73,18.26,7.05,28.2,7.46
		c6.91,0.28,13.7-0.62,20.33-2.58c14.91-4.41,26.72-13.02,35.19-26.12c0.31-0.49,0.6-0.99,0.96-1.61c-2.35,0-4.54,0.02-6.73-0.01
		c-0.57-0.01-0.91,0.19-1.23,0.64c-4.63,6.45-10.5,11.53-17.42,15.34c-12.53,6.9-25.91,9.05-39.95,6.44
		c-14.22-2.64-25.91-9.71-35.08-20.89c-0.88-1.07-1.7-1.59-3.1-1.48c-1.77,0.14-3.55,0.03-5.47,0.03
		C122.23,130.13,123.86,132.57,125.71,134.84z M220.66,73.48c0.18,0.38,0.36,0.76,0.53,1.13c-0.42-2.4,1.18-3.69,2.72-5.13
		c0.27,1.45,0.57,2.83,0.15,4.19c-0.2,0.65-0.62,1.27-1.09,1.77c-0.26,0.28-0.82,0.28-1.32,0.43c0.29,1.11,0.62,2.4,0.96,3.69
		c0.2-2.63,2.23-3.89,4.03-5.54c0.15,1.71,0.22,3.26-0.44,4.74c-0.45,1.01-1.16,1.76-2.25,2.07c-0.32,0.09-0.69,0.01-1.09,0.01
		c0.19,1.5,0.38,3.1,0.58,4.7c0.04,0.01,0.08,0.01,0.11,0.02c0.05-0.3,0.09-0.6,0.16-0.89c0.25-1,0.87-1.77,1.65-2.38
		c1.07-0.85,2.19-1.64,3.41-2.56c-0.04,1.64-0.25,3.1-0.81,4.5c-0.56,1.39-1.48,2.43-3,2.75c-0.43,0.09-0.92-0.06-1.49-0.11
		c0,1.62,0,3.43,0,5.19c0.53-1.98,2.14-3.04,3.81-4.05c1.01-0.61,2.02-1.24,3.2-1.96c-0.59,2.5-0.94,4.92-2.85,6.67
		c-0.94,0.86-2.06,1.28-3.34,1.11c-0.35-0.05-0.68-0.3-1.05-0.47c-0.29,1.85-0.61,3.86-0.93,5.87c0.96-2.18,3.02-2.93,4.93-3.88
		c1.08-0.53,2.12-1.14,3.26-1.77c-0.67,2.49-1.38,4.88-3.36,6.59c-1.5,1.3-3.23,1.62-5.18,0.81c-0.7,1.9-1.39,3.8-2.16,5.89
		c0.21-0.22,0.28-0.31,0.36-0.39c0.66-0.62,1.22-1.49,2-1.8c2.47-0.98,5.02-1.76,7.67-2.66c-0.83,2.04-1.85,3.81-3.34,5.25
		c-0.73,0.7-1.6,1.32-2.51,1.75c-1.67,0.78-3.34,0.65-4.91-0.58c-1.08,1.75-2.15,3.46-3.18,5.13c1.71-0.6,3.43-1.29,5.2-1.79
		c1.78-0.49,3.61-0.78,5.5-1.17c-2.11,3.38-4.5,6.29-8.57,7.37c0-0.68,0.03-1.32-0.02-1.96c-0.02-0.2-0.22-0.5-0.4-0.56
		c-4.8-1.53-9.69-2.69-14.66-3.48c-3.51-0.56-7.04-0.89-10.6-0.79c-4.03,0.12-7.97,0.72-11.75,2.18c-0.08,0.03-0.17,0.07-0.26,0.09
		c-0.04,0.01-0.08-0.02-0.3-0.1c1.59-0.58,3.05-1.08,4.49-1.64c0.8-0.31,1.62-0.64,2.33-1.11c3.86-2.54,7.69-5.12,11.53-7.69
		c0.15-0.1,0.28-0.21,0.4-0.34c-5.02,2-9.5,5-14.19,7.62c-0.03-0.05-0.06-0.09-0.09-0.14c4.71-3.44,9.42-6.88,14.13-10.32
		c-0.02-0.04-0.03-0.08-0.05-0.12c-0.26,0.12-0.52,0.25-0.78,0.37c-3.79,1.87-7.24,4.29-10.72,6.64c-3.47,2.34-6.94,4.69-10.4,7.03
		c-0.2,0.13-0.41,0.25-0.62,0.37c-0.05-0.07-0.1-0.13-0.14-0.2c7.8-6.12,15.61-12.23,23.58-18.48c0,5.17,0,10.11,0,15.1
		c3.23,0.27,6.32,0.88,9.34,1.82c3,0.94,5.99,1.91,9.01,2.87c-0.33-0.19-0.66-0.41-1.01-0.56c-2.09-0.92-4.19-1.84-6.3-2.7
		c-0.52-0.21-0.67-0.53-0.76-1c-0.33-1.62,0.06-3.13,0.66-4.61c0.38-0.93,0.79-1.85,1.26-2.94c1.58,3.16,3.36,6.1,2.51,9.78
		c1.55-1.53,2.6-3.35,3.65-5.26c-0.24-0.06-0.41-0.1-0.58-0.14c-2.54-0.57-4.1-2.36-4.03-4.98c0.05-1.93,0.42-3.85,0.65-5.77
		c0.09-0.01,0.17-0.02,0.26-0.03c0.96,1.51,1.95,2.99,2.86,4.52c0.93,1.57,1.5,3.27,1.29,5.16c0.09,0.01,0.17,0.03,0.26,0.04
		c0.73-1.89,1.46-3.78,2.2-5.72c-0.29-0.06-0.42-0.1-0.55-0.12c-2.73-0.27-4.09-1.98-4.7-4.47c-0.42-1.69-0.4-3.4-0.17-5.24
		c0.28,0.31,0.49,0.55,0.71,0.79c1.1,1.17,2.25,2.29,3.29,3.51c1.41,1.65,1.58,2.24,1.65,4.37c1.22-4.23,1.66-8.57,1.75-13
		c-1.81,0.82-3.16,0.05-4.35-1.05c-1.28-1.19-1.83-2.81-2.3-4.45c-0.02-0.08,0.01-0.18,0.02-0.27c2.46,0.29,5.41,2.15,6.54,4.01
		c-0.13-1.52-0.25-3.04-0.38-4.56c-0.69,0.78-1.48,0.67-2.24,0.55c-1.15-0.19-2.14-0.73-2.84-1.66c-0.68-0.91-1.25-1.89-1.78-2.94
		c2.4,0.65,5.19,0.43,6.65,3.16c-0.37-1.59-0.74-3.17-1.11-4.76c-0.17,0.8-0.63,1.1-1.48,0.99c-1.93-0.23-3.19-1.36-4.11-2.97
		c-0.17-0.3-0.3-0.61-0.52-1.05c2.11,0.43,4.26,0.38,5.77,2.31c0-0.28,0-0.42,0-0.57C220.61,73.52,220.66,73.48,220.66,73.48z
		 M187.58,111.04c1.95,0.08,9.5-3.6,10.97-5.35C194.66,107.25,191.01,108.91,187.58,111.04z M197.75,108.74
		c-0.02-0.04-0.03-0.07-0.05-0.11c-1.9,0.68-3.81,1.36-5.71,2.04c0.02,0.07,0.04,0.15,0.06,0.22c0.83-0.07,1.75,0.06,2.48-0.25
		C195.67,110.16,196.69,109.39,197.75,108.74z M199.82,84.49c-1.16-3.56-2.33-7.12-3.47-10.69c-0.07-0.22-0.01-0.57,0.13-0.75
		c0.47-0.57,0.46-0.95-0.08-1.47c-0.16-0.15-0.29-0.4-0.3-0.61c-0.03-1.01,0.01-2.01-0.01-3.02c-0.01-0.38,0.11-0.58,0.49-0.69
		c0.77-0.23,1.52-0.5,2.27-0.76c0.62-0.21,1.22-0.45,1.88-0.69c-0.09-0.08-0.1-0.1-0.12-0.11c-8.33-2.82-16.67-5.64-25.01-8.43
		c-0.38-0.13-0.87-0.1-1.25,0.02c-8.59,2.77-17.17,5.57-25.75,8.36c-0.24,0.08-0.48,0.18-0.87,0.33c4.24,1.36,8.3,2.67,12.46,4.01
		c0-0.55,0.03-1-0.01-1.45c-0.05-0.54,0.12-0.79,0.67-0.97c4.48-1.5,8.96-3.04,13.42-4.59c0.51-0.18,0.95-0.16,1.45,0.02
		c4.11,1.46,8.23,2.91,12.35,4.35c1.21,0.42,1.21,0.42,1.22,1.73c0,0.18,0.02,0.35,0.04,0.59c2.07-0.69,4.09-1.36,6.21-2.07
		c0,1.28,0.01,2.45-0.01,3.61c0,0.14-0.17,0.29-0.29,0.41c-0.43,0.43-0.5,0.93-0.08,1.33c0.33,0.31,0.27,0.57,0.16,0.9
		c-0.8,2.55-1.59,5.11-2.38,7.66c-0.36,1.17-0.72,2.34-1.09,3.55c2.76,0,5.42,0,8.13,0C199.92,84.83,199.88,84.66,199.82,84.49z
		 M128.45,74.97c-0.09,0.38-0.14,0.77-0.27,1.13c-0.79,2.32-1.31,4.71-1.63,7.14c-0.12,0.9-0.21,1.8-0.32,2.7
		c-0.1-3.4-2.95-4.56-5.07-6.34c-0.02,1.01-0.04,2,0.13,2.95c0.37,2.02,1.3,3.67,3.41,4.33c0.46,0.14,0.97,0.14,1.49,0.21
		c0,1.64,0,3.27,0,4.73c-0.51-0.73-0.95-1.73-1.7-2.35c-1.45-1.2-3.08-2.19-4.81-3.39c0.14,0.86,0.22,1.53,0.35,2.19
		c0.3,1.5,0.81,2.92,1.85,4.08c1.22,1.37,2.7,1.99,4.56,1.36c0.92,7.45,3.59,14.16,7.86,20.09c-1.07-0.53-2.13-1.3-3.32-1.6
		c-2.58-0.66-5.22-1.08-7.87-1.61c1.69,3.76,6.07,7.23,9.14,7.25c0.07-0.65,0.17-1.31,0.21-1.97c0.03-0.56,0.26-0.89,0.81-1.11
		c0.99-0.39,1.94-0.87,3-1.36c-4.62-5.94-7.63-12.45-8.55-19.85c1.6,0.19,3.25-0.46,4.27-1.67c1.19-1.42,1.99-4.33,1.72-6.13
		c-0.9,0.7-1.83,1.44-2.77,2.15c-0.33,0.25-0.69,0.45-1.03,0.68c-1.21,0.81-2.13,1.83-2.3,3.38c-0.06-0.02-0.13-0.04-0.19-0.05
		c-0.09-1.62-0.17-3.23-0.26-4.88c4,0.87,6.32-3.01,6.71-6.3c-1.13,0.58-2.29,1.16-3.45,1.75c-1.38,0.7-2.68,1.5-3.09,3.18
		c-0.06-0.02-0.12-0.04-0.19-0.05c0.14-1.6,0.28-3.19,0.42-4.81c0.31,0.17,0.5,0.37,0.71,0.38c0.52,0.03,1.05,0,1.57-0.06
		c2.02-0.23,4.05-3.09,4.42-5.28c-1.08,0.5-2.21,1.04-3.36,1.54c-1.34,0.58-2.69,1.12-3.08,2.78c0-0.37,0.04-0.7,0.11-1.03
		c0.22-1.05,0.46-2.09,0.7-3.2c1.47,0.19,2.78-0.05,3.91-1c1.08-0.91,1.85-2.03,2.49-3.42c-2.34,0.56-4.7,0.76-5.97,3.11
		c0.11-0.65,0.22-1.25,0.43-1.82c0.14-0.36,0.36-0.75,0.66-0.98c1.42-1.07,2.3-2.47,2.65-4.2c0.19-0.96,0.28-1.94,0.41-2.91
		c-0.09-0.04-0.19-0.08-0.28-0.12c-0.97,1-1.98,1.96-2.89,3.01c-0.99,1.14-1.18,2.48-0.79,3.93c0.11,0.39,0.09,0.86-0.02,1.25
		c-0.2,0.74-0.52,1.46-0.78,2.19C128.43,74.99,128.45,74.97,128.45,74.97z M137.79,113.55c3.96-1.92,8.26-2.56,12.61-3.2
		c0-4.96,0-9.87,0-14.94c8.01,6.28,15.89,12.47,23.78,18.66c-0.02,0.03-0.04,0.06-0.06,0.09c-3.74-2.49-7.49-4.98-11.23-7.47
		c-3.75-2.49-7.55-4.9-11.68-6.78c4.94,3.59,9.87,7.18,14.81,10.77c-4.96-2.6-9.56-5.85-14.87-7.81c0.27,0.2,0.53,0.41,0.81,0.59
		c3.69,2.5,7.37,5.02,11.09,7.48c0.65,0.43,1.46,0.63,2.21,0.88c1.7,0.59,3.41,1.14,5.12,1.71c-0.02,0.07-0.04,0.15-0.06,0.22
		c-0.15-0.04-0.3-0.07-0.44-0.12c-4.97-1.92-10.14-2.5-15.42-2.37c-5.24,0.13-10.36,1.1-15.44,2.3c-0.39,0.09-0.79,0.12-1.18,0.17
		C137.82,113.67,137.81,113.61,137.79,113.55z M151.42,105.93c-0.04,0.06-0.07,0.13-0.11,0.19c2.23,1.34,4.4,2.78,6.71,3.97
		c1.04,0.54,2.32,0.59,3.5,0.87c0.02-0.08,0.04-0.16,0.06-0.23C158.35,108.81,154.9,107.32,151.42,105.93z M155.53,110.09
		c-1.42-0.45-2.83-0.9-4.25-1.35c-0.02,0.05-0.03,0.11-0.05,0.16C152.61,109.45,153.75,110.73,155.53,110.09z M126.58,104.18
		c-1.83-0.7-3.7-1.31-5.55-1.95c-0.27-0.09-0.53-0.18-0.93-0.32c0.97,2.54,2.09,4.82,4.22,6.42c2.19,1.65,4.57,1.72,6.47,0.23
		C130.01,106.44,128.63,104.96,126.58,104.18z M132.76,101.36c-0.2,0.3-0.38,0.63-0.52,0.96c-0.62,1.47-0.8,2.96-0.06,4.44
		c0.1,0.19,0.47,0.41,0.65,0.37c1.74-0.46,3.02-1.47,3.58-3.25c0.79-2.52,0.23-4.95-0.42-7.27
		C134.93,98.17,133.84,99.76,132.76,101.36z M119.37,93.8c0.47,2.4,1.18,4.7,3.09,6.41c1.32,1.18,2.86,1.67,4.63,1.2
		c0.53-0.14,0.74-0.42,0.58-1.01c-0.33-1.18-0.84-2.3-1.85-2.97c-2.05-1.36-4.19-2.57-6.3-3.84
		C119.48,93.66,119.43,93.73,119.37,93.8z M137.77,102.3c-0.05,0.17-0.1,0.34-0.15,0.51c-0.35,1.25-0.69,2.51-1.05,3.75
		c-0.26,0.9-0.61,1.78-0.81,2.69c-0.25,1.2-0.26,2.41,0.49,3.5c0.22,0.31,0.44,0.41,0.8,0.23c0.45-0.22,0.92-0.4,1.38-0.59
		c2.03-0.86,2.15-1.06,1.98-3.3c-0.02-0.23-0.02-0.47-0.1-0.68c-0.77-2.06-1.56-4.12-2.34-6.17
		C137.91,102.26,137.84,102.28,137.77,102.3z M168.12,114.81c-11.53-3.6-22.89-2.19-34.2,1.06c-0.06,0.6-0.12,1.14-0.17,1.7
		C145.04,113.84,156.38,111.91,168.12,114.81z M131.19,94.84c-0.36,0.32-0.7,0.66-1.01,1.02c-1.38,1.57-1.59,3.17-0.64,4.9
		c1.69-0.27,3.1-1.01,4.01-2.54c1.36-2.29,1.35-4.79,1.01-7.35C133.72,92.46,132.5,93.68,131.19,94.84z M217.14,117.28
		c-10.99-5.12-22.38-5.7-34.06-2.94c0.08,0.09,0.17,0.12,0.25,0.1c6.02-1.5,12.09-1.34,18.12-0.27c4.43,0.79,8.8,1.88,13.2,2.84
		c0.81,0.18,1.62,0.37,2.43,0.55C217.1,117.47,217.12,117.38,217.14,117.28z M216.97,91.13c1.05,1.77,2.66,2.58,4.73,2.42
		c0.18-0.01,0.47-0.24,0.48-0.39c0.13-1.55-0.11-3.04-1.39-4.04c-1.54-1.2-3.18-2.27-4.87-3.45C215.93,87.63,216,89.49,216.97,91.13
		z M123.21,73.99c0,1.14-0.07,2.18,0.01,3.21c0.17,2.22,1.51,3.61,3.51,3.71C127.52,78.41,126.01,75.34,123.21,73.99z M220.66,73.48
		c-0.13-0.7-0.32-1.37,0.12-2.07c0.18-0.3,0.16-0.76,0.13-1.14c-0.14-2.29-1.62-3.65-3.43-4.93c0,1.02-0.08,1.91,0.02,2.79
		c0.14,1.3,0.56,2.55,1.63,3.37c0.73,0.55,1.24,1.16,1.47,2.02C220.61,73.52,220.66,73.48,220.66,73.48z M128.43,75
		c0.65-2.42-0.51-4.16-2.22-5.89c-0.16,1.05-0.35,1.94-0.43,2.85c-0.1,1.15,0.14,2.23,0.93,3.13c0.76,0.86,1.21,0.83,1.74-0.11
		C128.45,74.97,128.43,74.99,128.43,75z M142.36,108.18c0,1.1,0,2.04,0,3.03c0.56-0.14,1.07-0.26,1.71-0.42
		C143.48,109.89,142.95,109.08,142.36,108.18z M208.02,111.32c-0.28-0.67-0.52-1.24-0.8-1.92c-0.48,0.51-0.86,0.94-1.33,1.44
		C206.65,111.01,207.28,111.15,208.02,111.32z"/>
</g>
<g id="Logo9">
</g>
<g id="Logo10">
</g>
<g id="Logo11">
</g>
<g id="Logo12">
</g>
<g id="Layer_13">
</g>
<g id="Layer_14">
</g>
<g id="Layer_15">
</g>
</svg>
