<?xml version="1.0" encoding="utf-8"?>
<!-- Generator: Adobe Illustrator 27.8.1, SVG Export Plug-In . SVG Version: 6.00 Build 0)  -->
<svg version="1.1" xmlns="http://www.w3.org/2000/svg" xmlns:xlink="http://www.w3.org/1999/xlink" x="0px" y="0px"
	 viewBox="0 0 350 230" style="enable-background:new 0 0 350 230;" xml:space="preserve">
<style type="text/css">
	.st0{fill:#FF7F00;}
	.st1{fill:#893700;}
	.st2{fill:#29ABE2;}
	.st3{fill:#F2C0AA;}
	.st4{fill:#1C75BC;}
	.st5{fill:#FFC200;}
	.st6{fill:#911717;}
	.st7{fill:#C1272D;}
	.st8{fill:#F7931E;}
	.st9{fill:#2D828E;}
	.st10{fill:#93BC20;}
	.st11{fill:#CC781D;}
	.st12{fill:#FF5500;}
	.st13{fill:#C4C400;}
	.st14{fill:#017F6A;}
	.st15{fill:#0092FF;}
	.st16{fill:#09578C;}
	.st17{fill:#3B9FE2;}
	.st18{fill:#BE1E2D;}
	.st19{fill:#231F20;}
	.st20{fill:#FF9D00;}
	.st21{fill:#F15A29;}
	.st22{fill:#E5E6C6;}
	.st23{fill:#E5D7C7;}
	.st24{fill:#DCF7FF;}
	.st25{fill:#E2E5C7;}
	.st26{fill:#FDFFDC;}
	.st27{fill:#D3D3AE;}
	.st28{fill:#FFFFDE;}
	.st29{fill:#FFE5CC;}
	.st30{fill:#D4EEB8;}
	.st31{fill:#00406B;}
	.st32{fill:url(#SVGID_1_);}
	.st33{fill:#FDFDFC;}
	.st34{fill:url(#SVGID_00000140711516169154665470000014322677191940421561_);}
	.st35{fill:#372E2D;}
	.st36{fill:#2390BA;}
	.st37{fill:url(#SVGID_00000165935836610184991590000011791322362707159448_);}
	.st38{fill:url(#SVGID_00000111190592648847984550000000880329929183952513_);}
	.st39{fill:#1C2849;}
	.st40{fill:#162C33;}
	.st41{fill:#172E34;}
	.st42{fill:#F7FBFC;}
	.st43{fill:#212655;}
	.st44{fill:url(#SVGID_00000067215669224922591430000009214285559582771873_);}
	.st45{fill:#465A9B;}
	.st46{fill:#F3A75E;}
	.st47{fill:url(#SVGID_00000039125989503867239620000007154893076136466595_);}
	.st48{fill:#E66546;}
	.st49{fill:url(#SVGID_00000139986351648870841620000014751145451112670100_);}
	.st50{fill:url(#SVGID_00000111154618017031105370000002328353319640634026_);}
	.st51{fill:#68488A;}
	.st52{fill:url(#SVGID_00000107559426580401261040000000215991341500323230_);}
	.st53{fill:#1C375E;}
	.st54{fill:#02A4F7;}
	.st55{fill:#062768;}
	.st56{fill:#0F6AAD;}
	.st57{fill:#FEFEFE;}
	.st58{fill:#2F92AA;}
	.st59{fill:#F99F0D;}
	.st60{fill:#EB473F;}
	.st61{fill:url(#SVGID_00000141456930288636525410000008725472786313045908_);}
	.st62{fill:#FDFDFD;}
	.st63{fill:#1A313F;}
	.st64{fill:url(#SVGID_00000097496323015969645360000016867029960583812284_);}
	.st65{fill:url(#SVGID_00000169524800610217195130000015551933310119633583_);}
	.st66{fill:#0E5490;}
	.st67{fill:#71B7CB;}
	.st68{fill:#543450;}
	.st69{fill:#F7872D;}
	.st70{fill:#0F2257;}
	.st71{fill:#F98F34;}
	.st72{fill:#1E5D95;}
	.st73{fill:url(#SVGID_00000059991825507013350630000003810096988358784429_);}
	.st74{fill:#1B3A6A;}
	.st75{fill:#F3682F;}
	.st76{fill:#DD3136;}
	.st77{fill:#2587C3;}
</style>
<g id="Logo1">
</g>
<g id="Logo2">
</g>
<g id="Logo3">
</g>
<g id="Logo4">
</g>
<g id="Logo5">
</g>
<g id="Logo6">
</g>
<g id="Logo7">
</g>
<g id="Logo8">
</g>
<g id="Logo9">
</g>
<g id="Logo10">
</g>
<g id="Logo11">
</g>
<g id="Logo12">
</g>
<g id="Layer_13">
</g>
<g id="Layer_14">
</g>
<g id="Layer_15">
	<g>
		<path class="st43" d="M169.57,69.39l-0.01,3.2h11.32l0.01-3.22C177.11,69.35,173.34,69.36,169.57,69.39z M178.53,66.37
			c0.34-0.47,0.67-0.94,0.98-1.43c0.02-1.3-0.22-2.23-1.16-3.2c-0.74-0.76-1.85-1.42-2.93-1.43c-0.23,0-0.46,0.02-0.69,0.04
			c-0.97,0.3-1.55,0.71-2.22,1.47c-0.61,0.13-1.05,0.32-1.41,0.85c-0.47,0.7-0.42,1.65-0.23,2.44c0.1,0.44,0.28,0.88,0.46,1.28
			l-1.73-0.01v2.2c2.15-0.16,4.36-0.08,6.52-0.08l4.77,0.01v-1.75C180.07,66.43,179.39,66.38,178.53,66.37z M180.65,125.42
			l-0.09-0.01c-1.74,1.04-3.64,2.21-5.56,2.91c-1.97-0.59-3.85-1.97-5.64-2.96c0.39,2.54,1.1,4.99,1.77,7.46
			c0.73,2.73,1.45,5.47,2.25,8.18c0.57,2.2,1.32,4.39,1.8,6.61c1.34-4.67,2.47-9.39,3.64-14.1c0.53-2.1,1.18-4.18,1.63-6.3
			C180.56,126.81,180.83,125.79,180.65,125.42z M175.37,139.48l-0.29,1.18c-0.58-1.75-1.08-3.56-1.53-5.35h2.83
			C176,136.68,175.7,138.09,175.37,139.48z"/>
		<linearGradient id="SVGID_1_" gradientUnits="userSpaceOnUse" x1="251.9105" y1="91.7265" x2="98.8595" y2="101.0751">
			<stop  offset="0" style="stop-color:#DE9423"/>
			<stop  offset="1" style="stop-color:#F4B132"/>
		</linearGradient>
		<path class="st32" d="M137.61,61.67c0-0.05-0.01-0.1-0.03-0.15c-0.01-0.05-0.02-0.09-0.04-0.14c-0.01-0.05-0.03-0.09-0.05-0.14
			c-0.02-0.04-0.05-0.08-0.07-0.13c-0.24-0.41-0.67-0.64-1.12-0.72c-0.16-0.03-0.32-0.03-0.48-0.03c-0.47,0.17-0.9,0.32-1.18,0.75
			c-0.04,0.21-0.06,0.41-0.07,0.62c-0.01,0.35-0.06,0.62-0.32,0.87c-0.58,0.56-1.28,1.02-1.89,1.56c-1.35,1.21-2.61,2.51-3.79,3.87
			c-6.35,7.24-10.9,17.9-11.41,27.55c-0.02,0.38-0.04,0.75-0.06,1.13c-0.01,0.37-0.02,0.74-0.03,1.12v1.13l0.03,1.13
			c0.01,0.38,0.03,0.75,0.06,1.13c0.02,0.38,0.05,0.75,0.08,1.13c0.03,0.38,0.07,0.75,0.11,1.12c0.04,0.38,0.08,0.75,0.13,1.12
			c0.06,0.38,0.11,0.75,0.17,1.12c0.06,0.38,0.12,0.74,0.19,1.12c0.07,0.37,0.14,0.73,0.22,1.1c0.08,0.38,0.16,0.74,0.25,1.11
			c0.08,0.37,0.18,0.72,0.28,1.09c0.1,0.37,0.2,0.72,0.31,1.09c0.11,0.36,0.21,0.72,0.34,1.08c0.11,0.36,0.23,0.71,0.36,1.07
			c0.12,0.36,0.25,0.71,0.39,1.07c0.13,0.35,0.28,0.7,0.41,1.05c0.14,0.35,0.3,0.69,0.45,1.04c0.14,0.35,0.31,0.69,0.46,1.03
			c0.16,0.35,0.33,0.68,0.49,1.02c0.17,0.34,0.35,0.67,0.52,1.01c0.17,0.34,0.36,0.66,0.54,1c0.18,0.33,0.37,0.65,0.56,0.98
			c0.19,0.33,0.4,0.64,0.59,0.96c0.2,0.33,0.41,0.64,0.61,0.96c0.21,0.32,0.43,0.62,0.64,0.93c0.21,0.32,0.44,0.62,0.66,0.93
			c0.22,0.3,0.45,0.6,0.68,0.9c0.22,0.3,0.46,0.59,0.7,0.89c0.23,0.29,0.48,0.58,0.72,0.87c0.24,0.29,0.5,0.57,0.75,0.85
			c1.34,1.48,2.44,2.65,4.53,2.97c0.08,0.02,0.11,0.01,0.19,0c-0.11-0.15-0.21-0.22-0.37-0.33c-0.28-0.24-0.54-0.48-0.81-0.73
			c-0.27-0.24-0.53-0.5-0.8-0.75l-0.76-0.76c-0.25-0.27-0.51-0.53-0.75-0.8c-0.24-0.27-0.49-0.54-0.73-0.81
			c-0.23-0.28-0.48-0.55-0.7-0.83c-0.23-0.29-0.47-0.56-0.69-0.85c-0.22-0.29-0.45-0.57-0.67-0.87c-0.21-0.29-0.43-0.58-0.64-0.88
			c-0.21-0.3-0.43-0.59-0.63-0.9c-0.2-0.3-0.4-0.6-0.6-0.91c-0.19-0.31-0.39-0.61-0.58-0.92c-0.18-0.32-0.38-0.62-0.55-0.94
			c-0.18-0.32-0.37-0.63-0.54-0.96c-0.17-0.32-0.34-0.63-0.51-0.96c-0.16-0.33-0.33-0.65-0.48-0.98c-0.16-0.33-0.32-0.65-0.47-0.99
			c-0.14-0.33-0.3-0.66-0.44-1c-0.13-0.34-0.28-0.67-0.41-1.01c-0.13-0.34-0.27-0.68-0.39-1.02c-0.12-0.35-0.24-0.68-0.36-1.03
			c-0.12-0.35-0.23-0.69-0.34-1.04c-0.11-0.35-0.21-0.69-0.32-1.04c-0.09-0.36-0.19-0.7-0.28-1.06c-0.09-0.35-0.18-0.7-0.27-1.06
			c-0.08-0.35-0.15-0.7-0.22-1.06c-0.07-0.36-0.14-0.71-0.2-1.07c-0.07-0.37-0.12-0.72-0.18-1.08c-0.05-0.36-0.1-0.72-0.15-1.08
			c-0.04-0.36-0.08-0.72-0.12-1.08c-0.03-0.37-0.07-0.72-0.09-1.09c-0.03-0.36-0.05-0.72-0.07-1.09c-0.02-0.37-0.03-0.74-0.04-1.12
			c-0.01-0.38-0.01-0.75-0.01-1.13c0-0.38,0.01-0.75,0.02-1.13c0.01-0.38,0.02-0.75,0.04-1.13c0.02-0.38,0.05-0.75,0.07-1.12
			c0.03-0.38,0.06-0.75,0.1-1.13c0.04-0.38,0.08-0.74,0.13-1.12c0.04-0.38,0.09-0.74,0.15-1.12c0.05-0.37,0.11-0.74,0.18-1.11
			c0.06-0.38,0.13-0.74,0.2-1.11c0.07-0.37,0.15-0.74,0.23-1.11c0.09-0.37,0.17-0.73,0.27-1.09c0.09-0.37,0.19-0.73,0.3-1.1
			c0.1-0.36,0.2-0.72,0.32-1.08c0.11-0.36,0.22-0.72,0.34-1.08c0.12-0.36,0.24-0.71,0.38-1.06c0.12-0.36,0.25-0.71,0.39-1.06
			c0.14-0.36,0.29-0.7,0.43-1.05c0.14-0.35,0.29-0.69,0.45-1.04c0.15-0.35,0.31-0.68,0.47-1.03c0.16-0.34,0.33-0.67,0.5-1.01
			c0.16-0.34,0.34-0.67,0.52-1.01c0.17-0.33,0.36-0.66,0.54-0.99c0.18-0.33,0.38-0.65,0.57-0.98c0.19-0.32,0.4-0.64,0.59-0.96
			c0.2-0.32,0.41-0.63,0.62-0.95c0.2-0.31,0.42-0.62,0.64-0.93c0.21-0.31,0.44-0.61,0.66-0.92c0.22-0.31,0.45-0.6,0.68-0.9
			c0.22-0.3,0.46-0.59,0.7-0.89c0.23-0.29,0.48-0.58,0.72-0.87c0.24-0.29,0.5-0.56,0.75-0.85c1.42-1.58,3.09-3.27,4.85-4.45
			c0.6,0.15,1.1,0.31,1.68-0.02c0.37-0.2,0.63-0.54,0.73-0.95c0.01-0.05,0.02-0.1,0.03-0.14c0.01-0.05,0.01-0.1,0.02-0.15v-0.15
			C137.62,61.77,137.62,61.72,137.61,61.67z M232.14,92.04c-0.32-2.41-0.72-4.88-1.41-7.22c-0.13-0.44-0.27-0.88-0.42-1.32
			c-0.14-0.44-0.29-0.87-0.45-1.29c-0.15-0.44-0.32-0.87-0.49-1.28c-0.17-0.43-0.35-0.86-0.54-1.27c-0.18-0.42-0.37-0.84-0.57-1.25
			c-0.19-0.41-0.4-0.83-0.61-1.23c-0.2-0.41-0.43-0.81-0.64-1.21c-0.22-0.4-0.46-0.8-0.69-1.19c-0.23-0.39-0.48-0.78-0.72-1.17
			s-0.5-0.76-0.75-1.14c-0.27-0.38-0.53-0.75-0.8-1.12c-0.28-0.38-0.55-0.74-0.84-1.1c-0.29-0.37-0.57-0.72-0.87-1.07
			c-0.3-0.36-0.59-0.7-0.9-1.05c-0.31-0.34-0.61-0.67-0.93-1.01c-0.32-0.34-0.63-0.66-0.96-0.99c-0.91-0.9-1.86-1.82-2.87-2.6
			c-0.22-0.17-1.01-0.63-1.07-0.9c-0.14-0.76,0.07-1.59-0.6-2.17c-0.45-0.38-1.2-0.47-1.76-0.44c-0.58,0.19-1.03,0.41-1.34,0.97
			c-0.25,0.46-0.29,1.01-0.13,1.51c0.16,0.53,0.52,1.01,1.02,1.26c0.51,0.27,1.04,0.29,1.58,0.09c0.16-0.06,0.33-0.13,0.48-0.2
			c2.34,1.95,4.58,4.03,6.55,6.37c5.71,6.76,8.94,15.25,9.74,24.03c1.08,11.95-2.93,24.79-10.62,33.99
			c-1.28,1.54-2.67,3.02-4.27,4.24v0.11c0.41-0.06,0.86-0.3,1.23-0.47c2.22-1.04,3.94-2.79,5.41-4.72
			C230.36,117.49,233.75,104.13,232.14,92.04z M133.11,78.81c-5.13,1.94-9.6,3.83-11.99,9.15c-0.38,0.84-0.69,1.69-0.96,2.57
			c-0.23,0.8-1.25,5.05-0.98,5.83l0.16,0.02c4.74-1.28,7.98-3.03,10.53-7.39c0.49-0.85,0.89-1.76,1.23-2.67
			c0.39-1.01,2.25-6.77,2.16-7.48L133.11,78.81z M226.39,84.09c-2.48-2.51-5.66-3.49-8.68-5.1c-0.78-0.42-2.13-1.38-2.91-1.61
			c0.7,1.11,1.42,2.2,1.99,3.38c0.95,1.97,1.5,4.07,2.28,6.1c2.2,5.7,5.91,8.27,11.38,10.48C230.48,92.56,229.92,87.67,226.39,84.09
			z M132.06,92.74l-0.1-0.1c-4.65,4.76-11.08,7.91-10.99,15.52c0.03,1.67,0.36,3.3,0.77,4.92c0.47,0.07,3.44-1.91,3.99-2.3
			c3.57-2.55,5.73-6.38,6.44-10.69C132.47,98.27,132.65,94.48,132.06,92.74z M136.16,114.1c-0.34-1.62-1.93-6.51-3.05-7.7
			c-0.85,1.62-1.95,3.09-2.86,4.67c-1.85,3.16-3.27,7.32-2.14,10.96c0.67,2.18,2.06,4.05,3.82,5.47c0.36,0.27,0.71,0.53,1.08,0.75
			C135.86,123.96,137.22,119.25,136.16,114.1z M228.19,104.54c-1.27-4.14-4.41-6.58-7.32-9.51c-0.9-0.9-1.73-2.06-2.71-2.84
			c-1.12,4.22-1.13,9.72,1.1,13.58c1.99,3.4,5.27,5.79,9.06,6.78C229.24,110.81,228.75,106.39,228.19,104.54z M219.56,111.7
			c-0.61-1.02-1.32-1.98-1.92-3c-0.48-0.84-1.06-2.37-1.62-3.04c-0.02-0.02-0.04-0.04-0.07-0.06c-2.24,5.48-4.03,12.1-1.63,17.83
			c0.73,1.77,1.85,3.47,2.94,5.05c0.43-0.35,0.84-0.7,1.23-1.08c2.09-1.98,3.52-4.3,3.6-7.24
			C222.16,117.15,221.1,114.25,219.56,111.7z M110.09,98.27c-0.17-0.09-0.35-0.18-0.52-0.28c-0.17-0.09-0.36-0.17-0.54-0.25
			c-0.17-0.08-0.36-0.16-0.54-0.23c-0.18-0.08-0.37-0.15-0.55-0.22c-0.18-0.06-0.38-0.13-0.56-0.19c-0.19-0.06-0.38-0.11-0.57-0.17
			c-0.18-0.05-0.38-0.1-0.57-0.15c-0.19-0.04-0.39-0.09-0.58-0.13c-0.19-0.04-0.39-0.07-0.58-0.1c-0.19-0.04-0.39-0.07-0.58-0.09
			c-0.2-0.03-0.4-0.05-0.59-0.06c-0.2-0.02-0.4-0.04-0.59-0.05c-0.2-0.01-0.4-0.02-0.59-0.02h-0.6c-0.19,0-0.39,0.01-0.59,0.02
			c-0.19,0.01-0.39,0.03-0.59,0.05c-1.13,0.1-2.2,0.33-3.29,0.61c4.18,1.15,6.45,3.51,8.72,7.15c1.1,1.75,2.14,3.51,3.62,4.99
			c1.65,1.66,3.74,2.8,5.95,3.54c0.85,0.21,1.68,0.39,2.54,0.54C116.69,106.98,116.47,101.81,110.09,98.27z M123.69,124.64
			c-0.94-1.18-1.82-2.42-2.84-3.53c-2.41-2.61-5.68-4.57-9.27-4.87c-0.95-0.07-2.21-0.16-3.15,0.02c-2.34,0.22-4.23,0.94-6.37,1.85
			c6.92,0.3,8.32,5.97,13.44,8.73c1.85,0.99,3.92,1.4,5.98,1.62c1.88,0.2,3.76,0.31,5.65,0.31
			C125.98,127.39,124.8,126.03,123.69,124.64z M239.19,116.08c-4.28,0.3-8.06,1.93-10.9,5.2c-1.14,1.32-2.05,2.79-3.05,4.21
			c-0.76,1.09-1.62,2.14-2.49,3.15c2.67-0.03,5.86-0.02,8.47-0.54c1.24-0.29,2.39-0.66,3.48-1.35c1.28-0.82,2.28-1.95,3.29-3.06
			c2.92-3.19,5.4-5.3,9.86-5.64C245.18,116.99,242.13,115.8,239.19,116.08z M246.57,96.03c-4.27,0.23-8.06,1.76-10.95,4.99
			c-3.77,4.2-2.8,6.97-4.45,11.68c1.65-0.25,3.24-0.54,4.82-1.11c0.25-0.11,0.52-0.22,0.77-0.35c0.25-0.12,0.5-0.24,0.74-0.39
			c0.24-0.13,0.49-0.29,0.72-0.44c0.23-0.15,0.47-0.31,0.69-0.48c0.22-0.16,0.45-0.34,0.66-0.52c0.21-0.18,0.43-0.38,0.63-0.57
			c0.2-0.19,0.4-0.4,0.58-0.6c0.19-0.21,0.38-0.43,0.55-0.64c0.98-1.22,1.66-2.65,2.44-4.01c1.97-3.39,4.53-6.19,8.56-6.83
			C250.6,96.13,248.43,95.92,246.57,96.03z M112.16,78.35c-2.54-3.31-6.22-5.31-10.36-5.82c-1.08-0.14-2.17-0.13-3.25-0.08
			c3.06,1.49,4.65,3.18,5.78,6.44c0.61,1.75,0.87,3.59,1.37,5.36c1.24,4.39,4.49,7.44,8.51,9.42c0.55,0.27,1.14,0.57,1.74,0.71
			l0.18-0.06l0.04-0.11C116.93,88.5,115.71,82.97,112.16,78.35z M250.11,72.38c-4.71,0.18-9.2,1.91-12.44,5.41
			c-3.11,3.35-4.64,7.72-4.47,12.26c0.05,1.39,0.24,2.77,0.44,4.15l1.02-0.27c3.37-1.08,6.34-3.02,8.01-6.22
			c2.98-5.67,1.67-12.86,9.24-15.32C251.31,72.38,250.72,72.36,250.11,72.38z M173.8,121.02l-0.01-11.45V73.83h-4.23l-0.04,27.58
			c0.04,7.74,0.22,15.53,0.01,23.25c1.37,0.85,2.81,1.54,4.22,2.3C173.94,125.03,173.8,122.96,173.8,121.02z M175.89,73.91
			l0.02,53.3c1.13-0.56,2.26-1.15,3.37-1.75c0.48-0.3,0.98-0.58,1.45-0.91l0.06-50.67C179.16,73.91,177.52,73.91,175.89,73.91z"/>
		<path class="st43" d="M152.83,38.79c-0.1-0.19-0.19-0.31-0.39-0.43c-0.66-0.41-1.49-0.68-2.21-1.01c-1.2-0.55-2.47-1.24-3.72-1.64
			c-0.19-0.05-0.36-0.09-0.56-0.08c-13.22,7.24-24.46,19.04-30.63,32.85c-0.78,1.77-1.72,3.62-2.26,5.48L113,74.12
			c1.98,1.77,3.64,3.67,4.82,6.07l0.61-1.65c0.9-2.3,1.8-4.62,2.85-6.84c0.29-0.59,0.57-1.17,0.86-1.75c0.3-0.58,0.6-1.16,0.91-1.73
			c0.32-0.57,0.63-1.13,0.96-1.69c0.33-0.56,0.66-1.12,1.01-1.67c0.35-0.55,0.69-1.1,1.05-1.64c0.37-0.54,0.73-1.08,1.1-1.61
			c0.38-0.53,0.76-1.06,1.15-1.58c0.39-0.51,0.78-1.03,1.19-1.54c0.41-0.51,0.83-1.01,1.24-1.5c0.42-0.5,0.85-0.99,1.28-1.48
			c0.43-0.48,0.87-0.96,1.32-1.43c0.45-0.47,0.91-0.94,1.37-1.39c0.47-0.46,0.94-0.91,1.41-1.36c0.48-0.44,0.96-0.88,1.45-1.3
			c0.49-0.44,0.98-0.86,1.49-1.27c0.5-0.41,1-0.82,1.52-1.22c2.11-1.66,4.3-3.2,6.6-4.62c0.8-0.49,5.32-2.92,5.57-3.16
			C153.01,39.48,152.98,39.11,152.83,38.79z M219.76,47.91c-1.18-1.19-2.41-2.33-3.68-3.43c-1.26-1.1-2.57-2.15-3.91-3.14
			c-2.81-2.09-5.81-4.14-8.98-5.62c-0.01-0.01-0.01-0.01-0.02-0.01l-6.7,3.09v1.34c0.5,0.23,0.99,0.46,1.48,0.7
			c0.48,0.23,0.97,0.48,1.45,0.73c0.49,0.25,0.97,0.51,1.44,0.77c0.48,0.25,0.95,0.53,1.42,0.81c0.47,0.28,0.94,0.55,1.4,0.84
			c0.46,0.3,0.92,0.58,1.38,0.88c0.45,0.31,0.9,0.6,1.35,0.92c0.45,0.31,0.89,0.62,1.34,0.95c0.44,0.32,0.87,0.64,1.29,0.97
			c0.44,0.34,0.86,0.67,1.28,1.02c0.42,0.34,0.84,0.68,1.25,1.04c0.41,0.35,0.82,0.71,1.22,1.07c0.41,0.37,0.81,0.73,1.2,1.1
			c0.4,0.38,0.78,0.75,1.17,1.14c0.38,0.38,0.76,0.76,1.14,1.16c0.38,0.39,0.74,0.78,1.11,1.18c0.37,0.41,0.72,0.82,1.08,1.22
			c0.36,0.41,0.7,0.83,1.05,1.24c0.35,0.42,0.68,0.85,1.02,1.27c0.34,0.43,0.66,0.86,0.99,1.29c0.33,0.44,0.64,0.88,0.96,1.33
			c0.31,0.44,0.62,0.89,0.92,1.34c0.31,0.46,0.6,0.91,0.89,1.38c0.3,0.46,0.58,0.92,0.86,1.39c0.28,0.47,0.55,0.94,0.82,1.41
			c0.27,0.48,0.53,0.95,0.78,1.43c0.25,0.48,0.5,0.97,0.74,1.46c0.24,0.48,0.48,0.97,0.71,1.46c0.22,0.5,0.45,0.99,0.66,1.49
			c0.22,0.5,0.44,1,0.64,1.5c0.2,0.51,0.4,1.01,0.59,1.52s0.38,1.02,0.56,1.53c0.24,0.67,0.47,1.35,0.68,2.03
			c0.17,0.52,0.34,1.05,0.51,1.57c1.33-2.78,2.6-4.78,4.72-7.02C232.57,64.02,227.62,55.65,219.76,47.91z M221.29,133.33
			c-1.56,0.51-3.66,0.96-5.05,1.78c-0.83,0.49-1.51,1.33-2.2,1.99c-0.53,0.51-1.1,0.99-1.67,1.47c-3,2.52-6.1,4.74-9.48,6.71
			c-16.16,9.36-36.74,9.63-53.42,1.52c-4.41-2.14-8.4-4.83-12.14-8c-1.13-0.96-3.01-3.06-4.11-3.72c-0.67-0.42-1.51-0.69-2.24-0.99
			c-1.52-0.63-3.07-1.19-4.63-1.69c-1.57-0.51-3.16-0.95-4.76-1.33c1.04,1.69,2.29,3.28,3.53,4.83c0.28,0.33,0.55,0.66,0.83,0.99
			c0.28,0.33,0.56,0.64,0.84,0.97c0.29,0.33,0.57,0.64,0.87,0.96c0.29,0.32,0.58,0.62,0.88,0.94c0.3,0.31,0.6,0.61,0.9,0.92
			c0.31,0.31,0.61,0.6,0.92,0.9c0.32,0.3,0.62,0.59,0.94,0.89c0.32,0.29,0.63,0.58,0.95,0.87c0.33,0.28,0.65,0.56,0.98,0.84
			c0.33,0.29,0.65,0.56,0.98,0.83c0.34,0.28,0.67,0.54,1.01,0.81c0.34,0.27,0.67,0.53,1.02,0.78c0.34,0.25,0.68,0.51,1.03,0.76
			c0.35,0.24,0.7,0.5,1.05,0.74c0.36,0.24,0.71,0.48,1.07,0.71c0.36,0.24,0.71,0.47,1.08,0.7c0.36,0.22,0.72,0.46,1.09,0.67
			c0.37,0.22,0.73,0.44,1.1,0.66c0.38,0.21,0.74,0.42,1.12,0.63c0.38,0.2,0.75,0.41,1.13,0.6c0.38,0.2,0.76,0.4,1.14,0.59
			c0.39,0.19,0.77,0.38,1.16,0.56c0.39,0.18,0.77,0.37,1.16,0.54c0.4,0.17,0.78,0.35,1.18,0.52c0.39,0.16,0.78,0.33,1.18,0.49
			c0.4,0.16,0.8,0.32,1.2,0.47c0.4,0.15,0.8,0.3,1.2,0.45c0.41,0.14,0.81,0.28,1.21,0.42c0.41,0.13,0.82,0.27,1.22,0.39
			c0.41,0.13,0.83,0.25,1.23,0.38c0.41,0.11,0.83,0.23,1.24,0.35c0.41,0.1,0.83,0.21,1.24,0.32c0.39,0.09,0.78,0.18,1.18,0.28
			c0.4,0.08,0.8,0.16,1.19,0.24c0.4,0.08,0.8,0.15,1.19,0.22c0.4,0.07,0.8,0.14,1.2,0.2c0.4,0.07,0.8,0.13,1.2,0.18
			c0.4,0.06,0.8,0.11,1.2,0.16c0.4,0.05,0.81,0.09,1.2,0.14c0.41,0.04,0.82,0.07,1.21,0.11c0.41,0.03,0.82,0.06,1.21,0.09
			c0.41,0.03,0.82,0.05,1.21,0.07c0.41,0.02,0.82,0.04,1.22,0.05c0.4,0.01,0.81,0.02,1.21,0.02c0.41,0.01,0.81,0.01,1.21,0.01
			c0.41-0.01,0.82-0.01,1.21-0.02c0.41-0.01,0.82-0.03,1.22-0.04c0.4-0.02,0.81-0.04,1.21-0.07c0.41-0.02,0.81-0.05,1.21-0.08
			c0.4-0.03,0.81-0.07,1.21-0.11c0.4-0.04,0.81-0.08,1.2-0.13c0.41-0.04,0.81-0.09,1.21-0.15c0.4-0.05,0.8-0.11,1.2-0.17
			c0.4-0.06,0.8-0.13,1.19-0.19c0.41-0.07,0.81-0.14,1.2-0.22c0.4-0.08,0.8-0.16,1.19-0.24c0.4-0.08,0.78-0.17,1.18-0.27
			c0.4-0.09,0.8-0.18,1.18-0.29c0.4-0.1,0.78-0.2,1.18-0.31c0.39-0.1,0.77-0.21,1.16-0.33c0.4-0.11,0.78-0.23,1.17-0.36
			s0.76-0.24,1.15-0.37c0.39-0.13,0.77-0.27,1.15-0.4c0.39-0.13,0.76-0.28,1.14-0.42c4.27-1.63,8.25-3.73,12.14-6.11
			c5.75-3.52,11.16-8.64,15.31-13.93c0.99-1.34,2.05-2.65,2.95-4.05C225.74,131.85,223.53,132.6,221.29,133.33z"/>
		<path class="st45" d="M158.36,56.11c-0.22-0.22-0.48-0.41-0.73-0.6c0-0.41-0.02-0.83,0.02-1.23c-1.12-0.13-2.3-0.07-3.44-0.07
			c0.06,0.44,0.13,0.87,0.18,1.3c-0.71,0.53-1.24,1.24-1.36,2.15c-0.1,0.84,0.2,1.77,0.73,2.44c0.03,0.03,0.06,0.07,0.09,0.11
			c0.04,0.04,0.07,0.07,0.11,0.11c0.03,0.04,0.07,0.07,0.11,0.1c0.03,0.04,0.07,0.07,0.11,0.1c0.04,0.03,0.08,0.07,0.12,0.1
			c0.04,0.03,0.08,0.05,0.12,0.08c0.05,0.03,0.09,0.06,0.13,0.08c0.05,0.03,0.09,0.05,0.13,0.07c0.05,0.03,0.09,0.05,0.14,0.07
			s0.09,0.04,0.14,0.06c0.05,0.02,0.09,0.03,0.14,0.05c0.05,0.02,0.1,0.03,0.15,0.04c0.04,0.02,0.09,0.03,0.14,0.04
			s0.1,0.02,0.15,0.03c0.05,0.01,0.1,0.01,0.15,0.02c0.05,0,0.1,0.01,0.15,0.01c0.1,0.01,0.21,0.01,0.32,0.01
			c0.1,0,0.2-0.01,0.32-0.02c0.1-0.02,0.2-0.04,0.31-0.06c0.1-0.02,0.2-0.05,0.31-0.08c0.09-0.04,0.19-0.07,0.29-0.12
			c0.1-0.04,0.19-0.09,0.29-0.14c0.08-0.05,0.17-0.11,0.25-0.17c0.09-0.06,0.17-0.12,0.24-0.19c0.04-0.03,0.08-0.07,0.12-0.1
			c0.03-0.04,0.07-0.08,0.1-0.12c0.04-0.03,0.07-0.07,0.1-0.11c0.04-0.04,0.07-0.08,0.1-0.12c0.03-0.04,0.06-0.09,0.09-0.13
			c0.03-0.04,0.05-0.09,0.08-0.13c0.03-0.04,0.05-0.09,0.07-0.13c0.03-0.05,0.05-0.1,0.07-0.14c0.02-0.05,0.04-0.1,0.06-0.14
			c0.02-0.05,0.04-0.1,0.06-0.15c0.01-0.05,0.03-0.1,0.04-0.15c0.02-0.05,0.03-0.09,0.04-0.15c0.01-0.05,0.02-0.1,0.03-0.15
			c0.01-0.05,0.02-0.1,0.02-0.15c0.01-0.05,0.01-0.1,0.02-0.15c0-0.05,0-0.1,0.01-0.16C159.25,57.39,158.9,56.66,158.36,56.11z
			 M171.62,30.71c-1.12,0.07-2.25,0.17-3.37,0.31c-1.12,0.13-2.24,0.3-3.35,0.5c-1.11,0.2-2.22,0.44-3.32,0.71
			c-1.26,0.32-2.49,0.75-3.74,1.11c-0.46,0.13-1.06,0.3-1.48,0.01c-0.19-0.13-0.31-0.34-0.34-0.56c-0.04-0.32,0.11-0.61,0.33-0.84
			c0.69-0.73,2.21-0.96,3.16-1.21c5.38-1.43,10.6-2.13,16.17-2.12c-0.22-0.02-0.43-0.02-0.63-0.14c-0.13-1.26-0.03-2.61-0.03-3.88
			c0.02-2.73,0-5.46-0.04-8.2c-6.83,3.26-13.78,6.33-20.69,9.42c-3.71,1.66-7.38,3.47-11.14,5.02c3.08,1.33,6.15,2.7,9.2,4.11
			c0.98,0.45,2.39,0.93,3.25,1.49c0.34,0.11,0.67,0.2,0.95,0.43c1.75,0.69,3.43,1.54,5.14,2.32l8.93,4.12
			c0.94,0.44,3.58,1.82,4.42,1.95c-0.15-4.86-0.01-9.77,0-14.63C173.88,30.62,172.75,30.65,171.62,30.71z M175,49.03
			c0-1.03,0.08-2.12-0.06-3.13c-1.77-0.57-3.55-1.54-5.26-2.31c-3.29-1.49-6.6-2.95-9.84-4.55c0.03,3.34,0.04,6.68,0.03,10.02
			c-0.01,2.08,0.11,4.25-0.15,6.32c0.72,1.2,1.12,2.47,0.75,3.88c-0.02,0.08-0.04,0.15-0.07,0.22c-0.02,0.07-0.04,0.14-0.07,0.21
			c-0.03,0.06-0.05,0.13-0.08,0.2c-0.03,0.07-0.06,0.14-0.1,0.2c-0.03,0.07-0.06,0.13-0.1,0.2c-0.04,0.06-0.07,0.12-0.11,0.19
			c-0.04,0.06-0.08,0.12-0.13,0.18c-0.04,0.06-0.08,0.12-0.13,0.18c-0.04,0.06-0.09,0.11-0.14,0.17c-0.05,0.06-0.1,0.11-0.15,0.16
			c-0.05,0.06-0.1,0.11-0.16,0.16c-0.05,0.05-0.1,0.1-0.16,0.15c-0.06,0.04-0.11,0.09-0.17,0.14c-0.06,0.04-0.12,0.08-0.18,0.13
			c-0.06,0.04-0.12,0.08-0.19,0.12c-0.06,0.04-0.12,0.07-0.19,0.11c-0.65,0.37-1.34,0.5-2.07,0.6c0.86,5.48,3.05,10.8,6.88,14.88
			c1.01,1.07,2.14,2.01,3.27,2.95c-2.2,2.9-5.11,4.85-8.75,5.36c-1.61,0.22-3.32,0.1-4.95,0.1c-3.16-0.01-6.34-0.08-9.5,0.03
			c0,3.11-0.14,6.28,0.13,9.38c0.58,6.42,3.36,12.43,7.44,17.36c1.75,2.11,3.73,4.08,5.62,6.08l8.74,9.12
			c1.3,1.37,2.56,2.83,3.89,4.17c0.05,0.04,0.09,0.08,0.13,0.12c-0.64-1.55-1.42-3.42-1.53-5.1c-0.13-2.06-0.02-4.19-0.02-6.26
			l0.01-11.17l-0.02-35.94c0-2.54,0.13-5.17-0.02-7.7c-0.06-1.01-0.5-1.96-0.5-2.97c-0.01-0.56,0.13-1.13,0.35-1.64
			c0.35-0.82,0.97-1.41,1.8-1.7c0.32-0.11,0.65-0.17,0.98-0.24c0.29-1.42,1.23-2.49,2.41-3.26c0.74-0.5,1.54-0.78,2.44-0.81
			C174.97,53.28,175.01,51.15,175,49.03z"/>
		<path class="st43" d="M157.59,52.57c-0.25-0.41-0.62-0.49-1.06-0.58l-0.03-9.86c0-1.75-0.05-3.52,0.02-5.27
			c-0.28-0.22-0.61-0.32-0.95-0.43l0.01,15.53c-0.48,0.09-0.98,0.18-1.27,0.61c-0.31,0.46-0.15,1.12-0.09,1.63
			c1.13,0,2.31-0.06,3.44,0.07C157.75,53.73,157.89,53.07,157.59,52.57z M174.96,16.4c0.04,2.73,0.06,5.46,0.04,8.2
			c0,1.27-0.1,2.62,0.03,3.88c0.2,0.12,0.41,0.12,0.63,0.14c0.66,0.01,1.34,0.02,2,0.05c0.66,0.02,1.33,0.06,1.98,0.11
			c0.66,0.05,1.33,0.11,1.99,0.18c0.65,0.07,1.32,0.16,1.97,0.25c0.66,0.1,1.32,0.2,1.97,0.33c0.65,0.12,1.3,0.25,1.95,0.4
			c0.65,0.14,1.29,0.3,1.94,0.46c0.64,0.17,1.28,0.35,1.92,0.53c0.66,0.2,1.79,0.39,2.28,0.9c0.17,0.18,0.3,0.43,0.31,0.68
			c0.01,0.32-0.16,0.65-0.42,0.85c-0.23,0.18-0.49,0.17-0.77,0.13c-1.3-0.21-2.6-0.85-3.91-1.14c-4.58-1.04-9.13-1.71-13.83-1.73
			c-0.01,4.86-0.15,9.77,0,14.63c7.84-3.56,15.66-7.18,23.44-10.86c2.62-1.24,5.3-2.41,7.87-3.72
			C195.91,25.82,185.45,21.07,174.96,16.4z M206.33,86.15c-2.66-0.04-5.32,0-7.98,0c-2.03,0-4.15,0.1-6.15-0.33
			c-3.31-0.72-6.39-2.93-8.21-5.78c0.81-0.57,1.53-1.24,2.21-1.94c2.92-2.97,6.34-7.3,7.41-11.36c0.82-3.08-0.33-5.85-0.39-8.91
			c-0.12-6.76,0.09-13.54,0.02-20.31c-6.06,2.87-12.14,5.75-18.31,8.37c0.14,1.01,0.06,2.1,0.06,3.13c0.01,2.12-0.03,4.25,0.03,6.38
			c0.09,0.03,0.19,0.06,0.29,0.09c1.13,0.38,1.6,1.06,2.1,2.08c0.65-0.06,1.46-0.07,2.05,0.25c0.48,0.26,0.8,1.16,0.92,1.67
			c0.86,0.28,1.48,0.63,1.93,1.45c0.41,0.74,0.64,1.74,0.66,2.59c0.02,0.86-0.24,1.69-0.32,2.54c-0.1,1.21-0.04,2.48-0.04,3.69
			l-0.02,26.53l-0.04,20.28v6.75c0,1.25,0.06,2.54-0.04,3.78c-0.13,1.66-1.04,3.21-1.54,4.79c4.47-4.89,9-9.73,13.59-14.5
			c1.21-1.27,2.48-2.51,3.67-3.79c4.25-4.59,7.31-10.68,8.01-16.92C206.64,93.23,206.46,89.63,206.33,86.15z"/>
	</g>
</g>
</svg>
