<?xml version="1.0" encoding="utf-8"?>
<!-- Generator: Adobe Illustrator 27.8.1, SVG Export Plug-In . SVG Version: 6.00 Build 0)  -->
<svg version="1.1" xmlns="http://www.w3.org/2000/svg" xmlns:xlink="http://www.w3.org/1999/xlink" x="0px" y="0px"
	 viewBox="0 0 350 230" style="enable-background:new 0 0 350 230;" xml:space="preserve">
<style type="text/css">
	.st0{fill:#FF7F00;}
	.st1{fill:#893700;}
	.st2{fill:#29ABE2;}
	.st3{fill:#F2C0AA;}
	.st4{fill:#1C75BC;}
	.st5{fill:#FFC200;}
	.st6{fill:#911717;}
	.st7{fill:#C1272D;}
	.st8{fill:#F7931E;}
	.st9{fill:#2D828E;}
	.st10{fill:#93BC20;}
	.st11{fill:#CC781D;}
	.st12{fill:#FF5500;}
	.st13{fill:#C4C400;}
	.st14{fill:#017F6A;}
	.st15{fill:#0092FF;}
	.st16{fill:#09578C;}
	.st17{fill:#3B9FE2;}
	.st18{fill:#BE1E2D;}
	.st19{fill:#231F20;}
	.st20{fill:#FF9D00;}
	.st21{fill:#F15A29;}
	.st22{fill:#E5E6C6;}
	.st23{fill:#E5D7C7;}
	.st24{fill:#DCF7FF;}
	.st25{fill:#E2E5C7;}
	.st26{fill:#FDFFDC;}
	.st27{fill:#D3D3AE;}
	.st28{fill:#FFFFDE;}
	.st29{fill:#FFE5CC;}
	.st30{fill:#D4EEB8;}
	.st31{fill:#00406B;}
	.st32{fill:url(#SVGID_1_);}
	.st33{fill:#FDFDFC;}
	.st34{fill:url(#SVGID_00000123411999759871087760000007643876347337109122_);}
	.st35{fill:#372E2D;}
	.st36{fill:#2390BA;}
	.st37{fill:url(#SVGID_00000023278042551761872640000002352518740687996316_);}
	.st38{fill:url(#SVGID_00000075876523288881764480000015677907864064812462_);}
	.st39{fill:#1C2849;}
	.st40{fill:#162C33;}
	.st41{fill:#172E34;}
	.st42{fill:#F7FBFC;}
	.st43{fill:#212655;}
	.st44{fill:url(#SVGID_00000173143170742473610050000011820835944851993259_);}
	.st45{fill:#465A9B;}
	.st46{fill:#F3A75E;}
	.st47{fill:url(#SVGID_00000086659462955284305860000008733232723284065171_);}
	.st48{fill:#E66546;}
	.st49{fill:url(#SVGID_00000095311025924109615530000002900973759651433624_);}
	.st50{fill:url(#SVGID_00000012447806436871858270000008443678625787559339_);}
	.st51{fill:#68488A;}
	.st52{fill:url(#SVGID_00000083055235259767395170000014365651601007944113_);}
	.st53{fill:#1C375E;}
	.st54{fill:#02A4F7;}
	.st55{fill:#062768;}
	.st56{fill:#0F6AAD;}
	.st57{fill:#FEFEFE;}
	.st58{fill:#2F92AA;}
	.st59{fill:#F99F0D;}
	.st60{fill:#EB473F;}
	.st61{fill:url(#SVGID_00000140726267937236024860000015748214326321518763_);}
	.st62{fill:#FDFDFD;}
	.st63{fill:#1A313F;}
	.st64{fill:url(#SVGID_00000044861669665275982170000008150728168894030475_);}
	.st65{fill:url(#SVGID_00000119824114806349165230000014509183136164663721_);}
	.st66{fill:#0E5490;}
	.st67{fill:#71B7CB;}
	.st68{fill:#543450;}
	.st69{fill:#F7872D;}
	.st70{fill:#0F2257;}
	.st71{fill:#F98F34;}
	.st72{fill:#1E5D95;}
	.st73{fill:url(#SVGID_00000096020265324070315330000017089123651565309849_);}
	.st74{fill:#1B3A6A;}
	.st75{fill:#F3682F;}
	.st76{fill:#DD3136;}
	.st77{fill:#2587C3;}
</style>
<g id="Logo1">
</g>
<g id="Logo2">
</g>
<g id="Logo3">
</g>
<g id="Logo4">
</g>
<g id="Logo5">
</g>
<g id="Logo6">
</g>
<g id="Logo7">
</g>
<g id="Logo8">
</g>
<g id="Logo9">
</g>
<g id="Logo10">
</g>
<g id="Logo11">
</g>
<g id="Logo12">
</g>
<g id="Layer_13">
</g>
<g id="Layer_14">
</g>
<g id="Layer_15">
	<radialGradient id="SVGID_1_" cx="175" cy="93.2859" r="68.4789" gradientUnits="userSpaceOnUse">
		<stop  offset="0" style="stop-color:#FFFFFF"/>
		<stop  offset="0.0323" style="stop-color:#DCE1E5"/>
		<stop  offset="0.0765" style="stop-color:#B3BDC7"/>
		<stop  offset="0.1262" style="stop-color:#8D9DAC"/>
		<stop  offset="0.1803" style="stop-color:#6D8194"/>
		<stop  offset="0.2401" style="stop-color:#516980"/>
		<stop  offset="0.3076" style="stop-color:#3B5670"/>
		<stop  offset="0.3864" style="stop-color:#2A4864"/>
		<stop  offset="0.4838" style="stop-color:#1F3D5B"/>
		<stop  offset="0.6205" style="stop-color:#183856"/>
		<stop  offset="1" style="stop-color:#163655"/>
	</radialGradient>
	<path class="st32" d="M131.17,42.98c0,5.78-0.01,11.4,0.02,17.02c0,0.3,0.29,0.61,0.46,0.9c0.29,0.48,0.52,1.01,0.9,1.41
		c1.39,1.45,0.65,3.02,0.56,4.67c-0.1,1.84,0.6,3.71,0.85,5.57c0.14,1.01,0.17,2.05,0.07,3.07c-0.25,2.51-1.99,4.2-4.27,4.28
		c-2.05,0.07-4.03-1.57-4.26-3.98c-0.17-1.81,0.15-3.67,0.33-5.49c0.1-0.98,0.45-1.93,0.51-2.9c0.05-0.68-0.2-1.38-0.31-2.07
		c-0.07-0.47-0.32-1.03-0.15-1.39c0.46-1,1.12-1.91,1.65-2.89c0.33-0.61,0.78-1.26,0.79-1.9c0.07-5.42,0.04-10.83,0.08-16.25
		c0.01-0.72-0.27-1.01-0.91-1.19c-2.33-0.64-4.65-1.32-6.98-1.99c-0.43-0.12-0.91-0.21-1.27-0.45c-0.44-0.3-1.1-0.78-1.07-1.13
		c0.04-0.47,0.57-1.03,1.04-1.29c0.86-0.46,1.81-0.76,2.75-1.07c17.2-5.69,34.41-11.38,51.62-17.05c3.78-1.24,7.59-2.37,11.35-3.66
		c1.57-0.54,2.93-0.37,4.35,0.36c4.55,2.35,9.13,4.65,13.69,7c8.93,4.6,17.85,9.22,26.78,13.83c0.25,0.13,0.54,0.24,0.74,0.43
		c0.47,0.44,0.91,0.93,1.35,1.39c-0.56,0.43-1.05,1.05-1.68,1.26c-3.55,1.15-7.12,2.21-10.69,3.29c-3.29,1-6.58,1.99-10,3.02
		c0.32,1.46,0.73,2.83,0.9,4.23c0.24,1.99,0.36,4,0.43,6.01c0.05,1.41,0.63,2.28,1.87,3.03c6.32,3.82,6.6,13.16,0.35,16.81
		c-1.9,1.11-2.35,2.1-2.12,4.07c0.17,1.44-0.02,2.96-0.3,4.4c-0.24,1.25-0.14,2.27,0.59,3.34c3.51,5.17,3.88,10.83,2.55,16.75
		c-0.09,0.4-0.06,0.93,0.13,1.29c2.67,4.95,2.78,10.3,2.46,15.71c-0.06,0.93,0.17,1.32,1.05,1.71c2.85,1.25,5.67,2.58,8.44,4.01
		c3.01,1.56,3.39,2.91,1.74,5.84c-4.08,7.23-9.15,13.68-15.04,19.54c-7.02,7-14.99,12.73-23.35,17.99
		c-2.29,1.44-4.48,1.57-6.97,0.42c-17.77-8.12-34.23-18.26-48.5-31.71c-3.19-3.01-6.15-6.26-9.15-9.45
		c-1.36-1.45-1.36-2.34,0.26-3.46c3.4-2.36,6.88-4.6,10.43-6.72c2.46-1.47,5.11-2.62,7.64-3.97c0.54-0.29,1.06-0.77,1.37-1.3
		c2.88-5.01,5.79-10.01,8.51-15.11c0.61-1.15,0.55-2.67,0.71-4.02c0.02-0.21-0.39-0.55-0.68-0.72c-2.57-1.53-4.35-3.57-4.64-6.7
		c-0.04-0.46-0.39-1.01-0.76-1.29c-4.77-3.5-6.4-8.61-4.26-14.22c0.61-1.61,0.65-2.76-0.22-4.35c-1.61-2.95-1.36-6.04,0.82-8.75
		c0.68-0.84,0.96-1.69,1.06-2.77c0.23-2.61,0.58-5.21,1.03-7.79c0.19-1.09-0.07-1.53-1.11-1.82c-4.26-1.19-8.51-2.44-12.76-3.66
		C131.74,43.06,131.54,43.04,131.17,42.98z M197.14,138.64c5.33-2.68,8.06-6.93,8.82-12.34c1.53-10.99-3.26-19.4-11.34-26.29
		c-1.34-1.14-3.03-1.63-4.82-1.54c-2.26,0.11-3.47,1.24-3.73,3.46c-0.24,1.99-0.08,3.96,0.79,5.78c0.81,1.7,1.71,3.36,2.66,4.98
		c1.57,2.69,3.42,5.23,4.79,8.02c2.74,5.58,1.86,11.39-2.81,15.44c-0.1,0.09-0.17,0.22-0.26,0.33c0.38,0,0.67-0.13,0.93-0.28
		c4.98-2.94,6.81-7.41,6.33-13.01c-0.38-4.47-2.29-8.43-4.07-12.44c-0.17-0.37-0.34-0.75-0.5-1.12c3.11,3.23,5.66,6.78,6.96,11.06
		c1.93,6.35,1.37,12.24-3.32,17.33C197.46,138.13,197.39,138.27,197.14,138.64z M166.91,64.24c0.04,0.1,0.07,0.2,0.11,0.3
		c2.55-0.38,5.09-0.8,7.65-1.12c1.11-0.14,1.74-0.65,2.21-1.64c1.64-3.49,4.41-5.49,8.28-5.63c3.93-0.14,6.66,1.9,8.55,5.22
		c0.28,0.49,0.55,0.99,0.9,1.6c1.71-1.12,3.46-0.97,5.27-0.52c0.31,0.08,0.9-0.29,1.11-0.62c1.05-1.61,2.52-2.67,4.25-3.41
		c0.83-0.35,2.1-0.49,2.38-1.09c0.33-0.7-0.22-1.8-0.38-2.73c-0.02-0.12,0-0.28-0.07-0.36c-0.26-0.31-0.51-0.78-0.85-0.88
		c-8.66-2.5-17.44-4.23-26.49-4.51c-2.44-0.07-4.14,0.95-5.29,2.9c-1.05,1.8-1.76,3.79-2.81,5.59c-1.15,1.97-2.5,3.82-3.78,5.71
		C167.66,63.5,167.26,63.85,166.91,64.24z M193.14,78.37c-0.65,2.03-0.57,2.18,1.41,2.22c1.89,0.04,3.77-0.02,5.66-0.05
		c1.48-0.03,1.7-0.21,1.42-1.66c-0.68-3.58-1.49-7.14-2.16-10.73c-0.22-1.21-0.7-1.99-1.96-2.14c-1.02-0.12-2.11,0.62-2.57,1.75
		c-0.23,0.57-0.34,1.18-0.54,1.76c-2.01,5.92-8.31,7.97-13.02,5.43c-2.75-1.48-4.43-3.82-5.18-6.85c-0.1-0.43-0.58-1.12-0.82-1.1
		c-2.59,0.27-5.17,0.66-7.99,1.05c1.72,6.43,5.05,11.18,11.85,13.25c-1.23,1.61-2.35,3.06-3.52,4.59c2.8,0.04,5.12-1.03,7.43-2.23
		c1.52-0.79,3.13-1.42,4.66-2.19c0.58-0.29,1.21-0.68,1.55-1.2C190.24,78.92,191.5,78.51,193.14,78.37z M165.94,140.04
		c2.49-2.58,4.85-5.03,7.2-7.49c1.42-1.49,1.43-1.53-0.21-2.85c-6.64-5.39-12.49-11.49-17.14-18.7c-0.85-1.32-1.7-2.65-2.6-4.05
		c-0.24,0.35-0.39,0.54-0.52,0.75c-0.58,0.94-1.25,1.84-1.71,2.84c-0.26,0.56-0.38,1.35-0.19,1.92
		C154.21,122.46,160.12,131.11,165.94,140.04z M175.19,102.37c-0.08,0.54-0.19,1.08-0.23,1.62c-0.44,5.99,1.57,11.11,5.54,15.53
		c1.7,1.89,3.39,3.79,5.09,5.68c1.57,1.76,2.19,3.85,1.9,6.15c-0.13,1.01-0.58,1.98-0.89,3.02c2.89-1.88,4.37-4.47,4.24-7.93
		c-0.1-2.7-0.9-5.2-2.55-7.32c-1.76-2.26-3.63-4.45-5.57-6.56C179.85,109.45,176.99,106.36,175.19,102.37z M145.2,118.88
		c0.78,3.94,1.76,7.84,3.57,11.44c1.79,3.55,3.87,6.95,5.94,10.62c-1.87-1.67-3.59-3.19-5.3-4.71c5.68,9.6,14.09,16.3,23.18,22.25
		C162.2,146.15,152.12,133.62,145.2,118.88z M191.45,66.31c0-3.67-2.7-6.6-6.05-6.58c-3.24,0.02-5.7,2.75-5.69,6.3
		c0.02,3.48,2.71,6.3,6.06,6.31C188.85,72.36,191.46,69.59,191.45,66.31z M180.75,103.68c0.08-0.58,0.12-0.85,0.15-1.12
		c0.51-5.21,3.28-8.78,7.96-10.96c0.89-0.41,1.81-0.77,2.7-1.18c0.85-0.39,1.82-0.67,2.5-1.27c0.61-0.54,1.29-1.47,1.23-2.17
		c-0.06-0.7-0.89-1.66-1.59-1.89c-1.2-0.39-2.6-0.57-3.83-0.36C182.63,85.97,176.14,94.43,180.75,103.68z M202.96,67.69
		c0.01,2.05,1.01,3.97,3.1,5.24c1.74,1.05,3.55,0.88,5.25-0.12c2.25-1.32,2.86-3.47,2.64-5.91c-0.3-3.3-2.84-5.58-5.97-5.45
		C205.23,61.58,203.03,64.13,202.96,67.69z M209.49,129.55c0.34-0.54,0.49-0.76,0.62-0.99c2.52-4.52,3.07-9.41,2.44-14.42
		c-0.66-5.25-3.2-9.58-7.16-13.07c-1.27-1.12-2.77-1.41-4.58-1.13c0.34,0.7,0.55,1.27,0.88,1.78c0.98,1.52,1.97,3.02,3,4.5
		C209.58,113.17,211.28,120.82,209.49,129.55z M175.07,91.85c-2.73,1.56-4.94,3.58-6.25,6.44c-3.26,7.13-1.13,17.29,4.78,22.95
		c1.91,1.83,4.12,3.15,6.54,4.2C169.42,115.61,167.55,104.48,175.07,91.85z M177.56,156.56c0.13-0.02,0.27-0.03,0.4-0.05
		c0.47-3.18,0.96-6.36,1.41-9.54c0.04-0.29-0.06-0.69-0.25-0.91c-1.87-2.16-3.77-4.29-5.66-6.43c-1.44,1.42-2.76,2.77-4.14,4.05
		c-0.62,0.58-0.57,1.01-0.09,1.65c2.49,3.36,4.93,6.75,7.4,10.12C176.92,155.84,177.25,156.19,177.56,156.56z M203.04,39.74
		c-9.03-3.87-18.43-3.66-28.03-2.56c4.15,0.49,8.15,0.97,12.16,1.44c-0.01,0.15-0.03,0.3-0.04,0.45c-3.15,0.28-6.31,0.56-9.46,0.84
		c0,0.05,0,0.11,0,0.16c8.78,0.85,17.56,1.71,26.34,2.56c0.01-0.1,0.03-0.2,0.04-0.3c-1.75-0.77-3.5-1.55-5.24-2.32
		c0.03-0.09,0.06-0.18,0.09-0.26C200.27,39.74,201.66,39.74,203.04,39.74z M189.02,160.19c0.16,0.02,0.32,0.03,0.47,0.05
		c1.58-3.64,3.16-7.27,4.7-10.92c0.12-0.28,0.06-0.78-0.13-1.01c-1.69-2.08-3.43-4.12-5.25-6.28c-0.86,1.17-1.71,2.09-2.28,3.16
		c-0.39,0.73-0.63,1.7-0.53,2.5c0.21,1.62,0.68,3.2,1.07,4.79C187.72,155.06,188.37,157.63,189.02,160.19z M162.8,105.37
		c0.29-1.57,0.48-2.83,0.77-4.07c0.95-4.07,2.06-8.1,2.86-12.2c0.66-3.33,0.68-6.72-0.07-10.14c-1.75,3.92-3.55,7.82-4.9,11.87
		C159.85,95.69,160.76,100.46,162.8,105.37z M196.91,157.76c7.8-6.63,13.51-14.54,16.39-24.76c-0.37,0.33-0.51,0.42-0.6,0.54
		c-1.79,2.55-3.99,4.66-6.62,6.34c-0.48,0.3-0.84,0.89-1.09,1.42c-1.05,2.31-1.93,4.7-3.06,6.97
		C200.37,151.45,198.63,154.54,196.91,157.76z M146.97,61.22c2.49,2.75,6.98,3.88,11.22,2.7c5.6-1.57,9.18-5.48,11.72-10.84
		C162.91,57.86,155.78,61.52,146.97,61.22z M168.64,43.51c12.7,0.4,25.19,2.36,37.7,4.34c-0.13-0.26-0.29-0.4-0.46-0.46
		c-3.61-1.29-7.16-2.86-10.87-3.8c-6.47-1.65-13.1-1.21-19.69-0.69C173.1,43.07,170.87,43.3,168.64,43.51z M210.41,99.53
		c0-1.35,0.14-2.71-0.03-4.03c-0.44-3.45-1.87-6.42-4.72-8.56c-1.09-0.82-2.31-1.21-3.69-0.83c-1.57,0.43-2.05,1.71-1.02,2.98
		c0.51,0.63,1.14,1.19,1.82,1.63C206.19,92.89,208.99,95.59,210.41,99.53z M158.93,83.05c-0.1-0.11-0.14-0.19-0.21-0.23
		c-0.21-0.13-0.42-0.25-0.64-0.36c-2.63-1.25-4.15-3.41-4.87-6.15c-0.68-2.57,0.88-4.5,3.51-4.47c0.78,0.01,1.56,0.11,2.33,0.08
		c0.33-0.01,0.85-0.19,0.92-0.41c0.1-0.31-0.03-0.83-0.26-1.08c-0.31-0.34-0.8-0.68-1.23-0.7c-1.34-0.08-2.71-0.17-4.02,0.04
		c-1.82,0.29-2.92,1.53-3.41,3.31c-1.07,3.81,1.12,8.79,4.66,10.59C157.03,84.35,157.76,84.22,158.93,83.05z M170.27,49.27
		c-5.95,0.61-11.87,1.36-17.25,4.31C159.66,55.81,164.91,52.33,170.27,49.27z M203.84,96.68c0.06-0.11,0.11-0.22,0.17-0.33
		c-1.84-1.09-3.66-2.22-5.53-3.25c-0.43-0.24-1.06-0.27-1.56-0.19c-2.65,0.38-5.04,1.5-7.36,2.88
		C194.32,96.08,199.08,96.38,203.84,96.68z M202.49,36.57c-7.2-3.07-14.74-3.73-22.47-2.95C187.5,34.6,195,35.58,202.49,36.57z
		 M204.23,76c0.23,1.56,0.54,3,0.62,4.45c0.1,1.91,0.53,2.57,2.57,3.09c0.37-1.98,0.46-3.92-0.06-5.87
		c-0.06-0.23-0.36-0.46-0.6-0.58C205.97,76.72,205.15,76.39,204.23,76z"/>
</g>
</svg>
