<?xml version="1.0" encoding="utf-8"?>
<!-- Generator: Adobe Illustrator 27.8.1, SVG Export Plug-In . SVG Version: 6.00 Build 0)  -->
<svg version="1.1" xmlns="http://www.w3.org/2000/svg" xmlns:xlink="http://www.w3.org/1999/xlink" x="0px" y="0px"
	 viewBox="0 0 350 230" style="enable-background:new 0 0 350 230;" xml:space="preserve">
<style type="text/css">
	.st0{fill:#FF7F00;}
	.st1{fill:#893700;}
	.st2{fill:#29ABE2;}
	.st3{fill:#F2C0AA;}
	.st4{fill:#1C75BC;}
	.st5{fill:#FFC200;}
	.st6{fill:#911717;}
	.st7{fill:#C1272D;}
	.st8{fill:#F7931E;}
	.st9{fill:#2D828E;}
	.st10{fill:#93BC20;}
	.st11{fill:#CC781D;}
	.st12{fill:#FF5500;}
	.st13{fill:#C4C400;}
	.st14{fill:#017F6A;}
	.st15{fill:#0092FF;}
	.st16{fill:#09578C;}
	.st17{fill:#3B9FE2;}
	.st18{fill:#BE1E2D;}
	.st19{fill:#231F20;}
	.st20{fill:#FF9D00;}
	.st21{fill:#F15A29;}
	.st22{fill:#E5E6C6;}
	.st23{fill:#E5D7C7;}
	.st24{fill:#DCF7FF;}
	.st25{fill:#E2E5C7;}
	.st26{fill:#FDFFDC;}
	.st27{fill:#D3D3AE;}
	.st28{fill:#FFFFDE;}
	.st29{fill:#FFE5CC;}
	.st30{fill:#D4EEB8;}
	.st31{fill:#00406B;}
	.st32{fill:url(#SVGID_1_);}
	.st33{fill:#FDFDFC;}
	.st34{fill:url(#SVGID_00000062900463633147720690000015595231224999658637_);}
	.st35{fill:#372E2D;}
	.st36{fill:#2390BA;}
	.st37{fill:url(#SVGID_00000005245731596283947040000009296885713434835597_);}
	.st38{fill:url(#SVGID_00000087394624003063987940000002513025469447257728_);}
	.st39{fill:#1C2849;}
	.st40{fill:#162C33;}
	.st41{fill:#172E34;}
	.st42{fill:#F7FBFC;}
	.st43{fill:#212655;}
	.st44{fill:url(#SVGID_00000023964978437355127910000008317116677548297106_);}
	.st45{fill:#465A9B;}
	.st46{fill:#F3A75E;}
	.st47{fill:url(#SVGID_00000078762134435318950920000011315582870396480947_);}
	.st48{fill:#E66546;}
	.st49{fill:url(#SVGID_00000013879557127502802130000004623821577255218595_);}
	.st50{fill:url(#SVGID_00000180360152856850054880000005981118292852525235_);}
	.st51{fill:#68488A;}
	.st52{fill:url(#SVGID_00000138535993142079419390000007101718040284797887_);}
	.st53{fill:#1C375E;}
	.st54{fill:#02A4F7;}
	.st55{fill:#062768;}
	.st56{fill:#0F6AAD;}
	.st57{fill:#FEFEFE;}
	.st58{fill:#2F92AA;}
	.st59{fill:#F99F0D;}
	.st60{fill:#EB473F;}
	.st61{fill:url(#SVGID_00000151523756186062691620000003111428492405385603_);}
	.st62{fill:#FDFDFD;}
	.st63{fill:#1A313F;}
	.st64{fill:url(#SVGID_00000096037663873559025680000014843338335903520179_);}
	.st65{fill:url(#SVGID_00000155846922338278082410000009673870310553226937_);}
	.st66{fill:#0E5490;}
	.st67{fill:#71B7CB;}
	.st68{fill:#543450;}
	.st69{fill:#F7872D;}
	.st70{fill:#0F2257;}
	.st71{fill:#F98F34;}
	.st72{fill:#1E5D95;}
	.st73{fill:url(#SVGID_00000109730286011507573850000004750736887623213953_);}
	.st74{fill:#1B3A6A;}
	.st75{fill:#F3682F;}
	.st76{fill:#DD3136;}
	.st77{fill:#2587C3;}
</style>
<g id="Logo1">
</g>
<g id="Logo2">
</g>
<g id="Logo3">
</g>
<g id="Logo4">
</g>
<g id="Logo5">
</g>
<g id="Logo6">
</g>
<g id="Logo7">
</g>
<g id="Logo8">
</g>
<g id="Logo9">
</g>
<g id="Logo10">
</g>
<g id="Logo11">
</g>
<g id="Logo12">
</g>
<g id="Layer_13">
</g>
<g id="Layer_14">
</g>
<g id="Layer_15">
	<radialGradient id="SVGID_1_" cx="175" cy="94.1531" r="69.5903" gradientUnits="userSpaceOnUse">
		<stop  offset="0" style="stop-color:#FFFFFF"/>
		<stop  offset="7.380247e-03" style="stop-color:#F6F6F6"/>
		<stop  offset="0.0477" style="stop-color:#C8C8C8"/>
		<stop  offset="0.0931" style="stop-color:#9D9D9D"/>
		<stop  offset="0.1419" style="stop-color:#777777"/>
		<stop  offset="0.195" style="stop-color:#575757"/>
		<stop  offset="0.2537" style="stop-color:#3B3B3B"/>
		<stop  offset="0.32" style="stop-color:#252525"/>
		<stop  offset="0.3974" style="stop-color:#141414"/>
		<stop  offset="0.4931" style="stop-color:#090909"/>
		<stop  offset="0.6274" style="stop-color:#020202"/>
		<stop  offset="1" style="stop-color:#000000"/>
	</radialGradient>
	<path class="st32" d="M141.67,105.36c3.02-0.93,5.8-1.77,8.58-2.64c3.39-1.07,6.78-2.16,9.87-3.96c4.04-2.35,6.76-5.71,7.74-10.36
		c0.02-0.08,0.06-0.15,0.15-0.38c4.66,4.18,9.4,4.49,14.23,0.15c0.6,2.38,1.65,4.39,3.05,6.23c2.39,3.14,5.57,5.21,9.23,6.44
		c4.4,1.48,8.87,2.71,13.32,4.05c0.29,0.09,0.58,0.17,0.97,0.28c-5.51,9.17-11.54,17.95-16.5,27.45c1.46-0.61,2.92-1.21,4.37-1.84
		c9.41-4.07,16.94-10.36,22.47-19.01c0.15-0.24,0.4-0.51,0.66-0.58c3.89-1.05,7.72-2.23,11.19-4.37c0.07,0.05,0.14,0.09,0.22,0.14
		c-0.9,2.66-1.69,5.38-2.73,7.99c-5.85,14.64-15.67,25.86-29.27,33.81c-4.61,2.7-9.34,5.24-13.47,8.67
		c-1.97,1.64-3.81,3.46-5.55,5.35c-2.55,2.77-4.12,6.1-4.93,9.87c-0.41-1.32-0.73-2.56-1.18-3.75c-1.74-4.56-4.87-8.06-8.6-11.07
		c-3.76-3.03-7.93-5.46-12.12-7.82c-6.54-3.69-12.66-7.92-17.89-13.37c-7.89-8.22-12.92-17.98-15.7-28.96
		c-0.03-0.1-0.01-0.22-0.02-0.32c1.49,0.67,2.92,1.46,4.43,1.97c1.82,0.62,3.72,0.98,5.57,1.51c0.38,0.11,0.8,0.39,1.02,0.72
		c3.34,5.15,7.42,9.6,12.36,13.25c3.98,2.94,8.28,5.32,12.84,7.24c0.72,0.3,1.44,0.61,2.15,0.92c0.07-0.05,0.14-0.1,0.2-0.15
		C152.8,123.71,147.29,114.61,141.67,105.36z M175.25,155.07c0.22-0.4,0.39-0.65,0.51-0.92c1.4-3.05,2.66-6.17,4.23-9.13
		c1.43-2.7,2.01-5.43,1.96-8.5c-0.16-8.45-0.04-16.9-0.06-25.35c0-0.76-0.18-1.57-0.47-2.27c-1.03-2.48-2.15-4.92-3.24-7.37
		c-0.62-1.41-1.2-2.83-1.88-4.21c-0.55-1.11-1.67-1.11-2.3-0.06c-0.25,0.41-0.45,0.84-0.64,1.28c-1.45,3.36-2.92,6.71-4.32,10.1
		c-0.31,0.75-0.46,1.62-0.47,2.44c-0.02,9.99,0.01,19.98,0.03,29.97c0,0.3,0.05,0.62,0.18,0.88c1.83,3.78,3.67,7.54,5.51,11.31
		C174.56,153.82,174.87,154.37,175.25,155.07z M189.94,65.75c0.14-1.48,0.27-2.88,0.41-4.33c-10.08,3.06-20,2.73-29.98,0.14
		c0.13,1.39,0.25,2.72,0.38,4.16c-1.15,0-1.43,0.71-1.53,1.49c-0.22,1.79-0.04,3.54,0.84,5.14c0.37,0.66,0.91,1.29,1.52,1.74
		c0.51,0.38,0.81,0.74,0.95,1.36c1.05,4.63,3.62,8.27,7.41,11.04c3.65,2.66,7.02,2.61,10.69-0.03c0.34-0.25,0.67-0.51,0.99-0.77
		c3.25-2.72,5.17-6.26,6.4-10.24c0.09-0.3,0.24-0.69,0.48-0.81c2.55-1.32,3.15-3.66,3.2-6.22
		C191.74,67.21,191.73,65.83,189.94,65.75z M159.19,40.22c-0.01,5.96-0.02,11.92,0,17.88c0,0.26,0.3,0.65,0.55,0.74
		c0.96,0.38,1.94,0.71,2.94,0.97c5.75,1.51,11.61,1.69,17.5,1.27c3.42-0.24,6.77-0.8,9.98-2.07c0.57-0.22,0.8-0.51,0.8-1.15
		c0-5.2,0.05-10.41,0.08-15.61c0-0.72,0-1.43,0-2.26c-0.43,0.11-0.75,0.18-1.07,0.28c-4.66,1.48-9.32,2.97-13.99,4.42
		c-0.44,0.14-1,0.12-1.45-0.02c-3.37-1.02-6.73-2.1-10.09-3.15c-1.72-0.54-3.46-1.04-5.19-1.56
		C159.23,40.12,159.19,40.17,159.19,40.22z M194.33,37.62c0.01,2.8,0.03,5.6,0,8.39c0,0.28-0.21,0.61-0.42,0.82
		c-0.57,0.61-0.75,1.31-0.33,1.99c0.35,0.57,0.3,1.09,0.17,1.67c-0.47,2.16-0.92,4.32-1.4,6.48c-0.13,0.57-0.05,0.93,0.54,1.19
		c0.61,0.26,1.2,0.61,1.72,1.03c0.42,0.33,0.7,0.27,1.11,0.02c0.67-0.4,1.36-0.79,2.08-1.08c0.55-0.22,0.6-0.52,0.47-1.03
		c-0.61-2.38-1.21-4.77-1.78-7.16c-0.06-0.26,0-0.6,0.13-0.83c0.52-0.92,0.44-1.55-0.28-2.35c-0.22-0.24-0.4-0.61-0.4-0.93
		c-0.03-2.83-0.01-5.65-0.03-8.48c0-0.49,0.11-0.73,0.63-0.89c2.13-0.67,4.25-1.39,6.37-2.11c0.16-0.05,0.31-0.15,0.55-0.26
		c-0.19-0.06-0.27-0.09-0.35-0.11c-8.58-2.35-17.16-4.67-25.73-7.06c-1.5-0.42-2.9-0.34-4.37,0.04c-7.51,1.99-15.03,3.95-22.55,5.92
		c-1.37,0.36-2.74,0.7-4.34,1.12c9.46,2.97,18.66,5.85,27.85,8.76c0.95,0.3,1.84,0.3,2.78-0.01c3.16-1.04,6.33-2.07,9.49-3.08
		c2.63-0.84,5.27-1.66,8-2.52C194.3,37.41,194.33,37.52,194.33,37.62z M156.17,45.91c-11.46,4.28-20.5,11.58-26.96,21.95
		c-1.75,2.81-3.02,5.92-4.48,8.9c-0.13,0.26-0.14,0.78,0.02,0.94c0.54,0.54,1.18,0.96,1.8,1.44c0.1-0.17,0.15-0.24,0.17-0.32
		c4.31-11.41,11.67-20.29,22.16-26.52c2.32-1.38,4.86-2.39,7.29-3.6c0.32-0.16,0.77-0.43,0.81-0.71c0.11-0.72,0.04-1.48,0.04-2.33
		C156.64,45.78,156.4,45.83,156.17,45.91z M199.31,126.55c1.72-1.19,3.47-2.34,5.16-3.58c4.84-3.57,8.98-7.83,12.24-12.9
		c0.91-1.41,1-1.14-0.33-2.25c-0.17-0.14-0.35-0.28-0.49-0.45c-1.09-1.26-2.16-2.52-3.12-3.64c-0.35,0.82-0.65,1.88-1.21,2.78
		c-2.82,4.6-5.71,9.16-8.58,13.73c-1.28,2.04-2.56,4.07-3.84,6.1C199.2,126.42,199.25,126.48,199.31,126.55z M133.5,109
		c-0.13,0.12-0.26,0.33-0.25,0.49c0.03,0.75,1.17,1.91,1.77,1.98c0.18,0.54,0.22,1.1,0.51,1.48c2.64,3.55,5.78,6.6,9.29,9.29
		c0.16,0.13,0.4,0.16,0.59,0.26c0.3,0.15,0.68,0.23,0.88,0.47c0.79,0.97,3.49,2.91,4.51,3.22c-4.47-7.48-9-15.06-13.54-22.67
		C136.48,105.6,135.17,107.42,133.5,109z M224.18,78.58c0.55-0.56,1.46-1.08,1.56-1.71c0.11-0.72-0.45-1.58-0.81-2.33
		c-5.44-11.59-13.88-20.33-25.17-26.33c-0.13-0.07-0.29-0.09-0.51-0.16c0,0.67,0.03,1.25-0.01,1.84c-0.04,0.69,0.23,1.09,0.83,1.46
		c3.55,2.15,6.92,4.55,10.02,7.32c6.25,5.58,10.83,12.31,13.73,20.25C223.98,78.77,224.09,78.68,224.18,78.58z M175.5,24.4
		c0.96,0,2-0.13,2.91,0.52c0.5,0.36,0.73-0.05,0.73-0.58c-0.01-2.6-0.03-5.2,0-7.81c0.01-0.68-0.25-0.87-0.88-0.87
		c-1.96,0.02-3.92,0.02-5.88,0c-0.62-0.01-0.9,0.16-0.89,0.86c0.04,2.57,0.01,5.15,0.02,7.72c0,0.24,0.04,0.48,0.06,0.69
		C172.98,24.73,174.24,24.4,175.5,24.4z M231.05,98.53c-2.25,0.4-4.42,1.02-6.25,2.48c-1.77,1.41-2.47,3.35-2.82,5.51
		c4,0.1,10.86-4.59,12.34-8.44C233.2,98.23,232.12,98.34,231.05,98.53z M128.5,106.47c-0.47-1.16-0.8-2.38-1.44-3.4
		c-0.64-1.01-1.46-2.01-2.44-2.67c-2.52-1.71-5.48-2.09-8.53-2.45C118.02,102.22,124.7,106.81,128.5,106.47z M117.5,76.39
		c0.78,1.99,1.5,4.01,2.35,5.97c0.98,2.27,2.45,4.19,4.59,5.53c0.29,0.18,0.61,0.29,1.01,0.48c0.09-0.72,0.17-1.3,0.22-1.88
		c0.23-2.53-0.39-4.77-2.24-6.59c-1.64-1.61-3.58-2.74-5.67-3.63C117.68,76.31,117.59,76.35,117.5,76.39z M125.87,97.7
		c-0.05-0.84-0.07-1.58-0.15-2.32c-0.2-1.91-0.91-3.57-2.49-4.75c-2.2-1.63-4.69-2.55-7.6-3.06
		C118.37,91.76,120.58,96.18,125.87,97.7z M233.84,87.64c-1.88,0.7-3.82,1.28-5.62,2.16c-2.66,1.3-4.13,4.63-3.58,7.71
		c4.96-1.59,7.32-5.68,9.74-9.88C234.1,87.64,233.95,87.6,233.84,87.64z M228.02,79c-3.17,2.23-3.89,5.28-2.87,8.87
		c3.21-1.06,7.05-7.26,7.11-11.72C230.78,77.13,229.38,78.04,228.02,79z M135.17,72.19c-2.9,0.72-4.55,2.68-5.23,5.52
		c-0.31,1.27-0.16,1.42,1.11,1.25c3.69-0.46,7.44-3.84,8.15-7.56C137.77,71.68,136.45,71.87,135.17,72.19z M216.83,72.97
		c-1.8-1.03-3.86-1.24-5.97-1.48c1.64,4.58,6.07,7.94,9.56,7.36C220.24,76.26,219.06,74.25,216.83,72.97z M222.22,87.77
		c-0.03-0.52-0.03-1.04-0.1-1.56c-0.27-2.06-1.21-3.68-3.25-4.38c-1.65-0.56-3.35-0.97-5.16-1.48
		C214.58,84.47,218.87,88.16,222.22,87.77z M221.65,96.76c0.11-0.94,0.29-1.9,0.3-2.87c0.02-1.24-0.46-2.37-1.54-3
		c-1.87-1.09-3.82-2.03-5.83-3.08C214.95,91.94,218.72,96.72,221.65,96.76z M219.73,103.82c0.67-1.98,0.32-3.73-1.32-5.07
		c-1.38-1.12-2.84-2.15-4.34-3.28c-0.02,0.2-0.04,0.31-0.03,0.41c0.08,0.87-0.01,1.72,0.46,2.58c0.34,0.62,0.06,1.54,0.27,2.26
		c0.65,2.2,2.04,3.81,4.33,4.81C219.32,104.91,219.55,104.37,219.73,103.82z M133.62,89.02c-0.48,0.15-0.93,0.37-1.39,0.58
		c-3.15,1.46-3.8,3.55-3.28,6.78c0.08,0.53,0.28,0.64,0.79,0.44c3.34-1.32,5.07-3.96,5.98-7.26c0.17-0.62-0.38-1.04-1.01-0.84
		L133.62,89.02z M132.79,81.41c-2.91,0.79-4.23,2.68-4.14,5.69c0.02,0.63,0.18,0.84,0.85,0.69c1.74-0.39,3.26-1.16,4.44-2.5
		c1.14-1.3,2.07-2.74,2.78-4.63C135.26,80.93,134,81.08,132.79,81.41z M133.39,97.99c-0.71,0.58-1.41,1.18-2.05,1.85
		c-1.38,1.44-0.84,4.43,0.41,5.91c3.19-2.04,4.67-5.51,4.5-9.95C135.24,96.56,134.3,97.25,133.39,97.99z M179.99,141.21
		c-3.27,0-6.34,0-9.49,0c0-10.35,0-20.66,0-31.11c3.16,2.12,6.31,2.08,9.49-0.1C179.99,120.48,179.99,130.81,179.99,141.21z
		 M171.74,137.81c2.36,0,4.66,0,6.97,0c0-8.58,0-17.07,0-25.65c-2.37,0.84-4.64,0.92-6.97-0.02
		C171.74,120.74,171.74,129.24,171.74,137.81z M179.17,139.06c-2.62,0-5.15,0-7.71,0c0,0.42,0,0.77,0,1.13c2.6,0,5.14,0,7.71,0
		C179.17,139.78,179.17,139.45,179.17,139.06z M177.89,145.25c-1.83,0-3.51,0-5.35,0c0.91,1.9,1.78,3.7,2.74,5.7
		C176.2,148.95,177.03,147.14,177.89,145.25z M171.3,142.72c0.25,0.51,0.26,1.08,1.02,1.07c1.85-0.02,3.69-0.01,5.54,0.02
		c0.73,0.01,1.09-0.31,1.1-1.08C176.39,142.72,173.88,142.72,171.3,142.72z M175.23,99.65c-0.69-0.02-1.32,0.62-1.34,1.34
		c-0.02,0.68,0.48,1.21,1.19,1.27c0.73,0.06,1.38-0.5,1.42-1.23C176.53,100.28,175.97,99.67,175.23,99.65z"/>
</g>
</svg>
