<?xml version="1.0" encoding="utf-8"?>
<!-- Generator: Adobe Illustrator 27.8.1, SVG Export Plug-In . SVG Version: 6.00 Build 0)  -->
<svg version="1.1" xmlns="http://www.w3.org/2000/svg" xmlns:xlink="http://www.w3.org/1999/xlink" x="0px" y="0px"
	 viewBox="0 0 350 230" style="enable-background:new 0 0 350 230;" xml:space="preserve">
<style type="text/css">
	.st0{fill:#FF7F00;}
	.st1{fill:#893700;}
	.st2{fill:#29ABE2;}
	.st3{fill:#F2C0AA;}
	.st4{fill:#1C75BC;}
	.st5{fill:#FFC200;}
	.st6{fill:#911717;}
	.st7{fill:#C1272D;}
	.st8{fill:#F7931E;}
	.st9{fill:#2D828E;}
	.st10{fill:#93BC20;}
	.st11{fill:#CC781D;}
	.st12{fill:#FF5500;}
	.st13{fill:#C4C400;}
	.st14{fill:#017F6A;}
	.st15{fill:#0092FF;}
	.st16{fill:#09578C;}
	.st17{fill:#3B9FE2;}
	.st18{fill:#BE1E2D;}
	.st19{fill:#231F20;}
	.st20{fill:#FF9D00;}
	.st21{fill:#F15A29;}
	.st22{fill:#E5E6C6;}
	.st23{fill:#E5D7C7;}
	.st24{fill:#DCF7FF;}
	.st25{fill:#E2E5C7;}
	.st26{fill:#FDFFDC;}
	.st27{fill:#D3D3AE;}
	.st28{fill:#FFFFDE;}
	.st29{fill:#FFE5CC;}
	.st30{fill:#D4EEB8;}
	.st31{fill:#00406B;}
	.st32{fill:url(#SVGID_1_);}
	.st33{fill:#FDFDFC;}
	.st34{fill:url(#SVGID_00000155128275396757792480000013472388573062467236_);}
	.st35{fill:#372E2D;}
	.st36{fill:#2390BA;}
	.st37{fill:url(#SVGID_00000113334458925853103500000016672898494784756898_);}
	.st38{fill:url(#SVGID_00000063624040451561436340000000401733881005114033_);}
	.st39{fill:#1C2849;}
	.st40{fill:#162C33;}
	.st41{fill:#172E34;}
	.st42{fill:#F7FBFC;}
	.st43{fill:#212655;}
	.st44{fill:url(#SVGID_00000058570742939109183230000012297730426936800955_);}
	.st45{fill:#465A9B;}
	.st46{fill:#F3A75E;}
	.st47{fill:url(#SVGID_00000057144901888745035590000011672316965092168095_);}
	.st48{fill:#E66546;}
	.st49{fill:url(#SVGID_00000163769022592884598740000008528065263501762194_);}
	.st50{fill:url(#SVGID_00000048475769822626264830000006162727728273797764_);}
	.st51{fill:#68488A;}
	.st52{fill:url(#SVGID_00000108988437054997356710000008217927833726050460_);}
	.st53{fill:#1C375E;}
	.st54{fill:#02A4F7;}
	.st55{fill:#062768;}
	.st56{fill:#0F6AAD;}
	.st57{fill:#FEFEFE;}
	.st58{fill:#2F92AA;}
	.st59{fill:#F99F0D;}
	.st60{fill:#EB473F;}
	.st61{fill:url(#SVGID_00000036237914226437461050000006852828264782289828_);}
	.st62{fill:#FDFDFD;}
	.st63{fill:#1A313F;}
	.st64{fill:url(#SVGID_00000029731262019044471230000011633587983531530413_);}
	.st65{fill:url(#SVGID_00000019675355390408712340000002051959993341284534_);}
	.st66{fill:#0E5490;}
	.st67{fill:#71B7CB;}
	.st68{fill:#543450;}
	.st69{fill:#F7872D;}
	.st70{fill:#0F2257;}
	.st71{fill:#F98F34;}
	.st72{fill:#1E5D95;}
	.st73{fill:url(#SVGID_00000080204652871303440830000002358075513220794498_);}
	.st74{fill:#1B3A6A;}
	.st75{fill:#F3682F;}
	.st76{fill:#DD3136;}
	.st77{fill:#2587C3;}
</style>
<g id="Logo1">
</g>
<g id="Logo2">
</g>
<g id="Logo3">
</g>
<g id="Logo4">
</g>
<g id="Logo5">
</g>
<g id="Logo6">
</g>
<g id="Logo7">
</g>
<g id="Logo8">
</g>
<g id="Logo9">
</g>
<g id="Logo10">
</g>
<g id="Logo11">
</g>
<g id="Logo12">
</g>
<g id="Layer_13">
</g>
<g id="Layer_14">
</g>
<g id="Layer_15">
	<path d="M158.35,52.16c0,0,0,0.01,0,0.02L158.35,52.16L158.35,52.16z"/>
	<path d="M158.35,52.16c0,0,0,0.01,0,0.02L158.35,52.16L158.35,52.16z"/>
	<g>
		<path class="st26" d="M219.96,134.17c-1.25-0.3-2.61-0.16-3.92-0.16c-10.61,0-21.22,0.01-31.83,0.02h-0.73
			c-0.05-0.08-0.09-0.17-0.14-0.25c0.47-0.41,0.97-0.79,1.4-1.24c0.93-0.98,2.01-1.49,3.39-1.27c0.28,0.05,0.56,0.02,0.85,0.01
			c9.51-0.04,19.01-0.09,28.51-0.13c1.89-0.01,3.7,0.32,5.37,1.24c0.35,0.19,0.69,0.42,1.05,0.63v-17.27
			c6.49-1.58,13.17-2.46,19.91-2.97c-0.25-0.13-0.5-0.21-0.75-0.22c-2.09-0.14-4.17-0.31-6.26-0.38
			c-5.82-0.19-11.59,0.36-17.32,1.36c-7.88,1.37-15.5,3.58-22.83,6.81c-5.83,2.57-11.23,5.8-15.92,10.15
			c-0.52,0.49-1.04,0.98-1.56,1.46c-0.03-0.21,0.01-0.36,0.11-0.47c1.02-1.29,1.98-2.64,3.1-3.83c6.93-7.36,15.16-12.79,24.57-16.45
			c5.43-2.11,11.04-3.58,16.84-4.18c3.69-0.38,7.41-0.46,11.11-0.68c0.22-0.01,0.44-0.05,0.72-0.07c-0.09-0.27-0.14-0.44-0.21-0.61
			c-1.69-3.96-3.85-7.63-6.65-10.92c-5.6-6.59-12.64-10.83-21.08-12.61c-2.56-0.54-5.21-0.64-7.82-0.91
			c-0.25-0.03-0.68,0.09-0.77,0.27c-0.55,1.15-0.84,2.37-0.85,3.72c13.71-0.06,24.06,5.85,31.47,17.43
			c-0.46,0.08-0.71,0.14-0.96,0.16c-1.22,0.1-2.44,0.19-3.65,0.3c-4.11,0.34-8.15,1.03-12.14,2.06c-7.89,2.04-15.28,5.21-22.09,9.69
			c-5.79,3.81-10.86,8.39-14.92,14.04c-0.24,0.33-0.5,0.65-0.77,1c-0.17-0.18-0.26-0.28-0.36-0.38c-2.03-2.19-4-4.44-6.1-6.56
			c-4.09-4.13-8.67-7.65-13.74-10.52c-5.56-3.14-11.44-5.45-17.61-7.06c-4.6-1.2-9.26-2.04-14-2.44c-0.88-0.08-1.76-0.18-2.66-0.27
			c1.06-2.93,6.89-9.15,11.2-11.88c9.74-6.16,20.07-7.26,30.96-3.45c0-1.19-0.04-2.3,0.02-3.4c0.03-0.62-0.15-0.89-0.76-1.09
			c-4.68-1.5-9.46-1.91-14.34-1.52c-3.87,0.31-7.62,1.12-11.22,2.57c-8.76,3.52-15.38,9.47-19.9,17.75
			c-0.83,1.51-1.49,3.12-2.27,4.78c22.27,0.1,41.37,7.08,55.98,24.34c-6.1-4.54-12.5-8.59-19.54-11.54
			c-7.03-2.94-14.3-5.01-21.85-6.13c-6.5-0.97-20.87-1.2-22.8-0.23c1.49,0.14,2.85,0.25,4.2,0.39c4.91,0.5,9.79,1.21,14.62,2.24
			c0.6,0.13,0.83,0.36,0.83,1.01c-0.04,5.34-0.03,10.68-0.03,16.02c0,0.24,0,0.49,0,0.76c0.18-0.04,0.26-0.04,0.31-0.07
			c2.1-1.5,4.46-1.97,7-1.95c7.32,0.04,14.63,0.01,21.95,0.01c2.59,0,5.18,0.01,7.77,0.02c0.37,0,0.81-0.12,1.1,0.04
			c1.28,0.7,2.61,1.34,3.7,2.59c-0.35,0.03-0.57,0.07-0.79,0.07c-1.2,0-2.4,0-3.6,0c-10.26-0.01-20.52-0.02-30.77-0.02
			c-0.7,0-1.42,0-2.11,0.14c-3,0.61-4.95,2.43-5.76,5.35c-0.82,2.97,0,5.57,2.18,7.73c1.56,1.54,3.53,2.01,5.63,2.01
			c6.68,0.02,13.36,0.02,20.05,0.02c11.69,0,23.39-0.02,35.08-0.02c9.1,0,18.21,0.03,27.32,0.02c1.69,0,3.41,0.07,5.06-0.22
			c3.46-0.6,5.92-3.72,5.91-7.25C225.81,137.66,223.42,134.98,219.96,134.17z M221.84,141.72c-0.07,2.05-1.57,3.46-3.76,3.47
			c-8.8,0.01-17.6,0-26.4,0c-5.6,0-11.2,0-16.8,0v0.01c-14.28,0-28.56,0-42.84,0c-1.66,0-2.94-0.84-3.54-2.3
			c-0.57-1.39-0.21-2.99,0.93-4.07c0.9-0.86,2.05-1,3.22-1c2.38,0,4.75,0.06,7.13,0.06c11.1-0.01,22.2-0.04,33.31-0.04
			c8.09,0,16.18,0.04,24.28,0.06c4.66,0.01,9.32-0.01,13.97-0.01c2.33,0,4.66-0.06,6.98,0.03
			C220.44,138,221.91,139.68,221.84,141.72z"/>
		<path class="st26" d="M183.47,65.3c-0.01-4.78-0.01-9.55-0.02-14.32V50.3h-18.76v3.94c0,12.04,0.01,24.08-0.01,36.13
			c0,0.72,0.21,1.07,0.91,1.19c2.12,0.37,4.23,0.95,6.37,1.13c3.65,0.32,7.27-0.04,10.79-1.18c0.54-0.17,0.76-0.41,0.76-1.02
			C183.48,82.09,183.48,73.69,183.47,65.3z M176.16,56.86h0.02c0-0.68-0.04-1.36,0.01-2.04c0.07-1.12,0.75-1.76,1.8-1.77
			c1.05-0.01,1.81,0.61,1.86,1.69c0.06,1.4,0.06,2.81-0.02,4.21c-0.06,1.05-0.82,1.69-1.81,1.68c-1.07-0.02-1.79-0.69-1.86-1.8
			C176.12,58.18,176.16,57.52,176.16,56.86z M179.89,85.3c-0.1,0.99-0.89,1.69-1.84,1.66c-1.13-0.03-1.86-0.69-1.86-1.77
			c-0.02-3.57-0.01-7.14-0.01-10.72c0,0,0,0,0,0c0-3.55,0-7.1,0-10.64c0-0.8,0.35-1.35,1.07-1.67c0.71-0.32,1.42-0.2,1.97,0.3
			c0.3,0.27,0.56,0.73,0.59,1.13c0.1,1.12,0.08,2.25,0.08,3.38c0.02,5.66,0.04,11.33,0.05,16.99
			C179.94,84.4,179.93,84.85,179.89,85.3z"/>
		<path class="st26" d="M164.58,92.67c6.59,2.01,10.76,2.03,19.01,0.1c-0.12,0.74-0.13,1.45-0.36,2.08
			c-2.6,6.83-5.24,13.64-7.88,20.45c-0.21,0.54-0.49,1.04-0.91,1.53c0-6.49,0-12.98,0-19.47c-0.12,0-0.24,0-0.36,0
			c-0.08,6.51-0.15,13.01-0.23,19.74c-0.42-0.89-0.8-1.6-1.09-2.34c-1.7-4.35-3.37-8.72-5.05-13.08c-0.84-2.17-1.7-4.33-2.5-6.51
			C164.92,94.41,164.8,93.6,164.58,92.67z"/>
		<path class="st26" d="M158.48,30.69c0.85-0.35,1.61-0.67,2.36-0.97c4.06-1.6,8.14-3.18,12.19-4.81c0.74-0.29,1.37-0.26,2.08,0.03
			c3.91,1.61,7.82,3.2,11.74,4.79c0.83,0.34,1.66,0.65,2.6,1.02c-0.51,0.22-0.94,0.43-1.39,0.61c-4.55,1.9-9.09,3.81-13.65,5.69
			c-0.28,0.11-0.69,0.09-0.97-0.03c-4.58-1.95-9.15-3.92-13.73-5.88C159.35,30.99,158.98,30.87,158.48,30.69z"/>
		<path class="st26" d="M186.29,49.16c1.3,0.84,2.67,1.66,3.97,2.57c1.76,1.23,3.26,2.75,4.54,4.49c2.66,3.62,4.27,7.64,4.66,12.14
			c0.31,3.65-0.37,7.12-1.87,10.43c-1.32,2.92-2.09,5.92-1.86,9.15c0.07,0.94,0.06,1.88,0.02,2.82c-0.02,0.6,0.16,0.91,0.73,1.17
			c2.39,1.05,3.19,4.06,1.68,6.18c-0.91,1.28-2.75,1.97-4.32,1.59c-1.71-0.42-2.83-1.47-3.19-3.2c-0.37-1.77,0.36-3.41,1.83-4.33
			c0.18-0.11,0.36-0.24,0.56-0.3c0.47-0.15,0.55-0.48,0.55-0.93c-0.02-1.51,0.01-3.01-0.03-4.52c-0.08-2.94,0.81-5.64,1.93-8.3
			c1.03-2.42,1.64-4.95,1.71-7.59c0.1-3.78-0.83-7.3-2.74-10.57c-2.01-3.44-4.69-6.21-8.18-8.18c-0.22-0.13-0.44-0.27-0.64-0.44
			c-0.26-0.22-0.51-0.47-0.76-0.71c0.25-0.19,0.52-0.35,0.73-0.57C185.82,49.83,186,49.55,186.29,49.16z"/>
		<path class="st26" d="M184.56,48.8c-0.15,0.02-0.41,0.07-0.67,0.07c-6.47,0.02-12.93,0.03-19.4,0.06h-0.81v-0.9
			c0.01-0.1,0.01-0.22,0.02-0.33c0.01-1.22,0.01-2.44,0.01-3.72h20.53c0,1.24-0.02,2.46,0.01,3.68
			C184.25,48.01,184.43,48.37,184.56,48.8z"/>
		<path class="st26" d="M166.6,42.59c0-2.44,0-4.82,0-7.19c2.21,0.93,4.4,1.83,6.58,2.76c0.53,0.23,0.98,0.26,1.53,0.02
			c2.19-0.96,4.41-1.87,6.61-2.8c0.08-0.04,0.17-0.05,0.31-0.09c0,2.44,0,4.85,0,7.3C176.6,42.59,171.63,42.59,166.6,42.59z"/>
		<path class="st26" d="M185.61,86.87c0-1.36,0-2.76,0-4.29c2.05-0.37,4.05-0.73,6.07-1.1c-0.2,1.47-0.38,2.86-0.56,4.24
			C189.32,86.09,187.5,86.47,185.61,86.87z"/>
		<path class="st26" d="M176.23,118.07c-1.26,0-2.38,0-3.56,0C173.84,117.33,174.96,117.55,176.23,118.07z"/>
	</g>
</g>
</svg>
