<?xml version="1.0" encoding="utf-8"?>
<!-- Generator: Adobe Illustrator 27.8.1, SVG Export Plug-In . SVG Version: 6.00 Build 0)  -->
<svg version="1.1" id="Layer_1" xmlns="http://www.w3.org/2000/svg" xmlns:xlink="http://www.w3.org/1999/xlink" x="0px" y="0px"
	 viewBox="0 0 350 230" style="enable-background:new 0 0 350 230;" xml:space="preserve">
<style type="text/css">
	.st0{fill:#FFFFFF;}
	.st1{fill:#0B4EA8;}
	.st2{fill:#651500;}
	.st3{fill:#BAB500;}
	.st4{fill:#243506;}
	.st5{fill:#F4551E;}
	.st6{fill:#20F298;}
	.st7{fill:#52221F;}
	.st8{fill:#8A8AFF;stroke:#8A8AFF;stroke-width:2;stroke-linecap:round;stroke-linejoin:round;stroke-miterlimit:10;}
	.st9{fill:#550968;}
	.st10{fill:#000042;}
	.st11{fill:#873A06;}
	.st12{fill:#F90606;}
	.st13{fill:#006A72;}
	.st14{fill:#FF0000;}
	.st15{fill:#8A8AFF;}
	.st16{fill:#69A6FF;}
	.st17{fill:#FEBA2B;}
	.st18{fill:#00F47F;}
	.st19{fill:#756400;}
	.st20{fill:#FF9700;}
	.st21{fill:#FF5B00;}
	.st22{fill:#FC9500;}
	.st23{fill:#999999;}
	.st24{fill:#BCBCBC;}
	.st25{fill:#FFBD47;}
	.st26{fill:#F99300;}
	.st27{fill:#008480;}
	.st28{fill:#FFE6C5;}
	.st29{fill:#F7FFCA;}
	.st30{fill:#C8F99D;}
	.st31{fill:#F3F4C9;}
	.st32{fill:#EDE6CA;}
	.st33{fill:#D7FFE3;}
	.st34{fill:#F9FFD9;}
	.st35{fill:#FFEEDC;}
	.st36{fill:#E0FFCC;}
	.st37{fill:#FFEFAE;}
	.st38{fill:#B0FFF5;}
	.st39{fill:#DCFFC7;}
	.st40{fill:#CAFFDA;}
	.st41{fill:#CCFFFC;}
	.st42{fill:url(#SVGID_00000079446663875404431080000009670021157466476446_);}
	.st43{fill:url(#SVGID_00000114039884552794666510000005806449645564450226_);}
	
		.st44{fill:url(#SVGID_00000011713114504495379870000015366228285052809116_);stroke:url(#SVGID_00000019648908108772503720000015686132098943073685_);stroke-width:3;stroke-linecap:round;stroke-linejoin:round;stroke-miterlimit:10;}
	
		.st45{fill:url(#SVGID_00000074425547161085548040000008091937502039792768_);stroke:url(#SVGID_00000139993020055241462120000003141239816627327401_);stroke-width:3;stroke-linecap:round;stroke-linejoin:round;stroke-miterlimit:10;}
	
		.st46{fill:url(#SVGID_00000099619683761855930820000006482380176350018184_);stroke:url(#SVGID_00000007386451053672942110000016088053876477109162_);stroke-width:3;stroke-linecap:round;stroke-linejoin:round;stroke-miterlimit:10;}
	
		.st47{fill:url(#SVGID_00000046334224390651459990000002524331117672952731_);stroke:url(#SVGID_00000036252059160573868110000009748759894667113118_);stroke-width:3;stroke-linecap:round;stroke-linejoin:round;stroke-miterlimit:10;}
	.st48{fill:url(#SVGID_00000121264436149010588050000018430331860362125443_);}
	
		.st49{fill:url(#SVGID_00000148663566080875994180000008480526078013869716_);stroke:url(#SVGID_00000052078271674484149330000013419621361362870924_);stroke-width:3;stroke-linecap:round;stroke-linejoin:round;stroke-miterlimit:10;}
	
		.st50{fill:url(#SVGID_00000077313134254105747200000004131453575489398691_);stroke:url(#SVGID_00000030470675420777352090000002454521445324795295_);stroke-width:3;stroke-linecap:round;stroke-linejoin:round;stroke-miterlimit:10;}
	
		.st51{fill:url(#SVGID_00000135689363187758112200000009588285780985058953_);stroke:url(#SVGID_00000132058033075226544410000014399690836320893626_);stroke-width:3;stroke-linecap:round;stroke-linejoin:round;stroke-miterlimit:10;}
	
		.st52{fill:url(#SVGID_00000008844127791207876910000006935117674399805624_);stroke:url(#SVGID_00000113313008000678005650000000880494175533470626_);stroke-width:3;stroke-linecap:round;stroke-linejoin:round;stroke-miterlimit:10;}
	.st53{fill:url(#SVGID_00000141416157325620845550000007163411411253216683_);}
	.st54{fill:url(#SVGID_00000165936329952719556790000000510247598697820573_);}
	.st55{fill:url(#SVGID_00000150096211830212886510000012302111956550792839_);}
	.st56{fill:url(#SVGID_00000109717820453397803360000017684622534516884647_);}
	.st57{fill:url(#SVGID_00000059275593359713934070000015579872039653766535_);}
	.st58{fill:url(#SVGID_00000169550998262300643250000002363747000381843360_);}
	.st59{fill:none;stroke:url(#SVGID_00000005970501514672640750000003003329968209751424_);stroke-width:0.5;stroke-miterlimit:10;}
	.st60{fill:url(#SVGID_00000049901761955575822430000010757220560534948265_);}
	.st61{fill:url(#SVGID_00000154401361694238457220000013734237234116656057_);}
	.st62{fill:url(#SVGID_00000147191188384688847340000013154943436607508152_);}
	.st63{fill:url(#SVGID_00000157992129001435267880000011361374724599949737_);}
	.st64{fill:url(#SVGID_00000077316230374781148530000015164778754979164334_);}
	.st65{fill:url(#SVGID_00000046340296506968856140000001578602495639342767_);}
	.st66{fill:url(#SVGID_00000142171408951041319020000018174821300628736934_);}
	.st67{fill:url(#SVGID_00000004517361258486239360000000270841264599753906_);}
	.st68{fill:url(#SVGID_00000150094847330221989200000000346972675988056732_);}
	.st69{fill:url(#SVGID_00000095324860745478478850000009770914309661963193_);}
	.st70{fill:url(#SVGID_00000003816970742964724220000001890370122293332405_);}
	.st71{fill:url(#SVGID_00000145743809748543735000000017617401356911245716_);}
	.st72{fill:#006394;}
	.st73{fill:url(#SVGID_00000154394397895975955120000016023699922676499894_);}
	.st74{fill:url(#SVGID_00000151504509742683971160000012469140322750487957_);}
	.st75{fill:url(#SVGID_00000153686551185885306140000013495050981728370322_);}
	.st76{fill:url(#SVGID_00000112628738952706424200000000461515519566480819_);}
	.st77{fill:#FFE59C;}
	.st78{fill:url(#SVGID_00000015333010663654524320000013530603057572694458_);}
	.st79{fill:url(#SVGID_00000002359555546150472390000004233088450458812289_);}
	.st80{fill:url(#SVGID_00000142153022642010728670000015372885216349523374_);}
	.st81{fill:url(#SVGID_00000159454092508751833360000012446484838712077748_);}
	.st82{fill:#611D5C;}
	.st83{fill:#698C14;}
	.st84{fill:#DCC900;}
	.st85{fill:#AAAAAA;}
	.st86{fill:#B2930F;}
	.st87{fill:none;stroke:#F6F4E8;stroke-miterlimit:10;stroke-dasharray:2.0034,2.0034;}
	.st88{fill:#9B0000;}
	.st89{fill-rule:evenodd;clip-rule:evenodd;fill:#1B5376;}
	.st90{fill-rule:evenodd;clip-rule:evenodd;fill:#E2310E;}
	.st91{fill:#00393F;}
	.st92{fill:url(#SVGID_00000028289185179813652210000015406599745118717115_);}
	.st93{fill:#7F0000;}
	.st94{fill:#F4FFD2;}
	.st95{fill:#FFE1E1;}
	.st96{fill:#FFDAD4;}
	.st97{fill:#FFF7D7;}
</style>
<g>
	<path class="st89" d="M234.99,54.12c-1.3,1.32-3.11,2.15-5.09,2.17l-5.54,3.06c0.24-0.33,0.42-0.68,0.54-1.08
		c0.07-0.21,0.12-0.42,0.14-0.66c0.17-1.01-0.07-2.07-0.71-2.9c-0.64-0.85-1.6-1.25-2.64-1.25h-0.64c-1.82,0-3.44,1.63-3.44,3.44
		c0,1.65,1.11,3.23,2.64,3.7l0.05-0.02c-1.08-0.47-1.86-1.53-1.86-2.78c0-1.65,1.34-3.02,2.99-3.02c1.67,0,3.02,1.37,3.02,3.02
		c0,0.26-0.02,0.52-0.12,0.75c-0.02,0.16-0.07,0.33-0.17,0.47c-0.07,0.17-0.14,0.31-0.24,0.45c-0.19,0.26-0.4,0.5-0.66,0.68
		c-0.12,0.09-0.26,0.19-0.4,0.26c-0.12,0.07-0.24,0.12-0.35,0.17c-0.14,0.07-0.31,0.12-0.47,0.14c-0.05,0.02-0.07,0.02-0.09,0.02
		c-0.05,0.02-0.09,0.02-0.14,0.02l-1.72,0.94l4.6,1.18l12.47-6.44L234.99,54.12z M224.97,43.25c-0.19,0.17-0.38,0.35-0.54,0.57
		c0.17-0.19,0.35-0.38,0.57-0.54L224.97,43.25z M216.65,60.84l-4.76-9.41l13.08-8.18l-3.82-2.97c-1.18,2.45-3.7,4.08-6.53,4.08
		c-4.03,0-7.29-3.25-7.29-7.26c0-1.44,0.42-2.83,1.2-4.01l-4.17-1.79c-0.54,2.69-2.55,4.9-5.28,5.63c-1.86,0.5-3.84,0.21-5.52-0.75
		c-1.67-0.97-2.9-2.55-3.4-4.41c-0.38-1.44-0.31-2.95,0.19-4.34l-4.6-0.52c0.19,2.73-1.2,5.4-3.63,6.81c-3.49,2-7.95,0.78-9.95-2.69
		c-0.73-1.3-1.06-2.78-0.94-4.24l-0.31,0.21l-4.34,0.47c0.9,2.59,0.26,5.54-1.74,7.54c-2.85,2.83-7.47,2.81-10.3-0.02
		c-0.99-1.01-1.67-2.26-1.96-3.61l-4.5,1.72c1.51,2.26,1.67,5.26,0.26,7.71c-2,3.47-6.48,4.67-9.95,2.66
		c-1.25-0.73-2.22-1.77-2.85-3.02l-3.63,2.69c2.07,1.79,2.97,4.64,2.24,7.36c-1.04,3.87-5.07,6.18-8.94,5.14
		c-1.39-0.38-2.62-1.16-3.56-2.22l-2.97,3.8c2.48,1.2,4.1,3.72,4.1,6.53c0,4.03-3.28,7.29-7.29,7.29c-1.44,0-2.81-0.42-3.98-1.18
		l-1.84,4.2c2.69,0.52,4.93,2.55,5.63,5.26c0.5,1.89,0.24,3.87-0.73,5.54c-0.97,1.67-2.55,2.88-4.41,3.37
		c-1.46,0.4-2.95,0.33-4.34-0.17l-0.54,4.5l-0.07,0.24c2.76-0.24,5.47,1.16,6.91,3.61c2,3.49,0.8,7.95-2.69,9.95
		c-1.27,0.73-2.73,1.06-4.17,0.97l0.02,0.09l0.57,4.6c0.64-0.24,1.27-0.35,1.96-0.4h0.02c0.78-0.07,1.53,0,2.29,0.19L124.89,100
		c0-0.71,0.02-1.39,0.05-2.1c1.08-28.6,24.64-51.42,53.47-51.42c14.41,0,28.08,5.75,38.1,15.98c0.28,0.26,0.54,0.54,0.8,0.8
		l2.78-1.56l-1.37-0.35L216.65,60.84z M119.04,102.64c-0.31,0.12-0.64,0.17-0.97,0.17c-1.65,0-2.99-1.34-2.99-3.02
		c0-1.65,1.34-2.99,2.99-2.99c1.67,0,3.02,1.34,3.02,2.99c0,0.57-0.14,1.08-0.42,1.53C120.32,101.94,119.75,102.41,119.04,102.64z
		 M139.2,57.12c0,2.05-1.89,3.68-3.87,3.68c-1.86,0-3.47-1.63-3.47-3.47v-0.61c0-2,1.72-3.47,3.65-3.47c2,0,3.68,1.67,3.68,3.65
		V57.12z M178.46,43.11c-2.12,0-3.82-1.72-3.82-3.82c0-2.12,1.7-3.84,3.82-3.84c2.12,0,3.82,1.72,3.82,3.84
		C182.27,41.39,180.58,43.11,178.46,43.11z M244.68,103.44c-2-3.47-0.83-7.95,2.66-9.95c1.23-0.71,2.62-1.06,4.03-0.97l-0.45-4.03
		c-2.59,0.87-5.52,0.21-7.5-1.79c-0.87-0.87-1.49-1.93-1.82-3.09c-0.24-0.78-0.33-1.58-0.28-2.38l-10.61,7.54
		c0.24,1.04,0.42,2.07,0.57,3.14c0.42,2.66,0.61,5.38,0.61,8.09c0,29.54-23.95,53.5-53.5,53.5c-17.31,0-33.27-8.3-43.24-21.97
		c-0.71-0.97-1.39-1.96-2.03-2.99l-11.03,4.57c0.71,1.39,0.97,2.99,0.68,4.55c-0.12,0.85-0.4,1.67-0.85,2.43
		c-0.73,1.25-1.79,2.26-3.09,2.88l2.85,3.65c1.79-2.05,4.64-2.95,7.36-2.24c1.86,0.52,3.44,1.72,4.41,3.4
		c0.97,1.67,1.23,3.65,0.73,5.52c-0.38,1.41-1.16,2.66-2.22,3.61l3.75,2.78c1.2-2.43,3.7-4.03,6.48-4.03c4.03,0,7.29,3.25,7.31,7.29
		c0,1.44-0.45,2.85-1.25,4.06l4.2,1.65c0.57-2.66,2.57-4.86,5.26-5.56c1.89-0.5,3.87-0.24,5.54,0.73c1.67,0.97,2.88,2.55,3.37,4.43
		c0.38,1.41,0.33,2.9-0.14,4.27l4.43,0.5l0.33,0.21c-0.24-2.78,1.16-5.49,3.61-6.93c3.49-2,7.95-0.83,9.95,2.66
		c0.73,1.25,1.06,2.71,0.97,4.15l4.48-0.54c-0.92-2.59-0.31-5.56,1.72-7.59c2.85-2.83,7.47-2.83,10.3,0.02
		c1.01,1.04,1.7,2.33,1.98,3.73l4.22-1.82c-1.49-2.26-1.6-5.23-0.19-7.64c2-3.47,6.48-4.64,9.95-2.64c1.27,0.73,2.26,1.82,2.88,3.11
		l3.61-2.81c-2.03-1.82-2.92-4.67-2.19-7.36c1.06-3.87,5.09-6.18,8.94-5.12c1.41,0.38,2.64,1.16,3.58,2.22l2.88-3.82
		c-2.43-1.2-4.01-3.73-4.01-6.51c0.02-4.01,3.28-7.26,7.31-7.26c1.46,0,2.85,0.45,4.06,1.25l1.74-4.62
		c-2.62-0.54-4.79-2.55-5.52-5.21c-1.04-3.87,1.27-7.9,5.14-8.94c1.41-0.38,2.88-0.33,4.24,0.14l0.5-4.43l0.14-0.21
		C248.78,107.26,246.1,105.87,244.68,103.44z M135.33,146.73c-0.99,0-1.91-0.38-2.57-1.11c-0.54-0.59-0.87-1.37-0.99-2.17
		c-0.31-2.29,1.16-4.27,3.56-4.27h0.19c1.08,0,2.05,0.45,2.73,1.27c0.54,0.71,0.85,1.58,0.85,2.48
		C139.13,145.13,137.55,146.73,135.33,146.73z M178.41,164.46h-0.21c-1.89,0-3.47-1.56-3.47-3.47v-0.4c0-2.05,1.41-3.47,3.47-3.47
		h0.4c2.05,0,3.47,1.7,3.47,3.68C182.06,162.88,180.48,164.46,178.41,164.46z M224.95,143.27c0,1.04-0.42,1.98-1.23,2.64
		c-0.8,0.64-1.86,0.87-2.88,0.75c-1.89-0.24-3.23-1.65-3.23-3.58v-0.21c0-2.03,1.89-3.68,3.87-3.68c1.84,0,3.47,1.63,3.47,3.47
		V143.27z M242.87,100.19c0,1.91-1.56,3.47-3.47,3.47H239c-2.05,0-3.47-1.41-3.47-3.47v-0.4c0-2.05,1.7-3.47,3.68-3.47
		c2.07,0,3.65,1.6,3.65,3.68V100.19z M248.45,74.99l-0.42,0.31c0.14-0.07,0.31-0.14,0.45-0.24L248.45,74.99z M245.84,68.34
		l-0.26,0.26l0.31-0.14L245.84,68.34z"/>
	<path class="st90" d="M266.58,37.57L229,56.24l-4.1,2.03l-0.57,0.28c-0.05,0.16-0.09,0.33-0.17,0.47
		c-0.07,0.17-0.14,0.31-0.24,0.45c-0.19,0.26-0.4,0.5-0.66,0.68c-0.12,0.09-0.26,0.19-0.4,0.26c-0.12,0.07-0.24,0.12-0.35,0.17
		c-0.14,0.07-0.31,0.12-0.47,0.14c-0.05,0.02-0.07,0.02-0.09,0.02c-0.05,0.02-0.09,0.02-0.14,0.02c-0.12,0.02-0.21,0.02-0.33,0.02
		c-0.02,0-0.02,0-0.05,0c-0.14,0-0.28,0-0.42-0.02c-0.05,0-0.12-0.02-0.17-0.02c0,0,0,0-0.02-0.02c0,0,0,0-0.02,0h-0.05
		c-0.14-0.05-0.31-0.09-0.45-0.14l-0.05,0.02l-1.53,0.75l-2.22,1.11l-13.98,6.93l1.46-12.35l-40.93,28.74l6.86-23.98l-44.98,36.1
		l-4.27,3.42l-1.63,1.32l-11.2,8.98h-0.02l-46.56,37.37l92.89-63.44l-7.03,20.09l44.44-27.77l-1.41,11.84L266.58,37.57z
		 M195.85,109.24l7.05-20.09l-44.44,27.77l1.39-11.84l-76.44,52.13l39.37-19.57l12.38-6.13l12.33-6.13l-1.49,12.35l40.93-28.74
		l-6.84,23.98l51.18-41.07l10.33-8.3l47.13-37.82L195.85,109.24z"/>
</g>
</svg>
