<?xml version="1.0" encoding="utf-8"?>
<!-- Generator: Adobe Illustrator 27.8.1, SVG Export Plug-In . SVG Version: 6.00 Build 0)  -->
<svg version="1.1" id="Layer_1" xmlns="http://www.w3.org/2000/svg" xmlns:xlink="http://www.w3.org/1999/xlink" x="0px" y="0px"
	 viewBox="0 0 350 230" style="enable-background:new 0 0 350 230;" xml:space="preserve">
<style type="text/css">
	.st0{fill:#FFFFFF;}
	.st1{fill:#0B4EA8;}
	.st2{fill:#651500;}
	.st3{fill:#BAB500;}
	.st4{fill:#243506;}
	.st5{fill:#F4551E;}
	.st6{fill:#20F298;}
	.st7{fill:#52221F;}
	.st8{fill:#8A8AFF;stroke:#8A8AFF;stroke-width:2;stroke-linecap:round;stroke-linejoin:round;stroke-miterlimit:10;}
	.st9{fill:#550968;}
	.st10{fill:#000042;}
	.st11{fill:#873A06;}
	.st12{fill:#F90606;}
	.st13{fill:#006A72;}
	.st14{fill:#FF0000;}
	.st15{fill:#8A8AFF;}
	.st16{fill:#69A6FF;}
	.st17{fill:#FEBA2B;}
	.st18{fill:#00F47F;}
	.st19{fill:#756400;}
	.st20{fill:#FF9700;}
	.st21{fill:#FF5B00;}
	.st22{fill:#FC9500;}
	.st23{fill:#999999;}
	.st24{fill:#BCBCBC;}
	.st25{fill:#FFBD47;}
	.st26{fill:#F99300;}
	.st27{fill:#008480;}
	.st28{fill:#FFE6C5;}
	.st29{fill:#F7FFCA;}
	.st30{fill:#C8F99D;}
	.st31{fill:#F3F4C9;}
	.st32{fill:#EDE6CA;}
	.st33{fill:#D7FFE3;}
	.st34{fill:#F9FFD9;}
	.st35{fill:#FFEEDC;}
	.st36{fill:#E0FFCC;}
	.st37{fill:#FFEFAE;}
	.st38{fill:#B0FFF5;}
	.st39{fill:#DCFFC7;}
	.st40{fill:#CAFFDA;}
	.st41{fill:#CCFFFC;}
	.st42{fill:url(#SVGID_00000127045883142135436890000007236971087953143218_);}
	.st43{fill:url(#SVGID_00000060723474079506941540000014113264448248516281_);}
	
		.st44{fill:url(#SVGID_00000021116881775819865540000010521476977540031375_);stroke:url(#SVGID_00000113326849668876153670000017175653472127904405_);stroke-width:3;stroke-linecap:round;stroke-linejoin:round;stroke-miterlimit:10;}
	
		.st45{fill:url(#SVGID_00000019641685330591502740000016486207930619164859_);stroke:url(#SVGID_00000124147456249608736050000000010593149788567948_);stroke-width:3;stroke-linecap:round;stroke-linejoin:round;stroke-miterlimit:10;}
	
		.st46{fill:url(#SVGID_00000017486901089450473700000016328727338771915446_);stroke:url(#SVGID_00000021108449619054913000000015427460663080491943_);stroke-width:3;stroke-linecap:round;stroke-linejoin:round;stroke-miterlimit:10;}
	
		.st47{fill:url(#SVGID_00000094585624504648691210000000593649108570395553_);stroke:url(#SVGID_00000015322317424472168760000007419084802283081897_);stroke-width:3;stroke-linecap:round;stroke-linejoin:round;stroke-miterlimit:10;}
	.st48{fill:url(#SVGID_00000101097180624465931490000008633720379775377055_);}
	
		.st49{fill:url(#SVGID_00000129893043422511995850000018070612685958416782_);stroke:url(#SVGID_00000034071413833432124740000013618508413086460325_);stroke-width:3;stroke-linecap:round;stroke-linejoin:round;stroke-miterlimit:10;}
	
		.st50{fill:url(#SVGID_00000080924348449708399750000000489955742046253975_);stroke:url(#SVGID_00000168105092732139449220000006331238280033635502_);stroke-width:3;stroke-linecap:round;stroke-linejoin:round;stroke-miterlimit:10;}
	
		.st51{fill:url(#SVGID_00000017493241419537302260000000202310553923892415_);stroke:url(#SVGID_00000024688060463108556320000015560732910868160403_);stroke-width:3;stroke-linecap:round;stroke-linejoin:round;stroke-miterlimit:10;}
	
		.st52{fill:url(#SVGID_00000121244425324950633260000007807705318474656156_);stroke:url(#SVGID_00000105410531993951548550000010289593146532934535_);stroke-width:3;stroke-linecap:round;stroke-linejoin:round;stroke-miterlimit:10;}
	.st53{fill:url(#SVGID_00000042714137104735598130000017954143195021287041_);}
	.st54{fill:url(#SVGID_00000034770261731555559820000000110806820352849307_);}
	.st55{fill:url(#SVGID_00000072270358809153204780000000735032157486060205_);}
	.st56{fill:url(#SVGID_00000047047834543464930060000012028320280212214658_);}
	.st57{fill:url(#SVGID_00000097472545544939253330000009977376799122185893_);}
	.st58{fill:url(#SVGID_00000023271261387617146880000010509191900458639800_);}
	.st59{fill:none;stroke:url(#SVGID_00000017516199378628168950000006694892041588714118_);stroke-width:0.5;stroke-miterlimit:10;}
	.st60{fill:url(#SVGID_00000036932519596833906930000008827735281811313540_);}
	.st61{fill:url(#SVGID_00000124157567721869183900000008609183910557204866_);}
	.st62{fill:url(#SVGID_00000083060226909111806370000004219200577527533754_);}
	.st63{fill:url(#SVGID_00000026846192796941542350000009515734447715306907_);}
	.st64{fill:url(#SVGID_00000069394291981255088420000018103072943665975201_);}
	.st65{fill:url(#SVGID_00000156567221819282887090000000307535122113107359_);}
	.st66{fill:url(#SVGID_00000102505484675734078020000016510783755212075678_);}
	.st67{fill:url(#SVGID_00000114759917247683184840000012593341513170875798_);}
	.st68{fill:url(#SVGID_00000014597491147480280620000008869906689228882319_);}
	.st69{fill:url(#SVGID_00000151508386001690968160000016291199757242531244_);}
	.st70{fill:url(#SVGID_00000102531903276088915630000014530299137278618274_);}
	.st71{fill:url(#SVGID_00000032630055368868893830000010204108506724217737_);}
	.st72{fill:#006394;}
	.st73{fill:url(#SVGID_00000060744234962160669300000004631942721574154914_);}
	.st74{fill:url(#SVGID_00000178169148443117092480000005670509978680423587_);}
	.st75{fill:url(#SVGID_00000011734032524699419040000013772070620371146657_);}
	.st76{fill:url(#SVGID_00000129911685378436308750000006747510375371062687_);}
	.st77{fill:#FFE59C;}
	.st78{fill:url(#SVGID_00000180329136371637545420000004547902771552360343_);}
	.st79{fill:url(#SVGID_00000116197086235821653700000014626380841239851445_);}
	.st80{fill:url(#SVGID_00000180351779215257313950000010271341788744332690_);}
	.st81{fill:url(#SVGID_00000024716414824277891950000000858190460106849722_);}
	.st82{fill:#611D5C;}
	.st83{fill:#698C14;}
	.st84{fill:#DCC900;}
	.st85{fill:#AAAAAA;}
	.st86{fill:#B2930F;}
	.st87{fill:none;stroke:#F6F4E8;stroke-miterlimit:10;stroke-dasharray:2.0034,2.0034;}
	.st88{fill:#9B0000;}
	.st89{fill-rule:evenodd;clip-rule:evenodd;fill:#1B5376;}
	.st90{fill-rule:evenodd;clip-rule:evenodd;fill:#E2310E;}
	.st91{fill:#00393F;}
	.st92{fill:url(#SVGID_00000119834150858761967860000001025785726074417556_);}
	.st93{fill:#7F0000;}
	.st94{fill:#F4FFD2;}
	.st95{fill:#FFE1E1;}
	.st96{fill:#FFDAD4;}
	.st97{fill:#FFF7D7;}
</style>
<g>
	<path class="st82" d="M196.37,26.32c16.75,1.13,31.07,19.14,30.18,32.21c-0.89,13.12-0.37,26.35-0.1,39.52
		c0.09,4.53-0.95,7.51-5.3,9.59c-4.7,2.24-9.09,5.17-13.48,8.01c-11.8,7.64-17.84,18.61-18.09,32.63
		c-0.18,9.76-0.03,19.52-0.03,29.64c-10.05,0-19.59,0-30,0c0-2.48,0.05-4.93-0.01-7.37c-0.25-9.94,0.19-19.98-1.01-29.81
		c-1.38-11.38-8.33-19.69-17.94-25.71c-4.86-3.04-9.98-5.7-14.66-8.99c-1.57-1.1-3.03-3.58-3.05-5.45
		c-0.18-14.86-0.02-29.73,0.07-44.6c0.01-1.17-0.08-2.49,0.4-3.48c6.08-12.49,15.47-21.38,29.14-26.55
		c0.11,2.15,0.26,3.77,0.26,5.38c0.02,17.57,0.13,35.14-0.09,52.71c-0.05,4.06,1.22,6.53,4.69,8.55c4.95,2.89,9.71,6.13,14.36,9.49
		c2.18,1.58,3.68,1.43,5.79-0.09c6.03-4.32,14.46-7.15,17.73-12.94c3.13-5.55,1.07-14.09,1.12-21.32
		c0.08-11.99,0.02-23.99,0.02-35.99C196.37,29.97,196.37,28.17,196.37,26.32z"/>
	<path class="st83" d="M154.61,173.11c-4.46-1.87-7.99-3.35-12.01-5.03c1.11-2.11,2.1-3.98,3.27-6.22c-1.7-1.61-3.5-3.32-5.49-5.2
		c-1.89,1.23-3.69,2.41-5.91,3.87c-1.82-2.33-3.62-4.65-5.65-7.25c1.8-1.54,3.41-2.92,5.34-4.58c-1.01-2.11-2.07-4.31-3.23-6.71
		c-2.27,0.38-4.37,0.72-6.83,1.13c-0.79-2.99-1.55-5.85-2.35-8.9c2.3-0.77,4.19-1.4,6.17-2.07c0-2.54,0-5.01,0-7.68
		c-2.13-0.41-4.06-0.78-6.6-1.27c0.96-3.68,1.87-7.17,2.97-11.4c7.04,4.23,13.68,8.09,20.14,12.24c0.96,0.61,1.07,2.54,1.58,3.85
		c1.85,4.81,3.73,9.61,5.54,14.44c1.07,2.84,2.74,5.68,2.91,8.6C154.9,157.97,154.61,165.05,154.61,173.11z M221.66,132.03
		c0.18-2.63,0.35-5.08,0.52-7.54c2.18-0.48,4.08-0.9,6.49-1.43c-1.08-3.82-2.05-7.26-3.15-11.17c-6.95,4.14-13.35,7.83-19.59,11.79
		c-1.02,0.65-1.4,2.39-1.95,3.68c-2.34,5.49-4.62,11-6.97,16.49c-0.45,1.05-1.58,2.01-1.6,3.02c-0.13,8.52-0.07,17.04-0.07,26.28
		c4.43-1.88,8.06-3.43,12.04-5.12c-1.26-2.32-2.28-4.18-3.42-6.27c1.91-1.71,3.75-3.37,5.69-5.11c1.95,1.33,3.74,2.54,5.8,3.95
		c1.93-2.51,3.74-4.87,5.66-7.37c-1.92-1.62-3.57-3.01-5.16-4.35c1.19-5.27,3.32-8.76,9.7-5.33c0.88-3.29,1.63-6.14,2.49-9.37
		C225.62,133.34,223.73,132.72,221.66,132.03z"/>
	<path class="st84" d="M170.46,86.34c0.85-4.69,1.7-9.39,2.61-14.45c-3.28-0.24-5.91-0.44-9.19-0.68
		c2.36-7.02,4.59-13.65,6.98-20.77c-2.29-0.29-4.2-0.53-6.92-0.88c4.34-7.62,8.53-14.97,12.72-22.32c0.21,0.07,0.42,0.14,0.63,0.21
		c-1.16,5.28-2.31,10.56-3.58,16.37c3.07,0.21,5.69,0.38,8.73,0.59c-2.38,6.65-4.67,13.06-7.09,19.82c2.91,0.23,5.19,0.41,8.23,0.66
		c-4.26,7.62-8.22,14.71-12.18,21.8C171.09,86.57,170.78,86.45,170.46,86.34z"/>
</g>
</svg>
