<?xml version="1.0" encoding="utf-8"?>
<!-- Generator: Adobe Illustrator 27.8.1, SVG Export Plug-In . SVG Version: 6.00 Build 0)  -->
<svg version="1.1" id="Layer_1" xmlns="http://www.w3.org/2000/svg" xmlns:xlink="http://www.w3.org/1999/xlink" x="0px" y="0px"
	 viewBox="0 0 350 230" style="enable-background:new 0 0 350 230;" xml:space="preserve">
<style type="text/css">
	.st0{fill:#FFE6C5;}
	.st1{fill:#F7FFCA;}
	.st2{fill:#C8F99D;}
	.st3{fill:#F3F4C9;}
	.st4{fill:#EDE6CA;}
	.st5{fill:#D7FFE3;}
	.st6{fill:#F9FFD9;}
	.st7{fill:#FFEEDC;}
	.st8{fill:#E0FFCC;}
	.st9{fill:#FFEFAE;}
	.st10{fill:#B0FFF5;}
	.st11{fill:#DCFFC7;}
	.st12{fill:#CAFFDA;}
	.st13{fill:#CCFFFC;}
	.st14{fill:#FFFFFF;}
	.st15{fill:#0B4EA8;}
	.st16{fill:#651500;}
	.st17{fill:#AAAAAA;}
	.st18{fill:#B2930F;}
	.st19{fill:none;stroke:#F6F4E8;stroke-miterlimit:10;stroke-dasharray:2.0034,2.0034;}
	.st20{fill:#9B0000;}
	.st21{fill:#BAB500;}
	.st22{fill:#243506;}
	.st23{fill:#F4551E;}
	.st24{fill:#20F298;}
	.st25{fill:#611D5C;}
	.st26{fill:#698C14;}
	.st27{fill:#DCC900;}
	.st28{fill:#52221F;}
	.st29{fill:#8A8AFF;stroke:#8A8AFF;stroke-width:2;stroke-linecap:round;stroke-linejoin:round;stroke-miterlimit:10;}
	.st30{fill:#550968;}
	.st31{fill:#000042;}
	.st32{fill:#873A06;}
	.st33{fill:#F90606;}
	.st34{fill:#006A72;}
	.st35{fill:#FF0000;}
	.st36{fill:#8A8AFF;}
	.st37{fill:#69A6FF;}
	.st38{fill:#FEBA2B;}
	.st39{fill:#00F47F;}
	.st40{fill:#756400;}
	.st41{fill:#FF9700;}
	.st42{fill:#FF5B00;}
	.st43{fill:#FC9500;}
	.st44{fill:#999999;}
	.st45{fill:#BCBCBC;}
	.st46{fill:#FFBD47;}
	.st47{fill:#F99300;}
	.st48{fill:#008480;}
	.st49{fill-rule:evenodd;clip-rule:evenodd;fill:#1B5376;}
	.st50{fill-rule:evenodd;clip-rule:evenodd;fill:#E2310E;}
	.st51{fill:#00393F;}
	.st52{fill:url(#SVGID_00000073680701670966069430000002461735720183580557_);}
	.st53{fill:#7F0000;}
	.st54{fill:url(#SVGID_00000168110968897226806770000010920211188809509266_);}
	.st55{fill:url(#SVGID_00000098220463947219387760000012791137381333578418_);}
	
		.st56{fill:url(#SVGID_00000036945505356652894130000008296971861911554985_);stroke:url(#SVGID_00000120529893700411380060000008412400935398078107_);stroke-width:3;stroke-linecap:round;stroke-linejoin:round;stroke-miterlimit:10;}
	
		.st57{fill:url(#SVGID_00000178924118757632049300000004628679085407379638_);stroke:url(#SVGID_00000111880441760896541340000017091332842518096769_);stroke-width:3;stroke-linecap:round;stroke-linejoin:round;stroke-miterlimit:10;}
	
		.st58{fill:url(#SVGID_00000070807439310890106200000010169175887895384210_);stroke:url(#SVGID_00000029016704227199168180000014960653143941673638_);stroke-width:3;stroke-linecap:round;stroke-linejoin:round;stroke-miterlimit:10;}
	
		.st59{fill:url(#SVGID_00000179632547669704425610000004814976221551114128_);stroke:url(#SVGID_00000160162549863548328370000007063671860164024743_);stroke-width:3;stroke-linecap:round;stroke-linejoin:round;stroke-miterlimit:10;}
	.st60{fill:url(#SVGID_00000075877554920876475190000005818636496623698609_);}
	
		.st61{fill:url(#SVGID_00000165205807317917794290000004446540662385126558_);stroke:url(#SVGID_00000031173088086606942880000010574532024044611760_);stroke-width:3;stroke-linecap:round;stroke-linejoin:round;stroke-miterlimit:10;}
	
		.st62{fill:url(#SVGID_00000008837257336684989420000006868850683355205268_);stroke:url(#SVGID_00000080891204592494824650000002985876339931322039_);stroke-width:3;stroke-linecap:round;stroke-linejoin:round;stroke-miterlimit:10;}
	
		.st63{fill:url(#SVGID_00000124852865127356044470000014539358774953843373_);stroke:url(#SVGID_00000125588736157693423040000016643316370775209600_);stroke-width:3;stroke-linecap:round;stroke-linejoin:round;stroke-miterlimit:10;}
	
		.st64{fill:url(#SVGID_00000049180954010739402830000011655220034139296411_);stroke:url(#SVGID_00000143608189745312811210000009618164718526268550_);stroke-width:3;stroke-linecap:round;stroke-linejoin:round;stroke-miterlimit:10;}
	.st65{fill:url(#SVGID_00000130612583657542405900000016252238073304314501_);}
	.st66{fill:url(#SVGID_00000090275464221085027780000001878227405219949482_);}
	.st67{fill:url(#SVGID_00000072279839179154664220000018246474586173254051_);}
	.st68{fill:url(#SVGID_00000001630107415019890710000013768542403458305667_);}
	.st69{fill:url(#SVGID_00000183229380660002257230000007965884562461392282_);}
	.st70{fill:url(#SVGID_00000101823828197569002300000017089077256329094044_);}
	.st71{fill:none;stroke:url(#SVGID_00000010999286370508540350000007989647243375501191_);stroke-width:0.5;stroke-miterlimit:10;}
	.st72{fill:url(#SVGID_00000116210238392730268900000000570089473817037234_);}
	.st73{fill:url(#SVGID_00000119822818609681839140000014227543389047035540_);}
	.st74{fill:url(#SVGID_00000072267063047524799490000000636066675922414759_);}
	.st75{fill:url(#SVGID_00000033355584753672681080000006827107033432008601_);}
	.st76{fill:url(#SVGID_00000111902378513282512520000017637801633011083407_);}
	.st77{fill:url(#SVGID_00000060744079310980487340000006731871075477779853_);}
	.st78{fill:url(#SVGID_00000005232687548106422150000002578921698653523365_);}
	.st79{fill:url(#SVGID_00000126309783669477779410000012256435973154734996_);}
	.st80{fill:url(#SVGID_00000103986129004069541680000011428714105794507143_);}
	.st81{fill:url(#SVGID_00000044898454311307771550000003977574420863015601_);}
	.st82{fill:url(#SVGID_00000149340679952756922810000015444495780748802179_);}
	.st83{fill:url(#SVGID_00000179642630265777035400000002183194900699659684_);}
	.st84{fill:#006394;}
	.st85{fill:url(#SVGID_00000089541605440487917950000014832895240382614963_);}
	.st86{fill:url(#SVGID_00000162326661298420402310000010503775509924392860_);}
	.st87{fill:url(#SVGID_00000061464934742982859710000000244821536735883700_);}
	.st88{fill:url(#SVGID_00000096044699015916813770000014521854053566816150_);}
	.st89{fill:#FFE59C;}
	.st90{fill:url(#SVGID_00000038402315891012815020000002623903481277355936_);}
	.st91{fill:url(#SVGID_00000123400450830787790120000012147342837561510794_);}
	.st92{fill:url(#SVGID_00000122714928268742248770000007474932509434545080_);}
	.st93{fill:url(#SVGID_00000154412638916112026110000007347433147827699333_);}
</style>
<g>
	
		<radialGradient id="SVGID_00000065058818931715744640000014603999119955549076_" cx="176.1463" cy="96.8389" r="50.5416" gradientUnits="userSpaceOnUse">
		<stop  offset="0" style="stop-color:#FF9348"/>
		<stop  offset="0.017" style="stop-color:#F78D47"/>
		<stop  offset="0.1014" style="stop-color:#D37142"/>
		<stop  offset="0.1937" style="stop-color:#B4593E"/>
		<stop  offset="0.2942" style="stop-color:#9B463A"/>
		<stop  offset="0.4059" style="stop-color:#883737"/>
		<stop  offset="0.5351" style="stop-color:#7A2D35"/>
		<stop  offset="0.6976" style="stop-color:#722734"/>
		<stop  offset="1" style="stop-color:#702534"/>
	</radialGradient>
	<path style="fill:url(#SVGID_00000065058818931715744640000014603999119955549076_);" d="M188.77,96.98l-43.69,59.08l21.54-49.67
		h-30.5l56.52-61.92l-31.33,52.51H188.77z M185.39,87l17.64-49.39l-32.81,55h28.75l-45.76,61.88L216.16,87H185.39z"/>
	
		<linearGradient id="SVGID_00000003069336833865440840000000912694070487498164_" gradientUnits="userSpaceOnUse" x1="115.4487" y1="96.7965" x2="234.9725" y2="96.7965">
		<stop  offset="0" style="stop-color:#008648"/>
		<stop  offset="0.1677" style="stop-color:#007F47"/>
		<stop  offset="0.4141" style="stop-color:#006B42"/>
		<stop  offset="0.7075" style="stop-color:#004B3C"/>
		<stop  offset="0.992" style="stop-color:#002534"/>
	</linearGradient>
	<path style="fill:url(#SVGID_00000003069336833865440840000000912694070487498164_);" d="M149.56,118.22
		c-0.96,5.47-3.89,11.91-8.64,16.03c-3.1,2.69-6.66,4.07-10.39,4.07c-0.73,0-1.48-0.05-2.22-0.16c-5.76-0.83-10.12-4.47-11.95-9.97
		c-1.29-3.88-4-18.05,15.34-37.39c7.74-7.74,11.29-15.03,10.56-21.68c-0.41-3.78-2.17-6.7-3.86-8.69c-2.73,2.1-6.65,1.9-9.15-0.6
		l1.53-1.53l-4.9-4.9c-0.34-0.34-0.34-0.89,0-1.23l0.16-0.16c0.34-0.34,0.89-0.34,1.23,0l4.9,4.9l4-4l-4.9-4.9
		c-0.34-0.34-0.34-0.89,0-1.23l0.16-0.16c0.34-0.34,0.89-0.34,1.23,0l4.9,4.9l1.53-1.53c2.37,2.37,2.68,6.04,0.9,8.74
		c1.97,2.27,4.07,5.66,4.56,10.15c0.81,7.38-2.97,15.31-11.23,23.57c-9.59,9.59-18.5,23.82-14.78,35.02
		c1.57,4.71,5.15,7.7,10.08,8.41c3.91,0.57,7.53-0.57,10.77-3.37c4.27-3.69,6.91-9.45,7.83-14.39c-3.47-0.71-6.09-3.78-6.09-7.47
		h15.24C156.38,114.58,153.39,117.82,149.56,118.22z M219.64,135.29l1.53-1.53c-2.5-2.5-6.42-2.7-9.15-0.6
		c-1.68-2-3.44-4.91-3.86-8.69c-0.73-6.65,2.83-13.94,10.56-21.68c19.34-19.34,16.63-33.5,15.34-37.39
		c-1.83-5.5-6.18-9.14-11.95-9.97c-4.54-0.66-8.9,0.7-12.61,3.91c-4.75,4.11-7.68,10.56-8.64,16.03c-3.83,0.4-6.82,3.64-6.82,7.58
		h15.24c0-3.69-2.62-6.76-6.09-7.47c0.92-4.94,3.56-10.7,7.83-14.39c3.24-2.8,6.86-3.94,10.77-3.37c4.94,0.71,8.52,3.7,10.08,8.41
		c3.72,11.2-5.19,25.43-14.78,35.02c-8.26,8.26-12.03,16.19-11.23,23.57c0.49,4.49,2.59,7.88,4.56,10.15
		c-1.77,2.7-1.47,6.36,0.9,8.74l1.53-1.53l4.9,4.9c0.34,0.34,0.89,0.34,1.23,0l0.16-0.16c0.34-0.34,0.34-0.89,0-1.23l-4.9-4.9l4-4
		l4.9,4.9c0.34,0.34,0.89,0.34,1.23,0l0.16-0.16c0.34-0.34,0.34-0.89,0-1.23L219.64,135.29z"/>
</g>
</svg>
