<?xml version="1.0" encoding="utf-8"?>
<!-- Generator: Adobe Illustrator 27.8.1, SVG Export Plug-In . SVG Version: 6.00 Build 0)  -->
<svg version="1.1" id="Layer_1" xmlns="http://www.w3.org/2000/svg" xmlns:xlink="http://www.w3.org/1999/xlink" x="0px" y="0px"
	 viewBox="0 0 350 230" style="enable-background:new 0 0 350 230;" xml:space="preserve">
<style type="text/css">
	.st0{fill:#FFE6C5;}
	.st1{fill:#F7FFCA;}
	.st2{fill:#C8F99D;}
	.st3{fill:#F3F4C9;}
	.st4{fill:#EDE6CA;}
	.st5{fill:#D7FFE3;}
	.st6{fill:#F9FFD9;}
	.st7{fill:#FFEEDC;}
	.st8{fill:#E0FFCC;}
	.st9{fill:#FFEFAE;}
	.st10{fill:#B0FFF5;}
	.st11{fill:#DCFFC7;}
	.st12{fill:#CAFFDA;}
	.st13{fill:#CCFFFC;}
	.st14{fill:#FFFFFF;}
	.st15{fill:#0B4EA8;}
	.st16{fill:#651500;}
	.st17{fill:#AAAAAA;}
	.st18{fill:#B2930F;}
	.st19{fill:none;stroke:#F6F4E8;stroke-miterlimit:10;stroke-dasharray:2.0034,2.0034;}
	.st20{fill:#9B0000;}
	.st21{fill:#BAB500;}
	.st22{fill:#243506;}
	.st23{fill:#F4551E;}
	.st24{fill:#20F298;}
	.st25{fill:#611D5C;}
	.st26{fill:#698C14;}
	.st27{fill:#DCC900;}
	.st28{fill:#52221F;}
	.st29{fill:#8A8AFF;stroke:#8A8AFF;stroke-width:2;stroke-linecap:round;stroke-linejoin:round;stroke-miterlimit:10;}
	.st30{fill:#550968;}
	.st31{fill:#000042;}
	.st32{fill:#873A06;}
	.st33{fill:#F90606;}
	.st34{fill:#006A72;}
	.st35{fill:#FF0000;}
	.st36{fill:#8A8AFF;}
	.st37{fill:#69A6FF;}
	.st38{fill:#FEBA2B;}
	.st39{fill:#00F47F;}
	.st40{fill:#756400;}
	.st41{fill:#FF9700;}
	.st42{fill:#FF5B00;}
	.st43{fill:#FC9500;}
	.st44{fill:#999999;}
	.st45{fill:#BCBCBC;}
	.st46{fill:#FFBD47;}
	.st47{fill:#F99300;}
	.st48{fill:#008480;}
	.st49{fill-rule:evenodd;clip-rule:evenodd;fill:#1B5376;}
	.st50{fill-rule:evenodd;clip-rule:evenodd;fill:#E2310E;}
	.st51{fill:#00393F;}
	.st52{fill:url(#SVGID_00000002381409100042962910000017923974688374780087_);}
	.st53{fill:#7F0000;}
	.st54{fill:url(#SVGID_00000028313830128105185090000012571555807138200985_);}
	.st55{fill:url(#SVGID_00000057107690529364764550000010606296937200550044_);}
	
		.st56{fill:url(#SVGID_00000115502644353221618600000000913377012459593634_);stroke:url(#SVGID_00000181789336851241086710000003463255302672513451_);stroke-width:3;stroke-linecap:round;stroke-linejoin:round;stroke-miterlimit:10;}
	
		.st57{fill:url(#SVGID_00000140713641032539729280000018217553669725592504_);stroke:url(#SVGID_00000151525124676426517620000009848114321962234287_);stroke-width:3;stroke-linecap:round;stroke-linejoin:round;stroke-miterlimit:10;}
	
		.st58{fill:url(#SVGID_00000041980582002950148500000000943910219453475769_);stroke:url(#SVGID_00000036232965058152183600000006354825147907544707_);stroke-width:3;stroke-linecap:round;stroke-linejoin:round;stroke-miterlimit:10;}
	
		.st59{fill:url(#SVGID_00000029752696691758575950000014965619355961509013_);stroke:url(#SVGID_00000172434521023755967240000008986742466904798627_);stroke-width:3;stroke-linecap:round;stroke-linejoin:round;stroke-miterlimit:10;}
	.st60{fill:url(#SVGID_00000135680427413978064910000003904522247635281841_);}
	
		.st61{fill:url(#SVGID_00000043437079918977232230000016306420116321665700_);stroke:url(#SVGID_00000108291722639839324010000016510929946358754205_);stroke-width:3;stroke-linecap:round;stroke-linejoin:round;stroke-miterlimit:10;}
	
		.st62{fill:url(#SVGID_00000111163269024271768120000011198954099059015599_);stroke:url(#SVGID_00000059280742116579387820000011912489341945075880_);stroke-width:3;stroke-linecap:round;stroke-linejoin:round;stroke-miterlimit:10;}
	
		.st63{fill:url(#SVGID_00000174589367202982955400000011830472663850554526_);stroke:url(#SVGID_00000142862619227020438260000009188524556206412704_);stroke-width:3;stroke-linecap:round;stroke-linejoin:round;stroke-miterlimit:10;}
	
		.st64{fill:url(#SVGID_00000041275577167842327980000000731777241028295057_);stroke:url(#SVGID_00000045603703025683413550000005291902498366559112_);stroke-width:3;stroke-linecap:round;stroke-linejoin:round;stroke-miterlimit:10;}
	.st65{fill:url(#SVGID_00000054980667643032380830000009067813931121819321_);}
	.st66{fill:url(#SVGID_00000049189324609749589310000013796982043222296972_);}
	.st67{fill:url(#SVGID_00000146467329398528133010000005422354583861936308_);}
	.st68{fill:url(#SVGID_00000148646591692722147090000018061583724520994727_);}
	.st69{fill:url(#SVGID_00000137119659505669827320000006671354915691191487_);}
	.st70{fill:url(#SVGID_00000132809071669971708370000017183884817074666147_);}
	.st71{fill:none;stroke:url(#SVGID_00000166661799185886423270000006452219681409946275_);stroke-width:0.5;stroke-miterlimit:10;}
	.st72{fill:url(#SVGID_00000018198571366590321020000016179619965664091538_);}
	.st73{fill:url(#SVGID_00000022530444093249703680000011492155159169617570_);}
	.st74{fill:url(#SVGID_00000168807836378051645120000000985955883151216314_);}
	.st75{fill:url(#SVGID_00000051361117090423604240000015490003081550933167_);}
	.st76{fill:url(#SVGID_00000015347330980582121120000002965501657684019362_);}
	.st77{fill:url(#SVGID_00000011735130910122175910000008822290163705817223_);}
	.st78{fill:url(#SVGID_00000008110715785786273670000013956669549104499084_);}
	.st79{fill:url(#SVGID_00000072280292405466666320000018371604772794661523_);}
	.st80{fill:url(#SVGID_00000044892790574510794080000001733224463655569060_);}
	.st81{fill:url(#SVGID_00000074422355824137059430000014648027974127120776_);}
	.st82{fill:url(#SVGID_00000067914574666431103270000003512706437069890749_);}
	.st83{fill:url(#SVGID_00000098196591052697118490000007980594798839372454_);}
	.st84{fill:#006394;}
	.st85{fill:url(#SVGID_00000164502882166550231670000013274897104663309205_);}
	.st86{fill:url(#SVGID_00000164511688907607488980000012763368140057025169_);}
	.st87{fill:url(#SVGID_00000013890799295195731280000013952346131895231626_);}
	.st88{fill:url(#SVGID_00000021084524410774444680000010932473948271997601_);}
	.st89{fill:#FFE59C;}
	.st90{fill:url(#SVGID_00000152252615689160889400000013131813272986822539_);}
	.st91{fill:url(#SVGID_00000147202601264383475480000012215483368729940901_);}
	.st92{fill:url(#SVGID_00000160897391073293575170000007803734959788618918_);}
	.st93{fill:url(#SVGID_00000152230552355251294620000014453021486625893002_);}
</style>
<g>
	<path class="st89" d="M75.27,192.52L75.27,192.52c-30.04,0-54.39-24.35-54.39-54.39V92.31c0-30.04,24.35-54.39,54.39-54.39h0
		c30.04,0,54.39,24.35,54.39,54.39v45.83C129.66,168.17,105.31,192.52,75.27,192.52z"/>
	<path d="M101.91,52.29c-0.12-0.15-0.28-0.26-0.46-0.34c-3.92-1.76-8.1-2.29-12.21-2.4c-4.12-0.04-8.21,0.41-12.25,1.24
		c-4.01,0.89-7.96,2.19-11.76,4.05c-3.67,1.85-7.22,3.99-10.49,6.57c-3.28,2.57-6.34,5.48-8.95,8.8c-2.65,3.31-4.84,7.06-6.36,11.11
		c-2.46,6.61-2.99,13.91-1.31,20.84c0.39,1.67,0.92,3.32,1.58,4.93c0.56,1.42,1.29,2.79,2.09,4.11c0.24,0.39,0.77,0.43,1.09,0.11
		c1.6-1.64,3.34-3.14,4.99-4.43c-0.19-0.31-0.37-0.62-0.55-0.93c-0.32-0.57-0.61-1.15-0.86-1.75c-0.68-1.48-1.2-3.03-1.57-4.64
		c-0.02-0.02-0.03-0.05-0.02-0.08c-0.41-1.79-0.64-3.63-0.74-5.46c-0.11-3.54,0.37-7.12,1.52-10.46C48,76.76,52.59,70.65,58.32,65.8
		c2.85-2.44,6-4.6,9.3-6.5c3.23-1.81,6.78-3.21,10.43-4.24c3.67-1.01,7.45-1.69,11.26-1.9c3.78-0.19,7.64,0.01,11.09,1.25l0.05,0.02
		c0.65,0.23,1.38-0.07,1.66-0.72C102.34,53.23,102.24,52.68,101.91,52.29z M122.1,151.25c-0.63-0.4-1.45-0.21-1.85,0.4l0,0.01
		c-4.19,6.56-9.34,12.46-15.31,17.28c-2.45,1.95-5.05,3.69-7.79,5.17c-3.93,2.15-8.12,3.77-12.42,4.67c-7.31,1.47-15,1.15-21.9-1.28
		c-3.43-1.25-6.64-3-9.42-5.24c-2.75-2.27-5.13-4.96-6.98-8.03c-1.74-2.92-3-6.1-3.81-9.42c-0.91-3.7-1.25-7.57-1.09-11.39
		c0.44-7.24,2.59-14.39,6.79-20.25c0.06-0.09,0.13-0.18,0.19-0.26c1.96-3.23,5.49-6.47,8.11-8.62c-0.01,0-0.01,0-0.01-0.01
		c0.03-0.02,0.06-0.04,0.09-0.06c1.84-1.52,3.22-2.48,3.22-2.48l0.03,0.04c1.52-1.03,3.08-2.01,4.71-2.87
		c3.24-1.75,6.66-3.19,10.19-4.28c3.55-1.08,7.2-1.81,10.87-2.23c1.83-0.23,3.7-0.3,5.52-0.36c1.58,0,3.25,0.18,4.72,0.61
		c1.49,0.4,2.81,1.07,3.5,1.75c0.18,0.19,0.33,0.35,0.44,0.51c0.09,0.13,0.16,0.25,0.19,0.38c0.05,0.06,0.03,0.15,0.05,0.21
		c0.03,0.06,0.06,0.14,0.04,0.24c0,0.08,0.02,0.16,0.03,0.25c-0.02,0.02-0.03,0.03-0.01,0.05c-0.03,0.11-0.15,0.46-0.47,0.9
		c-0.37,0.45-0.81,0.94-1.4,1.42c-1.17,0.95-2.64,1.83-4.22,2.6c-3.16,1.54-6.73,2.66-10.34,3.46c-3.57,0.76-7.31,1.23-11.06,1.37
		c-3.74,0.13-7.51,0.06-11.13-0.44c-0.31-0.05-0.62-0.11-0.93-0.16c-2.38,2.07-4.06,4.12-5.17,5.74c-0.22,0.3-0.41,0.6-0.59,0.88
		c1.86,0.57,3.71,0.95,5.54,1.25c8.45,1.23,16.72,0.94,25.06-0.76c4.12-0.89,8.17-2.1,12.16-4c1.98-0.97,3.96-2.08,5.86-3.62
		c0.96-0.76,1.89-1.7,2.76-2.8c0.86-1.16,1.68-2.59,2.03-4.42c0.06-0.46,0.1-0.92,0.13-1.39c0-0.03,0-0.06,0-0.08
		c-0.01-0.4-0.04-0.79-0.08-1.18c-0.01-0.41-0.11-0.82-0.21-1.23c-0.08-0.27-0.13-0.56-0.23-0.83c0-0.04-0.01-0.07-0.02-0.09
		c-0.03-0.1-0.06-0.2-0.11-0.29c-0.59-1.62-1.62-2.92-2.7-3.97c-2.22-2.03-4.63-3-6.94-3.65c-2.33-0.65-4.64-0.9-7.01-0.88
		c-2.14,0.08-4.22,0.18-6.33,0.44c-4.19,0.49-8.32,1.35-12.35,2.6c-4.02,1.26-7.92,2.93-11.64,4.96c-3.93,2.13-7.61,4.77-10.93,7.82
		c-0.01,0-0.01-0.01-0.01-0.01c-2.08,1.96-3.83,3.9-5.16,5.5c-0.97,1.17-1.9,2.38-2.75,3.65c-0.58,0.92-1.19,1.79-1.72,2.73
		l-1.52,2.86c-0.01,0.02-0.02,0.03-0.02,0.05c-0.88,1.97-1.73,3.95-2.34,6.01c-1.27,4.11-2.01,8.37-2.14,12.66
		c-0.09,4.21,0.35,8.44,1.38,12.53c1.05,4.24,2.72,8.33,5.08,12.08c2.32,3.66,5.33,6.93,8.78,9.57c3.47,2.61,7.38,4.57,11.44,5.87
		c8.15,2.55,16.87,2.64,24.98,0.57c8.15-2.12,15.46-6.39,21.61-11.76c2.49-2.18,4.8-4.57,6.91-7.09c-1.73,1.79-3.66,3.34-5.77,4.66
		c5.51-5.13,10.01-11.2,13.59-17.69c0.07-0.11,0.11-0.24,0.14-0.37C122.31,151.41,122.21,151.32,122.1,151.25z"/>
	
		<linearGradient id="SVGID_00000048492329193330963280000011224326179135778460_" gradientUnits="userSpaceOnUse" x1="24.4324" y1="135.2863" x2="109.4552" y2="135.2863" gradientTransform="matrix(0.9678 -0.2519 0.2519 0.9678 -23.3805 25.9944)">
		<stop  offset="0" style="stop-color:#E5AD00"/>
		<stop  offset="0.2319" style="stop-color:#A47C00"/>
		<stop  offset="0.5048" style="stop-color:#5E4700"/>
		<stop  offset="0.7331" style="stop-color:#2B2100"/>
		<stop  offset="0.9047" style="stop-color:#0C0900"/>
		<stop  offset="1" style="stop-color:#000000"/>
	</linearGradient>
	<path style="fill:url(#SVGID_00000048492329193330963280000011224326179135778460_);" d="M122.1,151.25
		c-0.63-0.4-1.45-0.21-1.85,0.4l0,0.01c-4.19,6.56-9.34,12.46-15.31,17.28c-2.42,1.92-4.99,3.65-7.69,5.12
		c-0.07,0.04-0.14,0.06-0.21,0.08c-1.15,0.24-2.29,0.4-3.44,0.5c-0.07,0.01-0.14,0.02-0.2,0.05c-2.9,1.3-5.9,2.31-8.97,2.95
		c-7.31,1.47-15,1.15-21.9-1.28c-3.43-1.25-6.64-3-9.42-5.24c-2.75-2.27-5.13-4.96-6.98-8.03c-1.54-2.58-2.71-5.37-3.51-8.28
		c-1.13-4.04-1.57-8.31-1.38-12.53c0.44-7.24,2.59-14.39,6.79-20.25c0.06-0.09,0.13-0.18,0.19-0.26c1.96-3.23,5.49-6.47,8.11-8.62
		c-0.01,0-0.01,0-0.01-0.01c0.03-0.02,0.06-0.04,0.09-0.06c1.84-1.52,3.22-2.48,3.22-2.48l0.03,0.04c1.52-1.03,3.08-2.01,4.71-2.87
		c3.24-1.75,6.66-3.19,10.19-4.28c3.55-1.08,7.2-1.81,10.87-2.23c1.83-0.23,3.7-0.3,5.52-0.36c1.58,0,3.25,0.18,4.72,0.61
		c1.49,0.4,2.81,1.07,3.5,1.75c0.33,0.34,0.56,0.62,0.63,0.89c0.05,0.06,0.03,0.15,0.05,0.21c0.03,0.06,0.06,0.14,0.04,0.24
		c0,0.08,0.02,0.16,0.03,0.25c-0.02,0.02-0.03,0.03-0.01,0.05c0,0,0,0-0.01,0.01c-0.03,0.11-0.15,0.46-0.47,0.89
		c-0.37,0.45-0.81,0.94-1.4,1.42c-1.17,0.95-2.64,1.83-4.22,2.6c-3.16,1.54-6.73,2.66-10.34,3.46c-3.57,0.78-7.31,1.23-11.06,1.37
		c-3.74,0.13-7.51,0.06-11.13-0.44c-0.31-0.05-0.62-0.11-0.93-0.16c-2.83,2.46-4.67,4.89-5.76,6.63c0.29,0.09,0.59,0.18,0.88,0.26
		c1.57,0.43,3.11,0.74,4.66,1c8.45,1.23,16.72,0.94,25.06-0.76c4.12-0.89,8.17-2.1,12.16-4c1.98-0.97,3.96-2.08,5.86-3.62
		c0.96-0.76,1.89-1.7,2.76-2.8c0.86-1.16,1.68-2.59,2.03-4.42c0.06-0.46,0.1-0.92,0.13-1.39c0-0.03,0-0.06,0-0.08
		c-0.01-0.4-0.04-0.79-0.08-1.18c-0.01-0.31-0.07-0.62-0.14-0.92c0-0.04-0.01-0.07-0.02-0.09c-0.01-0.08-0.03-0.15-0.05-0.22
		c-0.12-0.41-0.18-0.83-0.36-1.21c-0.59-1.62-1.62-2.92-2.7-3.97c-2.22-2.03-4.63-3-6.94-3.65c-2.33-0.65-4.64-0.9-7.01-0.88
		c-2.14,0.08-4.22,0.18-6.33,0.44c-4.19,0.49-8.32,1.35-12.35,2.6c-4.02,1.26-7.92,2.93-11.64,4.96c-3.93,2.13-7.61,4.77-10.93,7.82
		c-0.01,0-0.01-0.01-0.01-0.01c-2.08,1.96-3.83,3.9-5.16,5.5c-0.97,1.17-1.9,2.38-2.75,3.65c-0.58,0.92-1.19,1.79-1.72,2.73
		l-1.52,2.86c-0.01,0.02-0.02,0.03-0.02,0.05c-0.88,1.97-1.73,3.95-2.34,6.01c-1.27,4.11-2.01,8.37-2.14,12.66
		c-0.09,4.59,0.44,9.22,1.68,13.67c1.06,3.84,2.64,7.54,4.78,10.94c2.32,3.66,5.33,6.93,8.78,9.57c3.47,2.61,7.38,4.57,11.44,5.87
		c8.15,2.55,16.87,2.64,24.98,0.57c8.15-2.12,15.46-6.39,21.61-11.76c0.49-0.42,0.97-0.86,1.44-1.3
		c5.51-5.13,10.01-11.2,13.59-17.69c0.07-0.11,0.11-0.24,0.14-0.37C122.31,151.41,122.21,151.32,122.1,151.25z M106.74,151.1
		c-0.06-0.08-0.11-0.16-0.17-0.23c-0.44-0.59-0.87-1.19-1.29-1.79c-0.84-1.15-1.67-2.3-2.51-3.45c-0.35-0.48-1.11-0.33-1.24,0.26
		l0,0c-0.1,0.45-0.6,0.68-1.01,0.46c-0.79-0.43-1.58-0.85-2.38-1.27c-1.06-0.56-2.12-1.14-3.17-1.7c1.42,1.96,2.84,3.91,4.26,5.86
		c0.06,0.08,0.11,0.16,0.17,0.24c0.33,0.46,0.66,0.91,1,1.37c-0.08-0.02-0.16-0.01-0.23,0.01c0.04,0,0.09,0.01,0.13,0.03
		c0.13,0.04,0.23,0.12,0.27,0.26c0.03,0.1-0.01,0.18-0.09,0.24c0.11,0,0.19-0.04,0.22-0.14c0.05-0.09,0.01-0.18-0.06-0.26
		c-0.05-0.07-0.12-0.11-0.2-0.14l0.24-1.09l0.05-0.19l0.24-1.08c1.21,0.64,2.4,1.28,3.6,1.92c0.21,0.11,0.43,0.23,0.63,0.34
		c0.27,0.14,0.55,0.28,0.81,0.44c0.45,0.24,0.89,0.47,1.33,0.71C107.13,151.64,106.94,151.37,106.74,151.1z M108.78,149.72
		c-0.43-0.07-0.69-0.01-0.8,0.47c-0.15,0.63-0.35,1.26-0.55,1.88c-0.16,0.47-0.02,0.67,0.45,0.72c1.41,0.16,2.82,0.34,4.22,0.51
		c0.22,0.04,0.44,0.07,0.82,0.14c-0.24,0.43-0.4,0.77-0.62,1.08c-3.11,4.8-6.95,8.15-11.53,10.08c-0.54,0.23-1.11-0.27-0.94-0.84
		c0.44-1.5,0.88-3,1.32-4.49c0.03-0.11,0.08-0.19,0.19-0.25c0.87-0.49,1.72-0.98,2.58-1.48c0.09-0.05,0.15-0.06,0.24,0.02
		c0.34,0.25,0.82,0.24,1.14-0.04c0.32-0.27,0.41-0.74,0.22-1.12c-0.21-0.38-0.66-0.57-1.06-0.46c-0.41,0.13-0.68,0.51-0.65,0.94
		c0.03,0.15-0.03,0.2-0.14,0.26c-0.8,0.47-1.62,0.93-2.43,1.38c-0.28,0.16-0.48,0.42-0.57,0.72c-0.53,1.84-1.08,3.68-1.62,5.52
		c-0.2,0.21-0.45,0.46-0.66,0.67c-1.06,0.32-2.17,0.57-3.31,0.74c0.02-0.02,0.03-0.02,0.05-0.04c0.85-0.46,1.69-0.94,2.53-1.41
		c0.25-0.14,0.44-0.38,0.52-0.66c0.68-2.34,1.35-4.67,2.04-7c0.03-0.13,0.07-0.18,0.22-0.21c0.43-0.05,0.74-0.41,0.76-0.85
		c0.02-0.42-0.25-0.8-0.66-0.91c-0.41-0.12-0.84,0.08-1.05,0.45c-0.2,0.37-0.1,0.83,0.22,1.11c0.08,0.06,0.1,0.13,0.07,0.22
		c-0.67,2.31-1.35,4.62-2.03,6.93c-0.16,0.2-0.29,0.37-0.45,0.57c-0.85,0.48-1.73,0.97-2.59,1.45c-0.06,0.04-0.13,0.1-0.15,0.17
		l-0.09,0.26c-0.32,0.05-0.64,0.08-0.96,0.12l0.31-1.07c0.08-0.28,0.27-0.51,0.52-0.65c0.59-0.33,1.19-0.65,1.77-0.97
		c0.17-0.21,0.32-0.4,0.49-0.61c0.77-2.61,1.53-5.22,2.29-7.82c0.04-0.12,0.02-0.21-0.04-0.31c-0.42-0.81-0.85-1.62-1.27-2.43
		c-0.14-0.26-0.12-0.56-0.01-0.83c0.12-0.29,0.07-0.63-0.13-0.9c-0.28-0.33-0.74-0.43-1.13-0.24c-0.39,0.2-0.57,0.62-0.48,1.03
		c0.11,0.42,0.49,0.71,0.94,0.68c0.11,0,0.15,0.02,0.18,0.12c0.42,0.8,0.84,1.59,1.26,2.4c0.02,0.24,0.05,0.56,0.08,0.8
		c-0.55,1.89-1.1,3.79-1.66,5.68c-0.14,0.5-0.28,1-0.43,1.49c-0.07,0.23-0.3,0.51-0.5,0.62c-0.6,0.33-1.21,0.66-1.82,1
		c-0.16,0.19-0.3,0.37-0.45,0.56c-0.1,0.34-0.2,0.68-0.3,1.03c-0.08,0.28-0.33,0.48-0.62,0.5c-1.15,0.07-2.33,0.08-3.53,0.02
		c-0.84-0.04-0.86-0.08-0.62-0.93c2.12-7.23,4.24-14.47,6.35-21.7c0.11-0.37-0.1-0.75-0.47-0.86l-0.7-0.21l-8.92,30.54
		c-0.11,0.39,0.13,0.81,0.54,0.89c2.72,0.52,5.46,0.66,8.22,0.43c0.09-0.01,0.17-0.03,0.26-0.07c3.91-1.78,7.62-4.09,11.02-6.79
		c5.6-4.5,10.48-9.98,14.52-16.06c0.3-0.45-0.01-1.05-0.55-1.07C115.32,150.51,112.04,150.19,108.78,149.72z M122.1,151.25
		c-0.63-0.4-1.45-0.21-1.85,0.4l0,0.01c-4.19,6.56-9.34,12.46-15.31,17.28c-2.45,1.95-5.05,3.69-7.79,5.17
		c1.93-0.38,3.89-0.96,5.83-1.72c1.99-0.76,3.86-1.7,5.6-2.78c0.04-0.03,0.09-0.06,0.12-0.1c5.48-5.12,9.97-11.17,13.53-17.64
		c0.07-0.11,0.11-0.24,0.14-0.37C122.31,151.41,122.21,151.32,122.1,151.25z"/>
	
		<radialGradient id="SVGID_00000019653675302442887890000015571582051982734502_" cx="77.5528" cy="73.1223" r="31.7239" gradientTransform="matrix(0.9678 -0.2519 0.2519 0.9678 -23.3805 25.9944)" gradientUnits="userSpaceOnUse">
		<stop  offset="0" style="stop-color:#FFFFFF"/>
		<stop  offset="0.0912" style="stop-color:#FAF1F1"/>
		<stop  offset="0.2625" style="stop-color:#EDCDCD"/>
		<stop  offset="0.4956" style="stop-color:#D89393"/>
		<stop  offset="0.7782" style="stop-color:#BB4343"/>
		<stop  offset="1" style="stop-color:#A30000"/>
	</radialGradient>
	<path style="fill:url(#SVGID_00000019653675302442887890000015571582051982734502_);" d="M101.16,50.82
		c-3.92-1.77-8.1-2.3-12.21-2.41c-4.12-0.04-8.21,0.41-12.25,1.24c-4.01,0.89-7.96,2.19-11.76,4.05c-3.67,1.85-7.22,3.99-10.49,6.57
		c-3.28,2.57-6.34,5.48-8.95,8.8c-2.65,3.31-4.84,7.06-6.36,11.11c-2.6,6.98-3.04,14.71-1.01,21.98c0.35,1.28,0.77,2.55,1.28,3.79
		c0.56,1.42,1.28,2.79,2.09,4.11c0.24,0.39,0.77,0.43,1.09,0.11c1.44-1.49,3.01-2.85,4.51-4.04c0.06-0.35,0.1-0.56,0.16-0.9
		c-0.41-0.69-0.78-1.41-1.09-2.16c-0.53-1.13-0.95-2.29-1.28-3.5c-0.02-0.02-0.03-0.05-0.02-0.08c-0.59-2.14-0.91-4.37-1.03-6.6
		c-0.11-3.54,0.37-7.12,1.52-10.46c2.33-6.81,6.92-12.92,12.65-17.77c2.85-2.44,6-4.6,9.3-6.5c3.23-1.81,6.78-3.21,10.43-4.24
		c3.67-1.01,7.45-1.69,11.26-1.9c3.78-0.19,7.64,0.01,11.09,1.25l0.05,0.02c0.65,0.23,1.38-0.07,1.66-0.71
		c0.05-0.09,0.07-0.18,0.09-0.28C102.03,51.69,101.73,51.07,101.16,50.82z"/>
</g>
</svg>
