<?xml version="1.0" encoding="utf-8"?>
<!-- Generator: Adobe Illustrator 27.8.1, SVG Export Plug-In . SVG Version: 6.00 Build 0)  -->
<svg version="1.1" id="Layer_1" xmlns="http://www.w3.org/2000/svg" xmlns:xlink="http://www.w3.org/1999/xlink" x="0px" y="0px"
	 viewBox="0 0 350 230" style="enable-background:new 0 0 350 230;" xml:space="preserve">
<style type="text/css">
	.st0{fill:#FFE6C5;}
	.st1{fill:#F7FFCA;}
	.st2{fill:#C8F99D;}
	.st3{fill:#F3F4C9;}
	.st4{fill:#EDE6CA;}
	.st5{fill:#D7FFE3;}
	.st6{fill:#F9FFD9;}
	.st7{fill:#FFEEDC;}
	.st8{fill:#E0FFCC;}
	.st9{fill:#FFEFAE;}
	.st10{fill:#B0FFF5;}
	.st11{fill:#DCFFC7;}
	.st12{fill:#CAFFDA;}
	.st13{fill:#CCFFFC;}
	.st14{fill:#FFFFFF;}
	.st15{fill:#0B4EA8;}
	.st16{fill:#651500;}
	.st17{fill:#AAAAAA;}
	.st18{fill:#B2930F;}
	.st19{fill:none;stroke:#F6F4E8;stroke-miterlimit:10;stroke-dasharray:2.0034,2.0034;}
	.st20{fill:#9B0000;}
	.st21{fill:#BAB500;}
	.st22{fill:#243506;}
	.st23{fill:#F4551E;}
	.st24{fill:#20F298;}
	.st25{fill:#611D5C;}
	.st26{fill:#698C14;}
	.st27{fill:#DCC900;}
	.st28{fill:#52221F;}
	.st29{fill:#8A8AFF;stroke:#8A8AFF;stroke-width:2;stroke-linecap:round;stroke-linejoin:round;stroke-miterlimit:10;}
	.st30{fill:#550968;}
	.st31{fill:#000042;}
	.st32{fill:#873A06;}
	.st33{fill:#F90606;}
	.st34{fill:#006A72;}
	.st35{fill:#FF0000;}
	.st36{fill:#8A8AFF;}
	.st37{fill:#69A6FF;}
	.st38{fill:#FEBA2B;}
	.st39{fill:#00F47F;}
	.st40{fill:#756400;}
	.st41{fill:#FF9700;}
	.st42{fill:#FF5B00;}
	.st43{fill:#FC9500;}
	.st44{fill:#999999;}
	.st45{fill:#BCBCBC;}
	.st46{fill:#FFBD47;}
	.st47{fill:#F99300;}
	.st48{fill:#008480;}
	.st49{fill-rule:evenodd;clip-rule:evenodd;fill:#1B5376;}
	.st50{fill-rule:evenodd;clip-rule:evenodd;fill:#E2310E;}
	.st51{fill:#00393F;}
	.st52{fill:url(#SVGID_00000031904956637179707790000010576146958959090580_);}
	.st53{fill:#7F0000;}
	.st54{fill:url(#SVGID_00000085938401196862293750000004581497551081409194_);}
	.st55{fill:url(#SVGID_00000155833517762542550380000016176901141365645215_);}
	
		.st56{fill:url(#SVGID_00000121975023690806904870000017213843393974659756_);stroke:url(#SVGID_00000029008125191131678990000005197581123771076257_);stroke-width:3;stroke-linecap:round;stroke-linejoin:round;stroke-miterlimit:10;}
	
		.st57{fill:url(#SVGID_00000169530451208469541150000015631044604634003598_);stroke:url(#SVGID_00000035519922460798769840000001274518329080948608_);stroke-width:3;stroke-linecap:round;stroke-linejoin:round;stroke-miterlimit:10;}
	
		.st58{fill:url(#SVGID_00000125600594954954188310000007889140146777314969_);stroke:url(#SVGID_00000160151172247571757520000005422481396486827708_);stroke-width:3;stroke-linecap:round;stroke-linejoin:round;stroke-miterlimit:10;}
	
		.st59{fill:url(#SVGID_00000000909379884151503280000017946219176974004889_);stroke:url(#SVGID_00000145036956609513920580000010718408876586658979_);stroke-width:3;stroke-linecap:round;stroke-linejoin:round;stroke-miterlimit:10;}
	.st60{fill:url(#SVGID_00000150781150282718696560000002408957890797625728_);}
	
		.st61{fill:url(#SVGID_00000110433585958951369560000002366548734116808091_);stroke:url(#SVGID_00000150091395033729345540000003832643951239589046_);stroke-width:3;stroke-linecap:round;stroke-linejoin:round;stroke-miterlimit:10;}
	
		.st62{fill:url(#SVGID_00000096040308189486377810000012911485025749919127_);stroke:url(#SVGID_00000094588287078045229380000017679522074093638536_);stroke-width:3;stroke-linecap:round;stroke-linejoin:round;stroke-miterlimit:10;}
	
		.st63{fill:url(#SVGID_00000106124156507757037950000009066175851805602688_);stroke:url(#SVGID_00000107567453620567873700000002605605814428559278_);stroke-width:3;stroke-linecap:round;stroke-linejoin:round;stroke-miterlimit:10;}
	
		.st64{fill:url(#SVGID_00000084487658134843551860000005685917698634285217_);stroke:url(#SVGID_00000022542181305174188090000009467105281442491527_);stroke-width:3;stroke-linecap:round;stroke-linejoin:round;stroke-miterlimit:10;}
	.st65{fill:url(#SVGID_00000132067087483491440140000013607746881707906693_);}
	.st66{fill:url(#SVGID_00000011745432324661915990000001018696236686023078_);}
	.st67{fill:url(#SVGID_00000027569508977857426950000003954094304450449596_);}
	.st68{fill:url(#SVGID_00000014598482074434630100000013942055717356085408_);}
	.st69{fill:url(#SVGID_00000036939162655771876470000016653983436825683642_);}
	.st70{fill:url(#SVGID_00000150800600727678001320000001118887994118876585_);}
	.st71{fill:none;stroke:url(#SVGID_00000156589961055428115950000014887790119722522276_);stroke-width:0.5;stroke-miterlimit:10;}
	.st72{fill:url(#SVGID_00000075135353216946062210000007583548042595968165_);}
	.st73{fill:url(#SVGID_00000013872839430680961290000008967587923677286563_);}
	.st74{fill:url(#SVGID_00000034091289405348283590000001284060906438310046_);}
	.st75{fill:url(#SVGID_00000150794279932516818760000007607324164500565645_);}
	.st76{fill:url(#SVGID_00000021105234066766025740000009884349879540780418_);}
	.st77{fill:url(#SVGID_00000130618939579908981130000016310491372596921022_);}
	.st78{fill:url(#SVGID_00000172430982703627267300000015200365078901909148_);}
	.st79{fill:url(#SVGID_00000160149767165878766680000009229259164886682799_);}
	.st80{fill:url(#SVGID_00000031929311275780468240000006821605741188032428_);}
	.st81{fill:url(#SVGID_00000113320182287955773420000012571296241194339995_);}
	.st82{fill:url(#SVGID_00000008866933086984865450000012625193363271928494_);}
	.st83{fill:url(#SVGID_00000072995272031627938940000015711863813373672093_);}
	.st84{fill:#006394;}
	.st85{fill:url(#SVGID_00000108279708887517540220000009677635385782128520_);}
	.st86{fill:url(#SVGID_00000101083016428250173630000018297075824630230669_);}
	.st87{fill:url(#SVGID_00000106850268187787408090000016447495220428542614_);}
	.st88{fill:url(#SVGID_00000171691466113866750210000008541414590284063916_);}
	.st89{fill:#FFE59C;}
	.st90{fill:url(#SVGID_00000146489735064091838060000006517543155808827279_);}
	.st91{fill:url(#SVGID_00000120559175696412910980000013713610611889916585_);}
	.st92{fill:url(#SVGID_00000058587053584355587830000010152014276213953713_);}
	.st93{fill:url(#SVGID_00000103238381644433842000000017165487928502806147_);}
</style>
<g id="XMLID_332_">
	<path class="st84" d="M222.04,119.26l3.77,1.35c-0.4,1.27-0.86,2.53-1.35,3.76c-1.66,4.14-3.81,8.03-6.38,11.6
		c-0.78,1.08-1.6,2.14-2.45,3.16c-2.84,3.4-6.08,6.44-9.64,9.08c-1.07,0.79-2.17,1.54-3.3,2.25c-3.72,2.35-7.73,4.26-11.96,5.67
		c-1.26,0.42-2.54,0.8-3.84,1.12c-4.22,1.07-8.62,1.65-13.14,1.67l0.12-4c4.09-0.04,8.08-0.56,11.9-1.52
		c1.3-0.32,2.58-0.7,3.84-1.12c3.83-1.29,7.46-3.02,10.83-5.14c1.13-0.71,2.23-1.46,3.3-2.25c3.22-2.39,6.15-5.15,8.72-8.22
		c0.86-1.02,1.68-2.07,2.45-3.16c2.32-3.24,4.26-6.76,5.78-10.5C221.19,121.79,221.64,120.54,222.04,119.26z M126.11,84.87
		c1.52-3.74,3.46-7.27,5.78-10.5c0.77-1.09,1.59-2.14,2.45-3.16c2.58-3.07,5.51-5.83,8.72-8.22c1.07-0.79,2.17-1.55,3.3-2.25
		c3.37-2.12,7-3.85,10.83-5.14c1.26-0.42,2.54-0.8,3.84-1.12c3.82-0.96,7.81-1.48,11.9-1.52l0.12-4c-4.52,0.02-8.92,0.61-13.14,1.67
		c-1.3,0.33-2.58,0.7-3.84,1.12c-4.24,1.41-8.25,3.32-11.96,5.67c-1.13,0.71-2.23,1.47-3.3,2.25c-3.56,2.63-6.8,5.68-9.64,9.08
		c-0.85,1.02-1.67,2.08-2.45,3.16c-2.57,3.57-4.72,7.46-6.38,11.6c-0.5,1.23-0.95,2.49-1.35,3.76l3.77,1.35
		C125.16,87.36,125.62,86.11,126.11,84.87z M174.08,148.15c3.36-0.05,6.64-0.48,9.79-1.24c1.3-0.32,2.58-0.69,3.84-1.13
		c3.14-1.08,6.13-2.5,8.92-4.23c1.13-0.71,2.24-1.46,3.3-2.26c2.63-1.98,5.04-4.25,7.18-6.76c0.86-1.01,1.68-2.07,2.45-3.16
		l-3.17-2.45c-0.76,1.09-1.58,2.15-2.45,3.16c-1.87,2.18-3.98,4.17-6.27,5.9c-1.06,0.81-2.16,1.56-3.3,2.26
		c-2.44,1.5-5.05,2.74-7.78,3.69c-1.25,0.44-2.53,0.81-3.84,1.12c-2.75,0.66-5.61,1.03-8.55,1.09L174.08,148.15z M181,137.08
		c1.31-0.3,2.59-0.67,3.84-1.12c2.11-0.75,4.13-1.71,6.02-2.85c1.14-0.69,2.25-1.44,3.3-2.26l-2.26-3.31
		c-0.96,0.76-1.96,1.45-3.01,2.08l0.53,0.31l-12.78,7.86C178.12,137.64,179.57,137.4,181,137.08z M155.95,74.8
		c-1.14,0.69-2.25,1.44-3.3,2.26l2.26,3.31c1.05-0.83,2.15-1.58,3.3-2.25c1.55-0.92,3.18-1.69,4.89-2.32
		c1.24-0.46,2.52-0.83,3.83-1.12c1.74-0.39,3.54-0.62,5.37-0.69l0.12-4c-2.27,0.06-4.47,0.35-6.61,0.84
		c-1.31,0.3-2.59,0.68-3.84,1.12C159.86,72.7,157.85,73.66,155.95,74.8z M172.73,59.75c-3.36,0.05-6.64,0.48-9.79,1.24
		c-1.3,0.32-2.58,0.69-3.84,1.13c-3.14,1.08-6.13,2.5-8.92,4.23c-1.13,0.71-2.24,1.46-3.3,2.26c-2.63,1.98-5.04,4.25-7.18,6.76
		c-0.86,1.01-1.68,2.07-2.45,3.16l3.17,2.45c0.76-1.09,1.58-2.15,2.45-3.16c1.87-2.18,3.98-4.17,6.27-5.9
		c1.06-0.81,2.16-1.56,3.3-2.26c2.44-1.5,5.05-2.74,7.78-3.69c1.25-0.44,2.53-0.81,3.84-1.12c2.75-0.66,5.61-1.03,8.55-1.09
		L172.73,59.75z M202.98,62.44c1.09,0.77,2.14,1.59,3.16,2.45c3.07,2.58,5.83,5.51,8.22,8.72c0.79,1.07,1.55,2.17,2.25,3.3
		c2.12,3.37,3.85,7,5.14,10.83c0.42,1.26,0.8,2.54,1.12,3.84c0.96,3.82,1.48,7.81,1.52,11.9l4,0.12c-0.02-4.52-0.61-8.92-1.67-13.14
		c-0.33-1.3-0.7-2.58-1.12-3.84c-1.41-4.24-3.32-8.25-5.67-11.96c-0.71-1.13-1.47-2.23-2.25-3.3c-2.63-3.56-5.68-6.8-9.07-9.64
		c-1.02-0.85-2.08-1.67-3.16-2.45c-3.57-2.57-7.46-4.72-11.6-6.38c-1.23-0.5-2.49-0.95-3.76-1.35l-1.35,3.77
		c1.28,0.4,2.53,0.86,3.76,1.35C196.22,58.18,199.74,60.12,202.98,62.44z M138.21,146.18c1.02,0.85,2.08,1.67,3.16,2.45
		c0.29,0.21,0.58,0.41,0.87,0.61l2.78-2.94c-0.4-0.27-0.81-0.55-1.2-0.83c-1.09-0.77-2.14-1.59-3.16-2.45
		c-3.07-2.58-5.83-5.5-8.22-8.72c-0.79-1.07-1.55-2.17-2.25-3.3c-2.12-3.37-3.85-7-5.14-10.83c-0.42-1.26-0.8-2.54-1.12-3.84
		c-0.96-3.82-1.48-7.8-1.52-11.9l-4-0.12c0.03,4.52,0.61,8.92,1.67,13.14c0.33,1.3,0.7,2.58,1.13,3.84
		c1.41,4.24,3.32,8.25,5.67,11.97c0.71,1.13,1.47,2.23,2.26,3.3C131.77,140.1,134.82,143.34,138.21,146.18z M150.42,153.9
		c0.84,0.39,1.7,0.76,2.56,1.11c1.23,0.5,2.49,0.95,3.76,1.35l1.35-3.77c-1.19-0.37-2.36-0.79-3.5-1.25L150.42,153.9z
		 M136.85,120.69L136.85,120.69c-0.05-0.1-0.1-0.21-0.14-0.31c-0.48-1.06-0.91-2.15-1.3-3.26c-0.44-1.25-0.81-2.53-1.12-3.84
		c-0.66-2.75-1.03-5.61-1.09-8.55l-4-0.12c0.05,3.36,0.48,6.64,1.24,9.79c0.32,1.3,0.69,2.58,1.13,3.84
		c1.08,3.14,2.5,6.13,4.23,8.92c0.71,1.14,1.46,2.24,2.26,3.3c1.98,2.63,4.25,5.04,6.76,7.18c1.01,0.86,2.07,1.68,3.16,2.45
		l2.45-3.17c-1.09-0.76-2.15-1.58-3.16-2.45c-2.19-1.87-4.17-3.98-5.9-6.27c-0.81-1.06-1.56-2.16-2.26-3.3
		C138.27,123.56,137.52,122.15,136.85,120.69z M142.23,117.47l3.54-1.87c-0.19-0.44-0.36-0.89-0.53-1.34
		c-0.46-1.25-0.83-2.52-1.12-3.84c-0.39-1.74-0.62-3.54-0.69-5.37l-4.01-0.12c0.06,2.27,0.35,4.47,0.84,6.61
		c0.3,1.31,0.68,2.59,1.13,3.84C141.65,116.09,141.93,116.79,142.23,117.47z M202.55,86.49c-0.69-1.14-1.44-2.25-2.26-3.3
		l-3.31,2.26c0.83,1.05,1.58,2.15,2.25,3.3c0.92,1.55,1.69,3.18,2.32,4.89c0.46,1.24,0.83,2.52,1.12,3.83
		c0.39,1.74,0.62,3.54,0.69,5.37l4,0.12c-0.06-2.27-0.35-4.47-0.84-6.61c-0.3-1.31-0.68-2.59-1.12-3.84
		C204.65,90.41,203.69,88.39,202.55,86.49z M211.39,90.77c0.44,1.25,0.81,2.53,1.13,3.84c0.66,2.75,1.03,5.61,1.09,8.55l4,0.12
		c-0.05-3.36-0.48-6.64-1.24-9.79c-0.32-1.3-0.69-2.58-1.12-3.84c-1.08-3.14-2.5-6.13-4.23-8.92c-0.71-1.13-1.46-2.24-2.26-3.3
		c-1.98-2.63-4.25-5.04-6.76-7.18c-1.01-0.86-2.07-1.68-3.16-2.45l-2.45,3.17c1.09,0.76,2.15,1.58,3.16,2.45
		c2.18,1.87,4.17,3.98,5.9,6.27c0.81,1.06,1.56,2.16,2.26,3.3C209.2,85.42,210.44,88.03,211.39,90.77z"/>
	
		<radialGradient id="SVGID_00000085209114276353294350000014697373599622533283_" cx="175.1777" cy="80.3901" r="59.4561" gradientUnits="userSpaceOnUse">
		<stop  offset="0" style="stop-color:#03E4FB"/>
		<stop  offset="0.0243" style="stop-color:#03DAF5"/>
		<stop  offset="0.1428" style="stop-color:#03ADDB"/>
		<stop  offset="0.2665" style="stop-color:#0487C5"/>
		<stop  offset="0.3939" style="stop-color:#0468B3"/>
		<stop  offset="0.5262" style="stop-color:#0450A5"/>
		<stop  offset="0.6655" style="stop-color:#043E9B"/>
		<stop  offset="0.8164" style="stop-color:#043495"/>
		<stop  offset="1" style="stop-color:#043193"/>
	</radialGradient>
	<path style="fill:url(#SVGID_00000085209114276353294350000014697373599622533283_);" d="M166.64,104.16l-62.3-1.95
		c45.74-18.98,66.36-20.36,69.51-20.45l1.63-46.66c18.08,43.58,20.18,64.36,20.43,68.95l50.11,1.74
		c-34.39,14.26-54.58,18.59-63.82,19.89l-6-3.52l0.2-6.77c0.63,0.11,1.26,0.16,1.9,0.16c6.43,0,11.66-5.23,11.66-11.66
		c0-6.43-5.23-11.66-11.66-11.66c-6.43,0-11.66,5.23-11.66,11.66C166.63,103.98,166.63,104.07,166.64,104.16z"/>
	
		<radialGradient id="SVGID_00000133505269681662509470000002668400585994288309_" cx="160.0966" cy="128.4791" r="31.2202" gradientUnits="userSpaceOnUse">
		<stop  offset="0" style="stop-color:#FF9348"/>
		<stop  offset="0.1255" style="stop-color:#E07B44"/>
		<stop  offset="0.3138" style="stop-color:#B85C3E"/>
		<stop  offset="0.4991" style="stop-color:#99443A"/>
		<stop  offset="0.6782" style="stop-color:#823337"/>
		<stop  offset="0.8484" style="stop-color:#752935"/>
		<stop  offset="1" style="stop-color:#702534"/>
	</radialGradient>
	<path style="fill:url(#SVGID_00000133505269681662509470000002668400585994288309_);" d="M152.33,150.38l-4.04,2.48l-16.06,9.87
		l11.7-12.38l2.8-2.96l17.05-18.04l-15.17-6.09l-4.28-1.72l-3.16-1.27l1.89-1l3.54-1.87l22.19-11.71c-0.09-0.48-0.15-0.98-0.17-1.49
		c0-0.11-0.01-0.22-0.01-0.33c0-5.34,4.33-9.66,9.66-9.66c5.34,0,9.66,4.33,9.66,9.66c0,5.34-4.33,9.66-9.66,9.66
		c-0.63,0-1.24-0.06-1.84-0.18c-0.99-0.19-1.94-0.54-2.8-1.01l-7.94,5.96l10.41,6.1l2.8,1.64l6.62,3.89l-5.1,3.14l0,0l-6.02,3.7
		L152.33,150.38z"/>
</g>
</svg>
