<?xml version="1.0" encoding="utf-8"?>
<!-- Generator: Adobe Illustrator 27.8.1, SVG Export Plug-In . SVG Version: 6.00 Build 0)  -->
<svg version="1.1" id="Layer_1" xmlns="http://www.w3.org/2000/svg" xmlns:xlink="http://www.w3.org/1999/xlink" x="0px" y="0px"
	 viewBox="0 0 350 230" style="enable-background:new 0 0 350 230;" xml:space="preserve">
<style type="text/css">
	.st0{fill:#FFE6C5;}
	.st1{fill:#F7FFCA;}
	.st2{fill:#C8F99D;}
	.st3{fill:#F3F4C9;}
	.st4{fill:#EDE6CA;}
	.st5{fill:#D7FFE3;}
	.st6{fill:#F9FFD9;}
	.st7{fill:#FFEEDC;}
	.st8{fill:#E0FFCC;}
	.st9{fill:#FFEFAE;}
	.st10{fill:#B0FFF5;}
	.st11{fill:#DCFFC7;}
	.st12{fill:#CAFFDA;}
	.st13{fill:#CCFFFC;}
	.st14{fill:#FFFFFF;}
	.st15{fill:#0B4EA8;}
	.st16{fill:#651500;}
	.st17{fill:#AAAAAA;}
	.st18{fill:#B2930F;}
	.st19{fill:none;stroke:#F6F4E8;stroke-miterlimit:10;stroke-dasharray:2.0034,2.0034;}
	.st20{fill:#9B0000;}
	.st21{fill:#BAB500;}
	.st22{fill:#243506;}
	.st23{fill:#F4551E;}
	.st24{fill:#20F298;}
	.st25{fill:#611D5C;}
	.st26{fill:#698C14;}
	.st27{fill:#DCC900;}
	.st28{fill:#52221F;}
	.st29{fill:#8A8AFF;stroke:#8A8AFF;stroke-width:2;stroke-linecap:round;stroke-linejoin:round;stroke-miterlimit:10;}
	.st30{fill:#550968;}
	.st31{fill:#000042;}
	.st32{fill:#873A06;}
	.st33{fill:#F90606;}
	.st34{fill:#006A72;}
	.st35{fill:#FF0000;}
	.st36{fill:#8A8AFF;}
	.st37{fill:#69A6FF;}
	.st38{fill:#FEBA2B;}
	.st39{fill:#00F47F;}
	.st40{fill:#756400;}
	.st41{fill:#FF9700;}
	.st42{fill:#FF5B00;}
	.st43{fill:#FC9500;}
	.st44{fill:#999999;}
	.st45{fill:#BCBCBC;}
	.st46{fill:#FFBD47;}
	.st47{fill:#F99300;}
	.st48{fill:#008480;}
	.st49{fill-rule:evenodd;clip-rule:evenodd;fill:#1B5376;}
	.st50{fill-rule:evenodd;clip-rule:evenodd;fill:#E2310E;}
	.st51{fill:#00393F;}
	.st52{fill:url(#SVGID_00000013903024993544250560000001661594148970082466_);}
	.st53{fill:#7F0000;}
	.st54{fill:url(#SVGID_00000112617786890362803380000011624439080706868923_);}
	.st55{fill:url(#SVGID_00000121991653127750663720000016459356221563905672_);}
	
		.st56{fill:url(#SVGID_00000180362256016415003830000014450998055892125333_);stroke:url(#SVGID_00000047767615035235482440000011114569612577900446_);stroke-width:3;stroke-linecap:round;stroke-linejoin:round;stroke-miterlimit:10;}
	
		.st57{fill:url(#SVGID_00000061435093699627636620000011186532408771518870_);stroke:url(#SVGID_00000001661250649784627400000002300587485191788434_);stroke-width:3;stroke-linecap:round;stroke-linejoin:round;stroke-miterlimit:10;}
	
		.st58{fill:url(#SVGID_00000122717915556164435520000005563706032554166172_);stroke:url(#SVGID_00000135690073640042634030000001870899754053088157_);stroke-width:3;stroke-linecap:round;stroke-linejoin:round;stroke-miterlimit:10;}
	
		.st59{fill:url(#SVGID_00000060006697871397278270000002466349385682220209_);stroke:url(#SVGID_00000095318096259531693470000002466117319306334143_);stroke-width:3;stroke-linecap:round;stroke-linejoin:round;stroke-miterlimit:10;}
	.st60{fill:url(#SVGID_00000074410975617845618540000011436321756527093924_);}
	
		.st61{fill:url(#SVGID_00000075145148251656851840000015369970094916915643_);stroke:url(#SVGID_00000005248243142390042370000015391472146410924211_);stroke-width:3;stroke-linecap:round;stroke-linejoin:round;stroke-miterlimit:10;}
	
		.st62{fill:url(#SVGID_00000127021040808352909180000015861364388565651099_);stroke:url(#SVGID_00000021806577065032637530000016369594602367833240_);stroke-width:3;stroke-linecap:round;stroke-linejoin:round;stroke-miterlimit:10;}
	
		.st63{fill:url(#SVGID_00000026872486757587718790000006436676694269600175_);stroke:url(#SVGID_00000026866920731109459340000012696114642486466709_);stroke-width:3;stroke-linecap:round;stroke-linejoin:round;stroke-miterlimit:10;}
	
		.st64{fill:url(#SVGID_00000054257120804366959660000000242957317530271362_);stroke:url(#SVGID_00000181046736094975435350000008533434560365078417_);stroke-width:3;stroke-linecap:round;stroke-linejoin:round;stroke-miterlimit:10;}
	.st65{fill:url(#SVGID_00000066479830670472602840000004663535041399805589_);}
	.st66{fill:url(#SVGID_00000037670062370955096200000018075330710258881706_);}
	.st67{fill:url(#SVGID_00000083799681521077744560000007842067292516837788_);}
	.st68{fill:url(#SVGID_00000065069605322152322290000010515360825984743299_);}
	.st69{fill:url(#SVGID_00000183241876426109452730000008620700527467847043_);}
	.st70{fill:url(#SVGID_00000082325870063373823320000016309257171353091244_);}
	.st71{fill:none;stroke:url(#SVGID_00000163793545837256480950000001448373950694231947_);stroke-width:0.5;stroke-miterlimit:10;}
	.st72{fill:url(#SVGID_00000141442655453134608010000008319655686011765679_);}
	.st73{fill:url(#SVGID_00000093863853127831810870000005174276961108439701_);}
	.st74{fill:url(#SVGID_00000002363738061800363880000000020621771401447296_);}
	.st75{fill:url(#SVGID_00000090275041151367651570000008530860209431430022_);}
	.st76{fill:url(#SVGID_00000158001819285167110180000004494453685924255671_);}
	.st77{fill:url(#SVGID_00000171713750169838367590000001705545831483245227_);}
	.st78{fill:url(#SVGID_00000044899758438211093860000002141171393936205988_);}
	.st79{fill:url(#SVGID_00000089548042533461495120000016860475508153510327_);}
	.st80{fill:url(#SVGID_00000159449374064360273110000006089448493137812381_);}
	.st81{fill:url(#SVGID_00000104678997618215092980000005404967225254730171_);}
	.st82{fill:url(#SVGID_00000004543157586633826910000005918470524120675223_);}
	.st83{fill:url(#SVGID_00000119094439475895836160000001434148006051197569_);}
	.st84{fill:#006394;}
	.st85{fill:url(#SVGID_00000078735922978884802580000004272784150643872672_);}
	.st86{fill:url(#SVGID_00000111155072986629166620000004402424007721553309_);}
	.st87{fill:url(#SVGID_00000041273554345378460460000005692660376020135840_);}
	.st88{fill:url(#SVGID_00000134235703133862279480000000768743176596825508_);}
	.st89{fill:#FFE59C;}
	.st90{fill:url(#SVGID_00000029015150169265105120000005189022285492829371_);}
	.st91{fill:url(#SVGID_00000177450506181319181820000011909972512893692827_);}
	.st92{fill:url(#SVGID_00000065074070237092060310000012987387422874730908_);}
	.st93{fill:url(#SVGID_00000163047766505121538300000006483483995387239852_);}
</style>
<radialGradient id="SVGID_00000070839781015819350450000018186594739777905039_" cx="175.0005" cy="97.332" r="65.0281" gradientUnits="userSpaceOnUse">
	<stop  offset="0" style="stop-color:#03C568"/>
	<stop  offset="0.2101" style="stop-color:#039B75"/>
	<stop  offset="0.4542" style="stop-color:#047282"/>
	<stop  offset="0.6759" style="stop-color:#04548B"/>
	<stop  offset="0.8653" style="stop-color:#044291"/>
	<stop  offset="1" style="stop-color:#043B93"/>
</radialGradient>
<path style="fill:url(#SVGID_00000070839781015819350450000018186594739777905039_);" d="M198.22,98.13l-50.85,48.8l22.23-40.48
	h-14.97l20.69-36.33h27.3l-21.13,28.01H198.22z M120.82,124.71c-0.44,1.2-1.58,2.06-2.93,2.06c-1.72,0-3.12-1.4-3.12-3.12
	c0-1.72,1.4-3.12,3.12-3.12c1.56,0,2.84,1.15,3.08,2.65h14.34l11.77-12.56l1.13,1.05l-12.22,13.05H120.82z M119.47,123.64
	c0-0.87-0.71-1.58-1.58-1.58c-0.87,0-1.58,0.71-1.58,1.58c0,0.87,0.71,1.58,1.58,1.58C118.76,125.23,119.47,124.52,119.47,123.64z
	 M136.07,138.02c0.13,0.34,0.21,0.71,0.21,1.1c0,1.72-1.4,3.12-3.12,3.12s-3.12-1.4-3.12-3.12c0-1.72,1.4-3.12,3.12-3.12
	c0.76,0,1.46,0.29,2,0.74l14.6-15.97l1.14,1.04L136.07,138.02z M134.74,139.12c0-0.87-0.71-1.58-1.58-1.58s-1.58,0.71-1.58,1.58
	c0,0.87,0.71,1.58,1.58,1.58S134.74,139.99,134.74,139.12z M123.51,85.42h36.2v1.54h-36.2c-0.35,1.35-1.56,2.35-3.02,2.35
	c-1.72,0-3.12-1.4-3.12-3.12c0-1.72,1.4-3.13,3.12-3.13C121.95,83.07,123.17,84.08,123.51,85.42z M122.08,86.2
	c0-0.87-0.71-1.58-1.58-1.58c-0.87,0-1.58,0.71-1.58,1.58c0,0.87,0.71,1.58,1.58,1.58C121.37,87.78,122.08,87.07,122.08,86.2z
	 M113.61,76.72c0-1.72,1.4-3.12,3.12-3.12c1.46,0,2.67,1,3.02,2.35h18.89c11.92,0,21.62-9.7,21.62-21.62V40.45
	c-1.35-0.35-2.35-1.56-2.35-3.02c0-1.72,1.4-3.12,3.12-3.12s3.12,1.4,3.12,3.12c0,1.46-1.01,2.67-2.35,3.02v13.87
	c0,12.77-10.39,23.16-23.16,23.16h-18.89c-0.35,1.35-1.56,2.35-3.02,2.35C115.01,79.84,113.61,78.44,113.61,76.72z M161.02,39.02
	c0.87,0,1.58-0.71,1.58-1.58c0-0.87-0.71-1.58-1.58-1.58s-1.58,0.71-1.58,1.58C159.44,38.31,160.15,39.02,161.02,39.02z
	 M115.15,76.72c0,0.87,0.71,1.58,1.58,1.58c0.87,0,1.58-0.71,1.58-1.58c0-0.87-0.71-1.58-1.58-1.58
	C115.86,75.13,115.15,75.84,115.15,76.72z M118.5,66.88c0-1.85,1.51-3.36,3.36-3.36c1.59,0,2.91,1.11,3.26,2.59h11.78
	c8.06,0,14.61-6.56,14.61-14.61v-8.6c-1.34-0.35-2.35-1.56-2.35-3.01c0-1.72,1.4-3.12,3.12-3.12c1.72,0,3.12,1.4,3.12,3.12
	c0,1.45-1,2.66-2.35,3.01v8.6c0,8.91-7.25,16.15-16.15,16.15h-11.78c-0.35,1.48-1.68,2.59-3.26,2.59
	C120.01,70.24,118.5,68.73,118.5,66.88z M152.29,41.46c0.87,0,1.58-0.71,1.58-1.57c0-0.87-0.71-1.58-1.58-1.58
	c-0.87,0-1.58,0.71-1.58,1.58C150.72,40.76,151.43,41.46,152.29,41.46z M120.04,66.88c0,1,0.82,1.82,1.82,1.82
	c1,0,1.82-0.82,1.82-1.82c0-1-0.82-1.82-1.82-1.82C120.86,65.06,120.04,65.87,120.04,66.88z M172.69,59.66V38.93
	c-1.35-0.35-2.35-1.56-2.35-3.02c0-1.72,1.4-3.12,3.12-3.12c1.72,0,3.12,1.4,3.12,3.12c0,1.46-1.01,2.67-2.35,3.02v20.73
	c1.35,0.35,2.35,1.56,2.35,3.02c0,1.72-1.4,3.12-3.12,3.12c-1.72,0-3.12-1.4-3.12-3.12C170.34,61.22,171.34,60.01,172.69,59.66z
	 M173.46,61.09c-0.87,0-1.58,0.71-1.58,1.58c0,0.87,0.71,1.58,1.58,1.58c0.87,0,1.58-0.71,1.58-1.58
	C175.04,61.8,174.33,61.09,173.46,61.09z M173.46,37.5c0.87,0,1.58-0.71,1.58-1.58c0-0.87-0.71-1.58-1.58-1.58
	c-0.87,0-1.58,0.71-1.58,1.58C171.88,36.79,172.59,37.5,173.46,37.5z M187.15,37.44c0-1.72,1.4-3.12,3.12-3.12s3.12,1.4,3.12,3.12
	c0,1.43-0.97,2.62-2.28,2.99c1.03,11.29,9.87,19.12,21.74,19.12h8.31c0.44-1.2,1.58-2.07,2.93-2.07c1.72,0,3.12,1.4,3.12,3.12
	c0,1.72-1.4,3.12-3.12,3.12c-1.56,0-2.84-1.15-3.08-2.64h-8.16c-12.75,0-22.22-8.45-23.29-20.62
	C188.19,40.16,187.15,38.92,187.15,37.44z M222.51,60.61c0,0.87,0.71,1.58,1.58,1.58c0.87,0,1.58-0.71,1.58-1.58
	c0-0.87-0.71-1.58-1.58-1.58C223.22,59.02,222.51,59.74,222.51,60.61z M188.69,37.44c0,0.87,0.71,1.58,1.58,1.58
	c0.87,0,1.58-0.71,1.58-1.58c0-0.87-0.71-1.58-1.58-1.58C189.4,35.85,188.69,36.56,188.69,37.44z M197.74,40.94
	c0-1.7,1.38-3.08,3.08-3.08s3.08,1.38,3.08,3.08c0,1.39-0.93,2.56-2.2,2.94c0.76,4.91,4.78,8.26,10.09,8.26h3.65
	c0.34-1.32,1.54-2.31,2.97-2.31c1.7,0,3.08,1.38,3.08,3.08c0,1.7-1.38,3.08-3.08,3.08c-1.43,0-2.62-0.99-2.97-2.31h-3.65
	c-6.18,0-10.84-3.96-11.63-9.74C198.78,43.64,197.74,42.41,197.74,40.94z M216.87,52.91c0,0.85,0.69,1.54,1.54,1.54
	c0.85,0,1.54-0.69,1.54-1.54c0-0.85-0.69-1.54-1.54-1.54C217.56,51.37,216.87,52.06,216.87,52.91z M199.28,40.94
	c0,0.85,0.69,1.54,1.54,1.54c0.85,0,1.54-0.69,1.54-1.54c0-0.85-0.69-1.54-1.54-1.54C199.97,39.4,199.28,40.09,199.28,40.94z
	 M228.25,65.55c1.72,0,3.13,1.4,3.13,3.12c0,1.46-1.01,2.67-2.36,3.02v14.56h-21.43c-0.35,1.35-1.56,2.35-3.02,2.35
	c-1.72,0-3.12-1.4-3.12-3.12c0-1.72,1.4-3.12,3.12-3.12c1.46,0,2.67,1,3.02,2.35h19.89V71.69c-1.35-0.35-2.35-1.56-2.35-3.02
	C225.12,66.95,226.53,65.55,228.25,65.55z M206.15,85.49c0-0.87-0.71-1.58-1.58-1.58s-1.58,0.71-1.58,1.58s0.71,1.58,1.58,1.58
	S206.15,86.36,206.15,85.49z M226.67,68.68c0,0.87,0.71,1.58,1.58,1.58c0.87,0,1.59-0.71,1.59-1.58c0-0.87-0.71-1.58-1.59-1.58
	C227.38,67.09,226.67,67.8,226.67,68.68z M240.51,106.18c0,1.72-1.4,3.12-3.12,3.12c-1.46,0-2.67-1-3.02-2.35h-37.43v-1.54h8.33
	l9.74-12.81h18.79c0.35-1.35,1.56-2.35,3.02-2.35c1.72,0,3.13,1.4,3.13,3.12s-1.4,3.12-3.13,3.12c-1.46,0-2.67-1-3.02-2.35h-18.03
	l-8.57,11.27h27.16c0.35-1.35,1.56-2.35,3.02-2.35C239.11,103.05,240.51,104.45,240.51,106.18z M235.24,93.37
	c0,0.87,0.71,1.58,1.58,1.58s1.59-0.71,1.59-1.58c0-0.87-0.71-1.58-1.59-1.58S235.24,92.49,235.24,93.37z M238.97,106.18
	c0-0.87-0.71-1.58-1.58-1.58c-0.87,0-1.58,0.71-1.58,1.58c0,0.87,0.71,1.58,1.58,1.58C238.26,107.76,238.97,107.05,238.97,106.18z
	 M225.23,115.66h-37v-1.54h37c0.35-1.35,1.56-2.35,3.02-2.35c1.72,0,3.13,1.4,3.13,3.12c0,1.72-1.4,3.12-3.13,3.12
	C226.79,118.01,225.58,117,225.23,115.66z M226.67,114.88c0,0.87,0.71,1.58,1.58,1.58c0.87,0,1.59-0.71,1.59-1.58
	c0-0.87-0.71-1.58-1.59-1.58C227.38,113.3,226.67,114.01,226.67,114.88z M112.61,101.43c-1.72,0-3.12-1.4-3.12-3.12
	c0-1.72,1.4-3.13,3.12-3.13c1.46,0,2.67,1.01,3.02,2.36h33.33v1.54h-33.33C115.29,100.42,114.07,101.43,112.61,101.43z M114.2,98.3
	c0-0.87-0.71-1.59-1.58-1.59c-0.87,0-1.58,0.71-1.58,1.59c0,0.87,0.71,1.58,1.58,1.58C113.49,99.89,114.2,99.18,114.2,98.3z
	 M163.56,141.3v11.49c1.35,0.35,2.35,1.56,2.35,3.02c0,1.72-1.4,3.12-3.12,3.12s-3.12-1.4-3.12-3.12c0-1.46,1.01-2.67,2.35-3.02
	V141.3c-1.35-0.35-2.35-1.56-2.35-3.02c0-1.72,1.4-3.12,3.12-3.12s3.12,1.4,3.12,3.12C165.91,139.74,164.91,140.95,163.56,141.3z
	 M162.79,139.87c0.87,0,1.58-0.71,1.58-1.58c0-0.87-0.71-1.58-1.58-1.58c-0.87,0-1.58,0.71-1.58,1.58
	C161.21,139.15,161.92,139.87,162.79,139.87z M162.79,154.22c-0.87,0-1.58,0.71-1.58,1.58c0,0.87,0.71,1.58,1.58,1.58
	c0.87,0,1.58-0.71,1.58-1.58C164.37,154.93,163.66,154.22,162.79,154.22z M191.17,157.76c0,1.72-1.4,3.13-3.12,3.13
	c-1.72,0-3.12-1.4-3.12-3.13c0-1.52,1.1-2.79,2.55-3.07v-8.33l-11.69-8.45v17.82c1.35,0.35,2.35,1.56,2.35,3.02
	c0,1.72-1.4,3.12-3.12,3.12c-1.72,0-3.12-1.4-3.12-3.12c0-1.46,1.01-2.67,2.35-3.02v-26.67h1.54v6.95l13.23,9.56v9.23
	C190.26,155.21,191.17,156.37,191.17,157.76z M175,157.16c-0.87,0-1.58,0.71-1.58,1.58c0,0.87,0.71,1.58,1.58,1.58
	s1.58-0.71,1.58-1.58C176.58,157.88,175.87,157.16,175,157.16z M189.63,157.76c0-0.87-0.71-1.58-1.58-1.58
	c-0.87,0-1.58,0.71-1.58,1.58c0,0.87,0.71,1.59,1.58,1.59C188.92,159.34,189.63,158.63,189.63,157.76z M194.25,135.93
	c0,1.72-1.4,3.12-3.12,3.12c-1.72,0-3.12-1.4-3.12-3.12c0-0.33,0.07-0.64,0.16-0.94l-5.08-3.42c-0.52,0.38-1.15,0.62-1.84,0.62
	c-1.72,0-3.12-1.4-3.12-3.12c0-1.72,1.4-3.12,3.12-3.12c1.72,0,3.12,1.4,3.12,3.12c0,0.47-0.11,0.91-0.3,1.31l4.91,3.3
	c0.56-0.54,1.32-0.87,2.15-0.87C192.84,132.8,194.25,134.2,194.25,135.93z M182.81,129.06c0-0.87-0.71-1.58-1.58-1.58
	s-1.58,0.71-1.58,1.58c0,0.87,0.71,1.58,1.58,1.58S182.81,129.93,182.81,129.06z M192.71,135.93c0-0.87-0.71-1.58-1.58-1.58
	c-0.87,0-1.58,0.71-1.58,1.58c0,0.87,0.71,1.58,1.58,1.58C192,137.51,192.71,136.8,192.71,135.93z M133.85,108.28
	c0.95,1.44,0.56,3.38-0.87,4.33c-1.43,0.95-3.38,0.56-4.33-0.87c-0.18-0.28-0.3-0.57-0.39-0.87l-6.12-0.03
	c-0.22,0.61-0.62,1.15-1.2,1.53c-1.43,0.95-3.38,0.56-4.33-0.87c-0.95-1.44-0.56-3.38,0.87-4.33c1.43-0.95,3.38-0.56,4.33,0.87
	c0.26,0.39,0.41,0.82,0.48,1.26l5.92,0.03c0.17-0.76,0.62-1.45,1.31-1.92C130.95,106.46,132.89,106.85,133.85,108.28z
	 M120.52,108.89c-0.48-0.73-1.47-0.93-2.2-0.44c-0.73,0.48-0.93,1.47-0.44,2.2c0.48,0.73,1.47,0.93,2.2,0.44
	C120.81,110.61,121.01,109.62,120.52,108.89z M132.56,109.14c-0.48-0.73-1.47-0.93-2.2-0.44c-0.73,0.48-0.93,1.47-0.44,2.2
	c0.48,0.73,1.47,0.93,2.2,0.44C132.85,110.85,133.05,109.86,132.56,109.14z M141.94,44.62c1.69,0.35,2.78,2,2.43,3.69
	c-0.35,1.69-2,2.78-3.69,2.43c-0.32-0.07-0.62-0.19-0.89-0.35l-4.37,4.29c0.27,0.58,0.37,1.25,0.23,1.93
	c-0.35,1.69-2,2.78-3.69,2.43c-1.69-0.35-2.78-2-2.43-3.69c0.35-1.69,2-2.78,3.69-2.43c0.46,0.09,0.87,0.29,1.22,0.56l4.22-4.15
	c-0.41-0.66-0.59-1.47-0.42-2.28C138.6,45.36,140.26,44.27,141.94,44.62z M132.92,54.44c-0.86-0.18-1.69,0.38-1.87,1.23
	c-0.18,0.86,0.38,1.69,1.23,1.87c0.86,0.18,1.69-0.38,1.87-1.23C134.32,55.45,133.77,54.61,132.92,54.44z M141.63,46.13
	c-0.86-0.18-1.69,0.38-1.87,1.23c-0.18,0.86,0.38,1.69,1.23,1.87c0.86,0.18,1.69-0.38,1.87-1.23
	C143.04,47.14,142.49,46.3,141.63,46.13z M152.25,153.83c0.23,1.71-0.97,3.29-2.67,3.52c-1.71,0.23-3.29-0.96-3.52-2.67
	c-0.04-0.33-0.02-0.65,0.03-0.96l-5.5-2.7c-0.46,0.45-1.06,0.77-1.74,0.86c-1.71,0.23-3.29-0.96-3.52-2.67
	c-0.23-1.71,0.97-3.29,2.67-3.52c1.71-0.23,3.29,0.96,3.52,2.67c0.06,0.47,0.01,0.92-0.12,1.34l5.31,2.6
	c0.48-0.61,1.19-1.04,2.02-1.15C150.44,150.93,152.02,152.12,152.25,153.83z M140,148.58c-0.12-0.87-0.92-1.47-1.78-1.35
	c-0.87,0.12-1.47,0.92-1.35,1.78c0.12,0.87,0.92,1.47,1.78,1.35C139.51,150.24,140.11,149.44,140,148.58z M150.73,154.04
	c-0.12-0.87-0.92-1.47-1.78-1.35c-0.87,0.12-1.47,0.92-1.35,1.78c0.12,0.87,0.92,1.47,1.78,1.35
	C150.24,155.71,150.85,154.91,150.73,154.04z M183.58,58.71c-1.44,0.95-3.38,0.55-4.33-0.89c-0.95-1.44-0.55-3.38,0.89-4.33
	c0.28-0.18,0.57-0.3,0.88-0.38l0.05-6.12c-0.6-0.22-1.15-0.62-1.53-1.2c-0.95-1.44-0.55-3.38,0.89-4.33
	c1.44-0.95,3.38-0.55,4.33,0.89c0.95,1.44,0.55,3.38-0.89,4.33c-0.39,0.26-0.82,0.41-1.26,0.47l-0.05,5.92
	c0.76,0.17,1.45,0.62,1.91,1.32C185.41,55.82,185.02,57.76,183.58,58.71z M183.02,45.39c0.73-0.48,0.93-1.46,0.45-2.19
	c-0.48-0.73-1.47-0.93-2.19-0.45c-0.73,0.48-0.93,1.46-0.45,2.19C181.31,45.67,182.29,45.87,183.02,45.39z M182.73,57.43
	c0.73-0.48,0.93-1.46,0.45-2.19c-0.48-0.73-1.47-0.93-2.19-0.45c-0.73,0.48-0.93,1.46-0.45,2.19C181.02,57.7,182,57.91,182.73,57.43
	z M234.76,121.29c0,1.72-1.4,3.12-3.12,3.12c-1.46,0-2.67-1-3.02-2.35h-13.77c-8.45,0-15.32,6.87-15.32,15.32v14.02
	c1.35,0.35,2.35,1.56,2.35,3.02c0,1.72-1.4,3.12-3.12,3.12c-1.72,0-3.12-1.4-3.12-3.12c0-1.46,1.01-2.67,2.35-3.02v-14.02
	c0-9.3,7.56-16.86,16.86-16.86h13.77c0.35-1.35,1.56-2.35,3.02-2.35C233.36,118.16,234.76,119.57,234.76,121.29z M198.76,152.83
	c-0.87,0-1.58,0.71-1.58,1.58c0,0.87,0.71,1.58,1.58,1.58s1.58-0.71,1.58-1.58C200.34,153.55,199.63,152.83,198.76,152.83z
	 M233.22,121.29c0-0.87-0.71-1.58-1.58-1.58s-1.58,0.71-1.58,1.58c0,0.87,0.71,1.58,1.58,1.58S233.22,122.16,233.22,121.29z
	 M230.66,130.72c0,1.78-1.45,3.23-3.23,3.23c-1.51,0-2.78-1.05-3.13-2.46h-6.92c-4.89,0-8.86,3.98-8.86,8.86v6.82
	c1.36,0.35,2.38,1.57,2.38,3.04c0,1.73-1.41,3.15-3.15,3.15c-1.73,0-3.15-1.41-3.15-3.15c0-1.47,1.01-2.69,2.38-3.04v-6.82
	c0-5.74,4.67-10.4,10.4-10.4h6.92c0.35-1.41,1.61-2.46,3.13-2.46C229.21,127.49,230.66,128.94,230.66,130.72z M207.75,148.6
	c-0.88,0-1.61,0.72-1.61,1.61c0,0.89,0.72,1.61,1.61,1.61c0.88,0,1.61-0.72,1.61-1.61C209.35,149.32,208.63,148.6,207.75,148.6z
	 M229.12,130.72c0-0.93-0.76-1.69-1.69-1.69s-1.69,0.76-1.69,1.69c0,0.93,0.76,1.69,1.69,1.69S229.12,131.65,229.12,130.72z"/>
</svg>
