<?xml version="1.0" encoding="utf-8"?>
<!-- Generator: Adobe Illustrator 27.8.1, SVG Export Plug-In . SVG Version: 6.00 Build 0)  -->
<svg version="1.1" xmlns="http://www.w3.org/2000/svg" xmlns:xlink="http://www.w3.org/1999/xlink" x="0px" y="0px"
	 viewBox="0 0 350 230" style="enable-background:new 0 0 350 230;" xml:space="preserve">
<style type="text/css">
	.st0{fill:#FFFDE6;}
	.st1{fill:#EBFFFB;}
	.st2{fill:#E6FFF4;}
	.st3{fill:#EEFFF2;}
	.st4{fill:#F3FFE6;}
	.st5{fill:#F3FFFF;}
	.st6{fill:#ECFFE9;}
	.st7{fill:#0E045F;}
	.st8{fill:#CD00FF;}
	.st9{fill:#8CC63F;}
	.st10{fill:#39B54A;}
	.st11{fill:#00770B;}
	.st12{fill:#040051;}
	.st13{fill:#005B59;}
	.st14{fill:#00EDFF;}
	.st15{fill:#006359;}
	.st16{fill:#00006D;}
	.st17{fill:#29004C;}
	.st18{fill:#EB900C;}
	.st19{fill:#DB6E28;}
	.st20{fill:#FFFFFF;}
	.st21{fill:#2D000F;}
	.st22{fill:#660061;}
	.st23{fill:#660061;stroke:#2D002D;stroke-miterlimit:10;}
	.st24{fill:#00AFC6;}
	.st25{fill:#003F39;}
	.st26{fill:#00DCC8;}
	.st27{fill:#FD1F00;}
	.st28{fill:#07186D;}
	.st29{fill:#005C7C;}
	.st30{fill:#8C4B03;}
	.st31{fill:#A38B00;}
	.st32{fill:#20008F;}
	.st33{fill:#003A1D;}
	.st34{fill:#284200;}
	.st35{fill:#00CED8;}
	.st36{fill:url(#graphics_00000098933063366873922600000011520884395771873200_);}
	.st37{fill:url(#SVGID_1_);}
	.st38{fill:url(#SVGID_00000088128020448040244490000008710257615050094721_);}
	.st39{fill:#1F1F29;}
	.st40{fill:url(#SVGID_00000129198936531833052590000010276403876383684996_);}
	.st41{fill:#909198;}
	.st42{fill:#149BB7;}
	.st43{fill:url(#SVGID_00000111149503023173240180000011892646334416044432_);}
	.st44{fill:#0E5883;}
	.st45{fill:#0D1230;}
	.st46{fill:#283151;}
	.st47{fill:url(#SVGID_00000052790028881910820510000003417637631468393108_);}
	.st48{fill:url(#SVGID_00000132061966267440277570000011568664995762405029_);}
	.st49{fill:#92959D;}
	.st50{fill:url(#SVGID_00000033342099623550664530000005564529304393033895_);}
	.st51{fill:#7ABF45;}
	.st52{fill:#1DA4CC;}
	.st53{fill:#F89B1B;}
	.st54{fill:#16A79A;}
	.st55{fill:#FAFFD4;}
	.st56{fill:url(#SVGID_00000181775431033758848170000003748161508915889828_);}
	.st57{fill:#070B33;}
	.st58{fill:url(#SVGID_00000007389573803039909040000015867382533374152103_);}
	.st59{fill:#FEFEFE;}
	.st60{fill:url(#SVGID_00000008120495661259986230000017964660346441920945_);}
	.st61{fill:#0C1941;}
	.st62{fill:#EE5A14;}
	.st63{fill:#1A56B5;}
	.st64{fill:url(#SVGID_00000128475651424428095780000008090168219911412143_);}
	.st65{fill:url(#SVGID_00000095297322939625846230000017868241577136170164_);}
	.st66{fill:#264C61;}
	.st67{fill:#071926;}
	.st68{fill:url(#SVGID_00000075848585595662563580000001702054922816995205_);}
	.st69{fill:url(#SVGID_00000155849874495709247810000013608496730288349588_);}
	.st70{fill:url(#SVGID_00000052814420495786813780000017693923567460040620_);}
	.st71{fill:url(#SVGID_00000037672495438729076340000010584243953605915297_);}
	.st72{fill:url(#SVGID_00000060746531978953570710000011016457001943149196_);}
	.st73{fill:#18306C;}
	.st74{fill:#1A6FC2;}
	.st75{fill:url(#SVGID_00000161593476261620976960000002969128770783079056_);}
	.st76{fill:url(#SVGID_00000067926247593377262730000012673389287433470633_);}
	.st77{fill:none;stroke:#282A58;stroke-linecap:round;stroke-linejoin:round;stroke-miterlimit:10;}
	.st78{clip-path:url(#SVGID_00000151516251737501914260000014953497485685677213_);fill:#195C96;}
	.st79{clip-path:url(#SVGID_00000151516251737501914260000014953497485685677213_);fill:#195D97;}
	.st80{clip-path:url(#SVGID_00000151516251737501914260000014953497485685677213_);fill:#195E98;}
	.st81{clip-path:url(#SVGID_00000151516251737501914260000014953497485685677213_);fill:#195F99;}
	.st82{clip-path:url(#SVGID_00000151516251737501914260000014953497485685677213_);fill:#19609A;}
	.st83{clip-path:url(#SVGID_00000151516251737501914260000014953497485685677213_);fill:#19619B;}
	.st84{clip-path:url(#SVGID_00000151516251737501914260000014953497485685677213_);fill:#1A629C;}
	.st85{clip-path:url(#SVGID_00000151516251737501914260000014953497485685677213_);fill:#1A639D;}
	.st86{clip-path:url(#SVGID_00000151516251737501914260000014953497485685677213_);fill:#1A649E;}
	.st87{clip-path:url(#SVGID_00000151516251737501914260000014953497485685677213_);fill:#1A659F;}
	.st88{clip-path:url(#SVGID_00000151516251737501914260000014953497485685677213_);fill:#1A66A0;}
	.st89{clip-path:url(#SVGID_00000151516251737501914260000014953497485685677213_);fill:#1A67A1;}
	.st90{clip-path:url(#SVGID_00000151516251737501914260000014953497485685677213_);fill:#1A68A3;}
	.st91{clip-path:url(#SVGID_00000151516251737501914260000014953497485685677213_);fill:#1A69A4;}
	.st92{clip-path:url(#SVGID_00000151516251737501914260000014953497485685677213_);fill:#1A6AA5;}
	.st93{clip-path:url(#SVGID_00000151516251737501914260000014953497485685677213_);fill:#1A6BA6;}
	.st94{clip-path:url(#SVGID_00000151516251737501914260000014953497485685677213_);fill:#1A6CA7;}
	.st95{clip-path:url(#SVGID_00000151516251737501914260000014953497485685677213_);fill:#1A6DA8;}
	.st96{clip-path:url(#SVGID_00000151516251737501914260000014953497485685677213_);fill:#1B6EA9;}
	.st97{clip-path:url(#SVGID_00000151516251737501914260000014953497485685677213_);fill:#1B6FAA;}
	.st98{clip-path:url(#SVGID_00000151516251737501914260000014953497485685677213_);fill:#1B70AB;}
	.st99{clip-path:url(#SVGID_00000151516251737501914260000014953497485685677213_);fill:#1B71AC;}
	.st100{clip-path:url(#SVGID_00000151516251737501914260000014953497485685677213_);fill:#1B72AD;}
	.st101{clip-path:url(#SVGID_00000151516251737501914260000014953497485685677213_);fill:#1B73AE;}
	.st102{clip-path:url(#SVGID_00000151516251737501914260000014953497485685677213_);fill:#1B74AF;}
	.st103{clip-path:url(#SVGID_00000151516251737501914260000014953497485685677213_);fill:#1B75B0;}
	.st104{clip-path:url(#SVGID_00000151516251737501914260000014953497485685677213_);fill:#1C76B0;}
	.st105{clip-path:url(#SVGID_00000151516251737501914260000014953497485685677213_);fill:#1C77B1;}
	.st106{clip-path:url(#SVGID_00000151516251737501914260000014953497485685677213_);fill:#1C78B1;}
	.st107{clip-path:url(#SVGID_00000151516251737501914260000014953497485685677213_);fill:#1C79B2;}
	.st108{clip-path:url(#SVGID_00000151516251737501914260000014953497485685677213_);fill:#1D7AB3;}
	.st109{clip-path:url(#SVGID_00000151516251737501914260000014953497485685677213_);fill:#1D7BB3;}
	.st110{clip-path:url(#SVGID_00000151516251737501914260000014953497485685677213_);fill:#1D7CB4;}
	.st111{clip-path:url(#SVGID_00000151516251737501914260000014953497485685677213_);fill:#1E7DB4;}
	.st112{clip-path:url(#SVGID_00000151516251737501914260000014953497485685677213_);fill:#1E7EB5;}
	.st113{clip-path:url(#SVGID_00000151516251737501914260000014953497485685677213_);fill:#1E7FB5;}
	.st114{clip-path:url(#SVGID_00000151516251737501914260000014953497485685677213_);fill:#1E80B6;}
	.st115{clip-path:url(#SVGID_00000151516251737501914260000014953497485685677213_);fill:#1F81B7;}
	.st116{clip-path:url(#SVGID_00000151516251737501914260000014953497485685677213_);fill:#1F82B7;}
	.st117{clip-path:url(#SVGID_00000151516251737501914260000014953497485685677213_);fill:#1F83B8;}
	.st118{clip-path:url(#SVGID_00000151516251737501914260000014953497485685677213_);fill:#1F84B8;}
	.st119{clip-path:url(#SVGID_00000151516251737501914260000014953497485685677213_);fill:#2085B9;}
	.st120{clip-path:url(#SVGID_00000151516251737501914260000014953497485685677213_);fill:#2087BA;}
	.st121{clip-path:url(#SVGID_00000151516251737501914260000014953497485685677213_);fill:#2088BA;}
	.st122{clip-path:url(#SVGID_00000151516251737501914260000014953497485685677213_);fill:#2189BB;}
	.st123{clip-path:url(#SVGID_00000151516251737501914260000014953497485685677213_);fill:#218ABB;}
	.st124{clip-path:url(#SVGID_00000151516251737501914260000014953497485685677213_);fill:#218BBC;}
	.st125{clip-path:url(#SVGID_00000151516251737501914260000014953497485685677213_);fill:#218CBC;}
	.st126{clip-path:url(#SVGID_00000151516251737501914260000014953497485685677213_);fill:#228DBD;}
	.st127{clip-path:url(#SVGID_00000151516251737501914260000014953497485685677213_);fill:#228EBE;}
	.st128{clip-path:url(#SVGID_00000151516251737501914260000014953497485685677213_);fill:#228FBE;}
	.st129{clip-path:url(#SVGID_00000151516251737501914260000014953497485685677213_);fill:#2390BF;}
	.st130{clip-path:url(#SVGID_00000151516251737501914260000014953497485685677213_);fill:#2391BF;}
	.st131{clip-path:url(#SVGID_00000151516251737501914260000014953497485685677213_);fill:#2392C0;}
	.st132{clip-path:url(#SVGID_00000151516251737501914260000014953497485685677213_);fill:#2393C1;}
	.st133{clip-path:url(#SVGID_00000151516251737501914260000014953497485685677213_);fill:#2494C1;}
	.st134{clip-path:url(#SVGID_00000151516251737501914260000014953497485685677213_);fill:#2495C2;}
	.st135{clip-path:url(#SVGID_00000151516251737501914260000014953497485685677213_);fill:#2496C2;}
	.st136{clip-path:url(#SVGID_00000151516251737501914260000014953497485685677213_);fill:#2497C3;}
	.st137{clip-path:url(#SVGID_00000151516251737501914260000014953497485685677213_);fill:#2598C3;}
	.st138{clip-path:url(#SVGID_00000151516251737501914260000014953497485685677213_);fill:#2599C4;}
	.st139{clip-path:url(#SVGID_00000151516251737501914260000014953497485685677213_);fill:#269AC4;}
	.st140{clip-path:url(#SVGID_00000151516251737501914260000014953497485685677213_);fill:#279AC5;}
	.st141{clip-path:url(#SVGID_00000151516251737501914260000014953497485685677213_);fill:#279BC5;}
	.st142{clip-path:url(#SVGID_00000151516251737501914260000014953497485685677213_);fill:#289BC5;}
	.st143{clip-path:url(#SVGID_00000151516251737501914260000014953497485685677213_);fill:#289CC5;}
	.st144{clip-path:url(#SVGID_00000151516251737501914260000014953497485685677213_);fill:#299CC5;}
	.st145{clip-path:url(#SVGID_00000151516251737501914260000014953497485685677213_);fill:#299DC5;}
	.st146{clip-path:url(#SVGID_00000151516251737501914260000014953497485685677213_);fill:#2A9DC6;}
	.st147{clip-path:url(#SVGID_00000151516251737501914260000014953497485685677213_);fill:#2A9EC6;}
	.st148{clip-path:url(#SVGID_00000151516251737501914260000014953497485685677213_);fill:#2B9EC6;}
	.st149{clip-path:url(#SVGID_00000151516251737501914260000014953497485685677213_);fill:#2B9FC6;}
	.st150{clip-path:url(#SVGID_00000151516251737501914260000014953497485685677213_);fill:#2C9FC6;}
	.st151{clip-path:url(#SVGID_00000151516251737501914260000014953497485685677213_);fill:#2DA0C7;}
	.st152{clip-path:url(#SVGID_00000151516251737501914260000014953497485685677213_);fill:#2EA1C7;}
	.st153{clip-path:url(#SVGID_00000151516251737501914260000014953497485685677213_);fill:#2FA2C7;}
	.st154{clip-path:url(#SVGID_00000151516251737501914260000014953497485685677213_);fill:#30A2C8;}
	.st155{clip-path:url(#SVGID_00000151516251737501914260000014953497485685677213_);fill:#30A3C8;}
	.st156{clip-path:url(#SVGID_00000151516251737501914260000014953497485685677213_);fill:#31A4C8;}
	.st157{clip-path:url(#SVGID_00000151516251737501914260000014953497485685677213_);fill:#32A4C8;}
	.st158{clip-path:url(#SVGID_00000151516251737501914260000014953497485685677213_);fill:#33A5C9;}
	.st159{clip-path:url(#SVGID_00000151516251737501914260000014953497485685677213_);fill:#33A6C9;}
	.st160{clip-path:url(#SVGID_00000151516251737501914260000014953497485685677213_);fill:#34A6C9;}
	.st161{clip-path:url(#SVGID_00000151516251737501914260000014953497485685677213_);fill:#35A7C9;}
	.st162{clip-path:url(#SVGID_00000151516251737501914260000014953497485685677213_);fill:#36A8CA;}
	.st163{clip-path:url(#SVGID_00000151516251737501914260000014953497485685677213_);fill:#37A9CA;}
	.st164{clip-path:url(#SVGID_00000151516251737501914260000014953497485685677213_);fill:#38A9CA;}
	.st165{clip-path:url(#SVGID_00000151516251737501914260000014953497485685677213_);fill:#38AACA;}
	.st166{clip-path:url(#SVGID_00000151516251737501914260000014953497485685677213_);fill:#39ABCB;}
	.st167{clip-path:url(#SVGID_00000151516251737501914260000014953497485685677213_);fill:#3AACCB;}
	.st168{clip-path:url(#SVGID_00000151516251737501914260000014953497485685677213_);fill:#3BACCB;}
	.st169{clip-path:url(#SVGID_00000151516251737501914260000014953497485685677213_);fill:#3CADCC;}
	.st170{clip-path:url(#SVGID_00000151516251737501914260000014953497485685677213_);fill:#3DAECC;}
	.st171{clip-path:url(#SVGID_00000151516251737501914260000014953497485685677213_);fill:#3EAFCC;}
	.st172{clip-path:url(#SVGID_00000151516251737501914260000014953497485685677213_);fill:#3FB0CD;}
	.st173{clip-path:url(#SVGID_00000151516251737501914260000014953497485685677213_);fill:#40B1CD;}
	.st174{clip-path:url(#SVGID_00000151516251737501914260000014953497485685677213_);fill:#41B2CD;}
	.st175{clip-path:url(#SVGID_00000151516251737501914260000014953497485685677213_);fill:#42B2CE;}
	.st176{clip-path:url(#SVGID_00000151516251737501914260000014953497485685677213_);fill:#43B3CE;}
	.st177{clip-path:url(#SVGID_00000151516251737501914260000014953497485685677213_);fill:#44B4CE;}
	.st178{clip-path:url(#SVGID_00000151516251737501914260000014953497485685677213_);fill:#45B5CF;}
	.st179{clip-path:url(#SVGID_00000151516251737501914260000014953497485685677213_);fill:#46B6CF;}
	.st180{clip-path:url(#SVGID_00000151516251737501914260000014953497485685677213_);fill:#47B7CF;}
	.st181{clip-path:url(#SVGID_00000151516251737501914260000014953497485685677213_);fill:#48B8D0;}
	.st182{clip-path:url(#SVGID_00000151516251737501914260000014953497485685677213_);fill:#4AB9D0;}
	.st183{clip-path:url(#SVGID_00000151516251737501914260000014953497485685677213_);fill:#4BBAD1;}
	.st184{clip-path:url(#SVGID_00000151516251737501914260000014953497485685677213_);fill:#4CBBD1;}
	.st185{clip-path:url(#SVGID_00000151516251737501914260000014953497485685677213_);fill:#4DBCD1;}
	.st186{clip-path:url(#SVGID_00000151516251737501914260000014953497485685677213_);fill:#4EBDD2;}
	.st187{clip-path:url(#SVGID_00000151516251737501914260000014953497485685677213_);fill:#4FBED2;}
	.st188{clip-path:url(#SVGID_00000151516251737501914260000014953497485685677213_);fill:#51BFD3;}
	.st189{clip-path:url(#SVGID_00000151516251737501914260000014953497485685677213_);fill:#52C0D3;}
	.st190{clip-path:url(#SVGID_00000151516251737501914260000014953497485685677213_);fill:#53C1D3;}
	.st191{clip-path:url(#SVGID_00000151516251737501914260000014953497485685677213_);fill:#54C3D4;}
	.st192{clip-path:url(#SVGID_00000151516251737501914260000014953497485685677213_);fill:#56C4D4;}
	.st193{clip-path:url(#SVGID_00000151516251737501914260000014953497485685677213_);fill:#57C5D5;}
	.st194{clip-path:url(#SVGID_00000151516251737501914260000014953497485685677213_);fill:#58C6D5;}
	.st195{clip-path:url(#SVGID_00000151516251737501914260000014953497485685677213_);fill:#59C7D5;}
	.st196{clip-path:url(#SVGID_00000151516251737501914260000014953497485685677213_);fill:#5BC8D6;}
	.st197{clip-path:url(#SVGID_00000151516251737501914260000014953497485685677213_);fill:#5CC9D6;}
	.st198{clip-path:url(#SVGID_00000151516251737501914260000014953497485685677213_);fill:#5DCBD7;}
	.st199{clip-path:url(#SVGID_00000151516251737501914260000014953497485685677213_);fill:#5FCCD7;}
	.st200{clip-path:url(#SVGID_00000151516251737501914260000014953497485685677213_);fill:#60CDD8;}
	.st201{clip-path:url(#SVGID_00000151516251737501914260000014953497485685677213_);fill:#62CED8;}
	.st202{clip-path:url(#SVGID_00000151516251737501914260000014953497485685677213_);fill:#63CFD9;}
	.st203{clip-path:url(#SVGID_00000151516251737501914260000014953497485685677213_);fill:#64D1D9;}
	.st204{clip-path:url(#SVGID_00000151516251737501914260000014953497485685677213_);fill:#66D2DA;}
	.st205{clip-path:url(#SVGID_00000151516251737501914260000014953497485685677213_);fill:#67D3DA;}
	.st206{clip-path:url(#SVGID_00000151516251737501914260000014953497485685677213_);fill:#69D4DB;}
	.st207{clip-path:url(#SVGID_00000151516251737501914260000014953497485685677213_);fill:#6AD6DB;}
	.st208{clip-path:url(#SVGID_00000151516251737501914260000014953497485685677213_);fill:#6CD7DC;}
	.st209{clip-path:url(#SVGID_00000151516251737501914260000014953497485685677213_);fill:#6DD8DC;}
	.st210{clip-path:url(#SVGID_00000151516251737501914260000014953497485685677213_);fill:#6EDADC;}
	.st211{clip-path:url(#SVGID_00000151516251737501914260000014953497485685677213_);fill:#70DBDD;}
	.st212{clip-path:url(#SVGID_00000151516251737501914260000014953497485685677213_);fill:#72DCDE;}
	.st213{clip-path:url(#SVGID_00000151516251737501914260000014953497485685677213_);fill:#73DEDE;}
	.st214{clip-path:url(#SVGID_00000151516251737501914260000014953497485685677213_);fill:#75DFDF;}
	.st215{clip-path:url(#SVGID_00000151516251737501914260000014953497485685677213_);fill:#76E0DF;}
	.st216{clip-path:url(#SVGID_00000151516251737501914260000014953497485685677213_);fill:#78E2E0;}
	.st217{clip-path:url(#SVGID_00000151516251737501914260000014953497485685677213_);fill:#79E3E0;}
	.st218{clip-path:url(#SVGID_00000151516251737501914260000014953497485685677213_);fill:#7BE4E1;}
	.st219{clip-path:url(#SVGID_00000151516251737501914260000014953497485685677213_);fill:#7CE6E1;}
	.st220{clip-path:url(#SVGID_00000151516251737501914260000014953497485685677213_);fill:#7EE7E2;}
	.st221{clip-path:url(#SVGID_00000151516251737501914260000014953497485685677213_);fill:#80E9E2;}
	.st222{clip-path:url(#SVGID_00000151516251737501914260000014953497485685677213_);fill:#81EAE3;}
	.st223{clip-path:url(#SVGID_00000151516251737501914260000014953497485685677213_);fill:#83ECE3;}
	.st224{clip-path:url(#SVGID_00000151516251737501914260000014953497485685677213_);fill:#85EDE4;}
	.st225{clip-path:url(#SVGID_00000151516251737501914260000014953497485685677213_);fill:#86EFE4;}
	.st226{clip-path:url(#SVGID_00000151516251737501914260000014953497485685677213_);fill:#88F0E5;}
	.st227{clip-path:url(#SVGID_00000070822495952382424920000002359390260097773992_);fill:#0B003F;}
	.st228{clip-path:url(#SVGID_00000070822495952382424920000002359390260097773992_);fill:#0B0240;}
	.st229{clip-path:url(#SVGID_00000070822495952382424920000002359390260097773992_);fill:#0B0341;}
	.st230{clip-path:url(#SVGID_00000070822495952382424920000002359390260097773992_);fill:#0A0542;}
	.st231{clip-path:url(#SVGID_00000070822495952382424920000002359390260097773992_);fill:#0A0743;}
	.st232{clip-path:url(#SVGID_00000070822495952382424920000002359390260097773992_);fill:#0A0843;}
	.st233{clip-path:url(#SVGID_00000070822495952382424920000002359390260097773992_);fill:#0A0A44;}
	.st234{clip-path:url(#SVGID_00000070822495952382424920000002359390260097773992_);fill:#0A0B45;}
	.st235{clip-path:url(#SVGID_00000070822495952382424920000002359390260097773992_);fill:#0A0D46;}
	.st236{clip-path:url(#SVGID_00000070822495952382424920000002359390260097773992_);fill:#090F47;}
	.st237{clip-path:url(#SVGID_00000070822495952382424920000002359390260097773992_);fill:#091048;}
	.st238{clip-path:url(#SVGID_00000070822495952382424920000002359390260097773992_);fill:#091249;}
	.st239{clip-path:url(#SVGID_00000070822495952382424920000002359390260097773992_);fill:#091349;}
	.st240{clip-path:url(#SVGID_00000070822495952382424920000002359390260097773992_);fill:#09154A;}
	.st241{clip-path:url(#SVGID_00000070822495952382424920000002359390260097773992_);fill:#08164B;}
	.st242{clip-path:url(#SVGID_00000070822495952382424920000002359390260097773992_);fill:#08184C;}
	.st243{clip-path:url(#SVGID_00000070822495952382424920000002359390260097773992_);fill:#08194D;}
	.st244{clip-path:url(#SVGID_00000070822495952382424920000002359390260097773992_);fill:#081B4E;}
	.st245{clip-path:url(#SVGID_00000070822495952382424920000002359390260097773992_);fill:#081C4E;}
	.st246{clip-path:url(#SVGID_00000070822495952382424920000002359390260097773992_);fill:#081E4F;}
	.st247{clip-path:url(#SVGID_00000070822495952382424920000002359390260097773992_);fill:#071F50;}
	.st248{clip-path:url(#SVGID_00000070822495952382424920000002359390260097773992_);fill:#072051;}
	.st249{clip-path:url(#SVGID_00000070822495952382424920000002359390260097773992_);fill:#072251;}
	.st250{clip-path:url(#SVGID_00000070822495952382424920000002359390260097773992_);fill:#072352;}
	.st251{clip-path:url(#SVGID_00000070822495952382424920000002359390260097773992_);fill:#072553;}
	.st252{clip-path:url(#SVGID_00000070822495952382424920000002359390260097773992_);fill:#072654;}
	.st253{clip-path:url(#SVGID_00000070822495952382424920000002359390260097773992_);fill:#072754;}
	.st254{clip-path:url(#SVGID_00000070822495952382424920000002359390260097773992_);fill:#062955;}
	.st255{clip-path:url(#SVGID_00000070822495952382424920000002359390260097773992_);fill:#062A56;}
	.st256{clip-path:url(#SVGID_00000070822495952382424920000002359390260097773992_);fill:#062B57;}
	.st257{clip-path:url(#SVGID_00000070822495952382424920000002359390260097773992_);fill:#062D57;}
	.st258{clip-path:url(#SVGID_00000070822495952382424920000002359390260097773992_);fill:#062E58;}
	.st259{clip-path:url(#SVGID_00000070822495952382424920000002359390260097773992_);fill:#062F59;}
	.st260{clip-path:url(#SVGID_00000070822495952382424920000002359390260097773992_);fill:#05315A;}
	.st261{clip-path:url(#SVGID_00000070822495952382424920000002359390260097773992_);fill:#05325A;}
	.st262{clip-path:url(#SVGID_00000070822495952382424920000002359390260097773992_);fill:#05335B;}
	.st263{clip-path:url(#SVGID_00000070822495952382424920000002359390260097773992_);fill:#05345C;}
	.st264{clip-path:url(#SVGID_00000070822495952382424920000002359390260097773992_);fill:#05355C;}
	.st265{clip-path:url(#SVGID_00000070822495952382424920000002359390260097773992_);fill:#05375D;}
	.st266{clip-path:url(#SVGID_00000070822495952382424920000002359390260097773992_);fill:#05385E;}
	.st267{clip-path:url(#SVGID_00000070822495952382424920000002359390260097773992_);fill:#05395E;}
	.st268{clip-path:url(#SVGID_00000070822495952382424920000002359390260097773992_);fill:#043A5F;}
	.st269{clip-path:url(#SVGID_00000070822495952382424920000002359390260097773992_);fill:#043B5F;}
	.st270{clip-path:url(#SVGID_00000070822495952382424920000002359390260097773992_);fill:#043D60;}
	.st271{clip-path:url(#SVGID_00000070822495952382424920000002359390260097773992_);fill:#043E61;}
	.st272{clip-path:url(#SVGID_00000070822495952382424920000002359390260097773992_);fill:#043F61;}
	.st273{clip-path:url(#SVGID_00000070822495952382424920000002359390260097773992_);fill:#044062;}
	.st274{clip-path:url(#SVGID_00000070822495952382424920000002359390260097773992_);fill:#044162;}
	.st275{clip-path:url(#SVGID_00000070822495952382424920000002359390260097773992_);fill:#044263;}
	.st276{clip-path:url(#SVGID_00000070822495952382424920000002359390260097773992_);fill:#034364;}
	.st277{clip-path:url(#SVGID_00000070822495952382424920000002359390260097773992_);fill:#034464;}
	.st278{clip-path:url(#SVGID_00000070822495952382424920000002359390260097773992_);fill:#034565;}
	.st279{clip-path:url(#SVGID_00000070822495952382424920000002359390260097773992_);fill:#034665;}
	.st280{clip-path:url(#SVGID_00000070822495952382424920000002359390260097773992_);fill:#034766;}
	.st281{clip-path:url(#SVGID_00000070822495952382424920000002359390260097773992_);fill:#034866;}
	.st282{clip-path:url(#SVGID_00000070822495952382424920000002359390260097773992_);fill:#034967;}
	.st283{clip-path:url(#SVGID_00000070822495952382424920000002359390260097773992_);fill:#034A67;}
	.st284{clip-path:url(#SVGID_00000070822495952382424920000002359390260097773992_);fill:#024B68;}
	.st285{clip-path:url(#SVGID_00000070822495952382424920000002359390260097773992_);fill:#024C68;}
	.st286{clip-path:url(#SVGID_00000070822495952382424920000002359390260097773992_);fill:#024D69;}
	.st287{clip-path:url(#SVGID_00000070822495952382424920000002359390260097773992_);fill:#024E69;}
	.st288{clip-path:url(#SVGID_00000070822495952382424920000002359390260097773992_);fill:#024F6A;}
	.st289{clip-path:url(#SVGID_00000070822495952382424920000002359390260097773992_);fill:#02506B;}
	.st290{clip-path:url(#SVGID_00000070822495952382424920000002359390260097773992_);fill:#02516B;}
	.st291{clip-path:url(#SVGID_00000070822495952382424920000002359390260097773992_);fill:#02526C;}
	.st292{clip-path:url(#SVGID_00000070822495952382424920000002359390260097773992_);fill:#02536C;}
	.st293{clip-path:url(#SVGID_00000070822495952382424920000002359390260097773992_);fill:#02536D;}
	.st294{clip-path:url(#SVGID_00000070822495952382424920000002359390260097773992_);fill:#01546D;}
	.st295{clip-path:url(#SVGID_00000070822495952382424920000002359390260097773992_);fill:#01556D;}
	.st296{clip-path:url(#SVGID_00000070822495952382424920000002359390260097773992_);fill:#01566E;}
	.st297{clip-path:url(#SVGID_00000070822495952382424920000002359390260097773992_);fill:#01576F;}
	.st298{clip-path:url(#SVGID_00000070822495952382424920000002359390260097773992_);fill:#01586F;}
	.st299{clip-path:url(#SVGID_00000070822495952382424920000002359390260097773992_);fill:#015970;}
	.st300{clip-path:url(#SVGID_00000070822495952382424920000002359390260097773992_);fill:#015A70;}
	.st301{clip-path:url(#SVGID_00000070822495952382424920000002359390260097773992_);fill:#015B71;}
	.st302{clip-path:url(#SVGID_00000070822495952382424920000002359390260097773992_);fill:#015C71;}
	.st303{clip-path:url(#SVGID_00000070822495952382424920000002359390260097773992_);fill:#015C72;}
	.st304{clip-path:url(#SVGID_00000070822495952382424920000002359390260097773992_);fill:#005D72;}
	.st305{clip-path:url(#SVGID_00000070822495952382424920000002359390260097773992_);fill:#005E72;}
	.st306{clip-path:url(#SVGID_00000070822495952382424920000002359390260097773992_);fill:#005E73;}
	.st307{clip-path:url(#SVGID_00000070822495952382424920000002359390260097773992_);fill:#005F73;}
	.st308{clip-path:url(#SVGID_00000070822495952382424920000002359390260097773992_);fill:#006073;}
	.st309{clip-path:url(#SVGID_00000070822495952382424920000002359390260097773992_);fill:#006074;}
	.st310{clip-path:url(#SVGID_00000070822495952382424920000002359390260097773992_);fill:#006174;}
	.st311{fill:url(#SVGID_00000054235532128406363770000003340641696606983838_);}
	.st312{fill:url(#SVGID_00000161607462571925298660000014829434129170325416_);}
	.st313{fill:#282A58;}
</style>
<g id="Layer_1">
</g>
<g id="Layer_2">
</g>
<g id="Layer_3">
</g>
<g id="Layer_4">
</g>
<g id="Layer_5">
</g>
<g id="Layer_6">
</g>
<g id="Layer_7">
</g>
<g id="Layer_8">
</g>
<g id="Layer_9">
</g>
<g id="Layer_10">
</g>
<g id="Layer_11">
</g>
<g id="Layer_12">
</g>
<g id="Layer_13">
</g>
<g id="Layer_14">
</g>
<g id="Layer_15">
	<g>
		<radialGradient id="SVGID_1_" cx="174.8048" cy="90.1218" r="18.9784" gradientUnits="userSpaceOnUse">
			<stop  offset="0" style="stop-color:#AE0000"/>
			<stop  offset="1" style="stop-color:#670011"/>
		</radialGradient>
		<path class="st37" d="M174.61,63.77c1.81,0.85,3.53,1.9,5.31,2.81c-0.12,0.02-0.23,0.05-0.34,0.08c-0.05,0.01-0.1,0.01-0.14,0.02
			c-0.84,0.24-1.8,1.48-2.56,1.98c0.05,2.17,0.34,4.35,0.54,6.51c0.31,3.48,0.65,6.96,1.02,10.43l0.85,8
			c0.13,1.23,0.16,2.5,0.37,3.71c-0.27,1.94-0.79,3.87-1.27,5.76c-0.93,3.66-2.01,7.29-2.87,10.96l-0.61,2.44
			c-0.36-0.68-1.01-3.92-1.3-4.94c-0.64-2.22-1.42-4.4-2.18-6.58c-0.46-2-1.72-4.19-1.74-6.23c0.56-2.86,0.66-6.07,0.94-8.98
			l1.94-21.03c-0.89-0.76-1.69-1.66-2.61-2.37C171.53,65.52,173.04,64.6,174.61,63.77z"/>
		<path class="st39" d="M155.53,67.92c0.57,0.22,1.2,0.29,1.81,0.31c1.21,0.2,2.46,0.36,3.61,0.75c-0.38,0.79-3.39,2.82-4.19,3.41
			c3.11,7.55,6.36,15.03,9.75,22.46l2.65,5.85c0.23,0.5,0.54,0.97,0.76,1.48c0.32,0.74,0.67,2.39,1.31,2.81l0.19-0.04
			c0.75,2.18,1.54,4.36,2.18,6.58c0.29,1.02,0.94,4.27,1.3,4.94c0.04,0.24,0.05,0.31-0.03,0.55l-0.32-0.25
			c-0.74-1.27-1.74-2.46-2.6-3.65c-1.58-2.18-3.13-4.38-4.65-6.61c-5.08-7.42-9.71-15.28-14.14-23.1c-1.69-2.99-4.3-7.29-5.5-10.41
			C150.37,71.45,152.88,69.55,155.53,67.92z M193.95,67.52c-3.31-2-6.54-4.2-9.94-6.04c0.13,2.12,0.32,4.29,0.31,6.42
			c-0.19,2.81-0.69,5.62-1.1,8.41c-0.59,3.94-1.15,7.87-1.82,11.79c-0.49,2.84-0.91,6.5-1.75,9.2c-0.26,1.94-0.78,3.87-1.27,5.77
			c-0.93,3.65-2.01,7.28-2.87,10.95l-0.61,2.45c0.04,0.24,0.06,0.31-0.02,0.55l-0.07,0.37c0.29-0.11,0.4-0.14,0.62-0.37
			c0.34-0.72,0.9-1.36,1.29-2.06c1.11-1.05,3.3-4.8,4.25-6.25c4.48-6.86,8.81-13.81,12.97-20.87c2.92-4.89,5.95-9.87,8.43-15
			C199.5,71.19,196.83,69.18,193.95,67.52z"/>
		
			<linearGradient id="SVGID_00000060729945461838074110000005968053436653292186_" gradientUnits="userSpaceOnUse" x1="163.9897" y1="89.6915" x2="196.0111" y2="80.8623">
			<stop  offset="0" style="stop-color:#626161"/>
			<stop  offset="1" style="stop-color:#707480"/>
		</linearGradient>
		<path style="fill:url(#SVGID_00000060729945461838074110000005968053436653292186_);" d="M155.53,67.92
			c3.14-1.91,6.25-3.89,9.32-5.92l-0.13,1.01c-1.21,0.72-7.01,4.08-7.37,5.22C156.73,68.21,156.1,68.14,155.53,67.92z M164.71,63.01
			c-0.34,1.97-1.53,4.61-3.2,5.82c-0.12,0.09-0.2,0.13-0.33,0.21l-0.23-0.05c-0.38,0.79-3.39,2.82-4.19,3.41
			c3.11,7.55,6.36,15.03,9.75,22.46l2.65,5.85c0.23,0.5,0.54,0.97,0.76,1.48c0.32,0.74,0.67,2.39,1.31,2.81l0.19-0.04
			c-0.46-2-1.72-4.19-1.74-6.23c-0.34-1.33-0.47-2.76-0.69-4.12c-0.44-2.75-0.86-5.49-1.26-8.25c-0.6-4.09-1.15-8.18-1.65-12.28
			c-0.24-1.95-0.6-3.96-0.7-5.92c-0.11-2.19,0.19-4.46,0.36-6.65l-0.91,0.5L164.71,63.01z M184.01,61.48
			c3.4,1.85,6.63,4.04,9.95,6.04c-0.7,0.22-1.4,0.48-2.13,0.59c-1.12,0.24-2.21,0.51-3.27,0.94c1.21,1.07,2.68,1.97,4.02,2.89
			c-1.5,3.3-2.81,6.7-4.2,10.05c-3.25,7.88-6.39,15.81-9.43,23.77c-0.64,1.69-2.89,6.95-3.1,8.36l-0.34-0.1
			c0.86-3.67,1.94-7.3,2.87-10.96c0.48-1.89,1-3.83,1.27-5.76c0.83-2.71,1.26-6.36,1.74-9.2c0.67-3.93,1.24-7.86,1.82-11.79
			c0.41-2.79,0.91-5.59,1.11-8.41C184.33,65.77,184.14,63.6,184.01,61.48z"/>
		<path class="st41" d="M164.71,63.01c-0.34,1.97-1.53,4.61-3.2,5.82c-0.12,0.09-0.2,0.13-0.33,0.21l-0.23-0.05
			c-1.16-0.4-2.41-0.55-3.61-0.75C157.7,67.09,163.51,63.73,164.71,63.01z M188.2,68.96c0.12,0.07,0.21,0.12,0.35,0.1
			c1.06-0.44,2.15-0.7,3.27-0.94c-0.62-1.13-5.46-4.18-6.83-5.07C185.51,65.03,186.26,67.86,188.2,68.96z"/>
		<path class="st42" d="M124.73,58.49c0.78,4.57,1.48,9.05,2.61,13.55c-4.5,8.92-5.98,17.8-5.5,27.7c-0.72-0.97-0.29-7.4-0.11-9.08
			c0.1-0.88,0.62-3.32,0.42-4.07c-0.21-0.8-0.82-1.47-1.52-1.89c-1.6,0.01-5.07,0.08-6.39,0.84c-0.2,0.12-0.46,0.29-0.58,0.49
			c-0.58,1.01-0.76,7.9-0.75,9.27c0,1,0.23,2.66-0.07,3.57c-0.02,0.06-0.04,0.12-0.06,0.18c-0.22-2.18-0.13-4.41-0.01-6.59
			c0.04-0.64,0.08-1.27,0.14-1.91c0.06-0.64,0.12-1.27,0.19-1.9s0.16-1.27,0.25-1.9c0.09-0.63,0.2-1.26,0.31-1.89
			c0.11-0.63,0.23-1.25,0.36-1.88c0.13-0.62,0.27-1.25,0.42-1.87c0.15-0.62,0.31-1.24,0.47-1.85c0.17-0.62,0.34-1.23,0.53-1.84
			c0.19-0.61,0.38-1.22,0.58-1.82c0.2-0.6,0.41-1.21,0.64-1.8c0.22-0.6,0.45-1.19,0.69-1.78c0.24-0.59,0.49-1.18,0.74-1.76
			c0.26-0.58,0.52-1.16,0.79-1.74c0.27-0.58,0.55-1.15,0.84-1.72c0.29-0.57,0.59-1.13,0.89-1.69c0.31-0.56,0.62-1.11,0.94-1.66
			C122.52,61.79,123.52,59.99,124.73,58.49z M154.3,38.52c-7.67,2.61-14.57,6.52-20.98,11.44c0.9,2.08,1.89,4.12,2.96,6.11
			c0.4,0.67,0.79,1.32,1.25,1.95c6.09-5.22,14.83-10.1,22.73-11.75c-0.31-2.15-0.52-4.3-0.38-6.48c0.03-0.54,0.54-2.58,0.37-2.91
			C158.25,37.2,156.22,37.87,154.3,38.52z M189.18,46.15c0.03,0.01,0.07,0.03,0.1,0.04c2.09,0.85,4.34,1.32,6.46,2.18
			c1.1,0.46,2.19,0.94,3.26,1.47c1.07,0.52,2.12,1.08,3.16,1.67c1.04,0.59,2.05,1.21,3.05,1.87c1,0.65,1.97,1.34,2.93,2.05
			c1.27,0.95,2.46,1.99,3.72,2.95l1.36-2.58c1.03-2.01,2.03-4.04,2.83-6.15c-7.96-5.86-17.33-10.46-26.97-12.75
			C189.66,39.92,189.63,43.1,189.18,46.15z M140.99,103.53c-0.22-0.64-0.33-1.27-0.03-1.9c0.62-1.27,1.49-2.21,2.29-3.35
			c0.95-1.37,1.88-2.8,2.79-4.2c0.53-0.82,1.28-2.58,2.01-3.08c0.05-0.03,0.1-0.06,0.15-0.1c0.5-0.33,2-2.63,2.29-3.24
			c0.16-0.35,0.23-0.79,0.31-1.17c0.43,0.67,1.12,2.09,1.83,2.38c-2.51-3.96-5.21-7.8-7.71-11.78c-3.53-5.61-7-11.4-10-17.3
			c-1.36-2.68-2.58-5.47-3.82-8.21c-1.82-4.03-3.58-8.15-4.95-12.35c-0.22,19.79,4.51,39.2,11.78,57.52
			c0.87,2.19,1.77,4.37,2.69,6.53c0.47,1.11,0.9,2.39,1.52,3.42C142.09,105.64,141.33,104.55,140.99,103.53z"/>
		
			<radialGradient id="SVGID_00000021088083548122945400000017348515401189564056_" cx="174.679" cy="45.5" r="14.8559" gradientUnits="userSpaceOnUse">
			<stop  offset="0" style="stop-color:#FFFFFF"/>
			<stop  offset="0.0387" style="stop-color:#DDDDE0"/>
			<stop  offset="0.0992" style="stop-color:#AFAFB5"/>
			<stop  offset="0.1653" style="stop-color:#85858E"/>
			<stop  offset="0.2357" style="stop-color:#61616C"/>
			<stop  offset="0.3114" style="stop-color:#434350"/>
			<stop  offset="0.3941" style="stop-color:#2A2A39"/>
			<stop  offset="0.4867" style="stop-color:#171727"/>
			<stop  offset="0.5947" style="stop-color:#0A0A1A"/>
			<stop  offset="0.7323" style="stop-color:#020213"/>
			<stop  offset="1" style="stop-color:#000011"/>
		</radialGradient>
		<path style="fill:url(#SVGID_00000021088083548122945400000017348515401189564056_);" d="M173.47,28.6
			c1.23-0.06,2.41-0.04,3.62,0.17c3.06,0.54,6.11,2.19,7.9,4.78c2.35,3.39,2.46,7.98,1.74,11.91c-1.23,6.71-5.59,12.64-11.11,16.49
			l-0.81,0.48c-0.82-0.51-1.61-1.09-2.38-1.67c-5.38-4.11-9.13-10.08-10.01-16.84c-0.49-3.78-0.08-7.89,2.34-10.98
			C166.89,30.22,170.13,28.99,173.47,28.6z"/>
		<path class="st44" d="M112.78,99.07c0.02-0.06,0.04-0.12,0.06-0.18c0.3-0.91,0.08-2.57,0.07-3.57c0-1.37,0.17-8.26,0.75-9.27
			c0.12-0.21,0.38-0.38,0.58-0.49c1.32-0.76,4.8-0.83,6.39-0.84c0.7,0.42,1.31,1.09,1.52,1.89c0.2,0.75-0.32,3.18-0.42,4.07
			c-0.19,1.68-0.61,8.11,0.11,9.08c0.21,1.52,0.34,3.05,0.59,4.57c0.18,1.07,0.39,2.14,0.63,3.2c0.24,1.06,0.52,2.11,0.83,3.16
			c0.31,1.04,0.65,2.08,1.03,3.1c0.38,1.02,0.78,2.03,1.22,3.03c0.16,0.37,0.33,0.74,0.5,1.11c0.17,0.37,0.35,0.74,0.53,1.1
			c0.18,0.36,0.36,0.73,0.55,1.09c0.19,0.36,0.38,0.72,0.58,1.08c0.2,0.36,0.4,0.71,0.6,1.06c0.2,0.35,0.41,0.7,0.62,1.05
			c0.21,0.35,0.43,0.69,0.65,1.03s0.44,0.68,0.67,1.02c0.23,0.34,0.46,0.67,0.69,1c0.23,0.33,0.47,0.66,0.72,0.99
			c0.24,0.33,0.49,0.65,0.74,0.97c0.25,0.32,0.5,0.64,0.76,0.96s0.52,0.63,0.78,0.94c0.26,0.31,0.53,0.62,0.8,0.92
			s0.54,0.6,0.82,0.9c0.28,0.3,0.56,0.59,0.84,0.88c0.28,0.29,0.57,0.58,0.86,0.86c0.29,0.29,0.58,0.57,0.88,0.85
			c0.3,0.28,0.6,0.55,0.9,0.83c0.3,0.27,0.61,0.54,0.92,0.8c0.31,0.26,0.62,0.53,0.93,0.78c0.31,0.26,0.63,0.51,0.95,0.76
			c0.32,0.25,0.64,0.5,0.97,0.74c0.33,0.24,0.65,0.48,0.99,0.72c0.33,0.24,0.67,0.47,1,0.7c0.34,0.23,0.68,0.45,1.02,0.67
			c0.34,0.22,0.69,0.44,1.03,0.65c0.35,0.21,0.69,0.42,1.05,0.63c0.35,0.21,0.7,0.41,1.06,0.6c0.36,0.2,0.71,0.39,1.07,0.58
			c0.36,0.19,0.72,0.38,1.09,0.56c0.36,0.18,0.73,0.36,1.1,0.53c2.25,1.07,4.57,1.74,6.87,2.64c0.79,1.05,1.42,2.3,2.11,3.44
			c1.56,2.57,3.09,5.17,4.75,7.68c-13.26-2.16-25.03-7.54-34.7-16.99c-0.54-0.52-1.08-1.06-1.6-1.6c-0.52-0.54-1.04-1.1-1.54-1.66
			c-0.5-0.56-1-1.13-1.48-1.71c-0.48-0.58-0.96-1.17-1.42-1.76c-0.46-0.6-0.91-1.2-1.36-1.82c-0.44-0.61-0.87-1.23-1.29-1.86
			c-0.42-0.63-0.83-1.26-1.22-1.91c-0.4-0.64-0.78-1.29-1.15-1.95c-0.37-0.66-0.73-1.32-1.08-1.99c-0.35-0.67-0.68-1.35-1.01-2.03
			c-0.32-0.68-0.63-1.37-0.93-2.06c-0.3-0.69-0.58-1.39-0.86-2.1c-0.27-0.7-0.53-1.41-0.78-2.13c-0.25-0.71-0.48-1.43-0.7-2.15
			c-0.22-0.72-0.43-1.45-0.62-2.18c-0.19-0.73-0.38-1.46-0.55-2.2C113.42,106.34,112.81,102.67,112.78,99.07z M150.49,87.66
			c-0.28,0.61-1.79,2.91-2.29,3.24c-0.05,0.03-0.1,0.06-0.15,0.1c-0.73,0.5-1.48,2.27-2.01,3.08c-0.91,1.4-1.84,2.83-2.79,4.2
			c-0.79,1.14-1.67,2.08-2.29,3.35c-0.31,0.63-0.19,1.26,0.03,1.9c0.35,1.02,1.1,2.11,1.15,3.18c1.78,4.77,4.87,10.09,7.22,14.68
			c5.04,9.83,10.14,19.68,15.73,29.21c1.75,3.01,3.51,6,5.31,8.99c1.45,2.39,3.12,4.88,4.27,7.41c0.17-2.33,0.09-4.68,0.06-7.01
			c-0.04-2.93-0.05-5.86-0.04-8.78l0.12-33.81l0.07-0.37l-0.32-0.25c-1.15-0.8-2.97-3.26-3.93-4.4c-4.22-5.02-8.3-10.14-12.24-15.38
			c-1.97-2.67-3.76-5.48-5.76-8.12c-0.71-0.29-1.4-1.71-1.83-2.38C150.72,86.87,150.66,87.31,150.49,87.66z"/>
		<path class="st45" d="M224.77,59.26c0.84,0.66,1.58,2.13,2.15,3.05c3.43,5.52,5.98,11.19,7.58,17.5c0.13,0.5,0.25,1.01,0.37,1.52
			c0.12,0.51,0.23,1.02,0.34,1.53c0.11,0.51,0.21,1.02,0.3,1.53c0.09,0.51,0.18,1.03,0.26,1.54c0.08,0.51,0.16,1.03,0.22,1.55
			c0.07,0.52,0.13,1.03,0.19,1.55c0.06,0.52,0.1,1.04,0.15,1.55c0.04,0.52,0.08,1.04,0.11,1.56c0.03,0.52,0.05,1.04,0.07,1.56
			c0.02,0.52,0.03,1.04,0.03,1.56c0,0.52,0,1.04-0.01,1.56c-0.01,0.52-0.02,1.04-0.04,1.56c-0.02,0.52-0.05,1.04-0.08,1.56
			c-0.03,0.52-0.07,1.04-0.12,1.56c-0.05,0.52-0.1,1.04-0.16,1.55s-0.12,1.03-0.2,1.55c-0.07,0.52-0.15,1.03-0.23,1.54
			c-0.08,0.51-0.18,1.03-0.27,1.54c-0.1,0.51-0.2,1.02-0.31,1.53c-0.11,0.51-0.23,1.02-0.35,1.52c-0.12,0.51-0.25,1.01-0.38,1.51
			s-0.27,1-0.42,1.5c-0.15,0.5-0.3,1-0.46,1.49c-0.16,0.5-0.32,0.99-0.49,1.48c-0.17,0.49-0.35,0.98-0.53,1.47
			c-0.18,0.49-0.37,0.97-0.57,1.46c-0.19,0.48-0.4,0.96-0.6,1.44c-0.21,0.48-0.42,0.95-0.64,1.43c-0.22,0.47-0.44,0.94-0.67,1.41
			c-0.23,0.47-0.46,0.93-0.71,1.39c-0.24,0.46-0.49,0.92-0.74,1.38c-0.25,0.46-0.51,0.91-0.77,1.36
			c-8.75,14.65-22.85,24.58-39.29,28.74c-1.81,0.39-3.62,0.75-5.44,1.06c0.93-1.51,6.32-10.58,6.93-11.02
			c1.05-0.77,4.08-1.62,5.46-2.21c0.4-0.17,0.79-0.35,1.19-0.53c0.39-0.18,0.78-0.36,1.17-0.55c0.39-0.19,0.78-0.38,1.16-0.58
			c0.38-0.2,0.77-0.4,1.15-0.61c0.38-0.21,0.76-0.42,1.13-0.64c0.37-0.22,0.75-0.44,1.11-0.67c0.37-0.23,0.73-0.46,1.1-0.69
			c0.36-0.24,0.72-0.48,1.08-0.72c0.36-0.24,0.71-0.49,1.06-0.75c0.35-0.25,0.7-0.51,1.04-0.77c0.34-0.26,0.69-0.53,1.02-0.8
			c0.34-0.27,0.67-0.54,1-0.82c0.33-0.28,0.66-0.56,0.98-0.85c0.32-0.29,0.65-0.58,0.96-0.87c0.32-0.29,0.63-0.59,0.94-0.89
			c0.31-0.3,0.62-0.61,0.92-0.92s0.6-0.62,0.9-0.94c0.3-0.32,0.59-0.64,0.87-0.96c0.29-0.32,0.57-0.65,0.85-0.98
			c0.28-0.33,0.55-0.66,0.83-1c0.27-0.34,0.54-0.68,0.8-1.02c0.26-0.34,0.52-0.69,0.78-1.04c0.25-0.35,0.5-0.7,0.75-1.06
			c0.25-0.36,0.49-0.72,0.72-1.08c0.24-0.36,0.47-0.73,0.7-1.09c0.23-0.37,0.45-0.74,0.67-1.11c0.22-0.37,0.43-0.75,0.64-1.13
			c0.21-0.38,0.42-0.76,0.62-1.14c0.2-0.38,0.4-0.77,0.59-1.16c0.19-0.39,0.38-0.78,0.56-1.17c0.18-0.39,0.36-0.79,0.53-1.19
			c0.17-0.4,0.34-0.8,0.5-1.2c0.14-0.34,0.27-0.69,0.41-1.03c0.13-0.35,0.26-0.69,0.38-1.04c0.12-0.35,0.25-0.7,0.36-1.05
			c0.12-0.35,0.23-0.7,0.34-1.06c0.11-0.35,0.22-0.71,0.32-1.07c0.1-0.36,0.2-0.71,0.29-1.07c0.09-0.36,0.18-0.72,0.27-1.08
			c0.09-0.36,0.17-0.72,0.25-1.08c0.08-0.36,0.15-0.72,0.23-1.09c0.07-0.36,0.14-0.73,0.2-1.09s0.12-0.73,0.18-1.1
			c0.06-0.37,0.11-0.73,0.16-1.1c0.05-0.37,0.09-0.74,0.13-1.1c0.04-0.37,0.08-0.74,0.11-1.11c0.03-0.37,0.06-0.74,0.09-1.11
			c0.02-0.37,0.05-0.74,0.06-1.11c0.02-0.37,0.03-0.74,0.04-1.11c0.01-0.37,0.01-0.74,0.02-1.11c0-0.37,0-0.74-0.01-1.11
			c-0.01-0.37-0.02-0.74-0.03-1.11c-0.01-0.37-0.03-0.74-0.06-1.11c-0.02-0.37-0.05-0.74-0.08-1.11c-0.03-0.37-0.06-0.74-0.1-1.11
			c-0.04-0.37-0.08-0.74-0.13-1.1c-0.05-0.37-0.1-0.73-0.15-1.1c-0.05-0.37-0.11-0.73-0.17-1.1c-0.06-0.37-0.13-0.73-0.2-1.09
			c-0.07-0.36-0.14-0.73-0.22-1.09c-0.08-0.36-0.16-0.72-0.24-1.08c-0.08-0.36-0.17-0.72-0.26-1.08c-0.09-0.36-0.19-0.72-0.29-1.07
			c-0.1-0.36-0.2-0.71-0.31-1.07c-0.85-2.82-2.03-5.52-3.18-8.23C223.27,68.19,223.92,63.72,224.77,59.26z M209.7,68.83
			c0.3-0.05,0.48,0.01,0.75,0.11l0.1,0.04c0.7-0.33,1.4-1.28,2.03-1.78c1.22-0.96,2.14-2.18,3.43-3.08
			c0.98-0.69,1.95-0.88,2.84-1.45c0.03-0.02,0.06-0.04,0.09-0.06c0.15,0.77,0.21,1.28,0.87,1.77c0.03,0.02,0.06,0.04,0.08,0.06
			c0.44,1.64-0.58,3.58-0.4,5.31c0.16,0.2,0.3,0.33,0.51,0.48c1.43-6.86,2.61-13.7,3.14-20.7c0.28-3.69,0.13-7.42,0.44-11.09
			c-1.2,3.16-2.37,6.34-3.7,9.44c-2.39,5.46-4.99,10.83-7.8,16.09c-0.93,1.79-2,3.51-3.05,5.23c-0.53,0.86-1.15,1.75-1.59,2.66
			C208.48,71.5,208.73,69.44,209.7,68.83z M207.46,71.86c1.01-0.36,1.27-2.42,2.24-3.02c0.3-0.05,0.48,0.01,0.75,0.11l0.1,0.04
			c0.7-0.33,1.4-1.28,2.03-1.78c1.22-0.96,2.14-2.18,3.43-3.08c0.98-0.69,1.95-0.88,2.84-1.45c0.03-0.02,0.06-0.04,0.09-0.06
			c0.15,0.77,0.21,1.28,0.87,1.77c0.03,0.02,0.06,0.04,0.08,0.06c0.44,1.64-0.58,3.58-0.4,5.31c0.16,0.2,0.3,0.33,0.51,0.48
			c-2.95,12.4-7.25,23.85-12.35,35.49c-1.91,4.43-3.9,8.83-5.98,13.18c-6.25,12.82-13.37,25.23-20.6,37.51
			c-0.6,1.03-5.88,10.41-6.23,10.67l-0.2-0.09c0.17-2.33,0.09-4.68,0.06-7.01c-0.04-2.93-0.05-5.86-0.04-8.78l0.12-33.81
			c0.29-0.12,0.41-0.14,0.62-0.37c1.15-0.9,3.51-4.22,4.55-5.51c7.85-9.76,14.88-20.21,21.82-30.63
			C203.75,77.93,205.41,74.73,207.46,71.86z"/>
	</g>
</g>
</svg>
