<?xml version="1.0" encoding="utf-8"?>
<!-- Generator: Adobe Illustrator 27.8.1, SVG Export Plug-In . SVG Version: 6.00 Build 0)  -->
<svg version="1.1" xmlns="http://www.w3.org/2000/svg" xmlns:xlink="http://www.w3.org/1999/xlink" x="0px" y="0px"
	 viewBox="0 0 350 230" style="enable-background:new 0 0 350 230;" xml:space="preserve">
<style type="text/css">
	.st0{fill:#FFFDE6;}
	.st1{fill:#EBFFFB;}
	.st2{fill:#E6FFF4;}
	.st3{fill:#EEFFF2;}
	.st4{fill:#F3FFE6;}
	.st5{fill:#F3FFFF;}
	.st6{fill:#ECFFE9;}
	.st7{fill:#0E045F;}
	.st8{fill:#CD00FF;}
	.st9{fill:#8CC63F;}
	.st10{fill:#39B54A;}
	.st11{fill:#00770B;}
	.st12{fill:#040051;}
	.st13{fill:#005B59;}
	.st14{fill:#00EDFF;}
	.st15{fill:#006359;}
	.st16{fill:#00006D;}
	.st17{fill:#29004C;}
	.st18{fill:#EB900C;}
	.st19{fill:#DB6E28;}
	.st20{fill:#FFFFFF;}
	.st21{fill:#2D000F;}
	.st22{fill:#660061;}
	.st23{fill:#660061;stroke:#2D002D;stroke-miterlimit:10;}
	.st24{fill:#00AFC6;}
	.st25{fill:#003F39;}
	.st26{fill:#00DCC8;}
	.st27{fill:#FD1F00;}
	.st28{fill:#07186D;}
	.st29{fill:#005C7C;}
	.st30{fill:#8C4B03;}
	.st31{fill:#A38B00;}
	.st32{fill:#20008F;}
	.st33{fill:#003A1D;}
	.st34{fill:#284200;}
	.st35{fill:#00CED8;}
	.st36{fill:url(#graphics_00000086677529925479209750000011229506040319155856_);}
	.st37{fill:url(#SVGID_1_);}
	.st38{fill:url(#SVGID_00000047057567791237635370000008924396909807554486_);}
	.st39{fill:#1F1F29;}
	.st40{fill:url(#SVGID_00000001658725435998324740000015523818348483210144_);}
	.st41{fill:#909198;}
	.st42{fill:#149BB7;}
	.st43{fill:url(#SVGID_00000129914620689474898060000007664767085315658920_);}
	.st44{fill:#0E5883;}
	.st45{fill:#0D1230;}
	.st46{fill:#283151;}
	.st47{fill:url(#SVGID_00000122678790880719087630000003480924371613202057_);}
	.st48{fill:url(#SVGID_00000091694143797622878560000010746382123078125719_);}
	.st49{fill:#92959D;}
	.st50{fill:url(#SVGID_00000093864511904002572430000005959316242120536462_);}
	.st51{fill:#7ABF45;}
	.st52{fill:#1DA4CC;}
	.st53{fill:#F89B1B;}
	.st54{fill:#16A79A;}
	.st55{fill:#FAFFD4;}
	.st56{fill:url(#SVGID_00000142873934347250325300000009534829992621489034_);}
	.st57{fill:#070B33;}
	.st58{fill:url(#SVGID_00000083050789180189989710000013003391013190090634_);}
	.st59{fill:#FEFEFE;}
	.st60{fill:url(#SVGID_00000032642894855991238950000007518949543385632641_);}
	.st61{fill:#0C1941;}
	.st62{fill:#EE5A14;}
	.st63{fill:#1A56B5;}
	.st64{fill:url(#SVGID_00000167357282900266279340000001714723717461492150_);}
	.st65{fill:url(#SVGID_00000027599074536169615730000006957336533877578635_);}
	.st66{fill:#264C61;}
	.st67{fill:#071926;}
	.st68{fill:url(#SVGID_00000085223637255122722580000017006142448863056782_);}
	.st69{fill:url(#SVGID_00000075883787584625841190000013444549944787094418_);}
	.st70{fill:url(#SVGID_00000104667323356428334840000009846792538993408169_);}
	.st71{fill:url(#SVGID_00000168835029568907467200000013889979147433693835_);}
	.st72{fill:url(#SVGID_00000076582215685426086200000001400726064730407573_);}
	.st73{fill:#18306C;}
	.st74{fill:#1A6FC2;}
	.st75{fill:url(#SVGID_00000073000561774047890990000006302915405912708251_);}
	.st76{fill:url(#SVGID_00000031913378426145452370000005870501922629359807_);}
	.st77{fill:none;stroke:#282A58;stroke-linecap:round;stroke-linejoin:round;stroke-miterlimit:10;}
	.st78{clip-path:url(#SVGID_00000169529211509385624640000010885623611364659103_);fill:#195C96;}
	.st79{clip-path:url(#SVGID_00000169529211509385624640000010885623611364659103_);fill:#195D97;}
	.st80{clip-path:url(#SVGID_00000169529211509385624640000010885623611364659103_);fill:#195E98;}
	.st81{clip-path:url(#SVGID_00000169529211509385624640000010885623611364659103_);fill:#195F99;}
	.st82{clip-path:url(#SVGID_00000169529211509385624640000010885623611364659103_);fill:#19609A;}
	.st83{clip-path:url(#SVGID_00000169529211509385624640000010885623611364659103_);fill:#19619B;}
	.st84{clip-path:url(#SVGID_00000169529211509385624640000010885623611364659103_);fill:#1A629C;}
	.st85{clip-path:url(#SVGID_00000169529211509385624640000010885623611364659103_);fill:#1A639D;}
	.st86{clip-path:url(#SVGID_00000169529211509385624640000010885623611364659103_);fill:#1A649E;}
	.st87{clip-path:url(#SVGID_00000169529211509385624640000010885623611364659103_);fill:#1A659F;}
	.st88{clip-path:url(#SVGID_00000169529211509385624640000010885623611364659103_);fill:#1A66A0;}
	.st89{clip-path:url(#SVGID_00000169529211509385624640000010885623611364659103_);fill:#1A67A1;}
	.st90{clip-path:url(#SVGID_00000169529211509385624640000010885623611364659103_);fill:#1A68A3;}
	.st91{clip-path:url(#SVGID_00000169529211509385624640000010885623611364659103_);fill:#1A69A4;}
	.st92{clip-path:url(#SVGID_00000169529211509385624640000010885623611364659103_);fill:#1A6AA5;}
	.st93{clip-path:url(#SVGID_00000169529211509385624640000010885623611364659103_);fill:#1A6BA6;}
	.st94{clip-path:url(#SVGID_00000169529211509385624640000010885623611364659103_);fill:#1A6CA7;}
	.st95{clip-path:url(#SVGID_00000169529211509385624640000010885623611364659103_);fill:#1A6DA8;}
	.st96{clip-path:url(#SVGID_00000169529211509385624640000010885623611364659103_);fill:#1B6EA9;}
	.st97{clip-path:url(#SVGID_00000169529211509385624640000010885623611364659103_);fill:#1B6FAA;}
	.st98{clip-path:url(#SVGID_00000169529211509385624640000010885623611364659103_);fill:#1B70AB;}
	.st99{clip-path:url(#SVGID_00000169529211509385624640000010885623611364659103_);fill:#1B71AC;}
	.st100{clip-path:url(#SVGID_00000169529211509385624640000010885623611364659103_);fill:#1B72AD;}
	.st101{clip-path:url(#SVGID_00000169529211509385624640000010885623611364659103_);fill:#1B73AE;}
	.st102{clip-path:url(#SVGID_00000169529211509385624640000010885623611364659103_);fill:#1B74AF;}
	.st103{clip-path:url(#SVGID_00000169529211509385624640000010885623611364659103_);fill:#1B75B0;}
	.st104{clip-path:url(#SVGID_00000169529211509385624640000010885623611364659103_);fill:#1C76B0;}
	.st105{clip-path:url(#SVGID_00000169529211509385624640000010885623611364659103_);fill:#1C77B1;}
	.st106{clip-path:url(#SVGID_00000169529211509385624640000010885623611364659103_);fill:#1C78B1;}
	.st107{clip-path:url(#SVGID_00000169529211509385624640000010885623611364659103_);fill:#1C79B2;}
	.st108{clip-path:url(#SVGID_00000169529211509385624640000010885623611364659103_);fill:#1D7AB3;}
	.st109{clip-path:url(#SVGID_00000169529211509385624640000010885623611364659103_);fill:#1D7BB3;}
	.st110{clip-path:url(#SVGID_00000169529211509385624640000010885623611364659103_);fill:#1D7CB4;}
	.st111{clip-path:url(#SVGID_00000169529211509385624640000010885623611364659103_);fill:#1E7DB4;}
	.st112{clip-path:url(#SVGID_00000169529211509385624640000010885623611364659103_);fill:#1E7EB5;}
	.st113{clip-path:url(#SVGID_00000169529211509385624640000010885623611364659103_);fill:#1E7FB5;}
	.st114{clip-path:url(#SVGID_00000169529211509385624640000010885623611364659103_);fill:#1E80B6;}
	.st115{clip-path:url(#SVGID_00000169529211509385624640000010885623611364659103_);fill:#1F81B7;}
	.st116{clip-path:url(#SVGID_00000169529211509385624640000010885623611364659103_);fill:#1F82B7;}
	.st117{clip-path:url(#SVGID_00000169529211509385624640000010885623611364659103_);fill:#1F83B8;}
	.st118{clip-path:url(#SVGID_00000169529211509385624640000010885623611364659103_);fill:#1F84B8;}
	.st119{clip-path:url(#SVGID_00000169529211509385624640000010885623611364659103_);fill:#2085B9;}
	.st120{clip-path:url(#SVGID_00000169529211509385624640000010885623611364659103_);fill:#2087BA;}
	.st121{clip-path:url(#SVGID_00000169529211509385624640000010885623611364659103_);fill:#2088BA;}
	.st122{clip-path:url(#SVGID_00000169529211509385624640000010885623611364659103_);fill:#2189BB;}
	.st123{clip-path:url(#SVGID_00000169529211509385624640000010885623611364659103_);fill:#218ABB;}
	.st124{clip-path:url(#SVGID_00000169529211509385624640000010885623611364659103_);fill:#218BBC;}
	.st125{clip-path:url(#SVGID_00000169529211509385624640000010885623611364659103_);fill:#218CBC;}
	.st126{clip-path:url(#SVGID_00000169529211509385624640000010885623611364659103_);fill:#228DBD;}
	.st127{clip-path:url(#SVGID_00000169529211509385624640000010885623611364659103_);fill:#228EBE;}
	.st128{clip-path:url(#SVGID_00000169529211509385624640000010885623611364659103_);fill:#228FBE;}
	.st129{clip-path:url(#SVGID_00000169529211509385624640000010885623611364659103_);fill:#2390BF;}
	.st130{clip-path:url(#SVGID_00000169529211509385624640000010885623611364659103_);fill:#2391BF;}
	.st131{clip-path:url(#SVGID_00000169529211509385624640000010885623611364659103_);fill:#2392C0;}
	.st132{clip-path:url(#SVGID_00000169529211509385624640000010885623611364659103_);fill:#2393C1;}
	.st133{clip-path:url(#SVGID_00000169529211509385624640000010885623611364659103_);fill:#2494C1;}
	.st134{clip-path:url(#SVGID_00000169529211509385624640000010885623611364659103_);fill:#2495C2;}
	.st135{clip-path:url(#SVGID_00000169529211509385624640000010885623611364659103_);fill:#2496C2;}
	.st136{clip-path:url(#SVGID_00000169529211509385624640000010885623611364659103_);fill:#2497C3;}
	.st137{clip-path:url(#SVGID_00000169529211509385624640000010885623611364659103_);fill:#2598C3;}
	.st138{clip-path:url(#SVGID_00000169529211509385624640000010885623611364659103_);fill:#2599C4;}
	.st139{clip-path:url(#SVGID_00000169529211509385624640000010885623611364659103_);fill:#269AC4;}
	.st140{clip-path:url(#SVGID_00000169529211509385624640000010885623611364659103_);fill:#279AC5;}
	.st141{clip-path:url(#SVGID_00000169529211509385624640000010885623611364659103_);fill:#279BC5;}
	.st142{clip-path:url(#SVGID_00000169529211509385624640000010885623611364659103_);fill:#289BC5;}
	.st143{clip-path:url(#SVGID_00000169529211509385624640000010885623611364659103_);fill:#289CC5;}
	.st144{clip-path:url(#SVGID_00000169529211509385624640000010885623611364659103_);fill:#299CC5;}
	.st145{clip-path:url(#SVGID_00000169529211509385624640000010885623611364659103_);fill:#299DC5;}
	.st146{clip-path:url(#SVGID_00000169529211509385624640000010885623611364659103_);fill:#2A9DC6;}
	.st147{clip-path:url(#SVGID_00000169529211509385624640000010885623611364659103_);fill:#2A9EC6;}
	.st148{clip-path:url(#SVGID_00000169529211509385624640000010885623611364659103_);fill:#2B9EC6;}
	.st149{clip-path:url(#SVGID_00000169529211509385624640000010885623611364659103_);fill:#2B9FC6;}
	.st150{clip-path:url(#SVGID_00000169529211509385624640000010885623611364659103_);fill:#2C9FC6;}
	.st151{clip-path:url(#SVGID_00000169529211509385624640000010885623611364659103_);fill:#2DA0C7;}
	.st152{clip-path:url(#SVGID_00000169529211509385624640000010885623611364659103_);fill:#2EA1C7;}
	.st153{clip-path:url(#SVGID_00000169529211509385624640000010885623611364659103_);fill:#2FA2C7;}
	.st154{clip-path:url(#SVGID_00000169529211509385624640000010885623611364659103_);fill:#30A2C8;}
	.st155{clip-path:url(#SVGID_00000169529211509385624640000010885623611364659103_);fill:#30A3C8;}
	.st156{clip-path:url(#SVGID_00000169529211509385624640000010885623611364659103_);fill:#31A4C8;}
	.st157{clip-path:url(#SVGID_00000169529211509385624640000010885623611364659103_);fill:#32A4C8;}
	.st158{clip-path:url(#SVGID_00000169529211509385624640000010885623611364659103_);fill:#33A5C9;}
	.st159{clip-path:url(#SVGID_00000169529211509385624640000010885623611364659103_);fill:#33A6C9;}
	.st160{clip-path:url(#SVGID_00000169529211509385624640000010885623611364659103_);fill:#34A6C9;}
	.st161{clip-path:url(#SVGID_00000169529211509385624640000010885623611364659103_);fill:#35A7C9;}
	.st162{clip-path:url(#SVGID_00000169529211509385624640000010885623611364659103_);fill:#36A8CA;}
	.st163{clip-path:url(#SVGID_00000169529211509385624640000010885623611364659103_);fill:#37A9CA;}
	.st164{clip-path:url(#SVGID_00000169529211509385624640000010885623611364659103_);fill:#38A9CA;}
	.st165{clip-path:url(#SVGID_00000169529211509385624640000010885623611364659103_);fill:#38AACA;}
	.st166{clip-path:url(#SVGID_00000169529211509385624640000010885623611364659103_);fill:#39ABCB;}
	.st167{clip-path:url(#SVGID_00000169529211509385624640000010885623611364659103_);fill:#3AACCB;}
	.st168{clip-path:url(#SVGID_00000169529211509385624640000010885623611364659103_);fill:#3BACCB;}
	.st169{clip-path:url(#SVGID_00000169529211509385624640000010885623611364659103_);fill:#3CADCC;}
	.st170{clip-path:url(#SVGID_00000169529211509385624640000010885623611364659103_);fill:#3DAECC;}
	.st171{clip-path:url(#SVGID_00000169529211509385624640000010885623611364659103_);fill:#3EAFCC;}
	.st172{clip-path:url(#SVGID_00000169529211509385624640000010885623611364659103_);fill:#3FB0CD;}
	.st173{clip-path:url(#SVGID_00000169529211509385624640000010885623611364659103_);fill:#40B1CD;}
	.st174{clip-path:url(#SVGID_00000169529211509385624640000010885623611364659103_);fill:#41B2CD;}
	.st175{clip-path:url(#SVGID_00000169529211509385624640000010885623611364659103_);fill:#42B2CE;}
	.st176{clip-path:url(#SVGID_00000169529211509385624640000010885623611364659103_);fill:#43B3CE;}
	.st177{clip-path:url(#SVGID_00000169529211509385624640000010885623611364659103_);fill:#44B4CE;}
	.st178{clip-path:url(#SVGID_00000169529211509385624640000010885623611364659103_);fill:#45B5CF;}
	.st179{clip-path:url(#SVGID_00000169529211509385624640000010885623611364659103_);fill:#46B6CF;}
	.st180{clip-path:url(#SVGID_00000169529211509385624640000010885623611364659103_);fill:#47B7CF;}
	.st181{clip-path:url(#SVGID_00000169529211509385624640000010885623611364659103_);fill:#48B8D0;}
	.st182{clip-path:url(#SVGID_00000169529211509385624640000010885623611364659103_);fill:#4AB9D0;}
	.st183{clip-path:url(#SVGID_00000169529211509385624640000010885623611364659103_);fill:#4BBAD1;}
	.st184{clip-path:url(#SVGID_00000169529211509385624640000010885623611364659103_);fill:#4CBBD1;}
	.st185{clip-path:url(#SVGID_00000169529211509385624640000010885623611364659103_);fill:#4DBCD1;}
	.st186{clip-path:url(#SVGID_00000169529211509385624640000010885623611364659103_);fill:#4EBDD2;}
	.st187{clip-path:url(#SVGID_00000169529211509385624640000010885623611364659103_);fill:#4FBED2;}
	.st188{clip-path:url(#SVGID_00000169529211509385624640000010885623611364659103_);fill:#51BFD3;}
	.st189{clip-path:url(#SVGID_00000169529211509385624640000010885623611364659103_);fill:#52C0D3;}
	.st190{clip-path:url(#SVGID_00000169529211509385624640000010885623611364659103_);fill:#53C1D3;}
	.st191{clip-path:url(#SVGID_00000169529211509385624640000010885623611364659103_);fill:#54C3D4;}
	.st192{clip-path:url(#SVGID_00000169529211509385624640000010885623611364659103_);fill:#56C4D4;}
	.st193{clip-path:url(#SVGID_00000169529211509385624640000010885623611364659103_);fill:#57C5D5;}
	.st194{clip-path:url(#SVGID_00000169529211509385624640000010885623611364659103_);fill:#58C6D5;}
	.st195{clip-path:url(#SVGID_00000169529211509385624640000010885623611364659103_);fill:#59C7D5;}
	.st196{clip-path:url(#SVGID_00000169529211509385624640000010885623611364659103_);fill:#5BC8D6;}
	.st197{clip-path:url(#SVGID_00000169529211509385624640000010885623611364659103_);fill:#5CC9D6;}
	.st198{clip-path:url(#SVGID_00000169529211509385624640000010885623611364659103_);fill:#5DCBD7;}
	.st199{clip-path:url(#SVGID_00000169529211509385624640000010885623611364659103_);fill:#5FCCD7;}
	.st200{clip-path:url(#SVGID_00000169529211509385624640000010885623611364659103_);fill:#60CDD8;}
	.st201{clip-path:url(#SVGID_00000169529211509385624640000010885623611364659103_);fill:#62CED8;}
	.st202{clip-path:url(#SVGID_00000169529211509385624640000010885623611364659103_);fill:#63CFD9;}
	.st203{clip-path:url(#SVGID_00000169529211509385624640000010885623611364659103_);fill:#64D1D9;}
	.st204{clip-path:url(#SVGID_00000169529211509385624640000010885623611364659103_);fill:#66D2DA;}
	.st205{clip-path:url(#SVGID_00000169529211509385624640000010885623611364659103_);fill:#67D3DA;}
	.st206{clip-path:url(#SVGID_00000169529211509385624640000010885623611364659103_);fill:#69D4DB;}
	.st207{clip-path:url(#SVGID_00000169529211509385624640000010885623611364659103_);fill:#6AD6DB;}
	.st208{clip-path:url(#SVGID_00000169529211509385624640000010885623611364659103_);fill:#6CD7DC;}
	.st209{clip-path:url(#SVGID_00000169529211509385624640000010885623611364659103_);fill:#6DD8DC;}
	.st210{clip-path:url(#SVGID_00000169529211509385624640000010885623611364659103_);fill:#6EDADC;}
	.st211{clip-path:url(#SVGID_00000169529211509385624640000010885623611364659103_);fill:#70DBDD;}
	.st212{clip-path:url(#SVGID_00000169529211509385624640000010885623611364659103_);fill:#72DCDE;}
	.st213{clip-path:url(#SVGID_00000169529211509385624640000010885623611364659103_);fill:#73DEDE;}
	.st214{clip-path:url(#SVGID_00000169529211509385624640000010885623611364659103_);fill:#75DFDF;}
	.st215{clip-path:url(#SVGID_00000169529211509385624640000010885623611364659103_);fill:#76E0DF;}
	.st216{clip-path:url(#SVGID_00000169529211509385624640000010885623611364659103_);fill:#78E2E0;}
	.st217{clip-path:url(#SVGID_00000169529211509385624640000010885623611364659103_);fill:#79E3E0;}
	.st218{clip-path:url(#SVGID_00000169529211509385624640000010885623611364659103_);fill:#7BE4E1;}
	.st219{clip-path:url(#SVGID_00000169529211509385624640000010885623611364659103_);fill:#7CE6E1;}
	.st220{clip-path:url(#SVGID_00000169529211509385624640000010885623611364659103_);fill:#7EE7E2;}
	.st221{clip-path:url(#SVGID_00000169529211509385624640000010885623611364659103_);fill:#80E9E2;}
	.st222{clip-path:url(#SVGID_00000169529211509385624640000010885623611364659103_);fill:#81EAE3;}
	.st223{clip-path:url(#SVGID_00000169529211509385624640000010885623611364659103_);fill:#83ECE3;}
	.st224{clip-path:url(#SVGID_00000169529211509385624640000010885623611364659103_);fill:#85EDE4;}
	.st225{clip-path:url(#SVGID_00000169529211509385624640000010885623611364659103_);fill:#86EFE4;}
	.st226{clip-path:url(#SVGID_00000169529211509385624640000010885623611364659103_);fill:#88F0E5;}
	.st227{clip-path:url(#SVGID_00000054250673825444427910000004529723878967171489_);fill:#0B003F;}
	.st228{clip-path:url(#SVGID_00000054250673825444427910000004529723878967171489_);fill:#0B0240;}
	.st229{clip-path:url(#SVGID_00000054250673825444427910000004529723878967171489_);fill:#0B0341;}
	.st230{clip-path:url(#SVGID_00000054250673825444427910000004529723878967171489_);fill:#0A0542;}
	.st231{clip-path:url(#SVGID_00000054250673825444427910000004529723878967171489_);fill:#0A0743;}
	.st232{clip-path:url(#SVGID_00000054250673825444427910000004529723878967171489_);fill:#0A0843;}
	.st233{clip-path:url(#SVGID_00000054250673825444427910000004529723878967171489_);fill:#0A0A44;}
	.st234{clip-path:url(#SVGID_00000054250673825444427910000004529723878967171489_);fill:#0A0B45;}
	.st235{clip-path:url(#SVGID_00000054250673825444427910000004529723878967171489_);fill:#0A0D46;}
	.st236{clip-path:url(#SVGID_00000054250673825444427910000004529723878967171489_);fill:#090F47;}
	.st237{clip-path:url(#SVGID_00000054250673825444427910000004529723878967171489_);fill:#091048;}
	.st238{clip-path:url(#SVGID_00000054250673825444427910000004529723878967171489_);fill:#091249;}
	.st239{clip-path:url(#SVGID_00000054250673825444427910000004529723878967171489_);fill:#091349;}
	.st240{clip-path:url(#SVGID_00000054250673825444427910000004529723878967171489_);fill:#09154A;}
	.st241{clip-path:url(#SVGID_00000054250673825444427910000004529723878967171489_);fill:#08164B;}
	.st242{clip-path:url(#SVGID_00000054250673825444427910000004529723878967171489_);fill:#08184C;}
	.st243{clip-path:url(#SVGID_00000054250673825444427910000004529723878967171489_);fill:#08194D;}
	.st244{clip-path:url(#SVGID_00000054250673825444427910000004529723878967171489_);fill:#081B4E;}
	.st245{clip-path:url(#SVGID_00000054250673825444427910000004529723878967171489_);fill:#081C4E;}
	.st246{clip-path:url(#SVGID_00000054250673825444427910000004529723878967171489_);fill:#081E4F;}
	.st247{clip-path:url(#SVGID_00000054250673825444427910000004529723878967171489_);fill:#071F50;}
	.st248{clip-path:url(#SVGID_00000054250673825444427910000004529723878967171489_);fill:#072051;}
	.st249{clip-path:url(#SVGID_00000054250673825444427910000004529723878967171489_);fill:#072251;}
	.st250{clip-path:url(#SVGID_00000054250673825444427910000004529723878967171489_);fill:#072352;}
	.st251{clip-path:url(#SVGID_00000054250673825444427910000004529723878967171489_);fill:#072553;}
	.st252{clip-path:url(#SVGID_00000054250673825444427910000004529723878967171489_);fill:#072654;}
	.st253{clip-path:url(#SVGID_00000054250673825444427910000004529723878967171489_);fill:#072754;}
	.st254{clip-path:url(#SVGID_00000054250673825444427910000004529723878967171489_);fill:#062955;}
	.st255{clip-path:url(#SVGID_00000054250673825444427910000004529723878967171489_);fill:#062A56;}
	.st256{clip-path:url(#SVGID_00000054250673825444427910000004529723878967171489_);fill:#062B57;}
	.st257{clip-path:url(#SVGID_00000054250673825444427910000004529723878967171489_);fill:#062D57;}
	.st258{clip-path:url(#SVGID_00000054250673825444427910000004529723878967171489_);fill:#062E58;}
	.st259{clip-path:url(#SVGID_00000054250673825444427910000004529723878967171489_);fill:#062F59;}
	.st260{clip-path:url(#SVGID_00000054250673825444427910000004529723878967171489_);fill:#05315A;}
	.st261{clip-path:url(#SVGID_00000054250673825444427910000004529723878967171489_);fill:#05325A;}
	.st262{clip-path:url(#SVGID_00000054250673825444427910000004529723878967171489_);fill:#05335B;}
	.st263{clip-path:url(#SVGID_00000054250673825444427910000004529723878967171489_);fill:#05345C;}
	.st264{clip-path:url(#SVGID_00000054250673825444427910000004529723878967171489_);fill:#05355C;}
	.st265{clip-path:url(#SVGID_00000054250673825444427910000004529723878967171489_);fill:#05375D;}
	.st266{clip-path:url(#SVGID_00000054250673825444427910000004529723878967171489_);fill:#05385E;}
	.st267{clip-path:url(#SVGID_00000054250673825444427910000004529723878967171489_);fill:#05395E;}
	.st268{clip-path:url(#SVGID_00000054250673825444427910000004529723878967171489_);fill:#043A5F;}
	.st269{clip-path:url(#SVGID_00000054250673825444427910000004529723878967171489_);fill:#043B5F;}
	.st270{clip-path:url(#SVGID_00000054250673825444427910000004529723878967171489_);fill:#043D60;}
	.st271{clip-path:url(#SVGID_00000054250673825444427910000004529723878967171489_);fill:#043E61;}
	.st272{clip-path:url(#SVGID_00000054250673825444427910000004529723878967171489_);fill:#043F61;}
	.st273{clip-path:url(#SVGID_00000054250673825444427910000004529723878967171489_);fill:#044062;}
	.st274{clip-path:url(#SVGID_00000054250673825444427910000004529723878967171489_);fill:#044162;}
	.st275{clip-path:url(#SVGID_00000054250673825444427910000004529723878967171489_);fill:#044263;}
	.st276{clip-path:url(#SVGID_00000054250673825444427910000004529723878967171489_);fill:#034364;}
	.st277{clip-path:url(#SVGID_00000054250673825444427910000004529723878967171489_);fill:#034464;}
	.st278{clip-path:url(#SVGID_00000054250673825444427910000004529723878967171489_);fill:#034565;}
	.st279{clip-path:url(#SVGID_00000054250673825444427910000004529723878967171489_);fill:#034665;}
	.st280{clip-path:url(#SVGID_00000054250673825444427910000004529723878967171489_);fill:#034766;}
	.st281{clip-path:url(#SVGID_00000054250673825444427910000004529723878967171489_);fill:#034866;}
	.st282{clip-path:url(#SVGID_00000054250673825444427910000004529723878967171489_);fill:#034967;}
	.st283{clip-path:url(#SVGID_00000054250673825444427910000004529723878967171489_);fill:#034A67;}
	.st284{clip-path:url(#SVGID_00000054250673825444427910000004529723878967171489_);fill:#024B68;}
	.st285{clip-path:url(#SVGID_00000054250673825444427910000004529723878967171489_);fill:#024C68;}
	.st286{clip-path:url(#SVGID_00000054250673825444427910000004529723878967171489_);fill:#024D69;}
	.st287{clip-path:url(#SVGID_00000054250673825444427910000004529723878967171489_);fill:#024E69;}
	.st288{clip-path:url(#SVGID_00000054250673825444427910000004529723878967171489_);fill:#024F6A;}
	.st289{clip-path:url(#SVGID_00000054250673825444427910000004529723878967171489_);fill:#02506B;}
	.st290{clip-path:url(#SVGID_00000054250673825444427910000004529723878967171489_);fill:#02516B;}
	.st291{clip-path:url(#SVGID_00000054250673825444427910000004529723878967171489_);fill:#02526C;}
	.st292{clip-path:url(#SVGID_00000054250673825444427910000004529723878967171489_);fill:#02536C;}
	.st293{clip-path:url(#SVGID_00000054250673825444427910000004529723878967171489_);fill:#02536D;}
	.st294{clip-path:url(#SVGID_00000054250673825444427910000004529723878967171489_);fill:#01546D;}
	.st295{clip-path:url(#SVGID_00000054250673825444427910000004529723878967171489_);fill:#01556D;}
	.st296{clip-path:url(#SVGID_00000054250673825444427910000004529723878967171489_);fill:#01566E;}
	.st297{clip-path:url(#SVGID_00000054250673825444427910000004529723878967171489_);fill:#01576F;}
	.st298{clip-path:url(#SVGID_00000054250673825444427910000004529723878967171489_);fill:#01586F;}
	.st299{clip-path:url(#SVGID_00000054250673825444427910000004529723878967171489_);fill:#015970;}
	.st300{clip-path:url(#SVGID_00000054250673825444427910000004529723878967171489_);fill:#015A70;}
	.st301{clip-path:url(#SVGID_00000054250673825444427910000004529723878967171489_);fill:#015B71;}
	.st302{clip-path:url(#SVGID_00000054250673825444427910000004529723878967171489_);fill:#015C71;}
	.st303{clip-path:url(#SVGID_00000054250673825444427910000004529723878967171489_);fill:#015C72;}
	.st304{clip-path:url(#SVGID_00000054250673825444427910000004529723878967171489_);fill:#005D72;}
	.st305{clip-path:url(#SVGID_00000054250673825444427910000004529723878967171489_);fill:#005E72;}
	.st306{clip-path:url(#SVGID_00000054250673825444427910000004529723878967171489_);fill:#005E73;}
	.st307{clip-path:url(#SVGID_00000054250673825444427910000004529723878967171489_);fill:#005F73;}
	.st308{clip-path:url(#SVGID_00000054250673825444427910000004529723878967171489_);fill:#006073;}
	.st309{clip-path:url(#SVGID_00000054250673825444427910000004529723878967171489_);fill:#006074;}
	.st310{clip-path:url(#SVGID_00000054250673825444427910000004529723878967171489_);fill:#006174;}
	.st311{fill:url(#SVGID_00000141443280870904141030000013247326075330823835_);}
	.st312{fill:url(#SVGID_00000090985011054182787480000010800949861768005280_);}
	.st313{fill:#282A58;}
</style>
<g id="Layer_1">
</g>
<g id="Layer_2">
</g>
<g id="Layer_3">
</g>
<g id="Layer_4">
</g>
<g id="Layer_5">
</g>
<g id="Layer_6">
</g>
<g id="Layer_7">
</g>
<g id="Layer_8">
</g>
<g id="Layer_9">
</g>
<g id="Layer_10">
</g>
<g id="Layer_11">
</g>
<g id="Layer_12">
</g>
<g id="Layer_13">
</g>
<g id="Layer_14">
</g>
<g id="Layer_15">
	<g>
		<radialGradient id="SVGID_1_" cx="175.3248" cy="122.0976" r="23.3599" gradientUnits="userSpaceOnUse">
			<stop  offset="0" style="stop-color:#88F0E5"/>
			<stop  offset="0.063" style="stop-color:#76E0DF"/>
			<stop  offset="0.2081" style="stop-color:#53C2D3"/>
			<stop  offset="0.3447" style="stop-color:#3AABCB"/>
			<stop  offset="0.4684" style="stop-color:#2A9EC6"/>
			<stop  offset="0.5674" style="stop-color:#2599C4"/>
			<stop  offset="0.8652" style="stop-color:#1B74AF"/>
			<stop  offset="0.9944" style="stop-color:#195C96"/>
		</radialGradient>
		<path class="st37" d="M175.47,89.78c1.14,0.55,5.39,4.06,6.64,5.03c-1.31,1.32-3.71,3.32-4.44,4.95c-0.27,0.6-0.39,1.33-0.54,1.98
			c-0.48,0.45-0.97,0.85-1.5,1.24c-0.71-0.28-1.31-0.9-1.85-1.43c-0.12-0.56-0.19-1.22-0.4-1.76c-0.68-1.71-3.18-3.64-4.58-4.86
			C170.82,93.05,173.25,91.43,175.47,89.78z M173.79,108c-0.4,2.58-0.76,5.16-1.09,7.75l-2.59,18.21c-0.51,3.57-0.86,7.3-1.66,10.82
			c1.56,2.14,3.01,4.38,4.49,6.59c0.67,1,1.32,2.16,2.14,3.05l0.74-0.96c1.44-1.96,3.03-3.79,4.54-5.69
			c0.62-0.78,1.32-1.58,1.83-2.44c-1.3-10.61-2.68-21.21-4.13-31.81c-0.19-1.44-0.94-8.52-1.37-9.32c-0.43,0.2-0.8,0.48-1.3,0.3
			c-0.33-0.12-0.58-0.37-0.82-0.61C174.13,105.19,174,106.63,173.79,108z"/>
		<path class="st73" d="M173.8,53.34c0.73-0.09,1.51-0.11,2.24-0.07c3.7,0.18,8.22,1.95,10.73,4.75c1.43,1.6,1.51,3.19,1.38,5.23
			c-0.41,6.29-2.84,12.67-6.84,17.56c-1.47,1.8-3.15,3.36-4.89,4.89l-0.78,0.69c-0.14-0.1-0.28-0.21-0.42-0.31
			c-6.59-5.2-11.46-12.73-12.42-21.19c-0.25-2.2-0.59-4.85,0.88-6.68C165.94,55.37,170.29,53.74,173.8,53.34z M167.21,38.69
			c-0.39,0.06-0.79,0.12-1.18,0.19c-0.39,0.07-0.79,0.14-1.18,0.21c-0.39,0.08-0.78,0.15-1.17,0.24c-0.39,0.08-0.78,0.17-1.17,0.26
			c-0.39,0.09-0.78,0.19-1.16,0.29c-0.39,0.1-0.77,0.2-1.16,0.31c-0.38,0.11-0.77,0.22-1.15,0.34c-0.38,0.12-0.76,0.24-1.14,0.36
			c-0.38,0.12-0.76,0.25-1.13,0.39c-0.38,0.13-0.75,0.27-1.12,0.41c-0.37,0.14-0.75,0.29-1.12,0.43c-0.37,0.15-0.74,0.3-1.11,0.46
			c-0.37,0.16-0.73,0.32-1.1,0.48c-0.36,0.16-0.73,0.33-1.09,0.5c-0.36,0.17-0.72,0.35-1.08,0.53c-0.36,0.18-0.71,0.36-1.06,0.55
			c-0.35,0.19-0.7,0.38-1.05,0.57c-0.35,0.19-0.7,0.39-1.04,0.59c-0.34,0.2-0.69,0.41-1.03,0.62c-0.34,0.21-0.68,0.42-1.01,0.64
			c-0.34,0.22-0.67,0.44-1,0.66c-0.33,0.22-0.66,0.45-0.98,0.68c-0.33,0.23-0.65,0.46-0.97,0.7c-0.32,0.24-0.64,0.48-0.96,0.72
			c-0.32,0.24-0.63,0.49-0.94,0.74c-0.31,0.25-0.62,0.5-0.92,0.76c-0.31,0.26-0.61,0.52-0.91,0.78c-0.3,0.26-0.6,0.53-0.89,0.8
			c-0.29,0.27-0.58,0.54-0.87,0.82c-0.29,0.28-0.57,0.56-0.86,0.84c-0.28,0.28-0.56,0.57-0.84,0.86c-0.28,0.29-0.55,0.58-0.82,0.87
			c-8.51,9.34-13.67,20.9-14.65,33.53c2.75-1.38,5.53-2.69,8.35-3.93c0.26-1.95,0.84-3.9,1.43-5.78c2.87-9.2,8.47-17.79,16.17-23.68
			c8.98-6.86,20.44-11.11,31.86-10.45c0.4,0.02,0.8,0.04,1.19,0.06c0.4,0.03,0.8,0.06,1.19,0.09c0.4,0.04,0.79,0.08,1.19,0.12
			c0.4,0.04,0.79,0.09,1.19,0.15c0.4,0.05,0.79,0.11,1.18,0.18c0.39,0.06,0.79,0.13,1.18,0.21c0.39,0.07,0.78,0.15,1.17,0.24
			c0.39,0.08,0.78,0.17,1.17,0.27c0.39,0.09,0.77,0.19,1.16,0.29c0.39,0.1,0.77,0.21,1.15,0.32c0.38,0.11,0.76,0.23,1.14,0.35
			c0.38,0.12,0.76,0.25,1.13,0.38c0.38,0.13,0.75,0.27,1.12,0.41c0.37,0.14,0.74,0.29,1.11,0.43c0.37,0.15,0.74,0.3,1.1,0.46
			c0.37,0.16,0.73,0.32,1.09,0.49c0.36,0.17,0.72,0.34,1.08,0.52c0.36,0.18,0.71,0.36,1.07,0.54c0.35,0.19,0.7,0.37,1.05,0.57
			c0.35,0.19,0.69,0.39,1.04,0.59c0.34,0.2,0.68,0.41,1.02,0.62c0.34,0.21,0.67,0.43,1.01,0.65c0.33,0.22,0.66,0.44,0.99,0.67
			c0.33,0.23,0.65,0.46,0.97,0.69c0.32,0.24,0.64,0.47,0.96,0.72c0.32,0.24,0.63,0.49,0.94,0.74c0.31,0.25,0.62,0.51,0.92,0.76
			s0.6,0.52,0.9,0.79c0.3,0.27,0.59,0.54,0.88,0.81c0.29,0.27,0.58,0.55,0.86,0.83c0.28,0.28,0.56,0.56,0.84,0.85
			c0.28,0.29,0.55,0.58,0.82,0.87c4.69,5.1,8.42,11.17,10.45,17.82c0.68,2.21,1.06,4.47,1.66,6.7c2.89,1.16,5.79,2.32,8.57,3.71
			c-0.29-2.66-0.61-5.28-1.19-7.9c-0.09-0.39-0.18-0.77-0.27-1.16c-0.09-0.38-0.19-0.77-0.29-1.15c-0.1-0.38-0.21-0.76-0.32-1.14
			c-0.11-0.38-0.22-0.76-0.34-1.14c-0.12-0.38-0.24-0.75-0.37-1.13c-0.13-0.38-0.26-0.75-0.39-1.12c-0.13-0.37-0.27-0.74-0.41-1.11
			c-0.14-0.37-0.29-0.74-0.44-1.1c-0.15-0.37-0.3-0.73-0.46-1.09c-0.16-0.36-0.32-0.72-0.48-1.08c-0.17-0.36-0.33-0.72-0.51-1.07
			c-0.17-0.36-0.35-0.71-0.53-1.06c-0.18-0.35-0.36-0.7-0.55-1.05c-0.19-0.35-0.38-0.69-0.57-1.04c-0.2-0.34-0.39-0.69-0.6-1.03
			c-0.2-0.34-0.41-0.68-0.62-1.01c-0.21-0.34-0.42-0.67-0.64-1c-0.22-0.33-0.44-0.66-0.66-0.99c-0.22-0.33-0.45-0.65-0.68-0.97
			c-0.23-0.32-0.46-0.64-0.7-0.96c-0.24-0.32-0.48-0.63-0.72-0.94c-0.24-0.31-0.49-0.62-0.74-0.93c-0.25-0.31-0.5-0.61-0.76-0.91
			c-0.26-0.3-0.52-0.6-0.78-0.9c-0.26-0.3-0.53-0.59-0.8-0.88c-0.27-0.29-0.54-0.58-0.82-0.86c-0.28-0.28-0.55-0.57-0.84-0.84
			c-0.28-0.28-0.57-0.55-0.85-0.83c-0.29-0.27-0.58-0.54-0.87-0.81c-0.29-0.27-0.59-0.53-0.89-0.79c-0.3-0.26-0.6-0.52-0.9-0.77
			c-0.3-0.25-0.61-0.5-0.92-0.75c-0.32-0.26-0.65-0.51-0.98-0.76c-0.33-0.25-0.66-0.5-1-0.74c-0.33-0.24-0.67-0.48-1.01-0.72
			c-0.34-0.24-0.68-0.47-1.03-0.7c-0.35-0.23-0.69-0.45-1.04-0.67c-0.35-0.22-0.7-0.44-1.06-0.65c-0.35-0.21-0.71-0.42-1.07-0.63
			c-0.36-0.21-0.72-0.41-1.09-0.6c-0.36-0.2-0.73-0.39-1.1-0.58s-0.74-0.37-1.11-0.55c-0.37-0.18-0.75-0.36-1.12-0.53
			c-0.38-0.17-0.75-0.34-1.13-0.51c-0.38-0.16-0.76-0.32-1.14-0.48c-0.38-0.16-0.77-0.31-1.16-0.45s-0.78-0.29-1.16-0.43
			c-0.39-0.14-0.78-0.27-1.17-0.4c-0.39-0.13-0.79-0.26-1.18-0.38c-0.4-0.12-0.79-0.24-1.19-0.35c-0.4-0.11-0.8-0.22-1.2-0.32
			c-0.4-0.1-0.8-0.2-1.21-0.3c-0.4-0.09-0.81-0.19-1.21-0.27c-0.4-0.09-0.81-0.17-1.22-0.24c-0.41-0.08-0.81-0.15-1.22-0.22
			c-0.41-0.07-0.82-0.13-1.23-0.19c-0.41-0.06-0.82-0.11-1.23-0.16c-0.41-0.05-0.82-0.1-1.23-0.14c-0.41-0.04-0.82-0.08-1.24-0.11
			c-0.41-0.03-0.83-0.06-1.24-0.08c-0.41-0.02-0.83-0.04-1.24-0.05c-0.41-0.01-0.83-0.02-1.24-0.03c-0.41,0-0.83,0-1.24,0
			s-0.83,0.01-1.24,0.03C171.61,38.23,169.4,38.36,167.21,38.69z M124.66,91.8c-0.8,0.38-1.6,0.78-2.39,1.19
			c-0.79,0.41-1.58,0.82-2.35,1.25c-0.78,0.43-1.55,0.86-2.32,1.31c-0.77,0.45-1.53,0.9-2.29,1.37c-0.76,0.47-1.51,0.94-2.25,1.43
			c-0.74,0.49-1.48,0.98-2.21,1.49c-0.73,0.51-1.45,1.02-2.17,1.54c-0.72,0.52-1.43,1.06-2.13,1.6c-0.7,0.54-1.4,1.09-2.09,1.66
			c-0.69,0.56-1.37,1.13-2.04,1.71c-0.67,0.58-1.34,1.17-2,1.76s-1.31,1.2-1.95,1.81c-0.64,0.61-1.28,1.24-1.9,1.86
			c-0.63,0.63-1.24,1.27-1.85,1.91c-0.61,0.65-1.21,1.3-1.8,1.96c-1.63,1.82-3.32,3.63-4.74,5.62
			c10.27-7.81,24.21-13.64,36.44-17.61c0.75,3.14,1.6,6.26,2.79,9.26c0.13,0.32,0.25,0.63,0.38,0.95c0.13,0.31,0.27,0.63,0.4,0.94
			c0.14,0.31,0.28,0.62,0.42,0.93c0.14,0.31,0.29,0.62,0.44,0.92c0.15,0.31,0.3,0.61,0.46,0.91c0.16,0.3,0.31,0.6,0.48,0.9
			c0.16,0.3,0.33,0.6,0.49,0.89c0.17,0.3,0.34,0.59,0.51,0.88c0.17,0.29,0.35,0.58,0.53,0.87c0.18,0.29,0.36,0.58,0.55,0.86
			c0.19,0.29,0.37,0.57,0.56,0.85c0.19,0.28,0.38,0.56,0.58,0.84c0.2,0.28,0.4,0.55,0.6,0.83c0.2,0.27,0.41,0.55,0.61,0.82
			c0.21,0.27,0.42,0.54,0.63,0.8c0.21,0.27,0.43,0.53,0.65,0.79c0.22,0.26,0.44,0.52,0.66,0.78c0.22,0.26,0.45,0.51,0.68,0.77
			c0.23,0.25,0.46,0.5,0.69,0.75c0.23,0.25,0.47,0.49,0.71,0.74c0.24,0.24,0.48,0.49,0.72,0.72c0.24,0.24,0.49,0.48,0.73,0.71
			c0.25,0.23,0.5,0.47,0.75,0.69c0.25,0.23,0.51,0.46,0.76,0.68c0.26,0.22,0.51,0.45,0.78,0.66c0.26,0.22,0.52,0.44,0.79,0.65
			c0.26,0.21,0.53,0.42,0.8,0.63c0.27,0.21,0.54,0.41,0.81,0.62c0.27,0.2,0.55,0.4,0.83,0.6c0.28,0.2,0.56,0.39,0.84,0.58
			c0.28,0.19,0.56,0.38,0.85,0.57c0.28,0.19,0.57,0.37,0.86,0.55c1.84,1.12,3.74,2.13,5.71,3.02c4.11,1.82,8.21,2.98,12.58,4
			c0.82-5.42,1.6-10.84,2.33-16.27c1.3-8.53,2.48-17.07,3.56-25.63c-2.92-3.73-6.02-7.33-9.05-10.97l-13,6.46
			c-2.32,1.16-5.73,2.53-7.65,4.14c-1.46,1.22-2.58,2.9-3.21,4.69c-0.97,2.75-0.59,6.09-0.56,8.98c0.03,3.12,0.13,6.25,0.05,9.37
			c-5.85-7.22-9.77-15.39-11.07-24.63c-0.18-1.35-0.31-2.71-0.39-4.08c-0.08-1.36-0.1-2.73-0.06-4.09c0.01-0.38,0.15-1.74-0.09-1.96
			C126.27,91.04,125.46,91.42,124.66,91.8z M223.13,100.03c-0.07,0.57-0.15,1.14-0.25,1.71c-0.09,0.57-0.19,1.13-0.31,1.7
			c-0.11,0.56-0.23,1.13-0.37,1.69c-0.13,0.56-0.27,1.12-0.43,1.67c-0.15,0.56-0.31,1.11-0.49,1.66c-0.17,0.55-0.35,1.1-0.54,1.64
			c-0.19,0.54-0.39,1.08-0.6,1.62c-0.21,0.54-0.43,1.07-0.66,1.6c-0.23,0.53-0.47,1.05-0.71,1.57c-0.25,0.52-0.5,1.03-0.77,1.55
			c-0.27,0.51-0.54,1.02-0.82,1.52c-0.28,0.5-0.58,1-0.88,1.49c-0.3,0.49-0.61,0.98-0.93,1.46c-0.32,0.48-0.65,0.95-0.98,1.42
			c-0.34,0.47-0.68,0.93-1.03,1.39c-0.35,0.46-0.71,0.91-1.08,1.35l0.08-9.79c0.02-2.56,0.33-5.46-0.3-7.95
			c-0.06-0.22-0.12-0.43-0.19-0.65c-0.07-0.21-0.15-0.43-0.23-0.63c-0.08-0.21-0.18-0.41-0.27-0.62c-0.1-0.2-0.2-0.4-0.31-0.6
			c-0.11-0.2-0.23-0.39-0.35-0.58c-0.12-0.19-0.25-0.37-0.39-0.55c-0.14-0.18-0.28-0.35-0.43-0.52c-0.15-0.17-0.3-0.34-0.46-0.49
			c-2.32-2.36-6.89-3.9-9.91-5.34l-11.69-5.56c-1.69,1.93-3.25,3.97-4.85,5.98c-1.31,1.65-2.67,3.26-3.93,4.95
			c0.86,6.17,1.52,12.37,2.35,18.54c1.02,7.59,2.21,15.16,3.04,22.78c4.04-0.27,9.52-2.04,13.22-3.73c2.03-0.97,4.05-1.96,5.96-3.16
			c0.29-0.19,0.58-0.37,0.87-0.56c0.29-0.19,0.58-0.39,0.86-0.58c0.29-0.2,0.57-0.4,0.85-0.6c0.28-0.2,0.56-0.41,0.84-0.62
			s0.55-0.42,0.82-0.64c0.27-0.21,0.54-0.43,0.81-0.65c0.27-0.22,0.53-0.44,0.8-0.67c0.26-0.23,0.52-0.45,0.78-0.69
			c0.26-0.23,0.51-0.47,0.77-0.7c0.25-0.24,0.5-0.48,0.75-0.72c0.25-0.24,0.49-0.49,0.74-0.73c0.24-0.25,0.48-0.5,0.72-0.75
			c0.24-0.25,0.47-0.51,0.7-0.76c0.23-0.26,0.46-0.52,0.69-0.78c0.23-0.26,0.45-0.53,0.67-0.79c0.22-0.27,0.44-0.54,0.66-0.81
			c0.22-0.27,0.43-0.55,0.64-0.82c0.21-0.28,0.42-0.55,0.62-0.83c0.2-0.28,0.4-0.56,0.6-0.85c0.2-0.28,0.39-0.57,0.59-0.86
			c0.19-0.29,0.38-0.58,0.57-0.87c0.19-0.29,0.37-0.59,0.55-0.88c0.18-0.3,0.36-0.59,0.53-0.89c0.17-0.3,0.34-0.6,0.51-0.91
			c0.17-0.3,0.33-0.61,0.49-0.92s0.32-0.62,0.47-0.93c0.15-0.31,0.31-0.62,0.45-0.94c0.15-0.31,0.29-0.63,0.43-0.95
			c0.14-0.32,0.28-0.63,0.41-0.95c0.13-0.32,0.27-0.64,0.39-0.96c0.13-0.32,0.25-0.65,0.37-0.97c0.12-0.32,0.24-0.65,0.35-0.98
			c0.82-2.31,1.45-4.66,2.02-7.05c0.83,0.18,1.65,0.37,2.47,0.57c0.82,0.2,1.64,0.42,2.45,0.64c0.81,0.22,1.63,0.46,2.43,0.71
			c0.81,0.25,1.61,0.5,2.41,0.77c0.8,0.27,1.6,0.55,2.39,0.84c0.79,0.29,1.58,0.59,2.37,0.9c0.79,0.31,1.57,0.63,2.35,0.96
			c0.78,0.33,1.55,0.67,2.32,1.02c0.77,0.35,1.53,0.71,2.29,1.09c0.76,0.37,1.51,0.75,2.26,1.15c0.75,0.39,1.49,0.8,2.23,1.21
			s1.47,0.83,2.2,1.27c0.73,0.43,1.45,0.87,2.16,1.33c0.71,0.45,1.42,0.91,2.12,1.38c0.7,0.47,1.4,0.95,2.09,1.44
			s1.37,0.99,2.05,1.49c-9.49-11.64-19.07-20.34-32.41-27.43c-2.14-1.14-4.35-2.49-6.62-3.34
			C223.55,93.68,223.52,96.84,223.13,100.03z M234.02,122.23c-0.18,0.41-0.36,0.82-0.55,1.23c-0.19,0.41-0.38,0.82-0.57,1.22
			c-0.2,0.41-0.4,0.81-0.6,1.21c-0.2,0.4-0.41,0.8-0.63,1.2c-0.21,0.4-0.43,0.79-0.65,1.18c-0.22,0.39-0.45,0.78-0.68,1.17
			c-0.23,0.39-0.46,0.77-0.7,1.15c-0.24,0.38-0.48,0.76-0.73,1.14c-0.25,0.38-0.5,0.75-0.75,1.12c-0.25,0.37-0.51,0.74-0.77,1.11
			c-0.26,0.37-0.53,0.73-0.8,1.09c-0.27,0.36-0.54,0.72-0.82,1.07c-0.28,0.36-0.56,0.71-0.84,1.06c-0.28,0.35-0.57,0.7-0.86,1.04
			c-0.29,0.34-0.59,0.68-0.89,1.02c-0.3,0.34-0.6,0.67-0.91,1c-0.31,0.33-0.61,0.66-0.93,0.98c-0.31,0.32-0.63,0.64-0.95,0.96
			c-0.32,0.32-0.64,0.63-0.97,0.94c-0.33,0.31-0.66,0.62-0.99,0.92c-0.33,0.3-0.67,0.6-1.01,0.9c-0.34,0.3-0.68,0.59-1.03,0.88
			c-0.35,0.29-0.69,0.57-1.04,0.86c-0.35,0.28-0.71,0.56-1.06,0.83c-0.36,0.27-0.72,0.54-1.08,0.81c-0.36,0.27-0.73,0.53-1.1,0.79
			c-0.37,0.26-0.74,0.51-1.11,0.76c-0.37,0.25-0.75,0.5-1.13,0.74c-0.38,0.24-0.76,0.48-1.14,0.72c-0.38,0.24-0.77,0.47-1.16,0.69
			c-0.39,0.23-0.78,0.45-1.17,0.67c-0.39,0.22-0.79,0.43-1.19,0.64c-14.96,7.89-32.97,9.07-49.02,4.07
			c-0.51-0.17-1.03-0.34-1.54-0.51c-0.51-0.18-1.02-0.36-1.52-0.55s-1.01-0.39-1.51-0.59c-0.5-0.2-1-0.41-1.49-0.63
			c-0.5-0.21-0.99-0.44-1.48-0.66c-0.49-0.23-0.98-0.46-1.46-0.7c-0.48-0.24-0.97-0.48-1.44-0.73c-0.48-0.25-0.95-0.51-1.43-0.77
			s-0.94-0.53-1.41-0.8c-0.47-0.27-0.93-0.55-1.39-0.84c-0.46-0.28-0.91-0.57-1.37-0.87c-0.45-0.3-0.9-0.6-1.34-0.9
			c-0.44-0.31-0.89-0.62-1.32-0.94c-0.44-0.32-0.87-0.64-1.3-0.97c-0.43-0.33-0.85-0.66-1.27-1c-0.42-0.34-0.84-0.68-1.25-1.03
			c-0.41-0.35-0.82-0.7-1.22-1.06c-0.4-0.36-0.8-0.72-1.2-1.09c-0.39-0.37-0.79-0.74-1.17-1.12c-0.39-0.38-0.77-0.76-1.14-1.15
			c-0.38-0.39-0.75-0.78-1.12-1.17c-0.37-0.4-0.73-0.8-1.09-1.2c-0.36-0.4-0.71-0.81-1.06-1.23c-0.35-0.41-0.69-0.83-1.03-1.25
			c-0.34-0.42-0.67-0.85-1-1.28c-0.33-0.43-0.65-0.86-0.96-1.3c-0.32-0.44-0.63-0.88-0.93-1.32c-0.31-0.44-0.61-0.89-0.9-1.35
			c-0.29-0.45-0.58-0.91-0.87-1.37c-0.28-0.46-0.56-0.92-0.83-1.39c-0.27-0.47-0.54-0.94-0.8-1.41c-0.26-0.47-0.52-0.95-0.76-1.43
			c-0.95-1.79-1.81-3.63-2.58-5.5c-0.77-1.87-1.45-3.78-2.04-5.72c-3.1,1.23-6.2,2.6-9.15,4.16c1.1,3.92,2.74,7.78,4.52,11.44
			c1.04,2,2.08,4,3.28,5.92c0.29,0.47,0.58,0.93,0.88,1.4c0.3,0.46,0.6,0.92,0.92,1.38c0.31,0.46,0.63,0.91,0.95,1.36
			c0.32,0.45,0.65,0.89,0.98,1.34c0.33,0.44,0.66,0.88,1,1.31c0.34,0.43,0.68,0.86,1.03,1.29c0.35,0.43,0.7,0.85,1.06,1.27
			c0.36,0.42,0.72,0.83,1.09,1.24c0.37,0.41,0.74,0.82,1.12,1.22c0.38,0.4,0.76,0.8,1.14,1.2s0.77,0.78,1.17,1.17
			c0.39,0.39,0.79,0.77,1.19,1.14c0.4,0.38,0.81,0.75,1.22,1.12c0.41,0.37,0.82,0.73,1.24,1.09c0.42,0.36,0.84,0.71,1.27,1.06
			c0.43,0.35,0.86,0.69,1.29,1.03c0.43,0.34,0.87,0.68,1.31,1.01c0.44,0.33,0.89,0.66,1.33,0.98c0.45,0.32,0.9,0.64,1.36,0.95
			c0.46,0.31,0.91,0.62,1.38,0.92c0.46,0.3,0.93,0.6,1.4,0.89c0.47,0.29,0.94,0.58,1.41,0.86c0.47,0.28,0.95,0.56,1.43,0.82
			c0.48,0.27,0.96,0.53,1.45,0.79c0.49,0.26,0.98,0.51,1.47,0.76c0.49,0.25,0.99,0.49,1.48,0.73c0.5,0.24,1,0.47,1.5,0.7
			c0.5,0.23,1.01,0.45,1.52,0.66c0.51,0.22,1.02,0.42,1.53,0.63c0.51,0.2,1.03,0.4,1.54,0.59c0.52,0.19,1.04,0.38,1.56,0.56
			c0.52,0.18,1.04,0.36,1.57,0.53c0.59,0.19,1.19,0.38,1.79,0.55c0.6,0.18,1.2,0.35,1.8,0.51c0.6,0.16,1.21,0.32,1.81,0.47
			c0.61,0.15,1.21,0.29,1.82,0.42c0.61,0.13,1.22,0.26,1.83,0.37c0.61,0.12,1.23,0.23,1.84,0.33c0.62,0.1,1.23,0.2,1.85,0.28
			c0.62,0.09,1.24,0.17,1.86,0.24c0.62,0.07,1.24,0.13,1.86,0.19s1.24,0.1,1.87,0.14c0.62,0.04,1.25,0.07,1.87,0.1
			s1.25,0.04,1.87,0.05c0.62,0.01,1.25,0.01,1.87,0c0.62-0.01,1.25-0.02,1.87-0.04c0.62-0.02,1.25-0.05,1.87-0.09
			c0.62-0.04,1.25-0.08,1.87-0.14c0.62-0.05,1.24-0.11,1.86-0.18c0.62-0.07,1.24-0.14,1.86-0.23c0.62-0.08,1.24-0.17,1.85-0.27
			c0.62-0.1,1.23-0.21,1.84-0.32c0.61-0.11,1.23-0.24,1.84-0.37c0.61-0.13,1.22-0.27,1.83-0.41c0.61-0.14,1.21-0.3,1.82-0.46
			c0.6-0.16,1.2-0.33,1.8-0.5c0.6-0.17,1.2-0.36,1.79-0.55c0.59-0.19,1.19-0.39,1.78-0.59c0.59-0.2,1.18-0.42,1.76-0.63
			c0.58-0.22,1.17-0.45,1.74-0.68c0.58-0.23,1.15-0.47,1.73-0.72c0.57-0.25,1.14-0.5,1.71-0.76c0.57-0.26,1.13-0.53,1.69-0.81
			s1.12-0.56,1.67-0.85c0.53-0.28,1.06-0.57,1.58-0.86c0.52-0.29,1.04-0.59,1.56-0.9c0.52-0.31,1.03-0.62,1.53-0.94
			c0.51-0.32,1.01-0.64,1.51-0.97c0.5-0.33,1-0.67,1.49-1.01c0.49-0.34,0.98-0.69,1.46-1.05c0.48-0.35,0.96-0.71,1.44-1.08
			c0.47-0.37,0.94-0.74,1.41-1.12c0.47-0.38,0.93-0.76,1.38-1.15c0.46-0.39,0.91-0.78,1.35-1.18c0.45-0.4,0.89-0.8,1.32-1.21
			c0.44-0.41,0.87-0.83,1.29-1.25c0.43-0.42,0.85-0.85,1.26-1.28c0.42-0.43,0.83-0.87,1.23-1.31c0.41-0.44,0.81-0.89,1.2-1.34
			c0.39-0.45,0.78-0.91,1.17-1.37c0.38-0.46,0.76-0.93,1.13-1.39c0.37-0.47,0.74-0.94,1.1-1.42c0.36-0.48,0.72-0.96,1.06-1.45
			c0.35-0.49,0.69-0.98,1.03-1.47c0.34-0.5,0.67-0.99,0.99-1.5c0.32-0.5,0.64-1.01,0.96-1.52c0.31-0.51,0.62-1.03,0.92-1.54
			c0.3-0.52,0.59-1.04,0.88-1.57c0.29-0.53,0.57-1.05,0.84-1.59c0.27-0.53,0.54-1.07,0.8-1.61c0.26-0.54,0.52-1.08,0.76-1.63
			c0.25-0.55,0.49-1.09,0.72-1.64c0.24-0.55,0.46-1.11,0.68-1.66c0.22-0.56,0.44-1.12,0.64-1.68c0.21-0.56,0.41-1.13,0.6-1.69
			c0.19-0.57,0.38-1.14,0.56-1.71c0.18-0.57,0.36-1.13,0.5-1.71c-3.17-1.46-6.38-3.1-9.71-4.16
			C236.32,116.29,235.32,119.29,234.02,122.23z"/>
		<path class="st74" d="M173.68,23.46c1.98-0.03,3.96,0,5.94,0.12c0.61,0.03,1.21,0.08,1.82,0.12s1.21,0.11,1.82,0.17
			c0.6,0.06,1.21,0.14,1.81,0.21c0.6,0.08,1.21,0.17,1.81,0.26c0.6,0.09,1.2,0.2,1.8,0.3c0.6,0.11,1.2,0.23,1.79,0.35
			c0.6,0.12,1.19,0.25,1.78,0.39c0.59,0.14,1.18,0.28,1.77,0.44s1.18,0.31,1.76,0.48c0.58,0.17,1.17,0.34,1.75,0.53
			c0.58,0.18,1.16,0.37,1.73,0.57c0.58,0.2,1.15,0.4,1.72,0.61c0.57,0.21,1.14,0.43,1.7,0.65c0.57,0.23,1.13,0.46,1.69,0.7
			c0.56,0.24,1.12,0.49,1.67,0.74c0.55,0.25,1.1,0.51,1.65,0.78c0.55,0.27,1.09,0.54,1.63,0.82c0.54,0.28,1.08,0.57,1.61,0.86
			c0.53,0.29,1.06,0.59,1.59,0.9c0.53,0.31,1.05,0.62,1.56,0.94c0.52,0.32,1.03,0.65,1.54,0.98c0.51,0.33,1.01,0.67,1.52,1.02
			c0.5,0.35,1,0.7,1.49,1.05c0.49,0.36,0.98,0.72,1.46,1.09c0.48,0.37,0.96,0.74,1.44,1.13c0.47,0.38,0.94,0.77,1.41,1.16
			c0.46,0.39,0.92,0.79,1.38,1.2c0.45,0.4,0.9,0.81,1.35,1.23c0.44,0.42,0.88,0.84,1.32,1.26c0.43,0.43,0.86,0.86,1.28,1.3
			c0.42,0.44,0.84,0.88,1.25,1.33s0.82,0.9,1.22,1.36c0.39,0.45,0.78,0.9,1.16,1.35c0.38,0.46,0.75,0.91,1.12,1.38
			c0.37,0.46,0.73,0.93,1.09,1.41c0.36,0.47,0.71,0.95,1.05,1.43c0.35,0.48,0.68,0.97,1.02,1.46c0.33,0.49,0.66,0.98,0.98,1.48
			c0.32,0.5,0.64,1,0.95,1.51c0.31,0.51,0.61,1.02,0.91,1.53c0.3,0.51,0.59,1.03,0.87,1.55c0.28,0.52,0.56,1.04,0.83,1.57
			c0.27,0.53,0.54,1.06,0.79,1.59c0.26,0.53,0.51,1.07,0.75,1.61c0.24,0.54,0.48,1.08,0.71,1.63c0.23,0.55,0.46,1.09,0.67,1.64
			c0.22,0.55,0.43,1.1,0.63,1.66c0.2,0.56,0.4,1.11,0.59,1.68c0.19,0.56,0.37,1.12,0.55,1.69c0.18,0.57,0.35,1.13,0.51,1.7
			c0.16,0.57,0.32,1.14,0.47,1.71c0.15,0.57,0.29,1.15,0.43,1.73c0.14,0.58,0.26,1.16,0.38,1.74c0.12,0.58,0.23,1.16,0.34,1.74
			c0.11,0.58,0.21,1.17,0.3,1.75c0.09,0.59,0.18,1.17,0.25,1.76c0.08,0.59,0.15,1.18,0.21,1.76c0.06,0.59,0.12,1.18,0.17,1.77
			c0.05,0.59,0.09,1.18,0.12,1.77c0.03,0.59,0.06,1.18,0.08,1.78c0.02,0.59,0.03,1.18,0.04,1.78c0.01,0.59,0,1.19-0.01,1.78
			c-0.01,0.59-0.03,1.18-0.05,1.78c-0.02,0.59-0.05,1.18-0.09,1.78c-1.49-1.11-2.9-2.32-4.4-3.42c-2.76-2.02-5.65-3.87-8.54-5.7
			c-0.57-14.98-6.17-28.07-16.38-39.02c-10.85-11.63-26.21-18.03-41.98-18.58c-14.61-0.58-29.16,4.68-40.44,13.89
			c-0.33,0.27-0.65,0.54-0.97,0.81c-0.32,0.27-0.64,0.55-0.95,0.83c-0.31,0.28-0.62,0.57-0.93,0.85c-0.31,0.29-0.61,0.58-0.91,0.87
			c-0.3,0.29-0.6,0.59-0.89,0.89c-0.29,0.3-0.59,0.6-0.88,0.91c-0.29,0.31-0.57,0.62-0.86,0.93c-0.28,0.31-0.56,0.63-0.84,0.95
			c-0.28,0.32-0.55,0.64-0.82,0.97c-0.27,0.32-0.53,0.65-0.79,0.98c-0.26,0.33-0.52,0.66-0.77,1c-0.25,0.34-0.5,0.67-0.75,1.02
			c-0.25,0.34-0.49,0.69-0.73,1.03c-0.24,0.35-0.48,0.7-0.71,1.05c-0.23,0.35-0.46,0.71-0.69,1.06c-0.22,0.36-0.45,0.71-0.66,1.08
			c-0.22,0.36-0.43,0.72-0.64,1.09c-0.21,0.37-0.41,0.73-0.62,1.1c-0.2,0.37-0.4,0.74-0.59,1.12c-0.19,0.37-0.38,0.75-0.57,1.13
			c-0.19,0.38-0.37,0.76-0.54,1.14c-0.18,0.38-0.35,0.77-0.52,1.15c-0.17,0.39-0.33,0.77-0.5,1.16c-0.16,0.39-0.32,0.78-0.47,1.17
			c-0.15,0.39-0.3,0.79-0.45,1.18c-0.14,0.4-0.28,0.79-0.42,1.19c-0.14,0.4-0.27,0.8-0.4,1.2c-0.13,0.4-0.25,0.8-0.37,1.21
			c-0.12,0.4-0.23,0.81-0.34,1.22c-0.11,0.41-0.22,0.81-0.32,1.22c-0.1,0.41-0.2,0.82-0.29,1.23c-0.09,0.41-0.18,0.82-0.27,1.24
			c-0.68,3.35-0.92,6.67-1.26,10.06c-2.16,1.44-4.38,2.78-6.54,4.23c-2.15,1.45-4.2,3.01-6.25,4.59c-0.13-3.69-0.18-7.42,0.13-11.11
			c1.42-16.56,8.42-31.55,19.7-43.66C132.65,35,147.25,27.3,162.34,24.57C166.1,23.89,169.86,23.6,173.68,23.46z"/>
	</g>
</g>
</svg>
