<?xml version="1.0" encoding="utf-8"?>
<!-- Generator: Adobe Illustrator 27.8.1, SVG Export Plug-In . SVG Version: 6.00 Build 0)  -->
<svg version="1.1" xmlns="http://www.w3.org/2000/svg" xmlns:xlink="http://www.w3.org/1999/xlink" x="0px" y="0px"
	 viewBox="0 0 350 230" style="enable-background:new 0 0 350 230;" xml:space="preserve">
<style type="text/css">
	.st0{fill:#FFFDE6;}
	.st1{fill:#EBFFFB;}
	.st2{fill:#E6FFF4;}
	.st3{fill:#EEFFF2;}
	.st4{fill:#F3FFE6;}
	.st5{fill:#F3FFFF;}
	.st6{fill:#ECFFE9;}
	.st7{fill:#0E045F;}
	.st8{fill:#CD00FF;}
	.st9{fill:#8CC63F;}
	.st10{fill:#39B54A;}
	.st11{fill:#00770B;}
	.st12{fill:#040051;}
	.st13{fill:#005B59;}
	.st14{fill:#00EDFF;}
	.st15{fill:#006359;}
	.st16{fill:#00006D;}
	.st17{fill:#29004C;}
	.st18{fill:#EB900C;}
	.st19{fill:#DB6E28;}
	.st20{fill:#FFFFFF;}
	.st21{fill:#2D000F;}
	.st22{fill:#660061;}
	.st23{fill:#660061;stroke:#2D002D;stroke-miterlimit:10;}
	.st24{fill:#00AFC6;}
	.st25{fill:#003F39;}
	.st26{fill:#00DCC8;}
	.st27{fill:#FD1F00;}
	.st28{fill:#07186D;}
	.st29{fill:#005C7C;}
	.st30{fill:#8C4B03;}
	.st31{fill:#A38B00;}
	.st32{fill:#20008F;}
	.st33{fill:#003A1D;}
	.st34{fill:#284200;}
	.st35{fill:#00CED8;}
	.st36{fill:url(#graphics_00000115486169243676718460000017595297283823779979_);}
	.st37{fill:url(#SVGID_1_);}
	.st38{fill:url(#SVGID_00000011752225839709360180000011005490191244048273_);}
	.st39{fill:#1F1F29;}
	.st40{fill:url(#SVGID_00000111165625147249572640000004012987750859352767_);}
	.st41{fill:#909198;}
	.st42{fill:#149BB7;}
	.st43{fill:url(#SVGID_00000044169723735869183930000002126721458606795187_);}
	.st44{fill:#0E5883;}
	.st45{fill:#0D1230;}
	.st46{fill:#283151;}
	.st47{fill:url(#SVGID_00000173869960745551799320000015469067034798736051_);}
	.st48{fill:url(#SVGID_00000012462678460357831420000011802565085382254248_);}
	.st49{fill:#92959D;}
	.st50{fill:url(#SVGID_00000109751353090679874470000000583245488916632986_);}
	.st51{fill:#7ABF45;}
	.st52{fill:#1DA4CC;}
	.st53{fill:#F89B1B;}
	.st54{fill:#16A79A;}
	.st55{fill:#FAFFD4;}
	.st56{fill:url(#SVGID_00000086662389463146545380000007194515671248895409_);}
	.st57{fill:#070B33;}
	.st58{fill:url(#SVGID_00000008849430627355415770000010388976262380111496_);}
	.st59{fill:#FEFEFE;}
	.st60{fill:url(#SVGID_00000059297923717697111070000017514740170198754456_);}
	.st61{fill:#0C1941;}
	.st62{fill:#EE5A14;}
	.st63{fill:#1A56B5;}
	.st64{fill:url(#SVGID_00000000204074870265260620000016906236331456189340_);}
	.st65{fill:url(#SVGID_00000132767004110500266500000003551959753043919746_);}
	.st66{fill:#264C61;}
	.st67{fill:#071926;}
	.st68{fill:url(#SVGID_00000070115075931417302050000003669438509076396204_);}
	.st69{fill:url(#SVGID_00000104675745763808431160000014231950871234549151_);}
	.st70{fill:url(#SVGID_00000163769730745434585480000006208867745096356510_);}
	.st71{fill:url(#SVGID_00000140711145449755861690000005946145199460976018_);}
	.st72{fill:url(#SVGID_00000155859011960256891230000006619192074308429736_);}
	.st73{fill:#18306C;}
	.st74{fill:#1A6FC2;}
	.st75{fill:url(#SVGID_00000174597031790299954190000007593191413965076394_);}
	.st76{fill:url(#SVGID_00000158025863286375070040000006997021106507106710_);}
	.st77{fill:none;stroke:#282A58;stroke-linecap:round;stroke-linejoin:round;stroke-miterlimit:10;}
	.st78{clip-path:url(#SVGID_00000129915173886145765040000002714794274604074668_);fill:#195C96;}
	.st79{clip-path:url(#SVGID_00000129915173886145765040000002714794274604074668_);fill:#195D97;}
	.st80{clip-path:url(#SVGID_00000129915173886145765040000002714794274604074668_);fill:#195E98;}
	.st81{clip-path:url(#SVGID_00000129915173886145765040000002714794274604074668_);fill:#195F99;}
	.st82{clip-path:url(#SVGID_00000129915173886145765040000002714794274604074668_);fill:#19609A;}
	.st83{clip-path:url(#SVGID_00000129915173886145765040000002714794274604074668_);fill:#19619B;}
	.st84{clip-path:url(#SVGID_00000129915173886145765040000002714794274604074668_);fill:#1A629C;}
	.st85{clip-path:url(#SVGID_00000129915173886145765040000002714794274604074668_);fill:#1A639D;}
	.st86{clip-path:url(#SVGID_00000129915173886145765040000002714794274604074668_);fill:#1A649E;}
	.st87{clip-path:url(#SVGID_00000129915173886145765040000002714794274604074668_);fill:#1A659F;}
	.st88{clip-path:url(#SVGID_00000129915173886145765040000002714794274604074668_);fill:#1A66A0;}
	.st89{clip-path:url(#SVGID_00000129915173886145765040000002714794274604074668_);fill:#1A67A1;}
	.st90{clip-path:url(#SVGID_00000129915173886145765040000002714794274604074668_);fill:#1A68A3;}
	.st91{clip-path:url(#SVGID_00000129915173886145765040000002714794274604074668_);fill:#1A69A4;}
	.st92{clip-path:url(#SVGID_00000129915173886145765040000002714794274604074668_);fill:#1A6AA5;}
	.st93{clip-path:url(#SVGID_00000129915173886145765040000002714794274604074668_);fill:#1A6BA6;}
	.st94{clip-path:url(#SVGID_00000129915173886145765040000002714794274604074668_);fill:#1A6CA7;}
	.st95{clip-path:url(#SVGID_00000129915173886145765040000002714794274604074668_);fill:#1A6DA8;}
	.st96{clip-path:url(#SVGID_00000129915173886145765040000002714794274604074668_);fill:#1B6EA9;}
	.st97{clip-path:url(#SVGID_00000129915173886145765040000002714794274604074668_);fill:#1B6FAA;}
	.st98{clip-path:url(#SVGID_00000129915173886145765040000002714794274604074668_);fill:#1B70AB;}
	.st99{clip-path:url(#SVGID_00000129915173886145765040000002714794274604074668_);fill:#1B71AC;}
	.st100{clip-path:url(#SVGID_00000129915173886145765040000002714794274604074668_);fill:#1B72AD;}
	.st101{clip-path:url(#SVGID_00000129915173886145765040000002714794274604074668_);fill:#1B73AE;}
	.st102{clip-path:url(#SVGID_00000129915173886145765040000002714794274604074668_);fill:#1B74AF;}
	.st103{clip-path:url(#SVGID_00000129915173886145765040000002714794274604074668_);fill:#1B75B0;}
	.st104{clip-path:url(#SVGID_00000129915173886145765040000002714794274604074668_);fill:#1C76B0;}
	.st105{clip-path:url(#SVGID_00000129915173886145765040000002714794274604074668_);fill:#1C77B1;}
	.st106{clip-path:url(#SVGID_00000129915173886145765040000002714794274604074668_);fill:#1C78B1;}
	.st107{clip-path:url(#SVGID_00000129915173886145765040000002714794274604074668_);fill:#1C79B2;}
	.st108{clip-path:url(#SVGID_00000129915173886145765040000002714794274604074668_);fill:#1D7AB3;}
	.st109{clip-path:url(#SVGID_00000129915173886145765040000002714794274604074668_);fill:#1D7BB3;}
	.st110{clip-path:url(#SVGID_00000129915173886145765040000002714794274604074668_);fill:#1D7CB4;}
	.st111{clip-path:url(#SVGID_00000129915173886145765040000002714794274604074668_);fill:#1E7DB4;}
	.st112{clip-path:url(#SVGID_00000129915173886145765040000002714794274604074668_);fill:#1E7EB5;}
	.st113{clip-path:url(#SVGID_00000129915173886145765040000002714794274604074668_);fill:#1E7FB5;}
	.st114{clip-path:url(#SVGID_00000129915173886145765040000002714794274604074668_);fill:#1E80B6;}
	.st115{clip-path:url(#SVGID_00000129915173886145765040000002714794274604074668_);fill:#1F81B7;}
	.st116{clip-path:url(#SVGID_00000129915173886145765040000002714794274604074668_);fill:#1F82B7;}
	.st117{clip-path:url(#SVGID_00000129915173886145765040000002714794274604074668_);fill:#1F83B8;}
	.st118{clip-path:url(#SVGID_00000129915173886145765040000002714794274604074668_);fill:#1F84B8;}
	.st119{clip-path:url(#SVGID_00000129915173886145765040000002714794274604074668_);fill:#2085B9;}
	.st120{clip-path:url(#SVGID_00000129915173886145765040000002714794274604074668_);fill:#2087BA;}
	.st121{clip-path:url(#SVGID_00000129915173886145765040000002714794274604074668_);fill:#2088BA;}
	.st122{clip-path:url(#SVGID_00000129915173886145765040000002714794274604074668_);fill:#2189BB;}
	.st123{clip-path:url(#SVGID_00000129915173886145765040000002714794274604074668_);fill:#218ABB;}
	.st124{clip-path:url(#SVGID_00000129915173886145765040000002714794274604074668_);fill:#218BBC;}
	.st125{clip-path:url(#SVGID_00000129915173886145765040000002714794274604074668_);fill:#218CBC;}
	.st126{clip-path:url(#SVGID_00000129915173886145765040000002714794274604074668_);fill:#228DBD;}
	.st127{clip-path:url(#SVGID_00000129915173886145765040000002714794274604074668_);fill:#228EBE;}
	.st128{clip-path:url(#SVGID_00000129915173886145765040000002714794274604074668_);fill:#228FBE;}
	.st129{clip-path:url(#SVGID_00000129915173886145765040000002714794274604074668_);fill:#2390BF;}
	.st130{clip-path:url(#SVGID_00000129915173886145765040000002714794274604074668_);fill:#2391BF;}
	.st131{clip-path:url(#SVGID_00000129915173886145765040000002714794274604074668_);fill:#2392C0;}
	.st132{clip-path:url(#SVGID_00000129915173886145765040000002714794274604074668_);fill:#2393C1;}
	.st133{clip-path:url(#SVGID_00000129915173886145765040000002714794274604074668_);fill:#2494C1;}
	.st134{clip-path:url(#SVGID_00000129915173886145765040000002714794274604074668_);fill:#2495C2;}
	.st135{clip-path:url(#SVGID_00000129915173886145765040000002714794274604074668_);fill:#2496C2;}
	.st136{clip-path:url(#SVGID_00000129915173886145765040000002714794274604074668_);fill:#2497C3;}
	.st137{clip-path:url(#SVGID_00000129915173886145765040000002714794274604074668_);fill:#2598C3;}
	.st138{clip-path:url(#SVGID_00000129915173886145765040000002714794274604074668_);fill:#2599C4;}
	.st139{clip-path:url(#SVGID_00000129915173886145765040000002714794274604074668_);fill:#269AC4;}
	.st140{clip-path:url(#SVGID_00000129915173886145765040000002714794274604074668_);fill:#279AC5;}
	.st141{clip-path:url(#SVGID_00000129915173886145765040000002714794274604074668_);fill:#279BC5;}
	.st142{clip-path:url(#SVGID_00000129915173886145765040000002714794274604074668_);fill:#289BC5;}
	.st143{clip-path:url(#SVGID_00000129915173886145765040000002714794274604074668_);fill:#289CC5;}
	.st144{clip-path:url(#SVGID_00000129915173886145765040000002714794274604074668_);fill:#299CC5;}
	.st145{clip-path:url(#SVGID_00000129915173886145765040000002714794274604074668_);fill:#299DC5;}
	.st146{clip-path:url(#SVGID_00000129915173886145765040000002714794274604074668_);fill:#2A9DC6;}
	.st147{clip-path:url(#SVGID_00000129915173886145765040000002714794274604074668_);fill:#2A9EC6;}
	.st148{clip-path:url(#SVGID_00000129915173886145765040000002714794274604074668_);fill:#2B9EC6;}
	.st149{clip-path:url(#SVGID_00000129915173886145765040000002714794274604074668_);fill:#2B9FC6;}
	.st150{clip-path:url(#SVGID_00000129915173886145765040000002714794274604074668_);fill:#2C9FC6;}
	.st151{clip-path:url(#SVGID_00000129915173886145765040000002714794274604074668_);fill:#2DA0C7;}
	.st152{clip-path:url(#SVGID_00000129915173886145765040000002714794274604074668_);fill:#2EA1C7;}
	.st153{clip-path:url(#SVGID_00000129915173886145765040000002714794274604074668_);fill:#2FA2C7;}
	.st154{clip-path:url(#SVGID_00000129915173886145765040000002714794274604074668_);fill:#30A2C8;}
	.st155{clip-path:url(#SVGID_00000129915173886145765040000002714794274604074668_);fill:#30A3C8;}
	.st156{clip-path:url(#SVGID_00000129915173886145765040000002714794274604074668_);fill:#31A4C8;}
	.st157{clip-path:url(#SVGID_00000129915173886145765040000002714794274604074668_);fill:#32A4C8;}
	.st158{clip-path:url(#SVGID_00000129915173886145765040000002714794274604074668_);fill:#33A5C9;}
	.st159{clip-path:url(#SVGID_00000129915173886145765040000002714794274604074668_);fill:#33A6C9;}
	.st160{clip-path:url(#SVGID_00000129915173886145765040000002714794274604074668_);fill:#34A6C9;}
	.st161{clip-path:url(#SVGID_00000129915173886145765040000002714794274604074668_);fill:#35A7C9;}
	.st162{clip-path:url(#SVGID_00000129915173886145765040000002714794274604074668_);fill:#36A8CA;}
	.st163{clip-path:url(#SVGID_00000129915173886145765040000002714794274604074668_);fill:#37A9CA;}
	.st164{clip-path:url(#SVGID_00000129915173886145765040000002714794274604074668_);fill:#38A9CA;}
	.st165{clip-path:url(#SVGID_00000129915173886145765040000002714794274604074668_);fill:#38AACA;}
	.st166{clip-path:url(#SVGID_00000129915173886145765040000002714794274604074668_);fill:#39ABCB;}
	.st167{clip-path:url(#SVGID_00000129915173886145765040000002714794274604074668_);fill:#3AACCB;}
	.st168{clip-path:url(#SVGID_00000129915173886145765040000002714794274604074668_);fill:#3BACCB;}
	.st169{clip-path:url(#SVGID_00000129915173886145765040000002714794274604074668_);fill:#3CADCC;}
	.st170{clip-path:url(#SVGID_00000129915173886145765040000002714794274604074668_);fill:#3DAECC;}
	.st171{clip-path:url(#SVGID_00000129915173886145765040000002714794274604074668_);fill:#3EAFCC;}
	.st172{clip-path:url(#SVGID_00000129915173886145765040000002714794274604074668_);fill:#3FB0CD;}
	.st173{clip-path:url(#SVGID_00000129915173886145765040000002714794274604074668_);fill:#40B1CD;}
	.st174{clip-path:url(#SVGID_00000129915173886145765040000002714794274604074668_);fill:#41B2CD;}
	.st175{clip-path:url(#SVGID_00000129915173886145765040000002714794274604074668_);fill:#42B2CE;}
	.st176{clip-path:url(#SVGID_00000129915173886145765040000002714794274604074668_);fill:#43B3CE;}
	.st177{clip-path:url(#SVGID_00000129915173886145765040000002714794274604074668_);fill:#44B4CE;}
	.st178{clip-path:url(#SVGID_00000129915173886145765040000002714794274604074668_);fill:#45B5CF;}
	.st179{clip-path:url(#SVGID_00000129915173886145765040000002714794274604074668_);fill:#46B6CF;}
	.st180{clip-path:url(#SVGID_00000129915173886145765040000002714794274604074668_);fill:#47B7CF;}
	.st181{clip-path:url(#SVGID_00000129915173886145765040000002714794274604074668_);fill:#48B8D0;}
	.st182{clip-path:url(#SVGID_00000129915173886145765040000002714794274604074668_);fill:#4AB9D0;}
	.st183{clip-path:url(#SVGID_00000129915173886145765040000002714794274604074668_);fill:#4BBAD1;}
	.st184{clip-path:url(#SVGID_00000129915173886145765040000002714794274604074668_);fill:#4CBBD1;}
	.st185{clip-path:url(#SVGID_00000129915173886145765040000002714794274604074668_);fill:#4DBCD1;}
	.st186{clip-path:url(#SVGID_00000129915173886145765040000002714794274604074668_);fill:#4EBDD2;}
	.st187{clip-path:url(#SVGID_00000129915173886145765040000002714794274604074668_);fill:#4FBED2;}
	.st188{clip-path:url(#SVGID_00000129915173886145765040000002714794274604074668_);fill:#51BFD3;}
	.st189{clip-path:url(#SVGID_00000129915173886145765040000002714794274604074668_);fill:#52C0D3;}
	.st190{clip-path:url(#SVGID_00000129915173886145765040000002714794274604074668_);fill:#53C1D3;}
	.st191{clip-path:url(#SVGID_00000129915173886145765040000002714794274604074668_);fill:#54C3D4;}
	.st192{clip-path:url(#SVGID_00000129915173886145765040000002714794274604074668_);fill:#56C4D4;}
	.st193{clip-path:url(#SVGID_00000129915173886145765040000002714794274604074668_);fill:#57C5D5;}
	.st194{clip-path:url(#SVGID_00000129915173886145765040000002714794274604074668_);fill:#58C6D5;}
	.st195{clip-path:url(#SVGID_00000129915173886145765040000002714794274604074668_);fill:#59C7D5;}
	.st196{clip-path:url(#SVGID_00000129915173886145765040000002714794274604074668_);fill:#5BC8D6;}
	.st197{clip-path:url(#SVGID_00000129915173886145765040000002714794274604074668_);fill:#5CC9D6;}
	.st198{clip-path:url(#SVGID_00000129915173886145765040000002714794274604074668_);fill:#5DCBD7;}
	.st199{clip-path:url(#SVGID_00000129915173886145765040000002714794274604074668_);fill:#5FCCD7;}
	.st200{clip-path:url(#SVGID_00000129915173886145765040000002714794274604074668_);fill:#60CDD8;}
	.st201{clip-path:url(#SVGID_00000129915173886145765040000002714794274604074668_);fill:#62CED8;}
	.st202{clip-path:url(#SVGID_00000129915173886145765040000002714794274604074668_);fill:#63CFD9;}
	.st203{clip-path:url(#SVGID_00000129915173886145765040000002714794274604074668_);fill:#64D1D9;}
	.st204{clip-path:url(#SVGID_00000129915173886145765040000002714794274604074668_);fill:#66D2DA;}
	.st205{clip-path:url(#SVGID_00000129915173886145765040000002714794274604074668_);fill:#67D3DA;}
	.st206{clip-path:url(#SVGID_00000129915173886145765040000002714794274604074668_);fill:#69D4DB;}
	.st207{clip-path:url(#SVGID_00000129915173886145765040000002714794274604074668_);fill:#6AD6DB;}
	.st208{clip-path:url(#SVGID_00000129915173886145765040000002714794274604074668_);fill:#6CD7DC;}
	.st209{clip-path:url(#SVGID_00000129915173886145765040000002714794274604074668_);fill:#6DD8DC;}
	.st210{clip-path:url(#SVGID_00000129915173886145765040000002714794274604074668_);fill:#6EDADC;}
	.st211{clip-path:url(#SVGID_00000129915173886145765040000002714794274604074668_);fill:#70DBDD;}
	.st212{clip-path:url(#SVGID_00000129915173886145765040000002714794274604074668_);fill:#72DCDE;}
	.st213{clip-path:url(#SVGID_00000129915173886145765040000002714794274604074668_);fill:#73DEDE;}
	.st214{clip-path:url(#SVGID_00000129915173886145765040000002714794274604074668_);fill:#75DFDF;}
	.st215{clip-path:url(#SVGID_00000129915173886145765040000002714794274604074668_);fill:#76E0DF;}
	.st216{clip-path:url(#SVGID_00000129915173886145765040000002714794274604074668_);fill:#78E2E0;}
	.st217{clip-path:url(#SVGID_00000129915173886145765040000002714794274604074668_);fill:#79E3E0;}
	.st218{clip-path:url(#SVGID_00000129915173886145765040000002714794274604074668_);fill:#7BE4E1;}
	.st219{clip-path:url(#SVGID_00000129915173886145765040000002714794274604074668_);fill:#7CE6E1;}
	.st220{clip-path:url(#SVGID_00000129915173886145765040000002714794274604074668_);fill:#7EE7E2;}
	.st221{clip-path:url(#SVGID_00000129915173886145765040000002714794274604074668_);fill:#80E9E2;}
	.st222{clip-path:url(#SVGID_00000129915173886145765040000002714794274604074668_);fill:#81EAE3;}
	.st223{clip-path:url(#SVGID_00000129915173886145765040000002714794274604074668_);fill:#83ECE3;}
	.st224{clip-path:url(#SVGID_00000129915173886145765040000002714794274604074668_);fill:#85EDE4;}
	.st225{clip-path:url(#SVGID_00000129915173886145765040000002714794274604074668_);fill:#86EFE4;}
	.st226{clip-path:url(#SVGID_00000129915173886145765040000002714794274604074668_);fill:#88F0E5;}
	.st227{clip-path:url(#SVGID_00000035529906295387239430000016483870559648216737_);fill:#0B003F;}
	.st228{clip-path:url(#SVGID_00000035529906295387239430000016483870559648216737_);fill:#0B0240;}
	.st229{clip-path:url(#SVGID_00000035529906295387239430000016483870559648216737_);fill:#0B0341;}
	.st230{clip-path:url(#SVGID_00000035529906295387239430000016483870559648216737_);fill:#0A0542;}
	.st231{clip-path:url(#SVGID_00000035529906295387239430000016483870559648216737_);fill:#0A0743;}
	.st232{clip-path:url(#SVGID_00000035529906295387239430000016483870559648216737_);fill:#0A0843;}
	.st233{clip-path:url(#SVGID_00000035529906295387239430000016483870559648216737_);fill:#0A0A44;}
	.st234{clip-path:url(#SVGID_00000035529906295387239430000016483870559648216737_);fill:#0A0B45;}
	.st235{clip-path:url(#SVGID_00000035529906295387239430000016483870559648216737_);fill:#0A0D46;}
	.st236{clip-path:url(#SVGID_00000035529906295387239430000016483870559648216737_);fill:#090F47;}
	.st237{clip-path:url(#SVGID_00000035529906295387239430000016483870559648216737_);fill:#091048;}
	.st238{clip-path:url(#SVGID_00000035529906295387239430000016483870559648216737_);fill:#091249;}
	.st239{clip-path:url(#SVGID_00000035529906295387239430000016483870559648216737_);fill:#091349;}
	.st240{clip-path:url(#SVGID_00000035529906295387239430000016483870559648216737_);fill:#09154A;}
	.st241{clip-path:url(#SVGID_00000035529906295387239430000016483870559648216737_);fill:#08164B;}
	.st242{clip-path:url(#SVGID_00000035529906295387239430000016483870559648216737_);fill:#08184C;}
	.st243{clip-path:url(#SVGID_00000035529906295387239430000016483870559648216737_);fill:#08194D;}
	.st244{clip-path:url(#SVGID_00000035529906295387239430000016483870559648216737_);fill:#081B4E;}
	.st245{clip-path:url(#SVGID_00000035529906295387239430000016483870559648216737_);fill:#081C4E;}
	.st246{clip-path:url(#SVGID_00000035529906295387239430000016483870559648216737_);fill:#081E4F;}
	.st247{clip-path:url(#SVGID_00000035529906295387239430000016483870559648216737_);fill:#071F50;}
	.st248{clip-path:url(#SVGID_00000035529906295387239430000016483870559648216737_);fill:#072051;}
	.st249{clip-path:url(#SVGID_00000035529906295387239430000016483870559648216737_);fill:#072251;}
	.st250{clip-path:url(#SVGID_00000035529906295387239430000016483870559648216737_);fill:#072352;}
	.st251{clip-path:url(#SVGID_00000035529906295387239430000016483870559648216737_);fill:#072553;}
	.st252{clip-path:url(#SVGID_00000035529906295387239430000016483870559648216737_);fill:#072654;}
	.st253{clip-path:url(#SVGID_00000035529906295387239430000016483870559648216737_);fill:#072754;}
	.st254{clip-path:url(#SVGID_00000035529906295387239430000016483870559648216737_);fill:#062955;}
	.st255{clip-path:url(#SVGID_00000035529906295387239430000016483870559648216737_);fill:#062A56;}
	.st256{clip-path:url(#SVGID_00000035529906295387239430000016483870559648216737_);fill:#062B57;}
	.st257{clip-path:url(#SVGID_00000035529906295387239430000016483870559648216737_);fill:#062D57;}
	.st258{clip-path:url(#SVGID_00000035529906295387239430000016483870559648216737_);fill:#062E58;}
	.st259{clip-path:url(#SVGID_00000035529906295387239430000016483870559648216737_);fill:#062F59;}
	.st260{clip-path:url(#SVGID_00000035529906295387239430000016483870559648216737_);fill:#05315A;}
	.st261{clip-path:url(#SVGID_00000035529906295387239430000016483870559648216737_);fill:#05325A;}
	.st262{clip-path:url(#SVGID_00000035529906295387239430000016483870559648216737_);fill:#05335B;}
	.st263{clip-path:url(#SVGID_00000035529906295387239430000016483870559648216737_);fill:#05345C;}
	.st264{clip-path:url(#SVGID_00000035529906295387239430000016483870559648216737_);fill:#05355C;}
	.st265{clip-path:url(#SVGID_00000035529906295387239430000016483870559648216737_);fill:#05375D;}
	.st266{clip-path:url(#SVGID_00000035529906295387239430000016483870559648216737_);fill:#05385E;}
	.st267{clip-path:url(#SVGID_00000035529906295387239430000016483870559648216737_);fill:#05395E;}
	.st268{clip-path:url(#SVGID_00000035529906295387239430000016483870559648216737_);fill:#043A5F;}
	.st269{clip-path:url(#SVGID_00000035529906295387239430000016483870559648216737_);fill:#043B5F;}
	.st270{clip-path:url(#SVGID_00000035529906295387239430000016483870559648216737_);fill:#043D60;}
	.st271{clip-path:url(#SVGID_00000035529906295387239430000016483870559648216737_);fill:#043E61;}
	.st272{clip-path:url(#SVGID_00000035529906295387239430000016483870559648216737_);fill:#043F61;}
	.st273{clip-path:url(#SVGID_00000035529906295387239430000016483870559648216737_);fill:#044062;}
	.st274{clip-path:url(#SVGID_00000035529906295387239430000016483870559648216737_);fill:#044162;}
	.st275{clip-path:url(#SVGID_00000035529906295387239430000016483870559648216737_);fill:#044263;}
	.st276{clip-path:url(#SVGID_00000035529906295387239430000016483870559648216737_);fill:#034364;}
	.st277{clip-path:url(#SVGID_00000035529906295387239430000016483870559648216737_);fill:#034464;}
	.st278{clip-path:url(#SVGID_00000035529906295387239430000016483870559648216737_);fill:#034565;}
	.st279{clip-path:url(#SVGID_00000035529906295387239430000016483870559648216737_);fill:#034665;}
	.st280{clip-path:url(#SVGID_00000035529906295387239430000016483870559648216737_);fill:#034766;}
	.st281{clip-path:url(#SVGID_00000035529906295387239430000016483870559648216737_);fill:#034866;}
	.st282{clip-path:url(#SVGID_00000035529906295387239430000016483870559648216737_);fill:#034967;}
	.st283{clip-path:url(#SVGID_00000035529906295387239430000016483870559648216737_);fill:#034A67;}
	.st284{clip-path:url(#SVGID_00000035529906295387239430000016483870559648216737_);fill:#024B68;}
	.st285{clip-path:url(#SVGID_00000035529906295387239430000016483870559648216737_);fill:#024C68;}
	.st286{clip-path:url(#SVGID_00000035529906295387239430000016483870559648216737_);fill:#024D69;}
	.st287{clip-path:url(#SVGID_00000035529906295387239430000016483870559648216737_);fill:#024E69;}
	.st288{clip-path:url(#SVGID_00000035529906295387239430000016483870559648216737_);fill:#024F6A;}
	.st289{clip-path:url(#SVGID_00000035529906295387239430000016483870559648216737_);fill:#02506B;}
	.st290{clip-path:url(#SVGID_00000035529906295387239430000016483870559648216737_);fill:#02516B;}
	.st291{clip-path:url(#SVGID_00000035529906295387239430000016483870559648216737_);fill:#02526C;}
	.st292{clip-path:url(#SVGID_00000035529906295387239430000016483870559648216737_);fill:#02536C;}
	.st293{clip-path:url(#SVGID_00000035529906295387239430000016483870559648216737_);fill:#02536D;}
	.st294{clip-path:url(#SVGID_00000035529906295387239430000016483870559648216737_);fill:#01546D;}
	.st295{clip-path:url(#SVGID_00000035529906295387239430000016483870559648216737_);fill:#01556D;}
	.st296{clip-path:url(#SVGID_00000035529906295387239430000016483870559648216737_);fill:#01566E;}
	.st297{clip-path:url(#SVGID_00000035529906295387239430000016483870559648216737_);fill:#01576F;}
	.st298{clip-path:url(#SVGID_00000035529906295387239430000016483870559648216737_);fill:#01586F;}
	.st299{clip-path:url(#SVGID_00000035529906295387239430000016483870559648216737_);fill:#015970;}
	.st300{clip-path:url(#SVGID_00000035529906295387239430000016483870559648216737_);fill:#015A70;}
	.st301{clip-path:url(#SVGID_00000035529906295387239430000016483870559648216737_);fill:#015B71;}
	.st302{clip-path:url(#SVGID_00000035529906295387239430000016483870559648216737_);fill:#015C71;}
	.st303{clip-path:url(#SVGID_00000035529906295387239430000016483870559648216737_);fill:#015C72;}
	.st304{clip-path:url(#SVGID_00000035529906295387239430000016483870559648216737_);fill:#005D72;}
	.st305{clip-path:url(#SVGID_00000035529906295387239430000016483870559648216737_);fill:#005E72;}
	.st306{clip-path:url(#SVGID_00000035529906295387239430000016483870559648216737_);fill:#005E73;}
	.st307{clip-path:url(#SVGID_00000035529906295387239430000016483870559648216737_);fill:#005F73;}
	.st308{clip-path:url(#SVGID_00000035529906295387239430000016483870559648216737_);fill:#006073;}
	.st309{clip-path:url(#SVGID_00000035529906295387239430000016483870559648216737_);fill:#006074;}
	.st310{clip-path:url(#SVGID_00000035529906295387239430000016483870559648216737_);fill:#006174;}
	.st311{fill:url(#SVGID_00000136385147885643537330000006747506642871479944_);}
	.st312{fill:url(#SVGID_00000138544508133980181970000016080172332452075422_);}
	.st313{fill:#282A58;}
</style>
<g id="Layer_1">
</g>
<g id="Layer_2">
</g>
<g id="Layer_3">
</g>
<g id="Layer_4">
</g>
<g id="Layer_5">
</g>
<g id="Layer_6">
</g>
<g id="Layer_7">
</g>
<g id="Layer_8">
</g>
<g id="Layer_9">
</g>
<g id="Layer_10">
</g>
<g id="Layer_11">
</g>
<g id="Layer_12">
</g>
<g id="Layer_13">
</g>
<g id="Layer_14">
</g>
<g id="Layer_15">
	<g>
		<radialGradient id="SVGID_1_" cx="175.2696" cy="72.3153" r="45.4325" gradientUnits="userSpaceOnUse">
			<stop  offset="0" style="stop-color:#006174"/>
			<stop  offset="0.1753" style="stop-color:#015B71"/>
			<stop  offset="0.3981" style="stop-color:#024C68"/>
			<stop  offset="0.6465" style="stop-color:#05325A"/>
			<stop  offset="0.9118" style="stop-color:#090E46"/>
			<stop  offset="1" style="stop-color:#0B003F"/>
		</radialGradient>
		<path class="st37" d="M163.02,43.44c1-1.76,1.87-3.61,2.84-5.39c1.38-2.55,2.86-5.05,4.19-7.63l2.83-5.4
			c0.76-1.45,1.49-2.91,2.38-4.28c0.51,0.64,0.9,1.55,1.29,2.28c0.73,1.4,1.47,2.79,2.22,4.18l8.83,16.19
			c2.81-2.5,5.78-4.84,8.68-7.24c3.7-3.07,7.34-6.18,11.07-9.21c0.09,5.05-0.02,10.12-0.07,15.16l-0.01,14.69
			c-9.49-5.55-20.14-9.01-31.18-9.14c-12.01-0.06-22.32,2.83-32.65,8.93c-0.12-9.78-0.02-19.58-0.02-29.36
			C150,32.56,156.27,38.29,163.02,43.44z M157.78,82.15c0.46-0.67,1.06-1.29,1.58-1.92c1.07-1.31,2.12-2.64,3.16-3.98
			c4.23-5.36,8.42-10.75,12.57-16.18c0.85,0.78,1.56,1.91,2.24,2.83c1.04,1.4,2.08,2.79,3.14,4.18l7.76,9.96
			c1.1,1.41,3.15,3.79,3.96,5.29c-0.5,1.8-1.18,3.57-1.8,5.34c-0.66,1.96-1.31,3.92-1.95,5.89c-2.19,6.63-4.25,13.3-6.19,20
			c-0.7,2.35-1.51,4.67-2.15,7.03l-1.6-0.06c0.56-2.12,1.29-4.24,1.94-6.34c0.29-0.94,0.69-1.92,0.82-2.89
			c0.2-1.42-1.02-7.88-1.29-9.72c-0.43-2.92-0.78-5.86-1.24-8.78c-1.27-0.03-2.55,0-3.83,0.01l-3.34,0.02
			c-0.79,3.53-1.14,7.29-1.68,10.88l-0.73,4.84c-0.13,0.86-0.42,1.94-0.33,2.8c0.11,1.12,0.68,2.31,1.03,3.38
			c0.63,1.95,1.23,3.9,1.92,5.83l-1.67,0.08c-0.33-1.28-0.8-2.52-1.22-3.78c-0.68-2.04-1.34-4.1-1.93-6.17
			c-1.2-4.19-2.18-8.44-3.41-12.62c-0.8-2.71-1.68-5.39-2.63-8.05C159.93,87.37,158.89,84.75,157.78,82.15z M175.21,82.03
			c-2.08,1.27-4.27,2.35-6.37,3.59c0.72,2.07,1.6,4.11,2.24,6.2l4.16-0.02c1.35,0,2.7,0.02,4.05,0.07c0.72-2.1,1.42-4.23,2.22-6.3
			C180.77,85.12,175.57,82.05,175.21,82.03z M137.07,123.89c0-0.03-0.01-0.07-0.01-0.1c-0.2-1.93-0.05-4.02-0.05-5.96l0.01-11.44
			L137,97.7c0-1.71-0.13-3.59,0.14-5.27c0.29-1.73,1.09-3.45,2.21-4.8c1.79-2.15,4.21-3.23,6.95-3.49c2.16-0.18,4.45-0.03,6.63-0.02
			c0.84,2.37,2.02,4.68,2.99,7l7.88,18.4c1.57,3.68,3.23,7.38,4.54,11.17c-6.94,0.14-13.86,0.88-20.76,1.58
			c0.05-3.02,0.07-6.03,0.06-9.05c0-1.21,0.14-8.7-0.21-9.29c-0.11-0.18-0.36-0.37-0.56-0.42c-0.15-0.04-0.21,0.04-0.34,0.1
			c-0.27,0.37-0.33,0.75-0.36,1.19c-0.1,1.44,0.05,2.93,0.04,4.37c-0.02,4.43,0.05,8.86-0.08,13.29
			C143.13,122.98,140.08,123.31,137.07,123.89z M198.56,121.77c1.41,0.15,2.85,0.26,4.25,0.47c0.03-4.97,0.02-9.94-0.01-14.91
			c0-0.9-0.24-3.01,0.31-3.74c0.2-0.1,0.3-0.16,0.53-0.09c0.29,0.1,0.49,0.38,0.59,0.66c0.17,0.51,0.04,3.72,0.04,4.48l0,13.81
			c3.1,0.34,6.27,0.73,9.32,1.34l-0.02-20.94l0.01-6.05c0-1.71,0.11-3.5-0.22-5.18c-0.04-0.22-0.09-0.43-0.15-0.64
			c-0.06-0.21-0.12-0.42-0.2-0.63c-0.07-0.21-0.16-0.41-0.24-0.61c-0.09-0.2-0.18-0.4-0.29-0.59c-0.1-0.19-0.21-0.38-0.33-0.57
			c-0.12-0.19-0.24-0.37-0.37-0.55c-0.13-0.18-0.27-0.35-0.41-0.52c-0.14-0.17-0.29-0.33-0.45-0.49c-2.22-2.22-4.61-2.79-7.65-2.78
			l-5.14,0.06c-0.22,0.04-0.28,0.01-0.4,0.21c-0.73,1.11-1.33,2.96-1.88,4.23c-1.01,2.34-2.08,4.66-3.1,6.99
			c-1.82,4.19-3.78,8.33-5.62,12.51c-1.82,4.12-3.53,8.29-5.41,12.38C187.34,120.84,192.96,121.22,198.56,121.77z"/>
		
			<radialGradient id="SVGID_00000030463517411649312310000001813678582179968145_" cx="174.9694" cy="109.4056" r="76.6591" gradientUnits="userSpaceOnUse">
			<stop  offset="0" style="stop-color:#006174"/>
			<stop  offset="0.1753" style="stop-color:#015B71"/>
			<stop  offset="0.3981" style="stop-color:#024C68"/>
			<stop  offset="0.6465" style="stop-color:#05325A"/>
			<stop  offset="0.9118" style="stop-color:#090E46"/>
			<stop  offset="1" style="stop-color:#0B003F"/>
		</radialGradient>
		<path style="fill:url(#SVGID_00000030463517411649312310000001813678582179968145_);" d="M209.85,50.12
			c-0.12-2.78-0.08-5.61-0.01-8.4c1.23,0.66,2.42,1.44,3.6,2.18c0.36,0.22,0.72,0.45,1.08,0.67c0.36,0.23,0.72,0.46,1.07,0.69
			c0.35,0.23,0.71,0.47,1.06,0.71c0.35,0.24,0.7,0.48,1.05,0.73c0.35,0.25,0.69,0.5,1.03,0.75c0.34,0.25,0.68,0.51,1.02,0.77
			c0.34,0.26,0.67,0.52,1.01,0.78c0.33,0.26,0.66,0.53,0.99,0.8c0.33,0.27,0.65,0.54,0.98,0.82c0.32,0.28,0.65,0.55,0.96,0.83
			c0.32,0.28,0.64,0.56,0.95,0.85c0.31,0.29,0.63,0.58,0.93,0.87c0.31,0.29,0.62,0.59,0.92,0.88c0.3,0.3,0.6,0.6,0.9,0.9
			c0.3,0.3,0.59,0.61,0.89,0.92c0.29,0.31,0.58,0.62,0.87,0.93s0.57,0.63,0.86,0.95c0.28,0.32,0.56,0.64,0.84,0.96
			c0.28,0.32,0.55,0.65,0.82,0.97c0.27,0.33,0.54,0.66,0.81,0.99c0.27,0.33,0.53,0.67,0.79,1c0.26,0.34,0.52,0.68,0.77,1.02
			c0.25,0.34,0.5,0.68,0.75,1.03c0.25,0.35,0.49,0.69,0.73,1.04c0.24,0.35,0.48,0.7,0.72,1.05c0.24,0.35,0.47,0.71,0.7,1.07
			c0.23,0.36,0.46,0.72,0.68,1.08c0.22,0.36,0.44,0.73,0.66,1.09c0.22,0.37,0.43,0.73,0.64,1.1c0.21,0.37,0.42,0.74,0.62,1.11
			s0.41,0.75,0.6,1.12c0.2,0.38,0.39,0.75,0.58,1.13c0.23,0.47,0.46,0.94,0.68,1.41c0.22,0.47,0.44,0.95,0.65,1.42
			c0.21,0.48,0.42,0.96,0.62,1.44c0.2,0.48,0.4,0.96,0.59,1.45c0.19,0.49,0.38,0.97,0.56,1.46c0.18,0.49,0.36,0.98,0.53,1.47
			c0.17,0.49,0.33,0.99,0.49,1.48c0.16,0.5,0.31,0.99,0.46,1.49c0.15,0.5,0.29,1,0.43,1.5c0.14,0.5,0.27,1.01,0.4,1.51
			c0.13,0.51,0.25,1.01,0.37,1.52c0.12,0.51,0.23,1.02,0.33,1.53c0.11,0.51,0.21,1.02,0.3,1.54c0.09,0.51,0.18,1.03,0.27,1.54
			c0.08,0.51,0.16,1.03,0.23,1.55c0.07,0.52,0.14,1.03,0.2,1.55c0.06,0.52,0.12,1.04,0.17,1.56s0.1,1.04,0.13,1.56
			c0.04,0.52,0.07,1.04,0.1,1.56c0.03,0.52,0.05,1.04,0.07,1.56s0.03,1.04,0.03,1.56c0.01,0.52,0.01,1.04,0,1.56
			c-0.01,0.52-0.02,1.04-0.03,1.56c-0.02,0.52-0.04,1.04-0.07,1.56s-0.06,1.04-0.1,1.56c-0.04,0.52-0.08,1.04-0.13,1.56
			c-0.05,0.52-0.11,1.04-0.17,1.56c-0.06,0.52-0.13,1.04-0.2,1.55c-0.07,0.52-0.15,1.03-0.23,1.55c-0.08,0.51-0.17,1.03-0.27,1.54
			c-0.09,0.51-0.19,1.02-0.3,1.54c-0.11,0.51-0.22,1.02-0.33,1.53c-0.71,3.16-1.68,6.22-2.72,9.28l-0.11,0.19
			c-0.87-0.03-5.6-1.83-6.73-2.25c0.68-2.09,1.41-4.17,1.99-6.29c0.24-0.87,0.46-1.74,0.67-2.62c0.2-0.88,0.39-1.76,0.55-2.65
			c0.17-0.89,0.31-1.77,0.44-2.67c0.13-0.89,0.24-1.79,0.32-2.68c0.09-0.9,0.16-1.79,0.21-2.69c0.05-0.9,0.08-1.8,0.09-2.7
			c0.01-0.9,0-1.8-0.02-2.7c-0.03-0.9-0.07-1.8-0.14-2.7c-1.13-16.23-8.24-32.12-20.28-43.2c-2.09-1.93-4.29-3.73-6.59-5.4
			c-1.39-1-2.96-1.87-4.24-3L209.85,50.12z M113.51,129.46c-0.87-2.45-1.73-4.87-2.36-7.4c-3.53-14.29-2.3-29.91,4.04-43.26
			c5.83-12.28,13.94-20.91,25.14-28.44c0.19-1.12,0.26-7.4,0.04-8.44l-0.05-0.06c-1.39,0.78-2.75,1.6-4.09,2.46
			c-1.34,0.86-2.66,1.76-3.94,2.69c-1.29,0.94-2.55,1.91-3.78,2.92c-1.23,1.01-2.43,2.05-3.6,3.13c-0.3,0.28-0.59,0.57-0.89,0.85
			c-0.29,0.29-0.59,0.58-0.87,0.87c-0.29,0.29-0.58,0.59-0.86,0.88c-0.28,0.3-0.57,0.6-0.84,0.9c-0.28,0.3-0.56,0.61-0.83,0.91
			c-0.27,0.31-0.55,0.61-0.81,0.93c-0.27,0.31-0.53,0.62-0.8,0.94c-0.26,0.32-0.52,0.63-0.78,0.95c-0.26,0.32-0.51,0.64-0.77,0.97
			c-0.25,0.32-0.5,0.65-0.75,0.98c-0.25,0.33-0.49,0.66-0.73,0.99c-0.24,0.33-0.48,0.67-0.72,1c-0.24,0.34-0.47,0.67-0.7,1.01
			c-0.23,0.34-0.46,0.68-0.68,1.03s-0.45,0.69-0.67,1.04c-0.22,0.35-0.43,0.7-0.65,1.05c-0.21,0.35-0.42,0.7-0.63,1.06
			c-0.21,0.35-0.41,0.71-0.61,1.07s-0.4,0.72-0.59,1.08c-0.2,0.36-0.39,0.72-0.58,1.09c-0.19,0.36-0.37,0.73-0.56,1.1
			c-0.18,0.37-0.36,0.74-0.54,1.11c-0.18,0.37-0.35,0.74-0.52,1.12c-0.17,0.37-0.34,0.75-0.5,1.13s-0.33,0.75-0.48,1.13
			c-0.16,0.38-0.31,0.76-0.46,1.14c-0.15,0.38-0.3,0.77-0.44,1.15c-0.15,0.38-0.29,0.77-0.43,1.16c-0.14,0.39-0.27,0.77-0.41,1.16
			c-0.13,0.39-0.26,0.78-0.39,1.17c-0.13,0.39-0.25,0.78-0.37,1.18c-0.12,0.39-0.23,0.79-0.35,1.18c-0.19,0.68-0.36,1.37-0.53,2.06
			c-0.17,0.69-0.32,1.38-0.47,2.07c-0.15,0.69-0.28,1.39-0.41,2.09s-0.24,1.4-0.35,2.1c-0.11,0.7-0.2,1.4-0.29,2.11
			c-0.09,0.7-0.16,1.41-0.23,2.11c-0.07,0.71-0.12,1.41-0.17,2.12s-0.08,1.42-0.11,2.12c-0.03,0.71-0.04,1.42-0.05,2.13
			c-0.01,0.71,0,1.42,0.01,2.13c0.01,0.71,0.04,1.42,0.07,2.13c0.03,0.71,0.08,1.42,0.13,2.12c0.05,0.71,0.12,1.41,0.19,2.12
			c0.07,0.71,0.16,1.41,0.25,2.11c0.09,0.7,0.2,1.4,0.31,2.1c0.11,0.7,0.24,1.4,0.37,2.09c0.8,3.97,2.01,7.89,3.28,11.73
			C108.94,130.99,111.22,130.2,113.51,129.46z M140.32,62.16c2.39-2.1,5.23-3.83,8.04-5.3c1.41-0.73,2.82-1.48,4.28-2.11
			c6.11-2.62,12.82-4.01,19.43-4.39c0.34-0.02,0.69-0.04,1.04-0.05c0.35-0.01,0.69-0.02,1.04-0.03c0.35-0.01,0.69-0.01,1.04-0.01
			c0.35,0,0.69,0,1.04,0.01c0.35,0.01,0.69,0.01,1.04,0.03c0.35,0.01,0.69,0.03,1.04,0.04c0.34,0.02,0.69,0.04,1.03,0.06
			c0.34,0.02,0.69,0.05,1.03,0.08c0.34,0.03,0.69,0.06,1.03,0.1c0.34,0.04,0.69,0.08,1.03,0.12c0.34,0.04,0.69,0.09,1.03,0.14
			c0.34,0.05,0.68,0.1,1.02,0.16c0.34,0.05,0.68,0.11,1.02,0.17c0.34,0.06,0.68,0.12,1.02,0.19c0.34,0.07,0.68,0.14,1.01,0.21
			c0.34,0.07,0.67,0.15,1.01,0.23s0.67,0.16,1.01,0.25c0.33,0.09,0.67,0.17,1,0.26c0.33,0.09,0.67,0.19,1,0.28
			c0.33,0.1,0.66,0.2,0.99,0.3c0.33,0.1,0.66,0.21,0.99,0.32c0.33,0.11,0.65,0.22,0.98,0.34c0.33,0.11,0.65,0.23,0.97,0.35
			c0.32,0.12,0.65,0.24,0.97,0.37c0.32,0.13,0.64,0.26,0.96,0.39s0.64,0.27,0.95,0.41c0.32,0.14,0.63,0.28,0.95,0.42
			c0.31,0.14,0.63,0.29,0.94,0.44c0.31,0.15,0.62,0.3,0.93,0.46c0.31,0.15,0.62,0.31,0.92,0.47s0.61,0.32,0.91,0.49
			c0.3,0.17,0.6,0.33,0.9,0.51c2.07,1.19,4,2.55,5.93,3.95c-0.1-2.77,0.03-5.57-0.01-8.34c2.78,1.67,5.36,3.72,7.76,5.89
			c0.41,0.36,0.81,0.73,1.2,1.1c0.4,0.37,0.79,0.75,1.18,1.13c0.39,0.38,0.77,0.77,1.15,1.16c0.38,0.39,0.75,0.79,1.12,1.19
			c0.37,0.4,0.73,0.81,1.08,1.22c0.36,0.41,0.71,0.83,1.05,1.25c0.35,0.42,0.68,0.84,1.02,1.27c0.33,0.43,0.66,0.86,0.98,1.3
			c0.32,0.44,0.64,0.88,0.95,1.32s0.62,0.89,0.92,1.35c0.3,0.45,0.59,0.91,0.88,1.37c0.29,0.46,0.57,0.93,0.84,1.39
			c0.28,0.47,0.54,0.94,0.81,1.42c0.26,0.48,0.52,0.95,0.77,1.44c0.25,0.48,0.49,0.97,0.73,1.46c0.24,0.49,0.47,0.98,0.69,1.47
			c0.21,0.47,0.42,0.95,0.62,1.43c0.2,0.48,0.39,0.96,0.58,1.44c0.19,0.48,0.37,0.97,0.55,1.46c0.18,0.49,0.35,0.98,0.51,1.47
			c0.16,0.49,0.32,0.99,0.48,1.48c0.15,0.5,0.3,0.99,0.44,1.49c0.14,0.5,0.27,1,0.4,1.5c0.13,0.5,0.25,1.01,0.37,1.51
			c0.12,0.51,0.22,1.01,0.33,1.52c0.1,0.51,0.2,1.02,0.29,1.53c0.09,0.51,0.17,1.02,0.25,1.54c0.08,0.51,0.15,1.03,0.22,1.54
			c0.07,0.51,0.12,1.03,0.18,1.55c0.05,0.52,0.1,1.03,0.14,1.55c0.04,0.52,0.07,1.04,0.1,1.55c0.03,0.52,0.05,1.04,0.06,1.56
			c0.01,0.52,0.02,1.04,0.03,1.56c0,0.52,0,1.04-0.01,1.56c-0.01,0.52-0.03,1.04-0.05,1.56c-0.02,0.52-0.05,1.04-0.09,1.55
			c-0.04,0.52-0.08,1.03-0.13,1.55c-0.05,0.52-0.1,1.03-0.17,1.55c-0.06,0.52-0.13,1.03-0.2,1.54c-0.07,0.51-0.15,1.03-0.24,1.54
			c-0.09,0.51-0.18,1.02-0.28,1.53c-0.1,0.51-0.2,1.02-0.32,1.52c-0.11,0.51-0.23,1.01-0.35,1.52c-0.12,0.5-0.25,1.01-0.39,1.51
			c-0.14,0.5-0.28,1-0.43,1.5s-0.3,0.99-0.46,1.49c-0.16,0.49-0.33,0.98-0.5,1.47c-0.17,0.49-0.35,0.98-0.54,1.46
			c-1.12-0.26-2.22-0.59-3.32-0.91c-0.31-0.42-0.66-0.77-1.17-0.92c-0.51-0.15-1,0-1.45,0.25c-1.35-0.38-2.72-0.7-4.09-1.03
			c2.13-6.03,3.5-11.33,3.75-17.76c0.01-0.42,0.02-0.84,0.03-1.27c0-0.42,0-0.84,0-1.27c-0.01-0.42-0.02-0.84-0.03-1.26
			c-0.02-0.42-0.04-0.84-0.07-1.26c-0.03-0.42-0.06-0.84-0.1-1.26c-0.04-0.42-0.08-0.84-0.13-1.26c-0.05-0.42-0.1-0.84-0.16-1.26
			c-0.06-0.42-0.12-0.83-0.19-1.25c-0.07-0.42-0.14-0.83-0.22-1.25c-0.08-0.41-0.16-0.83-0.25-1.24c-0.09-0.41-0.18-0.82-0.28-1.23
			c-0.1-0.41-0.2-0.82-0.31-1.23c-0.11-0.41-0.22-0.81-0.34-1.22c-0.12-0.4-0.24-0.81-0.37-1.21c-0.13-0.4-0.26-0.8-0.4-1.2
			c-0.14-0.4-0.28-0.79-0.43-1.19s-0.3-0.79-0.46-1.18c-0.16-0.39-0.32-0.78-0.49-1.17c-0.17-0.39-0.34-0.77-0.52-1.15
			c-0.18-0.38-0.36-0.76-0.55-1.14c-0.19-0.38-0.38-0.75-0.57-1.13c-0.2-0.37-0.4-0.74-0.6-1.11c-0.2-0.37-0.41-0.73-0.63-1.1
			c-0.21-0.36-0.43-0.72-0.66-1.08c-0.22-0.36-0.45-0.71-0.68-1.07c-0.23-0.35-0.47-0.7-0.71-1.05c-0.24-0.35-0.48-0.69-0.73-1.03
			c-0.25-0.34-0.5-0.68-0.76-1.01c-0.26-0.33-0.52-0.67-0.78-0.99c-0.27-0.33-0.53-0.65-0.81-0.97c-0.27-0.32-0.55-0.64-0.83-0.95
			c-0.28-0.31-0.57-0.63-0.85-0.93c-0.24-0.26-0.49-0.52-0.74-0.78c-0.25-0.26-0.5-0.51-0.75-0.76c-0.25-0.25-0.51-0.5-0.77-0.75
			c-0.26-0.25-0.52-0.49-0.78-0.73c-0.26-0.24-0.53-0.48-0.8-0.71s-0.54-0.47-0.81-0.7c-0.27-0.23-0.55-0.46-0.83-0.68
			c-0.28-0.22-0.56-0.45-0.84-0.66c-0.28-0.22-0.57-0.43-0.85-0.65c-0.29-0.21-0.57-0.42-0.87-0.63s-0.58-0.41-0.88-0.61
			c-0.29-0.2-0.59-0.4-0.89-0.6c-0.3-0.2-0.6-0.39-0.9-0.58s-0.61-0.38-0.91-0.56c-0.31-0.18-0.61-0.36-0.92-0.54
			c-0.31-0.18-0.62-0.35-0.93-0.52c-0.31-0.17-0.63-0.34-0.94-0.5c-0.32-0.16-0.63-0.33-0.95-0.48c-0.32-0.16-0.64-0.31-0.96-0.47
			c-0.32-0.15-0.65-0.3-0.97-0.45c-0.33-0.15-0.65-0.29-0.98-0.43c-0.33-0.14-0.66-0.27-0.99-0.41c-0.33-0.13-0.66-0.26-1-0.39
			c-0.33-0.13-0.67-0.25-1.01-0.37c-0.34-0.12-0.67-0.23-1.01-0.35c-0.34-0.11-0.68-0.22-1.02-0.33c-0.34-0.11-0.68-0.21-1.03-0.31
			c-0.34-0.1-0.69-0.19-1.03-0.29c-0.34-0.09-0.69-0.18-1.04-0.27c-0.35-0.09-0.69-0.17-1.04-0.24c-0.35-0.08-0.7-0.15-1.05-0.22
			c-0.35-0.07-0.7-0.14-1.05-0.2c-2.03-0.37-4.11-0.67-6.17-0.75c-6.34-0.65-15,0.75-21.01,2.91c-0.41,0.15-0.82,0.3-1.23,0.45
			c-0.41,0.16-0.81,0.32-1.21,0.48c-0.4,0.17-0.8,0.34-1.2,0.51c-0.4,0.18-0.79,0.36-1.19,0.54s-0.79,0.38-1.18,0.57
			c-0.39,0.2-0.78,0.39-1.16,0.6c-0.38,0.2-0.77,0.41-1.15,0.63c-0.38,0.21-0.76,0.43-1.13,0.66c-0.37,0.22-0.74,0.45-1.11,0.68
			c-0.37,0.23-0.73,0.47-1.1,0.71c-0.36,0.24-0.72,0.49-1.08,0.74c-0.36,0.25-0.71,0.5-1.06,0.76c-0.35,0.26-0.7,0.52-1.04,0.79
			c-0.34,0.27-0.68,0.54-1.02,0.81c-0.34,0.28-0.67,0.56-1,0.84c-0.33,0.28-0.66,0.57-0.98,0.86c-0.32,0.29-0.64,0.59-0.96,0.89
			c-0.32,0.3-0.63,0.6-0.94,0.91c-0.31,0.31-0.61,0.62-0.91,0.93c-0.3,0.32-0.6,0.63-0.89,0.96c-0.29,0.32-0.58,0.65-0.87,0.98
			c-0.28,0.33-0.57,0.66-0.84,1c-0.28,0.34-0.55,0.68-0.82,1.02c-0.27,0.34-0.53,0.69-0.79,1.04c-0.26,0.35-0.52,0.7-0.77,1.06
			c-0.25,0.36-0.5,0.71-0.74,1.08s-0.48,0.73-0.71,1.09c-0.23,0.37-0.46,0.74-0.69,1.11c-0.22,0.37-0.44,0.75-0.66,1.13
			c-0.21,0.38-0.43,0.76-0.63,1.14c-0.21,0.38-0.41,0.77-0.6,1.16c-0.2,0.39-0.39,0.78-0.57,1.17c-1.73,3.71-2.88,7.47-3.68,11.48
			c-2.05,10.33-1.1,20,2.48,29.87c-3.36,0.66-6.69,1.71-9.98,2.65c-0.49-1.77-1.13-3.5-1.66-5.26c-0.53-1.75-0.95-3.58-1.32-5.36
			c-0.08-0.38-0.15-0.76-0.22-1.14c-0.07-0.38-0.13-0.76-0.2-1.14s-0.12-0.76-0.17-1.14c-0.05-0.38-0.11-0.76-0.15-1.15
			c-0.05-0.38-0.09-0.77-0.13-1.15c-0.04-0.38-0.08-0.77-0.11-1.15c-0.03-0.38-0.06-0.77-0.09-1.15c-0.03-0.38-0.05-0.77-0.07-1.15
			c-0.02-0.38-0.03-0.77-0.05-1.16c-0.01-0.39-0.02-0.77-0.02-1.16c0-0.39-0.01-0.77,0-1.16c0-0.39,0.01-0.77,0.02-1.16
			c0.01-0.39,0.02-0.77,0.04-1.16c0.02-0.39,0.04-0.77,0.06-1.15c0.02-0.38,0.05-0.77,0.08-1.15c0.03-0.38,0.07-0.77,0.11-1.15
			c0.04-0.38,0.08-0.77,0.13-1.15c0.05-0.38,0.1-0.77,0.15-1.15s0.11-0.76,0.17-1.14c0.06-0.38,0.12-0.76,0.19-1.14
			c0.07-0.38,0.14-0.76,0.21-1.14c0.07-0.38,0.15-0.76,0.23-1.13c0.08-0.38,0.17-0.75,0.26-1.13c0.09-0.38,0.18-0.75,0.28-1.12
			c0.1-0.37,0.19-0.75,0.3-1.12c0.1-0.37,0.21-0.74,0.32-1.11c0.11-0.37,0.22-0.74,0.34-1.11c0.12-0.37,0.24-0.73,0.36-1.1
			c0.12-0.37,0.25-0.73,0.38-1.09c0.13-0.36,0.26-0.72,0.4-1.09c0.14-0.36,0.28-0.72,0.42-1.08c0.14-0.36,0.29-0.71,0.44-1.07
			c3.89-9.27,10.11-17.21,17.68-23.76c1.57-1.36,4.12-3.51,6-4.27C140.41,56.6,140.34,59.39,140.32,62.16z M211.57,59.69
			c-0.47,0.15-0.86,0.34-1.11,0.79c-0.19,0.35-0.19,0.74-0.06,1.11c0.17,0.48,0.59,0.9,1.06,1.09c0.22,0.09,0.48,0.13,0.72,0.16
			c0.43-0.08,0.83-0.2,1.09-0.58c0.2-0.29,0.25-0.62,0.18-0.96c-0.11-0.53-0.48-1.01-0.93-1.29
			C212.22,59.82,211.91,59.74,211.57,59.69z M138.22,60.21c-0.6,0.13-1.1,0.33-1.44,0.87c-0.21,0.34-0.29,0.74-0.19,1.13
			c0.11,0.45,0.41,0.8,0.81,1.01c0.31,0.17,0.64,0.22,1,0.23c0.58-0.18,1.09-0.42,1.38-0.98c0.19-0.35,0.23-0.76,0.11-1.14
			c-0.14-0.43-0.49-0.78-0.9-0.95C138.74,60.28,138.48,60.24,138.22,60.21z M217.05,64.91c-0.48,0.27-0.85,0.53-1,1.09
			c-0.12,0.44-0.02,0.9,0.23,1.28c0.25,0.37,0.69,0.69,1.13,0.77c0.24,0.05,0.49,0.03,0.74,0.02c0.4-0.16,0.73-0.3,0.91-0.72
			c0.16-0.36,0.13-0.76-0.02-1.12c-0.21-0.51-0.68-0.99-1.2-1.19C217.58,64.94,217.32,64.91,217.05,64.91z M132.71,65.1
			c-0.53,0.2-0.93,0.42-1.19,0.95c-0.2,0.4-0.24,0.86-0.08,1.28c0.16,0.42,0.5,0.75,0.92,0.91c0.31,0.12,0.65,0.09,0.97,0.07
			c0.53-0.22,0.95-0.48,1.18-1.02c0.18-0.41,0.19-0.86,0.01-1.27c-0.16-0.38-0.49-0.67-0.87-0.82
			C133.34,65.08,133.03,65.09,132.71,65.1z M222.04,70.15c-0.51,0.12-1,0.3-1.3,0.76c-0.21,0.32-0.26,0.69-0.17,1.07
			c0.13,0.51,0.53,0.95,0.99,1.19c0.24,0.12,0.49,0.2,0.76,0.26c0.48-0.13,0.9-0.26,1.17-0.71c0.21-0.34,0.25-0.76,0.15-1.14
			c-0.13-0.51-0.49-0.95-0.95-1.21C222.5,70.26,222.27,70.19,222.04,70.15z M127.66,70.66c-0.48,0.28-0.84,0.57-0.97,1.14
			c-0.1,0.43-0.04,0.89,0.22,1.25c0.03,0.05,0.07,0.09,0.1,0.13c0.04,0.04,0.08,0.08,0.12,0.12c0.04,0.04,0.08,0.07,0.13,0.11
			c0.05,0.03,0.09,0.06,0.14,0.09c0.05,0.03,0.1,0.05,0.15,0.08c0.05,0.02,0.1,0.04,0.16,0.06c0.05,0.02,0.11,0.03,0.16,0.04
			c0.05,0.01,0.11,0.02,0.17,0.03c0.23,0.02,0.44,0.01,0.66-0.03c0.49-0.25,0.87-0.54,1.05-1.08c0.12-0.37,0.08-0.79-0.11-1.13
			c-0.22-0.39-0.61-0.69-1.04-0.8C128.29,70.6,127.96,70.64,127.66,70.66z M225.65,76.56c-0.43,0.13-0.8,0.31-1.04,0.72
			c-0.2,0.36-0.23,0.77-0.11,1.16c0.14,0.48,0.51,0.91,0.97,1.12c0.29,0.13,0.56,0.15,0.88,0.15c0.44-0.14,0.83-0.28,1.05-0.72
			c0.2-0.39,0.18-0.84,0.01-1.24c-0.19-0.47-0.59-0.89-1.06-1.08C226.12,76.59,225.9,76.57,225.65,76.56z M123.71,76.66
			c-0.53,0.27-0.92,0.56-1.1,1.16c-0.12,0.41-0.08,0.85,0.15,1.22c0.2,0.33,0.54,0.6,0.91,0.69c0.24,0.06,0.49,0.04,0.74,0.03
			c0.52-0.2,0.9-0.43,1.12-0.97c0.17-0.4,0.14-0.87-0.05-1.26c-0.19-0.39-0.56-0.69-0.97-0.82
			C124.25,76.63,123.98,76.64,123.71,76.66z M229.26,83.27c-0.51,0.1-0.95,0.22-1.25,0.68c-0.21,0.32-0.26,0.73-0.16,1.1
			c0.12,0.45,0.47,0.86,0.88,1.08c0.23,0.12,0.49,0.17,0.74,0.21c0.52-0.09,0.93-0.19,1.23-0.65c0.24-0.36,0.3-0.81,0.18-1.23
			c-0.12-0.43-0.43-0.8-0.82-1.01C229.81,83.31,229.54,83.29,229.26,83.27z M120.82,83.36c-0.53,0.12-0.98,0.29-1.27,0.78
			c-0.23,0.38-0.3,0.83-0.18,1.27c0.01,0.05,0.03,0.1,0.05,0.15c0.02,0.05,0.04,0.1,0.07,0.15c0.02,0.05,0.05,0.09,0.08,0.14
			c0.03,0.05,0.06,0.09,0.09,0.13c0.03,0.04,0.07,0.08,0.11,0.12c0.04,0.04,0.08,0.08,0.12,0.11c0.04,0.03,0.08,0.07,0.13,0.1
			c0.04,0.03,0.09,0.06,0.14,0.08c0.22,0.12,0.45,0.17,0.69,0.2c0.52-0.1,0.91-0.23,1.24-0.68c0.03-0.05,0.06-0.09,0.09-0.14
			c0.03-0.05,0.05-0.1,0.08-0.15c0.02-0.05,0.04-0.1,0.06-0.16c0.02-0.05,0.03-0.11,0.04-0.16c0.01-0.06,0.02-0.11,0.03-0.17
			c0.01-0.06,0.01-0.11,0.01-0.17s0-0.11-0.01-0.17c0-0.06-0.01-0.11-0.02-0.17c-0.01-0.05-0.02-0.11-0.04-0.16
			c-0.02-0.05-0.03-0.1-0.06-0.15c-0.02-0.05-0.04-0.1-0.07-0.15c-0.03-0.05-0.06-0.09-0.09-0.14c-0.03-0.04-0.06-0.09-0.1-0.13
			c-0.04-0.04-0.07-0.08-0.11-0.12c-0.04-0.04-0.08-0.07-0.12-0.1c-0.04-0.03-0.09-0.06-0.14-0.09
			C121.38,83.43,121.12,83.39,120.82,83.36z M118.13,90.46c-0.52,0.3-0.92,0.62-1.08,1.23c-0.1,0.39-0.06,0.81,0.15,1.16
			c0.21,0.35,0.58,0.6,0.97,0.7c0.31,0.07,0.61,0.04,0.92,0c0.48-0.23,0.87-0.46,1.04-0.99c0.13-0.39,0.09-0.81-0.09-1.18
			c-0.21-0.41-0.61-0.74-1.05-0.87C118.7,90.43,118.42,90.44,118.13,90.46z M231.52,90.47c-0.45,0.21-0.82,0.4-1.01,0.89
			c-0.17,0.42-0.14,0.88,0.05,1.29c0.18,0.39,0.56,0.72,0.97,0.85c0.28,0.09,0.58,0.04,0.86,0c0.51-0.27,0.89-0.52,1.05-1.1
			c0.01-0.05,0.03-0.09,0.03-0.14c0.01-0.05,0.02-0.1,0.02-0.14c0-0.05,0.01-0.1,0.01-0.15c0-0.05,0-0.1-0.01-0.14
			c-0.01-0.05-0.01-0.1-0.02-0.14c-0.01-0.05-0.02-0.09-0.04-0.14c-0.01-0.05-0.03-0.09-0.05-0.14c-0.02-0.04-0.04-0.09-0.06-0.13
			c-0.22-0.38-0.62-0.68-1.06-0.77C232.02,90.45,231.76,90.45,231.52,90.47z M116.59,97.92c-0.48,0.3-0.84,0.6-0.96,1.18
			c-0.01,0.05-0.02,0.1-0.02,0.14c-0.01,0.05-0.01,0.1-0.01,0.14c0,0.05,0,0.1,0.01,0.15c0,0.05,0.01,0.1,0.02,0.14
			c0.01,0.05,0.02,0.09,0.04,0.14c0.01,0.05,0.03,0.09,0.05,0.14c0.02,0.04,0.04,0.09,0.06,0.13c0.02,0.04,0.05,0.08,0.08,0.12
			c0.22,0.31,0.61,0.57,0.99,0.63c0.27,0.04,0.58,0.01,0.85-0.03c0.47-0.3,0.77-0.6,0.9-1.16c0.01-0.05,0.02-0.09,0.02-0.14
			s0.01-0.09,0.01-0.14c0-0.05,0-0.09,0-0.14c0-0.05-0.01-0.09-0.02-0.14c-0.01-0.05-0.02-0.09-0.03-0.14
			c-0.01-0.05-0.03-0.09-0.05-0.13c-0.02-0.04-0.04-0.09-0.06-0.13c-0.02-0.04-0.05-0.08-0.07-0.12c-0.23-0.35-0.64-0.62-1.05-0.67
			C117.12,97.87,116.84,97.89,116.59,97.92z M233.17,97.91c-0.52,0.21-0.92,0.43-1.15,0.97c-0.15,0.36-0.17,0.77-0.01,1.14
			c0.15,0.35,0.46,0.64,0.82,0.77c0.26,0.09,0.57,0.1,0.84,0.09c0.47-0.14,0.85-0.3,1.1-0.75c0.2-0.34,0.23-0.76,0.11-1.13
			c-0.12-0.42-0.43-0.78-0.83-0.97C233.78,97.89,233.48,97.89,233.17,97.91z M116.43,105.29c-0.51,0.2-0.93,0.41-1.14,0.94
			c-0.15,0.36-0.13,0.74,0.04,1.1c0.17,0.36,0.54,0.7,0.92,0.82c0.3,0.09,0.61,0.07,0.92,0.06c0.46-0.19,0.81-0.37,1.01-0.85
			c0.02-0.05,0.04-0.09,0.05-0.14c0.01-0.05,0.03-0.1,0.04-0.15c0.01-0.05,0.02-0.1,0.02-0.15c0-0.05,0.01-0.1,0.01-0.15
			c0-0.05,0-0.1-0.01-0.15c-0.01-0.05-0.01-0.1-0.03-0.15c-0.01-0.05-0.02-0.1-0.04-0.14c-0.02-0.05-0.03-0.09-0.06-0.14
			c-0.02-0.05-0.05-0.09-0.07-0.14c-0.03-0.04-0.05-0.09-0.08-0.13c-0.03-0.04-0.06-0.08-0.1-0.12c-0.03-0.04-0.07-0.08-0.11-0.11
			c-0.04-0.03-0.08-0.07-0.12-0.1c-0.04-0.03-0.08-0.06-0.13-0.09c-0.04-0.03-0.09-0.05-0.13-0.07c-0.05-0.02-0.09-0.04-0.14-0.06
			C117.01,105.28,116.72,105.29,116.43,105.29z M233.43,105.37c-0.49,0.26-0.89,0.49-1.06,1.05c-0.12,0.39-0.1,0.8,0.1,1.16
			c0.19,0.34,0.55,0.58,0.92,0.68c0.25,0.06,0.54,0.03,0.8,0c0.47-0.2,0.79-0.39,0.99-0.87c0.02-0.05,0.04-0.1,0.05-0.15
			c0.01-0.05,0.03-0.1,0.04-0.15c0.01-0.05,0.02-0.1,0.02-0.16c0-0.05,0.01-0.11,0-0.16c0-0.05-0.01-0.11-0.01-0.16
			c-0.01-0.05-0.02-0.1-0.03-0.16c-0.01-0.05-0.03-0.1-0.04-0.15c-0.02-0.05-0.04-0.1-0.06-0.15c-0.17-0.35-0.48-0.65-0.86-0.77
			C234.01,105.31,233.71,105.34,233.43,105.37z M116.78,112.84c-0.47,0.29-0.84,0.58-0.99,1.13c-0.11,0.4-0.07,0.82,0.15,1.18
			c0.22,0.37,0.62,0.62,1.04,0.69c0.26,0.04,0.52,0.01,0.78-0.03c0.47-0.21,0.7-0.44,0.97-0.88c0.06-0.58,0.13-1.22-0.28-1.7
			c-0.22-0.26-0.57-0.4-0.9-0.43C117.29,112.78,117.02,112.8,116.78,112.84z M233.01,112.82c-0.47,0.16-0.85,0.32-1.1,0.78
			c-0.22,0.4-0.25,0.86-0.11,1.29c0.14,0.4,0.47,0.77,0.86,0.94c0.23,0.1,0.48,0.13,0.73,0.14c0.48-0.15,0.84-0.39,1.09-0.85
			c0.21-0.39,0.26-0.86,0.12-1.28c-0.02-0.05-0.03-0.09-0.05-0.14c-0.02-0.04-0.04-0.09-0.07-0.13c-0.02-0.04-0.05-0.08-0.08-0.12
			c-0.03-0.04-0.06-0.08-0.09-0.12c-0.03-0.04-0.07-0.07-0.1-0.11c-0.04-0.03-0.07-0.07-0.11-0.1c-0.04-0.03-0.08-0.06-0.12-0.08
			c-0.04-0.03-0.09-0.05-0.13-0.07C233.59,112.86,233.3,112.83,233.01,112.82z M118.32,120.2c-0.5,0.25-0.84,0.48-1.02,1.04
			c-0.13,0.42-0.09,0.88,0.13,1.25c0.02,0.04,0.05,0.08,0.08,0.12c0.03,0.04,0.06,0.08,0.09,0.11c0.03,0.04,0.07,0.07,0.1,0.1
			c0.04,0.03,0.07,0.06,0.11,0.09c0.04,0.03,0.08,0.05,0.12,0.08c0.04,0.02,0.08,0.05,0.13,0.07c0.04,0.02,0.09,0.04,0.13,0.05
			c0.05,0.02,0.09,0.03,0.14,0.04c0.29,0.07,0.58,0.03,0.88-0.02c0.49-0.23,0.81-0.45,1-0.98c0.02-0.05,0.03-0.09,0.04-0.14
			c0.01-0.05,0.02-0.1,0.02-0.14c0.01-0.05,0.01-0.1,0.01-0.15c0-0.05,0-0.1,0-0.15c0-0.05-0.01-0.1-0.02-0.15
			c-0.01-0.05-0.02-0.1-0.03-0.14c-0.01-0.05-0.03-0.09-0.05-0.14c-0.02-0.05-0.04-0.09-0.06-0.13c-0.2-0.37-0.56-0.68-0.97-0.78
			C118.88,120.17,118.6,120.18,118.32,120.2z M231.18,120.29c-0.46,0.28-0.82,0.58-0.94,1.13c-0.01,0.05-0.02,0.1-0.03,0.14
			c-0.01,0.05-0.01,0.1-0.01,0.15c0,0.05,0,0.1,0,0.15c0,0.05,0.01,0.1,0.02,0.15c0.01,0.05,0.02,0.1,0.03,0.14
			c0.01,0.05,0.03,0.09,0.05,0.14c0.02,0.05,0.04,0.09,0.06,0.13c0.02,0.04,0.05,0.08,0.08,0.12c0.24,0.35,0.69,0.62,1.12,0.66
			c0.2,0.02,0.41,0,0.61-0.02c0.47-0.31,0.87-0.59,1-1.17c0.09-0.38,0.03-0.76-0.19-1.08c-0.22-0.33-0.61-0.57-1-0.64
			C231.73,120.24,231.43,120.26,231.18,120.29z M109.1,133.67c4.69-1.59,9.38-3.11,14.18-4.36c11.35-2.94,23.2-4.75,34.89-5.64
			c4.32-0.3,8.65-0.51,12.98-0.62c1.75-0.09,3.54-0.04,5.29-0.04c4.29,0,8.57,0.14,12.85,0.42c1.75,0.1,3.5,0.22,5.25,0.37
			c1.75,0.15,3.49,0.31,5.24,0.51c1.74,0.19,3.48,0.41,5.22,0.65c1.74,0.24,3.47,0.5,5.2,0.78c1.73,0.28,3.46,0.59,5.18,0.92
			c1.72,0.33,3.44,0.68,5.15,1.06s3.42,0.78,5.12,1.2c1.7,0.42,3.4,0.87,5.09,1.33c3.43,0.96,6.82,2.12,10.2,3.23
			c-0.59,2.43-1.44,4.82-2.23,7.19c-0.82,2.45-1.6,4.9-2.46,7.34c-0.72,2.03-1.26,4.15-2.16,6.12c-3.8-1.21-7.63-2.29-11.5-3.25
			c-4.78-1.2-9.53-2.26-14.41-3.01c-9.54-1.46-19.15-2.04-28.79-2.39c-7.6-0.14-15.29-0.03-22.86,0.62
			c-13.64,1.17-26.85,3.97-39.98,7.74c-0.81-1.85-1.42-3.84-2.12-5.74c-1.01-2.75-2.09-5.48-3.07-8.24
			C110.66,137.84,110.05,135.6,109.1,133.67z M219.18,152.59c-1.59,1.77-3.65,3.3-5.54,4.73c-0.32,0.24-0.64,0.47-0.96,0.7
			s-0.64,0.46-0.97,0.68c-0.32,0.22-0.65,0.45-0.98,0.66c-0.33,0.22-0.66,0.43-0.99,0.65c-0.33,0.21-0.67,0.42-1.01,0.63
			c-0.34,0.21-0.68,0.41-1.02,0.61c-0.34,0.2-0.68,0.4-1.03,0.59c-0.34,0.19-0.69,0.38-1.04,0.57c-0.35,0.19-0.7,0.37-1.05,0.55
			c-0.35,0.18-0.7,0.36-1.06,0.53c-0.35,0.17-0.71,0.34-1.07,0.51c-0.36,0.17-0.72,0.33-1.08,0.49c-0.36,0.16-0.72,0.32-1.09,0.47
			c-0.36,0.15-0.73,0.3-1.1,0.45c-0.37,0.15-0.73,0.29-1.1,0.43c-0.37,0.14-0.74,0.28-1.11,0.41c-0.37,0.13-0.74,0.26-1.12,0.39
			c-0.37,0.13-0.75,0.25-1.13,0.37c-0.38,0.12-0.75,0.24-1.13,0.35c-0.38,0.11-0.76,0.22-1.14,0.33c-0.38,0.11-0.76,0.21-1.14,0.3
			s-0.77,0.19-1.15,0.28c-0.38,0.09-0.77,0.18-1.16,0.26c-0.39,0.08-0.77,0.16-1.16,0.24c-0.39,0.08-0.78,0.15-1.16,0.22
			c-0.39,0.07-0.78,0.14-1.17,0.2c-0.39,0.06-0.78,0.12-1.17,0.18c-0.39,0.05-0.78,0.11-1.17,0.15c-0.39,0.05-0.78,0.09-1.18,0.13
			c-0.39,0.04-0.79,0.08-1.18,0.11c-0.39,0.03-0.79,0.06-1.18,0.09c-0.39,0.03-0.79,0.05-1.18,0.07c-0.54,0.02-1.07,0.04-1.61,0.05
			c-0.54,0.01-1.07,0.02-1.61,0.01c-0.54,0-1.07-0.01-1.61-0.03c-0.54-0.01-1.07-0.04-1.61-0.06c-0.54-0.03-1.07-0.06-1.61-0.1
			c-0.54-0.04-1.07-0.09-1.61-0.14c-0.53-0.05-1.07-0.12-1.6-0.18c-0.53-0.07-1.07-0.14-1.6-0.22c-0.53-0.08-1.06-0.17-1.59-0.26
			c-0.53-0.09-1.06-0.19-1.58-0.3c-0.53-0.11-1.05-0.22-1.58-0.34c-0.52-0.12-1.05-0.25-1.57-0.38c-0.52-0.13-1.04-0.27-1.56-0.42
			c-0.52-0.15-1.03-0.3-1.55-0.45c-0.51-0.16-1.03-0.32-1.53-0.49c-0.51-0.17-1.02-0.35-1.52-0.53c-0.51-0.18-1.01-0.37-1.51-0.57
			c-0.5-0.2-1-0.4-1.49-0.6s-0.99-0.42-1.48-0.64c-0.49-0.22-0.98-0.45-1.46-0.68c-0.48-0.23-0.97-0.47-1.45-0.71
			c-0.48-0.24-0.95-0.49-1.43-0.75c-0.47-0.26-0.94-0.52-1.41-0.78c-0.47-0.27-0.93-0.54-1.39-0.82c-0.46-0.28-0.92-0.56-1.37-0.85
			c-0.45-0.29-0.9-0.58-1.35-0.88c-0.45-0.3-0.89-0.61-1.33-0.92c-0.44-0.31-0.87-0.63-1.3-0.95c-0.43-0.32-0.86-0.65-1.28-0.98
			c-0.42-0.33-0.84-0.67-1.25-1.01c-0.41-0.34-0.82-0.69-1.23-1.04c-0.41-0.35-0.81-0.71-1.2-1.07c-0.05-0.04-0.09-0.08-0.14-0.13
			c-3.59,0.84-7.16,1.75-10.72,2.72c-1.8,0.49-3.66,0.94-5.4,1.61l-4.99-13.52c-1.08-2.96-2.05-5.98-3.3-8.89
			c-4.17,1.55-8.27,3.25-12.3,5.13c-1.35,0.63-2.82,1.24-4.09,2.01c2.9,1.63,5.68,3.52,8.45,5.36c1.76,1.16,3.54,2.28,5.3,3.45
			c-1.37,3.87-2.39,7.89-3.83,11.73c-0.47,1.56-0.95,3.11-1.45,4.66c2.36-1.04,4.71-2.15,7.09-3.14c4.18-1.72,8.42-3.28,12.72-4.67
			c2.26-0.74,4.55-1.54,6.88-2.02c13.07,13.12,31.6,19.94,49.96,19.97c13.87,0.02,28.2-4.04,39.75-11.75
			c3.58-2.39,6.87-5.18,9.99-8.14c2.84,0.66,5.63,1.63,8.39,2.57c6.16,2.08,12.71,4.5,18.48,7.5c-0.7-1.8-1.24-3.65-1.85-5.49
			l-3.78-11.26c0.65-0.57,1.43-1.03,2.14-1.51c1.82-1.23,3.66-2.4,5.52-3.56c1.91-1.19,3.75-2.48,5.6-3.76
			c-1.5-0.89-3.19-1.58-4.77-2.33c-3.75-1.84-7.56-3.56-11.43-5.15c-2.19,5.59-4.06,11.31-6.1,16.96c-0.7,1.95-1.24,4.02-2.11,5.9
			C230.05,155.22,224.55,153.89,219.18,152.59z M138.38,155.31c1.46,1.08,2.98,2.08,4.55,3.01c0.39,0.24,0.79,0.47,1.19,0.7
			c0.4,0.23,0.8,0.45,1.21,0.67c0.4,0.22,0.81,0.43,1.22,0.64c0.41,0.21,0.82,0.42,1.23,0.62c0.41,0.2,0.83,0.4,1.25,0.59
			c0.42,0.19,0.84,0.38,1.26,0.56c0.42,0.18,0.85,0.36,1.27,0.54c0.43,0.17,0.85,0.34,1.28,0.51c0.43,0.16,0.86,0.32,1.29,0.48
			s0.87,0.31,1.3,0.45c0.44,0.15,0.87,0.29,1.31,0.42c0.44,0.14,0.88,0.27,1.32,0.39c0.44,0.13,0.89,0.25,1.33,0.36
			c0.45,0.12,0.89,0.23,1.34,0.33c0.45,0.11,0.9,0.21,1.35,0.31c0.45,0.1,0.9,0.19,1.35,0.28c0.45,0.09,0.9,0.17,1.36,0.25
			c0.45,0.08,0.91,0.15,1.36,0.22c0.46,0.07,0.91,0.13,1.37,0.19c0.46,0.06,0.91,0.11,1.37,0.16c0.46,0.05,0.92,0.09,1.37,0.13
			c0.46,0.04,0.92,0.07,1.38,0.1c0.46,0.03,0.92,0.05,1.38,0.07c0.46,0.02,0.92,0.03,1.38,0.04s0.92,0.01,1.38,0.01
			c0.46,0,0.92-0.01,1.38-0.02c0.46-0.01,0.92-0.03,1.38-0.05c0.46-0.02,0.92-0.05,1.38-0.08c0.46-0.03,0.92-0.07,1.38-0.12
			c0.46-0.04,0.92-0.09,1.37-0.15c0.46-0.05,0.91-0.11,1.37-0.18c0.46-0.06,0.91-0.13,1.37-0.21c9.52-1.61,17.48-5.02,25.4-10.47
			c1.76-1.25,3.43-2.6,5.02-4.06c-1.73-0.53-3.74-1.02-5.55-1.14c-2.79,1.99-5.66,3.95-8.7,5.54c-0.34,0.18-0.68,0.35-1.03,0.52
			c-0.34,0.17-0.69,0.33-1.04,0.5c-0.35,0.16-0.7,0.32-1.05,0.48c-0.35,0.15-0.7,0.31-1.06,0.45c-0.35,0.15-0.71,0.29-1.06,0.43
			c-0.36,0.14-0.71,0.28-1.07,0.41c-0.36,0.13-0.72,0.26-1.08,0.39c-0.36,0.13-0.72,0.25-1.09,0.37s-0.73,0.23-1.1,0.35
			s-0.73,0.22-1.1,0.32c-0.37,0.1-0.74,0.21-1.11,0.3c-0.37,0.1-0.74,0.19-1.11,0.28c-0.37,0.09-0.75,0.18-1.12,0.26
			s-0.75,0.16-1.12,0.24s-0.75,0.15-1.13,0.21c-0.38,0.07-0.76,0.13-1.13,0.19c-0.38,0.06-0.76,0.12-1.14,0.17s-0.76,0.1-1.14,0.15
			c-0.38,0.04-0.76,0.09-1.14,0.12c-0.38,0.04-0.76,0.07-1.14,0.1c-0.38,0.03-0.76,0.06-1.15,0.08s-0.77,0.04-1.15,0.05
			c-0.38,0.01-0.77,0.02-1.15,0.03c-0.38,0.01-0.77,0.01-1.15,0.01c-0.38,0-0.77-0.01-1.15-0.01s-0.77-0.02-1.15-0.04
			c-0.38-0.02-0.77-0.04-1.15-0.06c-0.38-0.02-0.76-0.05-1.15-0.08c-0.38-0.03-0.76-0.07-1.14-0.11c-0.38-0.04-0.76-0.08-1.14-0.13
			c-0.38-0.05-0.76-0.1-1.14-0.15c-0.38-0.05-0.76-0.11-1.14-0.17c-0.85-0.14-1.69-0.3-2.53-0.48c-0.84-0.18-1.68-0.38-2.51-0.6
			c-0.83-0.22-1.66-0.45-2.48-0.71c-0.82-0.25-1.64-0.53-2.45-0.82c-0.81-0.29-1.61-0.6-2.41-0.93c-0.8-0.33-1.58-0.67-2.36-1.03
			c-0.78-0.36-1.55-0.74-2.32-1.14c-0.76-0.4-1.52-0.81-2.26-1.24c-1.9-1.1-3.74-2.3-5.51-3.58c-0.27-0.19-0.61-0.5-0.93-0.58
			c-1.99,0.25-3.97,0.74-5.93,1.16C135.62,153.1,136.97,154.25,138.38,155.31z"/>
	</g>
</g>
</svg>
