<?xml version="1.0" encoding="utf-8"?>
<!-- Generator: Adobe Illustrator 27.8.1, SVG Export Plug-In . SVG Version: 6.00 Build 0)  -->
<svg version="1.1" xmlns="http://www.w3.org/2000/svg" xmlns:xlink="http://www.w3.org/1999/xlink" x="0px" y="0px"
	 viewBox="0 0 350 230" style="enable-background:new 0 0 350 230;" xml:space="preserve">
<style type="text/css">
	.st0{fill:#FFFDE6;}
	.st1{fill:#EBFFFB;}
	.st2{fill:#E6FFF4;}
	.st3{fill:#EEFFF2;}
	.st4{fill:#F3FFE6;}
	.st5{fill:#F3FFFF;}
	.st6{fill:#ECFFE9;}
	.st7{fill:#0E045F;}
	.st8{fill:#CD00FF;}
	.st9{fill:#8CC63F;}
	.st10{fill:#39B54A;}
	.st11{fill:#00770B;}
	.st12{fill:#040051;}
	.st13{fill:#005B59;}
	.st14{fill:#00EDFF;}
	.st15{fill:#006359;}
	.st16{fill:#00006D;}
	.st17{fill:#29004C;}
	.st18{fill:#EB900C;}
	.st19{fill:#DB6E28;}
	.st20{fill:#FFFFFF;}
	.st21{fill:#2D000F;}
	.st22{fill:#660061;}
	.st23{fill:#660061;stroke:#2D002D;stroke-miterlimit:10;}
	.st24{fill:#00AFC6;}
	.st25{fill:#003F39;}
	.st26{fill:#00DCC8;}
	.st27{fill:#FD1F00;}
	.st28{fill:#07186D;}
	.st29{fill:#005C7C;}
	.st30{fill:#8C4B03;}
	.st31{fill:#A38B00;}
	.st32{fill:#20008F;}
	.st33{fill:#003A1D;}
	.st34{fill:#284200;}
	.st35{fill:#00CED8;}
	.st36{fill:url(#graphics_00000144307755298408681370000000022892921572779961_);}
	.st37{fill:url(#SVGID_1_);}
	.st38{fill:url(#SVGID_00000013164896787900633420000009792624720079741093_);}
	.st39{fill:#1F1F29;}
	.st40{fill:url(#SVGID_00000089573497675667563830000005465490877016849595_);}
	.st41{fill:#909198;}
	.st42{fill:#149BB7;}
	.st43{fill:url(#SVGID_00000114074562568731727790000016679409686511387025_);}
	.st44{fill:#0E5883;}
	.st45{fill:#0D1230;}
	.st46{fill:#283151;}
	.st47{fill:url(#SVGID_00000113318694098111516110000007562369959113667987_);}
	.st48{fill:url(#SVGID_00000150094756672592429640000014980987531405821568_);}
	.st49{fill:#92959D;}
	.st50{fill:url(#SVGID_00000111886786780134970210000012168456336706676886_);}
	.st51{fill:#7ABF45;}
	.st52{fill:#1DA4CC;}
	.st53{fill:#F89B1B;}
	.st54{fill:#16A79A;}
	.st55{fill:#FAFFD4;}
	.st56{fill:url(#SVGID_00000134226117263159623730000012574832739444552634_);}
	.st57{fill:#070B33;}
	.st58{fill:url(#SVGID_00000146458474077496157300000007239046629150091406_);}
	.st59{fill:#FEFEFE;}
	.st60{fill:url(#SVGID_00000183209384122635484940000003260040032718525114_);}
	.st61{fill:#0C1941;}
	.st62{fill:#EE5A14;}
	.st63{fill:#1A56B5;}
	.st64{fill:url(#SVGID_00000059295120297852426310000007755391296056958370_);}
	.st65{fill:url(#SVGID_00000127759573054350726040000006808732005870288017_);}
	.st66{fill:#264C61;}
	.st67{fill:#071926;}
	.st68{fill:url(#SVGID_00000039844719245310401010000017873123199378640558_);}
	.st69{fill:url(#SVGID_00000181080240568812986230000002659390258305306783_);}
	.st70{fill:url(#SVGID_00000005254183401378788440000013281724800938929855_);}
	.st71{fill:url(#SVGID_00000021821296969304129670000003228656518573196694_);}
	.st72{fill:url(#SVGID_00000065073450856525889030000014537948992844191147_);}
	.st73{fill:#18306C;}
	.st74{fill:#1A6FC2;}
	.st75{fill:url(#SVGID_00000132792605982428610300000001743810240451622586_);}
	.st76{fill:url(#SVGID_00000052106091431273180360000002301227026420082821_);}
	.st77{fill:none;stroke:#282A58;stroke-linecap:round;stroke-linejoin:round;stroke-miterlimit:10;}
	.st78{clip-path:url(#SVGID_00000183955364203486427290000008747853994393021077_);fill:#195C96;}
	.st79{clip-path:url(#SVGID_00000183955364203486427290000008747853994393021077_);fill:#195D97;}
	.st80{clip-path:url(#SVGID_00000183955364203486427290000008747853994393021077_);fill:#195E98;}
	.st81{clip-path:url(#SVGID_00000183955364203486427290000008747853994393021077_);fill:#195F99;}
	.st82{clip-path:url(#SVGID_00000183955364203486427290000008747853994393021077_);fill:#19609A;}
	.st83{clip-path:url(#SVGID_00000183955364203486427290000008747853994393021077_);fill:#19619B;}
	.st84{clip-path:url(#SVGID_00000183955364203486427290000008747853994393021077_);fill:#1A629C;}
	.st85{clip-path:url(#SVGID_00000183955364203486427290000008747853994393021077_);fill:#1A639D;}
	.st86{clip-path:url(#SVGID_00000183955364203486427290000008747853994393021077_);fill:#1A649E;}
	.st87{clip-path:url(#SVGID_00000183955364203486427290000008747853994393021077_);fill:#1A659F;}
	.st88{clip-path:url(#SVGID_00000183955364203486427290000008747853994393021077_);fill:#1A66A0;}
	.st89{clip-path:url(#SVGID_00000183955364203486427290000008747853994393021077_);fill:#1A67A1;}
	.st90{clip-path:url(#SVGID_00000183955364203486427290000008747853994393021077_);fill:#1A68A3;}
	.st91{clip-path:url(#SVGID_00000183955364203486427290000008747853994393021077_);fill:#1A69A4;}
	.st92{clip-path:url(#SVGID_00000183955364203486427290000008747853994393021077_);fill:#1A6AA5;}
	.st93{clip-path:url(#SVGID_00000183955364203486427290000008747853994393021077_);fill:#1A6BA6;}
	.st94{clip-path:url(#SVGID_00000183955364203486427290000008747853994393021077_);fill:#1A6CA7;}
	.st95{clip-path:url(#SVGID_00000183955364203486427290000008747853994393021077_);fill:#1A6DA8;}
	.st96{clip-path:url(#SVGID_00000183955364203486427290000008747853994393021077_);fill:#1B6EA9;}
	.st97{clip-path:url(#SVGID_00000183955364203486427290000008747853994393021077_);fill:#1B6FAA;}
	.st98{clip-path:url(#SVGID_00000183955364203486427290000008747853994393021077_);fill:#1B70AB;}
	.st99{clip-path:url(#SVGID_00000183955364203486427290000008747853994393021077_);fill:#1B71AC;}
	.st100{clip-path:url(#SVGID_00000183955364203486427290000008747853994393021077_);fill:#1B72AD;}
	.st101{clip-path:url(#SVGID_00000183955364203486427290000008747853994393021077_);fill:#1B73AE;}
	.st102{clip-path:url(#SVGID_00000183955364203486427290000008747853994393021077_);fill:#1B74AF;}
	.st103{clip-path:url(#SVGID_00000183955364203486427290000008747853994393021077_);fill:#1B75B0;}
	.st104{clip-path:url(#SVGID_00000183955364203486427290000008747853994393021077_);fill:#1C76B0;}
	.st105{clip-path:url(#SVGID_00000183955364203486427290000008747853994393021077_);fill:#1C77B1;}
	.st106{clip-path:url(#SVGID_00000183955364203486427290000008747853994393021077_);fill:#1C78B1;}
	.st107{clip-path:url(#SVGID_00000183955364203486427290000008747853994393021077_);fill:#1C79B2;}
	.st108{clip-path:url(#SVGID_00000183955364203486427290000008747853994393021077_);fill:#1D7AB3;}
	.st109{clip-path:url(#SVGID_00000183955364203486427290000008747853994393021077_);fill:#1D7BB3;}
	.st110{clip-path:url(#SVGID_00000183955364203486427290000008747853994393021077_);fill:#1D7CB4;}
	.st111{clip-path:url(#SVGID_00000183955364203486427290000008747853994393021077_);fill:#1E7DB4;}
	.st112{clip-path:url(#SVGID_00000183955364203486427290000008747853994393021077_);fill:#1E7EB5;}
	.st113{clip-path:url(#SVGID_00000183955364203486427290000008747853994393021077_);fill:#1E7FB5;}
	.st114{clip-path:url(#SVGID_00000183955364203486427290000008747853994393021077_);fill:#1E80B6;}
	.st115{clip-path:url(#SVGID_00000183955364203486427290000008747853994393021077_);fill:#1F81B7;}
	.st116{clip-path:url(#SVGID_00000183955364203486427290000008747853994393021077_);fill:#1F82B7;}
	.st117{clip-path:url(#SVGID_00000183955364203486427290000008747853994393021077_);fill:#1F83B8;}
	.st118{clip-path:url(#SVGID_00000183955364203486427290000008747853994393021077_);fill:#1F84B8;}
	.st119{clip-path:url(#SVGID_00000183955364203486427290000008747853994393021077_);fill:#2085B9;}
	.st120{clip-path:url(#SVGID_00000183955364203486427290000008747853994393021077_);fill:#2087BA;}
	.st121{clip-path:url(#SVGID_00000183955364203486427290000008747853994393021077_);fill:#2088BA;}
	.st122{clip-path:url(#SVGID_00000183955364203486427290000008747853994393021077_);fill:#2189BB;}
	.st123{clip-path:url(#SVGID_00000183955364203486427290000008747853994393021077_);fill:#218ABB;}
	.st124{clip-path:url(#SVGID_00000183955364203486427290000008747853994393021077_);fill:#218BBC;}
	.st125{clip-path:url(#SVGID_00000183955364203486427290000008747853994393021077_);fill:#218CBC;}
	.st126{clip-path:url(#SVGID_00000183955364203486427290000008747853994393021077_);fill:#228DBD;}
	.st127{clip-path:url(#SVGID_00000183955364203486427290000008747853994393021077_);fill:#228EBE;}
	.st128{clip-path:url(#SVGID_00000183955364203486427290000008747853994393021077_);fill:#228FBE;}
	.st129{clip-path:url(#SVGID_00000183955364203486427290000008747853994393021077_);fill:#2390BF;}
	.st130{clip-path:url(#SVGID_00000183955364203486427290000008747853994393021077_);fill:#2391BF;}
	.st131{clip-path:url(#SVGID_00000183955364203486427290000008747853994393021077_);fill:#2392C0;}
	.st132{clip-path:url(#SVGID_00000183955364203486427290000008747853994393021077_);fill:#2393C1;}
	.st133{clip-path:url(#SVGID_00000183955364203486427290000008747853994393021077_);fill:#2494C1;}
	.st134{clip-path:url(#SVGID_00000183955364203486427290000008747853994393021077_);fill:#2495C2;}
	.st135{clip-path:url(#SVGID_00000183955364203486427290000008747853994393021077_);fill:#2496C2;}
	.st136{clip-path:url(#SVGID_00000183955364203486427290000008747853994393021077_);fill:#2497C3;}
	.st137{clip-path:url(#SVGID_00000183955364203486427290000008747853994393021077_);fill:#2598C3;}
	.st138{clip-path:url(#SVGID_00000183955364203486427290000008747853994393021077_);fill:#2599C4;}
	.st139{clip-path:url(#SVGID_00000183955364203486427290000008747853994393021077_);fill:#269AC4;}
	.st140{clip-path:url(#SVGID_00000183955364203486427290000008747853994393021077_);fill:#279AC5;}
	.st141{clip-path:url(#SVGID_00000183955364203486427290000008747853994393021077_);fill:#279BC5;}
	.st142{clip-path:url(#SVGID_00000183955364203486427290000008747853994393021077_);fill:#289BC5;}
	.st143{clip-path:url(#SVGID_00000183955364203486427290000008747853994393021077_);fill:#289CC5;}
	.st144{clip-path:url(#SVGID_00000183955364203486427290000008747853994393021077_);fill:#299CC5;}
	.st145{clip-path:url(#SVGID_00000183955364203486427290000008747853994393021077_);fill:#299DC5;}
	.st146{clip-path:url(#SVGID_00000183955364203486427290000008747853994393021077_);fill:#2A9DC6;}
	.st147{clip-path:url(#SVGID_00000183955364203486427290000008747853994393021077_);fill:#2A9EC6;}
	.st148{clip-path:url(#SVGID_00000183955364203486427290000008747853994393021077_);fill:#2B9EC6;}
	.st149{clip-path:url(#SVGID_00000183955364203486427290000008747853994393021077_);fill:#2B9FC6;}
	.st150{clip-path:url(#SVGID_00000183955364203486427290000008747853994393021077_);fill:#2C9FC6;}
	.st151{clip-path:url(#SVGID_00000183955364203486427290000008747853994393021077_);fill:#2DA0C7;}
	.st152{clip-path:url(#SVGID_00000183955364203486427290000008747853994393021077_);fill:#2EA1C7;}
	.st153{clip-path:url(#SVGID_00000183955364203486427290000008747853994393021077_);fill:#2FA2C7;}
	.st154{clip-path:url(#SVGID_00000183955364203486427290000008747853994393021077_);fill:#30A2C8;}
	.st155{clip-path:url(#SVGID_00000183955364203486427290000008747853994393021077_);fill:#30A3C8;}
	.st156{clip-path:url(#SVGID_00000183955364203486427290000008747853994393021077_);fill:#31A4C8;}
	.st157{clip-path:url(#SVGID_00000183955364203486427290000008747853994393021077_);fill:#32A4C8;}
	.st158{clip-path:url(#SVGID_00000183955364203486427290000008747853994393021077_);fill:#33A5C9;}
	.st159{clip-path:url(#SVGID_00000183955364203486427290000008747853994393021077_);fill:#33A6C9;}
	.st160{clip-path:url(#SVGID_00000183955364203486427290000008747853994393021077_);fill:#34A6C9;}
	.st161{clip-path:url(#SVGID_00000183955364203486427290000008747853994393021077_);fill:#35A7C9;}
	.st162{clip-path:url(#SVGID_00000183955364203486427290000008747853994393021077_);fill:#36A8CA;}
	.st163{clip-path:url(#SVGID_00000183955364203486427290000008747853994393021077_);fill:#37A9CA;}
	.st164{clip-path:url(#SVGID_00000183955364203486427290000008747853994393021077_);fill:#38A9CA;}
	.st165{clip-path:url(#SVGID_00000183955364203486427290000008747853994393021077_);fill:#38AACA;}
	.st166{clip-path:url(#SVGID_00000183955364203486427290000008747853994393021077_);fill:#39ABCB;}
	.st167{clip-path:url(#SVGID_00000183955364203486427290000008747853994393021077_);fill:#3AACCB;}
	.st168{clip-path:url(#SVGID_00000183955364203486427290000008747853994393021077_);fill:#3BACCB;}
	.st169{clip-path:url(#SVGID_00000183955364203486427290000008747853994393021077_);fill:#3CADCC;}
	.st170{clip-path:url(#SVGID_00000183955364203486427290000008747853994393021077_);fill:#3DAECC;}
	.st171{clip-path:url(#SVGID_00000183955364203486427290000008747853994393021077_);fill:#3EAFCC;}
	.st172{clip-path:url(#SVGID_00000183955364203486427290000008747853994393021077_);fill:#3FB0CD;}
	.st173{clip-path:url(#SVGID_00000183955364203486427290000008747853994393021077_);fill:#40B1CD;}
	.st174{clip-path:url(#SVGID_00000183955364203486427290000008747853994393021077_);fill:#41B2CD;}
	.st175{clip-path:url(#SVGID_00000183955364203486427290000008747853994393021077_);fill:#42B2CE;}
	.st176{clip-path:url(#SVGID_00000183955364203486427290000008747853994393021077_);fill:#43B3CE;}
	.st177{clip-path:url(#SVGID_00000183955364203486427290000008747853994393021077_);fill:#44B4CE;}
	.st178{clip-path:url(#SVGID_00000183955364203486427290000008747853994393021077_);fill:#45B5CF;}
	.st179{clip-path:url(#SVGID_00000183955364203486427290000008747853994393021077_);fill:#46B6CF;}
	.st180{clip-path:url(#SVGID_00000183955364203486427290000008747853994393021077_);fill:#47B7CF;}
	.st181{clip-path:url(#SVGID_00000183955364203486427290000008747853994393021077_);fill:#48B8D0;}
	.st182{clip-path:url(#SVGID_00000183955364203486427290000008747853994393021077_);fill:#4AB9D0;}
	.st183{clip-path:url(#SVGID_00000183955364203486427290000008747853994393021077_);fill:#4BBAD1;}
	.st184{clip-path:url(#SVGID_00000183955364203486427290000008747853994393021077_);fill:#4CBBD1;}
	.st185{clip-path:url(#SVGID_00000183955364203486427290000008747853994393021077_);fill:#4DBCD1;}
	.st186{clip-path:url(#SVGID_00000183955364203486427290000008747853994393021077_);fill:#4EBDD2;}
	.st187{clip-path:url(#SVGID_00000183955364203486427290000008747853994393021077_);fill:#4FBED2;}
	.st188{clip-path:url(#SVGID_00000183955364203486427290000008747853994393021077_);fill:#51BFD3;}
	.st189{clip-path:url(#SVGID_00000183955364203486427290000008747853994393021077_);fill:#52C0D3;}
	.st190{clip-path:url(#SVGID_00000183955364203486427290000008747853994393021077_);fill:#53C1D3;}
	.st191{clip-path:url(#SVGID_00000183955364203486427290000008747853994393021077_);fill:#54C3D4;}
	.st192{clip-path:url(#SVGID_00000183955364203486427290000008747853994393021077_);fill:#56C4D4;}
	.st193{clip-path:url(#SVGID_00000183955364203486427290000008747853994393021077_);fill:#57C5D5;}
	.st194{clip-path:url(#SVGID_00000183955364203486427290000008747853994393021077_);fill:#58C6D5;}
	.st195{clip-path:url(#SVGID_00000183955364203486427290000008747853994393021077_);fill:#59C7D5;}
	.st196{clip-path:url(#SVGID_00000183955364203486427290000008747853994393021077_);fill:#5BC8D6;}
	.st197{clip-path:url(#SVGID_00000183955364203486427290000008747853994393021077_);fill:#5CC9D6;}
	.st198{clip-path:url(#SVGID_00000183955364203486427290000008747853994393021077_);fill:#5DCBD7;}
	.st199{clip-path:url(#SVGID_00000183955364203486427290000008747853994393021077_);fill:#5FCCD7;}
	.st200{clip-path:url(#SVGID_00000183955364203486427290000008747853994393021077_);fill:#60CDD8;}
	.st201{clip-path:url(#SVGID_00000183955364203486427290000008747853994393021077_);fill:#62CED8;}
	.st202{clip-path:url(#SVGID_00000183955364203486427290000008747853994393021077_);fill:#63CFD9;}
	.st203{clip-path:url(#SVGID_00000183955364203486427290000008747853994393021077_);fill:#64D1D9;}
	.st204{clip-path:url(#SVGID_00000183955364203486427290000008747853994393021077_);fill:#66D2DA;}
	.st205{clip-path:url(#SVGID_00000183955364203486427290000008747853994393021077_);fill:#67D3DA;}
	.st206{clip-path:url(#SVGID_00000183955364203486427290000008747853994393021077_);fill:#69D4DB;}
	.st207{clip-path:url(#SVGID_00000183955364203486427290000008747853994393021077_);fill:#6AD6DB;}
	.st208{clip-path:url(#SVGID_00000183955364203486427290000008747853994393021077_);fill:#6CD7DC;}
	.st209{clip-path:url(#SVGID_00000183955364203486427290000008747853994393021077_);fill:#6DD8DC;}
	.st210{clip-path:url(#SVGID_00000183955364203486427290000008747853994393021077_);fill:#6EDADC;}
	.st211{clip-path:url(#SVGID_00000183955364203486427290000008747853994393021077_);fill:#70DBDD;}
	.st212{clip-path:url(#SVGID_00000183955364203486427290000008747853994393021077_);fill:#72DCDE;}
	.st213{clip-path:url(#SVGID_00000183955364203486427290000008747853994393021077_);fill:#73DEDE;}
	.st214{clip-path:url(#SVGID_00000183955364203486427290000008747853994393021077_);fill:#75DFDF;}
	.st215{clip-path:url(#SVGID_00000183955364203486427290000008747853994393021077_);fill:#76E0DF;}
	.st216{clip-path:url(#SVGID_00000183955364203486427290000008747853994393021077_);fill:#78E2E0;}
	.st217{clip-path:url(#SVGID_00000183955364203486427290000008747853994393021077_);fill:#79E3E0;}
	.st218{clip-path:url(#SVGID_00000183955364203486427290000008747853994393021077_);fill:#7BE4E1;}
	.st219{clip-path:url(#SVGID_00000183955364203486427290000008747853994393021077_);fill:#7CE6E1;}
	.st220{clip-path:url(#SVGID_00000183955364203486427290000008747853994393021077_);fill:#7EE7E2;}
	.st221{clip-path:url(#SVGID_00000183955364203486427290000008747853994393021077_);fill:#80E9E2;}
	.st222{clip-path:url(#SVGID_00000183955364203486427290000008747853994393021077_);fill:#81EAE3;}
	.st223{clip-path:url(#SVGID_00000183955364203486427290000008747853994393021077_);fill:#83ECE3;}
	.st224{clip-path:url(#SVGID_00000183955364203486427290000008747853994393021077_);fill:#85EDE4;}
	.st225{clip-path:url(#SVGID_00000183955364203486427290000008747853994393021077_);fill:#86EFE4;}
	.st226{clip-path:url(#SVGID_00000183955364203486427290000008747853994393021077_);fill:#88F0E5;}
	.st227{clip-path:url(#SVGID_00000013181993100766410110000006707344010964803975_);fill:#0B003F;}
	.st228{clip-path:url(#SVGID_00000013181993100766410110000006707344010964803975_);fill:#0B0240;}
	.st229{clip-path:url(#SVGID_00000013181993100766410110000006707344010964803975_);fill:#0B0341;}
	.st230{clip-path:url(#SVGID_00000013181993100766410110000006707344010964803975_);fill:#0A0542;}
	.st231{clip-path:url(#SVGID_00000013181993100766410110000006707344010964803975_);fill:#0A0743;}
	.st232{clip-path:url(#SVGID_00000013181993100766410110000006707344010964803975_);fill:#0A0843;}
	.st233{clip-path:url(#SVGID_00000013181993100766410110000006707344010964803975_);fill:#0A0A44;}
	.st234{clip-path:url(#SVGID_00000013181993100766410110000006707344010964803975_);fill:#0A0B45;}
	.st235{clip-path:url(#SVGID_00000013181993100766410110000006707344010964803975_);fill:#0A0D46;}
	.st236{clip-path:url(#SVGID_00000013181993100766410110000006707344010964803975_);fill:#090F47;}
	.st237{clip-path:url(#SVGID_00000013181993100766410110000006707344010964803975_);fill:#091048;}
	.st238{clip-path:url(#SVGID_00000013181993100766410110000006707344010964803975_);fill:#091249;}
	.st239{clip-path:url(#SVGID_00000013181993100766410110000006707344010964803975_);fill:#091349;}
	.st240{clip-path:url(#SVGID_00000013181993100766410110000006707344010964803975_);fill:#09154A;}
	.st241{clip-path:url(#SVGID_00000013181993100766410110000006707344010964803975_);fill:#08164B;}
	.st242{clip-path:url(#SVGID_00000013181993100766410110000006707344010964803975_);fill:#08184C;}
	.st243{clip-path:url(#SVGID_00000013181993100766410110000006707344010964803975_);fill:#08194D;}
	.st244{clip-path:url(#SVGID_00000013181993100766410110000006707344010964803975_);fill:#081B4E;}
	.st245{clip-path:url(#SVGID_00000013181993100766410110000006707344010964803975_);fill:#081C4E;}
	.st246{clip-path:url(#SVGID_00000013181993100766410110000006707344010964803975_);fill:#081E4F;}
	.st247{clip-path:url(#SVGID_00000013181993100766410110000006707344010964803975_);fill:#071F50;}
	.st248{clip-path:url(#SVGID_00000013181993100766410110000006707344010964803975_);fill:#072051;}
	.st249{clip-path:url(#SVGID_00000013181993100766410110000006707344010964803975_);fill:#072251;}
	.st250{clip-path:url(#SVGID_00000013181993100766410110000006707344010964803975_);fill:#072352;}
	.st251{clip-path:url(#SVGID_00000013181993100766410110000006707344010964803975_);fill:#072553;}
	.st252{clip-path:url(#SVGID_00000013181993100766410110000006707344010964803975_);fill:#072654;}
	.st253{clip-path:url(#SVGID_00000013181993100766410110000006707344010964803975_);fill:#072754;}
	.st254{clip-path:url(#SVGID_00000013181993100766410110000006707344010964803975_);fill:#062955;}
	.st255{clip-path:url(#SVGID_00000013181993100766410110000006707344010964803975_);fill:#062A56;}
	.st256{clip-path:url(#SVGID_00000013181993100766410110000006707344010964803975_);fill:#062B57;}
	.st257{clip-path:url(#SVGID_00000013181993100766410110000006707344010964803975_);fill:#062D57;}
	.st258{clip-path:url(#SVGID_00000013181993100766410110000006707344010964803975_);fill:#062E58;}
	.st259{clip-path:url(#SVGID_00000013181993100766410110000006707344010964803975_);fill:#062F59;}
	.st260{clip-path:url(#SVGID_00000013181993100766410110000006707344010964803975_);fill:#05315A;}
	.st261{clip-path:url(#SVGID_00000013181993100766410110000006707344010964803975_);fill:#05325A;}
	.st262{clip-path:url(#SVGID_00000013181993100766410110000006707344010964803975_);fill:#05335B;}
	.st263{clip-path:url(#SVGID_00000013181993100766410110000006707344010964803975_);fill:#05345C;}
	.st264{clip-path:url(#SVGID_00000013181993100766410110000006707344010964803975_);fill:#05355C;}
	.st265{clip-path:url(#SVGID_00000013181993100766410110000006707344010964803975_);fill:#05375D;}
	.st266{clip-path:url(#SVGID_00000013181993100766410110000006707344010964803975_);fill:#05385E;}
	.st267{clip-path:url(#SVGID_00000013181993100766410110000006707344010964803975_);fill:#05395E;}
	.st268{clip-path:url(#SVGID_00000013181993100766410110000006707344010964803975_);fill:#043A5F;}
	.st269{clip-path:url(#SVGID_00000013181993100766410110000006707344010964803975_);fill:#043B5F;}
	.st270{clip-path:url(#SVGID_00000013181993100766410110000006707344010964803975_);fill:#043D60;}
	.st271{clip-path:url(#SVGID_00000013181993100766410110000006707344010964803975_);fill:#043E61;}
	.st272{clip-path:url(#SVGID_00000013181993100766410110000006707344010964803975_);fill:#043F61;}
	.st273{clip-path:url(#SVGID_00000013181993100766410110000006707344010964803975_);fill:#044062;}
	.st274{clip-path:url(#SVGID_00000013181993100766410110000006707344010964803975_);fill:#044162;}
	.st275{clip-path:url(#SVGID_00000013181993100766410110000006707344010964803975_);fill:#044263;}
	.st276{clip-path:url(#SVGID_00000013181993100766410110000006707344010964803975_);fill:#034364;}
	.st277{clip-path:url(#SVGID_00000013181993100766410110000006707344010964803975_);fill:#034464;}
	.st278{clip-path:url(#SVGID_00000013181993100766410110000006707344010964803975_);fill:#034565;}
	.st279{clip-path:url(#SVGID_00000013181993100766410110000006707344010964803975_);fill:#034665;}
	.st280{clip-path:url(#SVGID_00000013181993100766410110000006707344010964803975_);fill:#034766;}
	.st281{clip-path:url(#SVGID_00000013181993100766410110000006707344010964803975_);fill:#034866;}
	.st282{clip-path:url(#SVGID_00000013181993100766410110000006707344010964803975_);fill:#034967;}
	.st283{clip-path:url(#SVGID_00000013181993100766410110000006707344010964803975_);fill:#034A67;}
	.st284{clip-path:url(#SVGID_00000013181993100766410110000006707344010964803975_);fill:#024B68;}
	.st285{clip-path:url(#SVGID_00000013181993100766410110000006707344010964803975_);fill:#024C68;}
	.st286{clip-path:url(#SVGID_00000013181993100766410110000006707344010964803975_);fill:#024D69;}
	.st287{clip-path:url(#SVGID_00000013181993100766410110000006707344010964803975_);fill:#024E69;}
	.st288{clip-path:url(#SVGID_00000013181993100766410110000006707344010964803975_);fill:#024F6A;}
	.st289{clip-path:url(#SVGID_00000013181993100766410110000006707344010964803975_);fill:#02506B;}
	.st290{clip-path:url(#SVGID_00000013181993100766410110000006707344010964803975_);fill:#02516B;}
	.st291{clip-path:url(#SVGID_00000013181993100766410110000006707344010964803975_);fill:#02526C;}
	.st292{clip-path:url(#SVGID_00000013181993100766410110000006707344010964803975_);fill:#02536C;}
	.st293{clip-path:url(#SVGID_00000013181993100766410110000006707344010964803975_);fill:#02536D;}
	.st294{clip-path:url(#SVGID_00000013181993100766410110000006707344010964803975_);fill:#01546D;}
	.st295{clip-path:url(#SVGID_00000013181993100766410110000006707344010964803975_);fill:#01556D;}
	.st296{clip-path:url(#SVGID_00000013181993100766410110000006707344010964803975_);fill:#01566E;}
	.st297{clip-path:url(#SVGID_00000013181993100766410110000006707344010964803975_);fill:#01576F;}
	.st298{clip-path:url(#SVGID_00000013181993100766410110000006707344010964803975_);fill:#01586F;}
	.st299{clip-path:url(#SVGID_00000013181993100766410110000006707344010964803975_);fill:#015970;}
	.st300{clip-path:url(#SVGID_00000013181993100766410110000006707344010964803975_);fill:#015A70;}
	.st301{clip-path:url(#SVGID_00000013181993100766410110000006707344010964803975_);fill:#015B71;}
	.st302{clip-path:url(#SVGID_00000013181993100766410110000006707344010964803975_);fill:#015C71;}
	.st303{clip-path:url(#SVGID_00000013181993100766410110000006707344010964803975_);fill:#015C72;}
	.st304{clip-path:url(#SVGID_00000013181993100766410110000006707344010964803975_);fill:#005D72;}
	.st305{clip-path:url(#SVGID_00000013181993100766410110000006707344010964803975_);fill:#005E72;}
	.st306{clip-path:url(#SVGID_00000013181993100766410110000006707344010964803975_);fill:#005E73;}
	.st307{clip-path:url(#SVGID_00000013181993100766410110000006707344010964803975_);fill:#005F73;}
	.st308{clip-path:url(#SVGID_00000013181993100766410110000006707344010964803975_);fill:#006073;}
	.st309{clip-path:url(#SVGID_00000013181993100766410110000006707344010964803975_);fill:#006074;}
	.st310{clip-path:url(#SVGID_00000013181993100766410110000006707344010964803975_);fill:#006174;}
	.st311{fill:url(#SVGID_00000090277857363436652390000008502215635897818504_);}
	.st312{fill:url(#SVGID_00000143616659497715282690000006823940578467636381_);}
	.st313{fill:#282A58;}
</style>
<g id="Layer_1">
</g>
<g id="Layer_2">
</g>
<g id="Layer_3">
</g>
<g id="Layer_4">
</g>
<g id="Layer_5">
</g>
<g id="Layer_6">
</g>
<g id="Layer_7">
</g>
<g id="Layer_8">
</g>
<g id="Layer_9">
</g>
<g id="Layer_10">
</g>
<g id="Layer_11">
</g>
<g id="Layer_12">
</g>
<g id="Layer_13">
</g>
<g id="Layer_14">
</g>
<g id="Layer_15">
	<g>
		<path class="st46" d="M173.93,33.29c1.96-0.21,4.07,0.37,5.69,1.49c0.11,0.08,0.22,0.16,0.33,0.24c0.11,0.08,0.22,0.17,0.32,0.26
			c0.1,0.09,0.21,0.18,0.31,0.27c0.1,0.09,0.2,0.19,0.29,0.29c0.1,0.1,0.19,0.2,0.28,0.3c0.09,0.1,0.18,0.21,0.26,0.32
			c0.09,0.11,0.17,0.22,0.25,0.33c0.08,0.11,0.16,0.23,0.23,0.34c0.07,0.12,0.14,0.23,0.21,0.35c0.07,0.12,0.13,0.24,0.19,0.36
			c0.06,0.12,0.12,0.25,0.18,0.37c0.06,0.13,0.11,0.25,0.16,0.38c0.05,0.13,0.1,0.26,0.14,0.39c0.04,0.13,0.08,0.26,0.12,0.39
			c0.04,0.13,0.07,0.27,0.1,0.4c0.03,0.13,0.06,0.27,0.08,0.4c0.02,0.13,0.04,0.26,0.06,0.39c0.02,0.13,0.03,0.26,0.04,0.39
			c0.01,0.13,0.02,0.26,0.02,0.39c0,0.13,0,0.26,0,0.39c0,0.13-0.01,0.26-0.02,0.39c-0.01,0.13-0.02,0.26-0.04,0.39
			c-0.02,0.13-0.04,0.26-0.06,0.39c-0.02,0.13-0.05,0.26-0.08,0.39c-0.03,0.13-0.06,0.26-0.1,0.38c-0.04,0.13-0.07,0.25-0.12,0.38
			c-0.04,0.12-0.09,0.25-0.14,0.37c-0.05,0.12-0.1,0.24-0.15,0.36c-0.05,0.12-0.11,0.24-0.17,0.36s-0.12,0.23-0.19,0.35
			c-0.07,0.11-0.13,0.23-0.21,0.34c-0.07,0.11-0.15,0.22-0.22,0.33c-1.45,2.01-3.67,3.05-6.06,3.42c-2.24,0.07-4.21-0.24-6.06-1.6
			c-0.11-0.08-0.21-0.16-0.31-0.25c-0.1-0.09-0.2-0.17-0.3-0.26c-0.1-0.09-0.19-0.18-0.29-0.28c-0.09-0.09-0.18-0.19-0.27-0.29
			c-0.09-0.1-0.18-0.2-0.26-0.3c-0.08-0.1-0.17-0.21-0.24-0.32c-0.08-0.11-0.15-0.22-0.23-0.33c-0.07-0.11-0.14-0.22-0.21-0.34
			c-0.07-0.12-0.13-0.23-0.19-0.35c-0.06-0.12-0.12-0.24-0.18-0.36c-0.06-0.12-0.11-0.24-0.16-0.37c-0.05-0.12-0.1-0.25-0.14-0.37
			c-0.04-0.13-0.08-0.25-0.12-0.38c-0.04-0.13-0.07-0.26-0.1-0.39c-0.03-0.13-0.06-0.26-0.08-0.39c-0.02-0.13-0.05-0.26-0.06-0.4
			c-0.3-2.17,0.32-4.31,1.63-6.05C169.52,34.65,171.54,33.61,173.93,33.29z M136.93,49.72c0.54,1.91,1.26,3.86,2.07,5.67l2.01-0.64
			c2.82-0.89,5.67-1.65,8.55-2.3c2.88-0.65,5.79-1.17,8.71-1.57c3.21-0.42,6.44-0.6,9.66-0.9c-0.85-0.87-1.67-1.75-2.32-2.78
			c-0.31-0.49-1.2-2.49-1.51-2.73c-0.04-0.03-0.3-0.06-0.31-0.06c-0.17-0.01-0.37,0.03-0.54,0.05
			C154.21,45.25,145.62,47.2,136.93,49.72z M185.29,44.47c7.41,0.19,15.17,1.72,22.27,3.8c1.71,0.5,3.5,0.99,5.1,1.78
			c-0.53,1.83-1.26,3.58-2,5.34l-1.4-0.46c-3.29-0.93-6.56-1.89-9.91-2.61c-5.87-1.27-11.89-1.94-17.87-2.38
			C183.3,48.41,184.43,46.69,185.29,44.47z M103.82,77.53c8.28,2.87,16.47,5.96,24.58,9.28l5.72,2.34c0.87,0.36,1.83,0.65,2.66,1.08
			c2.45,4.15,4.97,8.19,7.79,12.1c3.99,5.55,8.31,10.83,12.16,16.49c1.36,2.03,2.67,4.09,3.92,6.19c1.25,2.1,2.44,4.23,3.57,6.39
			c1.13,2.16,2.2,4.36,3.21,6.58c1.01,2.22,1.96,4.47,2.85,6.75c0.77,1.98,2.88,7.04,3.14,8.83l-0.11,0.05l-0.12-0.08
			c-1.12-3.39-3.23-6.59-5.02-9.67c-12.67-21.77-32.48-39.55-51.65-55.51c-4.14-3.51-8.32-6.98-12.53-10.41L103.82,77.53z
			 M212.99,89.1c2-1.1,4.18-1.96,6.28-2.84c2.12-0.88,4.26-1.71,6.41-2.49c2.16-0.78,4.33-1.51,6.52-2.2
			c2.19-0.68,4.4-1.31,6.61-1.9c2.22-0.58,4.45-1.11,6.69-1.59l-0.35,0.66c-1.1,1.02-2.28,1.95-3.41,2.94
			c-6.05,5.32-12.31,10.37-18.51,15.52c-9.19,7.64-18.18,15.75-26.08,24.73c-6.81,7.75-13.06,16.31-17.9,25.43
			c-0.57,1.07-2.18,4.79-2.9,5.44c0.71-2.88,2.23-6.63,3.31-9.44c0.89-2.29,1.85-4.56,2.87-6.8c1.02-2.24,2.11-4.45,3.26-6.62
			c1.15-2.18,2.36-4.32,3.64-6.42c1.27-2.11,2.61-4.17,4.01-6.2c3.63-5.34,7.71-10.33,11.46-15.57
			C207.83,97.67,210.43,93.4,212.99,89.1z"/>
		<linearGradient id="SVGID_1_" gradientUnits="userSpaceOnUse" x1="175.3736" y1="163.4119" x2="174.5909" y2="55.5162">
			<stop  offset="0" style="stop-color:#000018"/>
			<stop  offset="1" style="stop-color:#323E5E"/>
		</linearGradient>
		<path class="st37" d="M223.5,55.27c3.19,1.23,6.29,2.83,9.3,4.44c1.96,1.04,3.89,2.12,5.8,3.25c1.91,1.13,3.79,2.3,5.64,3.52
			c1.85,1.22,3.67,2.48,5.46,3.79s3.55,2.66,5.27,4.05c-1.22,6.2-3.55,12.46-6.06,18.25c-10.06,23.22-26.62,42.03-47.55,56.08
			c-4.03,2.71-8.2,5.34-12.46,7.68c-1.21,0.67-2.46,1.43-3.74,1.95c-0.9,0.85-8.99,4.32-10.71,5.14c-2.4-1.11-4.76-2.39-7.11-3.61
			c-5.56-2.89-11.12-5.94-16.44-9.25c-27.7-17.24-48.97-44.34-56.44-76.37c7.51-6.18,16.44-11.51,25.15-15.78
			c1.99-0.97,4.12-2.13,6.24-2.75c0.19,1.87,0.45,3.73,0.8,5.57c-5.91,2.72-11.66,5.69-17.14,9.19c-2.98,1.9-5.8,3.99-8.69,6.02
			c0.23,0.79,0.46,1.58,0.7,2.37c0.5,1.65,1.04,3.29,1.62,4.92c0.58,1.63,1.2,3.24,1.85,4.84c0.65,1.6,1.34,3.18,2.07,4.75
			c0.73,1.57,1.49,3.12,2.29,4.65c10.11,19.65,24.7,34.56,43.15,46.52c4.57,2.97,9.25,5.74,14.05,8.32
			c2.68,1.45,5.42,2.78,8.11,4.22l5.52-2.73l0.19-0.12c2.22-1.43,4.74-2.49,7.05-3.79c4.62-2.6,9.1-5.41,13.44-8.43
			c0.54-0.36,1.07-0.73,1.6-1.11c0.53-0.37,1.06-0.75,1.58-1.13c0.52-0.38,1.04-0.77,1.56-1.16c0.52-0.39,1.03-0.78,1.54-1.18
			c0.51-0.4,1.02-0.8,1.52-1.21c0.5-0.41,1.01-0.82,1.5-1.23c0.5-0.41,0.99-0.83,1.48-1.25c0.49-0.42,0.98-0.85,1.46-1.28
			c0.48-0.43,0.96-0.86,1.44-1.3c0.48-0.44,0.95-0.88,1.42-1.32c0.47-0.45,0.94-0.89,1.4-1.35c0.46-0.45,0.92-0.91,1.38-1.37
			c0.46-0.46,0.91-0.92,1.36-1.39c0.45-0.47,0.89-0.94,1.33-1.41c0.44-0.47,0.88-0.95,1.31-1.43c0.43-0.48,0.86-0.97,1.29-1.45
			s0.85-0.98,1.26-1.48c0.42-0.5,0.83-0.99,1.24-1.5c0.41-0.5,0.81-1.01,1.21-1.52c0.4-0.51,0.8-1.02,1.19-1.53
			c0.39-0.51,0.78-1.03,1.17-1.55c0.38-0.52,0.76-1.04,1.14-1.57c0.38-0.53,0.75-1.06,1.12-1.59c0.37-0.53,0.73-1.07,1.09-1.61
			c0.36-0.54,0.71-1.08,1.06-1.63c0.35-0.54,0.7-1.09,1.04-1.64c0.34-0.55,0.68-1.1,1.01-1.66c0.33-0.56,0.66-1.11,0.98-1.67
			c0.32-0.56,0.64-1.12,0.96-1.69c0.31-0.57,0.62-1.13,0.93-1.71c0.31-0.57,0.61-1.14,0.9-1.72c0.3-0.58,0.59-1.15,0.87-1.73
			c3.02-6.09,5.68-12.62,7.33-19.23c-1.35-1.3-3.13-2.36-4.68-3.42c-3.35-2.26-6.78-4.39-10.29-6.4s-7.08-3.88-10.73-5.62
			C223.09,59.03,223.31,57.15,223.5,55.27z"/>
		<path class="st46" d="M219.51,32.49c5.3,22.72-0.45,44.92-13.22,64.05c-5.21,7.81-11.38,14.93-16.4,22.87
			c-5.29,8.35-9.88,17.24-12.94,26.66c-0.88,2.72-1.55,5.51-2.26,8.28c-0.68-4.49-2.33-8.94-3.97-13.15
			c-3.39-8.7-8.27-17.58-13.67-25.17c-3.02-4.25-6.31-8.29-9.4-12.49c-3.81-5.15-7.31-10.51-10.22-16.23
			c-8.41-16.53-12.55-36.74-6.69-54.78c0.21,1.98,0.43,3.95,0.81,5.9c0,0.05,0,0.11-0.01,0.16c-0.05,0.53-0.44,1.06-0.49,1.77
			c-1.23,15.43,3.49,30.51,12.64,42.9c4.05,5.48,9.04,10.1,14.54,14.09c2.31,1.67,4.85,3.07,7.02,4.93
			c6.94,5.96,8.92,14.64,9.53,23.37c0.94-8.63,2.1-17.55,9.37-23.42c1.82-1.47,3.85-2.65,5.79-3.94c1.9-1.25,3.71-2.61,5.45-4.07
			c0.39-0.33,0.77-0.67,1.14-1.01c0.38-0.34,0.75-0.69,1.12-1.03c0.37-0.35,0.74-0.7,1.1-1.06c0.36-0.36,0.72-0.72,1.07-1.09
			c0.35-0.37,0.7-0.74,1.05-1.11c0.34-0.37,0.68-0.75,1.02-1.13c0.34-0.38,0.67-0.77,0.99-1.16c0.33-0.39,0.65-0.78,0.97-1.18
			c0.32-0.4,0.63-0.8,0.94-1.2c0.31-0.4,0.61-0.81,0.91-1.22c0.3-0.41,0.59-0.83,0.88-1.24c0.29-0.42,0.57-0.84,0.85-1.26
			c0.28-0.42,0.55-0.85,0.82-1.28c0.27-0.43,0.53-0.87,0.79-1.3c0.26-0.44,0.51-0.88,0.76-1.32c0.25-0.44,0.49-0.89,0.73-1.34
			c0.24-0.45,0.47-0.9,0.7-1.35c0.23-0.45,0.45-0.91,0.67-1.37c0.22-0.46,0.43-0.92,0.64-1.39c0.21-0.46,0.41-0.93,0.61-1.4
			c0.2-0.47,0.39-0.94,0.57-1.41c0.19-0.47,0.37-0.95,0.54-1.43c0.17-0.48,0.34-0.96,0.51-1.44c0.16-0.48,0.32-0.96,0.47-1.45
			c0.15-0.49,0.3-0.97,0.44-1.46c0.14-0.49,0.28-0.98,0.41-1.47c0.13-0.49,0.25-0.98,0.37-1.48c0.12-0.49,0.23-0.99,0.34-1.49
			s0.21-1,0.3-1.49c0.1-0.5,0.18-1,0.27-1.5c0.08-0.5,0.16-1,0.23-1.51c0.07-0.5,0.14-1.01,0.2-1.51c0.19-1.71,0.73-8.73-0.03-9.93
			c-0.07-0.1-0.12-0.13-0.2-0.21C218.34,38.88,219.06,35.68,219.51,32.49z"/>
		
			<radialGradient id="SVGID_00000168797517369992325840000002142210572082670509_" cx="174.5074" cy="82.0519" r="43.6342" gradientUnits="userSpaceOnUse">
			<stop  offset="0" style="stop-color:#323E5E"/>
			<stop  offset="0.0312" style="stop-color:#2F3A5A"/>
			<stop  offset="0.2775" style="stop-color:#1B213D"/>
			<stop  offset="0.5229" style="stop-color:#0C0F29"/>
			<stop  offset="0.765" style="stop-color:#03041C"/>
			<stop  offset="1" style="stop-color:#000018"/>
		</radialGradient>
		<path style="fill:url(#SVGID_00000168797517369992325840000002142210572082670509_);" d="M131.54,38.44
			c1.25,6.72,3.21,13.58,6.36,19.68c3.24-1.29,6.84-2.06,10.23-2.84c16.63-3.8,32.84-3.79,49.57-0.76c2.8,0.52,5.57,1.18,8.31,1.97
			c1.9,0.54,3.84,1.24,5.79,1.54c2.52-5.12,4.28-10.52,5.77-16.02c0.09,0.07,0.14,0.1,0.2,0.21c0.76,1.2,0.21,8.22,0.03,9.93
			c-0.06,0.5-0.13,1.01-0.2,1.51c-0.07,0.5-0.15,1.01-0.23,1.51c-0.08,0.5-0.17,1-0.27,1.5c-0.1,0.5-0.2,1-0.3,1.49
			s-0.22,0.99-0.34,1.49c-0.12,0.49-0.24,0.99-0.37,1.48c-0.13,0.49-0.26,0.98-0.41,1.47c-0.14,0.49-0.29,0.98-0.44,1.46
			c-0.15,0.49-0.31,0.97-0.47,1.45c-0.16,0.48-0.33,0.96-0.51,1.44c-0.17,0.48-0.35,0.95-0.54,1.43c-0.19,0.47-0.38,0.94-0.57,1.41
			c-0.2,0.47-0.4,0.94-0.61,1.4c-0.21,0.46-0.42,0.93-0.64,1.39c-0.22,0.46-0.44,0.92-0.67,1.37c-0.23,0.45-0.46,0.91-0.7,1.35
			c-0.24,0.45-0.48,0.89-0.73,1.34c-0.25,0.44-0.5,0.88-0.76,1.32c-0.26,0.44-0.52,0.87-0.79,1.3c-0.27,0.43-0.54,0.86-0.82,1.28
			c-0.28,0.42-0.56,0.85-0.85,1.26c-0.29,0.42-0.58,0.83-0.88,1.24c-0.3,0.41-0.6,0.82-0.91,1.22c-0.31,0.4-0.62,0.8-0.94,1.2
			c-0.32,0.4-0.64,0.79-0.97,1.18c-0.33,0.39-0.66,0.78-0.99,1.16c-0.34,0.38-0.68,0.76-1.02,1.13c-0.34,0.37-0.69,0.74-1.05,1.11
			c-0.35,0.37-0.71,0.73-1.07,1.09c-0.36,0.36-0.73,0.71-1.1,1.06c-0.37,0.35-0.74,0.69-1.12,1.03c-0.38,0.34-0.76,0.68-1.14,1.01
			c-1.74,1.46-3.55,2.82-5.45,4.07c-1.95,1.28-3.98,2.47-5.79,3.94c-7.27,5.86-8.42,14.79-9.37,23.42
			c-0.61-8.73-2.59-17.41-9.53-23.37c-2.17-1.86-4.71-3.26-7.02-4.93c-5.51-3.98-10.49-8.6-14.54-14.09
			c-9.15-12.39-13.87-27.47-12.64-42.9c0.06-0.71,0.44-1.24,0.49-1.77C131.54,38.55,131.54,38.49,131.54,38.44z"/>
		<path class="st49" d="M245.17,78.74c-1.16,5.26-4.28,12.09-6.76,16.89c-1.88,3.65-3.83,7.26-6.05,10.72
			c-9.73,15.14-23.17,27.6-38.28,37.26c-5.73,3.66-11.77,7.23-18.02,9.92c0.03-0.29,0.16-0.49,0.31-0.73
			c0.72-0.64,2.33-4.36,2.9-5.44c4.84-9.12,11.09-17.68,17.9-25.43c7.9-8.99,16.89-17.09,26.08-24.73
			c6.2-5.15,12.45-10.2,18.51-15.52C242.89,80.69,244.06,79.76,245.17,78.74z M111.07,96.18c11.52,23.14,29.37,38.99,51.45,51.73
			c1.89,1.09,3.83,2.13,5.74,3.18c1.54,0.84,3.25,1.94,4.92,2.45c-1.12-3.39-3.23-6.59-5.02-9.67
			c-12.67-21.77-32.48-39.55-51.65-55.51c-4.14-3.51-8.32-6.98-12.53-10.41C105.67,84.23,108.17,90.37,111.07,96.18z M222.16,63.6
			c1.35,0.59,2.66,1.33,3.98,1.99c2.55,1.27,5.06,2.63,7.52,4.06c2.46,1.44,4.88,2.95,7.24,4.54c1.42,0.94,3.17,1.98,4.35,3.21
			c0.24,0.25,0.28,0.35,0.27,0.68c-2.24,0.48-4.48,1.01-6.69,1.59c-2.22,0.58-4.42,1.21-6.61,1.9c-2.19,0.68-4.36,1.41-6.52,2.2
			c-2.16,0.78-4.3,1.61-6.41,2.49c-2.1,0.89-4.28,1.75-6.28,2.84c0.9-2.27,2.16-4.44,3.13-6.69c0.66-1.51,1.28-3.04,1.86-4.58
			c0.58-1.54,1.13-3.1,1.63-4.67c0.5-1.57,0.97-3.15,1.39-4.75C221.43,66.81,221.82,65.21,222.16,63.6z M128.4,86.81l5.72,2.34
			c0.87,0.36,1.83,0.65,2.66,1.08c-4.16-8.35-8.14-16.82-9.58-26.12c-2.15,0.84-4.26,1.92-6.32,2.96
			c-5.95,3.01-11.75,6.42-17.06,10.46C112.1,80.4,120.29,83.5,128.4,86.81z M138.5,59.29c0.21,0.39,0.42,0.78,0.63,1.16
			c0.21,0.38,0.43,0.77,0.66,1.14c0.22,0.38,0.45,0.75,0.69,1.13c0.23,0.37,0.47,0.74,0.71,1.11c0.24,0.37,0.49,0.73,0.74,1.09
			c0.25,0.36,0.51,0.72,0.77,1.08c0.26,0.36,0.52,0.71,0.79,1.06c0.27,0.35,0.54,0.7,0.82,1.04c0.28,0.34,0.56,0.68,0.84,1.02
			c0.28,0.34,0.57,0.67,0.87,1c0.29,0.33,0.59,0.65,0.89,0.98c0.3,0.32,0.6,0.64,0.91,0.95c0.31,0.31,0.62,0.63,0.93,0.93
			c0.32,0.31,0.63,0.61,0.96,0.91c0.32,0.3,0.65,0.59,0.98,0.89c0.33,0.29,0.66,0.58,1,0.86c0.34,0.28,0.68,0.56,1.02,0.84
			c0.34,0.28,0.69,0.55,1.04,0.81c0.35,0.27,0.7,0.53,1.06,0.79c0.36,0.26,0.72,0.51,1.08,0.76c0.36,0.25,0.73,0.5,1.1,0.74
			c0.37,0.24,0.74,0.48,1.11,0.71c0.37,0.23,0.75,0.46,1.13,0.68c0.38,0.22,0.76,0.44,1.15,0.66c0.38,0.21,0.77,0.42,1.16,0.63
			c0.39,0.2,0.78,0.4,1.18,0.6c0.39,0.19,0.79,0.39,1.19,0.57c0.4,0.19,0.8,0.37,1.2,0.54s0.81,0.35,1.22,0.51
			c0.41,0.17,0.82,0.33,1.23,0.48c0.41,0.16,0.82,0.31,1.24,0.45l0.02-2.24c-2.92-1.96-5.01-4.46-5.71-7.98
			c-0.04-0.19-0.07-0.38-0.1-0.58c-0.03-0.19-0.06-0.39-0.08-0.58c-0.02-0.19-0.04-0.39-0.05-0.58s-0.02-0.39-0.02-0.58
			c0-0.19,0-0.39,0.01-0.58c0.01-0.19,0.02-0.39,0.04-0.58c0.02-0.19,0.04-0.39,0.07-0.58c0.03-0.19,0.06-0.39,0.1-0.58
			c0.04-0.19,0.08-0.38,0.12-0.57c0.05-0.19,0.1-0.38,0.15-0.56c0.06-0.19,0.11-0.37,0.18-0.56c0.06-0.18,0.13-0.37,0.21-0.55
			c0.07-0.18,0.15-0.36,0.23-0.54c0.08-0.18,0.17-0.35,0.26-0.52c0.09-0.17,0.18-0.34,0.28-0.51c0.1-0.17,0.2-0.33,0.31-0.5
			c0.11-0.17,0.23-0.33,0.35-0.5c0.12-0.16,0.25-0.32,0.37-0.48c0.13-0.16,0.26-0.31,0.4-0.46c0.14-0.15,0.28-0.29,0.42-0.44
			c0.14-0.14,0.29-0.28,0.44-0.42c0.15-0.13,0.3-0.27,0.46-0.39c0.16-0.13,0.32-0.25,0.48-0.37c0.16-0.12,0.33-0.23,0.5-0.34
			c0.17-0.11,0.34-0.22,0.52-0.32c0.17-0.1,0.35-0.2,0.53-0.29c0.18-0.09,0.36-0.18,0.54-0.27c0.18-0.08,0.37-0.16,0.56-0.24
			c0.19-0.07,0.38-0.15,0.57-0.21c0.19-0.07,0.38-0.13,0.58-0.18c0.19-0.06,0.39-0.11,0.59-0.15c0.2-0.05,0.39-0.09,0.59-0.12
			c0.19-0.03,0.38-0.06,0.57-0.09c0.19-0.03,0.39-0.05,0.58-0.06c0.19-0.02,0.39-0.03,0.58-0.03c0.19-0.01,0.39-0.01,0.58,0
			c0.19,0,0.39,0.01,0.58,0.03c0.19,0.01,0.39,0.03,0.58,0.06c0.19,0.02,0.38,0.05,0.58,0.08c0.19,0.03,0.38,0.07,0.57,0.11
			c0.19,0.04,0.38,0.09,0.56,0.14c0.19,0.05,0.37,0.11,0.56,0.17c0.18,0.06,0.37,0.13,0.55,0.2c0.18,0.07,0.36,0.14,0.54,0.22
			c0.18,0.08,0.35,0.16,0.53,0.25c0.17,0.09,0.34,0.18,0.51,0.28c0.17,0.1,0.33,0.2,0.5,0.3c0.16,0.1,0.32,0.21,0.48,0.33
			c0.16,0.11,0.32,0.23,0.48,0.35c0.16,0.12,0.31,0.25,0.46,0.38c0.15,0.13,0.3,0.26,0.44,0.4c0.14,0.14,0.29,0.28,0.42,0.42
			c0.14,0.14,0.27,0.29,0.4,0.44c0.13,0.15,0.26,0.3,0.38,0.46c0.12,0.16,0.24,0.32,0.36,0.48c0.12,0.16,0.23,0.33,0.33,0.5
			c0.11,0.17,0.21,0.34,0.31,0.51c0.1,0.17,0.19,0.35,0.28,0.53c0.09,0.18,0.18,0.36,0.26,0.54c0.08,0.18,0.16,0.37,0.23,0.55
			c0.07,0.19,0.14,0.37,0.2,0.56c0.06,0.19,0.12,0.38,0.18,0.57c0.05,0.19,0.1,0.39,0.15,0.58c0.04,0.19,0.08,0.39,0.12,0.59
			c0.03,0.19,0.06,0.39,0.09,0.58c0.02,0.19,0.04,0.39,0.06,0.59c0.01,0.2,0.02,0.39,0.03,0.59c0,0.2,0,0.39,0,0.59
			c-0.01,0.2-0.02,0.39-0.03,0.59c-0.02,0.2-0.04,0.39-0.06,0.59c-0.03,0.19-0.06,0.39-0.09,0.58c-0.03,0.19-0.07,0.39-0.12,0.58
			c-0.04,0.19-0.09,0.38-0.15,0.57c-0.05,0.19-0.11,0.38-0.18,0.56c-0.06,0.19-0.13,0.37-0.2,0.55c-0.07,0.18-0.15,0.36-0.23,0.54
			c-0.08,0.18-0.17,0.36-0.26,0.53c-0.09,0.17-0.18,0.35-0.28,0.52c-0.1,0.17-0.2,0.34-0.31,0.5c-0.11,0.16-0.22,0.33-0.33,0.49
			c-1.02,1.42-2.29,2.42-3.74,3.38l0.08,2.16c2.18-0.67,4.29-1.64,6.33-2.64c0.32-0.16,0.64-0.31,0.95-0.48
			c0.32-0.16,0.63-0.33,0.94-0.49c0.31-0.17,0.62-0.34,0.93-0.51c0.31-0.17,0.62-0.35,0.92-0.53c0.31-0.18,0.61-0.36,0.91-0.55
			c0.3-0.19,0.6-0.38,0.9-0.57c0.3-0.19,0.59-0.39,0.89-0.59c0.29-0.2,0.59-0.4,0.88-0.6c0.29-0.2,0.58-0.41,0.86-0.62
			c0.29-0.21,0.57-0.42,0.85-0.64c0.28-0.22,0.56-0.43,0.84-0.65c0.28-0.22,0.55-0.44,0.82-0.67c0.27-0.23,0.54-0.46,0.81-0.69
			c0.27-0.23,0.53-0.47,0.8-0.7c0.26-0.24,0.52-0.48,0.78-0.72c0.26-0.24,0.52-0.49,0.77-0.73c0.25-0.25,0.51-0.5,0.75-0.75
			c0.25-0.25,0.5-0.51,0.74-0.76c0.24-0.26,0.49-0.52,0.72-0.78c0.24-0.26,0.47-0.53,0.71-0.79c0.23-0.27,0.46-0.54,0.69-0.81
			s0.45-0.54,0.68-0.82s0.44-0.55,0.66-0.83c0.22-0.28,0.43-0.56,0.64-0.85c0.21-0.28,0.42-0.57,0.63-0.86
			c0.21-0.29,0.41-0.58,0.61-0.87c0.2-0.29,0.4-0.59,0.59-0.88c0.19-0.3,0.39-0.59,0.57-0.89c0.19-0.3,0.37-0.6,0.56-0.91
			c0.18-0.3,0.36-0.61,0.54-0.92c0.18-0.31,0.35-0.62,0.52-0.93c0.17-0.31,0.34-0.62,0.5-0.94c0.24-0.44,0.46-0.89,0.68-1.34
			c-1.95-0.3-3.89-1-5.79-1.54c-2.74-0.79-5.51-1.45-8.31-1.97c-16.73-3.03-32.94-3.04-49.57,0.76c-3.39,0.78-6.99,1.55-10.23,2.84
			C138.1,58.51,138.3,58.9,138.5,59.29z"/>
	</g>
</g>
</svg>
