<?xml version="1.0" encoding="utf-8"?>
<!-- Generator: Adobe Illustrator 27.8.1, SVG Export Plug-In . SVG Version: 6.00 Build 0)  -->
<svg version="1.1" xmlns="http://www.w3.org/2000/svg" xmlns:xlink="http://www.w3.org/1999/xlink" x="0px" y="0px"
	 viewBox="0 0 350 230" style="enable-background:new 0 0 350 230;" xml:space="preserve">
<style type="text/css">
	.st0{fill:#FFFDE6;}
	.st1{fill:#EBFFFB;}
	.st2{fill:#E6FFF4;}
	.st3{fill:#EEFFF2;}
	.st4{fill:#F3FFE6;}
	.st5{fill:#F3FFFF;}
	.st6{fill:#ECFFE9;}
	.st7{fill:#0E045F;}
	.st8{fill:#CD00FF;}
	.st9{fill:#8CC63F;}
	.st10{fill:#39B54A;}
	.st11{fill:#00770B;}
	.st12{fill:#040051;}
	.st13{fill:#005B59;}
	.st14{fill:#00EDFF;}
	.st15{fill:#006359;}
	.st16{fill:#00006D;}
	.st17{fill:#29004C;}
	.st18{fill:#EB900C;}
	.st19{fill:#DB6E28;}
	.st20{fill:#FFFFFF;}
	.st21{fill:#2D000F;}
	.st22{fill:#660061;}
	.st23{fill:#660061;stroke:#2D002D;stroke-miterlimit:10;}
	.st24{fill:#00AFC6;}
	.st25{fill:#003F39;}
	.st26{fill:#00DCC8;}
	.st27{fill:#FD1F00;}
	.st28{fill:#07186D;}
	.st29{fill:#005C7C;}
	.st30{fill:#8C4B03;}
	.st31{fill:#A38B00;}
	.st32{fill:#20008F;}
	.st33{fill:#003A1D;}
	.st34{fill:#284200;}
	.st35{fill:#00CED8;}
	.st36{fill:url(#graphics_00000054241187764841589260000009410505200118280845_);}
	.st37{fill:url(#SVGID_1_);}
	.st38{fill:url(#SVGID_00000109734828253860582520000003755917391783903623_);}
	.st39{fill:#1F1F29;}
	.st40{fill:url(#SVGID_00000134212091323948625640000011066476790269500861_);}
	.st41{fill:#909198;}
	.st42{fill:#149BB7;}
	.st43{fill:url(#SVGID_00000078737862544465758750000010810252537598609835_);}
	.st44{fill:#0E5883;}
	.st45{fill:#0D1230;}
	.st46{fill:#283151;}
	.st47{fill:url(#SVGID_00000080894741402485537110000014364469644099744958_);}
	.st48{fill:url(#SVGID_00000063612301062997660790000015248474919954847376_);}
	.st49{fill:#92959D;}
	.st50{fill:url(#SVGID_00000104666095466999116290000003948474950620725644_);}
	.st51{fill:#7ABF45;}
	.st52{fill:#1DA4CC;}
	.st53{fill:#F89B1B;}
	.st54{fill:#16A79A;}
	.st55{fill:#FAFFD4;}
	.st56{fill:url(#SVGID_00000124155897823325580600000005890064003500723634_);}
	.st57{fill:#070B33;}
	.st58{fill:url(#SVGID_00000042016279894880484530000000267204784124572041_);}
	.st59{fill:#FEFEFE;}
	.st60{fill:url(#SVGID_00000099655890405779418900000003821990821154631845_);}
	.st61{fill:#0C1941;}
	.st62{fill:#EE5A14;}
	.st63{fill:#1A56B5;}
	.st64{fill:url(#SVGID_00000173875679645375106270000005021150845746997899_);}
	.st65{fill:url(#SVGID_00000055682609860453878510000014062346142585326998_);}
	.st66{fill:#264C61;}
	.st67{fill:#071926;}
	.st68{fill:url(#SVGID_00000146489455659458663930000001878357690428269957_);}
	.st69{fill:url(#SVGID_00000178909420365422577420000012090388415233868690_);}
	.st70{fill:url(#SVGID_00000033368792929449608620000015946356347051004088_);}
	.st71{fill:url(#SVGID_00000128454083049935822980000000517908181816645536_);}
	.st72{fill:url(#SVGID_00000004538498877041558650000000779287160236473525_);}
	.st73{fill:#18306C;}
	.st74{fill:#1A6FC2;}
	.st75{fill:url(#SVGID_00000134935491548982605190000017152470085861241272_);}
	.st76{fill:url(#SVGID_00000127012604987924710290000006881062896707736255_);}
	.st77{fill:none;stroke:#282A58;stroke-linecap:round;stroke-linejoin:round;stroke-miterlimit:10;}
	.st78{clip-path:url(#SVGID_00000025411414345628083890000008947172856752041136_);fill:#195C96;}
	.st79{clip-path:url(#SVGID_00000025411414345628083890000008947172856752041136_);fill:#195D97;}
	.st80{clip-path:url(#SVGID_00000025411414345628083890000008947172856752041136_);fill:#195E98;}
	.st81{clip-path:url(#SVGID_00000025411414345628083890000008947172856752041136_);fill:#195F99;}
	.st82{clip-path:url(#SVGID_00000025411414345628083890000008947172856752041136_);fill:#19609A;}
	.st83{clip-path:url(#SVGID_00000025411414345628083890000008947172856752041136_);fill:#19619B;}
	.st84{clip-path:url(#SVGID_00000025411414345628083890000008947172856752041136_);fill:#1A629C;}
	.st85{clip-path:url(#SVGID_00000025411414345628083890000008947172856752041136_);fill:#1A639D;}
	.st86{clip-path:url(#SVGID_00000025411414345628083890000008947172856752041136_);fill:#1A649E;}
	.st87{clip-path:url(#SVGID_00000025411414345628083890000008947172856752041136_);fill:#1A659F;}
	.st88{clip-path:url(#SVGID_00000025411414345628083890000008947172856752041136_);fill:#1A66A0;}
	.st89{clip-path:url(#SVGID_00000025411414345628083890000008947172856752041136_);fill:#1A67A1;}
	.st90{clip-path:url(#SVGID_00000025411414345628083890000008947172856752041136_);fill:#1A68A3;}
	.st91{clip-path:url(#SVGID_00000025411414345628083890000008947172856752041136_);fill:#1A69A4;}
	.st92{clip-path:url(#SVGID_00000025411414345628083890000008947172856752041136_);fill:#1A6AA5;}
	.st93{clip-path:url(#SVGID_00000025411414345628083890000008947172856752041136_);fill:#1A6BA6;}
	.st94{clip-path:url(#SVGID_00000025411414345628083890000008947172856752041136_);fill:#1A6CA7;}
	.st95{clip-path:url(#SVGID_00000025411414345628083890000008947172856752041136_);fill:#1A6DA8;}
	.st96{clip-path:url(#SVGID_00000025411414345628083890000008947172856752041136_);fill:#1B6EA9;}
	.st97{clip-path:url(#SVGID_00000025411414345628083890000008947172856752041136_);fill:#1B6FAA;}
	.st98{clip-path:url(#SVGID_00000025411414345628083890000008947172856752041136_);fill:#1B70AB;}
	.st99{clip-path:url(#SVGID_00000025411414345628083890000008947172856752041136_);fill:#1B71AC;}
	.st100{clip-path:url(#SVGID_00000025411414345628083890000008947172856752041136_);fill:#1B72AD;}
	.st101{clip-path:url(#SVGID_00000025411414345628083890000008947172856752041136_);fill:#1B73AE;}
	.st102{clip-path:url(#SVGID_00000025411414345628083890000008947172856752041136_);fill:#1B74AF;}
	.st103{clip-path:url(#SVGID_00000025411414345628083890000008947172856752041136_);fill:#1B75B0;}
	.st104{clip-path:url(#SVGID_00000025411414345628083890000008947172856752041136_);fill:#1C76B0;}
	.st105{clip-path:url(#SVGID_00000025411414345628083890000008947172856752041136_);fill:#1C77B1;}
	.st106{clip-path:url(#SVGID_00000025411414345628083890000008947172856752041136_);fill:#1C78B1;}
	.st107{clip-path:url(#SVGID_00000025411414345628083890000008947172856752041136_);fill:#1C79B2;}
	.st108{clip-path:url(#SVGID_00000025411414345628083890000008947172856752041136_);fill:#1D7AB3;}
	.st109{clip-path:url(#SVGID_00000025411414345628083890000008947172856752041136_);fill:#1D7BB3;}
	.st110{clip-path:url(#SVGID_00000025411414345628083890000008947172856752041136_);fill:#1D7CB4;}
	.st111{clip-path:url(#SVGID_00000025411414345628083890000008947172856752041136_);fill:#1E7DB4;}
	.st112{clip-path:url(#SVGID_00000025411414345628083890000008947172856752041136_);fill:#1E7EB5;}
	.st113{clip-path:url(#SVGID_00000025411414345628083890000008947172856752041136_);fill:#1E7FB5;}
	.st114{clip-path:url(#SVGID_00000025411414345628083890000008947172856752041136_);fill:#1E80B6;}
	.st115{clip-path:url(#SVGID_00000025411414345628083890000008947172856752041136_);fill:#1F81B7;}
	.st116{clip-path:url(#SVGID_00000025411414345628083890000008947172856752041136_);fill:#1F82B7;}
	.st117{clip-path:url(#SVGID_00000025411414345628083890000008947172856752041136_);fill:#1F83B8;}
	.st118{clip-path:url(#SVGID_00000025411414345628083890000008947172856752041136_);fill:#1F84B8;}
	.st119{clip-path:url(#SVGID_00000025411414345628083890000008947172856752041136_);fill:#2085B9;}
	.st120{clip-path:url(#SVGID_00000025411414345628083890000008947172856752041136_);fill:#2087BA;}
	.st121{clip-path:url(#SVGID_00000025411414345628083890000008947172856752041136_);fill:#2088BA;}
	.st122{clip-path:url(#SVGID_00000025411414345628083890000008947172856752041136_);fill:#2189BB;}
	.st123{clip-path:url(#SVGID_00000025411414345628083890000008947172856752041136_);fill:#218ABB;}
	.st124{clip-path:url(#SVGID_00000025411414345628083890000008947172856752041136_);fill:#218BBC;}
	.st125{clip-path:url(#SVGID_00000025411414345628083890000008947172856752041136_);fill:#218CBC;}
	.st126{clip-path:url(#SVGID_00000025411414345628083890000008947172856752041136_);fill:#228DBD;}
	.st127{clip-path:url(#SVGID_00000025411414345628083890000008947172856752041136_);fill:#228EBE;}
	.st128{clip-path:url(#SVGID_00000025411414345628083890000008947172856752041136_);fill:#228FBE;}
	.st129{clip-path:url(#SVGID_00000025411414345628083890000008947172856752041136_);fill:#2390BF;}
	.st130{clip-path:url(#SVGID_00000025411414345628083890000008947172856752041136_);fill:#2391BF;}
	.st131{clip-path:url(#SVGID_00000025411414345628083890000008947172856752041136_);fill:#2392C0;}
	.st132{clip-path:url(#SVGID_00000025411414345628083890000008947172856752041136_);fill:#2393C1;}
	.st133{clip-path:url(#SVGID_00000025411414345628083890000008947172856752041136_);fill:#2494C1;}
	.st134{clip-path:url(#SVGID_00000025411414345628083890000008947172856752041136_);fill:#2495C2;}
	.st135{clip-path:url(#SVGID_00000025411414345628083890000008947172856752041136_);fill:#2496C2;}
	.st136{clip-path:url(#SVGID_00000025411414345628083890000008947172856752041136_);fill:#2497C3;}
	.st137{clip-path:url(#SVGID_00000025411414345628083890000008947172856752041136_);fill:#2598C3;}
	.st138{clip-path:url(#SVGID_00000025411414345628083890000008947172856752041136_);fill:#2599C4;}
	.st139{clip-path:url(#SVGID_00000025411414345628083890000008947172856752041136_);fill:#269AC4;}
	.st140{clip-path:url(#SVGID_00000025411414345628083890000008947172856752041136_);fill:#279AC5;}
	.st141{clip-path:url(#SVGID_00000025411414345628083890000008947172856752041136_);fill:#279BC5;}
	.st142{clip-path:url(#SVGID_00000025411414345628083890000008947172856752041136_);fill:#289BC5;}
	.st143{clip-path:url(#SVGID_00000025411414345628083890000008947172856752041136_);fill:#289CC5;}
	.st144{clip-path:url(#SVGID_00000025411414345628083890000008947172856752041136_);fill:#299CC5;}
	.st145{clip-path:url(#SVGID_00000025411414345628083890000008947172856752041136_);fill:#299DC5;}
	.st146{clip-path:url(#SVGID_00000025411414345628083890000008947172856752041136_);fill:#2A9DC6;}
	.st147{clip-path:url(#SVGID_00000025411414345628083890000008947172856752041136_);fill:#2A9EC6;}
	.st148{clip-path:url(#SVGID_00000025411414345628083890000008947172856752041136_);fill:#2B9EC6;}
	.st149{clip-path:url(#SVGID_00000025411414345628083890000008947172856752041136_);fill:#2B9FC6;}
	.st150{clip-path:url(#SVGID_00000025411414345628083890000008947172856752041136_);fill:#2C9FC6;}
	.st151{clip-path:url(#SVGID_00000025411414345628083890000008947172856752041136_);fill:#2DA0C7;}
	.st152{clip-path:url(#SVGID_00000025411414345628083890000008947172856752041136_);fill:#2EA1C7;}
	.st153{clip-path:url(#SVGID_00000025411414345628083890000008947172856752041136_);fill:#2FA2C7;}
	.st154{clip-path:url(#SVGID_00000025411414345628083890000008947172856752041136_);fill:#30A2C8;}
	.st155{clip-path:url(#SVGID_00000025411414345628083890000008947172856752041136_);fill:#30A3C8;}
	.st156{clip-path:url(#SVGID_00000025411414345628083890000008947172856752041136_);fill:#31A4C8;}
	.st157{clip-path:url(#SVGID_00000025411414345628083890000008947172856752041136_);fill:#32A4C8;}
	.st158{clip-path:url(#SVGID_00000025411414345628083890000008947172856752041136_);fill:#33A5C9;}
	.st159{clip-path:url(#SVGID_00000025411414345628083890000008947172856752041136_);fill:#33A6C9;}
	.st160{clip-path:url(#SVGID_00000025411414345628083890000008947172856752041136_);fill:#34A6C9;}
	.st161{clip-path:url(#SVGID_00000025411414345628083890000008947172856752041136_);fill:#35A7C9;}
	.st162{clip-path:url(#SVGID_00000025411414345628083890000008947172856752041136_);fill:#36A8CA;}
	.st163{clip-path:url(#SVGID_00000025411414345628083890000008947172856752041136_);fill:#37A9CA;}
	.st164{clip-path:url(#SVGID_00000025411414345628083890000008947172856752041136_);fill:#38A9CA;}
	.st165{clip-path:url(#SVGID_00000025411414345628083890000008947172856752041136_);fill:#38AACA;}
	.st166{clip-path:url(#SVGID_00000025411414345628083890000008947172856752041136_);fill:#39ABCB;}
	.st167{clip-path:url(#SVGID_00000025411414345628083890000008947172856752041136_);fill:#3AACCB;}
	.st168{clip-path:url(#SVGID_00000025411414345628083890000008947172856752041136_);fill:#3BACCB;}
	.st169{clip-path:url(#SVGID_00000025411414345628083890000008947172856752041136_);fill:#3CADCC;}
	.st170{clip-path:url(#SVGID_00000025411414345628083890000008947172856752041136_);fill:#3DAECC;}
	.st171{clip-path:url(#SVGID_00000025411414345628083890000008947172856752041136_);fill:#3EAFCC;}
	.st172{clip-path:url(#SVGID_00000025411414345628083890000008947172856752041136_);fill:#3FB0CD;}
	.st173{clip-path:url(#SVGID_00000025411414345628083890000008947172856752041136_);fill:#40B1CD;}
	.st174{clip-path:url(#SVGID_00000025411414345628083890000008947172856752041136_);fill:#41B2CD;}
	.st175{clip-path:url(#SVGID_00000025411414345628083890000008947172856752041136_);fill:#42B2CE;}
	.st176{clip-path:url(#SVGID_00000025411414345628083890000008947172856752041136_);fill:#43B3CE;}
	.st177{clip-path:url(#SVGID_00000025411414345628083890000008947172856752041136_);fill:#44B4CE;}
	.st178{clip-path:url(#SVGID_00000025411414345628083890000008947172856752041136_);fill:#45B5CF;}
	.st179{clip-path:url(#SVGID_00000025411414345628083890000008947172856752041136_);fill:#46B6CF;}
	.st180{clip-path:url(#SVGID_00000025411414345628083890000008947172856752041136_);fill:#47B7CF;}
	.st181{clip-path:url(#SVGID_00000025411414345628083890000008947172856752041136_);fill:#48B8D0;}
	.st182{clip-path:url(#SVGID_00000025411414345628083890000008947172856752041136_);fill:#4AB9D0;}
	.st183{clip-path:url(#SVGID_00000025411414345628083890000008947172856752041136_);fill:#4BBAD1;}
	.st184{clip-path:url(#SVGID_00000025411414345628083890000008947172856752041136_);fill:#4CBBD1;}
	.st185{clip-path:url(#SVGID_00000025411414345628083890000008947172856752041136_);fill:#4DBCD1;}
	.st186{clip-path:url(#SVGID_00000025411414345628083890000008947172856752041136_);fill:#4EBDD2;}
	.st187{clip-path:url(#SVGID_00000025411414345628083890000008947172856752041136_);fill:#4FBED2;}
	.st188{clip-path:url(#SVGID_00000025411414345628083890000008947172856752041136_);fill:#51BFD3;}
	.st189{clip-path:url(#SVGID_00000025411414345628083890000008947172856752041136_);fill:#52C0D3;}
	.st190{clip-path:url(#SVGID_00000025411414345628083890000008947172856752041136_);fill:#53C1D3;}
	.st191{clip-path:url(#SVGID_00000025411414345628083890000008947172856752041136_);fill:#54C3D4;}
	.st192{clip-path:url(#SVGID_00000025411414345628083890000008947172856752041136_);fill:#56C4D4;}
	.st193{clip-path:url(#SVGID_00000025411414345628083890000008947172856752041136_);fill:#57C5D5;}
	.st194{clip-path:url(#SVGID_00000025411414345628083890000008947172856752041136_);fill:#58C6D5;}
	.st195{clip-path:url(#SVGID_00000025411414345628083890000008947172856752041136_);fill:#59C7D5;}
	.st196{clip-path:url(#SVGID_00000025411414345628083890000008947172856752041136_);fill:#5BC8D6;}
	.st197{clip-path:url(#SVGID_00000025411414345628083890000008947172856752041136_);fill:#5CC9D6;}
	.st198{clip-path:url(#SVGID_00000025411414345628083890000008947172856752041136_);fill:#5DCBD7;}
	.st199{clip-path:url(#SVGID_00000025411414345628083890000008947172856752041136_);fill:#5FCCD7;}
	.st200{clip-path:url(#SVGID_00000025411414345628083890000008947172856752041136_);fill:#60CDD8;}
	.st201{clip-path:url(#SVGID_00000025411414345628083890000008947172856752041136_);fill:#62CED8;}
	.st202{clip-path:url(#SVGID_00000025411414345628083890000008947172856752041136_);fill:#63CFD9;}
	.st203{clip-path:url(#SVGID_00000025411414345628083890000008947172856752041136_);fill:#64D1D9;}
	.st204{clip-path:url(#SVGID_00000025411414345628083890000008947172856752041136_);fill:#66D2DA;}
	.st205{clip-path:url(#SVGID_00000025411414345628083890000008947172856752041136_);fill:#67D3DA;}
	.st206{clip-path:url(#SVGID_00000025411414345628083890000008947172856752041136_);fill:#69D4DB;}
	.st207{clip-path:url(#SVGID_00000025411414345628083890000008947172856752041136_);fill:#6AD6DB;}
	.st208{clip-path:url(#SVGID_00000025411414345628083890000008947172856752041136_);fill:#6CD7DC;}
	.st209{clip-path:url(#SVGID_00000025411414345628083890000008947172856752041136_);fill:#6DD8DC;}
	.st210{clip-path:url(#SVGID_00000025411414345628083890000008947172856752041136_);fill:#6EDADC;}
	.st211{clip-path:url(#SVGID_00000025411414345628083890000008947172856752041136_);fill:#70DBDD;}
	.st212{clip-path:url(#SVGID_00000025411414345628083890000008947172856752041136_);fill:#72DCDE;}
	.st213{clip-path:url(#SVGID_00000025411414345628083890000008947172856752041136_);fill:#73DEDE;}
	.st214{clip-path:url(#SVGID_00000025411414345628083890000008947172856752041136_);fill:#75DFDF;}
	.st215{clip-path:url(#SVGID_00000025411414345628083890000008947172856752041136_);fill:#76E0DF;}
	.st216{clip-path:url(#SVGID_00000025411414345628083890000008947172856752041136_);fill:#78E2E0;}
	.st217{clip-path:url(#SVGID_00000025411414345628083890000008947172856752041136_);fill:#79E3E0;}
	.st218{clip-path:url(#SVGID_00000025411414345628083890000008947172856752041136_);fill:#7BE4E1;}
	.st219{clip-path:url(#SVGID_00000025411414345628083890000008947172856752041136_);fill:#7CE6E1;}
	.st220{clip-path:url(#SVGID_00000025411414345628083890000008947172856752041136_);fill:#7EE7E2;}
	.st221{clip-path:url(#SVGID_00000025411414345628083890000008947172856752041136_);fill:#80E9E2;}
	.st222{clip-path:url(#SVGID_00000025411414345628083890000008947172856752041136_);fill:#81EAE3;}
	.st223{clip-path:url(#SVGID_00000025411414345628083890000008947172856752041136_);fill:#83ECE3;}
	.st224{clip-path:url(#SVGID_00000025411414345628083890000008947172856752041136_);fill:#85EDE4;}
	.st225{clip-path:url(#SVGID_00000025411414345628083890000008947172856752041136_);fill:#86EFE4;}
	.st226{clip-path:url(#SVGID_00000025411414345628083890000008947172856752041136_);fill:#88F0E5;}
	.st227{clip-path:url(#SVGID_00000149367639583385972390000009086025345145363605_);fill:#0B003F;}
	.st228{clip-path:url(#SVGID_00000149367639583385972390000009086025345145363605_);fill:#0B0240;}
	.st229{clip-path:url(#SVGID_00000149367639583385972390000009086025345145363605_);fill:#0B0341;}
	.st230{clip-path:url(#SVGID_00000149367639583385972390000009086025345145363605_);fill:#0A0542;}
	.st231{clip-path:url(#SVGID_00000149367639583385972390000009086025345145363605_);fill:#0A0743;}
	.st232{clip-path:url(#SVGID_00000149367639583385972390000009086025345145363605_);fill:#0A0843;}
	.st233{clip-path:url(#SVGID_00000149367639583385972390000009086025345145363605_);fill:#0A0A44;}
	.st234{clip-path:url(#SVGID_00000149367639583385972390000009086025345145363605_);fill:#0A0B45;}
	.st235{clip-path:url(#SVGID_00000149367639583385972390000009086025345145363605_);fill:#0A0D46;}
	.st236{clip-path:url(#SVGID_00000149367639583385972390000009086025345145363605_);fill:#090F47;}
	.st237{clip-path:url(#SVGID_00000149367639583385972390000009086025345145363605_);fill:#091048;}
	.st238{clip-path:url(#SVGID_00000149367639583385972390000009086025345145363605_);fill:#091249;}
	.st239{clip-path:url(#SVGID_00000149367639583385972390000009086025345145363605_);fill:#091349;}
	.st240{clip-path:url(#SVGID_00000149367639583385972390000009086025345145363605_);fill:#09154A;}
	.st241{clip-path:url(#SVGID_00000149367639583385972390000009086025345145363605_);fill:#08164B;}
	.st242{clip-path:url(#SVGID_00000149367639583385972390000009086025345145363605_);fill:#08184C;}
	.st243{clip-path:url(#SVGID_00000149367639583385972390000009086025345145363605_);fill:#08194D;}
	.st244{clip-path:url(#SVGID_00000149367639583385972390000009086025345145363605_);fill:#081B4E;}
	.st245{clip-path:url(#SVGID_00000149367639583385972390000009086025345145363605_);fill:#081C4E;}
	.st246{clip-path:url(#SVGID_00000149367639583385972390000009086025345145363605_);fill:#081E4F;}
	.st247{clip-path:url(#SVGID_00000149367639583385972390000009086025345145363605_);fill:#071F50;}
	.st248{clip-path:url(#SVGID_00000149367639583385972390000009086025345145363605_);fill:#072051;}
	.st249{clip-path:url(#SVGID_00000149367639583385972390000009086025345145363605_);fill:#072251;}
	.st250{clip-path:url(#SVGID_00000149367639583385972390000009086025345145363605_);fill:#072352;}
	.st251{clip-path:url(#SVGID_00000149367639583385972390000009086025345145363605_);fill:#072553;}
	.st252{clip-path:url(#SVGID_00000149367639583385972390000009086025345145363605_);fill:#072654;}
	.st253{clip-path:url(#SVGID_00000149367639583385972390000009086025345145363605_);fill:#072754;}
	.st254{clip-path:url(#SVGID_00000149367639583385972390000009086025345145363605_);fill:#062955;}
	.st255{clip-path:url(#SVGID_00000149367639583385972390000009086025345145363605_);fill:#062A56;}
	.st256{clip-path:url(#SVGID_00000149367639583385972390000009086025345145363605_);fill:#062B57;}
	.st257{clip-path:url(#SVGID_00000149367639583385972390000009086025345145363605_);fill:#062D57;}
	.st258{clip-path:url(#SVGID_00000149367639583385972390000009086025345145363605_);fill:#062E58;}
	.st259{clip-path:url(#SVGID_00000149367639583385972390000009086025345145363605_);fill:#062F59;}
	.st260{clip-path:url(#SVGID_00000149367639583385972390000009086025345145363605_);fill:#05315A;}
	.st261{clip-path:url(#SVGID_00000149367639583385972390000009086025345145363605_);fill:#05325A;}
	.st262{clip-path:url(#SVGID_00000149367639583385972390000009086025345145363605_);fill:#05335B;}
	.st263{clip-path:url(#SVGID_00000149367639583385972390000009086025345145363605_);fill:#05345C;}
	.st264{clip-path:url(#SVGID_00000149367639583385972390000009086025345145363605_);fill:#05355C;}
	.st265{clip-path:url(#SVGID_00000149367639583385972390000009086025345145363605_);fill:#05375D;}
	.st266{clip-path:url(#SVGID_00000149367639583385972390000009086025345145363605_);fill:#05385E;}
	.st267{clip-path:url(#SVGID_00000149367639583385972390000009086025345145363605_);fill:#05395E;}
	.st268{clip-path:url(#SVGID_00000149367639583385972390000009086025345145363605_);fill:#043A5F;}
	.st269{clip-path:url(#SVGID_00000149367639583385972390000009086025345145363605_);fill:#043B5F;}
	.st270{clip-path:url(#SVGID_00000149367639583385972390000009086025345145363605_);fill:#043D60;}
	.st271{clip-path:url(#SVGID_00000149367639583385972390000009086025345145363605_);fill:#043E61;}
	.st272{clip-path:url(#SVGID_00000149367639583385972390000009086025345145363605_);fill:#043F61;}
	.st273{clip-path:url(#SVGID_00000149367639583385972390000009086025345145363605_);fill:#044062;}
	.st274{clip-path:url(#SVGID_00000149367639583385972390000009086025345145363605_);fill:#044162;}
	.st275{clip-path:url(#SVGID_00000149367639583385972390000009086025345145363605_);fill:#044263;}
	.st276{clip-path:url(#SVGID_00000149367639583385972390000009086025345145363605_);fill:#034364;}
	.st277{clip-path:url(#SVGID_00000149367639583385972390000009086025345145363605_);fill:#034464;}
	.st278{clip-path:url(#SVGID_00000149367639583385972390000009086025345145363605_);fill:#034565;}
	.st279{clip-path:url(#SVGID_00000149367639583385972390000009086025345145363605_);fill:#034665;}
	.st280{clip-path:url(#SVGID_00000149367639583385972390000009086025345145363605_);fill:#034766;}
	.st281{clip-path:url(#SVGID_00000149367639583385972390000009086025345145363605_);fill:#034866;}
	.st282{clip-path:url(#SVGID_00000149367639583385972390000009086025345145363605_);fill:#034967;}
	.st283{clip-path:url(#SVGID_00000149367639583385972390000009086025345145363605_);fill:#034A67;}
	.st284{clip-path:url(#SVGID_00000149367639583385972390000009086025345145363605_);fill:#024B68;}
	.st285{clip-path:url(#SVGID_00000149367639583385972390000009086025345145363605_);fill:#024C68;}
	.st286{clip-path:url(#SVGID_00000149367639583385972390000009086025345145363605_);fill:#024D69;}
	.st287{clip-path:url(#SVGID_00000149367639583385972390000009086025345145363605_);fill:#024E69;}
	.st288{clip-path:url(#SVGID_00000149367639583385972390000009086025345145363605_);fill:#024F6A;}
	.st289{clip-path:url(#SVGID_00000149367639583385972390000009086025345145363605_);fill:#02506B;}
	.st290{clip-path:url(#SVGID_00000149367639583385972390000009086025345145363605_);fill:#02516B;}
	.st291{clip-path:url(#SVGID_00000149367639583385972390000009086025345145363605_);fill:#02526C;}
	.st292{clip-path:url(#SVGID_00000149367639583385972390000009086025345145363605_);fill:#02536C;}
	.st293{clip-path:url(#SVGID_00000149367639583385972390000009086025345145363605_);fill:#02536D;}
	.st294{clip-path:url(#SVGID_00000149367639583385972390000009086025345145363605_);fill:#01546D;}
	.st295{clip-path:url(#SVGID_00000149367639583385972390000009086025345145363605_);fill:#01556D;}
	.st296{clip-path:url(#SVGID_00000149367639583385972390000009086025345145363605_);fill:#01566E;}
	.st297{clip-path:url(#SVGID_00000149367639583385972390000009086025345145363605_);fill:#01576F;}
	.st298{clip-path:url(#SVGID_00000149367639583385972390000009086025345145363605_);fill:#01586F;}
	.st299{clip-path:url(#SVGID_00000149367639583385972390000009086025345145363605_);fill:#015970;}
	.st300{clip-path:url(#SVGID_00000149367639583385972390000009086025345145363605_);fill:#015A70;}
	.st301{clip-path:url(#SVGID_00000149367639583385972390000009086025345145363605_);fill:#015B71;}
	.st302{clip-path:url(#SVGID_00000149367639583385972390000009086025345145363605_);fill:#015C71;}
	.st303{clip-path:url(#SVGID_00000149367639583385972390000009086025345145363605_);fill:#015C72;}
	.st304{clip-path:url(#SVGID_00000149367639583385972390000009086025345145363605_);fill:#005D72;}
	.st305{clip-path:url(#SVGID_00000149367639583385972390000009086025345145363605_);fill:#005E72;}
	.st306{clip-path:url(#SVGID_00000149367639583385972390000009086025345145363605_);fill:#005E73;}
	.st307{clip-path:url(#SVGID_00000149367639583385972390000009086025345145363605_);fill:#005F73;}
	.st308{clip-path:url(#SVGID_00000149367639583385972390000009086025345145363605_);fill:#006073;}
	.st309{clip-path:url(#SVGID_00000149367639583385972390000009086025345145363605_);fill:#006074;}
	.st310{clip-path:url(#SVGID_00000149367639583385972390000009086025345145363605_);fill:#006174;}
	.st311{fill:url(#SVGID_00000047749955052778336670000015695070362035734932_);}
	.st312{fill:url(#SVGID_00000124126344002580892610000003929924745123105708_);}
	.st313{fill:#282A58;}
</style>
<g id="Layer_1">
</g>
<g id="Layer_2">
</g>
<g id="Layer_3">
</g>
<g id="Layer_4">
</g>
<g id="Layer_5">
</g>
<g id="Layer_6">
</g>
<g id="Layer_7">
</g>
<g id="Layer_8">
</g>
<g id="Layer_9">
</g>
<g id="Layer_10">
</g>
<g id="Layer_11">
</g>
<g id="Layer_12">
</g>
<g id="Layer_13">
</g>
<g id="Layer_14">
</g>
<g id="Layer_15">
	<g>
		<radialGradient id="SVGID_1_" cx="174.425" cy="53.9067" r="43.899" gradientUnits="userSpaceOnUse">
			<stop  offset="0" style="stop-color:#006077"/>
			<stop  offset="0.5053" style="stop-color:#005F75"/>
			<stop  offset="0.6873" style="stop-color:#015C6E"/>
			<stop  offset="0.817" style="stop-color:#025763"/>
			<stop  offset="0.9211" style="stop-color:#034F52"/>
			<stop  offset="1" style="stop-color:#05473F"/>
		</radialGradient>
		<path class="st37" d="M175.59,69.5c0.08,0.01,0.15,0.02,0.23,0.03c0.18,0.02,0.36,0.02,0.54,0.03c0.54,0.03,6.34,2.14,6.96,2.53
			c0.03,0.22,0.06,0.45,0.1,0.67c-2.58,4.02-5.25,7.98-8,11.89c-0.02-2.7-0.01-5.4,0.02-8.1C175.86,75.92,175.6,70.63,175.59,69.5z
			 M175.43,58.77c-0.03,5.92-0.08,11.86,0.01,17.78c0.42-0.63,0.16-5.91,0.15-7.04c0.08,0.01,0.15,0.02,0.23,0.03
			c0.18,0.02,0.36,0.02,0.54,0.03c0.54,0.03,6.34,2.14,6.96,2.53c0.03,0.22,0.06,0.45,0.1,0.67c0.26-0.37,0.47-0.79,0.7-1.18
			c1.21-1.31,2.1-3.17,3.18-4.62c-1.33-2.57-4.12-6.16-5.83-8.69c-1.96-2.9-3.84-6.26-6.04-8.96
			C175.61,52.43,175.45,55.64,175.43,58.77z M130.4,42.3c-0.52,0.56-1.03,1.14-1.52,1.73c-0.5,0.59-0.98,1.18-1.45,1.79
			c-0.47,0.61-0.93,1.22-1.37,1.85c-0.44,0.63-0.87,1.26-1.29,1.91c-0.42,0.65-0.82,1.3-1.2,1.96c-0.39,0.66-0.76,1.33-1.12,2.01
			c-0.36,0.68-0.7,1.37-1.03,2.06c-0.33,0.69-0.64,1.39-0.94,2.1c5.19-2.39,10.66-3.66,16.34-4.21c0.03-0.02,0.07-0.05,0.1-0.07
			c2.13-1.59,3.94-4,6.11-5.73c9.48-7.59,20.48-11.85,32.69-11.61c14.52,0.24,26.16,6.51,36.1,16.72c0.09,0.09,0.18,0.19,0.26,0.28
			c5.69,0.98,10.92,2.62,16.28,4.75c-5.78-13.98-17.24-24.53-31.14-30.28c-7.32-3.03-15.88-4.73-23.82-4.34
			C156.9,23.8,141.74,30.12,130.4,42.3z"/>
		
			<radialGradient id="SVGID_00000005255919962997887190000013906311234205993894_" cx="174.7318" cy="94.9664" r="81.1585" gradientUnits="userSpaceOnUse">
			<stop  offset="0" style="stop-color:#006077"/>
			<stop  offset="0.5053" style="stop-color:#005F75"/>
			<stop  offset="0.6873" style="stop-color:#015C6E"/>
			<stop  offset="0.817" style="stop-color:#025763"/>
			<stop  offset="0.9211" style="stop-color:#034F52"/>
			<stop  offset="1" style="stop-color:#05473F"/>
		</radialGradient>
		<path style="fill:url(#SVGID_00000005255919962997887190000013906311234205993894_);" d="M148.75,162.17
			c0.33-0.01,0.69-0.01,1.01,0.08c0.58,0.17,1.16,0.62,1.46,1.14c0.04,0.06,0.07,0.13,0.1,0.19c0.03,0.07,0.05,0.13,0.08,0.2
			c0.02,0.07,0.04,0.14,0.06,0.21c0.02,0.07,0.03,0.14,0.03,0.21c0.01,0.07,0.01,0.14,0.01,0.21c0,0.07,0,0.14-0.01,0.21
			c-0.01,0.07-0.02,0.14-0.03,0.21c-0.01,0.07-0.03,0.14-0.05,0.21c-0.25,0.8-0.86,1.18-1.57,1.53c-0.4,0.01-0.86-0.03-1.25-0.13
			c-0.56-0.15-1.08-0.62-1.36-1.12c-0.29-0.52-0.34-1.1-0.13-1.67C147.39,162.85,148.01,162.5,148.75,162.17z M197.73,163.97
			c-0.02,0.07-0.04,0.14-0.05,0.2c-0.01,0.07-0.02,0.14-0.03,0.21c-0.01,0.07-0.01,0.14-0.01,0.21c0,0.07,0.01,0.14,0.01,0.21
			c0.01,0.07,0.02,0.14,0.03,0.21c0.02,0.07,0.03,0.14,0.06,0.2c0.02,0.07,0.05,0.13,0.08,0.2c0.03,0.06,0.06,0.13,0.1,0.19
			c0.3,0.51,0.88,0.95,1.46,1.1c0.33,0.09,0.71,0.09,1.05,0.09c0.7-0.27,1.28-0.58,1.62-1.28c0.03-0.06,0.06-0.13,0.08-0.2
			c0.02-0.07,0.05-0.14,0.06-0.21c0.02-0.07,0.03-0.14,0.04-0.21c0.01-0.07,0.02-0.14,0.02-0.21c0-0.07,0-0.14-0.01-0.21
			c-0.01-0.07-0.01-0.14-0.03-0.21c-0.01-0.07-0.03-0.14-0.05-0.21c-0.02-0.07-0.04-0.14-0.07-0.2c-0.03-0.08-0.07-0.15-0.11-0.23
			c-0.04-0.07-0.08-0.15-0.13-0.21c-0.05-0.07-0.1-0.14-0.15-0.2c-0.05-0.06-0.11-0.13-0.17-0.18c-0.06-0.06-0.12-0.11-0.19-0.17
			c-0.07-0.05-0.13-0.1-0.2-0.15c-0.07-0.05-0.14-0.09-0.22-0.13s-0.15-0.07-0.23-0.1c-0.44-0.17-0.87-0.18-1.34-0.18
			C198.63,162.71,197.99,163.13,197.73,163.97z M175.59,69.5l-0.02-0.66l-0.11,0.24l0.34-0.24c0.04,0.04,0.07,0.09,0.11,0.12
			c0.21,0.17,0.31,0.16,0.55,0.2c0.67,0.12,6.54,2.22,7.26,2.59l0.21-0.16l0.19-0.01c-0.23,0.39-0.44,0.81-0.7,1.18
			c-0.04-0.22-0.07-0.45-0.1-0.67c-0.62-0.39-6.42-2.5-6.96-2.53c-0.18-0.01-0.36-0.01-0.54-0.03
			C175.74,69.52,175.67,69.51,175.59,69.5z M168.81,57.1c-2.21,3.24-4.63,6.46-6.66,9.82c2.28,3.72,4.75,7.59,7.39,11.07
			c1.64,2.44,3.33,4.85,5.06,7.23l0-27.09c0-1.92,0.3-7.77-0.03-9.28C172.43,51.34,170.65,54.4,168.81,57.1z M116.55,65.07
			c-4.38,5.57-5.33,13.2-4.49,20.05l0.11,0.88c1.7-1.93,3.27-3.93,5.13-5.72c3.67-3.53,7.73-6.65,11.33-10.25
			c3.88-3.89,7.24-8.3,10.53-12.69c0.61-0.82,2.17-2.44,2.38-3.39l-0.11-0.06C132.38,54.96,122.42,57.59,116.55,65.07z
			 M214.08,63.76c2.85,3.92,6.34,7.75,10.19,10.67c2.38,1.8,4.96,3.34,7.39,5.06c1.09,0.77,2.13,1.6,3.12,2.49
			c0.65,0.58,1.34,1.35,2.08,1.8c0.03-6.54-0.46-15.64-5.36-20.59c-5.28-5.33-16.91-9.22-24.54-9.56
			C209.56,56.86,211.65,60.42,214.08,63.76z M123.86,77.19c-5.56,5.49-10.11,10.85-10.21,19.11c-0.06,4.86,1.46,9.22,3.59,13.51
			c0.61,1.21,1.19,2.43,2.01,3.5c0.61-4.24,2.41-8.35,4.22-12.21c4.03-8.61,7.14-15.44,7.15-25.28c0-1.11,0.22-3.65-0.32-4.58
			c-0.04-0.07-0.1-0.12-0.16-0.19C128.04,73.09,125.94,75.13,123.86,77.19z M97.78,76.4c1.38,4.01,3.75,7.97,6.66,11.06l0.45,0.42
			l0.23-0.05c0.25-0.69,0.13-1.49,0.25-2.22c0.3-1.87,0.63-3.74,0.97-5.6c0.7-3.79,1.67-7.62,1.85-11.48
			c0.35-7.67-3.57-18.29-6.84-25.26c-0.21-0.46-0.39-0.89-0.74-1.26C95.58,52.23,94.04,65.58,97.78,76.4z M222.22,94.17
			c2.6,6.55,6.89,12.56,8,19.62c0.76-1.38,1.34-2.83,1.94-4.27c2.66-6.37,5.35-14.33,2.61-21.09c-2.54-6.28-8.57-11.32-13.9-15.28
			c-0.99-0.74-2.12-1.76-3.23-2.29C218.46,78.81,219.25,86.66,222.22,94.17z M241.91,100.41c-0.92,3.4-1.68,6.82-2.75,10.17
			c-0.35,1.11-1.53,3.88-1.47,4.89l0.11,0.11c8.44-2.35,14.8-9.3,19-16.74c3.28-5.81,5.42-12.46,6.9-18.94
			c0.2-0.87,0.73-2.42,0.5-3.24l-0.12-0.1C255.1,81.73,244.73,89.97,241.91,100.41z M241.32,66.26c-0.1,1.62-0.11,3.23-0.01,4.85
			c0.09,1.62,0.28,3.22,0.57,4.82c0.44,2.54,1.18,5.01,1.75,7.51c0.35,1.52,0.58,4.08,1.22,5.39c0.39,0.05,0.36-0.02,0.67-0.23
			c6.61-6.93,8.52-15.57,8.3-24.88c-0.15-6.2-1.48-12.55-3.32-18.45c-0.31-1.01-0.73-2.6-1.39-3.41
			C244.95,47.74,241.81,59.02,241.32,66.26z M124.31,118.66c1.66,5.78,6.01,10.68,10.7,14.31c1.6,1.33,3.21,2.67,4.95,3.82
			c-1.34-3.99-2.61-8.21-3.09-12.4c-0.51-4.46-0.24-8.94-0.34-13.41c-0.12-5.71-1.3-11.55-3.23-16.92c-0.37-1.04-0.88-3.07-1.6-3.82
			C126.94,98.74,121.43,108.62,124.31,118.66z M86.65,83.28c2.59,10.07,7.29,20.34,15.73,26.83c3.03,2.33,7.38,5.22,10.99,6.38
			c-5.65-14.14-7.15-26.54-21.13-35.75c-2.11-1.39-4.35-2.91-6.68-3.89c-0.11-0.05-0.23-0.09-0.35-0.13
			C85.49,78.93,86.1,81.12,86.65,83.28z M212.74,110.77c-0.39,2.97-0.57,5.96-0.56,8.96c0.05,6.7,0.7,10.59-2.31,16.96
			c1.6-1.12,3.2-2.23,4.73-3.44c5.92-4.98,11.48-11.56,12.14-19.6c0.52-6.4-2.59-12.53-5.49-18.04c-0.68-1.29-1.41-3.07-2.35-4.14
			c-0.11-0.13-0.14-0.14-0.26-0.22C216.04,97.61,213.62,103.9,212.74,110.77z M178.97,80.56c-1.22,1.76-2.52,3.48-3.61,5.32
			c-0.02,2.76,0.25,14.17-0.43,16.16c2.45-1.6,4.73-3.56,6.9-5.53c8.39-7.95,15.1-18.19,18.07-29.44c-4.01-0.03-8.03-0.14-12.03-0.1
			C185.35,71.46,181.91,76.29,178.97,80.56z M163.52,92.22c2.02,2.27,4.26,4.33,6.58,6.28c1.27,1.07,2.64,2.29,4.06,3.14
			c0.1,0.06,0.21,0.11,0.31,0.16c0.01-5.21,0.12-10.43,0.06-15.64c-2.65-3.45-5.02-7.1-7.47-10.69c-1.87-2.74-3.91-5.46-5.56-8.33
			c-4.07-0.17-8.21-0.16-12.28-0.1C151.14,75.33,157.88,85.88,163.52,92.22z M89.78,114.49c5.52,7.67,11.9,15.24,20.41,19.7
			c5.78,3.03,15.49,5.06,22.06,5.19c-1.11-1.16-2.43-2.17-3.63-3.24c-1.41-1.27-2.78-2.59-4.11-3.94c-2.63-2.68-5.08-5.59-7.8-8.17
			c-8.47-8.02-18.84-12.65-30.25-14.65C86.93,110.9,88.82,113.16,89.78,114.49z M204.8,114.68c-8.2,9.34-14.9,16.19-18.54,28.52
			c-0.53,1.79-1.1,3.63-1.42,5.47l0.09,0.2c8.37-1.9,17.35-6.37,22.06-13.82c4.45-7.05,3.76-13.24,3.92-21.08
			c0.03-1.53,0.41-5.07,0.29-6.29c-0.02-0.17-0.08-0.32-0.18-0.46C208.75,109.42,206.92,112.28,204.8,114.68z M248.6,112.86
			c-6.73,2.67-13.12,7.33-17.97,12.67c-2.71,2.98-5.06,6.27-7.74,9.26c-1.47,1.64-3.14,3.04-4.7,4.58l0,0.18
			c3.1,0,6.23-0.09,9.27-0.73c8.42-1.78,17.2-7.2,23.28-13.27c4.25-4.24,7.98-9.27,11.02-14.43c0.34-0.58,1.08-1.54,1.09-2.18
			C258.16,109.9,253.06,111.09,248.6,112.86z M143.62,135.64c5.07,7.14,12.72,10.89,20.87,13.31l0.45,0.08
			c0.41-0.84-1.78-6.83-2.21-8.09c-2.19-6.45-5.18-12.82-9.68-17.99c-2.37-2.73-5.08-5.12-7.58-7.71c-2.23-2.31-4.23-4.83-6.12-7.43
			C137.7,117.56,137.63,127.21,143.62,135.64z M102.65,141.44c8.81,7.49,22.96,14.03,34.46,15.57c3.04,0.41,6.06,0.39,9.11,0.21
			c4.09-0.57,8.09-1.51,11.16-4.46c-4.38-1.18-8.63-2.95-12.66-5.02c-2.41-1.24-4.77-2.64-7.25-3.75
			c-7.17-3.22-15.53-3.76-23.31-3.48C110.31,140.64,106.49,140.9,102.65,141.44z M216.26,142.56c-4.28,1.43-8.12,3.57-12.14,5.56
			c-3.69,1.83-7.74,3.58-11.71,4.7c5.01,4.31,12.53,4.74,18.87,4.45c10.37-0.41,20.45-5.11,28.91-10.89
			c1.96-1.34,4.02-2.76,5.77-4.36c-5.49-0.83-13.16-2.25-18.61-1.53C223.6,140.8,219.84,141.36,216.26,142.56z M139.76,78.41
			c0.24,0.69,0.49,1.38,0.75,2.07c0.26,0.69,0.53,1.37,0.82,2.04c0.28,0.68,0.58,1.35,0.89,2.01c0.31,0.67,0.63,1.33,0.96,1.98
			c0.33,0.66,0.67,1.31,1.02,1.95c0.35,0.64,0.71,1.28,1.09,1.91c0.37,0.63,0.76,1.26,1.15,1.88s0.8,1.23,1.21,1.84
			c0.42,0.61,0.84,1.2,1.28,1.79c0.44,0.59,0.88,1.17,1.34,1.75c0.46,0.58,0.92,1.14,1.39,1.7c0.47,0.56,0.96,1.11,1.45,1.65
			c0.49,0.54,0.99,1.08,1.51,1.61c0.51,0.53,1.03,1.04,1.56,1.55c0.53,0.51,1.07,1.01,1.61,1.5c0.55,0.49,1.1,0.97,1.66,1.44
			c4.57,3.9,9.72,7.63,15.09,10.33c2.96-1.48,5.72-3.36,8.44-5.25c12.03-8.37,21.59-19.57,26.3-33.59c0.62-1.87,1.18-3.75,1.7-5.66
			c0.43-1.98,0.75-3.94,1.03-5.95l-5.72,0c-0.63,3.47-1.32,6.9-2.47,10.24c-4.06,11.87-12.4,22.33-22.68,29.45
			c-2.05,1.42-4.19,2.74-6.3,4.07c-16.13-10.14-27.26-22.31-31.59-41.3c-0.19-0.82-0.35-1.64-0.5-2.46c-1.86-0.01-3.73,0-5.6-0.04
			C137.44,70.88,138.47,74.7,139.76,78.41z M110.97,48.52c-1.23,5.62-0.67,11.26,0.76,16.78l1.98-2.15
			c-6.29,9.26-7.34,24.22-5.27,35c2.52,13.17,8.9,24.16,17.97,33.84c3.8,4.05,7.92,7.75,12.52,10.86
			c9.56,6.46,21.54,10.21,32.94,11.52c-5.72,2.42-10.62,3.68-15.64,7.73c2.69-0.87,5.27-2.08,7.91-3.08
			c3.51-1.33,7.28-2.48,10.92-3.42c4.05,0.93,8.34,2.45,12.18,4.05c2.12,0.89,4.2,1.91,6.35,2.74c-2.87-2.44-5.91-4.2-9.39-5.63
			c-1.75-0.72-3.62-1.34-5.26-2.3c5.6-1.13,11.22-2.27,16.64-4.12c0.45-0.16,0.9-0.32,1.35-0.49c0.45-0.17,0.89-0.34,1.33-0.51
			c0.44-0.18,0.88-0.36,1.32-0.54c0.44-0.18,0.88-0.37,1.31-0.57c0.44-0.19,0.87-0.39,1.3-0.59c0.43-0.2,0.86-0.41,1.29-0.62
			c0.43-0.21,0.85-0.43,1.28-0.65c0.42-0.22,0.84-0.44,1.26-0.67c0.42-0.23,0.83-0.46,1.25-0.7c0.41-0.24,0.82-0.48,1.23-0.72
			c0.41-0.25,0.81-0.49,1.22-0.75c0.4-0.25,0.8-0.51,1.2-0.77c0.4-0.26,0.79-0.53,1.19-0.8c0.39-0.27,0.78-0.54,1.17-0.82
			c0.39-0.28,0.77-0.56,1.15-0.85c0.38-0.29,0.76-0.58,1.14-0.87c0.38-0.29,0.75-0.59,1.12-0.89c0.37-0.3,0.74-0.61,1.1-0.91
			c0.36-0.31,0.72-0.62,1.08-0.94c0.36-0.32,0.71-0.64,1.06-0.96c0.35-0.32,0.7-0.65,1.04-0.98c0.34-0.33,0.68-0.66,1.02-1
			c0.34-0.34,0.67-0.68,1-1.02c0.33-0.34,0.66-0.69,0.98-1.04c0.32-0.35,0.64-0.71,0.96-1.06c0.32-0.36,0.63-0.72,0.93-1.08
			c0.31-0.36,0.61-0.73,0.91-1.1c0.3-0.37,0.6-0.74,0.89-1.12c0.29-0.38,0.58-0.76,0.87-1.14c0.28-0.38,0.57-0.77,0.84-1.15
			c0.28-0.39,0.55-0.78,0.82-1.17c0.27-0.39,0.53-0.79,0.79-1.19c8.95-13.44,12.89-30.87,9.67-46.79c-0.9-4.43-2.1-8.81-4.1-12.88
			c0.47,0.1,0.72,0.24,1.21,0.14c0.24-0.35,0.35-0.6,0.46-1.02c2.2-8.28,0.95-15.51-3.34-22.93c-0.38-0.66-0.77-1.3-1.18-1.94
			c-0.41-0.64-0.83-1.26-1.28-1.87c-0.44-0.61-0.9-1.22-1.37-1.81c-0.47-0.59-0.96-1.17-1.46-1.73c-0.5-0.56-1.02-1.12-1.55-1.65
			c-0.53-0.54-1.08-1.06-1.63-1.57c-0.56-0.51-1.13-1-1.71-1.48c-0.58-0.48-1.18-0.94-1.79-1.39c-0.87-0.63-1.8-1.35-2.76-1.83
			c0.07,10.92,3.76,21.91,9.77,31c0.74,1.12,1.48,2.26,2.33,3.3c0.89,1.1,2.3,2.34,2.95,3.54c0.38,0.7,2.03,7.57,2.33,8.81
			c5.33,21.84-2.31,45.01-17.91,60.83c-9.88,10.02-23.01,16.46-36.82,18.9c-2.58,0.46-5.3,0.96-7.92,0.97
			c-3.73,0.01-7.67-0.85-11.28-1.72c-13.24-3.19-24.62-8.94-34.31-18.65c-12.38-12.41-19.21-28.33-19.17-45.91
			c0.01-6.06,0.81-11.65,2.51-17.47c0.43-1.48,0.84-3.03,1.46-4.45c0.75-1.72,2.16-3.24,3.26-4.75c1.07-1.48,2.08-3.01,3.08-4.54
			c4.99-7.68,8.04-16.16,8.82-25.31c0.14-1.63,0.42-3.61,0.13-5.21l-0.2-0.11C121.04,28.32,113.03,39.15,110.97,48.52z"/>
	</g>
</g>
</svg>
