<?xml version="1.0" encoding="utf-8"?>
<!-- Generator: Adobe Illustrator 27.8.1, SVG Export Plug-In . SVG Version: 6.00 Build 0)  -->
<svg version="1.1" id="Layer_1" xmlns="http://www.w3.org/2000/svg" xmlns:xlink="http://www.w3.org/1999/xlink" x="0px" y="0px"
	 viewBox="0 0 350 230" style="enable-background:new 0 0 350 230;" xml:space="preserve">
<style type="text/css">
	.st0{fill:#FFFFC5;}
	.st1{fill:#D2FFF1;}
	.st2{fill:#E7FFCF;}
	.st3{fill:#EBFFFF;}
	.st4{fill:#FCE9FF;}
	.st5{fill:#F0FBFF;}
	.st6{fill:#FEFFE9;}
	.st7{fill:#F3FFEE;}
	.st8{fill:#FFFCEE;}
	.st9{fill:#FFFFEE;}
	.st10{fill:#EEFFF1;}
	.st11{fill:#2F2F3F;}
	.st12{fill:#02028C;}
	.st13{fill:#F5F5F5;}
	.st14{fill:#023C44;}
	.st15{fill:#022231;}
	.st16{fill:#FFFFFF;}
	.st17{fill:#53C2BB;}
	.st18{fill:#FF680D;}
	.st19{fill:#00EDFF;}
	.st20{fill:#213000;}
	.st21{fill:#FFB034;}
	.st22{fill:#00556A;}
	.st23{fill:#380C00;}
	.st24{fill:#00556A;stroke:#FFFFFF;stroke-width:0.5;stroke-miterlimit:10;}
	.st25{fill:#D40B00;}
	.st26{fill:#494949;}
	.st27{fill:#259AAB;}
	.st28{fill:#3DAEB7;}
	.st29{fill:#065652;}
	.st30{fill:#A8C6E9;}
	.st31{fill:#3F0101;}
	.st32{fill:#80C445;}
	.st33{fill:#F4D4AE;}
	.st34{fill:#E95454;}
	.st35{fill:#760689;}
	.st36{fill:#DEBFFF;}
	.st37{fill:url(#SVGID_1_);}
	.st38{fill:url(#SVGID_00000087373146941367716190000011908029469127564187_);}
	.st39{fill:url(#_x3C_Compound_Path_x3E__Music_Icon_00000105391654241490831430000018390574439451124918_);}
	.st40{opacity:0.3;fill:url(#_x3C_Compound_Path_x3E__Music_Shades_00000166642493315077587780000015674737532713670303_);}
	.st41{opacity:0.8;fill:#FFFFFF;}
	.st42{fill:#293767;}
	.st43{fill:#F5F5F6;}
	.st44{fill:#021284;}
	.st45{fill:#751616;}
	.st46{fill:url(#SVGID_00000077316411345801717020000004842576294075583369_);}
	.st47{fill:#0000A2;}
	.st48{fill:#00833F;}
	.st49{fill:#6B1800;}
	.st50{fill:#7A0334;}
	.st51{fill:#002066;}
	.st52{fill:#5E5700;}
	.st53{fill:#350033;}
	.st54{fill:#875F74;}
	.st55{fill:#003035;}
	.st56{fill:#3659FF;}
	.st57{fill:#9B8F00;}
	.st58{fill:#4C1200;}
	.st59{fill:#016A72;}
	.st60{fill:#FF0000;}
	.st61{fill:#005C68;}
	.st62{fill:#4A0075;}
	.st63{fill:url(#SVGID_00000016069853454297570340000002417396398920407454_);}
	.st64{fill:#228DC9;}
	.st65{fill:#551700;}
	.st66{fill:#C10073;}
	.st67{fill:#00C2E0;}
	.st68{fill:#012F4C;}
	.st69{fill:#300018;}
	.st70{fill-rule:evenodd;clip-rule:evenodd;fill:#6D3C5B;}
	.st71{fill-rule:evenodd;clip-rule:evenodd;fill:#020242;}
	.st72{fill:#00E1FF;}
	.st73{fill:#680040;}
	.st74{fill:#8E8700;}
	.st75{fill:#220247;}
	.st76{fill:#0086FF;}
	.st77{fill:#7C4F00;}
	.st78{fill:#520000;}
	.st79{fill:url(#SVGID_00000016770211409044469500000009627314466888482229_);}
	.st80{fill:#04A8CB;}
	.st81{fill:#18618B;}
	.st82{fill:#958C00;}
	.st83{fill:#B0261C;}
	.st84{fill:#296262;}
	.st85{fill:#5C5E00;}
	.st86{fill:#55B1C8;}
	.st87{fill:#918C34;}
	.st88{fill:#590068;}
	.st89{fill:#F94351;}
	.st90{fill:#9B001A;}
	.st91{fill:#000066;}
	.st92{fill:#636568;}
	.st93{fill:#002544;}
	.st94{fill:#723300;}
	.st95{fill:url(#SVGID_00000003815562547082236340000009475387192689803442_);}
	.st96{fill:#F393BD;}
	.st97{fill:url(#SVGID_00000134941524331625513590000003246764950688117176_);}
	.st98{fill:#011354;}
	.st99{fill:#38011B;}
	.st100{fill-rule:evenodd;clip-rule:evenodd;fill:#2365A6;}
	.st101{fill:#351B01;}
	.st102{fill-rule:evenodd;clip-rule:evenodd;fill:#351B01;}
	.st103{fill:#008294;}
	.st104{fill:#02484C;}
	.st105{fill:none;stroke:#02484C;stroke-width:4;stroke-miterlimit:10;}
	.st106{fill:#8E0073;}
	.st107{fill:#013147;}
	.st108{fill:#CD11A1;}
	.st109{fill:#750000;}
	.st110{fill:#020242;}
	.st111{fill:#FFB000;}
	.st112{fill:#340038;}
	.st113{fill:#54004C;}
	.st114{fill:#020202;}
	.st115{fill:url(#SVGID_00000007388602227122201640000016727956794574794669_);}
	.st116{fill:#490000;}
	.st117{fill:#9B001E;}
	.st118{fill:#3A0603;}
	.st119{fill:#31E7FF;}
	.st120{fill:#F5F5F5;stroke:#404040;stroke-width:2;stroke-miterlimit:10;}
	.st121{fill:#49BDC9;}
	.st122{fill:none;stroke:#FFFFFF;stroke-miterlimit:10;}
</style>
<g>
	<path class="st31" d="M96.42,103.17c1.3-1.04,2.77-1.89,4.33-2.46l0,1.8c-0.35,0.5-0.81,0.6-1.39,0.71
		c-0.8,0.14-2.03,0.38-2.81,0.17L96.42,103.17z M97.19,126.9c1.2-0.96,2.26-2.12,3.59-2.92l0,4.9
		C99.51,128.36,98.28,127.75,97.19,126.9z M96.42,103.17l0.13,0.22c0.78,0.21,2.01-0.03,2.81-0.17c0.58-0.1,1.04-0.21,1.39-0.71
		l0.02,21.47c-1.33,0.8-2.39,1.96-3.59,2.92c-1.01-0.78-1.91-1.66-2.72-2.65c-2.61-3.2-3.81-7.41-3.37-11.51
		C91.5,109.03,93.51,105.49,96.42,103.17z M249.26,100.6c1.77,0.56,3.43,1.7,4.78,2.93c2.93,2.66,4.74,6.53,4.92,10.49
		c0.19,4.06-1.2,8.01-3.94,11.01c-1.68,1.77-3.61,2.98-5.83,3.96l0.06-18.92C249.26,106.92,249.18,103.75,249.26,100.6z
		 M159.48,95.32c0.03,0.05,0.06,0.09,0.09,0.14c0.43,0.68,0.27,1.2,0.21,1.94l-0.03-0.05c0.65,0.2,1.87-0.42,2.53-0.61
		c-0.04,0.04-0.08,0.09-0.12,0.13c-0.46,0.47-2.07,0.52-2.04,1.25c0.03,0.71,0.53,1.4,0.18,2.09
		C160.01,98.58,159.71,96.95,159.48,95.32z M184.58,110.15c-0.01,0.05-0.01,0.1-0.02,0.15c-0.03,0.22-0.26,0.47-0.28,0.62
		c-0.01,0.15,0.6,1.16,0.7,1.35c0.55,1.05,1.27,2.02,1.8,3.07c0.27,0.53,0.4,1.2,0.69,1.69c0.03,0.05,0.07,0.08,0.1,0.12
		c0.23-0.21,0.33-0.38,0.64-0.42c-1.21,1.5-3.29,2.84-4.32,4.22c-0.85-1.31-1.38-2.81-1.47-4.37
		C182.28,114.29,183.05,111.88,184.58,110.15z M171.92,85.17c1.59-0.25,2.6-1.02,4.01-1.69c2.44-1.15,6.49-1.54,9.1-1
		c-1.3,1.13-2.97,2.46-3.96,3.86c-1.73,0.17-3.33,0.55-4.96,1.16c-1.15,0.43-2.28,0.96-3.47,1.24
		C172.3,87.61,172.14,86.36,171.92,85.17z M164.19,95.47c0.54,2.54,0.97,5.1,1.41,7.66c0.25,1.46,0.45,2.98,0.82,4.41
		c-1.45,1.33-2.57,3.1-4.1,4.32c-0.28-1.26-0.45-2.56-0.67-3.83c-0.46-2.61-0.93-5.21-1.35-7.83c0.35-0.69-0.15-1.38-0.18-2.09
		c-0.03-0.73,1.58-0.77,2.04-1.25c0.04-0.04,0.08-0.09,0.12-0.13c0.42-0.3,1-0.35,1.45-0.59C164.08,95.96,164.09,95.82,164.19,95.47
		z M185.03,82.49c5.12,0.73,10.04,3.74,13.14,7.86c0.56,0.74,1.38,1.82,1.62,2.72c0,0.04-0.01,0.09-0.01,0.13
		c0.01,0.4,0.53,1.03,0.34,1.39c-0.31-0.36-0.73-0.44-1.2-0.48c-0.64-0.06-2.44,0.58-2.8,0.09c-0.04-0.05-0.06-0.11-0.09-0.16
		c-0.12-0.19-0.2-0.24-0.4-0.34c-0.68-1-1.41-1.94-2.28-2.79c-3.32-3.24-7.72-4.62-12.28-4.55
		C182.07,84.95,183.73,83.62,185.03,82.49z M190.61,114.45c0.44-0.16,0.67-0.4,0.99-0.73c0.62,2.78,2.04,5.3,3.54,7.7
		c0.32,0.52,1.11,1.21,1.23,1.77c0.04,0.19,0.01,0.3-0.09,0.46c-0.12,0.18-0.24,0.31-0.39,0.45c-0.04,0.03-0.09,0.06-0.13,0.09
		c-1.58,1.02-4.32,1.24-6.12,0.84c-2.41-0.53-4.41-2.03-5.73-4.08c1.03-1.39,3.11-2.72,4.32-4.22
		C189.04,116.01,189.82,115.22,190.61,114.45z M190.61,114.45c1.1-1.41,4.58-4.57,6.12-5.64l0.12,0.08c0.53,0.36,0.95,0.74,1.4,1.19
		c1.7,2.16,2.56,4.56,2.23,7.34c-0.26,2.22-1.37,4.41-3.16,5.79c-0.45,0.35-0.92,0.66-1.44,0.89c0.15-0.15,0.27-0.28,0.39-0.45
		c0.1-0.16,0.14-0.26,0.09-0.46c-0.12-0.56-0.9-1.25-1.23-1.77c-1.5-2.4-2.92-4.92-3.54-7.7
		C191.28,114.06,191.05,114.3,190.61,114.45z M199.79,93.07c1.82,2.81,2.12,7.18,1.45,10.39c-0.5,2.37-1.56,4.67-2.99,6.63
		c-0.45-0.45-0.87-0.84-1.4-1.19l-0.12-0.08c-1.54,1.06-5.03,4.23-6.12,5.64c-0.79,0.77-1.57,1.55-2.39,2.28
		c-0.31,0.04-0.41,0.22-0.64,0.42c-0.03-0.04-0.07-0.08-0.1-0.12c-0.29-0.49-0.42-1.17-0.69-1.69c-0.53-1.05-1.25-2.02-1.8-3.07
		c-0.1-0.19-0.71-1.21-0.7-1.35c0.02-0.15,0.24-0.4,0.28-0.62c0.01-0.05,0.01-0.1,0.02-0.15c0.83-1.09,2.09-1.97,3.35-2.51
		c2.62-1.13,5.02-0.88,7.6,0.17c0.6-1.2,1.13-2.53,1.51-3.81c1.1-3.69,0.4-7-1.41-10.3c0.19,0.1,0.28,0.15,0.4,0.34
		c0.03,0.05,0.05,0.11,0.09,0.16c0.36,0.49,2.17-0.15,2.8-0.09c0.47,0.05,0.89,0.12,1.2,0.48c0.18-0.36-0.34-0.98-0.34-1.39
		C199.77,93.16,199.78,93.11,199.79,93.07z M159.48,95.32c-0.47-1.23-0.69-3.96-0.94-5.4c-0.87-4.96-1.8-9.91-2.62-14.88
		c-0.14-0.86-0.21-1.61,0.35-2.35c0.42-0.55,1.01-0.85,1.68-0.91c3.07-0.3,2.62,4.96,3.32,7.07c0.56,1.7,1.57,3.17,2.95,4.32
		c2.27,1.89,4.83,2.26,7.7,2c0.22,1.18,0.38,2.43,0.72,3.59c-3.59,0.64-6.83,0.42-10.01-1.5l1.05,5.41c0.18,0.9,0.46,1.89,0.51,2.8
		c-0.09,0.35-0.1,0.49-0.45,0.67c-0.45,0.24-1.04,0.3-1.45,0.59c-0.65,0.19-1.88,0.81-2.53,0.61l0.03,0.05
		c0.07-0.74,0.23-1.26-0.21-1.94C159.54,95.41,159.51,95.36,159.48,95.32z M166.42,107.54l2.37,13.52c-1.98,1.5-3.67,3.51-5.45,5.24
		c-4.66,4.5-9.23,9.1-13.96,13.53c-0.26-0.39-0.48-0.8-0.7-1.22c-1.5-2.96-1.77-6.6-0.7-9.76c1.02-3.02,3.41-5.66,6.26-7.07
		c3.26-1.62,6.6-1.32,9.95-0.18c-0.89-3.16-1.35-6.51-1.87-9.74C163.84,110.64,164.97,108.88,166.42,107.54z M168.78,121.07
		l1.19,6.81c0.8,4.5,1.53,7.66-1.33,11.69c-1.89,2.67-4.85,4.54-8.09,5.06c-2.94,0.48-5.93-0.13-8.35-1.88
		c-1.1-0.8-2.03-1.81-2.82-2.92c4.72-4.44,9.29-9.03,13.96-13.53C165.12,124.58,166.81,122.57,168.78,121.07z"/>
	<path class="st32" d="M245.47,93.69c0.46,1.1,0.82,2.22,0.93,3.42c0.33,3.41,0.02,7.76,0.06,11.3l0.07,13.62
		c-0.01,2.66,0.05,5.38-0.16,8.03c-0.1,1.26-0.38,2.49-0.86,3.66c-0.22,0.54-0.49,1.13-0.84,1.6c-0.04-0.56,0.84-2.06,1.04-2.79
		c0.35-1.27,0.47-2.54,0.56-3.85c0.11-1.67,0.03-3.35,0.03-5.02l-0.01-8.23c0-1.47-0.16-3.11,0.04-4.56
		c0.03-0.21,0.06-0.35,0.01-0.56l-0.21-0.02c-1.28,0.98-2.4,2.31-3.55,3.44c-1.87,1.82-3.8,3.58-5.66,5.41
		c-0.01-0.42,1.78-1.99,2.14-2.45c-1.06-2.69-1.15-5.77-1.16-8.64c0-0.84,0.07-1.71,0.01-2.55c-0.09-1.23-0.6-2.39-0.57-3.65
		c-1.16,0.92-2.02,2.18-3.33,2.92c0.81-1.05,2.06-2.03,3.02-2.95C239.83,99.09,242.69,96.43,245.47,93.69z M108.24,138.71
		c1.99-1.96,19.07-18.82,19.64-19.03l0,6.8c0,4.4,0.23,8.27-3.17,11.65c-2.33,2.32-5.3,3.59-8.58,3.58
		C113.34,141.69,110.32,140.58,108.24,138.71z M237.33,101.84c-0.03,1.25,0.48,2.42,0.57,3.65c0.06,0.84-0.02,1.71-0.01,2.55
		c0.01,2.87,0.1,5.95,1.16,8.64c-0.36,0.47-2.14,2.03-2.14,2.45c-1.33,1.69-3.15,3.23-4.66,4.79c-0.41,0.43-1.02,0.93-1.3,1.44
		c-1.01,1-7.68,7.91-8.33,8.23c-0.93-2.99-0.7-6.11-0.69-9.2l0.02-7.67c1.46-1.01,2.76-2.7,4-3.97c2.63-2.69,5.29-5.43,8.05-7.99
		C235.31,104.03,236.17,102.76,237.33,101.84z M221.95,116.73l0.01-13.95c0-2.31-0.16-4.72,0.05-7.01c0.08-0.85,0.27-1.68,0.58-2.47
		c1.1-2.85,3.3-4.95,6.08-6.17c3.1-1.36,6.61-1.49,9.77-0.25c3.18,1.25,5.66,3.69,7.04,6.81c-2.78,2.74-5.64,5.4-8.45,8.12
		c-0.96,0.93-2.21,1.91-3.02,2.95c-2.77,2.55-5.42,5.29-8.05,7.99C224.7,114.03,223.41,115.72,221.95,116.73z M236.91,119.14
		c1.87-1.83,3.79-3.59,5.66-5.41c1.16-1.13,2.28-2.46,3.55-3.44l0.21,0.02c0.05,0.21,0.02,0.35-0.01,0.56
		c-0.2,1.45-0.04,3.09-0.04,4.56l0.01,8.23c0.01,1.67,0.09,3.36-0.03,5.02c-0.09,1.31-0.21,2.58-0.56,3.85
		c-0.2,0.73-1.08,2.23-1.04,2.79c-1.35,2.58-4.28,4.71-7.02,5.57c-1.45,0.46-4.56,0.93-5.98,0.34c-0.82-0.11-1.6-0.37-2.36-0.7
		c-3.16-1.37-5.41-3.76-6.68-6.93c0.66-0.33,7.32-7.23,8.33-8.23c0.28-0.51,0.89-1.01,1.3-1.44
		C233.76,122.37,235.58,120.83,236.91,119.14z M230.96,125.36l0.07,0.18c-0.75,0.9-1.66,1.68-2.48,2.51
		c0.15,0.39,0.28,0.78,0.35,1.2c0.23,1.39,0.25,2.82,0.39,4.22c0.15,1.52,0.43,3.08,0.46,4.6c0.01,0.54,0.03,1.35-0.21,1.83
		c-0.07,0.14-0.16,0.25-0.26,0.37c0.75,0.39,1.66,0.64,2.49,0.84l-0.11,0.12c-0.82-0.11-1.6-0.37-2.36-0.7
		c-3.16-1.37-5.41-3.76-6.68-6.93C223.28,133.27,229.94,126.36,230.96,125.36z M107.17,120.49c5.46-5.15,10.84-10.37,16.16-15.66
		c0.5-0.49,4.28-4.35,4.54-4.4c0.02,6.41,0.12,12.84,0,19.25c-0.57,0.21-17.65,17.07-19.64,19.03c-0.24-0.21-0.48-0.43-0.71-0.66
		c-1.42-1.42-2.59-3.16-3.12-5.12c-0.8-2.94-0.46-8.29-0.45-11.48l0.03-14.6c0.24,1.15,0.12,2.51,0.12,3.69l-0.01,5.93
		c0,0.84-0.09,1.88,0.09,2.7c0,0.04,0.01,0.07,0.01,0.11c0.09,1.14-0.25,2.64,0.04,3.71c0.03-0.03,0.07-0.06,0.11-0.09
		c0.17-0.14,0.33-0.15,0.5-0.27C105.53,122.16,106.76,121.15,107.17,120.49z M115.07,86.43c3.12-0.32,6.26,0.58,8.71,2.56
		c2.29,1.85,3.66,4.43,3.96,7.35c0.14,1.34,0.13,2.73,0.14,4.08c-0.26,0.06-4.05,3.91-4.54,4.4c-5.32,5.29-10.71,10.51-16.16,15.66
		c-0.41,0.66-1.65,1.67-2.32,2.13c-0.17,0.11-0.33,0.13-0.5,0.27c-0.04,0.03-0.07,0.06-0.11,0.09c-0.29-1.07,0.04-2.57-0.04-3.71
		c0-0.04-0.01-0.07-0.01-0.11c-0.18-0.81-0.09-1.86-0.09-2.7l0.01-5.93c0-1.17,0.12-2.54-0.12-3.69c-0.06-1.7-0.02-3.43-0.02-5.14
		c0-1.65-0.09-3.36,0.11-5.01c0.38-3.16,2.07-5.9,4.55-7.84C110.1,87.38,113.1,86.71,115.07,86.43z M108.64,88.86
		c1.46-1.48,4.46-2.15,6.43-2.43l0.47,0.11c-0.48,0.25-1.23,0.14-1.78,0.28c-0.85,1-3.51,4.4-3.46,5.51
		c0.01,0.11,0.02,0.14,0.04,0.25c0.17,0.92-0.36,1.7-0.43,2.59c-0.07,0.94,0.07,1.91,0.01,2.86c-0.06,0.87-0.42,1.69-0.48,2.55
		c-0.09,1.09,0.06,2.2-0.02,3.3c-0.1,1.48-0.4,2.94-0.54,4.42c-0.25,2.57-0.38,5.23-0.8,7.78c-0.16,0.97-0.42,2.13-0.72,3.07
		c-0.11,0.33-0.29,0.67-0.33,1.02c-0.02,0.16,0.05,0.19,0.14,0.32c-0.41,0.66-1.65,1.67-2.32,2.13c-0.17,0.11-0.33,0.13-0.5,0.27
		c-0.04,0.03-0.07,0.06-0.11,0.09c-0.29-1.07,0.04-2.57-0.04-3.71c0-0.04-0.01-0.07-0.01-0.11c-0.18-0.81-0.09-1.86-0.09-2.7
		l0.01-5.93c0-1.17,0.12-2.54-0.12-3.69c-0.06-1.7-0.02-3.43-0.02-5.14c0-1.65-0.09-3.36,0.11-5.01
		C104.46,93.54,106.16,90.81,108.64,88.86z M108.64,88.86c-0.2,0.82-1.34,1.19-1.74,1.96l0.04,0.06l0.34-0.23l0.15,0.03l0.02,0.21
		c-0.26,0.23-0.42,0.01-0.56,0.35c0.2,0.35,0.36,0.5,0.24,0.92c-0.3,1.05-0.84,2.03-1.07,3.11c-0.48,2.19-0.37,4.37-0.47,6.59
		c-0.09,1.87-0.26,3.74-0.3,5.61l-0.14,0.02l0.14,0l-0.12,0.07c-0.2-0.78-0.45-5.23-0.42-6.22c0.04-1.37-0.36-3.08,0.01-4.38
		c-0.22-0.62,0.1-0.89,0.15-1.5c0.07-0.87,1.33-2.6,0.98-3.28l-0.14,0.31l-0.13-0.02l0.07,0.12c-0.52,1.05-1.13,2.27-1.34,3.43
		c-0.36,2.03-0.15,4.35-0.14,6.42l0.01,10.82c0,1.96,0.09,3.97-0.04,5.93c-0.18-0.81-0.09-1.86-0.09-2.7l0.01-5.93
		c0-1.17,0.12-2.54-0.12-3.69c-0.06-1.7-0.02-3.43-0.02-5.14c0-1.65-0.09-3.36,0.11-5.01C104.46,93.54,106.16,90.81,108.64,88.86z
		 M157.19,33.86c0.33,0.15,0.47,0.09,0.81-0.04c0.2,0.05,0.33,0.09,0.49,0.23c0.71,0.56,1.35,1.21,2.07,1.77
		c1.17,0.92,2.38,1.74,3.52,2.71c0.64,0.55,1.22,1.16,1.87,1.71c-0.69,0.22-1.45,0.2-2.12,0.46l0,0.13
		c-2.53,0.64-5.03,1.31-7.48,2.21c-1.62,0.59-3.2,1.36-4.83,1.91c0.17-0.23,0.27-0.31,0.54-0.42c0.19-0.07,0.33-0.13,0.5-0.26
		l-0.01-0.22c-1.07-1.61-4.76-3.26-6.39-4.35c-0.36-0.24-0.62-0.65-1.02-0.8c-0.27,0.15-0.61,0.38-0.92,0.38
		c-0.05,0-0.1,0-0.15-0.01C146.72,37.37,153.92,34.77,157.19,33.86z M220.23,134.99c1.01,2.49,2.23,4.19,4.24,5.96
		c-0.88,1.13-1.98,2.15-3.01,3.15c-5.18,5.01-11.08,9.2-17.53,12.42c-1.59,0.79-3.25,1.62-4.94,2.18c0.01-0.02,0.02-0.03,0.04-0.05
		c0.13-0.15,0.26-0.28,0.38-0.45l-0.06-0.24l-0.17,0.05l0-0.07c-2.61,0.05-9.12,0.13-11.06-1.49c-0.4-0.33-0.67-0.54-0.72-1.08
		c0.47-0.94,1.38-0.49,2.05-1.04c0.04-0.03,0.08-0.07,0.12-0.1l0.15-0.06c0.91-0.35,1.89-0.56,2.82-0.86
		c1.62-0.53,3.22-1.15,4.79-1.79c6.24-2.54,12.34-6.37,17.29-10.93C216.56,138.79,218.31,136.81,220.23,134.99z M198.49,50.53
		c3.15,1.61,6.8,3.93,9.47,6.22c-1.89,1.69-3.68,3.52-5.5,5.3c-1.89,1.86-3.88,3.75-5.6,5.78c-2.2-2.87-5.01-5.33-8.13-7.15
		c0.57-0.77,1.35-1.46,2.02-2.16c1.45-1.53,2.92-3.04,4.41-4.54C196.28,52.86,197.5,51.76,198.49,50.53z M144.08,39.29
		c0.05,0,0.1,0.01,0.15,0.01c0.32,0,0.65-0.24,0.92-0.38c0.4,0.15,0.66,0.56,1.02,0.8c1.63,1.09,5.33,2.74,6.39,4.35l0.01,0.22
		c-0.17,0.13-0.31,0.19-0.5,0.26c-0.27,0.1-0.37,0.19-0.54,0.42l-0.14,0.09c-1.73,1.03-3.64,1.81-5.4,2.85
		c-4.01,2.38-7.51,5.43-10.94,8.56c0.05-0.45,0.5-0.75,0.81-1.05c-0.66-1.57-5.09-3.8-5.27-4.83c-0.03-0.18-0.06-0.3-0.15-0.47
		c-0.64-0.09-0.88,0.67-1.42,0.89c-0.05,0.02-0.11,0.04-0.16,0.06C131.55,47.64,140.12,41.04,144.08,39.29z M181.58,45.32
		c4.11,0.53,11.33,2.15,14.9,4.16l2.01,1.05c-0.99,1.23-2.21,2.33-3.33,3.45c-1.49,1.49-2.95,3.01-4.41,4.54
		c-0.66,0.7-1.44,1.39-2.02,2.16c-0.69-0.42-1.41-0.77-2.13-1.13c-4.89-2.17-8.92-2.74-14.27-2.38c1.64-1.9,10.68-10.14,11.05-11.37
		c-0.49-0.28-1.19-0.02-1.69-0.38C181.66,45.39,181.62,45.35,181.58,45.32z M196.48,49.48l2.01,1.05c-0.99,1.23-2.21,2.33-3.33,3.45
		c-1.49,1.49-2.95,3.01-4.41,4.54c-0.66,0.7-1.44,1.39-2.02,2.16c-0.69-0.42-1.41-0.77-2.13-1.13c0.88-1.24,2.21-2.37,3.29-3.46
		C192.08,53.87,194.26,51.65,196.48,49.48z M160.95,154.45c10.3,2.27,18.35,2.1,28.6-0.22c-0.04,0.03-0.08,0.07-0.12,0.1
		c-0.67,0.55-1.58,0.09-2.05,1.04c0.05,0.54,0.33,0.74,0.72,1.08c1.94,1.62,8.45,1.54,11.06,1.49l0,0.07l0.17-0.05l0.06,0.24
		c-0.12,0.17-0.24,0.3-0.38,0.45c-0.01,0.02-0.02,0.03-0.04,0.05c-13.83,5.68-32.04,6.34-46.02,0.83c0.59-0.15,1.16,0.36,1.82,0.19
		c0.65-0.17,1.13-0.88,1.46-1.43c1.19-1.94,5.41-2,6.57-2.9c0.16-0.12,0.11-0.06,0.15-0.28c-0.51-0.16-1.52-0.24-1.91-0.56
		C161.02,154.52,160.99,154.49,160.95,154.45z M130.19,134.92c6.58,7.65,14.39,13.66,23.85,17.31c2.28,0.88,4.61,1.44,6.91,2.23
		c0.04,0.03,0.07,0.07,0.11,0.1c0.39,0.32,1.4,0.4,1.91,0.56c-0.04,0.22,0.01,0.15-0.15,0.28c-1.15,0.9-5.38,0.97-6.57,2.9
		c-0.34,0.55-0.81,1.26-1.46,1.43c-0.66,0.17-1.23-0.34-1.82-0.19c-1.76-0.5-3.57-1.33-5.23-2.1c-8.04-3.73-16.16-9.59-21.82-16.46
		C128.04,139.3,129.13,137.34,130.19,134.92z M128.87,51.03c0.05-0.02,0.11-0.04,0.16-0.06c0.54-0.22,0.78-0.98,1.42-0.89
		c0.08,0.17,0.11,0.29,0.15,0.47c0.18,1.03,4.61,3.26,5.27,4.83c-0.31,0.3-0.76,0.6-0.81,1.05c-1.33,1.51-2.75,2.92-4.01,4.49
		c-5.39,6.72-8.91,14.25-10.88,22.61c-3.28-0.78-5.46-0.62-8.68,0.28c1.64-10.13,7.46-21.32,14.04-29.12
		C126.55,53.47,127.62,52.05,128.87,51.03z M217.16,47.18c8.73,7.86,15.09,17.36,18.87,28.5c0.95,2.79,1.85,5.74,2.28,8.66
		c-2.7-0.88-5.43-0.95-8.19-0.31c-2.86-12.16-9.19-22.71-18.75-30.81C213.24,51.17,215.38,49.3,217.16,47.18z M150.43,51.32
		c0.02-0.02,0.03-0.03,0.05-0.05c1.77-1.22,4.42-2.25,6.44-2.99c8.21-2.97,15.96-3.95,24.66-2.97c0.04,0.03,0.08,0.07,0.12,0.1
		c0.5,0.35,1.2,0.09,1.69,0.38c-0.37,1.23-9.41,9.47-11.05,11.37c-1.05,0.2-2.13,0.29-3.16,0.53c-2.41,0.56-4.72,1.62-6.9,2.74
		c-1.57,0.95-3.09,1.93-4.49,3.13c-0.76,0.65-1.45,1.4-2.2,2.05c0.15-0.62,0.7-1,1.15-1.41c-0.19-0.4-0.37-0.85-0.67-1.18
		c-1.14-1.29-4.81-3.8-6.42-4.71c-1.06-0.6-2.33-1.14-3.25-1.95c-0.25-0.22-0.36-0.48-0.49-0.79c-0.12-0.29-0.23-0.54-0.39-0.8
		l-0.52-0.07C146.63,53.42,148.58,52.23,150.43,51.32z M150.43,51.32l0.01,0.15c-0.93,0.57-3.09,1.55-3.64,2.39
		c0.25,0.89,0.86,1.94,1.67,2.4c0.8,0.45,1.66,0.78,2.45,1.25c1.44,0.85,6.42,4.26,6.96,5.66c0.51-0.24,1-0.77,1.47-1.1
		c0.92-0.65,1.87-1.25,2.85-1.81l0.07,0.18c-1.57,0.95-3.09,1.93-4.49,3.13c-0.76,0.65-1.45,1.4-2.2,2.05c0.15-0.62,0.7-1,1.15-1.41
		c-0.19-0.4-0.37-0.85-0.67-1.18c-1.14-1.29-4.81-3.8-6.42-4.71c-1.06-0.6-2.33-1.14-3.25-1.95c-0.25-0.22-0.36-0.48-0.49-0.79
		c-0.12-0.29-0.23-0.54-0.39-0.8l-0.52-0.07C146.63,53.42,148.58,52.23,150.43,51.32z M157.19,33.86
		c17.01-4.71,34.23-2.72,49.63,5.97c3.61,2.04,7.15,4.71,10.34,7.35c-1.78,2.12-3.91,3.99-5.79,6.04c-1.1-0.96-2.23-1.88-3.4-2.75
		c-10.18-7.58-22.9-11.26-35.54-10.66c-2.92,0.14-5.71,0.59-8.59,1.02l0-0.13c0.66-0.26,1.43-0.24,2.12-0.46
		c-0.64-0.55-1.22-1.16-1.87-1.71c-1.13-0.96-2.35-1.79-3.52-2.71c-0.71-0.56-1.35-1.21-2.07-1.77c-0.17-0.13-0.29-0.18-0.49-0.23
		C157.66,33.95,157.53,34.01,157.19,33.86z M207.96,56.75c8.69,7.45,14.85,17.78,17.7,28.84c-3.01,1.82-5.01,4.24-6.05,7.63
		c-6.77-3.93-13.84-7.74-17.3-15.17c-0.73-1.56-1.29-3.2-2.02-4.76c-0.92-1.98-2.1-3.73-3.43-5.46c1.71-2.03,3.7-3.92,5.6-5.78
		C204.28,60.26,206.07,58.44,207.96,56.75z M124.67,85.61l0.06-0.31c2.23-11.97,10.28-23.74,20.27-30.61l0.52,0.07
		c0.16,0.27,0.28,0.51,0.39,0.8c0.13,0.31,0.24,0.56,0.49,0.79c0.91,0.81,2.19,1.35,3.25,1.95c1.61,0.92,5.28,3.42,6.42,4.71
		c0.29,0.33,0.48,0.78,0.67,1.18c-0.45,0.42-1.01,0.8-1.15,1.41c-0.43,0.77-1.99,2.49-2.63,3.43c-1.46,2.15-2.3,4.51-3.3,6.88
		c-0.64,1.52-1.66,2.88-2.67,4.18c-4.28,5.49-10.13,10.03-16.59,12.67C128.99,89.7,127.44,87.6,124.67,85.61z M178.47,121.07
		c1.81,4.76,5.68,9.53,11.03,10.17c6.85,0.7,12.68-5.09,16.42-10.17c-2.03,2.09-4.13,4.13-6.48,5.84
		c-3.36,2.47-7.71,4.34-11.86,2.92C183.47,128.42,180.52,124.77,178.47,121.07L178.47,121.07z M174.38,121.89
		c2.42,6.1,7.46,12.25,14.34,13.06c5.69,0.65,10.98-2.49,15.07-6.16c0.86-0.78,1.76-1.67,2.56-2.52c1.3-1.4,2.53-2.86,3.67-4.38
		c-2.77,2.94-5.64,5.78-8.92,8.09c-2.83,1.99-6.05,3.63-9.53,4C183.76,134.88,177.69,128.26,174.38,121.89L174.38,121.89z"/>
</g>
</svg>
