<?xml version="1.0" encoding="utf-8"?>
<!-- Generator: Adobe Illustrator 27.8.1, SVG Export Plug-In . SVG Version: 6.00 Build 0)  -->
<svg version="1.1" id="Layer_1" xmlns="http://www.w3.org/2000/svg" xmlns:xlink="http://www.w3.org/1999/xlink" x="0px" y="0px"
	 viewBox="0 0 350 230" style="enable-background:new 0 0 350 230;" xml:space="preserve">
<style type="text/css">
	.st0{fill:#F5F5F5;stroke:#404040;stroke-width:2;stroke-miterlimit:10;}
	.st1{fill:#49BDC9;}
	.st2{fill:none;stroke:#404040;stroke-miterlimit:10;}
	.st3{fill:#F5F5F5;}
	.st4{fill:none;stroke:#FFFFFF;stroke-miterlimit:10;}
	.st5{fill:#2F2F3F;}
	.st6{fill:#02028C;}
	.st7{fill:#FFFFFF;}
	.st8{fill:#023C44;}
	.st9{fill:#022231;}
	.st10{fill:#53C2BB;}
	.st11{fill:#FF680D;}
	.st12{fill:#00EDFF;}
	.st13{fill:#213000;}
	.st14{fill:#FFB034;}
	.st15{fill:#00556A;}
	.st16{fill:#380C00;}
	.st17{fill:#00556A;stroke:#FFFFFF;stroke-width:0.5;stroke-miterlimit:10;}
	.st18{fill:#750000;}
	.st19{fill:#D40B00;}
	.st20{fill:#8E0073;}
	.st21{fill:#494949;}
	.st22{fill:#259AAB;}
	.st23{fill:#3DAEB7;}
	.st24{fill:#065652;}
	.st25{fill:#A8C6E9;}
	.st26{fill:#3F0101;}
	.st27{fill:#80C445;}
	.st28{fill:#F4D4AE;}
	.st29{fill:#E95454;}
	.st30{fill:#760689;}
	.st31{fill:#DEBFFF;}
	.st32{fill:url(#SVGID_1_);}
	.st33{fill:url(#SVGID_00000119825017642529644980000000365869980414917294_);}
	.st34{fill:url(#_x3C_Compound_Path_x3E__Music_Icon_00000002366871606588163380000000001703975631884958_);}
	.st35{opacity:0.3;fill:url(#_x3C_Compound_Path_x3E__Music_Shades_00000071535463799450294400000018108904113021010863_);}
	.st36{opacity:0.8;fill:#FFFFFF;}
	.st37{fill:#590068;}
	.st38{fill:#293767;}
	.st39{fill:#008294;}
	.st40{fill:url(#SVGID_00000072265997757398847710000016279164662614329229_);}
	.st41{fill:#F5F5F6;}
	.st42{fill:#021284;}
	.st43{fill:#751616;}
	.st44{fill:url(#SVGID_00000036954069904413860850000017204726324877899921_);}
	.st45{fill:#0000A2;}
	.st46{fill:#00833F;}
	.st47{fill:#6B1800;}
	.st48{fill:#54004C;}
	.st49{fill:#C10073;}
	.st50{fill:#7A0334;}
	.st51{fill:#002066;}
	.st52{fill:#5E5700;}
	.st53{fill:#350033;}
	.st54{fill:#FFB000;}
	.st55{fill:#490000;}
	.st56{fill:#875F74;}
	.st57{fill:#003035;}
	.st58{fill:#3659FF;}
	.st59{fill:#9B8F00;}
	.st60{fill:#4C1200;}
	.st61{fill:#016A72;}
	.st62{fill:#FF0000;}
	.st63{fill:#005C68;}
	.st64{fill:#4A0075;}
	.st65{fill:url(#SVGID_00000049195344677894496840000006727579589376778162_);}
	.st66{fill:#020242;}
	.st67{fill:#228DC9;}
	.st68{fill:#551700;}
	.st69{fill:#00C2E0;}
	.st70{fill:#012F4C;}
	.st71{fill:#300018;}
	.st72{fill-rule:evenodd;clip-rule:evenodd;fill:#6D3C5B;}
	.st73{fill-rule:evenodd;clip-rule:evenodd;fill:#020242;}
	.st74{fill:#9B001E;}
	.st75{fill:#00E1FF;}
	.st76{fill:#680040;}
	.st77{fill:#8E8700;}
	.st78{fill:#220247;}
	.st79{fill:#0086FF;}
	.st80{fill:#7C4F00;}
	.st81{fill:#520000;}
	.st82{fill:#04A8CB;}
	.st83{fill:#18618B;}
	.st84{fill:#958C00;}
	.st85{fill:#B0261C;}
	.st86{fill:#013147;}
	.st87{fill:#CD11A1;}
	.st88{fill:#296262;}
	.st89{fill:#5C5E00;}
	.st90{fill:#55B1C8;}
	.st91{fill:#918C34;}
	.st92{fill:#F94351;}
	.st93{fill:#9B001A;}
	.st94{fill:#000066;}
	.st95{fill:#636568;}
	.st96{fill:#002544;}
	.st97{fill:#723300;}
	.st98{fill:url(#SVGID_00000110455456208657051570000008047738699822720431_);}
	.st99{fill:#F393BD;}
	.st100{fill:url(#SVGID_00000168833713979674312530000015770370211976713374_);}
	.st101{fill:#011354;}
	.st102{fill:#38011B;}
	.st103{fill-rule:evenodd;clip-rule:evenodd;fill:#2365A6;}
	.st104{fill:#351B01;}
	.st105{fill-rule:evenodd;clip-rule:evenodd;fill:#351B01;}
	.st106{fill:#02484C;}
	.st107{fill:none;stroke:#02484C;stroke-width:4;stroke-miterlimit:10;}
</style>
<g>
	<g id="Logo_00000173119330959621324910000015060648833329879734_">
		<path class="st5" d="M175,227.16L62.84,115L175,2.84L287.15,115L175,227.16z M67.24,115L175,222.76L282.74,115L175,7.24L67.24,115
			z M205.46,181.56h-11.79v-6.84h11.79V181.56z M196.78,178.44h5.56v-0.61h-5.56V178.44z M207.25,158.64h-11.78v-6.84h11.78V158.64z
			 M198.59,155.52h5.55v-0.61h-5.55V155.52z M154.53,158.64h-11.79v-6.84h11.79V158.64z M145.85,155.52h5.56v-0.61h-5.56V155.52z
			 M151.63,135.72h-11.78v-6.84h11.78V135.72z M142.97,132.6h5.55V132h-5.55V132.6z M210.15,135.72h-11.79v-6.84h11.79V135.72z
			 M201.47,132.6h5.56V132h-5.56V132.6z M156.32,181.56h-11.78v-6.84h11.78V181.56z M147.66,178.44h5.55v-0.61h-5.55V178.44z
			 M175,218.74L71.27,115L175,11.26L278.74,115L175,218.74z M75.67,115L175,214.33L274.33,115L175,15.67L75.67,115z M210.15,135.72
			h-11.79v-6.84h11.79V135.72z M201.47,132.6h5.56V132h-5.56V132.6z M207.25,158.64h-11.78v-6.84h11.78V158.64z M198.59,155.52h5.55
			v-0.61h-5.55V155.52z M154.53,158.64h-11.79v-6.84h11.79V158.64z M145.85,155.52h5.56v-0.61h-5.56V155.52z M151.63,135.72h-11.78
			v-6.84h11.78V135.72z M142.97,132.6h5.55V132h-5.55V132.6z M156.32,181.56h-11.78v-6.84h11.78V181.56z M147.66,178.44h5.55v-0.61
			h-5.55V178.44z M205.46,181.56h-11.79v-6.84h11.79V181.56z M196.78,178.44h5.56v-0.61h-5.56V178.44z"/>
		<path class="st6" d="M210.05,104.34l-7.84,4.67c0,0-14.13-6.53-20.18-7.46c-3.47-0.55-10.61-0.55-14.08,0
			c-6.08,0.93-20.18,7.46-20.18,7.46l-7.85-4.67c-1.48-0.89-3.24,0.61-2.6,2.23c3.07,7.93,5.39,15.97,7.15,23.87h5.59v3.72h-4.81
			c1.31,6.61,2.24,13.06,2.87,19.19h4.85v3.72h-4.49c0.58,6.93,0.79,13.41,0.81,19.19h5.47V180h-5.48
			c-0.05,3.91-0.2,7.42-0.37,10.44c-0.19,3.18-0.41,5.81-0.62,7.81l3.4,3.4L175,224.96l23.32-23.32l3.38-3.4
			c-0.2-1.99-0.44-4.63-0.61-7.81c-0.19-3.02-0.33-6.53-0.39-10.44h-5.48v-3.72h5.47c0-5.78,0.22-12.26,0.81-19.19h-4.47v-3.72h4.83
			c0.62-6.15,1.56-12.59,2.87-19.19h-4.81v-3.72h5.61c1.74-7.9,4.08-15.94,7.15-23.87C213.29,104.95,211.55,103.46,210.05,104.34z
			 M217.25,130.44v3.72h-8.66v-3.72H217.25z M215.1,126.3v12.01h-6.51V126.3H215.1z M214.35,153.36v3.72h-8.66v-3.72H214.35z
			 M212.2,149.21v12.01h-6.51v-12.01H212.2z M212.56,176.27V180h-8.66v-3.72H212.56z M210.41,172.13v12.01h-6.51v-12.01H210.41z
			 M141.41,130.44v3.72h-8.66v-3.72H141.41z M141.41,126.3v12.01h-6.51V126.3H141.41z M144.29,153.36v3.72h-8.66v-3.72H144.29z
			 M144.29,149.21v12.01h-6.51v-12.01H144.29z M146.1,176.27V180h-8.66v-3.72H146.1z M146.1,172.13v12.01h-6.51v-12.01H146.1z
			 M250.62,48.9H99.66L59.29,89.28h231.42L250.62,48.9z M121.08,121.15l-7.03-14.97l-10.7-1.54l8.49,10.89l-8.1,0.59l14.71,14.66
			l-3.72-9.71L121.08,121.15z M246.64,104.64l-10.7,1.54l-7.03,14.97l6.37-0.08l-3.74,9.71l14.72-14.66l-8.12-0.59L246.64,104.64z"
			/>
		<g>
			<circle class="st3" cx="190.44" cy="132.3" r="4.26"/>
		</g>
		<g>
			<path class="st3" d="M191.81,155.21c0,2.35-1.91,4.26-4.26,4.26c-2.35,0-4.26-1.91-4.26-4.26s1.91-4.26,4.26-4.26
				C189.9,150.95,191.81,152.86,191.81,155.21z"/>
		</g>
		<g>
			<circle class="st3" cx="186.82" cy="178.13" r="4.26"/>
		</g>
		<g>
			<path class="st3" d="M155.29,132.3c0,2.35,1.91,4.26,4.26,4.26c2.35,0,4.26-1.91,4.26-4.26s-1.91-4.26-4.26-4.26
				C157.2,128.04,155.29,129.94,155.29,132.3z"/>
		</g>
		<g>
			<path class="st3" d="M158.18,155.21c0,2.35,1.91,4.26,4.26,4.26c2.35,0,4.26-1.91,4.26-4.26s-1.91-4.26-4.26-4.26
				C160.09,150.95,158.18,152.86,158.18,155.21z"/>
		</g>
		<g>
			<path class="st3" d="M158.92,178.13c0,2.35,1.91,4.26,4.26,4.26c2.35,0,4.26-1.91,4.26-4.26c0-2.35-1.91-4.26-4.26-4.26
				C160.82,173.87,158.92,175.78,158.92,178.13z"/>
		</g>
		<g>
			<g>
				<path class="st7" d="M175,226.06l-24.14-24.14l0.05-0.38c0.2-1.62,0.49-4.26,0.74-7.65c0.36-4.48,0.57-9.16,0.64-13.91
					l0.01-0.77h1.69v-2.17h-1.68v-0.78c0-6.26-0.27-12.69-0.81-19.13l-0.07-0.84h0.77v-2.17h-0.97l-0.07-0.7
					c-0.68-6.72-1.61-12.98-2.84-19.12l-0.19-0.93h1.17v-2.17h-1.63l-0.13-0.61c-1.5-6.95-3.38-13.69-5.6-20.05l-0.71-2.02l6.38,3.8
					l1.4-0.65c0.14-0.07,13.86-6.34,19.4-7.2c1.48-0.24,3.95-0.38,6.58-0.38s5.1,0.14,6.59,0.38c4.65,0.72,15.57,5.44,19.38,7.2
					l1.42,0.67l6.38-3.82l-0.71,2.03c-2.2,6.32-4.09,13.07-5.61,20.05l-0.13,0.61h-1.62v2.17h1.17l-0.18,0.93
					c-1.24,6.26-2.19,12.7-2.82,19.12l-0.07,0.7h-0.97v2.17h0.77l-0.07,0.85c-0.53,6.2-0.81,12.64-0.82,19.13l0,0.78H196v2.17h1.71
					l0.01,0.77c0.05,4.53,0.25,8.95,0.62,13.91c0.24,3.09,0.52,5.87,0.76,7.64l0.05,0.38L175,226.06z M152.5,201.36l22.5,22.5
					l22.5-22.5c-0.23-1.8-0.49-4.43-0.72-7.32c-0.35-4.74-0.55-8.97-0.61-13.26h-1.73v-5.28h1.69c0.03-5.98,0.29-11.9,0.76-17.64
					h-0.63v-5.28h1.12c0.61-5.92,1.48-11.85,2.59-17.64h-0.83v-5.28h1.93c1.35-6.09,2.97-12,4.84-17.6l-3.42,2.05l-2.17-1.02
					c-3.5-1.61-14.51-6.38-18.97-7.07c-1.42-0.23-3.79-0.37-6.35-0.37c-2.56,0-4.93,0.14-6.34,0.36
					c-4.43,0.68-15.21,5.34-18.99,7.07l-2.15,1l-3.42-2.04c1.88,5.63,3.5,11.55,4.83,17.61h1.93v5.28h-0.83
					c1.11,5.68,1.96,11.47,2.61,17.64h1.12v5.28h-0.63c0.47,5.93,0.72,11.86,0.74,17.64h1.68v5.28h-1.71
					c-0.08,4.52-0.29,8.97-0.63,13.24C152.96,197.18,152.69,199.7,152.5,201.36z"/>
			</g>
		</g>
	</g>
</g>
</svg>
