<?xml version="1.0" encoding="utf-8"?>
<!-- Generator: Adobe Illustrator 27.8.1, SVG Export Plug-In . SVG Version: 6.00 Build 0)  -->
<svg version="1.1" id="Layer_1" xmlns="http://www.w3.org/2000/svg" xmlns:xlink="http://www.w3.org/1999/xlink" x="0px" y="0px"
	 viewBox="0 0 350 230" style="enable-background:new 0 0 350 230;" xml:space="preserve">
<style type="text/css">
	.st0{fill:#FFE8DE;}
	.st1{fill:#FFE9FD;}
	.st2{fill:#F7EBFF;}
	.st3{fill:#E9FFFC;}
	.st4{fill:#FCFFEB;}
	.st5{fill:#FFE6E6;}
	.st6{fill:#480252;}
	.st7{fill:#FF680D;}
	.st8{fill:#31E7FF;}
	.st9{fill:#FFFFFF;}
	.st10{fill:#4E0156;}
	.st11{fill:#9339FF;}
	.st12{fill:#E21B1B;}
	.st13{fill:#751616;}
	.st14{fill:#B73734;}
	.st15{fill:#4C000F;}
	.st16{fill:#53C2BB;}
	.st17{fill:#04858C;}
	.st18{fill:#7C3200;}
	.st19{fill:#4C2C76;}
	.st20{fill:#6F4B9D;}
	.st21{fill:#958C00;}
	.st22{fill:#B0261C;}
	.st23{fill:#296262;}
</style>
<g>
	<path id="CUSTOM-group_00000182498971260338542180000004636772117214171548_" class="st14" d="M201.53,22.15
		c-3.45-2.53-6.98-5.64-9.5-9.41l-2.2-3.3c-0.47-0.7-1.34-1.01-2.14-0.77c-0.81,0.24-1.36,0.99-1.36,1.83v29.99
		c-1.13-0.66-2.42-1.06-3.82-1.06c-4.22,0-7.64,3.43-7.64,7.64c0,4.22,3.43,7.64,7.64,7.64s7.64-3.43,7.64-7.64V16.77
		c2.7,3.41,6.08,6.23,9.12,8.46c1.49,1.09,2.35,2.78,2.35,4.63c0,3.16-2.57,5.73-5.73,5.73c-1.06,0-1.91,0.85-1.91,1.91
		c0,1.06,0.85,1.91,1.91,1.91c5.27,0,9.56-4.29,9.56-9.56C205.44,26.83,203.98,23.94,201.53,22.15z M236.73,30.99l-27.01,7.64
		c-0.82,0.23-1.39,0.99-1.39,1.84v25.91c-1.13-0.66-2.42-1.06-3.82-1.06c-4.22,0-7.64,3.43-7.64,7.64s3.43,7.64,7.64,7.64
		s7.64-3.43,7.64-7.64c0-0.44,0-23.4,0-23.4L235.35,43v15.73c-1.13-0.66-2.42-1.06-3.82-1.06c-4.22,0-7.64,3.43-7.64,7.64
		s3.43,7.64,7.64,7.64c4.22,0,7.64-3.43,7.64-7.64c0-0.44,0-32.49,0-32.49C239.17,31.56,237.96,30.64,236.73,30.99z"/>
	<g id="CUSTOM-group">
		<g>
			<g>
				<path class="st14" d="M162.76,19.19v0.48c-28.42,0.19-51.48,24.78-51.48,54.96v78.58h-0.45V74.63
					C110.83,44.18,134.09,19.38,162.76,19.19z"/>
			</g>
			<g>
				<path class="st14" d="M162.76,27.25v0.48c-24.24,0.18-43.89,21.15-43.89,46.9v78.58h-0.45V74.63
					C118.42,48.61,138.27,27.43,162.76,27.25z"/>
			</g>
			<g>
				<path class="st14" d="M162.76,35.29v0.48c-20.05,0.19-36.31,17.56-36.31,38.87v78.58H126V74.63
					C126,53.06,142.46,35.48,162.76,35.29z"/>
			</g>
			<g>
				<path class="st14" d="M162.76,43.34v0.48c-15.87,0.19-28.72,13.94-28.72,30.81v78.58h-0.45V74.63
					C133.59,57.49,146.64,43.53,162.76,43.34z"/>
			</g>
			<g>
				<path class="st14" d="M162.76,51.4v0.48c-11.69,0.18-21.13,10.31-21.13,22.75v78.58h-0.45V74.63
					C141.18,61.93,150.83,51.58,162.76,51.4z"/>
			</g>
		</g>
	</g>
</g>
</svg>
