<?xml version="1.0" encoding="utf-8"?>
<!-- Generator: Adobe Illustrator 27.8.1, SVG Export Plug-In . SVG Version: 6.00 Build 0)  -->
<svg version="1.1" id="Layer_1" xmlns="http://www.w3.org/2000/svg" xmlns:xlink="http://www.w3.org/1999/xlink" x="0px" y="0px"
	 viewBox="0 0 350 230" style="enable-background:new 0 0 350 230;" xml:space="preserve">
<style type="text/css">
	.st0{fill:#FFE8DE;}
	.st1{fill:#FFE9FD;}
	.st2{fill:#F7EBFF;}
	.st3{fill:#E9FFFC;}
	.st4{fill:#FCFFEB;}
	.st5{fill:#FFE6E6;}
	.st6{fill:#480252;}
	.st7{fill:#FF680D;}
	.st8{fill:#31E7FF;}
	.st9{fill:#FFFFFF;}
	.st10{fill:#4E0156;}
	.st11{fill:#9339FF;}
	.st12{fill:#E21B1B;}
	.st13{fill:#751616;}
	.st14{fill:#B73734;}
	.st15{fill:#4C000F;}
	.st16{fill:#53C2BB;}
	.st17{fill:#04858C;}
	.st18{fill:#7C3200;}
	.st19{fill:#4C2C76;}
	.st20{fill:#6F4B9D;}
	.st21{fill:#958C00;}
	.st22{fill:#B0261C;}
	.st23{fill:#296262;}
</style>
<path id="Logo" class="st13" d="M181.1,117.31c-2.05-0.8-3.23-1.3-4.43-1.73c-21.39-7.67-31.52-26.2-26.44-48.37
	c1.36-5.94,0.06-7.82-6.1-8.63c-1.58-0.21-3.19-0.2-4.78-0.24c-1.55-0.04-3.1-0.01-5.34-0.01c4.73-7.68,9.22-14.93,18.63-15.98
	c7.39-0.82,11.96,3.95,16.06,9.68c-1.24,0.82-1.34,0.89-2.27,1.5c-0.22-0.3-0.21-0.25-0.46-0.56c-4.05-2.2-7.89-5.43-12.21-6.33
	c-4.89-1.02-8.21,3.09-11.72,7.06c2.39,0.57,4.04,0.89,5.66,1.35c6.31,1.81,7.98,5.37,7.12,11.82c-0.82,6.1-1.49,12.48-0.59,18.49
	c2.08,13.93,11.23,22.08,24.25,26.28c0.49,0.16,1.08,0.02,2.22,0.02c-0.66-1.83-1.15-3.28-1.71-4.7c-3.64-9.18-7.2-18.38-10.97-27.5
	c-1.86-4.51-1.48-8.55,1.83-12.11c6.22-6.69,12.19-13.68,18.93-19.82c9.1-8.3,16.51-17.49,19.78-29.82
	c4.39,8.81,0.94,25.76-5.9,32.27c-8.92,8.5-17.51,17.35-26.27,26.01c-2.85,2.82-3.09,5.72-1.52,9.45
	c4.51,10.69,8.73,21.51,12.92,32.33c2.72,7.02,4.41,14.16,1.3,21.58c-1.92,4.59-5.1,7.76-10.03,8.81
	c-7.7,1.65-14.18-4.64-12.2-12.26c0.83-3.19,3.01-6.18,5.1-8.85C174.54,123.78,177.66,120.93,181.1,117.31z M192.69,70.12
	c-4.16,3.92-7.16,9.06-10.68,13.65c0.32,0.24,0.63,0.48,0.95,0.71c6.98-6.27,14.16-12.34,20.87-18.89
	c5.02-4.91,8.05-11.08,8.51-18.36C207.52,56.41,200.07,63.17,192.69,70.12z M186.99,96.5c10.94-11.28,26.7-18.77,29-36.87
	c-4.46,8.44-11.17,14.88-18.08,21.32c-4.58,4.26-8.1,9.64-12.1,14.53C186.2,95.82,186.59,96.16,186.99,96.5z M152.11,50.98
	c0.26,0.95,1.36,2.02,2.32,2.3c0.49,0.14,1.95-1.23,2.06-2.05c0.1-0.76-0.99-1.68-1.98-3.15C153.31,49.45,151.96,50.42,152.11,50.98
	z"/>
</svg>
