<?xml version="1.0" encoding="utf-8"?>
<!-- Generator: Adobe Illustrator 27.8.1, SVG Export Plug-In . SVG Version: 6.00 Build 0)  -->
<svg version="1.1" id="Layer_1" xmlns="http://www.w3.org/2000/svg" xmlns:xlink="http://www.w3.org/1999/xlink" x="0px" y="0px"
	 viewBox="0 0 350 230" style="enable-background:new 0 0 350 230;" xml:space="preserve">
<style type="text/css">
	.st0{fill:#F5F5F5;stroke:#404040;stroke-width:2;stroke-miterlimit:10;}
	.st1{fill:#49BDC9;}
	.st2{fill:none;stroke:#404040;stroke-miterlimit:10;}
	.st3{fill:#F5F5F5;}
	.st4{fill:none;stroke:#FFFFFF;stroke-miterlimit:10;}
	.st5{fill:#2F2F3F;}
	.st6{fill:#02028C;}
	.st7{fill:#FFFFFF;}
	.st8{fill:#023C44;}
	.st9{fill:#022231;}
	.st10{fill:#53C2BB;}
	.st11{fill:#FF680D;}
	.st12{fill:#00EDFF;}
	.st13{fill:#213000;}
	.st14{fill:#FFB034;}
	.st15{fill:#00556A;}
	.st16{fill:#380C00;}
	.st17{fill:#00556A;stroke:#FFFFFF;stroke-width:0.5;stroke-miterlimit:10;}
	.st18{fill:#750000;}
	.st19{fill:#D40B00;}
	.st20{fill:#8E0073;}
	.st21{fill:#494949;}
	.st22{fill:#259AAB;}
	.st23{fill:#3DAEB7;}
	.st24{fill:#065652;}
	.st25{fill:#A8C6E9;}
	.st26{fill:#3F0101;}
	.st27{fill:#80C445;}
	.st28{fill:#F4D4AE;}
	.st29{fill:#E95454;}
	.st30{fill:#760689;}
	.st31{fill:#DEBFFF;}
	.st32{fill:url(#SVGID_1_);}
	.st33{fill:url(#SVGID_00000176002807205618643980000006167480029853068219_);}
	.st34{fill:url(#_x3C_Compound_Path_x3E__Music_Icon_00000042739142267566398850000005375856402481579674_);}
	.st35{opacity:0.3;fill:url(#_x3C_Compound_Path_x3E__Music_Shades_00000026162215515117973450000011674119002100603008_);}
	.st36{opacity:0.8;fill:#FFFFFF;}
	.st37{fill:#590068;}
	.st38{fill:#293767;}
	.st39{fill:#008294;}
	.st40{fill:url(#SVGID_00000011002569654300689680000014982998863220678589_);}
	.st41{fill:#F5F5F6;}
	.st42{fill:#021284;}
	.st43{fill:#751616;}
	.st44{fill:url(#SVGID_00000096744661300152181330000015100570680038677153_);}
	.st45{fill:#0000A2;}
	.st46{fill:#00833F;}
	.st47{fill:#6B1800;}
	.st48{fill:#54004C;}
	.st49{fill:#C10073;}
	.st50{fill:#7A0334;}
	.st51{fill:#002066;}
	.st52{fill:#5E5700;}
	.st53{fill:#350033;}
	.st54{fill:#FFB000;}
	.st55{fill:#490000;}
	.st56{fill:#875F74;}
	.st57{fill:#003035;}
	.st58{fill:#3659FF;}
	.st59{fill:#9B8F00;}
	.st60{fill:#4C1200;}
	.st61{fill:#016A72;}
	.st62{fill:#FF0000;}
	.st63{fill:#005C68;}
	.st64{fill:#4A0075;}
	.st65{fill:url(#SVGID_00000134955049427934134060000016663912326415291060_);}
	.st66{fill:#020242;}
	.st67{fill:#228DC9;}
	.st68{fill:#551700;}
	.st69{fill:#00C2E0;}
	.st70{fill:#012F4C;}
	.st71{fill:#300018;}
	.st72{fill-rule:evenodd;clip-rule:evenodd;fill:#6D3C5B;}
	.st73{fill-rule:evenodd;clip-rule:evenodd;fill:#020242;}
	.st74{fill:#9B001E;}
	.st75{fill:#00E1FF;}
	.st76{fill:#680040;}
	.st77{fill:#8E8700;}
	.st78{fill:#220247;}
	.st79{fill:#0086FF;}
	.st80{fill:#7C4F00;}
	.st81{fill:#520000;}
	.st82{fill:#04A8CB;}
	.st83{fill:#18618B;}
	.st84{fill:#958C00;}
	.st85{fill:#B0261C;}
	.st86{fill:#013147;}
	.st87{fill:#CD11A1;}
	.st88{fill:#296262;}
	.st89{fill:#5C5E00;}
	.st90{fill:#55B1C8;}
	.st91{fill:#918C34;}
	.st92{fill:#F94351;}
	.st93{fill:#9B001A;}
	.st94{fill:#000066;}
	.st95{fill:#636568;}
	.st96{fill:#002544;}
	.st97{fill:#723300;}
	.st98{fill:url(#SVGID_00000161629876473303554990000004927004774700653980_);}
	.st99{fill:#F393BD;}
	.st100{fill:url(#SVGID_00000080916508407018814780000006927714848293802371_);}
	.st101{fill:#011354;}
	.st102{fill:#38011B;}
	.st103{fill-rule:evenodd;clip-rule:evenodd;fill:#2365A6;}
	.st104{fill:#351B01;}
	.st105{fill-rule:evenodd;clip-rule:evenodd;fill:#351B01;}
	.st106{fill:#02484C;}
	.st107{fill:none;stroke:#02484C;stroke-width:4;stroke-miterlimit:10;}
</style>
<g>
	<path id="Logo_00000140708023090379075740000008149921120126878878_" class="st8" d="M175,3.77L90.34,88.43L63.77,115L175,226.23
		l84.66-84.66L286.23,115L175,3.77z M255.82,141.57L175,222.38L67.62,115l26.57-26.57L175,7.62L282.38,115L255.82,141.57z
		 M175,12.14L98.71,88.43L72.14,115l26.57,26.57L175,217.86L277.86,115L175,12.14z M247.44,141.57L175,214.01L75.99,115L175,15.99
		l72.44,72.44L274.01,115L247.44,141.57z M67.62,115l26.57,26.57H52.45L62.36,115l-9.91-26.57h41.73L67.62,115z M277.86,115
		l-26.57,26.57H98.71L72.14,115l26.57-26.57h152.58L277.86,115z M287.64,115l9.91,26.57h-41.73L282.38,115l-26.57-26.57h41.73
		L287.64,115z M175,34.85l5.4,16.75l17.6-0.04l-14.26,10.31l5.48,16.73L175,68.22L160.79,78.6l5.48-16.73L152,51.56l17.6,0.04
		L175,34.85z M200.11,50.87l-19.22,0.04L175,32.64l-5.9,18.28l-19.2-0.04l15.56,11.25l-5.98,18.26L175,69.05l15.52,11.33
		l-5.98-18.26L200.11,50.87z M175,67.38l-12.91,9.42l4.97-15.19l-12.95-9.36l15.98,0.04L175,37.07l4.91,15.22l15.99-0.04
		l-12.96,9.36l4.97,15.19L175,67.38z M167.66,193.22l5.98-15.49l-10.17,0.14l11.22-23.91l17.08-2.46l-13.55,17.38l12.94,0.94
		L167.66,193.22z M193.35,150.58l-19.12,2.76l-11.84,25.22l10.25-0.14l-6.75,17.53l26.81-26.7l-13.15-0.96L193.35,150.58z
		 M169.44,190.49l5.19-13.45l-10.08,0.14l10.6-22.6l15.04-2.17l-13.29,17.05l12.72,0.94L169.44,190.49z"/>
</g>
</svg>
