<?xml version="1.0" encoding="utf-8"?>
<!-- Generator: Adobe Illustrator 27.8.1, SVG Export Plug-In . SVG Version: 6.00 Build 0)  -->
<svg version="1.1" id="Layer_1" xmlns="http://www.w3.org/2000/svg" xmlns:xlink="http://www.w3.org/1999/xlink" x="0px" y="0px"
	 viewBox="0 0 350 230" style="enable-background:new 0 0 350 230;" xml:space="preserve">
<style type="text/css">
	.st0{fill:#FFE8DE;}
	.st1{fill:#FFE9FD;}
	.st2{fill:#F7EBFF;}
	.st3{fill:#E9FFFC;}
	.st4{fill:#FCFFEB;}
	.st5{fill:#FFE6E6;}
	.st6{fill:#480252;}
	.st7{fill:#FF680D;}
	.st8{fill:#31E7FF;}
	.st9{fill:#FFFFFF;}
	.st10{fill:#4E0156;}
	.st11{fill:#9339FF;}
	.st12{fill:#E21B1B;}
	.st13{fill:#751616;}
	.st14{fill:#B73734;}
	.st15{fill:#4C000F;}
	.st16{fill:#53C2BB;}
	.st17{fill:#04858C;}
	.st18{fill:#7C3200;}
	.st19{fill:#4C2C76;}
	.st20{fill:#6F4B9D;}
	.st21{fill:#958C00;}
	.st22{fill:#B0261C;}
	.st23{fill:#296262;}
</style>
<g>
	<path class="st15" d="M134.7,80.1c3.56-22.25,24.49-37.4,46.74-33.84s37.4,24.49,33.84,46.74s-24.49,37.4-46.74,33.84
		S131.14,102.35,134.7,80.1z"/>
	<path class="st16" d="M131.62,86.54c0-6.5,1.44-12.67,4-18.2L76.09,33.42c0,0-0.61,1.81-1.35,4.92c-1.15,4.83,1.11,9.83,5.49,12.17
		l22.63,12.11L72.57,51.61c-0.08,0.88-0.15,1.79-0.21,2.72c-0.3,5.01,2.91,9.58,7.7,11.06l23.27,7.18l-30.72-4.86
		c0.13,1.28,0.3,2.57,0.5,3.87c0.82,5.17,5.1,9.09,10.32,9.33l20.29,0.94l-27.16,2.62c0.83,2.13,1.81,4.25,2.95,6.33
		c2.35,4.3,7.35,6.43,12.12,5.28l15.87-3.83l-21.05,8.39c1.23,1.39,2.51,2.71,3.83,3.97c3.46,3.3,8.68,3.92,12.86,1.59l9.76-5.45
		l-14.12,10.77c0.98,0.69,1.98,1.35,2.97,1.98c4.46,2.83,10.31,2.03,13.88-1.86l4.65-5.05l-8.51,12.4c0.38,0.18,0.75,0.35,1.12,0.52
		c4.95,2.26,10.81,0.54,13.75-4.03l2.3-3.57l-5.4,11.79c0.45,0.15,0.89,0.29,1.33,0.44c5,1.61,10.44-0.54,12.97-5.14l1.45-2.63
		l-3.99,10.6c0.05,0.01,0.09,0.02,0.14,0.03c4.4,0.97,8.94-0.9,11.43-4.65l1.19-1.8C138.05,112.6,131.62,100.33,131.62,86.54z
		 M269.93,65.39c4.8-1.48,8.01-6.04,7.7-11.06c-0.06-0.93-0.12-1.83-0.21-2.72l-30.28,11.01l22.63-12.11
		c4.38-2.34,6.64-7.35,5.49-12.17c-0.74-3.11-1.35-4.92-1.35-4.92l-59.54,34.92c2.56,5.54,4,11.7,4,18.2
		c0,13.78-6.44,26.06-16.46,34l1.19,1.8c2.49,3.76,7.03,5.62,11.43,4.65c0.05-0.01,0.09-0.02,0.14-0.03l-3.99-10.6l1.45,2.63
		c2.53,4.6,7.97,6.75,12.97,5.14c0.44-0.14,0.88-0.29,1.33-0.44l-5.4-11.79l2.3,3.57c2.95,4.58,8.8,6.29,13.75,4.03
		c0.37-0.17,0.75-0.34,1.12-0.52l-8.51-12.4l4.65,5.05c3.58,3.88,9.43,4.69,13.88,1.86c1-0.63,1.99-1.29,2.97-1.98l-14.12-10.77
		l9.76,5.45c4.17,2.33,9.39,1.7,12.86-1.59c1.32-1.26,2.6-2.58,3.83-3.97l-21.05-8.39l15.87,3.83c4.76,1.15,9.77-0.98,12.12-5.28
		c1.14-2.08,2.11-4.19,2.95-6.33l-27.16-2.62l20.29-0.94c5.23-0.24,9.51-4.16,10.32-9.33c0.2-1.3,0.37-2.59,0.5-3.87l-30.72,4.86
		L269.93,65.39z M169.9,73.91v22.34c-1.11-0.44-2.41-0.7-3.81-0.7c-4.02,0-7.28,2.09-7.28,4.67c0,2.58,3.26,4.67,7.28,4.67
		s7.28-2.09,7.28-4.67V79.28l16.11-3.99v16.12c-1.11-0.44-2.41-0.7-3.81-0.7c-4.02,0-7.28,2.09-7.28,4.67
		c0,2.58,3.26,4.67,7.28,4.67s7.28-2.09,7.28-4.67V68.21L169.9,73.91z M160.68,86.37v7.32c-0.36-0.14-0.79-0.23-1.25-0.23
		c-1.32,0-2.38,0.69-2.38,1.53c0,0.85,1.07,1.53,2.38,1.53s2.38-0.69,2.38-1.53v-6.87l5.28-1.31v5.28
		c-0.36-0.14-0.79-0.23-1.25-0.23c-1.32,0-2.38,0.69-2.38,1.53c0,0.85,1.07,1.53,2.38,1.53s2.38-0.69,2.38-1.53V84.5L160.68,86.37z
		 M175,43.18c4.2,0,8.25,0.61,12.09,1.72l4.57-6.36l-6.5,2.34v-7.99l-6.07,5.75l-4.1-9.05l-4.1,9.05l-6.07-5.75v7.99l-6.5-2.34
		l4.57,6.36C166.75,43.79,170.8,43.18,175,43.18z"/>
</g>
</svg>
