<?xml version="1.0" encoding="utf-8"?>
<!-- Generator: Adobe Illustrator 27.8.1, SVG Export Plug-In . SVG Version: 6.00 Build 0)  -->
<svg version="1.1" id="Layer_1" xmlns="http://www.w3.org/2000/svg" xmlns:xlink="http://www.w3.org/1999/xlink" x="0px" y="0px"
	 viewBox="0 0 350 230" style="enable-background:new 0 0 350 230;" xml:space="preserve">
<style type="text/css">
	.st0{fill:#FFFFC5;}
	.st1{fill:#D2FFF1;}
	.st2{fill:#E7FFCF;}
	.st3{fill:#EBFFFF;}
	.st4{fill:#FCE9FF;}
	.st5{fill:#F0FBFF;}
	.st6{fill:#FEFFE9;}
	.st7{fill:#F3FFEE;}
	.st8{fill:#FFFCEE;}
	.st9{fill:#FFFFEE;}
	.st10{fill:#EEFFF1;}
	.st11{fill:#2F2F3F;}
	.st12{fill:#02028C;}
	.st13{fill:#F5F5F5;}
	.st14{fill:#023C44;}
	.st15{fill:#022231;}
	.st16{fill:#FFFFFF;}
	.st17{fill:#53C2BB;}
	.st18{fill:#FF680D;}
	.st19{fill:#00EDFF;}
	.st20{fill:#213000;}
	.st21{fill:#FFB034;}
	.st22{fill:#00556A;}
	.st23{fill:#380C00;}
	.st24{fill:#00556A;stroke:#FFFFFF;stroke-width:0.5;stroke-miterlimit:10;}
	.st25{fill:#D40B00;}
	.st26{fill:#494949;}
	.st27{fill:#259AAB;}
	.st28{fill:#3DAEB7;}
	.st29{fill:#065652;}
	.st30{fill:#A8C6E9;}
	.st31{fill:#3F0101;}
	.st32{fill:#80C445;}
	.st33{fill:#F4D4AE;}
	.st34{fill:#E95454;}
	.st35{fill:#760689;}
	.st36{fill:#DEBFFF;}
	.st37{fill:url(#SVGID_1_);}
	.st38{fill:url(#SVGID_00000031173578657417246190000014398228803434232477_);}
	.st39{fill:url(#_x3C_Compound_Path_x3E__Music_Icon_00000166640251803276253830000005397759110544650164_);}
	.st40{opacity:0.3;fill:url(#_x3C_Compound_Path_x3E__Music_Shades_00000137124883272354561940000005085565023467830950_);}
	.st41{opacity:0.8;fill:#FFFFFF;}
	.st42{fill:#293767;}
	.st43{fill:#F5F5F6;}
	.st44{fill:#021284;}
	.st45{fill:#751616;}
	.st46{fill:url(#SVGID_00000096027807880592941230000002373708841780467900_);}
	.st47{fill:#0000A2;}
	.st48{fill:#00833F;}
	.st49{fill:#6B1800;}
	.st50{fill:#7A0334;}
	.st51{fill:#002066;}
	.st52{fill:#5E5700;}
	.st53{fill:#350033;}
	.st54{fill:#875F74;}
	.st55{fill:#003035;}
	.st56{fill:#3659FF;}
	.st57{fill:#9B8F00;}
	.st58{fill:#4C1200;}
	.st59{fill:#016A72;}
	.st60{fill:#FF0000;}
	.st61{fill:#005C68;}
	.st62{fill:#4A0075;}
	.st63{fill:url(#SVGID_00000054974653450236928710000013385621946196339585_);}
	.st64{fill:#228DC9;}
	.st65{fill:#551700;}
	.st66{fill:#C10073;}
	.st67{fill:#00C2E0;}
	.st68{fill:#012F4C;}
	.st69{fill:#300018;}
	.st70{fill-rule:evenodd;clip-rule:evenodd;fill:#6D3C5B;}
	.st71{fill-rule:evenodd;clip-rule:evenodd;fill:#020242;}
	.st72{fill:#00E1FF;}
	.st73{fill:#680040;}
	.st74{fill:#8E8700;}
	.st75{fill:#220247;}
	.st76{fill:#0086FF;}
	.st77{fill:#7C4F00;}
	.st78{fill:#520000;}
	.st79{fill:url(#SVGID_00000052792866092957081390000010876002743250695596_);}
	.st80{fill:#04A8CB;}
	.st81{fill:#18618B;}
	.st82{fill:#958C00;}
	.st83{fill:#B0261C;}
	.st84{fill:#296262;}
	.st85{fill:#5C5E00;}
	.st86{fill:#55B1C8;}
	.st87{fill:#918C34;}
	.st88{fill:#590068;}
	.st89{fill:#F94351;}
	.st90{fill:#9B001A;}
	.st91{fill:#000066;}
	.st92{fill:#636568;}
	.st93{fill:#002544;}
	.st94{fill:#723300;}
	.st95{fill:url(#SVGID_00000062177687019037337910000002735260278225093817_);}
	.st96{fill:#F393BD;}
	.st97{fill:url(#SVGID_00000049212471178505121410000006613940825682187655_);}
	.st98{fill:#011354;}
	.st99{fill:#38011B;}
	.st100{fill-rule:evenodd;clip-rule:evenodd;fill:#2365A6;}
	.st101{fill:#351B01;}
	.st102{fill-rule:evenodd;clip-rule:evenodd;fill:#351B01;}
	.st103{fill:#008294;}
	.st104{fill:#02484C;}
	.st105{fill:none;stroke:#02484C;stroke-width:4;stroke-miterlimit:10;}
	.st106{fill:#8E0073;}
	.st107{fill:#013147;}
	.st108{fill:#CD11A1;}
	.st109{fill:#750000;}
	.st110{fill:#020242;}
	.st111{fill:#FFB000;}
	.st112{fill:#340038;}
	.st113{fill:#54004C;}
	.st114{fill:#020202;}
	.st115{fill:url(#SVGID_00000136372902708690692050000008638167845070524859_);}
	.st116{fill:#490000;}
	.st117{fill:#9B001E;}
	.st118{fill:#3A0603;}
	.st119{fill:#31E7FF;}
	.st120{fill:#F5F5F5;stroke:#404040;stroke-width:2;stroke-miterlimit:10;}
	.st121{fill:#49BDC9;}
	.st122{fill:none;stroke:#FFFFFF;stroke-miterlimit:10;}
</style>
<g>
	<linearGradient id="SVGID_1_" gradientUnits="userSpaceOnUse" x1="101.5103" y1="110.4144" x2="238.2996" y2="110.4144">
		<stop  offset="0" style="stop-color:#4E1F88"/>
		<stop  offset="1" style="stop-color:#9D42B3"/>
	</linearGradient>
	<path class="st37" d="M237.36,154.57c-4.04-4.05-34.8-34.8-38.51-38.51l6.8-6.8c8.62-8.64,10.44-21.04,6.32-31.25l-23.33,23.31
		c-1.24,1.25-3.28,1.25-4.52,0l-11.34-11.32c-1.25-1.25-1.25-3.28,0-4.53l23.33-23.33c-10.6-4.31-22.95-1.96-31.25,6.34l-6.8,6.79
		l-26.09-26.08c-1.68-1.7-4.55-1.01-5.31,1.25l-2.65,7.95c-1.55,4.64-0.36,9.65,3.09,13.11l24.7,24.7
		c-2.2,11.17-16.13,15.6-24.34,7.39l-5.65-5.67l-9.07,9.07c-12.23,12.23-14.48,30.73-6.75,45.26l22.74-22.74
		c1.25-1.24,3.28-1.25,4.53,0l11.32,11.34c1.25,1.25,1.25,3.28,0,4.53l-22.74,22.73c14.55,7.73,33.03,5.5,45.26-6.75l9.07-9.05
		l-5.67-5.67c-8.18-8.18-3.83-22.11,7.39-24.34l24.7,24.7c3.47,3.47,8.5,4.64,13.12,3.11l6.06-2.03l11.03,11.01
		c1.25,1.25,3.28,1.25,4.53,0C238.61,157.85,238.61,155.82,237.36,154.57z M149,84.33l-17.35-17.35c-1.73-1.73-2.32-4.24-1.55-6.56
		l1.01-3.04l22.42,22.42L149,84.33z M158.19,140.84c-1.24,1.25-3.28,1.25-4.52,0l-20.39-20.39c-1.25-1.25-1.25-3.28,0-4.54
		c1.24-1.25,3.28-1.25,4.52,0l20.39,20.39C159.44,137.56,159.44,139.59,158.19,140.84z M213.71,144.02
		c-2.32,0.77-4.84,0.17-6.56-1.55l-17.37-17.37l4.53-4.53l22.43,22.43L213.71,144.02z"/>
	<path class="st18" d="M247.92,45.73l-2.39-2.37l2.28-2.94L233.7,26.28l-2.94,2.28l-2.39-2.37c-0.77-0.77-2.01-0.77-2.78,0
		c-0.77,0.77-0.77,2.01,0,2.78l2.03,2.04l-3.14,2.44l-1.68-1.68c-0.77-0.77-2.01-0.77-2.78,0c-0.77,0.77-0.77,2.01,0,2.78l1.32,1.34
		l-2.94,2.28c16.49,16.49,8.61,8.61,17.54,17.52l2.28-2.94l1.32,1.32c0.77,0.77,2.03,0.77,2.8,0c0.76-0.76,0.76-2.01,0-2.78
		l-1.68-1.68l2.44-3.14l2.03,2.04c0.77,0.76,2.03,0.76,2.8,0C248.68,47.75,248.68,46.5,247.92,45.73z M240.06,52.05
		c-0.36,0.36-0.84,0.53-1.32,0.53c-0.5,0-0.98-0.17-1.34-0.55l-15.13-15.27c-0.74-0.74-0.72-1.94,0.02-2.66
		c0.36-0.36,0.84-0.55,1.32-0.55c0.48,0,0.98,0.19,1.34,0.57l15.13,15.27C240.81,50.13,240.81,51.31,240.06,52.05z M244.87,45.85
		c-0.34,0.34-0.79,0.52-1.25,0.52c-0.45,0-0.91-0.17-1.25-0.53l-14.22-14.48c-0.7-0.7-0.69-1.82,0.02-2.53
		c0.34-0.34,0.79-0.52,1.24-0.52c0.46,0,0.93,0.19,1.27,0.53l14.22,14.48C245.57,44.03,245.57,45.16,244.87,45.85z M131.01,136.31
		l-21.44,21.44c1.92,2.49,4.21,4.79,6.79,6.8l21.44-21.44L131.01,136.31z M219.24,48.08l-39.65,39.65l6.79,6.8l39.66-39.66
		L219.24,48.08z"/>
</g>
</svg>
