<?xml version="1.0" encoding="utf-8"?>
<!-- Generator: Adobe Illustrator 27.8.1, SVG Export Plug-In . SVG Version: 6.00 Build 0)  -->
<svg version="1.1" id="Layer_1" xmlns="http://www.w3.org/2000/svg" xmlns:xlink="http://www.w3.org/1999/xlink" x="0px" y="0px"
	 viewBox="0 0 350 230" style="enable-background:new 0 0 350 230;" xml:space="preserve">
<style type="text/css">
	.st0{fill:#FFFFC5;}
	.st1{fill:#D2FFF1;}
	.st2{fill:#E7FFCF;}
	.st3{fill:#EBFFFF;}
	.st4{fill:#FCE9FF;}
	.st5{fill:#F0FBFF;}
	.st6{fill:#FEFFE9;}
	.st7{fill:#F3FFEE;}
	.st8{fill:#FFFCEE;}
	.st9{fill:#FFFFEE;}
	.st10{fill:#EEFFF1;}
	.st11{fill:#2F2F3F;}
	.st12{fill:#02028C;}
	.st13{fill:#F5F5F5;}
	.st14{fill:#023C44;}
	.st15{fill:#022231;}
	.st16{fill:#FFFFFF;}
	.st17{fill:#53C2BB;}
	.st18{fill:#FF680D;}
	.st19{fill:#00EDFF;}
	.st20{fill:#213000;}
	.st21{fill:#FFB034;}
	.st22{fill:#00556A;}
	.st23{fill:#380C00;}
	.st24{fill:#00556A;stroke:#FFFFFF;stroke-width:0.5;stroke-miterlimit:10;}
	.st25{fill:#D40B00;}
	.st26{fill:#494949;}
	.st27{fill:#259AAB;}
	.st28{fill:#3DAEB7;}
	.st29{fill:#065652;}
	.st30{fill:#A8C6E9;}
	.st31{fill:#3F0101;}
	.st32{fill:#80C445;}
	.st33{fill:#F4D4AE;}
	.st34{fill:#E95454;}
	.st35{fill:#760689;}
	.st36{fill:#DEBFFF;}
	.st37{fill:url(#SVGID_1_);}
	.st38{fill:url(#SVGID_00000134945348006385278580000008251521114063228816_);}
	.st39{fill:url(#_x3C_Compound_Path_x3E__Music_Icon_00000178908082332360783940000010427719519788593071_);}
	.st40{opacity:0.3;fill:url(#_x3C_Compound_Path_x3E__Music_Shades_00000131331148750518260510000009387643218815524281_);}
	.st41{opacity:0.8;fill:#FFFFFF;}
	.st42{fill:#293767;}
	.st43{fill:#F5F5F6;}
	.st44{fill:#021284;}
	.st45{fill:#751616;}
	.st46{fill:url(#SVGID_00000085230997963670717800000011478240786127907237_);}
	.st47{fill:#0000A2;}
	.st48{fill:#00833F;}
	.st49{fill:#6B1800;}
	.st50{fill:#7A0334;}
	.st51{fill:#002066;}
	.st52{fill:#5E5700;}
	.st53{fill:#350033;}
	.st54{fill:#875F74;}
	.st55{fill:#003035;}
	.st56{fill:#3659FF;}
	.st57{fill:#9B8F00;}
	.st58{fill:#4C1200;}
	.st59{fill:#016A72;}
	.st60{fill:#FF0000;}
	.st61{fill:#005C68;}
	.st62{fill:#4A0075;}
	.st63{fill:url(#SVGID_00000043448958956113313010000002488590707149925794_);}
	.st64{fill:#228DC9;}
	.st65{fill:#551700;}
	.st66{fill:#C10073;}
	.st67{fill:#00C2E0;}
	.st68{fill:#012F4C;}
	.st69{fill:#300018;}
	.st70{fill-rule:evenodd;clip-rule:evenodd;fill:#6D3C5B;}
	.st71{fill-rule:evenodd;clip-rule:evenodd;fill:#020242;}
	.st72{fill:#00E1FF;}
	.st73{fill:#680040;}
	.st74{fill:#8E8700;}
	.st75{fill:#220247;}
	.st76{fill:#0086FF;}
	.st77{fill:#7C4F00;}
	.st78{fill:#520000;}
	.st79{fill:url(#SVGID_00000047774745799578734790000007961530617072794511_);}
	.st80{fill:#04A8CB;}
	.st81{fill:#18618B;}
	.st82{fill:#958C00;}
	.st83{fill:#B0261C;}
	.st84{fill:#296262;}
	.st85{fill:#5C5E00;}
	.st86{fill:#55B1C8;}
	.st87{fill:#918C34;}
	.st88{fill:#590068;}
	.st89{fill:#F94351;}
	.st90{fill:#9B001A;}
	.st91{fill:#000066;}
	.st92{fill:#636568;}
	.st93{fill:#002544;}
	.st94{fill:#723300;}
	.st95{fill:url(#SVGID_00000142153040078941267530000012750704348783508633_);}
	.st96{fill:#F393BD;}
	.st97{fill:url(#SVGID_00000072974259575393253330000015697207893525689006_);}
	.st98{fill:#011354;}
	.st99{fill:#38011B;}
	.st100{fill-rule:evenodd;clip-rule:evenodd;fill:#2365A6;}
	.st101{fill:#351B01;}
	.st102{fill-rule:evenodd;clip-rule:evenodd;fill:#351B01;}
	.st103{fill:#008294;}
	.st104{fill:#02484C;}
	.st105{fill:none;stroke:#02484C;stroke-width:4;stroke-miterlimit:10;}
	.st106{fill:#8E0073;}
	.st107{fill:#013147;}
	.st108{fill:#CD11A1;}
	.st109{fill:#750000;}
	.st110{fill:#020242;}
	.st111{fill:#FFB000;}
	.st112{fill:#340038;}
	.st113{fill:#54004C;}
	.st114{fill:#020202;}
	.st115{fill:url(#SVGID_00000038404661233164345250000007938822426116452762_);}
	.st116{fill:#490000;}
	.st117{fill:#9B001E;}
	.st118{fill:#3A0603;}
	.st119{fill:#31E7FF;}
	.st120{fill:#F5F5F5;stroke:#404040;stroke-width:2;stroke-miterlimit:10;}
	.st121{fill:#49BDC9;}
	.st122{fill:none;stroke:#FFFFFF;stroke-miterlimit:10;}
</style>
<path class="st42" d="M163.29,48.21c1.68-2.38,2.98-4.49,4.55-6.38c1.98-2.39,4.52-4,7.73-4.18c4.32-0.24,7.71,2.62,8.25,6.91
	c0.11,0.89,0.21,1.79,0.34,2.82c0.94-0.69,1.71-1.41,2.6-1.9c5.77-3.2,12.34,0.47,12.98,7.24c0.15,1.59,0.23,3.18,0.35,4.93
	c0.59-0.03,1.17-0.04,1.74-0.08c5.83-0.35,9.7,3.34,9.98,9.51c0.08,1.77,0.17,3.55,0.27,5.53c1.22,0,2.37-0.14,3.47,0.02
	c4.4,0.65,7.15,3.85,7.5,8.64c0.27,3.69,0.5,7.39,0.7,11.09c0.13,2.38-0.67,4.45-2.12,6.36c-0.63,0.83-1.1,1.87-1.36,2.89
	c-0.44,1.72-0.65,3.5-0.99,5.25c-0.2,1.05-0.03,1.91,0.75,2.74c3.49,3.75,6.9,7.58,10.39,11.32c1.41,1.51,2.54,3.01,1.73,5.23
	c-0.11,0.31-0.06,0.75,0.06,1.08c0.49,1.28-0.07,2.24-0.71,3.31c-0.59,0.98-1.12,2.12-1.24,3.24c-0.9,8.64-1.58,17.3-2.57,25.92
	c-0.49,4.3-1.49,8.55-2.24,12.82c-0.33,1.87-1.68,0.94-2.86,1.15c2.41-12.89,4.36-25.69,4.98-38.45c-2.21-0.12-4.35-0.13-6.45-0.42
	c-0.78-0.11-1.52-0.8-2.18-1.34c-3.19-2.66-6.34-5.35-9.29-7.86c-1.98,1.94-3.85,3.77-5.73,5.61c-0.1,0.09-0.21,0.2-0.33,0.24
	c-2.81,0.9-3.67,3.24-4.4,5.76c-0.73,2.54-1.6,5.05-2.49,7.54c-0.33,0.92-0.16,1.5,0.58,2.13c1.7,1.44,1.67,1.48,0.93,3.62
	c-1.75,5.05-3.57,10.07-5.22,15.15c-0.43,1.33-1.09,1.55-2.3,1.37c-9-1.36-17.7-3.79-25.96-7.57c-4.97-2.27-9.73-5-14.6-7.51
	c-1-0.52-1.2-1.16-0.76-2.22c2.44-5.81,4.84-11.63,7.22-17.47c0.47-1.16,1.1-1.86,2.46-1.54c0.87,0.2,1.34-0.21,1.64-1.03
	c0.88-2.4,1.85-4.77,2.71-7.18c0.17-0.48,0.16-1.2-0.08-1.63c-2.33-4.07-4.78-8.09-7.1-12.17c-1.67-2.94-3.17-5.97-4.83-8.92
	c-1.41-2.49-1.54-5-0.52-7.64c1.53-3.96,3-7.94,4.57-11.89c0.4-1,0.19-1.54-0.65-2.17c-2.23-1.66-4.38-3.44-6.58-5.15
	c-0.31-0.24-0.69-0.49-1.06-0.52c-3.4-0.31-6.8-0.57-10.21-0.86c-2.82-0.24-5.42-1.17-7.87-2.59c-1-0.58-2.22-0.83-3.15-1.49
	c-1.56-1.12-3.58-1.93-3.66-4.35c-0.01-0.29-0.21-0.6-0.4-0.84c-9.31-11.55-2.58-30.96,12.86-34.66c5.11-1.22,9.95-0.83,14.67,1.5
	c0.63,0.31,1.44,0.28,2.16,0.41c0.26,0.05,0.61,0.01,0.78,0.16c1.36,1.25,3.45,1.82,3.77,4.07c0.05,0.36,0.42,0.69,0.69,0.99
	c2.56,2.8,4.15,6.07,4.98,9.77C162.01,45.73,162.7,46.83,163.29,48.21z M127.03,42.46c-0.09,0.57-0.33,1.18-0.23,1.72
	c0.42,2.29,0.95,4.56,1.43,6.83c0.1-0.02,0.19-0.05,0.29-0.07c-0.51-2.84-1.02-5.67-1.53-8.52c0.35-0.47,0.69-0.94,1.04-1.4
	c-0.13,0.01-0.26,0.02-0.39,0.03c-0.08-0.45-0.23-0.9-0.24-1.35c0-0.9,0.55-1.29,1.41-1.31c0.07-0.02,0.14-0.06,0.22-0.07
	c0.02,0,0.08,0.06,0.08,0.08c-0.16,0.64-0.33,1.28-0.54,2.09c1.37-1.12,1.36-1.12,1.12-2.62c-0.03-0.17,0-0.36,0.07-0.52
	c0.64-1.38,1.29-2.75,1.96-4.12c0.19-0.38,0.44-0.74,0.75-1.26c-0.82,0.23-1.46,0.42-2.09,0.6c1.17-2.03,3.49-1.64,5.22-2.5
	c-0.72,0.63-1.43,1.25-2.15,1.88c0.06,0.12,0.12,0.24,0.18,0.35c0.42-0.05,0.84-0.11,1.27-0.16c0.03-0.11,0.05-0.21,0.08-0.32
	c-0.23-0.07-0.46-0.13-0.87-0.25c1.93-0.99,3.46-1.77,4.99-2.55c0.07,0.15,0.15,0.3,0.22,0.45c-0.61,0.27-1.22,0.55-2.09,0.93
	c1.97,0.27,3.21-1.89,5.16-0.86c-0.46,0.19-0.77,0.32-1.21,0.5c1.24,0.89,2.98-1.7,3.64,0.73c0.48-0.17,0.92-0.46,1.32-0.42
	c0.47,0.04,0.92,0.36,1.39,0.55c0.4,0.16,0.81,0.3,1.22,0.45c-4.97-3.92-16.39-4.47-23.91,4.19c-6.74,7.75-7.29,20.9-1,25.81
	c-0.42-0.87-0.85-1.75-1.27-2.62c0.1-0.06,0.19-0.12,0.29-0.19c0.44,0.47,0.87,0.93,1.31,1.4c0.05-0.06,0.1-0.11,0.15-0.17
	c-1.19-1.6-2.38-3.19-3.57-4.79c0.07-0.06,0.15-0.12,0.22-0.17c0.17,0.1,0.34,0.21,0.71,0.44c-0.53-1.69-1.07-3.04-1.28-4.6
	c-0.5-3.82,0.78-7.13,1.89-10.56c0.01-0.04,0.12-0.05,0.3-0.11c-0.19,0.7-0.36,1.32-0.53,1.95c0.06,0.02,0.12,0.05,0.18,0.07
	c0.46-0.98,0.92-1.96,1.46-3.1c0.26,0.43,0.37,0.61,0.49,0.8c-0.21,0.73-0.6,1.46-0.61,2.19c-0.03,1.96-0.02,3.94,0.19,5.88
	c0.13,1.18,0.64,2.33,0.98,3.49c0.16-0.04,0.31-0.08,0.47-0.12c-1.62-2.79-0.97-5.88-1.3-8.84c-0.13-1.17,0.31-2.15,1.46-2.95
	c-0.11,1.23-0.24,2.27-0.29,3.32c-0.05,1-0.01,2.01-0.01,3.02c0.14,0,0.28,0,0.41,0.01c0.07-3.25-0.18-6.54,1.31-9.59
	c-0.89,1.21-1.78,2.42-2.66,3.64c0.65-1.58,1.3-3.17,1.97-4.75c0.05-0.11,0.23-0.28,0.29-0.26c1.47,0.61,1.48-0.92,2.08-1.49
	c0.61-0.58,1.08-1.06,1.96-0.7c0.31,0.16,0.62,0.31,0.67,0.34c-0.77,1.86-1.52,3.68-2.28,5.5c-0.36-0.13-0.72-0.27-1.1-0.41
	c0.14-0.44,0.24-0.74,0.33-1.04c0.08-0.29,0.14-0.58,0.2-0.86C127.06,38.08,126.84,40.23,127.03,42.46z M153.02,44.57
	c-0.34-0.18-0.68-0.36-1.01-0.53c-0.16,0.75-0.19,1.71-1.31,1.03c-0.2,0.45-0.41,0.91-0.67,1.5c-0.49-0.53-0.79-0.86-1.09-1.19
	c0.33-0.43,0.72-0.84,0.98-1.31c0.44-0.78,1.9-0.77,1.61-2.09c0.34,0.09,0.69,0.18,0.87,0.23c0.51-0.48,0.95-0.89,1.41-1.33
	c-0.23-0.47-0.46-0.95-0.83-1.72c-0.08,0.89-0.12,1.39-0.16,1.89c-0.35-0.18-0.71-0.35-0.92-0.45c-0.11,0.42-0.24,0.91-0.36,1.4
	c-0.31-0.18-0.61-0.37-0.64-0.38c-0.26,0.65-0.5,1.26-0.84,2.11c-0.74-0.99-1.26-1.68-1.78-2.37c0.15,0.68,0.53,1.21,0.81,1.8
	c0.11,0.24,0.05,0.82-0.02,0.84c-0.39,0.09-0.8,0.04-1.08,0.04c-0.23,0.54-0.47,1.11-0.75,1.77c-1.6-1.57-1.6-1.57-2.2-0.77
	c1.64-0.43,1.25,0.77,1.19,2.06c0.57-0.57,0.82-0.86,1.11-1.1c0.46-0.39,0.77-1.18,1.6-0.64c0.17,0.78,0.56,1.61-0.34,2.18
	c-0.25,0.16-0.62,0.12-1.01,0.18c-0.01,0.21-0.03,0.57-0.06,1.05c1.33-0.95,2.51-1.76,3.64-2.63c0.64-0.49,1.2-1.07,1.8-1.6
	c0.7-0.42,1.39-0.83,2.13-1.27c-0.24-0.35-0.39-0.57-0.59-0.85c-0.21,0.43-0.38,0.76-0.54,1.08c-0.33-0.15-0.57-0.27-0.83-0.39
	C153.1,43.67,153.06,44.12,153.02,44.57z M145.34,50.06c1.56-0.35,1.56-0.35,1.88,1.83c1.47-1.05,2.84-2.03,4.25-3.03
	c-0.23-0.27-0.48-0.58-0.75-0.91c-0.13,0.42-0.14,0.9-0.38,1.09c-0.79,0.66-1.67,1.22-2.62,1.89c-0.7-2.08-1.94-3.71-3.96-5.03
	c0.44,0.72,0.76,1.23,1.27,2.06c1.44,0.53,1.54,0.84,0.34,2.12c-0.93-0.8-1.86-1.59-2.95-2.52c0.77,2.2,2.16,3.64,4,4.68
	c-0.21-0.46-0.69-0.7-0.96-1.08C145.26,50.9,145.36,50.44,145.34,50.06z M190.55,151.55c0.07-0.43,0.15-0.86,0.24-1.4
	c1.64,0.24,3.19,0.46,4.75,0.69c-0.18,0.75-0.32,1.34-0.46,1.94c0.08,0.02,0.15,0.05,0.23,0.07c0.35-0.89,0.71-1.79,0.92-2.34
	c-6.69-2.18-13.29-4.14-19.75-6.49c-6.49-2.36-12.54-5.7-18.39-9.38c-0.17,0.33-0.3,0.6-0.46,0.92c1.47,1.1,2.94,2.2,4.49,3.36
	c-1.48,0.12-2.14-2.13-3.96-1.12c1.09,0.98,1.96,1.95,3.01,2.66c1.55,1.04,3.2,1.93,4.85,2.81c6.91,3.68,14.08,6.75,21.72,8.61
	c0.83,0.2,1.77-0.01,2.65-0.03c0.47,1.25,0.63-0.25,1-0.08c0.05,0.26,0.11,0.55,0.24,1.17c0.36-0.89,0.59-1.44,0.95-2.33
	c-0.57,0.39-0.81,0.55-1.07,0.73c-0.09-0.25-0.16-0.44-0.26-0.71C190.97,151,190.76,151.28,190.55,151.55z M179.66,59.65
	c-1.52,1.51-2.61,3.24-3.11,5.72c2.37-1.02,4.25-2.57,6.73-1.63c2.34,0.89,3.07,3.13,4.55,4.88c0-1.12,0-2.23,0-3.49
	c0.3,0.28,0.45,0.43,0.6,0.57c0.1-0.04,0.19-0.08,0.29-0.13c-0.48-1.18-0.96-2.36-1.44-3.54c0.72,1.17,1.44,2.35,2.13,3.49
	c0.05-0.47,0.1-1.01,0.15-1.56c0.06,0,0.12,0,0.17,0.01c0.06,0.37,0.12,0.73,0.18,1.1c0.08-0.01,0.17-0.01,0.25-0.02
	c0-0.9,0-1.8,0-2.7c0.05,0,0.11,0,0.16,0c0.15,0.47,0.29,0.93,0.51,1.61c0.13-0.76,0.21-1.29,0.34-2.07
	c0.23,0.52,0.33,0.76,0.6,1.36c0-1.45,0-2.48,0-3.51c0.05-0.01,0.1-0.02,0.16-0.03c0.13,0.59,0.26,1.18,0.4,1.77
	c0.06-0.01,0.12-0.02,0.19-0.03c0.05-0.67,0.1-1.34,0.16-2.19c0.24,0.37,0.39,0.61,0.63,0.99c0.05-0.75,0.08-1.28,0.13-2.05
	c0.21,0.52,0.32,0.81,0.44,1.09c0.07-0.01,0.14-0.02,0.21-0.03c0.06-0.79,0.11-1.58,0.17-2.37c0.04,0,0.08-0.01,0.13-0.01
	c0.09,0.39,0.18,0.78,0.27,1.18c0.07,0,0.13-0.01,0.2-0.01c0.15-0.89,0.3-1.78,0.46-2.68c0.07,0.01,0.13,0.01,0.2,0.02
	c0.06,0.43,0.13,0.85,0.19,1.28c0.08,0,0.16,0.01,0.23,0.01c0.09-0.53,0.19-1.07,0.3-1.73c0.17,0.33,0.28,0.54,0.56,1.1
	c0.22-1.15,0.38-1.97,0.58-2.95c0.15,0.88,0.27,1.57,0.39,2.25c0.55-4.29-1.2-7.63-4.5-8.9c-2.41-0.93-5.05-0.38-6.26,1.31
	c4.5,0.32,5.83,0.87,6.83,2.8c-4.63-2.03-5.93-2.27-7.25-1.35c3.21,0.1,5.07,0.84,6.26,2.59c-2.83-1.22-5.5-2.77-8.52-1.2
	c3.74-0.22,4.67-0.06,6.07,1.24c-0.87-0.26-1.54-0.53-2.24-0.65c-1.83-0.31-3.69-0.73-4.92,1.32c-0.4,0.66-1.05,1.18-1.41,1.86
	c-0.6,1.13-1.01,2.37-1.6,3.51c-0.32,0.62-0.83,1.15-1.3,1.78C179.21,59.65,179.43,59.65,179.66,59.65z M171.49,41.14
	c-0.18,0.15-0.36,0.3-0.63,0.53c4.16,0.15,4.99,0.4,6.19,1.88c-2.19-0.71-4.3-1.74-6.68-0.92c0.48,0.04,0.95,0.08,1.43,0.11
	c-1.97,0.09-3.32,0.88-4.12,2.8c-0.52,1.24-1.48,2.31-2.27,3.5c0.32,0.23,0.59,0.43,0.58,0.42c-0.78,1.02-1.76,1.94-2.31,3.08
	c-1.64,3.36-2.41,6.98-2.57,10.72c-0.11,2.54,1.19,4.35,3.67,4.91c1.06,0.24,2.35,0.29,3.32-0.11c1.01-0.42,1.82-1.42,2.6-2.28
	c0.6-0.66,1.16-1.43,1.47-2.25c0.46-1.18,0.51-2.53,1.04-3.67c0.81-1.76,1.71-3.44,1.51-5.46c0-0.05,0.11-0.1,0.16-0.14
	c0.13,0.24,0.25,0.48,0.52,1.01c0.07-0.89,0.12-1.45,0.18-2.14c0.2,0.27,0.31,0.42,0.53,0.71c0-0.82,0-1.49,0-2.47
	c0.29,0.7,0.46,1.12,0.75,1.85c0.06-0.82,0.1-1.3,0.14-1.78c0.03,0,0.07,0,0.1,0c0.03,0.44,0.07,0.88,0.12,1.5
	c0.46-1.36,0.85-2.54,1.26-3.78c0.06,0.4,0.12,0.78,0.19,1.21c0.4-0.92,0.78-1.76,1.15-2.61c0.06,0.05,0.2,0.15,0.4,0.31
	c0.03-0.5,0.05-0.91,0.07-1.37c0.19,0.26,0.34,0.46,0.52,0.69c0.19-0.63,0.2-1.37,0.57-1.74c0.79-0.77,0.45-1.52,0.21-2.28
	C180.22,39.08,174.69,37.86,171.49,41.14L171.49,41.14z M199.35,121.24c-1.08-0.73-2.16-1.47-3.11-2.1
	c0.01,0.04,0.08,0.31,0.18,0.67c-0.68-0.56-1.24-1.03-2.04-1.69c0.26,1.05,0.43,1.78,0.61,2.51c-0.05,0.02-0.1,0.03-0.15,0.05
	c-0.45-0.98-0.9-1.96-1.35-2.94c-0.07,0.03-0.15,0.06-0.22,0.1c0.1,0.77,0.19,1.55,0.29,2.32c-0.09,0.02-0.19,0.05-0.28,0.07
	c-0.42-1.25-0.83-2.49-1.3-3.89c-0.24,0.67-0.43,1.18-0.67,1.85c-0.13-0.43-0.2-0.64-0.31-1.01c-0.56,1.31-1.04,2.46-1.53,3.61
	c-0.08-0.03-0.15-0.06-0.23-0.09c0.18-0.87,0.37-1.75,0.55-2.62c-0.06-0.01-0.12-0.02-0.18-0.03c-0.74,1.64-1.47,3.29-2.21,4.93
	c-0.04-0.03-0.07-0.05-0.11-0.08c0.59-2.72,1.17-5.44,1.76-8.16c-0.11-0.03-0.22-0.07-0.33-0.1c-0.3,0.58-0.59,1.16-0.89,1.73
	c-0.05-0.03-0.11-0.06-0.16-0.1c0.14-0.74,0.27-1.49,0.41-2.23c-0.08-0.01-0.17-0.02-0.25-0.03c-0.25,0.57-0.5,1.14-0.75,1.7
	c-0.11-0.05-0.22-0.1-0.32-0.15c0.17-0.61,0.35-1.22,0.52-1.83c-0.08-0.03-0.15-0.06-0.23-0.09c-0.3,0.47-0.6,0.94-0.91,1.41
	c-0.06-0.04-0.13-0.07-0.19-0.11c0.3-0.71,0.6-1.42,0.9-2.12c-0.05-0.02-0.1-0.03-0.15-0.05c-0.48,0.73-0.96,1.46-1.44,2.19
	c-0.08-0.06-0.15-0.12-0.23-0.18c0.35-0.85,0.69-1.7,0.91-2.24c-0.47-0.38-0.77-0.63-1.01-0.82c-0.82,0.96-1.66,1.95-2.5,2.93
	c-0.05-0.05-0.09-0.1-0.14-0.15c0.78-1.26,1.56-2.51,2.34-3.77c-0.09-0.05-0.18-0.11-0.27-0.16c-0.66,0.8-1.32,1.6-1.98,2.41
	c-0.07-0.05-0.14-0.1-0.21-0.16c0.46-0.95,0.93-1.89,1.39-2.84c-0.06-0.03-0.12-0.06-0.18-0.08c-0.7,0.85-1.41,1.7-2.11,2.55
	c-0.06-0.06-0.11-0.11-0.17-0.17c0.58-1.03,1.17-2.06,1.75-3.1c-0.06-0.03-0.12-0.07-0.18-0.1c-0.73,0.86-1.47,1.72-2.2,2.59
	c-0.09-0.07-0.18-0.14-0.26-0.22c0.39-0.59,0.82-1.15,1.17-1.76c0.33-0.58,0.58-1.2,0.86-1.8c-0.05-0.01-0.1-0.02-0.15-0.03
	c-0.75,0.83-1.5,1.65-2.26,2.48c-0.07-0.06-0.13-0.12-0.2-0.19c0.62-1,1.23-1.99,1.85-2.99c-0.15-0.13-0.3-0.26-0.46-0.39
	c-0.41,0.6-0.82,1.2-1.22,1.8c-0.08-0.07-0.15-0.13-0.23-0.2c0.43-0.82,0.85-1.65,1.28-2.47c-0.05-0.04-0.11-0.08-0.16-0.12
	c-0.57,0.64-1.14,1.28-1.71,1.92c-0.06-0.04-0.11-0.07-0.17-0.11c0.56-1.04,1.13-2.07,1.69-3.11c-0.07-0.04-0.14-0.08-0.21-0.12
	c-0.42,0.49-0.85,0.97-1.27,1.46c-0.05-0.03-0.1-0.07-0.15-0.1c0.3-0.8,0.6-1.6,0.9-2.39c-0.06-0.02-0.13-0.04-0.19-0.07
	c-0.61,0.84-1.23,1.69-1.84,2.53c-0.06-0.04-0.12-0.09-0.19-0.13c0.53-1.09,1.05-2.18,1.58-3.28c-0.1-0.05-0.19-0.1-0.29-0.15
	c-0.39,0.62-0.78,1.24-1.17,1.86c-0.04-0.02-0.09-0.05-0.13-0.07c0.28-0.81,0.55-1.61,0.83-2.42c-0.08-0.04-0.17-0.07-0.25-0.11
	c-0.36,0.41-0.72,0.81-1.24,1.41c0.28-1.12,0.49-1.98,0.7-2.83c-0.08-0.03-0.16-0.06-0.25-0.1c-0.26,0.49-0.53,0.98-0.79,1.47
	c-0.06-0.02-0.12-0.04-0.17-0.06c0.11-0.65,0.22-1.29,0.39-2.34c-0.58,0.89-0.94,1.44-1.48,2.29c0.22-0.92,0.37-1.52,0.51-2.11
	c-0.06-0.01-0.13-0.03-0.19-0.04c-0.33,0.52-0.66,1.03-1,1.55c-0.06-0.03-0.11-0.05-0.17-0.08c0.27-0.87,0.53-1.73,0.82-2.67
	c-0.36,0.22-0.61,0.38-0.86,0.53c-0.06-0.1-0.12-0.19-0.17-0.29c-0.43,0.56-0.86,1.13-1.29,1.69c-0.05-0.04-0.1-0.08-0.15-0.12
	c0.35-0.9,0.69-1.8,1.04-2.7c-0.08-0.02-0.16-0.04-0.24-0.06c-0.6,0.84-1.2,1.68-1.81,2.52c-0.07-0.05-0.14-0.1-0.21-0.15
	c0.41-0.76,0.82-1.52,1.23-2.28c-0.07-0.04-0.15-0.07-0.22-0.11c-0.51,0.54-1.02,1.08-1.53,1.62c-0.07-0.07-0.14-0.13-0.21-0.2
	c0.44-0.72,0.87-1.44,1.31-2.15c-0.05-0.04-0.11-0.09-0.16-0.13c-0.5,0.55-1,1.1-1.5,1.65c-0.04-0.04-0.07-0.08-0.11-0.11
	c0.18-0.42,0.36-0.83,0.54-1.25c-0.07-0.04-0.13-0.08-0.2-0.12c-0.36,0.41-0.71,0.81-1.07,1.22c-0.05-0.04-0.1-0.09-0.15-0.13
	c0.32-0.55,0.63-1.1,0.95-1.64c-0.05-0.04-0.11-0.07-0.16-0.11c-0.58,0.53-1.15,1.06-1.73,1.59c-0.05-0.05-0.1-0.09-0.14-0.14
	c0.35-0.48,0.7-0.97,1.05-1.45c-0.03-0.03-0.07-0.07-0.1-0.1c-0.62,0.51-1.24,1.02-1.86,1.53c-0.05-0.06-0.11-0.13-0.16-0.19
	c0.26-0.33,0.53-0.66,0.98-1.23c-0.58,0.29-0.87,0.44-1.17,0.58c-0.1-0.08-0.2-0.15-0.31-0.23c0.22-0.37,0.36-0.81,0.66-1.1
	c2-1.95,3.62-4.05,3.23-7.09c-1.09,4.84-3.64,8.21-8.79,9.02c0.66-0.51,1.49-0.82,2.12-1.36c0.53-0.46,0.83-1.18,1.23-1.79
	c0.2-0.31,0.4-0.62,0.59-0.93c-0.27-0.08-0.55-0.17-0.63-0.19c0.3-0.38,0.62-0.77,1-1.25c-0.55-0.07-0.89-0.11-1.46-0.18
	c0.58-0.17,0.92-0.27,1.51-0.45c-0.68-0.19-1.06-0.3-1.75-0.49c0.84-0.1,1.32-0.16,1.91-0.23c-0.62-0.4-1.08-0.7-1.55-1.01
	c0.04-0.08,0.08-0.15,0.12-0.23c0.47,0.13,0.93,0.25,1.4,0.38c0.03-0.05,0.06-0.11,0.09-0.17c-0.29-0.2-0.57-0.4-0.89-0.62
	c0.24-0.13,0.39-0.2,0.43-0.23c-0.71-1.18-1.35-2.26-2-3.34c0.67-0.06,1.28-0.13,1.9-0.16c0.72-0.04,1.55,0.19,2.13-0.1
	c1.48-0.76,3.07-1.08,4.65-1.46c0.67-0.16,1.38-0.23,2.01-0.5c1.38-0.59,2.72-1.28,4.07-1.93c0.06-0.03,0.07-0.13,0.12-0.21
	c-0.21-0.08-0.41-0.15-0.38-0.14c1.47-1.13,3.15-2.19,4.54-3.56c0.94-0.92,1.68-2.19,2.11-3.44c1.01-2.97-0.08-6.09-2.59-6.83
	c-1.41-0.42-3.23-0.29-4.64,0.22c-5.31,1.94-10.53,4.15-15.79,6.25c-1.3,0.52-1.82,1.53-1.62,2.84c0.17,1.11,0.52,2.19,0.8,3.3
	c-0.33-0.42-0.65-0.84-0.98-1.27c-0.07,0.11-0.14,0.21-0.2,0.32c-0.25-0.13-0.5-0.25-0.83-0.42c0.17,0.67,0.32,1.28,0.52,2.06
	c-0.31-0.34-0.51-0.54-0.85-0.91c0,0.6,0.11,1.03-0.02,1.37c-0.57,1.46-1.25,2.89-1.82,4.35c-0.4,1.01-0.64,2.09-1.04,3.1
	c-0.66,1.65-1.46,3.24-2.08,4.91c-0.19,0.51,0.03,1.17,0.07,2.06c-0.81-1.37-0.57-2.43-0.15-3.53c1.65-4.31,3.26-8.62,4.88-12.94
	c0.28-0.76,0.5-1.55,0.74-2.32c-0.35,0.1-0.49,0.28-0.57,0.48c-2.27,5.78-4.55,11.55-6.78,17.35c-0.59,1.52-0.38,3.07,0.39,4.51
	c0.64,1.21,1.35,2.38,2,3.59c2.47,4.59,4.89,9.19,7.41,13.75c0.58,1.06,1.45,1.97,2.15,2.91c-3.7-7.04-7.4-14.07-11.09-21.1
	c0.14-0.08,0.29-0.17,0.43-0.25c1.23,1.62,2.47,3.24,3.68,4.83c-0.17-0.03-0.4-0.07-0.92-0.16c0.88,0.71,1.52,1.24,2.34,1.9
	c-0.46-0.04-0.7-0.05-0.93-0.07c0.66,0.86,1.28,1.71,1.94,2.53c0.21,0.26,0.52,0.43,1,0.82c-0.53-0.07-0.76-0.1-1.25-0.16
	c0.85,0.66,1.5,1.16,2.37,1.84c-0.61-0.07-0.9-0.1-1.46-0.16c0.93,0.67,1.61,1.15,2.3,1.64c-0.02,0.06-0.05,0.11-0.07,0.17
	c-0.34-0.07-0.68-0.15-1.32-0.28c0.83,0.62,1.41,1.05,2.3,1.71c-0.68-0.11-0.91-0.14-1.46-0.23c1.34,0.93,2.42,1.67,3.5,2.42
	c-0.04,0.06-0.07,0.11-0.11,0.17c-0.72-0.35-1.45-0.69-2.17-1.04c-0.04,0.08-0.07,0.16-0.11,0.24c0.92,0.58,1.84,1.16,2.75,1.73
	c-0.04,0.08-0.09,0.16-0.13,0.24c-0.53-0.18-1.06-0.36-1.58-0.53c-0.04,0.08-0.08,0.16-0.11,0.24c1.1,0.57,2.19,1.14,3.29,1.71
	c-0.02,0.07-0.05,0.13-0.07,0.2c-0.71-0.19-1.43-0.39-2.14-0.58c-0.03,0.09-0.05,0.17-0.08,0.26c1.39,0.59,2.78,1.18,4.17,1.77
	c-0.02,0.07-0.05,0.14-0.07,0.21c-0.73-0.17-1.45-0.34-2.18-0.51c-0.03,0.08-0.06,0.16-0.09,0.25c0.73,0.32,1.45,0.63,2.33,1.02
	c-0.47,0.08-0.78,0.14-1.1,0.2c0,0.06-0.01,0.12-0.01,0.18c1.18,0.29,2.37,0.57,3.55,0.86c-0.02,0.08-0.03,0.15-0.05,0.23
	c-0.7-0.07-1.39-0.13-2.09-0.2c-0.02,0.09-0.03,0.17-0.05,0.26c1.07,0.29,2.14,0.57,3.15,0.85c-0.19,0.05-0.45,0.12-0.91,0.23
	c0.46,0.15,0.7,0.22,1.09,0.35c-0.35,0.1-0.58,0.17-0.81,0.24c0.09,0.14,0.19,0.28,0.28,0.42c1.38,0.12,2.77,0.25,4.15,0.37
	c-0.01,0.04-0.01,0.08-0.02,0.12c-0.65,0.1-1.29,0.19-1.94,0.29c0.02,0.11,0.03,0.22,0.05,0.33c0.7,0,1.4,0,2.42,0
	c-0.58,0.29-0.86,0.42-1.13,0.56c0.02,0.05,0.03,0.1,0.05,0.14c0.55-0.06,1.11-0.13,1.77-0.2c-0.18,0.28-0.27,0.41-0.36,0.55
	c0.07,0.14,0.15,0.28,0.22,0.42c2.44-0.98,4.87-1.96,7.12-2.86c-1.62,1.79-3.85,3.03-6.4,3.54c-2.46,0.49-4.98,0.68-7.28,0.97
	c0.44,0.14,1.11,0.36,1.79,0.57c-0.02,0.06-0.03,0.13-0.05,0.19c-1.28,0-2.56,0-3.76,0c0.86,0.44,1.85,0.94,2.84,1.45
	c-0.03,0.06-0.05,0.12-0.08,0.18c-1.33-0.39-2.66-0.78-3.99-1.17c-0.02,0.07-0.04,0.14-0.05,0.21c0.84,0.44,1.68,0.87,2.53,1.31
	c-0.02,0.07-0.05,0.14-0.07,0.2c-1.1-0.31-2.2-0.62-3.3-0.93c-0.02,0.07-0.05,0.13-0.07,0.2c0.85,0.46,1.7,0.91,2.55,1.37
	c-0.03,0.07-0.06,0.15-0.09,0.22c-1.02-0.3-2.05-0.59-3.07-0.89c-0.03,0.06-0.05,0.12-0.08,0.18c0.7,0.44,1.4,0.88,2.09,1.33
	c-0.03,0.06-0.05,0.12-0.08,0.19c-0.77-0.23-1.54-0.46-2.31-0.7c-0.03,0.07-0.05,0.13-0.08,0.2c0.56,0.37,1.12,0.73,1.67,1.1
	c-0.04,0.07-0.09,0.13-0.13,0.2c-0.7-0.27-1.39-0.53-2.09-0.8c-0.03,0.06-0.06,0.11-0.08,0.17c0.47,0.35,0.93,0.69,1.4,1.04
	c-0.04,0.07-0.08,0.13-0.12,0.2c-0.49-0.14-0.98-0.28-1.47-0.42c-0.03,0.06-0.05,0.11-0.08,0.17c0.79,0.54,1.58,1.08,2.37,1.62
	c-0.03,0.05-0.06,0.1-0.08,0.14c-0.76-0.33-1.53-0.67-2.29-1c-0.03,0.05-0.06,0.1-0.08,0.15c0.39,0.35,0.78,0.7,1.18,1.05
	c-0.04,0.05-0.07,0.09-0.11,0.14c-0.52-0.2-1.03-0.39-1.55-0.59c-0.06,0.13-0.13,0.26-0.19,0.4c2.18,1.11,4.36,2.2,6.53,3.33
	c0.42,0.22,0.79,0.55,1.18,0.83c-0.14,0.2-0.27,0.41-0.41,0.61c-3.8-2.03-7.6-4.07-11.39-6.1c8.22,5.58,17.18,9.52,26.75,12.12
	c-1.12-0.44-2.23-0.88-3.35-1.31c0.02-0.06,0.04-0.11,0.05-0.17c1.38,0.24,2.76,0.48,4.15,0.72c0.02-0.09,0.05-0.18,0.07-0.28
	c-1.1-0.38-2.21-0.76-3.31-1.14c0.02-0.07,0.04-0.14,0.06-0.21c1.42,0.19,2.84,0.39,4.26,0.58c0.02-0.08,0.04-0.17,0.06-0.25
	c-1.46-0.41-2.91-0.81-4.37-1.22c0.01-0.06,0.02-0.11,0.03-0.17c1.53,0.16,3.05,0.31,4.58,0.47c0.01-0.08,0.03-0.17,0.04-0.25
	c-1.2-0.37-2.39-0.74-3.59-1.11c0.01-0.05,0.02-0.11,0.03-0.16c1.37,0.14,2.75,0.27,4.12,0.41c0.01-0.08,0.02-0.17,0.03-0.25
	c-1.29-0.37-2.59-0.74-3.88-1.11c0.01-0.06,0.02-0.13,0.03-0.19c1.29,0.15,2.57,0.29,3.86,0.44c0.02-0.08,0.04-0.16,0.05-0.25
	c-1.07-0.37-2.13-0.73-3.2-1.1c0.02-0.06,0.04-0.11,0.05-0.17c1.05,0.1,2.1,0.19,3.15,0.29c0.01-0.07,0.02-0.14,0.03-0.21
	c-1.23-0.41-2.46-0.82-3.69-1.24c0.02-0.07,0.05-0.14,0.07-0.2c1.28,0.18,2.57,0.37,3.85,0.55c0.02-0.09,0.04-0.17,0.06-0.26
	c-1.27-0.4-2.53-0.79-3.8-1.19c0.02-0.08,0.04-0.15,0.06-0.23c1.22,0.18,2.44,0.37,3.67,0.55c0.01-0.06,0.02-0.13,0.03-0.19
	c-1.44-0.48-2.89-0.97-4.33-1.45c0.03-0.11,0.06-0.23,0.09-0.34c1.1,0.29,2.21,0.57,3.31,0.86c0.02-0.07,0.03-0.15,0.05-0.22
	c-1.35-0.58-2.7-1.16-4.05-1.75c0.04-0.09,0.07-0.18,0.11-0.27c0.9,0.28,1.81,0.56,2.71,0.83c0.03-0.07,0.05-0.15,0.08-0.22
	c-0.94-0.5-1.87-0.99-2.81-1.49c0.03-0.06,0.05-0.13,0.08-0.19c0.57,0.16,1.13,0.32,1.88,0.53c-1.33-1.21-2.49-2.27-3.66-3.33
	c0.06-0.06,0.11-0.12,0.17-0.18c0.3,0.16,0.59,0.32,1.17,0.64c-0.35-0.54-0.51-0.79-0.81-1.25c0.91,0.48,1.57,0.83,2.46,1.3
	c-0.32-0.49-0.46-0.71-0.77-1.19c0.59,0.3,0.9,0.45,1.38,0.7c-0.2-0.45-0.31-0.69-0.51-1.12c0.69,0.39,1.19,0.68,1.76,1.01
	c0.02-0.29,0.03-0.48,0.05-0.76c1.25,0.54,2.45,1.05,3.66,1.57c0.03-0.06,0.05-0.12,0.08-0.18c-0.32-0.21-0.64-0.41-0.97-0.62
	c0.02-0.05,0.04-0.09,0.07-0.14c1.46,0.39,2.91,0.77,4.37,1.16c0.01-0.06,0.02-0.12,0.03-0.17c-1.03-0.35-2.06-0.69-3.08-1.04
	c0.02-0.08,0.04-0.15,0.06-0.23c1.53,0.34,3.06,0.68,4.6,1.02c0.02-0.09,0.04-0.17,0.06-0.26c-1.19-0.36-2.38-0.72-3.57-1.08
	c0.01-0.05,0.02-0.09,0.04-0.14c1.97,0.33,3.95,0.66,5.92,1c0.02-0.11,0.03-0.23,0.05-0.34c-1.28-0.26-2.55-0.51-3.83-0.77
	c0.01-0.07,0.02-0.15,0.03-0.22c1.76,0.19,3.52,0.37,5.28,0.56c0.01-0.09,0.02-0.19,0.04-0.28c-1.38-0.28-2.75-0.55-4.13-0.83
	c0.01-0.07,0.03-0.15,0.04-0.22c1.39,0.16,2.79,0.32,4.18,0.47c0.01-0.1,0.03-0.2,0.04-0.29c-0.79-0.19-1.57-0.38-2.36-0.57
	c0.01-0.07,0.03-0.14,0.04-0.22c1.43,0,2.86,0,4.29,0c0-0.08,0.01-0.17,0.01-0.25c-0.99-0.12-1.99-0.25-2.98-0.37
	c0.01-0.1,0.01-0.2,0.02-0.3c1.1,0,2.19,0,3.29,0c0-0.09,0-0.17,0.01-0.26c-0.62-0.1-1.24-0.21-1.87-0.31
	c0-0.05,0.01-0.09,0.01-0.14c0.93-0.05,1.87-0.11,2.8-0.16c-0.01-0.09-0.01-0.17-0.02-0.26c-1-0.17-2.01-0.34-3.01-0.5
	c0-0.11,0.01-0.22,0.01-0.34c1.05,0.12,2.1,0.23,3.16,0.35c0.02-0.13,0.04-0.26,0.06-0.39c-0.73-0.22-1.51-0.34-2.16-0.7
	c-1.11-0.62-2.14-1.39-3.2-2.1c1.02,0.58,2.05,1.15,3.07,1.73c0.05-0.09,0.1-0.18,0.14-0.27c-1.29-0.83-2.59-1.65-3.88-2.48
	c-0.03,0.04-0.05,0.08-0.08,0.11C198.83,120.62,199.09,120.93,199.35,121.24z M198.45,62.9c4.6,1.09,5.21,1.39,6.1,3.17
	c-2.68-1.41-5.29-2.73-8.32-1.59c4.35,0.32,6.78,1.3,7.4,3.1c-3.3-2.09-6.45-2.9-8.12-2c0.38,0.1,0.69,0.18,1.1,0.28
	c-0.94,0.49-2.33,0.08-2.13,1.92c0.08,0.72-1.03,1.56-1.57,2.37c-0.1,0.16-0.04,0.42-0.05,0.49c-1.22,1.92-2.42,3.82-3.6,5.69
	c4.78-0.59,8.3,1.12,10.1,6.08c0.17-0.76,0.29-1.32,0.43-1.96c0.22,0.37,0.4,0.68,0.68,1.15c0.15-0.96,0.26-1.69,0.44-2.82
	c0.15,0.89,0.24,1.38,0.32,1.87c0.09,0,0.18-0.01,0.27-0.01c0.06-0.87,0.12-1.74,0.19-2.87c0.28,0.59,0.44,0.94,0.6,1.28
	c0.07-0.02,0.13-0.04,0.2-0.06c0-1.01,0-2.02,0-3.03c0.04,0,0.09,0,0.13-0.01c0.16,0.64,0.33,1.28,0.49,1.92
	c0.08-0.01,0.16-0.02,0.24-0.03c0.06-0.71,0.11-1.42,0.17-2.12c0.06-0.01,0.12-0.02,0.18-0.04c0.08,0.28,0.16,0.56,0.32,1.13
	c0.14-0.9,0.24-1.48,0.36-2.26c0.22,0.4,0.31,0.57,0.52,0.95c0-0.97,0-1.73,0-2.48c0.06-0.02,0.12-0.04,0.19-0.06
	c0.14,0.39,0.28,0.79,0.52,1.45c0.15-0.82,0.25-1.34,0.37-2.02c0.26,0.35,0.35,0.48,0.63,0.86c0-1.12,0-1.9,0-2.99
	c0.24,0.8,0.39,1.27,0.53,1.75c0.09-0.02,0.18-0.03,0.26-0.05c0-0.92,0-1.84,0-2.75c0.05,0,0.09,0,0.14,0
	c0.12,0.54,0.24,1.08,0.36,1.62c0.09-0.01,0.18-0.02,0.27-0.03c0-1,0-2,0-2.99c0.06,0,0.11,0,0.17,0c0.14,0.46,0.27,0.92,0.41,1.38
	c0.08-0.02,0.17-0.04,0.25-0.06c0-0.94,0-1.88,0-2.82c0.05-0.01,0.09-0.02,0.14-0.02c0.17,0.52,0.33,1.04,0.57,1.8
	c0.66-4.14-1.65-7.68-5.45-8.68c-2.73-0.72-5.62,0.38-6.38,2.43c5.2-0.11,7.72,0.83,7.96,3.01
	C203.65,63.19,201.25,62.27,198.45,62.9z M212.73,115.61c-0.21,0.54-0.34,0.89-0.51,1.32c0.55-0.31,0.97-0.55,1.49-0.84
	c-0.14,0.78-0.24,1.3-0.34,1.83c0.46-0.04,0.92-0.09,1.44-0.14c-0.06,0.26-0.15,0.62-0.27,1.07c0.33-0.18,0.54-0.29,0.86-0.47
	c-0.07,0.45-0.12,0.73-0.17,1.07c0.41-0.2,0.73-0.35,1.26-0.62c-0.34,0.62-0.55,0.99-0.76,1.36c0.05,0.04,0.1,0.09,0.15,0.13
	c0.4-0.31,0.8-0.63,1.07-0.84c0.09,0.54,0.07,1.18,0.33,1.67c0.16,0.3,0.73,0.39,1.11,0.57c0.23,0.45,0.51,0.99,0.79,1.53
	c0.37-0.16,0.7-0.29,1.13-0.47c-0.23,0.52-0.38,0.88-0.63,1.45c0.58-0.39,0.95-0.64,1.57-1.06c-0.35,0.6-0.53,0.9-0.84,1.42
	c0.45-0.16,0.69-0.25,1-0.36c-0.14,0.43-0.24,0.73-0.39,1.17c0.48-0.28,0.79-0.46,1-0.59c0.1,0.63,0.19,1.18,0.3,1.87
	c0.53-0.37,0.84-0.59,1.42-1c-0.26,0.68-0.41,1.06-0.67,1.74c0.55-0.46,0.87-0.72,1.4-1.17c-0.2,0.55-0.32,0.85-0.47,1.28
	c0.4-0.15,0.63-0.24,1.01-0.38c-0.2,0.39-0.33,0.63-0.51,0.97c3.43-1.56,3.95-3.92,1.56-6.48c-3.03-3.24-6.03-6.51-9.06-9.75
	c-2.93-3.14-5.88-6.26-8.87-9.44c-1.73,1.06-3.4,2.07-5.08,3.09c-0.92,0.56-0.93,0.56-0.36,1.19c-0.09,0.28-0.18,0.56-0.34,1.04
	c0.49-0.38,0.78-0.62,1.25-0.99c-0.2,0.65-0.33,1.06-0.5,1.61c0.41-0.17,0.66-0.27,0.98-0.41c-0.08,0.41-0.15,0.72-0.25,1.2
	c0.52-0.4,0.87-0.66,1.42-1.09c-0.2,0.74-0.34,1.25-0.58,2.11c0.56-0.61,0.87-0.94,1.42-1.55c-0.31,0.77-0.48,1.17-0.68,1.68
	c1.04-0.57,1.15,0.18,1.36,0.77c0.2-0.19,0.36-0.33,0.67-0.63c-0.19,0.65-0.31,1.06-0.43,1.47c0.12,0.1,0.25,0.2,0.37,0.3
	c0.18-0.41,0.35-0.82,0.53-1.23c0.09,0.08,0.19,0.17,0.28,0.25c-0.11,0.36-0.23,0.73-0.44,1.39c0.47-0.38,0.7-0.57,1.14-0.93
	c-0.2,0.65-0.31,1.02-0.49,1.6c0.46-0.32,0.73-0.51,1.23-0.86c-0.23,0.58-0.36,0.9-0.56,1.38c0.52-0.3,0.84-0.49,1.03-0.61
	c0,0.53,0,1.05,0,1.57c0.13,0.07,0.26,0.14,0.4,0.2c0.19-0.32,0.38-0.64,0.61-1.02c0,0.67,0,1.19,0,1.82
	c0.35-0.31,0.57-0.51,0.96-0.85c-0.11,0.47-0.18,0.75-0.26,1.11C212.12,115.95,212.32,115.83,212.73,115.61z M202.38,90.32
	c3.75,0.21,5.95,2.33,7.33,6.15c0.65-1.05,1.09-1.77,1.44-2.35c0.02,0.09,0.1,0.42,0.26,1.04c0.2-0.88,0.33-1.44,0.49-2.1
	c0.16,0.34,0.28,0.58,0.37,0.77c0.56-0.85,1.07-1.63,1.59-2.41c0.04,0.07,0.14,0.23,0.3,0.49c0.18-0.55,0.34-1.02,0.53-1.6
	c0.12,0.35,0.19,0.55,0.32,0.93c0.28-0.7,0.5-1.26,0.75-1.91c0.12,0.26,0.21,0.44,0.37,0.79c0.27-0.72,0.47-1.26,0.71-1.88
	c0.14,0.24,0.25,0.42,0.45,0.74c0.33-0.92,0.6-1.67,0.91-2.54c0.12,0.31,0.19,0.5,0.22,0.59c0.31-0.25,0.77-0.46,0.95-0.81
	c0.63-1.23,1.45-2.46,1.68-3.78c0.66-3.75-1.85-7.27-5.58-8.05c-1.47-0.31-2.96-0.34-4.44,0.92c2.52-0.05,4.72,0.14,6.44,1.85
	c-0.81-0.24-1.54-0.69-2.34-0.92c-0.81-0.23-1.68-0.25-2.52-0.37c-0.03,0.13-0.05,0.26-0.08,0.39c2.2,0.55,4.24,1.32,5.2,3.56
	c-1.79-0.97-3.32-2.5-5.64-2.14c2.07,0.87,4.02,1.83,5,4.27c-3.74-2.73-5.01-3.23-7-2.84c3.99,1.55,5.06,2.31,5.37,3.86
	c-1.64-1.48-3.47-2.5-6.07-2.75c0.62,0.38,0.93,0.56,1.55,0.94c-0.95-0.13-1.55-0.21-2.19-0.29c-0.14,0.72-0.26,1.31-0.42,2.12
	c-0.11-0.34-0.13-0.42-0.16-0.51c-0.04-0.1-0.09-0.2-0.22-0.47C207.09,85.5,205.09,88.03,202.38,90.32z M197.73,84.97
	c0.34-1.64,1.04-3.16,0.05-4.78c-1.51-2.47-4.8-4.06-7.64-3.43c-0.7,0.16-1.53,0.58-1.92,1.15c-1.35,1.94-2.5,4.03-3.79,6.01
	c-1.04,1.6-2.21,3.13-3.27,4.72c-0.69,1.04-0.87,2.18-0.44,3.4c1.31,3.68,5.5,4.91,8.46,2.39c1.29-1.1,2.45-2.36,3.56-3.64
	c1.02-1.17,1.88-2.49,2.85-3.71c0.63-0.8,1.34-1.53,2-2.28C197.46,84.65,197.58,84.79,197.73,84.97z M126.18,65.36
	c4.37-5.57,8.61-11.26,13.15-16.68c4.57-5.45,9.45-10.63,14.2-15.93c-0.23-0.14-0.77-0.32-1.05-0.7c-0.64-0.86-1.14-0.62-1.78-0.04
	c-1.85,1.7-3.83,3.27-5.57,5.07c-7.86,8.09-14.31,17.3-20.82,26.4C124.93,64.12,125.54,64.72,126.18,65.36z M206.61,100.83
	c2.34-1.67,3.03-3.2,2.35-5.15c-0.61-1.74-1.71-3.11-3.36-3.99c-2.21-1.18-3.01-0.97-5.02,0.79c-0.64,0.56-1.34,0.93-1.81,1.74
	c-0.25,0.43-1.14,0.48-1.73,0.73c-2.26,0.96-4.24,2.34-5.8,4.24c-1.21,1.47-1.16,3.51-0.02,5.09c1.24,1.72,3.3,2.58,5.01,1.85
	c2.17-0.93,4.34-1.92,6.35-3.14c1.91-1.16,3.62-2.67,5.43-4.03C207.56,99.56,207.09,100.2,206.61,100.83z M160.81,47.32
	c-8.37,5.77-13.31,14.09-18.24,22.51c3.17,1.16,3.17,1.16,4.89-1.25c4.09-5.74,8.39-11.3,13.48-16.21c0.23-0.22,0.39-0.51,0.59-0.77
	c-6.44,4.28-10.23,10.81-14.52,16.64c-0.51,0-0.97-0.13-1.26,0.03c-0.39,0.22-0.64,0.67-1.07,1.14c0.26-1.33,0.14-2.68,0.74-3.54
	c3.96-5.64,7.92-11.31,13.08-15.98c0.72-0.65,1.54-1.19,2.32-1.77c0.11,0.11,0.22,0.23,0.33,0.34c-4.55,3.88-8.56,8.22-11.73,13.29
	c0.9-0.47,1.88-0.9,2.5-1.63c3.11-3.67,6.22-7.32,10.23-10.06c0.13-0.09,0.21-0.27,0.32-0.43C161.93,48.9,161.44,48.2,160.81,47.32z
	 M209.56,100.81c-0.15,0.07-0.3,0.14-0.45,0.22c0.15,0.33,0.22,0.72,0.45,0.97c2.25,2.46,4.53,4.9,6.79,7.36
	c3.83,4.18,7.65,8.36,11.46,12.56c1.34,1.48,1.53,2.86,0.37,4.47c-1.11,1.55-2.38,3.01-3.75,4.33c-1.91,1.82-2.51,1.77-4.55,0.05
	c-7.92-6.69-15.83-13.4-23.76-20.09c-1.18-1-2.43-1.93-3.64-2.89c-0.08,0.09-0.15,0.18-0.23,0.27c0.72,0.68,1.42,1.39,2.17,2.03
	c8.64,7.4,17.3,14.78,25.94,22.18c0.97,0.83,2.01,1.01,2.96,0.15c2.16-1.96,4.28-3.97,6.34-6.04c1.38-1.39,1.32-2.17-0.03-3.64
	c-5.64-6.17-11.29-12.34-16.94-18.51C211.65,103.09,210.6,101.95,209.56,100.81z M216.64,101.15c0.35,0.78,0.63,1.4,1.02,2.28
	c-0.48-0.3-0.65-0.41-0.76-0.48c0.21,1.04,0.4,2.03,0.68,3.41c0.19-1.34,0.35-2.31,0.46-3.28c0.24-2.16,0.3-4.32,2.28-5.9
	c0.7-0.56,1.21-1.72,1.28-2.64c0.18-2.37,0.06-4.76,0.06-7.14c-0.11,0-0.21,0-0.32,0c-1.53,1.89-3.05,3.78-4.69,5.81
	c0.56-0.1,0.99-0.18,1.57-0.29c-0.44,0.36-0.75,0.62-1.37,1.13c0.79-0.26,1.19-0.39,1.89-0.62c-0.65,0.51-1.03,0.81-1.41,1.1
	c0.05,0.06,0.11,0.12,0.16,0.18c0.51-0.24,1.02-0.48,1.54-0.72c0.03,0.06,0.06,0.11,0.09,0.17c-0.45,0.31-0.9,0.63-1.36,0.94
	c0.05,0.07,0.09,0.14,0.14,0.22c0.48-0.17,0.97-0.33,1.59-0.55c-0.21,0.33-0.33,0.51-0.51,0.8c0.51-0.15,0.91-0.28,1.31-0.4
	c-0.48,0.66-1,1.21-1.64,1.5c-0.6,0.27-1.32,0.31-1.99,0.37c-0.68,0.06-1.36,0.01-2.04,0.01c0,0.13-0.01,0.27-0.01,0.4
	c1.34,0.17,2.68,0.35,3.74,0.48c-0.3,0.37-0.89,0.77-0.95,1.24c-0.11,0.78,0.11,1.61,0.2,2.57
	C217.23,101.52,216.99,101.37,216.64,101.15z M159.95,71.52c1.36-0.3,2.66-0.59,3.96-0.88c0.03-0.11,0.05-0.22,0.08-0.33
	c-4.04-1.62-5.08-4.84-4.67-8.88c-2,1.51-4.5,5.05-4.74,6.63c0.45-0.43,0.88-0.83,1.52-1.44c-0.22,0.75-0.37,1.24-0.59,1.96
	c0.48-0.3,0.77-0.47,1.25-0.76c-0.26,0.62-0.42,1-0.58,1.37c0.14,0.11,0.28,0.23,0.42,0.34c0.38-0.51,0.76-1.02,1.29-1.72
	c-0.32,0.84-0.54,1.42-0.85,2.24c0.61-0.44,1-0.72,1.58-1.14c-0.25,0.79-0.43,1.33-0.69,2.17c0.58-0.64,0.95-1.04,1.55-1.7
	c-0.23,0.87-0.37,1.37-0.59,2.17c0.56-0.42,0.87-0.66,1.34-1.01C160.1,70.98,160.04,71.19,159.95,71.52z M167.4,86.28
	c5.61,1.37,10.04-1.35,14.23-4.47c3.41-2.54,5.38-6.33,4.86-8.51C184.05,81.11,176.56,86.13,167.4,86.28z M128.47,65.82
	c2.56,3.15,10.11,5.26,12.84,3.49c-1.94-0.1-3.55-0.19-5.15-0.28c0.01-0.1,0.02-0.2,0.02-0.3c0.76,0,1.52,0,2.16,0
	c-0.21-0.39-0.37-0.68-0.37-0.67c-3.37,0.47-5.88-1.61-8.71-2.37c0.04,0.09,0.13,0.32,0.26,0.66
	C129.07,66.12,128.77,65.97,128.47,65.82z M192.85,147.63c0.9,0.2,1.71,0.38,2.53,0.57c0.02-0.07,0.05-0.14,0.07-0.22
	c-0.51-0.2-1.02-0.41-1.55-0.62c1.45-4.43,2.87-8.78,4.3-13.13c-0.17-0.06-0.33-0.12-0.5-0.18
	C195.82,138.4,194.72,143.05,192.85,147.63z M159.69,45.83c0.5-3.08-2.94-9.52-5.72-10.67c0.8,1.07,1.47,1.95,2.14,2.84
	c-0.08,0.06-0.17,0.12-0.25,0.18c-0.22-0.1-0.44-0.2-0.97-0.43c0.52,0.78,0.84,1.27,1.26,1.9c0.11-0.58,0.17-0.94,0.25-1.39
	c0.61,0.99,1.16,1.86,1.68,2.74c0.09,0.15,0.2,0.42,0.13,0.51c-0.94,1.27,0.42,2.19,0.57,3.29c-0.08-0.64-0.17-1.27-0.25-1.91
	c0.06-0.01,0.12-0.02,0.18-0.03C159.01,43.77,159.32,44.69,159.69,45.83z M189.39,104.64c-0.07,0.07-0.14,0.14-0.21,0.21
	c-4.91-4.83-9.81-9.66-14.72-14.49c-0.02,0.02-0.04,0.04-0.06,0.06C179.39,95.16,184.39,99.9,189.39,104.64z M208.13,74.02
	c-0.15-0.09-0.3-0.17-0.45-0.26c-2.28,3.93-4.55,7.86-6.83,11.79c0.15,0.09,0.3,0.17,0.45,0.26
	C203.58,81.89,205.85,77.95,208.13,74.02z M139.19,31.79c-2.43,1.01-4.41,6.51-3.7,9.47c0.35-0.3,0.76-0.57,1.02-0.94
	c0.14-0.2,0.06-0.82-0.02-0.84c-1.13-0.3-0.54-0.93-0.25-1.39c0.2-0.31,0.63-0.47,0.92-0.67c-0.33-0.31-0.89-0.74-0.85-0.82
	c0.34-0.58,0.79-1.1,1.28-1.71C137.21,34.11,137.56,33.25,139.19,31.79z M161.51,133.21c0.15,0.05,0.3,0.11,0.45,0.16
	c1.23-3.24,2.46-6.48,3.68-9.72c-0.17-0.06-0.33-0.12-0.5-0.18C163.92,126.71,162.33,129.82,161.51,133.21z M133.99,32.64
	c-2.2,1.23-3.51,5.47-2.92,8.72c0.48-0.7,0.9-1.31,1.22-1.79c-0.37-0.13-0.86-0.15-0.96-0.36c-0.66-1.39,0.7-1.55,1.21-2.13
	c-0.18-0.57-0.34-1.17-0.15-1.63C132.76,34.57,133.33,33.77,133.99,32.64z M156.49,77.25c0.1-0.05,0.2-0.11,0.3-0.16
	c-0.08-0.24-0.1-0.54-0.26-0.72c-1.16-1.35-3.29-1.7-3.83-3.71c0-0.01-0.29,0.06-0.52,0.11c0.05-0.28,0.09-0.5,0.11-0.73
	c0.02-0.22,0-0.43,0-0.65c-0.13,0-0.26,0.01-0.39,0.01c0,0.74-0.31,1.79,0.06,2.15C153.35,74.91,154.96,76.04,156.49,77.25z
	 M190.37,69.96c0.13,0.06,0.26,0.12,0.39,0.18c1.32-2.85,2.64-5.71,3.96-8.56c-0.12-0.06-0.24-0.11-0.36-0.17
	C193.03,64.26,191.7,67.11,190.37,69.96z M147.26,70c0.94,0.72,1.82,1.4,2.81,2.16c0.17-0.48,0.3-0.83,0.3-0.84
	c-0.94-0.78-1.73-1.43-2.55-2.1C147.68,69.43,147.5,69.68,147.26,70z M143.26,60.49c0.13-0.1,0.26-0.21,0.38-0.31
	c-1.31-1.63-2.63-3.26-3.94-4.89c-0.1,0.08-0.21,0.17-0.31,0.25C140.68,57.19,141.97,58.84,143.26,60.49z M134.47,38.61
	c-1.18-1.61,0.18-2.81,0.29-4.11c-1.16,1.26-1.33,1.86-1.48,5.09C133.81,39.16,134.23,38.81,134.47,38.61z M141.66,53.83
	c-0.1,0.07-0.2,0.15-0.29,0.22c1.59,3.12,2.09,3.76,3.12,4.04C143.57,56.71,142.61,55.27,141.66,53.83z M137.89,39.58
	c0.37-0.29,0.74-0.58,1.04-0.81c-0.21-0.18-0.56-0.4-0.53-0.47c0.26-0.68,0.58-1.33,0.87-1.98
	C138.13,36.05,137.78,36.81,137.89,39.58z M179.92,52.62c-0.1-0.07-0.19-0.14-0.29-0.21c-0.88,1.89-1.75,3.77-2.63,5.66
	c0.09,0.04,0.19,0.09,0.28,0.13C178.16,56.34,179.04,54.48,179.92,52.62z M226.13,132.2c0.09,0.08,0.18,0.16,0.26,0.25
	c1.19-1.28,2.39-2.56,3.58-3.84c-0.07-0.07-0.15-0.14-0.22-0.21C228.55,129.66,227.34,130.93,226.13,132.2z M121.41,49.75
	c-0.26,1.71,0.55,3.05,1.58,4.71C122.38,52.66,121.89,51.2,121.41,49.75z M146.19,56.27c-0.89-1.24-1.68-2.33-2.52-3.5
	c-0.24,0.22-0.42,0.39-0.45,0.41c0.54,0.62,1.03,1.14,1.46,1.7C145.11,55.43,145.1,56.48,146.19,56.27z M129.85,49.46
	c0.11-0.03,0.22-0.07,0.32-0.1c-0.3-1.43-0.6-2.87-0.9-4.3c-0.14,0.03-0.28,0.06-0.42,0.09C129.18,46.58,129.52,48.02,129.85,49.46z
	 M156.49,43.59c-0.16,0.05-0.32,0.1-0.48,0.16c0.45,1.19,0.9,2.37,1.35,3.56c0.09-0.03,0.19-0.06,0.28-0.09
	C157.26,46.01,156.88,44.8,156.49,43.59z M148.77,52.51c-0.69,0.29-1.25,0.5-1.79,0.76c-0.23,0.11-0.46,0.29-0.59,0.49
	c-0.07,0.11,0.06,0.35,0.1,0.53c0.21-0.12,0.42-0.25,0.63-0.36c0.63-0.32,1.26-0.64,1.95-0.98
	C148.92,52.72,148.75,52.48,148.77,52.51z M122.76,42.38c-1.05,1.28-1.05,2.76-0.7,4.46C122.31,45.24,122.54,43.79,122.76,42.38z
	 M125.87,46.87c-0.17,0.04-0.33,0.08-0.5,0.12c0.39,1.21,0.78,2.43,1.17,3.64c0.06-0.02,0.13-0.04,0.19-0.06
	C126.45,49.34,126.16,48.1,125.87,46.87z M171.49,41.14c2.24,0.37,4.49,0.74,6.48,1.07c0.15,0.18,0.06,0.04-0.06-0.07
	C175.98,40.42,173.79,40.45,171.49,41.14C171.49,41.14,171.49,41.14,171.49,41.14z M179.62,59.69c2.41-0.34,4.59,0.43,6.73,1.37
	C184.36,59.36,182.09,59.01,179.62,59.69z M134.71,52.51c-1.72,2.2-3.45,4.4-5.17,6.59c-0.07-0.06-0.15-0.11-0.22-0.17
	c0.22-0.44,0.44-0.89,0.66-1.33c-1.84,1.53-3.42,3.2-4.31,5.86c0.55-0.43,0.78-0.62,1.1-0.87c0,0.35,0,0.61,0,1.31
	c2.91-3.94,5.58-7.55,8.25-11.16C134.91,52.66,134.81,52.59,134.71,52.51z M183.84,71.42c0.09,2.27-0.93,3.87-3.02,4.73
	c-1.6,0.66-3.19,1.41-4.86,1.82c-3.84,0.95-7.43-2.88-6.27-6.66c0.14-0.46,0.74-0.91,1.23-1.11c2.57-1.07,5.16-2.11,7.77-3.05
	c3.03-1.09,5,0.33,5.14,3.58C183.85,70.96,183.84,71.19,183.84,71.42z M182.65,71.5c-0.04-0.26-0.08-0.63-0.15-0.99
	c-0.49-2.58-1.35-3.05-3.82-2.09c-2.04,0.8-4.07,1.62-6.1,2.44c-2.16,0.87-2.32,1.34-1.23,3.46c1.09,2.11,2.75,3.07,4.47,2.44
	c1.63-0.59,3.22-1.29,4.8-1.99C181.99,74.17,182.55,73.02,182.65,71.5z M166.87,66.95c-2.86,0.02-5.33-1.38-4.37-4.77
	c0.3-1.05,0.44-2.15,0.76-3.19c0.56-1.8,1.84-2.62,3.75-2.51c2.1,0.12,3.28,1.11,3.69,3c0.43,2.02-0.15,3.9-0.9,5.7
	C169.2,66.6,167.84,66.97,166.87,66.95z M169.54,60.74c0.07-2-0.54-2.82-2.31-3.04c-1.78-0.23-2.55,0.37-2.99,2.35
	c-0.22,1.02-0.41,2.06-0.63,3.08c-0.23,1.06,0.19,1.76,1.13,2.22c1.85,0.91,4.22-0.3,4.5-2.3C169.35,62.27,169.45,61.5,169.54,60.74
	z M186.63,84.09c0.86,0.24,2.09,0.32,3.03,0.89c2.16,1.31,2.23,4,0.37,6.77c-1.84,2.75-3.75,3.37-6.03,1.95
	c-0.42-0.26-0.84-0.56-1.22-0.88c-1.11-0.93-1.54-2.2-0.83-3.42c1-1.72,2.27-3.28,3.46-4.87C185.57,84.33,185.97,84.32,186.63,84.09
	z M190.18,87.81c-0.09-1.09-0.96-1.83-2.1-2.35c-1.04-0.47-1.77,0.06-2.38,0.81c-0.81,0.99-1.7,1.95-2.29,3.07
	c-0.32,0.6-0.37,1.77,0,2.21c0.6,0.69,1.69,1.41,2.53,1.37C187.96,92.81,190.14,90.08,190.18,87.81z M191.6,101.45
	c-0.01-2.04,4.58-5.7,6.53-5.21c1.93,0.48,3.21,3.47,2.19,5.27c-0.93,1.64-2.37,2.79-4.11,3.44
	C194.08,105.73,191.61,103.81,191.6,101.45z M192.87,101.34c-0.02,1.28,1.15,2.59,2.05,2.42c1.85-0.35,3.33-1.36,4.19-2.98
	c0.33-0.61,0.12-1.67-0.17-2.39c-0.18-0.45-1.24-1.03-1.46-0.88c-1.55,1.01-3,2.19-4.45,3.34
	C192.88,100.95,192.89,101.25,192.87,101.34z"/>
</svg>
