<?xml version="1.0" encoding="utf-8"?>
<!-- Generator: Adobe Illustrator 27.8.1, SVG Export Plug-In . SVG Version: 6.00 Build 0)  -->
<svg version="1.1" id="Layer_1" xmlns="http://www.w3.org/2000/svg" xmlns:xlink="http://www.w3.org/1999/xlink" x="0px" y="0px"
	 viewBox="0 0 350 230" style="enable-background:new 0 0 350 230;" xml:space="preserve">
<style type="text/css">
	.st0{fill:#FFFFC5;}
	.st1{fill:#D2FFF1;}
	.st2{fill:#E7FFCF;}
	.st3{fill:#EBFFFF;}
	.st4{fill:#FCE9FF;}
	.st5{fill:#F0FBFF;}
	.st6{fill:#FEFFE9;}
	.st7{fill:#F3FFEE;}
	.st8{fill:#FFFCEE;}
	.st9{fill:#FFFFEE;}
	.st10{fill:#EEFFF1;}
	.st11{fill:#2F2F3F;}
	.st12{fill:#02028C;}
	.st13{fill:#F5F5F5;}
	.st14{fill:#023C44;}
	.st15{fill:#022231;}
	.st16{fill:#FFFFFF;}
	.st17{fill:#53C2BB;}
	.st18{fill:#FF680D;}
	.st19{fill:#00EDFF;}
	.st20{fill:#213000;}
	.st21{fill:#FFB034;}
	.st22{fill:#00556A;}
	.st23{fill:#380C00;}
	.st24{fill:#00556A;stroke:#FFFFFF;stroke-width:0.5;stroke-miterlimit:10;}
	.st25{fill:#D40B00;}
	.st26{fill:#494949;}
	.st27{fill:#259AAB;}
	.st28{fill:#3DAEB7;}
	.st29{fill:#065652;}
	.st30{fill:#A8C6E9;}
	.st31{fill:#3F0101;}
	.st32{fill:#80C445;}
	.st33{fill:#F4D4AE;}
	.st34{fill:#E95454;}
	.st35{fill:#760689;}
	.st36{fill:#DEBFFF;}
	.st37{fill:url(#SVGID_1_);}
	.st38{fill:url(#SVGID_00000013182763249301729300000005330046675442813870_);}
	.st39{fill:url(#_x3C_Compound_Path_x3E__Music_Icon_00000075123761148904891450000016949828360674527158_);}
	.st40{opacity:0.3;fill:url(#_x3C_Compound_Path_x3E__Music_Shades_00000119112060549515380170000015633185929725255351_);}
	.st41{opacity:0.8;fill:#FFFFFF;}
	.st42{fill:#293767;}
	.st43{fill:#F5F5F6;}
	.st44{fill:#021284;}
	.st45{fill:#751616;}
	.st46{fill:url(#SVGID_00000171684568360844823180000000376709857703551389_);}
	.st47{fill:#0000A2;}
	.st48{fill:#00833F;}
	.st49{fill:#6B1800;}
	.st50{fill:#7A0334;}
	.st51{fill:#002066;}
	.st52{fill:#5E5700;}
	.st53{fill:#350033;}
	.st54{fill:#875F74;}
	.st55{fill:#003035;}
	.st56{fill:#3659FF;}
	.st57{fill:#9B8F00;}
	.st58{fill:#4C1200;}
	.st59{fill:#016A72;}
	.st60{fill:#FF0000;}
	.st61{fill:#005C68;}
	.st62{fill:#4A0075;}
	.st63{fill:url(#SVGID_00000076599199152037737110000005774078549917640095_);}
	.st64{fill:#228DC9;}
	.st65{fill:#551700;}
	.st66{fill:#C10073;}
	.st67{fill:#00C2E0;}
	.st68{fill:#012F4C;}
	.st69{fill:#300018;}
	.st70{fill-rule:evenodd;clip-rule:evenodd;fill:#6D3C5B;}
	.st71{fill-rule:evenodd;clip-rule:evenodd;fill:#020242;}
	.st72{fill:#00E1FF;}
	.st73{fill:#680040;}
	.st74{fill:#8E8700;}
	.st75{fill:#220247;}
	.st76{fill:#0086FF;}
	.st77{fill:#7C4F00;}
	.st78{fill:#520000;}
	.st79{fill:url(#SVGID_00000109737485114451339340000009135550954160163755_);}
	.st80{fill:#04A8CB;}
	.st81{fill:#18618B;}
	.st82{fill:#958C00;}
	.st83{fill:#B0261C;}
	.st84{fill:#296262;}
	.st85{fill:#5C5E00;}
	.st86{fill:#55B1C8;}
	.st87{fill:#918C34;}
	.st88{fill:#590068;}
	.st89{fill:#F94351;}
	.st90{fill:#9B001A;}
	.st91{fill:#000066;}
	.st92{fill:#636568;}
	.st93{fill:#002544;}
	.st94{fill:#723300;}
	.st95{fill:url(#SVGID_00000039835503705955390300000009664341857747890594_);}
	.st96{fill:#F393BD;}
	.st97{fill:url(#SVGID_00000109733854581388612380000006480452667791147671_);}
	.st98{fill:#011354;}
	.st99{fill:#38011B;}
	.st100{fill-rule:evenodd;clip-rule:evenodd;fill:#2365A6;}
	.st101{fill:#351B01;}
	.st102{fill-rule:evenodd;clip-rule:evenodd;fill:#351B01;}
	.st103{fill:#008294;}
	.st104{fill:#02484C;}
	.st105{fill:none;stroke:#02484C;stroke-width:4;stroke-miterlimit:10;}
	.st106{fill:#8E0073;}
	.st107{fill:#013147;}
	.st108{fill:#CD11A1;}
	.st109{fill:#750000;}
	.st110{fill:#020242;}
	.st111{fill:#FFB000;}
	.st112{fill:#340038;}
	.st113{fill:#54004C;}
	.st114{fill:#020202;}
	.st115{fill:url(#SVGID_00000182497637244901165740000000389597097188539014_);}
	.st116{fill:#490000;}
	.st117{fill:#9B001E;}
	.st118{fill:#3A0603;}
	.st119{fill:#31E7FF;}
	.st120{fill:#F5F5F5;stroke:#404040;stroke-width:2;stroke-miterlimit:10;}
	.st121{fill:#49BDC9;}
	.st122{fill:none;stroke:#FFFFFF;stroke-miterlimit:10;}
</style>
<g>
	<path class="st85" d="M174.82,122.62c-4.1-4.24-8.13-8.49-12.26-12.64c-6.4-6.43-12.85-12.82-19.33-19.17
		c-0.91-0.89-1.12-1.74-0.88-2.94c1.4-7.18,5.7-12.39,11.44-16.5c7.08-5.06,14.97-8.13,23.78-7.18
		c11.97,1.29,21.62,6.73,28.02,17.25c0.37,0.61,0.67,1.27,0.95,1.93c2.16,5.1,2.07,5.71-1.8,9.57c-9.63,9.62-19.3,19.2-28.95,28.8
		C175.6,121.94,175.39,122.11,174.82,122.62z M146.18,89.5c9.77-7.41,19.31-14.65,29.13-22.1C161.39,67.04,148.05,77.18,146.18,89.5
		z M174.91,43.34c26.06-0.11,47.48,19.57,50.33,44.72c0.28-17.9-6.37-32.67-21.16-42.93c-17.14-11.89-35.56-12.87-53.73-2.65
		c-17.6,9.9-25.53,25.82-25.4,45.83C127.91,62.66,149.33,43.45,174.91,43.34z"/>
	<path class="st86" d="M136.93,89.82l0.15,0.15l0.33,0.33l3.32,3.25l33.54,32.78l0.06,0.06l0.32,0.31l0.16,0.16l0.01,0.01
		 M174.81,126.85l-0.16-0.16l-0.32-0.31l-0.06-0.06l-33.54-32.78l-3.32-3.25l-0.33-0.33l-0.15-0.15l-0.52,0.53
		c-0.35,3.66-0.07,7.08,0.67,10.47c0.1,0.46,0.21,0.93,0.33,1.39c0.09,0.35,0.18,0.69,0.28,1.04c0.67,2.35,1.58,4.56,2.71,6.64
		c0.11,0.21,0.22,0.41,0.33,0.61c6.59,11.64,19.78,18.52,33.56,16.89l0.51-0.52V126.85L174.81,126.85z M174.81,126.1
		c-0.07,0.08-0.14,0.15-0.2,0.23l0.2,0.21l0.2-0.21L174.81,126.1z M174.97,126.69L174.97,126.69l0.26-0.26L174.97,126.69z
		 M212.69,89.82l-3.32,3.25l-34.13,33.37l0,0l-0.26,0.26l-0.16,0.16l-0.01,0.01 M174.64,126.7L174.64,126.7l-0.31-0.32L174.64,126.7
		z M174.75,124.68c-0.67,0.77-1.38,1.55-2.05,2.28l2.05,2.08l2.02-2.08L174.75,124.68z M213.21,90.36l-0.52-0.53l-3.32,3.25
		l-34.13,33.37l0,0l-0.26,0.26l-0.16,0.16l-0.01,0.01l0.01,0.01l0.51,0.52c4.52,0.54,8.7,0.1,12.93-0.99
		c9.35-2.45,16.83-8.7,21.12-16.76c1.53-2.89,2.66-6.01,3.32-9.26C213.34,97.15,213.54,93.78,213.21,90.36z M212.69,89.83v65.58
		 M212.69,89.82l-3.32,3.25v62.34h6.64V89.82H212.69z M137.08,89.97v0.33v10.53v1.39v53.19 M137.08,90.3v-0.33l-0.15-0.15h-3.17
		v65.58h6.64V93.54L137.08,90.3z M140.4,145.21c-0.94-0.95-2.06-1.72-3.32-2.23c-1.03-0.43-2.15-0.68-3.32-0.72
		c-0.14-0.01-0.28-0.01-0.42-0.01c-5.47,0-9.9,4.43-9.9,9.9c0,5.47,4.43,9.9,9.9,9.9c5.47,0,9.9-4.43,9.9-9.9
		C143.24,149.45,142.16,147,140.4,145.21z M124.59,151.25l8.23,9.56C125.66,160.12,124.59,151.25,124.59,151.25z M216.67,142.25
		c-0.22,0-0.44,0.01-0.65,0.02c-1.18,0.08-2.3,0.36-3.32,0.81c-1.27,0.55-2.4,1.37-3.32,2.38c-1.62,1.76-2.6,4.11-2.6,6.69
		c0,5.47,4.43,9.9,9.9,9.9c5.47,0,9.9-4.43,9.9-9.9C226.56,146.68,222.13,142.25,216.67,142.25z M217.35,160.81l8.23-9.56
		C225.58,151.25,224.51,160.12,217.35,160.81z"/>
</g>
</svg>
