<?xml version="1.0" encoding="utf-8"?>
<!-- Generator: Adobe Illustrator 27.8.1, SVG Export Plug-In . SVG Version: 6.00 Build 0)  -->
<svg version="1.1" id="Layer_1" xmlns="http://www.w3.org/2000/svg" xmlns:xlink="http://www.w3.org/1999/xlink" x="0px" y="0px"
	 viewBox="0 0 350 230" style="enable-background:new 0 0 350 230;" xml:space="preserve">
<style type="text/css">
	.st0{fill:#FFFFC5;}
	.st1{fill:#D2FFF1;}
	.st2{fill:#E7FFCF;}
	.st3{fill:#EBFFFF;}
	.st4{fill:#FCE9FF;}
	.st5{fill:#F0FBFF;}
	.st6{fill:#FEFFE9;}
	.st7{fill:#F3FFEE;}
	.st8{fill:#FFFCEE;}
	.st9{fill:#FFFFEE;}
	.st10{fill:#EEFFF1;}
	.st11{fill:#2F2F3F;}
	.st12{fill:#02028C;}
	.st13{fill:#F5F5F5;}
	.st14{fill:#023C44;}
	.st15{fill:#022231;}
	.st16{fill:#FFFFFF;}
	.st17{fill:#53C2BB;}
	.st18{fill:#FF680D;}
	.st19{fill:#00EDFF;}
	.st20{fill:#213000;}
	.st21{fill:#FFB034;}
	.st22{fill:#00556A;}
	.st23{fill:#380C00;}
	.st24{fill:#00556A;stroke:#FFFFFF;stroke-width:0.5;stroke-miterlimit:10;}
	.st25{fill:#D40B00;}
	.st26{fill:#494949;}
	.st27{fill:#259AAB;}
	.st28{fill:#3DAEB7;}
	.st29{fill:#065652;}
	.st30{fill:#A8C6E9;}
	.st31{fill:#3F0101;}
	.st32{fill:#80C445;}
	.st33{fill:#F4D4AE;}
	.st34{fill:#E95454;}
	.st35{fill:#760689;}
	.st36{fill:#DEBFFF;}
	.st37{fill:url(#SVGID_1_);}
	.st38{fill:url(#SVGID_00000171692720059052850230000007611879334209144463_);}
	.st39{fill:url(#_x3C_Compound_Path_x3E__Music_Icon_00000070096176377609507000000012435405066606990519_);}
	.st40{opacity:0.3;fill:url(#_x3C_Compound_Path_x3E__Music_Shades_00000098193658528293197770000015820638470783727016_);}
	.st41{opacity:0.8;fill:#FFFFFF;}
	.st42{fill:#293767;}
	.st43{fill:#F5F5F6;}
	.st44{fill:#021284;}
	.st45{fill:#751616;}
	.st46{fill:url(#SVGID_00000176741067223546658030000003381769453143013305_);}
	.st47{fill:#0000A2;}
	.st48{fill:#00833F;}
	.st49{fill:#6B1800;}
	.st50{fill:#7A0334;}
	.st51{fill:#002066;}
	.st52{fill:#5E5700;}
	.st53{fill:#350033;}
	.st54{fill:#875F74;}
	.st55{fill:#003035;}
	.st56{fill:#3659FF;}
	.st57{fill:#9B8F00;}
	.st58{fill:#4C1200;}
	.st59{fill:#016A72;}
	.st60{fill:#FF0000;}
	.st61{fill:#005C68;}
	.st62{fill:#4A0075;}
	.st63{fill:url(#SVGID_00000183943253216596741520000004436940601241950877_);}
	.st64{fill:#228DC9;}
	.st65{fill:#551700;}
	.st66{fill:#C10073;}
	.st67{fill:#00C2E0;}
	.st68{fill:#012F4C;}
	.st69{fill:#300018;}
	.st70{fill-rule:evenodd;clip-rule:evenodd;fill:#6D3C5B;}
	.st71{fill-rule:evenodd;clip-rule:evenodd;fill:#020242;}
	.st72{fill:#00E1FF;}
	.st73{fill:#680040;}
	.st74{fill:#8E8700;}
	.st75{fill:#220247;}
	.st76{fill:#0086FF;}
	.st77{fill:#7C4F00;}
	.st78{fill:#520000;}
	.st79{fill:url(#SVGID_00000003789478356504470460000008473181044251582372_);}
	.st80{fill:#04A8CB;}
	.st81{fill:#18618B;}
	.st82{fill:#958C00;}
	.st83{fill:#B0261C;}
	.st84{fill:#296262;}
	.st85{fill:#5C5E00;}
	.st86{fill:#55B1C8;}
	.st87{fill:#918C34;}
	.st88{fill:#590068;}
	.st89{fill:#F94351;}
	.st90{fill:#9B001A;}
	.st91{fill:#000066;}
	.st92{fill:#636568;}
	.st93{fill:#002544;}
	.st94{fill:#723300;}
	.st95{fill:url(#SVGID_00000072260904140544283380000013697383275991241354_);}
	.st96{fill:#F393BD;}
	.st97{fill:url(#SVGID_00000076569391261477681810000011179567013528998025_);}
	.st98{fill:#011354;}
	.st99{fill:#38011B;}
	.st100{fill-rule:evenodd;clip-rule:evenodd;fill:#2365A6;}
	.st101{fill:#351B01;}
	.st102{fill-rule:evenodd;clip-rule:evenodd;fill:#351B01;}
	.st103{fill:#008294;}
	.st104{fill:#02484C;}
	.st105{fill:none;stroke:#02484C;stroke-width:4;stroke-miterlimit:10;}
	.st106{fill:#8E0073;}
	.st107{fill:#013147;}
	.st108{fill:#CD11A1;}
	.st109{fill:#750000;}
	.st110{fill:#020242;}
	.st111{fill:#FFB000;}
	.st112{fill:#340038;}
	.st113{fill:#54004C;}
	.st114{fill:#020202;}
	.st115{fill:url(#SVGID_00000142880414004508285000000002925708296943719338_);}
	.st116{fill:#490000;}
	.st117{fill:#9B001E;}
	.st118{fill:#3A0603;}
	.st119{fill:#31E7FF;}
	.st120{fill:#F5F5F5;stroke:#404040;stroke-width:2;stroke-miterlimit:10;}
	.st121{fill:#49BDC9;}
	.st122{fill:none;stroke:#FFFFFF;stroke-miterlimit:10;}
</style>
<g id="Logo">
	<path class="st111" d="M231.62,68.24c-1.12-1.09-2.92-1.07-4.01,0.05l-5.55,5.7c-5.6-2.77-12.28,1.29-12.28,7.63
		c0,1.33,0.3,2.58,0.85,3.7l-12.16,12.9l1.12,6.98l15.07-15.89c5.62,2.67,12.15-1.45,12.15-7.7c0-1.27-0.28-2.48-0.78-3.56
		l5.66-5.81C232.77,71.13,232.74,69.33,231.62,68.24z M218.29,84.47c-1.57,0-2.84-1.27-2.84-2.84c0-1.57,1.27-2.84,2.84-2.84
		c1.57,0,2.84,1.27,2.84,2.84C221.12,83.19,219.85,84.47,218.29,84.47z M128.88,161.1h11.35v5.68h-11.35V161.1z M179.97,161.1h11.35
		v5.68h-11.35V161.1z M168.61,108.59c0-1.57-1.27-2.84-2.84-2.84h-2.84v-5.68h2.84c1.57,0,2.84-1.27,2.84-2.84s-1.27-2.84-2.84-2.84
		h-2.84v-5.68h2.84c1.57,0,2.84-1.27,2.84-2.84s-1.27-2.84-2.84-2.84h-2.84v-5.68h2.84c1.57,0,2.84-1.27,2.84-2.84
		c0-1.57-1.27-2.84-2.84-2.84h-2.84v-5.68h2.84c1.57,0,2.84-1.27,2.84-2.84s-1.27-2.84-2.84-2.84h-11.35
		c-1.57,0-2.84,1.27-2.84,2.84s1.27,2.84,2.84,2.84h2.84v5.68h-2.84c-1.57,0-2.84,1.27-2.84,2.84c0,1.57,1.27,2.84,2.84,2.84h2.84
		v5.68h-2.84c-1.57,0-2.84,1.27-2.84,2.84s1.27,2.84,2.84,2.84h2.84v5.68h-2.84c-1.57,0-2.84,1.27-2.84,2.84s1.27,2.84,2.84,2.84
		h2.84v5.68h-2.84c-1.57,0-2.84,1.27-2.84,2.84s1.27,2.84,2.84,2.84h2.84v9.93h-11.35V50.41h28.38v70.96h-11.35v-9.93h2.84
		C167.34,111.43,168.61,110.16,168.61,108.59z"/>
	<path class="st116" d="M140.23,121.37h-22.19c12.69-75.89,11.79-70.41,11.84-70.96h10.35V121.37z M189.32,38.44
		c-0.31-2.89-2.74-5.06-5.64-5.06h-47.05c-2.95,0-5.38,2.21-5.65,5.15c-0.24,2.57-0.43,4.6-0.58,6.2h59.6L189.32,38.44z
		 M179.97,50.41v66.81l18.49-18.99c-5.12-31.77-7.01-43.5-7.7-47.83H179.97z M117.52,127.04h85.15v28.38c-26.02,0-60.45,0-85.15,0
		V127.04z M134.55,135.56c0,1.57,1.27,2.84,2.84,2.84h42.58c1.57,0,2.84-1.27,2.84-2.84s-1.27-2.84-2.84-2.84h-42.58
		C135.82,132.72,134.55,133.99,134.55,135.56z M134.55,146.91c0,1.57,1.27,2.84,2.84,2.84h42.58c1.57,0,2.84-1.27,2.84-2.84
		c0-1.57-1.27-2.84-2.84-2.84h-42.58C135.82,144.07,134.55,145.34,134.55,146.91z M202.18,121.37c-0.94-5.84-1.8-11.21-2.6-16.15
		l-15.73,16.15H202.18z"/>
</g>
</svg>
