<?xml version="1.0" encoding="utf-8"?>
<!-- Generator: Adobe Illustrator 27.8.1, SVG Export Plug-In . SVG Version: 6.00 Build 0)  -->
<svg version="1.1" id="Layer_1" xmlns="http://www.w3.org/2000/svg" xmlns:xlink="http://www.w3.org/1999/xlink" x="0px" y="0px"
	 viewBox="0 0 350 230" style="enable-background:new 0 0 350 230;" xml:space="preserve">
<style type="text/css">
	.st0{fill:#FFFFC5;}
	.st1{fill:#D2FFF1;}
	.st2{fill:#E7FFCF;}
	.st3{fill:#EBFFFF;}
	.st4{fill:#FCE9FF;}
	.st5{fill:#F0FBFF;}
	.st6{fill:#FEFFE9;}
	.st7{fill:#F3FFEE;}
	.st8{fill:#FFFCEE;}
	.st9{fill:#FFFFEE;}
	.st10{fill:#EEFFF1;}
	.st11{fill:#2F2F3F;}
	.st12{fill:#02028C;}
	.st13{fill:#F5F5F5;}
	.st14{fill:#023C44;}
	.st15{fill:#022231;}
	.st16{fill:#FFFFFF;}
	.st17{fill:#53C2BB;}
	.st18{fill:#FF680D;}
	.st19{fill:#00EDFF;}
	.st20{fill:#213000;}
	.st21{fill:#FFB034;}
	.st22{fill:#00556A;}
	.st23{fill:#380C00;}
	.st24{fill:#00556A;stroke:#FFFFFF;stroke-width:0.5;stroke-miterlimit:10;}
	.st25{fill:#D40B00;}
	.st26{fill:#494949;}
	.st27{fill:#259AAB;}
	.st28{fill:#3DAEB7;}
	.st29{fill:#065652;}
	.st30{fill:#A8C6E9;}
	.st31{fill:#3F0101;}
	.st32{fill:#80C445;}
	.st33{fill:#F4D4AE;}
	.st34{fill:#E95454;}
	.st35{fill:#760689;}
	.st36{fill:#DEBFFF;}
	.st37{fill:url(#SVGID_1_);}
	.st38{fill:url(#SVGID_00000142856858297783084860000003942123327543232945_);}
	.st39{fill:url(#_x3C_Compound_Path_x3E__Music_Icon_00000159450680235328616530000014310425652019796367_);}
	.st40{opacity:0.3;fill:url(#_x3C_Compound_Path_x3E__Music_Shades_00000142162975014486437960000003239756156869041029_);}
	.st41{opacity:0.8;fill:#FFFFFF;}
	.st42{fill:#293767;}
	.st43{fill:#F5F5F6;}
	.st44{fill:#021284;}
	.st45{fill:#751616;}
	.st46{fill:url(#SVGID_00000172420693710898761210000016058534719413845666_);}
	.st47{fill:#0000A2;}
	.st48{fill:#00833F;}
	.st49{fill:#6B1800;}
	.st50{fill:#7A0334;}
	.st51{fill:#002066;}
	.st52{fill:#5E5700;}
	.st53{fill:#350033;}
	.st54{fill:#875F74;}
	.st55{fill:#003035;}
	.st56{fill:#3659FF;}
	.st57{fill:#9B8F00;}
	.st58{fill:#4C1200;}
	.st59{fill:#016A72;}
	.st60{fill:#FF0000;}
	.st61{fill:#005C68;}
	.st62{fill:#4A0075;}
	.st63{fill:url(#SVGID_00000078759316845798138820000008283575401674601619_);}
	.st64{fill:#228DC9;}
	.st65{fill:#551700;}
	.st66{fill:#C10073;}
	.st67{fill:#00C2E0;}
	.st68{fill:#012F4C;}
	.st69{fill:#300018;}
	.st70{fill-rule:evenodd;clip-rule:evenodd;fill:#6D3C5B;}
	.st71{fill-rule:evenodd;clip-rule:evenodd;fill:#020242;}
	.st72{fill:#00E1FF;}
	.st73{fill:#680040;}
	.st74{fill:#8E8700;}
	.st75{fill:#220247;}
	.st76{fill:#0086FF;}
	.st77{fill:#7C4F00;}
	.st78{fill:#520000;}
	.st79{fill:url(#SVGID_00000099644843459177878400000017383519124146062780_);}
	.st80{fill:#04A8CB;}
	.st81{fill:#18618B;}
	.st82{fill:#958C00;}
	.st83{fill:#B0261C;}
	.st84{fill:#296262;}
	.st85{fill:#5C5E00;}
	.st86{fill:#55B1C8;}
	.st87{fill:#918C34;}
	.st88{fill:#590068;}
	.st89{fill:#F94351;}
	.st90{fill:#9B001A;}
	.st91{fill:#000066;}
	.st92{fill:#636568;}
	.st93{fill:#002544;}
	.st94{fill:#723300;}
	.st95{fill:url(#SVGID_00000070832593889499846700000000417183232769271716_);}
	.st96{fill:#F393BD;}
	.st97{fill:url(#SVGID_00000176733582873825070860000009026412937956795305_);}
	.st98{fill:#011354;}
	.st99{fill:#38011B;}
	.st100{fill-rule:evenodd;clip-rule:evenodd;fill:#2365A6;}
	.st101{fill:#351B01;}
	.st102{fill-rule:evenodd;clip-rule:evenodd;fill:#351B01;}
	.st103{fill:#008294;}
	.st104{fill:#02484C;}
	.st105{fill:none;stroke:#02484C;stroke-width:4;stroke-miterlimit:10;}
	.st106{fill:#8E0073;}
	.st107{fill:#013147;}
	.st108{fill:#CD11A1;}
	.st109{fill:#750000;}
	.st110{fill:#020242;}
	.st111{fill:#FFB000;}
	.st112{fill:#340038;}
	.st113{fill:#54004C;}
	.st114{fill:#020202;}
	.st115{fill:url(#SVGID_00000029756504418528225990000003615446024747837828_);}
	.st116{fill:#490000;}
	.st117{fill:#9B001E;}
	.st118{fill:#3A0603;}
	.st119{fill:#31E7FF;}
	.st120{fill:#F5F5F5;stroke:#404040;stroke-width:2;stroke-miterlimit:10;}
	.st121{fill:#49BDC9;}
	.st122{fill:none;stroke:#FFFFFF;stroke-miterlimit:10;}
</style>
<g>
	<path class="st50" d="M148.95,116.64l-8.46,8.46c22.79,3.39,43.02-14.32,43.02-37.04c0-20.65-16.8-37.45-37.45-37.45
		c-20.65,0-37.45,16.8-37.45,37.45c0,10.69,4.45,20.64,12.29,27.74l13.61-13.61c-0.74-5.26,1.02-10.64,4.82-14.44
		c6.65-6.65,17.42-6.65,24.07,0c6.65,6.65,6.65,17.42,0,24.07C159.6,115.63,154.21,117.39,148.95,116.64z M146.06,64.24
		c-1.88,0-3.4-1.52-3.4-3.4c0-1.88,1.52-3.4,3.4-3.4c16.9,0,30.64,13.75,30.64,30.64c0,1.88-1.52,3.4-3.4,3.4
		c-1.88,0-3.4-1.52-3.4-3.4C169.89,74.93,159.2,64.24,146.06,64.24z M146.06,139.14c-5.79,0-11.41-0.95-16.78-2.82l5.46-5.46
		c28.13,7.44,55.58-13.9,55.58-42.79c0-24.4-19.85-44.26-44.26-44.26S101.8,63.66,101.8,88.07c0,12.53,5.16,24.19,14.28,32.56
		l-4.82,4.82c-10.38-9.66-16.27-23.11-16.27-37.38C94.99,59.91,117.9,37,146.06,37c28.02,0,51.07,22.7,51.07,51.07
		C197.13,116.43,174.1,139.14,146.06,139.14z M255.01,88.07c0,23.59-16.08,43.49-37.85,49.33c36.31-22.34,37.28-75.73,0-98.66
		C238.93,44.57,255.01,64.48,255.01,88.07z"/>
	<path class="st51" d="M100.81,155.16c-1.33,1.33-3.48,1.33-4.81,0c-1.33-1.33-1.33-3.48,0-4.81l44.62-44.62
		c0.86-0.86,1.2-2.11,0.88-3.29c-0.94-3.52,0.07-7.3,2.65-9.87c3.99-3.99,10.45-3.99,14.44,0c3.99,3.99,3.99,10.45,0,14.44
		c-2.57,2.57-6.35,3.58-9.87,2.65c-1.17-0.31-2.43,0.02-3.29,0.88C114.03,141.94,120.92,135.05,100.81,155.16z M230.1,60.83h-32.95
		c3.83,7.16,6.2,15.24,6.7,23.83h34.03C237.29,75.94,234.52,67.82,230.1,60.83z M173.3,37h13.62c15.09,0,28.67,6.58,38.03,17.02
		h-32.08C187.72,46.97,181.03,41.13,173.3,37z M203.84,91.47h34.03c-0.58,8.72-3.35,16.85-7.77,23.83h-32.95
		C200.97,108.14,203.34,100.07,203.84,91.47z M186.92,139.14h-13.62c7.73-4.13,14.43-9.97,19.57-17.02h32.08
		C215.59,132.55,202.01,139.14,186.92,139.14z"/>
</g>
</svg>
