<?xml version="1.0" encoding="utf-8"?>
<!-- Generator: Adobe Illustrator 27.8.1, SVG Export Plug-In . SVG Version: 6.00 Build 0)  -->
<svg version="1.1" id="Layer_1" xmlns="http://www.w3.org/2000/svg" xmlns:xlink="http://www.w3.org/1999/xlink" x="0px" y="0px"
	 viewBox="0 0 350 230" style="enable-background:new 0 0 350 230;" xml:space="preserve">
<style type="text/css">
	.st0{fill:#FFFFC5;}
	.st1{fill:#D2FFF1;}
	.st2{fill:#E7FFCF;}
	.st3{fill:#EBFFFF;}
	.st4{fill:#FCE9FF;}
	.st5{fill:#F0FBFF;}
	.st6{fill:#FEFFE9;}
	.st7{fill:#F3FFEE;}
	.st8{fill:#FFFCEE;}
	.st9{fill:#FFFFEE;}
	.st10{fill:#EEFFF1;}
	.st11{fill:#2F2F3F;}
	.st12{fill:#02028C;}
	.st13{fill:#F5F5F5;}
	.st14{fill:#023C44;}
	.st15{fill:#022231;}
	.st16{fill:#FFFFFF;}
	.st17{fill:#53C2BB;}
	.st18{fill:#FF680D;}
	.st19{fill:#00EDFF;}
	.st20{fill:#213000;}
	.st21{fill:#FFB034;}
	.st22{fill:#00556A;}
	.st23{fill:#380C00;}
	.st24{fill:#00556A;stroke:#FFFFFF;stroke-width:0.5;stroke-miterlimit:10;}
	.st25{fill:#D40B00;}
	.st26{fill:#494949;}
	.st27{fill:#259AAB;}
	.st28{fill:#3DAEB7;}
	.st29{fill:#065652;}
	.st30{fill:#A8C6E9;}
	.st31{fill:#3F0101;}
	.st32{fill:#80C445;}
	.st33{fill:#F4D4AE;}
	.st34{fill:#E95454;}
	.st35{fill:#760689;}
	.st36{fill:#DEBFFF;}
	.st37{fill:url(#SVGID_1_);}
	.st38{fill:url(#SVGID_00000031914898186536987250000003372356572010709895_);}
	.st39{fill:url(#_x3C_Compound_Path_x3E__Music_Icon_00000092446917617732080520000000141092415634447533_);}
	.st40{opacity:0.3;fill:url(#_x3C_Compound_Path_x3E__Music_Shades_00000043428163671680453600000002432433941213134470_);}
	.st41{opacity:0.8;fill:#FFFFFF;}
	.st42{fill:#293767;}
	.st43{fill:#F5F5F6;}
	.st44{fill:#021284;}
	.st45{fill:#751616;}
	.st46{fill:url(#SVGID_00000122712909703621712850000014065410577580536215_);}
	.st47{fill:#0000A2;}
	.st48{fill:#00833F;}
	.st49{fill:#6B1800;}
	.st50{fill:#7A0334;}
	.st51{fill:#002066;}
	.st52{fill:#5E5700;}
	.st53{fill:#350033;}
	.st54{fill:#875F74;}
	.st55{fill:#003035;}
	.st56{fill:#3659FF;}
	.st57{fill:#9B8F00;}
	.st58{fill:#4C1200;}
	.st59{fill:#016A72;}
	.st60{fill:#FF0000;}
	.st61{fill:#005C68;}
	.st62{fill:#4A0075;}
	.st63{fill:url(#SVGID_00000070078701506423041780000017868644450127262090_);}
	.st64{fill:#228DC9;}
	.st65{fill:#551700;}
	.st66{fill:#C10073;}
	.st67{fill:#00C2E0;}
	.st68{fill:#012F4C;}
	.st69{fill:#300018;}
	.st70{fill-rule:evenodd;clip-rule:evenodd;fill:#6D3C5B;}
	.st71{fill-rule:evenodd;clip-rule:evenodd;fill:#020242;}
	.st72{fill:#00E1FF;}
	.st73{fill:#680040;}
	.st74{fill:#8E8700;}
	.st75{fill:#220247;}
	.st76{fill:#0086FF;}
	.st77{fill:#7C4F00;}
	.st78{fill:#520000;}
	.st79{fill:url(#SVGID_00000042011921123311464510000002004517230052277395_);}
	.st80{fill:#04A8CB;}
	.st81{fill:#18618B;}
	.st82{fill:#958C00;}
	.st83{fill:#B0261C;}
	.st84{fill:#296262;}
	.st85{fill:#5C5E00;}
	.st86{fill:#55B1C8;}
	.st87{fill:#918C34;}
	.st88{fill:#590068;}
	.st89{fill:#F94351;}
	.st90{fill:#9B001A;}
	.st91{fill:#000066;}
	.st92{fill:#636568;}
	.st93{fill:#002544;}
	.st94{fill:#723300;}
	.st95{fill:url(#SVGID_00000134951409322874196640000001715023683524401028_);}
	.st96{fill:#F393BD;}
	.st97{fill:url(#SVGID_00000147937203521435828300000002143623459543158929_);}
	.st98{fill:#011354;}
	.st99{fill:#38011B;}
	.st100{fill-rule:evenodd;clip-rule:evenodd;fill:#2365A6;}
	.st101{fill:#351B01;}
	.st102{fill-rule:evenodd;clip-rule:evenodd;fill:#351B01;}
	.st103{fill:#008294;}
	.st104{fill:#02484C;}
	.st105{fill:none;stroke:#02484C;stroke-width:4;stroke-miterlimit:10;}
	.st106{fill:#8E0073;}
	.st107{fill:#013147;}
	.st108{fill:#CD11A1;}
	.st109{fill:#750000;}
	.st110{fill:#020242;}
	.st111{fill:#FFB000;}
	.st112{fill:#340038;}
	.st113{fill:#54004C;}
	.st114{fill:#020202;}
	.st115{fill:url(#SVGID_00000109721120114617605250000004946148681376698754_);}
	.st116{fill:#490000;}
	.st117{fill:#9B001E;}
	.st118{fill:#3A0603;}
	.st119{fill:#31E7FF;}
	.st120{fill:#F5F5F5;stroke:#404040;stroke-width:2;stroke-miterlimit:10;}
	.st121{fill:#49BDC9;}
	.st122{fill:none;stroke:#FFFFFF;stroke-miterlimit:10;}
</style>
<g>
	<path class="st88" d="M166.81,55.48c0.49,3.17-1.14,5.41-5.03,6.93c-8.99,3.49-18.06,6.64-27.44,8.92
		c-1.95,0.47-3.21-0.01-4.56-1.38c-6.99-7.09-8.4-17.85-3.37-26.46c4.89-8.36,14.89-12.43,24.39-9.91
		C160.26,36.07,166.83,44.73,166.81,55.48z M127.95,60.08c0-4.09,0-8.24,0-12.45C125.44,49.93,125.56,58.7,127.95,60.08z
		 M134.87,39.45c-0.16-0.15-0.32-0.31-0.48-0.46c-2.23,0.76-4.4,3.34-4.03,5.29C131.98,42.54,133.43,40.99,134.87,39.45z"/>
	<path d="M215.4,139.29c0.51,2.84,1.06,5.48,1.43,8.14c0.55,3.93-0.01,7.77-1.52,11.43c-3.16,7.66-10.24,11.06-19.23,9.01
		c-9.13-2.08-15.83-7.14-18.97-16.55c-1.62,0.54-3.24,1.09-4.86,1.63c-2.74,0.9-3.73,0.54-5.1-1.96c-1.88-3.4-3.75-6.8-5.57-10.24
		c-0.54-1.02-1.15-1.49-2.39-1.49c-15,0.05-30,0.02-45,0.07c-0.9,0-1.83,0.43-2.68,0.82c-2.58,1.17-4.9,1.75-7.54-0.33
		c-1.12-0.89-3.25-0.49-5.06-0.7c-0.08,0.77-0.23,1.25-0.16,1.69c0.69,4.2-4.25,7.6-7.65,7.19c-1.22-0.14-2.88-0.9-3.35-1.86
		c-0.48-0.97-0.03-2.7,0.55-3.81c0.6-1.13,1.87-1.91,3.05-3.05c-4.6,0-9.01,0-13.42,0c-0.56,0-1.14,0.1-1.66-0.03
		c-0.42-0.11-0.77-0.5-1.15-0.77c0.41-0.24,0.81-0.66,1.24-0.7c1.17-0.1,2.36-0.04,3.54-0.04c5.68,0,11.36,0,17.18,0
		c0-2.58,0-4.97,0-7.66c-0.76,0-1.49,0-2.23,0c-6.04,0-12.08,0.02-18.12-0.03c-0.54,0-1.07-0.49-1.6-0.74
		c0.54-0.26,1.07-0.73,1.61-0.74c5.97-0.05,11.94-0.03,17.92-0.03c0.75,0,1.51,0,2.42,0c0-2.55,0-4.94,0-7.67c-0.71,0-1.44,0-2.17,0
		c-5.69,0-11.39,0-17.08,0c-0.56,0-1.13,0.08-1.66-0.05c-0.38-0.09-0.69-0.47-1.03-0.72c0.32-0.26,0.61-0.57,0.97-0.75
		c0.22-0.11,0.55-0.03,0.82-0.03c0.83,0,1.67,0,2.5,0c5.62,0,11.42,0.84,16.83-0.24c5.31-1.06,10.22-4.1,15.32-6.24
		c0.99-0.41,2.06-0.63,3.37-1.02c0,2.62,0,4.88,0,7.48c3.06,0,5.94,0.02,8.82-0.02c0.28,0,0.61-0.3,0.84-0.53
		c2.4-2.48,5.24-3.54,8.86-2.6c0-1.47,0-2.8,0-4.38c-0.76-0.04-1.55-0.13-2.35-0.13c-17.5-0.01-35,0-52.5,0
		c-0.9,0-1.81,0.04-2.7-0.07c-0.29-0.03-0.52-0.48-0.78-0.74c0.27-0.23,0.51-0.6,0.82-0.67c0.53-0.11,1.1-0.04,1.66-0.04
		c17.78,0,35.56,0,53.33,0c0.82,0,1.63,0,2.58,0c0-2.6,0-5,0-7.74c-0.74,0-1.48,0-2.21,0c-17.85,0-35.69,0.01-53.54-0.04
		c-0.88,0-1.75-0.51-2.63-0.78c0.85-0.21,1.71-0.62,2.56-0.62c17.85-0.04,35.69-0.03,53.54-0.03c0.69,0,1.38,0,2.29,0
		c0-1.91,0-3.68,0-5.77c3.43,2.22,5.06,7.02,10.37,5.52c-3.22-7.38-6.44-14.77-9.75-22.34c11.8-2.6,23.08-6.34,34.08-11.44
		c2.71,11.35,5.4,22.6,8.11,33.92c5.98,0,11.86,0,17.52,0c-0.19-3.72-0.76-7.4-0.5-11.02c0.64-8.88,5.89-14.86,13.16-19.32
		c0.43-0.26,1.3,0.18,1.96,0.3c-0.23,0.64-0.28,1.48-0.73,1.87c-1.41,1.22-3.06,2.18-4.46,3.41c-7.37,6.44-8.85,14.56-6.48,23.66
		c0.13,0.52,1.13,1.12,1.75,1.15c2.35,0.14,4.72,0.05,7.08,0.05c22.22,0,44.44,0,66.67,0c0.56,0,1.12-0.07,1.66,0.04
		c0.33,0.06,0.6,0.39,0.9,0.59c-0.31,0.27-0.59,0.7-0.94,0.77c-0.67,0.13-1.38,0.05-2.08,0.05c-23.82,0-47.64,0-71.46,0
		c-0.82,0-1.64,0-2.96,0c1.11,2.59,2.05,4.85,3.08,7.08c0.15,0.33,0.75,0.63,1.15,0.63c8.73,0.04,17.47,0.03,26.47,0.03
		c0-1.74-0.05-3.31,0.04-4.88c0.02-0.42,0.48-0.82,0.74-1.23c0.25,0.41,0.68,0.81,0.71,1.23c0.09,1.51,0.03,3.04,0.03,4.89
		c0.93,0,1.73,0,2.53,0c13.4,0,26.81,0,40.21,0c0.56,0,1.13-0.07,1.66,0.04c0.31,0.06,0.55,0.43,0.83,0.66
		c-0.25,0.26-0.47,0.68-0.77,0.75c-0.52,0.13-1.1,0.06-1.66,0.06c-6.74,0-13.47,0-20.21,0c-0.75,0-1.51,0-2.98,0
		c2.94,2.11,2.87,4.79,2.95,7.54c1.62,0,3.11,0,4.63,0c1.72-3.44,5.3-4.36,8.79-1.61c2.1,1.65,4.15,1.85,6.5,1.76
		c0.62-0.02,1.26-0.07,1.87,0.04c0.32,0.06,0.58,0.42,0.87,0.64c-0.31,0.28-0.61,0.79-0.93,0.81c-1.65,0.08-3.31,0.04-5.27,0.04
		c0.16,2.62,0.3,5.05,0.46,7.68c1.56,0,2.94-0.06,4.31,0.03c0.49,0.04,0.96,0.46,1.44,0.7c-0.46,0.27-0.9,0.74-1.37,0.78
		c-1.36,0.11-2.74,0.04-4.32,0.04c0.16,2.63,0.31,5.01,0.47,7.65c1.41,0,2.72-0.06,4.01,0.03c0.42,0.03,0.81,0.47,1.22,0.73
		c-0.39,0.26-0.76,0.71-1.17,0.75c-1.23,0.1-2.48,0.04-3.83,0.04c0,1.87,0,3.57,0,5.61c-0.73-0.07-1.52-0.03-2.24-0.22
		c-1.2-0.33-2.4-0.72-3.53-1.24c-7.86-3.66-16.1-4.64-24.7-4.22c-7.2,0.36-14.44,0.07-21.66,0.08
		C216.98,139.29,216.23,139.29,215.4,139.29z M179.91,150.41c0.03,0.42,0.01,0.7,0.09,0.95c0.21,0.66,0.42,1.33,0.72,1.95
		c3.7,7.52,10.02,11.35,18.1,12.28c8.17,0.94,13.24-2.88,15.07-10.92c1.05-4.61,0.26-9.09-0.9-13.57c-0.36-1.37-0.9-1.86-2.38-1.85
		c-7.91,0.08-15.83,0.03-23.74,0.04c-0.61,0-1.21,0.07-1.98,0.12c0.31,2.08,0.6,3.99,0.88,5.91c0.28,1.92-0.48,3.23-2.33,3.88
		C182.26,149.6,181.1,150,179.91,150.41z M160.04,137.48c-0.87-1.95-1.77-3.66-2.4-5.48c-0.52-1.48-1.3-1.96-2.88-1.95
		c-12.56,0.07-25.12,0.04-37.68,0.04c-0.66,0-1.32,0.07-1.92,0.11c-0.15,2.64-0.29,5.02-0.43,7.49c0.25,0.02,0.59,0.05,0.93,0.05
		c14.43,0.01,28.87-0.06,43.3,0.05c4,0.03,7.82-0.42,11.58-1.84c4.26-1.61,8.63-2.94,13.08-4.43c0.36,2.17,0.69,4.13,1.02,6.12
		c9.07,0,17.99,0,27.26,0c-0.92-2.17-1.81-4.11-2.57-6.09c-0.44-1.15-1.13-1.49-2.35-1.48c-7.56,0.05-15.13-0.01-22.69,0.06
		c-1.42,0.01-2.9,0.26-4.25,0.7C173.46,132.95,166.9,135.19,160.04,137.48z M156.04,128.48c-0.96-2.21-1.87-4.07-2.57-6
		c-0.46-1.25-1.14-1.65-2.45-1.63c-4.85,0.07-9.7,0.06-14.55,0.01c-1.15-0.01-1.76,0.5-2.57,1.26c-1.32,1.24-2.9,2.42-4.59,3
		c-3.71,1.26-5.77-0.22-6.29-4.12c-2.59,0-5.18,0-7.82,0c0,2.57,0,5,0,7.48C128.81,128.48,142.24,128.48,156.04,128.48z
		 M251.33,130.09c-0.9,0-1.65,0-2.4,0c-5.54,0-11.09,0.04-16.63-0.02c-1.78-0.02-3.23,0.1-4.4,1.84c-0.7,1.05-2.14,1.77-3.39,2.26
		c-3.94,1.53-6.37,0.09-7.01-3.93c-1.9,0-3.78,0-5.81,0c0.83,2.02,1.74,3.83,2.3,5.73c0.45,1.5,1.25,1.82,2.68,1.82
		c10.88-0.06,21.76-0.04,32.64-0.04c0.74,0,1.48,0,2.44,0C251.61,135.09,251.48,132.7,251.33,130.09z M227.91,119.34
		c0-2.71,0-5.15,0-7.57c-8.79,0-17.36,0-26.27,0c1.36,2.46,2.56,4.71,3.86,6.89c0.22,0.37,0.89,0.65,1.36,0.65
		C213.85,119.36,220.85,119.34,227.91,119.34z M207.88,128.55c-1.26-2.32-2.37-4.23-3.34-6.2c-0.57-1.15-1.35-1.51-2.62-1.5
		c-6.3,0.06-12.6,0.02-18.9,0.03c-0.58,0-1.15,0.1-1.86,0.17c0.54,2.3,0.99,4.39,1.57,6.45c0.12,0.43,0.79,1,1.22,1
		C191.77,128.56,199.58,128.55,207.88,128.55z M250.8,121.01c-7.12,0-14.02,0-21.03,0c0,2.52,0,4.91,0,7.37c7.2,0,14.29,0,21.5,0
		C251.11,125.87,250.96,123.53,250.8,121.01z M180.7,119.19c7.42,0,14.57,0,21.98,0c-1.2-2.22-2.19-4.27-3.41-6.17
		c-0.42-0.65-1.43-1.26-2.19-1.3c-3.18-0.14-6.37-0.06-9.56-0.06c-2.76,0-5.51,0-8.57,0C179.57,114.34,180.13,116.74,180.7,119.19z
		 M197.72,110.14c-0.9-2.33-1.76-4.36-2.46-6.44c-0.35-1.05-0.9-1.34-1.96-1.32c-3.32,0.06-6.65,0.03-9.97,0.03
		c-2.12,0-4.24,0-6.61,0c0.58,2.44,1.02,4.6,1.64,6.7c0.13,0.45,0.93,0.99,1.42,1C185.66,110.16,191.54,110.14,197.72,110.14z
		 M206.78,120.96c0.59,1.11,1.17,1.85,1.4,2.68c1.23,4.37,4.18,5.7,8.39,4.9c0.85-0.16,1.97-0.06,2.48-0.57
		c2.51-2.49,5.39-3.49,8.93-2.61c0-1.52,0-2.93,0-4.4C220.93,120.96,214.03,120.96,206.78,120.96z M152.01,119.25
		c-1.04-2.4-1.96-4.63-3-6.8c-0.18-0.38-0.84-0.75-1.28-0.76c-3.81-0.06-7.62-0.07-11.43,0.01c-0.39,0.01-1.07,0.67-1.09,1.06
		c-0.11,2.13-0.05,4.26-0.05,6.48C140.84,119.25,146.28,119.25,152.01,119.25z M98.8,128.38c5,0,9.79,0,14.6,0c0-2.56,0-4.94,0-7.33
		c-4.95,0-9.74,0-14.6,0C98.8,123.56,98.8,125.89,98.8,128.38z M253.3,137.58c5.08,0,9.89,0,14.79,0c-0.14-2.58-0.27-4.97-0.4-7.31
		c-5.1,0-9.91,0-14.85,0C253,132.8,253.15,135.14,253.3,137.58z M229.83,111.79c0,2.58,0,5.02,0,7.45c5.39,0,10.6,0,16.32,0
		c-3.58-1.6-6.35-3.3-5.55-7.45C236.99,111.79,233.43,111.79,229.83,111.79z M252.38,120.89c0.13,2.58,0.25,5.06,0.36,7.5
		c5.12,0,9.92,0,14.82,0c-0.06-1.31-0.11-2.45-0.17-3.71c-3.69,1.1-6.71,0.28-9.02-2.43c-0.86-1.01-1.64-1.51-2.93-1.38
		C254.56,120.96,253.65,120.89,252.38,120.89z M98.84,137.66c2.29,0.01,4.71,1.02,5.78-2.23c0.28-0.86,1.33-1.74,2.23-2.07
		c2.07-0.74,4.26-1.15,6.66-1.75c-0.01-0.12-0.04-0.77-0.07-1.39c-4.98,0-9.74,0-14.6,0C98.84,132.73,98.84,135.12,98.84,137.66z
		 M140.67,110.05c1.01-5.55-1.38-8.63-5.38-7.25c0,2.41,0,4.81,0,7.25C137.14,110.05,138.85,110.05,140.67,110.05z M113.37,119.29
		c0-1.9,0-3.63,0-5.55c-4.33,1.8-8.41,3.51-12.5,5.21c0.04,0.11,0.08,0.22,0.12,0.34C105.05,119.29,109.11,119.29,113.37,119.29z
		 M141.88,110.02c1.76,0,3.79,0,5.83,0c0-0.25,0.04-0.4-0.01-0.52c-0.62-1.47-1.24-2.94-1.87-4.4c-1.33-3.06-1.62-3.2-4.67-2.46
		C141.4,105.05,141.63,107.41,141.88,110.02z M268.26,139.41c-3.55,0-6.86,0-10.18,0c-0.02,0.1-0.04,0.21-0.07,0.31
		c3.37,1.17,6.74,2.34,10.24,3.55C268.26,141.84,268.26,140.75,268.26,139.41z M159.77,88.88c-0.9-1.67-1.48-3.15-2.42-4.34
		c-0.44-0.55-1.73-0.97-2.33-0.72c-0.73,0.3-1.63,1.4-1.59,2.11c0.08,1.51,0.45,3.15,1.22,4.43c0.47,0.79,2.08,1.55,2.86,1.31
		C158.39,91.39,158.93,89.98,159.77,88.88z M167.87,65.36c-0.38-1.56-0.71-2.93-1.01-4.15c-5.88,2.25-11.5,4.6-17.27,6.53
		c-5.83,1.95-11.8,3.48-17.82,5.22c0.5,1.14,1.05,2.4,1.73,3.95C145.47,74.31,156.87,70.57,167.87,65.36z M155.64,84.55
		c-0.67,0.2-1.36,1.42-1.44,2.24c-0.19,2.01,1.33,4.36,2.59,4.14c0.73-0.13,1.32-1.1,1.58-1.34
		C158.4,86.75,156.86,84.18,155.64,84.55z"/>
</g>
</svg>
