<?xml version="1.0" encoding="utf-8"?>
<!-- Generator: Adobe Illustrator 27.8.1, SVG Export Plug-In . SVG Version: 6.00 Build 0)  -->
<svg version="1.1" xmlns="http://www.w3.org/2000/svg" xmlns:xlink="http://www.w3.org/1999/xlink" x="0px" y="0px"
	 viewBox="0 0 350 230" style="enable-background:new 0 0 350 230;" xml:space="preserve">
<style type="text/css">
	.st0{fill:#CAFAFF;}
	.st1{fill:#00373A;}
	.st2{fill:#009E9E;}
	.st3{fill:#002320;}
	.st4{fill:#0B0033;}
	.st5{fill:#C5FFBD;}
	.st6{fill:#FFD7E7;}
	.st7{fill:#FEFFD9;}
	.st8{fill:#0E0038;}
	.st9{fill:#BBFFD6;}
	.st10{fill:#EDFFBD;}
	.st11{fill:#DCFFCF;}
	.st12{fill:#FFFFD2;}
	.st13{fill:#FFE6D4;}
	.st14{fill:#023883;}
	.st15{fill:#FF0043;}
	.st16{fill-rule:evenodd;clip-rule:evenodd;fill:#00C3FF;}
	.st17{fill-rule:evenodd;clip-rule:evenodd;}
	.st18{fill:#BDD87C;}
	.st19{fill:#FCD35D;}
	.st20{fill:#F77552;}
	.st21{fill:#7BDBC2;}
	.st22{fill:#000077;}
	.st23{fill:#F200FF;}
	.st24{fill:#005B41;}
	.st25{fill:#FFFFFF;}
	.st26{fill:#00422F;}
	.st27{fill:#113500;}
	.st28{fill:#00005B;}
	.st29{fill:#2B0049;}
	.st30{fill:#DA0678;}
	.st31{fill:#4D84DC;}
	.st32{fill:#E58E21;}
	.st33{fill:#51097E;}
	.st34{fill:#6D003E;}
	.st35{fill:#FFCE88;}
	.st36{fill:#00D9FF;}
	.st37{fill:#7616C3;}
	.st38{fill:#004EFD;}
	.st39{fill:#C6C900;}
	.st40{fill:#00D3C7;}
	.st41{fill:#93C900;}
	.st42{fill:#009FFB;}
	.st43{fill:#710B0A;}
	.st44{fill:#FFD700;}
	.st45{fill:#7F0C06;}
	.st46{fill:#00FFE9;}
	.st47{fill:#FF0000;}
	.st48{fill:#B96508;}
	.st49{fill:#006E60;}
	.st50{fill:#FFE000;}
	.st51{fill:#FF2DB1;}
	.st52{fill:#1A0AFF;}
	.st53{fill:url(#SVGID_1_);}
	.st54{fill:url(#SVGID_00000160188838427160328820000016476081323112881852_);}
	.st55{fill-rule:evenodd;clip-rule:evenodd;fill:url(#SVGID_00000143602337406124644320000017194383754076437660_);}
	.st56{opacity:0.2;fill-rule:evenodd;clip-rule:evenodd;}
	.st57{opacity:0.29;fill-rule:evenodd;clip-rule:evenodd;fill:#FFFFFF;}
	.st58{opacity:0.26;fill-rule:evenodd;clip-rule:evenodd;}
	.st59{fill-rule:evenodd;clip-rule:evenodd;fill:#FFFFFF;}
	.st60{opacity:0.3;fill-rule:evenodd;clip-rule:evenodd;}
	.st61{fill-rule:evenodd;clip-rule:evenodd;fill:url(#SVGID_00000122721439266625183410000001006395763432987285_);}
	.st62{fill:#120F0E;}
	.st63{fill:#FFFFFF;stroke:#000000;stroke-miterlimit:10;}
	.st64{fill:none;}
	.st65{fill-rule:evenodd;clip-rule:evenodd;fill:#FFB28B;}
	.st66{fill-rule:evenodd;clip-rule:evenodd;fill:#C5D5D6;}
	.st67{fill-rule:evenodd;clip-rule:evenodd;fill:#0287D0;}
	.st68{fill-rule:evenodd;clip-rule:evenodd;fill:#F3825B;}
	.st69{fill-rule:evenodd;clip-rule:evenodd;fill:#FEFEFE;}
	.st70{fill-rule:evenodd;clip-rule:evenodd;fill:#92A2A3;}
	.st71{fill-rule:evenodd;clip-rule:evenodd;fill:#0067B0;}
	.st72{fill-rule:evenodd;clip-rule:evenodd;fill:#29C5FF;}
	.st73{fill-rule:evenodd;clip-rule:evenodd;fill:#5EFAF7;}
	.st74{fill-rule:evenodd;clip-rule:evenodd;fill:#17BBB0;}
	.st75{fill:url(#SVGID_00000017474730989314063290000002906172847464073895_);}
	.st76{fill:url(#SVGID_00000130616201063811349850000015597681015502071941_);}
	.st77{fill:url(#SVGID_00000009553645391541544400000015334149935297340072_);}
	.st78{fill:url(#SVGID_00000051384337081940120090000002861680409051941534_);}
	.st79{fill:url(#SVGID_00000120548713377301080290000015183562576811874988_);}
	.st80{fill:#001C36;}
	.st81{fill:url(#SVGID_00000102504171192130525760000000553748535978590384_);}
	.st82{fill:#004D85;}
	.st83{fill:url(#SVGID_00000059279187026289993780000002998876228881698723_);}
	.st84{fill:#00EFEF;}
	.st85{fill:url(#SVGID_00000044881692964868919580000008216366503113189250_);}
	.st86{fill:url(#SVGID_00000132783328060366431270000003555708319372359057_);}
	.st87{fill:url(#SVGID_00000131359531100545551450000005590664317475915432_);}
	.st88{fill:url(#SVGID_00000050638654583707076770000015554698393069264017_);}
	.st89{fill:url(#SVGID_00000102506338971553803670000008776043540217507987_);}
	.st90{fill:url(#SVGID_00000036931863026773742620000003926900986726204067_);}
	.st91{fill:url(#SVGID_00000004545228675209373270000013918025394419815062_);}
	.st92{fill:#322D79;}
	.st93{fill:#E11D36;}
	.st94{fill:#EB6730;}
	.st95{fill:#52A947;}
	.st96{fill:url(#SVGID_00000176031957601823590440000010178085970947105717_);}
	.st97{filter:url(#Adobe_OpacityMaskFilter);}
	.st98{filter:url(#Adobe_OpacityMaskFilter_00000056411612536017863630000005595823769934985908_);}
	
		.st99{mask:url(#SVGID_00000026860592843275031510000010447647992697700250_);fill:url(#SVGID_00000043422676265879768630000005408381293022657708_);}
	.st100{fill:url(#SVGID_00000027581608707650516960000003599009386302605469_);}
	.st101{fill:url(#SVGID_00000021834696578818977320000014065866516183742372_);}
	.st102{fill:url(#SVGID_00000080175467066063494580000017400103318165683588_);}
	.st103{fill:url(#SVGID_00000152243329091486664260000001429406127494002839_);}
	.st104{fill:#FF5D41;}
	.st105{fill:#170833;}
	.st106{fill:#F54425;}
	.st107{fill:#E6E6E6;}
	.st108{fill:url(#SVGID_00000058551547714063228780000012658939954096470451_);}
	.st109{fill:url(#SVGID_00000089566247617046425550000000099174698914398899_);}
	.st110{fill-rule:evenodd;clip-rule:evenodd;fill:#EAA416;}
	.st111{fill-rule:evenodd;clip-rule:evenodd;fill:#4B0301;}
	.st112{fill-rule:evenodd;clip-rule:evenodd;fill:url(#SVGID_00000163042617583031915250000000758711872936894855_);}
	.st113{fill:url(#SVGID_00000005259037045563168340000016847222878513179794_);}
	.st114{fill:url(#SVGID_00000158751458231700432660000004036500676420920741_);}
</style>
<g id="Layer_1">
</g>
<g id="Layer_2">
</g>
<g id="Layer_3">
</g>
<g id="Layer_4">
</g>
<g id="Layer_5">
</g>
<g id="Layer_6">
</g>
<g id="Layer_7">
</g>
<g id="Layer_8">
</g>
<g id="Layer_9">
</g>
<g id="Layer_10">
</g>
<g id="Layer_11">
</g>
<g id="Layer_12">
</g>
<g id="Layer_13">
</g>
<g id="Layer_14">
</g>
<g id="Layer_15">
	<g>
		<defs>
			<filter id="Adobe_OpacityMaskFilter" filterUnits="userSpaceOnUse" x="101.78" y="152.38" width="145.16" height="15.41">
				<feFlood  style="flood-color:white;flood-opacity:1" result="back"/>
				<feBlend  in="SourceGraphic" in2="back" mode="normal"/>
			</filter>
		</defs>
		<mask maskUnits="userSpaceOnUse" x="101.78" y="152.38" width="145.16" height="15.41" id="SVGID_1_">
			<g class="st97">
				<defs>
					
						<filter id="Adobe_OpacityMaskFilter_00000168110546408373573440000001883927112180299402_" filterUnits="userSpaceOnUse" x="101.78" y="152.38" width="145.16" height="15.41">
						<feFlood  style="flood-color:white;flood-opacity:1" result="back"/>
						<feBlend  in="SourceGraphic" in2="back" mode="normal"/>
					</filter>
				</defs>
				<mask maskUnits="userSpaceOnUse" x="101.78" y="152.38" width="145.16" height="15.41" id="SVGID_1_">
				</mask>
				
					<radialGradient id="SVGID_00000111884098470060052590000009521937011761336720_" cx="174.3609" cy="-1567.0247" r="72.5946" gradientTransform="matrix(1 0 0 0.1061 0 326.3418)" gradientUnits="userSpaceOnUse">
					<stop  offset="0" style="stop-color:#797979"/>
					<stop  offset="0.0143" style="stop-color:#767676"/>
					<stop  offset="0.3966" style="stop-color:#373737"/>
					<stop  offset="0.6756" style="stop-color:#0F0F0F"/>
					<stop  offset="0.8203" style="stop-color:#000000"/>
				</radialGradient>
				
					<ellipse style="mask:url(#SVGID_1_);fill:url(#SVGID_00000111884098470060052590000009521937011761336720_);" cx="174.36" cy="160.08" rx="72.58" ry="7.7"/>
			</g>
		</mask>
		
			<radialGradient id="SVGID_00000065766375069195384230000002641769764367452324_" cx="174.3609" cy="-1567.0247" r="72.5946" gradientTransform="matrix(1 0 0 0.1061 0 326.3418)" gradientUnits="userSpaceOnUse">
			<stop  offset="0" style="stop-color:#130C0E"/>
			<stop  offset="0.8203" style="stop-color:#130C0E"/>
		</radialGradient>
		
			<ellipse style="fill:url(#SVGID_00000065766375069195384230000002641769764367452324_);" cx="174.36" cy="160.08" rx="72.58" ry="7.7"/>
		
			<linearGradient id="SVGID_00000024688250919303561730000000033946894832131984_" gradientUnits="userSpaceOnUse" x1="140.9125" y1="89.5994" x2="207.8094" y2="89.5994">
			<stop  offset="0" style="stop-color:#ED1C24"/>
			<stop  offset="0.1341" style="stop-color:#D8151B"/>
			<stop  offset="0.3406" style="stop-color:#BD0C0F"/>
			<stop  offset="0.5519" style="stop-color:#AA0507"/>
			<stop  offset="0.7689" style="stop-color:#9F0102"/>
			<stop  offset="1" style="stop-color:#9B0000"/>
		</linearGradient>
		<path style="fill:url(#SVGID_00000024688250919303561730000000033946894832131984_);" d="M178.11,89.57c0,0-0.64,0.03-1.75,0.03h0
			c-0.56,0-1.23-0.01-2-0.03c-0.85-0.02-1.81-0.06-2.87-0.13c-2.92-0.19-6.53-0.57-10.22-1.37c-9.7-2.08-20.04-6.93-20.34-18.16
			c-0.22-8.02,3.44-11.89,8.15-15.65c6.88-5.48,16-10.74,18.61-28.34c0,0,4.6,17.9-9.35,29.16c0,0,1.66,1.43,3.29,3.76
			c2.16,3.09,4.28,7.75,2.43,12.77c0,0-0.13-6.99-4.2-9.71c-0.09-0.06-0.19-0.12-0.28-0.18c-3.21-1.9-6.64-0.34-8.5,2.85
			c-0.38,0.66-0.7,1.39-0.93,2.17c-2.06,6.91,2.36,18,24.22,22.2c0.93,0.18,1.88,0.34,2.87,0.5
			C177.52,89.48,177.82,89.53,178.11,89.57z M158.34,124.12c0,0,8.96-7.72,5.72-16.53c0,0-0.13,7.31-4.48,9.89
			c-10.04,5.95-22.3-21.99,18.54-27.85c0,0-36.61-1.62-37.19,19.66c-0.54,19.73,22.36,14.33,26.76,43.99
			C167.69,153.27,172.28,135.37,158.34,124.12z M190.38,55.08c0,0-8.96,7.72-5.72,16.53c0,0,0.13-7.31,4.48-9.89
			c10.04-5.95,22.3,21.99-18.54,27.85c0,0,36.61,1.62,37.19-19.66c0.54-19.73-22.36-14.33-26.76-43.99
			C181.04,25.92,176.44,43.82,190.38,55.08z M181.04,153.27c4.4-29.66,27.3-24.26,26.76-43.99c-0.58-21.28-37.19-19.66-37.19-19.66
			c40.84,5.85,28.58,33.79,18.54,27.85c-4.35-2.57-4.48-9.89-4.48-9.89c-3.24,8.81,5.72,16.53,5.72,16.53
			C176.44,135.37,181.04,153.27,181.04,153.27z"/>
		
			<linearGradient id="SVGID_00000160152117484649030750000003705184090133064090_" gradientUnits="userSpaceOnUse" x1="175.5993" y1="26.0946" x2="173.1473" y2="151.8518">
			<stop  offset="0" style="stop-color:#000000"/>
			<stop  offset="0.0403" style="stop-color:#050505"/>
			<stop  offset="0.2693" style="stop-color:#1F1F20"/>
			<stop  offset="0.5035" style="stop-color:#323133"/>
			<stop  offset="0.7439" style="stop-color:#3D3C3E"/>
			<stop  offset="1" style="stop-color:#414042"/>
		</linearGradient>
		<path style="fill:url(#SVGID_00000160152117484649030750000003705184090133064090_);" d="M169.08,88.74c0,0-3.23-0.08-7.81-0.67
			c0,0,0,0,0,0c-10.95-1.39-29.58-5.63-29.93-18.38c-0.01-0.29-0.01-0.58-0.01-0.86c0.14-9.49,7.04-11.81,13.3-17.57
			c4.12-3.8,7.97-9.09,9.43-18.91c0,0,3.2,12.46-4.99,21.92c0,0,0,0,0,0c-0.85,0.98-1.83,1.94-2.95,2.84c0,0,3.6,3.1,4.95,7.47v0
			c0.61,1.98,0.76,4.23-0.1,6.56c0,0-0.04-2.17-0.83-4.39c0,0,0,0,0,0c-0.55-1.54-1.46-3.11-2.97-4
			C138.65,57.69,134.4,83.77,169.08,88.74z M146.12,122.09c0,0,7.61-6.56,4.85-14.03c0,0-0.11,6.21-3.8,8.39
			c-8.53,5.05-12.77-21.03,21.9-26c0,0-37.25,0.98-37.74,19.04c-0.46,16.75,18.99,12.17,22.72,37.35
			C154.06,146.85,157.96,131.65,146.12,122.09z M202.6,57.1c0,0-7.61,6.56-4.85,14.03c0,0,0.11-6.21,3.8-8.39
			c8.53-5.05,12.77,21.03-21.9,26c0,0,37.25-0.98,37.74-19.04c0.46-16.75-18.99-12.17-22.72-37.35
			C194.66,32.35,190.76,47.55,202.6,57.1z M194.66,146.85c3.74-25.18,23.18-20.6,22.72-37.35c-0.49-18.07-37.74-19.04-37.74-19.04
			c34.68,4.97,30.43,31.05,21.9,26c-3.69-2.19-3.8-8.39-3.8-8.39c-2.75,7.48,4.85,14.03,4.85,14.03
			C190.76,131.65,194.66,146.85,194.66,146.85z"/>
		
			<radialGradient id="SVGID_00000049912048147786123070000014364835425533428407_" cx="174.7148" cy="69.2708" r="9.4707" gradientUnits="userSpaceOnUse">
			<stop  offset="5.100000e-07" style="stop-color:#414042"/>
			<stop  offset="0.2561" style="stop-color:#3D3C3E"/>
			<stop  offset="0.4965" style="stop-color:#323133"/>
			<stop  offset="0.7307" style="stop-color:#1F1F20"/>
			<stop  offset="0.9597" style="stop-color:#050505"/>
			<stop  offset="1" style="stop-color:#000000"/>
		</radialGradient>
		<path style="fill:url(#SVGID_00000049912048147786123070000014364835425533428407_);" d="M183.68,76.78c0,2.08-0.7,4.01-1.87,5.55
			c-0.73,0.96-1.65,1.77-2.7,2.38c-1.35,0.79-2.93,1.24-4.61,1.24c-1.82,0-3.51-0.53-4.93-1.44c-1.43-0.91-2.59-2.21-3.33-3.75
			c-0.58-1.2-0.91-2.55-0.91-3.98c0-1.14,0.21-2.23,0.59-3.23c0.27-0.72,0.63-1.4,1.06-2.02c1.66-2.37,4.41-3.92,7.52-3.92
			c0.68,0,1.34,0.07,1.98,0.22c0.66,0.15,1.3,0.36,1.9,0.65C181.51,69.93,183.68,73.1,183.68,76.78z"/>
	</g>
</g>
</svg>
