<?xml version="1.0" encoding="utf-8"?>
<!-- Generator: Adobe Illustrator 27.8.1, SVG Export Plug-In . SVG Version: 6.00 Build 0)  -->
<svg version="1.1" xmlns="http://www.w3.org/2000/svg" xmlns:xlink="http://www.w3.org/1999/xlink" x="0px" y="0px"
	 viewBox="0 0 350 230" style="enable-background:new 0 0 350 230;" xml:space="preserve">
<style type="text/css">
	.st0{fill-rule:evenodd;clip-rule:evenodd;fill:#FFFDF7;}
	.st1{fill-rule:evenodd;clip-rule:evenodd;fill:#CCF8FF;}
	.st2{fill-rule:evenodd;clip-rule:evenodd;fill:#E5E7EB;}
	.st3{fill-rule:evenodd;clip-rule:evenodd;fill:#F0F1F5;}
	.st4{fill-rule:evenodd;clip-rule:evenodd;fill:#E6DCD5;}
	.st5{fill-rule:evenodd;clip-rule:evenodd;fill:#FEFCF7;}
	.st6{fill-rule:evenodd;clip-rule:evenodd;fill:#E5F5FB;}
	.st7{fill-rule:evenodd;clip-rule:evenodd;fill:#E9E9E9;}
	.st8{fill-rule:evenodd;clip-rule:evenodd;fill:#F1F8FF;}
	.st9{fill-rule:evenodd;clip-rule:evenodd;fill:#F2F2F2;}
	.st10{fill-rule:evenodd;clip-rule:evenodd;fill:#FFFFFF;}
	.st11{fill-rule:evenodd;clip-rule:evenodd;}
	.st12{fill-rule:evenodd;clip-rule:evenodd;fill:#EBFDFF;}
	.st13{fill:#783232;}
	.st14{fill:#00E9FF;}
	.st15{fill:#0C1E8C;}
	.st16{fill:#FFC100;}
	.st17{fill:#0C6C00;}
	.st18{fill:#23605B;}
	.st19{fill:#FF7E30;}
	.st20{fill:#00D7FD;}
	.st21{fill:#5C00A2;}
	.st22{fill:#20B700;}
	.st23{fill:none;}
	.st24{fill:#FFFFFF;}
	.st25{fill:#B000AB;}
	.st26{fill:#FA9720;}
	.st27{fill:#DA1300;}
	.st28{fill:#00F2FF;}
	.st29{fill:#00416A;}
	.st30{fill:#00FFE9;}
	.st31{fill:#017F2E;}
	.st32{fill:#0D302D;}
	.st33{fill:#00FFF2;}
	.st34{fill:#003CAC;}
	.st35{fill:#396D7A;}
	.st36{fill:#440044;}
	.st37{fill:#003D36;}
	.st38{fill:#00B6BF;}
	.st39{fill:#CBA400;}
	.st40{fill-rule:evenodd;clip-rule:evenodd;fill:url(#SVGID_1_);}
	.st41{fill-rule:evenodd;clip-rule:evenodd;fill:#404041;}
	.st42{fill:url(#SVGID_00000064332854011017856070000009879110544992838023_);}
	.st43{fill:url(#SVGID_00000160165273112026245670000002855537802575887238_);}
	.st44{fill:url(#SVGID_00000098182943842241640040000009689712037441687680_);}
	.st45{fill:url(#SVGID_00000104672697592871879970000001500290299495812251_);}
	.st46{fill:url(#SVGID_00000114048346948957726410000012945290175682235270_);}
	.st47{fill:url(#SVGID_00000004529942017851104070000014940966187888008883_);}
	.st48{fill:url(#SVGID_00000056418164031540495310000007586469237408904633_);}
	.st49{fill:url(#SVGID_00000082368283313676988470000017524345944986546307_);}
	.st50{fill:url(#SVGID_00000052813456247544397530000003195810717960305590_);}
	.st51{fill:url(#SVGID_00000143592971752889989410000017972880732041451175_);}
	.st52{fill:url(#SVGID_00000181056385627144089920000013126370093777526954_);}
	.st53{fill:url(#SVGID_00000057860211817868280250000005260364028292980104_);}
	.st54{fill:url(#SVGID_00000031917808286158150360000013045327461632578717_);}
	.st55{fill:url(#SVGID_00000163060555886651227170000009199764208688587650_);}
	.st56{fill:url(#SVGID_00000098917613735023358470000008303398996146808750_);}
	.st57{fill:url(#SVGID_00000150089519819198486150000014331078088366799289_);}
	.st58{fill:url(#SVGID_00000103235717985046151260000017327313664256497596_);}
	.st59{fill:#324405;}
	.st60{fill:#0C2948;}
	.st61{fill:#F0AF47;}
	.st62{fill:#FEFEFE;}
	.st63{fill:#F6D89A;}
	.st64{fill:url(#SVGID_00000158718513220679599010000017602935178355332006_);}
	.st65{fill:url(#SVGID_00000032643486601365566940000011675448988607160508_);}
	.st66{fill:url(#SVGID_00000024681714106492907510000014463433389222998187_);}
	.st67{fill:url(#SVGID_00000157277387440452384600000001553902271397732509_);}
	.st68{fill:url(#SVGID_00000152257575696742948450000016233750373325224870_);}
	.st69{fill:url(#SVGID_00000103963263333377266990000000049846759954837130_);}
	.st70{fill:#058CB6;}
	.st71{fill:#173B71;}
	.st72{fill:url(#SVGID_00000109747316755011846460000008333379652608096957_);}
	.st73{fill:url(#SVGID_00000009567659218967690360000015411053689947764620_);}
	.st74{fill:url(#SVGID_00000176044298951899299790000018210928825117036203_);}
	.st75{fill:url(#SVGID_00000028302887330069561870000014522004179145829523_);}
	.st76{fill:#031D41;}
	.st77{fill:#007AE8;}
	.st78{fill:#FBA122;}
	.st79{fill:#F9D190;}
	.st80{fill:url(#SVGID_00000106112750876256560780000006876029542932488848_);}
	.st81{fill:url(#SVGID_00000051349771435238276740000000544363098762150845_);}
</style>
<g id="Layer_1">
</g>
<g id="Layer_2">
</g>
<g id="Layer_3">
</g>
<g id="Layer_4">
</g>
<g id="Layer_5">
</g>
<g id="Layer_6">
</g>
<g id="Layer_7">
</g>
<g id="Layer_8">
</g>
<g id="Layer_9">
</g>
<g id="Layer_10">
</g>
<g id="Layer_11">
</g>
<g id="Layer_12">
</g>
<g id="Layer_13">
</g>
<g id="Layer_14">
</g>
<g id="_x31_-15">
	<path class="st59" d="M78.67,39.03c5.06-0.01,10.13,0.02,15.19-0.01c0.01,0.93,0.02,1.85,0.03,2.78c-1-0.02-2-0.03-2.99-0.03
		c-0.01,3.07,0.02,6.14-0.03,9.2c5.82-3.91,11.59-7.89,17.38-11.84c16.71,11.57,33.32,23.3,49.97,34.96
		c-2.12,1.29-4.18,2.69-6.31,3.97c-0.29,0.18-0.58,0.14-0.85-0.12c-14.28-9.82-28.48-19.76-42.78-29.56
		C93.38,58.27,78.54,68.24,63.7,78.21c-2.2-1.35-4.27-2.89-6.43-4.29c7.43-5.03,14.83-10.11,22.25-15.16
		c0.69-0.53,1.52-0.91,2.12-1.54c0.13-5.15-0.01-10.31,0.06-15.47c-1.01,0.01-2.02,0.01-3.03,0.01
		C78.66,40.85,78.67,39.94,78.67,39.03z M84.14,41.95c0.01,1.39,0,2.77,0.03,4.16c1.57-0.06,3.14,0.01,4.71-0.06
		c0.01-1.36,0.02-2.73,0.02-4.09C87.31,41.94,85.72,41.93,84.14,41.95z M100.22,65.08c3.4-1.18,7.17-1.44,10.64-0.44
		c2.52,0.71,4.71,2.42,6.1,4.62c1.41,2.21,2.35,4.67,3.39,7.06c-4.17,2.51-9.13,3.59-13.97,3.29c0.34,0.36,0.63,0.79,1.07,1.03
		c0.58,0.13,1.19,0.1,1.78,0.08c4.3-0.25,8.6-1.38,12.29-3.65c3.71,1.03,7.55,1.41,11.38,1.68c-3.97,2.74-8.33,5.36-13.24,5.79
		c0.52,1.76,1.34,3.44,1.7,5.25c0.27,1.26-0.99,2.02-1.84,2.67c0.54,0.92,0.37,1.99,0.08,2.96c-0.29,0.45-0.83,0.63-1.26,0.9
		c0.59,1.22,1.22,2.58,0.86,3.96c-0.32,1.25-1.3,2.17-2.35,2.85c2.49,0.62,4.84,1.63,7.27,2.44c2.01,0.76,4.09,1.39,5.98,2.43
		c2.37,1.34,3.89,3.71,5.22,6.02c1.87,3.47,3.33,7.14,4.69,10.83c2.2,6.11,3.97,12.36,5.61,18.63c0.52,2.25,1.13,4.51,1.07,6.84
		c-0.03,3.04-0.88,6.22-3.05,8.44c-2.11,2.22-5.18,3.29-8.2,3.38c-5.23,0.16-10.46-0.43-15.57-1.5c-1.88-0.47-3.82-0.86-5.55-1.76
		c-1.13-0.55-1.94-1.53-2.88-2.33c-0.1,0.84-0.12,1.73-0.51,2.5c-0.23,0.42-0.76,0.43-1.17,0.57c-1.9,0.35-3.81,0.69-5.74,0.79
		c-0.9,0.07-2.05-0.42-2.1-1.45c-0.02-2.24,0.39-4.49,0.14-6.72c-0.76-0.41-1.75-0.61-2.16-1.47c-0.55-1.24,0.9-2.41,0.3-3.64
		c-0.61-1.43-0.55-3.03-0.05-4.49c-0.89-0.21-1.96-0.31-2.5-1.16c-0.43-0.56-0.19-1.32,0.14-1.85c0.61-1.01,1.72-1.63,2.2-2.72
		c0.21-0.81-0.48-1.48-0.98-2.03c-1.22-1.24-2.78-2.05-4.42-2.58c0.59,1.64,0.8,3.43,0.48,5.15c-0.26,1.33-1.11,2.59-2.37,3.14
		c-1.11,0.5-2.35,0.46-3.54,0.58c-2.01,5.5-3.57,11.16-5.63,16.64c-1.56,4.08-4.43,7.67-8.16,9.96c-1.55,0.91-3.35,1.58-5.16,1.39
		c-2.07-0.46-3.32-2.47-4.06-4.3c-1.74-4.74-1.61-9.88-1.74-14.85c0.06-7.26-0.08-14.56,0.9-21.77c0.62-4.56,2.01-9.05,4.45-12.98
		c1.32-2.11,2.74-4.24,4.76-5.75c1.64-1.16,3.54-1.85,5.35-2.69c4.38-2.05,8.79-4.06,12.98-6.47c0.37-2.13,0.7-4.27,0.96-6.41
		c0.08-0.69-0.14-1.36-0.32-2.01c-0.9-2.81-1.99-5.56-2.98-8.34c-0.65-1.8-1.2-3.69-1.1-5.63c0.12-3.12,1.6-6.03,3.57-8.39
		C94.85,67.38,97.51,66,100.22,65.08z M107.66,81.14c-0.06,2.1-0.64,4.13-1.47,6.05c-0.58-1.07-1.07-2.21-1.95-3.08
		c-0.95-0.91-2.34-1.46-3.64-1.08c-1.23,0.33-1.93,1.62-2.01,2.82c-0.11,1.71,0.73,3.28,1.61,4.69c-1.36,1.67-2.34,3.95-4.55,4.66
		c-0.71,2.88-0.73,5.9-1.57,8.75c-0.16,0.85-0.98,1.25-1.59,1.74c0.52,1.25,1.54,2.19,2.4,3.21c2.15,2.38,5.09,4.24,8.35,4.47
		c2.51,0.21,5.25-0.53,6.92-2.52c1.55-1.81,1.98-4.31,1.81-6.63c-3.48-1.65-6.93-3.94-8.75-7.44c0.85,0.88,1.7,1.8,2.82,2.34
		c2.7,1.36,5.73,1.99,8.74,2.11c1,0.03,2.28-0.16,2.68-1.24c0.52-1.44-0.64-2.76-0.6-4.18c0.37-0.94,1.4-1.34,2.06-2.04
		c-0.34-0.19-0.69-0.35-1-0.56c-0.38-0.6-0.53-1.3-0.78-1.96c0.95,0.03,1.86-0.26,2.66-0.75c-0.43-2.03-1.45-3.89-2.04-5.88
		c-2.46-0.02-4.93-0.53-7.14-1.63C109.56,82.49,108.64,81.76,107.66,81.14z M117.12,107.36c-0.98,6.8-2.07,13.58-2.98,20.39
		c-1.09-0.01-2.17,0.01-3.26,0.07c0.46,1.5,0.33,3.11,0.78,4.61c0.86,1.33,1.58,2.76,2.53,4.02c1.51,2.16,3.35,4.1,4.61,6.43
		c0.58,1.04,0.88,2.21,1.51,3.22c1.4,0.29,2.86,0.21,4.29,0.23c-0.76-0.51-1.61-0.85-2.47-1.13c-0.28-5.81-0.04-11.64-0.14-17.46
		c-0.66,0.01-1.33,0.01-1.99,0.01c0.93-6.35,2.01-12.68,2.98-19.03c-0.57-0.13-1.13-0.26-1.7-0.38c-0.96,6.47-1.99,12.93-2.99,19.39
		c-0.84,0.01-1.68,0.01-2.52,0c0.98-6.66,1.93-13.33,3.12-19.96C118.32,107.62,117.72,107.49,117.12,107.36z M86.89,108.28
		c0.69,2.92,1.26,5.87,1.94,8.79c-0.82-0.09-1.63-0.04-2.45,0c-0.74-2.59-1.17-5.27-1.84-7.89c-0.54,0.14-1.08,0.27-1.62,0.41
		c0.61,2.75,1.19,5.51,1.73,8.28c-1.1,0.84-1.78,2.08-2.07,3.41c-1.1,0.13-2.34,0.5-2.86,1.58c-0.6,1.26-0.17,2.69,0.09,3.98
		c-1.05,0.71-1.91,1.79-2.08,3.07c-0.26,1.77,0.59,3.5,1.77,4.77c-0.23-1.8-0.44-3.81,0.61-5.41c0.42-0.74,1.21-1.23,1.52-2.03
		c0.22-1.26-0.81-2.36-0.62-3.62c0.2-1.02,1.42-1.44,2.34-1.3c0.79,0.07,1.33,0.69,1.84,1.23c-0.52-1.63-0.39-3.58,0.91-4.81
		c1.03-1.2,2.78-0.99,4.18-0.73c3.2,0.76,6.28,2,9.13,3.64c3.74,2.09,6.5,5.83,7.39,10.02c0.42,2.03,0.61,4.09,0.55,6.16
		c0.13,0.05,0.38,0.15,0.51,0.2c-0.11-1.34,0.21-2.64,0.49-3.93c0.28-2.29-0.32-4.62-1.32-6.68c-1.59-3.25-4.52-5.62-7.7-7.23
		c-2.75-1.36-5.62-2.58-8.68-3c-0.76-3.08-1.41-6.19-2.01-9.3C88.06,108.03,87.48,108.16,86.89,108.28z M87.62,122.47
		c1.24,0.74,2.64,1.18,3.95,1.78c3.81,1.67,7.63,3.5,10.79,6.26c1.11,0.94,1.98,2.11,2.98,3.15c-0.28-2.15-1.45-4.06-2.75-5.74
		c-1.43-1.86-3.49-3.09-5.56-4.13c-2.78-1.33-5.65-2.47-8.56-3.46C87.22,119.82,86.56,121.91,87.62,122.47z M82.51,123.54
		c-0.21,1.43,0.17,2.84,0.22,4.26c0.05,1.14-1.29,1.73-1.3,2.87c-0.09,1.76,0.57,3.46,0.7,5.2c-1.89,1.72-3.68,3.56-5.54,5.32
		c-3.09,2.89-6.18,5.95-10.06,7.77c-0.38,3.04-1.19,6.09-0.85,9.18c0.19,1.1,0.54,2.46,1.7,2.89c1.23,0.49,2.52-0.16,3.52-0.86
		c2.67-1.95,4.69-4.61,6.72-7.18c3.53-4.56,6.9-9.23,10.24-13.93c0.98,0.33,1.99,0.68,3.05,0.62c1.21-0.01,2.44-0.83,2.73-2.03
		c0.28-1.18-0.11-2.41-0.81-3.36c-1.37-1.91-3.52-3.01-5.46-4.23c-0.55-0.38-1.3-0.7-1.43-1.43c-0.28-1.13-0.58-2.27-1.23-3.25
		C84.17,124.56,83.57,123.61,82.51,123.54z M109.26,137.49c0.39,1.24,1.69,1.84,2.37,2.89c-0.21,0.61-0.52,1.18-0.74,1.79
		c-1.29-1.56-3.42-1.87-5.25-2.44c-1.47-0.34-2.93-1.06-4.47-0.87c-0.66,0.19-1.79,0.9-1.19,1.66c1.45,1.24,3.34,1.79,5,2.7
		c-0.8-0.03-1.67-0.61-2.43-0.22c-0.59,0.85-0.94,1.86-1.07,2.88c0.85,1.22,2.6,1.06,3.72,1.93c-0.78,0.15-1.58,0.08-2.35,0.28
		c-0.56,0.41-0.45,1.39,0.21,1.63c2.65,1.34,5.42,2.48,7.9,4.14c1.12,0.74,2.21,1.55,3.49,2c1.94,0.75,4.05,0.89,6.11,1.01
		c3.13,0.09,6.28,0.08,9.38-0.44c3.59-0.6,7.42-1.52,10.08-4.18c2.7-2.92,4.24-6.98,4-10.97c-0.91-0.26-1.85-0.36-2.79-0.39
		c-3.7-0.06-7.45,0.63-10.81,2.21c0.06,0.47,0.12,0.93,0.18,1.4c3.51-1.03,7.67-0.36,10.24,2.39c-2.99-0.99-6.23-1-9.31-0.41
		c-2.28,0.41-4.29,1.68-6.57,2.07c-2.01,0.23-4.06,0.15-6.07,0.04c-1.1-1.55-0.82-3.65-1.84-5.25c-1.29-2.07-3.03-3.81-4.46-5.77
		c-0.7-0.94-0.89-2.12-1.14-3.23C110.04,134.62,108.99,136.08,109.26,137.49z M105.53,154.57c-0.43,1.26-0.81,2.53-1.2,3.8
		c1.55-0.29,3.15-0.37,4.67-0.81c0.26-0.68-0.04-1.49-0.57-1.95C107.62,154.93,106.53,154.78,105.53,154.57z M143.55,78.39
		c0.15,4.98,0.01,9.97,0.08,14.95c4.47-0.04,8.94-0.01,13.42,0.01c0.01,4.59-0.01,9.18-0.01,13.76c-0.12,0.74,0.75,0.94,1.2,1.33
		c6.21,4.3,12.46,8.55,18.68,12.83c-0.02-5.63-0.54-11.28-1.92-16.75c-2.43-9.95-7.08-19.37-13.64-27.23
		c-3.32,2.16-6.56,4.45-9.9,6.58C148.79,82.09,146.18,80.23,143.55,78.39z M56.48,79.06c-4.26,5.28-7.63,11.26-10.11,17.57
		c-2.59,6.74-3.94,13.94-4.01,21.16c1.28-0.94,2.59-1.84,3.89-2.75c8.45-5.77,16.92-11.51,25.41-17.22
		c0.04-6.49,0.03-12.98-0.01-19.47c-2.64,1.84-5.31,3.65-7.98,5.45C61.25,82.25,58.86,80.66,56.48,79.06z M103.07,88.48
		c-0.27-0.29-0.56-0.57-0.82-0.88c0.09-0.7,0.86-1.07,1.08-1.74c-1.08,0.15-2.04,1.04-2.1,2.16
		C101.78,88.41,102.43,88.47,103.07,88.48z M31.05,131.12c2.52,1.73,4.94,3.6,7.4,5.42c9.2-6.32,18.52-12.47,27.66-18.88
		c0.69-0.35,0.84-1.15,1.11-1.81c0.52-1.45,1.36-2.75,2.35-3.92c1.39-1.63,3.23-2.78,5.04-3.88c4.89-2.81,9.96-5.28,15.02-7.75
		c0.74-0.39,1.5-0.76,2.31-1.01c0.1-1.58,0.11-3.17,0.09-4.75c0-1.52-0.53-2.97-0.84-4.44c-3.18,2.11-6.31,4.31-9.48,6.45
		C64.78,108.01,48.01,119.7,31.05,131.12z M121.65,95.64c-0.49,1-1.57,2.28-0.61,3.34c10.38,7.1,20.76,14.19,31.16,21.27
		c8.1,5.55,16.26,11.01,24.33,16.62c2.58-1.53,5.06-3.24,7.63-4.79c-11.57-8.03-23.21-15.94-34.84-23.88
		c-8.82-6-17.59-12.09-26.46-18.02c-0.1,0.88-0.26,1.76-0.73,2.51C121.54,93.58,122.26,94.73,121.65,95.64z M113.63,132.4
		c0.44,1.26,1.21,2.37,2.03,3.41c1.64,2.15,3.49,4.15,4.84,6.5c-0.01-4.43,0-8.86,0.01-13.3c-2.52,0-5.04-0.08-7.55,0.05
		C113.14,130.18,113.22,131.33,113.63,132.4z M52.46,153.46c0.01-6.95-0.07-13.89-0.08-20.84c-2.61,1.78-5.21,3.57-7.84,5.33
		C46.63,143.37,49.21,148.63,52.46,153.46z M162.1,160.22c4.73-6.01,8.53-12.73,11.44-19.8c-3.81-2.65-7.69-5.19-11.5-7.83
		C162.13,141.8,162.08,151.01,162.1,160.22z M92.75,159.28c2.43,0.03,4.86-0.01,7.29,0c-0.2-2.24,0.59-4.39,0.95-6.57
		c-1.04-0.46-1.79-1.38-2-2.5c-0.37-2.13-0.15-4.35-0.71-6.45c-0.79-0.95-2.14-1.21-2.96-2.16c-0.78,0.56-1.67,0.88-2.61,1.06
		C92.74,148.2,92.72,153.74,92.75,159.28z M85.29,157.29c-1.2,4.38-4.24,8.01-7.83,10.67c-0.19,1.43-0.05,2.88-0.11,4.32
		c17.07,0.02,34.13,0,51.2-0.04c-0.15-2.93-0.28-5.85-0.37-8.78c-3.2-0.43-6.36-1.08-9.49-1.87c-2.13-0.55-4.28-1.29-5.95-2.77
		c-0.13,0.54-0.25,1.08-0.38,1.63c-3.45-0.25-6.77,0.81-10.14,1.35c-0.75-0.09-1.04-1.23-1.86-1.22c-3.03-0.02-6.06-0.04-9.1-0.01
		c-0.02-5.87,0.04-11.74,0-17.61c-0.7,0.03-1.4,0.05-2.09,0.06C87.43,147.64,86.48,152.51,85.29,157.29z M132.33,192.65
		c1,0,2,0.01,3,0.02c-0.06-9.52,0.04-19.04-0.07-28.55c-1.43,0.02-2.86-0.17-4.28-0.25C131.39,173.47,131.77,183.07,132.33,192.65z
		 M70.85,192.71c1.04-0.01,2.08-0.02,3.13-0.01c0.23-7.52,0.51-15.05,0.65-22.57c-1.2,0.34-2.44,0.53-3.69,0.48
		C70.91,177.99,70.84,185.35,70.85,192.71z M76.69,192.7c17.58-0.12,35.16-0.21,52.74-0.26c-0.21-6.37-0.63-12.73-0.85-19.1
		c-17.1-0.04-34.21,0.06-51.31,0.07C77.19,179.84,76.85,186.27,76.69,192.7z"/>
</g>
</svg>
