<?xml version="1.0" encoding="utf-8"?>
<!-- Generator: Adobe Illustrator 27.8.1, SVG Export Plug-In . SVG Version: 6.00 Build 0)  -->
<svg version="1.1" xmlns="http://www.w3.org/2000/svg" xmlns:xlink="http://www.w3.org/1999/xlink" x="0px" y="0px"
	 viewBox="0 0 350 230" style="enable-background:new 0 0 350 230;" xml:space="preserve">
<style type="text/css">
	.st0{fill-rule:evenodd;clip-rule:evenodd;fill:#FFFDF7;}
	.st1{fill-rule:evenodd;clip-rule:evenodd;fill:#CCF8FF;}
	.st2{fill-rule:evenodd;clip-rule:evenodd;fill:#E5E7EB;}
	.st3{fill-rule:evenodd;clip-rule:evenodd;fill:#F0F1F5;}
	.st4{fill-rule:evenodd;clip-rule:evenodd;fill:#E6DCD5;}
	.st5{fill-rule:evenodd;clip-rule:evenodd;fill:#FEFCF7;}
	.st6{fill-rule:evenodd;clip-rule:evenodd;fill:#E5F5FB;}
	.st7{fill-rule:evenodd;clip-rule:evenodd;fill:#E9E9E9;}
	.st8{fill-rule:evenodd;clip-rule:evenodd;fill:#F1F8FF;}
	.st9{fill-rule:evenodd;clip-rule:evenodd;fill:#F2F2F2;}
	.st10{fill-rule:evenodd;clip-rule:evenodd;fill:#FFFFFF;}
	.st11{fill-rule:evenodd;clip-rule:evenodd;}
	.st12{fill-rule:evenodd;clip-rule:evenodd;fill:#EBFDFF;}
	.st13{fill:#783232;}
	.st14{fill:#00E9FF;}
	.st15{fill:#0C1E8C;}
	.st16{fill:#FFC100;}
	.st17{fill:#0C6C00;}
	.st18{fill:#23605B;}
	.st19{fill:#FF7E30;}
	.st20{fill:#00D7FD;}
	.st21{fill:#5C00A2;}
	.st22{fill:#20B700;}
	.st23{fill:none;}
	.st24{fill:#FFFFFF;}
	.st25{fill:#B000AB;}
	.st26{fill:#FA9720;}
	.st27{fill:#DA1300;}
	.st28{fill:#00F2FF;}
	.st29{fill:#00416A;}
	.st30{fill:#00FFE9;}
	.st31{fill:#017F2E;}
	.st32{fill:#0D302D;}
	.st33{fill:#00FFF2;}
	.st34{fill:#003CAC;}
	.st35{fill:#396D7A;}
	.st36{fill:#440044;}
	.st37{fill:#003D36;}
	.st38{fill:#00B6BF;}
	.st39{fill:#CBA400;}
	.st40{fill-rule:evenodd;clip-rule:evenodd;fill:url(#SVGID_1_);}
	.st41{fill-rule:evenodd;clip-rule:evenodd;fill:#404041;}
	.st42{fill:url(#SVGID_00000130634305384255804470000015727359520449439389_);}
	.st43{fill:url(#SVGID_00000058585251621945693940000013632750075737955485_);}
	.st44{fill:url(#SVGID_00000118368563672843340600000009755698710650821251_);}
	.st45{fill:url(#SVGID_00000032622138555215527440000008492692081217399951_);}
	.st46{fill:url(#SVGID_00000116203615125562601270000007984799198733317547_);}
	.st47{fill:url(#SVGID_00000083061480648512274920000006518508889528362398_);}
	.st48{fill:url(#SVGID_00000062168619605002423200000001091041415682981257_);}
	.st49{fill:url(#SVGID_00000099651770163956771760000007384088284382560684_);}
	.st50{fill:url(#SVGID_00000109751470537227128930000003218081528980042424_);}
	.st51{fill:url(#SVGID_00000110462277269122930740000011743629584604862358_);}
	.st52{fill:url(#SVGID_00000164506716539446621720000000222283637004755107_);}
	.st53{fill:url(#SVGID_00000175308787749215228710000005773250744731052732_);}
	.st54{fill:url(#SVGID_00000120541510491465766930000010443517405006492090_);}
	.st55{fill:url(#SVGID_00000010306472922363377710000014749487016229617059_);}
	.st56{fill:url(#SVGID_00000060732084292175087790000014746534929930249401_);}
	.st57{fill:url(#SVGID_00000099661163706618368590000003969450773692364452_);}
	.st58{fill:url(#SVGID_00000065035182194947089870000016043403274667008434_);}
	.st59{fill:#324405;}
	.st60{fill:#0C2948;}
	.st61{fill:#F0AF47;}
	.st62{fill:#FEFEFE;}
	.st63{fill:#F6D89A;}
	.st64{fill:url(#SVGID_00000052075916165462279570000011015651121159308179_);}
	.st65{fill:url(#SVGID_00000183968709725706406090000008973718773855616174_);}
	.st66{fill:url(#SVGID_00000116935891773681786110000011887918379065112716_);}
	.st67{fill:url(#SVGID_00000076573415483749203030000005674137411842615478_);}
	.st68{fill:url(#SVGID_00000008871828585881909620000013886434492642797232_);}
	.st69{fill:url(#SVGID_00000141428177164047467300000000723356703903988400_);}
	.st70{fill:#058CB6;}
	.st71{fill:#173B71;}
	.st72{fill:url(#SVGID_00000051346781437540690870000006423553109044509617_);}
	.st73{fill:url(#SVGID_00000049218141716017006030000007259272395967911057_);}
	.st74{fill:url(#SVGID_00000007393740877877098560000002375343898445182899_);}
	.st75{fill:url(#SVGID_00000118366388540421072020000006642387889960670398_);}
	.st76{fill:#031D41;}
	.st77{fill:#007AE8;}
	.st78{fill:#FBA122;}
	.st79{fill:#F9D190;}
	.st80{fill:url(#SVGID_00000179633947695701188190000000940606545721485184_);}
	.st81{fill:url(#SVGID_00000177486752923585732050000008064152365566127762_);}
</style>
<g id="Layer_1">
</g>
<g id="Layer_2">
</g>
<g id="Layer_3">
</g>
<g id="Layer_4">
</g>
<g id="Layer_5">
</g>
<g id="Layer_6">
</g>
<g id="Layer_7">
</g>
<g id="Layer_8">
</g>
<g id="Layer_9">
</g>
<g id="Layer_10">
</g>
<g id="Layer_11">
</g>
<g id="Layer_12">
</g>
<g id="Layer_13">
</g>
<g id="Layer_14">
</g>
<g id="_x31_-15">
	<radialGradient id="SVGID_1_" cx="174.9995" cy="98.2222" r="71.5387" gradientUnits="userSpaceOnUse">
		<stop  offset="0" style="stop-color:#FFB700"/>
		<stop  offset="4.929125e-03" style="stop-color:#F9B302"/>
		<stop  offset="0.0476" style="stop-color:#CB910E"/>
		<stop  offset="0.0951" style="stop-color:#9F721A"/>
		<stop  offset="0.1465" style="stop-color:#795724"/>
		<stop  offset="0.2022" style="stop-color:#583F2D"/>
		<stop  offset="0.2634" style="stop-color:#3C2B35"/>
		<stop  offset="0.3323" style="stop-color:#261B3B"/>
		<stop  offset="0.4122" style="stop-color:#150F3F"/>
		<stop  offset="0.5102" style="stop-color:#090643"/>
		<stop  offset="0.6456" style="stop-color:#020144"/>
		<stop  offset="1" style="stop-color:#000045"/>
	</radialGradient>
	<path style="fill:url(#SVGID_1_);" d="M222.61,100.73c0.64-0.03,1.31,0.03,1.92,0.21c1.01,0.29,2.05,0.85,2.53,1.84
		c0.34,0.7,0.25,1.2,0.01,1.92c-0.32,0.01-0.45,0.02-0.73-0.16C225.54,104.05,222.81,101.56,222.61,100.73z M123.7,102.88
		c-0.2,0.32-0.29,0.61-0.21,0.98c0.07,0.3,0.31,0.66,0.5,0.9c0.92,0.06,1.39-0.39,2.04-0.97c1-0.89,2.13-2.01,2.79-3.18l-0.08-0.18
		C127.22,100.73,124.57,101.52,123.7,102.88z M215.78,79.07c0.01,0.49,0.18,0.88,0.54,1.21c0.6,0.54,1.4,0.64,2.18,0.59
		c0.58-0.37,1.01-0.71,1.19-1.4c0.11-0.44,0.05-0.92-0.21-1.3c-0.34-0.51-0.9-0.91-1.52-0.98c-0.36-0.04-0.75,0.02-1.11,0.06
		C216.31,77.72,215.75,78.29,215.78,79.07z M203.7,64.41c-0.28,0.46-0.38,1.02-0.22,1.54c0.15,0.46,0.5,0.96,0.96,1.15
		c0.38,0.16,0.89,0.11,1.3,0.11c0.69-0.27,1.23-0.49,1.52-1.22c0.17-0.41,0.15-0.88-0.04-1.28c-0.27-0.57-0.77-0.93-1.36-1.1
		c-0.26-0.07-0.53-0.09-0.79-0.11C204.46,63.68,204.03,63.85,203.7,64.41z M143.9,65.46c-0.05,0.46,0.11,0.92,0.42,1.27
		c0.37,0.43,0.92,0.67,1.48,0.69c0.29,0.01,0.59-0.02,0.88-0.05c0.62-0.46,1.11-0.91,1.19-1.73c0.05-0.49-0.1-0.95-0.42-1.32
		c-0.4-0.46-1.01-0.74-1.62-0.74c-0.25,0-0.5,0.03-0.75,0.07C144.44,64.16,143.99,64.59,143.9,65.46z M131.23,78.54
		c-0.19,0.44-0.19,0.9-0.02,1.35c0.2,0.5,0.69,0.87,1.19,1.05c0.3,0.11,0.6,0.15,0.92,0.19c0.65-0.19,1.25-0.4,1.59-1.03
		c0.24-0.43,0.3-0.94,0.16-1.4c-0.15-0.52-0.55-0.95-1.03-1.21c-0.37-0.2-0.78-0.24-1.19-0.26
		C132.15,77.53,131.55,77.8,131.23,78.54z M167.39,59.3c-0.09,0.49-0.02,1,0.23,1.43c0.27-0.02,0.25-0.06,0.43-0.24
		c1.17-1.28,4.25-4.39,4.31-6.09c0.01-0.37-0.1-0.46-0.33-0.71c-0.23-0.03-0.46-0.06-0.7-0.07
		C169.82,54.73,167.71,57.42,167.39,59.3z M117.25,127.36c-0.2,0.55-0.17,1.16,0.1,1.67c0.27,0.52,0.79,0.95,1.36,1.11
		c0.35,0.11,0.76,0.1,1.12,0.09c0.68-0.29,1.17-0.55,1.48-1.25c0.23-0.51,0.24-1.1,0.04-1.62c-0.24-0.62-0.73-1.09-1.35-1.32
		c-0.33-0.12-0.69-0.17-1.04-0.16C118.17,126.22,117.56,126.52,117.25,127.36z M116.57,73.55c-0.17,0.52-0.14,1.09,0.13,1.58
		c0.3,0.56,0.9,0.99,1.51,1.16c0.34,0.09,0.66,0.11,1.01,0.11c0.67-0.28,1.22-0.57,1.54-1.26c0.24-0.52,0.27-1.13,0.07-1.67
		c-0.23-0.61-0.72-1.1-1.33-1.33c-0.42-0.16-0.85-0.13-1.29-0.11C117.48,72.39,116.84,72.75,116.57,73.55z M150.38,41.13
		c-0.13,0.61-0.04,1.27,0.31,1.78c0.36,0.54,0.98,0.89,1.62,0.99c0.28,0.04,0.53,0.02,0.81-0.01c0.71-0.41,1.24-0.81,1.48-1.63
		c0.16-0.54,0.1-1.14-0.17-1.63c-0.29-0.52-0.82-0.93-1.4-1.09c-0.42-0.11-0.85-0.09-1.27-0.06
		C151.07,39.91,150.57,40.3,150.38,41.13z M220.19,98.59c0.42,0.15,0.96-0.06,1.38-0.17c1.81-0.74,4.52-1.9,5.34-3.83
		c0.15-0.34,0.21-0.79,0.02-1.13c-0.18-0.31-0.5-0.45-0.84-0.49c-0.2-0.02-0.39-0.01-0.59,0.02
		C224.39,93.7,220.58,97.44,220.19,98.59z M179.09,56.05c1.13,1.98,3.02,3.85,4.64,5.43c0.23-2.58-0.79-4.1-2.37-6.01
		c-0.73-0.88-1.48-1.77-2.67-1.88c-0.04,0-0.08,0-0.13-0.01C178.3,54.56,178.59,55.18,179.09,56.05z M185.08,60.28
		c-0.08,0.37-0.06,0.42,0.11,0.74c0.46,0.04,0.88-0.35,1.23-0.64c1.22-0.86,4.41-2.5,4.66-4.08c0.06-0.34-0.05-0.71-0.28-0.96
		c-0.34-0.37-0.95-0.46-1.43-0.42c-0.07,0.01-0.15,0.01-0.22,0.02C187.58,55.98,185.51,58.4,185.08,60.28z M159.92,56.03
		c-0.06,0.7,0.36,1.23,0.83,1.7c1.45,1.46,3.67,2.61,5.41,3.72l0.17,0.06c-0.04-1.91-1.88-4.06-3.18-5.31
		c-0.59-0.56-1.28-1.18-2.15-1.15c-0.16,0.01-0.32,0.02-0.47,0.04C160.22,55.36,159.95,55.59,159.92,56.03z M196.79,40.62
		c-0.29,0.57-0.35,1.26-0.12,1.86c0.23,0.6,0.71,1.11,1.31,1.36c0.34,0.14,0.71,0.18,1.07,0.22c0.77-0.24,1.44-0.51,1.84-1.25
		c0.28-0.52,0.35-1.15,0.18-1.73c-0.2-0.67-0.73-1.25-1.37-1.53c-0.36-0.16-0.77-0.19-1.17-0.23
		C197.79,39.58,197.17,39.88,196.79,40.62z M123.99,93.63c-0.06,0.61,0.24,1.14,0.63,1.58c1.4,1.57,3.75,2.49,5.79,2.74
		c0.31-0.12,0.51-0.12,0.68-0.43c-0.84-1.03-5.01-5.11-6.08-5.26c-0.05-0.01-0.1-0.01-0.15-0.01
		C124.38,92.64,124.05,92.98,123.99,93.63z M150.21,160.04c-0.31,0.59-0.36,1.29-0.14,1.91c0.23,0.65,0.72,1.17,1.34,1.45
		c0.43,0.19,0.87,0.22,1.33,0.24c0.83-0.35,1.47-0.74,1.82-1.62c0.24-0.59,0.24-1.27-0.03-1.85c-0.29-0.61-0.84-1.08-1.48-1.28
		c-0.36-0.11-0.75-0.13-1.12-0.16C151.17,159,150.6,159.3,150.21,160.04z M196.15,160.31c-0.33,0.57-0.41,1.26-0.21,1.89
		c0.19,0.61,0.64,1.15,1.21,1.44c0.4,0.21,0.89,0.25,1.34,0.29c0.81-0.24,1.47-0.55,1.9-1.31c0.32-0.55,0.41-1.25,0.2-1.86
		c-0.22-0.64-0.76-1.25-1.39-1.5c-0.38-0.15-0.86-0.19-1.27-0.23C197.16,159.26,196.57,159.58,196.15,160.31z M229.94,127.53
		c-0.23,0.62-0.17,1.32,0.13,1.91c0.32,0.62,0.94,1.16,1.62,1.33c0.4,0.1,0.89,0.07,1.31,0.02c0.77-0.47,1.36-0.94,1.59-1.85
		c0.16-0.61,0.06-1.26-0.28-1.8c-0.35-0.54-0.94-0.97-1.57-1.1c-0.39-0.08-0.83-0.05-1.23-0.03
		C230.76,126.37,230.23,126.73,229.94,127.53z M229.89,72.81c-0.31,0.59-0.35,1.29-0.12,1.92c0.25,0.67,0.81,1.27,1.49,1.53
		c0.41,0.16,0.92,0.18,1.36,0.19c0.86-0.39,1.53-0.8,1.86-1.73c0.22-0.64,0.18-1.34-0.15-1.93c-0.35-0.63-1.01-1.1-1.73-1.23
		c-0.3-0.06-0.61-0.07-0.91-0.09C230.91,71.72,230.29,72.07,229.89,72.81z M165.79,99.89l8.41,0.04l-0.01-8.24
		c-2.79-0.03-5.59-0.09-8.38-0.08L165.79,99.89z M165.82,110.78l8.37-0.02l0.01-8.31c-2.79,0-5.58-0.05-8.37,0L165.82,110.78z
		 M176.65,110.71l8.45,0.07l-0.03-8.3l-8.41-0.03L176.65,110.71z M176.67,99.96c2.75,0,5.73,0.25,8.45-0.04
		c0.03-2.74,0.04-5.49-0.02-8.23l-8.44-0.01L176.67,99.96z M216.59,50.99c-0.75,2.24-2.66,7.06-2.85,9.16l0.15,0.18
		c2.88-0.59,5.84-1.12,8.67-1.9c0.9-3.09,2.12-6.1,2.94-9.2l-0.09-0.15C222.45,49.55,219.5,50.29,216.59,50.99z M216.99,153.45
		c3.13,0.58,6.32,0.97,9.42,1.72c-1.04-3.04-2.1-6.14-3.31-9.12c-3.09-0.7-6.38-1.29-9.54-1.58
		C214.57,147.48,215.71,150.57,216.99,153.45z M170.11,35.91c1.16,1.68,2.25,3.4,3.34,5.12c0.58,0.91,1.15,1.99,1.85,2.81
		c1.72-2.6,3.55-5.18,5.14-7.86c-0.99-1.58-4.11-7.02-5.18-7.89C173.53,30.69,171.86,33.32,170.11,35.91z M127.85,145.86
		c-0.83,2.99-1.91,5.92-2.9,8.86l-0.24,0l0.28,0.08c-0.11,0.31-0.25,0.51-0.15,0.84l0.11,0.02c3.06-0.83,6.15-1.76,9.14-2.82
		c0.32-1.09,3.2-9.26,3.15-9.54l-0.17-0.05C134,144.11,130.86,144.87,127.85,145.86z M127.67,58.16c3.18,0.63,6.4,1.44,9.61,1.91
		c-1.03-3.2-2.21-6.46-2.97-9.73c-3.08-0.68-6.17-1.39-9.28-1.95C125.84,51.66,126.71,54.92,127.67,58.16z M231.37,100.94
		c1.85,1.45,5.33,4.61,7.33,5.38c0.56,0.21,1.15,0.17,1.74,0.12c2.09-0.98,5.68-3.81,7.49-5.39c-1.73-1.57-5.22-4.62-7.3-5.42
		c-0.5-0.19-1.02-0.17-1.55-0.14l-0.11,0.01C236.18,96.53,233.82,99.24,231.37,100.94z M102.08,100.88c3.14,1.85,6.15,3.9,9.15,5.96
		c3.08-1.84,5.97-4.08,8.98-6.03c-2.45-1.47-6.74-4.87-8.98-5.81C108.2,96.94,105.22,99.13,102.08,100.88z M123.84,85.06
		c0.59,1.18,8.85,9.57,10.22,10.63l3.87-4.12c1.41-1.48,2.96-2.94,4.22-4.55l-3.13-2.3c-4.99,0-10.03-0.13-15.01,0.12L123.84,85.06z
		 M208.75,87.23c2.85,2.93,5.69,5.87,8.66,8.67l3.06-3.23c2.38-2.46,4.79-4.9,6.98-7.52c-4.86-0.53-10.02-0.94-14.91-0.87
		C211.4,85.41,210.06,86.3,208.75,87.23z M152.02,71.06c0.98,1.04,1.96,2.08,2.91,3.16l4.8-4.87c1.63-1.66,3.32-3.29,4.86-5.04
		c-2.52-1.81-5.12-3.51-7.71-5.22c-1.58-1.04-3.17-2.16-4.84-3.05C152,61.04,152.1,66.05,152.02,71.06z M186,64.27
		c1.67,1.8,3.42,3.54,5.14,5.29c1.6,1.57,3.18,3.15,4.73,4.78c1.09-1.22,2.15-2.47,3.27-3.67l-0.04-9.72
		c-0.01-1.56,0.19-3.6-0.18-5.1L186,64.27z M139.87,81.36c1.53,1.16,3.03,2.38,4.46,3.67c1.41-1.46,2.79-2.94,4.23-4.37
		c1.42-1.43,2.88-2.83,4.22-4.34c-1.59-1.75-3.36-3.36-5.09-4.97c-3.89-0.35-7.75-1.11-11.64-1.52L139.87,81.36z M202.54,71.64
		c-1.46,1.68-3.09,3.16-4.69,4.7c1.52,1.62,3.1,3.18,4.68,4.74c1.4,1.41,2.79,2.83,4.22,4.21c1.44-1.27,3.27-2.59,4.4-4.16
		c0.36-0.5,0.6-1.03,0.8-1.61c0.8-2.35,1.21-4.98,1.75-7.41c0.22-0.97,0.59-2.04,0.66-3.02c0.01-0.08,0.01-0.17,0.02-0.25
		l-0.14-0.13l-0.19,0.02C210.18,69.61,206.36,70.62,202.54,71.64z M126.58,122.11c3.95,0.25,7.97,0.12,11.93,0.13l21.51,0
		l59.28-0.01l5.74-0.01c-1.98-2.38-4.24-4.49-6.34-6.76c-17.38-0.23-34.79-0.05-52.18-0.06l-22.54,0c-3.8,0-7.63-0.11-11.42,0.01
		C130.82,117.85,128.48,119.79,126.58,122.11z M168.16,65.49l-10.5,10.59l-26.39,26.73l-8.04,8.07c-1.51,1.5-3.16,2.95-4.51,4.58
		c4.02,0.05,8.1,0.29,12.11,0.17c2.9-3.08,5.97-5.99,8.95-9l23.6-23.65c4-3.99,8.07-7.92,11.99-12l0.68,0.65
		c4.27,4.52,8.78,8.8,13.19,13.2l17.65,17.75l7.85,7.81c1.71,1.7,3.61,3.41,5.04,5.34l13.03-0.01c-2.94-2.86-5.8-5.79-8.72-8.67
		l-27.02-26.91c-6.74-6.84-13.37-13.86-20.29-20.53c-0.52-0.5-1.04-1.04-1.74-1.28C172.89,60.85,170.47,63.15,168.16,65.49z
		 M175.41,156.55c4.35-4.67,9.06-9.06,13.59-13.57c5.29-5.26,10.48-10.67,15.87-15.83c0.31,0.43,0.64,0.86,0.91,1.32
		c-1.36,1.69-3,3.19-4.53,4.72l-7.18,7.15l-11.88,11.78c-2.24,2.21-4.47,4.64-6.92,6.61c-8.04-7.67-15.85-15.65-23.64-23.58
		c-2.72-2.77-7.08-6.51-9.12-9.57c-3.26,0.02-6.58-0.1-9.84,0.07c0.52,1.21,18.08,18.25,20.97,21.14l21.51,21.58l27-26.79
		l10.65-10.57c1.75-1.75,3.59-3.47,5.24-5.31c-2.97-0.17-5.98-0.1-8.96-0.11l-15.44-0.01c-11.8,0-23.65-0.17-35.44,0.07
		c1.62,2.29,4.08,4.33,6.07,6.33c3.67,3.68,7.28,7.41,11.04,11c3.36-3.18,6.61-6.52,9.88-9.8c1.76-1.76,3.5-3.71,5.45-5.26l1.95,0
		c-1.31,1.61-2.86,3.04-4.33,4.51l-7.33,7.32c-1.9,1.88-3.82,3.74-5.67,5.67c-6.93-6.29-13.17-13.36-19.87-19.88
		c-3.55,0-7.11-0.06-10.65,0.01C154.74,136.08,165.38,146.03,175.41,156.55z"/>
</g>
</svg>
