<?xml version="1.0" encoding="utf-8"?>
<!-- Generator: Adobe Illustrator 27.8.1, SVG Export Plug-In . SVG Version: 6.00 Build 0)  -->
<svg version="1.1" xmlns="http://www.w3.org/2000/svg" xmlns:xlink="http://www.w3.org/1999/xlink" x="0px" y="0px"
	 viewBox="0 0 350 230" style="enable-background:new 0 0 350 230;" xml:space="preserve">
<style type="text/css">
	.st0{fill-rule:evenodd;clip-rule:evenodd;fill:#FFFDF7;}
	.st1{fill-rule:evenodd;clip-rule:evenodd;fill:#CCF8FF;}
	.st2{fill-rule:evenodd;clip-rule:evenodd;fill:#E5E7EB;}
	.st3{fill-rule:evenodd;clip-rule:evenodd;fill:#F0F1F5;}
	.st4{fill-rule:evenodd;clip-rule:evenodd;fill:#E6DCD5;}
	.st5{fill-rule:evenodd;clip-rule:evenodd;fill:#FEFCF7;}
	.st6{fill-rule:evenodd;clip-rule:evenodd;fill:#E5F5FB;}
	.st7{fill-rule:evenodd;clip-rule:evenodd;fill:#E9E9E9;}
	.st8{fill-rule:evenodd;clip-rule:evenodd;fill:#F1F8FF;}
	.st9{fill-rule:evenodd;clip-rule:evenodd;fill:#F2F2F2;}
	.st10{fill-rule:evenodd;clip-rule:evenodd;fill:#FFFFFF;}
	.st11{fill-rule:evenodd;clip-rule:evenodd;}
	.st12{fill-rule:evenodd;clip-rule:evenodd;fill:#EBFDFF;}
	.st13{fill:#783232;}
	.st14{fill:#00E9FF;}
	.st15{fill:#0C1E8C;}
	.st16{fill:#FFC100;}
	.st17{fill:#0C6C00;}
	.st18{fill:#23605B;}
	.st19{fill:#FF7E30;}
	.st20{fill:#00D7FD;}
	.st21{fill:#5C00A2;}
	.st22{fill:#20B700;}
	.st23{fill:none;}
	.st24{fill:#FFFFFF;}
	.st25{fill:#B000AB;}
	.st26{fill:#FA9720;}
	.st27{fill:#DA1300;}
	.st28{fill:#00F2FF;}
	.st29{fill:#00416A;}
	.st30{fill:#00FFE9;}
	.st31{fill:#017F2E;}
	.st32{fill:#0D302D;}
	.st33{fill:#00FFF2;}
	.st34{fill:#003CAC;}
	.st35{fill:#396D7A;}
	.st36{fill:#440044;}
	.st37{fill:#003D36;}
	.st38{fill:#00B6BF;}
	.st39{fill:#CBA400;}
	.st40{fill-rule:evenodd;clip-rule:evenodd;fill:url(#SVGID_1_);}
	.st41{fill-rule:evenodd;clip-rule:evenodd;fill:#404041;}
	.st42{fill:url(#SVGID_00000076564107343428186330000004414254900278041783_);}
	.st43{fill:url(#SVGID_00000178193713358803376850000002740736861684205214_);}
	.st44{fill:url(#SVGID_00000018929419683346616790000000906671713154816410_);}
	.st45{fill:url(#SVGID_00000113317992382530421730000001787258612439425676_);}
	.st46{fill:url(#SVGID_00000047025005955595104350000002998775646556380851_);}
	.st47{fill:url(#SVGID_00000148658216187552864160000005111338506399018654_);}
	.st48{fill:url(#SVGID_00000128444431034551152390000011259805934117720461_);}
	.st49{fill:url(#SVGID_00000098179426485410324770000003494373616095956358_);}
	.st50{fill:url(#SVGID_00000070112357900222416410000015683794609313728917_);}
	.st51{fill:url(#SVGID_00000076571248669268447540000000958791527014330293_);}
	.st52{fill:url(#SVGID_00000150094462189399545410000015033548619968958383_);}
	.st53{fill:url(#SVGID_00000013195144088566927370000018395276624599591579_);}
	.st54{fill:url(#SVGID_00000113347881052317986600000017671828508538727308_);}
	.st55{fill:url(#SVGID_00000061464960445155508060000002644197761855214230_);}
	.st56{fill:url(#SVGID_00000104698434875988887940000008160261072582118072_);}
	.st57{fill:url(#SVGID_00000058551810526760864410000013366831781084274623_);}
	.st58{fill:url(#SVGID_00000074441858324129360220000010179200131289689774_);}
	.st59{fill:#324405;}
	.st60{fill:#0C2948;}
	.st61{fill:#F0AF47;}
	.st62{fill:#FEFEFE;}
	.st63{fill:#F6D89A;}
	.st64{fill:url(#SVGID_00000052076680322786637560000013013561110746642840_);}
	.st65{fill:url(#SVGID_00000136378491711163744100000013955774353451159736_);}
	.st66{fill:url(#SVGID_00000010279860535460353200000011128828132682226575_);}
	.st67{fill:url(#SVGID_00000132768365917439936460000006559554181233627321_);}
	.st68{fill:url(#SVGID_00000165226895032292323220000001614114833774093979_);}
	.st69{fill:url(#SVGID_00000123400666408002291930000000088993362658202775_);}
	.st70{fill:#058CB6;}
	.st71{fill:#173B71;}
	.st72{fill:url(#SVGID_00000133518513008412539580000014565773695077473935_);}
	.st73{fill:url(#SVGID_00000116233318993850294350000006539578698950792320_);}
	.st74{fill:url(#SVGID_00000000180793814894017190000002446204029455896721_);}
	.st75{fill:url(#SVGID_00000044163042569711222030000014867294525468754565_);}
	.st76{fill:#031D41;}
	.st77{fill:#007AE8;}
	.st78{fill:#FBA122;}
	.st79{fill:#F9D190;}
	.st80{fill:url(#SVGID_00000036225685100700395710000008656207938948121489_);}
	.st81{fill:url(#SVGID_00000175324610586423042060000000668988348497748627_);}
</style>
<g id="Layer_1">
</g>
<g id="Layer_2">
</g>
<g id="Layer_3">
</g>
<g id="Layer_4">
</g>
<g id="Layer_5">
</g>
<g id="Layer_6">
</g>
<g id="Layer_7">
</g>
<g id="Layer_8">
</g>
<g id="Layer_9">
</g>
<g id="Layer_10">
</g>
<g id="Layer_11">
</g>
<g id="Layer_12">
</g>
<g id="Layer_13">
</g>
<g id="Layer_14">
</g>
<g id="_x31_-15">
	<g>
		<linearGradient id="SVGID_1_" gradientUnits="userSpaceOnUse" x1="66.9817" y1="193.2509" x2="202.629" y2="59.0621">
			<stop  offset="0" style="stop-color:#FFFFFF"/>
			<stop  offset="0" style="stop-color:#F9F9F9"/>
			<stop  offset="0.2279" style="stop-color:#F0F0F0"/>
			<stop  offset="0.414" style="stop-color:#FFFFFF"/>
			<stop  offset="0.586" style="stop-color:#FFFFFF"/>
			<stop  offset="0.7721" style="stop-color:#FFFFFF"/>
			<stop  offset="1" style="stop-color:#FFFFFF"/>
		</linearGradient>
		<path style="fill:url(#SVGID_1_);" d="M43.97,178.13h4.33v4.33h-4.33V178.13z M43.97,176.46h4.33v-4.33h-4.33V176.46z
			 M49.97,172.13v4.33h4.33v-4.33H49.97z M49.97,182.46h4.33v-4.33h-4.33V182.46z M115.6,182.66h2.7v-2.7h-2.7V182.66z
			 M115.6,178.92h2.7v-2.7h-2.7V178.92z M119.35,176.22v2.7h2.7v-2.7H119.35z M119.35,182.66h2.7v-2.7h-2.7V182.66z M120.69,156.8
			h3.62v-3.62h-3.62V156.8z M120.69,151.78h3.62v-3.62h-3.62V151.78z M125.72,148.16v3.62h3.62v-3.62H125.72z M125.72,156.8h3.62
			v-3.62h-3.62V156.8z"/>
		
			<linearGradient id="SVGID_00000112631315314158829670000012348811406369672632_" gradientUnits="userSpaceOnUse" x1="22.3671" y1="114.4834" x2="167.8162" y2="114.4834">
			<stop  offset="0" style="stop-color:#5C5C5C"/>
			<stop  offset="0.2279" style="stop-color:#8E8E8E"/>
			<stop  offset="0.414" style="stop-color:#747474"/>
			<stop  offset="0.586" style="stop-color:#D2D2D2"/>
			<stop  offset="0.7721" style="stop-color:#FFFFFF"/>
			<stop  offset="1" style="stop-color:#8F8F8F"/>
			<stop  offset="1" style="stop-color:#BCBCBC"/>
		</linearGradient>
		<path style="fill:url(#SVGID_00000112631315314158829670000012348811406369672632_);" d="M98.99,160.95l-2.8,4.28L78.6,138.18
			l-4.98,7.66l-5.52-0.1L78.6,129.6L98.99,160.95z M61.52,164.46l-2.79-4.3l-9.59-14.74l-26.77,41.17h5.62l21.15-32.53l21.15,32.53
			h5.62L61.52,164.46z M135.03,186.59l-16.21-24.77l-16.21,24.77h3.4l12.8-19.57l12.8,19.57H135.03z M144.16,83v35.29h-20.7
			l-0.76,1.16V96.23L144.16,83z M89.97,63.76v63.4l17.53,0.68l2.49,3.83v-55.2L89.97,63.76z M104.15,42.37v26.97l8.72,5.53v59.6
			l6.95-10.63V94.62l10.07-6.22V58.71L104.15,42.37z M125.01,121.17l-12.68,19.38l-13.34,20.39l-2.8,4.28l-3.71,5.67l4.48,6.89
			l28.06-42.89l33.82,51.69h8.99L125.01,121.17z"/>
		
			<linearGradient id="SVGID_00000023973364951496654650000004755848356684177589_" gradientUnits="userSpaceOnUse" x1="127.1792" y1="120.059" x2="127.1792" y2="191.7826">
			<stop  offset="0.1514" style="stop-color:#027EFE"/>
			<stop  offset="0.7784" style="stop-color:#02D8FC"/>
			<stop  offset="1" style="stop-color:#F2F2F2"/>
		</linearGradient>
		<path style="fill:url(#SVGID_00000023973364951496654650000004755848356684177589_);" d="M205.22,186.59h-7.7l-42.8-65.42h7.7
			L205.22,186.59z M102.65,186.55l-5.69-8.75l-4.48-6.89l-16.27-25.01l-2.59-0.05l-5.52-0.1l-18.96-0.33l26.77,41.17h10.72
			c-4.66-7.27-10.49-16.36-11.04-17.23c-0.04-0.05-0.08-0.08-0.17-0.08c-0.09,0-0.19,0.1-0.26,0.16c-0.11,0.09-0.2,0.16-0.3,0.22
			c-0.38,0.23-0.89,0.38-0.84,0.88c0.03,0.2,0.14,0.41,0.15,0.61c0,0.14-0.04,0.28-0.2,0.4c-0.27,0.21-0.56,0.36-0.84,0.55
			l-0.85,0.54c-0.14,0.09-0.28,0.18-0.43,0.17c-0.03,0-0.05,0-0.08,0c-0.04,0-0.08-0.02-0.12-0.03c-0.15-0.07-0.26-0.21-0.34-0.33
			l-1.19-1.82l-0.22-0.31c-0.04-0.06-0.08-0.12-0.12-0.18c-0.03-0.04-0.05-0.08-0.07-0.13c-0.05-0.1-0.08-0.21-0.08-0.32
			c0-0.05,0.02-0.11,0.03-0.16c0.07-0.22,0.21-0.41,0.41-0.54l0.62-0.41c0.33-0.21,0.68-0.5,1.08-0.64c0.32-0.12,0.5,0.01,0.74,0.14
			c0.31,0.19,0.58,0.02,0.85-0.2c0.18-0.14,0.36-0.23,0.53-0.34c0.12-0.07,0.3-0.14,0.37-0.26c0.03-0.1,0.02-0.19-0.03-0.28
			c-0.28-0.78,0.66-1.22,1.22-1.6c0.97-0.65,1.92-1.28,2.92-1.82c0.87-0.45,1.87-0.57,2.76-0.59c1.51-0.07,3.02,0.13,4.42,0.53
			l0.28,0.13c-0.25,0.03-0.55,0.12-0.71,0.14c-0.33,0.05-0.64,0.14-0.96,0.23c-0.64,0.15-1.26,0.37-1.87,0.64
			c-0.59,0.24-1.17,0.56-1.73,0.92c-0.47,0.32-0.97,0.58-1.34,1c-0.4,0.44-0.37,0.92-0.18,1.36l11.96,18.67h11.66L102.65,186.55z
			 M151.24,186.59h-16.21l-16.21-24.77h16.21L151.24,186.59z M112.33,140.56l-13.34,20.39L78.6,129.6l27.3,1.06L112.33,140.56z
			 M180.43,186.59h-7.7l-42.8-65.42h7.7L180.43,186.59z M192.83,186.59h-7.71l-42.8-65.42h7.7L192.83,186.59z"/>
	</g>
</g>
</svg>
