<?xml version="1.0" encoding="utf-8"?>
<!-- Generator: Adobe Illustrator 27.8.1, SVG Export Plug-In . SVG Version: 6.00 Build 0)  -->
<svg version="1.1" xmlns="http://www.w3.org/2000/svg" xmlns:xlink="http://www.w3.org/1999/xlink" x="0px" y="0px"
	 viewBox="0 0 350 230" style="enable-background:new 0 0 350 230;" xml:space="preserve">
<style type="text/css">
	.st0{fill-rule:evenodd;clip-rule:evenodd;fill:#FFFDF7;}
	.st1{fill-rule:evenodd;clip-rule:evenodd;fill:#CCF8FF;}
	.st2{fill-rule:evenodd;clip-rule:evenodd;fill:#E5E7EB;}
	.st3{fill-rule:evenodd;clip-rule:evenodd;fill:#F0F1F5;}
	.st4{fill-rule:evenodd;clip-rule:evenodd;fill:#E6DCD5;}
	.st5{fill-rule:evenodd;clip-rule:evenodd;fill:#FEFCF7;}
	.st6{fill-rule:evenodd;clip-rule:evenodd;fill:#E5F5FB;}
	.st7{fill-rule:evenodd;clip-rule:evenodd;fill:#E9E9E9;}
	.st8{fill-rule:evenodd;clip-rule:evenodd;fill:#F1F8FF;}
	.st9{fill-rule:evenodd;clip-rule:evenodd;fill:#F2F2F2;}
	.st10{fill-rule:evenodd;clip-rule:evenodd;fill:#FFFFFF;}
	.st11{fill-rule:evenodd;clip-rule:evenodd;}
	.st12{fill-rule:evenodd;clip-rule:evenodd;fill:#EBFDFF;}
	.st13{fill:#783232;}
	.st14{fill:#00E9FF;}
	.st15{fill:#0C1E8C;}
	.st16{fill:#FFC100;}
	.st17{fill:#0C6C00;}
	.st18{fill:#23605B;}
	.st19{fill:#FF7E30;}
	.st20{fill:#00D7FD;}
	.st21{fill:#5C00A2;}
	.st22{fill:#20B700;}
	.st23{fill:none;}
	.st24{fill:#FFFFFF;}
	.st25{fill:#B000AB;}
	.st26{fill:#FA9720;}
	.st27{fill:#DA1300;}
	.st28{fill:#00F2FF;}
	.st29{fill:#00416A;}
	.st30{fill:#00FFE9;}
	.st31{fill:#017F2E;}
	.st32{fill:#0D302D;}
	.st33{fill:#00FFF2;}
	.st34{fill:#003CAC;}
	.st35{fill:#396D7A;}
	.st36{fill:#440044;}
	.st37{fill:#003D36;}
	.st38{fill:#00B6BF;}
	.st39{fill:#CBA400;}
	.st40{fill-rule:evenodd;clip-rule:evenodd;fill:url(#SVGID_1_);}
	.st41{fill-rule:evenodd;clip-rule:evenodd;fill:#404041;}
	.st42{fill:url(#SVGID_00000119822780495833773000000017801983227852791992_);}
	.st43{fill:url(#SVGID_00000016075371618410773700000010142499274773886866_);}
	.st44{fill:url(#SVGID_00000175299789293301525420000000082814214204761472_);}
	.st45{fill:url(#SVGID_00000085929721282342416710000011766462937112789129_);}
	.st46{fill:url(#SVGID_00000156578972328637737970000008415167178963145868_);}
	.st47{fill:url(#SVGID_00000148641379187534865090000009569409387521263279_);}
	.st48{fill:url(#SVGID_00000118369230672791150670000012073764592259784879_);}
	.st49{fill:url(#SVGID_00000044154008540373524100000007834182638670287267_);}
	.st50{fill:url(#SVGID_00000056406386777868094540000009029534415156786082_);}
	.st51{fill:url(#SVGID_00000034788546989691211210000007525594276313320835_);}
	.st52{fill:url(#SVGID_00000049934644070652916320000017609117210304444571_);}
	.st53{fill:url(#SVGID_00000113340834486959853840000014930070025121631393_);}
	.st54{fill:url(#SVGID_00000046305496098274941840000001130551468956845965_);}
	.st55{fill:url(#SVGID_00000139982943463549718950000001839909225208418440_);}
	.st56{fill:url(#SVGID_00000147206471358362957740000010558439344444414100_);}
	.st57{fill:url(#SVGID_00000137835980870306780160000015339353781868465050_);}
	.st58{fill:url(#SVGID_00000108302068377823470300000015884077339954772883_);}
	.st59{fill:#324405;}
	.st60{fill:#0C2948;}
	.st61{fill:#F0AF47;}
	.st62{fill:#FEFEFE;}
	.st63{fill:#F6D89A;}
	.st64{fill:url(#SVGID_00000036943260513600502530000013477528476135440001_);}
	.st65{fill:url(#SVGID_00000028285842724184674670000001797671577269679004_);}
	.st66{fill:url(#SVGID_00000147918170690139900400000007565634689045574295_);}
	.st67{fill:url(#SVGID_00000105406020078809858750000013606562849219566757_);}
	.st68{fill:url(#SVGID_00000010306691944894441700000010543537273033168814_);}
	.st69{fill:url(#SVGID_00000080177419054071536540000005448590681565910422_);}
	.st70{fill:#058CB6;}
	.st71{fill:#173B71;}
	.st72{fill:url(#SVGID_00000123428173526200487870000008231265485619537340_);}
	.st73{fill:url(#SVGID_00000031185437745339697460000003628400301129071509_);}
	.st74{fill:url(#SVGID_00000051347926169848916490000004539288039385489061_);}
	.st75{fill:url(#SVGID_00000142136824684896829430000010549652759556508823_);}
	.st76{fill:#031D41;}
	.st77{fill:#007AE8;}
	.st78{fill:#FBA122;}
	.st79{fill:#F9D190;}
	.st80{fill:url(#SVGID_00000062163495758183413660000006741522390887621025_);}
	.st81{fill:url(#SVGID_00000061469557585325786780000018388866969325075095_);}
</style>
<g id="Layer_1">
</g>
<g id="Layer_2">
</g>
<g id="Layer_3">
</g>
<g id="Layer_4">
</g>
<g id="Layer_5">
</g>
<g id="Layer_6">
</g>
<g id="Layer_7">
</g>
<g id="Layer_8">
</g>
<g id="Layer_9">
</g>
<g id="Layer_10">
</g>
<g id="Layer_11">
</g>
<g id="Layer_12">
</g>
<g id="Layer_13">
</g>
<g id="Layer_14">
</g>
<g id="_x31_-15">
	<radialGradient id="SVGID_1_" cx="101.879" cy="115.8663" r="79.2114" gradientUnits="userSpaceOnUse">
		<stop  offset="0" style="stop-color:#31FFFF"/>
		<stop  offset="0.0219" style="stop-color:#31EEF4"/>
		<stop  offset="0.0935" style="stop-color:#32BDD3"/>
		<stop  offset="0.1706" style="stop-color:#3290B5"/>
		<stop  offset="0.2515" style="stop-color:#32699B"/>
		<stop  offset="0.3371" style="stop-color:#324885"/>
		<stop  offset="0.4288" style="stop-color:#332E74"/>
		<stop  offset="0.5289" style="stop-color:#331966"/>
		<stop  offset="0.6417" style="stop-color:#330B5C"/>
		<stop  offset="0.7776" style="stop-color:#330357"/>
		<stop  offset="1" style="stop-color:#330055"/>
	</radialGradient>
	<path style="fill:url(#SVGID_1_);" d="M98.35,37.39c4.17-1.92,8.87-2.82,13.45-2.3c2.88,0.36,5.67,1.69,7.6,3.89
		c2.73,3.09,5.17,6.45,7.97,9.47c2.52,0.17,5.07,0.12,7.59,0.36c1.48,0.13,3.03,0.37,4.3,1.2c1.67,1.12,2.6,3.31,2.06,5.28
		c-0.29,1.08-1.09,1.97-2.07,2.48c-2.56,1.37-5.54,1.74-8.4,1.51c-1.27-0.08-2.52-0.31-3.79-0.43c-0.36,0.63-0.85,1.23-0.95,1.97
		c-0.04,1.43,0.42,2.84,1.22,4.02c0.56,0.86,1.26,1.86,0.9,2.94c-0.41,1.11-1.56,1.63-2.58,2.01c0.51,1,1.13,2.39,0.09,3.28
		c0.26,0.53,0.66,1.06,0.51,1.69c-0.06,0.6-0.58,0.98-0.99,1.35c0.46,1.67,1.34,3.52,0.46,5.21c-0.63,1.54-2.22,2.34-3.75,2.71
		c-2.42,0.6-4.88,1.04-7.35,1.31c0.1,0.77,0.13,1.55,0.29,2.31c2.62,1.47,5.35,2.77,8.03,4.14c0.81,0.38,1.59,0.97,2.53,0.83
		c2.61,0.73,5.17,1.6,7.78,2.33c-0.02,0.18-0.06,0.54-0.08,0.72c4.15,1.61,8.23,3.43,12.08,5.67c1.34,0.79,2.68,1.6,3.89,2.58
		c-2.24-6.89-4.36-13.82-6.56-20.72c-0.44-0.81,0.5-1.86-0.46-2.45c-0.92-0.02-1.74,0.47-2.61,0.7c-1.51,0.43-3.12,1.28-4.68,0.57
		c-1.61-0.73-2.14-2.66-2.13-4.29c1.23-0.46,2.47-0.89,3.72-1.28c-0.83-0.54-2.03-1.03-2.1-2.17c0-0.8,0.81-1.13,1.45-1.34
		c2.81-0.96,5.62-1.93,8.44-2.87c1.52-0.51,3.03-1.1,4.64-1.27c0.45-0.1,0.88,0.15,1.11,0.52c0.58,0.89,0.99,1.88,1.52,2.8
		c1.57,2.93,3.28,5.95,3.42,9.35c0.07,2.77-0.13,5.55-0.59,8.28c-0.82-0.49-1.65-1.12-1.93-2.08c-0.52-1.78-0.52-3.68-1.18-5.42
		c-0.29-0.77-0.98-1.28-1.63-1.73c-0.86-0.58-1.71-1.18-2.59-1.73c-0.64,0.3-1.29,0.56-1.95,0.82c0.01,0.47,0.03,0.95,0.06,1.42
		c0.7,0.13,1.03,0.68,1.17,1.33c2.64,8.54,5.34,17.06,8,25.59c0.17,0.58,0.4,1.14,0.75,1.64c0.89,1.31,1.56,2.75,2.27,4.17
		c1.43,2.93,2.79,5.9,4.06,8.9c0.23,0.47,0.39,1.03,0.82,1.37c1.75,1.44,3.42,2.96,5.07,4.51c0.9,0.82,1.8,2.01,1.25,3.28
		c2.68,3.36,4.44,7.34,5.94,11.34c2.09,5.8,3.73,11.79,4.65,17.89c0.36,2.16,0.34,4.35,0.26,6.52c-4.87,3.57-10.53,5.87-16.23,7.74
		c-5.74,1.84-11.65,3.07-17.6,3.98c-0.25,0.02-0.47,0.11-0.66,0.26c-4.16,3.47-8.67,6.66-13.77,8.56c-1.51,0.62-3.28,0.54-4.59-0.48
		c-3.71,2.05-7.71,3.58-11.83,4.62c-0.73,0.18-1.46,0.44-2.21,0.36c-8.35-0.52-16.72-0.94-25.05-1.65
		c4.81-0.69,9.64-1.24,14.47-1.74c5.11-0.48,10.25-0.86,15.39-0.7c-1.85-0.24-3.68-0.64-5.54-0.88c-8.97-1.2-18.06-1.02-27.08-0.65
		c4.45-1.3,9.06-1.92,13.66-2.39c3.05-0.3,6.11-0.28,9.16-0.25c-4.62-0.75-9.28-1.31-13.97-1.28c-5.05-0.11-10.09,0.29-15.14,0.45
		c5.68-1.57,11.52-2.5,17.37-3.14c4.42-0.54,8.87-0.85,13.31-1.07c-3.41-0.29-6.82-0.66-10.24-0.64
		c-11.61-0.05-23.18,1.11-34.77,1.76c-5.45,0.32-11.02,0.17-16.3-1.32c5.56,0.02,11.15,0,16.66-0.87c6.5-0.95,12.89-2.53,19.29-3.98
		c8.83-1.95,17.7-3.85,26.72-4.67c-9.75-0.87-19.51,0.36-29.14,1.81c-6.57,1.03-13.12,2.17-19.66,3.36
		c-1.65,0.27-3.27,0.72-4.94,0.91c9.87-3.33,19.77-6.63,29.87-9.22c5.43-1.36,10.97-2.38,16.58-2.43c-1.67-0.68-3.48-1.09-5.29-1.03
		c-5.44,0.08-10.85,0.88-16.22,1.7c-6.67,1.04-13.31,2.23-20,3.15c-4.6,0.68-9.25,1-13.91,0.91c-3.62,0.11-7.29-0.12-10.8-1.12
		c-4.41-1.26-8.68-3.14-12.44-5.77c0.14-0.05,0.43-0.13,0.57-0.18c-0.73-5.92,0.16-11.94,1.81-17.64c2.07-6.9,4.96-13.6,8.98-19.59
		c0.2-0.38,0.28-0.8,0.46-1.18c0.77-1.21,2.34-1.75,2.88-3.13c2.17-5.04,4.58-9.98,7.32-14.74c1.76-2.92,3.56-5.99,6.44-7.94
		c2.02-1.43,4.45-2.06,6.81-2.67c2.96-0.74,5.92-1.5,8.91-2.15c0.01-0.17,0.03-0.52,0.04-0.69c2.48-0.66,5-1.16,7.49-1.76
		c0.32-0.13,0.62,0.05,0.92,0.15c3-1.31,5.89-2.84,8.84-4.26c0.72-0.29,1.02-1.06,1.42-1.66c1.27-2.18,2.7-4.28,3.87-6.53
		c0.55-1.05,0.31-2.28-0.15-3.31c-1.08-2.46-2.8-4.56-4.22-6.82c-1.3-2.06-1.8-4.49-2.14-6.88c-0.45-4.18,0.26-8.49,2.11-12.26
		C89.16,43.67,93.3,39.57,98.35,37.39z M95.57,40.38c0.86,0.3,1.65,0.78,2.22,1.5c3.12,3.62,4.36,8.36,6.82,12.38
		c0.43,0.37,1.04,0.43,1.56,0.63c2.28,0.76,4.62,1.32,6.97,1.82c1.98,0.36,4.03,0.86,6.03,0.32c3.5-1.03,6.59-3.06,9.97-4.41
		c2.12-0.92,4.47-1.24,6.77-1.11c1.15,0.05,2.42,0.38,3.07,1.42c0.71,0.91,0.72,2.1,0.53,3.19c0.43-0.84,0.74-1.8,0.48-2.74
		c-0.32-1.49-1.57-2.64-3.03-2.98c-2.39-0.57-5-0.7-7.31,0.26c-2.33,0.96-4.49,2.27-6.68,3.5c-1.7,0.95-3.54,1.78-5.52,1.91
		c-3.69,0.26-7.29-0.8-10.77-1.88c2.85-0.67,5.67-1.62,8.19-3.14c2.69-1.6,5.63-2.76,8.7-3.34c-2.23-0.37-4.46,0.22-6.55,0.97
		c-2.07,0.74-3.89,2.01-5.84,3c-1.7,0.84-3.49,1.54-5.38,1.79c-1.9-4.31-3.92-8.7-7.19-12.15C97.84,40.51,96.66,39.57,95.57,40.38z
		 M103.84,55.56c-0.77,0.92-1.6,2.07-1.33,3.34c0.26,1.38,1.39,2.39,2.58,3.01c2.41,1.3,5.13,1.9,7.53,3.25
		c0.34,0.22,0.8,0.47,0.79,0.95c-0.64,0.63-1.58,0.75-2.43,0.82c-2.48,0.21-5.01,0.06-7.42-0.59c-1.37-0.43-2.84-1.26-3.27-2.73
		c-0.27-0.77,0.11-1.75-0.55-2.36c-1.24-1.28-3.11-2.15-4.91-1.7c-1.88,0.37-3.17,2.61-2.37,4.39c0.95,2.26,3.07,3.69,4.9,5.2
		c0.99,0.82,1.07,2.24,0.9,3.43c-0.27,1.69-0.98,3.26-1.74,4.78c-2.2,4.11-5.26,7.67-8.43,11.06c2.61,6.39,7.8,11.48,13.72,14.87
		c4.67-2.75,8.73-6.73,11.21-11.58c-3.53-4.2-6.58-8.77-9.43-13.46c-0.32-0.56-0.76-1.11-0.78-1.79c0.39-0.08,0.76,0.1,1.11,0.25
		c2.91,1.3,5.88,2.46,8.87,3.56c1.59,0.58,3.17,1.2,4.82,1.59c1.74,0.42,3.57,0.08,5.21-0.56c0.82-0.32,1.63-1.05,1.59-2
		c0-1.01-0.28-2.04-0.79-2.91c-0.88-0.82-2.64-0.23-3.23-1.43c1.33-0.6,2.89-0.18,4.3-0.49c-0.03-0.33-0.05-0.66-0.08-0.99
		c-1.69-0.12-3.37,0.22-5.05,0.11c-0.79-0.05-1.56-0.67-1.55-1.51c-0.03-0.66,0.53-1.07,1.01-1.41c0.07,0.63-0.22,1.89,0.77,1.87
		c1.47-0.08,2.87-0.63,4.27-1.02c0.72-0.13,0.37-1.04,0.16-1.47c-0.75-0.71-2-0.38-2.77-1.09c-0.7-0.62-0.65-1.79-0.05-2.45
		c0.31-0.41,0.86-0.47,1.31-0.66c-0.49,0.58-0.92,1.21-0.81,2.01c0.63,0.29,1.24,0.08,1.66-0.45c0.33,0.13,0.65,0.29,1,0.37
		c0.69-0.41,1.37-1.4,0.69-2.12c-1.06-1.38-1.73-3.03-2.04-4.73c-2.29-0.06-4.55-0.49-6.76-1.06
		C112.15,58.82,107.99,57.18,103.84,55.56z M135.45,74.2c0.57,0.6,1.22,1.12,1.93,1.54c0.06-0.16,0.18-0.48,0.23-0.64
		c3.25-1.14,6.53-2.19,9.76-3.35c-0.15-0.47-0.29-0.94-0.43-1.42C143.09,71.54,139.28,72.9,135.45,74.2z M70.41,92.65
		c2.02,7.05,4.26,14.03,6.27,21.08c1.94,0,3.88-0.02,5.82,0.02c-2.28-7.41-4.43-14.87-6.8-22.26
		C73.95,91.95,72.18,92.28,70.41,92.65z M125.94,93.99c-2.01,6.58-4.13,13.14-6.14,19.72c1.99,0,3.98,0.01,5.97-0.02
		c1.82-6.05,3.73-12.07,5.55-18.11C129.52,95.07,127.75,94.44,125.94,93.99z M113.49,114.9c-10.6-0.01-21.21,0.02-31.81,0.01
		c-0.06,3.32-0.11,6.63-0.21,9.94c-0.22,0.99-0.65,1.93-0.92,2.92c-2.35,7.19-4.64,14.39-7.02,21.57c2.24-1.53,4.45-3.19,7.03-4.09
		c1.1-0.41,2.29-0.24,3.42-0.01c0.42-8.64,0.61-17.29,0.93-25.93c0.38-0.01,0.77-0.02,1.16-0.03c0.43,6.12,0.91,12.24,1.26,18.36
		c-0.99,0.66-2.19,1.44-2.25,2.75c-0.07,1.78-0.1,3.91,1.28,5.24c1.14,0.59,2.42-0.11,3.57-0.33c0-0.69-0.02-1.38-0.04-2.07
		c-0.62,0.38-1.23,0.86-1.97,0.99c-0.56,0.11-0.77-0.54-0.88-0.95c-0.16-0.93-0.19-1.9-0.05-2.83c0.35-0.59,0.97-0.94,1.46-1.4
		c8.68-7.54,17.35-15.1,26.02-22.67c0.46-0.39,0.87-0.87,1.41-1.14c1.84,1.46,3.53,3.1,5.3,4.64c7.12,6.38,14.2,12.81,21.28,19.24
		c0.53,0.53,1.28,0.81,1.76,1.38c0.18,0.85,0.13,1.73,0.05,2.59c-0.08,0.83-0.69,1.57-1.46,1.87c-0.58,0-1.05-0.4-1.51-0.69
		c0.12,3.12,0.21,6.24,0.35,9.36c1.06,0,2.13,0,3.2,0c0.02-0.5,0.03-0.99,0.06-1.48c0.46,0.02,0.93,0.05,1.4,0.08
		c0.02,0.47,0.04,0.93,0.06,1.4c1.68,0,3.35,0,5.03-0.01c-1.78-3.15-4.28-5.86-6.91-8.31c1.3-1.49,1.49-3.64,1.04-5.5
		c-0.22-0.9-1.05-1.4-1.71-1.94c-0.04-0.69-0.13-1.36-0.23-2.04c-0.51-4.6-0.07-9.32,1.37-13.71c-2.83,4.01-3.62,9.11-3.37,13.92
		c-5.14-4.56-10.17-9.23-15.33-13.77c-0.09-2.41-0.12-4.82-0.2-7.23c-2.62-0.01-5.24-0.06-7.86-0.05c-0.55-0.72-1.27-1.48-2.25-1.46
		C114.97,113.49,114.19,114.26,113.49,114.9z M75.28,114.89c0.56,11.73-1.71,23.4-4.79,34.67c0.35,0.09,0.69,0.17,1.04,0.26
		c1.01-3.18,1.66-6.46,2.43-9.71c1.16-5.59,2.07-11.25,2.42-16.95c0.14-2.74,0.06-5.48,0.06-8.22
		C76.06,114.92,75.67,114.9,75.28,114.89z M64.28,116.9c0.52,2.13,0.84,4.31,0.9,6.51c0.09,3.05,0.02,6.15-0.74,9.12
		c1.28-1.65,1.77-3.74,1.89-5.79C66.5,123.36,65.89,119.89,64.28,116.9z M115.87,120.95c-7.99,7.01-15.94,14.08-24.04,20.98
		c-0.29,0.2-0.36,0.53-0.34,0.87c-0.03,2.22,0,4.43,0.03,6.65c1.32,0.49,2.87,1.04,3.44,2.45c0.57,1.42-0.07,3.04-1.29,3.89
		c0.47,0.81,1.11,1.66,0.94,2.65c-0.15,1.22-1.19,2-2.06,2.74c2.07,0.21,4.16,0.32,6.23,0.56c0-6.59,0-13.18-0.01-19.76
		c5.15,0,10.29-0.02,15.44-0.03c-0.01,6.99-0.02,13.99,0,20.98c8.29,0.19,16.59,0.5,24.88,0.74c0.02-7.2,0.09-14.41,0.13-21.61
		c-0.64-0.62-1.28-1.23-1.93-1.82C130.14,133.81,123.02,127.37,115.87,120.95z M39.15,126.38c-1.24,1.45-2.17,3.13-3.1,4.79
		c-2.73,5.2-4.95,10.7-6.36,16.41c-1.1,4.43-1.69,9.18-0.33,13.63c3.08-0.23,6.17-0.15,9.26-0.1c-1.88-0.47-3.85-0.79-5.53-1.81
		c-1.07-0.64-1.95-1.77-1.95-3.06c-0.03-1.12,0.76-2.02,1.46-2.81c1.49,1.82,3.76,2.68,5.95,3.31c2.74,0.81,5.58,1.11,8.41,1.4
		c9.09,0.9,18.21,1.31,27.32,1.85c5.72,0.31,11.44,0.77,17.17,1.1c0.01-1.33,1.72-1.67,1.85-2.95c0.08-0.62-0.43-1.06-0.72-1.54
		c-0.36-0.47-0.34-1.19,0.09-1.61c0.57-0.65,1.53-1.33,1.19-2.32c-0.48-1.18-1.91-1.38-2.97-1.78c-2.35-0.86-4.76-1.61-7.04-2.66
		c0.06-0.11,0.19-0.32,0.25-0.43c1.94-0.08,3.79,0.64,5.72,0.8c0.07-0.46,0.13-0.92,0.18-1.38c-1.58,0.02-3.17,0.3-4.73-0.09
		c-1.24-0.33-2.56-0.78-3.83-0.35c-3.31,1.07-6.15,3.18-8.86,5.29c-6.12-1.19-12.25-2.37-18.45-3.07c-4.52-0.54-9.1-0.76-13.64-0.34
		c2.39-1.74,5.37-2.4,8.27-2.66c0.62-0.01,0.95-0.59,1.36-0.97c3.17-3.28,6.1-6.85,8.28-10.89c-5.06-4-10.62-7.36-16.48-10.06
		C40.92,124.76,39.93,125.46,39.15,126.38z M150.21,142.42c1.07,1.97,2.31,3.86,3.81,5.53c0.7,0.75,1.49,1.49,2.5,1.78
		c2.72,0.83,5.58,1,8.39,1.25c2.17,0.23,4.55,0.34,6.34,1.75c-4.02,0.36-7.88,1.67-11.52,3.36c-6.3,2.97-12.09,6.91-17.6,11.15
		c-6.01-1.07-12.27-1.12-18.2,0.45c-0.39,0.15-1.2,0.34-0.89,0.92c0.49,0.87,1.65,1.12,2.57,0.94c2.26-0.41,4.6-1.32,6.91-0.67
		c-0.57,1.08-1.56,1.85-2.57,2.5c-1.34,0.84-2.81,1.51-4.36,1.85c-0.7,0.18-1.53,0.27-1.99,0.91c-0.69,0.71-0.64,2,0.18,2.6
		c0.89,0.72,2.11,0.52,3.13,0.91c-0.75,0.31-1.76,0.43-2.1,1.28c-0.41,0.75,0.12,1.64,0.81,1.99c1.18,0.62,2.57,0.36,3.8,0.78
		c-0.74,0.37-1.81,0.28-2.32,1.03c-0.07,0.63,0.46,1.15,0.91,1.53c1,0.75,2.32,0.23,3.35-0.2c4.82-2.13,9.03-5.41,12.95-8.89
		c0.35-0.27,0.79-0.34,1.2-0.47c5.01-1.43,9.98-3.04,14.78-5.1c5.58-2.4,11.06-5.3,15.52-9.49c-0.28-2.57-0.93-5.08-1.63-7.55
		c-1.05-3.61-2.29-7.16-3.8-10.6c-1.4-3.23-3.09-6.5-5.84-8.79C159.47,135.79,154.72,138.97,150.21,142.42z M53.28,146.31
		c1.74,0.08,3.45,0.35,5.17,0.62c-0.45-1.6-0.87-3.2-1.24-4.82C56.04,143.63,54.78,145.1,53.28,146.31z M94.62,62.18
		c0.36-0.15,0.61-0.44,0.86-0.72c0.58,0.18,1.05,0.57,1.51,0.94c-1.12,0.27-1.52,1.41-1.88,2.37c1.11,0.61,2,1.52,3.05,2.22
		c-0.09-1.27-1.17-2.05-2.06-2.8c0.34-0.63,1-0.78,1.67-0.8c0.62-0.02,0.79-0.82,0.32-1.17c-0.77-0.79-1.66-1.97-2.92-1.65
		C94.62,60.9,94.68,61.63,94.62,62.18z M89.21,135.7c1.78-1.5,3.52-3.05,5.31-4.55c2.4-2.03,4.71-4.17,7.18-6.11
		c0.02-2.41,0-4.83,0.03-7.24c-4.18,0.04-8.37,0.02-12.55,0.02C89.16,123.78,89.21,129.74,89.21,135.7z M113.02,127.13
		c1.49-0.82,3.38-0.94,4.92-0.18c1.86,0.85,3.19,2.77,3.24,4.83c0.06,2.1-0.09,4.2-0.02,6.3c-3.66,0.04-7.31,0-10.97-0.01
		c0.08-2.17-0.13-4.35,0.03-6.52C110.36,129.73,111.44,128.02,113.02,127.13z M112.28,128.87c1.01,0.92,2.03,1.81,2.97,2.8
		c0-1.44-0.02-2.88-0.08-4.32C114.11,127.63,113.1,128.12,112.28,128.87z M116.05,131.75c0.9-0.96,1.73-1.98,2.79-2.77
		c0.21-0.28-0.19-0.45-0.34-0.63c-0.65-0.58-1.53-0.76-2.36-0.95C116.09,128.84,116.04,130.3,116.05,131.75z M111.67,129.59
		c-0.43,1-0.66,2.07-0.63,3.16c1.31,0.01,2.63,0.04,3.93-0.04C114.04,131.52,112.84,130.56,111.67,129.59z M116.24,132.76
		c1.34,0.01,2.68,0,4.02-0.01c-0.05-1.08-0.14-2.19-0.65-3.17C118.44,130.58,117.35,131.68,116.24,132.76z M116.13,133.7
		c0,0.59-0.01,1.17-0.03,1.76c1.36,0.06,2.73,0.07,4.09,0.04c0.01-0.59,0-1.18,0-1.77C118.83,133.66,117.48,133.68,116.13,133.7z
		 M111.11,133.74c0,0.57,0,1.15,0,1.72c1.36,0.04,2.73,0.06,4.09,0.04c-0.01-0.59-0.02-1.18-0.01-1.77
		C113.82,133.7,112.46,133.74,111.11,133.74z M120.11,142.15c4.03,0.01,8.07,0.01,12.11,0c0.06,6.01-0.01,12.02,0.01,18.03
		c-4.04,0-8.07,0.03-12.11,0.01C120.1,154.17,120.12,148.16,120.11,142.15z M121.5,144.22c0,0.7,0,1.4,0,2.11
		c1.41,0.03,2.82,0.06,4.23,0.01c0.01-0.7,0.01-1.4,0-2.1C124.32,144.21,122.9,144.2,121.5,144.22z M126.71,144.23
		c0,0.7,0.01,1.4,0.02,2.1c1.36-0.01,2.73,0.04,4.1-0.01c-0.01-0.69-0.02-1.39-0.03-2.08C129.44,144.21,128.08,144.21,126.71,144.23
		z M121.5,147.34c-0.01,0.8-0.02,1.6-0.02,2.4c1.41,0.07,2.83,0.05,4.24,0.03c-0.03-0.81-0.04-1.61-0.06-2.42
		C124.28,147.32,122.89,147.34,121.5,147.34z M126.71,147.35c-0.02,0.81-0.03,1.62-0.02,2.43c1.38,0.01,2.75,0.04,4.13,0
		c0.01-0.82-0.01-1.63-0.02-2.45C129.44,147.31,128.08,147.32,126.71,147.35z M121.5,151.74c-0.01,0.66-0.02,1.33-0.02,1.99
		c1.41,0.04,2.82,0.08,4.23,0.02c-0.01-0.66-0.02-1.33-0.04-1.99C124.29,151.74,122.89,151.73,121.5,151.74z M126.67,151.75
		c-0.01,0.67,0,1.33,0.01,2c1.38,0,2.77,0.07,4.15-0.01c-0.01-0.67-0.02-1.34-0.03-2C129.42,151.72,128.04,151.71,126.67,151.75z
		 M121.5,154.73c-0.01,0.85-0.03,1.69-0.04,2.54c1.42,0.05,2.84,0.03,4.26,0c-0.04-0.84-0.06-1.69-0.09-2.52
		C124.26,154.72,122.88,154.73,121.5,154.73z M126.68,154.73c0,0.85-0.01,1.71-0.01,2.56c1.39,0.02,2.78,0.05,4.17,0.01
		c-0.01-0.86-0.02-1.72-0.01-2.57C129.44,154.72,128.06,154.73,126.68,154.73z M80.42,196.65c6.18,0.17,12.37,0.11,18.55,0.13
		c1.94,0.08,3.67-0.94,5.38-1.7c-1.08-0.03-2.15-0.14-3.22-0.19c-1.85-0.09-3.69,0.15-5.53,0.2
		C90.52,195.42,85.45,195.85,80.42,196.65z"/>
</g>
</svg>
