<?xml version="1.0" encoding="utf-8"?>
<!-- Generator: Adobe Illustrator 27.8.1, SVG Export Plug-In . SVG Version: 6.00 Build 0)  -->
<svg version="1.1" xmlns="http://www.w3.org/2000/svg" xmlns:xlink="http://www.w3.org/1999/xlink" x="0px" y="0px"
	 viewBox="0 0 350 230" style="enable-background:new 0 0 350 230;" xml:space="preserve">
<style type="text/css">
	.st0{fill:#E3FFFE;}
	.st1{fill:#FFFDE6;}
	.st2{fill:#FFFCE9;}
	.st3{fill:#EBFFEB;}
	.st4{fill:#163458;}
	.st5{fill:#00B6BF;}
	.st6{fill:#182132;}
	.st7{fill:#783232;}
	.st8{fill:#00E9FF;}
	.st9{fill:#0C1E8C;}
	.st10{fill:#FFC100;}
	.st11{fill:#0C6C00;}
	.st12{fill:#23605B;}
	.st13{fill:#FF7E30;}
	.st14{fill:#00D7FD;}
	.st15{fill:#5C00A2;}
	.st16{fill-rule:evenodd;clip-rule:evenodd;}
	.st17{fill:#20B700;}
	.st18{fill:none;}
	.st19{fill:#FFFFFF;}
	.st20{fill:#B000AB;}
	.st21{fill:#FA9720;}
	.st22{fill:#DA1300;}
	.st23{fill:#00F2FF;}
	.st24{fill:#00416A;}
	.st25{fill:#00FFE9;}
	.st26{fill:#017F2E;}
	.st27{fill:#0D302D;}
	.st28{fill:#00FFF2;}
	.st29{fill:#003CAC;}
	.st30{fill:#396D7A;}
	.st31{fill:#440044;}
	.st32{fill:#003D36;}
	.st33{fill:#CBA400;}
	.st34{fill-rule:evenodd;clip-rule:evenodd;fill:#FFFDF7;}
	.st35{fill-rule:evenodd;clip-rule:evenodd;fill:#CCF8FF;}
	.st36{fill-rule:evenodd;clip-rule:evenodd;fill:#E5E7EB;}
	.st37{fill-rule:evenodd;clip-rule:evenodd;fill:#F0F1F5;}
	.st38{fill-rule:evenodd;clip-rule:evenodd;fill:#E6DCD5;}
	.st39{fill-rule:evenodd;clip-rule:evenodd;fill:#FEFCF7;}
	.st40{fill-rule:evenodd;clip-rule:evenodd;fill:#E5F5FB;}
	.st41{fill-rule:evenodd;clip-rule:evenodd;fill:#E9E9E9;}
	.st42{fill-rule:evenodd;clip-rule:evenodd;fill:#F1F8FF;}
	.st43{fill-rule:evenodd;clip-rule:evenodd;fill:#F2F2F2;}
	.st44{fill-rule:evenodd;clip-rule:evenodd;fill:#FFFFFF;}
	.st45{fill-rule:evenodd;clip-rule:evenodd;fill:#EBFDFF;}
	.st46{fill-rule:evenodd;clip-rule:evenodd;fill:url(#SVGID_1_);}
	.st47{fill-rule:evenodd;clip-rule:evenodd;fill:#404041;}
	.st48{fill:url(#SVGID_00000070114871159429771070000012517738526389536143_);}
	.st49{fill:url(#SVGID_00000059300283005526952500000000284043239776947898_);}
	.st50{fill:url(#SVGID_00000008126651031045774340000000665944900055610023_);}
	.st51{fill:url(#SVGID_00000181088649716152802240000004477918072725809555_);}
	.st52{fill:url(#SVGID_00000000180364036167874040000006792959761428777382_);}
	.st53{fill:url(#SVGID_00000104673533554369631360000015060030536592555909_);}
	.st54{fill:url(#SVGID_00000155118138224859745630000014748856849122988468_);}
	.st55{fill:url(#SVGID_00000176756562732084576110000010698000947546121663_);}
	.st56{fill:url(#SVGID_00000017500465732420996150000012816222564569787778_);}
	.st57{fill:url(#SVGID_00000033360674272440592390000005681989206383265699_);}
	.st58{fill:url(#SVGID_00000093178039426350113620000016589409392211416193_);}
	.st59{fill:url(#SVGID_00000052084200204566575870000013881121583116090031_);}
	.st60{fill:url(#SVGID_00000147221664248353057110000000683676516934060204_);}
	.st61{fill:url(#SVGID_00000165950303671572160090000016317822738306524573_);}
	.st62{fill:url(#SVGID_00000103960789503593767420000003743314780420401289_);}
	.st63{fill:url(#SVGID_00000027594698879029801930000002916034620357943446_);}
	.st64{fill:url(#SVGID_00000052096944175470167660000013345183404984654734_);}
	.st65{fill:#324405;}
	.st66{fill:#0C2948;}
	.st67{fill:#F0AF47;}
	.st68{fill:#FEFEFE;}
	.st69{fill:#F6D89A;}
	.st70{fill:url(#SVGID_00000113324668537791615560000001597232036553843134_);}
	.st71{fill:url(#SVGID_00000030467148415118000010000017506216620451037598_);}
	.st72{fill:url(#SVGID_00000137852480892522112590000013060310722954527617_);}
	.st73{fill:url(#SVGID_00000182528405336761463700000006788006740739687570_);}
	.st74{fill:url(#SVGID_00000161620538002255504140000006572787048414834841_);}
	.st75{fill:url(#SVGID_00000045578179697712732430000013125868493337746063_);}
	.st76{fill:#058CB6;}
	.st77{fill:#173B71;}
	.st78{fill:url(#SVGID_00000052078971536687442620000014312245052512094870_);}
	.st79{fill:url(#SVGID_00000009556829781007619430000004943984539324051369_);}
	.st80{fill:url(#SVGID_00000124128590435718501550000014900357018907838110_);}
	.st81{fill:url(#SVGID_00000169522167231635834810000015135574617024506536_);}
	.st82{fill:#031D41;}
	.st83{fill:#007AE8;}
	.st84{fill:#FBA122;}
	.st85{fill:#F9D190;}
	.st86{fill:url(#SVGID_00000104687143461953495280000002778392929753024690_);}
	.st87{fill:url(#SVGID_00000090997770009723171360000015730244241548230304_);}
	.st88{fill:#1E6D8C;}
	.st89{fill:#3C3C3E;}
	.st90{fill:#C06B2A;}
	.st91{fill:#136185;}
	.st92{fill:#0A2F4B;}
	.st93{fill:#F3AC27;}
	.st94{fill:#5EB557;}
	.st95{fill:#0B4D8C;}
	.st96{fill:#A500B9;}
	.st97{fill:#2E3F51;}
	.st98{fill:#EA0A0A;}
	.st99{fill-rule:evenodd;clip-rule:evenodd;fill:#0591A3;}
	.st100{fill-rule:evenodd;clip-rule:evenodd;fill:#515150;}
	.st101{fill-rule:evenodd;clip-rule:evenodd;fill:#DADADA;}
	.st102{fill-rule:evenodd;clip-rule:evenodd;fill:#00BACF;}
	.st103{fill-rule:evenodd;clip-rule:evenodd;fill:#FA6105;}
	.st104{fill-rule:evenodd;clip-rule:evenodd;fill:#FCA605;}
	.st105{fill-rule:evenodd;clip-rule:evenodd;fill:#FAA300;}
	.st106{fill-rule:evenodd;clip-rule:evenodd;fill:#FADB24;}
	.st107{fill:#0071BC;}
	.st108{fill:#052130;}
	.st109{fill:#333333;}
	.st110{fill:#012061;}
	.st111{fill:#EC8D06;}
	.st112{fill:#003756;}
	.st113{fill:#F7931E;}
	.st114{fill:#EA9D1C;}
	.st115{fill:#C7DF20;}
	.st116{fill:#F2A538;}
	.st117{fill:#159FE2;}
	.st118{fill:#20385F;}
	.st119{fill:#4C4846;}
	.st120{fill:#E5841A;}
	.st121{fill:#F3A337;}
</style>
<g id="Layer_1">
</g>
<g id="Layer_2">
</g>
<g id="Layer_3">
</g>
<g id="Layer_4">
</g>
<g id="Layer_5">
</g>
<g id="Layer_6">
</g>
<g id="Layer_7">
</g>
<g id="Layer_8">
</g>
<g id="Layer_9">
</g>
<g id="Layer_10">
</g>
<g id="Layer_11">
</g>
<g id="Layer_12">
</g>
<g id="Layer_13">
</g>
<g id="Layer_14">
</g>
<g id="_x31_-15">
	<g>
		<path d="M216.95,123.46c1.98-12.81,3.97-25.62,5.97-38.58c4.08,0.49,7.99,0.96,12.11,1.46c-0.28,3.22-0.54,6.3-0.83,9.38
			c-1.23,12.93-2.43,25.87-3.74,38.8c-0.21,2.05,0.24,3.48,1.77,4.95c5.62,5.39,11.09,10.94,16.91,16.71
			c-0.87,0.11-1.34,0.22-1.8,0.22c-8.19,0.01-16.37,0.03-24.56-0.05c-0.93-0.01-2.06-0.41-2.76-1.02
			c-12.27-10.54-24.47-21.15-36.71-31.73c-2.01-1.74-4.08-3.41-6.22-5.19c-4.43,3.57-8.82,7.12-13.21,10.66
			c-10.86,8.79-21.7,17.59-32.59,26.34c-0.65,0.52-1.6,0.94-2.41,0.95c-8.64,0.07-17.28,0.05-25.93,0.05c-0.3,0-0.6-0.08-1.27-0.61
			c1.61-1.47,3.26-2.89,4.81-4.42c4.07-4.01,8.14-8.03,12.11-12.14c0.62-0.64,1.06-1.81,0.98-2.69
			c-0.89-10.29-1.89-20.57-2.87-30.85c-0.55-5.82-1.11-11.63-1.65-17.45c-0.05-0.57-0.01-1.15-0.01-1.89
			c3.96-0.5,7.86-0.99,11.94-1.5c2.08,13.29,4.12,26.38,6.17,39.48c0.19,0.08,0.37,0.17,0.56,0.25
			c13.81-13.99,27.62-27.98,41.6-42.14c13.9,13.97,27.49,27.63,41.07,41.28C216.58,123.63,216.77,123.54,216.95,123.46z
			 M151.48,69.38c-0.52-0.46-1-0.96-1.56-1.37c-3.41-2.5-7.24-4.11-11.38-4.81c-8.64-1.45-17.21,0.24-25.81,0.81
			c-0.59,0.04-1.26,1.25-1.6,2.03c-0.26,0.6,0.07,1.42-0.07,2.11c-0.27,1.41-1.13,2.33-2.62,2.46c-1.56,0.14-2.61-0.61-3.16-2.05
			c-0.14-0.36-0.14-0.76-0.22-1.15c-0.44-2.18-0.96-2.57-3.22-2.35c-1.23,0.12-2.44,0.34-3.67,0.44c-1.89,0.16-2.58,1.11-2.32,2.99
			c0.6,4.37,1.1,8.76,1.63,13.14c0.44,3.67,0.6,3.8,4.25,3.33c4.25-0.55,4.23-0.55,4.64-4.66c0.16-1.6,1.01-2.69,2.68-2.85
			c1.66-0.16,2.7,0.73,3.15,2.3c0.16,0.56,0.16,1.16,0.27,1.73c0.26,1.26,1.04,1.98,2.34,1.82c5.09-0.61,10.18-1.23,15.25-1.94
			c1.64-0.23,2.45-1.42,2.4-3.06c-0.04-1.29-0.27-2.58-0.38-3.87c-0.31-3.65,0.67-4.98,4.38-5.03c4.14-0.07,8.29,0.26,12.43,0.42
			c0.8,0.03,1.6,0.08,2.39,0.11C151.35,69.77,151.42,69.57,151.48,69.38z M199.4,70.02c0.52-0.02,1.03-0.13,1.55-0.15
			c4.53-0.13,9.07-0.41,13.6-0.32c2.52,0.05,3.54,1.51,3.4,4.02c-0.07,1.23-0.28,2.45-0.39,3.68c-0.27,2.91,0.68,4.06,3.58,4.4
			c3.8,0.45,7.6,0.91,11.4,1.36c4.07,0.48,4.07,0.47,5.26-3.34c0.46-1.49,1.48-2.31,3.04-2.2c1.66,0.11,2.56,1.17,2.77,2.76
			c0.08,0.57-0.04,1.16-0.1,1.74c-0.15,1.47,0.43,2.4,1.94,2.62c1.54,0.23,3.08,0.46,4.63,0.61c1.22,0.12,1.99-0.49,2.15-1.74
			c0.66-5.15,1.3-10.31,1.94-15.47c0.16-1.31-0.39-2.16-1.73-2.35c-1.67-0.24-3.35-0.43-5.03-0.61c-1.42-0.15-2.14,0.58-2.42,1.95
			c-0.56,2.76-1.73,3.93-3.59,3.73c-1.75-0.19-2.49-1.35-2.55-4.32c-0.03-1.69-0.75-2.48-2.44-2.58c-5.9-0.36-11.8-0.86-17.7-1.16
			c-6.55-0.33-12.62,1.31-18.11,4.95c-0.78,0.52-1.47,1.18-2.58,2.09C198.92,69.91,199.16,70.02,199.4,70.02z"/>
		<path class="st114" d="M176.79,80.65c4.75-5.98,9.63-11.37,15.82-15.44c-6.43,2.7-11.51,7.28-16.54,12
			c-1.22-8.49,11.49-19.47,21.56-18.74C198.84,67.32,190.09,80.3,176.79,80.65z M173.48,65.13c1.08-6.9,2.27-13.65,5.58-19.97
			c-0.75,3.72-1.63,7.23-2.11,10.79c-0.49,3.62-0.6,7.3-0.89,11.21c8.88-5.72,10.37-21.54,3.1-30.37
			C170.18,42.93,168.03,57.01,173.48,65.13z M174.96,77.5c-1.75-13.02-14.19-19.84-21.97-18.94c-0.8,11.2,9.96,22.24,20.87,22.01
			c-4.73-5.92-9.66-11.47-16.08-15.51C164.44,67.79,169.65,72.54,174.96,77.5z M182.61,142.13c-2.14,0-4.17,0-6.23,0
			c0,2.12,0,4.1,0,6.19c2.09,0,4.07,0,6.23,0C182.61,146.17,182.61,144.19,182.61,142.13z M182.58,140.11c0-2.13,0-4.15,0-6.16
			c-6.15-0.82-6.54-0.48-6.29,5.4c0.01,0.19,0.06,0.38,0.13,0.76C178.52,140.11,180.5,140.11,182.58,140.11z M174.2,140.02
			c0-2.09,0-4.1,0-6.09c-2.15,0-4.11,0-6.04,0c0,2.09,0,4,0,6.09C170.26,140.02,172.22,140.02,174.2,140.02z M174.27,148.27
			c0-2.13,0-4.11,0-6.14c-2.12,0-4.09,0-6.16,0c0,2.11,0,4.08,0,6.14C170.31,148.27,172.28,148.27,174.27,148.27z"/>
	</g>
</g>
</svg>
