<?xml version="1.0" encoding="utf-8"?>
<!-- Generator: Adobe Illustrator 27.8.1, SVG Export Plug-In . SVG Version: 6.00 Build 0)  -->
<svg version="1.1" xmlns="http://www.w3.org/2000/svg" xmlns:xlink="http://www.w3.org/1999/xlink" x="0px" y="0px"
	 viewBox="0 0 350 230" style="enable-background:new 0 0 350 230;" xml:space="preserve">
<style type="text/css">
	.st0{fill:#E3FFFE;}
	.st1{fill:#FFFDE6;}
	.st2{fill:#FFFCE9;}
	.st3{fill:#EBFFEB;}
	.st4{fill:#163458;}
	.st5{fill:#00B6BF;}
	.st6{fill:#182132;}
	.st7{fill:#783232;}
	.st8{fill:#00E9FF;}
	.st9{fill:#0C1E8C;}
	.st10{fill:#FFC100;}
	.st11{fill:#0C6C00;}
	.st12{fill:#23605B;}
	.st13{fill:#FF7E30;}
	.st14{fill:#00D7FD;}
	.st15{fill:#5C00A2;}
	.st16{fill-rule:evenodd;clip-rule:evenodd;}
	.st17{fill:#20B700;}
	.st18{fill:none;}
	.st19{fill:#FFFFFF;}
	.st20{fill:#B000AB;}
	.st21{fill:#FA9720;}
	.st22{fill:#DA1300;}
	.st23{fill:#00F2FF;}
	.st24{fill:#00416A;}
	.st25{fill:#00FFE9;}
	.st26{fill:#017F2E;}
	.st27{fill:#0D302D;}
	.st28{fill:#00FFF2;}
	.st29{fill:#003CAC;}
	.st30{fill:#396D7A;}
	.st31{fill:#440044;}
	.st32{fill:#003D36;}
	.st33{fill:#CBA400;}
	.st34{fill-rule:evenodd;clip-rule:evenodd;fill:#FFFDF7;}
	.st35{fill-rule:evenodd;clip-rule:evenodd;fill:#CCF8FF;}
	.st36{fill-rule:evenodd;clip-rule:evenodd;fill:#E5E7EB;}
	.st37{fill-rule:evenodd;clip-rule:evenodd;fill:#F0F1F5;}
	.st38{fill-rule:evenodd;clip-rule:evenodd;fill:#E6DCD5;}
	.st39{fill-rule:evenodd;clip-rule:evenodd;fill:#FEFCF7;}
	.st40{fill-rule:evenodd;clip-rule:evenodd;fill:#E5F5FB;}
	.st41{fill-rule:evenodd;clip-rule:evenodd;fill:#E9E9E9;}
	.st42{fill-rule:evenodd;clip-rule:evenodd;fill:#F1F8FF;}
	.st43{fill-rule:evenodd;clip-rule:evenodd;fill:#F2F2F2;}
	.st44{fill-rule:evenodd;clip-rule:evenodd;fill:#FFFFFF;}
	.st45{fill-rule:evenodd;clip-rule:evenodd;fill:#EBFDFF;}
	.st46{fill-rule:evenodd;clip-rule:evenodd;fill:url(#SVGID_1_);}
	.st47{fill-rule:evenodd;clip-rule:evenodd;fill:#404041;}
	.st48{fill:url(#SVGID_00000182526483067336988400000002363474531094496398_);}
	.st49{fill:url(#SVGID_00000004524362763460293020000002458698822463284389_);}
	.st50{fill:url(#SVGID_00000022538858336262269700000015797762917915503012_);}
	.st51{fill:url(#SVGID_00000084504071627264862230000018177840805633437844_);}
	.st52{fill:url(#SVGID_00000155830345486736012990000008314054336351758227_);}
	.st53{fill:url(#SVGID_00000005258497413653633320000005316497576937355665_);}
	.st54{fill:url(#SVGID_00000094592270383554617130000016463095889629988502_);}
	.st55{fill:url(#SVGID_00000093176585336690637530000016558148252287728267_);}
	.st56{fill:url(#SVGID_00000078761642153199877630000006751350138667742874_);}
	.st57{fill:url(#SVGID_00000045594264743007686670000011758948595709394357_);}
	.st58{fill:url(#SVGID_00000165217579937859123710000003022820980661647269_);}
	.st59{fill:url(#SVGID_00000026163379637440465840000001375958610443090618_);}
	.st60{fill:url(#SVGID_00000024718833686795152840000012506320064745098657_);}
	.st61{fill:url(#SVGID_00000179637687545157229450000012150632392825326266_);}
	.st62{fill:url(#SVGID_00000109026953300626823200000015401599474815459252_);}
	.st63{fill:url(#SVGID_00000004514952210065340160000012797997238602909068_);}
	.st64{fill:url(#SVGID_00000061465507984115496210000011615855612503306113_);}
	.st65{fill:#324405;}
	.st66{fill:#0C2948;}
	.st67{fill:#F0AF47;}
	.st68{fill:#FEFEFE;}
	.st69{fill:#F6D89A;}
	.st70{fill:url(#SVGID_00000071555226738258077310000001498645549113487779_);}
	.st71{fill:url(#SVGID_00000020361151825199298610000001050458163605902255_);}
	.st72{fill:url(#SVGID_00000060728062662174043490000002849326078847730353_);}
	.st73{fill:url(#SVGID_00000165213228847392444050000002666086980884736662_);}
	.st74{fill:url(#SVGID_00000100383876712287381070000014652054565663562115_);}
	.st75{fill:url(#SVGID_00000002373530362155402780000001230315195859152287_);}
	.st76{fill:#058CB6;}
	.st77{fill:#173B71;}
	.st78{fill:url(#SVGID_00000031173568604392326340000005063103894539462557_);}
	.st79{fill:url(#SVGID_00000080921483301948082000000010647450827561423012_);}
	.st80{fill:url(#SVGID_00000178174248795325608740000012325221975032627091_);}
	.st81{fill:url(#SVGID_00000097476774441866772380000007663136281295042718_);}
	.st82{fill:#031D41;}
	.st83{fill:#007AE8;}
	.st84{fill:#FBA122;}
	.st85{fill:#F9D190;}
	.st86{fill:url(#SVGID_00000176031069152826712000000001594607790986225288_);}
	.st87{fill:url(#SVGID_00000008870513388310971270000004624589261497689741_);}
	.st88{fill:#1E6D8C;}
	.st89{fill:#3C3C3E;}
	.st90{fill:#C06B2A;}
	.st91{fill:#136185;}
	.st92{fill:#0A2F4B;}
	.st93{fill:#F3AC27;}
	.st94{fill:#5EB557;}
	.st95{fill:#0B4D8C;}
	.st96{fill:#A500B9;}
	.st97{fill:#2E3F51;}
	.st98{fill:#EA0A0A;}
	.st99{fill-rule:evenodd;clip-rule:evenodd;fill:#0591A3;}
	.st100{fill-rule:evenodd;clip-rule:evenodd;fill:#515150;}
	.st101{fill-rule:evenodd;clip-rule:evenodd;fill:#DADADA;}
	.st102{fill-rule:evenodd;clip-rule:evenodd;fill:#00BACF;}
	.st103{fill-rule:evenodd;clip-rule:evenodd;fill:#FA6105;}
	.st104{fill-rule:evenodd;clip-rule:evenodd;fill:#FCA605;}
	.st105{fill-rule:evenodd;clip-rule:evenodd;fill:#FAA300;}
	.st106{fill-rule:evenodd;clip-rule:evenodd;fill:#FADB24;}
	.st107{fill:#0071BC;}
	.st108{fill:#052130;}
	.st109{fill:#333333;}
	.st110{fill:#012061;}
	.st111{fill:#EC8D06;}
	.st112{fill:#003756;}
	.st113{fill:#F7931E;}
	.st114{fill:#EA9D1C;}
	.st115{fill:#C7DF20;}
	.st116{fill:#F2A538;}
	.st117{fill:#159FE2;}
	.st118{fill:#20385F;}
	.st119{fill:#4C4846;}
	.st120{fill:#E5841A;}
	.st121{fill:#F3A337;}
</style>
<g id="Layer_1">
</g>
<g id="Layer_2">
</g>
<g id="Layer_3">
</g>
<g id="Layer_4">
</g>
<g id="Layer_5">
</g>
<g id="Layer_6">
</g>
<g id="Layer_7">
</g>
<g id="Layer_8">
</g>
<g id="Layer_9">
</g>
<g id="Layer_10">
</g>
<g id="Layer_11">
</g>
<g id="Layer_12">
</g>
<g id="Layer_13">
</g>
<g id="Layer_14">
</g>
<g id="_x31_-15">
	<g>
		<path class="st116" d="M160.45,36.02l0.17,0.05c0.29,0.47,0.25,26.8,0.26,29.41l-27.54-0.03c-0.38-0.01-0.2,0.04-0.52-0.15
			c-0.08-1.1,0.6-2.49,1.01-3.49C139.32,48.3,147.31,41.52,160.45,36.02z M188.85,65.47l29.18,0
			c-3.63-11.26-11.26-21.16-21.89-26.59c-1.16-0.59-2.35-1.12-3.57-1.59c-1.22-0.47-2.45-0.87-3.71-1.2
			C188.97,45.88,188.97,55.67,188.85,65.47z M271.16,121.72c-1.11,1.66-6.03,7.46-7.61,8.04c-0.71-0.07-1.21-0.46-1.74-0.91
			c-1.14-0.98-2.13-2.28-3.12-3.41l-6.29-7.19c-0.97-1.09-1.92-2.3-2.98-3.29c-1.3-1.24-2.45-2.87-3.61-4.26
			c-1.18-1.28-4.53-5.46-5.57-6.2c-2.94-2.09-6.71-1.87-8.93-5.2c-0.88-1.33-1.23-2.95-1.16-4.53c0.09-2.11,1.05-4.01,2.63-5.41
			c1.5-1.33,3.38-2.04,5.39-1.89c2.11,0.16,4.08,1.34,5.38,2.98c1.3,1.63,1.53,3.82,2.8,5.38c1.05,1.3,2.37,2.45,3.54,3.64
			c1.91,1.94,3.76,3.95,5.66,5.91C260.77,110.79,265.88,116.34,271.16,121.72z M239.43,93.93c-0.28-0.51-0.79-0.9-1.35-1.04
			c-0.35-0.09-0.69-0.1-1.05-0.1c-0.75,0.45-1.4,0.88-1.63,1.78c-0.15,0.61-0.12,1.26,0.21,1.8c0.31,0.5,0.91,0.94,1.48,1.06
			c0.26,0.06,0.55,0.07,0.82,0.07c0.8-0.41,1.35-0.81,1.65-1.7C239.77,95.2,239.75,94.51,239.43,93.93z M249,104.73
			c-0.04-0.88-0.62-1.63-1.26-2.21c-0.74-0.66-1.28-1.25-2.31-1.31c-0.34,0.29-0.63,0.5-0.7,0.98c-0.11,0.71,0.43,1.6,0.89,2.11
			c0.48,0.53,1.43,1.44,2.18,1.42c0.2,0,0.24-0.02,0.43-0.04C248.66,105.33,248.78,105.25,249,104.73z M253.89,109.97
			c-0.26-1.39-1.22-2.32-2.34-3.1c-0.5-0.35-0.92-0.4-1.52-0.4c-0.29,0.27-0.63,0.53-0.63,0.97c0,1.05,1.14,2.21,1.89,2.84
			c0.47,0.39,0.96,0.88,1.61,0.78c0.15-0.02,0.19-0.04,0.32-0.07C253.56,110.66,253.81,110.45,253.89,109.97z M259.33,115.44
			c-0.74-1.15-2.17-3.24-3.58-3.51c-0.19-0.03-0.38-0.05-0.57-0.07c-0.37,0.32-0.61,0.5-0.75,0.99c0.13,1.46,1.85,2.82,2.9,3.72
			c0.27,0.23,0.45,0.34,0.8,0.34C258.6,116.45,258.99,116.01,259.33,115.44z M264.35,121.47c-0.29-1.46-1.62-2.64-2.82-3.45
			c-0.24-0.16-0.45-0.25-0.73-0.33c-0.32,0.31-0.72,0.62-0.76,1.1c-0.06,0.8,0.51,1.7,1.04,2.26c0.68,0.71,1.46,1.36,2.48,1.33
			c0.04,0,0.08-0.01,0.13-0.01C264.09,122.02,264.21,121.98,264.35,121.47z M206.59,144.68c-0.04,8.01-0.05,16.02-0.01,24.03
			l-30.75-0.05l-31.97,0.01l-0.05-23.93c-1.89-0.02-3.78-0.01-5.67,0.03c3-2.26,5.49-5.13,8.19-7.73
			c6.55-6.37,13.03-12.81,19.43-19.33c3.08-3.09,5.99-6.32,9.26-9.21c1.7,1.36,3.26,3.2,4.82,4.75c3.54,3.48,7.06,6.98,10.55,10.5
			c7.01,7.08,14.29,13.9,21.31,20.97L206.59,144.68z M173.76,147.96l-9.58,0.01l0.01,11.3l9.55,0.01L173.76,147.96z M173.74,134.71
			c-0.37-0.24-0.55-0.15-0.97-0.11c-3.17,0.84-5.61,2.09-7.29,5.04c-0.69,1.21-1.62,3.66-1.26,5.07c0.07,0.26,0.08,0.28,0.18,0.5
			c0.35,0.19,0.48,0.16,0.86,0.14l8.53,0.03C173.82,142.04,174.12,137.97,173.74,134.71z M176.21,145.36l9.19,0.01
			c0.01-3.05-0.41-5.5-2.63-7.73c-1.69-1.7-4.21-2.97-6.62-3.11L176.21,145.36z M185.48,159.36l-0.09-11.41
			c-3.02-0.02-6.06,0.04-9.08-0.01l0.08,11.37L185.48,159.36z"/>
		<path class="st118" d="M245.79,110.7c1.16,1.39,2.31,3.02,3.61,4.26c-1.12,2-6.44,6.82-8.28,8.67l-10.39,10.58
			c-3.24,3.26-6.55,6.46-9.74,9.78c0.04-2.64,0.03-5.28-0.03-7.92c2.98-3.47,6.39-6.65,9.61-9.9l10.17-10.45
			C242.42,114.04,244.2,112.46,245.79,110.7z M185.56,65.48l-10.77,0.01l-10.56,0l0.12-36.84c3.6-2.65,7.1-5.44,10.71-8.06
			c1.24,0.7,2.45,1.85,3.59,2.71c2.29,1.73,4.79,3.37,6.9,5.31c-0.13,3.97,0.01,7.98,0.01,11.96L185.56,65.48z M178.56,30.37
			c0-0.12,0-0.23-0.01-0.35c-0.01-0.12-0.03-0.23-0.05-0.35c-0.02-0.11-0.05-0.23-0.08-0.34c-0.03-0.11-0.07-0.22-0.12-0.33
			c-0.05-0.11-0.1-0.22-0.16-0.33c-0.06-0.11-0.12-0.21-0.19-0.31c-0.07-0.1-0.14-0.2-0.22-0.29c-0.08-0.09-0.16-0.18-0.25-0.27
			c-0.09-0.08-0.18-0.16-0.27-0.24c-0.09-0.08-0.19-0.15-0.29-0.21c-0.1-0.07-0.21-0.13-0.31-0.18c-0.11-0.05-0.22-0.1-0.33-0.15
			c-0.6-0.23-1.18-0.26-1.81-0.25c-1.17,0.4-2.06,0.94-2.59,2.11c-0.05,0.11-0.09,0.22-0.13,0.33c-0.04,0.11-0.07,0.22-0.1,0.34
			c-0.03,0.11-0.05,0.23-0.06,0.34c-0.01,0.12-0.03,0.23-0.03,0.35c0,0.12,0,0.23,0,0.35c0.01,0.12,0.02,0.23,0.04,0.35
			c0.02,0.11,0.04,0.23,0.08,0.34c0.03,0.11,0.07,0.22,0.11,0.33c0.34,0.89,1.06,1.57,1.93,1.93c0.65,0.27,1.35,0.27,2.04,0.21
			c1.11-0.42,1.96-0.92,2.48-2.04c0.05-0.11,0.09-0.22,0.13-0.33c0.04-0.11,0.07-0.22,0.1-0.34c0.03-0.11,0.05-0.23,0.06-0.34
			C178.55,30.6,178.56,30.49,178.56,30.37z M88.72,94l-0.07,0.23c0.67,1.01,2.21,1.86,3.18,2.63c2.33,1.85,10.61,8.39,11.86,10.19
			c-1.3,1.32-10.77,10.19-11.7,10.5c-2-0.59-10.84-9.47-12.86-11.58c-0.53,0.49-0.94,0.97-1.35,1.57
			c0.85,7.47,3.67,15.83,9.31,21.04c3.6,0.09,14.04,0.65,16.53-1.7c0.7-0.67,1.3-1.43,2.03-2.08c0.46,0.5,0.94,0.99,1.37,1.52
			c4.64,5.02,9.32,10.01,14.04,14.96c2.32,2.43,4.56,4.99,6.98,7.32l0.09-16.69c-4.81-5.04-10.45-9.94-15.5-14.85
			c1.65-2.9,3.2-5.13,2.27-8.62c-1.11-4.15-3.15-8.24-4.97-12.12c-5.04-1.62-10.64-2.94-15.96-2.84
			C92.36,93.53,90.22,93.38,88.72,94z M115.28,78.9l109.32,0.02c3.52,0.02,7.04,0.01,10.56-0.01c-2.72-2.16-5.28-4.6-7.9-6.89
			c-1.22-1.06-2.43-2.22-3.79-3.11c-5.25-0.08-10.51,0.08-15.76,0.06l-48.23-0.08c-11.08,0.06-22.17,0.05-33.25-0.03
			C122.53,72.12,119.08,75.77,115.28,78.9z M155.95,82.28c-8.05,0.01-16.11-0.09-24.16,0.01l-0.11,79.25l-39.56-0.24
			c-8.93,0-17.86-0.06-26.79-0.2l0,7.67l41.3-0.04c11.25-0.06,22.5-0.03,33.74,0.08l-0.05-20.79l-4.93,0.01l0.01-4.83
			c4.1-4.54,8.59-8.84,12.96-13.12c2.31-2.27,4.55-4.61,6.86-6.88c4.15-4.04,8.27-8.1,12.37-12.19c2.44-2.44,4.84-5.08,7.43-7.35
			c2.14,1.88,4.08,4.08,6.13,6.08c6.28,6.16,12.51,12.36,18.7,18.61l9.39,9.31c1.87,1.83,4.05,3.67,5.64,5.74l-0.03,4.73l-4.76-0.02
			l-0.04,20.53l74.57,0.07l0.03-7.82c-2.6-0.03-5.28-0.18-7.87,0.08c-0.9,0.09-1.66,0.72-2.53,0.82c-2.29,0.27-4.91,0.03-7.24,0.03
			c-1.99,0.01-4.2,0.22-6.16,0.04c-1.85-0.17-2.84-1.15-5.08-1.17c-12.46-0.11-24.95,0.25-37.41,0.01l-0.13-78.46
			c-1.29-0.04-2.57-0.05-3.86-0.04L155.95,82.28z"/>
	</g>
</g>
</svg>
