<?xml version="1.0" encoding="utf-8"?>
<!-- Generator: Adobe Illustrator 27.8.1, SVG Export Plug-In . SVG Version: 6.00 Build 0)  -->
<svg version="1.1" xmlns="http://www.w3.org/2000/svg" xmlns:xlink="http://www.w3.org/1999/xlink" x="0px" y="0px"
	 viewBox="0 0 350 230" style="enable-background:new 0 0 350 230;" xml:space="preserve">
<style type="text/css">
	.st0{fill:#E3FFFE;}
	.st1{fill:#FFFDE6;}
	.st2{fill:#FFFCE9;}
	.st3{fill:#EBFFEB;}
	.st4{fill:#163458;}
	.st5{fill:#00B6BF;}
	.st6{fill:#182132;}
	.st7{fill:#783232;}
	.st8{fill:#00E9FF;}
	.st9{fill:#0C1E8C;}
	.st10{fill:#FFC100;}
	.st11{fill:#0C6C00;}
	.st12{fill:#23605B;}
	.st13{fill:#FF7E30;}
	.st14{fill:#00D7FD;}
	.st15{fill:#5C00A2;}
	.st16{fill-rule:evenodd;clip-rule:evenodd;}
	.st17{fill:#20B700;}
	.st18{fill:none;}
	.st19{fill:#FFFFFF;}
	.st20{fill:#B000AB;}
	.st21{fill:#FA9720;}
	.st22{fill:#DA1300;}
	.st23{fill:#00F2FF;}
	.st24{fill:#00416A;}
	.st25{fill:#00FFE9;}
	.st26{fill:#017F2E;}
	.st27{fill:#0D302D;}
	.st28{fill:#00FFF2;}
	.st29{fill:#003CAC;}
	.st30{fill:#396D7A;}
	.st31{fill:#440044;}
	.st32{fill:#003D36;}
	.st33{fill:#CBA400;}
	.st34{fill-rule:evenodd;clip-rule:evenodd;fill:#FFFDF7;}
	.st35{fill-rule:evenodd;clip-rule:evenodd;fill:#CCF8FF;}
	.st36{fill-rule:evenodd;clip-rule:evenodd;fill:#E5E7EB;}
	.st37{fill-rule:evenodd;clip-rule:evenodd;fill:#F0F1F5;}
	.st38{fill-rule:evenodd;clip-rule:evenodd;fill:#E6DCD5;}
	.st39{fill-rule:evenodd;clip-rule:evenodd;fill:#FEFCF7;}
	.st40{fill-rule:evenodd;clip-rule:evenodd;fill:#E5F5FB;}
	.st41{fill-rule:evenodd;clip-rule:evenodd;fill:#E9E9E9;}
	.st42{fill-rule:evenodd;clip-rule:evenodd;fill:#F1F8FF;}
	.st43{fill-rule:evenodd;clip-rule:evenodd;fill:#F2F2F2;}
	.st44{fill-rule:evenodd;clip-rule:evenodd;fill:#FFFFFF;}
	.st45{fill-rule:evenodd;clip-rule:evenodd;fill:#EBFDFF;}
	.st46{fill-rule:evenodd;clip-rule:evenodd;fill:url(#SVGID_1_);}
	.st47{fill-rule:evenodd;clip-rule:evenodd;fill:#404041;}
	.st48{fill:url(#SVGID_00000062158918192335077020000013757634915606385326_);}
	.st49{fill:url(#SVGID_00000018236604915384754840000008225597372395398067_);}
	.st50{fill:url(#SVGID_00000024704842725982708990000002810867069460896179_);}
	.st51{fill:url(#SVGID_00000039108718168362410310000012014754792381216648_);}
	.st52{fill:url(#SVGID_00000163776868464801563080000000853013320620999347_);}
	.st53{fill:url(#SVGID_00000007421091312688466880000012435930759088860801_);}
	.st54{fill:url(#SVGID_00000013911103870783707330000017479013011280697743_);}
	.st55{fill:url(#SVGID_00000038391320887250843670000009728751860758520753_);}
	.st56{fill:url(#SVGID_00000177473215294954431060000005421090677507759758_);}
	.st57{fill:url(#SVGID_00000056390647731216450610000011958938650144649396_);}
	.st58{fill:url(#SVGID_00000166676662877891198760000006534105717777130166_);}
	.st59{fill:url(#SVGID_00000163753520074939855780000002003352516607569072_);}
	.st60{fill:url(#SVGID_00000067210665640355671230000002457580666168623540_);}
	.st61{fill:url(#SVGID_00000173155864482516739810000003337820095884651929_);}
	.st62{fill:url(#SVGID_00000134228983556636578510000001580763420190578357_);}
	.st63{fill:url(#SVGID_00000183239507048096657260000003341341954354604725_);}
	.st64{fill:url(#SVGID_00000089562179362083259400000011307366390670860985_);}
	.st65{fill:#324405;}
	.st66{fill:#0C2948;}
	.st67{fill:#F0AF47;}
	.st68{fill:#FEFEFE;}
	.st69{fill:#F6D89A;}
	.st70{fill:url(#SVGID_00000072998089047151318250000003325373768983546008_);}
	.st71{fill:url(#SVGID_00000006707902147342436460000017723729202917457065_);}
	.st72{fill:url(#SVGID_00000027582580054024649160000013773829397211271045_);}
	.st73{fill:url(#SVGID_00000020383445530955252910000015427850884510409352_);}
	.st74{fill:url(#SVGID_00000168801635376813022400000006524558205453746851_);}
	.st75{fill:url(#SVGID_00000065068248866666240760000012260876482563868828_);}
	.st76{fill:#058CB6;}
	.st77{fill:#173B71;}
	.st78{fill:url(#SVGID_00000157991683334501070540000007700186247311272583_);}
	.st79{fill:url(#SVGID_00000155132159068704347040000017559906660593415330_);}
	.st80{fill:url(#SVGID_00000085241759254304483830000011191435768515003021_);}
	.st81{fill:url(#SVGID_00000176038861940872931420000000486024891169718706_);}
	.st82{fill:#031D41;}
	.st83{fill:#007AE8;}
	.st84{fill:#FBA122;}
	.st85{fill:#F9D190;}
	.st86{fill:url(#SVGID_00000085969887318181851230000013353439210108536220_);}
	.st87{fill:url(#SVGID_00000153691478054795353290000009856731883946780347_);}
	.st88{fill:#1E6D8C;}
	.st89{fill:#3C3C3E;}
	.st90{fill:#C06B2A;}
	.st91{fill:#136185;}
	.st92{fill:#0A2F4B;}
	.st93{fill:#F3AC27;}
	.st94{fill:#5EB557;}
	.st95{fill:#0B4D8C;}
	.st96{fill:#A500B9;}
	.st97{fill:#2E3F51;}
	.st98{fill:#EA0A0A;}
	.st99{fill-rule:evenodd;clip-rule:evenodd;fill:#0591A3;}
	.st100{fill-rule:evenodd;clip-rule:evenodd;fill:#515150;}
	.st101{fill-rule:evenodd;clip-rule:evenodd;fill:#DADADA;}
	.st102{fill-rule:evenodd;clip-rule:evenodd;fill:#00BACF;}
	.st103{fill-rule:evenodd;clip-rule:evenodd;fill:#FA6105;}
	.st104{fill-rule:evenodd;clip-rule:evenodd;fill:#FCA605;}
	.st105{fill-rule:evenodd;clip-rule:evenodd;fill:#FAA300;}
	.st106{fill-rule:evenodd;clip-rule:evenodd;fill:#FADB24;}
	.st107{fill:#0071BC;}
	.st108{fill:#052130;}
	.st109{fill:#333333;}
	.st110{fill:#012061;}
	.st111{fill:#EC8D06;}
	.st112{fill:#003756;}
	.st113{fill:#F7931E;}
	.st114{fill:#EA9D1C;}
	.st115{fill:#C7DF20;}
	.st116{fill:#F2A538;}
	.st117{fill:#159FE2;}
	.st118{fill:#20385F;}
	.st119{fill:#4C4846;}
	.st120{fill:#E5841A;}
	.st121{fill:#F3A337;}
</style>
<g id="Layer_1">
</g>
<g id="Layer_2">
</g>
<g id="Layer_3">
</g>
<g id="Layer_4">
</g>
<g id="Layer_5">
</g>
<g id="Layer_6">
</g>
<g id="Layer_7">
</g>
<g id="Layer_8">
</g>
<g id="Layer_9">
</g>
<g id="Layer_10">
</g>
<g id="Layer_11">
</g>
<g id="Layer_12">
</g>
<g id="Layer_13">
</g>
<g id="Layer_14">
</g>
<g id="_x31_-15">
	<path class="st115" d="M101.59,159.89c0.01,2.12,0.13,4.31-0.04,6.42c-0.06,0.76-0.14,1.64-0.68,2.22
		c-0.77,0.83-1.84,0.72-2.87,0.73c-1.92,0.01-9.73,0.44-10.87-0.44c-0.63-0.48-0.83-1.44-0.9-2.18c-0.16-1.64-0.05-3.38-0.05-5.04
		l0-9.59l0.03-12.88c0.01-2.38-0.09-4.83,0.1-7.2c0.05-0.61,0.1-1.12,0.53-1.59c0.8-0.88,2.06-0.76,3.14-0.79
		c1.98-0.01,9.61-0.49,10.77,0.61c0.57,0.54,0.75,1.61,0.8,2.35c0.12,1.74,0.02,3.55,0.01,5.29l-0.02,10.55L101.59,159.89z"/>
	<path class="st116" d="M263.65,110.42c-4.06,2.11-7.92,5-11.73,7.55c-1.55,1.04-3.14,2.29-4.84,3.04
		c-0.71,0.31-1.78,0.69-2.56,0.43c-0.78-0.26-1.47-0.91-2.02-1.51c-1.68-1.88-5.93-8.63-6.95-10.92c-0.5-1.13-0.75-2.41-0.26-3.6
		c0.24-0.58,0.79-0.99,1.27-1.36c1.52-1.14,3.22-2.09,4.83-3.09c3.82-2.36,7.72-4.62,11.41-7.19c-5.12-2.25-10.18-4.13-15.87-3.98
		c-6.25,0.37-12.14,2.94-16.33,7.67c-4.39,4.97-6.44,11.43-6.01,18.01c0.16,2.35,0.88,4.85-0.83,6.82c-2.5,2.88-5.59,5.41-8.32,8.08
		c-6.91,6.82-13.92,13.54-21.02,20.15c-0.82,0.77-1.65,1.59-2.54,2.28c-1.59,1.24-3.39,2.17-4.63,3.81
		c-1.09,1.44-1.72,3.48-1.63,5.28c0.1,1.95,1.02,3.72,2.49,5c1.59,1.38,3.83,2.08,5.93,1.9c1.01-0.08,2.02-0.35,2.86-0.95
		c1.52-1.1,2.81-2.54,4.14-3.85l4.84-4.72c5.05-4.9,10.23-9.65,15.23-14.61c2.09-1.94,4.16-3.89,6.23-5.85
		c1.73-1.66,3.56-3.87,5.65-5.07c0.7-0.4,1.31-0.47,2.1-0.56c4.66,2.77,8.01,4.08,13.51,4.13c2.2,0.02,4.39-0.16,6.53-0.7
		c0.2-0.05,0.4-0.1,0.6-0.16c0.2-0.06,0.4-0.11,0.59-0.17c0.2-0.06,0.39-0.12,0.59-0.19c0.2-0.07,0.39-0.13,0.59-0.2
		c0.19-0.07,0.39-0.14,0.58-0.22c0.19-0.07,0.38-0.15,0.57-0.23c0.19-0.08,0.38-0.16,0.57-0.25c0.19-0.08,0.38-0.17,0.56-0.26
		c0.19-0.09,0.37-0.18,0.56-0.27c0.18-0.09,0.37-0.19,0.55-0.29c0.18-0.1,0.36-0.2,0.54-0.3c0.18-0.1,0.36-0.21,0.53-0.31
		c0.18-0.11,0.35-0.22,0.53-0.33c0.17-0.11,0.35-0.22,0.52-0.34c0.17-0.12,0.34-0.23,0.51-0.35c0.17-0.12,0.33-0.24,0.5-0.37
		c0.17-0.12,0.33-0.25,0.49-0.38c0.16-0.13,0.32-0.26,0.48-0.39c0.16-0.13,0.32-0.27,0.47-0.4c0.16-0.14,0.31-0.27,0.46-0.41
		c0.15-0.14,0.3-0.28,0.45-0.42c0.15-0.14,0.3-0.29,0.44-0.44c0.14-0.15,0.29-0.3,0.43-0.45c0.14-0.15,0.28-0.3,0.42-0.46
		c0.14-0.15,0.27-0.31,0.41-0.47c0.13-0.16,0.26-0.32,0.39-0.48c0.13-0.16,0.26-0.32,0.38-0.49c0.13-0.16,0.25-0.33,0.37-0.5
		c0.12-0.17,0.24-0.34,0.36-0.51c0.12-0.17,0.23-0.34,0.35-0.51c0.11-0.17,0.22-0.35,0.33-0.52c0.11-0.18,0.22-0.35,0.32-0.53
		C263.1,120.72,264.38,115.41,263.65,110.42z M187.41,161.6c-0.01,0.14-0.02,0.29-0.05,0.43c-0.02,0.14-0.05,0.28-0.09,0.42
		c-0.04,0.14-0.08,0.28-0.13,0.41c-0.05,0.13-0.11,0.27-0.17,0.4c-0.58,1.18-1.52,1.83-2.74,2.24c-0.94,0.18-1.85,0.19-2.76-0.14
		c-0.12-0.04-0.24-0.09-0.36-0.15c-0.12-0.06-0.23-0.12-0.34-0.19c-0.11-0.07-0.22-0.14-0.32-0.22c-0.1-0.08-0.2-0.16-0.3-0.25
		c-0.09-0.09-0.18-0.18-0.27-0.28c-0.09-0.1-0.17-0.2-0.24-0.3c-0.08-0.1-0.15-0.21-0.21-0.33c-0.06-0.11-0.12-0.23-0.18-0.34
		c-0.51-1.11-0.57-2.46-0.08-3.59c0.59-1.38,1.72-2.1,3.07-2.62c0.93-0.09,1.7-0.04,2.58,0.35c1.07,0.47,1.94,1.36,2.33,2.46
		c0.05,0.14,0.09,0.27,0.12,0.41c0.03,0.14,0.06,0.28,0.08,0.42c0.02,0.14,0.03,0.29,0.04,0.43
		C187.42,161.32,187.42,161.46,187.41,161.6z"/>
	<path class="st117" d="M213.24,91.34c-0.01,1.33,0.01,2.67-0.03,4c-1.09-0.82-5.93-4.18-6.48-4.99l0.06-0.23
		c0.21,0.2,0.24,0.27,0.52,0.35c0.76-0.39,1.85-0.8,2.41-1.47c-0.3-0.25-0.68-0.51-0.84-0.88c-0.03-0.07-0.05-0.13-0.07-0.2
		L213.24,91.34z M206.79,90.11l-0.06,0.23l-1.04-0.74l0.03,32.1c-4.32,4.13-8.54,8.36-12.68,12.68l-4.22,0l-0.03-23.19
		c-4.18,0.05-8.35,0.07-12.53,0.06l-0.01,23.37l-3.27,0l0-23.44c-4.17,0.16-8.38,0.05-12.56,0.05c0.01,6.84,0.07,13.68-0.01,20.51
		c-1.98-1.24-6.32-4.17-8.46-4.56c-2.09-0.38-5.57-0.1-7.79-0.09l-0.02-20.78c0.02-5.47,0.19-10.99-0.06-16.45
		c-2.59,1.83-5.04,3.85-7.47,5.88c-0.05-1.32-0.06-2.65-0.09-3.97c4.5-3.71,8.66-7.93,13.27-11.48c2.98-3.03,6.47-5.62,9.68-8.4
		l7.27-6.24c2.44-2.12,4.86-4.31,7.47-6.22c2.96,2.16,5.75,4.69,8.61,7c2.54,2.04,5.85,4.39,8.1,6.62c1.57,0.92,3.49,2.85,4.95,4.04
		l8.74,7.17c1.34,1.11,3.05,2.32,4.2,3.61c0.02,0.07,0.05,0.14,0.07,0.2c0.15,0.37,0.53,0.63,0.84,0.88
		c-0.56,0.67-1.65,1.08-2.41,1.47C207.02,90.38,206.99,90.31,206.79,90.11z M173.33,93.63l-4.6,0.01l-8.21,0.01
		c-0.04,4.95-0.02,9.9,0.03,14.85l5-0.04c2.58,0,5.17-0.06,7.75,0.01C173.18,103.54,173.22,98.56,173.33,93.63z M188.83,93.59
		c-4.22,0.02-8.46-0.04-12.68,0.05l-0.03,14.99l12.68,0.03L188.83,93.59z"/>
	<path class="st118" d="M226.46,141.7c1.42,2.25,2.78,4.54,4.21,6.79c-2.42,2.64-5.01,5.1-7.52,7.65c-2.63,2.67-5.21,5.47-8.06,7.91
		l-2.3-1.58l-7.4-4.96c4.87-4.4,9.49-9.15,14.18-13.74c1.65-1.62,3.18-3.47,4.97-4.93C225.28,139.64,225.88,140.78,226.46,141.7z
		 M177.79,172.98c-2.36-2.5-4.78-4.95-7.25-7.35l-14.63-14.68c-2.05-2.03-4.25-3.92-6.27-5.98c3.86-0.02,7.71-0.02,11.57,0.02
		c2.07,0.01,4.39,0.25,6.42-0.1c0.1-0.02,0.2-0.04,0.3-0.06c0.1-0.02,0.2-0.05,0.29-0.08c0.1-0.03,0.19-0.07,0.29-0.11
		c0.09-0.04,0.19-0.08,0.28-0.13c0.09-0.05,0.18-0.1,0.27-0.15c0.09-0.05,0.17-0.11,0.26-0.17c0.08-0.06,0.16-0.12,0.24-0.19
		c0.08-0.07,0.15-0.13,0.23-0.21c0.88-0.87,1.33-2.13,1.28-3.37c-0.05-1.23-0.63-2.5-1.58-3.29c-0.63-0.53-1.38-0.85-2.18-1
		c-2.33-0.45-7.96-0.2-10.54-0.12c-1.56-0.83-4.38-2.67-6.03-2.99c-1.57-0.3-3.34-0.15-4.93-0.14l-7.68,0.02l-32.97,0.03
		l-0.12,30.05c2.36,0.64,4.72,1.3,7.08,1.98c2.01,0.57,4.06,1.05,5.94,1.96c1.8,0.87,3.5,2.01,5.21,3.05
		c3.39,2.06,6.76,4.14,10.12,6.24c2.28,1.41,4.9,3.39,7.52,4.01c2.26,0.54,5.89,0.25,8.29,0.25c1.13,0,4.3,0.28,5.16-0.32
		c0.29-0.2,0.31-0.29,0.39-0.61c-0.95-1.31-3.83-3.46-5.2-4.66c-2.29-2.05-4.55-4.13-6.77-6.24c-1.32-1.23-2.73-2.39-3.98-3.7
		c0.05,0.03,0.1,0.06,0.15,0.09c1.8,1.1,3.43,2.65,5.05,4.01l8.57,7.25c1.56,1.31,3.5,3.29,5.46,3.9c1.85,0.58,4.54,0.24,6.5,0.23
		c1.32,0,3.12,0.4,4.37,0.09c0.43-0.11,0.82-0.33,1.05-0.72c0.16-0.27,0.28-0.58,0.4-0.88c-0.97-1.36-2.43-2.45-3.66-3.58
		c-1.54-1.42-3.04-2.87-4.56-4.3c-2.19-2.04-4.27-4.2-6.45-6.26c-3.62-3.41-7.29-6.71-10.76-10.27l0.04-0.06
		c0.29,0.21,0.54,0.4,0.79,0.65c6.62,5.74,13,11.79,19.49,17.68c2.6,2.36,6.42,6.14,9.21,8.03c1.55,0.03,3.09,0.03,4.64-0.01
		c0.91-0.54,1.72-1.17,2-2.24c0.21-0.81,0.03-1.78-0.44-2.47C179.87,174.97,178.73,173.97,177.79,172.98z M120.92,115.8
		c-2,2.12-4.07,4.16-6.2,6.15c-1.91,1.79-3.9,3.52-5.69,5.42l19.51,0.02l-0.03-29.56l-0.04-8.76c0-1.82-0.14-3.77,0.18-5.57
		c0.27-1.48,0.83-2.21,1.87-3.24c1.43-1.43,3.05-2.71,4.57-4.04l6.56-5.79c3.92-3.4,7.73-6.94,11.69-10.28l10.34-9.01
		c2.39-2.1,5.08-4.98,7.85-6.51c0.98-0.54,1.8-0.65,2.9-0.59c0.93,0.05,1.72,0.28,2.49,0.82c2.77,1.96,5.35,4.4,7.94,6.59
		l14.42,12.13l13.71,11.38c1.78,1.47,4.89,3.7,6.29,5.41c2,2.44,1.38,7.03,1.35,9.99c1.9-1.22,3.81-2.4,5.9-3.29
		c5.33-2.3,11.72-2.79,17.38-1.56c1.62,0.35,3.19,0.86,4.76,1.39c-0.74-4.03-1.52-8.08-2.05-12.15c-6.26-0.64-12.51-1.87-18.78-2.32
		c-0.56-3.23-2.94-9.7-5-12.21c2.08-5,4.46-9.95,6.78-14.85c-2.95-2.81-5.8-5.74-8.68-8.63c-1.83-1.83-3.73-3.6-5.51-5.49
		c-4.72,3.04-9.77,5.54-14.51,8.54c-3.45-2.06-7.49-3.99-11.37-5.05c-1.46-5.47-2.7-11.1-3.7-16.66l-22.43-0.02l-3.45,16.67
		c-4.41,0.89-8.35,2.36-12.07,4.92c-4.81-2.82-9.88-5.26-14.58-8.25c-1.5,1.44-2.89,2.97-4.36,4.44c-3.42,3.43-6.89,6.85-10.4,10.18
		c2.74,4.65,5.36,9.37,8.13,14c-2.77,3.5-5.5,8.26-6.51,12.59c-6.1,0.81-12.13,2.03-18.21,2.95l-1.43,14.31
		c-0.21,2.14-0.51,4.32-0.59,6.46c5.69,2.34,11.55,4.49,17.14,7.05C117.67,107.52,118.88,112.09,120.92,115.8z"/>
</g>
</svg>
