<?xml version="1.0" encoding="utf-8"?>
<!-- Generator: Adobe Illustrator 27.8.1, SVG Export Plug-In . SVG Version: 6.00 Build 0)  -->
<svg version="1.1" xmlns="http://www.w3.org/2000/svg" xmlns:xlink="http://www.w3.org/1999/xlink" x="0px" y="0px"
	 viewBox="0 0 350 230" style="enable-background:new 0 0 350 230;" xml:space="preserve">
<style type="text/css">
	.st0{fill:#E3FFFE;}
	.st1{fill:#FFFDE6;}
	.st2{fill:#FFFCE9;}
	.st3{fill:#EBFFEB;}
	.st4{fill:#163458;}
	.st5{fill:#00B6BF;}
	.st6{fill:#182132;}
	.st7{fill:#783232;}
	.st8{fill:#00E9FF;}
	.st9{fill:#0C1E8C;}
	.st10{fill:#FFC100;}
	.st11{fill:#0C6C00;}
	.st12{fill:#23605B;}
	.st13{fill:#FF7E30;}
	.st14{fill:#00D7FD;}
	.st15{fill:#5C00A2;}
	.st16{fill-rule:evenodd;clip-rule:evenodd;}
	.st17{fill:#20B700;}
	.st18{fill:none;}
	.st19{fill:#FFFFFF;}
	.st20{fill:#B000AB;}
	.st21{fill:#FA9720;}
	.st22{fill:#DA1300;}
	.st23{fill:#00F2FF;}
	.st24{fill:#00416A;}
	.st25{fill:#00FFE9;}
	.st26{fill:#017F2E;}
	.st27{fill:#0D302D;}
	.st28{fill:#00FFF2;}
	.st29{fill:#003CAC;}
	.st30{fill:#396D7A;}
	.st31{fill:#440044;}
	.st32{fill:#003D36;}
	.st33{fill:#CBA400;}
	.st34{fill-rule:evenodd;clip-rule:evenodd;fill:#FFFDF7;}
	.st35{fill-rule:evenodd;clip-rule:evenodd;fill:#CCF8FF;}
	.st36{fill-rule:evenodd;clip-rule:evenodd;fill:#E5E7EB;}
	.st37{fill-rule:evenodd;clip-rule:evenodd;fill:#F0F1F5;}
	.st38{fill-rule:evenodd;clip-rule:evenodd;fill:#E6DCD5;}
	.st39{fill-rule:evenodd;clip-rule:evenodd;fill:#FEFCF7;}
	.st40{fill-rule:evenodd;clip-rule:evenodd;fill:#E5F5FB;}
	.st41{fill-rule:evenodd;clip-rule:evenodd;fill:#E9E9E9;}
	.st42{fill-rule:evenodd;clip-rule:evenodd;fill:#F1F8FF;}
	.st43{fill-rule:evenodd;clip-rule:evenodd;fill:#F2F2F2;}
	.st44{fill-rule:evenodd;clip-rule:evenodd;fill:#FFFFFF;}
	.st45{fill-rule:evenodd;clip-rule:evenodd;fill:#EBFDFF;}
	.st46{fill-rule:evenodd;clip-rule:evenodd;fill:url(#SVGID_1_);}
	.st47{fill-rule:evenodd;clip-rule:evenodd;fill:#404041;}
	.st48{fill:url(#SVGID_00000021832607807074491740000014340227150678062234_);}
	.st49{fill:url(#SVGID_00000137819363741755401840000003606618712112268205_);}
	.st50{fill:url(#SVGID_00000070811244855552070880000010927628075640402865_);}
	.st51{fill:url(#SVGID_00000098908245263272985950000003918968418405275569_);}
	.st52{fill:url(#SVGID_00000092442132527402321790000013376206011271363739_);}
	.st53{fill:url(#SVGID_00000023995280844023336150000005549342868197591183_);}
	.st54{fill:url(#SVGID_00000083779987749960945870000006234036282281037222_);}
	.st55{fill:url(#SVGID_00000150788968102635464760000010162327101043029902_);}
	.st56{fill:url(#SVGID_00000020388128713940268320000002631585953431142836_);}
	.st57{fill:url(#SVGID_00000164515640430838155100000013989243418554816442_);}
	.st58{fill:url(#SVGID_00000168795862729847577030000002003893516157047477_);}
	.st59{fill:url(#SVGID_00000050637417717049607100000009238497791142230933_);}
	.st60{fill:url(#SVGID_00000156553890432155676830000011418493118641175221_);}
	.st61{fill:url(#SVGID_00000034801905020868541880000003559591861839746228_);}
	.st62{fill:url(#SVGID_00000027562653356530922540000008214179388943447963_);}
	.st63{fill:url(#SVGID_00000035491277209735107280000015115105210645502901_);}
	.st64{fill:url(#SVGID_00000153663452304147700680000003000034894256108694_);}
	.st65{fill:#324405;}
	.st66{fill:#0C2948;}
	.st67{fill:#F0AF47;}
	.st68{fill:#FEFEFE;}
	.st69{fill:#F6D89A;}
	.st70{fill:url(#SVGID_00000170982905142047338890000004183696924939813765_);}
	.st71{fill:url(#SVGID_00000069389143439374443180000017103609030205986448_);}
	.st72{fill:url(#SVGID_00000094590442527269859080000003995623456533074343_);}
	.st73{fill:url(#SVGID_00000127757622097805793210000007696081105203164825_);}
	.st74{fill:url(#SVGID_00000030477417584230319510000008661785112931472557_);}
	.st75{fill:url(#SVGID_00000125580844712139178960000008324547862763148423_);}
	.st76{fill:#058CB6;}
	.st77{fill:#173B71;}
	.st78{fill:url(#SVGID_00000173133368802366943050000010103629731421196952_);}
	.st79{fill:url(#SVGID_00000017505430977917276690000002062595962463428244_);}
	.st80{fill:url(#SVGID_00000034786459810190063070000009920312580929106097_);}
	.st81{fill:url(#SVGID_00000153679032285237036240000009860674686195948478_);}
	.st82{fill:#031D41;}
	.st83{fill:#007AE8;}
	.st84{fill:#FBA122;}
	.st85{fill:#F9D190;}
	.st86{fill:url(#SVGID_00000113331451519510063070000002234922327207036559_);}
	.st87{fill:url(#SVGID_00000129178451082083072510000011410395627411142029_);}
	.st88{fill:#1E6D8C;}
	.st89{fill:#3C3C3E;}
	.st90{fill:#C06B2A;}
	.st91{fill:#136185;}
	.st92{fill:#0A2F4B;}
	.st93{fill:#F3AC27;}
	.st94{fill:#5EB557;}
	.st95{fill:#0B4D8C;}
	.st96{fill:#A500B9;}
	.st97{fill:#2E3F51;}
	.st98{fill:#EA0A0A;}
	.st99{fill-rule:evenodd;clip-rule:evenodd;fill:#0591A3;}
	.st100{fill-rule:evenodd;clip-rule:evenodd;fill:#515150;}
	.st101{fill-rule:evenodd;clip-rule:evenodd;fill:#DADADA;}
	.st102{fill-rule:evenodd;clip-rule:evenodd;fill:#00BACF;}
	.st103{fill-rule:evenodd;clip-rule:evenodd;fill:#FA6105;}
	.st104{fill-rule:evenodd;clip-rule:evenodd;fill:#FCA605;}
	.st105{fill-rule:evenodd;clip-rule:evenodd;fill:#FAA300;}
	.st106{fill-rule:evenodd;clip-rule:evenodd;fill:#FADB24;}
	.st107{fill:#0071BC;}
	.st108{fill:#052130;}
	.st109{fill:#333333;}
	.st110{fill:#012061;}
	.st111{fill:#EC8D06;}
	.st112{fill:#003756;}
	.st113{fill:#F7931E;}
	.st114{fill:#EA9D1C;}
	.st115{fill:#C7DF20;}
	.st116{fill:#F2A538;}
	.st117{fill:#159FE2;}
	.st118{fill:#20385F;}
	.st119{fill:#4C4846;}
	.st120{fill:#E5841A;}
	.st121{fill:#F3A337;}
</style>
<g id="Layer_1">
</g>
<g id="Layer_2">
</g>
<g id="Layer_3">
</g>
<g id="Layer_4">
</g>
<g id="Layer_5">
</g>
<g id="Layer_6">
</g>
<g id="Layer_7">
</g>
<g id="Layer_8">
</g>
<g id="Layer_9">
</g>
<g id="Layer_10">
</g>
<g id="Layer_11">
</g>
<g id="Layer_12">
</g>
<g id="Layer_13">
</g>
<g id="Layer_14">
</g>
<g id="_x31_-15">
	<path class="st114" d="M205.75,53.71c-1.72,1.96-3.12,3.85-4.83,5.4c-1.14,1.03-2.63,1.85-4.11,2.3c-2.26,0.69-3.6,1.48-3.22,4.32
		c0.17,1.26-1.05,2.83-1.89,4.08c-0.93,1.37-2.16,2.54-3.42,3.99c-1.25-2.98-1.88-6.66-6.22-5.29c-3.63,1.14-5.25,3.69-4.02,7.47
		c-7.71,3.28-18.24,20.5-16.16,26.24c-1,0.53-2.01,1.06-3.21,1.69c-14.65-16.49-29.29-32.97-44.23-49.79
		c-10.16,13.49-20.13,26.72-30.11,39.96c-0.17-0.09-0.34-0.18-0.51-0.27c0.41-0.78,0.76-1.6,1.25-2.33
		c9.23-13.81,18.54-27.57,27.64-41.46c1.58-2.4,2.93-2.89,5.63-1.98c14.26,4.78,28.58,9.34,43.24,14.1c0.2-1.9,0.37-3.51,0.56-5.32
		c3.1,0.36,4.82,1.65,4.5,4.97c-0.06,0.67,0.23,1.61,0.7,2.07c2.29,2.22,8.78,2.56,11.42,0.7c7.85-5.54,15.63-11.17,23.59-16.54
		c1.22-0.82,3.47-1.1,4.84-0.57c12.35,4.76,24.61,9.73,36.86,14.73c0.91,0.37,2.3,1.53,2.21,2.13c-0.87,5.59,3.76,6.99,7.32,10.26
		c0-6.35,0-11.96,0-17.74c3.7,0.34,4.99,1.96,4.79,5.35c-0.26,4.53-0.09,9.08-0.04,13.63c0.01,1.15,0.24,2.3,0.37,3.45
		c0.45,0,0.89-0.01,1.34-0.01c0-3.07,0-6.13,0-9.2c0.41-0.29,0.82-0.58,1.22-0.87c3.28,2.07,7.04,3.65,9.77,6.29
		c8.86,8.57,17.35,17.53,25.97,26.35c0.87,0.89,1.66,1.85,2.92,3.26c-1.73,0.09-2.83,0.2-3.93,0.2c-13.5,0.01-27.01,0.11-40.51-0.1
		c-1.89-0.03-4.29-1.07-5.56-2.46C236.1,87.58,222.45,72.27,208.76,57C207.81,55.95,206.85,54.92,205.75,53.71z M94.43,63.09
		c2.36-5.51,4.72-11.03,7.09-16.54c-0.18-0.09-0.35-0.17-0.53-0.26c-3.21,5.1-6.43,10.2-9.64,15.3c-0.24-0.13-0.48-0.26-0.71-0.39
		c1-6.01,2.01-12.02,3.01-18.03c-0.17-0.04-0.35-0.08-0.52-0.12c-1.92,5.76-3.85,11.52-5.77,17.29c-0.27-0.04-0.55-0.09-0.82-0.13
		c-0.49-6.13-0.98-12.26-1.47-18.39c-0.14,0-0.27,0-0.41,0c-0.52,6.23-1.04,12.45-1.56,18.68c-0.24,0-0.48,0.01-0.72,0.01
		c-1.94-5.85-3.88-11.69-5.82-17.54c-0.17,0.05-0.35,0.09-0.52,0.14c1.02,6.1,2.04,12.2,3.05,18.3c-0.21,0.1-0.43,0.2-0.64,0.3
		c-3-4.74-6.01-9.48-9.01-14.22c-0.23,0.11-0.45,0.21-0.68,0.32c2.19,5.14,4.37,10.29,6.56,15.43c-0.51,0.43-1.02,0.86-1.54,1.29
		c-3.81-4.62-7.63-9.25-11.44-13.87c-0.33,0.32-0.66,0.64-0.99,0.97c3.65,4.84,7.3,9.68,10.95,14.52c-0.17,0.14-0.35,0.28-0.52,0.41
		c-5.15-2.98-10.29-5.96-15.44-8.94c-0.1,0.18-0.21,0.36-0.31,0.54c4.59,3.76,9.19,7.52,13.78,11.28c-0.13,0.18-0.26,0.36-0.39,0.55
		c-5.42-1.58-10.85-3.15-16.27-4.73c-0.09,0.22-0.17,0.44-0.26,0.65c5.08,2.44,10.15,4.87,15.23,7.31c-0.1,0.24-0.21,0.49-0.31,0.73
		c-5.94-0.28-11.89-0.56-17.83-0.85c-0.03,0.2-0.06,0.4-0.09,0.6c5.86,1.19,11.73,2.38,17.59,3.58c0.02,0.24,0.04,0.48,0.06,0.73
		c-6.07,1.26-12.15,2.52-18.87,3.91c6.95,0,13.16,0,20.06,0c-5.9,2.78-11.14,5.24-16.38,7.71c0.09,0.21,0.18,0.42,0.27,0.63
		c5.55-1.61,11.09-3.22,16.64-4.84c0.11,0.22,0.23,0.44,0.34,0.66c-4.34,3.56-8.68,7.12-13.02,10.68c0.14,0.18,0.29,0.36,0.43,0.54
		c4.93-2.84,9.85-5.68,14.78-8.52c0.13,0.2,0.26,0.39,0.4,0.59c-3.21,4.29-6.42,8.58-9.62,12.87c0.47,0.44,0.94,0.88,1.41,1.33
		c3.28-4.21,6.56-8.41,9.83-12.62c0.5,0.42,1,0.85,1.5,1.27c-2.08,4.86-4.17,9.72-6.25,14.58c0.2,0.1,0.4,0.19,0.61,0.29
		C82.77,88.4,95.9,69.7,109.02,51c-0.3-0.27-0.61-0.54-0.91-0.82c-4.12,4.63-8.25,9.25-12.37,13.88
		C95.3,63.74,94.86,63.42,94.43,63.09z M171.57,106.89c0,13.16,0,26.32,0,39.48c0.23,0.02,0.46,0.04,0.69,0.06
		c0.39-2.34,0.78-4.68,1.19-7.17c4.62,0,8.96,0,13.35,0c0.34,2.57,0.65,4.89,0.96,7.21c0.39-0.04,0.79-0.08,1.18-0.13
		c0-1.38,0.06-2.77-0.01-4.15c-0.47-9.78-1.07-19.55-1.41-29.33c-0.16-4.51,0.43-9.05,0.24-13.56c-0.29-6.77,1.24-12.78,6.01-18.16
		c-0.59-1.14-1.33-2.58-2.06-3.99c-3.38,0.51-6.44,0.97-9.5,1.44c2.96-1.38,3.82-3.8,3.42-6.57c-0.11-0.78-1.85-2.01-2.68-1.9
		c-4.86,0.66-3.2,4.62-4.18,6.8c-2.4,2.11-4.79,4.22-7.59,6.68c1.58,0.66,2.07,0.82,2.52,1.06c4.43,2.33,4.4,2.31,1.47,6.37
		c-0.43,0.59-0.44,1.48-0.77,2.69c1.58-0.67,2.61-1.1,3.64-1.53c0.07,0.14,0.13,0.28,0.2,0.42c-1.32,1.22-2.63,2.44-3.85,3.56
		c-0.38,4.73-0.75,9.36-1.22,15.15c-0.34-2.24-0.51-3.37-0.68-4.5C172.18,106.85,171.87,106.87,171.57,106.89z M177.32,129.97
		c1.3,0.09,2.4,0.17,3.66,0.26c0.37,2.39,0.71,4.64,1.11,7.23c-3.32,0-6.19,0-9.1,0c0.77-4.46,1.74-4.96,4.71-2.55
		C177.57,133.32,177.46,131.79,177.32,129.97z M181.96,121.4c-0.25,2.14-0.49,4.12-0.75,6.4c-1.28,0.11-2.48,0.21-3.84,0.33
		c0-2.45,0-4.65,0-6.94C178.94,121.27,180.21,121.33,181.96,121.4z M181.31,119.56c-1.5,0-2.6,0-4.09,0
		c0.79-3.44,1.54-6.73,2.3-10.02c0.29,0.01,0.57,0.02,0.86,0.04C180.68,112.82,180.98,116.06,181.31,119.56z M147.69,98.26
		c-11.09-12.58-22.18-25.15-33.59-38.09c-11.35,15.05-22.42,29.74-33.76,44.77c5.04,0,9.27,0,13.91,0c0-1.75-0.09-3.29,0.02-4.81
		c0.13-1.77-0.14-3.96,0.78-5.22c6.38-8.63,13.03-17.07,19.79-25.83c10.9,10.1,21.53,19.94,32.17,29.78
		C147.24,98.67,147.47,98.47,147.69,98.26z M297.92,108.26c-35.29,0-70.57,0-105.86,0c-0.65,0-1.35-0.12-1.93,0.09
		c-0.49,0.18-1.21,0.85-1.14,1.15c0.13,0.58,0.66,1.38,1.17,1.51c0.98,0.25,2.06,0.12,3.09,0.12c34.25,0,68.5,0,102.74,0
		c0.91,0,1.92,0.24,2.69-0.09c0.77-0.33,1.29-1.23,2.64-2.61C299.2,108.32,298.56,108.26,297.92,108.26z M160.67,109.46
		c-1.25-0.4-2.49-1.14-3.74-1.15c-24.49-0.07-48.98-0.05-73.47-0.05c-0.52,0-1.13-0.17-1.53,0.05c-0.66,0.36-1.17,0.97-1.75,1.47
		c0.51,0.45,0.96,1.1,1.56,1.29c0.71,0.23,1.54,0.07,2.32,0.07c24.23,0,48.46,0,72.69,0c1.14,0,2.28-0.1,3.42-0.15
		C160.33,110.47,160.5,109.97,160.67,109.46z M241.95,100.45c0.13-0.13,0.26-0.26,0.39-0.39c-11.94-13.52-23.87-27.05-36.47-41.32
		c-0.43,1.95-0.68,3.05-0.9,4.15c-0.17,0.84-0.02,1.89-0.47,2.51c-2.15,2.95-2.2,2.91-0.77,6.84c1.12-1.29,2.19-2.54,3.45-4
		C218.85,79.06,230.4,89.76,241.95,100.45z M166.56,99.43c0.72-1.62,0.46-3.68,0.74-6.51c0.31-0.37,1.35-1.65,2.92-3.57
		c-3.52,0.95-8.04,8.1-6.88,10.66c1.36,3.02,0.09,4.11-2.11,4.84c0.24,2.01,0.02,3.9,0.77,5.25c0.62,1.1,2.41,1.54,4.08,2.5
		c-0.51-2.89-0.83-4.71-1.17-6.64c1.47-0.34,2.52-0.59,3.56-0.83C163.83,104.35,165.38,102.08,166.56,99.43z M201.03,99.92
		c0,1.78,0,3.26,0,4.91c1.8,0,3.37,0,5.14,0c0-1.71,0-3.2,0-4.91C204.21,99.92,202.64,99.92,201.03,99.92z M213.52,99.92
		c-1.87,0-3.46,0-4.99,0c0,1.8,0,3.29,0,4.95c1.7,0,3.18,0,4.99,0C213.52,102.98,213.52,101.41,213.52,99.92z M206.1,92.83
		c-1.84,0-3.41,0-4.96,0c0,1.87,0,3.44,0,5.09c1.72,0,3.11,0,4.96,0C206.1,96.01,206.1,94.44,206.1,92.83z M208.64,97.74
		c1.75,0,3.33,0,4.85,0c0-1.86,0-3.44,0-5.1c-1.73,0-3.13,0-4.85,0C208.64,94.35,208.64,96.03,208.64,97.74z M111.48,100.4
		c0,1.61,0,2.96,0,4.34c1.63,0,2.98,0,4.51,0c0-1.49,0-2.74,0-4.34C114.31,100.4,112.94,100.4,111.48,100.4z M111.49,98.56
		c1.61,0,2.96,0,4.5,0c0-1.52,0-2.85,0-4.43c-1.41-0.07-2.64-0.13-4.5-0.23C111.49,95.66,111.49,97.08,111.49,98.56z M122.35,100.12
		c-1.65,0.09-2.98,0.17-4.49,0.25c0.1,1.77,0.18,3.1,0.25,4.42c1.65,0,2.88,0,4.24,0C122.35,103,122.35,101.68,122.35,100.12z
		 M122.42,94.19c-1.56,0-2.89,0-4.29,0c0,1.57,0,2.91,0,4.4c1.46,0,2.7,0,4.29,0C122.42,96.93,122.42,95.61,122.42,94.19z
		 M199.85,74.01c0.4-0.09,0.81-0.17,1.21-0.26c-0.25-2.2-0.5-4.41-0.75-6.61c-0.39-0.03-0.79-0.07-1.18-0.1
		c-0.76,1.55-1.52,3.1-2.26,4.61C197.99,72.54,198.92,73.27,199.85,74.01z"/>
</g>
</svg>
