<?xml version="1.0" encoding="utf-8"?>
<!-- Generator: Adobe Illustrator 27.8.1, SVG Export Plug-In . SVG Version: 6.00 Build 0)  -->
<svg version="1.1" xmlns="http://www.w3.org/2000/svg" xmlns:xlink="http://www.w3.org/1999/xlink" x="0px" y="0px"
	 viewBox="0 0 350 230" style="enable-background:new 0 0 350 230;" xml:space="preserve">
<style type="text/css">
	.st0{fill:#E3FFFE;}
	.st1{fill:#FFFDE6;}
	.st2{fill:#FFFCE9;}
	.st3{fill:#EBFFEB;}
	.st4{fill:#163458;}
	.st5{fill:#00B6BF;}
	.st6{fill:#182132;}
	.st7{fill:#783232;}
	.st8{fill:#00E9FF;}
	.st9{fill:#0C1E8C;}
	.st10{fill:#FFC100;}
	.st11{fill:#0C6C00;}
	.st12{fill:#23605B;}
	.st13{fill:#FF7E30;}
	.st14{fill:#00D7FD;}
	.st15{fill:#5C00A2;}
	.st16{fill-rule:evenodd;clip-rule:evenodd;}
	.st17{fill:#20B700;}
	.st18{fill:none;}
	.st19{fill:#FFFFFF;}
	.st20{fill:#B000AB;}
	.st21{fill:#FA9720;}
	.st22{fill:#DA1300;}
	.st23{fill:#00F2FF;}
	.st24{fill:#00416A;}
	.st25{fill:#00FFE9;}
	.st26{fill:#017F2E;}
	.st27{fill:#0D302D;}
	.st28{fill:#00FFF2;}
	.st29{fill:#003CAC;}
	.st30{fill:#396D7A;}
	.st31{fill:#440044;}
	.st32{fill:#003D36;}
	.st33{fill:#CBA400;}
	.st34{fill-rule:evenodd;clip-rule:evenodd;fill:#FFFDF7;}
	.st35{fill-rule:evenodd;clip-rule:evenodd;fill:#CCF8FF;}
	.st36{fill-rule:evenodd;clip-rule:evenodd;fill:#E5E7EB;}
	.st37{fill-rule:evenodd;clip-rule:evenodd;fill:#F0F1F5;}
	.st38{fill-rule:evenodd;clip-rule:evenodd;fill:#E6DCD5;}
	.st39{fill-rule:evenodd;clip-rule:evenodd;fill:#FEFCF7;}
	.st40{fill-rule:evenodd;clip-rule:evenodd;fill:#E5F5FB;}
	.st41{fill-rule:evenodd;clip-rule:evenodd;fill:#E9E9E9;}
	.st42{fill-rule:evenodd;clip-rule:evenodd;fill:#F1F8FF;}
	.st43{fill-rule:evenodd;clip-rule:evenodd;fill:#F2F2F2;}
	.st44{fill-rule:evenodd;clip-rule:evenodd;fill:#FFFFFF;}
	.st45{fill-rule:evenodd;clip-rule:evenodd;fill:#EBFDFF;}
	.st46{fill-rule:evenodd;clip-rule:evenodd;fill:url(#SVGID_1_);}
	.st47{fill-rule:evenodd;clip-rule:evenodd;fill:#404041;}
	.st48{fill:url(#SVGID_00000123425495300630551850000003108060752675818645_);}
	.st49{fill:url(#SVGID_00000031897775179801693430000007631971210636051389_);}
	.st50{fill:url(#SVGID_00000122705114332018601090000013882397611630457253_);}
	.st51{fill:url(#SVGID_00000114069373946787360550000003358752201590386306_);}
	.st52{fill:url(#SVGID_00000163758505031149312830000009868262188398648473_);}
	.st53{fill:url(#SVGID_00000111909023242968978280000010686077882176054719_);}
	.st54{fill:url(#SVGID_00000067959135154352641710000003004380529954769342_);}
	.st55{fill:url(#SVGID_00000079458082486176610340000009077072252535767981_);}
	.st56{fill:url(#SVGID_00000060029557531343731170000005429049383008513461_);}
	.st57{fill:url(#SVGID_00000111886858514021044890000006866030384153485484_);}
	.st58{fill:url(#SVGID_00000176758263549439246150000017986687416625730710_);}
	.st59{fill:url(#SVGID_00000065047645968993694460000009145670797738246836_);}
	.st60{fill:url(#SVGID_00000139974222873412753950000001891636621212697228_);}
	.st61{fill:url(#SVGID_00000039851304595085368460000010452947967382941864_);}
	.st62{fill:url(#SVGID_00000131363254468422975490000000473621729075863473_);}
	.st63{fill:url(#SVGID_00000052800300418888461070000007732968920421046710_);}
	.st64{fill:url(#SVGID_00000007417387945960875870000013836957498519142053_);}
	.st65{fill:#324405;}
	.st66{fill:#0C2948;}
	.st67{fill:#F0AF47;}
	.st68{fill:#FEFEFE;}
	.st69{fill:#F6D89A;}
	.st70{fill:url(#SVGID_00000127039608618698345980000012681983939879720087_);}
	.st71{fill:url(#SVGID_00000014593422441969759350000009647431404291124135_);}
	.st72{fill:url(#SVGID_00000156557234556837281970000003411410438478420898_);}
	.st73{fill:url(#SVGID_00000063601710002543116430000004732817299526201220_);}
	.st74{fill:url(#SVGID_00000062903609364726810570000015245621449683707312_);}
	.st75{fill:url(#SVGID_00000057130633557983660810000003125796004362686612_);}
	.st76{fill:#058CB6;}
	.st77{fill:#173B71;}
	.st78{fill:url(#SVGID_00000170960465215810023970000011322674735781187513_);}
	.st79{fill:url(#SVGID_00000129924156480162938650000006809406248385520038_);}
	.st80{fill:url(#SVGID_00000082344407206468459480000007140040773946612098_);}
	.st81{fill:url(#SVGID_00000121248576278666955420000011947965532567517885_);}
	.st82{fill:#031D41;}
	.st83{fill:#007AE8;}
	.st84{fill:#FBA122;}
	.st85{fill:#F9D190;}
	.st86{fill:url(#SVGID_00000153672491656502266390000017800375695022414261_);}
	.st87{fill:url(#SVGID_00000109011964865041593220000015081261831926507173_);}
	.st88{fill:#1E6D8C;}
	.st89{fill:#3C3C3E;}
	.st90{fill:#C06B2A;}
	.st91{fill:#136185;}
	.st92{fill:#0A2F4B;}
	.st93{fill:#F3AC27;}
	.st94{fill:#5EB557;}
	.st95{fill:#0B4D8C;}
	.st96{fill:#A500B9;}
	.st97{fill:#2E3F51;}
	.st98{fill:#EA0A0A;}
	.st99{fill-rule:evenodd;clip-rule:evenodd;fill:#0591A3;}
	.st100{fill-rule:evenodd;clip-rule:evenodd;fill:#515150;}
	.st101{fill-rule:evenodd;clip-rule:evenodd;fill:#DADADA;}
	.st102{fill-rule:evenodd;clip-rule:evenodd;fill:#00BACF;}
	.st103{fill-rule:evenodd;clip-rule:evenodd;fill:#FA6105;}
	.st104{fill-rule:evenodd;clip-rule:evenodd;fill:#FCA605;}
	.st105{fill-rule:evenodd;clip-rule:evenodd;fill:#FAA300;}
	.st106{fill-rule:evenodd;clip-rule:evenodd;fill:#FADB24;}
	.st107{fill:#0071BC;}
	.st108{fill:#052130;}
	.st109{fill:#333333;}
	.st110{fill:#012061;}
	.st111{fill:#EC8D06;}
	.st112{fill:#003756;}
	.st113{fill:#F7931E;}
	.st114{fill:#EA9D1C;}
	.st115{fill:#C7DF20;}
	.st116{fill:#F2A538;}
	.st117{fill:#159FE2;}
	.st118{fill:#20385F;}
	.st119{fill:#4C4846;}
	.st120{fill:#E5841A;}
	.st121{fill:#F3A337;}
</style>
<g id="Layer_1">
</g>
<g id="Layer_2">
</g>
<g id="Layer_3">
</g>
<g id="Layer_4">
</g>
<g id="Layer_5">
</g>
<g id="Layer_6">
</g>
<g id="Layer_7">
</g>
<g id="Layer_8">
</g>
<g id="Layer_9">
</g>
<g id="Layer_10">
</g>
<g id="Layer_11">
</g>
<g id="Layer_12">
</g>
<g id="Layer_13">
</g>
<g id="Layer_14">
</g>
<g id="_x31_-15">
	<g>
		<path class="st114" d="M218.31,49.28l-17.2-17.24c-4.73-4.82-9.42-9.83-14.37-14.41c-3.02,2.85-5.88,5.96-8.77,8.95
			c-2.25,2.32-4.6,4.56-6.76,6.96c-2.3,1.84-4.41,4.44-6.51,6.55c-6.67,6.69-13.08,13.71-19.89,20.26c-2.98,3.2-6.22,6.14-9.08,9.45
			c-3.3,3.48-6.72,6.85-10.08,10.28c-2.51,2.55-4.95,5.18-7.49,7.72c-4.34,4.33-8.87,8.64-12.92,13.24
			c-0.21,5.78-0.07,11.62-0.08,17.41c2.89-2.71,5.56-5.73,8.35-8.55c6.78-6.86,13.53-13.73,20.18-20.73
			c3.27-3.43,6.71-6.72,10.05-10.1c3.87-3.93,7.65-7.96,11.46-11.94l17.33-17.97l5.58-5.77c1.27-1.29,2.66-2.53,3.82-3.93
			c1.6-1.6,3.29-3.15,4.81-4.83c7.85,7.61,15.47,15.45,23.15,23.22c1.96,1.98,3.93,3.94,5.94,5.87c1.23,1.19,2.62,2.35,3.74,3.65
			c2.68-2.94,5.38-5.87,8.14-8.74C224.46,55.66,221.42,52.4,218.31,49.28z M132.67,48.06c-3.24,3.6-6.75,6.99-10.12,10.47
			l-22.12,22.65l-7.46,7.6c-1.56,1.58-3.24,3.12-4.66,4.83c0.02,12.39,0.22,24.83-0.05,37.21c3.9-2.17,7.75-4.44,11.71-6.5
			l-0.02-16.88c-0.01-2.74,0.21-5.69-0.08-8.41c8.47-8.33,16.71-16.9,25.06-25.35c2.47-2.5,4.82-5.13,7.35-7.58
			c1.14,1.22,2.23,2.55,3.45,3.7c2.86-3.31,6.1-6.25,9.08-9.45C140.9,56.34,136.81,51.78,132.67,48.06z M269.76,165.93
			c-3.81-2.25-7.62-4.39-11.58-6.37c-4.8-2.41-9.65-4.73-14.63-6.75c-22.12-9-46.26-13.64-70.13-13.57
			c-30.83,0.62-59.29,7.94-86.34,22.74c-4.08,2.23-8.27,4.41-12.11,7.03c6.32-2.55,12.53-5.36,18.97-7.63
			c22.42-7.88,45.91-12.5,69.63-13.69c4.61-0.23,9.28-0.46,13.89-0.34c33.92,0.78,67.13,8.08,98.02,22.19
			C273.71,168.18,271.67,167.07,269.76,165.93z"/>
		<path class="st6" d="M163.37,100.85l10.95,0.02l-0.01,10.98l-10.97,0.01C163.34,108.21,163.15,104.48,163.37,100.85z
			 M175.54,100.89l0,7.14c0,1.19-0.14,2.57,0.08,3.74c0.35,0.11,0.61,0.1,0.97,0.09c3.37,0,6.75-0.02,10.12,0.02
			c-0.01-1.78,0.23-10.01-0.07-10.95c-0.4-0.13-0.74-0.1-1.15-0.08L175.54,100.89z M163.36,124.3l10.97-0.01l0-11.2l-10.98,0
			C163.29,116.83,163.34,120.57,163.36,124.3z M175.53,124.29l11.2,0l-0.07-11.16l-11.13-0.02L175.53,124.29z M234.73,51.31
			c-2.33,2.45-4.6,4.97-7.02,7.33c-2.76,2.86-5.46,5.79-8.14,8.74l-3.76,3.99c3.94,4.18,8.03,8.2,11.95,12.39
			c2.03,2.36,4.26,4.74,6.49,6.91c0.35,0.3,0.7,0.64,1.14,0.79c1.04,1.92,3.7,4.12,5.3,5.65c0.34,0.49,0.65,0.88,1.12,1.25
			c0.22-10.48,0.13-20.99,0.1-31.47c1.96,2.06,4.03,4.09,5.82,6.31c0.27,16.34-0.16,32.7,0.05,49.04c1.49,1.14,3.28,2.04,4.88,3.03
			c2.54,1.57,5.02,3.26,7.66,4.67c-0.28-19.86-0.02-39.74-0.07-59.6l-22.38-22.25C236.76,49.04,235.75,50.23,234.73,51.31z
			 M123.44,108.24l-12.89,13.03c-1.85,1.88-4,4.55-6.09,6.08c-1.39,1.02-3.03,1.82-4.53,2.68l-8.41,4.8
			c-9.45,5.37-18.93,10.68-28.29,16.22c-3.24,1.92-6.69,3.67-9.81,5.76c13.89-4.98,27.69-10.22,41.5-15.41l9.65-3.64
			c1.42-0.54,3.19-0.96,4.45-1.81c1.45-0.99,2.71-2.51,3.94-3.77l5.6-5.7l24.48-25.02l17.48-17.65c3.91-3.96,7.75-7.99,11.74-11.87
			c0.41-0.4,2.53-2.74,2.91-2.57l49.75,50.34l11.02,11.15c1.25,1.26,3.43,3.83,4.81,4.65c1.65,0.98,3.54,1.7,5.3,2.43
			c3.58,1.48,7.21,2.84,10.82,4.23c13.19,5.07,26.55,9.71,39.71,14.87c-1.86-1.31-3.88-2.42-5.85-3.56l-8.26-4.78l-25.96-15.18
			l-6.86-4.08c-1.46-0.87-2.98-1.71-4.34-2.72c-2.58-1.91-5.88-5.68-8.22-8.1l-13.12-13.43l-48.98-49.73L123.44,108.24z"/>
		<path class="st114" d="M242.55,104.27c0.01,3.83-0.03,7.65-0.08,11.47c-1.51-1.37-2.92-2.89-4.36-4.34l-10.08-10.29l-33.88-34.29
			l-10.24-10.47c-1.74-1.77-3.49-3.77-5.45-5.28c2.89-2.88,5.75-5.77,8.52-8.76c4.28,4.77,8.99,9.25,13.56,13.74
			c5.15,5.04,10.25,10.15,15.28,15.31c3.93,4.18,8.03,8.2,11.95,12.39c2.03,2.36,4.26,4.74,6.49,6.91c0.36,0.3,0.7,0.64,1.15,0.79
			c1.03,1.92,3.69,4.12,5.29,5.65c0.34,0.49,0.65,0.88,1.12,1.25c0.02,0.02,0.05,0.02,0.07,0.04c0.31,0.3,0.46,0.62,0.54,1.04
			C242.71,100.95,242.54,102.73,242.55,104.27z M234.22,66.93c-2.1,2.35-4.5,4.46-6.49,6.89l0.04,9.93
			c2.03,2.36,4.26,4.74,6.49,6.91L234.22,66.93z M238.1,62.54c-0.93,0.95-1.82,1.94-2.7,2.94l0.01,25.97
			c1.03,1.92,3.69,4.12,5.29,5.65V65.44C239.85,64.46,238.99,63.48,238.1,62.54z"/>
	</g>
</g>
</svg>
