<?xml version="1.0" encoding="utf-8"?>
<!-- Generator: Adobe Illustrator 27.8.1, SVG Export Plug-In . SVG Version: 6.00 Build 0)  -->
<svg version="1.1" xmlns="http://www.w3.org/2000/svg" xmlns:xlink="http://www.w3.org/1999/xlink" x="0px" y="0px"
	 viewBox="0 0 350 230" style="enable-background:new 0 0 350 230;" xml:space="preserve">
<style type="text/css">
	.st0{fill:#E3FFFE;}
	.st1{fill:#FFFDE6;}
	.st2{fill:#FFFCE9;}
	.st3{fill:#EBFFEB;}
	.st4{fill:#163458;}
	.st5{fill:#00B6BF;}
	.st6{fill:#182132;}
	.st7{fill:#783232;}
	.st8{fill:#00E9FF;}
	.st9{fill:#0C1E8C;}
	.st10{fill:#FFC100;}
	.st11{fill:#0C6C00;}
	.st12{fill:#23605B;}
	.st13{fill:#FF7E30;}
	.st14{fill:#00D7FD;}
	.st15{fill:#5C00A2;}
	.st16{fill-rule:evenodd;clip-rule:evenodd;}
	.st17{fill:#20B700;}
	.st18{fill:none;}
	.st19{fill:#FFFFFF;}
	.st20{fill:#B000AB;}
	.st21{fill:#FA9720;}
	.st22{fill:#DA1300;}
	.st23{fill:#00F2FF;}
	.st24{fill:#00416A;}
	.st25{fill:#00FFE9;}
	.st26{fill:#017F2E;}
	.st27{fill:#0D302D;}
	.st28{fill:#00FFF2;}
	.st29{fill:#003CAC;}
	.st30{fill:#396D7A;}
	.st31{fill:#440044;}
	.st32{fill:#003D36;}
	.st33{fill:#CBA400;}
	.st34{fill-rule:evenodd;clip-rule:evenodd;fill:#FFFDF7;}
	.st35{fill-rule:evenodd;clip-rule:evenodd;fill:#CCF8FF;}
	.st36{fill-rule:evenodd;clip-rule:evenodd;fill:#E5E7EB;}
	.st37{fill-rule:evenodd;clip-rule:evenodd;fill:#F0F1F5;}
	.st38{fill-rule:evenodd;clip-rule:evenodd;fill:#E6DCD5;}
	.st39{fill-rule:evenodd;clip-rule:evenodd;fill:#FEFCF7;}
	.st40{fill-rule:evenodd;clip-rule:evenodd;fill:#E5F5FB;}
	.st41{fill-rule:evenodd;clip-rule:evenodd;fill:#E9E9E9;}
	.st42{fill-rule:evenodd;clip-rule:evenodd;fill:#F1F8FF;}
	.st43{fill-rule:evenodd;clip-rule:evenodd;fill:#F2F2F2;}
	.st44{fill-rule:evenodd;clip-rule:evenodd;fill:#FFFFFF;}
	.st45{fill-rule:evenodd;clip-rule:evenodd;fill:#EBFDFF;}
	.st46{fill-rule:evenodd;clip-rule:evenodd;fill:url(#SVGID_1_);}
	.st47{fill-rule:evenodd;clip-rule:evenodd;fill:#404041;}
	.st48{fill:url(#SVGID_00000029728428282033995690000018295138519142709395_);}
	.st49{fill:url(#SVGID_00000145024650394440640520000003419128844423198880_);}
	.st50{fill:url(#SVGID_00000105395561798431144620000016362411853274202263_);}
	.st51{fill:url(#SVGID_00000046324738160806684880000005542232973311651733_);}
	.st52{fill:url(#SVGID_00000118359230819851636050000014329946706569676456_);}
	.st53{fill:url(#SVGID_00000031912080086602246860000001493575252466651303_);}
	.st54{fill:url(#SVGID_00000020365128724043929070000009015507701034042014_);}
	.st55{fill:url(#SVGID_00000121271554293801417500000006391188142049436335_);}
	.st56{fill:url(#SVGID_00000086681856226157445330000004174785764542611601_);}
	.st57{fill:url(#SVGID_00000124840537042096797190000016240791688126263207_);}
	.st58{fill:url(#SVGID_00000101814322099948226030000010151882675335689915_);}
	.st59{fill:url(#SVGID_00000089556476532543840250000017108268502309551763_);}
	.st60{fill:url(#SVGID_00000093869714943195407880000016256026089980790418_);}
	.st61{fill:url(#SVGID_00000081629078080208069740000007470021238524018304_);}
	.st62{fill:url(#SVGID_00000048484900588616451900000009421679059236835504_);}
	.st63{fill:url(#SVGID_00000029022640835413707350000011413851172464309389_);}
	.st64{fill:url(#SVGID_00000129914075937278348690000008047735203266184576_);}
	.st65{fill:#324405;}
	.st66{fill:#0C2948;}
	.st67{fill:#F0AF47;}
	.st68{fill:#FEFEFE;}
	.st69{fill:#F6D89A;}
	.st70{fill:url(#SVGID_00000099662300356410452320000006478814072988866697_);}
	.st71{fill:url(#SVGID_00000114796099013752595830000013805542242465022342_);}
	.st72{fill:url(#SVGID_00000101095143722934076750000000424192895665376676_);}
	.st73{fill:url(#SVGID_00000136398729955862578850000008562067934245723835_);}
	.st74{fill:url(#SVGID_00000006687698652846022240000011974785275910267821_);}
	.st75{fill:url(#SVGID_00000079443580126722964260000009550344402384931768_);}
	.st76{fill:#058CB6;}
	.st77{fill:#173B71;}
	.st78{fill:url(#SVGID_00000064316926118209382390000000841479635029003180_);}
	.st79{fill:url(#SVGID_00000050639988130710902580000001160804150109818256_);}
	.st80{fill:url(#SVGID_00000137128478871819345350000010385993128598783407_);}
	.st81{fill:url(#SVGID_00000000935853192053453100000007740187461865299621_);}
	.st82{fill:#031D41;}
	.st83{fill:#007AE8;}
	.st84{fill:#FBA122;}
	.st85{fill:#F9D190;}
	.st86{fill:url(#SVGID_00000094593312295782708200000003667707185911290021_);}
	.st87{fill:url(#SVGID_00000067199429161175241420000006376973340941814680_);}
	.st88{fill:#1E6D8C;}
	.st89{fill:#3C3C3E;}
	.st90{fill:#C06B2A;}
	.st91{fill:#136185;}
	.st92{fill:#0A2F4B;}
	.st93{fill:#F3AC27;}
	.st94{fill:#5EB557;}
	.st95{fill:#0B4D8C;}
	.st96{fill:#A500B9;}
	.st97{fill:#2E3F51;}
	.st98{fill:#EA0A0A;}
	.st99{fill-rule:evenodd;clip-rule:evenodd;fill:#0591A3;}
	.st100{fill-rule:evenodd;clip-rule:evenodd;fill:#515150;}
	.st101{fill-rule:evenodd;clip-rule:evenodd;fill:#DADADA;}
	.st102{fill-rule:evenodd;clip-rule:evenodd;fill:#00BACF;}
	.st103{fill-rule:evenodd;clip-rule:evenodd;fill:#FA6105;}
	.st104{fill-rule:evenodd;clip-rule:evenodd;fill:#FCA605;}
	.st105{fill-rule:evenodd;clip-rule:evenodd;fill:#FAA300;}
	.st106{fill-rule:evenodd;clip-rule:evenodd;fill:#FADB24;}
	.st107{fill:#0071BC;}
	.st108{fill:#052130;}
	.st109{fill:#333333;}
	.st110{fill:#012061;}
	.st111{fill:#EC8D06;}
	.st112{fill:#003756;}
	.st113{fill:#F7931E;}
	.st114{fill:#EA9D1C;}
	.st115{fill:#C7DF20;}
	.st116{fill:#F2A538;}
	.st117{fill:#159FE2;}
	.st118{fill:#20385F;}
	.st119{fill:#4C4846;}
	.st120{fill:#E5841A;}
	.st121{fill:#F3A337;}
</style>
<g id="Layer_1">
</g>
<g id="Layer_2">
</g>
<g id="Layer_3">
</g>
<g id="Layer_4">
</g>
<g id="Layer_5">
</g>
<g id="Layer_6">
</g>
<g id="Layer_7">
</g>
<g id="Layer_8">
</g>
<g id="Layer_9">
</g>
<g id="Layer_10">
</g>
<g id="Layer_11">
</g>
<g id="Layer_12">
</g>
<g id="Layer_13">
</g>
<g id="Layer_14">
</g>
<g id="_x31_-15">
	<g>
		<path class="st107" d="M269.01,104.23l-44.09-44.09c-2.23-2.23-5.85-2.23-8.08,0l-5.72,5.73c-2.23,2.23-2.23,5.84,0,8.07
			l44.09,44.09c2.23,2.23,5.85,2.23,8.08,0l1.93-1.92l-25.99-25.99l2.16-2.16l25.99,25.99l1.63-1.64
			C271.24,110.08,271.24,106.46,269.01,104.23z M174.55,77.54v21.77h17.9v-2.17C192.45,86.89,184.57,78.45,174.55,77.54z
			 M153.97,101.99v19.97l17.9,0.06v-20.03H153.97z M174.55,101.99v20.04l17.9,0.05v-20.09H174.55z M153.97,97.14v2.17h17.9V77.54
			C161.85,78.45,153.97,86.89,153.97,97.14z M138.95,16.84c-2.47-0.02-4.94,0-7.41-0.01c-0.65-0.01-1.13,0.27-1.42,0.81
			c-0.7,1.32-2.6,3.59-4.66,3.59c-2.67,0.08-4.42-3.31-6.91-3.39c-5.12-0.18-10.23,0.03-15.35-0.01
			c-10.15,0.46-18.39,4.23-25.1,23.64c-0.12,0.38-0.36,0.94,0.11,1.16c1.87,0.83,10.26-13.26,22.09-10.67
			c6.74,1.47,6.82,8.17,6.76,10.8l13.78-0.01c-0.01-1.99-0.01-3.98,0.01-5.97c0.02-2.05,0.66-3.85,2.3-5.22
			c1.13-0.94,2.83-1.1,4.17-0.48c1.29,0.61,2.03,1.7,2.67,2.85c0.4,0.72,0.94,1.02,1.76,1.01c2.37-0.03,4.76-0.02,7.14-0.02
			c1.7,0,2.86-1.12,2.86-2.8c0.01-4.15,0.01-8.31,0.01-12.46C141.76,18.02,140.62,16.86,138.95,16.84z"/>
		<path class="st108" d="M269.66,116.23l-2.28-2.28l-2.16,2.16l2.28,2.28c0.54,0.55,0.54,1.44,0,1.99l-6.49,6.49
			c-0.44,0.44-1.12,0.54-1.67,0.24l-32.91-16.21c-1.18-0.57-2.59-0.34-3.51,0.59l-8.08,8.08l-2.89-2.89l-29.81,29.82h15.73
			l21.83-22.08l-2.7-2.69l8.07-8.07l32.84,16.16c1.73,0.92,3.88,0.6,5.26-0.78l6.49-6.49C271.41,120.81,271.41,117.97,269.66,116.23
			z M107.19,46.16v28.87l13.66-13.66V46.16H107.19z M255.16,159.51l5.84-9.69h13.94c-3.07-4.41-8.17-7.3-13.95-7.3
			c-6.53,0-12.2,3.69-15.04,9.09H101.57c-2.57-3.94-7.02-6.54-12.08-6.54c-7.97,0-14.43,6.46-14.43,14.44
			c0,7.97,6.46,14.43,14.43,14.43c5.06,0,9.51-2.6,12.08-6.54h144.38c2.84,5.4,8.51,9.09,15.04,9.09c5.78,0,10.88-2.89,13.95-7.3
			H261L255.16,159.51z M97.71,164.25l-8.22,4.74l-8.21-4.74v-9.49l8.21-4.74l8.22,4.74V164.25z M181.59,19.22
			c-3.18-3.19-8.36-3.19-11.55,0l-85.59,85.59c-1.53,1.53-2.39,3.61-2.39,5.78v30.84c2.29-0.95,4.8-1.47,7.43-1.47
			c3.16,0,6.21,0.76,8.92,2.15v-28.14l77.41-77.4l29.3,29.3c0.53-1.32,1.32-2.55,2.39-3.62l5.72-5.72c0.99-0.98,2.14-1.76,3.38-2.3
			L181.59,19.22z"/>
	</g>
</g>
</svg>
