<?xml version="1.0" encoding="utf-8"?>
<!-- Generator: Adobe Illustrator 27.8.1, SVG Export Plug-In . SVG Version: 6.00 Build 0)  -->
<svg version="1.1" xmlns="http://www.w3.org/2000/svg" xmlns:xlink="http://www.w3.org/1999/xlink" x="0px" y="0px"
	 viewBox="0 0 350 230" style="enable-background:new 0 0 350 230;" xml:space="preserve">
<style type="text/css">
	.st0{display:none;}
	.st1{fill:#FFEAB3;}
	.st2{fill:#FDD8BB;}
	.st3{fill:#FDC798;}
	.st4{fill:#E3D3C3;}
	.st5{fill:#FFE6B0;}
	.st6{fill:#FEEFC6;}
	.st7{fill:#DBDECD;}
	.st8{fill:#FED8B3;}
	.st9{fill:#CDDECC;}
	.st10{fill:#FECE8C;}
	.st11{fill:#FEE4B1;}
	.st12{fill:#FFCD9A;}
	.st13{fill:#B0F4DB;}
	.st14{fill:#C0E0D1;}
	.st15{fill:#DEE6CF;}
	.st16{fill:#9E0021;}
	.st17{fill:#001E91;}
	.st18{fill:#009E1A;}
	.st19{fill:#8E0073;}
	.st20{fill:#9E9700;}
	.st21{fill:#006B65;}
	.st22{fill:#FF00D1;}
	.st23{fill:#550000;}
	.st24{fill:url(#SVGID_1_);}
	.st25{fill:#163800;enable-background:new    ;}
	.st26{fill:#00E7FF;enable-background:new    ;}
	.st27{fill:#663000;}
	.st28{fill:#00E7FF;}
	.st29{fill:#595700;}
	.st30{fill:#A06433;}
	.st31{fill:#006AC3;}
	.st32{fill:#FF7F00;}
	.st33{fill:#DFC900;}
	.st34{fill:#FF3200;}
	.st35{fill:#3200FF;}
	.st36{fill:#00FFCC;}
	.st37{fill:#4E0017;}
	.st38{fill:#7E00FF;}
	.st39{fill-rule:evenodd;clip-rule:evenodd;fill:#5700FF;}
	.st40{fill-rule:evenodd;clip-rule:evenodd;fill:#840036;}
	.st41{fill:#2B00A0;}
	.st42{fill:#46FF2C;}
	.st43{fill:#002A33;}
	.st44{fill:#007FFF;}
	.st45{fill:#FFFFFF;}
	.st46{fill:url(#SVGID_00000052805706696700202680000010601717202731052417_);}
	.st47{fill:#856024;}
	.st48{fill:#CB9D3E;}
	.st49{fill:#141414;}
	.st50{fill:#F6CF63;}
	.st51{fill:url(#SVGID_00000053515756607067109180000000708253388029803429_);}
	.st52{fill:url(#SVGID_00000181783590430454811320000011915577316149837242_);}
	.st53{fill:#046E56;}
	.st54{fill:#2AA776;}
	.st55{fill:url(#SVGID_00000041991124319899420980000004052869969270034085_);}
	.st56{fill:#A63B2D;}
	.st57{fill:#F5B32B;}
	.st58{fill:#0C427C;}
	.st59{fill:url(#SVGID_00000085947886738673963140000012661752127047655584_);}
	.st60{fill:url(#SVGID_00000064352417517081732440000004485535405593888176_);}
	.st61{fill:url(#SVGID_00000172406964604520501070000007423500427848520632_);}
	.st62{fill:#FEFEFE;}
	.st63{fill:url(#SVGID_00000099648814850847299010000003360531365966757300_);}
	.st64{fill:#0F3058;}
	.st65{fill:url(#SVGID_00000004529115858459554000000012541529748562937264_);}
	.st66{fill:#289CC7;}
	.st67{fill:url(#SVGID_00000077302488752347941400000014824426742519113394_);}
	.st68{fill:#07102A;}
	.st69{fill:#0E2044;}
	.st70{fill:#7D7C7B;}
	.st71{fill:url(#SVGID_00000171718348124066379420000004510001213937414323_);}
	.st72{fill:#AFB4B7;}
	.st73{fill:url(#SVGID_00000161594065444881635920000010362764529708865410_);}
	.st74{fill:#576783;}
	.st75{fill:url(#SVGID_00000155124440340029509430000000620247096509800337_);}
	.st76{fill:#C7C6C5;}
	.st77{fill:url(#SVGID_00000117677530684224067370000000181683164707687315_);}
	.st78{fill:url(#SVGID_00000071561074603545874510000017823679824505964432_);}
	.st79{fill:#172860;}
	.st80{fill:url(#SVGID_00000152226182963966809110000017915690399231463055_);}
	.st81{fill:url(#SVGID_00000143588273952327281130000009501575777115540661_);}
	.st82{fill:#02AEF4;}
	.st83{fill:#EC0D64;}
	.st84{fill:url(#SVGID_00000015341579883293607850000014742915406744640162_);}
	.st85{fill:#58C6D1;}
	.st86{fill:url(#SVGID_00000142889890907823144040000000339344692431587969_);}
	.st87{fill:#4695BF;}
	.st88{fill:#38CEAE;}
	.st89{fill:#2BB374;}
	.st90{fill:#039075;}
	.st91{fill:#191F55;}
	.st92{fill:url(#SVGID_00000005234849051431368950000005777114480338904993_);}
	.st93{fill:url(#SVGID_00000181072824563550371800000004139523441085144500_);}
	.st94{fill:url(#SVGID_00000064343227268423666590000005493934900602389678_);}
	.st95{fill:url(#SVGID_00000040537782358008860330000000777945617753522336_);}
	.st96{fill:url(#SVGID_00000027606779374596669340000012573159012684983451_);}
	.st97{fill:url(#SVGID_00000004527743726483635420000016269219554795671487_);}
	.st98{fill:url(#SVGID_00000074428857943265106090000016040094098024099221_);}
	.st99{fill:url(#SVGID_00000098199824223941542860000003984142178425333414_);}
	.st100{fill:url(#SVGID_00000152956461930799532520000015391778064624111509_);}
	.st101{fill:url(#SVGID_00000101092658444848827490000004377781960890232748_);}
	.st102{fill:url(#SVGID_00000125596733188403886870000011777431471819699357_);}
	.st103{fill:#1B2462;}
	.st104{fill:url(#SVGID_00000076580044879219817170000015555476101989812144_);}
	.st105{fill:#32A6C3;}
	.st106{fill:#82C78D;}
	.st107{fill:#E7952A;}
	.st108{fill:#E9C032;}
	.st109{fill:url(#SVGID_00000043415186311663890590000016348966114184106671_);}
	.st110{fill:url(#SVGID_00000026121096447552379170000010909117594993566352_);}
	.st111{fill:#1F7D44;}
	.st112{fill:#0E7D8D;}
	.st113{fill:#02D6F0;}
	.st114{fill:#123073;}
	.st115{fill:#0396E0;}
	.st116{fill:url(#SVGID_00000062882479012794385950000002395432476019503287_);}
	.st117{fill:url(#SVGID_00000165207349107523364700000004523751449518757023_);}
</style>
<g id="Layer_1" class="st0">
</g>
<g id="Layer_2" class="st0">
</g>
<g id="Layer_3" class="st0">
</g>
<g id="Layer_4" class="st0">
</g>
<g id="Layer_5" class="st0">
</g>
<g id="Layer_6" class="st0">
</g>
<g id="Layer_7" class="st0">
</g>
<g id="Layer_8" class="st0">
</g>
<g id="Layer_9" class="st0">
</g>
<g id="Layer_10" class="st0">
</g>
<g id="Layer_11" class="st0">
</g>
<g id="Layer_12">
</g>
<g id="Layer_13">
</g>
<g id="Layer_14">
</g>
<g id="Layer_15">
	<g>
		<radialGradient id="SVGID_1_" cx="175.4646" cy="97.0725" r="58.5721" gradientUnits="userSpaceOnUse">
			<stop  offset="0" style="stop-color:#D18660"/>
			<stop  offset="0.1441" style="stop-color:#9C6448"/>
			<stop  offset="0.2942" style="stop-color:#6D4632"/>
			<stop  offset="0.4442" style="stop-color:#462D20"/>
			<stop  offset="0.5914" style="stop-color:#271912"/>
			<stop  offset="0.7348" style="stop-color:#120B08"/>
			<stop  offset="0.873" style="stop-color:#040302"/>
			<stop  offset="1" style="stop-color:#000000"/>
		</radialGradient>
		<path class="st24" d="M175.47,57.3c2.23-0.07,4.34,0.57,6.11,1.95c0.12,0.09,0.23,0.18,0.34,0.28s0.22,0.19,0.32,0.29
			c0.11,0.1,0.21,0.2,0.31,0.31c0.1,0.11,0.2,0.21,0.29,0.33c0.09,0.11,0.19,0.22,0.28,0.34c0.09,0.12,0.18,0.23,0.26,0.35
			c0.08,0.12,0.16,0.24,0.24,0.37c0.08,0.12,0.15,0.25,0.22,0.38c0.07,0.13,0.14,0.26,0.2,0.39c0.06,0.13,0.13,0.26,0.18,0.4
			c0.06,0.13,0.11,0.27,0.16,0.41c0.05,0.14,0.1,0.27,0.14,0.41c0.04,0.14,0.09,0.28,0.12,0.42c0.04,0.14,0.07,0.28,0.1,0.43
			c0.03,0.14,0.06,0.29,0.08,0.43c0.02,0.14,0.04,0.29,0.06,0.43c0.53,5.17-5.72,11.77-8.79,15.67l-0.26,0.23
			c-0.09-0.03-0.19-0.05-0.27-0.09c-1.22-0.64-7.11-9.34-7.93-11.03c-0.49-1-0.81-2.06-0.9-3.18c-0.01-0.14-0.02-0.28-0.02-0.42
			c0-0.14,0-0.28,0-0.42c0-0.14,0.01-0.28,0.02-0.42c0.01-0.14,0.02-0.28,0.04-0.42c0.02-0.14,0.04-0.28,0.06-0.42
			c0.02-0.14,0.05-0.28,0.08-0.42c0.03-0.14,0.07-0.28,0.1-0.41c0.04-0.14,0.08-0.27,0.12-0.41c0.04-0.13,0.09-0.27,0.14-0.4
			c0.05-0.13,0.1-0.26,0.16-0.39c0.06-0.13,0.12-0.26,0.18-0.38c0.06-0.13,0.13-0.25,0.2-0.37c0.07-0.12,0.14-0.24,0.22-0.36
			c0.08-0.12,0.15-0.24,0.24-0.35c0.08-0.12,0.17-0.23,0.25-0.34c0.09-0.11,0.18-0.22,0.27-0.33
			C170.54,58.49,172.85,57.5,175.47,57.3z M116.53,47.29l7.97,14.21c11.42,20.66,22.94,41.27,34.57,61.81
			c3.5,6.3,7.13,12.57,10.51,18.94c1,1.89,4.19,8.75,5.13,9.81c-0.3-4.88-0.22-9.82-0.26-14.7c-0.06-9.95-0.07-19.9-0.01-29.86
			c-15.01-15.88-29.93-31.85-44.74-47.93L118.65,47.6c-1.63-1.77-3.29-4-5.13-5.52C114.45,43.85,115.54,45.55,116.53,47.29z
			 M228.31,52.51c-7.6,8.43-15.27,16.79-23,25.11c-6.3,6.84-12.65,13.63-19.05,20.37c-2.95,3.1-5.83,6.33-8.92,9.29
			c0.11,14.93,0.09,29.86-0.04,44.79c3.23-5.39,6.08-11.05,9.08-16.58l9.85-17.76c9.41-16.89,18.71-33.83,27.9-50.84
			c3.44-6.43,6.92-12.83,10.44-19.21c0.45-0.8,2.85-4.5,2.84-5.11C234.48,45.98,231.33,49.19,228.31,52.51z"/>
		
			<radialGradient id="SVGID_00000167395000119143978370000013948371568402129333_" cx="175.9492" cy="83.6156" r="59.9466" gradientUnits="userSpaceOnUse">
			<stop  offset="0" style="stop-color:#FFAE76"/>
			<stop  offset="0.3003" style="stop-color:#FDAC76"/>
			<stop  offset="0.4532" style="stop-color:#F7A475"/>
			<stop  offset="0.5729" style="stop-color:#ED9775"/>
			<stop  offset="0.6754" style="stop-color:#DE8474"/>
			<stop  offset="0.7668" style="stop-color:#CB6B73"/>
			<stop  offset="0.8504" style="stop-color:#B34D71"/>
			<stop  offset="0.9264" style="stop-color:#982A6F"/>
			<stop  offset="0.9974" style="stop-color:#78026D"/>
			<stop  offset="1" style="stop-color:#77006D"/>
		</radialGradient>
		<path style="fill:url(#SVGID_00000167395000119143978370000013948371568402129333_);" d="M224.95,73.13
			c0.47-1.01,1-1.98,1.55-2.95c0.32,1.26,0.72,2.55,0.85,3.85c-0.5-0.4-0.54-1.12-0.77-1.69C225.96,72.45,225.48,72.8,224.95,73.13z
			 M220.6,81.1c0.47,12.59-2.36,23.86-11.16,33.29c-0.56,0.62-1.15,1.21-1.75,1.79c-0.6,0.58-1.22,1.13-1.86,1.67
			c-0.64,0.54-1.3,1.05-1.97,1.54c-0.67,0.49-1.36,0.96-2.06,1.41c-1.43,0.91-3.46,1.72-4.63,2.9c-1.9,1.92-5.13,8.53-6.76,11.23
			c3.07-0.81,6.05-2.18,8.87-3.65c9.17-4.77,17.01-11.47,22.24-20.47c5.3-9.11,7.46-19.4,6.8-29.89c-0.14-2.18-0.26-4.73-0.92-6.81
			c-0.01-0.04-0.04-0.07-0.06-0.1c-0.5-0.4-0.54-1.12-0.77-1.69c-0.62,0.11-1.1,0.47-1.63,0.79
			C223.29,75.62,222.23,78.55,220.6,81.1z M123.18,80.43c-0.05,0.72-0.08,1.43-0.1,2.15c-0.02,0.72-0.02,1.44-0.02,2.15
			c0.01,0.72,0.03,1.43,0.07,2.15c0.04,0.72,0.09,1.43,0.16,2.15c0.07,0.71,0.15,1.43,0.24,2.14c0.1,0.71,0.21,1.42,0.33,2.13
			c0.12,0.71,0.26,1.41,0.41,2.11c0.15,0.7,0.32,1.4,0.5,2.09c0.18,0.69,0.37,1.39,0.58,2.07c0.21,0.69,0.43,1.37,0.67,2.05
			c0.24,0.68,0.49,1.35,0.75,2.02c0.26,0.67,0.54,1.33,0.83,1.99c0.29,0.66,0.59,1.31,0.91,1.95c0.32,0.64,0.64,1.28,0.99,1.91
			c0.34,0.63,0.69,1.26,1.06,1.87c0.37,0.62,0.74,1.23,1.14,1.83c7.01,10.81,17.54,17.62,29.52,21.78l0.94,0.32l0.12-0.08
			c-0.88-2.08-4.32-8.87-5.67-10.36c-1.35-1.49-3.88-2.28-5.58-3.37c-5.99-3.81-11.4-9.44-14.87-15.66
			c-3.24-5.8-5.36-12.44-5.68-19.09c-0.11-2.26,0.32-4.94-0.14-7.13c-0.37-1.8-4.15-8.66-5.4-10.11
			C124.16,73.12,123.45,76.73,123.18,80.43z M136.8,47.93c2.18,1.43,4.37,2.94,6.41,4.56c0.27-0.27,0.54-0.53,0.81-0.79
			c0.27-0.26,0.55-0.51,0.83-0.77c0.28-0.25,0.56-0.5,0.85-0.74c0.29-0.24,0.57-0.49,0.86-0.72c0.29-0.24,0.59-0.47,0.88-0.7
			c0.3-0.23,0.6-0.46,0.9-0.68c0.3-0.22,0.61-0.44,0.92-0.66c0.31-0.22,0.62-0.43,0.93-0.64c0.31-0.21,0.63-0.41,0.95-0.61
			c0.32-0.2,0.64-0.4,0.96-0.59c0.32-0.19,0.65-0.38,0.98-0.57c0.33-0.18,0.66-0.37,0.99-0.54c0.33-0.18,0.67-0.35,1-0.52
			c0.34-0.17,0.67-0.33,1.01-0.49c0.34-0.16,0.68-0.32,1.03-0.47c0.34-0.15,0.69-0.3,1.04-0.44c0.35-0.14,0.7-0.28,1.05-0.42
			c0.35-0.13,0.7-0.27,1.06-0.39c0.35-0.13,0.71-0.25,1.07-0.37c0.36-0.12,0.72-0.23,1.08-0.34c0.36-0.11,0.72-0.21,1.08-0.31
			s0.73-0.2,1.09-0.29c0.36-0.09,0.73-0.18,1.1-0.26c0.37-0.08,0.73-0.16,1.1-0.23c0.37-0.07,0.74-0.14,1.11-0.21
			c0.37-0.06,0.74-0.12,1.11-0.18c0.37-0.05,0.74-0.11,1.12-0.15c0.37-0.05,0.75-0.09,1.12-0.12c0.37-0.04,0.75-0.07,1.12-0.1
			c0.37-0.03,0.75-0.05,1.13-0.07c0.38-0.02,0.75-0.03,1.13-0.04c0.38-0.01,0.75-0.01,1.13-0.01c0.69,0.01,1.39,0.01,2.08,0.06
			c11.78,0.76,22.19,4.98,30.82,13.14c2.22-1.35,4.39-2.8,6.49-4.34c-2.02-1.76-3.96-3.62-6.12-5.21c-0.32-0.23-0.63-0.46-0.95-0.68
			c-0.32-0.22-0.64-0.45-0.97-0.66c-0.32-0.22-0.65-0.43-0.98-0.64c-0.33-0.21-0.66-0.42-1-0.62c-0.33-0.2-0.67-0.4-1.01-0.6
			c-0.34-0.2-0.68-0.39-1.02-0.58c-0.34-0.19-0.69-0.38-1.03-0.56c-0.35-0.18-0.69-0.36-1.04-0.54c-0.35-0.18-0.7-0.35-1.05-0.51
			c-0.35-0.17-0.71-0.33-1.06-0.49c-0.36-0.16-0.72-0.32-1.08-0.47c-0.36-0.15-0.72-0.3-1.08-0.45c-0.36-0.15-0.73-0.29-1.09-0.42
			c-0.37-0.14-0.73-0.27-1.1-0.4c-0.37-0.13-0.74-0.26-1.11-0.38c-0.37-0.12-0.74-0.24-1.12-0.35c-0.37-0.11-0.75-0.22-1.13-0.33
			c-0.38-0.11-0.75-0.21-1.13-0.31c-0.38-0.1-0.76-0.19-1.14-0.28c-0.38-0.09-0.76-0.18-1.14-0.26c-0.38-0.08-0.77-0.16-1.15-0.24
			c-0.38-0.07-0.77-0.14-1.15-0.21c-0.39-0.07-0.77-0.13-1.16-0.19c-0.39-0.06-0.77-0.11-1.16-0.16c-0.39-0.05-0.78-0.1-1.16-0.14
			c-0.39-0.04-0.78-0.08-1.17-0.11c-0.39-0.03-0.78-0.06-1.17-0.09c-0.39-0.03-0.78-0.05-1.17-0.06c-0.39-0.02-0.78-0.03-1.17-0.04
			c-0.39-0.01-0.78-0.01-1.17-0.02c-0.39,0-0.78,0-1.17,0.01c-0.39,0.01-0.78,0.02-1.17,0.03C159.45,32.81,147.16,37.94,136.8,47.93
			z M149.08,72.79c5.48,5.79,11.08,11.57,16.37,17.53c3.49,3.93,6.7,8.24,10.34,12.01c10.53-12.77,22.29-24.52,33.94-36.27
			l24.01-24.45c3.05-3.29,6.24-6.43,9.42-9.59c-2.77,1.54-5.4,3.61-7.99,5.45c-5.77,4.1-11.41,8.36-17.15,12.5l-21.83,15.77
			c-2.92,2.14-6.14,4.15-8.89,6.49c-4.15,3.54-7.7,7.8-11.58,11.62l-7.38-7.66c-1.44-1.5-2.8-3.12-4.4-4.45
			c-2-1.67-4.34-3.05-6.45-4.59c-5.42-3.97-10.85-7.91-16.31-11.81c-9.07-6.69-18.22-13.25-27.47-19.68
			c-1.42-0.98-3.42-2.85-4.95-3.45C122.08,45.85,135.96,58.94,149.08,72.79z"/>
	</g>
</g>
</svg>
