<?xml version="1.0" encoding="utf-8"?>
<!-- Generator: Adobe Illustrator 27.8.1, SVG Export Plug-In . SVG Version: 6.00 Build 0)  -->
<svg version="1.1" xmlns="http://www.w3.org/2000/svg" xmlns:xlink="http://www.w3.org/1999/xlink" x="0px" y="0px"
	 viewBox="0 0 350 230" style="enable-background:new 0 0 350 230;" xml:space="preserve">
<style type="text/css">
	.st0{display:none;}
	.st1{fill:#FFEAB3;}
	.st2{fill:#FDD8BB;}
	.st3{fill:#FDC798;}
	.st4{fill:#E3D3C3;}
	.st5{fill:#FFE6B0;}
	.st6{fill:#FEEFC6;}
	.st7{fill:#DBDECD;}
	.st8{fill:#FED8B3;}
	.st9{fill:#CDDECC;}
	.st10{fill:#FECE8C;}
	.st11{fill:#FEE4B1;}
	.st12{fill:#FFCD9A;}
	.st13{fill:#B0F4DB;}
	.st14{fill:#C0E0D1;}
	.st15{fill:#DEE6CF;}
	.st16{fill:#9E0021;}
	.st17{fill:#001E91;}
	.st18{fill:#009E1A;}
	.st19{fill:#8E0073;}
	.st20{fill:#9E9700;}
	.st21{fill:#006B65;}
	.st22{fill:#FF00D1;}
	.st23{fill:#550000;}
	.st24{fill:url(#SVGID_1_);}
	.st25{fill:#163800;enable-background:new    ;}
	.st26{fill:#00E7FF;enable-background:new    ;}
	.st27{fill:#663000;}
	.st28{fill:#00E7FF;}
	.st29{fill:#595700;}
	.st30{fill:#A06433;}
	.st31{fill:#006AC3;}
	.st32{fill:#FF7F00;}
	.st33{fill:#DFC900;}
	.st34{fill:#FF3200;}
	.st35{fill:#3200FF;}
	.st36{fill:#00FFCC;}
	.st37{fill:#4E0017;}
	.st38{fill:#7E00FF;}
	.st39{fill-rule:evenodd;clip-rule:evenodd;fill:#5700FF;}
	.st40{fill-rule:evenodd;clip-rule:evenodd;fill:#840036;}
	.st41{fill:#2B00A0;}
	.st42{fill:#46FF2C;}
	.st43{fill:#002A33;}
	.st44{fill:#007FFF;}
	.st45{fill:#FFFFFF;}
	.st46{fill:url(#SVGID_00000110451877048160682410000007992121836455202229_);}
	.st47{fill:#856024;}
	.st48{fill:#CB9D3E;}
	.st49{fill:#141414;}
	.st50{fill:#F6CF63;}
	.st51{fill:url(#SVGID_00000002386085607245516430000010184972460651228093_);}
	.st52{fill:url(#SVGID_00000015314844196666562940000013224471271788960664_);}
	.st53{fill:#046E56;}
	.st54{fill:#2AA776;}
	.st55{fill:url(#SVGID_00000147907616925434917800000015584422838606039469_);}
	.st56{fill:#A63B2D;}
	.st57{fill:#F5B32B;}
	.st58{fill:#0C427C;}
	.st59{fill:url(#SVGID_00000049942660394702421750000000328817069738591629_);}
	.st60{fill:url(#SVGID_00000119081985550084747960000013250860850407424941_);}
	.st61{fill:url(#SVGID_00000047772130713639739460000015382602451957954998_);}
	.st62{fill:#FEFEFE;}
	.st63{fill:url(#SVGID_00000133497839860410283840000006497517262796673425_);}
	.st64{fill:#0F3058;}
	.st65{fill:url(#SVGID_00000183211659479948449810000001264948424094534552_);}
	.st66{fill:#289CC7;}
	.st67{fill:url(#SVGID_00000169560306900085827380000004201172663523459206_);}
	.st68{fill:#07102A;}
	.st69{fill:#0E2044;}
	.st70{fill:#7D7C7B;}
	.st71{fill:url(#SVGID_00000079475708701093602160000005971439908553603002_);}
	.st72{fill:#AFB4B7;}
	.st73{fill:url(#SVGID_00000113335189568908018800000016546744697837525182_);}
	.st74{fill:#576783;}
	.st75{fill:url(#SVGID_00000081619413361815937350000013088686591596346265_);}
	.st76{fill:#C7C6C5;}
	.st77{fill:url(#SVGID_00000178179878107434951030000003737935252225805233_);}
	.st78{fill:url(#SVGID_00000080205085122805284160000014951104486865814705_);}
	.st79{fill:#172860;}
	.st80{fill:url(#SVGID_00000165938202983433876730000013360317361096977048_);}
	.st81{fill:url(#SVGID_00000008142577947599507570000007449252059119822515_);}
	.st82{fill:#02AEF4;}
	.st83{fill:#EC0D64;}
	.st84{fill:url(#SVGID_00000047781132028064371110000016326723458251939252_);}
	.st85{fill:#58C6D1;}
	.st86{fill:url(#SVGID_00000047773102637887018870000016372183574748493994_);}
	.st87{fill:#4695BF;}
	.st88{fill:#38CEAE;}
	.st89{fill:#2BB374;}
	.st90{fill:#039075;}
	.st91{fill:#191F55;}
	.st92{fill:url(#SVGID_00000119804204988543813510000016833049342596282295_);}
	.st93{fill:url(#SVGID_00000034769098546628646600000002946526709869809597_);}
	.st94{fill:url(#SVGID_00000042719933612048965550000002870919409717073300_);}
	.st95{fill:url(#SVGID_00000122702534474672120930000005345692493950290874_);}
	.st96{fill:url(#SVGID_00000121238836074458724270000007870917772386541229_);}
	.st97{fill:url(#SVGID_00000011020905766576142110000011763514449714772388_);}
	.st98{fill:url(#SVGID_00000101820491066848744650000010580712760407951507_);}
	.st99{fill:url(#SVGID_00000057831393612035964950000000132500053840016556_);}
	.st100{fill:url(#SVGID_00000048466153336393764440000012654025944077161622_);}
	.st101{fill:url(#SVGID_00000082345994833315076430000000162233680290224271_);}
	.st102{fill:url(#SVGID_00000108300863064936860180000008577480707107630525_);}
	.st103{fill:#1B2462;}
	.st104{fill:url(#SVGID_00000178164853280630570910000013671729642048176286_);}
	.st105{fill:#32A6C3;}
	.st106{fill:#82C78D;}
	.st107{fill:#E7952A;}
	.st108{fill:#E9C032;}
	.st109{fill:url(#SVGID_00000008829176991501984930000011665157938924112271_);}
	.st110{fill:url(#SVGID_00000129168260482651545770000002943302971588225695_);}
	.st111{fill:#1F7D44;}
	.st112{fill:#0E7D8D;}
	.st113{fill:#02D6F0;}
	.st114{fill:#123073;}
	.st115{fill:#0396E0;}
	.st116{fill:url(#SVGID_00000026850126446810142980000012859058890884450985_);}
	.st117{fill:url(#SVGID_00000177446277119348339130000015122845857168789947_);}
</style>
<g id="Layer_1" class="st0">
</g>
<g id="Layer_2" class="st0">
</g>
<g id="Layer_3" class="st0">
</g>
<g id="Layer_4" class="st0">
</g>
<g id="Layer_5" class="st0">
</g>
<g id="Layer_6" class="st0">
</g>
<g id="Layer_7" class="st0">
</g>
<g id="Layer_8" class="st0">
</g>
<g id="Layer_9" class="st0">
</g>
<g id="Layer_10" class="st0">
</g>
<g id="Layer_11" class="st0">
</g>
<g id="Layer_12">
</g>
<g id="Layer_13">
</g>
<g id="Layer_14">
</g>
<g id="Layer_15">
	<g>
		<path class="st87" d="M177.45,62.37c1.98-0.69,3.5-1.52,5.1-2.89c0.04,3.91,0.05,7.82,0.03,11.73c4.26-0.05,8.53-0.07,12.79-0.07
			c1.68,0,3.63-0.24,5.28,0.03c0.79,0.13,1.48,0.43,2.06,0.99c0.86,0.85,1.11,2.01,1.09,3.18c-0.07,2.59-0.69,5.48-1.43,7.93
			c-0.34,1.13-0.81,2.24-1.11,3.38c-3.97-0.11-7.95-0.08-11.92-0.09c-1.72,0-3.81,0.22-5.49-0.13c-0.54-0.11-1.03-0.42-1.45-0.77
			c-0.99-0.84-1.73-2.05-2.28-3.21c-2.89-6.05-1.65-12.68-2.19-19.09C177.89,62.87,177.83,62.69,177.45,62.37z"/>
		<path class="st88" d="M174.87,41.17c2.34-0.1,4.53,0.65,6.33,2.17c0.12,0.1,0.24,0.21,0.36,0.32c0.12,0.11,0.23,0.22,0.34,0.33
			c0.11,0.11,0.22,0.23,0.32,0.35c0.1,0.12,0.21,0.24,0.31,0.36c0.1,0.12,0.19,0.25,0.29,0.38c0.09,0.13,0.18,0.26,0.27,0.39
			c0.09,0.13,0.17,0.27,0.25,0.41c0.08,0.14,0.16,0.28,0.23,0.42c0.07,0.14,0.14,0.28,0.21,0.43c0.07,0.14,0.13,0.29,0.19,0.44
			c0.06,0.15,0.11,0.3,0.16,0.45c0.05,0.15,0.1,0.3,0.14,0.45c0.04,0.15,0.08,0.31,0.12,0.46c0.04,0.15,0.07,0.31,0.1,0.47
			c0.03,0.16,0.05,0.31,0.07,0.47c0.02,0.16,0.04,0.31,0.05,0.47c0.01,0.16,0.02,0.31,0.03,0.47c0.01,0.16,0.01,0.31,0.01,0.47
			c0,0.16-0.01,0.31-0.02,0.47c-0.01,0.16-0.02,0.31-0.04,0.47c-0.02,0.16-0.04,0.31-0.07,0.47c-0.03,0.16-0.06,0.31-0.09,0.46
			c-0.03,0.15-0.07,0.31-0.11,0.46c-0.04,0.15-0.09,0.3-0.14,0.45c-0.05,0.15-0.1,0.3-0.16,0.45c-0.06,0.15-0.12,0.29-0.18,0.44
			c-0.06,0.14-0.13,0.29-0.2,0.43c-0.07,0.14-0.15,0.28-0.22,0.42c-0.08,0.14-0.16,0.27-0.24,0.4c-0.08,0.13-0.17,0.26-0.26,0.39
			c-0.09,0.13-0.19,0.25-0.28,0.38c-0.1,0.12-0.2,0.24-0.3,0.36c-1.86,2.17-4.06,3.36-6.91,3.59c-2.47-0.04-4.52-0.63-6.41-2.27
			c-1.99-1.72-3.21-4.06-3.39-6.69c-0.19-2.69,0.61-5.1,2.39-7.14C169.84,42.31,172.11,41.35,174.87,41.17z M167.01,59.31
			c1.44,1.04,2.81,1.97,4.44,2.72c-0.19,6.31,0.77,18.94-3.87,23.46c-0.56,0.55-1.17,0.85-1.94,0.97c-1.91,0.31-4.11,0.1-6.06,0.1
			c-3.82,0-7.64,0.02-11.46,0.08c-1.16-3.74-2.26-7.76-2.25-11.7c0-1.06,0.24-2.16,1.04-2.92c0.56-0.52,1.28-0.74,2.02-0.84
			c1.64-0.23,3.52-0.03,5.19-0.03c4.27-0.02,8.54,0.02,12.81,0.11C166.92,67.28,166.94,63.3,167.01,59.31z M149.02,89.25l11.26,0.01
			c1.85,0.01,3.92-0.18,5.72,0.17c0.6,0.12,1.03,0.38,1.47,0.8c0.54,0.53,1.06,1.19,1.43,1.85c1.68,1.95,3.39,7.11,4.27,9.63
			c0.1,0.29,0.34,1.17,0.63,1.23c0.08,1.47,0.02,2.96,0.02,4.44l0.01,8.28l0.07,24.72c-6.54-5.65-12.32-11.79-17.86-18.42
			c4.19-3.38,7.96-7.28,12.15-10.67c-1.12-0.99-2.39-1.86-3.59-2.77c-2.62-1.99-5.13-4.06-7.27-6.58
			C154.32,99.11,150.68,93.06,149.02,89.25z M183.31,89.36c5.46-0.3,11.49-0.07,17.01-0.08c-3.01,6.22-6.16,11.19-10.76,16.37
			c-1.48,1.67-3.12,3.43-4.87,4.81c-0.28,0.41-0.83,0.78-1.2,1.12c3.32,3.65,6.41,7.39,10.49,10.27
			c-5.34,6.72-11.69,12.87-18.12,18.54c0.06-3.34-0.01-6.68,0-10.02l0.03-19.38c0-4.32-0.15-8.7,0.05-13.02
			c0.02,0.57,0.05,1.15,0.04,1.72c0.24,0.31,0.14,0.65,0.12,1.04l0.14,0.12c0.23-0.05,0.37-0.1,0.57-0.24
			c0.5-0.33,1.19-0.59,1.57-1.06c0.03-0.3,0.05-0.55,0.22-0.8c0.04-0.06,0.08-0.12,0.12-0.17c0.15-0.96,0.34-1.92,0.58-2.86
			C179.93,93.29,181.07,90.67,183.31,89.36z"/>
		<path class="st62" d="M171.25,44.11c0.36-0.01,0.77,0.04,1.11,0.17c0.07,0.03,0.13,0.05,0.19,0.09c0.06,0.03,0.12,0.07,0.18,0.1
			c0.06,0.04,0.11,0.08,0.17,0.12c0.05,0.04,0.11,0.09,0.16,0.14c0.05,0.05,0.1,0.1,0.14,0.15c0.04,0.05,0.09,0.11,0.13,0.17
			c0.04,0.06,0.08,0.12,0.11,0.18c0.03,0.06,0.06,0.12,0.09,0.19c0.21,0.52,0.2,1.12-0.02,1.63c-0.31,0.74-0.85,1.07-1.56,1.35
			c-0.44,0.01-0.86,0.03-1.28-0.13c-0.55-0.22-1-0.63-1.2-1.2c-0.19-0.53-0.14-1.13,0.1-1.64
			C169.92,44.66,170.48,44.38,171.25,44.11z"/>
		<path class="st89" d="M146.52,107.36c1.18,0.89,2.37,2.55,3.45,3.64c2.25,2.25,4.62,4.37,7.1,6.36c-0.55,0.5-1.13,0.97-1.73,1.41
			c-0.6,0.44-1.21,0.85-1.85,1.24c-6.65,3.97-18.02,3.41-25.33,1.56c-4.57-1.11-9.07-3.52-12.44-6.78
			c8.64-0.42,17.16-1.78,25.26-4.89C142.89,109.16,144.77,108.4,146.52,107.36z M88.35,87.87c1.04,0.31,2.07,0.79,3.09,1.18
			c1.68,0.65,3.39,1.23,5.12,1.74c9.36,2.77,19.43,4.46,29.21,4.23c3.71-0.09,7.33-0.5,11.01-0.93c0.62,1.5,1.31,2.98,2.06,4.42
			c0.75,1.44,1.57,2.85,2.45,4.22c0.86,1.34,1.9,2.57,2.72,3.94c0.14,0.23,0.28,0.35,0.22,0.61l-0.45,0.15
			c-10.32,2.36-22.91,2.6-33.08-0.62c-0.3-0.1-0.6-0.19-0.89-0.3c-0.3-0.1-0.59-0.21-0.88-0.32c-0.29-0.11-0.59-0.22-0.88-0.34
			c-0.29-0.12-0.58-0.24-0.87-0.36c-0.29-0.12-0.57-0.25-0.86-0.38c-0.28-0.13-0.57-0.27-0.85-0.4c-0.28-0.14-0.56-0.28-0.84-0.42
			c-0.28-0.15-0.55-0.29-0.83-0.45c-0.27-0.15-0.55-0.31-0.82-0.47c-0.27-0.16-0.54-0.32-0.8-0.49c-0.27-0.17-0.53-0.33-0.79-0.51
			c-0.26-0.17-0.52-0.35-0.78-0.52c-0.26-0.18-0.51-0.36-0.77-0.54c-0.25-0.18-0.5-0.37-0.75-0.56c-0.25-0.19-0.49-0.38-0.74-0.58
			c-0.24-0.2-0.49-0.4-0.72-0.6c-0.24-0.2-0.48-0.41-0.71-0.62c-0.23-0.21-0.46-0.42-0.69-0.63s-0.45-0.43-0.68-0.65
			c-0.22-0.22-0.44-0.44-0.66-0.67c-0.22-0.23-0.43-0.45-0.64-0.68c-0.21-0.23-0.42-0.46-0.63-0.7c-0.21-0.24-0.41-0.47-0.61-0.71
			c-0.2-0.24-0.4-0.48-0.59-0.73c-0.19-0.25-0.39-0.49-0.57-0.74c-0.19-0.25-0.37-0.5-0.56-0.76c-0.18-0.25-0.36-0.51-0.54-0.77
			c-0.18-0.26-0.35-0.52-0.52-0.78c-0.17-0.26-0.34-0.53-0.5-0.8c-0.16-0.27-0.32-0.54-0.48-0.81c-0.16-0.27-0.31-0.54-0.46-0.82
			C88.64,88.43,88.49,88.15,88.35,87.87z M79.92,62.05c3.45,1.41,6.73,3.24,10.23,4.61c13.68,5.36,27.71,8.36,42.3,9.87
			c0.39,5.68,1.75,11.15,3.87,16.43c-2.01,0.02-4.07-0.17-6.08-0.33c-10.55-0.84-21.67-3.16-31.1-8.12
			C89.35,79.36,83.23,72.76,79.92,62.05z"/>
		<path class="st90" d="M204.43,107.69c3.71,1.33,7.38,2.73,11.16,3.84c5.91,1.74,11.92,2.83,18.01,3.71
			c-3.92,3.22-8.06,5.4-12.89,6.93c-2.02,0.72-4.42,1.1-6.54,1.35c-5.5,0.64-11.78-0.19-16.69-2.87c-1.58-0.86-3.01-1.98-4.42-3.09
			C197.1,114.49,200.81,111.24,204.43,107.69z M261.74,87.83l0.13,0.17c-0.43,0.98-1.06,1.93-1.65,2.82
			c-0.39,0.58-0.79,1.15-1.21,1.7c-0.42,0.56-0.85,1.1-1.3,1.63c-0.45,0.53-0.91,1.05-1.39,1.56c-0.48,0.51-0.97,1-1.47,1.48
			c-0.5,0.48-1.02,0.94-1.55,1.4c-0.53,0.45-1.07,0.89-1.63,1.31c-0.55,0.42-1.12,0.83-1.7,1.22c-0.58,0.39-1.16,0.76-1.76,1.12
			c-12.27,7.46-28.47,8.32-42.19,4.98c-0.31-0.08-0.49-0.06-0.68-0.32c0.72-1.28,1.72-2.4,2.49-3.66c1.9-3.18,3.63-6.44,5.18-9.81
			c4.26,0.58,8.52,1.08,12.82,1.17C237.27,94.85,251.27,92.53,261.74,87.83z M269.82,61.96l0.16,0.08l-0.04,0.39l-0.13,0.1
			l0.06,0.16c-1.8,4.88-4.41,9.48-8,13.26c-3.52,3.71-7.81,6.61-12.33,8.95c-11.75,6.08-22.95,7.7-36.03,8.03l-0.08-0.01
			c-0.25-0.31,1.09-3.53,1.28-4.12c0.33-1.03,0.63-2.08,0.9-3.13c0.27-1.05,0.51-2.11,0.73-3.18s0.39-2.14,0.55-3.21
			c0.15-1.08,0.27-2.15,0.37-3.24c2.61,0,5.22-0.27,7.81-0.56C240.58,73.76,255.64,68.36,269.82,61.96z"/>
		<path class="st91" d="M171.44,62.03c0.79,0.24,1.56,0.4,2.39,0.48l0.01,26.25c0,4.72,0.12,9.47-0.03,14.19
			c-0.29-0.06-0.53-0.94-0.63-1.23c-0.88-2.53-2.58-7.68-4.27-9.63c-0.37-0.66-0.89-1.32-1.43-1.85c-0.43-0.42-0.87-0.69-1.47-0.8
			c-1.81-0.35-3.88-0.16-5.72-0.17l-11.26-0.01c-0.34-0.85-0.62-1.73-0.9-2.6c3.82-0.06,7.64-0.09,11.46-0.08
			c1.95,0,4.14,0.2,6.06-0.1c0.78-0.12,1.38-0.42,1.94-0.97C172.21,80.97,171.25,68.33,171.44,62.03z M152.51,121.17
			c0.59,0.25,2.84,3.42,3.42,4.11c2.61,3.14,5.51,6.12,8.39,9.01c3.1,3.11,6.31,6.24,9.76,8.96l0.06,12.08
			c-1.58-0.93-3.05-2.05-4.51-3.17c-7.08-5.51-13.34-11.57-18.81-18.7c-2.08-2.71-3.83-5.74-6.01-8.35l-0.11-0.13
			C147.71,124.17,149.98,122.99,152.51,121.17z M197.15,121.15c2.66,2.04,5.19,3.43,8.57,3.79c-1.26,2.17-2.95,4.21-4.52,6.17
			c-1.51,1.89-3.07,3.74-4.68,5.55c-1.61,1.8-3.28,3.56-4.99,5.27c-1.71,1.71-3.48,3.37-5.29,4.98c-1.81,1.61-3.66,3.16-5.56,4.67
			c-1.62,1.25-3.27,2.47-4.94,3.66c0.21-3.98,0.08-8.02,0.06-12.01c1.89-1.91,4.08-3.6,6.03-5.45c2.75-2.58,5.4-5.26,7.96-8.03
			C192.35,126.96,194.8,124.1,197.15,121.15z M162.47,56.43l2.61,0.01c0.06,3.16,0.03,6.32,0.04,9.48l-9.75,0
			c-1.96,0-4.08-0.17-6.01,0.16c-1.88,0.32-3.62,1.26-4.7,2.88c-2.03,3.03-1.04,8.67-0.35,12.07c2.5,12.43,9.86,22.65,20.35,29.64
			c-2.22,2.18-4.74,4.18-7.08,6.24c-0.13,0.13-0.17,0.12-0.34,0.17c-1.55-0.77-4.12-3.37-5.44-4.67
			c-10.63-10.43-17.44-24.89-17.53-39.9c-0.03-4.49,1.53-8.45,4.73-11.64c4.44-4.42,8.91-4.4,14.74-4.41L162.47,56.43z
			 M184.52,56.39l10.08-0.03c6.79-0.01,11.12-0.26,16.32,4.88c3.34,3.3,4.84,7.7,4.86,12.33c0.05,12.87-8.17,29.91-17.13,38.88
			c-1.73,1.73-3.73,3.63-5.81,4.89c-2.07-1.83-4.04-3.63-5.79-5.79c6.4-6.48,11.97-13.81,15.44-22.28l-2.16,0.01
			c-5.52,0.01-11.55-0.22-17.01,0.08c-2.24,1.32-3.38,3.93-4.01,6.35c-0.24,0.94-0.43,1.9-0.58,2.86c-0.04,0.06-0.08,0.12-0.12,0.18
			c-0.17,0.26-0.19,0.51-0.22,0.8c-0.37,0.47-1.21,1.67-1.71,2c-0.21,0.17-0.17,0.33-0.4,0.6l-0.44,0.69
			c0.01-0.39,0.03-2.7,0.04-3.18c0.01-0.57,0.08-1.13,0.06-1.7l0.01-35.32c0.52-0.03,1-0.14,1.5-0.26c0.38,0.32,0.44,0.5,0.48,0.99
			c0.54,6.41-0.69,13.04,2.19,19.09c0.55,1.16,1.29,2.38,2.28,3.21c0.41,0.35,0.91,0.66,1.45,0.77c1.68,0.35,3.77,0.13,5.49,0.13
			c3.97,0.01,7.95-0.03,11.92,0.09c0.73,0.02,1.46,0.06,2.19,0.06c1.4-4.48,3.95-12.52,1.71-16.87c-0.9-1.75-2.49-2.99-4.35-3.56
			c-2.4-0.74-5.48-0.38-7.98-0.37l-8.3,0.03C184.49,62.77,184.39,59.56,184.52,56.39z"/>
	</g>
</g>
</svg>
