<?xml version="1.0" encoding="utf-8"?>
<!-- Generator: Adobe Illustrator 27.8.1, SVG Export Plug-In . SVG Version: 6.00 Build 0)  -->
<svg version="1.1" xmlns="http://www.w3.org/2000/svg" xmlns:xlink="http://www.w3.org/1999/xlink" x="0px" y="0px"
	 viewBox="0 0 350 230" style="enable-background:new 0 0 350 230;" xml:space="preserve">
<style type="text/css">
	.st0{display:none;}
	.st1{fill:#FFEAB3;}
	.st2{fill:#FDD8BB;}
	.st3{fill:#FDC798;}
	.st4{fill:#E3D3C3;}
	.st5{fill:#FFE6B0;}
	.st6{fill:#FEEFC6;}
	.st7{fill:#DBDECD;}
	.st8{fill:#FED8B3;}
	.st9{fill:#CDDECC;}
	.st10{fill:#FECE8C;}
	.st11{fill:#FEE4B1;}
	.st12{fill:#FFCD9A;}
	.st13{fill:#B0F4DB;}
	.st14{fill:#C0E0D1;}
	.st15{fill:#DEE6CF;}
	.st16{fill:#9E0021;}
	.st17{fill:#001E91;}
	.st18{fill:#009E1A;}
	.st19{fill:#8E0073;}
	.st20{fill:#9E9700;}
	.st21{fill:#006B65;}
	.st22{fill:#FF00D1;}
	.st23{fill:#550000;}
	.st24{fill:url(#SVGID_1_);}
	.st25{fill:#163800;enable-background:new    ;}
	.st26{fill:#00E7FF;enable-background:new    ;}
	.st27{fill:#663000;}
	.st28{fill:#00E7FF;}
	.st29{fill:#595700;}
	.st30{fill:#A06433;}
	.st31{fill:#006AC3;}
	.st32{fill:#FF7F00;}
	.st33{fill:#DFC900;}
	.st34{fill:#FF3200;}
	.st35{fill:#3200FF;}
	.st36{fill:#00FFCC;}
	.st37{fill:#4E0017;}
	.st38{fill:#7E00FF;}
	.st39{fill-rule:evenodd;clip-rule:evenodd;fill:#5700FF;}
	.st40{fill-rule:evenodd;clip-rule:evenodd;fill:#840036;}
	.st41{fill:#2B00A0;}
	.st42{fill:#46FF2C;}
	.st43{fill:#002A33;}
	.st44{fill:#007FFF;}
	.st45{fill:#FFFFFF;}
	.st46{fill:url(#SVGID_00000038390792022631125600000018346691293773883786_);}
	.st47{fill:#856024;}
	.st48{fill:#CB9D3E;}
	.st49{fill:#141414;}
	.st50{fill:#F6CF63;}
	.st51{fill:url(#SVGID_00000098198478684857250620000001126774757781829295_);}
	.st52{fill:url(#SVGID_00000183963140323399819260000003539916693400681870_);}
	.st53{fill:#046E56;}
	.st54{fill:#2AA776;}
	.st55{fill:url(#SVGID_00000099630179448578198580000011985332143849092765_);}
	.st56{fill:#A63B2D;}
	.st57{fill:#F5B32B;}
	.st58{fill:#0C427C;}
	.st59{fill:url(#SVGID_00000023985381357294979890000013183926258697712808_);}
	.st60{fill:url(#SVGID_00000026157305562147305710000007557922652699214732_);}
	.st61{fill:url(#SVGID_00000156587426609529918750000003085824923920563621_);}
	.st62{fill:#FEFEFE;}
	.st63{fill:url(#SVGID_00000130635976925551418520000010979040218886139835_);}
	.st64{fill:#0F3058;}
	.st65{fill:url(#SVGID_00000099631575039112524460000010217681375752110742_);}
	.st66{fill:#289CC7;}
	.st67{fill:url(#SVGID_00000019645331942080810170000006277635659444278704_);}
	.st68{fill:#07102A;}
	.st69{fill:#0E2044;}
	.st70{fill:#7D7C7B;}
	.st71{fill:url(#SVGID_00000149370255856506780640000013727651643595665035_);}
	.st72{fill:#AFB4B7;}
	.st73{fill:url(#SVGID_00000062895350529084034200000012193313956393215911_);}
	.st74{fill:#576783;}
	.st75{fill:url(#SVGID_00000145775227063502810020000015826713813844077706_);}
	.st76{fill:#C7C6C5;}
	.st77{fill:url(#SVGID_00000102504586026294163360000013217242392336980388_);}
	.st78{fill:url(#SVGID_00000036940040467203068030000007828998899731704727_);}
	.st79{fill:#172860;}
	.st80{fill:url(#SVGID_00000096782080813681583690000002292937672893604492_);}
	.st81{fill:url(#SVGID_00000109745729193209701330000016245220132951809466_);}
	.st82{fill:#02AEF4;}
	.st83{fill:#EC0D64;}
	.st84{fill:url(#SVGID_00000060747143156346674060000003425132470082474152_);}
	.st85{fill:#58C6D1;}
	.st86{fill:url(#SVGID_00000011739807373814027670000005002771315392322689_);}
	.st87{fill:#4695BF;}
	.st88{fill:#38CEAE;}
	.st89{fill:#2BB374;}
	.st90{fill:#039075;}
	.st91{fill:#191F55;}
	.st92{fill:url(#SVGID_00000176754227427971051710000011975336969346319769_);}
	.st93{fill:url(#SVGID_00000096755058704553569360000004533853648686377911_);}
	.st94{fill:url(#SVGID_00000083075541783983326440000003375882817388781745_);}
	.st95{fill:url(#SVGID_00000026856934722207384690000011518400962358592138_);}
	.st96{fill:url(#SVGID_00000116951917351705933950000000380586343577037965_);}
	.st97{fill:url(#SVGID_00000116214910032978596610000002821149620055163791_);}
	.st98{fill:url(#SVGID_00000157303889030492473620000015377699882346187423_);}
	.st99{fill:url(#SVGID_00000150825272075857709730000001636307919314436255_);}
	.st100{fill:url(#SVGID_00000182514325171471809370000013991201578498496958_);}
	.st101{fill:url(#SVGID_00000161620495118218151380000004166418461568511664_);}
	.st102{fill:url(#SVGID_00000134216502785696029170000003459583251011866011_);}
	.st103{fill:#1B2462;}
	.st104{fill:url(#SVGID_00000118385214648562274340000005454041558004115638_);}
	.st105{fill:#32A6C3;}
	.st106{fill:#82C78D;}
	.st107{fill:#E7952A;}
	.st108{fill:#E9C032;}
	.st109{fill:url(#SVGID_00000000918610564955578150000017541972935409580441_);}
	.st110{fill:url(#SVGID_00000094579555053253820820000018310576464462985908_);}
	.st111{fill:#1F7D44;}
	.st112{fill:#0E7D8D;}
	.st113{fill:#02D6F0;}
	.st114{fill:#123073;}
	.st115{fill:#0396E0;}
	.st116{fill:url(#SVGID_00000021103566839793144170000011395996356153536142_);}
	.st117{fill:url(#SVGID_00000140717239536059177250000008868034271420116139_);}
</style>
<g id="Layer_1" class="st0">
</g>
<g id="Layer_2" class="st0">
</g>
<g id="Layer_3" class="st0">
</g>
<g id="Layer_4" class="st0">
</g>
<g id="Layer_5" class="st0">
</g>
<g id="Layer_6" class="st0">
</g>
<g id="Layer_7" class="st0">
</g>
<g id="Layer_8" class="st0">
</g>
<g id="Layer_9" class="st0">
</g>
<g id="Layer_10" class="st0">
</g>
<g id="Layer_11" class="st0">
</g>
<g id="Layer_12">
</g>
<g id="Layer_13">
</g>
<g id="Layer_14">
</g>
<g id="Layer_15">
	<g>
		<g>
			<radialGradient id="SVGID_1_" cx="175.1505" cy="83.4635" r="57.6064" gradientUnits="userSpaceOnUse">
				<stop  offset="0" style="stop-color:#FFFFFF"/>
				<stop  offset="1" style="stop-color:#005F00"/>
			</radialGradient>
			<path class="st24" d="M124.39,77.01c-0.11-0.13-0.05-0.11-0.15-0.13c-3.06,1.84-6.76,4.4-7.65,8.06
				c-0.47,1.95-0.24,4.04,0.25,5.97l0.14,0.09c0.39-0.13,0.71-0.38,1.06-0.59c0.12-0.07,0.24-0.15,0.37-0.23
				c0.12-0.08,0.24-0.17,0.36-0.25c0.12-0.08,0.23-0.17,0.34-0.25c0.12-0.08,0.23-0.18,0.34-0.26c0.11-0.09,0.21-0.19,0.32-0.28
				c0.11-0.09,0.21-0.19,0.32-0.28c0.11-0.11,0.21-0.2,0.31-0.31c0.11-0.11,0.2-0.2,0.3-0.31c0.09-0.11,0.19-0.21,0.28-0.33
				c0.09-0.11,0.19-0.21,0.27-0.33c0.09-0.11,0.18-0.23,0.26-0.34c0.09-0.11,0.18-0.23,0.25-0.34c0.08-0.12,0.17-0.24,0.24-0.37
				c0.08-0.12,0.15-0.24,0.23-0.37c0.07-0.12,0.14-0.25,0.21-0.38c0.06-0.12,0.13-0.25,0.19-0.38
				C123.85,82.94,124.55,79.76,124.39,77.01z M232.12,81.56c-1.38-2.09-3.8-4.28-6.16-5.16c-0.15,4.13,0.66,8.7,3.58,11.84
				c0.79,0.85,2.74,2.31,3.87,2.5c0.18-0.08,0.14-0.07,0.2-0.24C234.28,87.25,233.97,84.37,232.12,81.56z M229.63,93.04
				c-1.22-2.59-3.06-4.61-5.41-6.23c-0.82,3.53-0.65,8.56,1.3,11.73c0.69,1.13,2.69,3.49,4,3.81c0.04,0.01,0.08,0.02,0.12,0.02
				c0.17-0.12,0.11-0.04,0.18-0.21C230.94,99.03,231.08,96.11,229.63,93.04z M126.42,86.99c-3.06,2.36-6.26,5.47-6.77,9.49
				c-0.04,0.26-0.06,0.52-0.07,0.78c-0.01,0.26-0.01,0.53-0.01,0.79c0.01,0.26,0.02,0.52,0.06,0.78c0.02,0.26,0.06,0.52,0.09,0.78
				c0.05,0.26,0.11,0.52,0.17,0.77c0.06,0.26,0.13,0.51,0.21,0.77c0.08,0.25,0.17,0.5,0.27,0.74c0.09,0.25,0.2,0.49,0.32,0.72
				l0.39,0.87c3.4-3.1,5.43-7.08,5.66-11.72C126.81,90.29,126.81,88.44,126.42,86.99z M117.13,103.58c-1.38-2.49-3.3-4.44-5.79-5.8
				c-2.6-1.42-5.75-2.43-8.74-2.48c1.97,4.01,5.99,8.16,10.22,9.63c1.67,0.58,3.43,0.81,5.18,0.57
				C117.82,104.84,117.46,104.19,117.13,103.58z M110.64,66.31c-1.03-1.53-2.98-3.81-4.58-4.72c-0.91,4.34-0.31,9.26,2.15,13.03
				c0.65,1.01,2.7,3.31,3.9,3.52c0.09,0.01,0.07,0,0.15-0.06C113.09,73.87,113.13,70.01,110.64,66.31z M108.37,82.5
				c-1.98-1.59-4.91-3.31-7.36-4.02c1.51,4.72,3.55,10.03,8.21,12.48c1.14,0.6,2.47,1.04,3.75,1.15
				C112.51,87.83,111.84,85.3,108.37,82.5z M230.56,67.47c-1.6-1.57-3.75-2.96-5.91-3.55c0.37,4.6,1.99,9.12,5.61,12.18
				c1.28,1.09,2.88,1.98,4.59,2.09C234.79,74.08,233.56,70.39,230.56,67.47z M120.68,51.77c-0.13-0.57-0.24-1.16-0.46-1.7
				l-0.13-0.08c-3.05,2.78-5.38,8.16-5.59,12.2c-0.09,1.77,0.21,3.75,1.19,5.25c0.55-0.23,0.98-0.72,1.4-1.14
				c1.34-1.38,2.29-2.78,3.01-4.57C121.35,58.63,121.41,55.02,120.68,51.77z M131.36,101.48c-0.18-0.97-1.01-4.66-1.6-5.28
				c-2.57,3.32-4.66,7-4.13,11.34c0.26,2.06,1.04,4.21,2.3,5.88l0.5,0.59C131.01,110.21,132.24,106.07,131.36,101.48z
				 M115.67,110.24c-1.23-0.24-2.49-0.27-3.74-0.18c-1.68,0.17-3.32,0.53-4.95,0.98c3.69,3.1,8.12,5.7,12.99,6.16
				c1.64,0.06,3.18-0.09,4.77-0.46C122.49,113.36,119.75,111.04,115.67,110.24z M126.14,63.59l-0.08-0.04
				c-4.09,2.15-8.47,5.17-9.9,9.77c-0.28,0.89-0.93,4.06-0.59,4.86c0.04,0.07,0.05,0.07,0.11,0.12c2.57-0.31,4.57-1.78,6.16-3.77
				c2.08-2.63,3.37-5.82,4.07-9.07c0.11-0.47,0.32-1.23,0.27-1.72C126.17,63.69,126.16,63.64,126.14,63.59z M243.91,61.53
				c-3.15,2.4-5.93,6.05-6.5,10.06c-0.33,2.25-0.02,4.57,0.58,6.75c0.49,0.06,1.29-0.59,1.67-0.88c2.74-2.15,4.28-5.99,4.68-9.36
				C244.48,66.98,244.54,62.42,243.91,61.53z M249.28,78.56l-0.13-0.04c-4.8,1.68-9.03,4.34-11.29,9.08
				c-0.47,1.02-1.27,3.14-1.06,4.28c0.07,0.05,0.13,0.11,0.21,0.14c1.89,0.14,4.96-1.89,6.36-3.08c2.72-2.31,4.54-5.25,5.5-8.68
				c0.13-0.47,0.34-1.02,0.42-1.51C249.31,78.67,249.3,78.63,249.28,78.56z M235.66,110.06c-3.26,0.32-6.21,1.68-8.33,4.23
				c-0.5,0.59-0.95,1.22-1.33,1.89c2.28,1.26,5.1,1.11,7.57,0.53c3.95-1,6.83-3.25,10.06-5.55
				C241.27,110.56,238.08,109.67,235.66,110.06z M247.46,95.04c-4.59,0.42-9.29,1.99-12.3,5.66c-1.09,1.33-2.08,3.08-2.66,4.71
				c0.34,0.02,0.69,0.07,1.03,0.07c4.31-0.07,7.99-2.11,10.95-5.16c1.57-1.6,2.7-3.42,3.81-5.35L247.46,95.04z M234.74,57.13
				c-0.12-0.3-0.25-0.59-0.38-0.89c-0.13-0.28-0.27-0.58-0.42-0.85c-0.14-0.28-0.3-0.57-0.45-0.85c-0.15-0.27-0.32-0.55-0.5-0.82
				c-0.17-0.26-0.34-0.53-0.52-0.79c-0.19-0.26-0.38-0.51-0.57-0.77c-0.2-0.25-0.4-0.5-0.6-0.74c-0.21-0.25-0.43-0.49-0.64-0.72
				c-0.31-0.32-0.68-0.76-1.08-0.97c-1.29,4.4-0.98,9.36,1.23,13.4c0.57,1.04,2.74,4.08,3.85,4.38c0.11,0.02,0.08,0,0.2-0.07
				C236.27,64.21,236,60.33,234.74,57.13z M224.34,103.33c-0.58-2.18-1.7-4.09-3.17-5.8c-0.28-0.33-0.64-0.79-1.02-1.02
				c-1.62,4.28-2.76,9.39-0.81,13.75c0.43,0.95,1.83,3.31,2.82,3.66c0.12,0.05,0.12,0.04,0.23,0.05c0.08-0.08,0.17-0.15,0.23-0.25
				C224.6,110.32,225.39,107.24,224.34,103.33z"/>
			<path class="st64" d="M134.33,121.97c-0.3-0.25-0.59-0.51-0.89-0.78c-0.28-0.26-0.58-0.53-0.87-0.79
				c-0.28-0.27-0.57-0.55-0.85-0.83c-0.27-0.27-0.56-0.55-0.83-0.83c-0.27-0.28-0.55-0.57-0.82-0.85s-0.53-0.58-0.79-0.88
				c-0.27-0.28-0.53-0.58-0.78-0.89c-0.26-0.3-0.52-0.59-0.77-0.9c-0.25-0.3-0.5-0.6-0.75-0.91c-0.24-0.31-0.49-0.63-0.72-0.94
				c-0.24-0.31-0.47-0.63-0.7-0.95c-0.24-0.32-0.46-0.64-0.69-0.96c-0.23-0.33-0.45-0.65-0.66-0.98c-0.23-0.32-0.44-0.65-0.65-0.98
				c-0.21-0.33-0.42-0.66-0.62-1.01c-0.21-0.33-0.42-0.68-0.6-1.02c-0.2-0.33-0.4-0.68-0.59-1.02c-0.19-0.34-0.38-0.7-0.56-1.04
				c-0.19-0.36-0.37-0.7-0.55-1.06c-0.17-0.36-0.34-0.7-0.51-1.06c-0.18-0.37-0.34-0.72-0.5-1.08c-0.17-0.36-0.32-0.72-0.47-1.08
				c-0.15-0.37-0.31-0.74-0.45-1.1c-0.15-0.36-0.3-0.72-0.43-1.09c-0.14-0.38-0.28-0.75-0.42-1.11c-0.13-0.37-0.26-0.75-0.38-1.13
				c-0.12-0.37-0.25-0.75-0.36-1.11c-0.12-0.38-0.24-0.76-0.34-1.14c-0.11-0.38-0.21-0.76-0.31-1.14c-0.11-0.38-0.2-0.77-0.3-1.15
				c-0.08-0.38-0.18-0.77-0.26-1.15c-0.45-2.04-0.84-4.09-1.04-6.17c-0.36-3.76-0.28-7.45-0.02-11.21c0.06-0.84,0.51-4.26,0.37-4.76
				c-0.71,1.41-0.96,3.4-1.21,4.97c-1.35,8.52-0.39,17.1,2.31,25.26c2.54,7.69,6.84,14.46,12.1,20.56c1.23,1.42,2.69,2.66,3.89,4.09
				c0.46-0.15,0.93-0.31,1.39-0.49l1.54-0.52C134.93,122.49,134.62,122.23,134.33,121.97z M236.97,79.02
				c-0.08-2.61-0.81-8.34-2.03-10.5c0.34,3.24,0.76,6.4,0.79,9.67c0.12,13.34-4.36,25.85-12.7,36.24c-2.37,2.94-4.95,5.62-7.72,8.18
				c0.64,0.24,1.29,0.46,1.93,0.72c0.42,0.17,0.82,0.33,1.23,0.49c2.19-2.36,4.17-4.89,6.1-7.47c2.49-3.34,4.83-6.83,6.7-10.57
				C235.4,97.62,237.3,88.14,236.97,79.02z"/>
			
				<linearGradient id="SVGID_00000111874466812156673550000017499467101431444152_" gradientUnits="userSpaceOnUse" x1="168.1223" y1="104.7925" x2="183.6082" y2="150.724">
				<stop  offset="0" style="stop-color:#7D1823"/>
				<stop  offset="1" style="stop-color:#B52D38"/>
			</linearGradient>
			<path style="fill:url(#SVGID_00000111874466812156673550000017499467101431444152_);" d="M140.26,134.1
				c-1.99-1.33-4.61-1.57-6.94-1.42c-2.6,0.15-4.67,0.91-7.12,1.62c3.91-1.96,9.06-4.19,13.44-2.72c1.38,0.46,2.48,1.32,3.49,2.34
				c2.11-1.38,6.7-2.94,9.22-3.11c-2.15-2.12-5.69-5.46-7.09-8.03c-1.64,0.04-3.24,0.14-4.84,0.46c-3.51,0.69-6.76,2.08-10.08,3.36
				c-4.31,1.65-8.73,2.88-13.37,2.88c-2.83-0.01-5.59-0.49-8.21-1.6c-1.34-0.56-2.47-1.44-3.72-2.15c2.09,2.27,4.12,4.52,6.71,6.23
				c6.4,4.21,18.47,5.91,26.07,6.57c2.7,0.24,5.41,0.34,8.11,0.55c-1.13-1-2.24-2-3.34-3.02
				C141.83,135.38,141.1,134.66,140.26,134.1z M242.12,127.66c-6.43,3.13-13.91,1.84-20.38-0.49c-3.43-1.23-6.72-2.76-10.26-3.71
				c-1.23-0.34-2.49-0.57-3.77-0.69c-0.81-0.07-1.62-0.06-2.44-0.15c-2.32,2.83-4.78,5.56-7.34,8.2c2.55,0.21,6.87,1.86,8.8,3.43
				c1.71-1.45,3.69-2.37,5.89-2.78c3.91-0.72,8.28,0.56,11.53,2.79c-2.28-0.93-4.41-1.53-6.9-1.61c-6.32-0.2-9.01,2.79-13.29,6.8
				c0.24-0.01,0.49-0.01,0.72-0.04c3.18-0.23,6.38-0.65,9.54-1.07c7.07-0.94,18.03-2.42,24.1-6.14c2.78-1.71,4.89-4.13,6.99-6.56
				C244.29,126.39,243.27,127.1,242.12,127.66z"/>
			<path class="st64" d="M175.15,146.46c1.61-0.78,3.2-1.6,4.76-2.46c1.56-0.87,3.1-1.78,4.61-2.73c1.51-0.96,2.99-1.95,4.45-3
				c1.45-1.04,2.88-2.12,4.27-3.25c1.1-0.88,2.13-1.82,3.16-2.79c0.49-0.46,0.99-1.03,1.53-1.42c2.54,0.22,6.86,1.86,8.79,3.43
				c-0.89,0.84-1.79,1.66-2.7,2.47c-0.91,0.81-1.84,1.61-2.77,2.4c-0.94,0.79-1.88,1.56-2.84,2.31c-0.96,0.76-1.93,1.5-2.91,2.23
				c-0.98,0.73-1.97,1.44-2.97,2.15c-1,0.7-2.01,1.39-3.03,2.06c-1.02,0.67-2.05,1.33-3.09,1.97c-1.04,0.64-2.09,1.27-3.14,1.88
				c-2.66,1.57-5.4,3-8.2,4.3c-11.64-5.32-22.63-13.34-31.94-22.08c2.11-1.38,6.7-2.94,9.21-3.1c5.71,5.22,11.17,9.38,17.94,13.15
				C171.86,144.85,173.47,145.78,175.15,146.46z"/>
			<path class="st64" d="M195.69,82.3c-0.46-0.89-1.2-1.68-1.81-2.48c-2.03-2.63-4.07-5.3-6.56-7.53
				c-4.14-3.75-7.69-5.56-13.39-5.27c-0.11,0-0.07,0-0.17,0.01c-6.43,0.6-11.47,5.42-15.41,10.16c-1.08,1.29-4.26,5.11-4.04,6.71
				c0.15,1.2,5.43,6.27,6.59,7.45c1.44-0.45,2.92-0.85,4.34-1.36c-0.97-1.33-4.8-5.61-4.54-7.08c0.06-0.34,0.27-0.65,0.51-0.91
				c0.95-1.04,3.95-3.24,5.19-4.08c0.58,3.87,1.35,7.73,1.27,11.65c3.02-0.5,6.42-0.76,9.46-0.45c1.52,0.05,3,0.25,4.49,0.45
				c0.84-3.87,1.29-7.83,2.16-11.68c1.22,0.91,5.47,3.88,6.06,4.82c0.13,1.17-3.96,6.34-4.87,7.54c1.54,0.37,2.98,0.81,4.46,1.36
				c1.34-1.41,2.67-2.83,3.97-4.28c0.74-0.81,1.61-1.64,2.19-2.57c0.25-0.39,0.43-0.78,0.42-1.27
				C196.01,83.07,195.88,82.66,195.69,82.3z"/>
			<path class="st64" d="M151.19,77.68c-0.19-0.83-0.7-1.58-1.43-2c-0.64-0.38-1.34-0.46-2.06-0.42c-0.96,0.19-1.74,0.57-2.29,1.42
				c-0.49,0.75-0.62,1.68-0.43,2.55c0.19,0.84,0.7,1.6,1.46,2.04c0.64,0.38,1.35,0.47,2.08,0.4c0.94-0.2,1.72-0.59,2.25-1.42
				C151.25,79.51,151.39,78.55,151.19,77.68z M160.95,65.7c0-0.05-0.01-0.11-0.02-0.15c0-0.06-0.01-0.12-0.02-0.17
				c-0.01-0.05-0.02-0.11-0.04-0.15c-0.01-0.06-0.04-0.11-0.05-0.17c-0.02-0.05-0.04-0.09-0.06-0.15c-0.01-0.05-0.04-0.09-0.05-0.14
				c-0.02-0.05-0.05-0.09-0.07-0.14c-0.02-0.05-0.05-0.09-0.07-0.14c-0.02-0.05-0.06-0.09-0.08-0.13c-0.02-0.05-0.06-0.09-0.08-0.13
				c-0.04-0.05-0.06-0.09-0.09-0.13c-0.04-0.05-0.07-0.08-0.11-0.12c-0.02-0.05-0.06-0.08-0.11-0.12c-0.04-0.04-0.07-0.07-0.11-0.11
				c-0.04-0.04-0.07-0.07-0.12-0.11c-0.04-0.04-0.08-0.07-0.12-0.11c-0.05-0.02-0.08-0.06-0.13-0.08c-0.05-0.04-0.08-0.06-0.13-0.08
				c-0.05-0.04-0.09-0.06-0.14-0.08c-0.05-0.02-0.09-0.05-0.14-0.07c-0.05-0.02-0.09-0.05-0.14-0.06c-0.57-0.24-1.14-0.27-1.74-0.21
				c-0.89,0.19-1.61,0.52-2.13,1.32c-0.47,0.72-0.62,1.65-0.44,2.49c0.01,0.06,0.02,0.11,0.04,0.15c0.01,0.06,0.02,0.11,0.05,0.17
				c0.01,0.05,0.02,0.09,0.05,0.14c0.02,0.06,0.04,0.11,0.06,0.15c0.02,0.05,0.05,0.09,0.07,0.14c0.02,0.06,0.05,0.11,0.07,0.15
				c0.04,0.04,0.06,0.08,0.08,0.13c0.04,0.05,0.06,0.09,0.09,0.14c0.04,0.04,0.06,0.08,0.09,0.13c0.04,0.04,0.07,0.08,0.11,0.12
				c0.04,0.04,0.07,0.08,0.11,0.12c0.04,0.04,0.07,0.07,0.12,0.12c0.04,0.04,0.08,0.07,0.12,0.11c0.05,0.04,0.08,0.06,0.13,0.09
				c0.04,0.04,0.08,0.06,0.13,0.09c0.05,0.04,0.08,0.06,0.13,0.08c0.71,0.44,1.48,0.55,2.29,0.42c0.95-0.33,1.71-0.82,2.16-1.76
				c0.02-0.06,0.05-0.11,0.07-0.15c0.02-0.05,0.04-0.09,0.06-0.15c0.02-0.05,0.04-0.09,0.05-0.15c0.02-0.05,0.04-0.11,0.05-0.15
				c0.01-0.06,0.02-0.11,0.04-0.17c0.01-0.05,0.02-0.11,0.02-0.15c0.01-0.06,0.02-0.11,0.02-0.17c0.01-0.05,0.01-0.11,0.01-0.15
				v-0.33C160.96,65.81,160.95,65.76,160.95,65.7z M182.05,57.08c-0.01-0.12-0.02-0.23-0.05-0.34c-0.25-1.87-1.34-3.56-2.85-4.67
				c-1.14-0.84-2.76-1.42-4.2-1.27c-2,0.14-3.69,0.82-5.03,2.36c-0.07,0.08-0.14,0.17-0.21,0.26c-0.07,0.08-0.14,0.18-0.2,0.27
				c-0.07,0.09-0.13,0.19-0.19,0.28c-0.06,0.09-0.12,0.19-0.18,0.28c-0.06,0.11-0.11,0.2-0.17,0.31c-0.05,0.09-0.09,0.2-0.14,0.31
				c-0.05,0.11-0.09,0.2-0.13,0.31c-0.05,0.11-0.08,0.21-0.12,0.32c-0.04,0.12-0.07,0.23-0.09,0.33c-0.04,0.11-0.06,0.23-0.09,0.33
				c-0.02,0.11-0.05,0.23-0.06,0.33c-0.02,0.12-0.04,0.23-0.05,0.34c-0.02,0.11-0.04,0.23-0.04,0.33c-0.01,0.12-0.02,0.23-0.02,0.34
				v0.34c0,0.11,0.01,0.23,0.02,0.34c0,0.11,0.01,0.23,0.02,0.33c0.02,0.12,0.04,0.23,0.06,0.34c0.01,0.11,0.04,0.21,0.06,0.33
				c0.02,0.11,0.06,0.21,0.08,0.32c0.04,0.12,0.07,0.23,0.11,0.33c0.04,0.11,0.07,0.21,0.11,0.32c0.05,0.11,0.08,0.21,0.13,0.31
				c0.05,0.11,0.09,0.21,0.15,0.31c0.05,0.11,0.11,0.2,0.15,0.31c0.06,0.09,0.12,0.19,0.18,0.28c0.06,0.09,0.13,0.19,0.19,0.28
				c0.07,0.09,0.13,0.19,0.2,0.27c0.07,0.09,0.14,0.18,0.21,0.26c0.08,0.09,0.15,0.18,0.24,0.26l0.24,0.24
				c0.08,0.07,0.17,0.15,0.25,0.23c1.4,1.2,3.12,1.73,4.96,1.7c2.05-0.27,3.75-1,5.04-2.68c0.07-0.09,0.14-0.19,0.2-0.28
				c0.07-0.09,0.13-0.19,0.19-0.28c0.06-0.11,0.12-0.2,0.18-0.3c0.06-0.11,0.11-0.21,0.17-0.31c0.05-0.11,0.09-0.21,0.14-0.32
				c0.05-0.11,0.08-0.21,0.13-0.32c0.04-0.11,0.07-0.21,0.11-0.32c0.04-0.12,0.07-0.23,0.09-0.34c0.04-0.11,0.06-0.21,0.08-0.33
				c0.02-0.11,0.05-0.23,0.06-0.34c0.02-0.11,0.04-0.23,0.05-0.34c0.01-0.11,0.02-0.23,0.02-0.34c0.01-0.11,0.01-0.23,0.01-0.34
				v-0.34C182.06,57.31,182.06,57.2,182.05,57.08z M195.14,65.36c-0.23-0.84-0.76-1.55-1.53-1.96c-0.56-0.3-1.15-0.39-1.77-0.38
				c-0.96,0.19-1.77,0.56-2.35,1.39c-0.04,0.04-0.06,0.08-0.09,0.13c-0.02,0.05-0.05,0.09-0.08,0.14c-0.02,0.05-0.05,0.09-0.07,0.14
				c-0.02,0.05-0.05,0.11-0.07,0.15c-0.02,0.05-0.05,0.09-0.06,0.15c-0.02,0.05-0.04,0.09-0.06,0.15c-0.01,0.05-0.04,0.09-0.05,0.15
				c-0.01,0.05-0.02,0.11-0.04,0.15c-0.01,0.06-0.02,0.11-0.04,0.17c0,0.05-0.01,0.11-0.02,0.17c0,0.05,0,0.11-0.01,0.15v0.33
				c0,0.06,0,0.11,0.01,0.17c0,0.05,0.01,0.11,0.01,0.17c0.01,0.05,0.02,0.11,0.02,0.15c0.17,0.85,0.66,1.65,1.39,2.13
				c0.68,0.46,1.39,0.56,2.19,0.53c0.93-0.24,1.72-0.63,2.24-1.48C195.27,67.28,195.39,66.27,195.14,65.36z M204.99,78.01
				c-0.01-0.05-0.01-0.11-0.02-0.17c-0.01-0.06-0.02-0.11-0.04-0.17c-0.01-0.06-0.02-0.11-0.04-0.17c-0.01-0.06-0.02-0.11-0.05-0.17
				c-0.01-0.05-0.04-0.11-0.06-0.15c-0.04-0.09-0.07-0.19-0.12-0.28c-0.04-0.08-0.08-0.18-0.14-0.26c-0.05-0.08-0.11-0.17-0.17-0.24
				c-0.06-0.08-0.13-0.17-0.2-0.24c-0.06-0.07-0.14-0.14-0.21-0.2c-0.07-0.07-0.15-0.13-0.24-0.19c-0.08-0.06-0.17-0.12-0.25-0.17
				c-0.08-0.05-0.18-0.09-0.26-0.13c-0.69-0.31-1.36-0.28-2.09-0.23c-0.9,0.33-1.6,0.79-2.03,1.68c-0.4,0.82-0.42,1.8-0.08,2.66
				c0.04,0.08,0.07,0.18,0.12,0.27c0.05,0.08,0.09,0.17,0.14,0.25c0.06,0.09,0.12,0.17,0.18,0.25c0.06,0.08,0.13,0.15,0.19,0.23
				c0.07,0.07,0.14,0.14,0.23,0.2c0.07,0.07,0.15,0.13,0.24,0.19c0.08,0.05,0.17,0.11,0.25,0.15c0.08,0.05,0.18,0.09,0.27,0.13
				c0.68,0.3,1.38,0.31,2.1,0.19c0.85-0.31,1.54-0.77,1.96-1.62c0.02-0.05,0.05-0.09,0.07-0.15c0.02-0.05,0.04-0.11,0.06-0.15
				c0.02-0.06,0.04-0.11,0.06-0.17c0.01-0.05,0.02-0.11,0.05-0.17c0.01-0.05,0.02-0.11,0.04-0.17c0.01-0.05,0.02-0.11,0.02-0.17
				c0.01-0.06,0.02-0.11,0.02-0.17c0-0.06,0.01-0.12,0.01-0.18v-0.33C205,78.13,204.99,78.07,204.99,78.01z"/>
			<path class="st64" d="M220.16,50.72c-3.38-0.72-6.75-1.76-10.01-2.91c-0.64-0.23-1.28-0.45-1.92-0.69
				c-0.64-0.24-1.28-0.49-1.91-0.74c-0.64-0.25-1.27-0.51-1.9-0.77c-0.63-0.27-1.26-0.55-1.89-0.82c-0.62-0.28-1.23-0.57-1.85-0.87
				c-0.62-0.28-1.23-0.59-1.85-0.9c-0.6-0.31-1.21-0.62-1.81-0.94c-0.6-0.32-1.2-0.65-1.79-0.98c-0.6-0.33-1.19-0.68-1.78-1.02
				c-0.59-0.34-1.17-0.7-1.76-1.07c-0.58-0.36-1.15-0.72-1.72-1.1c-0.57-0.37-1.14-0.75-1.71-1.14c-0.56-0.38-1.11-0.77-1.67-1.17
				c-0.56-0.4-1.1-0.81-1.65-1.21c-0.55-0.42-1.09-0.83-1.62-1.26s-1.07-0.85-1.59-1.29c-1.66-1.38-3.23-2.87-4.7-4.46
				c-0.58-0.65-1.26-1.83-1.89-2.3c-7.77,9.38-19.03,16.38-30.19,21.04c-2.38,1-4.8,1.91-7.25,2.74c-2.45,0.84-4.92,1.6-7.42,2.28
				c-3.45,19.45-1.41,39.92,7.79,57.57c1.7,3.17,3.57,6.21,5.65,9.16c6.82,9.77,16.05,17.73,26.32,23.68
				c0.98,0.57,4.34,2.54,5.28,2.78c1.7-1.04,3.49-1.93,5.21-2.93c2.96-1.71,5.91-3.63,8.66-5.66c12.12-8.98,21.82-22.31,27.09-36.41
				c1.36-3.64,2.35-7.45,3.26-11.22C222.35,76.41,222.79,62.5,220.16,50.72z M212.35,92.44c-0.14,0.49-0.28,0.97-0.44,1.46
				c-0.15,0.49-0.31,0.97-0.47,1.46c-0.17,0.49-0.33,0.96-0.51,1.45c-0.17,0.49-0.34,0.96-0.53,1.44c-0.18,0.47-0.37,0.95-0.56,1.42
				c-0.2,0.47-0.39,0.95-0.59,1.41c-0.2,0.47-0.42,0.94-0.63,1.4c-0.21,0.47-0.43,0.94-0.65,1.39c-0.21,0.46-0.45,0.93-0.68,1.38
				c-0.24,0.45-0.46,0.91-0.71,1.36c-0.24,0.45-0.49,0.89-0.74,1.34c-0.25,0.44-0.5,0.89-0.76,1.33c-0.26,0.44-0.52,0.88-0.79,1.32
				c-0.27,0.43-0.55,0.87-0.82,1.29s-0.56,0.85-0.84,1.28c-0.28,0.42-0.58,0.84-0.88,1.26c-0.3,0.42-0.59,0.83-0.89,1.25
				c-0.31,0.4-0.62,0.82-0.93,1.22c-0.31,0.4-0.63,0.81-0.95,1.2c-0.32,0.4-0.64,0.79-0.97,1.19c-0.33,0.39-0.66,0.78-1,1.16
				c-0.34,0.39-0.68,0.77-1.02,1.15c-0.34,0.37-0.7,0.75-1.04,1.11c-0.36,0.37-0.71,0.74-1.07,1.1c-0.37,0.36-0.72,0.72-1.09,1.08
				c-0.37,0.36-0.74,0.7-1.11,1.06c-0.37,0.34-0.75,0.69-1.13,1.03c-0.39,0.33-0.77,0.66-1.16,1c-0.39,0.33-0.78,0.66-1.17,0.98
				c-0.39,0.33-0.79,0.65-1.2,0.96c-0.4,0.32-0.81,0.63-1.21,0.94c-0.4,0.31-0.82,0.6-1.23,0.91c-3.01,2.17-6.2,4.03-9.46,5.81
				c-2.68-1.52-5.35-3.08-7.9-4.82c-0.47-0.32-0.95-0.65-1.41-0.98c-0.46-0.33-0.93-0.68-1.39-1.02c-0.45-0.34-0.91-0.69-1.35-1.04
				c-0.45-0.36-0.9-0.71-1.34-1.08c-0.44-0.36-0.88-0.72-1.32-1.1c-0.43-0.38-0.85-0.76-1.28-1.14c-0.43-0.38-0.84-0.77-1.26-1.16
				c-0.42-0.4-0.83-0.79-1.23-1.2c-0.42-0.4-0.81-0.81-1.21-1.22c-0.39-0.42-0.78-0.83-1.17-1.26c-0.39-0.42-0.77-0.84-1.15-1.27
				c-0.38-0.44-0.75-0.87-1.11-1.3c-0.37-0.44-0.74-0.88-1.09-1.33s-0.71-0.9-1.06-1.35c-0.34-0.46-0.69-0.91-1.02-1.38
				c-0.34-0.46-0.68-0.94-1-1.4c-9.49-13.9-13.73-30.44-13.16-47.18c0.12-3.45,0.32-7.04,0.96-10.44c1.64-0.37,3.26-0.95,4.86-1.47
				c12.09-3.91,25.66-11.28,34.68-20.34c2.15,2.28,4.6,4.26,7.12,6.12c1.04,0.78,2.11,1.54,3.19,2.28c1.08,0.74,2.17,1.45,3.29,2.13
				c1.1,0.69,2.23,1.35,3.37,2c1.14,0.64,2.29,1.26,3.45,1.85c1.16,0.6,2.34,1.17,3.53,1.72c1.19,0.55,2.38,1.07,3.59,1.57
				c1.21,0.5,2.42,0.96,3.65,1.41c1.23,0.45,2.47,0.87,3.71,1.26c1.52,0.47,3.05,0.98,4.6,1.3
				C216.48,68.3,215.97,80.21,212.35,92.44z"/>
			<path d="M214.66,55.73c-1.55-0.32-3.08-0.83-4.6-1.3c-1.25-0.39-2.48-0.81-3.71-1.26c-1.23-0.45-2.44-0.91-3.65-1.41
				c-1.21-0.5-2.41-1.02-3.59-1.57c-1.2-0.55-2.37-1.11-3.53-1.72c-1.16-0.59-2.31-1.21-3.45-1.85c-1.14-0.65-2.27-1.32-3.37-2
				c-1.11-0.69-2.21-1.4-3.29-2.13c-1.08-0.74-2.15-1.49-3.19-2.28c-2.51-1.86-4.97-3.84-7.12-6.12
				c-9.01,9.06-22.59,16.43-34.68,20.34c-1.6,0.52-3.23,1.1-4.86,1.47c-0.64,3.39-0.84,6.99-0.96,10.44
				c-0.57,16.73,3.68,33.28,13.16,47.18c0.32,0.46,0.65,0.94,1,1.4c0.33,0.46,0.68,0.91,1.02,1.38c0.34,0.45,0.7,0.9,1.06,1.35
				s0.72,0.89,1.09,1.33c0.37,0.44,0.74,0.87,1.11,1.3c0.38,0.43,0.76,0.85,1.15,1.27c0.39,0.43,0.78,0.84,1.17,1.26
				c0.4,0.42,0.79,0.82,1.21,1.22c0.4,0.4,0.82,0.79,1.23,1.2c0.42,0.39,0.83,0.78,1.26,1.16c0.43,0.38,0.85,0.76,1.28,1.14
				c0.44,0.38,0.88,0.75,1.32,1.1c0.44,0.37,0.89,0.72,1.34,1.08c0.44,0.36,0.9,0.7,1.35,1.04c0.46,0.34,0.93,0.69,1.39,1.02
				c0.46,0.33,0.94,0.66,1.41,0.98c2.55,1.73,5.22,3.3,7.9,4.82c3.26-1.78,6.45-3.64,9.46-5.81c0.42-0.31,0.83-0.6,1.23-0.91
				c0.4-0.31,0.81-0.62,1.21-0.94c0.4-0.31,0.81-0.63,1.2-0.96c0.39-0.32,0.78-0.65,1.17-0.98c0.39-0.33,0.77-0.66,1.16-1
				c0.38-0.34,0.76-0.69,1.13-1.03c0.38-0.36,0.75-0.7,1.11-1.06c0.37-0.36,0.72-0.72,1.09-1.08c0.36-0.37,0.71-0.74,1.07-1.1
				c0.34-0.37,0.7-0.75,1.04-1.11c0.34-0.38,0.68-0.76,1.02-1.15c0.33-0.38,0.66-0.77,1-1.16c0.33-0.39,0.65-0.78,0.97-1.19
				c0.32-0.39,0.64-0.79,0.95-1.2c0.31-0.4,0.62-0.82,0.93-1.22c0.3-0.42,0.59-0.83,0.89-1.25c0.3-0.42,0.59-0.84,0.88-1.26
				c0.28-0.43,0.57-0.85,0.84-1.28s0.55-0.87,0.82-1.29c0.27-0.44,0.53-0.88,0.79-1.32c0.26-0.44,0.51-0.89,0.76-1.33
				c0.25-0.45,0.5-0.89,0.74-1.34c0.25-0.45,0.47-0.91,0.71-1.36c0.23-0.45,0.46-0.91,0.68-1.38c0.23-0.45,0.44-0.91,0.65-1.39
				c0.21-0.46,0.43-0.93,0.63-1.4c0.2-0.46,0.39-0.94,0.59-1.41c0.19-0.47,0.38-0.95,0.56-1.42c0.19-0.47,0.37-0.95,0.53-1.44
				c0.18-0.49,0.34-0.96,0.51-1.45c0.17-0.49,0.32-0.97,0.47-1.46c0.15-0.49,0.3-0.97,0.44-1.46
				C215.97,80.21,216.48,68.3,214.66,55.73z M150.76,80.26c-0.53,0.83-1.32,1.22-2.25,1.42c-0.72,0.07-1.43-0.02-2.08-0.4
				c-0.76-0.44-1.27-1.2-1.46-2.04c-0.19-0.87-0.06-1.8,0.43-2.55c0.55-0.85,1.33-1.23,2.29-1.42c0.72-0.05,1.42,0.04,2.06,0.42
				c0.74,0.43,1.25,1.17,1.43,2C151.39,78.55,151.25,79.51,150.76,80.26z M188.91,66.08c0.01-0.05,0.01-0.11,0.01-0.15
				c0.01-0.06,0.02-0.12,0.02-0.17c0.01-0.06,0.02-0.11,0.04-0.17c0.01-0.05,0.02-0.11,0.04-0.15c0.01-0.06,0.04-0.11,0.05-0.15
				c0.02-0.06,0.04-0.11,0.06-0.15c0.01-0.06,0.04-0.11,0.06-0.15c0.02-0.05,0.05-0.11,0.07-0.15c0.02-0.05,0.05-0.09,0.07-0.14
				c0.04-0.05,0.06-0.09,0.08-0.14c0.04-0.05,0.06-0.09,0.09-0.13c0.58-0.83,1.39-1.2,2.35-1.39c0.62-0.01,1.21,0.08,1.77,0.38
				c0.77,0.4,1.3,1.11,1.53,1.96c0.25,0.91,0.13,1.92-0.37,2.73c-0.52,0.85-1.32,1.25-2.24,1.48c-0.81,0.02-1.52-0.07-2.19-0.53
				c-0.72-0.49-1.22-1.28-1.39-2.13c0-0.05-0.01-0.11-0.02-0.15c0-0.06-0.01-0.12-0.01-0.17c-0.01-0.06-0.01-0.11-0.01-0.17V66.08z
				 M168.23,57.52c0-0.12,0.01-0.23,0.02-0.34c0-0.11,0.01-0.23,0.04-0.33c0.01-0.12,0.02-0.23,0.05-0.34
				c0.01-0.11,0.04-0.23,0.06-0.33c0.04-0.11,0.06-0.23,0.09-0.33c0.02-0.11,0.06-0.21,0.09-0.33c0.04-0.11,0.07-0.21,0.12-0.32
				c0.04-0.11,0.08-0.2,0.13-0.31c0.05-0.11,0.09-0.21,0.14-0.31c0.06-0.11,0.11-0.2,0.17-0.31c0.06-0.09,0.12-0.19,0.18-0.28
				c0.06-0.09,0.12-0.19,0.19-0.28c0.06-0.09,0.13-0.19,0.2-0.27c0.07-0.09,0.14-0.18,0.21-0.26c1.34-1.54,3.02-2.22,5.03-2.36
				c1.43-0.15,3.06,0.43,4.2,1.27c1.51,1.11,2.6,2.8,2.85,4.67c0.02,0.12,0.04,0.23,0.05,0.34c0.01,0.12,0.01,0.23,0.02,0.34v0.34
				c0,0.12,0,0.24-0.01,0.34c0,0.12-0.01,0.24-0.02,0.34c-0.01,0.12-0.02,0.24-0.05,0.34c-0.01,0.12-0.04,0.24-0.06,0.34
				c-0.02,0.12-0.05,0.23-0.08,0.33c-0.02,0.12-0.06,0.23-0.09,0.34c-0.04,0.11-0.07,0.21-0.11,0.32c-0.05,0.11-0.08,0.21-0.13,0.32
				c-0.05,0.11-0.09,0.21-0.14,0.32c-0.06,0.09-0.11,0.2-0.17,0.31c-0.06,0.09-0.12,0.19-0.18,0.3c-0.06,0.09-0.12,0.19-0.19,0.28
				c-0.06,0.09-0.13,0.19-0.2,0.28c-1.29,1.68-2.99,2.41-5.04,2.68c-1.84,0.04-3.56-0.5-4.96-1.7c-0.08-0.07-0.17-0.15-0.25-0.23
				l-0.24-0.24c-0.08-0.08-0.15-0.17-0.24-0.26c-0.07-0.08-0.14-0.17-0.21-0.26c-0.07-0.08-0.13-0.18-0.2-0.27
				c-0.06-0.09-0.13-0.19-0.19-0.28c-0.06-0.09-0.12-0.19-0.18-0.28c-0.05-0.11-0.11-0.2-0.15-0.31c-0.06-0.09-0.11-0.2-0.15-0.31
				c-0.05-0.09-0.08-0.2-0.13-0.31c-0.04-0.11-0.07-0.21-0.11-0.32c-0.04-0.11-0.07-0.21-0.11-0.33c-0.02-0.11-0.06-0.21-0.08-0.32
				c-0.02-0.12-0.05-0.23-0.06-0.33c-0.02-0.12-0.04-0.23-0.06-0.34c-0.01-0.11-0.02-0.23-0.02-0.33c-0.01-0.12-0.02-0.24-0.02-0.34
				V57.52z M155.19,64.26c0.52-0.79,1.25-1.13,2.13-1.32c0.6-0.06,1.17-0.02,1.74,0.21c0.05,0.01,0.09,0.04,0.14,0.06
				c0.05,0.02,0.09,0.05,0.14,0.07c0.05,0.02,0.09,0.05,0.14,0.08c0.05,0.02,0.08,0.05,0.13,0.08c0.05,0.02,0.08,0.06,0.13,0.08
				c0.04,0.04,0.08,0.07,0.12,0.11c0.05,0.04,0.08,0.07,0.12,0.11c0.04,0.04,0.07,0.07,0.11,0.11c0.05,0.04,0.08,0.07,0.11,0.12
				c0.04,0.04,0.07,0.07,0.11,0.12c0.04,0.04,0.06,0.08,0.09,0.13c0.02,0.04,0.06,0.08,0.08,0.13c0.02,0.04,0.06,0.08,0.08,0.13
				c0.02,0.05,0.05,0.09,0.07,0.14c0.02,0.05,0.05,0.09,0.07,0.14c0.01,0.05,0.04,0.09,0.05,0.14c0.02,0.06,0.04,0.11,0.06,0.15
				c0.01,0.06,0.04,0.11,0.05,0.17c0.01,0.05,0.02,0.11,0.04,0.15c0.01,0.05,0.02,0.11,0.02,0.17c0.01,0.05,0.02,0.11,0.02,0.15
				c0,0.06,0.01,0.11,0.01,0.17v0.33c0,0.05,0,0.11-0.01,0.15c0,0.06-0.01,0.11-0.02,0.17c0,0.05-0.01,0.11-0.02,0.15
				c-0.01,0.06-0.02,0.11-0.04,0.17c-0.01,0.05-0.02,0.11-0.05,0.15c-0.01,0.06-0.02,0.11-0.05,0.15c-0.02,0.06-0.04,0.11-0.06,0.15
				c-0.02,0.05-0.05,0.09-0.07,0.15c-0.45,0.94-1.21,1.42-2.16,1.76c-0.81,0.13-1.58,0.02-2.29-0.42c-0.05-0.02-0.08-0.05-0.13-0.08
				c-0.05-0.04-0.09-0.06-0.13-0.09c-0.05-0.04-0.08-0.06-0.13-0.09c-0.04-0.04-0.08-0.07-0.12-0.11c-0.05-0.05-0.08-0.08-0.12-0.12
				c-0.04-0.04-0.07-0.08-0.11-0.12c-0.04-0.04-0.07-0.08-0.11-0.12c-0.04-0.05-0.06-0.09-0.09-0.13c-0.04-0.05-0.06-0.09-0.09-0.14
				c-0.02-0.05-0.05-0.09-0.08-0.13c-0.02-0.05-0.05-0.09-0.07-0.15c-0.02-0.05-0.05-0.09-0.07-0.14c-0.02-0.05-0.04-0.09-0.06-0.15
				c-0.02-0.05-0.04-0.09-0.05-0.14c-0.02-0.06-0.04-0.11-0.05-0.17c-0.01-0.05-0.02-0.09-0.04-0.15
				C154.57,65.9,154.71,64.98,155.19,64.26z M158.35,77.2c3.94-4.74,8.98-9.56,15.41-10.16c0.09-0.01,0.06-0.01,0.17-0.01
				c5.7-0.3,9.25,1.52,13.39,5.27c2.49,2.23,4.53,4.9,6.56,7.53c0.62,0.79,1.35,1.59,1.81,2.48c0.19,0.37,0.32,0.77,0.33,1.19
				c0.01,0.49-0.17,0.88-0.42,1.27c-0.58,0.94-1.46,1.77-2.19,2.57c-1.3,1.45-2.63,2.87-3.97,4.28c-1.48-0.56-2.92-1-4.46-1.36
				c0.91-1.2,5-6.37,4.87-7.54c-0.59-0.94-4.84-3.9-6.06-4.82c-0.87,3.85-1.32,7.82-2.16,11.68c-1.49-0.2-2.98-0.4-4.49-0.45
				c-3.05-0.31-6.44-0.05-9.46,0.45c0.08-3.91-0.69-7.78-1.27-11.65c-1.25,0.84-4.25,3.04-5.19,4.08c-0.24,0.26-0.45,0.57-0.51,0.91
				c-0.26,1.47,3.57,5.75,4.54,7.08c-1.42,0.51-2.91,0.91-4.34,1.36c-1.16-1.17-6.44-6.25-6.59-7.45
				C154.1,82.31,157.28,78.49,158.35,77.2z M190.08,115.49c-0.59,0.76-1.19,1.55-1.86,2.24c-3.31,4.01-8.6,8.31-13.05,10.99
				c-3.7-2.25-7.53-5.28-10.54-8.4c-0.3-0.28-0.58-0.58-0.88-0.88c-0.28-0.31-0.57-0.6-0.85-0.91c-0.27-0.31-0.56-0.62-0.83-0.94
				c-0.27-0.31-0.53-0.63-0.79-0.95c-0.27-0.32-0.52-0.65-0.78-0.97c-0.25-0.33-0.5-0.66-0.75-1.01c-0.25-0.33-0.49-0.68-0.72-1.02
				c-0.23-0.34-0.46-0.69-0.69-1.03c-0.23-0.36-0.45-0.7-0.66-1.06c-0.21-0.36-0.43-0.72-0.63-1.08c-0.2-0.36-0.4-0.72-0.6-1.09
				c-0.19-0.37-0.38-0.74-0.57-1.11c-0.19-0.37-0.37-0.75-0.55-1.11c-0.17-0.38-0.34-0.76-0.51-1.14c-0.15-0.39-0.32-0.77-0.47-1.16
				c-0.15-0.38-0.3-0.77-0.44-1.16c-0.78-2.08-1.45-4.23-1.68-6.44c3.77-3.15,8.6-4.98,13.31-6.2c2.57-0.66,5.3-0.95,7.96-1.03
				c9.27-0.3,16.7,2.22,24.61,6.87C197.42,103.35,194.02,110.41,190.08,115.49z M205,78.52c0,0.06-0.01,0.12-0.01,0.18
				c0,0.06-0.01,0.11-0.02,0.17c0,0.06-0.01,0.12-0.02,0.17c-0.01,0.06-0.02,0.12-0.04,0.17c-0.02,0.06-0.04,0.12-0.05,0.17
				c-0.02,0.06-0.04,0.11-0.06,0.17c-0.02,0.05-0.04,0.11-0.06,0.15c-0.02,0.06-0.05,0.11-0.07,0.15c-0.42,0.85-1.1,1.32-1.96,1.62
				c-0.72,0.12-1.42,0.11-2.1-0.19c-0.09-0.04-0.19-0.08-0.27-0.13c-0.08-0.05-0.17-0.11-0.25-0.15c-0.08-0.06-0.17-0.12-0.24-0.19
				c-0.08-0.06-0.15-0.13-0.23-0.2c-0.06-0.07-0.13-0.14-0.19-0.23c-0.06-0.08-0.12-0.15-0.18-0.25c-0.05-0.08-0.09-0.17-0.14-0.25
				c-0.05-0.09-0.08-0.19-0.12-0.27c-0.33-0.85-0.32-1.84,0.08-2.66c0.43-0.89,1.13-1.35,2.03-1.68c0.72-0.06,1.4-0.08,2.09,0.23
				c0.08,0.04,0.18,0.08,0.26,0.13c0.08,0.05,0.17,0.11,0.25,0.17c0.08,0.06,0.17,0.12,0.24,0.19c0.07,0.06,0.15,0.13,0.21,0.2
				c0.07,0.07,0.14,0.15,0.2,0.24c0.06,0.07,0.12,0.15,0.17,0.24c0.06,0.08,0.11,0.18,0.14,0.26c0.05,0.09,0.08,0.19,0.12,0.28
				c0.02,0.05,0.05,0.11,0.06,0.15c0.02,0.06,0.04,0.11,0.05,0.17c0.01,0.06,0.02,0.11,0.04,0.17c0.01,0.06,0.02,0.11,0.04,0.17
				c0.01,0.06,0.01,0.12,0.02,0.17c0,0.06,0.01,0.12,0.01,0.18V78.52z"/>
			<path class="st62" d="M151.19,77.68c0.2,0.86,0.05,1.83-0.43,2.57c-0.54,0.83-1.31,1.22-2.25,1.41c-0.73,0.07-1.44-0.02-2.08-0.4
				c-0.75-0.44-1.27-1.2-1.45-2.04c-0.19-0.87-0.06-1.8,0.42-2.55c0.55-0.86,1.33-1.23,2.29-1.42c0.72-0.05,1.42,0.04,2.06,0.41
				C150.49,76.11,151,76.86,151.19,77.68z M154.78,66.91c0.01,0.05,0.03,0.1,0.04,0.16s0.03,0.1,0.05,0.15
				c0.02,0.05,0.04,0.1,0.06,0.15c0.02,0.05,0.04,0.1,0.07,0.15c0.02,0.05,0.05,0.1,0.08,0.14c0.03,0.05,0.05,0.09,0.08,0.14
				c0.03,0.05,0.06,0.09,0.09,0.13c0.03,0.04,0.06,0.09,0.1,0.13c0.03,0.04,0.07,0.08,0.1,0.12c0.04,0.04,0.07,0.08,0.11,0.12
				c0.04,0.04,0.08,0.08,0.12,0.11c0.04,0.04,0.08,0.07,0.12,0.11c0.04,0.03,0.08,0.07,0.13,0.1c0.04,0.03,0.09,0.06,0.13,0.09
				c0.04,0.03,0.09,0.06,0.14,0.09c0.7,0.43,1.47,0.54,2.28,0.42c0.95-0.34,1.71-0.82,2.17-1.76c0.02-0.05,0.05-0.1,0.07-0.15
				c0.02-0.05,0.04-0.1,0.06-0.15c0.02-0.05,0.04-0.1,0.05-0.16c0.02-0.05,0.03-0.1,0.04-0.16c0.01-0.05,0.03-0.11,0.04-0.16
				c0.01-0.05,0.02-0.11,0.03-0.16c0.01-0.05,0.01-0.11,0.02-0.16c0.01-0.05,0.01-0.11,0.01-0.16c0-0.05,0-0.11,0-0.16
				c0-0.05,0-0.11,0-0.16c0-0.05-0.01-0.11-0.01-0.16c-0.01-0.05-0.01-0.11-0.02-0.16c-0.01-0.05-0.02-0.11-0.03-0.16
				c-0.01-0.05-0.02-0.11-0.04-0.16c-0.01-0.05-0.03-0.1-0.04-0.16c-0.02-0.05-0.03-0.1-0.05-0.15c-0.02-0.05-0.04-0.1-0.06-0.15
				s-0.04-0.1-0.07-0.14c-0.02-0.05-0.05-0.09-0.07-0.14c-0.03-0.05-0.05-0.09-0.08-0.14c-0.03-0.04-0.06-0.09-0.09-0.13
				c-0.03-0.04-0.06-0.09-0.09-0.13c-0.03-0.04-0.07-0.08-0.1-0.12c-0.03-0.04-0.07-0.08-0.11-0.12c-0.04-0.04-0.07-0.07-0.11-0.11
				c-0.04-0.04-0.08-0.07-0.12-0.1c-0.04-0.03-0.08-0.07-0.12-0.1c-0.04-0.03-0.08-0.06-0.13-0.09c-0.04-0.03-0.09-0.06-0.13-0.09
				c-0.04-0.03-0.09-0.05-0.14-0.08c-0.05-0.02-0.09-0.05-0.14-0.07c-0.05-0.02-0.1-0.04-0.14-0.06c-0.57-0.23-1.14-0.27-1.75-0.21
				c-0.89,0.19-1.61,0.53-2.13,1.31c-0.48,0.73-0.62,1.65-0.45,2.5C154.76,66.8,154.77,66.85,154.78,66.91z M168.25,58.2
				c0.01,0.11,0.02,0.23,0.03,0.34c0.01,0.11,0.03,0.22,0.05,0.34c0.02,0.11,0.04,0.22,0.07,0.33c0.02,0.11,0.05,0.22,0.08,0.33
				c0.03,0.11,0.06,0.22,0.1,0.33c0.04,0.11,0.07,0.21,0.12,0.32c0.04,0.11,0.08,0.21,0.13,0.31c0.05,0.1,0.09,0.21,0.15,0.31
				c0.05,0.1,0.11,0.2,0.16,0.3c0.06,0.1,0.12,0.2,0.18,0.29c0.06,0.1,0.12,0.19,0.19,0.28c0.07,0.09,0.13,0.18,0.2,0.27
				s0.14,0.18,0.22,0.26c0.07,0.09,0.15,0.17,0.23,0.25c0.08,0.08,0.16,0.16,0.24,0.24c0.08,0.08,0.17,0.15,0.25,0.23
				c1.4,1.2,3.12,1.73,4.95,1.7c2.06-0.28,3.75-1,5.04-2.68c0.07-0.09,0.14-0.18,0.2-0.28c0.07-0.09,0.13-0.19,0.19-0.29
				c0.06-0.1,0.12-0.2,0.18-0.3c0.06-0.1,0.11-0.2,0.16-0.31c0.05-0.1,0.1-0.21,0.15-0.31c0.05-0.11,0.09-0.21,0.13-0.32
				c0.04-0.11,0.08-0.22,0.11-0.33c0.04-0.11,0.07-0.22,0.1-0.33c0.03-0.11,0.06-0.22,0.08-0.34c0.02-0.11,0.04-0.23,0.06-0.34
				c0.02-0.11,0.03-0.23,0.05-0.34c0.01-0.12,0.02-0.23,0.03-0.35c0.01-0.12,0.01-0.23,0.01-0.35c0-0.12,0-0.23-0.01-0.35
				c0-0.12-0.01-0.23-0.02-0.35c-0.01-0.12-0.02-0.23-0.04-0.34c-0.26-1.87-1.35-3.55-2.85-4.67c-1.14-0.85-2.77-1.42-4.2-1.28
				c-2,0.15-3.68,0.83-5.02,2.36c-0.07,0.09-0.15,0.17-0.22,0.26c-0.07,0.09-0.14,0.18-0.2,0.27c-0.07,0.09-0.13,0.19-0.19,0.28
				c-0.06,0.1-0.12,0.19-0.18,0.29c-0.06,0.1-0.11,0.2-0.16,0.3c-0.05,0.1-0.1,0.2-0.15,0.31c-0.05,0.1-0.09,0.21-0.13,0.31
				c-0.04,0.11-0.08,0.21-0.12,0.32c-0.04,0.11-0.07,0.22-0.1,0.33c-0.03,0.11-0.06,0.22-0.08,0.33c-0.03,0.11-0.05,0.22-0.07,0.33
				c-0.02,0.11-0.04,0.22-0.05,0.34c-0.01,0.11-0.03,0.23-0.03,0.34c-0.01,0.11-0.01,0.23-0.02,0.34c0,0.11,0,0.23,0,0.34
				C168.24,57.98,168.24,58.09,168.25,58.2z M188.91,66.58c0,0.05,0.01,0.11,0.02,0.16c0.01,0.05,0.02,0.11,0.03,0.16
				c0.16,0.86,0.66,1.65,1.39,2.14c0.68,0.45,1.39,0.55,2.19,0.52c0.93-0.23,1.72-0.63,2.24-1.47c0.5-0.81,0.62-1.82,0.38-2.73
				c-0.22-0.84-0.77-1.55-1.54-1.96c-0.56-0.29-1.14-0.39-1.77-0.37c-0.96,0.19-1.77,0.55-2.35,1.38c-0.03,0.04-0.06,0.09-0.09,0.14
				c-0.03,0.05-0.06,0.09-0.08,0.14c-0.03,0.05-0.05,0.1-0.08,0.15c-0.02,0.05-0.05,0.1-0.07,0.15c-0.02,0.05-0.04,0.1-0.06,0.15
				c-0.02,0.05-0.04,0.1-0.05,0.15c-0.02,0.05-0.03,0.1-0.05,0.16c-0.01,0.05-0.03,0.11-0.04,0.16c-0.01,0.05-0.02,0.11-0.03,0.16
				c-0.01,0.05-0.02,0.11-0.02,0.16c-0.01,0.05-0.01,0.11-0.01,0.16c0,0.05-0.01,0.11-0.01,0.16c0,0.05,0,0.11,0,0.16
				C188.91,66.47,188.91,66.52,188.91,66.58z M205,78.19c0-0.06-0.01-0.11-0.01-0.17c-0.01-0.06-0.01-0.11-0.02-0.17
				c-0.01-0.06-0.02-0.11-0.03-0.17c-0.01-0.06-0.02-0.11-0.04-0.17c-0.01-0.06-0.03-0.11-0.05-0.16c-0.02-0.05-0.04-0.11-0.06-0.16
				c-0.04-0.09-0.08-0.19-0.12-0.28c-0.04-0.09-0.09-0.18-0.15-0.26c-0.05-0.09-0.11-0.17-0.17-0.25c-0.06-0.08-0.13-0.16-0.19-0.23
				c-0.07-0.07-0.14-0.14-0.22-0.21c-0.08-0.07-0.15-0.13-0.24-0.19c-0.08-0.06-0.17-0.11-0.25-0.16c-0.09-0.05-0.18-0.1-0.27-0.14
				c-0.69-0.31-1.36-0.28-2.08-0.22c-0.89,0.33-1.6,0.79-2.03,1.68c-0.39,0.82-0.41,1.81-0.08,2.65c0.04,0.09,0.08,0.18,0.12,0.27
				c0.04,0.09,0.09,0.18,0.15,0.26c0.05,0.08,0.11,0.17,0.17,0.24c0.06,0.08,0.13,0.15,0.2,0.22c0.07,0.07,0.14,0.14,0.22,0.2
				c0.08,0.06,0.15,0.12,0.24,0.18c0.08,0.06,0.17,0.11,0.25,0.16c0.09,0.05,0.18,0.09,0.27,0.13c0.68,0.3,1.38,0.32,2.1,0.19
				c0.86-0.31,1.54-0.77,1.96-1.62c0.02-0.05,0.05-0.1,0.07-0.16c0.02-0.05,0.04-0.11,0.06-0.16c0.02-0.05,0.04-0.11,0.05-0.16
				c0.02-0.05,0.03-0.11,0.05-0.16c0.01-0.06,0.03-0.11,0.04-0.17c0.01-0.06,0.02-0.11,0.03-0.17c0.01-0.06,0.01-0.11,0.02-0.17
				c0.01-0.06,0.01-0.11,0.01-0.17c0-0.06,0-0.11,0-0.17C205,78.3,205,78.25,205,78.19z"/>
			<path class="st66" d="M195.6,84.76c-0.58,0.93-1.46,1.76-2.19,2.57c-1.3,1.45-2.63,2.87-3.97,4.28c-1.48-0.55-2.92-1-4.45-1.37
				c0.91-1.19,5-6.36,4.88-7.53c-0.59-0.95-4.84-3.91-6.06-4.82c-0.86,3.86-1.32,7.81-2.15,11.68c-1.5-0.2-2.99-0.41-4.5-0.45
				c-3.05-0.31-6.44-0.05-9.46,0.45c0.08-3.91-0.7-7.79-1.27-11.64c-1.24,0.83-4.25,3.03-5.2,4.08c-0.23,0.25-0.44,0.57-0.5,0.91
				c-0.26,1.47,3.56,5.76,4.54,7.08c-1.42,0.51-2.9,0.92-4.35,1.37c-1.16-1.18-6.43-6.25-6.59-7.45c-0.22-1.61,2.97-5.43,4.05-6.72
				c3.94-4.74,8.98-9.56,15.41-10.16c0.09-0.02,0.05-0.01,0.16-0.02c5.7-0.3,9.25,1.52,13.4,5.26c2.48,2.24,4.52,4.9,6.56,7.53
				c0.61,0.79,1.35,1.59,1.81,2.48c0.19,0.37,0.32,0.77,0.33,1.18C196.03,83.96,195.85,84.35,195.6,84.76z"/>
			
				<radialGradient id="SVGID_00000142143406439109080330000011010975268979399336_" cx="175.1481" cy="109.365" r="21.2243" gradientUnits="userSpaceOnUse">
				<stop  offset="0" style="stop-color:#FFFFFF"/>
				<stop  offset="1" style="stop-color:#005F00"/>
			</radialGradient>
			<path style="fill:url(#SVGID_00000142143406439109080330000011010975268979399336_);" d="M173.48,90.03
				c-2.66,0.08-5.38,0.37-7.96,1.03c-4.71,1.22-9.54,3.05-13.31,6.2c0.24,2.21,0.9,4.36,1.68,6.44c0.14,0.39,0.28,0.78,0.44,1.16
				c0.15,0.39,0.32,0.77,0.47,1.16c0.17,0.38,0.34,0.76,0.51,1.14c0.18,0.37,0.36,0.75,0.55,1.11c0.19,0.38,0.38,0.75,0.57,1.11
				c0.2,0.37,0.4,0.74,0.6,1.09c0.2,0.36,0.42,0.72,0.63,1.08c0.21,0.36,0.44,0.7,0.66,1.06c0.23,0.34,0.46,0.69,0.69,1.03
				c0.24,0.34,0.47,0.69,0.72,1.02c0.25,0.34,0.5,0.68,0.75,1.01c0.26,0.32,0.51,0.65,0.78,0.97c0.26,0.32,0.52,0.64,0.79,0.95
				c0.27,0.32,0.56,0.63,0.83,0.94c0.28,0.31,0.57,0.6,0.85,0.91c0.3,0.3,0.58,0.59,0.88,0.88c3.01,3.12,6.84,6.14,10.54,8.4
				c4.45-2.68,9.74-6.99,13.05-10.99c0.68-0.69,1.27-1.48,1.86-2.24c3.94-5.08,7.34-12.14,8.01-18.6
				C190.17,92.25,182.75,89.73,173.48,90.03z M172.24,102.2c0.04-2.21,0-4.41,0-6.62l5.56-0.02l0.05,6.7l5.86-0.05
				c0.04,1.78,0.06,3.56,0.06,5.34l-6-0.01l0.01,5.79l-0.04,0.18c-0.62,0.24-4.54,0.08-5.47,0.08l0.05-6.08l-5.78,0.01l-0.04-5.33
				L172.24,102.2z M193.7,104.66c-0.33,0.84-0.69,1.67-1.08,2.49c-0.39,0.82-0.82,1.62-1.26,2.42c-0.45,0.79-0.93,1.57-1.42,2.32
				c-0.63,0.93-1.28,1.83-1.96,2.72c-0.44,0.55-0.93,1.09-1.3,1.67l-0.07,0.11c-3.21,3.55-7.28,7.26-11.41,9.68
				c-1.22-0.77-2.4-1.58-3.55-2.44c-1.15-0.87-2.27-1.78-3.34-2.73c-0.91-0.82-1.73-1.74-2.64-2.54c-1.07-1.33-2.27-2.51-3.3-3.87
				c-2.45-3.23-4.54-6.96-5.97-10.77c-0.66-1.77-1.17-3.59-1.8-5.37c1.48-0.84,3.2-2.05,4.85-2.45c-1.38,0.81-2.74,1.6-3.91,2.72
				c2.19,7.48,5.78,14.09,11.28,19.65c0.93,0.94,1.96,2.16,3.06,2.86c0.85,1.02,4.06,3.17,5.29,3.94c0.9-0.53,3.1-1.86,3.71-2.63
				c0.07-0.05,0.08-0.05,0.17-0.09c1.04-0.71,2.03-1.67,2.96-2.51c0.95-0.87,1.86-1.76,2.74-2.68c0.88-0.94,1.72-1.9,2.51-2.89
				c3.37-4.31,6.38-10.08,7.45-15.47c-1.09-1.15-2.57-1.91-3.81-2.89c1.61,0.77,3.08,1.8,4.71,2.54c-0.38,1.2-0.63,2.45-1,3.66
				C194.34,102.95,194.03,103.81,193.7,104.66z"/>
		</g>
	</g>
</g>
</svg>
