<?xml version="1.0" encoding="utf-8"?>
<!-- Generator: Adobe Illustrator 27.8.1, SVG Export Plug-In . SVG Version: 6.00 Build 0)  -->
<svg version="1.1" id="Layer_1" xmlns="http://www.w3.org/2000/svg" xmlns:xlink="http://www.w3.org/1999/xlink" x="0px" y="0px"
	 viewBox="0 0 350 230" style="enable-background:new 0 0 350 230;" xml:space="preserve">
<style type="text/css">
	.st0{fill:#FBFFA4;}
	.st1{fill:#001F21;}
	.st2{fill:#330000;}
	.st3{fill:#330032;}
	.st4{fill:#A6FFD4;}
	.st5{fill:#EBFFAE;}
	.st6{fill:#80F9B7;}
	.st7{fill:#344C00;}
	.st8{fill:#B6FFAB;}
	.st9{fill:#003233;}
	.st10{fill:#00004F;}
	.st11{fill:#001738;}
	.st12{fill:#3F0101;}
	.st13{fill:#005066;}
	.st14{fill:#008EAF;}
	.st15{fill:#B8FF66;}
	.st16{fill:#00A4FF;}
	.st17{fill:#315103;}
	.st18{fill:#036AFF;}
	.st19{fill:#F033FF;}
	.st20{fill:#0768AA;}
	.st21{fill:#5000FF;}
	.st22{fill:#116F8C;}
	.st23{fill:#490000;}
	.st24{fill:#0F343A;}
	.st25{fill:#97A50E;}
	.st26{fill:#1893B1;}
	.st27{fill:#8F00FF;}
	.st28{fill:#8D7200;}
	.st29{fill:#005042;}
	.st30{fill:#00DEFF;}
	.st31{fill-rule:evenodd;clip-rule:evenodd;fill:#00C3FF;}
	.st32{fill-rule:evenodd;clip-rule:evenodd;fill:#005B59;}
	.st33{fill:#AF412B;}
	.st34{fill:#4D0F00;}
	.st35{fill:#295FA6;}
	.st36{fill:#595959;}
	.st37{fill:#BF0413;}
	.st38{fill:#2A95BF;}
	.st39{fill-rule:evenodd;clip-rule:evenodd;fill:#4DBC06;}
	.st40{fill:#491D00;}
	.st41{fill-rule:evenodd;clip-rule:evenodd;fill:url(#SVGID_1_);}
	
		.st42{fill-rule:evenodd;clip-rule:evenodd;fill:url(#SVGID_00000024700035137132274710000010995207424935689881_);filter:url(#Adobe_OpacityMaskFilter);}
	.st43{mask:url(#id0_00000053509760411226441150000009272896516690596251_);fill-rule:evenodd;clip-rule:evenodd;fill:#C86400;}
	
		.st44{fill-rule:evenodd;clip-rule:evenodd;fill:url(#SVGID_00000132066925396073172910000007385105346809227699_);filter:url(#Adobe_OpacityMaskFilter_00000022561287133488494200000017389006539043732615_);}
	.st45{mask:url(#id2_00000097460445656356757680000013689570596422617517_);fill-rule:evenodd;clip-rule:evenodd;fill:#873A2C;}
	.st46{fill-rule:evenodd;clip-rule:evenodd;fill:url(#SVGID_00000178168694640334133640000003409730145293402554_);}
	
		.st47{fill-rule:evenodd;clip-rule:evenodd;fill:url(#SVGID_00000102532290953523830220000015124287850770277557_);filter:url(#Adobe_OpacityMaskFilter_00000011723909916287287750000003863097637780856211_);}
	.st48{mask:url(#id4_00000028285511050207866650000012788801848242998168_);fill-rule:evenodd;clip-rule:evenodd;fill:#003780;}
	.st49{fill-rule:evenodd;clip-rule:evenodd;fill:url(#SVGID_00000111154695071417135580000012455984596891716533_);}
	.st50{fill-rule:evenodd;clip-rule:evenodd;fill:url(#SVGID_00000032609657349187300480000012493705726632012945_);}
	.st51{fill:url(#SVGID_00000126292458786391381590000014564641914415377040_);}
	.st52{fill:url(#SVGID_00000010303543900101224290000011926147516237957811_);}
	.st53{fill:url(#SVGID_00000047032746896539387710000016549058451405360031_);}
	.st54{fill:url(#SVGID_00000032629947912920060260000014139705917133339306_);}
	.st55{fill-rule:evenodd;clip-rule:evenodd;fill:#E2DE8D;}
	.st56{fill-rule:evenodd;clip-rule:evenodd;fill:url(#SVGID_00000078765037861395690070000013441135980941637513_);}
	.st57{fill-rule:evenodd;clip-rule:evenodd;fill:url(#SVGID_00000029735283008762846230000010601320388463670169_);}
	.st58{fill-rule:evenodd;clip-rule:evenodd;fill:url(#SVGID_00000028284074288228342670000016351054327938911125_);}
	.st59{fill-rule:evenodd;clip-rule:evenodd;fill:url(#SVGID_00000114770938101618956210000012357765467287357831_);}
	.st60{fill-rule:evenodd;clip-rule:evenodd;fill:url(#SVGID_00000022549456727736155980000006159667397619971256_);}
	.st61{fill-rule:evenodd;clip-rule:evenodd;fill:url(#SVGID_00000175319312270107179640000016203936357250541440_);}
	.st62{fill-rule:evenodd;clip-rule:evenodd;fill:url(#SVGID_00000084519695704793083120000005401781866117430975_);}
	.st63{fill:url(#SVGID_00000045603386163049193570000000317283812106391194_);}
	.st64{fill:url(#SVGID_00000116956947105437292740000011086387117434018435_);}
	.st65{fill:url(#SVGID_00000147196322920726442010000010504389762554914479_);}
	.st66{fill:#494949;}
	.st67{opacity:0.91;fill:url(#SVGID_00000021819661249534100250000003508529567300700813_);}
	.st68{opacity:0.91;fill:url(#SVGID_00000032615603274361145350000002833781797395297673_);}
	.st69{fill:#684342;}
	.st70{fill:#FC7745;}
	.st71{fill:#F9CD52;}
	.st72{fill:#F4A878;}
	.st73{fill:#E98E60;}
	.st74{fill:#83BF73;}
	.st75{fill:#D27752;}
	.st76{fill:#E0B03C;}
	.st77{fill:#E45553;}
	.st78{fill-rule:evenodd;clip-rule:evenodd;fill:#D1D8F5;}
	.st79{fill-rule:evenodd;clip-rule:evenodd;fill:#A0ADF9;}
	.st80{fill-rule:evenodd;clip-rule:evenodd;fill:#000534;}
	.st81{fill-rule:evenodd;clip-rule:evenodd;fill:#F6C48E;}
	.st82{fill-rule:evenodd;clip-rule:evenodd;fill:#FBE6A7;}
	.st83{fill-rule:evenodd;clip-rule:evenodd;fill:#FFFFFF;}
	.st84{fill-rule:evenodd;clip-rule:evenodd;fill:#CCCCCC;}
	.st85{fill-rule:evenodd;clip-rule:evenodd;fill:#D32425;}
	.st86{fill-rule:evenodd;clip-rule:evenodd;fill:#FC4631;}
	.st87{fill-rule:evenodd;clip-rule:evenodd;fill:#60266F;}
	.st88{fill-rule:evenodd;clip-rule:evenodd;fill:#B178B6;}
	.st89{fill-rule:evenodd;clip-rule:evenodd;fill:#401A59;}
	.st90{fill-rule:evenodd;clip-rule:evenodd;fill:#518D4F;}
	.st91{fill-rule:evenodd;clip-rule:evenodd;fill:#C6E094;}
	.st92{fill-rule:evenodd;clip-rule:evenodd;fill:#E9AA76;}
	.st93{fill-rule:evenodd;clip-rule:evenodd;fill:#297F99;}
	.st94{fill-rule:evenodd;clip-rule:evenodd;fill:#24AAD2;}
	.st95{fill-rule:evenodd;clip-rule:evenodd;fill:#EC7D99;}
	.st96{fill-rule:evenodd;clip-rule:evenodd;}
	.st97{fill-rule:evenodd;clip-rule:evenodd;fill:#1A1E48;}
	.st98{fill:#FFFFFF;}
	.st99{fill:url(#SVGID_00000065042523864137686910000010263054075977450386_);}
	.st100{fill:#26A9E0;}
	.st101{fill:url(#SVGID_00000170989024639436510280000000397979733069288605_);}
	.st102{fill:url(#SVGID_00000032644919216222186160000000455012192275124405_);}
	.st103{fill:#F4F5F5;}
	.st104{fill:#325668;}
	.st105{fill:url(#SVGID_00000144301384750562985350000002622720239675507093_);}
	.st106{fill:url(#SVGID_00000078030546756563294850000009119598481238228890_);}
	.st107{fill:url(#SVGID_00000175316000594047904840000002117188378475054485_);}
	.st108{fill:#99A74E;}
	.st109{fill:url(#SVGID_00000124121427749835442370000011729206891577913766_);}
	.st110{fill:#F3B42D;}
	.st111{fill:#6BA14A;}
	.st112{fill:#FED265;}
	.st113{fill:#19692C;}
	.st114{fill:url(#SVGID_00000108268211566405860040000013707983972560024486_);}
	.st115{fill:#062716;}
	.st116{fill:url(#SVGID_00000069355918099307425970000002376642611541309590_);}
	.st117{opacity:0.35;enable-background:new    ;}
	.st118{fill:#4D7C4D;}
	.st119{fill:#F7E8A6;}
	.st120{opacity:0.55;fill:#2A3D2A;enable-background:new    ;}
	.st121{opacity:0.35;fill:#2A3D2A;enable-background:new    ;}
	.st122{fill:#F4EFDC;}
	.st123{fill:#DBD6C6;}
</style>
<g>
	<g>
		<g>
			<linearGradient id="SVGID_1_" gradientUnits="userSpaceOnUse" x1="108.3528" y1="124.929" x2="220.584" y2="60.7467">
				<stop  offset="0" style="stop-color:#FCB44F"/>
				<stop  offset="0.5327" style="stop-color:#DA1C5F"/>
				<stop  offset="1" style="stop-color:#6651C8"/>
			</linearGradient>
			<path style="fill:url(#SVGID_1_);" d="M189.92,80.94c3.03-2.49,5.31-4.24,9.07-6.89c-13.45-10.56-36.53,3.31-63.35-2.9
				c-26.83-6.22-30.9-25.79-24.63-40.93C111.59,43.4,128.79,56.84,158.3,56c33.21-0.94,43.8,9.6,43.8,9.6s2.77-2.97,6.3-5.6
				c-2.62,0.45-9.05-1.86-10.21-4.79c11.03,3.34,24.28,1.24,29.33,0.22c1.24-0.25,2.52,0.22,3.29,1.22
				c0.77,0.99,1.78,2.12,2.56,2.46c1.5,0.64,7.32,1.03,11.83,3.19c2.77,1.33,7.54,5.09,7.47,8.53c-8.02-4.01-18.11-1.47-25.56,2.89
				c-44.31,25.96-74.49,51.69-129.79,48.56C149.34,113.31,186.5,83.15,189.92,80.94z M195.02,74.78c-8.71-3.5-31.29,2.64-44.37,3.62
				c-20.47,1.55-34.86-4.99-37.65-12.49c0.77,18.3,17.08,23.1,38.46,19.94C170.75,83.01,184.44,74.57,195.02,74.78z M184.49,81.69
				c-2.78-0.46-14.18,6.39-35.25,10.2c-9.41,1.7-20.08,0.2-26.28-1.87c2.26,7.38,12.05,11.39,23.52,9.82
				C158.54,98.19,175.31,87.62,184.49,81.69z M145.07,142.55h15.81v-25.73c-5.11,1.95-10.35,3.66-15.81,5.09V142.55z M171.61,142.55
				h15.81v-38.21c-5.26,2.87-10.5,5.54-15.81,7.97V142.55z M118.48,142.55h15.81v-18.27c-5.04,0.92-10.29,1.6-15.81,2.02V142.55z
				 M198.15,142.55h15.81V88.89c-5.42,3.25-10.66,6.39-15.81,9.38V142.55z M224.69,82.51v60.04h15.81V76.38
				c-4.74,0.58-9.43,2.38-13.38,4.7C226.3,81.56,225.49,82.03,224.69,82.51z"/>
		</g>
		
			<linearGradient id="SVGID_00000035497795362412304590000012130468068402053259_" gradientUnits="userSpaceOnUse" x1="63.0881" y1="241.7474" x2="490.8706" y2="-152.6756">
			<stop  offset="0" style="stop-color:#FCB44F"/>
			<stop  offset="0.5327" style="stop-color:#DA1C5F"/>
			<stop  offset="1" style="stop-color:#6651C8"/>
		</linearGradient>
		<path style="fill:url(#SVGID_00000035497795362412304590000012130468068402053259_);" d="M145.07,121.91
			c5.46-1.43,10.7-3.14,15.81-5.09v25.73h-15.81V121.91z M171.61,142.55h15.81v-38.21c-5.26,2.87-10.5,5.54-15.81,7.97V142.55z
			 M118.48,142.55h15.81v-18.27c-5.04,0.92-10.29,1.6-15.81,2.02V142.55z M198.15,142.55h15.81V88.89
			c-5.42,3.25-10.66,6.39-15.81,9.38V142.55z M224.69,82.51v60.04h15.81V76.38c-4.74,0.58-9.43,2.38-13.38,4.7
			C226.3,81.56,225.49,82.03,224.69,82.51z"/>
	</g>
	
		<linearGradient id="SVGID_00000139983478352015947890000009465310574750994871_" gradientUnits="userSpaceOnUse" x1="63.3741" y1="254.0522" x2="434.0032" y2="-87.6744">
		<stop  offset="0" style="stop-color:#FCB44F"/>
		<stop  offset="0.5327" style="stop-color:#DA1C5F"/>
		<stop  offset="1" style="stop-color:#6651C8"/>
	</linearGradient>
	
		<rect x="97.32" y="149.39" style="fill:url(#SVGID_00000139983478352015947890000009465310574750994871_);" width="155.35" height="3.49"/>
</g>
</svg>
