<?xml version="1.0" encoding="utf-8"?>
<!-- Generator: Adobe Illustrator 27.8.1, SVG Export Plug-In . SVG Version: 6.00 Build 0)  -->
<svg version="1.1" id="Layer_1" xmlns="http://www.w3.org/2000/svg" xmlns:xlink="http://www.w3.org/1999/xlink" x="0px" y="0px"
	 viewBox="0 0 350 230" style="enable-background:new 0 0 350 230;" xml:space="preserve">
<style type="text/css">
	.st0{fill:#FFFFD9;}
	.st1{fill:#BDFDFF;}
	.st2{fill:#EDD2FF;}
	.st3{fill:#CE8FFF;}
	.st4{fill:#FAFFE6;}
	.st5{fill:#E1FFFE;}
	.st6{fill:#E1FFEF;}
	.st7{fill:#D2FCE3;}
	.st8{fill:#EFF9D4;}
	.st9{fill:#E3FFDE;}
	.st10{fill:#FCE6E6;}
	.st11{fill:#EDFFE9;}
	.st12{fill:#D4E8FF;}
	.st13{fill:#FFF3F3;}
	.st14{fill:#FBFFA4;}
	.st15{fill:#001F21;}
	.st16{fill:#330000;}
	.st17{fill:#330032;}
	.st18{fill:#A6FFD4;}
	.st19{fill:#EBFFAE;}
	.st20{fill:#80F9B7;}
	.st21{fill:#344C00;}
	.st22{fill:#B6FFAB;}
	.st23{fill:#003233;}
	.st24{fill:#00004F;}
	.st25{fill:#001738;}
	.st26{fill:#3F0101;}
	.st27{fill:#005066;}
	.st28{fill:#008EAF;}
	.st29{fill:#B8FF66;}
	.st30{fill:#00A4FF;}
	.st31{fill:#315103;}
	.st32{fill:#036AFF;}
	.st33{fill:#F033FF;}
	.st34{fill:#0768AA;}
	.st35{fill:#5000FF;}
	.st36{fill:#116F8C;}
	.st37{fill:#490000;}
	.st38{fill:#0F343A;}
	.st39{fill:#97A50E;}
	.st40{fill:#1893B1;}
	.st41{fill:#8F00FF;}
	.st42{fill:#8D7200;}
	.st43{fill:#005042;}
	.st44{fill:#00DEFF;}
	.st45{fill-rule:evenodd;clip-rule:evenodd;fill:#00C3FF;}
	.st46{fill-rule:evenodd;clip-rule:evenodd;fill:#005B59;}
	.st47{fill:#AF412B;}
	.st48{fill:#4D0F00;}
	.st49{fill:#295FA6;}
	.st50{fill:#595959;}
	.st51{fill:#BF0413;}
	.st52{fill:#2A95BF;}
	.st53{fill-rule:evenodd;clip-rule:evenodd;fill:#4DBC06;}
	.st54{fill:#491D00;}
	.st55{fill-rule:evenodd;clip-rule:evenodd;fill:url(#SVGID_1_);}
	
		.st56{fill-rule:evenodd;clip-rule:evenodd;fill:url(#SVGID_00000032606483862693880450000010779042208529058229_);filter:url(#Adobe_OpacityMaskFilter);}
	.st57{mask:url(#id0_00000053509760411226441150000009272896516690596251_);fill-rule:evenodd;clip-rule:evenodd;fill:#C86400;}
	
		.st58{fill-rule:evenodd;clip-rule:evenodd;fill:url(#SVGID_00000148644481517626334270000017897984238528034963_);filter:url(#Adobe_OpacityMaskFilter_00000068662067458382746940000004209719982688664478_);}
	.st59{mask:url(#id2_00000097460445656356757680000013689570596422617517_);fill-rule:evenodd;clip-rule:evenodd;fill:#873A2C;}
	.st60{fill-rule:evenodd;clip-rule:evenodd;fill:url(#SVGID_00000072264477785413422310000010768496496878632840_);}
	
		.st61{fill-rule:evenodd;clip-rule:evenodd;fill:url(#SVGID_00000070088474804626107420000013195869112121886138_);filter:url(#Adobe_OpacityMaskFilter_00000070820071714107838310000012093134673510367363_);}
	.st62{mask:url(#id4_00000028285511050207866650000012788801848242998168_);fill-rule:evenodd;clip-rule:evenodd;fill:#003780;}
	.st63{fill-rule:evenodd;clip-rule:evenodd;fill:url(#SVGID_00000065756597436385903030000011201036270793396392_);}
	.st64{fill-rule:evenodd;clip-rule:evenodd;fill:url(#SVGID_00000125580275147497599500000001270656238224849537_);}
	.st65{fill:url(#SVGID_00000026877774053096536440000004619345855841594270_);}
	.st66{fill:url(#SVGID_00000083788132122776327490000013214835639100236947_);}
	.st67{fill:url(#SVGID_00000125572506471368269760000009299576640339335581_);}
	.st68{fill:url(#SVGID_00000132781122994282498080000017704678934009180032_);}
	.st69{fill-rule:evenodd;clip-rule:evenodd;fill:#E2DE8D;}
	.st70{fill-rule:evenodd;clip-rule:evenodd;fill:url(#SVGID_00000017494592401843605890000002565025975106715816_);}
	.st71{fill-rule:evenodd;clip-rule:evenodd;fill:url(#SVGID_00000176736619422825690690000016616860263192582792_);}
	.st72{fill-rule:evenodd;clip-rule:evenodd;fill:url(#SVGID_00000156562555239073789730000002514204207041016706_);}
	.st73{fill-rule:evenodd;clip-rule:evenodd;fill:url(#SVGID_00000116950397681845375750000011906259568126714037_);}
	.st74{fill-rule:evenodd;clip-rule:evenodd;fill:url(#SVGID_00000070839555098253418010000013351026869356757673_);}
	.st75{fill-rule:evenodd;clip-rule:evenodd;fill:url(#SVGID_00000054974120838640915610000008424452457588641982_);}
	.st76{fill-rule:evenodd;clip-rule:evenodd;fill:url(#SVGID_00000005969751396025962180000003981001350686093475_);}
	.st77{fill:url(#SVGID_00000024708643793440877670000005974272858566705342_);}
	.st78{fill:url(#SVGID_00000164513806108344288390000016019314252653856142_);}
	.st79{fill:url(#SVGID_00000080197691899842779700000012203890106312705449_);}
	.st80{fill:#494949;}
	.st81{opacity:0.91;fill:url(#SVGID_00000065058334184010483520000005947670651997599633_);}
	.st82{opacity:0.91;fill:url(#SVGID_00000066490993167096474260000005565950553828923532_);}
	.st83{fill:#684342;}
	.st84{fill:#FC7745;}
	.st85{fill:#F9CD52;}
	.st86{fill:#F4A878;}
	.st87{fill:#E98E60;}
	.st88{fill:#83BF73;}
	.st89{fill:#D27752;}
	.st90{fill:#E0B03C;}
	.st91{fill:#E45553;}
	.st92{fill-rule:evenodd;clip-rule:evenodd;fill:#D1D8F5;}
	.st93{fill-rule:evenodd;clip-rule:evenodd;fill:#A0ADF9;}
	.st94{fill-rule:evenodd;clip-rule:evenodd;fill:#000534;}
	.st95{fill-rule:evenodd;clip-rule:evenodd;fill:#F6C48E;}
	.st96{fill-rule:evenodd;clip-rule:evenodd;fill:#FBE6A7;}
	.st97{fill-rule:evenodd;clip-rule:evenodd;fill:#FFFFFF;}
	.st98{fill-rule:evenodd;clip-rule:evenodd;fill:#CCCCCC;}
	.st99{fill-rule:evenodd;clip-rule:evenodd;fill:#D32425;}
	.st100{fill-rule:evenodd;clip-rule:evenodd;fill:#FC4631;}
	.st101{fill-rule:evenodd;clip-rule:evenodd;fill:#60266F;}
	.st102{fill-rule:evenodd;clip-rule:evenodd;fill:#B178B6;}
	.st103{fill-rule:evenodd;clip-rule:evenodd;fill:#401A59;}
	.st104{fill-rule:evenodd;clip-rule:evenodd;fill:#518D4F;}
	.st105{fill-rule:evenodd;clip-rule:evenodd;fill:#C6E094;}
	.st106{fill-rule:evenodd;clip-rule:evenodd;fill:#E9AA76;}
	.st107{fill-rule:evenodd;clip-rule:evenodd;fill:#297F99;}
	.st108{fill-rule:evenodd;clip-rule:evenodd;fill:#24AAD2;}
	.st109{fill-rule:evenodd;clip-rule:evenodd;fill:#EC7D99;}
	.st110{fill-rule:evenodd;clip-rule:evenodd;}
	.st111{fill-rule:evenodd;clip-rule:evenodd;fill:#1A1E48;}
	.st112{fill:#FFFFFF;}
	.st113{fill:url(#SVGID_00000159464508744136448460000000964303720939804344_);}
	.st114{fill:#26A9E0;}
	.st115{fill:url(#SVGID_00000009591851753633505100000015332108936457773213_);}
	.st116{fill:url(#SVGID_00000067235730905090074530000001244311283280980152_);}
	.st117{fill:#F4F5F5;}
	.st118{fill:#325668;}
	.st119{fill:url(#SVGID_00000074417080340041412380000009924183300219473559_);}
	.st120{fill:url(#SVGID_00000128456142276879614470000017950211696110559880_);}
	.st121{fill:url(#SVGID_00000173156626876018771940000012911664566712634813_);}
	.st122{fill:#99A74E;}
	.st123{fill:url(#SVGID_00000047035992277458352630000012734328657040633265_);}
	.st124{fill:#F3B42D;}
	.st125{fill:#6BA14A;}
	.st126{fill:#FED265;}
	.st127{fill:#19692C;}
	.st128{fill:url(#SVGID_00000142152076701439838050000009556255678668538030_);}
	.st129{fill:#062716;}
	.st130{fill:url(#SVGID_00000090977318604878505020000011040658621266536106_);}
	.st131{opacity:0.35;enable-background:new    ;}
	.st132{fill:#4D7C4D;}
	.st133{fill:#F7E8A6;}
	.st134{opacity:0.55;fill:#2A3D2A;enable-background:new    ;}
	.st135{opacity:0.35;fill:#2A3D2A;enable-background:new    ;}
	.st136{fill:#F4EFDC;}
	.st137{fill:#DBD6C6;}
	.st138{fill:#929497;}
	.st139{fill:url(#SVGID_00000097475642092057522590000014743978718275979149_);}
	.st140{fill:#3171BC;}
	.st141{fill:url(#SVGID_00000060020056804001016490000012080001834342984127_);}
	.st142{fill:url(#SVGID_00000096042782523242344250000016514342921935675824_);}
	.st143{fill:url(#SVGID_00000136397538874000451280000014023932687791856516_);}
	.st144{fill:url(#SVGID_00000072247158739072476250000015831136637010364800_);}
	.st145{fill:url(#SVGID_00000026873926096791963950000014935394692342379661_);}
	.st146{fill:url(#SVGID_00000034780691124439479050000002644562174411671950_);}
	.st147{opacity:0.28;fill:url(#SVGID_00000060030505347603117760000001055909678523065762_);}
	.st148{fill:url(#SVGID_00000069356376233921526830000008831061806368226479_);}
	.st149{fill:#253E7C;}
	.st150{fill:#F26B17;}
	.st151{fill:url(#SVGID_00000144307281055227433550000002002507902571007366_);}
	.st152{fill:#111224;}
	.st153{fill:#9BD13D;}
	.st154{fill:#00A551;}
	.st155{fill:url(#SVGID_00000111163187398705955720000007467404424599356045_);}
	.st156{fill:#AAC737;}
	.st157{fill:#009ADE;}
	.st158{fill:url(#SVGID_00000065054313753193273540000008327652630894021014_);}
	.st159{fill:#525E72;}
	.st160{fill:#109FC4;}
	.st161{fill:#3FBFD9;}
	.st162{fill:#61308F;}
	.st163{fill:#996CAD;}
	.st164{fill:#C21A7D;}
	.st165{fill:#CA4F9C;}
	.st166{fill:#89C541;}
	.st167{fill:#C7D936;}
	.st168{fill:#A5CD39;}
	.st169{fill:url(#SVGID_00000079467741494261394230000002730312502402766740_);}
	.st170{fill:#35A7DD;}
	.st171{fill:#0071BC;}
	.st172{fill-rule:evenodd;clip-rule:evenodd;fill:#81BE32;}
	.st173{fill:#F2AF3A;}
	.st174{fill-rule:evenodd;clip-rule:evenodd;fill:#0071BC;}
	.st175{fill:#81BE32;}
	.st176{fill:url(#SVGID_00000060015764624466673770000017367838506741563560_);}
	.st177{fill:url(#SVGID_00000044871218404938330990000008325899448393213869_);}
	.st178{fill:#FF51FF;}
	.st179{fill:url(#SVGID_00000080167085950449027270000007463065888305820069_);}
	.st180{fill:url(#SVGID_00000018229614610518104670000015878575583520305072_);}
	.st181{fill:#F29120;}
	.st182{fill:url(#SVGID_00000147198983035712088060000011707803476951141797_);}
	.st183{fill:url(#SVGID_00000178188105586278950990000001655342786301353102_);}
	.st184{fill:url(#SVGID_00000077326578941092774550000003330149308610222721_);}
	.st185{fill:url(#SVGID_00000047039412611454100630000005800861887838484104_);}
	.st186{fill:#31600C;}
	.st187{fill:#374C09;}
	.st188{fill:#465B0E;}
	.st189{fill:#9B9B9B;}
	.st190{fill:#00ADEE;}
	.st191{fill:#262261;}
	.st192{fill:#2699C9;}
	.st193{fill:url(#SVGID_00000021110486413435608370000003052692272289591462_);}
	.st194{fill:url(#SVGID_00000121246634703256592570000012732021396238763682_);}
	.st195{fill:url(#SVGID_00000039847689280677559740000007269231883809145262_);}
	.st196{fill:url(#SVGID_00000018226219609830876910000000941184859212410533_);}
	.st197{fill:#87C144;}
	.st198{fill:#006096;}
	.st199{fill:#8BC53F;}
	.st200{fill:#2B388F;}
	.st201{fill:#1B53A3;}
	.st202{fill:url(#SVGID_00000047021714614974698860000002218391340345223858_);}
	.st203{fill:url(#XMLID_00000038410112971558538580000011606050410391409066_);}
	.st204{fill:url(#XMLID_00000088133879189983985930000011024200018999629477_);}
	.st205{fill:url(#SVGID_00000173876951413036424550000012754264422673992114_);}
</style>
<g>
	<path class="st153" d="M170.8,95.5c-0.27,20.71-7.21,40.82-21.16,58.48c-0.66,0.84-1.22,0.97-2.22,0.7
		c-26.33-7.09-46.04-29.71-49.51-56.87c-3.87-30.32,13.59-59.98,41.9-71.2c0.75-0.3,1.18-0.17,1.72,0.37
		c4.33,4.37,8.85,8.57,12.97,13.14c2.01,2.23,3.42,5.04,4.85,7.72C167.01,62.17,170.75,77.5,170.8,95.5z M228.69,48.69
		c-22.71-19-51.03-18.14-67.01-11.08c28.95,28.96,57.94,57.95,86.97,86.99C258.09,100.91,253.26,69.25,228.69,48.69z M154.61,155.2
		c26.04-18.94,38.5-52.57,31.09-83.96c-0.18-0.77-0.62-1.57-1.17-2.13c-5.91-5.98-11.87-11.92-17.82-17.87
		c-0.47-0.47-0.94-0.92-1.35-1.33c16.02,37.51,12.33,72.76-11.75,105.91C153.98,155.59,154.31,155.42,154.61,155.2z M158.91,156.73
		c1.06-0.15,2.22-0.07,3.16-0.49c25.8-11.61,43.04-38.94,42.42-67.19c-0.01-0.57-0.35-1.27-0.76-1.69
		c-4.22-4.29-8.49-8.54-12.75-12.79c-0.21-0.21-0.43-0.41-0.92-0.88c2.83,15.89,1.52,31.08-4.08,45.85
		c-5.61,14.79-14.75,27-27.22,36.75C158.81,156.44,158.86,156.58,158.91,156.73z M208.43,91.41c-1.72,28.9-15.06,50.75-40.04,65.64
		c2.8-0.19,5.82,0.09,8.25-0.98c23.03-10.17,37.52-27.56,43.34-52.12c0.2-0.85,0.02-1.37-0.59-1.97c-3.32-3.26-6.59-6.55-9.86-9.86
		c-0.33-0.33-0.48-0.84-0.71-1.27C208.69,91.04,208.56,91.23,208.43,91.41z M188.93,154.18c3.66-1.61,7.44-3.02,10.97-4.88
		c14.69-7.74,25.19-19.36,31.6-34.68c0.32-0.76,0.29-1.25-0.35-1.82c-1.06-0.94-2.02-1.98-3.02-2.99c-1.48-1.5-2.95-3.01-4.56-4.65
		c-5.09,21.12-16.81,37.14-34.89,48.57C188.76,153.88,188.84,154.03,188.93,154.18z"/>
	<path class="st154" d="M228.17,48.47c-22.71-19-51.03-18.14-67.01-11.08c28.95,28.96,57.94,57.95,86.97,86.99
		C257.56,100.69,252.74,69.03,228.17,48.47z M170.28,95.5c-0.27,20.71-7.21,40.82-21.16,58.48c-0.66,0.84-1.22,0.97-2.22,0.7
		c-26.33-7.09-46.04-29.71-49.51-56.87c-3.87-30.32,13.59-59.98,41.9-71.2c0.75-0.3,1.18-0.17,1.72,0.37
		c4.33,4.37,8.85,8.57,12.97,13.14c2.01,2.23,3.42,5.04,4.85,7.72C166.49,62.17,170.22,77.5,170.28,95.5z"/>
</g>
</svg>
