<?xml version="1.0" encoding="utf-8"?>
<!-- Generator: Adobe Illustrator 27.8.1, SVG Export Plug-In . SVG Version: 6.00 Build 0)  -->
<svg version="1.1" id="Layer_1" xmlns="http://www.w3.org/2000/svg" xmlns:xlink="http://www.w3.org/1999/xlink" x="0px" y="0px"
	 viewBox="0 0 350 230" style="enable-background:new 0 0 350 230;" xml:space="preserve">
<style type="text/css">
	.st0{fill:#FBFFA4;}
	.st1{fill:#001F21;}
	.st2{fill:#330000;}
	.st3{fill:#330032;}
	.st4{fill:#A6FFD4;}
	.st5{fill:#EBFFAE;}
	.st6{fill:#80F9B7;}
	.st7{fill:#344C00;}
	.st8{fill:#B6FFAB;}
	.st9{fill:#003233;}
	.st10{fill:#00004F;}
	.st11{fill:#001738;}
	.st12{fill:#3F0101;}
	.st13{fill:#005066;}
	.st14{fill:#008EAF;}
	.st15{fill:#B8FF66;}
	.st16{fill:#00A4FF;}
	.st17{fill:#315103;}
	.st18{fill:#036AFF;}
	.st19{fill:#F033FF;}
	.st20{fill:#0768AA;}
	.st21{fill:#5000FF;}
	.st22{fill:#116F8C;}
	.st23{fill:#490000;}
	.st24{fill:#0F343A;}
	.st25{fill:#97A50E;}
	.st26{fill:#1893B1;}
	.st27{fill:#8F00FF;}
	.st28{fill:#8D7200;}
	.st29{fill:#005042;}
	.st30{fill:#00DEFF;}
	.st31{fill-rule:evenodd;clip-rule:evenodd;fill:#00C3FF;}
	.st32{fill-rule:evenodd;clip-rule:evenodd;fill:#005B59;}
	.st33{fill:#AF412B;}
	.st34{fill:#4D0F00;}
	.st35{fill:#295FA6;}
	.st36{fill:#595959;}
	.st37{fill:#BF0413;}
	.st38{fill:#2A95BF;}
	.st39{fill-rule:evenodd;clip-rule:evenodd;fill:#4DBC06;}
	.st40{fill:#491D00;}
	.st41{fill-rule:evenodd;clip-rule:evenodd;fill:url(#SVGID_1_);}
	
		.st42{fill-rule:evenodd;clip-rule:evenodd;fill:url(#SVGID_00000152975896264127411140000000865036042897366188_);filter:url(#Adobe_OpacityMaskFilter);}
	.st43{mask:url(#id0_00000053509760411226441150000009272896516690596251_);fill-rule:evenodd;clip-rule:evenodd;fill:#C86400;}
	
		.st44{fill-rule:evenodd;clip-rule:evenodd;fill:url(#SVGID_00000086691950094896264100000013301499329182008979_);filter:url(#Adobe_OpacityMaskFilter_00000029728381688889721270000008888143890977148580_);}
	.st45{mask:url(#id2_00000097460445656356757680000013689570596422617517_);fill-rule:evenodd;clip-rule:evenodd;fill:#873A2C;}
	.st46{fill-rule:evenodd;clip-rule:evenodd;fill:url(#SVGID_00000016753391505027379710000003898592316902811560_);}
	
		.st47{fill-rule:evenodd;clip-rule:evenodd;fill:url(#SVGID_00000030447554700801864170000015180904363683155358_);filter:url(#Adobe_OpacityMaskFilter_00000070111197039382991810000017554291305212026242_);}
	.st48{mask:url(#id4_00000028285511050207866650000012788801848242998168_);fill-rule:evenodd;clip-rule:evenodd;fill:#003780;}
	.st49{fill-rule:evenodd;clip-rule:evenodd;fill:url(#SVGID_00000064339724634949541820000004619570032599612599_);}
	.st50{fill-rule:evenodd;clip-rule:evenodd;fill:url(#SVGID_00000048477517538061649580000016891548389604448897_);}
	.st51{fill:url(#SVGID_00000075120282452182333410000010056824596535910817_);}
	.st52{fill:url(#SVGID_00000079449647700972020830000008034209406875072417_);}
	.st53{fill:url(#SVGID_00000154387813874090528430000008188358931685602692_);}
	.st54{fill:url(#SVGID_00000169526184757610000060000002120563231078722751_);}
	.st55{fill-rule:evenodd;clip-rule:evenodd;fill:#E2DE8D;}
	.st56{fill-rule:evenodd;clip-rule:evenodd;fill:url(#SVGID_00000183935146012813409000000009048115424076129943_);}
	.st57{fill-rule:evenodd;clip-rule:evenodd;fill:url(#SVGID_00000181051892307008433350000001685629380573739410_);}
	.st58{fill-rule:evenodd;clip-rule:evenodd;fill:url(#SVGID_00000137818473634342486750000015553205676223510149_);}
	.st59{fill-rule:evenodd;clip-rule:evenodd;fill:url(#SVGID_00000096058302610157837920000001813322944549784457_);}
	.st60{fill-rule:evenodd;clip-rule:evenodd;fill:url(#SVGID_00000034792861786256197840000008337192277068311733_);}
	.st61{fill-rule:evenodd;clip-rule:evenodd;fill:url(#SVGID_00000157278585349192153720000000448133832273676682_);}
	.st62{fill-rule:evenodd;clip-rule:evenodd;fill:url(#SVGID_00000095339386035824071270000016454271614536919425_);}
	.st63{fill:url(#SVGID_00000058588643965560980630000005238063112357201817_);}
	.st64{fill:url(#SVGID_00000065790499902294808700000017153035370174413207_);}
	.st65{fill:url(#SVGID_00000159446096915492415150000012415321440912767661_);}
	.st66{fill:#494949;}
	.st67{opacity:0.91;fill:url(#SVGID_00000178191881777752532210000014372540242773501066_);}
	.st68{opacity:0.91;fill:url(#SVGID_00000160152932268341024490000016217112563429890473_);}
	.st69{fill:#684342;}
	.st70{fill:#FC7745;}
	.st71{fill:#F9CD52;}
	.st72{fill:#F4A878;}
	.st73{fill:#E98E60;}
	.st74{fill:#83BF73;}
	.st75{fill:#D27752;}
	.st76{fill:#E0B03C;}
	.st77{fill:#E45553;}
	.st78{fill-rule:evenodd;clip-rule:evenodd;fill:#D1D8F5;}
	.st79{fill-rule:evenodd;clip-rule:evenodd;fill:#A0ADF9;}
	.st80{fill-rule:evenodd;clip-rule:evenodd;fill:#000534;}
	.st81{fill-rule:evenodd;clip-rule:evenodd;fill:#F6C48E;}
	.st82{fill-rule:evenodd;clip-rule:evenodd;fill:#FBE6A7;}
	.st83{fill-rule:evenodd;clip-rule:evenodd;fill:#FFFFFF;}
	.st84{fill-rule:evenodd;clip-rule:evenodd;fill:#CCCCCC;}
	.st85{fill-rule:evenodd;clip-rule:evenodd;fill:#D32425;}
	.st86{fill-rule:evenodd;clip-rule:evenodd;fill:#FC4631;}
	.st87{fill-rule:evenodd;clip-rule:evenodd;fill:#60266F;}
	.st88{fill-rule:evenodd;clip-rule:evenodd;fill:#B178B6;}
	.st89{fill-rule:evenodd;clip-rule:evenodd;fill:#401A59;}
	.st90{fill-rule:evenodd;clip-rule:evenodd;fill:#518D4F;}
	.st91{fill-rule:evenodd;clip-rule:evenodd;fill:#C6E094;}
	.st92{fill-rule:evenodd;clip-rule:evenodd;fill:#E9AA76;}
	.st93{fill-rule:evenodd;clip-rule:evenodd;fill:#297F99;}
	.st94{fill-rule:evenodd;clip-rule:evenodd;fill:#24AAD2;}
	.st95{fill-rule:evenodd;clip-rule:evenodd;fill:#EC7D99;}
	.st96{fill-rule:evenodd;clip-rule:evenodd;}
	.st97{fill-rule:evenodd;clip-rule:evenodd;fill:#1A1E48;}
	.st98{fill:#FFFFFF;}
	.st99{fill:url(#SVGID_00000152227744307152139200000011727813278285648792_);}
	.st100{fill:#26A9E0;}
	.st101{fill:url(#SVGID_00000100348332521328512210000018174708240226768281_);}
	.st102{fill:url(#SVGID_00000063591589277509397440000014919442917702054545_);}
	.st103{fill:#F4F5F5;}
	.st104{fill:#325668;}
	.st105{fill:url(#SVGID_00000050651525064434613320000002300530971336899509_);}
	.st106{fill:url(#SVGID_00000156572951382298834430000008730630783394699186_);}
	.st107{fill:url(#SVGID_00000011012509195208939270000015066033451923871931_);}
	.st108{fill:#99A74E;}
	.st109{fill:url(#SVGID_00000024702921354426602730000009945603930901224069_);}
	.st110{fill:#F3B42D;}
	.st111{fill:#6BA14A;}
	.st112{fill:#FED265;}
	.st113{fill:#19692C;}
	.st114{fill:url(#SVGID_00000182495572212392828300000009922192163689517207_);}
	.st115{fill:#062716;}
	.st116{fill:url(#SVGID_00000161611847320681054310000014262856352369843603_);}
	.st117{opacity:0.35;enable-background:new    ;}
	.st118{fill:#4D7C4D;}
	.st119{fill:#F7E8A6;}
	.st120{opacity:0.55;fill:#2A3D2A;enable-background:new    ;}
	.st121{opacity:0.35;fill:#2A3D2A;enable-background:new    ;}
	.st122{fill:#F4EFDC;}
	.st123{fill:#DBD6C6;}
</style>
<g>
	<radialGradient id="SVGID_1_" cx="166.0434" cy="93.9302" r="49.037" gradientUnits="userSpaceOnUse">
		<stop  offset="0" style="stop-color:#00FFA0"/>
		<stop  offset="0.0528" style="stop-color:#00E8A5"/>
		<stop  offset="0.1922" style="stop-color:#00B2B1"/>
		<stop  offset="0.333" style="stop-color:#0083BC"/>
		<stop  offset="0.4721" style="stop-color:#005DC5"/>
		<stop  offset="0.6095" style="stop-color:#003FCB"/>
		<stop  offset="0.7444" style="stop-color:#002AD0"/>
		<stop  offset="0.8759" style="stop-color:#001DD3"/>
		<stop  offset="1" style="stop-color:#0019D4"/>
	</radialGradient>
	<path style="fill:url(#SVGID_1_);" d="M198.4,45.31l-0.59,35.67l-5.15,5.15l-4.47-27.38l-57.94,6.98l-3.88,43.71l-1.34,1.34
		l-5.19-52.97L198.4,45.31z M196.16,94.26c-0.08,3.27-2.77,5.91-6.06,5.91c-3.2,0-5.83-2.49-6.05-5.64l-6.1-6.1
		c-0.13,0.01-0.26,0.01-0.38,0.01c-0.17,0-0.34-0.01-0.5-0.02l-19.45,19.45c0.01,0.12,0.01,0.25,0.01,0.37
		c0,3.34-2.72,6.06-6.06,6.06c-3.24,0-5.9-2.56-6.06-5.77l-2.86-2.86c-0.04,0-0.08,0-0.12,0c-0.25,0-0.5-0.02-0.74-0.05l-25.2,25.19
		v11.71h98.9V74.92L196.16,94.26z"/>
	
		<linearGradient id="SVGID_00000039120604602759465720000003095958140806524297_" gradientUnits="userSpaceOnUse" x1="116.5911" y1="75.1767" x2="233.4089" y2="75.1767">
		<stop  offset="0" style="stop-color:#00FFA0"/>
		<stop  offset="0.061" style="stop-color:#24FF95"/>
		<stop  offset="0.1556" style="stop-color:#56FF86"/>
		<stop  offset="0.2551" style="stop-color:#81FF79"/>
		<stop  offset="0.3578" style="stop-color:#A6FF6E"/>
		<stop  offset="0.4644" style="stop-color:#C4FF65"/>
		<stop  offset="0.5764" style="stop-color:#DCFF5E"/>
		<stop  offset="0.696" style="stop-color:#ECFF59"/>
		<stop  offset="0.8286" style="stop-color:#F6FF56"/>
		<stop  offset="1" style="stop-color:#F9FF55"/>
	</linearGradient>
	<path style="fill:url(#SVGID_00000039120604602759465720000003095958140806524297_);" d="M215.5,23.32l-5.96,45.94l-5.01,5.01
		l0.76-37.5l-57.94,6.98l-0.68,7.69l-8.08,1.29l-1.66-16.89L215.5,23.32z M217.06,55.58l4.99,4.99l-30.5,30.5
		c-0.44-0.21-0.93-0.33-1.45-0.33c-0.59,0-1.14,0.15-1.62,0.41l-7.71-7.71c0.11-0.33,0.17-0.69,0.17-1.05
		c0-1.86-1.51-3.37-3.37-3.37c-1.86,0-3.37,1.51-3.37,3.37c0,0.33,0.05,0.65,0.14,0.96l-21.71,21.71c-0.33-0.11-0.69-0.17-1.06-0.17
		c-0.55,0-1.08,0.13-1.54,0.37l-4.37-4.37c0.16-0.39,0.24-0.81,0.24-1.26c0-1.86-1.51-3.37-3.37-3.37c-1.86,0-3.37,1.51-3.37,3.37
		c0,0.26,0.03,0.51,0.08,0.75l-22.65,22.66v4l24.4-24.4c0.46,0.24,0.98,0.37,1.54,0.37c0.37,0,0.73-0.06,1.06-0.17l4.68,4.68
		c-0.05,0.24-0.08,0.49-0.08,0.75c0,1.86,1.51,3.37,3.37,3.37c1.86,0,3.37-1.51,3.37-3.37c0-0.44-0.09-0.87-0.24-1.26l21.53-21.53
		c0.41,0.18,0.87,0.28,1.35,0.28c0.45,0,0.87-0.09,1.27-0.25l7.96,7.96c-0.04,0.21-0.06,0.42-0.06,0.64c0,1.86,1.51,3.37,3.37,3.37
		s3.37-1.51,3.37-3.37c0-0.3-0.04-0.58-0.11-0.85l30.69-30.69l4.99,4.99l4.38-16.35L217.06,55.58z"/>
</g>
</svg>
