<?xml version="1.0" encoding="utf-8"?>
<!-- Generator: Adobe Illustrator 27.8.1, SVG Export Plug-In . SVG Version: 6.00 Build 0)  -->
<svg version="1.1" xmlns="http://www.w3.org/2000/svg" xmlns:xlink="http://www.w3.org/1999/xlink" x="0px" y="0px"
	 viewBox="0 0 350 230" style="enable-background:new 0 0 350 230;" xml:space="preserve">
<style type="text/css">
	.st0{display:none;}
	.st1{fill:#FFEAB3;}
	.st2{fill:#FDD8BB;}
	.st3{fill:#FDC798;}
	.st4{fill:#E3D3C3;}
	.st5{fill:#FFE6B0;}
	.st6{fill:#FEEFC6;}
	.st7{fill:#DBDECD;}
	.st8{fill:#FED8B3;}
	.st9{fill:#CDDECC;}
	.st10{fill:#FECE8C;}
	.st11{fill:#FEE4B1;}
	.st12{fill:#FFCD9A;}
	.st13{fill:#B0F4DB;}
	.st14{fill:#C0E0D1;}
	.st15{fill:#DEE6CF;}
	.st16{fill:#9E0021;}
	.st17{fill:#001E91;}
	.st18{fill:#009E1A;}
	.st19{fill:#8E0073;}
	.st20{fill:#9E9700;}
	.st21{fill:#006B65;}
	.st22{fill:#FF00D1;}
	.st23{fill:#550000;}
	.st24{fill:url(#SVGID_1_);}
	.st25{fill:#163800;enable-background:new    ;}
	.st26{fill:#00E7FF;enable-background:new    ;}
	.st27{fill:#663000;}
	.st28{fill:#00E7FF;}
	.st29{fill:#595700;}
	.st30{fill:#A06433;}
	.st31{fill:#006AC3;}
	.st32{fill:#FF7F00;}
	.st33{fill:#DFC900;}
	.st34{fill:#FF3200;}
	.st35{fill:#3200FF;}
	.st36{fill:#00FFCC;}
	.st37{fill:#4E0017;}
	.st38{fill:#7E00FF;}
	.st39{fill-rule:evenodd;clip-rule:evenodd;fill:#5700FF;}
	.st40{fill-rule:evenodd;clip-rule:evenodd;fill:#840036;}
	.st41{fill:#2B00A0;}
	.st42{fill:#46FF2C;}
	.st43{fill:#002A33;}
	.st44{fill:#007FFF;}
	.st45{fill:#FFFFFF;}
	.st46{fill:url(#SVGID_00000046321217666681472940000005718597505801855123_);}
	.st47{fill:#856024;}
	.st48{fill:#CB9D3E;}
	.st49{fill:#141414;}
	.st50{fill:#F6CF63;}
	.st51{fill:url(#SVGID_00000049924443057774777440000012724348682709605541_);}
	.st52{fill:url(#SVGID_00000075160538081502171300000014823462419358294460_);}
	.st53{fill:#046E56;}
	.st54{fill:#2AA776;}
	.st55{fill:url(#SVGID_00000015336337185367251590000008170009558837802175_);}
	.st56{fill:#A63B2D;}
	.st57{fill:#F5B32B;}
	.st58{fill:#0C427C;}
	.st59{fill:url(#SVGID_00000063592660220217268350000002581066751605344134_);}
	.st60{fill:url(#SVGID_00000030471396934006619230000002298570993539518848_);}
	.st61{fill:url(#SVGID_00000129913808085816896710000007052638085010432150_);}
	.st62{fill:#FEFEFE;}
	.st63{fill:url(#SVGID_00000116916611336410046330000012333988935276729790_);}
	.st64{fill:#0F3058;}
	.st65{fill:url(#SVGID_00000102509652471739147180000010191766209139790773_);}
	.st66{fill:#289CC7;}
	.st67{fill:url(#SVGID_00000013890509705021467290000015087543244413793724_);}
	.st68{fill:#07102A;}
	.st69{fill:#0E2044;}
	.st70{fill:#7D7C7B;}
	.st71{fill:url(#SVGID_00000178188745659142483210000017908165963424495011_);}
	.st72{fill:#AFB4B7;}
	.st73{fill:url(#SVGID_00000038372609932610140450000001398310452333741967_);}
	.st74{fill:#576783;}
	.st75{fill:url(#SVGID_00000158745352687374862700000007453119812482699648_);}
	.st76{fill:#C7C6C5;}
	.st77{fill:url(#SVGID_00000068638510499754587260000012418032969373204159_);}
	.st78{fill:url(#SVGID_00000125568220770281155300000010720508385826639286_);}
	.st79{fill:#172860;}
	.st80{fill:url(#SVGID_00000129203640333160922510000006790393854507946655_);}
	.st81{fill:url(#SVGID_00000107588816529997075200000013067647754108074427_);}
	.st82{fill:#02AEF4;}
	.st83{fill:#EC0D64;}
	.st84{fill:url(#SVGID_00000054943924203982618570000001998020369368632193_);}
	.st85{fill:#58C6D1;}
	.st86{fill:url(#SVGID_00000023248103438952161950000001740883867655393170_);}
	.st87{fill:#4695BF;}
	.st88{fill:#38CEAE;}
	.st89{fill:#2BB374;}
	.st90{fill:#039075;}
	.st91{fill:#191F55;}
	.st92{fill:url(#SVGID_00000124853477929476258340000004334345605070210716_);}
	.st93{fill:url(#SVGID_00000081627925067338942710000000298492335955743631_);}
	.st94{fill:url(#SVGID_00000175297452295947014010000005422327539459062163_);}
	.st95{fill:url(#SVGID_00000101799849154573443860000012923240476951355785_);}
	.st96{fill:url(#SVGID_00000021823422692307519270000009342035170062971017_);}
	.st97{fill:url(#SVGID_00000130641976569331726850000010348413487789926052_);}
	.st98{fill:url(#SVGID_00000036945877449320208560000017814660010051117460_);}
	.st99{fill:url(#SVGID_00000104669971407620732070000005004920529996226442_);}
	.st100{fill:url(#SVGID_00000014630435984583355660000013623679923757834640_);}
	.st101{fill:url(#SVGID_00000111173541672653812520000010883033271753239964_);}
	.st102{fill:url(#SVGID_00000137114151938157000040000016991036252573009307_);}
	.st103{fill:#1B2462;}
	.st104{fill:url(#SVGID_00000014632574717231240450000001236613340743608235_);}
	.st105{fill:#32A6C3;}
	.st106{fill:#82C78D;}
	.st107{fill:#E7952A;}
	.st108{fill:#E9C032;}
	.st109{fill:url(#SVGID_00000091735196447780975140000004161197139963205521_);}
	.st110{fill:url(#SVGID_00000173152473926119786370000000062199159565975722_);}
	.st111{fill:#1F7D44;}
	.st112{fill:#0E7D8D;}
	.st113{fill:#02D6F0;}
	.st114{fill:#123073;}
	.st115{fill:#0396E0;}
	.st116{fill:url(#SVGID_00000144297660778148163460000003918337937661641093_);}
	.st117{fill:url(#SVGID_00000083048046065843789600000009202877670045054097_);}
</style>
<g id="Layer_1" class="st0">
</g>
<g id="Layer_2" class="st0">
</g>
<g id="Layer_3" class="st0">
</g>
<g id="Layer_4" class="st0">
</g>
<g id="Layer_5" class="st0">
</g>
<g id="Layer_6" class="st0">
</g>
<g id="Layer_7" class="st0">
</g>
<g id="Layer_8" class="st0">
</g>
<g id="Layer_9" class="st0">
</g>
<g id="Layer_10" class="st0">
</g>
<g id="Layer_11" class="st0">
</g>
<g id="Layer_12">
</g>
<g id="Layer_13">
</g>
<g id="Layer_14">
</g>
<g id="Layer_15">
	<g>
		<path class="st106" d="M158.14,30.77c0.81-0.07,1.61,0.03,2.34,0.39c0.91,0.45,1.56,1.26,1.87,2.22c0.04,0.13,0.08,0.26,0.11,0.4
			c0.03,0.13,0.05,0.27,0.07,0.41c0.02,0.14,0.02,0.27,0.02,0.41c0,0.14,0,0.28-0.02,0.41c-0.01,0.14-0.03,0.27-0.06,0.41
			c-0.03,0.13-0.06,0.27-0.1,0.4c-0.04,0.13-0.09,0.26-0.14,0.39c-0.05,0.13-0.11,0.25-0.18,0.37c-0.65,1.18-1.61,1.72-2.86,2.09
			c-1.08,0.08-2.02-0.03-2.94-0.65c-0.11-0.08-0.22-0.16-0.32-0.24c-0.1-0.09-0.2-0.18-0.29-0.27c-0.09-0.1-0.18-0.2-0.26-0.3
			c-0.08-0.1-0.16-0.21-0.23-0.33c-0.07-0.11-0.14-0.23-0.2-0.35c-0.06-0.12-0.11-0.24-0.16-0.37c-0.05-0.12-0.09-0.25-0.12-0.38
			c-0.03-0.13-0.06-0.26-0.08-0.39c-0.18-1.08,0.06-2.22,0.73-3.09C156.04,31.35,156.99,30.95,158.14,30.77z"/>
		<path class="st107" d="M183.17,28.76c0.86-0.02,1.69,0.1,2.47,0.5c0.98,0.51,1.68,1.42,2,2.47c0.04,0.13,0.07,0.27,0.1,0.4
			c0.03,0.14,0.05,0.27,0.06,0.41c0.01,0.14,0.02,0.28,0.02,0.42c0,0.14-0.01,0.28-0.02,0.42c-0.01,0.14-0.04,0.27-0.06,0.41
			c-0.03,0.14-0.06,0.27-0.1,0.4c-0.04,0.13-0.09,0.26-0.14,0.39c-0.05,0.13-0.11,0.25-0.18,0.37c-0.64,1.19-1.63,1.75-2.87,2.14
			c-1.2-0.01-2.25-0.17-3.23-0.91c-0.11-0.08-0.22-0.17-0.32-0.27c-0.1-0.09-0.2-0.19-0.29-0.3c-0.09-0.1-0.18-0.21-0.26-0.32
			c-0.08-0.11-0.16-0.23-0.23-0.35c-0.07-0.12-0.13-0.24-0.19-0.37c-0.06-0.13-0.11-0.25-0.16-0.38c-0.05-0.13-0.08-0.26-0.12-0.4
			c-0.03-0.13-0.06-0.27-0.08-0.41c-0.02-0.13-0.03-0.27-0.03-0.41c-0.01-0.14,0-0.27,0-0.41c0.01-0.14,0.02-0.27,0.04-0.4
			s0.05-0.27,0.08-0.4c0.03-0.13,0.08-0.26,0.12-0.39c0.05-0.13,0.1-0.25,0.16-0.37c0.06-0.12,0.12-0.24,0.2-0.36
			c0.07-0.12,0.15-0.23,0.23-0.34C181.08,29.38,182.03,28.93,183.17,28.76z"/>
		<path class="st108" d="M148.77,35.24c0.02,0.01,0.04,0.01,0.05,0.02c0.76,0.33,3.09,4.03,3.56,4.92
			c-1.49,0.74-3.06,1.31-4.54,2.06c-4.38,2.2-8.59,5.28-11.91,8.91l-0.57,0.71c-1.06-1.89-1.94-3.97-2.5-6.07
			C137.16,41.14,143.03,37.77,148.77,35.24z M193.97,32.58c7.91,2.95,15.14,7.15,21.23,13.02c-0.75,1.99-1.8,4.09-2.92,5.89
			l-0.21,0.01c-5.6-6.66-13.51-10.95-21.64-13.73C191.52,35.98,192.76,34.29,193.97,32.58z"/>
		<linearGradient id="SVGID_1_" gradientUnits="userSpaceOnUse" x1="175.4182" y1="79.522" x2="189.3125" y2="40.4871">
			<stop  offset="0" style="stop-color:#489840"/>
			<stop  offset="1" style="stop-color:#72B642"/>
		</linearGradient>
		<path class="st24" d="M126.44,51.28c0.44,3.6,0.99,7.08,2.02,10.57c0.56,1.91,1.87,4.2,2.04,6.11c0.15,1.77-0.87,4.79-1.11,6.71
			c-0.97,7.67-0.48,15.02,1.65,22.46c-0.11-0.04-0.2-0.14-0.29-0.21c-1.19-3.5-2.02-8.28-2.1-11.97c-0.04-2.11,0.14-4.23,0.07-6.34
			l-0.28,0.09l0.28-0.1l-0.19,0.1l0.02-0.28c-0.93-0.6-3.68-1.72-4.79-2.05c-2.03-0.6-5.38-1.16-6.97-2.52
			c-0.4-0.35-0.49-0.52-0.54-1.03l0.12,0.18l-0.32,0.12c-1.36,4.67-2.06,11.03-2.02,15.86c0.02,2.16,0.43,4.42,0.24,6.56
			c0,0.04-0.01,0.09-0.01,0.13c-0.41-2.39-0.43-4.89-0.41-7.3c0.01-0.4,0.01-0.8,0.03-1.2c0.01-0.4,0.03-0.8,0.05-1.2
			c0.02-0.4,0.04-0.8,0.07-1.2c0.03-0.4,0.06-0.8,0.1-1.2c0.04-0.4,0.07-0.8,0.12-1.2c0.04-0.4,0.09-0.8,0.14-1.19
			c0.05-0.4,0.1-0.79,0.16-1.19c0.06-0.4,0.12-0.79,0.19-1.19c0.07-0.4,0.13-0.79,0.21-1.18c0.07-0.39,0.15-0.79,0.23-1.18
			c0.08-0.39,0.16-0.78,0.25-1.17c0.09-0.39,0.18-0.78,0.27-1.17c0.1-0.39,0.19-0.78,0.3-1.16c0.1-0.39,0.21-0.77,0.32-1.16
			c0.11-0.39,0.22-0.77,0.34-1.15c0.12-0.38,0.24-0.77,0.36-1.15c0.12-0.38,0.25-0.76,0.38-1.14c0.13-0.38,0.27-0.76,0.41-1.13
			c0.14-0.38,0.28-0.75,0.43-1.12c0.15-0.37,0.29-0.74,0.45-1.12c0.15-0.37,0.31-0.74,0.47-1.11c0.16-0.37,0.32-0.73,0.49-1.1
			c0.17-0.36,0.34-0.73,0.51-1.09c0.17-0.36,0.35-0.72,0.53-1.08c0.18-0.36,0.36-0.71,0.55-1.07c0.19-0.35,0.38-0.71,0.57-1.06
			c0.19-0.35,0.39-0.7,0.59-1.05c0.2-0.35,0.4-0.69,0.61-1.04c0.21-0.34,0.42-0.68,0.63-1.02c0.21-0.34,0.43-0.68,0.65-1.01
			c0.22-0.34,0.44-0.67,0.67-1c0.23-0.33,0.45-0.66,0.69-0.99C125.86,52,126.13,51.62,126.44,51.28z M221.44,50.8l0.16,0.17
			c1.44,1.51,2.66,3.4,3.79,5.16c4.72,7.39,7.64,15.29,8.89,23.97c0.32,2.22,0.62,4.52,0.57,6.76c-0.03-0.07-0.07-0.15-0.1-0.22
			c-0.39-0.93-0.29-2.6-0.39-3.66c-0.13-1.37-1.08-9.26-1.85-9.7c-0.39,0.15-0.63,0.59-0.81,0.94c-0.65,1.22-3.44,2.06-4.71,2.45
			c-1.84,0.56-5.02,1.83-6.83,0.85c-0.29-0.15-0.4-0.37-0.54-0.65c-0.09,0.93,0.14,1.97,0.22,2.91c0.18,1.96,0.4,6.05-0.23,7.84
			c0.02-1.53,0.16-3.05,0.14-4.58c-0.05-5.88-1.22-10.92-3.01-16.49c0.44-1.68,1.22-3.3,1.81-4.93
			C219.82,58.07,220.87,54.51,221.44,50.8z"/>
		
			<linearGradient id="SVGID_00000032647402040813635790000012030596909132269465_" gradientUnits="userSpaceOnUse" x1="155.7391" y1="96.7044" x2="220.0424" y2="96.7044">
			<stop  offset="0" style="stop-color:#489840"/>
			<stop  offset="1" style="stop-color:#72B642"/>
		</linearGradient>
		<path style="fill:url(#SVGID_00000032647402040813635790000012030596909132269465_);" d="M170.03,28.5
			c0.83-0.08,1.54-0.11,2.34,0.21c0.13,0.05,0.25,0.11,0.37,0.17c0.12,0.06,0.24,0.13,0.35,0.21c0.11,0.08,0.22,0.16,0.33,0.24
			c0.11,0.09,0.21,0.18,0.3,0.28c0.1,0.1,0.19,0.2,0.27,0.3c0.09,0.11,0.16,0.22,0.24,0.33c0.07,0.11,0.14,0.23,0.2,0.35
			c0.06,0.12,0.12,0.25,0.16,0.37c0.05,0.13,0.1,0.26,0.13,0.39c0.04,0.13,0.07,0.27,0.09,0.4c0.02,0.14,0.04,0.27,0.05,0.41
			c0.01,0.14,0.01,0.28,0.01,0.42c0,0.14-0.02,0.28-0.03,0.41c-0.02,0.14-0.04,0.27-0.08,0.41c-0.03,0.13-0.07,0.27-0.12,0.4
			c-0.05,0.13-0.1,0.26-0.16,0.38c-0.56,1.15-1.47,1.78-2.65,2.19c-0.93,0.17-1.76,0.15-2.64-0.23c-0.12-0.05-0.24-0.11-0.36-0.18
			c-0.12-0.07-0.23-0.14-0.34-0.21c-0.11-0.08-0.21-0.16-0.31-0.25c-0.1-0.09-0.2-0.18-0.29-0.28c-0.09-0.1-0.18-0.2-0.26-0.3
			c-0.08-0.11-0.15-0.22-0.22-0.33c-0.07-0.11-0.13-0.23-0.19-0.35c-0.06-0.12-0.11-0.24-0.15-0.37c-0.37-1.01-0.36-2.15,0.1-3.12
			C167.79,29.5,168.79,28.97,170.03,28.5z M172.89,58.7c3.12-0.12,6.1,0.8,8.46,2.88c2.23,1.96,3.46,4.83,3.62,7.77
			c0.17,3.12-0.75,6.3-2.87,8.65c-2.13,2.36-5.07,3.58-8.2,3.73c-2.82,0.06-5.6-0.71-7.85-2.47c-2.33-1.83-3.78-4.6-4.11-7.53
			c-0.02-0.19-0.04-0.39-0.06-0.58c-0.01-0.19-0.02-0.39-0.03-0.58c0-0.19,0-0.39,0-0.58c0.01-0.19,0.02-0.39,0.03-0.58
			c0.02-0.19,0.03-0.39,0.06-0.58c0.02-0.19,0.05-0.39,0.09-0.58c0.03-0.19,0.07-0.38,0.12-0.57s0.09-0.38,0.15-0.57
			c0.05-0.19,0.11-0.37,0.17-0.56c0.06-0.18,0.13-0.37,0.2-0.55c0.07-0.18,0.15-0.36,0.23-0.54c0.08-0.18,0.16-0.35,0.25-0.53
			c0.09-0.17,0.18-0.34,0.28-0.51c0.1-0.17,0.2-0.33,0.3-0.5c0.11-0.16,0.22-0.32,0.33-0.48c0.11-0.16,0.23-0.31,0.35-0.47
			C166.61,60.27,169.5,59.04,172.89,58.7z M219.7,38.74c0.08,0.08,0.15,0.17,0.18,0.28c0.38,1.47,0,6.09-0.19,7.78
			c-0.65,6.06-2.46,11.88-4.77,17.5c-5.52,13.44-13.67,24.74-22.56,36.11c-2.34-3.33-4.79-6.14-7.93-8.72
			c-2.81-2.19-5.8-3.95-8.92-5.67c1.78-1.26,3.83-2.18,5.72-3.29c3.76-2.2,7.41-4.58,10.95-7.13c10.07-7.32,21.92-18.86,26.13-30.88
			C218.98,42.78,219.38,40.79,219.7,38.74z M156.17,98.95c7.54,5.46,16.53,10.66,21.39,18.86c-2.17,1.86-4.16,4.24-5.4,6.82
			c-3.97,8.23-0.04,26.22,2.91,34.77c0.24,1.52,1.36,2.77,1.56,4.34l-0.15,0.2c-1.17,0.27-1.42,1.06-2.77,1.02
			c-9.32-14.35-16.25-32.74-17.7-49.84C155.55,109.71,155.72,104.35,156.17,98.95z"/>
		<path class="st111" d="M219.62,87.62c0.62-1.79,0.4-5.88,0.23-7.84c-0.08-0.94-0.31-1.98-0.22-2.91c0.14,0.28,0.26,0.5,0.54,0.65
			c1.81,0.98,4.99-0.29,6.83-0.85c1.27-0.39,4.06-1.23,4.71-2.45c0.19-0.35,0.43-0.79,0.81-0.94c0.78,0.44,1.72,8.34,1.85,9.7
			c0.1,1.06,0,2.72,0.39,3.66c0.03,0.07,0.07,0.15,0.1,0.22c0.36,16.71-5.77,32.29-17.33,44.37c-0.45,0.46-0.9,0.92-1.36,1.37
			c-0.46,0.45-0.93,0.9-1.4,1.34c-0.47,0.44-0.95,0.87-1.44,1.3c-0.48,0.43-0.97,0.84-1.47,1.26c-0.5,0.41-1,0.82-1.51,1.21
			c-0.51,0.4-1.02,0.79-1.54,1.17c-0.52,0.38-1.04,0.76-1.57,1.13c-0.53,0.37-1.06,0.73-1.6,1.08c-0.54,0.35-1.08,0.7-1.63,1.04
			c-0.55,0.34-1.1,0.67-1.66,0.99c-0.56,0.32-1.12,0.64-1.69,0.95c-0.57,0.31-1.14,0.61-1.71,0.9c-0.57,0.29-1.15,0.58-1.74,0.85
			c-0.58,0.28-1.17,0.54-1.76,0.8c-0.59,0.26-1.18,0.51-1.78,0.75c-0.6,0.24-1.2,0.48-1.8,0.7c-1.73,0.66-3.51,1.38-5.3,1.81
			c2.54-5.45,4.73-11.02,6.35-16.82c0.82-2.93,1.42-5.86,2.11-8.81c9.13-6.03,16.09-11.65,20.65-21.95
			c1.38-3.11,2.44-6.29,3.13-9.62C219.03,91.63,219.4,88.21,219.62,87.62z M114.25,95.68c0-0.04,0.01-0.09,0.01-0.13
			c0.19-2.14-0.22-4.4-0.24-6.56c-0.04-4.83,0.66-11.2,2.02-15.86l0.32-0.12l-0.12-0.18c0.05,0.51,0.14,0.69,0.54,1.03
			c1.59,1.36,4.95,1.92,6.97,2.52c1.12,0.33,3.86,1.45,4.79,2.05l-0.02,0.28l0.19-0.1l-0.28,0.1l0.28-0.09
			c0.07,2.11-0.12,4.23-0.07,6.34c0.08,3.69,0.91,8.47,2.1,11.97c0.09,0.07,0.18,0.18,0.29,0.21c0.9,2.75,1.97,5.45,3.42,7.97
			c4.47,7.78,12.68,14.97,20.6,19.12c2.12,9.1,4.45,17.37,8.39,25.89c-10.58-3.03-21.13-8.73-29.29-16.13
			c-9.36-8.48-16.27-19.56-18.91-31.98C114.81,99.95,114.36,97.77,114.25,95.68z"/>
		<path class="st112" d="M173.71,164.96c1.35,0.04,1.6-0.75,2.77-1.02c-0.54,0.9-1.1,1.79-1.67,2.68
			C174.36,166.1,174.04,165.56,173.71,164.96z M129.26,36.21c0.26,2.7,0.28,5.29,0.89,7.96c2.51,11.12,10.4,20.95,19.05,28.05
			c5.2,4.27,10.88,7.87,16.73,11.18c9.38,5.32,20.18,9.53,25.19,19.86c1.27,2.62,2.1,5.21,2.39,8.12
			c1.63,16.79-7.99,38.57-16.87,52.37c-0.2-1.57-1.32-2.82-1.56-4.34c4-7.86,8.36-21.2,8.33-30.01c0-0.6-0.03-1.21-0.08-1.81
			c-0.05-0.6-0.12-1.2-0.22-1.8c-0.1-0.6-0.22-1.19-0.36-1.77c-0.15-0.59-0.31-1.17-0.5-1.74c-0.15-0.44-0.3-0.87-0.47-1.3
			c-0.17-0.43-0.35-0.85-0.53-1.28c-0.19-0.42-0.39-0.84-0.59-1.25c-0.21-0.41-0.43-0.82-0.65-1.22c-0.23-0.4-0.47-0.8-0.71-1.18
			c-0.25-0.39-0.5-0.77-0.77-1.15c-0.27-0.38-0.54-0.75-0.82-1.11c-0.28-0.36-0.58-0.72-0.88-1.07
			c-6.56-7.64-17.74-13.67-25.55-20.35c-13.3-11.37-23.03-29.13-23.02-46.86C128.23,42.38,128.7,39.29,129.26,36.21z"/>
	</g>
</g>
</svg>
