<?xml version="1.0" encoding="utf-8"?>
<!-- Generator: Adobe Illustrator 27.8.1, SVG Export Plug-In . SVG Version: 6.00 Build 0)  -->
<svg version="1.1" xmlns="http://www.w3.org/2000/svg" xmlns:xlink="http://www.w3.org/1999/xlink" x="0px" y="0px"
	 viewBox="0 0 350 230" style="enable-background:new 0 0 350 230;" xml:space="preserve">
<style type="text/css">
	.st0{fill:#00FFEC;}
	.st1{fill:#FFFFA1;}
	.st2{fill:#EFFFC2;}
	.st3{fill:#FFD366;}
	.st4{fill:#CCFF73;}
	.st5{fill:#FFECC5;}
	.st6{fill:#DEFFA4;}
	.st7{fill:#CCFBFF;}
	.st8{fill:#FFF171;}
	.st9{fill:#ADDAD0;}
	.st10{fill:#8DFFE9;}
	.st11{fill:#76DAC8;}
	.st12{fill:#006432;}
	.st13{fill:#0025FF;}
	.st14{fill:#00FF4E;}
	.st15{fill:#00FF85;}
	.st16{fill:#1E0D63;}
	.st17{fill:#FF4848;}
	.st18{fill:#00997C;}
	.st19{fill:#FF00C9;}
	.st20{fill:#00FF5B;}
	.st21{fill:#020044;}
	.st22{fill:#00FFCE;}
	.st23{fill:#00F3FF;}
	.st24{fill:#004437;}
	.st25{fill:#0019FF;}
	.st26{fill:#0031FF;}
	.st27{fill:#00D6AD;}
	.st28{fill:#9FDDFF;}
	.st29{fill:#720021;}
	.st30{fill:#CE7000;}
	.st31{fill:#205104;}
	.st32{fill:#004787;}
	.st33{fill:#FFFFFF;}
	.st34{fill:#EEB0F7;}
	.st35{fill:#004B96;}
	.st36{fill:#701000;}
	.st37{fill-rule:evenodd;clip-rule:evenodd;fill:#FFFF00;}
	.st38{fill-rule:evenodd;clip-rule:evenodd;fill:#68C7FC;}
	.st39{filter:url(#Adobe_OpacityMaskFilter);}
	.st40{fill-rule:evenodd;clip-rule:evenodd;fill:#FFFFFF;}
	
		.st41{mask:url(#earthglobe-b_00000087385483975625957440000004491752639183121025_);fill-rule:evenodd;clip-rule:evenodd;fill:#033D2B;}
	.st42{fill:#00FCFF;}
	.st43{fill:#003EF9;}
	.st44{fill:#001535;}
	.st45{fill:#003A55;}
	.st46{fill-rule:evenodd;clip-rule:evenodd;fill:url(#SVGID_1_);}
	.st47{fill-rule:evenodd;clip-rule:evenodd;fill:url(#SVGID_00000150783347078316576040000007527684123084629906_);}
	.st48{fill-rule:evenodd;clip-rule:evenodd;fill:url(#SVGID_00000047022779374946844210000010051769539434615201_);}
	.st49{fill:#1C5D77;}
	.st50{fill:url(#SVGID_00000104688089056109010820000015623099598493483928_);}
	.st51{fill:url(#SVGID_00000026159653483354681020000003046901014770115988_);}
	.st52{fill:#115A77;}
	.st53{fill:url(#SVGID_00000151502160717677318130000010358404141261957780_);}
	.st54{fill:url(#SVGID_00000063599915381154614990000013834921810170808460_);}
	.st55{fill:url(#SVGID_00000072962904298384740570000000729360242690427293_);}
	.st56{fill:url(#SVGID_00000150808229751097428190000014734059306071481738_);}
	.st57{fill:url(#SVGID_00000106129761625515761090000004190938579835609532_);}
	.st58{fill:#00ADEE;}
	.st59{fill:#003454;}
	.st60{fill:#1C75BC;}
	.st61{fill:#EC1A3D;}
	.st62{fill:#115699;}
	.st63{fill:url(#SVGID_00000051364972898920707770000003302754478770659485_);}
	.st64{fill:#1286BC;}
	.st65{fill:#CE3348;}
	.st66{fill:#15A5CF;}
	.st67{fill:url(#SVGID_00000166643792626325664860000002442847113026888108_);}
	.st68{fill:url(#SVGID_00000000934231595695854870000012729160278041122212_);}
	.st69{fill:url(#SVGID_00000122701873111635248550000013888766048325338555_);}
	.st70{fill:url(#SVGID_00000150807086836385526420000016555410456631766429_);}
	.st71{fill:url(#SVGID_00000096778147326800434760000001967532662914292913_);}
	.st72{fill:#27A7BD;}
	.st73{fill:url(#SVGID_00000003793586576662417210000011655462338722117776_);}
	.st74{fill:#0C3366;}
	.st75{fill:#296616;}
	.st76{fill:url(#SVGID_00000043444011523469966010000014353340643645895834_);}
	.st77{fill:#FEFEFE;}
	.st78{fill:url(#SVGID_00000141427012318906115700000014167937902732767139_);}
	.st79{fill:#1F2F6F;}
	.st80{fill:#E22D9E;}
	.st81{fill:#24B6D6;}
	.st82{fill:#4785DF;}
	.st83{fill:#E5A85F;}
	.st84{fill:#B993D5;}
	.st85{fill:url(#SVGID_00000080202420770879356020000006565953144178300846_);}
	.st86{fill:url(#SVGID_00000136382991420905264540000014671718068088241555_);}
	.st87{fill:#BC201C;}
	.st88{fill:#F58622;}
	.st89{fill:#0093EC;}
	.st90{fill:#EA2B1E;}
	.st91{fill:#0370B7;}
	.st92{fill:#52BEE5;}
	.st93{fill:#0C1D54;}
	.st94{fill:url(#SVGID_00000172415462621012092300000016949492856874350778_);}
	.st95{fill:#021AB0;}
	.st96{fill:url(#SVGID_00000156568067575405056940000001096115396006333860_);}
	.st97{fill:#0B5BA1;}
	.st98{fill:#03BCF6;}
	.st99{fill:#12762D;}
	.st100{fill:#04175E;}
</style>
<g id="Layer_1">
</g>
<g id="Layer_2">
</g>
<g id="Layer_3">
</g>
<g id="Layer_4">
</g>
<g id="Layer_5">
</g>
<g id="Layer_6">
</g>
<g id="Layer_7">
</g>
<g id="Layer_8">
</g>
<g id="Layer_9">
</g>
<g id="Layer_10">
</g>
<g id="Layer_11">
</g>
<g id="Layer_12">
</g>
<g id="Layer_13">
</g>
<g id="_x31_-15">
	<g>
		<radialGradient id="SVGID_1_" cx="221.2254" cy="83.3268" r="39.7077" gradientUnits="userSpaceOnUse">
			<stop  offset="0" style="stop-color:#006838"/>
			<stop  offset="1" style="stop-color:#00A651"/>
		</radialGradient>
		<path style="fill:url(#SVGID_1_);" d="M222.22,57.66c1.95,0.02,3.89,0.03,5.84,0.02c1.03-0.01,2.23-0.14,3.24,0.02
			c0.34,0.06,0.68,0.19,0.93,0.44c0.26,0.26,0.36,0.6,0.41,0.96c0.14,0.95,0,2.03,0,2.99l0.01,5.94l-9.49-0.02
			c-0.32-0.2-0.59-0.46-0.88-0.7C222.15,64.11,222.22,60.87,222.22,57.66z M201.86,89.06l0.2,0c3.41,0.18,6.91,0.04,10.33,0.05
			l-0.01-9.66c-0.34-0.37-0.68-0.66-1.08-0.96c-3.16-0.03-6.32-0.05-9.48-0.04C201.81,81.98,201.82,85.52,201.86,89.06z
			 M231.94,57.31c0.34,0.25,0.68,0.49,1.01,0.75l9.68,0.03l0.03-6.36c0.01-0.93,0.13-1.98,0.01-2.89c-0.05-0.35-0.16-0.73-0.41-0.99
			c-0.25-0.26-0.61-0.39-0.96-0.45c-0.96-0.15-2.1-0.01-3.08-0.01c-2.1,0.01-4.21,0.02-6.31,0C231.92,50.7,231.9,54.01,231.94,57.31
			z M241.78,46.91c0.31,0.17,0.64,0.36,0.99,0.42c1.15,0.18,2.43,0.08,3.59,0.08l6.39-0.01l0-10.54l-11.01,0
			C241.75,40.21,241.73,43.56,241.78,46.91z M190.92,89.11l-0.04,10.87c3.74,0.02,7.49-0.08,11.23,0.04l0.05-6.95
			c0-1.31,0.09-2.71-0.09-4.01l-0.2,0C200.84,89.4,192.64,89.12,190.92,89.11z M211.69,78.23l1.11,0.76
			c3.25,0.12,6.51-0.01,9.76,0.06c0-3.73,0.12-7.51-0.03-11.24c-3.6-0.19-7.25-0.01-10.86-0.05L211.69,78.23z M202.87,116.62
			l-6.96,0.01l-0.01,6.66l-6.2-0.03l0,6.54l6.48,0c0.01-1.66,0.24-3.86-0.05-5.47c0.02-0.27,0.01-0.52,0.19-0.74
			c2.15-0.24,4.51-0.04,6.69-0.04l-0.02-6.55l7.78,0.04c-0.08-2.59-0.03-5.19-0.08-7.78c-2.62-0.06-5.25-0.02-7.87-0.03
			C202.79,111.68,202.85,114.15,202.87,116.62z"/>
		
			<radialGradient id="SVGID_00000016784263144773508580000002948261234720198330_" cx="177.0221" cy="95.8971" r="67.6059" gradientUnits="userSpaceOnUse">
			<stop  offset="0" style="stop-color:#00ADEE"/>
			<stop  offset="1" style="stop-color:#262262"/>
		</radialGradient>
		<path style="fill:url(#SVGID_00000016784263144773508580000002948261234720198330_);" d="M143.47,38.56l0.1,0.02
			c-0.04,0.1-3.48,2.68-3.97,3.1c-4.03,3.46-7.44,8.62-9.54,13.49l-6.89,0.01l-0.19-0.09c0.03-0.12,0.03-0.14,0.08-0.27
			c0.57-1.2,1.77-2.53,2.64-3.55C130.58,45.49,136.47,41.39,143.47,38.56z M135.02,51.1c-0.73,1.15-1.65,2.5-2.07,3.8l0.03,0.22
			l0.17,0.06l9.08,0c1.06-4.81,2.8-9.56,5.4-13.77c0.4-0.65,2.61-3.36,2.65-3.5l-0.12-0.03C143.53,41.26,139.03,44.77,135.02,51.1z
			 M116.82,70.31l7.89,0.01l1.28,0c0.37-4.48,1.61-8.63,3.05-12.86l-7.56,0.01C119.17,61.54,117.76,65.75,116.82,70.31z
			 M116.83,84.7l9.22-0.01c-0.62-3.94-0.57-8.15-0.32-12.12l-9.28,0.01C115.89,76.58,116.19,80.72,116.83,84.7z M144.83,55.01
			l0.09,0.22l0.14,0.02c3.33-0.03,6.66-0.04,9.99-0.02l-0.02-12.56c0-1.19,0.2-4.14-0.05-5.17l0.24-0.13l-0.35,0.01l-0.01-0.09
			C149.09,40.93,146.37,48.63,144.83,55.01z M128.11,78.61c0.07,2.01,0.23,4.02,0.49,6.01c1.52,0,10.05,0.2,10.8-0.09
			c-0.02-2.24-0.08-4.48-0.02-6.71c0.04-1.74,0.18-3.47,0.21-5.21c-3.79-0.01-7.59,0.03-11.38-0.02
			C128.07,74.59,128.04,76.6,128.11,78.61z M128.45,70.29l10.02,0.01l1.28,0c0.34-4.24,0.82-8.7,1.91-12.82
			c-3.34,0-6.68,0.04-10.01-0.01C130.13,62.21,129.1,65.32,128.45,70.29z M142.28,70.32l10.97,0.04l1.79,0.01l0.05-12.9
			c-3.63,0-7.26,0.04-10.89-0.01C143.56,61.85,142.41,65.8,142.28,70.32z M141.99,84.49l13.07-0.01c0-3.96,0.11-7.95,0.01-11.91
			l-12.99,0.03C141.94,76.57,141.91,80.53,141.99,84.49z M187.53,72.62c2.63,0.01,5.25,0.01,7.88-0.01
			c0.18,1.78,0.28,3.55,0.35,5.34l-8.09,0.01C187.69,76.17,187.64,74.39,187.53,72.62z M157.32,117.62
			c0.67-0.56,1.33-1.12,1.98-1.69c0.45-0.43,0.92-0.85,1.34-1.31l-0.01-12.6l-3.34,0L157.32,117.62z M173.7,77.95l11.42,0
			c-0.01-1.78-0.03-3.55-0.15-5.33c-3.86,0.01-7.75-0.09-11.6,0.03C173.5,74.41,173.69,76.19,173.7,77.95z M136.75,112.65
			c1.69,0.96,3.45,1.71,5.25,2.43c1.08,0.44,2.2,0.92,3.32,1.23c-0.02-0.02-0.05-0.04-0.07-0.07c-1.14-1.02-2.65-1.66-3.87-2.6
			c-4.26-3.28-7.22-7.17-9.83-11.84c-2.33-0.04-4.68-0.09-7.01-0.02C127.45,105.98,132.32,110.14,136.75,112.65z M180.89,51.85
			c0.64,1.07,1.34,2.19,1.84,3.34c2.18,0,4.36,0.04,6.54,0c-4.42-6.22-9.13-10.91-16-14.42c-1.31-0.67-2.75-1.47-4.17-1.87
			C173.99,42.41,177.81,46.67,180.89,51.85z M146.8,114.38c0.85,0.53,1.99,1.41,2.95,1.67c0.08,0.02,0.15,0.04,0.23,0.05
			c-3.96-3.92-5.97-8.99-7.5-14.25l-8.23,0.01C137.37,107.26,141.56,111.12,146.8,114.38z M157.31,99.6l3.3,0
			c-0.01-2.65-0.05-5.31-0.03-7.96l2.73,0.01l6.54,0.03c0.91-1.68,1.31-3.01,1.33-4.93c-4.62,0-9.26-0.07-13.88,0.01L157.31,99.6z
			 M187.18,70.31c2.62,0,5.25,0.05,7.87,0c-0.98-4.44-2.24-8.87-4.55-12.84l-6.86,0C185.62,61.05,186.58,66.27,187.18,70.31z
			 M152.56,115.54c0.66,0.64,1.49,1.42,2.33,1.81c0.03,0.01,0.05,0.02,0.08,0.03l0.05-15.43c-3.35,0-6.72-0.03-10.07,0.02
			C146.62,106.92,148.75,111.85,152.56,115.54z M170.77,55.27c3.02,0,6.06,0.06,9.08-0.01c-3.33-6.07-7.17-11.06-13.09-14.83
			c-1.17-0.75-2.59-1.69-3.93-2.1c-0.03-0.01-0.06-0.02-0.09-0.02C166.84,43.01,169.37,49.23,170.77,55.27z M123.19,99.82l7.2-0.01
			c-1.93-4.2-3.21-8.5-3.98-13.06c-3.05,0-6.11-0.03-9.16,0.01C118.59,91.31,120.31,95.99,123.19,99.82z M157.32,55.19
			c3.64,0,7.3,0.1,10.93,0c-2.15-6.9-4.5-14.08-10.93-18.16L157.32,55.19z M133.13,99.79l8.69,0c-1-4.28-1.86-8.64-2.15-13.04
			l-10.7,0C129.5,91.01,131.12,95.99,133.13,99.79z M172.43,63.4c0.34,2.3,0.54,4.61,0.81,6.92l11.4,0.03
			c-0.72-4.42-1.83-8.73-3.69-12.82l-9.6-0.03C171.71,59.47,172.13,61.42,172.43,63.4z M144.21,99.67
			c3.62-0.03,7.23-0.03,10.85-0.01c-0.02-4.29-0.02-8.58,0-12.87l-12.85-0.02C142.63,91.1,143.16,95.44,144.21,99.67z M157.33,70.29
			l13.41,0c-0.41-4.31-1.14-8.51-1.96-12.76l-11.46-0.01L157.33,70.29z M157.33,84.46c4.6-0.04,9.19-0.05,13.79-0.04
			c0.18-0.9,0.09-1.95,0.08-2.86c-0.02-3-0.23-5.99-0.29-8.99l-13.59,0.02L157.33,84.46z M241.92,87.24
			c-0.89,0.22-1.87-0.01-2.79,0.01c-1.45,0.03-4.76,0.5-6.05-0.05c-0.33,0.01-0.46-0.03-0.7,0.23c-0.16,0.17-0.25,0.55-0.29,0.77
			c-0.64,3.11-1.72,6.3-2.87,9.26c-2.99,6.82-6.67,13.15-11.35,18.95c-1.88,2.33-4,4.51-6.15,6.59c-0.38,0.38-0.77,0.75-1.16,1.12
			c-0.39,0.37-0.78,0.73-1.18,1.1c-0.4,0.36-0.8,0.72-1.2,1.07c-0.4,0.35-0.81,0.7-1.23,1.05c-0.41,0.34-0.83,0.68-1.25,1.02
			c-0.42,0.34-0.84,0.67-1.27,0.99c-0.43,0.33-0.86,0.65-1.29,0.97c-0.43,0.32-0.87,0.63-1.31,0.94c-0.44,0.31-0.88,0.61-1.33,0.91
			c-0.45,0.3-0.89,0.59-1.35,0.89c-0.45,0.29-0.91,0.58-1.36,0.86c-0.46,0.28-0.92,0.56-1.38,0.83c-0.46,0.27-0.93,0.54-1.4,0.8
			c-0.47,0.26-0.94,0.52-1.42,0.77c-0.47,0.25-0.95,0.5-1.43,0.74c-0.48,0.24-0.96,0.48-1.45,0.71c-0.48,0.23-0.97,0.46-1.46,0.68
			c-0.49,0.22-0.98,0.44-1.47,0.65c-0.49,0.21-0.99,0.42-1.49,0.62c-0.5,0.2-1,0.4-1.5,0.59c-0.5,0.19-1.01,0.38-1.51,0.56
			c-0.51,0.18-1.01,0.36-1.52,0.52c-0.51,0.17-1.02,0.33-1.53,0.49c-0.51,0.16-1.03,0.31-1.54,0.46c-0.52,0.15-1.03,0.29-1.55,0.43
			c-0.52,0.14-1.04,0.27-1.56,0.4c-0.52,0.13-1.05,0.25-1.57,0.36c-0.52,0.12-1.05,0.23-1.58,0.33c-0.53,0.11-1.05,0.2-1.58,0.3
			c-0.53,0.09-1.06,0.18-1.59,0.27c-0.53,0.08-1.06,0.16-1.59,0.23c-0.53,0.07-1.07,0.14-1.6,0.2
			c-19.48,2.09-38.36-2.52-54.21-14.18c-2.37-1.74-4.64-3.61-6.8-5.61c-1.12-1.05-2.17-2.32-3.36-3.27l-0.02,0.1
			c0.7,0.91,1.4,1.81,2.12,2.71c12.72,15.81,33.99,27.36,54.15,29.54c2.13,0.25,4.26,0.42,6.39,0.52c2.14,0.1,4.28,0.13,6.41,0.08
			c0.57-0.02,1.13-0.05,1.69-0.08c0.56-0.03,1.13-0.07,1.69-0.11c0.56-0.04,1.13-0.09,1.69-0.14c0.56-0.05,1.13-0.11,1.69-0.18
			c0.56-0.06,1.12-0.14,1.68-0.21c0.56-0.08,1.12-0.16,1.68-0.24c0.56-0.09,1.12-0.18,1.67-0.28c0.56-0.1,1.11-0.2,1.67-0.31
			c0.55-0.11,1.11-0.22,1.66-0.34c0.55-0.12,1.1-0.25,1.65-0.38c0.55-0.13,1.1-0.27,1.65-0.41c0.55-0.14,1.09-0.29,1.64-0.44
			c0.54-0.15,1.09-0.31,1.63-0.48s1.08-0.33,1.62-0.51c0.54-0.17,1.07-0.35,1.61-0.54c0.53-0.19,1.07-0.38,1.6-0.57
			c0.53-0.2,1.06-0.4,1.58-0.6c0.53-0.21,1.05-0.42,1.57-0.64c0.52-0.22,1.04-0.44,1.56-0.67c0.52-0.23,1.03-0.46,1.55-0.7
			c0.51-0.24,1.02-0.48,1.53-0.73c0.51-0.25,1.01-0.5,1.52-0.76c0.5-0.26,1-0.52,1.5-0.79c0.5-0.27,0.99-0.54,1.49-0.82
			c0.49-0.28,0.98-0.56,1.47-0.85c0.49-0.29,0.97-0.58,1.45-0.88s0.96-0.6,1.43-0.91c0.47-0.31,0.95-0.62,1.42-0.94
			c0.47-0.32,0.93-0.64,1.4-0.96c0.46-0.33,0.92-0.66,1.38-0.99c0.46-0.34,0.91-0.67,1.36-1.02s0.89-0.69,1.34-1.05
			c18.05-14.53,29.06-35.7,31.56-58.64l-0.08-0.11l0.02,0.15l-0.1-0.18c-0.22,0.26-0.33,0.4-0.68,0.44c-0.83,0.1-1.76,0.01-2.6,0.01
			c-2.29,0-4.61,0.03-6.88-0.19C242.06,79.04,242.4,86.48,241.92,87.24z"/>
		<path class="st72" d="M222.34,87.78l6.03,0c1.16,0,2.46-0.1,3.61,0.1l0.12,0.33c-0.64,3.11-1.72,6.3-2.87,9.26
			c-2.29,0.06-4.6,0.02-6.89,0.02L222.34,87.78z M212.04,108.31l10.41-0.03c0.02-3.24,0.12-6.49,0.1-9.74l-10.53-0.07
			C212.01,101.75,212.02,105.03,212.04,108.31z M241.81,77.46c-3.25-0.07-6.51-0.09-9.77-0.07l0.02,6.88c0,1.15,0.14,2.5-0.09,3.61
			l0.12,0.33c0.03-0.22,0.12-0.6,0.29-0.77c0.24-0.26,0.37-0.23,0.7-0.23c1.29,0.56,4.6,0.08,6.05,0.05
			c0.92-0.02,1.9,0.21,2.79-0.01c0.47-0.76,0.13-8.21,0.11-9.54c2.28,0.22,4.6,0.2,6.88,0.19c0.84,0,1.77,0.09,2.6-0.01
			c0.35-0.04,0.46-0.18,0.68-0.44l0.1,0.18l-0.02-0.15l0.08,0.11c0.37-1.67,0.67-8.35,0.49-10.06c-0.29-0.17-0.66-0.13-0.99-0.14
			c-3.35-0.12-6.73-0.05-10.08-0.06L241.81,77.46z M180.57,111.94c3.68-0.13,7.37-0.01,11.05-0.03c0-3.62,0.06-7.25-0.06-10.86
			c-3.67-0.02-7.34-0.02-11.01,0.01L180.57,111.94z M170.25,112.29c3.7,0.02,7.39,0.01,11.09-0.04l0.01,10.59l-11.12-0.02
			c-0.01,1.46,0.28,10.02-0.12,10.64l-11.07-0.06l-0.01-10.9c3.74,0.02,7.49-0.01,11.23,0.1
			C170.29,119.16,170.25,115.72,170.25,112.29z M153.48,21.68c0.04,0,0.08-0.01,0.12-0.01c0.44-0.03,0.87-0.05,1.31-0.06
			c0.44-0.01,0.87-0.02,1.31-0.03c0.44,0,0.87,0,1.31,0c0.44,0.01,0.87,0.02,1.31,0.03c0.44,0.02,0.87,0.04,1.31,0.07
			c0.44,0.03,0.87,0.06,1.3,0.1c0.43,0.04,0.87,0.08,1.3,0.13c0.43,0.05,0.87,0.1,1.3,0.16c0.43,0.06,0.86,0.12,1.29,0.19
			c0.43,0.07,0.86,0.14,1.29,0.22c0.43,0.08,0.86,0.17,1.28,0.26c0.43,0.09,0.85,0.19,1.28,0.29c0.42,0.1,0.85,0.21,1.27,0.32
			c0.42,0.11,0.84,0.23,1.26,0.35c0.42,0.12,0.84,0.25,1.25,0.38c0.42,0.13,0.83,0.27,1.24,0.41c0.41,0.14,0.82,0.29,1.23,0.44
			c0.41,0.15,0.82,0.31,1.22,0.47s0.81,0.33,1.21,0.5c0.4,0.17,0.8,0.35,1.2,0.53c0.4,0.18,0.79,0.37,1.18,0.56
			c0.39,0.19,0.78,0.39,1.17,0.59s0.77,0.4,1.16,0.61c0.38,0.21,0.76,0.42,1.14,0.64c0.38,0.22,0.75,0.44,1.12,0.67
			c0.37,0.23,0.74,0.46,1.11,0.7c0.37,0.24,0.73,0.48,1.09,0.72c0.36,0.25,0.72,0.5,1.07,0.75c0.35,0.25,0.71,0.51,1.05,0.78
			c0.35,0.26,0.69,0.53,1.03,0.8c0.34,0.27,0.68,0.55,1.01,0.83c0.34,0.28,0.67,0.56,0.99,0.85c1.94,1.7,3.81,3.47,5.5,5.43
			c6.4,7.41,11.76,17.95,12.41,27.84l-6.77,0.02l-0.02,9.56l-2.22,0.01c0.05-2.54-0.18-5.14-0.55-7.65
			c-1.68-11.39-7.8-22.49-17.11-29.39c-0.3-0.22-0.6-0.44-0.91-0.66c-0.3-0.21-0.61-0.43-0.92-0.63c-0.31-0.21-0.62-0.41-0.94-0.61
			c-0.31-0.2-0.63-0.4-0.95-0.59c-0.32-0.19-0.64-0.38-0.97-0.56c-0.32-0.18-0.65-0.36-0.98-0.54c-0.33-0.18-0.66-0.35-0.99-0.52
			c-0.33-0.17-0.67-0.33-1-0.49c-0.34-0.16-0.68-0.32-1.02-0.47c-0.34-0.15-0.68-0.3-1.03-0.44c-0.34-0.14-0.69-0.28-1.04-0.42
			c-0.35-0.14-0.7-0.27-1.05-0.39c-0.35-0.13-0.7-0.25-1.06-0.37c-0.35-0.12-0.71-0.23-1.06-0.34c-0.36-0.11-0.71-0.21-1.07-0.32
			c-0.36-0.1-0.72-0.2-1.08-0.29c-0.36-0.09-0.72-0.18-1.09-0.26c-0.36-0.08-0.73-0.16-1.09-0.24c-0.37-0.07-0.73-0.14-1.1-0.21
			c-0.37-0.07-0.73-0.13-1.1-0.18c-0.37-0.06-0.74-0.11-1.11-0.16c-0.37-0.05-0.74-0.09-1.11-0.13c-0.37-0.04-0.74-0.07-1.11-0.1
			c-0.37-0.03-0.74-0.05-1.12-0.08c-0.37-0.02-0.74-0.04-1.12-0.05c-0.37-0.01-0.75-0.02-1.12-0.02c-0.37,0-0.75,0-1.12,0.01
			c-0.37,0.01-0.75,0.02-1.12,0.03c-0.37,0.02-0.74,0.04-1.12,0.06c-0.37,0.02-0.74,0.05-1.11,0.09c-0.37,0.03-0.74,0.07-1.11,0.11
			c-0.37,0.04-0.74,0.09-1.11,0.14c-0.37,0.05-0.74,0.11-1.11,0.17c-0.37,0.06-0.73,0.13-1.1,0.2c-0.37,0.07-0.73,0.15-1.1,0.23
			c-0.36,0.08-0.73,0.16-1.09,0.25c-0.36,0.09-0.72,0.18-1.08,0.28c-0.36,0.1-0.72,0.2-1.08,0.31s-0.71,0.22-1.07,0.33
			c-0.35,0.12-0.71,0.23-1.06,0.36c-0.35,0.12-0.7,0.25-1.05,0.38c-0.35,0.13-0.7,0.27-1.04,0.41c-0.35,0.14-0.69,0.29-1.03,0.44
			c-0.34,0.15-0.68,0.3-1.02,0.46c-0.34,0.16-0.67,0.32-1.01,0.49c-0.33,0.17-0.67,0.34-1,0.51c-0.33,0.17-0.66,0.35-0.98,0.53
			c-0.33,0.18-0.65,0.37-0.97,0.56c-0.32,0.19-0.64,0.38-0.96,0.58c-0.32,0.2-0.63,0.4-0.94,0.61c-0.31,0.21-0.62,0.42-0.93,0.63
			c-0.31,0.21-0.61,0.43-0.91,0.65c-0.3,0.22-0.6,0.45-0.89,0.67c-0.3,0.23-0.59,0.46-0.88,0.7c-0.29,0.24-0.58,0.47-0.86,0.72
			c-0.28,0.24-0.56,0.49-0.84,0.74c-0.28,0.25-0.55,0.5-0.82,0.76c-0.27,0.26-0.54,0.52-0.8,0.78c-0.26,0.26-0.53,0.53-0.79,0.8
			c-0.26,0.27-0.51,0.54-0.77,0.82c-0.25,0.28-0.5,0.55-0.74,0.84c-0.24,0.28-0.49,0.57-0.72,0.85c-0.24,0.29-0.47,0.58-0.7,0.87
			c-0.23,0.29-0.46,0.59-0.68,0.89c-0.18,0.25-0.36,0.5-0.54,0.75c-0.18,0.25-0.35,0.5-0.52,0.76c-0.17,0.26-0.34,0.51-0.51,0.77
			c-0.17,0.26-0.33,0.52-0.49,0.78c-0.16,0.26-0.32,0.53-0.48,0.79c-0.16,0.26-0.31,0.53-0.46,0.8c-0.15,0.27-0.3,0.54-0.45,0.81
			c-0.15,0.27-0.29,0.54-0.43,0.82c-0.14,0.27-0.28,0.55-0.41,0.83c-0.14,0.28-0.27,0.55-0.4,0.83c-0.13,0.28-0.26,0.56-0.38,0.84
			c-0.12,0.28-0.25,0.56-0.36,0.85c-0.12,0.28-0.23,0.57-0.35,0.86c-0.11,0.29-0.22,0.57-0.33,0.86c-0.11,0.29-0.21,0.58-0.31,0.87
			c-0.1,0.29-0.2,0.58-0.3,0.87c-0.1,0.29-0.19,0.59-0.28,0.88c-0.09,0.29-0.18,0.59-0.26,0.89c-0.08,0.3-0.17,0.59-0.24,0.89
			c-0.08,0.3-0.15,0.6-0.23,0.9c-0.07,0.3-0.14,0.6-0.21,0.9c-0.07,0.3-0.13,0.6-0.19,0.9c-0.06,0.3-0.12,0.6-0.17,0.91
			c-0.05,0.3-0.11,0.61-0.15,0.91c-0.05,0.3-0.09,0.61-0.14,0.91c-0.04,0.3-0.08,0.61-0.12,0.92c-0.04,0.31-0.07,0.61-0.1,0.92
			c-0.03,0.31-0.06,0.61-0.08,0.92c-0.02,0.31-0.04,0.61-0.06,0.92c-0.02,0.31-0.03,0.61-0.04,0.92c-0.01,0.31-0.02,0.62-0.03,0.92
			c-0.01,0.31-0.01,0.62-0.01,0.92c0.02,2.7,0.39,5.35,0.79,8.02c1.79,8.93,5.38,16.51,11.6,23.26c0.22,0.24,0.45,0.48,0.68,0.72
			c0.23,0.24,0.46,0.47,0.69,0.7c0.23,0.23,0.47,0.46,0.7,0.69c0.24,0.23,0.48,0.45,0.72,0.68c0.24,0.22,0.49,0.44,0.73,0.66
			c0.25,0.22,0.5,0.43,0.75,0.64c0.25,0.21,0.5,0.42,0.76,0.63c0.26,0.21,0.51,0.41,0.77,0.61c0.26,0.2,0.52,0.4,0.79,0.6
			c0.26,0.2,0.53,0.39,0.8,0.58c0.27,0.19,0.54,0.38,0.81,0.56c0.27,0.18,0.55,0.37,0.82,0.55c0.28,0.18,0.55,0.36,0.83,0.53
			c0.28,0.17,0.56,0.34,0.84,0.51c0.28,0.17,0.57,0.33,0.85,0.49c0.29,0.16,0.57,0.32,0.86,0.48c0.29,0.16,0.58,0.31,0.87,0.46
			c0.29,0.15,0.59,0.3,0.88,0.44c0.3,0.14,0.59,0.28,0.89,0.42c0.3,0.14,0.6,0.27,0.9,0.4c0.3,0.13,0.6,0.26,0.91,0.38
			c0.3,0.12,0.61,0.25,0.92,0.36c0.31,0.12,0.61,0.23,0.92,0.35c0.31,0.11,0.62,0.22,0.93,0.33c0.31,0.11,0.62,0.21,0.94,0.31
			c0.31,0.1,0.63,0.19,0.94,0.29c0.32,0.09,0.63,0.18,0.95,0.27c0.32,0.09,0.64,0.17,0.95,0.25c0.32,0.08,0.64,0.15,0.96,0.23
			c0.32,0.07,0.64,0.14,0.96,0.21c0.32,0.07,0.64,0.13,0.97,0.19c0.32,0.06,0.65,0.11,0.97,0.17c2.04,0.32,4.07,0.42,6.13,0.5
			l0,9.79c-13.18-0.32-26.7-5.53-36.58-14.28c-0.35-0.31-0.69-0.62-1.03-0.94c-0.34-0.32-0.67-0.64-1.01-0.96
			c-0.33-0.32-0.66-0.65-0.98-0.99c-0.32-0.33-0.64-0.67-0.96-1.01s-0.63-0.69-0.93-1.03c-0.31-0.35-0.61-0.7-0.91-1.06
			c-0.3-0.36-0.59-0.71-0.88-1.08c-0.29-0.36-0.57-0.73-0.86-1.1c-0.28-0.37-0.56-0.74-0.83-1.12c-0.27-0.38-0.54-0.76-0.8-1.14
			c-0.26-0.38-0.52-0.77-0.77-1.16c-0.25-0.39-0.5-0.78-0.75-1.18c-0.24-0.4-0.48-0.79-0.72-1.19c-0.23-0.4-0.46-0.8-0.69-1.21
			c-0.22-0.41-0.44-0.82-0.66-1.23c-0.21-0.41-0.42-0.83-0.63-1.24c-0.2-0.42-0.4-0.84-0.6-1.26c-0.19-0.42-0.38-0.85-0.57-1.27
			c-0.18-0.43-0.36-0.86-0.54-1.29s-0.34-0.86-0.5-1.3c-0.16-0.43-0.32-0.87-0.47-1.31c-0.15-0.44-0.3-0.88-0.44-1.32
			c-0.14-0.44-0.28-0.89-0.41-1.33c-0.13-0.45-0.26-0.89-0.38-1.34c-0.12-0.45-0.23-0.9-0.34-1.35c-0.11-0.45-0.21-0.9-0.31-1.36
			c-0.1-0.45-0.19-0.91-0.28-1.36c-0.09-0.46-0.17-0.91-0.24-1.37c-0.08-0.46-0.15-0.92-0.21-1.38c-0.06-0.46-0.12-0.92-0.18-1.38
			c-0.05-0.46-0.1-0.92-0.14-1.39c-0.04-0.46-0.08-0.93-0.11-1.39c-0.85-14.2,4.01-28.98,13.48-39.65
			C124.49,29.19,137.98,22.6,153.48,21.68z"/>
	</g>
</g>
<g id="Layer_15">
</g>
</svg>
