<?xml version="1.0" encoding="utf-8"?>
<!-- Generator: Adobe Illustrator 27.8.1, SVG Export Plug-In . SVG Version: 6.00 Build 0)  -->
<svg version="1.1" xmlns="http://www.w3.org/2000/svg" xmlns:xlink="http://www.w3.org/1999/xlink" x="0px" y="0px"
	 viewBox="0 0 350 230" style="enable-background:new 0 0 350 230;" xml:space="preserve">
<style type="text/css">
	.st0{fill:#CCFFE5;}
	.st1{fill:#1A87C2;}
	.st2{fill:#FFFEE3;}
	.st3{fill:#F8FCE3;}
	.st4{fill:#F1FFE6;}
	.st5{fill:#E1FFEF;}
	.st6{fill:#ADDAD0;}
	.st7{fill:#8DFFE9;}
	.st8{fill:#76DAC8;}
	.st9{fill:#006432;}
	.st10{fill:#0025FF;}
	.st11{fill:#00FF4E;}
	.st12{fill:#00FF85;}
	.st13{fill:#1E0D63;}
	.st14{fill:#FF4848;}
	.st15{fill:#00997C;}
	.st16{fill:#FF00C9;}
	.st17{fill:#00FF5B;}
	.st18{fill:#020044;}
	.st19{fill:#00FFCE;}
	.st20{fill:#00F3FF;}
	.st21{fill:#004437;}
	.st22{fill:#0019FF;}
	.st23{fill:#0031FF;}
	.st24{fill:#00D6AD;}
	.st25{fill:#9FDDFF;}
	.st26{fill:#720021;}
	.st27{fill:#CE7000;}
	.st28{fill:#205104;}
	.st29{fill:#004787;}
	.st30{fill:#FFFFFF;}
	.st31{fill:#EEB0F7;}
	.st32{fill:#004B96;}
	.st33{fill:#701000;}
	.st34{fill-rule:evenodd;clip-rule:evenodd;fill:#FFFF00;}
	.st35{fill-rule:evenodd;clip-rule:evenodd;fill:#68C7FC;}
	.st36{filter:url(#Adobe_OpacityMaskFilter);}
	.st37{fill-rule:evenodd;clip-rule:evenodd;fill:#FFFFFF;}
	
		.st38{mask:url(#earthglobe-b_00000087385483975625957440000004491752639183121025_);fill-rule:evenodd;clip-rule:evenodd;fill:#033D2B;}
	.st39{fill:#00FCFF;}
	.st40{fill:#003EF9;}
	.st41{fill:#001535;}
	.st42{fill:#003A55;}
	.st43{fill:#00FFEC;}
	.st44{fill:#FFFFA1;}
	.st45{fill:#EFFFC2;}
	.st46{fill:#FFD366;}
	.st47{fill:#CCFF73;}
	.st48{fill:#FFECC5;}
	.st49{fill:#DEFFA4;}
	.st50{fill:#CCFBFF;}
	.st51{fill:#FFF171;}
	.st52{fill-rule:evenodd;clip-rule:evenodd;fill:url(#SVGID_1_);}
	.st53{fill-rule:evenodd;clip-rule:evenodd;fill:url(#SVGID_00000140731665276665696150000002880306534612809912_);}
	.st54{fill-rule:evenodd;clip-rule:evenodd;fill:url(#SVGID_00000072249315621315842320000005598831176426439080_);}
	.st55{fill:#1C5D77;}
	.st56{fill:url(#SVGID_00000141437767931130693430000001701220179941609875_);}
	.st57{fill:url(#SVGID_00000061455684955754754530000013951442718845854399_);}
	.st58{fill:#115A77;}
	.st59{fill:url(#SVGID_00000171697656397771105440000015781923177326770875_);}
	.st60{fill:url(#SVGID_00000007410752543224214210000005295674647160805786_);}
	.st61{fill:url(#SVGID_00000147906435634175700890000010816614055113887672_);}
	.st62{fill:url(#SVGID_00000171709804814479496310000012645159409357975985_);}
	.st63{fill:url(#SVGID_00000148631521661710500420000007933108993726854298_);}
	.st64{fill:#00ADEE;}
	.st65{fill:#003454;}
	.st66{fill:#1C75BC;}
	.st67{fill:#EC1A3D;}
	.st68{fill:#115699;}
	.st69{fill:url(#SVGID_00000106127907216611424070000006808914703069068698_);}
	.st70{fill:#1286BC;}
	.st71{fill:#CE3348;}
	.st72{fill:#15A5CF;}
	.st73{fill:url(#SVGID_00000133514014795922634590000000792790176528582325_);}
	.st74{fill:url(#SVGID_00000165226551210712875460000012934416344131746456_);}
	.st75{fill:url(#SVGID_00000116923343448772857730000016000966870068842631_);}
	.st76{fill:url(#SVGID_00000003097257615092924440000013228931243409084050_);}
	.st77{fill:url(#SVGID_00000159465272212556389240000017084329571533490334_);}
	.st78{fill:#27A7BD;}
	.st79{fill:url(#SVGID_00000046328660949523985020000013314605138806367898_);}
	.st80{fill:#0C3366;}
	.st81{fill:#296616;}
	.st82{fill:url(#SVGID_00000181055451712124092670000015004996221164055173_);}
	.st83{fill:#FEFEFE;}
	.st84{fill:url(#SVGID_00000057867039479059391410000006885920361155079303_);}
	.st85{fill:#1F2F6F;}
	.st86{fill:#E22D9E;}
	.st87{fill:#24B6D6;}
	.st88{fill:#4785DF;}
	.st89{fill:#E5A85F;}
	.st90{fill:#B993D5;}
	.st91{fill:url(#SVGID_00000141442363070151202630000010247434515925453742_);}
	.st92{fill:url(#SVGID_00000036955225817520290480000005423589294347086233_);}
	.st93{fill:#BC201C;}
	.st94{fill:#F58622;}
	.st95{fill:#0093EC;}
	.st96{fill:#EA2B1E;}
	.st97{fill:#0370B7;}
	.st98{fill:#52BEE5;}
	.st99{fill:#0C1D54;}
	.st100{fill:url(#SVGID_00000097490452155137062180000015872509631611141798_);}
	.st101{fill:#021AB0;}
	.st102{fill:url(#SVGID_00000042018110592603760900000010587081408557588389_);}
	.st103{fill:#0B5BA1;}
	.st104{fill:#03BCF6;}
	.st105{fill:#12762D;}
	.st106{fill:#04175E;}
	.st107{fill:#1C3256;}
	.st108{fill:url(#SVGID_00000067947104049940028710000011056449616259871885_);}
	.st109{fill:url(#SVGID_00000042013665673026644550000017828579595408383927_);}
	.st110{filter:url(#Adobe_OpacityMaskFilter_00000180328958547881268140000010765665631428798110_);}
	.st111{filter:url(#Adobe_OpacityMaskFilter_00000034809546900138629310000011603741396448780693_);}
	
		.st112{mask:url(#id1_00000146485563377409592040000005772442032840226459_);fill:url(#SVGID_00000120544744558375997830000004635000279039450770_);}
	.st113{fill:url(#SVGID_00000168087501118541602850000002624852536845673631_);}
	.st114{filter:url(#Adobe_OpacityMaskFilter_00000000224733773733229990000006003541972023121853_);}
	.st115{filter:url(#Adobe_OpacityMaskFilter_00000157989800740303086490000000687479533847156117_);}
	
		.st116{mask:url(#id3_00000168109000624740836550000007834763661270834568_);fill:url(#SVGID_00000125594046123609092390000005711908516505145790_);}
	.st117{fill:url(#SVGID_00000096742253933583538400000007987124037308752277_);}
	.st118{fill:url(#SVGID_00000056411857118784279710000016444708632460941202_);}
	.st119{filter:url(#Adobe_OpacityMaskFilter_00000178177071084915338940000014227078319757451136_);}
	.st120{filter:url(#Adobe_OpacityMaskFilter_00000176734157999324924420000007925220998958877600_);}
	
		.st121{mask:url(#id6_00000132796066337860907750000005297968124821667726_);fill:url(#SVGID_00000116194079945689376430000002629275860273626287_);}
	.st122{fill:url(#SVGID_00000031176422186067487890000004508422763687686306_);}
	.st123{fill:#5EFAF7;}
	.st124{fill:url(#SVGID_00000172423070624942315000000000565638344711827614_);}
	.st125{fill:#6C5B8D;}
	.st126{fill:#59B8BD;}
	.st127{fill:#38718C;}
	.st128{fill:#222252;}
	.st129{fill:url(#SVGID_00000088091697290684937620000011422711811908447620_);}
	.st130{fill:url(#SVGID_00000068667165343197853860000014445838883987836341_);}
	.st131{fill:url(#SVGID_00000052801084263647977460000008959516558691896502_);}
	.st132{fill:#26CF70;}
	.st133{fill:#14A3F5;}
	.st134{fill:#FF6633;}
	.st135{fill:url(#SVGID_00000115509575289913023450000011509857188159097530_);}
	.st136{fill:url(#SVGID_00000127765762196416292950000010518143927383154093_);}
	.st137{fill:#2444C6;}
	.st138{fill-rule:evenodd;clip-rule:evenodd;fill:#29AAE3;}
	.st139{fill:#29AAE3;}
	.st140{fill:#FAA800;}
	.st141{fill-rule:evenodd;clip-rule:evenodd;fill:#FAA800;}
	.st142{fill-rule:evenodd;clip-rule:evenodd;}
	.st143{fill-rule:evenodd;clip-rule:evenodd;fill:#00B3E6;}
	.st144{fill:#6FB4CD;}
	.st145{fill:#04D974;}
	.st146{fill:#1FA698;}
	.st147{fill:#147DAC;}
	.st148{fill:#00B3E6;}
	.st149{fill:#0E2838;}
	.st150{fill:url(#SVGID_00000143602755133465825940000009963297798549902765_);}
	.st151{fill:url(#SVGID_00000167397600060855997910000010457927383313747902_);}
	.st152{fill-rule:evenodd;clip-rule:evenodd;fill:#66A30B;}
	.st153{fill-rule:evenodd;clip-rule:evenodd;fill:#04D974;}
	.st154{fill-rule:evenodd;clip-rule:evenodd;fill:#1D83B1;}
	.st155{fill-rule:evenodd;clip-rule:evenodd;fill:#CD0E07;}
	.st156{fill-rule:evenodd;clip-rule:evenodd;fill:#FFC319;}
	.st157{fill:url(#SVGID_00000082360092043224718670000001354227561992317097_);}
</style>
<g id="Layer_1">
</g>
<g id="Layer_2">
</g>
<g id="Layer_3">
</g>
<g id="Layer_4">
</g>
<g id="Layer_5">
</g>
<g id="Layer_6">
</g>
<g id="Layer_7">
</g>
<g id="Layer_8">
</g>
<g id="Layer_9">
</g>
<g id="Layer_10">
</g>
<g id="Layer_11">
</g>
<g id="Layer_12">
</g>
<g id="Layer_13">
</g>
<g id="_x31_-15">
</g>
<g id="Layer_15">
	<g>
		<path d="M163.52,67.7c-0.09,1.24-0.2,2.37-0.23,3.5c-0.15,5.51-0.32,11.03-0.4,16.54c-0.06,4.74,0.5,9.45,0.95,14.16
			c0.08,0.85,0.1,1.7,0.16,2.55c0.03,0.45-0.15,0.62-0.6,0.62c-2.7-0.04-5.41-0.08-8.11-0.1c-2.81-0.02-5.62-0.03-8.44-0.04
			c-2.14-0.01-4.28-0.04-6.41-0.03c-0.44,0-0.68-0.12-0.79-0.57c-0.5-2.18-1.07-4.35-1.53-6.55c-0.97-4.65-1.29-9.36-1.23-14.1
			c0.07-4.99,0.73-9.91,1.72-14.79c0.25-1.22,0.25-1.22,1.47-1.21c5.63,0.01,11.26,0.01,16.88,0.02c1.94,0,3.87,0.01,5.81,0.01
			C162.99,67.7,163.2,67.7,163.52,67.7z M203.7,67.69c-3.82,0-7.63,0.01-11.45-0.01c-0.61,0-0.79,0.15-0.74,0.77
			c0.2,2.63,0.47,5.26,0.5,7.9c0.08,5.32,0.03,10.64,0.02,15.97c0,0.89-0.07,1.79-0.16,2.68c-0.3,3.14-0.61,6.29-0.94,9.43
			c-0.05,0.5,0.1,0.64,0.6,0.64c7.53-0.02,15.05-0.03,22.58-0.01c0.58,0,0.82-0.24,0.93-0.76c0.29-1.36,0.61-2.72,0.9-4.08
			c1.02-4.66,1.59-9.37,1.75-14.13c0.13-3.65-0.03-7.28-0.54-10.89c-0.33-2.3-0.82-4.59-1.21-6.88c-0.09-0.54-0.37-0.64-0.85-0.64
			c-3.8,0.02-7.59,0.01-11.39,0.01C203.7,67.67,203.7,67.68,203.7,67.69z M166.17,95.74c0.33,2.84,0.5,5.69,0.72,8.54
			c0.04,0.55,0.21,0.78,0.82,0.78c6.54-0.03,13.09-0.03,19.63-0.02c0.53,0,0.74-0.18,0.78-0.68c0.32-3.47,0.92-6.94,0.93-10.41
			c0.04-8.52,0.53-17.05-0.36-25.56c-0.05-0.47-0.17-0.64-0.65-0.64c-6.78,0.01-13.57,0-20.35,0.01c-1.45,0-1.46,0.03-1.5,1.52
			c-0.09,3.62-0.18,7.24-0.27,10.86C165.91,85.33,165.56,90.54,166.17,95.74z M136.35,101.55c-0.8-3.98-1.48-7.96-1.73-12.02
			c-0.31-4.96-0.23-9.9,0.42-14.82c0.27-2.05,0.61-4.09,0.88-6.15c0.11-0.87,0.07-0.88-0.79-0.88c-4.3,0-8.59,0-12.89,0
			c-1.79,0-2.74,0.61-3.42,2.28c-1.33,3.25-2.11,6.64-2.5,10.11c-0.5,4.49-0.31,8.97,0.61,13.41c0.69,3.32,1.79,6.49,3.4,9.49
			c0.78,1.44,1.93,2.1,3.55,2.08c4.08-0.06,8.16-0.08,12.23-0.12c0.27,0,0.55-0.03,0.91-0.06
			C136.79,103.72,136.57,102.64,136.35,101.55z M220.23,86.38c-0.25,6.28-1.24,12.44-2.73,18.6c0.35,0.02,0.56,0.03,0.78,0.03
			c1.83,0.01,3.66,0.02,5.49,0.03c2.27,0.01,4.53,0.05,6.8,0.04c1.01-0.01,1.9-0.4,2.47-1.25c0.61-0.9,1.2-1.82,1.68-2.79
			c2.18-4.45,2.91-9.22,3.08-14.12c0.14-3.96-0.17-7.89-0.87-11.78c-0.36-1.99-0.83-3.96-1.82-5.76c-0.63-1.15-1.49-1.74-2.88-1.72
			c-4.29,0.06-8.59,0.02-12.89,0.02c-0.23,0-0.47,0-0.86,0C219.67,73.92,220.48,80.09,220.23,86.38z M188.39,64.46
			c-0.2-1.82-0.35-3.65-0.63-5.46c-0.53-3.42-1.06-6.85-1.76-10.24c-0.53-2.59-1.23-5.16-2.04-7.69c-0.62-1.93-2.02-3.21-4.1-3.5
			c-1.16-0.16-2.34-0.18-3.51-0.18c-0.52,0-1.08,0.16-1.56,0.38c-1.68,0.76-2.65,2.23-3.44,3.8c-1.72,3.43-2.5,7.14-3.09,10.89
			c-0.46,2.93-0.79,5.87-1.16,8.81c-0.15,1.16-0.26,2.32-0.4,3.52c7.26,0,14.45,0,21.66,0C188.37,64.66,188.4,64.56,188.39,64.46z
			 M167.94,113.62c0.6,3.21,1.23,6.42,2.05,9.57c0.52,2.01,1.36,3.94,2.17,5.86c0.55,1.31,1.52,2.32,3,2.58
			c1.22,0.21,2.45,0.35,3.69,0.44c2.02,0.14,3.32-0.83,4.09-2.68c1.22-2.93,2.1-5.95,2.68-9.06c0.52-2.78,0.93-5.59,1.39-8.38
			c0.21-1.3,0.42-2.61,0.64-3.96c-6.8,0-13.55,0-20.43,0C167.45,109.91,167.59,111.78,167.94,113.62z M202.71,41.41
			c0.11,0.09,0.21,0.19,0.32,0.28c3.83,3.09,6.92,6.8,9.44,11.01c2.02,3.37,3.68,6.91,4.72,10.72c0.38,1.4,0.35,1.41,1.84,1.42
			c3.75,0.04,7.5,0.09,11.25,0.13c0.24,0,0.48,0,0.72-0.03c1.44-0.19,2.04-0.96,1.49-2.3c-0.75-1.82-1.56-3.67-2.66-5.29
			c-6-8.83-14.44-13.9-24.85-15.85c-0.73-0.14-1.48-0.16-2.23-0.24C202.74,41.32,202.73,41.36,202.71,41.41z M151.72,41.42
			c-0.28,0-0.58-0.04-0.85,0.01c-3.93,0.65-7.71,1.77-11.36,3.36c-7.26,3.17-12.78,8.2-16.38,15.28c-0.5,0.99-0.89,2.09-1.08,3.19
			c-0.21,1.24,0.22,1.58,1.5,1.59c3.64,0.04,7.28,0.07,10.92,0.15c1.96,0.04,2.02,0.03,2.68-1.87c1.16-3.31,2.43-6.58,4.29-9.56
			c2.67-4.28,5.86-8.11,9.76-11.33c0.22-0.18,0.4-0.42,0.6-0.63C151.77,41.55,151.75,41.49,151.72,41.42z M150.98,127.65
			c-0.48-0.41-1.01-0.77-1.46-1.21c-4.45-4.4-7.98-9.43-10.37-15.24c-0.38-0.93-0.75-1.86-1.2-2.75c-0.11-0.23-0.47-0.49-0.72-0.49
			c-4.47-0.02-8.94,0-13.41,0.02c-0.68,0-1.11,0.59-0.93,1.25c0.06,0.23,0.16,0.45,0.27,0.66c1.19,2.16,2.5,4.25,4.13,6.11
			c6.24,7.11,14.11,11.13,23.45,12.33c0.22,0.03,0.45,0,0.88,0C151.32,128.01,151.16,127.81,150.98,127.65z M203.26,128.24
			c0.4-0.05,0.8-0.07,1.19-0.14c2.68-0.43,5.25-1.22,7.78-2.17c7.9-2.98,14.23-7.82,18.26-15.4c0.23-0.44,0.45-0.9,0.58-1.38
			c0.18-0.68-0.15-1.09-0.84-1.19c-0.19-0.03-0.39-0.02-0.59-0.03c-4.12-0.03-8.24-0.05-12.36-0.1c-0.44,0-0.66,0.13-0.83,0.54
			c-0.7,1.62-1.41,3.23-2.16,4.82c-2.62,5.56-6.04,10.54-10.73,14.57c-0.13,0.11-0.3,0.15-0.46,0.23
			C203.15,128.07,203.2,128.15,203.26,128.24z M193.86,39.14c0.1,0.16,0.19,0.33,0.29,0.49c1.11,1.93,2.26,3.83,3.31,5.78
			c3.17,5.88,5.25,12.17,6.76,18.66c0.13,0.57,0.37,0.77,0.97,0.77c3.05-0.02,6.11,0,9.16,0c0.25,0,0.5-0.03,0.78-0.05
			c-0.04-0.25-0.04-0.43-0.09-0.59c-1.25-4.57-3.14-8.86-5.76-12.81c-2.96-4.49-6.59-8.29-11.43-10.79
			c-1.24-0.64-2.57-1.12-3.85-1.68C193.95,38.99,193.91,39.07,193.86,39.14z M158.81,64.85c1.46,0,2.92-0.01,4.38,0.01
			c0.4,0.01,0.59-0.11,0.64-0.53c0.14-1.08,0.3-2.15,0.48-3.22c0.55-3.33,1.07-6.67,1.67-9.99c0.6-3.33,1.53-6.57,2.81-9.7
			c0.41-1.01,0.95-1.96,1.38-2.95c0.27-0.63,0-0.92-0.68-0.78c-0.49,0.1-0.97,0.25-1.47,0.33c-1.89,0.31-3.51,1.01-4.67,2.66
			c-1.5,2.14-2.7,4.43-3.77,6.79c-2.36,5.23-4.25,10.63-5.9,16.11c-0.35,1.15-0.27,1.25,0.94,1.26c1.4,0.01,2.79,0,4.19,0
			C158.81,64.84,158.81,64.85,158.81,64.85z M161.03,39.17c-0.44,0.12-0.9,0.22-1.33,0.38c-2.97,1.07-5.48,2.86-7.7,5.05
			c-5.61,5.52-9.53,12.11-12.1,19.54c-0.19,0.55-0.01,0.72,0.52,0.72c3.01-0.01,6.02,0,9.02-0.01c0.9-0.01,1.1-0.21,1.36-1.1
			c0.56-1.9,1.1-3.8,1.71-5.68c1.81-5.63,4-11.09,7.12-16.14c0.52-0.84,1-1.72,1.49-2.58C161.1,39.28,161.06,39.22,161.03,39.17z
			 M185.19,38.22c2.11,3.72,3.35,7.76,4.06,11.93c0.79,4.63,1.3,9.31,1.9,13.98c0.07,0.55,0.23,0.74,0.8,0.73
			c3.01-0.02,6.01-0.01,9.02-0.01c0.19,0,0.38-0.03,0.61-0.04c-0.02-0.2-0.02-0.36-0.06-0.49c-1.01-3.28-1.95-6.59-3.07-9.84
			c-1.62-4.68-3.76-9.11-6.41-13.32c-1.66-2.64-4.17-3.27-7.05-3.46C185.07,37.92,185.11,38.08,185.19,38.22z M140.77,108.59
			c1.03,2.28,1.98,4.6,3.13,6.82c2.13,4.14,4.79,7.9,8.43,10.88c2.34,1.92,4.94,3.34,7.91,4.02c0.38,0.09,0.8,0,1.2-0.01
			c-0.14-0.37-0.27-0.74-0.42-1.11c-0.02-0.06-0.08-0.11-0.11-0.16c-2.5-3.58-4.69-7.35-6.4-11.37c-1.23-2.9-2.31-5.87-3.42-8.82
			c-0.25-0.67-0.57-0.94-1.31-0.93c-2.83,0.05-5.67,0.03-8.51,0.03c-0.21,0-0.42,0-0.72,0
			C140.65,108.23,140.69,108.42,140.77,108.59z M169.98,130.84c-0.92-2.74-1.9-5.46-2.73-8.23c-1.36-4.58-2.2-9.28-2.7-14.03
			c-0.05-0.49-0.23-0.66-0.73-0.65c-2.79,0.03-5.58,0.03-8.37,0.04c-0.56,0-1.13,0-1.77,0c0.06,0.27,0.08,0.47,0.14,0.64
			c1.06,2.74,2.02,5.52,3.21,8.2c1.86,4.18,4.12,8.15,6.93,11.8c1.6,2.07,3.62,3.02,6.3,3.06
			C170.14,131.33,170.06,131.08,169.98,130.84z M187.02,131.51c1.51-0.09,2.83-0.66,3.75-1.85c1.06-1.37,2.11-2.78,2.99-4.27
			c2.77-4.66,4.71-9.7,6.42-14.83c0.28-0.83,0.54-1.67,0.83-2.57c-3.55,0-6.99,0-10.43,0c-0.37,2.41-0.64,4.79-1.11,7.13
			c-0.71,3.58-1.46,7.16-2.38,10.7c-0.51,1.98-1.4,3.86-2.14,5.86C185.59,131.62,186.3,131.55,187.02,131.51z M213.35,107.94
			c-2.94,0-5.89,0.02-8.83-0.02c-0.59-0.01-0.77,0.23-0.92,0.73c-0.54,1.81-1.08,3.63-1.7,5.41c-1.98,5.64-4.67,10.92-8.18,15.77
			c-0.08,0.11-0.12,0.24-0.24,0.48c2.82-0.53,5.42-1.3,7.63-3c6.46-4.97,10.47-11.58,12.89-19.34
			C213.73,107.96,213.54,107.94,213.35,107.94z"/>
		<path class="st145" d="M238.82,99.05c0.32-1.47,0.62-2.76,0.89-4.06c0.09-0.43,0.31-0.56,0.72-0.56c3.03,0.02,6.06,0.01,9.09,0.04
			c1.22,0.01,2.3,0.47,3.25,1.23c0.92,0.74,1.93,1.06,3.14,1.06c5.02-0.03,10.03,0,15.05,0.04c0.71,0.01,1.25-0.2,1.74-0.7
			c0.79-0.81,1.71-1.42,2.9-1.48c2.14-0.11,4.19,1.61,4.71,3.95c0.45,1.98-0.19,3.63-1.76,4.6c-1.78,1.09-4.11,1.08-5.51-0.18
			c-0.93-0.84-1.88-1.11-3.12-1.08c-4.25,0.09-8.51,0.03-12.76,0.04c-1.86,0.01-3.48-0.57-4.77-1.92c-1.15-1.21-2.36-1.57-4.12-1.35
			C245.17,99.07,242.01,98.95,238.82,99.05z M115.55,68.55c-2.75-0.02-5.51-0.21-8.24,0c-2.37,0.19-4.29-0.37-6.06-1.91
			c-1.59-1.39-3.52-1.88-5.64-1.84c-4.49,0.09-8.98,0.08-13.47,0.16c-1.09,0.02-1.99-0.18-2.91-0.84c-2.63-1.88-5.64-0.16-6.19,2.05
			c-0.47,1.91,0.18,3.53,1.64,4.81c1.61,1.41,3.64,1.25,5.03-0.39c0.42-0.49,0.87-0.71,1.52-0.71c5.43,0.03,10.86,0.07,16.29,0.02
			c1.62-0.02,2.96,0.47,4.09,1.54c1.21,1.14,2.64,1.54,4.24,1.54c2.75,0.01,5.5,0,8.24,0.03c0.47,0,0.66-0.21,0.77-0.61
			c0.27-0.94,0.56-1.88,0.84-2.81c0.09-0.31,0.19-0.61,0.31-0.99C115.77,68.57,115.66,68.55,115.55,68.55z M239.18,72.44
			c0.12,0.39,0.36,0.53,0.77,0.53c1.77-0.01,3.54-0.1,5.3,0.03c2.54,0.19,4.72-0.41,6.53-2.29c0.91-0.94,2.18-1.18,3.44-1.19
			c2.77-0.03,5.53,0.01,8.3,0.02c2.72,0.02,5.45,0.03,8.17,0.09c0.34,0.01,0.75,0.21,1.01,0.45c0.91,0.84,1.94,1.29,3.19,1.24
			c1.8-0.06,3.24-1.19,3.76-3c0.5-1.78-0.13-3.69-1.53-4.59c-1.14-0.74-3.37-0.98-4.79,0.43c-0.61,0.61-1.33,0.78-2.14,0.76
			c-1.59-0.03-3.18-0.08-4.77-0.09c-1.7-0.01-3.4,0.03-5.1,0.03c-2.03-0.01-4.05-0.06-6.08-0.06c-1.16,0-2.23,0.34-3.17,1.04
			c-0.77,0.57-1.55,1.12-2.31,1.72c-0.78,0.62-1.64,0.93-2.65,0.91c-2.59-0.03-5.19-0.01-7.78-0.01c-0.41,0-0.81,0-1.38,0
			C238.4,69.92,238.8,71.18,239.18,72.44z M115.04,98.18c-0.25-1.01-0.54-2.02-0.77-3.04c-0.12-0.53-0.37-0.69-0.9-0.68
			c-2.29,0.04-4.58,0.12-6.87,0.02c-1.72-0.07-3.21,0.32-4.61,1.3c-1.16,0.81-2.46,1.13-3.88,1.13c-4.32-0.02-8.63-0.03-12.95,0
			c-0.88,0.01-1.6-0.18-2.34-0.72c-2.03-1.5-5.13-0.72-6.03,1.42c-0.71,1.69-0.03,4.07,1.5,5.24c1.41,1.08,3.28,0.98,4.87-0.33
			c0.51-0.42,1.02-0.59,1.66-0.58c3.99,0.03,7.98-0.01,11.97,0.06c2.17,0.04,4.03-0.56,5.59-2.07c0.78-0.76,1.69-1.05,2.79-1.02
			c3.12,0.06,6.24,0.05,9.35,0.07c0.21,0,0.42-0.02,0.7-0.04C115.1,98.64,115.1,98.4,115.04,98.18z M103.3,85.88
			c3.1,0,6.19,0,9.29,0c0.32,0,0.67,0.08,0.66-0.46c-0.01-1.26,0-2.53,0.02-3.79c0.01-0.42-0.16-0.57-0.59-0.56
			c-1.24,0.02-2.49,0.01-3.73,0.01c-4.82,0-9.64,0-14.46,0.02c-0.74,0-1.26-0.14-1.75-0.83c-1.27-1.83-3.71-2.6-5.8-1.99
			c-2.12,0.61-3.64,2.52-3.78,4.76c-0.15,2.37,1.07,4.49,3.09,5.36c2.22,0.96,4.94,0.27,6.39-1.65c0.47-0.62,0.98-0.93,1.81-0.91
			c2.94,0.05,5.89,0.02,8.83,0.02C103.3,85.87,103.3,85.87,103.3,85.88z M248.87,81.08c-2.49,0-4.97,0.01-7.46-0.01
			c-0.53,0-0.73,0.14-0.71,0.7c0.05,1.11,0.07,2.23,0.03,3.34c-0.02,0.6,0.16,0.77,0.77,0.77c4.86-0.02,9.73,0,14.59-0.03
			c0.67,0,1.11,0.18,1.56,0.69c1.48,1.66,3.33,2.28,5.49,1.55c3.26-1.1,5.46-5.47,2.53-8.74c-2.29-2.55-6.51-2.12-8.22,0.86
			c-0.34,0.59-0.74,0.87-1.45,0.86c-2.38-0.04-4.76-0.02-7.13-0.02C248.87,81.06,248.87,81.07,248.87,81.08z M284.39,83.18
			c0.09-3.1-2.12-5.35-5.35-5.44c-2.75-0.08-5.23,2.25-5.3,4.97c-0.08,3.15,2.23,5.53,5.45,5.61
			C281.79,88.39,284.31,85.9,284.39,83.18z M71.12,78.19c-2.53-0.02-5.36,1.8-5.5,5.11c-0.13,2.98,2.23,5.33,5.4,5.44
			c2.13,0.07,5.26-2.11,5.19-5.33C76.3,80.5,74.14,78.21,71.12,78.19z"/>
	</g>
</g>
</svg>
