<?xml version="1.0" encoding="utf-8"?>
<!-- Generator: Adobe Illustrator 27.8.1, SVG Export Plug-In . SVG Version: 6.00 Build 0)  -->
<svg version="1.1" xmlns="http://www.w3.org/2000/svg" xmlns:xlink="http://www.w3.org/1999/xlink" x="0px" y="0px"
	 viewBox="0 0 350 230" style="enable-background:new 0 0 350 230;" xml:space="preserve">
<style type="text/css">
	.st0{fill:#CCFFE5;}
	.st1{fill:#1A87C2;}
	.st2{fill:#FFFEE3;}
	.st3{fill:#F8FCE3;}
	.st4{fill:#F1FFE6;}
	.st5{fill:#E1FFEF;}
	.st6{fill:#ADDAD0;}
	.st7{fill:#8DFFE9;}
	.st8{fill:#76DAC8;}
	.st9{fill:#006432;}
	.st10{fill:#0025FF;}
	.st11{fill:#00FF4E;}
	.st12{fill:#00FF85;}
	.st13{fill:#1E0D63;}
	.st14{fill:#FF4848;}
	.st15{fill:#00997C;}
	.st16{fill:#FF00C9;}
	.st17{fill:#00FF5B;}
	.st18{fill:#020044;}
	.st19{fill:#00FFCE;}
	.st20{fill:#00F3FF;}
	.st21{fill:#004437;}
	.st22{fill:#0019FF;}
	.st23{fill:#0031FF;}
	.st24{fill:#00D6AD;}
	.st25{fill:#9FDDFF;}
	.st26{fill:#720021;}
	.st27{fill:#CE7000;}
	.st28{fill:#205104;}
	.st29{fill:#004787;}
	.st30{fill:#FFFFFF;}
	.st31{fill:#EEB0F7;}
	.st32{fill:#004B96;}
	.st33{fill:#701000;}
	.st34{fill-rule:evenodd;clip-rule:evenodd;fill:#FFFF00;}
	.st35{fill-rule:evenodd;clip-rule:evenodd;fill:#68C7FC;}
	.st36{filter:url(#Adobe_OpacityMaskFilter);}
	.st37{fill-rule:evenodd;clip-rule:evenodd;fill:#FFFFFF;}
	
		.st38{mask:url(#earthglobe-b_00000087385483975625957440000004491752639183121025_);fill-rule:evenodd;clip-rule:evenodd;fill:#033D2B;}
	.st39{fill:#00FCFF;}
	.st40{fill:#003EF9;}
	.st41{fill:#001535;}
	.st42{fill:#003A55;}
	.st43{fill:#00FFEC;}
	.st44{fill:#FFFFA1;}
	.st45{fill:#EFFFC2;}
	.st46{fill:#FFD366;}
	.st47{fill:#CCFF73;}
	.st48{fill:#FFECC5;}
	.st49{fill:#DEFFA4;}
	.st50{fill:#CCFBFF;}
	.st51{fill:#FFF171;}
	.st52{fill-rule:evenodd;clip-rule:evenodd;fill:url(#SVGID_1_);}
	.st53{fill-rule:evenodd;clip-rule:evenodd;fill:url(#SVGID_00000131348284560477574000000014521695163387636665_);}
	.st54{fill-rule:evenodd;clip-rule:evenodd;fill:url(#SVGID_00000079457130614198536630000013152977979696146600_);}
	.st55{fill:#1C5D77;}
	.st56{fill:url(#SVGID_00000020371447395993765840000011273787100268173956_);}
	.st57{fill:url(#SVGID_00000132795634888050788690000002747718102134163118_);}
	.st58{fill:#115A77;}
	.st59{fill:url(#SVGID_00000062905735518028197150000007900997757574698373_);}
	.st60{fill:url(#SVGID_00000029016087167718399130000009263620287029738147_);}
	.st61{fill:url(#SVGID_00000008116215965333951370000002766883883905803430_);}
	.st62{fill:url(#SVGID_00000103229899602328161730000011452031975919863722_);}
	.st63{fill:url(#SVGID_00000172438897175240732180000014338250454414586033_);}
	.st64{fill:#00ADEE;}
	.st65{fill:#003454;}
	.st66{fill:#1C75BC;}
	.st67{fill:#EC1A3D;}
	.st68{fill:#115699;}
	.st69{fill:url(#SVGID_00000078021075405021819720000001673509105167008905_);}
	.st70{fill:#1286BC;}
	.st71{fill:#CE3348;}
	.st72{fill:#15A5CF;}
	.st73{fill:url(#SVGID_00000114050683409137806140000015072433183886233001_);}
	.st74{fill:url(#SVGID_00000040560753963553982150000009830403811390005947_);}
	.st75{fill:url(#SVGID_00000050647079448649867070000001207888447483841168_);}
	.st76{fill:url(#SVGID_00000159456252662891380150000010218212780012264343_);}
	.st77{fill:url(#SVGID_00000124880863729465013040000001548904700007745943_);}
	.st78{fill:#27A7BD;}
	.st79{fill:url(#SVGID_00000022524091305228613010000013126174555779059372_);}
	.st80{fill:#0C3366;}
	.st81{fill:#296616;}
	.st82{fill:url(#SVGID_00000046314679042831935670000001115569760723601826_);}
	.st83{fill:#FEFEFE;}
	.st84{fill:url(#SVGID_00000156549139212043116840000006126943622201854599_);}
	.st85{fill:#1F2F6F;}
	.st86{fill:#E22D9E;}
	.st87{fill:#24B6D6;}
	.st88{fill:#4785DF;}
	.st89{fill:#E5A85F;}
	.st90{fill:#B993D5;}
	.st91{fill:url(#SVGID_00000033347162475542508050000008574091706131984001_);}
	.st92{fill:url(#SVGID_00000113316928117806087920000015996170967076137859_);}
	.st93{fill:#BC201C;}
	.st94{fill:#F58622;}
	.st95{fill:#0093EC;}
	.st96{fill:#EA2B1E;}
	.st97{fill:#0370B7;}
	.st98{fill:#52BEE5;}
	.st99{fill:#0C1D54;}
	.st100{fill:url(#SVGID_00000063611190881976104800000002210207522261076130_);}
	.st101{fill:#021AB0;}
	.st102{fill:url(#SVGID_00000112632930572583510860000010944800692457834414_);}
	.st103{fill:#0B5BA1;}
	.st104{fill:#03BCF6;}
	.st105{fill:#12762D;}
	.st106{fill:#04175E;}
	.st107{fill:#1C3256;}
	.st108{fill:url(#SVGID_00000164503777039669096130000011820979814265926801_);}
	.st109{fill:url(#SVGID_00000094611617782478697720000009119212138921893013_);}
	.st110{filter:url(#Adobe_OpacityMaskFilter_00000108272631510248405290000003703443760602808461_);}
	.st111{filter:url(#Adobe_OpacityMaskFilter_00000031195138480539296480000009797120627563786626_);}
	
		.st112{mask:url(#id1_00000146485563377409592040000005772442032840226459_);fill:url(#SVGID_00000114032262503562100540000009231271698050383513_);}
	.st113{fill:url(#SVGID_00000142164813363499333400000000196382266402515864_);}
	.st114{filter:url(#Adobe_OpacityMaskFilter_00000080915935604633190410000017821432847713641859_);}
	.st115{filter:url(#Adobe_OpacityMaskFilter_00000079455039127929548870000006559729157531164049_);}
	
		.st116{mask:url(#id3_00000168109000624740836550000007834763661270834568_);fill:url(#SVGID_00000000927506992717790940000015533575490635882131_);}
	.st117{fill:url(#SVGID_00000077315318852470718360000003104727057191094461_);}
	.st118{fill:url(#SVGID_00000115477219156785857830000003678371872044232321_);}
	.st119{filter:url(#Adobe_OpacityMaskFilter_00000181770383632554890610000006880878653275172228_);}
	.st120{filter:url(#Adobe_OpacityMaskFilter_00000155860385734683556540000015833466479252819094_);}
	
		.st121{mask:url(#id6_00000132796066337860907750000005297968124821667726_);fill:url(#SVGID_00000163793376687131193410000013136209517574287294_);}
	.st122{fill:url(#SVGID_00000142895288434892427550000013835387945732244362_);}
	.st123{fill:#5EFAF7;}
	.st124{fill:url(#SVGID_00000116225065733805076320000007157250409152561340_);}
	.st125{fill:#6C5B8D;}
	.st126{fill:#59B8BD;}
	.st127{fill:#38718C;}
	.st128{fill:#222252;}
	.st129{fill:url(#SVGID_00000182511860225361412810000002717678956494720431_);}
	.st130{fill:url(#SVGID_00000085219301099393332950000017478442589539909534_);}
	.st131{fill:url(#SVGID_00000125590873098216418580000007528152267577802428_);}
	.st132{fill:#26CF70;}
	.st133{fill:#14A3F5;}
	.st134{fill:#FF6633;}
	.st135{fill:url(#SVGID_00000176763582588739413250000014319867084970196627_);}
	.st136{fill:url(#SVGID_00000018198774599329695600000011165550715394939797_);}
	.st137{fill:#2444C6;}
	.st138{fill-rule:evenodd;clip-rule:evenodd;fill:#29AAE3;}
	.st139{fill:#29AAE3;}
	.st140{fill:#FAA800;}
	.st141{fill-rule:evenodd;clip-rule:evenodd;fill:#FAA800;}
	.st142{fill-rule:evenodd;clip-rule:evenodd;}
	.st143{fill-rule:evenodd;clip-rule:evenodd;fill:#00B3E6;}
	.st144{fill:#6FB4CD;}
	.st145{fill:#04D974;}
	.st146{fill:#1FA698;}
	.st147{fill:#147DAC;}
	.st148{fill:#00B3E6;}
	.st149{fill:#0E2838;}
	.st150{fill:url(#SVGID_00000176758157360593137980000015940725371213581970_);}
	.st151{fill:url(#SVGID_00000098924508922191755100000013498426796856898701_);}
	.st152{fill-rule:evenodd;clip-rule:evenodd;fill:#66A30B;}
	.st153{fill-rule:evenodd;clip-rule:evenodd;fill:#04D974;}
	.st154{fill-rule:evenodd;clip-rule:evenodd;fill:#1D83B1;}
	.st155{fill-rule:evenodd;clip-rule:evenodd;fill:#CD0E07;}
	.st156{fill-rule:evenodd;clip-rule:evenodd;fill:#FFC319;}
	.st157{fill:url(#SVGID_00000037688627469092996550000009351067864545735565_);}
</style>
<g id="Layer_1">
</g>
<g id="Layer_2">
</g>
<g id="Layer_3">
</g>
<g id="Layer_4">
</g>
<g id="Layer_5">
</g>
<g id="Layer_6">
</g>
<g id="Layer_7">
</g>
<g id="Layer_8">
</g>
<g id="Layer_9">
</g>
<g id="Layer_10">
</g>
<g id="Layer_11">
</g>
<g id="Layer_12">
</g>
<g id="Layer_13">
</g>
<g id="_x31_-15">
</g>
<g id="Layer_15">
	<path class="st134" d="M208.42,121.99c-17.71-17.13-42.04-15.76-55.88-7.09c2.79,2.84,5.56,5.7,8.41,8.48
		c0.26,0.25,1.07,0.15,1.53-0.03c7.83-3.06,15.76-3.4,23.78-0.87c5.21,1.64,9.73,4.43,13.63,8.25c-2.9,2.81-5.76,5.57-8.63,8.35
		c-8.97-8.54-22.86-8.11-31.73,0.44c-8.49-8.66-16.98-17.33-25.56-26.1c9.62-9.46,21.42-15.25,35.25-16.73
		c13.77-1.47,26.54,1.58,38.15,8.82c2.96-2.9,5.84-5.72,8.72-8.54c-22.25-16.65-62.43-20.05-91.12,8.23
		c-2.17-2.14-4.34-4.29-6.51-6.43c-1.8-1.78-3.64-3.54-5.37-5.38c-0.44-0.47-0.76-1.25-0.76-1.9c-0.04-14.39-0.02-28.78-0.06-43.17
		c0-0.97,0.31-1.47,1.15-1.92c20.17-10.77,40.33-21.56,60.47-32.38c0.84-0.45,1.45-0.42,2.27,0.03
		c20.01,10.75,40.04,21.48,60.08,32.17c1.09,0.58,1.48,1.19,1.48,2.46c-0.05,14.24-0.04,28.49-0.01,42.74c0,1.07-0.3,1.82-1.06,2.56
		c-3.84,3.73-7.64,7.51-11.55,11.36c-0.03-0.49-0.07-0.95-0.07-1.4c0-15.85-0.02-31.71,0.02-47.56c0-1.23-0.34-1.89-1.45-2.48
		C207.81,45.46,192.05,37,176.3,28.52c-0.92-0.49-1.61-0.52-2.53-0.02c-15.84,8.53-31.7,17.02-47.56,25.51
		c-0.7,0.38-1.25,0.68-1.25,1.7c0.04,10.73,0.02,21.47,0.02,32.2c0,0.19,0.04,0.37,0.09,0.75c0.45-0.28,0.81-0.48,1.14-0.72
		c15.53-11.2,32.87-16.6,52-16.06c15.73,0.44,30.2,5.06,43.36,13.7c0.46,0.3,0.87,1.06,0.87,1.62c0.06,6.68,0.05,13.37,0.01,20.05
		c0,0.52-0.21,1.19-0.57,1.54C217.45,113.18,212.98,117.53,208.42,121.99z M175.44,138.83c-7.19-0.02-12.96,5.73-12.94,12.9
		c0.02,7,5.76,12.78,12.75,12.82c7.2,0.04,12.97-5.67,12.98-12.85C188.24,144.56,182.57,138.85,175.44,138.83z"/>
</g>
</svg>
