<?xml version="1.0" encoding="utf-8"?>
<!-- Generator: Adobe Illustrator 27.8.1, SVG Export Plug-In . SVG Version: 6.00 Build 0)  -->
<svg version="1.1" xmlns="http://www.w3.org/2000/svg" xmlns:xlink="http://www.w3.org/1999/xlink" x="0px" y="0px"
	 viewBox="0 0 350 230" style="enable-background:new 0 0 350 230;" xml:space="preserve">
<style type="text/css">
	.st0{fill:#CCFFE5;}
	.st1{fill:#1A87C2;}
	.st2{fill:#FFFEE3;}
	.st3{fill:#F8FCE3;}
	.st4{fill:#F1FFE6;}
	.st5{fill:#E1FFEF;}
	.st6{fill:#ADDAD0;}
	.st7{fill:#8DFFE9;}
	.st8{fill:#76DAC8;}
	.st9{fill:#006432;}
	.st10{fill:#0025FF;}
	.st11{fill:#00FF4E;}
	.st12{fill:#00FF85;}
	.st13{fill:#1E0D63;}
	.st14{fill:#FF4848;}
	.st15{fill:#00997C;}
	.st16{fill:#FF00C9;}
	.st17{fill:#00FF5B;}
	.st18{fill:#020044;}
	.st19{fill:#00FFCE;}
	.st20{fill:#00F3FF;}
	.st21{fill:#004437;}
	.st22{fill:#0019FF;}
	.st23{fill:#0031FF;}
	.st24{fill:#00D6AD;}
	.st25{fill:#9FDDFF;}
	.st26{fill:#720021;}
	.st27{fill:#CE7000;}
	.st28{fill:#205104;}
	.st29{fill:#004787;}
	.st30{fill:#FFFFFF;}
	.st31{fill:#EEB0F7;}
	.st32{fill:#004B96;}
	.st33{fill:#701000;}
	.st34{fill-rule:evenodd;clip-rule:evenodd;fill:#FFFF00;}
	.st35{fill-rule:evenodd;clip-rule:evenodd;fill:#68C7FC;}
	.st36{filter:url(#Adobe_OpacityMaskFilter);}
	.st37{fill-rule:evenodd;clip-rule:evenodd;fill:#FFFFFF;}
	
		.st38{mask:url(#earthglobe-b_00000087385483975625957440000004491752639183121025_);fill-rule:evenodd;clip-rule:evenodd;fill:#033D2B;}
	.st39{fill:#00FCFF;}
	.st40{fill:#003EF9;}
	.st41{fill:#001535;}
	.st42{fill:#003A55;}
	.st43{fill:#00FFEC;}
	.st44{fill:#FFFFA1;}
	.st45{fill:#EFFFC2;}
	.st46{fill:#FFD366;}
	.st47{fill:#CCFF73;}
	.st48{fill:#FFECC5;}
	.st49{fill:#DEFFA4;}
	.st50{fill:#CCFBFF;}
	.st51{fill:#FFF171;}
	.st52{fill-rule:evenodd;clip-rule:evenodd;fill:url(#SVGID_1_);}
	.st53{fill-rule:evenodd;clip-rule:evenodd;fill:url(#SVGID_00000096054360412415306080000011202740027205365640_);}
	.st54{fill-rule:evenodd;clip-rule:evenodd;fill:url(#SVGID_00000041288417186406322190000012890987832270637494_);}
	.st55{fill:#1C5D77;}
	.st56{fill:url(#SVGID_00000146483938941286035150000011969908500280016552_);}
	.st57{fill:url(#SVGID_00000083790500591583945040000008398671519788686246_);}
	.st58{fill:#115A77;}
	.st59{fill:url(#SVGID_00000124126355067077562040000006990966296960600471_);}
	.st60{fill:url(#SVGID_00000018231864491013185710000012344668114516935818_);}
	.st61{fill:url(#SVGID_00000003791205674165843550000015974864651882680983_);}
	.st62{fill:url(#SVGID_00000116928657242031388240000011221180895877818534_);}
	.st63{fill:url(#SVGID_00000103225167312875069210000007025664218666316701_);}
	.st64{fill:#00ADEE;}
	.st65{fill:#003454;}
	.st66{fill:#1C75BC;}
	.st67{fill:#EC1A3D;}
	.st68{fill:#115699;}
	.st69{fill:url(#SVGID_00000018920704850794331320000001337219942169308562_);}
	.st70{fill:#1286BC;}
	.st71{fill:#CE3348;}
	.st72{fill:#15A5CF;}
	.st73{fill:url(#SVGID_00000011719566381278055840000015464547145256851111_);}
	.st74{fill:url(#SVGID_00000133522249240999150000000002705195482900593298_);}
	.st75{fill:url(#SVGID_00000168087460252023973570000015641940199261324966_);}
	.st76{fill:url(#SVGID_00000038372436634324848360000003912531623730482622_);}
	.st77{fill:url(#SVGID_00000068677573900547729740000012407779547897506979_);}
	.st78{fill:#27A7BD;}
	.st79{fill:url(#SVGID_00000123403574576618269720000004922964189432451519_);}
	.st80{fill:#0C3366;}
	.st81{fill:#296616;}
	.st82{fill:url(#SVGID_00000119113886090116768020000003238856480743459715_);}
	.st83{fill:#FEFEFE;}
	.st84{fill:url(#SVGID_00000099650655435399167260000015098714426977153153_);}
	.st85{fill:#1F2F6F;}
	.st86{fill:#E22D9E;}
	.st87{fill:#24B6D6;}
	.st88{fill:#4785DF;}
	.st89{fill:#E5A85F;}
	.st90{fill:#B993D5;}
	.st91{fill:url(#SVGID_00000173840520388204390860000006375685807995856572_);}
	.st92{fill:url(#SVGID_00000006699895024511002400000006968532737464544395_);}
	.st93{fill:#BC201C;}
	.st94{fill:#F58622;}
	.st95{fill:#0093EC;}
	.st96{fill:#EA2B1E;}
	.st97{fill:#0370B7;}
	.st98{fill:#52BEE5;}
	.st99{fill:#0C1D54;}
	.st100{fill:url(#SVGID_00000041984452026008223780000008111668904801103756_);}
	.st101{fill:#021AB0;}
	.st102{fill:url(#SVGID_00000098219321248855072880000008477194364559850668_);}
	.st103{fill:#0B5BA1;}
	.st104{fill:#03BCF6;}
	.st105{fill:#12762D;}
	.st106{fill:#04175E;}
	.st107{fill:#1C3256;}
	.st108{fill:url(#SVGID_00000070114608945791339610000013082549731566936503_);}
	.st109{fill:url(#SVGID_00000128465108959997439080000012226489004709756570_);}
	.st110{filter:url(#Adobe_OpacityMaskFilter_00000106859430599329645560000008262807231742628259_);}
	.st111{filter:url(#Adobe_OpacityMaskFilter_00000016768221238944729230000004313608989572862364_);}
	
		.st112{mask:url(#id1_00000146485563377409592040000005772442032840226459_);fill:url(#SVGID_00000144330615540616821680000005979808516331500172_);}
	.st113{fill:url(#SVGID_00000030488666091152947340000003786270646653964195_);}
	.st114{filter:url(#Adobe_OpacityMaskFilter_00000061454304417320094650000009791585525257356187_);}
	.st115{filter:url(#Adobe_OpacityMaskFilter_00000020362912037582592710000011654549732836063160_);}
	
		.st116{mask:url(#id3_00000168109000624740836550000007834763661270834568_);fill:url(#SVGID_00000061433873596600308070000013751566902379739036_);}
	.st117{fill:url(#SVGID_00000143618238195063317830000008579600721389570218_);}
	.st118{fill:url(#SVGID_00000141455037521488482470000014367690610916863634_);}
	.st119{filter:url(#Adobe_OpacityMaskFilter_00000152975394219442777360000005762327166675789742_);}
	.st120{filter:url(#Adobe_OpacityMaskFilter_00000117646058160663648570000006817017862212416676_);}
	
		.st121{mask:url(#id6_00000132796066337860907750000005297968124821667726_);fill:url(#SVGID_00000065776057204146040800000003201558977546533804_);}
	.st122{fill:url(#SVGID_00000174575940087290479080000003921657567889780108_);}
	.st123{fill:#5EFAF7;}
	.st124{fill:url(#SVGID_00000005970664934191263510000006210423551579330750_);}
	.st125{fill:#6C5B8D;}
	.st126{fill:#59B8BD;}
	.st127{fill:#38718C;}
	.st128{fill:#222252;}
	.st129{fill:url(#SVGID_00000176727254942516653180000005542376417623486105_);}
	.st130{fill:url(#SVGID_00000157298998403483384280000014724971808621753219_);}
	.st131{fill:url(#SVGID_00000183237192279220395370000014349168470465631908_);}
	.st132{fill:#26CF70;}
	.st133{fill:#14A3F5;}
	.st134{fill:#FF6633;}
	.st135{fill:url(#SVGID_00000000204210799701992540000014688036732901073079_);}
	.st136{fill:url(#SVGID_00000047038667651367131370000017017685183331595669_);}
	.st137{fill:#2444C6;}
	.st138{fill-rule:evenodd;clip-rule:evenodd;fill:#29AAE3;}
	.st139{fill:#29AAE3;}
	.st140{fill:#FAA800;}
	.st141{fill-rule:evenodd;clip-rule:evenodd;fill:#FAA800;}
	.st142{fill-rule:evenodd;clip-rule:evenodd;}
	.st143{fill-rule:evenodd;clip-rule:evenodd;fill:#00B3E6;}
	.st144{fill:#6FB4CD;}
	.st145{fill:#04D974;}
	.st146{fill:#1FA698;}
	.st147{fill:#147DAC;}
	.st148{fill:#00B3E6;}
	.st149{fill:#0E2838;}
	.st150{fill:url(#SVGID_00000116230333604717262780000007383881754046391481_);}
	.st151{fill:url(#SVGID_00000164492318105045176110000016303597325236940731_);}
	.st152{fill-rule:evenodd;clip-rule:evenodd;fill:#66A30B;}
	.st153{fill-rule:evenodd;clip-rule:evenodd;fill:#04D974;}
	.st154{fill-rule:evenodd;clip-rule:evenodd;fill:#1D83B1;}
	.st155{fill-rule:evenodd;clip-rule:evenodd;fill:#CD0E07;}
	.st156{fill-rule:evenodd;clip-rule:evenodd;fill:#FFC319;}
	.st157{fill:url(#SVGID_00000143590170258564664380000004132068770228311949_);}
</style>
<g id="Layer_1">
</g>
<g id="Layer_2">
</g>
<g id="Layer_3">
</g>
<g id="Layer_4">
</g>
<g id="Layer_5">
</g>
<g id="Layer_6">
</g>
<g id="Layer_7">
</g>
<g id="Layer_8">
</g>
<g id="Layer_9">
</g>
<g id="Layer_10">
</g>
<g id="Layer_11">
</g>
<g id="Layer_12">
</g>
<g id="Layer_13">
</g>
<g id="_x31_-15">
</g>
<g id="Layer_15">
	<g>
		<path class="st132" d="M149.34,44.52c-4.22,0-7.64,3.42-7.64,7.64s3.42,7.64,7.64,7.64c3.69,0,6.78-2.62,7.49-6.11
			c-1.84,0.13-3.87,0.4-6.08,0.82l0.09-0.06l0.08-0.05l0.02-0.01l0.09-0.05l0.06-0.04l0.03-0.02l0.09-0.05l0.05-0.03l0.04-0.03
			l0.09-0.06l0.03-0.02l0.06-0.03l0.09-0.05l0.02-0.01l0.07-0.04l0.09-0.05l0,0l0.09-0.05l0.08-0.05l0.01-0.01l0.09-0.05l0.07-0.04
			l0.02-0.02l0.1-0.05l0.05-0.03l0.04-0.02l0.09-0.05l0.04-0.02l0.05-0.03l0.1-0.05l0.03-0.01l0.07-0.04l0.1-0.05l0.01,0l0.09-0.05
			l0.09-0.05l0.01,0l0.09-0.05l0.08-0.04l0.02-0.01l0.1-0.05l0.06-0.03l0.04-0.02l0.09-0.05l0.04-0.02l0.05-0.03l0.1-0.05l0.03-0.01
			l0.07-0.04l0.1-0.05l0.01-0.01l0.09-0.04l0.09-0.05l0,0l0.1-0.05l0.08-0.04l0.02-0.01l0.1-0.05l0.06-0.03l0.13-0.06l0.05-0.02
			l0.05-0.02l0.1-0.05l0.03-0.01l0.07-0.03l0.1-0.05l0.01-0.01h0l0.18-0.08l0,0l0.18-0.08l0.02-0.01l0.17-0.07l0.03-0.01l0.1-0.05
			l0.05-0.02l0.05-0.02l0.1-0.05l0.03-0.01l0.07-0.03l0.1-0.05l0.02-0.01l0.08-0.04l0.1-0.04l0.18-0.08l0.02-0.01l0.1-0.04
			l0.07-0.03l0.03-0.02l0.1-0.04l0.05-0.02l0.05-0.02l0.1-0.04c1.79-0.74,3.61-1.37,5.47-1.88c4.08-1.13,8.32-1.7,12.58-1.7
			c5.04-0.01,10.02,0.8,14.77,2.36c4.48,1.47,8.73,3.61,12.59,6.36c1.47,4.86,2.37,9.89,2.66,14.99
			c-8.06-3.83-16.71-6.05-25.47-6.62c-10.27-0.67-20.71,0.93-30.52,4.85l0,0c-9.82,3.93-18.48,9.96-25.46,17.52
			c-4.96,5.38-9.09,11.55-12.17,18.3c-0.56-3.43-0.86-6.94-0.86-10.53c0-17.8,7.21-33.91,18.88-45.58
			C141.09,37.82,157.2,30.6,175,30.6c4.64,0,9.16,0.49,13.52,1.42c4.4,4.88,7.99,10.34,10.68,16.19c-2.49-1.29-5.06-2.37-7.71-3.24
			c-5.27-1.73-10.84-2.63-16.49-2.62c-4.77-0.01-9.49,0.63-14.04,1.89c-2.21,0.61-4.38,1.36-6.5,2.26
			C153.11,45.27,151.31,44.52,149.34,44.52"/>
		<path class="st133" d="M144.07,142.54c2.11,3.65,6.78,4.9,10.43,2.8c3.65-2.11,4.9-6.78,2.8-10.44c-1.85-3.2-5.66-4.56-9.04-3.43
			c1.03,1.53,2.28,3.15,3.75,4.86h0l-0.17-0.1l-0.01-0.01l-0.09-0.05l-0.07-0.04l-0.03-0.02l-0.09-0.05l-0.05-0.03l-0.04-0.03
			l-0.09-0.05l-0.03-0.02l-0.06-0.03l-0.09-0.05l-0.02-0.01l-0.07-0.04l-0.09-0.06l0,0l-0.09-0.05l-0.09-0.05l-0.01,0l-0.09-0.06
			l-0.07-0.04l-0.03-0.01l-0.09-0.06l-0.05-0.03l-0.04-0.03l-0.09-0.06l-0.04-0.02l-0.06-0.03l-0.09-0.06l-0.02-0.02l-0.07-0.04
			l-0.09-0.06l-0.01-0.01l-0.08-0.05l-0.09-0.05l-0.01,0l-0.09-0.06l-0.07-0.04l-0.02-0.01l-0.09-0.06l-0.06-0.04l-0.04-0.02
			l-0.13-0.09l-0.05-0.03l-0.09-0.06l-0.03-0.02l-0.07-0.04l-0.09-0.06l-0.01-0.01l-0.08-0.05l-0.09-0.06l0,0l-0.09-0.06l-0.07-0.05
			l-0.02-0.01l-0.15-0.1l-0.03-0.02l-0.09-0.06l-0.04-0.03l-0.05-0.03l-0.09-0.06l-0.03-0.02l-0.06-0.04l-0.09-0.06l-0.01-0.01
			l-0.32-0.23l-0.02-0.01l-0.09-0.06l-0.06-0.04l-0.12-0.09l-0.04-0.03l-0.13-0.1l-0.03-0.02l-0.15-0.11l-0.01-0.01
			c-1.82-1.34-3.53-2.8-5.13-4.38c-3.02-2.98-5.64-6.35-7.76-10.04v-0.01c-2.53-4.37-4.33-9.09-5.35-13.97
			c-0.96-4.6-1.23-9.35-0.77-14.09c3.47-3.7,7.38-7,11.66-9.8c0.71,8.91,3.11,17.51,6.99,25.37c4.56,9.24,11.16,17.48,19.46,24.02
			c8.29,6.53,17.85,11.01,27.91,13.28c7.15,1.61,14.54,2.1,21.92,1.4c-11.13,9.15-25.38,14.64-40.9,14.64
			c-17.8,0-33.91-7.21-45.58-18.88c-7.13-7.13-12.6-15.93-15.78-25.76c2.02-6.25,4.97-12.09,8.68-17.35
			c0.13,2.79,0.48,5.57,1.05,8.3c1.14,5.45,3.14,10.72,5.97,15.6l0.01,0c2.38,4.14,5.3,7.91,8.65,11.21
			c1.63,1.61,3.37,3.11,5.21,4.49C142.83,138.91,143.08,140.84,144.07,142.54"/>
		<path class="st134" d="M231.59,98.1c2.11-3.65,0.86-8.33-2.79-10.44c-3.66-2.11-8.33-0.86-10.44,2.8
			c-1.85,3.2-1.11,7.18,1.55,9.54c0.81-1.66,1.59-3.55,2.33-5.68c0.03,1.87-0.05,3.73-0.24,5.58L222,99.96l-0.01,0.11
			c-0.03,0.32-0.07,0.65-0.11,0.97l-0.01,0.05l-0.01,0.06l-0.01,0.11l0,0c-0.25,1.92-0.62,3.82-1.11,5.69
			c-1.06,4.09-2.68,8.04-4.82,11.74v0.01c-2.52,4.38-5.71,8.29-9.43,11.61c-3.51,3.14-7.49,5.74-11.81,7.72
			c-4.94-1.16-9.75-2.9-14.32-5.2c7.35-5.06,13.59-11.44,18.46-18.74c5.73-8.58,9.56-18.41,11.07-28.87
			c1.51-10.45,0.61-20.96-2.45-30.8c-2.18-7-5.46-13.66-9.76-19.71c8.68,3.26,16.46,8.34,22.9,14.77
			c11.66,11.66,18.88,27.78,18.88,45.58c0,16.63-6.3,31.8-16.65,43.23c-6.42,1.37-12.95,1.74-19.35,1.15
			c2.36-1.51,4.59-3.21,6.67-5.06c4.15-3.71,7.7-8.07,10.52-12.96l0,0c2.39-4.12,4.19-8.53,5.38-13.11
			c0.58-2.22,1.01-4.47,1.29-6.75C229.06,100.99,230.61,99.81,231.59,98.1"/>
	</g>
</g>
</svg>
