<?xml version="1.0" encoding="utf-8"?>
<!-- Generator: Adobe Illustrator 27.8.1, SVG Export Plug-In . SVG Version: 6.00 Build 0)  -->
<svg version="1.1" xmlns="http://www.w3.org/2000/svg" xmlns:xlink="http://www.w3.org/1999/xlink" x="0px" y="0px"
	 viewBox="0 0 350 230" style="enable-background:new 0 0 350 230;" xml:space="preserve">
<style type="text/css">
	.st0{fill:#CCFFE5;}
	.st1{fill:#1A87C2;}
	.st2{fill:#FFFEE3;}
	.st3{fill:#F8FCE3;}
	.st4{fill:#F1FFE6;}
	.st5{fill:#E1FFEF;}
	.st6{fill:#ADDAD0;}
	.st7{fill:#8DFFE9;}
	.st8{fill:#76DAC8;}
	.st9{fill:#006432;}
	.st10{fill:#0025FF;}
	.st11{fill:#00FF4E;}
	.st12{fill:#00FF85;}
	.st13{fill:#1E0D63;}
	.st14{fill:#FF4848;}
	.st15{fill:#00997C;}
	.st16{fill:#FF00C9;}
	.st17{fill:#00FF5B;}
	.st18{fill:#020044;}
	.st19{fill:#00FFCE;}
	.st20{fill:#00F3FF;}
	.st21{fill:#004437;}
	.st22{fill:#0019FF;}
	.st23{fill:#0031FF;}
	.st24{fill:#00D6AD;}
	.st25{fill:#9FDDFF;}
	.st26{fill:#720021;}
	.st27{fill:#CE7000;}
	.st28{fill:#205104;}
	.st29{fill:#004787;}
	.st30{fill:#FFFFFF;}
	.st31{fill:#EEB0F7;}
	.st32{fill:#004B96;}
	.st33{fill:#701000;}
	.st34{fill-rule:evenodd;clip-rule:evenodd;fill:#FFFF00;}
	.st35{fill-rule:evenodd;clip-rule:evenodd;fill:#68C7FC;}
	.st36{filter:url(#Adobe_OpacityMaskFilter);}
	.st37{fill-rule:evenodd;clip-rule:evenodd;fill:#FFFFFF;}
	
		.st38{mask:url(#earthglobe-b_00000087385483975625957440000004491752639183121025_);fill-rule:evenodd;clip-rule:evenodd;fill:#033D2B;}
	.st39{fill:#00FCFF;}
	.st40{fill:#003EF9;}
	.st41{fill:#001535;}
	.st42{fill:#003A55;}
	.st43{fill:#00FFEC;}
	.st44{fill:#FFFFA1;}
	.st45{fill:#EFFFC2;}
	.st46{fill:#FFD366;}
	.st47{fill:#CCFF73;}
	.st48{fill:#FFECC5;}
	.st49{fill:#DEFFA4;}
	.st50{fill:#CCFBFF;}
	.st51{fill:#FFF171;}
	.st52{fill-rule:evenodd;clip-rule:evenodd;fill:url(#SVGID_1_);}
	.st53{fill-rule:evenodd;clip-rule:evenodd;fill:url(#SVGID_00000026150757324124436270000018137109485797053569_);}
	.st54{fill-rule:evenodd;clip-rule:evenodd;fill:url(#SVGID_00000079484638799433432480000013977152190247445431_);}
	.st55{fill:#1C5D77;}
	.st56{fill:url(#SVGID_00000023974548478703580230000014870889556788337033_);}
	.st57{fill:url(#SVGID_00000056406430164735498620000011525029865480625536_);}
	.st58{fill:#115A77;}
	.st59{fill:url(#SVGID_00000040549697712881805000000012741263536056639884_);}
	.st60{fill:url(#SVGID_00000063607770918162453230000010306602187511573649_);}
	.st61{fill:url(#SVGID_00000003097363146067108050000000719886464376809386_);}
	.st62{fill:url(#SVGID_00000124854158550871685440000006081036250347023792_);}
	.st63{fill:url(#SVGID_00000167365302207990659280000005235766244229072826_);}
	.st64{fill:#00ADEE;}
	.st65{fill:#003454;}
	.st66{fill:#1C75BC;}
	.st67{fill:#EC1A3D;}
	.st68{fill:#115699;}
	.st69{fill:url(#SVGID_00000121270065632789649790000000601845815912992679_);}
	.st70{fill:#1286BC;}
	.st71{fill:#CE3348;}
	.st72{fill:#15A5CF;}
	.st73{fill:url(#SVGID_00000083050528731993551950000003042922406709502892_);}
	.st74{fill:url(#SVGID_00000050621718905418921150000004312498175051480473_);}
	.st75{fill:url(#SVGID_00000002379347367460754440000013160532824163838109_);}
	.st76{fill:url(#SVGID_00000180363156350299368490000006527202315165534362_);}
	.st77{fill:url(#SVGID_00000114061336503264550060000004100961587555696512_);}
	.st78{fill:#27A7BD;}
	.st79{fill:url(#SVGID_00000081620096900486878370000009303047396479675557_);}
	.st80{fill:#0C3366;}
	.st81{fill:#296616;}
	.st82{fill:url(#SVGID_00000114787586336280957420000012935731979500201360_);}
	.st83{fill:#FEFEFE;}
	.st84{fill:url(#SVGID_00000172407547043176044830000015564725594978970528_);}
	.st85{fill:#1F2F6F;}
	.st86{fill:#E22D9E;}
	.st87{fill:#24B6D6;}
	.st88{fill:#4785DF;}
	.st89{fill:#E5A85F;}
	.st90{fill:#B993D5;}
	.st91{fill:url(#SVGID_00000137124414097612513400000016199320367041287085_);}
	.st92{fill:url(#SVGID_00000001623269459829254270000018081720136918862210_);}
	.st93{fill:#BC201C;}
	.st94{fill:#F58622;}
	.st95{fill:#0093EC;}
	.st96{fill:#EA2B1E;}
	.st97{fill:#0370B7;}
	.st98{fill:#52BEE5;}
	.st99{fill:#0C1D54;}
	.st100{fill:url(#SVGID_00000011010475196421479880000001355173753463382181_);}
	.st101{fill:#021AB0;}
	.st102{fill:url(#SVGID_00000157282065103504147350000017467160530745682052_);}
	.st103{fill:#0B5BA1;}
	.st104{fill:#03BCF6;}
	.st105{fill:#12762D;}
	.st106{fill:#04175E;}
	.st107{fill:#1C3256;}
	.st108{fill:url(#SVGID_00000074405436294869098860000006375475575256113553_);}
	.st109{fill:url(#SVGID_00000119839945610425789170000017801765892277970341_);}
	.st110{filter:url(#Adobe_OpacityMaskFilter_00000121255579307146123300000013438416896326426815_);}
	.st111{filter:url(#Adobe_OpacityMaskFilter_00000063624620786530334880000005780809557279600037_);}
	
		.st112{mask:url(#id1_00000146485563377409592040000005772442032840226459_);fill:url(#SVGID_00000029764029681781380290000008091989099643423618_);}
	.st113{fill:url(#SVGID_00000109027198765019475070000014396087173084431270_);}
	.st114{filter:url(#Adobe_OpacityMaskFilter_00000180359721451501724600000008449725564272371374_);}
	.st115{filter:url(#Adobe_OpacityMaskFilter_00000138541206910264781300000017025094261386973573_);}
	
		.st116{mask:url(#id3_00000168109000624740836550000007834763661270834568_);fill:url(#SVGID_00000036241427313035310110000006754771777136667580_);}
	.st117{fill:url(#SVGID_00000142164845019634931070000013912998812092302759_);}
	.st118{fill:url(#SVGID_00000087387465553873343850000007101625188890639804_);}
	.st119{filter:url(#Adobe_OpacityMaskFilter_00000051376350641859945180000006026082022303922615_);}
	.st120{filter:url(#Adobe_OpacityMaskFilter_00000008133406362453080100000017257100853072426119_);}
	
		.st121{mask:url(#id6_00000132796066337860907750000005297968124821667726_);fill:url(#SVGID_00000054230584037855218670000009956360802363551640_);}
	.st122{fill:url(#SVGID_00000030453769326416247340000015305046614852043650_);}
	.st123{fill:#5EFAF7;}
	.st124{fill:url(#SVGID_00000183953131799243725120000013583550265067974821_);}
	.st125{fill:#6C5B8D;}
	.st126{fill:#59B8BD;}
	.st127{fill:#38718C;}
	.st128{fill:#222252;}
	.st129{fill:url(#SVGID_00000029731624467169124890000009839348024953405089_);}
	.st130{fill:url(#SVGID_00000137845860011817697350000004678215065894983828_);}
	.st131{fill:url(#SVGID_00000138546517344438356190000013900815085416997042_);}
	.st132{fill:#26CF70;}
	.st133{fill:#14A3F5;}
	.st134{fill:#FF6633;}
	.st135{fill:url(#SVGID_00000005263525479483325280000005652975176615098512_);}
	.st136{fill:url(#SVGID_00000054971212164664721500000017247420448154811553_);}
	.st137{fill:#2444C6;}
	.st138{fill-rule:evenodd;clip-rule:evenodd;fill:#29AAE3;}
	.st139{fill:#29AAE3;}
	.st140{fill:#FAA800;}
	.st141{fill-rule:evenodd;clip-rule:evenodd;fill:#FAA800;}
	.st142{fill-rule:evenodd;clip-rule:evenodd;}
	.st143{fill-rule:evenodd;clip-rule:evenodd;fill:#00B3E6;}
	.st144{fill:#6FB4CD;}
	.st145{fill:#04D974;}
	.st146{fill:#1FA698;}
	.st147{fill:#147DAC;}
	.st148{fill:#00B3E6;}
	.st149{fill:#0E2838;}
	.st150{fill:url(#SVGID_00000113329032410567833950000008209455247716267955_);}
	.st151{fill:url(#SVGID_00000073715950271652734680000013825350655132961665_);}
	.st152{fill-rule:evenodd;clip-rule:evenodd;fill:#66A30B;}
	.st153{fill-rule:evenodd;clip-rule:evenodd;fill:#04D974;}
	.st154{fill-rule:evenodd;clip-rule:evenodd;fill:#1D83B1;}
	.st155{fill-rule:evenodd;clip-rule:evenodd;fill:#CD0E07;}
	.st156{fill-rule:evenodd;clip-rule:evenodd;fill:#FFC319;}
	.st157{fill:url(#SVGID_00000018221143025552621580000009049394954781922208_);}
</style>
<g id="Layer_1">
</g>
<g id="Layer_2">
</g>
<g id="Layer_3">
</g>
<g id="Layer_4">
</g>
<g id="Layer_5">
</g>
<g id="Layer_6">
</g>
<g id="Layer_7">
</g>
<g id="Layer_8">
</g>
<g id="Layer_9">
</g>
<g id="Layer_10">
</g>
<g id="Layer_11">
</g>
<g id="Layer_12">
</g>
<g id="Layer_13">
</g>
<g id="_x31_-15">
</g>
<g id="Layer_15">
	<path class="st139" d="M79.56,75.24c-0.1-0.34-0.12-0.67-0.06-1.01c0.38-2.35,1.75-3.51,4.13-3.51l58.26,0.04
		c0.52,0,1.02-0.24,1.34-0.65c5.41-6.77,16.07-1.96,13.8,6.28c-1.82,6.56-9.61,7.73-13.82,2.42c-0.3-0.39-0.76-0.62-1.26-0.62
		l-32.92,0.02c-0.32,0-0.59,0.26-0.59,0.59l0.07,20.77c0.01,0.55-0.26,0.83-0.81,0.83l-10.29,0.01c-0.34,0-0.62-0.28-0.62-0.62
		l0.04-20.67c0-0.61-0.31-0.92-0.93-0.92l-12.35,0.01C81.48,78.23,80.15,77.24,79.56,75.24z M96.76,62.91
		c-0.01,0.34,0.25,0.62,0.59,0.63c0.01,0,0.02,0,0.02,0l10.48,0.02c0.41,0,0.61-0.21,0.61-0.62l0.04-15.57
		c0.01-1.73,1.41-3.12,3.14-3.12l28.24-0.02l98.38-0.05c1.68,0,3.06,1.32,3.13,2.99c0.05,0.99,0.14,1.98,0.26,2.97
		c0.19,1.44-0.44,2.17-1.89,2.17h-32.21c-0.5,0-0.92-0.19-1.26-0.56c-8.03-8.75-19.06,2.14-12.36,9.39
		c2.55,2.76,5.66,3.36,9.33,1.79c1.21-0.51,2.03-1.69,3.02-2.55c0.33-0.3,0.71-0.44,1.16-0.44l58.85-0.05
		c2.28-0.01,3.67-1.12,4.18-3.35c0.18-0.77-0.02-1.5-0.59-2.18c-1.13-1.36-2.57-2.04-4.34-2.03l-11.71,0.07
		c-0.38,0-0.7-0.31-0.71-0.69c-0.02-1.28-0.02-2.58-0.02-3.88c-0.02-9-6.92-15.29-15.42-15.3c-31.92-0.06-63.79-0.08-95.63-0.06
		c-9.75,0.02-19.45,0.02-29.1,0.01c-7.49,0-12.54,3.41-15.16,10.23c-0.82,2.14-1.16,5.25-1.03,9.32
		C96.87,55.71,96.87,59.34,96.76,62.91z M238.38,144.13h-127.1c-3.39,0-6.14,2.75-6.14,6.14v1.68c0,3.39,2.75,6.14,6.14,6.14h127.1
		c3.39,0,6.14-2.75,6.14-6.14c0,0,0,0,0,0v-1.68C244.51,146.88,241.77,144.13,238.38,144.13z M266.6,89.23l-12.85,0.01
		c-0.35,0-0.63-0.28-0.63-0.63l0.08-20.82c0-0.46-0.37-0.84-0.83-0.84l-10.14-0.01c-0.48,0-0.72,0.24-0.72,0.72v21.02
		c0,0.32-0.25,0.57-0.56,0.57l-32.93-0.08c-0.73,0-1.43-0.3-1.94-0.83c-3.49-3.61-7.11-4.18-10.86-1.7
		c-5.32,3.51-3.72,11.58,1.97,13.53c3.52,1.2,6.54,0.22,9.07-2.97c0.25-0.31,0.57-0.47,0.96-0.47l59.03-0.06
		c2.34-0.01,3.74-1.16,4.2-3.46c0.07-0.35,0.06-0.71-0.04-1.06C269.89,90.21,268.62,89.23,266.6,89.23z M252.5,103.75l-10.4,0.1
		c-0.39,0-0.59,0.2-0.59,0.59l-0.01,14.92c-0.01,1.89-1.54,3.42-3.43,3.42l-42,0.04l-83.99-0.02c-1.72,0-2.8-0.83-3.24-2.49
		c-0.3-1.12-0.47-2.32-0.49-3.59c-0.02-1.12,0.52-1.68,1.63-1.68l31.65-0.02c0.41,0,0.78,0.11,1.13,0.32
		c0.96,0.61,1.45,1.72,2.48,2.31c9.92,5.67,16.92-8.46,8.07-13.11c-3.82-2-7.57-0.71-10.12,2.42c-0.33,0.39-0.75,0.59-1.27,0.59
		H83.57c-2.42,0-3.78,1.2-4.08,3.59c-0.06,0.39-0.01,0.79,0.13,1.18c0.65,1.83,1.95,2.74,3.9,2.74l12.35-0.04
		c0.68,0,1,0.34,0.96,1.02c-0.43,6.98,1.69,12.98,8.09,16.56c1.87,1.04,5.17,1.57,9.92,1.58c27.78,0.09,55.59,0.09,83.41,0
		c12.52,0.13,25.06,0.14,37.62,0.04c4.23-0.04,7.28-0.58,9.17-1.62c5.11-2.82,7.79-7.28,8.02-13.39c0.18-4.72,0.19-9.68,0.04-14.89
		C253.08,103.99,252.82,103.74,252.5,103.75z"/>
</g>
</svg>
