<?xml version="1.0" encoding="utf-8"?>
<!-- Generator: Adobe Illustrator 27.8.1, SVG Export Plug-In . SVG Version: 6.00 Build 0)  -->
<svg version="1.1" xmlns="http://www.w3.org/2000/svg" xmlns:xlink="http://www.w3.org/1999/xlink" x="0px" y="0px"
	 viewBox="0 0 350 230" style="enable-background:new 0 0 350 230;" xml:space="preserve">
<style type="text/css">
	.st0{fill:#DEEDF4;}
	.st1{fill:#A4CCE5;}
	.st2{fill:#E9F4F6;}
	.st3{fill:#DFECF2;}
	.st4{fill:#DCE9F1;}
	.st5{fill:#87B7DD;}
	.st6{fill:#7BB2D9;}
	.st7{fill:#EBF2FA;}
	.st8{fill:#FFEABB;}
	.st9{fill:#D3C7AE;}
	.st10{fill:#CAFFFC;}
	.st11{fill:#BFF7BA;}
	.st12{fill:#FFE0A1;}
	.st13{fill:#00A3F4;}
	.st14{fill:#460048;}
	.st15{fill:#00DBFF;}
	.st16{fill:#0B5F78;}
	.st17{fill:#BF0080;}
	.st18{fill:#FF1400;}
	.st19{fill:#008DFF;}
	.st20{fill:#C900FF;}
	.st21{fill:#FB9824;}
	.st22{fill:#600463;}
	.st23{fill:#62FF00;}
	.st24{fill:#005FFF;}
	.st25{fill:#FFCE00;}
	.st26{fill:#A58DF3;}
	.st27{fill:#F383FF;}
	.st28{fill:#FF9269;}
	.st29{fill:#32897F;}
	.st30{fill:#44A3C5;}
	.st31{fill:url(#SVGID_1_);}
	.st32{fill:url(#SVGID_00000012437354576448857780000008364369571694836356_);}
	.st33{fill:#FCB763;}
	.st34{fill:#29CDEB;}
	.st35{fill:#155F98;}
	.st36{fill:url(#SVGID_00000083777456858897013360000015880390848834184589_);}
	.st37{fill:#EA4327;}
	.st38{fill:#11417E;}
	.st39{fill:url(#SVGID_00000074434329928146522810000002252233935025102255_);}
	.st40{fill:url(#SVGID_00000097500849793347539250000008190176620731920561_);}
	.st41{fill:#F7A222;}
	.st42{fill:#BC220A;}
	.st43{fill:#E6B778;}
	.st44{fill:#36566E;}
	.st45{fill:url(#SVGID_00000073697114243866485680000007610999528865261189_);}
	.st46{fill:url(#SVGID_00000013891732711498077020000005589884932840428695_);}
	.st47{fill:url(#SVGID_00000150786745553819204480000005694035525766622142_);}
	.st48{fill:#0C7CB3;}
	.st49{fill:url(#SVGID_00000083064169362788772410000004609201298157403558_);}
	.st50{fill:url(#SVGID_00000072995576006670608410000009644120441330131361_);}
	.st51{fill:url(#SVGID_00000026854205003512302160000011881501998800583332_);}
	.st52{fill:url(#SVGID_00000103226104234903236420000001143216158323541427_);}
	.st53{fill:#FEFEFE;}
	.st54{fill:#12BAE0;}
	.st55{fill:#09538B;}
	.st56{fill:#0B9DCB;}
	.st57{fill:url(#SVGID_00000048469105751763603780000006037089465599160501_);}
	.st58{fill:#0E2462;}
	.st59{fill:url(#SVGID_00000179612354523890753890000015215358326265430170_);}
	.st60{fill:#D1832B;}
	.st61{fill:#F1B052;}
	.st62{fill:url(#SVGID_00000026152501859205700360000015103128076347860389_);}
	.st63{fill:#125999;}
	.st64{fill:#0A2150;}
	.st65{fill:url(#SVGID_00000170256899136095371980000000339298571878710658_);}
	.st66{fill:#88A5AE;}
	.st67{fill:#E0912E;}
	.st68{fill:#0B1557;}
	.st69{fill:#1E3D78;}
	.st70{fill:#F3803B;}
	.st71{fill:url(#SVGID_00000134228170678016986960000008935649002703449729_);}
	.st72{fill:url(#SVGID_00000100374237152944700820000003616706634274298502_);}
	.st73{fill:url(#SVGID_00000168100483657029998890000003616812215479207094_);}
	.st74{fill:url(#SVGID_00000013878351554189337500000010831357010432338834_);}
	.st75{fill:url(#SVGID_00000139986299409080209440000016458962702489509793_);}
	.st76{fill:url(#SVGID_00000057835447103488639830000008635384767735185055_);}
	.st77{fill:#56D7CE;}
	.st78{fill:url(#SVGID_00000101798875260883423190000012452027495295505025_);}
	.st79{fill:url(#SVGID_00000055702794899667075720000015803107172223473086_);}
	.st80{fill:#0B6F92;}
	.st81{fill:#90DEDC;}
	.st82{fill:#48C8C8;}
	.st83{fill:#012B51;}
	.st84{fill:#0694AD;}
	.st85{fill:url(#SVGID_00000100348961868542246070000012825492053003615128_);}
	.st86{fill:#3AEE3F;}
	.st87{fill:#18A935;}
	.st88{fill:url(#SVGID_00000015314646528159479200000007251663155826675849_);}
	.st89{fill:#31C1F9;}
	.st90{fill:#14A333;}
	.st91{fill:#6091D0;}
	.st92{fill:#597396;}
	.st93{fill:url(#SVGID_00000053520065672592474210000015254283813960002992_);}
	.st94{fill:#5FAEEB;}
	.st95{fill:url(#SVGID_00000021832584087637659280000004189622665792299197_);}
	.st96{fill:#EF9551;}
	.st97{fill:url(#SVGID_00000183246381796734170750000007778204214527228821_);}
	.st98{fill:url(#SVGID_00000088112731257921845540000014128016411850001575_);}
	.st99{fill:url(#SVGID_00000120558287383052390700000014715314377867386542_);}
	.st100{fill:#EDC462;}
	.st101{fill:#399F91;}
	.st102{fill:#193B4B;}
	.st103{fill:url(#SVGID_00000067929562984211241950000000921182772556154796_);}
</style>
<g id="Layer_1">
</g>
<g id="Layer_2">
</g>
<g id="Layer_3">
</g>
<g id="Layer_4">
</g>
<g id="Layer_5">
</g>
<g id="Layer_6">
</g>
<g id="Layer_7">
</g>
<g id="Layer_8">
</g>
<g id="Layer_9">
</g>
<g id="Layer_10">
</g>
<g id="Layer_11">
</g>
<g id="Layer_12">
</g>
<g id="Layer_13">
</g>
<g id="Layer_14">
</g>
<g id="_x31_-15">
	<g>
		<linearGradient id="SVGID_1_" gradientUnits="userSpaceOnUse" x1="205.6652" y1="42.2031" x2="141.3133" y2="147.6524">
			<stop  offset="0" style="stop-color:#0B1848"/>
			<stop  offset="1" style="stop-color:#0D2F69"/>
		</linearGradient>
		<path class="st31" d="M179.36,27.47c-0.03-0.08-0.05-0.15-0.08-0.22c-0.03-0.07-0.06-0.14-0.09-0.22c-0.03-0.07-0.06-0.14-0.1-0.2
			c-0.03-0.07-0.07-0.14-0.11-0.21c-0.04-0.07-0.07-0.13-0.12-0.2c-0.04-0.06-0.08-0.13-0.12-0.19c-0.05-0.06-0.09-0.12-0.14-0.18
			c-0.05-0.07-0.1-0.13-0.15-0.18c-0.05-0.06-0.1-0.12-0.15-0.18c-0.06-0.05-0.11-0.11-0.17-0.16c-0.05-0.05-0.11-0.1-0.17-0.15
			c-0.06-0.05-0.11-0.1-0.18-0.15c-0.06-0.05-0.12-0.09-0.18-0.14c-0.06-0.04-0.13-0.09-0.19-0.13c-0.07-0.04-0.13-0.08-0.2-0.12
			c-0.07-0.03-0.14-0.07-0.2-0.11c-1.1-0.54-2.44-0.61-3.59-0.2c-1.13,0.39-1.98,1.21-2.48,2.28c-0.55,1.16-0.67,2.44-0.22,3.65
			c0.03,0.07,0.06,0.14,0.09,0.21c0.03,0.07,0.06,0.14,0.1,0.21c0.03,0.07,0.07,0.14,0.11,0.21c0.04,0.07,0.07,0.13,0.12,0.2
			c0.04,0.06,0.08,0.13,0.12,0.19c0.05,0.07,0.09,0.13,0.14,0.19l0.15,0.18c0.05,0.06,0.1,0.12,0.15,0.17
			c0.06,0.06,0.11,0.11,0.17,0.17c0.05,0.05,0.11,0.1,0.17,0.16c0.06,0.05,0.11,0.1,0.18,0.14c0.06,0.05,0.12,0.1,0.18,0.14
			c0.06,0.05,0.13,0.09,0.19,0.13c0.07,0.05,0.13,0.09,0.2,0.13c0.07,0.03,0.14,0.07,0.21,0.11c0.06,0.03,0.13,0.07,0.21,0.1
			c0.21,0.09,0.43,0.17,0.65,0.24c0.01,8.75,0.13,17.52,0.01,26.27l0.07-0.02l2.17,0.01V33.32c1.26-0.39,2.23-1.05,2.86-2.24
			C179.55,29.98,179.75,28.67,179.36,27.47z M176.77,29.73c-0.33,0.64-0.8,0.91-1.45,1.13c-0.4,0.05-0.81,0.02-1.18-0.14
			c-0.52-0.24-0.88-0.67-1.06-1.2c-0.19-0.55-0.14-1.18,0.15-1.68c0.33-0.57,0.83-0.84,1.43-1.01c0.41-0.02,0.76,0.01,1.14,0.18
			c0.5,0.22,0.89,0.62,1.06,1.14C177.04,28.66,177.01,29.24,176.77,29.73z M142.66,98.23l-0.01-0.1c-0.2,0.01-0.38,0.02-0.57-0.05
			c-0.04-0.01-0.08-0.03-0.13-0.05c-1.18-0.07-2.39-0.02-3.58-0.02c-2.21,0-4.41,0-6.61-0.03c-0.97,0.8-1.84,1.74-2.73,2.63
			l-4.28,4.28c-0.74,0.73-1.47,1.52-2.28,2.19c0.54,0.68,0.88,1.43,0.95,2.3c1.54-1.42,2.96-2.97,4.43-4.47
			c1.55-1.58,3.15-3.13,4.72-4.69c3.49-0.08,7,0.11,10.48-0.03C143,99.54,142.75,98.89,142.66,98.23z M142.15,86.55
			c0.24-0.02,0.48-0.05,0.72-0.09c-1.08-0.14-2.27-0.04-3.37-0.04l-6.95,0.01c-1.17-1.26-2.42-2.44-3.64-3.65
			c-1.84-1.86-3.69-3.69-5.56-5.52c-0.28,0.76-0.56,1.42-1.1,2.04l6,5.97c1.11,1.11,2.29,2.19,3.34,3.36l6.65,0.02
			c1.1,0,2.25,0.07,3.34-0.01c0.29-0.13,0.6-0.1,0.91-0.09c0.01-0.66,0.29-1.26,0.29-1.91l-0.09-0.07
			C142.57,86.57,142.25,86.6,142.15,86.55z M223.76,103.71l-5.56-5.58c-1.3-0.05-2.61-0.01-3.9-0.01c-2.38,0-4.76,0-7.13,0.02
			c-0.15,0.72-0.26,1.5-0.5,2.19l10.5,0.01c3.23,2.95,6.13,6.26,9.32,9.25c0.06-0.96,0.48-1.46,0.8-2.3l0.03-0.09
			C226.08,106.11,224.92,104.88,223.76,103.71z M226.57,77.3l-0.06-0.12c-3.15,3.03-6.22,6.15-9.32,9.23
			c-3.45,0-6.92-0.08-10.37,0.02l0.31,0.09c-0.05,0.13-0.1,0.25-0.16,0.38c0.09,0.56,0.15,1.14,0.27,1.69l10.84,0.06
			c1.03-0.91,1.98-1.91,2.96-2.87l6.61-6.52C227.14,78.6,226.92,78.03,226.57,77.3z M144.94,106.02c-0.16-0.57-0.42-1.32-0.68-1.84
			c-0.11-0.22-0.26-0.23-0.47-0.29l0.37-0.08l-9.6-0.02l-4.98,4.97c-1.03,1.02-2.04,2.07-3.11,3.04l-0.01,4.49
			c0.61-0.11,1.22-0.12,1.84-0.03c0.15,0.02,0.27,0.04,0.43,0.02c-0.02-1.18-0.02-2.36-0.02-3.54c2.21-2.21,4.57-4.34,6.66-6.67
			c2.13-0.02,4.27,0.01,6.4,0.01c1.04,0.01,2.15,0.09,3.18-0.04C144.95,106.04,144.94,106.03,144.94,106.02z M195.53,38.91
			l-8.89,8.82c-0.02,4.67,0.03,9.35-0.03,14.02c0.76,0.26,1.48,0.7,2.18,1.07l0.01-14.17c2.79-2.73,5.58-5.49,8.28-8.3
			C196.44,39.95,196.02,39.48,195.53,38.91z M190.72,146.02c-0.78-1-2.12-2.11-3.06-3.05c-1.77-1.77-3.48-3.77-5.43-5.32
			c0.02-4.17,0.02-8.34-0.01-12.5c-0.57,0.17-1.55,0.54-2.15,0.45c0.09,4.29,0.03,8.6,0.05,12.9c0.2,0.23,0.4,0.45,0.61,0.66
			c1.91,2,3.9,3.95,5.87,5.9c0.92,0.91,1.84,1.98,2.85,2.77c0.18,0.13,0.32,0.22,0.56,0.21c0.34,0,0.66-0.19,0.9-0.43
			c0.18-0.18,0.27-0.38,0.25-0.64C191.13,146.62,190.94,146.3,190.72,146.02z M163.36,47.89c-2.95-3.03-5.94-6.03-8.96-9
			c-0.44,0.59-1.02,1.08-1.66,1.44c2.89,2.69,5.59,5.59,8.41,8.35l0.01,14.16c0.73-0.39,1.47-0.75,2.23-1.07L163.36,47.89z
			 M169.79,60.01c-0.19-1.11-0.05-2.9-0.05-4.1c0-3.46,0.09-6.94,0-10.4c-2.41-2.33-4.74-4.75-7.12-7.11
			c-0.51-0.5-1.63-1.79-2.09-2.11c-0.22-0.16-0.51-0.23-0.77-0.22c-0.04,0-0.07,0.01-0.1,0.01c-0.03,0.01-0.07,0.01-0.1,0.02
			c-0.03,0.01-0.06,0.02-0.1,0.03c-0.03,0.02-0.06,0.03-0.09,0.04c-0.03,0.02-0.06,0.04-0.08,0.06c-0.03,0.01-0.06,0.03-0.08,0.06
			c-0.03,0.02-0.05,0.04-0.08,0.06c-0.02,0.03-0.04,0.05-0.06,0.08c-0.2,0.24-0.27,0.56-0.21,0.86c0.03,0.22,0.13,0.42,0.27,0.59
			c0.82,1,1.89,1.92,2.8,2.84l5.62,5.64v14.08C168.13,60.36,169.31,59.98,169.79,60.01z M190.85,36.44
			c-0.17-0.2-0.41-0.35-0.68-0.35c-0.31,0-0.58,0.14-0.82,0.33c-1.15,0.89-2.25,2.18-3.29,3.22c-1.96,1.95-3.91,3.91-5.85,5.88
			L180.18,60c0.73,0.17,1.47,0.33,2.21,0.47c0.03-4.7,0.04-9.41,0.02-14.12c0.68-0.76,1.46-1.45,2.18-2.17
			c1.35-1.38,2.71-2.76,4.08-4.12c0.68-0.67,1.46-1.32,2.07-2.05c0.15-0.18,0.36-0.48,0.39-0.72
			C191.16,36.98,191.05,36.68,190.85,36.44z M226.55,118.45c-0.69-1.23-1.79-1.86-3.11-2.22c0-1.41,0.12-2.92-0.03-4.31
			c-0.13,1.43-0.11,2.79-0.09,4.23c-0.73,0-1.38,0.05-2.09,0.19c-0.02,0.01-0.04,0.03-0.06,0.05c-0.28,0.21-0.66,0.31-0.96,0.5
			c-0.96,0.63-1.67,1.82-1.87,2.93c-0.18,1.03,0.01,1.93,0.45,2.87c0.42,0.64,0.85,1.12,1.43,1.62c0.35,0.2,0.7,0.38,1.08,0.5
			c1.16,0.36,2.4,0.3,3.48-0.28c0.07-0.03,0.13-0.07,0.19-0.1c0.06-0.04,0.12-0.08,0.18-0.12c0.06-0.04,0.12-0.08,0.18-0.12
			c0.06-0.05,0.12-0.09,0.17-0.14c0.06-0.04,0.11-0.09,0.16-0.14c0.06-0.04,0.11-0.09,0.16-0.15c0.05-0.05,0.1-0.1,0.15-0.15
			c0.05-0.06,0.1-0.11,0.14-0.17c0.05-0.05,0.09-0.11,0.13-0.17c0.05-0.05,0.09-0.11,0.13-0.17s0.08-0.12,0.11-0.19
			c0.04-0.06,0.07-0.12,0.11-0.18c0.03-0.07,0.06-0.13,0.09-0.2c0.03-0.06,0.06-0.13,0.09-0.2c0.03-0.06,0.05-0.13,0.08-0.2
			c0.02-0.07,0.04-0.13,0.06-0.2C227.25,120.79,227.13,119.49,226.55,118.45z M224.45,120.73l-0.03,0.18c0,0.06-0.02,0.12-0.03,0.18
			c-0.02,0.06-0.04,0.12-0.06,0.18c-0.22,0.58-0.62,0.87-1.18,1.11c-0.36,0.04-0.68,0.04-1.03-0.08c-0.47-0.16-0.85-0.48-1.05-0.94
			c-0.03-0.05-0.05-0.11-0.07-0.16c-0.01-0.06-0.03-0.12-0.04-0.18c-0.02-0.06-0.02-0.11-0.03-0.17s-0.01-0.12-0.01-0.18v-0.18
			l0.03-0.18c0.01-0.06,0.02-0.12,0.04-0.17c0.02-0.06,0.04-0.12,0.06-0.17c0.23-0.59,0.64-0.87,1.19-1.12
			c0.32-0.02,0.64-0.04,0.96,0.06c0.05,0.02,0.11,0.04,0.17,0.06c0.05,0.03,0.11,0.05,0.16,0.08c0.06,0.03,0.11,0.06,0.16,0.1
			c0.05,0.03,0.1,0.07,0.14,0.11c0.05,0.04,0.09,0.09,0.14,0.13c0.04,0.04,0.08,0.09,0.11,0.14c0.04,0.05,0.08,0.1,0.11,0.15
			c0.03,0.05,0.06,0.11,0.08,0.16c0.03,0.06,0.05,0.11,0.07,0.17c0.02,0.06,0.04,0.12,0.06,0.18c0.01,0.06,0.02,0.12,0.03,0.18
			s0.01,0.12,0.02,0.18V120.73z M129.82,116.88c-0.31-0.19-0.81-0.31-1.05-0.55c-0.02-0.02-0.03-0.04-0.04-0.05
			c-0.16,0.02-0.28,0-0.43-0.02c-0.62-0.09-1.23-0.08-1.84,0.03c-1.26,0.32-2.27,0.94-2.95,2.08c-0.04,0.07-0.07,0.13-0.11,0.2
			c-0.03,0.06-0.07,0.13-0.1,0.2c-0.03,0.06-0.06,0.13-0.08,0.2c-0.03,0.07-0.06,0.14-0.08,0.21c-0.03,0.07-0.05,0.14-0.07,0.21
			c-0.02,0.07-0.04,0.15-0.06,0.22c-0.01,0.07-0.03,0.14-0.04,0.22c-0.01,0.07-0.03,0.14-0.04,0.22c-0.01,0.07-0.01,0.14-0.02,0.22
			c0,0.07-0.01,0.15-0.01,0.22v0.22c0,0.08,0,0.15,0.01,0.23c0,0.07,0.01,0.15,0.02,0.22s0.02,0.15,0.03,0.22
			c0.01,0.07,0.03,0.15,0.04,0.22c0.02,0.07,0.04,0.14,0.06,0.21c0.3,1.13,1.01,2.11,2.03,2.69c1.04,0.59,2.34,0.69,3.49,0.37
			c0.39-0.11,0.77-0.28,1.14-0.47c0.7-0.49,1.21-1,1.65-1.74c0.33-0.78,0.54-1.53,0.48-2.39
			C131.75,118.9,131.01,117.59,129.82,116.88z M129.22,120.72c0,0.06-0.01,0.12-0.02,0.18s-0.02,0.11-0.04,0.17
			c-0.01,0.06-0.03,0.11-0.05,0.17c-0.24,0.61-0.71,0.96-1.3,1.2c-0.37,0.07-0.75,0.05-1.1-0.07c-0.06-0.02-0.12-0.05-0.17-0.07
			c-0.06-0.03-0.11-0.06-0.16-0.09c-0.05-0.03-0.1-0.06-0.15-0.1c-0.05-0.04-0.1-0.08-0.14-0.12c-0.05-0.04-0.09-0.08-0.13-0.13
			c-0.04-0.04-0.08-0.09-0.12-0.14c-0.03-0.05-0.06-0.1-0.09-0.15c-0.03-0.06-0.06-0.11-0.09-0.17c-0.02-0.05-0.05-0.11-0.07-0.17
			c-0.02-0.06-0.03-0.12-0.05-0.18c-0.01-0.06-0.02-0.12-0.03-0.18s-0.01-0.12-0.01-0.18c-0.01-0.06,0-0.13,0-0.19
			s0.01-0.12,0.02-0.18s0.03-0.12,0.05-0.18c0.01-0.06,0.03-0.12,0.05-0.18c0.25-0.59,0.67-0.86,1.23-1.11
			c0.33-0.03,0.69-0.06,1.01,0.03c0.51,0.15,0.96,0.5,1.2,0.98c0.02,0.05,0.04,0.11,0.06,0.17c0.02,0.05,0.04,0.11,0.06,0.16
			l0.03,0.18c0.01,0.06,0.01,0.12,0.02,0.18C129.23,120.6,129.23,120.66,129.22,120.72z M154.98,146.73
			c-0.14-0.48-0.35-0.88-0.66-1.27c-0.42-0.6-1.11-0.88-1.55-1.43c-0.8-0.54-2.07-0.64-3-0.45c-0.07,0.01-0.15,0.03-0.22,0.04
			c-0.08,0.02-0.15,0.04-0.22,0.07c-0.08,0.02-0.15,0.04-0.22,0.07c-0.07,0.02-0.14,0.05-0.21,0.08c-0.07,0.03-0.14,0.06-0.21,0.09
			c-0.07,0.03-0.14,0.07-0.2,0.11c-0.07,0.03-0.14,0.07-0.2,0.11c-0.07,0.04-0.13,0.08-0.19,0.12c-0.06,0.05-0.13,0.09-0.19,0.14
			c-0.06,0.04-0.12,0.09-0.18,0.14c-0.05,0.05-0.11,0.1-0.17,0.15c-0.05,0.05-0.11,0.1-0.16,0.16c-0.05,0.05-0.1,0.11-0.15,0.17
			c-0.05,0.05-0.1,0.11-0.15,0.17c-0.05,0.06-0.09,0.12-0.13,0.19c-0.05,0.06-0.09,0.12-0.13,0.19c-0.67,1.05-0.85,2.37-0.56,3.58
			c0.01,0.07,0.03,0.14,0.05,0.21c0.02,0.07,0.04,0.14,0.07,0.21c0.02,0.07,0.05,0.14,0.07,0.21c0.03,0.06,0.06,0.13,0.09,0.2
			c0.03,0.06,0.06,0.13,0.1,0.19c0.03,0.07,0.07,0.13,0.1,0.19c0.04,0.07,0.08,0.13,0.12,0.19s0.08,0.12,0.12,0.18
			c0.05,0.06,0.09,0.12,0.14,0.17c0.04,0.06,0.09,0.11,0.14,0.17c0.05,0.05,0.1,0.11,0.15,0.16s0.1,0.1,0.16,0.15
			c0.05,0.05,0.11,0.09,0.16,0.14c0.06,0.05,0.12,0.09,0.18,0.13c0.05,0.05,0.11,0.09,0.17,0.13s0.13,0.08,0.19,0.12
			c0.06,0.03,0.13,0.07,0.2,0.11c0.06,0.03,0.13,0.06,0.2,0.09s0.14,0.06,0.21,0.09c0.07,0.03,0.14,0.06,0.21,0.08
			c0.07,0.02,0.14,0.05,0.21,0.07c0.08,0.02,0.15,0.04,0.22,0.05c0.08,0.02,0.15,0.04,0.22,0.05c0.08,0.01,0.15,0.02,0.23,0.03
			c0.07,0.01,0.15,0.02,0.22,0.03c0.08,0,0.15,0.01,0.23,0.01h0.22c0.08,0,0.15-0.01,0.23-0.01c0.07-0.01,0.15-0.01,0.22-0.02
			c0.08-0.01,0.15-0.02,0.23-0.04c0.07-0.01,0.14-0.02,0.22-0.04c0.07-0.02,0.14-0.03,0.22-0.05c1.16-0.32,2.11-1.01,2.71-2.06
			C155.09,149.24,155.31,147.9,154.98,146.73z M152.49,148.16c-0.01,0.07-0.02,0.13-0.03,0.19c-0.01,0.06-0.02,0.12-0.04,0.18
			c-0.02,0.06-0.04,0.12-0.07,0.17c-0.02,0.06-0.05,0.12-0.08,0.17c-0.32,0.58-0.78,0.85-1.4,1.04c-0.4,0.02-0.76-0.01-1.12-0.2
			c-0.06-0.03-0.11-0.06-0.16-0.1c-0.06-0.03-0.11-0.07-0.16-0.11c-0.05-0.04-0.09-0.08-0.14-0.13c-0.04-0.04-0.09-0.09-0.13-0.14
			c-0.04-0.05-0.07-0.1-0.11-0.15c-0.03-0.05-0.07-0.11-0.1-0.16c-0.03-0.06-0.05-0.12-0.08-0.18c-0.02-0.05-0.04-0.11-0.06-0.17
			s-0.03-0.12-0.04-0.18c-0.01-0.07-0.02-0.13-0.03-0.19s-0.01-0.12-0.01-0.18c0-0.07,0.01-0.13,0.01-0.19
			c0.01-0.06,0.02-0.12,0.04-0.18c0.01-0.06,0.03-0.12,0.04-0.18c0.02-0.06,0.05-0.12,0.07-0.18c0.03-0.05,0.06-0.11,0.09-0.16
			c0.32-0.55,0.82-0.81,1.42-0.95c0.35-0.02,0.72,0.03,1.04,0.18c0.06,0.02,0.12,0.05,0.17,0.08c0.05,0.04,0.1,0.07,0.15,0.11
			c0.05,0.03,0.1,0.07,0.15,0.11l0.13,0.13c0.04,0.05,0.08,0.1,0.11,0.15c0.04,0.05,0.07,0.1,0.1,0.15
			c0.04,0.06,0.06,0.11,0.09,0.17c0.02,0.05,0.05,0.11,0.07,0.17c0.01,0.06,0.03,0.12,0.04,0.18c0.02,0.06,0.03,0.12,0.03,0.18
			c0.01,0.07,0.02,0.13,0.02,0.19S152.49,148.1,152.49,148.16z M227.18,63.65c-0.01-0.07-0.02-0.15-0.03-0.23
			c-0.02-0.07-0.03-0.15-0.05-0.22c-0.01-0.08-0.03-0.15-0.05-0.23c-0.02-0.07-0.04-0.15-0.06-0.22c-0.03-0.07-0.05-0.14-0.08-0.21
			c-0.02-0.07-0.05-0.14-0.08-0.21c-0.03-0.06-0.06-0.13-0.09-0.2c-0.04-0.06-0.07-0.13-0.11-0.19c-0.03-0.07-0.07-0.13-0.11-0.19
			c-0.04-0.07-0.08-0.13-0.12-0.19c-0.05-0.06-0.09-0.12-0.14-0.18c-0.04-0.06-0.09-0.11-0.14-0.17s-0.1-0.11-0.15-0.16
			c-0.05-0.06-0.1-0.11-0.15-0.16c-0.06-0.05-0.11-0.1-0.17-0.15c-0.05-0.05-0.11-0.09-0.17-0.14s-0.12-0.09-0.18-0.13
			c-0.06-0.04-0.12-0.08-0.19-0.12c-0.06-0.04-0.12-0.08-0.19-0.12c-0.06-0.03-0.13-0.07-0.19-0.1c-1.32-0.66-2.59-0.53-3.94-0.07
			c-0.79,0.39-1.3,0.89-1.84,1.57c-0.05,0.07-0.09,0.13-0.12,0.19c-0.04,0.07-0.08,0.13-0.11,0.2c-0.04,0.06-0.07,0.13-0.11,0.2
			c-0.03,0.06-0.06,0.13-0.09,0.2c-0.02,0.07-0.05,0.14-0.08,0.21c-0.02,0.07-0.05,0.14-0.07,0.21s-0.04,0.14-0.06,0.22
			c-0.01,0.07-0.03,0.14-0.05,0.21c-0.01,0.08-0.02,0.15-0.03,0.22c-0.01,0.08-0.02,0.15-0.03,0.23c-0.01,0.07-0.01,0.14-0.02,0.22
			v0.44c0.01,0.08,0.01,0.15,0.02,0.23c0.01,0.07,0.02,0.15,0.03,0.22c0.01,0.07,0.02,0.15,0.04,0.22c0.22,1.14,0.92,2.23,1.9,2.87
			c0.31,0.2,0.78,0.37,1.05,0.6c0.74,0.16,1.43,0.19,2.19,0.13c0,0.45-0.03,0.92,0.04,1.37c0.06-0.46,0.04-0.95,0.04-1.41
			c0.19-0.04,0.37-0.09,0.56-0.14c0.07-0.02,0.13-0.04,0.2-0.07c0.07-0.02,0.14-0.05,0.21-0.07c0.06-0.03,0.13-0.06,0.2-0.09
			c0.06-0.03,0.13-0.06,0.19-0.1c0.06-0.03,0.13-0.06,0.19-0.1s0.12-0.08,0.18-0.12c0.06-0.04,0.12-0.08,0.18-0.12
			s0.12-0.09,0.17-0.13c0.06-0.05,0.11-0.1,0.17-0.15c0.05-0.04,0.1-0.09,0.16-0.14c0.05-0.06,0.1-0.11,0.15-0.16
			c0.04-0.06,0.09-0.11,0.14-0.17c0.04-0.05,0.09-0.11,0.13-0.17s0.09-0.11,0.13-0.17c0.04-0.06,0.07-0.13,0.11-0.19
			s0.07-0.12,0.11-0.19c0.03-0.07,0.07-0.13,0.1-0.2c0.03-0.07,0.06-0.14,0.09-0.22c0.03-0.07,0.06-0.14,0.08-0.21
			c0.03-0.07,0.05-0.15,0.07-0.22c0.03-0.08,0.05-0.15,0.06-0.22c0.02-0.08,0.04-0.15,0.05-0.23c0.02-0.08,0.03-0.15,0.04-0.23
			c0.01-0.07,0.02-0.15,0.03-0.23c0-0.07,0.01-0.15,0.01-0.23c0-0.07,0.01-0.15,0-0.23v-0.23C227.19,63.8,227.18,63.73,227.18,63.65
			z M224.48,64.78c-0.21,0.56-0.63,0.86-1.16,1.11c-0.4,0.07-0.81,0.1-1.2-0.03c-0.06-0.02-0.12-0.04-0.17-0.07
			c-0.05-0.02-0.11-0.05-0.16-0.08c-0.05-0.03-0.1-0.06-0.15-0.1c-0.05-0.03-0.09-0.07-0.14-0.11c-0.04-0.04-0.09-0.08-0.13-0.13
			c-0.04-0.04-0.08-0.09-0.11-0.13c-0.04-0.05-0.07-0.1-0.1-0.15c-0.03-0.05-0.06-0.1-0.09-0.16c-0.03-0.05-0.05-0.11-0.07-0.17
			s-0.04-0.12-0.06-0.18l-0.03-0.18c-0.01-0.07-0.02-0.13-0.02-0.19v-0.19c0-0.06,0.01-0.12,0.02-0.19l0.03-0.18
			c0.02-0.06,0.04-0.12,0.06-0.18c0.21-0.58,0.61-0.87,1.14-1.13c0.39-0.04,0.78-0.09,1.15,0.04c0.48,0.16,0.88,0.49,1.1,0.94
			C224.61,63.77,224.65,64.31,224.48,64.78z M236.06,93.06c0-0.07-0.01-0.15-0.02-0.22c0-0.08-0.01-0.16-0.02-0.23
			c-0.02-0.08-0.03-0.15-0.04-0.23c-0.02-0.07-0.04-0.14-0.05-0.22c-0.02-0.07-0.04-0.15-0.07-0.22c-0.02-0.07-0.04-0.14-0.07-0.21
			c-0.03-0.08-0.05-0.15-0.08-0.22c-0.03-0.07-0.06-0.14-0.1-0.21c-0.03-0.06-0.06-0.13-0.1-0.2c-0.03-0.06-0.07-0.13-0.11-0.19
			c-0.04-0.07-0.08-0.13-0.12-0.2c-0.04-0.06-0.09-0.12-0.13-0.18c-0.05-0.06-0.1-0.12-0.14-0.18c-0.05-0.06-0.1-0.11-0.15-0.17
			c-0.05-0.05-0.11-0.11-0.16-0.16c-0.05-0.05-0.11-0.11-0.17-0.16c-0.05-0.05-0.11-0.09-0.17-0.14s-0.12-0.09-0.18-0.14
			c-0.06-0.04-0.12-0.09-0.18-0.13c-0.07-0.04-0.13-0.08-0.2-0.12c-0.06-0.03-0.13-0.07-0.19-0.11c-0.07-0.03-0.14-0.06-0.21-0.1
			c-0.07-0.03-0.14-0.06-0.21-0.08c-0.07-0.03-0.14-0.06-0.21-0.08c-1.14-0.4-2.44-0.36-3.53,0.17c-1.35,0.66-1.99,1.75-2.46,3.13
			l-13.16,0.04l-3.8-0.01c-0.8-0.01-1.65-0.06-2.44,0.06c0,0.1-0.01,0.14-0.05,0.23c-0.17,0.48-0.08,1.35-0.07,1.88
			c2.24-0.09,4.53-0.01,6.77-0.01l12.89,0.01c0.06,0.2,0.12,0.4,0.2,0.59c0.47,1.14,1.28,2.02,2.44,2.49
			c1.1,0.45,2.48,0.46,3.57-0.03c0.07-0.03,0.14-0.06,0.21-0.1c0.07-0.03,0.14-0.07,0.2-0.11c0.07-0.04,0.14-0.08,0.2-0.12
			c0.07-0.04,0.13-0.08,0.2-0.13c0.06-0.04,0.12-0.09,0.18-0.14l0.18-0.15c0.06-0.05,0.11-0.1,0.17-0.16
			c0.05-0.05,0.11-0.11,0.16-0.16c0.05-0.06,0.11-0.12,0.15-0.18c0.05-0.06,0.1-0.12,0.15-0.18c0.05-0.06,0.09-0.12,0.13-0.19
			c0.05-0.06,0.09-0.13,0.13-0.19c0.04-0.07,0.08-0.14,0.12-0.2c0.03-0.07,0.07-0.14,0.1-0.21c0.03-0.07,0.07-0.14,0.1-0.21
			c0.03-0.08,0.05-0.15,0.08-0.22c0.02-0.07,0.05-0.15,0.07-0.22c0.02-0.07,0.04-0.14,0.06-0.22c0.02-0.07,0.04-0.15,0.05-0.22
			c0.02-0.08,0.03-0.15,0.04-0.23c0.01-0.07,0.02-0.15,0.03-0.22c0-0.08,0.01-0.15,0.01-0.23c0.01-0.08,0.01-0.15,0.01-0.23
			C236.07,93.22,236.07,93.14,236.06,93.06z M233.29,93.48c0,0.06-0.01,0.12-0.02,0.18s-0.03,0.12-0.04,0.18
			c-0.02,0.06-0.04,0.12-0.07,0.18c-0.02,0.06-0.04,0.11-0.07,0.17c-0.31,0.57-0.77,0.87-1.38,1.05c-0.38,0.01-0.72-0.02-1.08-0.18
			c-0.06-0.03-0.11-0.07-0.17-0.1c-0.06-0.04-0.11-0.07-0.16-0.11c-0.06-0.04-0.11-0.09-0.15-0.13c-0.05-0.05-0.1-0.1-0.14-0.15
			c-0.04-0.05-0.08-0.1-0.12-0.16c-0.04-0.05-0.07-0.11-0.1-0.17c-0.04-0.05-0.06-0.11-0.09-0.18c-0.02-0.06-0.05-0.12-0.07-0.18
			c-0.15-0.52-0.1-1.09,0.18-1.55c0.33-0.53,0.78-0.74,1.36-0.87c0.37-0.02,0.76,0.05,1.09,0.21c0.06,0.03,0.11,0.06,0.17,0.09
			c0.05,0.03,0.1,0.07,0.15,0.1c0.05,0.04,0.09,0.08,0.14,0.12c0.04,0.04,0.08,0.09,0.13,0.13c0.04,0.05,0.07,0.1,0.11,0.15
			c0.04,0.05,0.07,0.1,0.1,0.15c0.03,0.06,0.06,0.11,0.08,0.17c0.03,0.05,0.05,0.11,0.07,0.17c0.02,0.06,0.03,0.12,0.05,0.18
			c0.01,0.06,0.02,0.12,0.03,0.18c0.01,0.06,0.01,0.12,0.01,0.18C233.3,93.36,233.3,93.42,233.29,93.48z M142.02,92.31l-0.1-0.01
			c0.13-0.05,0.27-0.06,0.41-0.09c-0.7-0.12-1.5-0.06-2.21-0.06l-3.69,0.01l-13.42-0.02c-0.02-0.07-0.05-0.14-0.08-0.22
			c-0.03-0.07-0.06-0.14-0.09-0.21c-0.04-0.08-0.07-0.15-0.11-0.22c-0.03-0.07-0.07-0.13-0.11-0.2s-0.08-0.14-0.13-0.2
			c-0.04-0.07-0.08-0.13-0.13-0.2c-0.05-0.06-0.1-0.12-0.15-0.19c-0.04-0.06-0.1-0.12-0.15-0.18c-0.05-0.05-0.1-0.11-0.16-0.17
			c-0.06-0.05-0.11-0.11-0.17-0.16s-0.12-0.11-0.18-0.16s-0.12-0.1-0.18-0.14c-0.07-0.05-0.13-0.1-0.2-0.14
			c-0.06-0.04-0.13-0.09-0.2-0.13c-0.06-0.04-0.13-0.08-0.2-0.11c-0.07-0.04-0.14-0.08-0.21-0.11c-1.12-0.54-2.46-0.56-3.61-0.13
			c-0.08,0.03-0.15,0.06-0.22,0.09s-0.14,0.06-0.2,0.09c-0.07,0.03-0.14,0.07-0.21,0.11c-0.06,0.03-0.13,0.07-0.19,0.11
			c-0.07,0.04-0.13,0.08-0.2,0.12c-0.06,0.05-0.12,0.09-0.18,0.14c-0.06,0.04-0.12,0.09-0.18,0.14c-0.06,0.05-0.11,0.1-0.17,0.15
			c-0.05,0.05-0.11,0.11-0.16,0.16c-0.05,0.06-0.11,0.11-0.16,0.17s-0.1,0.11-0.14,0.17c-0.05,0.06-0.1,0.12-0.14,0.19
			c-0.04,0.06-0.09,0.12-0.13,0.18c-0.04,0.07-0.08,0.13-0.12,0.2c-0.04,0.06-0.07,0.13-0.11,0.2c-0.03,0.07-0.06,0.14-0.1,0.2
			c-0.03,0.07-0.06,0.14-0.08,0.21c-0.03,0.07-0.06,0.14-0.08,0.21c-0.03,0.07-0.05,0.14-0.07,0.21c-0.02,0.08-0.04,0.15-0.06,0.22
			c-0.02,0.07-0.03,0.15-0.04,0.22c-0.02,0.07-0.03,0.15-0.04,0.22c-0.01,0.07-0.02,0.15-0.02,0.22c-0.01,0.08-0.01,0.15-0.02,0.23
			v0.22c0,0.08,0.01,0.15,0.01,0.23c0.01,0.07,0.01,0.14,0.02,0.22c0.01,0.07,0.02,0.15,0.04,0.22c0.01,0.07,0.02,0.15,0.04,0.22
			c0.02,0.07,0.03,0.14,0.05,0.22c0.02,0.07,0.05,0.14,0.07,0.21c0.02,0.07,0.05,0.14,0.08,0.21c0.44,1.14,1.28,2.05,2.41,2.53
			c1.11,0.48,2.54,0.53,3.66,0.08c1.2-0.48,2.1-1.46,2.59-2.64c0.1-0.25,0.18-0.5,0.26-0.75l13.07-0.01l3.98-0.01
			c0.68,0.01,1.39,0.05,2.06,0c0.06-0.66,0.06-1.38-0.05-2.04C142.1,92.31,142.15,92.32,142.02,92.31z M120.56,93.7
			c0,0.06-0.01,0.12-0.02,0.18c-0.01,0.06-0.03,0.12-0.05,0.18c-0.01,0.06-0.03,0.11-0.06,0.17c-0.25,0.62-0.73,0.94-1.33,1.19
			c-0.35,0.05-0.69,0.04-1.03-0.07c-0.49-0.16-0.9-0.49-1.13-0.96c-0.03-0.05-0.05-0.11-0.08-0.16c-0.02-0.06-0.04-0.12-0.05-0.18
			c-0.02-0.05-0.03-0.11-0.04-0.17s-0.02-0.12-0.02-0.18v-0.18c0-0.06,0.01-0.12,0.02-0.18c0-0.06,0.02-0.12,0.03-0.18
			c0.02-0.06,0.03-0.12,0.05-0.17c0.25-0.66,0.72-0.98,1.32-1.26c0.38-0.03,0.78-0.04,1.14,0.09c0.48,0.17,0.89,0.51,1.1,0.98
			c0.03,0.05,0.05,0.11,0.07,0.17c0.02,0.06,0.03,0.12,0.05,0.18c0.01,0.06,0.02,0.12,0.03,0.18c0,0.06,0.01,0.12,0.01,0.18
			S120.57,93.63,120.56,93.7z M203.64,147.71c-0.01-0.08-0.02-0.16-0.03-0.23c-0.01-0.08-0.02-0.16-0.04-0.23
			c-0.22-1.2-0.87-2.22-1.89-2.89c-1.04-0.69-2.27-0.93-3.49-0.65c-0.36,0.08-0.71,0.22-1.04,0.38c-0.92-1.24-2.16-2.33-3.25-3.42
			c-1.74-1.75-3.49-3.48-5.27-5.2c0.02-3.87,0.02-7.74-0.02-11.6c-0.67,0.01-1.4,0.78-2.08,0.68c0.01-0.25-0.02-0.48-0.05-0.73
			c-0.07,2.45-0.03,4.91-0.03,7.36c0,1.69-0.08,3.43,0.04,5.12c1.84,1.95,3.77,3.82,5.67,5.72c1.12,1.11,2.22,2.37,3.44,3.36
			c-0.75,1.03-1.12,2.11-0.92,3.4c0.19,1.24,0.91,2.34,1.92,3.07c0.94,0.68,2.15,0.94,3.28,0.76c1.18-0.19,2.28-0.83,2.97-1.81
			c0.04-0.07,0.08-0.13,0.12-0.2c0.04-0.06,0.08-0.13,0.12-0.2c0.04-0.07,0.07-0.14,0.11-0.21c0.03-0.07,0.06-0.14,0.09-0.21
			c0.03-0.07,0.06-0.14,0.09-0.21c0.02-0.08,0.05-0.15,0.07-0.23c0.02-0.07,0.04-0.14,0.06-0.22c0.02-0.07,0.04-0.15,0.06-0.23
			c0.01-0.07,0.03-0.15,0.04-0.22c0.01-0.08,0.02-0.16,0.03-0.24c0-0.07,0.01-0.15,0.01-0.23c0.01-0.07,0.01-0.15,0.01-0.23v-0.23
			C203.65,147.86,203.65,147.78,203.64,147.71z M201.01,148.25c0,0.05-0.01,0.11-0.02,0.16s-0.02,0.11-0.03,0.16
			c-0.02,0.05-0.03,0.1-0.05,0.16c-0.22,0.58-0.67,0.87-1.21,1.12c-0.37,0.06-0.74,0.09-1.09-0.02c-0.47-0.15-0.86-0.47-1.07-0.92
			c-0.03-0.06-0.05-0.11-0.07-0.17c-0.02-0.06-0.04-0.11-0.05-0.17s-0.02-0.12-0.03-0.18c-0.01-0.06-0.01-0.12-0.02-0.18
			c0-0.06,0-0.12,0.01-0.18c0-0.06,0.01-0.12,0.02-0.18c0.01-0.06,0.03-0.12,0.04-0.18c0.02-0.06,0.04-0.11,0.06-0.17
			c0.23-0.59,0.65-0.87,1.21-1.12c0.36-0.02,0.73-0.03,1.08,0.09c0.47,0.17,0.87,0.52,1.08,0.98c0.02,0.05,0.04,0.1,0.06,0.15
			s0.03,0.11,0.04,0.16c0.02,0.05,0.03,0.11,0.03,0.16c0.01,0.05,0.01,0.11,0.02,0.16C201.02,148.14,201.02,148.19,201.01,148.25z
			 M143.01,80.72c-0.89,0.01-1.78,0.02-2.67-0.03l0.01-0.03c0.86-0.1,1.77,0.05,2.63-0.05c0.03,0,0.06,0,0.08-0.01
			c-0.91-0.1-1.88-0.03-2.79-0.04l-4.85-0.01c-2.22-2.24-4.49-4.43-6.69-6.68c-0.01-1.83,0-3.65,0.02-5.47
			c0.35-0.16,0.72-0.31,1.05-0.51c0.98-0.61,1.75-1.63,1.99-2.76c0.29-1.29,0.01-2.43-0.68-3.54c-0.54-0.65-1.15-1.09-1.89-1.5
			c-1.4-0.41-2.67-0.5-4,0.23c-0.06,0.04-0.13,0.08-0.19,0.12c-0.06,0.04-0.13,0.08-0.19,0.12c-0.06,0.04-0.12,0.09-0.18,0.13
			c-0.06,0.05-0.12,0.1-0.17,0.14c-0.06,0.05-0.12,0.1-0.17,0.15l-0.16,0.16c-0.05,0.06-0.1,0.11-0.15,0.17
			c-0.05,0.05-0.1,0.11-0.15,0.17c-0.04,0.06-0.09,0.12-0.13,0.18c-0.04,0.06-0.08,0.12-0.13,0.19c-0.04,0.06-0.07,0.12-0.11,0.19
			c-0.04,0.06-0.07,0.13-0.11,0.2c-0.03,0.06-0.06,0.13-0.09,0.2c-0.03,0.07-0.06,0.14-0.09,0.21c-0.03,0.07-0.05,0.14-0.08,0.21
			c-0.02,0.07-0.04,0.14-0.06,0.21s-0.04,0.14-0.05,0.21c-0.02,0.07-0.03,0.13-0.04,0.2c-0.01,0.07-0.03,0.14-0.03,0.21
			c-0.01,0.07-0.02,0.14-0.03,0.21c0,0.07,0,0.14-0.01,0.21v0.21c0.01,0.07,0.01,0.14,0.01,0.21c0.01,0.07,0.02,0.14,0.02,0.21
			l0.03,0.21c0.02,0.07,0.03,0.14,0.04,0.2c0.02,0.07,0.04,0.14,0.05,0.21c0.02,0.07,0.04,0.13,0.06,0.2
			c0.03,0.07,0.05,0.13,0.07,0.2c0.03,0.06,0.06,0.13,0.08,0.19c0.03,0.07,0.06,0.13,0.09,0.19c0.04,0.07,0.07,0.13,0.1,0.19
			c0.66,1.15,1.76,1.83,2.99,2.24l0.03,6.19c0.75,0.93,1.74,1.75,2.59,2.59l5.44,5.43c1.67,0,3.66,0.12,5.3-0.02
			c0.88-0.2,2.96-0.09,3.96-0.07c0.28-0.17,0.55-1.3,0.76-1.74l-0.14-0.04l0.14-0.13l0.04-0.03l-0.05,0.06l0.05,0.05l0.01-0.12
			v-0.01C144.1,80.63,143.49,80.72,143.01,80.72z M127.56,66.08c-0.44-0.01-0.82-0.07-1.2-0.33c-0.05-0.03-0.1-0.07-0.15-0.11
			c-0.04-0.04-0.09-0.08-0.13-0.12c-0.04-0.05-0.09-0.09-0.12-0.14c-0.04-0.05-0.08-0.1-0.11-0.15c-0.03-0.05-0.06-0.11-0.09-0.16
			c-0.03-0.06-0.05-0.11-0.08-0.17c-0.02-0.06-0.04-0.12-0.05-0.18c-0.02-0.05-0.03-0.11-0.04-0.18c-0.01-0.06-0.02-0.12-0.02-0.18
			c-0.01-0.06-0.01-0.12,0-0.18c0-0.06,0-0.12,0.01-0.18s0.02-0.12,0.04-0.18c0.01-0.06,0.03-0.11,0.05-0.17
			c0.02-0.06,0.04-0.12,0.07-0.17c0.02-0.06,0.05-0.11,0.08-0.16c0.04-0.05,0.07-0.1,0.1-0.15c0.38-0.5,0.82-0.67,1.41-0.76
			c0.39,0,0.78,0.08,1.1,0.3c0.41,0.28,0.67,0.71,0.76,1.19c0.1,0.49,0,1.03-0.3,1.44C128.56,65.81,128.12,65.99,127.56,66.08z
			 M173.94,33.33l0.02,17.53c-0.01,2.9,0.08,5.83-0.02,8.73l2.17,0.01V33.32C175.38,33.45,174.68,33.46,173.94,33.33z M140.27,80.67
			c0.03,0,0.05-0.01,0.08-0.01l0.02-0.03L140.27,80.67z M215.4,82.82c0.68-0.73,1.43-1.4,2.15-2.1c1.89-1.83,4.18-4,5.89-5.97
			c0.03-1.57,0.06-3.16,0.01-4.73c-0.07-0.45-0.04-0.92-0.04-1.37c-0.76,0.06-1.45,0.03-2.19-0.13c-0.01,1.78-0.01,3.56,0,5.34
			l-4.28,4.26c-0.8,0.79-1.65,1.57-2.4,2.42h-9.53c-0.96-2.57-2.31-4.95-3.91-7.18c-0.54-0.74-1.25-1.43-1.72-2.2
			c-0.82-0.92-1.63-1.85-2.49-2.73c-1.76-1.58-5.96-4.96-8.1-5.61c-0.7-0.37-1.42-0.81-2.18-1.07c-1.43-0.34-2.75-0.99-4.22-1.28
			c-0.74-0.14-1.48-0.3-2.21-0.47c-1.35-0.16-2.71-0.3-4.07-0.4l-2.17-0.01l-0.07,0.02c-1.37,0.13-2.72,0.17-4.08,0.4
			c-0.48-0.03-1.66,0.35-2.24,0.43c-0.44,0.21-0.99,0.3-1.46,0.44c-0.91,0.26-1.81,0.56-2.7,0.89c-0.76,0.32-1.5,0.68-2.23,1.07
			c-2.99,1.44-5.69,3.43-8.13,5.66c-0.85,0.86-1.68,1.72-2.5,2.6l-0.03,0.05c-0.56,0.82-1.28,1.53-1.86,2.33
			c-1.59,2.14-2.93,4.64-3.9,7.12c-0.55,0-1.14-0.05-1.68,0c-0.02,0.01-0.05,0.01-0.08,0.01c-0.86,0.1-1.77-0.05-2.63,0.05
			l-0.01,0.03c0.89,0.05,1.78,0.04,2.67,0.03c0.48,0,1.09-0.09,1.56,0.01v0.01l-0.01,0.01l-0.04,0.03l-0.14,0.13l0.14,0.04
			c-0.21,0.44-0.48,1.57-0.76,1.74c-1-0.02-3.08-0.13-3.96,0.07c1.39,0.02,2.78-0.01,4.17,0.06c-0.16,0.51-0.85,3.45-1.1,3.64
			c-0.24,0.04-0.48,0.07-0.72,0.09c0.1,0.05,0.42,0.02,0.54,0.02l0.09,0.07c0,0.65-0.28,1.25-0.29,1.91
			c-0.31-0.01-0.62-0.04-0.91,0.09l1.01,0.02c-0.12,1.17-0.26,2.37-0.26,3.55c-0.14,0.03-0.28,0.04-0.41,0.09l0.1,0.01
			c0.13,0.01,0.08,0,0.2,0.03c0.11,0.66,0.11,1.38,0.05,2.04c0.13,0.23,0.49,3.25,0.43,3.51c-0.01,0.04-0.03,0.07-0.04,0.1
			c-0.24,0.03-0.47,0.04-0.71,0.04c0.05,0.02,0.09,0.04,0.13,0.05c0.19,0.07,0.37,0.06,0.57,0.05l0.01,0.1
			c0.09,0.66,0.34,1.31,0.39,1.96c0.22,0.21,0.96,3.13,1.11,3.62l-0.37,0.08c0.21,0.06,0.36,0.07,0.47,0.29
			c0.26,0.52,0.52,1.27,0.68,1.84c0,0.01,0.01,0.02,0.01,0.02c0.13,0.12,2.01,3.62,2.29,4.08c0.97,1.59,2.16,2.94,3.29,4.42
			c0.82,0.86,1.66,1.71,2.52,2.53c2.5,2.16,5.17,4.2,8.17,5.61l-0.01,12.82l-8.44,8.53c0.44,0.55,1.13,0.83,1.55,1.43
			c1.36-1.15,2.6-2.51,3.84-3.78l5.25-5.32c0-4.22-0.05-8.46,0.02-12.68c1.38,0.5,2.74,0.96,4.16,1.34l0.01,12.68l-6.01,5.94
			c-0.87,0.88-1.91,1.75-2.65,2.73c-0.13,0.17-0.21,0.36-0.22,0.57c0,0.29,0.12,0.54,0.32,0.74c0.22,0.21,0.51,0.37,0.82,0.36
			c0.19-0.01,0.39-0.04,0.55-0.15c1.13-0.83,2.27-2.18,3.28-3.2c2.07-2.07,4.18-4.12,6.18-6.26c-0.06-4.3-0.01-8.6,0-12.9
			c1.33,0.18,2.66,0.31,4,0.39l0.02,6.08c0.21,2.08,0.07,4.3,0.07,6.39l-0.01,12.42c0.72-0.09,1.42-0.05,2.14,0.01l-0.02-24.93
			c1.19-0.04,2.93-0.35,4-0.29c0.6,0.09,1.58-0.28,2.15-0.45c0.02-0.02,0.04-0.05,0.06-0.06c0.15-0.09,3.5-1.17,3.93-1.29
			c0.1-0.02,0.17-0.02,0.27,0.02c0.03,0.25,0.06,0.48,0.05,0.73c0.68,0.1,1.41-0.67,2.08-0.68l0.01-1.14c3.08-1.42,5.6-3.22,8.2-5.4
			c0.72-0.86,1.61-1.63,2.38-2.46c0.61-0.79,1.27-1.54,1.87-2.34c0.73-1.01,1.42-2.04,2.05-3.12c0.62-1.07,1.2-2.17,1.71-3.3h9.66
			c2.25,2.26,4.55,4.49,6.72,6.83c0,1.13-0.04,2.28,0.02,3.4c0.71-0.14,1.36-0.19,2.09-0.19c-0.02-1.44-0.04-2.8,0.09-4.23
			c-0.46-0.52-1.01-0.99-1.5-1.5c-2.15-2.2-4.43-4.3-6.51-6.57h-9.73c0.4-1.16,0.71-2.33,1-3.52c0.24-0.69,0.35-1.47,0.5-2.19
			c-0.02-1.2,0.27-2.46,0.3-3.68c-0.01-0.53-0.1-1.4,0.07-1.88c0.04-0.09,0.05-0.13,0.05-0.23c-0.06-0.06-0.11-0.11-0.12-0.19
			c-0.08-0.33-0.03-0.78-0.05-1.13c-0.04-0.82-0.1-1.63-0.18-2.44c-0.12-0.55-0.18-1.13-0.27-1.69c0.06-0.13,0.11-0.25,0.16-0.38
			l-0.31-0.09c-0.17-1.25-0.53-2.43-0.87-3.64C209.1,82.73,212.25,82.81,215.4,82.82z M190.46,111.01
			c-5.17,3.08-10.28,6.24-15.34,9.48c-0.64-0.33-1.24-0.75-1.84-1.12c-0.94-0.58-1.89-1.16-2.83-1.72l-10.39-6.35
			c-2.58-1.61-5.16-3.33-7.84-4.77V79.06l15.37-9.14c2.44-1.43,4.87-3.02,7.38-4.3c0.67,0.28,1.32,0.72,1.93,1.1
			c1.13,0.69,2.27,1.38,3.42,2.05c5.86,3.41,11.6,7.01,17.46,10.42c0.05,3.84,0.05,7.67,0.03,11.5l0.03,15.77
			C195.34,107.93,192.93,109.5,190.46,111.01z M195.33,81.5l-0.1-0.11c-3.92,3.89-7.86,7.77-11.83,11.61
			c-2.51,2.46-4.95,4.98-7.55,7.35c0,5.63-0.05,11.26,0.03,16.88c1.34-0.94,2.75-1.81,4.14-2.65c0.02-1.56,0.02-3.12,0.02-4.68
			c2.58-2.73,5.42-5.27,8.09-7.92c0.34-0.34,0.69-0.68,1.03-1.03c-0.16-0.62-0.13-1.16,0.2-1.73c0.3-0.53,0.86-1.01,1.45-1.17
			c0.67-0.17,1.37-0.05,1.95,0.3c0.07,0.04,0.13,0.09,0.19,0.13c0.06,0.05,0.12,0.1,0.17,0.15c0.06,0.05,0.11,0.11,0.16,0.17
			c0.05,0.05,0.1,0.11,0.14,0.18c0.04,0.06,0.08,0.12,0.12,0.19c0.04,0.07,0.07,0.13,0.1,0.2c0.03,0.07,0.05,0.14,0.08,0.22
			c0.02,0.07,0.04,0.14,0.05,0.22c0.01,0.04,0.02,0.08,0.03,0.12c0,0.04,0.01,0.08,0.01,0.13c0.01,0.04,0.01,0.08,0.01,0.12
			s0.01,0.09,0.01,0.13c0,0.04,0,0.08-0.01,0.12c0,0.05,0,0.09-0.01,0.13c0,0.04-0.01,0.08-0.01,0.12
			c-0.01,0.04-0.02,0.09-0.03,0.13c0,0.04-0.01,0.08-0.03,0.12c-0.01,0.04-0.02,0.08-0.03,0.12c-0.01,0.04-0.03,0.08-0.04,0.12
			c-0.02,0.04-0.03,0.08-0.05,0.11c-0.02,0.04-0.04,0.08-0.06,0.12c-0.01,0.04-0.03,0.07-0.06,0.11c-0.02,0.04-0.04,0.07-0.06,0.11
			c-0.02,0.03-0.05,0.07-0.07,0.1c-0.37,0.51-0.93,0.89-1.56,0.99c-0.52,0.09-0.92,0-1.36-0.28c-0.88,1.04-1.88,1.97-2.86,2.93
			c-1.82,1.79-3.68,3.54-5.48,5.35c0,0.87,0,1.74,0.01,2.6l9.08-5.71c1.35-0.86,2.79-1.67,4.07-2.62l0.04-14.95
			c0-2.75-0.08-5.52,0.02-8.27l0.06-0.04l-0.12-0.04L195.33,81.5z M187.48,86.15c2.16-2.1,4.35-4.17,6.46-6.31
			c-0.52-0.3-3.32-2.13-3.73-2.19c-4.21,4.2-8.46,8.38-12.73,12.53c-2.61,2.53-5.28,5.05-7.76,7.71v16.37
			c1.25,0.91,2.59,1.7,3.91,2.5l0.09-0.04c0.15-1.64,0.03-3.38,0.03-5.03c0-4.04-0.08-8.1,0.06-12.13c1.87-2.13,4.1-4.03,6.13-6.01
			L187.48,86.15z M170.36,94.42l4.11-4.11c3.52-3.51,7.07-7,10.65-10.46c1.13-1.1,2.21-2.27,3.35-3.36
			c-1.27-0.62-2.41-1.56-3.68-2.14c-2.98,3.08-6.1,6.03-9.16,9.02c-2.34,2.33-4.67,4.67-6.98,7.02c-1.72,1.75-3.49,3.47-5.18,5.25
			l0.09,14.93c1.29,0.83,2.57,1.68,3.9,2.46l0.12,0.06c0.24-0.35,0.11-14.52,0.11-15.88C168.5,96.21,169.45,95.32,170.36,94.42z
			 M168.53,87.65c4.77-4.84,9.58-9.65,14.44-14.42c-1.12-0.67-7.37-4.62-8.14-4.68l-13.62,8.02c-2.17,1.29-4.29,2.8-6.56,3.91
			l0.02,15.86c0,2.92,0.06,5.84,0.01,8.75c2.26,1.39,4.48,2.95,6.79,4.24v-1.43c0-4.34-0.07-8.69,0.01-13.03
			c0.63-0.82,1.44-1.53,2.16-2.27C165.26,90.94,166.89,89.29,168.53,87.65z M160.74,88.79c0.27,0.64,0.36,1.32,0.1,1.99
			c-0.28,0.7-0.81,1.11-1.48,1.4c-0.19,0.05-0.38,0.09-0.57,0.09c-0.66,0.01-1.31-0.28-1.75-0.76c-0.05-0.06-0.11-0.13-0.16-0.2
			c-0.05-0.06-0.09-0.13-0.14-0.21c-0.04-0.07-0.08-0.14-0.11-0.22c-0.04-0.07-0.07-0.15-0.1-0.23c-0.03-0.08-0.05-0.16-0.07-0.24
			c-0.02-0.09-0.03-0.17-0.04-0.25c-0.01-0.09-0.02-0.17-0.02-0.25c-0.01-0.09,0-0.17,0-0.26c0.05-0.63,0.34-1.21,0.84-1.6
			c0.62-0.48,1.28-0.52,2.02-0.45c1.2-1.42,2.59-2.72,3.9-4.04c1.17-1.17,2.3-2.44,3.57-3.5c-0.09-0.61-0.12-1.25,0.13-1.83
			c0.32-0.71,0.92-1.02,1.62-1.27c0.19-0.01,0.38-0.03,0.57-0.01c0.04,0,0.08,0,0.12,0.01c0.04,0,0.09,0.01,0.13,0.01
			c0.04,0.01,0.08,0.02,0.12,0.02c0.04,0.01,0.08,0.02,0.12,0.03c0.03,0.01,0.07,0.02,0.11,0.04c0.04,0.01,0.08,0.02,0.12,0.04
			c0.04,0.01,0.07,0.03,0.11,0.04c0.04,0.02,0.08,0.04,0.11,0.06c0.04,0.01,0.08,0.03,0.11,0.05c0.04,0.02,0.07,0.05,0.11,0.07
			c0.03,0.02,0.06,0.04,0.1,0.07c0.03,0.02,0.06,0.04,0.09,0.07c0.04,0.03,0.07,0.05,0.1,0.08c0.03,0.03,0.06,0.05,0.09,0.08
			c0.03,0.03,0.06,0.06,0.08,0.09c0.03,0.03,0.06,0.06,0.08,0.09c0.05,0.06,0.1,0.13,0.14,0.19c0.05,0.07,0.09,0.14,0.12,0.2
			c0.04,0.07,0.07,0.14,0.1,0.22c0.03,0.07,0.06,0.14,0.08,0.22c0.02,0.08,0.04,0.15,0.06,0.23c0.01,0.08,0.02,0.15,0.03,0.23
			c0.01,0.08,0.01,0.16,0.01,0.24c0,0.08,0,0.15-0.01,0.23c-0.01,0.08-0.02,0.16-0.04,0.23c-0.02,0.08-0.04,0.16-0.06,0.23
			c-0.03,0.07-0.06,0.15-0.09,0.22c-0.03,0.07-0.06,0.14-0.1,0.21c-0.04,0.07-0.09,0.13-0.13,0.2l-0.15,0.18
			c-0.05,0.06-0.1,0.11-0.16,0.17l-0.18,0.15c-0.75,0.55-1.48,0.48-2.34,0.35C165.55,83.88,163.21,86.4,160.74,88.79z"/>
		<path class="st66" d="M154.94,35.4c-0.3-1.13-0.98-2.17-2.01-2.75c-0.07-0.04-0.13-0.07-0.2-0.11c-0.07-0.03-0.13-0.06-0.2-0.09
			c-0.07-0.03-0.14-0.06-0.21-0.08c-0.07-0.03-0.14-0.06-0.21-0.08s-0.15-0.04-0.22-0.06s-0.14-0.04-0.22-0.05
			c-0.07-0.02-0.14-0.03-0.22-0.05c-0.07-0.01-0.15-0.02-0.22-0.03c-0.07,0-0.15-0.01-0.22-0.02h-0.45c-0.08,0-0.15,0.01-0.23,0.02
			c-0.07,0-0.15,0.01-0.22,0.02s-0.15,0.02-0.22,0.04c-0.07,0.01-0.15,0.03-0.22,0.05c-0.07,0.01-0.15,0.03-0.22,0.05
			c-0.07,0.03-0.13,0.05-0.2,0.07c-0.07,0.03-0.14,0.05-0.2,0.08c-0.07,0.03-0.13,0.06-0.2,0.09c-0.06,0.03-0.13,0.06-0.19,0.1
			c-0.06,0.03-0.13,0.06-0.19,0.1c-0.06,0.04-0.12,0.08-0.18,0.12c-0.06,0.04-0.11,0.08-0.17,0.12c-0.06,0.05-0.12,0.09-0.17,0.14
			c-0.06,0.04-0.11,0.09-0.16,0.14c-0.05,0.05-0.11,0.1-0.16,0.15s-0.09,0.1-0.14,0.16c-0.05,0.05-0.1,0.1-0.14,0.16
			c-0.05,0.06-0.09,0.11-0.13,0.17c-0.04,0.06-0.08,0.12-0.12,0.18c-0.04,0.06-0.08,0.12-0.11,0.18c-0.04,0.06-0.07,0.13-0.11,0.19
			c-0.03,0.07-0.06,0.13-0.09,0.2c-0.03,0.06-0.06,0.13-0.09,0.2c-0.03,0.06-0.05,0.13-0.08,0.2c-0.02,0.07-0.04,0.14-0.06,0.21
			s-0.04,0.14-0.06,0.21s-0.03,0.14-0.05,0.21c-0.01,0.07-0.02,0.14-0.03,0.21c-0.01,0.08-0.02,0.15-0.02,0.22
			c-0.01,0.07-0.02,0.15-0.02,0.22v0.22c0,0.07,0,0.14,0.01,0.21c0,0.08,0.01,0.15,0.02,0.22c0.01,0.07,0.02,0.14,0.03,0.22
			c0.01,0.07,0.02,0.14,0.04,0.21c0.01,0.07,0.03,0.14,0.05,0.21c0.02,0.07,0.04,0.14,0.06,0.21c0.02,0.07,0.05,0.14,0.07,0.21
			c0.03,0.06,0.06,0.13,0.09,0.2c0.02,0.07,0.06,0.13,0.09,0.2c0.03,0.06,0.06,0.13,0.1,0.19s0.07,0.13,0.11,0.19
			c0.04,0.06,0.08,0.12,0.12,0.18c0.05,0.06,0.09,0.12,0.13,0.17c0.05,0.06,0.1,0.12,0.14,0.17c0.05,0.06,0.1,0.11,0.15,0.16
			c0.05,0.06,0.1,0.11,0.16,0.16c0.05,0.05,0.1,0.1,0.16,0.14c0.05,0.05,0.11,0.1,0.17,0.14c0.06,0.04,0.12,0.09,0.18,0.13
			c0.06,0.04,0.12,0.08,0.18,0.12c0.06,0.04,0.12,0.07,0.19,0.11c0.06,0.03,0.13,0.07,0.19,0.1c1.02,0.5,2.27,0.62,3.34,0.24
			c0.21-0.08,0.39-0.16,0.58-0.27c0.64-0.36,1.22-0.85,1.66-1.44C155.04,37.8,155.26,36.63,154.94,35.4z M152.63,36.56
			c0,0.06-0.01,0.12-0.02,0.18c-0.02,0.07-0.03,0.13-0.05,0.19s-0.04,0.12-0.06,0.18c-0.26,0.62-0.73,0.91-1.33,1.15
			c-0.36,0.05-0.74,0.05-1.09-0.08c-0.48-0.17-0.87-0.5-1.08-0.97c-0.03-0.06-0.05-0.12-0.07-0.18s-0.04-0.12-0.06-0.18
			c-0.01-0.06-0.02-0.12-0.03-0.18c-0.01-0.07-0.01-0.13-0.02-0.19c0-0.07,0-0.13,0.01-0.19c0-0.07,0.01-0.13,0.02-0.19
			c0.01-0.07,0.03-0.13,0.04-0.19c0.02-0.06,0.04-0.12,0.07-0.18c0.26-0.65,0.73-0.96,1.35-1.22c0.32-0.03,0.64-0.04,0.94,0.07
			c0.53,0.17,0.97,0.55,1.21,1.06c0.03,0.05,0.05,0.11,0.07,0.17c0.03,0.06,0.04,0.12,0.06,0.18c0.01,0.06,0.02,0.13,0.03,0.19
			s0.02,0.12,0.02,0.19C152.64,36.43,152.64,36.49,152.63,36.56z M235.47,109.66c-0.06-1.17-0.5-2.3-1.39-3.1
			c-0.05-0.05-0.11-0.1-0.17-0.14c-0.06-0.05-0.12-0.1-0.18-0.14c-0.06-0.05-0.12-0.09-0.19-0.13c-0.06-0.05-0.13-0.09-0.19-0.13
			c-0.07-0.03-0.13-0.07-0.2-0.11c-0.07-0.03-0.14-0.07-0.2-0.1c-0.07-0.03-0.14-0.06-0.21-0.09c-0.07-0.03-0.15-0.06-0.22-0.08
			c-0.07-0.03-0.14-0.05-0.21-0.07c-0.08-0.02-0.15-0.04-0.23-0.06c-0.07-0.02-0.14-0.03-0.22-0.05c-0.07-0.01-0.15-0.02-0.22-0.04
			c-0.08-0.01-0.16-0.01-0.23-0.02c-0.08-0.01-0.15-0.01-0.23-0.02h-0.23c-0.07,0-0.15,0-0.23,0.01c-1.43,0.08-2.48,0.76-3.4,1.81
			l-0.03,0.09c-0.32,0.84-0.74,1.34-0.8,2.3c0.18,1.21,0.45,2.39,1.35,3.29c0.9,0.89,2.22,1.33,3.47,1.29c1.16-0.03,2.2-0.48,3-1.33
			c0.04-0.05,0.09-0.11,0.14-0.16c0.05-0.06,0.09-0.11,0.14-0.17c0.04-0.06,0.08-0.12,0.12-0.18c0.05-0.06,0.09-0.12,0.12-0.18
			c0.04-0.06,0.08-0.12,0.11-0.19c0.04-0.06,0.07-0.12,0.1-0.19c0.04-0.06,0.07-0.13,0.09-0.2c0.03-0.06,0.06-0.13,0.08-0.2
			c0.03-0.07,0.05-0.14,0.07-0.2c0.02-0.07,0.04-0.14,0.06-0.21c0.02-0.07,0.04-0.15,0.05-0.22s0.03-0.14,0.04-0.21
			s0.02-0.14,0.02-0.22c0.01-0.07,0.02-0.14,0.02-0.21c0-0.08,0.01-0.15,0.01-0.22S235.47,109.73,235.47,109.66z M233.11,109.99
			c0,0.07-0.01,0.13-0.02,0.2c-0.01,0.07-0.03,0.14-0.05,0.2c-0.01,0.07-0.04,0.13-0.06,0.2c-0.26,0.67-0.75,0.99-1.38,1.27
			c-0.36,0.05-0.73,0.08-1.08-0.02c-0.54-0.15-0.98-0.5-1.25-0.99c-0.27-0.51-0.34-1.16-0.14-1.7c0.26-0.7,0.79-1.06,1.44-1.34
			c0.42-0.05,0.78-0.07,1.19,0.08c0.06,0.02,0.13,0.05,0.19,0.08c0.06,0.03,0.12,0.06,0.18,0.1c0.06,0.03,0.12,0.07,0.17,0.11
			c0.06,0.04,0.11,0.09,0.16,0.14c0.05,0.04,0.1,0.09,0.15,0.14c0.04,0.06,0.08,0.11,0.12,0.17c0.04,0.05,0.08,0.11,0.11,0.17
			c0.04,0.06,0.07,0.12,0.1,0.19c0.02,0.06,0.05,0.12,0.07,0.19c0.02,0.06,0.04,0.13,0.06,0.19c0.01,0.07,0.02,0.14,0.03,0.21
			c0.01,0.07,0.02,0.13,0.02,0.2S233.12,109.92,233.11,109.99z M122.47,107.08c-0.85-1.01-1.9-1.59-3.22-1.69
			c-1.22-0.1-2.36,0.23-3.3,1.04c-0.05,0.04-0.11,0.09-0.16,0.15c-0.06,0.05-0.11,0.1-0.16,0.15c-0.05,0.06-0.1,0.11-0.15,0.17
			c-0.05,0.05-0.1,0.11-0.14,0.17c-0.05,0.06-0.09,0.12-0.14,0.18c-0.04,0.06-0.08,0.12-0.12,0.19c-0.04,0.06-0.08,0.12-0.11,0.19
			c-0.04,0.06-0.08,0.13-0.11,0.19c-0.03,0.07-0.06,0.14-0.09,0.21c-0.03,0.06-0.06,0.13-0.09,0.2c-0.03,0.07-0.05,0.14-0.07,0.21
			c-0.03,0.07-0.05,0.14-0.07,0.22c-0.02,0.07-0.04,0.14-0.05,0.21c-0.02,0.08-0.03,0.15-0.04,0.22c-0.02,0.08-0.03,0.15-0.04,0.22
			c0,0.08-0.01,0.15-0.02,0.23c-0.07,1.21,0.4,2.42,1.21,3.32c0.79,0.87,1.87,1.35,3.04,1.4c1.22,0.04,2.44-0.34,3.34-1.18
			c1.1-1.02,1.38-2.26,1.44-3.7C123.35,108.51,123.01,107.76,122.47,107.08z M120.86,109.97c-0.01,0.08-0.01,0.15-0.02,0.22
			c-0.02,0.07-0.03,0.14-0.05,0.21c-0.02,0.07-0.04,0.14-0.06,0.21c-0.03,0.07-0.06,0.14-0.09,0.2c-0.29,0.58-0.77,0.88-1.37,1.07
			c-0.43,0.02-0.8,0.02-1.21-0.14c-0.5-0.21-0.9-0.6-1.08-1.11c-0.03-0.06-0.05-0.13-0.07-0.2c-0.02-0.07-0.03-0.14-0.04-0.21
			s-0.02-0.14-0.03-0.21v-0.21c0-0.07,0.01-0.14,0.02-0.21s0.02-0.14,0.04-0.2c0.01-0.07,0.03-0.14,0.06-0.21
			c0.02-0.06,0.05-0.13,0.08-0.19c0.3-0.65,0.8-0.94,1.43-1.19c0.42-0.02,0.79-0.02,1.17,0.16c0.06,0.02,0.12,0.05,0.18,0.09
			c0.06,0.03,0.12,0.07,0.18,0.11c0.05,0.04,0.1,0.08,0.16,0.12c0.05,0.05,0.1,0.1,0.14,0.15c0.05,0.05,0.09,0.1,0.13,0.15
			c0.05,0.06,0.08,0.11,0.12,0.17c0.04,0.06,0.07,0.12,0.1,0.18c0.03,0.06,0.05,0.13,0.08,0.19c0.02,0.07,0.04,0.14,0.06,0.21
			c0.02,0.07,0.04,0.14,0.05,0.21c0.01,0.07,0.01,0.14,0.02,0.22V109.97z M203.07,34.02c-0.04-0.07-0.08-0.13-0.13-0.19
			c-0.04-0.06-0.09-0.12-0.14-0.17c-0.04-0.06-0.09-0.12-0.14-0.18c-0.05-0.05-0.1-0.11-0.16-0.16c-0.05-0.05-0.1-0.1-0.16-0.15
			c-0.05-0.05-0.11-0.1-0.17-0.15c-0.06-0.05-0.12-0.09-0.18-0.14c-0.06-0.04-0.12-0.09-0.18-0.13c-0.06-0.04-0.12-0.08-0.19-0.12
			c-0.06-0.04-0.13-0.07-0.19-0.11c-0.07-0.03-0.14-0.07-0.2-0.1c-0.07-0.03-0.14-0.06-0.21-0.09c-0.07-0.03-0.14-0.06-0.21-0.08
			c-0.07-0.03-0.14-0.05-0.21-0.07c-0.07-0.03-0.15-0.05-0.22-0.06c-0.07-0.02-0.14-0.04-0.22-0.05c-0.07-0.02-0.15-0.03-0.23-0.04
			c-0.07-0.01-0.15-0.02-0.23-0.03c-0.07-0.01-0.15-0.01-0.23-0.02h-0.46c-0.08,0-0.15,0.01-0.23,0.02c-0.08,0-0.15,0.01-0.23,0.03
			c-0.08,0.01-0.15,0.02-0.23,0.03c-0.07,0.02-0.15,0.04-0.22,0.06c-0.08,0.01-0.15,0.03-0.23,0.06c-0.07,0.02-0.14,0.04-0.21,0.07
			c-0.08,0.03-0.15,0.05-0.22,0.08c-0.07,0.03-0.14,0.06-0.21,0.1c-0.07,0.03-0.14,0.06-0.21,0.1c-0.07,0.04-0.13,0.07-0.2,0.11
			c-0.07,0.04-0.13,0.09-0.2,0.13c-0.05,0.04-0.11,0.08-0.17,0.13c-0.06,0.04-0.11,0.08-0.17,0.13c-0.05,0.05-0.11,0.1-0.16,0.15
			c-0.05,0.04-0.1,0.1-0.15,0.15c-0.05,0.05-0.1,0.1-0.15,0.16c-0.04,0.05-0.09,0.11-0.13,0.16c-0.05,0.06-0.09,0.12-0.13,0.18
			c-0.05,0.05-0.09,0.11-0.12,0.18c-0.04,0.06-0.08,0.12-0.12,0.18c-0.03,0.06-0.06,0.13-0.1,0.19c-0.03,0.07-0.06,0.13-0.09,0.2
			c-0.03,0.06-0.06,0.13-0.08,0.2c-0.03,0.06-0.05,0.13-0.07,0.2c-0.03,0.07-0.05,0.14-0.07,0.21c-0.01,0.07-0.03,0.14-0.05,0.21
			c-0.01,0.07-0.03,0.14-0.04,0.21c-0.2,1.16,0.02,2.34,0.71,3.3c0.49,0.57,0.91,1.04,1.55,1.44c0.34,0.25,0.71,0.41,1.12,0.51
			c1.21,0.3,2.57,0.05,3.61-0.62c0.96-0.61,1.65-1.66,1.89-2.77C203.95,36.3,203.73,35.02,203.07,34.02z M201.16,36.62
			c0,0.06-0.01,0.12-0.02,0.18s-0.03,0.12-0.04,0.18c-0.02,0.06-0.04,0.12-0.07,0.18c-0.02,0.05-0.05,0.11-0.08,0.17
			c-0.33,0.6-0.84,0.83-1.47,1.01c-0.44,0-0.83-0.04-1.22-0.25c-0.05-0.03-0.1-0.07-0.15-0.1c-0.05-0.04-0.1-0.08-0.15-0.12
			c-0.05-0.04-0.09-0.08-0.13-0.13c-0.04-0.04-0.08-0.09-0.12-0.14c-0.04-0.05-0.07-0.1-0.11-0.15c-0.03-0.05-0.06-0.11-0.08-0.16
			c-0.03-0.06-0.05-0.12-0.08-0.17c-0.02-0.06-0.03-0.12-0.05-0.18c-0.13-0.53-0.05-1.11,0.25-1.57c0.36-0.55,0.86-0.74,1.48-0.86
			c0.29,0.02,0.59,0.07,0.86,0.19c0.06,0.03,0.12,0.06,0.18,0.09c0.06,0.04,0.12,0.07,0.18,0.11c0.06,0.04,0.11,0.09,0.16,0.13
			c0.05,0.05,0.1,0.09,0.15,0.15c0.05,0.05,0.09,0.1,0.13,0.15c0.05,0.06,0.08,0.12,0.12,0.18c0.04,0.06,0.07,0.12,0.1,0.18
			s0.05,0.13,0.07,0.19s0.04,0.12,0.06,0.18c0.01,0.06,0.02,0.12,0.03,0.18c0.01,0.07,0.01,0.13,0.01,0.19
			S201.17,36.55,201.16,36.62z M122.51,73.54c-0.05-0.06-0.09-0.11-0.14-0.17s-0.1-0.11-0.15-0.17c-0.05-0.05-0.1-0.1-0.16-0.16
			c-0.05-0.05-0.11-0.1-0.16-0.15c-0.06-0.05-0.12-0.09-0.17-0.14c-0.06-0.04-0.12-0.09-0.18-0.13c-0.06-0.05-0.13-0.09-0.19-0.13
			s-0.12-0.08-0.19-0.11c-0.06-0.04-0.13-0.08-0.2-0.11c-0.06-0.03-0.13-0.06-0.2-0.1c-0.07-0.03-0.13-0.05-0.2-0.08
			c-0.07-0.03-0.14-0.05-0.21-0.08c-0.07-0.02-0.14-0.04-0.22-0.06c-0.07-0.02-0.14-0.04-0.21-0.06c-0.08-0.01-0.15-0.03-0.22-0.04
			c-0.08-0.02-0.15-0.03-0.22-0.04c-1.26-0.14-2.55,0.2-3.53,1c-0.06,0.05-0.12,0.1-0.17,0.15c-0.06,0.05-0.11,0.1-0.16,0.15
			c-0.06,0.05-0.11,0.11-0.16,0.16c-0.05,0.06-0.09,0.11-0.14,0.17s-0.09,0.12-0.14,0.18c-0.04,0.06-0.08,0.12-0.12,0.18
			c-0.05,0.06-0.09,0.12-0.12,0.19c-0.04,0.06-0.08,0.13-0.11,0.19c-0.04,0.07-0.07,0.14-0.1,0.2c-0.03,0.07-0.06,0.14-0.09,0.21
			c-0.03,0.07-0.05,0.14-0.08,0.21c-0.02,0.07-0.04,0.14-0.06,0.21c-0.02,0.07-0.04,0.14-0.06,0.21c-0.02,0.08-0.03,0.15-0.04,0.22
			c-0.02,0.07-0.03,0.15-0.04,0.22s-0.02,0.15-0.02,0.22c-0.01,0.08-0.01,0.15-0.02,0.23v0.22c0,0.07,0.01,0.15,0.01,0.22
			c0.01,0.08,0.01,0.15,0.02,0.22c0.01,0.08,0.02,0.15,0.03,0.22c0.02,0.08,0.03,0.15,0.05,0.22c0.01,0.08,0.03,0.15,0.05,0.22
			s0.04,0.14,0.06,0.21c0.02,0.07,0.05,0.14,0.08,0.21c0.02,0.07,0.05,0.14,0.08,0.21c0.03,0.07,0.06,0.14,0.09,0.2
			c0.04,0.07,0.07,0.13,0.11,0.2c0.04,0.06,0.07,0.13,0.11,0.19c0.04,0.06,0.08,0.13,0.13,0.19c0.04,0.06,0.08,0.12,0.13,0.18
			c0.05,0.05,0.09,0.11,0.14,0.17s0.1,0.11,0.16,0.17l0.16,0.16c0.06,0.05,0.12,0.1,0.18,0.15c0.05,0.05,0.11,0.1,0.18,0.15
			c0.06,0.04,0.12,0.09,0.18,0.13c0.07,0.05,0.13,0.09,0.2,0.13c0.06,0.04,0.13,0.08,0.2,0.11c0.06,0.04,0.13,0.08,0.2,0.11
			c0.07,0.03,0.14,0.07,0.21,0.1c0.07,0.03,0.15,0.05,0.22,0.08c0.07,0.03,0.14,0.05,0.22,0.08c0.07,0.02,0.14,0.04,0.22,0.06
			c0.07,0.02,0.15,0.04,0.22,0.05c0.08,0.02,0.15,0.03,0.23,0.04c0.08,0.01,0.15,0.02,0.23,0.03s0.15,0.01,0.23,0.02
			c1.34,0.07,2.47-0.44,3.45-1.33c0.05-0.04,0.09-0.09,0.14-0.13c0.54-0.62,0.82-1.28,1.1-2.04
			C123.52,75.92,123.37,74.64,122.51,73.54z M120.62,77.25c-0.34,0.58-0.81,0.83-1.43,0.99c-0.4,0.01-0.75-0.01-1.12-0.17
			c-0.06-0.03-0.13-0.06-0.19-0.1c-0.05-0.03-0.11-0.07-0.17-0.11c-0.05-0.04-0.11-0.08-0.16-0.13c-0.05-0.04-0.1-0.09-0.15-0.14
			c-0.04-0.05-0.09-0.11-0.13-0.16c-0.04-0.06-0.07-0.12-0.11-0.17c-0.03-0.06-0.07-0.13-0.09-0.19c-0.03-0.06-0.06-0.12-0.08-0.19
			s-0.04-0.13-0.05-0.2c-0.02-0.07-0.03-0.13-0.04-0.2c-0.01-0.07-0.01-0.14-0.01-0.21c-0.01-0.06,0-0.13,0-0.2
			c0.01-0.07,0.01-0.14,0.03-0.21c0.01-0.06,0.02-0.13,0.04-0.2c0.02-0.06,0.04-0.13,0.07-0.19c0.02-0.06,0.05-0.13,0.08-0.19
			c0.31-0.61,0.82-0.9,1.45-1.11c0.45-0.04,0.87-0.02,1.28,0.18c0.46,0.24,0.79,0.64,0.95,1.13
			C120.98,76.05,120.92,76.73,120.62,77.25z M234.63,73.38c-0.04-0.06-0.09-0.11-0.14-0.17c-0.05-0.05-0.1-0.11-0.15-0.16
			c-0.05-0.05-0.11-0.1-0.16-0.15c-0.06-0.05-0.11-0.09-0.17-0.14c-0.06-0.05-0.11-0.09-0.17-0.13c-0.06-0.05-0.12-0.09-0.18-0.13
			c-0.06-0.04-0.12-0.08-0.19-0.12c-0.06-0.03-0.12-0.07-0.19-0.1c-0.06-0.04-0.13-0.07-0.2-0.1c-0.06-0.03-0.13-0.06-0.2-0.09
			c-0.06-0.03-0.13-0.05-0.2-0.08c-0.07-0.02-0.14-0.04-0.21-0.06c-0.07-0.02-0.14-0.04-0.21-0.06c-0.07-0.02-0.14-0.03-0.22-0.05
			c-0.07-0.01-0.14-0.02-0.21-0.03s-0.15-0.02-0.22-0.03c-1.3-0.11-2.51,0.25-3.5,1.09c-0.95,0.81-1.49,1.81-1.57,3.06
			c-0.03,0.38,0.01,0.76-0.02,1.14l-0.01,0.11l0.06,0.12c0.35,0.73,0.57,1.3,1.08,1.96c0.03,0.03,0.05,0.06,0.07,0.1
			c0.62,0.8,1.83,1.31,2.82,1.43c1.22,0.14,2.48-0.16,3.44-0.94c0.96-0.79,1.57-2,1.69-3.24C235.78,75.43,235.39,74.28,234.63,73.38
			z M232.98,77.28c-0.31,0.57-0.78,0.86-1.38,1.05c-0.43,0.01-0.82,0.01-1.22-0.17c-0.07-0.02-0.13-0.05-0.19-0.09
			c-0.06-0.03-0.12-0.07-0.18-0.11c-0.05-0.04-0.11-0.08-0.16-0.12c-0.05-0.05-0.1-0.09-0.15-0.14c-0.05-0.05-0.09-0.11-0.14-0.16
			c-0.04-0.06-0.08-0.11-0.12-0.17c-0.03-0.06-0.07-0.12-0.1-0.18c-0.03-0.06-0.06-0.12-0.08-0.19c-0.2-0.51-0.19-1.09,0.04-1.59
			c0.3-0.63,0.78-0.94,1.41-1.17c0.46-0.04,0.89-0.04,1.32,0.14c0.51,0.23,0.9,0.64,1.09,1.17
			C233.31,76.1,233.26,76.76,232.98,77.28z M179.54,155.13c0-0.08-0.01-0.16-0.02-0.24c-0.01-0.07-0.02-0.15-0.03-0.23
			s-0.02-0.15-0.04-0.23c-0.01-0.07-0.03-0.15-0.05-0.23c-0.02-0.07-0.04-0.15-0.06-0.22c-0.03-0.07-0.05-0.15-0.08-0.22
			c-0.48-1.29-1.39-2.14-2.62-2.7c-0.17-0.08-0.39-0.14-0.55-0.24c-0.72-0.06-1.42-0.1-2.14-0.01l0.01-12.42
			c0-2.09,0.14-4.31-0.07-6.39c-0.13,2.09-0.02,4.24-0.02,6.34l-0.01,12.48c-1.27,0.38-2.25,1.2-2.89,2.37
			c-0.03,0.06-0.07,0.13-0.1,0.2c-0.03,0.07-0.06,0.14-0.09,0.21c-0.03,0.07-0.06,0.14-0.09,0.22c-0.02,0.07-0.05,0.14-0.07,0.21
			c-0.02,0.08-0.04,0.15-0.06,0.23c-0.02,0.07-0.03,0.14-0.05,0.22c-0.01,0.07-0.03,0.15-0.04,0.22c-0.01,0.08-0.02,0.16-0.02,0.23
			c-0.01,0.08-0.02,0.15-0.02,0.23v0.46c0.01,0.08,0.01,0.15,0.02,0.23c0.01,0.07,0.02,0.15,0.03,0.23
			c0.01,0.07,0.02,0.15,0.04,0.22c0.02,0.08,0.03,0.15,0.05,0.22c0.02,0.08,0.04,0.15,0.06,0.23c0.35,1.12,1.16,2.13,2.2,2.69
			c1.07,0.57,2.56,0.64,3.71,0.25c1.12-0.37,2.05-1.24,2.55-2.3c0.04-0.07,0.07-0.14,0.1-0.21c0.03-0.07,0.06-0.15,0.08-0.22
			c0.03-0.07,0.05-0.15,0.07-0.22c0.03-0.08,0.05-0.15,0.07-0.23c0.02-0.07,0.03-0.15,0.05-0.22c0.01-0.08,0.03-0.16,0.04-0.23
			c0.01-0.08,0.02-0.16,0.02-0.23c0.01-0.08,0.02-0.16,0.02-0.24c0-0.08,0.01-0.15,0.01-0.23S179.54,155.2,179.54,155.13z
			 M176.66,156.55c-0.39,0.56-0.9,0.74-1.54,0.86c-0.44-0.01-0.86-0.07-1.24-0.31c-0.48-0.29-0.79-0.78-0.89-1.33
			c-0.01-0.06-0.02-0.13-0.02-0.2c-0.01-0.07-0.01-0.14-0.01-0.21c0-0.06,0-0.13,0.01-0.2c0.01-0.07,0.02-0.14,0.03-0.21
			c0.02-0.06,0.04-0.13,0.06-0.19c0.02-0.07,0.04-0.13,0.07-0.2c0.03-0.06,0.06-0.12,0.09-0.18c0.03-0.06,0.07-0.12,0.11-0.18
			c0.37-0.53,0.88-0.73,1.5-0.85c0.42,0,0.84,0.08,1.22,0.29c0.48,0.28,0.8,0.75,0.91,1.29
			C177.07,155.48,176.98,156.08,176.66,156.55z M195.39,81.72l-0.12-0.04l0.06-0.18l-0.1-0.11c-3.92,3.89-7.86,7.77-11.83,11.61
			c-2.51,2.46-4.95,4.98-7.55,7.35c0,5.63-0.05,11.26,0.03,16.88c1.34-0.94,2.75-1.81,4.14-2.65c0.02-1.56,0.02-3.12,0.02-4.68
			c2.58-2.73,5.42-5.27,8.09-7.92c0.34-0.34,0.69-0.68,1.03-1.03c-0.16-0.62-0.13-1.16,0.2-1.73c0.3-0.53,0.86-1.01,1.45-1.17
			c0.67-0.17,1.37-0.05,1.95,0.3c0.07,0.04,0.13,0.09,0.19,0.13c0.06,0.05,0.12,0.1,0.17,0.15c0.06,0.05,0.11,0.11,0.16,0.17
			c0.05,0.05,0.1,0.11,0.14,0.18c0.04,0.06,0.08,0.12,0.12,0.19c0.04,0.07,0.07,0.13,0.1,0.2c0.03,0.07,0.05,0.14,0.08,0.22
			c0.02,0.07,0.04,0.14,0.05,0.22c0.01,0.04,0.02,0.08,0.03,0.12c0,0.04,0.01,0.08,0.01,0.13c0.01,0.04,0.01,0.08,0.01,0.12
			s0.01,0.09,0.01,0.13c0,0.04,0,0.08-0.01,0.12c0,0.05,0,0.09-0.01,0.13c0,0.04-0.01,0.08-0.01,0.12
			c-0.01,0.04-0.02,0.09-0.03,0.13c0,0.04-0.01,0.08-0.03,0.12c-0.01,0.04-0.02,0.08-0.03,0.12c-0.01,0.04-0.03,0.08-0.04,0.12
			c-0.02,0.04-0.03,0.08-0.05,0.11c-0.02,0.04-0.04,0.08-0.06,0.12c-0.01,0.04-0.03,0.07-0.06,0.11c-0.02,0.04-0.04,0.07-0.06,0.11
			c-0.02,0.03-0.05,0.07-0.07,0.1c-0.37,0.51-0.93,0.89-1.56,0.99c-0.52,0.09-0.92,0-1.36-0.28c-0.88,1.04-1.88,1.97-2.86,2.93
			c-1.82,1.79-3.68,3.54-5.48,5.35c0,0.87,0,1.74,0.01,2.6l9.08-5.71c1.35-0.86,2.79-1.67,4.07-2.62l0.04-14.95
			c0-2.75-0.08-5.52,0.02-8.27L195.39,81.72z M187.48,86.15c2.16-2.1,4.35-4.17,6.46-6.31c-0.52-0.3-3.32-2.13-3.73-2.19
			c-4.21,4.2-8.46,8.38-12.73,12.53c-2.61,2.53-5.28,5.05-7.76,7.71v16.37c1.25,0.91,2.59,1.7,3.91,2.5l0.09-0.04
			c0.15-1.64,0.03-3.38,0.03-5.03c0-4.04-0.08-8.1,0.06-12.13c1.87-2.13,4.1-4.03,6.13-6.01L187.48,86.15z M170.36,94.42l4.11-4.11
			c3.52-3.51,7.07-7,10.65-10.46c1.13-1.1,2.21-2.27,3.35-3.36c-1.27-0.62-2.41-1.56-3.68-2.14c-2.98,3.08-6.1,6.03-9.16,9.02
			c-2.34,2.33-4.67,4.67-6.98,7.02c-1.72,1.75-3.49,3.47-5.18,5.25l0.09,14.93c1.29,0.83,2.57,1.68,3.9,2.46l0.12,0.06
			c0.24-0.35,0.11-14.52,0.11-15.88C168.5,96.21,169.45,95.32,170.36,94.42z M168.53,87.65c4.77-4.84,9.58-9.65,14.44-14.42
			c-1.12-0.67-7.37-4.62-8.14-4.68l-13.62,8.02c-2.17,1.29-4.29,2.8-6.56,3.91l0.02,15.86c0,2.92,0.06,5.84,0.01,8.75
			c2.26,1.39,4.48,2.95,6.79,4.24v-1.43c0-4.34-0.07-8.69,0.01-13.03c0.63-0.82,1.44-1.53,2.16-2.27
			C165.26,90.94,166.89,89.29,168.53,87.65z M160.74,88.79c0.27,0.64,0.36,1.32,0.1,1.99c-0.28,0.7-0.81,1.11-1.48,1.4
			c-0.19,0.05-0.38,0.09-0.57,0.09c-0.66,0.01-1.31-0.28-1.75-0.76c-0.05-0.06-0.11-0.13-0.16-0.2c-0.05-0.06-0.09-0.13-0.14-0.21
			c-0.04-0.07-0.08-0.14-0.11-0.22c-0.04-0.07-0.07-0.15-0.1-0.23c-0.03-0.08-0.05-0.16-0.07-0.24c-0.02-0.09-0.03-0.17-0.04-0.25
			c-0.01-0.09-0.02-0.17-0.02-0.25c-0.01-0.09,0-0.17,0-0.26c0.05-0.63,0.34-1.21,0.84-1.6c0.62-0.48,1.28-0.52,2.02-0.45
			c1.2-1.42,2.59-2.72,3.9-4.04c1.17-1.17,2.3-2.44,3.57-3.5c-0.09-0.61-0.12-1.25,0.13-1.83c0.32-0.71,0.92-1.02,1.62-1.27
			c0.19-0.01,0.38-0.03,0.57-0.01c0.04,0,0.08,0,0.12,0.01c0.04,0,0.09,0.01,0.13,0.01c0.04,0.01,0.08,0.02,0.12,0.02
			c0.04,0.01,0.08,0.02,0.12,0.03c0.03,0.01,0.07,0.02,0.11,0.04c0.04,0.01,0.08,0.02,0.12,0.04c0.04,0.01,0.07,0.03,0.11,0.04
			c0.04,0.02,0.08,0.04,0.11,0.06c0.04,0.01,0.08,0.03,0.11,0.05c0.04,0.02,0.07,0.05,0.11,0.07c0.03,0.02,0.06,0.04,0.1,0.07
			c0.03,0.02,0.06,0.04,0.09,0.07c0.04,0.03,0.07,0.05,0.1,0.08c0.03,0.03,0.06,0.05,0.09,0.08c0.03,0.03,0.06,0.06,0.08,0.09
			c0.03,0.03,0.06,0.06,0.08,0.09c0.05,0.06,0.1,0.13,0.14,0.19c0.05,0.07,0.09,0.14,0.12,0.2c0.04,0.07,0.07,0.14,0.1,0.22
			c0.03,0.07,0.06,0.14,0.08,0.22c0.02,0.08,0.04,0.15,0.06,0.23c0.01,0.08,0.02,0.15,0.03,0.23c0.01,0.08,0.01,0.16,0.01,0.24
			c0,0.08,0,0.15-0.01,0.23c-0.01,0.08-0.02,0.16-0.04,0.23c-0.02,0.08-0.04,0.16-0.06,0.23c-0.03,0.07-0.06,0.15-0.09,0.22
			c-0.03,0.07-0.06,0.14-0.1,0.21c-0.04,0.07-0.09,0.13-0.13,0.2l-0.15,0.18c-0.05,0.06-0.1,0.11-0.16,0.17l-0.18,0.15
			c-0.75,0.55-1.48,0.48-2.34,0.35C165.55,83.88,163.21,86.4,160.74,88.79z"/>
		<path class="st67" d="M218.79,122.69c-1.09,0.94-2.07,2.06-3.11,3.07l-8.31,8.25c-2.72-2.75-5.55-5.41-8.21-8.22
			c0.06-3.63,0.02-7.28,0.04-10.92c-0.77,0.83-1.66,1.6-2.38,2.46c0.11,3.13,0.04,6.31,0.02,9.44c3.38,3.55,6.98,6.88,10.39,10.4
			c4.3-4.32,8.63-8.61,12.99-12.86C219.64,123.81,219.21,123.33,218.79,122.69z M153.05,117.07c-0.86-0.82-1.7-1.67-2.52-2.53
			l0.02,10.9c-1.19,1.38-2.57,2.65-3.86,3.92c-1.41,1.4-2.8,2.85-4.24,4.21c-3.7-3.63-7.33-7.33-11.08-10.91
			c-0.44,0.74-0.95,1.25-1.65,1.74l0.44,0.46c2.43,2.48,4.87,4.93,7.34,7.36c1.26,1.27,2.96,3.19,4.3,4.28
			c0.19,0.15,0.41,0.2,0.65,0.2c0.23,0,0.3,0,0.49-0.14c1.05-0.81,2.07-2.04,3.03-2.99c2.4-2.31,4.77-4.66,7.1-7.05
			C153.13,123.37,153.03,120.22,153.05,117.07z M214,53.35c-2.15-2.13-4.34-4.23-6.44-6.41c-2.25,2.13-4.42,4.33-6.63,6.51
			c-1.34,1.32-2.78,2.6-4.03,4l0.01,7.17c0,1.26,0.06,2.55-0.02,3.81c0.86,0.88,1.67,1.81,2.49,2.73c-0.11-1.46-0.04-2.97-0.04-4.44
			l0.01-8.29c1.08-1.23,2.35-2.36,3.52-3.51c1.56-1.54,3.07-3.11,4.66-4.62c3.76,3.82,7.67,7.5,11.42,11.33
			c0.54-0.68,1.05-1.18,1.84-1.57C218.48,57.86,216.25,55.59,214,53.35z M153.01,64.59l0.01-7.01c-3.45-3.61-7.08-7.04-10.55-10.62
			c-2.72,2.79-5.48,5.56-8.27,8.28c-1.64,1.62-3.24,3.32-4.98,4.85c0.74,0.41,1.35,0.85,1.89,1.5c2.47-2.38,4.92-4.78,7.35-7.2
			c1.33-1.33,2.63-2.73,4.01-4c2.68,2.68,5.34,5.38,8.05,8.03l-0.01,8.62c0,1.32-0.12,2.75,0.02,4.06c0.82-0.88,1.65-1.74,2.5-2.6
			C152.96,67.21,153.01,65.88,153.01,64.59z M190.21,77.65c-4.21,4.2-8.46,8.38-12.73,12.53c-2.61,2.53-5.28,5.05-7.76,7.71v16.37
			c1.25,0.91,2.59,1.7,3.91,2.5l0.09-0.04c0.15-1.64,0.03-3.38,0.03-5.03c0-4.04-0.08-8.1,0.06-12.13c1.87-2.13,4.1-4.03,6.13-6.01
			l7.54-7.4c2.16-2.1,4.35-4.17,6.46-6.31C193.42,79.54,190.62,77.71,190.21,77.65z M184.79,74.35c-2.98,3.08-6.1,6.03-9.16,9.02
			c-2.34,2.33-4.67,4.67-6.98,7.02c-1.72,1.75-3.49,3.47-5.18,5.25l0.09,14.93c1.29,0.83,2.57,1.68,3.9,2.46l0.12,0.06
			c0.24-0.35,0.11-14.52,0.11-15.88c0.81-1,1.76-1.89,2.67-2.79l4.11-4.11c3.52-3.51,7.07-7,10.65-10.46
			c1.13-1.1,2.21-2.27,3.35-3.36C187.2,75.87,186.06,74.93,184.79,74.35z M195.39,81.72l-0.12-0.04l0.06-0.18l-0.1-0.11
			c-3.92,3.89-7.86,7.77-11.83,11.61c-2.51,2.46-4.95,4.98-7.55,7.35c0,5.63-0.05,11.26,0.03,16.88c1.34-0.94,2.75-1.81,4.14-2.65
			c0.02-1.56,0.02-3.12,0.02-4.68c2.58-2.73,5.42-5.27,8.09-7.92c0.34-0.34,0.69-0.68,1.03-1.03c-0.16-0.62-0.13-1.16,0.2-1.73
			c0.3-0.53,0.86-1.01,1.45-1.17c0.67-0.17,1.37-0.05,1.95,0.3c0.07,0.04,0.13,0.09,0.19,0.13c0.06,0.05,0.12,0.1,0.17,0.15
			c0.06,0.05,0.11,0.11,0.16,0.17c0.05,0.05,0.1,0.11,0.14,0.18c0.04,0.06,0.08,0.12,0.12,0.19c0.04,0.07,0.07,0.13,0.1,0.2
			c0.03,0.07,0.05,0.14,0.08,0.22c0.02,0.07,0.04,0.14,0.05,0.22c0.01,0.04,0.02,0.08,0.03,0.12c0,0.04,0.01,0.08,0.01,0.13
			c0.01,0.04,0.01,0.08,0.01,0.12s0.01,0.09,0.01,0.13c0,0.04,0,0.08-0.01,0.12c0,0.05,0,0.09-0.01,0.13c0,0.04-0.01,0.08-0.01,0.12
			c-0.01,0.04-0.02,0.09-0.03,0.13c0,0.04-0.01,0.08-0.03,0.12c-0.01,0.04-0.02,0.08-0.03,0.12c-0.01,0.04-0.03,0.08-0.04,0.12
			c-0.02,0.04-0.03,0.08-0.05,0.11c-0.02,0.04-0.04,0.08-0.06,0.12c-0.01,0.04-0.03,0.07-0.06,0.11c-0.02,0.04-0.04,0.07-0.06,0.11
			c-0.02,0.03-0.05,0.07-0.07,0.1c-0.37,0.51-0.93,0.89-1.56,0.99c-0.52,0.09-0.92,0-1.36-0.28c-0.88,1.04-1.88,1.97-2.86,2.93
			c-1.82,1.79-3.68,3.54-5.48,5.35c0,0.87,0,1.74,0.01,2.6l9.08-5.71c1.35-0.86,2.79-1.67,4.07-2.62l0.04-14.95
			c0-2.75-0.08-5.52,0.02-8.27L195.39,81.72z M174.83,68.55l-13.62,8.02c-2.17,1.29-4.29,2.8-6.56,3.91l0.02,15.86
			c0,2.92,0.06,5.84,0.01,8.75c2.26,1.39,4.48,2.95,6.79,4.24v-1.43c0-4.34-0.07-8.69,0.01-13.03c0.63-0.82,1.44-1.53,2.16-2.27
			c1.62-1.66,3.25-3.31,4.89-4.95c4.77-4.84,9.58-9.65,14.44-14.42C181.85,72.56,175.6,68.61,174.83,68.55z M171.28,79.56
			c-0.01,0.08-0.02,0.16-0.04,0.23c-0.02,0.08-0.04,0.16-0.06,0.23c-0.03,0.07-0.06,0.15-0.09,0.22c-0.03,0.07-0.06,0.14-0.1,0.21
			c-0.04,0.07-0.09,0.13-0.13,0.2l-0.15,0.18c-0.05,0.06-0.1,0.11-0.16,0.17l-0.18,0.15c-0.75,0.55-1.48,0.48-2.34,0.35
			c-2.48,2.38-4.82,4.9-7.29,7.29c0.27,0.64,0.36,1.32,0.1,1.99c-0.28,0.7-0.81,1.11-1.48,1.4c-0.19,0.05-0.38,0.09-0.57,0.09
			c-0.66,0.01-1.31-0.28-1.75-0.76c-0.05-0.06-0.11-0.13-0.16-0.2c-0.05-0.06-0.09-0.13-0.14-0.21c-0.04-0.07-0.08-0.14-0.11-0.22
			c-0.04-0.07-0.07-0.15-0.1-0.23c-0.03-0.08-0.05-0.16-0.07-0.24c-0.02-0.09-0.03-0.17-0.04-0.25c-0.01-0.09-0.02-0.17-0.02-0.25
			c-0.01-0.09,0-0.17,0-0.26c0.05-0.63,0.34-1.21,0.84-1.6c0.62-0.48,1.28-0.52,2.02-0.45c1.2-1.42,2.59-2.72,3.9-4.04
			c1.17-1.17,2.3-2.44,3.57-3.5c-0.09-0.61-0.12-1.25,0.13-1.83c0.32-0.71,0.92-1.02,1.62-1.27c0.19-0.01,0.38-0.03,0.57-0.01
			c0.04,0,0.08,0,0.12,0.01c0.04,0,0.09,0.01,0.13,0.01c0.04,0.01,0.08,0.02,0.12,0.02c0.04,0.01,0.08,0.02,0.12,0.03
			c0.03,0.01,0.07,0.02,0.11,0.04c0.04,0.01,0.08,0.02,0.12,0.04c0.04,0.01,0.07,0.03,0.11,0.04c0.04,0.02,0.08,0.04,0.11,0.06
			c0.04,0.01,0.08,0.03,0.11,0.05c0.04,0.02,0.07,0.05,0.11,0.07c0.03,0.02,0.06,0.04,0.1,0.07c0.03,0.02,0.06,0.04,0.09,0.07
			c0.04,0.03,0.07,0.05,0.1,0.08c0.03,0.03,0.06,0.05,0.09,0.08c0.03,0.03,0.06,0.06,0.08,0.09c0.03,0.03,0.06,0.06,0.08,0.09
			c0.05,0.06,0.1,0.13,0.14,0.19c0.05,0.07,0.09,0.14,0.12,0.2c0.04,0.07,0.07,0.14,0.1,0.22c0.03,0.07,0.06,0.14,0.08,0.22
			c0.02,0.08,0.04,0.15,0.06,0.23c0.01,0.08,0.02,0.15,0.03,0.23c0.01,0.08,0.01,0.16,0.01,0.24
			C171.29,79.41,171.29,79.48,171.28,79.56z"/>
	</g>
</g>
</svg>
