<?xml version="1.0" encoding="utf-8"?>
<!-- Generator: Adobe Illustrator 27.8.1, SVG Export Plug-In . SVG Version: 6.00 Build 0)  -->
<svg version="1.1" xmlns="http://www.w3.org/2000/svg" xmlns:xlink="http://www.w3.org/1999/xlink" x="0px" y="0px"
	 viewBox="0 0 350 230" style="enable-background:new 0 0 350 230;" xml:space="preserve">
<style type="text/css">
	.st0{fill:#520106;}
	.st1{fill:#050030;}
	.st2{fill:#F7BBAA;}
	.st3{fill:#FFE8E3;}
	.st4{fill:#FFFDC5;}
	.st5{fill:#004C20;}
	.st6{fill:#E3F2FF;}
	.st7{fill:#162B27;}
	.st8{fill:#2D2C16;}
	.st9{fill:#FFE5C2;}
	.st10{fill:#FFFDD4;}
	.st11{fill:#E2E0BA;}
	.st12{fill:#7DFFB2;}
	.st13{fill:#750006;}
	.st14{fill:#003D42;}
	.st15{fill:#FFFAC2;}
	.st16{fill:#FAFFC7;}
	.st17{fill:#A07200;}
	.st18{fill:#770071;}
	.st19{fill:#03007C;}
	.st20{fill:#F98800;}
	.st21{fill:#002D2D;}
	.st22{fill:#544E00;}
	.st23{stroke:#C2932F;stroke-width:4;stroke-miterlimit:10;}
	.st24{fill:#C2932F;}
	.st25{fill:#BA3838;}
	.st26{fill:#F99300;}
	.st27{fill:#FF0000;}
	.st28{fill:#1B0121;}
	.st29{fill:#A37E33;}
	.st30{fill:#F7E0FC;}
	.st31{fill:#F0F2F5;}
	.st32{fill:#B0CEED;}
	.st33{fill:#DDDD00;}
	.st34{fill:#9700B7;}
	.st35{fill:#9700B7;stroke:#FF0000;stroke-width:4;stroke-miterlimit:10;}
	.st36{fill:#5E43FF;}
	.st37{fill:#004947;}
	.st38{fill:#C38A43;}
	.st39{fill:#600077;}
	.st40{fill:none;stroke:#003DFF;stroke-width:3;stroke-linecap:round;stroke-linejoin:round;stroke-miterlimit:10;}
	.st41{fill-rule:evenodd;clip-rule:evenodd;fill:#FFE267;}
	.st42{fill-rule:evenodd;clip-rule:evenodd;fill:#350034;}
	.st43{fill-rule:evenodd;clip-rule:evenodd;fill:#002800;}
	.st44{fill-rule:evenodd;clip-rule:evenodd;}
	.st45{fill-rule:evenodd;clip-rule:evenodd;fill:#332A00;}
	.st46{fill-rule:evenodd;clip-rule:evenodd;fill:#003D42;}
	.st47{fill-rule:evenodd;clip-rule:evenodd;fill:#003013;}
	.st48{fill-rule:evenodd;clip-rule:evenodd;fill:#750006;}
	.st49{fill-rule:evenodd;clip-rule:evenodd;fill:#560046;}
	.st50{fill-rule:evenodd;clip-rule:evenodd;fill:#050030;}
	.st51{fill-rule:evenodd;clip-rule:evenodd;fill:#000563;}
	.st52{fill:url(#SVGID_1_);}
	.st53{fill:url(#SVGID_00000168827262967223677990000011386351375847814023_);}
	.st54{fill:url(#SVGID_00000178925005900185036560000008827102386436129671_);}
	.st55{fill:url(#SVGID_00000109715599500747150450000015742327847099862153_);}
	.st56{fill:url(#SVGID_00000101801481970372934800000003705314101861417871_);}
	.st57{fill:url(#SVGID_00000178172256596744923440000013004581952497759114_);}
	.st58{fill:url(#SVGID_00000072971327487448173560000010674820686320888248_);}
	.st59{fill:url(#SVGID_00000078762022977159665080000013874508635521871782_);}
	.st60{fill:url(#SVGID_00000090275678052562842860000002967006085943735987_);}
	.st61{fill:url(#SVGID_00000012445238541633027100000010136517885976960924_);}
	.st62{fill:url(#SVGID_00000080889121305247228220000003862835467490962566_);}
	.st63{fill:url(#SVGID_00000159470643530453137860000008985031060431773858_);}
	.st64{fill:url(#SVGID_00000021118165274147081430000014500620909518420145_);}
	.st65{fill:url(#SVGID_00000011709552933704376250000012700521266991090317_);}
	
		.st66{fill:url(#SVGID_00000039116491432556361880000010278977710914837646_);stroke:url(#SVGID_00000075135491940924133990000005837133499302161560_);stroke-width:0.5;stroke-miterlimit:10;}
	
		.st67{fill-rule:evenodd;clip-rule:evenodd;fill:url(#SVGID_00000163765194407689441730000003795367852454698173_);stroke:url(#SVGID_00000128476433467741137090000008257914830669481916_);stroke-width:0.5;stroke-miterlimit:10;}
	
		.st68{fill-rule:evenodd;clip-rule:evenodd;fill:url(#SVGID_00000117651107196233910650000001659617932603172263_);stroke:url(#SVGID_00000151528731531085203350000013693788769083948982_);stroke-width:0.5;stroke-miterlimit:10;}
	.st69{fill:#151415;}
	.st70{fill:url(#SVGID_00000143591980530928668300000015409625562395527047_);}
	.st71{fill:#740077;}
	.st72{fill:#B4B2B2;}
	.st73{fill:url(#SVGID_00000012473524934982894090000003626846331771926433_);}
	.st74{fill:url(#Graphic_00000111901220948523003150000008094905905062902420_);}
	.st75{fill:url(#Graphic_00000033349829264071528370000015364017219414096297_);}
	.st76{fill:url(#Graphic_00000137122761748598324950000004739336024327573387_);}
	.st77{fill:url(#SVGID_00000127748536561133079300000012221626039776403624_);}
	.st78{fill:#172332;}
	.st79{fill:url(#SVGID_00000137838561913674158370000000192209324562079893_);}
	.st80{fill:url(#SVGID_00000013153427042545753340000000171002677425905067_);}
	
		.st81{fill:url(#SVGID_00000160149657447204572110000010834376072159113620_);stroke:url(#SVGID_00000055696012286774395770000013822792609054026886_);stroke-width:0.5;stroke-miterlimit:10;}
	.st82{fill:url(#SVGID_00000016035681248908227320000011823472314918261398_);}
	.st83{fill:#FFFFFF;}
	.st84{fill:url(#SVGID_00000017476050020918882340000001868399272078503057_);}
	.st85{clip-path:url(#SVGID_00000111175719005455891380000010867530542722863520_);}
	.st86{clip-path:url(#SVGID_00000109709024519207449090000005638554645996305338_);}
	.st87{clip-path:url(#SVGID_00000108290301832497758500000015435212937820043934_);}
	.st88{fill-rule:evenodd;clip-rule:evenodd;fill:#CCA45F;}
	.st89{clip-path:url(#SVGID_00000059993950488351774000000009380826892404918665_);}
	.st90{fill-rule:evenodd;clip-rule:evenodd;fill:#FFFFFF;}
	.st91{fill:url(#SVGID_00000080911409146178909540000007781771203405169282_);}
	.st92{fill-rule:evenodd;clip-rule:evenodd;fill:url(#SVGID_00000103241647261931259610000018211563674022703026_);}
	.st93{fill:url(#SVGID_00000089561687514883388940000012179843618779086502_);}
	.st94{fill:none;stroke:url(#hand_x5F_3_00000170277927293955142440000010106560803227693201_);stroke-miterlimit:10;}
	.st95{fill:url(#SVGID_00000096038571940610912040000011377105469901018286_);}
	.st96{fill:url(#SVGID_00000054242559563644052180000016047894923792241061_);}
	.st97{fill:url(#SVGID_00000160188266369565333270000012186105877177922704_);}
	.st98{fill:url(#SVGID_00000081624898807660425610000003045783895776194470_);}
	.st99{fill:#E0C195;}
	.st100{fill:url(#SVGID_00000135658506616511669390000001913140917118872473_);}
	.st101{fill:url(#SVGID_00000072972707509416576140000003029996729281059212_);}
	.st102{fill:url(#SVGID_00000039105195032992582030000002857028381455615162_);}
	.st103{fill:url(#SVGID_00000052071906673935300620000009084119778043961730_);}
	.st104{fill:url(#SVGID_00000074407754291929644370000017470824945679188121_);}
	.st105{fill:url(#SVGID_00000105406869124021117400000015732651765780748195_);}
	.st106{fill:url(#SVGID_00000033370026765892893450000003252035139871534000_);}
	.st107{fill:#560046;}
	.st108{fill:url(#SVGID_00000010285941143684194360000005355176075059842718_);}
	.st109{fill:url(#SVGID_00000031904417599874604020000012227435127209150629_);}
	.st110{fill:url(#SVGID_00000024000087396617838950000017948297221107429012_);}
	.st111{fill:url(#SVGID_00000100365879541691544610000007922179507376186291_);}
	.st112{fill:url(#SVGID_00000069385440343856126430000014850629747435411890_);}
</style>
<g id="Layer_1">
</g>
<g id="Layer_2">
</g>
<g id="Layer_3">
</g>
<g id="Layer_4">
</g>
<g id="Layer_5">
</g>
<g id="Layer_6">
</g>
<g id="Layer_7">
</g>
<g id="Layer_8">
</g>
<g id="Layer_9">
</g>
<g id="Layer_10">
</g>
<g id="Layer_11">
</g>
<g id="Layer_12">
</g>
<g id="Layer_13">
</g>
<g id="Layer_14">
</g>
<g id="Logo_1-15">
	<linearGradient id="SVGID_1_" gradientUnits="userSpaceOnUse" x1="119.5546" y1="81.5522" x2="230.4459" y2="81.5522">
		<stop  offset="0" style="stop-color:#A4631B"/>
		<stop  offset="0.08" style="stop-color:#D0A549"/>
		<stop  offset="0.0941" style="stop-color:#D7B254"/>
		<stop  offset="0.1724" style="stop-color:#FDF491"/>
		<stop  offset="0.2648" style="stop-color:#CAAA4D"/>
		<stop  offset="0.3625" style="stop-color:#996C22"/>
		<stop  offset="0.4718" style="stop-color:#C8A443"/>
		<stop  offset="0.5428" style="stop-color:#FBEC7A"/>
		<stop  offset="0.6498" style="stop-color:#D6B852"/>
		<stop  offset="0.7558" style="stop-color:#A47A2A"/>
		<stop  offset="0.8756" style="stop-color:#B9943E"/>
		<stop  offset="1" style="stop-color:#FFFB90"/>
	</linearGradient>
	<path class="st52" d="M174.98,130.23c-6.62,6.53-14.12,8.75-22.45,4.84c-8.44-3.97-11.7-11.13-10.36-20.6
		c-9.72,1.25-17.04-2.13-20.95-11.08c-3.6-8.24-1.15-15.44,5.12-21.77c-6.38-6.55-8.91-14.14-4.75-22.73
		c4.03-8.32,11.17-11.34,20.49-10.17c-1.07-9.28,1.84-16.5,10.31-20.59c8.52-4.12,15.96-1.38,22.79,4.45
		c7.01-6.8,14.87-8.51,23.45-3.87c7.69,4.15,10.28,11.04,9.2,19.92c9.06-1.02,16.44,1.73,20.52,10.16c4.09,8.46,1.9,16-4.68,22.7
		c6.85,7.16,9.1,15.23,3.96,24.15c-4.26,7.4-11.08,9.93-19.68,8.79c1.03,9.84-2.2,17.43-11.75,21.14
		C188.11,138.73,181.14,136.26,174.98,130.23z M174.52,65.28c-0.74,0.46-1.77,1.24-2.91,1.81c-4.4,2.22-8.85,1.51-10.98-1.69
		c-2.14-3.2-1.2-7.06,2.54-10.48c2.37-2.16,4.78-4.28,7.07-6.51c0.89-0.87,1.87-1.91,2.2-3.06c2.03-6.9-2.22-13.43-9.36-14.6
		c-10.7-1.75-18.85,6.99-16.46,17.68c0.44,1.99,1,3.96,1.62,6.37c-2.82-0.7-4.97-1.3-7.14-1.76c-9.97-2.08-18.79,6.38-16.94,16.4
		c0.76,4.1,2.55,8.34,6.74,9.47c4.35,1.17,9.11,1.13,12.41-3.43c1.87-2.58,4.13-4.92,6.43-7.13c2.6-2.51,6.18-2.89,8.88-1.31
		c2.53,1.48,3.83,4.7,2.88,8.17c-0.61,2.22-1.81,4.27-2.85,6.64c0.51,0.82,1.24,1.86,1.83,2.99c2.23,4.27,1.56,8.94-1.53,11.05
		c-3.17,2.16-7,1.3-10.5-2.41c-2.49-2.64-4.85-5.42-7.44-7.96c-2.84-2.79-10.54-2.27-13.16,0.72c-4.51,5.14-5.16,11.81-1.72,17.53
		c3.26,5.41,9.13,7.68,15.86,6.12c1.91-0.44,3.82-0.85,6.14-1.37c-0.62,2.64-1.18,4.69-1.59,6.77c-1.31,6.55,1.16,12.24,6.62,15.36
		c5.73,3.28,12.25,2.53,17.2-1.98c3.13-2.85,3.44-10.36,0.43-13.35c-2.95-2.94-6.14-5.64-9.06-8.61c-2.43-2.48-2.82-5.86-1.32-8.57
		c1.43-2.58,4.38-4,7.73-3.16c2.42,0.6,4.68,1.87,6.84,2.77c2.32-0.95,4.6-2.21,7.03-2.78c3.01-0.71,5.77,0.19,7.5,3.01
		c1.6,2.6,1.17,6.04-1.1,8.61c-0.98,1.12-2.16,2.06-3.25,3.09c-2.03,1.9-4.16,3.7-6.07,5.71c-2.94,3.1-2.51,10.57,0.63,13.38
		c4.95,4.43,11.63,5.15,17.25,1.86c5.49-3.21,7.89-9.08,6.43-15.72c-0.44-2.02-0.92-4.03-1.47-6.45c2.56,0.62,4.51,1.13,6.48,1.55
		c10.1,2.18,18.54-5.23,17.5-15.53c-0.44-4.35-2.46-8.14-6.36-10.21c-3.56-1.89-9.49-0.04-12.69,3.34c-2.28,2.4-4.36,5-6.75,7.29
		c-2.54,2.43-5.91,2.79-8.58,1.27c-2.6-1.49-3.95-4.37-3.09-7.74c0.61-2.41,1.83-4.67,2.63-6.63c-0.97-2.76-2.24-5.37-2.77-8.12
		c-0.51-2.65,0.54-5.1,3.04-6.56c2.42-1.41,4.99-1.46,7.28,0.14c1.64,1.14,3,2.7,4.42,4.14c2.03,2.05,3.91,4.25,6,6.23
		c2.97,2.81,10.39,2.32,13.1-0.74c4.43-5,5.15-11.64,1.88-17.25c-3.22-5.52-8.95-7.88-15.71-6.46c-2.01,0.42-4.01,0.88-6.45,1.42
		c0.64-2.68,1.19-4.73,1.61-6.81c2.05-10.1-6.07-18.68-16.26-17.01c-4.14,0.67-8.35,2.56-9.52,6.63c-1.18,4.14-1.34,8.87,3.09,12.2
		c2.8,2.1,5.32,4.64,7.74,7.19c2.29,2.42,2.64,5.41,1.01,8.31c-1.6,2.85-4.38,3.83-7.43,3.1C179.67,67.6,177.38,66.4,174.52,65.28z
		 M175.04,113.07c2.96-2.65,6-5.31,8.97-8.06c1.41-1.3,3.17-2.85,1.64-4.89c-1.53-2.04-3.82-1.19-5.51-0.11
		c-1.92,1.23-3.52,2.97-5.07,4.32c-1.99-1.6-3.78-3.56-6-4.61c-1.27-0.6-3.25,0.28-4.91,0.49c0.49,1.5,0.56,3.41,1.55,4.43
		C168.6,107.62,171.85,110.24,175.04,113.07z M152.48,81.77c1.61-2.41,3.44-4.72,4.72-7.31c0.44-0.88-0.12-3.05-0.9-3.53
		c-0.83-0.5-2.89-0.12-3.65,0.64c-3.22,3.2-6.16,6.69-9.13,9.98c2.82,3.2,5.35,6.4,8.27,9.18c1.08,1.03,3.08,1.08,4.66,1.58
		c0.16-1.66,0.94-3.63,0.33-4.92C155.73,85.19,153.79,83.41,152.48,81.77z M197.65,81.63c-1.45,1.8-3.42,3.59-4.47,5.81
		c-0.61,1.28,0.26,3.25,0.46,4.92c1.5-0.47,3.4-0.53,4.41-1.5c2.98-2.88,5.61-6.12,8.44-9.29c-2.79-3.12-5.48-6.44-8.54-9.38
		c-0.99-0.95-2.94-0.9-4.45-1.31c-0.22,1.49-1.07,3.3-0.52,4.4C194.13,77.58,196.03,79.51,197.65,81.63z M175.01,50.1
		c-3.1,2.75-6.28,5.28-9.06,8.18c-1.05,1.09-1.21,3.04-1.78,4.6c1.74,0.18,3.8,1.03,5.16,0.4c2.19-1.02,3.91-3.02,5.69-4.48
		c1.8,1.5,3.46,3.46,5.58,4.44c1.4,0.64,3.45-0.14,5.22-0.28c-0.54-1.57-0.67-3.55-1.71-4.64C181.32,55.41,178.14,52.88,175.01,50.1
		z M157.41,54.35c2.69-2.85,5.63-5.46,8.39-8.24c3.09-3.12,3-7.41-0.29-9.34c-3.39-1.99-6.91-1.88-10.29,0.22
		c-3.18,1.99-4.81,5.35-4.06,9.01c0.87,4.24,2,8.44,3.15,13.2C155.6,57.15,156.29,55.54,157.41,54.35z M136.64,57.8
		c-4.1-0.2-7.42,4.07-7.75,8.44c-0.27,3.55,1.33,6.95,3.88,7.79c3.27,1.07,5.67-0.35,7.91-2.75c3.44-3.68,7.13-7.13,11.04-11.02
		C146.97,59.43,141.83,58.05,136.64,57.8z M191.81,110.06c-1.38,1.6-3.13,2.89-4.69,4.34c-1.09,1.02-2.2,2.02-3.2,3.13
		c-3.13,3.46-2.09,7.81,2.24,9.55c6.61,2.66,13.86-2.87,12.69-9.88c-0.7-4.18-1.99-8.26-3.15-12.9
		C194.16,106.6,193.16,108.49,191.81,110.06z M198.88,45.69c0.8-4.37-2.04-8.44-6.41-9.85c-3.57-1.15-8.02,0.08-9.55,2.64
		c-1.54,2.59-0.66,5.67,2.52,8.71c0.46,0.44,0.97,0.84,1.41,1.3c2.97,3.1,5.93,6.22,9.05,9.5
		C196.85,54.17,198.09,49.97,198.88,45.69z M151.3,116.65c-1.15,5.62,2.6,10.5,8.26,11.04c3.32,0.32,6.76-1.12,7.7-3.45
		c1.29-3.2,0.11-5.69-2.31-7.98c-3.72-3.53-7.25-7.26-10.9-10.94C153.23,108.7,152.11,112.65,151.3,116.65z M210.18,105.3
		c6.26,1.16,11.17-3.31,10.88-9.7c-0.12-2.69-0.89-5.27-3.54-6.34c-2.8-1.13-5.29-0.32-7.47,2.02c-3.58,3.83-7.43,7.41-11.32,11.27
		C202.18,103.39,206.14,104.55,210.18,105.3z M141.81,93.28c-0.92-0.89-1.74-1.88-2.68-2.75c-3.4-3.14-7.93-2.18-9.61,2.1
		c-1.31,3.33-0.82,6.53,1.35,9.36c2.2,2.87,5.18,4.1,8.75,3.35c4.06-0.85,8.07-1.92,11.78-2.82
		C148.11,99.36,144.95,96.33,141.81,93.28z M208.19,69.87c1.15,1.11,2.18,2.37,3.42,3.36c2.61,2.06,6.44,1.43,8.11-1.33
		c1.87-3.07,1.91-6.31,0.22-9.45c-1.7-3.14-4.38-5.3-8.01-4.78c-4.67,0.66-9.25,1.98-13.37,2.9
		C201.86,63.75,205.03,66.81,208.19,69.87z M185.32,81.62c-0.8,2.59-0.92,5.99-2.68,7.82c-1.67,1.74-5.05,2.48-7.67,2.47
		c-2.63,0-6-0.75-7.67-2.5c-1.76-1.84-2.52-5.23-2.54-7.96c-0.02-2.62,0.75-5.95,2.47-7.68c1.71-1.72,5.05-2.5,7.66-2.48
		c2.72,0.03,6.12,0.8,7.93,2.57C184.52,75.53,184.54,78.92,185.32,81.62z M175.01,87.24c2.85-0.01,5.65-2.7,5.76-5.54
		c0.11-2.84-2.85-5.86-5.75-5.86c-2.98,0-5.84,2.94-5.72,5.89C169.41,84.63,172.12,87.25,175.01,87.24z"/>
</g>
</svg>
