<?xml version="1.0" encoding="utf-8"?>
<!-- Generator: Adobe Illustrator 27.8.1, SVG Export Plug-In . SVG Version: 6.00 Build 0)  -->
<svg version="1.1" xmlns="http://www.w3.org/2000/svg" xmlns:xlink="http://www.w3.org/1999/xlink" x="0px" y="0px"
	 viewBox="0 0 350 230" style="enable-background:new 0 0 350 230;" xml:space="preserve">
<style type="text/css">
	.st0{fill-rule:evenodd;clip-rule:evenodd;fill:#FFE267;}
	.st1{fill-rule:evenodd;clip-rule:evenodd;fill:#350034;}
	.st2{fill-rule:evenodd;clip-rule:evenodd;fill:#002800;}
	.st3{fill-rule:evenodd;clip-rule:evenodd;}
	.st4{fill-rule:evenodd;clip-rule:evenodd;fill:#332A00;}
	.st5{fill-rule:evenodd;clip-rule:evenodd;fill:#003D42;}
	.st6{fill-rule:evenodd;clip-rule:evenodd;fill:#003013;}
	.st7{fill-rule:evenodd;clip-rule:evenodd;fill:#750006;}
	.st8{fill-rule:evenodd;clip-rule:evenodd;fill:#560046;}
	.st9{fill-rule:evenodd;clip-rule:evenodd;fill:#050030;}
	.st10{fill-rule:evenodd;clip-rule:evenodd;fill:#000563;}
	.st11{fill:#A07200;}
	.st12{fill:#770071;}
	.st13{fill:#03007C;}
	.st14{fill:#F98800;}
	.st15{fill:#002D2D;}
	.st16{fill:#544E00;}
	.st17{stroke:#C2932F;stroke-width:4;stroke-miterlimit:10;}
	.st18{fill:#C2932F;}
	.st19{fill:#BA3838;}
	.st20{fill:#F99300;}
	.st21{fill:#FF0000;}
	.st22{fill:#1B0121;}
	.st23{fill:#A37E33;}
	.st24{fill:#F7E0FC;}
	.st25{fill:#F0F2F5;}
	.st26{fill:#B0CEED;}
	.st27{fill:#DDDD00;}
	.st28{fill:#9700B7;}
	.st29{fill:#9700B7;stroke:#FF0000;stroke-width:4;stroke-miterlimit:10;}
	.st30{fill:#5E43FF;}
	.st31{fill:#004947;}
	.st32{fill:#C38A43;}
	.st33{fill:#600077;}
	.st34{fill:none;stroke:#003DFF;stroke-width:3;stroke-linecap:round;stroke-linejoin:round;stroke-miterlimit:10;}
	.st35{fill:url(#SVGID_1_);}
	.st36{fill:url(#SVGID_00000100347248179534257510000000044468754378317237_);}
	.st37{opacity:0.15;}
	.st38{fill:#F7F6F6;}
	.st39{fill:#F8F7F8;}
	.st40{fill:#F6F5F6;}
	.st41{fill:#FDFCFC;}
	.st42{fill:#1C1D20;}
	.st43{fill:#0A090B;}
	.st44{fill:#2C2C2F;}
	.st45{fill:#FCFDFD;}
	.st46{fill:#A9A9A9;}
	.st47{fill:#B6B5B5;}
	.st48{fill:#DEDEDE;}
	.st49{fill:#252529;}
	.st50{fill:#171719;}
	.st51{fill:#030204;}
	.st52{fill:#A8A8A8;}
	.st53{fill:#CBCCCD;}
	.st54{fill:#040405;}
	.st55{fill:#707274;}
	.st56{fill:#F3F2F2;}
	.st57{fill:#131416;}
	.st58{fill:#232326;}
	.st59{fill:#ECEBEB;}
	.st60{fill:#A1A1A0;}
	.st61{fill:#E2E2E2;}
	.st62{fill:#E3E2E2;}
	.st63{fill:#E2E0E1;}
	.st64{fill:#D2D1D0;}
	.st65{fill:#B6B3B4;}
	.st66{fill:#D5D5D5;}
	.st67{fill:#DBDADC;}
	.st68{fill:#727374;}
	.st69{fill:#D0CCCC;}
	.st70{fill:#C8C6C6;}
	.st71{fill:#BDBBBB;}
	.st72{fill:#C3C1C0;}
	.st73{fill:#AFAFAD;}
	.st74{fill:#D5D4D4;}
	.st75{fill:#5E5B5C;}
	.st76{fill:#919091;}
	.st77{fill:#9A9599;}
	.st78{fill:#888484;}
	.st79{fill:#A3A2A3;}
	.st80{fill:#454447;}
	.st81{fill:#B3B2B2;}
	.st82{fill:#8D8B8C;}
	.st83{fill:#525051;}
	.st84{fill:#807F7F;}
	.st85{fill:#8B8989;}
	.st86{fill:#C1BFBD;}
	.st87{fill:#504F50;}
	.st88{fill:#656465;}
	.st89{fill:#CECDCB;}
	.st90{fill:#ACA8A7;}
	.st91{fill:#979798;}
	.st92{fill:#535252;}
	.st93{fill:#8F8F90;}
	.st94{fill:#979896;}
	.st95{fill:#E6E4E6;}
	.st96{fill:#515153;}
	.st97{fill:#4C4D4C;}
	.st98{fill:#989698;}
	.st99{fill:#59595A;}
	.st100{fill:#535353;}
	.st101{fill:#AAA8A9;}
	.st102{fill:#636263;}
	.st103{fill:#B4B3B3;}
	.st104{fill:#918D90;}
	.st105{fill:#8B8B8C;}
	.st106{fill:#7D7D7E;}
	.st107{fill:#AEAAA6;}
	.st108{fill:#8E8D8F;}
	.st109{fill:#A19FA0;}
	.st110{fill:#B4B1B2;}
	.st111{fill:#8B8A8A;}
	.st112{fill:#858384;}
	.st113{fill:#020204;}
	.st114{fill:#020103;}
	.st115{fill:#E4E3E2;}
	.st116{fill:#5E6062;}
	.st117{fill:#030305;}
	.st118{fill:#4C4D4F;}
	.st119{fill:#020203;}
	.st120{fill:#C9C9CB;}
	.st121{fill:#B8B7B8;}
	.st122{fill:#7C7977;}
	.st123{fill:#939292;}
	.st124{fill:#636364;}
	.st125{fill:#2F2F32;}
	.st126{fill:#C5C5C5;}
	.st127{fill:#474749;}
	.st128{fill:#979797;}
	.st129{fill:#737272;}
	.st130{fill:#18181B;}
	.st131{fill:#292A2C;}
	.st132{fill:#6C6E6F;}
	.st133{fill:#5C5D5E;}
	.st134{fill:url(#SVGID_00000172429864643672843670000001302494381963343243_);}
	.st135{fill:url(#SVGID_00000044898993111303072030000001245588674012414369_);}
	.st136{fill:#FCFCFC;}
	.st137{fill:url(#SVGID_00000114767337939261631700000010520432636836146873_);}
	.st138{fill:url(#SVGID_00000111901140935332083250000014942301607450022018_);}
	.st139{fill:url(#SVGID_00000041987113663251105320000013860983793135872684_);}
	.st140{fill:url(#SVGID_00000133504354000802705330000014662628765685552772_);}
	.st141{fill:url(#SVGID_00000157988069737822122760000014777346151951894929_);}
	.st142{fill:url(#SVGID_00000076578421276534259690000010727051135314454681_);}
	.st143{fill:url(#SVGID_00000049204306432855381010000000645409336629761452_);}
	.st144{fill:url(#SVGID_00000050630928386736402970000009191326597746048679_);}
	.st145{fill:url(#SVGID_00000024724699446532239300000001440311367465255585_);}
	.st146{fill:url(#SVGID_00000111169114237224977960000011563370781099935666_);}
	
		.st147{fill:url(#SVGID_00000083780676730681460080000002085944896421098130_);stroke:url(#SVGID_00000109022297025889631210000000373083096292330392_);stroke-width:0.5;stroke-miterlimit:10;}
	
		.st148{fill-rule:evenodd;clip-rule:evenodd;fill:url(#SVGID_00000005970374509482327780000002067283264169134486_);stroke:url(#SVGID_00000091000327550849258860000015443957677132915883_);stroke-width:0.5;stroke-miterlimit:10;}
	
		.st149{fill-rule:evenodd;clip-rule:evenodd;fill:url(#SVGID_00000183238051579540063310000003985440426813976738_);stroke:url(#SVGID_00000108270055050471876680000015546302182556589707_);stroke-width:0.5;stroke-miterlimit:10;}
	.st150{fill:#151415;}
	.st151{fill:url(#SVGID_00000097487711914321510950000015392759921805960866_);}
	.st152{fill:#740077;}
	.st153{fill:#B4B2B2;}
	.st154{fill:url(#SVGID_00000140695379875315686950000006254861966771571381_);}
	.st155{fill:url(#Graphic_00000074440347598437908320000011664534513466924728_);}
	.st156{fill:url(#Graphic_00000048500204271029289400000008364800868099313536_);}
	.st157{fill:url(#Graphic_00000108284354646181262650000003213843795442292395_);}
	.st158{fill:url(#SVGID_00000042719115240632557610000014319426696511698325_);}
	.st159{fill:#172332;}
	.st160{fill:url(#SVGID_00000106849643367533373220000010890165473799146680_);}
	.st161{fill:url(#SVGID_00000088125616281421774020000001979676555405263265_);}
	
		.st162{fill:url(#SVGID_00000173853997369292682340000000698641446918669221_);stroke:url(#SVGID_00000069376044911643642790000003503770602118636689_);stroke-width:0.5;stroke-miterlimit:10;}
	.st163{fill:url(#SVGID_00000070837341333223201890000000678855129031708847_);}
	.st164{fill:#FFFFFF;}
	.st165{fill:url(#SVGID_00000117653984929249260080000000227457711500207021_);}
	.st166{clip-path:url(#SVGID_00000004544928368705737780000011790887767920069800_);}
	.st167{clip-path:url(#SVGID_00000141422484863059412290000008626308258258552728_);}
	.st168{clip-path:url(#SVGID_00000061456989616118123910000006395491306598252681_);}
	.st169{fill-rule:evenodd;clip-rule:evenodd;fill:#CCA45F;}
	.st170{clip-path:url(#SVGID_00000146487675791365497010000002858562564074781579_);}
	.st171{fill-rule:evenodd;clip-rule:evenodd;fill:#FFFFFF;}
	.st172{fill:url(#SVGID_00000146477109423098076870000018331034561382150037_);}
	.st173{fill-rule:evenodd;clip-rule:evenodd;fill:url(#SVGID_00000079453931896790298140000005958562255590733496_);}
	.st174{fill:url(#SVGID_00000057857357670686707220000008048286140946322315_);}
	.st175{fill:none;stroke:url(#hand_x5F_3_00000152258203964757357090000008302098837468360864_);stroke-miterlimit:10;}
	.st176{fill:url(#SVGID_00000168810561536725003720000017605572057165363902_);}
</style>
<g id="Layer_1">
</g>
<g id="Layer_2">
</g>
<g id="Layer_3">
</g>
<g id="Layer_4">
</g>
<g id="Layer_5">
</g>
<g id="Layer_6">
</g>
<g id="Layer_7">
</g>
<g id="Layer_8">
</g>
<g id="Layer_9">
</g>
<g id="Layer_10">
</g>
<g id="Layer_11">
</g>
<g id="Layer_12">
</g>
<g id="Layer_13">
</g>
<g id="Layer_14">
</g>
<g id="Logo_1-15">
	<g>
		<radialGradient id="SVGID_1_" cx="174.689" cy="169.561" r="24.4415" gradientUnits="userSpaceOnUse">
			<stop  offset="0" style="stop-color:#B8822A"/>
			<stop  offset="0.1205" style="stop-color:#F7CA31"/>
			<stop  offset="0.2979" style="stop-color:#FAF4BA"/>
			<stop  offset="0.6308" style="stop-color:#F7CA31"/>
			<stop  offset="1" style="stop-color:#B8822A"/>
		</radialGradient>
		
			<radialGradient id="SVGID_00000044897490959241665970000015853352829880321190_" cx="174.689" cy="169.561" r="24.6624" gradientUnits="userSpaceOnUse">
			<stop  offset="0" style="stop-color:#B8822A"/>
			<stop  offset="0.1205" style="stop-color:#F7CA31"/>
			<stop  offset="0.2979" style="stop-color:#FAF4BA"/>
			<stop  offset="0.6308" style="stop-color:#F7CA31"/>
			<stop  offset="1" style="stop-color:#B8822A"/>
		</radialGradient>
		
			<path style="fill-rule:evenodd;clip-rule:evenodd;fill:url(#SVGID_1_);stroke:url(#SVGID_00000044897490959241665970000015853352829880321190_);stroke-width:0.5;stroke-miterlimit:10;" d="
			M207.75,162.83c-0.07-1.02-0.73-1.99-1.71-2.55c-1.12-0.64-2.49-0.58-3.84,0.17c-0.07,0.04-0.09,0.12-0.05,0.19
			c0.04,0.07,0.12,0.09,0.19,0.05c1.27-0.7,2.54-0.76,3.57-0.17c0.88,0.5,1.5,1.46,1.53,2.37c0.04,1.35-0.41,3.5-4.56,4.2
			c-1.24,0.21-2.43,0.15-3.55-0.08c0.02-0.19,0.01-0.39-0.01-0.59c-0.12-1.24-1.07-2.42-2.31-2.88c-1.48-0.55-3.17-0.28-4.58,0.29
			c-0.32-0.2-0.65-0.42-1-0.65c-2.23-1.45-5.3-3.36-7.88-3.66c-1.88-0.21-3.36,0.59-4.07,1.17c-0.84,0.67-1.4,1.65-1.5,2.6
			c-0.01,0.08,0.05,0.14,0.12,0.15c0.08,0.01,0.14-0.05,0.15-0.12c0.09-0.88,0.55-1.64,1.33-2.27c0.67-0.54,1.94-1.06,3.72-0.79
			c2.44,0.37,5.23,2.1,7.44,3.54c0.25,0.16,0.51,0.32,0.76,0.46c-0.28,0.15-0.54,0.3-0.78,0.46c-0.38,0.26-0.87,0.59-1.43,0.99
			c-0.13,0.09-0.26,0.18-0.39,0.27c-0.16-0.11-0.32-0.23-0.48-0.35c-4.68-3.4-8.75-2.46-10.29-0.45c-1.2,1.56-0.83,3.07-0.51,3.83
			c0.5,1.17,1.57,2.14,2.5,2.25c0.08,0.01,0.14-0.05,0.15-0.12c0.01-0.08-0.05-0.14-0.12-0.15c-0.83-0.1-1.81-0.99-2.28-2.08
			c-0.3-0.7-0.63-2.1,0.48-3.56c1.46-1.91,4.98-2.19,9.53,1.08c0.07,0.05,0.13,0.09,0.19,0.14c-0.63,0.43-1.27,0.87-1.89,1.26
			c-0.72-0.73-1.63-1.24-2.56-1.35c-1.14-0.13-1.74,0.21-2.04,0.52c-0.37,0.39-0.48,0.92-0.43,1.28c0.06,0.41,0.36,0.79,0.8,1.01
			c0.4,0.21,1.28,0.47,2.57-0.18c0.47-0.23,1.01-0.55,1.59-0.92c0.25,0.33,0.45,0.71,0.61,1.13c0.61,1.67,0.27,3.58-0.83,4.75
			c-1.94,2.06-4.93,2.53-7.27,1.14c-0.27-0.16-0.54-0.37-0.81-0.6c0.01-0.04,0.01-0.08,0.02-0.11c0.15-1.17-0.26-3.48-1.11-4.15
			c-0.26-0.2-0.55-0.25-0.84-0.14c-0.29,0.11-0.46,0.36-0.49,0.71c-0.09,0.99,0.92,2.72,2.11,3.89c-0.27,1.31-1.19,2.96-2.75,3.96
			c-0.02,0.02-0.05,0.03-0.05,0.03s-0.03-0.01-0.05-0.03c-1.56-1-2.47-2.65-2.75-3.96c1.19-1.17,2.2-2.9,2.12-3.89
			c-0.03-0.35-0.2-0.6-0.49-0.71c-0.29-0.11-0.58-0.06-0.84,0.14c-0.85,0.67-1.26,2.98-1.11,4.15c0.01,0.04,0.01,0.08,0.02,0.11
			c-0.27,0.24-0.54,0.44-0.81,0.6c-2.34,1.39-5.33,0.92-7.27-1.14c-1.11-1.17-1.44-3.08-0.83-4.75c0.15-0.42,0.36-0.8,0.61-1.13
			c0.58,0.36,1.12,0.68,1.59,0.92c1.29,0.64,2.16,0.39,2.57,0.18c0.44-0.23,0.74-0.61,0.8-1.01c0.05-0.36-0.06-0.89-0.43-1.28
			c-0.3-0.31-0.9-0.66-2.04-0.52c-0.93,0.11-1.84,0.63-2.56,1.35c-0.61-0.39-1.26-0.83-1.89-1.26c0.06-0.05,0.13-0.09,0.19-0.14
			c4.55-3.27,8.07-2.99,9.53-1.08c1.11,1.45,0.78,2.85,0.48,3.56c-0.46,1.09-1.44,1.98-2.28,2.08c-0.08,0.01-0.13,0.08-0.12,0.15
			c0.01,0.07,0.08,0.13,0.15,0.12c0.92-0.11,2-1.07,2.5-2.25c0.32-0.76,0.68-2.26-0.51-3.83c-1.54-2.01-5.61-2.95-10.29,0.45
			c-0.16,0.12-0.33,0.24-0.48,0.35c-0.13-0.09-0.26-0.18-0.39-0.27c-0.56-0.39-1.04-0.73-1.43-0.99c-0.24-0.16-0.5-0.31-0.78-0.46
			c0.26-0.15,0.52-0.3,0.76-0.46c2.21-1.44,5-3.17,7.44-3.54c1.78-0.27,3.05,0.25,3.72,0.79c0.78,0.63,1.24,1.39,1.33,2.27
			c0.01,0.08,0.08,0.13,0.15,0.12c0.08-0.01,0.13-0.07,0.12-0.15c-0.1-0.95-0.66-1.93-1.5-2.6c-0.71-0.57-2.19-1.38-4.07-1.17
			c-2.58,0.29-5.65,2.21-7.88,3.66c-0.35,0.23-0.69,0.45-1,0.65c-1.42-0.56-3.1-0.84-4.58-0.29c-1.24,0.46-2.19,1.64-2.31,2.88
			c-0.02,0.2-0.02,0.39-0.01,0.59c-1.12,0.22-2.31,0.29-3.55,0.08c-4.14-0.7-4.6-2.85-4.56-4.2c0.03-0.92,0.64-1.87,1.53-2.37
			c1.04-0.59,2.31-0.53,3.57,0.17c0.07,0.04,0.15,0.01,0.19-0.05c0.04-0.07,0.01-0.15-0.05-0.19c-1.36-0.75-2.72-0.81-3.84-0.17
			c-0.98,0.56-1.64,1.52-1.71,2.55c-0.18,2.68,1.59,4.45,4.76,5.06c1.32,0.25,2.62,0.18,3.84-0.07c0.21,0.58,0.61,1.1,1.22,1.47
			c2.57,1.59,4.75,0.9,9.63-2.56c0.64,0.44,1.3,0.89,1.94,1.29c-0.4,0.45-0.73,0.97-0.95,1.51c-0.79,1.95-0.2,4,0.98,5.24
			c2.03,2.15,5.54,2.38,7.99,0.73c0.21-0.14,0.43-0.31,0.63-0.5c0.33,1.34,1.27,3.48,2.83,4.48c0.06,0.04,0.21,0.13,0.21,0.12
			c0,0.01,0.12-0.08,0.18-0.12c1.56-1,2.5-3.14,2.83-4.48c0.21,0.19,0.42,0.36,0.63,0.5c2.45,1.65,5.96,1.42,7.99-0.73
			c1.18-1.24,1.77-3.29,0.98-5.24c-0.22-0.54-0.55-1.06-0.95-1.51c0.63-0.4,1.29-0.85,1.94-1.29c4.88,3.45,7.06,4.15,9.63,2.56
			c0.61-0.38,1.01-0.89,1.22-1.47c1.22,0.26,2.52,0.33,3.84,0.07C206.16,167.28,207.93,165.51,207.75,162.83L207.75,162.83z
			 M184.39,168.87L184.39,168.87c-1.18,0.59-1.96,0.37-2.32,0.18c-0.36-0.19-0.61-0.49-0.66-0.81c-0.03-0.22,0-0.68,0.36-1.05
			c0.37-0.39,1-0.54,1.81-0.44c0.94,0.11,1.75,0.55,2.35,1.23C185.37,168.33,184.84,168.64,184.39,168.87L184.39,168.87z
			 M165.8,166.75L165.8,166.75c0.81-0.1,1.44,0.06,1.81,0.44c0.35,0.36,0.39,0.83,0.36,1.05c-0.05,0.32-0.29,0.62-0.66,0.81
			c-0.36,0.19-1.14,0.41-2.32-0.18c-0.45-0.23-0.98-0.54-1.54-0.89C164.05,167.29,164.86,166.86,165.8,166.75L165.8,166.75z
			 M150.34,166.46L150.34,166.46c0.11-1.14,0.99-2.23,2.13-2.65c1.34-0.5,2.88-0.28,4.2,0.21c-0.12,0.07-0.24,0.15-0.35,0.21
			l-0.1,0.06c-1.45,0.87-3.49,2.12-5.88,2.67C150.33,166.8,150.32,166.63,150.34,166.46L150.34,166.46z M151.71,168.94
			L151.71,168.94c-0.54-0.31-0.93-0.72-1.15-1.19c2.44-0.58,4.58-1.87,6.02-2.72l0.3-0.18c0.21-0.13,0.46-0.26,0.72-0.41
			c0.33,0.17,0.64,0.34,0.91,0.53c0.38,0.26,0.87,0.59,1.42,0.98c0.1,0.07,0.21,0.14,0.31,0.22
			C156.14,169.09,153.95,170.2,151.71,168.94L151.71,168.94z M172.84,170.56L172.84,170.56c0.18-0.14,0.37-0.18,0.58-0.1
			c0.19,0.07,0.3,0.23,0.32,0.47c0.07,0.85-0.82,2.38-1.91,3.44C171.71,173.25,172.1,171.15,172.84,170.56L172.84,170.56z
			 M177.55,174.38L177.55,174.38c-1.09-1.07-1.98-2.59-1.91-3.44c0.02-0.25,0.13-0.4,0.32-0.47c0.2-0.08,0.39-0.04,0.58,0.1
			C177.28,171.15,177.67,173.25,177.55,174.38L177.55,174.38z M196.9,163.81L196.9,163.81c1.14,0.42,2.02,1.51,2.13,2.65
			c0.02,0.17,0.02,0.34,0,0.5c-2.39-0.54-4.43-1.8-5.88-2.67l-0.1-0.06c-0.11-0.07-0.23-0.14-0.35-0.21
			C194.03,163.53,195.56,163.31,196.9,163.81L196.9,163.81z M197.67,168.94L197.67,168.94c-2.24,1.26-4.44,0.15-8.54-2.78
			c0.11-0.07,0.21-0.15,0.31-0.22c0.56-0.39,1.04-0.73,1.42-0.98c0.27-0.18,0.58-0.36,0.91-0.53c0.26,0.15,0.51,0.29,0.72,0.41
			l0.3,0.18c1.44,0.86,3.57,2.14,6.02,2.72C198.6,168.22,198.21,168.63,197.67,168.94z"/>
		
			<radialGradient id="SVGID_00000031907200238238020240000016101073001375708319_" cx="174.689" cy="81.4855" r="73.9584" gradientUnits="userSpaceOnUse">
			<stop  offset="0" style="stop-color:#B8822A"/>
			<stop  offset="0.1205" style="stop-color:#F7CA31"/>
			<stop  offset="0.2979" style="stop-color:#FAF4BA"/>
			<stop  offset="0.6308" style="stop-color:#F7CA31"/>
			<stop  offset="1" style="stop-color:#B8822A"/>
		</radialGradient>
		
			<radialGradient id="SVGID_00000148647852976952723680000014777687596844713656_" cx="174.689" cy="81.4855" r="74.183" gradientUnits="userSpaceOnUse">
			<stop  offset="0" style="stop-color:#B8822A"/>
			<stop  offset="0.1205" style="stop-color:#F7CA31"/>
			<stop  offset="0.2979" style="stop-color:#FAF4BA"/>
			<stop  offset="0.6308" style="stop-color:#F7CA31"/>
			<stop  offset="1" style="stop-color:#B8822A"/>
		</radialGradient>
		
			<path style="fill-rule:evenodd;clip-rule:evenodd;fill:url(#SVGID_00000031907200238238020240000016101073001375708319_);stroke:url(#SVGID_00000148647852976952723680000014777687596844713656_);stroke-width:0.5;stroke-miterlimit:10;" d="
			M267.54,104.7c-1.69-0.32-3.34-0.23-4.91,0.09c-0.27-0.74-0.78-1.4-1.55-1.88c-3.28-2.03-6.07-1.14-12.29,3.27
			c-0.82-0.56-1.66-1.14-2.47-1.65c0.51-0.57,0.94-1.23,1.22-1.92c1.01-2.49,0.25-5.11-1.25-6.69c-2.59-2.75-7.07-3.04-10.2-0.93
			c-0.27,0.18-0.54,0.4-0.81,0.64c-0.42-1.71-1.62-4.44-3.61-5.72c-0.08-0.05-0.27-0.17-0.27-0.16c0-0.01-0.15,0.11-0.23,0.16
			c-1.99,1.28-3.19,4.01-3.61,5.72c-0.27-0.24-0.54-0.46-0.81-0.64c-1.17-0.79-2.53-1.24-3.92-1.35c2.29-1.39,3.47-3.54,3.28-6.33
			c-0.11-1.58-1.13-3.07-2.64-3.93c-1.73-0.98-3.84-0.89-5.93,0.26c-0.1,0.06-0.14,0.19-0.08,0.29c0.06,0.1,0.19,0.14,0.29,0.08
			c1.96-1.08,3.91-1.17,5.51-0.26c1.36,0.78,2.31,2.24,2.36,3.66c0.07,2.09-0.64,5.4-7.03,6.48c-1.92,0.32-3.75,0.23-5.48-0.12
			c0.02-0.3,0.02-0.6-0.01-0.91c-0.19-1.91-1.66-3.73-3.56-4.44c-2.28-0.85-4.88-0.43-7.07,0.44c-0.49-0.31-1.01-0.65-1.55-1
			c-0.92-0.6-1.93-1.25-3-1.89l15.4-19.27c0-0.01,0.01-0.01,0.01-0.02c0.01-0.01,0.02-0.02,0.03-0.04c0.02-0.02,0.03-0.05,0.04-0.07
			c0.01-0.02,0.02-0.04,0.03-0.06c0-0.01,0-0.02,0.01-0.02c0-0.01,0.01-0.02,0.01-0.03c0.01-0.03,0.02-0.06,0.02-0.08c0,0,0,0,0,0
			c0-0.02,0-0.04,0-0.05c0-0.02,0.01-0.05,0.01-0.07c0,0,0-0.01,0-0.01c0,0,0-0.01,0-0.01c0-0.03-0.01-0.05-0.01-0.08
			c0-0.02,0-0.04-0.01-0.06c0-0.02-0.01-0.04-0.02-0.07c0-0.01-0.01-0.02-0.01-0.03c0-0.01-0.01-0.03-0.01-0.04
			c-0.02-0.04-0.04-0.08-0.07-0.12c0,0,0,0,0-0.01c0,0,0,0,0,0c-0.01-0.01-0.02-0.02-0.02-0.03c0,0,0-0.01-0.01-0.01l-9.14-11.7
			c-0.03-0.04-0.06-0.07-0.09-0.09c0,0-0.01-0.01-0.01-0.01c-0.01-0.01-0.02-0.01-0.03-0.02c-0.01-0.01-0.03-0.02-0.04-0.03
			c-0.03-0.02-0.06-0.04-0.09-0.05c-0.01,0-0.01-0.01-0.02-0.01l-13.53-6.22c-0.01,0-0.02,0-0.02-0.01
			c-0.03-0.01-0.06-0.02-0.09-0.03c-0.02,0-0.03-0.01-0.05-0.01c-0.03-0.01-0.07-0.01-0.11-0.01c-0.01,0-0.02,0-0.04,0h-14.99
			h-14.99c-0.02,0-0.03,0-0.04,0c-0.03,0-0.06,0-0.09,0.01c-0.02,0-0.04,0.01-0.06,0.02c-0.03,0.01-0.06,0.02-0.08,0.03
			c-0.01,0-0.02,0-0.03,0.01l-13.53,6.22c-0.01,0-0.01,0.01-0.02,0.01c-0.03,0.02-0.06,0.03-0.09,0.05
			c-0.01,0.01-0.03,0.02-0.04,0.03c-0.01,0.01-0.02,0.01-0.03,0.02c0,0-0.01,0.01-0.01,0.01c-0.03,0.03-0.06,0.06-0.09,0.1
			l-9.14,11.7c0,0,0,0.01-0.01,0.01c-0.01,0.01-0.02,0.02-0.02,0.03c0,0,0,0,0,0.01c0,0.01-0.01,0.01-0.01,0.02
			c-0.03,0.04-0.05,0.09-0.07,0.14c0,0.01-0.01,0.01-0.01,0.02c0,0,0,0,0,0.01c0,0.01,0,0.02,0,0.03c-0.01,0.05-0.02,0.1-0.03,0.15
			c0,0.01,0,0.02,0,0.04c0,0.01,0,0.01,0,0.02c0,0,0,0.01,0,0.01c0,0.05,0.01,0.1,0.02,0.15c0,0.01,0.01,0.03,0.01,0.04
			c0,0.01,0.01,0.02,0.01,0.03c0,0.01,0.01,0.02,0.01,0.03c0.01,0.02,0.02,0.05,0.03,0.07c0.01,0.01,0.01,0.03,0.02,0.04
			c0.02,0.03,0.03,0.05,0.05,0.08c0,0.01,0.01,0.01,0.01,0.02l15.43,19.31c-1.04,0.63-2.04,1.26-2.94,1.85
			c-0.54,0.35-1.06,0.69-1.55,1c-2.18-0.87-4.78-1.29-7.07-0.44c-1.91,0.71-3.37,2.54-3.56,4.44c-0.03,0.3-0.03,0.61-0.01,0.91
			c-1.72,0.35-3.56,0.44-5.48,0.12c-6.39-1.08-7.1-4.4-7.03-6.48c0.05-1.41,0.99-2.88,2.36-3.66c1.6-0.91,3.56-0.82,5.51,0.26
			c0.1,0.06,0.23,0.02,0.29-0.08c0.06-0.1,0.02-0.23-0.08-0.29c-2.09-1.15-4.2-1.24-5.93-0.26c-1.51,0.86-2.53,2.35-2.64,3.93
			c-0.19,2.78,0.98,4.92,3.24,6.31c-1.66-0.03-3.33,0.43-4.74,1.38c-0.27,0.18-0.54,0.4-0.81,0.64c-0.42-1.71-1.62-4.44-3.61-5.72
			c-0.08-0.05-0.23-0.17-0.23-0.16c0-0.01-0.19,0.11-0.27,0.16c-1.99,1.28-3.19,4.01-3.61,5.72c-0.27-0.24-0.54-0.46-0.81-0.64
			c-3.12-2.11-7.6-1.81-10.2,0.93c-1.5,1.59-2.26,4.2-1.25,6.69c0.28,0.69,0.7,1.35,1.22,1.92c-0.81,0.52-1.65,1.09-2.47,1.65
			c-6.23-4.41-9.01-5.3-12.29-3.27c-0.78,0.48-1.29,1.14-1.55,1.88c-1.56-0.33-3.22-0.42-4.91-0.09c-4.05,0.78-6.31,3.04-6.07,6.46
			c0.09,1.3,0.94,2.54,2.19,3.25c1.43,0.81,3.17,0.74,4.9-0.22c0.08-0.05,0.12-0.15,0.07-0.24c-0.05-0.08-0.15-0.12-0.24-0.07
			c-1.62,0.89-3.24,0.97-4.56,0.22c-1.13-0.64-1.91-1.86-1.95-3.03c-0.06-1.73,0.53-4.47,5.82-5.37c1.59-0.27,3.11-0.19,4.53,0.1
			c-0.02,0.25-0.02,0.5,0.01,0.75c0.16,1.58,1.37,3.09,2.95,3.68c1.89,0.7,4.04,0.35,5.85-0.37c0.41,0.26,0.83,0.54,1.28,0.83
			c2.85,1.85,6.77,4.3,10.06,4.67c2.4,0.27,4.28-0.76,5.19-1.49c1.07-0.86,1.78-2.1,1.91-3.32c0.01-0.1-0.06-0.18-0.16-0.19
			c-0.1-0.01-0.18,0.06-0.19,0.16c-0.12,1.13-0.7,2.1-1.69,2.9c-0.86,0.69-2.47,1.35-4.75,1.01c-3.11-0.47-6.68-2.68-9.5-4.51
			c-0.32-0.21-0.65-0.4-0.97-0.59c0.36-0.19,0.69-0.39,0.99-0.59c0.49-0.33,1.11-0.76,1.82-1.26c0.16-0.11,0.33-0.23,0.5-0.35
			c0.2,0.15,0.41,0.29,0.62,0.45c5.97,4.34,11.17,3.14,13.14,0.57c1.53-2,1.07-3.92,0.65-4.89c-0.64-1.5-2.01-2.73-3.19-2.87
			c-0.1-0.01-0.18,0.06-0.19,0.15c-0.01,0.1,0.06,0.18,0.15,0.19c1.06,0.12,2.31,1.26,2.9,2.65c0.38,0.9,0.81,2.68-0.61,4.54
			c-1.86,2.44-6.35,2.8-12.16-1.37c-0.08-0.06-0.16-0.12-0.25-0.18c0.8-0.55,1.63-1.11,2.41-1.61c0.92,0.93,2.08,1.59,3.27,1.73
			c1.45,0.17,2.22-0.27,2.6-0.67c0.48-0.49,0.62-1.18,0.55-1.63c-0.08-0.52-0.46-1-1.02-1.29c-0.52-0.27-1.63-0.59-3.27,0.23
			c-0.6,0.3-1.29,0.71-2.03,1.17c-0.32-0.42-0.58-0.9-0.77-1.44c-0.78-2.14-0.35-4.58,1.06-6.07c2.48-2.63,6.3-3.22,9.28-1.45
			c0.34,0.2,0.69,0.47,1.03,0.77c-0.01,0.05-0.02,0.1-0.02,0.15c-0.19,1.49,0.33,4.44,1.42,5.3c0.33,0.26,0.7,0.32,1.08,0.18
			c0.37-0.14,0.59-0.45,0.63-0.9c0.11-1.26-1.18-3.47-2.7-4.96c0.35-1.67,1.52-3.77,3.5-5.05c0.03-0.02,0.07-0.04,0.07-0.04
			s0.03,0.02,0.06,0.04c1.99,1.28,3.15,3.38,3.5,5.05c-1.52,1.49-2.81,3.7-2.7,4.96c0.04,0.45,0.26,0.76,0.63,0.9
			c0.37,0.14,0.75,0.08,1.08-0.18c1.09-0.86,1.61-3.81,1.42-5.3c-0.01-0.05-0.02-0.1-0.02-0.15c0.34-0.3,0.69-0.57,1.03-0.77
			c2.98-1.77,6.8-1.18,9.28,1.45c1.41,1.49,1.84,3.93,1.06,6.07c-0.2,0.54-0.46,1.02-0.77,1.44c-0.74-0.46-1.43-0.87-2.03-1.17
			c-1.65-0.82-2.76-0.5-3.27-0.23c-0.56,0.29-0.95,0.77-1.03,1.29c-0.07,0.46,0.07,1.14,0.55,1.63c0.39,0.4,1.15,0.84,2.6,0.67
			c1.18-0.14,2.35-0.8,3.27-1.73c0.78,0.5,1.61,1.06,2.41,1.61c-0.08,0.06-0.16,0.12-0.25,0.18c-5.81,4.17-10.3,3.81-12.16,1.37
			c-1.42-1.86-0.99-3.64-0.61-4.54c0.59-1.39,1.84-2.53,2.9-2.65c0.1-0.01,0.17-0.1,0.15-0.19c-0.01-0.1-0.1-0.16-0.19-0.15
			c-1.18,0.14-2.55,1.37-3.19,2.87c-0.41,0.97-0.87,2.89,0.65,4.89c1.96,2.57,7.17,3.76,13.14-0.57c0.21-0.15,0.42-0.3,0.62-0.45
			c0.17,0.12,0.33,0.23,0.5,0.35c0.72,0.5,1.33,0.93,1.82,1.26c0.3,0.2,0.64,0.4,0.99,0.59c-0.33,0.19-0.66,0.39-0.97,0.59
			c-2.82,1.83-6.38,4.05-9.5,4.51c-2.27,0.34-3.89-0.32-4.75-1.01c-1-0.8-1.58-1.77-1.69-2.9c-0.01-0.1-0.1-0.17-0.19-0.16
			c-0.1,0.01-0.17,0.1-0.16,0.19c0.13,1.22,0.84,2.46,1.91,3.32c0.91,0.73,2.79,1.76,5.19,1.49c3.29-0.37,7.21-2.81,10.06-4.67
			c0.45-0.29,0.88-0.57,1.28-0.83c1.81,0.72,3.96,1.07,5.85,0.37c1.58-0.59,2.79-2.1,2.95-3.68c0.02-0.25,0.03-0.5,0.01-0.75
			c1.43-0.29,2.95-0.37,4.53-0.1c5.29,0.9,5.88,3.64,5.82,5.37c-0.04,1.17-0.82,2.39-1.95,3.03c-1.32,0.75-2.94,0.67-4.56-0.22
			c-0.08-0.05-0.19-0.02-0.24,0.07c-0.05,0.08-0.02,0.19,0.07,0.24c1.73,0.95,3.47,1.03,4.9,0.22c1.25-0.71,2.1-1.94,2.19-3.25
			c0.11-1.61-0.33-2.96-1.25-4.02c3.04,1.86,7.11,1.83,10.21-0.07l5.38,6.73c0.05,0.06,0.1,0.1,0.16,0.14
			c0.01,0,0.01,0.01,0.01,0.01c0.01,0.01,0.02,0.01,0.03,0.02c0.04,0.03,0.09,0.05,0.14,0.06c0.02,0.01,0.04,0.01,0.05,0.02
			c0.06,0.02,0.12,0.03,0.19,0.03c0,0,0,0,0,0c0,0,0,0,0,0c0,0,0,0,0,0c0,0,0,0,0,0c0.06,0,0.13-0.01,0.19-0.03
			c0.02,0,0.04-0.01,0.05-0.02c0.05-0.02,0.09-0.04,0.14-0.06c0.01-0.01,0.02-0.01,0.03-0.02c0.01,0,0.01-0.01,0.01-0.01
			c0.06-0.04,0.11-0.09,0.16-0.14l5.41-6.76c2.67,1.66,6.07,1.92,8.91,0.79c-0.57,0.94-0.83,2.06-0.75,3.34
			c0.09,1.3,0.94,2.54,2.19,3.25c1.43,0.81,3.17,0.74,4.9-0.22c0.08-0.05,0.12-0.15,0.07-0.24c-0.05-0.08-0.15-0.12-0.24-0.07
			c-1.62,0.89-3.24,0.97-4.56,0.22c-1.13-0.64-1.91-1.86-1.95-3.03c-0.06-1.73,0.53-4.47,5.82-5.37c1.59-0.27,3.11-0.19,4.53,0.1
			c-0.02,0.25-0.02,0.5,0.01,0.75c0.16,1.58,1.37,3.09,2.95,3.68c1.89,0.7,4.04,0.35,5.85-0.37c0.4,0.26,0.83,0.54,1.28,0.83
			c2.85,1.85,6.77,4.3,10.06,4.67c2.4,0.27,4.29-0.76,5.19-1.49c1.07-0.86,1.78-2.1,1.91-3.32c0.01-0.1-0.06-0.18-0.16-0.19
			c-0.1-0.01-0.18,0.06-0.19,0.16c-0.12,1.13-0.7,2.1-1.69,2.9c-0.86,0.69-2.47,1.35-4.75,1.01c-3.11-0.47-6.68-2.68-9.5-4.51
			c-0.32-0.21-0.65-0.4-0.97-0.59c0.36-0.19,0.69-0.39,0.99-0.59c0.49-0.33,1.11-0.76,1.82-1.26c0.16-0.11,0.33-0.23,0.5-0.35
			c0.2,0.15,0.41,0.29,0.62,0.45c5.97,4.34,11.17,3.14,13.14,0.57c1.53-2,1.07-3.92,0.65-4.89c-0.64-1.5-2.01-2.73-3.19-2.87
			c-0.1-0.01-0.18,0.06-0.19,0.15c-0.01,0.1,0.06,0.18,0.15,0.19c1.06,0.12,2.31,1.26,2.9,2.65c0.38,0.9,0.81,2.68-0.61,4.54
			c-1.87,2.44-6.35,2.8-12.16-1.37c-0.08-0.06-0.16-0.12-0.25-0.18c0.8-0.55,1.63-1.11,2.41-1.61c0.92,0.93,2.08,1.59,3.27,1.73
			c1.45,0.17,2.22-0.27,2.6-0.67c0.48-0.49,0.62-1.18,0.55-1.63c-0.08-0.52-0.46-1-1.03-1.29c-0.52-0.27-1.63-0.59-3.27,0.23
			c-0.6,0.3-1.29,0.71-2.03,1.17c-0.32-0.42-0.58-0.9-0.77-1.44c-0.78-2.14-0.35-4.58,1.06-6.07c2.48-2.63,6.3-3.22,9.28-1.45
			c0.34,0.2,0.69,0.47,1.03,0.77c-0.01,0.05-0.02,0.1-0.02,0.15c-0.19,1.49,0.33,4.44,1.42,5.3c0.33,0.26,0.7,0.32,1.08,0.18
			c0.37-0.14,0.59-0.45,0.63-0.9c0.11-1.26-1.17-3.47-2.7-4.96c0.35-1.67,1.52-3.77,3.5-5.05c0.03-0.02,0.06-0.04,0.06-0.04
			s0.04,0.02,0.07,0.04c1.99,1.28,3.15,3.38,3.5,5.05c-1.53,1.49-2.81,3.7-2.7,4.96c0.04,0.45,0.26,0.76,0.63,0.9
			c0.37,0.14,0.75,0.08,1.08-0.18c1.09-0.86,1.61-3.81,1.42-5.3c-0.01-0.05-0.02-0.1-0.02-0.15c0.34-0.3,0.69-0.57,1.03-0.77
			c2.98-1.77,6.8-1.18,9.28,1.45c1.41,1.49,1.84,3.93,1.06,6.07c-0.2,0.54-0.46,1.02-0.77,1.44c-0.74-0.46-1.43-0.87-2.03-1.17
			c-1.65-0.82-2.76-0.5-3.27-0.23c-0.56,0.29-0.95,0.77-1.02,1.29c-0.07,0.46,0.07,1.14,0.55,1.63c0.39,0.4,1.15,0.84,2.6,0.67
			c1.19-0.14,2.35-0.8,3.27-1.73c0.78,0.5,1.61,1.06,2.41,1.61c-0.08,0.06-0.16,0.12-0.25,0.18c-5.81,4.17-10.3,3.81-12.16,1.37
			c-1.42-1.86-0.99-3.64-0.61-4.54c0.59-1.39,1.84-2.53,2.9-2.65c0.1-0.01,0.17-0.1,0.15-0.19c-0.01-0.1-0.1-0.16-0.19-0.15
			c-1.18,0.14-2.55,1.37-3.19,2.87c-0.41,0.97-0.87,2.89,0.65,4.89c1.96,2.57,7.17,3.76,13.14-0.57c0.21-0.15,0.41-0.3,0.62-0.45
			c0.17,0.12,0.33,0.23,0.5,0.35c0.72,0.5,1.33,0.93,1.82,1.26c0.3,0.2,0.64,0.4,0.99,0.59c-0.33,0.19-0.66,0.39-0.97,0.59
			c-2.82,1.83-6.38,4.05-9.5,4.51c-2.27,0.34-3.89-0.32-4.75-1.01c-1-0.8-1.58-1.77-1.69-2.9c-0.01-0.1-0.1-0.17-0.19-0.16
			c-0.1,0.01-0.17,0.1-0.16,0.19c0.13,1.22,0.84,2.46,1.91,3.32c0.91,0.73,2.79,1.76,5.19,1.49c3.29-0.37,7.21-2.81,10.06-4.67
			c0.45-0.29,0.88-0.57,1.28-0.83c1.81,0.72,3.96,1.07,5.85,0.37c1.58-0.59,2.79-2.1,2.95-3.68c0.02-0.25,0.03-0.5,0.01-0.75
			c1.43-0.29,2.95-0.37,4.53-0.1c5.29,0.9,5.88,3.64,5.82,5.37c-0.04,1.17-0.82,2.39-1.95,3.03c-1.32,0.75-2.94,0.67-4.56-0.22
			c-0.08-0.05-0.19-0.02-0.24,0.07c-0.05,0.08-0.02,0.19,0.07,0.24c1.73,0.95,3.47,1.03,4.9,0.22c1.25-0.71,2.1-1.94,2.19-3.25
			C273.84,107.74,271.59,105.48,267.54,104.7z M89.61,109.91c-1.46-0.54-2.58-1.93-2.72-3.38c-0.02-0.22-0.02-0.43,0-0.64
			c3.05,0.69,5.65,2.3,7.5,3.4l0.13,0.08c0.14,0.08,0.29,0.18,0.45,0.27C93.28,110.27,91.32,110.55,89.61,109.91z M99.13,107.19
			c-0.71,0.5-1.33,0.93-1.82,1.25c-0.35,0.23-0.74,0.46-1.16,0.67c-0.34-0.19-0.65-0.37-0.92-0.53l-0.39-0.23
			c-1.84-1.09-4.56-2.74-7.68-3.48c0.28-0.6,0.77-1.12,1.47-1.51c2.86-1.61,5.67-0.2,10.9,3.55
			C99.39,107.01,99.26,107.1,99.13,107.19z M105.58,103.46c1.51-0.75,2.5-0.47,2.96-0.23c0.46,0.24,0.78,0.63,0.84,1.04
			c0.04,0.28-0.01,0.87-0.45,1.34c-0.47,0.49-1.27,0.69-2.31,0.57c-1.2-0.14-2.23-0.7-3-1.57
			C104.33,104.14,105,103.75,105.58,103.46z M116.75,100.82c-0.03,0.31-0.16,0.51-0.41,0.61c-0.26,0.1-0.5,0.06-0.73-0.13
			c-0.95-0.75-1.45-3.43-1.3-4.87C115.7,97.79,116.84,99.73,116.75,100.82z M120.32,101.3c-0.23,0.18-0.48,0.23-0.73,0.13
			c-0.25-0.09-0.38-0.29-0.41-0.61c-0.09-1.09,1.05-3.03,2.44-4.4C121.76,97.87,121.26,100.55,120.32,101.3z M129.31,106.16
			c-1.04,0.12-1.84-0.07-2.31-0.57c-0.45-0.47-0.5-1.06-0.45-1.34c0.06-0.41,0.38-0.8,0.84-1.04c0.46-0.24,1.45-0.52,2.96,0.23
			c0.58,0.29,1.25,0.68,1.96,1.13C131.54,105.47,130.51,106.02,129.31,106.16z M219.04,103.46c1.51-0.75,2.5-0.47,2.96-0.23
			c0.46,0.24,0.78,0.63,0.84,1.04c0.04,0.28,0,0.87-0.45,1.34c-0.47,0.49-1.27,0.69-2.31,0.57c-1.2-0.14-2.23-0.7-3-1.57
			C217.79,104.14,218.46,103.75,219.04,103.46z M209.38,88.8c1.76,0.65,3.12,2.34,3.29,4.09c0.03,0.26,0.03,0.52,0,0.77
			c-3.68-0.84-6.83-2.78-9.07-4.11l-0.15-0.09c-0.17-0.1-0.35-0.21-0.54-0.33C204.95,88.36,207.31,88.03,209.38,88.8z M202.59,90.39
			l0.47,0.28c2.22,1.32,5.51,3.31,9.28,4.2c-0.34,0.72-0.93,1.36-1.77,1.83c-3.45,1.95-6.85,0.24-13.17-4.29
			c0.16-0.11,0.32-0.22,0.48-0.33c0.86-0.6,1.61-1.12,2.2-1.52c0.42-0.28,0.89-0.56,1.4-0.81
			C201.88,89.98,202.27,90.19,202.59,90.39z M199.86,88.79c0.38,0.25,0.78,0.49,1.18,0.71c-0.43,0.23-0.84,0.47-1.2,0.71
			c-0.59,0.39-1.34,0.92-2.2,1.52c-0.2,0.14-0.4,0.28-0.6,0.42c-0.24-0.18-0.49-0.35-0.75-0.54c-0.64-0.47-1.28-0.88-1.9-1.24
			l2.68-3.35C198.04,87.61,198.98,88.21,199.86,88.79z M191.54,93.93l1.92-2.4c0.64,0.39,1.31,0.82,1.98,1.31
			c0.1,0.07,0.2,0.14,0.3,0.21c-0.97,0.67-1.97,1.34-2.91,1.94C192.43,94.59,192,94.23,191.54,93.93z M192.45,95.23
			c-0.86,0.54-1.67,1.02-2.37,1.37c-0.35,0.18-0.68,0.3-0.98,0.4l2.21-2.77C191.73,94.5,192.11,94.84,192.45,95.23z M187.5,89.15
			l-2.93,5.33l-7.82-4.51l15.05-8.68l-0.76,1.39l0,0l-0.62,1.12l0,0l-2.4,4.37h0L187.5,89.15L187.5,89.15z M162.13,88.19
			L162.13,88.19l-3.95-7.2l2.37,1.36l0,0l1.63,0.94l0,0l11.6,6.69l-3.32,1.91l-0.37,0.21v0l-4.29,2.47l-0.39-0.41l-2.74-5l0,0
			L162.13,88.19z M161.3,62.92l12.17,6.32l-16.06,8.34L161.3,62.92z M156.11,76.64l-4.85-12.26l8.54-1.6L156.11,76.64z
			 M175.08,62.57h11.21l-11.21,5.82l-11.21-5.82H175.08z M164.2,61.09l10.88-5.03l10.88,5.03h-10.88H164.2z M192.75,77.58
			l-16.06-8.34l12.17-6.32L192.75,77.58z M190.36,62.78l8.54,1.6l-4.85,12.26L190.36,62.78z M190.86,78.27h-15.78h-15.78l15.78-8.2
			L190.86,78.27z M169.2,85.63L169.2,85.63l-1.14-0.65l0,0l-2.49-1.44l0,0l-2.34-1.35h0l-4.21-2.43h16.05h16.42l-4.17,2.4l0,0
			l-2.15,1.24l0,0l-3.35,1.93l0,0l-0.94,0.54l0,0l-5.63,3.24L169.2,85.63z M189,89.51L189,89.51l0.59-1.07l0,0l2.25-4.11l0,0
			l0.62-1.14l0,0l1.82-3.32l0.36-0.21c0.19-0.11,0.31-0.29,0.35-0.49l12.23-8.31l-18.97,19.98L189,89.51z M195.48,77.04l4.9-12.38
			l10.44,1.96L195.48,77.04z M210.94,65.12l-10-1.87l2.87-7.25L210.94,65.12z M199.45,62.97l-7.84-1.47l10.57-5.42L199.45,62.97z
			 M190.07,49.12l11.83,5.43L189.32,61l-12.47-5.77L190.07,49.12z M175.08,49.05h11.61l-11.61,5.37l-11.61-5.37H175.08z
			 M160.08,49.12l13.22,6.11L160.83,61l-12.57-6.45L160.08,49.12z M158.54,61.5l-7.84,1.47l-2.72-6.89L158.54,61.5z M146.34,56
			l2.87,7.25l-10,1.87L146.34,56z M149.77,64.66l4.9,12.38l-15.34-10.42L149.77,64.66z M155.68,79.53l4.89,8.92h0l0.59,1.08l0,0
			l0.31,0.56l-18.54-19.22L155.68,79.53z M150.38,88.79c0.86-0.56,1.78-1.15,2.74-1.73l2.68,3.35c-0.61,0.35-1.22,0.76-1.84,1.21
			c-0.25,0.18-0.5,0.36-0.75,0.54c-0.2-0.14-0.4-0.28-0.6-0.42c-0.86-0.6-1.61-1.13-2.2-1.52c-0.36-0.24-0.77-0.48-1.2-0.71
			C149.59,89.28,150,89.04,150.38,88.79z M157.41,94.99c-0.95-0.61-1.95-1.28-2.91-1.94c0.1-0.07,0.2-0.14,0.3-0.21
			c0.65-0.47,1.3-0.89,1.92-1.27l1.92,2.41C158.21,94.26,157.79,94.61,157.41,94.99z M158.87,94.26l2.15,2.69
			c-0.27-0.09-0.56-0.21-0.87-0.36c-0.7-0.35-1.51-0.83-2.37-1.37C158.11,94.85,158.48,94.53,158.87,94.26z M148.76,89.75
			c0.51,0.26,0.98,0.53,1.4,0.81c0.59,0.39,1.33,0.91,2.2,1.52c0.16,0.11,0.32,0.22,0.48,0.33c-6.32,4.52-9.72,6.24-13.17,4.29
			c-0.84-0.47-1.43-1.11-1.77-1.83c3.77-0.89,7.06-2.88,9.28-4.2l0.47-0.28C147.97,90.19,148.36,89.98,148.76,89.75z M137.57,92.89
			c0.17-1.75,1.53-3.43,3.29-4.09c2.07-0.77,4.44-0.43,6.47,0.33c-0.19,0.11-0.37,0.22-0.54,0.33l-0.15,0.09
			c-2.24,1.33-5.38,3.28-9.07,4.11C137.54,93.4,137.54,93.15,137.57,92.89z M139.77,109.12c-0.42-0.21-0.81-0.44-1.16-0.67
			c-0.49-0.33-1.1-0.76-1.82-1.25c-0.13-0.09-0.26-0.18-0.4-0.28c5.23-3.74,8.04-5.16,10.9-3.55c0.69,0.39,1.18,0.92,1.47,1.51
			c-3.12,0.74-5.84,2.38-7.68,3.48l-0.39,0.23C140.43,108.75,140.11,108.93,139.77,109.12z M149.04,106.53
			c-0.14,1.45-1.26,2.84-2.72,3.38c-1.72,0.64-3.67,0.36-5.35-0.27c0.15-0.09,0.3-0.19,0.44-0.27l0.13-0.08
			c1.86-1.1,4.46-2.71,7.5-3.4C149.06,106.1,149.06,106.31,149.04,106.53z M149.18,104.79c-0.27-0.74-0.78-1.4-1.56-1.88
			c-3.28-2.03-6.07-1.14-12.29,3.27c-0.82-0.56-1.66-1.14-2.47-1.65c0.51-0.57,0.94-1.23,1.22-1.92c1.01-2.49,0.25-5.11-1.25-6.69
			c-0.25-0.26-0.51-0.5-0.79-0.72c1.84,0.27,3.65,0.15,5.36-0.21c0.32,0.89,0.94,1.69,1.88,2.27c3.96,2.45,7.33,1.38,14.86-3.95
			c0.99,0.68,2.01,1.37,2.98,2c-0.62,0.69-1.13,1.49-1.47,2.33c-1.22,3.01-0.31,6.17,1.5,8.09c0.02,0.03,0.05,0.05,0.07,0.07
			c-0.87-0.49-1.92-0.86-3.14-1.09C152.4,104.38,150.74,104.47,149.18,104.79z M157.87,104.63c-1.71-1.8-2.22-4.75-1.28-7.33
			c0.24-0.65,0.55-1.23,0.93-1.74c0.89,0.56,1.73,1.05,2.45,1.41c0.55,0.27,1.05,0.44,1.5,0.54l7.25,9.08
			C165.18,108.48,160.77,107.7,157.87,104.63z M169.97,105.76L169.97,105.76l-6.62-8.28l0,0l-0.29-0.36l0,0l-2.82-3.53l0,0
			l-0.26-0.33l0,0l-1.94-2.43l0,0l-0.91-1.14l0,0l-2.71-3.39l0,0l-0.85-1.06l0,0l-5.6-7l16.23,16.83l6.08,11.09L169.97,105.76z
			 M175.08,111.79l-3.66-6.68l0,0l-0.26-0.48l0,0l-0.45-0.83v0l-0.36-0.66l0,0l-1.94-3.54l0,0l-0.2-0.37l0,0l-1.8-3.29l8.88-5.12
			l8.59,4.95l-1.87,3.41l0,0l-0.2,0.37l0,0L175.08,111.79z M180.22,105.71L180.22,105.71l-0.35,0.43l0,0l-0.01,0.01l5.6-10.2
			l16.17-17.04l-5.02,6.28l0,0l-0.85,1.06l0,0l-2.72,3.4l0,0l-0.91,1.14l0,0l-1.95,2.44l0,0l-0.26,0.33l0,0l-2.82,3.53l0,0
			l-0.29,0.36l0,0L180.22,105.71z M181.45,106.55l7.21-9.02c0.48-0.09,1.01-0.26,1.61-0.56c0.72-0.36,1.56-0.85,2.45-1.41
			c0.38,0.51,0.7,1.09,0.93,1.74c0.94,2.58,0.42,5.53-1.28,7.33C189.45,107.72,185.01,108.49,181.45,106.55z M203.06,109.91
			c-1.46-0.54-2.58-1.93-2.72-3.38c-0.02-0.22-0.02-0.43,0-0.64c3.05,0.69,5.65,2.3,7.51,3.4l0.13,0.08
			c0.14,0.08,0.29,0.18,0.44,0.27C206.73,110.27,204.78,110.55,203.06,109.91z M212.58,107.19c-0.71,0.5-1.33,0.93-1.82,1.25
			c-0.35,0.23-0.74,0.46-1.16,0.67c-0.34-0.19-0.65-0.37-0.92-0.53l-0.39-0.23c-1.84-1.09-4.56-2.74-7.68-3.48
			c0.28-0.6,0.77-1.12,1.47-1.51c2.86-1.61,5.67-0.2,10.9,3.55C212.84,107.01,212.71,107.1,212.58,107.19z M216.55,95.91
			c-1.5,1.59-2.26,4.2-1.25,6.69c0.28,0.69,0.7,1.35,1.22,1.92c-0.81,0.52-1.65,1.09-2.47,1.65c-6.23-4.41-9.01-5.3-12.29-3.27
			c-0.78,0.48-1.29,1.14-1.56,1.88c-1.56-0.33-3.22-0.42-4.91-0.09c-0.62,0.12-1.2,0.27-1.73,0.46c1.49-1.94,2.14-4.8,1.03-7.53
			c-0.34-0.84-0.85-1.63-1.47-2.33c0.98-0.62,2-1.31,2.99-2c7.52,5.33,10.89,6.4,14.86,3.95c0.94-0.58,1.56-1.38,1.88-2.27
			c1.4,0.29,2.86,0.43,4.36,0.32C216.97,95.48,216.75,95.69,216.55,95.91z M230.2,100.82c-0.03,0.31-0.16,0.51-0.41,0.61
			c-0.26,0.1-0.5,0.06-0.73-0.13c-0.95-0.75-1.45-3.43-1.3-4.87C229.15,97.79,230.29,99.73,230.2,100.82z M233.77,101.3
			c-0.23,0.18-0.48,0.23-0.73,0.13c-0.25-0.09-0.38-0.29-0.41-0.61c-0.09-1.09,1.05-3.03,2.44-4.4
			C235.22,97.87,234.72,100.55,233.77,101.3z M242.76,106.16c-1.04,0.12-1.84-0.07-2.31-0.57c-0.45-0.47-0.5-1.06-0.45-1.34
			c0.06-0.41,0.38-0.8,0.84-1.04c0.46-0.24,1.45-0.52,2.96,0.23c0.58,0.29,1.25,0.68,1.96,1.13
			C244.99,105.47,243.96,106.02,242.76,106.16z M253.23,109.12c-0.42-0.21-0.81-0.44-1.16-0.67c-0.49-0.33-1.1-0.76-1.82-1.25
			c-0.13-0.09-0.26-0.18-0.4-0.28c5.23-3.74,8.04-5.16,10.9-3.55c0.69,0.39,1.18,0.92,1.47,1.51c-3.12,0.74-5.84,2.38-7.68,3.48
			l-0.39,0.23C253.88,108.75,253.56,108.93,253.23,109.12z M262.49,106.53c-0.14,1.45-1.26,2.84-2.72,3.38
			c-1.72,0.64-3.67,0.36-5.36-0.27c0.15-0.1,0.3-0.19,0.44-0.27l0.13-0.08c1.86-1.1,4.46-2.71,7.5-3.4
			C262.51,106.1,262.51,106.31,262.49,106.53z"/>
	</g>
</g>
</svg>
