<?xml version="1.0" encoding="utf-8"?>
<!-- Generator: Adobe Illustrator 27.8.1, SVG Export Plug-In . SVG Version: 6.00 Build 0)  -->
<svg version="1.1" xmlns="http://www.w3.org/2000/svg" xmlns:xlink="http://www.w3.org/1999/xlink" x="0px" y="0px"
	 viewBox="0 0 350 230" style="enable-background:new 0 0 350 230;" xml:space="preserve">
<style type="text/css">
	.st0{fill:#520106;}
	.st1{fill:#050030;}
	.st2{fill:#F7BBAA;}
	.st3{fill:#FFE8E3;}
	.st4{fill:#FFFDC5;}
	.st5{fill:#004C20;}
	.st6{fill:#E3F2FF;}
	.st7{fill:#162B27;}
	.st8{fill:#2D2C16;}
	.st9{fill:#FFE5C2;}
	.st10{fill:#FFFDD4;}
	.st11{fill:#E2E0BA;}
	.st12{fill:#7DFFB2;}
	.st13{fill:#750006;}
	.st14{fill:#003D42;}
	.st15{fill:#FFFAC2;}
	.st16{fill:#FAFFC7;}
	.st17{fill:#A07200;}
	.st18{fill:#770071;}
	.st19{fill:#03007C;}
	.st20{fill:#F98800;}
	.st21{fill:#002D2D;}
	.st22{fill:#544E00;}
	.st23{stroke:#C2932F;stroke-width:4;stroke-miterlimit:10;}
	.st24{fill:#C2932F;}
	.st25{fill:#BA3838;}
	.st26{fill:#F99300;}
	.st27{fill:#FF0000;}
	.st28{fill:#1B0121;}
	.st29{fill:#A37E33;}
	.st30{fill:#F7E0FC;}
	.st31{fill:#F0F2F5;}
	.st32{fill:#B0CEED;}
	.st33{fill:#DDDD00;}
	.st34{fill:#9700B7;}
	.st35{fill:#9700B7;stroke:#FF0000;stroke-width:4;stroke-miterlimit:10;}
	.st36{fill:#5E43FF;}
	.st37{fill:#004947;}
	.st38{fill:#C38A43;}
	.st39{fill:#600077;}
	.st40{fill:none;stroke:#003DFF;stroke-width:3;stroke-linecap:round;stroke-linejoin:round;stroke-miterlimit:10;}
	.st41{fill-rule:evenodd;clip-rule:evenodd;fill:#FFE267;}
	.st42{fill-rule:evenodd;clip-rule:evenodd;fill:#350034;}
	.st43{fill-rule:evenodd;clip-rule:evenodd;fill:#002800;}
	.st44{fill-rule:evenodd;clip-rule:evenodd;}
	.st45{fill-rule:evenodd;clip-rule:evenodd;fill:#332A00;}
	.st46{fill-rule:evenodd;clip-rule:evenodd;fill:#003D42;}
	.st47{fill-rule:evenodd;clip-rule:evenodd;fill:#003013;}
	.st48{fill-rule:evenodd;clip-rule:evenodd;fill:#750006;}
	.st49{fill-rule:evenodd;clip-rule:evenodd;fill:#560046;}
	.st50{fill-rule:evenodd;clip-rule:evenodd;fill:#050030;}
	.st51{fill-rule:evenodd;clip-rule:evenodd;fill:#000563;}
	.st52{fill:url(#SVGID_1_);}
	.st53{fill:url(#SVGID_00000051342384061761069580000003143610916072385470_);}
	.st54{fill:url(#SVGID_00000141423862872745560270000002189760327695712678_);}
	.st55{fill:url(#SVGID_00000093161516814068973370000004870360682217563307_);}
	.st56{fill:url(#SVGID_00000064339911227394244450000000173836247562284477_);}
	.st57{fill:url(#SVGID_00000160887424464367485040000012641955143024570026_);}
	.st58{fill:url(#SVGID_00000086655084387499487680000015617212700979861415_);}
	.st59{fill:url(#SVGID_00000169523884377798672210000011506959088564640438_);}
	.st60{fill:url(#SVGID_00000077326338216522922530000008397855894529877660_);}
	.st61{fill:url(#SVGID_00000070807647389226520720000008006546983834515643_);}
	.st62{fill:url(#SVGID_00000103232395763159324200000010575923696503609234_);}
	.st63{fill:url(#SVGID_00000045617120179956728480000014186494210329855923_);}
	.st64{fill:url(#SVGID_00000147190633471111165490000003015984899073260179_);}
	.st65{fill:url(#SVGID_00000161630339619038216570000003687483253042032297_);}
	
		.st66{fill:url(#SVGID_00000081620768829001370580000002021124027808281752_);stroke:url(#SVGID_00000122691032239875553280000000949795291180277916_);stroke-width:0.5;stroke-miterlimit:10;}
	
		.st67{fill-rule:evenodd;clip-rule:evenodd;fill:url(#SVGID_00000096773629613052066290000014245645950900457389_);stroke:url(#SVGID_00000052799151952378530890000010378662583160748971_);stroke-width:0.5;stroke-miterlimit:10;}
	
		.st68{fill-rule:evenodd;clip-rule:evenodd;fill:url(#SVGID_00000036946856659361847820000018415592345135654037_);stroke:url(#SVGID_00000163034904981901467210000011925157517834415290_);stroke-width:0.5;stroke-miterlimit:10;}
	.st69{fill:#151415;}
	.st70{fill:url(#SVGID_00000046313782681783308820000003233989494901779346_);}
	.st71{fill:#740077;}
	.st72{fill:#B4B2B2;}
	.st73{fill:url(#SVGID_00000133522976584795247610000016990077512449448075_);}
	.st74{fill:url(#Graphic_00000113314521202054121730000003519086043642749828_);}
	.st75{fill:url(#Graphic_00000059281981446409317470000018309224485143633326_);}
	.st76{fill:url(#Graphic_00000067214944725416374470000001578396413494013580_);}
	.st77{fill:url(#SVGID_00000147199402633608708260000007857966916468359081_);}
	.st78{fill:#172332;}
	.st79{fill:url(#SVGID_00000114045006402650436070000001164505656853081751_);}
	.st80{fill:url(#SVGID_00000022529077843397105430000017997075683805174684_);}
	
		.st81{fill:url(#SVGID_00000141450939404342915980000018304061679284090267_);stroke:url(#SVGID_00000160156866072491298780000007411049729664291747_);stroke-width:0.5;stroke-miterlimit:10;}
	.st82{fill:url(#SVGID_00000139988571967385951900000001374414132903233154_);}
	.st83{fill:#FFFFFF;}
	.st84{fill:url(#SVGID_00000011748614151238170990000004284796841149896118_);}
	.st85{clip-path:url(#SVGID_00000035528747722669717310000010096115380572654768_);}
	.st86{clip-path:url(#SVGID_00000163045336170844657170000009436538368680403352_);}
	.st87{clip-path:url(#SVGID_00000016073895151184663340000003953957958059646859_);}
	.st88{fill-rule:evenodd;clip-rule:evenodd;fill:#CCA45F;}
	.st89{clip-path:url(#SVGID_00000040573386050384454580000011973040343789050038_);}
	.st90{fill-rule:evenodd;clip-rule:evenodd;fill:#FFFFFF;}
	.st91{fill:url(#SVGID_00000081639846307684638000000011188379771404999299_);}
	.st92{fill-rule:evenodd;clip-rule:evenodd;fill:url(#SVGID_00000181788056427798291200000012536426825730259363_);}
	.st93{fill:url(#SVGID_00000127002364402432403270000016850761913460141702_);}
	.st94{fill:none;stroke:url(#hand_x5F_3_00000129177951661142937140000001108266474103717045_);stroke-miterlimit:10;}
	.st95{fill:url(#SVGID_00000018955604175831635470000008178002814120998045_);}
	.st96{fill:url(#SVGID_00000112601427472704149210000003647642269805820829_);}
	.st97{fill:url(#SVGID_00000111181462083355637350000010304869705888380311_);}
	.st98{fill:url(#SVGID_00000093870649620016822720000010755157283080443525_);}
	.st99{fill:#E0C195;}
	.st100{fill:url(#SVGID_00000176034030837809849670000007566497563435939241_);}
	.st101{fill:url(#SVGID_00000162348385226423638780000002001982149909783442_);}
	.st102{fill:url(#SVGID_00000145056937770255587440000002309270153895550629_);}
	.st103{fill:url(#SVGID_00000157988863272959795090000004136190577678954174_);}
	.st104{fill:url(#SVGID_00000142140216318128371610000011092199171341175741_);}
	.st105{fill:url(#SVGID_00000140718555192573061590000011649250770486283710_);}
	.st106{fill:url(#SVGID_00000119079575070196295200000016077076922069454249_);}
	.st107{fill:#560046;}
	.st108{fill:url(#SVGID_00000122680221427796050170000002369716977836867229_);}
	.st109{fill:url(#SVGID_00000090274749341082784790000002984907163095857310_);}
	.st110{fill:url(#SVGID_00000165921608954211817140000002877736208123184282_);}
	.st111{fill:url(#SVGID_00000049221063210520317640000000632353363431859635_);}
	.st112{fill:url(#SVGID_00000072976754249199117710000003687963521567156870_);}
</style>
<g id="Layer_1">
</g>
<g id="Layer_2">
</g>
<g id="Layer_3">
</g>
<g id="Layer_4">
</g>
<g id="Layer_5">
</g>
<g id="Layer_6">
</g>
<g id="Layer_7">
</g>
<g id="Layer_8">
</g>
<g id="Layer_9">
</g>
<g id="Layer_10">
</g>
<g id="Layer_11">
</g>
<g id="Layer_12">
</g>
<g id="Layer_13">
</g>
<g id="Layer_14">
</g>
<g id="Logo_1-15">
	<path class="st0" d="M135.17,93.82l-0.63,0.49c-0.43-0.08-0.92-0.77-1.22-1.09l0.7-0.5c0.03,0,0.05,0,0.08,0.01
		C134.48,92.83,134.94,93.52,135.17,93.82z M214.53,94.37l0.61,0.43c0.55-0.56,1.82-1.64,1.94-2.41c-0.17-0.16-0.31-0.22-0.52-0.3
		C215.8,92.75,215.09,93.53,214.53,94.37z M143.55,102.07c-0.57-0.48-1.18-0.9-1.8-1.33c-0.33,0.31-0.65,0.63-1.01,0.91
		c0.68,0.55,1.37,1.11,2.12,1.56C143.19,103.06,143.41,102.4,143.55,102.07z M206.02,102.3c0.3,0.32,0.57,1.02,0.9,1.2l0.1-0.05
		c0.73-0.59,1.49-1.19,2.12-1.9c-0.34-0.32-0.7-0.72-1.09-0.98C207.41,101.21,206.75,101.77,206.02,102.3z M150.92,108.36
		c0.72,0.41,2.66,1.49,3.47,1.36l0.7-1.15c-1.16-0.49-2.37-0.91-3.51-1.44C151.37,107.56,151.16,107.96,150.92,108.36z M187.1,113
		c-0.1-0.27-0.35-1.14-0.59-1.27c-1.31,0.24-2.62,0.43-3.93,0.64c0.29,0.43,0.58,0.86,0.88,1.29
		C183.87,113.85,186.53,113.15,187.1,113z M163.22,112.99c0.78,0.22,2.78,0.92,3.46,0.74l0.13-0.14c0.28-0.42,0.57-0.85,0.84-1.28
		c-1.32-0.13-2.61-0.38-3.92-0.59C163.56,112.15,163.41,112.57,163.22,112.99z M198.32,107.15c-1.04,0.47-2.1,0.92-3.1,1.46
		c0.26,0.39,0.45,0.89,0.77,1.23c0.15,0.02,0.23,0.01,0.37-0.04c1.07-0.48,2.25-0.98,3.18-1.69
		C199.24,107.82,198.75,107.2,198.32,107.15z M176.43,98.4c-0.66-0.38-1.29-0.34-2.02-0.29c-0.8,0.3-1.46,0.75-1.82,1.56
		c-0.3,0.7-0.26,1.49,0.05,2.19c0.29,0.67,0.81,1.19,1.5,1.45c0.54,0.21,1.08,0.19,1.65,0.12c0.7-0.16,1.31-0.47,1.72-1.09
		c0.39-0.58,0.49-1.31,0.34-1.99C177.67,99.56,177.13,98.8,176.43,98.4z M221.57,87.84c-0.04-0.09-0.08-0.17-0.13-0.26
		c-0.05-0.08-0.1-0.17-0.16-0.24c-0.06-0.08-0.12-0.15-0.18-0.23c-0.06-0.07-0.13-0.14-0.2-0.21c-0.07-0.07-0.15-0.13-0.22-0.19
		c-0.08-0.06-0.16-0.11-0.24-0.16c-0.08-0.05-0.17-0.1-0.26-0.14c-0.62-0.29-1.19-0.33-1.86-0.28c-0.93,0.27-1.66,0.69-2.15,1.56
		c-0.03,0.05-0.05,0.09-0.08,0.14c-0.02,0.05-0.05,0.1-0.07,0.15c-0.02,0.05-0.04,0.1-0.06,0.15c-0.02,0.05-0.04,0.1-0.05,0.15
		c-0.02,0.05-0.03,0.1-0.04,0.16c-0.01,0.05-0.03,0.1-0.04,0.16c-0.01,0.05-0.02,0.11-0.03,0.16c-0.01,0.05-0.01,0.11-0.02,0.16
		c-0.01,0.05-0.01,0.11-0.01,0.16c0,0.05,0,0.11,0,0.16c0,0.05,0,0.11,0.01,0.16c0,0.05,0.01,0.11,0.01,0.16
		c0.01,0.05,0.01,0.11,0.02,0.16c0.01,0.05,0.02,0.11,0.03,0.16c0.01,0.05,0.02,0.1,0.04,0.16c0.01,0.05,0.03,0.1,0.05,0.15
		c0.25,0.77,0.76,1.4,1.49,1.77c0.61,0.31,1.24,0.38,1.91,0.31c0.93-0.27,1.7-0.66,2.18-1.55c0.43-0.79,0.46-1.77,0.17-2.61
		C221.64,88.02,221.61,87.93,221.57,87.84z M133.83,91.03c0.02-0.05,0.05-0.1,0.07-0.15c0.02-0.05,0.04-0.1,0.06-0.15
		c0.02-0.05,0.04-0.1,0.06-0.15c0.02-0.05,0.03-0.1,0.05-0.15c0.01-0.05,0.03-0.1,0.04-0.16c0.01-0.05,0.02-0.11,0.03-0.16
		c0.01-0.05,0.02-0.11,0.03-0.16c0.01-0.05,0.01-0.11,0.02-0.16c0-0.05,0.01-0.11,0.01-0.16c0-0.05,0-0.11,0-0.16
		c0-0.05,0-0.11-0.01-0.16c0-0.05-0.01-0.11-0.01-0.16c-0.01-0.05-0.01-0.11-0.02-0.16c-0.01-0.05-0.02-0.11-0.03-0.16
		c-0.01-0.05-0.02-0.1-0.04-0.16c-0.22-0.82-0.77-1.54-1.53-1.94c-0.59-0.31-1.18-0.36-1.83-0.35c-0.91,0.2-1.69,0.75-2.18,1.54
		c-0.46,0.75-0.62,1.65-0.4,2.5c0.01,0.05,0.03,0.1,0.04,0.15c0.02,0.05,0.03,0.1,0.05,0.15c0.02,0.05,0.04,0.1,0.06,0.15
		c0.02,0.05,0.04,0.1,0.07,0.15c0.02,0.05,0.05,0.1,0.07,0.14c0.03,0.05,0.05,0.09,0.08,0.14c0.03,0.05,0.06,0.09,0.09,0.13
		c0.03,0.04,0.06,0.09,0.09,0.13c0.03,0.04,0.07,0.08,0.1,0.13c0.03,0.04,0.07,0.08,0.11,0.12c0.04,0.04,0.07,0.08,0.11,0.11
		c0.04,0.04,0.08,0.07,0.12,0.11c0.04,0.04,0.08,0.07,0.12,0.1c0.04,0.03,0.08,0.07,0.13,0.1c0.04,0.03,0.09,0.06,0.13,0.09
		c0.04,0.03,0.09,0.06,0.14,0.08c0.6,0.34,1.2,0.41,1.88,0.36c0.95-0.27,1.72-0.73,2.23-1.61C133.78,91.12,133.8,91.07,133.83,91.03
		z M161.94,109.28c-0.05-0.09-0.1-0.17-0.16-0.25s-0.12-0.16-0.19-0.23c-0.07-0.07-0.14-0.15-0.21-0.21
		c-0.07-0.07-0.15-0.13-0.23-0.19c-0.08-0.06-0.16-0.12-0.25-0.17c-0.09-0.05-0.17-0.1-0.26-0.14c-0.65-0.31-1.28-0.32-1.98-0.25
		c-0.93,0.27-1.68,0.66-2.15,1.56c-0.42,0.81-0.46,1.78-0.17,2.64c0.26,0.76,0.79,1.4,1.52,1.75c0.68,0.32,1.35,0.31,2.07,0.26
		c0.9-0.26,1.64-0.72,2.09-1.57c0.43-0.8,0.46-1.79,0.16-2.64c-0.03-0.09-0.07-0.19-0.11-0.28
		C162.04,109.45,161.99,109.36,161.94,109.28z M199.49,105.59c0.14,0.84,0.66,1.62,1.35,2.11c0.6,0.42,1.3,0.59,2.03,0.57
		c0.93-0.11,1.7-0.42,2.3-1.16c0.03-0.04,0.07-0.08,0.1-0.13c0.03-0.04,0.06-0.09,0.09-0.13s0.06-0.09,0.08-0.13
		c0.03-0.05,0.05-0.09,0.08-0.14c0.02-0.05,0.05-0.09,0.07-0.14c0.02-0.05,0.04-0.1,0.06-0.15c0.02-0.05,0.04-0.1,0.06-0.15
		c0.02-0.05,0.03-0.1,0.05-0.15c0.01-0.05,0.03-0.1,0.04-0.15c0.01-0.05,0.02-0.1,0.03-0.15c0.01-0.05,0.02-0.1,0.02-0.16
		c0.01-0.05,0.01-0.1,0.02-0.16c0-0.05,0.01-0.11,0.01-0.16c0-0.05,0-0.11,0-0.16c0-0.05,0-0.11-0.01-0.16
		c0-0.05-0.01-0.1-0.02-0.16c-0.11-0.86-0.61-1.66-1.29-2.17c-0.64-0.48-1.38-0.67-2.18-0.64c-0.95,0.15-1.75,0.52-2.34,1.32
		c-0.03,0.04-0.06,0.08-0.09,0.13c-0.03,0.04-0.06,0.09-0.08,0.13c-0.03,0.04-0.05,0.09-0.08,0.14c-0.02,0.05-0.05,0.09-0.07,0.14
		c-0.02,0.05-0.04,0.09-0.06,0.14c-0.02,0.05-0.04,0.1-0.05,0.14c-0.02,0.05-0.03,0.1-0.05,0.15c-0.01,0.05-0.03,0.1-0.04,0.15
		c-0.01,0.05-0.02,0.1-0.03,0.15c-0.01,0.05-0.02,0.1-0.03,0.15c-0.01,0.05-0.01,0.1-0.02,0.15c0,0.05-0.01,0.1-0.01,0.15
		c0,0.05,0,0.1,0,0.15c0,0.05,0,0.1,0.01,0.15c0,0.05,0.01,0.1,0.01,0.15C199.47,105.49,199.48,105.54,199.49,105.59z
		 M148.53,102.15c-0.64-0.28-1.25-0.29-1.93-0.24c-0.94,0.3-1.72,0.77-2.2,1.67c-0.42,0.77-0.43,1.65-0.17,2.47
		c0.27,0.83,0.8,1.55,1.58,1.96c0.67,0.35,1.4,0.41,2.13,0.25c0.97-0.32,1.8-0.8,2.26-1.76c0.38-0.79,0.4-1.7,0.08-2.51
		C149.95,103.19,149.34,102.49,148.53,102.15z M189.23,113.81c0.67,0.35,1.43,0.44,2.18,0.37c0.95-0.17,1.75-0.58,2.3-1.4
		c0.03-0.04,0.06-0.09,0.09-0.14c0.03-0.05,0.05-0.09,0.08-0.14c0.03-0.05,0.05-0.09,0.07-0.14c0.02-0.05,0.04-0.1,0.06-0.15
		c0.02-0.05,0.04-0.1,0.06-0.15c0.02-0.05,0.03-0.1,0.05-0.15c0.02-0.05,0.03-0.1,0.04-0.15c0.01-0.05,0.02-0.1,0.04-0.16
		c0.01-0.05,0.02-0.1,0.03-0.16c0.01-0.05,0.01-0.11,0.02-0.16c0.01-0.05,0.01-0.11,0.01-0.16c0-0.05,0-0.11,0-0.16s0-0.11,0-0.16
		c0-0.05-0.01-0.11-0.01-0.16c-0.01-0.05-0.01-0.11-0.02-0.16c-0.01-0.05-0.02-0.11-0.03-0.16c-0.01-0.05-0.02-0.1-0.03-0.16
		c-0.01-0.05-0.03-0.1-0.04-0.15c-0.02-0.05-0.03-0.1-0.05-0.15c-0.02-0.05-0.04-0.1-0.06-0.15c-0.02-0.05-0.04-0.1-0.07-0.15
		c-0.02-0.05-0.05-0.1-0.07-0.14c-0.03-0.05-0.05-0.09-0.08-0.14c-0.03-0.05-0.06-0.09-0.09-0.13c-0.03-0.04-0.06-0.09-0.09-0.13
		c-0.03-0.04-0.07-0.08-0.1-0.12c-0.03-0.04-0.07-0.08-0.11-0.12c-0.04-0.04-0.07-0.08-0.11-0.11c-0.04-0.04-0.08-0.07-0.12-0.11
		c-0.04-0.03-0.08-0.07-0.12-0.1c-0.04-0.03-0.09-0.06-0.13-0.09c-0.04-0.03-0.09-0.06-0.13-0.09c-0.71-0.44-1.48-0.55-2.29-0.46
		c-1.03,0.28-1.84,0.74-2.37,1.7c-0.42,0.76-0.58,1.7-0.33,2.54C188,112.82,188.53,113.44,189.23,113.81z M213.8,94.77
		c-0.63-0.4-1.31-0.5-2.03-0.52c-1.02,0.09-1.87,0.4-2.55,1.2c-0.6,0.7-0.92,1.65-0.81,2.57c0.01,0.06,0.02,0.12,0.03,0.17
		c0.01,0.06,0.02,0.11,0.03,0.17c0.01,0.06,0.03,0.11,0.04,0.17c0.02,0.06,0.03,0.11,0.05,0.17c0.02,0.06,0.04,0.11,0.06,0.16
		s0.04,0.11,0.07,0.16c0.02,0.05,0.05,0.11,0.07,0.16c0.03,0.05,0.05,0.1,0.08,0.15c0.03,0.05,0.06,0.1,0.09,0.15
		c0.03,0.05,0.06,0.1,0.1,0.14c0.03,0.05,0.07,0.09,0.1,0.14c0.04,0.05,0.07,0.09,0.11,0.13c0.04,0.04,0.08,0.09,0.12,0.13
		c0.04,0.04,0.08,0.08,0.12,0.12c0.04,0.04,0.09,0.08,0.13,0.12c0.04,0.04,0.09,0.07,0.14,0.11c0.08,0.06,0.16,0.12,0.25,0.17
		c0.09,0.05,0.17,0.1,0.26,0.15c0.09,0.05,0.18,0.09,0.27,0.13c0.09,0.04,0.19,0.07,0.28,0.1c0.1,0.03,0.19,0.06,0.29,0.08
		c0.1,0.02,0.2,0.04,0.3,0.05c0.1,0.01,0.2,0.02,0.3,0.03c0.1,0.01,0.2,0.01,0.3,0c1.11-0.14,1.98-0.45,2.68-1.38
		c0.57-0.77,0.75-1.7,0.58-2.63C215.09,96.15,214.6,95.27,213.8,94.77z M141.51,96.98c-0.2-0.93-0.81-1.76-1.61-2.27
		c-0.57-0.36-1.28-0.59-1.96-0.56c-1.05,0.15-1.93,0.49-2.6,1.35c-0.04,0.05-0.07,0.09-0.1,0.14c-0.03,0.05-0.07,0.1-0.1,0.15
		c-0.03,0.05-0.06,0.1-0.09,0.15c-0.03,0.05-0.06,0.1-0.08,0.16c-0.03,0.05-0.05,0.11-0.07,0.16c-0.02,0.05-0.04,0.11-0.06,0.16
		c-0.02,0.05-0.04,0.11-0.06,0.17c-0.02,0.06-0.03,0.11-0.05,0.17c-0.01,0.06-0.03,0.11-0.04,0.17c-0.01,0.06-0.02,0.11-0.03,0.17
		c-0.01,0.06-0.02,0.12-0.02,0.17c-0.01,0.06-0.01,0.12-0.01,0.17c0,0.06,0,0.12,0,0.17c0,0.06,0,0.12,0,0.17
		c0,0.06,0.01,0.12,0.01,0.17c0.01,0.06,0.01,0.12,0.02,0.17c0.14,0.95,0.63,1.81,1.41,2.37c0.7,0.5,1.51,0.68,2.36,0.65
		c1.07-0.2,1.93-0.61,2.55-1.54C141.49,98.85,141.71,97.89,141.51,96.98z M178.83,90.66c0.64-0.96,0.8-2.17,0.55-3.29
		c-0.26-1.13-0.93-2.14-1.91-2.75c-0.81-0.51-1.79-0.71-2.75-0.66c-1.24,0.18-2.3,0.74-3.06,1.75c-0.65,0.86-0.97,1.98-0.8,3.05
		c0.19,1.2,0.95,2.31,1.93,3.01c0.99,0.7,1.9,0.8,3.07,0.74C177.1,92.25,178.11,91.75,178.83,90.66z M162.29,50.28
		c11.41,2.31,28.55,1.67,38.54-4.95c1.98-1.31,4.87-3.83,5.38-6.28c0.06-0.28,0.09-0.55,0.11-0.83c0.14-2.23,0.05-4.3-0.61-6.45
		c-0.48,3.18-2.29,5.33-4.83,7.2c-8.51,6.27-25.28,7.33-35.38,5.75c-6.44-1.01-15.28-3.33-19.31-8.85
		c-1.26-1.72-1.38-2.43-1.97-4.33c-0.69,3.19-0.6,7.04,1.23,9.85C148.69,46.34,156.7,49.15,162.29,50.28z M128.47,85.74
		c0.4-0.18,0.81-0.37,1.22-0.52c-0.87-1.83-1.75-3.58-2.42-5.5c-0.07-0.22-0.15-0.44-0.22-0.66c-0.07-0.22-0.14-0.44-0.2-0.67
		c-0.07-0.22-0.13-0.45-0.19-0.67c-0.06-0.22-0.12-0.45-0.17-0.67c-0.06-0.23-0.11-0.45-0.16-0.68c-0.05-0.23-0.1-0.45-0.15-0.68
		c-0.05-0.23-0.09-0.46-0.13-0.68c-0.04-0.23-0.08-0.46-0.12-0.69c-0.04-0.23-0.07-0.46-0.1-0.69c-0.03-0.23-0.06-0.46-0.09-0.69
		c-0.03-0.23-0.05-0.46-0.07-0.69c-0.02-0.23-0.04-0.46-0.06-0.69c-0.02-0.23-0.03-0.46-0.04-0.69c-0.01-0.23-0.02-0.46-0.03-0.7
		c-0.01-0.23-0.01-0.46-0.01-0.7c0-0.23,0-0.46,0-0.7c0-0.23,0.01-0.46,0.01-0.7c0.01-0.23,0.02-0.46,0.03-0.7
		c0.01-0.23,0.03-0.46,0.04-0.7c0.02-0.23,0.04-0.46,0.06-0.69c0.02-0.23,0.05-0.46,0.07-0.69c0.03-0.23,0.06-0.46,0.09-0.69
		c0.03-0.23,0.07-0.46,0.1-0.69c0.04-0.23,0.08-0.46,0.12-0.69c0.04-0.23,0.09-0.46,0.13-0.68c0.05-0.23,0.1-0.45,0.15-0.68
		c0.05-0.23,0.1-0.45,0.16-0.68c0.06-0.23,0.11-0.45,0.17-0.67c0.06-0.22,0.12-0.45,0.19-0.67c0.07-0.22,0.13-0.44,0.2-0.67
		c0.07-0.22,0.14-0.44,0.22-0.66c0.07-0.22,0.15-0.44,0.23-0.66c0.92-2.58,2.8-6.42,4.66-8.44c-0.42,0.98-0.97,1.89-1.44,2.84
		c-0.52,1.07-0.97,2.23-1.37,3.35c-2.73,7.55-2.35,15.62,0.59,23.03c3.98,10.03,12.4,16.72,22.1,20.88c0.79,0.34,1.6,0.66,2.4,0.96
		c0.81,0.3,1.62,0.59,2.44,0.85c0.82,0.27,1.65,0.51,2.48,0.74c0.83,0.23,1.67,0.44,2.51,0.63c0.84,0.19,1.69,0.36,2.54,0.52
		c0.85,0.15,1.7,0.29,2.56,0.4c0.86,0.12,1.71,0.21,2.57,0.29c0.86,0.08,1.72,0.14,2.58,0.17c-0.84-0.77-1.26-1.82-1.32-2.95
		c-0.07-1.47,0.5-2.54,1.37-3.66c-4.01-0.18-7.95-0.52-11.9-1.28c-2.94-0.62-5.82-1.37-8.61-2.5c-0.44-0.19-0.88-0.38-1.32-0.58
		c-0.44-0.2-0.87-0.41-1.3-0.63c-0.43-0.22-0.85-0.44-1.27-0.68c-0.42-0.23-0.84-0.47-1.25-0.72c-0.41-0.25-0.82-0.51-1.22-0.77
		c-0.4-0.26-0.8-0.54-1.19-0.82c-0.39-0.28-0.78-0.57-1.16-0.86c-0.38-0.29-0.76-0.59-1.13-0.9c-0.37-0.31-0.73-0.62-1.09-0.94
		c-0.36-0.32-0.71-0.65-1.06-0.98c-0.35-0.33-0.69-0.67-1.02-1.02c-0.33-0.35-0.66-0.7-0.98-1.06c-0.32-0.36-0.63-0.72-0.94-1.09
		c-0.31-0.37-0.61-0.75-0.9-1.13c-0.29-0.38-0.58-0.77-0.86-1.16c-0.28-0.39-0.55-0.79-0.81-1.19c-3.71-5.7-5.23-13.21-3.81-19.87
		c0.69-3.26,1.84-6.23,3.49-9.13c-0.65,6.58,1.37,12.73,4.79,18.29c0.89,1.44,1.83,2.86,2.9,4.17c0.33,0.4,0.66,0.8,1,1.19
		c0.34,0.39,0.69,0.78,1.04,1.16c0.35,0.38,0.72,0.75,1.08,1.12c0.37,0.37,0.74,0.73,1.12,1.08c0.38,0.35,0.77,0.7,1.16,1.04
		c0.39,0.34,0.79,0.67,1.19,1c0.4,0.33,0.81,0.65,1.23,0.96c0.41,0.31,0.83,0.62,1.26,0.91c0.43,0.3,0.86,0.59,1.29,0.87
		c0.44,0.28,0.88,0.56,1.32,0.82c0.44,0.27,0.89,0.53,1.35,0.78c0.45,0.25,0.91,0.5,1.37,0.73c0.46,0.24,0.93,0.46,1.4,0.68
		c0.47,0.22,0.94,0.43,1.42,0.63c0.48,0.2,0.96,0.4,1.44,0.58c0.48,0.19,0.97,0.36,1.46,0.53c2.04,0.69,4.2,1.3,6.35,1.51
		c0.41,0.04,0.81,0.07,1.22,0.1c0.01-0.62,0.04-1.21,0.15-1.82c-10.45-1.27-20.29-7.29-26.73-15.54c-4.4-5.63-7.83-13.41-6.92-20.7
		c0.55-4.4,2.93-8.26,5.38-11.86c0.36-0.53,1.68-2.13,1.57-2.74c-1.58,1.21-5.13,5.34-6,7.14c-6.22,4.14-10.95,13.07-12.4,20.35
		c-1.32,6.59-0.57,13.26,2.36,19.32c0.48,1,0.96,2.03,1.57,2.95C128.33,85.55,128.4,85.64,128.47,85.74z M225.89,63.42
		c-1.1-6.7-4.39-12.77-9.04-17.66c-0.6-0.63-1.24-1.25-1.9-1.81c-0.53-0.45-1.15-0.84-1.61-1.36c-0.54-0.6-1.01-1.29-1.52-1.93
		c-1.14-1.43-3.06-3.67-4.53-4.71c-0.04-0.03-0.09-0.06-0.13-0.09c0.01,0.03,0.01,0.05,0.02,0.08c0.23,0.93,2.44,3.47,3.15,4.53
		c3.84,5.78,5.47,10.79,3.66,17.7c-0.74,2.84-1.91,5.47-3.38,8c-0.17,0.29-0.34,0.58-0.51,0.87c-0.17,0.29-0.35,0.58-0.53,0.86
		c-0.18,0.28-0.37,0.57-0.55,0.85c-0.19,0.28-0.38,0.56-0.57,0.83c-0.2,0.27-0.39,0.55-0.6,0.82c-0.2,0.27-0.41,0.54-0.62,0.8
		c-0.21,0.27-0.42,0.53-0.63,0.79c-0.21,0.26-0.43,0.52-0.65,0.77c-0.22,0.25-0.45,0.51-0.67,0.76c-0.23,0.25-0.46,0.49-0.69,0.74
		c-0.23,0.24-0.47,0.48-0.71,0.72c-0.24,0.24-0.48,0.47-0.73,0.7c-0.25,0.23-0.49,0.46-0.74,0.69c-0.25,0.23-0.5,0.45-0.76,0.67
		c-0.26,0.22-0.52,0.43-0.78,0.65c-0.26,0.21-0.53,0.42-0.79,0.63c-0.27,0.21-0.54,0.41-0.81,0.61c-0.27,0.2-0.55,0.4-0.82,0.59
		s-0.56,0.38-0.84,0.57c-0.28,0.19-0.56,0.37-0.85,0.55c-0.29,0.18-0.57,0.35-0.86,0.53s-0.58,0.34-0.88,0.5
		c-0.29,0.16-0.59,0.33-0.89,0.48c-0.3,0.16-0.6,0.31-0.9,0.46c-0.3,0.15-0.61,0.3-0.91,0.44c-0.31,0.14-0.61,0.28-0.92,0.42
		c-0.31,0.13-0.62,0.27-0.93,0.39c-0.31,0.13-0.63,0.25-0.94,0.37c-0.32,0.12-0.63,0.23-0.95,0.35c-0.32,0.11-0.64,0.22-0.96,0.32
		c-0.32,0.1-0.64,0.2-0.97,0.3c-0.32,0.1-0.65,0.19-0.97,0.28c-1.67,0.44-3.33,0.72-5.04,0.95c0.13,0.64,0.21,1.28,0.27,1.93
		c11.08-1.28,20.92-7.2,27.82-15.91c4.52-5.7,8.7-14,7.82-21.47c-0.07-0.63-0.19-1.24-0.34-1.85c3.85,7.65,5.37,15.39,2.65,23.72
		c-2.85,8.72-10.1,15.39-18.13,19.43c-0.8,0.41-1.62,0.79-2.44,1.16c-0.82,0.36-1.66,0.71-2.5,1.03c-0.84,0.32-1.69,0.62-2.55,0.9
		c-0.86,0.28-1.72,0.53-2.59,0.77c-4.23,1.05-8.33,1.64-12.7,1.6c0.92,1.16,1.61,2.15,1.44,3.72c-0.11,1.05-0.57,1.86-1.17,2.71
		c12.64-0.15,25.64-5.59,34.48-14.64c2.17-2.23,4.17-4.72,5.73-7.42c2.72-4.71,4.29-10.58,4.22-16.01
		c-0.01-0.47-0.02-0.94-0.05-1.41c-0.03-0.47-0.06-0.94-0.11-1.4c-0.05-0.47-0.1-0.93-0.17-1.4c-0.06-0.46-0.14-0.93-0.22-1.39
		s-0.18-0.92-0.28-1.38c-0.1-0.46-0.22-0.91-0.34-1.37c-0.12-0.45-0.26-0.9-0.4-1.35c-0.14-0.45-0.29-0.89-0.46-1.33
		c-0.26-0.73-0.47-1.44-0.78-2.15c-0.56-1.23-1.28-2.34-1.89-3.53c0.61,0.19,3.04,4.63,3.53,5.54c3.71,7.02,3.76,16.69,1.45,24.14
		c-0.69,2.23-1.65,4.19-2.67,6.27c0.34,0.28,0.68,0.55,0.97,0.88c0.89-1.23,1.53-2.58,2.14-3.96
		C225.94,76.39,226.92,69.72,225.89,63.42z M149.49,34.83c1.19,1.1,2.62,1.93,4.06,2.66c7.15,3.61,15.87,4.47,23.76,4.26
		c6.83-0.34,13.95-1.35,20.04-4.65c1.6-0.87,3.12-1.86,4.35-3.21c1.16-1.28,1.87-2.8,1.78-4.56c-0.1-1.87-1.28-3.55-2.64-4.75
		c-6.35-5.64-19.67-6.9-27.8-6.57c-6.62,0.17-13.46,1.12-19.46,4.05c-1.69,0.82-3.36,1.81-4.67,3.18c-1.21,1.27-2.08,2.84-2.02,4.63
		C146.95,31.91,148.03,33.49,149.49,34.83z M208.77,126.43c-0.29,0.75-0.59,1.49-0.98,2.19c-2.14,3.89-5.5,6.13-9.68,7.32
		c1.04,2.39,1.71,4.71,0.83,7.27c-0.65,1.91-2.24,3.6-4.05,4.46c-2.16,1.03-4.46,0.84-6.65,0.06c0.04,0.2,0.06,0.4,0.09,0.6
		c0.02,0.2,0.04,0.4,0.06,0.61c0.01,0.2,0.02,0.41,0.02,0.61c0,0.2,0,0.41-0.01,0.61c-0.01,0.2-0.02,0.41-0.04,0.61
		c-0.02,0.2-0.05,0.4-0.08,0.6c-0.03,0.2-0.07,0.4-0.11,0.6c-0.04,0.2-0.09,0.4-0.14,0.59c-1.62,5.92-7.01,10.55-12.17,13.49
		l-0.82,0.4c-3.24-1.83-6.21-3.94-8.76-6.68c-2.25-2.41-4.18-5.58-4.59-8.9c-0.12-0.92-0.08-1.84-0.05-2.76
		c-0.31,0.09-0.62,0.18-0.94,0.25c-2.15,0.5-4.44,0.02-6.3-1.14c-1.94-1.21-3.35-3.02-3.86-5.27c-0.5-2.23-0.02-3.9,1.17-5.79
		c-0.81-0.12-1.57-0.29-2.33-0.6c-3.74-1.53-6.4-5.32-7.89-8.92c2.59,1.05,5.45,0.81,7.82-0.68c1.14-0.72,2.16-1.65,3.25-2.44
		c2.1-1.51,4.89-2.78,7.54-2.56c2.33,0.19,3.52,1.89,4.91,3.52c-0.07-0.65-0.1-1.28-0.04-1.94c0.12-1.19,0.46-2.41,0.98-3.49
		c0.94-1.96,7.44-11.5,8.98-12.77c0.03,0,0.05,0,0.08,0c0.52,0.02,0.76,0.3,1.09,0.66c0.86,0.95,1.59,2.06,2.34,3.09
		c1.92,2.62,5.38,7.23,6.45,10.17c0.51,1.41,0.62,2.73,0.55,4.22c0.97-1.15,2.13-2.29,3.51-2.94c2.87-1.34,6.46-0.07,8.79,1.78
		c1.93,1.53,2.26,2.73,4.86,3.65C204.83,127.77,206.65,127.43,208.77,126.43z M166.88,123.7c0.11,2.21,1.04,4.44,2.69,5.93
		c0.1,0.09,0.2,0.17,0.3,0.25c0.1,0.08,0.2,0.16,0.31,0.24c0.1,0.08,0.21,0.15,0.32,0.23c0.11,0.07,0.22,0.14,0.33,0.21
		c0.11,0.07,0.22,0.13,0.34,0.2c0.11,0.06,0.23,0.12,0.35,0.18c0.12,0.06,0.24,0.11,0.35,0.17c0.12,0.05,0.24,0.1,0.36,0.15
		c0.12,0.05,0.24,0.09,0.37,0.13c0.12,0.04,0.25,0.08,0.37,0.12c0.13,0.04,0.25,0.07,0.38,0.1c0.13,0.03,0.25,0.06,0.38,0.08
		c0.13,0.02,0.26,0.05,0.39,0.07c0.13,0.02,0.26,0.03,0.39,0.05c0.13,0.01,0.26,0.02,0.39,0.03s0.26,0.01,0.39,0.01
		c2.22-0.07,4.31-0.89,5.85-2.53c1.5-1.6,2.49-3.88,2.4-6.09c-0.16-3.85-3.23-7.3-5.39-10.29c-0.97-1.35-1.86-2.81-3.01-4.01
		c-1,1.1-1.81,2.35-2.71,3.53C170.08,115.55,166.68,119.6,166.88,123.7z M201.66,130.38c-1.67-0.23-3.44-0.82-4.48-2.23
		c-0.46-0.62-0.82-1.33-1.25-1.97c-0.97-1.45-2.4-2.16-4.09-2.42c-2.41-0.38-4.43,0.38-6.55,1.46c-0.68,2.96-2.03,5.34-4.66,6.99
		c-2.47,1.55-5.33,1.88-8.14,1.21c-2.63-0.63-4.75-2.38-6.14-4.66c-0.59-0.98-0.96-1.97-1.23-3.08c-1.59-1.39-4.04-2.3-6.17-2.08
		c-0.04,0-0.08,0.01-0.13,0.02c-1.75,0.24-3.34,0.77-4.46,2.22c-0.54,0.7-0.82,1.47-1.1,2.29c-1.57,1.24-3.4,1.98-5.34,2.39
		c1.31,0.77,2.64,1.42,4.18,1.49c0.71,0.03,1.45-0.01,2.15,0.1c0.6,0.1,1.17,0.34,1.76,0.47c1.16,0.26,2.53,0.1,3.66-0.19
		c1.85-0.48,3.65-1.32,5.38-2.12c-1.51,1.22-3,2.22-4.68,3.19c-1.06,0.61-3.62,1.78-4.39,2.39c-1.04,0.82-1.83,2.24-1.96,3.56
		c-0.12,1.24,0.31,2.47,1.11,3.41c0.06,0.07,0.11,0.13,0.17,0.2c0.06,0.06,0.12,0.13,0.18,0.19c0.06,0.06,0.13,0.12,0.19,0.18
		c0.07,0.06,0.13,0.11,0.2,0.17c0.07,0.05,0.14,0.11,0.21,0.16c0.07,0.05,0.14,0.1,0.22,0.15c0.07,0.05,0.15,0.09,0.22,0.14
		c0.08,0.04,0.15,0.08,0.23,0.12c0.08,0.04,0.16,0.08,0.24,0.11s0.16,0.07,0.24,0.1c0.08,0.03,0.16,0.06,0.25,0.09
		c0.08,0.03,0.17,0.05,0.25,0.08c0.08,0.02,0.17,0.04,0.25,0.06c0.08,0.02,0.17,0.04,0.26,0.05c0.09,0.01,0.17,0.03,0.26,0.04
		c0.09,0.01,0.17,0.02,0.26,0.02c1.25,0.09,2.38-0.25,3.5-0.77c0.25-0.83,0.46-1.68,0.92-2.43c0.82-1.32,2.19-2.33,3.24-3.48
		c0.83-0.91,1.72-2.24,2.65-2.99c-2.62,3.89-2.67,5.58-3.37,10.05c-0.25,1.59-0.66,3.11-0.34,4.72c0.71,3.6,4.32,6.86,6.91,9.28
		c-0.43-1.76-0.43-3.35,0.54-4.94c0.62-1.01,1.42-2.05,2.3-2.85c1.53,1.72,3.25,3.64,3.1,6.11c-0.03,0.55-0.18,1.07-0.33,1.6
		c2.48-2.16,5-4.56,6.37-7.61c0.37-0.91,0.62-1.75,0.65-2.73c0.05-1.36-0.35-2.56-0.59-3.88c-0.38-2.12-0.46-4.12-1.32-6.15
		c-0.49-1.16-1.14-2.23-1.85-3.27c0.8,0.76,1.52,1.64,2.27,2.46c1.67,1.83,3.33,3.3,4.1,5.73c1.75,0.8,3.4,1.51,5.31,0.78
		c1.17-0.45,2.17-1.35,2.65-2.51c0.5-1.22,0.32-2.61-0.2-3.8c-1.17-2.64-3.48-3.28-5.77-4.68c-1.52-0.93-3.04-1.98-4.43-3.1
		c3.9,1.72,5.92,2.89,10.37,2.22c1.43-0.21,2.87-0.55,4.22-1.08C200.34,131.09,201,130.75,201.66,130.38z M171.01,128.85
		c1.26,0.98,2.74,1.37,4.31,1.4c1.85-0.09,3.6-0.79,4.87-2.18c1.23-1.35,1.93-3.18,1.85-5.01c-0.05-1.02-0.32-1.97-0.76-2.89
		c-0.54-1.13-1.33-2.15-2.05-3.17c-1.04-1.47-2.07-2.92-3.17-4.35c-0.31-0.4-0.61-0.9-0.97-1.24c-1.16,1.5-2.23,3.04-3.32,4.58
		c-1.81,2.58-3.77,4.85-3.37,8.22C168.62,126.01,169.58,127.74,171.01,128.85z M192.51,125.79c-0.68,0.15-1.38,0.36-1.76,1
		c-0.1,0.17-0.18,0.34-0.26,0.51c-1.21-0.05-2.43-0.11-3.64-0.04c1.12,0.29,2.19,0.72,3.32,0.96c0.13,0.53,0.29,0.97,0.6,1.42
		c0.55,0.55,1.13,1.01,1.95,1.01c0.64,0,1.25-0.3,1.69-0.75c0.49-0.49,0.78-1.16,0.75-1.86c-0.02-0.62-0.27-1.27-0.73-1.7
		C193.9,125.87,193.2,125.74,192.51,125.79z M158.29,125.76c-0.31-0.1-0.64-0.13-0.97-0.13c-0.77,0.15-1.49,0.47-1.94,1.14
		c-0.38,0.56-0.48,1.3-0.32,1.96c0.18,0.72,0.71,1.38,1.36,1.74c0.07,0.04,0.14,0.07,0.22,0.1c0.07,0.03,0.15,0.06,0.23,0.08
		c0.08,0.02,0.15,0.04,0.23,0.06c0.08,0.02,0.16,0.03,0.24,0.03c0.08,0.01,0.16,0.01,0.24,0.01c0.08,0,0.16,0,0.24-0.01
		c0.08-0.01,0.16-0.02,0.24-0.04c0.08-0.02,0.16-0.04,0.23-0.06c0.69-0.22,1.32-0.8,1.65-1.45c0.09-0.32,0.16-0.61,0.18-0.94
		c1.2-0.27,2.43-0.46,3.65-0.62c-1.27-0.27-2.54-0.24-3.83-0.28C159.54,126.61,159.11,126.02,158.29,125.76z M189.65,136.7
		l0.02,0.01c0.05,0.03,0.1,0.06,0.14,0.09L189.65,136.7z M188.94,137.53c-0.53,0.62-0.81,1.22-0.75,2.06
		c0.01,0.09,0.02,0.18,0.03,0.26c0.02,0.09,0.03,0.17,0.06,0.26c0.02,0.09,0.05,0.17,0.08,0.25c0.03,0.08,0.07,0.16,0.11,0.24
		c0.04,0.08,0.08,0.16,0.13,0.23c0.05,0.07,0.1,0.15,0.15,0.22c0.06,0.07,0.11,0.14,0.18,0.2c0.06,0.06,0.13,0.12,0.19,0.18
		c0.07,0.06,0.14,0.11,0.21,0.16c0.07,0.05,0.15,0.09,0.22,0.14c0.08,0.04,0.15,0.08,0.24,0.11c0.08,0.03,0.16,0.06,0.25,0.09
		c0.08,0.03,0.17,0.05,0.25,0.06s0.17,0.03,0.26,0.04c0.09,0.01,0.17,0.01,0.26,0.01s0.17,0,0.26-0.01c0.55-0.05,0.95-0.26,1.4-0.55
		c0.61-0.6,1-1.31,0.99-2.19c-0.01-0.7-0.29-1.33-0.8-1.81c-0.61-0.56-1.46-0.81-2.28-0.74c-0.19,0.02-0.38,0.04-0.57,0.07
		l-0.14-0.1c-0.8-0.51-1.68-0.89-2.52-1.32c-0.3-0.15-0.6-0.38-0.92-0.5C187.09,135.82,188.06,136.63,188.94,137.53z M160.59,136.95
		c-0.8-0.33-1.54-0.52-2.38-0.19c-0.73,0.28-1.33,0.89-1.63,1.61c-0.27,0.64-0.28,1.33,0,1.97c0.17,0.39,0.44,0.67,0.75,0.96
		c0.71,0.47,1.34,0.75,2.22,0.57c0.09-0.02,0.18-0.04,0.26-0.07c0.09-0.03,0.17-0.06,0.26-0.09c0.08-0.04,0.17-0.08,0.25-0.12
		c0.08-0.04,0.16-0.09,0.23-0.14c0.08-0.05,0.15-0.11,0.22-0.16c0.07-0.06,0.14-0.12,0.2-0.18c0.06-0.06,0.12-0.13,0.18-0.2
		c0.06-0.07,0.11-0.14,0.16-0.22c0.05-0.07,0.09-0.15,0.13-0.23c0.04-0.08,0.08-0.16,0.11-0.24s0.06-0.17,0.09-0.25
		c0.02-0.08,0.05-0.17,0.06-0.26c0.02-0.09,0.03-0.17,0.04-0.26c0.01-0.09,0.01-0.18,0.01-0.26c0-0.09-0.01-0.18-0.02-0.26
		c-0.01-0.09-0.02-0.17-0.04-0.26c-0.07-0.31-0.22-0.56-0.39-0.82c0.84-0.95,1.71-1.86,2.62-2.73l-0.05-0.09
		C162.78,135.63,161.58,136.19,160.59,136.95z M179.38,144.19c-0.53-1.35-1.15-2.69-1.62-4.07c-0.33-0.96-0.49-2.03-0.88-2.96
		c0.09,0.92,0.27,1.83,0.4,2.74c0.22,1.54,0.39,3.14,0.47,4.69c-0.81,0.32-1.42,0.81-1.75,1.64c-0.35,0.87-0.28,1.88,0.12,2.72
		c0.02,0.05,0.05,0.1,0.07,0.14c0.03,0.05,0.05,0.09,0.08,0.14s0.06,0.09,0.09,0.14c0.03,0.04,0.06,0.09,0.09,0.13
		c0.03,0.04,0.07,0.08,0.1,0.13c0.03,0.04,0.07,0.08,0.11,0.12c0.04,0.04,0.07,0.08,0.11,0.12c0.04,0.04,0.08,0.07,0.12,0.11
		c0.04,0.04,0.08,0.07,0.12,0.1c0.04,0.03,0.08,0.07,0.13,0.1c0.04,0.03,0.09,0.06,0.13,0.09c0.04,0.03,0.09,0.06,0.14,0.08
		s0.09,0.05,0.14,0.08c0.05,0.02,0.1,0.05,0.14,0.07c0.05,0.02,0.1,0.04,0.15,0.06c0.05,0.02,0.1,0.04,0.15,0.06
		c0.74,0.26,1.55,0.25,2.3,0.04c0.89-0.4,1.59-0.97,1.95-1.91c0.3-0.78,0.29-1.69-0.06-2.46c-0.42-0.94-1.26-1.57-2.22-1.91
		C179.77,144.31,179.58,144.24,179.38,144.19z M174.19,147.28c-0.01-0.06-0.01-0.11-0.02-0.17c-0.01-0.06-0.02-0.11-0.03-0.17
		c-0.01-0.06-0.02-0.11-0.04-0.17c-0.01-0.06-0.03-0.11-0.05-0.17c-0.02-0.05-0.03-0.11-0.05-0.16c-0.02-0.05-0.04-0.11-0.06-0.16
		c-0.02-0.05-0.05-0.11-0.07-0.16c-0.02-0.05-0.05-0.1-0.08-0.15c-0.03-0.05-0.06-0.1-0.08-0.15c-0.34-0.57-0.82-0.97-1.36-1.34
		c0.27-1.5,0.29-3.04,0.47-4.55c0.12-0.96,0.43-2.05,0.41-3c-0.28,0.95-0.5,1.92-0.81,2.86c-0.5,1.51-1.12,3-1.69,4.49
		c-1.04,0.2-1.93,0.59-2.56,1.49c-0.52,0.74-0.76,1.67-0.56,2.57c0.19,0.86,0.77,1.63,1.52,2.09c0.17,0.1,0.34,0.19,0.51,0.26
		c0.99,0.29,1.96,0.3,2.88-0.22c0.05-0.03,0.09-0.05,0.14-0.08c0.05-0.03,0.09-0.06,0.14-0.09c0.04-0.03,0.09-0.06,0.13-0.1
		c0.04-0.03,0.08-0.07,0.13-0.1c0.04-0.04,0.08-0.07,0.12-0.11c0.04-0.04,0.08-0.08,0.12-0.11c0.04-0.04,0.07-0.08,0.11-0.12
		c0.04-0.04,0.07-0.08,0.1-0.13c0.03-0.04,0.07-0.09,0.1-0.13c0.03-0.04,0.06-0.09,0.09-0.13c0.03-0.05,0.06-0.09,0.08-0.14
		c0.03-0.05,0.05-0.09,0.08-0.14c0.02-0.05,0.05-0.1,0.07-0.15c0.02-0.05,0.04-0.1,0.06-0.15c0.02-0.05,0.04-0.1,0.05-0.15
		c0.02-0.05,0.03-0.1,0.05-0.16c0.01-0.06,0.03-0.11,0.04-0.17c0.01-0.06,0.02-0.11,0.03-0.17c0.01-0.06,0.02-0.11,0.02-0.17
		c0.01-0.06,0.01-0.11,0.01-0.17c0-0.06,0-0.11,0.01-0.17c0-0.06,0-0.11,0-0.17C174.2,147.39,174.2,147.34,174.19,147.28z"/>
</g>
</svg>
