<?xml version="1.0" encoding="utf-8"?>
<!-- Generator: Adobe Illustrator 27.8.1, SVG Export Plug-In . SVG Version: 6.00 Build 0)  -->
<svg version="1.1" xmlns="http://www.w3.org/2000/svg" xmlns:xlink="http://www.w3.org/1999/xlink" x="0px" y="0px"
	 viewBox="0 0 350 230" style="enable-background:new 0 0 350 230;" xml:space="preserve">
<style type="text/css">
	.st0{fill:#520106;}
	.st1{fill:#050030;}
	.st2{fill:#F7BBAA;}
	.st3{fill:#FFE8E3;}
	.st4{fill:#FFFDC5;}
	.st5{fill:#004C20;}
	.st6{fill:#E3F2FF;}
	.st7{fill:#162B27;}
	.st8{fill:#2D2C16;}
	.st9{fill:#FFE5C2;}
	.st10{fill:#FFFDD4;}
	.st11{fill:#E2E0BA;}
	.st12{fill:#7DFFB2;}
	.st13{fill:#750006;}
	.st14{fill:#003D42;}
	.st15{fill:#FFFAC2;}
	.st16{fill:#FAFFC7;}
	.st17{fill:#A07200;}
	.st18{fill:#770071;}
	.st19{fill:#03007C;}
	.st20{fill:#F98800;}
	.st21{fill:#002D2D;}
	.st22{fill:#544E00;}
	.st23{stroke:#C2932F;stroke-width:4;stroke-miterlimit:10;}
	.st24{fill:#C2932F;}
	.st25{fill:#BA3838;}
	.st26{fill:#F99300;}
	.st27{fill:#FF0000;}
	.st28{fill:#1B0121;}
	.st29{fill:#A37E33;}
	.st30{fill:#F7E0FC;}
	.st31{fill:#F0F2F5;}
	.st32{fill:#B0CEED;}
	.st33{fill:#DDDD00;}
	.st34{fill:#9700B7;}
	.st35{fill:#9700B7;stroke:#FF0000;stroke-width:4;stroke-miterlimit:10;}
	.st36{fill:#5E43FF;}
	.st37{fill:#004947;}
	.st38{fill:#C38A43;}
	.st39{fill:#600077;}
	.st40{fill:none;stroke:#003DFF;stroke-width:3;stroke-linecap:round;stroke-linejoin:round;stroke-miterlimit:10;}
	.st41{fill-rule:evenodd;clip-rule:evenodd;fill:#FFE267;}
	.st42{fill-rule:evenodd;clip-rule:evenodd;fill:#350034;}
	.st43{fill-rule:evenodd;clip-rule:evenodd;fill:#002800;}
	.st44{fill-rule:evenodd;clip-rule:evenodd;}
	.st45{fill-rule:evenodd;clip-rule:evenodd;fill:#332A00;}
	.st46{fill-rule:evenodd;clip-rule:evenodd;fill:#003D42;}
	.st47{fill-rule:evenodd;clip-rule:evenodd;fill:#003013;}
	.st48{fill-rule:evenodd;clip-rule:evenodd;fill:#750006;}
	.st49{fill-rule:evenodd;clip-rule:evenodd;fill:#560046;}
	.st50{fill-rule:evenodd;clip-rule:evenodd;fill:#050030;}
	.st51{fill-rule:evenodd;clip-rule:evenodd;fill:#000563;}
	.st52{fill:url(#SVGID_1_);}
	.st53{fill:url(#SVGID_00000106137758489665168950000008172381990498227617_);}
	.st54{fill:url(#SVGID_00000134234285728493877410000012475731052445845689_);}
	.st55{fill:url(#SVGID_00000146489440553410061970000010234198005626507151_);}
	.st56{fill:url(#SVGID_00000049927834013472445500000006698403652092546192_);}
	.st57{fill:url(#SVGID_00000102512920138407335320000010817659592278079928_);}
	.st58{fill:url(#SVGID_00000183948664809334556750000013486333081407643559_);}
	.st59{fill:url(#SVGID_00000178925303092986933670000016817641191959696575_);}
	.st60{fill:url(#SVGID_00000101816638207511055570000009233356418334297261_);}
	.st61{fill:url(#SVGID_00000046328232268071720830000002492392316602641842_);}
	.st62{fill:url(#SVGID_00000150782455354161858480000012343748824413224372_);}
	.st63{fill:url(#SVGID_00000130640570270918214070000011024945379051824555_);}
	.st64{fill:url(#SVGID_00000160178891708656882770000015102211494271859599_);}
	.st65{fill:url(#SVGID_00000095306485420169904690000001385928323607149459_);}
	
		.st66{fill:url(#SVGID_00000152238803158479817140000005523691908891118985_);stroke:url(#SVGID_00000079461321823625598650000000384570586381264057_);stroke-width:0.5;stroke-miterlimit:10;}
	
		.st67{fill-rule:evenodd;clip-rule:evenodd;fill:url(#SVGID_00000047755717020357372400000005855342338457049018_);stroke:url(#SVGID_00000012441282495337074890000010622277687321005454_);stroke-width:0.5;stroke-miterlimit:10;}
	
		.st68{fill-rule:evenodd;clip-rule:evenodd;fill:url(#SVGID_00000132779190994124199750000014072796176297147293_);stroke:url(#SVGID_00000158711555073211152090000006717058851569786547_);stroke-width:0.5;stroke-miterlimit:10;}
	.st69{fill:#151415;}
	.st70{fill:url(#SVGID_00000183227800414869476540000011458649994533899959_);}
	.st71{fill:#740077;}
	.st72{fill:#B4B2B2;}
	.st73{fill:url(#SVGID_00000057110891606339711110000012526860859078645634_);}
	.st74{fill:url(#Graphic_00000000906591737344928720000009382764265359470248_);}
	.st75{fill:url(#Graphic_00000072997308151909199170000001191149822182805159_);}
	.st76{fill:url(#Graphic_00000053509936740003536020000013853631020622598311_);}
	.st77{fill:url(#SVGID_00000008852404548898279360000009099529597968346779_);}
	.st78{fill:#172332;}
	.st79{fill:url(#SVGID_00000090973552231677929740000005685757999502819506_);}
	.st80{fill:url(#SVGID_00000081625015805803255200000001091148532303366062_);}
	
		.st81{fill:url(#SVGID_00000049917790382818732750000011632989602859629734_);stroke:url(#SVGID_00000049203892699499292390000008034585262363818657_);stroke-width:0.5;stroke-miterlimit:10;}
	.st82{fill:url(#SVGID_00000014596498109586219390000018217517691495745694_);}
	.st83{fill:#FFFFFF;}
	.st84{fill:url(#SVGID_00000183947015462960357930000003551266879811071363_);}
	.st85{clip-path:url(#SVGID_00000038388756463463121840000016149439093912823213_);}
	.st86{clip-path:url(#SVGID_00000103959025137481757390000014564560163574699938_);}
	.st87{clip-path:url(#SVGID_00000025434624242091412370000010674882965508507837_);}
	.st88{fill-rule:evenodd;clip-rule:evenodd;fill:#CCA45F;}
	.st89{clip-path:url(#SVGID_00000158008842086621438770000001404886568530430121_);}
	.st90{fill-rule:evenodd;clip-rule:evenodd;fill:#FFFFFF;}
	.st91{fill:url(#SVGID_00000127024644517417466900000007116805056179760038_);}
	.st92{fill-rule:evenodd;clip-rule:evenodd;fill:url(#SVGID_00000070805971508986902660000011664376815608023952_);}
	.st93{fill:url(#SVGID_00000101819779922962298010000013761916982447914416_);}
	.st94{fill:none;stroke:url(#hand_x5F_3_00000163060560216477879670000018311503884909636999_);stroke-miterlimit:10;}
	.st95{fill:url(#SVGID_00000099643979349372307800000010921412275088545695_);}
	.st96{fill:url(#SVGID_00000024002531092894288050000001361771678078208421_);}
	.st97{fill:url(#SVGID_00000092444606535052157090000006373467849960242877_);}
	.st98{fill:url(#SVGID_00000120549738018597351450000007496352718500383639_);}
	.st99{fill:#E0C195;}
	.st100{fill:url(#SVGID_00000062907728470781993200000004597971399389328772_);}
	.st101{fill:url(#SVGID_00000114032446396023388710000005607391811178538639_);}
	.st102{fill:url(#SVGID_00000086681654798849706090000008182513114659322792_);}
	.st103{fill:url(#SVGID_00000146494608066173502500000002245142897193442988_);}
	.st104{fill:url(#SVGID_00000007397220130292550380000017548405322581051583_);}
	.st105{fill:url(#SVGID_00000160897680268072908960000017692783787287102593_);}
	.st106{fill:url(#SVGID_00000058551280326592659280000000929788596962021803_);}
	.st107{fill:#560046;}
	.st108{fill:url(#SVGID_00000096059043186219594570000018205469006001590431_);}
	.st109{fill:url(#SVGID_00000029026171889882094810000014186778364616481172_);}
	.st110{fill:url(#SVGID_00000157285731838889647610000000871571843540695707_);}
	.st111{fill:url(#SVGID_00000012459774844448834500000016986795458663511977_);}
	.st112{fill:url(#SVGID_00000034802697997322754000000009602194418826391470_);}
</style>
<g id="Layer_1">
</g>
<g id="Layer_2">
</g>
<g id="Layer_3">
</g>
<g id="Layer_4">
</g>
<g id="Layer_5">
</g>
<g id="Layer_6">
</g>
<g id="Layer_7">
</g>
<g id="Layer_8">
</g>
<g id="Layer_9">
</g>
<g id="Layer_10">
</g>
<g id="Layer_11">
</g>
<g id="Layer_12">
</g>
<g id="Layer_13">
</g>
<g id="Layer_14">
</g>
<g id="Logo_1-15">
	<path class="st107" d="M161.21,53.59c-1.44-3.89-0.53-5.77,3.38-7.17c0.79-6.52,4.31-10.19,9.73-10.14
		c5.32,0.05,8.77,3.7,9.56,10.13c3.89,1.46,4.73,3.19,3.41,7.22c0.58,0.21,1.17,0.44,1.76,0.64c13.79,4.45,23.95,13.14,30.42,26.1
		c0.65,1.3,1.36,1.59,2.77,1.67c5.53,0.32,11.05,0.74,16.55,1.4c3.52,0.43,5.86,2.69,6.79,6.1c0.93,3.4-0.06,6.35-2.67,8.77
		c-5.71,5.3-10.8,11.1-14.34,18.12c-2.71,5.38-4.26,11.03-4.15,17.13c0.11,5.49,0.03,10.97,0.01,16.46
		c-0.01,2.29-0.45,2.76-2.7,2.76c-31.18,0.01-62.37,0.01-93.55,0.01c-2.19,0-2.61-0.43-2.61-2.6c-0.02-5.23-0.14-10.46,0.02-15.69
		c0.25-8.32-2.11-15.91-6.87-22.56c-3.44-4.8-7.51-9.17-11.55-13.49c-2.52-2.7-3.76-5.56-2.71-9.12c1.01-3.4,3.46-5.51,6.95-5.95
		c5.04-0.64,10.13-1.01,15.2-1.41c0.95-0.08,1.61-0.12,2.11-1.15c6.64-13.54,17.17-22.51,31.64-26.85
		C160.6,53.89,160.82,53.76,161.21,53.59z M221.19,129.17c0.89-7.26,3.34-13.94,7.65-19.69c3.62-4.83,7.85-9.21,11.89-13.72
		c1.45-1.62,2.25-3.3,1.58-5.45c-0.65-2.12-2.16-3.31-4.31-3.69c-2.03-0.36-4.07-0.73-6.11-0.97c-16.97-2-31.1,2.92-41.43,17.06
		c-5.73,7.85-9.54,16.65-12.8,25.73c-0.07,0.21-0.01,0.47-0.01,0.72C192.2,129.17,206.64,129.17,221.19,129.17z M172.6,129.2
		c-3.03-8.51-6.4-16.51-11.24-23.83c-4.95-7.48-11.1-13.61-19.55-17.04c-9.96-4.04-20.2-3.77-30.47-1.53
		c-3.97,0.87-5.2,5.61-2.41,8.58c1.28,1.37,2.69,2.61,3.99,3.95c6.77,6.93,12.25,14.66,14.76,24.18c0.49,1.85,0.81,3.75,1.23,5.69
		C143.44,129.2,157.89,129.2,172.6,129.2z M174.6,120.77c0.79-3.51,1.42-6.53,2.16-9.53c2.06-8.37,4.95-16.33,9.77-23.65
		c6.68-10.13,3.98-21.74-5.42-29.56c-4.52-3.76-9.54-3.52-14.14,0.22c-8.92,7.25-10.98,19.5-4.43,29.26
		c4.74,7.06,7.61,14.75,9.64,22.87C173,113.68,173.72,116.99,174.6,120.77z M151.19,149.28c15.43,0,30.75,0,46.11,0
		c0-5.57,0-11.02,0-16.46c-15.47,0-30.78,0-46.11,0C151.19,138.39,151.19,143.79,151.19,149.28z M216.6,82.48
		c-3.98-11.35-22.06-25.98-31.41-25.44c0.43,0.48,0.81,0.9,1.19,1.33c8.3,9.3,9.54,21.42,2.79,31.38
		c-3.83,5.66-6.3,11.81-8.13,18.29c-0.56,1.98-1.03,3.99-1.54,5.98C187.47,98.23,197.95,85.57,216.6,82.48z M163.23,56.94
		c-10.42,0.41-28.62,15.2-31.26,25.36c17.83,2.32,28.75,13.6,36.73,28.66c-1.33-6.52-4.96-15.86-8.49-20.9
		c-7.21-10.29-6.25-22.45,2.01-31.88C162.54,57.81,162.85,57.41,163.23,56.94z M211.59,132.84c-3.68,0-7.17,0-10.66,0
		c0,5.57,0,10.97,0,16.4c3.61,0,7.11,0,10.66,0C211.59,143.72,211.59,138.37,211.59,132.84z M129,132.76c0,5.68,0,11.11,0,16.49
		c2.96,0,5.75,0,8.5,0c0-5.6,0-11.03,0-16.49C134.6,132.76,131.85,132.76,129,132.76z M147.59,149.33c0-5.62,0-11.05,0-16.53
		c-2.22,0-4.31,0-6.44,0c0,5.57,0,11.01,0,16.53C143.34,149.33,145.38,149.33,147.59,149.33z M220.94,132.8c-1.99,0-3.88,0-5.8,0
		c0,5.58,0,11.01,0,16.51c2,0,3.84,0,5.8,0C220.94,143.77,220.94,138.33,220.94,132.8z M168.17,46.51c4.12,0,8.07,0,12.1,0
		c0.3-2.81-0.83-4.8-3.07-6.08c-2.2-1.25-4.48-1.11-6.55,0.38C168.74,42.2,167.91,44.1,168.17,46.51z M174.27,51.98
		c2.71,0,5.42,0.07,8.13-0.05c0.72-0.03,1.41-0.66,2.12-1.02c-0.73-0.32-1.46-0.92-2.2-0.93c-5.42-0.08-10.84-0.08-16.26,0
		c-0.71,0.01-1.42,0.66-2.12,1.01c0.73,0.33,1.46,0.91,2.2,0.94C168.85,52.05,171.57,51.98,174.27,51.98z"/>
</g>
</svg>
