<?xml version="1.0" encoding="utf-8"?>
<!-- Generator: Adobe Illustrator 27.8.1, SVG Export Plug-In . SVG Version: 6.00 Build 0)  -->
<svg version="1.1" xmlns="http://www.w3.org/2000/svg" xmlns:xlink="http://www.w3.org/1999/xlink" x="0px" y="0px"
	 viewBox="0 0 350 230" style="enable-background:new 0 0 350 230;" xml:space="preserve">
<style type="text/css">
	.st0{fill:#520106;}
	.st1{fill:#050030;}
	.st2{fill:#F7BBAA;}
	.st3{fill:#FFE8E3;}
	.st4{fill:#FFFDC5;}
	.st5{fill:#004C20;}
	.st6{fill:#E3F2FF;}
	.st7{fill:#162B27;}
	.st8{fill:#2D2C16;}
	.st9{fill:#FFE5C2;}
	.st10{fill:#FFFDD4;}
	.st11{fill:#E2E0BA;}
	.st12{fill:#7DFFB2;}
	.st13{fill:#750006;}
	.st14{fill:#003D42;}
	.st15{fill:#FFFAC2;}
	.st16{fill:#FAFFC7;}
	.st17{fill:#A07200;}
	.st18{fill:#770071;}
	.st19{fill:#03007C;}
	.st20{fill:#F98800;}
	.st21{fill:#002D2D;}
	.st22{fill:#544E00;}
	.st23{stroke:#C2932F;stroke-width:4;stroke-miterlimit:10;}
	.st24{fill:#C2932F;}
	.st25{fill:#BA3838;}
	.st26{fill:#F99300;}
	.st27{fill:#FF0000;}
	.st28{fill:#1B0121;}
	.st29{fill:#A37E33;}
	.st30{fill:#F7E0FC;}
	.st31{fill:#F0F2F5;}
	.st32{fill:#B0CEED;}
	.st33{fill:#DDDD00;}
	.st34{fill:#9700B7;}
	.st35{fill:#9700B7;stroke:#FF0000;stroke-width:4;stroke-miterlimit:10;}
	.st36{fill:#5E43FF;}
	.st37{fill:#004947;}
	.st38{fill:#C38A43;}
	.st39{fill:#600077;}
	.st40{fill:none;stroke:#003DFF;stroke-width:3;stroke-linecap:round;stroke-linejoin:round;stroke-miterlimit:10;}
	.st41{fill-rule:evenodd;clip-rule:evenodd;fill:#FFE267;}
	.st42{fill-rule:evenodd;clip-rule:evenodd;fill:#350034;}
	.st43{fill-rule:evenodd;clip-rule:evenodd;fill:#002800;}
	.st44{fill-rule:evenodd;clip-rule:evenodd;}
	.st45{fill-rule:evenodd;clip-rule:evenodd;fill:#332A00;}
	.st46{fill-rule:evenodd;clip-rule:evenodd;fill:#003D42;}
	.st47{fill-rule:evenodd;clip-rule:evenodd;fill:#003013;}
	.st48{fill-rule:evenodd;clip-rule:evenodd;fill:#750006;}
	.st49{fill-rule:evenodd;clip-rule:evenodd;fill:#560046;}
	.st50{fill-rule:evenodd;clip-rule:evenodd;fill:#050030;}
	.st51{fill-rule:evenodd;clip-rule:evenodd;fill:#000563;}
	.st52{fill:url(#SVGID_1_);}
	.st53{fill:url(#SVGID_00000091733499941060640430000014598092065776421806_);}
	.st54{fill:url(#SVGID_00000008843699720467223300000003051234024543528118_);}
	.st55{fill:url(#SVGID_00000053514696868986832870000005937111111882380713_);}
	.st56{fill:url(#SVGID_00000162348229488970506980000006089307188966348727_);}
	.st57{fill:url(#SVGID_00000019675907085634275600000007044822749000770483_);}
	.st58{fill:url(#SVGID_00000038373402602457523530000001309635609928916657_);}
	.st59{fill:url(#SVGID_00000146472175926273124480000001649138237567478712_);}
	.st60{fill:url(#SVGID_00000027590014236870681050000012393776310946336901_);}
	.st61{fill:url(#SVGID_00000177445106018452073640000005051690443774534329_);}
	.st62{fill:url(#SVGID_00000001656255810197609860000016138625893738697919_);}
	.st63{fill:url(#SVGID_00000026851164148563462880000004395114074654809020_);}
	.st64{fill:url(#SVGID_00000065048507833188232600000001745457219691222171_);}
	.st65{fill:url(#SVGID_00000082349537654351300640000008170508898445313432_);}
	
		.st66{fill:url(#SVGID_00000016763625373640983830000012188117379462005135_);stroke:url(#SVGID_00000154410155766252150360000007377353082571122588_);stroke-width:0.5;stroke-miterlimit:10;}
	
		.st67{fill-rule:evenodd;clip-rule:evenodd;fill:url(#SVGID_00000054973421899312640550000017016962394965084804_);stroke:url(#SVGID_00000142173126555238719630000012293460428814472098_);stroke-width:0.5;stroke-miterlimit:10;}
	
		.st68{fill-rule:evenodd;clip-rule:evenodd;fill:url(#SVGID_00000147207246014383936380000013412264290572382097_);stroke:url(#SVGID_00000014614124590797276480000010423931475190066313_);stroke-width:0.5;stroke-miterlimit:10;}
	.st69{fill:#151415;}
	.st70{fill:url(#SVGID_00000137092110848514198560000011092588423294247076_);}
	.st71{fill:#740077;}
	.st72{fill:#B4B2B2;}
	.st73{fill:url(#SVGID_00000047025861061264538490000007277991488334484128_);}
	.st74{fill:url(#Graphic_00000181807389067139934250000001045884283525445303_);}
	.st75{fill:url(#Graphic_00000182506098690074358540000002099874398416782217_);}
	.st76{fill:url(#Graphic_00000092449434795634756830000009738326081778458496_);}
	.st77{fill:url(#SVGID_00000091696214996064751480000005599351586619428776_);}
	.st78{fill:#172332;}
	.st79{fill:url(#SVGID_00000064318778143484066490000006245390824126814366_);}
	.st80{fill:url(#SVGID_00000109010068195316902680000018133582931897104541_);}
	
		.st81{fill:url(#SVGID_00000132791397019418385370000000267153614707519628_);stroke:url(#SVGID_00000178916520630296189190000008625393551600652460_);stroke-width:0.5;stroke-miterlimit:10;}
	.st82{fill:url(#SVGID_00000094611219578162551650000005081518542050037649_);}
	.st83{fill:#FFFFFF;}
	.st84{fill:url(#SVGID_00000098943655794959943170000009270363825166436746_);}
	.st85{clip-path:url(#SVGID_00000075846131712082102360000004121655207308992921_);}
	.st86{clip-path:url(#SVGID_00000025420792133736893210000001914522946602848924_);}
	.st87{clip-path:url(#SVGID_00000150082250597902823600000006302465189899959687_);}
	.st88{fill-rule:evenodd;clip-rule:evenodd;fill:#CCA45F;}
	.st89{clip-path:url(#SVGID_00000047779365381508200920000008830701140339585960_);}
	.st90{fill-rule:evenodd;clip-rule:evenodd;fill:#FFFFFF;}
	.st91{fill:url(#SVGID_00000169558223045130812260000008475960239832584578_);}
	.st92{fill-rule:evenodd;clip-rule:evenodd;fill:url(#SVGID_00000013893865655539057310000001559582614921381566_);}
	.st93{fill:url(#SVGID_00000031923981397584489070000004963303073218909881_);}
	.st94{fill:none;stroke:url(#hand_x5F_3_00000029726617597578420800000009427444794419926972_);stroke-miterlimit:10;}
	.st95{fill:url(#SVGID_00000181074024524715888260000009031394533808373917_);}
	.st96{fill:url(#SVGID_00000118395513986140763650000000159262165802834310_);}
	.st97{fill:url(#SVGID_00000124152237064181842640000007109347446521778304_);}
	.st98{fill:url(#SVGID_00000136396206215413543220000004734535267589467568_);}
	.st99{fill:#E0C195;}
	.st100{fill:url(#SVGID_00000160898834158234521330000007438341615674997662_);}
	.st101{fill:url(#SVGID_00000174565990825509550930000009987990486762124979_);}
	.st102{fill:url(#SVGID_00000061442397575647063580000014940730341101363643_);}
	.st103{fill:url(#SVGID_00000069368375806066925810000004219855406102622140_);}
	.st104{fill:url(#SVGID_00000155826468142632333460000001204223432864438931_);}
	.st105{fill:url(#SVGID_00000070080622403827856210000000836363433285420951_);}
	.st106{fill:url(#SVGID_00000021816924562711148150000010372650274853541264_);}
	.st107{fill:#560046;}
	.st108{fill:url(#SVGID_00000013905571938961738440000003580795812304722596_);}
	.st109{fill:url(#SVGID_00000170971213113807218250000005709345617696251548_);}
	.st110{fill:url(#SVGID_00000146468320009474928130000010920827814928958633_);}
	.st111{fill:url(#SVGID_00000157288968653061008110000003462488501087078288_);}
	.st112{fill:url(#SVGID_00000073684158464242657350000004237533174922360499_);}
</style>
<g id="Layer_1">
</g>
<g id="Layer_2">
</g>
<g id="Layer_3">
</g>
<g id="Layer_4">
</g>
<g id="Layer_5">
</g>
<g id="Layer_6">
</g>
<g id="Layer_7">
</g>
<g id="Layer_8">
</g>
<g id="Layer_9">
</g>
<g id="Layer_10">
</g>
<g id="Layer_11">
</g>
<g id="Layer_12">
</g>
<g id="Layer_13">
</g>
<g id="Layer_14">
</g>
<g id="Logo_1-15">
	<linearGradient id="SVGID_1_" gradientUnits="userSpaceOnUse" x1="107.2202" y1="94.872" x2="242.7798" y2="94.872">
		<stop  offset="0" style="stop-color:#B8822A"/>
		<stop  offset="0.3692" style="stop-color:#F7CA31"/>
		<stop  offset="0.7021" style="stop-color:#FAF4BA"/>
		<stop  offset="0.8795" style="stop-color:#F7CA31"/>
		<stop  offset="1" style="stop-color:#B8822A"/>
	</linearGradient>
	<path class="st52" d="M239.02,75.75c-0.31,2.08-0.67,4.15-0.92,6.23c-0.07,0.55,0.05,1.23,0.33,1.71
		c4.53,7.68,5.37,15.87,3.23,24.4c-2.22,8.85-7.41,15.86-13.99,21.95c-6.25,5.78-13.49,10.03-21.04,13.85
		c-3.08,1.56-6.1,3.24-9.09,4.96c-3.5,2.01-6.47,4.65-9.25,7.58c-1.99,2.09-4.08,4.21-6.49,5.75c-4.66,2.98-9.54,2.73-14.14-0.33
		c-1.63-1.09-3.21-2.39-4.46-3.88c-4.82-5.76-10.96-9.66-17.57-12.95c-7.36-3.67-14.6-7.55-20.93-12.9c-7.11-6-12.93-12.98-15.74-22
		c-2.88-9.24-2.28-18.2,2.8-26.67c0.33-0.55,0.14-1.51,0-2.24c-1.25-6.48-0.55-12.62,3.31-18.11c3.92-5.57,9.39-8.7,16.16-9.49
		c0.84-0.1,1.22-0.29,1.36-1.21c1.85-11.87,11.44-18.87,23.38-17.04c1.45,0.22,2.16,0.01,2.98-1.4c3.42-5.87,8.86-8.49,15.49-8.49
		c2.49,0,5.03,0.49,7.45,1.14c4.37,1.18,7.52,4.03,9.64,8c0.41,0.77,0.75,1.03,1.71,0.88c8.31-1.26,15.5,0.69,20.74,7.69
		c2.04,2.72,3.04,5.9,3.51,9.24c0.12,0.82,0.42,1.11,1.25,1.19C230.19,54.66,238.86,64.22,239.02,75.75z M193.23,38.34
		c0.29,1.75,0.66,3.39,0.83,5.06c0.56,5.54-0.25,11.02-0.97,16.49c-1.48,11.21-4.03,22.21-6.72,33.18c-0.53,2.17-1.08,4.33-1.63,6.5
		c-0.21,0.84-0.71,1.37-1.63,1.18c-0.95-0.19-1.11-0.92-0.99-1.75c0.03-0.21,0.11-0.41,0.16-0.61c1.54-6.43,3.14-12.85,4.6-19.3
		c1.95-8.59,3.52-17.26,4.25-26.04c0.3-3.55,0.43-7.18,0.02-10.71c-0.71-6.24-4.24-12.16-12.02-13.7c-1.11-0.22-2.25-0.37-3.38-0.43
		c-6.1-0.31-11.76,1.8-15.02,7.99c-1.44,2.73-2.11,5.68-2.18,8.76c-0.19,8.86,1.22,17.57,2.99,26.19c1.89,9.2,4.16,18.31,6.27,27.46
		c0.22,0.95,0.24,1.85-0.89,2.14c-1.08,0.28-1.5-0.5-1.72-1.39c-3.58-14.35-7.15-28.7-8.78-43.44c-0.55-4.98-1.11-9.98-0.13-14.98
		c0.17-0.86,0.37-1.71,0.64-2.92c-2.12-0.04-4.08-0.17-6.03-0.08c-6.72,0.28-12.36,4.46-14.67,10.79
		c-1.65,4.52-1.65,9.18-1.04,13.86c0.99,7.63,3.8,14.64,7.5,21.33c4.07,7.36,9.05,14.11,14.04,20.84c0.58,0.78,1,1.58,0.1,2.32
		c-0.93,0.76-1.66,0.16-2.21-0.63c-4.11-5.91-8.38-11.72-12.25-17.79c-4.54-7.11-7.95-14.77-9.44-23.14
		c-0.53-3.01-0.7-6.08-1.05-9.25c-0.59,0.07-1.29,0.11-1.98,0.24c-10.8,2.05-17.57,11.98-15.73,22.98
		c0.86,5.15,3.18,9.64,6.03,13.92c5.14,7.69,11.94,13.8,18.94,19.71c6.75,5.7,14.37,9.78,22.73,12.61
		c5.06,1.71,10.09,3.67,13.14,8.74c2.69-4.53,7.1-6.44,11.58-8.22c1.25-0.5,2.55-0.88,3.79-1.41c2.98-1.26,6.08-2.32,8.89-3.9
		c11.02-6.17,20.28-14.47,28.15-24.3c4.03-5.03,7.24-10.54,8.4-17.05c1.87-10.53-4.28-20.23-14.63-22.86
		c-1.07-0.27-2.18-0.36-3.37-0.55c0.14,9.19-2.38,17.46-6.26,25.39c-3.35,6.84-7.61,13.11-12.06,19.25c-1.38,1.91-2.79,3.8-4.19,5.7
		c-0.56,0.76-1.27,1.23-2.14,0.55c-0.78-0.62-0.62-1.39-0.05-2.11c0.1-0.13,0.21-0.27,0.31-0.4c3.1-4.36,6.3-8.65,9.27-13.1
		c5.31-7.97,9.75-16.36,11.61-25.89c1.11-5.69,1.37-11.37-0.58-16.97C211.01,40.71,200.98,35.67,193.23,38.34z M236.85,86.38
		c-1.09,2.06-1.99,3.96-3.06,5.76c-3.93,6.62-9.07,12.22-14.71,17.41c-8.69,8-18.06,14.85-29.52,18.49
		c-3.13,0.99-6.1,2.64-8.97,4.27c-2.15,1.22-3.53,3.23-3.85,5.8c-0.04,0.33,0,0.81,0.2,1.01c2.05,1.97,2.7,4.53,2.99,7.2
		c0.39,3.62,0.11,7.19-1.87,10.37c-1.75,2.82-4.27,2.78-6.09,0c-0.25-0.39-0.47-0.8-0.66-1.22c-1.32-3.02-1.58-6.19-1.17-9.41
		c0.33-2.57,0.97-5.05,2.97-6.94c0.19-0.18,0.23-0.6,0.21-0.9c-0.17-1.89-1.09-3.43-2.43-4.72c-2.52-2.44-5.7-3.68-8.88-4.95
		c-3.87-1.54-7.84-2.88-11.56-4.73c-8.08-4.02-14.87-9.84-21.35-16.02c-6.45-6.14-12.09-12.91-15.7-21.17
		c-0.02-0.05-0.14-0.07-0.24-0.12c-0.1,0.18-0.22,0.35-0.31,0.54c-3.61,7.36-3.73,14.94-1.22,22.61
		c2.75,8.41,8.27,14.86,14.91,20.46c5.88,4.95,12.54,8.64,19.39,12.03c7.34,3.64,14.23,7.86,19.5,14.32
		c0.61,0.75,1.36,1.38,2.08,2.02c4.37,3.83,9.68,4.07,14.3,0.56c1.3-0.99,2.5-2.15,3.56-3.39c3.84-4.48,8.43-7.99,13.6-10.76
		c3.08-1.65,6.19-3.25,9.29-4.86c8.25-4.28,15.87-9.41,22.02-16.49c6.51-7.49,10.36-16.01,9.75-26.17
		C239.8,93.54,238.76,89.9,236.85,86.38z M171.43,147.67c0.17,3.61,0.37,6.22,1.86,8.5c1.02,1.56,2.36,1.56,3.44,0.07
		c0.22-0.3,0.43-0.63,0.57-0.98c1.72-4.47,1.76-8.95-0.07-13.39c-0.4-0.98-1.01-1.99-2.23-1.97c-1.2,0.02-1.72,1.07-2.23,2
		c-0.1,0.18-0.21,0.38-0.25,0.58C172.09,144.52,171.66,146.56,171.43,147.67z M171.66,148.52c0.5-2.05,0.87-4.07,1.53-5.99
		c0.24-0.69,1.21-1.55,1.84-1.55c0.63,0,1.55,0.86,1.85,1.56c1.68,3.97,1.66,8.03,0.04,12.01c-0.29,0.73-1.26,1.64-1.91,1.63
		c-0.65,0-1.64-0.93-1.89-1.65C172.47,152.62,172.14,150.59,171.66,148.52z M175.72,142.35c-0.76,1.33-0.1,3.42,1.17,3.7
		C177.32,144.5,176.87,143.08,175.72,142.35z"/>
</g>
</svg>
