<?xml version="1.0" encoding="utf-8"?>
<!-- Generator: Adobe Illustrator 27.8.1, SVG Export Plug-In . SVG Version: 6.00 Build 0)  -->
<svg version="1.1" xmlns="http://www.w3.org/2000/svg" xmlns:xlink="http://www.w3.org/1999/xlink" x="0px" y="0px"
	 viewBox="0 0 350 230" style="enable-background:new 0 0 350 230;" xml:space="preserve">
<style type="text/css">
	.st0{fill:#520106;}
	.st1{fill:#050030;}
	.st2{fill:#F7BBAA;}
	.st3{fill:#FFE8E3;}
	.st4{fill:#FFFDC5;}
	.st5{fill:#004C20;}
	.st6{fill:#E3F2FF;}
	.st7{fill:#162B27;}
	.st8{fill:#2D2C16;}
	.st9{fill:#FFE5C2;}
	.st10{fill:#FFFDD4;}
	.st11{fill:#E2E0BA;}
	.st12{fill:#7DFFB2;}
	.st13{fill:#750006;}
	.st14{fill:#003D42;}
	.st15{fill:#FFFAC2;}
	.st16{fill:#FAFFC7;}
	.st17{fill:#A07200;}
	.st18{fill:#770071;}
	.st19{fill:#03007C;}
	.st20{fill:#F98800;}
	.st21{fill:#002D2D;}
	.st22{fill:#544E00;}
	.st23{stroke:#C2932F;stroke-width:4;stroke-miterlimit:10;}
	.st24{fill:#C2932F;}
	.st25{fill:#BA3838;}
	.st26{fill:#F99300;}
	.st27{fill:#FF0000;}
	.st28{fill:#1B0121;}
	.st29{fill:#A37E33;}
	.st30{fill:#F7E0FC;}
	.st31{fill:#F0F2F5;}
	.st32{fill:#B0CEED;}
	.st33{fill:#DDDD00;}
	.st34{fill:#9700B7;}
	.st35{fill:#9700B7;stroke:#FF0000;stroke-width:4;stroke-miterlimit:10;}
	.st36{fill:#5E43FF;}
	.st37{fill:#004947;}
	.st38{fill:#C38A43;}
	.st39{fill:#600077;}
	.st40{fill:none;stroke:#003DFF;stroke-width:3;stroke-linecap:round;stroke-linejoin:round;stroke-miterlimit:10;}
	.st41{fill-rule:evenodd;clip-rule:evenodd;fill:#FFE267;}
	.st42{fill-rule:evenodd;clip-rule:evenodd;fill:#350034;}
	.st43{fill-rule:evenodd;clip-rule:evenodd;fill:#002800;}
	.st44{fill-rule:evenodd;clip-rule:evenodd;}
	.st45{fill-rule:evenodd;clip-rule:evenodd;fill:#332A00;}
	.st46{fill-rule:evenodd;clip-rule:evenodd;fill:#003D42;}
	.st47{fill-rule:evenodd;clip-rule:evenodd;fill:#003013;}
	.st48{fill-rule:evenodd;clip-rule:evenodd;fill:#750006;}
	.st49{fill-rule:evenodd;clip-rule:evenodd;fill:#560046;}
	.st50{fill-rule:evenodd;clip-rule:evenodd;fill:#050030;}
	.st51{fill-rule:evenodd;clip-rule:evenodd;fill:#000563;}
	.st52{fill:url(#SVGID_1_);}
	.st53{fill:url(#SVGID_00000157274800973230852220000015386229728237831857_);}
	.st54{fill:url(#SVGID_00000036948709964713385570000003083082548246898602_);}
	.st55{fill:url(#SVGID_00000154387034634513061720000008094432710900402317_);}
	.st56{fill:url(#SVGID_00000115498816136556782400000011399578171660117903_);}
	.st57{fill:url(#SVGID_00000086685260534825085200000007392396197829378449_);}
	.st58{fill:url(#SVGID_00000086687709362317217400000009854836403841115029_);}
	.st59{fill:url(#SVGID_00000018207687248058675570000007665144073052062610_);}
	.st60{fill:url(#SVGID_00000148632924240604362410000017276841436716840078_);}
	.st61{fill:url(#SVGID_00000178895519849240444480000013119506777408991881_);}
	.st62{fill:url(#SVGID_00000023984381040740987360000007025610138638576001_);}
	.st63{fill:url(#SVGID_00000096747225554711219250000011313172932507647644_);}
	.st64{fill:url(#SVGID_00000021840303548810954540000005951218106834923673_);}
	.st65{fill:url(#SVGID_00000059293424834295812690000000629233636805963433_);}
	
		.st66{fill:url(#SVGID_00000096778345657443437910000001409671224981787268_);stroke:url(#SVGID_00000029748589883139748710000008627171356144554431_);stroke-width:0.5;stroke-miterlimit:10;}
	
		.st67{fill-rule:evenodd;clip-rule:evenodd;fill:url(#SVGID_00000051367843492141918390000017913223392899668150_);stroke:url(#SVGID_00000098942592625956876140000017447057290609019562_);stroke-width:0.5;stroke-miterlimit:10;}
	
		.st68{fill-rule:evenodd;clip-rule:evenodd;fill:url(#SVGID_00000156564670189064315180000015227820882593911228_);stroke:url(#SVGID_00000083786937170110023120000014200472242339563934_);stroke-width:0.5;stroke-miterlimit:10;}
	.st69{fill:#151415;}
	.st70{fill:url(#SVGID_00000174583598351353534820000010308492830304886914_);}
	.st71{fill:#740077;}
	.st72{fill:#B4B2B2;}
	.st73{fill:url(#SVGID_00000080178380935968380520000010083233077035235500_);}
	.st74{fill:url(#Graphic_00000126310846388444373990000004954920856451289773_);}
	.st75{fill:url(#Graphic_00000168084834947826570130000005634302358272316094_);}
	.st76{fill:url(#Graphic_00000056392993459747788150000004096175461952205479_);}
	.st77{fill:url(#SVGID_00000116926599613550487610000017543267642502990499_);}
	.st78{fill:#172332;}
	.st79{fill:url(#SVGID_00000054954278117829080690000005562388698950638481_);}
	.st80{fill:url(#SVGID_00000171706450536830471580000013281779863621554312_);}
	
		.st81{fill:url(#SVGID_00000098220005166594661320000012589577582887984808_);stroke:url(#SVGID_00000029759201836147477610000018067633802237898880_);stroke-width:0.5;stroke-miterlimit:10;}
	.st82{fill:url(#SVGID_00000152953753871632590710000000150252478551165090_);}
	.st83{fill:#FFFFFF;}
	.st84{fill:url(#SVGID_00000055679617599448347100000016092381285640222375_);}
	.st85{clip-path:url(#SVGID_00000003804194766103853720000017751920152998983838_);}
	.st86{clip-path:url(#SVGID_00000030453107918241336640000002211072227304150449_);}
	.st87{clip-path:url(#SVGID_00000110436974177329786450000012012098981402938273_);}
	.st88{fill-rule:evenodd;clip-rule:evenodd;fill:#CCA45F;}
	.st89{clip-path:url(#SVGID_00000160869583977129178560000012486733257373606037_);}
	.st90{fill-rule:evenodd;clip-rule:evenodd;fill:#FFFFFF;}
	.st91{fill:url(#SVGID_00000172413321977649195680000011796134756771947686_);}
	.st92{fill-rule:evenodd;clip-rule:evenodd;fill:url(#SVGID_00000021090397875558100830000006701258431913905797_);}
	.st93{fill:url(#SVGID_00000049218621821161203620000014212631313523427970_);}
	.st94{fill:none;stroke:url(#hand_x5F_3_00000009579831799552440690000004915083240908051358_);stroke-miterlimit:10;}
	.st95{fill:url(#SVGID_00000147906639838516014970000002683506531175632807_);}
	.st96{fill:url(#SVGID_00000143617380733882015110000004481865690568597385_);}
	.st97{fill:url(#SVGID_00000044169324114317038670000000741998585989266861_);}
	.st98{fill:url(#SVGID_00000071526742255831077900000006364794731684175542_);}
	.st99{fill:#E0C195;}
	.st100{fill:url(#SVGID_00000093876428426913506380000005647849815352113812_);}
	.st101{fill:url(#SVGID_00000138572114043878483540000009754705114470586293_);}
	.st102{fill:url(#SVGID_00000043440845541779306440000017879204069423535294_);}
	.st103{fill:url(#SVGID_00000047032424429489290550000013777036388123915429_);}
	.st104{fill:url(#SVGID_00000164503595319767119010000014521617611831485832_);}
	.st105{fill:url(#SVGID_00000057138306917679609750000009040031909635842712_);}
	.st106{fill:url(#SVGID_00000139994504190903449780000012862208207202600104_);}
	.st107{fill:#560046;}
	.st108{fill:url(#SVGID_00000098210355563969346300000004612172345662150574_);}
	.st109{fill:url(#SVGID_00000075129569198648852920000010582626357996555192_);}
	.st110{fill:url(#SVGID_00000023254797332840138800000006862778263771707025_);}
	.st111{fill:url(#SVGID_00000131349056912496101010000006547711539246332836_);}
	.st112{fill:url(#SVGID_00000083779464731573622400000006572011349197171615_);}
</style>
<g id="Layer_1">
</g>
<g id="Layer_2">
</g>
<g id="Layer_3">
</g>
<g id="Layer_4">
</g>
<g id="Layer_5">
</g>
<g id="Layer_6">
</g>
<g id="Layer_7">
</g>
<g id="Layer_8">
</g>
<g id="Layer_9">
</g>
<g id="Layer_10">
</g>
<g id="Layer_11">
</g>
<g id="Layer_12">
</g>
<g id="Layer_13">
</g>
<g id="Layer_14">
</g>
<g id="Logo_1-15">
	<radialGradient id="SVGID_1_" cx="175" cy="91.5325" r="75.2528" gradientUnits="userSpaceOnUse">
		<stop  offset="0" style="stop-color:#FFFFFF"/>
		<stop  offset="0.0323" style="stop-color:#DFDFDC"/>
		<stop  offset="0.0765" style="stop-color:#BABAB3"/>
		<stop  offset="0.1262" style="stop-color:#98988D"/>
		<stop  offset="0.1803" style="stop-color:#7B7A6D"/>
		<stop  offset="0.2401" style="stop-color:#636251"/>
		<stop  offset="0.3076" style="stop-color:#4F4E3B"/>
		<stop  offset="0.3864" style="stop-color:#3F3F2A"/>
		<stop  offset="0.4838" style="stop-color:#35341F"/>
		<stop  offset="0.6205" style="stop-color:#2F2E18"/>
		<stop  offset="1" style="stop-color:#2D2C16"/>
	</radialGradient>
	<path class="st52" d="M241.74,136.15c-0.79,2.29-0.91,4.85-2.22,5.83c-1.29,0.97-3.78,0.39-5.74,0.4
		c-5.69,0.03-11.39-0.02-17.08,0.04c-1.2,0.01-1.95-0.28-2.65-1.35c-15.73-24.09-31.5-48.16-47.27-72.23
		c-0.41-0.63-0.85-1.24-1.42-2.07c-0.52,0.73-0.93,1.28-1.3,1.85c-12.23,18.66-24.47,37.32-36.66,56.01
		c-0.75,1.15-1.53,1.69-2.93,1.59c-1.71-0.12-3.44-0.03-5.64-0.03c15.58-23.77,30.96-47.24,46.48-70.91
		c1.93,2.94,3.72,5.64,5.49,8.35c15.39,23.47,30.8,46.93,46.14,70.44c0.98,1.51,1.95,2.15,3.8,2.11c6.2-0.13,12.41-0.05,18.62-0.04
		C240.03,136.15,240.71,136.15,241.74,136.15z M175.02,99.73c-9.38,14.31-18.61,28.39-27.93,42.61c18.7,0,37.1,0,55.85,0
		C193.58,128.04,184.36,113.98,175.02,99.73z M158.67,136.08c5.48-8.38,10.8-16.5,16.34-24.96c5.5,8.37,10.82,16.49,16.39,24.96
		C180.35,136.08,169.72,136.08,158.67,136.08z M126.05,83.28c0.21,0.76,0.2,1.84-0.2,2.46c-5.61,8.71-11.3,17.36-16.98,26.02
		c-0.25,0.38-0.59,0.71-1.03,1.23c-0.28-0.83-0.48-1.36-0.65-1.9c-5.72-18.56-11.44-37.12-17.18-55.68c-0.2-0.65-0.43-1.48-0.93-1.8
		c-2.33-1.53-4.75-2.91-7.48-4.55c0.29,0.98,0.45,1.58,0.64,2.17c1.58,5.13,3.18,10.25,4.76,15.38
		c5.94,19.3,11.87,38.59,17.84,57.88c0.19,0.63,0.7,1.28,1.25,1.62c0.21,0.13,1.12-0.47,1.42-0.92
		c8.45-12.81,16.86-25.64,25.25-38.49c0.28-0.43,0.52-1.1,0.4-1.56c-0.62-2.35-1.34-4.66-2.08-6.97c-0.12-0.39-0.42-0.82-0.76-1.02
		c-2.31-1.33-4.65-2.6-7.32-4.08C124.09,76.72,125.15,79.98,126.05,83.28z M225.35,73.97c-5.04,1.73-7.62,5.39-8.25,10.54
		c-0.1,0.8-0.03,1.78,0.36,2.43c1.47,2.47,3.11,4.83,4.69,7.24c6.7,10.21,13.38,20.42,20.12,30.6c0.4,0.6,1.21,0.94,1.83,1.39
		c0.38-0.6,0.91-1.15,1.11-1.8c7.09-22.88,14.15-45.76,21.21-68.65c0.65-2.09,1.25-4.2,1.97-6.64c-2.34,1.4-4.38,2.48-6.24,3.8
		c-0.9,0.64-1.81,1.65-2.13,2.68c-5.12,16.33-10.14,32.7-15.18,49.05c-0.84,2.71-1.68,5.42-2.56,8.23
		c-0.37-0.23-0.57-0.29-0.66-0.43c-5.91-8.97-11.82-17.93-17.66-26.93c-0.31-0.48-0.27-1.35-0.09-1.95
		c0.97-3.36,2.03-6.7,3.19-10.44C226.25,73.51,225.83,73.81,225.35,73.97z M172.31,44.55c-0.87,1.13-0.81,2.01-0.01,3.21
		c7.72,11.68,15.37,23.41,23.04,35.13c9.11,13.91,18.21,27.82,27.34,41.71c0.42,0.64,1.11,1.47,1.74,1.52
		c2.13,0.19,4.28,0.07,6.81,0.07c-18.84-28.72-37.45-57.09-56.2-85.68C174.03,42.02,173.25,43.35,172.31,44.55z M164.39,86.3
		c-10.48,15.99-20.97,31.96-31.4,47.98c-0.9,1.38-1.82,2.03-3.52,1.98c-4.28-0.12-8.57-0.04-12.86-0.04c-2.67,0-5.33,0-8.18,0
		c0.49,1.64,0.98,3.08,1.33,4.55c0.3,1.26,0.9,1.69,2.26,1.67c7.04-0.09,14.07-0.09,21.11-0.01c1.47,0.02,2.28-0.47,3.07-1.68
		c8.41-12.91,16.88-25.78,25.33-38.66c2.52-3.84,5.02-7.68,7.51-11.5c-1.24-1.88-2.4-3.64-3.68-5.6
		C164.91,85.59,164.63,85.93,164.39,86.3z M247.65,61.52c-2.63,1.58-4.84,2.84-6.98,4.22c-0.53,0.34-1.04,0.95-1.23,1.54
		c-1.59,4.98-3.12,9.98-4.62,14.98c-0.15,0.49-0.17,1.18,0.07,1.58c1.22,2,2.56,3.93,4.01,6.13
		C241.83,80.43,244.68,71.18,247.65,61.52z M115.19,83.83c0.25-0.4,0.19-1.12,0.04-1.62c-1.5-5.01-3.04-10.01-4.6-15
		c-0.14-0.45-0.44-0.97-0.83-1.21c-2.25-1.42-4.55-2.77-7.37-4.45c2.98,9.73,5.79,18.9,8.7,28.43
		C112.63,87.73,113.97,85.81,115.19,83.83z"/>
</g>
</svg>
