<?xml version="1.0" encoding="utf-8"?>
<!-- Generator: Adobe Illustrator 27.8.1, SVG Export Plug-In . SVG Version: 6.00 Build 0)  -->
<svg version="1.1" xmlns="http://www.w3.org/2000/svg" xmlns:xlink="http://www.w3.org/1999/xlink" x="0px" y="0px"
	 viewBox="0 0 350 230" style="enable-background:new 0 0 350 230;" xml:space="preserve">
<style type="text/css">
	.st0{fill:#520106;}
	.st1{fill:#050030;}
	.st2{fill:#F7BBAA;}
	.st3{fill:#FFE8E3;}
	.st4{fill:#FFFDC5;}
	.st5{fill:#004C20;}
	.st6{fill:#E3F2FF;}
	.st7{fill:#162B27;}
	.st8{fill:#2D2C16;}
	.st9{fill:#FFE5C2;}
	.st10{fill:#FFFDD4;}
	.st11{fill:#E2E0BA;}
	.st12{fill:#7DFFB2;}
	.st13{fill:#750006;}
	.st14{fill:#003D42;}
	.st15{fill:#FFFAC2;}
	.st16{fill:#FAFFC7;}
	.st17{fill:#A07200;}
	.st18{fill:#770071;}
	.st19{fill:#03007C;}
	.st20{fill:#F98800;}
	.st21{fill:#002D2D;}
	.st22{fill:#544E00;}
	.st23{stroke:#C2932F;stroke-width:4;stroke-miterlimit:10;}
	.st24{fill:#C2932F;}
	.st25{fill:#BA3838;}
	.st26{fill:#F99300;}
	.st27{fill:#FF0000;}
	.st28{fill:#1B0121;}
	.st29{fill:#A37E33;}
	.st30{fill:#F7E0FC;}
	.st31{fill:#F0F2F5;}
	.st32{fill:#B0CEED;}
	.st33{fill:#DDDD00;}
	.st34{fill:#9700B7;}
	.st35{fill:#9700B7;stroke:#FF0000;stroke-width:4;stroke-miterlimit:10;}
	.st36{fill:#5E43FF;}
	.st37{fill:#004947;}
	.st38{fill:#C38A43;}
	.st39{fill:#600077;}
	.st40{fill:none;stroke:#003DFF;stroke-width:3;stroke-linecap:round;stroke-linejoin:round;stroke-miterlimit:10;}
	.st41{fill-rule:evenodd;clip-rule:evenodd;fill:#FFE267;}
	.st42{fill-rule:evenodd;clip-rule:evenodd;fill:#350034;}
	.st43{fill-rule:evenodd;clip-rule:evenodd;fill:#002800;}
	.st44{fill-rule:evenodd;clip-rule:evenodd;}
	.st45{fill-rule:evenodd;clip-rule:evenodd;fill:#332A00;}
	.st46{fill-rule:evenodd;clip-rule:evenodd;fill:#003D42;}
	.st47{fill-rule:evenodd;clip-rule:evenodd;fill:#003013;}
	.st48{fill-rule:evenodd;clip-rule:evenodd;fill:#750006;}
	.st49{fill-rule:evenodd;clip-rule:evenodd;fill:#560046;}
	.st50{fill-rule:evenodd;clip-rule:evenodd;fill:#050030;}
	.st51{fill-rule:evenodd;clip-rule:evenodd;fill:#000563;}
	.st52{fill:url(#SVGID_1_);}
	.st53{fill:url(#SVGID_00000178886224706298443660000008055646737591005604_);}
	.st54{fill:url(#SVGID_00000065777584684475529260000014149207243407916679_);}
	.st55{fill:url(#SVGID_00000027563532314629992130000005314143817848125619_);}
	.st56{fill:url(#SVGID_00000003792991562036085620000017111003438129921720_);}
	.st57{fill:url(#SVGID_00000046322779116095315680000017630153684638437252_);}
	.st58{fill:url(#SVGID_00000181793541672172092750000005040455097377629116_);}
	.st59{fill:url(#SVGID_00000040564085273625655280000005833674068380652218_);}
	.st60{fill:url(#SVGID_00000123405749901286980640000017197525739768126873_);}
	.st61{fill:url(#SVGID_00000061464148949745664640000013402532165667241102_);}
	.st62{fill:url(#SVGID_00000127738923289360870810000012459572343674696087_);}
	.st63{fill:url(#SVGID_00000136392551124047771130000009648722653634934184_);}
	.st64{fill:url(#SVGID_00000033330167549184755180000009957329398693891718_);}
	.st65{fill:url(#SVGID_00000010299860895399733570000003593337494964869799_);}
	
		.st66{fill:url(#SVGID_00000000926721183357191890000010829223810323451326_);stroke:url(#SVGID_00000106147605561901867790000017827473924448625567_);stroke-width:0.5;stroke-miterlimit:10;}
	
		.st67{fill-rule:evenodd;clip-rule:evenodd;fill:url(#SVGID_00000017488385129455018310000000571776553360045449_);stroke:url(#SVGID_00000113334790168764337370000006450290742343474580_);stroke-width:0.5;stroke-miterlimit:10;}
	
		.st68{fill-rule:evenodd;clip-rule:evenodd;fill:url(#SVGID_00000066483822796076707310000005747714118728313007_);stroke:url(#SVGID_00000181053192600553137350000014737507171796010150_);stroke-width:0.5;stroke-miterlimit:10;}
	.st69{fill:#151415;}
	.st70{fill:url(#SVGID_00000052091345655247333700000002433912231293034430_);}
	.st71{fill:#740077;}
	.st72{fill:#B4B2B2;}
	.st73{fill:url(#SVGID_00000178884122427771256660000002427719181996742562_);}
	.st74{fill:url(#Graphic_00000122715052621788653240000007400554343978739367_);}
	.st75{fill:url(#Graphic_00000059992502165672151250000000233012052005147020_);}
	.st76{fill:url(#Graphic_00000102506005656248623630000007509233818741222579_);}
	.st77{fill:url(#SVGID_00000058585948304755434390000006164618386353718668_);}
	.st78{fill:#172332;}
	.st79{fill:url(#SVGID_00000006705900095388300100000015581517216796516743_);}
	.st80{fill:url(#SVGID_00000163045139387821143480000016934695985483128452_);}
	
		.st81{fill:url(#SVGID_00000068638619467572562590000013304035321945199238_);stroke:url(#SVGID_00000054231123158996127210000007016023359874064561_);stroke-width:0.5;stroke-miterlimit:10;}
	.st82{fill:url(#SVGID_00000031182332793772003490000015724825089552929713_);}
	.st83{fill:#FFFFFF;}
	.st84{fill:url(#SVGID_00000080166505780212206050000001521679959861244859_);}
	.st85{clip-path:url(#SVGID_00000141448189098764795400000002263641740751135877_);}
	.st86{clip-path:url(#SVGID_00000024696827067816238960000016708227299475936190_);}
	.st87{clip-path:url(#SVGID_00000054263059001445842100000016988000856241410457_);}
	.st88{fill-rule:evenodd;clip-rule:evenodd;fill:#CCA45F;}
	.st89{clip-path:url(#SVGID_00000044168709767020797070000010524111046287713204_);}
	.st90{fill-rule:evenodd;clip-rule:evenodd;fill:#FFFFFF;}
	.st91{fill:url(#SVGID_00000027587609345846191700000008210306416820449466_);}
	.st92{fill-rule:evenodd;clip-rule:evenodd;fill:url(#SVGID_00000083809289843214758690000009836429126129788604_);}
	.st93{fill:url(#SVGID_00000080192484309477670810000014970604684857917086_);}
	.st94{fill:none;stroke:url(#hand_x5F_3_00000156574781133705498290000003577152510920704663_);stroke-miterlimit:10;}
	.st95{fill:url(#SVGID_00000137130810898122229190000014968268818661375423_);}
	.st96{fill:url(#SVGID_00000037673083157302588710000013367558354788391611_);}
	.st97{fill:url(#SVGID_00000021815306575712667180000005693518402012886407_);}
	.st98{fill:url(#SVGID_00000173881886654769408770000013420008318117302941_);}
	.st99{fill:#E0C195;}
	.st100{fill:url(#SVGID_00000020377680439188301530000005359270284718482587_);}
	.st101{fill:url(#SVGID_00000026124908735539105400000015791388209841811896_);}
	.st102{fill:url(#SVGID_00000022554259619818784550000014864179257252798853_);}
	.st103{fill:url(#SVGID_00000052086162455301019150000004944500230160331920_);}
	.st104{fill:url(#SVGID_00000004522143509902021930000006413059343093013401_);}
	.st105{fill:url(#SVGID_00000124130114277895758990000015167247922348798593_);}
	.st106{fill:url(#SVGID_00000047748489314893160150000011377140688504654768_);}
	.st107{fill:#560046;}
	.st108{fill:url(#SVGID_00000166654793634455667000000003704460417945611199_);}
	.st109{fill:url(#SVGID_00000090285327007835689460000006211555707439766972_);}
	.st110{fill:url(#SVGID_00000083082620800725476190000014589823808699781251_);}
	.st111{fill:url(#SVGID_00000014607909840920185680000016537537242943865753_);}
	.st112{fill:url(#SVGID_00000006703986702457614310000013747459970701453758_);}
</style>
<g id="Layer_1">
</g>
<g id="Layer_2">
</g>
<g id="Layer_3">
</g>
<g id="Layer_4">
</g>
<g id="Layer_5">
</g>
<g id="Layer_6">
</g>
<g id="Layer_7">
</g>
<g id="Layer_8">
</g>
<g id="Layer_9">
</g>
<g id="Layer_10">
</g>
<g id="Layer_11">
</g>
<g id="Layer_12">
</g>
<g id="Layer_13">
</g>
<g id="Layer_14">
</g>
<g id="Logo_1-15">
	<path d="M175.88,103.01h17.69l-17.69,38.29V103.01z M156.4,101.24h17.04l-8.15-15.42L156.4,101.24z M174.12,141.3v-38.29h-17.69
		L174.12,141.3z M200.49,84.5h-14.51l8.87,15.38L200.49,84.5z M193.6,101.24l-8.89-15.42l-8.15,15.42H193.6z M195.58,103.01
		l-0.38,1.02l-0.09-0.16l-18.19,39.4l37.7-40.26H195.58z M175,100.41l8.41-15.91H175h-8.41L175,100.41z M196.23,101.24h18.52
		l-12.67-15.93L196.23,101.24z M155.15,99.88l8.87-15.38h-14.51L155.15,99.88z M154.89,103.87l-0.09,0.16l-0.38-1.02h-19.04
		l37.7,40.26L154.89,103.87z M153.77,101.24l-5.85-15.93l-12.67,15.93H153.77z M196.26,75.92h-42.52v3.38h42.52V75.92z
		 M149.93,59.82c5.45,0,9.62-1.54,12.81-3.8c-8.89-11.65-22.9-10.86-22.9-10.86l7.53,14.48l1.58,0.15
		C148.95,59.79,149.31,59.82,149.93,59.82z M201.06,59.79l1.56-0.14l7.53-14.49c0,0-14-0.78-22.9,10.87
		c3.19,2.25,7.36,3.8,12.81,3.8C200.69,59.82,201.05,59.79,201.06,59.79z M175,30.66l-9.63,9.63l9.63,9.63l9.63-9.63L175,30.66z
		 M201.28,62.23l-5.02,10.88H175h-21.26l-5.02-10.88c0,0,15.03,1.42,22.8-12.31L175,53.4l3.48-3.48
		C186.25,63.65,201.28,62.23,201.28,62.23z M158.67,66.62c0-0.99-0.8-1.79-1.79-1.79s-1.79,0.8-1.79,1.79c0,0.99,0.8,1.79,1.79,1.79
		S158.67,67.6,158.67,66.62z M167.08,65.27c0-0.99-0.8-1.79-1.79-1.79c-0.99,0-1.79,0.8-1.79,1.79c0,0.99,0.8,1.79,1.79,1.79
		C166.28,67.06,167.08,66.26,167.08,65.27z M180.32,64.02L175,58.7l-5.32,5.32l5.32,5.32L180.32,64.02z M186.5,65.27
		c0-0.99-0.8-1.79-1.79-1.79c-0.99,0-1.79,0.8-1.79,1.79c0,0.99,0.8,1.79,1.79,1.79C185.7,67.06,186.5,66.26,186.5,65.27z
		 M194.91,66.62c0-0.99-0.8-1.79-1.79-1.79c-0.99,0-1.79,0.8-1.79,1.79c0,0.99,0.8,1.79,1.79,1.79
		C194.11,68.41,194.91,67.6,194.91,66.62z M161.99,35.76c0.06,0.4,0.1,0.8,0.1,1.22c0,4.43-3.59,8.02-8.02,8.02
		c-1.66,0-3.2-0.5-4.48-1.36c1.26,2.25,3.66,3.76,6.42,3.76c4.06,0,7.36-3.29,7.36-7.36C163.37,38.44,162.86,36.96,161.99,35.76z
		 M186.63,40.04c0,4.06,3.29,7.36,7.36,7.36c2.76,0,5.16-1.52,6.42-3.76c-1.28,0.86-2.82,1.36-4.48,1.36
		c-4.43,0-8.02-3.59-8.02-8.02c0-0.42,0.04-0.82,0.1-1.22C187.14,36.96,186.63,38.44,186.63,40.04z M175,152.87
		c-31.99-4.26-56.28-28.72-60.13-62.11c-0.06,0-0.1,0.01-0.16,0.01c3.28,34.07,27.83,59.2,60.29,63.99V152.87z M149.76,156.79
		c-1.48,0.28-2.23,0.41-3.75,0.62c1.61-0.05,2.41-0.1,3.98-0.23c1.26,0.42,5.21,1.47,8.51,0.61c4.01-1.05,5.42-4.2,5.42-4.2
		s-4.49-0.96-8.42-0.09C152.29,154.21,150.35,156.11,149.76,156.79z M149.76,156.79c-1.48,0.28-2.23,0.41-3.75,0.62
		c6.11-0.69,12.12-1.71,17.92-3.83c0,0-4.49-0.96-8.42-0.09C152.29,154.21,150.35,156.11,149.76,156.79z M158.85,145.42
		c1.81,3.24,6.01,4.95,6.01,4.95s0.32-3.32-1.56-6.41c-1.55-2.54-4.02-4.27-4.85-4.83c-0.59-1.15-0.87-1.73-1.37-2.89
		c0.36,1.2,0.57,1.8,1.01,3C157.88,140.09,157.36,142.76,158.85,145.42z M158.85,145.42c1.81,3.24,6.01,4.95,6.01,4.95
		c-3.17-4.56-5.65-9.01-7.78-14.13c0.36,1.2,0.57,1.8,1.01,3C157.88,140.09,157.36,142.76,158.85,145.42z M141.79,151.68
		c-1.39,0.1-2.09,0.14-3.5,0.18c1.48,0.12,2.22,0.16,3.68,0.2c1.11,0.53,4.59,1.92,7.71,1.5c3.79-0.51,5.48-3.24,5.48-3.24
		s-3.99-1.42-7.69-1.05C144.4,149.56,142.4,151.11,141.79,151.68z M141.79,151.68c-1.39,0.1-2.09,0.14-3.5,0.18
		c5.64,0.12,11.35-0.3,16.86-1.54c0,0-3.99-1.42-7.69-1.05C144.4,149.56,142.4,151.11,141.79,151.68z M151.5,142.12
		c1.29,3.2,4.92,5.28,4.92,5.28s0.72-3.03-0.64-6.11c-1.12-2.54-3.22-4.42-3.93-5.04c-0.42-1.14-0.61-1.71-0.96-2.84
		c0.21,1.15,0.33,1.73,0.61,2.9C151.22,137.08,150.44,139.49,151.5,142.12z M151.5,142.12c1.29,3.2,4.92,5.28,4.92,5.28
		c-2.31-4.53-4.31-9.03-5.52-13.99c0.21,1.15,0.33,1.73,0.61,2.9C151.22,137.08,150.44,139.49,151.5,142.12z M134.58,145.71
		c-1.28-0.05-1.93-0.09-3.23-0.2c1.34,0.26,2.01,0.37,3.34,0.57c0.95,0.6,3.96,2.25,6.86,2.22c3.52-0.04,5.4-2.34,5.4-2.34
		s-3.47-1.77-6.91-1.85C137.22,144.04,135.21,145.26,134.58,145.71z M134.58,145.71c-1.28-0.05-1.93-0.09-3.23-0.2
		c5.27,0.58,10.3,0.74,15.6,0.44c0,0-3.47-1.77-6.91-1.85C137.22,144.04,135.21,145.26,134.58,145.71z M144.63,137.95
		c0.82,3.1,3.88,5.43,3.88,5.43s1.05-2.7,0.16-5.7c-0.73-2.47-2.46-4.46-3.05-5.11c-0.27-1.1-0.38-1.65-0.59-2.74
		c0.08,1.09,0.13,1.64,0.26,2.75C144.94,133.26,143.96,135.4,144.63,137.95z M144.63,137.95c0.82,3.1,3.88,5.43,3.88,5.43
		c-1.7-4.35-2.89-8.91-3.49-13.54c0.08,1.09,0.13,1.64,0.26,2.75C144.94,133.26,143.96,135.4,144.63,137.95z M128.21,138.99
		c-1.16-0.18-1.75-0.28-2.92-0.52c1.19,0.37,1.79,0.55,2.98,0.86c0.8,0.65,3.35,2.47,5.99,2.77c3.21,0.36,5.2-1.52,5.2-1.52
		s-2.95-2.03-6.08-2.48C130.81,137.75,128.83,138.65,128.21,138.99z M128.21,138.99c-1.16-0.18-1.75-0.28-2.92-0.52
		c4.64,1.19,9.39,1.91,14.18,2.12c0,0-2.95-2.03-6.08-2.48C130.81,137.75,128.83,138.65,128.21,138.99z M138.32,132.96
		c0.4,2.93,2.92,5.42,2.92,5.42s1.29-2.34,0.82-5.2c-0.39-2.35-1.77-4.38-2.24-5.05c-0.13-1.04-0.18-1.56-0.26-2.59
		c-0.04,1.01-0.05,1.53-0.05,2.56C139.12,128.69,137.99,130.55,138.32,132.96z M138.32,132.96c0.4,2.93,2.92,5.42,2.92,5.42
		c-1.03-4.2-1.6-8.51-1.68-12.83c-0.04,1.01-0.05,1.53-0.05,2.56C139.12,128.69,137.99,130.55,138.32,132.96z M122.73,131.62
		c-1.04-0.29-1.56-0.44-2.59-0.77c1.04,0.46,1.57,0.68,2.61,1.1c0.65,0.67,2.76,2.6,5.11,3.17c2.87,0.69,4.9-0.78,4.9-0.78
		s-2.44-2.19-5.23-2.94C125.23,130.77,123.34,131.37,122.73,131.62z M122.73,131.62c-1.04-0.29-1.56-0.44-2.59-0.77
		c4.08,1.56,8.32,2.74,12.62,3.48c0,0-2.44-2.19-5.23-2.94C125.23,130.77,123.34,131.37,122.73,131.62z M132.65,127.21
		c0.04,2.72,2.04,5.28,2.04,5.28s1.46-1.97,1.35-4.63c-0.09-2.19-1.14-4.21-1.5-4.87c-0.01-0.97,0-1.45,0.03-2.4
		c-0.14,0.93-0.2,1.4-0.31,2.34C133.84,123.41,132.62,124.98,132.65,127.21z M132.65,127.21c0.04,2.72,2.04,5.28,2.04,5.28
		c-0.31-4.09-0.35-7.81-0.12-11.91c-0.14,0.93-0.2,1.4-0.31,2.34C133.84,123.41,132.62,124.98,132.65,127.21z M118.2,123.69
		c-0.9-0.37-1.35-0.56-2.25-0.97c0.89,0.52,1.34,0.78,2.23,1.26c0.51,0.67,2.19,2.63,4.25,3.41c2.5,0.95,4.51-0.13,4.51-0.13
		s-1.95-2.26-4.38-3.26C120.55,123.18,118.77,123.53,118.2,123.69z M118.2,123.69c-0.9-0.37-1.35-0.56-2.25-0.97
		c3.66,1.77,7.14,3.21,10.99,4.54c0,0-1.95-2.26-4.38-3.26C120.55,123.18,118.77,123.53,118.2,123.69z M127.7,120.77
		c-0.26,2.47,1.24,5.01,1.24,5.01s1.55-1.6,1.75-4.03c0.16-1.99-0.57-3.96-0.83-4.61c0.09-0.88,0.15-1.32,0.28-2.19
		c-0.22,0.83-0.32,1.25-0.52,2.1C129.18,117.46,127.91,118.74,127.7,120.77z M127.7,120.77c-0.26,2.47,1.24,5.01,1.24,5.01
		c0.03-3.57,0.44-7.33,1.19-10.82c-0.22,0.83-0.32,1.25-0.52,2.1C129.18,117.46,127.91,118.74,127.7,120.77z M114.66,115.28
		c-0.76-0.43-1.15-0.65-1.91-1.11c0.74,0.56,1.11,0.84,1.86,1.37c0.38,0.66,1.66,2.59,3.41,3.52c2.12,1.13,4.04,0.41,4.04,0.41
		s-1.48-2.26-3.54-3.42C116.82,115.09,115.19,115.2,114.66,115.28z M114.66,115.28c-0.76-0.43-1.15-0.65-1.91-1.11
		c2.89,2.01,6.1,3.84,9.3,5.3c0,0-1.48-2.26-3.54-3.42C116.82,115.09,115.19,115.2,114.66,115.28z M123.54,113.7
		c-0.5,2.19,0.55,4.65,0.55,4.65s1.57-1.24,2.02-3.41c0.37-1.78-0.09-3.65-0.25-4.26c0.18-0.79,0.27-1.18,0.47-1.95
		c-0.28,0.73-0.42,1.1-0.68,1.85C125.22,110.88,123.95,111.9,123.54,113.7z M123.54,113.7c-0.5,2.19,0.55,4.65,0.55,4.65
		c0.6-4.02,1.06-5.95,2.23-9.62c-0.28,0.73-0.42,1.1-0.68,1.85C125.22,110.88,123.95,111.9,123.54,113.7z M112.18,106.49
		c-0.63-0.46-0.94-0.7-1.56-1.19c0.59,0.58,0.89,0.86,1.49,1.41c0.27,0.62,1.18,2.47,2.61,3.5c1.74,1.25,3.51,0.84,3.51,0.84
		s-1.05-2.18-2.74-3.45C114.1,106.56,112.65,106.48,112.18,106.49z M112.18,106.49c-0.63-0.46-0.94-0.7-1.56-1.19
		c2.95,2.59,4.49,3.74,7.61,5.75c0,0-1.05-2.18-2.74-3.45C114.1,106.56,112.65,106.48,112.18,106.49z M120.27,106.07
		c-0.68,1.9-0.03,4.21-0.03,4.21s1.53-0.91,2.16-2.79c0.52-1.54,0.32-3.28,0.23-3.85c0.24-0.69,0.36-1.03,0.62-1.71
		c-0.32,0.63-0.48,0.94-0.79,1.58C122.05,103.74,120.83,104.51,120.27,106.07z M120.27,106.07c-0.68,1.9-0.03,4.21-0.03,4.21
		c0.99-3.5,1.6-5.17,3.01-8.35c-0.32,0.63-0.48,0.94-0.79,1.58C122.05,103.74,120.83,104.51,120.27,106.07z M110.8,97.41
		c-0.49-0.47-0.74-0.72-1.23-1.21c0.45,0.57,0.68,0.85,1.14,1.39c0.16,0.58,0.75,2.29,1.88,3.35c1.37,1.29,2.95,1.15,2.95,1.15
		s-0.66-2.05-1.99-3.35C112.45,97.67,111.21,97.45,110.8,97.41z M110.8,97.41c-0.49-0.47-0.74-0.72-1.23-1.21
		c2.29,2.59,3.49,3.77,5.96,5.9c0,0-0.66-2.05-1.99-3.35C112.45,97.67,111.21,97.45,110.8,97.41z M117.96,97.93
		c-0.79,1.6-0.5,3.71-0.5,3.71s1.43-0.61,2.19-2.2c0.62-1.31,0.63-2.87,0.62-3.39c0.28-0.59,0.42-0.88,0.71-1.45
		c-0.35,0.52-0.52,0.79-0.85,1.32C119.75,96.07,118.61,96.62,117.96,97.93z M117.96,97.93c-0.79,1.6-0.5,3.71-0.5,3.71
		c1.26-2.95,1.97-4.37,3.53-7.04c-0.35,0.52-0.52,0.79-0.85,1.32C119.75,96.07,118.61,96.62,117.96,97.93z M114.75,85.55
		c-0.04-1.17-0.05-1.76-0.04-2.95c-0.1,1.18-0.14,1.77-0.2,2.95c-0.35,0.71-1.32,2.99-1.12,5.63c0.24,3.21,2.08,5.52,2.08,5.52
		s1.01-2.66,0.78-5.73C116.06,88.42,115.09,86.26,114.75,85.55z M114.75,85.55c-0.04-1.17-0.05-1.76-0.04-2.95
		c-0.22,4.71,0.03,9.43,0.77,14.09c0,0,1.01-2.66,0.78-5.73C116.06,88.42,115.09,86.26,114.75,85.55z M175,154.76
		c32.46-4.79,57.01-29.93,60.29-63.99c-0.06,0-0.1-0.01-0.16-0.01c-3.85,33.39-28.14,57.85-60.13,62.11V154.76z M194.48,153.5
		c-3.93-0.87-8.42,0.09-8.42,0.09s1.41,3.15,5.42,4.2c3.3,0.86,7.25-0.18,8.51-0.61c1.58,0.14,2.38,0.18,3.98,0.23
		c-1.52-0.21-2.27-0.34-3.75-0.62C199.65,156.11,197.71,154.21,194.48,153.5z M194.48,153.5c-3.93-0.87-8.42,0.09-8.42,0.09
		c5.8,2.12,11.81,3.14,17.92,3.83c-1.52-0.21-2.27-0.34-3.75-0.62C199.65,156.11,197.71,154.21,194.48,153.5z M191.91,139.23
		c0.44-1.2,0.65-1.8,1.01-3c-0.51,1.16-0.78,1.74-1.37,2.89c-0.83,0.56-3.3,2.29-4.85,4.83c-1.88,3.09-1.56,6.41-1.56,6.41
		s4.2-1.71,6.01-4.95C192.64,142.76,192.12,140.09,191.91,139.23z M191.91,139.23c0.44-1.2,0.65-1.8,1.01-3
		c-2.13,5.12-4.61,9.58-7.78,14.13c0,0,4.2-1.71,6.01-4.95C192.64,142.76,192.12,140.09,191.91,139.23z M202.55,149.26
		c-3.7-0.36-7.69,1.05-7.69,1.05s1.68,2.74,5.48,3.24c3.12,0.42,6.6-0.97,7.71-1.5c1.46-0.04,2.2-0.08,3.68-0.2
		c-1.41-0.04-2.12-0.08-3.5-0.18C207.6,151.11,205.6,149.56,202.55,149.26z M202.55,149.26c-3.7-0.36-7.69,1.05-7.69,1.05
		c5.51,1.24,11.22,1.66,16.86,1.54c-1.41-0.04-2.12-0.08-3.5-0.18C207.6,151.11,205.6,149.56,202.55,149.26z M198.5,136.31
		c0.28-1.16,0.4-1.74,0.61-2.9c-0.35,1.14-0.54,1.7-0.96,2.84c-0.71,0.61-2.81,2.5-3.93,5.04c-1.36,3.08-0.64,6.11-0.64,6.11
		s3.63-2.08,4.92-5.28C199.56,139.49,198.78,137.08,198.5,136.31z M198.5,136.31c0.28-1.16,0.4-1.74,0.61-2.9
		c-1.22,4.96-3.21,9.46-5.52,13.99c0,0,3.63-2.08,4.92-5.28C199.56,139.49,198.78,137.08,198.5,136.31z M209.95,144.1
		c-3.44,0.08-6.91,1.85-6.91,1.85s1.88,2.31,5.4,2.34c2.9,0.03,5.91-1.62,6.86-2.22c1.33-0.19,2-0.31,3.34-0.57
		c-1.3,0.11-1.94,0.15-3.23,0.2C214.79,145.26,212.78,144.04,209.95,144.1z M209.95,144.1c-3.44,0.08-6.91,1.85-6.91,1.85
		c5.29,0.3,10.33,0.14,15.6-0.44c-1.3,0.11-1.94,0.15-3.23,0.2C214.79,145.26,212.78,144.04,209.95,144.1z M204.71,132.59
		c0.13-1.1,0.18-1.65,0.26-2.75c-0.2,1.09-0.32,1.64-0.59,2.74c-0.59,0.65-2.32,2.64-3.05,5.11c-0.89,3,0.16,5.7,0.16,5.7
		s3.07-2.34,3.88-5.43C206.04,135.4,205.06,133.26,204.71,132.59z M204.71,132.59c0.13-1.1,0.18-1.65,0.26-2.75
		c-0.6,4.64-1.79,9.19-3.49,13.54c0,0,3.07-2.34,3.88-5.43C206.04,135.4,205.06,133.26,204.71,132.59z M216.62,138.12
		c-3.13,0.45-6.08,2.48-6.08,2.48s1.99,1.88,5.2,1.52c2.64-0.3,5.19-2.12,5.99-2.77c1.19-0.32,1.79-0.49,2.98-0.86
		c-1.17,0.23-1.76,0.34-2.92,0.52C221.17,138.65,219.19,137.75,216.62,138.12z M216.62,138.12c-3.13,0.45-6.08,2.48-6.08,2.48
		c4.78-0.2,9.54-0.93,14.18-2.12c-1.17,0.23-1.76,0.34-2.92,0.52C221.17,138.65,219.19,137.75,216.62,138.12z M210.49,128.11
		c0-1.03-0.01-1.54-0.05-2.56c-0.08,1.03-0.13,1.55-0.26,2.59c-0.47,0.67-1.86,2.7-2.24,5.05c-0.47,2.86,0.82,5.2,0.82,5.2
		s2.52-2.49,2.92-5.42C212.01,130.55,210.88,128.69,210.49,128.11z M210.49,128.11c0-1.03-0.01-1.54-0.05-2.56
		c-0.08,4.32-0.65,8.63-1.68,12.83c0,0,2.52-2.49,2.92-5.42C212.01,130.55,210.88,128.69,210.49,128.11z M222.47,131.39
		c-2.79,0.75-5.23,2.94-5.23,2.94s2.04,1.47,4.9,0.78c2.36-0.57,4.46-2.49,5.11-3.17c1.05-0.41,1.57-0.63,2.61-1.1
		c-1.04,0.33-1.56,0.49-2.59,0.77C226.66,131.37,224.77,130.77,222.47,131.39z M222.47,131.39c-2.79,0.75-5.23,2.94-5.23,2.94
		c4.31-0.75,8.54-1.92,12.62-3.48c-1.04,0.33-1.56,0.49-2.59,0.77C226.66,131.37,224.77,130.77,222.47,131.39z M215.74,122.92
		c-0.1-0.94-0.17-1.41-0.31-2.34c0.03,0.95,0.04,1.43,0.03,2.4c-0.36,0.66-1.41,2.69-1.5,4.87c-0.11,2.66,1.35,4.63,1.35,4.63
		s1.99-2.56,2.04-5.28C217.38,124.98,216.16,123.41,215.74,122.92z M215.74,122.92c-0.1-0.94-0.17-1.41-0.31-2.34
		c0.23,4.09,0.19,7.82-0.12,11.91c0,0,1.99-2.56,2.04-5.28C217.38,124.98,216.16,123.41,215.74,122.92z M227.45,124
		c-2.43,0.99-4.38,3.26-4.38,3.26s2.01,1.08,4.51,0.13c2.06-0.78,3.73-2.74,4.25-3.41c0.9-0.48,1.34-0.74,2.23-1.26
		c-0.9,0.41-1.35,0.6-2.25,0.97C231.23,123.53,229.45,123.18,227.45,124z M227.45,124c-2.43,0.99-4.38,3.26-4.38,3.26
		c3.84-1.33,7.32-2.78,10.99-4.54c-0.9,0.41-1.35,0.6-2.25,0.97C231.23,123.53,229.45,123.18,227.45,124z M220.39,117.06
		c-0.19-0.85-0.3-1.27-0.52-2.1c0.13,0.87,0.18,1.31,0.28,2.19c-0.26,0.65-1,2.61-0.83,4.61c0.2,2.42,1.75,4.03,1.75,4.03
		s1.5-2.54,1.24-5.01C222.09,118.74,220.82,117.46,220.39,117.06z M220.39,117.06c-0.19-0.85-0.3-1.27-0.52-2.1
		c0.75,3.49,1.15,7.25,1.19,10.82c0,0,1.5-2.54,1.24-5.01C222.09,118.74,220.82,117.46,220.39,117.06z M231.49,116.04
		c-2.06,1.16-3.54,3.42-3.54,3.42s1.92,0.72,4.04-0.41c1.75-0.93,3.02-2.86,3.41-3.52c0.75-0.53,1.12-0.8,1.86-1.37
		c-0.76,0.46-1.14,0.68-1.91,1.11C234.81,115.2,233.18,115.09,231.49,116.04z M231.49,116.04c-2.06,1.16-3.54,3.42-3.54,3.42
		c3.2-1.46,6.41-3.29,9.3-5.3c-0.76,0.46-1.14,0.68-1.91,1.11C234.81,115.2,233.18,115.09,231.49,116.04z M224.35,110.58
		c-0.26-0.75-0.4-1.12-0.68-1.85c0.2,0.77,0.29,1.16,0.47,1.95c-0.17,0.62-0.62,2.48-0.25,4.26c0.45,2.16,2.02,3.41,2.02,3.41
		s1.05-2.46,0.55-4.65C226.05,111.9,224.78,110.88,224.35,110.58z M224.35,110.58c-0.26-0.75-0.4-1.12-0.68-1.85
		c1.18,3.67,1.64,5.6,2.23,9.62c0,0,1.05-2.46,0.55-4.65C226.05,111.9,224.78,110.88,224.35,110.58z M234.51,107.6
		c-1.69,1.27-2.74,3.45-2.74,3.45s1.77,0.4,3.51-0.84c1.43-1.02,2.34-2.87,2.61-3.5c0.6-0.55,0.9-0.83,1.49-1.41
		c-0.62,0.49-0.93,0.72-1.56,1.19C237.35,106.48,235.9,106.56,234.51,107.6z M234.51,107.6c-1.69,1.27-2.74,3.45-2.74,3.45
		c3.12-2.01,4.66-3.15,7.61-5.75c-0.62,0.49-0.93,0.72-1.56,1.19C237.35,106.48,235.9,106.56,234.51,107.6z M227.54,103.51
		c-0.31-0.64-0.47-0.96-0.79-1.58c0.26,0.68,0.38,1.02,0.62,1.71c-0.08,0.57-0.29,2.31,0.23,3.85c0.63,1.88,2.16,2.79,2.16,2.79
		s0.65-2.31-0.03-4.21C229.17,104.51,227.95,103.74,227.54,103.51z M227.54,103.51c-0.31-0.64-0.47-0.96-0.79-1.58
		c1.41,3.17,2.03,4.85,3.01,8.35c0,0,0.65-2.31-0.03-4.21C229.17,104.51,227.95,103.74,227.54,103.51z M236.46,98.75
		c-1.33,1.31-1.99,3.35-1.99,3.35s1.58,0.14,2.95-1.15c1.12-1.06,1.71-2.78,1.88-3.35c0.46-0.55,0.69-0.83,1.14-1.39
		c-0.49,0.49-0.73,0.73-1.23,1.21C238.79,97.45,237.55,97.67,236.46,98.75z M236.46,98.75c-1.33,1.31-1.99,3.35-1.99,3.35
		c2.47-2.14,3.68-3.32,5.96-5.9c-0.49,0.49-0.73,0.73-1.23,1.21C238.79,97.45,237.55,97.67,236.46,98.75z M229.87,95.92
		c-0.33-0.54-0.51-0.8-0.85-1.32c0.29,0.57,0.44,0.86,0.71,1.45c-0.01,0.52,0,2.09,0.62,3.39c0.76,1.59,2.19,2.2,2.19,2.2
		s0.3-2.11-0.5-3.71C231.39,96.62,230.25,96.07,229.87,95.92z M229.87,95.92c-0.33-0.54-0.51-0.8-0.85-1.32
		c1.56,2.68,2.27,4.09,3.53,7.04c0,0,0.3-2.11-0.5-3.71C231.39,96.62,230.25,96.07,229.87,95.92z M233.75,90.96
		c-0.23,3.08,0.78,5.73,0.78,5.73s1.84-2.31,2.08-5.52c0.2-2.64-0.77-4.92-1.12-5.63c-0.05-1.18-0.09-1.76-0.2-2.95
		c0.01,1.19,0,1.78-0.04,2.95C234.91,86.26,233.94,88.42,233.75,90.96z M233.75,90.96c-0.23,3.08,0.78,5.73,0.78,5.73
		c0.74-4.65,0.99-9.38,0.77-14.09c0.01,1.19,0,1.78-0.04,2.95C234.91,86.26,233.94,88.42,233.75,90.96z"/>
</g>
</svg>
