<?xml version="1.0" encoding="utf-8"?>
<!-- Generator: Adobe Illustrator 27.8.1, SVG Export Plug-In . SVG Version: 6.00 Build 0)  -->
<svg version="1.1" xmlns="http://www.w3.org/2000/svg" xmlns:xlink="http://www.w3.org/1999/xlink" x="0px" y="0px"
	 viewBox="0 0 350 230" style="enable-background:new 0 0 350 230;" xml:space="preserve">
<style type="text/css">
	.st0{fill:#520106;}
	.st1{fill:#050030;}
	.st2{fill:#F7BBAA;}
	.st3{fill:#FFE8E3;}
	.st4{fill:#FFFDC5;}
	.st5{fill:#004C20;}
	.st6{fill:#E3F2FF;}
	.st7{fill:#162B27;}
	.st8{fill:#2D2C16;}
	.st9{fill:#FFE5C2;}
	.st10{fill:#FFFDD4;}
	.st11{fill:#E2E0BA;}
	.st12{fill:#7DFFB2;}
	.st13{fill:#750006;}
	.st14{fill:#003D42;}
	.st15{fill:#FFFAC2;}
	.st16{fill:#FAFFC7;}
	.st17{fill:#A07200;}
	.st18{fill:#770071;}
	.st19{fill:#03007C;}
	.st20{fill:#F98800;}
	.st21{fill:#002D2D;}
	.st22{fill:#544E00;}
	.st23{stroke:#C2932F;stroke-width:4;stroke-miterlimit:10;}
	.st24{fill:#C2932F;}
	.st25{fill:#BA3838;}
	.st26{fill:#F99300;}
	.st27{fill:#FF0000;}
	.st28{fill:#1B0121;}
	.st29{fill:#A37E33;}
	.st30{fill:#F7E0FC;}
	.st31{fill:#F0F2F5;}
	.st32{fill:#B0CEED;}
	.st33{fill:#DDDD00;}
	.st34{fill:#9700B7;}
	.st35{fill:#9700B7;stroke:#FF0000;stroke-width:4;stroke-miterlimit:10;}
	.st36{fill:#5E43FF;}
	.st37{fill:#004947;}
	.st38{fill:#C38A43;}
	.st39{fill:#600077;}
	.st40{fill:none;stroke:#003DFF;stroke-width:3;stroke-linecap:round;stroke-linejoin:round;stroke-miterlimit:10;}
	.st41{fill-rule:evenodd;clip-rule:evenodd;fill:#FFE267;}
	.st42{fill-rule:evenodd;clip-rule:evenodd;fill:#350034;}
	.st43{fill-rule:evenodd;clip-rule:evenodd;fill:#002800;}
	.st44{fill-rule:evenodd;clip-rule:evenodd;}
	.st45{fill-rule:evenodd;clip-rule:evenodd;fill:#332A00;}
	.st46{fill-rule:evenodd;clip-rule:evenodd;fill:#003D42;}
	.st47{fill-rule:evenodd;clip-rule:evenodd;fill:#003013;}
	.st48{fill-rule:evenodd;clip-rule:evenodd;fill:#750006;}
	.st49{fill-rule:evenodd;clip-rule:evenodd;fill:#560046;}
	.st50{fill-rule:evenodd;clip-rule:evenodd;fill:#050030;}
	.st51{fill-rule:evenodd;clip-rule:evenodd;fill:#000563;}
	.st52{fill:url(#SVGID_1_);}
	.st53{fill:url(#SVGID_00000113347176656871113320000002104751135225613962_);}
	.st54{fill:url(#SVGID_00000018927488155211811940000006745214834880527753_);}
	.st55{fill:url(#SVGID_00000142880257672502919160000006514607873289309864_);}
	.st56{fill:url(#SVGID_00000169544982623665269570000000372684907486135700_);}
	.st57{fill:url(#SVGID_00000127751721548199538350000017347224485314632071_);}
	.st58{fill:url(#SVGID_00000031913832511931410300000005669006656570124931_);}
	.st59{fill:url(#SVGID_00000080175783012116765470000001556321365378617765_);}
	.st60{fill:url(#SVGID_00000169518505339471001190000008305675433376851886_);}
	.st61{fill:url(#SVGID_00000165221557364203308950000003566859058422090686_);}
	.st62{fill:url(#SVGID_00000044887673144944258870000014158689989354885789_);}
	.st63{fill:url(#SVGID_00000116220361861646450390000012300140615534752425_);}
	.st64{fill:url(#SVGID_00000111156145980361100610000014621935188568302782_);}
	.st65{fill:url(#SVGID_00000158021925597289140410000002966055722262855581_);}
	
		.st66{fill:url(#SVGID_00000037689769078699322680000008862424787321195695_);stroke:url(#SVGID_00000138530840545774661730000011375532005134084000_);stroke-width:0.5;stroke-miterlimit:10;}
	
		.st67{fill-rule:evenodd;clip-rule:evenodd;fill:url(#SVGID_00000039134015040134441290000012167126803933759403_);stroke:url(#SVGID_00000146469692921279858370000015021723931802953151_);stroke-width:0.5;stroke-miterlimit:10;}
	
		.st68{fill-rule:evenodd;clip-rule:evenodd;fill:url(#SVGID_00000107560783706032846430000005114930983618011536_);stroke:url(#SVGID_00000080198443057616849890000006734192833450890135_);stroke-width:0.5;stroke-miterlimit:10;}
	.st69{fill:#151415;}
	.st70{fill:url(#SVGID_00000088829827082511939140000006557747412940848054_);}
	.st71{fill:#740077;}
	.st72{fill:#B4B2B2;}
	.st73{fill:url(#SVGID_00000072968104762858090080000004846798709673180590_);}
	.st74{fill:url(#Graphic_00000110443242806634677870000010226433057700323247_);}
	.st75{fill:url(#Graphic_00000098196490475940333800000000582585575000621467_);}
	.st76{fill:url(#Graphic_00000054244961050153730730000004859474164964169651_);}
	.st77{fill:url(#SVGID_00000030454073234215729270000013051286489831084717_);}
	.st78{fill:#172332;}
	.st79{fill:url(#SVGID_00000180325519136719558050000004171127379049742989_);}
	.st80{fill:url(#SVGID_00000170994823615276353340000007118018011360615331_);}
	
		.st81{fill:url(#SVGID_00000098939726640226658690000002996329051248989112_);stroke:url(#SVGID_00000129887907764790100750000009090731557958647983_);stroke-width:0.5;stroke-miterlimit:10;}
	.st82{fill:url(#SVGID_00000021838663850652495990000004668972065514148259_);}
	.st83{fill:#FFFFFF;}
	.st84{fill:url(#SVGID_00000057838029638115377400000001440372717878812059_);}
	.st85{clip-path:url(#SVGID_00000180336497022770359000000009778082164950794162_);}
	.st86{clip-path:url(#SVGID_00000146464484898637753120000012048310109755229585_);}
	.st87{clip-path:url(#SVGID_00000064333992294063023830000004291260167347463850_);}
	.st88{fill-rule:evenodd;clip-rule:evenodd;fill:#CCA45F;}
	.st89{clip-path:url(#SVGID_00000041981871320813996240000008868525659639065244_);}
	.st90{fill-rule:evenodd;clip-rule:evenodd;fill:#FFFFFF;}
	.st91{fill:url(#SVGID_00000003814798338131819360000002189762754743978664_);}
	.st92{fill-rule:evenodd;clip-rule:evenodd;fill:url(#SVGID_00000135649982212004569720000017396609274918650528_);}
	.st93{fill:url(#SVGID_00000126299685402635119900000017198454454161905321_);}
	.st94{fill:none;stroke:url(#hand_x5F_3_00000106142982537221453690000013445514449722692995_);stroke-miterlimit:10;}
	.st95{fill:url(#SVGID_00000163787179482736960770000011066716838714212749_);}
	.st96{fill:url(#SVGID_00000034072760332755174360000008945109452521530516_);}
	.st97{fill:url(#SVGID_00000169522380066803278510000008977541978108634801_);}
	.st98{fill:url(#SVGID_00000064335761975424154910000009331431821770746556_);}
	.st99{fill:#E0C195;}
	.st100{fill:url(#SVGID_00000060718406939722816740000009104384079519531165_);}
	.st101{fill:url(#SVGID_00000022532960023968160720000008092909074304169618_);}
	.st102{fill:url(#SVGID_00000150092650661119240000000009179528318507552652_);}
	.st103{fill:url(#SVGID_00000089540854588147137210000017517416885325325975_);}
	.st104{fill:url(#SVGID_00000178185112670605591080000016203983705107602314_);}
	.st105{fill:url(#SVGID_00000047751073090999351720000017461237498988478337_);}
	.st106{fill:url(#SVGID_00000022548841270116420970000001190152502161121711_);}
	.st107{fill:#560046;}
	.st108{fill:url(#SVGID_00000098178730461690744590000014754445539110050700_);}
	.st109{fill:url(#SVGID_00000115515232618791512340000001892487127345800620_);}
	.st110{fill:url(#SVGID_00000096018188984298151720000002277584812755435455_);}
	.st111{fill:url(#SVGID_00000165939382274208939770000005878286774877728443_);}
	.st112{fill:url(#SVGID_00000093147980577673093220000015024890246995109517_);}
</style>
<g id="Layer_1">
</g>
<g id="Layer_2">
</g>
<g id="Layer_3">
</g>
<g id="Layer_4">
</g>
<g id="Layer_5">
</g>
<g id="Layer_6">
</g>
<g id="Layer_7">
</g>
<g id="Layer_8">
</g>
<g id="Layer_9">
</g>
<g id="Layer_10">
</g>
<g id="Layer_11">
</g>
<g id="Layer_12">
</g>
<g id="Layer_13">
</g>
<g id="Layer_14">
</g>
<g id="Logo_1-15">
	<g>
		<path class="st5" d="M249.96,158.1h-30.25c-0.28,0-0.5-0.22-0.5-0.5s0.22-0.5,0.5-0.5h30.25c0.28,0,0.5,0.22,0.5,0.5
			S250.24,158.1,249.96,158.1z M130.29,158.1h-30.25c-0.28,0-0.5-0.22-0.5-0.5s0.22-0.5,0.5-0.5h30.25c0.28,0,0.5,0.22,0.5,0.5
			S130.57,158.1,130.29,158.1z M247.96,146.89h-8.48c-0.14,0-0.27-0.06-0.37-0.16s-0.14-0.24-0.13-0.38l0.03-0.3
			c-2.48-31.74-26.13-57.59-57.52-62.88c-0.17-0.03-0.32-0.15-0.38-0.31c-0.07-0.16-0.04-0.35,0.06-0.49l0.66-0.88
			c0.1-0.13,0.26-0.22,0.43-0.2c16.38,0.91,31.71,7.43,43.71,18.5c-9.22-12.67-22.38-21.83-37.53-26.03
			c-0.16-0.04-0.29-0.16-0.34-0.32c-0.05-0.16-0.03-0.33,0.07-0.46l1.2-1.61c0.11-0.15,0.3-0.23,0.48-0.19
			c34.08,5.62,58.82,34.81,58.82,69.4c0,1.67-0.08,3.47-0.24,5.51l0.02,0.26c0.01,0.14-0.04,0.28-0.13,0.38
			C248.24,146.83,248.1,146.89,247.96,146.89z M240.01,145.89h7.45c0.15-2.01,0.22-3.72,0.22-5.31c0-33.99-24.24-62.69-57.68-68.36
			L189.42,73c16.71,4.81,30.98,15.61,40.23,30.45c0.14,0.22,0.08,0.5-0.12,0.66c-0.2,0.16-0.49,0.13-0.67-0.05
			c-12.2-12.98-28.66-20.7-46.37-21.75l-0.01,0.02C213.89,87.98,237.48,114,240.01,145.89z M108.77,146.89h-8.52
			c-0.14,0-0.27-0.06-0.37-0.16c-0.09-0.1-0.14-0.24-0.13-0.38l0.02-0.34c-0.16-1.96-0.24-3.76-0.24-5.43
			c0-16.91,6.08-33.25,17.13-46.02c10.94-12.64,26.01-20.99,42.44-23.52c0.19-0.03,0.38,0.05,0.49,0.21l1.07,1.56
			c0.09,0.13,0.11,0.3,0.06,0.46c-0.06,0.15-0.18,0.27-0.34,0.31c-15.42,4.12-28.8,13.34-38.16,26.21
			c12.06-11.14,27.49-17.67,43.97-18.53c0.15-0.01,0.34,0.07,0.44,0.21l0.6,0.87c0.1,0.14,0.12,0.32,0.05,0.48s-0.21,0.27-0.38,0.3
			c-31.23,5.17-54.94,30.82-57.66,62.38l0.02,0.87c0,0.13-0.05,0.26-0.14,0.36C109.04,146.84,108.91,146.89,108.77,146.89z
			 M100.76,145.89h7.5l-0.01-0.41c2.73-31.79,26.39-57.64,57.66-63.2c-17.78,1.01-34.3,8.73-46.55,21.77
			c-0.18,0.19-0.47,0.21-0.67,0.05c-0.2-0.16-0.26-0.44-0.12-0.66c9.38-15.06,23.88-25.92,40.88-30.64l-0.5-0.72
			c-33.32,5.29-58.42,34.67-58.42,68.5C100.54,142.19,100.61,143.93,100.76,145.89z M165.23,120.63c-0.01,0-0.03,0-0.04,0
			c-1.63-0.01-3.17-0.66-4.31-1.83c-0.6-0.61-1.06-1.32-1.36-2.1c-0.99,2.09-3.12,3.55-5.58,3.57c-1.33-0.01-2.64-0.51-3.6-1.46
			s-1.5-2.22-1.52-3.58c-0.02-2.3,1.83-4.18,4.13-4.2c0.01,0,0.02,0,0.03,0c1.88,0,3.42,1.52,3.43,3.4c0,0.28-0.22,0.5-0.5,0.5
			c0,0,0,0,0,0c-0.27,0-0.5-0.22-0.5-0.5c0-0.65-0.26-1.26-0.73-1.71c-0.46-0.46-1.05-0.7-1.72-0.7c-0.84,0.01-1.64,0.34-2.23,0.94
			c-0.59,0.6-0.92,1.4-0.91,2.24c0.01,1.09,0.44,2.11,1.22,2.88c0.78,0.77,1.85,1.18,2.89,1.17c2.88-0.02,5.21-2.38,5.18-5.26
			c0-0.06,0.01-0.12,0.03-0.18c0.16-1.77,0.93-3.41,2.21-4.67c1.43-1.41,3.29-2.19,5.34-2.16c2.48,0.02,4.8,1,6.54,2.77
			c0.99,1.01,1.73,2.2,2.17,3.5c1.25-3.62,4.67-6.24,8.71-6.27c0.02,0,0.04,0,0.06,0c1.99,0,3.86,0.77,5.28,2.16
			c1.28,1.26,2.06,2.9,2.22,4.67c0.02,0.06,0.03,0.12,0.03,0.18c-0.02,2.88,2.3,5.24,5.18,5.26c0.01,0,0.02,0,0.03,0
			c2.23,0,4.06-1.81,4.08-4.05c0.01-0.84-0.32-1.64-0.91-2.24c-0.59-0.6-1.39-0.94-2.23-0.94c-0.01,0-0.01,0-0.02,0
			c-1.33,0-2.42,1.08-2.43,2.41c0,0.27-0.23,0.5-0.5,0.5c0,0,0,0,0,0c-0.28,0-0.5-0.23-0.5-0.5c0.01-1.88,1.55-3.4,3.43-3.4
			c0.01,0,0.02,0,0.03,0c2.3,0.02,4.15,1.9,4.13,4.2c-0.01,1.36-0.55,2.63-1.52,3.58c-0.97,0.95-2.22,1.45-3.6,1.46
			c-2.47-0.02-4.59-1.48-5.58-3.57c-0.88,2.28-3.08,3.91-5.67,3.93c-0.01,0-0.03,0-0.04,0c-2.74,0-4.98-2.22-5-4.96
			c0-0.28,0.22-0.5,0.5-0.5c0,0,0,0,0,0c0.27,0,0.5,0.22,0.5,0.5c0.02,2.19,1.81,3.97,4,3.97c0.01,0,0.02,0,0.03,0
			c1.37-0.01,2.65-0.55,3.61-1.53c0.96-0.97,1.48-2.27,1.47-3.63c-0.01-1.74-0.71-3.38-1.95-4.6c-1.24-1.22-2.84-1.88-4.63-1.88
			c-4.52,0.04-8.18,3.71-8.22,8.21c0,0.05,0,0.09,0,0.14l0,0c0,0.06-0.01,0.12-0.03,0.17l0,0c0,0,0,0,0,0v0c0,0,0,0,0,0l0,0l0,0
			c0,0,0,0,0,0l0,0c0,0,0,0,0,0v0c0,0,0,0,0,0l0,0c0,0,0,0,0,0s0,0,0,0c0,0,0,0,0,0l0,0c-0.02,0.05-0.05,0.1-0.09,0.14l0,0
			c0,0,0,0,0,0c0,0,0,0,0,0l0,0c-0.06,0.07-0.14,0.12-0.23,0.15c-0.05,0.02-0.1,0.02-0.15,0.02h0c0,0,0,0,0,0l0,0c0,0,0,0,0,0l0,0
			l0,0c-0.07,0-0.13-0.01-0.19-0.04l0,0c0,0,0,0,0,0l0,0c0,0,0,0,0,0l0,0c0,0,0,0,0,0c0,0,0,0,0,0l0,0l0,0c0,0,0,0,0,0l0,0
			c0,0,0,0,0,0l0,0c0,0,0,0,0,0h0l0,0c0,0,0,0,0,0h0l0,0c0,0,0,0,0,0s0,0,0,0c0,0,0,0,0,0l0,0c-0.02-0.01-0.04-0.02-0.06-0.03l0,0
			c0,0,0,0,0,0l0,0c0,0,0,0,0,0s0,0,0,0c0,0,0,0,0,0l0,0c0,0,0,0,0,0l0,0c0,0,0,0,0,0v0c0,0,0,0,0,0c0,0,0,0,0,0c0,0,0,0,0,0l0,0
			c0,0,0,0,0,0l0,0c0,0,0,0,0,0h0c0,0,0,0,0,0c0,0,0,0,0,0l0,0l0,0l0,0c-0.09-0.06-0.16-0.15-0.19-0.26l0,0c0,0,0,0,0,0l0,0
			c0,0,0,0,0,0c0,0,0,0,0,0c0,0,0,0,0,0l0,0c0,0,0,0,0,0v0h0c-0.01-0.05-0.02-0.1-0.02-0.15c0-0.05,0-0.09,0-0.14
			c-0.02-2.16-0.86-4.2-2.38-5.74c-1.55-1.58-3.63-2.46-5.84-2.47c-0.02,0-0.03,0-0.05,0c-3.58,0-6.5,2.89-6.53,6.48
			c-0.01,1.37,0.51,2.66,1.47,3.63c0.96,0.98,2.24,1.52,3.61,1.53c1.11-0.02,2.08-0.4,2.84-1.15c0.76-0.75,1.18-1.75,1.19-2.82
			c0-0.27,0.23-0.5,0.5-0.5c0,0,0,0,0,0c0.28,0,0.5,0.23,0.5,0.5c-0.01,1.33-0.54,2.59-1.49,3.52
			C167.8,120.12,166.55,120.63,165.23,120.63z M174.8,78.29c-0.2,0-0.38-0.12-0.46-0.3l-12.23-28.16c-0.03-0.06-0.04-0.13-0.04-0.2
			c0-0.08,0.02-0.17,0.06-0.24l0.24-0.44c0.09-0.16,0.26-0.26,0.44-0.26h23.98c0.18,0,0.35,0.1,0.44,0.26l0.24,0.43
			c0.04,0.07,0.06,0.16,0.06,0.24c0,0.07-0.01,0.13-0.04,0.2l-12.23,28.16C175.18,78.17,175,78.29,174.8,78.29z M163.15,49.69
			l11.66,26.84l11.65-26.84H163.15z M179.03,77.26c-0.09,0-0.17-0.02-0.25-0.07c-0.21-0.13-0.32-0.37-0.22-0.6l11.37-26.59
			c0.08-0.19,0.09-0.42,0.03-0.71c-0.03-0.15,0-0.3,0.1-0.42c0.09-0.12,0.24-0.19,0.39-0.19h8.61c0.16,0,0.31,0.08,0.41,0.21
			s0.12,0.3,0.07,0.45c-0.15,0.46-0.34,0.84-0.57,1.17L179.61,76.9c-0.05,0.06-0.1,0.12-0.15,0.17
			C179.35,77.19,179.19,77.26,179.03,77.26z M191,49.69c-0.01,0.25-0.06,0.49-0.15,0.71l-9.69,22.68l16.99-23.15
			c0.05-0.07,0.1-0.15,0.15-0.24H191z M170.72,77.2c-0.16,0-0.31-0.07-0.41-0.21l-19.06-26.48c-0.24-0.33-0.42-0.7-0.58-1.17
			c-0.05-0.15-0.03-0.32,0.07-0.45c0.09-0.13,0.24-0.21,0.41-0.21h8c0.15,0,0.29,0.07,0.39,0.19c0.1,0.12,0.13,0.27,0.1,0.42
			c-0.06,0.29-0.05,0.52,0.03,0.71l11.51,26.5c0.1,0.23,0.01,0.51-0.21,0.63C170.89,77.18,170.8,77.2,170.72,77.2z M151.91,49.69
			c0.05,0.08,0.1,0.16,0.15,0.24l16.34,22.7l-9.65-22.23l0,0c-0.09-0.22-0.15-0.46-0.15-0.71H151.91z M198.63,46.38h-9.87
			c-0.18,0-0.35-0.1-0.44-0.26c-2.4-4.4-4.09-7.49-5.29-9.68c-0.11-0.2-0.07-0.45,0.09-0.6c0.16-0.16,0.41-0.18,0.61-0.07
			l13.98,8.54c0.54,0.33,0.99,0.76,1.34,1.29c0.1,0.15,0.11,0.35,0.02,0.51S198.81,46.38,198.63,46.38z M189.06,45.38h8.44
			c-0.1-0.08-0.2-0.15-0.31-0.22l-12.38-7.56C185.89,39.57,187.27,42.1,189.06,45.38z M184.98,46.38h-20.36
			c-0.18,0-0.34-0.09-0.43-0.25c-0.09-0.15-0.09-0.34-0.01-0.49c2.24-4.1,4.6-8.43,6-10.97c0.63-1.14,1.55-2.11,2.67-2.79
			c1.39-0.85,3.11-0.85,4.5,0l0.3,0.24c0.84,0.67,1.5,1.5,1.99,2.45l0.31,0.61c1.2,2.37,3.21,6.34,5.46,10.46
			c0.08,0.15,0.08,0.34-0.01,0.49C185.32,46.28,185.16,46.38,184.98,46.38z M165.46,45.38h18.68c-2.1-3.87-3.95-7.52-5.08-9.75
			l-0.31-0.61c-0.42-0.82-1-1.54-1.72-2.12l-0.25-0.2c-1.01-0.61-2.34-0.61-3.4,0.04c-0.97,0.59-1.77,1.43-2.31,2.42
			C169.75,37.54,167.58,41.51,165.46,45.38z M160.84,46.38h-9.26c-0.18,0-0.35-0.1-0.44-0.26s-0.08-0.36,0.02-0.51
			c0.35-0.53,0.8-0.97,1.34-1.29l13.07-7.98c0.19-0.12,0.44-0.09,0.61,0.07c0.16,0.16,0.2,0.4,0.09,0.6
			c-1.18,2.15-2.78,5.08-4.99,9.12C161.2,46.28,161.03,46.38,160.84,46.38z M152.71,45.38h7.83c1.63-2.98,2.92-5.34,3.95-7.22
			l-11.47,7.01C152.92,45.23,152.81,45.3,152.71,45.38z"/>
	</g>
</g>
</svg>
