<?xml version="1.0" encoding="utf-8"?>
<!-- Generator: Adobe Illustrator 27.8.1, SVG Export Plug-In . SVG Version: 6.00 Build 0)  -->
<svg version="1.1" xmlns="http://www.w3.org/2000/svg" xmlns:xlink="http://www.w3.org/1999/xlink" x="0px" y="0px"
	 viewBox="0 0 350 230" style="enable-background:new 0 0 350 230;" xml:space="preserve">
<style type="text/css">
	.st0{fill:#520106;}
	.st1{fill:#050030;}
	.st2{fill:#F7BBAA;}
	.st3{fill:#FFE8E3;}
	.st4{fill:#FFFDC5;}
	.st5{fill:#004C20;}
	.st6{fill:#E3F2FF;}
	.st7{fill:#162B27;}
	.st8{fill:#2D2C16;}
	.st9{fill:#FFE5C2;}
	.st10{fill:#FFFDD4;}
	.st11{fill:#E2E0BA;}
	.st12{fill:#7DFFB2;}
	.st13{fill:#750006;}
	.st14{fill:#003D42;}
	.st15{fill:#FFFAC2;}
	.st16{fill:#FAFFC7;}
	.st17{fill:#A07200;}
	.st18{fill:#770071;}
	.st19{fill:#03007C;}
	.st20{fill:#F98800;}
	.st21{fill:#002D2D;}
	.st22{fill:#544E00;}
	.st23{stroke:#C2932F;stroke-width:4;stroke-miterlimit:10;}
	.st24{fill:#C2932F;}
	.st25{fill:#BA3838;}
	.st26{fill:#F99300;}
	.st27{fill:#FF0000;}
	.st28{fill:#1B0121;}
	.st29{fill:#A37E33;}
	.st30{fill:#F7E0FC;}
	.st31{fill:#F0F2F5;}
	.st32{fill:#B0CEED;}
	.st33{fill:#DDDD00;}
	.st34{fill:#9700B7;}
	.st35{fill:#9700B7;stroke:#FF0000;stroke-width:4;stroke-miterlimit:10;}
	.st36{fill:#5E43FF;}
	.st37{fill:#004947;}
	.st38{fill:#C38A43;}
	.st39{fill:#600077;}
	.st40{fill:none;stroke:#003DFF;stroke-width:3;stroke-linecap:round;stroke-linejoin:round;stroke-miterlimit:10;}
	.st41{fill-rule:evenodd;clip-rule:evenodd;fill:#FFE267;}
	.st42{fill-rule:evenodd;clip-rule:evenodd;fill:#350034;}
	.st43{fill-rule:evenodd;clip-rule:evenodd;fill:#002800;}
	.st44{fill-rule:evenodd;clip-rule:evenodd;}
	.st45{fill-rule:evenodd;clip-rule:evenodd;fill:#332A00;}
	.st46{fill-rule:evenodd;clip-rule:evenodd;fill:#003D42;}
	.st47{fill-rule:evenodd;clip-rule:evenodd;fill:#003013;}
	.st48{fill-rule:evenodd;clip-rule:evenodd;fill:#750006;}
	.st49{fill-rule:evenodd;clip-rule:evenodd;fill:#560046;}
	.st50{fill-rule:evenodd;clip-rule:evenodd;fill:#050030;}
	.st51{fill-rule:evenodd;clip-rule:evenodd;fill:#000563;}
	.st52{fill:url(#SVGID_1_);}
	.st53{fill:url(#SVGID_00000070839655571330125680000000280718083416009380_);}
	.st54{fill:url(#SVGID_00000086659219535963090340000005135896083753066171_);}
	.st55{fill:url(#SVGID_00000023976114349066440280000010122951280433466764_);}
	.st56{fill:url(#SVGID_00000093155735390193845990000008141738599345195399_);}
	.st57{fill:url(#SVGID_00000000914829269732510730000004798489100323171499_);}
	.st58{fill:url(#SVGID_00000011710699191655115010000009196820826387690392_);}
	.st59{fill:url(#SVGID_00000002380279531066878590000001125783037491103634_);}
	.st60{fill:url(#SVGID_00000163783839511547162440000009847275260459008700_);}
	.st61{fill:url(#SVGID_00000117636195995150807010000004677756214997752984_);}
	.st62{fill:url(#SVGID_00000034069810739011554130000016589744516241234859_);}
	.st63{fill:url(#SVGID_00000137848363242194864590000007578698951838921882_);}
	.st64{fill:url(#SVGID_00000093856630213663793950000010352997608797335198_);}
	.st65{fill:url(#SVGID_00000053508673222833406990000012162093547760822669_);}
	
		.st66{fill:url(#SVGID_00000174598897402713744620000017187755445027939007_);stroke:url(#SVGID_00000018915348729246171830000005658523031946242968_);stroke-width:0.5;stroke-miterlimit:10;}
	
		.st67{fill-rule:evenodd;clip-rule:evenodd;fill:url(#SVGID_00000026134213058179859470000014160860074118034598_);stroke:url(#SVGID_00000113327004535629547230000003298683589264295830_);stroke-width:0.5;stroke-miterlimit:10;}
	
		.st68{fill-rule:evenodd;clip-rule:evenodd;fill:url(#SVGID_00000147192798470792304530000015399449094061152913_);stroke:url(#SVGID_00000034793775805072215080000014494594209093084599_);stroke-width:0.5;stroke-miterlimit:10;}
	.st69{fill:#151415;}
	.st70{fill:url(#SVGID_00000075862570465012219040000002527751798953945783_);}
	.st71{fill:#740077;}
	.st72{fill:#B4B2B2;}
	.st73{fill:url(#SVGID_00000078745390272960936190000001501036105051443893_);}
	.st74{fill:url(#Graphic_00000093899310515465250830000006776242445224099465_);}
	.st75{fill:url(#Graphic_00000086675280105074086150000017341309860923144115_);}
	.st76{fill:url(#Graphic_00000077318813576082195140000004759732631744837777_);}
	.st77{fill:url(#SVGID_00000146472759702509131420000002739452382903231388_);}
	.st78{fill:#172332;}
	.st79{fill:url(#SVGID_00000117658697232857710150000009083839985999801752_);}
	.st80{fill:url(#SVGID_00000106850414802804762960000012029809797066747272_);}
	
		.st81{fill:url(#SVGID_00000141424967246299549850000008398342069484314266_);stroke:url(#SVGID_00000051356576358424333200000012739198239242682273_);stroke-width:0.5;stroke-miterlimit:10;}
	.st82{fill:url(#SVGID_00000104673893475934786910000010712567683228337572_);}
	.st83{fill:#FFFFFF;}
	.st84{fill:url(#SVGID_00000134210431503277866420000011551700652486549923_);}
	.st85{clip-path:url(#SVGID_00000100370024400109195830000006254751621397455248_);}
	.st86{clip-path:url(#SVGID_00000032648045599357869040000008941801579668526777_);}
	.st87{clip-path:url(#SVGID_00000149362474026101595780000011834956128709608892_);}
	.st88{fill-rule:evenodd;clip-rule:evenodd;fill:#CCA45F;}
	.st89{clip-path:url(#SVGID_00000039102610574703827630000012241182262392311184_);}
	.st90{fill-rule:evenodd;clip-rule:evenodd;fill:#FFFFFF;}
	.st91{fill:url(#SVGID_00000159465776962987062770000011472633128071040699_);}
	.st92{fill-rule:evenodd;clip-rule:evenodd;fill:url(#SVGID_00000011030169580065505110000002390860032638955956_);}
	.st93{fill:url(#SVGID_00000101089186170359486880000008577902931842341000_);}
	.st94{fill:none;stroke:url(#hand_x5F_3_00000162327852536929411600000010709765511536218527_);stroke-miterlimit:10;}
	.st95{fill:url(#SVGID_00000090252154434205923840000004404706684573190064_);}
	.st96{fill:url(#SVGID_00000117637879958172115500000001096476880250002822_);}
	.st97{fill:url(#SVGID_00000110429451334858255700000004269240137975576996_);}
	.st98{fill:url(#SVGID_00000059290697535762428820000016511986769879725706_);}
	.st99{fill:#E0C195;}
	.st100{fill:url(#SVGID_00000101791123482922341270000004521099664008720802_);}
	.st101{fill:url(#SVGID_00000057870049517502738030000009894485437132552867_);}
	.st102{fill:url(#SVGID_00000140731820019460293910000013936466311198637704_);}
	.st103{fill:url(#SVGID_00000019663067277159602390000005828965316847225477_);}
	.st104{fill:url(#SVGID_00000079470802349387259520000009241400521137866147_);}
	.st105{fill:url(#SVGID_00000177475233161144094650000015609614683190644627_);}
	.st106{fill:url(#SVGID_00000160192277171264998710000001200375101519932310_);}
	.st107{fill:#560046;}
	.st108{fill:url(#SVGID_00000039831534666978751830000005966859730839045787_);}
	.st109{fill:url(#SVGID_00000046317668871752219840000002435746581453908361_);}
	.st110{fill:url(#SVGID_00000177479351919839719190000002323401401974581670_);}
	.st111{fill:url(#SVGID_00000007387672905687437020000002731091778427083403_);}
	.st112{fill:url(#SVGID_00000111902949872211328690000012332954584908643208_);}
</style>
<g id="Layer_1">
</g>
<g id="Layer_2">
</g>
<g id="Layer_3">
</g>
<g id="Layer_4">
</g>
<g id="Layer_5">
</g>
<g id="Layer_6">
</g>
<g id="Layer_7">
</g>
<g id="Layer_8">
</g>
<g id="Layer_9">
</g>
<g id="Layer_10">
</g>
<g id="Layer_11">
</g>
<g id="Layer_12">
</g>
<g id="Layer_13">
</g>
<g id="Layer_14">
</g>
<g id="Logo_1-15">
	<radialGradient id="SVGID_1_" cx="175" cy="92.1378" r="70.0867" gradientUnits="userSpaceOnUse">
		<stop  offset="0" style="stop-color:#A4631B"/>
		<stop  offset="0.08" style="stop-color:#D0A549"/>
		<stop  offset="0.0941" style="stop-color:#D7B254"/>
		<stop  offset="0.1724" style="stop-color:#FDF491"/>
		<stop  offset="0.2648" style="stop-color:#CAAA4D"/>
		<stop  offset="0.3625" style="stop-color:#996C22"/>
		<stop  offset="0.4718" style="stop-color:#C8A443"/>
		<stop  offset="0.5428" style="stop-color:#FBEC7A"/>
		<stop  offset="0.6498" style="stop-color:#D6B852"/>
		<stop  offset="0.7558" style="stop-color:#A47A2A"/>
		<stop  offset="0.8756" style="stop-color:#B9943E"/>
		<stop  offset="1" style="stop-color:#FFFB90"/>
	</radialGradient>
	<path class="st52" d="M237.09,68.56c6.07,5.94,9.65,13.2,9.65,21.04c0,0.85-0.06,1.7-0.14,2.54c0.08,0.84,0.14,1.68,0.14,2.54
		c0,7.84-3.57,15.11-9.65,21.04c9-6.05,14.88-14.34,15.8-23.58C251.97,82.9,246.09,74.61,237.09,68.56z M237.09,68.56
		c6.07,5.94,9.65,13.2,9.65,21.04c0,0.85-0.06,1.7-0.14,2.54c0.08,0.84,0.14,1.68,0.14,2.54c0,7.84-3.57,15.11-9.65,21.04
		c9-6.05,14.88-14.34,15.8-23.58C251.97,82.9,246.09,74.61,237.09,68.56z M246.6,92.14c0.08-0.84,0.14-1.68,0.14-2.54
		c0-7.84-3.57-15.11-9.65-21.04c-9.38-6.31-22.15-10.2-36.22-10.2c-1.06,0-2.1,0.03-3.14,0.07C223.85,59.51,244.8,73.99,246.6,92.14
		z M237.09,115.72c-8.89,8.68-23.13,14.53-39.37,15.2c1.04,0.04,2.09,0.07,3.14,0.07c28.81,0,52.16-16.26,52.16-36.32
		c0-0.85-0.06-1.7-0.14-2.54C251.97,101.38,246.09,109.66,237.09,115.72z M158.35,115.72c-6.07-5.94-9.65-13.2-9.65-21.04
		c0-0.85,0.06-1.7,0.14-2.54c-0.08-0.84-0.14-1.68-0.14-2.54c0-7.84,3.57-15.11,9.65-21.04c-9,6.05-14.88,14.34-15.79,23.58
		C143.47,101.38,149.35,109.66,158.35,115.72z M158.35,115.72c-6.07-5.94-9.65-13.2-9.65-21.04c0-0.85,0.06-1.7,0.14-2.54
		c-0.08-0.84-0.14-1.68-0.14-2.54c0-7.84,3.57-15.11,9.65-21.04c-9,6.05-14.88,14.34-15.79,23.58
		C143.47,101.38,149.35,109.66,158.35,115.72z M158.35,115.72c-9-6.05-14.88-14.34-15.79-23.58c-0.08,0.84-0.14,1.68-0.14,2.54
		c0,20.06,23.35,36.32,52.16,36.32c1.06,0,2.1-0.03,3.14-0.07C181.48,130.25,167.24,124.4,158.35,115.72z M181.4,59.53
		c-8.8,1.6-16.7,4.76-23.05,9.03c-6.07,5.94-9.65,13.2-9.65,21.04c0,0.85,0.06,1.7,0.14,2.54c1.43-14.42,14.94-26.52,33.53-31.43
		 M237.09,68.56c9,6.05,14.88,14.34,15.8,23.58c0.08-0.84,0.14-1.68,0.14-2.54c0-20.06-23.35-36.32-52.16-36.32
		c-1.06,0-2.1,0.03-3.14,0.07C213.96,54.03,228.2,59.87,237.09,68.56z M246.6,92.14c-1.8,18.15-22.74,32.63-48.88,33.71
		c1.04,0.04,2.09,0.07,3.14,0.07c14.08,0,26.84-3.89,36.22-10.2c6.07-5.94,9.65-13.2,9.65-21.04
		C246.74,93.82,246.68,92.98,246.6,92.14z M148.84,92.14c-0.08,0.84-0.14,1.68-0.14,2.54c0,7.84,3.57,15.11,9.65,21.04
		c9.38,6.31,22.15,10.2,36.22,10.2c1.06,0,2.1-0.03,3.14-0.07C171.59,124.76,150.65,110.29,148.84,92.14z M176.51,55.52
		c-19.9,5.12-34.09,18.44-34.09,34.08c0,0.85,0.06,1.7,0.14,2.54c0.92-9.24,6.79-17.53,15.79-23.58
		c5.11-4.99,11.98-9.04,19.98-11.71 M108.39,125.44c9.38,8.91,22.15,14.4,36.22,14.4c1.06,0,2.1-0.04,3.14-0.1
		c-26.13-1.53-47.07-21.97-48.88-47.6c-0.08,1.18-0.14,2.38-0.14,3.58C98.74,106.8,102.31,117.05,108.39,125.44z M108.39,58.84
		c-6.07,8.38-9.65,18.64-9.65,29.71c0,1.21,0.06,2.4,0.14,3.58c1.8-25.63,22.74-46.07,48.88-47.6c-1.04-0.06-2.09-0.1-3.14-0.1
		C130.54,44.44,117.77,49.93,108.39,58.84z M92.59,92.14c-0.08,1.18-0.14,2.38-0.14,3.58c0,28.32,23.35,51.28,52.16,51.28
		c1.06,0,2.1-0.04,3.14-0.1c-16.24-0.95-30.48-9.2-39.37-21.47C99.39,116.89,93.51,105.19,92.59,92.14z M203.06,88.56
		c0-28.32-23.35-51.28-52.16-51.28c-1.06,0-2.1,0.04-3.14,0.1c16.24,0.95,28.17,6.77,37.06,19.04
		c-9.38-8.91-19.84-11.97-33.91-11.97c-1.06,0-2.1,0.04-3.14,0.1c26.13,1.53,47.07,21.97,48.88,47.6
		c-0.9,12.8-6.03,23.76-14.74,32.26c1.46,0.21,2.96,0.83,5.24,1.03c0.16-0.27-0.06,0.05,0,0c-0.04,0.06,0.03-0.16-0.01-0.11
		c1.76,0.16,3.84,0.3,6.07,0.4c6.33-8.49,9.87-18.68,9.87-30.01C203.06,94.51,203.06,89.76,203.06,88.56z M182.59,129.27
		c-1.6-0.36-3.05-0.86-4.55-1.37c-8.41,7.16-18.46,11.14-30.28,11.83c1.04,0.06,2.09,0.1,3.14,0.1
		C163.21,139.84,173.67,136.29,182.59,129.27z M189.32,130.39c-1.71-0.24-3.64-0.45-5.52-0.85c-8.94,10.37-21.36,16.5-36.05,17.36
		c1.04,0.06,2.09,0.1,3.14,0.1C166.41,147,179.77,140.95,189.32,130.39z M108.39,58.84c8.89-12.26,23.13-20.52,39.37-21.47
		c-1.04-0.06-2.09-0.1-3.14-0.1c-28.81,0-52.16,22.96-52.16,51.28c0,1.21,0.06,2.4,0.14,3.58C93.51,79.09,99.39,67.39,108.39,58.84z
		 M257.07,66.25c0.46-0.86,0.62-1.88,0.34-2.91l-2.1-7.71c-0.39-1.44-1.56-2.54-3.01-2.85l-7.82-1.66c-1.04-0.22-2.05,0-2.88,0.51
		L257.07,66.25z M239.98,53.53c-0.12,0.3-0.22,0.62-0.27,0.96l-1.55,11.57c-0.36,2.69,2.03,4.95,4.69,4.43l11.46-2.2
		c0.34-0.06,0.65-0.18,0.94-0.32L239.98,53.53z M200.86,58.36c-1.06,0-2.1,0.03-3.14,0.07c27.34,1.13,49.02,16.92,49.02,36.24
		s-21.67,35.11-49.02,36.25c1.04,0.04,2.09,0.07,3.14,0.07c28.81,0,52.16-16.26,52.16-36.32C253.03,74.62,229.67,58.36,200.86,58.36
		z M148.7,94.67c0-19.32,21.67-35.11,49.02-36.24c-1.04-0.04-2.09-0.07-3.14-0.07c-28.81,0-52.16,16.26-52.16,36.32
		c0,20.06,23.35,36.32,52.16,36.32c1.06,0,2.1-0.03,3.14-0.07C170.38,129.79,148.7,114,148.7,94.67z M200.86,53.28
		c-1.06,0-2.1,0.03-3.14,0.07c27.34,1.13,49.02,16.92,49.02,36.25c0,19.32-21.67,35.11-49.02,36.25c1.04,0.04,2.09,0.07,3.14,0.07
		c28.81,0,52.16-16.26,52.16-36.32C253.03,69.54,229.67,53.28,200.86,53.28z M197.72,125.85c-1.04,0.04-2.09,0.07-3.14,0.07
		c-28.81,0-52.16-16.26-52.16-36.32c0-20.06,23.35-36.32,52.16-36.32c1.06,0,2.1,0.03,3.14,0.07
		c-27.34,1.13-49.02,16.92-49.02,36.25C148.7,108.92,170.38,124.71,197.72,125.85z"/>
</g>
</svg>
