<?xml version="1.0" encoding="utf-8"?>
<!-- Generator: Adobe Illustrator 27.8.1, SVG Export Plug-In . SVG Version: 6.00 Build 0)  -->
<svg version="1.1" xmlns="http://www.w3.org/2000/svg" xmlns:xlink="http://www.w3.org/1999/xlink" x="0px" y="0px"
	 viewBox="0 0 350 230" style="enable-background:new 0 0 350 230;" xml:space="preserve">
<style type="text/css">
	.st0{fill:#DFDCBB;}
	.st1{fill:#256540;}
	.st2{fill:#465410;}
	.st3{fill:#FFF0CC;}
	.st4{fill:#263500;}
	.st5{fill:#FFB540;}
	.st6{fill:#F2F7D2;}
	.st7{fill:#A7D4BF;}
	.st8{fill:#8DC63F;}
	.st9{fill:#02913F;}
	.st10{fill:#008713;}
	.st11{fill:#66FF74;}
	.st12{fill:#493D00;}
	.st13{fill:#005505;}
	.st14{fill:#646A07;}
	.st15{fill:#48990E;}
	.st16{fill:#896500;}
	.st17{fill:#9FE2FF;}
	.st18{fill:#754C24;}
	.st19{fill:#FFF30B;}
	.st20{fill:#7ABC50;}
	.st21{fill:#370900;}
	.st22{fill:#C8FF8D;}
	.st23{fill:#377300;}
	.st24{fill:#002F1A;}
	.st25{fill:#C19E00;}
	.st26{fill:#FFCE00;}
	.st27{fill:#583F00;}
	.st28{fill:#5B7200;}
	.st29{fill:#96FF00;}
	.st30{fill-rule:evenodd;clip-rule:evenodd;fill:#22704A;}
	.st31{fill:#A5D065;}
	.st32{fill:#8EC146;}
	.st33{fill-rule:evenodd;clip-rule:evenodd;fill:#604500;}
	.st34{fill-rule:evenodd;clip-rule:evenodd;fill:#03FCB5;}
	.st35{fill-rule:evenodd;clip-rule:evenodd;fill:#B5FF00;}
	.st36{fill:#008F09;}
	.st37{fill:#491C00;}
	.st38{fill:#CAB400;}
	.st39{fill-rule:evenodd;clip-rule:evenodd;fill:#FFBE78;}
	.st40{fill:#351700;}
	.st41{fill:#697822;}
	.st42{fill:#809324;}
	.st43{fill:#474F1F;}
	.st44{fill:#97AF24;}
	.st45{fill:#B0CB1F;}
	.st46{fill-rule:evenodd;clip-rule:evenodd;fill:#474F1F;}
	.st47{fill-rule:evenodd;clip-rule:evenodd;fill:#697822;}
	.st48{fill-rule:evenodd;clip-rule:evenodd;fill:url(#SVGID_1_);}
	.st49{fill-rule:evenodd;clip-rule:evenodd;fill:url(#SVGID_00000145046888645866772420000013180858839174713497_);}
	.st50{fill-rule:evenodd;clip-rule:evenodd;fill:url(#SVGID_00000160161343729741925010000003797065235131778463_);}
	.st51{fill-rule:evenodd;clip-rule:evenodd;fill:url(#SVGID_00000180336084142342636160000010435907129014794887_);}
	.st52{fill-rule:evenodd;clip-rule:evenodd;fill:url(#SVGID_00000142875512244902443430000008420556437209363616_);}
	.st53{fill-rule:evenodd;clip-rule:evenodd;fill:#55611B;}
	.st54{fill:#FFFFFF;}
	.st55{fill-rule:evenodd;clip-rule:evenodd;fill:#97AF24;}
	.st56{fill-rule:evenodd;clip-rule:evenodd;fill:#FFFFFF;}
	.st57{fill-rule:evenodd;clip-rule:evenodd;fill:#FEFEFE;}
	.st58{fill-rule:evenodd;clip-rule:evenodd;fill:#DFDCBB;}
	.st59{fill-rule:evenodd;clip-rule:evenodd;}
	.st60{fill-rule:evenodd;clip-rule:evenodd;fill:#256540;}
	.st61{fill-rule:evenodd;clip-rule:evenodd;fill:#BDFFFA;}
	.st62{fill-rule:evenodd;clip-rule:evenodd;fill:#FFCE00;}
	.st63{fill-rule:evenodd;clip-rule:evenodd;fill:#5B1C00;}
	.st64{fill-rule:evenodd;clip-rule:evenodd;fill:#00423D;}
	.st65{fill-rule:evenodd;clip-rule:evenodd;fill:#D16024;}
	.st66{fill-rule:evenodd;clip-rule:evenodd;fill:#7A300F;}
	.st67{fill-rule:evenodd;clip-rule:evenodd;fill:#A7D4BF;}
	.st68{fill-rule:evenodd;clip-rule:evenodd;fill:url(#SVGID_00000168808199516625970780000001028799750993449393_);}
	.st69{fill-rule:evenodd;clip-rule:evenodd;fill:url(#SVGID_00000042002974724614567740000004180611175488271518_);}
	.st70{fill-rule:evenodd;clip-rule:evenodd;fill:url(#SVGID_00000146494321859140008980000003307554202283349666_);}
	.st71{fill-rule:evenodd;clip-rule:evenodd;fill:url(#SVGID_00000157278155770845255310000017896836974751627658_);}
	.st72{fill-rule:evenodd;clip-rule:evenodd;fill:url(#SVGID_00000157995048393310143510000017208708613234474671_);}
	.st73{fill:#6F992B;}
	.st74{fill:#355F32;}
	.st75{fill:#457630;}
	.st76{fill:#9CA91A;}
	.st77{fill:#264626;}
	.st78{fill:#F6F7F5;}
	.st79{fill:#2A776B;}
	.st80{fill:#24513A;}
	.st81{fill:#ECB426;}
	.st82{fill:#86BA8A;}
	.st83{fill:#63A038;}
	.st84{fill:#2A6933;}
	.st85{fill:#EBB427;}
	.st86{fill:#FDFDFD;}
	.st87{fill:url(#SVGID_00000144317281904079173910000017629349106122504859_);}
	.st88{fill:url(#SVGID_00000110466735177576036750000018114606360974177203_);}
	.st89{fill:url(#SVGID_00000120539206485062411180000007530199966860106388_);}
	.st90{fill:url(#SVGID_00000021080893818863346970000007658512121946911658_);}
	.st91{fill:url(#SVGID_00000147910988921579891710000013721831639896925366_);}
	.st92{fill-rule:evenodd;clip-rule:evenodd;fill:url(#SVGID_00000005964066932854156780000005522434202951181751_);}
	.st93{fill:url(#SVGID_00000005246050204462493510000011227724485684503430_);}
	.st94{fill-rule:evenodd;clip-rule:evenodd;fill:url(#SVGID_00000056397781824937227890000004658604253724226455_);}
	.st95{fill:url(#SVGID_00000161611798685409121890000006387955346347286706_);}
	.st96{fill-rule:evenodd;clip-rule:evenodd;fill:url(#SVGID_00000010304436965478364600000000431911562292745344_);}
	.st97{fill:url(#SVGID_00000098918537099593964760000006561531016567618708_);}
	.st98{fill:url(#SVGID_00000095330435426685550550000014056644233441329580_);}
	.st99{fill-rule:evenodd;clip-rule:evenodd;fill:url(#SVGID_00000106868557179952948950000011294669359663227044_);}
	.st100{fill-rule:evenodd;clip-rule:evenodd;fill:url(#SVGID_00000026854258875547185990000002555548599713046912_);}
	.st101{fill-rule:evenodd;clip-rule:evenodd;fill:url(#SVGID_00000179622954321057785420000015529956090350711969_);}
	.st102{fill-rule:evenodd;clip-rule:evenodd;fill:url(#SVGID_00000004517906605183043700000006802424955692268940_);}
	.st103{fill-rule:evenodd;clip-rule:evenodd;fill:url(#SVGID_00000029729054721070245060000000244739156817489838_);}
	.st104{fill-rule:evenodd;clip-rule:evenodd;fill:url(#SVGID_00000128480182444659839820000013524874826822655918_);}
	.st105{fill:url(#SVGID_00000147937865961172474980000012012071551864956336_);}
	.st106{fill:url(#SVGID_00000088838445782381700780000013956957135801719943_);}
	.st107{fill:url(#SVGID_00000000217501882742559610000008150244749652141986_);}
	.st108{fill:url(#SVGID_00000175319995140722129260000008340796616850995333_);}
	.st109{fill:#ECEFF0;}
	.st110{fill:url(#SVGID_00000065053607394487008540000015430759166627615125_);}
	.st111{fill:url(#SVGID_00000114039506537192447370000009965068155654889127_);}
	.st112{fill:url(#SVGID_00000093899476772020969140000011279321044505171886_);}
	.st113{fill:url(#SVGID_00000018206995801688121270000013124399263391161522_);}
	.st114{fill:#263756;}
	.st115{fill:url(#SVGID_00000087411716836955813280000009823273623782035093_);}
	.st116{fill:url(#SVGID_00000064313704841072201800000002879560471083611567_);}
	.st117{fill:url(#SVGID_00000011010739704911026760000012743355801806559638_);}
	.st118{fill:url(#SVGID_00000183930194283555435850000009156339093642818731_);}
	.st119{fill:url(#SVGID_00000067927714564195870530000015729758499127763903_);}
	.st120{fill-rule:evenodd;clip-rule:evenodd;fill:url(#SVGID_00000023275347658918889070000006408499375354691517_);}
	.st121{fill-rule:evenodd;clip-rule:evenodd;fill:url(#SVGID_00000080924074551346522540000013264234264444087952_);}
	.st122{fill-rule:evenodd;clip-rule:evenodd;fill:url(#SVGID_00000179626357632740401210000008645746979017653421_);}
	.st123{fill-rule:evenodd;clip-rule:evenodd;fill:#000002;}
	.st124{fill-rule:evenodd;clip-rule:evenodd;fill:url(#SVGID_00000109725885749991109730000001237728669241868972_);}
	.st125{fill:url(#SVGID_00000045618818904661966600000001826129736848336573_);}
	.st126{fill:#B0EB81;}
	.st127{fill:url(#SVGID_00000167373636506108758290000010036167314184245678_);}
	.st128{fill:url(#SVGID_00000063604625564270358070000012549793972546842286_);}
	.st129{fill:url(#SVGID_00000138540482605718176480000013549024646180420283_);}
	.st130{fill:#674447;}
	.st131{fill:url(#SVGID_00000091714813293524160160000018198607352272531386_);}
	.st132{fill:url(#SVGID_00000143618034264627673430000015033550143366826632_);}
	.st133{fill:url(#SVGID_00000026877077933441929690000007806918637835152562_);}
	.st134{fill:#75B63B;}
	.st135{fill:#053E22;}
	.st136{fill:#ECF894;}
	.st137{fill:#00FFFF;}
	.st138{fill:url(#SVGID_00000009581625511063538070000001358119700393829012_);}
	.st139{fill:url(#SVGID_00000050639201563042289730000001479407471015798692_);}
	.st140{fill:url(#SVGID_00000020393444355866065960000004846523505132102583_);}
	.st141{fill:url(#SVGID_00000095330925623803315840000003917297172745139606_);}
	.st142{fill:url(#SVGID_00000027585723194258515930000006653289970324987272_);}
	.st143{fill:url(#SVGID_00000183945408019261981150000000926516770296733113_);}
	.st144{fill-rule:evenodd;clip-rule:evenodd;fill:url(#SVGID_00000125602071066912132550000015624543465927587481_);}
	.st145{fill-rule:evenodd;clip-rule:evenodd;fill:url(#SVGID_00000141421821554245387140000007017147084499250843_);}
	.st146{fill-rule:evenodd;clip-rule:evenodd;fill:url(#SVGID_00000116915989667846052250000011258774006631776927_);}
	.st147{fill-rule:evenodd;clip-rule:evenodd;fill:url(#SVGID_00000057844558031104370930000018005703132631671203_);}
	.st148{fill-rule:evenodd;clip-rule:evenodd;fill:url(#SVGID_00000159461137799423892990000014143557158255196342_);}
	.st149{fill-rule:evenodd;clip-rule:evenodd;fill:url(#SVGID_00000018958427197765983480000010241518908953264001_);}
	.st150{fill-rule:evenodd;clip-rule:evenodd;fill:url(#SVGID_00000160879876438087033870000005261454159819995826_);}
	.st151{fill-rule:evenodd;clip-rule:evenodd;fill:url(#SVGID_00000067205807370795839210000017185031305768141214_);}
	.st152{fill-rule:evenodd;clip-rule:evenodd;fill:url(#SVGID_00000114068235617483221880000011014819677788647552_);}
	.st153{fill-rule:evenodd;clip-rule:evenodd;fill:#809224;}
	.st154{fill-rule:evenodd;clip-rule:evenodd;fill:#AFCA1F;}
	.st155{fill:url(#SVGID_00000132787183405391975660000001687104076758800830_);}
	.st156{fill:url(#SVGID_00000124868812420352388580000009589321079995655827_);}
	.st157{fill-rule:evenodd;clip-rule:evenodd;fill:#0081C6;}
	.st158{fill-rule:evenodd;clip-rule:evenodd;fill:#2AA349;}
	.st159{fill-rule:evenodd;clip-rule:evenodd;fill:#008A45;}
	.st160{fill-rule:evenodd;clip-rule:evenodd;fill:#8BC13F;}
	.st161{fill-rule:evenodd;clip-rule:evenodd;fill:#6BC6F0;}
	.st162{fill-rule:evenodd;clip-rule:evenodd;fill:#B97129;}
	.st163{fill-rule:evenodd;clip-rule:evenodd;fill:#643A18;}
	.st164{fill-rule:evenodd;clip-rule:evenodd;fill:#F9C22B;}
	.st165{fill:#142F47;}
	.st166{fill:#FEFEFE;}
	.st167{fill:#61A939;}
	.st168{fill:url(#SVGID_00000124146692294717217380000004978632207832742296_);}
	.st169{fill:#68A967;}
	.st170{fill:url(#SVGID_00000110452682561597407030000009566315614975241870_);}
	.st171{fill:#FBB040;}
	.st172{fill:#BFCFAB;}
	.st173{fill:#94AF73;}
	.st174{fill:#4A573A;}
	.st175{fill:url(#SVGID_00000008108091620877121830000002929128093302991509_);}
	.st176{fill-rule:evenodd;clip-rule:evenodd;fill:#09451F;}
	.st177{fill-rule:evenodd;clip-rule:evenodd;fill:#028F02;}
	.st178{fill:url(#SVGID_00000079480777014275318130000002263818465401421717_);}
	.st179{fill:url(#SVGID_00000148632407848770705670000012387930001193845410_);}
	.st180{fill:#643A18;}
	.st181{fill:#56483F;}
	.st182{fill:#B64B4A;}
	.st183{fill:#025D16;}
	.st184{fill:#38A32F;}
	.st185{fill:#82B336;}
	.st186{fill:#092B4B;}
	.st187{fill:#026937;}
	.st188{fill:#7EC142;}
	.st189{fill:#6EBD44;}
	.st190{fill:url(#SVGID_00000098213441044282662650000001387514243351389838_);}
	.st191{fill:url(#SVGID_00000068661614948928614040000000734848479095798421_);}
	.st192{fill:#FBFBF4;}
	.st193{fill:#408244;}
	.st194{fill:url(#SVGID_00000029014165937462065700000008607705719005626756_);}
	.st195{fill:#BCCD30;}
	.st196{fill:#6C9E41;}
	.st197{fill:#497235;}
	.st198{fill-rule:evenodd;clip-rule:evenodd;fill:url(#SVGID_00000143613858146568283670000009061268353666603663_);}
	.st199{fill:url(#SVGID_00000093162113100690499790000004100401041770767281_);}
	.st200{fill-rule:evenodd;clip-rule:evenodd;fill:#E6E6E6;}
</style>
<g id="Layer_1">
</g>
<g id="Layer_2">
</g>
<g id="Layer_3">
</g>
<g id="Layer_4">
</g>
<g id="Layer_5">
</g>
<g id="Layer_6">
</g>
<g id="Layer_7">
</g>
<g id="Layer_8">
</g>
<g id="Layer_9">
</g>
<g id="Layer_10">
</g>
<g id="Layer_11">
</g>
<g id="Layer_12">
</g>
<g id="Layer_13">
</g>
<g id="Layer_14">
</g>
<g id="Layer_15">
	<g>
		<path class="st153" d="M200.09,60.31c8.58,7.05,8.58,15.77,0,22.81c-0.5,3.25-2.39,6.11-5.13,8.12c-0.65,3.66-4,6.54-8.22,7.05
			v23.68h-2.68V98.29c-4.23-0.51-7.58-3.39-8.22-7.05c-2.74-2.01-4.63-4.87-5.14-8.12c-8.58-7.05-8.58-15.76,0-22.81
			c0.5-3.24,2.39-6.11,5.14-8.12c0.71-4.04,4.72-7.13,9.56-7.13c4.84,0,8.85,3.09,9.56,7.13C197.7,54.2,199.59,57.06,200.09,60.31z
			 M172.39,57.77c0.24,0.81,3.77-2.64,8.93-4.17c5.16-1.53,10-0.57,9.76-1.38c-0.24-0.81-5.32-2.58-10.48-1.05
			C175.44,52.71,172.15,56.96,172.39,57.77z M189.01,46.81c0.14,0.49-2.76-0.09-5.86,0.83c-3.1,0.92-5.22,2.99-5.36,2.51
			c-0.15-0.49,1.83-3.04,4.93-3.96C185.81,45.26,188.86,46.32,189.01,46.81z M191.88,59.68c0.32,1.06-6.03-0.2-12.79,1.8
			c-6.76,2.01-11.38,6.53-11.7,5.47c-0.32-1.07,3.99-6.64,10.75-8.65C184.92,56.3,191.57,58.61,191.88,59.68z M198.34,85.7
			c-0.24-0.81-3.77,2.64-8.93,4.17c-5.16,1.53-10,0.56-9.76,1.38c0.24,0.81,5.32,2.58,10.48,1.05
			C195.29,90.77,198.58,86.52,198.34,85.7z M181.71,96.67c-0.15-0.49,2.76,0.09,5.86-0.83c3.1-0.92,5.21-3,5.36-2.51
			c0.15,0.49-1.83,3.04-4.93,3.96C184.91,98.22,181.86,97.16,181.71,96.67z M178.84,83.8c-0.32-1.07,6.02,0.2,12.79-1.81
			c6.76-2.01,11.38-6.53,11.7-5.47c0.32,1.07-3.99,6.64-10.76,8.65C185.81,87.18,179.16,84.86,178.84,83.8z"/>
		<path class="st46" d="M116.76,153.99l28.66-19.24H90.5l19.61-8.79l-12.34,6.93h55.51l-19.53,15.75h118.2l0.85,5.35H116.76z"/>
		<path class="st154" d="M174.39,129.11l-9.13,13.23h85.34l0.63,3.78H141.32l15.59-14.92h-53.7l10.43-6.03l-3.54,3.94H174.39z"/>
		<path class="st46" d="M120.81,120.96c0-1.52,15.32-2.76,34.09-2.76c18.78,0,34.09,1.24,34.09,2.76c0,1.52-15.32,2.76-34.09,2.76
			C136.12,123.72,120.81,122.48,120.81,120.96z M170.07,86.39c-1.61-6.75-8.39-10.83-15.14-10.83c-6.75,0-13.53,4.08-15.14,10.83
			c-3.67,2.89-6.33,6.87-7.24,11.47c-5.03,4.33-8.51,10.19-9.37,16.82c-0.07,0.56,0.08,1.08,0.46,1.51
			c0.38,0.43,0.87,0.65,1.44,0.65h25.52v2.81c0,1.05,0.86,1.91,1.91,1.91h4.85c1.05,0,1.91-0.86,1.91-1.91v-2.81h25.52
			c0.57,0,1.06-0.22,1.43-0.65c0.38-0.43,0.53-0.94,0.46-1.51c-0.86-6.64-4.34-12.49-9.37-16.82
			C176.4,93.26,173.73,89.27,170.07,86.39z M168.34,87.47c-1-5.66-6.62-10.01-13.42-10.01c-6.79,0-12.42,4.34-13.41,10.01
			c-3.85,2.82-6.5,6.84-7.2,11.39c-5.03,4.13-8.42,9.75-9.24,16.05h27.43v4.72h4.85v-4.72h27.43c-0.82-6.3-4.21-11.92-9.24-16.05
			C174.84,94.32,172.19,90.3,168.34,87.47z M136.66,95.31c0.34,1.14,5.29-3.7,12.53-5.86c7.24-2.15,14.03-0.79,13.69-1.93
			c-0.34-1.14-7.46-3.62-14.7-1.47C140.94,88.21,136.33,94.17,136.66,95.31z M159.99,79.92c0.2,0.69-3.88-0.13-8.22,1.16
			c-4.35,1.29-7.32,4.2-7.52,3.52c-0.2-0.68,2.57-4.27,6.92-5.56C155.51,77.75,159.79,79.24,159.99,79.92z M164.02,97.99
			c0.44,1.5-8.46-0.28-17.95,2.53c-9.49,2.82-15.97,9.17-16.42,7.68c-0.44-1.5,5.61-9.31,15.09-12.13
			C154.24,93.25,163.58,96.49,164.02,97.99z"/>
		<path class="st46" d="M174.35,134.95c0-1.97,19.81-3.57,44.09-3.57c24.29,0,44.09,1.6,44.09,3.57c0,1.97-19.81,3.57-44.09,3.57
			C194.16,138.52,174.35,136.92,174.35,134.95z M238.05,90.24c-2.08-8.73-10.86-14-19.58-14c-8.73,0-17.5,5.28-19.58,14
			c-4.74,3.74-8.19,8.89-9.36,14.83c-6.5,5.6-11.01,13.17-12.12,21.75c-0.1,0.73,0.11,1.39,0.59,1.95c0.49,0.55,1.12,0.84,1.86,0.84
			h33.01v3.63c0,1.36,1.11,2.47,2.47,2.47h6.27c1.36,0,2.47-1.11,2.47-2.47v-3.63h33.01c0.74,0,1.37-0.29,1.85-0.84
			c0.49-0.55,0.69-1.22,0.6-1.95c-1.12-8.58-5.62-16.15-12.12-21.75C246.24,99.13,242.8,93.98,238.05,90.24z M235.82,91.65
			c-1.29-7.33-8.57-12.94-17.35-12.94c-8.78,0-16.06,5.61-17.35,12.94c-4.97,3.65-8.4,8.85-9.32,14.74
			c-6.51,5.34-10.89,12.61-11.95,20.76h35.48v6.1h6.27v-6.1h35.48c-1.06-8.15-5.45-15.42-11.95-20.76
			C244.23,100.49,240.8,95.3,235.82,91.65z M194.85,101.79c0.44,1.48,6.84-4.79,16.2-7.57c9.36-2.78,18.15-1.03,17.71-2.5
			c-0.44-1.48-9.65-4.68-19.02-1.9C200.39,92.6,194.42,100.31,194.85,101.79z M225.02,81.88c0.26,0.89-5.01-0.17-10.64,1.5
			c-5.62,1.67-9.47,5.43-9.73,4.55c-0.26-0.89,3.32-5.52,8.95-7.19C219.23,79.07,224.76,80.99,225.02,81.88z M230.24,105.24
			c0.58,1.93-10.94-0.37-23.21,3.28c-12.27,3.65-20.66,11.86-21.23,9.93c-0.58-1.93,7.25-12.04,19.52-15.69
			C217.59,99.11,229.67,103.31,230.24,105.24z"/>
	</g>
</g>
</svg>
