<?xml version="1.0" encoding="utf-8"?>
<!-- Generator: Adobe Illustrator 27.8.1, SVG Export Plug-In . SVG Version: 6.00 Build 0)  -->
<svg version="1.1" xmlns="http://www.w3.org/2000/svg" xmlns:xlink="http://www.w3.org/1999/xlink" x="0px" y="0px"
	 viewBox="0 0 350 230" style="enable-background:new 0 0 350 230;" xml:space="preserve">
<style type="text/css">
	.st0{fill:#DFDCBB;}
	.st1{fill:#256540;}
	.st2{fill:#465410;}
	.st3{fill:#FFF0CC;}
	.st4{fill:#263500;}
	.st5{fill:#FFB540;}
	.st6{fill:#F2F7D2;}
	.st7{fill:#A7D4BF;}
	.st8{fill:#8DC63F;}
	.st9{fill:#02913F;}
	.st10{fill:#008713;}
	.st11{fill:#66FF74;}
	.st12{fill:#493D00;}
	.st13{fill:#005505;}
	.st14{fill:#646A07;}
	.st15{fill:#48990E;}
	.st16{fill:#896500;}
	.st17{fill:#9FE2FF;}
	.st18{fill:#754C24;}
	.st19{fill:#FFF30B;}
	.st20{fill:#7ABC50;}
	.st21{fill:#370900;}
	.st22{fill:#C8FF8D;}
	.st23{fill:#377300;}
	.st24{fill:#002F1A;}
	.st25{fill:#C19E00;}
	.st26{fill:#FFCE00;}
	.st27{fill:#583F00;}
	.st28{fill:#5B7200;}
	.st29{fill:#96FF00;}
	.st30{fill-rule:evenodd;clip-rule:evenodd;fill:#22704A;}
	.st31{fill:#A5D065;}
	.st32{fill:#8EC146;}
	.st33{fill-rule:evenodd;clip-rule:evenodd;fill:#604500;}
	.st34{fill-rule:evenodd;clip-rule:evenodd;fill:#03FCB5;}
	.st35{fill-rule:evenodd;clip-rule:evenodd;fill:#B5FF00;}
	.st36{fill:#008F09;}
	.st37{fill:#491C00;}
	.st38{fill:#CAB400;}
	.st39{fill-rule:evenodd;clip-rule:evenodd;fill:#FFBE78;}
	.st40{fill:#351700;}
	.st41{fill:#697822;}
	.st42{fill:#809324;}
	.st43{fill:#474F1F;}
	.st44{fill:#97AF24;}
	.st45{fill:#B0CB1F;}
	.st46{fill-rule:evenodd;clip-rule:evenodd;fill:#474F1F;}
	.st47{fill-rule:evenodd;clip-rule:evenodd;fill:#697822;}
	.st48{fill-rule:evenodd;clip-rule:evenodd;fill:url(#SVGID_1_);}
	.st49{fill-rule:evenodd;clip-rule:evenodd;fill:url(#SVGID_00000068653117355760167900000003812790026502351264_);}
	.st50{fill-rule:evenodd;clip-rule:evenodd;fill:url(#SVGID_00000000187223417953753280000013252118181036429474_);}
	.st51{fill-rule:evenodd;clip-rule:evenodd;fill:url(#SVGID_00000157278295626806140900000017342429899868658333_);}
	.st52{fill-rule:evenodd;clip-rule:evenodd;fill:url(#SVGID_00000111910594911530442770000015579931067341410713_);}
	.st53{fill-rule:evenodd;clip-rule:evenodd;fill:#55611B;}
	.st54{fill:#FFFFFF;}
	.st55{fill-rule:evenodd;clip-rule:evenodd;fill:#97AF24;}
	.st56{fill-rule:evenodd;clip-rule:evenodd;fill:#FFFFFF;}
	.st57{fill-rule:evenodd;clip-rule:evenodd;fill:#FEFEFE;}
	.st58{fill-rule:evenodd;clip-rule:evenodd;fill:#DFDCBB;}
	.st59{fill-rule:evenodd;clip-rule:evenodd;}
	.st60{fill-rule:evenodd;clip-rule:evenodd;fill:#256540;}
	.st61{fill-rule:evenodd;clip-rule:evenodd;fill:#BDFFFA;}
	.st62{fill-rule:evenodd;clip-rule:evenodd;fill:#FFCE00;}
	.st63{fill-rule:evenodd;clip-rule:evenodd;fill:#5B1C00;}
	.st64{fill-rule:evenodd;clip-rule:evenodd;fill:#00423D;}
	.st65{fill-rule:evenodd;clip-rule:evenodd;fill:#D16024;}
	.st66{fill-rule:evenodd;clip-rule:evenodd;fill:#7A300F;}
	.st67{fill-rule:evenodd;clip-rule:evenodd;fill:#A7D4BF;}
	.st68{fill-rule:evenodd;clip-rule:evenodd;fill:url(#SVGID_00000016043770424640953740000013788219815050611854_);}
	.st69{fill-rule:evenodd;clip-rule:evenodd;fill:url(#SVGID_00000006667196892917200960000015192173876729694129_);}
	.st70{fill-rule:evenodd;clip-rule:evenodd;fill:url(#SVGID_00000083807007193197436790000010834952861344081588_);}
	.st71{fill-rule:evenodd;clip-rule:evenodd;fill:url(#SVGID_00000055671460885507234310000007198045502921415842_);}
	.st72{fill-rule:evenodd;clip-rule:evenodd;fill:url(#SVGID_00000130614663711282477290000006614033124584442768_);}
	.st73{fill:#6F992B;}
	.st74{fill:#355F32;}
	.st75{fill:#457630;}
	.st76{fill:#9CA91A;}
	.st77{fill:#264626;}
	.st78{fill:#F6F7F5;}
	.st79{fill:#2A776B;}
	.st80{fill:#24513A;}
	.st81{fill:#ECB426;}
	.st82{fill:#86BA8A;}
	.st83{fill:#63A038;}
	.st84{fill:#2A6933;}
	.st85{fill:#EBB427;}
	.st86{fill:#FDFDFD;}
	.st87{fill:url(#SVGID_00000080923325497375692050000016012994235265019070_);}
	.st88{fill:url(#SVGID_00000099643755268511465480000017340561081967010745_);}
	.st89{fill:url(#SVGID_00000082359772324862608000000017671990847013125523_);}
	.st90{fill:url(#SVGID_00000003078641079698949350000012051567564220486276_);}
	.st91{fill:url(#SVGID_00000070076563022689985420000007410068756867713934_);}
	.st92{fill-rule:evenodd;clip-rule:evenodd;fill:url(#SVGID_00000024002303930962703950000014866478656014055346_);}
	.st93{fill:url(#SVGID_00000084523430190824968250000012353725794835975600_);}
	.st94{fill-rule:evenodd;clip-rule:evenodd;fill:url(#SVGID_00000085953033311588147680000014869029522748040335_);}
	.st95{fill:url(#SVGID_00000037677848057291938100000015580016040844988076_);}
	.st96{fill-rule:evenodd;clip-rule:evenodd;fill:url(#SVGID_00000168829372469644756770000016588959346364083118_);}
	.st97{fill:url(#SVGID_00000127030295953849368710000002780004576025594025_);}
	.st98{fill:url(#SVGID_00000037663638087372297230000008889363617309942440_);}
	.st99{fill-rule:evenodd;clip-rule:evenodd;fill:url(#SVGID_00000129205023155107889350000002091708164325663892_);}
	.st100{fill-rule:evenodd;clip-rule:evenodd;fill:url(#SVGID_00000078748889638833758150000003748380330588268953_);}
	.st101{fill-rule:evenodd;clip-rule:evenodd;fill:url(#SVGID_00000022561843135417124230000008412403884628803501_);}
	.st102{fill-rule:evenodd;clip-rule:evenodd;fill:url(#SVGID_00000150084728752136534030000015830192090413882024_);}
	.st103{fill-rule:evenodd;clip-rule:evenodd;fill:url(#SVGID_00000183207939529253295760000014421351013063158684_);}
	.st104{fill-rule:evenodd;clip-rule:evenodd;fill:url(#SVGID_00000109716751620536914020000002808885958852519328_);}
	.st105{fill:url(#SVGID_00000024703148239547315810000000900523220135852715_);}
	.st106{fill:url(#SVGID_00000038395980984816497370000004412877978432329370_);}
	.st107{fill:url(#SVGID_00000157291400041572898830000015629532653114557845_);}
	.st108{fill:url(#SVGID_00000153687378047385896670000013944509233488185772_);}
	.st109{fill:#ECEFF0;}
	.st110{fill:url(#SVGID_00000047780544048815020210000011573353832315367554_);}
	.st111{fill:url(#SVGID_00000052100070514628018610000002781574168182530735_);}
	.st112{fill:url(#SVGID_00000127017536779283271400000017380595604191156125_);}
	.st113{fill:url(#SVGID_00000096020543567245091140000000364345457082969986_);}
	.st114{fill:#263756;}
	.st115{fill:url(#SVGID_00000164485072283457128270000012957386712201379738_);}
	.st116{fill:url(#SVGID_00000152223312978219584990000000872754508291845282_);}
	.st117{fill:url(#SVGID_00000035527056646148558980000016830505364034717845_);}
	.st118{fill:url(#SVGID_00000098906130510413590070000018064110201477912980_);}
	.st119{fill:url(#SVGID_00000038380693273979210990000008293346483811791790_);}
	.st120{fill-rule:evenodd;clip-rule:evenodd;fill:url(#SVGID_00000054258920113383905160000003499593952324573870_);}
	.st121{fill-rule:evenodd;clip-rule:evenodd;fill:url(#SVGID_00000147919976890684652460000007515498765838806433_);}
	.st122{fill-rule:evenodd;clip-rule:evenodd;fill:url(#SVGID_00000075854424157620470220000016516054920562963335_);}
	.st123{fill-rule:evenodd;clip-rule:evenodd;fill:#000002;}
	.st124{fill-rule:evenodd;clip-rule:evenodd;fill:url(#SVGID_00000070114205231091821820000002561170086372127392_);}
	.st125{fill:url(#SVGID_00000007404805895988905920000011864832295611369104_);}
	.st126{fill:#B0EB81;}
	.st127{fill:url(#SVGID_00000149360835115520640960000003279811584669971376_);}
	.st128{fill:url(#SVGID_00000005265944227045877150000013150982890020902049_);}
	.st129{fill:url(#SVGID_00000176016557228874638840000007429516142933265312_);}
	.st130{fill:#674447;}
	.st131{fill:url(#SVGID_00000161603968017229555020000003533921211946502581_);}
	.st132{fill:url(#SVGID_00000137849833727912626180000010950091495365614265_);}
	.st133{fill:url(#SVGID_00000082331312539718985530000016446518988381989271_);}
	.st134{fill:#75B63B;}
	.st135{fill:#053E22;}
	.st136{fill:#ECF894;}
	.st137{fill:#00FFFF;}
	.st138{fill:url(#SVGID_00000096776161083470950010000013621707150875913884_);}
	.st139{fill:url(#SVGID_00000034806015737163364580000015204091081750247060_);}
	.st140{fill:url(#SVGID_00000012458713239410681920000015273680661272872090_);}
	.st141{fill:url(#SVGID_00000060712801559932116500000013782192968708534180_);}
	.st142{fill:url(#SVGID_00000048495209658442630630000006228714312090070163_);}
	.st143{fill:url(#SVGID_00000063612431453693685620000016695563310983811007_);}
	.st144{fill-rule:evenodd;clip-rule:evenodd;fill:url(#SVGID_00000023243671542464593220000007898741868362637720_);}
	.st145{fill-rule:evenodd;clip-rule:evenodd;fill:url(#SVGID_00000066507089800916564110000009777279869430358956_);}
	.st146{fill-rule:evenodd;clip-rule:evenodd;fill:url(#SVGID_00000156582713740453165370000005273948094056054716_);}
	.st147{fill-rule:evenodd;clip-rule:evenodd;fill:url(#SVGID_00000161591364537213245960000011726945156134999433_);}
	.st148{fill-rule:evenodd;clip-rule:evenodd;fill:url(#SVGID_00000131338585589318464480000012381446012257436821_);}
	.st149{fill-rule:evenodd;clip-rule:evenodd;fill:url(#SVGID_00000033330916835677217510000000722913686241535655_);}
	.st150{fill-rule:evenodd;clip-rule:evenodd;fill:url(#SVGID_00000132090449956103821720000008376278696395790505_);}
	.st151{fill-rule:evenodd;clip-rule:evenodd;fill:url(#SVGID_00000064348084458378787920000000149025105870396086_);}
	.st152{fill-rule:evenodd;clip-rule:evenodd;fill:url(#SVGID_00000163755594877005825640000016633038423238050972_);}
	.st153{fill-rule:evenodd;clip-rule:evenodd;fill:#809224;}
	.st154{fill-rule:evenodd;clip-rule:evenodd;fill:#AFCA1F;}
	.st155{fill:url(#SVGID_00000096052235666440627000000002109078887183947913_);}
	.st156{fill:url(#SVGID_00000031179143112163673510000009670570269162155648_);}
	.st157{fill-rule:evenodd;clip-rule:evenodd;fill:#0081C6;}
	.st158{fill-rule:evenodd;clip-rule:evenodd;fill:#2AA349;}
	.st159{fill-rule:evenodd;clip-rule:evenodd;fill:#008A45;}
	.st160{fill-rule:evenodd;clip-rule:evenodd;fill:#8BC13F;}
	.st161{fill-rule:evenodd;clip-rule:evenodd;fill:#6BC6F0;}
	.st162{fill-rule:evenodd;clip-rule:evenodd;fill:#B97129;}
	.st163{fill-rule:evenodd;clip-rule:evenodd;fill:#643A18;}
	.st164{fill-rule:evenodd;clip-rule:evenodd;fill:#F9C22B;}
	.st165{fill:#142F47;}
	.st166{fill:#FEFEFE;}
	.st167{fill:#61A939;}
	.st168{fill:url(#SVGID_00000127745980802575177990000012746874066247711159_);}
	.st169{fill:#68A967;}
	.st170{fill:url(#SVGID_00000168116960324817919710000000663101712519537833_);}
	.st171{fill:#FBB040;}
	.st172{fill:#BFCFAB;}
	.st173{fill:#94AF73;}
	.st174{fill:#4A573A;}
	.st175{fill:url(#SVGID_00000034075429543811136540000008639795136330820489_);}
	.st176{fill-rule:evenodd;clip-rule:evenodd;fill:#09451F;}
	.st177{fill-rule:evenodd;clip-rule:evenodd;fill:#028F02;}
	.st178{fill:url(#SVGID_00000009577496585955927290000008415891912878977442_);}
	.st179{fill:url(#SVGID_00000164471877241060261420000017199782553737759131_);}
	.st180{fill:#643A18;}
	.st181{fill:#56483F;}
	.st182{fill:#B64B4A;}
	.st183{fill:#025D16;}
	.st184{fill:#38A32F;}
	.st185{fill:#82B336;}
	.st186{fill:#092B4B;}
	.st187{fill:#026937;}
	.st188{fill:#7EC142;}
	.st189{fill:#6EBD44;}
	.st190{fill:url(#SVGID_00000111191216655849677260000016075805779205355936_);}
	.st191{fill:url(#SVGID_00000063628750906632519710000000524801202856274055_);}
	.st192{fill:#FBFBF4;}
	.st193{fill:#408244;}
	.st194{fill:url(#SVGID_00000155853544049652968950000012916466280852762292_);}
	.st195{fill:#BCCD30;}
	.st196{fill:#6C9E41;}
	.st197{fill:#497235;}
	.st198{fill-rule:evenodd;clip-rule:evenodd;fill:url(#SVGID_00000183212445731731905610000015111651219904916631_);}
	.st199{fill:url(#SVGID_00000050659414357986963730000003572300902195025316_);}
	.st200{fill-rule:evenodd;clip-rule:evenodd;fill:#E6E6E6;}
</style>
<g id="Layer_1">
</g>
<g id="Layer_2">
</g>
<g id="Layer_3">
</g>
<g id="Layer_4">
</g>
<g id="Layer_5">
</g>
<g id="Layer_6">
</g>
<g id="Layer_7">
</g>
<g id="Layer_8">
</g>
<g id="Layer_9">
</g>
<g id="Layer_10">
</g>
<g id="Layer_11">
</g>
<g id="Layer_12">
</g>
<g id="Layer_13">
</g>
<g id="Layer_14">
</g>
<g id="Layer_15">
	<g>
		<linearGradient id="SVGID_1_" gradientUnits="userSpaceOnUse" x1="122.3323" y1="90.2312" x2="225.9559" y2="90.2312">
			<stop  offset="0" style="stop-color:#002718"/>
			<stop  offset="1" style="stop-color:#73C35D"/>
		</linearGradient>
		<path style="fill:url(#SVGID_1_);" d="M142.13,81.51c0.74-0.09,1.42,0.4,2.04,0.75c-0.01,0.6,0.03,1.23-0.04,1.82
			C143.36,83.28,142.72,82.47,142.13,81.51z M136.34,77.28c0.03,0.05,0.08,0.08,0.12,0.12c1.18,1.28,2.97,7.25,4.01,9.23
			c0.58-1.6,0.88-3.18,0.5-4.87c-0.67-2.96-2.88-5.14-5.36-6.7C135.57,75.64,136,76.8,136.34,77.28z M214.96,87.3
			c1.57-0.61,2.79-1.54,3.64-3.01c1.59-2.74,1.21-5.99,0.45-8.92c-0.8,1.38-0.88,3.61-1.74,4.84
			C216.67,82.57,215.97,85.08,214.96,87.3z M136.46,77.4c-0.04-0.04-0.08-0.08-0.12-0.12c-0.34-0.48-0.77-1.64-0.73-2.22l-0.18,0.03
			c-0.78,1.26-0.54,4.7-0.2,6.13c0.69,2.91,2.21,4.86,4.62,6.6C138.71,84.35,137.66,80.86,136.46,77.4z M209.74,66.31
			c0.3,0.89,0.9,1.74,1.28,2.62c0.46,1.06,2.38,6.31,1.6,6.98l-0.16,0.14l0.3,0.04c0.13,0.21,0.09,0.22,0.04,0.47
			c-0.17,0.12-0.34,0.25-0.51,0.38l0.01,0.05c0.16-0.06,0.44-0.23,0.59-0.17c-0.15,0.24-0.33,0.37-0.56,0.53l0.45,0.05l0.05,0.07
			c-0.41,0.37-2.38,0.93-2.99,1.03c-0.07,1.18-0.03,2.36-0.11,3.54c0.73,0.03,1.27-0.28,1.92-0.57l-0.09,0.07l0.25-0.02l0.07-0.1
			l0.18,0.03c1.14-1.36,1.68-4.24,1.68-5.97c-0.01-3.37-1.61-7.37-4-9.76C209.7,65.96,209.65,66.06,209.74,66.31z M217.31,80.22
			c0.86-1.23,0.94-3.46,1.74-4.84l-0.08-0.22c-0.27-0.06-0.44,0.05-0.68,0.19c-2.16,1.33-3.93,3.41-4.5,5.92
			c-0.43,1.88-0.22,3.8,0.38,5.62C214.69,85.93,216.99,80.53,217.31,80.22z M208.56,82.12c0.13-0.79,0.23-1.58,0.32-2.37
			c0.19-1.79,0.33-3.58,0.45-5.37c0.06-1.09-0.07-2.41,0.19-3.45l0.11,0.05c0.05-1.9-0.55-3.87-0.4-5.78l-0.1-0.03
			c-2.49,2.65-4.07,7.23-3.97,10.84c0.09,2.86,0.98,6.06,3.1,8.09L208.56,82.12z M144.83,69.07c-0.01,2.22-0.07,4.52-0.28,6.72
			c-0.09,2.13-0.47,4.35-0.38,6.47c-0.01,0.6,0.03,1.23-0.04,1.82c0.37,0.87,0.02,4.09-0.02,5.19c0.42-0.13,0.84-0.25,1.26-0.37
			c-0.11-0.15-0.14-0.23-0.16-0.42c-0.07-0.57-0.03-4.1,0.13-4.44c0.03-0.08,0.1-0.13,0.15-0.2c1.84-1.42,2.99-4.26,3.32-6.49
			c0.62-4.19-0.54-7.95-3.05-11.32c-0.2-0.26-0.44-0.65-0.78-0.7l-0.2,0.21C144.89,66.72,144.75,67.9,144.83,69.07z M179.25,94.46
			l-0.01,0.77c0.03,1.22,0.04,2.43,0.03,3.65c4.38,0.18,8.37,0.82,12.45,2.5c0.71-0.4,1.69-0.66,2.46-0.93
			c3.09-1.09,6.22-2.06,9.39-2.91c5.32-1.39,11.07-1.95,16.56-1.78c1.95,0.06,3.88,0.25,5.81,0.39c-2.04-1.49-4.68-2.49-7-3.45
			c-1.74-0.72-3.49-1.47-5.27-2.09c-9.06-3.15-18.45-4.53-27.96-5.4l-0.07-0.13c-2.22,0.65-4.32,1.08-6.63,1.23
			C179.13,89.02,179.27,91.74,179.25,94.46z M179.24,95.23c0.03,1.22,0.04,2.43,0.03,3.65c4.38,0.18,8.37,0.82,12.45,2.5
			c0.71-0.4,1.69-0.66,2.46-0.93c3.09-1.09,6.22-2.06,9.39-2.91c-0.89-0.47-2.28-0.66-3.27-0.87c-6.92-1.48-13.99-2.08-21.06-2.22
			L179.24,95.23z M166.58,85.12c-2.71,0.17-5.46,0.49-8.15,0.88c-4.38,0.62-8.83,1.59-13.06,2.91c-0.42,0.12-0.84,0.24-1.26,0.37
			c-0.97,0.29-1.93,0.6-2.89,0.93c-0.96,0.33-1.91,0.68-2.85,1.04c-0.94,0.37-1.88,0.75-2.81,1.15c-0.93,0.4-1.85,0.82-2.76,1.26
			c-0.91,0.44-1.81,0.89-2.71,1.37c-0.89,0.47-1.78,0.96-2.65,1.47c-0.87,0.51-1.74,1.03-2.59,1.58c-0.85,0.54-1.7,1.1-2.53,1.68
			c6.81-0.18,12.46,0.61,19.05,2.24c0.03-0.04,0.06-0.08,0.1-0.11c0.6-0.57,3.26-1.3,4.21-1.63c10.82-3.74,20.81-5.37,32.19-5.8
			c0-0.78,0-1.55,0.07-2.32c0-1.93,0.06-3.86,0.2-5.79c-2.78-0.11-5.48-0.54-8.12-1.44C169.25,85.24,167.49,85.07,166.58,85.12z
			 M177.88,94.45c-11.39,0.43-21.38,2.06-32.19,5.8c-0.95,0.33-3.61,1.06-4.21,1.63c-0.04,0.03-0.07,0.08-0.1,0.11
			c9.35,2.72,17.8,7.06,25.29,13.31c1.41-1.07,2.95-2,4.44-2.96c3.67-2.38,7.44-4.6,11.31-6.65c0.38-0.06,8.36-3.78,9.3-4.32
			c-4.08-1.68-8.07-2.32-12.45-2.5c0.01-1.22,0-2.44-0.03-3.65c-0.33,1.11-0.12,2.99-0.13,4.18c-0.01,0.8-0.06,1.59-0.1,2.39
			l-0.96,0c-0.05-0.97,0.05-2.03-0.07-2.98c-0.09-2.22,0.05-4.46-0.02-6.69C177.89,92.9,177.89,93.67,177.88,94.45z"/>
		
			<linearGradient id="SVGID_00000105415699279350597340000005603183676855803811_" gradientUnits="userSpaceOnUse" x1="193.9561" y1="48.8961" x2="160.6328" y2="86.311">
			<stop  offset="0" style="stop-color:#002718"/>
			<stop  offset="1" style="stop-color:#73C35D"/>
		</linearGradient>
		<path style="fill:url(#SVGID_00000105415699279350597340000005603183676855803811_);" d="M162.34,48.37
			c3.37-3.87,9.1-6.08,14.12-6.42c0.18-0.01,0.36-0.02,0.54-0.03c0.18-0.01,0.36-0.01,0.54-0.02s0.36,0,0.54,0
			c0.18,0,0.36,0,0.54,0.01c0.18,0.01,0.36,0.01,0.54,0.02c0.18,0.01,0.36,0.02,0.54,0.04c0.18,0.01,0.36,0.03,0.54,0.05
			c0.18,0.02,0.36,0.04,0.54,0.06c0.18,0.02,0.36,0.05,0.54,0.08c0.18,0.03,0.36,0.06,0.54,0.09c0.18,0.03,0.36,0.07,0.53,0.1
			c0.18,0.04,0.35,0.08,0.53,0.12c0.18,0.04,0.35,0.08,0.53,0.13c0.18,0.05,0.35,0.09,0.52,0.14c0.17,0.05,0.35,0.1,0.52,0.16
			c0.17,0.05,0.34,0.11,0.52,0.17c0.17,0.06,0.34,0.12,0.51,0.18c0.17,0.06,0.34,0.13,0.51,0.2c0.17,0.07,0.34,0.14,0.5,0.21
			c0.17,0.07,0.33,0.14,0.5,0.22c0.16,0.08,0.33,0.15,0.49,0.23c0.16,0.08,0.32,0.16,0.49,0.24c0.16,0.08,0.32,0.17,0.48,0.26
			c0.16,0.09,0.32,0.18,0.47,0.27c0.16,0.09,0.31,0.18,0.47,0.28c0.15,0.1,0.31,0.19,0.46,0.29c0.15,0.1,0.3,0.2,0.45,0.3
			s0.3,0.21,0.44,0.31c0.15,0.11,0.29,0.21,0.44,0.33c0.14,0.11,0.29,0.22,0.43,0.34c0.14,0.11,0.28,0.23,0.42,0.35
			c0.14,0.12,0.27,0.24,0.41,0.36c0.55,0.48,1.1,0.99,1.55,1.56c0.77,0.68,1.42,1.54,2.01,2.37c0.16,0.22,0.31,0.45,0.46,0.67
			c0.15,0.23,0.3,0.46,0.44,0.69c0.14,0.23,0.28,0.47,0.42,0.71c0.13,0.24,0.26,0.48,0.39,0.72c0.13,0.24,0.25,0.49,0.37,0.73
			s0.23,0.49,0.34,0.74c0.11,0.25,0.21,0.5,0.31,0.76c0.1,0.25,0.2,0.51,0.29,0.77c0.09,0.26,0.18,0.52,0.26,0.78
			c0.08,0.26,0.16,0.52,0.23,0.78c0.07,0.26,0.14,0.53,0.21,0.79c0.06,0.26,0.12,0.53,0.18,0.8c0.06,0.27,0.11,0.54,0.15,0.8
			c0.05,0.27,0.09,0.54,0.13,0.81c0.04,0.27,0.07,0.54,0.1,0.81c0.03,0.27,0.05,0.54,0.07,0.82c0.35,5.56-1.42,11.03-5.13,15.22
			c-0.16,0.18-0.32,0.36-0.49,0.54c-0.17,0.18-0.33,0.35-0.51,0.52c-0.17,0.17-0.35,0.34-0.52,0.51c-0.18,0.17-0.36,0.33-0.54,0.49
			c-0.18,0.16-0.37,0.32-0.56,0.47c-0.19,0.15-0.38,0.3-0.57,0.45c-0.19,0.15-0.39,0.29-0.59,0.43c-0.2,0.14-0.4,0.28-0.6,0.41
			c-0.2,0.13-0.41,0.26-0.61,0.39c-0.21,0.13-0.42,0.25-0.63,0.37c-0.21,0.12-0.42,0.23-0.64,0.35c-0.22,0.11-0.43,0.22-0.65,0.32
			c-0.22,0.1-0.44,0.2-0.66,0.3c-0.22,0.1-0.45,0.19-0.67,0.28c-0.23,0.09-0.45,0.17-0.68,0.26c-0.23,0.08-0.46,0.16-0.69,0.23
			c-2.22,0.65-4.32,1.08-6.63,1.23c0.12,2.72,0.25,5.43,0.23,8.15l-0.01,0.77c-0.33,1.11-0.12,2.99-0.13,4.18
			c-0.01,0.8-0.06,1.59-0.1,2.39l-0.96,0c-0.05-0.97,0.05-2.03-0.07-2.98c-0.09-2.22,0.05-4.46-0.02-6.69c0-1.93,0.06-3.86,0.2-5.79
			c-2.78-0.11-5.48-0.54-8.12-1.44c-2.73-1.13-6.72-3.16-8.43-5.58c-1.46-1.31-2.69-3.21-3.58-4.95
			c-2.69-5.22-3.12-11.14-1.33-16.73c0.07-0.22,0.13-0.44,0.21-0.65c0.07-0.22,0.15-0.43,0.23-0.65c0.08-0.21,0.16-0.43,0.25-0.64
			c0.09-0.21,0.18-0.42,0.27-0.63c0.09-0.21,0.19-0.42,0.29-0.62c0.1-0.21,0.2-0.41,0.31-0.61c0.11-0.2,0.22-0.4,0.33-0.6
			c0.11-0.2,0.23-0.4,0.35-0.59c0.12-0.2,0.24-0.39,0.37-0.58c0.13-0.19,0.25-0.38,0.39-0.57c0.13-0.19,0.27-0.37,0.4-0.56
			c0.14-0.18,0.28-0.36,0.42-0.54c0.14-0.18,0.29-0.35,0.44-0.53c0.15-0.17,0.3-0.34,0.46-0.51c0.15-0.17,0.31-0.34,0.47-0.5
			C162.02,48.69,162.18,48.53,162.34,48.37z"/>
		<path class="st192" d="M144.83,69.07l0.03-0.17c0.03-0.16,0.03-0.3,0.01-0.47l0.27-0.05l-0.12-0.02c0.01,0.04,0.02,0.08,0.03,0.12
			c0.19,0.9,0.04,2.92,0.06,3.95c0.05,2.38,0.15,4.77,0.23,7.15c0.05,1.41,0.03,2.85,0.15,4.25c-0.05,0.07-0.12,0.12-0.15,0.2
			c-0.16,0.34-0.2,3.87-0.13,4.44c0.02,0.19,0.06,0.27,0.16,0.42c-0.42,0.12-0.84,0.24-1.26,0.37c0.04-1.1,0.4-4.32,0.02-5.19
			c0.07-0.59,0.03-1.23,0.04-1.82c-0.09-2.12,0.29-4.34,0.38-6.47C144.76,73.59,144.82,71.29,144.83,69.07z M157.38,66.14
			c0.31,0.35,0.59,0.67,0.99,0.92c0.38-0.27,0.62-0.53,0.89-0.9c-0.25-0.28-0.55-0.72-0.87-0.9L157.38,66.14z M196.97,66.55
			l0.96,1.05c0.33-0.33,0.65-0.65,0.91-1.04l-0.94-0.94C197.59,65.93,197.27,66.23,196.97,66.55z M186.41,49.66l-0.14,0.1
			c0.32,0.4,0.62,0.8,1.01,1.14c0.31-0.36,0.64-0.72,0.92-1.11c-0.29-0.25-0.56-0.5-0.83-0.78c-0.09-0.1-0.05-0.07-0.16-0.11
			C186.96,49.21,186.73,49.44,186.41,49.66z M190.81,55.42c0.28,0.3,0.72,0.92,1.11,1.03c0.35-0.34,0.65-0.66,0.93-1.06
			c-0.54-0.26-0.69-0.49-1.07-0.91c-0.01-0.02-0.04-0.03-0.05-0.04C191.46,54.87,191.22,55.13,190.81,55.42z M190.93,74.77
			c0.34,0.39,0.66,0.77,1.07,1.09c0.29-0.34,0.61-0.68,0.86-1.04c-0.31-0.3-0.64-0.75-0.98-1
			C191.58,74.15,191.28,74.47,190.93,74.77z M177.69,49.83c0.32,0.38,0.64,0.84,1.02,1.15c0.42-0.34,0.77-0.69,1.11-1.11
			c-0.4-0.27-0.7-0.53-1.03-0.88c-0.06-0.06-0.11-0.12-0.17-0.18C178.37,49.32,178.17,49.54,177.69,49.83z M163.6,55.64
			c-0.1,0.08-0.21,0.16-0.31,0.24c0.3,0.39,0.58,0.76,0.98,1.05l0.19,0c0.34-0.33,0.61-0.64,0.88-1.03
			c-0.35-0.32-0.76-0.78-1.16-1.02C164.04,55.24,163.9,55.41,163.6,55.64z M190.78,65.6c0.28,0.28,0.85,0.99,1.21,1.01
			c0.34-0.33,0.65-0.67,0.96-1.03c-0.33-0.24-0.87-0.85-1.21-0.98C191.44,64.97,191.14,65.28,190.78,65.6z M186.21,60.03
			c0.41,0.42,0.81,0.92,1.26,1.28c0.41-0.38,0.73-0.75,1.04-1.21c-0.49-0.29-0.87-0.58-1.22-1.04
			C186.99,59.61,186.78,59.79,186.21,60.03z M168.1,49.54c0.42,0.43,0.81,1,1.27,1.37l1.09-1.27c-0.47-0.3-0.87-0.58-1.23-1.02
			C168.92,49.13,168.63,49.29,168.1,49.54z M182.33,74.7c0.41,0.4,0.82,0.85,1.26,1.21c0.48-0.38,0.74-0.79,1.01-1.33
			c-0.37-0.23-0.68-0.45-1.01-0.72c-0.13-0.11-0.07-0.07-0.21-0.13C183.05,74.1,182.73,74.41,182.33,74.7z M177.57,79.01
			c0.41,0.37,0.83,0.84,1.32,1.1c0.35-0.37,0.68-0.73,0.99-1.13c-0.42-0.35-0.81-0.82-1.29-1.06
			C178.27,78.33,177.99,78.67,177.57,79.01z M163.95,75.83c0.19-0.02,0.4-0.05,0.58-0.11c0.37-0.14,0.71-0.59,0.83-0.94l-0.12-0.18
			c-0.39-0.27-0.7-0.54-1.03-0.87c-0.35,0.45-0.68,0.7-1.17,0.97C163.4,75.03,163.82,75.32,163.95,75.83z M186.26,70.05
			c0.42,0.43,0.8,0.92,1.37,1.16c0.41-0.32,0.69-0.76,1-1.18c-0.41-0.2-0.63-0.37-0.92-0.72c-0.12-0.15-0.24-0.32-0.37-0.45
			C187.02,69.36,186.77,69.71,186.26,70.05z M163.02,65.39c0.39,0.47,0.8,1.09,1.37,1.34c0.45-0.34,0.71-0.82,1.08-1.23
			c-0.48-0.28-0.79-0.63-1.2-0.98C163.89,64.92,163.51,65.16,163.02,65.39z M172.59,74.38c0.32,0.41,0.63,0.82,0.93,1.25
			c0.18,0,0.11,0.03,0.22-0.04c0.32-0.04,0.51-0.01,0.71-0.29c0.2-0.28,0.34-0.56,0.57-0.81c-0.43-0.23-0.71-0.45-1.05-0.79
			l-0.25-0.24C173.36,73.94,173.15,74.14,172.59,74.38z M172.42,54.01c0.49,0.66,0.71,1.09,1.53,1.36c0.37-0.08,0.61-0.49,0.81-0.8
			c0.07-0.12,0.15-0.23,0.22-0.35c-0.39-0.3-0.73-0.58-1.06-0.95c-0.09-0.1-0.17-0.19-0.26-0.28
			C173.29,53.51,173.01,53.78,172.42,54.01z M167.71,60.05c0.34,0.26,0.81,1.1,1.12,1.2l0.16-0.04c0.17,0.01,0.44,0.08,0.57-0.04
			c0.31-0.27,0.57-0.75,0.85-1.07c-0.55-0.32-0.93-0.64-1.38-1.09c-0.01-0.01-0.02-0.02-0.04-0.02
			C168.62,59.47,168.26,59.76,167.71,60.05z M182.25,54.38c0.18,0.23,0.36,0.46,0.52,0.71c0.29,0.44,0.61,0.53,1.08,0.72
			c0.34-0.28,0.73-0.56,0.86-0.99c-0.01-0.3-0.09-0.51-0.31-0.71c-0.29-0.26-0.64-0.66-0.95-0.88
			C183.12,53.85,182.89,54.06,182.25,54.38z M168.53,70.71c0.02,0.02,0.04,0.04,0.06,0.05c0.38,0.31,0.79,0.19,1.25,0.14
			c0.23-0.48,0.52-0.91,0.73-1.41c-0.69-0.14-0.89-0.34-1.27-0.92c-0.04-0.06-0.08-0.12-0.11-0.18c-0.42,0.52-0.75,0.96-1.36,1.28
			C168.11,70.01,168.37,70.3,168.53,70.71z M182.98,64.48l-0.91,0.45l0.09,0.09c0.52,0.52,0.84,1.23,1.58,1.39
			c0.48-0.39,0.85-0.99,1.17-1.52c-0.45-0.27-0.77-0.54-1.14-0.91l-0.32-0.32L182.98,64.48z M176.03,68.77
			c-0.37,0.61-0.51,1.34-0.32,2.04c0.03,0.1,0.06,0.2,0.09,0.29c0.04,0.1,0.08,0.19,0.12,0.28c0.05,0.09,0.1,0.18,0.15,0.27
			c0.05,0.09,0.11,0.17,0.18,0.25c0.06,0.08,0.13,0.16,0.2,0.23c0.07,0.07,0.14,0.14,0.22,0.21c0.08,0.07,0.16,0.13,0.24,0.19
			c0.08,0.06,0.17,0.11,0.26,0.16c0.57,0.32,1.1,0.36,1.74,0.34c0.87-0.23,1.57-0.59,2.04-1.39c0.05-0.08,0.09-0.16,0.13-0.25
			c0.04-0.08,0.07-0.17,0.1-0.26c0.03-0.09,0.06-0.18,0.08-0.27c0.02-0.09,0.04-0.18,0.05-0.27c0.01-0.09,0.02-0.18,0.02-0.28
			c0-0.09,0-0.19,0-0.28c-0.01-0.09-0.01-0.18-0.03-0.28c-0.01-0.09-0.03-0.18-0.06-0.27c-0.02-0.09-0.05-0.17-0.08-0.26
			c-0.03-0.08-0.07-0.17-0.11-0.25c-0.04-0.08-0.08-0.16-0.13-0.24c-0.05-0.08-0.1-0.15-0.15-0.22c-0.05-0.07-0.11-0.14-0.18-0.21
			c-0.06-0.07-0.13-0.13-0.19-0.19c-0.07-0.06-0.14-0.12-0.21-0.17c-0.07-0.05-0.15-0.1-0.23-0.15c-0.61-0.35-1.23-0.42-1.92-0.4
			C177.19,67.61,176.49,68,176.03,68.77z M178.83,62.75c0.11-0.01,0.22-0.02,0.33-0.03c0.11-0.02,0.22-0.04,0.33-0.07
			c0.11-0.03,0.21-0.06,0.32-0.1c0.1-0.04,0.21-0.08,0.31-0.13c0.1-0.05,0.2-0.1,0.29-0.16c0.09-0.06,0.19-0.12,0.28-0.19
			c0.09-0.07,0.17-0.14,0.26-0.21c0.08-0.08,0.16-0.16,0.23-0.24c0.65-0.75,0.87-1.63,0.79-2.6c-0.39-1.08-0.87-2.01-1.97-2.52
			c-0.1-0.05-0.2-0.09-0.31-0.12c-0.1-0.04-0.21-0.07-0.32-0.09c-0.11-0.02-0.22-0.04-0.33-0.06c-0.11-0.01-0.22-0.02-0.33-0.03
			c-0.11,0-0.22,0-0.33,0.01c-0.11,0.01-0.22,0.02-0.33,0.04c-0.11,0.02-0.22,0.04-0.32,0.07c-0.11,0.03-0.21,0.07-0.31,0.11
			c-0.83,0.34-1.52,1.04-1.86,1.88c-0.02,0.05-0.04,0.1-0.06,0.16c-0.02,0.05-0.03,0.11-0.05,0.16c-0.01,0.05-0.03,0.11-0.04,0.16
			c-0.01,0.05-0.02,0.11-0.03,0.16c-0.01,0.05-0.02,0.11-0.02,0.16c-0.01,0.05-0.01,0.11-0.01,0.16c0,0.06-0.01,0.11-0.01,0.17
			c0,0.06,0,0.11,0,0.17c0,0.06,0.01,0.11,0.01,0.16c0,0.05,0.01,0.11,0.02,0.16c0.01,0.05,0.02,0.11,0.03,0.16
			c0.01,0.05,0.02,0.11,0.04,0.16c0.01,0.05,0.03,0.11,0.04,0.16c0.02,0.05,0.03,0.1,0.05,0.16c0.02,0.05,0.04,0.1,0.06,0.15
			c0.02,0.05,0.04,0.1,0.07,0.15c0.26,0.54,0.59,0.92,1.03,1.31C177.35,62.58,178.04,62.79,178.83,62.75z M174.25,68.33
			c0.83-0.31,1.54-0.92,1.91-1.73c0.45-0.98,0.34-1.9,0-2.87c-0.76-0.98-1.25-1.6-2.57-1.8c-0.9-0.14-1.82,0.07-2.55,0.62
			c-0.72,0.54-1.23,1.38-1.36,2.28c-0.02,0.11-0.03,0.22-0.03,0.33c0,0.11,0,0.22,0,0.33c0.01,0.11,0.02,0.22,0.04,0.33
			c0.02,0.11,0.04,0.22,0.07,0.32c0.03,0.11,0.06,0.21,0.1,0.31c0.04,0.1,0.08,0.2,0.13,0.3c0.05,0.1,0.1,0.19,0.16,0.29
			s0.12,0.18,0.19,0.27c0.43,0.55,0.95,0.84,1.56,1.15C172.73,68.59,173.44,68.62,174.25,68.33z"/>
		<path class="st193" d="M209.74,82.04c0.73,0.03,1.27-0.28,1.92-0.57l-0.09,0.07l0.25-0.02l0.07-0.1l0.18,0.03
			c-0.41,0.8-1.46,2.31-2.31,2.64l-0.1-0.05C209.7,83.38,209.74,82.7,209.74,82.04z M209.62,70.97c0.08,1.56,0.19,3.13,0.2,4.69
			l0.02,1.16c0.02,0.56-0.03,1.13,0.01,1.69c0.6-0.1,2.58-0.66,2.99-1.03l-0.05-0.07l-0.45-0.05c0.22-0.16,0.41-0.29,0.56-0.53
			c-0.15-0.06-0.44,0.11-0.59,0.17l-0.01-0.05c0.17-0.13,0.34-0.26,0.51-0.38c0.05-0.25,0.09-0.26-0.04-0.47l-0.3-0.04l0.16-0.14
			c0.78-0.68-1.14-5.92-1.6-6.98c-0.38-0.87-0.98-1.73-1.28-2.62c-0.08-0.24-0.04-0.34,0.03-0.58c-0.14-0.19-0.37-0.37-0.54-0.54
			C209.08,67.1,209.67,69.06,209.62,70.97z M140.84,73.93c-0.51,2.58,0.1,5.28,1.29,7.59c0.74-0.09,1.42,0.4,2.04,0.75
			c-0.09-2.12,0.29-4.34,0.38-6.47c0.21-2.21,0.26-4.5,0.28-6.72c-0.08-1.17,0.06-2.35-0.05-3.52
			C143.11,67.41,140.79,71.34,140.84,73.93z M178.05,101.8c-0.05-0.97,0.05-2.03-0.07-2.98c-0.89,0.29-2.05,0.2-3,0.32
			c-3.6,0.48-7.34,1.74-10.25,3.94c0.52,0.19,1.05,0.36,1.58,0.53c0.53,0.17,1.06,0.32,1.6,0.47c0.53,0.15,1.07,0.28,1.61,0.41
			c0.54,0.13,1.08,0.24,1.63,0.35c0.54,0.11,1.09,0.2,1.64,0.29c0.55,0.09,1.1,0.16,1.65,0.23c0.55,0.07,1.1,0.12,1.66,0.16
			c0.55,0.04,1.11,0.08,1.66,0.1c1.54,0.08,3.15-0.1,4.67,0.07c0.38-0.06,8.36-3.78,9.3-4.32c-4.08-1.68-8.07-2.32-12.45-2.5
			c0.01-1.22,0-2.44-0.03-3.65c-0.33,1.11-0.12,2.99-0.13,4.18c-0.01,0.8-0.06,1.59-0.1,2.39L178.05,101.8z M114.19,125.56
			c-3.83,4.41-5.37,10.05-4.93,15.81c0.31,4.08,1.94,9.99,4.11,13.47c-1.31-4.8-1.29-9.91,1.24-14.33c0.55-0.95,1.21-1.9,1.96-2.71
			c5.22-5.62,14-7.33,21.37-7.6c2.87-0.11,6.06,0.01,8.87,0.61c2.79-2.87,5.61-5.66,8.77-8.12c-6.5-2.96-14.25-4.94-21.41-4.98
			c-0.93,0-1.95-0.07-2.87,0.05C124.67,118.24,118.66,120.42,114.19,125.56z M117.04,100.28c0.87-0.14,1.74-0.24,2.62-0.3
			c-0.25-4-0.3-8.12,0.15-12.11c1.83-15.97,9.85-30.08,22.42-40.05c0.37-0.29,0.73-0.57,1.11-0.84c0.37-0.28,0.75-0.55,1.13-0.82
			c0.38-0.27,0.76-0.53,1.15-0.79s0.77-0.51,1.16-0.76c0.39-0.25,0.79-0.49,1.18-0.73c0.4-0.24,0.8-0.47,1.2-0.7
			c0.4-0.23,0.81-0.45,1.22-0.67c0.41-0.22,0.82-0.43,1.23-0.64c0.41-0.21,0.83-0.41,1.25-0.61c0.42-0.2,0.84-0.39,1.26-0.58
			c0.42-0.19,0.85-0.37,1.28-0.55s0.86-0.35,1.29-0.52c0.43-0.17,0.87-0.33,1.3-0.49c0.44-0.16,0.87-0.31,1.31-0.46
			c0.44-0.15,0.88-0.29,1.32-0.43c0.44-0.14,0.89-0.27,1.33-0.39c0.45-0.13,0.89-0.25,1.34-0.36c0.45-0.11,0.9-0.22,1.35-0.33
			c0.45-0.1,0.91-0.2,1.36-0.3c0.45-0.09,0.91-0.18,1.37-0.26c0.46-0.08,0.91-0.16,1.37-0.23c0.46-0.07,0.92-0.14,1.38-0.2
			c0.46-0.06,0.92-0.11,1.38-0.16c0.46-0.05,0.92-0.09,1.39-0.13c0.46-0.04,0.92-0.07,1.39-0.1c0.46-0.03,0.93-0.05,1.39-0.06
			c0.46-0.01,0.93-0.02,1.39-0.03c0.46,0,0.93,0,1.39,0.01c0.46,0.01,0.93,0.02,1.39,0.04c0.46,0.02,0.93,0.04,1.39,0.07
			c0.46,0.03,0.93,0.07,1.39,0.11c0.46,0.04,0.92,0.09,1.38,0.14c0.47,0.05,0.94,0.11,1.41,0.17c0.47,0.06,0.94,0.13,1.41,0.21
			c0.47,0.08,0.94,0.16,1.4,0.24c0.47,0.09,0.93,0.18,1.4,0.28c0.46,0.1,0.93,0.2,1.39,0.31c0.46,0.11,0.92,0.23,1.38,0.35
			c0.46,0.12,0.92,0.25,1.37,0.38c0.46,0.13,0.91,0.27,1.36,0.41c0.45,0.14,0.9,0.29,1.35,0.45c0.45,0.16,0.9,0.32,1.34,0.48
			c0.44,0.17,0.89,0.34,1.33,0.52c0.44,0.18,0.88,0.36,1.32,0.55c0.44,0.19,0.87,0.38,1.3,0.58c0.43,0.2,0.86,0.4,1.29,0.61
			s0.85,0.42,1.27,0.64c0.42,0.22,0.84,0.45,1.25,0.68c0.42,0.23,0.83,0.47,1.24,0.71c0.41,0.24,0.82,0.49,1.22,0.74
			c0.4,0.25,0.8,0.51,1.2,0.77c0.4,0.26,0.79,0.53,1.18,0.8c0.39,0.27,0.78,0.55,1.16,0.83c0.38,0.28,0.76,0.57,1.14,0.86
			c0.38,0.29,0.75,0.58,1.12,0.88c0.37,0.3,0.73,0.6,1.1,0.91c0.36,0.31,0.72,0.62,1.07,0.94c0.35,0.32,0.7,0.64,1.05,0.96
			c0.35,0.33,0.69,0.66,1.02,0.99c0.34,0.33,0.67,0.67,1,1.02c0.33,0.34,0.65,0.69,0.97,1.04c0.32,0.35,0.64,0.71,0.95,1.06
			c0.31,0.36,0.62,0.72,0.92,1.09c0.3,0.37,0.6,0.74,0.89,1.11c0.25,0.31,0.5,0.62,0.74,0.94c0.24,0.32,0.48,0.63,0.72,0.96
			c0.24,0.32,0.47,0.64,0.7,0.97c0.23,0.33,0.46,0.65,0.68,0.98c0.22,0.33,0.44,0.66,0.66,1c0.22,0.34,0.43,0.67,0.64,1.01
			c0.21,0.34,0.42,0.68,0.62,1.03c0.2,0.34,0.4,0.69,0.6,1.04c0.19,0.35,0.39,0.7,0.57,1.05c0.19,0.35,0.37,0.71,0.55,1.06
			c0.18,0.36,0.36,0.71,0.53,1.07c0.17,0.36,0.34,0.72,0.51,1.08c0.17,0.36,0.33,0.73,0.48,1.09c0.16,0.37,0.31,0.73,0.46,1.1
			c0.15,0.37,0.3,0.74,0.44,1.11c0.14,0.37,0.28,0.75,0.41,1.12c0.13,0.38,0.26,0.75,0.39,1.13c0.13,0.38,0.25,0.76,0.37,1.14
			c0.12,0.38,0.23,0.76,0.34,1.15c0.11,0.38,0.22,0.77,0.32,1.15c0.1,0.39,0.2,0.77,0.3,1.16c0.09,0.39,0.18,0.78,0.27,1.17
			c0.09,0.39,0.17,0.78,0.25,1.17c0.08,0.39,0.15,0.78,0.22,1.18c0.07,0.39,0.14,0.79,0.2,1.18c0.06,0.39,0.12,0.79,0.17,1.18
			c0.05,0.4,0.1,0.79,0.15,1.19c0.05,0.4,0.09,0.79,0.12,1.19c0.04,0.4,0.07,0.79,0.1,1.19c0.03,0.4,0.05,0.8,0.07,1.19
			c0.02,0.4,0.04,0.8,0.05,1.2c0.01,0.4,0.02,0.8,0.02,1.2c0.02,2.95-0.22,5.87-0.57,8.79c-3.32-0.2-6.54-0.23-9.85,0.13
			c-11.53,1.25-21.94,6.86-30.74,14.2c-2.77,2.31-5.35,4.83-8.08,7.19c-5.62,4.87-11.65,9.26-18.3,12.64
			c-4.98,2.54-10.5,4.58-16,5.63c-2.42,0.46-4.88,0.67-7.3,1.12c5.07-5.92,10.88-11.49,16.65-16.72
			c16.21-14.7,36.51-27.46,58.84-29.06c2.29-0.18,4.58-0.19,6.87-0.04c1.36,0.09,2.71,0.28,4.06,0.34c-1.69-0.44-3.4-0.76-5.12-1.09
			c-1.94-0.14-3.87-0.34-5.81-0.39c-5.49-0.16-11.24,0.4-16.56,1.78c-3.17,0.85-6.3,1.81-9.39,2.91c-0.78,0.27-1.75,0.53-2.46,0.93
			c-0.94,0.54-8.92,4.26-9.3,4.32c-3.87,2.05-7.64,4.27-11.31,6.65c-1.49,0.96-3.03,1.89-4.44,2.96c-0.64,0.51-1.29,0.98-1.96,1.44
			c-2.42-1.71-4.78-3.41-7.34-4.92c-0.4-0.24-0.8-0.48-1.21-0.71c-0.4-0.23-0.81-0.46-1.22-0.68c-0.41-0.22-0.82-0.44-1.24-0.66
			c-0.41-0.21-0.83-0.42-1.25-0.63c-0.42-0.21-0.84-0.41-1.26-0.6c-0.42-0.2-0.85-0.39-1.28-0.57c-0.43-0.19-0.86-0.37-1.29-0.55
			s-0.87-0.35-1.3-0.52c-0.44-0.17-0.87-0.33-1.31-0.49c-0.44-0.16-0.88-0.31-1.32-0.46c-0.44-0.15-0.89-0.29-1.33-0.43
			c-0.45-0.14-0.89-0.27-1.34-0.4c-0.45-0.13-0.9-0.25-1.35-0.37c-0.45-0.12-0.9-0.23-1.36-0.34c-0.45-0.11-0.91-0.21-1.37-0.31
			s-0.91-0.19-1.37-0.28c-0.46-0.09-0.92-0.17-1.38-0.25c-0.46-0.08-0.92-0.15-1.38-0.22c-0.46-0.07-0.92-0.13-1.39-0.19
			c-0.46-0.06-0.93-0.11-1.39-0.16c-0.46-0.05-0.93-0.09-1.39-0.13c-0.47-0.04-0.93-0.07-1.4-0.09c-0.47-0.03-0.93-0.05-1.4-0.06
			c-0.47-0.02-0.93-0.03-1.4-0.03c-0.47-0.01-0.93-0.01-1.4,0c-0.47,0-0.93,0.01-1.4,0.03c-0.47,0.02-0.93,0.04-1.4,0.06
			c-0.47,0.03-0.93,0.06-1.4,0.09c-0.47,0.04-0.93,0.08-1.39,0.12c-0.46,0.05-0.93,0.1-1.39,0.15c-0.46,0.06-0.93,0.12-1.39,0.18
			c-0.46,0.07-0.92,0.14-1.38,0.22c-1.66,0.29-3.28,0.71-4.91,1.13c3.76,3.68,8.02,6.85,11.83,10.47c-2.79,1.63-5.03,3.34-7.3,5.65
			c0.98-0.67,1.9-1.41,2.9-2.05c0.35-0.23,0.71-0.45,1.07-0.66c0.36-0.21,0.73-0.41,1.1-0.6c0.37-0.19,0.75-0.38,1.13-0.55
			c0.38-0.17,0.77-0.34,1.15-0.5c0.39-0.16,0.78-0.3,1.18-0.44c0.4-0.14,0.79-0.26,1.2-0.38c0.4-0.12,0.81-0.23,1.21-0.32
			c0.41-0.1,0.82-0.19,1.23-0.27c8.91-1.7,18.1,0.15,26.19,4.05c1.61,0.77,3.22,1.54,4.7,2.54c2.05-1.49,4.31-3.16,6.68-4.1
			c-0.86,0.75-1.83,1.42-2.74,2.13c-1.37,1.08-2.71,2.18-4.03,3.32c-4.83,4.19-9.35,8.57-13.36,13.57c-1.27,1.57-2.38,3.25-3.6,4.86
			c0.3-0.81,0.76-1.59,1.18-2.35c1.52-2.81,3.27-5.2,5.26-7.69c-6.09,0.33-11.52,0.89-17.39,2.63c2.71,3.62,6.13,6.94,9.6,9.82
			c12.59,10.43,28.73,15.04,44.94,13.49c16.77-1.6,32.42-10.67,43.04-23.57c0.33-0.4,0.65-0.81,0.96-1.22
			c0.32-0.41,0.63-0.83,0.93-1.25c0.31-0.42,0.61-0.84,0.9-1.27c0.3-0.43,0.59-0.86,0.87-1.29c0.29-0.43,0.57-0.87,0.84-1.31
			c0.27-0.44,0.54-0.88,0.81-1.33c0.26-0.45,0.52-0.9,0.78-1.35c0.25-0.45,0.5-0.91,0.74-1.37c0.24-0.46,0.48-0.92,0.71-1.39
			c0.23-0.47,0.46-0.93,0.68-1.4c0.22-0.47,0.43-0.94,0.64-1.42c0.21-0.48,0.41-0.95,0.61-1.43c0.2-0.48,0.39-0.96,0.57-1.45
			c0.19-0.49,0.36-0.97,0.54-1.46c0.17-0.49,0.34-0.98,0.5-1.48c0.16-0.49,0.32-0.99,0.47-1.49c0.15-0.5,0.29-1,0.43-1.5
			c0.14-0.5,0.27-1,0.39-1.51c0.13-0.5,0.24-1.01,0.36-1.52c0.11-0.51,0.22-1.02,0.32-1.52c0.1-0.51,0.2-1.02,0.28-1.53
			c0.09-0.51,0.17-1.02,0.25-1.54c0.08-0.51,0.15-1.03,0.21-1.54c0.06-0.52,0.12-1.03,0.17-1.55c0.05-0.52,0.1-1.03,0.13-1.55
			c0.04-0.52,0.07-1.04,0.1-1.55c0.03-0.52,0.05-1.04,0.06-1.56c0.01-0.52,0.02-1.04,0.02-1.56c0-0.52,0-1.04-0.02-1.56
			c-0.01-0.52-0.03-1.04-0.05-1.56c-0.02-0.52-0.06-1.04-0.09-1.56c-0.04-0.52-0.08-1.04-0.13-1.55
			c-1.67-16.98-10.24-32.22-23.38-42.98c-0.4-0.32-0.8-0.64-1.2-0.95c-0.4-0.31-0.81-0.62-1.22-0.92c-0.41-0.3-0.83-0.6-1.25-0.89
			c-0.42-0.29-0.84-0.58-1.27-0.86c-0.43-0.28-0.86-0.56-1.29-0.83c-0.43-0.27-0.87-0.54-1.31-0.8c-0.44-0.26-0.88-0.52-1.33-0.77
			c-0.45-0.25-0.89-0.49-1.35-0.73c-0.45-0.24-0.91-0.47-1.36-0.7c-0.46-0.23-0.92-0.45-1.38-0.67c-0.46-0.22-0.93-0.43-1.4-0.63
			c-0.47-0.2-0.94-0.4-1.41-0.6s-0.95-0.38-1.43-0.56c-0.48-0.18-0.96-0.36-1.44-0.53c-0.48-0.17-0.97-0.33-1.45-0.49
			c-0.49-0.16-0.97-0.31-1.46-0.46c-0.49-0.15-0.98-0.29-1.47-0.42c-0.49-0.13-0.99-0.26-1.48-0.38c-0.5-0.12-0.99-0.24-1.49-0.35
			c-0.5-0.11-1-0.21-1.5-0.31c-0.5-0.1-1-0.19-1.51-0.27c-0.5-0.09-1.01-0.16-1.51-0.24c-0.51-0.07-1.01-0.14-1.52-0.2
			c-0.51-0.06-1.02-0.11-1.52-0.16c-0.51-0.05-1.02-0.09-1.53-0.12c-0.51-0.04-1.02-0.06-1.53-0.09c-0.51-0.02-1.02-0.04-1.53-0.05
			c-0.51-0.01-1.02-0.01-1.53-0.01c-0.51,0-1.02,0.01-1.53,0.03c-0.51,0.01-1.02,0.04-1.53,0.06c-0.51,0.03-1.02,0.06-1.53,0.1
			c-0.51,0.04-1.02,0.09-1.53,0.14c-0.51,0.05-1.02,0.11-1.53,0.18c-0.51,0.07-1.02,0.14-1.52,0.22s-1.01,0.16-1.52,0.25
			c-0.51,0.09-1.01,0.19-1.51,0.29s-1,0.21-1.5,0.33c-0.5,0.12-1,0.24-1.5,0.36c-0.5,0.13-0.99,0.26-1.49,0.4
			c-0.49,0.14-0.99,0.28-1.48,0.44c-0.49,0.15-0.98,0.31-1.47,0.47c-0.49,0.16-0.97,0.33-1.45,0.51c-0.48,0.17-0.96,0.35-1.44,0.54
			c-0.48,0.19-0.95,0.38-1.43,0.58c-0.47,0.2-0.95,0.4-1.41,0.61c-0.47,0.21-0.94,0.42-1.4,0.64c-0.46,0.22-0.92,0.45-1.38,0.68
			c-0.46,0.23-0.91,0.47-1.37,0.71c-0.45,0.24-0.9,0.49-1.35,0.74c-0.45,0.25-0.89,0.51-1.33,0.78c-0.44,0.26-0.88,0.53-1.31,0.81
			c-0.43,0.27-0.86,0.55-1.29,0.84c-0.43,0.28-0.85,0.57-1.27,0.87c-0.42,0.3-0.84,0.6-1.25,0.9c-0.41,0.31-0.82,0.62-1.23,0.93
			c-0.41,0.32-0.81,0.63-1.2,0.96c-0.4,0.32-0.79,0.65-1.18,0.99c-0.39,0.33-0.78,0.67-1.16,1.02c-0.38,0.34-0.76,0.69-1.13,1.04
			c-0.37,0.35-0.74,0.71-1.11,1.07c-0.36,0.36-0.72,0.73-1.08,1.1c-0.36,0.37-0.71,0.74-1.05,1.12c-0.35,0.38-0.69,0.76-1.03,1.15
			c-0.34,0.39-0.67,0.78-1,1.17c-0.34,0.41-0.67,0.82-1,1.24c-0.33,0.42-0.65,0.84-0.97,1.27c-0.32,0.43-0.63,0.86-0.94,1.29
			c-0.31,0.43-0.61,0.87-0.91,1.31c-0.3,0.44-0.59,0.89-0.87,1.34c-0.29,0.45-0.57,0.9-0.84,1.36c-0.27,0.46-0.54,0.91-0.81,1.38
			c-0.26,0.46-0.52,0.93-0.77,1.4c-0.25,0.47-0.5,0.94-0.74,1.42c-0.24,0.47-0.47,0.95-0.7,1.43c-0.23,0.48-0.45,0.96-0.67,1.45
			s-0.43,0.97-0.63,1.47c-0.2,0.49-0.4,0.98-0.6,1.48c-0.19,0.5-0.38,0.99-0.56,1.49c-0.18,0.5-0.35,1-0.52,1.51
			c-0.17,0.5-0.33,1.01-0.48,1.52c-0.16,0.51-0.3,1.02-0.45,1.53c-0.14,0.51-0.28,1.03-0.41,1.54c-0.13,0.52-0.25,1.03-0.37,1.55
			c-0.12,0.52-0.23,1.04-0.33,1.56c-0.1,0.52-0.2,1.04-0.29,1.57c-0.09,0.52-0.18,1.05-0.25,1.58c-0.08,0.53-0.15,1.05-0.22,1.58
			c-0.07,0.53-0.12,1.06-0.18,1.59c-0.05,0.53-0.1,1.06-0.14,1.59c-0.04,0.53-0.07,1.06-0.1,1.59c-0.03,0.53-0.05,1.06-0.06,1.59
			c-0.01,0.53-0.02,1.06-0.02,1.6c0,0.53,0.01,1.06,0.02,1.6c0.01,0.53,0.03,1.06,0.06,1.59c0.03,0.53,0.06,1.06,0.1,1.59
			c0.04,0.53,0.09,1.06,0.14,1.59C115.31,100.6,116.17,100.42,117.04,100.28z"/>
	</g>
</g>
</svg>
