<?xml version="1.0" encoding="utf-8"?>
<!-- Generator: Adobe Illustrator 27.8.1, SVG Export Plug-In . SVG Version: 6.00 Build 0)  -->
<svg version="1.1" xmlns="http://www.w3.org/2000/svg" xmlns:xlink="http://www.w3.org/1999/xlink" x="0px" y="0px"
	 viewBox="0 0 350 230" style="enable-background:new 0 0 350 230;" xml:space="preserve">
<style type="text/css">
	.st0{fill:#DFDCBB;}
	.st1{fill:#256540;}
	.st2{fill:#465410;}
	.st3{fill:#FFF0CC;}
	.st4{fill:#263500;}
	.st5{fill:#FFB540;}
	.st6{fill:#F2F7D2;}
	.st7{fill:#A7D4BF;}
	.st8{fill:#8DC63F;}
	.st9{fill:#02913F;}
	.st10{fill:#008713;}
	.st11{fill:#66FF74;}
	.st12{fill:#493D00;}
	.st13{fill:#005505;}
	.st14{fill:#646A07;}
	.st15{fill:#48990E;}
	.st16{fill:#896500;}
	.st17{fill:#9FE2FF;}
	.st18{fill:#754C24;}
	.st19{fill:#FFF30B;}
	.st20{fill:#7ABC50;}
	.st21{fill:#370900;}
	.st22{fill:#C8FF8D;}
	.st23{fill:#377300;}
	.st24{fill:#002F1A;}
	.st25{fill:#C19E00;}
	.st26{fill:#FFCE00;}
	.st27{fill:#583F00;}
	.st28{fill:#5B7200;}
	.st29{fill:#96FF00;}
	.st30{fill-rule:evenodd;clip-rule:evenodd;fill:#22704A;}
	.st31{fill:#A5D065;}
	.st32{fill:#8EC146;}
	.st33{fill-rule:evenodd;clip-rule:evenodd;fill:#604500;}
	.st34{fill-rule:evenodd;clip-rule:evenodd;fill:#03FCB5;}
	.st35{fill-rule:evenodd;clip-rule:evenodd;fill:#B5FF00;}
	.st36{fill:#008F09;}
	.st37{fill:#491C00;}
	.st38{fill:#CAB400;}
	.st39{fill-rule:evenodd;clip-rule:evenodd;fill:#FFBE78;}
	.st40{fill:#351700;}
	.st41{fill:#697822;}
	.st42{fill:#809324;}
	.st43{fill:#474F1F;}
	.st44{fill:#97AF24;}
	.st45{fill:#B0CB1F;}
	.st46{fill-rule:evenodd;clip-rule:evenodd;fill:#474F1F;}
	.st47{fill-rule:evenodd;clip-rule:evenodd;fill:#697822;}
	.st48{fill-rule:evenodd;clip-rule:evenodd;fill:url(#SVGID_1_);}
	.st49{fill-rule:evenodd;clip-rule:evenodd;fill:url(#SVGID_00000134247148857456709350000004817014368114604951_);}
	.st50{fill-rule:evenodd;clip-rule:evenodd;fill:url(#SVGID_00000183942277893967931930000000212243333970423682_);}
	.st51{fill-rule:evenodd;clip-rule:evenodd;fill:url(#SVGID_00000023253882751400244070000011001570776350925245_);}
	.st52{fill-rule:evenodd;clip-rule:evenodd;fill:url(#SVGID_00000158729347108372277560000016396673452458360230_);}
	.st53{fill-rule:evenodd;clip-rule:evenodd;fill:#55611B;}
	.st54{fill:#FFFFFF;}
	.st55{fill-rule:evenodd;clip-rule:evenodd;fill:#97AF24;}
	.st56{fill-rule:evenodd;clip-rule:evenodd;fill:#FFFFFF;}
	.st57{fill-rule:evenodd;clip-rule:evenodd;fill:#FEFEFE;}
	.st58{fill-rule:evenodd;clip-rule:evenodd;fill:#DFDCBB;}
	.st59{fill-rule:evenodd;clip-rule:evenodd;}
	.st60{fill-rule:evenodd;clip-rule:evenodd;fill:#256540;}
	.st61{fill-rule:evenodd;clip-rule:evenodd;fill:#BDFFFA;}
	.st62{fill-rule:evenodd;clip-rule:evenodd;fill:#FFCE00;}
	.st63{fill-rule:evenodd;clip-rule:evenodd;fill:#5B1C00;}
	.st64{fill-rule:evenodd;clip-rule:evenodd;fill:#00423D;}
	.st65{fill-rule:evenodd;clip-rule:evenodd;fill:#D16024;}
	.st66{fill-rule:evenodd;clip-rule:evenodd;fill:#7A300F;}
	.st67{fill-rule:evenodd;clip-rule:evenodd;fill:#A7D4BF;}
	.st68{fill-rule:evenodd;clip-rule:evenodd;fill:url(#SVGID_00000093178840373763400900000002963660104245899682_);}
	.st69{fill-rule:evenodd;clip-rule:evenodd;fill:url(#SVGID_00000163045564096177936420000009269716193994255250_);}
	.st70{fill-rule:evenodd;clip-rule:evenodd;fill:url(#SVGID_00000096029204266923237120000015459921505920477073_);}
	.st71{fill-rule:evenodd;clip-rule:evenodd;fill:url(#SVGID_00000054258068635920603000000007321555247579371142_);}
	.st72{fill-rule:evenodd;clip-rule:evenodd;fill:url(#SVGID_00000082333004255805860570000000940508068512480684_);}
	.st73{fill:#6F992B;}
	.st74{fill:#355F32;}
	.st75{fill:#457630;}
	.st76{fill:#9CA91A;}
	.st77{fill:#264626;}
	.st78{fill:#F6F7F5;}
	.st79{fill:#2A776B;}
	.st80{fill:#24513A;}
	.st81{fill:#ECB426;}
	.st82{fill:#86BA8A;}
	.st83{fill:#63A038;}
	.st84{fill:#2A6933;}
	.st85{fill:#EBB427;}
	.st86{fill:#FDFDFD;}
	.st87{fill:url(#SVGID_00000031165669289167091360000005441874384352250240_);}
	.st88{fill:url(#SVGID_00000114775457471403138860000013523194589740190090_);}
	.st89{fill:url(#SVGID_00000047028397383932253330000010047179323906183316_);}
	.st90{fill:url(#SVGID_00000049217404870281580380000003043205929495666079_);}
	.st91{fill:url(#SVGID_00000084522208633313592130000017685772980191551664_);}
	.st92{fill-rule:evenodd;clip-rule:evenodd;fill:url(#SVGID_00000007404696371845382870000007700130129722098328_);}
	.st93{fill:url(#SVGID_00000048472946876324825280000015774722152818992054_);}
	.st94{fill-rule:evenodd;clip-rule:evenodd;fill:url(#SVGID_00000029034282162944646110000003235729080025314177_);}
	.st95{fill:url(#SVGID_00000101062492452355095710000016369614035642461331_);}
	.st96{fill-rule:evenodd;clip-rule:evenodd;fill:url(#SVGID_00000183246364516563413120000006815552058178467260_);}
	.st97{fill:url(#SVGID_00000085971479235516795160000018097702431514624700_);}
	.st98{fill:url(#SVGID_00000121255539468668435370000006646489870013886122_);}
	.st99{fill-rule:evenodd;clip-rule:evenodd;fill:url(#SVGID_00000017496967405419663750000012393198309105323408_);}
	.st100{fill-rule:evenodd;clip-rule:evenodd;fill:url(#SVGID_00000108277959897248177300000015302012912965149086_);}
	.st101{fill-rule:evenodd;clip-rule:evenodd;fill:url(#SVGID_00000179647356176797166750000006395212514735542921_);}
	.st102{fill-rule:evenodd;clip-rule:evenodd;fill:url(#SVGID_00000111875396195342255430000011934171901956709806_);}
	.st103{fill-rule:evenodd;clip-rule:evenodd;fill:url(#SVGID_00000035527049931488767050000002038331046581319835_);}
	.st104{fill-rule:evenodd;clip-rule:evenodd;fill:url(#SVGID_00000157274148581698334700000000372638814333287864_);}
	.st105{fill:url(#SVGID_00000101087455833315381010000006765803426642564790_);}
	.st106{fill:url(#SVGID_00000175310386211867279180000001649979214774896770_);}
	.st107{fill:url(#SVGID_00000071524277025889316690000008346157485917671070_);}
	.st108{fill:url(#SVGID_00000031909201260122996180000007064761281598454920_);}
	.st109{fill:#ECEFF0;}
	.st110{fill:url(#SVGID_00000005958512130332567310000009933100054260347795_);}
	.st111{fill:url(#SVGID_00000098904150259186022110000015764956913818876572_);}
	.st112{fill:url(#SVGID_00000055666983107375282760000003577158017177231503_);}
	.st113{fill:url(#SVGID_00000098194932548872852830000010739220957911368105_);}
	.st114{fill:#263756;}
	.st115{fill:url(#SVGID_00000040532504918126694540000012544980355372772269_);}
	.st116{fill:url(#SVGID_00000022531495317916546080000002951202727759673234_);}
	.st117{fill:url(#SVGID_00000028310606056495060210000006160521321228814772_);}
	.st118{fill:url(#SVGID_00000180369079804247928510000005203159459042096024_);}
	.st119{fill:url(#SVGID_00000028283843107697285900000010612016378323900310_);}
	.st120{fill-rule:evenodd;clip-rule:evenodd;fill:url(#SVGID_00000131341244916245306910000006417070627932327826_);}
	.st121{fill-rule:evenodd;clip-rule:evenodd;fill:url(#SVGID_00000044172129924927197270000005473764569663861659_);}
	.st122{fill-rule:evenodd;clip-rule:evenodd;fill:url(#SVGID_00000109721222274188466310000010429298078575876280_);}
	.st123{fill-rule:evenodd;clip-rule:evenodd;fill:#000002;}
	.st124{fill-rule:evenodd;clip-rule:evenodd;fill:url(#SVGID_00000075134371202044456180000007067301768588108222_);}
	.st125{fill:url(#SVGID_00000181766109465788558290000008602262921766967457_);}
	.st126{fill:#B0EB81;}
	.st127{fill:url(#SVGID_00000060710056496788014970000007845928155707991218_);}
	.st128{fill:url(#SVGID_00000122703077751670841380000006798481470934111375_);}
	.st129{fill:url(#SVGID_00000147218179930286455280000007711829963466098317_);}
	.st130{fill:#674447;}
	.st131{fill:url(#SVGID_00000158010289310729703240000011254589936456358077_);}
	.st132{fill:url(#SVGID_00000014605779759113180590000016992230140495361155_);}
	.st133{fill:url(#SVGID_00000164496984411523938830000009914689324659196086_);}
	.st134{fill:#75B63B;}
	.st135{fill:#053E22;}
	.st136{fill:#ECF894;}
	.st137{fill:#00FFFF;}
	.st138{fill:url(#SVGID_00000127035487298956046460000013108488662577565570_);}
	.st139{fill:url(#SVGID_00000091015571489787733360000012682600706882199438_);}
	.st140{fill:url(#SVGID_00000130624614452676460980000001326242307056003775_);}
	.st141{fill:url(#SVGID_00000130646216148046668260000005198188573059504010_);}
	.st142{fill:url(#SVGID_00000063605273038081620790000000477077332324080032_);}
	.st143{fill:url(#SVGID_00000114034893224216610210000000911976215877087379_);}
	.st144{fill-rule:evenodd;clip-rule:evenodd;fill:url(#SVGID_00000102544619709257392410000015040017725317795465_);}
	.st145{fill-rule:evenodd;clip-rule:evenodd;fill:url(#SVGID_00000100370594297163522550000004097003375450074781_);}
	.st146{fill-rule:evenodd;clip-rule:evenodd;fill:url(#SVGID_00000147203793287384623940000009220738393705150624_);}
	.st147{fill-rule:evenodd;clip-rule:evenodd;fill:url(#SVGID_00000076597173488595883040000014444932324111487636_);}
	.st148{fill-rule:evenodd;clip-rule:evenodd;fill:url(#SVGID_00000163760036758794969690000004652556265747307419_);}
	.st149{fill-rule:evenodd;clip-rule:evenodd;fill:url(#SVGID_00000178175275073279849250000005531547130915537057_);}
	.st150{fill-rule:evenodd;clip-rule:evenodd;fill:url(#SVGID_00000142173346072674726170000016324136181041450656_);}
	.st151{fill-rule:evenodd;clip-rule:evenodd;fill:url(#SVGID_00000168825780792339259510000012189013412992930190_);}
	.st152{fill-rule:evenodd;clip-rule:evenodd;fill:url(#SVGID_00000176762288937247219190000006050770301635497349_);}
	.st153{fill-rule:evenodd;clip-rule:evenodd;fill:#809224;}
	.st154{fill-rule:evenodd;clip-rule:evenodd;fill:#AFCA1F;}
	.st155{fill:url(#SVGID_00000000902414195564177960000017349205917533230255_);}
	.st156{fill:url(#SVGID_00000000185848468997524290000005690426274605928626_);}
	.st157{fill-rule:evenodd;clip-rule:evenodd;fill:#0081C6;}
	.st158{fill-rule:evenodd;clip-rule:evenodd;fill:#2AA349;}
	.st159{fill-rule:evenodd;clip-rule:evenodd;fill:#008A45;}
	.st160{fill-rule:evenodd;clip-rule:evenodd;fill:#8BC13F;}
	.st161{fill-rule:evenodd;clip-rule:evenodd;fill:#6BC6F0;}
	.st162{fill-rule:evenodd;clip-rule:evenodd;fill:#B97129;}
	.st163{fill-rule:evenodd;clip-rule:evenodd;fill:#643A18;}
	.st164{fill-rule:evenodd;clip-rule:evenodd;fill:#F9C22B;}
	.st165{fill:#142F47;}
	.st166{fill:#FEFEFE;}
	.st167{fill:#61A939;}
	.st168{fill:url(#SVGID_00000155145510138123206420000006100627765227593654_);}
	.st169{fill:#68A967;}
	.st170{fill:url(#SVGID_00000176749228385487252900000000853808692568817796_);}
	.st171{fill:#FBB040;}
	.st172{fill:#BFCFAB;}
	.st173{fill:#94AF73;}
	.st174{fill:#4A573A;}
	.st175{fill:url(#SVGID_00000174592251068756512830000003914074074199428250_);}
	.st176{fill-rule:evenodd;clip-rule:evenodd;fill:#09451F;}
	.st177{fill-rule:evenodd;clip-rule:evenodd;fill:#028F02;}
	.st178{fill:url(#SVGID_00000083776085671959823590000011943652312207236487_);}
	.st179{fill:url(#SVGID_00000126306150122807812610000011179984507415737760_);}
	.st180{fill:#643A18;}
	.st181{fill:#56483F;}
	.st182{fill:#B64B4A;}
	.st183{fill:#025D16;}
	.st184{fill:#38A32F;}
	.st185{fill:#82B336;}
	.st186{fill:#092B4B;}
	.st187{fill:#026937;}
	.st188{fill:#7EC142;}
	.st189{fill:#6EBD44;}
	.st190{fill:url(#SVGID_00000148663730285247344000000006105152252619850667_);}
	.st191{fill:url(#SVGID_00000059305465954233153330000008147209605601714316_);}
	.st192{fill:#FBFBF4;}
	.st193{fill:#408244;}
	.st194{fill:url(#SVGID_00000023984381501726371380000013221777074700236683_);}
	.st195{fill:#BCCD30;}
	.st196{fill:#6C9E41;}
	.st197{fill:#497235;}
	.st198{fill-rule:evenodd;clip-rule:evenodd;fill:url(#SVGID_00000003087527024391403660000012854612560444013987_);}
	.st199{fill:url(#SVGID_00000005233454145433746510000007073922653770770099_);}
	.st200{fill-rule:evenodd;clip-rule:evenodd;fill:#E6E6E6;}
</style>
<g id="Layer_1">
</g>
<g id="Layer_2">
</g>
<g id="Layer_3">
</g>
<g id="Layer_4">
</g>
<g id="Layer_5">
</g>
<g id="Layer_6">
</g>
<g id="Layer_7">
</g>
<g id="Layer_8">
</g>
<g id="Layer_9">
</g>
<g id="Layer_10">
</g>
<g id="Layer_11">
</g>
<g id="Layer_12">
</g>
<g id="Layer_13">
</g>
<g id="Layer_14">
</g>
<g id="Layer_15">
	<path id="OBJECTS" class="st180" d="M140.55,97.65c-10.47,0-18.99-8.52-18.99-18.99s8.52-18.99,18.99-18.99s18.99,8.52,18.99,18.99
		S151.02,97.65,140.55,97.65z M140.55,62.59c-8.86,0-16.07,7.21-16.07,16.07s7.21,16.07,16.07,16.07c8.86,0,16.07-7.21,16.07-16.07
		C156.62,69.8,149.41,62.59,140.55,62.59z M163.77,152.74c-28.52,0-52.41-21.34-55.57-49.65l-0.12-1.11l1.04-0.41
		c0.42-0.17,10.57-3.99,26.94,6.32c13.19,8.31,28.59,3.58,28.74,3.53l0.88,2.78c-0.68,0.21-16.86,5.18-31.18-3.84
		c-12.17-7.67-20.43-6.96-23.25-6.36c3.54,26.21,25.9,45.82,52.53,45.82c29.23,0,53.01-23.78,53.01-53.01
		c0-14.39-5.67-27.86-15.96-37.91l2.04-2.09c10.86,10.61,16.84,24.82,16.84,40C219.69,127.65,194.6,152.74,163.77,152.74z
		 M130.8,133.48c-7.14,0-11.29-2.73-11.48-2.85l1.63-2.42c0.04,0.03,4.55,2.94,12.17,2.25c7.12-0.63,18.5-4.61,32.23-19.94
		c14.55-16.25,28.35-18.91,37.37-18.29c9.83,0.68,16.12,5.23,16.39,5.43l-1.73,2.35c-0.06-0.04-5.98-4.29-15.01-4.88
		c-12.12-0.78-23.84,5.05-34.84,17.34c-11.62,12.98-23.2,20.02-34.39,20.92C132.32,133.45,131.54,133.48,130.8,133.48z
		 M141.01,147.48l-0.92-2.77c8.26-2.75,16.76-8.96,25.26-18.45c9.81-10.96,20.36-17.08,31.36-18.19c9.15-0.92,16.29,1.94,19.73,3.73
		l-1.35,2.59c-7.22-3.76-26.3-9.94-47.57,13.82C158.68,138.08,149.76,144.56,141.01,147.48z M179.28,90.68
		c-9.27-6.55-11.49-19.42-4.94-28.69c6.55-9.27,19.42-11.49,28.69-4.94l-1.68,2.38c-7.96-5.62-19-3.72-24.62,4.24
		c-5.62,7.96-3.72,19,4.24,24.62L179.28,90.68z M162.72,62.64c-1.26-11.28,6.9-21.48,18.18-22.73c11.28-1.25,21.48,6.9,22.73,18.18
		l-2.9,0.32c-1.08-9.68-9.83-16.69-19.51-15.6c-9.68,1.08-16.68,9.83-15.6,19.51L162.72,62.64z M201.26,58.32
		c-1.76-11.21,5.93-21.77,17.14-23.53c5.43-0.85,10.87,0.46,15.31,3.7s7.36,8.01,8.22,13.44l-2.88,0.45
		c-0.73-4.66-3.24-8.76-7.05-11.54c-3.81-2.78-8.48-3.9-13.14-3.17c-9.62,1.51-16.22,10.57-14.71,20.2L201.26,58.32z M233.42,83.26
		l-2.26-1.85c6.17-7.53,5.07-18.69-2.47-24.86c-7.53-6.17-18.69-5.07-24.86,2.47l-2.26-1.85c7.19-8.78,20.19-10.07,28.97-2.87
		C239.32,61.49,240.61,74.48,233.42,83.26z M192.48,73.23l0.21,0.56c0.6,1.62,1.88,2.9,3.5,3.5l0.56,0.21l-0.56,0.21
		c-1.62,0.6-2.9,1.88-3.5,3.5l-0.21,0.56l-0.21-0.56c-0.6-1.62-1.88-2.9-3.5-3.5l-0.56-0.21l0.56-0.21c1.62-0.6,2.9-1.88,3.5-3.5
		L192.48,73.23z M149.91,45.38l0.21,0.56c0.6,1.62,1.88,2.9,3.5,3.5l0.56,0.21l-0.56,0.21c-1.62,0.6-2.9,1.88-3.5,3.5l-0.21,0.56
		l-0.21-0.56c-0.6-1.62-1.88-2.9-3.5-3.5l-0.56-0.21l0.56-0.21c1.62-0.6,2.9-1.88,3.5-3.5L149.91,45.38z M113.29,87.89l0.21,0.56
		c0.6,1.62,1.88,2.9,3.5,3.5l0.56,0.21l-0.56,0.21c-1.62,0.6-2.9,1.88-3.5,3.5l-0.21,0.56l-0.21-0.56c-0.6-1.62-1.88-2.9-3.5-3.5
		l-0.56-0.21l0.56-0.21c1.62-0.6,2.9-1.88,3.5-3.5L113.29,87.89z"/>
</g>
</svg>
