<?xml version="1.0" encoding="utf-8"?>
<!-- Generator: Adobe Illustrator 27.8.1, SVG Export Plug-In . SVG Version: 6.00 Build 0)  -->
<svg version="1.1" id="Layer_1" xmlns="http://www.w3.org/2000/svg" xmlns:xlink="http://www.w3.org/1999/xlink" x="0px" y="0px"
	 viewBox="0 0 300 300" style="enable-background:new 0 0 300 300;" xml:space="preserve">
<style type="text/css">
	.st0{fill:#00BCA1;}
	.st1{fill:#560382;}
	.st2{fill:#680338;}
	.st3{display:none;}
	.st4{display:inline;fill:#560382;}
	.st5{font-family:'ThunkyDEMO-Regular';}
	.st6{font-size:64px;}
	.st7{display:inline;fill:#00BCA1;}
	.st8{display:inline;fill:#680338;}
	.st9{display:none;fill:#680338;}
	.st10{font-family:'SegoeUI-Semilight';}
	.st11{font-size:8px;}
</style>
<g>
	<g>
		<path class="st0" d="M138.2,121.32h-11.92c-2.18,0-3.97,1.78-3.97,3.97v63.57c0,2.19,1.78,3.97,3.97,3.97h11.92
			c2.19,0,3.97-1.78,3.97-3.97v-63.57C142.17,123.1,140.39,121.32,138.2,121.32z M132.24,178.74c-2.08,0-3.78-1.7-3.78-3.78
			c0-2.09,1.7-3.79,3.78-3.79c2.09,0,3.78,1.7,3.78,3.79C136.02,177.04,134.33,178.74,132.24,178.74z M132.24,142.98
			c-2.08,0-3.78-1.7-3.78-3.79c0-2.08,1.7-3.78,3.78-3.78c2.09,0,3.78,1.7,3.78,3.78C136.02,141.28,134.33,142.98,132.24,142.98z
			 M187.06,129.51l-6.93,5.95h0.03c1.98,0.13,3.54,1.73,3.54,3.73c0,2.09-1.69,3.79-3.78,3.79c-2.09,0-3.78-1.7-3.78-3.79
			c0-0.12,0.06-0.22,0.07-0.35v-0.01c0.01-0.01,0.01-0.02,0.01-0.03l-3.44,2.95c-0.22,2.67-1.2,5.22-2.79,7.37v31.78
			c0,2.19,1.78,3.97,3.97,3.97h11.92c2.19,0,3.97-1.78,3.97-3.97v-47.68C189.85,131.47,188.66,130.01,187.06,129.51z M179.91,178.74
			c-2.09,0-3.78-1.7-3.78-3.78c0-2.09,1.69-3.79,3.78-3.79c2.09,0,3.78,1.7,3.78,3.79C183.7,177.04,182,178.74,179.91,178.74z"/>
		<path class="st1" d="M158.61,154.86c-4.17,0-8.11-1.82-10.82-4.97c-0.64-0.74-1.18-1.53-1.64-2.35v37.36
			c0,2.19,1.79,3.97,3.97,3.97h11.92c2.19,0,3.97-1.78,3.97-3.97v-32.13C163.79,154.11,161.23,154.86,158.61,154.86z M156.08,178.74
			c-2.09,0-3.78-1.7-3.78-3.78c0-2.09,1.69-3.79,3.78-3.79c2.09,0,3.78,1.7,3.78,3.79C159.86,177.04,158.17,178.74,156.08,178.74z
			 M114.36,117.35h-11.92c-2.18,0-3.97,1.78-3.97,3.97v71.51c0,2.19,1.79,3.97,3.97,3.97h11.92c2.19,0,3.97-1.78,3.97-3.97v-71.51
			C118.33,119.13,116.55,117.35,114.36,117.35z M108.4,178.74c-2.08,0-3.78-1.7-3.78-3.78c0-2.09,1.7-3.79,3.78-3.79
			c2.09,0,3.78,1.7,3.78,3.79C112.18,177.04,110.49,178.74,108.4,178.74z M108.4,142.98c-2.08,0-3.78-1.7-3.78-3.79
			c0-2.08,1.7-3.78,3.78-3.78c2.09,0,3.78,1.7,3.78,3.78C112.18,141.28,110.49,142.98,108.4,142.98z M150.12,125.29
			c-2.18,0-3.97,1.78-3.97,3.97v4.5c0.8-1.46,1.83-2.82,3.17-3.97c2.84-2.44,6.58-3.66,10.29-3.37l1.32-1.13H150.12z"/>
		<path class="st2" d="M200.53,104.64c-1.48-1.73-4.11-1.94-5.85-0.45l-33.36,28.62c-2.7-0.93-5.8-0.48-8.12,1.51
			c-3.47,2.99-3.87,8.21-0.89,11.69c2.98,3.47,8.22,3.88,11.69,0.9c2.33-1.99,3.24-4.99,2.73-7.8l33.36-28.62
			C201.83,108.99,202.02,106.37,200.53,104.64z M164.51,135.12c10.85-10.41,22.35-20.13,34.41-29.12
			C188.06,116.4,176.57,126.14,164.51,135.12z M156.12,118.22c0.26,2.38,1.48,4.61,3.37,6.08
			C159.24,121.92,158.01,119.7,156.12,118.22z M160.21,124.3c1.88-1.48,3.11-3.7,3.37-6.08C161.69,119.7,160.46,121.92,160.21,124.3
			z M159.86,115.47c-0.93,2.86-0.94,5.98,0,8.83C160.8,121.45,160.79,118.33,159.86,115.47z"/>
	</g>
</g>
<text transform="matrix(1 0 0 1 95.5055 216.1266)" class="st3"><tspan x="0" y="0" class="st4 st5 st6">M</tspan><tspan x="30.53" y="0" class="st7 st5 st6">u</tspan><tspan x="56.19" y="0" class="st4 st5 st6">s</tspan><tspan x="77.37" y="0" class="st8 st5 st6">i</tspan><tspan x="90.24" y="0" class="st4 st5 st6">c</tspan></text>
<text transform="matrix(1 0 0 1 120.1914 215.8457)" class="st9 st10 st11">Your Slogan Here</text>
</svg>
