<?xml version="1.0" encoding="utf-8"?>
<!-- Generator: Adobe Illustrator 27.8.1, SVG Export Plug-In . SVG Version: 6.00 Build 0)  -->
<svg version="1.1" id="Layer_1" xmlns="http://www.w3.org/2000/svg" xmlns:xlink="http://www.w3.org/1999/xlink" x="0px" y="0px"
	 viewBox="0 0 300 300" style="enable-background:new 0 0 300 300;" xml:space="preserve">
<style type="text/css">
	.st0{display:none;}
	.st1{display:inline;fill:#9339FF;}
	.st2{font-family:'PalatinoLinotype-Bold';}
	.st3{font-size:44.9973px;}
	.st4{font-family:'Poppins-Regular';}
	.st5{font-size:8px;}
	.st6{fill:#9339FF;}
</style>
<g id="Text" class="st0">
	<text transform="matrix(1 0 0 1 114.842 162.5848)" class="st1 st2 st3">Music</text>
	<text transform="matrix(1 0 0 1 145.5896 171.3038)" class="st1 st4 st5">Your Slogan Here</text>
</g>
<path id="Logo_00000094616870712177786340000016903258365080247425_" class="st6" d="M195.69,93.4
	c-10.7-6.82-20.57-14.96-30.82-22.49c-1.36-1.01-2.76-1.96-4.89-3.46v83.72c-2.95-1.05-5.08-1.96-7.27-2.58
	c-10.65-2.99-20.2-0.96-27.99,7.03c-7.77,7.98-9.77,17.61-6.28,28.14c4.23,12.7,16.7,20.05,30.11,18.08
	c13.67-2.01,23.21-13.02,23.38-27.72c0.23-20.3,0.04-40.61,0.07-60.91c0-2.42,0.21-4.86,0.34-7.71
	c11.16,2.41,19.96,7.02,26.87,14.94c7.15,8.21,8.48,18.19,7.47,30.06C219.07,131.59,212.82,104.34,195.69,93.4z M135.55,196.13
	c-7.74-3.45-12.69-11.4-12.21-19.61c0.51-8.52,5.63-15.67,13.02-17.98c0.31,0.75,0.62,1.5,0.94,2.25
	c-10.63,5.35-14.06,16.87-7.94,26.31c5.09,7.81,16.46,10.78,25.82,3.15c0.6,0.65,1.22,1.3,1.83,1.96
	C151.57,197.85,142.88,199.38,135.55,196.13z M128.54,119.89c0.42,1.79,0.77,3.25,1.12,4.73c-22.74,8.58-36.35,24.33-37.21,48.8
	c-0.73,20.75,8.46,37.18,26.81,47.12c21.51,11.65,41.96,8.12,61.02-7.2c0.65,0.53,1.39,1.04,2.02,1.67
	c0.51,0.51,0.89,1.16,1.31,1.72c-15.13,15.91-41.35,20.39-62.76,10.85c-21.96-9.78-35.64-32.78-33.87-56.89
	C88.73,146.89,105.49,126.18,128.54,119.89z M130.31,133.65c0.62,1.63,1.25,3.3,1.86,4.93c-23.65,10.65-32.09,35.21-19.46,56
	c10.47,17.24,35.07,24.53,56.12,8.85c1.27,1.43,2.56,2.9,3.85,4.35c-12.33,11.69-31.41,14.28-47.16,6.7
	c-16.65-8.01-26.82-25.53-25.09-43.18C102.23,153.03,114,138.04,130.31,133.65z"/>
</svg>
