<?xml version="1.0" encoding="utf-8"?>
<!-- Generator: Adobe Illustrator 27.8.1, SVG Export Plug-In . SVG Version: 6.00 Build 0)  -->
<svg version="1.1" id="Layer_1" xmlns="http://www.w3.org/2000/svg" xmlns:xlink="http://www.w3.org/1999/xlink" x="0px" y="0px"
	 viewBox="0 0 350 230" style="enable-background:new 0 0 350 230;" xml:space="preserve">
<style type="text/css">
	.st0{fill:#3DAEB7;}
	.st1{fill:#421B00;}
	.st2{fill:#634900;}
	.st3{fill:#005C68;}
	.st4{fill:#480252;}
	.st5{fill:#2F88FF;}
	.st6{fill:#002E54;}
	.st7{fill:#980000;}
	.st8{fill:#020202;}
	.st9{fill:url(#SVGID_1_);}
	.st10{fill:none;stroke:#652D90;stroke-width:4.4202;stroke-linecap:round;stroke-linejoin:round;stroke-miterlimit:10;}
	.st11{fill:#31E7FF;}
</style>
<path class="st11" d="M94.5,107.91c0-0.26,0-0.52-0.02-0.76h5.21v0.76H94.5z M92.51,113.67c0,0.35,0,0.68-0.02,1h-5.08
	c-0.02-0.33-0.02-0.65-0.02-1H92.51z M99.62,114.37h-5.1c-0.04-0.24-0.07-0.48-0.09-0.7h5.15C99.6,113.89,99.6,114.13,99.62,114.37z
	 M99.62,114.37h-5.1c-0.04-0.24-0.07-0.48-0.09-0.7h5.15C99.6,113.89,99.6,114.13,99.62,114.37z M92.51,113.67c0,0.35,0,0.68-0.02,1
	h-5.08c-0.02-0.33-0.02-0.65-0.02-1H92.51z M84.77,120.23v0.83h-4.88v-0.83H84.77z M92.43,120.25v1.02h-5.1v-1.02H92.43z
	 M92.51,113.67c0,0.35,0,0.68-0.02,1h-5.08c-0.02-0.33-0.02-0.65-0.02-1H92.51z M99.62,114.37h-5.1c-0.04-0.24-0.07-0.48-0.09-0.7
	h5.15C99.6,113.89,99.6,114.13,99.62,114.37z M99.62,114.37h-5.1c-0.04-0.24-0.07-0.48-0.09-0.7h5.15
	C99.6,113.89,99.6,114.13,99.62,114.37z M92.51,113.67c0,0.35,0,0.68-0.02,1h-5.08c-0.02-0.33-0.02-0.65-0.02-1H92.51z
	 M84.77,120.23v0.83h-4.88v-0.83H84.77z M92.43,120.25v1.02h-5.1v-1.02H92.43z M77.45,126.73v1h-4.64v-1H77.45z M84.77,120.23v0.83
	h-4.88v-0.83H84.77z M92.43,120.25v1.02h-5.1v-1.02H92.43z M92.51,113.67c0,0.35,0,0.68-0.02,1h-5.08c-0.02-0.33-0.02-0.65-0.02-1
	H92.51z M99.62,114.37h-5.1c-0.04-0.24-0.07-0.48-0.09-0.7h5.15C99.6,113.89,99.6,114.13,99.62,114.37z M99.62,120.12v0.94h-4.88
	c0-0.31,0-0.63-0.02-0.94H99.62z M99.62,114.37h-5.1c-0.04-0.24-0.07-0.48-0.09-0.7h5.15C99.6,113.89,99.6,114.13,99.62,114.37z
	 M92.51,113.67c0,0.35,0,0.68-0.02,1h-5.08c-0.02-0.33-0.02-0.65-0.02-1H92.51z M77.45,126.73v1h-4.64v-1H77.45z M84.77,120.23v0.83
	h-4.88v-0.83H84.77z M92.43,120.25v1.02h-5.1v-1.02H92.43z M99.62,120.12v0.94h-4.88c0-0.31,0-0.63-0.02-0.94H99.62z M77.45,126.73
	v1h-4.64v-1H77.45z M84.77,120.23v0.83h-4.88v-0.83H84.77z M84.84,126.53v0.96h-4.97v-0.96H84.84z M92.27,126.55v0.89H87.3v-0.89
	H92.27z M92.43,120.25v1.02h-5.1v-1.02H92.43z M92.51,113.67c0,0.35,0,0.68-0.02,1h-5.08c-0.02-0.33-0.02-0.65-0.02-1H92.51z
	 M99.62,114.37h-5.1c-0.04-0.24-0.07-0.48-0.09-0.7h5.15C99.6,113.89,99.6,114.13,99.62,114.37z M99.62,120.12v0.94h-4.88
	c0-0.31,0-0.63-0.02-0.94H99.62z M99.62,114.37h-5.1c-0.04-0.24-0.07-0.48-0.09-0.7h5.15C99.6,113.89,99.6,114.13,99.62,114.37z
	 M92.51,113.67c0,0.35,0,0.68-0.02,1h-5.08c-0.02-0.33-0.02-0.65-0.02-1H92.51z M77.45,126.73v1h-4.64v-1H77.45z M84.84,126.53v0.96
	h-4.97v-0.96H84.84z M84.77,120.23v0.83h-4.88v-0.83H84.77z M92.27,126.55v0.89H87.3v-0.89H92.27z M92.43,120.25v1.02h-5.1v-1.02
	H92.43z M99.62,120.12v0.94h-4.88c0-0.31,0-0.63-0.02-0.94H99.62z M77.45,126.73v1h-4.64v-1H77.45z M84.77,120.23v0.83h-4.88v-0.83
	H84.77z M84.84,126.53v0.96h-4.97v-0.96H84.84z M92.27,126.55v0.89H87.3v-0.89H92.27z M92.43,120.25v1.02h-5.1v-1.02H92.43z
	 M92.51,113.67c0,0.35,0,0.68-0.02,1h-5.08c-0.02-0.33-0.02-0.65-0.02-1H92.51z M99.62,114.37h-5.1c-0.04-0.24-0.07-0.48-0.09-0.7
	h5.15C99.6,113.89,99.6,114.13,99.62,114.37z M99.62,120.12v0.94h-4.88c0-0.31,0-0.63-0.02-0.94H99.62z M99.69,126.51v1H94.5
	c0.02-0.35,0.02-0.68,0.02-1H99.69z M114.4,126.6v1.02h-5.1c0-0.35,0-0.68-0.02-1.02H114.4z M114.4,126.6v1.02h-5.1
	c0-0.35,0-0.68-0.02-1.02H114.4z M99.62,114.37h-5.1c-0.04-0.24-0.07-0.48-0.09-0.7h5.15C99.6,113.89,99.6,114.13,99.62,114.37z
	 M92.51,113.67c0,0.35,0,0.68-0.02,1h-5.08c-0.02-0.33-0.02-0.65-0.02-1H92.51z M77.45,126.73v1h-4.64v-1H77.45z M84.84,126.53v0.96
	h-4.97v-0.96H84.84z M84.77,120.23v0.83h-4.88v-0.83H84.77z M92.27,126.55v0.89H87.3v-0.89H92.27z M92.43,120.25v1.02h-5.1v-1.02
	H92.43z M99.62,120.12v0.94h-4.88c0-0.31,0-0.63-0.02-0.94H99.62z M99.69,126.51v1H94.5c0.02-0.35,0.02-0.68,0.02-1H99.69z
	 M77.45,126.73v1h-4.64v-1H77.45z M77.62,132.94v1.24h-5.06c0-0.41-0.02-0.83-0.02-1.24H77.62z M84.77,120.23v0.83h-4.88v-0.83
	H84.77z M84.84,126.53v0.96h-4.97v-0.96H84.84z M85.01,134.16H79.8v-1.29h5.17C84.97,133.31,84.99,133.73,85.01,134.16z
	 M92.27,126.55v0.89H87.3v-0.89H92.27z M92.43,120.25v1.02h-5.1v-1.02H92.43z M92.51,113.67c0,0.35,0,0.68-0.02,1h-5.08
	c-0.02-0.33-0.02-0.65-0.02-1H92.51z M99.62,114.37h-5.1c-0.04-0.24-0.07-0.48-0.09-0.7h5.15C99.6,113.89,99.6,114.13,99.62,114.37z
	 M99.62,120.12v0.94h-4.88c0-0.31,0-0.63-0.02-0.94H99.62z M99.69,126.51v1H94.5c0.02-0.35,0.02-0.68,0.02-1H99.69z M114.4,126.6
	v1.02h-5.1c0-0.35,0-0.68-0.02-1.02H114.4z M114.4,126.6v1.02h-5.1c0-0.35,0-0.68-0.02-1.02H114.4z M99.62,114.37h-5.1
	c-0.04-0.24-0.07-0.48-0.09-0.7h5.15C99.6,113.89,99.6,114.13,99.62,114.37z M92.51,113.67c0,0.35,0,0.68-0.02,1h-5.08
	c-0.02-0.33-0.02-0.65-0.02-1H92.51z M85.01,134.16H79.8v-1.29h5.17C84.97,133.31,84.99,133.73,85.01,134.16z M77.62,132.94v1.24
	h-5.06c0-0.41-0.02-0.83-0.02-1.24H77.62z M77.45,126.73v1h-4.64v-1H77.45z M84.84,126.53v0.96h-4.97v-0.96H84.84z M84.77,120.23
	v0.83h-4.88v-0.83H84.77z M92.27,126.55v0.89H87.3v-0.89H92.27z M92.43,120.25v1.02h-5.1v-1.02H92.43z M99.62,120.12v0.94h-4.88
	c0-0.31,0-0.63-0.02-0.94H99.62z M99.69,126.51v1H94.5c0.02-0.35,0.02-0.68,0.02-1H99.69z M77.45,126.73v1h-4.64v-1H77.45z
	 M77.62,132.94v1.24h-5.06c0-0.41-0.02-0.83-0.02-1.24H77.62z M84.77,120.23v0.83h-4.88v-0.83H84.77z M84.84,126.53v0.96h-4.97
	v-0.96H84.84z M85.01,134.16H79.8v-1.29h5.17C84.97,133.31,84.99,133.73,85.01,134.16z M92.27,126.55v0.89H87.3v-0.89H92.27z
	 M92.43,120.25v1.02h-5.1v-1.02H92.43z M92.51,113.67c0,0.35,0,0.68-0.02,1h-5.08c-0.02-0.33-0.02-0.65-0.02-1H92.51z M92.51,132.94
	v1.11h-5.45v-1.11H92.51z M99.62,114.37h-5.1c-0.04-0.24-0.07-0.48-0.09-0.7h5.15C99.6,113.89,99.6,114.13,99.62,114.37z
	 M99.62,120.12v0.94h-4.88c0-0.31,0-0.63-0.02-0.94H99.62z M99.69,126.51v1H94.5c0.02-0.35,0.02-0.68,0.02-1H99.69z M99.73,133.84
	h-5.25c0-0.31-0.02-0.63-0.04-0.96h5.28C99.71,133.2,99.71,133.53,99.73,133.84z M114.4,126.6v1.02h-5.1c0-0.35,0-0.68-0.02-1.02
	H114.4z M114.4,126.6v1.02h-5.1c0-0.35,0-0.68-0.02-1.02H114.4z M99.73,133.84h-5.25c0-0.31-0.02-0.63-0.04-0.96h5.28
	C99.71,133.2,99.71,133.53,99.73,133.84z M99.62,114.37h-5.1c-0.04-0.24-0.07-0.48-0.09-0.7h5.15
	C99.6,113.89,99.6,114.13,99.62,114.37z M92.51,113.67c0,0.35,0,0.68-0.02,1h-5.08c-0.02-0.33-0.02-0.65-0.02-1H92.51z
	 M92.51,132.94v1.11h-5.45v-1.11H92.51z M85.01,134.16H79.8v-1.29h5.17C84.97,133.31,84.99,133.73,85.01,134.16z M77.62,132.94v1.24
	h-5.06c0-0.41-0.02-0.83-0.02-1.24H77.62z M77.45,126.73v1h-4.64v-1H77.45z M84.84,126.53v0.96h-4.97v-0.96H84.84z M84.77,120.23
	v0.83h-4.88v-0.83H84.77z M92.27,126.55v0.89H87.3v-0.89H92.27z M92.43,120.25v1.02h-5.1v-1.02H92.43z M99.62,120.12v0.94h-4.88
	c0-0.31,0-0.63-0.02-0.94H99.62z M99.69,126.51v1H94.5c0.02-0.35,0.02-0.68,0.02-1H99.69z M63.08,140.62h-5.28v-0.83h5.25
	C63.08,140.05,63.08,140.33,63.08,140.62z M77.45,126.73v1h-4.64v-1H77.45z M77.62,132.94v1.24h-5.06c0-0.41-0.02-0.83-0.02-1.24
	H77.62z M84.77,120.23v0.83h-4.88v-0.83H84.77z M84.84,126.53v0.96h-4.97v-0.96H84.84z M85.01,134.16H79.8v-1.29h5.17
	C84.97,133.31,84.99,133.73,85.01,134.16z M92.27,126.55v0.89H87.3v-0.89H92.27z M92.43,120.25v1.02h-5.1v-1.02H92.43z
	 M92.51,113.67c0,0.35,0,0.68-0.02,1h-5.08c-0.02-0.33-0.02-0.65-0.02-1H92.51z M92.51,132.94v1.11h-5.45v-1.11H92.51z
	 M99.62,114.37h-5.1c-0.04-0.24-0.07-0.48-0.09-0.7h5.15C99.6,113.89,99.6,114.13,99.62,114.37z M99.62,120.12v0.94h-4.88
	c0-0.31,0-0.63-0.02-0.94H99.62z M99.69,126.51v1H94.5c0.02-0.35,0.02-0.68,0.02-1H99.69z M99.73,133.84h-5.25
	c0-0.31-0.02-0.63-0.04-0.96h5.28C99.71,133.2,99.71,133.53,99.73,133.84z M114.4,126.6v1.02h-5.1c0-0.35,0-0.68-0.02-1.02H114.4z
	 M114.43,132.99v1.22h-4.99c0.02-0.41,0.02-0.83,0.04-1.22H114.43z M114.43,132.99v1.22h-4.99c0.02-0.41,0.02-0.83,0.04-1.22H114.43
	z M114.4,126.6v1.02h-5.1c0-0.35,0-0.68-0.02-1.02H114.4z M99.73,133.84h-5.25c0-0.31-0.02-0.63-0.04-0.96h5.28
	C99.71,133.2,99.71,133.53,99.73,133.84z M99.62,114.37h-5.1c-0.04-0.24-0.07-0.48-0.09-0.7h5.15
	C99.6,113.89,99.6,114.13,99.62,114.37z M92.51,113.67c0,0.35,0,0.68-0.02,1h-5.08c-0.02-0.33-0.02-0.65-0.02-1H92.51z
	 M92.51,132.94v1.11h-5.45v-1.11H92.51z M85.01,134.16H79.8v-1.29h5.17C84.97,133.31,84.99,133.73,85.01,134.16z M77.62,132.94v1.24
	h-5.06c0-0.41-0.02-0.83-0.02-1.24H77.62z M63.08,140.62h-5.28v-0.83h5.25C63.08,140.05,63.08,140.33,63.08,140.62z M77.45,126.73v1
	h-4.64v-1H77.45z M84.84,126.53v0.96h-4.97v-0.96H84.84z M84.77,120.23v0.83h-4.88v-0.83H84.77z M92.27,126.55v0.89H87.3v-0.89
	H92.27z M92.43,120.25v1.02h-5.1v-1.02H92.43z M99.62,120.12v0.94h-4.88c0-0.31,0-0.63-0.02-0.94H99.62z M99.69,126.51v1H94.5
	c0.02-0.35,0.02-0.68,0.02-1H99.69z M63.08,140.62h-5.28v-0.83h5.25C63.08,140.05,63.08,140.33,63.08,140.62z M70.23,139.7v0.96
	h-4.88v-0.96H70.23z M77.41,139.59v1h-4.6c0-0.33-0.02-0.68-0.02-1H77.41z M77.45,126.73v1h-4.64v-1H77.45z M77.62,132.94v1.24
	h-5.06c0-0.41-0.02-0.83-0.02-1.24H77.62z M84.77,120.23v0.83h-4.88v-0.83H84.77z M84.84,126.53v0.96h-4.97v-0.96H84.84z
	 M85.01,134.16H79.8v-1.29h5.17C84.97,133.31,84.99,133.73,85.01,134.16z M92.27,126.55v0.89H87.3v-0.89H92.27z M92.43,120.25v1.02
	h-5.1v-1.02H92.43z M92.51,113.67c0,0.35,0,0.68-0.02,1h-5.08c-0.02-0.33-0.02-0.65-0.02-1H92.51z M92.51,132.94v1.11h-5.45v-1.11
	H92.51z M99.62,114.37h-5.1c-0.04-0.24-0.07-0.48-0.09-0.7h5.15C99.6,113.89,99.6,114.13,99.62,114.37z M99.62,120.12v0.94h-4.88
	c0-0.31,0-0.63-0.02-0.94H99.62z M99.69,126.51v1H94.5c0.02-0.35,0.02-0.68,0.02-1H99.69z M99.73,133.84h-5.25
	c0-0.31-0.02-0.63-0.04-0.96h5.28C99.71,133.2,99.71,133.53,99.73,133.84z M114.4,126.6v1.02h-5.1c0-0.35,0-0.68-0.02-1.02H114.4z
	 M114.43,132.99v1.22h-4.99c0.02-0.41,0.02-0.83,0.04-1.22H114.43z M114.43,132.99v1.22h-4.99c0.02-0.41,0.02-0.83,0.04-1.22H114.43
	z M114.4,126.6v1.02h-5.1c0-0.35,0-0.68-0.02-1.02H114.4z M99.73,133.84h-5.25c0-0.31-0.02-0.63-0.04-0.96h5.28
	C99.71,133.2,99.71,133.53,99.73,133.84z M99.62,114.37h-5.1c-0.04-0.24-0.07-0.48-0.09-0.7h5.15
	C99.6,113.89,99.6,114.13,99.62,114.37z M92.51,113.67c0,0.35,0,0.68-0.02,1h-5.08c-0.02-0.33-0.02-0.65-0.02-1H92.51z
	 M92.51,132.94v1.11h-5.45v-1.11H92.51z M85.01,134.16H79.8v-1.29h5.17C84.97,133.31,84.99,133.73,85.01,134.16z M77.62,132.94v1.24
	h-5.06c0-0.41-0.02-0.83-0.02-1.24H77.62z M77.41,139.59v1h-4.6c0-0.33-0.02-0.68-0.02-1H77.41z M63.08,140.62h-5.28v-0.83h5.25
	C63.08,140.05,63.08,140.33,63.08,140.62z M70.23,139.7v0.96h-4.88v-0.96H70.23z M77.45,126.73v1h-4.64v-1H77.45z M84.84,126.53
	v0.96h-4.97v-0.96H84.84z M84.77,120.23v0.83h-4.88v-0.83H84.77z M92.27,126.55v0.89H87.3v-0.89H92.27z M92.43,120.25v1.02h-5.1
	v-1.02H92.43z M99.62,120.12v0.94h-4.88c0-0.31,0-0.63-0.02-0.94H99.62z M99.69,126.51v1H94.5c0.02-0.35,0.02-0.68,0.02-1H99.69z
	 M63.08,140.62h-5.28v-0.83h5.25C63.08,140.05,63.08,140.33,63.08,140.62z M70.23,139.7v0.96h-4.88v-0.96H70.23z M77.41,139.59v1
	h-4.6c0-0.33-0.02-0.68-0.02-1H77.41z M77.45,126.73v1h-4.64v-1H77.45z M77.62,132.94v1.24h-5.06c0-0.41-0.02-0.83-0.02-1.24H77.62z
	 M84.77,120.23v0.83h-4.88v-0.83H84.77z M84.82,139.79c0,0.31,0,0.63-0.02,0.96H80c0-0.33-0.02-0.65-0.02-0.96H84.82z M84.84,126.53
	v0.96h-4.97v-0.96H84.84z M85.01,134.16H79.8v-1.29h5.17C84.97,133.31,84.99,133.73,85.01,134.16z M92.27,126.55v0.89H87.3v-0.89
	H92.27z M92.43,120.25v1.02h-5.1v-1.02H92.43z M92.51,113.67c0,0.35,0,0.68-0.02,1h-5.08c-0.02-0.33-0.02-0.65-0.02-1H92.51z
	 M92.51,132.94v1.11h-5.45v-1.11H92.51z M99.62,114.37h-5.1c-0.04-0.24-0.07-0.48-0.09-0.7h5.15
	C99.6,113.89,99.6,114.13,99.62,114.37z M99.62,120.12v0.94h-4.88c0-0.31,0-0.63-0.02-0.94H99.62z M99.69,126.51v1H94.5
	c0.02-0.35,0.02-0.68,0.02-1H99.69z M99.73,133.84h-5.25c0-0.31-0.02-0.63-0.04-0.96h5.28C99.71,133.2,99.71,133.53,99.73,133.84z
	 M106.97,140.55h-4.8v-0.89h4.77C106.97,139.94,106.97,140.25,106.97,140.55z M114.4,126.6v1.02h-5.1c0-0.35,0-0.68-0.02-1.02H114.4
	z M114.43,132.99v1.22h-4.99c0.02-0.41,0.02-0.83,0.04-1.22H114.43z M114.43,132.99v1.22h-4.99c0.02-0.41,0.02-0.83,0.04-1.22
	H114.43z M106.97,140.55h-4.8v-0.89h4.77C106.97,139.94,106.97,140.25,106.97,140.55z M114.4,126.6v1.02h-5.1
	c0-0.35,0-0.68-0.02-1.02H114.4z M99.73,133.84h-5.25c0-0.31-0.02-0.63-0.04-0.96h5.28C99.71,133.2,99.71,133.53,99.73,133.84z
	 M99.62,114.37h-5.1c-0.04-0.24-0.07-0.48-0.09-0.7h5.15C99.6,113.89,99.6,114.13,99.62,114.37z M92.51,113.67c0,0.35,0,0.68-0.02,1
	h-5.08c-0.02-0.33-0.02-0.65-0.02-1H92.51z M92.51,132.94v1.11h-5.45v-1.11H92.51z M85.01,134.16H79.8v-1.29h5.17
	C84.97,133.31,84.99,133.73,85.01,134.16z M84.82,139.79c0,0.31,0,0.63-0.02,0.96H80c0-0.33-0.02-0.65-0.02-0.96H84.82z
	 M77.62,132.94v1.24h-5.06c0-0.41-0.02-0.83-0.02-1.24H77.62z M77.41,139.59v1h-4.6c0-0.33-0.02-0.68-0.02-1H77.41z M63.08,140.62
	h-5.28v-0.83h5.25C63.08,140.05,63.08,140.33,63.08,140.62z M70.23,139.7v0.96h-4.88v-0.96H70.23z M77.45,126.73v1h-4.64v-1H77.45z
	 M84.84,126.53v0.96h-4.97v-0.96H84.84z M84.77,120.23v0.83h-4.88v-0.83H84.77z M92.27,126.55v0.89H87.3v-0.89H92.27z M92.43,120.25
	v1.02h-5.1v-1.02H92.43z M99.62,120.12v0.94h-4.88c0-0.31,0-0.63-0.02-0.94H99.62z M99.69,126.51v1H94.5c0.02-0.35,0.02-0.68,0.02-1
	H99.69z M63.08,140.62h-5.28v-0.83h5.25C63.08,140.05,63.08,140.33,63.08,140.62z M70.23,139.7v0.96h-4.88v-0.96H70.23z
	 M77.41,139.59v1h-4.6c0-0.33-0.02-0.68-0.02-1H77.41z M77.45,126.73v1h-4.64v-1H77.45z M77.62,132.94v1.24h-5.06
	c0-0.41-0.02-0.83-0.02-1.24H77.62z M84.77,120.23v0.83h-4.88v-0.83H84.77z M84.82,139.79c0,0.31,0,0.63-0.02,0.96H80
	c0-0.33-0.02-0.65-0.02-0.96H84.82z M84.84,126.53v0.96h-4.97v-0.96H84.84z M85.01,134.16H79.8v-1.29h5.17
	C84.97,133.31,84.99,133.73,85.01,134.16z M92.27,126.55v0.89H87.3v-0.89H92.27z M92.43,120.25v1.02h-5.1v-1.02H92.43z
	 M92.51,113.67c0,0.35,0,0.68-0.02,1h-5.08c-0.02-0.33-0.02-0.65-0.02-1H92.51z M92.51,132.94v1.11h-5.45v-1.11H92.51z
	 M99.62,114.37h-5.1c-0.04-0.24-0.07-0.48-0.09-0.7h5.15C99.6,113.89,99.6,114.13,99.62,114.37z M99.62,120.12v0.94h-4.88
	c0-0.31,0-0.63-0.02-0.94H99.62z M99.69,126.51v1H94.5c0.02-0.35,0.02-0.68,0.02-1H99.69z M99.73,133.84h-5.25
	c0-0.31-0.02-0.63-0.04-0.96h5.28C99.71,133.2,99.71,133.53,99.73,133.84z M106.97,140.55h-4.8v-0.89h4.77
	C106.97,139.94,106.97,140.25,106.97,140.55z M114.19,145.96v0.89h-4.88c0.02-0.28,0.02-0.59,0.04-0.89H114.19z M114.38,139.44v1.13
	h-5.04v-1.13H114.38z M114.4,126.6v1.02h-5.1c0-0.35,0-0.68-0.02-1.02H114.4z M114.43,132.99v1.22h-4.99
	c0.02-0.41,0.02-0.83,0.04-1.22H114.43z M114.43,132.99v1.22h-4.99c0.02-0.41,0.02-0.83,0.04-1.22H114.43z M114.38,139.44v1.13
	h-5.04v-1.13H114.38z M114.19,145.96v0.89h-4.88c0.02-0.28,0.02-0.59,0.04-0.89H114.19z M106.97,140.55h-4.8v-0.89h4.77
	C106.97,139.94,106.97,140.25,106.97,140.55z M114.4,126.6v1.02h-5.1c0-0.35,0-0.68-0.02-1.02H114.4z M99.73,133.84h-5.25
	c0-0.31-0.02-0.63-0.04-0.96h5.28C99.71,133.2,99.71,133.53,99.73,133.84z M99.62,114.37h-5.1c-0.04-0.24-0.07-0.48-0.09-0.7h5.15
	C99.6,113.89,99.6,114.13,99.62,114.37z M92.51,113.67c0,0.35,0,0.68-0.02,1h-5.08c-0.02-0.33-0.02-0.65-0.02-1H92.51z
	 M92.51,132.94v1.11h-5.45v-1.11H92.51z M85.01,134.16H79.8v-1.29h5.17C84.97,133.31,84.99,133.73,85.01,134.16z M84.82,139.79
	c0,0.31,0,0.63-0.02,0.96H80c0-0.33-0.02-0.65-0.02-0.96H84.82z M77.62,132.94v1.24h-5.06c0-0.41-0.02-0.83-0.02-1.24H77.62z
	 M77.41,139.59v1h-4.6c0-0.33-0.02-0.68-0.02-1H77.41z M63.08,140.62h-5.28v-0.83h5.25C63.08,140.05,63.08,140.33,63.08,140.62z
	 M70.23,139.7v0.96h-4.88v-0.96H70.23z M77.45,126.73v1h-4.64v-1H77.45z M84.84,126.53v0.96h-4.97v-0.96H84.84z M84.77,120.23v0.83
	h-4.88v-0.83H84.77z M92.27,126.55v0.89H87.3v-0.89H92.27z M92.43,120.25v1.02h-5.1v-1.02H92.43z M99.62,120.12v0.94h-4.88
	c0-0.31,0-0.63-0.02-0.94H99.62z M99.69,126.51v1H94.5c0.02-0.35,0.02-0.68,0.02-1H99.69z M63.08,140.62h-5.28v-0.83h5.25
	C63.08,140.05,63.08,140.33,63.08,140.62z M70.23,139.7v0.96h-4.88v-0.96H70.23z M77.41,139.59v1h-4.6c0-0.33-0.02-0.68-0.02-1
	H77.41z M77.45,126.73v1h-4.64v-1H77.45z M77.62,132.94v1.24h-5.06c0-0.41-0.02-0.83-0.02-1.24H77.62z M84.77,120.23v0.83h-4.88
	v-0.83H84.77z M84.82,139.79c0,0.31,0,0.63-0.02,0.96H80c0-0.33-0.02-0.65-0.02-0.96H84.82z M84.84,126.53v0.96h-4.97v-0.96H84.84z
	 M85.01,134.16H79.8v-1.29h5.17C84.97,133.31,84.99,133.73,85.01,134.16z M92.27,126.55v0.89H87.3v-0.89H92.27z M92.43,120.25v1.02
	h-5.1v-1.02H92.43z M92.51,113.67c0,0.35,0,0.68-0.02,1h-5.08c-0.02-0.33-0.02-0.65-0.02-1H92.51z M92.51,132.94v1.11h-5.45v-1.11
	H92.51z M99.62,114.37h-5.1c-0.04-0.24-0.07-0.48-0.09-0.7h5.15C99.6,113.89,99.6,114.13,99.62,114.37z M99.62,120.12v0.94h-4.88
	c0-0.31,0-0.63-0.02-0.94H99.62z M99.67,145.8v0.92h-4.95v-0.92H99.67z M99.69,126.51v1H94.5c0.02-0.35,0.02-0.68,0.02-1H99.69z
	 M99.73,133.84h-5.25c0-0.31-0.02-0.63-0.04-0.96h5.28C99.71,133.2,99.71,133.53,99.73,133.84z M106.95,146.18
	c0,0.22-0.02,0.44-0.02,0.65h-4.82c0.02-0.22,0.02-0.44,0.02-0.65H106.95z M106.97,140.55h-4.8v-0.89h4.77
	C106.97,139.94,106.97,140.25,106.97,140.55z M114.19,145.96v0.89h-4.88c0.02-0.28,0.02-0.59,0.04-0.89H114.19z M114.38,139.44v1.13
	h-5.04v-1.13H114.38z M114.4,126.6v1.02h-5.1c0-0.35,0-0.68-0.02-1.02H114.4z M114.43,132.99v1.22h-4.99
	c0.02-0.41,0.02-0.83,0.04-1.22H114.43z M114.43,132.99v1.22h-4.99c0.02-0.41,0.02-0.83,0.04-1.22H114.43z M114.38,139.44v1.13
	h-5.04v-1.13H114.38z M114.19,145.96v0.89h-4.88c0.02-0.28,0.02-0.59,0.04-0.89H114.19z M106.95,146.18c0,0.22-0.02,0.44-0.02,0.65
	h-4.82c0.02-0.22,0.02-0.44,0.02-0.65H106.95z M106.97,140.55h-4.8v-0.89h4.77C106.97,139.94,106.97,140.25,106.97,140.55z
	 M114.4,126.6v1.02h-5.1c0-0.35,0-0.68-0.02-1.02H114.4z M99.73,133.84h-5.25c0-0.31-0.02-0.63-0.04-0.96h5.28
	C99.71,133.2,99.71,133.53,99.73,133.84z M99.67,145.8v0.92h-4.95v-0.92H99.67z M99.62,114.37h-5.1c-0.04-0.24-0.07-0.48-0.09-0.7
	h5.15C99.6,113.89,99.6,114.13,99.62,114.37z M92.51,113.67c0,0.35,0,0.68-0.02,1h-5.08c-0.02-0.33-0.02-0.65-0.02-1H92.51z
	 M92.51,132.94v1.11h-5.45v-1.11H92.51z M85.01,134.16H79.8v-1.29h5.17C84.97,133.31,84.99,133.73,85.01,134.16z M84.82,139.79
	c0,0.31,0,0.63-0.02,0.96H80c0-0.33-0.02-0.65-0.02-0.96H84.82z M77.62,132.94v1.24h-5.06c0-0.41-0.02-0.83-0.02-1.24H77.62z
	 M77.41,139.59v1h-4.6c0-0.33-0.02-0.68-0.02-1H77.41z M63.08,140.62h-5.28v-0.83h5.25C63.08,140.05,63.08,140.33,63.08,140.62z
	 M70.23,139.7v0.96h-4.88v-0.96H70.23z M77.45,126.73v1h-4.64v-1H77.45z M84.84,126.53v0.96h-4.97v-0.96H84.84z M84.77,120.23v0.83
	h-4.88v-0.83H84.77z M92.27,126.55v0.89H87.3v-0.89H92.27z M92.43,120.25v1.02h-5.1v-1.02H92.43z M99.62,120.12v0.94h-4.88
	c0-0.31,0-0.63-0.02-0.94H99.62z M99.69,126.51v1H94.5c0.02-0.35,0.02-0.68,0.02-1H99.69z M63.08,140.62h-5.28v-0.83h5.25
	C63.08,140.05,63.08,140.33,63.08,140.62z M70.23,139.7v0.96h-4.88v-0.96H70.23z M77.41,139.59v1h-4.6c0-0.33-0.02-0.68-0.02-1
	H77.41z M77.45,126.73v1h-4.64v-1H77.45z M77.62,132.94v1.24h-5.06c0-0.41-0.02-0.83-0.02-1.24H77.62z M84.77,120.23v0.83h-4.88
	v-0.83H84.77z M84.82,139.79c0,0.31,0,0.63-0.02,0.96H80c0-0.33-0.02-0.65-0.02-0.96H84.82z M84.84,145.98
	c-0.02,0.28-0.02,0.59-0.02,0.89h-4.93c0.02-0.31,0.02-0.61,0.02-0.89H84.84z M84.84,126.53v0.96h-4.97v-0.96H84.84z M85.01,134.16
	H79.8v-1.29h5.17C84.97,133.31,84.99,133.73,85.01,134.16z M92.21,146.11c-0.02,0.31-0.02,0.59-0.02,0.89h-4.86
	c-0.02-0.31-0.02-0.59-0.02-0.89H92.21z M92.27,126.55v0.89H87.3v-0.89H92.27z M92.43,120.25v1.02h-5.1v-1.02H92.43z M92.51,113.67
	c0,0.35,0,0.68-0.02,1h-5.08c-0.02-0.33-0.02-0.65-0.02-1H92.51z M92.51,132.94v1.11h-5.45v-1.11H92.51z M99.62,114.37h-5.1
	c-0.04-0.24-0.07-0.48-0.09-0.7h5.15C99.6,113.89,99.6,114.13,99.62,114.37z M99.62,120.12v0.94h-4.88c0-0.31,0-0.63-0.02-0.94
	H99.62z M99.67,145.8v0.92h-4.95v-0.92H99.67z M99.69,126.51v1H94.5c0.02-0.35,0.02-0.68,0.02-1H99.69z M99.73,133.84h-5.25
	c0-0.31-0.02-0.63-0.04-0.96h5.28C99.71,133.2,99.71,133.53,99.73,133.84z M106.95,146.18c0,0.22-0.02,0.44-0.02,0.65h-4.82
	c0.02-0.22,0.02-0.44,0.02-0.65H106.95z M106.97,140.55h-4.8v-0.89h4.77C106.97,139.94,106.97,140.25,106.97,140.55z M114.19,145.96
	v0.89h-4.88c0.02-0.28,0.02-0.59,0.04-0.89H114.19z M114.38,139.44v1.13h-5.04v-1.13H114.38z M114.4,126.6v1.02h-5.1
	c0-0.35,0-0.68-0.02-1.02H114.4z M114.43,132.99v1.22h-4.99c0.02-0.41,0.02-0.83,0.04-1.22H114.43z M114.43,132.99v1.22h-4.99
	c0.02-0.41,0.02-0.83,0.04-1.22H114.43z M114.38,139.44v1.13h-5.04v-1.13H114.38z M114.19,145.96v0.89h-4.88
	c0.02-0.28,0.02-0.59,0.04-0.89H114.19z M106.95,146.18c0,0.22-0.02,0.44-0.02,0.65h-4.82c0.02-0.22,0.02-0.44,0.02-0.65H106.95z
	 M106.97,140.55h-4.8v-0.89h4.77C106.97,139.94,106.97,140.25,106.97,140.55z M114.4,126.6v1.02h-5.1c0-0.35,0-0.68-0.02-1.02H114.4
	z M99.73,133.84h-5.25c0-0.31-0.02-0.63-0.04-0.96h5.28C99.71,133.2,99.71,133.53,99.73,133.84z M99.67,145.8v0.92h-4.95v-0.92
	H99.67z M99.62,114.37h-5.1c-0.04-0.24-0.07-0.48-0.09-0.7h5.15C99.6,113.89,99.6,114.13,99.62,114.37z M92.51,113.67
	c0,0.35,0,0.68-0.02,1h-5.08c-0.02-0.33-0.02-0.65-0.02-1H92.51z M92.51,132.94v1.11h-5.45v-1.11H92.51z M92.21,146.11
	c-0.02,0.31-0.02,0.59-0.02,0.89h-4.86c-0.02-0.31-0.02-0.59-0.02-0.89H92.21z M85.01,134.16H79.8v-1.29h5.17
	C84.97,133.31,84.99,133.73,85.01,134.16z M84.82,139.79c0,0.31,0,0.63-0.02,0.96H80c0-0.33-0.02-0.65-0.02-0.96H84.82z
	 M84.84,145.98c-0.02,0.28-0.02,0.59-0.02,0.89h-4.93c0.02-0.31,0.02-0.61,0.02-0.89H84.84z M77.62,132.94v1.24h-5.06
	c0-0.41-0.02-0.83-0.02-1.24H77.62z M77.41,139.59v1h-4.6c0-0.33-0.02-0.68-0.02-1H77.41z M63.08,140.62h-5.28v-0.83h5.25
	C63.08,140.05,63.08,140.33,63.08,140.62z M70.23,139.7v0.96h-4.88v-0.96H70.23z M77.45,126.73v1h-4.64v-1H77.45z M84.84,126.53
	v0.96h-4.97v-0.96H84.84z M84.77,120.23v0.83h-4.88v-0.83H84.77z M92.27,126.55v0.89H87.3v-0.89H92.27z M92.43,120.25v1.02h-5.1
	v-1.02H92.43z M99.62,120.12v0.94h-4.88c0-0.31,0-0.63-0.02-0.94H99.62z M99.69,126.51v1H94.5c0.02-0.35,0.02-0.68,0.02-1H99.69z
	 M63.08,140.62h-5.28v-0.83h5.25C63.08,140.05,63.08,140.33,63.08,140.62z M70.23,139.7v0.96h-4.88v-0.96H70.23z M70.3,145.94v0.89
	h-4.88c0-0.31-0.02-0.59-0.02-0.89H70.3z M77.41,139.59v1h-4.6c0-0.33-0.02-0.68-0.02-1H77.41z M77.41,145.83v0.87h-4.58v-0.87
	H77.41z M77.45,126.73v1h-4.64v-1H77.45z M77.62,132.94v1.24h-5.06c0-0.41-0.02-0.83-0.02-1.24H77.62z M84.77,120.23v0.83h-4.88
	v-0.83H84.77z M84.82,139.79c0,0.31,0,0.63-0.02,0.96H80c0-0.33-0.02-0.65-0.02-0.96H84.82z M84.84,145.98
	c-0.02,0.28-0.02,0.59-0.02,0.89h-4.93c0.02-0.31,0.02-0.61,0.02-0.89H84.84z M84.84,126.53v0.96h-4.97v-0.96H84.84z M85.01,134.16
	H79.8v-1.29h5.17C84.97,133.31,84.99,133.73,85.01,134.16z M92.21,146.11c-0.02,0.31-0.02,0.59-0.02,0.89h-4.86
	c-0.02-0.31-0.02-0.59-0.02-0.89H92.21z M92.27,126.55v0.89H87.3v-0.89H92.27z M92.43,120.25v1.02h-5.1v-1.02H92.43z M92.51,113.67
	c0,0.35,0,0.68-0.02,1h-5.08c-0.02-0.33-0.02-0.65-0.02-1H92.51z M92.51,132.94v1.11h-5.45v-1.11H92.51z M99.62,114.37h-5.1
	c-0.04-0.24-0.07-0.48-0.09-0.7h5.15C99.6,113.89,99.6,114.13,99.62,114.37z M99.62,120.12v0.94h-4.88c0-0.31,0-0.63-0.02-0.94
	H99.62z M99.67,145.8v0.92h-4.95v-0.92H99.67z M99.69,126.51v1H94.5c0.02-0.35,0.02-0.68,0.02-1H99.69z M99.73,133.84h-5.25
	c0-0.31-0.02-0.63-0.04-0.96h5.28C99.71,133.2,99.71,133.53,99.73,133.84z M106.95,146.18c0,0.22-0.02,0.44-0.02,0.65h-4.82
	c0.02-0.22,0.02-0.44,0.02-0.65H106.95z M106.97,140.55h-4.8v-0.89h4.77C106.97,139.94,106.97,140.25,106.97,140.55z M114.19,145.96
	v0.89h-4.88c0.02-0.28,0.02-0.59,0.04-0.89H114.19z M114.38,139.44v1.13h-5.04v-1.13H114.38z M114.4,126.6v1.02h-5.1
	c0-0.35,0-0.68-0.02-1.02H114.4z M114.43,132.99v1.22h-4.99c0.02-0.41,0.02-0.83,0.04-1.22H114.43z M114.43,132.99v1.22h-4.99
	c0.02-0.41,0.02-0.83,0.04-1.22H114.43z M114.38,139.44v1.13h-5.04v-1.13H114.38z M114.19,145.96v0.89h-4.88
	c0.02-0.28,0.02-0.59,0.04-0.89H114.19z M106.95,146.18c0,0.22-0.02,0.44-0.02,0.65h-4.82c0.02-0.22,0.02-0.44,0.02-0.65H106.95z
	 M106.97,140.55h-4.8v-0.89h4.77C106.97,139.94,106.97,140.25,106.97,140.55z M114.4,126.6v1.02h-5.1c0-0.35,0-0.68-0.02-1.02H114.4
	z M99.73,133.84h-5.25c0-0.31-0.02-0.63-0.04-0.96h5.28C99.71,133.2,99.71,133.53,99.73,133.84z M99.67,145.8v0.92h-4.95v-0.92
	H99.67z M99.62,114.37h-5.1c-0.04-0.24-0.07-0.48-0.09-0.7h5.15C99.6,113.89,99.6,114.13,99.62,114.37z M92.51,113.67
	c0,0.35,0,0.68-0.02,1h-5.08c-0.02-0.33-0.02-0.65-0.02-1H92.51z M92.51,132.94v1.11h-5.45v-1.11H92.51z M92.21,146.11
	c-0.02,0.31-0.02,0.59-0.02,0.89h-4.86c-0.02-0.31-0.02-0.59-0.02-0.89H92.21z M85.01,134.16H79.8v-1.29h5.17
	C84.97,133.31,84.99,133.73,85.01,134.16z M84.82,139.79c0,0.31,0,0.63-0.02,0.96H80c0-0.33-0.02-0.65-0.02-0.96H84.82z
	 M84.84,145.98c-0.02,0.28-0.02,0.59-0.02,0.89h-4.93c0.02-0.31,0.02-0.61,0.02-0.89H84.84z M77.62,132.94v1.24h-5.06
	c0-0.41-0.02-0.83-0.02-1.24H77.62z M77.41,139.59v1h-4.6c0-0.33-0.02-0.68-0.02-1H77.41z M77.41,145.83v0.87h-4.58v-0.87H77.41z
	 M63.08,140.62h-5.28v-0.83h5.25C63.08,140.05,63.08,140.33,63.08,140.62z M70.3,145.94v0.89h-4.88c0-0.31-0.02-0.59-0.02-0.89H70.3
	z M70.23,139.7v0.96h-4.88v-0.96H70.23z M77.45,126.73v1h-4.64v-1H77.45z M84.84,126.53v0.96h-4.97v-0.96H84.84z M84.77,120.23v0.83
	h-4.88v-0.83H84.77z M92.27,126.55v0.89H87.3v-0.89H92.27z M92.43,120.25v1.02h-5.1v-1.02H92.43z M99.62,120.12v0.94h-4.88
	c0-0.31,0-0.63-0.02-0.94H99.62z M99.69,126.51v1H94.5c0.02-0.35,0.02-0.68,0.02-1H99.69z M55.65,146.2v0.72h-4.6
	c0-0.24-0.02-0.48-0.02-0.72H55.65z M62.91,146.11v0.81h-5.12v-0.81H62.91z M63.08,140.62h-5.28v-0.83h5.25
	C63.08,140.05,63.08,140.33,63.08,140.62z M70.23,139.7v0.96h-4.88v-0.96H70.23z M70.3,145.94v0.89h-4.88
	c0-0.31-0.02-0.59-0.02-0.89H70.3z M77.41,139.59v1h-4.6c0-0.33-0.02-0.68-0.02-1H77.41z M77.41,145.83v0.87h-4.58v-0.87H77.41z
	 M77.45,126.73v1h-4.64v-1H77.45z M77.62,132.94v1.24h-5.06c0-0.41-0.02-0.83-0.02-1.24H77.62z M84.77,120.23v0.83h-4.88v-0.83
	H84.77z M84.82,139.79c0,0.31,0,0.63-0.02,0.96H80c0-0.33-0.02-0.65-0.02-0.96H84.82z M84.84,145.98c-0.02,0.28-0.02,0.59-0.02,0.89
	h-4.93c0.02-0.31,0.02-0.61,0.02-0.89H84.84z M84.84,126.53v0.96h-4.97v-0.96H84.84z M85.01,134.16H79.8v-1.29h5.17
	C84.97,133.31,84.99,133.73,85.01,134.16z M92.21,146.11c-0.02,0.31-0.02,0.59-0.02,0.89h-4.86c-0.02-0.31-0.02-0.59-0.02-0.89
	H92.21z M92.27,126.55v0.89H87.3v-0.89H92.27z M92.43,120.25v1.02h-5.1v-1.02H92.43z M92.51,113.67c0,0.35,0,0.68-0.02,1h-5.08
	c-0.02-0.33-0.02-0.65-0.02-1H92.51z M92.51,132.94v1.11h-5.45v-1.11H92.51z M99.62,114.37h-5.1c-0.04-0.24-0.07-0.48-0.09-0.7h5.15
	C99.6,113.89,99.6,114.13,99.62,114.37z M99.62,120.12v0.94h-4.88c0-0.31,0-0.63-0.02-0.94H99.62z M99.67,145.8v0.92h-4.95v-0.92
	H99.67z M99.69,126.51v1H94.5c0.02-0.35,0.02-0.68,0.02-1H99.69z M99.73,133.84h-5.25c0-0.31-0.02-0.63-0.04-0.96h5.28
	C99.71,133.2,99.71,133.53,99.73,133.84z M106.95,146.18c0,0.22-0.02,0.44-0.02,0.65h-4.82c0.02-0.22,0.02-0.44,0.02-0.65H106.95z
	 M106.97,140.55h-4.8v-0.89h4.77C106.97,139.94,106.97,140.25,106.97,140.55z M114.19,145.96v0.89h-4.88
	c0.02-0.28,0.02-0.59,0.04-0.89H114.19z M114.38,139.44v1.13h-5.04v-1.13H114.38z M114.4,126.6v1.02h-5.1c0-0.35,0-0.68-0.02-1.02
	H114.4z M114.43,132.99v1.22h-4.99c0.02-0.41,0.02-0.83,0.04-1.22H114.43z M114.43,132.99v1.22h-4.99c0.02-0.41,0.02-0.83,0.04-1.22
	H114.43z M114.38,139.44v1.13h-5.04v-1.13H114.38z M114.19,145.96v0.89h-4.88c0.02-0.28,0.02-0.59,0.04-0.89H114.19z M106.95,146.18
	c0,0.22-0.02,0.44-0.02,0.65h-4.82c0.02-0.22,0.02-0.44,0.02-0.65H106.95z M106.97,140.55h-4.8v-0.89h4.77
	C106.97,139.94,106.97,140.25,106.97,140.55z M114.4,126.6v1.02h-5.1c0-0.35,0-0.68-0.02-1.02H114.4z M99.73,133.84h-5.25
	c0-0.31-0.02-0.63-0.04-0.96h5.28C99.71,133.2,99.71,133.53,99.73,133.84z M99.67,145.8v0.92h-4.95v-0.92H99.67z M99.62,114.37h-5.1
	c-0.04-0.24-0.07-0.48-0.09-0.7h5.15C99.6,113.89,99.6,114.13,99.62,114.37z M92.51,113.67c0,0.35,0,0.68-0.02,1h-5.08
	c-0.02-0.33-0.02-0.65-0.02-1H92.51z M92.51,132.94v1.11h-5.45v-1.11H92.51z M92.21,146.11c-0.02,0.31-0.02,0.59-0.02,0.89h-4.86
	c-0.02-0.31-0.02-0.59-0.02-0.89H92.21z M85.01,134.16H79.8v-1.29h5.17C84.97,133.31,84.99,133.73,85.01,134.16z M84.82,139.79
	c0,0.31,0,0.63-0.02,0.96H80c0-0.33-0.02-0.65-0.02-0.96H84.82z M84.84,145.98c-0.02,0.28-0.02,0.59-0.02,0.89h-4.93
	c0.02-0.31,0.02-0.61,0.02-0.89H84.84z M77.62,132.94v1.24h-5.06c0-0.41-0.02-0.83-0.02-1.24H77.62z M77.41,139.59v1h-4.6
	c0-0.33-0.02-0.68-0.02-1H77.41z M77.41,145.83v0.87h-4.58v-0.87H77.41z M63.08,140.62h-5.28v-0.83h5.25
	C63.08,140.05,63.08,140.33,63.08,140.62z M62.91,146.11v0.81h-5.12v-0.81H62.91z M55.65,146.2v0.72h-4.6
	c0-0.24-0.02-0.48-0.02-0.72H55.65z M70.3,145.94v0.89h-4.88c0-0.31-0.02-0.59-0.02-0.89H70.3z M70.23,139.7v0.96h-4.88v-0.96H70.23
	z M77.45,126.73v1h-4.64v-1H77.45z M84.84,126.53v0.96h-4.97v-0.96H84.84z M84.77,120.23v0.83h-4.88v-0.83H84.77z M92.27,126.55
	v0.89H87.3v-0.89H92.27z M92.43,120.25v1.02h-5.1v-1.02H92.43z M99.62,120.12v0.94h-4.88c0-0.31,0-0.63-0.02-0.94H99.62z
	 M99.69,126.51v1H94.5c0.02-0.35,0.02-0.68,0.02-1H99.69z M55.65,146.2v0.72h-4.6c0-0.24-0.02-0.48-0.02-0.72H55.65z M55.67,152.37
	l-0.07,0.85h-5.04v-0.85H55.67z M62.89,153.02h-5.12c0-0.24,0-0.48-0.02-0.74h5.12C62.86,152.54,62.86,152.78,62.89,153.02z
	 M62.91,146.11v0.81h-5.12v-0.81H62.91z M63.08,140.62h-5.28v-0.83h5.25C63.08,140.05,63.08,140.33,63.08,140.62z M70.23,139.7v0.96
	h-4.88v-0.96H70.23z M70.3,145.94v0.89h-4.88c0-0.31-0.02-0.59-0.02-0.89H70.3z M77.41,139.59v1h-4.6c0-0.33-0.02-0.68-0.02-1H77.41
	z M77.41,145.83v0.87h-4.58v-0.87H77.41z M77.45,126.73v1h-4.64v-1H77.45z M77.62,132.94v1.24h-5.06c0-0.41-0.02-0.83-0.02-1.24
	H77.62z M84.77,120.23v0.83h-4.88v-0.83H84.77z M84.82,139.79c0,0.31,0,0.63-0.02,0.96H80c0-0.33-0.02-0.65-0.02-0.96H84.82z
	 M84.84,145.98c-0.02,0.28-0.02,0.59-0.02,0.89h-4.93c0.02-0.31,0.02-0.61,0.02-0.89H84.84z M84.84,126.53v0.96h-4.97v-0.96H84.84z
	 M85.01,134.16H79.8v-1.29h5.17C84.97,133.31,84.99,133.73,85.01,134.16z M92.21,146.11c-0.02,0.31-0.02,0.59-0.02,0.89h-4.86
	c-0.02-0.31-0.02-0.59-0.02-0.89H92.21z M92.27,126.55v0.89H87.3v-0.89H92.27z M92.43,120.25v1.02h-5.1v-1.02H92.43z M92.51,113.67
	c0,0.35,0,0.68-0.02,1h-5.08c-0.02-0.33-0.02-0.65-0.02-1H92.51z M92.51,132.94v1.11h-5.45v-1.11H92.51z M99.62,114.37h-5.1
	c-0.04-0.24-0.07-0.48-0.09-0.7h5.15C99.6,113.89,99.6,114.13,99.62,114.37z M99.62,120.12v0.94h-4.88c0-0.31,0-0.63-0.02-0.94
	H99.62z M99.67,145.8v0.92h-4.95v-0.92H99.67z M99.69,126.51v1H94.5c0.02-0.35,0.02-0.68,0.02-1H99.69z M99.73,133.84h-5.25
	c0-0.31-0.02-0.63-0.04-0.96h5.28C99.71,133.2,99.71,133.53,99.73,133.84z M106.95,146.18c0,0.22-0.02,0.44-0.02,0.65h-4.82
	c0.02-0.22,0.02-0.44,0.02-0.65H106.95z M106.97,140.55h-4.8v-0.89h4.77C106.97,139.94,106.97,140.25,106.97,140.55z M114.19,145.96
	v0.89h-4.88c0.02-0.28,0.02-0.59,0.04-0.89H114.19z M114.38,139.44v1.13h-5.04v-1.13H114.38z M114.4,126.6v1.02h-5.1
	c0-0.35,0-0.68-0.02-1.02H114.4z M114.43,132.99v1.22h-4.99c0.02-0.41,0.02-0.83,0.04-1.22H114.43z M114.43,132.99v1.22h-4.99
	c0.02-0.41,0.02-0.83,0.04-1.22H114.43z M114.38,139.44v1.13h-5.04v-1.13H114.38z M114.19,145.96v0.89h-4.88
	c0.02-0.28,0.02-0.59,0.04-0.89H114.19z M106.95,146.18c0,0.22-0.02,0.44-0.02,0.65h-4.82c0.02-0.22,0.02-0.44,0.02-0.65H106.95z
	 M106.97,140.55h-4.8v-0.89h4.77C106.97,139.94,106.97,140.25,106.97,140.55z M114.4,126.6v1.02h-5.1c0-0.35,0-0.68-0.02-1.02H114.4
	z M99.73,133.84h-5.25c0-0.31-0.02-0.63-0.04-0.96h5.28C99.71,133.2,99.71,133.53,99.73,133.84z M99.67,145.8v0.92h-4.95v-0.92
	H99.67z M99.62,114.37h-5.1c-0.04-0.24-0.07-0.48-0.09-0.7h5.15C99.6,113.89,99.6,114.13,99.62,114.37z M92.51,113.67
	c0,0.35,0,0.68-0.02,1h-5.08c-0.02-0.33-0.02-0.65-0.02-1H92.51z M92.51,132.94v1.11h-5.45v-1.11H92.51z M92.21,146.11
	c-0.02,0.31-0.02,0.59-0.02,0.89h-4.86c-0.02-0.31-0.02-0.59-0.02-0.89H92.21z M85.01,134.16H79.8v-1.29h5.17
	C84.97,133.31,84.99,133.73,85.01,134.16z M84.82,139.79c0,0.31,0,0.63-0.02,0.96H80c0-0.33-0.02-0.65-0.02-0.96H84.82z
	 M84.84,145.98c-0.02,0.28-0.02,0.59-0.02,0.89h-4.93c0.02-0.31,0.02-0.61,0.02-0.89H84.84z M77.62,132.94v1.24h-5.06
	c0-0.41-0.02-0.83-0.02-1.24H77.62z M77.41,139.59v1h-4.6c0-0.33-0.02-0.68-0.02-1H77.41z M77.41,145.83v0.87h-4.58v-0.87H77.41z
	 M63.08,140.62h-5.28v-0.83h5.25C63.08,140.05,63.08,140.33,63.08,140.62z M62.91,146.11v0.81h-5.12v-0.81H62.91z M62.89,153.02
	h-5.12c0-0.24,0-0.48-0.02-0.74h5.12C62.86,152.54,62.86,152.78,62.89,153.02z M55.67,152.37l-0.07,0.85h-5.04v-0.85H55.67z
	 M55.65,146.2v0.72h-4.6c0-0.24-0.02-0.48-0.02-0.72H55.65z M70.3,145.94v0.89h-4.88c0-0.31-0.02-0.59-0.02-0.89H70.3z M70.23,139.7
	v0.96h-4.88v-0.96H70.23z M77.45,126.73v1h-4.64v-1H77.45z M84.84,126.53v0.96h-4.97v-0.96H84.84z M84.77,120.23v0.83h-4.88v-0.83
	H84.77z M92.27,126.55v0.89H87.3v-0.89H92.27z M92.43,120.25v1.02h-5.1v-1.02H92.43z M99.62,120.12v0.94h-4.88
	c0-0.31,0-0.63-0.02-0.94H99.62z M99.69,126.51v1H94.5c0.02-0.35,0.02-0.68,0.02-1H99.69z M55.65,146.2v0.72h-4.6
	c0-0.24-0.02-0.48-0.02-0.72H55.65z M55.67,152.37l-0.07,0.85h-5.04v-0.85H55.67z M62.89,153.02h-5.12c0-0.24,0-0.48-0.02-0.74h5.12
	C62.86,152.54,62.86,152.78,62.89,153.02z M62.91,146.11v0.81h-5.12v-0.81H62.91z M63.08,140.62h-5.28v-0.83h5.25
	C63.08,140.05,63.08,140.33,63.08,140.62z M70.23,139.7v0.96h-4.88v-0.96H70.23z M70.3,145.94v0.89h-4.88
	c0-0.31-0.02-0.59-0.02-0.89H70.3z M70.34,152.32c-0.02,0.31-0.02,0.59-0.04,0.87h-4.99v-0.87H70.34z M77.41,139.59v1h-4.6
	c0-0.33-0.02-0.68-0.02-1H77.41z M77.41,145.83v0.87h-4.58v-0.87H77.41z M77.43,152.26v0.87h-4.6v-0.87H77.43z M77.45,126.73v1
	h-4.64v-1H77.45z M77.62,132.94v1.24h-5.06c0-0.41-0.02-0.83-0.02-1.24H77.62z M84.77,120.23v0.83h-4.88v-0.83H84.77z M84.82,139.79
	c0,0.31,0,0.63-0.02,0.96H80c0-0.33-0.02-0.65-0.02-0.96H84.82z M84.84,145.98c-0.02,0.28-0.02,0.59-0.02,0.89h-4.93
	c0.02-0.31,0.02-0.61,0.02-0.89H84.84z M84.84,126.53v0.96h-4.97v-0.96H84.84z M85.01,134.16H79.8v-1.29h5.17
	C84.97,133.31,84.99,133.73,85.01,134.16z M92.21,146.11c-0.02,0.31-0.02,0.59-0.02,0.89h-4.86c-0.02-0.31-0.02-0.59-0.02-0.89
	H92.21z M92.27,126.55v0.89H87.3v-0.89H92.27z M92.43,120.25v1.02h-5.1v-1.02H92.43z M92.51,113.67c0,0.35,0,0.68-0.02,1h-5.08
	c-0.02-0.33-0.02-0.65-0.02-1H92.51z M92.51,132.94v1.11h-5.45v-1.11H92.51z M99.62,114.37h-5.1c-0.04-0.24-0.07-0.48-0.09-0.7h5.15
	C99.6,113.89,99.6,114.13,99.62,114.37z M99.62,120.12v0.94h-4.88c0-0.31,0-0.63-0.02-0.94H99.62z M99.67,145.8v0.92h-4.95v-0.92
	H99.67z M99.69,126.51v1H94.5c0.02-0.35,0.02-0.68,0.02-1H99.69z M99.73,133.84h-5.25c0-0.31-0.02-0.63-0.04-0.96h5.28
	C99.71,133.2,99.71,133.53,99.73,133.84z M106.95,146.18c0,0.22-0.02,0.44-0.02,0.65h-4.82c0.02-0.22,0.02-0.44,0.02-0.65H106.95z
	 M106.97,140.55h-4.8v-0.89h4.77C106.97,139.94,106.97,140.25,106.97,140.55z M114.19,145.96v0.89h-4.88
	c0.02-0.28,0.02-0.59,0.04-0.89H114.19z M114.38,139.44v1.13h-5.04v-1.13H114.38z M114.4,126.6v1.02h-5.1c0-0.35,0-0.68-0.02-1.02
	H114.4z M114.43,132.99v1.22h-4.99c0.02-0.41,0.02-0.83,0.04-1.22H114.43z M114.43,132.99v1.22h-4.99c0.02-0.41,0.02-0.83,0.04-1.22
	H114.43z M114.38,139.44v1.13h-5.04v-1.13H114.38z M114.19,145.96v0.89h-4.88c0.02-0.28,0.02-0.59,0.04-0.89H114.19z M106.95,146.18
	c0,0.22-0.02,0.44-0.02,0.65h-4.82c0.02-0.22,0.02-0.44,0.02-0.65H106.95z M106.97,140.55h-4.8v-0.89h4.77
	C106.97,139.94,106.97,140.25,106.97,140.55z M114.4,126.6v1.02h-5.1c0-0.35,0-0.68-0.02-1.02H114.4z M99.73,133.84h-5.25
	c0-0.31-0.02-0.63-0.04-0.96h5.28C99.71,133.2,99.71,133.53,99.73,133.84z M99.67,145.8v0.92h-4.95v-0.92H99.67z M99.62,114.37h-5.1
	c-0.04-0.24-0.07-0.48-0.09-0.7h5.15C99.6,113.89,99.6,114.13,99.62,114.37z M92.51,113.67c0,0.35,0,0.68-0.02,1h-5.08
	c-0.02-0.33-0.02-0.65-0.02-1H92.51z M92.51,132.94v1.11h-5.45v-1.11H92.51z M92.21,146.11c-0.02,0.31-0.02,0.59-0.02,0.89h-4.86
	c-0.02-0.31-0.02-0.59-0.02-0.89H92.21z M85.01,134.16H79.8v-1.29h5.17C84.97,133.31,84.99,133.73,85.01,134.16z M84.82,139.79
	c0,0.31,0,0.63-0.02,0.96H80c0-0.33-0.02-0.65-0.02-0.96H84.82z M84.84,145.98c-0.02,0.28-0.02,0.59-0.02,0.89h-4.93
	c0.02-0.31,0.02-0.61,0.02-0.89H84.84z M77.62,132.94v1.24h-5.06c0-0.41-0.02-0.83-0.02-1.24H77.62z M77.43,152.26v0.87h-4.6v-0.87
	H77.43z M77.41,145.83v0.87h-4.58v-0.87H77.41z M77.41,139.59v1h-4.6c0-0.33-0.02-0.68-0.02-1H77.41z M70.34,152.32
	c-0.02,0.31-0.02,0.59-0.04,0.87h-4.99v-0.87H70.34z M63.08,140.62h-5.28v-0.83h5.25C63.08,140.05,63.08,140.33,63.08,140.62z
	 M62.91,146.11v0.81h-5.12v-0.81H62.91z M62.89,153.02h-5.12c0-0.24,0-0.48-0.02-0.74h5.12C62.86,152.54,62.86,152.78,62.89,153.02z
	 M55.67,152.37l-0.07,0.85h-5.04v-0.85H55.67z M55.65,146.2v0.72h-4.6c0-0.24-0.02-0.48-0.02-0.72H55.65z M70.3,145.94v0.89h-4.88
	c0-0.31-0.02-0.59-0.02-0.89H70.3z M70.23,139.7v0.96h-4.88v-0.96H70.23z M77.45,126.73v1h-4.64v-1H77.45z M84.84,126.53v0.96h-4.97
	v-0.96H84.84z M84.77,120.23v0.83h-4.88v-0.83H84.77z M92.27,126.55v0.89H87.3v-0.89H92.27z M92.43,120.25v1.02h-5.1v-1.02H92.43z
	 M99.62,120.12v0.94h-4.88c0-0.31,0-0.63-0.02-0.94H99.62z M99.69,126.51v1H94.5c0.02-0.35,0.02-0.68,0.02-1H99.69z M55.65,146.2
	v0.72h-4.6c0-0.24-0.02-0.48-0.02-0.72H55.65z M55.67,152.37l-0.07,0.85h-5.04v-0.85H55.67z M62.89,153.02h-5.12
	c0-0.24,0-0.48-0.02-0.74h5.12C62.86,152.54,62.86,152.78,62.89,153.02z M62.91,146.11v0.81h-5.12v-0.81H62.91z M63.08,140.62h-5.28
	v-0.83h5.25C63.08,140.05,63.08,140.33,63.08,140.62z M70.23,139.7v0.96h-4.88v-0.96H70.23z M70.3,145.94v0.89h-4.88
	c0-0.31-0.02-0.59-0.02-0.89H70.3z M70.34,152.32c-0.02,0.31-0.02,0.59-0.04,0.87h-4.99v-0.87H70.34z M77.41,139.59v1h-4.6
	c0-0.33-0.02-0.68-0.02-1H77.41z M77.41,145.83v0.87h-4.58v-0.87H77.41z M77.43,152.26v0.87h-4.6v-0.87H77.43z M77.45,126.73v1
	h-4.64v-1H77.45z M77.62,132.94v1.24h-5.06c0-0.41-0.02-0.83-0.02-1.24H77.62z M84.77,120.23v0.83h-4.88v-0.83H84.77z M84.82,139.79
	c0,0.31,0,0.63-0.02,0.96H80c0-0.33-0.02-0.65-0.02-0.96H84.82z M84.84,145.98c-0.02,0.28-0.02,0.59-0.02,0.89h-4.93
	c0.02-0.31,0.02-0.61,0.02-0.89H84.84z M84.84,126.53v0.96h-4.97v-0.96H84.84z M85.01,134.16H79.8v-1.29h5.17
	C84.97,133.31,84.99,133.73,85.01,134.16z M85.01,152.24v0.89h-5.06c0-0.31-0.02-0.59-0.04-0.89H85.01z M92.21,146.11
	c-0.02,0.31-0.02,0.59-0.02,0.89h-4.86c-0.02-0.31-0.02-0.59-0.02-0.89H92.21z M92.27,126.55v0.89H87.3v-0.89H92.27z M92.43,120.25
	v1.02h-5.1v-1.02H92.43z M92.43,152.21v0.92H87.3v-0.92H92.43z M92.51,113.67c0,0.35,0,0.68-0.02,1h-5.08
	c-0.02-0.33-0.02-0.65-0.02-1H92.51z M92.51,132.94v1.11h-5.45v-1.11H92.51z M99.62,114.37h-5.1c-0.04-0.24-0.07-0.48-0.09-0.7h5.15
	C99.6,113.89,99.6,114.13,99.62,114.37z M99.62,120.12v0.94h-4.88c0-0.31,0-0.63-0.02-0.94H99.62z M99.67,145.8v0.92h-4.95v-0.92
	H99.67z M99.69,126.51v1H94.5c0.02-0.35,0.02-0.68,0.02-1H99.69z M99.73,133.84h-5.25c0-0.31-0.02-0.63-0.04-0.96h5.28
	C99.71,133.2,99.71,133.53,99.73,133.84z M106.95,146.18c0,0.22-0.02,0.44-0.02,0.65h-4.82c0.02-0.22,0.02-0.44,0.02-0.65H106.95z
	 M106.97,140.55h-4.8v-0.89h4.77C106.97,139.94,106.97,140.25,106.97,140.55z M114.19,145.96v0.89h-4.88
	c0.02-0.28,0.02-0.59,0.04-0.89H114.19z M114.38,139.44v1.13h-5.04v-1.13H114.38z M114.4,126.6v1.02h-5.1c0-0.35,0-0.68-0.02-1.02
	H114.4z M114.43,132.99v1.22h-4.99c0.02-0.41,0.02-0.83,0.04-1.22H114.43z M114.43,132.99v1.22h-4.99c0.02-0.41,0.02-0.83,0.04-1.22
	H114.43z M114.38,139.44v1.13h-5.04v-1.13H114.38z M114.19,145.96v0.89h-4.88c0.02-0.28,0.02-0.59,0.04-0.89H114.19z M106.95,146.18
	c0,0.22-0.02,0.44-0.02,0.65h-4.82c0.02-0.22,0.02-0.44,0.02-0.65H106.95z M106.97,140.55h-4.8v-0.89h4.77
	C106.97,139.94,106.97,140.25,106.97,140.55z M114.4,126.6v1.02h-5.1c0-0.35,0-0.68-0.02-1.02H114.4z M99.73,133.84h-5.25
	c0-0.31-0.02-0.63-0.04-0.96h5.28C99.71,133.2,99.71,133.53,99.73,133.84z M99.67,145.8v0.92h-4.95v-0.92H99.67z M99.62,114.37h-5.1
	c-0.04-0.24-0.07-0.48-0.09-0.7h5.15C99.6,113.89,99.6,114.13,99.62,114.37z M92.51,113.67c0,0.35,0,0.68-0.02,1h-5.08
	c-0.02-0.33-0.02-0.65-0.02-1H92.51z M92.51,132.94v1.11h-5.45v-1.11H92.51z M92.21,146.11c-0.02,0.31-0.02,0.59-0.02,0.89h-4.86
	c-0.02-0.31-0.02-0.59-0.02-0.89H92.21z M92.43,152.21v0.92H87.3v-0.92H92.43z M85.01,134.16H79.8v-1.29h5.17
	C84.97,133.31,84.99,133.73,85.01,134.16z M84.82,139.79c0,0.31,0,0.63-0.02,0.96H80c0-0.33-0.02-0.65-0.02-0.96H84.82z
	 M84.84,145.98c-0.02,0.28-0.02,0.59-0.02,0.89h-4.93c0.02-0.31,0.02-0.61,0.02-0.89H84.84z M85.01,152.24v0.89h-5.06
	c0-0.31-0.02-0.59-0.04-0.89H85.01z M77.62,132.94v1.24h-5.06c0-0.41-0.02-0.83-0.02-1.24H77.62z M77.43,152.26v0.87h-4.6v-0.87
	H77.43z M77.41,145.83v0.87h-4.58v-0.87H77.41z M77.41,139.59v1h-4.6c0-0.33-0.02-0.68-0.02-1H77.41z M70.34,152.32
	c-0.02,0.31-0.02,0.59-0.04,0.87h-4.99v-0.87H70.34z M63.08,140.62h-5.28v-0.83h5.25C63.08,140.05,63.08,140.33,63.08,140.62z
	 M62.91,146.11v0.81h-5.12v-0.81H62.91z M62.89,153.02h-5.12c0-0.24,0-0.48-0.02-0.74h5.12C62.86,152.54,62.86,152.78,62.89,153.02z
	 M55.67,152.37l-0.07,0.85h-5.04v-0.85H55.67z M55.65,146.2v0.72h-4.6c0-0.24-0.02-0.48-0.02-0.72H55.65z M70.3,145.94v0.89h-4.88
	c0-0.31-0.02-0.59-0.02-0.89H70.3z M70.23,139.7v0.96h-4.88v-0.96H70.23z M77.45,126.73v1h-4.64v-1H77.45z M84.84,126.53v0.96h-4.97
	v-0.96H84.84z M84.77,120.23v0.83h-4.88v-0.83H84.77z M92.27,126.55v0.89H87.3v-0.89H92.27z M92.43,120.25v1.02h-5.1v-1.02H92.43z
	 M99.62,120.12v0.94h-4.88c0-0.31,0-0.63-0.02-0.94H99.62z M99.69,126.51v1H94.5c0.02-0.35,0.02-0.68,0.02-1H99.69z M55.65,146.2
	v0.72h-4.6c0-0.24-0.02-0.48-0.02-0.72H55.65z M55.67,152.37l-0.07,0.85h-5.04v-0.85H55.67z M62.89,153.02h-5.12
	c0-0.24,0-0.48-0.02-0.74h5.12C62.86,152.54,62.86,152.78,62.89,153.02z M62.91,146.11v0.81h-5.12v-0.81H62.91z M63.08,140.62h-5.28
	v-0.83h5.25C63.08,140.05,63.08,140.33,63.08,140.62z M70.23,139.7v0.96h-4.88v-0.96H70.23z M70.3,145.94v0.89h-4.88
	c0-0.31-0.02-0.59-0.02-0.89H70.3z M70.34,152.32c-0.02,0.31-0.02,0.59-0.04,0.87h-4.99v-0.87H70.34z M77.41,139.59v1h-4.6
	c0-0.33-0.02-0.68-0.02-1H77.41z M77.41,145.83v0.87h-4.58v-0.87H77.41z M77.43,152.26v0.87h-4.6v-0.87H77.43z M77.45,126.73v1
	h-4.64v-1H77.45z M77.62,132.94v1.24h-5.06c0-0.41-0.02-0.83-0.02-1.24H77.62z M84.77,120.23v0.83h-4.88v-0.83H84.77z M84.82,139.79
	c0,0.31,0,0.63-0.02,0.96H80c0-0.33-0.02-0.65-0.02-0.96H84.82z M84.84,145.98c-0.02,0.28-0.02,0.59-0.02,0.89h-4.93
	c0.02-0.31,0.02-0.61,0.02-0.89H84.84z M84.84,126.53v0.96h-4.97v-0.96H84.84z M85.01,134.16H79.8v-1.29h5.17
	C84.97,133.31,84.99,133.73,85.01,134.16z M85.01,152.24v0.89h-5.06c0-0.31-0.02-0.59-0.04-0.89H85.01z M92.21,146.11
	c-0.02,0.31-0.02,0.59-0.02,0.89h-4.86c-0.02-0.31-0.02-0.59-0.02-0.89H92.21z M92.27,126.55v0.89H87.3v-0.89H92.27z M92.43,120.25
	v1.02h-5.1v-1.02H92.43z M92.43,152.21v0.92H87.3v-0.92H92.43z M92.51,113.67c0,0.35,0,0.68-0.02,1h-5.08
	c-0.02-0.33-0.02-0.65-0.02-1H92.51z M92.51,132.94v1.11h-5.45v-1.11H92.51z M99.62,114.37h-5.1c-0.04-0.24-0.07-0.48-0.09-0.7h5.15
	C99.6,113.89,99.6,114.13,99.62,114.37z M99.62,120.12v0.94h-4.88c0-0.31,0-0.63-0.02-0.94H99.62z M99.67,145.8v0.92h-4.95v-0.92
	H99.67z M99.69,152.39c0,0.31-0.02,0.61-0.02,0.92h-5.04v-0.92H99.69z M99.69,126.51v1H94.5c0.02-0.35,0.02-0.68,0.02-1H99.69z
	 M99.73,133.84h-5.25c0-0.31-0.02-0.63-0.04-0.96h5.28C99.71,133.2,99.71,133.53,99.73,133.84z M106.95,146.18
	c0,0.22-0.02,0.44-0.02,0.65h-4.82c0.02-0.22,0.02-0.44,0.02-0.65H106.95z M106.97,140.55h-4.8v-0.89h4.77
	C106.97,139.94,106.97,140.25,106.97,140.55z M106.99,152.41c-0.02,0.31-0.02,0.59-0.02,0.89h-4.82c0-0.31,0-0.59-0.02-0.89H106.99z
	 M114.19,145.96v0.89h-4.88c0.02-0.28,0.02-0.59,0.04-0.89H114.19z M114.38,139.44v1.13h-5.04v-1.13H114.38z M114.4,126.6v1.02h-5.1
	c0-0.35,0-0.68-0.02-1.02H114.4z M114.43,132.99v1.22h-4.99c0.02-0.41,0.02-0.83,0.04-1.22H114.43z M114.43,132.99v1.22h-4.99
	c0.02-0.41,0.02-0.83,0.04-1.22H114.43z M114.38,139.44v1.13h-5.04v-1.13H114.38z M114.19,145.96v0.89h-4.88
	c0.02-0.28,0.02-0.59,0.04-0.89H114.19z M106.99,152.41c-0.02,0.31-0.02,0.59-0.02,0.89h-4.82c0-0.31,0-0.59-0.02-0.89H106.99z
	 M106.95,146.18c0,0.22-0.02,0.44-0.02,0.65h-4.82c0.02-0.22,0.02-0.44,0.02-0.65H106.95z M106.97,140.55h-4.8v-0.89h4.77
	C106.97,139.94,106.97,140.25,106.97,140.55z M114.4,126.6v1.02h-5.1c0-0.35,0-0.68-0.02-1.02H114.4z M99.73,133.84h-5.25
	c0-0.31-0.02-0.63-0.04-0.96h5.28C99.71,133.2,99.71,133.53,99.73,133.84z M99.67,145.8v0.92h-4.95v-0.92H99.67z M99.69,152.39
	c0,0.31-0.02,0.61-0.02,0.92h-5.04v-0.92H99.69z M99.62,114.37h-5.1c-0.04-0.24-0.07-0.48-0.09-0.7h5.15
	C99.6,113.89,99.6,114.13,99.62,114.37z M92.51,113.67c0,0.35,0,0.68-0.02,1h-5.08c-0.02-0.33-0.02-0.65-0.02-1H92.51z
	 M92.51,132.94v1.11h-5.45v-1.11H92.51z M92.21,146.11c-0.02,0.31-0.02,0.59-0.02,0.89h-4.86c-0.02-0.31-0.02-0.59-0.02-0.89H92.21z
	 M92.43,152.21v0.92H87.3v-0.92H92.43z M85.01,134.16H79.8v-1.29h5.17C84.97,133.31,84.99,133.73,85.01,134.16z M84.82,139.79
	c0,0.31,0,0.63-0.02,0.96H80c0-0.33-0.02-0.65-0.02-0.96H84.82z M84.84,145.98c-0.02,0.28-0.02,0.59-0.02,0.89h-4.93
	c0.02-0.31,0.02-0.61,0.02-0.89H84.84z M85.01,152.24v0.89h-5.06c0-0.31-0.02-0.59-0.04-0.89H85.01z M77.62,132.94v1.24h-5.06
	c0-0.41-0.02-0.83-0.02-1.24H77.62z M77.43,152.26v0.87h-4.6v-0.87H77.43z M77.41,145.83v0.87h-4.58v-0.87H77.41z M77.41,139.59v1
	h-4.6c0-0.33-0.02-0.68-0.02-1H77.41z M70.34,152.32c-0.02,0.31-0.02,0.59-0.04,0.87h-4.99v-0.87H70.34z M63.08,140.62h-5.28v-0.83
	h5.25C63.08,140.05,63.08,140.33,63.08,140.62z M62.91,146.11v0.81h-5.12v-0.81H62.91z M62.89,153.02h-5.12c0-0.24,0-0.48-0.02-0.74
	h5.12C62.86,152.54,62.86,152.78,62.89,153.02z M55.67,152.37l-0.07,0.85h-5.04v-0.85H55.67z M55.65,146.2v0.72h-4.6
	c0-0.24-0.02-0.48-0.02-0.72H55.65z M70.3,145.94v0.89h-4.88c0-0.31-0.02-0.59-0.02-0.89H70.3z M70.23,139.7v0.96h-4.88v-0.96H70.23
	z M77.45,126.73v1h-4.64v-1H77.45z M84.84,126.53v0.96h-4.97v-0.96H84.84z M84.77,120.23v0.83h-4.88v-0.83H84.77z M92.27,126.55
	v0.89H87.3v-0.89H92.27z M92.43,120.25v1.02h-5.1v-1.02H92.43z M99.62,120.12v0.94h-4.88c0-0.31,0-0.63-0.02-0.94H99.62z
	 M99.69,126.51v1H94.5c0.02-0.35,0.02-0.68,0.02-1H99.69z M128.16,122.24c0.72,25.53-11.75,38.98-27.47,52.72
	c-18.97,18.97-18.38,18.77-39.48-2.33c-7.39-7.39-14.28-15.41-20.6-23.76c-2.38-3.12-3.36-7.89-3.51-11.97
	c-0.44-11.21,0.07-22.46-0.11-33.68c-0.13-8.55-0.46-16.96,9.22-21.13c10.07-4.34,19.75-3.71,28.84,2.57
	c1.35,0.94,2.62,2.05,4.06,3.34c1.92,1.72,4.8,1.64,6.67-0.11c7.59-7,16.18-10.07,26.4-8.11c9.48,1.83,15.83,6.76,15.68,17.51
	C127.75,105.6,127.94,114.02,128.16,122.24z M93.63,106.3l0.04,2.44h6.89l-0.04-2.44H93.63z M93.69,125.68l-0.04,2.66h6.89
	l-0.02-2.66H93.69z M93.93,121.91h6.54v-2.64h-6.61L93.93,121.91z M86.48,122.11h6.78l0.02-2.68H86.5L86.48,122.11z M86.45,125.73
	l0.02,2.55h6.65l-0.02-2.55H86.45z M79.06,121.89h6.54v-2.49h-6.54V121.89z M79.02,128.32h6.65l0.02-2.62h-6.65L79.02,128.32z
	 M71.95,125.9l0.02,2.68h6.3l0.02-2.68H71.95z M64.52,141.49h6.54v-2.64h-6.54V141.49z M64.52,145.09l0.09,2.57h6.54v-2.57H64.52z
	 M50.17,145.35l0.04,2.4h6.28l-0.02-2.4H50.17z M56.56,151.52h-6.85l0.02,2.55h6.65L56.56,151.52z M63.71,151.45h-6.82l0.07,2.42
	h6.76V151.45z M63.76,147.75l-0.02-2.46h-6.8l0.02,2.46H63.76z M63.93,141.47l-0.04-2.53h-6.95l0.07,2.53H63.93z M71.21,151.5h-6.76
	v2.55h6.65L71.21,151.5z M78.26,141.44l-0.02-2.68h-6.32l0.09,2.68H78.26z M78.23,145H72v2.55h6.26L78.23,145z M78.28,151.41H72
	v2.57h6.28V151.41z M78.47,135.03l-0.02-2.92h-6.74v2.92H78.47z M85.86,153.98l-0.02-2.59h-6.8l0.11,2.59H85.86z M79.06,145.13v2.59
	h6.61v-2.59H79.06z M79.17,141.6h6.45l0.04-2.66h-6.54L79.17,141.6z M85.89,135.01l-0.11-2.99h-6.82l0.02,2.99H85.89z M93.28,153.96
	l-0.02-2.59h-6.8l0.02,2.59H93.28z M86.5,147.83h5.69l0.83-0.02l0.04-2.55h-6.61L86.5,147.83z M93.36,134.9l-0.02-2.79h-7.13
	l0.02,2.79H93.36z M93.39,112.84h-6.82v2.68h6.76L93.39,112.84z M93.5,112.82l0.26,2.4h5.86l0.87-0.04l-0.11-2.35H93.5z
	 M100.56,151.54h-6.78l0.02,2.59h6.67L100.56,151.54z M100.52,147.55v-2.57h-6.63v2.57H100.52z M100.58,134.69l-0.04-2.64h-6.98
	l0.11,2.64H100.58z M108.43,125.75l0.04,2.73h6.78l-0.02-2.73H108.43z M101.32,138.81l0.02,2.59h6.48l-0.02-2.59H101.32z
	 M101.26,147.66h6.48l0.09-2.33h-6.52L101.26,147.66z M107.84,151.56h-6.56l0.04,2.59h5.65l0.83-0.02L107.84,151.56z M108.43,147.7
	h6.58v-2.57h-6.48L108.43,147.7z M115.23,151.54h-6.78l0.02,2.62h6.72L115.23,151.54z M115.23,141.42l-0.02-2.81h-6.72v2.81H115.23z
	 M115.28,132.13h-6.61l-0.11,2.9h6.69L115.28,132.13z M114.43,134.21h-4.99c0.02-0.41,0.02-0.83,0.04-1.22h4.95V134.21z
	 M109.3,127.62c0-0.35,0-0.68-0.02-1.02h5.12v1.02H109.3z M109.35,139.44h5.04v1.13h-5.04V139.44z M114.36,153.3h-5.06v-0.92h5.08
	C114.38,152.69,114.38,153,114.36,153.3z M109.35,145.96h4.84v0.89h-4.88C109.32,146.57,109.32,146.26,109.35,145.96z M102.15,153.3
	c0-0.31,0-0.59-0.02-0.89h4.86c-0.02,0.31-0.02,0.59-0.02,0.89H102.15z M106.97,140.55h-4.8v-0.89h4.77
	C106.97,139.94,106.97,140.25,106.97,140.55z M102.13,146.18h4.82c0,0.22-0.02,0.44-0.02,0.65h-4.82
	C102.13,146.61,102.13,146.39,102.13,146.18z M99.71,132.88c0,0.33,0,0.65,0.02,0.96h-5.25c0-0.31-0.02-0.63-0.04-0.96H99.71z
	 M99.69,127.51H94.5c0.02-0.35,0.02-0.68,0.02-1h5.17V127.51z M99.67,153.3h-5.04v-0.92h5.06C99.69,152.69,99.67,153,99.67,153.3z
	 M94.72,145.8h4.95v0.92h-4.95V145.8z M94.72,120.12h4.91v0.94h-4.88C94.74,120.75,94.74,120.43,94.72,120.12z M94.52,114.37
	c-0.04-0.24-0.07-0.48-0.09-0.7h5.15c0.02,0.22,0.02,0.46,0.04,0.7H94.52z M87.06,132.94h5.45v1.11h-5.45V132.94z M87.41,114.67
	c-0.02-0.33-0.02-0.65-0.02-1h5.12c0,0.35,0,0.68-0.02,1H87.41z M87.3,152.21h5.12v0.92H87.3V152.21z M87.33,120.25h5.1v1.02h-5.1
	V120.25z M92.27,127.45H87.3v-0.89h4.97V127.45z M92.19,147h-4.86c-0.02-0.31-0.02-0.59-0.02-0.89h4.91
	C92.19,146.42,92.19,146.7,92.19,147z M79.91,152.24h5.1v0.89h-5.06C79.96,152.83,79.93,152.54,79.91,152.24z M84.97,132.88
	c0,0.44,0.02,0.85,0.04,1.29H79.8v-1.29H84.97z M79.87,126.53h4.97v0.96h-4.97V126.53z M84.82,146.87h-4.93
	c0.02-0.31,0.02-0.61,0.02-0.89h4.93C84.82,146.26,84.82,146.57,84.82,146.87z M79.98,139.79h4.84c0,0.31,0,0.63-0.02,0.96H80
	C80,140.42,79.98,140.09,79.98,139.79z M79.89,120.23h4.88v0.83h-4.88V120.23z M72.54,132.94h5.08v1.24h-5.06
	C72.57,133.77,72.54,133.36,72.54,132.94z M77.45,127.73h-4.64v-1h4.64V127.73z M77.43,153.13h-4.6v-0.87h4.6V153.13z M77.41,146.7
	h-4.58v-0.87h4.58V146.7z M72.78,139.59h4.62v1h-4.6C72.81,140.27,72.78,139.92,72.78,139.59z M70.3,153.2h-4.99v-0.87h5.04
	C70.32,152.63,70.32,152.91,70.3,153.2z M65.41,146.83c0-0.31-0.02-0.59-0.02-0.89h4.91v0.89H65.41z M65.35,139.7h4.88v0.96h-4.88
	V139.7z M63.06,139.79c0.02,0.26,0.02,0.55,0.02,0.83h-5.28v-0.83H63.06z M57.78,146.11h5.12v0.81h-5.12V146.11z M57.76,153.02
	c0-0.24,0-0.48-0.02-0.74h5.12c0,0.26,0,0.5,0.02,0.74H57.76z M55.6,153.22h-5.04v-0.85h5.1L55.6,153.22z M51.05,146.92
	c0-0.24-0.02-0.48-0.02-0.72h4.62v0.72H51.05z M99.69,126.51v1H94.5c0.02-0.35,0.02-0.68,0.02-1H99.69z M99.62,120.12v0.94h-4.88
	c0-0.31,0-0.63-0.02-0.94H99.62z M92.43,120.25v1.02h-5.1v-1.02H92.43z M92.27,126.55v0.89H87.3v-0.89H92.27z M84.77,120.23v0.83
	h-4.88v-0.83H84.77z M84.84,126.53v0.96h-4.97v-0.96H84.84z M77.45,126.73v1h-4.64v-1H77.45z M70.23,139.7v0.96h-4.88v-0.96H70.23z
	 M70.3,145.94v0.89h-4.88c0-0.31-0.02-0.59-0.02-0.89H70.3z M55.65,146.2v0.72h-4.6c0-0.24-0.02-0.48-0.02-0.72H55.65z
	 M55.67,152.37l-0.07,0.85h-5.04v-0.85H55.67z M62.89,153.02h-5.12c0-0.24,0-0.48-0.02-0.74h5.12
	C62.86,152.54,62.86,152.78,62.89,153.02z M62.91,146.11v0.81h-5.12v-0.81H62.91z M63.08,140.62h-5.28v-0.83h5.25
	C63.08,140.05,63.08,140.33,63.08,140.62z M70.34,152.32c-0.02,0.31-0.02,0.59-0.04,0.87h-4.99v-0.87H70.34z M77.41,139.59v1h-4.6
	c0-0.33-0.02-0.68-0.02-1H77.41z M77.41,145.83v0.87h-4.58v-0.87H77.41z M77.43,152.26v0.87h-4.6v-0.87H77.43z M77.62,132.94v1.24
	h-5.06c0-0.41-0.02-0.83-0.02-1.24H77.62z M85.01,152.24v0.89h-5.06c0-0.31-0.02-0.59-0.04-0.89H85.01z M84.84,145.98
	c-0.02,0.28-0.02,0.59-0.02,0.89h-4.93c0.02-0.31,0.02-0.61,0.02-0.89H84.84z M84.82,139.79c0,0.31,0,0.63-0.02,0.96H80
	c0-0.33-0.02-0.65-0.02-0.96H84.82z M85.01,134.16H79.8v-1.29h5.17C84.97,133.31,84.99,133.73,85.01,134.16z M92.43,152.21v0.92
	H87.3v-0.92H92.43z M92.21,146.11c-0.02,0.31-0.02,0.59-0.02,0.89h-4.86c-0.02-0.31-0.02-0.59-0.02-0.89H92.21z M92.51,132.94v1.11
	h-5.45v-1.11H92.51z M92.51,113.67c0,0.35,0,0.68-0.02,1h-5.08c-0.02-0.33-0.02-0.65-0.02-1H92.51z M99.62,114.37h-5.1
	c-0.04-0.24-0.07-0.48-0.09-0.7h5.15C99.6,113.89,99.6,114.13,99.62,114.37z M99.69,152.39c0,0.31-0.02,0.61-0.02,0.92h-5.04v-0.92
	H99.69z M99.67,145.8v0.92h-4.95v-0.92H99.67z M99.73,133.84h-5.25c0-0.31-0.02-0.63-0.04-0.96h5.28
	C99.71,133.2,99.71,133.53,99.73,133.84z M114.4,126.6v1.02h-5.1c0-0.35,0-0.68-0.02-1.02H114.4z M106.97,140.55h-4.8v-0.89h4.77
	C106.97,139.94,106.97,140.25,106.97,140.55z M106.95,146.18c0,0.22-0.02,0.44-0.02,0.65h-4.82c0.02-0.22,0.02-0.44,0.02-0.65
	H106.95z M114.19,145.96v0.89h-4.88c0.02-0.28,0.02-0.59,0.04-0.89H114.19z M114.38,139.44v1.13h-5.04v-1.13H114.38z M114.43,132.99
	v1.22h-4.99c0.02-0.41,0.02-0.83,0.04-1.22H114.43z M114.43,132.99v1.22h-4.99c0.02-0.41,0.02-0.83,0.04-1.22H114.43z M114.4,126.6
	v1.02h-5.1c0-0.35,0-0.68-0.02-1.02H114.4z M114.38,139.44v1.13h-5.04v-1.13H114.38z M114.19,145.96v0.89h-4.88
	c0.02-0.28,0.02-0.59,0.04-0.89H114.19z M106.97,140.55h-4.8v-0.89h4.77C106.97,139.94,106.97,140.25,106.97,140.55z M106.95,146.18
	c0,0.22-0.02,0.44-0.02,0.65h-4.82c0.02-0.22,0.02-0.44,0.02-0.65H106.95z M99.73,133.84h-5.25c0-0.31-0.02-0.63-0.04-0.96h5.28
	C99.71,133.2,99.71,133.53,99.73,133.84z M99.69,126.51v1H94.5c0.02-0.35,0.02-0.68,0.02-1H99.69z M99.69,152.39
	c0,0.31-0.02,0.61-0.02,0.92h-5.04v-0.92H99.69z M99.67,145.8v0.92h-4.95v-0.92H99.67z M99.62,120.12v0.94h-4.88
	c0-0.31,0-0.63-0.02-0.94H99.62z M99.62,114.37h-5.1c-0.04-0.24-0.07-0.48-0.09-0.7h5.15C99.6,113.89,99.6,114.13,99.62,114.37z
	 M92.51,132.94v1.11h-5.45v-1.11H92.51z M92.51,113.67c0,0.35,0,0.68-0.02,1h-5.08c-0.02-0.33-0.02-0.65-0.02-1H92.51z
	 M92.43,152.21v0.92H87.3v-0.92H92.43z M92.43,120.25v1.02h-5.1v-1.02H92.43z M92.27,126.55v0.89H87.3v-0.89H92.27z M92.21,146.11
	c-0.02,0.31-0.02,0.59-0.02,0.89h-4.86c-0.02-0.31-0.02-0.59-0.02-0.89H92.21z M85.01,152.24v0.89h-5.06c0-0.31-0.02-0.59-0.04-0.89
	H85.01z M85.01,134.16H79.8v-1.29h5.17C84.97,133.31,84.99,133.73,85.01,134.16z M84.84,126.53v0.96h-4.97v-0.96H84.84z
	 M84.84,145.98c-0.02,0.28-0.02,0.59-0.02,0.89h-4.93c0.02-0.31,0.02-0.61,0.02-0.89H84.84z M84.82,139.79c0,0.31,0,0.63-0.02,0.96
	H80c0-0.33-0.02-0.65-0.02-0.96H84.82z M84.77,120.23v0.83h-4.88v-0.83H84.77z M77.62,132.94v1.24h-5.06c0-0.41-0.02-0.83-0.02-1.24
	H77.62z M77.45,126.73v1h-4.64v-1H77.45z M77.43,152.26v0.87h-4.6v-0.87H77.43z M77.41,145.83v0.87h-4.58v-0.87H77.41z
	 M77.41,139.59v1h-4.6c0-0.33-0.02-0.68-0.02-1H77.41z M70.34,152.32c-0.02,0.31-0.02,0.59-0.04,0.87h-4.99v-0.87H70.34z
	 M70.3,145.94v0.89h-4.88c0-0.31-0.02-0.59-0.02-0.89H70.3z M70.23,139.7v0.96h-4.88v-0.96H70.23z M63.08,140.62h-5.28v-0.83h5.25
	C63.08,140.05,63.08,140.33,63.08,140.62z M62.91,146.11v0.81h-5.12v-0.81H62.91z M62.89,153.02h-5.12c0-0.24,0-0.48-0.02-0.74h5.12
	C62.86,152.54,62.86,152.78,62.89,153.02z M55.67,152.37l-0.07,0.85h-5.04v-0.85H55.67z M55.65,146.2v0.72h-4.6
	c0-0.24-0.02-0.48-0.02-0.72H55.65z M99.69,126.51v1H94.5c0.02-0.35,0.02-0.68,0.02-1H99.69z M99.62,120.12v0.94h-4.88
	c0-0.31,0-0.63-0.02-0.94H99.62z M92.43,120.25v1.02h-5.1v-1.02H92.43z M92.27,126.55v0.89H87.3v-0.89H92.27z M84.77,120.23v0.83
	h-4.88v-0.83H84.77z M84.84,126.53v0.96h-4.97v-0.96H84.84z M77.45,126.73v1h-4.64v-1H77.45z M70.23,139.7v0.96h-4.88v-0.96H70.23z
	 M70.3,145.94v0.89h-4.88c0-0.31-0.02-0.59-0.02-0.89H70.3z M55.65,146.2v0.72h-4.6c0-0.24-0.02-0.48-0.02-0.72H55.65z
	 M55.67,152.37l-0.07,0.85h-5.04v-0.85H55.67z M62.89,153.02h-5.12c0-0.24,0-0.48-0.02-0.74h5.12
	C62.86,152.54,62.86,152.78,62.89,153.02z M62.91,146.11v0.81h-5.12v-0.81H62.91z M63.08,140.62h-5.28v-0.83h5.25
	C63.08,140.05,63.08,140.33,63.08,140.62z M70.34,152.32c-0.02,0.31-0.02,0.59-0.04,0.87h-4.99v-0.87H70.34z M77.41,139.59v1h-4.6
	c0-0.33-0.02-0.68-0.02-1H77.41z M77.41,145.83v0.87h-4.58v-0.87H77.41z M77.43,152.26v0.87h-4.6v-0.87H77.43z M77.62,132.94v1.24
	h-5.06c0-0.41-0.02-0.83-0.02-1.24H77.62z M85.01,152.24v0.89h-5.06c0-0.31-0.02-0.59-0.04-0.89H85.01z M84.84,145.98
	c-0.02,0.28-0.02,0.59-0.02,0.89h-4.93c0.02-0.31,0.02-0.61,0.02-0.89H84.84z M84.82,139.79c0,0.31,0,0.63-0.02,0.96H80
	c0-0.33-0.02-0.65-0.02-0.96H84.82z M85.01,134.16H79.8v-1.29h5.17C84.97,133.31,84.99,133.73,85.01,134.16z M92.21,146.11
	c-0.02,0.31-0.02,0.59-0.02,0.89h-4.86c-0.02-0.31-0.02-0.59-0.02-0.89H92.21z M92.51,132.94v1.11h-5.45v-1.11H92.51z M92.51,113.67
	c0,0.35,0,0.68-0.02,1h-5.08c-0.02-0.33-0.02-0.65-0.02-1H92.51z M99.62,114.37h-5.1c-0.04-0.24-0.07-0.48-0.09-0.7h5.15
	C99.6,113.89,99.6,114.13,99.62,114.37z M99.67,145.8v0.92h-4.95v-0.92H99.67z M99.73,133.84h-5.25c0-0.31-0.02-0.63-0.04-0.96h5.28
	C99.71,133.2,99.71,133.53,99.73,133.84z M114.4,126.6v1.02h-5.1c0-0.35,0-0.68-0.02-1.02H114.4z M106.97,140.55h-4.8v-0.89h4.77
	C106.97,139.94,106.97,140.25,106.97,140.55z M106.95,146.18c0,0.22-0.02,0.44-0.02,0.65h-4.82c0.02-0.22,0.02-0.44,0.02-0.65
	H106.95z M114.19,145.96v0.89h-4.88c0.02-0.28,0.02-0.59,0.04-0.89H114.19z M114.38,139.44v1.13h-5.04v-1.13H114.38z M114.43,132.99
	v1.22h-4.99c0.02-0.41,0.02-0.83,0.04-1.22H114.43z M114.43,132.99v1.22h-4.99c0.02-0.41,0.02-0.83,0.04-1.22H114.43z M114.4,126.6
	v1.02h-5.1c0-0.35,0-0.68-0.02-1.02H114.4z M114.38,139.44v1.13h-5.04v-1.13H114.38z M114.19,145.96v0.89h-4.88
	c0.02-0.28,0.02-0.59,0.04-0.89H114.19z M106.97,140.55h-4.8v-0.89h4.77C106.97,139.94,106.97,140.25,106.97,140.55z M106.95,146.18
	c0,0.22-0.02,0.44-0.02,0.65h-4.82c0.02-0.22,0.02-0.44,0.02-0.65H106.95z M99.73,133.84h-5.25c0-0.31-0.02-0.63-0.04-0.96h5.28
	C99.71,133.2,99.71,133.53,99.73,133.84z M99.69,126.51v1H94.5c0.02-0.35,0.02-0.68,0.02-1H99.69z M99.67,145.8v0.92h-4.95v-0.92
	H99.67z M99.62,120.12v0.94h-4.88c0-0.31,0-0.63-0.02-0.94H99.62z M99.62,114.37h-5.1c-0.04-0.24-0.07-0.48-0.09-0.7h5.15
	C99.6,113.89,99.6,114.13,99.62,114.37z M92.51,132.94v1.11h-5.45v-1.11H92.51z M92.51,113.67c0,0.35,0,0.68-0.02,1h-5.08
	c-0.02-0.33-0.02-0.65-0.02-1H92.51z M92.43,120.25v1.02h-5.1v-1.02H92.43z M92.27,126.55v0.89H87.3v-0.89H92.27z M92.21,146.11
	c-0.02,0.31-0.02,0.59-0.02,0.89h-4.86c-0.02-0.31-0.02-0.59-0.02-0.89H92.21z M85.01,152.24v0.89h-5.06c0-0.31-0.02-0.59-0.04-0.89
	H85.01z M85.01,134.16H79.8v-1.29h5.17C84.97,133.31,84.99,133.73,85.01,134.16z M84.84,126.53v0.96h-4.97v-0.96H84.84z
	 M84.84,145.98c-0.02,0.28-0.02,0.59-0.02,0.89h-4.93c0.02-0.31,0.02-0.61,0.02-0.89H84.84z M84.82,139.79c0,0.31,0,0.63-0.02,0.96
	H80c0-0.33-0.02-0.65-0.02-0.96H84.82z M84.77,120.23v0.83h-4.88v-0.83H84.77z M77.62,132.94v1.24h-5.06c0-0.41-0.02-0.83-0.02-1.24
	H77.62z M77.45,126.73v1h-4.64v-1H77.45z M77.43,152.26v0.87h-4.6v-0.87H77.43z M77.41,145.83v0.87h-4.58v-0.87H77.41z
	 M77.41,139.59v1h-4.6c0-0.33-0.02-0.68-0.02-1H77.41z M70.34,152.32c-0.02,0.31-0.02,0.59-0.04,0.87h-4.99v-0.87H70.34z
	 M70.3,145.94v0.89h-4.88c0-0.31-0.02-0.59-0.02-0.89H70.3z M70.23,139.7v0.96h-4.88v-0.96H70.23z M63.08,140.62h-5.28v-0.83h5.25
	C63.08,140.05,63.08,140.33,63.08,140.62z M62.91,146.11v0.81h-5.12v-0.81H62.91z M62.89,153.02h-5.12c0-0.24,0-0.48-0.02-0.74h5.12
	C62.86,152.54,62.86,152.78,62.89,153.02z M55.67,152.37l-0.07,0.85h-5.04v-0.85H55.67z M55.65,146.2v0.72h-4.6
	c0-0.24-0.02-0.48-0.02-0.72H55.65z M99.69,126.51v1H94.5c0.02-0.35,0.02-0.68,0.02-1H99.69z M99.62,120.12v0.94h-4.88
	c0-0.31,0-0.63-0.02-0.94H99.62z M92.43,120.25v1.02h-5.1v-1.02H92.43z M92.27,126.55v0.89H87.3v-0.89H92.27z M84.77,120.23v0.83
	h-4.88v-0.83H84.77z M84.84,126.53v0.96h-4.97v-0.96H84.84z M77.45,126.73v1h-4.64v-1H77.45z M70.23,139.7v0.96h-4.88v-0.96H70.23z
	 M70.3,145.94v0.89h-4.88c0-0.31-0.02-0.59-0.02-0.89H70.3z M55.65,146.2v0.72h-4.6c0-0.24-0.02-0.48-0.02-0.72H55.65z
	 M55.67,152.37l-0.07,0.85h-5.04v-0.85H55.67z M62.89,153.02h-5.12c0-0.24,0-0.48-0.02-0.74h5.12
	C62.86,152.54,62.86,152.78,62.89,153.02z M62.91,146.11v0.81h-5.12v-0.81H62.91z M63.08,140.62h-5.28v-0.83h5.25
	C63.08,140.05,63.08,140.33,63.08,140.62z M70.34,152.32c-0.02,0.31-0.02,0.59-0.04,0.87h-4.99v-0.87H70.34z M77.41,145.83v0.87
	h-4.58v-0.87H77.41z M77.41,139.59v1h-4.6c0-0.33-0.02-0.68-0.02-1H77.41z M77.62,132.94v1.24h-5.06c0-0.41-0.02-0.83-0.02-1.24
	H77.62z M84.84,145.98c-0.02,0.28-0.02,0.59-0.02,0.89h-4.93c0.02-0.31,0.02-0.61,0.02-0.89H84.84z M84.82,139.79
	c0,0.31,0,0.63-0.02,0.96H80c0-0.33-0.02-0.65-0.02-0.96H84.82z M85.01,134.16H79.8v-1.29h5.17
	C84.97,133.31,84.99,133.73,85.01,134.16z M92.21,146.11c-0.02,0.31-0.02,0.59-0.02,0.89h-4.86c-0.02-0.31-0.02-0.59-0.02-0.89
	H92.21z M92.51,132.94v1.11h-5.45v-1.11H92.51z M92.51,113.67c0,0.35,0,0.68-0.02,1h-5.08c-0.02-0.33-0.02-0.65-0.02-1H92.51z
	 M99.62,114.37h-5.1c-0.04-0.24-0.07-0.48-0.09-0.7h5.15C99.6,113.89,99.6,114.13,99.62,114.37z M99.67,145.8v0.92h-4.95v-0.92
	H99.67z M99.73,133.84h-5.25c0-0.31-0.02-0.63-0.04-0.96h5.28C99.71,133.2,99.71,133.53,99.73,133.84z M114.4,126.6v1.02h-5.1
	c0-0.35,0-0.68-0.02-1.02H114.4z M106.97,140.55h-4.8v-0.89h4.77C106.97,139.94,106.97,140.25,106.97,140.55z M106.95,146.18
	c0,0.22-0.02,0.44-0.02,0.65h-4.82c0.02-0.22,0.02-0.44,0.02-0.65H106.95z M114.19,145.96v0.89h-4.88c0.02-0.28,0.02-0.59,0.04-0.89
	H114.19z M114.38,139.44v1.13h-5.04v-1.13H114.38z M114.43,132.99v1.22h-4.99c0.02-0.41,0.02-0.83,0.04-1.22H114.43z M114.43,132.99
	v1.22h-4.99c0.02-0.41,0.02-0.83,0.04-1.22H114.43z M114.4,126.6v1.02h-5.1c0-0.35,0-0.68-0.02-1.02H114.4z M114.38,139.44v1.13
	h-5.04v-1.13H114.38z M114.19,145.96v0.89h-4.88c0.02-0.28,0.02-0.59,0.04-0.89H114.19z M106.97,140.55h-4.8v-0.89h4.77
	C106.97,139.94,106.97,140.25,106.97,140.55z M106.95,146.18c0,0.22-0.02,0.44-0.02,0.65h-4.82c0.02-0.22,0.02-0.44,0.02-0.65
	H106.95z M99.73,133.84h-5.25c0-0.31-0.02-0.63-0.04-0.96h5.28C99.71,133.2,99.71,133.53,99.73,133.84z M99.69,126.51v1H94.5
	c0.02-0.35,0.02-0.68,0.02-1H99.69z M99.67,145.8v0.92h-4.95v-0.92H99.67z M99.62,120.12v0.94h-4.88c0-0.31,0-0.63-0.02-0.94H99.62z
	 M99.62,114.37h-5.1c-0.04-0.24-0.07-0.48-0.09-0.7h5.15C99.6,113.89,99.6,114.13,99.62,114.37z M92.51,132.94v1.11h-5.45v-1.11
	H92.51z M92.51,113.67c0,0.35,0,0.68-0.02,1h-5.08c-0.02-0.33-0.02-0.65-0.02-1H92.51z M92.43,120.25v1.02h-5.1v-1.02H92.43z
	 M92.27,126.55v0.89H87.3v-0.89H92.27z M92.21,146.11c-0.02,0.31-0.02,0.59-0.02,0.89h-4.86c-0.02-0.31-0.02-0.59-0.02-0.89H92.21z
	 M85.01,134.16H79.8v-1.29h5.17C84.97,133.31,84.99,133.73,85.01,134.16z M84.84,126.53v0.96h-4.97v-0.96H84.84z M84.84,145.98
	c-0.02,0.28-0.02,0.59-0.02,0.89h-4.93c0.02-0.31,0.02-0.61,0.02-0.89H84.84z M84.82,139.79c0,0.31,0,0.63-0.02,0.96H80
	c0-0.33-0.02-0.65-0.02-0.96H84.82z M84.77,120.23v0.83h-4.88v-0.83H84.77z M77.62,132.94v1.24h-5.06c0-0.41-0.02-0.83-0.02-1.24
	H77.62z M77.45,126.73v1h-4.64v-1H77.45z M77.41,145.83v0.87h-4.58v-0.87H77.41z M77.41,139.59v1h-4.6c0-0.33-0.02-0.68-0.02-1
	H77.41z M70.34,152.32c-0.02,0.31-0.02,0.59-0.04,0.87h-4.99v-0.87H70.34z M70.3,145.94v0.89h-4.88c0-0.31-0.02-0.59-0.02-0.89H70.3
	z M70.23,139.7v0.96h-4.88v-0.96H70.23z M63.08,140.62h-5.28v-0.83h5.25C63.08,140.05,63.08,140.33,63.08,140.62z M62.91,146.11
	v0.81h-5.12v-0.81H62.91z M62.89,153.02h-5.12c0-0.24,0-0.48-0.02-0.74h5.12C62.86,152.54,62.86,152.78,62.89,153.02z M55.67,152.37
	l-0.07,0.85h-5.04v-0.85H55.67z M55.65,146.2v0.72h-4.6c0-0.24-0.02-0.48-0.02-0.72H55.65z M99.69,126.51v1H94.5
	c0.02-0.35,0.02-0.68,0.02-1H99.69z M99.62,120.12v0.94h-4.88c0-0.31,0-0.63-0.02-0.94H99.62z M92.43,120.25v1.02h-5.1v-1.02H92.43z
	 M92.27,126.55v0.89H87.3v-0.89H92.27z M84.77,120.23v0.83h-4.88v-0.83H84.77z M84.84,126.53v0.96h-4.97v-0.96H84.84z M77.45,126.73
	v1h-4.64v-1H77.45z M70.23,139.7v0.96h-4.88v-0.96H70.23z M70.3,145.94v0.89h-4.88c0-0.31-0.02-0.59-0.02-0.89H70.3z M55.65,146.2
	v0.72h-4.6c0-0.24-0.02-0.48-0.02-0.72H55.65z M55.67,152.37l-0.07,0.85h-5.04v-0.85H55.67z M62.91,146.11v0.81h-5.12v-0.81H62.91z
	 M63.08,140.62h-5.28v-0.83h5.25C63.08,140.05,63.08,140.33,63.08,140.62z M77.41,145.83v0.87h-4.58v-0.87H77.41z M77.41,139.59v1
	h-4.6c0-0.33-0.02-0.68-0.02-1H77.41z M77.62,132.94v1.24h-5.06c0-0.41-0.02-0.83-0.02-1.24H77.62z M84.84,145.98
	c-0.02,0.28-0.02,0.59-0.02,0.89h-4.93c0.02-0.31,0.02-0.61,0.02-0.89H84.84z M84.82,139.79c0,0.31,0,0.63-0.02,0.96H80
	c0-0.33-0.02-0.65-0.02-0.96H84.82z M85.01,134.16H79.8v-1.29h5.17C84.97,133.31,84.99,133.73,85.01,134.16z M92.21,146.11
	c-0.02,0.31-0.02,0.59-0.02,0.89h-4.86c-0.02-0.31-0.02-0.59-0.02-0.89H92.21z M92.51,132.94v1.11h-5.45v-1.11H92.51z M92.51,113.67
	c0,0.35,0,0.68-0.02,1h-5.08c-0.02-0.33-0.02-0.65-0.02-1H92.51z M99.62,114.37h-5.1c-0.04-0.24-0.07-0.48-0.09-0.7h5.15
	C99.6,113.89,99.6,114.13,99.62,114.37z M99.67,145.8v0.92h-4.95v-0.92H99.67z M99.73,133.84h-5.25c0-0.31-0.02-0.63-0.04-0.96h5.28
	C99.71,133.2,99.71,133.53,99.73,133.84z M114.4,126.6v1.02h-5.1c0-0.35,0-0.68-0.02-1.02H114.4z M106.97,140.55h-4.8v-0.89h4.77
	C106.97,139.94,106.97,140.25,106.97,140.55z M106.95,146.18c0,0.22-0.02,0.44-0.02,0.65h-4.82c0.02-0.22,0.02-0.44,0.02-0.65
	H106.95z M114.19,145.96v0.89h-4.88c0.02-0.28,0.02-0.59,0.04-0.89H114.19z M114.38,139.44v1.13h-5.04v-1.13H114.38z M114.43,132.99
	v1.22h-4.99c0.02-0.41,0.02-0.83,0.04-1.22H114.43z M114.43,132.99v1.22h-4.99c0.02-0.41,0.02-0.83,0.04-1.22H114.43z M114.4,126.6
	v1.02h-5.1c0-0.35,0-0.68-0.02-1.02H114.4z M114.38,139.44v1.13h-5.04v-1.13H114.38z M114.19,145.96v0.89h-4.88
	c0.02-0.28,0.02-0.59,0.04-0.89H114.19z M106.97,140.55h-4.8v-0.89h4.77C106.97,139.94,106.97,140.25,106.97,140.55z M106.95,146.18
	c0,0.22-0.02,0.44-0.02,0.65h-4.82c0.02-0.22,0.02-0.44,0.02-0.65H106.95z M99.73,133.84h-5.25c0-0.31-0.02-0.63-0.04-0.96h5.28
	C99.71,133.2,99.71,133.53,99.73,133.84z M99.69,126.51v1H94.5c0.02-0.35,0.02-0.68,0.02-1H99.69z M99.67,145.8v0.92h-4.95v-0.92
	H99.67z M99.62,120.12v0.94h-4.88c0-0.31,0-0.63-0.02-0.94H99.62z M99.62,114.37h-5.1c-0.04-0.24-0.07-0.48-0.09-0.7h5.15
	C99.6,113.89,99.6,114.13,99.62,114.37z M92.51,132.94v1.11h-5.45v-1.11H92.51z M92.51,113.67c0,0.35,0,0.68-0.02,1h-5.08
	c-0.02-0.33-0.02-0.65-0.02-1H92.51z M92.43,120.25v1.02h-5.1v-1.02H92.43z M92.27,126.55v0.89H87.3v-0.89H92.27z M92.21,146.11
	c-0.02,0.31-0.02,0.59-0.02,0.89h-4.86c-0.02-0.31-0.02-0.59-0.02-0.89H92.21z M85.01,134.16H79.8v-1.29h5.17
	C84.97,133.31,84.99,133.73,85.01,134.16z M84.84,126.53v0.96h-4.97v-0.96H84.84z M84.84,145.98c-0.02,0.28-0.02,0.59-0.02,0.89
	h-4.93c0.02-0.31,0.02-0.61,0.02-0.89H84.84z M84.82,139.79c0,0.31,0,0.63-0.02,0.96H80c0-0.33-0.02-0.65-0.02-0.96H84.82z
	 M84.77,120.23v0.83h-4.88v-0.83H84.77z M77.62,132.94v1.24h-5.06c0-0.41-0.02-0.83-0.02-1.24H77.62z M77.45,126.73v1h-4.64v-1
	H77.45z M77.41,145.83v0.87h-4.58v-0.87H77.41z M77.41,139.59v1h-4.6c0-0.33-0.02-0.68-0.02-1H77.41z M70.3,145.94v0.89h-4.88
	c0-0.31-0.02-0.59-0.02-0.89H70.3z M70.23,139.7v0.96h-4.88v-0.96H70.23z M63.08,140.62h-5.28v-0.83h5.25
	C63.08,140.05,63.08,140.33,63.08,140.62z M62.91,146.11v0.81h-5.12v-0.81H62.91z M55.67,152.37l-0.07,0.85h-5.04v-0.85H55.67z
	 M55.65,146.2v0.72h-4.6c0-0.24-0.02-0.48-0.02-0.72H55.65z M99.69,126.51v1H94.5c0.02-0.35,0.02-0.68,0.02-1H99.69z M99.62,120.12
	v0.94h-4.88c0-0.31,0-0.63-0.02-0.94H99.62z M92.43,120.25v1.02h-5.1v-1.02H92.43z M92.27,126.55v0.89H87.3v-0.89H92.27z
	 M84.77,120.23v0.83h-4.88v-0.83H84.77z M84.84,126.53v0.96h-4.97v-0.96H84.84z M77.45,126.73v1h-4.64v-1H77.45z M70.23,139.7v0.96
	h-4.88v-0.96H70.23z M70.3,145.94v0.89h-4.88c0-0.31-0.02-0.59-0.02-0.89H70.3z M62.91,146.11v0.81h-5.12v-0.81H62.91z
	 M63.08,140.62h-5.28v-0.83h5.25C63.08,140.05,63.08,140.33,63.08,140.62z M77.41,145.83v0.87h-4.58v-0.87H77.41z M77.41,139.59v1
	h-4.6c0-0.33-0.02-0.68-0.02-1H77.41z M77.62,132.94v1.24h-5.06c0-0.41-0.02-0.83-0.02-1.24H77.62z M84.84,145.98
	c-0.02,0.28-0.02,0.59-0.02,0.89h-4.93c0.02-0.31,0.02-0.61,0.02-0.89H84.84z M84.82,139.79c0,0.31,0,0.63-0.02,0.96H80
	c0-0.33-0.02-0.65-0.02-0.96H84.82z M85.01,134.16H79.8v-1.29h5.17C84.97,133.31,84.99,133.73,85.01,134.16z M92.21,146.11
	c-0.02,0.31-0.02,0.59-0.02,0.89h-4.86c-0.02-0.31-0.02-0.59-0.02-0.89H92.21z M92.51,132.94v1.11h-5.45v-1.11H92.51z M92.51,113.67
	c0,0.35,0,0.68-0.02,1h-5.08c-0.02-0.33-0.02-0.65-0.02-1H92.51z M99.62,114.37h-5.1c-0.04-0.24-0.07-0.48-0.09-0.7h5.15
	C99.6,113.89,99.6,114.13,99.62,114.37z M99.67,145.8v0.92h-4.95v-0.92H99.67z M99.73,133.84h-5.25c0-0.31-0.02-0.63-0.04-0.96h5.28
	C99.71,133.2,99.71,133.53,99.73,133.84z M114.4,126.6v1.02h-5.1c0-0.35,0-0.68-0.02-1.02H114.4z M106.97,140.55h-4.8v-0.89h4.77
	C106.97,139.94,106.97,140.25,106.97,140.55z M106.95,146.18c0,0.22-0.02,0.44-0.02,0.65h-4.82c0.02-0.22,0.02-0.44,0.02-0.65
	H106.95z M114.19,145.96v0.89h-4.88c0.02-0.28,0.02-0.59,0.04-0.89H114.19z M114.38,139.44v1.13h-5.04v-1.13H114.38z M114.43,132.99
	v1.22h-4.99c0.02-0.41,0.02-0.83,0.04-1.22H114.43z M114.43,132.99v1.22h-4.99c0.02-0.41,0.02-0.83,0.04-1.22H114.43z M114.4,126.6
	v1.02h-5.1c0-0.35,0-0.68-0.02-1.02H114.4z M114.38,139.44v1.13h-5.04v-1.13H114.38z M114.19,145.96v0.89h-4.88
	c0.02-0.28,0.02-0.59,0.04-0.89H114.19z M106.97,140.55h-4.8v-0.89h4.77C106.97,139.94,106.97,140.25,106.97,140.55z M106.95,146.18
	c0,0.22-0.02,0.44-0.02,0.65h-4.82c0.02-0.22,0.02-0.44,0.02-0.65H106.95z M99.73,133.84h-5.25c0-0.31-0.02-0.63-0.04-0.96h5.28
	C99.71,133.2,99.71,133.53,99.73,133.84z M99.69,126.51v1H94.5c0.02-0.35,0.02-0.68,0.02-1H99.69z M99.67,145.8v0.92h-4.95v-0.92
	H99.67z M99.62,120.12v0.94h-4.88c0-0.31,0-0.63-0.02-0.94H99.62z M99.62,114.37h-5.1c-0.04-0.24-0.07-0.48-0.09-0.7h5.15
	C99.6,113.89,99.6,114.13,99.62,114.37z M92.51,132.94v1.11h-5.45v-1.11H92.51z M92.51,113.67c0,0.35,0,0.68-0.02,1h-5.08
	c-0.02-0.33-0.02-0.65-0.02-1H92.51z M92.43,120.25v1.02h-5.1v-1.02H92.43z M92.27,126.55v0.89H87.3v-0.89H92.27z M92.21,146.11
	c-0.02,0.31-0.02,0.59-0.02,0.89h-4.86c-0.02-0.31-0.02-0.59-0.02-0.89H92.21z M85.01,134.16H79.8v-1.29h5.17
	C84.97,133.31,84.99,133.73,85.01,134.16z M84.84,126.53v0.96h-4.97v-0.96H84.84z M84.84,145.98c-0.02,0.28-0.02,0.59-0.02,0.89
	h-4.93c0.02-0.31,0.02-0.61,0.02-0.89H84.84z M84.82,139.79c0,0.31,0,0.63-0.02,0.96H80c0-0.33-0.02-0.65-0.02-0.96H84.82z
	 M84.77,120.23v0.83h-4.88v-0.83H84.77z M77.62,132.94v1.24h-5.06c0-0.41-0.02-0.83-0.02-1.24H77.62z M77.45,126.73v1h-4.64v-1
	H77.45z M77.41,145.83v0.87h-4.58v-0.87H77.41z M77.41,139.59v1h-4.6c0-0.33-0.02-0.68-0.02-1H77.41z M70.3,145.94v0.89h-4.88
	c0-0.31-0.02-0.59-0.02-0.89H70.3z M70.23,139.7v0.96h-4.88v-0.96H70.23z M63.08,140.62h-5.28v-0.83h5.25
	C63.08,140.05,63.08,140.33,63.08,140.62z M62.91,146.11v0.81h-5.12v-0.81H62.91z M99.69,126.51v1H94.5c0.02-0.35,0.02-0.68,0.02-1
	H99.69z M99.62,120.12v0.94h-4.88c0-0.31,0-0.63-0.02-0.94H99.62z M92.43,120.25v1.02h-5.1v-1.02H92.43z M92.27,126.55v0.89H87.3
	v-0.89H92.27z M84.77,120.23v0.83h-4.88v-0.83H84.77z M84.84,126.53v0.96h-4.97v-0.96H84.84z M77.45,126.73v1h-4.64v-1H77.45z
	 M70.23,139.7v0.96h-4.88v-0.96H70.23z M63.08,140.62h-5.28v-0.83h5.25C63.08,140.05,63.08,140.33,63.08,140.62z M77.41,145.83v0.87
	h-4.58v-0.87H77.41z M77.41,139.59v1h-4.6c0-0.33-0.02-0.68-0.02-1H77.41z M77.62,132.94v1.24h-5.06c0-0.41-0.02-0.83-0.02-1.24
	H77.62z M84.84,145.98c-0.02,0.28-0.02,0.59-0.02,0.89h-4.93c0.02-0.31,0.02-0.61,0.02-0.89H84.84z M84.82,139.79
	c0,0.31,0,0.63-0.02,0.96H80c0-0.33-0.02-0.65-0.02-0.96H84.82z M85.01,134.16H79.8v-1.29h5.17
	C84.97,133.31,84.99,133.73,85.01,134.16z M92.21,146.11c-0.02,0.31-0.02,0.59-0.02,0.89h-4.86c-0.02-0.31-0.02-0.59-0.02-0.89
	H92.21z M92.51,132.94v1.11h-5.45v-1.11H92.51z M92.51,113.67c0,0.35,0,0.68-0.02,1h-5.08c-0.02-0.33-0.02-0.65-0.02-1H92.51z
	 M99.62,114.37h-5.1c-0.04-0.24-0.07-0.48-0.09-0.7h5.15C99.6,113.89,99.6,114.13,99.62,114.37z M99.67,145.8v0.92h-4.95v-0.92
	H99.67z M99.73,133.84h-5.25c0-0.31-0.02-0.63-0.04-0.96h5.28C99.71,133.2,99.71,133.53,99.73,133.84z M114.4,126.6v1.02h-5.1
	c0-0.35,0-0.68-0.02-1.02H114.4z M106.97,140.55h-4.8v-0.89h4.77C106.97,139.94,106.97,140.25,106.97,140.55z M106.95,146.18
	c0,0.22-0.02,0.44-0.02,0.65h-4.82c0.02-0.22,0.02-0.44,0.02-0.65H106.95z M114.19,145.96v0.89h-4.88c0.02-0.28,0.02-0.59,0.04-0.89
	H114.19z M114.38,139.44v1.13h-5.04v-1.13H114.38z M114.43,132.99v1.22h-4.99c0.02-0.41,0.02-0.83,0.04-1.22H114.43z M114.43,132.99
	v1.22h-4.99c0.02-0.41,0.02-0.83,0.04-1.22H114.43z M114.4,126.6v1.02h-5.1c0-0.35,0-0.68-0.02-1.02H114.4z M114.38,139.44v1.13
	h-5.04v-1.13H114.38z M114.19,145.96v0.89h-4.88c0.02-0.28,0.02-0.59,0.04-0.89H114.19z M106.97,140.55h-4.8v-0.89h4.77
	C106.97,139.94,106.97,140.25,106.97,140.55z M106.95,146.18c0,0.22-0.02,0.44-0.02,0.65h-4.82c0.02-0.22,0.02-0.44,0.02-0.65
	H106.95z M99.73,133.84h-5.25c0-0.31-0.02-0.63-0.04-0.96h5.28C99.71,133.2,99.71,133.53,99.73,133.84z M99.69,126.51v1H94.5
	c0.02-0.35,0.02-0.68,0.02-1H99.69z M99.67,145.8v0.92h-4.95v-0.92H99.67z M99.62,120.12v0.94h-4.88c0-0.31,0-0.63-0.02-0.94H99.62z
	 M99.62,114.37h-5.1c-0.04-0.24-0.07-0.48-0.09-0.7h5.15C99.6,113.89,99.6,114.13,99.62,114.37z M92.51,132.94v1.11h-5.45v-1.11
	H92.51z M92.51,113.67c0,0.35,0,0.68-0.02,1h-5.08c-0.02-0.33-0.02-0.65-0.02-1H92.51z M92.43,120.25v1.02h-5.1v-1.02H92.43z
	 M92.27,126.55v0.89H87.3v-0.89H92.27z M92.21,146.11c-0.02,0.31-0.02,0.59-0.02,0.89h-4.86c-0.02-0.31-0.02-0.59-0.02-0.89H92.21z
	 M85.01,134.16H79.8v-1.29h5.17C84.97,133.31,84.99,133.73,85.01,134.16z M84.84,126.53v0.96h-4.97v-0.96H84.84z M84.84,145.98
	c-0.02,0.28-0.02,0.59-0.02,0.89h-4.93c0.02-0.31,0.02-0.61,0.02-0.89H84.84z M84.82,139.79c0,0.31,0,0.63-0.02,0.96H80
	c0-0.33-0.02-0.65-0.02-0.96H84.82z M84.77,120.23v0.83h-4.88v-0.83H84.77z M77.62,132.94v1.24h-5.06c0-0.41-0.02-0.83-0.02-1.24
	H77.62z M77.45,126.73v1h-4.64v-1H77.45z M77.41,145.83v0.87h-4.58v-0.87H77.41z M77.41,139.59v1h-4.6c0-0.33-0.02-0.68-0.02-1
	H77.41z M70.23,139.7v0.96h-4.88v-0.96H70.23z M63.08,140.62h-5.28v-0.83h5.25C63.08,140.05,63.08,140.33,63.08,140.62z
	 M99.69,126.51v1H94.5c0.02-0.35,0.02-0.68,0.02-1H99.69z M99.62,120.12v0.94h-4.88c0-0.31,0-0.63-0.02-0.94H99.62z M92.43,120.25
	v1.02h-5.1v-1.02H92.43z M92.27,126.55v0.89H87.3v-0.89H92.27z M84.77,120.23v0.83h-4.88v-0.83H84.77z M84.84,126.53v0.96h-4.97
	v-0.96H84.84z M77.45,126.73v1h-4.64v-1H77.45z M70.23,139.7v0.96h-4.88v-0.96H70.23z M63.08,140.62h-5.28v-0.83h5.25
	C63.08,140.05,63.08,140.33,63.08,140.62z M77.41,139.59v1h-4.6c0-0.33-0.02-0.68-0.02-1H77.41z M77.62,132.94v1.24h-5.06
	c0-0.41-0.02-0.83-0.02-1.24H77.62z M84.82,139.79c0,0.31,0,0.63-0.02,0.96H80c0-0.33-0.02-0.65-0.02-0.96H84.82z M85.01,134.16
	H79.8v-1.29h5.17C84.97,133.31,84.99,133.73,85.01,134.16z M92.21,146.11c-0.02,0.31-0.02,0.59-0.02,0.89h-4.86
	c-0.02-0.31-0.02-0.59-0.02-0.89H92.21z M92.51,132.94v1.11h-5.45v-1.11H92.51z M92.51,113.67c0,0.35,0,0.68-0.02,1h-5.08
	c-0.02-0.33-0.02-0.65-0.02-1H92.51z M99.62,114.37h-5.1c-0.04-0.24-0.07-0.48-0.09-0.7h5.15C99.6,113.89,99.6,114.13,99.62,114.37z
	 M99.67,145.8v0.92h-4.95v-0.92H99.67z M99.73,133.84h-5.25c0-0.31-0.02-0.63-0.04-0.96h5.28C99.71,133.2,99.71,133.53,99.73,133.84
	z M114.4,126.6v1.02h-5.1c0-0.35,0-0.68-0.02-1.02H114.4z M106.97,140.55h-4.8v-0.89h4.77
	C106.97,139.94,106.97,140.25,106.97,140.55z M106.95,146.18c0,0.22-0.02,0.44-0.02,0.65h-4.82c0.02-0.22,0.02-0.44,0.02-0.65
	H106.95z M114.19,145.96v0.89h-4.88c0.02-0.28,0.02-0.59,0.04-0.89H114.19z M114.38,139.44v1.13h-5.04v-1.13H114.38z M114.43,132.99
	v1.22h-4.99c0.02-0.41,0.02-0.83,0.04-1.22H114.43z M114.43,132.99v1.22h-4.99c0.02-0.41,0.02-0.83,0.04-1.22H114.43z M114.4,126.6
	v1.02h-5.1c0-0.35,0-0.68-0.02-1.02H114.4z M114.38,139.44v1.13h-5.04v-1.13H114.38z M114.19,145.96v0.89h-4.88
	c0.02-0.28,0.02-0.59,0.04-0.89H114.19z M106.97,140.55h-4.8v-0.89h4.77C106.97,139.94,106.97,140.25,106.97,140.55z M106.95,146.18
	c0,0.22-0.02,0.44-0.02,0.65h-4.82c0.02-0.22,0.02-0.44,0.02-0.65H106.95z M99.73,133.84h-5.25c0-0.31-0.02-0.63-0.04-0.96h5.28
	C99.71,133.2,99.71,133.53,99.73,133.84z M99.69,126.51v1H94.5c0.02-0.35,0.02-0.68,0.02-1H99.69z M99.67,145.8v0.92h-4.95v-0.92
	H99.67z M99.62,120.12v0.94h-4.88c0-0.31,0-0.63-0.02-0.94H99.62z M99.62,114.37h-5.1c-0.04-0.24-0.07-0.48-0.09-0.7h5.15
	C99.6,113.89,99.6,114.13,99.62,114.37z M92.51,132.94v1.11h-5.45v-1.11H92.51z M92.51,113.67c0,0.35,0,0.68-0.02,1h-5.08
	c-0.02-0.33-0.02-0.65-0.02-1H92.51z M92.43,120.25v1.02h-5.1v-1.02H92.43z M92.27,126.55v0.89H87.3v-0.89H92.27z M92.21,146.11
	c-0.02,0.31-0.02,0.59-0.02,0.89h-4.86c-0.02-0.31-0.02-0.59-0.02-0.89H92.21z M85.01,134.16H79.8v-1.29h5.17
	C84.97,133.31,84.99,133.73,85.01,134.16z M84.84,126.53v0.96h-4.97v-0.96H84.84z M84.82,139.79c0,0.31,0,0.63-0.02,0.96H80
	c0-0.33-0.02-0.65-0.02-0.96H84.82z M84.77,120.23v0.83h-4.88v-0.83H84.77z M77.62,132.94v1.24h-5.06c0-0.41-0.02-0.83-0.02-1.24
	H77.62z M77.45,126.73v1h-4.64v-1H77.45z M77.41,139.59v1h-4.6c0-0.33-0.02-0.68-0.02-1H77.41z M70.23,139.7v0.96h-4.88v-0.96H70.23
	z M63.08,140.62h-5.28v-0.83h5.25C63.08,140.05,63.08,140.33,63.08,140.62z M99.69,126.51v1H94.5c0.02-0.35,0.02-0.68,0.02-1H99.69z
	 M99.62,120.12v0.94h-4.88c0-0.31,0-0.63-0.02-0.94H99.62z M92.43,120.25v1.02h-5.1v-1.02H92.43z M92.27,126.55v0.89H87.3v-0.89
	H92.27z M84.77,120.23v0.83h-4.88v-0.83H84.77z M84.84,126.53v0.96h-4.97v-0.96H84.84z M77.45,126.73v1h-4.64v-1H77.45z
	 M70.23,139.7v0.96h-4.88v-0.96H70.23z M63.08,140.62h-5.28v-0.83h5.25C63.08,140.05,63.08,140.33,63.08,140.62z M77.41,139.59v1
	h-4.6c0-0.33-0.02-0.68-0.02-1H77.41z M77.62,132.94v1.24h-5.06c0-0.41-0.02-0.83-0.02-1.24H77.62z M84.82,139.79
	c0,0.31,0,0.63-0.02,0.96H80c0-0.33-0.02-0.65-0.02-0.96H84.82z M85.01,134.16H79.8v-1.29h5.17
	C84.97,133.31,84.99,133.73,85.01,134.16z M92.51,132.94v1.11h-5.45v-1.11H92.51z M92.51,113.67c0,0.35,0,0.68-0.02,1h-5.08
	c-0.02-0.33-0.02-0.65-0.02-1H92.51z M99.62,114.37h-5.1c-0.04-0.24-0.07-0.48-0.09-0.7h5.15C99.6,113.89,99.6,114.13,99.62,114.37z
	 M99.73,133.84h-5.25c0-0.31-0.02-0.63-0.04-0.96h5.28C99.71,133.2,99.71,133.53,99.73,133.84z M114.4,126.6v1.02h-5.1
	c0-0.35,0-0.68-0.02-1.02H114.4z M106.97,140.55h-4.8v-0.89h4.77C106.97,139.94,106.97,140.25,106.97,140.55z M106.95,146.18
	c0,0.22-0.02,0.44-0.02,0.65h-4.82c0.02-0.22,0.02-0.44,0.02-0.65H106.95z M114.19,145.96v0.89h-4.88c0.02-0.28,0.02-0.59,0.04-0.89
	H114.19z M114.38,139.44v1.13h-5.04v-1.13H114.38z M114.43,132.99v1.22h-4.99c0.02-0.41,0.02-0.83,0.04-1.22H114.43z M114.43,132.99
	v1.22h-4.99c0.02-0.41,0.02-0.83,0.04-1.22H114.43z M114.4,126.6v1.02h-5.1c0-0.35,0-0.68-0.02-1.02H114.4z M114.38,139.44v1.13
	h-5.04v-1.13H114.38z M114.19,145.96v0.89h-4.88c0.02-0.28,0.02-0.59,0.04-0.89H114.19z M106.97,140.55h-4.8v-0.89h4.77
	C106.97,139.94,106.97,140.25,106.97,140.55z M106.95,146.18c0,0.22-0.02,0.44-0.02,0.65h-4.82c0.02-0.22,0.02-0.44,0.02-0.65
	H106.95z M99.73,133.84h-5.25c0-0.31-0.02-0.63-0.04-0.96h5.28C99.71,133.2,99.71,133.53,99.73,133.84z M99.69,126.51v1H94.5
	c0.02-0.35,0.02-0.68,0.02-1H99.69z M99.62,120.12v0.94h-4.88c0-0.31,0-0.63-0.02-0.94H99.62z M99.62,114.37h-5.1
	c-0.04-0.24-0.07-0.48-0.09-0.7h5.15C99.6,113.89,99.6,114.13,99.62,114.37z M92.51,132.94v1.11h-5.45v-1.11H92.51z M92.51,113.67
	c0,0.35,0,0.68-0.02,1h-5.08c-0.02-0.33-0.02-0.65-0.02-1H92.51z M92.43,120.25v1.02h-5.1v-1.02H92.43z M92.27,126.55v0.89H87.3
	v-0.89H92.27z M85.01,134.16H79.8v-1.29h5.17C84.97,133.31,84.99,133.73,85.01,134.16z M84.84,126.53v0.96h-4.97v-0.96H84.84z
	 M84.82,139.79c0,0.31,0,0.63-0.02,0.96H80c0-0.33-0.02-0.65-0.02-0.96H84.82z M84.77,120.23v0.83h-4.88v-0.83H84.77z M77.62,132.94
	v1.24h-5.06c0-0.41-0.02-0.83-0.02-1.24H77.62z M77.45,126.73v1h-4.64v-1H77.45z M77.41,139.59v1h-4.6c0-0.33-0.02-0.68-0.02-1
	H77.41z M70.23,139.7v0.96h-4.88v-0.96H70.23z M63.08,140.62h-5.28v-0.83h5.25C63.08,140.05,63.08,140.33,63.08,140.62z
	 M99.69,126.51v1H94.5c0.02-0.35,0.02-0.68,0.02-1H99.69z M99.62,120.12v0.94h-4.88c0-0.31,0-0.63-0.02-0.94H99.62z M92.43,120.25
	v1.02h-5.1v-1.02H92.43z M92.27,126.55v0.89H87.3v-0.89H92.27z M84.77,120.23v0.83h-4.88v-0.83H84.77z M84.84,126.53v0.96h-4.97
	v-0.96H84.84z M77.45,126.73v1h-4.64v-1H77.45z M70.23,139.7v0.96h-4.88v-0.96H70.23z M63.08,140.62h-5.28v-0.83h5.25
	C63.08,140.05,63.08,140.33,63.08,140.62z M77.41,139.59v1h-4.6c0-0.33-0.02-0.68-0.02-1H77.41z M77.62,132.94v1.24h-5.06
	c0-0.41-0.02-0.83-0.02-1.24H77.62z M84.82,139.79c0,0.31,0,0.63-0.02,0.96H80c0-0.33-0.02-0.65-0.02-0.96H84.82z M85.01,134.16
	H79.8v-1.29h5.17C84.97,133.31,84.99,133.73,85.01,134.16z M92.51,132.94v1.11h-5.45v-1.11H92.51z M92.51,113.67
	c0,0.35,0,0.68-0.02,1h-5.08c-0.02-0.33-0.02-0.65-0.02-1H92.51z M99.62,114.37h-5.1c-0.04-0.24-0.07-0.48-0.09-0.7h5.15
	C99.6,113.89,99.6,114.13,99.62,114.37z M99.73,133.84h-5.25c0-0.31-0.02-0.63-0.04-0.96h5.28
	C99.71,133.2,99.71,133.53,99.73,133.84z M114.4,126.6v1.02h-5.1c0-0.35,0-0.68-0.02-1.02H114.4z M106.97,140.55h-4.8v-0.89h4.77
	C106.97,139.94,106.97,140.25,106.97,140.55z M114.38,139.44v1.13h-5.04v-1.13H114.38z M114.43,132.99v1.22h-4.99
	c0.02-0.41,0.02-0.83,0.04-1.22H114.43z M114.43,132.99v1.22h-4.99c0.02-0.41,0.02-0.83,0.04-1.22H114.43z M114.4,126.6v1.02h-5.1
	c0-0.35,0-0.68-0.02-1.02H114.4z M114.38,139.44v1.13h-5.04v-1.13H114.38z M106.97,140.55h-4.8v-0.89h4.77
	C106.97,139.94,106.97,140.25,106.97,140.55z M99.73,133.84h-5.25c0-0.31-0.02-0.63-0.04-0.96h5.28
	C99.71,133.2,99.71,133.53,99.73,133.84z M99.69,126.51v1H94.5c0.02-0.35,0.02-0.68,0.02-1H99.69z M99.62,120.12v0.94h-4.88
	c0-0.31,0-0.63-0.02-0.94H99.62z M99.62,114.37h-5.1c-0.04-0.24-0.07-0.48-0.09-0.7h5.15C99.6,113.89,99.6,114.13,99.62,114.37z
	 M92.51,132.94v1.11h-5.45v-1.11H92.51z M92.51,113.67c0,0.35,0,0.68-0.02,1h-5.08c-0.02-0.33-0.02-0.65-0.02-1H92.51z
	 M92.43,120.25v1.02h-5.1v-1.02H92.43z M92.27,126.55v0.89H87.3v-0.89H92.27z M85.01,134.16H79.8v-1.29h5.17
	C84.97,133.31,84.99,133.73,85.01,134.16z M84.84,126.53v0.96h-4.97v-0.96H84.84z M84.82,139.79c0,0.31,0,0.63-0.02,0.96H80
	c0-0.33-0.02-0.65-0.02-0.96H84.82z M84.77,120.23v0.83h-4.88v-0.83H84.77z M77.62,132.94v1.24h-5.06c0-0.41-0.02-0.83-0.02-1.24
	H77.62z M77.45,126.73v1h-4.64v-1H77.45z M77.41,139.59v1h-4.6c0-0.33-0.02-0.68-0.02-1H77.41z M70.23,139.7v0.96h-4.88v-0.96H70.23
	z M63.08,140.62h-5.28v-0.83h5.25C63.08,140.05,63.08,140.33,63.08,140.62z M99.69,126.51v1H94.5c0.02-0.35,0.02-0.68,0.02-1H99.69z
	 M99.62,120.12v0.94h-4.88c0-0.31,0-0.63-0.02-0.94H99.62z M92.43,120.25v1.02h-5.1v-1.02H92.43z M92.27,126.55v0.89H87.3v-0.89
	H92.27z M84.77,120.23v0.83h-4.88v-0.83H84.77z M84.84,126.53v0.96h-4.97v-0.96H84.84z M77.45,126.73v1h-4.64v-1H77.45z
	 M70.23,139.7v0.96h-4.88v-0.96H70.23z M63.08,140.62h-5.28v-0.83h5.25C63.08,140.05,63.08,140.33,63.08,140.62z M77.41,139.59v1
	h-4.6c0-0.33-0.02-0.68-0.02-1H77.41z M77.62,132.94v1.24h-5.06c0-0.41-0.02-0.83-0.02-1.24H77.62z M84.82,139.79
	c0,0.31,0,0.63-0.02,0.96H80c0-0.33-0.02-0.65-0.02-0.96H84.82z M85.01,134.16H79.8v-1.29h5.17
	C84.97,133.31,84.99,133.73,85.01,134.16z M92.51,132.94v1.11h-5.45v-1.11H92.51z M92.51,113.67c0,0.35,0,0.68-0.02,1h-5.08
	c-0.02-0.33-0.02-0.65-0.02-1H92.51z M99.62,114.37h-5.1c-0.04-0.24-0.07-0.48-0.09-0.7h5.15C99.6,113.89,99.6,114.13,99.62,114.37z
	 M99.73,133.84h-5.25c0-0.31-0.02-0.63-0.04-0.96h5.28C99.71,133.2,99.71,133.53,99.73,133.84z M114.4,126.6v1.02h-5.1
	c0-0.35,0-0.68-0.02-1.02H114.4z M114.43,132.99v1.22h-4.99c0.02-0.41,0.02-0.83,0.04-1.22H114.43z M114.43,132.99v1.22h-4.99
	c0.02-0.41,0.02-0.83,0.04-1.22H114.43z M114.4,126.6v1.02h-5.1c0-0.35,0-0.68-0.02-1.02H114.4z M99.73,133.84h-5.25
	c0-0.31-0.02-0.63-0.04-0.96h5.28C99.71,133.2,99.71,133.53,99.73,133.84z M99.69,126.51v1H94.5c0.02-0.35,0.02-0.68,0.02-1H99.69z
	 M99.62,120.12v0.94h-4.88c0-0.31,0-0.63-0.02-0.94H99.62z M99.62,114.37h-5.1c-0.04-0.24-0.07-0.48-0.09-0.7h5.15
	C99.6,113.89,99.6,114.13,99.62,114.37z M92.51,132.94v1.11h-5.45v-1.11H92.51z M92.51,113.67c0,0.35,0,0.68-0.02,1h-5.08
	c-0.02-0.33-0.02-0.65-0.02-1H92.51z M92.43,120.25v1.02h-5.1v-1.02H92.43z M92.27,126.55v0.89H87.3v-0.89H92.27z M85.01,134.16
	H79.8v-1.29h5.17C84.97,133.31,84.99,133.73,85.01,134.16z M84.84,126.53v0.96h-4.97v-0.96H84.84z M84.82,139.79
	c0,0.31,0,0.63-0.02,0.96H80c0-0.33-0.02-0.65-0.02-0.96H84.82z M84.77,120.23v0.83h-4.88v-0.83H84.77z M77.62,132.94v1.24h-5.06
	c0-0.41-0.02-0.83-0.02-1.24H77.62z M77.45,126.73v1h-4.64v-1H77.45z M77.41,139.59v1h-4.6c0-0.33-0.02-0.68-0.02-1H77.41z
	 M70.23,139.7v0.96h-4.88v-0.96H70.23z M63.08,140.62h-5.28v-0.83h5.25C63.08,140.05,63.08,140.33,63.08,140.62z M99.69,126.51v1
	H94.5c0.02-0.35,0.02-0.68,0.02-1H99.69z M99.62,120.12v0.94h-4.88c0-0.31,0-0.63-0.02-0.94H99.62z M92.43,120.25v1.02h-5.1v-1.02
	H92.43z M92.27,126.55v0.89H87.3v-0.89H92.27z M84.77,120.23v0.83h-4.88v-0.83H84.77z M84.84,126.53v0.96h-4.97v-0.96H84.84z
	 M77.45,126.73v1h-4.64v-1H77.45z M70.23,139.7v0.96h-4.88v-0.96H70.23z M63.08,140.62h-5.28v-0.83h5.25
	C63.08,140.05,63.08,140.33,63.08,140.62z M77.62,132.94v1.24h-5.06c0-0.41-0.02-0.83-0.02-1.24H77.62z M85.01,134.16H79.8v-1.29
	h5.17C84.97,133.31,84.99,133.73,85.01,134.16z M92.51,132.94v1.11h-5.45v-1.11H92.51z M92.51,113.67c0,0.35,0,0.68-0.02,1h-5.08
	c-0.02-0.33-0.02-0.65-0.02-1H92.51z M99.62,114.37h-5.1c-0.04-0.24-0.07-0.48-0.09-0.7h5.15C99.6,113.89,99.6,114.13,99.62,114.37z
	 M99.73,133.84h-5.25c0-0.31-0.02-0.63-0.04-0.96h5.28C99.71,133.2,99.71,133.53,99.73,133.84z M114.4,126.6v1.02h-5.1
	c0-0.35,0-0.68-0.02-1.02H114.4z M114.43,132.99v1.22h-4.99c0.02-0.41,0.02-0.83,0.04-1.22H114.43z M114.43,132.99v1.22h-4.99
	c0.02-0.41,0.02-0.83,0.04-1.22H114.43z M114.4,126.6v1.02h-5.1c0-0.35,0-0.68-0.02-1.02H114.4z M99.73,133.84h-5.25
	c0-0.31-0.02-0.63-0.04-0.96h5.28C99.71,133.2,99.71,133.53,99.73,133.84z M99.69,126.51v1H94.5c0.02-0.35,0.02-0.68,0.02-1H99.69z
	 M99.62,120.12v0.94h-4.88c0-0.31,0-0.63-0.02-0.94H99.62z M99.62,114.37h-5.1c-0.04-0.24-0.07-0.48-0.09-0.7h5.15
	C99.6,113.89,99.6,114.13,99.62,114.37z M92.51,132.94v1.11h-5.45v-1.11H92.51z M92.51,113.67c0,0.35,0,0.68-0.02,1h-5.08
	c-0.02-0.33-0.02-0.65-0.02-1H92.51z M92.43,120.25v1.02h-5.1v-1.02H92.43z M92.27,126.55v0.89H87.3v-0.89H92.27z M85.01,134.16
	H79.8v-1.29h5.17C84.97,133.31,84.99,133.73,85.01,134.16z M84.84,126.53v0.96h-4.97v-0.96H84.84z M84.77,120.23v0.83h-4.88v-0.83
	H84.77z M77.62,132.94v1.24h-5.06c0-0.41-0.02-0.83-0.02-1.24H77.62z M77.45,126.73v1h-4.64v-1H77.45z M70.23,139.7v0.96h-4.88
	v-0.96H70.23z M63.08,140.62h-5.28v-0.83h5.25C63.08,140.05,63.08,140.33,63.08,140.62z M99.69,126.51v1H94.5
	c0.02-0.35,0.02-0.68,0.02-1H99.69z M99.62,120.12v0.94h-4.88c0-0.31,0-0.63-0.02-0.94H99.62z M92.43,120.25v1.02h-5.1v-1.02H92.43z
	 M92.27,126.55v0.89H87.3v-0.89H92.27z M84.77,120.23v0.83h-4.88v-0.83H84.77z M84.84,126.53v0.96h-4.97v-0.96H84.84z M77.45,126.73
	v1h-4.64v-1H77.45z M77.62,132.94v1.24h-5.06c0-0.41-0.02-0.83-0.02-1.24H77.62z M85.01,134.16H79.8v-1.29h5.17
	C84.97,133.31,84.99,133.73,85.01,134.16z M92.51,132.94v1.11h-5.45v-1.11H92.51z M92.51,113.67c0,0.35,0,0.68-0.02,1h-5.08
	c-0.02-0.33-0.02-0.65-0.02-1H92.51z M99.62,114.37h-5.1c-0.04-0.24-0.07-0.48-0.09-0.7h5.15C99.6,113.89,99.6,114.13,99.62,114.37z
	 M99.73,133.84h-5.25c0-0.31-0.02-0.63-0.04-0.96h5.28C99.71,133.2,99.71,133.53,99.73,133.84z M114.4,126.6v1.02h-5.1
	c0-0.35,0-0.68-0.02-1.02H114.4z M114.43,132.99v1.22h-4.99c0.02-0.41,0.02-0.83,0.04-1.22H114.43z M114.43,132.99v1.22h-4.99
	c0.02-0.41,0.02-0.83,0.04-1.22H114.43z M114.4,126.6v1.02h-5.1c0-0.35,0-0.68-0.02-1.02H114.4z M99.73,133.84h-5.25
	c0-0.31-0.02-0.63-0.04-0.96h5.28C99.71,133.2,99.71,133.53,99.73,133.84z M99.69,126.51v1H94.5c0.02-0.35,0.02-0.68,0.02-1H99.69z
	 M99.62,120.12v0.94h-4.88c0-0.31,0-0.63-0.02-0.94H99.62z M99.62,114.37h-5.1c-0.04-0.24-0.07-0.48-0.09-0.7h5.15
	C99.6,113.89,99.6,114.13,99.62,114.37z M92.51,132.94v1.11h-5.45v-1.11H92.51z M92.51,113.67c0,0.35,0,0.68-0.02,1h-5.08
	c-0.02-0.33-0.02-0.65-0.02-1H92.51z M92.43,120.25v1.02h-5.1v-1.02H92.43z M92.27,126.55v0.89H87.3v-0.89H92.27z M85.01,134.16
	H79.8v-1.29h5.17C84.97,133.31,84.99,133.73,85.01,134.16z M84.84,126.53v0.96h-4.97v-0.96H84.84z M84.77,120.23v0.83h-4.88v-0.83
	H84.77z M77.62,132.94v1.24h-5.06c0-0.41-0.02-0.83-0.02-1.24H77.62z M77.45,126.73v1h-4.64v-1H77.45z M99.69,126.51v1H94.5
	c0.02-0.35,0.02-0.68,0.02-1H99.69z M99.62,120.12v0.94h-4.88c0-0.31,0-0.63-0.02-0.94H99.62z M92.43,120.25v1.02h-5.1v-1.02H92.43z
	 M92.27,126.55v0.89H87.3v-0.89H92.27z M84.77,120.23v0.83h-4.88v-0.83H84.77z M84.84,126.53v0.96h-4.97v-0.96H84.84z M77.45,126.73
	v1h-4.64v-1H77.45z M77.62,132.94v1.24h-5.06c0-0.41-0.02-0.83-0.02-1.24H77.62z M85.01,134.16H79.8v-1.29h5.17
	C84.97,133.31,84.99,133.73,85.01,134.16z M92.51,132.94v1.11h-5.45v-1.11H92.51z M92.51,113.67c0,0.35,0,0.68-0.02,1h-5.08
	c-0.02-0.33-0.02-0.65-0.02-1H92.51z M99.62,114.37h-5.1c-0.04-0.24-0.07-0.48-0.09-0.7h5.15C99.6,113.89,99.6,114.13,99.62,114.37z
	 M114.4,126.6v1.02h-5.1c0-0.35,0-0.68-0.02-1.02H114.4z M114.4,126.6v1.02h-5.1c0-0.35,0-0.68-0.02-1.02H114.4z M99.69,126.51v1
	H94.5c0.02-0.35,0.02-0.68,0.02-1H99.69z M99.62,120.12v0.94h-4.88c0-0.31,0-0.63-0.02-0.94H99.62z M99.62,114.37h-5.1
	c-0.04-0.24-0.07-0.48-0.09-0.7h5.15C99.6,113.89,99.6,114.13,99.62,114.37z M92.51,132.94v1.11h-5.45v-1.11H92.51z M92.51,113.67
	c0,0.35,0,0.68-0.02,1h-5.08c-0.02-0.33-0.02-0.65-0.02-1H92.51z M92.43,120.25v1.02h-5.1v-1.02H92.43z M92.27,126.55v0.89H87.3
	v-0.89H92.27z M85.01,134.16H79.8v-1.29h5.17C84.97,133.31,84.99,133.73,85.01,134.16z M84.84,126.53v0.96h-4.97v-0.96H84.84z
	 M84.77,120.23v0.83h-4.88v-0.83H84.77z M77.62,132.94v1.24h-5.06c0-0.41-0.02-0.83-0.02-1.24H77.62z M77.45,126.73v1h-4.64v-1
	H77.45z M99.69,126.51v1H94.5c0.02-0.35,0.02-0.68,0.02-1H99.69z M99.62,120.12v0.94h-4.88c0-0.31,0-0.63-0.02-0.94H99.62z
	 M92.43,120.25v1.02h-5.1v-1.02H92.43z M92.27,126.55v0.89H87.3v-0.89H92.27z M84.77,120.23v0.83h-4.88v-0.83H84.77z M84.84,126.53
	v0.96h-4.97v-0.96H84.84z M77.45,126.73v1h-4.64v-1H77.45z M77.62,132.94v1.24h-5.06c0-0.41-0.02-0.83-0.02-1.24H77.62z
	 M92.51,113.67c0,0.35,0,0.68-0.02,1h-5.08c-0.02-0.33-0.02-0.65-0.02-1H92.51z M99.62,114.37h-5.1c-0.04-0.24-0.07-0.48-0.09-0.7
	h5.15C99.6,113.89,99.6,114.13,99.62,114.37z M114.4,126.6v1.02h-5.1c0-0.35,0-0.68-0.02-1.02H114.4z M114.4,126.6v1.02h-5.1
	c0-0.35,0-0.68-0.02-1.02H114.4z M99.69,126.51v1H94.5c0.02-0.35,0.02-0.68,0.02-1H99.69z M99.62,120.12v0.94h-4.88
	c0-0.31,0-0.63-0.02-0.94H99.62z M99.62,114.37h-5.1c-0.04-0.24-0.07-0.48-0.09-0.7h5.15C99.6,113.89,99.6,114.13,99.62,114.37z
	 M92.51,113.67c0,0.35,0,0.68-0.02,1h-5.08c-0.02-0.33-0.02-0.65-0.02-1H92.51z M92.43,120.25v1.02h-5.1v-1.02H92.43z M92.27,126.55
	v0.89H87.3v-0.89H92.27z M84.84,126.53v0.96h-4.97v-0.96H84.84z M84.77,120.23v0.83h-4.88v-0.83H84.77z M77.62,132.94v1.24h-5.06
	c0-0.41-0.02-0.83-0.02-1.24H77.62z M77.45,126.73v1h-4.64v-1H77.45z M99.69,126.51v1H94.5c0.02-0.35,0.02-0.68,0.02-1H99.69z
	 M99.62,120.12v0.94h-4.88c0-0.31,0-0.63-0.02-0.94H99.62z M92.43,120.25v1.02h-5.1v-1.02H92.43z M92.27,126.55v0.89H87.3v-0.89
	H92.27z M84.77,120.23v0.83h-4.88v-0.83H84.77z M84.84,126.53v0.96h-4.97v-0.96H84.84z M77.45,126.73v1h-4.64v-1H77.45z
	 M92.51,113.67c0,0.35,0,0.68-0.02,1h-5.08c-0.02-0.33-0.02-0.65-0.02-1H92.51z M99.62,114.37h-5.1c-0.04-0.24-0.07-0.48-0.09-0.7
	h5.15C99.6,113.89,99.6,114.13,99.62,114.37z M99.69,126.51v1H94.5c0.02-0.35,0.02-0.68,0.02-1H99.69z M99.62,120.12v0.94h-4.88
	c0-0.31,0-0.63-0.02-0.94H99.62z M99.62,114.37h-5.1c-0.04-0.24-0.07-0.48-0.09-0.7h5.15C99.6,113.89,99.6,114.13,99.62,114.37z
	 M92.51,113.67c0,0.35,0,0.68-0.02,1h-5.08c-0.02-0.33-0.02-0.65-0.02-1H92.51z M92.43,120.25v1.02h-5.1v-1.02H92.43z M92.27,126.55
	v0.89H87.3v-0.89H92.27z M84.84,126.53v0.96h-4.97v-0.96H84.84z M84.77,120.23v0.83h-4.88v-0.83H84.77z M77.45,126.73v1h-4.64v-1
	H77.45z M99.62,120.12v0.94h-4.88c0-0.31,0-0.63-0.02-0.94H99.62z M92.43,120.25v1.02h-5.1v-1.02H92.43z M84.77,120.23v0.83h-4.88
	v-0.83H84.77z M84.84,126.53v0.96h-4.97v-0.96H84.84z M77.45,126.73v1h-4.64v-1H77.45z M92.51,113.67c0,0.35,0,0.68-0.02,1h-5.08
	c-0.02-0.33-0.02-0.65-0.02-1H92.51z M99.62,114.37h-5.1c-0.04-0.24-0.07-0.48-0.09-0.7h5.15C99.6,113.89,99.6,114.13,99.62,114.37z
	 M99.62,120.12v0.94h-4.88c0-0.31,0-0.63-0.02-0.94H99.62z M99.62,114.37h-5.1c-0.04-0.24-0.07-0.48-0.09-0.7h5.15
	C99.6,113.89,99.6,114.13,99.62,114.37z M92.51,113.67c0,0.35,0,0.68-0.02,1h-5.08c-0.02-0.33-0.02-0.65-0.02-1H92.51z
	 M92.43,120.25v1.02h-5.1v-1.02H92.43z M84.84,126.53v0.96h-4.97v-0.96H84.84z M84.77,120.23v0.83h-4.88v-0.83H84.77z M77.45,126.73
	v1h-4.64v-1H77.45z M99.62,120.12v0.94h-4.88c0-0.31,0-0.63-0.02-0.94H99.62z M92.43,120.25v1.02h-5.1v-1.02H92.43z M84.77,120.23
	v0.83h-4.88v-0.83H84.77z M92.51,113.67c0,0.35,0,0.68-0.02,1h-5.08c-0.02-0.33-0.02-0.65-0.02-1H92.51z M99.62,114.37h-5.1
	c-0.04-0.24-0.07-0.48-0.09-0.7h5.15C99.6,113.89,99.6,114.13,99.62,114.37z M99.62,120.12v0.94h-4.88c0-0.31,0-0.63-0.02-0.94
	H99.62z M99.62,114.37h-5.1c-0.04-0.24-0.07-0.48-0.09-0.7h5.15C99.6,113.89,99.6,114.13,99.62,114.37z M92.51,113.67
	c0,0.35,0,0.68-0.02,1h-5.08c-0.02-0.33-0.02-0.65-0.02-1H92.51z M92.43,120.25v1.02h-5.1v-1.02H92.43z M84.77,120.23v0.83h-4.88
	v-0.83H84.77z M84.77,120.23v0.83h-4.88v-0.83H84.77z M92.51,113.67c0,0.35,0,0.68-0.02,1h-5.08c-0.02-0.33-0.02-0.65-0.02-1H92.51z
	 M99.62,114.37h-5.1c-0.04-0.24-0.07-0.48-0.09-0.7h5.15C99.6,113.89,99.6,114.13,99.62,114.37z M99.62,114.37h-5.1
	c-0.04-0.24-0.07-0.48-0.09-0.7h5.15C99.6,113.89,99.6,114.13,99.62,114.37z M92.51,113.67c0,0.35,0,0.68-0.02,1h-5.08
	c-0.02-0.33-0.02-0.65-0.02-1H92.51z M84.77,120.23v0.83h-4.88v-0.83H84.77z M92.51,113.67c0,0.35,0,0.68-0.02,1h-5.08
	c-0.02-0.33-0.02-0.65-0.02-1H92.51z M92.51,113.67c0,0.35,0,0.68-0.02,1h-5.08c-0.02-0.33-0.02-0.65-0.02-1H92.51z M150.63,105.09
	c-1.03-2.42-2.05-4.7-3.17-6.93c-2.17-4.31-5.97-7.94-7.49-12.4c-9.14-26.78-32.14-44.63-58.22-44.59
	c-25.22,0.04-48.87,19.14-57.18,45.9c-1.01,3.25-2.36,7.12-4.92,9.05c-10.88,8.19-2.86,20.64,0.72,21.3
	c-6.54,4.41-14.96,12.46-15.97,18.27c-1.74,10.03,5.11,18.09,13.81,18.4c9.22,0.33,13.23-4.69,13.26-16.78
	c0.03-11.97-0.09-23.95-0.09-35.92C31.38,78.34,51.53,65.57,72.3,76.32c7.46,3.86,12.56,4.87,20.1,0.07
	c15.72-10.01,42.12-0.57,41.34,25.63c0.15,11.99-0.4,23.91-0.34,35.89c0.06,11.63,3.75,16.24,12.68,16.19
	c8.88-0.05,15.08-7.66,14.77-17.91c-0.35-11.62-8.07-16.17-17.8-19.6l0,0C148.96,116.59,152.94,110.54,150.63,105.09z M84.97,132.88
	H79.8v1.29h5.21C84.99,133.73,84.97,133.31,84.97,132.88z M84.97,132.88H79.8v1.29h5.21C84.99,133.73,84.97,133.31,84.97,132.88z
	 M72.54,132.94c0,0.41,0.02,0.83,0.02,1.24h5.06v-1.24H72.54z M72.54,132.94c0,0.41,0.02,0.83,0.02,1.24h5.06v-1.24H72.54z
	 M109.48,132.99c-0.02,0.39-0.02,0.81-0.04,1.22h4.99v-1.22H109.48z M109.48,132.99c-0.02,0.39-0.02,0.81-0.04,1.22h4.99v-1.22
	H109.48z M87.06,132.94v1.11h5.45v-1.11H87.06z M87.06,132.94v1.11h5.45v-1.11H87.06z M87.39,113.67c0,0.35,0,0.68,0.02,1h5.08
	c0.02-0.33,0.02-0.65,0.02-1H87.39z M87.39,113.67c0,0.35,0,0.68,0.02,1h5.08c0.02-0.33,0.02-0.65,0.02-1H87.39z M99.58,113.67
	h-5.15c0.02,0.22,0.04,0.46,0.09,0.7h5.1C99.6,114.13,99.6,113.89,99.58,113.67z M99.58,113.67h-5.15c0.02,0.22,0.04,0.46,0.09,0.7
	h5.1C99.6,114.13,99.6,113.89,99.58,113.67z M109.35,139.44v1.13h5.04v-1.13H109.35z M109.35,139.44v1.13h5.04v-1.13H109.35z
	 M63.06,139.79h-5.25v0.83h5.28C63.08,140.33,63.08,140.05,63.06,139.79z M63.06,139.79h-5.25v0.83h5.28
	C63.08,140.33,63.08,140.05,63.06,139.79z M87.33,120.25v1.02h5.1v-1.02H87.33z M87.33,120.25v1.02h5.1v-1.02H87.33z M94.52,126.51
	c0,0.33,0,0.65-0.02,1h5.19v-1H94.52z M94.52,126.51c0,0.33,0,0.65-0.02,1h5.19v-1H94.52z M87.3,152.21v0.92h5.12v-0.92H87.3z
	 M87.3,152.21v0.92h5.12v-0.92H87.3z M99.71,132.88h-5.28c0.02,0.33,0.04,0.65,0.04,0.96h5.25
	C99.71,133.53,99.71,133.2,99.71,132.88z M99.71,132.88h-5.28c0.02,0.33,0.04,0.65,0.04,0.96h5.25
	C99.71,133.53,99.71,133.2,99.71,132.88z M57.78,146.11v0.81h5.12v-0.81H57.78z M57.78,146.11v0.81h5.12v-0.81H57.78z M62.86,152.28
	h-5.12c0.02,0.26,0.02,0.5,0.02,0.74h5.12C62.86,152.78,62.86,152.54,62.86,152.28z M62.86,152.28h-5.12
	c0.02,0.26,0.02,0.5,0.02,0.74h5.12C62.86,152.78,62.86,152.54,62.86,152.28z M79.91,152.24c0.02,0.31,0.04,0.59,0.04,0.89h5.06
	v-0.89H79.91z M79.91,152.24c0.02,0.31,0.04,0.59,0.04,0.89h5.06v-0.89H79.91z M94.48,107.15c0.02,0.24,0.02,0.5,0.02,0.76h5.19
	v-0.76H94.48z M94.48,107.15c0.02,0.24,0.02,0.5,0.02,0.76h5.19v-0.76H94.48z M109.28,126.6c0.02,0.35,0.02,0.68,0.02,1.02h5.1
	v-1.02H109.28z M109.28,126.6c0.02,0.35,0.02,0.68,0.02,1.02h5.1v-1.02H109.28z M65.39,145.94c0,0.31,0.02,0.59,0.02,0.89h4.88
	v-0.89H65.39z M65.39,145.94c0,0.31,0.02,0.59,0.02,0.89h4.88v-0.89H65.39z M79.91,145.98c0,0.28,0,0.59-0.02,0.89h4.93
	c0-0.31,0-0.61,0.02-0.89H79.91z M79.91,145.98c0,0.28,0,0.59-0.02,0.89h4.93c0-0.31,0-0.61,0.02-0.89H79.91z M87.3,146.11
	c0,0.31,0,0.59,0.02,0.89h4.86c0-0.31,0-0.59,0.02-0.89H87.3z M87.3,146.11c0,0.31,0,0.59,0.02,0.89h4.86c0-0.31,0-0.59,0.02-0.89
	H87.3z M87.3,126.55v0.89h4.97v-0.89H87.3z M87.3,126.55v0.89h4.97v-0.89H87.3z M79.87,126.53v0.96h4.97v-0.96H79.87z M79.87,126.53
	v0.96h4.97v-0.96H79.87z M94.72,120.12c0.02,0.31,0.02,0.63,0.02,0.94h4.88v-0.94H94.72z M94.72,120.12
	c0.02,0.31,0.02,0.63,0.02,0.94h4.88v-0.94H94.72z M109.3,152.39v0.92h5.06c0.02-0.31,0.02-0.61,0.02-0.92H109.3z M109.3,152.39
	v0.92h5.06c0.02-0.31,0.02-0.61,0.02-0.92H109.3z M79.89,120.23v0.83h4.88v-0.83H79.89z M79.89,120.23v0.83h4.88v-0.83H79.89z
	 M94.72,145.8v0.92h4.95v-0.92H94.72z M94.72,145.8v0.92h4.95v-0.92H94.72z M79.98,139.79c0,0.31,0.02,0.63,0.02,0.96h4.8
	c0.02-0.33,0.02-0.65,0.02-0.96H79.98z M79.98,139.79c0,0.31,0.02,0.63,0.02,0.96h4.8c0.02-0.33,0.02-0.65,0.02-0.96H79.98z
	 M106.95,139.66h-4.77v0.89h4.8C106.97,140.25,106.97,139.94,106.95,139.66z M106.95,139.66h-4.77v0.89h4.8
	C106.97,140.25,106.97,139.94,106.95,139.66z M102.13,146.18c0,0.22,0,0.44-0.02,0.65h4.82c0-0.22,0.02-0.44,0.02-0.65H102.13z
	 M102.13,146.18c0,0.22,0,0.44-0.02,0.65h4.82c0-0.22,0.02-0.44,0.02-0.65H102.13z M109.35,145.96c-0.02,0.31-0.02,0.61-0.04,0.89
	h4.88v-0.89H109.35z M109.35,145.96c-0.02,0.31-0.02,0.61-0.04,0.89h4.88v-0.89H109.35z M50.57,152.37v0.85h5.04l0.07-0.85H50.57z
	 M50.57,152.37v0.85h5.04l0.07-0.85H50.57z M65.31,152.32v0.87h4.99c0.02-0.28,0.02-0.57,0.04-0.87H65.31z M65.31,152.32v0.87h4.99
	c0.02-0.28,0.02-0.57,0.04-0.87H65.31z M94.63,152.39v0.92h5.04c0-0.31,0.02-0.61,0.02-0.92H94.63z M94.63,152.39v0.92h5.04
	c0-0.31,0.02-0.61,0.02-0.92H94.63z M102.13,152.41c0.02,0.31,0.02,0.59,0.02,0.89h4.82c0-0.31,0-0.59,0.02-0.89H102.13z
	 M102.13,152.41c0.02,0.31,0.02,0.59,0.02,0.89h4.82c0-0.31,0-0.59,0.02-0.89H102.13z M72.78,139.59c0,0.33,0.02,0.68,0.02,1h4.6v-1
	H72.78z M72.78,139.59c0,0.33,0.02,0.68,0.02,1h4.6v-1H72.78z M72.83,145.83v0.87h4.58v-0.87H72.83z M72.83,145.83v0.87h4.58v-0.87
	H72.83z M72.81,126.73v1h4.64v-1H72.81z M72.81,126.73v1h4.64v-1H72.81z M72.83,152.26v0.87h4.6v-0.87H72.83z M72.83,152.26v0.87
	h4.6v-0.87H72.83z M51.02,146.2c0,0.24,0.02,0.48,0.02,0.72h4.6v-0.72H51.02z M51.02,146.2c0,0.24,0.02,0.48,0.02,0.72h4.6v-0.72
	H51.02z M65.35,139.7v0.96h4.88v-0.96H65.35z M65.35,139.7v0.96h4.88v-0.96H65.35z"/>
</svg>
