<?xml version="1.0" encoding="utf-8"?>
<!-- Generator: Adobe Illustrator 27.8.1, SVG Export Plug-In . SVG Version: 6.00 Build 0)  -->
<svg version="1.1" id="Layer_1" xmlns="http://www.w3.org/2000/svg" xmlns:xlink="http://www.w3.org/1999/xlink" x="0px" y="0px"
	 viewBox="0 0 350 230" style="enable-background:new 0 0 350 230;" xml:space="preserve">
<style type="text/css">
	.st0{fill:#9B001E;}
	.st1{fill:#193259;}
	.st2{fill:#D40008;}
	.st3{fill:#7C3200;}
	.st4{fill:#4C2C76;}
	.st5{fill:#6F4B9D;}
	.st6{fill:#480252;}
	.st7{fill:#9B4D00;}
	.st8{fill:#0044B2;}
	.st9{fill:#18618B;}
	.st10{fill:#04A8CB;}
	.st11{fill:#520000;}
	.st12{fill:#421B00;}
	.st13{fill:#634900;}
	.st14{fill:#0B73AC;}
	.st15{fill:none;stroke:#0B73AC;stroke-miterlimit:10;}
	.st16{fill:#0086FF;}
	.st17{fill:#7C4F00;}
	.st18{fill:#00BCA1;}
	.st19{fill:#560382;}
	.st20{fill:#680338;}
	.st21{fill:#1FDA50;}
	.st22{fill:#6D002C;}
	.st23{fill:#8E8700;}
	.st24{fill:#220247;}
	.st25{fill:#00E1FF;}
	.st26{fill:#680040;}
	.st27{fill:#005C68;}
	.st28{fill:#3DAEB7;}
	.st29{font-family:'KlemerDisplayDEMO-Regular';}
	.st30{font-size:57.2471px;}
</style>
<path class="st28" d="M219.92,118.05l-0.02,2.45l-0.02,8.75h0.84v-11.19H219.92z M222.08,38.67h-0.41l2.26-26.3
	c0.02-0.13-0.03-0.22-0.1-0.3c-0.06-0.08-0.16-0.13-0.3-0.14c-0.21,0-0.38,0.16-0.38,0.37l-2.27,26.38l-0.14,1.59v13.2h0.78v1.62
	h0.48l-0.02-1.62l-0.06-13.1v-0.1L222.08,38.67z M224.13,38.67l1.69-13.1c0.02-0.11-0.02-0.21-0.08-0.29
	c-0.06-0.1-0.16-0.14-0.3-0.16c-0.21,0-0.38,0.14-0.41,0.33l-1.69,13.21l-0.19,1.59l0.11,13.2h0.8l-0.13-13.15l0.02-0.05
	L224.13,38.67z M223.78,120.44l-0.02-2.32c-0.06-0.05-0.13-0.06-0.19-0.06h-0.51v2.45l0.06,8.71h0.73L223.78,120.44z M222.29,120.5
	l-0.02-2.45h-0.76v11.18h0.83L222.29,120.5z M222.87,38.67l1.86-17.94c0.02-0.11-0.02-0.22-0.08-0.3c-0.06-0.08-0.16-0.13-0.32-0.14
	c-0.19,0-0.37,0.16-0.38,0.35l-1.88,18.03l-0.17,1.59v0.1l0.06,13.1h0.78l0.02,1.62h0.35c0.06,0,0.11,0,0.16,0.05l-0.02-1.67
	l-0.11-13.2l0.19-1.59H222.87z M218.36,118.05l-0.03,2.45l-0.06,8.73h0.83l0.03-8.73v-2.45H218.36z M219.95,38.67l-2.32-26.38
	c-0.02-0.19-0.19-0.37-0.43-0.37h-0.02c-0.21,0.02-0.37,0.22-0.35,0.45l2.32,26.3l0.14,1.59v0.08l-0.03,13.12h0.8v1.62h0.67V40.26
	l0.14-1.59H219.95z M217.91,38.67h-0.48l-1.57-13.21c-0.02-0.17-0.19-0.33-0.43-0.33c-0.11,0.02-0.21,0.06-0.27,0.14
	c-0.06,0.1-0.1,0.19-0.08,0.29l1.56,13.12l0.19,1.59v0.1l-0.14,13.1h0.78l-0.02,1.7c0.08-0.05,0.13-0.08,0.21-0.08h0.32l0.02-1.62
	l0.1-13.1v-0.1L217.91,38.67z M217.21,118.05c-0.13,0-0.25,0.06-0.33,0.16l-0.02,2.1l-0.1,8.91h0.72l0.05-8.71l0.03-2.45H217.21z
	 M219.15,38.67h-0.45l-1.88-18.03c-0.02-0.19-0.17-0.35-0.43-0.35h-0.02c-0.1,0.02-0.19,0.06-0.27,0.14
	c-0.05,0.08-0.08,0.19-0.08,0.3l1.88,17.94l0.17,1.59v0.1l-0.1,13.1h0.8l-0.02,1.62h0.49v-1.62l0.03-13.12v-0.08L219.15,38.67z
	 M217.21,118.05c-0.13,0-0.25,0.06-0.33,0.16l-0.02,2.1c0.08,0.11,0.21,0.19,0.35,0.19h0.32l0.03-2.45H217.21z M218.36,118.05
	l-0.03,2.45h0.8v-2.45H218.36z M223.76,118.12c-0.06-0.05-0.13-0.06-0.19-0.06h-0.51v2.45h0.51c0.08,0,0.14-0.03,0.21-0.06
	L223.76,118.12z M219.92,118.05l-0.02,2.45h0.83v-2.45H219.92z M222.27,118.05h-0.76v2.45h0.78L222.27,118.05z M226.72,130.31
	c-0.13-1-0.72-1.11-1.05-1.11c-0.25,0.02-0.6,0.02-1.02,0.02l0.08,8.84c0.54,0,0.94-0.02,1.03-0.02c0.67-0.03,0.99-0.22,1.1-1.22
	C226.9,136.61,226.91,131.98,226.72,130.31z M216.77,129.22l-0.1,8.84h0.73l0.08-8.84H216.77z M215.11,129.2
	c-0.33,0-0.94,0.11-1.05,1.11c-0.19,1.67-0.17,6.3-0.16,6.5c0.13,1,0.45,1.19,1.11,1.22c0.08,0,0.41,0.02,0.86,0.02l0.1-8.84
	C215.62,129.22,215.32,129.22,215.11,129.2z M218.26,129.23l-0.06,8.83c0.27,0,0.57,0.02,0.87,0.02l0.02-8.84H218.26z
	 M222.33,129.23h-0.83v8.84c0.32,0,0.59-0.02,0.87-0.02L222.33,129.23z M219.88,129.25l-0.03,8.83h0.87v-8.83H219.88z
	 M223.86,129.22h-0.73l0.05,8.84h0.76L223.86,129.22z M220.09,40.26v0.05l-0.03,13.15v1.62h0.67V40.26H220.09z M223.26,53.46
	l-0.11-13.2h-0.45l-0.02,0.14l0.06,13.06l0.02,1.62h0.35c0.06,0,0.11,0,0.16,0.05L223.26,53.46z M221.97,53.46l-0.06-13.1v-0.1
	h-0.38l-0.02,0.11v14.71h0.48L221.97,53.46z M217.63,40.26v0.05l-0.16,13.15l-0.02,1.7c0.08-0.05,0.13-0.08,0.21-0.08h0.32
	l0.02-1.62l0.1-13.1v-0.1H217.63z M218.87,40.26l0.02,0.05l-0.1,13.15l-0.02,1.62h0.49v-1.62l0.03-13.12v-0.08H218.87z M229.81,5.97
	c-0.92,0.37-1.72,0.49-2.43,0.49c-1.88,0-3.12-0.94-4.21-1.29c-0.24-0.06-0.49-0.11-0.76-0.11c-0.75,0-1.49,0.27-2,0.52
	c-0.51-0.25-1.27-0.52-2.02-0.52c-0.25,0-0.49,0.05-0.75,0.11c-1.1,0.33-2.35,1.29-4.21,1.29c-0.72,0-1.51-0.13-2.43-0.49
	c0,0,2.48,13.76,0.75,25.24c0,0,3.98,5.57,3.82,9.05h1.29l-0.19-1.59h-0.38c-0.65-3.08-2.07-6.54-3.05-7.84
	c1.27-9.33,0.02-18.03-0.57-22.99c1.22,0.59,3.36-0.46,4.45-0.86c1.11-0.4,2.46,0.03,3.31,0.4c0.84-0.37,2.18-0.8,3.31-0.4
	c1.1,0.4,3.21,1.45,4.44,0.86c-0.57,4.96-1.84,13.66-0.57,22.99c-0.97,1.3-2.39,4.75-3.04,7.84h-0.4l-0.19,1.59h1.24
	c-0.14-3.48,3.88-9.05,3.88-9.05C227.31,19.73,229.81,5.97,229.81,5.97z M221.66,38.67l-0.14,1.59h0.38l0.17-1.59H221.66z
	 M222.87,38.67l-0.17,1.59h0.45l0.19-1.59H222.87z M219.15,38.67h-0.45l0.16,1.59h0.43L219.15,38.67z M219.95,38.67l0.14,1.59h0.64
	l0.14-1.59H219.95z M217.91,38.67h-0.48l0.19,1.59h0.46L217.91,38.67z M229.81,5.97c-0.92,0.37-1.72,0.49-2.43,0.49
	c-1.88,0-3.12-0.94-4.21-1.29c-0.24-0.06-0.49-0.11-0.76-0.11c-0.75,0-1.49,0.27-2,0.52c-0.51-0.25-1.27-0.52-2.02-0.52
	c-0.25,0-0.49,0.05-0.75,0.11c-1.1,0.33-2.35,1.29-4.21,1.29c-0.72,0-1.51-0.13-2.43-0.49c0,0,2.48,13.76,0.75,25.24
	c0,0,3.98,5.57,3.82,9.05h1.29l-0.19-1.59h-0.38c-0.65-3.08-2.07-6.54-3.05-7.84c1.27-9.33,0.02-18.03-0.57-22.99
	c1.22,0.59,3.36-0.46,4.45-0.86c1.11-0.4,2.46,0.03,3.31,0.4c0.84-0.37,2.18-0.8,3.31-0.4c1.1,0.4,3.21,1.45,4.44,0.86
	c-0.57,4.96-1.84,13.66-0.57,22.99c-0.97,1.3-2.39,4.75-3.04,7.84h-0.4l-0.19,1.59h1.24c-0.14-3.48,3.88-9.05,3.88-9.05
	C227.31,19.73,229.81,5.97,229.81,5.97z M223.65,106.94H223l0.06,11.12h0.51c0.06,0,0.13,0.02,0.19,0.06L223.65,106.94z
	 M217.01,106.94l-0.13,11.27c0.08-0.1,0.21-0.16,0.33-0.16h0.35l0.08-11.12H217.01z M219.95,106.94l-0.03,11.12h0.81v-11.12H219.95z
	 M222.21,106.94h-0.7v11.12h0.76L222.21,106.94z M218.45,106.94l-0.1,11.12h0.76l0.03-11.12H218.45z M265.28,184.38
	c-1.16-10.26-7.74-17.95-13.01-24.14c-3.08-3.61-5.53-6.49-6.27-9.14c-0.27-0.92-0.45-1.86-0.56-2.78
	c-0.59-5.09,1.3-8.94,3.13-12.64c0.64-1.3,1.26-2.53,1.75-3.8c0.78-2.02,1.03-4.74,0.73-7.46c-0.51-4.48-2.61-8.95-6.12-8.81
	c-2.83,0.13-4.02,2.31-5.39,4.83c-1.43,2.61-3.05,5.57-6.77,6c-4.15,0.46-6.93-2.67-7.6-8.62c-0.08-0.72-0.11-1.26-0.13-1.59
	c0-0.19,0-0.32,0-0.32c0-0.16-0.02-3.64-0.05-8.97h-0.56l0.21,22.28l0.08,8.84l0.41,43.62h-0.8l-0.41-43.62l-0.08-8.84l-0.08-8.78
	l-0.02-2.32l-0.11-11.18H223l0.06,11.12v2.45l0.06,8.71l0.05,8.84l0.24,43.62h-0.8l-0.24-43.62l-0.05-8.83l-0.05-8.73l-0.02-2.45
	l-0.06-11.12h-0.7v74.74h-0.78v-74.74h-0.78l-0.03,11.12l-0.02,2.45l-0.02,8.75l-0.03,8.83l-0.11,43.6h-0.8l0.13-43.6l0.02-8.84
	l0.03-8.73v-2.45l0.03-11.12h-0.7l-0.1,11.12l-0.03,2.45l-0.06,8.73l-0.06,8.83l-0.33,43.62h-0.8l0.33-43.62l0.08-8.84l0.05-8.71
	l0.03-2.45l0.08-11.12h-0.64l-0.13,11.27l-0.02,2.1l-0.1,8.91l-0.1,8.84l-0.46,43.62h-0.8l0.46-43.62l0.1-8.84l0.24-22.28h-0.46
	c-0.02,5.33-0.03,8.81-0.03,8.97c0,0,0,0.13,0,0.32c0,0.32-0.03,0.87-0.11,1.59c-0.68,5.95-3.45,9.08-7.6,8.62
	c-3.74-0.43-5.34-3.39-6.77-6c-1.38-2.53-2.58-4.71-5.39-4.83c-3.51-0.14-5.61,4.33-6.12,8.81c-0.3,2.72-0.05,5.44,0.73,7.46
	c0.49,1.27,1.1,2.5,1.75,3.8c1.81,3.71,3.72,7.55,3.13,12.64c-0.11,0.92-0.3,1.86-0.56,2.78c-0.73,2.66-3.18,5.53-6.27,9.14
	c-5.28,6.19-11.83,13.88-13.01,24.14c-0.67,5.85,0.49,11.77,3.55,18.06c3.98,8.19,10.89,14.58,19.99,18.51
	c6.69,2.86,14.57,4.04,21.36,3.98c6.77,0.06,14.66-1.11,21.36-3.98c9.1-3.93,16.01-10.32,19.99-18.51
	C264.79,196.15,265.94,190.23,265.28,184.38z M210.22,160c-0.62,0.78-1.21,1.18-1.78,1.18c-0.59,0-1.05-0.45-1.35-0.81
	c-0.11-0.16-0.32-0.24-0.51-0.21c-1.02,0.13-2.97,3.42-3.77,5.23c-0.8,1.75-2.66,8.56-3.55,16.35c-0.24,2.07-0.4,4.2-0.46,6.31
	c-0.16,5.95-3.99,11.32-7.52,14.38c-1.26,1.1-2.15,1.59-2.56,1.75c0.52-3.16,3.61-21.61,2.78-24.98c-0.35-1.43-0.1-1.61,0.73-2.21
	c0.99-0.72,2.64-1.92,4.26-6.14c3.48-9.14,6.5-13.82,9.43-14.71c2-0.59,3.66,0.25,4.36,1.29C210.85,158.27,210.84,159.21,210.22,160
	z M224.86,203.45c-0.16,1.76-1.65,3.1-3.43,3.1h-2.08c-1.77,0-3.26-1.34-3.42-3.1c-0.46-4.66-1.22-12.94-1.43-15.3
	c3.77-1.61,8.03-1.61,11.8,0C226.07,190.5,225.31,198.79,224.86,203.45z M229.66,185.49h-18.54v-3.01h18.54V185.49z M236.6,207.88
	c-2.72,0-4.93-2.21-4.93-4.93c0-2.74,2.21-4.95,4.93-4.95c2.72,0,4.93,2.21,4.93,4.95C241.53,205.67,239.32,207.88,236.6,207.88z
	 M242.66,211.4c-0.97,0-1.76-0.78-1.76-1.75c0-0.99,0.8-1.77,1.76-1.77c0.97,0,1.77,0.78,1.77,1.77
	C244.42,210.62,243.63,211.4,242.66,211.4z M249.51,202.43c-3.53-3.05-7.36-8.43-7.52-14.38c-0.06-2.11-0.22-4.25-0.46-6.31
	c-0.89-7.79-2.77-14.6-3.55-16.35c-0.81-1.81-2.77-5.1-3.77-5.23c-0.19-0.03-0.38,0.05-0.51,0.21c-0.3,0.37-0.78,0.81-1.37,0.81
	c-0.56,0-1.14-0.4-1.76-1.18c-0.62-0.8-0.65-1.73-0.08-2.58c0.7-1.03,2.39-1.88,4.37-1.29c2.93,0.89,5.93,5.57,9.43,14.71
	c1.62,4.21,3.28,5.42,4.26,6.14c0.83,0.6,1.07,0.78,0.72,2.21c-0.81,3.37,2.26,21.82,2.8,24.98
	C251.66,204.02,250.78,203.52,249.51,202.43z M237.3,24.99c-0.19-1.22-0.54-1.57-1.13-1.59c-0.46-0.02-2.02,0.3-2.61,0.48
	c-0.95,0.29-0.43,1.18-1.07,1.29c-0.37,0.06-0.91,0.16-1.29,0.21c0.02,0.38,0.03,0.76,0.06,1.15c0.22-0.02,0.8-0.1,1.34-0.1
	c0.7,0,0.35,1.1,1.35,1.18c0.94,0.08,2.27-0.21,2.67-0.35C237.52,26.92,237.49,26.07,237.3,24.99z M208.29,25.17
	c-0.64-0.11-0.13-1-1.07-1.29c-0.6-0.17-2.16-0.49-2.61-0.48c-0.59,0.02-0.94,0.37-1.14,1.59c-0.18,1.08-0.21,1.92,0.67,2.26
	c0.41,0.14,1.75,0.43,2.69,0.35c0.99-0.08,0.65-1.18,1.34-1.18c0.56,0,1.14,0.08,1.35,0.1c0.03-0.38,0.05-0.76,0.06-1.15
	C209.21,25.33,208.66,25.23,208.29,25.17z M237.3,18.28c-0.19-1.22-0.54-1.57-1.13-1.59c-0.46-0.02-2.02,0.3-2.61,0.48
	c-0.95,0.29-0.43,1.16-1.07,1.29c-0.37,0.06-0.91,0.14-1.3,0.19c0,0.4-0.02,0.8-0.03,1.18c0.02,0,0.78-0.11,1.45-0.11
	c0.7,0,0.35,1.1,1.35,1.18c0.94,0.08,2.27-0.21,2.67-0.35C237.52,20.21,237.49,19.35,237.3,18.28z M237.52,11.79
	c-0.22-1.21-0.56-1.56-1.16-1.57c-0.43-0.02-1.99,0.29-2.61,0.48c-0.92,0.27-0.43,1.16-1.05,1.27c-0.29,0.05-0.68,0.13-1.02,0.18
	c-0.05,0.37-0.08,0.78-0.13,1.18c0.27-0.02,0.78-0.08,1.27-0.1c0.68,0,0.35,1.11,1.34,1.19c0.94,0.08,2.26-0.21,2.69-0.37
	C237.73,13.73,237.69,12.88,237.52,11.79z M209.58,18.65c-0.38-0.05-0.92-0.13-1.29-0.19c-0.64-0.13-0.13-1-1.07-1.29
	c-0.6-0.17-2.16-0.49-2.61-0.48c-0.59,0.02-0.94,0.37-1.14,1.59c-0.18,1.07-0.21,1.92,0.67,2.26c0.41,0.14,1.75,0.43,2.69,0.35
	c0.99-0.08,0.65-1.18,1.34-1.18s1.45,0.11,1.46,0.11C209.61,19.44,209.6,19.05,209.58,18.65z M209.1,12.14
	c-0.33-0.05-0.73-0.13-1.03-0.18c-0.62-0.11-0.11-1-1.05-1.27c-0.6-0.19-2.16-0.49-2.61-0.48c-0.59,0.02-0.94,0.37-1.15,1.57
	c-0.17,1.08-0.19,1.94,0.67,2.26c0.43,0.16,1.75,0.45,2.67,0.37c1.02-0.08,0.67-1.19,1.35-1.19c0.48,0.02,0.99,0.08,1.27,0.1
	C209.18,12.92,209.13,12.53,209.1,12.14z M223.78,120.44c-0.06,0.03-0.13,0.06-0.21,0.06h-0.51l0.06,8.71h0.73L223.78,120.44z
	 M218.33,120.5l-0.06,8.73h0.83l0.03-8.73H218.33z M219.9,120.5l-0.02,8.75h0.84v-8.75H219.9z M222.29,120.5h-0.78v8.73h0.83
	L222.29,120.5z M217.21,120.5c-0.14,0-0.27-0.08-0.35-0.19l-0.1,8.91h0.72l0.05-8.71H217.21z M215.54,42.95c0,0-0.03-0.02-0.05-0.02
	l-0.17,10.53h0.57c0.03-4.29,0.05-7.95,0.08-10.51H215.54z M225.23,42.93c0,0-0.03,0.02-0.05,0.02h-0.41
	c0.02,2.56,0.05,6.22,0.06,10.51h0.59L225.23,42.93z M217.47,53.46l-0.02,1.7c0.08-0.05,0.13-0.08,0.21-0.08h0.32l0.02-1.62H217.47z
	 M222.87,38.67l1.86-17.94c0.02-0.11-0.02-0.22-0.08-0.3c-0.06-0.08-0.16-0.13-0.32-0.14c-0.19,0-0.37,0.16-0.38,0.35l-1.88,18.03
	h-0.41l2.26-26.3c0.02-0.13-0.03-0.22-0.1-0.3c-0.06-0.08-0.16-0.13-0.3-0.14c-0.21,0-0.38,0.16-0.38,0.37l-2.27,26.38h-0.92
	l-2.32-26.38c-0.02-0.19-0.19-0.37-0.43-0.37h-0.02c-0.21,0.02-0.37,0.22-0.35,0.45l2.32,26.3h-0.45l-1.88-18.03
	c-0.02-0.19-0.17-0.35-0.43-0.35h-0.02c-0.1,0.02-0.19,0.06-0.27,0.14c-0.05,0.08-0.08,0.19-0.08,0.3l1.88,17.94l0.17,1.59v0.1
	l-0.1,13.1h0.8l-0.02,1.62h0.49v-1.62h0.8v1.62h0.67v-1.62h0.78v1.62h0.48l-0.02-1.62h0.78l0.02,1.62h0.35c0.06,0,0.11,0,0.16,0.05
	l-0.02-1.67l-0.11-13.2l0.19-1.59H222.87z M222.87,38.67l1.86-17.94c0.02-0.11-0.02-0.22-0.08-0.3c-0.06-0.08-0.16-0.13-0.32-0.14
	c-0.19,0-0.37,0.16-0.38,0.35l-1.88,18.03h-0.41l2.26-26.3c0.02-0.13-0.03-0.22-0.1-0.3c-0.06-0.08-0.16-0.13-0.3-0.14
	c-0.21,0-0.38,0.16-0.38,0.37l-2.27,26.38h-0.92l-2.32-26.38c-0.02-0.19-0.19-0.37-0.43-0.37h-0.02c-0.21,0.02-0.37,0.22-0.35,0.45
	l2.32,26.3h-0.45l-1.88-18.03c-0.02-0.19-0.17-0.35-0.43-0.35h-0.02c-0.1,0.02-0.19,0.06-0.27,0.14c-0.05,0.08-0.08,0.19-0.08,0.3
	l1.88,17.94l0.17,1.59v0.1l-0.1,13.1h0.8l-0.02,1.62h0.49v-1.62h0.8v1.62h0.67v-1.62h0.78v1.62h0.48l-0.02-1.62h0.78l0.02,1.62h0.35
	c0.06,0,0.11,0,0.16,0.05l-0.02-1.67l-0.11-13.2l0.19-1.59H222.87z M222.87,38.67l1.86-17.94c0.02-0.11-0.02-0.22-0.08-0.3
	c-0.06-0.08-0.16-0.13-0.32-0.14c-0.19,0-0.37,0.16-0.38,0.35l-1.88,18.03h-0.41l2.26-26.3c0.02-0.13-0.03-0.22-0.1-0.3
	c-0.06-0.08-0.16-0.13-0.3-0.14c-0.21,0-0.38,0.16-0.38,0.37l-2.27,26.38h-0.92l-2.32-26.38c-0.02-0.19-0.19-0.37-0.43-0.37h-0.02
	c-0.21,0.02-0.37,0.22-0.35,0.45l2.32,26.3h-0.45l-1.88-18.03c-0.02-0.19-0.17-0.35-0.43-0.35h-0.02c-0.1,0.02-0.19,0.06-0.27,0.14
	c-0.05,0.08-0.08,0.19-0.08,0.3l1.88,17.94l0.17,1.59v0.1l-0.1,13.1h0.8l-0.02,1.62h0.49v-1.62h0.8v1.62h0.67v-1.62h0.78v1.62h0.48
	l-0.02-1.62h0.78l0.02,1.62h0.35c0.06,0,0.11,0,0.16,0.05l-0.02-1.67l-0.11-13.2l0.19-1.59H222.87z M225.42,53.46l0.03,1.75h-0.6
	c0-0.59,0-1.18-0.02-1.75h-0.78l0.02,1.75h-7.39l0.02-1.75h-0.8v1.75h-0.6l0.03-1.75H84.51v3.51h177.58v-3.51H225.42z M218.09,40.26
	v0.1l-0.1,13.1h0.8l-0.02,1.62h0.49v-1.62h0.8v1.62h0.67v-1.62h0.78v1.62h0.48l-0.02-1.62h0.78l0.02,1.62h0.35
	c0.06,0,0.11,0,0.16,0.05l-0.02-1.67l-0.11-13.2l0.19-1.59h-0.46l1.86-17.94c0.02-0.11-0.02-0.22-0.08-0.3
	c-0.06-0.08-0.16-0.13-0.32-0.14c-0.19,0-0.37,0.16-0.38,0.35l-1.88,18.03h-0.41l2.26-26.3c0.02-0.13-0.03-0.22-0.1-0.3
	c-0.06-0.08-0.16-0.13-0.3-0.14c-0.21,0-0.38,0.16-0.38,0.37l-2.27,26.38h-0.92l-2.32-26.38c-0.02-0.19-0.19-0.37-0.43-0.37h-0.02
	c-0.21,0.02-0.37,0.22-0.35,0.45l2.32,26.3h-0.45l-1.88-18.03c-0.02-0.19-0.17-0.35-0.43-0.35h-0.02c-0.1,0.02-0.19,0.06-0.27,0.14
	c-0.05,0.08-0.08,0.19-0.08,0.3l1.88,17.94L218.09,40.26z M222.87,38.67l1.86-17.94c0.02-0.11-0.02-0.22-0.08-0.3
	c-0.06-0.08-0.16-0.13-0.32-0.14c-0.19,0-0.37,0.16-0.38,0.35l-1.88,18.03h-0.41l2.26-26.3c0.02-0.13-0.03-0.22-0.1-0.3
	c-0.06-0.08-0.16-0.13-0.3-0.14c-0.21,0-0.38,0.16-0.38,0.37l-2.27,26.38h-0.92l-2.32-26.38c-0.02-0.19-0.19-0.37-0.43-0.37h-0.02
	c-0.21,0.02-0.37,0.22-0.35,0.45l2.32,26.3h-0.45l-1.88-18.03c-0.02-0.19-0.17-0.35-0.43-0.35h-0.02c-0.1,0.02-0.19,0.06-0.27,0.14
	c-0.05,0.08-0.08,0.19-0.08,0.3l1.88,17.94l0.17,1.59v0.1l-0.1,13.1h0.8l-0.02,1.62h0.49v-1.62h0.8v1.62h0.67v-1.62h0.78v1.62h0.48
	l-0.02-1.62h0.78l0.02,1.62h0.35c0.06,0,0.11,0,0.16,0.05l-0.02-1.67l-0.11-13.2l0.19-1.59H222.87z M222.87,38.67l1.86-17.94
	c0.02-0.11-0.02-0.22-0.08-0.3c-0.06-0.08-0.16-0.13-0.32-0.14c-0.19,0-0.37,0.16-0.38,0.35l-1.88,18.03h-0.41l2.26-26.3
	c0.02-0.13-0.03-0.22-0.1-0.3c-0.06-0.08-0.16-0.13-0.3-0.14c-0.21,0-0.38,0.16-0.38,0.37l-2.27,26.38h-0.92l-2.32-26.38
	c-0.02-0.19-0.19-0.37-0.43-0.37h-0.02c-0.21,0.02-0.37,0.22-0.35,0.45l2.32,26.3h-0.45l-1.88-18.03c-0.02-0.19-0.17-0.35-0.43-0.35
	h-0.02c-0.1,0.02-0.19,0.06-0.27,0.14c-0.05,0.08-0.08,0.19-0.08,0.3l1.88,17.94l0.17,1.59v0.1l-0.1,13.1h0.8l-0.02,1.62h0.49v-1.62
	h0.8v1.62h0.67v-1.62h0.78v1.62h0.48l-0.02-1.62h0.78l0.02,1.62h0.35c0.06,0,0.11,0,0.16,0.05l-0.02-1.67l-0.11-13.2l0.19-1.59
	H222.87z M217.01,106.94l-0.13,11.27c0.08-0.1,0.21-0.16,0.33-0.16h0.35l0.08-11.12H217.01z M218.45,106.94l-0.1,11.12h0.76
	l0.03-11.12H218.45z M219.95,106.94l-0.03,11.12h0.81v-11.12H219.95z M222.21,106.94h-0.7v11.12h0.76L222.21,106.94z M223.65,106.94
	H223l0.06,11.12h0.51c0.06,0,0.13,0.02,0.19,0.06L223.65,106.94z M84.51,103.42v3.51h131.24c0.02-0.7,0.02-1.45,0.02-2.23H225v2.23
	h37.08v-3.51H84.51z"/>
<g id="Logo8_00000091011595742944536430000008356049542162620093_">
	<g id="Logo6_00000057841295720615984650000001471196824675696809_">
		<text transform="matrix(1 0 0 1 93.4642 -3.7016)" class="st28 st29 st30">Music</text>
	</g>
</g>
</svg>
