<?xml version="1.0" encoding="utf-8"?>
<!-- Generator: Adobe Illustrator 27.8.1, SVG Export Plug-In . SVG Version: 6.00 Build 0)  -->
<svg version="1.1" id="Layer_1" xmlns="http://www.w3.org/2000/svg" xmlns:xlink="http://www.w3.org/1999/xlink" x="0px" y="0px"
	 viewBox="0 0 300 300" style="enable-background:new 0 0 300 300;" xml:space="preserve">
<style type="text/css">
	.st0{display:none;}
	.st1{display:inline;}
	.st2{fill:#008294;}
	.st3{font-family:'Raleway-ExtraBold';}
	.st4{font-size:44.9973px;}
</style>
<g>
	<g id="Text_00000043414733393633428200000010830088298875186111_" class="st0">
		<g class="st1">
			<g id="Text_00000005252162297175192900000012640959593043270798_">
				<text transform="matrix(1 0 0 1 68.1836 221.0027)" class="st2 st3 st4">Mus  c</text>
			</g>
		</g>
	</g>
	<path class="st2" d="M198.58,81.25c-0.75-0.76-1.98-0.76-2.74,0l-9.61,9.61c-0.76,0.75-0.76,1.98,0,2.74
		c0.76,0.76,1.99,0.76,2.75,0l9.6-9.61C199.34,83.24,199.34,82.01,198.58,81.25z M204.14,86.24c-1.07,0-1.94,0.87-1.94,1.94v13.59
		c0,1.07,0.87,1.94,1.94,1.94s1.94-0.87,1.94-1.94V88.18C206.08,87.11,205.21,86.24,204.14,86.24z M191.65,73.74h-13.58
		c-1.08,0-1.95,0.86-1.95,1.94c0,1.07,0.87,1.94,1.95,1.94h13.58c1.08,0,1.94-0.87,1.94-1.94C193.59,74.6,192.73,73.74,191.65,73.74
		z M181.93,97.87c-4.89-4.88-11.89-6.15-17.88-4.02l21.9,21.9C188.09,109.76,186.83,102.76,181.93,97.87z M145.35,149.15h-4.89
		c-2.7,0-4.9,2.2-4.9,4.9v31.83h14.69v-31.83C150.24,151.35,148.04,149.15,145.35,149.15z M142.91,158.94
		c-1.36,0-2.45-1.09-2.45-2.44c0-1.36,1.09-2.45,2.45-2.45c1.35,0,2.44,1.09,2.44,2.45C145.35,157.85,144.26,158.94,142.91,158.94z
		 M98.83,163.67l-3.46,3.46c-1.92,1.91-1.92,5.01,0,6.93l10.39,10.38c1.91,1.91,5.01,1.91,6.92,0l3.46-3.46L98.83,163.67z
		 M115.11,152.58l-3.47,3.46l3.47,3.46l3.46-3.46L115.11,152.58z M144.15,95.04l-7.82,19.56l28.88,28.88l19.56-7.82L144.15,95.04z
		 M148.2,84.92l-2.07,5.18l43.59,43.58l5.18-2.07L148.2,84.92z M115.11,152.58l-3.47,3.46l3.47,3.46l3.46-3.46L115.11,152.58z
		 M115.11,152.58l-3.47,3.46l3.47,3.46l3.46-3.46L115.11,152.58z M133.46,118.65l-32.9,32.9c-1.91,1.91-1.91,5.01,0,6.92
		c0.33,0.33,20.78,20.78,20.78,20.78c1.91,1.91,5.02,1.91,6.93,0l2.39-2.4v-22.8c0-5.4,4.4-9.8,9.8-9.8h4.89
		c4.88,0,8.93,3.58,9.67,8.24l6.14-6.14L133.46,118.65z M123.77,157.77l-6.92,6.93c-0.96,0.95-2.51,0.95-3.47,0l-6.92-6.93
		c-0.96-0.96-0.96-2.51,0-3.46l6.92-6.93c0.96-0.95,2.51-0.95,3.47,0l6.92,6.93C124.73,155.26,124.73,156.81,123.77,157.77z
		 M111.65,156.04l3.47,3.46l3.46-3.46l-3.46-3.46L111.65,156.04z M115.11,152.58l-3.47,3.46l3.47,3.46l3.46-3.46L115.11,152.58z
		 M135.55,185.88v40.38h14.69v-40.38H135.55z"/>
</g>
</svg>
