<?xml version="1.0" encoding="utf-8"?>
<!-- Generator: Adobe Illustrator 27.8.1, SVG Export Plug-In . SVG Version: 6.00 Build 0)  -->
<svg version="1.1" id="Layer_1" xmlns="http://www.w3.org/2000/svg" xmlns:xlink="http://www.w3.org/1999/xlink" x="0px" y="0px"
	 viewBox="0 0 300 300" style="enable-background:new 0 0 300 300;" xml:space="preserve">
<style type="text/css">
	.st0{fill:#7C3200;}
	.st1{fill:#4C2C76;}
	.st2{fill:#6F4B9D;}
	.st3{display:none;}
	.st4{display:inline;fill:#6F4B9D;}
	.st5{font-family:'GOWESPersonalUse';}
	.st6{font-size:44.0625px;}
</style>
<g>
	<g>
		<path class="st0" d="M188.08,156.44H113.4c-2.38,0-4.32-1.93-4.32-4.32c0-2.38,1.93-4.32,4.32-4.32h74.68
			c2.38,0,4.32,1.93,4.32,4.32C192.4,154.51,190.47,156.44,188.08,156.44z M146.7,172.19l8-18.34c0.95-2.19-0.05-4.73-2.23-5.68
			c-2.19-0.95-4.73,0.05-5.68,2.23l-8,18.34c-0.77,1.76-2.5,2.9-4.42,2.9H113.4c-2.38,0-4.32,1.93-4.32,4.32
			c0,2.38,1.93,4.32,4.32,4.32h20.97C139.72,180.27,144.56,177.1,146.7,172.19z M192.4,175.95c0-2.38-1.93-4.32-4.32-4.32h-20.97
			c-1.92,0-3.66-1.14-4.42-2.9l-8-18.34c-0.95-2.18-3.49-3.18-5.68-2.23c-2.18,0.95-3.18,3.5-2.23,5.68l8,18.34
			c2.14,4.91,6.98,8.08,12.34,8.08h20.97C190.47,180.27,192.4,178.34,192.4,175.95z"/>
		<path d="M193.15,141.9c0,10.48-3.93,20.98-6.51,24.1c-2.58,3.12-1.75,7.64-2.53,7.64c0,0-2.58,0.13-1.21-16.87
			c0.43-5.32,0.12-9.84-0.79-13.6c-0.98,4.76-4.16,8.38-7.93,11.1c-0.37-10.06-3.41-16.03-3.41-16.03
			c-0.73,16.96-5.35,20.68-5.35,20.68c1.75-26.29-8.37-28.94-8.37-28.94c9.9,15.66,0,31.46,0,31.46
			c-0.2-19.36-16.06-27.68-18.71-28.94c-0.87-0.39-1.81-0.78-2.84-1.11c-15.03-4.91-21.26,20.31-20,26.96
			c1.94,10.25-0.76,16.15-1.79,15.88c0,0-0.04-2.61-0.97-4.92c-2.77-6.91-5.1-2.11-5.53-11.48c-0.5-10.97-2.12-14.98-1.6-20.84
			c0.51-5.73,3.15-13.41,3.16-13.44c-0.01,0.01-0.12,0.03-1.26,0.03c-7.07-0.02-11.06-7.21-11.06-7.21s2.66,4.1,11.84,0.91
			c8.97-3.12,8.74-13.27,21.63-18.94c6.6-2.9,10.53-2.52,12.82-1.47c-2.32-1.99-7.06-1.82-7.06-1.82s5.86-3.39,14.93-0.35
			c6.36,2.14,10.18,4.58,12.32,6.32l-3.57-3.58c0,0,12.9,4.81,21.66,14.73C189.78,122.09,193.15,131.41,193.15,141.9z"/>
		<g id="XMLID_5195_">
			<path class="st1" d="M113.21,159.04c1.41,12.37,2.43,21.97-3.36,22.56c-5.79,0.59-11.63-8.96-13.04-21.33
				c-1.41-12.37,2.14-22.88,7.93-23.48C110.53,136.2,111.8,146.66,113.21,159.04z M186.79,159.04c-1.41,12.37-2.43,21.97,3.36,22.56
				c5.79,0.59,11.63-8.96,13.04-21.33c1.41-12.37-2.14-22.88-7.93-23.48C189.47,136.2,188.2,146.66,186.79,159.04z M191.5,86.65
				c-9.01-9.9-22.95-14.9-41.55-14.84c-18.59-0.06-32.54,4.94-41.55,14.84c-10.86,11.95-13.59,30.08-7.91,52.42l3.44-0.71
				c-5.32-21.05-2.77-38.67,7.2-49.66c8.3-9.13,21.39-13.75,38.82-13.69c17.42-0.06,30.51,4.55,38.81,13.69
				c9.97,10.99,12.53,28.61,7.2,49.66l3.44,0.71C205.08,116.74,202.35,98.6,191.5,86.65z M103.6,136.99c0,0-1.81,0.7-2.77,2.01
				l3.09-0.65L103.6,136.99z"/>
			<path class="st2" d="M108.45,159.65c1.3,11.39,2.24,20.22-3.09,20.77c-5.33,0.55-10.71-8.24-12.01-19.63
				c-1.3-11.39,1.97-21.07,7.3-21.62C105.99,138.62,107.15,148.26,108.45,159.65z M191.55,159.65c-1.3,11.39-2.24,20.22,3.09,20.77
				c5.33,0.55,10.71-8.24,12.01-19.63c1.3-11.39-1.97-21.07-7.3-21.62C194.01,138.62,192.85,148.26,191.55,159.65z"/>
		</g>
	</g>
	<g class="st3">
		<text transform="matrix(1 0 0 1 87.1896 219.2414)" class="st4 st5 st6">Music</text>
	</g>
</g>
</svg>
