<?xml version="1.0" encoding="utf-8"?>
<!-- Generator: Adobe Illustrator 27.8.1, SVG Export Plug-In . SVG Version: 6.00 Build 0)  -->
<svg version="1.1" xmlns="http://www.w3.org/2000/svg" xmlns:xlink="http://www.w3.org/1999/xlink" x="0px" y="0px"
	 viewBox="0 0 350 230" style="enable-background:new 0 0 350 230;" xml:space="preserve">
<style type="text/css">
	.st0{display:none;}
	.st1{display:inline;}
	.st2{stroke:#000000;stroke-miterlimit:10;}
	.st3{stroke:#ED1C24;stroke-miterlimit:10;}
	.st4{fill:#5ABB4A;}
	.st5{fill:#23B674;}
	.st6{fill:#EB95D4;}
	.st7{fill:#CFCC7F;}
	.st8{fill:#F4C543;}
	.st9{fill:#0F2846;}
	.st10{fill:#D2F0F8;}
	.st11{fill:#E4C372;}
	.st12{fill:#B6C462;}
	.st13{fill:#E7A76A;}
	.st14{fill:#DDD27F;}
	.st15{fill:#071641;}
	.st16{fill:#1E3E71;}
	.st17{fill:#F5ECE3;}
	.st18{fill:#004FFA;}
	.st19{fill:#65FF00;}
	.st20{fill:#00FFAA;}
	.st21{fill:#FF0000;}
	.st22{fill:#003DFF;}
	.st23{fill:#BC00B3;}
	.st24{fill:#9E0000;}
	.st25{fill:#FFFFFF;}
	.st26{fill:#590028;}
	.st27{fill:#76DFFF;}
	.st28{fill:#013300;}
	.st29{fill:#FEFEFE;}
	.st30{fill:#750000;}
	.st31{fill:#965400;}
	.st32{fill:#FF00BD;}
	.st33{fill:#00FF48;}
	.st34{fill:#777400;}
	.st35{fill:#FF00DB;}
	.st36{fill:#00B4C9;}
	.st37{fill:#FF1100;}
	.st38{fill:#00FFD1;}
	.st39{fill:#FF00FF;}
	.st40{fill:#DE1800;}
	.st41{fill:#00E1FF;}
	.st42{fill:#0043A5;}
	.st43{fill:#F6CC3A;}
	.st44{fill:#D42E1E;}
	.st45{fill:#0AA66E;}
	.st46{fill:#D6343B;}
	.st47{fill:#EE712E;}
	.st48{fill:#65AD45;}
	.st49{fill:#FF1A5C;}
	.st50{fill:#009EFF;}
	.st51{fill:#E2E2E2;}
	.st52{fill:#DCEFEB;}
	.st53{fill:#FA4D7C;}
	.st54{fill:#53C7E4;}
	.st55{fill:#FFFD08;}
	.st56{fill:#006800;}
	.st57{fill:#00AAFF;}
	.st58{fill:#BF0097;}
	.st59{fill-rule:evenodd;clip-rule:evenodd;fill:#EB95D4;}
	.st60{fill-rule:evenodd;clip-rule:evenodd;fill:#1E3E71;}
	.st61{fill-rule:evenodd;clip-rule:evenodd;fill:#FFFFFF;}
	.st62{fill-rule:evenodd;clip-rule:evenodd;fill:#00FF00;}
	.st63{fill:#D44B34;}
	.st64{fill:#00CEB0;}
	.st65{fill:#001D51;}
	.st66{fill:#338B49;}
	.st67{fill:#4FCAB8;}
	.st68{fill:#12C291;}
	.st69{fill:#D489C4;}
	.st70{fill:#D338A5;}
	.st71{fill:#682E78;}
	.st72{fill:#283B80;}
	.st73{fill:#D98DBC;}
	.st74{fill:#D8A3C6;}
	.st75{fill:#23408E;}
	.st76{fill:#EC3FA8;}
	.st77{fill:#E44838;}
	.st78{fill:#63BED7;}
	.st79{fill:#F55184;}
	.st80{fill:#009344;}
	.st81{fill:#32CDF5;}
	.st82{fill:#F67E39;}
	.st83{fill:#63C8F2;}
	.st84{fill:#EB452F;}
	.st85{fill:#010B64;}
	.st86{fill:#276B00;}
	.st87{fill:#00A4FF;}
	.st88{fill:#D31038;}
	.st89{fill:#4DAA49;}
	.st90{fill:#93C43F;}
	.st91{fill:#0F4385;}
	.st92{fill:#0E9DC3;}
</style>
<g id="Backgrounds_16-30" class="st0">
</g>
<g id="Layer_2">
</g>
<g id="Layer_3">
</g>
<g id="Layer_4">
</g>
<g id="Layer_5">
</g>
<g id="Layer_6">
</g>
<g id="Layer_7">
</g>
<g id="Layer_8">
</g>
<g id="Layer_9">
</g>
<g id="Layer_10">
</g>
<g id="Layer_11">
</g>
<g id="Layer_12">
</g>
<g id="Layer_13">
</g>
<g id="Layer_14">
</g>
<g id="_x31_-15">
</g>
<g id="Layer_16">
</g>
<g id="Layer_17">
</g>
<g id="Layer_18">
</g>
<g id="Layer_19">
	<g>
		<path class="st67" d="M116.08,81.31c1.34-5.33,3.19-10.38,5.33-15.44c1.32,4.67,2.8,9.38,3.64,14.16l-0.23-0.14
			c-0.96-2.38-1.95-10.74-3.63-12.17c-0.14,0.09-0.24,0.25-0.35,0.38l0.02-0.07c-0.97,2.03-1.73,4.14-2.42,6.28
			C117.82,76.26,117.19,79.72,116.08,81.31z"/>
		<path class="st68" d="M116.08,81.31c1.12-1.59,1.74-5.05,2.37-7c0.69-2.14,1.45-4.25,2.42-6.28l-0.02,0.07
			c0.11-0.13,0.21-0.29,0.35-0.38c1.68,1.44,2.67,9.79,3.63,12.17l0.23,0.14c1.33,5.83,2.12,11.7,2.96,17.61
			c0.47,3.32,0.76,6.84,1.7,10.05c0.84-3.03,1.54-7.23,1.77-10.39c0.89,2.52,1.69,5.14,2.75,7.59l1.12,2.68
			c-1.31,2.61-2.93,5.11-4.36,7.66c-1.39,2.48-2.63,5.06-4.05,7.52c-1.53-3.93-2.68-8.05-4.39-11.91c-0.91,2.2-1.6,4.5-2.38,6.75
			c-1.69,4.88-3.32,9.81-5.09,14.66c-2.34-5.33-4.77-10.86-6.44-16.44c-6.79-0.53-11.91-6.06-17.32-9.58
			c-1.64-1.07-3.33-2.04-5.08-2.9c-1.75-0.87-3.54-1.63-5.38-2.29c-7.43-2.58-15.01-2.71-22.41,0.08c-1.8,0.68-3.49,1.58-5.22,2.42
			c2.49-2.16,5.42-3.83,8.44-5.14c9.9-4.31,22.22-3.41,31.59,1.92c2.7,1.53,5.11,4.22,7.99,5.28c0.78,0.29,1.58,0.39,2.35,0.02
			c2.98-1.43,4.45-7.33,5.41-10.23c1.34,3.57,1.52,7.53,2.49,11.2l0.14-0.07c0.51-1.98,0.68-5.93,1.01-8.19
			C113.41,92.59,114.56,86.91,116.08,81.31z"/>
		<path class="st69" d="M161.31,49.93c0.97,2.48,1.64,5.09,2.5,7.61c1.43,4.2,3.03,8.35,4.53,12.53c0.64,1.79,1.57,5.07,2.49,6.51
			c-0.51,1.69-1.62,3.34-2.26,5.01c-1.89,4.99-2.09,9.86-1.96,15.12c-2.92-3.87-5.6-8.15-7.28-12.71
			C155.14,72.64,156.27,60.81,161.31,49.93z M204.89,98.49c1.54-0.88,3.32-1.5,4.93-2.26c3.15-1.5,6.27-3.11,9.36-4.73
			c14.04-7.54,27.82-15.55,41.32-24.02c4.31-2.7,8.97-5.12,13.04-8.16c-0.58,3.51-1.3,7.06-2.41,10.45
			c-3.75,11.38-11.45,22.03-21.23,29.01c-8.64,6.17-19.21,8.06-29.55,6.29c-2.13-0.36-4.3-0.83-6.36-1.47
			c-1.21-0.38-2.33-1.01-3.54-1.38c-1.41-0.44-4.12-0.36-5.59-0.12l-0.33-0.17c-0.84,0.04-1.73,0.02-2.57,0.15
			c-0.65-0.19-1.55-0.07-2.23-0.06c-3.45,0.12-6.9,0.14-10.35,0.07l-1.82,1.16l-0.94-3.64c6.18,0.04,12.37,0.04,18.55-0.02
			c1.87-0.16,3.83-0.03,5.72-0.09C208.88,98.98,206.94,98.68,204.89,98.49z"/>
		<path class="st70" d="M181.33,98.92c-0.04-1.33,0.4-2.93,0.64-4.25c0.41,1.42,0.85,2.83,1.31,4.24c0.66,1.96,1.27,3.97,2.11,5.85
			c-1.72,2.01-3.36,3.94-4.69,6.24c-0.69,1.2-3.31,7.25-3.76,7.54c-0.27-0.25-0.27-0.58-0.28-0.94c0-0.05,0-0.09,0-0.14
			C179.18,111.17,180.25,105.56,181.33,98.92z M171.32,82.79c1.89,7.14,2.79,14.5,3.78,21.81c0.44,3.24,1.11,6.71,1.13,9.97
			c-0.76-0.84-1.45-3.34-1.93-4.48c-1.15-2.72-2.61-5.28-4.09-7.84c-1.13,0.03-2.25,0.05-3.38-0.03c-1.49-0.49-7.14-0.2-8.95-0.2
			c-6.48,0-12.99,0.11-19.46-0.06c-0.96,1.91-1.99,3.78-3.09,5.61l-1.12-2.68c0.86-1.88,1.86-3.7,2.9-5.49l32.69,0.18
			C169.77,93.17,170.22,89.04,171.32,82.79z M161.31,49.93l0.21-0.62c0.56-0.22,1.02-0.06,1.56,0.18
			c11.87,5.29,18.91,14.51,23.29,26.44c2.82,7.68,3.28,14.48,3.34,22.57l-3.48,0c-1.27-4.38-2.78-9-4.67-13.15
			c-1.02,4.73-1.77,9.39-2.42,14.18c-0.28,1.92-0.59,3.84-1.12,5.71c-0.47-1.41-0.69-3.05-0.76-4.53c-0.65-2.87-0.84-6.06-1.24-9
			c-0.93-6.8-1.81-13.57-2.5-20.41c-0.99,1.7-1.82,3.51-2.7,5.27c-0.91-1.44-1.84-4.72-2.49-6.51c-1.5-4.18-3.1-8.33-4.53-12.53
			C162.95,55.02,162.28,52.41,161.31,49.93z M186.61,99.62c6.18,0.04,12.37,0.04,18.55-0.02c2.22,0.17,4.46,0.11,6.68,0.15
			c4.65,0.12,9.3,0.16,13.95,0.13c-0.02,0.57,0,1.16-0.07,1.72c-5.48,0.09-10.96,0.07-16.44,0.23c-1.53,0.04-3.27-0.15-4.76,0.09
			c-0.84,0.04-1.73,0.02-2.57,0.15c-0.65-0.19-1.55-0.07-2.23-0.06c-3.45,0.12-6.9,0.14-10.35,0.07l-1.82,1.16L186.61,99.62z
			 M201.01,98.51c2.12-9.43,5.57-18.43,11.83-25.91c8.82-10.54,21.34-17.62,35.15-18.81c7.26-0.63,14.92,0.68,21.61,3.48
			c1.31,0.55,2.85,1.15,3.93,2.06c-4.06,3.04-8.73,5.46-13.04,8.16c-13.51,8.47-27.28,16.47-41.32,24.02
			c-3.09,1.63-6.21,3.24-9.36,4.73c-1.61,0.76-3.38,1.38-4.93,2.26L201.01,98.51z"/>
		<path class="st71" d="M189.36,102.09c3.45,0.07,6.9,0.04,10.35-0.07c-0.05,13.78-2.48,22.46-12.47,32.38
			c-4.73,4.7-10.89,9.09-17.05,11.68c1.2-2.2,2.39-4.38,3.29-6.72c2.8-7.34,2.27-15.12,0.08-22.55c-1.55-5.26-3.97-9.88-6.73-14.58
			c1.13,0.07,2.24,0.06,3.38,0.03c1.48,2.55,2.94,5.12,4.09,7.84c0.48,1.14,1.17,3.65,1.93,4.48l0.44,2.9c0,0.05,0,0.09,0,0.14
			c0,0.36,0.01,0.69,0.28,0.94c0.45-0.29,3.07-6.34,3.76-7.54c1.33-2.31,2.97-4.23,4.69-6.24c0.7-0.55,1.38-1.06,2.15-1.51
			L189.36,102.09z M161.93,97.6c-4.02-3.83-7.98-7.78-10.94-12.51c-5.15-8.24-5.83-19.56-3.64-28.9
			c2.88-12.29,11.61-25.73,22.43-32.43c-0.15,0.82-0.27,1.66-0.33,2.49c-0.85,11.67,7.11,19.64,14.14,27.71
			c8.56,9.82,11,22.2,10.15,34.86c0.64-3.13,1.5-6.13,2.57-9.14c5.26-14.76,17.56-26.74,31.58-33.39
			c18.13-8.59,38.59-8.31,57.78-3.79c3.72,0.88,7.51,1.73,11.12,3.02c-0.97,3.79-1.45,7.71-2.45,11.51
			c-4.12,15.78-11.11,31.3-22.82,42.91c-9.7,9.62-22.49,16.98-36.47,16.86c-12.77-0.11-24.21-5.75-33.09-14.72
			c0.83-0.14,1.72-0.12,2.57-0.15l0.33,0.17c4.94,2.44,9.64,4.83,15.02,6.18c12.03,3.02,23.42-0.14,33.82-6.39
			c17.32-10.39,26.97-29.97,31.7-48.98c-2.82-0.64-5.63-1.39-8.47-1.96c-18.16-3.68-37.13-2.08-52.85,8.42
			c-13.91,9.29-20.8,23.03-23.99,39.12c-3.44-0.02-6.87-0.02-10.31,0.01c0.39-2.67,0.37-5.63,0.32-8.34
			c-0.26-13.54-5.15-23.95-13.58-34.31c-1.59-1.96-3.36-3.78-4.96-5.73c-3.04-3.72-5.6-8.22-7.13-12.77
			c-0.79,0.88-1.54,1.79-2.26,2.74c-6.86,9-11.25,21.48-9.68,32.84c1.08,7.85,5.25,14.26,10.12,20.27c1.23,1.52,2.43,3.24,3.99,4.43
			L161.93,97.6z"/>
	</g>
</g>
<g id="Layer_20">
</g>
<g id="Layer_21">
</g>
</svg>
