<?xml version="1.0" encoding="utf-8"?>
<!-- Generator: Adobe Illustrator 27.8.1, SVG Export Plug-In . SVG Version: 6.00 Build 0)  -->
<svg version="1.1" xmlns="http://www.w3.org/2000/svg" xmlns:xlink="http://www.w3.org/1999/xlink" x="0px" y="0px"
	 viewBox="0 0 350 230" style="enable-background:new 0 0 350 230;" xml:space="preserve">
<style type="text/css">
	.st0{display:none;}
	.st1{display:inline;}
	.st2{stroke:#000000;stroke-miterlimit:10;}
	.st3{stroke:#ED1C24;stroke-miterlimit:10;}
	.st4{fill:#5ABB4A;}
	.st5{fill:#23B674;}
	.st6{fill:#EB95D4;}
	.st7{fill:#CFCC7F;}
	.st8{fill:#F4C543;}
	.st9{fill:#0F2846;}
	.st10{fill:#D2F0F8;}
	.st11{fill:#E4C372;}
	.st12{fill:#B6C462;}
	.st13{fill:#E7A76A;}
	.st14{fill:#DDD27F;}
	.st15{fill:#071641;}
	.st16{fill:#1E3E71;}
	.st17{fill:#F5ECE3;}
	.st18{fill:#004FFA;}
	.st19{fill:#65FF00;}
	.st20{fill:#00FFAA;}
	.st21{fill:#FF0000;}
	.st22{fill:#003DFF;}
	.st23{fill:#BC00B3;}
	.st24{fill:#9E0000;}
	.st25{fill:#FFFFFF;}
	.st26{fill:#590028;}
	.st27{fill:#76DFFF;}
	.st28{fill:#013300;}
	.st29{fill:#FEFEFE;}
	.st30{fill:#750000;}
	.st31{fill:#965400;}
	.st32{fill:#FF00BD;}
	.st33{fill:#00FF48;}
	.st34{fill:#777400;}
	.st35{fill:#FF00DB;}
	.st36{fill:#00B4C9;}
	.st37{fill:#FF1100;}
	.st38{fill:#00FFD1;}
	.st39{fill:#FF00FF;}
	.st40{fill:#DE1800;}
	.st41{fill:#00E1FF;}
	.st42{fill:#0043A5;}
	.st43{fill:#F6CC3A;}
	.st44{fill:#D42E1E;}
	.st45{fill:#0AA66E;}
	.st46{fill:#D6343B;}
	.st47{fill:#EE712E;}
	.st48{fill:#65AD45;}
	.st49{fill:#FF1A5C;}
	.st50{fill:#009EFF;}
	.st51{fill:#E2E2E2;}
	.st52{fill:#DCEFEB;}
	.st53{fill:#FA4D7C;}
	.st54{fill:#53C7E4;}
	.st55{fill:#FFFD08;}
	.st56{fill:#006800;}
	.st57{fill:#00AAFF;}
	.st58{fill:#BF0097;}
	.st59{fill-rule:evenodd;clip-rule:evenodd;fill:#EB95D4;}
	.st60{fill-rule:evenodd;clip-rule:evenodd;fill:#1E3E71;}
	.st61{fill-rule:evenodd;clip-rule:evenodd;fill:#FFFFFF;}
	.st62{fill-rule:evenodd;clip-rule:evenodd;fill:#00FF00;}
	.st63{fill:#D44B34;}
	.st64{fill:#00CEB0;}
	.st65{fill:#001D51;}
	.st66{fill:#338B49;}
	.st67{fill:#4FCAB8;}
	.st68{fill:#12C291;}
	.st69{fill:#D489C4;}
	.st70{fill:#D338A5;}
	.st71{fill:#682E78;}
	.st72{fill:#283B80;}
	.st73{fill:#D98DBC;}
	.st74{fill:#D8A3C6;}
	.st75{fill:#23408E;}
	.st76{fill:#EC3FA8;}
	.st77{fill:#E44838;}
	.st78{fill:#63BED7;}
	.st79{fill:#F55184;}
	.st80{fill:#009344;}
	.st81{fill:#32CDF5;}
	.st82{fill:#F67E39;}
	.st83{fill:#63C8F2;}
	.st84{fill:#EB452F;}
	.st85{fill:#010B64;}
	.st86{fill:#276B00;}
	.st87{fill:#00A4FF;}
	.st88{fill:#D31038;}
	.st89{fill:#4DAA49;}
	.st90{fill:#93C43F;}
	.st91{fill:#0F4385;}
	.st92{fill:#0E9DC3;}
</style>
<g id="Backgrounds_16-30" class="st0">
</g>
<g id="Layer_2">
</g>
<g id="Layer_3">
</g>
<g id="Layer_4">
</g>
<g id="Layer_5">
</g>
<g id="Layer_6">
</g>
<g id="Layer_7">
</g>
<g id="Layer_8">
</g>
<g id="Layer_9">
</g>
<g id="Layer_10">
</g>
<g id="Layer_11">
</g>
<g id="Layer_12">
</g>
<g id="Layer_13">
</g>
<g id="Layer_14">
</g>
<g id="_x31_-15">
</g>
<g id="Layer_16">
</g>
<g id="Layer_17">
</g>
<g id="Layer_18">
</g>
<g id="Layer_19">
	<g>
		<path class="st63" d="M152.07,106.09c-1.66-0.2-3.33-0.12-5-0.07c-5.13,0.16-10.31,0.61-15.21,2.23c-1.59,0.52-3.19,1.16-4.69,1.9
			c-4.32,2.14-6.72,3.74-11.89,2.97c-12.44-1.84-15.46-15.29-29.84-15.96c-3.24-0.15-7.1,0.32-9.88,2.14
			c-0.65,0.43-1.2,0.99-1.77,1.51l-0.04-0.13c0.5-1.07,2.3-2.33,3.28-2.99c3.64-2.45,8.07-3.1,12.38-2.78
			c3.8,0.28,7.58,1.45,11.01,3.08c3.69,1.75,7.08,3.77,11.19,4.46c5.04,0.84,10.44,0.21,15.54,0.33c8.64,0.2,16.29,1.14,24.78,2.74
			L152.07,106.09z"/>
		<path class="st64" d="M151.09,112.03l0.14-0.02c0.22-0.03,0.13-0.02,0.37-0.08c-0.01,0.18-0.03,0.36-0.05,0.55
			c-0.13,0.89,0.46,1.84,0.31,2.65c-0.12,0.62-0.91,1.04-0.81,1.68c-0.79,1.33-1.78,2.57-2.74,3.78c-3.8,4.76-8.86,9.78-14.9,11.35
			c-1.74,0.45-3.79,0.6-5.41-0.32c-1.02-0.58-1.79-1.68-2.05-2.82c-0.34-1.47,0.27-2.94,1.04-4.16c0.15,0.15,0.29,0.24,0.47,0.35
			c1.19-0.01,2.33-0.71,3.42-1.12c5.67-2.16,10.86-5.32,15.88-8.7c1.4-0.94,2.72-2.22,4.17-3.05L151.09,112.03z M129.03,121.68
			c-1.48,0.67-2.91,1.18-4.57,0.95c-1.26-0.18-2.44-0.8-3.17-1.87c-0.59-0.86-0.7-1.95-0.46-2.95c0.58-2.41,2.94-4.3,4.99-5.48
			c6.3-3.62,13.9-5,21.07-5.16c1.54-0.03,3.44-0.13,4.93,0.28l0.07,0.17c0.36,0.11,0.63,0.13,0.85,0.48
			c0.16,0.25,0.12,0.4,0.08,0.67c-0.55,0.87-1.67,0.92-2.14,1.7c-3.17,1.74-6.33,3.51-9.58,5.09
			C137.06,117.51,132.83,119.27,129.03,121.68z M203.57,105.79c-3.45-1.91-6.72-2.06-10.46-1c-1.28-3.34-2.21-6.88-3.26-10.31
			c-0.41-1.35-0.77-2.83-1.35-4.11c-0.2-0.43-0.4-0.9-0.86-1.1c-0.3-0.12-0.63-0.13-0.93,0c-0.42,0.19-0.57,0.65-0.71,1.05
			c-0.71,2-1.05,4.3-1.52,6.37l-2.97,13.4c-0.38,1.71-0.66,3.45-1.13,5.14c-2.34-15.92-4.86-31.8-7.55-47.66l-3.21-17.35
			c-0.55-2.88-1.18-5.74-1.68-8.63c-0.51,1.6-0.71,3.43-0.98,5.09l-1.32,7.97l-5.21,31.88c-0.67,4.22-1.41,8.42-2.24,12.61
			c-0.46,2.34-0.82,4.82-1.6,7.08c-1.56-0.19-3.09-0.54-4.66-0.7l0.14,0.58c0.92,0.35,2.13,0.98,2.58,1.92
			c0.08,0.17,0.07,0.18,0.11,0.33c0.17,0.45,0.35,0.9,0.49,1.36c0.24,0.59,0.49,1.13,0.54,1.77l-0.2,0.37l0.13,0.07l0.13-0.11
			c0.04,0.05,2.73,8.06,3.13,9.12c0.63-2.68,1.04-5.44,1.52-8.15c0.8-4.44,1.57-8.89,2.32-13.34c1.91-11.06,3.92-22.16,5.36-33.29
			c0.96,8.34,2.41,16.69,3.74,24.98l3.92,24.68l2.11,13.21c0.39,2.56,0.63,5.29,1.32,7.79c0.46-2.57,1.24-5.1,1.94-7.61l2.92-10.48
			c1.25-4.51,2.16-9.19,3.58-13.64c0.47,1.66,1.67,8.57,2.49,9.39c0.28,0.09,0.5,0.12,0.78-0.01c0.82-0.39,1.31-1.95,1.7-2.72
			c0.75-1.5,1.61-3.05,3.32-3.57c1.99-0.61,3.69,0.27,5.4,1.18c0.86-0.95,1.58-2.4,2.28-3.5L203.57,105.79z M156.47,84.68
			c-0.04-0.38-0.08-0.76-0.12-1.15c-0.05-0.38-0.1-0.76-0.15-1.14c-0.05-0.38-0.11-0.76-0.18-1.14c-0.06-0.38-0.13-0.76-0.2-1.14
			c-0.07-0.38-0.15-0.75-0.23-1.13c-0.09-0.38-0.17-0.75-0.26-1.13c-0.09-0.37-0.19-0.74-0.29-1.11c-0.1-0.38-0.21-0.75-0.31-1.11
			c-0.11-0.37-0.23-0.74-0.35-1.11c-0.11-0.36-0.24-0.73-0.36-1.09c-0.13-0.37-0.26-0.73-0.4-1.09c-0.13-0.36-0.27-0.72-0.42-1.07
			c-0.14-0.36-0.29-0.71-0.45-1.07c-0.15-0.35-0.31-0.7-0.47-1.05c-0.16-0.35-0.33-0.7-0.5-1.04c-0.17-0.35-0.34-0.69-0.52-1.03
			c-0.18-0.34-0.36-0.68-0.55-1.02c-0.18-0.34-0.38-0.67-0.57-1c-0.2-0.33-0.39-0.66-0.6-0.99c-0.2-0.33-0.41-0.65-0.62-0.97
			c-0.21-0.32-0.42-0.64-0.64-0.96c-0.22-0.32-0.44-0.63-0.67-0.94c-0.23-0.31-0.46-0.62-0.69-0.93c-0.24-0.3-0.47-0.61-0.71-0.91
			c-0.25-0.3-0.49-0.59-0.74-0.89c-0.25-0.29-0.5-0.58-0.76-0.87c-0.25-0.29-0.51-0.57-0.77-0.85c-0.27-0.29-0.53-0.56-0.8-0.84
			c-0.27-0.27-0.54-0.55-0.82-0.81c-0.27-0.27-0.55-0.54-0.84-0.8c-0.28-0.26-0.56-0.52-0.85-0.77c-0.29-0.26-0.58-0.51-0.88-0.76
			c-1.82-1.79-3.88-3.31-5.73-5.07c-0.31,0.76-0.61,1.53-0.9,2.3c-0.28,0.77-0.55,1.55-0.81,2.33c-0.25,0.78-0.5,1.57-0.72,2.36
			c-0.23,0.79-0.44,1.59-0.64,2.38c-0.2,0.8-0.38,1.6-0.55,2.41c-0.16,0.81-0.32,1.61-0.45,2.43c-0.14,0.81-0.26,1.62-0.37,2.44
			c-0.11,0.81-0.2,1.63-0.28,2.45c1.67,0.72,3.32,1.43,4.9,2.32c1.14,0.65,2.21,1.4,3.33,2.07c0.38,0.54,1.95,1.58,2.58,2.11
			c1.04,0.87,2.06,1.79,2.97,2.8c4.59,5.07,7.9,11.13,10.29,17.5c0.58,1.55,1.03,3.13,1.57,4.68c0.09,0.25,0.11,0.48,0.36,0.6
			c0.33-0.66,0.35-1.69,0.46-2.43C156.4,92.48,156.85,88.71,156.47,84.68z M154.59,109.21c-0.46,0.02-0.75,0.29-1.13,0.54l0.03,0.17
			c-0.78,0.72-1.65,1.38-2.4,2.11l0.14-0.02c0.21-0.03,0.13-0.02,0.37-0.07c-0.01,0.18-0.02,0.36-0.05,0.54
			c-0.13,0.89,0.46,1.84,0.31,2.65c-0.11,0.63-0.91,1.04-0.81,1.68c0.78-0.49,3.42-5.22,3.96-6.32
			C154.95,110.07,154.93,109.5,154.59,109.21z M151.82,107.44l0.07,0.17c0.36,0.11,0.63,0.13,0.85,0.47
			c0.16,0.25,0.12,0.41,0.08,0.68c-0.55,0.87-1.67,0.91-2.14,1.7c1.26-0.49,2.5-1.16,3.7-1.78
			C153.62,108.02,152.84,107.56,151.82,107.44z"/>
		<path class="st65" d="M256.98,69.26c-2.28-0.09-4.55-0.03-6.82,0.19c-0.74,0.06-2.43,0.46-3.09,0.22
			c-1.33,0.58-2.98,0.69-4.4,1.07c-3.58,0.96-6.89,2.22-10.16,3.95c-6.16,3.39-12.33,8.27-16.45,14.03
			c-4.54,5.37-8.47,11.3-12.38,17.13c-0.7,1.1-1.42,2.55-2.28,3.5c-1.54,2.85-3.44,5.61-5.26,8.29
			c-5.62,8.33-11.74,16.46-19.37,23.09c-1.64,1.44-3.35,2.79-5.13,4.05c-1.05,0.73-2.19,1.34-3.19,2.12l-0.1,0.07
			c18.85-7.7,34.65-23.5,47.76-38.68c5.76-6.66,11.71-14.22,18.51-19.79c-5.34,6.26-10.3,12.78-15.54,19.11
			c-6.93,8.39-15.03,17.19-23.38,24.2c-2.67,2.28-5.43,4.45-8.28,6.5c-2.85,2.05-5.78,3.98-8.78,5.79c-1.87,1.1-3.79,2.05-5.77,2.94
			c-0.55,0.25-2.04,0.67-2.38,1.06c1.32,0,4.68-1.31,6.15-1.78c0.86-0.27,1.73-0.55,2.58-0.85c0.86-0.29,1.72-0.59,2.57-0.9
			c0.85-0.31,1.7-0.63,2.54-0.96c0.84-0.32,1.68-0.66,2.52-1.01c0.83-0.35,1.67-0.71,2.49-1.07c0.83-0.37,1.66-0.75,2.48-1.13
			c0.82-0.39,1.63-0.78,2.44-1.19c0.81-0.4,1.62-0.82,2.42-1.24c0.8-0.42,1.6-0.85,2.39-1.29s1.58-0.89,2.36-1.35
			c0.78-0.46,1.55-0.92,2.33-1.4c0.77-0.48,1.53-0.96,2.29-1.45c0.76-0.5,1.52-1,2.26-1.51c0.75-0.51,1.5-1.02,2.23-1.55
			c0.74-0.53,1.47-1.06,2.19-1.61c0.73-0.54,1.45-1.09,2.16-1.65c3.52-2.74,6.85-5.79,10.02-8.93c8.69-8.59,16-18.21,20.21-29.78
			c1.06-2.93,2.03-6.12,2.41-9.21c0.93-0.7,2.7-1.09,3.81-1.46c8.58-2.81,17.27-4.05,26.29-4.14
			C270.9,70.82,263.95,69.5,256.98,69.26z M243.75,60.41c-3.78-7.33-10.51-13.47-18.43-15.98c-7.83-2.49-17.57-2.11-24.97,1.7
			c-7.72,3.02-15.19,10.32-20.55,16.46c-1.8,2.06-3.45,4.32-5.31,6.3c0.46,2.67,1.02,5.4,1.27,8.1l0.08-0.09
			c1.67-1.89,3.11-4.03,4.77-5.95c3.92-4.55,8.36-8.9,13.36-12.26c1.34-0.9,2.78-1.6,4.13-2.46c0.91-0.25,1.88-0.8,2.75-1.18
			c1.78-0.53,3.54-1.15,5.36-1.52c5.05-1.01,10.64-0.29,15.18,2.18c4.94,2.68,9.04,7.4,10.62,12.85c0.59,2.04,0.61,4.03,0.5,6.13
			c3.27-1.73,6.58-2.99,10.16-3.95c1.42-0.38,3.07-0.49,4.4-1.07C246.5,66.48,245.23,63.28,243.75,60.41z M155.59,111.85
			c-1.27,1.94-2.29,4.03-3.52,6c-4.42,7.03-10.62,13.97-19.12,15.71c-2.14,0.44-4.52,0.48-6.4-0.79c-0.07-0.05-0.13-0.09-0.19-0.14
			c-0.07-0.05-0.13-0.1-0.19-0.15l-0.18-0.15c-0.05-0.05-0.11-0.11-0.17-0.16c-0.05-0.06-0.1-0.12-0.16-0.18l-0.15-0.18
			c-0.05-0.06-0.09-0.12-0.14-0.18c-0.05-0.07-0.09-0.13-0.13-0.2c-0.04-0.07-0.08-0.13-0.12-0.2c-0.04-0.07-0.08-0.14-0.11-0.21
			c-0.04-0.07-0.07-0.14-0.11-0.21c-0.03-0.07-0.06-0.15-0.08-0.22c-0.03-0.07-0.06-0.15-0.08-0.22c-0.03-0.08-0.05-0.15-0.07-0.23
			c-0.02-0.07-0.04-0.15-0.06-0.23c-0.01-0.07-0.03-0.15-0.04-0.23c-0.33-2.05,0.45-4,1.67-5.61c0.13-0.17,0.27-0.34,0.41-0.51
			c-2.04,0.26-4.17,0.38-5.91-0.94c-0.94-0.71-1.46-1.76-1.58-2.92c-0.2-1.96,0.83-3.97,2.08-5.42c0.29-0.34,0.61-0.66,0.93-0.97
			c-1.24,0.33-2.5,0.53-3.76,0.75c-1.64,2.01-3.43,4.39-3.14,7.16c0.17,1.52,1.06,2.81,2.24,3.74c0.84,0.65,1.78,1.08,2.75,1.51
			c-0.85,2.01-1.2,4.29-0.38,6.37c0.78,1.97,2.48,3.4,4.41,4.2c3.6,1.5,8,0.77,11.48-0.71c9.96-4.23,15.33-15.31,19.95-24.41
			L155.59,111.85z M149.45,53.14c-2.42-3.52-5.96-6.56-9.18-9.31c-1.73-1.48-3.7-2.89-5.04-4.75c-0.86-1.2-1.31-2.48-1.62-3.9
			c-4.75,8.91-8.05,15.32-7.64,25.74c0.04,1.13,0.06,3.55,0.44,4.48c0.13,0.32,0.28,0.36,0.57,0.52l0.17-0.09
			c0.03-0.29,0.03-0.54,0-0.82c-0.11-1.54,0.06-3.22,0.26-4.74c0.83-6.21,3.3-11.48,6.23-16.94c3.69,3.1,7.46,6.19,10.73,9.74
			c1.33,1.45,2.49,3.03,3.74,4.54c4.1,6.2,5.99,10.45,8.07,17.58l0.09-0.12c0.16-1.26-1.49-4.43-1.75-5.92
			c0.23-0.34,0.49-0.66,0.74-0.99c0.52-0.69,0.67-1.6,1.03-2.39c0.82,1.46,1.18,5.22,1.85,6.31c0.03,0.05,0.06,0.1,0.1,0.15
			C157.58,66.19,153.39,57.67,149.45,53.14z M158.88,76.06c-0.14-1.26-0.29-2.61-0.64-3.83c-0.04-0.05-0.07-0.1-0.1-0.15
			c-0.67-1.09-1.03-4.85-1.85-6.31c-0.36,0.79-0.51,1.7-1.03,2.39c-0.25,0.33-0.51,0.65-0.74,0.99c0.26,1.49,1.91,4.66,1.75,5.92
			l-0.09,0.12c1.1,5.11,1.83,10.24,1.62,15.48c-0.06,1.71-0.44,3.4-0.49,5.09c0.34-0.6,0.59-2.98,0.72-3.8
			C158.86,86.6,159.48,81.49,158.88,76.06z"/>
		<path class="st66" d="M256.98,69.26c-2.28-0.09-4.55-0.03-6.82,0.19c-0.74,0.06-2.43,0.46-3.09,0.22
			c-1.33,0.58-2.98,0.69-4.4,1.07c-3.58,0.96-6.89,2.22-10.16,3.95c-6.16,3.39-12.33,8.27-16.45,14.03
			c1.18-0.45,3.62-4.38,4.76-5.08l0.19-0.13l-0.18,0.36c0.3,1.44,0.37,3.78,0.38,5.3c0.01,0.87-0.13,1.75-0.16,2.62
			c-0.09,2.27,0.14,5.54-1.08,7.51c-0.75,1.21-2,2.26-2.91,3.35c-1.21,1.45-2.36,3.18-3.68,4.51c-0.33,0.32-0.5,0.69-0.77,1.05
			c-0.59,0.77-1.22,1.51-1.8,2.29c0.69-0.42,1.55-1.74,2.05-2.41c3.55-4.73,7.64-9.11,11.62-13.47
			c5.43-5.95,12.17-11.42,19.43-14.98c1.04-0.51,2.49-1.35,3.62-1.4c0.93-0.7,2.7-1.09,3.81-1.46c8.58-2.81,17.27-4.05,26.29-4.14
			C270.9,70.82,263.95,69.5,256.98,69.26z M153.81,98.87c-3.11-9.49-7.25-18.55-15.04-25.15c-9.82-8.33-22.47-7.66-32.47-15.54
			c-1.49-1.17-2.97-2.51-4.03-4.08c-0.88-1.3-1.45-2.8-1.97-4.26c-0.08-0.2-0.04-0.12-0.16-0.31c-0.2,13.02,4.86,32.4,14.09,41.95
			c9.22,9.54,18.87,9.7,30.98,11.38c2.12,0.3,4.23,0.66,6.33,1.08c1.33,0.26,2.68,0.6,4.02,0.77
			C155.43,103.04,154.35,100.51,153.81,98.87z M148.54,102.33c-8.31-1.91-16.76-4.1-24.13-8.55c-11.42-6.88-16.57-19.49-19.65-31.86
			c0.64,0.98,1.63,4.5,2.21,5.92c0.52,1.28,1.09,2.54,1.7,3.78c0.62,1.24,1.27,2.46,1.97,3.66c0.7,1.19,1.44,2.36,2.22,3.5
			c0.78,1.15,1.59,2.26,2.45,3.35c5.9,7.38,14.43,13.56,23.28,16.88c3.6,1.35,7.48,2.14,11.22,2.99c1.53,0.35,3.14,0.64,4.62,1.14
			c0.36,0.12,0.57,0.23,0.84,0.49C153.06,103.56,150.69,102.83,148.54,102.33z M153.46,109.75c-3.52,1.8-6.94,3.87-10.49,5.61
			c-4.39,2.15-9.09,3.97-13.23,6.58c-1.06,0.82-1.93,1.63-2.75,2.69c0.15,0.15,0.29,0.25,0.47,0.35c1.19-0.01,2.34-0.71,3.43-1.12
			c5.67-2.17,10.86-5.33,15.88-8.7c1.4-0.94,2.72-2.21,4.17-3.05l0.15-0.08c0.75-0.73,1.62-1.39,2.4-2.11L153.46,109.75z"/>
	</g>
</g>
<g id="Layer_20">
</g>
<g id="Layer_21">
</g>
</svg>
