<?xml version="1.0" encoding="utf-8"?>
<!-- Generator: Adobe Illustrator 27.8.1, SVG Export Plug-In . SVG Version: 6.00 Build 0)  -->
<svg version="1.1" xmlns="http://www.w3.org/2000/svg" xmlns:xlink="http://www.w3.org/1999/xlink" x="0px" y="0px"
	 viewBox="0 0 350 230" style="enable-background:new 0 0 350 230;" xml:space="preserve">
<style type="text/css">
	.st0{display:none;}
	.st1{display:inline;}
	.st2{stroke:#000000;stroke-miterlimit:10;}
	.st3{stroke:#ED1C24;stroke-miterlimit:10;}
	.st4{fill:#5ABB4A;}
	.st5{fill:#23B674;}
	.st6{fill:#EB95D4;}
	.st7{fill:#CFCC7F;}
	.st8{fill:#F4C543;}
	.st9{fill:#0F2846;}
	.st10{fill:#D2F0F8;}
	.st11{fill:#E4C372;}
	.st12{fill:#B6C462;}
	.st13{fill:#E7A76A;}
	.st14{fill:#DDD27F;}
	.st15{fill:#071641;}
	.st16{fill:#1E3E71;}
	.st17{fill:#F5ECE3;}
	.st18{fill:#004FFA;}
	.st19{fill:#65FF00;}
	.st20{fill:#00FFAA;}
	.st21{fill:#FF0000;}
	.st22{fill:#003DFF;}
	.st23{fill:#BC00B3;}
	.st24{fill:#9E0000;}
	.st25{fill:#FFFFFF;}
	.st26{fill:#590028;}
	.st27{fill:#76DFFF;}
	.st28{fill:#013300;}
	.st29{fill:#FEFEFE;}
	.st30{fill:#750000;}
	.st31{fill:#965400;}
	.st32{fill:#FF00BD;}
	.st33{fill:#00FF48;}
	.st34{fill:#777400;}
	.st35{fill:#FF00DB;}
	.st36{fill:#00B4C9;}
	.st37{fill:#FF1100;}
	.st38{fill:#00FFD1;}
	.st39{fill:#FF00FF;}
	.st40{fill:#DE1800;}
	.st41{fill:#00E1FF;}
	.st42{fill:#0043A5;}
	.st43{fill:#F6CC3A;}
	.st44{fill:#D42E1E;}
	.st45{fill:#0AA66E;}
	.st46{fill:#D6343B;}
	.st47{fill:#EE712E;}
	.st48{fill:#65AD45;}
	.st49{fill:#FF1A5C;}
	.st50{fill:#009EFF;}
	.st51{fill:#E2E2E2;}
	.st52{fill:#DCEFEB;}
	.st53{fill:#FA4D7C;}
	.st54{fill:#53C7E4;}
	.st55{fill:#FFFD08;}
	.st56{fill:#006800;}
	.st57{fill:#00AAFF;}
	.st58{fill:#BF0097;}
	.st59{fill-rule:evenodd;clip-rule:evenodd;fill:#EB95D4;}
	.st60{fill-rule:evenodd;clip-rule:evenodd;fill:#1E3E71;}
	.st61{fill-rule:evenodd;clip-rule:evenodd;fill:#FFFFFF;}
	.st62{fill-rule:evenodd;clip-rule:evenodd;fill:#00FF00;}
	.st63{fill:#D44B34;}
	.st64{fill:#00CEB0;}
	.st65{fill:#001D51;}
	.st66{fill:#338B49;}
	.st67{fill:#4FCAB8;}
	.st68{fill:#12C291;}
	.st69{fill:#D489C4;}
	.st70{fill:#D338A5;}
	.st71{fill:#682E78;}
	.st72{fill:#283B80;}
	.st73{fill:#D98DBC;}
	.st74{fill:#D8A3C6;}
	.st75{fill:#23408E;}
	.st76{fill:#EC3FA8;}
	.st77{fill:#E44838;}
	.st78{fill:#63BED7;}
	.st79{fill:#F55184;}
	.st80{fill:#009344;}
	.st81{fill:#32CDF5;}
	.st82{fill:#F67E39;}
	.st83{fill:#63C8F2;}
	.st84{fill:#EB452F;}
	.st85{fill:#010B64;}
	.st86{fill:#276B00;}
	.st87{fill:#00A4FF;}
	.st88{fill:#D31038;}
	.st89{fill:#4DAA49;}
	.st90{fill:#93C43F;}
	.st91{fill:#0F4385;}
	.st92{fill:#0E9DC3;}
	.st93{fill:#00BD6A;}
	.st94{fill:#1F2736;}
	.st95{fill:#008E50;}
	.st96{fill:#003D00;}
	.st97{fill:#D7FFD7;}
	.st98{fill:#FEFFD9;}
	.st99{fill:#FFFFC2;}
	.st100{fill:#FFFEE1;}
	.st101{fill:#FFF3E3;}
	.st102{fill:#F9FFE6;}
	.st103{fill:#C5FAFF;}
	.st104{fill:#FFFDC7;}
	.st105{fill:#FCFADB;}
	.st106{fill:#E9FEFF;}
	.st107{fill:#C7FFE8;}
	.st108{fill:#FFFEEB;}
	.st109{fill:#FEFFE9;}
	.st110{fill:url(#SVGID_1_);}
	.st111{fill:url(#SVGID_00000004535702785422967540000011351414875105548963_);}
	.st112{fill:url(#SVGID_00000096020149677183236020000003639251172173648014_);}
	.st113{fill:url(#SVGID_00000066511756146703817870000000345292666010948260_);}
	.st114{fill:url(#SVGID_00000064348466807921355290000009064946449706882218_);}
	.st115{fill:#2BA2D6;}
	.st116{fill:#80B64D;}
	.st117{fill:#20B99A;}
	.st118{fill:#F1C1AB;}
	.st119{fill:#D67B54;}
	.st120{fill:#352D18;}
	.st121{fill:#88C244;}
	.st122{fill:#335AFF;}
	.st123{fill:#47D4BB;}
	.st124{fill:#103D6B;}
	.st125{fill:#049E63;}
	.st126{fill:#81B441;}
	.st127{fill:#1B3D6E;}
	.st128{fill:#094378;}
	.st129{fill:#6CC12E;}
	.st130{fill:#119C28;}
	.st131{fill:#31AFDA;}
	.st132{fill:#076EBF;}
	.st133{fill:#81D541;}
	.st134{fill:#062D4B;}
	.st135{fill:url(#SVGID_00000037682514195652508900000018409399648153724329_);}
	.st136{fill:#31832F;}
	.st137{fill:#32B048;}
	.st138{fill:url(#SVGID_00000150063743444808247680000007175940974275255428_);}
	.st139{fill:#0E3D4E;}
	.st140{fill:url(#SVGID_00000147205234808931082090000010470320475767576448_);}
	.st141{fill-rule:evenodd;clip-rule:evenodd;fill:#993366;}
	.st142{fill-rule:evenodd;clip-rule:evenodd;fill:#FCA6A6;}
	.st143{fill:#233A73;}
	.st144{fill:#3BB153;}
	.st145{fill:#0A89BE;}
	.st146{fill:#39BDD3;}
	.st147{fill:#0A6198;}
	.st148{fill-rule:evenodd;clip-rule:evenodd;fill:url(#SVGID_00000152263350991598775580000002264732608610896827_);}
	.st149{fill:#40A1A1;}
	.st150{fill-rule:evenodd;clip-rule:evenodd;fill:url(#SVGID_00000144312335261870635630000007824168723280277381_);}
	.st151{fill:#11A8E4;}
	.st152{fill:#79DECF;}
	.st153{fill:#2F95A3;}
	.st154{fill:#092E5A;}
	.st155{fill:#1A8F3D;}
	.st156{fill:#13CAA7;}
	.st157{fill:url(#SVGID_00000111888810363165720790000008759225937252868736_);}
	.st158{fill:url(#SVGID_00000002370457389116265620000003908504547235022257_);}
	.st159{fill:#AFD453;}
	.st160{fill:#1ACFD8;}
	.st161{fill:url(#SVGID_00000044154450658673142470000000178144373885536130_);}
	.st162{fill-rule:evenodd;clip-rule:evenodd;fill:#4F6466;}
	.st163{fill-rule:evenodd;clip-rule:evenodd;fill:#22C7B8;}
	.st164{fill:url(#SVGID_00000139998537124649270050000008152246740652383363_);}
	.st165{fill:#993366;}
</style>
<g id="Backgrounds_16-30" class="st0">
</g>
<g id="Layer_2">
</g>
<g id="Layer_3">
</g>
<g id="Layer_4">
</g>
<g id="Layer_5">
</g>
<g id="Layer_6">
</g>
<g id="Layer_7">
</g>
<g id="Layer_8">
</g>
<g id="Layer_9">
</g>
<g id="Layer_10">
</g>
<g id="Layer_11">
</g>
<g id="Layer_12">
</g>
<g id="Layer_13">
</g>
<g id="Layer_14">
</g>
<g id="_x31_-15">
</g>
<g id="Layer_16">
</g>
<g id="Layer_17">
</g>
<g id="Layer_18">
</g>
<g id="Layer_19">
</g>
<g id="Layer_20">
</g>
<g id="Layer_21">
	<g>
		<path class="st156" d="M198.05,91.81c-0.67,0-1.17,0-1.66,0c-5.96,0-11.92,0.01-17.88,0c-3.65-0.01-5.73-2.07-5.74-5.7
			c-0.02-3.9-0.02-7.8,0-11.69c0.02-3.61,2.14-5.73,5.73-5.73c5.96-0.01,11.92,0,17.88,0c0.5,0,0.99,0,1.67,0c0-0.6,0-1.09,0-1.58
			c0-5.87,0-11.74,0-17.61c0-4.09,2.01-6.1,6.05-6.11c3.81,0,7.61-0.01,11.42,0c3.48,0.01,5.66,2.19,5.67,5.68
			c0.01,6.46,0,12.93,0,19.62c0.59,0,1.11,0,1.64,0c5.96,0,11.92-0.01,17.88,0c3.6,0.01,5.75,2.13,5.76,5.72
			c0.02,3.94,0.02,7.89,0,11.83c-0.01,3.4-2.18,5.57-5.61,5.58c-6.05,0.02-12.11,0-18.16,0c-0.45,0-0.89,0-1.52,0
			c0,0.62,0,1.11,0,1.6c0,5.96,0,11.92,0,17.89c0,3.68-2.12,5.8-5.8,5.81c-3.9,0.01-7.8,0.01-11.69,0
			c-3.54-0.01-5.64-2.11-5.65-5.67c-0.02-5.96,0-11.92,0-17.89C198.05,93.05,198.05,92.55,198.05,91.81z"/>
		<path class="st165" d="M195.34,65.95c-5.06,0-9.92,0-14.78,0c-0.87,0-1.74-0.02-2.61,0c-4.42,0.13-7.82,3.49-7.89,7.91
			c-0.06,3.85-0.02,7.7-0.02,11.56c0,0.45,0,0.91,0,1.59c-10.25-5.16-20.82-8.93-31.8-11.46c5.21,2.39,10.54,4.6,15.63,7.26
			c5.19,2.71,10.29,5.65,15.17,8.89c4.84,3.21,9.54,6.7,13.96,10.46c4.42,3.77,8.84,7.69,12.48,12.17
			c3.66,4.51,7.92,8.54,10.93,13.62c2.97,5,6.04,9.92,8.57,15.48c-0.66,0-1.13,0-1.61,0c-20.41,0-40.81,0.02-61.22,0
			c-24.79-0.03-45.62-18.71-48.36-43.34c-0.19-1.68-0.28-3.39-0.29-5.08c-0.02-14.68-0.01-29.35-0.02-44.03
			c0-1.45,0.22-2.89,1.48-3.65c0.99-0.6,2.28-0.98,3.44-0.99c14.81-0.06,29.62-0.05,44.44-0.04c7.06,0,14.12-0.04,21.19,0.04
			c7.13,0.09,13.87,1.86,20.23,5.04c0.43,0.21,1.02,0.7,1.02,1.07C195.37,56.88,195.34,61.31,195.34,65.95z M221.16,117.83
			c-3.4,2.99-7.44,1.6-10.85,2.05c3.69,6.17,7.37,12.34,10.85,18.16C221.16,131.69,221.16,124.87,221.16,117.83z M195.23,94.6
			c-4.06,0-8,0-12.05,0c4.07,3.16,8.04,6.25,12.05,9.36C195.23,100.81,195.23,97.71,195.23,94.6z"/>
	</g>
</g>
</svg>
