<?xml version="1.0" encoding="utf-8"?>
<!-- Generator: Adobe Illustrator 27.8.1, SVG Export Plug-In . SVG Version: 6.00 Build 0)  -->
<svg version="1.1" xmlns="http://www.w3.org/2000/svg" xmlns:xlink="http://www.w3.org/1999/xlink" x="0px" y="0px"
	 viewBox="0 0 350 230" style="enable-background:new 0 0 350 230;" xml:space="preserve">
<style type="text/css">
	.st0{display:none;}
	.st1{display:inline;fill:#ED1C24;}
	.st2{font-family:'Montserrat-Bold';}
	.st3{font-size:25px;}
	.st4{display:inline;}
	.st5{stroke:#000000;stroke-miterlimit:10;}
	.st6{stroke:#ED1C24;stroke-miterlimit:10;}
	.st7{fill:#5ABB4A;}
	.st8{fill:#23B674;}
	.st9{fill:#EB95D4;}
	.st10{fill:#CFCC7F;}
	.st11{fill:#F4C543;}
	.st12{fill:#0F2846;}
	.st13{fill:#D2F0F8;}
	.st14{fill:#E4C372;}
	.st15{fill:#B6C462;}
	.st16{fill:#E7A76A;}
	.st17{fill:#DDD27F;}
	.st18{fill:#071641;}
	.st19{fill:#1E3E71;}
	.st20{fill:#F5ECE3;}
	.st21{fill:#004FFA;}
	.st22{fill:#65FF00;}
	.st23{fill:#00FFAA;}
	.st24{fill:#FF0000;}
	.st25{fill:#003DFF;}
	.st26{fill:#BC00B3;}
	.st27{fill:#9E0000;}
	.st28{fill:#FFFFFF;}
	.st29{fill:#590028;}
	.st30{fill:#76DFFF;}
	.st31{fill:#013300;}
	.st32{fill:#FEFEFE;}
	.st33{fill:#750000;}
	.st34{fill:#965400;}
	.st35{fill:#FF00BD;}
	.st36{fill:#00FF48;}
	.st37{fill:#777400;}
	.st38{fill:#FF00DB;}
	.st39{fill:#00B4C9;}
	.st40{fill:#FF1100;}
	.st41{fill:#00FFD1;}
	.st42{fill:#FF00FF;}
	.st43{fill:#DE1800;}
	.st44{fill:#00E1FF;}
	.st45{fill:#0043A5;}
	.st46{fill:#F6CC3A;}
	.st47{fill:#D42E1E;}
	.st48{fill:#0AA66E;}
	.st49{fill:#D6343B;}
	.st50{fill:#EE712E;}
	.st51{fill:#65AD45;}
	.st52{fill:#FF1A5C;}
	.st53{fill:#009EFF;}
	.st54{fill:#E2E2E2;}
	.st55{fill:#DCEFEB;}
	.st56{fill:#FA4D7C;}
	.st57{fill:#53C7E4;}
	.st58{fill:#FFFD08;}
	.st59{fill:#006800;}
	.st60{fill:#00AAFF;}
	.st61{fill:#BF0097;}
	.st62{fill-rule:evenodd;clip-rule:evenodd;fill:#EB95D4;}
	.st63{fill-rule:evenodd;clip-rule:evenodd;fill:#1E3E71;}
	.st64{fill-rule:evenodd;clip-rule:evenodd;fill:#FFFFFF;}
	.st65{fill-rule:evenodd;clip-rule:evenodd;fill:#00FF00;}
	.st66{fill:#D44B34;}
	.st67{fill:#00CEB0;}
	.st68{fill:#001D51;}
	.st69{fill:#338B49;}
	.st70{fill:#4FCAB8;}
	.st71{fill:#12C291;}
	.st72{fill:#D489C4;}
	.st73{fill:#D338A5;}
	.st74{fill:#682E78;}
	.st75{fill:#283B80;}
	.st76{fill:#D98DBC;}
	.st77{fill:#D8A3C6;}
	.st78{fill:#23408E;}
	.st79{fill:#EC3FA8;}
	.st80{fill:#E44838;}
	.st81{fill:#63BED7;}
	.st82{fill:#F55184;}
	.st83{fill:#009344;}
	.st84{fill:#32CDF5;}
	.st85{fill:#F67E39;}
	.st86{fill:#63C8F2;}
	.st87{fill:#EB452F;}
	.st88{fill:#010B64;}
	.st89{fill:#276B00;}
	.st90{fill:#00A4FF;}
	.st91{fill:#D31038;}
	.st92{fill:#4DAA49;}
	.st93{fill:#93C43F;}
	.st94{fill:#0F4385;}
	.st95{fill:#0E9DC3;}
	.st96{fill:#00BD6A;}
	.st97{fill:#1F2736;}
	.st98{fill:#008E50;}
	.st99{fill:#003D00;}
	.st100{fill:#D7FFD7;}
	.st101{fill:#FEFFD9;}
	.st102{fill:#FFFFC2;}
	.st103{fill:#FFFEE1;}
	.st104{fill:#FFF3E3;}
	.st105{fill:#F9FFE6;}
	.st106{fill:#C5FAFF;}
	.st107{fill:#FFFDC7;}
	.st108{fill:#FCFADB;}
	.st109{fill:#E9FEFF;}
	.st110{fill:#C7FFE8;}
	.st111{fill:#FFFEEB;}
	.st112{fill:#FEFFE9;}
	.st113{fill:url(#SVGID_1_);}
	.st114{fill:url(#SVGID_00000170277981419278542730000016688897664488782475_);}
	.st115{fill:url(#SVGID_00000141449136984901920100000001426125684294802364_);}
	.st116{fill:url(#SVGID_00000175298807208258557530000001886323821552888970_);}
	.st117{fill:url(#SVGID_00000126292518697076023940000016163432390398503562_);}
	.st118{fill:#2BA2D6;}
	.st119{fill:#80B64D;}
	.st120{fill:#20B99A;}
	.st121{fill:#F1C1AB;}
	.st122{fill:#D67B54;}
	.st123{fill:#352D18;}
	.st124{fill:#88C244;}
	.st125{fill:#335AFF;}
	.st126{fill:#47D4BB;}
	.st127{fill:#103D6B;}
	.st128{fill:#049E63;}
	.st129{fill:#81B441;}
	.st130{fill:#1B3D6E;}
	.st131{fill:#094378;}
	.st132{fill:#6CC12E;}
	.st133{fill:#119C28;}
	.st134{fill:#31AFDA;}
	.st135{fill:#076EBF;}
	.st136{fill:#81D541;}
	.st137{fill:#062D4B;}
	.st138{fill:url(#SVGID_00000063593799610388255670000003321728615364051388_);}
	.st139{fill:#31832F;}
	.st140{fill:#32B048;}
	.st141{fill:url(#SVGID_00000137113050270584097330000016474617789917601463_);}
	.st142{fill:#0E3D4E;}
	.st143{fill:url(#SVGID_00000008860154804072418070000015706917842899790222_);}
	.st144{fill-rule:evenodd;clip-rule:evenodd;fill:#993366;}
	.st145{fill-rule:evenodd;clip-rule:evenodd;fill:#FCA6A6;}
	.st146{fill:#233A73;}
	.st147{fill:#3BB153;}
	.st148{fill:#0A89BE;}
	.st149{fill:#39BDD3;}
	.st150{fill:#0A6198;}
	.st151{fill-rule:evenodd;clip-rule:evenodd;fill:url(#SVGID_00000050663890838890897600000004740169993386605488_);}
	.st152{fill:#40A1A1;}
	.st153{fill-rule:evenodd;clip-rule:evenodd;fill:url(#SVGID_00000021101658794520535650000016342202790692347527_);}
	.st154{fill:#11A8E4;}
	.st155{fill:#79DECF;}
	.st156{fill:#2F95A3;}
	.st157{fill:#092E5A;}
	.st158{fill:#1A8F3D;}
	.st159{fill:#13CAA7;}
	.st160{fill:url(#SVGID_00000093867067443630760090000000663505659314340744_);}
	.st161{fill:url(#SVGID_00000129915945616071346340000008606478450647955592_);}
	.st162{fill:#AFD453;}
	.st163{fill:#1ACFD8;}
	.st164{fill:url(#SVGID_00000132808296960738204730000005903604995882762624_);}
	.st165{fill-rule:evenodd;clip-rule:evenodd;fill:#4F6466;}
	.st166{fill-rule:evenodd;clip-rule:evenodd;fill:#22C7B8;}
	.st167{fill:url(#SVGID_00000021120008697221219310000011777988998202455733_);}
	.st168{fill:#993366;}
</style>
<g id="Backgrounds_16-30" class="st0">
	<text transform="matrix(1 0 0 1 46.3015 167.86)" class="st1 st2 st3">Medical &amp; Pharmacy</text>
	<g class="st4">
		<path class="st5" d="M182.57,127.69c2.06,0.21,3.95,0.24,5.83-0.12c1.07-0.21,2.06-0.65,2.86-1.41c2.62-2.49,5.21-5.01,7.85-7.48
			c1.3-1.21,2.66-2.36,4.01-3.51c0.37-0.32,0.8-0.58,1.24-0.81c1.77-0.92,3.1-0.57,4.17,1.1c0.48-0.26,0.95-0.58,1.46-0.77
			c0.45-0.17,0.96-0.3,1.44-0.3c1.51-0.01,2.44,1.14,2.21,2.63c-0.25,1.62-1.1,2.93-2.16,4.11c-1.66,1.85-3.39,3.62-5.04,5.47
			c-5.22,5.8-11.51,10.22-18.2,14.11c-3.37,1.96-7.04,3.02-11,2.93c-3.09-0.08-5.98-0.93-8.81-2.08c-5.14-2.09-9.79-5.05-14.32-8.21
			c-8.74-6.09-16.31-13.39-22.66-21.94c-3.65-4.91-5.85-10.47-7.09-16.43c-1.31-6.3-1.37-12.6,0.3-18.85
			c1.7-6.33,4.99-11.63,10.4-15.46c4.46-3.16,9.43-4.81,14.93-4.72c3.73,0.06,7.13,1.22,10.35,3.05c3.12,1.78,5.93,3.98,8.8,6.11
			c1.78,1.32,3.61,2.55,5.4,3.85c0.34,0.24,0.59,0.25,0.93,0c2.75-2.01,5.53-3.99,8.28-6c2.79-2.04,5.61-4.03,8.81-5.38
			c5.49-2.31,11.02-2.13,16.49-0.03c8.44,3.24,13.65,9.47,16.15,18.04c1.65,5.63,1.77,11.37,0.87,17.13
			c-0.94,6.01-2.94,11.64-6.19,16.8c-0.11,0.18-0.24,0.34-0.48,0.45c-0.01-0.09-0.05-0.19-0.02-0.26c1.22-2.23,1.43-4.69,1.52-7.15
			c0.21-5.32-0.18-10.57-1.85-15.67c-1.7-5.19-4.36-9.76-8.55-13.34c-3.28-2.79-7.03-4.38-11.41-4.23
			c-2.55,0.09-4.78,1.14-7.04,2.19c-2.75,1.27-5.52,2.54-8.37,3.57c-3.71,1.35-7.59,1.23-11.46,0.88
			c-4.18-0.39-8.02-1.86-11.78-3.62c-2.28-1.07-4.6-2.06-7.07-2.63c-4.09-0.94-7.88-0.12-11.4,2.05c-3.96,2.45-6.75,5.96-8.93,10.02
			c-0.49,0.91-0.69,1.82-0.69,2.84c0,5.24,1.36,10.17,3.34,14.96c1.67,4.02,3.7,7.85,6.08,11.49c0.77,1.17,1.76,2.27,2.87,3.12
			c4.07,3.14,8.4,5.86,13.31,7.55c3.14,1.08,6.37,1.76,9.68,2.02c2.36,0.19,4.64-0.21,6.73-1.3c3.41-1.78,6.75-3.67,10.15-5.45
			c1.85-0.97,3.75-1.82,5.64-2.69c0.72-0.33,1.5-0.47,2.29-0.23c1.71,0.51,2.28,2.05,1.31,3.53c-2.65,4.04-6.12,7.19-10.3,9.57
			C183.22,127.32,182.97,127.46,182.57,127.69z M208.26,116.12c-0.83-1.99-2.21-2.4-4.07-1.23c-0.37,0.23-0.73,0.47-1.06,0.75
			c-1.1,0.94-2.22,1.86-3.27,2.85c-2.26,2.15-4.46,4.36-6.72,6.51c-1.38,1.31-2.75,2.71-4.77,2.94c-1.47,0.17-2.96,0.17-4.44,0.23
			c-0.74,0.03-1.48,0.05-2.22,0.05c-0.18,0-0.36-0.06-0.54-0.1c0.13-0.13,0.25-0.3,0.41-0.39c1.14-0.67,2.32-1.27,3.43-1.99
			c3.43-2.22,6.27-5.04,8.49-8.47c0.69-1.07,0.4-2.09-0.73-2.68c-0.76-0.39-1.54-0.33-2.28-0.01c-1.52,0.65-3.05,1.27-4.51,2.04
			c-2.98,1.57-5.94,3.17-8.85,4.86c-3.54,2.06-7.21,3.08-11.37,2.47c-5.78-0.85-11.15-2.69-16.07-5.82c-2-1.27-3.93-2.63-5.88-3.94
			c0.83,1.2,1.65,2.45,2.53,3.66c5.37,7.41,11.39,14.27,17.59,20.99c0.18,0.19,0.4,0.37,0.64,0.48c1.27,0.6,2.53,1.22,3.82,1.77
			c2.6,1.1,5.28,1.93,8.12,2.11c3.42,0.21,6.67-0.48,9.74-1.94c4.99-2.38,9.42-5.65,13.72-9.07c4.17-3.32,7.62-7.38,11.2-11.3
			c1.02-1.12,1.85-2.39,2.09-3.95c0.15-1.01-0.3-1.8-1.21-2.09c-0.74-0.24-1.44-0.08-2.09,0.26
			C209.37,115.42,208.82,115.78,208.26,116.12z M186.25,73.66c-1.96-0.16-3.84-0.61-5.67-1.27c-3.57-1.29-6.73-3.32-9.78-5.54
			c-3.19-2.32-6.34-4.7-9.63-6.88c-4.17-2.75-8.77-4.11-13.82-3.55c-7.62,0.85-13.68,4.43-18.12,10.64
			c-3.64,5.08-5.14,10.91-5.4,17.07c-0.3,6.95,1.05,13.6,3.84,19.96c0.44,0.99,0.94,1.95,1.41,2.93c-0.65-3.77-0.56-7.52-0.25-11.27
			c0.39-4.72,1.45-9.26,3.56-13.52c2.25-4.53,5.28-8.39,9.7-11c2.94-1.74,6.11-2.58,9.55-2.2c2.47,0.28,4.77,1.12,7.04,2.09
			c2.45,1.05,4.86,2.21,7.37,3.09c4.46,1.56,9.09,1.85,13.77,1.37C182.06,75.35,184.19,74.64,186.25,73.66z M175.49,69.41
			c0.12,0.09,0.19,0.17,0.27,0.22c2.81,1.62,5.76,2.92,9,3.38c1.19,0.17,2.41,0.44,3.59-0.14c1.06-0.52,2.12-1.02,3.2-1.5
			c1.35-0.61,2.68-1.33,4.09-1.77c4.93-1.52,9.45-0.39,13.57,2.49c4.42,3.09,7.34,7.38,9.34,12.32c2.56,6.31,3.07,12.9,2.62,19.61
			c-0.07,1-0.24,1.99-0.38,3.15c0.18-0.3,0.29-0.47,0.38-0.65c2.24-4.29,3.72-8.82,4.48-13.59c0.93-5.83,0.83-11.62-0.83-17.32
			c-1.97-6.8-5.8-12.25-11.98-15.87c-4.51-2.65-9.37-3.85-14.61-3.31c-3.67,0.38-6.96,1.82-9.96,3.85c-3.25,2.2-6.37,4.58-9.56,6.88
			C177.67,67.92,176.6,68.64,175.49,69.41z M162.65,138.38c0.03-0.05,0.07-0.09,0.1-0.14c-0.22-0.24-0.44-0.48-0.66-0.73
			c-5.9-6.51-11.69-13.11-16.75-20.31c-3.57-5.08-6.83-10.35-9.36-16.03c-2.18-4.88-3.76-9.93-3.96-15.32c-0.02-0.44,0-0.89,0-1.33
			c-0.05-0.01-0.11-0.01-0.16-0.02c-0.09,0.22-0.2,0.43-0.27,0.66c-2.3,6.59-3.05,13.35-2.18,20.27c0.26,2.11,0.98,4.06,2.32,5.8
			c3.13,4.07,6.47,7.94,10.14,11.54c4.97,4.88,10.48,9.09,16.32,12.88C159.64,136.58,161.16,137.46,162.65,138.38z"/>
		<path class="st6" d="M182.8,102.2c0,2.11,0.02,4.12,0,6.12c-0.03,3.26-3.01,5.5-6.14,4.65c-2.04-0.56-3.44-2.42-3.48-4.68
			c-0.03-1.78-0.01-3.55-0.01-5.33c0-0.22,0-0.45,0-0.73c-0.28-0.01-0.5-0.03-0.72-0.03c-1.78,0-3.56,0-5.33,0
			c-2.73-0.01-4.88-2.09-4.88-4.73c0-2.77,2.08-4.85,4.86-4.86c1.78,0,3.55,0,5.33,0c0.22,0,0.44,0,0.73,0c0-0.3,0-0.52,0-0.75
			c0-1.86-0.03-3.72,0.02-5.58c0.06-2.06,1.36-3.75,3.26-4.39c1.85-0.63,3.88-0.07,5.18,1.43c0.77,0.89,1.15,1.95,1.16,3.13
			c0.01,1.8,0,3.6,0,5.39c0,0.22,0,0.45,0,0.73c0.27,0.01,0.49,0.03,0.71,0.03c1.8,0,3.6,0,5.39,0c2.71,0.01,4.82,2.1,4.83,4.77
			c0.01,2.67-2.09,4.79-4.79,4.81c-1.8,0.01-3.6,0-5.39,0C183.33,102.2,183.1,102.2,182.8,102.2z M169.77,101.81
			C169.77,101.81,169.77,101.81,169.77,101.81c0.93,0,1.86,0,2.79,0c1,0,1,0,1,1.03c0,1.76,0,3.51,0,5.27
			c0,1.36,0.41,2.57,1.46,3.49c1.4,1.24,3.02,1.51,4.73,0.78c1.74-0.75,2.62-2.17,2.67-4.05c0.05-1.94,0.03-3.88,0-5.83
			c-0.01-0.54,0.18-0.72,0.72-0.71c1.86,0.03,3.72,0.01,5.58,0c0.37,0,0.75-0.01,1.11-0.08c2.3-0.5,3.77-2.53,3.52-4.83
			c-0.25-2.25-2.12-3.89-4.46-3.9c-1.9-0.01-3.8-0.01-5.7,0.01c-0.55,0.01-0.76-0.16-0.75-0.75c0.03-1.92,0.03-3.84,0.01-5.76
			c-0.02-1.57-0.66-2.86-1.99-3.72c-1.43-0.93-2.95-1.03-4.47-0.24c-1.55,0.81-2.34,2.14-2.39,3.86c-0.05,1.94-0.04,3.88-0.01,5.83
			c0.01,0.59-0.16,0.8-0.77,0.79c-1.94-0.03-3.88-0.03-5.83-0.01c-2.44,0.03-4.35,1.97-4.35,4.4c0,2.42,1.92,4.36,4.35,4.4
			C167.91,101.82,168.84,101.81,169.77,101.81z"/>
	</g>
</g>
<g id="Layer_2">
</g>
<g id="Layer_3">
</g>
<g id="Layer_4">
</g>
<g id="Layer_5">
</g>
<g id="Layer_6">
</g>
<g id="Layer_7">
</g>
<g id="Layer_8">
</g>
<g id="Layer_9">
</g>
<g id="Layer_10">
</g>
<g id="Layer_11">
</g>
<g id="Layer_12">
</g>
<g id="Layer_13">
</g>
<g id="Layer_14">
</g>
<g id="_x31_-15">
</g>
<g id="Layer_16">
</g>
<g id="Layer_17">
</g>
<g id="Layer_18">
</g>
<g id="Layer_19">
</g>
<g id="Layer_20">
</g>
<g id="Layer_21">
	<linearGradient id="SVGID_1_" gradientUnits="userSpaceOnUse" x1="110.3961" y1="95.0835" x2="239.6039" y2="95.0835">
		<stop  offset="0" style="stop-color:#61FFA4"/>
		<stop  offset="1" style="stop-color:#005600"/>
	</linearGradient>
	<path class="st113" d="M159.78,58.7c-4.15-7.11-11.29-10.36-17.77-7.64c3.97-2.73,9.06-3.77,14.1-2.42
		c4.21,1.13,7.99,3.85,10.34,7.94l18.29,31.65l-5.79,3.35L159.78,58.7z M239.6,95.08c0,35.68-28.93,64.6-64.6,64.6
		c-35.68,0-64.6-28.93-64.6-64.6c0-35.68,28.93-64.59,64.6-64.59C210.68,30.48,239.6,59.4,239.6,95.08z M211.86,127.42
		c1.44-4.24,5.21-6.82,9.32-8.19c2.48-4.15,3.58-10.11,9.49-14.27c-12.51,1.44-19.21,8.62-20.96,16.87
		c-3.39-10.26-12.57-18.81-28.56-20.81c14.06,10.12,8.58,27.28,25.63,27.38c-0.17-7.84-4.74-14.63-10.54-19.65
		c6.9,4.61,9.97,10.07,11.36,15.27c0.79,2.93,0.47,8.04-0.81,11.29c-3.39,8.65-12.39,14.36-21.71,11.84
		c-4.22-1.13-8.01-3.86-10.34-7.91l-18.28-31.66l29.56-17.08l5.38,9.33c1.35,0.47,2.68,0.99,3.99,1.6l-26.67-46.19
		c-2.72-4.72-7.09-7.86-11.95-9.17c-10.55-2.81-21.33,3.4-24.14,13.95c-1.31,4.87-0.77,10.24,1.95,14.93l37.86,65.59
		c2.71,4.69,7.07,7.84,11.94,9.17c10.37,2.81,21.23-3.45,24.61-13.54c1.37-4.07,1.55-7.97,2.06-12.16
		c0.68-5.61,4.05-10.55,8.9-13.71C215.53,114.06,211.54,121.39,211.86,127.42z M229.46,118.84c-7.57-0.45-17.89,3.52-17.52,12.89
		c1.11-4.44,4.35-8.01,8.58-9.97c-3.62,2.25-6.51,6.32-7.75,9.84C222.41,133.07,220.88,123.18,229.46,118.84z"/>
</g>
</svg>
