<?xml version="1.0" encoding="utf-8"?>
<!-- Generator: Adobe Illustrator 27.8.1, SVG Export Plug-In . SVG Version: 6.00 Build 0)  -->
<svg version="1.1" xmlns="http://www.w3.org/2000/svg" xmlns:xlink="http://www.w3.org/1999/xlink" x="0px" y="0px"
	 viewBox="0 0 350 230" style="enable-background:new 0 0 350 230;" xml:space="preserve">
<style type="text/css">
	.st0{fill:#004963;}
	.st1{fill:#FF0000;}
	.st2{fill:#3300A3;}
	.st3{fill:#089E00;}
	.st4{fill:#000A82;}
	.st5{fill:#1D0042;}
	.st6{fill:#594A02;}
	.st7{fill:#013A4C;}
	.st8{fill:#64E2FF;}
	.st9{fill:#BA00FF;}
	.st10{fill:#009CA0;}
	.st11{fill:#E097FF;}
	.st12{fill:#064F00;}
	.st13{fill:#0096C4;}
	.st14{fill:#003027;}
	.st15{fill:#557EFF;}
	.st16{fill:#66F4FF;}
	.st17{fill:#FC7E00;}
	.st18{fill:#27005E;}
	.st19{fill:#0060F9;}
	.st20{fill:#9FC6FF;}
	.st21{fill:#D7E7FF;}
	.st22{fill:#6600C9;}
	.st23{fill:#4D0089;}
	.st24{fill:#006D70;}
	.st25{fill:#00CCCC;}
	.st26{fill:#610089;}
	.st27{fill:#32004C;}
	.st28{fill:#00FF5B;}
	.st29{fill:#009632;}
	.st30{fill:#004916;}
	.st31{fill:#000650;}
	.st32{fill:url(#SVGID_1_);}
	.st33{fill:url(#SVGID_00000018215680754342336980000000192884789197959357_);}
	.st34{fill:#AAE6CD;}
	.st35{fill:#FA8301;}
	.st36{fill:#F05908;}
	.st37{fill:#FF7D2D;}
	.st38{fill:#05D7A0;}
	.st39{fill:#278BDE;}
	.st40{fill:url(#SVGID_00000041295313893043772250000012386179756619288507_);}
	.st41{fill:#10173D;}
	.st42{fill:#FEFEFE;}
	.st43{fill:url(#SVGID_00000129202177709621223590000011665898440173688456_);}
	.st44{fill:url(#SVGID_00000160179757221858240360000005522799375921524384_);}
	.st45{fill:url(#SVGID_00000160894227125441474720000017800064382107640485_);}
	.st46{fill:#0C63D2;}
	.st47{fill:#5287B5;}
	.st48{fill:#B2B2B2;}
	.st49{fill:#27C0F2;}
	.st50{fill:#047FAA;}
	.st51{fill:#000C2E;}
	.st52{fill:#274867;}
	.st53{fill:#659F61;}
	.st54{fill:#4B7CC3;}
	.st55{fill:#131A49;}
	.st56{fill:url(#SVGID_00000142861305226659508880000004155324582664122255_);}
	.st57{fill:url(#SVGID_00000181791973311667141040000004194478509951758239_);}
	.st58{fill:#03C0E8;}
	.st59{fill:url(#SVGID_00000107557645167461120230000007085564994892306075_);}
	.st60{fill:url(#SVGID_00000120519135467808202490000014116462940064885653_);}
	.st61{fill:url(#SVGID_00000049916495095186672170000007024607233837319818_);}
	.st62{fill:#59BE88;}
	.st63{fill:#FECA6C;}
	.st64{fill:url(#SVGID_00000013152358145613155790000014008523769599878530_);}
	.st65{fill:#305271;}
	.st66{fill:url(#SVGID_00000168807484703720396220000000919056372679122573_);}
	.st67{fill:url(#SVGID_00000049922511438938336310000014358052556834426775_);}
	.st68{fill:url(#SVGID_00000036242920620123801810000010915393989145552781_);}
	.st69{fill:url(#SVGID_00000032631910866131826060000003435949353321723062_);}
	.st70{fill:url(#SVGID_00000093171291037884168610000008953113068144728965_);}
	.st71{fill:url(#SVGID_00000176721626694027319710000018126993800745510060_);}
	.st72{fill:url(#SVGID_00000030457677017198767690000006626771968153586063_);}
	.st73{fill:url(#SVGID_00000001629243858762897610000017661199257034109069_);}
	.st74{fill:url(#SVGID_00000163754165170438329220000014260066679374721455_);}
	.st75{fill:url(#SVGID_00000161604971888910446290000012677083700418469310_);}
	.st76{fill:url(#SVGID_00000034048803566680852210000000833155661916038311_);}
	.st77{fill:url(#SVGID_00000087390983345244366260000014618355715394854064_);}
	.st78{fill:url(#SVGID_00000129182106987088400610000015860449991345496481_);}
	.st79{fill:url(#SVGID_00000111911848632272249740000008961516051269615239_);}
	.st80{fill:url(#SVGID_00000028283780046270127020000017806346276361125281_);}
	.st81{fill:url(#SVGID_00000060736400523449895830000005718362441855884184_);}
	.st82{fill:#099EB4;}
	.st83{fill:url(#SVGID_00000071534408431404043140000004743644943629113780_);}
	.st84{fill:url(#SVGID_00000113333244307593838960000007678495344565036219_);}
	.st85{fill:url(#SVGID_00000173132072554974142060000010149099994988546983_);}
	.st86{fill:#E6FAC3;}
	.st87{fill:#FFF5AF;}
	.st88{fill:#5AA5D7;}
	.st89{fill:#F5D78C;}
	.st90{fill:#EBDCC3;}
	.st91{fill:#0A1419;}
	.st92{fill:#E1FAFA;}
	.st93{fill:#E1F5C3;}
	.st94{fill:#FFB946;}
	.st95{fill:#FFF0C8;}
	.st96{fill:#FFD264;}
	.st97{fill:#48FF9F;}
	.st98{fill:#232323;}
</style>
<g id="Layer_1">
</g>
<g id="Layer_2">
</g>
<g id="Layer_3">
</g>
<g id="Layer_4">
</g>
<g id="Layer_5">
</g>
<g id="Layer_6">
</g>
<g id="Layer_7">
</g>
<g id="Layer_8">
</g>
<g id="Layer_9">
</g>
<g id="Layer_10">
</g>
<g id="Layer_11">
</g>
<g id="Layer_12">
</g>
<g id="Layer_13">
</g>
<g id="Layer_14">
</g>
<g id="Layer_15">
	<g id="DESIGN">
		<linearGradient id="SVGID_1_" gradientUnits="userSpaceOnUse" x1="110.6452" y1="95.6629" x2="238.6512" y2="95.6629">
			<stop  offset="0" style="stop-color:#0A3755"/>
			<stop  offset="0.2962" style="stop-color:#0A3956"/>
			<stop  offset="0.447" style="stop-color:#0A4158"/>
			<stop  offset="0.565" style="stop-color:#0A4E5C"/>
			<stop  offset="0.6661" style="stop-color:#0A6162"/>
			<stop  offset="0.7563" style="stop-color:#0A7A69"/>
			<stop  offset="0.8386" style="stop-color:#0A9872"/>
			<stop  offset="0.9152" style="stop-color:#0ABC7D"/>
			<stop  offset="0.9852" style="stop-color:#0AE489"/>
			<stop  offset="1" style="stop-color:#0AEE8C"/>
		</linearGradient>
		<path class="st32" d="M174.65,31.66c-35.35,0-64,28.65-64,64s28.65,64,64,64c35.35,0,64-28.65,64-64S210,31.66,174.65,31.66z
			 M222.12,102.99c0.05,0.65-0.21,0.79-0.82,0.77c-2.6-0.09-5.21-0.08-7.81,0.16c-5.9,0.54-11.53,2.16-17.05,4.23
			c-3.84,1.43-7.6,3.06-11.35,4.72c-0.86,0.38-1.75,0.76-2.96,0.59c1.73-1.66,3.57-2.82,5.44-3.93c6.9-4.12,14.22-7.18,22.09-8.88
			c3.74-0.81,7.54-1.03,11.37-0.99c0.81,0.01,1.21,0.22,1.1,1.13C222.03,101.52,222.06,102.26,222.12,102.99z M222.12,95.03
			c0.06,0.72-0.17,0.92-0.9,0.9c-3.28-0.09-6.55,0.1-9.79,0.7c-7.04,1.29-13.61,3.9-19.94,7.17c-4.28,2.21-8.26,4.89-12.25,7.56
			c-0.27,0.18-0.48,0.54-1.05,0.37c0.49-0.79,1.09-1.41,1.71-1.99c9.09-8.42,19.56-14.32,31.67-17.13c3.14-0.73,6.35-0.95,9.57-0.93
			c0.71,0,1.03,0.18,0.96,0.96C222.03,93.44,222.05,94.24,222.12,95.03z M222.12,84.37c-0.07,0.95-0.04,1.91-0.02,2.86
			c0.01,0.47-0.11,0.67-0.64,0.66c-9.08-0.13-17.4,2.63-25.36,6.71c-6.06,3.1-11.53,7.09-16.7,11.48c-1.31,1.11-2.62,2.22-3.93,3.33
			c-0.13,0.11-0.23,0.33-0.54,0.17c0.29-0.7,0.75-1.29,1.24-1.84c8.24-9.32,17.81-16.85,29.48-21.44
			c4.95-1.94,10.12-2.91,15.46-2.94C221.89,83.36,222.18,83.56,222.12,84.37z M196.71,78.56c3.88-2.95,8.09-5.26,12.87-6.43
			c3.93-0.97,7.92-1.05,11.93-1c0.44,0.01,0.61,0.15,0.61,0.61c-0.02,2.45-0.03,4.9-0.01,7.35c0.01,0.76-0.48,0.6-0.9,0.59
			c-4.43-0.12-8.74,0.6-12.95,1.95c-6.64,2.13-12.66,5.43-18.3,9.48c-6.27,4.52-11.77,9.89-17.07,15.49
			c-0.08,0.09-0.17,0.18-0.25,0.26c3.46-6.45,7.69-12.38,12.14-18.2c-2.47,1.4-5.1,2.25-7.88,2.61c-3.14,0.4-6.21,0.08-9.23-0.87
			c-0.93-0.29-0.98-0.68-0.56-1.47c2.79-5.33,7.11-8.69,12.94-10.13c4.95-1.22,9.9-0.95,14.84,0.1
			C195.59,79.04,196.1,79.02,196.71,78.56z M158.74,60.92c7.29-9.22,20.95-10.08,29.23-1.78c3.84,3.84,5.74,8.54,5.85,13.16
			c0,2.9,0.01,2.84-2.12,2.57c-7.23-0.92-14.08,0.05-20.23,4.27c-3.22,2.21-5.62,5.14-7.39,8.59c-0.42,0.82-0.69,0.76-1.36,0.31
			C153.83,81.99,151.98,69.47,158.74,60.92z M197.2,115.31c-2.98,4.43-5.63,9.08-8.83,13.37c-4.73,6.33-13.52,8.64-20.53,5.48
			c-3.32-1.49-5.87-3.9-7.85-6.91c-4.35-6.62-8.66-13.26-12.98-19.9c-1.16-1.78-2.31-3.58-3.47-5.37c-0.15-0.24-0.34-0.45-0.69-0.91
			v12.59c0,7.73-0.02,15.46,0.03,23.19c0.01,0.88-0.24,1.03-1.06,1.02c-4.55-0.04-9.1-0.03-13.65,0.01c-0.8,0.01-1-0.24-1-1.02
			c0.02-21.61,0.02-43.21-0.01-64.81c0-0.78,0.24-0.94,0.97-0.93c3.34,0.04,6.67-0.07,9.96,0.73c5.83,1.42,10.42,4.6,13.81,9.51
			c5.58,8.08,11.14,16.19,16.72,24.27c2.1,3.03,4.5,5.78,7.78,7.59c5,2.75,10.12,2.8,15.33,0.58c2.43-1.03,4.87-2.03,7.31-3.02
			c0.4-0.16,0.81-0.37,1.39-0.32C199.33,112.12,198.27,113.72,197.2,115.31z M222.12,122.72c0,4.74-0.02,9.48,0.01,14.22
			c0.01,0.73-0.14,0.95-0.93,0.94c-4.52-0.04-9.03-0.04-13.55,0.02c-0.93,0.01-1.15-0.27-1.15-1.16c0.03-8.78,0.01-17.56,0-26.34
			c0-1.73-0.01-1.71,1.66-2.07c4.32-0.94,8.7-1.05,13.09-0.9c0.71,0.02,0.89,0.28,0.89,0.98
			C222.1,113.18,222.12,117.95,222.12,122.72z"/>
	</g>
</g>
</svg>
