<?xml version="1.0" encoding="utf-8"?>
<!-- Generator: Adobe Illustrator 27.8.1, SVG Export Plug-In . SVG Version: 6.00 Build 0)  -->
<svg version="1.1" xmlns="http://www.w3.org/2000/svg" xmlns:xlink="http://www.w3.org/1999/xlink" x="0px" y="0px"
	 viewBox="0 0 350 230" style="enable-background:new 0 0 350 230;" xml:space="preserve">
<style type="text/css">
	.st0{fill:#004963;}
	.st1{fill:#FF0000;}
	.st2{fill:#3300A3;}
	.st3{fill:#089E00;}
	.st4{fill:#000A82;}
	.st5{fill:#1D0042;}
	.st6{fill:#594A02;}
	.st7{fill:#013A4C;}
	.st8{fill:#64E2FF;}
	.st9{fill:#BA00FF;}
	.st10{fill:#009CA0;}
	.st11{fill:#E097FF;}
	.st12{fill:#064F00;}
	.st13{fill:#0096C4;}
	.st14{fill:#003027;}
	.st15{fill:#557EFF;}
	.st16{fill:#66F4FF;}
	.st17{fill:#FC7E00;}
	.st18{fill:#27005E;}
	.st19{fill:#0060F9;}
	.st20{fill:#9FC6FF;}
	.st21{fill:#D7E7FF;}
	.st22{fill:#6600C9;}
	.st23{fill:#4D0089;}
	.st24{fill:#006D70;}
	.st25{fill:#00CCCC;}
	.st26{fill:#610089;}
	.st27{fill:#32004C;}
	.st28{fill:#00FF5B;}
	.st29{fill:#009632;}
	.st30{fill:#004916;}
	.st31{fill:#000650;}
	.st32{fill:url(#SVGID_1_);}
	.st33{fill:url(#SVGID_00000165206293793094344230000009999004894117996208_);}
	.st34{fill:#AAE6CD;}
	.st35{fill:#FA8301;}
	.st36{fill:#F05908;}
	.st37{fill:#FF7D2D;}
	.st38{fill:#05D7A0;}
	.st39{fill:#278BDE;}
	.st40{fill:url(#SVGID_00000176763083625761636440000011136071651625300368_);}
	.st41{fill:#10173D;}
	.st42{fill:#FEFEFE;}
	.st43{fill:url(#SVGID_00000178925494749264994590000010724865107775536550_);}
	.st44{fill:url(#SVGID_00000144337452123467859210000015734525102239315115_);}
	.st45{fill:url(#SVGID_00000096763961940960264470000005772950668296801456_);}
	.st46{fill:#0C63D2;}
	.st47{fill:#5287B5;}
	.st48{fill:#B2B2B2;}
	.st49{fill:#27C0F2;}
	.st50{fill:#047FAA;}
	.st51{fill:#000C2E;}
	.st52{fill:#274867;}
	.st53{fill:#659F61;}
	.st54{fill:#4B7CC3;}
	.st55{fill:#131A49;}
	.st56{fill:url(#SVGID_00000023258499483645425900000003901913208195637397_);}
	.st57{fill:url(#SVGID_00000041985941681880784890000011183058029716432810_);}
	.st58{fill:#03C0E8;}
	.st59{fill:url(#SVGID_00000178916304618945207760000004614887364168922035_);}
	.st60{fill:url(#SVGID_00000067220913868150523650000016608868013339974033_);}
	.st61{fill:url(#SVGID_00000016038378666994802710000007831966422159024299_);}
	.st62{fill:#59BE88;}
	.st63{fill:#FECA6C;}
	.st64{fill:url(#SVGID_00000143586420707935431910000016678418203156097673_);}
	.st65{fill:#305271;}
	.st66{fill:url(#SVGID_00000036933236503392452540000010744211125493713559_);}
	.st67{fill:url(#SVGID_00000119808355016595337420000001689816684001854904_);}
	.st68{fill:url(#SVGID_00000167374174607757168660000011727940960067393434_);}
	.st69{fill:url(#SVGID_00000072258852309379445890000017649612637435764625_);}
	.st70{fill:url(#SVGID_00000092441581378846764130000004702128081061387706_);}
	.st71{fill:url(#SVGID_00000173854117870052855270000012222142281290877321_);}
	.st72{fill:url(#SVGID_00000039819141085062939350000011067937519144056977_);}
	.st73{fill:url(#SVGID_00000165939062963176765680000008603677779828511668_);}
	.st74{fill:url(#SVGID_00000010287733326054224310000017943577214349525669_);}
	.st75{fill:url(#SVGID_00000098903659583878185540000013283479736526706561_);}
	.st76{fill:url(#SVGID_00000153696040426868032580000011611193701155041177_);}
	.st77{fill:url(#SVGID_00000102528021648381665890000001131637808903050412_);}
	.st78{fill:url(#SVGID_00000030469832178561495180000008150267374799084706_);}
	.st79{fill:url(#SVGID_00000051358897081429505460000002144802081746319007_);}
	.st80{fill:url(#SVGID_00000006690460281944678160000014299909603884535459_);}
	.st81{fill:url(#SVGID_00000053516839589904926380000009303152266328324276_);}
	.st82{fill:#099EB4;}
	.st83{fill:url(#SVGID_00000072976282321719347280000015870341556124071299_);}
	.st84{fill:url(#SVGID_00000060030287832711147760000006315900153808106629_);}
	.st85{fill:url(#SVGID_00000111159308413693533140000013588025706742495654_);}
	.st86{fill:#E6FAC3;}
	.st87{fill:#FFF5AF;}
	.st88{fill:#5AA5D7;}
	.st89{fill:#F5D78C;}
	.st90{fill:#EBDCC3;}
	.st91{fill:#0A1419;}
	.st92{fill:#E1FAFA;}
	.st93{fill:#E1F5C3;}
	.st94{fill:#FFB946;}
	.st95{fill:#FFF0C8;}
	.st96{fill:#FFD264;}
	.st97{fill:#48FF9F;}
	.st98{fill:#232323;}
</style>
<g id="Layer_1">
</g>
<g id="Layer_2">
</g>
<g id="Layer_3">
</g>
<g id="Layer_4">
</g>
<g id="Layer_5">
</g>
<g id="Layer_6">
</g>
<g id="Layer_7">
</g>
<g id="Layer_8">
</g>
<g id="Layer_9">
</g>
<g id="Layer_10">
</g>
<g id="Layer_11">
</g>
<g id="Layer_12">
</g>
<g id="Layer_13">
</g>
<g id="Layer_14">
</g>
<g id="Layer_15">
	<g>
		<linearGradient id="SVGID_1_" gradientUnits="userSpaceOnUse" x1="158.8724" y1="104.6238" x2="175.3589" y2="104.6238">
			<stop  offset="0" style="stop-color:#00002C"/>
			<stop  offset="1" style="stop-color:#062B68"/>
		</linearGradient>
		<path class="st32" d="M159.12,96.07c5.4-0.12,10.85,0.29,16.23-0.01l0.01,17.13c-3.94-4.43-8.37-8.53-12.57-12.72
			c-1.15-1.15-2.41-2.26-3.5-3.45c-0.2-0.22-0.38-0.39-0.42-0.69L159.12,96.07z"/>
		
			<linearGradient id="SVGID_00000176759378262492263910000016274310800726065831_" gradientUnits="userSpaceOnUse" x1="117.2879" y1="108.9092" x2="175.378" y2="108.9092">
			<stop  offset="0" style="stop-color:#289B91"/>
			<stop  offset="1" style="stop-color:#96C3D7"/>
		</linearGradient>
		<path style="fill:url(#SVGID_00000176759378262492263910000016274310800726065831_);" d="M175.31,79.84
			c0.11,1.95,0.04,3.93,0.04,5.88l0,10.34c-5.38,0.31-10.84-0.11-16.23,0.01C164.64,90.81,169.93,85.26,175.31,79.84z M117.64,93.61
			c0.92,1.36,1.44,3.01,2.26,4.45c7.08,13.55,20.48,24.23,35.02,28.78c3.06,0.95,10.83,2.78,13.86,2.41
			c1.97,2.03,4.11,3.9,6.02,5.98c-0.92,0.49-1.48,1.48-2.28,2.13c-1.52,0.09-3.06,0.39-4.59,0.5c-3.57,0.26-7.37,0.15-10.91-0.4
			c-12.66-1.96-25.26-8.35-32.92-18.86C118.95,111.53,116.28,102.33,117.64,93.61z"/>
		
			<linearGradient id="SVGID_00000182499079281256467700000010743737484627780509_" gradientUnits="userSpaceOnUse" x1="175.3138" y1="81.1586" x2="233.0645" y2="81.1586">
			<stop  offset="0" style="stop-color:#2D969B"/>
			<stop  offset="0.05" style="stop-color:#298B93"/>
			<stop  offset="0.2101" style="stop-color:#1E6D7D"/>
			<stop  offset="0.3788" style="stop-color:#15556B"/>
			<stop  offset="0.5578" style="stop-color:#0F445F"/>
			<stop  offset="0.7539" style="stop-color:#0B3A57"/>
			<stop  offset="1" style="stop-color:#0A3755"/>
		</linearGradient>
		<path style="fill:url(#SVGID_00000182499079281256467700000010743737484627780509_);" d="M175.31,79.84l0.19-0.05
			c1.22,0.84,3.63,3.43,4.77,4.58c2.54,2.59,5.11,5.16,7.7,7.7c1.37,1.36,2.73,2.86,4.2,4.11c-2.1-0.21-4.3-0.13-6.4-0.14
			l-10.41,0.01l0-10.34C175.36,83.77,175.43,81.79,175.31,79.84z M177.39,58.69l0.14-0.01c2.86-0.13,5.65-0.58,8.53-0.56
			c12.57,0.06,25.06,4.07,34.48,12.6c7.58,6.86,12.02,16.01,12.5,26.27c0.11,2.43-0.05,4.82-0.41,7.22
			c-1.12-1.39-1.51-3.67-2.18-5.35c-1.86-4.65-4.65-8.77-8.15-12.33c-8.99-9.15-21.49-14.99-33.78-18.15
			c-1.85-0.47-4.96-1.44-6.78-1.46c-2.2-1.96-4.06-4.35-6.36-6.21C175.91,59.97,176.67,59.27,177.39,58.69z"/>
		<path class="st82" d="M117.64,93.61c0.2-2.2,0.89-4.51,1.64-6.57c3.36-9.17,9.74-14.86,16.55-21.49c1.84-1.79,3.51-3.73,5.35-5.52
			c-1.06,2.67-2.07,5.33-2.82,8.11c-2.62,9.62-2.56,20.14,1.45,29.38c1.24,2.86,2.79,5.47,4.84,7.83c1.66,1.78,3.5,3.36,5.23,5.07
			c3.6,3.63,7.22,7.24,10.87,10.82c2.68,2.65,5.44,5.27,8.03,8c-3.02,0.37-10.8-1.46-13.86-2.41
			c-14.54-4.54-27.94-15.23-35.02-28.78C119.08,96.63,118.56,94.97,117.64,93.61z"/>
		
			<linearGradient id="SVGID_00000048472946119243195040000006434932370500978313_" gradientUnits="userSpaceOnUse" x1="162.1728" y1="124.6101" x2="209.8085" y2="132.0762">
			<stop  offset="0" style="stop-color:#00002C"/>
			<stop  offset="1" style="stop-color:#062B68"/>
		</linearGradient>
		<path style="fill:url(#SVGID_00000048472946119243195040000006434932370500978313_);" d="M174.79,135.22
			c0.04-0.02,0.08-0.03,0.12-0.05c0.62-0.32,4.86-4.87,5.73-5.74L198,112.11c3.47-3.47,6.88-7.12,10.54-10.39
			c0.25-0.22,0.56-0.55,0.91-0.56c0.62,0.74,0.87,1.86,1.14,2.77c0.17,0.61,0.33,1.23,0.48,1.84c0.15,0.62,0.28,1.24,0.4,1.86
			c0.12,0.62,0.22,1.25,0.31,1.88c0.09,0.63,0.16,1.26,0.22,1.89c0.06,0.63,0.11,1.27,0.14,1.9s0.05,1.27,0.05,1.9
			c0,0.64-0.01,1.27-0.04,1.9c-0.03,0.63-0.07,1.27-0.13,1.9c-0.93,11.21-6.07,22.25-14.74,29.56c-7.43,6.26-16.44,9.1-26.14,8.23
			c-5-0.45-9.24-2.3-13.74-4.32c3.59-3.93,7.52-7.67,11.31-11.41c1.26-1.25,2.6-2.44,3.82-3.73
			C173.31,136.7,173.88,135.71,174.79,135.22z"/>
		
			<linearGradient id="SVGID_00000101816020016104578720000017149991084738648722_" gradientUnits="userSpaceOnUse" x1="170.0609" y1="68.4537" x2="151.4965" y2="51.6092">
			<stop  offset="0" style="stop-color:#CA001C"/>
			<stop  offset="1" style="stop-color:#E33838"/>
		</linearGradient>
		<path style="fill:url(#SVGID_00000101816020016104578720000017149991084738648722_);" d="M145.67,56.58
			c0.26-0.84,1.02-1.91,1.5-2.66c5.64-8.78,13.59-16.67,24.14-18.92c8.31-1.77,16.74-0.33,23.85,4.32c0.46,0.2,0.9,0.39,1.33,0.66
			c-2.94,2.71-5.73,5.57-8.58,8.37c-3.51,3.44-7.08,6.85-10.53,10.34c-0.71,0.59-1.47,1.28-2.03,2.01
			c-5.08,4.74-9.9,9.79-14.8,14.72l-10.53,10.63c-2.08,2.08-4.2,4.11-6.23,6.23c-0.82,0.86-1.55,1.8-2.35,2.66
			c-0.5-1.11-0.9-2.28-1.22-3.45C136.94,79.69,139.79,67.04,145.67,56.58z"/>
		
			<radialGradient id="SVGID_00000026876217682027926410000000436888574840039063_" cx="203.984" cy="101.1087" r="31.5383" fx="172.4499" fy="101.626" gradientUnits="userSpaceOnUse">
			<stop  offset="0" style="stop-color:#2D969B"/>
			<stop  offset="0.4385" style="stop-color:#EB1E4B"/>
			<stop  offset="1" style="stop-color:#782D2D"/>
		</radialGradient>
		<path style="fill:url(#SVGID_00000026876217682027926410000000436888574840039063_);" d="M175.35,96.06l10.41-0.01
			c2.11,0.01,4.31-0.07,6.4,0.14c0.05,0.26,0.09,0.19-0.08,0.44c-1.04,1.5-16.04,16.3-16.73,16.56L175.35,96.06z M181.71,66.91
			c1.82,0.02,4.94,0.99,6.78,1.46c12.29,3.16,24.79,9,33.78,18.15c3.51,3.57,6.29,7.68,8.15,12.33c0.67,1.68,1.06,3.96,2.18,5.35
			c-1.91,11.99-7.36,16.52-15.52,24.33c-2.21,2.12-4.74,4.94-7.08,6.78c0.59-1.43,1.25-2.83,1.78-4.28c0.4-1.13,0.76-2.28,1.08-3.44
			c0.32-1.16,0.59-2.33,0.81-3.51c0.23-1.18,0.41-2.37,0.54-3.56c0.13-1.19,0.22-2.39,0.27-3.6c0.22-7.03-1.22-14.53-4.79-20.63
			c-2.71-4.63-7.03-8.26-10.78-12.03c-3.81-3.79-7.6-7.61-11.36-11.45C185.61,70.84,183.61,68.93,181.71,66.91z"/>
	</g>
</g>
</svg>
