<?xml version="1.0" encoding="utf-8"?>
<!-- Generator: Adobe Illustrator 27.8.1, SVG Export Plug-In . SVG Version: 6.00 Build 0)  -->
<svg version="1.1" xmlns="http://www.w3.org/2000/svg" xmlns:xlink="http://www.w3.org/1999/xlink" x="0px" y="0px"
	 viewBox="0 0 350 230" style="enable-background:new 0 0 350 230;" xml:space="preserve">
<style type="text/css">
	.st0{fill:#E3FFE5;}
	.st1{fill:#E6FFE3;}
	.st2{fill:#FFFCE1;}
	.st3{fill:#E3FFF1;}
	.st4{fill:#E1FCFF;}
	.st5{fill:#EAE4C5;}
	.st6{fill:#D3D3D1;}
	.st7{fill:#D3FFC5;}
	.st8{fill:#FFF7BD;}
	.st9{fill:#004963;}
	.st10{fill:#FF0000;}
	.st11{fill:#3300A3;}
	.st12{fill:#089E00;}
	.st13{fill:#000A82;}
	.st14{fill:#1D0042;}
	.st15{fill:#594A02;}
	.st16{fill:#013A4C;}
	.st17{fill:#64E2FF;}
	.st18{fill:#BA00FF;}
	.st19{fill:#009CA0;}
	.st20{fill:#E097FF;}
	.st21{fill:#064F00;}
	.st22{fill:#0096C4;}
	.st23{fill:#003027;}
	.st24{fill:#557EFF;}
	.st25{fill:#66F4FF;}
	.st26{fill:#FC7E00;}
	.st27{fill:#27005E;}
	.st28{fill:#0060F9;}
	.st29{fill:#9FC6FF;}
	.st30{fill:#D7E7FF;}
	.st31{fill:#6600C9;}
	.st32{fill:#4D0089;}
	.st33{fill:#006D70;}
	.st34{fill:#00CCCC;}
	.st35{fill:#610089;}
	.st36{fill:#32004C;}
	.st37{fill:#00FF5B;}
	.st38{fill:#009632;}
	.st39{fill:#004916;}
	.st40{fill:#E6FAC3;}
	.st41{fill:#FFF5AF;}
	.st42{fill:#5AA5D7;}
	.st43{fill:#F5D78C;}
	.st44{fill:#EBDCC3;}
	.st45{fill:#0A1419;}
	.st46{fill:#E1FAFA;}
	.st47{fill:#E1F5C3;}
	.st48{fill:#FFB946;}
	.st49{fill:#FFF0C8;}
	.st50{fill:#FFD264;}
	.st51{fill:#48FF9F;}
	.st52{fill:#232323;}
	.st53{fill:#000650;}
	.st54{fill:url(#SVGID_1_);}
	.st55{fill:url(#SVGID_00000145044392591187936740000006432857501392008351_);}
	.st56{fill:#AAE6CD;}
	.st57{fill:#FA8301;}
	.st58{fill:#F05908;}
	.st59{fill:#FF7D2D;}
	.st60{fill:#05D7A0;}
	.st61{fill:#278BDE;}
	.st62{fill:url(#SVGID_00000075157554176584438920000014452514225269651871_);}
	.st63{fill:#10173D;}
	.st64{fill:#FEFEFE;}
	.st65{fill:url(#SVGID_00000009578211870700561060000012842069064805300898_);}
	.st66{fill:url(#SVGID_00000046336835567508338440000018403938584454642084_);}
	.st67{fill:url(#SVGID_00000012435370815847556700000000548024965233592487_);}
	.st68{fill:#0C63D2;}
	.st69{fill:#5287B5;}
	.st70{fill:#B2B2B2;}
	.st71{fill:#27C0F2;}
	.st72{fill:#047FAA;}
	.st73{fill:#000C2E;}
	.st74{fill:#274867;}
	.st75{fill:#659F61;}
	.st76{fill:#4B7CC3;}
	.st77{fill:#131A49;}
	.st78{fill:url(#SVGID_00000173122631876704298300000015809202091681765029_);}
	.st79{fill:url(#SVGID_00000049928508231195012950000002245390727036824448_);}
	.st80{fill:#03C0E8;}
	.st81{fill:url(#SVGID_00000138550396193276389940000002663464580345511843_);}
	.st82{fill:url(#SVGID_00000046307276637060458730000012548507850117403273_);}
	.st83{fill:url(#SVGID_00000072960863191707127000000014600728644495406734_);}
	.st84{fill:#59BE88;}
	.st85{fill:#FECA6C;}
	.st86{fill:url(#SVGID_00000179640901417368767360000008561577228828399750_);}
	.st87{fill:#305271;}
	.st88{fill:url(#SVGID_00000034049944017786438910000002453516743985384354_);}
	.st89{fill:url(#SVGID_00000132056878782003352880000010003682358210068125_);}
	.st90{fill:url(#SVGID_00000134247119994074175800000014675700045520991667_);}
	.st91{fill:url(#SVGID_00000150088235656347047800000008714795197457822895_);}
	.st92{fill:url(#SVGID_00000171711312896746342110000013656797475358167481_);}
	.st93{fill:url(#SVGID_00000074436936053502010790000013511279134202752409_);}
	.st94{fill:url(#SVGID_00000061440117102014019620000009971095884791362453_);}
	.st95{fill:url(#SVGID_00000153687863585487226900000017646843773937409209_);}
	.st96{fill:url(#SVGID_00000108299454556468320970000014484407481595700374_);}
	.st97{fill:url(#SVGID_00000057123255559900272530000009152765814840927620_);}
	.st98{fill:url(#SVGID_00000014631052034380470320000000671895929247032196_);}
	.st99{fill:url(#SVGID_00000088828462840046804820000012930603873831808677_);}
	.st100{fill:url(#SVGID_00000134962343910078366570000013192615654954015140_);}
	.st101{fill:url(#SVGID_00000017487050460880331160000002746885794458707600_);}
	.st102{fill:url(#SVGID_00000065043200395561991580000004312309891153226880_);}
	.st103{fill:url(#SVGID_00000170261658081987695840000006492692983377540774_);}
	.st104{fill:#099EB4;}
	.st105{fill:url(#SVGID_00000178193499310641116100000014450018871271928511_);}
	.st106{fill:url(#SVGID_00000175301393904806023830000015267731053598448549_);}
	.st107{fill:url(#SVGID_00000100367232180351031830000004828161162561994148_);}
	.st108{fill:url(#SVGID_00000029731014283664796040000009342809305141411501_);}
	.st109{fill:url(#SVGID_00000128487251300830244000000001943372170864353450_);}
	.st110{fill:url(#SVGID_00000021097093490853531380000016269039329959298231_);}
	.st111{fill:url(#SVGID_00000078031606243554844640000011081731318527617178_);}
	.st112{fill:url(#SVGID_00000072261288853776559590000000486890806559370668_);}
	.st113{fill:url(#SVGID_00000105402561307410135990000009037799890087085719_);}
	.st114{opacity:0.3;fill:url(#SVGID_00000029048128699583765960000001612767542901853846_);}
	.st115{fill:url(#SVGID_00000171693196691331937470000011534480866027268005_);}
	.st116{fill:url(#SVGID_00000042007727301275031880000012786609146536517819_);}
	.st117{fill:url(#SVGID_00000129193342448443272310000011718586955077412023_);}
	.st118{fill:#06416C;}
	.st119{fill:#23A7E6;}
	.st120{fill:#013F6E;}
	.st121{fill:#26A9E0;}
	.st122{fill:url(#SVGID_00000150077082463258443580000005387545551769393328_);}
	.st123{fill:#262E3A;}
	.st124{fill:url(#SVGID_00000026847850362568372240000002501278039050779574_);}
	.st125{fill:url(#SVGID_00000159446626795336860420000017633462842713332379_);}
	.st126{fill:url(#SVGID_00000006684091991451418350000003939018180986725003_);}
	.st127{fill:url(#SVGID_00000040565885298179848320000010148623759915272111_);}
	.st128{fill:url(#SVGID_00000128464067495041368350000003770905344615195036_);}
	.st129{fill:url(#SVGID_00000082356567207150979030000003293381466662642567_);}
	.st130{fill:url(#SVGID_00000023255266017271516200000003448379102015203499_);}
	.st131{fill:#FF6600;}
	.st132{fill:#39C6AA;}
	.st133{fill:#F45C5A;}
	.st134{fill:#122E45;}
	.st135{fill:#6DBD45;}
	.st136{fill:#036097;}
	.st137{fill:#E66619;}
	.st138{fill:url(#SVGID_00000145024791565642719370000004544947671015579325_);}
	.st139{fill:#006315;}
	.st140{fill:#132346;}
	.st141{fill:#4072B7;}
	.st142{fill:#562700;}
	.st143{fill:url(#SVGID_00000134224408138570514940000014583179033111395463_);}
	.st144{fill:url(#SVGID_00000127024231785238701620000015169581509619725498_);}
	.st145{fill:url(#SVGID_00000108292142842665460980000012930357410922565007_);}
	.st146{fill:url(#SVGID_00000076602258026036034750000004118203096139799732_);}
	.st147{fill:url(#SVGID_00000077308224294149975920000003796790238114298773_);}
	.st148{fill-rule:evenodd;clip-rule:evenodd;fill:url(#SVGID_00000181770505439452405980000017777411289019522433_);}
	.st149{fill:url(#SVGID_00000018940659646134611240000001013048188173872525_);}
	.st150{fill:url(#SVGID_00000086656917392422407480000018360827838203021461_);}
	.st151{fill:url(#SVGID_00000183938955334350850320000003417145272543300500_);}
	.st152{fill:none;stroke:#FFFFFF;stroke-width:2;stroke-miterlimit:10;}
	.st153{fill:url(#SVGID_00000021811992218346667460000003363229094092174998_);}
	.st154{fill:url(#SVGID_00000106118982107129340130000011674997858446802592_);}
	.st155{fill:#FFFFFF;}
	.st156{fill:url(#SVGID_00000167380031966009072830000017311394908508161426_);}
	.st157{fill:url(#SVGID_00000070828712083360811170000013076273759343770757_);}
	.st158{fill:url(#SVGID_00000142158982263507627770000009446505474680690866_);}
	.st159{fill:url(#SVGID_00000001659380056041112960000009317216320149183165_);}
	.st160{fill:url(#SVGID_00000109726447382873029250000006315152298533430164_);}
	.st161{fill:#E57825;}
	.st162{fill:#F36B21;}
	.st163{fill:#6D4099;}
	.st164{fill:#58297A;}
	.st165{fill-rule:evenodd;clip-rule:evenodd;fill:url(#SVGID_00000042732062122291560130000001428946278304101514_);}
	.st166{fill-rule:evenodd;clip-rule:evenodd;fill:#E5E5E5;}
	.st167{fill-rule:evenodd;clip-rule:evenodd;fill:#234382;}
	.st168{fill-rule:evenodd;clip-rule:evenodd;fill:#60CAE6;}
	.st169{fill:url(#SVGID_00000040544254836251989600000000618229058198642067_);}
</style>
<g id="Layer_1">
</g>
<g id="Layer_2">
</g>
<g id="Layer_3">
</g>
<g id="Layer_4">
</g>
<g id="Layer_5">
</g>
<g id="Layer_6">
</g>
<g id="Layer_7">
</g>
<g id="Layer_8">
</g>
<g id="Layer_9">
</g>
<g id="Layer_10">
</g>
<g id="Layer_11">
</g>
<g id="Layer_12">
</g>
<g id="Layer_13">
</g>
<g id="Layer_14">
</g>
<g id="Layer_15">
	<g>
		<g>
			<linearGradient id="SVGID_1_" gradientUnits="userSpaceOnUse" x1="113.725" y1="140.733" x2="219.6899" y2="140.733">
				<stop  offset="0" style="stop-color:#1AB0E6"/>
				<stop  offset="1" style="stop-color:#5541A3"/>
			</linearGradient>
			<path class="st54" d="M219.69,137.98c0,2.62-4.27,5.02-11.41,6.93c-5.94,1.59-13.89,2.82-23.02,3.55
				c-1.84,0.14-3.74,0.26-5.69,0.37c-4.11,0.21-8.42,0.33-12.85,0.33c-3.47,0-6.88-0.07-10.17-0.2c-1.94-0.08-3.84-0.18-5.69-0.31
				c-8.92-0.58-16.83-1.66-23.03-3.07c-8.75-1.98-14.1-4.65-14.1-7.59c0-2.93,5.35-5.6,14.1-7.59c6.19-1.41,14.1-2.49,23.03-3.07
				c1.85-0.13,3.75-0.23,5.69-0.31c3.3-0.13,6.7-0.2,10.17-0.2c4.44,0,8.74,0.12,12.85,0.33c1.95,0.11,3.85,0.23,5.69,0.37
				c9.14,0.72,17.09,1.96,23.02,3.55C215.42,132.95,219.69,135.35,219.69,137.98z M208.28,136.57c-5.94-1.59-13.89-2.82-23.02-3.55
				c-1.84-0.14-3.74-0.26-5.69-0.37c-4.11-0.21-8.42-0.33-12.85-0.33c-3.47,0-6.88,0.07-10.17,0.2c-1.94,0.09-3.84,0.18-5.69,0.31
				c-8.92,0.58-16.83,1.66-23.03,3.07c-8.75,1.98-14.1,4.65-14.1,7.59c0,2.94,5.35,5.6,14.1,7.59c6.19,1.41,14.1,2.49,23.03,3.07
				c1.85,0.13,3.75,0.23,5.69,0.31c3.3,0.13,6.7,0.2,10.17,0.2c4.44,0,8.74-0.12,12.85-0.33c1.95-0.11,3.85-0.23,5.69-0.37
				c9.14-0.72,17.09-1.96,23.02-3.55c7.14-1.9,11.41-4.3,11.41-6.93C219.69,140.87,215.42,138.47,208.28,136.57z"/>
			
				<radialGradient id="SVGID_00000081633211623985614330000008206572545892971671_" cx="168.3491" cy="90.4025" r="50.4613" gradientUnits="userSpaceOnUse">
				<stop  offset="0" style="stop-color:#FFFFFF"/>
				<stop  offset="0.0961" style="stop-color:#F7FCFE"/>
				<stop  offset="0.2472" style="stop-color:#E0F3FB"/>
				<stop  offset="0.4343" style="stop-color:#BCE4F6"/>
				<stop  offset="0.6502" style="stop-color:#89D0EF"/>
				<stop  offset="0.8874" style="stop-color:#48B7E6"/>
				<stop  offset="1" style="stop-color:#27AAE1"/>
			</radialGradient>
			<path style="fill:url(#SVGID_00000081633211623985614330000008206572545892971671_);" d="M196.77,31.66
				c-6.69,0-12.1,5.42-12.1,12.11c0,6.67,5.41,12.09,12.1,12.09c6.67,0,12.1-5.41,12.1-12.09
				C208.87,37.08,203.45,31.66,196.77,31.66z M199.35,59.35h-5.14c-4.94,0-8.94,4-8.94,8.93v80.16c9.13-0.73,17.08-1.96,23.02-3.56
				V68.29C208.28,63.36,204.29,59.35,199.35,59.35z M156.54,83.89v65.05c3.3,0.13,6.71,0.21,10.18,0.21c4.44,0,8.74-0.12,12.85-0.32
				V73.05L156.54,83.89z M127.83,97.1v48.46c6.2,1.41,14.11,2.49,23.03,3.07V86.5L127.83,97.1z"/>
			
				<linearGradient id="SVGID_00000132781980744278852550000016878718336245690815_" gradientUnits="userSpaceOnUse" x1="224.4225" y1="38.3011" x2="123.3374" y2="128.1007">
				<stop  offset="0" style="stop-color:#1AB0E6"/>
				<stop  offset="1" style="stop-color:#5541A3"/>
			</linearGradient>
			<path style="fill:url(#SVGID_00000132781980744278852550000016878718336245690815_);" d="M236.28,51.64l-0.03,33.08l-7.69-13.14
				c-5.03,14.98-12.08,27.22-20.27,36.91c-6.82,8.07-14.45,14.4-22.37,19.06c-0.22,0.15-0.44,0.27-0.65,0.39
				c-1.89,1.09-3.78,2.08-5.69,3c-1.16,0.55-2.33,1.07-3.49,1.55c-6.55,2.72-13.15,4.39-19.54,5.09c-1.92,0.22-3.81,0.33-5.68,0.36
				c-6.75,0.13-13.16-0.85-18.9-2.89c-0.47-0.16-0.91-0.32-1.37-0.5c-1-0.38-1.92-0.94-2.77-1.65c-0.72-0.58-1.38-1.26-2-2.04
				c-10.96-13.71-7.76-55.21-7.76-55.21c1.13,11.49,4.62,20.08,9.76,26.16c5.9,7.01,13.96,10.71,23.03,11.72
				c1.86,0.21,3.75,0.3,5.68,0.3c7.38-0.03,15.24-1.63,23.03-4.48c1.91-0.69,3.8-1.46,5.69-2.3c8.11-3.62,15.99-8.54,23.02-14.42
				c7.52-6.28,14.08-13.66,18.87-21.71l-14.58,3.4L236.28,51.64z"/>
		</g>
	</g>
</g>
</svg>
