<?xml version="1.0" encoding="utf-8"?>
<!-- Generator: Adobe Illustrator 27.8.1, SVG Export Plug-In . SVG Version: 6.00 Build 0)  -->
<svg version="1.1" xmlns="http://www.w3.org/2000/svg" xmlns:xlink="http://www.w3.org/1999/xlink" x="0px" y="0px"
	 viewBox="0 0 350 230" style="enable-background:new 0 0 350 230;" xml:space="preserve">
<style type="text/css">
	.st0{fill:#E3FFE5;}
	.st1{fill:#E6FFE3;}
	.st2{fill:#FFFCE1;}
	.st3{fill:#E3FFF1;}
	.st4{fill:#E1FCFF;}
	.st5{fill:#EAE4C5;}
	.st6{fill:#D3D3D1;}
	.st7{fill:#D3FFC5;}
	.st8{fill:#FFF7BD;}
	.st9{fill:#004963;}
	.st10{fill:#FF0000;}
	.st11{fill:#3300A3;}
	.st12{fill:#089E00;}
	.st13{fill:#000A82;}
	.st14{fill:#1D0042;}
	.st15{fill:#594A02;}
	.st16{fill:#013A4C;}
	.st17{fill:#64E2FF;}
	.st18{fill:#BA00FF;}
	.st19{fill:#009CA0;}
	.st20{fill:#E097FF;}
	.st21{fill:#064F00;}
	.st22{fill:#0096C4;}
	.st23{fill:#003027;}
	.st24{fill:#557EFF;}
	.st25{fill:#66F4FF;}
	.st26{fill:#FC7E00;}
	.st27{fill:#27005E;}
	.st28{fill:#0060F9;}
	.st29{fill:#9FC6FF;}
	.st30{fill:#D7E7FF;}
	.st31{fill:#6600C9;}
	.st32{fill:#4D0089;}
	.st33{fill:#006D70;}
	.st34{fill:#00CCCC;}
	.st35{fill:#610089;}
	.st36{fill:#32004C;}
	.st37{fill:#00FF5B;}
	.st38{fill:#009632;}
	.st39{fill:#004916;}
	.st40{fill:#E6FAC3;}
	.st41{fill:#FFF5AF;}
	.st42{fill:#5AA5D7;}
	.st43{fill:#F5D78C;}
	.st44{fill:#EBDCC3;}
	.st45{fill:#0A1419;}
	.st46{fill:#E1FAFA;}
	.st47{fill:#E1F5C3;}
	.st48{fill:#FFB946;}
	.st49{fill:#FFF0C8;}
	.st50{fill:#FFD264;}
	.st51{fill:#48FF9F;}
	.st52{fill:#232323;}
	.st53{fill:#000650;}
	.st54{fill:url(#SVGID_1_);}
	.st55{fill:url(#SVGID_00000036243559592503365570000009070709647422520471_);}
	.st56{fill:#AAE6CD;}
	.st57{fill:#FA8301;}
	.st58{fill:#F05908;}
	.st59{fill:#FF7D2D;}
	.st60{fill:#05D7A0;}
	.st61{fill:#278BDE;}
	.st62{fill:url(#SVGID_00000013914063693125090010000014927322246111830679_);}
	.st63{fill:#10173D;}
	.st64{fill:#FEFEFE;}
	.st65{fill:url(#SVGID_00000102529448767834300900000015599627431589534641_);}
	.st66{fill:url(#SVGID_00000036234376984070929160000017782054046562787761_);}
	.st67{fill:url(#SVGID_00000058570483950544982000000014928773948681496497_);}
	.st68{fill:#0C63D2;}
	.st69{fill:#5287B5;}
	.st70{fill:#B2B2B2;}
	.st71{fill:#27C0F2;}
	.st72{fill:#047FAA;}
	.st73{fill:#000C2E;}
	.st74{fill:#274867;}
	.st75{fill:#659F61;}
	.st76{fill:#4B7CC3;}
	.st77{fill:#131A49;}
	.st78{fill:url(#SVGID_00000142863185457572489850000000295954578737083804_);}
	.st79{fill:url(#SVGID_00000085956004762433052380000006890709753193472424_);}
	.st80{fill:#03C0E8;}
	.st81{fill:url(#SVGID_00000097491171580752286130000017923408802996617362_);}
	.st82{fill:url(#SVGID_00000106123798656058553610000007966738827683951274_);}
	.st83{fill:url(#SVGID_00000107553182405894187410000015258244543059618978_);}
	.st84{fill:#59BE88;}
	.st85{fill:#FECA6C;}
	.st86{fill:url(#SVGID_00000119097398800494584450000002532652554507599802_);}
	.st87{fill:#305271;}
	.st88{fill:url(#SVGID_00000028321359679590355700000004570111807853648519_);}
	.st89{fill:url(#SVGID_00000132786319284630173500000002427950583417198992_);}
	.st90{fill:url(#SVGID_00000128485204059535392080000000153172721166617782_);}
	.st91{fill:url(#SVGID_00000021078473653279181200000017374407878523211704_);}
	.st92{fill:url(#SVGID_00000061439867515389820660000015150090083839148696_);}
	.st93{fill:url(#SVGID_00000121984510658399536280000012550613261604669357_);}
	.st94{fill:url(#SVGID_00000078038839777602427810000014962005915510166423_);}
	.st95{fill:url(#SVGID_00000160190130984788284290000009467057056404122544_);}
	.st96{fill:url(#SVGID_00000028313753017719722730000017577543144972761786_);}
	.st97{fill:url(#SVGID_00000024687052041321418820000006441297834759036348_);}
	.st98{fill:url(#SVGID_00000165945275872171852100000018403685793975765124_);}
	.st99{fill:url(#SVGID_00000007426267108755471700000003477366906053316486_);}
	.st100{fill:url(#SVGID_00000131336042475931199570000010931664087427786915_);}
	.st101{fill:url(#SVGID_00000142867825518921110780000018032844490674392250_);}
	.st102{fill:url(#SVGID_00000150790026588339915540000013451285008688810421_);}
	.st103{fill:url(#SVGID_00000008862002172668906750000003233024665735274926_);}
	.st104{fill:#099EB4;}
	.st105{fill:url(#SVGID_00000110453793723595365810000011864337021538887556_);}
	.st106{fill:url(#SVGID_00000178182461573981065890000001457922598096130235_);}
	.st107{fill:url(#SVGID_00000155845542445689602260000006353372297536717980_);}
	.st108{fill:url(#SVGID_00000076583108748768423770000003041585815787379343_);}
	.st109{fill:url(#SVGID_00000072975200959660772270000016882916412322615940_);}
	.st110{fill:url(#SVGID_00000073707109139079514080000003501134318678682782_);}
	.st111{fill:url(#SVGID_00000090989486284164522570000017263748963948415118_);}
	.st112{fill:url(#SVGID_00000090268062739854784200000012849239452725459072_);}
	.st113{fill:url(#SVGID_00000062165450908270523210000016213172749855515822_);}
	.st114{opacity:0.3;fill:url(#SVGID_00000065039540243178873860000015140598677935748771_);}
	.st115{fill:url(#SVGID_00000000199471897320169870000003170801072504189884_);}
	.st116{fill:url(#SVGID_00000155148833174080206870000008948676654361271200_);}
	.st117{fill:url(#SVGID_00000142163462035024689310000010542990244075247038_);}
	.st118{fill:#06416C;}
	.st119{fill:#23A7E6;}
	.st120{fill:#013F6E;}
	.st121{fill:#26A9E0;}
	.st122{fill:url(#SVGID_00000057135260807179704690000014937970025207674777_);}
	.st123{fill:#262E3A;}
	.st124{fill:url(#SVGID_00000069376553772307790320000001795814207420533396_);}
	.st125{fill:url(#SVGID_00000179640513856098236320000009379074093494596748_);}
	.st126{fill:url(#SVGID_00000145761186294377433710000009623500533388947100_);}
	.st127{fill:url(#SVGID_00000107569136566131286970000003283089837877043353_);}
	.st128{fill:url(#SVGID_00000088822324980614131570000006025689874505835189_);}
	.st129{fill:url(#SVGID_00000016769601075687884420000006547791294179026088_);}
	.st130{fill:url(#SVGID_00000058562583622496677150000013878204731450250896_);}
	.st131{fill:#FF6600;}
	.st132{fill:#39C6AA;}
	.st133{fill:#F45C5A;}
	.st134{fill:#122E45;}
	.st135{fill:#6DBD45;}
	.st136{fill:#036097;}
	.st137{fill:#E66619;}
	.st138{fill:url(#SVGID_00000183244901765703820240000005350925401039924394_);}
	.st139{fill:#006315;}
	.st140{fill:#132346;}
	.st141{fill:#4072B7;}
	.st142{fill:#562700;}
	.st143{fill:url(#SVGID_00000160181823491314265750000007624221565149029551_);}
	.st144{fill:url(#SVGID_00000137122291903418600980000017220291588613860243_);}
	.st145{fill:url(#SVGID_00000134939597434612811070000009884823732458940578_);}
	.st146{fill:url(#SVGID_00000012436160726502442780000002785399770171958709_);}
	.st147{fill:url(#SVGID_00000130642476217275518420000004975810205064700561_);}
	.st148{fill-rule:evenodd;clip-rule:evenodd;fill:url(#SVGID_00000093176853922544752760000004328603892430962070_);}
	.st149{fill:url(#SVGID_00000175305585943344037430000002065618941315119001_);}
	.st150{fill:url(#SVGID_00000093156680037192355130000015988121356333352887_);}
	.st151{fill:url(#SVGID_00000058560757321285974760000016079510456223040388_);}
	.st152{fill:none;stroke:#FFFFFF;stroke-width:2;stroke-miterlimit:10;}
	.st153{fill:url(#SVGID_00000080901119774883885960000008246695409147351219_);}
	.st154{fill:url(#SVGID_00000016033603262387218110000015897647546057936521_);}
	.st155{fill:#FFFFFF;}
	.st156{fill:url(#SVGID_00000053519931639977789840000013870658005781707683_);}
	.st157{fill:url(#SVGID_00000028316986689306259840000010166566656544833459_);}
	.st158{fill:url(#SVGID_00000145749751107008760030000008260528244447404163_);}
	.st159{fill:url(#SVGID_00000028308135262491248690000005925255528534115767_);}
	.st160{fill:url(#SVGID_00000050629233785919328680000008205787449356634528_);}
	.st161{fill:#E57825;}
	.st162{fill:#F36B21;}
	.st163{fill:#6D4099;}
	.st164{fill:#58297A;}
	.st165{fill-rule:evenodd;clip-rule:evenodd;fill:url(#SVGID_00000152985213092957133810000008965330774326678442_);}
	.st166{fill-rule:evenodd;clip-rule:evenodd;fill:#E5E5E5;}
	.st167{fill-rule:evenodd;clip-rule:evenodd;fill:#234382;}
	.st168{fill-rule:evenodd;clip-rule:evenodd;fill:#60CAE6;}
	.st169{fill:url(#SVGID_00000146460564459997164040000017693773120703050630_);}
</style>
<g id="Layer_1">
</g>
<g id="Layer_2">
</g>
<g id="Layer_3">
</g>
<g id="Layer_4">
</g>
<g id="Layer_5">
</g>
<g id="Layer_6">
</g>
<g id="Layer_7">
</g>
<g id="Layer_8">
</g>
<g id="Layer_9">
</g>
<g id="Layer_10">
</g>
<g id="Layer_11">
</g>
<g id="Layer_12">
</g>
<g id="Layer_13">
</g>
<g id="Layer_14">
</g>
<g id="Layer_15">
	<g>
		<linearGradient id="SVGID_1_" gradientUnits="userSpaceOnUse" x1="171.2226" y1="94.0754" x2="262.8353" y2="94.0754">
			<stop  offset="0.0112" style="stop-color:#E6AC47"/>
			<stop  offset="0.9944" style="stop-color:#D830C7"/>
		</linearGradient>
		<path class="st54" d="M254.17,123.01c-0.61-0.62-1.47-1-2.4-1h-13.52c-1.88,0-3.4,1.52-3.4,3.4c0,0.94,0.38,1.79,1,2.4
			c0.61,0.61,1.47,0.99,2.4,0.99h13.52c1.88,0,3.4-1.52,3.4-3.39C255.17,124.46,254.79,123.61,254.17,123.01z M250.98,136.57
			c-0.59-0.6-1.41-0.98-2.31-0.99c-0.03-0.01-0.05-0.01-0.09-0.01h-13.52c-1.88,0-3.4,1.52-3.4,3.4c0,0.93,0.38,1.78,1,2.4
			c0.61,0.61,1.47,0.99,2.4,0.99h13.52c1.88,0,3.4-1.52,3.4-3.39C251.98,138.03,251.6,137.18,250.98,136.57z M216.24,37.83
			c-14.18,0.24-26.81,6.96-35.05,17.31c-6.24,7.83-9.96,17.73-9.96,28.48v56.56c0,5.6,4.55,10.14,10.15,10.14
			c5.6,0,10.14-4.54,10.14-10.14V84.2c0-14.27,11.68-26.33,25.95-26.09c13.87,0.24,25.08,11.59,25.08,25.52v45.18h6.04
			c1.88,0,3.4,1.51,3.4,3.39c0,1.85-1.48,3.35-3.31,3.4h-6.12v4.6c0,0.75,0.08,1.48,0.24,2.17c0.99,4.56,5.06,7.97,9.91,7.97
			c2.8,0,5.33-1.14,7.17-2.96c1.82-1.85,2.96-4.37,2.96-7.17V84.44C262.84,58.8,241.86,37.39,216.24,37.83z M181.19,55.14
			c-6.24,7.83-9.96,17.73-9.96,28.48v56.56c0,5.6,4.55,10.14,10.15,10.14c5.6,0,10.14-4.54,10.14-10.14V84.2
			C191.46,73.28,187.59,63.14,181.19,55.14z"/>
		
			<linearGradient id="SVGID_00000008144586436162169810000011879372014948043920_" gradientUnits="userSpaceOnUse" x1="87.1647" y1="94.0755" x2="181.1871" y2="94.0755">
			<stop  offset="0.0112" style="stop-color:#E6AC47"/>
			<stop  offset="0.9944" style="stop-color:#D830C7"/>
		</linearGradient>
		<path style="fill:url(#SVGID_00000008144586436162169810000011879372014948043920_);" d="M181.19,55.14
			c-6.24,7.83-9.96,17.73-9.96,28.48c0-13.93-11.21-25.29-25.08-25.52c-14.27-0.24-25.96,11.82-25.96,26.11v55.98
			c0,2.8-1.13,5.33-2.97,7.17c-1.82,1.82-4.36,2.96-7.16,2.96c-5.35,0-9.74-4.15-10.11-9.41h-9.38c-1.88,0-3.39-1.52-3.39-3.4
			c0-1.87,1.51-3.39,3.39-3.39h13.52c1.88,0,3.4-1.52,3.4-3.4c0-1.87-1.52-3.39-3.4-3.39H99.9v-0.01h-4.7
			c-0.94,0-1.79-0.38-2.4-0.99c-0.62-0.62-1-1.47-1-2.4c0-1.88,1.52-3.4,3.4-3.4h4.7V83.63c0-24.99,20.11-45.37,45.01-45.8
			C159.53,37.58,172.63,44.44,181.19,55.14z"/>
	</g>
</g>
</svg>
