<?xml version="1.0" encoding="utf-8"?>
<!-- Generator: Adobe Illustrator 27.8.1, SVG Export Plug-In . SVG Version: 6.00 Build 0)  -->
<svg version="1.1" id="Layer_1" xmlns="http://www.w3.org/2000/svg" xmlns:xlink="http://www.w3.org/1999/xlink" x="0px" y="0px"
	 viewBox="0 0 350 230" style="enable-background:new 0 0 350 230;" xml:space="preserve">
<style type="text/css">
	.st0{fill:#F9EAE4;}
	.st1{fill:#F9FCD9;}
	.st2{fill:#FFDCE7;}
	.st3{fill:#F9E4D9;}
	.st4{fill:#F9D4D2;}
	.st5{fill:#F0FFFE;}
	.st6{fill:#E7E8D6;}
	.st7{fill:#F4F3DC;}
	.st8{fill:#F9E8E1;}
	.st9{fill:#E1E2D5;}
	.st10{fill:#E6FFFE;}
	.st11{fill:#EACFC1;}
	.st12{fill:#F3F4C1;}
	.st13{fill:#C2F2D8;}
	.st14{fill:#A15FAC;}
	.st15{fill:#002C6B;}
	.st16{fill:#56001D;}
	.st17{fill:#8C002F;}
	.st18{fill:#043866;}
	.st19{fill:#506600;}
	.st20{fill:#604500;}
	.st21{fill-rule:evenodd;clip-rule:evenodd;fill:#C600C6;}
	.st22{fill-rule:evenodd;clip-rule:evenodd;fill:#464748;}
	.st23{fill-rule:evenodd;clip-rule:evenodd;fill:#FF838C;}
	.st24{fill-rule:evenodd;clip-rule:evenodd;fill:#005968;}
	.st25{fill:#F9C1C4;}
	.st26{fill-rule:evenodd;clip-rule:evenodd;fill:#002B26;}
	.st27{fill-rule:evenodd;clip-rule:evenodd;fill:#6D0008;}
	.st28{fill:#5B0A54;}
	.st29{fill:#FFFFFF;}
	.st30{fill-rule:evenodd;clip-rule:evenodd;fill:#C97943;}
	.st31{fill-rule:evenodd;clip-rule:evenodd;fill:#E9CEEA;}
	.st32{fill-rule:evenodd;clip-rule:evenodd;fill:#034C42;}
	.st33{fill:#026683;}
	.st34{fill:#26BCBC;}
	.st35{fill:#001F59;}
	.st36{fill:#7D1839;}
	.st37{fill:#A8007D;}
	.st38{fill:#5B2F00;}
	.st39{fill:#A8228D;}
	.st40{fill:#4C0231;}
	.st41{fill:#304C19;}
	.st42{fill:#F52287;}
	.st43{fill:#231F20;}
	.st44{fill:#D3407F;}
	.st45{fill:#568429;}
	.st46{fill-rule:evenodd;clip-rule:evenodd;fill:#424200;}
	.st47{fill:url(#SVGID_1_);}
	.st48{fill:#5B2B00;}
	.st49{fill:#CAA095;}
	.st50{fill:#F7C844;}
	.st51{fill-rule:evenodd;clip-rule:evenodd;fill:#FFFFFF;}
	.st52{fill:url(#SVGID_00000074399573121204515000000014694988873376224687_);}
	.st53{fill-rule:evenodd;clip-rule:evenodd;fill:#ED1A23;}
	.st54{fill-rule:evenodd;clip-rule:evenodd;fill:#242021;}
	.st55{fill-rule:evenodd;clip-rule:evenodd;fill:#757072;}
	.st56{fill:#66405E;}
	.st57{fill:#CBA390;}
	.st58{fill:#230003;}
	.st59{fill:#004255;}
	.st60{fill:#FF93AC;}
	.st61{fill:#CC004A;}
	.st62{fill:#62007A;}
	.st63{fill-rule:evenodd;clip-rule:evenodd;fill:#E6FFFE;}
	.st64{fill-rule:evenodd;clip-rule:evenodd;fill:#F2B8B0;}
	.st65{fill-rule:evenodd;clip-rule:evenodd;fill:url(#SVGID_00000065047692389432602410000008796550663487710641_);}
	.st66{fill-rule:evenodd;clip-rule:evenodd;fill:#6B006B;}
	.st67{fill-rule:evenodd;clip-rule:evenodd;fill:#005B5B;}
</style>
<g>
	<path class="st39" d="M218.33,73.11c0.39-0.66,0.64-1.45,0.57-2.22c-0.09-1.02-0.78-1.78-1.65-2.23c-0.54-0.28-1.09-0.41-1.59-0.61
		c-1.51-0.62-2.97-1.36-4.17-2.49c-1.65-1.55-2.73-3.62-3.55-5.7c-0.62-1.57-1.1-3.2-1.51-4.84c-0.48-1.91-0.77-3.88-1.35-5.76
		c-0.78-2.53-2.07-4.96-4.09-6.71c-2.29-1.99-5.41-2.97-8.43-2.76c-0.16,0.01-0.33,0.03-0.49,0.05c-0.04,0-0.08,0-0.1,0.02
		c-0.01,0-0.01,0.01-0.01,0.01l0,0c-6.32,7.99-11.42,16.89-15.36,26.28c-3.59,8.58-6.22,17.54-8.03,26.66
		c-1.55,7.81-2.51,15.74-2.93,23.68c-0.31,5.77-0.34,11.56-0.05,17.34c0.09,1.75,0.2,3.49,0.36,5.23c0.05,0.53,0.1,1.05,0.16,1.57
		c0.03,0.26,0.02,0.56,0.09,0.81c0.01,0.03,0.01,0.07,0.01,0.1c0.01,0.11,0.2,0.12,0.28,0.12c2.5,0,5,0,7.5,0
		c3.98,0,7.96,0.01,11.95,0.01c0.91,0,1.82,0,2.74,0c0.03,0,0.13-0.02,0.1-0.07c-3.31-5.94-3.14-12.91-1.31-19.3
		c1.48-5.17,3.94-10.08,6.91-14.55c0.8-1.21,1.64-2.42,2.58-3.54c0.84-1,1.81-1.36,3.09-1.51c2.99-0.36,6.01-0.34,9-0.69
		c2.3-0.27,5.1-0.86,6.63-2.78c0.78-0.98,1.05-2.23,0.85-3.45c-0.16-0.95-0.67-1.79-0.87-2.73c-0.15-0.7-0.21-1.45-0.04-2.16
		c0.22-0.89,0.9-1.34,1.37-2.08c0.3-0.48,0.45-1.02,0.24-1.57c-0.2-0.52-0.64-0.88-1.01-1.28c-1.19-1.28,0.19-2.55,1.07-3.53
		c0.39-0.43,0.63-0.95,0.41-1.52c-0.22-0.56-0.72-1-1.14-1.41c-0.53-0.53-1.2-1.16-1.29-1.94c-0.11-0.93,0.59-1.77,1.18-2.41
		C217.08,74.49,217.85,73.94,218.33,73.11z"/>
	<path class="st48" d="M146.28,49.17c3.43-14.57,15.38-25.79,30.22-27.7c1.53-0.2,3.09-0.3,4.66-0.29
		c27.78,0.04,29.65,30.6,29.65,30.6L193.54,54l-13.02,87.55h-49.44l9.88-69.76L146.28,49.17z"/>
	<path d="M205.31,53.99c0.14,0.03,0.27,0.1,0.34,0.22c0.09,0.14,0.1,0.37-0.25,0.65c-0.67,0.54-4.41,0.15-5.84,0.08
		c-0.35-0.02-0.7,0.17-0.87,0.48l-2.57,4.68c0,0,2.11-5.44,2.57-5.74C199.15,54.07,203.62,53.67,205.31,53.99z M203.16,56.99
		c0,0-1.05-0.38-1.11,1.32c-0.06,1.7,0.49,5.83,1.53,5.55c1.04-0.28,0.54-3.74,0.54-3.74S203.64,57.15,203.16,56.99z M208.76,55.27
		c-1.72,1.31-3.85,2.18-6.11,1.69c-0.17-0.04,0.16,0.4,0.3,0.43c2.3,0.5,4.46-0.35,6.23-1.69
		C209.27,55.63,208.87,55.18,208.76,55.27L208.76,55.27z M208.34,53.76c-0.41,0.65-0.92,1.25-1.47,1.8
		c-0.97,0.96-2.52,2.1-4.04,1.71c-0.1-0.03-0.6-0.06-0.28,0.02c2.72,0.71,5.02-1.35,6.32-3.43
		C208.87,53.86,208.4,53.66,208.34,53.76L208.34,53.76z"/>
	<path class="st49" d="M189.97,69.44c0.49-0.96,1.3-3.07-0.06-3.8c-1.16-0.62-2.44,0.73-2.94,1.62c-0.87,1.57-0.75,3.4-1.19,5.09
		c-0.4-1.4-0.82-2.79-1.27-4.18c-0.05-0.17-0.11-0.33-0.16-0.5c0.03,0,0.06,0,0.09-0.02c1.7-1.09,2.73-2.73,3.48-4.58
		c0.41-1.03,1.02-3.14-0.38-3.79c-1.2-0.56-2.37,0.92-2.79,1.85c-0.76,1.72-0.41,3.62-0.77,5.42c-0.56-1.68-1.16-3.36-1.79-5.02
		c0.01,0,0.02-0.01,0.04-0.02c1.56-1.18,2.44-2.79,3.07-4.63c0.38-1.1,0.89-3.11-0.42-3.86c-1.17-0.67-2.32,0.78-2.72,1.72
		c-0.75,1.77-0.26,3.69-0.44,5.54c-0.59-1.52-1.21-3.02-1.86-4.52c1.55-1.27,2.41-3.02,2.94-4.94c0.29-1.08,0.64-3.16-0.78-3.68
		c-1.17-0.42-2.15,0.98-2.5,1.89c-0.67,1.74-0.17,3.58-0.24,5.39c-0.68-1.52-1.38-3.04-2.11-4.53c0.01-0.01,0.02-0.01,0.03-0.02
		c1.51-1.33,2.31-3.12,2.75-5.06c0.25-1.09,0.53-3.18-0.91-3.65c-1.03-0.34-1.92,0.78-2.29,1.59c-0.86,1.9-0.13,3.96-0.17,5.95
		c-0.65-1.3-1.32-2.58-2.01-3.85c0.01,0,0.01-0.01,0.02-0.01c1.49-1.48,2.19-3.41,2.5-5.46c0.16-1.06,0.2-3.02-1.18-3.35
		c-1.22-0.3-2.06,1.22-2.31,2.16c-0.49,1.81,0.21,3.62,0.3,5.44c-0.73-1.31-1.48-2.61-2.25-3.9c1.44-1.47,2.13-3.37,2.43-5.39
		c0.16-1.06,0.2-3.02-1.18-3.35c-1.22-0.3-2.06,1.22-2.31,2.16c-0.48,1.78,0.18,3.54,0.3,5.32c-0.74-1.21-1.5-2.42-2.28-3.61
		c1.44-1.47,2.12-3.37,2.42-5.38c0.16-1.06,0.2-3.02-1.18-3.35c-1.22-0.3-2.06,1.22-2.31,2.16c-0.48,1.8,0.2,3.6,0.3,5.4
		c-0.89-1.34-1.81-2.68-2.75-3.99c1.24-1.55,1.71-3.45,1.79-5.42c0.04-1.02-0.1-2.67-1.32-3c-1.25-0.34-1.97,1.25-2.12,2.22
		c-0.28,1.76,0.56,3.38,0.85,5.08c-0.96-1.31-1.95-2.61-2.96-3.88c1.09-1.45,1.51-3.19,1.58-5.01c0.03-0.98-0.1-2.56-1.27-2.88
		c-1.2-0.32-1.89,1.2-2.04,2.13c-0.25,1.57,0.44,3.03,0.76,4.54c-0.88-1.07-1.77-2.13-2.69-3.17c1.07-1.46,3.02-6.77,0.34-7.51
		c-1.13-0.31-1.8,1.13-1.94,2.01c-0.25,1.58,0.5,3.03,0.76,4.55c-0.84-0.92-1.69-1.83-2.56-2.72c0.95-1.27,2.62-5.87,0.28-6.52
		c-1-0.27-1.59,0.98-1.71,1.76c-0.14,0.85,0.06,1.65,0.29,2.46c-0.51-1.05-1.32-2.02-2.02-2.85c-0.62-0.74-2.14-2.49-3.3-1.73
		c-1,0.65,0.22,2.6,0.71,3.19c0.5,0.6,1.2,1.28,1.98,1.86c-0.32-0.11-0.66-0.18-1.02-0.2c-0.79-0.04-2.12,0.26-2.07,1.29
		c0.05,1.08,1.41,1.45,2.25,1.58c1.48,0.23,2.9,0.19,4.24-0.5c0.8,0.88,1.59,1.76,2.37,2.65c-1.37-0.59-2.59-1.55-4.13-1.63
		c-0.89-0.05-2.42,0.29-2.36,1.45c0.06,1.23,1.62,1.64,2.58,1.79c1.69,0.26,3.32,0.21,4.86-0.55c1.01,1.16,2,2.33,2.97,3.52
		c-1.62-0.59-2.99-1.79-4.78-1.89c-0.94-0.05-2.55,0.3-2.5,1.53c0.06,1.3,1.72,1.73,2.73,1.89c1.82,0.28,3.59,0.22,5.25-0.62
		c0.01,0,0.01-0.01,0.01-0.01c0.73,0.9,1.44,1.81,2.14,2.74c0.28,0.37,0.55,0.74,0.83,1.12c-1.63-0.63-3.04-1.82-4.85-1.92
		c-0.98-0.05-2.66,0.31-2.6,1.59c0.06,1.36,1.8,1.8,2.85,1.97c1.86,0.29,3.67,0.23,5.37-0.59c0.98,1.35,1.93,2.72,2.85,4.1
		c-1.76-0.87-3.17-2.47-5.2-2.69c-0.91-0.1-2.46,0.1-2.67,1.23c-0.24,1.31,1.35,2.11,2.34,2.42c2.03,0.64,4.18,0.83,6.2,0.09
		c0.01,0,0.02-0.01,0.03-0.02c0.83,1.27,1.64,2.55,2.42,3.85c-1.78-0.86-3.2-2.49-5.26-2.71c-0.91-0.1-2.46,0.1-2.67,1.23
		c-0.24,1.31,1.35,2.11,2.34,2.42c2.03,0.64,4.18,0.83,6.2,0.09c0,0,0.01,0,0.01-0.01c0.77,1.31,1.52,2.62,2.25,3.95
		c-1.72-0.88-3.12-2.43-5.13-2.65c-0.91-0.1-2.46,0.1-2.67,1.23c-0.24,1.31,1.35,2.11,2.34,2.42c1.98,0.63,4.1,0.82,6.08,0.14
		c0.67,1.25,1.32,2.51,1.94,3.77c-1.55-0.94-2.8-2.4-4.63-2.83c-0.94-0.22-2.64-0.19-2.98,1c-0.37,1.3,1.25,2.21,2.21,2.58
		c1.92,0.74,4.02,1.05,6.01,0.49c0.75,1.54,1.46,3.1,2.15,4.67c-1.55-1-2.75-2.55-4.6-3.06c-0.93-0.26-2.65-0.29-3.01,0.89
		c-0.39,1.3,1.16,2.25,2.12,2.66c1.91,0.82,3.99,1.21,6.02,0.72c0.62,1.44,1.21,2.9,1.78,4.36c-1.44-1.05-2.57-2.57-4.33-3.12
		c-0.93-0.29-2.64-0.4-3.06,0.76c-0.46,1.26,1.05,2.29,1.96,2.73c1.86,0.9,3.91,1.36,5.94,0.98c0.58,1.53,1.13,3.06,1.65,4.61
		c-1.31-1.15-2.31-2.67-3.98-3.34c-0.96-0.38-2.78-0.57-3.13,0.73c-0.37,1.37,1.21,2.38,2.21,2.89c1.71,0.87,3.49,1.41,5.4,1.2
		c0.5,1.54,0.99,3.09,1.44,4.65c-1.24-1.21-2.05-2.84-3.6-3.75c-0.85-0.5-2.71-1.04-3.36,0.1c-0.68,1.19,0.64,2.46,1.51,3.06
		c1.72,1.2,3.72,2.01,5.82,1.91c1.16,4.13,2.16,8.31,2.98,12.55c0.04,0.21,0.35,0.12,0.32-0.09c-0.66-4.26-1.58-8.47-2.71-12.62
		C187.9,72.73,189.07,71.19,189.97,69.44z M188.59,83.49c-1.99-1.11-4.18-1.76-6.45-2.04c-0.41-0.16-0.83-0.32-1.23-0.52
		c-0.35-0.17-0.67-0.38-0.99-0.6c0.09-0.57-0.52-1.4-0.74-1.77c-0.54-0.9-1.22-1.69-1.91-2.46c-0.72-0.8-2.93-3.95-4.34-3.13
		c-1.23,0.71,1.03,3.15,1.44,3.62c1.48,1.73,3.14,3.31,5.23,4.11c0.26,0.22,0.53,0.42,0.81,0.61c-1.76-0.08-3.55,0.05-5.3,0.33
		c-0.71-0.09-1.43-0.18-2.05-0.45c0.04-0.11,0.05-0.25,0.02-0.38c-0.11-0.48-0.77-0.99-1.08-1.28c-0.41-0.39-0.85-0.74-1.3-1.08
		c-1.21-0.92-2.45-1.84-3.71-2.68c-0.84-0.56-1.99-1.19-3.05-0.84c-1.9,0.62,1.6,3.16,2.07,3.51c2.14,1.59,4.48,3.04,7.19,3.09
		c0.17,0.06,0.35,0.1,0.52,0.14c0.19,0.04,0.38,0.08,0.57,0.12c-0.57,0.11-1.14,0.23-1.7,0.37c-1.28,0.32-2.55,0.74-3.79,1.23
		c-0.13,0-0.26,0-0.39,0c-0.2,0-0.57,0-0.96-0.04c0-0.01,0-0.01,0-0.02c-0.82-1.86-3.09-2.65-4.77-3.31
		c-0.79-0.31-4.35-1.94-4.89-0.21c-0.48,1.53,2.56,2.25,3.33,2.53c1.81,0.66,3.92,1.64,5.93,1.2c0.15,0.03,0.28,0.04,0.36,0.06
		c0.24,0.04,0.47,0.07,0.71,0.08c-1.59,0.68-3.14,1.48-4.65,2.39c-0.24,0.06-0.49,0.11-0.74,0.14c-0.32-0.42-0.98-0.61-1.43-0.8
		c-0.81-0.33-1.67-0.54-2.54-0.68c-0.92-0.14-1.87-0.17-2.81-0.08c-0.4,0.04-1.01,0.01-1.27,0.44c-0.74,1.18,1.47,1.45,1.99,1.53
		c1.83,0.28,3.7,0.26,5.56-0.08c0.15,0.01,0.31,0.01,0.46,0c-0.28,0.18-0.57,0.37-0.85,0.55c-0.02-0.01-0.05-0.02-0.08,0
		c-0.2,0.13-0.41,0.29-0.6,0.46c-0.33,0.23-0.65,0.45-0.97,0.69l-0.94-0.02c-0.03-0.06-0.07-0.11-0.11-0.16
		c-0.36-0.42-1-0.46-1.53-0.54c-1.34-0.2-2.71-0.24-4.07-0.12c-1.06,0.09-2.17,0.22-3.18,0.65c-0.34,0.15-1.21,0.45-1.14,1
		c0.1,0.72,1.46,0.75,1.94,0.79c1.26,0.11,2.55-0.1,3.81-0.33c0.7-0.13,1.4-0.27,2.1-0.42c0.56-0.12,1.34-0.16,1.86-0.42
		c0.15-0.08,0.28-0.18,0.32-0.28c0.02,0,0.03,0.01,0.05,0.01c0,0,0,0,0,0.01c0,0.01,0.02,0.01,0.02,0c0.19,0.04,0.39,0.05,0.59,0.05
		c-0.15,0.11-0.3,0.23-0.45,0.34c-0.87,0.28-1.72,0.67-2.52,1.16c-1.01,0.61-2.11,1.15-3.08,1.84c-0.85,0.6-1.64,1.38-2.33,2.19
		c-0.36,0.42-0.74,0.95-0.37,1.47c0.98,1.4,3.21-0.48,4.06-1.26c1.64-1.5,3.3-3.12,4.49-5.07c0.14-0.1,0.28-0.2,0.42-0.29
		c-0.04,0.06-0.07,0.13-0.1,0.19c-0.99,1.11-1.76,2.43-2.3,3.84c-0.24,0.64-1.19,2.68-0.38,3.12c0.79,0.43,1.52-0.7,1.79-1.35
		c0.21-0.52,0.39-1.07,0.53-1.63c0.04,0.09,0.09,0.17,0.18,0.25c1.02,0.93,2.82-1.34,3.41-2.05c1.23-1.47,2.79-3.22,2.82-5.28
		c0-0.03-0.01-0.05-0.03-0.05l0.01-0.02c0.02-0.01,0.04-0.02,0.06-0.02c0.08-0.03,0.08-0.15,0.01-0.17c0.04-0.06,0.07-0.1,0.08-0.12
		c0.08-0.1,0.16-0.19,0.24-0.28c1.95-0.89,3.95-1.61,6-2.13c0.01,0,0.01,0,0.02,0c-0.2,0.18-0.39,0.36-0.57,0.55
		c-1.83,0.32-3.31,1.91-4.42,3.44c-0.73,1-1.53,2.05-2.15,3.13c-0.27,0.48-0.54,1.16-0.14,1.61c0.96,1.07,2.95-1.55,3.53-2.21
		c1.44-1.64,2.63-3.52,3.37-5.62c0.01-0.03-0.01-0.05-0.03-0.06c0.39-0.35,0.81-0.68,1.21-1.03c1.57-0.34,3.12-0.54,4.66-0.61
		c-0.18,0.12-0.36,0.24-0.52,0.36c-0.13,0.1-0.27,0.21-0.39,0.33c-1.77,0.63-2.98,2.17-4.15,3.7c-0.53,0.69-3.25,3.91-2.1,4.82
		c0.35,0.27,0.91,0.04,1.25-0.19c0.35-0.24,0.59-0.62,0.85-0.96c0.49-0.64,0.99-1.24,1.54-1.82c1.49-1.56,2.96-3.11,3.11-5.42
		c0.15-0.13,0.32-0.25,0.5-0.36c0.3-0.18,0.62-0.32,0.92-0.48c3.22-0.02,6.39,0.51,9.53,1.46
		C188.61,83.81,188.73,83.57,188.59,83.49z M173.03,74.66c-0.12-0.2-0.2-0.4-0.25-0.6C172.84,74.27,172.93,74.47,173.03,74.66z
		 M158.42,87.74c-0.06-0.01-0.11-0.03-0.17-0.04c-0.29-0.05-0.57-0.1-0.86-0.14C157.73,87.59,158.1,87.63,158.42,87.74z
		 M150.85,87.95c-0.31,0.1-0.61,0.22-0.9,0.37C150.18,88.15,150.51,88.03,150.85,87.95z M165.65,85.83
		c-1.62,0.68-2.83,2.12-3.99,3.52c-0.63,0.76-1.31,1.6-1.76,2.51c0.17-0.89,0.26-1.79,0.31-2.66c0.24-0.37,0.5-0.7,0.59-0.81
		c1.62-1.06,3.29-2.01,5-2.82C165.75,85.65,165.7,85.74,165.65,85.83z"/>
	<path class="st29" d="M190.22,56.2c0,0-0.71-2.24,4.68-5.23c5.39-3,6.27-11.08,5.27-11.01c-1,0.07-1.48-0.46-2.53,2.7
		c-1.05,3.16-2.25,6.85-4.62,8.42c-2.37,1.56-3.5,3.63-3.5,3.63s-1.31-2.22-0.61-3.22c0.7-1,0.92-1.16,2.08-1.75
		c1.16-0.59,2.99-0.94,4.33-3.91c1.34-2.97,1.65-7.36,1.08-7c-0.57,0.35-1.07-0.29-2.07,3.11c-1,3.4-1.54,5.24-4.03,6.82
		c-2.49,1.58-1.61,1.54-1.61,1.54s-1.35-1.1,1.79-5.28c3.14-4.18,3.48-5.73,3.52-6.85c0.04-1.12,1.02-4.64-0.03-4.82
		c-1.05-0.17-1.67,3.9-1.67,3.9s-0.58,2.95-1.72,4.28c-1.14,1.33-2.82,5.85-2.82,5.85s-1.03-6.11-0.16-7.51
		c0.88-1.4,4.03-4.84,4.36-5.77c0.33-0.93,2.97-9.09,0.2-10.3c0,0-1.35,0.26-1.12,2.81c0.23,2.55-0.16,5.84-0.64,6.67
		c-0.48,0.83-3.08,5.16-2.99,5.63c0.09,0.48-1.22-5.08,0.14-7.94c1.36-2.85,2.5-10.24,0.64-11.99c0,0-1.24-0.51-1.26,1.35
		c-0.03,1.86,0.48,5.22,0.17,6.27s-0.75,4.72-0.69,5.07c0.07,0.36-1.2-2.99-0.94-4.27c0.26-1.29-1.42-4.8-2.08-4.3
		c0,0-1.03,0.57-0.19,3c0.84,2.44,3.3,8.03,3.34,10.24c0.04,2.22,0.16,4.17,0.16,4.17s-1.76-1.27-2.25-3.16
		c-0.48-1.89-0.72-2.46-1.43-2.2c0,0-0.7,1,0.25,2.67c0.95,1.67,3.26,3.83,3.26,3.83l0.2,1.07c0,0-2.36-1.78-2.98-3.02
		c0,0-0.97-0.43-0.33,0.93s3.15,3.23,3.15,3.23l0.4,2.77c0,0-2.49-1.75-3.22-3.59c-0.73-1.84-1.22-3.11-1.87-2.49
		c-0.64,0.62,1.82,5.59,4.96,7.46l0.92,3.53c0,0-1.78-3.37-3.86-4.34c-2.08-0.96-3.83-6.81-3.83-6.81s-0.28-0.81-0.86,0.16
		s0.46,5.1,4.33,7.46c3.87,2.36,3.5,4.4,3.5,4.4s-4.66-1.84-5.56-3.89c-0.9-2.05-2.16-4.04-2.58-3.59
		c-0.42,0.45-0.42,0.45-0.19,1.02s1.58,3.66,3.11,4.35s4.48,2.24,4.86,2.91c0.38,0.67-3.73-0.28-5.2-1.36
		c-1.47-1.08-2.63-1.85-2.74-1.09c-0.11,0.76-0.05,1.74,1.39,1.96c1.44,0.22,8.73,1.93,9.3,2.93l0.27,0.69L190.22,56.2z
		 M165.59,64.62c1.42,0.11,2.85,0.63,4.13,1.21c3.32,1.5,6.05,4.07,8.01,7.11c1.69,2.62,2.8,5.56,3.56,8.58
		c0.07,0.26,0.64,0.11,0.57-0.15c-1.87-7.49-6.58-14.86-14.47-16.86c-0.52-0.13-1.06-0.26-1.6-0.3
		C165.51,64.18,165.21,64.59,165.59,64.62L165.59,64.62z M180.34,78.23c0,0,4.19-4.6,1.81-5.25
		C179.78,72.34,180.34,78.23,180.34,78.23z M179.47,76.07c0,0,2.46-7.62,0.08-8.27C177.18,67.15,179.47,76.07,179.47,76.07z
		 M176.44,70.55c0,0,0.35-7.44-1.77-5.79C172.54,66.42,176.44,70.55,176.44,70.55z M169.97,65.42c0,0-3.52-5.48-5.02-4.39
		C163.44,62.12,169.97,65.42,169.97,65.42z M166.3,64.43c0,0-7.9-4.02-6.66-0.29C160.21,65.84,166.3,64.43,166.3,64.43z
		 M167.94,64.88c0,0-7.41,0.08-5.96,2.76C162.64,68.86,164.82,66.1,167.94,64.88z M174.46,68.61c0,0-5.55-3.19-5.95-1.2
		C168.1,69.39,171.67,67.57,174.46,68.61z M180.13,77c0,0-5.88-3-3.97-3.87C178.07,72.25,180.13,77,180.13,77z"/>
	<path class="st50" d="M194.07,54.45c-0.66,0.49-1.32,0.98-1.99,1.47c0.02-1.02,0.03-2.04,0.05-3.06c0-0.05-0.16-0.08-0.19-0.04
		c-0.61,0.89-1.23,1.77-1.84,2.66c-0.23-0.8-0.45-1.61-0.68-2.41c-0.01-0.05-0.16-0.07-0.19-0.03c-0.77,0.91-1.47,2.24-1.26,3.45
		c0.11,0.66,0.52,1.09,0.95,1.55c0.52,0.57,1.39,0.81,2.11,1.01c0,0,0.01,0,0.01,0c0,0,0.01,0,0.01,0c0.88,0.18,1.91-0.75,2.33-1.41
		c0.57-0.89,0.78-2.1,0.87-3.14C194.26,54.43,194.1,54.42,194.07,54.45z M189.15,81.2c-0.44-0.85-1.13-1.62-1.84-2.26
		c-0.02-0.02-0.18-0.07-0.18-0.01c-0.01,0.86-0.02,1.72-0.03,2.58c-0.79-0.62-1.58-1.24-2.37-1.86c-0.02-0.02-0.2-0.07-0.18,0
		c0.35,1.06,0.7,2.13,1.05,3.19c-0.79-0.31-1.57-0.62-2.36-0.92c-0.03-0.01-0.16-0.04-0.15,0.02c0.19,0.86,0.6,1.75,1.18,2.42
		c0.39,0.45,0.9,0.8,1.5,0.91c0.43,0.08,0.82-0.03,1.21-0.03c0.76,0,1.53-0.63,2.1-1.06c0.31-0.27,0.39-0.78,0.42-1.17
		C189.53,82.38,189.43,81.75,189.15,81.2z M164.02,24.61c-0.14-0.61-0.48-1.21-0.84-1.72c-0.02-0.03-0.18-0.09-0.19-0.02
		c-0.12,0.5-0.24,1.01-0.36,1.52c-0.39-0.47-0.78-0.95-1.17-1.42c-0.02-0.02-0.19-0.07-0.18-0.01c0.07,0.69,0.13,1.38,0.2,2.07
		c-0.42-0.28-0.84-0.57-1.26-0.85c-0.02-0.01-0.17-0.05-0.17,0c0,0.79,0.23,1.79,0.9,2.28c0.32,0.23,0.72,0.27,1.02,0.31
		c0.55,0.07,1.05-0.13,1.55-0.36C164.06,26.08,164.14,25.15,164.02,24.61z M202.54,25.32c-0.66,0.49-1.32,0.98-1.99,1.47
		c0.02-1.02,0.03-2.04,0.05-3.06c0-0.05-0.16-0.08-0.19-0.04c-0.61,0.89-1.23,1.77-1.84,2.66c-0.23-0.8-0.45-1.61-0.68-2.41
		c-0.01-0.05-0.16-0.07-0.19-0.03c-0.77,0.91-1.47,2.24-1.26,3.45c0.11,0.66,0.52,1.09,0.95,1.55c0.52,0.57,1.39,0.81,2.11,1.01
		c0,0,0.01,0,0.01,0c0,0,0.01,0,0.01,0c0.88,0.18,1.91-0.75,2.33-1.41c0.57-0.89,0.78-2.1,0.87-3.14
		C202.73,25.3,202.57,25.3,202.54,25.32z M170.12,64.57C170.12,64.57,170.11,64.57,170.12,64.57c-0.01-0.01-0.01-0.01-0.01-0.01
		c-0.47-0.33-1.29-0.12-1.74,0.12c-0.66,0.35-1.15,1.06-1.51,1.69c-0.03,0.06,0.13,0.07,0.16,0.07c0.51-0.1,1.02-0.2,1.53-0.3
		c-0.3,0.6-0.59,1.2-0.89,1.81c-0.02,0.05,0.15,0.07,0.18,0.05c0.58-0.34,1.17-0.67,1.75-1.01c-0.09,0.53-0.18,1.06-0.27,1.59
		c-0.01,0.06,0.15,0.07,0.18,0.05c0.67-0.31,1.38-0.84,1.66-1.54C171.53,66.09,170.81,65.17,170.12,64.57z M171.31,39.88
		C171.31,39.88,171.31,39.88,171.31,39.88c-0.01-0.01-0.01-0.01-0.01-0.01c-0.27-0.29-0.82-0.3-1.18-0.23
		c-0.51,0.11-0.97,0.5-1.33,0.86c-0.04,0.04,0.09,0.07,0.11,0.07c0.34,0.02,0.69,0.04,1.03,0.07c-0.3,0.34-0.59,0.68-0.89,1.02
		c-0.04,0.05,0.13,0.07,0.16,0.07c0.42-0.11,0.84-0.23,1.26-0.34c-0.15,0.33-0.3,0.65-0.45,0.98c-0.02,0.05,0.14,0.06,0.16,0.06
		c0.48-0.08,1.04-0.3,1.35-0.7C171.97,41.14,171.66,40.41,171.31,39.88z M184.58,59.5c-0.34,0.19-0.67,0.37-1.01,0.56
		c0.07-0.49,0.15-0.99,0.22-1.48c0.01-0.06-0.16-0.08-0.19-0.04c-0.34,0.38-0.69,0.76-1.03,1.14c-0.06-0.39-0.11-0.78-0.17-1.16
		c-0.01-0.06-0.15-0.08-0.19-0.04c-0.46,0.43-0.94,1.1-0.86,1.76c0.08,0.73,0.76,1.15,1.37,1.42c0,0,0.01,0,0.01,0
		c0,0,0.01,0,0.01,0c0,0,0,0,0.01,0c0.01,0,0.01,0,0.02,0.01c0.44,0.13,0.97-0.18,1.27-0.48c0.41-0.42,0.61-1.07,0.73-1.63
		C184.77,59.49,184.61,59.48,184.58,59.5z"/>
</g>
</svg>
