<?xml version="1.0" encoding="utf-8"?>
<!-- Generator: Adobe Illustrator 27.8.1, SVG Export Plug-In . SVG Version: 6.00 Build 0)  -->
<svg version="1.1" xmlns="http://www.w3.org/2000/svg" xmlns:xlink="http://www.w3.org/1999/xlink" x="0px" y="0px"
	 viewBox="0 0 350 230" style="enable-background:new 0 0 350 230;" xml:space="preserve">
<style type="text/css">
	.st0{display:none;}
	.st1{display:inline;fill:#A4FCCA;}
	.st2{display:inline;fill:#867EC1;}
	.st3{display:inline;fill:#DFFF88;}
	.st4{display:inline;fill:#B6FFF1;}
	.st5{display:inline;fill:#FCEE8B;}
	.st6{display:inline;fill:#D9F98C;}
	.st7{display:inline;fill:#EDC17C;}
	.st8{display:inline;fill:#67EFDE;}
	.st9{display:inline;fill:#022130;}
	.st10{display:inline;fill:#EDEB98;}
	.st11{display:inline;fill:#FFA6D9;}
	.st12{display:inline;fill:#D6FFA6;}
	.st13{display:inline;fill:#A5F9E8;}
	.st14{display:inline;fill:#D3F2A7;}
	.st15{display:inline;fill:#353535;}
	.st16{fill:#434947;}
	.st17{fill:#FFFFFF;}
	.st18{fill:#00E9E9;}
	.st19{fill:#A06EFF;}
	.st20{fill:#FF5F81;}
	.st21{fill:#192E40;}
	.st22{fill:#FFDD00;}
	.st23{fill:#FF3D9B;}
	.st24{fill:#00BAEB;}
	.st25{fill:#09093C;}
	.st26{fill:#35AF9D;}
	.st27{fill:#00BAFA;}
	.st28{fill:#FFC300;}
	.st29{fill:#064037;}
	.st30{fill:#6D919C;}
	.st31{fill:#67B8FD;}
	.st32{fill:#464758;}
	.st33{fill:url(#SVGID_1_);}
	.st34{fill:none;}
	.st35{fill:#DE3B0F;}
	.st36{fill:#E86317;}
	.st37{fill:#F09C29;}
	.st38{fill:#708D23;}
	.st39{fill:#9BC344;}
	.st40{fill:url(#SVGID_00000002362921510653481960000004323483454620903091_);}
	.st41{fill:url(#SVGID_00000154393685351819075430000008442262742865515671_);}
	.st42{fill:#4EB8FF;}
	.st43{fill:#EC008B;}
	.st44{fill:#F7C211;}
	.st45{fill:#B8E5E7;}
	.st46{fill:#232740;}
	.st47{fill:none;stroke:#232740;stroke-width:4;stroke-linecap:round;stroke-linejoin:round;stroke-miterlimit:10;}
	.st48{fill:#00B4D7;}
	.st49{fill:#FF2C3D;}
	.st50{fill:#FF8B00;}
	.st51{fill:#00B896;}
	.st52{fill:#FFC70E;}
	.st53{fill:#6A44A5;}
	.st54{fill:#232740;stroke:#232740;stroke-width:4;stroke-linecap:round;stroke-linejoin:round;stroke-miterlimit:10;}
	.st55{fill:#05ACED;}
	.st56{fill:#EA008A;}
	.st57{fill:#231F20;}
	.st58{fill:#FDF002;}
	.st59{fill:#BEC938;}
	.st60{fill:#139DD8;}
	.st61{fill:#BD2CAE;}
	.st62{fill:url(#SVGID_00000024688148993813766330000007374214555235563155_);}
	.st63{fill:#BDC938;}
	.st64{fill:#62B0D3;}
	.st65{fill:url(#SVGID_00000114768840940603032780000002288071645261981370_);}
	.st66{fill:#212121;}
	.st67{fill:#FF3927;}
	.st68{fill:#1A8DFF;}
	.st69{fill:#FFD500;}
	.st70{fill:#606060;}
	.st71{fill:#26A6DF;}
	.st72{filter:url(#Adobe_OpacityMaskFilter);}
	.st73{opacity:0.75;mask:url(#SVGID_00000135666232933055744130000002612447916850679969_);}
	.st74{fill:#BDBBB5;}
	.st75{fill:#334CFF;}
	.st76{opacity:0.43;fill:#334CFF;}
	.st77{fill:#DD0572;}
	.st78{fill:#A35202;}
	.st79{fill:#DDC200;}
	.st80{filter:url(#Adobe_OpacityMaskFilter_00000088812492355490228010000012828590894264434829_);}
	.st81{opacity:0.75;mask:url(#SVGID_00000151513659819798540260000014040901458237986226_);}
	.st82{fill:#939393;}
	.st83{filter:url(#Adobe_OpacityMaskFilter_00000160168976848511593910000002995752521542370950_);}
	.st84{opacity:0.75;mask:url(#SVGID_00000036947546806576234390000011235901200221838238_);}
	.st85{fill:#3F3F3F;}
	.st86{fill:#0041D1;}
	.st87{fill:#AD00F8;}
	.st88{fill:#02C8F5;}
	.st89{fill:#00FB22;}
	.st90{fill:#ED0F93;}
	.st91{fill:#FF4E02;}
	.st92{fill:#0E1BD9;}
	.st93{fill:#F6ACCD;}
	.st94{fill:#00B04E;}
	.st95{fill:#FCAA18;}
	.st96{fill:#004B2D;}
	.st97{fill:#A3521B;}
	.st98{fill:#006CB7;}
	.st99{fill:#DE1922;}
	.st100{fill:#3F1113;}
	.st101{fill:#04AD52;}
	.st102{fill:#888B90;}
	.st103{fill:#F1B0CE;}
	.st104{fill:#D91E19;}
	.st105{fill:#02385C;}
	.st106{fill:#B61C7E;}
	.st107{fill:#00BFD2;}
	.st108{fill:#E95EA2;}
	.st109{fill:#054B2F;}
	.st110{fill:#7C1415;}
	.st111{fill:#019245;}
	.st112{fill:#D91819;}
	.st113{fill:#FFF800;}
	.st114{fill:#6B2D16;}
	.st115{fill:#4D33A0;}
	.st116{fill:#0B8D47;}
	.st117{fill:#3B190F;}
	.st118{fill:#69311A;}
	.st119{fill:#9177B4;}
	.st120{fill:#492E8B;}
	.st121{fill:#FF4545;}
	.st122{fill:none;stroke:#6B2D16;stroke-miterlimit:10;}
	.st123{fill:#00482D;}
	.st124{fill:#442C9A;}
	.st125{fill:#92BE4B;}
	.st126{fill:#4B318C;}
	.st127{fill:#781722;}
</style>
<g id="Layer_1">
</g>
<g id="Layer_2">
</g>
<g id="Layer_3">
</g>
<g id="Layer_4">
</g>
<g id="Layer_5">
</g>
<g id="Layer_6">
</g>
<g id="Layer_7">
</g>
<g id="Layer_8">
</g>
<g id="Layer_9">
</g>
<g id="Layer_10">
</g>
<g id="Layer_11">
</g>
<g id="Layer_12">
</g>
<g id="Layer_13">
</g>
<g id="Layer_14">
</g>
<g id="Layer_15">
	<g>
		<path class="st111" d="M176.96,59.43c2.57,2.57,3.99,5.98,3.99,9.62c0,1.8-0.35,3.54-1.04,5.21c-0.69,1.66-1.68,3.15-2.95,4.4
			c-2.57,2.57-5.98,3.99-9.62,3.99h-13.6v-13.6v-13.6h13.6C170.97,55.44,174.39,56.85,176.96,59.43z"/>
		<path class="st112" d="M205.83,88.31c2.57,2.57,3.99,5.98,3.99,9.61c0,3.63-1.42,7.04-3.99,9.62c-2.57,2.57-5.98,3.99-9.61,3.99
			h-13.6v-27.2h13.6C199.84,84.32,203.26,85.73,205.83,88.31z"/>
		<path class="st113" d="M202.18,74.8h-6.33c-3.3,0-5.98-2.68-5.98-5.98v-5.74c0-9.42-7.64-17.05-17.05-17.05h-36.07
			c-3.3,0-5.98,2.68-5.98,5.98v5.25c0,3.3,2.68,5.98,5.98,5.98h1.6c3.3,0,5.98,2.68,5.98,5.98v45.69c0,3.3,2.68,5.98,5.98,5.98
			h17.11c3.3,0,5.98,2.68,5.98,5.98v16.98c0,3.3,2.68,5.98,5.98,5.98h33.89c3.3,0,5.98-2.68,5.98-5.98V91.85
			C219.23,82.43,211.6,74.8,202.18,74.8z M207.01,108.72c-2.88,2.88-6.72,4.47-10.8,4.47h-0.93c-0.05,0.02-0.1,0.04-0.16,0.05
			c-3.23,0.25-6.25,1.65-8.53,3.94c-2.53,2.52-3.99,6.02-3.99,9.61c0,3.58,1.45,7.09,3.99,9.62c2.57,2.57,5.98,3.99,9.62,3.99
			c0.46,0,0.84,0.38,0.84,0.84c0,0.46-0.38,0.84-0.84,0.84h-14.44c-0.46,0-0.84-0.38-0.84-0.84v-14.44v-14.44V84.32h-13.6
			c-3.58,0-7.09,1.45-9.61,3.99c-2.57,2.57-3.99,5.97-3.99,9.61c0,3.63,1.42,7.05,3.99,9.62c2.52,2.53,6.02,3.99,9.61,3.99
			c0.46,0,0.84,0.38,0.84,0.84c0,0.46-0.38,0.84-0.84,0.84H152.9c-0.46,0-0.84-0.38-0.84-0.84V97.91V83.48V69.04
			c0-3.63-1.41-7.05-3.99-9.62c-2.52-2.53-6.02-3.99-9.61-3.99c-0.46,0-0.84-0.38-0.84-0.84c0-0.46,0.38-0.84,0.84-0.84h14.43h14.44
			c4.08,0,7.92,1.59,10.8,4.47c2.88,2.89,4.47,6.73,4.47,10.8v13.6h13.6c4.08,0,7.91,1.59,10.8,4.47c2.89,2.89,4.48,6.73,4.48,10.8
			C211.49,101.99,209.9,105.83,207.01,108.72z"/>
	</g>
</g>
</svg>
