<?xml version="1.0" encoding="utf-8"?>
<!-- Generator: Adobe Illustrator 27.8.1, SVG Export Plug-In . SVG Version: 6.00 Build 0)  -->
<svg version="1.1" xmlns="http://www.w3.org/2000/svg" xmlns:xlink="http://www.w3.org/1999/xlink" x="0px" y="0px"
	 viewBox="0 0 350 230" style="enable-background:new 0 0 350 230;" xml:space="preserve">
<style type="text/css">
	.st0{display:none;}
	.st1{display:inline;fill:#A4FCCA;}
	.st2{display:inline;fill:#867EC1;}
	.st3{display:inline;fill:#DFFF88;}
	.st4{display:inline;fill:#B6FFF1;}
	.st5{display:inline;fill:#FCEE8B;}
	.st6{display:inline;fill:#D9F98C;}
	.st7{display:inline;fill:#EDC17C;}
	.st8{display:inline;fill:#67EFDE;}
	.st9{display:inline;fill:#022130;}
	.st10{display:inline;fill:#EDEB98;}
	.st11{display:inline;fill:#FFA6D9;}
	.st12{display:inline;fill:#D6FFA6;}
	.st13{display:inline;fill:#A5F9E8;}
	.st14{display:inline;fill:#D3F2A7;}
	.st15{display:inline;fill:#353535;}
	.st16{fill:#434947;}
	.st17{fill:#FFFFFF;}
	.st18{fill:#00E9E9;}
	.st19{fill:#A06EFF;}
	.st20{fill:#FF5F81;}
	.st21{fill:#192E40;}
	.st22{fill:#FFDD00;}
	.st23{fill:#FF3D9B;}
	.st24{fill:#00BAEB;}
	.st25{fill:#09093C;}
	.st26{fill:#35AF9D;}
	.st27{fill:#00BAFA;}
	.st28{fill:#FFC300;}
	.st29{fill:#064037;}
	.st30{fill:#6D919C;}
	.st31{fill:#67B8FD;}
	.st32{fill:#464758;}
	.st33{fill:url(#SVGID_1_);}
	.st34{fill:none;}
	.st35{fill:#DE3B0F;}
	.st36{fill:#E86317;}
	.st37{fill:#F09C29;}
	.st38{fill:#708D23;}
	.st39{fill:#9BC344;}
	.st40{fill:url(#SVGID_00000111893061761660602160000004918949784330056366_);}
	.st41{fill:url(#SVGID_00000073003088867072234570000006677886384922329737_);}
	.st42{fill:#4EB8FF;}
	.st43{fill:#EC008B;}
	.st44{fill:#F7C211;}
	.st45{fill:#B8E5E7;}
	.st46{fill:#232740;}
	.st47{fill:none;stroke:#232740;stroke-width:4;stroke-linecap:round;stroke-linejoin:round;stroke-miterlimit:10;}
	.st48{fill:#00B4D7;}
	.st49{fill:#FF2C3D;}
	.st50{fill:#FF8B00;}
	.st51{fill:#00B896;}
	.st52{fill:#FFC70E;}
	.st53{fill:#6A44A5;}
	.st54{fill:#232740;stroke:#232740;stroke-width:4;stroke-linecap:round;stroke-linejoin:round;stroke-miterlimit:10;}
	.st55{fill:#05ACED;}
	.st56{fill:#EA008A;}
	.st57{fill:#231F20;}
	.st58{fill:#FDF002;}
	.st59{fill:#BEC938;}
	.st60{fill:#139DD8;}
	.st61{fill:#BD2CAE;}
	.st62{fill:url(#SVGID_00000002346063531261863200000006457504646962844570_);}
	.st63{fill:#BDC938;}
	.st64{fill:#62B0D3;}
	.st65{fill:url(#SVGID_00000128447713915203219050000001163764654371162247_);}
	.st66{fill:#212121;}
	.st67{fill:#FF3927;}
	.st68{fill:#1A8DFF;}
	.st69{fill:#FFD500;}
	.st70{fill:#606060;}
	.st71{fill:#26A6DF;}
	.st72{filter:url(#Adobe_OpacityMaskFilter);}
	.st73{opacity:0.75;mask:url(#SVGID_00000055672331206573451700000013541474895178946479_);}
	.st74{fill:#BDBBB5;}
	.st75{fill:#334CFF;}
	.st76{opacity:0.43;fill:#334CFF;}
	.st77{fill:#DD0572;}
	.st78{fill:#A35202;}
	.st79{fill:#DDC200;}
	.st80{filter:url(#Adobe_OpacityMaskFilter_00000144334411157414140660000007786864428234462646_);}
	.st81{opacity:0.75;mask:url(#SVGID_00000038389203450130252190000011923786189588081808_);}
	.st82{fill:#939393;}
	.st83{filter:url(#Adobe_OpacityMaskFilter_00000029760386307073570210000015363557038611622839_);}
	.st84{opacity:0.75;mask:url(#SVGID_00000147187152444214246100000009353613198953243285_);}
	.st85{fill:#3F3F3F;}
	.st86{fill:#0041D1;}
	.st87{fill:#AD00F8;}
	.st88{fill:#02C8F5;}
	.st89{fill:#00FB22;}
	.st90{fill:#ED0F93;}
	.st91{fill:#FF4E02;}
	.st92{fill:#0E1BD9;}
	.st93{fill:#F6ACCD;}
	.st94{fill:#00B04E;}
	.st95{fill:#FCAA18;}
	.st96{fill:#004B2D;}
	.st97{fill:#A3521B;}
	.st98{fill:#006CB7;}
	.st99{fill:#DE1922;}
	.st100{fill:#3F1113;}
	.st101{fill:#04AD52;}
	.st102{fill:#888B90;}
	.st103{fill:#F1B0CE;}
	.st104{fill:#D91E19;}
	.st105{fill:#02385C;}
	.st106{fill:#B61C7E;}
	.st107{fill:#00BFD2;}
	.st108{fill:#E95EA2;}
	.st109{fill:#054B2F;}
	.st110{fill:#7C1415;}
	.st111{fill:#019245;}
	.st112{fill:#D91819;}
	.st113{fill:#FFF800;}
	.st114{fill:#6B2D16;}
	.st115{fill:#4D33A0;}
	.st116{fill:#0B8D47;}
	.st117{fill:#3B190F;}
	.st118{fill:#69311A;}
	.st119{fill:#9177B4;}
	.st120{fill:#492E8B;}
	.st121{fill:#FF4545;}
	.st122{fill:none;stroke:#6B2D16;stroke-miterlimit:10;}
	.st123{fill:#00482D;}
	.st124{fill:#442C9A;}
	.st125{fill:#92BE4B;}
	.st126{fill:#4B318C;}
	.st127{fill:#781722;}
</style>
<g id="Layer_1">
</g>
<g id="Layer_2">
</g>
<g id="Layer_3">
</g>
<g id="Layer_4">
</g>
<g id="Layer_5">
</g>
<g id="Layer_6">
</g>
<g id="Layer_7">
</g>
<g id="Layer_8">
</g>
<g id="Layer_9">
</g>
<g id="Layer_10">
</g>
<g id="Layer_11">
</g>
<g id="Layer_12">
</g>
<g id="Layer_13">
</g>
<g id="Layer_14">
</g>
<g id="Layer_15">
	<g id="_x32_8">
		<path class="st121" d="M212.3,134.17c-0.68-0.15-1.38-0.24-2.11-0.24c-5.28,0-9.56,4.28-9.56,9.56c0,5.28,4.28,9.56,9.56,9.56
			c0.73,0,1.43-0.08,2.11-0.24c4.27-0.95,7.46-4.77,7.46-9.33C219.76,138.94,216.57,135.12,212.3,134.17z M166.87,75.76
			c-1.39,0.8-2.41,2.17-2.74,3.8v2.3c0.33,1.62,1.35,3,2.74,3.8c1.71-0.98,2.86-2.83,2.86-4.94
			C169.73,78.59,168.58,76.75,166.87,75.76z M180.6,55.87c-0.96-0.09-1.93-0.13-2.91-0.13c-4.94,0-9.62,1.1-13.81,3.08
			c-1.97,0.92-3.83,2.04-5.56,3.33V80.7c0-3.15,2.55-5.7,5.7-5.7h0.11c1,0.02,1.93,0.29,2.74,0.76c0.84-0.49,1.81-0.76,2.84-0.76
			c3.15,0,5.7,2.56,5.7,5.7c0,3.15-2.55,5.7-5.7,5.7c-1.03,0-2-0.27-2.84-0.76c-0.81,0.47-1.74,0.74-2.74,0.76h-0.11
			c-3.15,0-5.7-2.55-5.7-5.7v33.64c1.8,1.34,3.75,2.5,5.81,3.44c4.13,1.9,8.72,2.96,13.56,2.96c0.98,0,1.95-0.04,2.91-0.13
			c16.59-1.47,29.59-15.4,29.59-32.37C210.19,71.27,197.19,57.34,180.6,55.87z M164.13,79.56v2.3c0.33,1.62,1.35,3,2.74,3.8
			c1.71-0.98,2.86-2.83,2.86-4.94c0-2.11-1.15-3.96-2.86-4.94C165.48,76.56,164.46,77.93,164.13,79.56z M158.32,62.14V60.3
			c0-2.52-2.04-4.56-4.56-4.56h-23.18c-2.52,0-4.55,2.04-4.55,4.56v88.21c0,2.52,2.03,4.55,4.55,4.55h23.18
			c2.52,0,4.56-2.03,4.56-4.55v-34.17c-7.96-5.92-13.13-15.41-13.13-26.1S150.35,68.06,158.32,62.14z"/>
		<g>
			<path class="st122" d="M164.13,60.3V75h-0.11c-3.15,0-5.7,2.56-5.7,5.7c0,3.15,2.55,5.7,5.7,5.7h0.11v62.1
				c0,2.52-2.04,4.55-4.55,4.55h-23.19c-2.52,0-4.55-2.03-4.55-4.55V60.3c0-2.52,2.03-4.56,4.55-4.56h23.19
				c1.99,0,3.69,1.28,4.3,3.08C164.04,59.28,164.13,59.78,164.13,60.3z M169.73,80.7c0,2.11-1.15,3.96-2.86,4.94
				c-1.39-0.8-2.41-2.17-2.74-3.8v-2.3c0.33-1.62,1.35-2.99,2.74-3.8C168.58,76.75,169.73,78.59,169.73,80.7z M169.73,80.7
				c0,2.11-1.15,3.96-2.86,4.94c-1.39-0.8-2.41-2.17-2.74-3.8v-2.3c0.33-1.62,1.35-2.99,2.74-3.8
				C168.58,76.75,169.73,78.59,169.73,80.7z M216,88.24c0,17.95-14.55,32.5-32.5,32.5c-0.98,0-1.95-0.04-2.9-0.13
				c-6.14-0.54-11.79-2.79-16.47-6.27c-2.16-1.61-4.11-3.47-5.81-5.55c-4.57-5.6-7.32-12.75-7.32-20.55s2.74-14.95,7.32-20.55
				c1.7-2.08,3.65-3.94,5.81-5.55c4.68-3.48,10.33-5.73,16.47-6.27c0.96-0.09,1.92-0.13,2.9-0.13C201.45,55.74,216,70.29,216,88.24z
				 M175.42,80.7c0-3.15-2.55-5.7-5.7-5.7c-1.03,0-2,0.27-2.84,0.76c-0.81-0.47-1.74-0.74-2.74-0.76h-0.11c-3.15,0-5.7,2.56-5.7,5.7
				c0,3.15,2.55,5.7,5.7,5.7h0.11c1-0.02,1.93-0.29,2.74-0.76c0.84,0.49,1.81,0.76,2.84,0.76C172.87,86.41,175.42,83.86,175.42,80.7
				z M166.87,85.65c-1.39-0.8-2.41-2.17-2.74-3.8v-2.3c0.33-1.62,1.35-2.99,2.74-3.8c1.71,0.99,2.86,2.83,2.86,4.94
				C169.73,82.82,168.58,84.67,166.87,85.65z M214.4,133.93c-5.28,0-9.57,4.28-9.57,9.57c0,5.28,4.28,9.57,9.57,9.57
				s9.57-4.28,9.57-9.57C223.97,138.21,219.69,133.93,214.4,133.93z"/>
		</g>
	</g>
</g>
</svg>
