<?xml version="1.0" encoding="utf-8"?>
<!-- Generator: Adobe Illustrator 27.8.1, SVG Export Plug-In . SVG Version: 6.00 Build 0)  -->
<svg version="1.1" xmlns="http://www.w3.org/2000/svg" xmlns:xlink="http://www.w3.org/1999/xlink" x="0px" y="0px"
	 viewBox="0 0 350 230" style="enable-background:new 0 0 350 230;" xml:space="preserve">
<style type="text/css">
	.st0{fill:#DEF9FF;}
	.st1{fill:#FDFFE1;}
	.st2{fill:#ECFFE1;}
	.st3{fill:#F3E1FF;}
	.st4{fill:#E7FFE1;}
	.st5{fill:#FAAF40;}
	.st6{display:none;}
	.st7{display:inline;fill:#A4FCCA;}
	.st8{display:inline;fill:#867EC1;}
	.st9{display:inline;fill:#DFFF88;}
	.st10{display:inline;fill:#B6FFF1;}
	.st11{display:inline;fill:#FCEE8B;}
	.st12{display:inline;fill:#D9F98C;}
	.st13{display:inline;fill:#EDC17C;}
	.st14{display:inline;fill:#67EFDE;}
	.st15{display:inline;fill:#022130;}
	.st16{display:inline;fill:#EDEB98;}
	.st17{display:inline;fill:#FFA6D9;}
	.st18{display:inline;fill:#D6FFA6;}
	.st19{display:inline;fill:#A5F9E8;}
	.st20{display:inline;fill:#D3F2A7;}
	.st21{display:inline;fill:#353535;}
	.st22{fill:#434947;}
	.st23{fill:#FFFFFF;}
	.st24{fill:#00E9E9;}
	.st25{fill:#A06EFF;}
	.st26{fill:#FF5F81;}
	.st27{fill:#192E40;}
	.st28{fill:#FFDD00;}
	.st29{fill:#FF3D9B;}
	.st30{fill:#00BAEB;}
	.st31{fill:#09093C;}
	.st32{fill:#35AF9D;}
	.st33{fill:#00BAFA;}
	.st34{fill:#FFC300;}
	.st35{fill:#064037;}
	.st36{fill:#6D919C;}
	.st37{fill:#67B8FD;}
	.st38{fill:#464758;}
	.st39{fill:url(#SVGID_1_);}
	.st40{fill:none;}
	.st41{fill:#DE3B0F;}
	.st42{fill:#E86317;}
	.st43{fill:#F09C29;}
	.st44{fill:#708D23;}
	.st45{fill:#9BC344;}
	.st46{fill:url(#SVGID_00000017503576485612520590000018262076977092534189_);}
	.st47{fill:url(#SVGID_00000131335380868126011770000008693515894590647699_);}
	.st48{fill:#4EB8FF;}
	.st49{fill:#EC008B;}
	.st50{fill:#F7C211;}
	.st51{fill:#B8E5E7;}
	.st52{fill:#232740;}
	.st53{fill:none;stroke:#232740;stroke-width:4;stroke-linecap:round;stroke-linejoin:round;stroke-miterlimit:10;}
	.st54{fill:#00B4D7;}
	.st55{fill:#FF2C3D;}
	.st56{fill:#FF8B00;}
	.st57{fill:#00B896;}
	.st58{fill:#FFC70E;}
	.st59{fill:#6A44A5;}
	.st60{fill:#232740;stroke:#232740;stroke-width:4;stroke-linecap:round;stroke-linejoin:round;stroke-miterlimit:10;}
	.st61{fill:#05ACED;}
	.st62{fill:#EA008A;}
	.st63{fill:#231F20;}
	.st64{fill:#FDF002;}
	.st65{fill:#BEC938;}
	.st66{fill:#139DD8;}
	.st67{fill:#BD2CAE;}
	.st68{fill:url(#SVGID_00000001644935583992764610000011151784794170587523_);}
	.st69{fill:#BDC938;}
	.st70{fill:#62B0D3;}
	.st71{fill:url(#SVGID_00000039123987253639307150000002184940960672843414_);}
	.st72{fill:#212121;}
	.st73{fill:#FF3927;}
	.st74{fill:#1A8DFF;}
	.st75{fill:#FFD500;}
	.st76{fill:#606060;}
	.st77{fill:#26A6DF;}
	.st78{filter:url(#Adobe_OpacityMaskFilter);}
	.st79{opacity:0.75;mask:url(#SVGID_00000091004881529256617500000009767598866883902627_);}
	.st80{fill:#BDBBB5;}
	.st81{fill:#334CFF;}
	.st82{opacity:0.43;fill:#334CFF;}
	.st83{fill:#DD0572;}
	.st84{fill:#A35202;}
	.st85{fill:#DDC200;}
	.st86{filter:url(#Adobe_OpacityMaskFilter_00000106843054735148590040000002455826138465441672_);}
	.st87{opacity:0.75;mask:url(#SVGID_00000003078408022286453110000005931439966227187341_);}
	.st88{fill:#939393;}
	.st89{filter:url(#Adobe_OpacityMaskFilter_00000018935200237015865030000002746282918415367566_);}
	.st90{opacity:0.75;mask:url(#SVGID_00000166650232497878946180000009373277104038010271_);}
	.st91{fill:#3F3F3F;}
	.st92{fill:#0041D1;}
	.st93{fill:#AD00F8;}
	.st94{fill:#02C8F5;}
	.st95{fill:#00FB22;}
	.st96{fill:#ED0F93;}
	.st97{fill:#FF4E02;}
	.st98{fill:#0E1BD9;}
	.st99{fill:#F6ACCD;}
	.st100{fill:#00B04E;}
	.st101{fill:#FCAA18;}
	.st102{fill:#004B2D;}
	.st103{fill:#A3521B;}
	.st104{fill:#006CB7;}
	.st105{fill:#DE1922;}
	.st106{fill:#3F1113;}
	.st107{fill:#04AD52;}
	.st108{fill:#888B90;}
	.st109{fill:#F1B0CE;}
	.st110{fill:#D91E19;}
	.st111{fill:#02385C;}
	.st112{fill:#B61C7E;}
	.st113{fill:#00BFD2;}
	.st114{fill:#E95EA2;}
	.st115{fill:#054B2F;}
	.st116{fill:#7C1415;}
	.st117{fill:#019245;}
	.st118{fill:#D91819;}
	.st119{fill:#FFF800;}
	.st120{fill:#6B2D16;}
	.st121{fill:#4D33A0;}
	.st122{fill:#0B8D47;}
	.st123{fill:#3B190F;}
	.st124{fill:#69311A;}
	.st125{fill:#9177B4;}
	.st126{fill:#492E8B;}
	.st127{fill:#FF4545;}
	.st128{fill:none;stroke:#6B2D16;stroke-miterlimit:10;}
	.st129{fill:#00482D;}
	.st130{fill:#442C9A;}
	.st131{fill:#92BE4B;}
	.st132{fill:#4B318C;}
	.st133{fill:#781722;}
	.st134{fill:#C4CB10;}
	.st135{fill:#1DB3D5;}
	.st136{fill:#E8303F;}
	.st137{fill:#EC8A16;}
	.st138{fill:none;stroke:#292B41;stroke-width:4;stroke-linecap:round;stroke-linejoin:round;stroke-miterlimit:10;}
	.st139{fill:#292B41;}
	.st140{fill:#222423;}
	.st141{fill:url(#XMLID_00000164501460061361864990000002501691822070682250_);}
	.st142{fill:url(#XMLID_00000132791098407521748710000017085000620589290915_);}
	.st143{fill:url(#XMLID_00000134952673172330588220000001330450781381809558_);}
	.st144{fill:url(#XMLID_00000145769280808013172050000017636456249920448187_);}
	.st145{fill:url(#SVGID_00000041978265929997192890000000654818267283037846_);}
	.st146{fill:url(#SVGID_00000129171317866645456550000004863048753835521418_);}
	.st147{fill:#ED1C24;}
	.st148{fill:url(#SVGID_00000065037701744431855800000015350032385199000506_);}
	.st149{fill:url(#SVGID_00000063619908211638112560000012273919894168125093_);}
	.st150{fill:url(#SVGID_00000049922375040432379190000013712517916682518919_);}
	.st151{fill:#A7A9AC;}
	.st152{fill:#FFC301;}
	.st153{fill:url(#SVGID_00000158712791273846882530000003346688883379692476_);}
	.st154{opacity:0.5;fill:none;}
	.st155{fill:#2B2B2B;}
	.st156{fill:url(#SVGID_00000052814328136225905440000011372714261512165019_);}
	.st157{fill:url(#SVGID_00000149380160842346044480000004038748767280832179_);}
	.st158{fill:url(#SVGID_00000035503420284982582940000000991636876452973748_);}
	.st159{fill:#51B1BF;}
	.st160{fill:#0A0B0D;}
	.st161{fill:#FEF301;}
	.st162{fill:#0093DD;}
	.st163{fill:#7F3F97;}
	.st164{fill:#FAEC20;}
	.st165{fill:#29A9E1;}
	.st166{fill:#EB0C8B;}
	.st167{fill:#424243;}
	.st168{fill:url(#SVGID_00000159429206753023077670000007701510778108510364_);}
	.st169{fill:#F6C217;}
	.st170{fill:#D61477;}
	.st171{fill:#2293D0;}
	.st172{fill:#D9DBDB;}
	.st173{fill:#FFF100;}
	.st174{fill:#04AAF4;}
	.st175{fill:url(#SVGID_00000004512648652175814640000007205740734109890749_);}
	.st176{fill-rule:evenodd;clip-rule:evenodd;fill:url(#SVGID_00000164473091322951975460000001511160692038458518_);}
	.st177{fill-rule:evenodd;clip-rule:evenodd;}
	.st178{fill:#FF3399;}
	.st179{fill:#FFCC00;}
	.st180{fill:#335AFF;}
	.st181{fill:url(#SVGID_00000040536801744670433550000015938119932675757464_);}
	.st182{fill:url(#SVGID_00000002356391005352775640000000732114665398811543_);}
	.st183{fill:url(#SVGID_00000099655981924784370010000012210699957699665085_);}
	.st184{fill:url(#SVGID_00000072238662380681715090000016438730682680392846_);}
	.st185{fill:#FFAB22;}
	.st186{fill:url(#SVGID_00000116205282775689462960000004597433983007348900_);}
	.st187{fill:#0966B1;}
	.st188{fill:url(#XMLID_00000114757596698314654290000007783933052170532031_);}
	.st189{fill:#F79420;}
	.st190{fill:#FFDD0C;}
	.st191{fill:#0AA79C;}
	.st192{fill:#ADD037;}
	.st193{fill:#FBF1D3;}
	.st194{fill:url(#SVGID_00000008111929408308501690000005632315850829879481_);}
	.st195{fill:url(#SVGID_00000090275904215751877150000000614267947210264993_);}
	.st196{fill:url(#SVGID_00000084506849188863139950000009072989325875027368_);}
	.st197{fill:#2394D1;}
	.st198{opacity:0.25;fill:url(#SVGID_00000093898428651600489270000002356662093752662169_);}
	.st199{fill:url(#SVGID_00000101069489423616243050000006449320628072578700_);}
	.st200{fill:url(#SVGID_00000145750548685401196260000014990329195341275264_);}
	.st201{fill:url(#SVGID_00000138572774596414640470000004571513240937858481_);}
	.st202{fill:url(#SVGID_00000123439988580041706460000002031225715816009126_);}
	.st203{opacity:0.2;fill:#231F20;}
	.st204{fill:#2F92D0;}
	.st205{fill:#EB008B;}
	.st206{fill:#221F1F;}
	.st207{fill:#8BC53F;}
	.st208{fill:url(#SVGID_00000007404188423796582160000013803998371870345112_);}
	.st209{fill:#64AD44;}
	.st210{fill:#F8BB15;}
	.st211{fill:#EA3524;}
	.st212{fill:#1495D9;}
	.st213{fill:#00ADEE;}
	.st214{fill:#60B4E5;}
	.st215{fill:#37B34A;}
</style>
<g id="Layer_1">
</g>
<g id="Layer_2">
</g>
<g id="Layer_3">
</g>
<g id="Layer_4">
</g>
<g id="Layer_5">
</g>
<g id="Layer_6">
</g>
<g id="Layer_7">
</g>
<g id="Layer_8">
</g>
<g id="Layer_9">
</g>
<g id="Layer_10">
</g>
<g id="Layer_11">
</g>
<g id="Layer_12">
</g>
<g id="Layer_13">
</g>
<g id="Layer_14">
</g>
<g id="Layer_15">
	<g>
		<linearGradient id="SVGID_1_" gradientUnits="userSpaceOnUse" x1="118.5822" y1="84.1077" x2="231.4606" y2="84.1077">
			<stop  offset="0" style="stop-color:#18E7FF"/>
			<stop  offset="1" style="stop-color:#9900FF"/>
		</linearGradient>
		<path class="st39" d="M175.96,129.38c0-1.81-0.03-3.94,0.01-6.07c0.11-7.07,0.11-14.15,0.4-21.22
			c0.42-10.13,2.57-19.86,7.28-28.95c6.57-12.68,16.62-21.69,29.3-27.95c5.57-2.74,11.38-4.8,17.44-6.15
			c0.28-0.06,0.57-0.1,1.05-0.17c0,1.13,0.04,2.19-0.01,3.24c-0.39,8.12-1.85,16.02-4.9,23.59c-3.63,9.02-8.68,17.12-15.9,23.69
			c-2.83,2.57-6.01,4.82-9.24,6.88c-9.87,6.32-17.39,14.68-22.37,25.27C177.78,124.16,176.9,126.95,175.96,129.38z M118.58,39.87
			c0.11,5.08,0.47,10.13,1.49,15.13c2.58,12.55,8.06,23.54,17.27,32.57c3.46,3.39,7.43,6.12,11.49,8.71
			c11.54,7.39,19.43,17.63,24.04,30.47c0.34,0.95,0.63,1.91,0.92,2.82c0-4.57,0.02-9.16,0-13.75c-0.06-9.3-0.21-18.6-2.35-27.72
			c-2.81-11.94-8.44-22.32-17.22-30.91c-7.38-7.23-16.13-12.25-25.86-15.57c-3.14-1.07-6.35-1.94-9.72-2.95
			C118.61,39.29,118.58,39.58,118.58,39.87z"/>
		
			<linearGradient id="SVGID_00000119828663882899528440000004014103819524198326_" gradientUnits="userSpaceOnUse" x1="76.1896" y1="95.7274" x2="273.8105" y2="95.7274">
			<stop  offset="0" style="stop-color:#EB008B"/>
			<stop  offset="0.0418" style="stop-color:#E10775"/>
			<stop  offset="0.1057" style="stop-color:#D40F5B"/>
			<stop  offset="0.1761" style="stop-color:#CA1647"/>
			<stop  offset="0.2554" style="stop-color:#C31A38"/>
			<stop  offset="0.3507" style="stop-color:#BF1D30"/>
			<stop  offset="0.5054" style="stop-color:#BE1E2D"/>
			<stop  offset="0.524" style="stop-color:#B52731"/>
			<stop  offset="0.64" style="stop-color:#845948"/>
			<stop  offset="0.7493" style="stop-color:#5C805B"/>
			<stop  offset="0.849" style="stop-color:#409D68"/>
			<stop  offset="0.9358" style="stop-color:#2FAE70"/>
			<stop  offset="1" style="stop-color:#29B473"/>
		</linearGradient>
		<path style="fill:url(#SVGID_00000119828663882899528440000004014103819524198326_);" d="M175.1,148.17
			c0.91-0.86,1.99-1.92,3.11-2.94c14.77-13.45,31.69-22.92,51.22-27.46c10.9-2.53,21.9-3.12,32.98-1.23
			c0.39,0.07,0.83,0.16,1.13,0.39c3.45,2.73,6.88,5.49,10.28,8.22c-38.73,0.1-71.12,15.22-98.85,41.24
			c-27.6-26.34-60.31-40.73-98.77-41.26c1.93-1.55,4.01-3.25,6.12-4.91c5.3-4.17,3.66-3.67,11.24-4.35c14.53-1.3,28.46,1.54,42,6.6
			c11.33,4.23,21.84,9.94,31.14,17.7C169.64,142.62,172.27,145.45,175.1,148.17z M129.44,37.6c0,0.27,0.4,0.63,0.7,0.77
			c3.92,1.82,7.98,3.39,11.76,5.46c9.39,5.15,17.36,11.96,23.22,21.04c0.56,0.87,1.07,1.77,1.57,2.68c0.5,0.9,0.95,1.83,1.43,2.74
			c-6.85-20.16-19.51-35.36-38.72-45.24C129.41,29.38,129.39,33.49,129.44,37.6z M181.97,69.34c6.89-19.87,19.81-34.37,38.59-43.96
			c0.06,1.08,0.14,2,0.15,2.92c0.01,2.85-0.07,5.71,0.02,8.55c0.03,1.07-0.38,1.48-1.3,1.81c-6.12,2.2-11.9,5.1-17.27,8.78
			c-8.3,5.69-15.32,12.58-19.97,21.65C182.13,69.19,182.04,69.26,181.97,69.34z M142.81,103.72c0,0.19,0.29,0.45,0.5,0.55
			c2.77,1.29,5.64,2.39,8.31,3.86c6.64,3.64,12.27,8.45,16.41,14.87c0.4,0.61,0.76,1.25,1.11,1.89c0.35,0.64,0.67,1.29,1.01,1.94
			c-4.84-14.25-13.79-24.99-27.37-31.98C142.79,97.91,142.78,100.81,142.81,103.72z M179.95,126.15c4.87-14.05,14-24.29,27.28-31.07
			c0.04,0.77,0.1,1.41,0.1,2.06c0.01,2.02-0.05,4.03,0.01,6.05c0.02,0.76-0.27,1.04-0.92,1.28c-4.33,1.56-8.41,3.61-12.21,6.21
			c-5.87,4.02-10.83,8.89-14.12,15.3C180.06,126.04,180,126.09,179.95,126.15z"/>
	</g>
</g>
</svg>
