<?xml version="1.0" encoding="utf-8"?>
<!-- Generator: Adobe Illustrator 27.8.1, SVG Export Plug-In . SVG Version: 6.00 Build 0)  -->
<svg version="1.1" xmlns="http://www.w3.org/2000/svg" xmlns:xlink="http://www.w3.org/1999/xlink" x="0px" y="0px"
	 viewBox="0 0 350 230" style="enable-background:new 0 0 350 230;" xml:space="preserve">
<style type="text/css">
	.st0{fill:#DEF9FF;}
	.st1{fill:#FDFFE1;}
	.st2{fill:#ECFFE1;}
	.st3{fill:#F3E1FF;}
	.st4{fill:#E7FFE1;}
	.st5{fill:#FAAF40;}
	.st6{display:none;}
	.st7{display:inline;fill:#A4FCCA;}
	.st8{display:inline;fill:#867EC1;}
	.st9{display:inline;fill:#DFFF88;}
	.st10{display:inline;fill:#B6FFF1;}
	.st11{display:inline;fill:#FCEE8B;}
	.st12{display:inline;fill:#D9F98C;}
	.st13{display:inline;fill:#EDC17C;}
	.st14{display:inline;fill:#67EFDE;}
	.st15{display:inline;fill:#022130;}
	.st16{display:inline;fill:#EDEB98;}
	.st17{display:inline;fill:#FFA6D9;}
	.st18{display:inline;fill:#D6FFA6;}
	.st19{display:inline;fill:#A5F9E8;}
	.st20{display:inline;fill:#D3F2A7;}
	.st21{display:inline;fill:#353535;}
	.st22{fill:#434947;}
	.st23{fill:#FFFFFF;}
	.st24{fill:#00E9E9;}
	.st25{fill:#A06EFF;}
	.st26{fill:#FF5F81;}
	.st27{fill:#192E40;}
	.st28{fill:#FFDD00;}
	.st29{fill:#FF3D9B;}
	.st30{fill:#00BAEB;}
	.st31{fill:#09093C;}
	.st32{fill:#35AF9D;}
	.st33{fill:#00BAFA;}
	.st34{fill:#FFC300;}
	.st35{fill:#064037;}
	.st36{fill:#6D919C;}
	.st37{fill:#67B8FD;}
	.st38{fill:#464758;}
	.st39{fill:url(#SVGID_1_);}
	.st40{fill:none;}
	.st41{fill:#DE3B0F;}
	.st42{fill:#E86317;}
	.st43{fill:#F09C29;}
	.st44{fill:#708D23;}
	.st45{fill:#9BC344;}
	.st46{fill:url(#SVGID_00000020378390384777937240000000184170591680607419_);}
	.st47{fill:url(#SVGID_00000012457555142735907600000017876012528831067563_);}
	.st48{fill:#4EB8FF;}
	.st49{fill:#EC008B;}
	.st50{fill:#F7C211;}
	.st51{fill:#B8E5E7;}
	.st52{fill:#232740;}
	.st53{fill:none;stroke:#232740;stroke-width:4;stroke-linecap:round;stroke-linejoin:round;stroke-miterlimit:10;}
	.st54{fill:#00B4D7;}
	.st55{fill:#FF2C3D;}
	.st56{fill:#FF8B00;}
	.st57{fill:#00B896;}
	.st58{fill:#FFC70E;}
	.st59{fill:#6A44A5;}
	.st60{fill:#232740;stroke:#232740;stroke-width:4;stroke-linecap:round;stroke-linejoin:round;stroke-miterlimit:10;}
	.st61{fill:#05ACED;}
	.st62{fill:#EA008A;}
	.st63{fill:#231F20;}
	.st64{fill:#FDF002;}
	.st65{fill:#BEC938;}
	.st66{fill:#139DD8;}
	.st67{fill:#BD2CAE;}
	.st68{fill:url(#SVGID_00000146465743929669061260000011722579718065418658_);}
	.st69{fill:#BDC938;}
	.st70{fill:#62B0D3;}
	.st71{fill:url(#SVGID_00000065032174021825946200000013842011096371134884_);}
	.st72{fill:#212121;}
	.st73{fill:#FF3927;}
	.st74{fill:#1A8DFF;}
	.st75{fill:#FFD500;}
	.st76{fill:#606060;}
	.st77{fill:#26A6DF;}
	.st78{filter:url(#Adobe_OpacityMaskFilter);}
	.st79{opacity:0.75;mask:url(#SVGID_00000010272799547691510900000007959931779528705176_);}
	.st80{fill:#BDBBB5;}
	.st81{fill:#334CFF;}
	.st82{opacity:0.43;fill:#334CFF;}
	.st83{fill:#DD0572;}
	.st84{fill:#A35202;}
	.st85{fill:#DDC200;}
	.st86{filter:url(#Adobe_OpacityMaskFilter_00000023963625694489609750000013483880051450419844_);}
	.st87{opacity:0.75;mask:url(#SVGID_00000093889536854403617910000003980572816229563057_);}
	.st88{fill:#939393;}
	.st89{filter:url(#Adobe_OpacityMaskFilter_00000121998405669292557050000004020325524276836029_);}
	.st90{opacity:0.75;mask:url(#SVGID_00000018945200229987834350000009565966293893819282_);}
	.st91{fill:#3F3F3F;}
	.st92{fill:#0041D1;}
	.st93{fill:#AD00F8;}
	.st94{fill:#02C8F5;}
	.st95{fill:#00FB22;}
	.st96{fill:#ED0F93;}
	.st97{fill:#FF4E02;}
	.st98{fill:#0E1BD9;}
	.st99{fill:#F6ACCD;}
	.st100{fill:#00B04E;}
	.st101{fill:#FCAA18;}
	.st102{fill:#004B2D;}
	.st103{fill:#A3521B;}
	.st104{fill:#006CB7;}
	.st105{fill:#DE1922;}
	.st106{fill:#3F1113;}
	.st107{fill:#04AD52;}
	.st108{fill:#888B90;}
	.st109{fill:#F1B0CE;}
	.st110{fill:#D91E19;}
	.st111{fill:#02385C;}
	.st112{fill:#B61C7E;}
	.st113{fill:#00BFD2;}
	.st114{fill:#E95EA2;}
	.st115{fill:#054B2F;}
	.st116{fill:#7C1415;}
	.st117{fill:#019245;}
	.st118{fill:#D91819;}
	.st119{fill:#FFF800;}
	.st120{fill:#6B2D16;}
	.st121{fill:#4D33A0;}
	.st122{fill:#0B8D47;}
	.st123{fill:#3B190F;}
	.st124{fill:#69311A;}
	.st125{fill:#9177B4;}
	.st126{fill:#492E8B;}
	.st127{fill:#FF4545;}
	.st128{fill:none;stroke:#6B2D16;stroke-miterlimit:10;}
	.st129{fill:#00482D;}
	.st130{fill:#442C9A;}
	.st131{fill:#92BE4B;}
	.st132{fill:#4B318C;}
	.st133{fill:#781722;}
	.st134{fill:#C4CB10;}
	.st135{fill:#1DB3D5;}
	.st136{fill:#E8303F;}
	.st137{fill:#EC8A16;}
	.st138{fill:none;stroke:#292B41;stroke-width:4;stroke-linecap:round;stroke-linejoin:round;stroke-miterlimit:10;}
	.st139{fill:#292B41;}
	.st140{fill:#222423;}
	.st141{fill:url(#XMLID_00000142884054689628310170000018356707760547946640_);}
	.st142{fill:url(#XMLID_00000001643131338885032930000017997351796112421792_);}
	.st143{fill:url(#XMLID_00000079447799786083028240000011328231011575846528_);}
	.st144{fill:url(#XMLID_00000170249244061893989440000015350764063367725981_);}
	.st145{fill:url(#SVGID_00000085217369049413744310000010088742382197559464_);}
	.st146{fill:url(#SVGID_00000054978564814756264300000003562086784279805582_);}
	.st147{fill:#ED1C24;}
	.st148{fill:url(#SVGID_00000023251361122496831700000005877809151762027168_);}
	.st149{fill:url(#SVGID_00000080183825685045634430000005773982311869808519_);}
	.st150{fill:url(#SVGID_00000159462249400356751930000000848196895332309385_);}
	.st151{fill:#A7A9AC;}
	.st152{fill:#FFC301;}
	.st153{fill:url(#SVGID_00000107553001970246297710000008777939731194444434_);}
	.st154{opacity:0.5;fill:none;}
	.st155{fill:#2B2B2B;}
	.st156{fill:url(#SVGID_00000015323650966904365550000018108462934197897634_);}
	.st157{fill:url(#SVGID_00000011720324367535126730000016295578994760601745_);}
	.st158{fill:url(#SVGID_00000047772726531802072280000004563101344354053512_);}
	.st159{fill:#51B1BF;}
	.st160{fill:#0A0B0D;}
	.st161{fill:#FEF301;}
	.st162{fill:#0093DD;}
	.st163{fill:#7F3F97;}
	.st164{fill:#FAEC20;}
	.st165{fill:#29A9E1;}
	.st166{fill:#EB0C8B;}
	.st167{fill:#424243;}
	.st168{fill:url(#SVGID_00000149367325342527636150000008783947406585676441_);}
	.st169{fill:#F6C217;}
	.st170{fill:#D61477;}
	.st171{fill:#2293D0;}
	.st172{fill:#D9DBDB;}
	.st173{fill:#FFF100;}
	.st174{fill:#04AAF4;}
	.st175{fill:url(#SVGID_00000036960338460469520290000004702787293355983760_);}
	.st176{fill-rule:evenodd;clip-rule:evenodd;fill:url(#SVGID_00000010998446744295122910000014792777722155730566_);}
	.st177{fill-rule:evenodd;clip-rule:evenodd;}
	.st178{fill:#FF3399;}
	.st179{fill:#FFCC00;}
	.st180{fill:#335AFF;}
	.st181{fill:url(#SVGID_00000011014907894440445710000015113758922187199654_);}
	.st182{fill:url(#SVGID_00000057865159293331807880000002659252161019213197_);}
	.st183{fill:url(#SVGID_00000145035978087871854950000009401633360769320358_);}
	.st184{fill:url(#SVGID_00000129885405760889957790000003876616209475777446_);}
	.st185{fill:#FFAB22;}
	.st186{fill:url(#SVGID_00000053513800896772152960000013198123302276305038_);}
	.st187{fill:#0966B1;}
	.st188{fill:url(#XMLID_00000012430555642631201470000009891634035941218967_);}
	.st189{fill:#F79420;}
	.st190{fill:#FFDD0C;}
	.st191{fill:#0AA79C;}
	.st192{fill:#ADD037;}
	.st193{fill:#FBF1D3;}
	.st194{fill:url(#SVGID_00000060738953357976613380000013020334379779187895_);}
	.st195{fill:url(#SVGID_00000101823344350515634910000006195553769434337721_);}
	.st196{fill:url(#SVGID_00000173843783660056816280000012600460631001478789_);}
	.st197{fill:#2394D1;}
	.st198{opacity:0.25;fill:url(#SVGID_00000115490129185552711700000011252560685031867280_);}
	.st199{fill:url(#SVGID_00000057855977766492515550000006454472234856133014_);}
	.st200{fill:url(#SVGID_00000050641111229454942840000011397727246193490834_);}
	.st201{fill:url(#SVGID_00000116195434418010719950000007712967719315839127_);}
	.st202{fill:url(#SVGID_00000040534907790210690240000016467097640872186269_);}
	.st203{opacity:0.2;fill:#231F20;}
	.st204{fill:#2F92D0;}
	.st205{fill:#EB008B;}
	.st206{fill:#221F1F;}
	.st207{fill:#8BC53F;}
	.st208{fill:url(#SVGID_00000078036338624155161860000004836455222646512573_);}
	.st209{fill:#64AD44;}
	.st210{fill:#F8BB15;}
	.st211{fill:#EA3524;}
	.st212{fill:#1495D9;}
	.st213{fill:#00ADEE;}
	.st214{fill:#60B4E5;}
	.st215{fill:#37B34A;}
</style>
<g id="Layer_1">
</g>
<g id="Layer_2">
</g>
<g id="Layer_3">
</g>
<g id="Layer_4">
</g>
<g id="Layer_5">
</g>
<g id="Layer_6">
</g>
<g id="Layer_7">
</g>
<g id="Layer_8">
</g>
<g id="Layer_9">
</g>
<g id="Layer_10">
</g>
<g id="Layer_11">
</g>
<g id="Layer_12">
</g>
<g id="Layer_13">
</g>
<g id="Layer_14">
</g>
<g id="Layer_15">
	<g>
		<path d="M135.65,91.9c-5.54-0.9-10.5-1.7-15.47-2.51c-9.64-1.57-19.27-3.15-28.91-4.69c-3.67-0.59-5.08-3.88-2.91-6.96
			c0.96-1.37,2.34-1.51,3.87-1.26c6.38,1.05,12.77,2.08,19.16,3.12c7.87,1.28,15.74,2.56,23.61,3.84c3.63,0.59,5.06,3.71,2.97,6.79
			C137.39,91.07,136.22,91.5,135.65,91.9z M89.4,72.9c8.46-0.81,16.92-1.6,25.38-2.44c0.48-0.05,1.2-0.41,1.32-0.79
			c0.5-1.61,0.86-3.18,1.61-4.78c1.04-2.19,0.96-4.91,1.38-7.53c-1.11-0.18-2.05-0.33-3.14-0.51c-0.44,2.65-0.87,5.14-1.27,7.64
			c-0.03,0.21,0,0.46,0.09,0.65c1.19,2.56,0.46,3.96-2.22,4.21c-8.4,0.79-16.81,1.55-25.21,2.37c-3.8,0.37-3.8,0.42-4.41,4.17
			C82.26,80,82.26,80,86.34,80.33c0.05,0,0.11-0.03,0.27-0.08c0.05-0.21,0.2-0.69,0.15-0.71c-0.89-0.4-1.8-0.75-2.85-1.17
			c0.25-1.6,0.52-3.24,0.8-5.01C86.42,73.19,87.91,73.04,89.4,72.9z"/>
		<linearGradient id="SVGID_1_" gradientUnits="userSpaceOnUse" x1="91.4998" y1="124.9998" x2="267.399" y2="124.9998">
			<stop  offset="0" style="stop-color:#00D2E9"/>
			<stop  offset="0.3777" style="stop-color:#001EFF"/>
			<stop  offset="0.6454" style="stop-color:#9E1F63"/>
		</linearGradient>
		<path class="st39" d="M235.27,151.12c-1.92,0.42-3.82,1.03-5.77,1.22c-4.02,0.41-8.07,0.6-12.11,0.87
			c-6.8,0.46-13.05,2.89-19.33,5.27c-3.51,1.33-7.05,2.6-10.64,3.7c-9.48,2.91-18.36,1.5-26.33-4.37
			c-4.23-3.11-8.33-6.46-12.13-10.08c-7.98-7.61-17.46-12.63-27.45-16.93c-12.94-5.56-22.26-14.73-27.25-28.05
			c-1.61-4.3-2.56-8.75-2.78-13.59c0.66,0.05,1.26,0.04,1.85,0.14c13.75,2.27,27.49,4.57,41.24,6.81c1.18,0.19,1.73,0.73,2.25,1.76
			c2.82,5.5,5.44,11.13,8.71,16.34c3.92,6.24,9.43,10.91,16.42,13.63c8.68,3.37,16.66,1.73,24.2-3.32
			c6.74-4.51,12.17-10.27,16.61-17.02c0.29-0.43,0.57-0.87,0.88-1.29c0.91-1.21,2.13-1.43,3.37-0.7c1.3,0.77,1.64,2.07,0.74,3.27
			c-1.58,2.12-3.28,4.18-5.07,6.12c-2.12,2.29-4.54,4.31-6.56,6.68c-1.44,1.69-2.65,3.67-3.53,5.71c-1.31,3.02,1.01,6.26,4.23,5.69
			c2.66-0.46,5.41-1.44,7.65-2.91c2.72-1.78,4.95-4.31,7.38-6.53c1.88-1.71,3.57-3.68,5.65-5.1c1.44-0.98,3.37-1.64,5.11-1.71
			c3.44-0.13,5.28,2.79,4.19,6.08c-0.76,2.3-2.55,3.64-4.49,4.86c-2.34,1.48-4.7,2.95-6.99,4.51c-0.95,0.64-1.79,1.46-2.61,2.28
			c-1.73,1.73-1.89,3.98-0.48,5.79c1.42,1.82,3.64,2.32,5.7,0.94c2.15-1.44,4.13-3.15,6.15-4.78c1.67-1.34,3.24-2.8,4.97-4.05
			c1.98-1.44,4.16-1.19,5.63,0.43c1.42,1.58,1.44,3.93-0.3,5.64c-1.29,1.27-2.89,2.26-4.44,3.24c-1.51,0.95-3.09,1.82-2.98,3.89
			c0.11,2.03,1.55,3.25,3.25,3.94c1.57,0.63,3.29,0.87,4.94,1.29C235.21,150.9,235.24,151.01,235.27,151.12z M207.26,116.09
			c0.46-0.19,0.93-0.35,1.37-0.58c10.89-5.57,19.78-13.53,27.34-23.04c0.42-0.53,0.82-1.16,1.01-1.8c0.4-1.37,0.52-2.84-0.75-3.83
			c-1.29-1.01-2.53-0.26-3.65,0.5c-0.61,0.42-1.23,0.91-1.67,1.5c-1.54,2.08-3.15,4.14-4.48,6.36c-3.49,5.79-7.68,10.98-12.75,15.43
			c-2.1,1.84-4.32,3.54-6.49,5.3C207.2,115.98,207.23,116.03,207.26,116.09z M240.51,149.03c8.47-0.33,16.56-2.3,24.33-5.67
			c0.53-0.23,1.22-0.43,1.47-0.86c0.5-0.88,0.74-1.91,1.09-2.87c-0.91-0.33-1.93-1.09-2.69-0.89c-1.93,0.5-3.89,1.2-5.58,2.25
			c-6.58,4.1-13.64,6.75-21.37,8.05C238.68,149.04,239.6,149.07,240.51,149.03z M244.75,120.34c0.4-0.35,0.29-1.3,0.41-1.97
			c-0.64,0.02-1.3-0.05-1.91,0.09c-0.42,0.09-0.83,0.42-1.15,0.74c-3.26,3.18-6.62,6.22-10.88,8.1
			C236.26,125.97,240.82,123.73,244.75,120.34z"/>
	</g>
</g>
</svg>
