<?xml version="1.0" encoding="utf-8"?>
<!-- Generator: Adobe Illustrator 27.8.1, SVG Export Plug-In . SVG Version: 6.00 Build 0)  -->
<svg version="1.1" xmlns="http://www.w3.org/2000/svg" xmlns:xlink="http://www.w3.org/1999/xlink" x="0px" y="0px"
	 viewBox="0 0 350 230" style="enable-background:new 0 0 350 230;" xml:space="preserve">
<style type="text/css">
	.st0{fill:#DEF9FF;}
	.st1{fill:#FDFFE1;}
	.st2{fill:#ECFFE1;}
	.st3{fill:#F3E1FF;}
	.st4{fill:#E7FFE1;}
	.st5{fill:#FAAF40;}
	.st6{display:none;}
	.st7{display:inline;fill:#A4FCCA;}
	.st8{display:inline;fill:#867EC1;}
	.st9{display:inline;fill:#DFFF88;}
	.st10{display:inline;fill:#B6FFF1;}
	.st11{display:inline;fill:#FCEE8B;}
	.st12{display:inline;fill:#D9F98C;}
	.st13{display:inline;fill:#EDC17C;}
	.st14{display:inline;fill:#67EFDE;}
	.st15{display:inline;fill:#022130;}
	.st16{display:inline;fill:#EDEB98;}
	.st17{display:inline;fill:#FFA6D9;}
	.st18{display:inline;fill:#D6FFA6;}
	.st19{display:inline;fill:#A5F9E8;}
	.st20{display:inline;fill:#D3F2A7;}
	.st21{display:inline;fill:#353535;}
	.st22{fill:#434947;}
	.st23{fill:#FFFFFF;}
	.st24{fill:#00E9E9;}
	.st25{fill:#A06EFF;}
	.st26{fill:#FF5F81;}
	.st27{fill:#192E40;}
	.st28{fill:#FFDD00;}
	.st29{fill:#FF3D9B;}
	.st30{fill:#00BAEB;}
	.st31{fill:#09093C;}
	.st32{fill:#35AF9D;}
	.st33{fill:#00BAFA;}
	.st34{fill:#FFC300;}
	.st35{fill:#064037;}
	.st36{fill:#6D919C;}
	.st37{fill:#67B8FD;}
	.st38{fill:#464758;}
	.st39{fill:url(#SVGID_1_);}
	.st40{fill:none;}
	.st41{fill:#DE3B0F;}
	.st42{fill:#E86317;}
	.st43{fill:#F09C29;}
	.st44{fill:#708D23;}
	.st45{fill:#9BC344;}
	.st46{fill:url(#SVGID_00000034779313896790461060000015792457446343205813_);}
	.st47{fill:url(#SVGID_00000080925677519020931200000004894517999488553887_);}
	.st48{fill:#4EB8FF;}
	.st49{fill:#EC008B;}
	.st50{fill:#F7C211;}
	.st51{fill:#B8E5E7;}
	.st52{fill:#232740;}
	.st53{fill:none;stroke:#232740;stroke-width:4;stroke-linecap:round;stroke-linejoin:round;stroke-miterlimit:10;}
	.st54{fill:#00B4D7;}
	.st55{fill:#FF2C3D;}
	.st56{fill:#FF8B00;}
	.st57{fill:#00B896;}
	.st58{fill:#FFC70E;}
	.st59{fill:#6A44A5;}
	.st60{fill:#232740;stroke:#232740;stroke-width:4;stroke-linecap:round;stroke-linejoin:round;stroke-miterlimit:10;}
	.st61{fill:#05ACED;}
	.st62{fill:#EA008A;}
	.st63{fill:#231F20;}
	.st64{fill:#FDF002;}
	.st65{fill:#BEC938;}
	.st66{fill:#139DD8;}
	.st67{fill:#BD2CAE;}
	.st68{fill:url(#SVGID_00000055687251119584590600000013815915682549758099_);}
	.st69{fill:#BDC938;}
	.st70{fill:#62B0D3;}
	.st71{fill:url(#SVGID_00000023240740833549157790000013242212074568194691_);}
	.st72{fill:#212121;}
	.st73{fill:#FF3927;}
	.st74{fill:#1A8DFF;}
	.st75{fill:#FFD500;}
	.st76{fill:#606060;}
	.st77{fill:#26A6DF;}
	.st78{filter:url(#Adobe_OpacityMaskFilter);}
	.st79{opacity:0.75;mask:url(#SVGID_00000054256315514650169950000001932481343900425872_);}
	.st80{fill:#BDBBB5;}
	.st81{fill:#334CFF;}
	.st82{opacity:0.43;fill:#334CFF;}
	.st83{fill:#DD0572;}
	.st84{fill:#A35202;}
	.st85{fill:#DDC200;}
	.st86{filter:url(#Adobe_OpacityMaskFilter_00000010288989523830958130000005720071407510338975_);}
	.st87{opacity:0.75;mask:url(#SVGID_00000080170580009789983310000007915750297071689403_);}
	.st88{fill:#939393;}
	.st89{filter:url(#Adobe_OpacityMaskFilter_00000089561367089332845990000009758853692966698682_);}
	.st90{opacity:0.75;mask:url(#SVGID_00000007428618730603812300000007475821413384144266_);}
	.st91{fill:#3F3F3F;}
	.st92{fill:#0041D1;}
	.st93{fill:#AD00F8;}
	.st94{fill:#02C8F5;}
	.st95{fill:#00FB22;}
	.st96{fill:#ED0F93;}
	.st97{fill:#FF4E02;}
	.st98{fill:#0E1BD9;}
	.st99{fill:#F6ACCD;}
	.st100{fill:#00B04E;}
	.st101{fill:#FCAA18;}
	.st102{fill:#004B2D;}
	.st103{fill:#A3521B;}
	.st104{fill:#006CB7;}
	.st105{fill:#DE1922;}
	.st106{fill:#3F1113;}
	.st107{fill:#04AD52;}
	.st108{fill:#888B90;}
	.st109{fill:#F1B0CE;}
	.st110{fill:#D91E19;}
	.st111{fill:#02385C;}
	.st112{fill:#B61C7E;}
	.st113{fill:#00BFD2;}
	.st114{fill:#E95EA2;}
	.st115{fill:#054B2F;}
	.st116{fill:#7C1415;}
	.st117{fill:#019245;}
	.st118{fill:#D91819;}
	.st119{fill:#FFF800;}
	.st120{fill:#6B2D16;}
	.st121{fill:#4D33A0;}
	.st122{fill:#0B8D47;}
	.st123{fill:#3B190F;}
	.st124{fill:#69311A;}
	.st125{fill:#9177B4;}
	.st126{fill:#492E8B;}
	.st127{fill:#FF4545;}
	.st128{fill:none;stroke:#6B2D16;stroke-miterlimit:10;}
	.st129{fill:#00482D;}
	.st130{fill:#442C9A;}
	.st131{fill:#92BE4B;}
	.st132{fill:#4B318C;}
	.st133{fill:#781722;}
	.st134{fill:#C4CB10;}
	.st135{fill:#1DB3D5;}
	.st136{fill:#E8303F;}
	.st137{fill:#EC8A16;}
	.st138{fill:none;stroke:#292B41;stroke-width:4;stroke-linecap:round;stroke-linejoin:round;stroke-miterlimit:10;}
	.st139{fill:#292B41;}
	.st140{fill:#222423;}
	.st141{fill:url(#XMLID_00000010294241879312165730000017848069465884504467_);}
	.st142{fill:url(#XMLID_00000075120240837821080200000011697563925068420541_);}
	.st143{fill:url(#XMLID_00000007407037105196795830000010847555371281886349_);}
	.st144{fill:url(#XMLID_00000114056638297838499230000005350783768745067923_);}
	.st145{fill:url(#SVGID_00000161611972187214084120000011973664582371503010_);}
	.st146{fill:url(#SVGID_00000181778608027278926410000008861190182820891582_);}
	.st147{fill:#ED1C24;}
	.st148{fill:url(#SVGID_00000124122509299758774350000008969341140639323282_);}
	.st149{fill:url(#SVGID_00000055673578108951369460000002520379589542612651_);}
	.st150{fill:url(#SVGID_00000181075262833547474570000013362138548741675438_);}
	.st151{fill:#A7A9AC;}
	.st152{fill:#FFC301;}
	.st153{fill:url(#SVGID_00000091705941167855969050000001158787496259110829_);}
	.st154{opacity:0.5;fill:none;}
	.st155{fill:#2B2B2B;}
	.st156{fill:url(#SVGID_00000012453840806717838770000003978170716391532455_);}
	.st157{fill:url(#SVGID_00000078743957765569485760000004596837935684592791_);}
	.st158{fill:url(#SVGID_00000160149958514573173300000000987548621462313142_);}
	.st159{fill:#51B1BF;}
	.st160{fill:#0A0B0D;}
	.st161{fill:#FEF301;}
	.st162{fill:#0093DD;}
	.st163{fill:#7F3F97;}
	.st164{fill:#FAEC20;}
	.st165{fill:#29A9E1;}
	.st166{fill:#EB0C8B;}
	.st167{fill:#424243;}
	.st168{fill:url(#SVGID_00000064344392245491867300000011291958449500150949_);}
	.st169{fill:#F6C217;}
	.st170{fill:#D61477;}
	.st171{fill:#2293D0;}
	.st172{fill:#D9DBDB;}
	.st173{fill:#FFF100;}
	.st174{fill:#04AAF4;}
	.st175{fill:url(#SVGID_00000092453423585640845560000008883726693212635277_);}
	.st176{fill-rule:evenodd;clip-rule:evenodd;fill:url(#SVGID_00000059291298947181448390000011224357142250209215_);}
	.st177{fill-rule:evenodd;clip-rule:evenodd;}
	.st178{fill:#FF3399;}
	.st179{fill:#FFCC00;}
	.st180{fill:#335AFF;}
	.st181{fill:url(#SVGID_00000100372629146663576090000017066282736438810530_);}
	.st182{fill:url(#SVGID_00000133527743782708483990000004816947367117306273_);}
	.st183{fill:url(#SVGID_00000180346839969734047390000001266282414942875824_);}
	.st184{fill:url(#SVGID_00000070083404842181398640000005076613134386040503_);}
	.st185{fill:#FFAB22;}
	.st186{fill:url(#SVGID_00000017512958527542873020000011169231525685007500_);}
	.st187{fill:#0966B1;}
	.st188{fill:url(#XMLID_00000101805948681932974790000013651097717671932322_);}
	.st189{fill:#F79420;}
	.st190{fill:#FFDD0C;}
	.st191{fill:#0AA79C;}
	.st192{fill:#ADD037;}
	.st193{fill:#FBF1D3;}
	.st194{fill:url(#SVGID_00000148654959821179859290000010677344933087186564_);}
	.st195{fill:url(#SVGID_00000139977692892786098190000008158801661850486437_);}
	.st196{fill:url(#SVGID_00000120550720748279649360000000534475158072986254_);}
	.st197{fill:#2394D1;}
	.st198{opacity:0.25;fill:url(#SVGID_00000023255585492509466670000012118942157552866232_);}
	.st199{fill:url(#SVGID_00000057864485714615200540000012837859444316686264_);}
	.st200{fill:url(#SVGID_00000128451702348322785150000002843765906646072715_);}
	.st201{fill:url(#SVGID_00000112628058462494476270000008805463779729709745_);}
	.st202{fill:url(#SVGID_00000127003382706344949030000015331211893905449647_);}
	.st203{opacity:0.2;fill:#231F20;}
	.st204{fill:#2F92D0;}
	.st205{fill:#EB008B;}
	.st206{fill:#221F1F;}
	.st207{fill:#8BC53F;}
	.st208{fill:url(#SVGID_00000119807878436741003970000017854887929736148927_);}
	.st209{fill:#64AD44;}
	.st210{fill:#F8BB15;}
	.st211{fill:#EA3524;}
	.st212{fill:#1495D9;}
	.st213{fill:#00ADEE;}
	.st214{fill:#60B4E5;}
	.st215{fill:#37B34A;}
</style>
<g id="Layer_1">
</g>
<g id="Layer_2">
</g>
<g id="Layer_3">
</g>
<g id="Layer_4">
</g>
<g id="Layer_5">
</g>
<g id="Layer_6">
</g>
<g id="Layer_7">
</g>
<g id="Layer_8">
</g>
<g id="Layer_9">
</g>
<g id="Layer_10">
</g>
<g id="Layer_11">
</g>
<g id="Layer_12">
</g>
<g id="Layer_13">
</g>
<g id="Layer_14">
</g>
<g id="Layer_15">
	<g>
		<path class="st163" d="M213.58,78.92c-4.8,37.96-34.39,69.27-55.56,69.27c-20.32,0-50.61-31.34-55.56-69.27
			c-4.94-37.85,0-40.87,55.56-40.87C213.58,38.05,218.27,41.84,213.58,78.92z"/>
		<path d="M158.02,149.93c-21.63,0-52.3-32.66-57.28-70.78c-2.28-17.48-2.42-27.51,3.14-33.85c7.1-8.09,22.7-8.98,54.14-8.98
			c32.33,0,46.98,1.28,53.96,9.2c5.6,6.36,5.51,16.31,3.32,33.62l0,0C210.33,118.35,179.9,149.93,158.02,149.93z M158.02,39.79
			c-31.52,0-45.64,1.08-51.54,7.8c-4.66,5.31-4.4,15.03-2.3,31.11c2.22,16.98,10.09,34.46,21.62,47.96
			c10.42,12.21,22.77,19.8,32.23,19.8c20.38,0,49.22-31.27,53.84-67.76c2.06-16.28,2.24-25.53-2.48-30.89
			C203.32,40.94,188.64,39.79,158.02,39.79z"/>
		<path class="st193" d="M181.37,57l-1.98,9.24l-3.93,17.34l-0.97,4.65l-0.69,2.49l-0.63,0.61l-0.86-0.38l-0.63,0.24l-7.88-1.76
			l-0.23-0.66l-0.77,0.44l-3.62-0.81l7.33-34.87l4.75,0.19l6.76,1.65l3.24,1.21L181.37,57z M160.03,63.3
			c0.11-0.71-0.01-1.41-0.34-1.97c-0.48-0.81-1.37-1.3-2.23-1.77l-0.2-0.11c-0.49-0.27-1.02-0.56-1.47-0.94
			c0.1,0.72,0.06,1.45,0,2.16l-0.01,0.11c-0.06,0.8-0.12,2.4-0.16,3.42l3.68,0.81C159.68,64.47,159.93,63.88,160.03,63.3z"/>
		<path d="M149.58,67.16c0.75,0.06,1.48-0.18,2.04-0.68C151.17,67.09,150.3,67.38,149.58,67.16z M140.74,50.37
			c0.3,0.59,0.64,1.18,1.15,1.63c0.5,0.45,1.03,0.84,1.52,1.28c0.5,0.44,0.98,0.88,1.45,1.34c0.95,0.91,1.85,1.89,2.7,2.9
			c0.85,1.01,1.64,2.07,2.39,3.16c-0.35-0.56-0.71-1.12-1.09-1.66c-0.39-0.54-0.78-1.07-1.2-1.59c-0.83-1.03-1.73-2.01-2.68-2.94
			c-0.95-0.93-1.98-1.78-3.01-2.6c-1.03-0.84-1.32-2.27-2.31-3.19C140.15,49.18,140.44,49.78,140.74,50.37z M142.31,59.95
			c-0.42-0.89-0.82-1.79-1.28-2.66c-0.45-0.87-0.95-1.73-1.56-2.51c0.55,0.82,1,1.69,1.43,2.57c0.43,0.88,0.84,1.77,1.24,2.67
			c0.41,0.89,0.84,1.77,1.22,2.68c0.39,0.9,0.86,1.77,1.4,2.6c-0.48-0.86-0.91-1.74-1.27-2.65
			C143.14,61.74,142.71,60.85,142.31,59.95z M136.04,59.02l0.57,1.59l1.18,3.16c0.4,1.05,0.81,2.1,1.22,3.14
			c-0.35-1.07-0.72-2.13-1.09-3.19l-1.14-3.17l-0.58-1.58l-0.55-1.59c-0.32-1.07-0.51-2.18-0.7-3.29c0.13,1.11,0.27,2.23,0.57,3.32
			L136.04,59.02z"/>
		<linearGradient id="SVGID_1_" gradientUnits="userSpaceOnUse" x1="174.0081" y1="109.746" x2="250.7441" y2="109.746">
			<stop  offset="0" style="stop-color:#FD0000"/>
			<stop  offset="0.029" style="stop-color:#FD0601"/>
			<stop  offset="0.0665" style="stop-color:#FC1605"/>
			<stop  offset="0.1087" style="stop-color:#FA300A"/>
			<stop  offset="0.1543" style="stop-color:#F85612"/>
			<stop  offset="0.2022" style="stop-color:#F5851B"/>
			<stop  offset="0.2134" style="stop-color:#F4911E"/>
			<stop  offset="0.4032" style="stop-color:#FFF40D"/>
			<stop  offset="0.4347" style="stop-color:#E1E92C"/>
			<stop  offset="0.504" style="stop-color:#93CD7A"/>
			<stop  offset="0.587" style="stop-color:#2EA9E0"/>
			<stop  offset="0.7193" style="stop-color:#0678BE"/>
			<stop  offset="0.7919" style="stop-color:#2A4DA4"/>
			<stop  offset="0.8602" style="stop-color:#462C90"/>
			<stop  offset="0.917" style="stop-color:#571884"/>
			<stop  offset="0.9553" style="stop-color:#5D1180"/>
		</linearGradient>
		<path class="st39" d="M215.06,139.43c-0.36-0.1-0.57-0.47-0.75-0.8c-0.04-0.07-0.07-0.14-0.11-0.21
			c-0.41-0.24-0.73-0.63-0.89-1.08c-0.17-0.5-0.14-1.07,0.1-1.55c0.38-0.76,1.25-1.23,2.1-1.18c0.85,0.05,1.64,0.59,2.06,1.33
			c0.16,0.29,0.27,0.6,0.28,0.93c0.01,0.5-0.23,0.98-0.56,1.35c-0.33,0.37-0.75,0.66-1.17,0.92
			C215.8,139.34,215.42,139.54,215.06,139.43z M206.51,121.49c0.57-0.38,0.86-1.05,1.1-1.68c0.3-0.78,0.56-1.59,0.63-2.42
			c0.06-0.67,0.01-1.46-0.33-2.06c-0.13,0.67-0.21,1.29-0.56,1.91c-0.41,0.71-0.99,1.31-1.6,1.86c-0.32,0.28-0.65,0.55-0.87,0.9
			c-0.23,0.35-0.33,0.82-0.14,1.2C205.03,121.8,205.94,121.87,206.51,121.49z M200.3,113.98c-0.07,0.36,0.11,0.77,0.44,0.93
			c0.33,0.16,0.79,0.04,0.95-0.3c0.12-0.25,0.07-0.55-0.07-0.79c-0.14-0.24-0.35-0.43-0.55-0.61l-0.08-0.05
			C200.64,113.32,200.36,113.62,200.3,113.98z M194.42,117.91c1.24-0.9,0.06-2.67-1.28-2.61c-1.69,0.07-1.17,2.73,0.1,3.03
			C193.66,118.43,194.07,118.16,194.42,117.91z M214.06,151.75c0.2-0.31,0.29-0.68,0.38-1.04c0.27-1.09,0.55-2.17,0.82-3.26
			c0.08-0.33,0.4-0.86-0.02-0.94c-0.29-0.06-0.76,0.44-0.87,0.66c-0.22,0.32-0.37,0.68-0.58,1.01c-0.32,0.51-0.77,0.92-1.14,1.4
			c-0.37,0.47-0.68,1.05-0.63,1.65c0.05,0.6,0.56,1.19,1.16,1.14C213.55,152.32,213.87,152.06,214.06,151.75z M185.14,96.18
			c0.25-0.3,0.45-0.65,0.52-1.04c0.08-0.38,0.02-0.8-0.18-1.14c-0.18-0.3-0.44-0.43-0.75-0.57c-0.24-0.11-0.41-0.35-0.69-0.38
			c-0.23-0.02-0.46,0.08-0.66,0.21c-0.49,0.34-0.84,0.88-0.93,1.47c-0.04,0.26-0.03,0.53,0.09,0.76c0.09,0.18,0.25,0.32,0.4,0.46
			c0.24,0.21,0.48,0.42,0.76,0.56c0.28,0.14,0.62,0.19,0.92,0.08C184.84,96.5,185,96.34,185.14,96.18z M205.24,107.79
			c-0.57-0.85-2.03-0.88-2.17,0.36c-0.04,0.38,0.07,0.76,0.22,1.12c0.22,0.51,0.59,1.04,1.14,1.11
			C205.91,110.56,205.77,108.58,205.24,107.79z M219.15,149.93c0.18,0.57,0.99,1,1.56,0.78c0.36-0.14,0.63-0.47,0.77-0.83
			c0.19-0.48,0.16-1.05-0.12-1.48c-0.28-0.43-0.83-0.69-1.33-0.57c-0.42,0.1-0.75,0.45-0.89,0.85
			C219,149.07,219.02,149.52,219.15,149.93z M180.37,91.03c0.07-0.15,0.12-0.32,0.1-0.49c-0.02-0.17-0.14-0.33-0.3-0.36
			c-0.08-0.02-0.17,0-0.26-0.02c-0.13-0.03-0.23-0.14-0.31-0.26c-0.17-0.25-0.3-0.52-0.37-0.81c-0.04-0.15-0.08-0.32-0.2-0.41
			c-0.64-0.5-0.9,0.94-0.84,1.33c0.1,0.65,0.59,1.83,1.43,1.71C179.97,91.67,180.23,91.35,180.37,91.03z M228.03,162.14
			c0.17-0.25,0.21-0.59,0.08-0.87c-0.13-0.27-0.43-0.46-0.73-0.46c-0.3,0.01-0.6,0.22-0.69,0.51c-0.06,0.19-0.03,0.4,0.07,0.57
			c0,0.26,0.2,0.51,0.45,0.58C227.51,162.55,227.85,162.4,228.03,162.14z M225.79,159.6c0.85-0.43,1.31-1.35,1.91-2.09
			c0.6-0.74,1.62-1.37,2.47-0.93c0.94,0.48,0.92,1.79,0.85,2.84c-0.07,1.05,0.21,2.42,1.26,2.57c0.64,0.09,1.25-0.41,1.5-1.01
			c0.25-0.6,0.23-1.27,0.21-1.92c0.15,0.64,1.24,0.56,1.49-0.05c0.25-0.61-0.14-1.31-0.66-1.71c-0.52-0.4-1.16-0.6-1.72-0.95
			c-0.56-0.34-1.06-0.92-1.01-1.57c0.05-0.62,0.64-1.11,1.25-1.2c0.62-0.09,1.24,0.16,1.74,0.54c0.93,0.7,1.48,1.78,2.13,2.75
			c0.74,1.12,1.8,2.21,3.23,2.1c0.98-0.08,1.78-0.9,1.6-1.86c-0.21-1.09-1.45-1.39-2.45-1.7c-2.21-0.69-4.13-2.25-5.25-4.28
			c-1.07-1.94-1.39-4.28-0.9-6.44c0.09,0.29,0.63,0.52,0.92,0.25c0.37-0.35,0.41-0.99,0.19-1.45c-2.1-4.44,0.98-3.43-1.62-7.91
			c-1.59-2.74-1.99-5.93-2.19-9.24c-0.14-2.31-0.81-4.47-2.45-6.48c-2.56-3.15-3.77-7.35-6.64-10.21c-1.51-1.5-1.2-2.78-2.43-4.35
			l0,0c-0.26-0.42-0.59-0.82-0.81-1.26c-0.38-0.73-0.36-1.84,0.4-2.16c0.79-0.34,1.6,0.46,1.97,1.24c0.47,0.99,0.72,2.11,1.43,2.94
			c0.72,0.83,2.2,1.15,2.85,0.27c0.47-0.64,0.26-1.58-0.23-2.2c-0.49-0.63-1.19-1.04-1.81-1.53c-2.64-2.11-3.63-5.61-4.47-8.88
			c-0.09-0.33-0.15-0.75,0.12-0.97c0.32-0.26,0.79,0.02,1.09,0.3c1.43,1.33,2.57,2.98,3.3,4.79c0.34,0.84,0.63,1.77,1.35,2.34
			c0.72,0.56,2.03,0.44,2.27-0.44c1.12,1.57,1.55,3.6,1.18,5.49c-0.18,0.92-0.55,1.84-0.42,2.77c0.13,0.93,1.08,1.84,1.95,1.48
			c0.74-0.3,0.93-1.26,0.89-2.06c-0.04-0.8-0.2-1.67,0.23-2.35c0.84,1.45,1.7,2.94,2.04,4.58c0.34,1.65,0.07,3.51-1.1,4.72
			c-0.75,0.78-1.94,1.52-1.7,2.57c0.18,0.81,1.24,1.17,2,0.85c0.76-0.32,1.22-1.12,1.42-1.93c0.2-0.8,0.18-1.64,0.3-2.46
			c0.11-0.82,0.38-1.67,1-2.21c0.48,0.71,1.02,1.46,1.82,1.74c0.81,0.29,1.92-0.19,1.93-1.04c0.01-0.67-0.61-1.16-1.09-1.62
			c-2.35-2.24-2.51-6-4.55-8.53c2.23,1.71,4.45,3.43,6.68,5.14c0.75,0.58,1.56,1.18,2.5,1.25c1.5,0.11,2.88-1.45,2.57-2.93
			c-0.11-0.55-0.45-1.08-0.98-1.27c-0.86-0.31-1.72,0.38-2.61,0.6c-1.62,0.4-3.17-0.78-4.41-1.91c-5.73-5.25-11.2-11.24-18.5-13.93
			c-1.03-0.38-2.09-0.69-3.02-1.27c-0.53-0.33-1.04-0.73-1.37-1.26c-0.88-1.42-0.8-2.26-0.52-2.47c0.42-0.32,1.02-0.11,1.47,0.16
			c0.61,0.36,1.16,0.83,1.84,1.04c0.67,0.21,1.53,0.07,1.88-0.54c0.28-0.5,0.12-1.18-0.28-1.6c-0.4-0.42-0.98-0.62-1.55-0.7
			c-0.57-0.08-1.15-0.05-1.73-0.08c-0.78-0.04-1.54-0.2-2.28-0.44c-1.33-0.42-2.72-0.86-3.79-1.74c-1.76-1.46-2.58-1.61-4.78-2.51
			c-0.49-0.2-0.81-0.69-1.04-1.16c-0.23-0.47-0.24-1.08,0.08-1.49c0.28-0.35,0.76-0.51,1.21-0.48c1.09,0.05,1.92,0.96,2.72,1.71
			c0.8,0.75,1.93,1.45,2.93,1c0.51-0.23,0.88-0.76,0.91-1.32c0.04-0.56-0.26-1.13-0.74-1.42c-0.5-0.31-1.13-0.3-1.69-0.48
			s-1.11-0.72-0.93-1.28c0.2-0.6,1.02-0.67,1.63-0.52c0.91,0.22,1.74,0.68,2.62,1.01c0.87,0.34,1.84,0.56,2.74,0.3
			c0.9-0.26,1.68-1.12,1.57-2.05c-0.13-1.11-1.41-1.75-2.52-1.68c-1.11,0.07-2.12,0.64-3.17,1.02c-0.97,0.36-1.99,0.56-3.01,0.61
			c-1.83,0.09-3.88-0.27-5.45-1.25c-0.65-0.4-1.35-1.22-0.74-1.96c0.57-0.7,1.89-0.53,2.69-0.74c0.91-0.24,1.81-0.78,2.16-1.66
			c0.34-0.88-0.14-2.08-1.08-2.2c-0.97-0.13-1.69,0.83-2.36,1.55c-1.3,1.42-3.16,2.23-5.05,2.61c-1.89,0.38-3.83,0.36-5.75,0.34
			c-0.52-0.01-1.06-0.01-1.55-0.21c-0.4-0.16-0.77-0.48-0.91-0.88c-0.02-0.29,0.01-0.58,0.14-0.86c0.37-0.83,1.34-1.19,2.23-1.38
			c0.89-0.19,1.86-0.35,2.49-1.01c0.51-0.54,0.68-1.38,0.42-2.07c-0.26-0.7-0.94-1.22-1.68-1.29c-0.91-0.09-1.77,0.46-2.41,1.12
			c-0.63,0.66-1.14,1.44-1.77,2.09c-3.27,3.36-7.61-0.61-7.02-6.24c0,0.01-2.94,13.6-3.77,17.38c-0.99,4.47-3.49,15.88-3.59,15.89
			c0.02,0.07,4.72-7.04,9.29-0.88c0.7,0.94,1.87,1.48,2.82,1.45c0.8-0.02,1.26,0.67,2.33,1.06c1.09,0.39,2.12,0.96,3.03,1.68
			c0.91,0.72,1.64,1.75,1.72,2.9c0.04,0.61-0.09,1.28,0.25,1.79c0.26,0.4,0.8,0.59,1.25,0.45c0.46-0.13,0.8-0.59,0.8-1.06
			c0.02-1.2-1.71-1.72-1.98-2.89c-0.11-0.47,0.05-0.98-0.11-1.43c-0.13-0.37-0.44-0.64-0.74-0.89c-0.64-0.54-1.28-1.08-1.93-1.63
			c-0.44-0.37-0.94-0.78-1.02-1.35c-0.15-1.05,1.01-1.22,2.33-0.34c2.64,1.78,2.94,0.87,4.33,1.51c0.61,0.28,1.16,0.58,1.67,0.9
			c1.28,0.8,2.11,2.24,2.01,3.76c0,0.01,0,0.02,0,0.03c-0.04,0.58-0.15,1.17-0.06,1.74c0.13,0.88,0.68,0.81,0.45,1.72
			c-0.06,0.24,0.09,0.68-0.15,0.74c-0.49,0.1-0.22,0.48-0.45,0.56c-0.23,0.08-0.51,0.02-0.7,0.17c-0.22,0.18-0.13,0.56,0.1,0.74
			c0.22,0.18,0.52,0.21,0.8,0.26c0.28,0.05,0.58,0.13,0.75,0.36c0.17,0.22,0.16,0.53,0.14,0.81c-0.01,0.28-0.04,0.58-0.23,0.78
			c-0.12,0.13-0.3,0.19-0.44,0.3c-0.28,0.21-0.42,0.64-0.24,0.95c0.18,0.31,0.67,0.39,0.9,0.12c0.07-0.08,0.14-0.2,0.24-0.17
			c0.05,0.01,0.09,0.07,0.11,0.12c0.23,0.47,0.08,1.05-0.18,1.5c-0.26,0.46-0.62,0.86-0.83,1.34c-0.21,0.48-0.24,1.1,0.12,1.48
			c0.26,0.28,0.71,0.36,1.05,0.2c0.31-0.14,0.52-0.46,0.59-0.79c0.06-0.34-0.01-0.69-0.15-1c-0.14-0.31-0.37-0.63-0.26-0.95
			c0.08-0.25,0.33-0.4,0.46-0.62c0.12-0.2,0.15-0.44,0.23-0.66c0.07-0.22,0.22-0.45,0.46-0.49c0.18-0.03,0.36,0.06,0.55,0.09
			c0.22,0.04,0.46-0.08,0.41-0.32c-0.04-0.22-0.27-0.34-0.47-0.38c-0.24-0.06-0.51-0.08-0.66-0.28c-0.19-0.26-0.02-0.62,0.01-0.94
			c0.04-0.38-0.07-0.77-0.23-1.12c-0.7-1.57,0.65-4.52,1.67-3.26c1.67,2.79,2.9,5.82,4.12,8.84c2.24,5.56,4.51,11.55,3.22,17.4
			c-0.47,2.14-1.41,4.15-2.34,6.14c-0.41,0.88-0.83,1.78-1.51,2.48c-0.89,0.92-2.17,1.43-2.97,2.44c-0.58,0.74-0.86,1.73-0.65,2.64
			c0.21,0.91,0.92,1.72,1.83,1.95c0.9,0.23,1.88-0.11,2.6-0.71c0.77-0.64,1.28-1.53,1.72-2.43c1.18-2.46,1.9-5.1,2.24-7.81
			c0.48-3.77,1.17-7.55,1.22-11.36c0.05-3.74-0.51-7.49-1.66-11.05c-0.13-0.41-0.2-0.98,0.19-1.15c0.42-0.18,0.77,0.33,1,0.73
			c0.6,1.05,1.58,1.83,2.41,2.72c3.48,3.76,3.91,9.98,1,14.19c-0.44,0.64-0.96,1.27-1.08,2.03c-0.25,1.68,1.88,3.54,3.79,1.39
			c0.04-0.05,0.08-0.1,0.11-0.16c0.52-1.02,0.12-2.24-0.12-3.36c-0.38-1.79-0.31-3.67,0.19-5.43c0.26-0.92,1.75-1.42,2.57-0.29
			c0.15,0.22,0.29,0.44,0.43,0.66c1.2,1.86,2.27,3.92,2.32,6.14c0.03,1.66-0.51,3.3-0.4,4.95c0.12,1.83,1.04,3.5,1.69,5.22
			c0.65,1.72,1.03,3.73,0.13,5.33c-0.6,1.07-1.69,1.8-2.36,2.83c-0.67,1.03-0.68,2.73,0.46,3.19c0.67,0.27,1.46-0.03,1.97-0.54
			c0.51-0.51,0.79-1.2,1.07-1.87c0.56,2.24-0.32,4.76-2.13,6.18c-0.62,0.48-1.33,0.84-1.9,1.37c-0.57,0.53-1,1.32-0.81,2.08
			c0.18,0.76,1.2,1.28,1.8,0.78c0.45-0.37,0.46-1.06,0.78-1.55c0.53-0.81,1.87-0.8,2.51-0.08c0.65,0.72,0.61,1.89,0.07,2.7
			c-0.54,0.81-1.47,1.28-2.42,1.45c-0.5,0.09-1.04,0.12-1.47,0.4c-0.76,0.48-0.9,1.65-0.34,2.35
			C223.92,159.83,225,160.01,225.79,159.6z M247.57,102.31c-0.05,1.08,1.01,1.87,2.04,1.61c0.42-0.11,0.78-0.41,0.98-0.8
			c0.28-0.56,0.19-1.29-0.23-1.77c-0.41-0.47-1.12-0.67-1.72-0.46C248.04,101.09,247.6,101.68,247.57,102.31z M233.95,91.14
			c-0.64,0-1.53,0.44-0.97,1.13c0.2,0.25,0.4,0.5,0.65,0.69c0.25,0.2,0.55,0.34,0.87,0.34c0.27,0,0.52-0.1,0.76-0.22
			c0.2-0.1,0.39-0.21,0.54-0.37c0.15-0.16,0.25-0.39,0.22-0.6c-0.03-0.23-0.2-0.42-0.39-0.55c-0.2-0.12-0.43-0.18-0.65-0.24
			C234.63,91.23,234.29,91.14,233.95,91.14z M228.71,90.74c0.44-0.16,0.8-0.65,0.64-1.09c-0.12-0.33-0.48-0.51-0.83-0.54
			c-0.35-0.03-0.69,0.06-1.03,0.13c-0.72,0.15-1.47,0.19-2.2,0.17c-0.67-0.02-2.12-0.16-2.12-0.16s1.23,0.67,1.71,0.82
			c0.81,0.25,1.63,0.46,2.45,0.64C227.78,90.81,228.27,90.9,228.71,90.74z M235.3,146.58c0.28,1.32,1.91,2.74,2.96,3.52
			c0.4,0.3,0.86,0.58,1.36,0.61c0.5,0.03,1.06-0.25,1.17-0.75c0.1-0.46-0.21-0.92-0.61-1.17c-0.4-0.24-0.87-0.32-1.33-0.44
			C237.47,148.03,236.51,147.24,235.3,146.58z M234.02,128.57c-0.22-0.22-0.43-0.45-0.62-0.69c-0.17-0.21-0.32-0.54-0.54-0.68
			c0.15,0.65,0.53,1.31,0.76,1.95c0.23,0.65,0.46,1.31,0.71,1.95c0.52,1.35,1.16,2.68,2.14,3.74c0.3,0.32,0.63,0.62,1.04,0.79
			c0.4,0.17,0.88,0.2,1.27,0c0.6-0.32,0.82-1.12,0.65-1.78c-0.17-0.66-0.64-1.2-1.13-1.67c-0.9-0.87-1.92-1.6-2.89-2.39
			C234.92,129.41,234.45,129.01,234.02,128.57z M239.43,117.31c-0.71,0.52-0.34,1.57-0.05,2.21c0.22,0.48,0.5,1.01,1,1.19
			c0.4,0.14,0.87,0,1.17-0.3c0.3-0.3,0.44-0.74,0.41-1.17c-0.02-0.42-0.19-0.83-0.44-1.18C241.14,117.49,240.12,116.8,239.43,117.31
			z M227.67,69.42c0.3-0.19,0.57-0.45,0.63-0.8c0.07-0.39-0.16-0.79-0.51-0.97c-0.35-0.18-0.79-0.15-1.13,0.04
			c-0.2,0.1-0.37,0.25-0.58,0.33c-0.15,0.05-0.32,0.07-0.45,0.16c-0.21,0.14-0.28,0.43-0.21,0.67c0.15,0.53,0.77,0.91,1.3,0.89
			C227.06,69.73,227.39,69.6,227.67,69.42z M218.57,75.72c-0.5,0.49-0.82,1.31-0.17,2.23c0.14,0.2,0.36,0.31,0.58,0.42
			c0.62,0.29,1.39,0.36,1.96-0.02c0.49-0.33,0.74-0.97,0.64-1.55c-0.1-0.58-0.52-1.09-1.05-1.34
			C219.9,75.15,219.08,75.24,218.57,75.72z M191.74,108.5c0.24-0.64-0.12-1.34-0.53-1.89c-0.41-0.54-0.91-1.07-1.02-1.75
			c-0.2-1.31,1.15-2.36,1.34-3.67c0.16-1.08-0.49-2.09-1.06-3.02c-0.44-0.72-0.57-2.25-1.15-2.73c-0.3,0.49-0.22,1.2-0.07,1.73
			c0.22,0.78,0.65,1.48,0.83,2.27c0.52,2.36-1.31,4.61-1.5,7.02c-0.07,0.91,0.14,1.91,0.86,2.48
			C190.15,109.51,191.42,109.36,191.74,108.5z M247.99,134.58c-0.23,0.2-0.46,0.41-0.61,0.68c-0.32,0.59-0.12,1.41,0.43,1.79
			c1.7,1.16,2.61-1.41,1.45-2.52c-0.16-0.15-0.36-0.28-0.58-0.28C248.42,134.24,248.19,134.41,247.99,134.58z M199.43,96.38
			c0.03-0.11,0.04-0.23-0.01-0.33c-0.06-0.12-0.19-0.18-0.32-0.23c-0.15-0.06-0.3-0.11-0.45-0.11c-0.34,0-0.66,0.29-0.7,0.63
			C197.84,97.38,199.22,97.17,199.43,96.38z M220.13,68.97c0.89-0.5,1.44-1.6,1.2-2.59c-0.18-0.76-0.8-1.39-1.54-1.62
			c-0.74-0.24-1.59-0.08-2.23,0.37c-0.37,0.26-0.67,0.62-0.84,1.04c-0.18,0.42-0.21,0.89-0.11,1.34c0.13,0.58,0.53,1.36,1.11,1.59
			C218.48,69.39,219.4,69.37,220.13,68.97z"/>
		<path d="M178.01,55.35C178.01,55.35,178.01,55.35,178.01,55.35C178.01,55.35,178.02,55.35,178.01,55.35
			C178.02,55.36,178.02,55.36,178.01,55.35C178.01,55.35,178.01,55.35,178.01,55.35z M162.01,89.62c0.74,0.13,1.25-0.09,1.55-0.87
			c0,0,0,0,0,0C163.26,89.53,162.75,89.75,162.01,89.62z M163.57,88.75c-0.03,0.16-0.05,0.31-0.08,0.45
			C163.51,89.06,163.54,88.9,163.57,88.75C163.57,88.75,163.57,88.75,163.57,88.75z M163.59,88.72c-0.01,0.01-0.02,0.01-0.02,0.02
			c0,0,0,0,0,0C163.58,88.74,163.58,88.73,163.59,88.72z M164.11,88.42L164.11,88.42c-0.01,0-0.02,0.01-0.03,0.01
			C164.09,88.43,164.1,88.42,164.11,88.42L164.11,88.42z M164.17,88.41c0.07-0.01,0.15-0.02,0.23-0.02
			C164.32,88.39,164.25,88.39,164.17,88.41L164.17,88.41L164.17,88.41z M171.25,53.7c-0.03-0.02-0.06-0.04-0.09-0.06
			C171.19,53.65,171.22,53.67,171.25,53.7C171.25,53.7,171.25,53.7,171.25,53.7z M163.56,88.74c-0.26-0.06-0.51-0.12-0.77-0.18
			C163.05,88.62,163.3,88.68,163.56,88.74C163.56,88.74,163.56,88.74,163.56,88.74z M163.56,88.75
			C163.56,88.75,163.56,88.75,163.56,88.75C163.57,88.75,163.57,88.75,163.56,88.75C163.57,88.75,163.57,88.75,163.56,88.75
			C163.57,88.75,163.57,88.75,163.56,88.75c0.01-0.01,0.01-0.02,0.01-0.03c0,0,0-0.01,0-0.01
			C163.57,88.72,163.57,88.73,163.56,88.75C163.56,88.74,163.56,88.74,163.56,88.75C163.56,88.75,163.56,88.75,163.56,88.75z
			 M171.88,55.44c1.29,0.35,2.57,0.71,3.86,1.07c0.78,0.22,1.92-0.36,2.27-1.16c0,0,0,0,0,0c-0.14-0.17-0.26-0.43-0.41-0.57
			c-0.05-0.05-0.1-0.08-0.16-0.1c-1.77-0.43-3.56-0.81-5.35-1.17c-0.06-0.01-0.13-0.01-0.19,0c-0.08,0.01-0.16,0.04-0.24,0.06
			c-0.13,0.04-0.28,0.09-0.41,0.12c-0.03,0.58-0.03,1.16-0.06,1.74C171.47,55.43,171.69,55.39,171.88,55.44z M178.59,56.78
			c0.13-0.04,0.26-0.07,0.39-0.1c0.06-0.02,0.13-0.03,0.19-0.05c0.68-0.15,1.53-0.06,2.2,0.38l-0.95,4.06l-0.95,4.16l-1.86,8.33
			l-1.8,8.34c-0.59,2.78-1.18,5.57-1.74,8.36c0.66-2.77,1.29-5.54,1.92-8.32l1.86-8.33l1.8-8.34l0.88-4.17l0.84-4.08
			c0.03,0.02,0.06,0.03,0.08,0.05c0.13-0.43,0.03-0.87,0.04-1.09c0-0.03,0-0.06,0-0.08c0-0.01,0-0.03,0-0.04
			c-0.01-0.06-0.02-0.12-0.04-0.17c0,0,0,0,0,0c-0.07-0.14-0.23-0.23-0.5-0.3c-0.12-0.03-0.27-0.06-0.44-0.09
			c-0.08-0.01-0.16-0.03-0.24-0.04c-0.44-0.08-0.87-0.19-1.29-0.32c-0.43-0.13-0.77-0.08-0.94,0.36c-0.01,0.02-0.03,0.05-0.04,0.08
			c0.05,0.5,0.12,0.98,0.18,1.54C178.32,56.85,178.46,56.81,178.59,56.78z M168.02,61.35c0.19,0.3,0.59,0.39,0.89,0.2
			c0.3-0.19,0.39-0.59,0.2-0.89c-0.19-0.3-0.59-0.39-0.89-0.2C167.92,60.65,167.83,61.05,168.02,61.35z M108.4,62.44
			c0,0,1.06,0.14,0.86,0.09c-0.2-0.04-4.43-2.39-4.5-2.37c1.09,1.22,4.42,3.4,6.3,4.15C110.77,63.43,109.79,63.01,108.4,62.44z
			 M169.11,91.09c0.31,0.03,0.58-0.01,0.81-0.15c0,0,0,0,0,0C169.69,91.07,169.42,91.12,169.11,91.09z M158.31,88.8
			c-0.04-0.01-0.07-0.03-0.11-0.05c-0.08-0.04-0.14-0.09-0.2-0.16c-0.07-0.09-0.13-0.19-0.15-0.28c-0.01-0.05-0.02-0.11-0.03-0.17
			c-0.08-0.65,0.29-1.66,0.29-2.46c0.03-4.54-0.39-10.61-7.95-13.16c-3.33-1.12-7.77-1.97-11.04-2.39
			c-4.67-0.6-9.45-1.35-14.08-2.16c-3.24-0.56-6.43-1.42-9.62-2.23c-1.48-0.38-2.91-0.96-4.36-1.45c0,0,0.52,0.07,0.14-0.27
			c-0.23-0.2-1.09-1.08-0.74-0.96l2.55,0.95c2.28,0.71-0.31-0.4-0.49-0.47c-1.38-0.58-2.62-1.03-4.11-1.82
			c-1.28-0.68-2.63-1.18-3.77-2.04c-1.34-1.01-1.3-3.06,0.36-4.02c1.94-1.12,4.07-1.27,6.22-1.36c6.29-0.26,12.29,1.25,18.24,2.99
			c5.57,1.62,11.06,3.5,16.6,5.21c2.13,0.66,4.29,1.32,6.48,1.69c2.11,0.35,4.23-0.14,6.18-1c1.83-0.8,2.94-2.42,4.05-3.99
			c1.46-2.05,2.03-3.25,2.44-5.72c0.1-0.61,0.67-0.86,1.45-0.74c1.6,0.25,2.59,0.29,3.83,0.55c0.18,0.02,0.3,0.07,0.41,0.13
			c0.09,0.06,0.17,0.12,0.27,0.19c0.03,0.02,0.06,0.04,0.09,0.06c-0.11,0.11-0.22,0.22-0.33,0.33c-0.04,0.04-0.08,0.08-0.12,0.12
			c-0.12,0.12-0.25,0.23-0.38,0.33c-0.39,0.31-0.84,0.52-1.46,0.45c-2.05-0.22-2.02-0.19-2.46,1.79c-1.48,6.77-2.98,13.53-4.47,20.3
			c-0.7,3.17-1.39,6.33-2.07,9.5c-0.05,0.24-0.07,0.5-0.12,0.88c1,0.2,1.95,0.39,3.02,0.59c0.24-1.19,0.8-3.82,1.4-6.64
			c-0.28,0.09-0.59-0.01-0.75-0.27c-0.19-0.3-0.1-0.7,0.2-0.89c0.25-0.16,0.57-0.12,0.78,0.07c0.86-4.03,1.73-8.07,1.83-8.47
			c0.09,0.01-0.67,2.65-0.25,2.31c0.49-2.26,0.05,0.45,0.01,0.66c-0.41,2.14-0.83,4.28-1.24,6.42c-0.4,2.07-0.8,4.14-1.22,6.21
			c-0.05,0.23-0.19,0.44-0.33,0.64c-0.14,0.19-0.33,0.35-0.49,0.52c0.26,0.06,0.51,0.12,0.77,0.19c-0.3,0.79-0.81,1.01-1.55,0.87
			c-0.05-0.01-0.1-0.02-0.15-0.03c-0.06-0.01-0.11-0.03-0.17-0.04C160.58,89.23,159.43,89.08,158.31,88.8z M114.92,59.25
			c0.25,0.4,0.27,0.89,0.08,1.29c0.38-0.47,0.44-1.14,0.1-1.67c-0.42-0.67-1.31-0.88-1.99-0.46c-0.44,0.27-0.68,0.75-0.67,1.23
			c0.08-0.33,0.29-0.63,0.6-0.82C113.68,58.42,114.52,58.62,114.92,59.25z M118.75,65.59c0.07,0,0.14,0,0.19-0.04
			c0.06-0.06,0.14-0.22-0.3-0.28c-0.64-0.1-1.27-0.27-1.9-0.45c-0.34-0.1-1.49-0.51-1.37-0.31c0.24,0.39,1.16,0.59,1.58,0.73
			C117.53,65.43,118.14,65.55,118.75,65.59z M120.15,65.73c-0.3-0.15-0.67,0.04-0.35,0.16c0.06,0.02,0.13,0.02,0.2,0.02
			c0.12,0,0.24,0,0.36,0c0.07,0,0.16-0.02,0.16-0.09c0-0.05-0.05-0.08-0.09-0.1C120.32,65.67,120.25,65.78,120.15,65.73z
			 M155.1,74.77c-0.11-0.15-0.32-0.23-0.44-0.37c-0.12-0.13-0.19-0.3-0.29-0.45c-0.08-0.12-0.16-0.21-0.27-0.28
			c-0.07-0.05-0.14-0.06-0.2-0.13c-0.05-0.06-0.03-0.18-0.09-0.23c-0.07-0.05-0.26-0.01-0.37-0.06c-0.07-0.03-0.17-0.1-0.21-0.17
			c-0.1-0.15,0.03-0.23-0.01-0.33c-0.07-0.2-0.26-0.02-0.39-0.06c-0.14-0.05-0.23-0.26-0.29-0.38c-0.11-0.22-0.1-0.31-0.36-0.36
			c-0.22-0.04-0.43-0.03-0.62,0.12c0.05,0.05,0.04,0.12,0.07,0.17c-0.38,0.16-0.64-0.2-0.92-0.37c-0.19-0.12-0.27-0.06-0.47-0.04
			c-0.15,0.01-0.31-0.14-0.41-0.02c0.05,0.15,0.2,0.12,0.32,0.17c0.09,0.04,0.17,0.12,0.27,0.16c0.22,0.09,0.41,0.13,0.61,0.29
			c0.25,0.19,0.53,0.13,0.81,0.29c0.24,0.13,0.45,0.28,0.7,0.4c0.27,0.13,0.46,0.35,0.77,0.39c0.19,0.21,0.49,0.37,0.71,0.52
			c0.12,0.08,0.24,0.17,0.34,0.27c0.09,0.09,0.18,0.17,0.28,0.26C154.62,74.49,154.95,74.87,155.1,74.77z M156.48,76.39
			c0.12-0.01,0.15-0.3,0.15-0.38c-0.02-0.2-0.19-0.49-0.33-0.66c-0.09-0.1-0.19-0.16-0.28-0.25c-0.1-0.09-0.18-0.28-0.34-0.23
			c-0.43,0.13,0.13,0.49,0.24,0.6c0.2,0.2,0.31,0.5,0.46,0.74C156.31,76.16,156.4,76.39,156.48,76.39z M173.31,89.83
			c-0.95,0.5-1.32,1.11-0.93,1.93c0.78-0.03,1.31-0.47,1.7-1.5l0.41-2.03c-0.63,2-0.79,2.31-0.85,2.4c-0.21,0.32-0.3,0.25-0.44,0.36
			C173.24,90.56,173.26,90.3,173.31,89.83z M174.58,82.4c-0.05,0.26-0.11,0.53-0.16,0.79c0.06-0.27,0.12-0.53,0.18-0.8
			C174.59,82.39,174.58,82.39,174.58,82.4z M173.97,85.35c0.15-0.72,0.29-1.44,0.44-2.16c-0.16,0.72-0.32,1.43-0.48,2.15
			C173.95,85.34,173.96,85.35,173.97,85.35z M163.49,89.2c-0.01,0.03-0.01,0.06-0.02,0.09c-0.02,0.12-0.04,0.24-0.06,0.33
			c1.78,0.46,3.54,0.9,5.3,1.39c0.05,0.01,0.1,0.03,0.14,0.04c0.09,0.02,0.17,0.03,0.25,0.04c0.31,0.03,0.58-0.01,0.81-0.15
			c0,0,0,0,0,0c0.09,0.15,0.22,0.27,0.38,0.34c0.06,0.03,0.13,0.06,0.19,0.07l1.63,0.38l0.35-1.54l-0.76-0.17l6.83-30.65l-0.17-0.04
			l-6.83,30.65l-1.4-0.32c1-1.9,3.05-12.03,2.58-13.28c-1.02,4.49-1.98,8.75-2.97,13.12c-1.65-0.34-3.28-0.64-4.89-1.04
			c-0.07-0.02-0.13-0.03-0.2-0.04c-0.09-0.02-0.17-0.02-0.25-0.03c0,0,0,0,0,0c0,0-0.01,0-0.01,0c0,0,0,0,0,0c0,0,0,0,0,0
			c-0.08,0-0.16,0-0.23,0.02l0,0l0,0l2.73-12.28c0.27-1.18,3.25-10.28,2.49-11.11l1.63-7.33l-0.06-0.01l-6.86,30.75l0,0l0,0
			c-0.01,0-0.02,0.01-0.03,0.01c-0.08,0.02-0.16,0.05-0.24,0.1c0,0-0.01,0-0.01,0c0,0-0.01,0.01-0.01,0.01
			c-0.04,0.02-0.07,0.05-0.1,0.07c-0.01,0-0.01,0.01-0.02,0.01c-0.03,0.03-0.07,0.06-0.1,0.1c-0.01,0.01-0.02,0.01-0.02,0.02
			C163.54,88.9,163.51,89.06,163.49,89.2z M115,60.55c0.38-0.47,0.44-1.14,0.1-1.67c-0.42-0.67-1.31-0.88-1.99-0.46
			c-0.44,0.27-0.68,0.75-0.67,1.23c0.08-0.33,0.29-0.63,0.6-0.82c0.64-0.4,1.48-0.21,1.88,0.43C115.17,59.66,115.18,60.15,115,60.55
			z"/>
		<path class="st193" d="M155.65,74.67c-0.48-4.61-0.48-9.51-0.14-14.13c0,0-0.07-1.94-0.18-2.41c-0.18-0.76-0.63-1.53-1.38-2.44
			c-1.1-1.34-2.3-2.49-3.78-3.39l-0.43-0.27c-0.47-0.28-0.82-0.48-1.18-0.93c-0.18-0.23-0.24-0.36-0.37-0.61
			c-0.06-0.11-0.17-0.38-0.23-0.49c-0.68-1.19-1.85-1.83-3.04-2.6l-0.44-0.38c-1.88-1.23-9.42-7.37-10.87-8.67
			c-2.82-0.51-1.25,1.39-4.07,0.82c-2.88-0.58-4.05,0.68-6.96,0.29c-1.18-0.15-2.36-0.21-3.54-0.24c-0.13,0.05-0.27,0.09-0.44,0.09
			c-0.57,0-1.15,0.01-1.72,0.03c-1.22,0.74-2.91,0.99-4.11,1.45c-1.42,0.54-2.56,1.28-3.61,2.37c-0.25,0.26-0.51,0.51-0.78,0.75
			c0.36,0.52,0.68,0.99,0.87,1.3c2.17,3.56,4.28,7.05,4.3,7.08c0.26,0.49,1.24,2.79,1.31,3.04c0.04,0.12-0.06,0.47-0.03,0.59
			c0.14,0.5,0.5,0.92,0.72,1.36c0.4,0.77,0.93,1.42,1.61,2.03c0.53,0.48,0.84,0.82,1.27,1.41c0.01,0.01,0.02,0.05,0.03,0.08
			c0.13,0.02,0.26,0.08,0.32,0.21c0.32,0.68,0.61,1.37,0.83,2.09c0.1,0.33,0.2,0.67,0.33,0.99c0.13,0.3,0.29,0.59,0.43,0.89
			c0.21,0.46,0.52,1.25,0.11,1.69c-0.27,0.28-0.65,0.2-0.99,0.17c-0.37-0.03-0.75-0.08-1.11-0.17c-0.15-0.04-0.24-0.13-0.3-0.24
			l-1.99-0.51c-0.56,1.55-0.35,3.89,0.82,5.05c0.25,0.25,0.77,0.72,1.06,0.94c0.57,0.44,1.08,0.79,1.43,1.47
			c0.11,0.22,0.18,0.4,0.25,0.62c0.06,0.18,0.15,0.48,0.23,0.64c0.41,0.89,1.6,1.42,2.48,1.29c0.29-0.04,0.49-0.35,0.79-0.46
			l0.15-0.06c0.75-0.29,1.56-0.46,2.33-0.61c0.72-0.15,1.4-0.28,2.03-0.51c1.74-0.63,3.03-0.81,4.67-1.04
			c1.26-0.17,2.68-0.37,4.71-0.81c0.4-0.09,0.83-0.08,1.25-0.06c0.27,0.01,0.52,0.01,0.76-0.01c0.45-0.04,0.88-0.15,1.33-0.27
			c0.58-0.15,1.17-0.31,1.81-0.29c0,0-1.34,0.37-2.66,0.88c-0.25,0.1-0.99,0.23-1.26,0.23c-0.38-0.01-0.78-0.02-1.12,0.05
			c-2.05,0.44-3.48,0.64-4.75,0.81c-1.67,0.23-2.88,0.4-4.56,1.01c-0.67,0.24-1.4,0.39-2.11,0.54c-0.71,0.14-1.68,0.3-2.36,0.54
			c0.09,0.62,0.55,2.16,1.58,2.55c0.32,0.12,0.69,0.18,1.05,0.19c0,0,3.01,0.04,3.41-0.02c1.18-0.18,2.22-1.06,3.28-1.76
			c0.72-0.48,1.46-0.97,2.27-1.31c0.28-0.12,0.58-0.21,0.86-0.31c0.18-0.06,0.37-0.12,0.55-0.19c0.69-0.25,1.36-0.59,2.02-0.92
			c0.95-0.48,1.93-0.97,2.99-1.23c0.13-0.03,0.26-0.06,0.4-0.09c0.51-0.11,0.99-0.21,1.36-0.49c0.29-0.22,0.5-0.55,0.67-0.84
			c0.2-0.33,0.38-0.67,0.57-1.02c0.62-1.14,1.25-2.33,2.33-3.11c0,0-0.85,0.79-1.85,3.37c-0.14,0.37-0.38,0.7-0.58,1.04
			c-0.2,0.34-0.44,0.72-0.81,1c-0.47,0.36-1.03,0.48-1.57,0.59c-0.13,0.03-0.26,0.05-0.38,0.08c-1,0.24-1.91,0.7-2.87,1.18
			c-0.67,0.34-1.36,0.69-2.07,0.95c-0.19,0.07-0.38,0.13-0.57,0.2c-0.27,0.09-0.56,0.19-0.82,0.3c-0.76,0.31-1.48,0.79-2.17,1.26
			c-0.55,0.36-1.43,0.69-2.02,0.99c0.44,1.17,1.45,2.87,2.92,3.77c1.28,0.8,3.12,1.02,4.32,0.45c0.22-0.14,0.4-0.29,0.99-0.67
			c0.34-0.32,0.68-0.81,0.98-1.17l1.98-2.48c0.41-0.5,0.78-1.05,1.17-1.58c0.11-0.15,0.27-0.31,0.38-0.46
			c0.28-0.39,0.54-0.85,0.87-1.22c0.67-0.76,1.49-1.31,2.28-1.9l2.02-1.49c1.39-1.04,2.71-2.19,3.08-3.65l0.07-0.3
			c0.12-0.47,0.2-0.86,0.21-1.33c0.01-0.62,0.26-1.83,0.26,0.07c0,0.54,0.01,0.77-0.13,1.27l-0.1,0.47
			c-0.42,1.63-1.78,2.58-3.25,3.68l-2.06,1.48c-0.33,0.25-1.93,1.64-2.14,1.87c-0.31,0.35-0.63,0.73-0.91,1.11
			c-0.11,0.15-0.23,0.45-0.34,0.6c-0.4,0.54-0.73,0.98-1.15,1.48l-1.18,1.37c1.28-0.06,3.03,0.22,4.52,0.51
			c1.47,0.28,2.98,0.47,4.55,0.49c1.65,0.02,3.59-0.13,4.6-1.24C156,78.21,155.8,76.13,155.65,74.67z M137.78,63.76l-1.18-3.16
			l-0.57-1.59l-0.53-1.6c-0.3-1.09-0.44-2.21-0.57-3.32c0.2,1.11,0.39,2.22,0.7,3.29l0.55,1.59l0.58,1.58l1.14,3.17
			c0.37,1.06,0.74,2.12,1.09,3.19C138.59,65.86,138.18,64.81,137.78,63.76z M143.37,62.71c-0.38-0.91-0.81-1.79-1.22-2.68
			c-0.4-0.9-0.81-1.79-1.24-2.67c-0.43-0.88-0.88-1.75-1.43-2.57c0.61,0.78,1.1,1.63,1.56,2.51c0.46,0.87,0.87,1.77,1.28,2.66
			c0.4,0.9,0.83,1.79,1.18,2.7c0.37,0.91,0.79,1.79,1.27,2.65C144.23,64.48,143.76,63.62,143.37,62.71z M147.56,57.52
			c-0.85-1.01-1.74-1.99-2.7-2.9c-0.47-0.46-0.96-0.91-1.45-1.34c-0.49-0.44-1.02-0.84-1.52-1.28c-0.51-0.44-0.85-1.04-1.15-1.63
			c-0.3-0.59-0.59-1.19-1.06-1.66c0.99,0.91,1.28,2.35,2.31,3.19c1.03,0.82,2.06,1.67,3.01,2.6c0.95,0.93,1.85,1.91,2.68,2.94
			c0.42,0.52,0.81,1.05,1.2,1.59c0.38,0.54,0.74,1.1,1.09,1.66C149.21,59.59,148.41,58.53,147.56,57.52z M149.58,67.16
			c0.75,0.06,1.48-0.18,2.04-0.68C151.17,67.09,150.3,67.38,149.58,67.16z"/>
		<path d="M160.56,63.39c0.13-0.84-0.01-1.67-0.41-2.34c-0.56-0.93-1.55-1.49-2.43-1.97l-0.2-0.11c-0.82-0.45-1.66-0.91-2.06-1.66
			l0,0c-0.25-0.59-0.63-1.19-1.19-1.87c-1.14-1.39-2.5-2.57-4.03-3.5l-0.18-0.11c-0.45-0.27-0.88-0.52-1.17-0.9
			c-0.15-0.19-0.27-0.42-0.39-0.66c-0.06-0.12-0.12-0.24-0.19-0.36c-0.74-1.31-2.03-2.14-3.27-2.95l-0.25-0.17
			c-1.67-1.09-9.82-7.75-11.16-8.91c-0.33-0.05-0.71,0.06-1.04,0c1.53,1.39,9.94,8.08,11.9,9.36l0.26,0.17
			c1.19,0.77,2.41,1.57,3.09,2.77c0.06,0.11,0.12,0.22,0.18,0.34c0.13,0.25,0.26,0.51,0.45,0.74c0.36,0.46,0.85,0.75,1.32,1.03
			l0.18,0.11c1.48,0.9,2.8,2.03,3.89,3.37c0.75,0.91,1.16,1.66,1.34,2.42c0.11,0.47,0.13,0.96,0.11,1.45
			c-0.03,0.11-0.07,0.22-0.11,0.33c-0.18,0.43-0.49,0.85-0.95,1.02c0.47-0.15,0.82-0.55,1.03-0.99c0.01-0.02,0.01-0.03,0.02-0.05
			c-0.01,0.22-0.03,0.44-0.04,0.65l-0.01,0.11c-0.35,4.63-0.28,9.31,0.21,13.92c0.15,1.46,0.36,3.46-0.74,4.66
			c-1.01,1.1-2.71,1.18-4.36,1.16c-1.56-0.02-3.09-0.31-4.56-0.59c-1.49-0.28-2.9-0.55-4.18-0.49l0.84-1.02
			c0.42-0.51,0.85-1.03,1.25-1.57c0.11-0.15,0.22-0.3,0.33-0.45c0.27-0.38,0.56-0.78,0.87-1.13c0.21-0.24,0.44-0.46,0.68-0.67
			c-0.12,0.56-0.13,1.14-0.01,1.69c-0.05-0.62,0.05-1.24,0.29-1.79c0.42,1.16,1.1,2.22,1.96,3.07c-0.84-0.99-1.42-2.18-1.71-3.42
			c0.32-0.26,0.65-0.51,0.98-0.76l2.01-1.51c1.47-1.1,2.82-2.23,3.24-3.86l0.06-0.24c0.13-0.5,0.27-0.97,0.27-1.51
			c0-1.9-1.11-3.69-1.11-3.69c0.54,1.61,0.58,3.06,0.57,3.68c-0.01,0.47-0.12,0.91-0.25,1.38l-0.06,0.24
			c-0.38,1.46-1.65,2.52-3.04,3.56l-2.01,1.51c-0.79,0.59-1.6,1.2-2.27,1.96c-0.33,0.37-0.62,0.78-0.9,1.17
			c-0.11,0.15-0.21,0.3-0.32,0.44c-0.39,0.53-0.82,1.05-1.23,1.55l-2.03,2.46c-0.3,0.36-0.61,0.73-0.95,1.05
			c-0.59,0.38-1.3,0.58-2.02,0.54c-0.86-0.05-1.7-0.44-2.31-1.08c0.56,0.68,1.4,1.14,2.29,1.26c0.35,0.04,0.71,0.02,1.06-0.04
			c-1.2,0.57-2.77,0.46-4.04-0.34c-1.47-0.91-2.29-2.39-2.73-3.56c0.59-0.3,1.14-0.67,1.69-1.03c0.69-0.46,1.41-0.94,2.17-1.26
			c0.27-0.11,0.55-0.2,0.82-0.3c0.19-0.06,0.38-0.13,0.57-0.2c0.72-0.26,1.41-0.61,2.07-0.95c0.96-0.49,1.87-0.95,2.87-1.18
			c0.13-0.03,0.25-0.06,0.38-0.08c0.54-0.11,1.11-0.23,1.57-0.59c0.37-0.28,0.61-0.66,0.81-1c0.2-0.34,0.43-0.67,0.58-1.04
			c1-2.58,1.85-3.37,1.85-3.37c-1.08,0.78-1.71,1.97-2.33,3.11c-0.19,0.34-0.37,0.69-0.57,1.02c-0.17,0.29-0.38,0.62-0.67,0.84
			c-0.37,0.28-0.85,0.38-1.36,0.49c-0.13,0.03-0.27,0.06-0.4,0.09c-1.06,0.25-2.04,0.75-2.99,1.23c-0.65,0.33-1.33,0.67-2.02,0.92
			c-0.18,0.07-0.37,0.13-0.55,0.19c-0.28,0.09-0.57,0.19-0.86,0.31c-0.81,0.33-1.55,0.83-2.27,1.31c-1.06,0.7-2.06,1.37-3.23,1.55
			c-0.41,0.06-0.83,0.06-1.25,0.05c-0.98-0.13-1.93-0.62-2.62-1.38c0.4,0.55,0.94,1.01,1.57,1.33l-1.04-0.05
			c-0.36-0.02-0.73-0.03-1.06-0.15c-1.02-0.39-1.34-1.69-1.43-2.31c0.67-0.25,1.4-0.4,2.11-0.54c0.71-0.14,1.44-0.29,2.11-0.54
			c1.68-0.61,2.89-0.78,4.56-1.01c1.26-0.17,2.7-0.37,4.75-0.81c0.34-0.07,0.74-0.06,1.12-0.05c0.27,0.01,1.01-0.13,1.26-0.23
			c1.32-0.5,2.66-0.88,2.66-0.88c-0.64-0.02-1.24,0.14-1.81,0.29c-0.45,0.12-0.88,0.23-1.33,0.27c-0.24,0.02-0.49,0.01-0.76,0.01
			c-0.42-0.01-0.85-0.02-1.25,0.06c-2.03,0.44-3.45,0.63-4.71,0.81c-1.64,0.23-2.93,0.4-4.67,1.04c-0.63,0.23-1.31,0.37-2.03,0.51
			c-0.78,0.16-1.58,0.32-2.33,0.61l-0.15,0.06c-0.3,0.12-0.58,0.23-0.88,0.28c-0.88,0.13-1.85-0.44-2.26-1.32
			c-0.07-0.16-0.13-0.33-0.19-0.51c-0.08-0.22-0.16-0.45-0.27-0.67c-0.35-0.67-0.93-1.13-1.5-1.57c-0.28-0.22-0.58-0.45-0.83-0.69
			c-1.18-1.16-1.52-3.06-0.96-4.61l2.1,0.46l2.78,0.61c0.04,0.06,0.07,0.14,0.12,0.2c-0.15,0.05-0.3,0.11-0.44,0.2
			c-0.22,0.13-0.37,0.32-0.54,0.49c-0.31,0.36-0.54,0.77-0.75,1.19c0.26-0.39,0.54-0.76,0.88-1.07c0.18-0.14,0.34-0.29,0.54-0.38
			c0.17-0.08,0.35-0.12,0.53-0.14c0.03,0.03,0.06,0.06,0.08,0.09c-0.31,0.51-0.61,1.04-0.86,1.59c-0.26,0.59-0.46,1.22-0.5,1.86
			c0.1-0.63,0.35-1.23,0.66-1.78c0.28-0.49,0.61-0.95,0.94-1.41c0.28,0.28,0.57,0.54,0.86,0.78c0.52,0.45,1.06,0.91,1.67,1.27
			c0.08,0.05,0.17,0.1,0.25,0.14c1.73,0.91,2.99,0.13,2.99,0.13c-0.95,0.05-1.9-0.16-2.74-0.61c-0.66-0.35-1.25-0.86-1.83-1.35
			c-0.4-0.34-0.82-0.7-1.15-1.1c-0.72-0.88-1.07-1.97-1.39-3.14c0.72,0.67,1.62,1.15,2.52,1.52c1.28,0.53,2.63,0.81,3.97,1.06
			c-1.33-0.31-2.67-0.66-3.9-1.23c-1.23-0.57-2.51-1.46-2.95-2.61l0,0c-0.09-0.31-0.2-0.62-0.32-0.92c1.72,0.91,3.01,1.08,4.66,1.21
			c-1.84-0.27-4.38-1.12-5.07-2.11l0,0c-0.12-0.23-0.26-0.45-0.41-0.67c-0.43-0.59-0.98-1.08-1.51-1.56
			c-0.68-0.62-1.33-1.2-1.73-1.96c-0.23-0.44-0.37-0.91-0.51-1.42c-0.03-0.12-0.07-0.24-0.1-0.36c-0.07-0.25-0.16-0.5-0.24-0.75
			c1,0.57,2.16,0.82,3.27,0.68c-1.34,0.05-3.25-0.63-3.58-1.51c-0.21-0.51-0.45-1.02-0.71-1.51c-0.01-0.03-2.17-3.57-4.34-7.12
			c-0.21-0.34-0.56-0.86-0.96-1.43c-0.14,0.12-0.27,0.24-0.41,0.36c0.4,0.57,0.75,1.08,0.96,1.42c2.14,3.52,4.27,7.03,4.29,7.06
			c0.04,0.07,0.43,0.78,0.51,1.08c0.23,0.53,0.44,1.06,0.62,1.61l-0.73-0.16c0.11,0.24,0.2,0.51,0.26,0.8
			c0.06,0.3,0.13,0.61,0.2,0.91c1.14,0.52,1.76,1.49,1.94,2.55c0.16-0.08,0.36-0.09,0.51,0.06c0.17,0.17,0.37,0.28,0.57,0.42
			c0.21,0.15,0.37,0.33,0.53,0.54c0.3,0.39,0.51,0.84,0.74,1.27c0.21,0.39,0.38,0.78,0.5,1.21c0.12,0.42,0.21,0.85,0.35,1.26
			c0.13,0.38,0.33,0.69,0.52,1.04c0.18,0.35,0.34,0.85,0.06,1.19c-0.24,0.29-0.6,0.25-0.92,0.14c-0.44-0.16-0.89-0.3-1.34-0.44
			c-0.43-0.14-0.85-0.31-1.28-0.45c-0.23-0.08-0.54-0.2-0.74-0.03c-0.06,0.05-0.14,0.07-0.22,0.07l0.4,0.21
			c-0.76,2.09-0.34,4.19,0.99,5.5c0.27,0.27,0.58,0.51,0.87,0.74c0.55,0.43,1.06,0.83,1.35,1.39c0.09,0.18,0.16,0.38,0.24,0.59
			c0.06,0.18,0.13,0.37,0.21,0.56c0.25,0.54,0.66,0.98,1.14,1.27c0.51,0.31,1.11,0.45,1.69,0.36c0.27-0.04,0.52-0.12,0.76-0.22
			c0.2,1.16,0.7,2.03,1.41,2.46c0.11,0.07,0.22,0.12,0.34,0.17c0.4,0.15,0.84,0.17,1.22,0.19l1.75,0.08
			c0.56,0.02,1.13,0.05,1.71-0.04c0.45-0.07,0.87-0.2,1.27-0.37c0.48,1.25,1.35,2.82,2.94,3.8c0.02,0.01,0.03,0.02,0.05,0.03
			c1.59,0.96,3.59,0.99,4.98,0.09c0.67-0.43,1.16-1.04,1.64-1.62l0.73-0.88l0,0.02c1.32-0.17,2.89,0.13,4.54,0.44
			c1.5,0.28,3.04,0.58,4.65,0.6c1.7,0.02,3.6-0.06,4.76-1.33c1.16-1.26,1.07-3.15,0.92-4.66l0-0.02l0.62,0.14
			c-0.28-1.18-0.27-2.45-0.07-3.57c0.18-1.03,0.59-1.99,1.17-2.85c0.23-0.34,0.47-0.63,0.7-0.91l0.28-0.34
			c0.35-0.42,0.66-0.84,0.87-1.36c0.14-0.35,0.36-0.65,0.62-0.9l-0.35-0.08C160.22,64.57,160.47,63.98,160.56,63.39z M159.3,65.01
			l-3.68-0.81c0.04-1.02,0.1-2.62,0.16-3.42l0.01-0.11c0.05-0.71,0.1-1.44,0-2.16c0.45,0.37,0.98,0.67,1.47,0.94l0.2,0.11
			c0.86,0.48,1.74,0.97,2.23,1.77c0.33,0.56,0.46,1.26,0.34,1.97C159.93,63.88,159.68,64.47,159.3,65.01z"/>
		<path d="M106.48,47.59c-0.35,0.4-0.66,0.83-0.96,1.28c-0.64-1.05-1.32-2.07-2.04-3.07c0.13-0.16,0.25-0.33,0.39-0.49
			c5.31-6.05,15.38-8.07,33.26-8.71c1.06,1.18,2.18,2.31,3.35,3.38C120.99,40.49,111.14,42.27,106.48,47.59z"/>
	</g>
</g>
</svg>
