<?xml version="1.0" encoding="utf-8"?>
<!-- Generator: Adobe Illustrator 27.8.1, SVG Export Plug-In . SVG Version: 6.00 Build 0)  -->
<svg version="1.1" xmlns="http://www.w3.org/2000/svg" xmlns:xlink="http://www.w3.org/1999/xlink" x="0px" y="0px"
	 viewBox="0 0 350 230" style="enable-background:new 0 0 350 230;" xml:space="preserve">
<style type="text/css">
	.st0{display:none;}
	.st1{display:inline;}
	.st2{display:inline;fill:#61FFFB;}
	.st3{display:inline;fill:#FFFF66;}
	.st4{display:inline;fill:#66FF91;}
	.st5{display:inline;fill:#66BEFF;}
	.st6{display:inline;fill:#033D3D;}
	.st7{display:inline;fill:#62DD79;}
	.st8{display:inline;fill:#D8D564;}
	.st9{display:inline;fill:#66E9FF;}
	.st10{display:inline;fill:#FF66BA;}
	.st11{display:inline;fill:#DAFF66;}
	.st12{display:inline;fill:#C0FF97;}
	.st13{display:inline;fill:#490127;}
	.st14{fill:#DDDDDD;}
	.st15{fill:#F7931E;}
	.st16{fill:#604F3E;}
	.st17{fill:#2C1E20;}
	.st18{fill:#F7BF0B;}
	.st19{fill:#FFCE00;}
	.st20{fill-rule:evenodd;clip-rule:evenodd;fill:#F3B03C;}
	.st21{fill:#C41621;}
	.st22{fill:#352B2F;}
	.st23{fill:#FFFFFF;}
	.st24{fill:#00FFFF;}
	.st25{fill:#29ABE2;}
	.st26{fill:#B61E5A;}
	.st27{fill:#1E2254;}
	.st28{fill:#33DDFF;}
	.st29{fill:#0065A3;}
	.st30{fill:#F6973B;}
	.st31{fill:#5A3FA8;}
	.st32{fill:#00AB91;}
	.st33{fill-rule:evenodd;clip-rule:evenodd;fill:#13A559;}
	.st34{fill:#4E17AC;}
	.st35{fill:#103747;}
	.st36{fill:#019AC2;}
	.st37{fill-rule:evenodd;clip-rule:evenodd;fill:#B825BD;}
	.st38{fill-rule:evenodd;clip-rule:evenodd;fill:#FF8788;}
	.st39{fill:#282519;}
	.st40{fill:#C71A8B;}
	.st41{fill:#F9C60B;}
	.st42{fill:#E67A7B;}
	.st43{fill:#66767A;}
	.st44{fill:#0194A8;}
	.st45{fill:#00A4FF;}
	.st46{fill:#262626;}
	.st47{fill:#00FFE8;}
	.st48{fill:#D4FFFF;}
	.st49{fill-rule:evenodd;clip-rule:evenodd;fill:#FF00B8;}
	.st50{fill-rule:evenodd;clip-rule:evenodd;fill:#05E2FF;}
	.st51{fill:#FFF800;}
	.st52{fill:#0192A7;}
	.st53{fill:#D4209E;}
	.st54{fill:#0B0F22;}
	.st55{fill:#E12D2E;}
	.st56{fill:#B8C7FF;}
	.st57{fill:#000051;}
	.st58{fill:#FDC093;fill-opacity:0.5;}
	.st59{fill:#FDC093;}
	.st60{fill:#008CFF;fill-opacity:0.4;}
	.st61{fill:#008CFF;}
	.st62{fill:#000051;fill-opacity:0.41;}
	.st63{fill:#F9032C;}
	.st64{fill:#000051;fill-opacity:0.26;}
	.st65{fill:#8B8B8B;}
	.st66{fill:#E65101;}
	.st67{fill:#FACB01;}
	.st68{fill:#9AEB4E;}
	.st69{fill:#FF6600;}
	.st70{fill:#FF7BAC;}
	.st71{fill:#222222;}
	.st72{fill:#FEFEFE;}
	.st73{fill:#F2F2F2;}
	.st74{opacity:0.3;fill:#222222;enable-background:new    ;}
	.st75{fill:#383838;}
	.st76{fill:#1C2043;}
	.st77{fill:#171717;}
	.st78{fill:#178FAA;}
	.st79{opacity:0.3;fill:#FFFFFF;enable-background:new    ;}
	.st80{opacity:0.3;fill:#383838;enable-background:new    ;}
	.st81{opacity:0.3;fill:#A8AAB2;enable-background:new    ;}
	.st82{fill:#E6E6E6;}
	.st83{fill:#FBB03B;}
	.st84{fill:#F8BA03;}
	.st85{fill:#E95900;}
	.st86{fill:#7A1BBD;}
	.st87{fill:#676767;}
	.st88{fill:#F751E1;}
</style>
<g id="Layer_1">
</g>
<g id="Layer_2">
</g>
<g id="Layer_3">
</g>
<g id="Layer_4">
</g>
<g id="Layer_5">
</g>
<g id="Layer_6">
</g>
<g id="Layer_7">
</g>
<g id="Layer_8">
</g>
<g id="Layer_9">
</g>
<g id="Layer_10">
</g>
<g id="Layer_11">
</g>
<g id="Layer_12">
</g>
<g id="Layer_13">
</g>
<g id="Layer_14">
</g>
<g id="Layer_15">
	<path d="M109.93,76.86c0.01-0.03,0.02-0.05,0.03-0.08v2.1C109.83,78.2,109.63,77.52,109.93,76.86z M109.52,97.68
		c-0.39,0.09-0.74,0.03-1.06-0.17c-0.01,0.05-0.01,0.11-0.03,0.16c-0.09,0.37-0.29,0.68-0.55,0.97c-0.02,0.02-0.05,0.04-0.07,0.07
		c0.11,0.48-0.62,0.58-0.72,0.97c-0.68,0.9-1.37,1.81-2.05,2.71c-0.03,0.17-0.05,0.33-0.05,0.5c0.01,0.04,0.01,0.09,0.01,0.13
		c0.72-0.16,1.24,0.09,1.54,0.81c0.46-0.19,0.9-0.33,1.11,0.38c0.7,0.49,1.51,0.61,2.31,0.77v-1.35c-0.39-0.35-1.1-0.62-0.47-1.17
		c0.06-0.05,0.24-0.19,0.47-0.3v-4.51c-0.13-0.14-0.2-0.29-0.23-0.44C109.68,97.36,109.62,97.52,109.52,97.68z M241.24,104.7
		c0.38-0.11,0.76-0.26,1.1-0.5c0.21-0.7,0.65-0.57,1.11-0.38c0.29-0.72,0.82-0.97,1.54-0.81c0.01-0.04,0.01-0.09,0.01-0.13
		c0.01-0.17-0.01-0.34-0.05-0.5c-0.68-0.9-1.37-1.81-2.05-2.71c-0.1-0.39-0.83-0.49-0.72-0.97c-0.02-0.02-0.05-0.04-0.07-0.07
		c-0.26-0.29-0.46-0.6-0.55-0.97c-0.01-0.05-0.02-0.11-0.03-0.16c-0.1,0.06-0.19,0.11-0.3,0.14V104.7z M109.1,94.62
		c0.11,0.19,0.23,0.39,0.34,0.58c0.16,0.4,0.31,0.8,0.36,1.21c0.05-0.16,0.1-0.32,0.16-0.48v-3.45
		C109.29,92.65,108.86,93.14,109.1,94.62z M240.45,88.66c-0.05,0.32-0.11,0.65-0.16,0.97c0.24,0.41,0.58,0.7,0.95,0.96v-2.48
		c-0.06,0.07-0.1,0.14-0.13,0.23C240.9,88.44,240.68,88.55,240.45,88.66z M240.53,108.8c0.3,0.52,0.52,0.88,0.71,1.09v9.2
		c-0.26-0.4-0.61-0.78-1-0.99c-0.51-0.27-0.58,0.47-0.88,0.71c-1.53,1.23,0.33,1.76,0.55,2.63c-0.02,0.03,0,0.08,0.07,0.16
		c0.06,0.08,0.16,0.1,0.29,0.07c-0.14-0.61-0.05-1.06,0.66-1.27c0.12-0.04,0.23-0.1,0.31-0.18v7.32v9.77c0,2.81-2.29,5.09-5.09,5.09
		H115.06c-2.81,0-5.09-2.29-5.09-5.09v-9.77v-5.91c0.02-0.01,0.04-0.02,0.06-0.04c0.06-0.08,0.09-0.13,0.07-0.16
		c0.22-0.87,2.08-1.4,0.55-2.63c-0.26-0.21-0.35-0.76-0.67-0.77v-10c0.61-0.87,1.13-1.76,0.57-2.93c-0.19-0.05-0.38-0.09-0.57-0.14
		v-1.35c0.07,0.06,0.13,0.12,0.17,0.19c0.21,0.35,0.64,0.56,0.97,0.83c0.82-0.1,2.17,1.06,2.04-0.71c0.71-0.85,0.84,1.94,1.56-0.03
		c-0.56-0.55-1.13-1.1-1.69-1.65l0,0c-0.67-0.63-1.04-0.08-1.43,0.37c-0.4-0.86-1.13-0.7-1.62-0.46v-4.51
		c0.15,0.17,0.37,0.32,0.69,0.45c1.59,0,1.59,0,2.91-2.76c-1.13-1.14-2.26-0.49-3.39-0.01c-0.05,0.2-0.13,0.4-0.2,0.61v-3.45
		c0.76-0.18,1.82,0.06,2.52-0.2c0.33,0.14,0.6-0.01,0.86-0.18c0.5,0.41,0.26,1.9,1.59,1.07c0.38,0.39,0.54,1.05,1.24,1.06
		c-0.4-0.53-0.79-1.07-1.19-1.6c-0.36-0.29-0.71-0.58-1.07-0.87c-0.96-0.75-1.81-1.56-1.9-2.88c0.66-1.3,2.34-2.42,0.78-4.14
		c-0.34-0.38,0.68-0.63,0.12-1.05c-0.24-0.33,0.12-0.83-0.33-1.1l0,0h0c-0.16-1.01-0.33-2.01-1.19-2.84
		c-0.26,0.49-0.51,0.95-0.76,1.41c-0.7,0.87-0.35,1.85-0.27,2.79c0.04,0.54,0.11,1.27-0.4,1.35v-4.96c0,0,0.01,0,0.01-0.01
		c0.55-0.38,0.1-0.88,0.02-1.3c-0.01-0.06-0.02-0.11-0.03-0.17v-2.1c0.13-0.32,0.11-0.55,0-0.71V72c0-7.5,6.1-13.6,13.6-13.6h20.32
		c4.4,0,8.49-1.97,11.24-5.4c3.36-4.2,8.36-6.6,13.74-6.6h6.72v1.89l0.04,0V46.4h6.72c5.37,0,10.38,2.41,13.74,6.6
		c2.75,3.43,6.84,5.4,11.24,5.4h20.32c7.5,0,13.6,6.1,13.6,13.6h0v3.83c-0.08-0.11-0.22-0.16-0.49-0.12
		c-0.6,0.1-1.05,0.37-0.69,1.14c0.33,0.72,0.07,1.46-0.06,2.19c-0.08,0.42-0.53,0.93,0.02,1.3c0.45,0.31,0.77-0.13,1.16-0.31
		c0.02-0.01,0.04-0.03,0.07-0.04v5.34c-0.24-0.09-0.53-0.11-0.91-0.03c-0.83,0.18-0.75-0.71-0.7-1.34c0.08-0.94,0.43-1.92-0.27-2.79
		c-0.25-0.46-0.49-0.92-0.76-1.41c-0.86,0.83-1.03,1.83-1.19,2.84h0l0,0c-0.45,0.27-0.09,0.77-0.33,1.1
		c-0.57,0.42,0.46,0.67,0.12,1.05c-1.56,1.73,0.12,2.84,0.78,4.14c-0.09,1.32-0.95,2.13-1.9,2.88c-0.36,0.29-0.71,0.58-1.07,0.87
		c-0.4,0.53-0.79,1.07-1.19,1.6c0.7-0.02,0.86-0.67,1.24-1.06c1.33,0.82,1.09-0.66,1.59-1.07c0.27,0.16,0.53,0.32,0.86,0.18
		c1.32,0.5,3.9-0.82,3.38,2.34c-0.11,0.19-0.23,0.39-0.34,0.58c-0.16,0.4-0.31,0.8-0.36,1.21c-0.11-0.36-0.27-0.73-0.37-1.08
		c-1.13-0.47-2.26-1.12-3.39,0.01c1.31,2.76,1.31,2.76,2.91,2.76c0.59-0.25,0.85-0.56,0.92-0.9c0.05,0.16,0.11,0.31,0.21,0.47
		c0.27,0.06,0.52,0.05,0.76-0.03v7.06c-0.58,0.17-1.19,0.24-1.77,0.41c-0.65,1.35,0.13,2.33,0.85,3.33
		C240.39,108.59,240.46,108.7,240.53,108.8z M111.51,109.94c0.21,0.17,0.37,0.49,0.73,0.31c0.27-0.02,0.54-0.04,0.81-0.06
		c-0.12-0.44-0.31-0.8-0.83-0.82c-0.09-0.08-0.18-0.16-0.26-0.25c-0.44-0.59-0.69-0.01-0.84,0.21
		C110.91,109.64,111.19,109.85,111.51,109.94z M111.72,112.08c0.27-0.02,0.66,0.12,0.64-0.36c0-0.15-0.14-0.36-0.28-0.44
		c-0.46-0.25-0.37,0.31-0.58,0.43c-0.32,0.25-0.64-0.47-0.94,0c-0.06,0.09-0.07,0.28-0.01,0.34
		C110.92,112.45,111.33,112.21,111.72,112.08z M112.09,115.28c-0.12,0.08-0.24,0.15-0.36,0.23c0.86,1.44,0.88,3.17,1.44,5.05
		C113.96,118.27,113.53,116.52,112.09,115.28z M114.15,114c-0.1-0.06-0.39,0.01-0.45,0.11c-0.11,0.18-0.12,0.42-0.16,0.64
		c0.17-0.07,0.34-0.14,0.48-0.2C114.16,114.36,114.52,114.23,114.15,114z M125.71,85.1c0.14,0.1,0.28,0.22,0.59,0.46
		c-0.04-0.61,0.1-1.2-0.51-1.16C125.28,84.43,125.29,84.8,125.71,85.1z M119.87,87.8c0.16-0.99,1.29-1.16,0.79-2.1
		c-0.11-0.2-0.75-0.37-0.78-0.33C119.49,86.01,119.47,86.7,119.87,87.8z M116.88,75.14c0.62-0.2,1.41,0.41,1.57-0.62
		c0.04-0.28,0.08-0.78-0.22-0.76C117.59,73.79,117.07,74.15,116.88,75.14z M116.6,79.49c0.71,0.91,1.43,0.73,2.21-0.05
		c-0.5-0.4-0.97-0.78-1.45-1.15c0.37-0.16,0.73-0.32,1.25-0.55c-0.79-0.37-1.17-0.01-1.55,0.38
		C116.3,78.36,116.08,78.82,116.6,79.49z M115.62,85.88c0.71,0.39,1.26,0.4,1.59-0.45c-1.15-0.71-1.15-0.71-0.31-1.52
		c-0.59-0.12-1.21-0.4-1.36,0.43C115.46,84.82,114.73,85.4,115.62,85.88z M114.31,79.26c-0.22-0.38-0.44-0.37-0.63-0.18
		c-0.35,0.35-0.33,0.74-0.06,1.13c0.13,0.2,0.29,0.45,0.54,0.26C114.66,80.09,114.22,79.6,114.31,79.26z M114.73,88.4
		c-0.13,0.37-0.26,0.74-0.46,1.29C114.95,89.25,115.13,88.9,114.73,88.4z M116.24,92.81c0.09,0.03,0.4-0.21,0.38-0.27
		c-0.19-0.89-1.16-1.02-1.67-1.59C115.45,91.56,115.42,92.51,116.24,92.81z M114.98,102.35c0.86-0.76,0.93-1.64,0.39-2.62
		c0.11-0.51,0.22-1.02,0.33-1.53c0.71-0.43,0.65-1.15,0.67-1.83c-0.62,0.32-0.53,1.03-0.84,1.52c-0.8-0.18-0.98,0.34-1.18,0.95
		c-0.29,0.84,0.38,0.83,0.82,1.04c0.09,0.69,0.06,1.34-0.54,1.82C114.75,101.92,114.86,102.14,114.98,102.35z M116.03,116.07
		c-0.07-0.31-0.24-0.42-0.52-0.24c-0.33,0.2-0.64,0.44-0.43,0.88c0.14,0.3,0.42,0.43,0.77,0.36
		C116.24,116.8,116.11,116.43,116.03,116.07z M117.76,109.79l-1.78,1l1.76,1.04L117.76,109.79z M119.05,102.41
		c-0.83,0.43-0.87,1.17-1.5,1.35C118.48,103.91,118.75,103.31,119.05,102.41z M120.82,124.2c-0.47,0-0.76,0.25-1.06,0.73
		C120.32,124.87,120.64,124.67,120.82,124.2z M120.95,102.57c-0.17-0.85-0.28-1.4-0.4-2C118.48,101.68,120.13,101.87,120.95,102.57z
		 M121.7,107.52c-0.1-0.2-0.26-0.27-0.39-0.09c-0.13,0.18-0.21,0.41-0.25,0.63c-0.01,0.05,0.28,0.24,0.36,0.21
		C121.74,108.13,121.72,107.81,121.7,107.52z M121.99,97.59c0.01-0.22-0.26-0.3-0.39-0.14c-0.18,0.22-0.27,0.51-0.4,0.77
		c0.15,0,0.3,0,0.51-0.01C121.82,98,121.98,97.8,121.99,97.59z M122.02,91.26c-0.27,0-0.56-0.06-0.82,0.01
		c-0.4,0.11-0.34,0.41-0.17,0.7c0.19,0.28,0.56,0.47,0.74,0.28C121.98,92.03,121.95,91.6,122.02,91.26z M123.76,135.11
		c0-0.64-0.5-0.59-0.85-1.23C123.04,134.77,123.29,135.01,123.76,135.11z M124.69,90.68c0.81,0.02,1-0.54,0.93-1.24l0,0
		c0.48-1.54,0.48-1.54-0.56-1.45c-0.19-0.03-0.37-0.06-0.56-0.08c0,0,0,0,0,0c-1.64-0.24-1.1,0.66-0.77,1.46
		C123.83,89.96,123.87,90.66,124.69,90.68z M126.34,109.52c0.02-0.1-0.28-0.38-0.34-0.35c-0.77,0.29-0.6,1.19-1.1,1.69
		C125.7,110.73,126.19,110.29,126.34,109.52z M127.65,91.43c-0.11-0.39-0.47-0.2-0.65,0.1c-0.08,0.14-0.1,0.31-0.17,0.5
		C127.28,91.98,127.74,91.75,127.65,91.43z M128,132.76c0.2,0.86,0.49,1.23,0.92,1.56C129.05,133.66,128.54,133.41,128,132.76z
		 M223.7,85.56c0.31-0.24,0.45-0.36,0.59-0.46c0.42-0.3,0.43-0.67-0.08-0.7C223.6,84.37,223.74,84.95,223.7,85.56z M222,132.76
		c-0.54,0.65-1.05,0.9-0.92,1.56C221.51,133.99,221.8,133.62,222,132.76z M223.17,92.04c-0.06-0.19-0.08-0.36-0.17-0.5
		c-0.18-0.3-0.55-0.49-0.65-0.1C222.26,91.75,222.72,91.98,223.17,92.04z M225.1,110.87c-0.5-0.5-0.33-1.4-1.1-1.69
		c-0.07-0.02-0.36,0.25-0.34,0.35C223.81,110.29,224.3,110.73,225.1,110.87z M226.26,89.36c0.33-0.79,0.87-1.7-0.77-1.46l0,0
		c-0.19,0.03-0.37,0.06-0.56,0.08c-1.04-0.09-1.04-0.09-0.56,1.45c0,0,0,0,0,0c-0.08,0.7,0.11,1.26,0.93,1.24
		C226.13,90.66,226.17,89.96,226.26,89.36z M227.09,133.88c-0.35,0.64-0.85,0.59-0.85,1.23
		C226.71,135.01,226.96,134.77,227.09,133.88z M235.85,80.48c0.25,0.19,0.41-0.06,0.54-0.26c0.26-0.39,0.29-0.79-0.06-1.13
		c-0.19-0.19-0.41-0.2-0.63,0.18C235.78,79.6,235.33,80.09,235.85,80.48z M235.73,89.69c-0.2-0.55-0.32-0.92-0.46-1.29
		C234.87,88.9,235.05,89.25,235.73,89.69z M235.05,90.95c-0.52,0.57-1.48,0.71-1.67,1.59c-0.01,0.06,0.3,0.3,0.38,0.27
		C234.58,92.51,234.55,91.56,235.05,90.95z M233.1,83.91c0.84,0.81,0.84,0.81-0.31,1.52c0.34,0.85,0.88,0.84,1.59,0.45
		c0.89-0.49,0.16-1.06,0.07-1.55C234.31,83.51,233.68,83.8,233.1,83.91z M231.55,74.53c0.16,1.03,0.95,0.42,1.57,0.62
		c-0.2-0.99-0.72-1.35-1.36-1.38C231.47,73.75,231.5,74.25,231.55,74.53z M232.64,78.28c-0.47,0.38-0.94,0.75-1.45,1.15
		c0.78,0.78,1.5,0.97,2.21,0.05c0.52-0.67,0.3-1.13-0.46-1.38c-0.38-0.38-0.77-0.75-1.55-0.38
		C231.91,77.96,232.27,78.12,232.64,78.28z M230.13,87.8c0.4-1.1,0.38-1.79-0.01-2.43c-0.03-0.04-0.67,0.12-0.78,0.33
		C228.84,86.64,229.97,86.8,230.13,87.8z M228.28,98.21c0.22,0,0.36,0,0.51,0.01c-0.13-0.26-0.22-0.55-0.4-0.77
		c-0.13-0.15-0.39-0.08-0.39,0.14C228.02,97.8,228.18,98,228.28,98.21z M228.93,108.07c-0.04-0.22-0.12-0.45-0.25-0.63
		c-0.13-0.18-0.3-0.11-0.39,0.09c-0.02,0.3-0.04,0.61,0.28,0.75C228.66,108.31,228.94,108.12,228.93,108.07z M228.96,91.97
		c0.18-0.29,0.24-0.59-0.17-0.7c-0.26-0.07-0.55-0.01-0.82-0.01c0.07,0.34,0.05,0.77,0.25,0.99
		C228.4,92.44,228.78,92.26,228.96,91.97z M230.24,124.93c-0.29-0.47-0.58-0.72-1.06-0.73
		C229.36,124.67,229.68,124.87,230.24,124.93z M229.44,100.57c-0.12,0.6-0.23,1.14-0.4,2C229.87,101.87,231.52,101.68,229.44,100.57
		z M232.45,103.77c-0.63-0.19-0.68-0.92-1.5-1.35C231.25,103.31,231.52,103.91,232.45,103.77z M232.26,111.83l1.76-1.04l-1.78-1
		L232.26,111.83z M234.49,115.83c-0.28-0.17-0.46-0.06-0.52,0.24c-0.08,0.36-0.21,0.72,0.18,1c0.35,0.07,0.63-0.06,0.77-0.36
		C235.13,116.27,234.82,116.03,234.49,115.83z M235.02,102.35c0.12-0.21,0.24-0.43,0.35-0.64c-0.6-0.48-0.63-1.14-0.54-1.82
		c0.44-0.21,1.11-0.2,0.82-1.04c-0.21-0.61-0.38-1.14-1.18-0.95c-0.31-0.49-0.22-1.2-0.84-1.52c0.02,0.69-0.04,1.4,0.67,1.83
		c0.11,0.51,0.22,1.02,0.33,1.53C234.08,100.71,234.16,101.59,235.02,102.35z M236.85,103.93c-0.12,1.77,1.22,0.61,2.04,0.71
		c0.33-0.27,0.76-0.48,0.97-0.83c0.27-0.45,1.38-0.71,0.64-1.36c-0.19-0.17-1.5-1.1-2.09,0.16c-0.39-0.45-0.76-1-1.43-0.37l0,0
		c-0.56,0.55-1.13,1.1-1.69,1.65C236.02,105.88,236.14,103.09,236.85,103.93z M238.87,109.32c-0.15-0.22-0.4-0.81-0.84-0.21
		c-0.08,0.09-0.16,0.18-0.26,0.25c-0.52,0.03-0.71,0.39-0.83,0.82c0.27,0.02,0.54,0.04,0.81,0.06c0.37,0.18,0.52-0.14,0.73-0.31
		C238.81,109.85,239.09,109.64,238.87,109.32z M236.46,114.76c-0.05-0.22-0.05-0.46-0.16-0.64c-0.06-0.1-0.36-0.17-0.45-0.11
		c-0.36,0.23-0.01,0.36,0.14,0.56C236.12,114.62,236.29,114.69,236.46,114.76z M238.27,115.52c-0.12-0.08-0.24-0.15-0.36-0.23
		c-1.44,1.23-1.87,2.98-1.08,5.29C237.4,118.69,237.41,116.96,238.27,115.52z M239.43,111.73c-0.3-0.47-0.62,0.25-0.94,0
		c-0.21-0.13-0.11-0.69-0.58-0.43c-0.14,0.07-0.27,0.28-0.28,0.44c-0.01,0.47,0.37,0.34,0.64,0.36c0.39,0.12,0.79,0.37,1.17-0.01
		C239.5,112.01,239.49,111.82,239.43,111.73z M247.99,102.78c-0.35-0.19-0.95-0.49-0.52-0.97c0.91-1.01,0.3-1.97,0.08-2.96
		c-0.08-0.06-0.15-0.12-0.21-0.2c-0.37-0.46-0.62-1.09-1.4-0.99c-0.98,0.13-1.42-0.52-1.8-1.26c-0.63-0.4-1.23-0.21-1.82,0.09
		c-0.2,0.3-0.4,0.6-0.61,0.9c-0.06,0.05-0.12,0.08-0.17,0.12c0.01,0.05,0.01,0.11,0.03,0.16c0.09,0.37,0.29,0.68,0.55,0.97
		c0.02,0.02,0.05,0.04,0.07,0.07c0.02-0.09,0.07-0.18,0.15-0.3c0.46,0.18,0.9,0.46,1.37,0.52c1.03,0.14,1.74,0.55,1.35,1.68
		c-0.33,0.95,0.93,1.53,0.41,2.44c-0.17-0.22-0.34-0.44-0.5-0.66c0.03,0.17,0.05,0.33,0.05,0.5c-0.01,0.04-0.01,0.09-0.01,0.13
		c0.12,0.03,0.25,0.06,0.39,0.12c-0.15,0.87-0.01,1.62,0.83,2.11c0.24,0.04,0.47,0.12,0.71,0.11c0.7-0.03,1.62,0.31,2.01-0.45
		C249.4,103.97,248.86,103.26,247.99,102.78z M241.55,94.46c1.28-0.22,2.06,1.1,3.29,1.06c0.42-0.69,0.59-1.29-0.48-1.5
		c-0.55-0.11-1.26-0.15-1.06-0.95c0.24-1-0.48-1.28-1.03-1.75c-0.31-0.27-0.67-0.49-1.01-0.73v3.95
		C241.34,94.51,241.45,94.48,241.55,94.46z M244.14,105.64c-0.26-0.51-0.24-1.15-0.79-1.51c0.03-0.11,0.07-0.21,0.11-0.31
		c-0.46-0.19-0.9-0.33-1.11,0.38c-0.34,0.24-0.72,0.39-1.1,0.5v4.23c0.14-0.04,0.3-0.18,0.46-0.5c0.16-0.31,0.74,0.13,1.09,0.35
		c0.22-0.33,0.71-0.56,0.46-1.09C242.92,106.75,243.85,106.33,244.14,105.64z M240.53,108.8c-0.07-0.11-0.13-0.23-0.21-0.36
		C240.39,108.59,240.46,108.7,240.53,108.8z M240.53,108.8c-0.07-0.11-0.13-0.23-0.21-0.36C240.39,108.59,240.46,108.7,240.53,108.8
		z M242.34,86.7c-0.25-0.49-0.49-1.14-1.1-1.36v2.77C241.66,87.62,242.81,87.61,242.34,86.7z M242.29,79.56
		c0.57,0.3,0.34,0.87,0.32,1.34c-0.02,0.6-0.14,1.22,0.23,1.82c0.18-0.05,0.38-0.06,0.51-0.16c0.81-0.64,0.6-1.56,0.61-2.4
		c0.01-0.77-0.38-1.72-1.03-1.7c-1.53,0.05-1.53-0.83-1.62-1.87c-0.02-0.2,0.07-0.57-0.07-0.76V80
		C241.57,79.79,241.82,79.32,242.29,79.56z M240.76,75.72c-0.6,0.1-1.05,0.37-0.69,1.14c0.33,0.72,0.07,1.46-0.06,2.19
		c-0.08,0.42-0.53,0.93,0.02,1.3c0.45,0.31,0.77-0.13,1.16-0.31c0.02-0.01,0.04-0.03,0.07-0.04v-4.17
		C241.17,75.73,241.02,75.67,240.76,75.72z M240.76,75.72c-0.6,0.1-1.05,0.37-0.69,1.14c0.33,0.72,0.07,1.46-0.06,2.19
		c-0.08,0.42-0.53,0.93,0.02,1.3c0.45,0.31,0.77-0.13,1.16-0.31c0.02-0.01,0.04-0.03,0.07-0.04v-4.17
		C241.17,75.73,241.02,75.67,240.76,75.72z M260.86,94.75c0.08-0.02,0.16-0.03,0.22-0.07c0.35-0.27,0.26-0.67,0.26-1.03
		c0-0.33-0.16-0.74-0.44-0.73c-0.65,0.02-0.66-0.35-0.69-0.8c-0.01-0.13,0.09-0.43-0.24-0.38c-0.26,0.04-0.45,0.16-0.3,0.49
		c0.14,0.31,0.03,0.62-0.03,0.94c-0.03,0.18-0.23,0.4,0.01,0.56c0.19,0.13,0.33-0.05,0.49-0.13c0.15-0.07,0.26-0.32,0.48-0.2
		c0.24,0.13,0.14,0.37,0.14,0.57C260.76,94.23,260.7,94.49,260.86,94.75z M245.96,83.54c0.44-0.24,0.75,0.05,1.09,0.25l0,0
		c0.66,0.1,1.31,0.21,2.02,0.32c-1.68-3.98-1.68-3.98-4.69-5.12C245.35,80.49,244.55,82.34,245.96,83.54z M245.96,83.54
		c0.35,0.85-0.42,1.25-0.83,1.62c-1.1,0.99-0.23,1.66,0.26,2.34c0.67,0.93,1.16,0,1.66-0.29c0.61-0.36,1.15-0.82,1.67-1.21
		c-0.29-1.04-2.22-0.64-1.67-2.2v0C246.61,84.04,246.36,83.46,245.96,83.54z M245.96,83.54c0.4-0.08,0.65,0.5,1.09,0.25
		C246.71,83.59,246.4,83.3,245.96,83.54z M245.96,83.54c0.4-0.08,0.65,0.5,1.09,0.25C246.71,83.59,246.4,83.3,245.96,83.54z
		 M257.9,95.03c-0.6-0.4-1.04,0.35-1.36,0.83c-0.32,0.49-0.6,0.63-1.18,0.32c-0.56-0.29-1.02,0.23-1.49,0.48
		c0.29,0.47,0.58,0.93,0.77,1.25c0.88,0.6,3.13,0.16,3.36-0.66C258.2,96.56,258.71,95.57,257.9,95.03z M249.74,78.23
		c0.55,1.4,1.46,1.39,2.64,0.74c1.47-0.81,0.26-1.76,0.12-2.56c-0.24-1.36-1.28-0.9-2.24-0.71
		C251.64,77.05,251.64,77.05,249.74,78.23z M243.15,114.54c-0.58-0.28-1.8-0.63-1.76-0.24c0.14,1.28,0.7,2.53,1.28,3.71
		c0.12,0.24,0.88-0.17,1.23-0.49C244.33,116.8,243.87,114.89,243.15,114.54z M241.4,119.35c-0.05-0.09-0.1-0.17-0.15-0.26v1.13
		C241.48,119.99,241.55,119.62,241.4,119.35z M245.68,117.53c-0.51-0.27-0.58,0.47-0.88,0.71c-1.53,1.23,0.33,1.76,0.55,2.63
		c-0.02,0.03,0,0.08,0.07,0.16c0.06,0.08,0.16,0.1,0.29,0.07c-0.14-0.61-0.05-1.06,0.66-1.27c0.48-0.15,0.67-0.68,0.46-1.05
		C246.57,118.28,246.16,117.78,245.68,117.53z M244.42,96.37c0.76,0.89,2.29,0.65,2.94,1.71c0.04,0.07,0.07,0.14,0.1,0.21
		c0.13-0.37,0.25-0.73,0.38-1.1l0,0c0,0,0,0,0,0c-0.15-0.27-0.3-0.54-0.45-0.81c-0.82-0.09-1.63-0.18-2.45-0.27
		c-0.19,0.07-0.38,0.13-0.57,0.2C244.39,96.33,244.4,96.35,244.42,96.37z M247.36,98.09c-0.65-1.06-2.18-0.83-2.94-1.71
		c-0.02-0.02-0.04-0.04-0.06-0.06c-0.08,0.03-0.15,0.05-0.23,0.08c0.38,0.74,0.82,1.39,1.8,1.26c0.78-0.1,1.03,0.53,1.4,0.99
		c0.04-0.12,0.08-0.23,0.12-0.35C247.43,98.22,247.4,98.15,247.36,98.09z M247.36,98.09c-0.65-1.06-2.18-0.83-2.94-1.71
		c-0.02-0.02-0.04-0.04-0.06-0.06c-0.08,0.03-0.15,0.05-0.23,0.08c0.38,0.74,0.82,1.39,1.8,1.26c0.78-0.1,1.03,0.53,1.4,0.99
		c0.04-0.12,0.08-0.23,0.12-0.35C247.43,98.22,247.4,98.15,247.36,98.09z M253.66,114.61c-0.79-0.69-0.82,0.28-1.19,0.6
		c-0.15,0.63-1.3,1.33-0.43,1.84c0.78,0.46,1.73-0.49,2.33-1.07C254.87,115.49,254.07,114.97,253.66,114.61z M248.13,110.36
		c-1.02-0.72-2.05-1.45-3.2-2.25C245.92,111.38,246.23,111.58,248.13,110.36z M246.78,116.86c0.56-1.88,0.58-3.61,1.44-5.05
		c-0.12-0.08-0.24-0.16-0.36-0.23C246.42,112.8,245.98,114.55,246.78,116.86z M241.71,94.93c0.06,0.49-0.09,1.06,0.35,1.41
		c0.03-0.02,0.06-0.05,0.09-0.07c0.54-0.37,1.09-0.5,1.68-0.32c0.17,0.05,0.31,0.15,0.44,0.27c0.18-0.17,0.42-0.14,0.67-0.1
		c-0.03-0.2-0.07-0.4-0.1-0.6C243.65,96.16,242.82,94.75,241.71,94.93z M243.82,95.94c-0.59-0.18-1.14-0.05-1.68,0.32
		c-0.03,0.02-0.06,0.05-0.09,0.07c0.07,0.06,0.15,0.11,0.26,0.15c0.59-0.3,1.19-0.49,1.82-0.09c0.04-0.08,0.08-0.14,0.13-0.18
		C244.14,96.09,243.99,96,243.82,95.94z M243.82,95.94c-0.59-0.18-1.14-0.05-1.68,0.32c-0.03,0.02-0.06,0.05-0.09,0.07
		c0.07,0.06,0.15,0.11,0.26,0.15c0.59-0.3,1.19-0.49,1.82-0.09c0.04-0.08,0.08-0.14,0.13-0.18C244.14,96.09,243.99,96,243.82,95.94z
		 M241.55,94.46c0.1,0.14,0.15,0.3,0.17,0.47c1.1-0.18,1.94,1.24,3.12,0.59C243.61,95.56,242.83,94.23,241.55,94.46z M241.55,94.46
		c0.1,0.14,0.15,0.3,0.17,0.47c1.1-0.18,1.94,1.24,3.12,0.59C243.61,95.56,242.83,94.23,241.55,94.46z M244.26,96.21
		c0.04,0.03,0.07,0.07,0.1,0.1c0.19-0.07,0.38-0.13,0.57-0.2C244.68,96.07,244.44,96.04,244.26,96.21z M244.26,96.21
		c0.04,0.03,0.07,0.07,0.1,0.1c0.19-0.07,0.38-0.13,0.57-0.2C244.68,96.07,244.44,96.04,244.26,96.21z M244.26,96.21
		c-0.05,0.05-0.09,0.1-0.13,0.18c0.08-0.03,0.15-0.05,0.23-0.08C244.33,96.28,244.3,96.24,244.26,96.21z M244.26,96.21
		c-0.05,0.05-0.09,0.1-0.13,0.18c0.08-0.03,0.15-0.05,0.23-0.08C244.33,96.28,244.3,96.24,244.26,96.21z M244.26,96.21
		c-0.05,0.05-0.09,0.1-0.13,0.18c0.08-0.03,0.15-0.05,0.23-0.08C244.33,96.28,244.3,96.24,244.26,96.21z M244.96,103.48
		c0-0.04,0-0.09,0-0.13c0.01-0.11,0.02-0.22,0.03-0.33c-0.72-0.16-1.24,0.09-1.54,0.81c0.03,0.01,0.07,0.03,0.1,0.04
		c0.61,0.44,0.83,1.04,0.71,1.75c0.14-0.02,0.28-0.05,0.42-0.07c0.52-0.03,1.07,0.06,1.53-0.31
		C245.03,105.18,245,104.33,244.96,103.48z M245.39,103.13c-0.14-0.05-0.27-0.09-0.39-0.12c-0.01,0.11-0.03,0.22-0.03,0.33
		c0,0.04,0,0.09,0,0.13c0.04,0.85,0.07,1.7,1.25,1.76C245.38,104.76,245.24,104,245.39,103.13z M245.39,103.13
		c-0.14-0.05-0.27-0.09-0.39-0.12c-0.01,0.11-0.03,0.22-0.03,0.33c0,0.04,0,0.09,0,0.13c0.04,0.85,0.07,1.7,1.25,1.76
		C245.38,104.76,245.24,104,245.39,103.13z M244.14,105.64c0.04-0.01,0.09-0.01,0.13-0.02c0.12-0.72-0.1-1.31-0.71-1.75
		c-0.03-0.01-0.07-0.03-0.1-0.04c-0.04,0.1-0.08,0.19-0.11,0.31C243.9,104.48,243.88,105.13,244.14,105.64z M244.14,105.64
		c0.04-0.01,0.09-0.01,0.13-0.02c0.12-0.72-0.1-1.31-0.71-1.75c-0.03-0.01-0.07-0.03-0.1-0.04c-0.04,0.1-0.08,0.19-0.11,0.31
		C243.9,104.48,243.88,105.13,244.14,105.64z M246.45,89.3c-1.37,0.13-2.61,0.25-3.91,0.38C243.74,91.3,245.17,91.18,246.45,89.3z
		 M256.35,84.11c-0.94,0.02-1.83,0.09-2.7,0.48C255.25,86.35,255.32,86.34,256.35,84.11z M257.11,89.97
		c-0.94,0.02-1.83,0.09-2.7,0.48C256,92.21,256.08,92.2,257.11,89.97z M255.1,104.02c-0.8-0.37-1.41-1.02-2.57-1.07
		C253.84,104.97,253.84,104.97,255.1,104.02z M241.24,109.21v0.68c0.46,0.51,0.74,0.12,1.55-1.1
		C242.29,108.88,241.74,109.23,241.24,109.21z M240.53,108.8c0.3,0.52,0.52,0.88,0.71,1.09v-0.68
		C240.99,109.21,240.75,109.1,240.53,108.8z M240.53,108.8c0.3,0.52,0.52,0.88,0.71,1.09v-0.68
		C240.99,109.21,240.75,109.1,240.53,108.8z M241.71,108.44c-0.17,0.32-0.32,0.46-0.46,0.5v0.28c0.5,0.01,1.04-0.34,1.55-0.42
		C242.45,108.57,241.87,108.13,241.71,108.44z M241.71,108.44c-0.17,0.32-0.32,0.46-0.46,0.5v0.28c0.5,0.01,1.04-0.34,1.55-0.42
		C242.45,108.57,241.87,108.13,241.71,108.44z M240.32,108.44c0.07,0.13,0.14,0.25,0.21,0.36c0.22,0.29,0.46,0.4,0.71,0.41v-0.28
		C240.92,109.02,240.64,108.58,240.32,108.44z M240.32,108.44c0.07,0.13,0.14,0.25,0.21,0.36c0.22,0.29,0.46,0.4,0.71,0.41v-0.28
		C240.92,109.02,240.64,108.58,240.32,108.44z M240.32,108.44c0.07,0.13,0.14,0.25,0.21,0.36c0.22,0.29,0.46,0.4,0.71,0.41v-0.28
		C240.92,109.02,240.64,108.58,240.32,108.44z M263.6,90.96c-0.73,0.91,0.47,1.02,0.69,1.58c0.3-0.66,0.94-1.27,0.4-1.88
		C264.36,90.26,263.89,90.59,263.6,90.96z M251.86,93.03c-0.5,0.94,0.62,1.11,0.79,2.1c0.4-1.1,0.38-1.79-0.01-2.43
		C252.61,92.66,251.97,92.83,251.86,93.03z M250.16,108.82c0.32-0.41,0.3-0.89,0-1.19c-0.42-0.42-0.59,0.14-0.8,0.37
		c-0.3,0.33-0.56,0.69-0.18,1.14C249.58,109.23,249.9,109.15,250.16,108.82z M269.85,99.03c-0.01-0.03-0.18-0.03-0.2,0.01
		c-0.2,0.31,0.05,0.63,0.04,0.96C269.71,99.67,270.01,99.38,269.85,99.03z M247.09,95.06c-0.01,0.06,0.3,0.3,0.38,0.27
		c0.82-0.3,0.8-1.26,1.29-1.86C248.25,94.04,247.29,94.17,247.09,95.06z M247.52,98.53c0,0.01,0,0.02,0.01,0.02
		c0.01,0.1,0.02,0.19,0.03,0.29c0.18-0.03,0.37-0.07,0.55-0.1c0.16-0.24,0.32-0.48,0.49-0.71c0,0,0,0,0,0c0,0,0,0,0,0
		c0.08-0.34,0.03-0.62-0.34-0.77c-0.1-0.02-0.2-0.03-0.29-0.05C247.95,97.72,247.94,98.21,247.52,98.53z M247.52,98.53
		c-0.05,0.04-0.11,0.08-0.18,0.12c0.06,0.08,0.13,0.15,0.21,0.2c-0.01-0.1-0.02-0.2-0.03-0.29
		C247.52,98.55,247.52,98.54,247.52,98.53z M247.52,98.53c-0.05,0.04-0.11,0.08-0.18,0.12c0.06,0.08,0.13,0.15,0.21,0.2
		c-0.01-0.1-0.02-0.2-0.03-0.29C247.52,98.55,247.52,98.54,247.52,98.53z M247.96,97.22c-0.04-0.01-0.08-0.01-0.12-0.02l0,0
		c-0.13,0.37-0.25,0.73-0.38,1.1c0.03,0.08,0.05,0.16,0.06,0.24C247.94,98.21,247.95,97.72,247.96,97.22z M247.96,97.22
		c-0.04-0.01-0.08-0.01-0.12-0.02l0,0c-0.13,0.37-0.25,0.73-0.38,1.1c0.03,0.08,0.05,0.16,0.06,0.24
		C247.94,98.21,247.95,97.72,247.96,97.22z M247.46,98.3c-0.04,0.12-0.08,0.23-0.12,0.35c0.07-0.04,0.13-0.07,0.18-0.12
		C247.5,98.45,247.49,98.37,247.46,98.3z M247.46,98.3c-0.04,0.12-0.08,0.23-0.12,0.35c0.07-0.04,0.13-0.07,0.18-0.12
		C247.5,98.45,247.49,98.37,247.46,98.3z M247.46,98.3c-0.04,0.12-0.08,0.23-0.12,0.35c0.07-0.04,0.13-0.07,0.18-0.12
		C247.5,98.45,247.49,98.37,247.46,98.3z M268.26,86.45c-0.78-0.39-1.35-0.67-1.91-0.95C266.67,86.27,267.1,86.81,268.26,86.45z
		 M262.02,84.16c0.61,0.21,0.78-0.35,1.3-0.82c-0.75-0.07-1.26-0.26-1.49,0.36C261.78,83.82,261.91,84.13,262.02,84.16z
		 M247.94,97.05c0.08-0.09,0.18-0.14,0.32-0.08c0.06,0.02,0.04,0.16-0.01,0.3c0.52-0.57,0.18-1.08-0.1-1.59
		c-0.26,0.24-0.51,0.47-0.77,0.71C247.79,96.46,247.9,96.73,247.94,97.05z M247.84,97.2c0.03-0.05,0.07-0.1,0.11-0.14
		c-0.04-0.33-0.16-0.6-0.56-0.67C247.54,96.66,247.69,96.93,247.84,97.2C247.84,97.2,247.84,97.2,247.84,97.2z M247.84,97.2
		c0.03-0.05,0.07-0.1,0.11-0.14c-0.04-0.33-0.16-0.6-0.56-0.67C247.54,96.66,247.69,96.93,247.84,97.2
		C247.84,97.2,247.84,97.2,247.84,97.2z M248.27,96.97c-0.14-0.05-0.24,0-0.32,0.08c0.01,0.05,0.01,0.1,0.01,0.15c0,0,0,0.01,0,0.01
		c0.1,0.02,0.19,0.03,0.29,0.05C248.31,97.13,248.33,96.99,248.27,96.97z M248.27,96.97c-0.14-0.05-0.24,0-0.32,0.08
		c0.01,0.05,0.01,0.1,0.01,0.15c0,0,0,0.01,0,0.01c0.1,0.02,0.19,0.03,0.29,0.05C248.31,97.13,248.33,96.99,248.27,96.97z
		 M247.96,97.21c0-0.05-0.01-0.1-0.01-0.15c-0.04,0.04-0.07,0.09-0.11,0.14c0.04,0.01,0.08,0.01,0.12,0.02
		C247.96,97.21,247.96,97.21,247.96,97.21z M247.96,97.21c0-0.05-0.01-0.1-0.01-0.15c-0.04,0.04-0.07,0.09-0.11,0.14
		c0.04,0.01,0.08,0.01,0.12,0.02C247.96,97.21,247.96,97.21,247.96,97.21z M247.96,97.21c0-0.05-0.01-0.1-0.01-0.15
		c-0.04,0.04-0.07,0.09-0.11,0.14c0.04,0.01,0.08,0.01,0.12,0.02C247.96,97.21,247.96,97.21,247.96,97.21z M240.64,87.88
		c-0.06,0.26-0.17,0.52-0.19,0.78c0.22-0.11,0.44-0.21,0.66-0.32C240.88,88.26,240.76,88.07,240.64,87.88z M240.64,87.88
		c-0.06,0.26-0.17,0.52-0.19,0.78c0.22-0.11,0.44-0.21,0.66-0.32C240.88,88.26,240.76,88.07,240.64,87.88z M240.64,87.88
		c0.11,0.19,0.23,0.38,0.47,0.46c-0.11-0.45,0.02-1.01-0.56-1.24C240.71,87.37,240.7,87.63,240.64,87.88z M240.64,87.88
		c0.11,0.19,0.23,0.38,0.47,0.46c-0.11-0.45,0.02-1.01-0.56-1.24C240.71,87.37,240.7,87.63,240.64,87.88z M240.64,87.88
		c0.11,0.19,0.23,0.38,0.47,0.46c-0.11-0.45,0.02-1.01-0.56-1.24C240.71,87.37,240.7,87.63,240.64,87.88z M240.34,87.48
		c-0.22,0.38-0.41,0.75,0.11,1.18c0.02-0.26,0.13-0.52,0.19-0.78C240.56,87.73,240.47,87.59,240.34,87.48z M240.34,87.48
		c-0.22,0.38-0.41,0.75,0.11,1.18c0.02-0.26,0.13-0.52,0.19-0.78C240.56,87.73,240.47,87.59,240.34,87.48z M240.34,87.48
		c-0.22,0.38-0.41,0.75,0.11,1.18c0.02-0.26,0.13-0.52,0.19-0.78C240.56,87.73,240.47,87.59,240.34,87.48z M240.64,87.88
		c0.06-0.25,0.07-0.51-0.09-0.78c-0.06,0.13-0.14,0.25-0.21,0.38C240.47,87.59,240.56,87.73,240.64,87.88z M240.64,87.88
		c0.06-0.25,0.07-0.51-0.09-0.78c-0.06,0.13-0.14,0.25-0.21,0.38C240.47,87.59,240.56,87.73,240.64,87.88z M240.64,87.88
		c0.06-0.25,0.07-0.51-0.09-0.78c-0.06,0.13-0.14,0.25-0.21,0.38C240.47,87.59,240.56,87.73,240.64,87.88z M240.64,87.88
		c0.06-0.25,0.07-0.51-0.09-0.78c-0.06,0.13-0.14,0.25-0.21,0.38C240.47,87.59,240.56,87.73,240.64,87.88z M248.1,98.75
		c0.08,0.53,0.52,0.83,0.86,0.55c0.63-0.53-0.05-0.89-0.38-1.26C248.62,98.4,248.46,98.65,248.1,98.75z M248.1,98.75
		c0.36-0.1,0.51-0.35,0.49-0.71c0,0,0,0,0,0C248.43,98.27,248.27,98.51,248.1,98.75z M248.1,98.75c0.36-0.1,0.51-0.35,0.49-0.71
		c0,0,0,0,0,0C248.43,98.27,248.27,98.51,248.1,98.75z M244.26,105.66c0,0.02-0.01,0.04-0.01,0.07c-0.23,0.71-1.07,1.11-1,1.98
		c0.48-0.72,0.96-1.44,1.44-2.16C244.54,105.57,244.41,105.67,244.26,105.66z M244.25,105.73c0-0.02,0.01-0.04,0.01-0.07
		c-0.04,0-0.08-0.01-0.12-0.03c-0.28,0.69-1.22,1.11-0.89,2.07C243.18,106.84,244.02,106.44,244.25,105.73z M244.25,105.73
		c0-0.02,0.01-0.04,0.01-0.07c-0.04,0-0.08-0.01-0.12-0.03c-0.28,0.69-1.22,1.11-0.89,2.07
		C243.18,106.84,244.02,106.44,244.25,105.73z M244.26,105.66c0.15,0,0.28-0.09,0.43-0.12c-0.14,0.02-0.28,0.05-0.42,0.07
		C244.27,105.63,244.26,105.65,244.26,105.66z M244.26,105.66c0.15,0,0.28-0.09,0.43-0.12c-0.14,0.02-0.28,0.05-0.42,0.07
		C244.27,105.63,244.26,105.65,244.26,105.66z M244.26,105.66c0-0.02,0-0.03,0.01-0.05c-0.04,0.01-0.09,0.01-0.13,0.02
		C244.18,105.66,244.22,105.66,244.26,105.66z M244.26,105.66c0-0.02,0-0.03,0.01-0.05c-0.04,0.01-0.09,0.01-0.13,0.02
		C244.18,105.66,244.22,105.66,244.26,105.66z M244.26,105.66c0-0.02,0-0.03,0.01-0.05c-0.04,0.01-0.09,0.01-0.13,0.02
		C244.18,105.66,244.22,105.66,244.26,105.66z M262.9,87.33c-0.32-0.48-0.64-0.73-1.1-0.66c-0.08,0.01-0.21,0.37-0.15,0.44
		C261.94,87.5,262.36,87.45,262.9,87.33z M265.87,99.68c-0.08,0.01-0.21,0.37-0.15,0.44c0.29,0.39,0.71,0.33,1.25,0.21
		C266.66,99.86,266.33,99.61,265.87,99.68z M255.35,108.01c-0.6-0.4-1.04,0.35-1.36,0.83c-0.32,0.49-0.6,0.63-1.18,0.32
		c-0.56-0.29-1.02,0.23-1.49,0.48c0.29,0.47,0.58,0.93,0.77,1.25c0.88,0.6,3.13,0.16,3.36-0.66
		C255.65,109.54,256.16,108.55,255.35,108.01z M261.06,103.93c-0.73,0.91,0.47,1.02,0.69,1.58c0.3-0.66,0.94-1.27,0.4-1.88
		C261.81,103.24,261.35,103.57,261.06,103.93z M259.25,99.65c-0.08,0.01-0.21,0.37-0.15,0.44c0.29,0.39,0.71,0.33,1.25,0.21
		C260.04,99.83,259.71,99.58,259.25,99.65z M263.06,95.36c-0.08,0.01-0.21,0.37-0.15,0.44c0.29,0.39,0.71,0.33,1.25,0.21
		C263.84,95.54,263.52,95.29,263.06,95.36z M250.35,89.8c-0.09,0.26-0.03,0.57-0.04,1.17c0.34-0.16,0.7-0.22,0.74-0.37
		c0.07-0.24-0.01-0.58-0.14-0.8C250.82,89.64,250.48,89.44,250.35,89.8z M253.08,88.85c0.34-0.16,0.7-0.22,0.74-0.37
		c0.07-0.24-0.01-0.58-0.14-0.8c-0.09-0.15-0.43-0.36-0.56,0C253.03,87.94,253.1,88.26,253.08,88.85z M241.58,97.08
		c0.07-0.24,0.19-0.44,0.36-0.63c-1.01-0.17-0.64-0.87-0.46-1.49c-0.08-0.01-0.16-0.02-0.23-0.04v2.73c0.1-0.03,0.2-0.08,0.3-0.14
		C241.53,97.36,241.54,97.22,241.58,97.08z M240.9,94.62c-0.11,0.19-0.23,0.39-0.34,0.58c-0.16,0.4-0.31,0.8-0.36,1.21
		c0.08,0.27,0.12,0.54,0.07,0.79c0.05,0.16,0.11,0.31,0.21,0.47c0.27,0.06,0.52,0.05,0.76-0.03v-2.73
		C241.1,94.88,240.97,94.8,240.9,94.62z M240.9,94.62c-0.11,0.19-0.23,0.39-0.34,0.58c-0.16,0.4-0.31,0.8-0.36,1.21
		c0.08,0.27,0.12,0.54,0.07,0.79c0.05,0.16,0.11,0.31,0.21,0.47c0.27,0.06,0.52,0.05,0.76-0.03v-2.73
		C241.1,94.88,240.97,94.8,240.9,94.62z M241.58,97.08c-0.04,0.14-0.05,0.28-0.04,0.42c0.06-0.04,0.12-0.07,0.17-0.12
		c0.2-0.3,0.4-0.6,0.61-0.9c-0.15-0.01-0.27-0.02-0.38-0.04C241.77,96.63,241.64,96.84,241.58,97.08z M241.58,97.08
		c-0.04,0.14-0.05,0.28-0.04,0.42c0.06-0.04,0.12-0.07,0.17-0.12c0.2-0.3,0.4-0.6,0.61-0.9c-0.15-0.01-0.27-0.02-0.38-0.04
		C241.77,96.63,241.64,96.84,241.58,97.08z M241.48,94.96c0.05-0.18,0.09-0.35,0.07-0.5c-0.1,0.03-0.2,0.05-0.3,0.08v0.38
		C241.32,94.94,241.4,94.95,241.48,94.96z M241.48,94.96c0.05-0.18,0.09-0.35,0.07-0.5c-0.1,0.03-0.2,0.05-0.3,0.08v0.38
		C241.32,94.94,241.4,94.95,241.48,94.96z M241.24,94.92v-0.38c-0.12,0.03-0.23,0.06-0.35,0.09
		C240.97,94.8,241.1,94.88,241.24,94.92z M241.24,94.92v-0.38c-0.12,0.03-0.23,0.06-0.35,0.09C240.97,94.8,241.1,94.88,241.24,94.92
		z M241.24,94.92v-0.38c-0.12,0.03-0.23,0.06-0.35,0.09C240.97,94.8,241.1,94.88,241.24,94.92z M241.48,94.96
		c-0.18,0.62-0.55,1.32,0.46,1.49c0.01-0.01,0.01-0.02,0.02-0.03c0.03-0.03,0.07-0.06,0.1-0.09c-0.44-0.35-0.29-0.92-0.35-1.41
		c-0.06,0.01-0.12,0.02-0.18,0.04C241.51,94.96,241.5,94.96,241.48,94.96z M241.48,94.96c-0.18,0.62-0.55,1.32,0.46,1.49
		c0.01-0.01,0.01-0.02,0.02-0.03c0.03-0.03,0.07-0.06,0.1-0.09c-0.44-0.35-0.29-0.92-0.35-1.41c-0.06,0.01-0.12,0.02-0.18,0.04
		C241.51,94.96,241.5,94.96,241.48,94.96z M241.96,96.42c-0.01,0.01-0.01,0.02-0.02,0.03c0.11,0.02,0.23,0.03,0.38,0.04
		c-0.11-0.04-0.19-0.09-0.26-0.15C242.03,96.36,241.99,96.39,241.96,96.42z M241.96,96.42c-0.01,0.01-0.01,0.02-0.02,0.03
		c0.11,0.02,0.23,0.03,0.38,0.04c-0.11-0.04-0.19-0.09-0.26-0.15C242.03,96.36,241.99,96.39,241.96,96.42z M241.96,96.42
		c-0.01,0.01-0.01,0.02-0.02,0.03c0.11,0.02,0.23,0.03,0.38,0.04c-0.11-0.04-0.19-0.09-0.26-0.15
		C242.03,96.36,241.99,96.39,241.96,96.42z M241.48,94.96c0.02,0,0.03,0,0.05,0.01c0.06-0.02,0.12-0.03,0.18-0.04
		c-0.02-0.17-0.06-0.33-0.17-0.47C241.57,94.61,241.53,94.78,241.48,94.96z M241.48,94.96c0.02,0,0.03,0,0.05,0.01
		c0.06-0.02,0.12-0.03,0.18-0.04c-0.02-0.17-0.06-0.33-0.17-0.47C241.57,94.61,241.53,94.78,241.48,94.96z M241.48,94.96
		c0.02,0,0.03,0,0.05,0.01c0.06-0.02,0.12-0.03,0.18-0.04c-0.02-0.17-0.06-0.33-0.17-0.47C241.57,94.61,241.53,94.78,241.48,94.96z
		 M240.2,96.41c-0.03,0.26-0.01,0.53,0.07,0.79C240.33,96.95,240.28,96.69,240.2,96.41z M240.2,96.41
		c-0.03,0.26-0.01,0.53,0.07,0.79C240.33,96.95,240.28,96.69,240.2,96.41z M240.2,96.41c-0.03,0.26-0.01,0.53,0.07,0.79
		C240.33,96.95,240.28,96.69,240.2,96.41z M242.91,99.67c0.68,0.9,1.37,1.81,2.05,2.71c-0.12-0.62-0.43-1.2-0.35-1.86
		c0.07-0.57-0.29-0.93-0.83-1.09c-0.57-0.17-1.14-0.31-1.59-0.73C242.08,99.18,242.81,99.28,242.91,99.67z M244.61,100.52
		c-0.08,0.66,0.23,1.25,0.35,1.86c0.17,0.22,0.34,0.44,0.5,0.66c0.52-0.91-0.74-1.49-0.41-2.44c0.39-1.13-0.31-1.54-1.35-1.68
		c-0.47-0.06-0.91-0.34-1.37-0.52c-0.08,0.12-0.13,0.21-0.15,0.3c0.44,0.42,1.02,0.57,1.59,0.73
		C244.32,99.59,244.68,99.95,244.61,100.52z M244.61,100.52c-0.08,0.66,0.23,1.25,0.35,1.86c0.17,0.22,0.34,0.44,0.5,0.66
		c0.52-0.91-0.74-1.49-0.41-2.44c0.39-1.13-0.31-1.54-1.35-1.68c-0.47-0.06-0.91-0.34-1.37-0.52c-0.08,0.12-0.13,0.21-0.15,0.3
		c0.44,0.42,1.02,0.57,1.59,0.73C244.32,99.59,244.68,99.95,244.61,100.52z M251.21,98.68l0.02,2.04l1.76-1.04L251.21,98.68z
		 M249.2,116.13l1.76-1.04l-1.78-1L249.2,116.13z M104.61,103.13c0.14-0.05,0.27-0.09,0.39-0.12c-0.01-0.04-0.01-0.09-0.01-0.13
		c-0.01-0.17,0.01-0.34,0.05-0.5c-0.17,0.22-0.34,0.44-0.5,0.66c-0.52-0.91,0.74-1.49,0.41-2.44c-0.39-1.13,0.31-1.54,1.35-1.68
		c0.47-0.06,0.91-0.34,1.37-0.52c0.09,0.12,0.13,0.21,0.15,0.3c0.02-0.02,0.05-0.04,0.07-0.07c0.26-0.29,0.46-0.6,0.55-0.97
		c0.01-0.05,0.02-0.11,0.03-0.16c-0.06-0.04-0.12-0.07-0.17-0.12c-0.2-0.3-0.4-0.6-0.61-0.9c-0.59-0.3-1.19-0.49-1.82-0.09
		c-0.38,0.74-0.82,1.39-1.8,1.26c-0.78-0.1-1.03,0.53-1.4,0.99c-0.06,0.08-0.13,0.15-0.21,0.2c-0.22,0.99-0.82,1.95,0.08,2.96
		c0.43,0.48-0.18,0.78-0.52,0.97c-0.87,0.49-1.41,1.19-0.94,2.12c0.39,0.76,1.3,0.42,2.01,0.45c0.23,0.01,0.47-0.07,0.71-0.11
		C104.62,104.76,104.76,104,104.61,103.13z M108.45,94.46c0.22,0.06,0.43,0.11,0.65,0.17c-0.24-1.48,0.19-1.98,0.86-2.14v-2.92
		c-0.08,0.01-0.17,0.03-0.26,0.07c-0.45,0.8-1.31,1.12-1.97,1.69c-0.55,0.47-1.28,0.75-1.03,1.75c0.19,0.79-0.51,0.84-1.06,0.95
		c-1.07,0.21-0.91,0.81-0.48,1.5C106.39,95.56,107.17,94.23,108.45,94.46z M107.65,104.2c-0.21-0.7-0.65-0.57-1.11-0.38
		c0.04,0.1,0.08,0.19,0.11,0.31c-0.55,0.35-0.53,1-0.79,1.51c0.28,0.69,1.22,1.11,0.89,2.07c-0.25,0.53,0.24,0.75,0.46,1.09
		c0.35-0.22,0.92-0.66,1.09-0.35c0.55,1.04,0.94,0.2,1.39,0c0.1-0.13,0.19-0.27,0.29-0.4v-3.07
		C109.16,104.81,108.35,104.69,107.65,104.2z M109.68,108.44c-0.07,0.13-0.14,0.25-0.21,0.36
		C109.54,108.7,109.61,108.59,109.68,108.44z M110.53,105.11c-0.19-0.05-0.38-0.09-0.57-0.14v3.07
		C110.58,107.17,111.09,106.28,110.53,105.11z M110.53,105.11c-0.19-0.05-0.38-0.09-0.57-0.14v3.07
		C110.58,107.17,111.09,106.28,110.53,105.11z M109.44,87.1c0.16-0.15,0.33-0.25,0.52-0.32v-1.46c-0.08,0.01-0.18,0.01-0.3-0.01
		c-1.33-0.28-1.66,0.71-2.01,1.39c-0.53,1.04,1.03,0.91,1.22,1.64C108.99,87.89,108.86,87.33,109.44,87.1z M109.93,76.86
		c0.01-0.03,0.02-0.05,0.03-0.08v-0.71c-0.14-0.19-0.41-0.29-0.72-0.35c-0.76-0.13-0.53,0.57-0.55,0.88
		c-0.09,1.04-0.1,1.92-1.62,1.87c-0.65-0.02-1.04,0.93-1.03,1.7c0.01,0.84-0.2,1.77,0.61,2.4c0.13,0.1,0.32,0.11,0.51,0.16
		c0.37-0.6,0.25-1.22,0.23-1.82c-0.01-0.48-0.24-1.05,0.32-1.34c0.49-0.26,0.75,0.31,1.11,0.48c0.38,0.18,0.7,0.6,1.14,0.32v-1.48
		C109.83,78.2,109.63,77.52,109.93,76.86z M110,79.05c-0.01-0.06-0.02-0.11-0.03-0.17v1.48c0,0,0.01,0,0.01-0.01
		C110.53,79.97,110.07,79.47,110,79.05z M110,79.05c-0.01-0.06-0.02-0.11-0.03-0.17v1.48c0,0,0.01,0,0.01-0.01
		C110.53,79.97,110.07,79.47,110,79.05z M109.96,76.06v0.71C110.09,76.45,110.08,76.23,109.96,76.06z M109.96,76.06v0.71
		C110.09,76.45,110.08,76.23,109.96,76.06z M90.34,93.73c0.24-0.16,0.04-0.38,0.01-0.56c-0.06-0.31-0.17-0.63-0.03-0.94
		c0.15-0.33-0.04-0.44-0.3-0.49C89.7,91.7,89.8,92,89.79,92.13c-0.04,0.45-0.04,0.82-0.69,0.8c-0.28-0.01-0.44,0.4-0.44,0.73
		c0,0.36-0.09,0.75,0.26,1.03c0.05,0.04,0.14,0.04,0.22,0.07c0.16-0.26,0.11-0.52,0.1-0.78c-0.01-0.2-0.1-0.45,0.14-0.57
		c0.21-0.11,0.32,0.13,0.48,0.2C90.01,93.68,90.15,93.87,90.34,93.73z M102.95,83.79c0.34-0.2,0.65-0.49,1.09-0.25
		c1.41-1.2,0.61-3.05,1.59-4.55c-3.01,1.14-3.01,1.14-4.69,5.12C101.64,83.99,102.3,83.89,102.95,83.79L102.95,83.79z M109.96,87.28
		c-0.07,0.04-0.13,0.08-0.19,0.12c-0.04,0.02-0.08,0.05-0.11,0.07c0.22,0.38,0.41,0.75-0.11,1.18c0.05,0.32,0.11,0.65,0.16,0.97
		c0.09-0.09,0.17-0.16,0.26-0.22V87.28z M109.96,89.4c-0.08,0.06-0.17,0.13-0.26,0.22c0.09-0.03,0.17-0.05,0.26-0.07V89.4z
		 M109.96,89.4c-0.08,0.06-0.17,0.13-0.26,0.22c0.09-0.03,0.17-0.05,0.26-0.07V89.4z M109.44,87.1c0.06,0.13,0.14,0.25,0.21,0.38
		c0.03-0.03,0.07-0.05,0.11-0.07c0.06-0.05,0.13-0.09,0.19-0.12v-0.5C109.78,86.85,109.6,86.95,109.44,87.1z M109.44,87.1
		c0.06,0.13,0.14,0.25,0.21,0.38c0.03-0.03,0.07-0.05,0.11-0.07c0.06-0.05,0.13-0.09,0.19-0.12v-0.5
		C109.78,86.85,109.6,86.95,109.44,87.1z M102.95,83.79L102.95,83.79c0.55,1.56-1.38,1.16-1.67,2.2c0.52,0.39,1.06,0.85,1.67,1.21
		c0.5,0.29,0.99,1.22,1.66,0.29c0.49-0.68,1.36-1.35,0.26-2.34c-0.4-0.36-1.18-0.77-0.83-1.62
		C103.64,83.46,103.39,84.04,102.95,83.79z M102.95,83.79c0.44,0.25,0.69-0.33,1.09-0.25C103.6,83.3,103.29,83.59,102.95,83.79z
		 M102.95,83.79c0.44,0.25,0.69-0.33,1.09-0.25C103.6,83.3,103.29,83.59,102.95,83.79z M95.36,97.91c0.19-0.31,0.48-0.78,0.77-1.25
		c-0.47-0.25-0.93-0.78-1.49-0.48c-0.58,0.3-0.86,0.17-1.18-0.32c-0.32-0.48-0.76-1.23-1.36-0.83c-0.81,0.54-0.3,1.53-0.1,2.22
		C92.23,98.07,94.48,98.51,95.36,97.91z M109.96,103.63v-1.47c-0.23,0.11-0.41,0.25-0.47,0.3
		C108.86,103.01,109.57,103.28,109.96,103.63z M97.62,78.97c1.18,0.65,2.08,0.66,2.64-0.74c-1.9-1.18-1.9-1.18-0.52-2.52
		c-0.97-0.19-2.01-0.66-2.24,0.71C97.36,77.21,96.15,78.16,97.62,78.97z M106.85,114.54c-0.72,0.35-1.18,2.26-0.75,2.97
		c0.35,0.33,1.11,0.73,1.23,0.49c0.57-1.18,1.13-2.44,1.28-3.71C108.65,113.91,107.43,114.26,106.85,114.54z M109.75,118.1
		c-0.48,0.25-0.89,0.76-1.15,1.25c-0.2,0.37-0.02,0.91,0.46,1.05c0.71,0.21,0.8,0.66,0.66,1.27c0.1,0.02,0.18,0,0.24-0.04v-3.59
		C109.9,118.04,109.83,118.06,109.75,118.1z M105.2,118.24c-0.3-0.25-0.37-0.98-0.88-0.71c-0.48,0.25-0.89,0.76-1.15,1.25
		c-0.2,0.37-0.02,0.91,0.46,1.05c0.71,0.21,0.8,0.66,0.66,1.27c0.13,0.03,0.23,0,0.29-0.07c0.06-0.08,0.09-0.13,0.07-0.16
		C104.87,120,106.73,119.47,105.2,118.24z M102.16,97.2L102.16,97.2c0.13,0.37,0.25,0.73,0.38,1.1c0.03-0.07,0.06-0.15,0.1-0.21
		c0.65-1.06,2.18-0.83,2.94-1.71c0.02-0.02,0.04-0.04,0.06-0.06c-0.19-0.07-0.38-0.13-0.57-0.2c-0.82,0.09-1.63,0.18-2.45,0.27
		C102.46,96.66,102.31,96.93,102.16,97.2L102.16,97.2z M105.58,96.37c-0.76,0.89-2.29,0.65-2.94,1.71c-0.04,0.07-0.07,0.14-0.1,0.21
		c0.04,0.12,0.08,0.23,0.12,0.35c0.37-0.46,0.62-1.09,1.4-0.99c0.98,0.13,1.42-0.52,1.8-1.26c-0.08-0.03-0.15-0.05-0.23-0.08
		C105.61,96.33,105.59,96.35,105.58,96.37z M105.58,96.37c-0.76,0.89-2.29,0.65-2.94,1.71c-0.04,0.07-0.07,0.14-0.1,0.21
		c0.04,0.12,0.08,0.23,0.12,0.35c0.37-0.46,0.62-1.09,1.4-0.99c0.98,0.13,1.42-0.52,1.8-1.26c-0.08-0.03-0.15-0.05-0.23-0.08
		C105.61,96.33,105.59,96.35,105.58,96.37z M96.34,114.61c-0.41,0.36-1.21,0.88-0.71,1.37c0.6,0.58,1.55,1.53,2.33,1.07
		c0.86-0.51-0.29-1.21-0.43-1.84C97.16,114.89,97.13,113.92,96.34,114.61z M105.07,108.11c-1.14,0.8-2.18,1.53-3.2,2.25
		C103.77,111.58,104.08,111.38,105.07,108.11z M103.22,116.86c0.79-2.3,0.36-4.05-1.08-5.29c-0.12,0.08-0.24,0.16-0.36,0.23
		C102.64,113.25,102.66,114.97,103.22,116.86z M105.73,96.21c0.13-0.12,0.27-0.21,0.44-0.27c0.59-0.18,1.14-0.05,1.68,0.32
		c0.03,0.02,0.06,0.05,0.09,0.07c0.44-0.35,0.29-0.92,0.35-1.41c-1.1-0.18-1.94,1.24-3.12,0.59c-0.03,0.2-0.07,0.4-0.1,0.6
		C105.31,96.07,105.56,96.04,105.73,96.21z M107.85,96.26c-0.54-0.37-1.09-0.5-1.68-0.32c-0.17,0.05-0.31,0.15-0.44,0.27
		c0.05,0.05,0.09,0.1,0.13,0.18c0.63-0.4,1.23-0.21,1.82,0.09c0.11-0.04,0.19-0.09,0.26-0.15
		C107.91,96.31,107.88,96.28,107.85,96.26z M107.85,96.26c-0.54-0.37-1.09-0.5-1.68-0.32c-0.17,0.05-0.31,0.15-0.44,0.27
		c0.05,0.05,0.09,0.1,0.13,0.18c0.63-0.4,1.23-0.21,1.82,0.09c0.11-0.04,0.19-0.09,0.26-0.15
		C107.91,96.31,107.88,96.28,107.85,96.26z M108.29,94.93c0.02-0.17,0.06-0.33,0.17-0.47c-1.28-0.22-2.06,1.1-3.29,1.06
		C106.35,96.16,107.18,94.75,108.29,94.93z M108.29,94.93c0.02-0.17,0.06-0.33,0.17-0.47c-1.28-0.22-2.06,1.1-3.29,1.06
		C106.35,96.16,107.18,94.75,108.29,94.93z M105.73,96.21c-0.18-0.17-0.42-0.14-0.67-0.1c0.19,0.07,0.38,0.13,0.57,0.2
		C105.67,96.28,105.7,96.24,105.73,96.21z M105.73,96.21c-0.18-0.17-0.42-0.14-0.67-0.1c0.19,0.07,0.38,0.13,0.57,0.2
		C105.67,96.28,105.7,96.24,105.73,96.21z M105.63,96.31c0.08,0.03,0.15,0.05,0.23,0.08c-0.04-0.08-0.08-0.14-0.13-0.18
		C105.7,96.24,105.67,96.28,105.63,96.31z M105.63,96.31c0.08,0.03,0.15,0.05,0.23,0.08c-0.04-0.08-0.08-0.14-0.13-0.18
		C105.7,96.24,105.67,96.28,105.63,96.31z M105.63,96.31c0.08,0.03,0.15,0.05,0.23,0.08c-0.04-0.08-0.08-0.14-0.13-0.18
		C105.7,96.24,105.67,96.28,105.63,96.31z M106.44,103.86c0.03-0.01,0.07-0.03,0.1-0.04c-0.29-0.72-0.82-0.97-1.54-0.81
		c0.01,0.11,0.03,0.22,0.03,0.33c0,0.04,0,0.09,0,0.13c-0.04,0.85-0.07,1.7-1.25,1.76c0.45,0.38,1,0.29,1.53,0.31
		c0.14,0.02,0.28,0.05,0.42,0.07C105.61,104.9,105.83,104.31,106.44,103.86z M105.04,103.48c0-0.04,0-0.09,0-0.13
		c-0.01-0.11-0.02-0.22-0.03-0.33c-0.12,0.03-0.25,0.06-0.39,0.12c0.15,0.87,0.01,1.62-0.83,2.11
		C104.97,105.18,105,104.33,105.04,103.48z M105.04,103.48c0-0.04,0-0.09,0-0.13c-0.01-0.11-0.02-0.22-0.03-0.33
		c-0.12,0.03-0.25,0.06-0.39,0.12c0.15,0.87,0.01,1.62-0.83,2.11C104.97,105.18,105,104.33,105.04,103.48z M105.73,105.62
		c0.04,0.01,0.09,0.01,0.13,0.02c0.26-0.51,0.24-1.15,0.79-1.51c-0.03-0.11-0.07-0.21-0.11-0.31c-0.03,0.01-0.07,0.03-0.1,0.04
		C105.83,104.31,105.61,104.9,105.73,105.62z M105.73,105.62c0.04,0.01,0.09,0.01,0.13,0.02c0.26-0.51,0.24-1.15,0.79-1.51
		c-0.03-0.11-0.07-0.21-0.11-0.31c-0.03,0.01-0.07,0.03-0.1,0.04C105.83,104.31,105.61,104.9,105.73,105.62z M107.46,89.67
		c-1.31-0.13-2.55-0.24-3.91-0.38C104.82,91.18,106.25,91.3,107.46,89.67z M96.35,84.59c-0.88-0.4-1.76-0.46-2.7-0.48
		C94.68,86.34,94.75,86.35,96.35,84.59z M95.59,90.45c-0.88-0.4-1.76-0.46-2.7-0.48C93.92,92.2,94,92.21,95.59,90.45z M97.47,102.95
		c-1.16,0.05-1.77,0.7-2.57,1.07C96.16,104.97,96.16,104.97,97.47,102.95z M107.2,108.79c1.15,1.71,1.22,1.81,2.26,0.01
		C108.84,109.67,107.98,108.92,107.2,108.79z M108.29,108.44c-0.16-0.31-0.74,0.13-1.09,0.35c0.77,0.13,1.63,0.88,2.26,0.01
		c0.07-0.11,0.13-0.23,0.21-0.36C109.23,108.64,108.84,109.48,108.29,108.44z M108.29,108.44c-0.16-0.31-0.74,0.13-1.09,0.35
		c0.77,0.13,1.63,0.88,2.26,0.01c0.07-0.11,0.13-0.23,0.21-0.36C109.23,108.64,108.84,109.48,108.29,108.44z M86.4,90.96
		c-0.29-0.36-0.75-0.7-1.09-0.31c-0.53,0.61,0.1,1.23,0.4,1.88C85.93,91.98,87.13,91.87,86.4,90.96z M97.36,92.7
		c-0.39,0.64-0.41,1.33-0.01,2.43c0.16-0.99,1.29-1.16,0.79-2.1C98.03,92.83,97.39,92.66,97.36,92.7z M99.83,107.62
		c-0.3,0.3-0.32,0.78,0,1.19c0.26,0.33,0.59,0.42,0.98,0.32c0.38-0.45,0.12-0.81-0.18-1.14C100.43,107.77,100.25,107.2,99.83,107.62
		z M80.15,99.03c-0.16,0.35,0.13,0.64,0.16,0.97c-0.01-0.33,0.24-0.65,0.04-0.96C80.33,99,80.16,99,80.15,99.03z M102.52,95.33
		c0.09,0.03,0.4-0.21,0.38-0.27c-0.19-0.89-1.16-1.02-1.67-1.59C101.72,94.08,101.7,95.03,102.52,95.33z M102.48,98.53
		c-0.42-0.32-0.43-0.82-0.44-1.32c-0.1,0.02-0.19,0.03-0.29,0.05c-0.37,0.14-0.42,0.42-0.34,0.77c0,0,0,0,0,0c0,0,0,0,0,0
		c0.16,0.24,0.32,0.48,0.49,0.71c0.18,0.03,0.37,0.07,0.55,0.1c0.01-0.1,0.02-0.2,0.03-0.29C102.48,98.55,102.48,98.54,102.48,98.53
		z M102.48,98.53c0,0.01,0,0.02-0.01,0.02c-0.01,0.1-0.02,0.19-0.03,0.29c0.08-0.06,0.15-0.12,0.21-0.2
		C102.59,98.61,102.54,98.58,102.48,98.53z M102.48,98.53c0,0.01,0,0.02-0.01,0.02c-0.01,0.1-0.02,0.19-0.03,0.29
		c0.08-0.06,0.15-0.12,0.21-0.2C102.59,98.61,102.54,98.58,102.48,98.53z M102.16,97.2L102.16,97.2c-0.04,0.01-0.08,0.01-0.12,0.02
		c0.01,0.5,0.02,0.99,0.44,1.32c0.01-0.08,0.03-0.16,0.06-0.24C102.41,97.93,102.29,97.56,102.16,97.2z M102.16,97.2L102.16,97.2
		c-0.04,0.01-0.08,0.01-0.12,0.02c0.01,0.5,0.02,0.99,0.44,1.32c0.01-0.08,0.03-0.16,0.06-0.24
		C102.41,97.93,102.29,97.56,102.16,97.2z M102.48,98.53c0.05,0.04,0.11,0.08,0.18,0.12c-0.04-0.12-0.08-0.23-0.12-0.35
		C102.51,98.37,102.5,98.45,102.48,98.53z M102.48,98.53c0.05,0.04,0.11,0.08,0.18,0.12c-0.04-0.12-0.08-0.23-0.12-0.35
		C102.51,98.37,102.5,98.45,102.48,98.53z M102.48,98.53c0.05,0.04,0.11,0.08,0.18,0.12c-0.04-0.12-0.08-0.23-0.12-0.35
		C102.51,98.37,102.5,98.45,102.48,98.53z M83.65,85.5c-0.56,0.28-1.12,0.56-1.91,0.95C82.9,86.81,83.33,86.27,83.65,85.5z
		 M87.98,84.16c0.11-0.04,0.24-0.34,0.19-0.46c-0.23-0.62-0.74-0.43-1.49-0.36C87.2,83.82,87.37,84.38,87.98,84.16z M101.73,96.97
		c0.14-0.05,0.24,0,0.32,0.08c0.04-0.33,0.16-0.6,0.56-0.67c-0.26-0.24-0.51-0.47-0.77-0.71c-0.28,0.52-0.62,1.03-0.1,1.59
		C101.69,97.13,101.67,96.99,101.73,96.97z M102.05,97.05c0.04,0.04,0.07,0.09,0.11,0.14l0,0c0.15-0.27,0.3-0.54,0.45-0.81
		C102.21,96.46,102.09,96.73,102.05,97.05z M102.05,97.05c0.04,0.04,0.07,0.09,0.11,0.14l0,0c0.15-0.27,0.3-0.54,0.45-0.81
		C102.21,96.46,102.09,96.73,102.05,97.05z M102.04,97.21c0-0.05,0.01-0.1,0.01-0.15c-0.08-0.09-0.18-0.14-0.32-0.08
		c-0.06,0.02-0.04,0.16,0.01,0.3c0.1-0.02,0.2-0.03,0.29-0.05C102.04,97.21,102.04,97.21,102.04,97.21z M102.04,97.21
		c0-0.05,0.01-0.1,0.01-0.15c-0.08-0.09-0.18-0.14-0.32-0.08c-0.06,0.02-0.04,0.16,0.01,0.3c0.1-0.02,0.2-0.03,0.29-0.05
		C102.04,97.21,102.04,97.21,102.04,97.21z M102.05,97.05c-0.01,0.05-0.01,0.1-0.01,0.15c0,0,0,0.01,0,0.01
		c0.04-0.01,0.08-0.01,0.12-0.02C102.13,97.15,102.09,97.1,102.05,97.05z M102.05,97.05c-0.01,0.05-0.01,0.1-0.01,0.15
		c0,0,0,0.01,0,0.01c0.04-0.01,0.08-0.01,0.12-0.02C102.13,97.15,102.09,97.1,102.05,97.05z M102.05,97.05
		c-0.01,0.05-0.01,0.1-0.01,0.15c0,0,0,0.01,0,0.01c0.04-0.01,0.08-0.01,0.12-0.02C102.13,97.15,102.09,97.1,102.05,97.05z
		 M108.88,88.34c0.22,0.11,0.44,0.21,0.66,0.32c-0.02-0.26-0.13-0.52-0.19-0.78C109.24,88.07,109.12,88.26,108.88,88.34z
		 M109.35,87.88c-0.06-0.25-0.07-0.51,0.09-0.78c-0.59,0.23-0.46,0.79-0.56,1.24C109.12,88.26,109.24,88.07,109.35,87.88z
		 M109.35,87.88c-0.06-0.25-0.07-0.51,0.09-0.78c-0.59,0.23-0.46,0.79-0.56,1.24C109.12,88.26,109.24,88.07,109.35,87.88z
		 M109.66,87.48c-0.13,0.11-0.22,0.25-0.3,0.4c0.06,0.26,0.17,0.52,0.19,0.78C110.07,88.23,109.88,87.86,109.66,87.48z
		 M109.66,87.48c-0.13,0.11-0.22,0.25-0.3,0.4c0.06,0.26,0.17,0.52,0.19,0.78C110.07,88.23,109.88,87.86,109.66,87.48z
		 M109.35,87.88c0.09-0.15,0.17-0.29,0.3-0.4c-0.08-0.13-0.16-0.25-0.21-0.38C109.28,87.37,109.3,87.63,109.35,87.88z M109.35,87.88
		c0.09-0.15,0.17-0.29,0.3-0.4c-0.08-0.13-0.16-0.25-0.21-0.38C109.28,87.37,109.3,87.63,109.35,87.88z M109.35,87.88
		c0.09-0.15,0.17-0.29,0.3-0.4c-0.08-0.13-0.16-0.25-0.21-0.38C109.28,87.37,109.3,87.63,109.35,87.88z M101.41,98.04
		c-0.33,0.37-1,0.74-0.38,1.26c0.34,0.29,0.79-0.02,0.86-0.55C101.53,98.65,101.38,98.4,101.41,98.04z M101.41,98.04
		c-0.03,0.37,0.13,0.61,0.49,0.71C101.73,98.51,101.57,98.27,101.41,98.04C101.41,98.04,101.41,98.04,101.41,98.04z M101.41,98.04
		c-0.03,0.37,0.13,0.61,0.49,0.71C101.73,98.51,101.57,98.27,101.41,98.04C101.41,98.04,101.41,98.04,101.41,98.04z M105.75,105.73
		c0-0.02-0.01-0.04-0.01-0.07c-0.15,0-0.28-0.09-0.43-0.12c0.48,0.72,0.96,1.44,1.44,2.16
		C106.82,106.84,105.98,106.44,105.75,105.73z M105.86,105.64c-0.04,0.02-0.08,0.02-0.12,0.03c0,0.02,0.01,0.04,0.01,0.07
		c0.23,0.71,1.07,1.11,1,1.98C107.08,106.75,106.15,106.33,105.86,105.64z M105.86,105.64c-0.04,0.02-0.08,0.02-0.12,0.03
		c0,0.02,0.01,0.04,0.01,0.07c0.23,0.71,1.07,1.11,1,1.98C107.08,106.75,106.15,106.33,105.86,105.64z M105.74,105.66
		c0-0.02,0-0.03-0.01-0.05c-0.14-0.02-0.28-0.05-0.42-0.07C105.45,105.57,105.59,105.67,105.74,105.66z M105.74,105.66
		c0-0.02,0-0.03-0.01-0.05c-0.14-0.02-0.28-0.05-0.42-0.07C105.45,105.57,105.59,105.67,105.74,105.66z M105.74,105.66
		c0.04,0,0.08-0.01,0.12-0.03c-0.04-0.01-0.09-0.01-0.13-0.02C105.73,105.63,105.73,105.65,105.74,105.66z M105.74,105.66
		c0.04,0,0.08-0.01,0.12-0.03c-0.04-0.01-0.09-0.01-0.13-0.02C105.73,105.63,105.73,105.65,105.74,105.66z M105.74,105.66
		c0.04,0,0.08-0.01,0.12-0.03c-0.04-0.01-0.09-0.01-0.13-0.02C105.73,105.63,105.73,105.65,105.74,105.66z M87.1,87.33
		c0.54,0.12,0.96,0.17,1.25-0.21c0.06-0.07-0.07-0.43-0.15-0.44C87.74,86.6,87.42,86.85,87.1,87.33z M84.13,99.68
		c-0.46-0.07-0.78,0.18-1.1,0.66c0.54,0.12,0.96,0.17,1.25-0.21C84.33,100.05,84.2,99.7,84.13,99.68z M97.18,109.16
		c-0.58,0.3-0.86,0.17-1.18-0.32c-0.32-0.48-0.76-1.23-1.36-0.83c-0.81,0.54-0.3,1.53-0.1,2.22c0.23,0.82,2.48,1.26,3.36,0.66
		c0.19-0.31,0.48-0.78,0.77-1.25C98.2,109.4,97.74,108.87,97.18,109.16z M87.85,103.63c-0.53,0.61,0.1,1.23,0.4,1.88
		c0.23-0.56,1.42-0.67,0.69-1.58C88.65,103.57,88.19,103.24,87.85,103.63z M90.75,99.65c-0.46-0.07-0.78,0.18-1.1,0.66
		c0.54,0.12,0.96,0.17,1.25-0.21C90.96,100.02,90.83,99.66,90.75,99.65z M86.94,95.36c-0.46-0.07-0.78,0.18-1.1,0.66
		c0.54,0.12,0.96,0.17,1.25-0.21C87.15,95.73,87.02,95.38,86.94,95.36z M128.92,134.31c0.13-0.66-0.38-0.91-0.92-1.56
		C128.2,133.62,128.49,133.99,128.92,134.31z M128.92,134.31c0.13-0.66-0.38-0.91-0.92-1.56
		C128.2,133.62,128.49,133.99,128.92,134.31z M99.65,89.8c-0.13-0.36-0.47-0.15-0.56,0c-0.13,0.23-0.21,0.56-0.14,0.8
		c0.05,0.15,0.4,0.21,0.74,0.37C99.68,90.37,99.74,90.06,99.65,89.8z M96.18,88.48c0.05,0.15,0.4,0.21,0.74,0.37
		c-0.01-0.6,0.05-0.91-0.04-1.17c-0.13-0.36-0.47-0.15-0.56,0C96.18,87.91,96.1,88.25,96.18,88.48z M122.91,133.88
		c0.12,0.89,0.38,1.12,0.85,1.23C123.77,134.48,123.26,134.52,122.91,133.88z M122.91,133.88c0.12,0.89,0.38,1.12,0.85,1.23
		C123.77,134.48,123.26,134.52,122.91,133.88z M127,91.53c-0.08,0.14-0.1,0.31-0.17,0.5c0.45-0.06,0.9-0.28,0.82-0.6
		C127.54,91.05,127.18,91.24,127,91.53z M127,91.53c-0.08,0.14-0.1,0.31-0.17,0.5c0.45-0.06,0.9-0.28,0.82-0.6
		C127.54,91.05,127.18,91.24,127,91.53z M109.73,97.2c0.03,0.16,0.11,0.3,0.23,0.44v-1.71c-0.06,0.16-0.12,0.32-0.16,0.48
		C109.83,96.68,109.81,96.94,109.73,97.2z M109.52,97.68c0.1-0.16,0.16-0.32,0.21-0.47c-0.05-0.25-0.01-0.52,0.07-0.79
		c-0.05-0.41-0.2-0.81-0.36-1.21c-0.11-0.19-0.23-0.39-0.34-0.58c-0.11,0.26-0.34,0.31-0.58,0.34c0.18,0.62,0.55,1.32-0.46,1.49
		c0.17,0.19,0.29,0.39,0.36,0.63c0.04,0.14,0.05,0.28,0.04,0.42C108.78,97.71,109.13,97.77,109.52,97.68z M108.42,97.08
		c-0.07-0.24-0.19-0.44-0.36-0.63c-0.11,0.02-0.23,0.03-0.38,0.04c0.2,0.3,0.4,0.6,0.61,0.9c0.06,0.05,0.12,0.08,0.17,0.12
		C108.47,97.36,108.46,97.22,108.42,97.08z M108.42,97.08c-0.07-0.24-0.19-0.44-0.36-0.63c-0.11,0.02-0.23,0.03-0.38,0.04
		c0.2,0.3,0.4,0.6,0.61,0.9c0.06,0.05,0.12,0.08,0.17,0.12C108.47,97.36,108.46,97.22,108.42,97.08z M108.52,94.96
		c0.24-0.03,0.47-0.08,0.58-0.34c-0.22-0.06-0.43-0.11-0.65-0.17C108.43,94.61,108.47,94.78,108.52,94.96z M108.52,94.96
		c0.24-0.03,0.47-0.08,0.58-0.34c-0.22-0.06-0.43-0.11-0.65-0.17C108.43,94.61,108.47,94.78,108.52,94.96z M108.06,96.45
		c1.01-0.17,0.64-0.87,0.46-1.49c-0.02,0-0.03,0-0.05,0.01c-0.06-0.02-0.12-0.03-0.18-0.04c-0.06,0.49,0.09,1.06-0.35,1.41
		c0.03,0.03,0.07,0.05,0.1,0.09C108.05,96.43,108.05,96.44,108.06,96.45z M108.06,96.45c1.01-0.17,0.64-0.87,0.46-1.49
		c-0.02,0-0.03,0-0.05,0.01c-0.06-0.02-0.12-0.03-0.18-0.04c-0.06,0.49,0.09,1.06-0.35,1.41c0.03,0.03,0.07,0.05,0.1,0.09
		C108.05,96.43,108.05,96.44,108.06,96.45z M108.04,96.42c-0.03-0.03-0.07-0.06-0.1-0.09c-0.07,0.06-0.15,0.11-0.26,0.15
		c0.15-0.01,0.27-0.02,0.38-0.04C108.05,96.44,108.05,96.43,108.04,96.42z M108.04,96.42c-0.03-0.03-0.07-0.06-0.1-0.09
		c-0.07,0.06-0.15,0.11-0.26,0.15c0.15-0.01,0.27-0.02,0.38-0.04C108.05,96.44,108.05,96.43,108.04,96.42z M108.04,96.42
		c-0.03-0.03-0.07-0.06-0.1-0.09c-0.07,0.06-0.15,0.11-0.26,0.15c0.15-0.01,0.27-0.02,0.38-0.04
		C108.05,96.44,108.05,96.43,108.04,96.42z M108.52,94.96c-0.05-0.18-0.09-0.35-0.07-0.5c-0.1,0.14-0.15,0.3-0.17,0.47
		c0.06,0.01,0.12,0.02,0.18,0.04C108.49,94.96,108.5,94.96,108.52,94.96z M108.52,94.96c-0.05-0.18-0.09-0.35-0.07-0.5
		c-0.1,0.14-0.15,0.3-0.17,0.47c0.06,0.01,0.12,0.02,0.18,0.04C108.49,94.96,108.5,94.96,108.52,94.96z M108.52,94.96
		c-0.05-0.18-0.09-0.35-0.07-0.5c-0.1,0.14-0.15,0.3-0.17,0.47c0.06,0.01,0.12,0.02,0.18,0.04
		C108.49,94.96,108.5,94.96,108.52,94.96z M109.73,97.2c0.08-0.27,0.1-0.53,0.07-0.79C109.72,96.69,109.67,96.95,109.73,97.2z
		 M109.73,97.2c0.08-0.27,0.1-0.53,0.07-0.79C109.72,96.69,109.67,96.95,109.73,97.2z M107.81,98.7c-0.44,0.42-1.02,0.57-1.59,0.73
		c-0.54,0.16-0.9,0.52-0.83,1.09c0.08,0.66-0.23,1.25-0.35,1.86c0.68-0.9,1.37-1.81,2.05-2.71
		C107.19,99.28,107.92,99.18,107.81,98.7z M105.39,100.52c-0.07-0.57,0.29-0.93,0.83-1.09c0.57-0.17,1.14-0.31,1.59-0.73
		c-0.02-0.09-0.07-0.18-0.15-0.3c-0.46,0.18-0.9,0.46-1.37,0.52c-1.03,0.14-1.74,0.55-1.35,1.68c0.33,0.95-0.93,1.53-0.41,2.44
		c0.17-0.22,0.34-0.44,0.5-0.66C105.16,101.77,105.47,101.18,105.39,100.52z M105.39,100.52c-0.07-0.57,0.29-0.93,0.83-1.09
		c0.57-0.17,1.14-0.31,1.59-0.73c-0.02-0.09-0.07-0.18-0.15-0.3c-0.46,0.18-0.9,0.46-1.37,0.52c-1.03,0.14-1.74,0.55-1.35,1.68
		c0.33,0.95-0.93,1.53-0.41,2.44c0.17-0.22,0.34-0.44,0.5-0.66C105.16,101.77,105.47,101.18,105.39,100.52z M98.76,100.72l0.02-2.04
		l-1.78,1L98.76,100.72z M100.8,116.13l0.02-2.04l-1.78,1L100.8,116.13z"/>
	<path class="st45" d="M208.33,99.14c0,18.07-14.65,32.72-32.72,32.72s-32.72-14.65-32.72-32.72s14.65-32.72,32.72-32.72
		S208.33,81.07,208.33,99.14z"/>
	<path class="st46" d="M145.53,55.4c0,3.42-2.78,6.2-6.2,6.2h-9.52c-3.42,0-6.2-2.78-6.2-6.2c0-3.42,2.78-6.2,6.2-6.2h9.52
		C142.75,49.2,145.53,51.98,145.53,55.4z M175.6,71.09c-15.49,0-28.05,12.56-28.05,28.05c0,15.49,12.56,28.05,28.05,28.05
		c15.49,0,28.05-12.56,28.05-28.05C203.65,83.65,191.09,71.09,175.6,71.09z"/>
	<path class="st23" d="M153.6,84.03c0,0,8.57-10.65,20.09-10.93C185.2,72.82,161.03,75.02,153.6,84.03z M179.29,125.09
		c11.46-1.19,19.15-12.49,19.15-12.49C191.75,122.17,167.83,126.28,179.29,125.09z"/>
	<path class="st45" d="M185.63,99.14c0,5.54-4.49,10.03-10.03,10.03s-10.03-4.49-10.03-10.03s4.49-10.03,10.03-10.03
		S185.63,93.6,185.63,99.14z"/>
</g>
</svg>
