<?xml version="1.0" encoding="utf-8"?>
<!-- Generator: Adobe Illustrator 27.8.1, SVG Export Plug-In . SVG Version: 6.00 Build 0)  -->
<svg version="1.1" xmlns="http://www.w3.org/2000/svg" xmlns:xlink="http://www.w3.org/1999/xlink" x="0px" y="0px"
	 viewBox="0 0 350 230" style="enable-background:new 0 0 350 230;" xml:space="preserve">
<style type="text/css">
	.st0{display:none;}
	.st1{display:inline;}
	.st2{display:inline;fill:#61FFFB;}
	.st3{display:inline;fill:#FFFF66;}
	.st4{display:inline;fill:#66FF91;}
	.st5{display:inline;fill:#66BEFF;}
	.st6{display:inline;fill:#033D3D;}
	.st7{display:inline;fill:#62DD79;}
	.st8{display:inline;fill:#D8D564;}
	.st9{display:inline;fill:#66E9FF;}
	.st10{display:inline;fill:#FF66BA;}
	.st11{display:inline;fill:#DAFF66;}
	.st12{display:inline;fill:#C0FF97;}
	.st13{display:inline;fill:#490127;}
	.st14{fill:#DDDDDD;}
	.st15{fill:#F7931E;}
	.st16{fill:#604F3E;}
	.st17{fill:#2C1E20;}
	.st18{fill:#F7BF0B;}
	.st19{fill:#FFCE00;}
	.st20{fill-rule:evenodd;clip-rule:evenodd;fill:#F3B03C;}
	.st21{fill:#C41621;}
	.st22{fill:#352B2F;}
	.st23{fill:#FFFFFF;}
	.st24{fill:#00FFFF;}
	.st25{fill:#29ABE2;}
	.st26{fill:#B61E5A;}
	.st27{fill:#1E2254;}
	.st28{fill:#33DDFF;}
	.st29{fill:#0065A3;}
	.st30{fill:#F6973B;}
	.st31{fill:#5A3FA8;}
	.st32{fill:#00AB91;}
	.st33{fill-rule:evenodd;clip-rule:evenodd;fill:#13A559;}
	.st34{fill:#4E17AC;}
	.st35{fill:#103747;}
	.st36{fill:#019AC2;}
	.st37{fill-rule:evenodd;clip-rule:evenodd;fill:#B825BD;}
	.st38{fill-rule:evenodd;clip-rule:evenodd;fill:#FF8788;}
	.st39{fill:#282519;}
	.st40{fill:#C71A8B;}
	.st41{fill:#F9C60B;}
	.st42{fill:#E67A7B;}
	.st43{fill:#66767A;}
	.st44{fill:#0194A8;}
	.st45{fill:#00A4FF;}
	.st46{fill:#262626;}
	.st47{fill:#00FFE8;}
	.st48{fill:#D4FFFF;}
	.st49{fill-rule:evenodd;clip-rule:evenodd;fill:#FF00B8;}
	.st50{fill-rule:evenodd;clip-rule:evenodd;fill:#05E2FF;}
	.st51{fill:#FFF800;}
	.st52{fill:#0192A7;}
	.st53{fill:#D4209E;}
	.st54{fill:#0B0F22;}
	.st55{fill:#E12D2E;}
	.st56{fill:#B8C7FF;}
	.st57{fill:#000051;}
	.st58{fill:#FDC093;fill-opacity:0.5;}
	.st59{fill:#FDC093;}
	.st60{fill:#008CFF;fill-opacity:0.4;}
	.st61{fill:#008CFF;}
	.st62{fill:#000051;fill-opacity:0.41;}
	.st63{fill:#F9032C;}
	.st64{fill:#000051;fill-opacity:0.26;}
	.st65{fill:#8B8B8B;}
	.st66{fill:#E65101;}
	.st67{fill:#FACB01;}
	.st68{fill:#9AEB4E;}
	.st69{fill:#FF6600;}
	.st70{fill:#FF7BAC;}
	.st71{fill:#222222;}
	.st72{fill:#FEFEFE;}
	.st73{fill:#F2F2F2;}
	.st74{opacity:0.3;fill:#222222;enable-background:new    ;}
	.st75{fill:#383838;}
	.st76{fill:#1C2043;}
	.st77{fill:#171717;}
	.st78{fill:#178FAA;}
	.st79{opacity:0.3;fill:#FFFFFF;enable-background:new    ;}
	.st80{opacity:0.3;fill:#383838;enable-background:new    ;}
	.st81{opacity:0.3;fill:#A8AAB2;enable-background:new    ;}
	.st82{fill:#E6E6E6;}
	.st83{fill:#FBB03B;}
	.st84{fill:#F8BA03;}
	.st85{fill:#E95900;}
	.st86{fill:#7A1BBD;}
	.st87{fill:#676767;}
	.st88{fill:#F751E1;}
</style>
<g id="Layer_1">
</g>
<g id="Layer_2">
</g>
<g id="Layer_3">
</g>
<g id="Layer_4">
</g>
<g id="Layer_5">
</g>
<g id="Layer_6">
</g>
<g id="Layer_7">
</g>
<g id="Layer_8">
</g>
<g id="Layer_9">
</g>
<g id="Layer_10">
</g>
<g id="Layer_11">
</g>
<g id="Layer_12">
</g>
<g id="Layer_13">
</g>
<g id="Layer_14">
</g>
<g id="Layer_15">
	<g id="_x32_3">
		<path class="st56" d="M222.86,85.4c0,6.77-1.13,13.27-3.22,19.34c-0.09,0.26-0.18,0.52-0.28,0.78c-0.16,0.43-0.31,0.85-0.48,1.28
			c0,0.01,0,0.01-0.01,0.02c0,0,0,0,0,0c-0.17,0.44-0.35,0.88-0.53,1.32c-0.49,1.17-1.01,2.32-1.56,3.45
			c-2.75,5.59-6.36,10.69-10.65,15.12c-0.39,0.41-0.79,0.81-1.2,1.2c-0.12,0.11-0.23,0.23-0.36,0.34c-0.1,0.1-0.2,0.19-0.3,0.29
			c-0.12,0.11-0.24,0.23-0.36,0.34c-0.43,0.4-0.87,0.8-1.31,1.18c-0.29,0.26-0.59,0.51-0.88,0.76c-0.52,0.43-1.04,0.86-1.57,1.28
			c-0.16,0.13-0.31,0.25-0.47,0.37c-0.08,0.06-0.17,0.13-0.25,0.19c-0.15,0.11-0.3,0.23-0.45,0.34c-0.35,0.26-0.7,0.52-1.06,0.77
			c-0.14,0.1-0.28,0.2-0.42,0.3c-0.14,0.1-0.28,0.2-0.42,0.29c-0.19,0.13-0.38,0.26-0.58,0.39c-0.19,0.13-0.39,0.26-0.59,0.39
			c-0.2,0.13-0.41,0.26-0.61,0.39c-0.19,0.12-0.38,0.24-0.58,0.36c-0.16,0.1-0.32,0.2-0.48,0.3c-0.07,0.04-0.14,0.09-0.21,0.13
			c-0.17,0.1-0.34,0.2-0.51,0.3c-0.2,0.12-0.41,0.24-0.61,0.35c-0.2,0.12-0.41,0.23-0.61,0.35c-0.21,0.11-0.41,0.23-0.62,0.34
			c-0.17,0.09-0.35,0.19-0.52,0.28c-0.17,0.09-0.34,0.18-0.52,0.27c-0.12,0.06-0.23,0.12-0.36,0.18c-0.01,0.01-0.02,0.01-0.04,0.02
			c-0.38,0.19-0.76,0.38-1.14,0.56c-0.2,0.1-0.39,0.19-0.59,0.28c-0.16,0.08-0.32,0.15-0.48,0.22c-0.09,0.04-0.19,0.08-0.28,0.13
			c-0.18,0.08-0.36,0.16-0.53,0.24c-0.09,0.04-0.17,0.07-0.25,0.11c-0.25,0.11-0.51,0.22-0.77,0.32c-0.26,0.11-0.51,0.21-0.77,0.31
			c-0.21,0.08-0.43,0.17-0.64,0.25c-0.84,0.32-1.7,0.63-2.56,0.92c-0.34,0.11-0.68,0.23-1.03,0.33c-0.15,0.05-0.29,0.09-0.44,0.13
			c-0.44,0.14-0.89,0.27-1.34,0.39c-0.17,0.05-0.33,0.09-0.5,0.14c-0.02,0.01-0.05,0.01-0.07,0.02c-0.21,0.06-0.43,0.11-0.65,0.17
			c-0.18,0.05-0.37,0.1-0.55,0.14c-0.14,0.04-0.29,0.07-0.44,0.11c-0.06,0.01-0.12,0.03-0.18,0.04c-0.15,0.04-0.31,0.07-0.46,0.11
			c-0.17,0.04-0.34,0.08-0.51,0.11c-0.63,0.14-1.27,0.26-1.92,0.38c-0.25,0.04-0.5,0.09-0.75,0.13c-0.45,0.08-0.9,0.15-1.36,0.21
			c-0.01,0-0.02,0-0.04,0.01c-0.22,0.03-0.43,0.06-0.65,0.09c-0.02,0-0.03,0.01-0.05,0.01c-0.17,0.02-0.33,0.04-0.5,0.06
			c-0.32,0.04-0.65,0.08-0.97,0.11c-0.21,0.02-0.42,0.05-0.63,0.06c-0.21,0.02-0.43,0.04-0.64,0.06c-0.06,0.01-0.12,0.01-0.18,0.01
			c-0.14,0.01-0.29,0.02-0.43,0.03c-0.15,0.01-0.29,0.02-0.44,0.03c-0.2,0.01-0.41,0.03-0.61,0.04c-0.19,0.01-0.37,0.02-0.56,0.03
			c-0.23,0.01-0.45,0.02-0.68,0.03c-0.22,0.01-0.44,0.01-0.66,0.02c-0.26,0.01-0.52,0.01-0.78,0.01c-0.26,0-0.52,0.01-0.78,0.01
			c-1,0-2-0.02-2.99-0.07c-31.43-1.56-56.43-27.53-56.43-59.33c0-31.81,26.6-59.4,59.42-59.4c28.79,0,52.79,20.47,58.25,47.64
			c0.11,0.53,0.21,1.06,0.3,1.59c0.01,0.06,0.02,0.13,0.03,0.19c0.17,1.01,0.32,2.03,0.44,3.06
			C222.73,80.75,222.86,83.06,222.86,85.4z"/>
		<path class="st57" d="M191.98,106.79c0.01,1.68-0.47,3.4-0.94,5.03c-1.38,4.71-2.77,9.43-4.15,14.15
			c-0.08,0.28-0.17,0.57-0.25,0.85c-0.08,0.26-0.16,0.53-0.23,0.79c-0.17,0.12-0.33,0.23-0.5,0.34c-0.17,0.11-0.34,0.23-0.51,0.34
			c-0.18,0.12-0.35,0.23-0.53,0.34c-0.17,0.11-0.33,0.21-0.5,0.31c-0.14,0.09-0.28,0.17-0.42,0.26c-0.06,0.04-0.12,0.07-0.19,0.11
			c-0.14,0.09-0.29,0.17-0.44,0.26c-0.18,0.11-0.35,0.21-0.53,0.31c-0.18,0.1-0.36,0.2-0.53,0.3c-0.18,0.1-0.36,0.2-0.54,0.29
			c-0.15,0.08-0.3,0.16-0.45,0.24c-0.15,0.08-0.3,0.16-0.45,0.23c-0.1,0.05-0.2,0.11-0.31,0.16c-0.01,0.01-0.02,0.01-0.03,0.01
			c-0.33,0.17-0.66,0.33-0.99,0.49c-0.17,0.08-0.34,0.16-0.51,0.24c-0.14,0.06-0.28,0.13-0.42,0.19c-0.08,0.04-0.16,0.07-0.24,0.11
			c-0.16,0.07-0.31,0.14-0.46,0.21c-0.07,0.03-0.14,0.06-0.22,0.09c-0.22,0.09-0.44,0.19-0.66,0.28c-0.22,0.09-0.45,0.18-0.67,0.27
			c-0.18,0.07-0.37,0.15-0.55,0.22c-0.73,0.28-1.47,0.55-2.22,0.8c-0.29,0.1-0.59,0.2-0.89,0.29c-0.13,0.04-0.25,0.08-0.38,0.12
			c-0.39,0.12-0.77,0.23-1.16,0.34c-0.14,0.04-0.29,0.08-0.44,0.12c-0.02,0.01-0.04,0.01-0.06,0.02c-0.19,0.05-0.37,0.1-0.56,0.15
			c-0.16,0.04-0.32,0.08-0.48,0.12c-0.13,0.03-0.25,0.06-0.38,0.09c-0.05,0.01-0.1,0.03-0.16,0.04c-0.13,0.03-0.26,0.06-0.4,0.09
			c-0.15,0.03-0.3,0.07-0.44,0.1c-0.55,0.12-1.11,0.23-1.66,0.33c-0.21,0.04-0.43,0.08-0.65,0.11c-0.39,0.07-0.79,0.13-1.18,0.19
			c-0.01,0-0.02,0-0.03,0c-0.19,0.03-0.38,0.05-0.57,0.08c-0.01,0-0.03,0.01-0.04,0.01c-0.14,0.02-0.29,0.04-0.44,0.05
			c-0.28,0.04-0.56,0.07-0.85,0.1c-0.18,0.02-0.36,0.04-0.55,0.06c-0.18,0.02-0.37,0.04-0.55,0.05c-0.05,0-0.1,0.01-0.16,0.01
			c-0.13,0.01-0.25,0.02-0.38,0.03c-0.13,0.01-0.26,0.02-0.38,0.03c-0.18,0.01-0.35,0.02-0.53,0.03c-0.16,0.01-0.32,0.02-0.48,0.02
			c-0.2,0.01-0.39,0.02-0.59,0.02c-0.19,0.01-0.38,0.01-0.57,0.02c-0.23,0.01-0.45,0.01-0.68,0.01c-0.23,0-0.45,0.01-0.68,0.01
			c-0.87,0-1.73-0.02-2.59-0.06c0.01-0.06,0.02-0.12,0.04-0.18c0.68-3.17,1.63-6.29,2.83-9.31c2.16-5.44,5.13-10.57,8.79-15.15
			c3.49-4.38,7.43-8.64,12.66-10.9c2.25-0.97,4.78-1.48,7.18-0.97c0.29,0.06,0.58,0.14,0.87,0.23c0.34,0.11,0.67,0.25,0.99,0.41
			c0.32,0.15,0.63,0.33,0.93,0.53c1.21,0.8,2.19,1.93,2.66,3.3C191.87,105.27,191.97,106.03,191.98,106.79L191.98,106.79z
			 M182.12,63.43c0.74,6.16-1.19,4.35-0.58,5.55c1.44,3.51-0.1,7.31-1.19,11.97c-0.62,2.64-1.09,5.57-0.79,8.88
			c-4.26,5.12-10.83,4.32-16.92,1.73c-4.33-1.84-8.41-4.59-11.27-6.76c-2.31-1.76-3.81-3.14-3.99-3.38
			c-0.33-0.43-0.74-2.62-1.59-4.69c-1.01-2.47-3.73-2.68-3.32-5.7c-6.6-9.13-2.96-14.46-0.04-16.17c-0.38-2.36,2.04-7.37,8.08-7.89
			c10.45-15.59,27.18,3.99,31.56-5.86c3.33,6.97,0.58,10.76-1.61,12.09c1.57,0.16,5.28-2.06,4.91-5.65
			c0.42,0.82,0.61,1.79,0.61,2.76c0,2.08-0.86,4.2-2.06,4.98c0,0,4.82,0.83,5.59-0.93C191.88,61.23,186.1,63.65,182.12,63.43
			L182.12,63.43z"/>
		<path class="st58" d="M150.47,48.37c-1.64,0.49-3.17,1.5-4.11,2.94c0,0,0,0.01,0,0.01c-0.88,1.32-1.41,3.11-0.93,4.64l0.14,0.42
			l-0.42,0.18c-0.53,0.23-1.02,0.6-1.43,1.04c-0.97,1.04-1.5,2.39-1.64,3.8c-0.05,0.44-0.05,0.89-0.02,1.34
			c0.17,2.6,1.44,5,2.88,7.16c-0.95-0.94-1.79-2-2.46-3.19c-1.01-1.77-1.6-3.92-1.3-5.99c0.07-0.47,0.18-0.93,0.34-1.38
			c0.51-1.47,1.49-2.79,2.89-3.51c-0.32-1.72,0.33-3.53,1.39-4.88c0.01-0.01,0.01-0.02,0.02-0.03
			C146.95,49.48,148.67,48.56,150.47,48.37z M152,49.3c12.27-11.71,23.43,4.34,29.21-4.34C174.55,50.46,161.07,34.56,152,49.3z
			 M181.21,44.96c-0.24,0.37-0.5,0.69-0.76,0.97c-6.68,3.74-18.98-9.58-27.7,2.68c-0.25,0.22-0.5,0.45-0.75,0.69
			C161.07,34.56,174.55,50.45,181.21,44.96z M179.71,46.94c-5.73,4.37-15.24-6.65-25.75,1.05
			C162.17,38.36,173.11,48.95,179.71,46.94z M161.57,50.51c4.29-5.94,15.68,1.86,20.13-2.8C177.41,55.01,168.09,47.05,161.57,50.51z
			 M181.7,47.71c-0.19,0.33-0.4,0.62-0.6,0.89c-4.55,3.52-14.59-2.79-19.07,1.69c-0.15,0.07-0.31,0.14-0.46,0.23
			C165.86,44.57,177.25,52.37,181.7,47.71L181.7,47.71L181.7,47.71z M180.04,49.66c-4.3,3.34-11.28-1.23-16.85,0.23
			C168.08,47.83,174.57,52.05,180.04,49.66z M159.22,53.23c4.82-5.52,15.44,3.29,20.31-0.94C174.58,59.17,166.03,50.38,159.22,53.23
			z M179.19,52.56c-5.62,4.11-15.78-3.79-19.88,0.57C164.06,47.94,174.22,56.11,179.19,52.56z M179.53,52.29
			c-4.95,6.87-13.49-1.91-20.31,0.94c0.23-0.27,0.48-0.5,0.74-0.7c6.27-1.86,13.81,5.02,18.66,0.38
			C178.94,52.74,179.24,52.54,179.53,52.29z M186.79,57.27c-0.02,0.06-0.04,0.12-0.06,0.18c-0.01,0.04-0.02,0.07-0.04,0.11
			c0,0,0,0,0,0c-0.02,0.06-0.04,0.12-0.07,0.18c-0.03,0.08-0.06,0.15-0.09,0.22c0,0,0,0.01-0.01,0.01
			c-0.03,0.06-0.05,0.11-0.08,0.17c-0.01,0.02-0.02,0.05-0.04,0.07c-0.03,0.05-0.05,0.09-0.08,0.14c-4.06,6.82-24.56-2.66-27.6-4.08
			c0.61-0.14,3.24,0.39,4.19,0.8c8.91,4.04,16.02,3.28,18.66,1.51c-0.05,0.07-1.71,2.4-2.68,2.64c0.06,0.03,0.11,0.06,0.17,0.08
			c0.05,0.02,0.1,0.05,0.15,0.07c2.4,1.04,5.15,0,6.6-1.07c0.02-0.01,0.04-0.03,0.06-0.04c0.37-0.28,0.65-0.56,0.81-0.8
			C186.73,57.39,186.77,57.33,186.79,57.27L186.79,57.27z M181.23,57.06c-2.76,1.7-9.77,2.35-18.51-1.61
			c-0.63-0.28-2.01-0.6-3.04-0.75h0c-0.4-0.19-0.72-0.33-0.95-0.44c0.61-0.14,3.24,0.39,4.19,0.8c8.91,4.04,16.02,3.28,18.66,1.51
			C181.58,56.59,181.44,56.79,181.23,57.06L181.23,57.06L181.23,57.06z M186.79,57.27c-0.02,0.06-0.04,0.12-0.06,0.18
			c-0.01,0.04-0.02,0.07-0.04,0.11c0,0,0,0,0,0c-0.02,0.06-0.04,0.12-0.07,0.18c-0.03,0.08-0.06,0.15-0.09,0.22
			c0,0,0,0.01-0.01,0.01c-0.03,0.06-0.05,0.11-0.08,0.17c-0.01,0.02-0.02,0.05-0.04,0.07c-0.03,0.05-0.05,0.09-0.08,0.14
			c0.1-0.21,0.18-0.44,0.25-0.68c-0.52,1.16-4.17,3.11-7.37,1.7c2.4,1.04,5.15,0,6.61-1.07c0.02-0.01,0.04-0.03,0.05-0.04
			c0.37-0.27,0.65-0.55,0.81-0.8C186.73,57.39,186.76,57.33,186.79,57.27L186.79,57.27z M186.79,57.27
			c-2.56,8.79-24.88-1.53-28.06-3.01c5.69,2.55,24.12,9.62,27.72,3.49C186.61,57.58,186.73,57.42,186.79,57.27z M151.45,58.51
			c0.74-1.15,1.69-2.04,2.53-2.82c0.84-0.78,1.51-1.4,1.75-2.09c0.1-0.28,0.31-0.47,0.57-0.53l0.05-0.01
			c0.37-0.08,0.64,0.12,0.78,0.32c0.17,0.26,0.17,0.58-0.01,0.84c-0.57,0.81-1.59,1.44-2.67,2.11
			C153.44,56.95,152.37,57.61,151.45,58.51L151.45,58.51L151.45,58.51z M149.41,55.49c0.54-0.71,1.16-1.29,1.72-1.81
			c0.7-0.65,1.24-1.16,1.45-1.74c0.07-0.2,0.23-0.35,0.42-0.39l0.04-0.01c0.34-0.07,0.52,0.16,0.57,0.24
			c0.05,0.07,0.19,0.33-0.01,0.61c-0.46,0.65-1.29,1.17-2.18,1.71C150.76,54.51,150.05,54.95,149.41,55.49L149.41,55.49
			L149.41,55.49z M148.26,52.9c0.18-0.18,0.36-0.34,0.52-0.5c0.48-0.45,0.9-0.84,1.06-1.28c0.04-0.11,0.12-0.18,0.21-0.2l0.03-0.01
			c0.17-0.03,0.26,0.08,0.28,0.12c0.03,0.05,0.09,0.17-0.01,0.31c-0.31,0.44-0.86,0.79-1.51,1.19
			C148.66,52.64,148.46,52.77,148.26,52.9z"/>
		<path class="st59" d="M161.84,58.21c4.4,2.86,15.92,4.7,18.1,4.96c0.29,2.94,0.09,11.12-0.58,14.01
			c-0.19,0.52-2.31,2.47-2.31,2.47c-5.95,0.53-5.56-0.6-10.75,3.22c-0.55-5.22-6.02-9.44-6.51-14.87c-0.04-0.46,0-0.93,0.13-1.37
			C160.58,64.37,162.58,59.71,161.84,58.21z M152.11,79.96c-0.57,0.02-1.1-0.25-1.42-0.71c-2.6-3.39-3.79-6-4.15-7.83
			c-0.9-4.58,3.38-4.35,3.82,0.43c0.04,0.43,0.05,0.89,0.02,1.39c-0.26,1.94,2.3,0.7,3.27,4.7
			C153.89,78.94,153.14,79.92,152.11,79.96L152.11,79.96z M177.47,82.19l-0.74,3.55l-4.81,0.11c-0.55-0.22-3.33-2.25-3.13-2.53
			c0.19-0.28,2.01-1.02,2.61-1.13C171.99,82.08,177.47,82.19,177.47,82.19L177.47,82.19L177.47,82.19z"/>
		<path class="st57" d="M180.05,65.31c0,0-2.38,0.08-2.73,0.16c-0.35,0.08-1.44,1.36-1.53,1.79c-0.08,0.43,0.77,4.12,1.14,4.63
			c-0.29-1.4,0.06-4.14,1.03-4.26c0.97-0.12,2.18-0.07,2.18-0.07L180.05,65.31L180.05,65.31z M180.09,65.87c0,0-2.23,0.08-2.58,0.16
			c-0.35,0.08-1.44,1.36-1.53,1.79c-0.08,0.43,0.58,3.94,0.95,4.45c-0.29-1.4,0.25-3.96,1.22-4.08c0.97-0.12,1.99-0.09,1.99-0.09
			L180.09,65.87L180.09,65.87z"/>
		<path class="st57" d="M173.14,65.3l-1.48,3.95c-1.57-1.57-5.85-1.89-9.26-0.21c2.72-1.7,1.42-2.79,1.42-2.79
			c-0.27-0.11-2.47-0.21-2.8-0.18C162.69,63.6,169.86,63.6,173.14,65.3L173.14,65.3L173.14,65.3z M172.76,66.29l-1.21,3.38
			c-1.57-1.57-5.75-2.31-9.16-0.63c0.11-0.52,1.32-2.36,1.32-2.36c-0.28-0.11-2.37-0.63-2.69-0.6
			C162.69,63.6,169.49,64.59,172.76,66.29L172.76,66.29z"/>
		<path class="st57" d="M231.49,108.65c1.79-0.51-10.1,4.25-17.02-7.2c-6.8-11.25-3.14-22.02-3.14-22.02s3.71-8.91,4.78-9.82
			c1.07-0.91,5.86-3.77,5.86-3.77l11.91,0.08c0.88-0.85,5.27-3.01,9.4,6.98C247.42,82.88,248.98,104.74,231.49,108.65L231.49,108.65
			L231.49,108.65z M231.49,108.65c-2.25,0.13-6.68-1.84-11.22,0.55c-3.46,0.11-6.79-1.61-6.79-1.61
			c-2.76,0.29-13.37-7.22-14.77-9.28c-2.64-3.37-1.33-14.88,0-18.23c0.7-1.76,2.07-5.21,3.21-8.08c-1.41-0.02-3.46-0.05-5.06-0.05
			c-1.12,0-1.71,0.01-2.02,0.03c-0.71,1.85-3.24,10.56-3.45,15.53l-1.53,0.1c-0.31-1.73,0.16-6.53,1.1-11.43
			c0.66-3.41,2.04-9.38,3.94-11.04l0.22-0.19h0.29c0.03,0,2.8-0.02,4.95-0.02c1.27,0,2.09,0.01,2.43,0.02l0.29,0.01l0.21,0.2
			c0.09,0.09,0.91,0.87,1.24,1.88l0.08,0.24h4.12c0.5-0.23,2.64-1.84,3.22-1.88c0.58-0.04,19.82,0.5,19.82,0.5h-8.99
			c-6.82,1.57-19.61,27.14,0.44,42.07C224.77,108.87,231.48,108.65,231.49,108.65L231.49,108.65z M186.93,95.12h-15.95V73.04
			c0-2.75,2.23-4.98,4.98-4.98h7.01c0.06-2.09,2.28-3.24,4.18-3.24v-0.07c0-0.65,0.52-1.17,1.17-1.17h11.62
			c1.78,0.66,4.37,2.97,5.03,7.38v2.06c-6.66,5.27-7.04,22.26-6.27,25.29C198.7,98.31,190.94,95.17,186.93,95.12L186.93,95.12z
			 M224.39,105.79c-4.8-0.98-15.6-14.37-5.45-30.41C216.25,86.1,216.85,96.82,224.39,105.79z M221.84,98.31
			c0.25,1.03,2.06,4.54,2.81,5.11c-3.75-1.86-9.61-12.84-3.4-28.05c-0.99,4.67-1.15,16.72,1.38,20.79
			c-2.02-14.28-0.25-27.98,11.3-28.8c11.55-0.82,18.9,31.6,1.24,38.86C230.71,107.71,226.26,105.79,221.84,98.31z"/>
		<path class="st60" d="M225.49,108.16c-3.94,0-7.02-2.45-9.4-7.49c-2.73-5.77-3.45-11.12-3.51-14.95
			c-0.05-3.09,0.59-6.14,1.84-8.96c0.02-0.04,0.04-0.08,0.05-0.11c1.66-3.74,4.44-6.87,7.94-8.99c0.02-0.01,0.04-0.02,0.05-0.03
			l10.02,0.07l0.59,0.53c0.13-0.04,0.46,0.13,0.86,0.13c1.18,0,3.93-0.65,5.96,4.24c2.25,5.4,4.64,18.97,0.3,27.35
			c-1.91,3.69-4.97,6.03-9.1,6.95l-0.1,0.02l-0.1,0.04c-0.12,0.04-0.25,0.09-0.39,0.14C229.32,107.51,227.53,108.16,225.49,108.16z"
			/>
		<path class="st60" d="M203.94,70.84c-0.18,0.21-0.38,0.41-0.38,0.41s-8.95-0.16-9.24,0c-0.29,0.17-3.47,10.52-3.71,16.22
			c-0.25-2.81-0.07-5.62,0.34-8.24c1.17-7.54,4.19-13.54,4.19-13.54s6.49-0.02,7.61,0.01c0,0,0.16,0.15,0.35,0.38
			c0.24,0.29,0.53,0.71,0.69,1.18c0,0-6.96-0.01-7.95,0.01l-1.24,2.56c0,0,9.02,0.77,9.6,0.47
			C204.3,70.37,204.13,70.61,203.94,70.84L203.94,70.84z M200.58,76.23c-4.04,8.02-1.69,17.51-1.15,18.97
			c-3.35-4.83-4.12-12.35-0.03-18.59c0.96-1.47,2.18-2.87,3.71-4.14C202.07,73.65,201.24,74.92,200.58,76.23L200.58,76.23
			L200.58,76.23z M210.86,105.01c-18.51-14.13-6.66-34.7-3.82-36.03c1.53-0.87,9.12-1.69,10.07-1.61
			c-3.26,1.81-9.54,11.63-7.45,26.89c-0.82-1.51-1.81-7.81-1.73-8.66c-0.36,0.99-0.27,5.11-0.27,5.11
			c-1.73-4.53,0.47-14.52,1.79-16.55h-3.08c-1.48,2.2-3.6,9.25-2.16,19.27c-1.36-2.1-1.77-8.74-1.77-8.74
			C201.96,87.13,201.88,98.1,210.86,105.01z"/>
		<path class="st61" d="M232.59,73.66c0.28,0.01,0.55,0.05,0.83,0.1c0.27,0.05,0.55,0.12,0.81,0.22c0.27,0.09,0.53,0.2,0.79,0.33
			c0.26,0.13,0.51,0.28,0.76,0.44c0.25,0.17,0.49,0.35,0.73,0.55c0.23,0.2,0.46,0.42,0.68,0.65c0.22,0.23,0.43,0.48,0.63,0.75
			c0.2,0.26,0.39,0.54,0.58,0.83c0.18,0.29,0.36,0.6,0.52,0.92c0.16,0.32,0.31,0.65,0.45,0.99c0.14,0.34,0.26,0.69,0.38,1.05
			c0.11,0.36,0.21,0.73,0.3,1.1c0.09,0.38,0.16,0.76,0.22,1.14c0.06,0.39,0.11,0.78,0.15,1.17c0.04,0.4,0.06,0.79,0.06,1.19
			c0.01,0.4,0,0.8-0.02,1.2c-0.02,0.4-0.05,0.8-0.1,1.2c-0.05,0.4-0.11,0.79-0.18,1.18c-0.07,0.39-0.16,0.77-0.26,1.15
			c-0.1,0.38-0.21,0.75-0.33,1.12c-0.12,0.36-0.26,0.72-0.41,1.07c-0.15,0.35-0.31,0.68-0.48,1.01s-0.35,0.64-0.54,0.94
			c-0.19,0.3-0.39,0.59-0.6,0.86c-0.21,0.27-0.43,0.53-0.65,0.77c-0.23,0.24-0.46,0.47-0.7,0.68c-0.24,0.21-0.49,0.41-0.74,0.58
			c-0.26,0.18-0.51,0.33-0.78,0.48c-0.26,0.14-0.53,0.26-0.8,0.37c-0.27,0.1-0.55,0.19-0.82,0.25c-0.28,0.06-0.55,0.11-0.83,0.13
			c-0.28,0.03-0.56,0.03-0.83,0.02c-0.28-0.01-0.55-0.05-0.83-0.1c-0.27-0.05-0.54-0.12-0.81-0.22c-0.27-0.09-0.53-0.2-0.79-0.33
			c-0.26-0.13-0.51-0.28-0.76-0.44c-0.25-0.17-0.49-0.35-0.73-0.55c-0.23-0.2-0.46-0.42-0.68-0.65c-0.22-0.23-0.43-0.48-0.63-0.75
			c-0.2-0.26-0.39-0.54-0.58-0.83c-0.18-0.29-0.35-0.6-0.51-0.92s-0.31-0.65-0.45-0.99c-0.14-0.34-0.26-0.69-0.38-1.05
			c-0.11-0.36-0.21-0.73-0.3-1.1c-0.09-0.38-0.16-0.76-0.23-1.14c-0.06-0.39-0.11-0.78-0.14-1.17c-0.04-0.4-0.06-0.79-0.06-1.19
			c-0.01-0.4,0-0.8,0.02-1.2c0.02-0.4,0.05-0.8,0.1-1.2c0.05-0.4,0.11-0.79,0.18-1.18c0.07-0.39,0.16-0.77,0.26-1.15
			c0.1-0.38,0.21-0.75,0.33-1.12c0.12-0.36,0.26-0.72,0.41-1.07c0.15-0.35,0.31-0.68,0.48-1.01c0.17-0.33,0.35-0.64,0.54-0.94
			c0.19-0.3,0.39-0.59,0.6-0.86c0.21-0.27,0.43-0.53,0.65-0.77c0.23-0.24,0.46-0.47,0.7-0.68c0.24-0.21,0.49-0.41,0.74-0.58
			c0.25-0.18,0.51-0.33,0.77-0.48c0.26-0.14,0.53-0.26,0.8-0.37c0.27-0.1,0.54-0.19,0.82-0.25c0.28-0.06,0.55-0.11,0.83-0.13
			C232.03,73.65,232.31,73.64,232.59,73.66z"/>
		<path class="st62" d="M240.47,86.29c-0.33,6.75-4.38,12.04-9.06,11.81c-4.68-0.23-8.2-5.88-7.87-12.63
			c0.02-0.33,0.04-0.65,0.07-0.97c0.04,6.31,3.44,11.44,7.89,11.65c4.45,0.22,8.33-4.56,8.98-10.84
			C240.49,85.64,240.48,85.96,240.47,86.29L240.47,86.29z M239.18,84.75c-0.27,5.67-3.68,10.11-7.61,9.92
			c-3.93-0.19-6.88-4.94-6.61-10.61c0.02-0.41,0.06-0.82,0.11-1.22c0.17,5.11,2.98,9.2,6.62,9.38c3.64,0.18,6.83-3.63,7.49-8.69
			C239.21,83.92,239.2,84.33,239.18,84.75L239.18,84.75z M229.08,79.98c-1.34,0.95-1.55,3.31-1.55,3.31
			c-0.33-5.81,2.42-8.46,5.29-7.77c0.84,0.2,1.57,0.7,2.11,1.37C237.96,80.69,234.84,87.23,229.08,79.98z"/>
		<path class="st57" d="M193.2,90.57c-0.21,0.5-0.09,1.12-0.26,1.63c-0.18,0.53-0.54,1.02-0.34,1.58c0.22,0.61,0.64,1.03,1.21,1.32
			c0.58,0.29,1.23,0.45,1.79,0.77c0.08,0.05,0.17,0.1,0.21,0.19c0.09,0.21-0.13,0.42-0.31,0.56c-0.7,0.54-1.14,1.34-1.56,2.12
			c-0.56,1.02-1.11,2.04-1.67,3.06c-0.47,0.86-0.92,1.76-1.83,2.23c-0.64,0.33-1.29,0.31-1.99,0.34c-1.56,0.06-3.23,0.07-4.59,0.96
			c-2.88,2.14-1.72,4.67-5.24,7.76c-1.65,1.69-3.87,2.68-6.1,3.53c-0.93,0.43-5.47,10.35-8.14,16.29c-0.73,1.61-2.1,2.84-3.79,3.37
			c-44.46,13.97-55.37-32.52-33.61-39.95c2.12-0.72,2.86-3.35,4.57-3.85c-1.28-10.14,11.48-14.6,14.63-13.94
			c4.07,0.85,4.55,3.6,5.15,2.5c0.06,0.71,0.03,5.64,0.13,6.93c0.11,1.81,8.31,10.89,9.87,10.89c0,0,0.97-5.68,1.32-7.29
			c0.11-1.46,11.5-9.5,12.3-10.23c0.5-0.41,2.88-0.52,5.41-0.37c6.18-0.61,9.98,4.54,12.53,6.72
			C193.05,90.2,193.2,90.57,193.2,90.57L193.2,90.57L193.2,90.57z"/>
		<path class="st63" d="M155.96,104.5c-3.59-0.99-6.77-6.92-7.26-10.32c0,0-0.11,3.19,0.5,5c-2.99-3.7-3.02-6.88-2.17-9.79v0
			c0.54-1.85,1.45-3.59,2.17-5.28c-1.96,5.66,1.53,7.73,1.53,7.73s0.47,1.37,1.57,3.23c1.23,2.08,3.26,4.75,6.29,6.76
			c0,0-5.38-1.28-7.34-5.12C151.25,96.7,153.44,103.01,155.96,104.5z M147.44,106.66c0.72,1.27,4.89,4.52,5.84,5.26
			c-3.26-0.96-12.55-6.7-16.79-17.62c1.07,7.93,11.06,17.58,17.66,20.3c-8.27-1.34-17.55-11.64-18.96-20.47
			c-0.18-1.11-0.23-2.19-0.14-3.23c0.38-4.49,3.38-8.17,10.44-9.38l1.13,1.13c0,0-0.01,0.01-0.01,0.02
			c-10.18,12.64,5.89,25.33,12.44,28c-2.75-0.28-15.7-6.93-17.85-19c-0.74,5.36,5.2,14.77,14.36,19.71
			C153.73,111.47,148.38,107.7,147.44,106.66L147.44,106.66L147.44,106.66z"/>
		<path class="st59" d="M162.64,91.56c-0.27,1.25-0.91,4.92-1.19,6.53c-0.08,0.47-0.13,0.77-0.13,0.77c-1.48,0-8.89-8.11-9.78-10.53
			c-0.05-0.12-0.07-0.23-0.09-0.32v0c0-0.01,0-0.03-0.01-0.04c-0.04-0.74-0.07-1.96-0.08-3.17
			C154.22,86.96,158.31,89.71,162.64,91.56L162.64,91.56z M122.51,123.6c1.46,5.23,6.47,7.86,11.74,9.06c0,0,0.35-1.36,0.83-2.4
			C130.76,129.3,126.16,127.34,122.51,123.6z M190.25,88.29c-0.04-0.58-0.28-1.08-0.65-1.5c-0.05-0.05-0.09-0.1-0.14-0.15h0
			c-1.52-1.49-4.73-1.81-5.48-1.19c-0.85,0.69-6.92,3.73-10.66,4.95c-1.15,0.38-2.08,0.58-2.58,0.49l0.22-1.69l0.03-0.2
			c0,0,0.09-0.08,0.25-0.23c0.04-0.04,0.09-0.08,0.14-0.13c1.48-1.37,6.66-6.14,7.16-6.28c0.28-0.08,5.1-0.05,5.1-0.05
			s4.94,1.5,5.17,1.5c0.45,0,0.58-1.11,0.54-1.53c-0.02-0.19-0.74-0.89-1.56-1.63h0c-1.01-0.9-2.17-1.86-2.38-1.98
			c-0.38-0.22-7.1-0.16-7.92,0s-11,7.92-11.72,8.69c-0.71,0.77-2.7,12.9-4.59,17.93c-3.3,7.44-20.79,15.8-22.3,22.82
			c0.55,0.2,1.12,0.41,1.71,0.59c2.05,0.65,4.17,0.09,6.46-0.58l8.39-8.71l-7.3,10.19c-1.22,0.33-5.41,1.83-10.48,1.11
			c0,0-0.52,1.12-0.74,2.42c1.54,0.22,3.05,0.33,4.45,0.36c2.53-0.01,7.57-1.41,7.57-1.41s5.42-6.53,7.01-9.01
			c-0.08,0.74-5.16,10.1-5.16,10.1c2.88,0.02,8.18-6.63,10.9-10.29l-6.95,9.63l-3.59,1.49l-7.65,0.93c-0.76,0.19-1.56,0.32-2.37,0.4
			c2.12,1.83,12.93,1.2,15.29-0.95c0.77-1.03,10.17-15.34,10.5-15.84c-0.2,0.42-4.68,9.41-9.03,15.62h1.4
			c2.23-1.24,11.1-19.76,11.1-19.88l0.23-0.04c5.28-0.58,9.3-7.26,9.84-9.03c0.21-0.45,1.88-1.55,2.37-1.71
			c-1.63-0.06-2.66,0.76-3.34,1.81c-0.68,1.05-4.32,5.59-5.8,5.63c0.31-0.4,3.95-5.51,4.18-5.82c0.01-0.01,0.01-0.01,0.01-0.01
			c0.76-0.93,1.39-1.66,1.71-1.96c3.96-1.73,9.79,0.44,9.68-2.15c-0.01-0.37-0.18-0.67-0.46-0.92c-0.04-0.03-0.08-0.07-0.12-0.1
			c-1.82-1.33-7.37-0.76-9.78-0.69l3.33-1.87c0,0,3.64-0.65,5.63-0.49c0.8,0.07,1.58-0.37,1.87-1.12c0.15-0.41,0.15-0.85,0.01-1.29
			c-0.42-1.29-2.08-2.41-4.41-1.74c-1.2,0.4-7.92,1.98-9.26,2.04c-0.18,0.01-0.26-0.01-0.23-0.06h0c0.02-0.03,0.07-0.08,0.15-0.13
			c1.09-0.81,7.23-4.1,8.39-4.49c1.24-0.41,3.09-0.21,3.09-0.21s0.49,0.04,1.05,0.02c0.1,0,0.2-0.01,0.3-0.01
			c0.46-0.03,0.87-0.26,1.14-0.6C190.15,89.05,190.28,88.68,190.25,88.29z M162.65,121.52c-0.26,0.37-0.59,0.82-0.97,1.34l1.16-1.61
			C162.78,121.34,162.72,121.43,162.65,121.52z"/>
		<path class="st61" d="M130.17,97.16h2.39c-0.29-0.82-0.58-2.02-0.58-2.02C131.61,95.38,130.17,97.16,130.17,97.16z M137.82,118.23
			c1.88,0.21,5.05,3.3,5.05,3.3l-2.12,2.48l-3.04,3.57l-0.33,0.39l-2.39,2.8c-0.45-0.32-1.02-0.65-1.66-0.99
			c-0.7-0.37-1.47-0.74-2.26-1.11c-0.03-0.01-0.06-0.03-0.08-0.04c-2.36-1.09-4.81-2.11-5.57-2.67c-0.66-0.49-1.57-0.99-2.62-2.22
			c-0.84-0.98-1.77-2.44-2.73-4.73c-0.14-0.34-0.28-0.7-0.43-1.09c-3.05-9.39,1.17-14.8,5.68-17.55c1.41-0.86,2.85-1.46,4.1-1.84
			c0.18-0.06,0.36-0.11,0.53-0.15c0.04-0.01,0.08-0.02,0.11-0.03c0.14-0.04,0.28-0.07,0.41-0.1c0.02-0.01,0.03-0.01,0.03-0.01
			c0.21-0.04,0.41-0.08,0.59-0.11c0.17-0.03,0.33-0.05,0.48-0.07c0,0,0.01,0,0.01,0c0.37-0.04,0.69-0.05,0.93-0.03h0
			c0.08,0.01,0.15,0.02,0.21,0.03c0.01,0,0.02,0,0.03,0.01c0.08,1.61,4.66,10.52,10.11,13.28c-0.11,0.01-0.28,0.06-0.48,0.12
			c-0.09,0.03-0.19,0.06-0.3,0.09c-0.18,0.06-0.38,0.13-0.58,0.21c-0.2,0.07-0.4,0.15-0.58,0.22c-0.14,0.06-0.27,0.11-0.41,0.16
			c-0.04,0.02-0.08,0.03-0.12,0.05c-0.02,0.01-0.03,0.01-0.05,0.02c-0.01,0-0.01,0.01-0.02,0.01c-0.04,0.02-0.09,0.03-0.12,0.05
			c-0.06,0.02-0.11,0.05-0.17,0.07c-0.05,0.02-0.09,0.04-0.13,0.05c0,0,0,0,0,0c-0.04,0.02-0.07,0.03-0.09,0.04
			c-0.01,0.01-0.03,0.01-0.03,0.01c0,0-0.01,0-0.01,0l0.21,5.53C139.12,118.03,137.82,118.24,137.82,118.23L137.82,118.23
			L137.82,118.23z M135.17,130.28c-0.33,0.65-0.67,1.46-0.92,2.38c-5.26-1.19-10.28-3.82-11.74-9.06
			C126.19,127.37,130.83,129.32,135.17,130.28z"/>
		<path class="st57" d="M123.17,120.02c-3.85-8.69,0.82-15.51,1.87-16.28c-2.31,5.22-2.65,10.06-1.68,12.81
			c0.97,2.75,5.7,10.56,13.9,9.95c0.77-0.71,4.89-5.65,4.89-5.65s1.2,0.64,1.32,1.74c-1.79,0.33-7.36,6.93-7.93,8.99
			c-6.44-0.45-11.66-6.4-12.73-7.86c1.67,1.05,3.81,2.29,4.89,2.29c-2.02-1.57-4.54-8.87-4.54-8.87
			C123.07,117.86,123.17,120.02,123.17,120.02L123.17,120.02L123.17,120.02z M122.79,103.36c-2.71,2.09-6.93,16.94,4.91,22.67
			c-2.1-1.94-4.61-9.11-4.61-9.11c-0.03,0.87,0.09,3.11,0.09,3.11C121.47,117.82,119.36,110.4,122.79,103.36z M124.94,106.98
			c-1.2,12.95,9.51,19.48,13.91,16.56C137.04,127.5,120.99,123.25,124.94,106.98z M136.15,114.4c0.8,1.1,1.67,3.84,1.67,3.84
			c0.81-0.11,2.87,0.58,2.87,0.58c-0.33-1.03-0.45-6.02,0-6.1l1.53,3.05c-0.04-1.44,0.66-4.41,0.66-4.41
			c-0.7-0.39-2.57-1.77-2.69-1.88c-0.36,0.68-1.12,5.74-0.93,7.45c-0.69-0.38-0.47-4.92-0.47-4.92c-0.47,1.07-0.58,4.37-0.58,4.37
			C137.91,116.06,136.15,114.4,136.15,114.4L136.15,114.4L136.15,114.4z M161.66,122.88l-6.95,9.63l-3.59,1.48l-7.65,0.94
			c-0.76,0.19-1.55,0.32-2.36,0.4c0.31-0.05,3.61-0.55,6.1-2.22c0,0,0,0-0.01,0c-0.15,0.04-3.35,0.87-5.89,0.38h0.02
			c2.39-0.01,7.57-1.41,7.57-1.41s5.36-6.43,7.01-9.02c-0.08,0.74-5.16,10.11-5.16,10.11C153.64,133.19,158.94,126.54,161.66,122.88
			L161.66,122.88L161.66,122.88z M165,101.74c1.15-3.08,1.65-8.63,2.15-8.74c0.49-0.11,1.26,0,1.26,0
			C168.41,94.37,165,101.74,165,101.74L165,101.74z M166.7,103.22c0.66-0.77,3.63-7.64,3.63-7.64c0.5-0.11,1.49,0,1.49,0
			C171.38,97.56,166.7,103.22,166.7,103.22z M169.02,104.65c0.66-0.88,3.08-4.63,3.08-4.63c0.27-0.37,1.21-0.76,1.21-0.76
			C173.31,100.58,169.89,104.6,169.02,104.65z"/>
		<path class="st59" d="M226.19,103.16c-4.38,6.29-8.07,6.35-15.63,6.64c-0.1,0.08-0.05,0.04-0.19,0.13c-0.79,0.5-1.97,1.22-2.97,1
			c-0.22-0.05-0.36-0.1-0.49-0.12c-4.48-0.75-8.32-0.28-9.46,4.29c-0.21,0.83-0.18,1.31-0.17,2.08c0.04,2.32,0.47,4.61,0.54,6.93
			c-0.05,0.1-0.09,0.17-0.15,0.27c-0.06,0.1-0.12,0.21-0.18,0.32c-0.22,0.38-0.45,0.76-0.68,1.14c-0.16,0.25-0.31,0.49-0.47,0.75
			c-0.28,0.44-0.59,0.88-0.92,1.29c-0.1,0.12-0.2,0.25-0.3,0.38c-0.06,0.07-0.11,0.13-0.16,0.2c-0.09,0.12-0.19,0.23-0.29,0.35
			c-0.23,0.27-0.45,0.53-0.68,0.8c-0.09,0.1-0.18,0.21-0.28,0.31c-0.1,0.11-0.17,0.19-0.28,0.32c-0.11,0.12-0.26,0.28-0.39,0.41
			c-0.14,0.13-0.28,0.27-0.43,0.41c-0.14,0.13-0.3,0.28-0.44,0.41c-0.14,0.13-0.29,0.26-0.42,0.38c-0.13,0.12-0.23,0.21-0.36,0.32
			c-0.05,0.05-0.1,0.09-0.16,0.14c-0.13,0.11-0.24,0.21-0.38,0.33c-0.14,0.12-0.3,0.26-0.45,0.38c-0.15,0.12-0.31,0.26-0.45,0.38
			c-0.15,0.12-0.32,0.26-0.46,0.37c-0.14,0.11-0.26,0.21-0.39,0.31c-0.13,0.1-0.27,0.21-0.38,0.3c-0.11,0.09-0.17,0.13-0.27,0.21
			c-0.01,0.01-0.02,0.01-0.03,0.02c-0.29,0.21-0.59,0.43-0.87,0.63c-0.15,0.11-0.32,0.23-0.45,0.32c-0.13,0.09-0.27,0.19-0.37,0.26
			c-0.1,0.07-0.14,0.1-0.22,0.15c-0.15,0.1-0.27,0.18-0.42,0.28c0.85-7.89,1.67-14.5,1.89-22.53c0.05-1.82,0.48-3.84,0.82-5.65
			c0.6-1.76,1.42-3.49,2.38-5.04c0.87-1.41,1.77-2.56,2.8-3.82c0.94-0.9,1.53-2.15,3.06-2.1c1.38,0.36,3,1.16,3.88-0.37
			c0.78-1.37,0.91-1.02,1.82-3.08s1.28-9.14,6.01-7.61c0.84-1.88,2.45-3.52,4.4-1.85c1.2,6.95-1.79,12.94-4.13,19.19
			c1.03-1.36,2.5-2.77,3.33-4.18c0.83-1.41,1.13-2.78,1.89-4.17c-0.15-2.9-0.55-6.53,2.77-7.63c0.68,0.27,1.22,0.33,1.57,1.11
			c2.04,4.48-1.66,12.28-3.67,16.37c1.55-0.06,3.05-0.32,4.52-0.74C220.75,102.58,225.6,98.47,226.19,103.16L226.19,103.16
			L226.19,103.16z"/>
		<path class="st57" d="M210.7,109.45c-0.19-0.23-0.38-0.46-0.58-0.69c1.71-1.41,3.13-3.01,4.1-4.98c0.28,0.12,0.56,0.24,0.84,0.36
			C214.06,106.26,212.52,107.96,210.7,109.45z M209.79,86.22c-1.27,3.93-2.13,7.2-3.48,11.56c-0.08,0.25-1.95,4.04-2.14,4.86
			c-0.18,0.8-0.19,1.37-0.3,2.06c0.04-0.52,0.07-1.56,0.11-1.95c0.04-0.38-0.05,0.2,0.01-0.11c0.06-0.3-0.17,0.65,0.05-0.21
			c0.22-0.86,1.08-3.94,1.6-5.15c0.53-3.95,1.46-7.66,2.05-11.54C208.4,85.89,209.09,86.06,209.79,86.22
			C209.78,86.23,209.79,86.22,209.79,86.22z"/>
		<path class="st57" d="M209.64,86.69c-0.33,0.26-0.73,0.45-0.94-0.04c-0.03-0.07-0.03-0.15-0.05-0.22
			c-0.02,0.11-0.07,0.32-0.09,0.42c-0.02,0.09-0.01,0.07-0.03,0.13c0.1,0.04-0.01-0.01,0.14,0.05c0.15,0.06,0.56,0.22,0.75,0.3
			C209.5,87.13,209.56,86.91,209.64,86.69L209.64,86.69z M226.82,101.54c-0.95-0.86-1.73-1.53-3.19-1.45
			c-2.07,0.1-3.64,1.66-4.88,3.19c-0.73,0.21-1.43,0.36-2.18,0.46c2.17-4.93,4.21-9.72,3.18-15.24c-0.05-0.26-0.1-0.38-0.18-0.55
			c-0.2-0.39-0.36-0.69-0.71-0.95c-0.67-0.49-1.19-0.71-2.1-0.6c-0.75,0.09-1.62,0.56-2.21,1.06c0.19-0.96,0.02-3.12-0.53-3.76
			c-0.95-1.12-1.57-1.34-2.82-1.24c-1.43,0.12-2.33,1.24-3.08,2.29c-2.09-0.14-3.25,0.64-4.41,2.38c-0.01,0.02,0.14-0.54-0.13,0.33
			c-0.27,0.87-1.37,4.76-1.98,6.06c-0.61,1.3-1.51,2.11-2.01,3.36c-0.8-0.24-1.43-0.5-2.26-0.72c-0.83-0.22-1.66-0.04-2.32,0.5
			c-0.15,0.12-0.28,0.26-0.42,0.39c-0.04,0.04-0.1,0.09-0.13,0.13c-0.04,0.04-0.06,0.06-0.09,0.09c-0.23,0.23-0.45,0.44-0.67,0.69
			c-0.17,0.19-0.36,0.38-0.53,0.58c-1.1,1.27-2.04,2.55-2.94,4c-0.72,1.15-1.39,2.46-1.91,3.74c-0.01,0.04-0.04,0.1-0.05,0.12
			c-0.01,0.02-0.01,0.02-0.01,0.02c-0.04,0.11-0.1,0.25-0.13,0.35c-0.04,0.1-0.07,0.17-0.1,0.26c-0.52,1.53-0.86,3-0.88,4.65
			c-0.02,1.21-0.13,2.5-0.23,3.73c-0.01,0.1-0.01,0.19-0.01,0.33c0,0.13-0.02,0.37-0.02,0.56c0.02,2.94-0.2,7.07-0.58,9.67
			c-0.58,3.97-0.96,6.64-1.5,10.34c-0.04,0.25-0.09,0.6-0.13,0.88c0.2-0.12,0.41-0.25,0.6-0.38c0.2-0.13,0.4-0.25,0.6-0.38
			c0.07-0.04,0.13-0.08,0.2-0.13c0.14-0.09,0.27-0.18,0.41-0.28c0.07-0.05,0.12-0.08,0.22-0.15c0.1-0.07,0.24-0.16,0.37-0.26
			c0.13-0.09,0.3-0.21,0.45-0.32c0.29-0.2,0.59-0.42,0.87-0.63c0.01-0.01,0.02-0.01,0.03-0.02c0.1-0.07,0.16-0.12,0.28-0.21
			c0.11-0.09,0.26-0.2,0.38-0.3c0.13-0.1,0.25-0.2,0.39-0.31c0.14-0.11,0.31-0.25,0.46-0.37c0.15-0.12,0.31-0.25,0.45-0.38
			c0.15-0.12,0.31-0.26,0.45-0.38c0.14-0.12,0.25-0.21,0.38-0.33c0.06-0.05,0.1-0.09,0.16-0.14c0.12-0.11,0.23-0.2,0.36-0.32
			c0.13-0.12,0.28-0.25,0.42-0.38c0.14-0.13,0.3-0.28,0.44-0.41c0.14-0.13,0.29-0.28,0.42-0.41c0.13-0.13,0.28-0.29,0.4-0.41
			c0.11-0.12,0.18-0.21,0.28-0.32c0.1-0.11,0.19-0.21,0.28-0.31c0.23-0.26,0.46-0.53,0.68-0.8c0.1-0.12,0.19-0.23,0.29-0.35
			c0.05-0.07,0.11-0.13,0.16-0.2c0.1-0.12,0.2-0.25,0.3-0.38c0.33-0.42,0.63-0.86,0.92-1.3c0.16-0.25,0.32-0.5,0.47-0.75
			c0.24-0.38,0.46-0.76,0.68-1.14c0.06-0.11,0.13-0.22,0.19-0.32c0.06-0.1,0.1-0.17,0.15-0.27s0.11-0.21,0.17-0.31
			c0.2-0.36,0.39-0.72,0.58-1.08c-0.03-0.85-0.08-1.71-0.09-2.56c0-0.01,0-0.01,0-0.02c0-0.1-0.01-0.2-0.01-0.3
			c-0.03-0.9-0.09-1.84-0.13-2.73c-0.02-0.38-0.01-0.67,0-1.03c0-0.02,0-0.04,0-0.06c0.01-0.29,0.05-0.59,0.09-0.88
			c0-0.03,0.01-0.05,0.01-0.07c0.03-0.18,0.06-0.35,0.11-0.53c0.05-0.18,0.1-0.35,0.17-0.53c0.03-0.07,0.01-0.1,0.06-0.18
			c0.46-0.74,0.52-1.23,1.5-1.71c1.65-0.82,3.9-0.77,5.87-0.45c0.14,0.02,0.42,0.08,0.58,0.11c0.16,0.04,0.32,0.07,0.48,0.11
			c0.66,0.14,1.38,0.05,1.94-0.18c0.57-0.24,1-0.47,1.48-0.73c0.16-0.09,0.15-0.1,0.29-0.18c3.36,0.03,6.79-0.51,9.91-1.35
			c0.32-0.09-0.04,0.04,0.15-0.04c0.19-0.08-0.16,0.1,0.14-0.07c2.44-1.4,4.61-3.22,6.01-5.78
			C227.43,103.05,227.38,102.06,226.82,101.54L226.82,101.54z M196.71,123.97c-1,1.67-1.96,3.16-3.26,4.67
			c-1.77,2.06-3.94,3.84-6.15,5.53c0.42-2.9,0.69-4.8,1.15-7.95c0.39-2.69,0.48-6.57,0.47-9.56c0-0.3,0-0.52,0.02-0.79
			c0.07-1.09,0.21-2.17,0.24-3.27c0.01-0.29,0.03-0.6,0.04-0.91c0.05-1.38,0.39-2.7,0.83-4.01c0,0-0.01,0.01,0.01-0.03
			c0.01-0.04,0.05-0.14,0.08-0.22c0.03-0.08,0.09-0.23,0.12-0.32c0-0.01,0.01-0.03,0.02-0.04c0-0.01,0.02-0.05,0.02-0.06
			c0.01-0.01,0.01-0.02,0.01-0.02c0.5-1.13,1.08-2.31,1.72-3.34c0.87-1.4,1.78-2.63,2.86-3.87c0.16-0.19,0.33-0.35,0.51-0.55
			c0.18-0.19,0.41-0.41,0.61-0.61c0.03-0.02,0.06-0.06,0.09-0.08c0.03-0.03,0.1-0.09,0.12-0.11c0.02-0.02,0.01-0.01,0.01-0.01
			c0.13-0.12,0.27-0.24,0.4-0.34c0.04-0.04,0.05-0.03,0.09-0.06c1.13,0.35,2.26,0.76,3.41,1.04c0.29,0.07,0.58,0.11,0.86,0.19
			c0.11-0.26,0.22-0.42,0.34-0.73c0.47-1.15,1.75-3.15,2.22-3.98c0.48-0.83-0.17,0.51,0.21-0.41c0.38-0.92,1.4-4.37,1.71-5.33
			c0.31-0.97-0.13-0.14,0.28-0.88c0.41-0.74,1.5-1.55,2.61-1c0.05,0.02,0.1,0.03,0.14,0.05c0.04,0.02-0.01-0.01,0.04,0.02
			s-0.01,0,0.13,0.05c0.13,0.06,0.56,0.23,0.75,0.3c0.07-0.17,0.16-0.48,0.21-0.63c0.05-0.14,0.09-0.3,0.13-0.37
			c0.37-0.84,0.86-1.69,1.83-1.88c0.31-0.06,0.48-0.02,0.72,0.41c0.03,0.06,0.13,0.04,0.14,0.88c0.02,1.3-0.22,3.81-0.58,5.64
			c-0.3,1.49-0.81,3.79-1.32,5.37c-1.78,3.69-3.08,7.51-4.21,11.4c1.01-1.29,2.46-2.89,3.44-4.06c1.32-1.58,2.31-2.8,3.47-4.32
			c0.26-0.34-0.17,0.45,0.17-0.29s1.41-3.22,1.83-4.26c0-0.5,0.02,0.32-0.01-0.41c-0.03-0.73-0.04-2.83,0.04-3.89
			c0.01-0.11,0.06-0.47,0.11-0.64c0.28-0.94,0.78-1.67,1.79-1.88c0.3-0.06,0.32,0.11,0.45,0.28c0.03,0.04,0.03,0.07,0.04,0.13
			c0.04,0.19,0.08,0.33,0.11,0.55c0.07,0.6,0.15,0.9,0.15,1.58c0.05,4.87-2,9.11-4.05,13.5c-0.14,0.3-0.49,1.07-0.65,1.43
			c0.1,0.01,0.14,0,0.27,0c0.13,0,0.29-0.01,0.45-0.01c0.16-0.01,0.09,0,0.33-0.01c0.24-0.02,0.28,0.02,0.81-0.04
			c0.2-0.02,1.83-0.23,2.29-0.22c0,0,0.02,0,0.02,0c0.81-0.13,1.59-0.3,2.38-0.55c0.07-0.02,0.21-0.07,0.29-0.1
			c0.04-0.05,0.15-0.19,0.18-0.23c0.83-1.11,2.09-2.5,3.48-2.63c0.85-0.08,0.91,0.31,1.48,0.64c-0.05,0.06-0.06,0.13-0.1,0.18
			c-1.27,1.99-2.98,3.47-5.07,4.65c-2.74,0.71-5.49,1.18-8.36,1.29c-0.1,0-0.24,0-0.35-0.01c-0.19,0-0.38-0.01-0.57-0.02
			c-0.08,0-0.13,0-0.24-0.02c-0.11-0.01-0.31-0.05-0.43-0.07c-0.14,0.12-0.15,0.18-0.32,0.31c-0.18,0.13-0.3,0.2-0.59,0.36
			c-0.2,0.11-0.71,0.36-1.02,0.49c-0.13,0.06-0.43,0.12-0.6,0.07c-0.01,0-0.02,0-0.03-0.01c-0.14-0.04-0.38-0.09-0.52-0.11
			c-2.73-0.52-5.73-0.48-8.02,0.69c-1.37,0.7-1.46,1.44-2.07,2.5c-0.14,0.25-0.12,0.38-0.22,0.6c-0.09,0.22-0.06,0.41-0.12,0.63
			c-0.01,0.02-0.01,0.05-0.01,0.07c-0.05,0.33-0.08,0.66-0.12,1c0,0.01,0,0.04-0.01,0.05c-0.04,0.41-0.09,0.78-0.07,1.19
			c0.04,0.91,0.08,1.84,0.09,2.75c0,0.12,0,0.23,0.01,0.35C196.56,121.12,196.65,122.55,196.71,123.97L196.71,123.97L196.71,123.97z
			"/>
		<path class="st64" d="M210.65,110.99c-0.52,0.28-0.91,0.49-1.49,0.74c-0.58,0.24-1.28,0.32-1.95,0.18
			c-0.16-0.03-0.33-0.07-0.48-0.11c-0.16-0.04-0.44-0.09-0.58-0.11c-1.97-0.32-4.21-0.37-5.87,0.45c-0.98,0.49-1.02,0.97-1.51,1.71
			c-0.66,0.27-1.11,0.58-1.34,1.29c-0.23,0.71-0.23,1.24-0.16,2.08c0.06,0.7,0.23,1.49,0.34,2.32c0.16,1.31,0.29,2.9,0.39,4.26
			c-0.06,0.11-0.12,0.21-0.17,0.31c-0.06,0.1-0.1,0.17-0.15,0.27c-0.06,0.1-0.12,0.21-0.18,0.32c-0.22,0.38-0.45,0.76-0.68,1.14
			c-0.16,0.25-0.31,0.49-0.47,0.75c-0.28,0.44-0.59,0.88-0.92,1.29c-0.1,0.12-0.2,0.25-0.3,0.38c-0.06,0.07-0.11,0.13-0.16,0.2
			c-0.09,0.12-0.19,0.23-0.29,0.35c-0.23,0.27-0.45,0.53-0.68,0.8c-0.09,0.1-0.18,0.21-0.28,0.31c-0.1,0.11-0.17,0.19-0.28,0.32
			c-0.11,0.12-0.26,0.28-0.39,0.41c-0.14,0.13-0.28,0.27-0.43,0.41c-0.14,0.13-0.3,0.28-0.44,0.41c-0.14,0.13-0.29,0.26-0.42,0.38
			c-0.13,0.12-0.23,0.21-0.36,0.32c-0.05,0.05-0.1,0.09-0.16,0.14c-0.13,0.11-0.24,0.21-0.38,0.33c-0.14,0.12-0.3,0.26-0.45,0.38
			c-0.15,0.12-0.31,0.26-0.45,0.38c-0.15,0.12-0.32,0.26-0.46,0.37c-0.14,0.11-0.26,0.21-0.39,0.31s-0.27,0.21-0.38,0.3
			c-0.11,0.09-0.17,0.13-0.27,0.21c-0.01,0.01-0.02,0.01-0.03,0.02c-0.29,0.21-0.59,0.43-0.87,0.63c-0.15,0.11-0.32,0.23-0.45,0.32
			c-0.13,0.09-0.27,0.19-0.37,0.26c-0.1,0.07-0.14,0.1-0.22,0.15c-0.15,0.1-0.27,0.18-0.41,0.28c-0.07,0.04-0.13,0.09-0.2,0.13
			c-0.2,0.13-0.4,0.26-0.6,0.38c-0.2,0.12-0.42,0.26-0.6,0.37c-0.18,0.11-0.33,0.21-0.5,0.31c-0.67,0.4-1.34,0.78-2.02,1.15
			c-1.71-1.6-1.41-3.46-0.73-5.42c1.77-5.32,3.94-10.45,5.14-15.95c0.11-0.49,0.21-1.05,0.34-1.54c0.2-0.75,0.51-1.33,1.01-1.92
			c0.01-0.01,0.02-0.02,0.03-0.04c0.39-0.37,0.8-0.79,1.22-1.12c1.52-1.17,3.08-2.28,4.84-3.05c1.46-0.63,2.63-0.96,4.28-1.19
			c2.08-0.29,4.16-0.79,6.31,0.02c1.08,0.4,2.18,0.94,3.35,1.06c0.44,0.04,0.84,0.02,1.26-0.06c0.28-0.05,0.53-0.17,0.79-0.28
			c0.13,0.26,0.27,0.55,0.37,0.81C210.51,110.28,210.59,110.61,210.65,110.99L210.65,110.99z M214.94,107.59
			c1.94,0.15,3.8,0,5.52-0.85c1.95-0.95,3.3-2.45,4.8-3.91c-0.26,1.46-0.9,2.71-2.07,3.66c-1.17,0.95-2.5,1.47-3.96,1.82
			c-1.47,0.36-2.96,0.44-4.46,0.58c-1.36,0.12-2.7,0.2-4.06,0.33c1.01-1.12,1.96-2.22,3.02-3.32c0.3-0.31,0.98-0.88,1.36-0.23
			C215.41,106.21,215.04,107.02,214.94,107.59L214.94,107.59z"/>
	</g>
</g>
</svg>
