<?xml version="1.0" encoding="utf-8"?>
<!-- Generator: Adobe Illustrator 27.8.1, SVG Export Plug-In . SVG Version: 6.00 Build 0)  -->
<svg version="1.1" xmlns="http://www.w3.org/2000/svg" xmlns:xlink="http://www.w3.org/1999/xlink" x="0px" y="0px"
	 viewBox="0 0 350 230" style="enable-background:new 0 0 350 230;" xml:space="preserve">
<style type="text/css">
	.st0{display:none;}
	.st1{display:inline;}
	.st2{display:inline;fill:#61FFFB;}
	.st3{display:inline;fill:#FFFF66;}
	.st4{display:inline;fill:#66FF91;}
	.st5{display:inline;fill:#66BEFF;}
	.st6{display:inline;fill:#033D3D;}
	.st7{display:inline;fill:#62DD79;}
	.st8{display:inline;fill:#D8D564;}
	.st9{display:inline;fill:#66E9FF;}
	.st10{display:inline;fill:#FF66BA;}
	.st11{display:inline;fill:#DAFF66;}
	.st12{display:inline;fill:#C0FF97;}
	.st13{display:inline;fill:#490127;}
	.st14{fill:#DDDDDD;}
	.st15{fill:#F7931E;}
	.st16{fill:#604F3E;}
	.st17{fill:#2C1E20;}
	.st18{fill:#F7BF0B;}
	.st19{fill:#FFCE00;}
	.st20{fill-rule:evenodd;clip-rule:evenodd;fill:#F3B03C;}
	.st21{fill:#C41621;}
	.st22{fill:#352B2F;}
	.st23{fill:#FFFFFF;}
	.st24{fill:#00FFFF;}
	.st25{fill:#29ABE2;}
	.st26{fill:#B61E5A;}
	.st27{fill:#1E2254;}
	.st28{fill:#33DDFF;}
	.st29{fill:#0065A3;}
	.st30{fill:#F6973B;}
	.st31{fill:#5A3FA8;}
	.st32{fill:#00AB91;}
	.st33{fill-rule:evenodd;clip-rule:evenodd;fill:#13A559;}
	.st34{fill:#4E17AC;}
	.st35{fill:#103747;}
	.st36{fill:#019AC2;}
	.st37{fill-rule:evenodd;clip-rule:evenodd;fill:#B825BD;}
	.st38{fill-rule:evenodd;clip-rule:evenodd;fill:#FF8788;}
	.st39{fill:#282519;}
	.st40{fill:#C71A8B;}
	.st41{fill:#F9C60B;}
	.st42{fill:#E67A7B;}
	.st43{fill:#66767A;}
	.st44{fill:#0194A8;}
	.st45{fill:#00A4FF;}
	.st46{fill:#262626;}
	.st47{fill:#00FFE8;}
	.st48{fill:#D4FFFF;}
	.st49{fill-rule:evenodd;clip-rule:evenodd;fill:#FF00B8;}
	.st50{fill-rule:evenodd;clip-rule:evenodd;fill:#05E2FF;}
	.st51{fill:#FFF800;}
	.st52{fill:#0192A7;}
	.st53{fill:#D4209E;}
	.st54{fill:#0B0F22;}
	.st55{fill:#E12D2E;}
	.st56{fill:#B8C7FF;}
	.st57{fill:#000051;}
	.st58{fill:#FDC093;fill-opacity:0.5;}
	.st59{fill:#FDC093;}
	.st60{fill:#008CFF;fill-opacity:0.4;}
	.st61{fill:#008CFF;}
	.st62{fill:#000051;fill-opacity:0.41;}
	.st63{fill:#F9032C;}
	.st64{fill:#000051;fill-opacity:0.26;}
	.st65{fill:#8B8B8B;}
	.st66{fill:#E65101;}
	.st67{fill:#FACB01;}
	.st68{fill:#9AEB4E;}
	.st69{fill:#FF6600;}
	.st70{fill:#FF7BAC;}
	.st71{fill:#222222;}
	.st72{fill:#FEFEFE;}
	.st73{fill:#F2F2F2;}
	.st74{opacity:0.3;fill:#222222;enable-background:new    ;}
	.st75{fill:#383838;}
	.st76{fill:#1C2043;}
	.st77{fill:#171717;}
	.st78{fill:#178FAA;}
	.st79{opacity:0.3;fill:#FFFFFF;enable-background:new    ;}
	.st80{opacity:0.3;fill:#383838;enable-background:new    ;}
	.st81{opacity:0.3;fill:#A8AAB2;enable-background:new    ;}
	.st82{fill:#E6E6E6;}
	.st83{fill:#FBB03B;}
	.st84{fill:#F8BA03;}
	.st85{fill:#E95900;}
	.st86{fill:#7A1BBD;}
	.st87{fill:#676767;}
	.st88{fill:#F751E1;}
</style>
<g id="Layer_1">
</g>
<g id="Layer_2">
</g>
<g id="Layer_3">
</g>
<g id="Layer_4">
</g>
<g id="Layer_5">
</g>
<g id="Layer_6">
</g>
<g id="Layer_7">
</g>
<g id="Layer_8">
</g>
<g id="Layer_9">
</g>
<g id="Layer_10">
</g>
<g id="Layer_11">
</g>
<g id="Layer_12">
</g>
<g id="Layer_13">
</g>
<g id="Layer_14">
</g>
<g id="Layer_15">
	<path class="st49" d="M198.97,41.85c-0.31-0.53-1.31-0.82-4.92-1.04c3.79-0.15,4.84-0.52,5.41,1.01c0.23,0.69,0.83,1.11,1.8,1.26
		C200.47,43.11,199.65,43.03,198.97,41.85z M214.05,101.6c0,6.77-2.26,12.95-5.97,17.65c4.49-4.53,7.26-10.77,7.26-17.65
		c0-6.88-2.77-13.12-7.26-17.65C211.8,88.65,214.05,94.83,214.05,101.6z M230.34,101.6c0,19.08-11.88,35.22-28.24,40.58
		c17.57-5.12,30.41-21.35,30.41-40.58c0-14.25-7.05-26.85-17.85-34.5c-0.01-0.01,0.28,0.18-0.21-0.15l-0.14-0.09l-0.23-0.16
		c-3.63-2.48-7.66-4.41-11.98-5.67C218.46,66.38,230.34,82.52,230.34,101.6z M227.33,101.6c0,17.65-10.99,32.58-26.12,37.53
		c16.25-4.74,28.12-19.75,28.12-37.53s-11.87-32.79-28.12-37.53C216.34,69.02,227.33,83.95,227.33,101.6z M224.82,101.6
		c0,16.45-10.25,30.37-24.35,34.98c15.15-4.42,26.22-18.41,26.22-34.98c0-16.58-11.07-30.57-26.22-34.98
		C214.57,71.23,224.82,85.15,224.82,101.6z M217.56,101.6c0,10.11-4.72,19.02-11.91,24.33c8.05-5.1,13.39-14.09,13.39-24.33
		c0-10.23-5.34-19.22-13.39-24.33C212.84,82.58,217.56,91.5,217.56,101.6z M240.05,79.21c1.06,21.48,0.68,29.04,0.57,39.88
		c-0.15,13.94-2.18,19.52-10.53,20.35c8-2.18,9.18-8.26,8.93-20.5c-0.26-12.27,0.31-25.26-1.18-45.15
		c-1.56-8.6-4.67-10.73-14.57-12.02c-5.99-0.78-10.72-4.79-15.46-15.4c-0.68-1.51-5.85-0.88-12.12-1.29
		c5.11-0.11,10.71,0,10.72-0.39c0.03-0.75-4.44-1.62-4.44-1.62c3.69,0.31,5.4,0.43,5.79,1.12c3.02,6.04,6.14,10.91,9.42,13.64
		c2.28,1.9,4.65,2.52,7.06,2.8C233.85,61.74,239.3,64.46,240.05,79.21L240.05,79.21z M197.51,54.76c3.72,0.31,6.46,0.67,8.54,1.23
		c4.27,1.15,5.75,3.17,7.23,7.43c-1.38-4.95-0.69-4.47-2.87-6.29c-1.36-1.14-3.87-1.73-6.61-2.04
		C201.71,54.85,199.47,54.78,197.51,54.76L197.51,54.76z"/>
	<path class="st50" d="M142.13,63.6c-5.26-6.37-21.8-4.13-23.38,6.72c0.36-4.81,3.7-10.39,10.41-10.87
		c7.34-0.52,22.31,0.06,30.67-3.43c4.05-1.69,6.82-5.03,8.89-8.76c1.74-3.14,1.98-3.84,3.08-3.97c4.84-0.56,5.34-0.37,1.47,0.43
		c-4.13,0.62,1.4,1.52,15.1,1.25c-8.43,0.95-13.67,0.98-16.31-0.31c-0.61-0.3-0.87-0.25-1.55,1.65c-3.74,8.44-10.6,12.79-20.6,13.06
		c-8.09,0.26-12.13,0.39-12.13,0.39C136.84,59.84,140.76,60.21,142.13,63.6L142.13,63.6z M110.7,128.46
		c-0.63-22.77-0.06-40.63,1.7-53.57c9.25-1.07,20.67-1.5,34.24-1.28c-14.72-1.46-26.04-1.3-33.97,0.49c1.03-4.76,3.05-8.43,6.08-11
		c-4.71,2.58-7.55,7.72-8.54,15.42c-1.39,22.15-0.86,37.23-0.97,47.49c-0.08,8,1.04,12.34,5.97,14.01
		c-2.93-2.26-4.22-4.41-4.28-6.48c-0.03-1.03,1.1,0.91,4.49,1.3c4.12,0.48,9.55,0.82,15.52,0.04c-9.06-0.22-14.8-0.32-17.78-1.77
		C111.22,132.16,110.59,130.87,110.7,128.46L110.7,128.46z M149.45,71.2c0-1.1,0.85-2.02,1.99-2.26c-0.19-0.04-0.39-0.06-0.59-0.06
		c-1.43,0-2.59,1.04-2.59,2.32s1.16,2.32,2.59,2.32c0.2,0,0.4-0.02,0.59-0.06C150.3,73.21,149.45,72.29,149.45,71.2z M161.92,69.08
		c2.75-5.58,5.1-9.73,9.39-11.79c3.69-1.77,6.19-2.28,14.61-2.73c-9.14-0.56-12.57-0.56-15.6,1.29
		C166.64,58.08,164.34,62.29,161.92,69.08L161.92,69.08z M179.24,41.7c0.31-0.53,4.22-0.82,7.83-1.04c-5.29-0.2-7.75-0.52-8.33,1.01
		c-0.23,0.69-0.83,1.11-1.8,1.26C177.75,42.95,178.57,42.88,179.24,41.7L179.24,41.7z M150.16,101.6
		c0-19.08,11.88-35.22,28.24-40.58c-8.35,2.44-15.64,7.38-20.98,13.97c0.7-5.55,1.91-10.56,3.65-15.01
		c-2.93,5.01-4.16,10.08-3.67,15.2c0-0.05-0.01-0.09-0.01-0.14c-5.87,7.26-9.39,16.5-9.39,26.56c0,19.22,12.84,35.45,30.41,40.58
		C162.04,136.82,150.16,120.68,150.16,101.6L150.16,101.6z M179.29,139.13c-15.13-4.95-26.12-19.88-26.12-37.53
		s10.99-32.58,26.12-37.53c-16.25,4.74-28.12,19.75-28.12,37.53S163.04,134.39,179.29,139.13z M180.03,136.58
		c-14.1-4.62-24.35-18.53-24.35-34.98c0-16.45,10.25-30.37,24.35-34.98c-15.15,4.42-26.22,18.41-26.22,34.98
		S164.88,132.17,180.03,136.58z M174.85,125.93c-7.19-5.3-11.91-14.22-11.91-24.33s4.72-19.02,11.91-24.33
		c-8.05,5.1-13.39,14.09-13.39,24.33S166.81,120.82,174.85,125.93z M172.42,119.25c-3.72-4.7-5.97-10.88-5.97-17.65
		c0-6.77,2.26-12.95,5.97-17.65c-4.49,4.53-7.26,10.77-7.26,17.65C165.16,108.48,167.93,114.72,172.42,119.25z M138.94,102.15
		c-0.48,14.26-0.47,24.6,0.03,31.04c1.85-10.8,2.19-29.01,1.02-54.61c-0.56,12.69-0.84,19.04-0.84,19.04
		c-1.27-3.97-7.12-5.46-16.98-3.59c6.88-0.27,11.76,0.16,14.35,2.08C138.35,97.44,138.85,99.73,138.94,102.15z M126.79,82.75
		c-2.78,0.39-3.51,5.34-0.72,6.35C124.29,87.47,124.78,83.47,126.79,82.75z M132.55,62.65c-7.08-0.91-8.25,5.3-1.73,4.99
		C124.96,66.7,126.87,62.84,132.55,62.65z M198.23,92.11c0.01,0.1,0.02,0.21,0.02,0.31c0,1.42-1.15,2.57-2.58,2.57
		c-1.42,0-2.58-1.15-2.58-2.57c0-1.09,0.67-2.01,1.61-2.39c-1.26-0.46-2.61-0.72-4.03-0.72c-6.41,0-11.62,5.21-11.62,11.63
		c0,6.42,5.21,11.62,11.62,11.62c6.42,0,11.63-5.2,11.63-11.62C202.3,97.4,200.72,94.24,198.23,92.11z"/>
</g>
</svg>
