<?xml version="1.0" encoding="utf-8"?>
<!-- Generator: Adobe Illustrator 27.8.1, SVG Export Plug-In . SVG Version: 6.00 Build 0)  -->
<svg version="1.1" xmlns="http://www.w3.org/2000/svg" xmlns:xlink="http://www.w3.org/1999/xlink" x="0px" y="0px"
	 viewBox="0 0 350 230" style="enable-background:new 0 0 350 230;" xml:space="preserve">
<style type="text/css">
	.st0{display:none;}
	.st1{display:inline;}
	.st2{display:inline;fill:#61FFFB;}
	.st3{display:inline;fill:#FFFF66;}
	.st4{display:inline;fill:#66FF91;}
	.st5{display:inline;fill:#66BEFF;}
	.st6{display:inline;fill:#033D3D;}
	.st7{display:inline;fill:#62DD79;}
	.st8{display:inline;fill:#D8D564;}
	.st9{display:inline;fill:#66E9FF;}
	.st10{display:inline;fill:#FF66BA;}
	.st11{display:inline;fill:#DAFF66;}
	.st12{display:inline;fill:#C0FF97;}
	.st13{display:inline;fill:#490127;}
	.st14{fill:#DDDDDD;}
	.st15{fill:#F7931E;}
	.st16{fill:#604F3E;}
	.st17{fill:#2C1E20;}
	.st18{fill:#F7BF0B;}
	.st19{fill:#FFCE00;}
	.st20{fill-rule:evenodd;clip-rule:evenodd;fill:#F3B03C;}
	.st21{fill:#C41621;}
	.st22{fill:#352B2F;}
	.st23{fill:#FFFFFF;}
	.st24{fill:#00FFFF;}
	.st25{fill:#29ABE2;}
	.st26{fill:#B61E5A;}
	.st27{fill:#1E2254;}
	.st28{fill:#33DDFF;}
	.st29{fill:#0065A3;}
	.st30{fill:#F6973B;}
	.st31{fill:#5A3FA8;}
	.st32{fill:#00AB91;}
	.st33{fill-rule:evenodd;clip-rule:evenodd;fill:#13A559;}
	.st34{fill:#4E17AC;}
	.st35{fill:#103747;}
	.st36{fill:#019AC2;}
	.st37{fill-rule:evenodd;clip-rule:evenodd;fill:#B825BD;}
	.st38{fill-rule:evenodd;clip-rule:evenodd;fill:#FF8788;}
	.st39{fill:#282519;}
	.st40{fill:#C71A8B;}
	.st41{fill:#F9C60B;}
	.st42{fill:#E67A7B;}
	.st43{fill:#66767A;}
	.st44{fill:#0194A8;}
	.st45{fill:#00A4FF;}
	.st46{fill:#262626;}
	.st47{fill:#00FFE8;}
	.st48{fill:#D4FFFF;}
	.st49{fill-rule:evenodd;clip-rule:evenodd;fill:#FF00B8;}
	.st50{fill-rule:evenodd;clip-rule:evenodd;fill:#05E2FF;}
	.st51{fill:#FFF800;}
	.st52{fill:#0192A7;}
	.st53{fill:#D4209E;}
	.st54{fill:#0B0F22;}
	.st55{fill:#E12D2E;}
	.st56{fill:#B8C7FF;}
	.st57{fill:#000051;}
	.st58{fill:#FDC093;fill-opacity:0.5;}
	.st59{fill:#FDC093;}
	.st60{fill:#008CFF;fill-opacity:0.4;}
	.st61{fill:#008CFF;}
	.st62{fill:#000051;fill-opacity:0.41;}
	.st63{fill:#F9032C;}
	.st64{fill:#000051;fill-opacity:0.26;}
	.st65{fill:#8B8B8B;}
	.st66{fill:#E65101;}
	.st67{fill:#FACB01;}
	.st68{fill:#9AEB4E;}
	.st69{fill:#FF6600;}
	.st70{fill:#FF7BAC;}
	.st71{fill:#222222;}
	.st72{fill:#FEFEFE;}
	.st73{fill:#F2F2F2;}
	.st74{opacity:0.3;fill:#222222;enable-background:new    ;}
	.st75{fill:#383838;}
	.st76{fill:#1C2043;}
	.st77{fill:#171717;}
	.st78{fill:#178FAA;}
	.st79{opacity:0.3;fill:#FFFFFF;enable-background:new    ;}
	.st80{opacity:0.3;fill:#383838;enable-background:new    ;}
	.st81{opacity:0.3;fill:#A8AAB2;enable-background:new    ;}
	.st82{fill:#E6E6E6;}
	.st83{fill:#FBB03B;}
	.st84{fill:#F8BA03;}
	.st85{fill:#E95900;}
	.st86{fill:#7A1BBD;}
	.st87{fill:#676767;}
	.st88{fill:#F751E1;}
</style>
<g id="Layer_1">
</g>
<g id="Layer_2">
</g>
<g id="Layer_3">
</g>
<g id="Layer_4">
</g>
<g id="Layer_5">
</g>
<g id="Layer_6">
</g>
<g id="Layer_7">
</g>
<g id="Layer_8">
</g>
<g id="Layer_9">
</g>
<g id="Layer_10">
</g>
<g id="Layer_11">
</g>
<g id="Layer_12">
</g>
<g id="Layer_13">
</g>
<g id="Layer_14">
</g>
<g id="Layer_15">
	<g>
		<path class="st86" d="M250.57,198.99c0.91,1.19,1.81,2.38,2.75,3.61c-7.48,0-14.84,0.06-22.2-0.02c-5.5-0.06-9.69-4.29-9.85-9.8
			c-0.07-2.37-0.02-4.74-0.02-7.1c0-9.29-0.03-18.59,0.04-27.88c0.01-1.58,0.25-3.23,0.75-4.72c1.09-3.27,3.88-4.9,7.3-4.55
			c0.44,0.05,0.88,0.07,1.49,0.11c0.06-0.96,0.11-1.86,0.17-2.82c4.68,0,9.26,0,13.93,0c0.05,0.94,0.1,1.81,0.15,2.8
			c2.6,0,5.14,0.03,7.67-0.04c0.35-0.01,0.81-0.49,1.01-0.86c1.57-2.91,3.11-5.83,4.61-8.77c0.37-0.73,0.82-0.99,1.65-0.99
			c6.03,0.03,12.06,0.02,18.1-0.02c0.8-0.01,1.19,0.31,1.54,0.98c1.49,2.9,3.04,5.76,4.52,8.66c0.39,0.77,0.87,1.08,1.77,1.06
			c2.77-0.06,5.53-0.02,8.46-0.02c0.09-0.93,0.18-1.83,0.28-2.8c4.59,0,9.12,0,13.81,0c0,0.89,0,1.71,0,2.68
			c2.32-0.34,4.21,0.27,5.67,1.9c1.71,1.92,2.4,4.24,2.4,6.79c0,11.71,0.01,23.41,0,35.12c-0.01,6.05-4.07,10.22-10.12,10.29
			c-6.7,0.07-13.4,0.04-20.11,0.04c-0.25,0-0.51-0.03-0.92-0.06c1.75-2.14,3.39-4.17,5.04-6.19
			C277.73,206.36,264.56,207.96,250.57,198.99z M269.06,151.96c-13.27,0.01-24.26,10.87-24.29,24.02
			c-0.03,13.21,10.91,23.88,24.49,23.88c13.15,0,23.93-10.71,23.96-23.81C293.25,162.77,282.4,151.95,269.06,151.96z M302.93,161.03
			c0,0,0-0.01,0-0.01c0.54,0,1.07,0,1.61,0c0.58,0,1.16,0.02,1.74,0.01c1.6-0.02,2.54-0.91,2.57-2.43c0.04-1.53-0.98-2.69-2.51-2.71
			c-2.32-0.04-4.64-0.02-6.97,0.04c-1.36,0.04-2.35,1.15-2.33,2.44c0.03,1.55,0.97,2.63,2.4,2.67
			C300.6,161.06,301.77,161.03,302.93,161.03z"/>
		<path class="st87" d="M240.12,30.02c-2.38,1.19-4.08,2.84-4.73,5.38c-1.02,4.01,1.66,7.75,5.9,8.43c3.81,0.61,7.22-0.4,10.18-2.7
			c2.39-1.86,4.59-3.97,6.83-6.02c5.45-4.98,11.79-7.73,19.23-7.34c7.25,0.39,12.99,3.3,16,10.36c0.19,0.45,0.77,0.83,1.25,1.05
			c3.62,1.63,5.69,4.72,5.42,8.28c-0.19,2.42-1.37,4.4-2.96,6.16c-4.89,5.44-11.05,9.01-17.66,11.85c-3.05,1.32-6.29,2.19-9.5,3.03
			c2.95-2.38,5.91-4.76,8.86-7.15c-0.11-0.18-0.23-0.36-0.35-0.54c-2.3,0.94-4.6,1.86-6.88,2.83c-5.56,2.36-11.28,3.95-17.4,3.74
			c-11.38-0.37-21.72-7.82-24.96-18.12c-1.28-4.07-1.4-8.21,0.18-12.22c1.48-3.75,4.09-6.36,8.26-7.02
			C238.54,29.92,239.34,30.02,240.12,30.02z"/>
		<path d="M248.68,141.2c-3.12-2.17-6.4-2.03-9.67-1.95c-3.3,0.08-6.66-0.2-9.88,0.36c-7.98,1.4-13.72,7.58-14.79,15.58
			c-0.29,2.2-0.12,4.46-0.13,6.69c-0.02,8.76-0.02,17.51-0.04,26.26c0,0.56,0,1.13,0,2.09c-2.98-2.21-6.14-3.67-7.97-6.63
			c-0.71-1.15-1.06-2.7-1.07-4.07c-0.08-14.16-0.06-28.32-0.04-42.48c0-3.16,1.71-5.57,4.83-6.69c8.98-3.23,17.99-6.39,26.98-9.59
			c3.11-1.11,6.2-2.27,9.3-3.4c0.78-0.28,1.59-0.5,2.47-0.78C248.68,124.81,248.68,132.83,248.68,141.2z M323.61,184.59
			c0-1.65,0-3.06,0-4.48c0-7.73,0.01-15.46,0-23.19c-0.01-9.27-8.26-17.57-17.56-17.66c-2.46-0.03-4.92,0.04-7.37-0.04
			c-3.22-0.11-6.33,0.19-9.31,2.01c0-8.31,0-16.45,0-24.75c1.74,0.62,3.48,1.23,5.22,1.85c10.89,3.88,21.77,7.79,32.66,11.65
			c3.16,1.12,5.53,3.71,5.49,7.65c-0.13,12.46-0.09,24.93-0.02,37.39c0.02,3.33-1.39,5.63-4.24,7.15
			C326.97,182.96,325.44,183.68,323.61,184.59z M284.78,111.41c-0.27-2.47-0.55-4.93-0.81-7.32c-4.81,2.78-9.51,5.52-14.25,8.19
			c-0.42,0.24-1.21,0.23-1.63-0.01c-4.25-2.45-8.46-4.98-12.68-7.48c-0.45-0.27-0.91-0.54-1.58-0.94c-0.26,2.57-0.49,4.96-0.73,7.35
			c-0.1,0-0.19-0.01-0.29-0.01c-0.79-7.15-1.57-14.3-2.35-21.38c1.89,2.51,3.71,5.09,5.7,7.52c2.25,2.74,4.88,5.09,7.98,6.86
			c3.07,1.76,6.15,1.93,9.3,0.21c4.34-2.36,7.57-5.93,10.51-9.78c1.15-1.51,2.19-3.11,3.48-4.95c-0.83,7.46-1.61,14.58-2.4,21.7
			C284.94,111.39,284.86,111.4,284.78,111.41z M296.16,58.52c0,1.48,0,2.89,0,4.29c-0.01,4.78-0.1,9.55,0.01,14.33
			c0.09,3.94-1.85,5.35-5.05,6.08c-0.48,0.11-0.96,0.17-1.57,0.27c-0.05-0.47-0.13-0.9-0.13-1.32c-0.02-6.02-0.01-12.05-0.06-18.07
			c-0.01-0.97,0.35-1.47,1.18-1.96C292.42,61.06,294.19,59.81,296.16,58.52z M277.16,123.06c-1.63,2.39-3.16,4.68-4.77,6.93
			c-0.24,0.33-0.83,0.55-1.27,0.57c-1.24,0.05-2.52-0.19-3.73,0c-1.19,0.19-1.73-0.21-2.31-1.16c-1.14-1.86-2.4-3.65-3.69-5.41
			c-0.48-0.66-0.45-1.13,0.03-1.75c0.96-1.23,1.87-2.5,2.75-3.78c0.41-0.59,0.82-0.74,1.44-0.37c0.23,0.14,0.51,0.18,0.73,0.32
			c1.85,1.09,3.69,1.19,5.49-0.06c1.12-0.78,1.81-0.35,2.47,0.67C275.2,120.4,276.2,121.72,277.16,123.06z M241.85,69.98
			c2.05,0.57,4.06,1.12,6.06,1.72c0.26,0.08,0.63,0.43,0.63,0.65c0.04,3.69,0.03,7.38,0.03,11.42c-1.68-0.55-3.12-0.88-4.42-1.48
			c-1.32-0.61-2.2-1.82-2.26-3.27C241.77,76,241.85,72.98,241.85,69.98z"/>
		<path class="st88" d="M269,192.37c-9.27-0.05-16.73-7.37-16.65-16.34c0.08-9.31,7.45-16.6,16.76-16.59
			c9.17,0.01,16.7,7.51,16.65,16.57C285.71,185.22,278.34,192.41,269,192.37z M257.04,176.22c0,0.31-0.01,0.63,0,0.94
			c0.08,1.85,0.98,2.89,2.47,2.86c1.65-0.04,2.25-0.78,2.29-2.84c0.07-3.8,2.4-7,6.03-8.14c1.06-0.33,2.18-0.45,3.25-0.74
			c1.51-0.4,2.15-1.91,1.39-3.26c-0.63-1.11-1.69-1.37-2.86-1.36C262.65,163.77,257.11,169.3,257.04,176.22z"/>
	</g>
</g>
</svg>
