<?xml version="1.0" encoding="utf-8"?>
<!-- Generator: Adobe Illustrator 27.8.1, SVG Export Plug-In . SVG Version: 6.00 Build 0)  -->
<svg version="1.1" xmlns="http://www.w3.org/2000/svg" xmlns:xlink="http://www.w3.org/1999/xlink" x="0px" y="0px"
	 viewBox="0 0 350 230" style="enable-background:new 0 0 350 230;" xml:space="preserve">
<style type="text/css">
	.st0{display:none;}
	.st1{display:inline;}
	.st2{display:inline;fill:#61FFFB;}
	.st3{display:inline;fill:#FFFF66;}
	.st4{display:inline;fill:#66FF91;}
	.st5{display:inline;fill:#66BEFF;}
	.st6{display:inline;fill:#033D3D;}
	.st7{display:inline;fill:#62DD79;}
	.st8{display:inline;fill:#D8D564;}
	.st9{display:inline;fill:#66E9FF;}
	.st10{display:inline;fill:#FF66BA;}
	.st11{display:inline;fill:#DAFF66;}
	.st12{display:inline;fill:#C0FF97;}
	.st13{display:inline;fill:#490127;}
	.st14{fill:#DDDDDD;}
	.st15{fill:#F7931E;}
	.st16{fill:#604F3E;}
	.st17{fill:#2C1E20;}
	.st18{fill:#F7BF0B;}
	.st19{fill:#FFCE00;}
	.st20{fill-rule:evenodd;clip-rule:evenodd;fill:#F3B03C;}
	.st21{fill:#C41621;}
	.st22{fill:#352B2F;}
	.st23{fill:#FFFFFF;}
	.st24{fill:#00FFFF;}
	.st25{fill:#29ABE2;}
	.st26{fill:#B61E5A;}
	.st27{fill:#1E2254;}
	.st28{fill:#33DDFF;}
	.st29{fill:#0065A3;}
	.st30{fill:#F6973B;}
	.st31{fill:#5A3FA8;}
	.st32{fill:#00AB91;}
	.st33{fill-rule:evenodd;clip-rule:evenodd;fill:#13A559;}
	.st34{fill:#4E17AC;}
	.st35{fill:#103747;}
	.st36{fill:#019AC2;}
	.st37{fill-rule:evenodd;clip-rule:evenodd;fill:#B825BD;}
	.st38{fill-rule:evenodd;clip-rule:evenodd;fill:#FF8788;}
	.st39{fill:#282519;}
	.st40{fill:#C71A8B;}
	.st41{fill:#F9C60B;}
	.st42{fill:#E67A7B;}
	.st43{fill:#66767A;}
	.st44{fill:#0194A8;}
	.st45{fill:#00A4FF;}
	.st46{fill:#262626;}
	.st47{fill:#00FFE8;}
	.st48{fill:#D4FFFF;}
	.st49{fill-rule:evenodd;clip-rule:evenodd;fill:#FF00B8;}
	.st50{fill-rule:evenodd;clip-rule:evenodd;fill:#05E2FF;}
	.st51{fill:#FFF800;}
	.st52{fill:#0192A7;}
	.st53{fill:#D4209E;}
	.st54{fill:#0B0F22;}
	.st55{fill:#E12D2E;}
	.st56{fill:#B8C7FF;}
	.st57{fill:#000051;}
	.st58{fill:#FDC093;fill-opacity:0.5;}
	.st59{fill:#FDC093;}
	.st60{fill:#008CFF;fill-opacity:0.4;}
	.st61{fill:#008CFF;}
	.st62{fill:#000051;fill-opacity:0.41;}
	.st63{fill:#F9032C;}
	.st64{fill:#000051;fill-opacity:0.26;}
	.st65{fill:#8B8B8B;}
	.st66{fill:#E65101;}
	.st67{fill:#FACB01;}
	.st68{fill:#9AEB4E;}
	.st69{fill:#FF6600;}
	.st70{fill:#FF7BAC;}
	.st71{fill:#222222;}
	.st72{fill:#FEFEFE;}
	.st73{fill:#F2F2F2;}
	.st74{opacity:0.3;fill:#222222;enable-background:new    ;}
	.st75{fill:#383838;}
	.st76{fill:#1C2043;}
	.st77{fill:#171717;}
	.st78{fill:#178FAA;}
	.st79{opacity:0.3;fill:#FFFFFF;enable-background:new    ;}
	.st80{opacity:0.3;fill:#383838;enable-background:new    ;}
	.st81{opacity:0.3;fill:#A8AAB2;enable-background:new    ;}
	.st82{fill:#E6E6E6;}
	.st83{fill:#FBB03B;}
	.st84{fill:#F8BA03;}
	.st85{fill:#E95900;}
	.st86{fill:#7A1BBD;}
	.st87{fill:#676767;}
	.st88{fill:#F751E1;}
</style>
<g id="Layer_1">
</g>
<g id="Layer_2">
</g>
<g id="Layer_3">
</g>
<g id="Layer_4">
</g>
<g id="Layer_5">
</g>
<g id="Layer_6">
</g>
<g id="Layer_7">
</g>
<g id="Layer_8">
</g>
<g id="Layer_9">
</g>
<g id="Layer_10">
</g>
<g id="Layer_11">
</g>
<g id="Layer_12">
</g>
<g id="Layer_13">
</g>
<g id="Layer_14">
</g>
<g id="Layer_15">
	<g>
		<path d="M246.05,50.98c-0.06-1.69,0.5-2.58,1.65-2.86l11.42-3.18c-1.2,0.52-1.38,2.37-1.33,2.94l-0.48,10.68
			c0.14,1.56,0.74,2.93,2.07,3.33l18.58,6.4l-0.34-10.14c-0.04-1.32-0.73-2.09-1.62-2.57c0,0-12.05-6.41-15.39-7.86
			c-0.5-0.22-1.17,0.17-1.19,0.19c0.19-1.65,1.25-2.77,2.77-2.18l17.2,8.46c1.74,0.79,2.68,1.71,2.76,4.07l0.35,10.55
			c0.05,1.52-0.61,2.21-1.63,2.45h0c-0.56,0.13-1.06,0.22-1.79,0.13l-2.63-0.91l0,0l-31-10.57L246.05,50.98z M259.79,71.55
			l-7.6-2.17c-0.67-0.05-1.26,0.41-1.42,1.04c0.25-0.26,0.6-0.41,0.99-0.39l6.99,1.99c0.85,0.24,1.38,0.99,1.33,1.68l-0.23,3.41
			c-0.04,0.59-0.48,1.05-1.03,1.15l0.72,0.09c0.75,0.05,1.41-0.52,1.46-1.27l0.25-3.71C261.29,72.63,260.72,71.81,259.79,71.55z
			 M318.2,128.29l-6.99,0.23l-3.97,0.13l-16.2,0.25c-3.34,0.11-6.5-1.26-9.2-3.71l-2.08,0.07l-6.02,0.2
			c-3.21,0.11-6.22-1.37-8.71-3.95c2.74,3.28,6.22,5.33,10.06,5.58c0.39,0.03,0.79,0.03,1.19,0.02l5.3-0.23
			c2.65,2.19,5.63,3.45,8.68,3.66c0.45,0.03,0.9,0.04,1.31,0.02l4.39-0.07c0.53,3.16-0.54,5.36-4.74,6.24l-41.58,8.67
			c-1.89,0.59-5.78,1.68-9.73,1.17l-16.78-2.72c-2.55-0.34-3.71-1.68-3.82-4.7l-2.24-66.76c-0.1-3.02,1.2-5.9,5.33-6.55l13.06-2.49
			c-0.63,0.89-0.95,1.92-0.86,3.02l2.63,51.23l-0.23-50.39c-0.1-3.02,3.17-6.46,7.3-5.72c0,0,34.25,11.96,42.05,14.87
			c0.18,0.07,0.93,0.27,1.11,0.35c-2.12,0.47-4.46,1.37-6.54,2.76l-6.23,0.2c-4.57,0.15-8.73,2.88-11.69,7.67
			c-0.84,1.36-1.55,2.84-2.14,4.41c2.42-5.6,6.59-9.34,11.43-9.51l6.03-0.2l0.98-0.03c-4.13,3.9-6.76,10.94-6.49,18.89
			c0.08,2.37,0.41,4.64,0.95,6.76c-0.13-1.07-0.22-2.16-0.25-3.28c-0.47-13.85,6.64-25.33,15.86-25.64l16.2-0.24l3.97-0.13
			l6.99-0.24c-9.23,0.31-16.33,11.79-15.86,25.64C301.12,117.62,308.97,128.6,318.2,128.29z M260.76,79.02
			c0.92,0.06,1.72-0.64,1.78-1.56l0.3-4.55c0.06-0.92-0.64-1.92-1.77-2.24l-9.32-2.65c-0.92-0.06-1.72,0.64-1.79,1.56l-0.43,6.46
			c-0.06,0.92,0.64,1.72,1.56,1.79L260.76,79.02z M317.5,126.01c-4.14-0.23-7.78-2.84-10.37-6.92c-2.93-4.23-4.66-10.28-4.44-16.94
			c0.22-6.71,2.38-12.67,5.62-16.69c3.12-4.36,7.31-6.95,11.8-6.71c8.69,0.48,15.15,11.45,14.43,24.5
			C333.82,116.3,326.19,126.49,317.5,126.01z M329.31,102.96c0.62-11.12-4.89-20.47-12.3-20.88c-1.76-0.1-3.47,0.32-5.06,1.16
			c0.54-0.08,1.09-0.13,1.64-0.13c3.63,0.02,6.75,1.82,9.07,4.8c-1.76-0.57-3.89,1.1-4.77,3.74c-0.6,1.82-0.46,3.62,0.26,4.76
			c-0.86,0.22-1.72,1.04-2.21,2.21c-0.69,1.65-0.36,3.36,0.74,3.82c1.1,0.46,2.55-0.51,3.24-2.16c0.4-0.95,0.45-1.92,0.22-2.66
			c1.61,0.05,3.36-1.52,4.14-3.85c0.3-0.91,0.41-1.81,0.36-2.63c1.48,3.1,2.31,6.9,2.3,11.01c-0.04,10.56-5.62,19.23-13.49,19.19
			c-1.14,0-2.25-0.2-3.31-0.54c1.42,0.91,2.99,1.46,4.65,1.55C322.19,122.77,328.69,114.09,329.31,102.96z"/>
		<path class="st44" d="M212.98,170.75h-2.04V37.87h2.04V170.75z"/>
	</g>
</g>
</svg>
