<?xml version="1.0" encoding="utf-8"?>
<!-- Generator: Adobe Illustrator 27.8.1, SVG Export Plug-In . SVG Version: 6.00 Build 0)  -->
<svg version="1.1" xmlns="http://www.w3.org/2000/svg" xmlns:xlink="http://www.w3.org/1999/xlink" x="0px" y="0px"
	 viewBox="0 0 350 230" style="enable-background:new 0 0 350 230;" xml:space="preserve">
<style type="text/css">
	.st0{display:none;}
	.st1{display:inline;}
	.st2{display:inline;fill:#61FFFB;}
	.st3{display:inline;fill:#FFFF66;}
	.st4{display:inline;fill:#66FF91;}
	.st5{display:inline;fill:#66BEFF;}
	.st6{display:inline;fill:#033D3D;}
	.st7{display:inline;fill:#62DD79;}
	.st8{display:inline;fill:#D8D564;}
	.st9{display:inline;fill:#66E9FF;}
	.st10{display:inline;fill:#FF66BA;}
	.st11{display:inline;fill:#DAFF66;}
	.st12{display:inline;fill:#C0FF97;}
	.st13{display:inline;fill:#490127;}
	.st14{fill:#DDDDDD;}
	.st15{fill:#F7931E;}
	.st16{fill:#604F3E;}
	.st17{fill:#2C1E20;}
	.st18{fill:#F7BF0B;}
	.st19{fill:#FFCE00;}
	.st20{fill-rule:evenodd;clip-rule:evenodd;fill:#F3B03C;}
	.st21{fill:#C41621;}
	.st22{fill:#352B2F;}
	.st23{fill:#FFFFFF;}
	.st24{fill:#00FFFF;}
	.st25{fill:#29ABE2;}
	.st26{fill:#B61E5A;}
	.st27{fill:#1E2254;}
	.st28{fill:#33DDFF;}
	.st29{fill:#0065A3;}
	.st30{fill:#F6973B;}
	.st31{fill:#5A3FA8;}
	.st32{fill:#00AB91;}
	.st33{fill-rule:evenodd;clip-rule:evenodd;fill:#13A559;}
	.st34{fill:#4E17AC;}
	.st35{fill:#103747;}
	.st36{fill:#019AC2;}
	.st37{fill-rule:evenodd;clip-rule:evenodd;fill:#B825BD;}
	.st38{fill-rule:evenodd;clip-rule:evenodd;fill:#FF8788;}
	.st39{fill:#282519;}
	.st40{fill:#C71A8B;}
	.st41{fill:#F9C60B;}
	.st42{fill:#E67A7B;}
	.st43{fill:#66767A;}
	.st44{fill:#0194A8;}
	.st45{fill:#00A4FF;}
	.st46{fill:#262626;}
	.st47{fill:#00FFE8;}
	.st48{fill:#D4FFFF;}
	.st49{fill-rule:evenodd;clip-rule:evenodd;fill:#FF00B8;}
	.st50{fill-rule:evenodd;clip-rule:evenodd;fill:#05E2FF;}
	.st51{fill:#FFF800;}
	.st52{fill:#0192A7;}
	.st53{fill:#D4209E;}
	.st54{fill:#0B0F22;}
	.st55{fill:#E12D2E;}
	.st56{fill:#B8C7FF;}
	.st57{fill:#000051;}
	.st58{fill:#FDC093;fill-opacity:0.5;}
	.st59{fill:#FDC093;}
	.st60{fill:#008CFF;fill-opacity:0.4;}
	.st61{fill:#008CFF;}
	.st62{fill:#000051;fill-opacity:0.41;}
	.st63{fill:#F9032C;}
	.st64{fill:#000051;fill-opacity:0.26;}
	.st65{fill:#8B8B8B;}
	.st66{fill:#E65101;}
	.st67{fill:#FACB01;}
	.st68{fill:#9AEB4E;}
	.st69{fill:#FF6600;}
	.st70{fill:#FF7BAC;}
	.st71{fill:#222222;}
	.st72{fill:#FEFEFE;}
	.st73{fill:#F2F2F2;}
	.st74{opacity:0.3;fill:#222222;enable-background:new    ;}
	.st75{fill:#383838;}
	.st76{fill:#1C2043;}
	.st77{fill:#171717;}
	.st78{fill:#178FAA;}
	.st79{opacity:0.3;fill:#FFFFFF;enable-background:new    ;}
	.st80{opacity:0.3;fill:#383838;enable-background:new    ;}
	.st81{opacity:0.3;fill:#A8AAB2;enable-background:new    ;}
	.st82{fill:#E6E6E6;}
	.st83{fill:#FBB03B;}
	.st84{fill:#F8BA03;}
	.st85{fill:#E95900;}
	.st86{fill:#7A1BBD;}
	.st87{fill:#676767;}
	.st88{fill:#F751E1;}
</style>
<g id="Layer_1">
</g>
<g id="Layer_2">
</g>
<g id="Layer_3">
</g>
<g id="Layer_4">
</g>
<g id="Layer_5">
</g>
<g id="Layer_6">
</g>
<g id="Layer_7">
</g>
<g id="Layer_8">
</g>
<g id="Layer_9">
</g>
<g id="Layer_10">
</g>
<g id="Layer_11">
</g>
<g id="Layer_12">
</g>
<g id="Layer_13">
</g>
<g id="Layer_14">
</g>
<g id="Layer_15">
	<path class="st52" d="M167.23,122.7h15.52l-7.76,21.98L167.23,122.7L167.23,122.7z M145.53,128.36c-11.94,0-21.66-9.71-21.66-21.64
		c0-11.93,9.72-21.64,21.66-21.64c11.94,0,21.66,9.71,21.66,21.64C167.18,118.66,157.47,128.36,145.53,128.36z M145.53,90.98
		c-8.7,0-15.77,7.07-15.77,15.75c0,8.68,7.08,15.75,15.77,15.75c8.7,0,15.77-7.07,15.77-15.75
		C161.3,98.04,154.22,90.98,145.53,90.98z M205.8,128.36c-11.94,0-21.66-9.71-21.66-21.64c0-11.93,9.72-21.64,21.66-21.64
		c11.94,0,21.66,9.71,21.66,21.64C227.46,118.66,217.74,128.36,205.8,128.36z M205.8,90.98c-8.7,0-15.77,7.07-15.77,15.75
		c0,8.68,7.08,15.75,15.77,15.75c8.7,0,15.77-7.07,15.77-15.75C221.57,98.04,214.5,90.98,205.8,90.98z"/>
	<path class="st53" d="M203.14,69.3c0,0,0.21,0,0.61-0.01c1.43-0.19,2.88-0.29,4.36-0.29c0.63,0,1.26,0.02,1.88,0.05
		c14.11-0.79,46.07-4.24,57.26-19.22c0,0-4.52,17.34-35.82,28.77c6.05,6,9.8,14.32,9.8,23.52c0,13.26-7.79,24.69-19.04,29.98
		c7.08-5.37,11.65-13.88,11.65-23.45c0-16.25-13.17-29.43-29.43-29.43c-15.18,0-27.68,11.5-29.26,26.26
		c-0.11-1.11-0.17-2.23-0.17-3.37c0-16.63,12.26-30.4,28.24-32.76L203.14,69.3L203.14,69.3z M146.84,69.3c0,0-0.21,0-0.61-0.01
		c-1.43-0.19-2.88-0.29-4.36-0.29c-0.63,0-1.26,0.02-1.88,0.05c-14.11-0.79-46.04-4.24-57.24-19.2v0.03
		c0.29,1.01,5.47,17.64,35.8,28.71c-6.05,6-9.8,14.32-9.8,23.52c0,13.26,7.79,24.69,19.04,29.98c-7.08-5.37-11.65-13.88-11.65-23.45
		c0-16.25,13.18-29.43,29.43-29.43c15.18,0,27.68,11.5,29.26,26.26c0.11-1.11,0.17-2.23,0.17-3.37c0-16.63-12.26-30.4-28.24-32.76
		L146.84,69.3L146.84,69.3z M150.1,116.42c-1,0-1.81-0.81-1.81-1.81c0-1,0.81-1.81,1.81-1.81c1,0,1.81,0.81,1.81,1.81
		C151.9,115.61,151.1,116.42,150.1,116.42L150.1,116.42z M145.53,93.18c-2.36,0-4.57,0.6-6.5,1.66c2.04,0.64,3.53,2.54,3.53,4.8
		c0,2.78-2.25,5.03-5.03,5.03c-2.04,0-3.79-1.21-4.58-2.96c-0.62,1.55-0.97,3.24-0.97,5.02c0,7.48,6.07,13.54,13.56,13.54
		c7.49,0,13.56-6.06,13.56-13.54C159.08,99.25,153.01,93.18,145.53,93.18L145.53,93.18z M210.37,116.42c-1,0-1.81-0.81-1.81-1.81
		c0-1,0.81-1.81,1.81-1.81s1.81,0.81,1.81,1.81C212.18,115.61,211.37,116.42,210.37,116.42L210.37,116.42z M205.8,93.18
		c-2.36,0-4.57,0.6-6.5,1.66c2.04,0.64,3.53,2.54,3.53,4.8c0,2.78-2.25,5.03-5.03,5.03c-2.04,0-3.79-1.21-4.58-2.96
		c-0.62,1.55-0.97,3.24-0.97,5.02c0,7.48,6.07,13.54,13.56,13.54c7.49,0,13.56-6.06,13.56-13.54
		C219.36,99.25,213.29,93.18,205.8,93.18L205.8,93.18z"/>
</g>
</svg>
