<?xml version="1.0" encoding="utf-8"?>
<!-- Generator: Adobe Illustrator 27.8.1, SVG Export Plug-In . SVG Version: 6.00 Build 0)  -->
<svg version="1.1" xmlns="http://www.w3.org/2000/svg" xmlns:xlink="http://www.w3.org/1999/xlink" x="0px" y="0px"
	 viewBox="0 0 350 230" style="enable-background:new 0 0 350 230;" xml:space="preserve">
<style type="text/css">
	.st0{fill:#F9F4D9;}
	.st1{fill:#D9F0FC;}
	.st2{fill:#004360;}
	.st3{fill:#F4E8D9;}
	.st4{fill:#DBFCFC;}
	.st5{fill:#D7FFD9;}
	.st6{fill:#D9F9EB;}
	.st7{fill:#EBF9D9;}
	.st8{fill:#F5F9D9;}
	.st9{fill:#D6FF9C;}
	.st10{fill:#FDFFCA;}
	.st11{fill:#2B2B2B;}
	.st12{fill:#DFF9D9;}
	.st13{display:none;}
	.st14{display:inline;}
	.st15{display:inline;fill:#61FFFB;}
	.st16{display:inline;fill:#FFFF66;}
	.st17{display:inline;fill:#66FF91;}
	.st18{display:inline;fill:#66BEFF;}
	.st19{display:inline;fill:#033D3D;}
	.st20{display:inline;fill:#62DD79;}
	.st21{display:inline;fill:#D8D564;}
	.st22{display:inline;fill:#66E9FF;}
	.st23{display:inline;fill:#FF66BA;}
	.st24{display:inline;fill:#DAFF66;}
	.st25{display:inline;fill:#C0FF97;}
	.st26{display:inline;fill:#490127;}
	.st27{fill:#DDDDDD;}
	.st28{fill:#F7931E;}
	.st29{fill:#604F3E;}
	.st30{fill:#2C1E20;}
	.st31{fill:#F7BF0B;}
	.st32{fill:#FFCE00;}
	.st33{fill-rule:evenodd;clip-rule:evenodd;fill:#F3B03C;}
	.st34{fill:#C41621;}
	.st35{fill:#352B2F;}
	.st36{fill:#FFFFFF;}
	.st37{fill:#00FFFF;}
	.st38{fill:#29ABE2;}
	.st39{fill:#B61E5A;}
	.st40{fill:#1E2254;}
	.st41{fill:#33DDFF;}
	.st42{fill:#0065A3;}
	.st43{fill:#F6973B;}
	.st44{fill:#5A3FA8;}
	.st45{fill:#00AB91;}
	.st46{fill-rule:evenodd;clip-rule:evenodd;fill:#13A559;}
	.st47{fill:#4E17AC;}
	.st48{fill:#103747;}
	.st49{fill:#019AC2;}
	.st50{fill-rule:evenodd;clip-rule:evenodd;fill:#B825BD;}
	.st51{fill-rule:evenodd;clip-rule:evenodd;fill:#FF8788;}
	.st52{fill:#282519;}
	.st53{fill:#C71A8B;}
	.st54{fill:#F9C60B;}
	.st55{fill:#E67A7B;}
	.st56{fill:#66767A;}
	.st57{fill:#0194A8;}
	.st58{fill:#00A4FF;}
	.st59{fill:#262626;}
	.st60{fill:#00FFE8;}
	.st61{fill:#D4FFFF;}
	.st62{fill-rule:evenodd;clip-rule:evenodd;fill:#FF00B8;}
	.st63{fill-rule:evenodd;clip-rule:evenodd;fill:#05E2FF;}
	.st64{fill:#FFF800;}
	.st65{fill:#0192A7;}
	.st66{fill:#D4209E;}
	.st67{fill:#0B0F22;}
	.st68{fill:#E12D2E;}
	.st69{fill:#B8C7FF;}
	.st70{fill:#000051;}
	.st71{fill:#FDC093;fill-opacity:0.5;}
	.st72{fill:#FDC093;}
	.st73{fill:#008CFF;fill-opacity:0.4;}
	.st74{fill:#008CFF;}
	.st75{fill:#000051;fill-opacity:0.41;}
	.st76{fill:#F9032C;}
	.st77{fill:#000051;fill-opacity:0.26;}
	.st78{fill:#8B8B8B;}
	.st79{fill:#E65101;}
	.st80{fill:#FACB01;}
	.st81{fill:#9AEB4E;}
	.st82{fill:#FF6600;}
	.st83{fill:#FF7BAC;}
	.st84{fill:#222222;}
	.st85{fill:#FEFEFE;}
	.st86{fill:#F2F2F2;}
	.st87{opacity:0.3;fill:#222222;enable-background:new    ;}
	.st88{fill:#383838;}
	.st89{fill:#1C2043;}
	.st90{fill:#171717;}
	.st91{fill:#178FAA;}
	.st92{opacity:0.3;fill:#FFFFFF;enable-background:new    ;}
	.st93{opacity:0.3;fill:#383838;enable-background:new    ;}
	.st94{opacity:0.3;fill:#A8AAB2;enable-background:new    ;}
	.st95{fill:#E6E6E6;}
	.st96{fill:#FBB03B;}
	.st97{fill:#F8BA03;}
	.st98{fill:#E95900;}
	.st99{fill:#7A1BBD;}
	.st100{fill:#676767;}
	.st101{fill:#F751E1;}
	.st102{fill:url(#SVGID_1_);}
	.st103{fill:url(#SVGID_00000098179491744689294360000013337587690227734702_);}
	.st104{fill:url(#SVGID_00000049942426363668649470000006475417328902829187_);}
	.st105{fill:#00FBFF;}
	.st106{fill:url(#SVGID_00000126322876842560835050000016506337736442247856_);}
	.st107{fill:#5D5C41;}
	.st108{fill:#757E42;}
	.st109{fill:#427C5C;}
	.st110{fill:#E1DA00;}
	.st111{fill:#7B8116;}
	.st112{fill:url(#SVGID_00000066478622156372283420000011069458462962784139_);}
	.st113{fill:url(#SVGID_00000067209673379104991030000002407685197643856518_);}
	.st114{fill:url(#SVGID_00000083790176367783388920000009995169607869998010_);}
	.st115{fill:#1E5924;}
	.st116{fill:#2DAD6D;}
	.st117{fill:url(#SVGID_00000106109097850209573430000005296596946232910499_);}
	.st118{fill:url(#SVGID_00000151533983988684391000000010585817495077796003_);}
	.st119{fill:url(#SVGID_00000005962971079954291950000002028708334193263292_);}
	.st120{fill:url(#SVGID_00000120525859357942508750000012980182195933878922_);}
	.st121{fill:url(#SVGID_00000054250788177800445580000016678524781443728305_);}
	.st122{fill:#151910;}
	.st123{fill:#81459F;}
	.st124{fill:url(#SVGID_00000155863721708356505140000006925860552105451168_);}
	.st125{fill:#A3D3B8;}
	.st126{fill:url(#SVGID_00000180333043081364250340000017615931882330839697_);}
	.st127{fill:#49CAF2;}
	.st128{fill:url(#SVGID_00000065076762462012974050000001816634897229122983_);}
	.st129{fill:url(#SVGID_00000113329097075114907390000012362016328933418411_);}
	.st130{fill:url(#SVGID_00000090992641322772528820000015670541764303998361_);}
	.st131{fill:#A9065E;}
	.st132{fill:#112043;}
	.st133{fill:#720039;}
	.st134{fill:url(#SVGID_00000134245757214822526410000013362160097020033434_);}
	.st135{fill:url(#SVGID_00000129192076442726204550000001527417615849377459_);}
</style>
<g id="Layer_1">
</g>
<g id="Layer_2">
</g>
<g id="Layer_3">
</g>
<g id="Layer_4">
</g>
<g id="Layer_5">
</g>
<g id="Layer_6">
</g>
<g id="Layer_7">
</g>
<g id="Layer_8">
</g>
<g id="Layer_9">
</g>
<g id="Layer_10">
</g>
<g id="Layer_11">
</g>
<g id="Layer_12">
</g>
<g id="Layer_13">
</g>
<g id="Layer_14">
</g>
<g id="Layer_15">
	<radialGradient id="SVGID_1_" cx="175" cy="97.1536" r="65.9608" gradientUnits="userSpaceOnUse">
		<stop  offset="0" style="stop-color:#FFFFFF"/>
		<stop  offset="0.028" style="stop-color:#E1EDF6"/>
		<stop  offset="0.0724" style="stop-color:#B8D4EA"/>
		<stop  offset="0.1223" style="stop-color:#92BDDF"/>
		<stop  offset="0.1767" style="stop-color:#72A9D5"/>
		<stop  offset="0.2367" style="stop-color:#5699CD"/>
		<stop  offset="0.3045" style="stop-color:#408CC6"/>
		<stop  offset="0.3837" style="stop-color:#2F81C1"/>
		<stop  offset="0.4816" style="stop-color:#247ABE"/>
		<stop  offset="0.6189" style="stop-color:#1D76BC"/>
		<stop  offset="1" style="stop-color:#1B75BB"/>
	</radialGradient>
	<path class="st102" d="M153.27,130.69c0.43,0.34,0.86,0.68,1.36,1.07c-0.25,0.21-0.42,0.36-0.59,0.5
		c-2.23,1.73-4.73,2.96-7.39,3.84c-1.59,0.52-2.95,1.37-4.24,2.44c-3.28,2.73-6.64,5.37-9.96,8.04c-0.05-0.04-0.1-0.09-0.15-0.13
		c2.05-2.66,4.11-5.32,6.25-8.09c-0.34,0.02-0.55,0.03-0.77,0.05c-1.69,0.12-3.39,0.25-5.02-0.29c-0.84-0.28-1.63-0.71-2.39-1.17
		c-0.36-0.21-0.58-0.25-0.93-0.03c-1.12,0.69-2.25,1.34-3.39,2c-0.41,0.24-0.83,0.44-1.15,0.61c1.34-1.38,2.73-2.81,4.01-4.14
		c-0.77-2.68-1.5-5.23-2.25-7.88c-2.94,1.4-5.83,2.78-8.73,4.16c-0.03-0.06-0.07-0.12-0.1-0.18c0.39-0.33,0.78-0.66,1.18-0.98
		c2.08-1.64,4.15-3.28,6.25-4.89c0.52-0.4,0.64-0.76,0.41-1.4c-0.56-1.63-1.01-3.3-1.51-4.98c-3.85,0.99-7.69,1.97-11.53,2.96
		c-0.02-0.04-0.04-0.08-0.06-0.12c1.02-0.54,2.04-1.07,3.06-1.61c2.45-1.29,4.9-2.58,7.36-3.85c0.36-0.19,0.46-0.36,0.32-0.77
		c-0.52-1.58-1-3.17-1.49-4.76c-4.27,0.47-8.52,0.94-12.78,1.4c-0.01-0.05-0.03-0.1-0.04-0.15c4.03-1.38,8.06-2.76,12.09-4.14
		c-0.53-1.8-1.04-3.54-1.58-5.26c-0.05-0.16-0.39-0.33-0.59-0.34c-2.98-0.11-5.95-0.19-8.93-0.29c-0.41-0.01-0.83-0.07-1.24-0.11
		c0-0.17,0-0.33,0-0.5c2.25-0.39,4.51-0.79,6.76-1.18c1.06-0.18,2.13-0.34,3.27-0.51c-0.29-1.06-0.55-2.08-0.84-3.1
		c-0.21-0.76-0.46-1.51-0.65-2.28c-0.11-0.46-0.33-0.69-0.81-0.79c-2.3-0.5-4.59-1.03-6.88-1.55c-0.14-0.03-0.27-0.07-0.4-0.18
		c2.42-0.13,4.83-0.26,7.35-0.39c-0.31-2.28,0.2-4.24,2.01-5.87c-3.21-1.24-6.3-2.43-9.5-3.66c3.96,0.44,7.81,0.86,11.78,1.3
		c-0.62,0.98-1.08,1.98-1.77,2.78c-1.83,2.12-2.16,4.41-1.35,7.05c0.74,2.4,1.27,4.87,1.94,7.3c0.98,3.53,3.11,5.14,6.81,5.19
		c2.45,0.03,4.79-0.56,7.1-1.29c3.36-1.07,6.55-2.55,9.71-4.09c0.17-0.08,0.34-0.16,0.51-0.23c0.03-0.01,0.08,0.01,0.14,0.02
		c-1.03,10.65,1.47,20.32,8.21,28.91c-1.43,0.72-2.74,1.43-4.1,2.04c-3.4,1.52-6.9,2.69-10.62,3.11c-2.5,0.29-4.94,0.15-7.26-0.99
		c-0.43-0.21-0.67-0.49-0.81-0.94c-1.61-5.49-3.25-10.97-4.86-16.46c-1.02-3.47-1.99-6.96-3.01-10.43c-0.15-0.5-0.43-0.96-0.65-1.44
		c-0.07,0.03-0.15,0.05-0.22,0.08c0.08,0.3,0.16,0.6,0.24,0.89c2.67,9.15,5.36,18.29,8,27.45c0.28,0.98,0.81,1.59,1.69,2.06
		c2.44,1.31,5.02,1.51,7.71,1.15c4.57-0.62,8.76-2.29,12.74-4.54c0.47-0.27,0.96-0.51,1.41-0.8c0.51-0.32,0.76-0.12,0.89,0.39
		c-0.24,0.07-0.5,0.1-0.71,0.23c-4.27,2.54-8.72,4.62-13.69,5.33c-2.99,0.43-5.94,0.34-8.71-1.11c-0.08-0.04-0.18-0.04-0.27-0.06
		c0.33,0.41,0.69,0.75,1.11,1.01c2.08,1.27,4.37,1.38,6.71,1.17c4.06-0.36,7.84-1.66,11.43-3.53c1.51-0.78,2.97-1.66,4.52-2.53
		C153.49,130.97,153.38,130.83,153.27,130.69z M241.26,107.84c-0.05-0.2-0.12-0.39-0.14-0.59c-0.32-3.14-0.83-6.23-1.89-9.22
		c-3.26-9.19-9.03-15.97-18.44-19.29c-3.6-1.27-7.25-2.24-11.1-2.12c-5.82,0.18-11.31,1.68-16.49,4.29
		c-6.48,3.27-11.71,7.98-15.88,13.88c-5.27,7.44-8.14,15.71-8.26,24.86c-0.07,5.73,1.1,11.22,3.69,16.36
		c4.48,8.9,11.66,14.29,21.39,16.33c0.23,0.05,0.5,0.27,0.62,0.49c0.8,1.55,1.57,3.12,2.35,4.69c0.13,0.26,0.28,0.52,0.41,0.78
		c0.06-0.02,0.12-0.05,0.18-0.07c-0.51-1.83-1.01-3.65-1.53-5.52c0.31,0.02,0.56,0.02,0.81,0.04c2.96,0.28,5.91,0.24,8.84-0.29
		c0.89-0.16,1.62-0.13,2.23,0.59c0.01,0.01,0.07-0.01,0.13-0.03c-0.12-0.28-0.23-0.56-0.35-0.85c0.21-0.06,0.35-0.11,0.49-0.14
		c7.91-1.91,14.74-5.71,20.4-11.59c6.74-7.01,10.79-15.33,12.18-24.94c0.13-0.92,0.24-1.85,0.36-2.77
		C241.26,111.09,241.26,109.47,241.26,107.84z M229.3,137.68c-5.04,5.57-11.07,9.75-18.41,11.69c-7.48,1.98-14.86,1.67-21.81-2
		c-8.11-4.28-13.05-11.1-15.05-19.99c-1.75-7.79-0.63-15.34,2.6-22.57c3.83-8.57,9.69-15.4,17.94-20.02
		c5.09-2.85,10.59-4.38,16.42-4.41c9.45-0.05,21.41,4.62,26.62,18.11c1.5,3.89,2.23,7.93,2.22,13.07
		C239.65,120.91,236.24,130.01,229.3,137.68z M241.26,95.59c-0.72-0.12-1.43-0.22-2.29,0.14c0.88,0.39,1.59,0.21,2.29,0.11
		C241.26,95.76,241.26,95.68,241.26,95.59z M120.33,101.23c0.47,1.78,1.7,2.75,3.39,3.24c2.09,0.6,4.17,0.33,6.25-0.07
		c4.82-0.93,9.16-3.13,13.54-5.2c0.44-0.21,0.63-0.51,0.71-0.98c1.55-8.9,5.57-16.51,12.05-22.8c8.05-7.82,17.7-11.71,28.92-11.47
		c8.49,0.18,15.84,3.33,22.07,9.1c0.18,0.17,0.38,0.36,0.6,0.42c2.1,0.61,4.21,1.15,6.3,1.79c1.02,0.31,1.89,0.18,2.78-0.38
		c5.14-3.28,10.3-6.54,15.45-9.81c0.17-0.11,0.32-0.25,0.48-0.38c-0.4,0-0.74,0.1-1.07,0.22c-5.96,2.13-11.91,4.27-17.87,6.4
		c-1.68,0.6-3.37,1.21-5.07,1.77c-0.25,0.08-0.6-0.11-0.9-0.18c0.1-0.27,0.14-0.6,0.32-0.79c0.51-0.52,1.1-0.96,1.63-1.46
		c4.31-4.08,8.62-8.17,12.92-12.26c0.83-0.79,1.62-1.64,2.46-2.48c-0.08,0.01-0.13,0.01-0.16,0.03c-6.13,3.45-12.26,6.9-18.39,10.36
		c-1.21,0.69-2.39,1.44-3.6,2.13c-0.2,0.12-0.48,0.11-0.72,0.17c-0.04-0.08-0.09-0.16-0.13-0.24c5.04-6.76,10.08-13.53,15.12-20.29
		c-0.04-0.04-0.08-0.08-0.12-0.11c-0.81,0.63-1.62,1.26-2.43,1.89c-5.81,4.55-11.42,9.33-16.82,14.36
		c-0.55,0.51-1.17,0.95-1.76,1.41c-0.07-0.05-0.14-0.11-0.22-0.16c4.33-7.97,8.55-16,12.42-24.21c-6.35,7.1-12.54,14.32-18.29,21.92
		c2.84-8.84,5.21-17.78,7.46-26.76c-0.06-0.03-0.12-0.05-0.19-0.08c-4.29,7.98-8.58,15.96-12.73,23.68
		c0.54-8.71,1.1-17.72,1.66-26.73c-0.06-0.01-0.12-0.02-0.18-0.04c-2.62,8.4-5.24,16.81-7.86,25.21c-0.06,0.01-0.11,0.02-0.17,0.02
		c-0.47-4.49-0.92-8.99-1.42-13.47c-0.51-4.5-1.08-9-1.62-13.5c-0.09,0-0.19,0-0.28-0.01c-0.84,7.81-1.68,15.62-2.53,23.48
		c-0.38-0.2-0.81-0.44-1.24-0.66c-0.39-0.19-0.65-0.44-0.78-0.9c-0.25-0.92-0.56-1.83-0.89-2.73c-2.1-5.83-4.22-11.66-6.33-17.49
		c-0.02-0.06-0.08-0.11-0.21-0.25c0.62,6.29,1.22,12.46,1.83,18.61c-1.13,0.32-2.2,0.63-3.34,0.95c-3.05-5.54-6.11-11.09-9.16-16.64
		c-0.05,0.02-0.1,0.05-0.15,0.07c0.04,0.2,0.08,0.4,0.13,0.6c1.07,4.04,2.14,8.09,3.2,12.13c0.45,1.73,0.88,3.47,1.34,5.2
		c0.14,0.52,0.08,0.84-0.52,1.01c-0.54,0.15-1.04,0.42-1.54,0.67c-0.41,0.22-0.7,0.19-1.01-0.2c-0.72-0.92-1.49-1.8-2.23-2.7
		c-3.14-3.81-6.27-7.63-9.41-11.44c-0.17-0.21-0.36-0.4-0.54-0.59c0.96,2.37,2.01,4.65,3.11,6.91c1.67,3.42,3.38,6.83,5.06,10.24
		c0.1,0.19,0.21,0.46,0.15,0.63c-0.3,0.9-0.66,1.77-0.99,2.65c-5.48-4.77-10.93-9.52-16.37-14.26c-0.03,0.04-0.06,0.07-0.1,0.11
		c4.81,6.78,9.62,13.56,14.49,20.42c-0.54,1.63-1.12,3.39-1.73,5.14c-0.08,0.22-0.29,0.46-0.5,0.56c-3.2,1.55-6.41,3.1-9.63,4.6
		c-0.64,0.3-1.37,0.38-2.05,0.57c-0.02-0.05-0.03-0.11-0.05-0.16c0.11-0.11,0.23-0.22,0.43-0.41c-6.97-1.83-13.83-3.63-20.69-5.43
		c-0.03,0.07-0.06,0.15-0.09,0.22c4.75,2.46,9.49,4.91,14.32,7.41c-0.82,0.42-1.52,0.74-2.19,1.12c-0.69,0.39-1.36,0.81-2.01,1.26
		c-0.96,0.68-1.8,1.48-2.31,2.58c-0.9,1.94-0.16,3.72,1.89,4.26c0.99,0.26,2.07,0.4,3.08,0.31c5.06-0.41,9.63-1.98,13.21-5.75
		c-0.26,1-1.14,2.08-2.47,2.86c-2.82,1.64-5.84,2.73-9.06,3.24c-1.61,0.26-3.23,0.35-4.84-0.09c-1.51-0.42-2.18-1.26-2.27-2.82
		c-0.02-0.28,0-0.56,0-0.99c-0.59,0.73-1.09,1.31-1.55,1.91c-1.28,1.7-0.84,3.38,1.1,4.27c1.4,0.64,2.89,0.81,4.4,0.72
		c4.07-0.24,7.91-1.37,11.58-3.08c3.85-1.79,7.66-3.66,11.49-5.5c0.28-0.13,0.58-0.23,0.91-0.37c-0.34,1.2-1.15,1.79-2.13,2.25
		c-3.19,1.49-6.34,3.04-9.55,4.5c-3.81,1.73-7.75,3.06-11.96,3.37c-2.17,0.16-4.3,0.04-6.25-1.58
		C118.76,95.41,119.56,98.32,120.33,101.23z M183.73,63.06c-0.97-0.52-1.91-1.11-2.89-1.61c-0.24-0.12-0.62-0.13-0.87-0.02
		c-2.1,0.85-4.2,1.72-6.27,2.63c-8.42,3.66-16.82,7.33-25.24,10.99c-0.69,0.3-1.38,0.61-2.1,0.8c-0.33,0.09-0.81,0.03-1.07-0.17
		c-0.18-0.14-0.22-0.66-0.13-0.94c0.84-2.68,1.71-5.35,2.59-8.02c0.91-2.75,1.84-5.48,2.75-8.23c0.17-0.51,0.47-0.84,0.97-1.05
		c3.83-1.58,7.64-3.2,11.48-4.75c1.79-0.73,3.52-0.6,5.25,0.44c5.18,3.13,10.42,6.17,15.64,9.26c0.47,0.28,0.92,0.61,1.37,0.92
		c-0.04,0.09-0.09,0.18-0.13,0.27C184.61,63.4,184.14,63.28,183.73,63.06z M140.09,85.44c3.19-1.5,6.27-2.95,9.34-4.4
		c-0.15,0.76-0.93,1.62-1.96,2.11c-1.76,0.84-3.53,1.68-5.3,2.51c-3.07,1.43-6.11,2.95-9.25,4.22c-2.88,1.16-5.9,1.95-9.02,2.12
		c-1.1,0.06-2.23-0.12-3.33-0.29c-0.45-0.07-0.9-0.34-1.28-0.62c-0.88-0.64-1.05-1.44-0.56-2.41c0.16-0.33,0.38-0.63,0.65-1.06
		c0.21,2.23,1.72,2.79,3.45,2.99c2.86,0.33,5.59-0.35,8.27-1.2c2.03-0.64,4-1.44,5.77-2.63c0.58-0.39,1.13-0.86,1.63-1.35
		c0.71-0.7,1.07-1.57,1-2.6c-0.02-0.32,0-0.64,0-0.96C140.96,82.84,140.62,84.08,140.09,85.44z M121.84,87.3
		c-1.12-0.34-1.37-1.14-0.76-2.15c0.28-0.46,0.62-0.9,1.02-1.25c3.9-3.44,8.45-5.14,13.65-5.04c0.59,0.01,1.2,0.19,1.74,0.43
		c1.02,0.44,1.32,1.23,0.74,2.17c-0.46,0.75-1.02,1.52-1.72,2.03c-3.5,2.56-7.4,4.1-12.21,4.29
		C123.74,87.67,122.76,87.58,121.84,87.3z M144.32,73.93c-0.02,0.6-0.03,1.26-0.08,1.92c-0.01,0.15-0.14,0.35-0.27,0.41
		c-1.64,0.81-3.29,1.59-4.94,2.37c-0.15,0.07-0.37,0.09-0.53,0.04c-0.77-0.24-1.52-0.51-2.28-0.76
		C138.94,76.57,141.69,75.22,144.32,73.93z M141.69,152.55c3.04-3.48,6.09-6.96,9.13-10.44c2.02-2.33,4.03-4.67,6.05-6.99
		c0.11-0.13,0.35-0.28,0.48-0.24c0.15,0.05,0.31,0.27,0.35,0.44c0.04,0.16-0.04,0.37-0.08,0.55c-1.76,6.85-3.52,13.71-5.28,20.56
		c-0.06,0.22-0.11,0.44-0.17,0.66c0.25-0.2,0.4-0.42,0.53-0.65c2.18-3.84,4.36-7.67,6.53-11.52c1.2-2.12,2.37-4.26,3.53-6.4
		c0.19-0.35,0.38-0.52,0.78-0.35c0.17,0.07,0.36,0.12,0.54,0.14c0.46,0.05,0.6,0.27,0.57,0.75c-0.42,6.03-0.82,12.05-1.23,18.08
		c-0.06,0.94-0.14,1.89-0.21,2.83c0.05,0.01,0.1,0.02,0.15,0.03c2.02-6.41,4.04-12.82,6.08-19.3c0.53,0.39,0.98,0.8,1.51,1.08
		c1.21,0.63,1.57,1.65,1.69,2.94c0.42,4.88,0.91,9.75,1.38,14.62c0.11,1.16,0.25,2.32,0.37,3.48c0.07,0,0.15,0,0.22,0.01
		c0.61-5.71,1.22-11.42,1.84-17.2c0.28,0.16,0.5,0.28,0.71,0.39c1.45,0.78,2.91,1.54,4.34,2.34c0.25,0.14,0.49,0.43,0.59,0.71
		c1.23,3.65,2.43,7.31,3.64,10.96c0.11,0.33,0.26,0.65,0.39,0.98c0.03-0.83-0.07-1.61-0.14-2.4c-0.25-2.72-0.49-5.43-0.77-8.15
		c-0.03-0.29-0.27-0.65-0.52-0.82c-4.28-2.85-8.59-5.66-12.88-8.5c-5.29-3.5-9.09-8.25-11.44-14.09
		c-3.01-7.47-3.17-15.16-1.38-22.95c3.43-14.96,16.87-29.27,34.27-31.07c6.22-0.64,12.26,0.06,18.06,2.47
		c0.67,0.28,1.37,0.49,2.07,0.68c1.79,0.47,3.58,0.92,5.38,1.37c0.33,0.08,0.65,0.19,0.97,0.28c-0.08-0.18-0.18-0.28-0.3-0.35
		c-1.98-1.19-4.18-1.74-6.42-2.11c-0.19-0.03-0.41,0.03-0.59-0.03c-0.77-0.3-1.51-0.75-2.3-0.94c-2.01-0.46-3.57-1.56-5.17-2.83
		c-7.3-5.82-15.72-8.06-24.93-7.04c-8.33,0.92-15.76,4.13-21.97,9.85c-10.43,9.62-15.2,21.47-13.54,35.66
		c0.8,6.83,3.31,13.07,7.6,18.49c3.65,4.62,8.04,8.26,13.97,9.63c0.35,0.08,0.67,0.28,1.07,0.46c-5.01-0.56-8.93-3.06-12.26-6.37
		c-1.55,0.9-3,1.74-4.44,2.61c-0.2,0.12-0.36,0.34-0.46,0.56c-2.79,5.61-5.58,11.22-8.36,16.83c-0.06,0.12-0.09,0.26-0.16,0.47
		C141.6,152.62,141.65,152.59,141.69,152.55z M162.62,135.68c-4.35-2.12-7.68-5.4-10.33-9.38c-4.61-6.92-6.79-14.57-6.47-22.87
		c0.32-8.13,3.2-15.39,8.03-21.89c5.93-7.98,13.72-13.14,23.5-15.13c9.88-2.01,18.94-0.07,27.08,5.93c0.23,0.17,0.45,0.36,0.77,0.62
		c-0.22-0.01-0.3-0.01-0.38-0.02c-1.07-0.18-2.14-0.52-3.2-0.5c-1.84,0.03-3.42-0.67-5.07-1.35c-5.14-2.1-10.51-2.69-16-1.96
		c-6.72,0.89-12.78,3.46-17.96,7.85c-7.18,6.09-11.84,13.75-13.28,23.11c-1.57,10.15,0.99,19.26,7.67,27.11
		c2.22,2.62,4.64,5.07,6.95,7.61c0.53,0.58,0.97,1.23,1.46,1.84c-0.04,0.05-0.07,0.11-0.11,0.16
		C164.39,136.43,163.48,136.1,162.62,135.68z M153.44,113.96c-2.66-11.96,0.12-22.59,8.22-31.69c5.36-6.01,12.28-9.28,20.3-10.2
		c0.51-0.06,1.03-0.1,1.54-0.12c-11.02,1.89-19.35,7.77-25.04,17.26c-5.71,9.52-6.61,19.71-3.34,30.3
		c-0.06,0.01-0.12,0.02-0.18,0.03C154.43,117.69,153.86,115.84,153.44,113.96z M117.93,63.16c6.03,4.32,12.05,8.63,18.12,12.98
		c-0.72,0.44-1.37,0.84-2.02,1.23c0.58-0.08,1.1-0.25,1.6-0.5c2.3-1.13,4.58-2.28,6.87-3.43c0.85-0.43,1.9-0.7,2.46-1.38
		c0.59-0.7,0.71-1.79,1.01-2.72c0.41-1.26,0.43-1.31-0.71-2.05c-1.7-1.12-3.45-2.17-5.18-3.26c-3.96-2.5-7.92-5.01-11.89-7.49
		c-1.21-0.76-2.46-1.44-3.7-2.15c-0.04,0.05-0.08,0.1-0.12,0.15c6.08,6.08,12.15,12.16,18.23,18.23c-0.03,0.08-0.06,0.15-0.09,0.23
		c-0.24,0.02-0.49,0.1-0.71,0.03c-0.56-0.17-1.1-0.39-1.63-0.62c-5.78-2.46-11.56-4.92-17.35-7.37c-1.6-0.68-3.22-1.33-4.83-1.99
		C117.97,63.09,117.95,63.13,117.93,63.16z M204.11,75.57c-0.68,0.04-1.37,0.08-2.05,0.13c-4.35,0.32-8.56,1.24-12.6,2.92
		c-7.62,3.17-13.52,8.42-18.11,15.19c-4.31,6.34-6.84,13.29-7.09,21.01c-0.22,6.78,1.28,13.18,4.27,19.25
		c0.15,0.31,0.34,0.61,0.51,0.92c0-0.3-0.09-0.55-0.2-0.79c-3.01-6.41-3.75-13.21-3.01-20.14c1.06-10.02,5.07-18.8,11.92-26.2
		c4.92-5.32,10.9-9.01,17.94-10.81c2.75-0.7,5.6-1.03,8.4-1.52C204.09,75.55,204.1,75.56,204.11,75.57z M172.13,101.24
		c5.04-11.59,13.69-19.41,25.55-23.68c-12.66,3.61-21.71,11.52-27.19,23.42c-5.45,11.83-4.81,23.61,0.85,35.2
		C166.58,124.43,167.12,112.75,172.13,101.24z M166.35,133.03c-0.01-0.08,0-0.16-0.03-0.23c-0.35-0.87-0.75-1.72-1.06-2.6
		c-2.15-6.09-2.71-12.35-1.76-18.72c1.52-10.29,5.9-19.18,13.48-26.34c5.39-5.08,11.72-8.45,19.13-9.59
		c0.76-0.12,1.52-0.21,2.28-0.32c-0.32-0.08-0.63-0.05-0.94-0.02c-4.03,0.37-7.95,1.24-11.62,2.98
		c-9.06,4.28-15.7,11.04-20.09,20.01c-2.36,4.84-3.83,9.94-3.99,15.36c-0.18,6.41,1.29,12.47,3.87,18.3
		c0.18,0.41,0.42,0.81,0.63,1.21C166.29,133.05,166.32,133.04,166.35,133.03z M162.75,128.78c-0.03-0.12-0.06-0.24-0.1-0.36
		c-2.16-6.21-2.6-12.57-1.54-19.03c1.63-9.96,6.11-18.43,13.49-25.31c5.2-4.85,11.28-8.07,18.31-9.4c1.53-0.29,3.08-0.46,4.61-0.69
		c-0.21-0.03-0.43-0.04-0.65-0.03c-4.57,0.16-8.97,1.13-13.11,3.06c-8.88,4.15-15.52,10.66-20.01,19.35
		c-2.55,4.94-4.16,10.15-4.38,15.75c-0.22,5.64,1.04,10.99,3.05,16.21c0.08,0.2,0.19,0.39,0.31,0.65
		C162.74,128.85,162.76,128.81,162.75,128.78z M232.12,77.22c1.93-0.91,3.84-1.83,5.77-2.75c-0.03-0.07-0.05-0.14-0.08-0.21
		c-5.55,1.16-11.09,2.32-16.64,3.48c3.43,2.02,7.03,3.67,9.9,6.48c-1.24-1.82-2.96-3.1-4.84-4.27
		C228.24,79.01,230.19,78.13,232.12,77.22z M232.01,84.76c0.43,0.54,0.78,1,1.17,1.42c0.1,0.11,0.33,0.19,0.47,0.15
		c1.95-0.5,3.89-1.02,5.96-1.57C237.04,84.76,234.58,84.76,232.01,84.76z M176.27,124.71c0.14,1.15,0.37,2.3,0.62,3.44
		c2.78,12.33,13.3,21.02,26.08,20.78c7.37-0.14,14.03-2.54,19.85-7.03c8.25-6.35,13.33-14.71,15.12-24.99
		c1.05-6,0.66-11.92-1.6-17.63c-2.51-6.35-6.65-11.27-12.92-14.18c-6.49-3.01-13.22-3.11-20.02-1.3c-6.29,1.68-11.59,5.1-16.11,9.73
		c-7.27,7.45-11.13,16.36-11.35,27.22C176.04,121.8,176.1,123.26,176.27,124.71z M192.05,126.04c0.97,0,1.95,0,2.92,0
		c0.27-0.08,0.53-0.19,0.8-0.24c4.5-0.79,8.02-3.15,10.69-6.79c2.84-3.87,4.47-8.16,4.29-13.03c-0.08-2.14-0.51-4.21-1.46-6.15
		c-0.07-0.14-0.11-0.29-0.12-0.45c0.88,1.48,1.44,3.07,1.77,4.75c1.2,6.18-0.77,14.31-7.51,18.8c-2.52,1.68-5.24,2.8-8.28,3.06
		c-0.06,0.01-0.12,0.04-0.18,0.06C193.99,126.04,193.02,126.04,192.05,126.04z M222.33,88.48c9.02,4.66,13.43,12.26,13.96,22.22
		c0.31,5.78-1.13,11.25-3.71,16.39c-3.57,7.1-8.72,12.69-15.98,16.1c-6.22,2.93-12.67,3.69-19.21,1.12
		c-5.93-2.33-10.36-6.49-13.35-12.07c-4.47-8.32-4.53-16.91-0.97-25.56c2.33-5.65,5.91-10.36,11.08-13.75
		c3.88-2.54,8.13-3.96,12.79-3.83c6.6,0.19,11.85,3.1,15.8,8.3c4.12,5.42,5.32,11.59,4.13,18.21c-1.36,7.62-5.14,13.8-11.55,18.22
		c-3.87,2.67-8.16,4.12-12.91,4.01c-7.28-0.16-13.6-4.8-16.15-11.94c-2.74-7.68-1.69-14.99,2.53-21.85
		c3.89-6.33,9.5-10.3,16.86-11.61c8.91-1.58,16.83,3.33,19.46,12c1.67,5.5,1.18,10.93-0.99,16.2c-2.43,5.9-6.29,10.56-12.06,13.49
		c-2.98,1.51-6.13,2.38-9.5,2.22c-4.44-0.21-8.15-2-11.19-5.23c-0.24-0.26-0.44-0.55-0.66-0.83c-0.05-0.06-0.07-0.14-0.17-0.33
		c0.17,0.11,0.24,0.14,0.29,0.18c5.96,4.87,13.67,5.55,20.29,1.57c8.51-5.13,12.46-12.77,12.05-22.68
		c-0.16-3.91-1.38-7.44-3.9-10.45c-2.63-3.15-6.08-4.73-10.13-4.98c-6.08-0.37-11.19,1.91-15.47,6.06
		c-5.79,5.62-8.38,12.51-7.53,20.59c0.49,4.69,2.36,8.84,5.68,12.17c3.67,3.67,8.26,5.15,13.38,4.46
		c7.18-0.96,12.62-4.84,16.66-10.72c3.18-4.64,4.87-9.78,4.73-15.45c-0.23-9.8-7.25-18.5-16.69-20.67
		c-4.78-1.1-9.29-0.19-13.51,2.15c-7.96,4.41-12.55,11.32-14.51,20.05c-1.42,6.36-0.9,12.6,1.91,18.55
		c5.6,11.85,18.93,16.82,31.13,11.63c4.56-1.94,8.28-5.01,11.47-8.75c5.73-6.7,8.77-14.48,8.42-23.29
		c-0.4-10.21-5.54-17.57-14.57-22.24c-1.25-0.65-2.58-1.14-3.87-1.7C218.54,86.68,220.46,87.52,222.33,88.48z M196.64,97.84
		c0.45-0.33,0.96-0.59,1.39-0.95c0.49-0.41,0.84-0.27,1.3,0.09c2.94,2.33,4.4,5.4,4.25,9.09c-0.22,5.48-2.66,9.74-7.58,12.35
		c-2.79,1.48-5.76,1.64-8.78,0.63c-0.67-0.22-0.97-0.55-0.86-1.24c0.04-0.24,0.01-0.5,0.01-0.75
		C186.8,109.06,190.11,102.58,196.64,97.84z M214.42,126.21c3.98-4.66,6.31-9.95,6.28-16.15c-0.01-2.78-0.69-5.44-1.85-7.96
		c-0.07-0.15-0.14-0.3-0.2-0.45c-0.01-0.03,0.02-0.07,0.05-0.16c1,1.84,1.68,3.75,1.99,5.77c1.02,6.57-0.17,12.66-4.25,18.01
		c-3.25,4.27-7.68,6.59-12.96,7.34c-0.39,0.06-0.78,0.09-1.18,0.12c-0.21,0.02-0.41,0-0.62,0
		C206.85,132.3,211.06,130.13,214.42,126.21z M206.41,116.34c-3.61,5.84-10.81,9.11-16.94,8.01c0.48,0.04,0.96,0.1,1.45,0.13
		c3.6,0.2,6.78-0.97,9.57-3.14c4.94-3.83,7.7-8.87,7.97-15.17c0.1-2.41-0.35-4.72-1.43-6.89c-0.06-0.12-0.1-0.25-0.15-0.37
		C209.67,103.13,209.97,110.58,206.41,116.34z M197.94,130.98c4.63,0.04,8.87-1.1,12.4-4.25c2.7-2.41,4.69-5.35,6.1-8.67
		c2.15-5.05,2.46-10.19,0.57-15.4c-0.14-0.39-0.32-0.77-0.48-1.15c-0.17-0.37-0.34-0.74-0.47-1.12c0.81,1.26,1.38,2.62,1.74,4.07
		c1.66,6.75,0.77,13.07-3.28,18.81c-3.09,4.39-7.42,6.75-12.66,7.57c-1.67,0.26-3.33,0.42-5.02,0.14
		C197.21,130.98,197.58,130.98,197.94,130.98z M210.5,119.38c-4.09,6.48-11.53,9.18-18.41,8.09c0.51,0.04,1.01,0.11,1.52,0.13
		c5.98,0.24,10.96-1.88,14.67-6.58c4.29-5.44,5.91-11.57,4.21-18.41c-0.14-0.56-0.35-1.11-0.56-1.65c-0.2-0.52-0.44-1.01-0.67-1.52
		c0.07-0.01,0.15-0.01,0.22-0.02C214.58,106.21,214.53,112.98,210.5,119.38z M199.39,129.01c5.36-0.8,9.44-3.62,12.4-8.12
		c2.7-4.12,4.19-8.58,3.85-13.56c-0.19-2.87-0.96-5.57-2.45-8.04c-0.06-0.11-0.12-0.22-0.18-0.33c-0.01-0.01,0-0.04,0-0.06
		c2.62,3.17,4.65,11.5,1.33,19.21c-3.4,7.89-11.92,12.02-19.46,11.18C196.25,129.22,197.84,129.25,199.39,129.01z M209.94,97.21
		c-0.04,0.04-0.08,0.08-0.11,0.12c-0.53-0.5-1.07-1-1.6-1.5c0.04-0.04,0.07-0.08,0.11-0.12C208.86,96.21,209.4,96.71,209.94,97.21z
		 M146.22,75.04c11.07-4.79,22.14-9.57,33.31-14.4c-0.24-0.17-0.32-0.24-0.41-0.29c-3.98-2.31-7.95-4.62-11.93-6.92
		c-1.17-0.68-2.38-0.71-3.6-0.2c-3.76,1.58-7.5,3.19-11.26,4.77c-0.56,0.24-0.89,0.6-1.08,1.17c-1.54,4.59-3.1,9.18-4.65,13.77
		c-0.22,0.64-0.37,1.31-0.55,1.96C146.11,74.95,146.17,74.99,146.22,75.04z M134.59,83.87c0.68-0.48,1.3-1.12,1.78-1.8
		c0.76-1.11,0.33-2.19-0.97-2.57c-0.57-0.17-1.19-0.26-1.78-0.24c-2.69,0.06-5.2,0.81-7.56,2.07c-0.68,0.37-1.33,0.86-1.88,1.41
		c-1.04,1.05-0.75,2.25,0.67,2.68c0.88,0.27,1.83,0.32,2.75,0.46C130.09,85.73,132.51,85.34,134.59,83.87z M124.9,84.83
		c-0.65-0.2-0.82-0.71-0.36-1.2c0.61-0.64,1.27-1.27,2.01-1.74c1.93-1.19,4.09-1.72,6.33-1.9c0.49-0.04,1,0.03,1.48,0.13
		c1.03,0.23,1.23,0.77,0.5,1.52c-0.62,0.63-1.31,1.23-2.07,1.69c-1.92,1.18-4.06,1.66-6.55,1.75
		C125.95,85.03,125.4,84.99,124.9,84.83z"/>
</g>
</svg>
