<?xml version="1.0" encoding="utf-8"?>
<!-- Generator: Adobe Illustrator 27.8.1, SVG Export Plug-In . SVG Version: 6.00 Build 0)  -->
<svg version="1.1" xmlns="http://www.w3.org/2000/svg" xmlns:xlink="http://www.w3.org/1999/xlink" x="0px" y="0px"
	 viewBox="0 0 350 230" style="enable-background:new 0 0 350 230;" xml:space="preserve">
<style type="text/css">
	.st0{fill:#00D19E;}
	.st1{fill:#002389;}
	.st2{fill:#00079C;}
	.st3{fill:#7F4900;}
	.st4{fill:#014742;}
	.st5{fill:#0019FF;}
	.st6{fill:#00B3F9;}
	.st7{fill:#773000;}
	.st8{fill-rule:evenodd;clip-rule:evenodd;fill:#CD00FF;}
	.st9{fill-rule:evenodd;clip-rule:evenodd;fill:#FF9700;}
	.st10{fill:#450056;}
	.st11{fill:#70B208;}
	.st12{fill-rule:evenodd;clip-rule:evenodd;fill:#005CFF;}
	.st13{fill-rule:evenodd;clip-rule:evenodd;fill:#00FF73;}
	.st14{fill-rule:evenodd;clip-rule:evenodd;fill:#014422;}
	.st15{fill-rule:evenodd;clip-rule:evenodd;fill:#A58500;}
	.st16{fill-rule:evenodd;clip-rule:evenodd;fill:#FF7300;}
	.st17{fill:#000202;}
	.st18{fill:#005454;}
	.st19{fill:#AB5FBF;}
	.st20{fill:#51531C;}
	.st21{fill:#661B00;}
	.st22{fill:#001E3F;}
	.st23{fill:#C69400;}
	.st24{fill:#009AB0;}
	.st25{fill:#7F0058;}
	.st26{fill:#006060;}
	.st27{fill:#7500FF;}
	.st28{fill:#9CFF00;}
	.st29{fill:#2ECED8;}
	.st30{fill:#097EAF;}
	.st31{fill-rule:evenodd;clip-rule:evenodd;fill:#097EAF;}
	.st32{fill-rule:evenodd;clip-rule:evenodd;fill:#EA0A8C;}
	.st33{fill:#EBA116;}
	.st34{fill:#151F28;}
	.st35{fill:#36EEE0;}
	.st36{fill:#F652A0;}
	.st37{fill:#F7941E;}
	.st38{fill:#8DC63F;}
	.st39{fill:#FDB913;}
	.st40{fill:#25BDBE;}
	.st41{fill:#CD1223;}
	.st42{fill:#1C1D33;}
	.st43{fill-rule:evenodd;clip-rule:evenodd;fill:#CD1223;}
	.st44{fill:#1A1A1A;}
	.st45{fill:#1AC2EA;}
	.st46{fill:#59C0E4;}
	.st47{fill:#4DB3CE;}
	.st48{fill:#EE8561;}
	.st49{fill:#EABC54;}
	.st50{fill:#1660D6;}
	.st51{fill:#FF7950;}
	.st52{fill:#FFFFFF;}
	.st53{fill:#003889;}
	.st54{fill-rule:evenodd;clip-rule:evenodd;fill:#002551;}
	.st55{fill:#41A0F4;}
	.st56{fill:#F3AF0E;}
	.st57{fill:#F66C22;}
	.st58{fill:#011C34;}
	.st59{fill:#918300;}
	.st60{fill:#A95BFE;}
	.st61{fill:#101C42;}
	.st62{fill:#F5A530;}
	.st63{fill:#00BBDD;}
	.st64{fill:#FF8E27;}
	.st65{fill:#97C213;}
	.st66{fill:#F9A609;}
	.st67{fill:#006E99;}
	.st68{fill:url(#SVGID_1_);}
	.st69{fill:url(#SVGID_00000028316869125072274540000000929455013185103511_);}
	.st70{fill:url(#SVGID_00000047051769629838398300000008413787418171018881_);}
	.st71{fill:url(#SVGID_00000030463163720800630830000014351134244966183312_);}
	.st72{fill:url(#SVGID_00000070823159716237681230000002924998574169771907_);}
	.st73{fill:url(#SVGID_00000140712614937873118160000012456942191155944066_);}
	.st74{fill:url(#SVGID_00000173127785381736641500000009133508377571222441_);}
	.st75{fill:url(#SVGID_00000052073120529289175370000007411580989735109251_);}
	.st76{fill:url(#SVGID_00000139972041073833728120000016894248158545395596_);}
	.st77{fill:url(#SVGID_00000039124551433946332080000002889499468517958328_);}
	.st78{fill:url(#SVGID_00000026153340952481299610000000024859355414439084_);}
	.st79{fill:#846100;}
	.st80{fill:url(#SVGID_00000047775412843695907130000017260507737047525547_);}
	.st81{fill:#0EB4A7;}
	.st82{fill:#9DE1E2;}
	.st83{fill:#44BFF4;}
	.st84{fill:#14437D;}
	.st85{fill:url(#SVGID_00000080918806218507077770000000398831826354272903_);}
	.st86{fill:#FEFEFE;}
	.st87{fill:url(#SVGID_00000083798159863078746060000012886549742908369564_);}
	.st88{fill:#0F8CF6;}
	.st89{fill-rule:evenodd;clip-rule:evenodd;fill:url(#SVGID_00000018194953510263611510000014544675398934486430_);}
	.st90{fill-rule:evenodd;clip-rule:evenodd;fill:url(#SVGID_00000078724908333890584160000003007072921443417259_);}
	.st91{fill-rule:evenodd;clip-rule:evenodd;fill:#336666;}
	.st92{fill-rule:evenodd;clip-rule:evenodd;fill:#FF6600;}
	.st93{fill:#91D9F8;}
	.st94{fill:#889FBE;}
	.st95{fill:url(#SVGID_00000023251717933595239900000000815192853231216772_);}
	.st96{fill:#F48680;}
	.st97{fill-rule:evenodd;clip-rule:evenodd;fill:#0093D2;}
	.st98{fill-rule:evenodd;clip-rule:evenodd;fill:#3F6B3B;}
	.st99{fill:#E7B81E;}
	.st100{fill:#D7972C;}
	.st101{fill:#233F4C;}
	.st102{fill:#20693A;}
	.st103{fill:#7CB032;}
	.st104{fill:#D7972D;}
	.st105{fill:#D8DE75;}
	.st106{fill:#E6EFCF;}
	.st107{fill:#2B8339;}
	.st108{fill:#80AD38;}
	.st109{fill:#D5A62D;}
	.st110{fill:#D3DF72;}
	.st111{fill:#558D4C;}
	.st112{fill:#D6E5ED;}
	.st113{fill:#F6E7B8;}
	.st114{fill:#EDF7E7;}
	.st115{fill:#F4F4F3;}
	.st116{fill:#D4E7EF;}
	.st117{fill:#F3F3E2;}
	.st118{fill:#DCE9DE;}
</style>
<g id="Layer_1">
</g>
<g id="Layer_2">
</g>
<g id="Layer_3">
</g>
<g id="Layer_4">
</g>
<g id="Layer_5">
</g>
<g id="Layer_6">
</g>
<g id="Layer_7">
</g>
<g id="Layer_8">
</g>
<g id="Layer_9">
</g>
<g id="Layer_10">
</g>
<g id="Layer_11">
</g>
<g id="Layer_12">
</g>
<g id="Layer_13">
</g>
<g id="Layer_14">
</g>
<g id="Layer_15">
	<g id="_x31_-30">
		<g>
			<path class="st35" d="M214.15,60.32c3.19,0,5.79-2.6,5.79-5.79c0-3.19-2.6-5.78-5.79-5.78s-5.78,2.59-5.78,5.78
				c0,0.97,0.25,1.88,0.7,2.69L196,67.92c-1.88-1.82-4.44-2.98-7.26-2.98c-5.07,0-9.3,3.65-10.21,8.46l-14.15-1.09
				c-0.36-2.84-2.77-5.06-5.71-5.06c-3.19,0-5.78,2.59-5.78,5.78c0,3.19,2.56,5.79,5.76,5.79c2.63,0,4.83-1.79,5.52-4.22l14.16,1.09
				c0.18,5.58,4.76,10.06,10.36,10.06c1.15,0,2.27-0.23,3.31-0.57l7.46,16.02c-2.97,1.83-4.98,5.09-4.98,8.86
				c0,2.27,0.75,4.37,1.98,6.08l-11.42,10.38l-2.23,2.02c-0.35-0.26-0.74-0.49-1.15-0.67h-0.01c-0.68-0.3-1.44-0.47-2.23-0.47
				c-0.54,0-1.07,0.08-1.57,0.22c1.06-0.03,1.98,0.59,2.86,2.31c0.48,0.19,0.9,0.47,1.24,0.83c0.03,0.02,0.03,0.04,0.05,0.07
				c0,0.02,0.03,0.02,0.05,0.04c0.53,0.6,0.88,1.41,0.88,2.29c0,0.28-0.03,0.55-0.1,0.81l1.33,2.52c0.46-0.66,0.79-1.42,0.94-2.25
				c0.07-0.34,0.1-0.7,0.1-1.06c0-1.09-0.33-2.08-0.83-2.93l1.82-1.65L198,117.85c1.83,1.62,4.22,2.64,6.85,2.64
				c5.74,0,10.41-4.67,10.41-10.42c0-5.73-4.67-10.4-10.41-10.4c-1.15,0-2.26,0.23-3.3,0.58l-7.47-16.03
				c2.98-1.82,4.99-5.08,4.99-8.85c0-2.08-0.62-4-1.69-5.64l13.1-10.71C211.52,59.8,212.77,60.32,214.15,60.32z M214.15,51.06
				c1.92,0,3.47,1.55,3.47,3.47c0,1.92-1.55,3.47-3.47,3.47c-1.06,0-2.01-0.49-2.66-1.25c0,0,0-0.02-0.02-0.02l-0.02-0.02
				c-0.47-0.6-0.77-1.37-0.77-2.18C210.68,52.61,212.23,51.06,214.15,51.06z M158.65,76.5c-1.92,0-3.47-1.54-3.47-3.47
				c0-1.92,1.55-3.46,3.47-3.46s3.47,1.54,3.47,3.46C162.12,74.96,160.57,76.5,158.65,76.5z M204.9,101.94
				c4.46,0,8.09,3.63,8.09,8.1c0,4.46-3.63,8.09-8.09,8.09s-8.1-3.63-8.1-8.09C196.8,105.57,200.44,101.94,204.9,101.94z
				 M188.71,83.44c-4.47,0-8.09-3.63-8.09-8.09c0-4.47,3.62-8.1,8.09-8.1c4.47,0,8.09,3.63,8.09,8.1
				C196.8,79.81,193.18,83.44,188.71,83.44z"/>
			<path class="st36" d="M177.25,28.82c-0.08-0.41-0.2-0.82-0.36-1.21c-0.16-0.39-0.36-0.76-0.6-1.12c-0.24-0.35-0.51-0.67-0.8-0.98
				c-0.31-0.29-0.63-0.56-0.98-0.8c-0.36-0.23-0.73-0.43-1.12-0.6c-0.39-0.16-0.79-0.28-1.21-0.36c-0.41-0.08-0.84-0.13-1.26-0.13
				c-0.42,0-0.84,0.05-1.26,0.13c-0.42,0.08-0.82,0.2-1.21,0.36c-0.39,0.17-0.76,0.37-1.12,0.6c-0.35,0.24-0.67,0.51-0.98,0.8
				c-0.29,0.31-0.56,0.63-0.8,0.98c-0.23,0.36-0.43,0.73-0.59,1.12c-0.17,0.39-0.29,0.8-0.37,1.21c-0.08,0.42-0.13,0.84-0.13,1.26
				c0,0.42,0.05,0.85,0.13,1.26c0.08,0.42,0.2,0.82,0.37,1.21c0.16,0.39,0.36,0.76,0.59,1.12c0.24,0.35,0.51,0.67,0.8,0.98
				c0.31,0.29,0.63,0.56,0.98,0.8c0.36,0.24,0.73,0.44,1.12,0.6c0.39,0.16,0.79,0.28,1.21,0.36c0.42,0.08,0.84,0.13,1.26,0.13
				c0.42,0,0.85-0.05,1.26-0.13c0.42-0.08,0.82-0.2,1.21-0.36c0.39-0.16,0.76-0.36,1.12-0.6c0.35-0.24,0.67-0.51,0.98-0.8
				c0.29-0.31,0.56-0.63,0.8-0.98c0.24-0.36,0.44-0.73,0.6-1.12c0.16-0.39,0.28-0.79,0.36-1.21c0.08-0.41,0.13-0.84,0.13-1.26
				C177.38,29.66,177.33,29.24,177.25,28.82z M160.72,43.23c-0.11-0.54-0.26-1.06-0.47-1.56c-0.21-0.5-0.47-0.98-0.77-1.43
				c-0.3-0.46-0.64-0.88-1.03-1.26c-0.39-0.39-0.8-0.73-1.26-1.03c-0.45-0.31-0.93-0.56-1.43-0.77c-0.51-0.21-1.03-0.37-1.56-0.47
				c-0.53-0.11-1.07-0.16-1.62-0.16c-0.54,0-1.08,0.05-1.62,0.16c-0.53,0.1-1.05,0.26-1.55,0.47c-0.5,0.21-0.98,0.46-1.44,0.77
				c-0.45,0.3-0.87,0.64-1.25,1.03c-0.39,0.38-0.73,0.8-1.03,1.26c-0.31,0.45-0.56,0.93-0.77,1.43c-0.21,0.5-0.36,1.02-0.47,1.56
				c-0.11,0.53-0.16,1.07-0.16,1.61c0,0.55,0.05,1.09,0.16,1.62c0.11,0.54,0.26,1.06,0.47,1.56c0.21,0.5,0.46,0.98,0.77,1.43
				c0.3,0.46,0.64,0.88,1.03,1.26c0.38,0.39,0.8,0.73,1.25,1.03c0.46,0.3,0.94,0.56,1.44,0.77s1.02,0.36,1.55,0.47
				c0.54,0.11,1.08,0.16,1.62,0.16c0.55,0,1.09-0.05,1.62-0.16c0.53-0.11,1.05-0.26,1.56-0.47c0.5-0.21,0.98-0.47,1.43-0.77
				c0.46-0.3,0.87-0.64,1.26-1.03c0.39-0.38,0.73-0.8,1.03-1.26c0.3-0.45,0.56-0.93,0.77-1.43c0.21-0.5,0.36-1.02,0.47-1.56
				c0.11-0.53,0.16-1.07,0.16-1.62C160.88,44.3,160.83,43.76,160.72,43.23z M175.62,58.28c-0.06-0.3-0.15-0.59-0.27-0.87
				c-0.11-0.27-0.25-0.54-0.42-0.79c-0.17-0.26-0.36-0.49-0.57-0.7c-0.21-0.21-0.45-0.4-0.7-0.57s-0.52-0.31-0.79-0.42
				c-0.28-0.12-0.57-0.21-0.87-0.27c-0.29-0.06-0.59-0.09-0.89-0.09c-0.3,0-0.6,0.03-0.9,0.09c-0.3,0.06-0.58,0.15-0.86,0.27
				c-0.28,0.11-0.55,0.25-0.8,0.42s-0.48,0.36-0.69,0.57c-0.22,0.21-0.41,0.44-0.58,0.7c-0.16,0.25-0.3,0.52-0.42,0.79
				c-0.11,0.28-0.2,0.57-0.26,0.87c-0.06,0.29-0.09,0.59-0.09,0.89c0,0.3,0.03,0.61,0.09,0.9c0.06,0.3,0.15,0.58,0.26,0.86
				c0.12,0.28,0.26,0.55,0.42,0.8c0.17,0.25,0.36,0.48,0.58,0.69c0.21,0.22,0.44,0.41,0.69,0.57c0.25,0.17,0.52,0.31,0.8,0.43
				c0.28,0.11,0.56,0.2,0.86,0.26c0.3,0.06,0.6,0.09,0.9,0.09c0.3,0,0.6-0.03,0.89-0.09c0.3-0.06,0.59-0.15,0.87-0.26
				c0.27-0.12,0.54-0.26,0.79-0.43c0.25-0.16,0.49-0.35,0.7-0.57c0.21-0.21,0.4-0.44,0.57-0.69c0.17-0.25,0.31-0.52,0.42-0.8
				c0.12-0.28,0.21-0.56,0.27-0.86c0.06-0.29,0.08-0.6,0.08-0.9C175.7,58.87,175.68,58.57,175.62,58.28z M162.07,148.67
				c0.4-0.21,0.75-0.5,1.02-0.86C162.71,148.04,162.37,148.33,162.07,148.67z M162.07,148.67c0.4-0.21,0.75-0.5,1.02-0.86
				C162.71,148.04,162.37,148.33,162.07,148.67z M162.07,148.67c0.4-0.21,0.75-0.5,1.02-0.86
				C162.71,148.04,162.37,148.33,162.07,148.67z M162.07,148.67c0.4-0.21,0.75-0.5,1.02-0.86
				C162.71,148.04,162.37,148.33,162.07,148.67z M162.07,148.67c0.4-0.21,0.75-0.5,1.02-0.86
				C162.71,148.04,162.37,148.33,162.07,148.67z M162.07,148.67c0.4-0.21,0.75-0.5,1.02-0.86
				C162.71,148.04,162.37,148.33,162.07,148.67z M162.07,148.67c0.4-0.21,0.75-0.5,1.02-0.86
				C162.71,148.04,162.37,148.33,162.07,148.67z M162.07,148.67c0.4-0.21,0.75-0.5,1.02-0.86
				C162.71,148.04,162.37,148.33,162.07,148.67z M196.75,160.43l-12.59-23.94c-1.04,1.5-2.78,2.48-4.74,2.48
				c-3.19,0-5.79-2.59-5.79-5.79c0-2.64,1.79-4.88,4.22-5.56c-3.75,0.08-9.19,8.21-19.93,4l-15.66,28.81
				c-3.21,5.89,2.5,9.52,5.62,9.52h43.24C194.24,169.95,200.24,167.08,196.75,160.43z M165.88,157.3c-2.85,0-5.16-2.31-5.16-5.16
				c0-1.34,0.51-2.55,1.35-3.47c-0.42,0.22-0.9,0.35-1.41,0.35c-1.69,0-3.06-1.37-3.06-3.05c0-1.69,1.37-3.05,3.06-3.05
				c1.68,0,3.05,1.36,3.05,3.05c0,0.69-0.23,1.33-0.62,1.84c0.8-0.53,1.76-0.83,2.79-0.83c2.85,0,5.16,2.31,5.16,5.16
				S168.73,157.3,165.88,157.3z M173.95,141.83c-1,0-1.8-0.81-1.8-1.8c0-1,0.8-1.8,1.8-1.8c0.99,0,1.8,0.8,1.8,1.8
				C175.75,141.02,174.94,141.83,173.95,141.83z M176,133.16c0,1.92,1.54,3.47,3.46,3.47c1.64,0,3.01-1.13,3.37-2.66l-2.06-3.91
				c-0.02-0.05-0.04-0.09-0.06-0.13c-0.39-0.15-0.81-0.24-1.25-0.24C177.54,129.69,176,131.23,176,133.16z M163.09,147.81
				c-0.38,0.23-0.72,0.52-1.02,0.86C162.47,148.46,162.82,148.17,163.09,147.81z M162.07,148.67c0.4-0.21,0.75-0.5,1.02-0.86
				C162.71,148.04,162.37,148.33,162.07,148.67z M162.07,148.67c0.4-0.21,0.75-0.5,1.02-0.86
				C162.71,148.04,162.37,148.33,162.07,148.67z M162.07,148.67c0.4-0.21,0.75-0.5,1.02-0.86
				C162.71,148.04,162.37,148.33,162.07,148.67z M162.07,148.67c0.4-0.21,0.75-0.5,1.02-0.86
				C162.71,148.04,162.37,148.33,162.07,148.67z M159.99,90.37v0.41h18.19v-0.41H159.99z M159.99,90.37v0.41h18.19v-0.41H159.99z
				 M162.07,148.67c0.4-0.21,0.75-0.5,1.02-0.86C162.71,148.04,162.37,148.33,162.07,148.67z M162.07,148.67
				c0.4-0.21,0.75-0.5,1.02-0.86C162.71,148.04,162.37,148.33,162.07,148.67z M162.07,148.67c0.4-0.21,0.75-0.5,1.02-0.86
				C162.71,148.04,162.37,148.33,162.07,148.67z M162.07,148.67c0.4-0.21,0.75-0.5,1.02-0.86
				C162.71,148.04,162.37,148.33,162.07,148.67z M162.07,148.67c0.4-0.21,0.75-0.5,1.02-0.86
				C162.71,148.04,162.37,148.33,162.07,148.67z M162.07,148.67c0.4-0.21,0.75-0.5,1.02-0.86
				C162.71,148.04,162.37,148.33,162.07,148.67z M196.75,160.43l-12.59-23.94c-1.04,1.5-2.78,2.48-4.74,2.48
				c-3.19,0-5.79-2.59-5.79-5.79c0-2.64,1.79-4.88,4.22-5.56c-3.75,0.08-9.19,8.21-19.93,4l-15.66,28.81
				c-3.21,5.89,2.5,9.52,5.62,9.52h43.24C194.24,169.95,200.24,167.08,196.75,160.43z M165.88,157.3c-2.85,0-5.16-2.31-5.16-5.16
				c0-1.34,0.51-2.55,1.35-3.47c-0.42,0.22-0.9,0.35-1.41,0.35c-1.69,0-3.06-1.37-3.06-3.05c0-1.69,1.37-3.05,3.06-3.05
				c1.68,0,3.05,1.36,3.05,3.05c0,0.69-0.23,1.33-0.62,1.84c0.8-0.53,1.76-0.83,2.79-0.83c2.85,0,5.16,2.31,5.16,5.16
				S168.73,157.3,165.88,157.3z M173.95,141.83c-1,0-1.8-0.81-1.8-1.8c0-1,0.8-1.8,1.8-1.8c0.99,0,1.8,0.8,1.8,1.8
				C175.75,141.02,174.94,141.83,173.95,141.83z M176,133.16c0,1.92,1.54,3.47,3.46,3.47c1.64,0,3.01-1.13,3.37-2.66l-2.06-3.91
				c-0.02-0.05-0.04-0.09-0.06-0.13c-0.39-0.15-0.81-0.24-1.25-0.24C177.54,129.69,176,131.23,176,133.16z M163.09,147.81
				c-0.38,0.23-0.72,0.52-1.02,0.86C162.47,148.46,162.82,148.17,163.09,147.81z M162.07,148.67c0.4-0.21,0.75-0.5,1.02-0.86
				C162.71,148.04,162.37,148.33,162.07,148.67z M162.07,148.67c0.4-0.21,0.75-0.5,1.02-0.86
				C162.71,148.04,162.37,148.33,162.07,148.67z M162.07,148.67c0.4-0.21,0.75-0.5,1.02-0.86
				C162.71,148.04,162.37,148.33,162.07,148.67z M162.07,148.67c0.4-0.21,0.75-0.5,1.02-0.86
				C162.71,148.04,162.37,148.33,162.07,148.67z M162.07,148.67c0.4-0.21,0.75-0.5,1.02-0.86
				C162.71,148.04,162.37,148.33,162.07,148.67z M162.07,148.67c0.4-0.21,0.75-0.5,1.02-0.86
				C162.71,148.04,162.37,148.33,162.07,148.67z M162.07,148.67c0.4-0.21,0.75-0.5,1.02-0.86
				C162.71,148.04,162.37,148.33,162.07,148.67z M162.07,148.67c0.4-0.21,0.75-0.5,1.02-0.86
				C162.71,148.04,162.37,148.33,162.07,148.67z M162.07,148.67c0.4-0.21,0.75-0.5,1.02-0.86
				C162.71,148.04,162.37,148.33,162.07,148.67z M159.99,90.37v0.41h18.19v-0.41H159.99z M162.07,148.67
				c0.4-0.21,0.75-0.5,1.02-0.86C162.71,148.04,162.37,148.33,162.07,148.67z M196.75,160.43l-12.59-23.94
				c-1.04,1.5-2.78,2.48-4.74,2.48c-3.19,0-5.79-2.59-5.79-5.79c0-2.64,1.79-4.88,4.22-5.56c-3.75,0.08-9.19,8.21-19.93,4
				l-15.66,28.81c-3.21,5.89,2.5,9.52,5.62,9.52h43.24C194.24,169.95,200.24,167.08,196.75,160.43z M165.88,157.3
				c-2.85,0-5.16-2.31-5.16-5.16c0-1.34,0.51-2.55,1.35-3.47c-0.42,0.22-0.9,0.35-1.41,0.35c-1.69,0-3.06-1.37-3.06-3.05
				c0-1.69,1.37-3.05,3.06-3.05c1.68,0,3.05,1.36,3.05,3.05c0,0.69-0.23,1.33-0.62,1.84c0.8-0.53,1.76-0.83,2.79-0.83
				c2.85,0,5.16,2.31,5.16,5.16S168.73,157.3,165.88,157.3z M173.95,141.83c-1,0-1.8-0.81-1.8-1.8c0-1,0.8-1.8,1.8-1.8
				c0.99,0,1.8,0.8,1.8,1.8C175.75,141.02,174.94,141.83,173.95,141.83z M176,133.16c0,1.92,1.54,3.47,3.46,3.47
				c1.64,0,3.01-1.13,3.37-2.66l-2.06-3.91c-0.02-0.05-0.04-0.09-0.06-0.13c-0.39-0.15-0.81-0.24-1.25-0.24
				C177.54,129.69,176,131.23,176,133.16z M163.09,147.81c-0.38,0.23-0.72,0.52-1.02,0.86
				C162.47,148.46,162.82,148.17,163.09,147.81z M196.75,160.43l-12.59-23.94c-1.04,1.5-2.78,2.48-4.74,2.48
				c-3.19,0-5.79-2.59-5.79-5.79c0-2.64,1.79-4.88,4.22-5.56c-3.75,0.08-9.19,8.21-19.93,4l-15.66,28.81
				c-3.21,5.89,2.5,9.52,5.62,9.52h43.24C194.24,169.95,200.24,167.08,196.75,160.43z M165.88,157.3c-2.85,0-5.16-2.31-5.16-5.16
				c0-1.34,0.51-2.55,1.35-3.47c-0.42,0.22-0.9,0.35-1.41,0.35c-1.69,0-3.06-1.37-3.06-3.05c0-1.69,1.37-3.05,3.06-3.05
				c1.68,0,3.05,1.36,3.05,3.05c0,0.69-0.23,1.33-0.62,1.84c0.8-0.53,1.76-0.83,2.79-0.83c2.85,0,5.16,2.31,5.16,5.16
				S168.73,157.3,165.88,157.3z M173.95,141.83c-1,0-1.8-0.81-1.8-1.8c0-1,0.8-1.8,1.8-1.8c0.99,0,1.8,0.8,1.8,1.8
				C175.75,141.02,174.94,141.83,173.95,141.83z M176,133.16c0,1.92,1.54,3.47,3.46,3.47c1.64,0,3.01-1.13,3.37-2.66l-2.06-3.91
				c-0.02-0.05-0.04-0.09-0.06-0.13c-0.39-0.15-0.81-0.24-1.25-0.24C177.54,129.69,176,131.23,176,133.16z M178.18,90.37h-18.19
				v0.41h18.19V90.37z M163.09,147.81c-0.38,0.23-0.72,0.52-1.02,0.86C162.47,148.46,162.82,148.17,163.09,147.81z M205.3,163.18
				l-19.11-34.58l-1.15-2.08l-2.71-4.9c-0.44-0.82-0.85-1.65-1.27-2.44V92.45c0-0.19-0.01-0.37-0.03-0.56
				c0.93-0.46,1.57-1.42,1.57-2.53v-1.34c0-1.58-1.26-3.4-2.83-3.4h-21.38c-1.56,0-2.84,1.82-2.84,3.4v1.34
				c0,1.11,0.65,2.07,1.57,2.53c-0.01,0.19-0.03,0.37-0.03,0.56v26.73c-0.42,0.79-0.83,1.62-1.27,2.44l-22.97,41.56
				c-3.7,6.79,3.33,12.58,7.48,12.58h57.49C201.96,175.76,209.08,170.11,205.3,163.18z M193.54,172.38h-48.9
				c-3.53,0-9.97-4.1-6.37-10.76l20.02-37.01c0.59-1.09,1.11-2.2,1.7-3.18V90.78h-0.4c-0.16,0-0.32-0.03-0.47-0.09
				c-0.14-0.06-0.28-0.15-0.39-0.26c-0.12-0.12-0.2-0.25-0.27-0.4c-0.05-0.15-0.08-0.3-0.08-0.46v-1.32c0-0.17,0.03-0.32,0.08-0.47
				c0.07-0.15,0.15-0.28,0.27-0.39c0.11-0.12,0.25-0.21,0.39-0.27c0.15-0.06,0.31-0.09,0.47-0.09h18.95c0.17,0,0.32,0.03,0.47,0.09
				c0.15,0.06,0.28,0.15,0.39,0.27c0.12,0.11,0.21,0.24,0.27,0.39c0.06,0.15,0.09,0.3,0.09,0.47v1.32c0,0.16-0.03,0.31-0.09,0.46
				c-0.06,0.15-0.15,0.28-0.27,0.4c-0.11,0.11-0.24,0.2-0.39,0.26c-0.15,0.06-0.3,0.09-0.47,0.09h-0.36v30.62
				c0.59,0.99,1.12,2.11,1.71,3.21l1.76,3.26h0.01l3.44,6.37l14.81,27.38C203.96,169.1,197.07,172.38,193.54,172.38z M184.16,136.49
				c-1.04,1.5-2.78,2.48-4.74,2.48c-3.19,0-5.79-2.59-5.79-5.79c0-2.64,1.79-4.88,4.22-5.56c-3.75,0.08-9.19,8.21-19.93,4
				l-15.66,28.81c-3.21,5.89,2.5,9.52,5.62,9.52h43.24c3.12,0,9.12-2.87,5.63-9.52L184.16,136.49z M165.88,157.3
				c-2.85,0-5.16-2.31-5.16-5.16c0-1.34,0.51-2.55,1.35-3.47c-0.42,0.22-0.9,0.35-1.41,0.35c-1.69,0-3.06-1.37-3.06-3.05
				c0-1.69,1.37-3.05,3.06-3.05c1.68,0,3.05,1.36,3.05,3.05c0,0.69-0.23,1.33-0.62,1.84c0.8-0.53,1.76-0.83,2.79-0.83
				c2.85,0,5.16,2.31,5.16,5.16S168.73,157.3,165.88,157.3z M173.95,141.83c-1,0-1.8-0.81-1.8-1.8c0-1,0.8-1.8,1.8-1.8
				c0.99,0,1.8,0.8,1.8,1.8C175.75,141.02,174.94,141.83,173.95,141.83z M176,133.16c0,1.92,1.54,3.47,3.46,3.47
				c1.64,0,3.01-1.13,3.37-2.66l-2.06-3.91c-0.02-0.05-0.04-0.09-0.06-0.13c-0.39-0.15-0.81-0.24-1.25-0.24
				C177.54,129.69,176,131.23,176,133.16z M178.18,90.37h-18.19v0.41h18.19V90.37z M163.09,147.81c-0.38,0.23-0.72,0.52-1.02,0.86
				C162.47,148.46,162.82,148.17,163.09,147.81z M162.07,148.67c0.4-0.21,0.75-0.5,1.02-0.86
				C162.71,148.04,162.37,148.33,162.07,148.67z M159.99,90.37v0.41h18.19v-0.41H159.99z M159.99,90.37v0.41h18.19v-0.41H159.99z
				 M162.07,148.67c0.4-0.21,0.75-0.5,1.02-0.86C162.71,148.04,162.37,148.33,162.07,148.67z M162.07,148.67
				c0.4-0.21,0.75-0.5,1.02-0.86C162.71,148.04,162.37,148.33,162.07,148.67z M162.07,148.67c0.4-0.21,0.75-0.5,1.02-0.86
				C162.71,148.04,162.37,148.33,162.07,148.67z"/>
			<path class="st36" d="M178.18,121.4v2.29h-18.19v-2.26c1.08-1.83,2.37-3.22,4.67-3.22h7.74V92.37c0-0.17,0.04-0.34,0.11-0.5
				c0.06-0.16,0.16-0.3,0.28-0.43c0.12-0.12,0.27-0.21,0.42-0.28c0.16-0.07,0.33-0.1,0.51-0.1c0.17,0,0.34,0.03,0.5,0.1
				c0.16,0.07,0.3,0.16,0.42,0.28c0.13,0.13,0.22,0.27,0.29,0.43c0.06,0.16,0.1,0.33,0.1,0.5v25.9c0,0.06,0,0.11-0.02,0.17
				C176.42,118.9,177.36,120.02,178.18,121.4z"/>
		</g>
	</g>
</g>
</svg>
