<?xml version="1.0" encoding="utf-8"?>
<!-- Generator: Adobe Illustrator 27.8.1, SVG Export Plug-In . SVG Version: 6.00 Build 0)  -->
<svg version="1.1" xmlns="http://www.w3.org/2000/svg" xmlns:xlink="http://www.w3.org/1999/xlink" x="0px" y="0px"
	 viewBox="0 0 350 230" style="enable-background:new 0 0 350 230;" xml:space="preserve">
<style type="text/css">
	.st0{fill:#00D19E;}
	.st1{fill:#002389;}
	.st2{fill:#00079C;}
	.st3{fill:#7F4900;}
	.st4{fill:#014742;}
	.st5{fill:#0019FF;}
	.st6{fill:#00B3F9;}
	.st7{fill:#773000;}
	.st8{fill-rule:evenodd;clip-rule:evenodd;fill:#CD00FF;}
	.st9{fill-rule:evenodd;clip-rule:evenodd;fill:#FF9700;}
	.st10{fill:#450056;}
	.st11{fill:#70B208;}
	.st12{fill-rule:evenodd;clip-rule:evenodd;fill:#005CFF;}
	.st13{fill-rule:evenodd;clip-rule:evenodd;fill:#00FF73;}
	.st14{fill-rule:evenodd;clip-rule:evenodd;fill:#014422;}
	.st15{fill-rule:evenodd;clip-rule:evenodd;fill:#A58500;}
	.st16{fill-rule:evenodd;clip-rule:evenodd;fill:#FF7300;}
	.st17{fill:#000202;}
	.st18{fill:#005454;}
	.st19{fill:#AB5FBF;}
	.st20{fill:#51531C;}
	.st21{fill:#661B00;}
	.st22{fill:#001E3F;}
	.st23{fill:#C69400;}
	.st24{fill:#009AB0;}
	.st25{fill:#7F0058;}
	.st26{fill:#006060;}
	.st27{fill:#7500FF;}
	.st28{fill:#9CFF00;}
	.st29{fill:#2ECED8;}
	.st30{fill:#097EAF;}
	.st31{fill-rule:evenodd;clip-rule:evenodd;fill:#097EAF;}
	.st32{fill-rule:evenodd;clip-rule:evenodd;fill:#EA0A8C;}
	.st33{fill:#EBA116;}
	.st34{fill:#151F28;}
	.st35{fill:#36EEE0;}
	.st36{fill:#F652A0;}
	.st37{fill:#F7941E;}
	.st38{fill:#8DC63F;}
	.st39{fill:#FDB913;}
	.st40{fill:#25BDBE;}
	.st41{fill:#CD1223;}
	.st42{fill:#1C1D33;}
	.st43{fill-rule:evenodd;clip-rule:evenodd;fill:#CD1223;}
	.st44{fill:#1A1A1A;}
	.st45{fill:#1AC2EA;}
	.st46{fill:#59C0E4;}
	.st47{fill:#4DB3CE;}
	.st48{fill:#EE8561;}
	.st49{fill:#EABC54;}
	.st50{fill:#1660D6;}
	.st51{fill:#FF7950;}
	.st52{fill:#FFFFFF;}
	.st53{fill:#003889;}
	.st54{fill-rule:evenodd;clip-rule:evenodd;fill:#002551;}
	.st55{fill:#41A0F4;}
	.st56{fill:#F3AF0E;}
	.st57{fill:#F66C22;}
	.st58{fill:#011C34;}
	.st59{fill:#918300;}
	.st60{fill:#A95BFE;}
	.st61{fill:#101C42;}
	.st62{fill:#F5A530;}
	.st63{fill:#00BBDD;}
	.st64{fill:#FF8E27;}
	.st65{fill:#97C213;}
	.st66{fill:#F9A609;}
	.st67{fill:#006E99;}
	.st68{fill:url(#SVGID_1_);}
	.st69{fill:url(#SVGID_00000118381573782844363920000004946727801669647283_);}
	.st70{fill:url(#SVGID_00000111875527992259834080000006732333737858306735_);}
	.st71{fill:url(#SVGID_00000180346930199645067210000002746054118952426929_);}
	.st72{fill:url(#SVGID_00000049217892500472543920000000294308830525851070_);}
	.st73{fill:url(#SVGID_00000054235286637828231920000007703189043738636434_);}
	.st74{fill:url(#SVGID_00000158007665794543174260000015087422080382810541_);}
	.st75{fill:url(#SVGID_00000079479188711515796720000017899188482207543479_);}
	.st76{fill:url(#SVGID_00000044872839620852550260000008574128052031207052_);}
	.st77{fill:url(#SVGID_00000146499878678262232710000014787090092763914425_);}
	.st78{fill:url(#SVGID_00000000919741680069011390000009652319894672224156_);}
	.st79{fill:#846100;}
	.st80{fill:url(#SVGID_00000096738206925637233460000003212656822323289750_);}
	.st81{fill:#0EB4A7;}
	.st82{fill:#9DE1E2;}
	.st83{fill:#44BFF4;}
	.st84{fill:#14437D;}
	.st85{fill:url(#SVGID_00000115515139206256204010000012442773206316303243_);}
	.st86{fill:#FEFEFE;}
	.st87{fill:url(#SVGID_00000162317573227594425460000018016018667945905799_);}
	.st88{fill:#0F8CF6;}
	.st89{fill-rule:evenodd;clip-rule:evenodd;fill:url(#SVGID_00000132796266728074189540000003315646081141123999_);}
	.st90{fill-rule:evenodd;clip-rule:evenodd;fill:url(#SVGID_00000053531735437764965060000000423944602804991410_);}
	.st91{fill-rule:evenodd;clip-rule:evenodd;fill:#336666;}
	.st92{fill-rule:evenodd;clip-rule:evenodd;fill:#FF6600;}
	.st93{fill:#91D9F8;}
	.st94{fill:#889FBE;}
	.st95{fill:url(#SVGID_00000089548944373317275240000009810241118401990804_);}
	.st96{fill:#F48680;}
	.st97{fill-rule:evenodd;clip-rule:evenodd;fill:#0093D2;}
	.st98{fill-rule:evenodd;clip-rule:evenodd;fill:#3F6B3B;}
	.st99{fill:#E7B81E;}
	.st100{fill:#D7972C;}
	.st101{fill:#233F4C;}
	.st102{fill:#20693A;}
	.st103{fill:#7CB032;}
	.st104{fill:#D7972D;}
	.st105{fill:#D8DE75;}
	.st106{fill:#E6EFCF;}
	.st107{fill:#2B8339;}
	.st108{fill:#80AD38;}
	.st109{fill:#D5A62D;}
	.st110{fill:#D3DF72;}
	.st111{fill:#558D4C;}
	.st112{fill:#D6E5ED;}
	.st113{fill:#F6E7B8;}
	.st114{fill:#EDF7E7;}
	.st115{fill:#F4F4F3;}
	.st116{fill:#D4E7EF;}
	.st117{fill:#F3F3E2;}
	.st118{fill:#DCE9DE;}
</style>
<g id="Layer_1">
</g>
<g id="Layer_2">
</g>
<g id="Layer_3">
</g>
<g id="Layer_4">
</g>
<g id="Layer_5">
</g>
<g id="Layer_6">
</g>
<g id="Layer_7">
</g>
<g id="Layer_8">
</g>
<g id="Layer_9">
</g>
<g id="Layer_10">
</g>
<g id="Layer_11">
</g>
<g id="Layer_12">
</g>
<g id="Layer_13">
</g>
<g id="Layer_14">
</g>
<g id="Layer_15">
	<g id="_x31_-30">
		<g>
			<g>
				<path class="st51" d="M125.5,168.68c-1.17-1.93-2.18-3.84-3.02-5.71c-5.27-11.77-3.91-22.51,7.59-33.35
					c10.53-9.92,22.37-11.33,33.69-10.75c0.17,1.48,0.78,2.94,1.88,4.11c1.5,1.6,3.58,2.34,5.61,2.21
					c-0.25,2.01,0.37,4.13,1.87,5.72c1.31,1.39,3.04,2.13,4.81,2.21h0.01c0.26,0.01,0.52,0.01,0.78,0
					c-0.25,2.01,0.37,4.13,1.87,5.72c1.5,1.6,3.58,2.34,5.61,2.21c-0.26,2.02,0.37,4.13,1.87,5.73c1.5,1.59,3.58,2.33,5.6,2.21
					c-0.25,2.01,0.38,4.13,1.87,5.72c1.5,1.6,3.58,2.33,5.61,2.21c-0.04,0.26-0.05,0.52-0.05,0.79v0.09c0,1.73,0.64,3.47,1.92,4.83
					c0.11,0.12,0.22,0.22,0.34,0.33c1.47,1.37,3.39,2,5.27,1.88c-0.15,1.29,0.04,2.63,0.6,3.84L125.5,168.68z"/>
				<path class="st52" d="M159.99,129.62c-1.74-2.65-5.29-3.37-7.93-1.62s-3.36,5.3-1.62,7.93c1.75,2.64,5.3,3.36,7.95,1.61
					C161.02,135.81,161.75,132.24,159.99,129.62z M143.89,138.17c-1.24-1.86-3.74-2.37-5.61-1.14c-1.86,1.23-2.37,3.74-1.12,5.61
					c1.23,1.86,3.74,2.37,5.6,1.13C144.61,142.54,145.12,140.04,143.89,138.17z M134.17,149.61c-0.92-1.4-2.81-1.78-4.2-0.85
					c-1.39,0.92-1.78,2.81-0.85,4.2c0.92,1.4,2.81,1.78,4.2,0.86C134.71,152.9,135.1,151.01,134.17,149.61z"/>
				<path class="st53" d="M265.22,97.63l-23.58-25.02c-2.81-2.98-7.51-3.13-10.48-0.32l-4.56,4.3c-2.75,2.58-3.08,6.76-0.92,9.73
					L198,112.38c-2.74,2.59-6.74,3.4-11.88,3.34c-7.69-0.09-17.56-2.2-28.01-1.99c-10.43,0.2-21.56,2.82-31.51,12.21
					c-11.47,10.74-14.07,22.08-10.83,33.23c0.37,1.27,0.79,2.53,1.3,3.79c0.73,1.91,1.63,3.81,2.66,5.72h3.15
					c-1.1-1.92-2.06-3.82-2.87-5.71c-0.64-1.53-1.18-3.04-1.61-4.55c-2.88-10.34-0.81-20.15,10.08-30.48
					c12.49-11.76,26.62-12.18,39.59-11.07c6.47,0.56,12.59,1.52,18,1.59c5.4,0.07,10.24-0.73,13.81-4.07
					c9.43-8.88,21.93-20.65,27.61-26.02l21.09,22.37l-27.63,26.03c-3.54,3.35-4.64,8.15-4.89,13.52c-0.18,3.9,0.08,8.19,0.3,12.72
					c0.09,1.87,0.19,3.78,0.24,5.72h2.74c0-0.15-0.01-0.3-0.01-0.44c-0.05-1.8-0.13-3.56-0.21-5.28c-0.22-4.59-0.49-8.87-0.31-12.6
					c0.24-5.14,1.29-9.08,4.04-11.66l27.65-26.05c2.84,2.38,7.08,2.32,9.84-0.28l4.57-4.3C267.88,105.3,268.02,100.61,265.22,97.63z
					 M263.01,106.11l-4.56,4.3c-1.88,1.76-4.82,1.67-6.6-0.19l-23.58-25.03c-1.76-1.88-1.68-4.82,0.19-6.6l4.56-4.3
					c1.88-1.78,4.83-1.68,6.61,0.19l23.58,25.03C264.98,101.39,264.89,104.34,263.01,106.11z M125.5,168.68h-2.61h-3.15l-48.55-0.02
					v-5.71l45.89,0.01l2.95,0.01h2.45l80.9,0.02l12.99,0.01h2.75l76.58,0.02v5.73l-76.35-0.04h-2.74l-7.35-0.01L125.5,168.68z
					 M182.98,73.07v19.48h19.49V73.07H182.98z M171.88,57.77v11.1h11.1v-11.1H171.88z M188.24,43.26v7.79h7.78v-7.79H188.24z"/>
			</g>
		</g>
	</g>
</g>
</svg>
