<?xml version="1.0" encoding="utf-8"?>
<!-- Generator: Adobe Illustrator 27.8.1, SVG Export Plug-In . SVG Version: 6.00 Build 0)  -->
<svg version="1.1" xmlns="http://www.w3.org/2000/svg" xmlns:xlink="http://www.w3.org/1999/xlink" x="0px" y="0px"
	 viewBox="0 0 350 230" style="enable-background:new 0 0 350 230;" xml:space="preserve">
<style type="text/css">
	.st0{fill:#00D19E;}
	.st1{fill:#002389;}
	.st2{fill:#00079C;}
	.st3{fill:#7F4900;}
	.st4{fill:#014742;}
	.st5{fill:#0019FF;}
	.st6{fill:#00B3F9;}
	.st7{fill:#773000;}
	.st8{fill-rule:evenodd;clip-rule:evenodd;fill:#CD00FF;}
	.st9{fill-rule:evenodd;clip-rule:evenodd;fill:#FF9700;}
	.st10{fill:#450056;}
	.st11{fill:#70B208;}
	.st12{fill-rule:evenodd;clip-rule:evenodd;fill:#005CFF;}
	.st13{fill-rule:evenodd;clip-rule:evenodd;fill:#00FF73;}
	.st14{fill-rule:evenodd;clip-rule:evenodd;fill:#014422;}
	.st15{fill-rule:evenodd;clip-rule:evenodd;fill:#A58500;}
	.st16{fill-rule:evenodd;clip-rule:evenodd;fill:#FF7300;}
	.st17{fill:#000202;}
	.st18{fill:#005454;}
	.st19{fill:#AB5FBF;}
	.st20{fill:#51531C;}
	.st21{fill:#661B00;}
	.st22{fill:#001E3F;}
	.st23{fill:#C69400;}
	.st24{fill:#009AB0;}
	.st25{fill:#7F0058;}
	.st26{fill:#006060;}
	.st27{fill:#7500FF;}
	.st28{fill:#9CFF00;}
	.st29{fill:#2ECED8;}
	.st30{fill:#097EAF;}
	.st31{fill-rule:evenodd;clip-rule:evenodd;fill:#097EAF;}
	.st32{fill-rule:evenodd;clip-rule:evenodd;fill:#EA0A8C;}
	.st33{fill:#EBA116;}
	.st34{fill:#151F28;}
	.st35{fill:#36EEE0;}
	.st36{fill:#F652A0;}
	.st37{fill:#F7941E;}
	.st38{fill:#8DC63F;}
	.st39{fill:#FDB913;}
	.st40{fill:#25BDBE;}
	.st41{fill:#CD1223;}
	.st42{fill:#1C1D33;}
	.st43{fill-rule:evenodd;clip-rule:evenodd;fill:#CD1223;}
	.st44{fill:#1A1A1A;}
	.st45{fill:#1AC2EA;}
	.st46{fill:#59C0E4;}
	.st47{fill:#4DB3CE;}
	.st48{fill:#EE8561;}
	.st49{fill:#EABC54;}
	.st50{fill:#1660D6;}
	.st51{fill:#FF7950;}
	.st52{fill:#FFFFFF;}
	.st53{fill:#003889;}
	.st54{fill-rule:evenodd;clip-rule:evenodd;fill:#002551;}
	.st55{fill:#41A0F4;}
	.st56{fill:#F3AF0E;}
	.st57{fill:#F66C22;}
	.st58{fill:#011C34;}
	.st59{fill:#918300;}
	.st60{fill:#A95BFE;}
	.st61{fill:#101C42;}
	.st62{fill:#F5A530;}
	.st63{fill:#00BBDD;}
	.st64{fill:#FF8E27;}
	.st65{fill:#97C213;}
	.st66{fill:#F9A609;}
	.st67{fill:#006E99;}
	.st68{fill:url(#SVGID_1_);}
	.st69{fill:url(#SVGID_00000077290697499422655050000011434211144383463587_);}
	.st70{fill:url(#SVGID_00000083778089748358306550000011459985429250295985_);}
	.st71{fill:url(#SVGID_00000112620288250354841210000017842713556975142576_);}
	.st72{fill:url(#SVGID_00000116233545409548683530000013807770299116221856_);}
	.st73{fill:url(#SVGID_00000177442748140040550800000006950350635571364282_);}
	.st74{fill:url(#SVGID_00000057148341135806475380000001373970158841066417_);}
	.st75{fill:url(#SVGID_00000072247194571379545440000007750712197096399796_);}
	.st76{fill:url(#SVGID_00000178919749743568866170000004531033871526492568_);}
	.st77{fill:url(#SVGID_00000106831526988326468840000010096022182656032954_);}
	.st78{fill:url(#SVGID_00000096023378002652023790000004674802391154175109_);}
	.st79{fill:#846100;}
	.st80{fill:url(#SVGID_00000057126861551236558100000012138712961920960421_);}
	.st81{fill:#0EB4A7;}
	.st82{fill:#9DE1E2;}
	.st83{fill:#44BFF4;}
	.st84{fill:#14437D;}
	.st85{fill:url(#SVGID_00000008844339220938895940000001320013918899600559_);}
	.st86{fill:#FEFEFE;}
	.st87{fill:url(#SVGID_00000129175018277091565920000010869509088003929013_);}
	.st88{fill:#0F8CF6;}
	.st89{fill-rule:evenodd;clip-rule:evenodd;fill:url(#SVGID_00000112591905690990951430000013776904114076482181_);}
	.st90{fill-rule:evenodd;clip-rule:evenodd;fill:url(#SVGID_00000170237223756809168010000003795733355753351834_);}
	.st91{fill-rule:evenodd;clip-rule:evenodd;fill:#336666;}
	.st92{fill-rule:evenodd;clip-rule:evenodd;fill:#FF6600;}
	.st93{fill:#91D9F8;}
	.st94{fill:#889FBE;}
	.st95{fill:url(#SVGID_00000052080890366878229030000006327323674725565315_);}
	.st96{fill:#F48680;}
	.st97{fill-rule:evenodd;clip-rule:evenodd;fill:#0093D2;}
	.st98{fill-rule:evenodd;clip-rule:evenodd;fill:#3F6B3B;}
	.st99{fill:#E7B81E;}
	.st100{fill:#D7972C;}
	.st101{fill:#233F4C;}
	.st102{fill:#20693A;}
	.st103{fill:#7CB032;}
	.st104{fill:#D7972D;}
	.st105{fill:#D8DE75;}
	.st106{fill:#E6EFCF;}
	.st107{fill:#2B8339;}
	.st108{fill:#80AD38;}
	.st109{fill:#D5A62D;}
	.st110{fill:#D3DF72;}
	.st111{fill:#558D4C;}
	.st112{fill:#D6E5ED;}
	.st113{fill:#F6E7B8;}
	.st114{fill:#EDF7E7;}
	.st115{fill:#F4F4F3;}
	.st116{fill:#D4E7EF;}
	.st117{fill:#F3F3E2;}
	.st118{fill:#DCE9DE;}
</style>
<g id="Layer_1">
</g>
<g id="Layer_2">
</g>
<g id="Layer_3">
</g>
<g id="Layer_4">
</g>
<g id="Layer_5">
</g>
<g id="Layer_6">
</g>
<g id="Layer_7">
</g>
<g id="Layer_8">
</g>
<g id="Layer_9">
</g>
<g id="Layer_10">
</g>
<g id="Layer_11">
</g>
<g id="Layer_12">
</g>
<g id="Layer_13">
</g>
<g id="Layer_14">
</g>
<g id="Layer_15">
	<g id="_x31_-30">
		<g>
			<path class="st60" d="M259.06,142.49l-22.45-40.17c-0.91-1.64-1.4-3.5-1.4-5.37V81.89c2.43-0.81,4.19-3.11,4.19-5.81
				c0-3.38-2.76-6.13-6.13-6.13h-21.49c-3.38,0-6.13,2.75-6.13,6.13c0,2.7,1.76,5,4.18,5.81v5.57c0,1.08,0.88,1.95,1.95,1.95
				c1.08,0,1.95-0.87,1.95-1.95v-5.25h17.59v14.75c0,2.54,0.65,5.05,1.89,7.27l10.04,17.97h-6.45c-1.07,0-1.95,0.87-1.95,1.94
				c0,1.08,0.88,1.95,1.95,1.95h8.63l10.22,18.29c1.93,3.45,1.89,7.55-0.12,10.96c-1.99,3.41-5.55,5.43-9.5,5.43H199
				c-3.95,0-7.51-2.03-9.51-5.43c-2-3.41-2.04-7.51-0.12-10.96l10.22-18.29h7.52c0.82,2.27,2.97,3.9,5.52,3.9
				c2.54,0,4.71-1.63,5.51-3.9h9.56c1.08,0,1.95-0.87,1.95-1.95c0-1.07-0.87-1.94-1.95-1.94h-9.56c-0.8-2.26-2.96-3.9-5.51-3.9
				c-2.54,0-4.7,1.64-5.52,3.9h-5.34l10.04-17.97c1.24-2.21,1.89-4.73,1.89-7.27v-0.4c0-1.08-0.87-1.95-1.95-1.95
				c-1.07,0-1.95,0.87-1.95,1.95v0.4c0,1.87-0.48,3.73-1.4,5.37l-2.53,4.54v-3.89c0-2.51-2.04-4.55-4.55-4.55h-9.74v-4.02
				c1.9-0.77,3.24-2.63,3.24-4.82c0-2.86-2.33-5.19-5.19-5.19h-15.59c-2.86,0-5.19,2.33-5.19,5.19c0,2.18,1.34,4.04,3.24,4.82v4.02
				h-10.38v-4.02c1.89-0.77,3.24-2.63,3.24-4.82c0-2.86-2.33-5.19-5.19-5.19h-15.59c-2.86,0-5.19,2.33-5.19,5.19
				c0,2.18,1.34,4.04,3.24,4.82v4.02h-9.75c-2.5,0-4.54,2.04-4.54,4.55v32.8c1.36,1.41,2.53,3,3.47,4.73c0.16,0.3,0.3,0.59,0.44,0.9
				v-38.43c0-0.36,0.29-0.65,0.64-0.65h68.85c0.35,0,0.65,0.29,0.65,0.65v10.86l-3.12,5.58v-9.95c0-1.07-0.87-1.95-1.95-1.95H136.9
				c-1.08,0-1.94,0.88-1.94,1.95v51.31h-3.12v-0.72c-0.72,1.5-1.61,2.91-2.64,4.18c0.43,0.28,0.94,0.44,1.47,0.44h5.45
				c1.51,0,2.73-1.22,2.73-2.72v-3.04h32.2c1.07,0,1.94-0.86,1.94-1.94c0-1.08-0.87-1.95-1.94-1.95h-32.2v-5.19h45.2
				c0.01,1.75,0.33,3.52,0.97,5.19h-4.88c-1.08,0-1.94,0.87-1.94,1.95c0,1.08,0.86,1.94,1.94,1.94h7.07
				c2.8,3.64,7.08,5.76,11.78,5.76h47.03c5.35,0,10.16-2.75,12.87-7.37C261.61,152.7,261.67,147.16,259.06,142.49z M233.26,78.32
				h-21.49c-1.23,0-2.24-1-2.24-2.24c0-1.24,1-2.24,2.24-2.24h21.49c1.23,0,2.23,1,2.23,2.24
				C235.49,77.31,234.49,78.32,233.26,78.32z M212.64,122.2c1.08,0,1.95,0.87,1.95,1.94c0,1.08-0.87,1.95-1.95,1.95
				c-1.07,0-1.95-0.87-1.95-1.95C210.69,123.07,211.57,122.2,212.64,122.2z M157.82,98.43h-11.69V94.8h11.69V98.43z M159.77,90.89
				h-15.59c-0.72,0-1.3-0.58-1.3-1.3c0-0.72,0.58-1.29,1.3-1.29h15.59c0.72,0,1.3,0.58,1.3,1.29
				C161.07,90.31,160.49,90.89,159.77,90.89z M187.7,98.43h-11.69V94.8h11.69V98.43z M189.65,90.89h-15.59c-0.72,0-1.3-0.58-1.3-1.3
				c0-0.72,0.58-1.29,1.3-1.29h15.59c0.72,0,1.3,0.58,1.3,1.29C190.95,90.31,190.37,90.89,189.65,90.89z M191.6,111.42h3.38v14.97
				l-3.38,6.04V111.42z M138.86,145.94v-34.52h3.38v30.8c0,1.28,0.26,2.54,0.74,3.72H138.86z M157.82,142.21
				c0,1.37-0.48,2.68-1.34,3.72h-9.01c-0.86-1.05-1.33-2.35-1.33-3.72V140h11.69V142.21z M160.97,145.94
				c0.49-1.18,0.76-2.44,0.76-3.72v-13.45c0-1.08-0.88-1.95-1.95-1.95c-1.08,0-1.95,0.87-1.95,1.95v7.34h-11.69v-24.69h11.69v8.25
				c0,1.08,0.87,1.95,1.95,1.95c1.07,0,1.95-0.87,1.95-1.95v-8.25h10.38v30.8c0,1.29,0.26,2.55,0.74,3.72H160.97z M187.7,139.41
				l-1.72,3.09c-0.63,1.1-1.09,2.26-1.41,3.44h-7.23c-0.86-1.05-1.33-2.35-1.33-3.72v-13.04h11.69V139.41z M187.7,125.28h-11.69
				v-13.86h11.69V125.28z M224.07,31.65c-3.14,0-5.7,2.56-5.7,5.72c0,3.14,2.56,5.7,5.7,5.7c3.16,0,5.72-2.56,5.72-5.7
				C229.79,34.21,227.23,31.65,224.07,31.65z M224.07,39.19c-1,0-1.81-0.81-1.81-1.81c0-1.01,0.82-1.83,1.81-1.83
				c1.01,0,1.83,0.81,1.83,1.83C225.9,38.38,225.08,39.19,224.07,39.19z M112.55,87.66c-1.04,0-1.89,0.86-1.89,1.89v55.72
				c0,1.08,0.86,1.94,1.89,1.94c1.08,0,1.94-0.86,1.94-1.94V89.54C114.5,88.52,113.63,87.66,112.55,87.66z M122.66,140.68
				c-0.74-0.74-1.94-0.74-2.68,0c-0.75,0.74-0.75,1.94,0,2.68c2.06,2.06,3.02,4.74,3.02,7.43c0,2.63-0.96,5.32-3.02,7.38
				c-2.06,2.06-4.74,3.08-7.43,3.08c-2.63,0-5.32-1.02-7.38-3.08c-2.06-2.06-3.08-4.74-3.08-7.38c0-2.68,1.02-5.37,3.08-7.43
				c0.74-0.74,0.74-1.94,0-2.68c-0.74-0.74-1.94-0.74-2.68,0c-2.8,2.8-4.17,6.45-4.17,10.11c0,3.61,1.37,7.26,4.17,10.06
				c2.81,2.8,6.46,4.17,10.06,4.17c3.66,0,7.31-1.37,10.11-4.17c2.8-2.8,4.17-6.45,4.17-10.06
				C126.84,147.14,125.46,143.48,122.66,140.68z M112.55,87.66c-1.04,0-1.89,0.86-1.89,1.89v55.72c0,1.08,0.86,1.94,1.89,1.94
				c1.08,0,1.94-0.86,1.94-1.94V89.54C114.5,88.52,113.63,87.66,112.55,87.66z M122.66,140.68c-0.74-0.74-1.94-0.74-2.68,0
				c-0.75,0.74-0.75,1.94,0,2.68c2.06,2.06,3.02,4.74,3.02,7.43c0,2.63-0.96,5.32-3.02,7.38c-2.06,2.06-4.74,3.08-7.43,3.08
				c-2.63,0-5.32-1.02-7.38-3.08c-2.06-2.06-3.08-4.74-3.08-7.38c0-2.68,1.02-5.37,3.08-7.43c0.74-0.74,0.74-1.94,0-2.68
				c-0.74-0.74-1.94-0.74-2.68,0c-2.8,2.8-4.17,6.45-4.17,10.11c0,3.61,1.37,7.26,4.17,10.06c2.81,2.8,6.46,4.17,10.06,4.17
				c3.66,0,7.31-1.37,10.11-4.17c2.8-2.8,4.17-6.45,4.17-10.06C126.84,147.14,125.46,143.48,122.66,140.68z M112.55,87.66
				c-1.04,0-1.89,0.86-1.89,1.89v55.72c0,1.08,0.86,1.94,1.89,1.94c1.08,0,1.94-0.86,1.94-1.94V89.54
				C114.5,88.52,113.63,87.66,112.55,87.66z M122.66,140.68c-0.74-0.74-1.94-0.74-2.68,0c-0.75,0.74-0.75,1.94,0,2.68
				c2.06,2.06,3.02,4.74,3.02,7.43c0,2.63-0.96,5.32-3.02,7.38c-2.06,2.06-4.74,3.08-7.43,3.08c-2.63,0-5.32-1.02-7.38-3.08
				c-2.06-2.06-3.08-4.74-3.08-7.38c0-2.68,1.02-5.37,3.08-7.43c0.74-0.74,0.74-1.94,0-2.68c-0.74-0.74-1.94-0.74-2.68,0
				c-2.8,2.8-4.17,6.45-4.17,10.11c0,3.61,1.37,7.26,4.17,10.06c2.81,2.8,6.46,4.17,10.06,4.17c3.66,0,7.31-1.37,10.11-4.17
				c2.8-2.8,4.17-6.45,4.17-10.06C126.84,147.14,125.46,143.48,122.66,140.68z M112.55,87.66c-1.04,0-1.89,0.86-1.89,1.89v55.72
				c0,1.08,0.86,1.94,1.89,1.94c1.08,0,1.94-0.86,1.94-1.94V89.54C114.5,88.52,113.63,87.66,112.55,87.66z M122.66,140.68
				c-0.74-0.74-1.94-0.74-2.68,0c-0.75,0.74-0.75,1.94,0,2.68c2.06,2.06,3.02,4.74,3.02,7.43c0,2.63-0.96,5.32-3.02,7.38
				c-2.06,2.06-4.74,3.08-7.43,3.08c-2.63,0-5.32-1.02-7.38-3.08c-2.06-2.06-3.08-4.74-3.08-7.38c0-2.68,1.02-5.37,3.08-7.43
				c0.74-0.74,0.74-1.94,0-2.68c-0.74-0.74-1.94-0.74-2.68,0c-2.8,2.8-4.17,6.45-4.17,10.11c0,3.61,1.37,7.26,4.17,10.06
				c2.81,2.8,6.46,4.17,10.06,4.17c3.66,0,7.31-1.37,10.11-4.17c2.8-2.8,4.17-6.45,4.17-10.06
				C126.84,147.14,125.46,143.48,122.66,140.68z M122.66,140.68c-0.74-0.74-1.94-0.74-2.68,0c-0.75,0.74-0.75,1.94,0,2.68
				c2.06,2.06,3.02,4.74,3.02,7.43c0,2.63-0.96,5.32-3.02,7.38c-2.06,2.06-4.74,3.08-7.43,3.08c-2.63,0-5.32-1.02-7.38-3.08
				c-2.06-2.06-3.08-4.74-3.08-7.38c0-2.68,1.02-5.37,3.08-7.43c0.74-0.74,0.74-1.94,0-2.68c-0.74-0.74-1.94-0.74-2.68,0
				c-2.8,2.8-4.17,6.45-4.17,10.11c0,3.61,1.37,7.26,4.17,10.06c2.81,2.8,6.46,4.17,10.06,4.17c3.66,0,7.31-1.37,10.11-4.17
				c2.8-2.8,4.17-6.45,4.17-10.06C126.84,147.14,125.46,143.48,122.66,140.68z M112.55,87.66c-1.04,0-1.89,0.86-1.89,1.89v55.72
				c0,1.08,0.86,1.94,1.89,1.94c1.08,0,1.94-0.86,1.94-1.94V89.54C114.5,88.52,113.63,87.66,112.55,87.66z M122.66,140.68
				c-0.74-0.74-1.94-0.74-2.68,0c-0.75,0.74-0.75,1.94,0,2.68c2.06,2.06,3.02,4.74,3.02,7.43c0,2.63-0.96,5.32-3.02,7.38
				c-2.06,2.06-4.74,3.08-7.43,3.08c-2.63,0-5.32-1.02-7.38-3.08c-2.06-2.06-3.08-4.74-3.08-7.38c0-2.68,1.02-5.37,3.08-7.43
				c0.74-0.74,0.74-1.94,0-2.68c-0.74-0.74-1.94-0.74-2.68,0c-2.8,2.8-4.17,6.45-4.17,10.11c0,3.61,1.37,7.26,4.17,10.06
				c2.81,2.8,6.46,4.17,10.06,4.17c3.66,0,7.31-1.37,10.11-4.17c2.8-2.8,4.17-6.45,4.17-10.06
				C126.84,147.14,125.46,143.48,122.66,140.68z M112.55,87.66c-1.04,0-1.89,0.86-1.89,1.89v55.72c0,1.08,0.86,1.94,1.89,1.94
				c1.08,0,1.94-0.86,1.94-1.94V89.54C114.5,88.52,113.63,87.66,112.55,87.66z M122.66,140.68c-0.74-0.74-1.94-0.74-2.68,0
				c-0.75,0.74-0.75,1.94,0,2.68c2.06,2.06,3.02,4.74,3.02,7.43c0,2.63-0.96,5.32-3.02,7.38c-2.06,2.06-4.74,3.08-7.43,3.08
				c-2.63,0-5.32-1.02-7.38-3.08c-2.06-2.06-3.08-4.74-3.08-7.38c0-2.68,1.02-5.37,3.08-7.43c0.74-0.74,0.74-1.94,0-2.68
				c-0.74-0.74-1.94-0.74-2.68,0c-2.8,2.8-4.17,6.45-4.17,10.11c0,3.61,1.37,7.26,4.17,10.06c2.81,2.8,6.46,4.17,10.06,4.17
				c3.66,0,7.31-1.37,10.11-4.17c2.8-2.8,4.17-6.45,4.17-10.06C126.84,147.14,125.46,143.48,122.66,140.68z M112.55,87.66
				c-1.04,0-1.89,0.86-1.89,1.89v55.72c0,1.08,0.86,1.94,1.89,1.94c1.08,0,1.94-0.86,1.94-1.94V89.54
				C114.5,88.52,113.63,87.66,112.55,87.66z M112.55,87.66c-1.04,0-1.89,0.86-1.89,1.89v55.72c0,1.08,0.86,1.94,1.89,1.94
				c1.08,0,1.94-0.86,1.94-1.94V89.54C114.5,88.52,113.63,87.66,112.55,87.66z M122.66,140.68c-0.74-0.74-1.94-0.74-2.68,0
				c-0.75,0.74-0.75,1.94,0,2.68c2.06,2.06,3.02,4.74,3.02,7.43c0,2.63-0.96,5.32-3.02,7.38c-2.06,2.06-4.74,3.08-7.43,3.08
				c-2.63,0-5.32-1.02-7.38-3.08c-2.06-2.06-3.08-4.74-3.08-7.38c0-2.68,1.02-5.37,3.08-7.43c0.74-0.74,0.74-1.94,0-2.68
				c-0.74-0.74-1.94-0.74-2.68,0c-2.8,2.8-4.17,6.45-4.17,10.11c0,3.61,1.37,7.26,4.17,10.06c2.81,2.8,6.46,4.17,10.06,4.17
				c3.66,0,7.31-1.37,10.11-4.17c2.8-2.8,4.17-6.45,4.17-10.06C126.84,147.14,125.46,143.48,122.66,140.68z M209.27,42.18
				c-3.94,0-7.15,3.2-7.15,7.14c0,3.94,3.2,7.15,7.15,7.15c3.94,0,7.15-3.2,7.15-7.15C216.41,45.39,213.2,42.18,209.27,42.18z
				 M209.27,52.56c-1.79,0-3.25-1.45-3.25-3.24c0-1.79,1.47-3.25,3.25-3.25c1.79,0,3.24,1.47,3.24,3.25
				C212.51,51.12,211.05,52.56,209.27,52.56z M226.36,51.49c-4.3,0-7.8,3.51-7.8,7.8c0,4.31,3.5,7.8,7.8,7.8c4.3,0,7.8-3.49,7.8-7.8
				C234.15,54.99,230.65,51.49,226.36,51.49z M226.36,63.18c-2.15,0-3.9-1.75-3.9-3.9c0-2.15,1.75-3.89,3.9-3.89
				c2.15,0,3.89,1.75,3.89,3.89C230.25,61.44,228.51,63.18,226.36,63.18z M222.52,100.9c-3.94,0-7.15,3.21-7.15,7.15
				c0,3.93,3.2,7.15,7.15,7.15c3.94,0,7.14-3.21,7.14-7.15C229.66,104.11,226.46,100.9,222.52,100.9z M222.52,111.29
				c-1.79,0-3.25-1.46-3.25-3.24c0-1.79,1.46-3.25,3.25-3.25c1.79,0,3.24,1.47,3.24,3.25C225.76,109.83,224.31,111.29,222.52,111.29
				z M247.13,144.4l-1.4-0.82c0.07-0.4,0.12-0.81,0.12-1.24s-0.04-0.85-0.12-1.24l1.4-0.82c0.94-0.54,1.26-1.72,0.72-2.66
				c-0.54-0.93-1.73-1.25-2.67-0.72l-1.42,0.82c-0.63-0.55-1.35-0.98-2.16-1.25v-1.63c0-1.08-0.87-1.95-1.95-1.95
				s-1.94,0.87-1.94,1.95v1.63c-0.81,0.27-1.54,0.7-2.16,1.25l-1.42-0.82c-0.94-0.54-2.13-0.21-2.67,0.72
				c-0.54,0.94-0.22,2.12,0.72,2.66l1.41,0.82c-0.08,0.4-0.12,0.81-0.12,1.24s0.04,0.84,0.12,1.24l-1.41,0.82
				c-0.94,0.54-1.25,1.72-0.72,2.66c0.36,0.63,1.02,0.97,1.7,0.97c0.33,0,0.67-0.08,0.97-0.26l1.42-0.82
				c0.62,0.55,1.35,0.98,2.16,1.25v1.63c0,1.08,0.86,1.95,1.94,1.95s1.95-0.87,1.95-1.95v-1.63c0.81-0.27,1.53-0.7,2.16-1.25
				l1.42,0.82c0.3,0.17,0.64,0.26,0.97,0.26c0.68,0,1.33-0.35,1.7-0.97C248.39,146.12,248.07,144.94,247.13,144.4z M239.66,144.62
				c-1.26,0-2.28-1.02-2.28-2.28s1.02-2.28,2.28-2.28c1.26,0,2.29,1.02,2.29,2.28S240.92,144.62,239.66,144.62z M218.73,146.45
				l-1.51-0.43c0.02-0.82-0.07-1.64-0.29-2.41l1.39-0.77c0.95-0.52,1.28-1.7,0.76-2.65c-0.52-0.94-1.71-1.28-2.65-0.76l-1.38,0.77
				c-0.54-0.6-1.19-1.11-1.9-1.52l0.44-1.51c0.29-1.04-0.3-2.12-1.34-2.41c-1.03-0.3-2.12,0.3-2.41,1.33l-0.44,1.52
				c-0.82-0.02-1.63,0.07-2.41,0.27l-0.77-1.37c-0.53-0.95-1.71-1.28-2.65-0.76c-0.94,0.51-1.28,1.7-0.76,2.64l0.77,1.38
				c-0.58,0.54-1.1,1.19-1.51,1.9l-1.51-0.44c-1.04-0.3-2.12,0.3-2.41,1.33c-0.3,1.04,0.3,2.12,1.34,2.41l1.51,0.44
				c-0.03,0.81,0.07,1.63,0.28,2.42l-1.38,0.77c-0.95,0.52-1.28,1.7-0.76,2.64c0.35,0.64,1.02,1,1.7,1c0.32,0,0.64-0.08,0.95-0.24
				l1.37-0.77c0.56,0.59,1.19,1.1,1.9,1.51l-0.43,1.51c-0.3,1.03,0.3,2.12,1.33,2.41c0.18,0.05,0.36,0.07,0.54,0.07
				c0.85,0,1.63-0.56,1.88-1.42l0.44-1.52c0.1,0.01,0.19,0.02,0.3,0.02c0.72,0,1.43-0.1,2.12-0.29l0.77,1.38c0.35,0.64,1.02,1,1.7,1
				c0.32,0,0.65-0.07,0.95-0.25c0.94-0.52,1.28-1.7,0.76-2.64l-0.77-1.39c0.58-0.54,1.1-1.19,1.51-1.9l1.51,0.44
				c0.18,0.05,0.36,0.07,0.54,0.07c0.85,0,1.62-0.56,1.87-1.42C220.36,147.82,219.76,146.74,218.73,146.45z M209.09,149.94
				c-2.33,0-4.22-1.89-4.22-4.22c0-2.33,1.89-4.22,4.22-4.22c2.34,0,4.22,1.89,4.22,4.22C213.32,148.05,211.43,149.94,209.09,149.94
				z M122.66,140.68c-0.74-0.74-1.94-0.74-2.68,0c-0.75,0.74-0.75,1.94,0,2.68c2.06,2.06,3.02,4.74,3.02,7.43
				c0,2.63-0.96,5.32-3.02,7.38c-2.06,2.06-4.74,3.08-7.43,3.08c-2.63,0-5.32-1.02-7.38-3.08c-2.06-2.06-3.08-4.74-3.08-7.38
				c0-2.68,1.02-5.37,3.08-7.43c0.74-0.74,0.74-1.94,0-2.68c-0.74-0.74-1.94-0.74-2.68,0c-2.8,2.8-4.17,6.45-4.17,10.11
				c0,3.61,1.37,7.26,4.17,10.06c2.81,2.8,6.46,4.17,10.06,4.17c3.66,0,7.31-1.37,10.11-4.17c2.8-2.8,4.17-6.45,4.17-10.06
				C126.84,147.14,125.46,143.48,122.66,140.68z M112.55,87.66c-1.04,0-1.89,0.86-1.89,1.89v55.72c0,1.08,0.86,1.94,1.89,1.94
				c1.08,0,1.94-0.86,1.94-1.94V89.54C114.5,88.52,113.63,87.66,112.55,87.66z"/>
			<path class="st60" d="M131.84,141.41v18.65c-0.72,1.5-1.61,2.91-2.64,4.18c-0.76-0.48-1.26-1.33-1.26-2.29v-2.63
				c1.41-2.54,2.21-5.47,2.21-8.58c0-3.04-0.75-5.89-2.12-8.41c-0.02-0.05-0.06-0.11-0.09-0.16v-6.4c1.36,1.41,2.53,3,3.47,4.73
				C131.56,140.81,131.7,141.1,131.84,141.41z"/>
			<path class="st60" d="M129.2,164.24c-0.49,0.62-1.01,1.2-1.56,1.75c-3.94,3.94-9.31,6.35-15.26,6.35c-5.99,0-11.36-2.4-15.3-6.35
				c-3.89-3.89-6.29-9.31-6.29-15.25c0-3.66,0.91-7.15,2.57-10.23c1.55-2.86,3.66-5.31,6.29-7.2V87.54c0-3.48,1.42-6.68,3.71-8.97
				c2.35-2.34,5.48-3.77,9.02-3.77c3.49,0,6.69,1.43,8.98,3.77c2.34,2.29,3.77,5.49,3.77,8.97v45.76c1,0.74,1.95,1.56,2.82,2.47v6.4
				c-1.36-2.5-3.33-4.62-5.68-6.24c-0.57-0.29-0.97-0.91-0.97-1.66V87.54c0-2.45-1.02-4.68-2.63-6.28c-1.6-1.61-3.83-2.63-6.29-2.63
				c-2.45,0-4.68,1.02-6.34,2.63c-1.6,1.6-2.63,3.83-2.63,6.28v3.83h3.14c1.03,0,1.89,0.86,1.89,1.89c0,1.09-0.86,1.94-1.89,1.94
				h-3.14v2.51h3.14c1.03,0,1.89,0.86,1.89,1.89c0,1.09-0.86,1.94-1.89,1.94h-3.14v2.51h3.14c1.03,0,1.89,0.86,1.89,1.89
				c0,1.09-0.86,1.94-1.89,1.94h-3.14v2.51h3.14c1.03,0,1.89,0.86,1.89,1.94c0,1.03-0.86,1.89-1.89,1.89h-3.14v2.51h3.14
				c1.03,0,1.89,0.86,1.89,1.94c0,1.03-0.86,1.89-1.89,1.89h-3.14v2.51h3.14c1.03,0,1.89,0.86,1.89,1.94c0,1.03-0.86,1.89-1.89,1.89
				h-3.14v7.37c0,0.63-0.29,1.26-0.86,1.61c-2.46,1.65-4.45,3.83-5.89,6.45c-1.32,2.52-2.11,5.37-2.11,8.41
				c0,4.91,1.99,9.37,5.24,12.57c3.2,3.19,7.66,5.19,12.57,5.19c4.92,0,9.32-2,12.57-5.19c1.18-1.18,2.19-2.52,3-3.99v2.63
				C127.94,162.92,128.44,163.77,129.2,164.24z"/>
		</g>
	</g>
</g>
</svg>
