<?xml version="1.0" encoding="utf-8"?>
<!-- Generator: Adobe Illustrator 27.8.1, SVG Export Plug-In . SVG Version: 6.00 Build 0)  -->
<svg version="1.1" xmlns="http://www.w3.org/2000/svg" xmlns:xlink="http://www.w3.org/1999/xlink" x="0px" y="0px"
	 viewBox="0 0 350 230" style="enable-background:new 0 0 350 230;" xml:space="preserve">
<style type="text/css">
	.st0{fill:#FFF5CC;}
	.st1{fill:#FFFECF;}
	.st2{fill:#D3FFCF;}
	.st3{fill:#CFFFFD;}
	.st4{fill:#DEF7F9;}
	.st5{fill:#FFF5F8;}
	.st6{fill:#FFEACF;}
	.st7{fill:#F4F9E1;}
	.st8{fill:#FFEEE9;}
	.st9{fill:#FFFFCF;}
	.st10{fill:#FCD8AE;}
	.st11{fill:#F7F4E8;}
	.st12{fill:#FCF1E3;}
	.st13{fill:#FFECD9;}
	.st14{fill:#FCF6DB;}
	.st15{fill:#FFF3C0;}
	.st16{fill:#CCC8B8;}
	.st17{fill:#CECECE;}
	.st18{fill:#E5E1D1;}
	.st19{fill:#063766;}
	.st20{fill:#0E2848;}
	.st21{fill:#00D19E;}
	.st22{fill:#002389;}
	.st23{fill:#00079C;}
	.st24{fill:#7F4900;}
	.st25{fill:#014742;}
	.st26{fill:#0019FF;}
	.st27{fill:#00B3F9;}
	.st28{fill:#773000;}
	.st29{fill-rule:evenodd;clip-rule:evenodd;fill:#CD00FF;}
	.st30{fill-rule:evenodd;clip-rule:evenodd;fill:#FF9700;}
	.st31{fill:#450056;}
	.st32{fill:#70B208;}
	.st33{fill-rule:evenodd;clip-rule:evenodd;fill:#005CFF;}
	.st34{fill-rule:evenodd;clip-rule:evenodd;fill:#00FF73;}
	.st35{fill-rule:evenodd;clip-rule:evenodd;fill:#014422;}
	.st36{fill-rule:evenodd;clip-rule:evenodd;fill:#A58500;}
	.st37{fill-rule:evenodd;clip-rule:evenodd;fill:#FF7300;}
	.st38{fill:#000202;}
	.st39{fill:#005454;}
	.st40{fill:#AB5FBF;}
	.st41{fill:#51531C;}
	.st42{fill:#661B00;}
	.st43{fill:#001E3F;}
	.st44{fill:#C69400;}
	.st45{fill:#009AB0;}
	.st46{fill:#7F0058;}
	.st47{fill:#006060;}
	.st48{fill:#7500FF;}
	.st49{fill:#9CFF00;}
	.st50{fill:#2ECED8;}
	.st51{fill:#097EAF;}
	.st52{fill-rule:evenodd;clip-rule:evenodd;fill:#097EAF;}
	.st53{fill-rule:evenodd;clip-rule:evenodd;fill:#EA0A8C;}
	.st54{fill:#EBA116;}
	.st55{fill:#151F28;}
	.st56{fill:#36EEE0;}
	.st57{fill:#F652A0;}
	.st58{fill:#F7941E;}
	.st59{fill:#8DC63F;}
	.st60{fill:#FDB913;}
	.st61{fill:#25BDBE;}
	.st62{fill:#CD1223;}
	.st63{fill:#1C1D33;}
	.st64{fill-rule:evenodd;clip-rule:evenodd;fill:#CD1223;}
	.st65{fill:#1A1A1A;}
	.st66{fill:#1AC2EA;}
	.st67{fill:#59C0E4;}
	.st68{fill:#4DB3CE;}
	.st69{fill:#EE8561;}
	.st70{fill:#EABC54;}
	.st71{fill:#1660D6;}
	.st72{fill:#FF7950;}
	.st73{fill:#FFFFFF;}
	.st74{fill:#003889;}
	.st75{fill-rule:evenodd;clip-rule:evenodd;fill:#002551;}
	.st76{fill:#41A0F4;}
	.st77{fill:#F3AF0E;}
	.st78{fill:#F66C22;}
	.st79{fill:#011C34;}
	.st80{fill:#918300;}
	.st81{fill:#A95BFE;}
	.st82{fill:#101C42;}
	.st83{fill:#F5A530;}
	.st84{fill:#00BBDD;}
	.st85{fill:#FF8E27;}
	.st86{fill:#97C213;}
	.st87{fill:#F9A609;}
	.st88{fill:#006E99;}
	.st89{fill:url(#SVGID_1_);}
	
		.st90{fill:none;stroke:url(#SVGID_00000044160454869636441270000011862082578170461861_);stroke-width:5.4917;stroke-linecap:round;stroke-linejoin:round;stroke-miterlimit:10;}
	.st91{fill:url(#SVGID_00000018205860177154806130000006729599196914843038_);}
	.st92{fill:url(#SVGID_00000173123238140060419460000000773659128830998679_);}
	.st93{fill:#E16D56;}
	.st94{fill:#A03682;}
	.st95{fill:#A13682;}
	.st96{fill:#E87F45;}
	.st97{fill:url(#SVGID_00000012439128774517150220000013369655131684201917_);}
	.st98{fill:#15110E;}
	.st99{fill-rule:evenodd;clip-rule:evenodd;fill:#009894;}
	.st100{fill:url(#SVGID_00000026850230190995415890000011782528631117015197_);}
	.st101{fill:url(#SVGID_00000057844851281782070610000002430075569843285691_);}
	.st102{fill:url(#SVGID_00000106123816836066185420000010967073200109811348_);}
	.st103{fill:url(#SVGID_00000009574468807458913250000003143538973828572069_);}
	.st104{fill:#846100;}
	.st105{fill:url(#SVGID_00000013888919870870399920000013272875503452943031_);}
	.st106{fill-rule:evenodd;clip-rule:evenodd;fill:#336666;}
	.st107{fill-rule:evenodd;clip-rule:evenodd;fill:#FF6600;}
	.st108{fill:url(#SVGID_00000049923241135870460120000017943761402621258934_);}
	.st109{fill:url(#SVGID_00000096018078206081491530000005968999991034780806_);}
	.st110{fill:url(#SVGID_00000152264282707584366680000011604894462735776959_);}
	.st111{fill:url(#XMLID_00000069390374372486011910000015696970444926281636_);}
	.st112{fill:#F1CA24;}
	.st113{fill:#0676C5;}
	.st114{fill:#93D61F;}
	.st115{fill:#0A98E1;}
	.st116{fill:url(#SVGID_00000173868763245166614560000011196242223168959127_);}
	.st117{fill:#171615;}
	.st118{fill:#FEFEFE;}
	.st119{fill:#E0FF4F;}
	.st120{fill:url(#SVGID_00000082349423205569058290000000341454895782003095_);}
	.st121{fill:#42C130;}
	.st122{fill:#B3376C;}
	.st123{fill:#F6F6F6;}
	.st124{fill:url(#SVGID_00000003098586118024810850000002560062479680711871_);}
	.st125{fill:url(#SVGID_00000072254399593655606160000016803206388074061205_);}
	.st126{fill:#72CAE7;}
	.st127{fill:url(#SVGID_00000039845798718191544380000006609364418717092244_);}
	.st128{fill:url(#SVGID_00000023275366703547404420000006999968617611271559_);}
	.st129{fill:#63AF41;}
	.st130{fill:#115696;}
	.st131{fill:#0F94E1;}
	.st132{fill:#72D1F4;}
	.st133{fill:#C34832;}
	.st134{fill:#88BE61;}
	.st135{fill:#578EB0;}
	.st136{fill:#10A27E;}
	.st137{fill:#F77D49;}
	.st138{fill:#41ADB8;}
	.st139{fill:#F24837;}
	.st140{fill:#192537;}
	.st141{fill:#1470AB;}
	.st142{fill:#74C594;}
	.st143{fill:#80B43A;}
	.st144{fill:#05B2BA;}
	.st145{fill:#0F3462;}
	.st146{fill:#E8353F;}
	.st147{fill:#0E62A4;}
	.st148{fill:#28B1EE;}
	.st149{fill:#258DDF;}
	.st150{fill:#5EB631;}
	.st151{fill:#0A326F;}
	.st152{fill:url(#OBJECTS_00000159459959345037447370000011915724234643290033_);}
	.st153{fill:#2B2353;}
	.st154{fill:#1F9EF3;}
	.st155{fill:#91D9F8;}
	.st156{fill:#889FBE;}
	.st157{fill:url(#SVGID_00000132053280822624098290000013119213116474928519_);}
	.st158{fill:#F48680;}
	.st159{fill-rule:evenodd;clip-rule:evenodd;fill:#0093D2;}
	.st160{fill-rule:evenodd;clip-rule:evenodd;fill:#3F6B3B;}
	.st161{fill:#E7B81E;}
	.st162{fill:#D7972C;}
	.st163{fill:#233F4C;}
	.st164{fill:#20693A;}
	.st165{fill:#7CB032;}
	.st166{fill:#D7972D;}
	.st167{fill:#D8DE75;}
	.st168{fill:#E6EFCF;}
	.st169{fill:#2B8339;}
	.st170{fill:#80AD38;}
	.st171{fill:#D5A62D;}
	.st172{fill:#D3DF72;}
	.st173{fill:#558D4C;}
	.st174{fill:#D6E5ED;}
	.st175{fill:#F6E7B8;}
	.st176{fill:#EDF7E7;}
	.st177{fill:#F4F4F3;}
	.st178{fill:#D4E7EF;}
	.st179{fill:#F3F3E2;}
	.st180{fill:#DCE9DE;}
	.st181{fill:#0EB4A7;}
	.st182{fill:#9DE1E2;}
	.st183{fill:#44BFF4;}
	.st184{fill:#14437D;}
	.st185{fill:url(#SVGID_00000153667480191757077410000006562999289333814423_);}
	.st186{fill:url(#SVGID_00000165194901160645896740000013668833091413912503_);}
	.st187{fill:#0F8CF6;}
	.st188{fill-rule:evenodd;clip-rule:evenodd;fill:url(#SVGID_00000014606406742456998250000015972461743643062160_);}
	.st189{fill-rule:evenodd;clip-rule:evenodd;fill:url(#SVGID_00000026160567956306639120000001840283416127102877_);}
	.st190{fill:url(#SVGID_00000120530030928315957340000017874797838890867873_);}
	.st191{fill:url(#SVGID_00000147189125196857906360000005776385012383986561_);}
	.st192{fill:url(#SVGID_00000148645331288700793610000007965311342461175727_);}
	.st193{fill:url(#SVGID_00000113355295996539924040000013279399426795495851_);}
	.st194{fill:url(#SVGID_00000065789170934506197240000001381696423188469649_);}
	.st195{fill:url(#SVGID_00000145027160584700592270000004720811260056524452_);}
	.st196{fill:url(#SVGID_00000133526047527593440850000003064673696012390804_);}
</style>
<g id="Layer_1">
</g>
<g id="Layer_2">
</g>
<g id="Layer_3">
</g>
<g id="Layer_4">
</g>
<g id="Layer_5">
</g>
<g id="Layer_6">
</g>
<g id="Layer_7">
</g>
<g id="Layer_8">
</g>
<g id="Layer_9">
</g>
<g id="Layer_10">
</g>
<g id="Layer_11">
</g>
<g id="Layer_12">
</g>
<g id="Layer_13">
</g>
<g id="Layer_14">
</g>
<g id="Layer_15">
	<linearGradient id="SVGID_1_" gradientUnits="userSpaceOnUse" x1="110.47" y1="101.6948" x2="239.53" y2="101.6948">
		<stop  offset="0" style="stop-color:#03B2B3"/>
		<stop  offset="1" style="stop-color:#48F5FF"/>
	</linearGradient>
	<path class="st89" d="M154.28,134.52c-5.74-0.95-11.95-1.71-18.01-3.09c-4.57-1.03-5.53-2.8-3.72-7.14
		c3.52-8.4,7.42-16.65,11.36-24.87c3.24-6.75,6.89-13.31,10.08-20.08c0.8-1.69,1.05-3.97,0.71-5.82
		c-1.13-6.16-2.73-12.22-3.98-18.36c-0.6-2.94-1.83-4.57-5.15-4.39c-1.84,0.1-3.78-0.4-5.59-0.95c-4.35-1.32-5.07-4.45-1.84-7.58
		c0.49-0.47,1.01-0.95,1.61-1.25c11.26-5.71,23.28-8.17,35.82-8.19c1.42,0,2.95,0.63,4.24,1.32c2.13,1.15,3.03,3.16,1.23,5.03
		c-2.03,2.11-4.75,3.54-6.82,5.62c-1.12,1.13-2.32,3.14-2.07,4.5c1.24,6.83,2.8,13.6,4.57,20.31c0.44,1.65,1.86,3.28,3.24,4.41
		c11.73,9.53,23.66,18.82,35.33,28.42c6.92,5.7,6.85,7.57-0.19,13.09c-11.42,8.95-24.75,13.62-38.78,16.3
		C169.25,133.17,162.02,133.6,154.28,134.52z M152.55,41.09c-0.09-0.22-0.18-0.44-0.28-0.66c-1.29,0.24-2.77,0.17-3.83,0.8
		c-1.6,0.95-2.91,2.38-4.34,3.61c1.71,0.78,3.59,2.48,5.09,2.19c7.31-1.42,14.52-3.37,21.76-5.17c0.63-0.16,1.38-0.54,1.71-1.05
		c0.54-0.84,1.15-1.92,1.03-2.8c-0.08-0.59-1.41-1.43-2.16-1.4c-2.34,0.08-4.67,0.51-7.01,0.81c0,0.32,0,0.63,0,0.95
		c0.88,0.34,1.76,0.67,2.64,1.01c0.03,0.26,0.05,0.52,0.08,0.78c-5.63,1.23-11.26,2.47-16.89,3.7c-0.07-0.31-0.13-0.62-0.2-0.93
		C150.95,42.3,151.75,41.7,152.55,41.09z M157.08,97.85c7.04,0.87,21.54-5.99,22.79-10.41C171.67,89.25,164.2,92.12,157.08,97.85z
		 M185.98,169.51c20.6-4.31,39.19-23.25,38.06-37.64c-26.64,17.37-55.44,24.34-86.9,19.36
		C140.08,162.48,163.56,174.21,185.98,169.51z M152.21,146.96c-4.28-0.32-8.64-0.58-12.98-1c-3.56-0.34-6.89-1.57-10.68,0.33
		c-1.48,0.74-4.77-1.4-6.84-2.81c-1.91-1.29-3.08-3.63-4.94-5.04c-6.2-4.71-8.37-12.99-4.01-19.63c2.37-3.62,6.09-6.47,9.57-9.18
		c0.96-0.75,3.26,0.22,4.95,0.4c-0.63,1.55-0.91,3.42-1.97,4.57c-2.17,2.37-5.18,4.05-7.07,6.59c-2.87,3.86-2.11,9.04,1.49,11.72
		c1.23,0.91,3.45,1.29,4.95,0.89c3.72-1,6.25,0.05,8.53,3c0.95,1.23,2.58,2.5,4.03,2.68c30.23,3.72,58.29-2.32,83.65-19.45
		c3.88-2.62,7.36-6.15,10.22-9.87c4.53-5.9,2.21-12.48-4.9-14.86c-2.68-0.9-5.57-1.2-8.39-1.66c-2.14-0.35-4.6-0.89-3.91-3.47
		c0.33-1.24,2.95-2.63,4.53-2.62c5.65,0.04,11.07,1.14,15.54,5.15c5.53,4.96,7.55,12.84,3.21,18.78c-4.02,5.5-8.99,10.7-14.53,14.63
		c-17.21,12.18-37.01,17.57-57.71,19.98C160.74,146.55,156.51,146.66,152.21,146.96z M127.04,143.6c1.26-1.61,2.64-2.61,2.58-3.5
		c-0.07-0.9-1.46-2.13-2.47-2.37c-0.6-0.14-2.23,1.32-2.25,2.09C124.87,140.83,125.98,141.86,127.04,143.6z"/>
</g>
</svg>
