<?xml version="1.0" encoding="utf-8"?>
<!-- Generator: Adobe Illustrator 27.8.1, SVG Export Plug-In . SVG Version: 6.00 Build 0)  -->
<svg version="1.1" xmlns="http://www.w3.org/2000/svg" xmlns:xlink="http://www.w3.org/1999/xlink" x="0px" y="0px"
	 viewBox="0 0 350 230" style="enable-background:new 0 0 350 230;" xml:space="preserve">
<style type="text/css">
	.st0{fill:#FFF5CC;}
	.st1{fill:#FFFECF;}
	.st2{fill:#D3FFCF;}
	.st3{fill:#CFFFFD;}
	.st4{fill:#DEF7F9;}
	.st5{fill:#FFF5F8;}
	.st6{fill:#FFEACF;}
	.st7{fill:#F4F9E1;}
	.st8{fill:#FFEEE9;}
	.st9{fill:#FFFFCF;}
	.st10{fill:#FCD8AE;}
	.st11{fill:#F7F4E8;}
	.st12{fill:#FCF1E3;}
	.st13{fill:#FFECD9;}
	.st14{fill:#FCF6DB;}
	.st15{fill:#FFF3C0;}
	.st16{fill:#CCC8B8;}
	.st17{fill:#CECECE;}
	.st18{fill:#E5E1D1;}
	.st19{fill:#063766;}
	.st20{fill:#0E2848;}
	.st21{fill:#00D19E;}
	.st22{fill:#002389;}
	.st23{fill:#00079C;}
	.st24{fill:#7F4900;}
	.st25{fill:#014742;}
	.st26{fill:#0019FF;}
	.st27{fill:#00B3F9;}
	.st28{fill:#773000;}
	.st29{fill-rule:evenodd;clip-rule:evenodd;fill:#CD00FF;}
	.st30{fill-rule:evenodd;clip-rule:evenodd;fill:#FF9700;}
	.st31{fill:#450056;}
	.st32{fill:#70B208;}
	.st33{fill-rule:evenodd;clip-rule:evenodd;fill:#005CFF;}
	.st34{fill-rule:evenodd;clip-rule:evenodd;fill:#00FF73;}
	.st35{fill-rule:evenodd;clip-rule:evenodd;fill:#014422;}
	.st36{fill-rule:evenodd;clip-rule:evenodd;fill:#A58500;}
	.st37{fill-rule:evenodd;clip-rule:evenodd;fill:#FF7300;}
	.st38{fill:#000202;}
	.st39{fill:#005454;}
	.st40{fill:#AB5FBF;}
	.st41{fill:#51531C;}
	.st42{fill:#661B00;}
	.st43{fill:#001E3F;}
	.st44{fill:#C69400;}
	.st45{fill:#009AB0;}
	.st46{fill:#7F0058;}
	.st47{fill:#006060;}
	.st48{fill:#7500FF;}
	.st49{fill:#9CFF00;}
	.st50{fill:#2ECED8;}
	.st51{fill:#097EAF;}
	.st52{fill-rule:evenodd;clip-rule:evenodd;fill:#097EAF;}
	.st53{fill-rule:evenodd;clip-rule:evenodd;fill:#EA0A8C;}
	.st54{fill:#EBA116;}
	.st55{fill:#151F28;}
	.st56{fill:#36EEE0;}
	.st57{fill:#F652A0;}
	.st58{fill:#F7941E;}
	.st59{fill:#8DC63F;}
	.st60{fill:#FDB913;}
	.st61{fill:#25BDBE;}
	.st62{fill:#CD1223;}
	.st63{fill:#1C1D33;}
	.st64{fill-rule:evenodd;clip-rule:evenodd;fill:#CD1223;}
	.st65{fill:#1A1A1A;}
	.st66{fill:#1AC2EA;}
	.st67{fill:#59C0E4;}
	.st68{fill:#4DB3CE;}
	.st69{fill:#EE8561;}
	.st70{fill:#EABC54;}
	.st71{fill:#1660D6;}
	.st72{fill:#FF7950;}
	.st73{fill:#FFFFFF;}
	.st74{fill:#003889;}
	.st75{fill-rule:evenodd;clip-rule:evenodd;fill:#002551;}
	.st76{fill:#41A0F4;}
	.st77{fill:#F3AF0E;}
	.st78{fill:#F66C22;}
	.st79{fill:#011C34;}
	.st80{fill:#918300;}
	.st81{fill:#A95BFE;}
	.st82{fill:#101C42;}
	.st83{fill:#F5A530;}
	.st84{fill:#00BBDD;}
	.st85{fill:#FF8E27;}
	.st86{fill:#97C213;}
	.st87{fill:#F9A609;}
	.st88{fill:#006E99;}
	.st89{fill:url(#SVGID_1_);}
	
		.st90{fill:none;stroke:url(#SVGID_00000173133132099666495160000017762168717997239183_);stroke-width:5.4917;stroke-linecap:round;stroke-linejoin:round;stroke-miterlimit:10;}
	.st91{fill:url(#SVGID_00000183969003408638295700000013462597109765187723_);}
	.st92{fill:url(#SVGID_00000023267413301790579020000003410994942313423749_);}
	.st93{fill:#E16D56;}
	.st94{fill:#A03682;}
	.st95{fill:#A13682;}
	.st96{fill:#E87F45;}
	.st97{fill:url(#SVGID_00000148637609686269094960000015931923435403402407_);}
	.st98{fill:#15110E;}
	.st99{fill-rule:evenodd;clip-rule:evenodd;fill:#009894;}
	.st100{fill:url(#SVGID_00000168806531784661231520000015831709094796424883_);}
	.st101{fill:url(#SVGID_00000059282321655651820910000012572255940757011903_);}
	.st102{fill:url(#SVGID_00000036964114323334775370000004762839554520132026_);}
	.st103{fill:url(#SVGID_00000050640698359350389250000002264272422098710671_);}
	.st104{fill:#846100;}
	.st105{fill:url(#SVGID_00000167355224393522872050000016289435371851832743_);}
	.st106{fill-rule:evenodd;clip-rule:evenodd;fill:#336666;}
	.st107{fill-rule:evenodd;clip-rule:evenodd;fill:#FF6600;}
	.st108{fill:url(#SVGID_00000091714316619042752860000008308223343317749686_);}
	.st109{fill:url(#SVGID_00000084508310064483346520000010064607421214385039_);}
	.st110{fill:url(#SVGID_00000036231354938132052800000002954042604479060367_);}
	.st111{fill:url(#XMLID_00000047740248117462180050000015350642040242601869_);}
	.st112{fill:#F1CA24;}
	.st113{fill:#0676C5;}
	.st114{fill:#93D61F;}
	.st115{fill:#0A98E1;}
	.st116{fill:url(#SVGID_00000120550226525776716380000006192019336156428219_);}
	.st117{fill:#171615;}
	.st118{fill:#FEFEFE;}
	.st119{fill:#E0FF4F;}
	.st120{fill:url(#SVGID_00000162349628571109047890000012765238559108734866_);}
	.st121{fill:#42C130;}
	.st122{fill:#B3376C;}
	.st123{fill:#F6F6F6;}
	.st124{fill:url(#SVGID_00000173157208753639230190000018150629504741400992_);}
	.st125{fill:url(#SVGID_00000158013888997889219910000014832596702109564324_);}
	.st126{fill:#72CAE7;}
	.st127{fill:url(#SVGID_00000055675954260747391000000003962937101360419742_);}
	.st128{fill:url(#SVGID_00000000942722678148429220000016050949933692972442_);}
	.st129{fill:#63AF41;}
	.st130{fill:#115696;}
	.st131{fill:#0F94E1;}
	.st132{fill:#72D1F4;}
	.st133{fill:#C34832;}
	.st134{fill:#88BE61;}
	.st135{fill:#578EB0;}
	.st136{fill:#10A27E;}
	.st137{fill:#F77D49;}
	.st138{fill:#41ADB8;}
	.st139{fill:#F24837;}
	.st140{fill:#192537;}
	.st141{fill:#1470AB;}
	.st142{fill:#74C594;}
	.st143{fill:#80B43A;}
	.st144{fill:#05B2BA;}
	.st145{fill:#0F3462;}
	.st146{fill:#E8353F;}
	.st147{fill:#0E62A4;}
	.st148{fill:#28B1EE;}
	.st149{fill:#258DDF;}
	.st150{fill:#5EB631;}
	.st151{fill:#0A326F;}
	.st152{fill:url(#OBJECTS_00000039107023372403027980000003902686886386818965_);}
	.st153{fill:#2B2353;}
	.st154{fill:#1F9EF3;}
	.st155{fill:#91D9F8;}
	.st156{fill:#889FBE;}
	.st157{fill:url(#SVGID_00000083069052588742244200000004187046648609564069_);}
	.st158{fill:#F48680;}
	.st159{fill-rule:evenodd;clip-rule:evenodd;fill:#0093D2;}
	.st160{fill-rule:evenodd;clip-rule:evenodd;fill:#3F6B3B;}
	.st161{fill:#E7B81E;}
	.st162{fill:#D7972C;}
	.st163{fill:#233F4C;}
	.st164{fill:#20693A;}
	.st165{fill:#7CB032;}
	.st166{fill:#D7972D;}
	.st167{fill:#D8DE75;}
	.st168{fill:#E6EFCF;}
	.st169{fill:#2B8339;}
	.st170{fill:#80AD38;}
	.st171{fill:#D5A62D;}
	.st172{fill:#D3DF72;}
	.st173{fill:#558D4C;}
	.st174{fill:#D6E5ED;}
	.st175{fill:#F6E7B8;}
	.st176{fill:#EDF7E7;}
	.st177{fill:#F4F4F3;}
	.st178{fill:#D4E7EF;}
	.st179{fill:#F3F3E2;}
	.st180{fill:#DCE9DE;}
	.st181{fill:#0EB4A7;}
	.st182{fill:#9DE1E2;}
	.st183{fill:#44BFF4;}
	.st184{fill:#14437D;}
	.st185{fill:url(#SVGID_00000075163103866155538270000015338597298335051428_);}
	.st186{fill:url(#SVGID_00000160190441357749416800000012533123300870404270_);}
	.st187{fill:#0F8CF6;}
	.st188{fill-rule:evenodd;clip-rule:evenodd;fill:url(#SVGID_00000133523896943360477660000016583553843429767577_);}
	.st189{fill-rule:evenodd;clip-rule:evenodd;fill:url(#SVGID_00000036940254806594772150000005861519866943893135_);}
	.st190{fill:url(#SVGID_00000085215604348194735170000008812841505819327384_);}
	.st191{fill:url(#SVGID_00000080917748085561705770000014215588991250141868_);}
	.st192{fill:url(#SVGID_00000128454941845555771330000008318063481589248147_);}
	.st193{fill:url(#SVGID_00000026868063174125151300000004032104085555707780_);}
	.st194{fill:url(#SVGID_00000095326673725176110660000007045330522694221696_);}
	.st195{fill:url(#SVGID_00000096775275345233524490000003312946049173948032_);}
	.st196{fill:url(#SVGID_00000165206934518441089960000015357687405368299395_);}
</style>
<g id="Layer_1">
</g>
<g id="Layer_2">
</g>
<g id="Layer_3">
</g>
<g id="Layer_4">
</g>
<g id="Layer_5">
</g>
<g id="Layer_6">
</g>
<g id="Layer_7">
</g>
<g id="Layer_8">
</g>
<g id="Layer_9">
</g>
<g id="Layer_10">
</g>
<g id="Layer_11">
</g>
<g id="Layer_12">
</g>
<g id="Layer_13">
</g>
<g id="Layer_14">
</g>
<g id="Layer_15">
	<g id="XMLID_778_">
		<g id="XMLID_4065_">
			<linearGradient id="SVGID_1_" gradientUnits="userSpaceOnUse" x1="187.7128" y1="26.3674" x2="116.7548" y2="636.2273">
				<stop  offset="0" style="stop-color:#AAD160"/>
				<stop  offset="0.5" style="stop-color:#45B549"/>
				<stop  offset="1" style="stop-color:#1CA049"/>
			</linearGradient>
			<path class="st89" d="M208.64,24.84c0,1.76-1.43,3.18-3.18,3.18c-1.76,0-3.18-1.43-3.18-3.18c0-1.76,1.43-3.18,3.18-3.18
				C207.22,21.66,208.64,23.08,208.64,24.84z M167.21,37.63c-0.98,0-1.78,0.8-1.78,1.78c0,0.98,0.8,1.78,1.78,1.78
				c0.98,0,1.78-0.8,1.78-1.78C168.99,38.43,168.19,37.63,167.21,37.63z"/>
			
				<linearGradient id="SVGID_00000068660090446079351020000004086690077716041361_" gradientUnits="userSpaceOnUse" x1="206.5856" y1="-46.2637" x2="176.1843" y2="215.0249">
				<stop  offset="0" style="stop-color:#AAD160"/>
				<stop  offset="0.5" style="stop-color:#45B549"/>
				<stop  offset="1" style="stop-color:#1CA049"/>
			</linearGradient>
			<path style="fill:url(#SVGID_00000068660090446079351020000004086690077716041361_);" d="M218.08,87.91
				c-0.18,7.77-4.32,13.79-10.17,17.57c-3.4,2.2-7.16,3-11.16,2.56c-2.2-0.24-4.28-0.64-6.38-1.28c-2.15-0.66-4.45-1.12-6.67-0.54
				c-2.54,0.67-4.42,2.61-6.81,3.58c-2.69,1.1-5.78,0.28-8.43-0.57c-2.43-0.78-4.89-1.69-7.44-1.58c-2.22,0.09-4.56,1.19-5.58,3.1
				c0.42,0.44,0.81,0.91,1.17,1.4c2.62,3.58,3.5,8.16,5.79,11.97c2.2,3.67,5.64,6.48,9.41,8.52c8.31,4.48,18.51,5.3,27.44,2.21
				c8.92-3.09,16.43-10.05,20.19-18.71C223.2,107.5,221.92,96.54,218.08,87.91z M180.4,119.34c-0.57,0-1.04-0.46-1.04-1.04
				c0-0.57,0.46-1.04,1.04-1.04c0.57,0,1.04,0.46,1.04,1.04C181.44,118.88,180.98,119.34,180.4,119.34z M189.42,114.09
				c-0.98,0-1.78-0.8-1.78-1.78c0-0.98,0.8-1.78,1.78-1.78c0.98,0,1.78,0.8,1.78,1.78C191.2,113.29,190.4,114.09,189.42,114.09z
				 M196.18,97.25c0,0.82-0.67,1.49-1.49,1.49c-0.82,0-1.49-0.67-1.49-1.49c0-0.82,0.67-1.49,1.49-1.49
				C195.52,95.76,196.18,96.43,196.18,97.25z M169.76,97.25c0,1.41-1.14,2.55-2.55,2.55c-1.41,0-2.55-1.14-2.55-2.55
				c0-1.41,1.14-2.55,2.55-2.55C168.62,94.7,169.76,95.84,169.76,97.25z M187.64,88.62c0,0.59-0.48,1.07-1.07,1.07
				c-0.59,0-1.07-0.48-1.07-1.07c0-0.59,0.48-1.07,1.07-1.07C187.17,87.56,187.64,88.04,187.64,88.62z M183.51,100.89
				c0,1.14-0.93,2.07-2.07,2.07c-1.14,0-2.07-0.93-2.07-2.07c0-1.14,0.93-2.07,2.07-2.07C182.59,98.82,183.51,99.75,183.51,100.89z
				 M201.5,81.04c0,1.31-1.06,2.37-2.37,2.37s-2.37-1.06-2.37-2.37c0-1.31,1.06-2.37,2.37-2.37S201.5,79.74,201.5,81.04z
				 M180.4,78.67c0,1.76-1.43,3.18-3.18,3.18c-1.76,0-3.18-1.43-3.18-3.18c0-1.76,1.43-3.18,3.18-3.18
				C178.98,75.49,180.4,76.92,180.4,78.67z M191.2,70.03c0,0.98-0.8,1.78-1.78,1.78c-0.98,0-1.78-0.8-1.78-1.78
				c0-0.98,0.8-1.78,1.78-1.78C190.4,68.25,191.2,69.05,191.2,70.03z M184.8,64.11c0,1.24-1.01,2.25-2.25,2.25s-2.25-1.01-2.25-2.25
				c0-1.24,1.01-2.25,2.25-2.25S184.8,62.86,184.8,64.11z M195.11,56.44c0,1.83-1.48,3.32-3.32,3.32c-1.83,0-3.32-1.48-3.32-3.32
				c0-1.83,1.48-3.32,3.32-3.32C193.62,53.12,195.11,54.61,195.11,56.44z"/>
		</g>
		
			<linearGradient id="XMLID_00000063618564205594274140000017901931547881060241_" gradientUnits="userSpaceOnUse" x1="371.3131" y1="-179.1329" x2="105.1284" y2="230.0547">
			<stop  offset="0" style="stop-color:#35C3F2"/>
			<stop  offset="0.25" style="stop-color:#3F98D3"/>
			<stop  offset="0.5079" style="stop-color:#3C70B6"/>
			<stop  offset="0.75" style="stop-color:#3E64AE"/>
			<stop  offset="0.9683" style="stop-color:#3D64AE"/>
		</linearGradient>
		<path id="XMLID_4063_" style="fill:url(#XMLID_00000063618564205594274140000017901931547881060241_);" d="M151.72,145.06
			l-2.58,2.58l0.97,0.97l-24.32,24.32c-1.28,1.28-3.35,1.28-4.63,0l-3.55-3.55c-1.28-1.28-1.28-3.35,0-4.63l24.32-24.32l0.97,0.97
			l2.58-2.58l0-8.31l1.51-1.51l14.55,14.55l-1.51,1.51L151.72,145.06z M220.14,70.4c-6.21-6.21-13.78-10.23-21.75-12.06
			c-0.83,2.86-3.47,4.96-6.6,4.96c-0.81,0-1.58-0.14-2.3-0.4c-0.62-0.22-1.26,0.27-1.21,0.92l0,0.03c0.04,0.49,0.46,0.86,0.95,0.84
			c0.43-0.02,0.87,0.02,1.31,0.11c2.16,0.46,3.83,2.24,4.15,4.42c0.14,0.98,0.01,1.91-0.32,2.75c5.76,1.16,11.26,3.98,15.73,8.45
			c12.08,12.08,12.08,31.67,0,43.76c-12.08,12.08-31.67,12.08-43.76,0c-12.08-12.08-12.08-31.67,0-43.76
			c4.81-4.81,10.81-7.7,17.05-8.68c0.49-0.08,0.84-0.53,0.78-1.02l0-0.02c-0.06-0.5-0.51-0.89-1.02-0.83
			c-0.47,0.05-0.95,0.04-1.45-0.03c-2.63-0.38-4.69-2.54-4.94-5.19c-0.32-3.45,2.4-6.36,5.78-6.36c0.62,0,1.21,0.1,1.77,0.28
			c0.44,0.14,0.85-0.26,0.76-0.71c0-0.01-0.01-0.03-0.01-0.04c-0.06-0.3-0.33-0.51-0.63-0.48c-10.25,0.86-20.27,5.21-28.12,13.06
			c-17.62,17.62-17.62,46.2,0,63.82c17.62,17.62,46.2,17.62,63.82,0C237.76,116.6,237.76,88.03,220.14,70.4z"/>
	</g>
</g>
</svg>
