<?xml version="1.0" encoding="utf-8"?>
<!-- Generator: Adobe Illustrator 27.8.1, SVG Export Plug-In . SVG Version: 6.00 Build 0)  -->
<svg version="1.1" xmlns="http://www.w3.org/2000/svg" xmlns:xlink="http://www.w3.org/1999/xlink" x="0px" y="0px"
	 viewBox="0 0 350 230" style="enable-background:new 0 0 350 230;" xml:space="preserve">
<style type="text/css">
	.st0{fill:#FFF5CC;}
	.st1{fill:#FFFECF;}
	.st2{fill:#D3FFCF;}
	.st3{fill:#CFFFFD;}
	.st4{fill:#DEF7F9;}
	.st5{fill:#FFF5F8;}
	.st6{fill:#FFEACF;}
	.st7{fill:#F4F9E1;}
	.st8{fill:#FFEEE9;}
	.st9{fill:#FFFFCF;}
	.st10{fill:#FCD8AE;}
	.st11{fill:#F7F4E8;}
	.st12{fill:#FCF1E3;}
	.st13{fill:#FFECD9;}
	.st14{fill:#FCF6DB;}
	.st15{fill:#FFF3C0;}
	.st16{fill:#CCC8B8;}
	.st17{fill:#CECECE;}
	.st18{fill:#E5E1D1;}
	.st19{fill:#063766;}
	.st20{fill:#0E2848;}
	.st21{fill:#00D19E;}
	.st22{fill:#002389;}
	.st23{fill:#00079C;}
	.st24{fill:#7F4900;}
	.st25{fill:#014742;}
	.st26{fill:#0019FF;}
	.st27{fill:#00B3F9;}
	.st28{fill:#773000;}
	.st29{fill-rule:evenodd;clip-rule:evenodd;fill:#CD00FF;}
	.st30{fill-rule:evenodd;clip-rule:evenodd;fill:#FF9700;}
	.st31{fill:#450056;}
	.st32{fill:#70B208;}
	.st33{fill-rule:evenodd;clip-rule:evenodd;fill:#005CFF;}
	.st34{fill-rule:evenodd;clip-rule:evenodd;fill:#00FF73;}
	.st35{fill-rule:evenodd;clip-rule:evenodd;fill:#014422;}
	.st36{fill-rule:evenodd;clip-rule:evenodd;fill:#A58500;}
	.st37{fill-rule:evenodd;clip-rule:evenodd;fill:#FF7300;}
	.st38{fill:#000202;}
	.st39{fill:#005454;}
	.st40{fill:#AB5FBF;}
	.st41{fill:#51531C;}
	.st42{fill:#661B00;}
	.st43{fill:#001E3F;}
	.st44{fill:#C69400;}
	.st45{fill:#009AB0;}
	.st46{fill:#7F0058;}
	.st47{fill:#006060;}
	.st48{fill:#7500FF;}
	.st49{fill:#9CFF00;}
	.st50{fill:#2ECED8;}
	.st51{fill:#097EAF;}
	.st52{fill-rule:evenodd;clip-rule:evenodd;fill:#097EAF;}
	.st53{fill-rule:evenodd;clip-rule:evenodd;fill:#EA0A8C;}
	.st54{fill:#EBA116;}
	.st55{fill:#151F28;}
	.st56{fill:#36EEE0;}
	.st57{fill:#F652A0;}
	.st58{fill:#F7941E;}
	.st59{fill:#8DC63F;}
	.st60{fill:#FDB913;}
	.st61{fill:#25BDBE;}
	.st62{fill:#CD1223;}
	.st63{fill:#1C1D33;}
	.st64{fill-rule:evenodd;clip-rule:evenodd;fill:#CD1223;}
	.st65{fill:#1A1A1A;}
	.st66{fill:#1AC2EA;}
	.st67{fill:#59C0E4;}
	.st68{fill:#4DB3CE;}
	.st69{fill:#EE8561;}
	.st70{fill:#EABC54;}
	.st71{fill:#1660D6;}
	.st72{fill:#FF7950;}
	.st73{fill:#FFFFFF;}
	.st74{fill:#003889;}
	.st75{fill-rule:evenodd;clip-rule:evenodd;fill:#002551;}
	.st76{fill:#41A0F4;}
	.st77{fill:#F3AF0E;}
	.st78{fill:#F66C22;}
	.st79{fill:#011C34;}
	.st80{fill:#918300;}
	.st81{fill:#A95BFE;}
	.st82{fill:#101C42;}
	.st83{fill:#F5A530;}
	.st84{fill:#00BBDD;}
	.st85{fill:#FF8E27;}
	.st86{fill:#97C213;}
	.st87{fill:#F9A609;}
	.st88{fill:#006E99;}
	.st89{fill:url(#SVGID_1_);}
	
		.st90{fill:none;stroke:url(#SVGID_00000065755553346916939930000018033445530321748382_);stroke-width:5.4917;stroke-linecap:round;stroke-linejoin:round;stroke-miterlimit:10;}
	.st91{fill:url(#SVGID_00000182496687888093494530000001875621046361716143_);}
	.st92{fill:url(#SVGID_00000009579509356995219970000013510082928142527891_);}
	.st93{fill:#E16D56;}
	.st94{fill:#A03682;}
	.st95{fill:#A13682;}
	.st96{fill:#E87F45;}
	.st97{fill:url(#SVGID_00000111169809922878362450000016254784376540107668_);}
	.st98{fill:#15110E;}
	.st99{fill-rule:evenodd;clip-rule:evenodd;fill:#009894;}
	.st100{fill:url(#SVGID_00000027593918278140915200000012768178413904323257_);}
	.st101{fill:url(#SVGID_00000051347670560889527360000016389118977641513357_);}
	.st102{fill:url(#SVGID_00000152976328117636672180000006642212013197726099_);}
	.st103{fill:url(#SVGID_00000108297913138680995760000015980500644224624781_);}
	.st104{fill:#846100;}
	.st105{fill:url(#SVGID_00000073716878007126231390000012927422039207589812_);}
	.st106{fill-rule:evenodd;clip-rule:evenodd;fill:#336666;}
	.st107{fill-rule:evenodd;clip-rule:evenodd;fill:#FF6600;}
	.st108{fill:url(#SVGID_00000140702849927010067750000002607646822855486386_);}
	.st109{fill:url(#SVGID_00000153668070546539634790000005473261456960928903_);}
	.st110{fill:url(#SVGID_00000016777957035405226830000004636348539263857831_);}
	.st111{fill:url(#XMLID_00000043427913748579365880000003653197970439418266_);}
	.st112{fill:#F1CA24;}
	.st113{fill:#0676C5;}
	.st114{fill:#93D61F;}
	.st115{fill:#0A98E1;}
	.st116{fill:url(#SVGID_00000128468678099150006280000005034977471639263635_);}
	.st117{fill:#171615;}
	.st118{fill:#FEFEFE;}
	.st119{fill:#E0FF4F;}
	.st120{fill:url(#SVGID_00000083776906139972011260000011644586406147364530_);}
	.st121{fill:#42C130;}
	.st122{fill:#B3376C;}
	.st123{fill:#F6F6F6;}
	.st124{fill:url(#SVGID_00000115507614960820354350000006645494735223556002_);}
	.st125{fill:url(#SVGID_00000036212782260787492630000003800565915084760734_);}
	.st126{fill:#72CAE7;}
	.st127{fill:url(#SVGID_00000096782124524594479490000001259931448887883147_);}
	.st128{fill:url(#SVGID_00000041272598416805279470000015329909178814710435_);}
	.st129{fill:#63AF41;}
	.st130{fill:#115696;}
	.st131{fill:#0F94E1;}
	.st132{fill:#72D1F4;}
	.st133{fill:#C34832;}
	.st134{fill:#88BE61;}
	.st135{fill:#578EB0;}
	.st136{fill:#10A27E;}
	.st137{fill:#F77D49;}
	.st138{fill:#41ADB8;}
	.st139{fill:#F24837;}
	.st140{fill:#192537;}
	.st141{fill:#1470AB;}
	.st142{fill:#74C594;}
	.st143{fill:#80B43A;}
	.st144{fill:#05B2BA;}
	.st145{fill:#0F3462;}
	.st146{fill:#E8353F;}
	.st147{fill:#0E62A4;}
	.st148{fill:#28B1EE;}
	.st149{fill:#258DDF;}
	.st150{fill:#5EB631;}
	.st151{fill:#0A326F;}
	.st152{fill:url(#OBJECTS_00000134227466930883364380000007277952623104352702_);}
	.st153{fill:#2B2353;}
	.st154{fill:#1F9EF3;}
	.st155{fill:#91D9F8;}
	.st156{fill:#889FBE;}
	.st157{fill:url(#SVGID_00000119813804965305284220000017486785176872584075_);}
	.st158{fill:#F48680;}
	.st159{fill-rule:evenodd;clip-rule:evenodd;fill:#0093D2;}
	.st160{fill-rule:evenodd;clip-rule:evenodd;fill:#3F6B3B;}
	.st161{fill:#E7B81E;}
	.st162{fill:#D7972C;}
	.st163{fill:#233F4C;}
	.st164{fill:#20693A;}
	.st165{fill:#7CB032;}
	.st166{fill:#D7972D;}
	.st167{fill:#D8DE75;}
	.st168{fill:#E6EFCF;}
	.st169{fill:#2B8339;}
	.st170{fill:#80AD38;}
	.st171{fill:#D5A62D;}
	.st172{fill:#D3DF72;}
	.st173{fill:#558D4C;}
	.st174{fill:#D6E5ED;}
	.st175{fill:#F6E7B8;}
	.st176{fill:#EDF7E7;}
	.st177{fill:#F4F4F3;}
	.st178{fill:#D4E7EF;}
	.st179{fill:#F3F3E2;}
	.st180{fill:#DCE9DE;}
	.st181{fill:#0EB4A7;}
	.st182{fill:#9DE1E2;}
	.st183{fill:#44BFF4;}
	.st184{fill:#14437D;}
	.st185{fill:url(#SVGID_00000102533447451199012660000011221711102567489695_);}
	.st186{fill:url(#SVGID_00000089561107362979961390000003337371411797224377_);}
	.st187{fill:#0F8CF6;}
	.st188{fill-rule:evenodd;clip-rule:evenodd;fill:url(#SVGID_00000055672298889187976760000000485813941090734508_);}
	.st189{fill-rule:evenodd;clip-rule:evenodd;fill:url(#SVGID_00000078022255317197206840000016467520689409645704_);}
	.st190{fill:url(#SVGID_00000124875894954861318910000000571292093688824226_);}
	.st191{fill:url(#SVGID_00000129195293163143786270000009102235209018641043_);}
	.st192{fill:url(#SVGID_00000008867878171339104130000003500093210023110564_);}
	.st193{fill:url(#SVGID_00000173123528801627953410000001763711742291453325_);}
	.st194{fill:url(#SVGID_00000153695430834169551920000003313511166949603240_);}
	.st195{fill:url(#SVGID_00000176726167316583406270000014790125792795484041_);}
	.st196{fill:url(#SVGID_00000168083215549146956310000010083114441692874904_);}
</style>
<g id="Layer_1">
</g>
<g id="Layer_2">
</g>
<g id="Layer_3">
</g>
<g id="Layer_4">
</g>
<g id="Layer_5">
</g>
<g id="Layer_6">
</g>
<g id="Layer_7">
</g>
<g id="Layer_8">
</g>
<g id="Layer_9">
</g>
<g id="Layer_10">
</g>
<g id="Layer_11">
</g>
<g id="Layer_12">
</g>
<g id="Layer_13">
</g>
<g id="Layer_14">
</g>
<g id="Layer_15">
	<linearGradient id="SVGID_1_" gradientUnits="userSpaceOnUse" x1="105.8387" y1="98.8434" x2="244.1613" y2="98.8434">
		<stop  offset="0" style="stop-color:#03B2B3"/>
		<stop  offset="1" style="stop-color:#48F5FF"/>
	</linearGradient>
	<path class="st89" d="M242.15,156.25l-22.94-22.94c-1.39-1.39-3.23-2.06-5.06-2.01l-9.82-9.82c18.54-21.93,17.47-54.78-3.2-75.45
		c-21.8-21.8-57.14-21.8-78.94,0c-15.46,15.46-19.96,37.74-13.48,57.17c0.45,1.36,0.96,2.7,1.52,4.03l5.88-5.86l15.27-15.22
		l2.77-2.77l-2.77-2.77l-1.74-1.74c0.27-0.58,0.42-1.22,0.42-1.9c0-2.51-2.04-4.55-4.55-4.55c-2.51,0-4.55,2.03-4.55,4.55
		c0,2.51,2.03,4.55,4.55,4.55c0.38,0,0.75-0.05,1.1-0.14l2,2l-13.76,13.71c-0.9-3.67-1.37-7.51-1.37-11.46
		c0-26.61,21.57-48.19,48.18-48.19c26.61,0,48.19,21.58,48.19,48.19s-21.57,48.19-48.19,48.19c-3.39,0-6.7-0.35-9.9-1.02l13.1-13.15
		l2,2c-0.09,0.35-0.14,0.72-0.14,1.1c0,2.51,2.04,4.55,4.55,4.55c2.51,0,4.54-2.03,4.54-4.55c0-2.51-2.03-4.55-4.54-4.55
		c-0.68,0-1.32,0.15-1.9,0.42l-1.74-1.75l-2.77-2.77l-2.77,2.77l-14.74,14.79l-5.88,5.9c1.36,0.53,2.74,1,4.13,1.42
		c17.6,5.27,37.29,1.67,52.04-10.8l9.82,9.82c-0.05,1.82,0.61,3.66,2.01,5.06l22.94,22.94c2.69,2.69,7.05,2.69,9.74,0
		c0.07-0.07,0.12-0.14,0.19-0.21C244.83,163.08,244.77,158.87,242.15,156.25z M175.24,114.86L175.24,114.86l2.77-2.77l2.77-2.77
		l2.77-2.77l1.62-1.62c1.61,0.57,3.47,0.21,4.76-1.07c1.78-1.78,1.78-4.68,0-6.46c-1.78-1.78-4.68-1.78-6.46,0
		c-1.29,1.29-1.65,3.15-1.07,4.76l-1.62,1.62l-2.77,2.77l-2.77,2.77l-8.2-8.2l-1.81,1.81l-0.96,0.96l-24.62,24.62l-5.55,5.55
		c1.19,0.68,2.41,1.31,3.64,1.9l29.3-29.3L175.24,114.86z M188.17,62.84c1.61,0.57,3.48,0.21,4.76-1.07c1.79-1.78,1.79-4.67,0-6.46
		c-1.78-1.78-4.67-1.78-6.46,0c-1.29,1.29-1.65,3.15-1.07,4.77l-58.71,58.71l-5.34,5.34c0.28,0.29,0.55,0.57,0.83,0.85
		c0.65,0.65,1.3,1.27,1.97,1.88l5.34-5.34L188.17,62.84z M167.1,95.63l2.71,2.72l0.44,0.44l2.33,2.33l15.9-15.9
		c1.61,0.57,3.48,0.21,4.76-1.07c1.79-1.79,1.79-4.68,0-6.46c-1.78-1.78-4.68-1.78-6.46,0c-1.29,1.29-1.64,3.15-1.07,4.76
		l-13.13,13.14l-5.48-5.49l-34.2,34.2l-5.38,5.38c1.05,0.81,2.13,1.59,3.22,2.31l5.45-5.45L167.1,95.63z M144.35,83.97l0.96-0.96
		l1.81-1.81l-8.2-8.2l2.77-2.77l2.77-2.77l1.62-1.62c1.61,0.57,3.47,0.21,4.76-1.07c1.78-1.78,1.78-4.68,0-6.46
		c-1.78-1.78-4.68-1.78-6.46,0c-1.29,1.29-1.65,3.15-1.07,4.76l-1.62,1.62l-2.77,2.77l-2.77,2.77l-2.77,2.77v0l8.2,8.2l-23.98,23.98
		l-5.69,5.69c0.61,1.21,1.28,2.39,1.99,3.55l5.54-5.54L144.35,83.97z M158.15,81.14l-5.49-5.48l13.14-13.13
		c1.61,0.57,3.47,0.21,4.76-1.07c1.78-1.78,1.78-4.68,0-6.46c-1.79-1.79-4.68-1.79-6.46,0c-1.29,1.29-1.64,3.15-1.07,4.76
		l-15.9,15.9l2.33,2.33l0.44,0.44l2.72,2.71l-31.11,31.11l-5.44,5.44c0.75,1.07,1.55,2.12,2.39,3.14l5.37-5.37L158.15,81.14z"/>
</g>
</svg>
