<?xml version="1.0" encoding="utf-8"?>
<!-- Generator: Adobe Illustrator 27.8.1, SVG Export Plug-In . SVG Version: 6.00 Build 0)  -->
<svg version="1.1" xmlns="http://www.w3.org/2000/svg" xmlns:xlink="http://www.w3.org/1999/xlink" x="0px" y="0px"
	 viewBox="0 0 350 230" style="enable-background:new 0 0 350 230;" xml:space="preserve">
<style type="text/css">
	.st0{fill:#FFF5CC;}
	.st1{fill:#FFFECF;}
	.st2{fill:#D3FFCF;}
	.st3{fill:#CFFFFD;}
	.st4{fill:#DEF7F9;}
	.st5{fill:#FFF5F8;}
	.st6{fill:#FFEACF;}
	.st7{fill:#F4F9E1;}
	.st8{fill:#FFEEE9;}
	.st9{fill:#FFFFCF;}
	.st10{fill:#FCD8AE;}
	.st11{fill:#F7F4E8;}
	.st12{fill:#FCF1E3;}
	.st13{fill:#FFECD9;}
	.st14{fill:#FCF6DB;}
	.st15{fill:#FFF3C0;}
	.st16{fill:#CCC8B8;}
	.st17{fill:#CECECE;}
	.st18{fill:#E5E1D1;}
	.st19{fill:#063766;}
	.st20{fill:#0E2848;}
	.st21{fill:#00D19E;}
	.st22{fill:#002389;}
	.st23{fill:#00079C;}
	.st24{fill:#7F4900;}
	.st25{fill:#014742;}
	.st26{fill:#0019FF;}
	.st27{fill:#00B3F9;}
	.st28{fill:#773000;}
	.st29{fill-rule:evenodd;clip-rule:evenodd;fill:#CD00FF;}
	.st30{fill-rule:evenodd;clip-rule:evenodd;fill:#FF9700;}
	.st31{fill:#450056;}
	.st32{fill:#70B208;}
	.st33{fill-rule:evenodd;clip-rule:evenodd;fill:#005CFF;}
	.st34{fill-rule:evenodd;clip-rule:evenodd;fill:#00FF73;}
	.st35{fill-rule:evenodd;clip-rule:evenodd;fill:#014422;}
	.st36{fill-rule:evenodd;clip-rule:evenodd;fill:#A58500;}
	.st37{fill-rule:evenodd;clip-rule:evenodd;fill:#FF7300;}
	.st38{fill:#000202;}
	.st39{fill:#005454;}
	.st40{fill:#AB5FBF;}
	.st41{fill:#51531C;}
	.st42{fill:#661B00;}
	.st43{fill:#001E3F;}
	.st44{fill:#C69400;}
	.st45{fill:#009AB0;}
	.st46{fill:#7F0058;}
	.st47{fill:#006060;}
	.st48{fill:#7500FF;}
	.st49{fill:#9CFF00;}
	.st50{fill:#2ECED8;}
	.st51{fill:#097EAF;}
	.st52{fill-rule:evenodd;clip-rule:evenodd;fill:#097EAF;}
	.st53{fill-rule:evenodd;clip-rule:evenodd;fill:#EA0A8C;}
	.st54{fill:#EBA116;}
	.st55{fill:#151F28;}
	.st56{fill:#36EEE0;}
	.st57{fill:#F652A0;}
	.st58{fill:#F7941E;}
	.st59{fill:#8DC63F;}
	.st60{fill:#FDB913;}
	.st61{fill:#25BDBE;}
	.st62{fill:#CD1223;}
	.st63{fill:#1C1D33;}
	.st64{fill-rule:evenodd;clip-rule:evenodd;fill:#CD1223;}
	.st65{fill:#1A1A1A;}
	.st66{fill:#1AC2EA;}
	.st67{fill:#59C0E4;}
	.st68{fill:#4DB3CE;}
	.st69{fill:#EE8561;}
	.st70{fill:#EABC54;}
	.st71{fill:#1660D6;}
	.st72{fill:#FF7950;}
	.st73{fill:#FFFFFF;}
	.st74{fill:#003889;}
	.st75{fill-rule:evenodd;clip-rule:evenodd;fill:#002551;}
	.st76{fill:#41A0F4;}
	.st77{fill:#F3AF0E;}
	.st78{fill:#F66C22;}
	.st79{fill:#011C34;}
	.st80{fill:#918300;}
	.st81{fill:#A95BFE;}
	.st82{fill:#101C42;}
	.st83{fill:#F5A530;}
	.st84{fill:#00BBDD;}
	.st85{fill:#FF8E27;}
	.st86{fill:#97C213;}
	.st87{fill:#F9A609;}
	.st88{fill:#006E99;}
	.st89{fill:url(#SVGID_1_);}
	
		.st90{fill:none;stroke:url(#SVGID_00000057855252087243312670000017372307350220418734_);stroke-width:5.4917;stroke-linecap:round;stroke-linejoin:round;stroke-miterlimit:10;}
	.st91{fill:url(#SVGID_00000011006371398524269490000014737301389194817453_);}
	.st92{fill:url(#SVGID_00000014607063165543477460000003280861286710291599_);}
	.st93{fill:#E16D56;}
	.st94{fill:#A03682;}
	.st95{fill:#A13682;}
	.st96{fill:#E87F45;}
	.st97{fill:url(#SVGID_00000003063512639382867180000001136115746966338751_);}
	.st98{fill:#15110E;}
	.st99{fill-rule:evenodd;clip-rule:evenodd;fill:#009894;}
	.st100{fill:url(#SVGID_00000055704769590637811730000015148812648275621552_);}
	.st101{fill:url(#SVGID_00000110435333423699900220000014655104407491041439_);}
	.st102{fill:url(#SVGID_00000139260054383018789010000003951918395655899814_);}
	.st103{fill:url(#SVGID_00000093884393876940457770000004186604770967597961_);}
	.st104{fill:#846100;}
	.st105{fill:url(#SVGID_00000147200807844080097080000016367612831190172054_);}
	.st106{fill-rule:evenodd;clip-rule:evenodd;fill:#336666;}
	.st107{fill-rule:evenodd;clip-rule:evenodd;fill:#FF6600;}
	.st108{fill:url(#SVGID_00000095309891171548130880000009212656860521843111_);}
	.st109{fill:url(#SVGID_00000077298785600001163320000007240632553313357722_);}
	.st110{fill:url(#SVGID_00000020375563366626451300000009743321269546188673_);}
	.st111{fill:url(#XMLID_00000147186894366689445760000010115078258205914267_);}
	.st112{fill:#F1CA24;}
	.st113{fill:#0676C5;}
	.st114{fill:#93D61F;}
	.st115{fill:#0A98E1;}
	.st116{fill:url(#SVGID_00000013880081757483914690000016791583317477403830_);}
	.st117{fill:#171615;}
	.st118{fill:#FEFEFE;}
	.st119{fill:#E0FF4F;}
	.st120{fill:url(#SVGID_00000009556447337189677550000009286648777184433598_);}
	.st121{fill:#42C130;}
	.st122{fill:#B3376C;}
	.st123{fill:#F6F6F6;}
	.st124{fill:url(#SVGID_00000088846786497195584240000016180209677523570821_);}
	.st125{fill:url(#SVGID_00000098220677486441269830000009531482648161989772_);}
	.st126{fill:#72CAE7;}
	.st127{fill:url(#SVGID_00000004526111611680351860000001333980827593541522_);}
	.st128{fill:url(#SVGID_00000136403851273712968370000001916730280931622058_);}
	.st129{fill:#63AF41;}
	.st130{fill:#115696;}
	.st131{fill:#0F94E1;}
	.st132{fill:#72D1F4;}
	.st133{fill:#C34832;}
	.st134{fill:#88BE61;}
	.st135{fill:#578EB0;}
	.st136{fill:#10A27E;}
	.st137{fill:#F77D49;}
	.st138{fill:#41ADB8;}
	.st139{fill:#F24837;}
	.st140{fill:#192537;}
	.st141{fill:#1470AB;}
	.st142{fill:#74C594;}
	.st143{fill:#80B43A;}
	.st144{fill:#05B2BA;}
	.st145{fill:#0F3462;}
	.st146{fill:#E8353F;}
	.st147{fill:#0E62A4;}
	.st148{fill:#28B1EE;}
	.st149{fill:#258DDF;}
	.st150{fill:#5EB631;}
	.st151{fill:#0A326F;}
	.st152{fill:url(#OBJECTS_00000079487942809455083350000004499255476972485767_);}
	.st153{fill:#2B2353;}
	.st154{fill:#1F9EF3;}
	.st155{fill:#91D9F8;}
	.st156{fill:#889FBE;}
	.st157{fill:url(#SVGID_00000004513970167230255180000002354575254608822427_);}
	.st158{fill:#F48680;}
	.st159{fill-rule:evenodd;clip-rule:evenodd;fill:#0093D2;}
	.st160{fill-rule:evenodd;clip-rule:evenodd;fill:#3F6B3B;}
	.st161{fill:#E7B81E;}
	.st162{fill:#D7972C;}
	.st163{fill:#233F4C;}
	.st164{fill:#20693A;}
	.st165{fill:#7CB032;}
	.st166{fill:#D7972D;}
	.st167{fill:#D8DE75;}
	.st168{fill:#E6EFCF;}
	.st169{fill:#2B8339;}
	.st170{fill:#80AD38;}
	.st171{fill:#D5A62D;}
	.st172{fill:#D3DF72;}
	.st173{fill:#558D4C;}
	.st174{fill:#D6E5ED;}
	.st175{fill:#F6E7B8;}
	.st176{fill:#EDF7E7;}
	.st177{fill:#F4F4F3;}
	.st178{fill:#D4E7EF;}
	.st179{fill:#F3F3E2;}
	.st180{fill:#DCE9DE;}
	.st181{fill:#0EB4A7;}
	.st182{fill:#9DE1E2;}
	.st183{fill:#44BFF4;}
	.st184{fill:#14437D;}
	.st185{fill:url(#SVGID_00000069370952143207799610000003056073562082444726_);}
	.st186{fill:url(#SVGID_00000152957142883965151420000007879536647118147473_);}
	.st187{fill:#0F8CF6;}
	.st188{fill-rule:evenodd;clip-rule:evenodd;fill:url(#SVGID_00000166658089554107031040000017111415477991994241_);}
	.st189{fill-rule:evenodd;clip-rule:evenodd;fill:url(#SVGID_00000173156544018545709150000015779712715581411203_);}
	.st190{fill:url(#SVGID_00000093880100477049276980000003791746502840637099_);}
	.st191{fill:url(#SVGID_00000022554255231186138260000003463936837132626849_);}
	.st192{fill:url(#SVGID_00000178173683316873411210000010627506582660499363_);}
	.st193{fill:url(#SVGID_00000057867674020669776380000010657833245361445562_);}
	.st194{fill:url(#SVGID_00000020359266098886181430000016629171291641038779_);}
	.st195{fill:url(#SVGID_00000089556735621461056830000008526169877425154954_);}
	.st196{fill:url(#SVGID_00000178200645351514299290000006021093267070021270_);}
</style>
<g id="Layer_1">
</g>
<g id="Layer_2">
</g>
<g id="Layer_3">
</g>
<g id="Layer_4">
</g>
<g id="Layer_5">
</g>
<g id="Layer_6">
</g>
<g id="Layer_7">
</g>
<g id="Layer_8">
</g>
<g id="Layer_9">
</g>
<g id="Layer_10">
</g>
<g id="Layer_11">
</g>
<g id="Layer_12">
</g>
<g id="Layer_13">
</g>
<g id="Layer_14">
</g>
<g id="Layer_15">
	<g>
		<path class="st155" d="M175,152.17c-0.01,0-0.01,0-0.02,0c1.45,0,2.92-0.09,4.4-0.27C177.94,152.07,176.48,152.17,175,152.17
			L175,152.17z M170.58,151.89c-0.27-0.03-0.54-0.07-0.81-0.11c-12.37-1.79-22.92-10.25-27.5-21.69
			C146.98,141.73,157.71,150.29,170.58,151.89L170.58,151.89z M207.69,130.1c0.57-1.43,1.05-2.91,1.43-4.43l0.11-0.46
			c1-4.24,0.65-8.31-0.68-11.92c1.01,0.78,1.68,1.97,1.69,3.4v0.23C210.24,121.58,209.33,126.03,207.69,130.1L207.69,130.1z
			 M141.41,113.29c3.03-8.22,11.15-14.07,20.04-14.07c2.99,0,6.07,0.66,9.07,2.13c1.45,0.7,2.94,1.52,4.46,2.46
			c-0.01,0-0.01,0.01-0.02,0.01c-10.92,6.7-19.12,9.12-24.98,9.12c-1.59,0-3.01-0.18-4.26-0.5c-0.43-0.11-0.86-0.16-1.28-0.16
			C143.32,112.27,142.25,112.64,141.41,113.29L141.41,113.29z"/>
		<path class="st156" d="M174.98,152.17c-1.45,0-2.92-0.09-4.4-0.27c-12.87-1.6-23.61-10.17-28.31-21.8
			c-0.57-1.43-1.05-2.91-1.43-4.43l-0.11-0.46c-1-4.24-0.65-8.31,0.68-11.92c0.84-0.65,1.91-1.02,3.03-1.02
			c0.42,0,0.85,0.05,1.28,0.16c1.25,0.32,2.67,0.5,4.26,0.5c5.86,0,14.06-2.42,24.98-9.12c0.01,0,0.01-0.01,0.02-0.01
			c0.01,0,0.01,0.01,0.02,0.01c10.92,6.7,19.12,9.12,24.98,9.12c1.59,0,3.01-0.18,4.26-0.5c0.43-0.11,0.86-0.16,1.28-0.16
			c1.12,0,2.19,0.37,3.03,1.02c1.33,3.61,1.68,7.68,0.68,11.92l-0.11,0.46c-0.38,1.52-0.86,2.99-1.43,4.43
			c-4.7,11.63-15.44,20.19-28.31,21.8C177.9,152.08,176.43,152.17,174.98,152.17L174.98,152.17z"/>
		<linearGradient id="SVGID_1_" gradientUnits="userSpaceOnUse" x1="126.5826" y1="103.8094" x2="223.4174" y2="103.8094">
			<stop  offset="0" style="stop-color:#B5427E"/>
			<stop  offset="1" style="stop-color:#6E3281"/>
		</linearGradient>
		<path class="st89" d="M175,165.34c-26.7,0-48.42-21.72-48.42-48.42c0-16.92,8.75-32.44,23.04-41.23V52.82h-6.89V42.28h17.43v39.65
			l-2.81,1.48c-12.48,6.59-20.23,19.43-20.23,33.51c0,20.89,16.99,37.88,37.88,37.88c20.88,0,37.88-16.99,37.88-37.88
			c0-14.08-7.75-26.93-20.23-33.51l-2.81-1.48V42.28h16.9v10.54h-6.36v22.87c14.29,8.79,23.04,24.31,23.04,41.23
			C223.42,143.62,201.7,165.34,175,165.34L175,165.34z"/>
		<path class="st155" d="M177.54,81.76c-1.29,0-2.34-1.05-2.34-2.34c0-1.29,1.05-2.34,2.34-2.34s2.34,1.05,2.34,2.34
			C179.88,80.71,178.83,81.76,177.54,81.76L177.54,81.76z M176.27,52.45c0.7,0,1.27-0.57,1.27-1.27c0-0.7-0.57-1.27-1.27-1.27
			c-0.7,0-1.27,0.57-1.27,1.27C175,51.88,175.57,52.45,176.27,52.45L176.27,52.45z M170.8,44.31c3.23,0,5.85-2.62,5.85-5.85
			c0-3.23-2.62-5.85-5.85-5.85c-3.23,0-5.85,2.62-5.85,5.85C164.95,41.69,167.57,44.31,170.8,44.31L170.8,44.31z"/>
		<path class="st158" d="M174.96,152.17c-1.48,0-2.94-0.09-4.38-0.27c1.48,0.18,2.95,0.27,4.4,0.27
			C174.97,152.17,174.97,152.17,174.96,152.17L174.96,152.17z M179.38,151.89c12.87-1.6,23.61-10.17,28.31-21.8
			c-4.58,11.44-15.12,19.9-27.5,21.69C179.92,151.83,179.65,151.86,179.38,151.89L179.38,151.89z M142.27,130.1
			c-1.65-4.07-2.55-8.52-2.55-13.18v-0.23c0.01-1.43,0.68-2.62,1.69-3.4c-1.33,3.61-1.68,7.68-0.68,11.92l0.11,0.46
			C141.22,127.19,141.7,128.67,142.27,130.1L142.27,130.1z M208.55,113.29c-0.84-0.65-1.91-1.02-3.03-1.02
			c-0.42,0-0.85,0.05-1.28,0.16c-1.25,0.32-2.67,0.5-4.26,0.5c-5.86,0-14.06-2.42-24.98-9.12c-0.01,0-0.01-0.01-0.02-0.01
			c1.53-0.94,3.01-1.75,4.46-2.46c3-1.46,6.08-2.13,9.07-2.13C197.39,99.22,205.51,105.07,208.55,113.29L208.55,113.29z
			 M170.9,95.56c-2.37,0-4.3-1.93-4.3-4.3c0-2.37,1.93-4.3,4.3-4.3c2.38,0,4.3,1.92,4.3,4.3C175.2,93.64,173.27,95.56,170.9,95.56
			L170.9,95.56z M173.52,73.46c2.82,0,5.1-2.29,5.1-5.11c0-2.82-2.28-5.11-5.1-5.11c-2.82,0-5.11,2.29-5.11,5.11
			C168.41,71.18,170.7,73.46,173.52,73.46L173.52,73.46z M182.92,45.96c1.68,0,3.05-1.36,3.05-3.04c0-1.68-1.36-3.05-3.05-3.05
			c-1.68,0-3.05,1.37-3.05,3.05C179.88,44.6,181.24,45.96,182.92,45.96L182.92,45.96z"/>
	</g>
</g>
</svg>
