<?xml version="1.0" encoding="utf-8"?>
<!-- Generator: Adobe Illustrator 27.8.1, SVG Export Plug-In . SVG Version: 6.00 Build 0)  -->
<svg version="1.1" xmlns="http://www.w3.org/2000/svg" xmlns:xlink="http://www.w3.org/1999/xlink" x="0px" y="0px"
	 viewBox="0 0 350 230" style="enable-background:new 0 0 350 230;" xml:space="preserve">
<style type="text/css">
	.st0{fill:#FFF5CC;}
	.st1{fill:#FFFECF;}
	.st2{fill:#D3FFCF;}
	.st3{fill:#CFFFFD;}
	.st4{fill:#DEF7F9;}
	.st5{fill:#FFF5F8;}
	.st6{fill:#FFEACF;}
	.st7{fill:#F4F9E1;}
	.st8{fill:#FFEEE9;}
	.st9{fill:#FFFFCF;}
	.st10{fill:#FCD8AE;}
	.st11{fill:#F7F4E8;}
	.st12{fill:#FCF1E3;}
	.st13{fill:#FFECD9;}
	.st14{fill:#FCF6DB;}
	.st15{fill:#FFF3C0;}
	.st16{fill:#CCC8B8;}
	.st17{fill:#CECECE;}
	.st18{fill:#E5E1D1;}
	.st19{fill:#063766;}
	.st20{fill:#0E2848;}
	.st21{fill:#00D19E;}
	.st22{fill:#002389;}
	.st23{fill:#00079C;}
	.st24{fill:#7F4900;}
	.st25{fill:#014742;}
	.st26{fill:#0019FF;}
	.st27{fill:#00B3F9;}
	.st28{fill:#773000;}
	.st29{fill-rule:evenodd;clip-rule:evenodd;fill:#CD00FF;}
	.st30{fill-rule:evenodd;clip-rule:evenodd;fill:#FF9700;}
	.st31{fill:#450056;}
	.st32{fill:#70B208;}
	.st33{fill-rule:evenodd;clip-rule:evenodd;fill:#005CFF;}
	.st34{fill-rule:evenodd;clip-rule:evenodd;fill:#00FF73;}
	.st35{fill-rule:evenodd;clip-rule:evenodd;fill:#014422;}
	.st36{fill-rule:evenodd;clip-rule:evenodd;fill:#A58500;}
	.st37{fill-rule:evenodd;clip-rule:evenodd;fill:#FF7300;}
	.st38{fill:#000202;}
	.st39{fill:#005454;}
	.st40{fill:#AB5FBF;}
	.st41{fill:#51531C;}
	.st42{fill:#661B00;}
	.st43{fill:#001E3F;}
	.st44{fill:#C69400;}
	.st45{fill:#009AB0;}
	.st46{fill:#7F0058;}
	.st47{fill:#006060;}
	.st48{fill:#7500FF;}
	.st49{fill:#9CFF00;}
	.st50{fill:#2ECED8;}
	.st51{fill:#097EAF;}
	.st52{fill-rule:evenodd;clip-rule:evenodd;fill:#097EAF;}
	.st53{fill-rule:evenodd;clip-rule:evenodd;fill:#EA0A8C;}
	.st54{fill:#EBA116;}
	.st55{fill:#151F28;}
	.st56{fill:#36EEE0;}
	.st57{fill:#F652A0;}
	.st58{fill:#F7941E;}
	.st59{fill:#8DC63F;}
	.st60{fill:#FDB913;}
	.st61{fill:#25BDBE;}
	.st62{fill:#CD1223;}
	.st63{fill:#1C1D33;}
	.st64{fill-rule:evenodd;clip-rule:evenodd;fill:#CD1223;}
	.st65{fill:#1A1A1A;}
	.st66{fill:#1AC2EA;}
	.st67{fill:#59C0E4;}
	.st68{fill:#4DB3CE;}
	.st69{fill:#EE8561;}
	.st70{fill:#EABC54;}
	.st71{fill:#1660D6;}
	.st72{fill:#FF7950;}
	.st73{fill:#FFFFFF;}
	.st74{fill:#003889;}
	.st75{fill-rule:evenodd;clip-rule:evenodd;fill:#002551;}
	.st76{fill:#41A0F4;}
	.st77{fill:#F3AF0E;}
	.st78{fill:#F66C22;}
	.st79{fill:#011C34;}
	.st80{fill:#918300;}
	.st81{fill:#A95BFE;}
	.st82{fill:#101C42;}
	.st83{fill:#F5A530;}
	.st84{fill:#00BBDD;}
	.st85{fill:#FF8E27;}
	.st86{fill:#97C213;}
	.st87{fill:#F9A609;}
	.st88{fill:#006E99;}
	.st89{fill:url(#SVGID_1_);}
	
		.st90{fill:none;stroke:url(#SVGID_00000180363228595689628900000003272445584445138621_);stroke-width:5.4917;stroke-linecap:round;stroke-linejoin:round;stroke-miterlimit:10;}
	.st91{fill:url(#SVGID_00000018227215644357179250000000371862336198454965_);}
	.st92{fill:url(#SVGID_00000158726224157935305030000014431201551148658862_);}
	.st93{fill:#E16D56;}
	.st94{fill:#A03682;}
	.st95{fill:#A13682;}
	.st96{fill:#E87F45;}
	.st97{fill:url(#SVGID_00000160872636451327116290000012318364112234365589_);}
	.st98{fill:#15110E;}
	.st99{fill-rule:evenodd;clip-rule:evenodd;fill:#009894;}
	.st100{fill:url(#SVGID_00000183235636136931197230000008616562642956628114_);}
	.st101{fill:url(#SVGID_00000061452114972236699820000000755682138828254142_);}
	.st102{fill:url(#SVGID_00000075127644424084048230000014726060656604629927_);}
	.st103{fill:url(#SVGID_00000170971001836319706270000007036696720187250572_);}
	.st104{fill:#846100;}
	.st105{fill:url(#SVGID_00000083770136631990877110000002701655965598342790_);}
	.st106{fill-rule:evenodd;clip-rule:evenodd;fill:#336666;}
	.st107{fill-rule:evenodd;clip-rule:evenodd;fill:#FF6600;}
	.st108{fill:url(#SVGID_00000062158464113372358830000009408581702191639737_);}
	.st109{fill:url(#SVGID_00000180351801851961230520000016326709429148141745_);}
	.st110{fill:url(#SVGID_00000130637823530104081450000001186042448667554953_);}
	.st111{fill:url(#XMLID_00000086675207978806507200000013061587896049231031_);}
	.st112{fill:#F1CA24;}
	.st113{fill:#0676C5;}
	.st114{fill:#93D61F;}
	.st115{fill:#0A98E1;}
	.st116{fill:url(#SVGID_00000181062559091983935430000000096801088245410471_);}
	.st117{fill:#171615;}
	.st118{fill:#FEFEFE;}
	.st119{fill:#E0FF4F;}
	.st120{fill:url(#SVGID_00000160164041089695667860000014745021424255037859_);}
	.st121{fill:#42C130;}
	.st122{fill:#B3376C;}
	.st123{fill:#F6F6F6;}
	.st124{fill:url(#SVGID_00000102535442213349498200000008471069293351348400_);}
	.st125{fill:url(#SVGID_00000040546412259453728120000015738595807601490083_);}
	.st126{fill:#72CAE7;}
	.st127{fill:url(#SVGID_00000182493409514642531760000002728400749702420360_);}
	.st128{fill:url(#SVGID_00000084525060303356287510000006346856863582921346_);}
	.st129{fill:#63AF41;}
	.st130{fill:#115696;}
	.st131{fill:#0F94E1;}
	.st132{fill:#72D1F4;}
	.st133{fill:#C34832;}
	.st134{fill:#88BE61;}
	.st135{fill:#578EB0;}
	.st136{fill:#10A27E;}
	.st137{fill:#F77D49;}
	.st138{fill:#41ADB8;}
	.st139{fill:#F24837;}
	.st140{fill:#192537;}
	.st141{fill:#1470AB;}
	.st142{fill:#74C594;}
	.st143{fill:#80B43A;}
	.st144{fill:#05B2BA;}
	.st145{fill:#0F3462;}
	.st146{fill:#E8353F;}
	.st147{fill:#0E62A4;}
	.st148{fill:#28B1EE;}
	.st149{fill:#258DDF;}
	.st150{fill:#5EB631;}
	.st151{fill:#0A326F;}
	.st152{fill:url(#OBJECTS_00000132065060722506111530000004410688738941049017_);}
	.st153{fill:#2B2353;}
	.st154{fill:#1F9EF3;}
	.st155{fill:#91D9F8;}
	.st156{fill:#889FBE;}
	.st157{fill:url(#SVGID_00000027564922961034346610000015140444358802602414_);}
	.st158{fill:#F48680;}
	.st159{fill-rule:evenodd;clip-rule:evenodd;fill:#0093D2;}
	.st160{fill-rule:evenodd;clip-rule:evenodd;fill:#3F6B3B;}
	.st161{fill:#E7B81E;}
	.st162{fill:#D7972C;}
	.st163{fill:#233F4C;}
	.st164{fill:#20693A;}
	.st165{fill:#7CB032;}
	.st166{fill:#D7972D;}
	.st167{fill:#D8DE75;}
	.st168{fill:#E6EFCF;}
	.st169{fill:#2B8339;}
	.st170{fill:#80AD38;}
	.st171{fill:#D5A62D;}
	.st172{fill:#D3DF72;}
	.st173{fill:#558D4C;}
	.st174{fill:#D6E5ED;}
	.st175{fill:#F6E7B8;}
	.st176{fill:#EDF7E7;}
	.st177{fill:#F4F4F3;}
	.st178{fill:#D4E7EF;}
	.st179{fill:#F3F3E2;}
	.st180{fill:#DCE9DE;}
	.st181{fill:#0EB4A7;}
	.st182{fill:#9DE1E2;}
	.st183{fill:#44BFF4;}
	.st184{fill:#14437D;}
	.st185{fill:url(#SVGID_00000100356206361970179650000011855601564966195349_);}
	.st186{fill:url(#SVGID_00000029013978303498569210000003877628098425371326_);}
	.st187{fill:#0F8CF6;}
	.st188{fill-rule:evenodd;clip-rule:evenodd;fill:url(#SVGID_00000050631129989015397990000011238412171775298494_);}
	.st189{fill-rule:evenodd;clip-rule:evenodd;fill:url(#SVGID_00000140014852081118052330000012650549182149356453_);}
	.st190{fill:url(#SVGID_00000129200960778580975860000011830843220415640753_);}
	.st191{fill:url(#SVGID_00000113331561681047602290000011558992518531441036_);}
	.st192{fill:url(#SVGID_00000115485581656091159320000010224540309969514402_);}
	.st193{fill:url(#SVGID_00000160168625529045936090000000992427213271957427_);}
	.st194{fill:url(#SVGID_00000059291535876433081910000001369995232218870449_);}
	.st195{fill:url(#SVGID_00000091725607921725848520000004123115334444431251_);}
	.st196{fill:url(#SVGID_00000106835160159357744110000010496807034888595084_);}
</style>
<g id="Layer_1">
</g>
<g id="Layer_2">
</g>
<g id="Layer_3">
</g>
<g id="Layer_4">
</g>
<g id="Layer_5">
</g>
<g id="Layer_6">
</g>
<g id="Layer_7">
</g>
<g id="Layer_8">
</g>
<g id="Layer_9">
</g>
<g id="Layer_10">
</g>
<g id="Layer_11">
</g>
<g id="Layer_12">
</g>
<g id="Layer_13">
</g>
<g id="Layer_14">
</g>
<g id="Layer_15">
	<g id="XMLID_1_">
		<linearGradient id="SVGID_1_" gradientUnits="userSpaceOnUse" x1="175.001" y1="158.7714" x2="175.001" y2="40.7791">
			<stop  offset="0" style="stop-color:#BE1E2D"/>
			<stop  offset="0.25" style="stop-color:#EF4136"/>
			<stop  offset="1" style="stop-color:#F7941D"/>
		</linearGradient>
		<path class="st89" d="M158.13,40.78l12.25,27.97l45.76,34.21c0,0,6.01,6.01-3.47,15.02c-9.48,9.01-38.14,24.96-56.86,24.96
			s-14.79-7.4-14.1-11.56c0.69-4.16,8.09-51.31,8.09-51.31l-13.41-32.13v8.78h-12.94v93.15c0,0-0.69,8.9,8.9,8.9s94.19,0,94.19,0
			V56.96H172.7L158.13,40.78z"/>
		
			<linearGradient id="SVGID_00000014618940589432523080000013385373314642902445_" gradientUnits="userSpaceOnUse" x1="150.6111" y1="89.3232" x2="208.0583" y2="89.3232">
			<stop  offset="0" style="stop-color:#BFD730"/>
			<stop  offset="1" style="stop-color:#0DB14B"/>
		</linearGradient>
		<path style="fill:url(#SVGID_00000014618940589432523080000013385373314642902445_);" d="M164.95,82.84
			c4.15,0,7.51,3.36,7.51,7.51c0,4.15-3.36,7.51-7.51,7.51s-7.51-3.36-7.51-7.51C157.44,86.21,160.8,82.84,164.95,82.84z
			 M164.26,67.36c1.98,0,3.58,1.6,3.58,3.58s-1.6,3.58-3.58,3.58s-3.58-1.6-3.58-3.58S162.28,67.36,164.26,67.36z M155.01,53.26
			c2.36,0,4.28,1.91,4.28,4.28c0,2.36-1.91,4.28-4.28,4.28s-4.28-1.91-4.28-4.28C150.74,55.17,152.65,53.26,155.01,53.26z
			 M155.25,44.71c1.21,0,2.2,0.98,2.2,2.2c0,1.21-0.98,2.2-2.2,2.2c-1.21,0-2.2-0.98-2.2-2.2
			C153.05,45.69,154.03,44.71,155.25,44.71z M153.05,111.04l-2.31,17.33c0,0-1.62,6.93,6.7,5.32c8.32-1.62,41.37-11.56,50.62-24.04
			l-3.93-4.81c0,0-10.86,8.05-22.19,5.27C170.62,107.34,155.01,102.49,153.05,111.04z"/>
		<path class="st73" d="M156.3,46.46c0,0.71-0.58,1.29-1.29,1.29s-1.29-0.58-1.29-1.29c0-0.71,0.58-1.29,1.29-1.29
			C155.73,45.17,156.3,45.75,156.3,46.46z M157.15,56.32c0,1.35-1.09,2.45-2.45,2.45c-1.35,0-2.45-1.09-2.45-2.45
			c0-1.35,1.1-2.44,2.45-2.44C156.06,53.88,157.15,54.97,157.15,56.32z M165.83,69.68c0,1.11-0.9,2.01-2.01,2.01
			c-1.11,0-2.01-0.9-2.01-2.01s0.9-2.01,2.01-2.01C164.93,67.67,165.83,68.57,165.83,69.68z M166.21,87.78
			c0,1.79-1.45,3.24-3.24,3.24c-1.79,0-3.24-1.45-3.24-3.24c0-1.79,1.45-3.24,3.24-3.24C164.76,84.54,166.21,85.99,166.21,87.78z
			 M154.71,126.3c0,0,0.39-16.87,7.11-17.33c6.72-0.46,10.65,2.77,10.65,2.77S156.59,111.04,154.71,126.3z"/>
	</g>
</g>
</svg>
