<?xml version="1.0" encoding="utf-8"?>
<!-- Generator: Adobe Illustrator 27.8.1, SVG Export Plug-In . SVG Version: 6.00 Build 0)  -->
<svg version="1.1" xmlns="http://www.w3.org/2000/svg" xmlns:xlink="http://www.w3.org/1999/xlink" x="0px" y="0px"
	 viewBox="0 0 350 230" style="enable-background:new 0 0 350 230;" xml:space="preserve">
<style type="text/css">
	.st0{fill:#FFF5CC;}
	.st1{fill:#FFFECF;}
	.st2{fill:#D3FFCF;}
	.st3{fill:#CFFFFD;}
	.st4{fill:#DEF7F9;}
	.st5{fill:#FFF5F8;}
	.st6{fill:#FFEACF;}
	.st7{fill:#F4F9E1;}
	.st8{fill:#FFEEE9;}
	.st9{fill:#FFFFCF;}
	.st10{fill:#FCD8AE;}
	.st11{fill:#F7F4E8;}
	.st12{fill:#FCF1E3;}
	.st13{fill:#FFECD9;}
	.st14{fill:#FCF6DB;}
	.st15{fill:#FFF3C0;}
	.st16{fill:#CCC8B8;}
	.st17{fill:#CECECE;}
	.st18{fill:#E5E1D1;}
	.st19{fill:#063766;}
	.st20{fill:#0E2848;}
	.st21{fill:#00D19E;}
	.st22{fill:#002389;}
	.st23{fill:#00079C;}
	.st24{fill:#7F4900;}
	.st25{fill:#014742;}
	.st26{fill:#0019FF;}
	.st27{fill:#00B3F9;}
	.st28{fill:#773000;}
	.st29{fill-rule:evenodd;clip-rule:evenodd;fill:#CD00FF;}
	.st30{fill-rule:evenodd;clip-rule:evenodd;fill:#FF9700;}
	.st31{fill:#450056;}
	.st32{fill:#70B208;}
	.st33{fill-rule:evenodd;clip-rule:evenodd;fill:#005CFF;}
	.st34{fill-rule:evenodd;clip-rule:evenodd;fill:#00FF73;}
	.st35{fill-rule:evenodd;clip-rule:evenodd;fill:#014422;}
	.st36{fill-rule:evenodd;clip-rule:evenodd;fill:#A58500;}
	.st37{fill-rule:evenodd;clip-rule:evenodd;fill:#FF7300;}
	.st38{fill:#000202;}
	.st39{fill:#005454;}
	.st40{fill:#AB5FBF;}
	.st41{fill:#51531C;}
	.st42{fill:#661B00;}
	.st43{fill:#001E3F;}
	.st44{fill:#C69400;}
	.st45{fill:#009AB0;}
	.st46{fill:#7F0058;}
	.st47{fill:#006060;}
	.st48{fill:#7500FF;}
	.st49{fill:#9CFF00;}
	.st50{fill:#2ECED8;}
	.st51{fill:#097EAF;}
	.st52{fill-rule:evenodd;clip-rule:evenodd;fill:#097EAF;}
	.st53{fill-rule:evenodd;clip-rule:evenodd;fill:#EA0A8C;}
	.st54{fill:#EBA116;}
	.st55{fill:#151F28;}
	.st56{fill:#36EEE0;}
	.st57{fill:#F652A0;}
	.st58{fill:#F7941E;}
	.st59{fill:#8DC63F;}
	.st60{fill:#FDB913;}
	.st61{fill:#25BDBE;}
	.st62{fill:#CD1223;}
	.st63{fill:#1C1D33;}
	.st64{fill-rule:evenodd;clip-rule:evenodd;fill:#CD1223;}
	.st65{fill:#1A1A1A;}
	.st66{fill:#1AC2EA;}
	.st67{fill:#59C0E4;}
	.st68{fill:#4DB3CE;}
	.st69{fill:#EE8561;}
	.st70{fill:#EABC54;}
	.st71{fill:#1660D6;}
	.st72{fill:#FF7950;}
	.st73{fill:#FFFFFF;}
	.st74{fill:#003889;}
	.st75{fill-rule:evenodd;clip-rule:evenodd;fill:#002551;}
	.st76{fill:#41A0F4;}
	.st77{fill:#F3AF0E;}
	.st78{fill:#F66C22;}
	.st79{fill:#011C34;}
	.st80{fill:#918300;}
	.st81{fill:#A95BFE;}
	.st82{fill:#101C42;}
	.st83{fill:#F5A530;}
	.st84{fill:#00BBDD;}
	.st85{fill:#FF8E27;}
	.st86{fill:#97C213;}
	.st87{fill:#F9A609;}
	.st88{fill:#006E99;}
	.st89{fill:url(#SVGID_1_);}
	
		.st90{fill:none;stroke:url(#SVGID_00000121983362790892098040000012175357460981909910_);stroke-width:5.4917;stroke-linecap:round;stroke-linejoin:round;stroke-miterlimit:10;}
	.st91{fill:url(#SVGID_00000080926432250605296740000009490602361743962807_);}
	.st92{fill:url(#SVGID_00000041281127917062359660000000374181066986264494_);}
	.st93{fill:#E16D56;}
	.st94{fill:#A03682;}
	.st95{fill:#A13682;}
	.st96{fill:#E87F45;}
	.st97{fill:url(#SVGID_00000063630973449913013000000013520454793865644475_);}
	.st98{fill:#15110E;}
	.st99{fill-rule:evenodd;clip-rule:evenodd;fill:#009894;}
	.st100{fill:url(#SVGID_00000178904620159339178400000002094749426802094495_);}
	.st101{fill:url(#SVGID_00000027603579255914023130000008806070201674848418_);}
	.st102{fill:url(#SVGID_00000114033425644003251090000002230952620585284527_);}
	.st103{fill:url(#SVGID_00000134931479424793953980000015240293943694396572_);}
	.st104{fill:#846100;}
	.st105{fill:url(#SVGID_00000179637308686794667430000010968324605283084478_);}
	.st106{fill-rule:evenodd;clip-rule:evenodd;fill:#336666;}
	.st107{fill-rule:evenodd;clip-rule:evenodd;fill:#FF6600;}
	.st108{fill:url(#SVGID_00000011015397617942237360000007048623171991660201_);}
	.st109{fill:url(#SVGID_00000105419111856024534010000016476959267857169057_);}
	.st110{fill:url(#SVGID_00000039816230451603911460000002684646918337533584_);}
	.st111{fill:url(#XMLID_00000099648430462993047960000016146703695443417745_);}
	.st112{fill:#F1CA24;}
	.st113{fill:#0676C5;}
	.st114{fill:#93D61F;}
	.st115{fill:#0A98E1;}
	.st116{fill:url(#SVGID_00000172406717810679924460000015640378810824666029_);}
	.st117{fill:#171615;}
	.st118{fill:#FEFEFE;}
	.st119{fill:#E0FF4F;}
	.st120{fill:url(#SVGID_00000073679129196198835560000008864766720575087492_);}
	.st121{fill:#42C130;}
	.st122{fill:#B3376C;}
	.st123{fill:#F6F6F6;}
	.st124{fill:url(#SVGID_00000088843805010477709280000005142536440820737441_);}
	.st125{fill:url(#SVGID_00000145054314304409980180000011968812273998794146_);}
	.st126{fill:#72CAE7;}
	.st127{fill:url(#SVGID_00000127752732449877678590000001042245530221104014_);}
	.st128{fill:url(#SVGID_00000065076463899399338220000017713176127018068623_);}
	.st129{fill:#63AF41;}
	.st130{fill:#115696;}
	.st131{fill:#0F94E1;}
	.st132{fill:#72D1F4;}
	.st133{fill:#C34832;}
	.st134{fill:#88BE61;}
	.st135{fill:#578EB0;}
	.st136{fill:#10A27E;}
	.st137{fill:#F77D49;}
	.st138{fill:#41ADB8;}
	.st139{fill:#F24837;}
	.st140{fill:#192537;}
	.st141{fill:#1470AB;}
	.st142{fill:#74C594;}
	.st143{fill:#80B43A;}
	.st144{fill:#05B2BA;}
	.st145{fill:#0F3462;}
	.st146{fill:#E8353F;}
	.st147{fill:#0E62A4;}
	.st148{fill:#28B1EE;}
	.st149{fill:#258DDF;}
	.st150{fill:#5EB631;}
	.st151{fill:#0A326F;}
	.st152{fill:url(#OBJECTS_00000069383329880212668780000012632952055388912303_);}
	.st153{fill:#2B2353;}
	.st154{fill:#1F9EF3;}
	.st155{fill:#91D9F8;}
	.st156{fill:#889FBE;}
	.st157{fill:url(#SVGID_00000091004049294843933180000002170569034768145831_);}
	.st158{fill:#F48680;}
	.st159{fill-rule:evenodd;clip-rule:evenodd;fill:#0093D2;}
	.st160{fill-rule:evenodd;clip-rule:evenodd;fill:#3F6B3B;}
	.st161{fill:#E7B81E;}
	.st162{fill:#D7972C;}
	.st163{fill:#233F4C;}
	.st164{fill:#20693A;}
	.st165{fill:#7CB032;}
	.st166{fill:#D7972D;}
	.st167{fill:#D8DE75;}
	.st168{fill:#E6EFCF;}
	.st169{fill:#2B8339;}
	.st170{fill:#80AD38;}
	.st171{fill:#D5A62D;}
	.st172{fill:#D3DF72;}
	.st173{fill:#558D4C;}
	.st174{fill:#D6E5ED;}
	.st175{fill:#F6E7B8;}
	.st176{fill:#EDF7E7;}
	.st177{fill:#F4F4F3;}
	.st178{fill:#D4E7EF;}
	.st179{fill:#F3F3E2;}
	.st180{fill:#DCE9DE;}
	.st181{fill:#0EB4A7;}
	.st182{fill:#9DE1E2;}
	.st183{fill:#44BFF4;}
	.st184{fill:#14437D;}
	.st185{fill:url(#SVGID_00000175283348721552915900000015976452871674259076_);}
	.st186{fill:url(#SVGID_00000097485571004617703050000000646927962357029552_);}
	.st187{fill:#0F8CF6;}
	.st188{fill-rule:evenodd;clip-rule:evenodd;fill:url(#SVGID_00000021830790519721490280000015358823797735743152_);}
	.st189{fill-rule:evenodd;clip-rule:evenodd;fill:url(#SVGID_00000019651306237528622660000002893775849007184564_);}
	.st190{fill:url(#SVGID_00000125581111911318984230000003538394112056919736_);}
	.st191{fill:url(#SVGID_00000004539795219362905530000001963513910106458287_);}
	.st192{fill:url(#SVGID_00000052102434655836846700000003249887439023659966_);}
	.st193{fill:url(#SVGID_00000139983298626948185850000012768233721017559985_);}
	.st194{fill:url(#SVGID_00000078047165740187255980000011636313607108974517_);}
	.st195{fill:url(#SVGID_00000016786273795087667720000011767441876627386498_);}
	.st196{fill:url(#SVGID_00000109717741140424345730000011902249115740953777_);}
</style>
<g id="Layer_1">
</g>
<g id="Layer_2">
</g>
<g id="Layer_3">
</g>
<g id="Layer_4">
</g>
<g id="Layer_5">
</g>
<g id="Layer_6">
</g>
<g id="Layer_7">
</g>
<g id="Layer_8">
</g>
<g id="Layer_9">
</g>
<g id="Layer_10">
</g>
<g id="Layer_11">
</g>
<g id="Layer_12">
</g>
<g id="Layer_13">
</g>
<g id="Layer_14">
</g>
<g id="Layer_15">
	<g>
		<path class="st159" d="M140.22,94.67c5.57-7.43,13.46-13.01,22.61-15.66l0.16-0.05c1.29-0.38,2.15-1.52,2.15-2.86v-0.15V48.72
			v-0.21c0-1.64-1.34-2.98-2.98-2.98h-0.21h-8.46c-1.64,0-2.98,1.34-2.98,2.98v0.42c0,1.64,1.34,2.98,2.98,2.98h5.27v21.72
			c-9.51,3.27-17.71,9.34-23.62,17.22c-6.25,8.33-9.94,18.67-9.94,29.86c0,13.75,5.57,26.21,14.59,35.22
			c9.01,9.01,21.46,14.59,35.22,14.59c13.75,0,26.21-5.57,35.22-14.59c9.01-9.01,14.59-21.46,14.59-35.22
			c0-11.19-3.7-21.53-9.94-29.86c-5.91-7.88-14.11-13.95-23.62-17.22V51.91h5.27c1.64,0,2.98-1.34,2.98-2.98v-0.42
			c0-1.64-1.34-2.98-2.98-2.98h-8.46h-0.21c-1.64,0-2.98,1.34-2.98,2.98v0.21v27.23v0.15c0,1.35,0.86,2.49,2.15,2.86l0.16,0.05
			c9.15,2.65,17.04,8.23,22.61,15.66c5.43,7.24,8.65,16.26,8.65,26.05c0,11.99-4.86,22.85-12.72,30.71
			c-7.86,7.86-18.72,12.72-30.71,12.72c-11.99,0-22.85-4.86-30.71-12.72c-7.86-7.86-12.72-18.72-12.72-30.71
			C131.57,110.93,134.79,101.91,140.22,94.67"/>
		<path class="st160" d="M181.84,106.92c-1.81,0-3.28,1.47-3.28,3.28c0,1.81,1.47,3.28,3.28,3.28c1.81,0,3.28-1.47,3.28-3.28
			C185.12,108.39,183.65,106.92,181.84,106.92 M168.43,95.49c1.76,0,3.19-1.43,3.19-3.19c0-1.76-1.43-3.19-3.19-3.19
			c-1.76,0-3.19,1.43-3.19,3.19C165.25,94.06,166.67,95.49,168.43,95.49z M177.81,95.49c-0.62,0-1.13,0.5-1.13,1.12
			c0,0.62,0.5,1.13,1.13,1.13c0.62,0,1.12-0.5,1.12-1.13C178.93,95.99,178.43,95.49,177.81,95.49z M175.93,81.33
			c0,1.92,1.55,3.47,3.47,3.47c1.91,0,3.47-1.55,3.47-3.47c0-1.92-1.55-3.47-3.47-3.47C177.49,77.86,175.93,79.41,175.93,81.33z
			 M175.18,49.92c1.14,0,2.06-0.92,2.06-2.06c0-1.14-0.92-2.06-2.06-2.06c-1.14,0-2.06,0.92-2.06,2.06
			C173.12,49,174.04,49.92,175.18,49.92z M177.25,37.83c0,2.54,2.06,4.59,4.59,4.59c2.54,0,4.59-2.06,4.59-4.59
			c0-2.54-2.06-4.59-4.59-4.59C179.3,33.23,177.25,35.29,177.25,37.83z M173.68,59.11c0-1.04-0.84-1.88-1.87-1.88
			c-1.04,0-1.88,0.84-1.88,1.88c0,1.04,0.84,1.87,1.88,1.87C172.84,60.98,173.68,60.14,173.68,59.11z M167.03,30.98
			c0.67,0,1.22-0.55,1.22-1.22c0-0.67-0.55-1.22-1.22-1.22c-0.67,0-1.22,0.55-1.22,1.22C165.81,30.43,166.35,30.98,167.03,30.98z
			 M157.28,107.61l-5.21-3.64c-0.31,0.44-0.55,0.8-0.73,1.08c-0.22,0.34-0.44,0.71-0.68,1.13c-4.05,7.02-4.87,15.02-2.93,22.28
			l0.01,0c1.95,7.26,6.66,13.78,13.67,17.83l0.38,0.22l0.01,0c6.92,3.86,14.76,4.62,21.89,2.71c7.26-1.94,13.77-6.66,17.83-13.68
			l0.22-0.38l0-0.01c2.45-4.39,3.66-9.12,3.74-13.82c0.08-4.99-1.12-9.93-3.5-14.33l-3.17-5.88l-2.57,6.16
			c-5.28,12.64-10.11,14.34-14.32,12.58c-2.74-1.15-5.55-3.56-8.08-5.73c-4.6-3.95-8.5-7.3-12.72-4.51
			c-7.25,4.79,3.51,25.44,18.32,27.95c-12.28-3.95-17.09-14.51-13.53-21.81c0.94,0.75,2.3,1.92,3.8,3.2
			c2.89,2.48,6.11,5.25,9.76,6.77c6.27,2.62,12.95,1.76,19.25-9.07c0.28,1.5,0.41,3.03,0.39,4.56c-0.06,3.78-1.07,7.6-3.11,11.13
			l-0.01,0.02c-3.18,5.49-8.28,9.18-13.95,10.7c-5.68,1.52-11.94,0.87-17.45-2.3l-0.01-0.01c-5.5-3.18-9.19-8.27-10.7-13.94l0-0.01
			c-1.52-5.68-0.87-11.94,2.3-17.45c0.15-0.27,0.34-0.56,0.54-0.88C156.95,108.1,157.14,107.81,157.28,107.61z"/>
	</g>
</g>
</svg>
