<?xml version="1.0" encoding="utf-8"?>
<!-- Generator: Adobe Illustrator 27.8.1, SVG Export Plug-In . SVG Version: 6.00 Build 0)  -->
<svg version="1.1" xmlns="http://www.w3.org/2000/svg" xmlns:xlink="http://www.w3.org/1999/xlink" x="0px" y="0px"
	 viewBox="0 0 350 230" style="enable-background:new 0 0 350 230;" xml:space="preserve">
<style type="text/css">
	.st0{fill:#1C75BC;stroke:#F1F2F2;stroke-miterlimit:10;}
	.st1{fill:#FFFFFF;stroke:#F1F2F2;stroke-miterlimit:10;}
	.st2{fill:#FFC648;stroke:#F1F2F2;stroke-miterlimit:10;}
	.st3{fill:#32D3F3;}
	.st4{fill:#825300;}
	.st5{fill:#AF2300;}
	.st6{fill:#AE6529;}
	.st7{fill:#A09F47;}
	.st8{fill:#003D50;}
	.st9{fill:#821600;}
	.st10{fill:#660C02;}
	.st11{fill:#974200;}
	.st12{fill:#725200;}
	.st13{fill:#AA5B08;}
	.st14{fill:#2B3990;}
	.st15{fill:#877F00;}
	.st16{fill:#9F00FF;}
	.st17{fill:#15FF00;}
	.st18{fill:#8D6195;}
	.st19{fill:#FFBA7B;}
	.st20{fill:#40006D;}
	.st21{fill:#8FD6D8;}
	.st22{fill:#A27021;}
	.st23{fill:#BC8200;}
	.st24{fill-rule:evenodd;clip-rule:evenodd;fill:#00245E;}
	.st25{fill:#AF1900;}
	.st26{fill-rule:evenodd;clip-rule:evenodd;fill:#877F00;}
	.st27{fill-rule:evenodd;clip-rule:evenodd;}
	.st28{fill:#00F9FF;}
	.st29{fill:#FFC648;}
	.st30{fill:#1C75BC;}
	.st31{clip-path:url(#SVGID_00000052087782253408315750000011125162124810227613_);fill:#369694;}
	.st32{fill:#F4A64E;}
	.st33{fill-rule:evenodd;clip-rule:evenodd;fill:#974200;}
	.st34{fill-rule:evenodd;clip-rule:evenodd;fill:#901E2E;}
	.st35{fill-rule:evenodd;clip-rule:evenodd;fill:#002D00;}
	.st36{fill-rule:evenodd;clip-rule:evenodd;fill:#B1CFC7;}
	.st37{fill:#FFD747;}
	.st38{fill:#074C00;}
	.st39{fill:#012A3F;}
	.st40{fill-rule:evenodd;clip-rule:evenodd;fill:#00F9FF;}
</style>
<g id="Layer_1">
</g>
<g id="Layer_2">
</g>
<g id="Layer_3">
</g>
<g id="Layer_4">
</g>
<g id="Layer_5">
</g>
<g id="Layer_6">
</g>
<g id="Layer_7">
</g>
<g id="Layer_8">
</g>
<g id="Layer_9">
</g>
<g id="Layer_10">
</g>
<g id="Layer_11">
</g>
<g id="Layer_12">
</g>
<g id="Layer_13">
</g>
<g id="Layer_14">
</g>
<g id="Layer_15">
	<g>
		<path class="st27" d="M187.59,101.16h31.39V79.11h-32.56V51.6h-1.83C170.97,64.18,178.59,88.11,187.59,101.16 M179.4,51.6h-15.82
			v27.51h-32.56v22.05h32.56v79.15c1.96-2.12,3.81-4.23,5.49-6.26c5.03-6.08,8.55-11.44,10.98-17.73c2.43-6.29,3.77-13.5,3.22-20.12
			c-0.54-6.62-2.98-12.66-5.95-18.57c-2.98-5.91-6.5-11.69-8.76-17.85s-3.27-12.7-3.14-18.65c0.13-5.95,1.39-11.32,4.82-17.27
			C172.66,59.66,176.16,55.18,179.4,51.6"/>
		<path class="st40" d="M172,68.58c-2.14,29.25,11.4,32.71,22.93,50.71c-0.58-3.44-2.58-10.14-5.85-15.27
			c32.12,13.65,37.74,43.15,5.43,67.89c3.07-4.14,7.51-13.71,5.41-23.01c-2.06,17.88-18.21,27.85-33.57,33.7
			c0.09-0.07,0.16-0.15,0.24-0.23c1.92-2.08,3.79-4.21,5.6-6.39c4.75-5.74,8.78-11.59,11.47-18.57c2.58-6.67,4.01-14.31,3.42-21.46
			c-0.58-7.03-3.12-13.43-6.27-19.68c-2.91-5.78-6.38-11.45-8.62-17.53c-2.03-5.53-3.08-11.65-2.96-17.54
			C169.34,76.55,170.2,72.56,172,68.58 M208.59,31.59c-2.45-3.93-6.22-7.87-10.76-3.85c-3.89,3.43-5.99,2.56-9.16-1.13
			c-1.03-1.2-2.02-2.43-3.31-4.2c-5.55-7.6-4.89-7.25-13.19-12.45c-1.3,7.13,4.06,9.57,9.06,14.05c-5.86-3.14-6.47-3.33-10.17-8.19
			c-0.85,6.83,3.44,7.98,9.06,10.41c-6.13-0.41-6.78-1.08-10.17-5.48c0.32,6.49,3.19,8.48,9.55,8.87c-4.71,1.35-6.21,0.52-9.49-2.65
			c1.31,4.77,1.93,7.89,5.24,9.8c3.79,2.18,18.1-0.58,9.19,8.8c-3.63,3.82-6.49,9.84-8.15,13.6c4.94-7.84,7.92-8.43,15.73-11.23
			c4.57-1.63,6.74-3.29,8.55-7.29C202.21,37.05,201,28.56,208.59,31.59"/>
	</g>
</g>
</svg>
