<?xml version="1.0" encoding="utf-8"?>
<!-- Generator: Adobe Illustrator 27.8.1, SVG Export Plug-In . SVG Version: 6.00 Build 0)  -->
<svg version="1.1" xmlns="http://www.w3.org/2000/svg" xmlns:xlink="http://www.w3.org/1999/xlink" x="0px" y="0px"
	 viewBox="0 0 350 230" style="enable-background:new 0 0 350 230;" xml:space="preserve">
<style type="text/css">
	.st0{fill:#1C75BC;stroke:#F1F2F2;stroke-miterlimit:10;}
	.st1{fill:#FFFFFF;stroke:#F1F2F2;stroke-miterlimit:10;}
	.st2{fill:#FFC648;stroke:#F1F2F2;stroke-miterlimit:10;}
	.st3{fill:#32D3F3;}
	.st4{fill:#825300;}
	.st5{fill:#AF2300;}
	.st6{fill:#AE6529;}
	.st7{fill:#A09F47;}
	.st8{fill:#003D50;}
	.st9{fill:#821600;}
	.st10{fill:#660C02;}
	.st11{fill:#974200;}
	.st12{fill:#725200;}
	.st13{fill:#AA5B08;}
	.st14{fill:#2B3990;}
	.st15{fill:#877F00;}
	.st16{fill:#9F00FF;}
	.st17{fill:#15FF00;}
	.st18{fill:#8D6195;}
	.st19{fill:#FFBA7B;}
	.st20{fill:#40006D;}
	.st21{fill:#8FD6D8;}
	.st22{fill:#A27021;}
	.st23{fill:#BC8200;}
	.st24{fill-rule:evenodd;clip-rule:evenodd;fill:#00245E;}
	.st25{fill:#AF1900;}
	.st26{fill-rule:evenodd;clip-rule:evenodd;fill:#877F00;}
	.st27{fill-rule:evenodd;clip-rule:evenodd;}
	.st28{fill:#00F9FF;}
	.st29{fill:#FFC648;}
	.st30{fill:#1C75BC;}
	.st31{clip-path:url(#SVGID_00000106829981665178883480000013311154862939255968_);fill:#369694;}
	.st32{fill:#F4A64E;}
	.st33{fill-rule:evenodd;clip-rule:evenodd;fill:#974200;}
	.st34{fill-rule:evenodd;clip-rule:evenodd;fill:#901E2E;}
	.st35{fill-rule:evenodd;clip-rule:evenodd;fill:#002D00;}
	.st36{fill-rule:evenodd;clip-rule:evenodd;fill:#B1CFC7;}
	.st37{fill:#FFD747;}
	.st38{fill:#074C00;}
	.st39{fill:#012A3F;}
	.st40{fill-rule:evenodd;clip-rule:evenodd;fill:#00F9FF;}
</style>
<g id="Layer_1">
</g>
<g id="Layer_2">
</g>
<g id="Layer_3">
</g>
<g id="Layer_4">
</g>
<g id="Layer_5">
</g>
<g id="Layer_6">
</g>
<g id="Layer_7">
</g>
<g id="Layer_8">
</g>
<g id="Layer_9">
</g>
<g id="Layer_10">
</g>
<g id="Layer_11">
</g>
<g id="Layer_12">
</g>
<g id="Layer_13">
	<g>
		<path class="st23" d="M211.12,106.63c-0.66-0.11-1.2-0.46-1.58-0.94c-0.1-0.12-0.17-0.24-0.24-0.38
			c-0.07-0.13-0.12-0.26-0.17-0.41c-0.09-0.29-0.12-0.59-0.09-0.89c0.03-0.31,0.12-0.6,0.27-0.86c0.14-0.26,0.33-0.5,0.56-0.69
			c0.12-0.1,0.24-0.18,0.37-0.26c0.13-0.07,0.27-0.14,0.42-0.19c0.29-0.1,0.61-0.16,0.94-0.14c0.33,0.01,0.65,0.09,0.93,0.23
			c0.14,0.07,0.28,0.15,0.4,0.24c0.12,0.1,0.24,0.21,0.33,0.32c0.21,0.24,0.36,0.52,0.47,0.83c0.1,0.31,0.13,0.65,0.1,1
			c-0.04,0.35-0.14,0.67-0.3,0.96c-0.08,0.14-0.17,0.28-0.28,0.4c-0.1,0.12-0.22,0.23-0.34,0.33
			C212.42,106.57,211.78,106.74,211.12,106.63z M209.58,112.91c-0.63-0.21-1.12-0.65-1.41-1.18c-0.07-0.13-0.14-0.27-0.18-0.41
			c-0.05-0.14-0.08-0.29-0.1-0.43c-0.01-0.07-0.02-0.15-0.02-0.22c0-0.04,0-0.07,0-0.11c0-0.04,0-0.07,0-0.11
			c0.01-0.15,0.03-0.3,0.07-0.45c0.04-0.15,0.1-0.29,0.17-0.43c0.07-0.14,0.14-0.26,0.24-0.38c0.09-0.12,0.19-0.22,0.31-0.32
			c0.11-0.1,0.23-0.19,0.36-0.26c0.51-0.31,1.16-0.45,1.81-0.31s1.19,0.52,1.51,1.06c0.08,0.13,0.15,0.28,0.21,0.43
			c0.05,0.15,0.09,0.31,0.12,0.47c0.02,0.16,0.03,0.33,0.02,0.5c0,0.17-0.04,0.34-0.08,0.51c-0.05,0.17-0.11,0.33-0.18,0.48
			c-0.02,0.04-0.04,0.07-0.06,0.11s-0.04,0.07-0.07,0.11c-0.04,0.07-0.09,0.14-0.14,0.2c-0.1,0.13-0.21,0.25-0.33,0.35
			c-0.12,0.1-0.25,0.19-0.39,0.27C210.87,113.05,210.21,113.12,209.58,112.91z M207.05,118.85c-0.29-0.16-0.55-0.36-0.74-0.6
			c-0.1-0.12-0.19-0.24-0.26-0.38c-0.07-0.13-0.14-0.27-0.19-0.41c-0.1-0.29-0.15-0.58-0.14-0.88c0-0.3,0.07-0.59,0.2-0.88
			c0.12-0.29,0.3-0.53,0.52-0.73c0.21-0.2,0.47-0.36,0.75-0.48c0.14-0.05,0.29-0.1,0.43-0.13c0.15-0.03,0.3-0.05,0.46-0.05
			c0.31-0.01,0.63,0.04,0.94,0.16c0.31,0.12,0.58,0.29,0.81,0.51c0.12,0.11,0.21,0.23,0.3,0.36c0.09,0.13,0.16,0.26,0.22,0.41
			c0.12,0.29,0.18,0.61,0.17,0.93c-0.01,0.33-0.08,0.66-0.22,0.98c-0.15,0.32-0.35,0.59-0.59,0.81c-0.24,0.22-0.52,0.38-0.82,0.49
			c-0.15,0.05-0.3,0.09-0.45,0.11c-0.15,0.02-0.31,0.02-0.47,0.01C207.65,119.09,207.34,119,207.05,118.85z M203.59,124.3
			c-0.27-0.2-0.48-0.44-0.64-0.71c-0.16-0.27-0.27-0.56-0.32-0.86c-0.03-0.15-0.04-0.3-0.04-0.45s0.01-0.3,0.04-0.44
			c0.05-0.29,0.17-0.57,0.34-0.83s0.39-0.47,0.64-0.64c0.12-0.08,0.26-0.15,0.39-0.21c0.14-0.06,0.29-0.1,0.43-0.14
			c0.58-0.13,1.24-0.06,1.81,0.28c0.57,0.33,0.96,0.87,1.1,1.48c0.04,0.16,0.05,0.31,0.06,0.47c0,0.16-0.01,0.32-0.04,0.48
			c-0.05,0.32-0.19,0.64-0.38,0.93c-0.19,0.3-0.44,0.53-0.71,0.71c-0.14,0.09-0.28,0.17-0.43,0.22c-0.15,0.06-0.3,0.1-0.45,0.13
			c-0.31,0.05-0.63,0.05-0.93-0.02C204.15,124.64,203.86,124.5,203.59,124.3z M199.31,129.14c-0.46-0.48-0.69-1.1-0.7-1.7
			c0-0.15,0.01-0.3,0.03-0.45c0.02-0.14,0.06-0.29,0.11-0.43c0.1-0.28,0.26-0.54,0.47-0.77c0.21-0.22,0.46-0.4,0.73-0.52
			c0.14-0.06,0.28-0.11,0.43-0.14c0.14-0.03,0.29-0.06,0.44-0.07c0.3-0.02,0.61,0.02,0.9,0.11c0.3,0.1,0.58,0.24,0.84,0.45
			c0.26,0.21,0.46,0.46,0.6,0.74c0.14,0.28,0.22,0.58,0.24,0.9c0.01,0.16,0,0.31-0.02,0.48c-0.02,0.16-0.06,0.31-0.12,0.47
			c-0.11,0.31-0.28,0.6-0.52,0.86c-0.24,0.26-0.51,0.46-0.81,0.59c-0.15,0.07-0.31,0.12-0.46,0.15c-0.16,0.03-0.31,0.05-0.47,0.05
			C200.38,129.86,199.77,129.62,199.31,129.14z M194.3,133.22c-0.19-0.27-0.31-0.57-0.38-0.88c-0.03-0.15-0.05-0.31-0.06-0.46
			c0-0.07,0-0.15,0-0.23c0-0.07,0.01-0.15,0.02-0.23c0.04-0.3,0.14-0.58,0.28-0.84c0.14-0.26,0.33-0.5,0.58-0.68
			c0.24-0.19,0.52-0.33,0.81-0.4c0.07-0.02,0.14-0.03,0.21-0.05c0.07-0.01,0.15-0.02,0.22-0.03c0.14-0.01,0.3-0.01,0.45,0
			s0.3,0.05,0.45,0.09c0.15,0.04,0.29,0.1,0.43,0.17c0.28,0.14,0.54,0.33,0.76,0.58c0.22,0.25,0.38,0.53,0.48,0.83
			c0.05,0.15,0.08,0.31,0.1,0.46c0.02,0.16,0.02,0.31,0,0.47c-0.02,0.16-0.05,0.31-0.09,0.46c-0.02,0.08-0.05,0.15-0.08,0.23
			c-0.03,0.07-0.07,0.15-0.11,0.22c-0.16,0.29-0.38,0.55-0.65,0.76c-0.28,0.21-0.58,0.36-0.9,0.45c-0.32,0.08-0.64,0.1-0.95,0.05
			c-0.08-0.01-0.16-0.02-0.23-0.05c-0.07-0.02-0.15-0.04-0.22-0.07c-0.15-0.06-0.29-0.12-0.42-0.21
			C194.73,133.72,194.49,133.5,194.3,133.22z M188.71,136.46c-0.14-0.3-0.21-0.62-0.24-0.93c-0.02-0.31,0.02-0.62,0.11-0.91
			c0.09-0.29,0.23-0.55,0.41-0.78c0.09-0.12,0.19-0.23,0.31-0.32c0.06-0.05,0.12-0.1,0.18-0.14c0.06-0.05,0.12-0.09,0.19-0.12
			c0.14-0.07,0.28-0.14,0.42-0.18c0.07-0.02,0.14-0.04,0.21-0.05c0.07-0.02,0.15-0.03,0.22-0.04c0.3-0.03,0.6,0,0.89,0.07
			c0.58,0.15,1.12,0.52,1.48,1.09s0.45,1.21,0.29,1.83c-0.08,0.3-0.22,0.59-0.42,0.85c-0.05,0.06-0.1,0.13-0.16,0.19
			c-0.06,0.06-0.12,0.12-0.18,0.17c-0.13,0.11-0.27,0.21-0.43,0.29c-0.07,0.04-0.15,0.08-0.23,0.12s-0.16,0.06-0.24,0.09
			c-0.16,0.05-0.32,0.08-0.49,0.1c-0.32,0.04-0.64,0-0.95-0.1c-0.3-0.1-0.57-0.25-0.81-0.45
			C189.05,137.02,188.86,136.76,188.71,136.46z M182.68,138.75c-0.19-0.64-0.1-1.29,0.17-1.83c0.07-0.13,0.14-0.26,0.24-0.38
			c0.09-0.12,0.19-0.23,0.3-0.33c0.11-0.1,0.23-0.19,0.36-0.27c0.13-0.08,0.26-0.14,0.41-0.19c0.07-0.03,0.15-0.05,0.22-0.07
			c0.03-0.01,0.07-0.02,0.11-0.02c0.03,0,0.07-0.01,0.11-0.02c0.15-0.02,0.3-0.03,0.45-0.02c0.15,0.01,0.3,0.03,0.44,0.07
			c0.14,0.03,0.29,0.08,0.42,0.14c0.55,0.25,1.03,0.7,1.29,1.31s0.24,1.27-0.01,1.84c-0.07,0.14-0.14,0.29-0.24,0.41
			c-0.09,0.13-0.2,0.25-0.32,0.36c-0.12,0.11-0.25,0.21-0.4,0.3c-0.04,0.02-0.07,0.04-0.11,0.06c-0.04,0.02-0.08,0.04-0.12,0.06
			c-0.08,0.04-0.16,0.07-0.24,0.1c-0.17,0.06-0.33,0.1-0.5,0.12c-0.17,0.02-0.33,0.02-0.5,0.02c-0.17-0.01-0.32-0.04-0.48-0.08
			c-0.16-0.04-0.3-0.1-0.44-0.17C183.29,139.89,182.86,139.39,182.68,138.75z M176.34,140.04c-0.04-0.33-0.01-0.65,0.07-0.95
			c0.04-0.15,0.1-0.29,0.16-0.43c0.07-0.14,0.14-0.27,0.23-0.39c0.09-0.12,0.19-0.24,0.29-0.34c0.05-0.05,0.11-0.1,0.17-0.14
			c0.06-0.05,0.12-0.09,0.18-0.13c0.12-0.08,0.26-0.15,0.39-0.21c0.07-0.02,0.14-0.05,0.21-0.07c0.07-0.02,0.15-0.04,0.23-0.05
			c0.31-0.06,0.61-0.05,0.9,0.02c0.29,0.06,0.57,0.18,0.82,0.35c0.25,0.17,0.48,0.38,0.66,0.63s0.32,0.55,0.4,0.87
			c0.08,0.32,0.09,0.64,0.03,0.95c-0.05,0.31-0.17,0.61-0.34,0.87c-0.17,0.26-0.4,0.49-0.67,0.67c-0.27,0.18-0.59,0.31-0.93,0.37
			c-0.09,0.02-0.17,0.03-0.26,0.03c-0.08,0.01-0.17,0.01-0.25,0c-0.17,0-0.33-0.02-0.49-0.06c-0.08-0.02-0.16-0.04-0.24-0.07
			c-0.07-0.03-0.15-0.06-0.22-0.09c-0.14-0.07-0.28-0.15-0.41-0.24c-0.13-0.09-0.24-0.19-0.35-0.31c-0.1-0.12-0.2-0.24-0.28-0.38
			C176.49,140.67,176.38,140.37,176.34,140.04z M169.89,140.29c0.01-0.33,0.1-0.65,0.22-0.93c0.06-0.14,0.14-0.28,0.23-0.4
			c0.09-0.13,0.18-0.24,0.29-0.35c0.21-0.21,0.46-0.39,0.73-0.5c0.14-0.06,0.28-0.11,0.43-0.14c0.14-0.03,0.3-0.05,0.45-0.05
			c0.08,0,0.15,0,0.23,0.01c0.08,0.01,0.15,0.02,0.23,0.03c0.15,0.03,0.29,0.07,0.43,0.12c0.14,0.06,0.27,0.13,0.4,0.21
			c0.12,0.08,0.24,0.17,0.35,0.27c0.44,0.41,0.75,0.99,0.81,1.65c0.05,0.67-0.17,1.28-0.6,1.75c-0.1,0.12-0.22,0.22-0.35,0.31
			c-0.13,0.1-0.27,0.17-0.42,0.24c-0.15,0.07-0.31,0.12-0.47,0.16c-0.08,0.02-0.17,0.03-0.25,0.05c-0.09,0.01-0.17,0.01-0.26,0.02
			c-0.17,0-0.35-0.01-0.51-0.05c-0.17-0.03-0.32-0.07-0.48-0.14c-0.3-0.13-0.57-0.31-0.79-0.52c-0.11-0.11-0.21-0.24-0.3-0.37
			c-0.08-0.13-0.15-0.27-0.21-0.42C169.93,140.94,169.88,140.62,169.89,140.29z M163.48,139.52c0.13-0.65,0.51-1.19,1-1.55
			c0.24-0.17,0.52-0.31,0.81-0.38c0.14-0.04,0.29-0.06,0.44-0.07c0.15-0.01,0.3,0,0.46,0.02c0.15,0.02,0.3,0.06,0.44,0.11
			c0.14,0.05,0.28,0.11,0.4,0.19c0.13,0.07,0.25,0.17,0.36,0.26c0.11,0.1,0.21,0.21,0.31,0.33c0.37,0.47,0.58,1.09,0.53,1.76
			c-0.05,0.66-0.37,1.24-0.86,1.63c-0.12,0.1-0.26,0.18-0.4,0.25c-0.14,0.07-0.29,0.13-0.45,0.17c-0.16,0.04-0.32,0.07-0.49,0.08
			c-0.17,0.01-0.34,0-0.51-0.02c-0.18-0.02-0.34-0.06-0.5-0.12c-0.16-0.06-0.31-0.13-0.45-0.21c-0.28-0.17-0.52-0.39-0.7-0.64
			C163.49,140.81,163.35,140.17,163.48,139.52z M157.27,137.73c0.12-0.31,0.29-0.58,0.5-0.81c0.11-0.11,0.22-0.21,0.34-0.31
			c0.12-0.09,0.25-0.17,0.39-0.24c0.27-0.14,0.56-0.22,0.85-0.25c0.3-0.03,0.6,0,0.89,0.09c0.3,0.09,0.56,0.24,0.79,0.43
			c0.06,0.05,0.11,0.1,0.16,0.15c0.05,0.05,0.1,0.11,0.15,0.17c0.1,0.12,0.18,0.24,0.25,0.38c0.07,0.13,0.13,0.27,0.18,0.42
			c0.05,0.14,0.09,0.29,0.11,0.45c0.05,0.31,0.03,0.63-0.05,0.95s-0.22,0.62-0.41,0.86c-0.1,0.12-0.2,0.24-0.32,0.34
			c-0.12,0.1-0.25,0.19-0.38,0.26c-0.14,0.07-0.29,0.14-0.43,0.19c-0.08,0.02-0.16,0.05-0.24,0.06c-0.08,0.02-0.16,0.03-0.24,0.04
			c-0.32,0.03-0.66,0-1-0.1c-0.33-0.11-0.63-0.28-0.88-0.48c-0.24-0.21-0.44-0.48-0.58-0.75c-0.07-0.14-0.12-0.29-0.17-0.44
			c-0.04-0.15-0.06-0.31-0.07-0.47C157.11,138.35,157.16,138.04,157.27,137.73z M151.44,134.95c0.17-0.29,0.38-0.52,0.63-0.72
			c0.25-0.19,0.52-0.33,0.81-0.43c0.14-0.05,0.29-0.07,0.43-0.09c0.15-0.02,0.3-0.02,0.45-0.02c0.3,0.02,0.59,0.1,0.87,0.24
			c0.28,0.14,0.51,0.33,0.71,0.55c0.1,0.11,0.18,0.24,0.26,0.36c0.07,0.13,0.14,0.27,0.19,0.41c0.2,0.56,0.21,1.22-0.05,1.83
			s-0.75,1.06-1.34,1.27c-0.15,0.05-0.3,0.09-0.46,0.11c-0.16,0.02-0.32,0.03-0.48,0.02c-0.33-0.01-0.66-0.1-0.97-0.26
			c-0.31-0.15-0.58-0.37-0.79-0.62c-0.11-0.12-0.2-0.26-0.27-0.4c-0.08-0.14-0.14-0.29-0.18-0.44c-0.09-0.3-0.12-0.62-0.09-0.93
			C151.17,135.55,151.27,135.24,151.44,134.95z M146.13,131.28c0.42-0.52,1.01-0.82,1.6-0.9c0.6-0.09,1.21,0.04,1.71,0.4
			c0.25,0.19,0.45,0.41,0.61,0.66c0.08,0.13,0.14,0.26,0.19,0.4c0.05,0.14,0.09,0.28,0.12,0.43c0.05,0.3,0.05,0.61,0,0.91
			c-0.05,0.31-0.17,0.61-0.35,0.89c-0.18,0.28-0.4,0.52-0.67,0.69c-0.26,0.17-0.55,0.29-0.86,0.35c-0.16,0.03-0.31,0.04-0.48,0.04
			c-0.16,0-0.32-0.02-0.48-0.06c-0.32-0.07-0.64-0.2-0.92-0.41c-0.57-0.41-0.91-1.02-1-1.63
			C145.54,132.43,145.71,131.79,146.13,131.28z M141.47,126.8c0.25-0.22,0.53-0.38,0.82-0.48c0.29-0.1,0.59-0.15,0.9-0.14
			c0.3,0,0.59,0.06,0.87,0.18c0.28,0.11,0.53,0.27,0.75,0.5c0.22,0.22,0.38,0.47,0.5,0.75c0.11,0.28,0.17,0.57,0.17,0.87
			c0,0.15-0.01,0.31-0.03,0.45c-0.02,0.15-0.06,0.3-0.11,0.45c-0.1,0.29-0.26,0.57-0.49,0.82c-0.22,0.25-0.48,0.44-0.76,0.57
			c-0.14,0.07-0.29,0.12-0.45,0.15c-0.15,0.03-0.31,0.05-0.46,0.06c-0.31,0-0.63-0.05-0.94-0.17c-0.3-0.12-0.59-0.31-0.83-0.55
			c-0.24-0.25-0.43-0.54-0.55-0.84c-0.12-0.31-0.17-0.62-0.17-0.94c0.01-0.31,0.08-0.62,0.21-0.9S141.22,127.03,141.47,126.8z
			 M137.58,121.64c0.28-0.18,0.59-0.29,0.89-0.35c0.31-0.05,0.62-0.05,0.91,0c0.3,0.05,0.57,0.16,0.83,0.31
			c0.13,0.07,0.25,0.17,0.36,0.27c0.05,0.05,0.11,0.1,0.16,0.16s0.1,0.12,0.14,0.18c0.09,0.12,0.17,0.26,0.23,0.39
			c0.03,0.07,0.06,0.14,0.08,0.21c0.02,0.07,0.05,0.14,0.06,0.21c0.07,0.29,0.08,0.59,0.03,0.89c-0.08,0.59-0.38,1.18-0.9,1.6
			c-0.52,0.42-1.15,0.59-1.78,0.51c-0.31-0.05-0.61-0.15-0.89-0.32c-0.07-0.04-0.14-0.09-0.21-0.14c-0.07-0.05-0.13-0.1-0.19-0.16
			c-0.12-0.12-0.24-0.24-0.34-0.38c-0.05-0.07-0.1-0.14-0.14-0.22c-0.04-0.07-0.08-0.15-0.12-0.23c-0.07-0.15-0.12-0.31-0.15-0.47
			c-0.07-0.31-0.07-0.64-0.02-0.95c0.06-0.31,0.17-0.6,0.35-0.86C137.07,122.05,137.3,121.82,137.58,121.64z M134.58,115.93
			c0.61-0.26,1.27-0.25,1.83-0.05c0.07,0.02,0.14,0.05,0.21,0.08c0.07,0.03,0.14,0.07,0.2,0.1c0.13,0.07,0.25,0.16,0.36,0.26
			c0.11,0.1,0.21,0.2,0.31,0.32c0.1,0.12,0.18,0.24,0.25,0.38c0.07,0.14,0.12,0.28,0.16,0.43c0.04,0.14,0.07,0.29,0.07,0.44
			c0.01,0.15,0,0.3-0.02,0.45c-0.02,0.14-0.05,0.29-0.09,0.43c-0.18,0.57-0.57,1.11-1.15,1.44c-0.58,0.33-1.23,0.4-1.83,0.21
			c-0.15-0.05-0.3-0.11-0.44-0.19c-0.14-0.07-0.27-0.17-0.39-0.27c-0.13-0.1-0.24-0.22-0.35-0.36c-0.11-0.13-0.19-0.28-0.27-0.43
			c-0.08-0.16-0.14-0.32-0.19-0.48c-0.04-0.17-0.07-0.33-0.07-0.49c-0.01-0.17,0-0.33,0.02-0.48c0.01-0.08,0.02-0.16,0.04-0.23
			c0.02-0.08,0.05-0.15,0.07-0.23C133.52,116.67,133.96,116.19,134.58,115.93z M132.53,109.8c0.32-0.08,0.65-0.09,0.95-0.05
			c0.15,0.02,0.3,0.06,0.45,0.11c0.14,0.05,0.29,0.11,0.42,0.18c0.27,0.14,0.5,0.33,0.69,0.56c0.19,0.22,0.34,0.49,0.43,0.78
			c0.1,0.3,0.12,0.6,0.09,0.89c-0.03,0.3-0.11,0.59-0.25,0.86c-0.07,0.13-0.15,0.26-0.24,0.38c-0.09,0.12-0.19,0.24-0.31,0.34
			c-0.23,0.21-0.5,0.38-0.81,0.5c-0.31,0.12-0.63,0.17-0.95,0.15c-0.16-0.01-0.31-0.03-0.47-0.07c-0.15-0.04-0.29-0.1-0.43-0.17
			c-0.28-0.14-0.54-0.33-0.75-0.58c-0.21-0.25-0.38-0.55-0.48-0.88c-0.1-0.34-0.13-0.68-0.1-1c0.03-0.33,0.14-0.64,0.29-0.91
			c0.08-0.14,0.17-0.26,0.27-0.38c0.1-0.12,0.21-0.22,0.34-0.32C131.92,110.02,132.21,109.88,132.53,109.8z M131.51,103.42
			c0.66-0.05,1.28,0.16,1.76,0.53c0.06,0.05,0.12,0.1,0.17,0.15c0.05,0.05,0.11,0.1,0.16,0.16c0.1,0.11,0.19,0.23,0.26,0.36
			c0.07,0.13,0.14,0.26,0.19,0.4c0.05,0.14,0.09,0.29,0.11,0.44c0.02,0.16,0.03,0.31,0.02,0.46c-0.01,0.15-0.03,0.3-0.07,0.44
			c-0.04,0.14-0.09,0.29-0.16,0.42c-0.03,0.07-0.07,0.14-0.11,0.2c-0.04,0.07-0.08,0.13-0.12,0.19c-0.35,0.49-0.89,0.86-1.55,1
			c-0.65,0.13-1.29-0.01-1.81-0.38c-0.07-0.05-0.13-0.1-0.19-0.15c-0.06-0.05-0.12-0.11-0.17-0.17c-0.11-0.12-0.21-0.24-0.29-0.38
			c-0.09-0.14-0.16-0.29-0.21-0.45c-0.05-0.16-0.1-0.33-0.12-0.5c-0.02-0.17-0.03-0.35-0.02-0.51c0.01-0.17,0.05-0.33,0.09-0.49
			c0.04-0.16,0.1-0.31,0.17-0.45c0.03-0.07,0.07-0.14,0.12-0.2c0.04-0.07,0.09-0.13,0.14-0.19
			C130.27,103.8,130.84,103.47,131.51,103.42z M131.51,96.96c0.33,0.03,0.64,0.12,0.92,0.26c0.28,0.14,0.53,0.33,0.73,0.55
			c0.21,0.22,0.36,0.48,0.48,0.75c0.05,0.14,0.1,0.28,0.12,0.43c0.01,0.07,0.02,0.15,0.03,0.22c0,0.08,0.01,0.15,0.01,0.23
			c0,0.16-0.02,0.31-0.06,0.45c-0.02,0.07-0.04,0.14-0.06,0.21c-0.02,0.07-0.05,0.14-0.08,0.21c-0.12,0.27-0.29,0.52-0.51,0.73
			c-0.22,0.21-0.47,0.39-0.75,0.52c-0.28,0.13-0.59,0.21-0.93,0.22c-0.33,0.01-0.65-0.04-0.94-0.16c-0.29-0.12-0.56-0.29-0.78-0.51
			c-0.22-0.22-0.4-0.49-0.52-0.79c-0.03-0.07-0.06-0.15-0.08-0.23c-0.02-0.08-0.04-0.16-0.06-0.24c-0.03-0.17-0.04-0.33-0.04-0.51
			c0-0.09,0-0.17,0.02-0.26c0.01-0.09,0.03-0.17,0.05-0.25c0.04-0.17,0.1-0.32,0.16-0.47c0.13-0.29,0.33-0.56,0.56-0.77
			c0.23-0.21,0.5-0.37,0.8-0.48C130.85,96.98,131.18,96.94,131.51,96.96z M132.53,90.59c0.32,0.08,0.62,0.22,0.87,0.4
			c0.12,0.09,0.24,0.19,0.35,0.31c0.05,0.05,0.1,0.11,0.15,0.17c0.05,0.06,0.09,0.12,0.14,0.18c0.17,0.25,0.29,0.53,0.35,0.82
			c0.02,0.07,0.03,0.14,0.04,0.22c0.01,0.07,0.01,0.15,0.02,0.22c0,0.15-0.01,0.3-0.04,0.45c-0.11,0.61-0.47,1.12-0.95,1.47
			c-0.24,0.18-0.52,0.31-0.83,0.39s-0.62,0.11-0.95,0.07c-0.33-0.04-0.64-0.14-0.91-0.31c-0.27-0.16-0.5-0.37-0.69-0.63
			c-0.38-0.5-0.54-1.18-0.42-1.87c0.03-0.17,0.08-0.34,0.14-0.5c0.03-0.07,0.07-0.15,0.1-0.23c0.04-0.07,0.08-0.14,0.13-0.21
			c0.18-0.27,0.41-0.5,0.67-0.67c0.07-0.05,0.13-0.08,0.2-0.12c0.07-0.04,0.14-0.07,0.21-0.1c0.15-0.06,0.3-0.1,0.45-0.13
			C131.89,90.5,132.21,90.51,132.53,90.59z M134.58,84.46c0.31,0.13,0.57,0.31,0.79,0.54c0.22,0.22,0.4,0.48,0.52,0.75
			c0.06,0.14,0.11,0.28,0.14,0.42c0.03,0.14,0.06,0.29,0.07,0.44c0.02,0.3-0.02,0.59-0.13,0.89c-0.21,0.58-0.63,1.03-1.18,1.3
			c-0.53,0.27-1.19,0.36-1.83,0.17c-0.64-0.19-1.14-0.61-1.43-1.18c-0.28-0.56-0.34-1.25-0.1-1.91c0.11-0.33,0.3-0.62,0.52-0.86
			c0.11-0.12,0.23-0.23,0.36-0.32c0.13-0.09,0.27-0.17,0.41-0.23c0.29-0.13,0.59-0.2,0.91-0.2
			C133.95,84.27,134.27,84.33,134.58,84.46z M137.58,78.74c0.56,0.36,0.93,0.9,1.08,1.48c0.16,0.58,0.1,1.2-0.19,1.74
			c-0.15,0.27-0.35,0.5-0.58,0.68c-0.12,0.1-0.24,0.17-0.38,0.24c-0.13,0.07-0.27,0.13-0.41,0.17c-0.29,0.09-0.59,0.12-0.91,0.11
			c-0.31-0.02-0.62-0.1-0.92-0.24c-0.3-0.14-0.56-0.34-0.76-0.58c-0.21-0.24-0.36-0.51-0.45-0.81c-0.05-0.15-0.08-0.31-0.1-0.47
			c-0.02-0.16-0.02-0.32,0-0.48c0.04-0.33,0.13-0.66,0.3-0.96c0.34-0.62,0.9-1.03,1.5-1.19C136.37,78.3,137.03,78.39,137.58,78.74z
			 M141.47,73.58c0.25,0.22,0.44,0.48,0.58,0.76c0.07,0.14,0.12,0.28,0.17,0.43c0.04,0.14,0.07,0.3,0.09,0.45
			c0.03,0.3,0.01,0.6-0.07,0.88c-0.08,0.29-0.21,0.56-0.4,0.81c-0.19,0.24-0.42,0.44-0.69,0.58c-0.26,0.15-0.54,0.24-0.84,0.28
			s-0.61,0.03-0.91-0.04c-0.31-0.07-0.6-0.19-0.88-0.38s-0.5-0.43-0.66-0.69c-0.17-0.26-0.28-0.57-0.32-0.88
			c-0.04-0.31-0.02-0.63,0.06-0.95c0.08-0.31,0.24-0.62,0.45-0.9c0.22-0.27,0.48-0.49,0.77-0.65c0.29-0.15,0.6-0.25,0.91-0.28
			c0.16-0.02,0.31-0.02,0.47,0c0.16,0.02,0.31,0.05,0.46,0.1C140.94,73.2,141.22,73.36,141.47,73.58z M146.13,69.11
			c0.21,0.26,0.36,0.54,0.45,0.84c0.09,0.3,0.13,0.61,0.11,0.91c-0.01,0.15-0.03,0.3-0.07,0.44c-0.01,0.04-0.02,0.07-0.03,0.11
			c-0.01,0.03-0.02,0.07-0.03,0.11c-0.02,0.07-0.05,0.14-0.08,0.21c-0.06,0.14-0.14,0.26-0.22,0.39c-0.05,0.06-0.1,0.12-0.14,0.17
			s-0.1,0.12-0.16,0.17c-0.11,0.11-0.24,0.2-0.36,0.28c-0.07,0.04-0.13,0.07-0.2,0.1c-0.07,0.03-0.14,0.06-0.21,0.09
			c-0.28,0.1-0.58,0.14-0.88,0.14c-0.59-0.01-1.21-0.24-1.69-0.7c-0.48-0.46-0.72-1.07-0.71-1.7c0-0.31,0.07-0.63,0.21-0.93
			c0.03-0.07,0.07-0.15,0.11-0.22c0.04-0.07,0.09-0.14,0.14-0.21c0.1-0.14,0.21-0.26,0.34-0.38c0.07-0.06,0.13-0.12,0.2-0.17
			c0.07-0.05,0.14-0.1,0.21-0.14c0.14-0.09,0.29-0.16,0.45-0.21c0.08-0.03,0.16-0.05,0.23-0.07c0.04-0.01,0.08-0.02,0.12-0.03
			c0.04,0,0.08-0.01,0.12-0.02c0.16-0.02,0.32-0.02,0.48-0.02c0.31,0.02,0.62,0.1,0.9,0.24C145.66,68.65,145.92,68.85,146.13,69.11z
			 M151.44,65.43c0.33,0.58,0.4,1.23,0.27,1.82c-0.02,0.07-0.04,0.14-0.06,0.21c-0.02,0.07-0.05,0.14-0.08,0.21
			c-0.06,0.14-0.12,0.27-0.21,0.39s-0.18,0.24-0.29,0.35c-0.1,0.11-0.22,0.2-0.35,0.29c-0.13,0.09-0.27,0.15-0.41,0.21
			c-0.14,0.06-0.28,0.1-0.43,0.12c-0.14,0.03-0.29,0.04-0.45,0.04c-0.15,0-0.3-0.01-0.44-0.04c-0.59-0.11-1.17-0.44-1.57-0.97
			c-0.4-0.53-0.54-1.17-0.43-1.79c0.02-0.15,0.07-0.31,0.13-0.46c0.06-0.14,0.13-0.29,0.22-0.43c0.09-0.14,0.19-0.26,0.31-0.38
			c0.12-0.12,0.26-0.23,0.4-0.33c0.14-0.1,0.3-0.17,0.45-0.24c0.15-0.06,0.31-0.1,0.48-0.13c0.16-0.03,0.32-0.04,0.48-0.04
			c0.08,0,0.16,0.01,0.24,0.02c0.08,0.01,0.15,0.02,0.23,0.05C150.57,64.47,151.1,64.86,151.44,65.43z M157.27,62.66
			c0.12,0.31,0.17,0.63,0.16,0.94c-0.01,0.31-0.07,0.61-0.18,0.9c-0.11,0.28-0.27,0.53-0.48,0.75c-0.2,0.22-0.45,0.4-0.73,0.52
			c-0.29,0.13-0.58,0.2-0.88,0.2c-0.15,0-0.29,0-0.44-0.03c-0.14-0.02-0.29-0.06-0.43-0.11c-0.14-0.05-0.28-0.12-0.41-0.19
			c-0.13-0.08-0.26-0.17-0.38-0.26c-0.24-0.2-0.44-0.45-0.6-0.74c-0.15-0.29-0.24-0.61-0.26-0.92c-0.01-0.16,0-0.31,0.02-0.47
			c0.02-0.15,0.06-0.31,0.11-0.45c0.05-0.15,0.12-0.29,0.2-0.43c0.08-0.14,0.18-0.27,0.29-0.38c0.22-0.24,0.5-0.45,0.81-0.59
			c0.32-0.14,0.66-0.21,0.98-0.22c0.33,0,0.65,0.06,0.94,0.17c0.29,0.12,0.55,0.3,0.77,0.52C156.98,62.08,157.16,62.35,157.27,62.66
			z M163.48,60.87c0.13,0.65-0.01,1.3-0.32,1.81c-0.08,0.13-0.17,0.25-0.26,0.36s-0.21,0.21-0.33,0.31c-0.23,0.18-0.5,0.31-0.8,0.4
			c-0.6,0.16-1.21,0.06-1.74-0.24c-0.52-0.29-0.97-0.78-1.18-1.41c-0.21-0.63-0.14-1.28,0.16-1.84c0.3-0.55,0.83-1,1.52-1.17
			c0.33-0.1,0.68-0.1,1-0.06c0.16,0.02,0.32,0.06,0.47,0.12c0.15,0.05,0.29,0.12,0.43,0.21C162.96,59.68,163.35,60.21,163.48,60.87z
			 M169.89,60.1c0.01,0.33-0.04,0.65-0.14,0.94c-0.05,0.14-0.12,0.29-0.2,0.42c-0.07,0.13-0.16,0.26-0.26,0.37
			c-0.19,0.23-0.43,0.42-0.69,0.56c-0.26,0.14-0.55,0.24-0.86,0.26c-0.07,0-0.15,0.01-0.23,0.01c-0.08,0-0.15,0-0.23-0.01
			c-0.15-0.01-0.3-0.05-0.44-0.09c-0.07-0.02-0.14-0.05-0.21-0.08c-0.07-0.02-0.13-0.06-0.2-0.09c-0.13-0.07-0.26-0.15-0.38-0.25
			c-0.12-0.09-0.23-0.2-0.33-0.31c-0.1-0.12-0.19-0.24-0.27-0.38c-0.16-0.26-0.28-0.57-0.33-0.89c-0.05-0.33-0.04-0.65,0.04-0.96
			c0.04-0.15,0.1-0.3,0.17-0.44c0.07-0.14,0.15-0.27,0.25-0.4c0.1-0.12,0.21-0.24,0.33-0.34c0.06-0.05,0.12-0.1,0.19-0.15
			c0.07-0.05,0.14-0.09,0.21-0.12c0.14-0.08,0.3-0.14,0.46-0.19c0.08-0.02,0.16-0.05,0.24-0.07c0.09-0.02,0.17-0.03,0.26-0.04
			c0.35-0.03,0.69,0,1,0.1c0.31,0.1,0.59,0.26,0.83,0.47c0.12,0.1,0.23,0.21,0.32,0.34c0.1,0.12,0.18,0.26,0.25,0.4
			C169.8,59.45,169.88,59.76,169.89,60.1z M176.34,60.35c-0.08,0.66-0.41,1.23-0.87,1.61c-0.46,0.4-1.04,0.61-1.66,0.57
			c-0.08,0-0.15-0.01-0.23-0.02c-0.08-0.01-0.15-0.03-0.22-0.05c-0.14-0.04-0.29-0.09-0.42-0.16c-0.13-0.07-0.26-0.14-0.38-0.24
			s-0.23-0.19-0.33-0.3c-0.4-0.44-0.67-1.05-0.67-1.71c0-0.67,0.27-1.26,0.73-1.69c0.12-0.1,0.24-0.21,0.38-0.29
			c0.14-0.08,0.29-0.15,0.44-0.21s0.31-0.1,0.48-0.12c0.08-0.02,0.17-0.02,0.25-0.02c0.09,0,0.17,0,0.26,0
			c0.7,0.04,1.31,0.37,1.72,0.84C176.23,59.07,176.43,59.69,176.34,60.35z M182.68,61.64c-0.1,0.32-0.25,0.6-0.44,0.85
			c-0.19,0.24-0.43,0.45-0.68,0.61c-0.26,0.16-0.54,0.26-0.83,0.32c-0.15,0.02-0.3,0.04-0.45,0.03c-0.07,0-0.15,0-0.23-0.02
			c-0.07-0.01-0.15-0.02-0.23-0.04c-0.15-0.03-0.3-0.08-0.43-0.14c-0.14-0.06-0.26-0.14-0.38-0.22c-0.24-0.17-0.45-0.39-0.62-0.64
			c-0.08-0.13-0.15-0.26-0.21-0.4c-0.06-0.14-0.11-0.29-0.14-0.44c-0.07-0.31-0.08-0.63-0.03-0.95c0.05-0.33,0.17-0.63,0.34-0.9
			c0.08-0.13,0.18-0.25,0.29-0.36c0.11-0.11,0.23-0.21,0.36-0.3c0.26-0.17,0.56-0.29,0.88-0.36c0.16-0.03,0.33-0.05,0.5-0.04
			c0.17,0,0.34,0.02,0.51,0.06c0.09,0.02,0.17,0.04,0.25,0.07c0.08,0.02,0.16,0.06,0.24,0.1c0.15,0.07,0.3,0.15,0.43,0.25
			c0.26,0.19,0.48,0.43,0.64,0.7c0.16,0.27,0.27,0.57,0.31,0.88C182.79,60.99,182.77,61.32,182.68,61.64z M188.71,63.93
			c-0.29,0.6-0.78,1.03-1.34,1.26c-0.56,0.23-1.18,0.24-1.76,0.02c-0.29-0.12-0.54-0.29-0.75-0.5c-0.1-0.1-0.2-0.22-0.29-0.34
			c-0.08-0.12-0.16-0.25-0.22-0.39c-0.12-0.27-0.19-0.57-0.21-0.88c-0.02-0.31,0.02-0.63,0.12-0.95c0.1-0.31,0.27-0.59,0.48-0.83
			c0.21-0.23,0.47-0.42,0.75-0.55c0.14-0.07,0.29-0.12,0.45-0.15c0.16-0.04,0.31-0.05,0.48-0.06c0.33-0.01,0.67,0.05,0.99,0.18
			c0.65,0.26,1.13,0.77,1.36,1.35C189.01,62.67,189,63.33,188.71,63.93z M194.3,67.16c-0.19,0.28-0.42,0.5-0.68,0.67
			c-0.13,0.08-0.27,0.16-0.41,0.21c-0.14,0.06-0.29,0.11-0.43,0.14c-0.3,0.07-0.59,0.08-0.89,0.03c-0.3-0.04-0.58-0.14-0.85-0.3
			c-0.27-0.16-0.49-0.37-0.66-0.61c-0.17-0.24-0.3-0.51-0.38-0.8c-0.08-0.29-0.1-0.6-0.07-0.91c0.03-0.31,0.12-0.62,0.28-0.92
			c0.15-0.29,0.36-0.54,0.61-0.74c0.24-0.2,0.53-0.34,0.83-0.42c0.3-0.08,0.62-0.1,0.95-0.06c0.32,0.05,0.64,0.16,0.95,0.34
			c0.3,0.19,0.55,0.42,0.74,0.68c0.19,0.27,0.32,0.57,0.38,0.87c0.04,0.15,0.05,0.31,0.06,0.46c0,0.16-0.02,0.31-0.05,0.47
			C194.62,66.59,194.49,66.89,194.3,67.16z M199.31,71.25c-0.23,0.24-0.5,0.42-0.78,0.55c-0.29,0.13-0.59,0.2-0.89,0.22
			c-0.15,0.01-0.3,0-0.45-0.01c-0.14-0.02-0.29-0.05-0.44-0.09c-0.28-0.09-0.55-0.24-0.78-0.44c-0.47-0.4-0.74-0.96-0.8-1.56
			c-0.06-0.59,0.1-1.24,0.49-1.77c0.4-0.53,0.98-0.85,1.61-0.91c0.62-0.07,1.29,0.12,1.83,0.58c0.27,0.22,0.47,0.5,0.62,0.79
			c0.07,0.14,0.13,0.29,0.17,0.45c0.04,0.15,0.07,0.31,0.07,0.47c0.02,0.31-0.03,0.63-0.14,0.92
			C199.71,70.74,199.54,71.01,199.31,71.25z M203.59,76.08c-0.53,0.4-1.18,0.55-1.77,0.49c-0.07,0-0.14-0.02-0.22-0.03
			c-0.07-0.01-0.15-0.03-0.22-0.05c-0.14-0.04-0.29-0.1-0.42-0.16c-0.07-0.03-0.13-0.07-0.19-0.11c-0.03-0.02-0.06-0.04-0.09-0.06
			c-0.03-0.02-0.06-0.04-0.09-0.07c-0.12-0.09-0.23-0.2-0.33-0.31c-0.05-0.06-0.1-0.12-0.14-0.19c-0.02-0.03-0.04-0.06-0.06-0.1
			c-0.02-0.03-0.04-0.07-0.06-0.1c-0.07-0.13-0.13-0.26-0.18-0.41c-0.05-0.14-0.07-0.29-0.09-0.44c-0.02-0.14-0.02-0.29-0.01-0.45
			c0.02-0.3,0.09-0.6,0.22-0.88c0.13-0.29,0.31-0.55,0.55-0.78c0.24-0.23,0.52-0.4,0.81-0.51c0.29-0.11,0.61-0.15,0.92-0.14
			c0.16,0.01,0.31,0.03,0.47,0.07c0.15,0.04,0.31,0.1,0.45,0.17c0.14,0.07,0.29,0.16,0.42,0.26c0.03,0.03,0.07,0.05,0.1,0.08
			c0.03,0.03,0.06,0.06,0.09,0.09c0.06,0.06,0.12,0.12,0.18,0.19c0.12,0.13,0.21,0.27,0.29,0.42c0.02,0.04,0.04,0.07,0.06,0.11
			c0.02,0.04,0.03,0.07,0.05,0.11c0.03,0.08,0.06,0.16,0.08,0.23c0.05,0.16,0.08,0.32,0.1,0.48c0.01,0.08,0.01,0.16,0.01,0.24
			c0,0.08,0,0.16-0.01,0.24C204.44,75.11,204.12,75.69,203.59,76.08z M207.05,81.54c-0.29,0.16-0.61,0.24-0.92,0.28
			c-0.15,0.01-0.31,0.01-0.46,0c-0.07,0-0.15-0.02-0.23-0.03c-0.07-0.01-0.15-0.03-0.22-0.05c-0.29-0.08-0.57-0.21-0.81-0.38
			c-0.24-0.17-0.45-0.39-0.61-0.66c-0.17-0.26-0.26-0.55-0.31-0.85c-0.02-0.15-0.03-0.29-0.02-0.44c0-0.15,0.02-0.3,0.06-0.45
			c0.03-0.14,0.08-0.29,0.14-0.43c0.06-0.14,0.13-0.28,0.22-0.41c0.17-0.26,0.39-0.49,0.67-0.68c0.28-0.19,0.57-0.31,0.88-0.38
			c0.15-0.03,0.31-0.04,0.47-0.04c0.15,0,0.31,0.02,0.46,0.06c0.15,0.03,0.3,0.08,0.45,0.14c0.14,0.07,0.29,0.14,0.42,0.24
			c0.26,0.19,0.5,0.44,0.68,0.74c0.18,0.3,0.29,0.62,0.34,0.95c0.04,0.32,0.02,0.64-0.06,0.95c-0.02,0.08-0.04,0.15-0.07,0.22
			c-0.03,0.07-0.06,0.14-0.1,0.21c-0.07,0.14-0.16,0.27-0.26,0.39C207.59,81.18,207.34,81.39,207.05,81.54z M209.58,87.48
			c-0.32,0.11-0.64,0.14-0.95,0.12c-0.31-0.02-0.62-0.1-0.89-0.22c-0.14-0.06-0.27-0.14-0.39-0.22c-0.03-0.02-0.06-0.04-0.09-0.07
			c-0.03-0.02-0.06-0.05-0.09-0.07c-0.06-0.05-0.11-0.1-0.17-0.15c-0.1-0.1-0.2-0.22-0.28-0.35c-0.04-0.06-0.08-0.13-0.11-0.19
			c-0.04-0.07-0.07-0.14-0.1-0.21c-0.06-0.14-0.1-0.29-0.13-0.44c-0.01-0.07-0.02-0.14-0.02-0.22c-0.01-0.07-0.01-0.14-0.01-0.22
			c0-0.3,0.07-0.59,0.18-0.87c0.22-0.55,0.65-1.05,1.25-1.34c0.6-0.29,1.26-0.3,1.85-0.07c0.29,0.12,0.56,0.3,0.79,0.52
			c0.06,0.06,0.12,0.12,0.17,0.18c0.05,0.06,0.1,0.13,0.14,0.2c0.1,0.14,0.17,0.29,0.24,0.45c0.03,0.08,0.06,0.16,0.09,0.24
			c0.02,0.08,0.04,0.17,0.06,0.25c0.03,0.17,0.04,0.33,0.04,0.5c0,0.08-0.01,0.16-0.02,0.24c0,0.04-0.01,0.08-0.02,0.12
			c-0.01,0.04-0.02,0.08-0.02,0.12c-0.04,0.16-0.09,0.31-0.15,0.45c-0.13,0.29-0.32,0.54-0.55,0.75
			C210.18,87.21,209.9,87.38,209.58,87.48z M211.12,93.76c-0.66,0.1-1.29-0.06-1.79-0.39c-0.26-0.17-0.48-0.37-0.64-0.62
			c-0.04-0.06-0.08-0.12-0.12-0.19c-0.04-0.06-0.07-0.13-0.1-0.2c-0.06-0.14-0.11-0.28-0.14-0.43c-0.02-0.07-0.03-0.15-0.04-0.23
			c-0.01-0.07-0.01-0.15-0.02-0.22c0-0.15,0.01-0.3,0.04-0.45c0.02-0.14,0.07-0.29,0.12-0.43c0.05-0.14,0.12-0.27,0.19-0.4
			c0.16-0.26,0.36-0.49,0.61-0.68c0.25-0.19,0.53-0.34,0.85-0.43s0.64-0.12,0.95-0.07c0.31,0.04,0.61,0.14,0.88,0.31
			c0.14,0.08,0.26,0.17,0.38,0.28c0.12,0.11,0.22,0.23,0.32,0.36c0.1,0.13,0.18,0.27,0.25,0.43c0.03,0.08,0.07,0.16,0.1,0.24
			c0.02,0.08,0.05,0.17,0.07,0.25c0.04,0.17,0.06,0.34,0.06,0.51c0,0.08,0,0.17-0.01,0.25c-0.01,0.08-0.02,0.17-0.03,0.24
			c-0.06,0.32-0.19,0.62-0.36,0.88C212.33,93.29,211.78,93.65,211.12,93.76z M211.64,100.19c-0.66,0-1.27-0.26-1.71-0.67
			c-0.11-0.1-0.21-0.21-0.3-0.33c-0.09-0.12-0.17-0.24-0.24-0.38c-0.13-0.26-0.21-0.56-0.23-0.87c-0.01-0.16,0-0.31,0.02-0.45
			c0.01-0.08,0.02-0.15,0.05-0.22c0.02-0.07,0.04-0.14,0.06-0.21c0.1-0.28,0.25-0.54,0.45-0.77c0.39-0.46,0.95-0.79,1.62-0.87
			c0.66-0.08,1.29,0.12,1.77,0.53c0.24,0.2,0.43,0.45,0.58,0.75c0.04,0.07,0.07,0.15,0.1,0.22c0.03,0.08,0.05,0.16,0.07,0.24
			c0.04,0.16,0.07,0.33,0.08,0.5c0.02,0.35-0.03,0.69-0.14,1c-0.05,0.15-0.12,0.3-0.21,0.43s-0.18,0.26-0.29,0.38
			C212.9,99.92,212.3,100.19,211.64,100.19z M211.12,106.63c-0.66-0.11-1.2-0.46-1.58-0.94c-0.1-0.12-0.17-0.24-0.24-0.38
			c-0.07-0.13-0.12-0.26-0.17-0.41c-0.09-0.29-0.12-0.59-0.09-0.89c0.03-0.31,0.12-0.6,0.27-0.86c0.14-0.26,0.33-0.5,0.56-0.69
			c0.12-0.1,0.24-0.18,0.37-0.26c0.13-0.07,0.27-0.14,0.42-0.19c0.29-0.1,0.61-0.16,0.94-0.14c0.33,0.01,0.65,0.09,0.93,0.23
			c0.14,0.07,0.28,0.15,0.4,0.24c0.12,0.1,0.24,0.21,0.33,0.32c0.21,0.24,0.36,0.52,0.47,0.83c0.1,0.31,0.13,0.65,0.1,1
			c-0.04,0.35-0.14,0.67-0.3,0.96c-0.08,0.14-0.17,0.28-0.28,0.4c-0.1,0.12-0.22,0.23-0.34,0.33
			C212.42,106.57,211.78,106.74,211.12,106.63z M209.58,112.91c-0.63-0.21-1.12-0.65-1.41-1.18c-0.07-0.13-0.14-0.27-0.18-0.41
			c-0.05-0.14-0.08-0.29-0.1-0.43c-0.01-0.07-0.02-0.15-0.02-0.22c0-0.04,0-0.07,0-0.11c0-0.04,0-0.07,0-0.11
			c0.01-0.15,0.03-0.3,0.07-0.45c0.04-0.15,0.1-0.29,0.17-0.43c0.07-0.14,0.14-0.26,0.24-0.38c0.09-0.12,0.19-0.22,0.31-0.32
			c0.11-0.1,0.23-0.19,0.36-0.26c0.51-0.31,1.16-0.45,1.81-0.31s1.19,0.52,1.51,1.06c0.08,0.13,0.15,0.28,0.21,0.43
			c0.05,0.15,0.09,0.31,0.12,0.47c0.02,0.16,0.03,0.33,0.02,0.5c0,0.17-0.04,0.34-0.08,0.51c-0.05,0.17-0.11,0.33-0.18,0.48
			c-0.02,0.04-0.04,0.07-0.06,0.11s-0.04,0.07-0.07,0.11c-0.04,0.07-0.09,0.14-0.14,0.2c-0.1,0.13-0.21,0.25-0.33,0.35
			c-0.12,0.1-0.25,0.19-0.39,0.27C210.87,113.05,210.21,113.12,209.58,112.91z M207.05,118.85c-0.29-0.16-0.55-0.36-0.74-0.6
			c-0.1-0.12-0.19-0.24-0.26-0.38c-0.07-0.13-0.14-0.27-0.19-0.41c-0.1-0.29-0.15-0.58-0.14-0.88c0-0.3,0.07-0.59,0.2-0.88
			c0.12-0.29,0.3-0.53,0.52-0.73c0.21-0.2,0.47-0.36,0.75-0.48c0.14-0.05,0.29-0.1,0.43-0.13c0.15-0.03,0.3-0.05,0.46-0.05
			c0.31-0.01,0.63,0.04,0.94,0.16c0.31,0.12,0.58,0.29,0.81,0.51c0.12,0.11,0.21,0.23,0.3,0.36c0.09,0.13,0.16,0.26,0.22,0.41
			c0.12,0.29,0.18,0.61,0.17,0.93c-0.01,0.33-0.08,0.66-0.22,0.98c-0.15,0.32-0.35,0.59-0.59,0.81c-0.24,0.22-0.52,0.38-0.82,0.49
			c-0.15,0.05-0.3,0.09-0.45,0.11c-0.15,0.02-0.31,0.02-0.47,0.01C207.65,119.09,207.34,119,207.05,118.85z M203.59,124.3
			c-0.27-0.2-0.48-0.44-0.64-0.71c-0.16-0.27-0.27-0.56-0.32-0.86c-0.03-0.15-0.04-0.3-0.04-0.45s0.01-0.3,0.04-0.44
			c0.05-0.29,0.17-0.57,0.34-0.83s0.39-0.47,0.64-0.64c0.12-0.08,0.26-0.15,0.39-0.21c0.14-0.06,0.29-0.1,0.43-0.14
			c0.58-0.13,1.24-0.06,1.81,0.28c0.57,0.33,0.96,0.87,1.1,1.48c0.04,0.16,0.05,0.31,0.06,0.47c0,0.16-0.01,0.32-0.04,0.48
			c-0.05,0.32-0.19,0.64-0.38,0.93c-0.19,0.3-0.44,0.53-0.71,0.71c-0.14,0.09-0.28,0.17-0.43,0.22c-0.15,0.06-0.3,0.1-0.45,0.13
			c-0.31,0.05-0.63,0.05-0.93-0.02C204.15,124.64,203.86,124.5,203.59,124.3z M199.31,129.14c-0.46-0.48-0.69-1.1-0.7-1.7
			c0-0.15,0.01-0.3,0.03-0.45c0.02-0.14,0.06-0.29,0.11-0.43c0.1-0.28,0.26-0.54,0.47-0.77c0.21-0.22,0.46-0.4,0.73-0.52
			c0.14-0.06,0.28-0.11,0.43-0.14c0.14-0.03,0.29-0.06,0.44-0.07c0.3-0.02,0.61,0.02,0.9,0.11c0.3,0.1,0.58,0.24,0.84,0.45
			c0.26,0.21,0.46,0.46,0.6,0.74c0.14,0.28,0.22,0.58,0.24,0.9c0.01,0.16,0,0.31-0.02,0.48c-0.02,0.16-0.06,0.31-0.12,0.47
			c-0.11,0.31-0.28,0.6-0.52,0.86c-0.24,0.26-0.51,0.46-0.81,0.59c-0.15,0.07-0.31,0.12-0.46,0.15c-0.16,0.03-0.31,0.05-0.47,0.05
			C200.38,129.86,199.77,129.62,199.31,129.14z M194.3,133.22c-0.19-0.27-0.31-0.57-0.38-0.88c-0.03-0.15-0.05-0.31-0.06-0.46
			c0-0.07,0-0.15,0-0.23c0-0.07,0.01-0.15,0.02-0.23c0.04-0.3,0.14-0.58,0.28-0.84c0.14-0.26,0.33-0.5,0.58-0.68
			c0.24-0.19,0.52-0.33,0.81-0.4c0.07-0.02,0.14-0.03,0.21-0.05c0.07-0.01,0.15-0.02,0.22-0.03c0.14-0.01,0.3-0.01,0.45,0
			s0.3,0.05,0.45,0.09c0.15,0.04,0.29,0.1,0.43,0.17c0.28,0.14,0.54,0.33,0.76,0.58c0.22,0.25,0.38,0.53,0.48,0.83
			c0.05,0.15,0.08,0.31,0.1,0.46c0.02,0.16,0.02,0.31,0,0.47c-0.02,0.16-0.05,0.31-0.09,0.46c-0.02,0.08-0.05,0.15-0.08,0.23
			c-0.03,0.07-0.07,0.15-0.11,0.22c-0.16,0.29-0.38,0.55-0.65,0.76c-0.28,0.21-0.58,0.36-0.9,0.45c-0.32,0.08-0.64,0.1-0.95,0.05
			c-0.08-0.01-0.16-0.02-0.23-0.05c-0.07-0.02-0.15-0.04-0.22-0.07c-0.15-0.06-0.29-0.12-0.42-0.21
			C194.73,133.72,194.49,133.5,194.3,133.22z M188.71,136.46c-0.14-0.3-0.21-0.62-0.24-0.93c-0.02-0.31,0.02-0.62,0.11-0.91
			c0.09-0.29,0.23-0.55,0.41-0.78c0.09-0.12,0.19-0.23,0.31-0.32c0.06-0.05,0.12-0.1,0.18-0.14c0.06-0.05,0.12-0.09,0.19-0.12
			c0.14-0.07,0.28-0.14,0.42-0.18c0.07-0.02,0.14-0.04,0.21-0.05c0.07-0.02,0.15-0.03,0.22-0.04c0.3-0.03,0.6,0,0.89,0.07
			c0.58,0.15,1.12,0.52,1.48,1.09s0.45,1.21,0.29,1.83c-0.08,0.3-0.22,0.59-0.42,0.85c-0.05,0.06-0.1,0.13-0.16,0.19
			c-0.06,0.06-0.12,0.12-0.18,0.17c-0.13,0.11-0.27,0.21-0.43,0.29c-0.07,0.04-0.15,0.08-0.23,0.12s-0.16,0.06-0.24,0.09
			c-0.16,0.05-0.32,0.08-0.49,0.1c-0.32,0.04-0.64,0-0.95-0.1c-0.3-0.1-0.57-0.25-0.81-0.45
			C189.05,137.02,188.86,136.76,188.71,136.46z M182.68,138.75c-0.19-0.64-0.1-1.29,0.17-1.83c0.07-0.13,0.14-0.26,0.24-0.38
			c0.09-0.12,0.19-0.23,0.3-0.33c0.11-0.1,0.23-0.19,0.36-0.27c0.13-0.08,0.26-0.14,0.41-0.19c0.07-0.03,0.15-0.05,0.22-0.07
			c0.03-0.01,0.07-0.02,0.11-0.02c0.03,0,0.07-0.01,0.11-0.02c0.15-0.02,0.3-0.03,0.45-0.02c0.15,0.01,0.3,0.03,0.44,0.07
			c0.14,0.03,0.29,0.08,0.42,0.14c0.55,0.25,1.03,0.7,1.29,1.31s0.24,1.27-0.01,1.84c-0.07,0.14-0.14,0.29-0.24,0.41
			c-0.09,0.13-0.2,0.25-0.32,0.36c-0.12,0.11-0.25,0.21-0.4,0.3c-0.04,0.02-0.07,0.04-0.11,0.06c-0.04,0.02-0.08,0.04-0.12,0.06
			c-0.08,0.04-0.16,0.07-0.24,0.1c-0.17,0.06-0.33,0.1-0.5,0.12c-0.17,0.02-0.33,0.02-0.5,0.02c-0.17-0.01-0.32-0.04-0.48-0.08
			c-0.16-0.04-0.3-0.1-0.44-0.17C183.29,139.89,182.86,139.39,182.68,138.75z M176.34,140.04c-0.04-0.33-0.01-0.65,0.07-0.95
			c0.04-0.15,0.1-0.29,0.16-0.43c0.07-0.14,0.14-0.27,0.23-0.39c0.09-0.12,0.19-0.24,0.29-0.34c0.05-0.05,0.11-0.1,0.17-0.14
			c0.06-0.05,0.12-0.09,0.18-0.13c0.12-0.08,0.26-0.15,0.39-0.21c0.07-0.02,0.14-0.05,0.21-0.07c0.07-0.02,0.15-0.04,0.23-0.05
			c0.31-0.06,0.61-0.05,0.9,0.02c0.29,0.06,0.57,0.18,0.82,0.35c0.25,0.17,0.48,0.38,0.66,0.63s0.32,0.55,0.4,0.87
			c0.08,0.32,0.09,0.64,0.03,0.95c-0.05,0.31-0.17,0.61-0.34,0.87c-0.17,0.26-0.4,0.49-0.67,0.67c-0.27,0.18-0.59,0.31-0.93,0.37
			c-0.09,0.02-0.17,0.03-0.26,0.03c-0.08,0.01-0.17,0.01-0.25,0c-0.17,0-0.33-0.02-0.49-0.06c-0.08-0.02-0.16-0.04-0.24-0.07
			c-0.07-0.03-0.15-0.06-0.22-0.09c-0.14-0.07-0.28-0.15-0.41-0.24c-0.13-0.09-0.24-0.19-0.35-0.31c-0.1-0.12-0.2-0.24-0.28-0.38
			C176.49,140.67,176.38,140.37,176.34,140.04z M169.89,140.29c0.01-0.33,0.1-0.65,0.22-0.93c0.06-0.14,0.14-0.28,0.23-0.4
			c0.09-0.13,0.18-0.24,0.29-0.35c0.21-0.21,0.46-0.39,0.73-0.5c0.14-0.06,0.28-0.11,0.43-0.14c0.14-0.03,0.3-0.05,0.45-0.05
			c0.08,0,0.15,0,0.23,0.01c0.08,0.01,0.15,0.02,0.23,0.03c0.15,0.03,0.29,0.07,0.43,0.12c0.14,0.06,0.27,0.13,0.4,0.21
			c0.12,0.08,0.24,0.17,0.35,0.27c0.44,0.41,0.75,0.99,0.81,1.65c0.05,0.67-0.17,1.28-0.6,1.75c-0.1,0.12-0.22,0.22-0.35,0.31
			c-0.13,0.1-0.27,0.17-0.42,0.24c-0.15,0.07-0.31,0.12-0.47,0.16c-0.08,0.02-0.17,0.03-0.25,0.05c-0.09,0.01-0.17,0.01-0.26,0.02
			c-0.17,0-0.35-0.01-0.51-0.05c-0.17-0.03-0.32-0.07-0.48-0.14c-0.3-0.13-0.57-0.31-0.79-0.52c-0.11-0.11-0.21-0.24-0.3-0.37
			c-0.08-0.13-0.15-0.27-0.21-0.42C169.93,140.94,169.88,140.62,169.89,140.29z M163.48,139.52c0.13-0.65,0.51-1.19,1-1.55
			c0.24-0.17,0.52-0.31,0.81-0.38c0.14-0.04,0.29-0.06,0.44-0.07c0.15-0.01,0.3,0,0.46,0.02c0.15,0.02,0.3,0.06,0.44,0.11
			c0.14,0.05,0.28,0.11,0.4,0.19c0.13,0.07,0.25,0.17,0.36,0.26c0.11,0.1,0.21,0.21,0.31,0.33c0.37,0.47,0.58,1.09,0.53,1.76
			c-0.05,0.66-0.37,1.24-0.86,1.63c-0.12,0.1-0.26,0.18-0.4,0.25c-0.14,0.07-0.29,0.13-0.45,0.17c-0.16,0.04-0.32,0.07-0.49,0.08
			c-0.17,0.01-0.34,0-0.51-0.02c-0.18-0.02-0.34-0.06-0.5-0.12c-0.16-0.06-0.31-0.13-0.45-0.21c-0.28-0.17-0.52-0.39-0.7-0.64
			C163.49,140.81,163.35,140.17,163.48,139.52z M157.27,137.73c0.12-0.31,0.29-0.58,0.5-0.81c0.11-0.11,0.22-0.21,0.34-0.31
			c0.12-0.09,0.25-0.17,0.39-0.24c0.27-0.14,0.56-0.22,0.85-0.25c0.3-0.03,0.6,0,0.89,0.09c0.3,0.09,0.56,0.24,0.79,0.43
			c0.06,0.05,0.11,0.1,0.16,0.15c0.05,0.05,0.1,0.11,0.15,0.17c0.1,0.12,0.18,0.24,0.25,0.38c0.07,0.13,0.13,0.27,0.18,0.42
			c0.05,0.14,0.09,0.29,0.11,0.45c0.05,0.31,0.03,0.63-0.05,0.95s-0.22,0.62-0.41,0.86c-0.1,0.12-0.2,0.24-0.32,0.34
			c-0.12,0.1-0.25,0.19-0.38,0.26c-0.14,0.07-0.29,0.14-0.43,0.19c-0.08,0.02-0.16,0.05-0.24,0.06c-0.08,0.02-0.16,0.03-0.24,0.04
			c-0.32,0.03-0.66,0-1-0.1c-0.33-0.11-0.63-0.28-0.88-0.48c-0.24-0.21-0.44-0.48-0.58-0.75c-0.07-0.14-0.12-0.29-0.17-0.44
			c-0.04-0.15-0.06-0.31-0.07-0.47C157.11,138.35,157.16,138.04,157.27,137.73z M151.44,134.95c0.17-0.29,0.38-0.52,0.63-0.72
			c0.25-0.19,0.52-0.33,0.81-0.43c0.14-0.05,0.29-0.07,0.43-0.09c0.15-0.02,0.3-0.02,0.45-0.02c0.3,0.02,0.59,0.1,0.87,0.24
			c0.28,0.14,0.51,0.33,0.71,0.55c0.1,0.11,0.18,0.24,0.26,0.36c0.07,0.13,0.14,0.27,0.19,0.41c0.2,0.56,0.21,1.22-0.05,1.83
			s-0.75,1.06-1.34,1.27c-0.15,0.05-0.3,0.09-0.46,0.11c-0.16,0.02-0.32,0.03-0.48,0.02c-0.33-0.01-0.66-0.1-0.97-0.26
			c-0.31-0.15-0.58-0.37-0.79-0.62c-0.11-0.12-0.2-0.26-0.27-0.4c-0.08-0.14-0.14-0.29-0.18-0.44c-0.09-0.3-0.12-0.62-0.09-0.93
			C151.17,135.55,151.27,135.24,151.44,134.95z M146.13,131.28c0.42-0.52,1.01-0.82,1.6-0.9c0.6-0.09,1.21,0.04,1.71,0.4
			c0.25,0.19,0.45,0.41,0.61,0.66c0.08,0.13,0.14,0.26,0.19,0.4c0.05,0.14,0.09,0.28,0.12,0.43c0.05,0.3,0.05,0.61,0,0.91
			c-0.05,0.31-0.17,0.61-0.35,0.89c-0.18,0.28-0.4,0.52-0.67,0.69c-0.26,0.17-0.55,0.29-0.86,0.35c-0.16,0.03-0.31,0.04-0.48,0.04
			c-0.16,0-0.32-0.02-0.48-0.06c-0.32-0.07-0.64-0.2-0.92-0.41c-0.57-0.41-0.91-1.02-1-1.63
			C145.54,132.43,145.71,131.79,146.13,131.28z M141.47,126.8c0.25-0.22,0.53-0.38,0.82-0.48c0.29-0.1,0.59-0.15,0.9-0.14
			c0.3,0,0.59,0.06,0.87,0.18c0.28,0.11,0.53,0.27,0.75,0.5c0.22,0.22,0.38,0.47,0.5,0.75c0.11,0.28,0.17,0.57,0.17,0.87
			c0,0.15-0.01,0.31-0.03,0.45c-0.02,0.15-0.06,0.3-0.11,0.45c-0.1,0.29-0.26,0.57-0.49,0.82c-0.22,0.25-0.48,0.44-0.76,0.57
			c-0.14,0.07-0.29,0.12-0.45,0.15c-0.15,0.03-0.31,0.05-0.46,0.06c-0.31,0-0.63-0.05-0.94-0.17c-0.3-0.12-0.59-0.31-0.83-0.55
			c-0.24-0.25-0.43-0.54-0.55-0.84c-0.12-0.31-0.17-0.62-0.17-0.94c0.01-0.31,0.08-0.62,0.21-0.9S141.22,127.03,141.47,126.8z
			 M137.58,121.64c0.28-0.18,0.59-0.29,0.89-0.35c0.31-0.05,0.62-0.05,0.91,0c0.3,0.05,0.57,0.16,0.83,0.31
			c0.13,0.07,0.25,0.17,0.36,0.27c0.05,0.05,0.11,0.1,0.16,0.16s0.1,0.12,0.14,0.18c0.09,0.12,0.17,0.26,0.23,0.39
			c0.03,0.07,0.06,0.14,0.08,0.21c0.02,0.07,0.05,0.14,0.06,0.21c0.07,0.29,0.08,0.59,0.03,0.89c-0.08,0.59-0.38,1.18-0.9,1.6
			c-0.52,0.42-1.15,0.59-1.78,0.51c-0.31-0.05-0.61-0.15-0.89-0.32c-0.07-0.04-0.14-0.09-0.21-0.14c-0.07-0.05-0.13-0.1-0.19-0.16
			c-0.12-0.12-0.24-0.24-0.34-0.38c-0.05-0.07-0.1-0.14-0.14-0.22c-0.04-0.07-0.08-0.15-0.12-0.23c-0.07-0.15-0.12-0.31-0.15-0.47
			c-0.07-0.31-0.07-0.64-0.02-0.95c0.06-0.31,0.17-0.6,0.35-0.86C137.07,122.05,137.3,121.82,137.58,121.64z M134.58,115.93
			c0.61-0.26,1.27-0.25,1.83-0.05c0.07,0.02,0.14,0.05,0.21,0.08c0.07,0.03,0.14,0.07,0.2,0.1c0.13,0.07,0.25,0.16,0.36,0.26
			c0.11,0.1,0.21,0.2,0.31,0.32c0.1,0.12,0.18,0.24,0.25,0.38c0.07,0.14,0.12,0.28,0.16,0.43c0.04,0.14,0.07,0.29,0.07,0.44
			c0.01,0.15,0,0.3-0.02,0.45c-0.02,0.14-0.05,0.29-0.09,0.43c-0.18,0.57-0.57,1.11-1.15,1.44c-0.58,0.33-1.23,0.4-1.83,0.21
			c-0.15-0.05-0.3-0.11-0.44-0.19c-0.14-0.07-0.27-0.17-0.39-0.27c-0.13-0.1-0.24-0.22-0.35-0.36c-0.11-0.13-0.19-0.28-0.27-0.43
			c-0.08-0.16-0.14-0.32-0.19-0.48c-0.04-0.17-0.07-0.33-0.07-0.49c-0.01-0.17,0-0.33,0.02-0.48c0.01-0.08,0.02-0.16,0.04-0.23
			c0.02-0.08,0.05-0.15,0.07-0.23C133.52,116.67,133.96,116.19,134.58,115.93z M132.53,109.8c0.32-0.08,0.65-0.09,0.95-0.05
			c0.15,0.02,0.3,0.06,0.45,0.11c0.14,0.05,0.29,0.11,0.42,0.18c0.27,0.14,0.5,0.33,0.69,0.56c0.19,0.22,0.34,0.49,0.43,0.78
			c0.1,0.3,0.12,0.6,0.09,0.89c-0.03,0.3-0.11,0.59-0.25,0.86c-0.07,0.13-0.15,0.26-0.24,0.38c-0.09,0.12-0.19,0.24-0.31,0.34
			c-0.23,0.21-0.5,0.38-0.81,0.5c-0.31,0.12-0.63,0.17-0.95,0.15c-0.16-0.01-0.31-0.03-0.47-0.07c-0.15-0.04-0.29-0.1-0.43-0.17
			c-0.28-0.14-0.54-0.33-0.75-0.58c-0.21-0.25-0.38-0.55-0.48-0.88c-0.1-0.34-0.13-0.68-0.1-1c0.03-0.33,0.14-0.64,0.29-0.91
			c0.08-0.14,0.17-0.26,0.27-0.38c0.1-0.12,0.21-0.22,0.34-0.32C131.92,110.02,132.21,109.88,132.53,109.8z M131.51,103.42
			c0.66-0.05,1.28,0.16,1.76,0.53c0.06,0.05,0.12,0.1,0.17,0.15c0.05,0.05,0.11,0.1,0.16,0.16c0.1,0.11,0.19,0.23,0.26,0.36
			c0.07,0.13,0.14,0.26,0.19,0.4c0.05,0.14,0.09,0.29,0.11,0.44c0.02,0.16,0.03,0.31,0.02,0.46c-0.01,0.15-0.03,0.3-0.07,0.44
			c-0.04,0.14-0.09,0.29-0.16,0.42c-0.03,0.07-0.07,0.14-0.11,0.2c-0.04,0.07-0.08,0.13-0.12,0.19c-0.35,0.49-0.89,0.86-1.55,1
			c-0.65,0.13-1.29-0.01-1.81-0.38c-0.07-0.05-0.13-0.1-0.19-0.15c-0.06-0.05-0.12-0.11-0.17-0.17c-0.11-0.12-0.21-0.24-0.29-0.38
			c-0.09-0.14-0.16-0.29-0.21-0.45c-0.05-0.16-0.1-0.33-0.12-0.5c-0.02-0.17-0.03-0.35-0.02-0.51c0.01-0.17,0.05-0.33,0.09-0.49
			c0.04-0.16,0.1-0.31,0.17-0.45c0.03-0.07,0.07-0.14,0.12-0.2c0.04-0.07,0.09-0.13,0.14-0.19
			C130.27,103.8,130.84,103.47,131.51,103.42z M131.51,96.96c0.33,0.03,0.64,0.12,0.92,0.26c0.28,0.14,0.53,0.33,0.73,0.55
			c0.21,0.22,0.36,0.48,0.48,0.75c0.05,0.14,0.1,0.28,0.12,0.43c0.01,0.07,0.02,0.15,0.03,0.22c0,0.08,0.01,0.15,0.01,0.23
			c0,0.16-0.02,0.31-0.06,0.45c-0.02,0.07-0.04,0.14-0.06,0.21c-0.02,0.07-0.05,0.14-0.08,0.21c-0.12,0.27-0.29,0.52-0.51,0.73
			c-0.22,0.21-0.47,0.39-0.75,0.52c-0.28,0.13-0.59,0.21-0.93,0.22c-0.33,0.01-0.65-0.04-0.94-0.16c-0.29-0.12-0.56-0.29-0.78-0.51
			c-0.22-0.22-0.4-0.49-0.52-0.79c-0.03-0.07-0.06-0.15-0.08-0.23c-0.02-0.08-0.04-0.16-0.06-0.24c-0.03-0.17-0.04-0.33-0.04-0.51
			c0-0.09,0-0.17,0.02-0.26c0.01-0.09,0.03-0.17,0.05-0.25c0.04-0.17,0.1-0.32,0.16-0.47c0.13-0.29,0.33-0.56,0.56-0.77
			c0.23-0.21,0.5-0.37,0.8-0.48C130.85,96.98,131.18,96.94,131.51,96.96z M132.53,90.59c0.32,0.08,0.62,0.22,0.87,0.4
			c0.12,0.09,0.24,0.19,0.35,0.31c0.05,0.05,0.1,0.11,0.15,0.17c0.05,0.06,0.09,0.12,0.14,0.18c0.17,0.25,0.29,0.53,0.35,0.82
			c0.02,0.07,0.03,0.14,0.04,0.22c0.01,0.07,0.01,0.15,0.02,0.22c0,0.15-0.01,0.3-0.04,0.45c-0.11,0.61-0.47,1.12-0.95,1.47
			c-0.24,0.18-0.52,0.31-0.83,0.39s-0.62,0.11-0.95,0.07c-0.33-0.04-0.64-0.14-0.91-0.31c-0.27-0.16-0.5-0.37-0.69-0.63
			c-0.38-0.5-0.54-1.18-0.42-1.87c0.03-0.17,0.08-0.34,0.14-0.5c0.03-0.07,0.07-0.15,0.1-0.23c0.04-0.07,0.08-0.14,0.13-0.21
			c0.18-0.27,0.41-0.5,0.67-0.67c0.07-0.05,0.13-0.08,0.2-0.12c0.07-0.04,0.14-0.07,0.21-0.1c0.15-0.06,0.3-0.1,0.45-0.13
			C131.89,90.5,132.21,90.51,132.53,90.59z M134.58,84.46c0.31,0.13,0.57,0.31,0.79,0.54c0.22,0.22,0.4,0.48,0.52,0.75
			c0.06,0.14,0.11,0.28,0.14,0.42c0.03,0.14,0.06,0.29,0.07,0.44c0.02,0.3-0.02,0.59-0.13,0.89c-0.21,0.58-0.63,1.03-1.18,1.3
			c-0.53,0.27-1.19,0.36-1.83,0.17c-0.64-0.19-1.14-0.61-1.43-1.18c-0.28-0.56-0.34-1.25-0.1-1.91c0.11-0.33,0.3-0.62,0.52-0.86
			c0.11-0.12,0.23-0.23,0.36-0.32c0.13-0.09,0.27-0.17,0.41-0.23c0.29-0.13,0.59-0.2,0.91-0.2
			C133.95,84.27,134.27,84.33,134.58,84.46z M137.58,78.74c0.56,0.36,0.93,0.9,1.08,1.48c0.16,0.58,0.1,1.2-0.19,1.74
			c-0.15,0.27-0.35,0.5-0.58,0.68c-0.12,0.1-0.24,0.17-0.38,0.24c-0.13,0.07-0.27,0.13-0.41,0.17c-0.29,0.09-0.59,0.12-0.91,0.11
			c-0.31-0.02-0.62-0.1-0.92-0.24c-0.3-0.14-0.56-0.34-0.76-0.58c-0.21-0.24-0.36-0.51-0.45-0.81c-0.05-0.15-0.08-0.31-0.1-0.47
			c-0.02-0.16-0.02-0.32,0-0.48c0.04-0.33,0.13-0.66,0.3-0.96c0.34-0.62,0.9-1.03,1.5-1.19C136.37,78.3,137.03,78.39,137.58,78.74z
			 M141.47,73.58c0.25,0.22,0.44,0.48,0.58,0.76c0.07,0.14,0.12,0.28,0.17,0.43c0.04,0.14,0.07,0.3,0.09,0.45
			c0.03,0.3,0.01,0.6-0.07,0.88c-0.08,0.29-0.21,0.56-0.4,0.81c-0.19,0.24-0.42,0.44-0.69,0.58c-0.26,0.15-0.54,0.24-0.84,0.28
			s-0.61,0.03-0.91-0.04c-0.31-0.07-0.6-0.19-0.88-0.38s-0.5-0.43-0.66-0.69c-0.17-0.26-0.28-0.57-0.32-0.88
			c-0.04-0.31-0.02-0.63,0.06-0.95c0.08-0.31,0.24-0.62,0.45-0.9c0.22-0.27,0.48-0.49,0.77-0.65c0.29-0.15,0.6-0.25,0.91-0.28
			c0.16-0.02,0.31-0.02,0.47,0c0.16,0.02,0.31,0.05,0.46,0.1C140.94,73.2,141.22,73.36,141.47,73.58z M146.13,69.11
			c0.21,0.26,0.36,0.54,0.45,0.84c0.09,0.3,0.13,0.61,0.11,0.91c-0.01,0.15-0.03,0.3-0.07,0.44c-0.01,0.04-0.02,0.07-0.03,0.11
			c-0.01,0.03-0.02,0.07-0.03,0.11c-0.02,0.07-0.05,0.14-0.08,0.21c-0.06,0.14-0.14,0.26-0.22,0.39c-0.05,0.06-0.1,0.12-0.14,0.17
			s-0.1,0.12-0.16,0.17c-0.11,0.11-0.24,0.2-0.36,0.28c-0.07,0.04-0.13,0.07-0.2,0.1c-0.07,0.03-0.14,0.06-0.21,0.09
			c-0.28,0.1-0.58,0.14-0.88,0.14c-0.59-0.01-1.21-0.24-1.69-0.7c-0.48-0.46-0.72-1.07-0.71-1.7c0-0.31,0.07-0.63,0.21-0.93
			c0.03-0.07,0.07-0.15,0.11-0.22c0.04-0.07,0.09-0.14,0.14-0.21c0.1-0.14,0.21-0.26,0.34-0.38c0.07-0.06,0.13-0.12,0.2-0.17
			c0.07-0.05,0.14-0.1,0.21-0.14c0.14-0.09,0.29-0.16,0.45-0.21c0.08-0.03,0.16-0.05,0.23-0.07c0.04-0.01,0.08-0.02,0.12-0.03
			c0.04,0,0.08-0.01,0.12-0.02c0.16-0.02,0.32-0.02,0.48-0.02c0.31,0.02,0.62,0.1,0.9,0.24C145.66,68.65,145.92,68.85,146.13,69.11z
			 M151.44,65.43c0.33,0.58,0.4,1.23,0.27,1.82c-0.02,0.07-0.04,0.14-0.06,0.21c-0.02,0.07-0.05,0.14-0.08,0.21
			c-0.06,0.14-0.12,0.27-0.21,0.39s-0.18,0.24-0.29,0.35c-0.1,0.11-0.22,0.2-0.35,0.29c-0.13,0.09-0.27,0.15-0.41,0.21
			c-0.14,0.06-0.28,0.1-0.43,0.12c-0.14,0.03-0.29,0.04-0.45,0.04c-0.15,0-0.3-0.01-0.44-0.04c-0.59-0.11-1.17-0.44-1.57-0.97
			c-0.4-0.53-0.54-1.17-0.43-1.79c0.02-0.15,0.07-0.31,0.13-0.46c0.06-0.14,0.13-0.29,0.22-0.43c0.09-0.14,0.19-0.26,0.31-0.38
			c0.12-0.12,0.26-0.23,0.4-0.33c0.14-0.1,0.3-0.17,0.45-0.24c0.15-0.06,0.31-0.1,0.48-0.13c0.16-0.03,0.32-0.04,0.48-0.04
			c0.08,0,0.16,0.01,0.24,0.02c0.08,0.01,0.15,0.02,0.23,0.05C150.57,64.47,151.1,64.86,151.44,65.43z M157.27,62.66
			c0.12,0.31,0.17,0.63,0.16,0.94c-0.01,0.31-0.07,0.61-0.18,0.9c-0.11,0.28-0.27,0.53-0.48,0.75c-0.2,0.22-0.45,0.4-0.73,0.52
			c-0.29,0.13-0.58,0.2-0.88,0.2c-0.15,0-0.29,0-0.44-0.03c-0.14-0.02-0.29-0.06-0.43-0.11c-0.14-0.05-0.28-0.12-0.41-0.19
			c-0.13-0.08-0.26-0.17-0.38-0.26c-0.24-0.2-0.44-0.45-0.6-0.74c-0.15-0.29-0.24-0.61-0.26-0.92c-0.01-0.16,0-0.31,0.02-0.47
			c0.02-0.15,0.06-0.31,0.11-0.45c0.05-0.15,0.12-0.29,0.2-0.43c0.08-0.14,0.18-0.27,0.29-0.38c0.22-0.24,0.5-0.45,0.81-0.59
			c0.32-0.14,0.66-0.21,0.98-0.22c0.33,0,0.65,0.06,0.94,0.17c0.29,0.12,0.55,0.3,0.77,0.52C156.98,62.08,157.16,62.35,157.27,62.66
			z M163.48,60.87c0.13,0.65-0.01,1.3-0.32,1.81c-0.08,0.13-0.17,0.25-0.26,0.36s-0.21,0.21-0.33,0.31c-0.23,0.18-0.5,0.31-0.8,0.4
			c-0.6,0.16-1.21,0.06-1.74-0.24c-0.52-0.29-0.97-0.78-1.18-1.41c-0.21-0.63-0.14-1.28,0.16-1.84c0.3-0.55,0.83-1,1.52-1.17
			c0.33-0.1,0.68-0.1,1-0.06c0.16,0.02,0.32,0.06,0.47,0.12c0.15,0.05,0.29,0.12,0.43,0.21C162.96,59.68,163.35,60.21,163.48,60.87z
			 M169.89,60.1c0.01,0.33-0.04,0.65-0.14,0.94c-0.05,0.14-0.12,0.29-0.2,0.42c-0.07,0.13-0.16,0.26-0.26,0.37
			c-0.19,0.23-0.43,0.42-0.69,0.56c-0.26,0.14-0.55,0.24-0.86,0.26c-0.07,0-0.15,0.01-0.23,0.01c-0.08,0-0.15,0-0.23-0.01
			c-0.15-0.01-0.3-0.05-0.44-0.09c-0.07-0.02-0.14-0.05-0.21-0.08c-0.07-0.02-0.13-0.06-0.2-0.09c-0.13-0.07-0.26-0.15-0.38-0.25
			c-0.12-0.09-0.23-0.2-0.33-0.31c-0.1-0.12-0.19-0.24-0.27-0.38c-0.16-0.26-0.28-0.57-0.33-0.89c-0.05-0.33-0.04-0.65,0.04-0.96
			c0.04-0.15,0.1-0.3,0.17-0.44c0.07-0.14,0.15-0.27,0.25-0.4c0.1-0.12,0.21-0.24,0.33-0.34c0.06-0.05,0.12-0.1,0.19-0.15
			c0.07-0.05,0.14-0.09,0.21-0.12c0.14-0.08,0.3-0.14,0.46-0.19c0.08-0.02,0.16-0.05,0.24-0.07c0.09-0.02,0.17-0.03,0.26-0.04
			c0.35-0.03,0.69,0,1,0.1c0.31,0.1,0.59,0.26,0.83,0.47c0.12,0.1,0.23,0.21,0.32,0.34c0.1,0.12,0.18,0.26,0.25,0.4
			C169.8,59.45,169.88,59.76,169.89,60.1z M176.34,60.35c-0.08,0.66-0.41,1.23-0.87,1.61c-0.46,0.4-1.04,0.61-1.66,0.57
			c-0.08,0-0.15-0.01-0.23-0.02c-0.08-0.01-0.15-0.03-0.22-0.05c-0.14-0.04-0.29-0.09-0.42-0.16c-0.13-0.07-0.26-0.14-0.38-0.24
			s-0.23-0.19-0.33-0.3c-0.4-0.44-0.67-1.05-0.67-1.71c0-0.67,0.27-1.26,0.73-1.69c0.12-0.1,0.24-0.21,0.38-0.29
			c0.14-0.08,0.29-0.15,0.44-0.21s0.31-0.1,0.48-0.12c0.08-0.02,0.17-0.02,0.25-0.02c0.09,0,0.17,0,0.26,0
			c0.7,0.04,1.31,0.37,1.72,0.84C176.23,59.07,176.43,59.69,176.34,60.35z M182.68,61.64c-0.1,0.32-0.25,0.6-0.44,0.85
			c-0.19,0.24-0.43,0.45-0.68,0.61c-0.26,0.16-0.54,0.26-0.83,0.32c-0.15,0.02-0.3,0.04-0.45,0.03c-0.07,0-0.15,0-0.23-0.02
			c-0.07-0.01-0.15-0.02-0.23-0.04c-0.15-0.03-0.3-0.08-0.43-0.14c-0.14-0.06-0.26-0.14-0.38-0.22c-0.24-0.17-0.45-0.39-0.62-0.64
			c-0.08-0.13-0.15-0.26-0.21-0.4c-0.06-0.14-0.11-0.29-0.14-0.44c-0.07-0.31-0.08-0.63-0.03-0.95c0.05-0.33,0.17-0.63,0.34-0.9
			c0.08-0.13,0.18-0.25,0.29-0.36c0.11-0.11,0.23-0.21,0.36-0.3c0.26-0.17,0.56-0.29,0.88-0.36c0.16-0.03,0.33-0.05,0.5-0.04
			c0.17,0,0.34,0.02,0.51,0.06c0.09,0.02,0.17,0.04,0.25,0.07c0.08,0.02,0.16,0.06,0.24,0.1c0.15,0.07,0.3,0.15,0.43,0.25
			c0.26,0.19,0.48,0.43,0.64,0.7c0.16,0.27,0.27,0.57,0.31,0.88C182.79,60.99,182.77,61.32,182.68,61.64z M188.71,63.93
			c-0.29,0.6-0.78,1.03-1.34,1.26c-0.56,0.23-1.18,0.24-1.76,0.02c-0.29-0.12-0.54-0.29-0.75-0.5c-0.1-0.1-0.2-0.22-0.29-0.34
			c-0.08-0.12-0.16-0.25-0.22-0.39c-0.12-0.27-0.19-0.57-0.21-0.88c-0.02-0.31,0.02-0.63,0.12-0.95c0.1-0.31,0.27-0.59,0.48-0.83
			c0.21-0.23,0.47-0.42,0.75-0.55c0.14-0.07,0.29-0.12,0.45-0.15c0.16-0.04,0.31-0.05,0.48-0.06c0.33-0.01,0.67,0.05,0.99,0.18
			c0.65,0.26,1.13,0.77,1.36,1.35C189.01,62.67,189,63.33,188.71,63.93z M194.3,67.16c-0.19,0.28-0.42,0.5-0.68,0.67
			c-0.13,0.08-0.27,0.16-0.41,0.21c-0.14,0.06-0.29,0.11-0.43,0.14c-0.3,0.07-0.59,0.08-0.89,0.03c-0.3-0.04-0.58-0.14-0.85-0.3
			c-0.27-0.16-0.49-0.37-0.66-0.61c-0.17-0.24-0.3-0.51-0.38-0.8c-0.08-0.29-0.1-0.6-0.07-0.91c0.03-0.31,0.12-0.62,0.28-0.92
			c0.15-0.29,0.36-0.54,0.61-0.74c0.24-0.2,0.53-0.34,0.83-0.42c0.3-0.08,0.62-0.1,0.95-0.06c0.32,0.05,0.64,0.16,0.95,0.34
			c0.3,0.19,0.55,0.42,0.74,0.68c0.19,0.27,0.32,0.57,0.38,0.87c0.04,0.15,0.05,0.31,0.06,0.46c0,0.16-0.02,0.31-0.05,0.47
			C194.62,66.59,194.49,66.89,194.3,67.16z M199.31,71.25c-0.23,0.24-0.5,0.42-0.78,0.55c-0.29,0.13-0.59,0.2-0.89,0.22
			c-0.15,0.01-0.3,0-0.45-0.01c-0.14-0.02-0.29-0.05-0.44-0.09c-0.28-0.09-0.55-0.24-0.78-0.44c-0.47-0.4-0.74-0.96-0.8-1.56
			c-0.06-0.59,0.1-1.24,0.49-1.77c0.4-0.53,0.98-0.85,1.61-0.91c0.62-0.07,1.29,0.12,1.83,0.58c0.27,0.22,0.47,0.5,0.62,0.79
			c0.07,0.14,0.13,0.29,0.17,0.45c0.04,0.15,0.07,0.31,0.07,0.47c0.02,0.31-0.03,0.63-0.14,0.92
			C199.71,70.74,199.54,71.01,199.31,71.25z M203.59,76.08c-0.53,0.4-1.18,0.55-1.77,0.49c-0.07,0-0.14-0.02-0.22-0.03
			c-0.07-0.01-0.15-0.03-0.22-0.05c-0.14-0.04-0.29-0.1-0.42-0.16c-0.07-0.03-0.13-0.07-0.19-0.11c-0.03-0.02-0.06-0.04-0.09-0.06
			c-0.03-0.02-0.06-0.04-0.09-0.07c-0.12-0.09-0.23-0.2-0.33-0.31c-0.05-0.06-0.1-0.12-0.14-0.19c-0.02-0.03-0.04-0.06-0.06-0.1
			c-0.02-0.03-0.04-0.07-0.06-0.1c-0.07-0.13-0.13-0.26-0.18-0.41c-0.05-0.14-0.07-0.29-0.09-0.44c-0.02-0.14-0.02-0.29-0.01-0.45
			c0.02-0.3,0.09-0.6,0.22-0.88c0.13-0.29,0.31-0.55,0.55-0.78c0.24-0.23,0.52-0.4,0.81-0.51c0.29-0.11,0.61-0.15,0.92-0.14
			c0.16,0.01,0.31,0.03,0.47,0.07c0.15,0.04,0.31,0.1,0.45,0.17c0.14,0.07,0.29,0.16,0.42,0.26c0.03,0.03,0.07,0.05,0.1,0.08
			c0.03,0.03,0.06,0.06,0.09,0.09c0.06,0.06,0.12,0.12,0.18,0.19c0.12,0.13,0.21,0.27,0.29,0.42c0.02,0.04,0.04,0.07,0.06,0.11
			c0.02,0.04,0.03,0.07,0.05,0.11c0.03,0.08,0.06,0.16,0.08,0.23c0.05,0.16,0.08,0.32,0.1,0.48c0.01,0.08,0.01,0.16,0.01,0.24
			c0,0.08,0,0.16-0.01,0.24C204.44,75.11,204.12,75.69,203.59,76.08z M207.05,81.54c-0.29,0.16-0.61,0.24-0.92,0.28
			c-0.15,0.01-0.31,0.01-0.46,0c-0.07,0-0.15-0.02-0.23-0.03c-0.07-0.01-0.15-0.03-0.22-0.05c-0.29-0.08-0.57-0.21-0.81-0.38
			c-0.24-0.17-0.45-0.39-0.61-0.66c-0.17-0.26-0.26-0.55-0.31-0.85c-0.02-0.15-0.03-0.29-0.02-0.44c0-0.15,0.02-0.3,0.06-0.45
			c0.03-0.14,0.08-0.29,0.14-0.43c0.06-0.14,0.13-0.28,0.22-0.41c0.17-0.26,0.39-0.49,0.67-0.68c0.28-0.19,0.57-0.31,0.88-0.38
			c0.15-0.03,0.31-0.04,0.47-0.04c0.15,0,0.31,0.02,0.46,0.06c0.15,0.03,0.3,0.08,0.45,0.14c0.14,0.07,0.29,0.14,0.42,0.24
			c0.26,0.19,0.5,0.44,0.68,0.74c0.18,0.3,0.29,0.62,0.34,0.95c0.04,0.32,0.02,0.64-0.06,0.95c-0.02,0.08-0.04,0.15-0.07,0.22
			c-0.03,0.07-0.06,0.14-0.1,0.21c-0.07,0.14-0.16,0.27-0.26,0.39C207.59,81.18,207.34,81.39,207.05,81.54z M209.58,87.48
			c-0.32,0.11-0.64,0.14-0.95,0.12c-0.31-0.02-0.62-0.1-0.89-0.22c-0.14-0.06-0.27-0.14-0.39-0.22c-0.03-0.02-0.06-0.04-0.09-0.07
			c-0.03-0.02-0.06-0.05-0.09-0.07c-0.06-0.05-0.11-0.1-0.17-0.15c-0.1-0.1-0.2-0.22-0.28-0.35c-0.04-0.06-0.08-0.13-0.11-0.19
			c-0.04-0.07-0.07-0.14-0.1-0.21c-0.06-0.14-0.1-0.29-0.13-0.44c-0.01-0.07-0.02-0.14-0.02-0.22c-0.01-0.07-0.01-0.14-0.01-0.22
			c0-0.3,0.07-0.59,0.18-0.87c0.22-0.55,0.65-1.05,1.25-1.34c0.6-0.29,1.26-0.3,1.85-0.07c0.29,0.12,0.56,0.3,0.79,0.52
			c0.06,0.06,0.12,0.12,0.17,0.18c0.05,0.06,0.1,0.13,0.14,0.2c0.1,0.14,0.17,0.29,0.24,0.45c0.03,0.08,0.06,0.16,0.09,0.24
			c0.02,0.08,0.04,0.17,0.06,0.25c0.03,0.17,0.04,0.33,0.04,0.5c0,0.08-0.01,0.16-0.02,0.24c0,0.04-0.01,0.08-0.02,0.12
			c-0.01,0.04-0.02,0.08-0.02,0.12c-0.04,0.16-0.09,0.31-0.15,0.45c-0.13,0.29-0.32,0.54-0.55,0.75
			C210.18,87.21,209.9,87.38,209.58,87.48z M211.12,93.76c-0.66,0.1-1.29-0.06-1.79-0.39c-0.26-0.17-0.48-0.37-0.64-0.62
			c-0.04-0.06-0.08-0.12-0.12-0.19c-0.04-0.06-0.07-0.13-0.1-0.2c-0.06-0.14-0.11-0.28-0.14-0.43c-0.02-0.07-0.03-0.15-0.04-0.23
			c-0.01-0.07-0.01-0.15-0.02-0.22c0-0.15,0.01-0.3,0.04-0.45c0.02-0.14,0.07-0.29,0.12-0.43c0.05-0.14,0.12-0.27,0.19-0.4
			c0.16-0.26,0.36-0.49,0.61-0.68c0.25-0.19,0.53-0.34,0.85-0.43s0.64-0.12,0.95-0.07c0.31,0.04,0.61,0.14,0.88,0.31
			c0.14,0.08,0.26,0.17,0.38,0.28c0.12,0.11,0.22,0.23,0.32,0.36c0.1,0.13,0.18,0.27,0.25,0.43c0.03,0.08,0.07,0.16,0.1,0.24
			c0.02,0.08,0.05,0.17,0.07,0.25c0.04,0.17,0.06,0.34,0.06,0.51c0,0.08,0,0.17-0.01,0.25c-0.01,0.08-0.02,0.17-0.03,0.24
			c-0.06,0.32-0.19,0.62-0.36,0.88C212.33,93.29,211.78,93.65,211.12,93.76z M211.64,100.19c-0.66,0-1.27-0.26-1.71-0.67
			c-0.11-0.1-0.21-0.21-0.3-0.33c-0.09-0.12-0.17-0.24-0.24-0.38c-0.13-0.26-0.21-0.56-0.23-0.87c-0.01-0.16,0-0.31,0.02-0.45
			c0.01-0.08,0.02-0.15,0.05-0.22c0.02-0.07,0.04-0.14,0.06-0.21c0.1-0.28,0.25-0.54,0.45-0.77c0.39-0.46,0.95-0.79,1.62-0.87
			c0.66-0.08,1.29,0.12,1.77,0.53c0.24,0.2,0.43,0.45,0.58,0.75c0.04,0.07,0.07,0.15,0.1,0.22c0.03,0.08,0.05,0.16,0.07,0.24
			c0.04,0.16,0.07,0.33,0.08,0.5c0.02,0.35-0.03,0.69-0.14,1c-0.05,0.15-0.12,0.3-0.21,0.43s-0.18,0.26-0.29,0.38
			C212.9,99.92,212.3,100.19,211.64,100.19z M154.78,48.5c0.3,0.3,0.53,0.65,0.69,1.04c0.17,0.39,0.24,0.8,0.24,1.23
			s-0.08,0.83-0.24,1.23c-0.16,0.39-0.39,0.74-0.69,1.04c-0.3,0.3-0.65,0.53-1.04,0.69c-0.4,0.17-0.81,0.24-1.23,0.24
			c-0.43,0-0.83-0.08-1.23-0.24c-0.39-0.16-0.74-0.39-1.04-0.69c-0.3-0.3-0.53-0.65-0.7-1.04c-0.16-0.4-0.24-0.81-0.24-1.23
			s0.08-0.83,0.24-1.23c0.17-0.39,0.4-0.74,0.7-1.04c0.3-0.3,0.65-0.53,1.04-0.7c0.39-0.16,0.8-0.24,1.23-0.24
			c0.43,0,0.83,0.08,1.23,0.24C154.13,47.96,154.48,48.2,154.78,48.5z M171.48,47.56c0,0-5.44-3.51,0-14.29
			C171.48,33.26,178.22,44.16,171.48,47.56z M164.53,52.15c0,0,9.15-4.18-1.05-13.07v3.94c0,0-6.8-5.47-10.98,0
			c0,0,6.8-0.02,8.89,9.13h1.57c0,0,1.83-5.71-4.96-9.13C158,43.02,164.53,44.3,164.53,52.15z M179.9,52.15
			c0,0-9.15-4.18,1.05-13.07v3.94c0,0,6.79-5.47,10.97,0c0,0-6.79-0.02-8.88,9.13h-1.57c0,0-1.83-5.71,4.97-9.13
			C186.43,43.02,179.9,44.3,179.9,52.15z M126.33,78.68c0,0.43-0.08,0.83-0.25,1.23c-0.16,0.39-0.39,0.74-0.69,1.04
			c-0.3,0.3-0.65,0.53-1.04,0.69c-0.39,0.17-0.8,0.24-1.23,0.24c-0.43,0-0.84-0.08-1.23-0.24c-0.39-0.16-0.74-0.39-1.04-0.69
			s-0.53-0.65-0.69-1.04c-0.17-0.4-0.25-0.81-0.25-1.23s0.08-0.83,0.25-1.23c0.16-0.39,0.39-0.74,0.69-1.04s0.65-0.53,1.04-0.7
			c0.39-0.16,0.8-0.24,1.23-0.24c0.43,0,0.83,0.08,1.23,0.24c0.39,0.17,0.74,0.4,1.04,0.7c0.3,0.3,0.53,0.65,0.69,1.04
			C126.25,77.84,126.33,78.25,126.33,78.68z M134.27,62.99c0,0-6.32,1.36-10.11-10.11C124.16,52.88,136.63,55.82,134.27,62.99z
			 M132.6,71.15c0,0,3.51-9.42-9.98-8.5l2.78,2.79c0,0-8.67,0.94-7.76,7.76c0,0,4.79-4.82,12.73,0.17l1.11-1.11
			c0,0-2.74-5.33-9.96-2.94C121.52,69.32,127.05,65.61,132.6,71.15z M143.46,60.29c0,0-9.42,3.51-8.5-9.98l2.78,2.79
			c0,0,0.94-8.67,7.76-7.76c0,0-4.82,4.79,0.17,12.73l-1.11,1.11c0,0-5.33-2.74-2.94-9.96C141.63,49.22,137.92,54.74,143.46,60.29z
			 M124.35,116.92c0.3,0.3,0.53,0.65,0.69,1.05c0.17,0.39,0.24,0.8,0.24,1.23s-0.08,0.83-0.24,1.23c-0.16,0.4-0.39,0.74-0.69,1.04
			c-0.3,0.3-0.65,0.53-1.04,0.7c-0.4,0.16-0.81,0.24-1.23,0.24s-0.83-0.08-1.23-0.24c-0.39-0.16-0.74-0.4-1.04-0.7
			c-0.3-0.3-0.53-0.64-0.7-1.04c-0.16-0.39-0.24-0.8-0.24-1.23s0.08-0.83,0.24-1.23c0.17-0.4,0.4-0.74,0.7-1.04
			c0.3-0.3,0.65-0.54,1.04-0.7c0.39-0.16,0.8-0.24,1.23-0.24s0.83,0.08,1.23,0.24C123.7,116.39,124.05,116.62,124.35,116.92z
			 M118.87,100.22c0,0-3.5,5.44-14.29,0C104.57,100.22,115.47,93.48,118.87,100.22z M123.46,107.17c0,0-4.18-9.15-13.07,1.05h3.95
			c0,0-5.47,6.79,0,10.97c0,0-0.02-6.79,9.12-8.88v-1.57c0,0-5.71-1.83-9.12,4.97C114.34,113.71,115.62,107.17,123.46,107.17z
			 M123.46,91.81c0,0-4.18,9.15-13.07-1.05h3.95c0,0-5.47-6.8,0-10.98c0,0-0.02,6.8,9.12,8.89v1.57c0,0-5.71,1.83-9.12-4.96
			C114.34,85.27,115.62,91.81,123.46,91.81z M153.2,148.58c0,0.43-0.08,0.83-0.25,1.23c-0.16,0.4-0.39,0.74-0.69,1.04
			c-0.3,0.3-0.65,0.53-1.04,0.7c-0.39,0.16-0.8,0.24-1.23,0.24c-0.43,0-0.84-0.08-1.23-0.24c-0.39-0.17-0.74-0.4-1.04-0.7
			c-0.3-0.3-0.53-0.64-0.69-1.04c-0.17-0.39-0.25-0.8-0.25-1.23c0-0.43,0.08-0.83,0.25-1.23c0.16-0.4,0.39-0.74,0.69-1.05
			c0.3-0.3,0.65-0.53,1.04-0.69c0.39-0.16,0.81-0.24,1.23-0.24c0.43,0,0.83,0.08,1.23,0.24c0.39,0.16,0.74,0.4,1.04,0.69
			c0.3,0.3,0.53,0.65,0.69,1.05C153.12,147.74,153.2,148.15,153.2,148.58z M134.31,137.43c0,0,1.36,6.33-10.11,10.11
			C124.2,147.54,127.13,135.07,134.31,137.43z M142.47,139.11c0,0-9.42-3.51-8.5,9.98l2.78-2.79c0,0,0.94,8.67,7.76,7.76
			c0,0-4.82-4.79,0.17-12.74l-1.11-1.11c0,0-5.33,2.74-2.94,9.96C140.64,150.17,136.92,144.65,142.47,139.11z M131.6,128.24
			c0,0,3.51,9.42-9.98,8.5l2.78-2.79c0,0-8.67-0.94-7.76-7.76c0,0,4.79,4.82,12.73-0.17l1.11,1.11c0,0-2.74,5.33-9.96,2.94
			C120.53,130.07,126.06,133.78,131.6,128.24z M192.77,147.35c0.3,0.3,0.53,0.64,0.7,1.04c0.16,0.39,0.24,0.8,0.24,1.23
			c0,0.43-0.08,0.83-0.24,1.23c-0.17,0.4-0.4,0.74-0.7,1.05c-0.3,0.3-0.64,0.53-1.04,0.69c-0.39,0.16-0.8,0.24-1.23,0.24
			c-0.43,0-0.83-0.08-1.23-0.24c-0.4-0.16-0.74-0.4-1.05-0.69c-0.3-0.3-0.53-0.65-0.69-1.05c-0.16-0.39-0.24-0.8-0.24-1.23
			c0-0.43,0.08-0.83,0.24-1.23c0.16-0.4,0.4-0.74,0.69-1.04c0.3-0.3,0.65-0.53,1.05-0.7c0.39-0.16,0.8-0.24,1.23-0.24
			c0.43,0,0.83,0.08,1.23,0.24C192.13,146.82,192.48,147.05,192.77,147.35z M171.53,152.83c0,0,5.44,3.51,0,14.3
			C171.53,167.13,164.79,156.23,171.53,152.83z M178.49,148.24c0,0-9.15,4.18,1.05,13.06v-3.94c0,0,6.79,5.47,10.97,0
			c0,0-6.79,0.02-8.88-9.12h-1.57c0,0-1.83,5.7,4.97,9.12C185.02,157.37,178.49,156.08,178.49,148.24z M163.12,148.24
			c0,0,9.15,4.18-1.05,13.06v-3.94c0,0-6.79,5.47-10.97,0c0,0,6.79,0.02,8.88-9.12h1.57c0,0,1.83,5.7-4.97,9.12
			C156.59,157.37,163.12,156.08,163.12,148.24z M223.1,121.71c0,0.43-0.08,0.83-0.24,1.23c-0.16,0.4-0.39,0.74-0.69,1.04
			c-0.3,0.3-0.65,0.53-1.04,0.7c-0.4,0.16-0.81,0.24-1.23,0.24c-0.43,0-0.83-0.08-1.23-0.24c-0.39-0.17-0.74-0.4-1.04-0.7
			c-0.3-0.3-0.53-0.64-0.7-1.04c-0.16-0.39-0.24-0.8-0.24-1.23s0.08-0.83,0.24-1.23c0.17-0.4,0.4-0.74,0.7-1.05
			c0.3-0.3,0.65-0.53,1.04-0.69c0.39-0.16,0.8-0.24,1.23-0.24c0.43,0,0.83,0.08,1.23,0.24c0.39,0.16,0.74,0.4,1.04,0.69
			c0.3,0.3,0.53,0.65,0.69,1.05C223.02,120.87,223.1,121.28,223.1,121.71z M208.75,137.4c0,0,6.33-1.37,10.11,10.11
			C218.85,147.51,206.38,144.56,208.75,137.4z M210.42,129.23c0,0-3.51,9.42,9.98,8.5l-2.79-2.79c0,0,8.67-0.94,7.76-7.76
			c0,0-4.79,4.82-12.73-0.17l-1.11,1.11c0,0,2.74,5.33,9.96,2.94C221.49,131.07,215.96,134.78,210.42,129.23z M199.55,140.1
			c0,0,9.42-3.51,8.5,9.98l-2.79-2.79c0,0-0.94,8.67-7.76,7.76c0,0,4.82-4.79-0.17-12.74l1.11-1.11c0,0,5.33,2.74,2.94,9.96
			C201.38,151.17,205.1,145.64,199.55,140.1z M223.21,78.92c0.3,0.3,0.53,0.65,0.69,1.04c0.16,0.39,0.24,0.8,0.24,1.23
			s-0.08,0.83-0.24,1.23c-0.16,0.39-0.4,0.74-0.69,1.04c-0.3,0.3-0.65,0.53-1.05,0.69c-0.39,0.17-0.8,0.24-1.23,0.24
			c-0.43,0-0.83-0.08-1.23-0.24c-0.4-0.16-0.74-0.39-1.04-0.69c-0.3-0.3-0.53-0.65-0.7-1.04c-0.16-0.4-0.24-0.81-0.24-1.23
			s0.08-0.83,0.24-1.23c0.17-0.39,0.4-0.74,0.7-1.04c0.3-0.3,0.64-0.53,1.04-0.7c0.39-0.16,0.8-0.24,1.23-0.24
			c0.43,0,0.83,0.08,1.23,0.24C222.56,78.39,222.9,78.62,223.21,78.92z M224.14,100.16c0,0,3.51-5.44,14.3,0
			C238.44,100.16,227.54,106.91,224.14,100.16z M219.56,93.22c0,0,4.18,9.14,13.06-1.05h-3.94c0,0,5.47-6.8,0-10.98
			c0,0,0.02,6.8-9.12,8.89v1.57c0,0,5.7,1.83,9.12-4.97C228.68,86.68,227.39,93.22,219.56,93.22z M219.56,108.58
			c0,0,4.18-9.15,13.06,1.05h-3.94c0,0,5.47,6.8,0,10.98c0,0,0.02-6.8-9.12-8.89v-1.57c0,0,5.7-1.83,9.12,4.97
			C228.68,115.12,227.39,108.58,219.56,108.58z M196.23,51.81c0,0.43-0.08,0.83-0.24,1.23c-0.16,0.39-0.39,0.74-0.69,1.04
			c-0.3,0.3-0.65,0.53-1.04,0.69c-0.4,0.17-0.81,0.24-1.23,0.24c-0.43,0-0.83-0.08-1.23-0.24c-0.39-0.16-0.74-0.39-1.04-0.69
			c-0.3-0.3-0.53-0.65-0.7-1.04c-0.16-0.4-0.24-0.81-0.24-1.23s0.08-0.83,0.24-1.23c0.17-0.39,0.4-0.74,0.7-1.04
			c0.3-0.3,0.65-0.53,1.04-0.7c0.39-0.16,0.8-0.24,1.23-0.24c0.43,0,0.83,0.08,1.23,0.24c0.39,0.17,0.74,0.4,1.04,0.7
			c0.3,0.3,0.53,0.65,0.69,1.04C196.15,50.97,196.23,51.38,196.23,51.81z M208.71,62.95c0,0-1.37-6.33,10.11-10.11
			C218.82,52.84,215.88,65.32,208.71,62.95z M200.55,61.28c0,0,9.42,3.51,8.5-9.98l-2.79,2.79c0,0-0.94-8.67-7.76-7.76
			c0,0,4.82,4.79-0.17,12.73l1.11,1.11c0,0,5.33-2.74,2.94-9.96C202.38,50.21,206.09,55.74,200.55,61.28z M211.41,72.15
			c0,0-3.51-9.42,9.98-8.5l-2.79,2.79c0,0,8.67,0.94,7.76,7.76c0,0-4.79-4.82-12.73,0.17l-1.11-1.11c0,0,2.74-5.33,9.96-2.94
			C222.48,70.31,216.96,66.6,211.41,72.15z M171.51,134.55c-4.64,0-9.14-0.91-13.37-2.7c-4.09-1.73-7.77-4.21-10.92-7.36
			c-3.15-3.16-5.63-6.83-7.36-10.92c-1.79-4.23-2.7-8.73-2.7-13.37c0-4.64,0.91-9.14,2.7-13.37c1.73-4.09,4.21-7.77,7.36-10.92
			c3.16-3.16,6.83-5.63,10.92-7.36c4.23-1.79,8.74-2.7,13.37-2.7c4.64,0,9.14,0.91,13.38,2.7c4.09,1.73,7.77,4.21,10.92,7.36
			c3.16,3.16,5.64,6.83,7.36,10.92c1.79,4.23,2.7,8.73,2.7,13.37c0,4.64-0.91,9.14-2.7,13.37c-1.73,4.09-4.21,7.77-7.36,10.92
			c-3.15,3.16-6.83,5.63-10.92,7.36C180.64,133.64,176.15,134.55,171.51,134.55z M171.51,68.52c-17.46,0-31.67,14.21-31.67,31.68
			c0,17.47,14.21,31.68,31.67,31.68c17.47,0,31.68-14.21,31.68-31.68C203.18,82.73,188.97,68.52,171.51,68.52z M171.51,147.35
			c-6.36,0-12.54-1.25-18.36-3.71c-2.79-1.18-5.49-2.64-8.01-4.35c-2.5-1.69-4.84-3.62-6.98-5.76c-2.13-2.13-4.07-4.48-5.76-6.98
			c-1.7-2.52-3.16-5.21-4.35-8.01c-2.46-5.81-3.71-11.99-3.71-18.36c0-6.37,1.25-12.54,3.71-18.36c1.18-2.8,2.64-5.49,4.35-8.01
			c1.69-2.5,3.63-4.85,5.76-6.98c2.14-2.14,4.48-4.07,6.98-5.76c2.52-1.7,5.22-3.16,8.01-4.35c5.82-2.46,11.99-3.71,18.36-3.71
			c6.37,0,12.54,1.25,18.36,3.71c2.8,1.18,5.49,2.64,8.01,4.35c2.5,1.69,4.85,3.62,6.98,5.76c2.13,2.13,4.07,4.48,5.75,6.98
			c1.7,2.52,3.17,5.21,4.35,8.01c2.46,5.81,3.71,11.99,3.71,18.36c0,6.37-1.25,12.54-3.71,18.36c-1.18,2.8-2.64,5.49-4.35,8.01
			c-1.69,2.5-3.62,4.85-5.75,6.98c-2.14,2.14-4.48,4.07-6.98,5.76c-2.52,1.7-5.21,3.16-8.01,4.35
			C184.05,146.1,177.87,147.35,171.51,147.35z M171.51,55.72c-24.52,0-44.47,19.95-44.47,44.47c0,24.52,19.95,44.47,44.47,44.47
			c24.52,0,44.47-19.95,44.47-44.47C215.98,75.67,196.03,55.72,171.51,55.72z"/>
		<path d="M165.68,92.33c0,0.3-0.06,0.59-0.17,0.86c-0.12,0.28-0.28,0.52-0.49,0.73c-0.21,0.21-0.45,0.38-0.73,0.49
			c-0.28,0.12-0.57,0.17-0.86,0.17c-0.3,0-0.59-0.06-0.86-0.17c-0.28-0.11-0.52-0.28-0.73-0.49c-0.21-0.21-0.37-0.45-0.49-0.73
			c-0.12-0.28-0.17-0.56-0.17-0.86c0-0.3,0.05-0.59,0.17-0.86c0.12-0.28,0.28-0.52,0.49-0.73c0.21-0.21,0.45-0.38,0.73-0.49
			c0.28-0.12,0.57-0.17,0.86-0.17c0.3,0,0.59,0.06,0.86,0.17c0.27,0.11,0.52,0.28,0.73,0.49c0.21,0.21,0.38,0.45,0.49,0.73
			C165.63,91.74,165.68,92.03,165.68,92.33z M165.68,108.05c0,0.3-0.06,0.59-0.17,0.86c-0.12,0.27-0.28,0.52-0.49,0.73
			c-0.21,0.21-0.45,0.38-0.73,0.49c-0.28,0.11-0.57,0.17-0.86,0.17c-0.3,0-0.59-0.06-0.86-0.17c-0.28-0.12-0.52-0.28-0.73-0.49
			c-0.21-0.21-0.37-0.45-0.49-0.73c-0.12-0.28-0.17-0.57-0.17-0.86c0-0.3,0.05-0.59,0.17-0.86s0.28-0.52,0.49-0.73
			c0.21-0.21,0.45-0.37,0.73-0.49c0.28-0.12,0.57-0.17,0.86-0.17c0.3,0,0.59,0.05,0.86,0.17c0.27,0.12,0.52,0.28,0.73,0.49
			c0.21,0.21,0.38,0.45,0.49,0.73C165.63,107.47,165.68,107.76,165.68,108.05z M181.83,92.33c0,0.3-0.06,0.59-0.17,0.86
			c-0.12,0.28-0.28,0.52-0.49,0.73c-0.21,0.21-0.45,0.38-0.73,0.49c-0.28,0.12-0.57,0.17-0.86,0.17s-0.59-0.06-0.86-0.17
			c-0.28-0.11-0.52-0.28-0.73-0.49c-0.21-0.21-0.37-0.45-0.49-0.73c-0.12-0.28-0.17-0.56-0.17-0.86c0-0.3,0.05-0.59,0.17-0.86
			c0.12-0.28,0.28-0.52,0.49-0.73c0.21-0.21,0.45-0.38,0.73-0.49c0.28-0.12,0.57-0.17,0.86-0.17s0.59,0.06,0.86,0.17
			c0.27,0.11,0.52,0.28,0.73,0.49c0.21,0.21,0.38,0.45,0.49,0.73C181.78,91.74,181.83,92.03,181.83,92.33z M181.83,108.05
			c0,0.3-0.06,0.59-0.17,0.86c-0.12,0.27-0.28,0.52-0.49,0.73c-0.21,0.21-0.45,0.38-0.73,0.49c-0.28,0.11-0.57,0.17-0.86,0.17
			s-0.59-0.06-0.86-0.17c-0.28-0.12-0.52-0.28-0.73-0.49c-0.21-0.21-0.37-0.45-0.49-0.73c-0.12-0.28-0.17-0.57-0.17-0.86
			c0-0.3,0.05-0.59,0.17-0.86s0.28-0.52,0.49-0.73c0.21-0.21,0.45-0.37,0.73-0.49c0.28-0.12,0.57-0.17,0.86-0.17
			s0.59,0.05,0.86,0.17c0.27,0.12,0.52,0.28,0.73,0.49c0.21,0.21,0.38,0.45,0.49,0.73C181.78,107.47,181.83,107.76,181.83,108.05z
			 M187.83,98.26h-30.86V83.71c0-1.07-0.87-1.94-1.94-1.94c-1.07,0-1.94,0.87-1.94,1.94v16.32c0,1.16,0.94,2.09,2.1,2.09h30.86
			v14.54c0,1.07,0.87,1.94,1.94,1.94s1.94-0.87,1.94-1.94v-16.32C189.92,99.19,188.99,98.26,187.83,98.26z M187.99,81.78h-16.32
			c-1.16,0-2.1,0.94-2.1,2.1v30.86h-14.54c-1.07,0-1.94,0.87-1.94,1.94c0,1.07,0.87,1.94,1.94,1.94h16.32c1.16,0,2.09-0.94,2.09-2.1
			V85.65h14.54c1.07,0,1.94-0.87,1.94-1.94C189.92,82.64,189.06,81.78,187.99,81.78z"/>
	</g>
</g>
<g id="Layer_14">
</g>
<g id="Layer_15">
</g>
</svg>
