<?xml version="1.0" encoding="utf-8"?>
<!-- Generator: Adobe Illustrator 27.8.1, SVG Export Plug-In . SVG Version: 6.00 Build 0)  -->
<svg version="1.1" xmlns="http://www.w3.org/2000/svg" xmlns:xlink="http://www.w3.org/1999/xlink" x="0px" y="0px"
	 viewBox="0 0 350 230" style="enable-background:new 0 0 350 230;" xml:space="preserve">
<style type="text/css">
	.st0{fill:#F9E4D9;}
	.st1{fill:#DAF5F7;}
	.st2{fill:#D9F4E5;}
	.st3{fill:#E6F4D9;}
	.st4{fill:#F4E6D9;}
	.st5{fill:#E6E6FF;}
	.st6{fill:#F2F0DA;}
	.st7{fill:#F4EDD9;}
	.st8{fill:#DCFEFF;}
	.st9{fill:#4C2400;}
	.st10{fill:#FFDCC0;}
	.st11{fill:#32D3F3;}
	.st12{fill:#EAE9CE;}
	.st13{fill:#E4E5CF;}
	.st14{fill:#BFF6F7;}
	.st15{fill:#70D699;}
	.st16{fill:#D2F9F8;}
	.st17{fill:#F4F4D9;}
	.st18{fill:#CBCCB4;}
	.st19{fill:#F0D9F4;}
	.st20{fill:#C7FEFF;}
	.st21{fill:#CCFFFE;}
	.st22{fill:#CCFFE1;}
	.st23{fill:#231F20;}
	.st24{fill:#1C75BC;stroke:#F1F2F2;stroke-miterlimit:10;}
	.st25{fill:#FFFFFF;stroke:#F1F2F2;stroke-miterlimit:10;}
	.st26{fill:#FFC648;stroke:#F1F2F2;stroke-miterlimit:10;}
	.st27{fill:#825300;}
	.st28{fill:#AF2300;}
	.st29{fill:#AE6529;}
	.st30{fill:#A09F47;}
	.st31{fill:#003D50;}
	.st32{fill:#821600;}
	.st33{fill:#660C02;}
	.st34{fill:#974200;}
	.st35{fill:#725200;}
	.st36{fill:#AA5B08;}
	.st37{fill:#2B3990;}
	.st38{fill:#877F00;}
	.st39{fill:#9F00FF;}
	.st40{fill:#15FF00;}
	.st41{fill:#8D6195;}
	.st42{fill:#FFBA7B;}
	.st43{fill:#40006D;}
	.st44{fill:#8FD6D8;}
	.st45{fill:#A27021;}
	.st46{fill:#BC8200;}
	.st47{fill-rule:evenodd;clip-rule:evenodd;fill:#00245E;}
	.st48{fill:#AF1900;}
	.st49{fill-rule:evenodd;clip-rule:evenodd;fill:#877F00;}
	.st50{fill-rule:evenodd;clip-rule:evenodd;}
	.st51{fill:#00F9FF;}
	.st52{fill:#FFC648;}
	.st53{fill:#1C75BC;}
	.st54{clip-path:url(#SVGID_00000114757911432644517570000014350137603892348304_);fill:#369694;}
	.st55{fill:#F4A64E;}
	.st56{fill-rule:evenodd;clip-rule:evenodd;fill:#974200;}
	.st57{fill-rule:evenodd;clip-rule:evenodd;fill:#901E2E;}
	.st58{fill-rule:evenodd;clip-rule:evenodd;fill:#002D00;}
	.st59{fill-rule:evenodd;clip-rule:evenodd;fill:#B1CFC7;}
	.st60{fill:#FFD747;}
	.st61{fill:#074C00;}
	.st62{fill:#012A3F;}
	.st63{fill-rule:evenodd;clip-rule:evenodd;fill:#00F9FF;}
	.st64{fill:url(#SVGID_00000143595257997967353990000007802999932147027593_);}
	.st65{fill:url(#SVGID_00000050636474139459491560000003456045350720762796_);}
	.st66{fill:url(#SVGID_00000006688457432699701010000015726652752616148923_);}
	.st67{fill:url(#SVGID_00000174603956079285888470000012650537658479392932_);}
	.st68{fill:url(#SVGID_00000072279141099406490020000014657663131542348730_);}
	.st69{fill:url(#SVGID_00000029037219794853035770000007182628302655339179_);}
	.st70{fill:url(#SVGID_00000014604199326142087080000012325344521379098792_);}
	.st71{fill:url(#SVGID_00000062909995270275898000000004501384117595777709_);}
	.st72{fill:url(#SVGID_00000140009055830972207980000005427372295779474826_);}
	.st73{fill:url(#SVGID_00000160880769231122461740000001211474497810952100_);}
	.st74{fill:#39B54A;}
	.st75{fill:url(#SVGID_00000020376677722784090330000007802911816444707994_);}
	.st76{fill:url(#SVGID_00000005232407929272612450000017508134756956253580_);}
	.st77{fill:#C49A6C;}
	.st78{fill:url(#SVGID_00000155830576102218420850000001437209645011155390_);}
	.st79{fill:#004580;}
	.st80{fill:url(#SVGID_00000013159384118734904200000009096641253792556688_);}
	.st81{fill:url(#SVGID_00000004504369480458876760000001043391089945971342_);}
	.st82{fill:url(#SVGID_00000013185126467619529970000014304512264961347741_);}
	.st83{fill:#589179;}
	.st84{fill:#57898E;}
	.st85{fill:url(#SVGID_00000011753287744458291760000012485659654524636049_);}
	.st86{fill:url(#SVGID_00000043424980521572184630000004136132565685375675_);}
	.st87{fill:#262262;}
	.st88{fill:#24A8F0;}
	.st89{fill:url(#SVGID_00000021836527442519418890000004658937021656451717_);}
	.st90{fill:url(#SVGID_00000040548441181551831540000006102140293720424349_);}
</style>
<g id="Layer_1">
</g>
<g id="Layer_2">
</g>
<g id="Layer_3">
</g>
<g id="Layer_4">
</g>
<g id="Layer_5">
</g>
<g id="Layer_6">
</g>
<g id="Layer_7">
</g>
<g id="Layer_8">
</g>
<g id="Layer_9">
</g>
<g id="Layer_10">
</g>
<g id="Layer_11">
</g>
<g id="Layer_12">
</g>
<g id="Layer_13">
</g>
<g id="Layer_14">
</g>
<g id="Layer_15">
	
		<radialGradient id="SVGID_00000128447313044120761990000000087154666287548588_" cx="175.0002" cy="96.3384" r="61.8456" gradientUnits="userSpaceOnUse">
		<stop  offset="0" style="stop-color:#C49A6C"/>
		<stop  offset="0.1401" style="stop-color:#A9835B"/>
		<stop  offset="0.4178" style="stop-color:#7B5A3D"/>
		<stop  offset="0.6637" style="stop-color:#583D27"/>
		<stop  offset="0.8662" style="stop-color:#442B1A"/>
		<stop  offset="1" style="stop-color:#3C2415"/>
	</radialGradient>
	<path style="fill:url(#SVGID_00000128447313044120761990000000087154666287548588_);" d="M114.99,92.15
		c1.1-21.93,12.09-40.39,34.78-50.22c21.97-9.52,42.74-5.72,60.63,10.19c13.61,12.1,17.98,28.26,17.41,45.96
		c-0.29,8.86-2.32,17.37-6.22,25.38c-5.97,12.27-15.3,20.81-28.35,24.95c-16.85,5.34-33.69,5.5-49.09-3.88
		C126.14,133.56,115.38,116.49,114.99,92.15z M202.81,133.46c-9.84-6.09-19.69-12.23-29.61-18.23c-0.66-0.4-2.16-0.16-2.85,0.35
		c-8.67,6.44-17.26,12.98-25.87,19.5C157.28,146.52,192.09,145.46,202.81,133.46z M126.67,75.72c10.24-0.35,20.31-0.64,30.38-1.13
		c0.83-0.04,1.98-1.26,2.34-2.18c2.19-5.71,4.17-11.49,6.27-17.23c1.18-3.22,2.47-6.4,3.73-9.66
		C153.83,43.78,131.26,59.87,126.67,75.72z M137.86,129.74c3.73-9.88,7.46-19.73,11.23-29.7c-8.55-5.3-16.81-10.41-25.08-15.53
		C119.15,97.63,126.65,122.23,137.86,129.74z M173.32,79.82c0,0.1,0,0.19,0,0.29c-2.86,0-5.73-0.17-8.56,0.09
		c-1.02,0.1-2.43,1.05-2.82,1.96c-1.86,4.41-3.32,8.99-5.15,13.41c-0.78,1.89-0.18,2.74,1.33,3.68c3.99,2.46,7.98,4.95,11.84,7.61
		c1.48,1.02,2.47,0.79,3.77-0.17c4.66-3.47,9.45-6.78,14.03-10.35c0.73-0.57,1.16-2.29,0.88-3.23c-1.13-3.8-2.47-7.56-4.01-11.22
		c-0.38-0.91-1.76-1.87-2.76-1.96C179.05,79.65,176.18,79.82,173.32,79.82z M208.2,128.23c11.09-11.69,14.28-35.46,9.29-47.19
		c-7.05,5.44-14.11,10.88-21.12,16.29c3.82,10.17,7.57,20.18,11.34,30.19C207.8,127.78,208.02,127.99,208.2,128.23z M214.8,72.99
		c-3.69-13.17-23.69-27.99-36.65-27.11c2.92,8.56,5.92,17.09,8.7,25.7c0.67,2.07,1.63,2.65,3.69,2.54
		C198.57,73.66,206.61,73.35,214.8,72.99z M201.48,127.18c-3.57-9.24-6.88-17.8-10.3-26.66c-4.98,3.5-9.68,6.81-14.73,10.37
		C184.9,116.39,192.87,121.58,201.48,127.18z M156.62,80.32c-9.29,0-17.96,0-26.63,0c-0.09,0.19-0.17,0.37-0.26,0.56
		c7.07,4.54,14.14,9.08,21.44,13.77C153.03,89.75,154.72,85.32,156.62,80.32z M165.09,74.21c5.76,0,11.08,0,16.85,0
		c-2.68-7.86-5.19-15.22-7.9-23.2C170.92,59.09,168.05,66.53,165.09,74.21z M154,103.17c-2.83,7.48-5.51,14.57-8.18,21.66
		c0.2,0.13,0.4,0.27,0.59,0.4c6.7-4.62,13.4-9.25,20.37-14.06C162.4,108.44,158.44,105.95,154,103.17z M194.03,91.63
		c5.79-3.86,11.27-7.51,17.4-11.58c-7.59,0-14.4,0-21.66,0C191.25,84.06,192.59,87.71,194.03,91.63z M219.92,138.43
		c14.51-16.77,20.31-52.46,9.5-62.95c0.43,1.82,0.64,2.95,0.96,4.04c2.55,8.64,3.43,17.4,1.92,26.33
		c-6.61,39.04-40.74,54.87-69.46,50.27c-1.62-0.26-3.28-0.25-4.93-0.37C170.23,166.19,204.65,156.08,219.92,138.43z M229.03,67.99
		c-4.8-11.53-12.67-20.54-23.43-27.14c-9.36-5.74-25.02-9.79-28.86-7.5c23.76,2.09,40.43,14.5,51.11,35.62
		C228.24,68.65,228.63,68.32,229.03,67.99z M134.37,70.05c7.37-8.94,16.47-15.36,27.5-19.05C154.5,49.64,136.04,62.52,134.37,70.05z
		"/>
</g>
</svg>
