<?xml version="1.0" encoding="utf-8"?>
<!-- Generator: Adobe Illustrator 27.8.1, SVG Export Plug-In . SVG Version: 6.00 Build 0)  -->
<svg version="1.1" xmlns="http://www.w3.org/2000/svg" xmlns:xlink="http://www.w3.org/1999/xlink" x="0px" y="0px"
	 viewBox="0 0 350 230" style="enable-background:new 0 0 350 230;" xml:space="preserve">
<style type="text/css">
	.st0{fill:#F9E4D9;}
	.st1{fill:#DAF5F7;}
	.st2{fill:#D9F4E5;}
	.st3{fill:#E6F4D9;}
	.st4{fill:#F4E6D9;}
	.st5{fill:#E6E6FF;}
	.st6{fill:#F2F0DA;}
	.st7{fill:#F4EDD9;}
	.st8{fill:#DCFEFF;}
	.st9{fill:#4C2400;}
	.st10{fill:#FFDCC0;}
	.st11{fill:#32D3F3;}
	.st12{fill:#EAE9CE;}
	.st13{fill:#E4E5CF;}
	.st14{fill:#BFF6F7;}
	.st15{fill:#70D699;}
	.st16{fill:#D2F9F8;}
	.st17{fill:#F4F4D9;}
	.st18{fill:#CBCCB4;}
	.st19{fill:#F0D9F4;}
	.st20{fill:#C7FEFF;}
	.st21{fill:#CCFFFE;}
	.st22{fill:#CCFFE1;}
	.st23{fill:#231F20;}
	.st24{fill:#1C75BC;stroke:#F1F2F2;stroke-miterlimit:10;}
	.st25{fill:#FFFFFF;stroke:#F1F2F2;stroke-miterlimit:10;}
	.st26{fill:#FFC648;stroke:#F1F2F2;stroke-miterlimit:10;}
	.st27{fill:#825300;}
	.st28{fill:#AF2300;}
	.st29{fill:#AE6529;}
	.st30{fill:#A09F47;}
	.st31{fill:#003D50;}
	.st32{fill:#821600;}
	.st33{fill:#660C02;}
	.st34{fill:#974200;}
	.st35{fill:#725200;}
	.st36{fill:#AA5B08;}
	.st37{fill:#2B3990;}
	.st38{fill:#877F00;}
	.st39{fill:#9F00FF;}
	.st40{fill:#15FF00;}
	.st41{fill:#8D6195;}
	.st42{fill:#FFBA7B;}
	.st43{fill:#40006D;}
	.st44{fill:#8FD6D8;}
	.st45{fill:#A27021;}
	.st46{fill:#BC8200;}
	.st47{fill-rule:evenodd;clip-rule:evenodd;fill:#00245E;}
	.st48{fill:#AF1900;}
	.st49{fill-rule:evenodd;clip-rule:evenodd;fill:#877F00;}
	.st50{fill-rule:evenodd;clip-rule:evenodd;}
	.st51{fill:#00F9FF;}
	.st52{fill:#FFC648;}
	.st53{fill:#1C75BC;}
	.st54{clip-path:url(#SVGID_00000113349993597820084820000010682091317920544170_);fill:#369694;}
	.st55{fill:#F4A64E;}
	.st56{fill-rule:evenodd;clip-rule:evenodd;fill:#974200;}
	.st57{fill-rule:evenodd;clip-rule:evenodd;fill:#901E2E;}
	.st58{fill-rule:evenodd;clip-rule:evenodd;fill:#002D00;}
	.st59{fill-rule:evenodd;clip-rule:evenodd;fill:#B1CFC7;}
	.st60{fill:#FFD747;}
	.st61{fill:#074C00;}
	.st62{fill:#012A3F;}
	.st63{fill-rule:evenodd;clip-rule:evenodd;fill:#00F9FF;}
	.st64{fill:url(#SVGID_00000036950736182341171180000016001771860876759231_);}
	.st65{fill:url(#SVGID_00000119083627875895669010000012531524074134748810_);}
	.st66{fill:url(#SVGID_00000142880708581510818630000012513307699602527123_);}
	.st67{fill:url(#SVGID_00000183212004151056609180000012527326023644414614_);}
	.st68{fill:url(#SVGID_00000182529577251385028870000009063777876504685712_);}
	.st69{fill:url(#SVGID_00000105395654923734527060000002322011796420969115_);}
	.st70{fill:url(#SVGID_00000146457886499309911850000013158776073696344475_);}
	.st71{fill:url(#SVGID_00000080195452646652676980000011932822424881857448_);}
	.st72{fill:url(#SVGID_00000047764442447682383210000008462633436985489834_);}
	.st73{fill:url(#SVGID_00000052087904898131224200000014116177383951992509_);}
	.st74{fill:#39B54A;}
	.st75{fill:url(#SVGID_00000114062898182740752470000003553707658867903657_);}
	.st76{fill:url(#SVGID_00000021818460838135553710000007326791324010688185_);}
	.st77{fill:#C49A6C;}
	.st78{fill:url(#SVGID_00000167369654796502885530000014215052754129172125_);}
	.st79{fill:#004580;}
	.st80{fill:url(#SVGID_00000147222143415871345670000002400417557498447525_);}
	.st81{fill:url(#SVGID_00000100377641751135937090000011103176145793688221_);}
	.st82{fill:url(#SVGID_00000031901346210615611160000006792771783932433064_);}
	.st83{fill:#589179;}
	.st84{fill:#57898E;}
	.st85{fill:url(#SVGID_00000033344399094941652080000002623191911466279808_);}
	.st86{fill:url(#SVGID_00000063599107817599862970000005464840310422958759_);}
	.st87{fill:#262262;}
	.st88{fill:#24A8F0;}
	.st89{fill:url(#SVGID_00000177485498450329179100000011504842293101450671_);}
	.st90{fill:url(#SVGID_00000103223280555535121430000011788552279540469382_);}
</style>
<g id="Layer_1">
</g>
<g id="Layer_2">
</g>
<g id="Layer_3">
</g>
<g id="Layer_4">
</g>
<g id="Layer_5">
</g>
<g id="Layer_6">
</g>
<g id="Layer_7">
</g>
<g id="Layer_8">
</g>
<g id="Layer_9">
</g>
<g id="Layer_10">
</g>
<g id="Layer_11">
</g>
<g id="Layer_12">
</g>
<g id="Layer_13">
</g>
<g id="Layer_14">
</g>
<g id="Layer_15">
	
		<radialGradient id="SVGID_00000025430002634371841090000012674089136846422673_" cx="175" cy="101.5296" r="69.2631" gradientUnits="userSpaceOnUse">
		<stop  offset="0" style="stop-color:#F15A29"/>
		<stop  offset="1" style="stop-color:#F7941D"/>
	</radialGradient>
	<path style="fill:url(#SVGID_00000025430002634371841090000012674089136846422673_);" d="M169.07,171.97
		c-9.81,0.46-18.4-2.23-26.43-8.41c7.28,1.87,14.06,3.61,21.03,5.4c-1.33-9.36-20.16-25.53-31.65-27.49
		c6.84,8.38,16.52,13.25,24.34,21.2c-1.18-0.23-1.77-0.29-2.33-0.45c-5.33-1.6-10.77-2.94-15.96-4.91
		c-10.78-4.09-17.73-12.45-23.14-22.16c-16.7-29.97-6.27-68.34,23.53-87.23c5.37-3.41,11.08-6.02,17.24-7.6
		c0.76-0.2,1.55-0.3,2.61-0.49c0,1.29-0.1,2.35,0.02,3.38c0.22,1.8-0.52,2.51-2.27,3.03c-15.25,4.49-26.73,13.88-34.09,27.83
		c-10.44,19.77-8.29,45.64,11.98,61.44c5.39,4.2,11.7,7.2,17.59,10.76C159.86,151.28,167.99,163.13,169.07,171.97z M185.8,168.13
		c6.45-13.71,17.97-21.43,31.62-26.61c-6.34,8.31-15.76,13.13-23.06,20.46c3.49-0.61,6.88-1.43,10.26-2.28
		c12.41-3.15,21.85-10.51,28.33-21.31c13.03-21.72,13.37-44.03,1.22-66.15c-8.82-16.05-22.26-26.83-40.09-31.8
		c-0.89-0.25-1.83-0.29-2.76-0.43c0.11,2.04,0.2,3.74,0.29,5.42c16.65,5.46,28.16,14.39,35.64,27.62
		c11.07,19.58,8.27,42.97-6.86,58.37c-5.21,5.3-11.56,8.84-18,12.27c-4.92,2.62-9.15,6.05-12.77,10.24
		c-4.44,5.15-7.46,11.05-9.21,17.67c8.94,1.14,22.12-3.01,25.51-7.78c-6.46,1.7-13.07,3.43-19.69,5.17
		C186.08,168.7,185.94,168.42,185.8,168.13z M183.23,131.12c0.69-1,1.15-2.36,1.2-3.57c0.25-6.11,1.88-11.74,5.06-17
		c2.37-3.92,4.74-7.9,6.51-12.12c3.88-9.27,2.03-14.01-4.56-18.38c-2.39-1.58-4.63-3.39-6.89-5.16c-3.1-2.43-5.4-5.48-6.64-9.25
		c-0.82-2.49-1.58-5-2.39-7.49c-0.15-0.46-0.44-0.87-0.84-1.63c-0.67,2.23-1.27,4.02-1.73,5.84c-1.54,6.07-4.9,10.82-10.08,14.34
		c-2.17,1.47-4.28,3.04-6.35,4.65c-3.4,2.64-5.41,6.08-4.61,10.45c0.55,3.03,1.39,6.12,2.76,8.86c2.45,4.89,5.4,9.52,7.92,13.9
		c2.17-2.97,4.44-6.1,6.8-9.32c-1.38-0.94-3.13-1.98-4.71-3.24c-8.02-6.34-8.3-14.25-0.6-20.69c4.56-3.81,8.3-8.12,10.46-13.71
		c0.06-0.16,0.37-0.22,0.63-0.36c1.96,5.66,5.41,10.14,10.04,13.76c1.29,1.01,2.63,2.03,3.63,3.3c0.97,1.24,1.98,2.75,2.16,4.25
		c0.57,4.56-0.67,8.83-4.3,11.72c-2.63,2.1-5.83,3.54-8.9,5.04c-4.5,2.21-8.18,5.34-10.3,9.83c-2.84,6.02-4.31,12.06,0.33,18.22
		c2.12,2.82,3.37,6.35,4.76,9.66c0.96,2.3,1.49,4.78,2.22,7.19C176.49,143.28,179.23,136.95,183.23,131.12z M177.62,167.43
		c4.24-14.22,13.77-23.67,26.89-29.92c12.32-5.87,20.51-15.31,24.02-28.53c1.18-4.43,1.62-9.06,2.4-13.59
		c-0.27-0.09-0.53-0.18-0.8-0.26c-4.07,7.02-10.49,11.22-17.29,15.12c-4.04,2.31-7.89,5.01-11.59,7.84
		c-16.51,12.57-23.84,29.65-24.01,50.19C177.36,167.98,177.53,167.72,177.62,167.43z M172.81,168.24c-0.13-1.7-0.28-3.4-0.4-5.11
		c-1.02-14.66-6.18-27.55-16.38-38.29c-6.28-6.61-13.83-11.56-21.63-16.08c-5.94-3.44-11.12-7.51-14.61-13.5
		c-0.04-0.07-0.28-0.04-0.78-0.1c0.27,2.66,0.38,5.27,0.83,7.82c2.5,14.33,9.4,25.7,22.4,32.9c2.87,1.59,5.66,3.31,8.54,4.87
		c10.59,5.7,17.25,14.59,21.09,25.8c0.2,0.59,0.45,1.17,0.67,1.76C172.63,168.29,172.72,168.27,172.81,168.24z M174.82,31.04
		c-5.22-0.16-9.82,4.22-9.94,9.48c-0.14,5.8,3.68,10.39,8.74,10.52c7.07,0.18,11.01-3.4,11.16-10.13
		C184.89,35.32,180.76,31.22,174.82,31.04z M181.82,93.59c0-3.85-3.08-6.8-7.14-6.86c-3.67-0.05-6.84,3.06-6.95,6.82
		c-0.11,4,2.89,7.43,6.54,7.46C178.94,101.06,181.83,98.22,181.82,93.59z"/>
</g>
</svg>
