<?xml version="1.0" encoding="utf-8"?>
<!-- Generator: Adobe Illustrator 27.8.1, SVG Export Plug-In . SVG Version: 6.00 Build 0)  -->
<svg version="1.1" xmlns="http://www.w3.org/2000/svg" xmlns:xlink="http://www.w3.org/1999/xlink" x="0px" y="0px"
	 viewBox="0 0 350 230" style="enable-background:new 0 0 350 230;" xml:space="preserve">
<style type="text/css">
	.st0{fill:#F9E4D9;}
	.st1{fill:#DAF5F7;}
	.st2{fill:#D9F4E5;}
	.st3{fill:#E6F4D9;}
	.st4{fill:#F4E6D9;}
	.st5{fill:#E6E6FF;}
	.st6{fill:#F2F0DA;}
	.st7{fill:#F4EDD9;}
	.st8{fill:#DCFEFF;}
	.st9{fill:#4C2400;}
	.st10{fill:#FFDCC0;}
	.st11{fill:#32D3F3;}
	.st12{fill:#EAE9CE;}
	.st13{fill:#E4E5CF;}
	.st14{fill:#BFF6F7;}
	.st15{fill:#70D699;}
	.st16{fill:#D2F9F8;}
	.st17{fill:#F4F4D9;}
	.st18{fill:#CBCCB4;}
	.st19{fill:#F0D9F4;}
	.st20{fill:#C7FEFF;}
	.st21{fill:#CCFFFE;}
	.st22{fill:#CCFFE1;}
	.st23{fill:#231F20;}
	.st24{fill:#1C75BC;stroke:#F1F2F2;stroke-miterlimit:10;}
	.st25{fill:#FFFFFF;stroke:#F1F2F2;stroke-miterlimit:10;}
	.st26{fill:#FFC648;stroke:#F1F2F2;stroke-miterlimit:10;}
	.st27{fill:#825300;}
	.st28{fill:#AF2300;}
	.st29{fill:#AE6529;}
	.st30{fill:#A09F47;}
	.st31{fill:#003D50;}
	.st32{fill:#821600;}
	.st33{fill:#660C02;}
	.st34{fill:#974200;}
	.st35{fill:#725200;}
	.st36{fill:#AA5B08;}
	.st37{fill:#2B3990;}
	.st38{fill:#877F00;}
	.st39{fill:#9F00FF;}
	.st40{fill:#15FF00;}
	.st41{fill:#8D6195;}
	.st42{fill:#FFBA7B;}
	.st43{fill:#40006D;}
	.st44{fill:#8FD6D8;}
	.st45{fill:#A27021;}
	.st46{fill:#BC8200;}
	.st47{fill-rule:evenodd;clip-rule:evenodd;fill:#00245E;}
	.st48{fill:#AF1900;}
	.st49{fill-rule:evenodd;clip-rule:evenodd;fill:#877F00;}
	.st50{fill-rule:evenodd;clip-rule:evenodd;}
	.st51{fill:#00F9FF;}
	.st52{fill:#FFC648;}
	.st53{fill:#1C75BC;}
	.st54{clip-path:url(#SVGID_00000132801512445863396670000003690860539691643269_);fill:#369694;}
	.st55{fill:#F4A64E;}
	.st56{fill-rule:evenodd;clip-rule:evenodd;fill:#974200;}
	.st57{fill-rule:evenodd;clip-rule:evenodd;fill:#901E2E;}
	.st58{fill-rule:evenodd;clip-rule:evenodd;fill:#002D00;}
	.st59{fill-rule:evenodd;clip-rule:evenodd;fill:#B1CFC7;}
	.st60{fill:#FFD747;}
	.st61{fill:#074C00;}
	.st62{fill:#012A3F;}
	.st63{fill-rule:evenodd;clip-rule:evenodd;fill:#00F9FF;}
	.st64{fill:url(#SVGID_00000047738427428093457450000016011658380208378043_);}
	.st65{fill:url(#SVGID_00000047779274289146653590000006647342318556870279_);}
	.st66{fill:url(#SVGID_00000181774434413500859380000013671161700804229285_);}
	.st67{fill:url(#SVGID_00000097467772667923831140000014585028146716146843_);}
	.st68{fill:url(#SVGID_00000132771100446274471490000011565252506132696469_);}
	.st69{fill:url(#SVGID_00000032624666819764689700000009697556766042162589_);}
	.st70{fill:url(#SVGID_00000153671032088545029400000003552444598509586360_);}
	.st71{fill:url(#SVGID_00000015355023696958587420000009198823926934177185_);}
	.st72{fill:url(#SVGID_00000054253975741169083360000009785652183458992568_);}
	.st73{fill:url(#SVGID_00000035512648547948723740000000553790716177676451_);}
	.st74{fill:#39B54A;}
	.st75{fill:url(#SVGID_00000074423320066189981600000012506831610538847896_);}
	.st76{fill:url(#SVGID_00000117641529887410919760000001017395253707446955_);}
	.st77{fill:#C49A6C;}
	.st78{fill:url(#SVGID_00000127011098680353621020000013125851066252633729_);}
	.st79{fill:#004580;}
	.st80{fill:url(#SVGID_00000035489014837572777230000017080906093483957422_);}
	.st81{fill:url(#SVGID_00000168830034923270677420000007821254679319026837_);}
	.st82{fill:url(#SVGID_00000011750541406322135460000009203408444339101319_);}
	.st83{fill:#589179;}
	.st84{fill:#57898E;}
	.st85{fill:url(#SVGID_00000106852654056724877060000012579477737420852655_);}
	.st86{fill:url(#SVGID_00000129183755471218068410000009521610710279183767_);}
	.st87{fill:#262262;}
	.st88{fill:#24A8F0;}
	.st89{fill:url(#SVGID_00000045578847274135170580000002382123229388273293_);}
	.st90{fill:url(#SVGID_00000070812388338574270640000006845230552307192227_);}
</style>
<g id="Layer_1">
</g>
<g id="Layer_2">
</g>
<g id="Layer_3">
</g>
<g id="Layer_4">
</g>
<g id="Layer_5">
</g>
<g id="Layer_6">
</g>
<g id="Layer_7">
</g>
<g id="Layer_8">
</g>
<g id="Layer_9">
</g>
<g id="Layer_10">
</g>
<g id="Layer_11">
</g>
<g id="Layer_12">
</g>
<g id="Layer_13">
</g>
<g id="Layer_14">
</g>
<g id="Layer_15">
	
		<linearGradient id="SVGID_00000096772108660609333410000007251741590822161558_" gradientUnits="userSpaceOnUse" x1="143.0084" y1="56.0951" x2="192.023" y2="162.2448">
		<stop  offset="0" style="stop-color:#F7DF74"/>
		<stop  offset="1" style="stop-color:#916221"/>
	</linearGradient>
	<path style="fill:url(#SVGID_00000096772108660609333410000007251741590822161558_);" d="M96.5,131.27l-3.92-5.89
		c54.59-1.25,78.23,29.2,78.23,29.2C143.26,129.23,96.5,131.27,96.5,131.27z M98.94,134.71l4.04,9.04c0,0,34.01,4.82,65.23,22.12
		c0,0-0.27,5.44,6.78,5.44c7.05,0,6.78-5.44,6.78-5.44c31.22-17.3,65.23-22.12,65.23-22.12l4.04-9.04
		C204.2,136.56,175,158.74,175,158.74S145.8,136.56,98.94,134.71z M179.19,154.58c27.56-25.35,74.31-23.31,74.31-23.31l3.92-5.89
		C202.83,124.13,179.19,154.58,179.19,154.58z M199.61,114.32h2.6V84.84c0-5.21-3.28-9.82-8.18-11.54v-8.97
		c0-4.48-1.95-8.73-5.35-11.66L175,40.93l-13.68,11.75c-3.4,2.92-5.35,7.17-5.35,11.66v8.97c-4.9,1.72-8.18,6.33-8.18,11.54v29.48
		h2.6c0.21-5.44,1.19-9.89,2.64-13.55V84.84c0-3.02,1.92-5.68,4.78-6.64c2.03-0.68,3.39-2.57,3.39-4.71v-9.17
		c0-2.96,1.29-5.76,3.53-7.69L175,47.83l10.26,8.82c2.24,1.93,3.53,4.73,3.53,7.69v9.17c0,2.14,1.36,4.03,3.39,4.71
		c2.86,0.95,4.78,3.62,4.78,6.64v15.89C198.42,104.39,199.4,108.86,199.61,114.32z M144.65,120.49V84.84
		c0-5.23,2.61-10.04,6.98-12.88l1.19-0.77v-6.85c0-5.4,2.35-10.52,6.45-14.04L175,36.78l15.72,13.51c4.1,3.52,6.45,8.64,6.45,14.04
		v6.85l1.19,0.77c4.37,2.84,6.98,7.66,6.98,12.88v35.65h5.23V84.84c0-6.52-3.03-12.56-8.18-16.44v-4.07
		c0-6.93-3.01-13.49-8.27-18.01L175,29.88l-19.13,16.44c-5.26,4.51-8.27,11.08-8.27,18.01v4.07c-5.15,3.88-8.18,9.92-8.18,16.44
		v35.65H144.65z M200.98,122.71v-6.18h-3.55c0-26.42-17.94-29.77-21.73-30.18v-5.96c2.59-0.14,4.81-1.67,5.87-3.89
		c-1.07,1.6-2.9,2.65-4.97,2.65c-3.3,0-5.98-2.68-5.98-5.98c0-3.3,2.68-5.98,5.98-5.98c0.91,0,1.77,0.21,2.54,0.57
		c-1.09-0.73-2.41-1.15-3.82-1.15c-3.82,0-6.92,3.1-6.92,6.92c0,3.46,2.55,6.31,5.87,6.81v6.02c-3.78,0.41-21.73,3.76-21.73,30.18
		h-3.55v6.18h-15.19v5.32c0,0,25.84,0.71,41.17,22.43c15.33-21.72,41.17-22.43,41.17-22.43v-5.32H200.98z M178.89,71.93l-0.45-0.91
		L178,71.93l-1,0.15l0.72,0.71l-0.17,1l0.89-0.47l0.89,0.47l-0.17-1l0.72-0.71L178.89,71.93z"/>
</g>
</svg>
