<?xml version="1.0" encoding="utf-8"?>
<!-- Generator: Adobe Illustrator 27.8.1, SVG Export Plug-In . SVG Version: 6.00 Build 0)  -->
<svg version="1.1" xmlns="http://www.w3.org/2000/svg" xmlns:xlink="http://www.w3.org/1999/xlink" x="0px" y="0px"
	 viewBox="0 0 350 230" style="enable-background:new 0 0 350 230;" xml:space="preserve">
<style type="text/css">
	.st0{fill:#F9E4D9;}
	.st1{fill:#DAF5F7;}
	.st2{fill:#D9F4E5;}
	.st3{fill:#E6F4D9;}
	.st4{fill:#F4E6D9;}
	.st5{fill:#E6E6FF;}
	.st6{fill:#F2F0DA;}
	.st7{fill:#F4EDD9;}
	.st8{fill:#DCFEFF;}
	.st9{fill:#4C2400;}
	.st10{fill:#FFDCC0;}
	.st11{fill:#32D3F3;}
	.st12{fill:#EAE9CE;}
	.st13{fill:#E4E5CF;}
	.st14{fill:#BFF6F7;}
	.st15{fill:#70D699;}
	.st16{fill:#D2F9F8;}
	.st17{fill:#F4F4D9;}
	.st18{fill:#CBCCB4;}
	.st19{fill:#F0D9F4;}
	.st20{fill:#C7FEFF;}
	.st21{fill:#CCFFFE;}
	.st22{fill:#CCFFE1;}
	.st23{fill:#231F20;}
	.st24{fill:#1C75BC;stroke:#F1F2F2;stroke-miterlimit:10;}
	.st25{fill:#FFFFFF;stroke:#F1F2F2;stroke-miterlimit:10;}
	.st26{fill:#FFC648;stroke:#F1F2F2;stroke-miterlimit:10;}
	.st27{fill:#825300;}
	.st28{fill:#AF2300;}
	.st29{fill:#AE6529;}
	.st30{fill:#A09F47;}
	.st31{fill:#003D50;}
	.st32{fill:#821600;}
	.st33{fill:#660C02;}
	.st34{fill:#974200;}
	.st35{fill:#725200;}
	.st36{fill:#AA5B08;}
	.st37{fill:#2B3990;}
	.st38{fill:#877F00;}
	.st39{fill:#9F00FF;}
	.st40{fill:#15FF00;}
	.st41{fill:#8D6195;}
	.st42{fill:#FFBA7B;}
	.st43{fill:#40006D;}
	.st44{fill:#8FD6D8;}
	.st45{fill:#A27021;}
	.st46{fill:#BC8200;}
	.st47{fill-rule:evenodd;clip-rule:evenodd;fill:#00245E;}
	.st48{fill:#AF1900;}
	.st49{fill-rule:evenodd;clip-rule:evenodd;fill:#877F00;}
	.st50{fill-rule:evenodd;clip-rule:evenodd;}
	.st51{fill:#00F9FF;}
	.st52{fill:#FFC648;}
	.st53{fill:#1C75BC;}
	.st54{clip-path:url(#SVGID_00000101824347828965353140000004909640393967142843_);fill:#369694;}
	.st55{fill:#F4A64E;}
	.st56{fill-rule:evenodd;clip-rule:evenodd;fill:#974200;}
	.st57{fill-rule:evenodd;clip-rule:evenodd;fill:#901E2E;}
	.st58{fill-rule:evenodd;clip-rule:evenodd;fill:#002D00;}
	.st59{fill-rule:evenodd;clip-rule:evenodd;fill:#B1CFC7;}
	.st60{fill:#FFD747;}
	.st61{fill:#074C00;}
	.st62{fill:#012A3F;}
	.st63{fill-rule:evenodd;clip-rule:evenodd;fill:#00F9FF;}
	.st64{fill:url(#SVGID_00000132062481235167940860000003606605736195355011_);}
	.st65{fill:url(#SVGID_00000096761606866570162070000010306682640737529246_);}
	.st66{fill:url(#SVGID_00000060744742158265402590000008537106647868777857_);}
	.st67{fill:url(#SVGID_00000075849987590254235940000007890296639184176520_);}
	.st68{fill:url(#SVGID_00000150783030510186384390000005016635278326751644_);}
	.st69{fill:url(#SVGID_00000090978517701310467270000017144650389754411703_);}
	.st70{fill:url(#SVGID_00000115477021039722365450000006525506473980408723_);}
	.st71{fill:url(#SVGID_00000142896584405665021900000016102529369021022346_);}
	.st72{fill:url(#SVGID_00000116942053631423191350000001866152167496193703_);}
	.st73{fill:url(#SVGID_00000093157394602955227960000001191534652371151749_);}
	.st74{fill:#39B54A;}
	.st75{fill:url(#SVGID_00000070090719584403793950000013924290469832288437_);}
	.st76{fill:url(#SVGID_00000039845242904387909070000011649602341003507602_);}
	.st77{fill:#C49A6C;}
	.st78{fill:url(#SVGID_00000121249369608750569670000011154875184010165638_);}
	.st79{fill:#004580;}
	.st80{fill:url(#SVGID_00000029728435658196696580000012758978112111903678_);}
	.st81{fill:url(#SVGID_00000092422207528374761900000009480793995038184356_);}
	.st82{fill:url(#SVGID_00000041275429562032218690000013085923998398451590_);}
	.st83{fill:#589179;}
	.st84{fill:#57898E;}
	.st85{fill:url(#SVGID_00000116914510525641318420000011993145309953763728_);}
	.st86{fill:url(#SVGID_00000023986346712432121900000005735427924969830786_);}
	.st87{fill:#262262;}
	.st88{fill:#24A8F0;}
	.st89{fill:url(#SVGID_00000150822232127162266840000004995620960987265670_);}
	.st90{fill:url(#SVGID_00000160895227135564645040000016586929783714803625_);}
</style>
<g id="Layer_1">
</g>
<g id="Layer_2">
</g>
<g id="Layer_3">
</g>
<g id="Layer_4">
</g>
<g id="Layer_5">
</g>
<g id="Layer_6">
</g>
<g id="Layer_7">
</g>
<g id="Layer_8">
</g>
<g id="Layer_9">
</g>
<g id="Layer_10">
</g>
<g id="Layer_11">
</g>
<g id="Layer_12">
</g>
<g id="Layer_13">
</g>
<g id="Layer_14">
</g>
<g id="Layer_15">
	<path class="st88" d="M243.37,133.2c-0.03,0-0.05,0-0.08,0.01c-0.57,0.14-1.15,0.26-1.72,0.39c-0.57,0.13-1.14,0.26-1.71,0.4
		c-1.14,0.28-2.27,0.59-3.38,0.97c-1.11,0.38-2.19,0.82-3.23,1.35c-0.91,0.47-1.75,1.06-2.52,1.72c-0.92,0.78-1.74,1.66-2.56,2.54
		c-0.8,0.85-1.6,1.7-2.48,2.47c-0.74,0.11-1.47,0.22-2.21,0.36c-0.34,0.07-0.67,0.14-1,0.22c1.08-0.78,2.11-1.62,3.08-2.54
		c1.48-1.41,2.8-2.99,3.9-4.71c1.12-1.76,1.99-3.68,2.59-5.69c0.49-1.66,0.78-3.38,0.89-5.1c0.01-0.18-0.16-0.32-0.32-0.32
		c-0.19,0-0.31,0.15-0.32,0.32c-0.04,0.53-0.09,1.07-0.16,1.6c-0.26,1.88-0.76,3.73-1.49,5.49c-0.75,1.78-1.74,3.45-2.91,4.99
		c-0.34,0.44-0.7,0.87-1.07,1.29c0.43-1.8,0.74-3.63,1.02-5.46c0.17-1.12,0.33-2.24,0.39-3.36c0.05-1.1,0-2.21-0.14-3.3
		c-0.56-4.42-2.5-8.53-4.74-12.32c-0.38-0.64-0.77-1.28-1.17-1.91c-0.2-0.31-0.4-0.62-0.6-0.94c-0.2-0.31-0.39-0.62-0.61-0.92
		c-0.08-0.1-0.19-0.17-0.32-0.17c-0.01,0-0.02,0-0.02,0c-0.13,0.01-0.26,0.09-0.32,0.21c-0.12,0.25-0.25,0.5-0.37,0.75
		c-0.13,0.27-0.25,0.54-0.37,0.82c-0.23,0.53-0.44,1.07-0.63,1.61c-0.37,1.06-0.65,2.14-0.81,3.25c-0.17,1.1-0.22,2.22-0.15,3.33
		c0.07,1.13,0.28,2.25,0.61,3.34c0.17,0.56,0.38,1.11,0.62,1.65c0.19,0.43,0.4,0.85,0.65,1.26c0.44,0.73,0.97,1.4,1.51,2.05
		c1.18,1.43,2.46,2.8,3.48,4.35c0.24,0.36,0.46,0.72,0.65,1.11c0.26,0.52,0.46,1.05,0.58,1.62c0.04,0.23,0.07,0.47,0.07,0.7
		c0,0.12,0.11,0.22,0.23,0.23c-0.06,0.77-0.2,1.54-0.45,2.27c-0.18,0.49-0.41,0.96-0.7,1.4c-0.07,0.1-0.14,0.18-0.21,0.27
		c-0.62,0.57-1.27,1.12-1.93,1.64c-2.43,1.87-5.13,3.37-7.95,4.56c-1.18,0.49-2.38,0.93-3.59,1.32c0.22-0.21,0.42-0.43,0.61-0.66
		c0.22-0.26,0.42-0.54,0.61-0.82c0.31-0.11,0.61-0.24,0.9-0.4c0.35-0.19,0.67-0.42,0.98-0.67c0.64-0.52,1.18-1.14,1.65-1.82
		c0.49-0.7,0.89-1.46,1.23-2.24c0.33-0.78,0.59-1.58,0.79-2.4c0.17-0.71,0.28-1.44,0.32-2.17c0.06-0.93-0.03-1.87-0.23-2.78
		c-0.38-1.74-1.18-3.35-1.87-4.98c0,0,0,0.01,0,0.01c-0.44-1.05-0.83-2.12-1.05-3.23c-0.01-0.19-0.04-0.37-0.09-0.55
		c-0.02-0.09-0.1-0.14-0.19-0.14c-0.02,0-0.03,0-0.05,0.01c-0.05,0.01-0.09,0.05-0.12,0.09c-0.03,0.05-0.03,0.1-0.02,0.15
		c0.02,0.12,0.04,0.24,0.06,0.36c0.02,0.24,0.01,0.48-0.02,0.72c-0.09,0.59-0.29,1.15-0.52,1.7c-0.36,0.84-0.8,1.65-1.19,2.49
		c-0.17,0.37-0.33,0.75-0.46,1.14c-0.08,0.25-0.15,0.51-0.23,0.76c-0.09,0.3-0.18,0.59-0.27,0.89c-0.35,1.14-0.69,2.29-0.92,3.47
		c-0.11,0.58-0.19,1.17-0.24,1.76c-0.04,0.57-0.03,1.13,0.04,1.7c0.11,0.92,0.36,1.82,0.62,2.71c0.13,0.43,0.25,0.87,0.37,1.3
		c0.12,0.46,0.25,0.92,0.38,1.38c0,0.01,0.01,0.01,0.01,0.02c-0.15,0.23-0.31,0.45-0.47,0.67c0.01-0.01,0.01-0.02,0.02-0.02
		c-0.01,0.02-0.03,0.03-0.04,0.05c0,0,0,0,0,0c0,0,0,0,0,0c-0.52,0.66-1.11,1.26-1.77,1.78c-0.09,0.07-0.18,0.13-0.27,0.19
		c-2.29,0.66-4.63,1.14-6.99,1.46c-3.96,0.52-7.98,0.59-11.94,0.06c0.01,0,0.02,0,0.03,0c-0.32-0.04-0.64-0.09-0.95-0.14
		c-0.14-0.02-0.29,0.03-0.33,0.19c-0.04,0.13,0.04,0.3,0.19,0.33c4.05,0.71,8.22,0.75,12.3,0.31c2.12-0.23,4.22-0.59,6.29-1.1
		c0.03,0.01,0.06,0.01,0.09,0c0.15-0.04,0.3-0.08,0.44-0.13c1.98-0.51,3.92-1.14,5.8-1.92c1.96-0.8,3.87-1.76,5.67-2.88
		c0.1-0.04,0.2-0.09,0.29-0.13c0.47-0.19,0.94-0.35,1.42-0.5c0.63-0.19,1.27-0.35,1.92-0.49c0.04,0.05,0.1,0.1,0.16,0.11
		c1.1,0.17,2.19,0.43,3.28,0.66c1.08,0.23,2.18,0.42,3.28,0.43c1.08,0.01,2.15-0.19,3.17-0.52c0.8-0.26,1.58-0.62,2.29-1.07
		c0.63-0.41,1.21-0.91,1.72-1.46c0.5-0.54,0.93-1.14,1.33-1.75c0.82-1.27,1.49-2.63,2.27-3.94c0.3-0.51,0.62-1.01,0.96-1.49
		c0.29-0.41,0.6-0.8,0.92-1.19c0.07-0.09,0.09-0.21,0.03-0.31C243.53,133.23,243.45,133.2,243.37,133.2z M159.86,108.37
		c-0.05,0.12,0.04,0.26,0.15,0.3c0.13,0.04,0.25-0.03,0.3-0.15c0.44-1.06,0.87-2.13,1.29-3.2c0.41-1.02,0.8-2.04,1.18-3.07
		c0.74-2,1.4-4.03,1.92-6.09c0.99-3.96,1.44-8.06,1.34-12.14c-0.05-1.95-0.22-3.9-0.62-5.81c-0.37-1.79-0.94-3.56-1.88-5.13
		c-0.08-0.13-0.16-0.26-0.25-0.39c-0.04-0.06-0.11-0.11-0.18-0.11c-0.03,0-0.06,0.01-0.09,0.02c-0.09,0.05-0.14,0.18-0.08,0.27
		c0.52,0.79,0.93,1.65,1.26,2.54c0.69,1.89,1.05,3.88,1.23,5.88c0.16,1.85,0.17,3.72,0.08,5.58c-0.1,2.01-0.32,4.01-0.67,6
		c0-0.01,0-0.03,0.01-0.04c-0.38,2.11-0.91,4.18-1.56,6.23c-0.65,2.06-1.4,4.09-2.19,6.11C160.71,106.23,160.28,107.3,159.86,108.37
		z M161.41,92.53c0.08,0,0.14-0.06,0.14-0.13c0.1-0.98,0.13-1.96,0.1-2.94c0-0.07-0.05-0.13-0.12-0.14c0,0,0,0,0,0
		c-0.07,0-0.13,0.06-0.13,0.12c0.03,0.98-0.02,1.96-0.12,2.94C161.27,92.46,161.34,92.53,161.41,92.53z M153.25,98.53
		c-0.04,0-0.08,0.02-0.1,0.05c-0.25,0.37-0.51,0.74-0.76,1.11c-0.03,0.05-0.02,0.12,0.03,0.16c0.05,0.03,0.12,0.02,0.16-0.03
		c0.26-0.37,0.51-0.74,0.76-1.11c0.04-0.05,0.02-0.13-0.03-0.16C153.29,98.54,153.27,98.53,153.25,98.53z M161.1,98.27
		c-0.21,0.79-0.44,1.57-0.69,2.35c-0.26,0.77-0.55,1.54-0.86,2.29c-0.03,0.08,0.03,0.17,0.1,0.2c0.04,0.01,0.08,0.01,0.12-0.01
		c0.04-0.02,0.06-0.05,0.08-0.09c0.65-1.5,1.16-3.05,1.57-4.63c0.02-0.09-0.02-0.18-0.11-0.21c-0.02-0.01-0.03-0.01-0.05-0.01
		C161.19,98.16,161.11,98.2,161.1,98.27z M167.96,91.85c-0.01,0.09,0.07,0.17,0.15,0.17c0.04,0,0.08-0.01,0.12-0.04
		c0.03-0.03,0.05-0.07,0.05-0.11c0.2-1.53,0.35-3.08,0.36-4.62c0.01-1.55-0.13-3.12-0.6-4.61c-0.02-0.07-0.08-0.12-0.15-0.12
		c-0.01,0-0.02,0-0.04,0c-0.08,0.02-0.15,0.11-0.12,0.19c0.26,0.83,0.41,1.69,0.49,2.56c0-0.01,0-0.02,0-0.03
		c0.1,1.11,0.09,2.22,0.03,3.32C168.18,89.66,168.07,90.75,167.96,91.85z M212.02,146.76c-0.01,0.01-0.01,0.02-0.02,0.03
		c0,0,0,0,0,0C212.01,146.78,212.01,146.77,212.02,146.76z M165.47,100.27c0.1,0.03,0.2-0.02,0.23-0.12
		c0.22-0.65,0.46-1.28,0.68-1.93c0.22-0.66,0.41-1.33,0.51-2.02c0.02-0.1-0.08-0.19-0.18-0.2c0,0-0.01,0-0.01,0
		c-0.05,0-0.09,0.02-0.12,0.05c-0.04,0.04-0.05,0.08-0.06,0.13c-0.01,0.08-0.02,0.17-0.04,0.25c-0.23,1.25-0.74,2.41-1.13,3.61
		C165.32,100.13,165.37,100.24,165.47,100.27z M154.36,88.56c0.18-0.96,0.31-1.93,0.39-2.9c0.09-0.97,0.12-1.93,0.11-2.9
		c-0.01-1.93-0.18-3.86-0.54-5.76c-0.58-3.1-1.67-6.11-3.29-8.81c-0.03-0.05-0.08-0.08-0.13-0.08c-0.02,0-0.05,0.01-0.07,0.02
		c-0.07,0.04-0.11,0.13-0.06,0.2c0.75,1.24,1.37,2.56,1.87,3.92c0.85,2.3,1.36,4.7,1.59,7.14c0-0.01,0-0.01,0-0.02
		c0.24,2.76,0.09,5.53-0.4,8.26c-0.49,2.68-1.28,5.33-2.45,7.8c0,0,0-0.01,0.01-0.02c-0.26,0.55-0.55,1.1-0.85,1.64
		c-0.31,0.54-0.64,1.07-0.98,1.6c-0.1,0.15-0.05,0.36,0.1,0.46c0.16,0.1,0.36,0.05,0.46-0.1c0.53-0.76,1-1.55,1.43-2.37
		c0.45-0.84,0.85-1.7,1.21-2.58C153.49,92.29,154.02,90.44,154.36,88.56z M154.03,101.36c0.11-0.03,0.18-0.09,0.25-0.17
		c0.22-0.27,0.43-0.54,0.64-0.82c0.21-0.29,0.41-0.59,0.59-0.89c0.41-0.66,0.76-1.35,1.07-2.05c0.66-1.47,1.13-3.02,1.47-4.59
		c0.37-1.7,0.59-3.43,0.7-5.16c0.11-1.74,0.11-3.48,0.01-5.22c-0.1-1.68-0.3-3.35-0.63-5c-0.3-1.49-0.69-2.97-1.24-4.39
		c-0.25-0.66-0.54-1.31-0.87-1.93c-0.03-0.06-0.09-0.09-0.15-0.09c-0.03,0-0.05,0.01-0.08,0.02c-0.08,0.04-0.11,0.15-0.07,0.23
		c0.31,0.59,0.58,1.2,0.81,1.83c0,0,0-0.01,0-0.01c0.85,2.29,1.3,4.72,1.52,7.15c0.3,3.41,0.15,6.85-0.45,10.22
		c-0.24,1.33-0.55,2.65-0.95,3.95c-0.36,1.19-0.79,2.35-1.32,3.47c-0.24,0.51-0.5,1-0.79,1.49c-0.28,0.48-0.59,0.95-0.94,1.39
		c-0.06,0.08-0.07,0.21-0.05,0.3c0.02,0.1,0.09,0.19,0.17,0.25C153.82,101.37,153.93,101.39,154.03,101.36z M157.59,90.48
		c0,0.02,0,0.03-0.01,0.05c0,0.02-0.01,0.03-0.01,0.05C157.58,90.54,157.59,90.51,157.59,90.48z M145.74,79.26
		C145.74,79.26,145.74,79.26,145.74,79.26c-0.1,0-0.19,0.08-0.19,0.17c0.04,1.11-0.07,2.21-0.22,3.31
		c-0.16,1.12-0.37,2.23-0.53,3.35c-0.01,0.09,0.07,0.17,0.16,0.17c0.04,0,0.08-0.02,0.12-0.04c0.04-0.03,0.04-0.07,0.05-0.11
		l0.09-0.51c0.01-0.07,0.03-0.15,0.04-0.22c0.01-0.05,0.02-0.09,0.03-0.14c0.03-0.15,0.05-0.29,0.08-0.44
		c0.06-0.36,0.13-0.73,0.19-1.09c0.12-0.71,0.22-1.41,0.29-2.12c0.07-0.71,0.1-1.42,0.07-2.14
		C145.91,79.35,145.84,79.27,145.74,79.26z M146.13,70.57c0.32,0.87,0.48,1.79,0.57,2.71c0-0.01,0-0.01,0-0.02
		c0.02,0.17,0.03,0.34,0.04,0.51c0,0.06,0.01,0.11,0.05,0.15c0.04,0.04,0.09,0.07,0.15,0.07c0.11,0,0.22-0.09,0.22-0.2
		c-0.01-0.72-0.08-1.45-0.23-2.15c-0.15-0.73-0.4-1.44-0.75-2.1c-0.04-0.08-0.12-0.12-0.21-0.12c-0.04,0-0.07,0.01-0.11,0.03
		c-0.11,0.06-0.15,0.2-0.1,0.31C145.9,70.01,146.02,70.28,146.13,70.57z M145.36,88.09C145.35,88.09,145.35,88.09,145.36,88.09
		c-0.1,0-0.16,0.07-0.17,0.16c-0.02,0.25-0.06,0.5-0.1,0.75c-0.07,0.37-0.16,0.74-0.26,1.11c-0.03,0.08,0.02,0.18,0.1,0.2
		c0.08,0.03,0.18-0.02,0.21-0.1c0.1-0.32,0.18-0.65,0.25-0.97c0.06-0.32,0.1-0.64,0.13-0.97C145.52,88.17,145.44,88.09,145.36,88.09
		z M148.68,78.71c0-0.1-0.07-0.18-0.17-0.18c0,0,0,0-0.01,0c-0.09,0-0.17,0.07-0.18,0.17c-0.01,1.09-0.08,2.19-0.19,3.27
		c-0.1,1.04-0.26,2.08-0.45,3.1c-0.25,1.38-0.57,2.75-0.88,4.12c-0.34,1.48-0.7,2.95-0.92,4.45c0,0.07,0.01,0.13,0.04,0.19
		c0.04,0.09,0.12,0.15,0.22,0.18c0.19,0.06,0.42-0.04,0.47-0.24c0.32-1.12,0.57-2.26,0.8-3.4c0.22-1.1,0.42-2.2,0.59-3.31
		c0.34-2.21,0.58-4.44,0.65-6.68C148.67,79.83,148.67,79.27,148.68,78.71z M159.77,77.2C159.77,77.2,159.77,77.2,159.77,77.2
		c0.19,0.52,0.34,1.07,0.45,1.62c0.11,0.54,0.17,1.09,0.22,1.64c0.15,1.65,0.14,3.32,0.46,4.96c0.02,0.09,0.11,0.14,0.19,0.12
		c0.09-0.02,0.14-0.11,0.12-0.19c-0.1-0.56-0.17-1.13-0.22-1.69c0,0.01,0,0.01,0,0.02c-0.1-1.11-0.14-2.22-0.25-3.32
		c-0.06-0.56-0.14-1.12-0.25-1.67c-0.12-0.58-0.29-1.14-0.5-1.68c-0.01-0.03-0.05-0.06-0.08-0.07c-0.01,0-0.03-0.01-0.04-0.01
		c-0.02,0-0.04,0.01-0.06,0.02c-0.03,0.02-0.06,0.05-0.07,0.08c-0.01,0.04,0,0.07,0.01,0.11C159.76,77.16,159.76,77.18,159.77,77.2z
		 M149.37,93.32c0,0-0.01,0-0.01,0c-0.12,0-0.21,0.1-0.23,0.22c-0.02,0.18-0.05,0.37-0.08,0.55c-0.1,0.52-0.23,1.03-0.4,1.53
		c-0.04,0.13,0.03,0.28,0.17,0.32c0.13,0.04,0.28-0.03,0.32-0.16c0.21-0.72,0.36-1.47,0.44-2.22
		C149.6,93.43,149.48,93.33,149.37,93.32z M154.32,95.53c0.09,0.03,0.18-0.02,0.21-0.11c0.31-0.8,0.64-1.6,1-2.38c0,0,0,0,0,0
		c0.06-0.12,0.11-0.24,0.17-0.36c0.02-0.04,0.03-0.07,0.02-0.11c-0.01-0.04-0.03-0.07-0.06-0.09c-0.02-0.02-0.05-0.02-0.08-0.02
		c-0.01,0-0.02,0-0.03,0c-0.03,0.01-0.08,0.03-0.09,0.06c-0.45,0.91-0.88,1.84-1.24,2.79C154.18,95.41,154.24,95.51,154.32,95.53z
		 M150.39,84.71c-0.12,0-0.23,0.1-0.23,0.22c0.01,1.06-0.08,2.11-0.27,3.15c-0.06,0.32-0.13,0.65-0.2,0.97
		c-0.02,0.06-0.02,0.12,0.02,0.18c0.03,0.05,0.08,0.09,0.13,0.11c0.11,0.04,0.26-0.03,0.29-0.15c0.36-1.38,0.49-2.82,0.48-4.24
		c0-0.12-0.09-0.23-0.22-0.23C150.4,84.71,150.4,84.71,150.39,84.71z M159.02,99.74c-0.01,0.01-0.01,0.02-0.01,0.03c0,0,0,0,0,0
		C159.01,99.76,159.01,99.75,159.02,99.74z M146.91,67.41c0.81,1.16,1.45,2.44,1.95,3.77c0.38,1.02,0.67,2.07,0.9,3.14
		c0.24,1.1,0.39,2.22,0.49,3.34c0.1,1.17,0.14,2.34,0.15,3.51c0,0.19,0.14,0.36,0.34,0.37c0.2,0.01,0.35-0.15,0.37-0.34
		c0.1-1.04,0.11-2.08,0.05-3.12c-0.06-1.05-0.18-2.09-0.39-3.12c-0.2-1-0.48-1.98-0.84-2.94c-0.36-0.96-0.8-1.89-1.32-2.78
		c-0.35-0.6-0.74-1.19-1.15-1.75c-0.42-0.58-0.88-1.12-1.36-1.65c-0.03-0.04-0.08-0.05-0.13-0.05c-0.04,0-0.08,0.01-0.11,0.04
		c-0.07,0.06-0.07,0.17-0.01,0.24C146.24,66.49,146.59,66.94,146.91,67.41z M141.17,64.87c0,0.01,0.01,0.01,0.01,0.02
		C141.18,64.88,141.18,64.88,141.17,64.87C141.17,64.88,141.17,64.87,141.17,64.87z M171.27,82.21c0.05,0.11,0.09,0.22,0.14,0.33
		c0.05,0.15,0.1,0.29,0.14,0.44c0.05,0.17,0.08,0.35,0.1,0.52c0.01,0.09,0.11,0.14,0.19,0.12c0.04-0.01,0.07-0.03,0.1-0.07
		c0.03-0.04,0.03-0.08,0.02-0.12c-0.04-0.31-0.11-0.61-0.2-0.91c-0.04-0.14-0.1-0.28-0.15-0.41c-0.06-0.14-0.13-0.28-0.22-0.41
		c-0.03-0.04-0.05-0.06-0.09-0.08c-0.02,0-0.03-0.01-0.05-0.01c-0.03,0-0.05,0.01-0.07,0.02c-0.04,0.02-0.06,0.05-0.08,0.09
		c-0.02,0.04-0.01,0.08,0.01,0.12C171.16,81.97,171.22,82.09,171.27,82.21z M157.61,107.2c-0.01-0.06-0.05-0.11-0.1-0.14
		c-0.04-0.02-0.08-0.03-0.12-0.03c-0.02,0-0.03,0-0.05,0.01c-0.05,0.01-0.11,0.05-0.14,0.1c-0.23,0.45-0.5,0.88-0.79,1.28
		c-0.05,0.07-0.04,0.18,0.02,0.24c0.04,0.04,0.09,0.06,0.14,0.06c0.05,0,0.11-0.01,0.14-0.05c0.16-0.19,0.31-0.38,0.45-0.58
		c0.16-0.23,0.29-0.47,0.41-0.71C157.61,107.32,157.63,107.27,157.61,107.2z M157.78,114.39c0.7-0.45,1.33-1.01,1.89-1.63
		c0.08-0.09,0.09-0.22,0-0.32c-0.04-0.04-0.1-0.07-0.17-0.07c-0.06,0-0.11,0.02-0.15,0.06c-0.45,0.5-0.95,0.94-1.49,1.34
		c-0.1,0.07-0.2,0.15-0.3,0.22c-0.05,0.04-0.09,0.07-0.11,0.13c-0.02,0.06-0.01,0.12,0.02,0.17
		C157.53,114.4,157.67,114.46,157.78,114.39z M158.08,111.72c0.37-0.22,0.73-0.45,1.11-0.67c0.1-0.05,0.14-0.18,0.09-0.28
		c-0.04-0.07-0.11-0.11-0.19-0.11c-0.03,0-0.06,0.01-0.09,0.02c-0.37,0.21-0.75,0.43-1.1,0.68c-0.05,0.03-0.08,0.06-0.1,0.12
		c-0.02,0.05-0.01,0.11,0.01,0.16C157.86,111.73,157.99,111.78,158.08,111.72z M169.58,108.53c-0.31,1.69-0.75,3.36-1.48,4.92
		c-0.4,0.82-0.87,1.6-1.46,2.3c-0.16,0.19-0.33,0.37-0.51,0.55c-0.19,0.2-0.4,0.39-0.62,0.56c-0.11,0.09-0.11,0.27-0.02,0.37
		c0.05,0.05,0.11,0.08,0.18,0.09c0.08,0,0.13-0.03,0.19-0.07c0.15-0.11,0.3-0.22,0.44-0.34c0.15-0.13,0.3-0.27,0.44-0.41
		c0.28-0.28,0.54-0.58,0.78-0.9c0.49-0.64,0.88-1.35,1.21-2.08c0.7-1.54,1.09-3.21,1.35-4.87c0.23-1.45,0.34-2.92,0.42-4.38
		c0.07-1.32,0.09-2.65,0.13-3.97c0-0.1-0.07-0.19-0.18-0.19c0,0-0.01,0-0.01,0c-0.09,0-0.18,0.08-0.18,0.18
		c-0.05,1.31-0.1,2.61-0.18,3.91C169.99,105.65,169.83,107.1,169.58,108.53z M171.85,96.08c-0.03-0.02-0.07-0.03-0.1-0.03
		c-0.01,0-0.03,0-0.04,0c-0.05,0.01-0.1,0.05-0.12,0.09c-0.03,0.05-0.03,0.09-0.02,0.15c0.01,0.12,0.03,0.23,0.04,0.35
		c0.15,1.49,0.24,2.99,0.27,4.49c0.02,0.74,0.01,1.49,0,2.23c-0.01,0.77-0.05,1.53-0.08,2.3c0,0.11,0.09,0.21,0.21,0.22
		c0.12,0,0.21-0.09,0.22-0.21c0.07-0.79,0.11-1.58,0.12-2.37c0.01-0.8,0-1.59-0.03-2.38c-0.05-1.58-0.19-3.15-0.36-4.72
		C171.93,96.15,171.89,96.1,171.85,96.08z M124.98,145.99c0,0-0.01,0.01-0.02,0.01C124.97,146,124.98,145.99,124.98,145.99
		C124.98,145.98,124.98,145.99,124.98,145.99z M161.55,118.78c0.82-0.54,1.53-1.23,2.15-1.99c0.3-0.37,0.58-0.75,0.86-1.14
		c0.28-0.41,0.56-0.82,0.82-1.24c0.06-0.1,0.03-0.23-0.07-0.29c-0.03-0.02-0.07-0.03-0.11-0.03c-0.07,0-0.14,0.04-0.18,0.1
		c-0.26,0.41-0.53,0.82-0.83,1.2c0.01-0.01,0.01-0.02,0.02-0.02c-0.01,0.01-0.02,0.03-0.03,0.04c0-0.01,0.01-0.01,0.01-0.02
		c0,0.01-0.01,0.01-0.01,0.02c-0.42,0.52-0.88,1.01-1.37,1.48c-0.51,0.5-1.05,0.96-1.59,1.42c-0.1,0.08-0.11,0.24-0.05,0.35
		C161.23,118.8,161.42,118.87,161.55,118.78z M227.55,107.35c0.01,0.01,0.01,0.02,0.02,0.04
		C227.56,107.38,227.56,107.37,227.55,107.35C227.55,107.36,227.55,107.35,227.55,107.35z M166.57,106.32
		c0.31-0.49,0.59-1,0.85-1.52c0.02-0.03,0.02-0.06,0.01-0.09c-0.01-0.03-0.03-0.06-0.06-0.08c-0.02-0.01-0.04-0.02-0.06-0.02
		c-0.04,0-0.09,0.02-0.11,0.06c-0.26,0.52-0.54,1.03-0.85,1.52c-0.04,0.06-0.02,0.13,0.04,0.17
		C166.46,106.39,166.53,106.37,166.57,106.32z M165.68,113.51c0.03,0.02,0.08,0.03,0.11,0.02c0.04-0.01,0.07-0.03,0.09-0.07
		c0.16-0.21,0.31-0.43,0.46-0.65c0.14-0.22,0.28-0.45,0.4-0.68c0.25-0.45,0.47-0.92,0.66-1.4c0.2-0.49,0.37-0.98,0.51-1.49
		c0.15-0.51,0.26-1.02,0.36-1.54c0.01-0.03,0.01-0.05-0.01-0.08c-0.01-0.02-0.03-0.04-0.06-0.05c-0.01,0-0.02,0-0.03,0
		c-0.04,0-0.09,0.03-0.1,0.07c-0.12,0.58-0.27,1.16-0.46,1.72c-0.19,0.57-0.41,1.14-0.66,1.68c0,0,0-0.01,0-0.01
		c0,0.01-0.01,0.02-0.01,0.03c0,0,0,0.01,0,0.01c0,0,0,0,0,0c-0.38,0.78-0.82,1.52-1.33,2.23
		C165.59,113.37,165.61,113.47,165.68,113.51z M168.15,79.44c0.74,2,1.19,4.09,1.38,6.21c0,0,0,0,0,0c0,0,0,0.01,0,0.01
		c0,0.02,0,0.03,0,0.05c0,0,0-0.01,0-0.01c0.23,2.63,0.06,5.29-0.4,7.89c-0.6,3.33-1.7,6.56-3.15,9.62
		c-0.65,1.36-1.37,2.69-2.16,3.98c-0.38,0.62-0.79,1.24-1.2,1.84c-0.21,0.3-0.42,0.59-0.63,0.88c-0.22,0.3-0.44,0.6-0.68,0.9
		c-0.06,0.08-0.07,0.21-0.05,0.3c0.02,0.1,0.08,0.19,0.17,0.24c0.09,0.06,0.2,0.08,0.3,0.05c0.11-0.02,0.17-0.09,0.24-0.17
		c0.01-0.01,0.02-0.03,0.03-0.04c1.24-1.46,2.33-3.06,3.3-4.72c1.01-1.74,1.87-3.56,2.58-5.44c0.71-1.89,1.27-3.83,1.66-5.81
		c0.39-1.98,0.62-3.98,0.65-5.99c0.03-1.98-0.14-3.96-0.52-5.9c-0.38-1.93-0.99-3.8-1.82-5.58c-0.06-0.12-0.12-0.25-0.18-0.37
		c-0.03-0.06-0.1-0.1-0.17-0.1c-0.03,0-0.06,0.01-0.09,0.02c-0.09,0.05-0.12,0.16-0.08,0.25C167.64,78.16,167.91,78.8,168.15,79.44z
		 M169.54,85.65c0,0.02,0,0.04,0,0.05c0-0.01,0-0.03,0-0.04C169.54,85.65,169.54,85.65,169.54,85.65z M159.61,114.86
		c0.31-0.28,0.59-0.58,0.85-0.91c0.02-0.02,0.02-0.06,0.02-0.08c-0.01-0.03-0.02-0.05-0.05-0.07c-0.02-0.01-0.04-0.02-0.06-0.02
		c-0.01,0-0.02,0-0.02,0c-0.03,0.01-0.05,0.02-0.07,0.04c-0.02,0.03-0.05,0.06-0.07,0.08c0,0,0,0,0,0
		c-0.24,0.28-0.49,0.53-0.75,0.78c-0.04,0.04-0.05,0.11-0.01,0.15C159.5,114.89,159.57,114.89,159.61,114.86z M166.97,111.05
		c0,0.01-0.01,0.02-0.01,0.02c0,0,0,0,0-0.01C166.97,111.06,166.97,111.05,166.97,111.05z M160.55,117.27
		c0.44-0.4,0.86-0.82,1.27-1.24c0.07-0.07,0.08-0.19,0-0.26c-0.04-0.04-0.09-0.06-0.14-0.06c-0.05,0-0.09,0.02-0.13,0.05
		c-0.41,0.43-0.84,0.84-1.26,1.25c-0.07,0.07-0.07,0.19,0,0.26C160.36,117.34,160.47,117.34,160.55,117.27z M164.33,104.66
		c0.05-0.03,0.08-0.07,0.1-0.12c0.24-0.55,0.45-1.11,0.62-1.68c0.04-0.11-0.03-0.23-0.14-0.27c-0.02-0.01-0.04-0.01-0.06-0.01
		c-0.09,0-0.18,0.06-0.21,0.15c-0.18,0.57-0.39,1.13-0.62,1.68c-0.04,0.11,0.03,0.23,0.14,0.27
		C164.22,104.69,164.28,104.68,164.33,104.66z M162.35,113.27c0.33-0.33,0.65-0.65,0.99-0.97c0.08-0.08,0.08-0.21,0-0.29
		c-0.04-0.04-0.1-0.06-0.15-0.06c-0.05,0-0.1,0.02-0.14,0.06c-0.33,0.32-0.66,0.65-0.98,0.98c-0.08,0.08-0.08,0.21,0,0.29
		C162.14,113.34,162.27,113.34,162.35,113.27z M163.73,113.08c-0.01,0.01-0.01,0.01-0.02,0.02c0,0,0,0,0,0
		C163.72,113.09,163.73,113.09,163.73,113.08z M165.96,110.05c-0.02-0.01-0.05-0.02-0.07-0.02c-0.05,0-0.09,0.02-0.11,0.06
		c-0.27,0.53-0.59,1.04-0.93,1.53c-0.35,0.5-0.72,0.99-1.11,1.46c0.01-0.01,0.01-0.02,0.02-0.02c-0.01,0.01-0.02,0.03-0.03,0.04
		c0,0-0.01,0.01-0.01,0.01c0,0,0,0,0.01-0.01c-0.32,0.37-0.65,0.73-0.98,1.1c-0.05,0.05-0.08,0.11-0.08,0.18
		c0,0.07,0.02,0.14,0.07,0.19c0.1,0.1,0.27,0.11,0.37,0.02c0.31-0.29,0.58-0.61,0.85-0.94c0.28-0.35,0.54-0.71,0.78-1.08
		c0.24-0.37,0.46-0.76,0.67-1.15c0.21-0.39,0.41-0.79,0.61-1.19C166.03,110.17,166.02,110.1,165.96,110.05z M148.97,105.05
		c0.06,0.1,0.21,0.12,0.31,0.05c0.05-0.03,0.08-0.08,0.09-0.14c0.01-0.06-0.01-0.11-0.04-0.17c-0.08-0.15-0.16-0.3-0.24-0.45
		c-0.27-0.53-0.53-1.05-0.77-1.59c-0.03-0.06-0.06-0.11-0.12-0.13c-0.03-0.02-0.07-0.02-0.1-0.02c-0.03,0-0.05,0-0.08,0.01
		c-0.11,0.04-0.2,0.18-0.14,0.3C148.2,103.64,148.57,104.36,148.97,105.05z M188.49,107.77c-0.07,0.21-0.16,0.42-0.23,0.63
		c-0.09,0.23-0.17,0.46-0.26,0.69c-0.17,0.45-0.33,0.91-0.49,1.37c-0.33,0.94-0.66,1.88-1,2.81c-0.7,1.91-1.44,3.81-2.29,5.67
		c-0.01,0.03-0.03,0.06-0.04,0.08c-0.48,1.02-1,2.02-1.58,2.99c-0.58,0.97-1.21,1.89-1.93,2.76c-0.67,0.81-1.4,1.57-2.2,2.24
		c-0.09,0.08-0.09,0.23-0.01,0.32c0.09,0.09,0.22,0.09,0.32,0.01c0.75-0.62,1.45-1.29,2.1-2c0.67-0.73,1.28-1.52,1.85-2.32
		c0.59-0.82,1.12-1.67,1.62-2.54c0.51-0.88,0.98-1.78,1.41-2.7c0.76-1.6,1.4-3.25,1.98-4.93c0.28-0.8,0.55-1.61,0.8-2.42
		c0.12-0.4,0.25-0.81,0.36-1.22c0.06-0.2,0.11-0.4,0.17-0.6c0.05-0.2,0.1-0.4,0.17-0.59c0.06-0.21-0.05-0.43-0.26-0.5
		c-0.04-0.01-0.08-0.02-0.12-0.02C188.7,107.5,188.54,107.6,188.49,107.77z M189.25,104.62c0.06,0.04,0.13,0.05,0.19,0.03
		c0.06-0.01,0.13-0.05,0.16-0.11c0.22-0.44,0.42-0.89,0.59-1.35c0.04-0.12-0.03-0.26-0.15-0.3c-0.02-0.01-0.05-0.01-0.07-0.01
		c-0.04,0-0.08,0.01-0.11,0.03c-0.06,0.03-0.09,0.08-0.12,0.14c-0.1,0.23-0.2,0.45-0.3,0.67c-0.09,0.18-0.17,0.37-0.26,0.55
		c-0.03,0.06-0.05,0.12-0.03,0.19C189.15,104.53,189.19,104.59,189.25,104.62z M189.58,121.59c1.34-1.07,2.57-2.29,3.66-3.61
		c0.09-0.11,0.08-0.27-0.02-0.37c-0.05-0.04-0.11-0.06-0.17-0.06c-0.07,0-0.14,0.03-0.19,0.09c-0.91,1.09-1.9,2.11-2.98,3.04
		l0.05-0.04c-0.21,0.18-0.42,0.36-0.63,0.53c-0.05,0.05-0.1,0.09-0.11,0.16c-0.01,0.07,0,0.14,0.04,0.19
		C189.3,121.62,189.47,121.68,189.58,121.59z M186.74,120.64c-0.02-0.02-0.04-0.02-0.06-0.02c-0.03,0-0.05,0.01-0.07,0.03
		c-0.36,0.44-0.72,0.87-1.1,1.29c-0.03,0.04-0.03,0.1,0.01,0.13c0.04,0.03,0.1,0.03,0.13-0.01c0.38-0.42,0.74-0.85,1.1-1.29
		C186.78,120.74,186.77,120.68,186.74,120.64z M182.85,129.47c0.94-0.67,1.78-1.48,2.52-2.37c0.07-0.08,0.06-0.2-0.02-0.27
		c-0.03-0.03-0.08-0.05-0.12-0.05c-0.05,0-0.11,0.02-0.14,0.07c-0.47,0.57-0.99,1.1-1.54,1.59c-0.29,0.25-0.58,0.5-0.89,0.73
		c-0.08,0.06-0.11,0.17-0.05,0.25C182.66,129.5,182.77,129.53,182.85,129.47z M156.28,105.01c0.29-0.36,0.58-0.72,0.85-1.1
		c0.28-0.39,0.55-0.79,0.8-1.19c0.24-0.39,0.47-0.79,0.68-1.19c0.21-0.41,0.4-0.83,0.57-1.25c0.17-0.43,0.32-0.87,0.45-1.32
		c0.14-0.48,0.25-0.98,0.34-1.47c0.01-0.05-0.01-0.1-0.06-0.12c-0.01,0-0.02,0-0.03,0c-0.04,0-0.08,0.02-0.09,0.07
		c-0.16,0.8-0.43,1.58-0.78,2.32c0,0,0-0.01,0-0.01c-0.01,0.01-0.01,0.03-0.02,0.04c0,0,0,0,0,0l0,0c-0.3,0.63-0.68,1.23-1.07,1.81
		c-0.4,0.6-0.85,1.16-1.3,1.72c-0.46,0.57-0.92,1.13-1.39,1.68c-0.47,0.57-0.95,1.13-1.39,1.72c-0.1,0.13-0.07,0.34,0.04,0.45
		c0.07,0.07,0.16,0.12,0.26,0.12c0.09,0,0.21-0.03,0.27-0.1C155.07,106.48,155.68,105.75,156.28,105.01z M161.05,134.6
		c-0.01,0-0.02,0.01-0.03,0.01c0,0,0.01,0,0.01,0C161.03,134.61,161.04,134.61,161.05,134.6z M179.85,110.19
		c-0.13,0-0.25,0.1-0.25,0.24c0,0.13,0.11,0.25,0.24,0.25c0.13,0,0.25-0.1,0.25-0.24C180.09,110.32,179.98,110.19,179.85,110.19z
		 M184.47,113.58c0.07-0.03,0.1-0.09,0.13-0.16c0.27-0.69,0.54-1.38,0.81-2.08c0.27-0.69,0.55-1.38,0.82-2.07
		c0.04-0.1-0.02-0.23-0.1-0.28c-0.04-0.02-0.08-0.04-0.13-0.04c-0.02,0-0.04,0-0.05,0.01c-0.06,0.01-0.13,0.05-0.15,0.11
		c-0.32,0.67-0.59,1.35-0.87,2.04c-0.28,0.71-0.55,1.43-0.84,2.14c-0.05,0.14,0.04,0.3,0.18,0.34
		C184.33,113.63,184.41,113.62,184.47,113.58z M199.18,119.37c-0.65,0.56-1.35,1.07-2.08,1.53c-0.12,0.07-0.15,0.24-0.07,0.36
		c0.08,0.12,0.24,0.15,0.36,0.07c1.5-0.92,2.86-2.08,4-3.43c0.1-0.11,0.09-0.28-0.02-0.38c-0.05-0.04-0.11-0.07-0.18-0.07
		c-0.08,0-0.15,0.03-0.2,0.09C200.42,118.19,199.82,118.8,199.18,119.37z M171.18,116.46c-0.03-0.01-0.06-0.02-0.09-0.02
		c-0.13,0-0.24,0.09-0.29,0.21c-0.06,0.14-0.12,0.28-0.18,0.42c-0.31,0.64-0.7,1.23-1.15,1.78c-0.26,0.3-0.53,0.58-0.81,0.85
		c-0.13,0.12-0.14,0.33-0.02,0.47c0.12,0.14,0.33,0.14,0.47,0.02c1.03-0.9,1.78-2.08,2.27-3.35
		C171.43,116.69,171.33,116.51,171.18,116.46z M172.26,107.79c-0.02-0.02-0.05-0.04-0.08-0.04c0,0,0,0,0,0
		c-0.06,0-0.12,0.05-0.12,0.11c0.04,0.61,0.02,1.23-0.03,1.84c-0.05,0.61-0.14,1.22-0.25,1.82c0,0,0,0,0-0.01
		c-0.15,0.86-0.35,1.71-0.53,2.57c-0.01,0.04-0.01,0.08,0.01,0.11c0.02,0.03,0.05,0.06,0.08,0.07c0.07,0.02,0.17-0.02,0.19-0.1
		c0.24-1.02,0.46-2.04,0.61-3.07c0.08-0.53,0.13-1.07,0.16-1.61c0.03-0.54,0.02-1.08-0.02-1.62
		C172.29,107.84,172.28,107.81,172.26,107.79z M168.89,115.72c-0.04-0.02-0.08-0.03-0.12-0.03c-0.08,0-0.16,0.04-0.21,0.12
		c-0.36,0.52-0.74,1.03-1.13,1.53c0.01-0.01,0.02-0.02,0.03-0.03c-1.04,1.3-2.14,2.55-3.34,3.69c-0.11,0.1-0.11,0.28-0.01,0.39
		c0.1,0.11,0.28,0.11,0.39,0.01c0.84-0.79,1.65-1.61,2.4-2.49c0.77-0.89,1.46-1.85,2.08-2.85
		C169.04,115.94,169,115.79,168.89,115.72z M167.5,121.89C167.5,121.89,167.5,121.89,167.5,121.89c-0.07,0-0.11,0.02-0.16,0.06
		c-0.33,0.27-0.66,0.53-1,0.79c-0.12,0.09-0.24,0.18-0.37,0.26c-0.05,0.04-0.09,0.08-0.11,0.14c-0.02,0.06-0.01,0.12,0.02,0.18
		c0.03,0.05,0.08,0.1,0.14,0.11c0.05,0.02,0.13,0.02,0.18-0.02c0.51-0.35,0.99-0.73,1.45-1.15c0.09-0.08,0.09-0.23,0-0.31
		C167.62,121.92,167.56,121.89,167.5,121.89z M194.55,108.72c0-0.01,0.01-0.02,0.01-0.03c0-0.01,0.01-0.02,0.01-0.03
		C194.57,108.68,194.56,108.7,194.55,108.72z M194.14,119.65c0.02,0.07,0.08,0.13,0.15,0.17c0.07,0.03,0.14,0.04,0.21,0.02
		c0.08-0.03,0.12-0.08,0.17-0.15c0.01-0.01,0.01-0.02,0.02-0.03c0.3-0.44,0.65-0.85,1.04-1.21c0.24-0.2,0.49-0.39,0.75-0.55
		c0.13-0.08,0.16-0.26,0.08-0.38c-0.05-0.08-0.14-0.12-0.23-0.12c-0.05,0-0.11,0.02-0.16,0.04c-0.4,0.25-0.76,0.54-1.1,0.86
		c-0.35,0.34-0.65,0.73-0.92,1.14C194.12,119.49,194.12,119.59,194.14,119.65z M185.94,134.72c1.1-0.84,2.18-1.72,3.23-2.62
		c0.02-0.02,0.04-0.04,0.05-0.07c0.01-0.03,0-0.06-0.02-0.09c-0.02-0.03-0.04-0.04-0.07-0.05c-0.01,0-0.02,0-0.03,0
		c-0.02,0-0.04,0.01-0.06,0.02c-0.52,0.44-1.04,0.88-1.57,1.31c-0.55,0.44-1.11,0.87-1.67,1.3c-0.05,0.04-0.07,0.11-0.03,0.17
		C185.8,134.74,185.89,134.76,185.94,134.72z M189.77,99.25c2.53-5.34,4.52-11.59,10.79-13.53c0.08-0.03,0.05-0.15-0.04-0.13
		c-6.41,1.4-9.51,7.71-10.96,13.58C189.53,99.28,189.72,99.37,189.77,99.25z M159.13,135.57c1.95-0.58,3.84-1.34,5.67-2.24
		c1.9-0.94,3.74-2.03,5.47-3.25c1.72-1.21,3.35-2.54,4.84-4.02c1.46-1.44,2.78-3.02,3.9-4.75c2.3-3.54,3.77-7.53,5.43-11.4
		c0.29-0.66,0.58-1.33,0.88-1.98c0.45-0.97,0.94-1.93,1.46-2.87c0.53-0.95,1.11-1.86,1.74-2.76c0.05-0.07,0.02-0.18-0.05-0.23
		c-0.03-0.02-0.06-0.03-0.09-0.03c-0.06,0-0.11,0.03-0.14,0.08c-0.65,0.84-1.23,1.74-1.77,2.66c-0.54,0.91-1.03,1.84-1.5,2.79
		c-0.94,1.9-1.77,3.84-2.6,5.79c-0.43,1-0.87,1.99-1.32,2.98c0,0,0-0.01,0.01-0.02c-0.62,1.32-1.27,2.62-2.02,3.88
		c-0.74,1.25-1.57,2.43-2.5,3.55c-1.91,2.29-4.14,4.3-6.56,6.04c-2.76,1.97-5.75,3.61-8.93,4.8c0,0,0,0,0,0
		c-0.01,0-0.02,0.01-0.03,0.01c0,0-0.01,0-0.01,0c0,0,0,0,0,0c-0.64,0.24-1.29,0.45-1.95,0.65c-0.08,0.02-0.14,0.1-0.12,0.19
		C158.96,135.53,159.05,135.6,159.13,135.57z M162.78,141.31c-0.06,0.01-0.11,0.05-0.1,0.12c0,0.06,0.06,0.11,0.12,0.1
		c1.07-0.12,2.13-0.32,3.17-0.6c0.05-0.01,0.08-0.07,0.06-0.12c-0.01-0.04-0.05-0.06-0.09-0.06c-0.01,0-0.02,0-0.03,0
		c-0.4,0.1-0.8,0.19-1.21,0.27c0,0,0.01,0,0.01,0C164.07,141.14,163.42,141.24,162.78,141.31z M194.15,134.19
		c0.07-0.07,0.06-0.19-0.02-0.26c-0.03-0.03-0.08-0.04-0.12-0.04c-0.05,0-0.1,0.02-0.14,0.06c-1.02,1.14-2.1,2.21-3.24,3.23
		c-0.03,0.03-0.05,0.08-0.04,0.12c0,0.05,0.02,0.09,0.06,0.12c0.03,0.03,0.08,0.05,0.13,0.04c0.05,0,0.08-0.03,0.12-0.06
		C192.05,136.41,193.13,135.33,194.15,134.19z M198.06,129.67c-0.06,0-0.12,0.02-0.16,0.07c-0.96,1.1-1.87,2.25-2.78,3.4
		c-0.09,0.11-0.08,0.26,0.02,0.36c0.1,0.09,0.27,0.09,0.36-0.02c0.91-1.15,1.84-2.29,2.72-3.45c0.07-0.09,0.07-0.22-0.02-0.3
		C198.16,129.68,198.11,129.67,198.06,129.67z M201.37,123.01c-0.04,0-0.09,0.01-0.12,0.04c-2.77,2.39-5.35,4.97-7.95,7.54
		c-2.11,2.09-4.23,4.17-6.47,6.12c-1.31,1.13-2.66,2.22-4.07,3.22c-1.42,1.01-2.91,1.93-4.46,2.73c-0.29,0.15-0.57,0.29-0.86,0.43
		c-1.2,0.57-2.43,1.07-3.68,1.48c-1.31,0.44-2.66,0.77-4.02,1.03c0,0,0,0,0,0c0,0-0.01,0-0.01,0c-0.03,0-0.05,0.01-0.08,0.01
		c0.01,0,0.01,0,0.02,0c-0.56,0.1-1.13,0.19-1.7,0.26c-0.17,0.02-0.31,0.15-0.3,0.33c0.01,0.17,0.16,0.32,0.33,0.3
		c1.92-0.18,3.82-0.56,5.67-1.12c1.73-0.52,3.41-1.21,5.02-2.04c3.12-1.6,5.93-3.74,8.55-6.06c2.66-2.36,5.13-4.94,7.63-7.47
		c2.14-2.17,4.31-4.32,6.61-6.32c-0.02,0.01-0.03,0.03-0.05,0.04c0.03-0.02,0.05-0.05,0.08-0.07c0.05-0.04,0.09-0.08,0.11-0.15
		c0.01-0.06,0-0.13-0.04-0.18C201.55,123.06,201.46,123.01,201.37,123.01z M196.31,137.04c-0.07,0-0.14,0.03-0.18,0.09
		c-1.06,1.38-2.24,2.65-3.55,3.79c-0.32,0.28-0.65,0.55-0.99,0.81c-0.05,0.04-0.08,0.08-0.1,0.14c-0.01,0.06,0,0.12,0.03,0.17
		c0.06,0.1,0.22,0.14,0.32,0.07c1.77-1.32,3.33-2.91,4.67-4.65c0.08-0.11,0.08-0.26-0.02-0.36
		C196.43,137.06,196.37,137.04,196.31,137.04z M169.73,145.59c-0.02,0-0.05,0.01-0.07,0.01
		C169.69,145.6,169.71,145.59,169.73,145.59L169.73,145.59z M215.33,91.27c0.01-0.01,0.02-0.02,0.03-0.03
		C215.35,91.25,215.34,91.26,215.33,91.27C215.33,91.27,215.33,91.27,215.33,91.27z M243.8,72.77c-0.05-0.08-0.13-0.12-0.22-0.13
		c-0.33-0.03-0.66-0.05-0.99-0.05c-0.12,0-0.24,0-0.36,0c-0.44,0.01-0.89,0.05-1.33,0.1c-0.84,0.1-1.68,0.28-2.49,0.54
		c-1.6,0.51-3.11,1.3-4.47,2.29c-1.39,1.01-2.65,2.19-3.78,3.49c-1.15,1.31-2.17,2.73-3.11,4.2c-0.56,0.88-1.08,1.78-1.57,2.7
		c-0.12,0.23-0.24,0.46-0.36,0.7c-0.27,0.41-0.52,0.83-0.76,1.26c-0.47,0.83-0.87,1.7-1.21,2.59c-0.19,0.51-0.36,1.03-0.51,1.56
		c-0.64-1.99-1.15-4.02-1.44-6.1c-0.01-0.09-0.02-0.18-0.03-0.27c0.08-0.15,0.15-0.3,0.24-0.45c0.1-0.17,0.1-0.4,0-0.57
		c-0.08-0.14-0.22-0.23-0.37-0.26c-0.04-0.47-0.07-0.94-0.08-1.41c0-0.15,0-0.3,0-0.45c0.12-0.87,0.35-1.72,0.69-2.54
		c0.38-0.87,0.87-1.69,1.45-2.44c0,0.01-0.01,0.01-0.01,0.02c0.65-0.84,1.39-1.59,2.19-2.28c0.04,0.01,0.08,0.02,0.12,0.03
		c0.13,0.01,0.27,0.03,0.4,0.04c0.15,0.01,0.31,0.01,0.46,0.01c0.34-0.01,0.69-0.05,1.03-0.09c0.71-0.1,1.41-0.28,2.09-0.5
		c0.76-0.24,1.5-0.53,2.22-0.86c0.72-0.33,1.42-0.72,2.09-1.15c1.05-0.67,2.05-1.48,2.82-2.46c0.34-0.44,0.64-0.91,0.86-1.42
		c0.21-0.49,0.33-1.01,0.36-1.55c0-0.07-0.05-0.13-0.12-0.15c0.02-0.02,0.05-0.04,0.07-0.06c0.04-0.06,0.05-0.14,0.03-0.21
		c-0.03-0.12-0.14-0.2-0.26-0.2c-0.44-0.02-0.88-0.03-1.33-0.03c-0.28,0-0.56,0-0.83,0.01c-0.72,0.02-1.45,0.07-2.17,0.15
		c-1.39,0.17-2.77,0.49-4.03,1.11c-0.57,0.28-1.1,0.63-1.57,1.04c-0.49,0.42-0.91,0.92-1.25,1.48c-0.75,1.23-1.03,2.7-1.05,4.13
		c-0.04,0.02-0.07,0.04-0.1,0.07c-0.07,0.07-0.11,0.17-0.11,0.27c0,0.01,0,0.02,0.01,0.03c-0.92,0.81-1.76,1.7-2.47,2.69
		c-0.58,0.81-1.06,1.71-1.41,2.65c0,0.01-0.01,0.03-0.01,0.04c0-0.08-0.01-0.15-0.01-0.23c-0.01-0.23-0.03-0.47-0.06-0.7
		c0.08-1.11,0.2-2.21,0.34-3.31c0.27-2.02,0.65-4.02,1.15-5.99c0.5-2,1.12-3.98,1.92-5.88c0.77-1.8,1.69-3.55,2.89-5.11
		c0.62-0.79,1.31-1.53,2.09-2.17c0.14-0.11,0.11-0.34,0-0.46c-0.06-0.06-0.14-0.09-0.22-0.09c-0.08,0-0.17,0.03-0.24,0.09
		c-0.9,0.74-1.68,1.6-2.38,2.52c-0.76,1-1.42,2.08-2,3.2c-0.37,0.71-0.71,1.43-1.02,2.17c-0.09-0.2-0.18-0.4-0.26-0.61
		c-0.12-0.34-0.2-0.69-0.28-1.03c-0.08-0.34-0.15-0.68-0.22-1.02c-0.13-0.69-0.21-1.38-0.26-2.07c-0.02-0.24-0.02-0.48-0.03-0.72
		c0.02-0.01,0.05-0.02,0.07-0.04c0.41-0.36,0.74-0.8,1.06-1.24c0.3-0.41,0.57-0.84,0.83-1.28c0.25-0.42,0.48-0.85,0.71-1.29
		c0.22-0.43,0.43-0.86,0.61-1.3c0.73-1.71,1.14-3.53,1.35-5.37c0.18-1.66,0.19-3.34,0.13-5c-0.07-1.76-0.22-3.53-0.38-5.28
		c-0.01-0.08-0.08-0.15-0.15-0.18c-0.02-0.01-0.05-0.01-0.08-0.01c-0.06,0-0.11,0.02-0.16,0.06c-1.5,1.35-2.82,2.89-3.82,4.64
		c-0.47,0.82-0.87,1.68-1.19,2.57c-0.32,0.87-0.55,1.78-0.72,2.69c-0.31,1.72-0.33,3.49-0.11,5.22c0.2,1.58,0.61,3.12,1.16,4.61
		c-0.02,0.51-0.02,1.02,0.01,1.53c0.05,1,0.2,2,0.45,2.97c0.14,0.52,0.31,1.02,0.5,1.52c0.11,0.27,0.21,0.54,0.3,0.82
		c0.05,0.14,0.1,0.28,0.15,0.41c0.01,0.03,0.02,0.06,0.04,0.09c-0.11,0.28-0.22,0.56-0.33,0.84c-0.5,1.3-0.92,2.62-1.3,3.96
		c-0.52,1.84-0.93,3.71-1.25,5.6c-0.18-0.77-0.38-1.53-0.62-2.28c-0.04-0.13-0.09-0.25-0.13-0.38c-0.02-1.72-0.07-3.44-0.28-5.15
		c-0.12-0.98-0.3-1.95-0.56-2.91c-0.26-0.95-0.61-1.88-1.05-2.77c-0.46-0.93-1.04-1.8-1.69-2.6c-0.63-0.77-1.35-1.45-2.16-2.01
		c-1.5-1.04-3.27-1.59-5.05-1.95c-1.22-0.24-2.46-0.4-3.7-0.58c-0.02,0-0.03,0-0.04,0c-0.04,0-0.08,0.01-0.12,0.05
		c-0.05,0.05-0.06,0.14-0.03,0.2c0.37,0.71,0.7,1.43,1.01,2.17c0.74,1.76,1.36,3.56,2.11,5.32c0.37,0.87,0.77,1.72,1.24,2.54
		c0.47,0.83,1.01,1.62,1.61,2.36c0.47,0.57,0.99,1.11,1.55,1.6c0.64,0.56,1.33,1.06,2.05,1.51c0.7,0.43,1.43,0.81,2.17,1.17
		c0.38,0.19,0.76,0.37,1.14,0.55c0.26,0.12,0.52,0.24,0.79,0.35c0.13,0.43,0.25,0.86,0.36,1.29c0.4,1.52,0.73,3.07,0.96,4.62
		c-0.02,0.21-0.05,0.42-0.07,0.63c-0.05-0.06-0.09-0.12-0.14-0.18c-0.39-0.5-0.88-0.9-1.39-1.27c-1.03-0.76-2.23-1.28-3.43-1.73
		c-1.17-0.44-2.37-0.76-3.57-1.09c-1.1-0.3-2.19-0.6-3.29-0.91c-1.12-0.31-2.25-0.6-3.38-0.9c-1.04-0.28-2.08-0.56-3.12-0.83
		c-0.11-0.1-0.21-0.21-0.32-0.31c-0.18-0.16-0.36-0.31-0.54-0.46c-0.36-0.29-0.72-0.57-1.09-0.85c-0.73-0.57-1.46-1.14-2.16-1.75
		c-1.37-1.19-2.66-2.49-3.77-3.93c-0.44-0.58-0.85-1.18-1.23-1.8c0.2-0.32,0.38-0.65,0.53-1c0.19-0.42,0.35-0.86,0.48-1.31
		c0.26-0.9,0.4-1.83,0.47-2.77c0.07-0.95,0.05-1.91-0.01-2.86c-0.07-1-0.19-2-0.34-2.99c-0.41-2.75-1.05-5.47-1.43-8.22
		c-0.06-0.48-0.12-0.96-0.15-1.44c-0.02-0.24-0.04-0.48-0.05-0.73c-0.01-0.12-0.01-0.24-0.02-0.36c0-0.12,0-0.24-0.02-0.35
		c0-0.06-0.02-0.12-0.05-0.17c-0.03-0.05-0.07-0.09-0.12-0.12c-0.05-0.03-0.11-0.05-0.18-0.05c-0.09,0-0.18,0.03-0.24,0.1
		c-0.15,0.16-0.3,0.31-0.44,0.47c-0.16,0.17-0.32,0.35-0.47,0.53c-0.3,0.36-0.59,0.73-0.86,1.11c-0.55,0.78-1.02,1.61-1.43,2.47
		c-0.42,0.88-0.77,1.79-1.04,2.73c-0.27,0.92-0.47,1.86-0.59,2.82c-0.24,1.86-0.13,3.78,0.41,5.58c0.26,0.85,0.62,1.67,1.07,2.43
		c0.44,0.74,0.95,1.43,1.51,2.09c0.53,0.62,1.11,1.21,1.7,1.78c0.21,0.21,0.43,0.41,0.65,0.61c0.65,1.11,1.38,2.16,2.18,3.17
		c1.14,1.44,2.43,2.77,3.82,3.96c0.38,0.32,0.77,0.63,1.17,0.93c-1.46-0.41-2.92-0.84-4.36-1.31c-1.6-0.52-3.19-1.09-4.74-1.74
		c-2.62-1.11-5.15-2.45-7.42-4.18c0,0,0.01,0,0.01,0.01c-1.11-0.86-2.15-1.81-3.1-2.84c0.23-0.39,0.4-0.82,0.52-1.25
		c0.14-0.51,0.21-1.05,0.23-1.58c0.05-1.07-0.11-2.15-0.32-3.2c-0.1-0.52-0.22-1.04-0.33-1.56c-0.13-0.59-0.27-1.18-0.42-1.77
		c-0.3-1.17-0.63-2.34-0.98-3.5c-0.5-1.65-1.02-3.29-1.54-4.93c-0.52-1.67-1.02-3.34-1.47-5.03c-0.03-0.13-0.15-0.2-0.27-0.2
		c-0.05,0-0.09,0.01-0.14,0.04c-1.28,0.74-2.26,1.9-3.01,3.17c-0.41,0.7-0.75,1.44-1.03,2.2c-0.29,0.77-0.52,1.57-0.69,2.38
		c-0.33,1.56-0.46,3.18-0.29,4.77c0.08,0.7,0.21,1.4,0.44,2.07c0.32,0.92,0.76,1.8,1.29,2.62c0.94,1.43,2.17,2.65,3.51,3.7
		c1.33,1.04,2.77,1.93,4.23,2.78c2.77,3.04,6.34,5.25,10.06,6.94c0.57,0.26,1.15,0.5,1.73,0.74c-0.13,0.04-0.26,0.09-0.39,0.13
		c-0.5,0.16-0.99,0.32-1.49,0.45c-0.95,0.26-1.92,0.48-2.9,0.62c-0.71,0.09-1.43,0.16-2.16,0.17c-0.27,0-0.55,0-0.82-0.02
		c-0.17-0.1-0.33-0.2-0.49-0.32c-0.61-0.48-1.12-1.07-1.59-1.68c-0.51-0.67-0.98-1.36-1.44-2.06c-0.45-0.68-0.9-1.36-1.4-2
		c-0.21-0.28-0.44-0.54-0.68-0.79c-0.36-0.36-0.74-0.7-1.14-1.02c-0.81-0.66-1.69-1.24-2.6-1.75c-2.04-1.13-4.25-1.9-6.48-2.58
		c-0.02-0.01-0.04-0.01-0.06-0.01c-0.1,0-0.2,0.07-0.22,0.17c-0.13,0.65-0.14,1.32-0.07,1.98c0.08,0.74,0.25,1.47,0.47,2.18
		c0.25,0.78,0.57,1.53,0.92,2.26c0.38,0.76,0.81,1.5,1.28,2.21c0.93,1.4,2.03,2.7,3.29,3.81c0.57,0.5,1.19,0.97,1.84,1.36
		c0.58,0.35,1.21,0.64,1.86,0.83c0.63,0.18,1.29,0.27,1.95,0.25c0.6-0.02,1.2-0.15,1.78-0.34c0.58-0.19,1.14-0.46,1.67-0.75
		c0.27-0.15,0.54-0.31,0.81-0.47c0.23-0.14,0.47-0.29,0.68-0.47c0.06-0.02,0.11-0.03,0.17-0.04c0.07,0.02,0.14,0,0.2-0.04
		c0.04-0.01,0.08-0.02,0.12-0.02c0.34-0.06,0.69-0.08,1.03-0.11c0.03,0,0.05-0.02,0.07-0.03c0.11,0,0.21-0.01,0.32-0.01
		c0.85-0.05,1.7-0.16,2.54-0.3c0.85-0.14,1.69-0.34,2.52-0.58c0.54-0.15,1.08-0.33,1.59-0.56c1.41,0.55,2.83,1.05,4.26,1.52
		c-0.1,0.09-0.19,0.18-0.29,0.27c-0.21,0.2-0.41,0.4-0.61,0.59c-0.4,0.39-0.81,0.77-1.24,1.12c-0.46,0.38-0.95,0.73-1.46,1.05
		c-0.57-0.06-1.14-0.09-1.71-0.09c-1,0-2,0.09-2.98,0.26c-1.71,0.29-3.38,0.83-4.91,1.63c-0.98,0.51-1.91,1.15-2.73,1.9
		c-0.4,0.37-0.78,0.76-1.12,1.19c-0.17,0.21-0.33,0.43-0.48,0.65c-0.03,0.04-0.06,0.09-0.09,0.14c-0.04,0.02-0.08,0.05-0.12,0.07
		c-0.06,0.03-0.07,0.11-0.04,0.17c-0.08,0.12-0.15,0.24-0.23,0.36c-0.04,0.07-0.02,0.17,0.04,0.22c0.06,0.05,0.15,0.06,0.22,0.02
		c0.15-0.09,0.29-0.18,0.45-0.25c0.28-0.12,0.56-0.21,0.86-0.27c0.48-0.08,0.98-0.08,1.47-0.04c1,0.09,1.98,0.33,2.99,0.43
		c0.45,0.04,0.91,0.06,1.37,0.07c0.47,0.01,0.94,0.01,1.42-0.02c0.96-0.04,1.92-0.17,2.84-0.45c0.45-0.13,0.88-0.31,1.29-0.53
		c0.42-0.22,0.8-0.49,1.15-0.81c0.31-0.29,0.58-0.63,0.77-1.01c0.18-0.35,0.28-0.75,0.31-1.14c0.03-0.4-0.02-0.8-0.1-1.2
		c-0.04-0.2-0.1-0.4-0.16-0.59c-0.03-0.08-0.06-0.17-0.09-0.25c0.08-0.05,0.16-0.09,0.24-0.14c0.69-0.44,1.33-0.97,1.93-1.54
		c0.29-0.28,0.57-0.57,0.84-0.87c0.23-0.26,0.44-0.53,0.66-0.8c1.79,0.58,3.59,1.11,5.39,1.64c2.08,0.61,4.16,1.22,6.23,1.86
		c1.03,0.32,2.06,0.63,3.08,0.95c1.09,0.34,2.17,0.71,3.23,1.14c1.08,0.46,2.12,1.01,3.06,1.72c0.7,0.55,1.33,1.17,1.89,1.85
		c0,0.04-0.01,0.07-0.01,0.11c-0.05,0.75-0.07,1.51-0.05,2.26c0.01,0.23,0.02,0.47,0.03,0.7c0,0-0.01,0-0.01,0
		c-1.26-0.19-2.47-0.63-3.64-1.07c-0.34-0.13-0.68-0.25-1.02-0.37c-1.68-0.59-3.19-1.04-4.61-1.38c-1.59-0.37-3.12-0.6-4.57-0.66
		c-0.25-0.01-0.5-0.02-0.76-0.02c-1.27,0-2.55,0.14-3.8,0.43c-1.52,0.35-3.06,0.95-4.58,1.81c-1.07,0.6-2.12,1.36-3.1,2.24
		c-1.56,1.41-3,3.23-4.39,5.58c-1.03,1.74-1.93,3.59-2.8,5.37c-1.02,2.08-2.07,4.24-3.33,6.24c-0.27-0.58-0.55-1.17-0.81-1.75
		c-0.94-2.05-1.84-4.15-2.72-6.19c-1.58-3.67-3.21-7.47-5.1-11.08c-1.6-3.06-3.25-5.7-5.05-8.07c-1.09-1.43-2.06-2.57-3.05-3.57
		c-0.97-0.97-2.06-1.9-3.23-2.76c-1.11-0.81-2.3-1.56-3.54-2.22c-1.12-0.6-2.32-1.16-3.68-1.7c-2.8-1.13-5.66-1.94-7.84-2.53
		c-1.16-0.31-2.33-0.61-3.49-0.91c-0.92-0.23-1.83-0.47-2.75-0.71c-1.2-0.32-2.19-0.59-3.12-0.86c-0.53-0.15-1.06-0.31-1.59-0.48
		c-0.21-0.06-0.41-0.13-0.62-0.2c-0.32-0.1-0.64-0.2-0.96-0.3c-0.04-0.01-0.09-0.02-0.13-0.02c-0.2,0-0.39,0.12-0.49,0.29
		c-0.12,0.22-0.07,0.49,0.11,0.66c0.04,0.03,0.07,0.07,0.11,0.1c0.04,0.03,0.08,0.07,0.12,0.11c0.06,0.06,0.12,0.13,0.18,0.2
		c0.13,0.15,0.24,0.27,0.34,0.39l0.04,0.04l0,0c0.93,1.15,1.71,2.38,2.31,3.68c0.57,1.25,0.98,2.58,1.22,3.96
		c0.27,1.65,0.31,3.43,0.1,5.43l0.02-0.13c-0.3,2.75-0.96,5.46-1.6,8.09l-0.09,0.39c-0.58,2.36-1.17,4.81-1.57,7.25
		c-3.01-1.64-6.31-3.07-10.07-4.38c-5.43-1.9-11.36-3.34-18.12-4.41c-0.39-0.06-0.79-0.12-1.18-0.18c-0.04-0.01-0.08-0.01-0.11-0.01
		c-0.22,0-0.39,0.1-0.49,0.28c-0.11,0.21-0.07,0.46,0.1,0.65c0.32,0.35,0.63,0.69,0.91,1.02c1.04,1.27,1.92,2.66,2.61,4.14
		c1.19,2.62,1.76,5.43,2.12,7.58c0,0,0.01,0.02,0.01,0.02l0,0l0,0c0,0,0.01,0.01,0.01,0.02c0,0.02,0,0.04,0,0.06l0.01,0.03h0l0,0
		l0,0h0l0,0l0,0.01l0,0c0.15,1,0.3,2,0.45,3.01c0.12,0.84,0.25,1.69,0.38,2.53c0.34,2.17,0.75,4.28,1.22,6.27
		c1.04,4.39,2.47,8.53,4.25,12.32c2.42,5.14,6.8,12.1,13.96,16.08c-2.1,0.55-4.26,1.68-6.41,3.32c-2.5,1.91-4.85,4.38-7.01,7.35
		c-1.69,2.33-3.09,4.82-4.14,7.41c-1.04,2.55-1.59,4.99-1.63,7.25c0,0.14,0.05,0.27,0.15,0.37c0.11,0.11,0.25,0.17,0.4,0.17
		c0.05,0,0.09-0.01,0.14-0.02c4.11-1.07,8.67-1.94,13.93-2.65l-0.07,0c6.27-0.83,12.67-1.31,18.87-1.77
		c2.83-0.21,5.77-0.43,8.65-0.68c4.34-0.38,7.93-0.77,11.29-1.24c0.06-0.01,0.13-0.04,0.19-0.08c0.45-0.01,0.89-0.02,1.34-0.05
		c3.28-0.17,6.58-0.72,9.79-1.65c3.08-0.89,6.14-2.16,9.11-3.78c2.81-1.53,5.57-3.43,8.19-5.66c2.48-2.11,4.83-4.55,6.98-7.25
		c2.13-2.68,4.04-5.6,5.65-8.68c1.61-3.06,2.97-6.38,4.04-9.84c0.16-0.52,0.31-1.04,0.46-1.56c0.01-0.03,0.01-0.07,0.02-0.11
		c1.53-2.26,2.87-4.83,3.98-7.63c0.4-0.99,0.9-2.31,1.28-3.65c0.34-1.22,0.55-2.45,0.69-3.39c0.21-1.39,0.36-2.8,0.51-4.17
		c0.11-1.07,0.23-2.17,0.38-3.25c0.22-1.63,0.54-3.48,1.13-5.27c0.17,0.93,0.38,1.84,0.63,2.75c0.43,1.56,0.95,3.08,1.53,4.59
		c1.18,3.06,2.58,6.03,3.93,9.02c0.45,0.99,0.88,1.99,1.31,2.98c0,0,0,0,0,0c0,0,0,0,0,0c0,0,0,0,0,0c0.02,0.04,0.03,0.08,0.05,0.12
		c-0.01-0.03-0.03-0.06-0.04-0.09c0.55,1.32,1.08,2.65,1.54,4.01c0.52,1.51,0.95,3.05,1.17,4.64c0,0.03,0,0.06,0.01,0.09
		c0.02,0.17,0.13,0.32,0.32,0.32c0.16,0,0.33-0.15,0.32-0.32c-0.02-0.19-0.02-0.38-0.03-0.57c-0.01-0.23-0.04-0.45-0.06-0.68
		c-0.05-0.45-0.12-0.9-0.2-1.35c-0.15-0.81-0.37-1.6-0.59-2.39c-0.42-1.45-0.91-2.88-1.44-4.29c-0.55-1.45-1.15-2.87-1.75-4.3
		c-0.59-1.39-1.19-2.77-1.78-4.16c0,0,0,0.01,0,0.01c-0.74-1.76-1.46-3.54-2.08-5.36c0.1-0.4,0.2-0.8,0.31-1.2
		c0.18-0.62,0.4-1.23,0.65-1.83c0.45-0.54,0.97-1.02,1.53-1.44c1.24-0.92,2.66-1.55,4.09-2.12c-0.02,0.01-0.03,0.01-0.04,0.02
		c1.69-0.66,3.42-1.23,5.03-2.06c0.39-0.2,0.78-0.42,1.15-0.66c0.4-0.26,0.78-0.54,1.15-0.83c0.78-0.63,1.49-1.34,2.14-2.1
		c1.01-1.17,1.89-2.46,2.68-3.79c0.39-0.66,0.76-1.34,1.12-2.02c0.18-0.33,0.35-0.67,0.51-1.01c0.17-0.33,0.32-0.67,0.49-0.99
		C243.84,72.94,243.84,72.85,243.8,72.77z M190.78,80.09c-0.01,0.01-0.02,0.01-0.04,0.02C190.76,80.1,190.77,80.09,190.78,80.09
		L190.78,80.09C190.78,80.09,190.78,80.09,190.78,80.09C190.78,80.09,190.78,80.09,190.78,80.09
		C190.78,80.09,190.78,80.09,190.78,80.09z M217.76,91.72c-0.3,1.72-0.5,3.49-0.7,5.2c-0.11,0.99-0.23,2.02-0.36,3.02l0.03-0.2
		c-0.15,1.08-0.37,2.49-0.72,3.89c-0.34,1.35-0.81,2.75-1.39,4.16c-0.96,2.26-2.25,4.57-3.96,7.06c-0.83,1.21-1.69,2.37-2.43,3.34
		c-0.21,0.28-0.43,0.56-0.65,0.84c-0.22,0.28-0.43,0.56-0.64,0.84c-0.32,0.42-0.63,0.86-0.94,1.29l-0.33,0.46
		c-0.13,0.18-0.06,0.44,0.07,0.58c0.09,0.09,0.21,0.14,0.33,0.14c0.13,0,0.25-0.05,0.34-0.14l0.27-0.25
		c0.18-0.17,0.36-0.33,0.53-0.5c0.29-0.28,0.56-0.57,0.81-0.84c0.45-0.49,0.93-1.03,1.45-1.66c0.14-0.17,0.27-0.33,0.41-0.5
		c-0.18,0.38-0.35,0.75-0.53,1.13c-0.34,0.71-0.71,1.44-1.13,2.24c-0.81,1.54-1.68,2.99-2.57,4.32l0.03-0.04
		c-0.88,1.29-1.8,2.5-2.74,3.6c-0.98,1.13-2.04,2.2-3.16,3.18h0c0,0,0,0,0,0c0,0,0,0,0,0l0,0l0,0c0,0-0.01,0.01-0.01,0.01
		c0,0,0,0,0,0l-0.03,0.03l0,0c-0.18,0.14-0.34,0.28-0.5,0.41c-0.09,0.07-0.15,0.14-0.17,0.25c-0.02,0.1,0,0.21,0.06,0.29
		c0.06,0.09,0.15,0.15,0.25,0.17c0.03,0,0.05,0.01,0.08,0.01c0.09,0,0.16-0.02,0.21-0.07c1.61-1.33,3.11-2.84,4.47-4.48
		c1.29-1.56,2.49-3.31,3.58-5.2c0.04-0.06,0.07-0.13,0.11-0.19c-1.68,3.45-3.7,6.74-6.03,9.75c-2.64,3.39-5.69,6.44-9.06,9.06
		c-3.28,2.53-6.82,4.6-10.52,6.17c-3.56,1.48-7.25,2.5-10.97,3.02c-1.86,0.25-3.76,0.37-5.64,0.37c-1.91,0-3.85-0.13-5.75-0.38
		l0.17,0.03c-3.86-0.54-7.77-1.61-11.58-3.21l0,0c0,0,0,0,0,0h0c-0.04-0.02-0.08-0.03-0.11-0.05l0.09,0.04
		c-0.11-0.05-0.22-0.1-0.33-0.15c-0.13-0.06-0.25-0.1-0.38-0.1c-0.06,0-0.11,0.01-0.17,0.02c-0.18,0.05-0.33,0.17-0.43,0.33
		c-0.1,0.17-0.12,0.37-0.07,0.55c0.04,0.15,0.16,0.35,0.33,0.43c3.36,1.48,6.82,2.57,10.3,3.22c-0.08,0-0.15-0.01-0.23-0.02
		c0.01,0,0.02,0,0.04,0c-0.03,0-0.05,0-0.08-0.01c0.01,0,0.02,0,0.03,0c-0.03,0-0.07,0-0.1-0.01l-0.01,0c0,0,0,0,0,0
		c-1.61-0.11-3.22-0.23-4.82-0.43c-0.82-0.1-1.63-0.24-2.43-0.41c-0.77-0.16-1.54-0.36-2.29-0.6c-0.18-0.06-0.36-0.13-0.54-0.19
		c-0.02-0.01-0.05-0.01-0.07-0.01c-0.06,0-0.12,0.03-0.15,0.09c-0.04,0.08-0.01,0.19,0.08,0.22c1.99,0.75,4.05,1.29,6.13,1.67
		c0.93,0.17,1.86,0.3,2.8,0.4c-3.22,0.3-6.45,0.56-9.61,0.82c-2.91,0.23-5.91,0.48-8.86,0.75c-4.54,0.42-8.5,0.89-12.1,1.43
		c-2.95,0.45-5.89,1-8.73,1.63l0.05-0.03l0.05-0.03l-0.03,0.01c0.42-0.29,0.85-0.57,1.29-0.85c0.77-0.41,1.61-0.79,2.56-1.15
		c1.5-0.56,3.11-1.02,4.95-1.4c1.65-0.35,3.41-0.62,5.24-0.8l-0.1,0c1.58-0.15,3.16-0.24,4.69-0.26c0.2,0,0.4,0,0.6,0
		c0.52,0,1.04,0.01,1.56,0.02c0.66,0.02,1.34,0.04,2,0.11h0c0.18,0,0.29-0.15,0.3-0.28c0-0.16-0.11-0.28-0.28-0.3
		c-0.14-0.02-0.28-0.03-0.42-0.05c-0.21-0.02-0.42-0.05-0.63-0.07c-0.37-0.04-0.75-0.07-1.12-0.09c-0.69-0.04-1.4-0.06-2.16-0.06
		H135c-1.71,0.01-3.49,0.12-5.31,0.33c-1.87,0.22-3.68,0.55-5.38,0.97c-0.2,0.05-0.4,0.1-0.6,0.16c0.32-0.12,0.64-0.25,0.96-0.37
		c3.28-1.22,6.64-2.01,9.99-2.36v0c1.14-0.11,2.26-0.17,3.34-0.17c1.56,0,3.07,0.12,4.51,0.35c0.96,0.16,1.81,0.36,2.58,0.59
		c0.03,0.01,0.06,0.01,0.1,0.01c0.15,0,0.28-0.1,0.32-0.23c0.03-0.08,0.02-0.17-0.02-0.25c-0.04-0.08-0.11-0.14-0.19-0.16
		c-0.55-0.17-0.98-0.29-1.38-0.38c-0.45-0.11-0.93-0.21-1.43-0.29c-0.97-0.17-1.98-0.28-3.01-0.34c-0.53-0.03-1.07-0.04-1.6-0.04
		c-1.48,0-3.06,0.11-4.68,0.34c-2.06,0.29-4.17,0.76-6.28,1.42c-2.04,0.64-4.03,1.44-5.92,2.38c-1.09,0.55-2.16,1.15-3.16,1.79
		c-0.28,0.15-0.55,0.31-0.84,0.49c0.87-0.71,1.81-1.43,2.78-2.11c0.01,0,0.01-0.01,0.02-0.01l0,0l0,0c3.17-2.22,6.41-3.96,9.68-5.19
		c2.43-0.9,4.66-1.46,6.84-1.69c0.71-0.07,1.4-0.11,2.06-0.11c0.93,0,1.84,0.07,2.7,0.21c0.56,0.1,0.98,0.19,1.36,0.29
		c0.03,0.01,0.06,0.01,0.09,0.01c0.15,0,0.27-0.09,0.31-0.23c0.03-0.08,0.02-0.18-0.03-0.26c-0.04-0.07-0.11-0.13-0.19-0.15
		c-0.52-0.14-0.95-0.25-1.35-0.32c-0.46-0.09-0.94-0.16-1.42-0.21c-0.58-0.06-1.19-0.1-1.81-0.1c-0.33,0-0.67,0.01-1.03,0.03
		c-1.86,0.1-3.84,0.45-5.89,1.05c-1.88,0.55-3.83,1.33-5.81,2.31c-1.78,0.88-3.57,1.93-5.33,3.12c-0.75,0.51-1.49,1.04-2.19,1.58
		c1.26-1.35,2.75-2.65,4.43-3.84L122.2,152c2.65-1.85,5.74-3.46,9.2-4.76c3.47-1.3,7.14-2.24,10.89-2.8
		c0.79-0.12,1.62-0.22,2.46-0.31l-0.05,0c1.41-0.13,2.72-0.21,4.01-0.22c0.15,0,0.3,0,0.45,0c0.49,0,0.97,0.01,1.46,0.02
		c0.74,0.02,1.33,0.06,1.87,0.12c0,0,0,0,0,0c0.19,0,0.35-0.16,0.35-0.34c0.01-0.19-0.13-0.34-0.33-0.36l-0.29-0.03
		c-0.29-0.03-0.57-0.06-0.86-0.08c-0.4-0.03-0.8-0.06-1.19-0.08c-0.51-0.02-1.05-0.03-1.6-0.03c-0.3,0-0.59,0-0.88,0.01
		c-1.71,0.04-3.5,0.18-5.32,0.43c-3.73,0.51-7.4,1.42-10.9,2.72c-3.77,1.4-7.11,3.15-9.94,5.22c-1.98,1.44-3.68,3.05-5.07,4.76
		c0.6-1.03,1.35-2.09,2.22-3.13l-0.03,0.03c1.72-2.03,3.88-3.96,6.41-5.74c2.84-1.99,5.81-3.57,8.83-4.71v0
		c1.07-0.4,2.15-0.74,3.19-1c1.05-0.27,2.02-0.44,2.97-0.54v0c0.5-0.05,0.9-0.07,1.27-0.08c0.14,0,0.25-0.1,0.26-0.24
		c0-0.07-0.03-0.13-0.07-0.18c-0.05-0.05-0.1-0.07-0.16-0.07c-2.66,0.03-5.56,0.69-8.87,2.03c-1.54,0.62-3.12,1.39-4.69,2.29
		c-1.54,0.88-3.05,1.87-4.48,2.96c-0.38,0.28-0.74,0.57-1.1,0.87c0.89-0.95,1.8-1.87,2.77-2.73c0,0-0.01,0.01-0.01,0.01
		c0.01-0.01,0.02-0.02,0.03-0.02c0,0,0.01-0.01,0.01-0.01c0,0,0,0,0,0c0.62-0.54,1.26-1.06,1.94-1.54c0.07-0.05,0.09-0.14,0.04-0.21
		c-0.03-0.04-0.08-0.07-0.13-0.07c-0.03,0-0.06,0.01-0.08,0.03c-0.9,0.64-1.78,1.31-2.62,2.02s-1.65,1.47-2.43,2.26
		c-0.78,0.79-1.54,1.61-2.27,2.44c-0.74,0.83-1.45,1.68-2.16,2.54c-0.01,0.01-0.02,0.03-0.03,0.04c0.97-1.64,2.11-3.25,3.41-4.79
		l-0.07,0.06c1.88-2.22,3.93-4.12,6.1-5.67c1.75-1.23,3.4-2.12,5.04-2.74c0.53-0.2,0.96-0.34,1.35-0.44
		c0.15-0.04,0.24-0.18,0.2-0.33c-0.03-0.12-0.14-0.21-0.27-0.21c-0.02,0-0.04,0-0.06,0.01c-0.35,0.09-0.81,0.22-1.26,0.38
		c-0.41,0.14-0.83,0.3-1.27,0.48c-0.81,0.34-1.65,0.76-2.48,1.24c-1.58,0.92-3.15,2.09-4.68,3.48c-1.43,1.3-2.8,2.8-4.06,4.44
		c-1.2,1.55-2.25,3.23-3.15,4.97c-0.3,0.58-0.57,1.18-0.82,1.77c0.11-0.81,0.25-1.61,0.45-2.4c0.17-0.3,0.34-0.6,0.52-0.91
		c0.61-1.07,1.22-2.14,1.9-3.18c0,0,0,0,0,0.01c0.19-0.28,0.38-0.56,0.58-0.84c0.03-0.04,0.03-0.1-0.01-0.13
		c-0.02-0.01-0.04-0.02-0.07-0.02c-0.03,0-0.05,0.01-0.07,0.03c-0.75,1.04-1.42,2.14-2.07,3.25c-0.18,0.31-0.37,0.63-0.55,0.94
		c0.04-0.13,0.07-0.25,0.11-0.38c1.03-2.34,2.42-4.67,4.13-6.92c0.03-0.03,0.06-0.05,0.09-0.08c0.06-0.05,0.1-0.11,0.11-0.18
		c1.82-2.32,3.81-4.31,5.93-5.96l-0.05,0.03c1.85-1.41,3.6-2.46,5.33-3.2c0.86-0.36,1.65-0.62,2.41-0.8
		c0.59,0.27,1.2,0.52,1.81,0.74c-0.42,0.05-0.83,0.12-1.24,0.2c-2.04,0.42-3.98,1.33-5.67,2.55c-0.08,0.06-0.17,0.12-0.25,0.19
		c-0.12,0.09-0.16,0.25-0.07,0.38c0.08,0.12,0.26,0.17,0.38,0.08c0.67-0.51,1.39-0.94,2.15-1.32c1.19-0.58,2.44-0.99,3.73-1.24
		c0.69-0.13,1.38-0.21,2.08-0.26c0.2-0.01,0.4-0.02,0.61-0.03c0.09,0.03,0.19,0.06,0.28,0.08c0.38,0.1,0.76,0.19,1.15,0.28
		c-0.54,0.14-1.07,0.28-1.6,0.44c-0.8,0.24-1.6,0.49-2.4,0.73c-0.09,0.03-0.14,0.13-0.11,0.21c0.03,0.09,0.13,0.13,0.21,0.11
		c0.98-0.3,1.98-0.54,2.99-0.74c1-0.19,2.02-0.33,3.03-0.4c0.52,0.06,1.05,0.11,1.59,0.14c-0.73,0.13-1.45,0.29-2.16,0.49
		c-0.84,0.24-1.65,0.56-2.43,0.95c-0.07,0.03-0.11,0.12-0.12,0.19c-0.02,0.08,0,0.15,0.04,0.22c0.04,0.07,0.11,0.11,0.19,0.12
		c0.08,0.02,0.15-0.01,0.22-0.04c0,0,0.01,0,0.01-0.01c-0.01,0-0.01,0.01-0.02,0.01c1.08-0.53,2.24-0.88,3.42-1.11
		c1.28-0.25,2.59-0.37,3.88-0.57c0.27-0.04,0.54-0.09,0.81-0.14c-1.09,0.52-2.17,1.04-3.28,1.51c-0.08,0.03-0.14,0.08-0.18,0.16
		c-0.03,0.07-0.04,0.15-0.02,0.23c0.05,0.15,0.23,0.26,0.39,0.19c1.51-0.64,3.01-1.33,4.51-2c0.6-0.27,1.21-0.54,1.81-0.81
		c1.56-0.35,3.22-0.87,5.04-1.57c1.69-0.65,3.45-1.45,5.53-2.49c1.91-0.96,3.64-1.89,5.28-2.83c0.11-0.06,0.19-0.17,0.21-0.31
		c0.75-0.47,1.53-1.02,2.52-1.76c2.04-1.55,3.96-3.27,5.71-5.13c1.14-1.21,2.24-2.51,3.26-3.89c0.99-1.32,1.92-2.77,2.77-4.29
		c0.07-0.13,0.03-0.3-0.09-0.38c-0.04-0.02-0.09-0.04-0.14-0.04c-0.1,0-0.19,0.05-0.24,0.13c-0.89,1.59-1.95,3.17-3.14,4.69
		l0.05-0.06c-2.17,2.72-4.84,5.27-7.95,7.56l0.04-0.03c-0.86,0.62-1.75,1.22-2.58,1.78c-0.23,0.11-0.45,0.22-0.68,0.32l-0.03,0.02
		c-0.07-0.03-0.14-0.06-0.21-0.06H165c-0.86,0-1.77-0.03-2.68-0.08c-0.37-0.02-0.74-0.05-1.11-0.08c-0.02,0-0.04,0-0.06,0
		c-0.07,0-0.13,0.02-0.18,0.05c-0.07,0.05-0.11,0.12-0.13,0.2c-0.02,0.08,0,0.17,0.05,0.24c0.04,0.06,0.12,0.12,0.2,0.13
		c0.98,0.07,1.87,0.11,2.72,0.11l0.26,0c-1.02,0.39-1.97,0.69-2.92,0.89c-0.65,0.13-1.32,0.23-1.98,0.28
		c-0.16,0.01-0.28,0.16-0.27,0.31c0.01,0.15,0.14,0.27,0.29,0.27c1.4-0.11,2.78-0.38,4.14-0.8l-0.11,0.07
		c-0.59,0.32-1.17,0.63-1.76,0.93c-1.31,0.68-2.52,1.27-3.71,1.82l0.08-0.03c-3.7,1.68-6.8,2.69-9.75,3.19
		c-1.32,0.21-2.65,0.31-3.95,0.31c-0.77,0-1.53-0.04-2.29-0.11l0,0l-0.02,0c-1.97-0.22-3.87-0.68-5.7-1.36
		c-0.96-0.38-1.93-0.82-2.86-1.33c-0.61-0.44-1.22-0.92-1.87-1.47c-0.96-0.82-1.85-1.67-2.64-2.53c-0.9-0.98-1.65-1.94-2.3-2.93
		c-0.05-0.07-0.13-0.11-0.22-0.11c-0.05,0-0.11,0.02-0.15,0.05c-0.12,0.08-0.15,0.24-0.07,0.37c0.8,1.22,1.71,2.41,2.7,3.51
		c-1.39-1.18-2.72-2.53-3.96-4.02c-2.19-2.66-4.14-5.83-5.79-9.41l0.01,0.04c-0.96-2.13-1.83-4.39-2.57-6.75
		c-0.16-0.82-0.29-1.69-0.42-2.75c-0.13-1.04-0.24-2.14-0.33-3.39c-0.06-0.8-0.11-1.59-0.16-2.39c-0.09-1.46-0.19-2.96-0.34-4.44
		c-0.15-1.39-0.34-2.61-0.58-3.72c-0.27-1.25-0.64-2.48-1.1-3.67c-0.03-0.08-0.1-0.13-0.19-0.13c-0.02,0-0.04,0-0.07,0.01
		c-0.05,0.02-0.09,0.06-0.11,0.11c-0.02,0.05-0.02,0.1-0.01,0.15c0.39,0.99,0.71,2.07,0.96,3.22l0.01,0.04l0,0
		c0.22,1.06,0.39,2.19,0.51,3.36c0.12,1.18,0.17,2.39,0.21,3.42c0.02,0.57,0.04,1.14,0.05,1.71c0.02,0.57,0.03,1.14,0.05,1.71
		c0.02,0.48,0.04,0.96,0.06,1.44c-0.34-1.53-0.66-3.13-0.93-4.75l0,0.06c-0.16-0.99-0.3-2-0.45-2.98c-0.36-2.47-0.73-5.03-1.4-7.48
		c-0.23-0.86-0.51-1.72-0.83-2.54c-0.03-0.22-0.06-0.45-0.09-0.67h0c-0.07-0.63-0.13-1.46-0.02-2.27c0.05-0.3,0.12-0.57,0.22-0.82
		c0.07-0.17,0.17-0.32,0.27-0.46c0.09-0.1,0.18-0.19,0.28-0.27c0.11-0.08,0.24-0.15,0.38-0.21c0.06-0.02,0.11-0.04,0.17-0.06
		l0.05,0.01l0,0c0.08,0.04,0.15,0.07,0.23,0.11c0.36,0.17,0.73,0.38,1.12,0.62l0.04,0.02l0.03,0.02l0,0l0,0l0-0.01l0.01,0l0,0
		c0.86,0.58,1.68,1.28,2.43,2.08c1.39,1.52,2.62,3.33,3.76,5.53h0l0,0v0c0,0,0,0,0,0l0.02,0.04l0,0c0.58,1.15,1.12,2.37,1.6,3.64
		c0.02,0.06,0.07,0.09,0.13,0.09c0.02,0,0.03,0,0.05-0.01c0.03-0.01,0.06-0.04,0.08-0.07c0.02-0.03,0.02-0.07,0-0.1
		c-0.61-1.61-1.19-3-1.78-4.27c-0.35-0.75-0.74-1.53-1.17-2.31c-0.43-0.78-0.9-1.52-1.38-2.19c-0.36-0.5-0.77-1-1.2-1.48
		c-0.41-0.45-0.8-0.83-1.17-1.15c1.67,0.38,3.34,0.8,4.96,1.24c0.7,0.36,1.42,0.71,2.11,1.04l0.34,0.17
		c0.69,0.33,1.21,0.6,1.71,0.86c0.59,0.31,1.16,0.64,1.69,0.98v0c0.74,0.47,1.43,0.99,2.06,1.53c0.04,0.04,0.1,0.06,0.15,0.06
		c0.07,0,0.14-0.03,0.19-0.09c0.09-0.1,0.07-0.25-0.03-0.34c-0.7-0.6-1.42-1.15-2.15-1.65c-0.69-0.47-1.44-0.93-2.24-1.37
		l-0.12-0.06l-0.12-0.06c0.21,0.07,0.41,0.14,0.62,0.21c1.26,0.41,2.52,0.86,3.75,1.33c1.45,0.56,2.88,1.16,4.22,1.78
		c0.21,0.13,0.39,0.25,0.57,0.37l0.11,0.07c0.35,0.22,0.7,0.44,1.04,0.67c0.35,0.24,0.71,0.51,1.11,0.82
		c0.21,0.17,0.4,0.33,0.58,0.5c0,0.02,0,0.04,0.01,0.06c0.01,0.04,0.05,0.07,0.08,0.09c0.06,0.03,0.11,0.07,0.17,0.1
		c0.21,0.21,0.4,0.42,0.56,0.64c0.26,0.35,0.47,0.72,0.62,1.08c0.1,0.28,0.17,0.56,0.21,0.83l0.01,0.11
		c0.01,0.09,0.06,0.17,0.16,0.18c0.05,0,0.09-0.02,0.12-0.05c0.03-0.03,0.04-0.07,0.04-0.1c-0.02-0.36-0.1-0.73-0.23-1.08
		c-0.12-0.34-0.29-0.68-0.51-1.04l-0.02-0.03l-0.02-0.03c0.08,0.06,0.15,0.14,0.22,0.23c0.12,0.17,0.23,0.32,0.32,0.48
		c0.03,0.05,0.09,0.09,0.15,0.09c0.03,0,0.06-0.01,0.08-0.02c0.04-0.02,0.07-0.06,0.08-0.11c0.01-0.04,0.01-0.09-0.02-0.13
		c-0.37-0.61-0.84-1.15-1.21-1.55c1.58,0.9,3.09,1.87,4.49,2.87c2.63,1.91,4.93,4.04,6.82,6.31c1.66,2.03,3.04,4.22,4.11,6.52
		c0.39,0.87,0.75,1.76,1.06,2.66c0.07,0.2,0.26,0.34,0.47,0.34c0.05,0,0.09-0.01,0.14-0.02c0.12-0.04,0.23-0.13,0.29-0.25
		c0.06-0.11,0.07-0.24,0.03-0.36c-1.02-2.98-2.5-5.78-4.41-8.33c-1.18-1.57-2.55-3.09-4.07-4.5c-0.18-0.2-0.36-0.4-0.54-0.59
		c-0.59-0.61-1.23-1.18-1.77-1.65c-0.21-0.19-0.43-0.37-0.65-0.56c-0.95-0.82-1.93-1.66-2.78-2.61c-0.18-0.2-0.36-0.41-0.53-0.64
		c0,0-0.01-0.02-0.02-0.02l0,0l0,0c0,0-0.01-0.01-0.01-0.01l0,0l-0.02-0.04c-0.39-0.52-0.7-1.06-0.93-1.61
		c-0.2-0.49-0.33-1-0.41-1.51l-0.01-0.05c-0.03-0.3-0.05-0.64-0.04-0.98c0.22-0.9,0.45-1.8,0.68-2.7l0.26-1.03
		c0.61-2.44,1.29-5.28,1.54-8.16c0.23-2.64,0.02-5.12-0.61-7.37c-0.3-1.06-0.73-2.14-1.28-3.23c0-0.08,0-0.15,0.01-0.23
		c0.02-0.1,0.04-0.18,0.07-0.26c0.04-0.09,0.09-0.17,0.14-0.24c0.02-0.02,0.04-0.05,0.06-0.07l0.07-0.07
		c0.04-0.04,0.09-0.08,0.13-0.12c0.12-0.08,0.25-0.16,0.4-0.22l0.03-0.02l0,0c0.24-0.08,0.53-0.16,0.85-0.2l0.04-0.01c0,0,0,0,0,0
		c0,0,0,0,0,0h0c0.2-0.02,0.4-0.03,0.6-0.03l0.1,0c0.68,0.19,1.37,0.37,2.05,0.55l1.43,0.37c2.14,0.56,4.36,1.14,6.51,1.8
		c1.39,0.42,2.64,0.85,3.84,1.31c0.19,0.07,0.37,0.15,0.56,0.22c0.19,0.14,0.38,0.29,0.57,0.45l0.05,0.04
		c0.8,0.69,1.55,1.51,2.21,2.44l0.03,0.03l0,0c0.86,1.26,1.57,2.65,2.18,4.28l-0.01-0.04c1.2,3.28,1.71,6.79,2.01,9.49
		c0.04,0.37,0.08,0.74,0.12,1.11c0.04,0.37,0.08,0.74,0.12,1.11c0.01,0.09,0.11,0.16,0.19,0.16h0c0.06,0,0.12-0.03,0.16-0.07
		c0.04-0.04,0.05-0.08,0.05-0.13c-0.03-0.73-0.09-1.5-0.16-2.37c-0.07-0.87-0.16-1.67-0.25-2.45c-0.22-1.78-0.51-3.36-0.9-4.83
		c-0.44-1.7-0.99-3.18-1.68-4.53c-0.74-1.46-1.66-2.74-2.73-3.81c1.79,0.84,3.45,1.81,4.92,2.86c0.92,0.67,1.81,1.41,2.63,2.18
		c0.8,0.75,1.59,1.6,2.42,2.59l0.07,0.08c0,0,0.01,0.02,0.02,0.02c0,0,0,0,0,0c0,0,0,0,0,0c0,0,0.01,0.01,0.01,0.01
		c1.67,2.06,3.27,4.41,4.76,6.98c1.23,2.14,2.46,4.53,3.84,7.55l0.02,0.04l0.02,0.05l0,0c0.83,1.81,1.63,3.65,2.41,5.43
		c0.36,0.82,0.72,1.64,1.08,2.46c0.36,1.49,0.58,2.64,0.7,3.71c0.05,0.5,0.08,1,0.07,1.49c-0.01,0.5-0.06,1.02-0.13,1.52l0,0l0,0
		c-0.09,0.52-0.21,1.06-0.36,1.59c-0.09,0.31-0.19,0.65-0.34,1.06c-0.45,0.42-0.9,0.82-1.36,1.17c-0.12,0.09-0.17,0.28-0.17,0.42
		c0,0.16,0.06,0.31,0.17,0.42s0.26,0.17,0.42,0.17c0.16,0,0.28-0.06,0.42-0.17c1.78-1.39,3.36-3.18,4.84-5.45
		c1.34-2.06,2.45-4.33,3.42-6.33l0.17-0.35c1.35-2.77,2.75-5.64,4.66-8.14c0.98-1.25,2.05-2.35,3.19-3.24
		c1.15-0.89,2.43-1.63,3.81-2.22l0,0l0,0c1.27-0.52,2.58-0.87,3.9-1.06c0.71-0.09,1.45-0.13,2.19-0.13c0.89,0,1.82,0.06,2.77,0.19
		c2.23,0.32,4.37,0.92,6.16,1.47c0.99,0.3,1.97,0.62,2.93,0.95c-0.07,0.39-0.1,0.79-0.1,1.19c0,0.39,0.05,0.8,0.16,1.27
		c0.09,0.39,0.23,0.78,0.42,1.18c0.2,0.41,0.43,0.78,0.69,1.1C218.11,89.93,217.93,90.74,217.76,91.72z M227.55,107.35
		L227.55,107.35L227.55,107.35L227.55,107.35z M211.47,98.69c-0.04-0.02-0.08-0.03-0.12-0.03c-0.03,0-0.06,0-0.09,0.02
		c-0.07,0.03-0.12,0.08-0.16,0.14c-0.27,0.49-0.54,0.98-0.78,1.49c-0.06,0.13,0,0.29,0.13,0.35c0.13,0.06,0.28,0,0.35-0.13
		c0.26-0.5,0.52-0.99,0.8-1.49C211.67,98.92,211.59,98.75,211.47,98.69z M210.66,85.7c0.09,0.01,0.17,0.03,0.26,0.05
		c0.2,0.04,0.41-0.06,0.47-0.27c0.05-0.19-0.06-0.42-0.27-0.47c-0.38-0.09-0.77-0.13-1.16-0.13c-0.08,0-0.16,0-0.24,0.01
		c-0.25,0.01-0.5,0.05-0.75,0.1c-0.25,0.06-0.48,0.15-0.72,0.25c-0.45,0.19-0.85,0.5-1.17,0.87c-0.35,0.4-0.62,0.89-0.73,1.42
		c-0.05,0.25,0.03,0.5,0.26,0.63c0.13,0.07,0.29,0.1,0.43,0.05c0.12-0.03,0.28-0.13,0.33-0.26c0.16-0.37,0.34-0.72,0.58-1.04
		c0.18-0.22,0.38-0.42,0.61-0.6c0.21-0.16,0.44-0.29,0.68-0.4c0.24-0.1,0.49-0.17,0.75-0.21C210.21,85.68,210.43,85.68,210.66,85.7z
		 M154.46,140.64c0.02,0,0.04,0,0.06-0.01c-0.02,0-0.03,0-0.05,0C154.46,140.64,154.46,140.64,154.46,140.64z M174.64,131.22
		c-0.07,0-0.13,0.03-0.18,0.07c-0.18,0.13-0.36,0.26-0.54,0.39c-0.34,0.24-0.69,0.49-1.03,0.72c-0.06,0.04-0.11,0.08-0.13,0.16
		c-0.02,0.07-0.02,0.15,0.02,0.21c0.03,0.06,0.09,0.11,0.16,0.13c0.06,0.02,0.15,0.02,0.21-0.02c0.57-0.39,1.13-0.79,1.68-1.2
		c0.05-0.04,0.08-0.12,0.08-0.18c0-0.07-0.02-0.14-0.07-0.19c-0.05-0.05-0.11-0.08-0.18-0.08
		C174.65,131.22,174.65,131.22,174.64,131.22z M157.99,141.5c0,0-0.01,0-0.01,0c-0.49,0.03-0.97,0.12-1.44,0.28
		c-0.11,0.04-0.18,0.17-0.14,0.28c0.04,0.12,0.17,0.18,0.28,0.14c0.26-0.08,0.52-0.15,0.79-0.21c-0.01,0-0.02,0-0.03,0
		c0.01,0,0.03,0,0.04-0.01c0,0,0.01,0,0.01,0c0,0-0.01,0-0.01,0c0.17-0.03,0.34-0.06,0.51-0.08c0.11-0.01,0.2-0.1,0.19-0.22
		C158.19,141.59,158.09,141.5,157.99,141.5z M180.14,147.86c-0.04,0-0.08,0.01-0.12,0.03c-0.3,0.19-0.62,0.35-0.94,0.51
		c-1.51,0.73-3.13,1.16-4.74,1.61c-0.11,0.03-0.16,0.15-0.13,0.26c0.04,0.11,0.15,0.16,0.26,0.13c1-0.26,2-0.53,2.98-0.87
		c0.97-0.33,1.92-0.74,2.8-1.28c0.1-0.06,0.12-0.21,0.06-0.3C180.27,147.89,180.2,147.86,180.14,147.86z M157.47,142
		c0.01,0,0.02,0,0.02,0c0,0,0,0-0.01,0C157.48,141.99,157.47,142,157.47,142z M163.16,139.68c0.54-0.1,1.08-0.22,1.61-0.35
		c0.96-0.23,1.92-0.52,2.86-0.84c1.85-0.64,3.63-1.47,5.29-2.5c1.65-1.02,3.18-2.24,4.56-3.61c0.61-0.61,1.19-1.24,1.74-1.91
		c0.58-0.71,1.14-1.44,1.64-2.21c0.12-0.18,0.06-0.43-0.12-0.55c-0.06-0.04-0.14-0.06-0.21-0.06c-0.03,0-0.06,0-0.09,0.01
		c-0.11,0.03-0.18,0.09-0.25,0.18c-0.26,0.32-0.51,0.65-0.78,0.96c-0.81,0.98-1.68,1.9-2.6,2.77c-0.9,0.85-1.86,1.63-2.86,2.36
		c-2.15,1.53-4.5,2.76-6.97,3.69c-2.01,0.74-4.08,1.27-6.19,1.63c-1.15,0.2-2.3,0.35-3.46,0.51c-1.16,0.16-2.32,0.29-3.48,0.45
		c-1.24,0.17-2.48,0.35-3.71,0.59c-0.61,0.12-1.21,0.25-1.82,0.4c-0.62,0.15-1.23,0.33-1.84,0.53c-0.08,0.03-0.13,0.09-0.11,0.18
		c0.02,0.07,0.1,0.14,0.18,0.11c1.27-0.4,2.57-0.67,3.88-0.89c1.34-0.22,2.68-0.37,4.03-0.49h0c0,0,0.01,0,0.01,0
		c0.02,0,0.04,0,0.05,0c0,0,0,0-0.01,0c2.31-0.2,4.63-0.36,6.93-0.68C162.02,139.88,162.59,139.79,163.16,139.68z M178.31,139.89
		c1.76-1.04,3.42-2.25,4.99-3.56c0.26-0.21,0.51-0.43,0.76-0.65c0.05-0.05,0.05-0.14,0.01-0.2c-0.03-0.04-0.09-0.08-0.14-0.08
		c-0.03,0-0.06,0.01-0.08,0.03c-2.12,1.82-4.46,3.38-6.97,4.59c-1.21,0.57-2.44,1.07-3.72,1.48c-1.29,0.41-2.61,0.73-3.94,0.98
		c-1.31,0.23-2.63,0.4-3.95,0.49c-1.4,0.1-2.81,0.11-4.21,0.08c-0.19-0.01-0.36,0.16-0.4,0.34c-0.02,0.11,0,0.23,0.06,0.32
		c0.06,0.08,0.17,0.17,0.27,0.18c2.06,0.2,4.14,0.18,6.19-0.08c1.97-0.25,3.92-0.71,5.79-1.39
		C174.82,141.75,176.61,140.9,178.31,139.89z M175.61,135.48c-0.39,0.22-0.78,0.44-1.17,0.66c-0.04,0.03-0.05,0.09-0.03,0.13
		c0.03,0.05,0.09,0.05,0.13,0.03c0.39-0.22,0.78-0.44,1.17-0.66c0.04-0.03,0.05-0.09,0.03-0.13c-0.02-0.03-0.05-0.04-0.08-0.04
		C175.65,135.46,175.63,135.47,175.61,135.48z M171.58,150.97c-0.03-0.01-0.05-0.02-0.08-0.02c-0.02,0-0.05,0-0.07,0.01
		c-0.11,0.02-0.22,0.05-0.34,0.07c-0.7,0.13-1.41,0.22-2.12,0.27c-0.1,0.01-0.18,0.1-0.17,0.2s0.1,0.18,0.2,0.17
		c0.86-0.03,1.72-0.14,2.56-0.32c0.05-0.01,0.1-0.06,0.12-0.1c0.02-0.05,0.03-0.1,0.01-0.15C171.67,151.04,171.63,151,171.58,150.97
		z M158.94,117.95c0.01,0.01,0.01,0.01,0.02,0.02C158.94,117.96,158.94,117.95,158.94,117.95c-0.03-0.03-0.05-0.05-0.06-0.07
		c0.01,0.02,0.03,0.03,0.04,0.04c-0.7-0.8-1.37-1.64-1.99-2.51c-0.63-0.88-1.24-1.79-1.77-2.74c-0.05-0.09-0.16-0.14-0.26-0.14
		c-0.06,0-0.13,0.02-0.18,0.05c-0.15,0.1-0.17,0.29-0.08,0.44c0.52,0.96,1.06,1.9,1.65,2.82c0.6,0.93,1.24,1.84,1.94,2.7
		c0.71,0.88,1.47,1.71,2.3,2.47c0.83,0.76,1.74,1.45,2.71,2.02c0.17,0.1,0.41,0.04,0.53-0.1c0.15-0.17,0.15-0.48-0.04-0.63
		C161.98,121.04,160.37,119.57,158.94,117.95z M183.97,124.25c-0.03-0.02-0.07-0.03-0.11-0.03c-0.07,0-0.13,0.03-0.17,0.09
		c-0.29,0.45-0.61,0.89-0.95,1.31c-0.14,0.17-0.28,0.34-0.43,0.5c-0.04,0.04-0.06,0.09-0.07,0.15c0,0.06,0.02,0.11,0.06,0.15
		c0.07,0.08,0.22,0.1,0.3,0.01c0.53-0.59,1.02-1.22,1.44-1.9C184.09,124.43,184.06,124.31,183.97,124.25z M120.38,111.74
		c-0.79-1.54-1.28-3.21-1.64-4.9c-0.33-1.57-0.55-3.17-0.75-4.76c-0.21-1.64-0.37-3.29-0.62-4.93c-0.24-1.6-0.52-3.19-0.94-4.75
		c-0.39-1.46-0.92-2.88-1.66-4.19c-0.37-0.66-0.81-1.29-1.3-1.87c-0.5-0.6-1.08-1.14-1.7-1.62c-0.02-0.01-0.04-0.02-0.06-0.02
		c-0.08,0-0.14,0.11-0.06,0.17c0.44,0.34,0.84,0.72,1.22,1.13c0.67,0.73,1.23,1.55,1.69,2.43c0,0,0,0,0,0c0,0,0,0,0,0
		c0.01,0.01,0.01,0.02,0.02,0.03c0,0,0-0.01-0.01-0.01c0.74,1.45,1.22,3.03,1.56,4.62c0-0.01,0-0.01,0-0.02
		c0.33,1.57,0.52,3.15,0.68,4.75c0.08,0.82,0.17,1.65,0.25,2.47c0.08,0.82,0.16,1.65,0.25,2.47c0.18,1.62,0.41,3.24,0.78,4.83
		c0.34,1.49,0.82,2.95,1.53,4.31c0.14,0.27,0.29,0.54,0.45,0.8c0.17,0.27,0.35,0.53,0.53,0.79c0.11,0.16,0.33,0.2,0.49,0.09
		c0.16-0.11,0.2-0.34,0.09-0.49C120.87,112.64,120.62,112.19,120.38,111.74z M126.25,94.99c-0.04-0.03-0.09-0.05-0.14-0.05
		c-0.06,0-0.12,0.03-0.16,0.08c-0.08,0.09-0.06,0.22,0.03,0.3c0.77,0.7,1.58,1.36,2.4,2c0.09,0.07,0.23,0.07,0.31-0.03
		c0.07-0.09,0.07-0.24-0.03-0.31C127.84,96.34,127.05,95.67,126.25,94.99z M126.34,97.96c1.52,1.75,3.03,3.51,4.53,5.29
		c0.74,0.89,1.49,1.77,2.22,2.67c0.73,0.9,1.46,1.8,2.18,2.7c0.72,0.91,1.44,1.82,2.15,2.73c0.71,0.92,1.42,1.84,2.12,2.77
		c0.8,1.07,1.59,2.14,2.38,3.22c0.8,1.11,1.6,2.22,2.37,3.35c0.05,0.07,0.15,0.09,0.22,0.04c0.07-0.05,0.09-0.15,0.04-0.22
		c-1.33-1.94-2.67-3.88-4.04-5.79c-0.68-0.95-1.36-1.89-2.04-2.83c-0.69-0.94-1.38-1.86-2.08-2.79c-0.7-0.92-1.4-1.84-2.11-2.75
		c-0.71-0.91-1.43-1.82-2.15-2.72c-1.46-1.8-2.95-3.58-4.48-5.32c-0.59-0.66-1.18-1.33-1.78-1.98c-0.02-0.02-0.04-0.04-0.06-0.07
		c-0.6-0.66-1.21-1.31-1.82-1.95c-0.63-0.67-1.27-1.33-1.91-1.98c-0.04-0.04-0.09-0.06-0.15-0.06c-0.05,0-0.11,0.02-0.15,0.04
		c-0.05,0.04-0.09,0.09-0.1,0.16c-0.01,0.06,0,0.14,0.04,0.19c0.78,0.88,1.56,1.76,2.34,2.64C124.81,96.2,125.58,97.08,126.34,97.96
		z M142.74,114.04c-0.06-0.07-0.14-0.11-0.22-0.11c-0.05,0-0.1,0.01-0.14,0.05c-0.11,0.08-0.15,0.25-0.06,0.36
		c0.56,0.69,1.06,1.42,1.55,2.16c0.5,0.76,0.97,1.53,1.45,2.3c0.96,1.54,1.93,3.08,3.12,4.44c0.62,0.71,1.3,1.37,2.04,1.95
		c0.75,0.59,1.58,1.08,2.45,1.47c0.15,0.07,0.34,0.01,0.41-0.15s0-0.34-0.15-0.41c-0.37-0.18-0.72-0.38-1.07-0.6
		c-0.51-0.33-1-0.7-1.46-1.1c-0.47-0.41-0.91-0.85-1.33-1.31c-1.2-1.32-2.22-2.78-3.22-4.25c-1-1.49-1.97-3-3.09-4.42
		C142.93,114.28,142.83,114.16,142.74,114.04z M134.74,109.79c-0.02-0.04-0.04-0.08-0.09-0.1c-0.02-0.01-0.05-0.02-0.08-0.02
		c-0.02,0-0.04,0-0.06,0.01c-0.04,0.02-0.08,0.05-0.1,0.09c-0.02,0.04-0.03,0.1-0.01,0.14c0.55,1.12,1.13,2.22,1.75,3.3
		c0.05,0.09,0.18,0.1,0.25,0.04c0.04-0.03,0.07-0.07,0.07-0.11c0.01-0.05,0-0.09-0.03-0.14c-0.46-0.81-0.91-1.64-1.34-2.47
		c0.01,0.01,0.02,0.03,0.02,0.04C135.01,110.32,134.87,110.06,134.74,109.79z M114.55,88.42c0,0.01,0.01,0.01,0.01,0.02
		C114.56,88.43,114.55,88.42,114.55,88.42C114.55,88.42,114.55,88.42,114.55,88.42z M138.8,116.53c-0.02-0.03-0.06-0.05-0.1-0.05
		c-0.02,0-0.05,0.01-0.07,0.02c-0.05,0.04-0.06,0.11-0.03,0.16c0.6,0.95,1.27,1.85,2,2.7c0.02,0.02,0.04,0.04,0.07,0.04
		c0.03,0.01,0.06,0,0.08-0.02c0.04-0.03,0.07-0.11,0.03-0.15c-0.36-0.43-0.71-0.86-1.05-1.31
		C139.41,117.47,139.1,117.01,138.8,116.53z M118.73,112.58c-0.02-0.07-0.09-0.11-0.16-0.11c-0.02,0-0.04,0-0.06,0.01
		c-0.09,0.03-0.13,0.13-0.1,0.22c0.46,1.38,0.97,2.74,1.58,4.06c0.02,0.04,0.05,0.08,0.09,0.1c0.04,0.02,0.09,0.02,0.14,0.01
		c0.09-0.03,0.15-0.14,0.11-0.23C119.73,115.31,119.19,113.96,118.73,112.58z M128.73,95.06c0.81,0.75,1.61,1.51,2.43,2.25
		c0.42,0.37,0.84,0.74,1.27,1.11c0.43,0.37,0.86,0.72,1.3,1.07c0.78,0.62,1.55,1.25,2.32,1.88c1.43,1.18,2.84,2.38,4.16,3.68
		c0.45,0.44,0.89,0.9,1.32,1.37c0.86,0.94,1.66,1.93,2.39,2.97c0.79,1.12,1.49,2.29,2.12,3.51c0.19,0.36,0.36,0.73,0.54,1.1
		c0.05,0.1,0.1,0.17,0.2,0.22c0.09,0.04,0.2,0.05,0.3,0.02c0.19-0.07,0.31-0.3,0.23-0.49c-0.75-1.83-1.68-3.6-2.81-5.23
		c-1.04-1.51-2.25-2.89-3.55-4.18c-1.32-1.29-2.75-2.48-4.21-3.62c-0.78-0.61-1.58-1.2-2.37-1.8c-0.9-0.67-1.78-1.36-2.65-2.06
		c-0.85-0.7-1.69-1.41-2.53-2.13c-0.83-0.71-1.65-1.43-2.49-2.13c-0.85-0.71-1.71-1.4-2.58-2.07c-0.91-0.69-1.85-1.34-2.8-1.96
		c-0.11-0.07-0.22-0.14-0.33-0.21c-0.02-0.01-0.04-0.02-0.06-0.02c-0.06,0-0.12,0.04-0.14,0.09c-0.04,0.08,0,0.15,0.07,0.2
		c0.06,0.03,0.11,0.07,0.17,0.11c1.88,1.21,3.62,2.63,5.28,4.12C127.13,93.58,127.93,94.32,128.73,95.06z M137.79,105.99
		c-0.05-0.04-0.12-0.07-0.18-0.07c-0.08,0-0.16,0.03-0.22,0.1c-0.1,0.12-0.09,0.3,0.03,0.4c0.53,0.43,1.02,0.9,1.48,1.4
		c0.75,0.82,1.39,1.72,1.92,2.69c0.03,0.06,0.11,0.1,0.17,0.11c0.07,0.01,0.14,0,0.2-0.04c0.05-0.04,0.09-0.1,0.11-0.17
		c0.01-0.08-0.01-0.13-0.04-0.2C140.39,108.6,139.2,107.17,137.79,105.99z M151.05,108.13c0.02,0.04,0.07,0.06,0.11,0.07
		c0.05,0.01,0.1,0,0.13-0.03c0.04-0.03,0.06-0.07,0.07-0.11c0.01-0.05-0.01-0.09-0.03-0.13c-0.07-0.13-0.14-0.27-0.21-0.4
		c0,0,0,0.01,0.01,0.01c-0.11-0.21-0.22-0.42-0.33-0.64c-0.02-0.04-0.04-0.08-0.09-0.1c-0.02-0.01-0.05-0.02-0.08-0.02
		c-0.02,0-0.04,0-0.06,0.01c-0.04,0.02-0.08,0.05-0.1,0.09c-0.02,0.04-0.03,0.1-0.01,0.14C150.67,107.4,150.86,107.77,151.05,108.13
		z M158.94,117.95c-0.01-0.01-0.02-0.02-0.02-0.03C158.92,117.93,158.92,117.94,158.94,117.95
		C158.93,117.95,158.93,117.95,158.94,117.95z M151.14,109.41c-0.14,0.05-0.22,0.21-0.16,0.34c0.37,0.98,0.82,1.93,1.39,2.8
		c0.07,0.11,0.24,0.14,0.35,0.06c0.05-0.04,0.09-0.09,0.1-0.16c0.01-0.07-0.01-0.13-0.04-0.19c-0.16-0.29-0.32-0.57-0.47-0.87
		c-0.3-0.6-0.58-1.21-0.82-1.83c-0.04-0.11-0.15-0.18-0.26-0.18C151.2,109.4,151.17,109.4,151.14,109.41z M137.14,95.37
		c0.01,0.01,0.02,0.01,0.03,0.02c0,0-0.01,0-0.01-0.01C137.16,95.38,137.15,95.37,137.14,95.37z M132.78,93.9
		c1.72,1.2,3.49,2.34,5.22,3.54c1.18,0.82,2.34,1.67,3.44,2.58c1.12,0.92,2.18,1.9,3.16,2.97c0.77,0.85,1.46,1.76,2.08,2.71
		c0.61,0.92,1.14,1.89,1.65,2.87c0.73,1.41,1.39,2.86,2.1,4.29c0.36,0.73,0.73,1.45,1.12,2.17c0.4,0.73,0.83,1.45,1.29,2.14
		c0.08,0.12,0.26,0.15,0.39,0.07c0.06-0.04,0.1-0.11,0.11-0.18c0.02-0.08-0.01-0.14-0.04-0.21c-0.35-0.6-0.68-1.21-0.99-1.82
		c0.01,0.01,0.01,0.02,0.02,0.03c-1.93-3.76-3.46-7.78-6.12-11.12c-0.68-0.85-1.43-1.64-2.23-2.38c-0.78-0.73-1.59-1.41-2.44-2.06
		c-1.67-1.29-3.44-2.45-5.21-3.59c-2.89-1.87-5.83-3.71-8.38-6.05c-0.02-0.02-0.04-0.02-0.06-0.02c-0.07,0-0.14,0.1-0.06,0.17
		C129.37,91.44,131.05,92.7,132.78,93.9z M148.63,112.06c-0.03-0.05-0.09-0.08-0.14-0.09c-0.01,0-0.03,0-0.04,0
		c-0.05,0-0.09,0.01-0.13,0.04c-0.05,0.03-0.08,0.08-0.09,0.14c-0.01,0.06,0.01,0.11,0.04,0.17c0.75,1.38,1.58,2.73,2.5,4
		c0.07,0.1,0.21,0.12,0.31,0.05c0.1-0.07,0.12-0.21,0.05-0.31c-0.44-0.65-0.88-1.31-1.3-1.97S149.01,112.75,148.63,112.06z
		 M125.64,88.33c0.08,0.03,0.16,0,0.2-0.07c0.03-0.07,0-0.17-0.07-0.2c-2.39-0.99-4.91-1.6-7.45-2.07c-0.01,0-0.02,0-0.02,0
		c-0.06,0-0.12,0.05-0.14,0.11c-0.02,0.07,0.04,0.14,0.11,0.16c1.87,0.39,3.73,0.81,5.55,1.4
		C124.43,87.86,125.04,88.08,125.64,88.33z M136.32,94.87c0.28,0.16,0.55,0.33,0.82,0.5c0,0-0.01,0-0.01-0.01
		c0.01,0.01,0.02,0.01,0.03,0.02c0,0,0.01,0.01,0.01,0.01c0,0,0,0-0.01,0c0.41,0.26,0.81,0.54,1.2,0.83
		c0.09,0.07,0.22,0.07,0.29-0.03c0.07-0.08,0.07-0.22-0.03-0.29c-0.68-0.52-1.4-0.99-2.14-1.42c-0.03-0.02-0.06-0.02-0.09-0.02
		c-0.08,0-0.17,0.05-0.2,0.13c-0.02,0.05-0.03,0.11-0.01,0.17C136.23,94.8,136.27,94.84,136.32,94.87z M132.87,91.73
		c0.62,0.41,1.24,0.82,1.85,1.24c0.05,0.03,0.09,0.05,0.15,0.05c0.06,0,0.11-0.03,0.15-0.07c0.07-0.08,0.07-0.23-0.03-0.3
		c-0.61-0.43-1.22-0.84-1.85-1.24c-0.62-0.4-1.24-0.8-1.86-1.19c-0.02-0.01-0.05-0.02-0.08-0.02c-0.06,0-0.12,0.03-0.15,0.07
		c-0.06,0.07-0.06,0.21,0.02,0.27C131.67,90.94,132.27,91.33,132.87,91.73z M141.95,96.91c1.11,1.03,2.18,2.11,3.27,3.17
		c0.09,0.08,0.24,0.06,0.31-0.03c0.04-0.04,0.05-0.1,0.05-0.16c0-0.06-0.04-0.11-0.08-0.15c-1.06-1.05-2.13-2.09-3.24-3.1
		c-1.12-1.02-2.28-2-3.5-2.91c-0.04-0.03-0.08-0.04-0.12-0.04c-0.05,0-0.1,0.02-0.13,0.06c-0.06,0.07-0.06,0.19,0.02,0.25
		C139.74,94.91,140.86,95.89,141.95,96.91z M143.16,131.5C143.17,131.5,143.17,131.5,143.16,131.5c0,0-0.01,0-0.02-0.01
		C143.15,131.49,143.16,131.5,143.16,131.5z M142.77,134.06c-0.9-0.31-1.81-0.61-2.71-0.93c-0.85-0.3-1.7-0.63-2.54-0.97
		c-1.58-0.65-3.13-1.39-4.6-2.27c-0.2-0.12-0.4-0.25-0.6-0.37c-0.77-0.5-1.52-1.05-2.23-1.63c-0.76-0.62-1.46-1.3-2.13-2.02
		c0.01,0.01,0.01,0.01,0.02,0.02c-0.82-0.9-1.56-1.86-2.22-2.87c-0.02-0.04-0.07-0.06-0.11-0.06c-0.03,0-0.05,0.01-0.08,0.02
		c-0.06,0.04-0.07,0.13-0.03,0.19c0.53,0.81,1.09,1.61,1.69,2.37c0.56,0.71,1.16,1.38,1.79,2.01c0.6,0.61,1.25,1.18,1.92,1.71
		c0.67,0.52,1.37,1.01,2.1,1.45c1.41,0.86,2.91,1.57,4.44,2.19c0.81,0.33,1.63,0.63,2.45,0.92c0.88,0.31,1.76,0.6,2.65,0.88
		c0.06,0.01,0.11,0.01,0.17-0.01c0.08-0.03,0.15-0.09,0.19-0.17c0.04-0.08,0.04-0.17,0.01-0.25
		C142.91,134.17,142.84,134.09,142.77,134.06z M120.66,102.41c0,0,0,0.01,0,0.02c0,0,0,0.01,0,0.01
		C120.67,102.43,120.67,102.42,120.66,102.41z M138.22,134.57c-0.68-0.39-1.36-0.77-2.02-1.19c-0.02-0.01-0.05-0.02-0.08-0.02
		c-0.03,0-0.05,0-0.08,0.01c-0.05,0.02-0.1,0.06-0.12,0.11c-0.02,0.05-0.03,0.11-0.01,0.16c0.02,0.06,0.06,0.09,0.11,0.12
		c0.66,0.41,1.33,0.81,2.03,1.17c0.1,0.05,0.22,0,0.26-0.09C138.36,134.73,138.31,134.62,138.22,134.57z M159.76,129.37
		c-0.02,0-0.03,0.01-0.05,0.01c-0.01,0-0.01,0-0.02,0C159.71,129.38,159.73,129.38,159.76,129.37z M162.98,126.16
		c-1.47-0.2-2.93-0.52-4.34-0.97c0,0,0,0,0,0c-2.05-0.68-4.01-1.62-5.83-2.79c-0.86-0.55-1.68-1.16-2.46-1.82
		c-0.78-0.66-1.51-1.37-2.2-2.12c-0.6-0.66-1.16-1.35-1.67-2.08c-0.03-0.04-0.07-0.06-0.12-0.06c-0.03,0-0.06,0.01-0.08,0.03
		c-0.07,0.05-0.08,0.14-0.04,0.2c0.56,0.8,1.16,1.58,1.8,2.32c0.64,0.74,1.33,1.44,2.05,2.1c1.46,1.33,3.08,2.49,4.82,3.41
		c1.23,0.65,2.52,1.17,3.84,1.58c1.34,0.41,2.72,0.68,4.11,0.79c0.09,0.01,0.16,0,0.23-0.05c0.06-0.04,0.11-0.11,0.12-0.19
		C163.25,126.36,163.14,126.18,162.98,126.16z M154.88,126.17c-0.08,0-0.16,0.04-0.2,0.12c-0.05,0.1-0.01,0.25,0.11,0.3
		c0.77,0.31,1.56,0.58,2.36,0.81c0.11,0.03,0.22-0.06,0.24-0.16c0.01-0.05,0-0.11-0.03-0.16c-0.03-0.05-0.08-0.07-0.13-0.08
		c-0.05-0.02-0.09-0.03-0.14-0.05c0.02,0.01,0.03,0.01,0.05,0.02c-0.73-0.24-1.45-0.49-2.16-0.78
		C154.95,126.17,154.92,126.17,154.88,126.17z M127.54,112.98c0.05,0.09,0.18,0.1,0.26,0.05c0.04-0.03,0.07-0.07,0.08-0.12
		c0.01-0.05,0-0.1-0.03-0.14c-0.53-0.92-1.04-1.85-1.52-2.8c-0.34-0.67-0.68-1.34-1.01-2.01c-0.02-0.04-0.04-0.08-0.09-0.1
		c-0.02-0.01-0.05-0.02-0.07-0.02c-0.02,0-0.04,0-0.06,0.01c-0.08,0.03-0.14,0.13-0.1,0.22c0.4,0.84,0.78,1.68,1.21,2.5
		C126.62,111.39,127.06,112.19,127.54,112.98z M159.69,128.86c-0.37,0.07-0.74,0.13-1.12,0.2c-0.38,0.07-0.77,0.13-1.15,0.19
		c-0.79,0.13-1.59,0.24-2.39,0.34c-1.65,0.21-3.31,0.36-4.98,0.4c-0.98,0.03-1.96,0.01-2.94-0.04c-1.95-0.11-3.9-0.41-5.77-1.02
		c0.01,0,0.02,0.01,0.03,0.01c-1.24-0.41-2.43-0.95-3.53-1.65c-0.97-0.63-1.85-1.38-2.63-2.23c0,0,0,0,0.01,0
		c-0.42-0.46-0.81-0.96-1.16-1.47c-0.02-0.03-0.06-0.05-0.1-0.05c-0.02,0-0.05,0.01-0.07,0.02c-0.06,0.04-0.07,0.12-0.03,0.17
		c0.47,0.7,1,1.36,1.59,1.98c0.56,0.59,1.18,1.12,1.84,1.6c1.29,0.94,2.74,1.67,4.26,2.18c3.16,1.07,6.55,1.3,9.87,1.12
		c1.44-0.08,2.88-0.24,4.3-0.46c0.68-0.11,1.36-0.23,2.03-0.36c0.65-0.12,1.31-0.26,1.96-0.41c0.01,0,0.02,0,0.02-0.01
		c0.07-0.02,0.13-0.03,0.18-0.09c0.04-0.05,0.07-0.12,0.06-0.19c0-0.07-0.04-0.14-0.09-0.18
		C159.83,128.88,159.76,128.85,159.69,128.86z M157.73,131.82c-0.03-0.02-0.07-0.02-0.1-0.02c-0.03,0-0.06,0-0.08,0.01
		c-1.28,0.35-2.55,0.69-3.85,0.97c0.01,0,0.02,0,0.03-0.01c-1.09,0.23-2.19,0.42-3.29,0.53c-1.13,0.11-2.27,0.13-3.4,0.07
		c-0.85-0.05-1.69-0.17-2.52-0.34c-0.06-0.01-0.12,0.03-0.13,0.09c-0.01,0.06,0.03,0.12,0.09,0.13c1.1,0.24,2.23,0.41,3.36,0.48
		c1.09,0.07,2.18,0.03,3.27-0.07c1.1-0.1,2.19-0.28,3.26-0.51c1.13-0.24,2.25-0.55,3.35-0.89c0.12-0.04,0.19-0.19,0.14-0.31
		C157.83,131.9,157.78,131.85,157.73,131.82z M136.34,116.3c0.98,1.69,1.97,3.38,3.11,4.97c0.99,1.38,2.1,2.69,3.37,3.83
		c1.3,1.16,2.78,2.12,4.38,2.81c0.14,0.06,0.32,0.01,0.38-0.14c0.07-0.14,0.01-0.32-0.14-0.38c-0.67-0.31-1.32-0.66-1.94-1.06
		c-1.31-0.86-2.49-1.9-3.56-3.05c0.01,0.01,0.01,0.02,0.02,0.02c-0.01-0.01-0.03-0.03-0.04-0.04c-0.01-0.01-0.01-0.02-0.02-0.02
		c0,0.01,0.01,0.01,0.01,0.02c-1.29-1.42-2.4-2.99-3.43-4.59c-0.53-0.82-1.05-1.66-1.56-2.49c-0.61-1-1.22-2-1.85-2.99
		c-2.54-4-5.28-7.87-8.1-11.67c-0.77-1.04-1.55-2.07-2.33-3.1c-0.03-0.04-0.08-0.06-0.12-0.06c-0.03,0-0.06,0.01-0.08,0.03
		c-0.06,0.04-0.08,0.14-0.04,0.21c2.87,3.78,5.64,7.65,8.21,11.64C133.9,112.21,135.15,114.24,136.34,116.3z M141.95,123.28
		c-0.01-0.01-0.02-0.02-0.03-0.03c0,0,0,0,0.01,0.01C141.94,123.26,141.94,123.27,141.95,123.28z M121.77,98.23
		c-0.44-1.08-0.91-2.15-1.38-3.22c-0.48-1.07-0.97-2.14-1.48-3.19c-0.39-0.81-0.79-1.61-1.19-2.41c-0.41-0.79-0.83-1.58-1.25-2.37
		c-0.02-0.03-0.05-0.04-0.08-0.04c-0.02,0-0.04,0.01-0.06,0.02c-0.05,0.03-0.05,0.09-0.02,0.13c0.12,0.23,0.25,0.47,0.37,0.7
		c0,0,0-0.01,0-0.01c1.07,2.09,2.04,4.23,2.92,6.41c0.88,2.16,1.67,4.37,2.45,6.57c0.51,1.43,1.01,2.87,1.52,4.3
		c0.06,0.18,0.26,0.27,0.44,0.21c0.18-0.07,0.27-0.26,0.21-0.44C123.48,102.63,122.66,100.42,121.77,98.23z M122.52,121.24
		c-0.02-0.04-0.07-0.07-0.12-0.08c-0.01,0-0.02,0-0.03,0c-0.04,0-0.07,0.01-0.1,0.03c-0.04,0.03-0.07,0.07-0.08,0.12
		c-0.01,0.05,0.01,0.09,0.03,0.14c0.35,0.67,0.72,1.32,1.14,1.95c0.06,0.09,0.18,0.1,0.26,0.05c0.09-0.06,0.1-0.18,0.05-0.26
		C123.26,122.55,122.87,121.9,122.52,121.24z M136.1,121.1c0.65,0.8,1.32,1.59,2.01,2.36c0.05,0.06,0.1,0.1,0.18,0.12
		c0.07,0.01,0.15,0,0.22-0.05c0.12-0.09,0.17-0.27,0.07-0.4c-0.59-0.76-1.21-1.5-1.82-2.24c-0.64-0.78-1.28-1.56-1.89-2.35
		c-0.6-0.78-1.19-1.57-1.74-2.38c-0.55-0.81-1.07-1.65-1.52-2.52c-0.05-0.11-0.11-0.21-0.16-0.32c-0.03-0.06-0.06-0.1-0.12-0.13
		c-0.03-0.01-0.07-0.02-0.1-0.02c-0.03,0-0.05,0-0.08,0.01c-0.06,0.02-0.1,0.06-0.13,0.12c-0.02,0.05-0.04,0.12-0.01,0.18
		c0.44,0.9,0.93,1.79,1.46,2.64c0.54,0.87,1.12,1.72,1.73,2.55C134.81,119.5,135.45,120.31,136.1,121.1z M131.36,125.7
		c-0.07,0-0.13,0.04-0.18,0.09c-0.08,0.1-0.08,0.28,0.03,0.36c1.4,0.98,2.79,1.97,4.28,2.81c1.49,0.84,3.07,1.52,4.74,1.9
		c0.13,0.03,0.26-0.07,0.29-0.2c0.03-0.14-0.07-0.25-0.2-0.29c-0.33-0.09-0.66-0.18-0.98-0.29c-0.93-0.31-1.84-0.69-2.72-1.14
		c-0.87-0.44-1.72-0.95-2.54-1.47c-0.86-0.55-1.7-1.14-2.54-1.72c-0.05-0.04-0.1-0.06-0.17-0.06
		C131.37,125.7,131.36,125.7,131.36,125.7z M128.06,109.93c-0.01-0.01-0.03-0.01-0.04-0.01c-0.01,0-0.02,0-0.03,0
		c-0.02,0.01-0.04,0.03-0.05,0.05c-0.01,0.02-0.02,0.05,0,0.07c0.61,1.24,1.27,2.45,2,3.63c0.03,0.05,0.11,0.06,0.16,0.03
		c0.05-0.04,0.06-0.11,0.03-0.16c-0.61-0.95-1.17-1.93-1.69-2.94c0,0,0,0.01,0,0.01c-0.11-0.21-0.21-0.42-0.32-0.63
		C128.09,109.96,128.08,109.94,128.06,109.93z M141.45,126.59c-0.53-0.34-1.02-0.73-1.48-1.16c-0.06-0.05-0.13-0.08-0.21-0.08
		c-0.1,0-0.2,0.04-0.27,0.12c-0.12,0.15-0.09,0.35,0.04,0.48c0.77,0.72,1.67,1.33,2.64,1.75c0.15,0.07,0.33,0.01,0.41-0.14
		c0.07-0.15,0-0.33-0.14-0.41C142.1,126.98,141.77,126.79,141.45,126.59z"/>
</g>
</svg>
