<?xml version="1.0" encoding="utf-8"?>
<!-- Generator: Adobe Illustrator 27.8.1, SVG Export Plug-In . SVG Version: 6.00 Build 0)  -->
<svg version="1.1" xmlns="http://www.w3.org/2000/svg" xmlns:xlink="http://www.w3.org/1999/xlink" x="0px" y="0px"
	 viewBox="0 0 350 230" style="enable-background:new 0 0 350 230;" xml:space="preserve">
<style type="text/css">
	.st0{fill:#F9E4D9;}
	.st1{fill:#DAF5F7;}
	.st2{fill:#D9F4E5;}
	.st3{fill:#E6F4D9;}
	.st4{fill:#F4E6D9;}
	.st5{fill:#E6E6FF;}
	.st6{fill:#F2F0DA;}
	.st7{fill:#F4EDD9;}
	.st8{fill:#DCFEFF;}
	.st9{fill:#4C2400;}
	.st10{fill:#FFDCC0;}
	.st11{fill:#32D3F3;}
	.st12{fill:#EAE9CE;}
	.st13{fill:#E4E5CF;}
	.st14{fill:#BFF6F7;}
	.st15{fill:#70D699;}
	.st16{fill:#D2F9F8;}
	.st17{fill:#F4F4D9;}
	.st18{fill:#CBCCB4;}
	.st19{fill:#F0D9F4;}
	.st20{fill:#C7FEFF;}
	.st21{fill:#CCFFFE;}
	.st22{fill:#CCFFE1;}
	.st23{fill:#231F20;}
	.st24{fill:#1C75BC;stroke:#F1F2F2;stroke-miterlimit:10;}
	.st25{fill:#FFFFFF;stroke:#F1F2F2;stroke-miterlimit:10;}
	.st26{fill:#FFC648;stroke:#F1F2F2;stroke-miterlimit:10;}
	.st27{fill:#825300;}
	.st28{fill:#AF2300;}
	.st29{fill:#AE6529;}
	.st30{fill:#A09F47;}
	.st31{fill:#003D50;}
	.st32{fill:#821600;}
	.st33{fill:#660C02;}
	.st34{fill:#974200;}
	.st35{fill:#725200;}
	.st36{fill:#AA5B08;}
	.st37{fill:#2B3990;}
	.st38{fill:#877F00;}
	.st39{fill:#9F00FF;}
	.st40{fill:#15FF00;}
	.st41{fill:#8D6195;}
	.st42{fill:#FFBA7B;}
	.st43{fill:#40006D;}
	.st44{fill:#8FD6D8;}
	.st45{fill:#A27021;}
	.st46{fill:#BC8200;}
	.st47{fill-rule:evenodd;clip-rule:evenodd;fill:#00245E;}
	.st48{fill:#AF1900;}
	.st49{fill-rule:evenodd;clip-rule:evenodd;fill:#877F00;}
	.st50{fill-rule:evenodd;clip-rule:evenodd;}
	.st51{fill:#00F9FF;}
	.st52{fill:#FFC648;}
	.st53{fill:#1C75BC;}
	.st54{clip-path:url(#SVGID_00000003808593457436286830000004630946120338164888_);fill:#369694;}
	.st55{fill:#F4A64E;}
	.st56{fill-rule:evenodd;clip-rule:evenodd;fill:#974200;}
	.st57{fill-rule:evenodd;clip-rule:evenodd;fill:#901E2E;}
	.st58{fill-rule:evenodd;clip-rule:evenodd;fill:#002D00;}
	.st59{fill-rule:evenodd;clip-rule:evenodd;fill:#B1CFC7;}
	.st60{fill:#FFD747;}
	.st61{fill:#074C00;}
	.st62{fill:#012A3F;}
	.st63{fill-rule:evenodd;clip-rule:evenodd;fill:#00F9FF;}
	.st64{fill:url(#SVGID_00000168797564756837546580000010616187806035474109_);}
	.st65{fill:url(#SVGID_00000166664430290690899010000009188429711335948955_);}
	.st66{fill:url(#SVGID_00000150803389902747841060000010660468252958132619_);}
	.st67{fill:url(#SVGID_00000109023439050634601700000017759880264285845683_);}
	.st68{fill:url(#SVGID_00000029005292368601371330000005088034185196717188_);}
	.st69{fill:url(#SVGID_00000146480826997177813260000005418753226586965423_);}
	.st70{fill:url(#SVGID_00000150792253312184386620000012642283037229680000_);}
	.st71{fill:url(#SVGID_00000163776252107773768430000014421588470777730478_);}
	.st72{fill:url(#SVGID_00000117664178178685394270000008072596834032747904_);}
	.st73{fill:url(#SVGID_00000066517552796567738400000006059972349653818795_);}
	.st74{fill:#39B54A;}
	.st75{fill:url(#SVGID_00000088096233706903956710000005209925046825971362_);}
	.st76{fill:url(#SVGID_00000021819181510472528630000010256534572433867432_);}
	.st77{fill:#C49A6C;}
	.st78{fill:url(#SVGID_00000173140855198128000470000005800608033605660317_);}
	.st79{fill:#004580;}
	.st80{fill:url(#SVGID_00000034056458353865107440000008056447112462863794_);}
	.st81{fill:url(#SVGID_00000064340551169558084950000005510168322953960108_);}
	.st82{fill:url(#SVGID_00000162341991498968622810000009077926516631252887_);}
	.st83{fill:#589179;}
	.st84{fill:#57898E;}
	.st85{fill:url(#SVGID_00000129168116942341341230000013791465306477580929_);}
	.st86{fill:url(#SVGID_00000025413598308251542380000007854008903198851483_);}
	.st87{fill:#262262;}
	.st88{fill:#24A8F0;}
	.st89{fill:url(#SVGID_00000116953132061148839030000000339787625398517173_);}
	.st90{fill:url(#SVGID_00000054259187152442225130000005688364975439799199_);}
</style>
<g id="Layer_1">
</g>
<g id="Layer_2">
</g>
<g id="Layer_3">
</g>
<g id="Layer_4">
</g>
<g id="Layer_5">
</g>
<g id="Layer_6">
</g>
<g id="Layer_7">
</g>
<g id="Layer_8">
</g>
<g id="Layer_9">
</g>
<g id="Layer_10">
</g>
<g id="Layer_11">
</g>
<g id="Layer_12">
</g>
<g id="Layer_13">
</g>
<g id="Layer_14">
</g>
<g id="Layer_15">
	
		<radialGradient id="SVGID_00000016075212677816860660000008431375917861244803_" cx="175.001" cy="98.7711" r="64.9057" gradientUnits="userSpaceOnUse">
		<stop  offset="0" style="stop-color:#009444"/>
		<stop  offset="0.0344" style="stop-color:#048640"/>
		<stop  offset="0.1385" style="stop-color:#0F6134"/>
		<stop  offset="0.2428" style="stop-color:#18442B"/>
		<stop  offset="0.346" style="stop-color:#1E3025"/>
		<stop  offset="0.4477" style="stop-color:#222321"/>
		<stop  offset="0.5462" style="stop-color:#231F20"/>
		<stop  offset="1" style="stop-color:#9B8579"/>
	</radialGradient>
	<path style="fill:url(#SVGID_00000016075212677816860660000008431375917861244803_);" d="M174.75,163.68
		c-35.76-0.07-64.69-29.19-64.66-65.06c0.03-35.69,29.31-64.84,65.02-64.75c35.83,0.09,64.84,29.17,64.79,64.94
		C239.85,134.87,210.84,163.75,174.75,163.68z M233.18,99.05c-0.02-32.46-25.95-58.49-58.26-58.46
		c-32.11,0.03-58.1,26.12-58.09,58.3c0.01,32.21,26.22,58.2,58.63,58.11C207.14,156.93,233.2,130.76,233.18,99.05z M122.69,88.56
		c0.07,10.42,8.47,18.8,18.92,18.85c10.53,0.05,19.04-8.49,19.02-19.1c-0.02-10.33-8.56-18.84-18.93-18.85
		C131.15,69.45,122.62,78.01,122.69,88.56z M214.46,127.43c0.2-10.5-8.3-19.15-18.88-19.22c-10.58-0.07-19.11,8.41-19.11,19
		c0,10.34,8.47,18.82,18.88,18.9C205.73,146.18,214.26,137.84,214.46,127.43z M175.32,44.74c-10.61-0.15-19.21,8.26-19.26,18.81
		c-0.05,10.47,8.27,18.96,18.66,19.05c10.74,0.1,19.15-8.14,19.21-18.8C193.99,53.29,185.79,44.89,175.32,44.74z M208.48,107.41
		c10.44-0.06,18.79-8.43,18.84-18.89c0.05-10.56-8.48-19.11-19.03-19.06c-10.45,0.05-18.8,8.44-18.81,18.9
		C189.47,99.03,197.89,107.47,208.48,107.41z M135.45,127.15c-0.04,10.37,8.38,18.86,18.81,18.96c10.53,0.1,19.15-8.44,19.15-18.97
		c0-10.41-8.37-18.83-18.81-18.92C143.98,108.12,135.49,116.52,135.45,127.15z M175,107.59c4.79,0.03,8.91-4.14,8.81-8.93
		c-0.1-4.78-3.96-8.56-8.75-8.57c-4.98-0.01-8.83,3.88-8.77,8.86C166.36,103.71,170.24,107.56,175,107.59z M163.38,102.45
		c-4.5-1.78-4.5-1.78-6.85,2.56C161.53,107.07,161.78,106.97,163.38,102.45z M193.47,104.82c-2.49-4.36-2.49-4.36-6.95-2.1
		C188.93,107.19,189.05,107.23,193.47,104.82z M174.95,110.42c-1.12,1.54-1.99,2.74-2.94,4.06c1,1.36,1.92,2.61,3.05,4.14
		c1.15-1.61,2.01-2.82,2.98-4.18C177.02,113.12,176.09,111.9,174.95,110.42z M163.36,83.66c-1.03,3.62,0.36,5.49,4.36,5.66
		C168.39,84.13,168.07,83.73,163.36,83.66z M186.33,83.33c-4.74,0.93-4.74,0.93-3.99,5.89C187.42,88.22,187.62,87.93,186.33,83.33z"
		/>
</g>
</svg>
