<?xml version="1.0" encoding="utf-8"?>
<!-- Generator: Adobe Illustrator 27.8.1, SVG Export Plug-In . SVG Version: 6.00 Build 0)  -->
<svg version="1.1" xmlns="http://www.w3.org/2000/svg" xmlns:xlink="http://www.w3.org/1999/xlink" x="0px" y="0px"
	 viewBox="0 0 350 230.71" style="enable-background:new 0 0 350 230.71;" xml:space="preserve">
<style type="text/css">
	.st0{fill:#3A2C00;}
	.st1{fill:#00003D;}
	.st2{fill:#F2EAC9;}
	.st3{fill:#D9F4CE;}
	.st4{fill:#FCF1C5;}
	.st5{fill:#FFFBEB;}
	.st6{fill:#E6F5FC;}
	.st7{fill:#EFFFE9;}
	.st8{fill:#FFF9E1;}
	.st9{fill:#FFFAE3;}
	.st10{fill:#E9F6FF;}
	.st11{fill:#FFF9E6;}
	.st12{fill:#FFF3C2;}
	.st13{fill:#DEFFFA;}
	.st14{fill:#FEFFE9;}
	.st15{fill:#D6FCD6;}
	.st16{fill:#E6FFE8;}
	.st17{fill:#FCF2D4;}
	.st18{fill:#F9FFE1;}
	.st19{fill:#FFFFE9;}
	.st20{fill:#191919;}
	.st21{fill:#FFFFFF;}
	.st22{fill:#FFCA55;}
	.st23{fill:#006865;}
	.st24{fill:#00AEB7;}
	.st25{fill:#EDC599;}
	.st26{fill:url(#SVGID_1_);}
	.st27{fill:#250B00;}
	.st28{fill:#FFDBD4;}
	.st29{fill:#231F20;}
	.st30{fill:#7F7F7F;}
	.st31{fill:#FFD468;}
	.st32{fill:#303030;}
	.st33{fill:#007D54;}
	.st34{fill:#EE3631;}
	.st35{fill:#2B2B2B;}
	.st36{fill:#FFB000;}
	.st37{opacity:0.35;fill:#FFFFFF;}
	.st38{fill:#E09C05;}
	.st39{fill:#A8112B;}
	.st40{fill:#FCB040;}
	.st41{fill:#3DA1D8;}
	.st42{fill:#0C8EBC;}
	.st43{fill:#EFC6A3;}
	.st44{fill:#B0DFFF;}
	.st45{fill-rule:evenodd;clip-rule:evenodd;fill:#FEFEFE;}
	.st46{fill:#006284;}
	.st47{fill:#5B5B5B;}
	.st48{fill:#EACAB0;}
	.st49{fill:#442B18;}
	.st50{fill:#663412;}
	.st51{fill:#C18B63;}
	.st52{fill:#3A1801;}
	.st53{fill:#616D0B;}
	.st54{fill:#98B11F;}
	.st55{fill:#606060;}
	.st56{fill:#E0E0E0;}
	.st57{fill-rule:evenodd;clip-rule:evenodd;fill:#FFE183;}
	.st58{fill-rule:evenodd;clip-rule:evenodd;fill:#FFA617;}
	.st59{fill:#FF6745;}
	.st60{fill-rule:evenodd;clip-rule:evenodd;fill:#63A642;}
	.st61{fill-rule:evenodd;clip-rule:evenodd;fill:#925056;}
	.st62{fill-rule:evenodd;clip-rule:evenodd;fill:#2C2F38;}
	.st63{fill:#A5A5A5;}
	.st64{fill:#FFEBB8;}
	.st65{fill:#FFA617;}
	.st66{fill:#AF121A;}
	.st67{fill:#C49718;}
	.st68{fill:#FFD961;}
	.st69{fill:#F93B00;}
	.st70{fill:#FFC02E;}
	.st71{fill:#FA6500;}
	.st72{fill:#9BB200;}
	.st73{fill:#FFF7D6;}
	.st74{fill:#3E9AFF;}
	.st75{fill:#3ED698;}
	.st76{fill:#0F935A;}
	.st77{fill:#ED1C24;}
	.st78{fill:#F68712;}
	.st79{fill:#5B0000;}
	.st80{fill-rule:evenodd;clip-rule:evenodd;fill:#FB6218;}
	.st81{fill:#795B4B;}
	.st82{fill:#513D35;}
	.st83{fill:#661F00;}
	.st84{fill:#3F0000;}
	.st85{fill-rule:evenodd;clip-rule:evenodd;fill:#FFFFFF;}
	.st86{fill:#FFC92F;}
	.st87{fill:#3D1109;}
	.st88{fill:#424241;}
	.st89{fill:none;stroke:#FFDE59;stroke-width:4;}
	.st90{fill:#FFDE59;}
	.st91{fill-rule:evenodd;clip-rule:evenodd;fill:#333231;}
	.st92{fill-rule:evenodd;clip-rule:evenodd;}
	.st93{fill:#FF6D00;}
	.st94{fill:#040507;}
	.st95{fill:#4D433A;}
	.st96{fill:#FF8B00;}
	.st97{filter:url(#Adobe_OpacityMaskFilter);}
	.st98{fill-opacity:0.3;}
	.st99{mask:url(#_x35_0ea534a37_00000039117605408314366780000006090329138646347946_);fill:#EBB22F;}
	.st100{fill:#F39200;}
	.st101{fill:#1D1D1B;}
	.st102{fill:#201F1F;}
	.st103{fill:url(#SVGID_00000000212319799332706380000014492779565662847911_);}
	.st104{fill:url(#SVGID_00000121995880141282873010000004125648888583703961_);}
	.st105{fill:url(#SVGID_00000110448048506208613250000008415126566551906453_);}
	.st106{fill:url(#SVGID_00000049223572887137507060000004024334254637473974_);}
	.st107{fill:url(#SVGID_00000140715085891491245860000015244577651261725092_);}
	.st108{fill:url(#SVGID_00000127765400134531767580000013642889021183369642_);}
	.st109{fill:url(#SVGID_00000096041871095180166400000017508220583525741722_);}
	.st110{fill:url(#SVGID_00000183931963677443806140000004730443241114567810_);}
	.st111{fill:url(#SVGID_00000024696011845474863310000008210067559873419150_);}
	.st112{fill:url(#SVGID_00000094610754202205012580000013209203680726340031_);}
	.st113{fill-rule:evenodd;clip-rule:evenodd;fill:url(#SVGID_00000154398461640209904010000010151512271269872787_);}
	.st114{fill:url(#SVGID_00000015331657818810372910000002756837660833604503_);}
	.st115{fill:url(#SVGID_00000053529248941204701670000016332361996252068758_);}
	.st116{fill:url(#SVGID_00000065791206942639771200000001185524203981414037_);}
	.st117{fill:url(#SVGID_00000075148704935930313840000018267330440253145762_);}
	.st118{fill:#F7941D;}
	.st119{fill:url(#SVGID_00000180328897729555673980000003306656170784515760_);}
	.st120{fill:#F2BA58;}
	.st121{fill:#8FD2CA;}
	.st122{fill:#8DC63F;}
	.st123{fill:#EA715E;}
	.st124{fill:url(#SVGID_00000082365612104153519520000000070751504689751184_);}
	.st125{fill:#A97C50;}
	.st126{fill:#F2F2F2;}
	.st127{fill:#096023;}
	.st128{fill:#191919;stroke:#191919;stroke-linecap:round;stroke-linejoin:round;stroke-miterlimit:10;}
	.st129{fill:#F2F2F2;stroke:#F2F2F2;stroke-linecap:round;stroke-linejoin:round;stroke-miterlimit:10;}
	.st130{fill-rule:evenodd;clip-rule:evenodd;fill:#594200;}
	.st131{fill-rule:evenodd;clip-rule:evenodd;fill:#3D1F11;}
	.st132{fill:#AA684B;}
	.st133{fill-rule:evenodd;clip-rule:evenodd;fill:#F2D6AF;}
	.st134{fill-rule:evenodd;clip-rule:evenodd;fill:#A87D46;}
	.st135{fill-rule:evenodd;clip-rule:evenodd;fill:#C10016;}
	.st136{fill-rule:evenodd;clip-rule:evenodd;fill:#8F1610;}
	.st137{fill-rule:evenodd;clip-rule:evenodd;fill:#EBEBEB;}
	.st138{fill-rule:evenodd;clip-rule:evenodd;fill:#D8D8D8;}
	.st139{fill:#530802;}
	.st140{fill:#EBA23C;}
	.st141{fill:#D5781F;}
	.st142{fill:url(#SVGID_00000000183828353497349870000014929191350463141550_);}
	.st143{fill:#972910;}
	.st144{fill:#F5B52F;}
	.st145{fill:#B34418;}
	.st146{fill:url(#SVGID_00000167385836636875607910000010395651821063154560_);}
	.st147{fill:url(#SVGID_00000145741733459371973570000007476284301400632490_);}
	.st148{fill:#764E48;}
	.st149{fill:#BE5D2D;}
	.st150{fill:#F29950;}
	.st151{fill:url(#SVGID_00000018934581435041916770000006945616553524997505_);}
	.st152{fill:#5B2413;}
	.st153{fill:#FEFEFE;}
	.st154{fill:#485359;}
	.st155{fill:#FF9369;}
	.st156{fill:url(#SVGID_00000051375475914741344420000011719912062386689192_);}
	.st157{fill:url(#SVGID_00000103976556316574670470000013885356791416202922_);}
	.st158{fill:url(#SVGID_00000166633420944375382630000007611525935088194442_);}
	.st159{fill:url(#SVGID_00000042010414039326465270000012032524994517853325_);}
	.st160{fill:url(#SVGID_00000035489178907060450000000008289119159522530986_);}
	.st161{fill:#D60980;}
	.st162{fill:url(#SVGID_00000106106962154266821260000006586047360215800481_);}
	.st163{fill-rule:evenodd;clip-rule:evenodd;fill:#CAB863;}
	.st164{fill-rule:evenodd;clip-rule:evenodd;fill:#00648E;}
	.st165{fill:url(#SVGID_00000038388930745045670040000011441019959931803294_);}
	.st166{fill:url(#SVGID_00000101823701626611697020000017498701841944976787_);}
	.st167{fill:url(#SVGID_00000101095528338455172580000000387565978135966090_);}
</style>
<g id="Layer_1">
</g>
<g id="Layer_2">
</g>
<g id="Layer_3">
</g>
<g id="Layer_4">
</g>
<g id="Layer_5">
</g>
<g id="Layer_6">
</g>
<g id="Layer_7">
</g>
<g id="Layer_8">
</g>
<g id="Layer_9">
</g>
<g id="Layer_10">
</g>
<g id="Layer_11">
</g>
<g id="Layer_12">
</g>
<g id="Layer_13">
</g>
<g id="Layer_14">
</g>
<g id="Layer_15">
	<g>
		<path class="st154" d="M111.08,37.21l155.65,41.92l-2.1,7.22L110.7,38.5L111.08,37.21z M115.58,27.17l142.17,75.98l-3.58,6.4
			l-139.03-81.6L115.58,27.17z"/>
		<path class="st155" d="M211.8,112.96c-12.4,4.95-32.38,10.12-55.18,13.88c-13.86,2.28-26.89,3.73-37.97,4.36
			c-0.57-2.78-2.77-9.65-11.01-14.26c-10.55-5.89-14.11-20.8,8.68-26.56c21.97-5.54,12.08-20.2,9.68-33.73
			c-2.23-12.5,11.01-30.85,29.52-19.08c14.36,9.12,14.62,16.05,14.52,26.23s14.58,16.18,7.47,28.46
			C170.47,104.39,184.57,112.61,211.8,112.96z"/>
		<path class="st154" d="M226.41,109.01c1.08,15.73-8.66,29.33-20.64,38.37c-29.2,21.74-76.14,26.02-106.03,3.66
			c-6.04-4.66-10.8-10.61-13.81-17.72c1,7.91,5.51,15.22,11.31,20.62c28.72,25.79,82.63,20.39,111.11-3.31
			C220.44,140.8,230.02,125.01,226.41,109.01z M104.5,132.99c8.78,0.29,17.55-0.15,26.29-0.88c26.13-2.6,52.33-6.76,77.21-15.44
			c5.13-2.09,17.61-6.34,18.81-12.35c0.52-2.59-2.25-4.62-4.08-5.19c-4.44-1.55-8.85-1.71-13.4-1.82c-8.79-0.1-17.5,0.68-26.17,1.93
			c8.2-0.03,34.86-1.01,40.15,4.19c0.13,2.61-8.67,6.28-13.82,8.17c-7.18-0.28-14.38-1-21.21-3.18c-4.3-1.46-9.65-3.9-10.75-8.52
			c-0.85-3.24,1.53-6.36,2.8-9.35c1.32-3.18,1.18-7-0.19-10.12c-2.4-5.89-8.67-11.28-8.14-17.15c0.19-5.54-0.07-11.77-3.28-16.68
			c-3.15-4.93-7.7-8.4-12.5-11.46c-4.99-3.12-11.36-4.9-17.25-3.18c-8.86,2.53-14.81,11.25-15.46,20.2
			c-0.38,5.61,2,11.12,3.38,16.37c1.23,4.57,2.61,9.87-0.09,13.94c-2.71,4.04-8.24,5.55-12.8,6.76c-5.4,1.66-10.93,4.1-14.25,9.06
			c-3.64,5.29-1.79,12.42,2.59,16.58c1.86,2.03,4.6,3.38,6.77,4.79c3.52,2.43,6.6,5.83,7.87,9.92c-4.14,0.26-8.28,0.43-12.43,0.49
			c-3.17-0.01-19.99,0.01-19.33-4.36c1.2-2.7,4.33-4.32,6.86-5.87c1.87-1.1,3.82-2.06,5.77-3.04c-4.26,1.43-12.3,3.9-14.37,8.33
			c-1.09,2.92,2.24,4.91,4.52,5.6C93.33,132.48,99.01,132.73,104.5,132.99z M165.31,49.61c1.09,1.78,1.88,3.75,2.24,5.98
			c0.46,2.55,0.5,5.37,0.51,8.15c-0.08,5.71,4.21,10.41,7.01,14.78c2.24,3.4,3.33,7,1.83,10.72c-0.29,0.82-0.81,1.69-1.2,2.48
			c-5.56,10.19,2.23,17.03,11.61,19.71c4.9,1.48,9.96,2.22,15.04,2.56c-6.15,1.94-12.38,3.64-18.65,5.16
			c-6.4-1.71-14.02-4.76-17.06-10.81c-1.18-2.37-0.83-5.14-0.4-7.7c1.33-7.96,6.78-14.75,2.22-22.88c-1.29-2.54-3.35-4.79-4.71-7.29
			c-2.64-4.64-4.32-10.46-3.2-15.65C161.11,52.23,162.76,49.68,165.31,49.61z M162.92,46.47c-2.94,1.32-4.86,4.48-5.29,7.79
			c-0.99,6.61,1.38,13.17,4.9,18.65c1.78,2.66,4.05,5.23,5,8.34c0.55,1.68,0.6,3.45,0.35,5.2c-1.22,6.99-6.55,14.25-3.77,22.99
			c2.43,5.33,7.42,8.8,12.75,11.3c-2.62,0.58-5.25,1.15-7.88,1.68c-1.17,0.23-2.34,0.46-3.51,0.68
			c-6.26-2.99-14.34-8.05-14.88-15.34c-0.12-2.23,0.87-4.53,2.16-6.42l0.84-1.35c2.8-4.59,5.44-9.27,6.36-14.81
			c0.81-4.38-0.34-9.06-2.54-12.87c-3.2-6.63-7.47-15.07-4.23-22.24c1.34-2.74,3.94-4.78,6.9-6.32
			C161.09,44.62,162.04,45.52,162.92,46.47z M153.16,39c0.18,0.1,0.35,0.2,0.52,0.31c0.92,0.57,1.83,1.16,2.73,1.76
			c-7.29,4.6-9.97,11.96-6.76,20.89c1.42,4.15,3.44,7.88,5.38,11.61c2,3.43,2.9,7.27,2.17,11.19c-1.03,5.87-4.58,11.33-7.88,16.32
			c-5.68,9.32,1.93,17.88,9.95,23.18c-4.15,0.74-8.3,1.44-12.47,2.07c-1.77-0.91-3.55-2.1-5.13-3.4
			c-7.13-5.64-10.01-14.88-5.46-23.06c2.31-3.87,6.16-6.37,9.46-9.54c6.62-5.97,6.55-13.39,2.79-20.96
			c-2.06-4.05-4.61-7.85-5.92-12.21c-2.11-5.94-1.62-13.54,4.64-16.6C148.98,39.59,151.06,39.11,153.16,39z M141.75,38.85
			c1.45-0.82,3.09-1.33,4.79-1.63c-9.68,5.51-9.49,16.72-4.55,27.56c0.89,2.04,2.15,4.21,3.08,6.19
			c7.38,15.35-4.75,16.72-11.27,27.53c-5.67,11.22-0.69,22.13,8.91,28.43c-3.39,0.48-6.78,0.91-10.18,1.29
			c-0.17-0.71-0.39-1.41-0.62-2.13c-1.45-4.32-3.98-8.18-6.96-11.56c-1.13-1.26-2.58-2.62-3.47-4.01
			c-5.73-7.94,2.04-14.52,9.22-17.33c10.66-3.5,11.17-13.63,8.7-23.01c-1.05-4.76-3.42-9.13-4.26-13.89
			C134.03,49.87,135.62,42.13,141.75,38.85z M110.85,117.12c-2.27-1.55-4.46-2.51-6.27-4.46c-3.36-3.3-4.88-8.52-2.07-12.57
			c3.6-5.23,10.44-7.05,16.34-8.61c5.52-1.56,11.57-4.99,12.94-11.17c1.54-7.04-1.42-13.93-2.88-20.58
			c-0.57-2.44-1.08-4.71-0.81-7.2c0.51-5.33,3.59-10.87,8.08-13.88c-4.04,4.57-5.46,11.23-4.13,18.19c0.93,4.89,3.48,9.26,4.6,14.06
			c1.7,6.22,2.58,14.67-3.82,18.4c-1.98,1.1-4.54,1.89-6.61,3.06c-4.23,2.29-8.62,5.96-9.46,11c-0.93,5.27,2.42,9.71,5.72,13.3
			c2.82,3.48,5.19,7.57,6,12c-2.78,0.28-5.55,0.52-8.33,0.72c-0.24-0.91-0.56-1.78-0.95-2.66
			C117.42,122.79,114.35,119.51,110.85,117.12z"/>
	</g>
</g>
</svg>
