<?xml version="1.0" encoding="utf-8"?>
<!-- Generator: Adobe Illustrator 27.8.1, SVG Export Plug-In . SVG Version: 6.00 Build 0)  -->
<svg version="1.1" xmlns="http://www.w3.org/2000/svg" xmlns:xlink="http://www.w3.org/1999/xlink" x="0px" y="0px"
	 viewBox="0 0 350 230.71" style="enable-background:new 0 0 350 230.71;" xml:space="preserve">
<style type="text/css">
	.st0{fill:#3A2C00;}
	.st1{fill:#00003D;}
	.st2{fill:#F2EAC9;}
	.st3{fill:#D9F4CE;}
	.st4{fill:#FCF1C5;}
	.st5{fill:#FFFBEB;}
	.st6{fill:#E6F5FC;}
	.st7{fill:#EFFFE9;}
	.st8{fill:#FFF9E1;}
	.st9{fill:#FFFAE3;}
	.st10{fill:#E9F6FF;}
	.st11{fill:#FFF9E6;}
	.st12{fill:#FFF3C2;}
	.st13{fill:#DEFFFA;}
	.st14{fill:#FEFFE9;}
	.st15{fill:#D6FCD6;}
	.st16{fill:#E6FFE8;}
	.st17{fill:#FCF2D4;}
	.st18{fill:#F9FFE1;}
	.st19{fill:#FFFFE9;}
	.st20{fill:#191919;}
	.st21{fill:#FFFFFF;}
	.st22{fill:#FFCA55;}
	.st23{fill:#006865;}
	.st24{fill:#00AEB7;}
	.st25{fill:#EDC599;}
	.st26{fill:url(#SVGID_1_);}
	.st27{fill:#250B00;}
	.st28{fill:#FFDBD4;}
	.st29{fill:#231F20;}
	.st30{fill:#7F7F7F;}
	.st31{fill:#FFD468;}
	.st32{fill:#303030;}
	.st33{fill:#007D54;}
	.st34{fill:#EE3631;}
	.st35{fill:#2B2B2B;}
	.st36{fill:#FFB000;}
	.st37{opacity:0.35;fill:#FFFFFF;}
	.st38{fill:#E09C05;}
	.st39{fill:#A8112B;}
	.st40{fill:#FCB040;}
	.st41{fill:#3DA1D8;}
	.st42{fill:#0C8EBC;}
	.st43{fill:#EFC6A3;}
	.st44{fill:#B0DFFF;}
	.st45{fill-rule:evenodd;clip-rule:evenodd;fill:#FEFEFE;}
	.st46{fill:#006284;}
	.st47{fill:#5B5B5B;}
	.st48{fill:#EACAB0;}
	.st49{fill:#442B18;}
	.st50{fill:#663412;}
	.st51{fill:#C18B63;}
	.st52{fill:#3A1801;}
	.st53{fill:#616D0B;}
	.st54{fill:#98B11F;}
	.st55{fill:#606060;}
	.st56{fill:#E0E0E0;}
	.st57{fill-rule:evenodd;clip-rule:evenodd;fill:#FFE183;}
	.st58{fill-rule:evenodd;clip-rule:evenodd;fill:#FFA617;}
	.st59{fill:#FF6745;}
	.st60{fill-rule:evenodd;clip-rule:evenodd;fill:#63A642;}
	.st61{fill-rule:evenodd;clip-rule:evenodd;fill:#925056;}
	.st62{fill-rule:evenodd;clip-rule:evenodd;fill:#2C2F38;}
	.st63{fill:#A5A5A5;}
	.st64{fill:#FFEBB8;}
	.st65{fill:#FFA617;}
	.st66{fill:#AF121A;}
	.st67{fill:#C49718;}
	.st68{fill:#FFD961;}
	.st69{fill:#F93B00;}
	.st70{fill:#FFC02E;}
	.st71{fill:#FA6500;}
	.st72{fill:#9BB200;}
	.st73{fill:#FFF7D6;}
	.st74{fill:#3E9AFF;}
	.st75{fill:#3ED698;}
	.st76{fill:#0F935A;}
	.st77{fill:#ED1C24;}
	.st78{fill:#F68712;}
	.st79{fill:#5B0000;}
	.st80{fill-rule:evenodd;clip-rule:evenodd;fill:#FB6218;}
	.st81{fill:#795B4B;}
	.st82{fill:#513D35;}
	.st83{fill:#661F00;}
	.st84{fill:#3F0000;}
	.st85{fill-rule:evenodd;clip-rule:evenodd;fill:#FFFFFF;}
	.st86{fill:#FFC92F;}
	.st87{fill:#3D1109;}
	.st88{fill:#424241;}
	.st89{fill:none;stroke:#FFDE59;stroke-width:4;}
	.st90{fill:#FFDE59;}
	.st91{fill-rule:evenodd;clip-rule:evenodd;fill:#333231;}
	.st92{fill-rule:evenodd;clip-rule:evenodd;}
	.st93{fill:#FF6D00;}
	.st94{fill:#040507;}
	.st95{fill:#4D433A;}
	.st96{fill:#FF8B00;}
	.st97{filter:url(#Adobe_OpacityMaskFilter);}
	.st98{fill-opacity:0.3;}
	.st99{mask:url(#_x35_0ea534a37_00000039117605408314366780000006090329138646347946_);fill:#EBB22F;}
	.st100{fill:#F39200;}
	.st101{fill:#1D1D1B;}
	.st102{fill:#201F1F;}
	.st103{fill:url(#SVGID_00000137108586664688713090000004795438199091922845_);}
	.st104{fill:url(#SVGID_00000172424881339299677300000010327220332445320376_);}
	.st105{fill:url(#SVGID_00000066476339900643512540000012293858318963106234_);}
	.st106{fill:url(#SVGID_00000071549172558552118560000012601720065858512818_);}
	.st107{fill:url(#SVGID_00000171707732060137041540000016804837449846441614_);}
	.st108{fill:url(#SVGID_00000112605559286032213980000017068128411848224392_);}
	.st109{fill:url(#SVGID_00000011000688706455232690000007793114584561674657_);}
	.st110{fill:url(#SVGID_00000013903979545590221450000002976110292404061115_);}
	.st111{fill:url(#SVGID_00000002363288961866057500000004352034640587745174_);}
	.st112{fill:url(#SVGID_00000096024579462501539840000000788197736922199988_);}
	.st113{fill-rule:evenodd;clip-rule:evenodd;fill:url(#SVGID_00000111872702843983945300000016030129464248705412_);}
	.st114{fill:url(#SVGID_00000097474977679563074860000006779200064774800057_);}
	.st115{fill:url(#SVGID_00000143588768043478144880000002892763154548739482_);}
	.st116{fill:url(#SVGID_00000034803313453840806740000011720613396595958697_);}
	.st117{fill:url(#SVGID_00000175300206613453352130000016068740592804220823_);}
	.st118{fill:#F7941D;}
	.st119{fill:url(#SVGID_00000091706512895942403900000016676704391568569221_);}
	.st120{fill:#F2BA58;}
	.st121{fill:#8FD2CA;}
	.st122{fill:#8DC63F;}
	.st123{fill:#EA715E;}
	.st124{fill:url(#SVGID_00000168113101822219710240000007772459114756289697_);}
	.st125{fill:#A97C50;}
	.st126{fill:#F2F2F2;}
	.st127{fill:#096023;}
	.st128{fill:#191919;stroke:#191919;stroke-linecap:round;stroke-linejoin:round;stroke-miterlimit:10;}
	.st129{fill:#F2F2F2;stroke:#F2F2F2;stroke-linecap:round;stroke-linejoin:round;stroke-miterlimit:10;}
	.st130{fill-rule:evenodd;clip-rule:evenodd;fill:#594200;}
	.st131{fill-rule:evenodd;clip-rule:evenodd;fill:#3D1F11;}
	.st132{fill:#AA684B;}
	.st133{fill-rule:evenodd;clip-rule:evenodd;fill:#F2D6AF;}
	.st134{fill-rule:evenodd;clip-rule:evenodd;fill:#A87D46;}
	.st135{fill-rule:evenodd;clip-rule:evenodd;fill:#C10016;}
	.st136{fill-rule:evenodd;clip-rule:evenodd;fill:#8F1610;}
	.st137{fill-rule:evenodd;clip-rule:evenodd;fill:#EBEBEB;}
	.st138{fill-rule:evenodd;clip-rule:evenodd;fill:#D8D8D8;}
	.st139{fill:#530802;}
	.st140{fill:#EBA23C;}
	.st141{fill:#D5781F;}
	.st142{fill:url(#SVGID_00000096045680670486191940000003492761914048375726_);}
	.st143{fill:#972910;}
	.st144{fill:#F5B52F;}
	.st145{fill:#B34418;}
	.st146{fill:url(#SVGID_00000125604372958497745980000005953432438970619784_);}
	.st147{fill:url(#SVGID_00000129911602230535513010000018009496193770329249_);}
	.st148{fill:#764E48;}
	.st149{fill:#BE5D2D;}
	.st150{fill:#F29950;}
	.st151{fill:url(#SVGID_00000092458381703183756620000011170688138652451484_);}
	.st152{fill:#5B2413;}
	.st153{fill:#FEFEFE;}
	.st154{fill:#485359;}
	.st155{fill:#FF9369;}
	.st156{fill:url(#SVGID_00000094585480550954860130000007478398061951355582_);}
	.st157{fill:url(#SVGID_00000163072982784857450610000011896737862199733180_);}
	.st158{fill:url(#SVGID_00000081633622076592399850000014127097490397982637_);}
	.st159{fill:url(#SVGID_00000065037225249619427000000003571723285897847992_);}
	.st160{fill:url(#SVGID_00000034071069471457377580000007344179122478728321_);}
	.st161{fill:#D60980;}
	.st162{fill:url(#SVGID_00000055696465043225661990000000310332066252166539_);}
	.st163{fill-rule:evenodd;clip-rule:evenodd;fill:#CAB863;}
	.st164{fill-rule:evenodd;clip-rule:evenodd;fill:#00648E;}
	.st165{fill:url(#SVGID_00000127016761405896143860000005130563921568050356_);}
	.st166{fill:url(#SVGID_00000150803986563128756830000012668727581747518881_);}
	.st167{fill:url(#SVGID_00000163048637619969612890000010113971645005497765_);}
</style>
<g id="Layer_1">
</g>
<g id="Layer_2">
</g>
<g id="Layer_3">
</g>
<g id="Layer_4">
</g>
<g id="Layer_5">
</g>
<g id="Layer_6">
</g>
<g id="Layer_7">
</g>
<g id="Layer_8">
</g>
<g id="Layer_9">
</g>
<g id="Layer_10">
</g>
<g id="Layer_11">
</g>
<g id="Layer_12">
</g>
<g id="Layer_13">
</g>
<g id="Layer_14">
</g>
<g id="Layer_15">
	<g>
		<path class="st130" d="M209.04,145.01c31.38-25.67,31.06-73.97-6.82-92.6c-36.47-17.94-82.32,9.99-83.85,51.04
			c-1.78,47.72,52.77,71.06,89.65,42.35L209.04,145.01z"/>
		<path class="st85" d="M119.9,101.5c0.46-1.94,0.96-3.87,1.52-5.79c0.7-2.39,1.47-4.8,2.52-7.06c0.91-1.96,2.2-4.17,4.29-5.03
			c0.98-1.99,2.41-3.93,4.62-4.54c0.02-0.01,0.05-0.01,0.07-0.02c1.02-1.65,2.39-3.18,4.3-3.7c1.48-0.41,3.02-0.31,4.35,0.48
			c2.46,1.47,3,4.45,3.02,7.08c0.02,2.58-0.38,5.2-0.87,7.73c-0.07,0.35-0.14,0.69-0.21,1.04c0.45,0.19,0.88,0.43,1.28,0.72
			c0.19-0.34,0.38-0.68,0.58-1.02c0.78-1.32,1.67-2.57,2.66-3.74c-0.01-0.07-0.02-0.15-0.03-0.23c-0.1-1.05,0.53-1.91,1.25-2.59
			c0.22-0.2,0.5-0.42,0.69-0.63c0.89-0.96,2.01-2.34,2.98-3.77c0.74-1.1,1.39-2.23,1.77-3.24c-4.95-3.94-8.13-9.4-7.49-15.95
			c0.31-3.21,1.52-6.26,3.29-8.94c1.79-2.72,4.17-5.06,6.87-6.87c6.64-4.44,15.01-5.53,22.03-1.28c2.73,1.65,5.07,3.66,7.29,5.94
			c1.77,1.82,3.42,3.78,5.28,5.51c0.62,0.57,1.26,1.12,1.94,1.62c0.25,0.16,0.49,0.33,0.73,0.5c0.09,0.06,0.18,0.13,0.27,0.2
			c0.2,0.13,0.41,0.26,0.62,0.38c0.83,0.48,1.84,1.35,2.74,1.64c0.79,0.26,1.65,0.4,2.47,0.52c1.08,0.15,2.17,0.24,3.25,0.31
			c0.64,0.04,1.27,0.07,1.91,0.09c2.33,0.08,4.66,0.01,7-0.04c2.13-0.05,4.27-0.06,6.39,0.22c1.75,0.23,3.44,0.66,5.08,1.32
			c4.31,1.74,8.13,4.38,10.77,8.27c0.04,0.06,0.07,0.11,0.1,0.17c2.41,4.39,3.18,9.52,2.26,14.43c-0.87,4.68-3.23,9.08-6.75,12.29
			c-3.39,3.09-7.61,4.85-12.12,5.09c0,0.02,0,0.05,0,0.07c0.05,0.39,0.1,0.79,0.15,1.18c0,0,0,0.01,0,0.01
			c0.06,0.49,0.25,1.04,0.36,1.54c0.2,0.9,0.27,1.78,0.01,2.67c-0.26,0.91-0.76,1.79-1.43,2.46c-0.11,0.11-0.23,0.21-0.35,0.31
			c0.11,2.26-0.03,4.58-0.33,6.77c-0.52,3.86-1.57,8.06-3.41,11.51c-3.67,6.9-10.59,13.5-16.98,17.93
			c-7.26,5.03-20.55,4.38-28.98,3.22c-4.46-0.61-8.69-2.29-12.37-4.88c-0.82-0.58-1.78-1.05-2.66-1.52
			c-1.27-0.68-2.61-1.45-3.6-2.51c-0.61-0.66-1.08-1.4-1.47-2.2c-0.62-1.29-1.01-2.82-1.77-4.01c-0.37-0.58-0.71-1.17-1.04-1.77
			c-0.34-0.6-0.69-1.21-1.04-1.83c-2.42,2.02-5.31,3.77-8.37,4.09c-3.52,0.37-7.11-0.27-10.07-2.26c-1.99-1.34-3.48-3.14-4.48-5.23
			c-3.89-2.19-6.94-5.91-8.15-10.22c-0.67-2.39-0.75-4.9-0.18-7.31C113.43,106.65,116.22,103.19,119.9,101.5z"/>
		<path class="st131" d="M233.69,71.66c-0.01-0.01-0.01-0.02-0.02-0.03c-2.43-3.59-5.98-6.01-9.95-7.61c-1.5-0.61-3.04-1-4.65-1.21
			c-2.02-0.27-4.08-0.25-6.12-0.21c-2.37,0.05-4.72,0.12-7.09,0.04c-0.66-0.02-1.31-0.05-1.96-0.09c-1.13-0.07-2.27-0.17-3.39-0.32
			c-0.92-0.13-1.89-0.3-2.78-0.59c-1.16-0.38-2.04-1.19-3.08-1.79c-0.25-0.15-0.49-0.3-0.73-0.45c-0.1-0.07-0.2-0.15-0.29-0.22
			c-0.17-0.11-0.42-0.29-0.71-0.48c-0.75-0.55-1.46-1.15-2.15-1.79c-1.88-1.75-3.55-3.73-5.34-5.57c-2.12-2.19-4.32-4.08-6.93-5.66
			c-6.43-3.88-14.07-2.81-20.11,1.24c-2.51,1.68-4.72,3.86-6.38,6.37c-1.61,2.44-2.72,5.22-3,8.13c-0.61,6.25,2.65,11.32,7.54,14.92
			c0.09,0.07,0.19,0.14,0.28,0.21c-0.09,0.23-0.18,0.47-0.25,0.71c-0.79,2.63-3.44,6.13-5.3,8.15c-0.45,0.49-1.04,1.47-0.72,2.16
			c-1.35,1.36-2.56,2.93-3.63,4.73c-1.2,2.03-2.14,4.19-3.01,6.37c-0.92,2.31-1.76,4.65-2.72,6.94c-3.27,7.9-2.21,12.99,0.55,18.59
			c3.35-3.21,5.78-7.59,5.78-7.59l4.65,1.57c0.24,0.08-3.23,6.01-7.98,10.56c0.68,1.2,1.41,2.45,2.15,3.78
			c0.31,0.56,0.64,1.13,0.98,1.67c1.24,1.95,1.46,4.25,3.04,5.95c1.45,1.56,4.24,2.53,5.99,3.8c3.46,2.41,7.4,3.99,11.58,4.57
			c7.89,1.09,20.92,1.79,27.72-2.92c6.13-4.24,12.9-10.68,16.43-17.3c1.72-3.23,2.72-7.29,3.21-10.9c0.36-2.71,0.53-6.05,0.04-9.1
			c0.15-0.04,0.3-0.09,0.45-0.17c1.34-0.7,1.4-2.74,1.24-4.04c-0.05-0.43-0.11-0.85-0.17-1.28c0.01-0.31-0.04-0.65-0.11-0.96
			c-0.04-0.34-0.07-0.68-0.09-1.02c4.79,0.24,9.31-1.35,12.9-4.62c3.24-2.96,5.4-7,6.2-11.3C236.6,80.38,235.9,75.69,233.69,71.66z
			 M144.2,128.74c-2.74,2.63-5.9,4.8-9.02,5.13c-9.65,1.01-17.27-6.52-12.96-21.35l13.97-1.13c0,0-8.11,15.06-1.69,16.08
			c2.52,0.4,5.08-1.19,7.25-3.27c3.35-3.21,5.78-7.59,5.78-7.59l4.65,1.57C152.42,118.26,148.95,124.19,144.2,128.74z"/>
		<path class="st132" d="M162.91,80.63c7.41-1.66,15.18-2.19,22.65-0.55c5.55,1.22,10.64,3.59,15.11,7.11
			c3.45,2.72,6.38,6,8.83,9.64c0.91,1.35,1.75,2.74,2.54,4.17c0.52,0.95,1.01,1.91,1.53,2.86c2.03,3.71,1.92,9.39,1.38,13.47
			c-0.48,3.55-1.49,7.62-3.17,10.79c-3.48,6.53-10.23,12.96-16.31,17.17c-6.7,4.64-19.68,3.93-27.47,2.86
			c-4.13-0.57-8.01-2.13-11.43-4.51c-4.18-2.91-7.44-6.87-9.91-11.3c-5.44-9.74-9.84-15.22-5.13-26.6c0.95-2.3,1.8-4.63,2.72-6.95
			c0.86-2.17,1.8-4.31,2.99-6.32c3.63-6.13,8.94-9.42,15.53-11.8C162.81,80.66,162.86,80.65,162.91,80.63z M163.19,81.87
			c-14.97,5.4-16.04,13.61-20.49,24.36c-4.46,10.76-0.4,15.72,5.06,25.5c0.37,0.66,0.74,1.29,1.13,1.9
			c1.06,1.66,0.54,3.23,1.71,4.55c1.05,1.18,3.78,2.16,4.91,3.08c4.01,3.31,8.4,5.06,12.65,5.65c7.26,1,20.16,1.79,26.58-2.65
			c6.41-4.44,12.77-10.82,15.92-16.73c3.14-5.9,4.77-17.62,1.8-23.06C209.49,99.04,198.32,74.02,163.19,81.87z M163.19,81.87
			c-14.97,5.4-16.04,13.61-20.49,24.36c-1.23,2.96-1.81,5.48-1.89,7.79c1.17,3.7,3.5,7.32,6.16,12.09
			c5.46,9.78,13.15,14.17,20.4,15.17c7.26,1,20.17,1.79,26.58-2.65c6.41-4.44,13.32-11.85,15.92-16.73c2.6-4.88,1.9-11.1,1.81-16.54
			c-0.21-0.67,2.42,2.09,0.79-0.9C210.83,101.48,198.32,74.02,163.19,81.87z M206.67,117.58c-3.46-0.07-5.28,0.98-2.88,4.24
			c2.4,3.26,5,1.84,5.73,0.59C210.24,121.15,209.8,116.69,206.67,117.58z M191.59,129.8c-1.96,0.82-3.15,4.16-1.67,6.88
			c1.48,2.72,6.28-0.04,6.79-1.54C197.21,133.64,197.5,128.99,191.59,129.8z M152.04,110.5c-3.8-0.93-6.89-0.22-5.95,3.79
			c0.94,4.02,6.23,3.71,7.84,1.35C155.53,113.28,154.15,110.88,152.04,110.5z M165.03,119.17c-1.86,0.44-2.83,1.93-3.39,4.51
			c-0.56,2.58,5.09,3.68,7.23,1.81C171.01,123.62,168.01,119.1,165.03,119.17z M155.78,124.88c-3.48,0.02-6.18,2.86-1.49,4.42
			C158.98,130.87,159.05,125.97,155.78,124.88z M179.97,137.08c-4.07,1.12-6.27,4.28-0.78,5.38
			C184.67,143.56,184.41,137.41,179.97,137.08z M165.32,137.85c3.06-6.6-10.31-8.89-7.78-2.12
			C159.01,139.64,162.88,140.47,165.32,137.85z M163.19,81.87c-6.3,2.27-10.13,5.04-12.8,8.28c0.03,0.1,0.08,0.19,0.14,0.28
			c0.32,0.49,0.91,0.7,1.46,0.51c7.13-2.38,18.09-1.91,25.17,0.07c4.47,1.25,13.35,4.9,17.67,6.62c3.43,1.36,6.44,2.77,9.63,4.63
			c2.81,1.64,4.03,2.71,6.47,4.86c0.63,0.56,1.62,3.77,2.28,4.3c1.09,0.87,0.03-4.2,0.01-5.11c-0.21-0.67-0.46-1.28-0.76-1.83
			C209.49,99.04,198.32,74.02,163.19,81.87z M201.3,100.68c-3.12-0.94-6.09-0.68-5.81,2.58c0.28,3.26,4.94,8.48,7.26,6.69
			C205.07,108.17,207.41,101.66,201.3,100.68z M175.41,90.85c-0.87,1.04-1.03,2.39,0.08,3.38c2.25,2.01,6.87,0.46,7.27-1.04
			C183.56,90.26,176.85,89.12,175.41,90.85z M154.52,89.94c-4.57,1.56-4.45,5.74-1.64,7.47c2.81,1.73,6.79-0.48,7.63-1.79
			C161.34,94.3,158.85,87.84,154.52,89.94z M170.33,133.38c0.67,0.1,1.25,0.15,1.94,0.14c1.56-0.04,5.32-1.23,5.53-1.13
			c0.3,1.44-3.89,3.31-5.26,3.6c-0.92,0.13-1.66,0.14-2.58,0.02c-1.72-0.32-2.55-0.37-2.01-1.76
			C168.34,132.84,168.59,133.11,170.33,133.38z M148.36,132.36c-0.01-0.19,0.14-0.36,0.33-0.37c0.19-0.01,0.36,0.14,0.37,0.33
			c0.11,2.18,0.57,3.76,1.34,4.98c0.77,1.21,1.85,2.08,3.19,2.82c2.03,1.12,3.87,1.39,5.93,1.69c2.78,0.41,2.72,1.11-0.1,0.7
			c-2.12-0.31-4.02-0.59-6.17-1.77c-1.44-0.8-2.61-1.73-3.45-3.06C148.98,136.36,148.48,134.67,148.36,132.36z M184.77,146.15
			c-0.19-0.01-0.48,0.09-0.47-0.1c0.02-0.75,2.81-0.45,3.41-0.41c2.93,0.19,4.72,0.27,6.57-1.44c1.03-0.95,1.92-1.9,2.72-2.75
			c0.95-1.02,1.82-2.01,2.75-2.92c1.85-1.82-2.16,3.32-2.24,3.4c-0.8,0.86-1.69,1.8-2.76,2.79c-2.08,1.92-4.46,1.76-7.55,1.56
			C186.43,146.23,185.62,146.18,184.77,146.15z M174.35,145.63c-5.77,0.41-5.31-0.8-8.94-1.56c-3.63-0.75-2.28-1.08-4.19-1.45
			c-0.35,0.04-0.95,0.02-1.8-0.11c-1.04-0.15-2.03-0.3-3.02-0.54c3.76,2.85,7.82,4.39,11.75,4.94c5.75,0.79,15.06,1.46,21.86-0.52
			c-0.88,0.02-1.81-0.05-2.83-0.11c-0.77-0.05-1.58-0.1-2.43-0.13c-0.19-0.01-0.48,0.09-0.47-0.1c0.02-0.68,2.28-0.5,3.17-0.43
			c-1.46-0.27-3.73-0.53-5.06-0.58C180.66,144.98,180.12,145.21,174.35,145.63z M171.79,108.52c3.45-4.72-3.74-2.27-1.73,0.49
			C170.43,109.51,171.31,108.9,171.79,108.52z M206.41,110.46c3.91,1.18,0.91-4.1-0.65-1.3
			C205.47,109.67,206.05,110.2,206.41,110.46z M183.73,132.52c-1.91,6.31,6.61,1.48,2.1-1.05
			C185.02,131.01,184.16,131.95,183.73,132.52z M147.68,99.81c-1.09,3.59,3.76,0.85,1.2-0.6C148.41,98.94,147.93,99.48,147.68,99.81
			z M170.12,98.44c6.21,2.54,2.14-6.55-0.86-2.23C168.72,96.99,169.59,97.95,170.12,98.44z M202.72,131.44
			c6.22-6.14-6.76-5.91-3.12-0.11C200.27,132.39,201.86,131.84,202.72,131.44z M197.39,115.74c5.77,0.99,0.58-5.98-1.16-1.74
			C195.91,114.78,196.84,115.42,197.39,115.74z M148.48,107.14c7.67,3.61,3.12-8.13-0.94-2.87
			C146.8,105.23,147.84,106.49,148.48,107.14z"/>
		<path class="st133" d="M160.11,113.02c5.64,6.44,21.04,6.71,25.47,3.8c4.43-2.92-4.27,15.97-12.69,15.99
			C164.47,132.82,158.14,125.57,160.11,113.02z"/>
		<path class="st134" d="M168.26,109.54c2.19,2.15,6.01,2.74,7.64,2.51C177.54,111.83,170.89,118.14,168.26,109.54z"/>
		<path class="st131" d="M160.41,110.92c5.59,6.74,21.01,6.91,25.47,3.8c4.46-3.11-4.41,16.87-12.84,16.97
			C164.62,131.78,158.34,124.17,160.41,110.92z M174.11,121.17c-0.03,0-0.11,0.01-0.13,0.01c-0.43,0.05-0.75,0.13-1.15,0.31
			c-0.42,0.2-0.73,0.42-1.09,0.74c-0.22,0.21-0.99,1.17-1.15,1.17c-0.34-0.25,0.28-1.56,0.42-1.82c0.35-0.56,0.7-0.93,1.23-1.3
			c0.54-0.36,1.01-0.54,1.63-0.63c0.03-0.01,0.16-0.02,0.2-0.02c0.83,0,1.69-0.04,1.35,0.9
			C175.2,121.36,175.06,121.14,174.11,121.17z M160.96,111.76c-0.22,0.12-0.41,0.24-0.62,0.39c-0.35,0.26-1.34,1.19-1.74,1.07
			c-0.52-0.38,0.5-1.78,0.75-2.09c0.27-0.31,0.52-0.54,0.87-0.74c0.02-0.01,0.07-0.03,0.09-0.05c0.22-0.1,0.4-0.16,0.63-0.17
			c0.82,0.04,0.63,0.3,0.45,0.72c-0.09,0.26-0.18,0.47-0.26,0.74c0,0.03-0.12,0.08-0.14,0.1
			C160.99,111.75,160.98,111.75,160.96,111.76z M187.24,113.87c0.29,0.37,0.49,0.76,0.72,1.17c0.22,0.44,0.42,0.88,0.52,1.36
			c0.05,0.18,0.09,0.36,0.07,0.54c0,0.07,0,0.14-0.03,0.2c-0.02,0.08-0.05,0.13-0.14,0.12c-0.06-0.01-0.1,0-0.16-0.03
			c-0.05-0.02-0.09-0.05-0.13-0.09c-0.13-0.08-0.25-0.21-0.35-0.33c-0.32-0.31-0.62-0.67-0.91-1.02c-0.26-0.33-0.54-0.65-0.8-0.98
			c-0.02-0.03-0.05-0.06-0.07-0.08c-0.1-0.14-0.19-0.24-0.27-0.39c-0.09-0.18,0.16-0.49,0.25-0.66c0.19-0.39,0.18-0.7,0.77-0.34
			c0.16,0.07,0.33,0.29,0.45,0.42C187.19,113.8,187.22,113.84,187.24,113.87z M186.16,95.02c0.84-0.21,1.59-0.25,2.46-0.19
			c1.03,0.1,1.87,0.31,2.77,0.85c0.44,0.27,0.76,0.53,1.06,0.96c0.28,0.43,0.57,1.13,0.06,1.51c-0.29,0.16-0.83,0.17-1.17,0.21
			c-0.04,0-0.69,0.11-0.72,0.12c-0.58,0.12-1.14,0.23-1.72,0.38c-0.54,0.14-1.06,0.29-1.59,0.43c-0.04,0.01-0.11,0.03-0.15,0.04
			c-1.16,0.29-1.15-0.24-1.98-1.37c-1.07-1.37-1.64-1.94,0.74-2.86C185.95,95.07,186.11,95.03,186.16,95.02z M167.03,95.08
			c-0.46-0.35-0.9-0.75-1.34-1.12c-0.36-0.31-0.71-0.61-1.07-0.92c-0.17-0.13-0.33-0.26-0.51-0.38c-0.28-0.22-0.83-0.32-1.05-0.58
			c-0.36-0.49,0.11-1.04,0.49-1.35c0.38-0.28,0.74-0.41,1.2-0.51c0.91-0.18,1.66-0.09,2.55,0.16c0.9,0.28,1.63,0.63,2.39,1.19
			c1.57,1.31,1,1.55-0.16,2.6C168.6,95.05,168.16,95.87,167.03,95.08z"/>
		<path class="st135" d="M166.56,121.91c2.71-2,8.87-1.31,10.76,1.65c0.54,0.84-2.01,3.36-6.36,2.62
			C167.25,125.55,164.53,123.41,166.56,121.91z"/>
		<path class="st85" d="M179.7,119.69c-0.25,0.04-0.26,0.03-0.27,0.03c-4.74,0.39-12.42-0.52-16.35-3.62
			c-0.18-0.14-0.75-1.48-0.49-1.78c0.01,0,1.27,0.9,1.43,0.99c0.75,0.39,1.47,0.68,2.27,0.95c4.04,1.29,8.82,1.88,13.05,1.52
			c0.08-0.01,0.17-0.02,0.25-0.03c2.07-0.3,4.47-1.58,4.89-0.82C185.92,118.33,179.95,119.65,179.7,119.69z M171.14,129.55
			c-2.57-0.36-4.44-1.29-6.22-3.23c-0.83-0.99-1.34-1.86-1.75-3.11c-1.3-4.68,2.34-2.39,2.4-2.23c0.26,0.7-1.32,1.45-1.2,1.68
			c0.51,0.95,1.02,1.6,1.81,2.32c1.59,1.36,3.12,1.97,5.18,2.12c4.24,0.04,6.16-1.18,7.78-3.07c0.41-0.48-0.6-0.45-0.51-0.73
			c0.56-1.72,3.16-0.36,2.47,1.23C179.46,128.3,174.74,129.85,171.14,129.55z"/>
		<path class="st136" d="M176.63,122.74c-0.62,1.04-2.9,2.41-6.26,1.84c-0.29-0.05-0.58-0.11-0.85-0.17
			c-1.55-0.37-2.86-1.01-3.59-1.72c-0.36,1.03,0.89,2.17,2.82,2.9c0.67,0.25,1.42,0.46,2.21,0.59c4.35,0.73,6.9-1.78,6.36-2.62
			C177.13,123.26,176.9,122.99,176.63,122.74z"/>
		<path class="st133" d="M181.64,106.32c0.26-0.37,0.51-0.65,0.88-0.95c0.58-0.45,1.1-0.72,1.89-0.91c0.75-0.16,1.35-0.16,2.13-0.02
			c0.75,0.17,1.28,0.39,1.9,0.79c0.61,0.43,0.99,0.82,1.39,1.38c0.42,0.74,1.32,3.59,0.3,3.89c-0.23-0.09-1.18-2.25-2.01-3.08
			c-0.31-0.3-0.6-0.52-1.01-0.72c-0.3-0.14-0.56-0.23-0.9-0.26c-0.29-0.02-0.49,0-0.75,0.08c-0.31,0.11-0.52,0.25-0.75,0.45
			c-0.19,0.18-0.33,0.34-0.47,0.55c-0.11,0.16-0.2,0.31-0.29,0.48c-0.7,1.44-0.38,1.85-1.83,1.58c-1.8-0.14-1.39-1.12-0.88-2.51
			C181.35,106.79,181.48,106.56,181.64,106.32z M163.34,104.59c-0.08-0.37-0.16-0.7-0.32-1.06c-0.12-0.23-0.25-0.43-0.47-0.61
			c-0.17-0.13-0.31-0.18-0.54-0.23c-0.33-0.05-0.61-0.02-0.92,0.04c-0.45,0.1-0.78,0.23-1.16,0.43c-0.67,0.37-2.24,1.84-2.41,1.85
			c-0.88-0.44,0.63-2.52,1.08-2.96c0.46-0.4,0.88-0.67,1.5-0.93c0.63-0.24,1.16-0.36,1.88-0.37c0.79,0.02,1.37,0.16,2.05,0.51
			c0.73,0.41,1.15,0.84,1.55,1.47c0.35,0.57,0.52,1.05,0.65,1.67c0.17,1.25,0.65,3.59-1.32,3.17
			C163.09,107.45,163.64,106.43,163.34,104.59z"/>
		<path class="st131" d="M181.79,105.29c0.28-0.48,0.54-0.85,0.92-1.25c0.6-0.6,1.14-0.97,1.94-1.24c0.76-0.23,1.37-0.26,2.15-0.11
			c0.75,0.18,1.27,0.45,1.87,0.93c0.6,0.52,0.97,1.01,1.34,1.71c0.4,0.93,1.18,4.53,0.14,4.96c-0.22-0.1-1.1-2.82-1.9-3.85
			c-0.3-0.37-0.58-0.64-0.99-0.88c-0.3-0.17-0.55-0.27-0.9-0.3c-0.29-0.01-0.49,0.02-0.76,0.14c-0.32,0.15-0.53,0.34-0.77,0.6
			c-0.2,0.23-0.34,0.45-0.5,0.72c-0.11,0.21-0.21,0.41-0.31,0.63c-0.77,1.87-0.45,2.38-1.91,2.09c-1.8-0.1-1.35-1.37-0.79-3.18
			C181.47,105.91,181.61,105.61,181.79,105.29z M163.45,103.83c-0.06-0.47-0.14-0.89-0.28-1.34c-0.11-0.29-0.23-0.54-0.45-0.77
			c-0.17-0.16-0.31-0.22-0.53-0.27c-0.33-0.05-0.61,0-0.93,0.09c-0.45,0.14-0.8,0.33-1.19,0.6c-0.69,0.5-2.32,2.44-2.5,2.45
			c-0.86-0.53,0.74-3.25,1.2-3.83c0.48-0.53,0.92-0.9,1.54-1.25c0.64-0.34,1.18-0.51,1.9-0.55c0.79-0.01,1.37,0.15,2.04,0.57
			c0.72,0.49,1.12,1.03,1.5,1.81c0.33,0.71,0.48,1.33,0.59,2.1c0.12,1.59,0.51,4.56-1.45,4.1
			C163.09,107.49,163.68,106.16,163.45,103.83z M233.38,71.83c9.62,17.51-11.47,43.19-35.99,18.4
			c-14.02-14.18-25.39-2.9-40.63-14.16c-19.96-14.74,4.57-40.36,21.56-30.08c7.53,4.55,10.09,10.63,16.16,14.17
			c1,0.58,1.91,1.42,3.15,1.82c2.01,0.66,5.29,0.92,8.22,1.02c7.34,0.26,12.25-0.87,17.74,1.35
			C226.6,65.56,230.61,67.74,233.38,71.83z"/>
		<path class="st137" d="M170.32,44.72c-15.02,0.28-28.32,20.81-11.38,30.53s28.03,0.09,38.82,12.92
			c18.8,22.35,37.81,5.75,36.47-8.65c-0.74-7.98-8.88-16.01-22.96-14.91C185.19,66.66,185.34,44.44,170.32,44.72z"/>
		<path class="st85" d="M170.32,44.72c-5.42,0.1-10.61,2.84-14.25,6.75c1.68,0.85,3.62-0.14,6.2-1.74
			c3.45-2.13,9.76-4.98,17.91,2.87c8.14,7.84,16.76,14.12,25.49,15.39c8.73,1.27,1.25-0.38-1.94-1.73c-3.19-1.34,3.46-0.5,7.98-0.47
			s15.15,1.96,19.54,7.12c0.64,0.76,1.23,1.44,1.75,2.07c-2.85-6.19-10.34-11.26-21.72-10.37
			C185.19,66.66,185.34,44.44,170.32,44.72z"/>
		<path class="st138" d="M153.16,55.46c-3.67,6.57-3.13,14.68,5.78,19.79c16.94,9.73,28.03,0.09,38.82,12.92
			c16.47,19.59,33.11,9.26,36.07-3.29c-4.68,0.6-9.57-0.19-13.39-4.93c-6.35-7.9-14.37-4.66-22.25-6.22
			c-7.88-1.55-4.93-6.74-13.17-8.39c-8.24-1.65-11.01,0.66-14.31-7.04C167.42,50.61,157.71,51.71,153.16,55.46z"/>
		<path class="st131" d="M151.28,85.41c1.86-2.02,4.51-5.52,5.3-8.15c0.19-0.63,0.45-1.23,0.79-1.79c0.19-0.31,0.35-0.67,0.51-1
			c0.21-0.46,0.42-0.92,0.63-1.39c0.3-0.64,0.62-1.33,1-1.93c0.25-0.4,0.72-1.05,1.27-0.85c1.46,0.51,2.92,0.78,4.47,0.66
			c1.19-0.09,2.28-0.41,3.44-0.67c0.73-0.17,1.46-0.3,2.22-0.32c6.64-0.24,13.72,0.97,20.12,2.7c6.42,1.74,13.18,4.27,18.82,7.83
			c3.88,2.45,8.87,6.5,8.88,11.53c0.01,1.62-0.52,3.14-1.42,4.49c-0.63,0.95-0.72,2.39-0.7,3.5c0.03,1.36,0.24,2.71,0.41,4.06
			c0.13,1.07,0.75,2.34,0.42,3.51c-0.49,1.72-2.14,3.04-3.08,1.82c-1.33-1.73-4.93-4.9-6.34-6.13c-1.4-1.21-2.96-2.51-4.55-3.44
			c-6.41-3.73-15.09-8.17-22.18-10.16c-7.08-1.98-22.72-4-29.88-0.8c-0.64,0.29-1.09-0.7-1.53-1.38
			C149.45,86.82,150.8,85.93,151.28,85.41z"/>
		<path class="st85" d="M159.4,76.24c-0.14,0.48-1.61,2.47-1.84,2.97c-1.64,3.56-5.09,7.3-5.09,7.3c6.86-2.29,20.29-1.29,31.96,2.29
			c8.18,2.51,15.15,6.9,19.87,9.64c7.86,4.58,9.86,8.13,10.95,7.89c1.11-0.24-1.6-7.21,0.72-10.71
			C226.35,79.98,164.18,60.29,159.4,76.24z M157.6,79.11c0.26-0.1,0.53-0.2,0.82-0.32c4.46-2.94,4.4-4.5,11.1-3.56
			c6.69,0.94,6.96-2.17,11.11,0.31c4.15,2.48,6.62,6.91,11.65,7.59c5.03,0.69,5.97-2.44,11.37,1.15s8.97,10.34,10.45,13.44
			c0.19,0.41,0.55,0.57,0.99,0.54c0.12-0.98,0.39-1.89,0.89-2.65c9.37-14.12-41.1-32.1-54.57-23.37
			C160.3,72.97,158.3,77.56,157.6,79.11z"/>
		<path class="st138" d="M213.64,87c-0.81,1.4-1.68,3.11-2.08,4.59c-0.63,2.32,0.87,7.14-0.2,8.22c-0.22,0.22-0.54,0.28-1,0.14
			c-0.14-0.04-0.3-0.1-0.49-0.18c-1.25-0.5-3.59-1.69-6.42-3.13c-1.82-0.93-3.84-1.96-5.9-2.98c-4.08-2.02-8.29-3.99-11.36-4.98
			c-7.36-2.38-7.67-1.98-18.26-4.56c-2.89-0.7-5.24-1.12-7.19-1.29c-1.06-0.09-2.01-0.12-2.86-0.07c-1.02,0.05-1.9,0.19-2.68,0.41
			c-0.01,0.01-0.01,0.01-0.02,0.02c-0.05,0.05-0.09,0.1-0.13,0.14c-0.71,0.98-1.4,1.81-1.88,2.38c-0.43,0.5-0.7,0.8-0.7,0.8
			c0.79-0.26,1.66-0.47,2.59-0.62c3.4-0.54,7.66-0.1,12.37,0.33c16.74,1.5,24.71,6.15,33.23,10.3c1.34,0.65,2.56,1.3,3.63,1.92
			c2.08,1.21,3.74,2.35,5.09,3.37c1.2,0.91,2.15,1.71,2.92,2.39c0.99,0.88,1.67,1.53,2.17,1.87c0.32,0.22,0.56,0.31,0.77,0.27
			c0.46-0.1,0.26-1.38,0.04-3.09c-0.03-0.21-0.06-0.43-0.08-0.65c-0.13-0.3-0.25-0.65-0.35-1.02c-0.22-0.8-0.38-1.66-0.5-2.18
			c-0.39-1.69-0.75-5.35,0.22-8.15c0.03,0.06,0.4,3.68,0.71,6.01c0.15-0.59,0.38-1.15,0.7-1.63c1.35-2.04,1.45-4.12,0.59-6.16
			C215.62,88.77,214.63,87.91,213.64,87z M159.01,63.47c-1.23,5.84,0.08,8.9,11.53,7.95c11.45-0.95,11.98-1.58,17.88,4.84
			c5.9,6.42,12.41,0.08,19.15,5.38c6.74,5.3,6.14,8.8,13.46,8.66s3.09-7.46-6.85-12.09c-3.26-1.51-12.14-2.29-18.8-4.77
			C181.69,68.35,167.22,61.4,159.01,63.47z"/>
		<path class="st131" d="M214.34,99.39c-0.39-1.69-0.75-5.35,0.22-8.15c0.04,0.08,0.68,6.52,0.98,7.73
			c0.21,0.99,1.64,4.42,0.58,4.44C215.11,103.65,214.63,100.6,214.34,99.39z M159.92,77.05c0.31-0.25,0.65-0.54,1-0.73
			c0.11-0.07,0.23-0.14,0.35-0.18c0.07-0.03,0.2-0.09,0.22,0.01c0.03,0.1,0.02,0.1-0.05,0.2c-0.05,0.1-0.13,0.21-0.2,0.31
			c-0.2,0.32-0.48,0.66-0.72,0.95c-1.18,1.54-3.83,3.94-5.34,5.58c-0.94,1-1.05,1.41-1.7,0.75
			C153.05,83.54,159.01,77.76,159.92,77.05z M171.68,70.85c3.1-0.27,6.89-0.51,9.89,0.1c1.4,0.35,2.37,0.18,3.52,1.07
			c1.36,1.11,2.62,2.41,3.81,3.72c1.31,1.39,2.41,2.15,4.22,2.66c1.59,0.39,2.93,0.37,4.56,0.33c1.75-0.05,3.24-0.11,4.98,0.15
			c2.11,0.38,3.49,1,5.21,2.33c2.64,2.21,6.3,6.85,8.67,8.07c1.46,0.76,2.06,1.29,3.78,1.66c1.02,0.18,1.8,0.16,2.8-0.19
			c1.81-0.73,2.83-2.2,3.08-2.31c-0.1,0.84-2.2,2.38-2.94,2.74c-1.08,0.44-1.93,0.51-3.05,0.36c-1.88-0.34-2.39-0.86-3.97-1.54
			c-2.72-1.26-6.2-5.62-9.01-7.89c-1.59-1.18-2.85-1.71-4.78-2.02c-1.66-0.21-3.11-0.13-4.78-0.05c-1.77,0.08-3.17,0.1-4.9-0.29
			c-2.06-0.55-3.35-1.4-4.86-2.96c-1.15-1.23-2.3-2.47-3.61-3.51c-0.99-0.75-1.73-1.16-2.93-1.45c-2.75-0.52-6.89,0.04-9.74,0.29
			c-0.36,0.03-0.72,0.06-1.07,0.09c-2.37,0.18-4.62,0.28-6.95-0.04c-1.52-0.24-2.82-0.57-4.04-1.59c-5.5-4.96-1.63-8.08-1.71-7.74
			c-0.83,3.71,1.16,5.35,2.59,6.57c1.01,0.78,2.17,1.03,3.4,1.22c2.23,0.27,4.5,0.48,6.75,0.31
			C170.96,70.91,171.32,70.88,171.68,70.85z M195.08,60.78c6.1,5.27,9.07,4.36,15.66,7.94c-5.41-0.33-14.42-4.56-18.6-8.47
			c-0.9-0.8-1.29-0.69-1.04-1.49C191.3,57.66,194.3,60.11,195.08,60.78z"/>
		<path class="st138" d="M158.9,84.73c-0.11,0.16-0.33,0.2-0.49,0.09c-0.16-0.11-0.2-0.33-0.09-0.49c1.58-2.32,3.33-4.93,4.75-7.1
			c1.15-1.76,2.07-3.23,2.5-4.02c0.09-0.17,0.31-0.23,0.48-0.14c0.17,0.09,0.23,0.31,0.14,0.48c-0.43,0.8-1.37,2.28-2.53,4.07
			C162.24,79.78,160.49,82.39,158.9,84.73z M165.46,84.79c-0.07,0.18-0.27,0.27-0.45,0.2c-0.18-0.07-0.27-0.27-0.2-0.45
			c2.18-5.57,4.39-10.87,4.4-10.88c0.07-0.18,0.28-0.26,0.46-0.19c0.18,0.07,0.26,0.28,0.19,0.46
			C169.84,73.94,167.65,79.2,165.46,84.79z M170.36,85.93c-0.07,0.18-0.27,0.27-0.46,0.2c-0.18-0.07-0.27-0.28-0.2-0.46
			c2.46-6.26,4.09-12.25,4.09-12.27c0.05-0.19,0.24-0.3,0.43-0.25c0.19,0.05,0.3,0.24,0.25,0.43
			C174.47,73.61,172.84,79.63,170.36,85.93z M178.98,73.16c0.05-0.19,0.25-0.29,0.44-0.24c0.19,0.05,0.29,0.25,0.24,0.44
			c-1.34,4.58-4.14,13.15-4.15,13.17c-0.06,0.18-0.26,0.28-0.44,0.22c-0.18-0.06-0.28-0.26-0.22-0.44
			C174.85,86.28,177.66,77.7,178.98,73.16z M180.88,87.69c-0.04,0.19-0.23,0.31-0.42,0.26c-0.19-0.04-0.31-0.23-0.26-0.42
			c0.59-2.55,3.49-12.48,3.5-12.51c0.05-0.19,0.25-0.29,0.43-0.24c0.19,0.05,0.29,0.25,0.24,0.43
			C184.36,75.24,181.47,85.15,180.88,87.69z M188.37,78.4c0.06-0.19,0.25-0.29,0.44-0.23c0.19,0.06,0.29,0.25,0.23,0.44
			c-0.89,2.92-2.19,10.6-2.19,10.63c-0.03,0.19-0.21,0.32-0.41,0.29c-0.19-0.03-0.32-0.21-0.29-0.41
			C186.16,89.09,187.47,81.37,188.37,78.4z M192.05,91.73c-0.03,0.19-0.22,0.32-0.41,0.28c-0.19-0.03-0.32-0.22-0.28-0.41
			c0.38-2.1,2.1-10.23,2.1-10.25c0.04-0.19,0.23-0.31,0.42-0.27c0.19,0.04,0.31,0.23,0.27,0.42
			C194.14,81.52,192.43,89.59,192.05,91.73z M199.34,81c0.05-0.19,0.24-0.3,0.43-0.25c0.19,0.05,0.3,0.24,0.25,0.43
			c-0.17,0.62-2.17,13.33-2.17,13.37c-0.03,0.19-0.21,0.32-0.4,0.29c-0.19-0.03-0.32-0.21-0.29-0.4
			C197.16,94.4,199.17,81.64,199.34,81z M204.91,82.57c0.02-0.19,0.19-0.34,0.38-0.32c0.19,0.02,0.34,0.19,0.32,0.38
			c-0.32,3.69-1.7,14.48-1.71,14.51c-0.03,0.19-0.2,0.33-0.39,0.3c-0.19-0.03-0.33-0.2-0.3-0.39
			C203.21,97.02,204.59,86.23,204.91,82.57z M209.45,86.08c0.03-0.19,0.22-0.32,0.41-0.28c0.19,0.03,0.32,0.22,0.28,0.41
			c-0.75,4.2-0.14,14.32-0.14,14.35c0.01,0.19-0.14,0.36-0.33,0.37c-0.19,0.01-0.36-0.14-0.37-0.33
			C209.3,100.57,208.68,90.35,209.45,86.08z"/>
		<path class="st85" d="M123.19,103.98c-3.33,0.7-6.47,3.54-7.38,7.43c-2.27,9.61,9.17,19.46,18.89,13.77
			c3.45-2.02,5.32-6.18,4.65-7.7C137.8,114.04,123.19,103.98,123.19,103.98z"/>
		<path class="st131" d="M124.11,102.64c2.98,2.05,5.94,4.22,8.78,6.45c2.07,1.62,6.88,5.38,7.93,7.73c0.7,1.58-0.06,3.68-0.84,5.1
			c-1.03,1.88-2.62,3.57-4.47,4.66c-3.75,2.2-8.05,2.49-12.07,0.86c-6.34-2.57-10.84-9.52-9.21-16.4c0.99-4.18,4.37-7.75,8.63-8.65
			C123.31,102.3,123.73,102.38,124.11,102.64z M138.14,104.34c-0.58,0.51-1.14,1.03-1.65,1.56c-0.41,0.42-1.85,2.01-1.89,2.69
			c0.06,0.06,0.13,0.11,0.21,0.13c0.5,0.09,2.03-0.72,2.49-0.95c0.8-0.39,1.59-0.74,2.41-0.99c-0.64-0.66-1.14-1.46-1.52-2.32
			C138.17,104.42,138.15,104.38,138.14,104.34L138.14,104.34z M146.48,107.05c0.99,0.31,1.94,0.88,2.14,2
			c0.3,1.65-1.4,2.89-2.52,3.8c-1.28,1.03-2.59,2.06-3.64,3.33c-0.36,0.44-0.69,0.91-0.96,1.41c-0.76,1.44-2.68,2.42-4.14,2.98
			c-1.98,0.76-4.22,1.18-6.34,1.18c-2.73,0-5.51-0.68-7.6-2.53c-3.69-3.26-3.63-8.61-2.71-13.05c0.69-3.33,1.49-6.68,2.44-9.95
			c0.66-2.28,1.43-4.65,2.43-6.8c0.73-1.56,1.9-3.75,3.69-4.24c0.09-0.02,0.18-0.05,0.27-0.07c0.78-1.77,1.96-3.78,3.81-4.29
			c0.24-0.07,0.49-0.12,0.74-0.15c0.83-1.51,2.01-3.12,3.64-3.57c1-0.28,2.05-0.25,2.96,0.3c1.83,1.09,2.14,3.63,2.15,5.56
			c0.02,2.42-0.38,5-0.84,7.38c-0.17,0.88-0.35,1.76-0.55,2.63c1.08,0.17,2.09,0.59,2.88,1.37c1.58,1.54,2.91,7.38,3.38,9.67
			c0.05,0.23,0.05,0.44,0,0.67c-0.16,0.74-0.55,1.55-1.01,2.14C146.62,106.89,146.55,106.97,146.48,107.05z"/>
		<path class="st85" d="M143.18,95.48c1.37,1.34,2.93,8.84,2.93,8.84s-0.68,3.16-3.59,2.33c-2.92-0.83-3.5-5.09-3.5-5.09
			s-7.81,5.72-5.66,8.06c2.15,2.35,5.15-1.89,9.07-1.57c10.24,0.82,0.65,3.12-2.35,8.76c-1.3,2.45-10.82,5.38-15.58,1.18
			c-2.25-1.98-3.43-5.55-2.2-11.51c0.83-4.01,4.09-18.85,7.4-19.76c0.36-0.1,0.68-0.14,0.97-0.12c0.88-2.23,1.89-3.9,3.11-4.24
			c0.5-0.14,0.92-0.16,1.29-0.08c0.95-1.94,1.98-3.34,3.09-3.64c4.74-1.31,2.99,8.83,1.27,15.81
			C139.64,94.58,141.8,94.14,143.18,95.48z"/>
		<path class="st131" d="M134.96,109.28c-1.82-0.7-3.61-0.76-5.16-0.43c-1.84,0.39-3.37,1.34-4.25,2.46
			c-0.18,0.23-0.14,0.56,0.09,0.74c0.23,0.18,0.56,0.14,0.74-0.09c0.74-0.94,2.04-1.74,3.64-2.08c1.37-0.29,2.95-0.24,4.56,0.38
			c0.28,0.1,0.58-0.03,0.68-0.3C135.37,109.69,135.23,109.38,134.96,109.28z M141.45,87.68c-0.28-0.08-0.57,0.09-0.65,0.37
			c0,0.01-0.91,3.26-1.92,7c-0.07,0.28,0.09,0.57,0.37,0.65c0.29,0.07,0.57-0.09,0.65-0.37c0.91-3.39,1.92-6.99,1.92-7
			C141.9,88.05,141.73,87.76,141.45,87.68z M139.32,102.8c-0.25-0.79-0.35-1.7-0.11-2.63c0.07-0.29-0.1-0.56-0.39-0.61
			c-0.28-0.05-0.57,0.14-0.64,0.42c-0.29,1.14-0.17,2.24,0.12,3.19c0.43,1.37,1.25,2.45,1.76,2.91c0.22,0.19,0.57,0.31,0.78,0.09
			c0.14-0.15,0.45,0.05,0.56,0.13C140.98,105.92,139.68,103.98,139.32,102.8z M138.19,96.3c-0.04,0.29-0.3,0.49-0.59,0.46
			c-0.78-0.1-3,0.55-5.36,1.85c-1.72,0.95-3.48,2.24-4.8,3.83c-0.19,0.23-0.52,0.26-0.75,0.07c-0.22-0.18-0.25-0.51-0.07-0.74
			c0.88-1.06,1.93-1.98,3.03-2.77c0-0.01,0.01-0.01,0.01-0.02c0-0.01,0.86-1.83,1.52-5.58l0.11-0.66c0.57-3.24,1.01-5.7-0.96-6.26
			c-0.28-0.08-0.45-0.37-0.37-0.65c0.08-0.28,0.37-0.44,0.65-0.36c2.89,0.82,2.38,3.68,1.72,7.45l-0.12,0.65
			c-0.34,2-0.75,3.49-1.08,4.46c0.2-0.11,0.4-0.23,0.6-0.34c0.91-0.51,1.82-0.92,2.65-1.23c0.13-0.45,0.65-2.34,1.35-6.22
			c0.42-2.36,0.56-4.4,0.29-5.88c-0.22-1.17-0.7-1.95-1.52-2.17c-0.28-0.08-0.45-0.36-0.37-0.64c0.07-0.29,0.36-0.45,0.64-0.38
			c1.27,0.34,1.99,1.41,2.28,3c0.3,1.61,0.16,3.78-0.28,6.25c-0.52,2.88-0.94,4.68-1.19,5.63c0.95-0.28,1.72-0.4,2.15-0.34
			C138.02,95.75,138.23,96.01,138.19,96.3z"/>
		<path class="st138" d="M132.04,121.7c-2.37,1.56-5.25,2.53-7.49,1.55c-3.71-1.61-9.09-6.08-7.62-14.64
			c-0.5,0.85-0.89,1.79-1.12,2.79c-2.27,9.61,9.17,19.46,18.89,13.77c2.31-1.35,3.91-3.66,4.51-5.49c-0.62,0.36-1.27,0.64-1.85,0.86
			C135.69,121.2,133.85,121.59,132.04,121.7z M136.92,115.97c-3.61,2.3-10.88,1.77-14.52-1.13c0.47,1.33,1.2,2.37,2.09,3.16
			c4.25,3.75,12.29,1.82,14.9-0.38c0.01-0.01,0.03-0.02,0.04-0.04c0.11-0.1,0.22-0.2,0.31-0.3c0.14-0.15,0.25-0.31,0.34-0.46
			c0.12-0.22,0.24-0.44,0.38-0.65c0.12-0.18,0.24-0.36,0.37-0.54c0.12-0.16,0.24-0.32,0.37-0.48c2.78-3.37,7.32-5.29,5.36-6.34
			c-2.22,0.69-3.87,2.25-5.66,3.91c0,0,0,0,0,0c-0.44,0.41-0.89,0.83-1.36,1.24c-0.12,0.11-0.24,0.21-0.36,0.31
			c-0.05,0.04-0.1,0.09-0.15,0.13c-0.41,0.34-0.84,0.68-1.29,1.01C137.47,115.61,137.2,115.79,136.92,115.97z M138.04,100.84
			c-3.62,0.66-6.85,2.94-8.79,5.48c-0.34,0.45-0.64,0.9-0.9,1.36c-0.38,0.68-0.66,1.35-0.83,2.01c0.67-0.37,1.45-0.66,2.28-0.84
			c0.03-0.01,0.06-0.01,0.09-0.02c0.78-0.16,1.61-0.21,2.48-0.14c0.2,0.02,0.41,0.04,0.62,0.07c-0.13-2,3.39-5.09,5.11-6.48
			C138.02,101.82,137.99,101.34,138.04,100.84z M145.98,103.74c-0.51,0.58-1.3,1.12-2.51,1.14c-0.07,0-0.15,0-0.22-0.01
			c-0.42-0.04-0.82-0.2-1.19-0.45c-0.1-0.07-0.2-0.14-0.29-0.22c-1.4-1.15-2.3-3.44-2.55-4.13c0,0.03-0.01,0.06-0.01,0.1
			c-0.23,0.93-0.14,1.84,0.11,2.63c0.26,0.85,1,2.08,1.55,2.85c0.07,0.08,0.15,0.15,0.23,0.22c0.09,0.08,0.19,0.16,0.29,0.23
			c0.33,0.24,0.71,0.44,1.13,0.56c0,0,0.01,0,0.01,0c2.91,0.82,3.58-2.34,3.58-2.34S146.06,104.11,145.98,103.74z M134.57,83.82
			c1.01,1.27-1.17,10.69-1.81,13.33c0.56-0.27,1.1-0.5,1.62-0.7c0.13-0.46,0.65-2.34,1.35-6.22c0.42-2.35,0.56-4.4,0.29-5.88
			c-0.2-1.09-0.63-1.84-1.35-2.11c-0.27-0.01-0.58,0.03-0.91,0.12c-0.22,0.06-0.43,0.16-0.63,0.3
			C133.61,82.91,134.14,83.28,134.57,83.82z M131.29,92.74c0.54-3.04,0.95-5.4-0.64-6.13c0,0,0,0,0,0c-0.24-0.01-0.51,0.01-0.8,0.08
			c0.97,2.02-0.6,7.61-1.27,10.43c-0.34,1.44-0.62,2.6-0.83,3.45c0.6-0.57,1.24-1.09,1.9-1.56c0-0.01,0.01-0.01,0.01-0.02
			c0-0.01,0.86-1.83,1.51-5.58L131.29,92.74z M137.71,78.82c2.99,0.92,2.47,2.67,1.92,7.4c-0.56,4.82-1.5,7.54-0.73,8.79
			c0.75-2.78,1.44-5.28,1.75-6.37c0.96-5.65,1.01-10.95-2.51-9.98C137.99,78.69,137.85,78.75,137.71,78.82z"/>
		<path class="st131" d="M127.09,96.21c-0.09,0.11-0.26,0.13-0.37,0.03c-0.11-0.09-0.13-0.26-0.03-0.37
			c1.52-1.83,3.68-1.93,3.69-1.93c0.15-0.01,0.27,0.1,0.28,0.25c0.01,0.15-0.1,0.27-0.25,0.28
			C130.4,94.47,128.46,94.56,127.09,96.21z M132.26,92.31c-0.11,0.09-0.28,0.08-0.37-0.04s-0.08-0.28,0.04-0.37
			c2-1.65,3.02-1.67,3.03-1.67c0.15,0,0.27,0.11,0.27,0.26c0,0.15-0.11,0.27-0.26,0.27C134.97,90.76,134.13,90.78,132.26,92.31z
			 M136.64,88.9c-0.11,0.09-0.28,0.07-0.37-0.04c-0.09-0.11-0.07-0.28,0.04-0.37c2.39-1.88,3.54-1.84,3.54-1.84
			c0.15,0,0.26,0.12,0.26,0.27c0,0.15-0.12,0.26-0.27,0.26C139.83,87.18,138.88,87.13,136.64,88.9z M140.73,102.21
			c-0.04-0.14,0.04-0.29,0.18-0.33c0.14-0.04,0.29,0.04,0.33,0.18c0.19,0.63,0.46,1.13,0.76,1.49c0.34,0.41,0.74,0.67,1.16,0.79
			c0.41,0.12,0.84,0.1,1.25-0.02c0.33-0.1,0.65-0.28,0.93-0.51c0.11-0.09,0.28-0.08,0.37,0.03c0.09,0.11,0.08,0.28-0.03,0.37
			c-0.34,0.28-0.71,0.49-1.11,0.61c-0.5,0.15-1.04,0.17-1.55,0.02c-0.51-0.15-1-0.46-1.41-0.96
			C141.24,103.46,140.94,102.91,140.73,102.21z"/>
	</g>
</g>
</svg>
