<?xml version="1.0" encoding="utf-8"?>
<!-- Generator: Adobe Illustrator 27.8.1, SVG Export Plug-In . SVG Version: 6.00 Build 0)  -->
<svg version="1.1" xmlns="http://www.w3.org/2000/svg" xmlns:xlink="http://www.w3.org/1999/xlink" x="0px" y="0px"
	 viewBox="0 0 350 230.71" style="enable-background:new 0 0 350 230.71;" xml:space="preserve">
<style type="text/css">
	.st0{fill:#3A2C00;}
	.st1{fill:#00003D;}
	.st2{fill:#F2EAC9;}
	.st3{fill:#D9F4CE;}
	.st4{fill:#FCF1C5;}
	.st5{fill:#FFFBEB;}
	.st6{fill:#E6F5FC;}
	.st7{fill:#EFFFE9;}
	.st8{fill:#FFF9E1;}
	.st9{fill:#FFFAE3;}
	.st10{fill:#E9F6FF;}
	.st11{fill:#FFF9E6;}
	.st12{fill:#FFF3C2;}
	.st13{fill:#DEFFFA;}
	.st14{fill:#FEFFE9;}
	.st15{fill:#D6FCD6;}
	.st16{fill:#E6FFE8;}
	.st17{fill:#FCF2D4;}
	.st18{fill:#F9FFE1;}
	.st19{fill:#FFFFE9;}
	.st20{fill:#191919;}
	.st21{fill:#FFFFFF;}
	.st22{fill:#FFCA55;}
	.st23{fill:#006865;}
	.st24{fill:#00AEB7;}
	.st25{fill:#EDC599;}
	.st26{fill:url(#SVGID_1_);}
	.st27{fill:#250B00;}
	.st28{fill:#FFDBD4;}
	.st29{fill:#231F20;}
	.st30{fill:#7F7F7F;}
	.st31{fill:#FFD468;}
	.st32{fill:#303030;}
	.st33{fill:#007D54;}
	.st34{fill:#EE3631;}
	.st35{fill:#2B2B2B;}
	.st36{fill:#FFB000;}
	.st37{opacity:0.35;fill:#FFFFFF;}
	.st38{fill:#E09C05;}
	.st39{fill:#A8112B;}
	.st40{fill:#FCB040;}
	.st41{fill:#3DA1D8;}
	.st42{fill:#0C8EBC;}
	.st43{fill:#EFC6A3;}
	.st44{fill:#B0DFFF;}
	.st45{fill-rule:evenodd;clip-rule:evenodd;fill:#FEFEFE;}
	.st46{fill:#006284;}
	.st47{fill:#5B5B5B;}
	.st48{fill:#EACAB0;}
	.st49{fill:#442B18;}
	.st50{fill:#663412;}
	.st51{fill:#C18B63;}
	.st52{fill:#3A1801;}
	.st53{fill:#616D0B;}
	.st54{fill:#98B11F;}
	.st55{fill:#606060;}
	.st56{fill:#E0E0E0;}
	.st57{fill-rule:evenodd;clip-rule:evenodd;fill:#FFE183;}
	.st58{fill-rule:evenodd;clip-rule:evenodd;fill:#FFA617;}
	.st59{fill:#FF6745;}
	.st60{fill-rule:evenodd;clip-rule:evenodd;fill:#63A642;}
	.st61{fill-rule:evenodd;clip-rule:evenodd;fill:#925056;}
	.st62{fill-rule:evenodd;clip-rule:evenodd;fill:#2C2F38;}
	.st63{fill:#A5A5A5;}
	.st64{fill:#FFEBB8;}
	.st65{fill:#FFA617;}
	.st66{fill:#AF121A;}
	.st67{fill:#C49718;}
	.st68{fill:#FFD961;}
	.st69{fill:#F93B00;}
	.st70{fill:#FFC02E;}
	.st71{fill:#FA6500;}
	.st72{fill:#9BB200;}
	.st73{fill:#FFF7D6;}
	.st74{fill:#3E9AFF;}
	.st75{fill:#3ED698;}
	.st76{fill:#0F935A;}
	.st77{fill:#ED1C24;}
	.st78{fill:#F68712;}
	.st79{fill:#5B0000;}
	.st80{fill-rule:evenodd;clip-rule:evenodd;fill:#FB6218;}
	.st81{fill:#795B4B;}
	.st82{fill:#513D35;}
	.st83{fill:#661F00;}
	.st84{fill:#3F0000;}
	.st85{fill-rule:evenodd;clip-rule:evenodd;fill:#FFFFFF;}
	.st86{fill:#FFC92F;}
	.st87{fill:#3D1109;}
	.st88{fill:#424241;}
	.st89{fill:none;stroke:#FFDE59;stroke-width:4;}
	.st90{fill:#FFDE59;}
	.st91{fill-rule:evenodd;clip-rule:evenodd;fill:#333231;}
	.st92{fill-rule:evenodd;clip-rule:evenodd;}
	.st93{fill:#FF6D00;}
	.st94{fill:#040507;}
	.st95{fill:#4D433A;}
	.st96{fill:#FF8B00;}
	.st97{filter:url(#Adobe_OpacityMaskFilter);}
	.st98{fill-opacity:0.3;}
	.st99{mask:url(#_x35_0ea534a37_00000039117605408314366780000006090329138646347946_);fill:#EBB22F;}
	.st100{fill:#F39200;}
	.st101{fill:#1D1D1B;}
	.st102{fill:#201F1F;}
	.st103{fill:url(#SVGID_00000008851495354427890990000004488064474572932772_);}
	.st104{fill:url(#SVGID_00000093894140014800636330000002430141027727223481_);}
	.st105{fill:url(#SVGID_00000151501963344420766400000001575707144662107831_);}
	.st106{fill:url(#SVGID_00000138544031619761353360000010205718572495274680_);}
	.st107{fill:url(#SVGID_00000118379385610532752740000005108009338401362338_);}
	.st108{fill:url(#SVGID_00000012441715556848101100000002107185792410069690_);}
	.st109{fill:url(#SVGID_00000082336979340105691680000009331285351162488510_);}
	.st110{fill:url(#SVGID_00000136377477116361439820000000727413545265682048_);}
	.st111{fill:url(#SVGID_00000162329840743890111770000013670596086923496347_);}
	.st112{fill:url(#SVGID_00000114766580964937074000000010929644756086491569_);}
	.st113{fill-rule:evenodd;clip-rule:evenodd;fill:url(#SVGID_00000013182042106791720770000010907407685462123672_);}
	.st114{fill:url(#SVGID_00000034069742267059649600000010028701060757426622_);}
	.st115{fill:url(#SVGID_00000088133262943754506300000003421980789491860915_);}
	.st116{fill:url(#SVGID_00000183933355529825576830000000702407788616394150_);}
	.st117{fill:url(#SVGID_00000040569064700248424530000003465058241226349442_);}
	.st118{fill:#F7941D;}
	.st119{fill:url(#SVGID_00000015331642879017494100000012086336840353228164_);}
	.st120{fill:#F2BA58;}
	.st121{fill:#8FD2CA;}
	.st122{fill:#8DC63F;}
	.st123{fill:#EA715E;}
	.st124{fill:url(#SVGID_00000046338177155167749880000005313876535900273565_);}
	.st125{fill:#A97C50;}
	.st126{fill:#F2F2F2;}
	.st127{fill:#096023;}
	.st128{fill:#191919;stroke:#191919;stroke-linecap:round;stroke-linejoin:round;stroke-miterlimit:10;}
	.st129{fill:#F2F2F2;stroke:#F2F2F2;stroke-linecap:round;stroke-linejoin:round;stroke-miterlimit:10;}
	.st130{fill-rule:evenodd;clip-rule:evenodd;fill:#594200;}
	.st131{fill-rule:evenodd;clip-rule:evenodd;fill:#3D1F11;}
	.st132{fill:#AA684B;}
	.st133{fill-rule:evenodd;clip-rule:evenodd;fill:#F2D6AF;}
	.st134{fill-rule:evenodd;clip-rule:evenodd;fill:#A87D46;}
	.st135{fill-rule:evenodd;clip-rule:evenodd;fill:#C10016;}
	.st136{fill-rule:evenodd;clip-rule:evenodd;fill:#8F1610;}
	.st137{fill-rule:evenodd;clip-rule:evenodd;fill:#EBEBEB;}
	.st138{fill-rule:evenodd;clip-rule:evenodd;fill:#D8D8D8;}
	.st139{fill:#530802;}
	.st140{fill:#EBA23C;}
	.st141{fill:#D5781F;}
	.st142{fill:url(#SVGID_00000029012215687866550720000002643799784259949958_);}
	.st143{fill:#972910;}
	.st144{fill:#F5B52F;}
	.st145{fill:#B34418;}
	.st146{fill:url(#SVGID_00000018234447988295720870000014427116685687493296_);}
	.st147{fill:url(#SVGID_00000029730492575303057050000008811243410062303371_);}
	.st148{fill:#764E48;}
	.st149{fill:#BE5D2D;}
	.st150{fill:#F29950;}
	.st151{fill:url(#SVGID_00000082360835025751968890000008199924317676088960_);}
	.st152{fill:#5B2413;}
	.st153{fill:#FEFEFE;}
	.st154{fill:#485359;}
	.st155{fill:#FF9369;}
	.st156{fill:url(#SVGID_00000049199100819011772750000001498078813065183408_);}
	.st157{fill:url(#SVGID_00000100371298281692616120000017355476897009537425_);}
	.st158{fill:url(#SVGID_00000161628042708676099760000003110941492973520820_);}
	.st159{fill:url(#SVGID_00000157287782950475355010000008598932076106073788_);}
	.st160{fill:url(#SVGID_00000148662874585697440900000009404782341670177924_);}
	.st161{fill:#D60980;}
	.st162{fill:url(#SVGID_00000091695096196774531500000003125182559204772232_);}
	.st163{fill-rule:evenodd;clip-rule:evenodd;fill:#CAB863;}
	.st164{fill-rule:evenodd;clip-rule:evenodd;fill:#00648E;}
	.st165{fill:url(#SVGID_00000062880237540193434160000000816119496146386590_);}
	.st166{fill:url(#SVGID_00000047044285619442139690000006001774428702953643_);}
	.st167{fill:url(#SVGID_00000121280281566909355990000005808891527802201245_);}
</style>
<g id="Layer_1">
</g>
<g id="Layer_2">
</g>
<g id="Layer_3">
</g>
<g id="Layer_4">
</g>
<g id="Layer_5">
</g>
<g id="Layer_6">
</g>
<g id="Layer_7">
</g>
<g id="Layer_8">
</g>
<g id="Layer_9">
</g>
<g id="Layer_10">
</g>
<g id="Layer_11">
</g>
<g id="Layer_12">
</g>
<g id="Layer_13">
</g>
<g id="Layer_14">
</g>
<g id="Layer_15">
	<g>
		<g>
			<path class="st20" d="M172.65,213.37c-13.31,0-26.62-2.1-39.56-6.31l0.93-2.85c25.28,8.21,52,8.21,77.27,0l0.93,2.85
				C199.27,211.27,185.96,213.37,172.65,213.37z M210.88,109.03c0.81,0.79-0.55,3.49-3.03,6.05c-2.48,2.55-5.15,3.99-5.96,3.2
				c-0.81-0.79,0.55-3.5,3.03-6.05C207.4,109.67,210.07,108.24,210.88,109.03z M209.91,110c-0.64-0.62-2.75,0.51-4.71,2.53
				c-1.96,2.02-3.04,4.16-2.4,4.78c0.64,0.62,2.75-0.51,4.71-2.53C209.47,112.76,210.55,110.62,209.91,110z M165.12,47.52
				c3.13-0.92,6.65-0.35,9.33,1.5c2.68,1.85,4.46,4.94,4.72,8.19c0.43,5.54-3.33,10.55-7.53,14.19c-5.83,5.06-12.8,8.61-18.98,13.24
				s-11.8,10.81-13.09,18.42c-1.32,7.78,2.22,15.76,7.55,21.6c5.32,5.83,12.27,9.89,19.13,13.8l42.39-8.67
				c-11.69-6.21-19.25-19.47-18.64-32.7c0.34-7.27,2.92-14.32,3.06-21.6c0.13-6.75-1.92-13.53-5.77-19.07
				c-2.45-3.54-5.68-6.62-9.6-8.4C173.76,46.25,169.1,45.89,165.12,47.52 M142.46,126.72c0.18-0.21,0.17-0.52-0.04-0.71
				c-3.48-3.11-6.2-6.98-7.87-11.2c-1.77-4.48-2.34-8.93-1.65-12.87c1.46-8.38,8.27-14.31,13.72-17.82
				c3.36-2.16,7.01-3.99,10.54-5.75c3.38-1.7,6.88-3.45,10.15-5.5c5.21-3.27,9.14-7.03,11.69-11.16c0.03-0.05,0.06-0.12,0.07-0.18
				l0.77-4.56c0.05-0.27-0.14-0.53-0.41-0.58c-0.27-0.04-0.53,0.14-0.58,0.41l-0.76,4.47c-2.44,3.91-6.35,7.63-11.32,10.75
				c-3.22,2.03-6.7,3.77-10.07,5.45c-3.55,1.78-7.23,3.62-10.63,5.81c-5.62,3.61-12.64,9.75-14.17,18.49
				c-0.72,4.12-0.13,8.75,1.71,13.41c1.72,4.36,4.53,8.37,8.13,11.58c0.1,0.08,0.21,0.13,0.33,0.13
				C142.23,126.88,142.36,126.83,142.46,126.72z M140.11,128.58c-0.13,0-0.25-0.05-0.35-0.14c-5.68-5.62-9.34-10.7-11.5-15.99
				c-2.76-6.75-2.87-13.86-0.31-19.52c2.95-6.52,9.44-11.54,19.83-15.36c1.76-0.65,3.57-1.26,5.33-1.85
				c6.14-2.08,12.48-4.22,17.63-8.2c2.55-1.97,5.75-5.21,6.56-9.51c0.67-3.56-0.82-8.15-4.48-9.68c-0.25-0.11-0.38-0.4-0.27-0.65
				c0.11-0.26,0.4-0.38,0.65-0.27c4.13,1.72,5.82,6.84,5.07,10.79c-0.87,4.6-4.25,8.04-6.93,10.12c-5.28,4.08-11.7,6.25-17.92,8.35
				c-1.75,0.59-3.56,1.2-5.3,1.85c-10.12,3.72-16.42,8.58-19.26,14.84c-2.45,5.41-2.33,12.23,0.33,18.73
				c2.11,5.16,5.7,10.14,11.28,15.66c0.2,0.19,0.2,0.51,0,0.71C140.37,128.53,140.24,128.58,140.11,128.58z M145.01,127.71
				c-0.1,0-0.2-0.03-0.29-0.09c-5.37-3.76-9.14-9.61-10.37-16.04s0.15-13.26,3.76-18.73c3.9-5.9,10.13-9.85,15.12-12.64
				c1.52-0.85,3.06-1.66,4.6-2.48c4.18-2.21,8.5-4.5,12.28-7.41c4.78-3.68,8.71-7.38,8.42-15.53c-0.01-0.28,0.21-0.51,0.48-0.52
				c0.25,0.02,0.51,0.21,0.52,0.48c0.3,8.62-3.81,12.51-8.81,16.36c-3.85,2.96-8.21,5.27-12.42,7.5c-1.53,0.81-3.07,1.62-4.58,2.47
				c-4.89,2.73-10.99,6.59-14.77,12.31c-3.47,5.25-4.78,11.81-3.61,17.99c1.17,6.18,4.8,11.8,9.96,15.41
				c0.23,0.16,0.28,0.47,0.12,0.7C145.32,127.64,145.17,127.71,145.01,127.71z M208.37,128.34c-0.1,0-0.19-0.03-0.28-0.08
				c-7.86-5.25-13.76-14.12-16.18-24.34c-1.57-6.62-1.78-13.82-0.62-21.39c0.04-0.27,0.29-0.46,0.57-0.42
				c0.27,0.04,0.46,0.3,0.42,0.57c-1.14,7.45-0.94,14.52,0.61,21.01c2.37,9.98,8.11,18.63,15.77,23.74
				c0.23,0.15,0.29,0.46,0.14,0.69C208.69,128.26,208.53,128.34,208.37,128.34z"/>
			<path class="st126" d="M167.05,132.15c-0.09,0-0.17-0.02-0.25-0.07c-4.5-2.62-9.18-5.6-12.86-9.65
				c-4.06-4.47-6.27-9.7-6.22-14.72c0.04-4.92,2.32-10.17,6.4-14.78c3.25-3.67,7.25-6.64,11.12-9.51l1.24-0.92
				c4.17-3.11,8.5-6.51,11.61-10.83c3.4-4.72,4.83-10.09,3.93-14.74c-0.73-3.77-3.22-7.15-6.5-8.82c-2.16-1.1-4.54-1.17-6.37-1.09
				c-0.27,0.02-0.51-0.2-0.52-0.48s0.2-0.51,0.48-0.52c1.96-0.08,4.5-0.01,6.87,1.2c3.54,1.81,6.24,5.46,7.03,9.52
				c0.96,4.92-0.54,10.58-4.1,15.52c-3.2,4.44-7.6,7.9-11.83,11.05l-1.24,0.92c-3.83,2.84-7.78,5.78-10.96,9.37
				c-3.92,4.43-6.11,9.45-6.15,14.12c-0.04,4.77,2.08,9.75,5.96,14.04c3.59,3.95,8.18,6.88,12.62,9.46
				c0.24,0.14,0.32,0.45,0.18,0.68C167.39,132.06,167.22,132.15,167.05,132.15z M166.52,128c0.17-0.21,0.14-0.53-0.08-0.7
				c-3.59-2.87-6.13-5.47-8-8.18c-2.34-3.4-3.62-7.05-3.7-10.55c-0.15-6.56,3.88-12.33,7.28-16.02c2.13-2.31,4.54-4.44,6.87-6.5
				c2.2-1.94,4.47-3.95,6.53-6.13c4.8-5.07,7.6-10.29,8.32-15.51c0.91-6.6-1.52-12.96-6.19-16.22c-0.23-0.16-0.54-0.1-0.7,0.12
				c-0.16,0.23-0.1,0.54,0.12,0.7c4.36,3.05,6.63,9.04,5.77,15.27c-0.69,5.01-3.4,10.04-8.06,14.96c-2.03,2.14-4.28,4.14-6.46,6.07
				c-2.35,2.08-4.77,4.22-6.94,6.57c-3.53,3.82-7.7,9.82-7.54,16.72c0.08,3.7,1.42,7.53,3.88,11.1c1.93,2.8,4.53,5.47,8.2,8.4
				c0.09,0.07,0.2,0.11,0.31,0.11C166.27,128.19,166.42,128.13,166.52,128z M189.21,128.1c0.12-0.25,0.02-0.55-0.23-0.67
				c-8.32-4.05-13.72-13.32-13.13-22.56c0.4-6.18,3.24-11.98,5.99-17.58c2.87-5.85,5.83-11.89,6.1-18.46
				c0.32-7.74-3.35-15.42-9.57-20.03c-0.22-0.16-0.53-0.12-0.7,0.1c-0.16,0.22-0.12,0.54,0.1,0.7c5.96,4.42,9.47,11.78,9.17,19.19
				c-0.26,6.36-3.18,12.31-6,18.06c-2.79,5.69-5.68,11.58-6.09,17.96c-0.62,9.63,5.01,19.3,13.69,23.52
				c0.07,0.04,0.15,0.05,0.22,0.05C188.94,128.38,189.12,128.28,189.21,128.1z"/>
			<path class="st127" d="M210.7,124.29c0,0.76-0.02,1.51-0.07,2.27c-0.01,0.31-0.04,0.62-0.06,0.93c-0.04,0.44-0.08,0.88-0.14,1.31
				c-0.03,0.31-0.07,0.62-0.12,0.93c-2.05,14.26-12.03,25.96-25.32,30.49c-0.16,1.16-1.15,2.05-2.34,2.05l-9.96-0.01h-0.02
				l-9.92-0.01c-0.66,0-1.25-0.26-1.68-0.69c-0.35-0.35-0.59-0.82-0.66-1.34c-13.27-4.53-23.22-16.19-25.31-30.41
				c-0.05-0.32-0.09-0.65-0.13-0.98c-0.06-0.5-0.11-1-0.15-1.51c-0.03-0.3-0.05-0.6-0.06-0.9c-0.05-0.73-0.07-1.46-0.07-2.2
				L210.7,124.29z"/>
			<path class="st126" d="M210.71,125.28C210.71,125.28,210.71,125.28,210.71,125.28l-76.01-0.07c-0.55,0-1-0.45-1-1
				c0-0.55,0.45-1,1-1c0,0,0,0,0,0l76.01,0.07c0.55,0,1,0.45,1,1C211.71,124.84,211.26,125.28,210.71,125.28z M209.57,126.96
				c-0.42,0.21-0.78,0.39-1.56,0.39c-0.77,0-1.14-0.18-1.56-0.39c-0.45-0.23-0.97-0.49-1.95-0.49c-0.98,0-1.5,0.26-1.96,0.49
				c-0.42,0.21-0.78,0.39-1.56,0.39c-0.77,0-1.14-0.19-1.55-0.4c-0.46-0.23-0.97-0.49-1.95-0.49c-0.98,0-1.5,0.26-1.95,0.49
				c-0.42,0.21-0.79,0.4-1.56,0.39c-0.78,0-1.14-0.18-1.56-0.39c-0.45-0.23-0.97-0.49-1.95-0.49c-0.98,0-1.5,0.26-1.95,0.49
				c-0.42,0.21-0.79,0.39-1.56,0.39c-0.77,0-1.14-0.19-1.56-0.4c-0.45-0.23-0.97-0.49-1.95-0.49c-0.98,0-1.5,0.26-1.95,0.49
				c-0.42,0.21-0.79,0.4-1.56,0.39c-0.77,0-1.13-0.18-1.55-0.4c-0.46-0.23-0.97-0.49-1.95-0.49c-0.98,0-1.5,0.26-1.95,0.49
				c-0.42,0.21-0.79,0.39-1.56,0.39c-0.77,0-1.14-0.19-1.55-0.4c-0.46-0.23-0.97-0.49-1.95-0.49c-0.98,0-1.5,0.26-1.95,0.49
				c-0.42,0.21-0.78,0.4-1.56,0.39c-0.77,0-1.13-0.18-1.55-0.39c-0.46-0.23-0.97-0.49-1.95-0.49c-0.98,0-1.5,0.26-1.95,0.49
				c-0.42,0.21-0.78,0.39-1.56,0.39c-0.77,0-1.13-0.19-1.55-0.4c-0.46-0.23-0.97-0.49-1.95-0.49c-0.98,0-1.5,0.26-1.95,0.49
				c-0.42,0.22-0.79,0.4-1.56,0.39c-0.77,0-1.14-0.18-1.55-0.4c-0.46-0.23-0.97-0.49-1.95-0.49c-0.98,0-1.5,0.26-1.95,0.49
				c-0.42,0.21-0.78,0.39-1.56,0.39c-0.77,0-1.13-0.19-1.55-0.4c-0.45-0.23-0.97-0.49-1.95-0.49c-0.98,0-1.5,0.26-1.95,0.49
				c-0.42,0.22-0.79,0.4-1.56,0.39c-0.77,0-1.13-0.18-1.55-0.4c-0.39-0.2-0.82-0.42-1.55-0.48c0.02,0.3,0.04,0.6,0.06,0.9
				c0.47,0.06,0.77,0.21,1.09,0.37c0.46,0.23,0.97,0.49,1.95,0.49c0.98,0,1.5-0.26,1.95-0.49c0.42-0.21,0.78-0.39,1.55-0.39
				c0.77,0,1.14,0.18,1.56,0.39c0.45,0.23,0.97,0.49,1.95,0.49c0.98,0,1.5-0.26,1.95-0.49c0.42-0.21,0.78-0.4,1.56-0.39
				c0.77,0,1.13,0.18,1.55,0.4c0.46,0.23,0.97,0.49,1.95,0.49c0.98,0,1.5-0.26,1.95-0.49c0.42-0.21,0.79-0.39,1.56-0.39
				c0.77,0,1.14,0.19,1.55,0.4c0.46,0.23,0.97,0.49,1.95,0.49c0.98,0,1.5-0.26,1.95-0.49c0.42-0.22,0.78-0.4,1.56-0.39
				c0.77,0,1.13,0.18,1.55,0.39c0.46,0.23,0.97,0.49,1.95,0.49c0.98,0,1.5-0.26,1.95-0.49c0.42-0.21,0.78-0.39,1.56-0.39
				c0.77,0,1.13,0.19,1.55,0.4c0.46,0.23,0.97,0.49,1.95,0.49c0.99,0,1.5-0.26,1.96-0.49c0.42-0.21,0.79-0.4,1.56-0.39
				c0.77,0,1.13,0.18,1.55,0.4c0.46,0.23,0.97,0.49,1.95,0.49c0.98,0,1.5-0.26,1.95-0.49c0.42-0.21,0.78-0.39,1.55-0.39
				c0.78,0,1.14,0.19,1.56,0.4c0.46,0.23,0.97,0.49,1.95,0.49c0.98,0,1.5-0.26,1.95-0.49c0.42-0.21,0.79-0.4,1.56-0.39
				c0.77,0,1.14,0.18,1.56,0.39c0.45,0.23,0.97,0.49,1.95,0.49c0.98,0,1.5-0.26,1.95-0.49c0.42-0.21,0.79-0.39,1.56-0.39
				c0.78,0,1.14,0.19,1.56,0.4c0.46,0.23,0.97,0.49,1.95,0.49c0.98,0,1.5-0.26,1.95-0.49c0.42-0.21,0.79-0.4,1.56-0.39
				c0.78,0,1.14,0.19,1.56,0.39c0.46,0.23,0.97,0.49,1.96,0.49c0.33,0,0.61-0.03,0.86-0.08c0.47-0.09,0.8-0.25,1.09-0.4
				c0.2-0.1,0.38-0.19,0.6-0.26c0.03-0.31,0.05-0.62,0.07-0.93C210.18,126.65,209.87,126.81,209.57,126.96z M210.44,128.8
				c-0.04,0.31-0.07,0.61-0.12,0.92c-0.32,0.07-0.56,0.18-0.81,0.31c-0.3,0.15-0.63,0.32-1.09,0.41c-0.25,0.05-0.52,0.08-0.86,0.08
				c-0.98,0-1.5-0.26-1.95-0.49c-0.42-0.21-0.78-0.4-1.55-0.39c-0.78,0-1.14,0.18-1.56,0.39c-0.46,0.23-0.97,0.49-1.96,0.49
				c-0.98,0-1.5-0.26-1.95-0.49c-0.42-0.21-0.79-0.4-1.56-0.4c-0.77,0-1.13,0.18-1.56,0.39c-0.45,0.23-0.97,0.49-1.95,0.49
				c-0.98,0-1.5-0.26-1.95-0.49c-0.42-0.21-0.78-0.4-1.55-0.4c-0.78,0-1.14,0.18-1.56,0.39c-0.45,0.23-0.97,0.49-1.95,0.49
				c-0.98,0-1.5-0.26-1.95-0.49c-0.42-0.21-0.78-0.39-1.55-0.39s-1.13,0.18-1.56,0.39c-0.45,0.23-0.97,0.49-1.95,0.49
				c-0.98,0-1.5-0.26-1.95-0.49c-0.42-0.21-0.78-0.4-1.56-0.39c-0.77,0-1.14,0.18-1.56,0.39c-0.45,0.23-0.97,0.49-1.95,0.49
				c-0.98,0-1.5-0.26-1.95-0.49c-0.42-0.21-0.78-0.39-1.56-0.39c-0.77,0-1.13,0.18-1.56,0.39c-0.45,0.23-0.97,0.49-1.95,0.49
				c-0.98,0-1.49-0.26-1.95-0.49c-0.42-0.21-0.78-0.4-1.56-0.39c-0.77,0-1.14,0.18-1.55,0.39c-0.46,0.23-0.97,0.49-1.96,0.49
				c-0.98,0-1.49-0.26-1.95-0.49c-0.42-0.21-0.78-0.39-1.55-0.39c-0.78,0-1.13,0.18-1.56,0.39c-0.45,0.23-0.97,0.49-1.95,0.49
				c-0.98,0-1.5-0.26-1.95-0.49c-0.42-0.21-0.79-0.4-1.56-0.39c-0.77,0-1.14,0.18-1.55,0.39c-0.46,0.23-0.97,0.49-1.96,0.49
				c-0.98,0-1.49-0.26-1.95-0.49c-0.42-0.21-0.78-0.39-1.55-0.4c-0.77,0-1.13,0.18-1.56,0.39c-0.45,0.23-0.97,0.49-1.95,0.49
				c-0.98,0-1.49-0.26-1.95-0.49c-0.12-0.06-0.23-0.11-0.34-0.17c-0.05-0.32-0.09-0.65-0.13-0.98c0.35,0.1,0.62,0.23,0.87,0.36
				c0.42,0.21,0.78,0.39,1.55,0.4c0.77,0,1.13-0.18,1.55-0.39c0.46-0.23,0.97-0.49,1.96-0.49c0.98,0,1.49,0.26,1.95,0.49
				c0.42,0.21,0.78,0.4,1.55,0.4c0.77,0,1.14-0.18,1.56-0.39c0.45-0.23,0.97-0.49,1.95-0.49c0.98,0,1.49,0.26,1.95,0.49
				c0.42,0.21,0.78,0.39,1.55,0.39c0.78,0,1.13-0.18,1.56-0.39c0.45-0.23,0.97-0.49,1.95-0.49c0.98,0,1.5,0.26,1.95,0.49
				c0.42,0.21,0.78,0.4,1.55,0.4c0.77,0,1.13-0.18,1.56-0.39c0.45-0.23,0.97-0.49,1.95-0.49c0.98,0,1.5,0.26,1.95,0.49
				c0.42,0.21,0.78,0.39,1.56,0.39c0.77,0,1.13-0.18,1.56-0.39c0.45-0.23,0.97-0.49,1.95-0.49c0.98,0,1.5,0.26,1.95,0.49
				c0.42,0.21,0.78,0.4,1.56,0.39c0.77,0,1.14-0.18,1.55-0.39c0.46-0.23,0.97-0.49,1.96-0.49c0.98,0,1.5,0.26,1.95,0.49
				c0.42,0.21,0.78,0.39,1.56,0.39c0.77,0,1.13-0.18,1.55-0.39c0.46-0.23,0.97-0.49,1.96-0.49c0.98,0,1.49,0.26,1.95,0.49
				c0.42,0.21,0.78,0.4,1.55,0.39c0.78,0,1.14-0.18,1.56-0.39c0.45-0.23,0.97-0.49,1.95-0.49c0.98,0,1.5,0.26,1.95,0.49
				c0.42,0.21,0.78,0.39,1.55,0.4c0.78,0,1.13-0.18,1.56-0.39c0.46-0.23,0.97-0.49,1.96-0.49c0.98,0,1.49,0.26,1.95,0.49
				c0.42,0.21,0.78,0.4,1.56,0.4c0.77,0,1.13-0.18,1.56-0.39c0.45-0.23,0.97-0.49,1.95-0.49c0.98,0,1.5,0.26,1.95,0.49
				c0.42,0.21,0.78,0.4,1.56,0.39c0.77,0,1.14-0.18,1.56-0.39C209.45,129.07,209.84,128.88,210.44,128.8z"/>
			<path class="st20" d="M163.08,59.65c-1.64-2.08-3.85-3.88-6.31-4.86c1.71-3.49,4.92-6.22,8.63-7.36
				C162.67,51,161.92,55.3,163.08,59.65z M146.65,67.97c0.19,0.47,0.36,0.94,0.53,1.43c0.61,1.72,1.26,3.49,2.54,4.84
				c1.77,1.87,4.59,2.68,7.08,2.03c1.63-0.42,3.12-1.48,4.12-2.82c0.58-0.77,1.06-1.71,1.25-2.66c0.12-0.65,0.07-1.35-0.29-1.91
				c-0.37-0.58-1.01-0.92-1.67-1.12c-0.87-0.27-1.79-0.32-2.62-0.69c-1.77-0.78-3.14-2.17-4.43-3.57c-1.28-1.4-2.58-2.98-4.33-3.81
				c-0.57-0.27-1.19-0.46-1.82-0.53c-1.19-0.14-2.86-0.11-3.7,0.89c-0.54,0.64-0.45,1.51-0.16,2.24c0.07,0.19,0.17,0.38,0.27,0.55
				c0.37,0.63,0.88,1.16,1.33,1.73C145.6,65.62,146.17,66.76,146.65,67.97z"/>
			<path class="st126" d="M148.94,65.87c-0.16-0.41-0.16-0.82,0.23-1.1c0.32-0.23,0.75-0.25,1.13-0.15s0.71,0.32,1.03,0.55
				c0.5,0.34,0.98,0.71,1.45,1.09c0.59,0.48,1.17,1.01,1.5,1.7c0.33,0.69,0.36,1.57-0.12,2.16c-0.43,0.55-1.22,0.74-1.9,0.59
				c-0.68-0.16-1.26-0.62-1.68-1.18c-0.41-0.55-0.71-1.19-0.97-1.85C149.38,67.07,149.18,66.45,148.94,65.87z"/>
			<path class="st128" d="M133.12,83.45c-2.91-2.83-6-4.38-6.9-3.46c-0.9,0.92,0.74,3.97,3.65,6.8c2.92,2.84,6,4.38,6.9,3.46
				C137.67,89.33,136.03,86.28,133.12,83.45z M130.21,86.4c-2.3-2.24-3.59-4.65-2.89-5.38c0.71-0.73,3.15,0.5,5.45,2.74
				c2.3,2.24,3.6,4.65,2.89,5.38C134.95,89.87,132.51,88.64,130.21,86.4z"/>
			<path class="st129" d="M166.88,106.03c3.46-2.45,5.64-5.33,4.87-6.43c-0.78-1.1-4.22,0-7.68,2.46c-3.47,2.45-5.64,5.33-4.87,6.43
				C159.98,109.58,163.42,108.48,166.88,106.03z M164.4,102.48c2.74-1.94,5.46-2.81,6.07-1.94c0.61,0.87-1.11,3.14-3.85,5.08
				c-2.74,1.94-5.46,2.81-6.07,1.94C159.94,106.69,161.66,104.42,164.4,102.48z"/>
			<path class="st129" d="M184.83,81.45c2.1,2.17,4.37,3.4,5.06,2.73c0.69-0.67-0.46-2.97-2.56-5.15c-2.11-2.18-4.37-3.4-5.06-2.73
				C181.58,76.97,182.73,79.27,184.83,81.45z M187.07,79.32c1.66,1.72,2.57,3.54,2.03,4.07c-0.55,0.53-2.33-0.44-4-2.16
				c-1.66-1.72-2.57-3.54-2.03-4.07C183.61,76.63,185.4,77.6,187.07,79.32z"/>
			<path class="st20" d="M125.03,101.33c-0.12-0.28-0.3-0.52-0.53-0.72c-0.05-0.04-0.1-0.08-0.16-0.12
				c-0.05-0.03-0.09-0.06-0.14-0.08c-0.34-0.22-0.75-0.36-1.21-0.41c-0.8-0.09-1.7,0.07-2.56,0.45c-2.02,0.88-3.08,2.59-2.47,3.98
				c0.13,0.3,0.35,0.54,0.62,0.74c0.02,0.01,0.03,0.03,0.05,0.04c0.01,0.01,0.01,0.02,0.02,0.03l0.21,0.15
				c0.32,0.19,0.71,0.31,1.14,0.36c0.14,0.02,0.29,0.02,0.43,0.02c0.19,0,0.38-0.01,0.58-0.04c0.41-0.05,0.84-0.15,1.26-0.32
				l-0.99-0.73c0.29-0.07,0.58-0.16,0.88-0.29c0.91-0.4,1.59-1.03,1.88-1.64l0.82,0.6c0.18-0.33,0.29-0.67,0.32-1
				C125.22,102,125.17,101.65,125.03,101.33z M123.2,102.13c0.02,0.17-0.36,0.86-1.45,1.34c-0.67,0.29-1.22,0.33-1.56,0.3
				c-0.22-0.03-0.36-0.1-0.4-0.14c-0.03-0.16,0.34-0.87,1.44-1.35c0.53-0.23,0.98-0.3,1.32-0.3c0.08,0,0.15,0,0.21,0.01
				C123,102.01,123.15,102.07,123.2,102.13z M124.11,101.73c-0.05-0.12-0.13-0.23-0.23-0.33c-0.04-0.03-0.08-0.07-0.13-0.1
				c-0.31-0.23-0.77-0.34-1.3-0.32c-0.5,0.02-1.06,0.14-1.62,0.38c-1.18,0.52-1.97,1.4-2.03,2.16c-0.02,0.18,0,0.34,0.07,0.5
				c0.1,0.23,0.29,0.41,0.53,0.53c0.46,0.25,1.15,0.29,1.88,0.13c0.29-0.07,0.58-0.16,0.88-0.29c0.91-0.4,1.59-1.03,1.88-1.64
				C124.21,102.39,124.25,102.04,124.11,101.73z M120.19,103.77c-0.22-0.03-0.36-0.1-0.4-0.14c-0.03-0.16,0.34-0.87,1.44-1.35
				c0.53-0.23,0.98-0.3,1.32-0.3c0.08,0,0.15,0,0.21,0.01c0.24,0.02,0.39,0.08,0.44,0.14c0.02,0.17-0.36,0.86-1.45,1.34
				C121.08,103.76,120.53,103.8,120.19,103.77z M123.74,102.53l-2.77,1.92l0.31,0.23c0.29-0.07,0.58-0.16,0.88-0.29
				c0.91-0.4,1.59-1.03,1.88-1.64L123.74,102.53z M130.39,106.25c-0.15-0.95-0.65-1.79-1.43-2.36l-4.46-3.28
				c-0.05-0.04-0.1-0.08-0.16-0.12c-0.05-0.03-0.09-0.06-0.14-0.08c-0.32-0.16-0.71-0.14-1.02,0.07l-0.73,0.5l-3.65,2.54l-0.13,0.09
				c-0.26,0.18-0.42,0.48-0.43,0.81c0,0.29,0.12,0.56,0.34,0.75c0.02,0.03,0.05,0.05,0.07,0.07l0.21,0.15l5.84,4.3
				c0.64,0.47,1.39,0.69,2.13,0.69c1.1,0,2.2-0.5,2.9-1.46C130.3,108.15,130.53,107.2,130.39,106.25z M121.23,102.28
				c0.53-0.23,0.98-0.3,1.32-0.3c0.08,0,0.15,0,0.21,0.01c0.24,0.02,0.39,0.08,0.44,0.14c0.02,0.17-0.36,0.86-1.45,1.34
				c-0.67,0.29-1.22,0.33-1.56,0.3c-0.22-0.03-0.36-0.1-0.4-0.14C119.76,103.47,120.13,102.76,121.23,102.28z M128.92,108.33
				c-0.5,0.69-1.29,1.05-2.09,1.05c-0.53,0-1.07-0.16-1.53-0.5l-4.29-3.15c0.41-0.05,0.84-0.15,1.26-0.32l-0.99-0.73
				c0.29-0.07,0.58-0.16,0.88-0.29c0.91-0.4,1.59-1.03,1.88-1.64l0.82,0.6c0.18-0.33,0.29-0.67,0.32-1l3.19,2.35
				C129.53,105.55,129.77,107.17,128.92,108.33z M123.88,101.4c-0.04-0.03-0.08-0.07-0.13-0.1l-0.99,0.69
				c0.24,0.02,0.39,0.08,0.44,0.14c0.02,0.17-0.36,0.86-1.45,1.34c-0.67,0.29-1.22,0.33-1.56,0.3l-0.95,0.66l0.16,0.12l1.61,1.18
				c0.41-0.05,0.84-0.15,1.26-0.32l-0.99-0.73c0.29-0.07,0.58-0.16,0.88-0.29c0.91-0.4,1.59-1.03,1.88-1.64l0.82,0.6
				c0.18-0.33,0.29-0.67,0.32-1L123.88,101.4z M128.92,108.33c-0.5,0.69-1.29,1.05-2.09,1.05c-0.53,0-1.07-0.16-1.53-0.5l-4.29-3.15
				c0.41-0.05,0.84-0.15,1.26-0.32l-0.99-0.73c0.29-0.07,0.58-0.16,0.88-0.29c0.91-0.4,1.59-1.03,1.88-1.64l0.82,0.6
				c0.18-0.33,0.29-0.67,0.32-1l3.19,2.35C129.53,105.55,129.77,107.17,128.92,108.33z M200.58,92.48c0.03,0.33,0.14,0.67,0.32,1
				l0.82-0.6c0.29,0.61,0.97,1.24,1.88,1.64c0.3,0.13,0.59,0.22,0.88,0.29l-0.99,0.73c0.42,0.17,0.85,0.27,1.26,0.32
				c0.2,0.03,0.39,0.04,0.58,0.04c0.14,0,0.29,0,0.43-0.02c0.43-0.05,0.82-0.17,1.14-0.36l0.21-0.15c0.01-0.01,0.01-0.02,0.02-0.03
				c0.02-0.01,0.03-0.03,0.05-0.04c0.27-0.2,0.49-0.44,0.62-0.74c0.61-1.39-0.45-3.1-2.47-3.98c-0.86-0.38-1.76-0.54-2.56-0.45
				c-0.46,0.05-0.87,0.19-1.21,0.41c-0.05,0.02-0.09,0.05-0.14,0.08c-0.06,0.04-0.11,0.08-0.16,0.12c-0.23,0.2-0.41,0.44-0.53,0.72
				C200.59,91.78,200.54,92.13,200.58,92.48z M203,92.12c0.06-0.01,0.13-0.01,0.21-0.01c0.34,0,0.79,0.07,1.32,0.3
				c1.1,0.48,1.47,1.19,1.44,1.35c-0.04,0.04-0.18,0.11-0.4,0.14c-0.34,0.03-0.89-0.01-1.56-0.3c-1.09-0.48-1.47-1.17-1.45-1.34
				C202.61,92.2,202.76,92.14,203,92.12z M201.72,92.88c0.29,0.61,0.97,1.24,1.88,1.64c0.3,0.13,0.59,0.22,0.88,0.29
				c0.73,0.16,1.42,0.12,1.88-0.13c0.24-0.12,0.43-0.3,0.53-0.53c0.07-0.16,0.09-0.32,0.07-0.5c-0.06-0.76-0.85-1.64-2.03-2.16
				c-0.56-0.24-1.12-0.36-1.62-0.38c-0.53-0.02-0.99,0.09-1.3,0.32c-0.05,0.03-0.09,0.07-0.13,0.1c-0.1,0.1-0.18,0.21-0.23,0.33
				C201.51,92.17,201.55,92.52,201.72,92.88z M204.01,93.6c-1.09-0.48-1.47-1.17-1.45-1.34c0.05-0.06,0.2-0.12,0.44-0.14
				c0.06-0.01,0.13-0.01,0.21-0.01c0.34,0,0.79,0.07,1.32,0.3c1.1,0.48,1.47,1.19,1.44,1.35c-0.04,0.04-0.18,0.11-0.4,0.14
				C205.23,93.93,204.68,93.89,204.01,93.6z M201.72,92.88c0.29,0.61,0.97,1.24,1.88,1.64c0.3,0.13,0.59,0.22,0.88,0.29l0.31-0.23
				l-2.77-1.92L201.72,92.88z M196.03,99.05c0.7,0.96,1.8,1.46,2.9,1.46c0.74,0,1.49-0.22,2.13-0.69l5.84-4.3l0.21-0.15
				c0.02-0.02,0.05-0.04,0.07-0.07c0.22-0.19,0.34-0.46,0.34-0.75c-0.01-0.33-0.17-0.63-0.43-0.81l-0.13-0.09l-3.65-2.54l-0.73-0.5
				c-0.31-0.21-0.7-0.23-1.02-0.07c-0.05,0.02-0.09,0.05-0.14,0.08c-0.06,0.04-0.11,0.08-0.16,0.12l-4.46,3.28
				c-0.78,0.57-1.28,1.41-1.43,2.36C195.23,97.33,195.46,98.28,196.03,99.05z M205.97,93.76c-0.04,0.04-0.18,0.11-0.4,0.14
				c-0.34,0.03-0.89-0.01-1.56-0.3c-1.09-0.48-1.47-1.17-1.45-1.34c0.05-0.06,0.2-0.12,0.44-0.14c0.06-0.01,0.13-0.01,0.21-0.01
				c0.34,0,0.79,0.07,1.32,0.3C205.63,92.89,206,93.6,205.97,93.76z M197.39,94.83l3.19-2.35c0.03,0.33,0.14,0.67,0.32,1l0.82-0.6
				c0.29,0.61,0.97,1.24,1.88,1.64c0.3,0.13,0.59,0.22,0.88,0.29l-0.99,0.73c0.42,0.17,0.85,0.27,1.26,0.32l-4.29,3.15
				c-0.46,0.34-1,0.5-1.53,0.5c-0.8,0-1.59-0.36-2.09-1.05C195.99,97.3,196.23,95.68,197.39,94.83z M200.58,92.48
				c0.03,0.33,0.14,0.67,0.32,1l0.82-0.6c0.29,0.61,0.97,1.24,1.88,1.64c0.3,0.13,0.59,0.22,0.88,0.29l-0.99,0.73
				c0.42,0.17,0.85,0.27,1.26,0.32l1.61-1.18l0.16-0.12l-0.95-0.66c-0.34,0.03-0.89-0.01-1.56-0.3c-1.09-0.48-1.47-1.17-1.45-1.34
				c0.05-0.06,0.2-0.12,0.44-0.14l-0.99-0.69c-0.05,0.03-0.09,0.07-0.13,0.1L200.58,92.48z M197.39,94.83l3.19-2.35
				c0.03,0.33,0.14,0.67,0.32,1l0.82-0.6c0.29,0.61,0.97,1.24,1.88,1.64c0.3,0.13,0.59,0.22,0.88,0.29l-0.99,0.73
				c0.42,0.17,0.85,0.27,1.26,0.32l-4.29,3.15c-0.46,0.34-1,0.5-1.53,0.5c-0.8,0-1.59-0.36-2.09-1.05
				C195.99,97.3,196.23,95.68,197.39,94.83z"/>
			<path class="st126" d="M144.87,113.09C144.87,113.1,144.87,113.1,144.87,113.09c0,0.01-0.01,0.01-0.01,0.01c0,0,0,0-0.01,0.01
				c0,0,0,0-0.01,0.01c0,0,0,0-0.01,0c0,0,0,0-0.01,0c-1.09,0.25-1.01,1.2-0.98,1.7c0,0.05,0.01,0.09,0.01,0.13
				c0,0.02-0.02,0.04-0.04,0.05c0,0,0,0,0,0c0,0,0,0,0,0c-0.02,0-0.04-0.01-0.05-0.03c-0.01-0.04-0.02-0.08-0.03-0.13
				c-0.11-0.5-0.33-1.42-1.44-1.34c0,0,0,0-0.01,0c0,0-0.01,0-0.01,0c0,0-0.01,0-0.01,0c0,0,0,0-0.01,0c0,0,0,0-0.01-0.01
				c0,0,0,0,0-0.01c0,0,0-0.01,0-0.01c0,0,0,0,0-0.01c0,0,0,0,0,0c0,0,0,0,0,0c0,0,0,0,0-0.01c0,0,0-0.01,0-0.01c0,0,0,0,0-0.01
				c0,0,0-0.01,0-0.01c0,0,0,0,0.01-0.01c0,0,0,0,0.01-0.01c0,0,0,0,0.01,0c0,0,0,0,0.01,0c1.09-0.25,1.01-1.2,0.98-1.7
				c0-0.05-0.01-0.09-0.01-0.13c0-0.02,0.01-0.04,0.04-0.05c0,0,0,0,0,0c0,0,0,0,0,0c0,0,0,0,0,0c0,0,0,0,0,0
				c0.02,0,0.04,0.01,0.05,0.03c0.01,0.04,0.02,0.08,0.03,0.13c0.11,0.5,0.33,1.42,1.44,1.34c0,0,0,0,0.01,0c0,0,0.01,0,0.01,0
				c0,0,0.01,0,0.01,0c0,0,0,0,0.01,0c0,0,0,0,0.01,0.01c0,0,0,0,0,0.01c0,0,0,0.01,0,0.01c0,0,0,0,0,0.01c0,0,0,0,0,0c0,0,0,0,0,0
				C144.87,113.08,144.87,113.08,144.87,113.09C144.87,113.09,144.87,113.09,144.87,113.09z M187.65,119.44
				C187.65,119.44,187.65,119.44,187.65,119.44C187.65,119.43,187.65,119.43,187.65,119.44c0-0.01,0-0.01,0-0.01c0,0,0,0,0-0.01
				c0,0,0-0.01,0-0.01c0,0,0,0,0-0.01c0,0,0,0-0.01-0.01c0,0,0,0-0.01,0c0,0-0.01,0-0.01,0c0,0-0.01,0-0.01,0c0,0,0,0-0.01,0
				c-1.11,0.08-1.33-0.84-1.44-1.34c-0.01-0.05-0.02-0.09-0.03-0.13c-0.01-0.02-0.03-0.04-0.05-0.03c0,0,0,0,0,0c0,0,0,0,0,0
				c0,0,0,0,0,0c0,0,0,0,0,0c-0.02,0-0.04,0.02-0.04,0.05c0,0.04,0.01,0.08,0.01,0.13c0.04,0.51,0.11,1.45-0.98,1.7c0,0,0,0-0.01,0
				c0,0,0,0-0.01,0c0,0,0,0-0.01,0.01c0,0,0,0-0.01,0.01c0,0,0,0.01,0,0.01c0,0,0,0,0,0.01c0,0,0,0.01,0,0.01c0,0,0,0,0,0.01
				c0,0,0,0,0,0c0,0,0,0,0,0c0,0,0,0,0,0.01c0,0,0,0.01,0,0.01c0,0,0,0,0,0.01c0,0,0,0,0.01,0.01c0,0,0,0,0.01,0c0,0,0.01,0,0.01,0
				c0,0,0.01,0,0.01,0c0,0,0,0,0.01,0c1.11-0.08,1.33,0.84,1.44,1.34c0.01,0.05,0.02,0.09,0.03,0.13c0.01,0.02,0.03,0.04,0.05,0.03
				c0,0,0,0,0,0c0,0,0,0,0,0c0.02,0,0.04-0.02,0.04-0.05c0-0.04-0.01-0.08-0.01-0.13c-0.04-0.51-0.11-1.45,0.98-1.7c0,0,0,0,0.01,0
				c0,0,0,0,0.01,0c0,0,0,0,0.01-0.01c0,0,0,0,0.01-0.01c0,0,0-0.01,0-0.01C187.65,119.45,187.65,119.45,187.65,119.44
				C187.65,119.45,187.65,119.44,187.65,119.44z M146.52,107.02C146.52,107.02,146.52,107.02,146.52,107.02
				C146.52,107.02,146.52,107.02,146.52,107.02C146.52,107.02,146.52,107.02,146.52,107.02
				C146.52,107.02,146.52,107.02,146.52,107.02c0-0.01,0-0.01,0-0.01c0,0,0,0,0,0c0,0,0,0,0,0c0,0,0,0,0,0c0,0,0,0,0,0c0,0,0,0,0,0
				c0,0,0,0,0,0c-0.67,0.05-0.8-0.51-0.87-0.8c-0.01-0.03-0.01-0.05-0.02-0.08c0-0.01-0.02-0.02-0.03-0.02c0,0,0,0,0,0c0,0,0,0,0,0
				c0,0,0,0,0,0c0,0,0,0,0,0c-0.01,0-0.02,0.01-0.02,0.03c0,0.02,0,0.05,0.01,0.08c0.02,0.31,0.07,0.87-0.59,1.03c0,0,0,0,0,0
				c0,0,0,0,0,0c0,0,0,0,0,0c0,0,0,0,0,0c0,0,0,0,0,0c0,0,0,0,0,0c0,0,0,0,0,0.01c0,0,0,0,0,0c0,0,0,0,0,0c0,0,0,0,0,0c0,0,0,0,0,0
				c0,0,0,0,0,0c0,0,0,0,0,0c0,0,0,0,0,0c0,0,0,0,0,0c0,0,0,0,0,0c0,0,0,0,0,0c0,0,0,0,0,0c0.67-0.05,0.8,0.51,0.87,0.8
				c0.01,0.03,0.01,0.05,0.02,0.08c0,0.01,0.02,0.02,0.03,0.02c0,0,0,0,0,0c0,0,0,0,0,0c0.01,0,0.02-0.01,0.02-0.03
				c0-0.02,0-0.05-0.01-0.08c-0.02-0.31-0.07-0.87,0.59-1.03c0,0,0,0,0,0c0,0,0,0,0,0c0,0,0,0,0,0c0,0,0,0,0,0
				C146.52,107.04,146.52,107.04,146.52,107.02C146.52,107.03,146.52,107.03,146.52,107.02
				C146.52,107.03,146.52,107.03,146.52,107.02z M191.7,114.46C191.7,114.46,191.7,114.46,191.7,114.46
				C191.7,114.46,191.7,114.46,191.7,114.46C191.7,114.46,191.7,114.46,191.7,114.46C191.69,114.45,191.69,114.45,191.7,114.46
				c0-0.01,0-0.01,0-0.01c0,0,0,0,0,0c0,0,0,0,0,0c0,0,0,0,0,0c0,0,0,0,0,0c0,0,0,0,0,0c0,0,0,0,0,0c-0.67,0.05-0.8-0.51-0.87-0.8
				c-0.01-0.03-0.01-0.05-0.02-0.08c0-0.01-0.02-0.02-0.03-0.02c0,0,0,0,0,0c0,0,0,0,0,0c0,0,0,0,0,0c0,0,0,0,0,0
				c-0.01,0-0.02,0.01-0.02,0.03c0,0.02,0,0.05,0.01,0.08c0.02,0.31,0.07,0.87-0.59,1.03c0,0,0,0,0,0c0,0,0,0,0,0c0,0,0,0,0,0
				c0,0,0,0,0,0c0,0,0,0,0,0c0,0,0,0,0,0c0,0,0,0,0,0.01c0,0,0,0,0,0c0,0,0,0,0,0c0,0,0,0,0,0c0,0,0,0,0,0c0,0,0,0,0,0c0,0,0,0,0,0
				c0,0,0,0,0,0c0,0,0,0,0,0c0,0,0,0,0,0c0,0,0,0,0,0c0,0,0,0,0,0c0.67-0.05,0.8,0.51,0.87,0.8c0.01,0.03,0.01,0.05,0.02,0.08
				c0,0.01,0.02,0.02,0.03,0.02c0,0,0,0,0,0c0,0,0,0,0,0c0.01,0,0.02-0.01,0.02-0.03c0-0.02,0-0.05-0.01-0.08
				c-0.02-0.31-0.07-0.87,0.59-1.03c0,0,0,0,0,0c0,0,0,0,0,0c0,0,0,0,0,0c0,0,0,0,0,0C191.69,114.47,191.69,114.47,191.7,114.46
				C191.69,114.47,191.69,114.47,191.7,114.46C191.7,114.46,191.69,114.46,191.7,114.46z M184.73,112.51
				C184.73,112.51,184.73,112.51,184.73,112.51C184.73,112.51,184.73,112.51,184.73,112.51
				C184.73,112.51,184.73,112.51,184.73,112.51C184.73,112.5,184.73,112.5,184.73,112.51c0-0.01,0-0.01,0-0.01c0,0,0,0,0,0
				c0,0,0,0,0,0c0,0,0,0,0,0c0,0,0,0,0,0c0,0,0,0,0,0c0,0,0,0,0,0c-0.67,0.05-0.8-0.51-0.87-0.8c-0.01-0.03-0.01-0.05-0.02-0.08
				c0-0.01-0.02-0.02-0.03-0.02c0,0,0,0,0,0c0,0,0,0,0,0c0,0,0,0,0,0c0,0,0,0,0,0c-0.01,0-0.02,0.01-0.02,0.03
				c0,0.02,0,0.05,0.01,0.08c0.02,0.31,0.07,0.87-0.59,1.03c0,0,0,0,0,0c0,0,0,0,0,0c0,0,0,0,0,0c0,0,0,0,0,0c0,0,0,0,0,0
				c0,0,0,0,0,0c0,0,0,0,0,0.01c0,0,0,0,0,0c0,0,0,0,0,0c0,0,0,0,0,0c0,0,0,0,0,0c0,0,0,0,0,0c0,0,0,0,0,0c0,0,0,0,0,0c0,0,0,0,0,0
				c0,0,0,0,0,0c0,0,0,0,0,0c0,0,0,0,0,0c0.67-0.05,0.8,0.51,0.87,0.8c0.01,0.03,0.01,0.05,0.02,0.08c0,0.01,0.02,0.02,0.03,0.02
				c0,0,0,0,0,0c0,0,0,0,0,0c0.01,0,0.02-0.01,0.02-0.03c0-0.02,0-0.05-0.01-0.08c-0.02-0.31-0.07-0.87,0.59-1.03c0,0,0,0,0,0
				c0,0,0,0,0,0c0,0,0,0,0,0c0,0,0,0,0,0C184.73,112.53,184.73,112.52,184.73,112.51C184.73,112.52,184.73,112.52,184.73,112.51
				C184.73,112.52,184.73,112.51,184.73,112.51z"/>
			<path class="st20" d="M203.33,83.34C203.33,83.34,203.33,83.34,203.33,83.34c-0.01,0.01-0.01,0.02-0.01,0.02c0,0,0,0-0.01,0.01
				c0,0-0.01,0.01-0.01,0.01c0,0-0.01,0-0.01,0c0,0-0.01,0-0.01,0c-1.44,0.33-1.34,1.58-1.29,2.25c0,0.06,0.01,0.12,0.01,0.17
				c0,0.03-0.02,0.06-0.05,0.06c0,0,0,0,0,0c0,0,0,0,0,0c-0.03,0-0.06-0.01-0.07-0.04c-0.01-0.05-0.03-0.11-0.04-0.17
				c-0.15-0.65-0.43-1.87-1.9-1.76c0,0-0.01,0-0.01,0c0,0-0.01,0-0.01,0c0,0-0.01,0-0.01,0c0,0-0.01,0-0.01,0
				c0,0-0.01-0.01-0.01-0.01c0,0,0,0-0.01-0.01c0,0,0-0.01,0-0.01c0,0,0-0.01,0-0.01c0,0,0,0,0,0c0,0,0,0,0,0c0,0,0-0.01,0-0.01
				c0,0,0-0.01,0-0.01c0,0,0-0.01,0-0.01c0,0,0-0.01,0.01-0.01c0,0,0,0,0.01-0.01c0,0,0.01-0.01,0.01-0.01c0,0,0.01,0,0.01,0
				c0,0,0.01,0,0.01,0c1.44-0.33,1.34-1.58,1.29-2.25c0-0.06-0.01-0.12-0.01-0.17c0-0.03,0.02-0.06,0.05-0.06c0,0,0,0,0,0
				c0,0,0,0,0,0c0,0,0,0,0,0c0,0,0,0,0,0c0.03-0.01,0.06,0.01,0.06,0.04c0.01,0.05,0.03,0.11,0.04,0.17
				c0.15,0.65,0.43,1.87,1.9,1.76c0,0,0.01,0,0.01,0c0,0,0.01,0,0.01,0c0,0,0.01,0,0.01,0c0,0,0.01,0,0.01,0
				c0,0,0.01,0.01,0.01,0.01c0,0,0,0,0.01,0.01c0,0,0,0.01,0,0.01c0,0,0,0.01,0,0.01c0,0,0,0,0,0c0,0,0,0,0,0c0,0,0,0.01,0,0.01
				C203.33,83.33,203.33,83.33,203.33,83.34z M139.47,77.35C139.47,77.35,139.47,77.34,139.47,77.35c0-0.01,0-0.01,0-0.01
				c0,0,0,0,0,0c0,0,0-0.01,0-0.01c0,0,0-0.01,0-0.01c0,0,0-0.01-0.01-0.01c0,0,0-0.01-0.01-0.01c0,0-0.01,0-0.01,0
				c0,0-0.01,0-0.01,0c0,0-0.01,0-0.01,0c0,0-0.01,0-0.01,0c-1.47,0.11-1.75-1.11-1.9-1.76c-0.01-0.06-0.03-0.12-0.04-0.17
				c-0.01-0.03-0.04-0.05-0.06-0.04c0,0,0,0,0,0c0,0,0,0,0,0c0,0,0,0,0,0c0,0,0,0,0,0c-0.03,0-0.05,0.03-0.05,0.06
				c0,0.05,0.01,0.11,0.01,0.17c0.05,0.67,0.15,1.92-1.29,2.25c0,0-0.01,0-0.01,0c0,0-0.01,0-0.01,0c0,0-0.01,0.01-0.01,0.01
				c0,0,0,0-0.01,0.01c0,0,0,0.01-0.01,0.01c0,0,0,0.01,0,0.01c0,0,0,0.01,0,0.01c0,0,0,0.01,0,0.01c0,0,0,0,0,0c0,0,0,0,0,0
				c0,0,0,0.01,0,0.01c0,0,0,0.01,0,0.01c0,0,0,0.01,0.01,0.01c0,0,0,0.01,0.01,0.01c0,0,0.01,0,0.01,0c0,0,0.01,0,0.01,0
				c0,0,0.01,0,0.01,0c0,0,0.01,0,0.01,0c1.47-0.11,1.75,1.11,1.9,1.76c0.01,0.06,0.03,0.12,0.04,0.17
				c0.01,0.03,0.04,0.05,0.07,0.04c0,0,0,0,0,0c0,0,0,0,0,0c0.03,0,0.05-0.03,0.05-0.06c0-0.05-0.01-0.11-0.01-0.17
				c-0.05-0.67-0.15-1.92,1.29-2.25c0,0,0.01,0,0.01,0c0,0,0.01,0,0.01,0c0,0,0.01-0.01,0.01-0.01c0,0,0,0,0.01-0.01
				c0,0,0-0.01,0.01-0.01c0,0,0-0.01,0-0.01C139.47,77.36,139.47,77.35,139.47,77.35z M197.42,88.18
				C197.42,88.18,197.42,88.17,197.42,88.18C197.42,88.17,197.42,88.17,197.42,88.18C197.42,88.17,197.42,88.17,197.42,88.18
				c0-0.01,0-0.01,0-0.02c0,0,0-0.01,0-0.01c0,0,0,0,0-0.01c0,0,0,0-0.01-0.01c0,0,0,0-0.01,0c0,0-0.01,0-0.01,0c0,0-0.01,0-0.01,0
				c0,0,0,0-0.01,0c-1.11,0.08-1.33-0.84-1.44-1.34c-0.01-0.05-0.02-0.09-0.03-0.13c-0.01-0.02-0.03-0.04-0.05-0.03c0,0,0,0,0,0
				c0,0,0,0,0,0c0,0,0,0,0,0c0,0,0,0,0,0c-0.02,0-0.04,0.02-0.04,0.05c0,0.04,0.01,0.08,0.01,0.13c0.04,0.51,0.11,1.45-0.98,1.7
				c0,0,0,0-0.01,0c0,0,0,0-0.01,0c0,0,0,0-0.01,0.01c0,0,0,0-0.01,0.01c0,0,0,0.01,0,0.01c0,0,0,0,0,0.01c0,0,0,0.01,0,0.01
				c0,0,0,0,0,0.01c0,0,0,0,0,0c0,0,0,0,0,0c0,0,0,0,0,0.01c0,0,0,0.01,0,0.01c0,0,0,0,0,0.01c0,0,0,0,0.01,0.01c0,0,0,0,0.01,0
				c0,0,0.01,0,0.01,0c0,0,0.01,0,0.01,0c0,0,0,0,0.01,0c1.11-0.08,1.33,0.84,1.44,1.34c0.01,0.05,0.02,0.09,0.03,0.13
				c0.01,0.02,0.03,0.04,0.05,0.03c0,0,0,0,0,0s0,0,0,0c0.02,0,0.04-0.02,0.04-0.05c0-0.04-0.01-0.08-0.01-0.13
				c-0.04-0.51-0.11-1.45,0.98-1.7c0,0,0,0,0.01,0c0,0,0,0,0.01,0c0,0,0,0,0.01-0.01c0,0,0,0,0.01-0.01c0,0,0-0.01,0-0.01
				C197.41,88.19,197.41,88.19,197.42,88.18C197.42,88.19,197.42,88.18,197.42,88.18z M170.1,62.72
				C170.1,62.71,170.1,62.71,170.1,62.72C170.1,62.71,170.1,62.71,170.1,62.72c0-0.01,0-0.01,0-0.01c0,0,0,0,0-0.01
				c0,0,0-0.01,0-0.01c0,0,0,0,0-0.01c0,0,0,0-0.01-0.01c0,0,0,0-0.01,0c0,0-0.01,0-0.01,0c0,0-0.01,0-0.01,0c0,0,0,0-0.01,0
				c-1.11,0.08-1.33-0.84-1.44-1.34c-0.01-0.05-0.02-0.09-0.03-0.13c-0.01-0.02-0.03-0.04-0.05-0.03c0,0,0,0,0,0c0,0,0,0,0,0
				c0,0,0,0,0,0c0,0,0,0,0,0c-0.02,0-0.04,0.02-0.04,0.05c0,0.04,0.01,0.08,0.01,0.13c0.04,0.51,0.11,1.45-0.98,1.7c0,0,0,0-0.01,0
				c0,0,0,0-0.01,0c0,0,0,0-0.01,0.01c0,0,0,0-0.01,0.01c0,0,0,0.01,0,0.01c0,0,0,0,0,0.01c0,0,0,0.01,0,0.01c0,0,0,0,0,0.01
				c0,0,0,0,0,0c0,0,0,0,0,0c0,0,0,0,0,0.01c0,0,0,0.01,0,0.01c0,0,0,0,0,0.01c0,0,0,0,0.01,0.01c0,0,0,0,0.01,0c0,0,0.01,0,0.01,0
				c0,0,0.01,0,0.01,0c0,0,0,0,0.01,0c1.11-0.08,1.33,0.84,1.44,1.34c0.01,0.05,0.02,0.09,0.03,0.13c0.01,0.02,0.03,0.04,0.05,0.03
				c0,0,0,0,0,0c0,0,0,0,0,0c0.02,0,0.04-0.02,0.04-0.05c0-0.04-0.01-0.08-0.01-0.13c-0.04-0.51-0.11-1.45,0.98-1.7c0,0,0,0,0.01,0
				c0,0,0,0,0.01,0c0,0,0,0,0.01-0.01c0,0,0,0,0.01-0.01c0,0,0-0.01,0-0.01C170.09,62.73,170.1,62.73,170.1,62.72
				C170.1,62.72,170.1,62.72,170.1,62.72z M144.62,72.45C144.62,72.45,144.62,72.45,144.62,72.45
				C144.62,72.45,144.62,72.45,144.62,72.45C144.62,72.44,144.62,72.44,144.62,72.45c0-0.01,0-0.01,0-0.02c0,0,0-0.01,0-0.01
				c0,0,0,0,0-0.01c0,0,0,0-0.01-0.01c0,0,0,0-0.01,0c0,0-0.01,0-0.01,0c0,0-0.01,0-0.01,0c0,0,0,0-0.01,0
				c-1.11,0.08-1.33-0.84-1.44-1.34c-0.01-0.05-0.02-0.09-0.03-0.13c-0.01-0.02-0.03-0.04-0.05-0.03c0,0,0,0,0,0c0,0,0,0,0,0
				c0,0,0,0,0,0c0,0,0,0,0,0c-0.02,0-0.04,0.02-0.04,0.05c0,0.04,0.01,0.08,0.01,0.13c0.04,0.51,0.11,1.45-0.98,1.7c0,0,0,0-0.01,0
				c0,0,0,0-0.01,0c0,0,0,0-0.01,0.01c0,0,0,0-0.01,0.01c0,0,0,0.01,0,0.01c0,0,0,0,0,0.01c0,0,0,0.01,0,0.01c0,0,0,0,0,0.01
				c0,0,0,0,0,0c0,0,0,0,0,0c0,0,0,0,0,0.01c0,0,0,0.01,0,0.01c0,0,0,0,0,0.01c0,0,0,0,0.01,0.01c0,0,0,0,0.01,0c0,0,0.01,0,0.01,0
				c0,0,0.01,0,0.01,0c0,0,0,0,0.01,0c1.11-0.08,1.33,0.84,1.44,1.34c0.01,0.05,0.02,0.09,0.03,0.13c0.01,0.02,0.03,0.04,0.05,0.03
				c0,0,0,0,0,0c0,0,0,0,0,0c0.02,0,0.04-0.02,0.04-0.05c0-0.04-0.01-0.08-0.01-0.13c-0.04-0.51-0.11-1.45,0.98-1.7c0,0,0,0,0.01,0
				c0,0,0,0,0.01,0c0,0,0,0,0.01-0.01c0,0,0,0,0.01-0.01c0,0,0-0.01,0-0.01C144.62,72.47,144.62,72.46,144.62,72.45
				C144.62,72.46,144.62,72.46,144.62,72.45z M198.46,77.8C198.46,77.8,198.46,77.8,198.46,77.8
				C198.46,77.8,198.46,77.8,198.46,77.8C198.46,77.8,198.46,77.8,198.46,77.8C198.46,77.8,198.46,77.79,198.46,77.8
				c0-0.01,0-0.01,0-0.01c0,0,0,0,0,0c0,0,0,0,0,0c0,0,0,0,0,0c0,0,0,0,0,0c0,0,0,0,0,0c0,0,0,0,0,0c-0.67,0.05-0.8-0.51-0.87-0.8
				c-0.01-0.03-0.01-0.05-0.02-0.08c0-0.01-0.02-0.02-0.03-0.02c0,0,0,0,0,0c0,0,0,0,0,0c0,0,0,0,0,0c0,0,0,0,0,0
				c-0.01,0-0.02,0.01-0.02,0.03c0,0.02,0,0.05,0.01,0.08c0.02,0.31,0.07,0.87-0.59,1.03c0,0,0,0,0,0c0,0,0,0,0,0c0,0,0,0,0,0
				c0,0,0,0,0,0c0,0,0,0,0,0c0,0,0,0,0,0c0,0,0,0,0,0.01c0,0,0,0,0,0c0,0,0,0,0,0c0,0,0,0,0,0c0,0,0,0,0,0c0,0,0,0,0,0c0,0,0,0,0,0
				c0,0,0,0,0,0c0,0,0,0,0,0c0,0,0,0,0,0c0,0,0,0,0,0c0,0,0,0,0,0c0.67-0.05,0.8,0.51,0.87,0.8c0.01,0.03,0.01,0.05,0.02,0.08
				c0,0.01,0.02,0.02,0.03,0.02c0,0,0,0,0,0c0,0,0,0,0,0c0.01,0,0.02-0.01,0.02-0.03c0-0.02,0-0.05-0.01-0.08
				c-0.02-0.31-0.07-0.87,0.59-1.03c0,0,0,0,0,0c0,0,0,0,0,0c0,0,0,0,0,0c0,0,0,0,0,0C198.46,77.82,198.46,77.81,198.46,77.8
				C198.46,77.81,198.46,77.81,198.46,77.8C198.46,77.81,198.46,77.8,198.46,77.8z M173.67,56.91
				C173.67,56.91,173.67,56.91,173.67,56.91C173.67,56.9,173.67,56.9,173.67,56.91C173.67,56.9,173.67,56.9,173.67,56.91
				C173.67,56.9,173.67,56.9,173.67,56.91c0-0.01,0-0.01,0-0.01c0,0,0,0,0,0c0,0,0,0,0,0c0,0,0,0,0,0c0,0,0,0,0,0c0,0,0,0,0,0
				c0,0,0,0,0,0c-0.67,0.05-0.8-0.51-0.87-0.8c-0.01-0.03-0.01-0.05-0.02-0.08c0-0.01-0.02-0.02-0.03-0.02c0,0,0,0,0,0c0,0,0,0,0,0
				c0,0,0,0,0,0c0,0,0,0,0,0c-0.01,0-0.02,0.01-0.02,0.03c0,0.02,0,0.05,0.01,0.08c0.02,0.31,0.07,0.87-0.59,1.03c0,0,0,0,0,0
				c0,0,0,0,0,0c0,0,0,0,0,0c0,0,0,0,0,0c0,0,0,0,0,0c0,0,0,0,0,0c0,0,0,0,0,0.01c0,0,0,0,0,0c0,0,0,0,0,0c0,0,0,0,0,0c0,0,0,0,0,0
				c0,0,0,0,0,0c0,0,0,0,0,0c0,0,0,0,0,0c0,0,0,0,0,0c0,0,0,0,0,0c0,0,0,0,0,0c0,0,0,0,0,0c0.67-0.05,0.8,0.51,0.87,0.8
				c0.01,0.03,0.01,0.05,0.02,0.08c0,0.01,0.02,0.02,0.03,0.02c0,0,0,0,0,0c0,0,0,0,0,0c0.01,0,0.02-0.01,0.02-0.03
				c0-0.02,0-0.05-0.01-0.08c-0.02-0.31-0.07-0.87,0.59-1.03c0,0,0,0,0,0c0,0,0,0,0,0c0,0,0,0,0,0c0,0,0,0,0,0
				C173.67,56.92,173.67,56.92,173.67,56.91C173.67,56.92,173.67,56.92,173.67,56.91C173.67,56.91,173.67,56.91,173.67,56.91z
				 M138.3,69.66C138.3,69.66,138.3,69.66,138.3,69.66C138.3,69.66,138.3,69.66,138.3,69.66C138.3,69.66,138.3,69.66,138.3,69.66
				C138.3,69.65,138.3,69.65,138.3,69.66c0-0.01,0-0.01,0-0.01c0,0,0,0,0,0c0,0,0,0,0,0c0,0,0,0,0,0c0,0,0,0,0,0c0,0,0,0,0,0
				c0,0,0,0,0,0c-0.67,0.05-0.8-0.51-0.87-0.8c-0.01-0.03-0.01-0.05-0.02-0.08c0-0.01-0.02-0.02-0.03-0.02c0,0,0,0,0,0c0,0,0,0,0,0
				c0,0,0,0,0,0c0,0,0,0,0,0c-0.01,0-0.02,0.01-0.02,0.03c0,0.02,0,0.05,0.01,0.08c0.02,0.31,0.07,0.87-0.59,1.03c0,0,0,0,0,0
				c0,0,0,0,0,0c0,0,0,0,0,0c0,0,0,0,0,0c0,0,0,0,0,0c0,0,0,0,0,0c0,0,0,0,0,0.01c0,0,0,0,0,0c0,0,0,0,0,0c0,0,0,0,0,0c0,0,0,0,0,0
				c0,0,0,0,0,0c0,0,0,0,0,0c0,0,0,0,0,0c0,0,0,0,0,0c0,0,0,0,0,0c0,0,0,0,0,0c0,0,0,0,0,0c0.67-0.05,0.8,0.51,0.87,0.8
				c0.01,0.03,0.01,0.05,0.02,0.08c0,0.01,0.02,0.02,0.03,0.02c0,0,0,0,0,0c0,0,0,0,0,0c0.01,0,0.02-0.01,0.02-0.03
				c0-0.02,0-0.05-0.01-0.08c-0.02-0.31-0.07-0.87,0.59-1.03c0,0,0,0,0,0c0,0,0,0,0,0c0,0,0,0,0,0c0,0,0,0,0,0
				C138.29,69.67,138.29,69.67,138.3,69.66C138.29,69.67,138.3,69.67,138.3,69.66C138.3,69.67,138.3,69.66,138.3,69.66z"/>
			<path class="st20" d="M193.68,24.15l-23.72,22.73l-2.85,4.34l-1.12-0.68l0.11-0.2l-0.83-0.8l3.34-3.68l15.94-28.52l3.42,2.08
				l-12.05,18.37l14.89-16.43L193.68,24.15z"/>
			<path class="st126" d="M163.08,60.51c-0.15,0-0.31-0.07-0.4-0.21c-1.49-2.04-1.99-4.83-1.32-7.46c0.57-2.25,1.98-4.37,3.96-5.96
				c0.22-0.17,0.53-0.14,0.7,0.08c0.17,0.21,0.14,0.53-0.08,0.7c-1.81,1.46-3.1,3.38-3.62,5.42c-0.6,2.34-0.16,4.81,1.16,6.62
				c0.16,0.22,0.11,0.54-0.11,0.7C163.29,60.48,163.18,60.51,163.08,60.51z M158.82,56.66c0.45-2.27,1.25-4.05,2.37-5.29l0.18-0.2
				c1.33-1.49,3.56-3.98,7.75-4.15c0.28-0.01,0.49-0.24,0.48-0.52s-0.26-0.49-0.52-0.48c-4.61,0.19-7.11,2.98-8.46,4.48l-0.18,0.2
				c-1.24,1.38-2.12,3.32-2.61,5.77c-0.05,0.27,0.12,0.53,0.39,0.59c0.03,0.01,0.07,0.01,0.1,0.01
				C158.57,57.06,158.78,56.9,158.82,56.66z"/>
		</g>
		<path class="st126" d="M153.17,152.6c0.21,0.17,0.31,0.44,0.25,0.71l0,0c-0.12,0.46-0.66,0.67-1.04,0.39
			c-4.2-2.97-8.3-6.33-10.55-10.96c-0.25-0.51-0.47-1.12-0.1-1.62c0.3-0.4,0.86-0.51,1.33-0.34c0.83,0.29,1.23,1.08,1.63,1.81
			C146.79,146.48,149.7,149.91,153.17,152.6z M155.74,155.79c0.13,0.02,0.25,0.02,0.38-0.02s0.23-0.12,0.27-0.24
			c0.06-0.17-0.02-0.35-0.12-0.5c-0.25-0.39-0.58-0.73-0.98-0.97c-0.19-0.12-0.4-0.21-0.62-0.22c-0.63-0.02-0.74,0.62-0.43,1.04
			C154.6,155.38,155.16,155.72,155.74,155.79z"/>
	</g>
</g>
</svg>
