<?xml version="1.0" encoding="utf-8"?>
<!-- Generator: Adobe Illustrator 27.8.1, SVG Export Plug-In . SVG Version: 6.00 Build 0)  -->
<svg version="1.1" xmlns="http://www.w3.org/2000/svg" xmlns:xlink="http://www.w3.org/1999/xlink" x="0px" y="0px"
	 viewBox="0 0 350 230.71" style="enable-background:new 0 0 350 230.71;" xml:space="preserve">
<style type="text/css">
	.st0{fill:#3A2C00;}
	.st1{fill:#00003D;}
	.st2{fill:#F2EAC9;}
	.st3{fill:#D9F4CE;}
	.st4{fill:#FCF1C5;}
	.st5{fill:#FFFBEB;}
	.st6{fill:#E6F5FC;}
	.st7{fill:#EFFFE9;}
	.st8{fill:#FFF9E1;}
	.st9{fill:#FFFAE3;}
	.st10{fill:#E9F6FF;}
	.st11{fill:#FFF9E6;}
	.st12{fill:#FFF3C2;}
	.st13{fill:#DEFFFA;}
	.st14{fill:#FEFFE9;}
	.st15{fill:#D6FCD6;}
	.st16{fill:#E6FFE8;}
	.st17{fill:#FCF2D4;}
	.st18{fill:#F9FFE1;}
	.st19{fill:#FFFFE9;}
	.st20{fill:#191919;}
	.st21{fill:#FFFFFF;}
	.st22{fill:#FFCA55;}
	.st23{fill:#006865;}
	.st24{fill:#00AEB7;}
	.st25{fill:#EDC599;}
	.st26{fill:url(#SVGID_1_);}
	.st27{fill:#250B00;}
	.st28{fill:#FFDBD4;}
	.st29{fill:#231F20;}
	.st30{fill:#7F7F7F;}
	.st31{fill:#FFD468;}
	.st32{fill:#303030;}
	.st33{fill:#007D54;}
	.st34{fill:#EE3631;}
	.st35{fill:#2B2B2B;}
	.st36{fill:#FFB000;}
	.st37{opacity:0.35;fill:#FFFFFF;}
	.st38{fill:#E09C05;}
	.st39{fill:#A8112B;}
	.st40{fill:#FCB040;}
	.st41{fill:#3DA1D8;}
	.st42{fill:#0C8EBC;}
	.st43{fill:#EFC6A3;}
	.st44{fill:#B0DFFF;}
	.st45{fill-rule:evenodd;clip-rule:evenodd;fill:#FEFEFE;}
	.st46{fill:#006284;}
	.st47{fill:#5B5B5B;}
	.st48{fill:#EACAB0;}
	.st49{fill:#442B18;}
	.st50{fill:#663412;}
	.st51{fill:#C18B63;}
	.st52{fill:#3A1801;}
	.st53{fill:#616D0B;}
	.st54{fill:#98B11F;}
	.st55{fill:#606060;}
	.st56{fill:#E0E0E0;}
	.st57{fill-rule:evenodd;clip-rule:evenodd;fill:#FFE183;}
	.st58{fill-rule:evenodd;clip-rule:evenodd;fill:#FFA617;}
	.st59{fill:#FF6745;}
	.st60{fill-rule:evenodd;clip-rule:evenodd;fill:#63A642;}
	.st61{fill-rule:evenodd;clip-rule:evenodd;fill:#925056;}
	.st62{fill-rule:evenodd;clip-rule:evenodd;fill:#2C2F38;}
	.st63{fill:#A5A5A5;}
	.st64{fill:#FFEBB8;}
	.st65{fill:#FFA617;}
	.st66{fill:#AF121A;}
	.st67{fill:#C49718;}
	.st68{fill:#FFD961;}
	.st69{fill:#F93B00;}
	.st70{fill:#FFC02E;}
	.st71{fill:#FA6500;}
	.st72{fill:#9BB200;}
	.st73{fill:#FFF7D6;}
	.st74{fill:#3E9AFF;}
	.st75{fill:#3ED698;}
	.st76{fill:#0F935A;}
	.st77{fill:#ED1C24;}
	.st78{fill:#F68712;}
	.st79{fill:#5B0000;}
	.st80{fill-rule:evenodd;clip-rule:evenodd;fill:#FB6218;}
	.st81{fill:#795B4B;}
	.st82{fill:#513D35;}
	.st83{fill:#661F00;}
	.st84{fill:#3F0000;}
	.st85{fill-rule:evenodd;clip-rule:evenodd;fill:#FFFFFF;}
	.st86{fill:#FFC92F;}
	.st87{fill:#3D1109;}
	.st88{fill:#424241;}
	.st89{fill:none;stroke:#FFDE59;stroke-width:4;}
	.st90{fill:#FFDE59;}
	.st91{fill-rule:evenodd;clip-rule:evenodd;fill:#333231;}
	.st92{fill-rule:evenodd;clip-rule:evenodd;}
	.st93{fill:#FF6D00;}
	.st94{fill:#040507;}
	.st95{fill:#4D433A;}
	.st96{fill:#FF8B00;}
	.st97{filter:url(#Adobe_OpacityMaskFilter);}
	.st98{fill-opacity:0.3;}
	.st99{mask:url(#_x35_0ea534a37_00000039117605408314366780000006090329138646347946_);fill:#EBB22F;}
	.st100{fill:#F39200;}
	.st101{fill:#1D1D1B;}
	.st102{fill:#201F1F;}
	.st103{fill:url(#SVGID_00000182500956255246510810000017255079448400806311_);}
	.st104{fill:url(#SVGID_00000145754945339527601170000006639202209713370038_);}
	.st105{fill:url(#SVGID_00000078034481237067433800000002868383279796644265_);}
	.st106{fill:url(#SVGID_00000074412845866867567300000010289787877979030666_);}
	.st107{fill:url(#SVGID_00000116937413766661072940000010645334075162133921_);}
	.st108{fill:url(#SVGID_00000181804366022616892170000007421322431257205944_);}
	.st109{fill:url(#SVGID_00000140695364455884270930000013130857076447213753_);}
	.st110{fill:url(#SVGID_00000177476294524918141070000013767004880354673332_);}
	.st111{fill:url(#SVGID_00000175312137883091528740000016194700335142497720_);}
	.st112{fill:url(#SVGID_00000150823566972602227620000013276878325297367224_);}
	.st113{fill-rule:evenodd;clip-rule:evenodd;fill:url(#SVGID_00000182506797347139767330000005942237004578340498_);}
	.st114{fill:url(#SVGID_00000072984437996394183780000015524146396166627733_);}
	.st115{fill:url(#SVGID_00000139987887662047908680000015389084681372729524_);}
	.st116{fill:url(#SVGID_00000093169794614429602620000008901606642846486148_);}
	.st117{fill:url(#SVGID_00000146458342263328731330000012427211539093560491_);}
	.st118{fill:#F7941D;}
	.st119{fill:url(#SVGID_00000182488159764417596240000015480945564547372967_);}
	.st120{fill:#F2BA58;}
	.st121{fill:#8FD2CA;}
	.st122{fill:#8DC63F;}
	.st123{fill:#EA715E;}
	.st124{fill:url(#SVGID_00000088834457690241316400000002129658534427085453_);}
	.st125{fill:#A97C50;}
	.st126{fill:#F2F2F2;}
	.st127{fill:#096023;}
	.st128{fill:#191919;stroke:#191919;stroke-linecap:round;stroke-linejoin:round;stroke-miterlimit:10;}
	.st129{fill:#F2F2F2;stroke:#F2F2F2;stroke-linecap:round;stroke-linejoin:round;stroke-miterlimit:10;}
	.st130{fill-rule:evenodd;clip-rule:evenodd;fill:#594200;}
	.st131{fill-rule:evenodd;clip-rule:evenodd;fill:#3D1F11;}
	.st132{fill:#AA684B;}
	.st133{fill-rule:evenodd;clip-rule:evenodd;fill:#F2D6AF;}
	.st134{fill-rule:evenodd;clip-rule:evenodd;fill:#A87D46;}
	.st135{fill-rule:evenodd;clip-rule:evenodd;fill:#C10016;}
	.st136{fill-rule:evenodd;clip-rule:evenodd;fill:#8F1610;}
	.st137{fill-rule:evenodd;clip-rule:evenodd;fill:#EBEBEB;}
	.st138{fill-rule:evenodd;clip-rule:evenodd;fill:#D8D8D8;}
	.st139{fill:#530802;}
	.st140{fill:#EBA23C;}
	.st141{fill:#D5781F;}
	.st142{fill:url(#SVGID_00000046305012752335480660000000532562301514998146_);}
	.st143{fill:#972910;}
	.st144{fill:#F5B52F;}
	.st145{fill:#B34418;}
	.st146{fill:url(#SVGID_00000095303911382412084720000012074245057336853129_);}
	.st147{fill:url(#SVGID_00000093164847862220332020000014638285012557144199_);}
	.st148{fill:#764E48;}
	.st149{fill:#BE5D2D;}
	.st150{fill:#F29950;}
	.st151{fill:url(#SVGID_00000143576556614608092740000012472627983196749469_);}
	.st152{fill:#5B2413;}
	.st153{fill:#FEFEFE;}
	.st154{fill:#485359;}
	.st155{fill:#FF9369;}
	.st156{fill:url(#SVGID_00000050644495018472365190000009968604724625388194_);}
	.st157{fill:url(#SVGID_00000173121770471051445030000007275017841590220951_);}
	.st158{fill:url(#SVGID_00000179604655833731991920000014567077697318861738_);}
	.st159{fill:url(#SVGID_00000073717692004319420340000006586406234269564040_);}
	.st160{fill:url(#SVGID_00000099643031053900294160000014878781320178971526_);}
	.st161{fill:#D60980;}
	.st162{fill:url(#SVGID_00000083062998512906795800000010231203707637957282_);}
	.st163{fill-rule:evenodd;clip-rule:evenodd;fill:#CAB863;}
	.st164{fill-rule:evenodd;clip-rule:evenodd;fill:#00648E;}
	.st165{fill:url(#SVGID_00000070798538567147985000000017784541226421793964_);}
	.st166{fill:url(#SVGID_00000041983572853608045780000002236227941688415391_);}
	.st167{fill:url(#SVGID_00000138569947224719542660000004167356873276403883_);}
</style>
<g id="Layer_1">
</g>
<g id="Layer_2">
</g>
<g id="Layer_3">
</g>
<g id="Layer_4">
</g>
<g id="Layer_5">
</g>
<g id="Layer_6">
</g>
<g id="Layer_7">
</g>
<g id="Layer_8">
</g>
<g id="Layer_9">
</g>
<g id="Layer_10">
</g>
<g id="Layer_11">
</g>
<g id="Layer_12">
</g>
<g id="Layer_13">
</g>
<g id="Layer_14">
</g>
<g id="Layer_15">
	<radialGradient id="SVGID_1_" cx="175.0003" cy="101.1393" r="70.4922" gradientUnits="userSpaceOnUse">
		<stop  offset="0" style="stop-color:#27AAE1"/>
		<stop  offset="0.0536" style="stop-color:#25A1DB"/>
		<stop  offset="0.2109" style="stop-color:#218ECD"/>
		<stop  offset="0.3914" style="stop-color:#1E80C3"/>
		<stop  offset="0.6136" style="stop-color:#1D77BE"/>
		<stop  offset="1" style="stop-color:#1C75BC"/>
	</radialGradient>
	<path class="st26" d="M171.89,126.64c-5.07-0.4-9.52-2.36-13.82-5.18c1.76,2.45,3.48,4.92,5.27,7.35
		c5.07,6.88,10.17,13.73,15.26,20.6c0.11,0.15,0.23,0.3,0.34,0.45c1.06,1.54,0.95,3.33-0.24,4.25c-1.18,0.9-2.59,0.47-3.8-1.16
		c-6.93-9.34-13.85-18.68-20.79-28c-3.94-5.29-7.89-10.58-11.88-15.84c-0.75-0.99-0.94-1.75-0.25-2.98c3.34-6,2.91-9.7-1.4-14.99
		c-5.12-6.28-10.34-12.5-15.25-18.94c-2.44-3.2-5.2-3.82-8.9-2.38c0-9.87,0-19.53,0-29.53c12.08,0,24.21,0,36.5,0
		c-1.16,1.74-2.19,3.28-3.29,4.94c2.55,0.56,4.89,1.08,7.48,1.65c3.33-8.42,9.6-13.37,18.98-13.34c9.34,0.03,15.7,4.87,19.22,13.38
		c2.47-0.56,4.82-1.09,7.49-1.7c-1.13-1.7-2.21-3.32-3.37-5.05c12.3,0,24.52,0,36.78,0c0,5.71,0,11.2,0,16.72
		c-4.84-0.51-4.84-0.51-11.2,1.53c0-2.26,0.06-4.45-0.04-6.62c-0.02-0.51-0.56-1.42-0.89-1.43c-3.12-0.11-6.24-0.07-9.9-0.07
		c2.52,3.14,3.98,6.14,4.44,9.57c0.07,0.5,0.28,1.07,0.12,1.49c-0.94,2.39,0.09,4.07,2.06,5.52c-0.81,1.16-1.58,2.2-2.28,3.29
		c-5.33,8.27-6,17.01-2.51,26.12c0.42,1.09,0.45,1.93-0.13,2.98c-3.57,6.48-7.07,13.01-10.61,19.55c-2.42-1.09-4.57-2.06-6.78-3.05
		c-2.15,3.1-4.53,5.72-7.9,7.29c-1.04-1.49-2.05-2.92-3.12-4.45c5.22-2.47,9.31-5.97,10.04-12.12c0.37-3.12-0.9-5.85-3.57-8.31
		c-2.62,10.35-9.56,14.94-19.81,14.13c-7.57-0.59-13.73-4.89-15.64-13.92c-2.69,1.71-4.22,6.07-3.23,9.65
		c1.71,6.13,6.14,9.56,11.84,11.67c0.41,0.15,0.84,0.27,1.26,0.38C172.57,121.28,172.88,121.83,171.89,126.64z M195.8,86.57
		c0-4.7,0-9.17,0-13.83c0.61,0.22,0.89,0.31,1.17,0.43c5.24,2.3,10.4,0.95,13.49-3.53c3.15-4.56,2.69-10.7-1.08-14.55
		c-4.56-4.66-11.66-5.04-16.96-0.92c-0.46,0.35-0.91,0.71-1.48,1.17c-1.23-9.53-6.34-15.19-14-15.54c-3.39-0.15-6.59,0.62-9.39,2.74
		c-4.28,3.24-6.04,7.66-6.02,13.18c-0.77-0.66-1.22-1.07-1.7-1.45c-4.27-3.32-9.06-4-13.81-1.65c-4.51,2.23-6.37,6.35-6.15,11.41
		c0.25,5.74,5.18,10.55,10.89,10.19c2.04-0.13,4.03-1.03,6.25-1.64c0,4.43,0,9.02,0,13.54C170.06,79.32,182.79,79.4,195.8,86.57z
		 M127.64,65.46c0.65-0.47,1.02-0.8,1.44-1.03c3.09-1.67,5.05-3.89,5.35-7.72c0.16-2.08,1.73-4.05,2.71-6.16c-3.17,0-6.34,0-9.51,0
		C127.64,55.59,127.64,60.38,127.64,65.46z M201.23,134.99c-2.04-0.25-3.25,0.47-4.27,2.4c-3.7,6.99-7.56,13.9-11.5,20.76
		c-3.96,6.9-13.71,7.78-18.89,1.7c-1.91-2.24-3.58-4.69-5.18-7.16c-0.61-0.94-1.19-1.23-2.23-1.23c-9.87-0.02-19.74-0.08-29.62-0.13
		c-0.72,0-1.43,0-2.24,0c0.37-11.41,4.77-20.69,12.66-28.34c-2.48-3.27-4.82-6.36-7.14-9.43c-7.04,3.85-8.45,3.96-16.41,1.24
		c0,15.01,0,29.98,0,45.11c0.87,0,1.61,0,2.36,0c12.83,0,25.66,0.03,38.48-0.03c1.83-0.01,3.09,0.4,4.28,1.97
		c7.58,9.98,23.18,9.14,28.94-2.6c1.96-4,4.31-7.8,6.48-11.7c2.25-4.04,4.5-8.08,6.99-12.54C202.73,135,201.97,135.08,201.23,134.99
		z M224.11,102.68c-0.35,0.12-0.65,0.56-0.86,0.93c-3.55,6.36-7.07,12.72-10.65,19.17c7.85,7.93,12.37,17.25,12.86,28.54
		c-1.02,0-1.71-0.01-2.4,0c-6.35,0.08-12.7,0.15-19.04,0.28c-0.59,0.01-1.46,0.28-1.72,0.72c-1.42,2.34-2.69,4.78-4.15,7.41
		c12.84,0,25.48,0,38.05,0c0-20.46,0-40.8,0-61.14C232.03,100,228.06,101.31,224.11,102.68z M226.87,66.24
		c4.78-2.18,9.57-0.45,11.56,4.39c1.46,3.55,0.94,7.24-0.57,10.63c-3.38,7.55-8.97,12.94-16.61,16.17c-0.57,0.24-1.36,0.45-1.6,0.9
		c-1.78,3.48-3.44,7.01-5.14,10.53c2.17-1.9,4-3.96,5.71-6.13c1.16-1.47,2.47-2.5,4.31-3.1c2.98-0.97,5.91-2.14,8.77-3.41
		c4.16-1.85,7.99-4.22,10.98-7.78c5.08-6.06,5.35-15.12,0.62-21.29c-5.15-6.72-16.02-6.63-20.67,0.55
		C225.36,67.06,226.09,66.59,226.87,66.24z M105.19,85.15c-1.27,1.08-2.35,2.01-3.46,2.95c4.55,5.62,9.04,11.18,13.54,16.73
		c2.74,3.38,2.75,3.37,6.02,0.21C115.94,98.44,110.6,91.84,105.19,85.15z M109.69,83.65c4.28,5.33,8.55,10.68,12.87,15.98
		c2.54,3.12,2.76,3.1,5.85-0.12c-5.31-6.42-10.65-12.87-16.01-19.35c-1.21,0.91-2.2,1.66-3.34,2.52
		C109.35,83.13,109.49,83.41,109.69,83.65z M119.72,74.91c-1.24,0.99-2.29,1.83-3.48,2.77c5.34,6.57,10.55,13,15.84,19.51
		c1.23-0.97,2.3-1.8,3.53-2.77C130.2,87.78,124.99,81.38,119.72,74.91z M136.95,113.5c1.6,1.93,3.22,3.86,4.93,5.68
		c3.49,3.72,7.06,7.37,10.6,11.04c0.15-0.13,0.31-0.26,0.46-0.39c-4.55-6.35-9.04-12.73-13.7-19c-0.87-1.17-2.42-1.85-3.87-2.92
		C134.92,110.4,135.74,112.03,136.95,113.5z M183.25,135.03c-1.64-0.03-2.99,1.39-3.01,3.15c-0.02,1.65,1.56,3.38,3.1,3.41
		c1.88,0.04,3.34-1.47,3.36-3.46C186.72,136.26,185.39,135.07,183.25,135.03z M183.17,130.52c1.87,0.09,3.34-1.18,3.42-2.95
		c0.1-2.05-1.03-3.3-3.1-3.44c-1.56-0.11-3.19,1.35-3.26,2.93C180.14,128.88,181.46,130.44,183.17,130.52z M188.15,66.26
		c-8.19,1.98-16.19,2.39-24.43-0.27C170.71,73.52,182.45,72.41,188.15,66.26z"/>
</g>
</svg>
