<?xml version="1.0" encoding="utf-8"?>
<!-- Generator: Adobe Illustrator 27.8.1, SVG Export Plug-In . SVG Version: 6.00 Build 0)  -->
<svg version="1.1" xmlns="http://www.w3.org/2000/svg" xmlns:xlink="http://www.w3.org/1999/xlink" x="0px" y="0px"
	 viewBox="0 0 350 230.71" style="enable-background:new 0 0 350 230.71;" xml:space="preserve">
<style type="text/css">
	.st0{fill:#3A2C00;}
	.st1{fill:#00003D;}
	.st2{fill:#F2EAC9;}
	.st3{fill:#D9F4CE;}
	.st4{fill:#FCF1C5;}
	.st5{fill:#FFFBEB;}
	.st6{fill:#E6F5FC;}
	.st7{fill:#EFFFE9;}
	.st8{fill:#FFF9E1;}
	.st9{fill:#FFFAE3;}
	.st10{fill:#E9F6FF;}
	.st11{fill:#FFF9E6;}
	.st12{fill:#FFF3C2;}
	.st13{fill:#DEFFFA;}
	.st14{fill:#FEFFE9;}
	.st15{fill:#D6FCD6;}
	.st16{fill:#E6FFE8;}
	.st17{fill:#FCF2D4;}
	.st18{fill:#F9FFE1;}
	.st19{fill:#FFFFE9;}
	.st20{fill:#191919;}
	.st21{fill:#FFFFFF;}
	.st22{fill:#FFCA55;}
	.st23{fill:#006865;}
	.st24{fill:#00AEB7;}
	.st25{fill:#EDC599;}
	.st26{fill:url(#SVGID_1_);}
	.st27{fill:#250B00;}
	.st28{fill:#FFDBD4;}
	.st29{fill:#231F20;}
	.st30{fill:#7F7F7F;}
	.st31{fill:#FFD468;}
	.st32{fill:#303030;}
	.st33{fill:#007D54;}
	.st34{fill:#EE3631;}
	.st35{fill:#2B2B2B;}
	.st36{fill:#FFB000;}
	.st37{opacity:0.35;fill:#FFFFFF;}
	.st38{fill:#E09C05;}
	.st39{fill:#A8112B;}
	.st40{fill:#FCB040;}
	.st41{fill:#3DA1D8;}
	.st42{fill:#0C8EBC;}
	.st43{fill:#EFC6A3;}
	.st44{fill:#B0DFFF;}
	.st45{fill-rule:evenodd;clip-rule:evenodd;fill:#FEFEFE;}
	.st46{fill:#006284;}
	.st47{fill:#5B5B5B;}
	.st48{fill:#EACAB0;}
	.st49{fill:#442B18;}
	.st50{fill:#663412;}
	.st51{fill:#C18B63;}
	.st52{fill:#3A1801;}
	.st53{fill:#616D0B;}
	.st54{fill:#98B11F;}
	.st55{fill:#606060;}
	.st56{fill:#E0E0E0;}
	.st57{fill-rule:evenodd;clip-rule:evenodd;fill:#FFE183;}
	.st58{fill-rule:evenodd;clip-rule:evenodd;fill:#FFA617;}
	.st59{fill:#FF6745;}
	.st60{fill-rule:evenodd;clip-rule:evenodd;fill:#63A642;}
	.st61{fill-rule:evenodd;clip-rule:evenodd;fill:#925056;}
	.st62{fill-rule:evenodd;clip-rule:evenodd;fill:#2C2F38;}
	.st63{fill:#A5A5A5;}
	.st64{fill:#FFEBB8;}
	.st65{fill:#FFA617;}
	.st66{fill:#AF121A;}
	.st67{fill:#C49718;}
	.st68{fill:#FFD961;}
	.st69{fill:#F93B00;}
	.st70{fill:#FFC02E;}
	.st71{fill:#FA6500;}
	.st72{fill:#9BB200;}
	.st73{fill:#FFF7D6;}
	.st74{fill:#3E9AFF;}
	.st75{fill:#3ED698;}
	.st76{fill:#0F935A;}
	.st77{fill:#ED1C24;}
	.st78{fill:#F68712;}
	.st79{fill:#5B0000;}
	.st80{fill-rule:evenodd;clip-rule:evenodd;fill:#FB6218;}
	.st81{fill:#795B4B;}
	.st82{fill:#513D35;}
	.st83{fill:#661F00;}
	.st84{fill:#3F0000;}
	.st85{fill-rule:evenodd;clip-rule:evenodd;fill:#FFFFFF;}
	.st86{fill:#FFC92F;}
	.st87{fill:#3D1109;}
	.st88{fill:#424241;}
	.st89{fill:none;stroke:#FFDE59;stroke-width:4;}
	.st90{fill:#FFDE59;}
	.st91{fill-rule:evenodd;clip-rule:evenodd;fill:#333231;}
	.st92{fill-rule:evenodd;clip-rule:evenodd;}
	.st93{fill:#FF6D00;}
	.st94{fill:#040507;}
	.st95{fill:#4D433A;}
	.st96{fill:#FF8B00;}
	.st97{filter:url(#Adobe_OpacityMaskFilter);}
	.st98{fill-opacity:0.3;}
	.st99{mask:url(#_x35_0ea534a37_00000039117605408314366780000006090329138646347946_);fill:#EBB22F;}
	.st100{fill:#F39200;}
	.st101{fill:#1D1D1B;}
	.st102{fill:#201F1F;}
	.st103{fill:url(#SVGID_00000017491341443377796190000016710001066035095731_);}
	.st104{fill:url(#SVGID_00000098204219769769736920000009665012275898868390_);}
	.st105{fill:url(#SVGID_00000122684121337078268250000010072366640642817715_);}
	.st106{fill:url(#SVGID_00000124158904995343513570000009243624697648547712_);}
	.st107{fill:url(#SVGID_00000147208281197947364380000006945455334804164022_);}
	.st108{fill:url(#SVGID_00000070113257321581158340000009159657990262184353_);}
	.st109{fill:url(#SVGID_00000083806719099307763390000008925334223851278507_);}
	.st110{fill:url(#SVGID_00000129917107241738012530000001900085246110710675_);}
	.st111{fill:url(#SVGID_00000086687220384323266560000006729439478643784099_);}
	.st112{fill:url(#SVGID_00000036210064109293415360000012975021377171434157_);}
	.st113{fill-rule:evenodd;clip-rule:evenodd;fill:url(#SVGID_00000174597268513199122070000017191082825416744324_);}
	.st114{fill:url(#SVGID_00000082331428090863815690000004109379370982971532_);}
	.st115{fill:url(#SVGID_00000044870741850679196110000002201250075059508627_);}
	.st116{fill:url(#SVGID_00000005974738111417673840000017364842325632259229_);}
	.st117{fill:url(#SVGID_00000075156250173346641860000002656187357666053306_);}
	.st118{fill:#F7941D;}
	.st119{fill:url(#SVGID_00000150068886560391703180000003270121440289953928_);}
	.st120{fill:#F2BA58;}
	.st121{fill:#8FD2CA;}
	.st122{fill:#8DC63F;}
	.st123{fill:#EA715E;}
	.st124{fill:url(#SVGID_00000145018441906881117760000004195441459157996425_);}
	.st125{fill:#A97C50;}
	.st126{fill:#F2F2F2;}
	.st127{fill:#096023;}
	.st128{fill:#191919;stroke:#191919;stroke-linecap:round;stroke-linejoin:round;stroke-miterlimit:10;}
	.st129{fill:#F2F2F2;stroke:#F2F2F2;stroke-linecap:round;stroke-linejoin:round;stroke-miterlimit:10;}
	.st130{fill-rule:evenodd;clip-rule:evenodd;fill:#594200;}
	.st131{fill-rule:evenodd;clip-rule:evenodd;fill:#3D1F11;}
	.st132{fill:#AA684B;}
	.st133{fill-rule:evenodd;clip-rule:evenodd;fill:#F2D6AF;}
	.st134{fill-rule:evenodd;clip-rule:evenodd;fill:#A87D46;}
	.st135{fill-rule:evenodd;clip-rule:evenodd;fill:#C10016;}
	.st136{fill-rule:evenodd;clip-rule:evenodd;fill:#8F1610;}
	.st137{fill-rule:evenodd;clip-rule:evenodd;fill:#EBEBEB;}
	.st138{fill-rule:evenodd;clip-rule:evenodd;fill:#D8D8D8;}
	.st139{fill:#530802;}
	.st140{fill:#EBA23C;}
	.st141{fill:#D5781F;}
	.st142{fill:url(#SVGID_00000119825555752579535980000009854837010469492638_);}
	.st143{fill:#972910;}
	.st144{fill:#F5B52F;}
	.st145{fill:#B34418;}
	.st146{fill:url(#SVGID_00000008112686941700460320000015187521620149042336_);}
	.st147{fill:url(#SVGID_00000067923792502461619610000011863663048681028751_);}
	.st148{fill:#764E48;}
	.st149{fill:#BE5D2D;}
	.st150{fill:#F29950;}
	.st151{fill:url(#SVGID_00000033354500610901200590000015929456534722716582_);}
	.st152{fill:#5B2413;}
	.st153{fill:#FEFEFE;}
	.st154{fill:#485359;}
	.st155{fill:#FF9369;}
	.st156{fill:url(#SVGID_00000109747866426677674420000011336682337093830579_);}
	.st157{fill:url(#SVGID_00000072263095021165717380000017064506887103498650_);}
	.st158{fill:url(#SVGID_00000182506030694535997170000016490716942746365830_);}
	.st159{fill:url(#SVGID_00000086652736375665074000000017041944576443085964_);}
	.st160{fill:url(#SVGID_00000074434923518024825600000003309154961775104144_);}
	.st161{fill:#D60980;}
	.st162{fill:url(#SVGID_00000175292598947139332630000006894254912465781677_);}
	.st163{fill-rule:evenodd;clip-rule:evenodd;fill:#CAB863;}
	.st164{fill-rule:evenodd;clip-rule:evenodd;fill:#00648E;}
	.st165{fill:url(#SVGID_00000073701479857196742750000000869280790239586440_);}
	.st166{fill:url(#SVGID_00000031180561216409604020000007148776016987787648_);}
	.st167{fill:url(#SVGID_00000124861404712090151800000015499229108220689313_);}
</style>
<g id="Layer_1">
</g>
<g id="Layer_2">
</g>
<g id="Layer_3">
</g>
<g id="Layer_4">
</g>
<g id="Layer_5">
</g>
<g id="Layer_6">
</g>
<g id="Layer_7">
</g>
<g id="Layer_8">
</g>
<g id="Layer_9">
</g>
<g id="Layer_10">
</g>
<g id="Layer_11">
</g>
<g id="Layer_12">
</g>
<g id="Layer_13">
</g>
<g id="Layer_14">
</g>
<g id="Layer_15">
	<g>
		<radialGradient id="SVGID_1_" cx="174.8607" cy="69.3647" r="39.2597" gradientUnits="userSpaceOnUse">
			<stop  offset="0" style="stop-color:#009444"/>
			<stop  offset="0.1322" style="stop-color:#008841"/>
			<stop  offset="0.3974" style="stop-color:#00763C"/>
			<stop  offset="0.6787" style="stop-color:#006B39"/>
			<stop  offset="1" style="stop-color:#006838"/>
		</radialGradient>
		<path class="st26" d="M174.85,115.61c-15-17.29-25.86-36.39-30.27-58.67c-3.09-15.58,10.57-32.19,27.12-33.69
			c16.84-1.52,31.26,9.51,33.65,26.19c0.53,3.7,0.09,7.73-0.8,11.39c-4.94,20.26-14.88,37.94-28.48,53.64
			C175.8,114.79,175.47,115.04,174.85,115.61z M191.8,54.28c0.06-9.38-7.49-17.02-16.83-17.02c-9.18,0-16.74,7.55-16.76,16.76
			c-0.02,9.22,7.48,16.8,16.66,16.84C184.12,70.9,191.73,63.44,191.8,54.28z"/>
		
			<radialGradient id="SVGID_00000054248906405364380070000003956182444561005489_" cx="174.9997" cy="117.1571" r="51.5769" gradientUnits="userSpaceOnUse">
			<stop  offset="0" style="stop-color:#27AAE1"/>
			<stop  offset="0.145" style="stop-color:#25A1DA"/>
			<stop  offset="0.6946" style="stop-color:#1E81C4"/>
			<stop  offset="1" style="stop-color:#1C75BC"/>
		</radialGradient>
		<path style="fill:url(#SVGID_00000054248906405364380070000003956182444561005489_);" d="M136.3,62.74
			c7,25.87,19.96,48.16,38.83,67.47c9.54-9.36,17.3-19.76,23.85-31.09c6.5-11.25,11.4-23.17,14.87-35.71
			c2.24,14.13-0.06,27.42-7.09,39.84c-6.32,11.16-15.47,19.89-24.7,28.55c-0.78,0.73-1.56,1.45-2.71,2.51
			c3.02,2.55,5.86,5.1,8.89,7.39c0.61,0.46,2.03,0.21,2.93-0.11c4.92-1.77,9.36-1.33,13.59,1.99c5.3,4.17,10.76,8.14,16.19,12.14
			c0.74,0.54,1.74,0.73,2.62,1.08c-0.44,0.54-0.88,1.08-1.32,1.62c-0.83-0.39-1.72-0.68-2.48-1.18
			c-5.21-3.37-10.37-6.84-15.63-10.14c-0.81-0.51-2.01-0.38-3.04-0.54c0.51,0.89,0.81,2.09,1.57,2.61
			c5.84,3.96,11.78,7.78,17.83,11.74c-0.52,0.8-0.95,1.48-1.53,2.38c-5.57-3.64-11.02-7.2-16.47-10.75
			c-0.54-0.35-1.03-0.87-1.62-1.03c-0.89-0.24-1.85-0.24-2.79-0.34c0.42,0.83,0.62,1.98,1.3,2.45c3.51,2.45,7.14,4.73,10.72,7.08
			c2.41,1.58,4.81,3.17,7.36,4.85c-0.57,0.83-1.03,1.5-1.6,2.33c-5.87-3.84-11.56-7.63-17.35-11.27c-0.95-0.6-2.35-0.49-3.54-0.71
			c0.67,0.93,1.15,2.14,2.04,2.74c4.95,3.38,10,6.61,15.01,9.9c0.82,0.54,1.59,1.14,2.39,1.72c-0.16,0.31-0.31,0.62-0.47,0.92
			c-0.69-0.18-1.45-0.21-2.05-0.55c-6.34-3.57-12.63-7.24-18.99-10.78c-4.26-2.37-6.28-6.09-6.43-10.77
			c-0.08-2.32-1.01-3.69-2.82-4.94c-2.82-1.93-5.48-4.09-8.42-6.31c-3.38,2.52-6.82,5.01-10.16,7.65c-0.5,0.39-0.54,1.43-0.69,2.19
			c-0.62,3.09-0.48,6.6-1.94,9.21c-5.19,9.26-13.42,14.33-24.07,14.65c-9.94,0.3-14.58-7.17-10.46-16.22
			c4.07-8.95,15.73-16.13,25.5-15.63c1.48,0.08,3.23,0.12,4.35,0.9c3.22,2.23,5.4,0.85,7.68-1.43c1.65-1.65,3.5-3.1,4.62-4.07
			c-3.06-3.5-5.98-6.87-8.92-10.22c-4.74-5.38-9.84-10.48-14.16-16.18C136.64,95.05,133.66,79.48,136.3,62.74z"/>
	</g>
</g>
</svg>
