<?xml version="1.0" encoding="utf-8"?>
<!-- Generator: Adobe Illustrator 27.8.1, SVG Export Plug-In . SVG Version: 6.00 Build 0)  -->
<svg version="1.1" xmlns="http://www.w3.org/2000/svg" xmlns:xlink="http://www.w3.org/1999/xlink" x="0px" y="0px"
	 viewBox="0 0 350 230" style="enable-background:new 0 0 350 230;" xml:space="preserve">
<style type="text/css">
	.st0{fill:#3A2C00;}
	.st1{fill:#00003D;}
	.st2{fill:#F2EAC9;}
	.st3{fill:#D9F4CE;}
	.st4{fill:#FCF1C5;}
	.st5{fill:#FFFBEB;}
	.st6{fill:#E6F5FC;}
	.st7{fill:#EFFFE9;}
	.st8{fill:#FFF9E1;}
	.st9{fill:#FFFAE3;}
	.st10{fill:#E9F6FF;}
	.st11{fill:#FFF9E6;}
	.st12{fill:#FFF3C2;}
	.st13{fill:#DEFFFA;}
	.st14{fill:#FEFFE9;}
	.st15{fill:#D6FCD6;}
	.st16{fill:#E6FFE8;}
	.st17{fill:#FCF2D4;}
	.st18{fill:#F9FFE1;}
	.st19{fill:#FFFFE9;}
	.st20{fill:#191919;}
	.st21{fill:#FFFFFF;}
	.st22{fill:#FFCA55;}
	.st23{fill:#006865;}
	.st24{fill:#00AEB7;}
	.st25{fill:#EDC599;}
	.st26{fill:url(#SVGID_1_);}
	.st27{fill:#250B00;}
	.st28{fill:#FFDBD4;}
	.st29{fill:#231F20;}
	.st30{fill:#7F7F7F;}
	.st31{fill:#FFD468;}
	.st32{fill:#303030;}
	.st33{fill:#007D54;}
	.st34{fill:#EE3631;}
	.st35{fill:#2B2B2B;}
	.st36{fill:#FFB000;}
	.st37{opacity:0.35;fill:#FFFFFF;}
	.st38{fill:#E09C05;}
	.st39{fill:#A8112B;}
	.st40{fill:#FCB040;}
	.st41{fill:#3DA1D8;}
	.st42{fill:#0C8EBC;}
	.st43{fill:#EFC6A3;}
	.st44{fill:#B0DFFF;}
	.st45{fill-rule:evenodd;clip-rule:evenodd;fill:#FEFEFE;}
	.st46{fill:#006284;}
	.st47{fill:#5B5B5B;}
	.st48{fill:#EACAB0;}
	.st49{fill:#442B18;}
	.st50{fill:#663412;}
	.st51{fill:#C18B63;}
	.st52{fill:#3A1801;}
	.st53{fill:#616D0B;}
	.st54{fill:#98B11F;}
	.st55{fill:#606060;}
	.st56{fill:#E0E0E0;}
	.st57{fill-rule:evenodd;clip-rule:evenodd;fill:#FFE183;}
	.st58{fill-rule:evenodd;clip-rule:evenodd;fill:#FFA617;}
	.st59{fill:#FF6745;}
	.st60{fill-rule:evenodd;clip-rule:evenodd;fill:#63A642;}
	.st61{fill-rule:evenodd;clip-rule:evenodd;fill:#925056;}
	.st62{fill-rule:evenodd;clip-rule:evenodd;fill:#2C2F38;}
	.st63{fill:#A5A5A5;}
	.st64{fill:#FFEBB8;}
	.st65{fill:#FFA617;}
	.st66{fill:#AF121A;}
	.st67{fill:#C49718;}
	.st68{fill:#FFD961;}
	.st69{fill:#F93B00;}
	.st70{fill:#FFC02E;}
	.st71{fill:#FA6500;}
	.st72{fill:#9BB200;}
	.st73{fill:#FFF7D6;}
	.st74{fill:#3E9AFF;}
	.st75{fill:#3ED698;}
	.st76{fill:#0F935A;}
	.st77{fill:#ED1C24;}
	.st78{fill:#F68712;}
	.st79{fill:#5B0000;}
	.st80{fill-rule:evenodd;clip-rule:evenodd;fill:#FB6218;}
	.st81{fill:#795B4B;}
	.st82{fill:#513D35;}
	.st83{fill:#661F00;}
	.st84{fill:#3F0000;}
	.st85{fill-rule:evenodd;clip-rule:evenodd;fill:#FFFFFF;}
	.st86{fill:#FFC92F;}
	.st87{fill:#3D1109;}
	.st88{fill:#424241;}
	.st89{fill:none;stroke:#FFDE59;stroke-width:4;}
	.st90{fill:#FFDE59;}
	.st91{fill-rule:evenodd;clip-rule:evenodd;fill:#333231;}
	.st92{fill-rule:evenodd;clip-rule:evenodd;}
	.st93{fill:#FF6D00;}
	.st94{fill:#040507;}
	.st95{fill:#4D433A;}
	.st96{fill:#FF8B00;}
	.st97{filter:url(#Adobe_OpacityMaskFilter);}
	.st98{fill-opacity:0.3;}
	.st99{mask:url(#_x35_0ea534a37_00000039117605408314366780000006090329138646347946_);fill:#EBB22F;}
	.st100{fill:#F39200;}
	.st101{fill:#1D1D1B;}
	.st102{fill:#201F1F;}
	.st103{fill:url(#SVGID_00000021800386526272836120000000327875951747280016_);}
	.st104{fill:url(#SVGID_00000032625063778118284200000007640503615889036972_);}
	.st105{fill:url(#SVGID_00000124856600774113351830000016070479968721482160_);}
	.st106{fill:url(#SVGID_00000072269234419859898780000005806310467963392409_);}
	.st107{fill:url(#SVGID_00000028307919018581283800000016820806999544741280_);}
	.st108{fill:url(#SVGID_00000016054619201043149890000004107997531818024345_);}
	.st109{fill:url(#SVGID_00000072963068714308373800000002373946467658088633_);}
	.st110{fill:url(#SVGID_00000037684635575009183970000002793960753349684384_);}
	.st111{fill:url(#SVGID_00000064339936915560022650000012056676331390360468_);}
	.st112{fill:url(#SVGID_00000003815382533142215220000010682056915765888434_);}
	.st113{fill-rule:evenodd;clip-rule:evenodd;fill:url(#SVGID_00000141441755000630097950000009838798094406778039_);}
	.st114{fill:url(#SVGID_00000180362043481282828610000007267945097256442779_);}
	.st115{fill:url(#SVGID_00000078004460427218366380000017867811236220478120_);}
	.st116{fill:url(#SVGID_00000132770053860974059120000016700665095761233553_);}
	.st117{fill:url(#SVGID_00000075128263825973794930000001156351448175275929_);}
	.st118{fill:#F7941D;}
	.st119{fill:url(#SVGID_00000157307647236653371890000013653399381464561309_);}
	.st120{fill:#F2BA58;}
	.st121{fill:#8FD2CA;}
	.st122{fill:#8DC63F;}
	.st123{fill:#EA715E;}
	.st124{fill:url(#SVGID_00000097496619628203096760000016806781628783556225_);}
	.st125{fill:#A97C50;}
	.st126{fill:#F2F2F2;}
	.st127{fill:#096023;}
	.st128{fill:#191919;stroke:#191919;stroke-linecap:round;stroke-linejoin:round;stroke-miterlimit:10;}
	.st129{fill:#F2F2F2;stroke:#F2F2F2;stroke-linecap:round;stroke-linejoin:round;stroke-miterlimit:10;}
	.st130{fill-rule:evenodd;clip-rule:evenodd;fill:#594200;}
	.st131{fill-rule:evenodd;clip-rule:evenodd;fill:#3D1F11;}
	.st132{fill:#AA684B;}
	.st133{fill-rule:evenodd;clip-rule:evenodd;fill:#F2D6AF;}
	.st134{fill-rule:evenodd;clip-rule:evenodd;fill:#A87D46;}
	.st135{fill-rule:evenodd;clip-rule:evenodd;fill:#C10016;}
	.st136{fill-rule:evenodd;clip-rule:evenodd;fill:#8F1610;}
	.st137{fill-rule:evenodd;clip-rule:evenodd;fill:#EBEBEB;}
	.st138{fill-rule:evenodd;clip-rule:evenodd;fill:#D8D8D8;}
	.st139{fill:#530802;}
	.st140{fill:#EBA23C;}
	.st141{fill:#D5781F;}
	.st142{fill:url(#SVGID_00000111193162303792303720000008585273523320242590_);}
	.st143{fill:#972910;}
	.st144{fill:#F5B52F;}
	.st145{fill:#B34418;}
	.st146{fill:url(#SVGID_00000000186467372310624100000008064054302129226413_);}
	.st147{fill:url(#SVGID_00000129188111208934004020000012707410623327445122_);}
	.st148{fill:#764E48;}
	.st149{fill:#BE5D2D;}
	.st150{fill:#F29950;}
	.st151{fill:url(#SVGID_00000085938944963348874420000004917411468583352237_);}
	.st152{fill:#5B2413;}
	.st153{fill:#FEFEFE;}
	.st154{fill:#485359;}
	.st155{fill:#FF9369;}
	.st156{fill:url(#SVGID_00000038393969005280169460000005520750590039345281_);}
	.st157{fill:url(#SVGID_00000019678516373193835830000018066791289224759474_);}
	.st158{fill:url(#SVGID_00000041257784125262514310000011362843666264289939_);}
	.st159{fill:url(#SVGID_00000062907291100687933620000009084091573741253025_);}
	.st160{fill:url(#SVGID_00000160190904349712823630000005930964976432595639_);}
	.st161{fill:#D60980;}
	.st162{fill:url(#SVGID_00000005964358552996726330000007609091325470144668_);}
	.st163{fill-rule:evenodd;clip-rule:evenodd;fill:#CAB863;}
	.st164{fill-rule:evenodd;clip-rule:evenodd;fill:#00648E;}
	.st165{fill:url(#SVGID_00000176045007403285345230000018203853777675369128_);}
	.st166{fill:url(#SVGID_00000081642832456955469770000009807936985243753645_);}
	.st167{fill:url(#SVGID_00000070821895753572576480000004383263919239219622_);}
</style>
<g id="Layer_1">
</g>
<g id="Layer_2">
</g>
<g id="Layer_3">
</g>
<g id="Layer_4">
</g>
<g id="Layer_5">
</g>
<g id="Layer_6">
</g>
<g id="Layer_7">
</g>
<g id="Layer_8">
</g>
<g id="Layer_9">
</g>
<g id="Layer_10">
</g>
<g id="Layer_11">
</g>
<g id="Layer_12">
</g>
<g id="Layer_13">
</g>
<g id="Layer_14">
</g>
<g id="Layer_15">
	<g>
		<radialGradient id="SVGID_1_" cx="175" cy="116.2117" r="80.6846" gradientUnits="userSpaceOnUse">
			<stop  offset="0" style="stop-color:#FEFEFE"/>
			<stop  offset="0.0226" style="stop-color:#F5F0EB"/>
			<stop  offset="0.0736" style="stop-color:#E3D5C7"/>
			<stop  offset="0.1309" style="stop-color:#D3BDA7"/>
			<stop  offset="0.1943" style="stop-color:#C6A88B"/>
			<stop  offset="0.2658" style="stop-color:#BB9875"/>
			<stop  offset="0.3494" style="stop-color:#B38B64"/>
			<stop  offset="0.4527" style="stop-color:#AD8259"/>
			<stop  offset="0.5976" style="stop-color:#AA7D52"/>
			<stop  offset="1" style="stop-color:#A97C50"/>
		</radialGradient>
		<path class="st26" d="M286.49,107.46c-4.12-0.29-8.25-0.63-12.37-0.87c-8.03-0.47-16.06-0.81-24.08-1.35
			c-3.16-0.21-4.97,1.27-6.23,3.91c-1.58,3.29-1.98,6.7-1.19,10.26c0.51,2.28,1.72,3.84,4.12,4.41c10.31,2.46,20.62,4.98,30.93,7.46
			c1.73,0.42,3.47,0.79,5.21,1.19c0.01,0.13,0.02,0.25,0.02,0.38c-1.17,0.18-2.35,0.58-3.5,0.51c-4.71-0.3-9.43-0.54-14.09-1.17
			c-6.68-0.91-13.34-2.06-19.97-3.27c-2.44-0.45-4.82-1.29-7.16-2.13c-2.71-0.96-4.6-2.87-5.68-5.56c-0.09-0.22-0.22-0.42-0.29-0.64
			c-1.77-5.25-5.79-7.25-10.96-7.6c-2.29-0.16-4.58-0.3-6.79-0.44c-0.73,2.04-1.33,3.98-2.1,5.85c-0.83,2-1.98,3.81-3.77,5.12
			c-1.29,0.94-2.74,1.45-4.3,1.11c-3.08-0.66-6.14-1.43-9.2-2.21c-0.67-0.17-1.29-0.55-1.93-0.84c-2.18-0.98-3.31-2.59-3.25-5.05
			c0.04-1.28-0.12-2.56-0.2-3.97c-0.95,0.05-1.82,0.1-2.66,0.14c-0.22,1.96-0.4,3.78-0.65,5.59c-0.1,0.77-0.29,1.54-0.54,2.27
			c-1,3.04-2.58,4.23-5.76,3.93c-3.13-0.3-6.24-0.88-9.35-1.41c-0.75-0.13-1.47-0.5-2.19-0.81c-1.6-0.68-2.54-1.86-2.75-3.63
			c-0.17-1.43-0.43-2.84-0.67-4.35c-0.99,0.08-1.91,0.16-2.93,0.24c0,0.51,0.01,0.92,0,1.33c-0.06,1.99,0.04,3.99-0.21,5.95
			c-0.4,3.18-2.02,4.56-5.19,4.81c-3.63,0.28-7.25,0.32-10.83-0.48c-2.21-0.49-3.74-1.6-4.25-3.94c-0.36-1.63-0.89-3.22-1.37-4.93
			c-0.75,0.1-1.46,0.19-2.2,0.29c-0.08,1.73-0.08,3.4-0.26,5.05c-0.11,1.04-0.37,2.08-0.73,3.06c-0.9,2.42-2.58,3.89-5.24,4.26
			c-3.72,0.52-7.43,0.91-11.19,0.43c-2.18-0.28-3.8-1.2-4.58-3.41c-0.63-1.76-1.44-3.45-2.24-5.31c-3.22,0.63-6.46,1.27-9.76,1.92
			c0.21,1.08,0.43,2.06,0.6,3.04c0.22,1.35-0.33,2.33-1.46,3.07c-1.1,0.72-2.15,0.53-3.01-0.26c-3-2.73-5.96-2.3-9.19-0.34
			c-4.67,2.83-9.43,5.5-14.22,8.14c-1.7,0.93-3.53,1.66-5.37,2.29c-2.71,0.92-5.08,0.18-6.72-1.88c-1.67-2.1-1.87-4.86-0.52-7.24
			c1.36-2.41,3.52-3.8,6.05-4.72c3.82-1.38,7.82-1.81,11.83-2.08c3.08-0.2,6.16-0.31,9.24-0.49c3.27-0.19,4.68-1.45,5.28-4.7
			c0.39-2.14,2.35-3.27,4.38-2.44c0.41,0.17,0.79,0.66,0.98,1.09c0.49,1.1,0.87,2.25,1.36,3.55c3.08-0.61,6.23-1.23,9.43-1.86
			c-0.81-2.5-1.6-4.86-2.32-7.23c-0.79-2.58-0.36-4,1.9-5.54c3.75-2.55,7.95-3.75,12.49-3.62c1.36,0.04,2.73,0.19,4.07,0.44
			c3.98,0.76,6.31,3.34,7.52,7.07c0.32,1,0.55,2.03,0.78,3.06c0.41,1.79,0.39,1.8,2.36,1.26c-0.2-1-0.42-2.01-0.61-3.02
			c-0.46-2.41-0.88-4.84-1.37-7.24c-0.4-1.96,0.35-3.45,1.81-4.64c2.41-1.96,5.29-2.79,8.27-3.33c2.25-0.41,4.48-0.47,6.73,0.15
			c2.34,0.65,3.98,2.04,5.02,4.22c1.37,2.88,1.69,5.99,2.09,9.08c0.08,0.65,0.17,1.31,0.28,2.12c1-0.09,1.94-0.17,2.98-0.27
			c-0.17-2.25-0.35-4.38-0.48-6.51c-0.11-1.71-0.14-3.43-0.26-5.15c-0.14-2.07,0.81-3.52,2.53-4.53c2.56-1.51,5.41-1.96,8.31-2.13
			c2.15-0.12,4.27,0.05,6.34,0.81c2.77,1.02,4.6,2.91,5.09,5.77c0.45,2.6,0.51,5.26,0.72,7.9c0.05,0.69,0.01,1.39,0.01,2.12
			c0.9,0,1.7,0,2.62,0c0.02-0.49,0.04-0.9,0.06-1.32c0.14-3.43,0.28-6.86,0.4-10.3c0.06-1.74,0.9-3.04,2.41-3.73
			c1.36-0.63,2.84-1.14,4.32-1.37c4.94-0.78,9.63,0.01,13.96,2.63c3.29,1.99,4.53,5.05,4.54,8.7c0.01,1.75-0.23,3.49-0.37,5.43
			c3.83-0.07,7.66,1.17,11.46-0.1c1.29-0.43,2.5-1.22,3.61-2.03c1.03-0.75,1.92-1.72,2.79-2.66c3.31-3.59,7.46-5.3,12.26-5
			c5.33,0.33,10.66,0.83,15.94,1.57c6.41,0.9,12.78,2.08,19.14,3.26c1.67,0.31,3.26,1.03,4.87,1.63c0.55,0.21,1.04,0.61,1.55,0.92
			C286.58,107.26,286.53,107.36,286.49,107.46z M176.43,95.94c-3.49-1.39-8.13,1.47-8.55,5.07c-0.1,0.82-0.24,1.86,0.7,2.13
			c0.66,0.19,1.67-0.01,2.24-0.42C173.2,100.96,174.73,98.45,176.43,95.94z M201.91,120.78c-0.62-0.8-1.1-1.85-1.9-2.36
			c-2.07-1.29-4.27-2.39-6.46-3.47c-0.9-0.44-1.52,0.08-1.24,1.07c0.28,0.99,0.64,2.09,1.32,2.79c1.87,1.9,4.38,2.6,6.91,3.14
			C201.24,122.11,201.65,121.72,201.91,120.78z M161.59,118.47c-0.22-0.54-0.43-1.08-0.65-1.62c-0.53,0.26-1.09,0.49-1.59,0.8
			c-0.26,0.15-0.47,0.42-0.65,0.67c-1.48,2.05-2.95,4.1-4.4,6.17c-0.2,0.28-0.2,0.69-0.3,1.04c0.39,0.08,0.81,0.29,1.18,0.23
			C158.69,125.27,161.34,122.18,161.59,118.47z M114.4,117.28c0.13-0.18,0.22-0.26,0.26-0.37c1.23-3.15,1.19-6.4,0.73-9.67
			c-0.06-0.39-0.59-0.94-0.94-0.98c-0.33-0.03-0.89,0.45-1.06,0.83C111.9,110.61,112.29,113.97,114.4,117.28z M212.96,103.62
			c-0.39-2.28-0.91-4.28-2.18-5.97c-0.47-0.63-1.31-1.01-2.04-1.39c-0.2-0.1-0.74,0.12-0.88,0.35c-0.13,0.21-0.07,0.73,0.11,0.93
			c1.57,1.78,2.04,3.99,2.5,6.2c0.17,0.79,0.25,1.89,1.31,1.68C212.28,105.32,212.58,104.25,212.96,103.62z M68.04,128.22
			c-2.61,1.64-4.09,4.79-3.22,6.89C65.89,132.83,66.99,130.49,68.04,128.22z"/>
		
			<radialGradient id="SVGID_00000038387378412873148060000016817034417180175019_" cx="173.9635" cy="63.3335" r="26.7123" gradientUnits="userSpaceOnUse">
			<stop  offset="0" style="stop-color:#FCF380"/>
			<stop  offset="4.640162e-03" style="stop-color:#FBF07F"/>
			<stop  offset="0.0833" style="stop-color:#EDC669"/>
			<stop  offset="0.1668" style="stop-color:#E1A157"/>
			<stop  offset="0.2574" style="stop-color:#D68147"/>
			<stop  offset="0.3552" style="stop-color:#CE683A"/>
			<stop  offset="0.4629" style="stop-color:#C7542F"/>
			<stop  offset="0.5858" style="stop-color:#C34628"/>
			<stop  offset="0.737" style="stop-color:#C03D24"/>
			<stop  offset="1" style="stop-color:#BF3B23"/>
		</radialGradient>
		<path style="fill:url(#SVGID_00000038387378412873148060000016817034417180175019_);" d="M165.94,48.06
			c-1.51,2.08-1.89,4.25-1.33,6.57c0.41,1.69,1.43,2.68,2.76,2.81c1.47,0.15,2.28-0.65,1.98-2.1c-0.19-0.91-0.6-1.77-0.86-2.67
			c-0.43-1.49-0.97-2.98-1.19-4.51c-0.53-3.59,0.52-6.7,3.16-9.26c1.9-1.85,4.05-3.26,6.84-4.18c-0.28,0.34-0.4,0.5-0.53,0.64
			c-0.16,0.17-0.33,0.33-0.49,0.5c-1.61,1.72-1.79,3.18-0.55,5.18c0.68,1.09,1.45,2.13,2.22,3.16c1.71,2.31,2.36,4.79,1.38,7.6
			c-0.23,0.66-0.35,1.37-0.41,2.06c-0.21,2.45,1.89,4.56,4.34,4.42c1.69-0.1,2.73-1.4,2.33-3.05c-0.16-0.67-0.5-1.31-0.81-1.93
			c-0.89-1.78-0.81-3.47,0.18-5c1.12,1,2.26,2.02,3.41,3.03c1.11,0.97,2.35,1.83,3.34,2.91c1.59,1.73,1.77,3.77,0.42,5.68
			c-1.16,1.65-2.58,3.12-3.92,4.64c-1.47,1.67-3.01,3.27-4.44,4.96c-0.58,0.69-0.92,1.56-0.33,2.48c1.01,1.58,2.57,1.77,3.56,0.18
			c1.09-1.74,1.93-3.64,2.72-5.54c1.42-3.4,3.78-5.08,7.48-5.1c0.42,0,0.84,0.07,1.43,0.12c-0.28,0.36-0.44,0.6-0.64,0.81
			c-2.39,2.52-3.03,5.44-2.12,8.77c0.55,1.99,1.18,3.99,1.43,6.02c0.62,4.9-1.7,8.67-5.07,11.91c-1.04,1-2.28,1.79-3.54,2.56
			c1.44-2.54,1.79-5.15,1.2-8.26c-0.26,0.84-0.29,1.47-0.61,1.87c-0.56,0.7-1.19,1.48-1.97,1.82c-1.17,0.5-2.52,0.47-3.52-0.5
			c-0.95-0.92-0.74-2.13-0.49-3.31c0.29-1.4,0.69-2.81,0.73-4.23c0.06-1.84-0.87-3.34-2.5-4.75c0.41,1.7-0.05,2.96-0.8,4.16
			c-0.77,1.22-1.66,1.5-2.99,0.81c-1.95-1.02-3.06-2.76-3.24-4.86c-0.12-1.5,0.26-3.07,0.55-4.58c0.18-0.95,0.67-1.83,0.93-2.77
			c0.46-1.66,0.1-3.13-1.34-4.5c-0.32,2.99-2.28,4.69-4.2,6.42c-2.77,2.5-3.16,4.7-1.47,8.04c0.23,0.45,0.55,0.9,0.62,1.38
			c0.06,0.38-0.21,0.81-0.33,1.21c-0.33-0.2-0.8-0.33-0.95-0.62c-0.49-0.97-0.8-2.03-1.28-3.01c-0.37-0.74-0.9-1.39-1.48-2.03
			c0.23,3.52-1.64,6.03-3.68,8.46c-0.15,0.18-0.31,0.35-0.48,0.52c-2.44,2.43-3.8,5.17-2.19,8.9c-3.59-0.92-6.38-2.47-8.17-5.5
			c-1.88-3.19-2.03-6.7-1.52-10.22c0.31-2.11,0.89-4.19,1.49-6.25c0.85-2.92,1.55-5.81,0.26-8.8c0.1-0.08,0.2-0.15,0.3-0.23
			c0.52,0.55,1.27,1.02,1.5,1.68c0.46,1.3,0.75,2.7,0.9,4.08c0.25,2.32,0.26,4.67,0.53,6.99c0.2,1.63,1.03,3.03,2.42,3.99
			c0.33,0.23,0.85,0.17,1.28,0.25c0.06-0.43,0.29-0.93,0.15-1.29c-0.35-0.9-0.8-1.78-1.33-2.59c-1.3-2-1.61-4.12-0.86-6.37
			c0.34-1.03,0.76-2.05,1.2-3.05c1.41-3.16,1.45-3.57,0.49-6.72c0.09-0.05,0.18-0.1,0.27-0.15c0.55,0.99,1.2,1.94,1.63,2.98
			c0.46,1.11,0.73,2.3,1.06,3.46c0.32,1.14,0.61,2.28,1.11,3.42c1.13-0.98,1.6-2.2,1.37-3.53c-0.17-1.01-0.66-1.98-1.14-2.9
			c-0.46-0.9-1.13-1.69-1.63-2.57C157.83,53.86,160.28,48.91,165.94,48.06z M193.91,52.83c-1.18-0.99-2.25-2.12-3.3-3.12
			c-0.21,1.48,0.48,2.8,1.7,3.83c1.9,1.61,2.68,3.43,1.33,5.83C196.41,57.33,196.44,54.97,193.91,52.83z M156.53,58.39
			c-0.93-0.95-1.82-1.93-2.68-2.84c-0.65,1.29-0.52,2.18,0.7,3.29c1.22,1.11,2.34,2.24,1.69,4.37
			C157.9,61.78,157.89,59.78,156.53,58.39z M177.93,40.04c1.22,2.21,2.45,4.42,3.63,6.56C182.07,43.67,179.4,42.15,177.93,40.04z"/>
	</g>
</g>
</svg>
