<?xml version="1.0" encoding="utf-8"?>
<!-- Generator: Adobe Illustrator 27.8.1, SVG Export Plug-In . SVG Version: 6.00 Build 0)  -->
<svg version="1.1" xmlns="http://www.w3.org/2000/svg" xmlns:xlink="http://www.w3.org/1999/xlink" x="0px" y="0px"
	 viewBox="0 0 350 230" style="enable-background:new 0 0 350 230;" xml:space="preserve">
<style type="text/css">
	.st0{fill:#3A2C00;}
	.st1{fill:#00003D;}
	.st2{fill:#F2EAC9;}
	.st3{fill:#D9F4CE;}
	.st4{fill:#FCF1C5;}
	.st5{fill:#FFFBEB;}
	.st6{fill:#E6F5FC;}
	.st7{fill:#EFFFE9;}
	.st8{fill:#FFF9E1;}
	.st9{fill:#FFFAE3;}
	.st10{fill:#E9F6FF;}
	.st11{fill:#FFF9E6;}
	.st12{fill:#FFF3C2;}
	.st13{fill:#DEFFFA;}
	.st14{fill:#FEFFE9;}
	.st15{fill:#D6FCD6;}
	.st16{fill:#E6FFE8;}
	.st17{fill:#FCF2D4;}
	.st18{fill:#F9FFE1;}
	.st19{fill:#FFFFE9;}
	.st20{fill:#191919;}
	.st21{fill:#FFFFFF;}
	.st22{fill:#FFCA55;}
	.st23{fill:#006865;}
	.st24{fill:#00AEB7;}
	.st25{fill:#EDC599;}
	.st26{fill:url(#SVGID_1_);}
	.st27{fill:#250B00;}
	.st28{fill:#FFDBD4;}
	.st29{fill:#231F20;}
	.st30{fill:#7F7F7F;}
	.st31{fill:#FFD468;}
	.st32{fill:#303030;}
	.st33{fill:#007D54;}
	.st34{fill:#EE3631;}
	.st35{fill:#2B2B2B;}
	.st36{fill:#FFB000;}
	.st37{opacity:0.35;fill:#FFFFFF;}
	.st38{fill:#E09C05;}
	.st39{fill:#A8112B;}
	.st40{fill:#FCB040;}
	.st41{fill:#3DA1D8;}
	.st42{fill:#0C8EBC;}
	.st43{fill:#EFC6A3;}
	.st44{fill:#B0DFFF;}
	.st45{fill-rule:evenodd;clip-rule:evenodd;fill:#FEFEFE;}
	.st46{fill:#006284;}
	.st47{fill:#5B5B5B;}
	.st48{fill:#EACAB0;}
	.st49{fill:#442B18;}
	.st50{fill:#663412;}
	.st51{fill:#C18B63;}
	.st52{fill:#3A1801;}
	.st53{fill:#616D0B;}
	.st54{fill:#98B11F;}
	.st55{fill:#606060;}
	.st56{fill:#E0E0E0;}
	.st57{fill-rule:evenodd;clip-rule:evenodd;fill:#FFE183;}
	.st58{fill-rule:evenodd;clip-rule:evenodd;fill:#FFA617;}
	.st59{fill:#FF6745;}
	.st60{fill-rule:evenodd;clip-rule:evenodd;fill:#63A642;}
	.st61{fill-rule:evenodd;clip-rule:evenodd;fill:#925056;}
	.st62{fill-rule:evenodd;clip-rule:evenodd;fill:#2C2F38;}
	.st63{fill:#A5A5A5;}
	.st64{fill:#FFEBB8;}
	.st65{fill:#FFA617;}
	.st66{fill:#AF121A;}
	.st67{fill:#C49718;}
	.st68{fill:#FFD961;}
	.st69{fill:#F93B00;}
	.st70{fill:#FFC02E;}
	.st71{fill:#FA6500;}
	.st72{fill:#9BB200;}
	.st73{fill:#FFF7D6;}
	.st74{fill:#3E9AFF;}
	.st75{fill:#3ED698;}
	.st76{fill:#0F935A;}
	.st77{fill:#ED1C24;}
	.st78{fill:#F68712;}
	.st79{fill:#5B0000;}
	.st80{fill-rule:evenodd;clip-rule:evenodd;fill:#FB6218;}
	.st81{fill:#795B4B;}
	.st82{fill:#513D35;}
	.st83{fill:#661F00;}
	.st84{fill:#3F0000;}
	.st85{fill-rule:evenodd;clip-rule:evenodd;fill:#FFFFFF;}
	.st86{fill:#FFC92F;}
	.st87{fill:#3D1109;}
	.st88{fill:#424241;}
	.st89{fill:none;stroke:#FFDE59;stroke-width:4;}
	.st90{fill:#FFDE59;}
	.st91{fill-rule:evenodd;clip-rule:evenodd;fill:#333231;}
	.st92{fill-rule:evenodd;clip-rule:evenodd;}
	.st93{fill:#FF6D00;}
	.st94{fill:#040507;}
	.st95{fill:#4D433A;}
	.st96{fill:#FF8B00;}
	.st97{filter:url(#Adobe_OpacityMaskFilter);}
	.st98{fill-opacity:0.3;}
	.st99{mask:url(#_x35_0ea534a37_00000039117605408314366780000006090329138646347946_);fill:#EBB22F;}
	.st100{fill:#F39200;}
	.st101{fill:#1D1D1B;}
	.st102{fill:#201F1F;}
	.st103{fill:url(#SVGID_00000042723443508926430650000002561288979682487680_);}
	.st104{fill:url(#SVGID_00000057829660073687712270000015285652131359385501_);}
	.st105{fill:url(#SVGID_00000062878507296585839730000011079340975774716804_);}
	.st106{fill:url(#SVGID_00000000932100872910966560000000093575740488167599_);}
	.st107{fill:url(#SVGID_00000133497291492608034620000014986270349391788734_);}
	.st108{fill:url(#SVGID_00000174568974044534071550000002494956505208799119_);}
	.st109{fill:url(#SVGID_00000081611771414211489210000000406330359562023091_);}
	.st110{fill:url(#SVGID_00000065047985227143078520000012829095479661302935_);}
	.st111{fill:url(#SVGID_00000060003439628551680390000002922483426705841807_);}
	.st112{fill:url(#SVGID_00000044878450632886937870000000309373705717376950_);}
	.st113{fill-rule:evenodd;clip-rule:evenodd;fill:url(#SVGID_00000039822827913608268780000005372044955053607085_);}
	.st114{fill:url(#SVGID_00000100347227676818764560000001830350631953869721_);}
	.st115{fill:url(#SVGID_00000117645015425029858420000007180383136223103932_);}
	.st116{fill:url(#SVGID_00000036933208014707349500000005394740051524971182_);}
	.st117{fill:url(#SVGID_00000000939006680308424230000005105586528329328780_);}
	.st118{fill:#F7941D;}
	.st119{fill:url(#SVGID_00000089564863012553647210000016496878392119623057_);}
	.st120{fill:#F2BA58;}
	.st121{fill:#8FD2CA;}
	.st122{fill:#8DC63F;}
	.st123{fill:#EA715E;}
	.st124{fill:url(#SVGID_00000109020513081122961890000010455932216321861559_);}
	.st125{fill:#A97C50;}
	.st126{fill:#F2F2F2;}
	.st127{fill:#096023;}
	.st128{fill:#191919;stroke:#191919;stroke-linecap:round;stroke-linejoin:round;stroke-miterlimit:10;}
	.st129{fill:#F2F2F2;stroke:#F2F2F2;stroke-linecap:round;stroke-linejoin:round;stroke-miterlimit:10;}
	.st130{fill-rule:evenodd;clip-rule:evenodd;fill:#594200;}
	.st131{fill-rule:evenodd;clip-rule:evenodd;fill:#3D1F11;}
	.st132{fill:#AA684B;}
	.st133{fill-rule:evenodd;clip-rule:evenodd;fill:#F2D6AF;}
	.st134{fill-rule:evenodd;clip-rule:evenodd;fill:#A87D46;}
	.st135{fill-rule:evenodd;clip-rule:evenodd;fill:#C10016;}
	.st136{fill-rule:evenodd;clip-rule:evenodd;fill:#8F1610;}
	.st137{fill-rule:evenodd;clip-rule:evenodd;fill:#EBEBEB;}
	.st138{fill-rule:evenodd;clip-rule:evenodd;fill:#D8D8D8;}
	.st139{fill:#530802;}
	.st140{fill:#EBA23C;}
	.st141{fill:#D5781F;}
	.st142{fill:url(#SVGID_00000038380433086426223240000013323123645995966909_);}
	.st143{fill:#972910;}
	.st144{fill:#F5B52F;}
	.st145{fill:#B34418;}
	.st146{fill:url(#SVGID_00000126308950751233715850000013835699806799959229_);}
	.st147{fill:url(#SVGID_00000178203316963864406640000009070452497177388172_);}
	.st148{fill:#764E48;}
	.st149{fill:#BE5D2D;}
	.st150{fill:#F29950;}
	.st151{fill:url(#SVGID_00000091007894533150511590000010942581317950877611_);}
	.st152{fill:#5B2413;}
	.st153{fill:#FEFEFE;}
	.st154{fill:#485359;}
	.st155{fill:#FF9369;}
	.st156{fill:url(#SVGID_00000026152673829022610830000010280642898581500038_);}
	.st157{fill:url(#SVGID_00000070081103019601834510000017067040038508833202_);}
	.st158{fill:url(#SVGID_00000052096247852871244510000011853006692784316315_);}
	.st159{fill:url(#SVGID_00000165209733334409969810000007802534013848989108_);}
	.st160{fill:url(#SVGID_00000144307556779095326490000009323205103175892359_);}
	.st161{fill:#D60980;}
	.st162{fill:url(#SVGID_00000011032873751395194780000010506640016355897258_);}
	.st163{fill-rule:evenodd;clip-rule:evenodd;fill:#CAB863;}
	.st164{fill-rule:evenodd;clip-rule:evenodd;fill:#00648E;}
	.st165{fill:url(#SVGID_00000150801641138825739810000003282321103709473164_);}
	.st166{fill:url(#SVGID_00000145765008824936994190000006842952849825623977_);}
	.st167{fill:url(#SVGID_00000158736117770954055500000009078260141334577819_);}
</style>
<g id="Layer_1">
</g>
<g id="Layer_2">
</g>
<g id="Layer_3">
</g>
<g id="Layer_4">
</g>
<g id="Layer_5">
</g>
<g id="Layer_6">
</g>
<g id="Layer_7">
</g>
<g id="Layer_8">
</g>
<g id="Layer_9">
</g>
<g id="Layer_10">
</g>
<g id="Layer_11">
</g>
<g id="Layer_12">
</g>
<g id="Layer_13">
</g>
<g id="Layer_14">
</g>
<g id="Layer_15">
	<radialGradient id="SVGID_1_" cx="175" cy="94.4028" r="66.8088" gradientUnits="userSpaceOnUse">
		<stop  offset="0" style="stop-color:#FC4F80"/>
		<stop  offset="0.0864" style="stop-color:#E54379"/>
		<stop  offset="0.2072" style="stop-color:#CB3671"/>
		<stop  offset="0.3415" style="stop-color:#B72C6B"/>
		<stop  offset="0.4941" style="stop-color:#A92466"/>
		<stop  offset="0.6808" style="stop-color:#A02064"/>
		<stop  offset="1" style="stop-color:#9E1F63"/>
	</radialGradient>
	<path class="st26" d="M166.07,148.76c1.1,5.09,2.11,10.14,3.34,15.14c0.23,0.92,1.35,1.61,2.06,2.41c0.64-0.85,1.73-1.64,1.85-2.55
		c0.48-3.63,0.67-7.31,0.95-10.96c0.12-1.66,0.2-3.31,0.3-5.08C171.59,148.08,168.9,148.41,166.07,148.76z M192.84,87.52
		c-4.11-0.54-8.25-0.84-12.37-1.35c-7.02-0.86-14.02-1.78-21.03-2.75c-0.78-0.11-1.93-0.53-2.18-1.12
		c-1.11-2.64-3.33-3.25-5.76-3.47c-3.11-0.29-6.23-0.46-9.35-0.63c-0.28-0.02-0.59,0.29-1.41,0.73c1.3,0.31,2.04,0.54,2.8,0.66
		c3.29,0.54,6.6,0.94,9.84,1.66c0.84,0.19,2.01,1.32,2.04,2.06c0.04,0.81-0.91,1.99-1.73,2.41c-1.01,0.52-2.37,0.67-3.53,0.56
		c-2.09-0.21-4.13-0.77-6.21-1.11c-1.22-0.21-2.45-0.3-3.68-0.44c-0.04,0.29-0.09,0.58-0.14,0.87c3.68,0.81,7.33,1.78,11.05,2.36
		c2.06,0.32,3.99-0.52,5.42-2.26c0.33-0.41,1.09-0.74,1.61-0.69c2.23,0.23,4.44,0.61,6.65,0.95c9.27,1.41,18.54,2.84,27.82,4.2
		c1.09,0.16,2.85,0.99,3.12-0.69C196.1,87.53,194.04,87.68,192.84,87.52z M228.08,47.78c-9.81-2.44-19.65-4.82-29.46-7.3
		c-0.86-0.22-1.96-0.89-2.26-1.62c-3.56-8.68-10.74-13.41-18.65-17.38c-0.15-0.07-0.37,0.02-0.92,0.05c2.51,4.12,3.16,8.44,2.2,13
		c1.93-3.62,1.16-7.24,0.03-10.86c0.2-0.18,0.41-0.36,0.61-0.53c2.89,2.09,5.98,3.97,8.64,6.32c9.74,8.63,10.88,19.29,4.21,30.27
		c-0.56,0.93-1.29,1.78-1.75,2.75c-2.31,4.9-4.64,9.79-6.74,14.78c-0.38,0.89-0.07,2.75,0.6,3.23c0.83,0.6,2.42,0.5,3.57,0.22
		c0.98-0.24,1.87-1.09,2.65-1.82c4.97-4.61,8.28-10.2,9.89-16.79c0.15-0.6,0.38-1.19,0.67-2.06c0.36,0.53,0.57,0.72,0.65,0.95
		c2.93,8.77,4.74,17.38,0.73,26.55c-6.46,14.77-17.77,22.21-33.44,23.45c-10.67,0.84-20.69-2.05-30.57-6.28
		c-2.59,3.91-5.2,7.88-7.87,11.81c-0.36,0.53-1.13,1.27-1.58,1.19c-2.17-0.39-4.29-1.03-6.68-1.65c2.53-3.25,4.81-6.13,7.04-9.03
		c1.64-2.12,2.94-4.62,6.15-5.15c-0.86-0.48-1.72-0.82-2.4-0.6c-3.55,1.14-7.12,2.26-10.55,3.69c-8.29,3.47-9.89,8.08-5.54,15.93
		c3.77,6.84,9.2,12.25,15.36,16.95c1,0.76,1.37,1.44,1.07,2.71c-0.44,1.84-0.73,3.74-0.91,5.63c-0.53,5.67-1.07,11.35-1.4,17.04
		c-0.09,1.51-0.29,3.7,1.79,4.07c2.09,0.37,2.53-1.74,3.05-3.22c2.17-6.15,4.25-12.33,6.36-18.5c0.23-0.67,0.46-1.34,0.66-1.93
		c18.2,4.86,35.63,3.74,52.5-4.66c1.49,3.21,2.73,6.22,4.25,9.08c2.16,4.07,4.44,8.08,6.84,12.03c0.74,1.22,2.02,2.84,3.56,1.71
		c0.76-0.56,0.89-2.61,0.61-3.83c-1.13-5.03-2.53-10.01-3.82-15.01c-0.18-0.67-0.26-1.37-0.42-2.25c2.47,0,4.64,0.07,6.8-0.02
		c2.46-0.1,4.27-1.22,5.04-3.7c1.09-3.5,2.48-6.94,3.23-10.51c3.51-16.75,6.93-33.53,10.2-50.33c1.24-6.39,2.26-12.86,2.88-19.33
		C235.47,51.34,233.53,49.14,228.08,47.78z M206.45,89.73c2.99-13.5,5.99-27,9.05-40.5c0.13-0.57,0.83-1.02,1.27-1.52
		c0.17,0.68,0.61,1.42,0.48,2.04c-2.48,11.18-5.04,22.35-7.57,33.52c-0.42,1.85-0.65,3.75-1.14,5.57c-0.27,0.99-0.91,1.87-1.38,2.8
		c-0.24-0.08-0.49-0.16-0.73-0.25C206.43,90.84,206.33,90.26,206.45,89.73z M200.26,95.73c1.77,0.02,3.92,0.11,5.23,1.1
		c3.84,2.88,7.34,6.21,11.33,9.68c-2.17,1.01-4.04,1.94-5.97,2.73c-0.43,0.18-1.26,0.03-1.59-0.29c-3.67-3.6-7.28-7.26-11.05-11.05
		C198.95,97.07,199.62,95.72,200.26,95.73z M197.53,99.1c3.33,3.7,6.62,7.35,10.15,11.27c-3.1,0.82-5.88,1.59-8.68,2.24
		c-0.36,0.09-1.02-0.29-1.26-0.64c-1.76-2.64-3.44-5.34-4.96-7.72C194.42,102.48,195.92,100.85,197.53,99.1z M191.22,105.02
		c1.49,2.75,2.97,5.46,4.57,8.41c-3.46,0.7-6.63,1.34-10.01,2.02c-0.73-2.25-1.36-4.22-2-6.2
		C186.32,107.82,188.71,106.46,191.22,105.02z M181.52,110.2c0.36,1.84,0.72,3.67,1.14,5.8c-3.61,0.49-6.83,0.92-10.27,1.38
		c-0.26-1.77-0.49-3.33-0.72-4.89C175.04,111.71,178.18,110.98,181.52,110.2z M158.29,112.07c3.32,0.23,6.52,0.45,9.9,0.68v5.07
		c-3.18,0.24-6.43,0.48-9.9,0.73V112.07z M155.81,111.58c-0.27,2.36-0.53,4.64-0.82,7.1h-10.24c0.96-3.11,1.9-6.18,2.9-9.43
		C150.43,110.04,153.06,110.79,155.81,111.58z M139.73,105.71c2.11,0.96,4.08,1.85,6.3,2.86c-1.24,3.3-2.45,6.57-3.75,9.81
		c-0.11,0.27-0.8,0.45-1.21,0.43c-2.83-0.11-5.66-0.28-8.87-0.45C134.83,113.94,137.27,109.84,139.73,105.71z M118.32,111.76
		c-0.18-1.91,1.29-2.91,2.79-3.62c3.09-1.47,6.23-2.83,9.35-4.24c0.09,0.14,0.18,0.28,0.27,0.42c-3,3.62-6,7.24-9.06,10.95
		C120.1,114.44,118.49,113.67,118.32,111.76z M215.43,125.07c-0.49,2.87-0.98,5.74-1.52,8.6c-0.32,1.68-1.09,1.93-2.31,0.72
		c-1.15-1.13-2.18-2.38-3.26-3.56c2.51-3.09,4.84-5.96,7.58-9.32C215.71,123.06,215.6,124.07,215.43,125.07z M217.78,111.18
		c-3.31,1.69-6.52,3.77-10.04,4.84c-19.49,5.9-39.37,9.47-59.83,8.85c-8.81-0.27-17.47-1.42-25.8-4.47
		c-0.86-0.31-1.69-0.69-2.53-1.04c0.06-0.22,0.12-0.43,0.18-0.64c0.51,0.09,1.03,0.11,1.51,0.27c12.45,4.26,25.3,4.96,38.27,4.13
		c15.79-1.01,31.28-3.95,46.53-8.04c4.32-1.15,8.36-3.36,12.63-5.13C218.49,110.27,218.25,110.94,217.78,111.18z M217.59,105.52
		c-3.54-2.87-6.98-5.67-10.43-8.47c0.08-0.21,0.16-0.42,0.24-0.64c3.26,0.92,6.67,1.51,9.75,2.84
		C220.61,100.75,220.66,102.9,217.59,105.52z M224.07,88.78c-0.69,3.51-1.47,7.01-2.2,10.51c-0.23,0.17-0.46,0.34-0.69,0.51
		c-2.13-1.96-4.42-3.8-6.37-5.93c-1.5-1.65-1.11-2.62,0.89-3.59c2.13-1.02,4.24-2.12,6.41-3.05
		C223.86,86.47,224.43,86.94,224.07,88.78z M226.98,71.99c-0.58,3.31-1.18,6.91-1.87,10.5c-0.26,1.37-1.09,1.75-2.12,0.65
		c-1.81-1.93-3.6-3.87-5.27-5.91c-1.26-1.55-0.99-2.4,0.8-3.35c2.21-1.17,4.4-2.4,6.67-3.45C226.6,69.77,227.04,70.17,226.98,71.99z
		 M230.13,54.65c-0.67,3.87-1.27,7.55-1.95,11.22c-0.27,1.46-1.15,1.66-2.13,0.62c-1.82-1.93-3.61-3.89-5.31-5.92
		c-1.06-1.27-0.99-2.43,0.7-3.27c2.31-1.14,4.55-2.42,6.86-3.56C229.3,53.26,230.21,53.31,230.13,54.65z"/>
</g>
</svg>
