<?xml version="1.0" encoding="utf-8"?>
<!-- Generator: Adobe Illustrator 27.8.1, SVG Export Plug-In . SVG Version: 6.00 Build 0)  -->
<svg version="1.1" xmlns="http://www.w3.org/2000/svg" xmlns:xlink="http://www.w3.org/1999/xlink" x="0px" y="0px"
	 viewBox="0 0 350 230" style="enable-background:new 0 0 350 230;" xml:space="preserve">
<style type="text/css">
	.st0{fill-rule:evenodd;clip-rule:evenodd;fill:#009696;}
	.st1{fill-rule:evenodd;clip-rule:evenodd;fill:#1E87B8;}
	.st2{fill-rule:evenodd;clip-rule:evenodd;fill:#676766;}
	.st3{fill:#1E87B8;}
	.st4{fill:#181C21;}
	.st5{fill-rule:evenodd;clip-rule:evenodd;fill:#0091C6;}
	.st6{fill:#0047C4;}
	.st7{fill:#00194C;}
	.st8{fill:#00A8B5;}
	.st9{fill:#635901;}
	.st10{fill:#A03100;}
	.st11{fill:#0F4D4F;}
	.st12{fill:#303000;}
	.st13{fill:#666666;}
	.st14{fill:#6096A8;}
	.st15{fill:#493203;}
	.st16{fill:#0091C6;}
	.st17{fill:#0000A0;}
	.st18{fill:#300047;}
	.st19{fill:#032A54;}
	.st20{fill:#243F00;}
	.st21{fill:#E50000;}
	.st22{fill:#242424;}
	.st23{fill:#383535;}
	.st24{fill:none;stroke:#FFFFFF;stroke-width:0.75;}
	.st25{fill:#CEAF83;}
	.st26{fill:#004C5E;}
	.st27{fill:#FFFFFF;}
	.st28{fill-rule:evenodd;clip-rule:evenodd;fill:#FFFFFF;}
	.st29{fill:#00DBFF;}
	.st30{fill:#00FFFF;}
	.st31{fill-rule:evenodd;clip-rule:evenodd;fill:#514F00;}
	.st32{fill-rule:evenodd;clip-rule:evenodd;fill:#C6A569;}
	.st33{fill-rule:evenodd;clip-rule:evenodd;}
	.st34{fill:#B38F4B;}
	.st35{fill:#11233D;}
	.st36{fill-rule:evenodd;clip-rule:evenodd;fill:#777400;}
	.st37{fill-rule:evenodd;clip-rule:evenodd;fill:#0000A3;}
	.st38{fill:#00BEF9;}
	.st39{fill-rule:evenodd;clip-rule:evenodd;fill:#00AEE7;}
	.st40{fill-rule:evenodd;clip-rule:evenodd;fill:#BE9D5D;}
	.st41{fill:#F14902;}
	.st42{display:none;}
	.st43{display:inline;fill:#FFFFCA;}
	.st44{display:inline;fill:#C7E4FF;}
	.st45{display:inline;fill:#C5FFF7;}
	.st46{display:inline;fill:#99FFA3;}
	.st47{display:inline;fill:#FAFF99;}
	.st48{display:inline;fill:#FFD599;}
	.st49{display:inline;fill:#DEFFC2;}
	.st50{display:inline;fill:#FFD3C5;}
	.st51{display:inline;fill:#BBFCFF;}
	.st52{display:inline;fill:#015959;}
	.st53{display:inline;fill:#132D4C;}
	.st54{display:inline;fill:#242424;}
	.st55{display:inline;fill:#F6E7D8;}
	.st56{display:inline;fill:#0E2442;}
	.st57{fill:#C0C0C0;}
	.st58{fill:#004AAD;}
</style>
<g id="Layer_1">
</g>
<g id="Layer_2">
</g>
<g id="Layer_3">
</g>
<g id="Layer_4">
</g>
<g id="Layer_5">
</g>
<g id="Layer_6">
</g>
<g id="Layer_7">
</g>
<g id="Layer_8">
</g>
<g id="Layer_9">
</g>
<g id="Layer_10">
</g>
<g id="Layer_11">
</g>
<g id="Layer_12">
</g>
<g id="Layer_13">
</g>
<g id="Layer_14">
</g>
<g id="Layer_15">
	<g>
		<g>
			<g>
				<path class="st36" d="M179.02,153.65v-7.21h-7.24v7.21H179.02z M171.79,144.43h7.24v-7.21h-7.24V144.43z M181.04,137.22v7.21
					h7.24v-7.21H181.04z M188.28,153.65v-7.21h-7.24v7.21H188.28z M141.8,60.87v72.45l38.23-38.08l63.73,63.48h-23.12l-40.62-40.46
					c-13.49,13.46-27,26.9-40.52,40.36l-0.1,0.1h-13.96V44.59h76.46c11,0,21.44,4.36,29.22,12.09c7.78,7.75,12.14,18.14,12.14,29.1
					c0,10.96-4.38,21.36-12.14,29.11c-2.26,2.26-4.8,4.27-7.53,5.96l-0.22,0.15l-12.13-12.09l0.46-0.2
					c2.93-1.25,5.61-3.06,7.88-5.32c4.7-4.68,7.36-10.96,7.36-17.58s-2.66-12.92-7.36-17.6c-4.7-4.68-11-7.33-17.65-7.33H141.8z"/>
			</g>
		</g>
		<path class="st37" d="M179.4,153.96v-7.21h-7.24v7.21H179.4z M172.16,144.75h7.24v-7.21h-7.24V144.75z M181.41,137.54v7.21h7.24
			v-7.21H181.41z M188.65,153.96v-7.21h-7.24v7.21H188.65z"/>
	</g>
</g>
</svg>
