<?xml version="1.0" encoding="utf-8"?>
<!-- Generator: Adobe Illustrator 27.8.1, SVG Export Plug-In . SVG Version: 6.00 Build 0)  -->
<svg version="1.1" xmlns="http://www.w3.org/2000/svg" xmlns:xlink="http://www.w3.org/1999/xlink" x="0px" y="0px"
	 viewBox="0 0 350 230" style="enable-background:new 0 0 350 230;" xml:space="preserve">
<style type="text/css">
	.st0{fill-rule:evenodd;clip-rule:evenodd;fill:#009696;}
	.st1{fill-rule:evenodd;clip-rule:evenodd;fill:#1E87B8;}
	.st2{fill-rule:evenodd;clip-rule:evenodd;fill:#676766;}
	.st3{fill:#1E87B8;}
	.st4{fill:#181C21;}
	.st5{fill-rule:evenodd;clip-rule:evenodd;fill:#0091C6;}
	.st6{fill:#0047C4;}
	.st7{fill:#00194C;}
	.st8{fill:#00A8B5;}
	.st9{fill:#635901;}
	.st10{fill:#A03100;}
	.st11{fill:#0F4D4F;}
	.st12{fill:#303000;}
	.st13{fill:#666666;}
	.st14{fill:#6096A8;}
	.st15{fill:#493203;}
	.st16{fill:#0091C6;}
	.st17{fill:#0000A0;}
	.st18{fill:#300047;}
	.st19{fill:#032A54;}
	.st20{fill:#243F00;}
	.st21{fill:#E50000;}
	.st22{fill:#242424;}
	.st23{fill:#383535;}
	.st24{fill:none;stroke:#FFFFFF;stroke-width:0.75;}
	.st25{fill:#CEAF83;}
	.st26{fill:#004C5E;}
	.st27{fill:#FFFFFF;}
	.st28{fill-rule:evenodd;clip-rule:evenodd;fill:#FFFFFF;}
	.st29{fill:#00DBFF;}
	.st30{fill:#00FFFF;}
	.st31{fill-rule:evenodd;clip-rule:evenodd;fill:#514F00;}
	.st32{fill-rule:evenodd;clip-rule:evenodd;fill:#C6A569;}
	.st33{fill-rule:evenodd;clip-rule:evenodd;}
	.st34{fill:#B38F4B;}
	.st35{fill:#11233D;}
	.st36{fill-rule:evenodd;clip-rule:evenodd;fill:#777400;}
	.st37{fill-rule:evenodd;clip-rule:evenodd;fill:#0000A3;}
	.st38{fill:#00BEF9;}
	.st39{fill-rule:evenodd;clip-rule:evenodd;fill:#00AEE7;}
	.st40{fill-rule:evenodd;clip-rule:evenodd;fill:#BE9D5D;}
	.st41{fill:#F14902;}
	.st42{display:none;}
	.st43{display:inline;fill:#FFFFCA;}
	.st44{display:inline;fill:#C7E4FF;}
	.st45{display:inline;fill:#C5FFF7;}
	.st46{display:inline;fill:#99FFA3;}
	.st47{display:inline;fill:#FAFF99;}
	.st48{display:inline;fill:#FFD599;}
	.st49{display:inline;fill:#DEFFC2;}
	.st50{display:inline;fill:#FFD3C5;}
	.st51{display:inline;fill:#BBFCFF;}
	.st52{display:inline;fill:#015959;}
	.st53{display:inline;fill:#132D4C;}
	.st54{display:inline;fill:#242424;}
	.st55{display:inline;fill:#F6E7D8;}
	.st56{display:inline;fill:#0E2442;}
	.st57{fill:#C0C0C0;}
	.st58{fill:#004AAD;}
</style>
<g id="Layer_1">
</g>
<g id="Layer_2">
</g>
<g id="Layer_3">
</g>
<g id="Layer_4">
</g>
<g id="Layer_5">
</g>
<g id="Layer_6">
</g>
<g id="Layer_7">
</g>
<g id="Layer_8">
</g>
<g id="Layer_9">
</g>
<g id="Layer_10">
</g>
<g id="Layer_11">
</g>
<g id="Layer_12">
</g>
<g id="Layer_13">
</g>
<g id="Layer_14">
</g>
<g id="Layer_15">
	<polygon points="41.3,137.64 34.05,137.64 33.86,117.98 34.28,117.98 33.88,117.58 97.63,53.82 98.07,54.26 98.47,53.85 
		162.2,117.59 157.08,122.71 98.04,63.66 41.13,120.57 	"/>
	<polygon points="163.5,189.23 163.47,196.47 35.11,195.9 35.12,194.55 34.91,194.55 34.49,151.96 41.73,151.96 42.09,188.69 	"/>
	<path class="st34" d="M89.22,129.66v7.98h7.97v-7.98H89.22z M100.33,116.39v10.14h7.97v-2.18
		C108.3,119.95,104.73,116.39,100.33,116.39z M89.22,124.35v2.18h7.97v-10.14C92.79,116.39,89.22,119.95,89.22,124.35z
		 M100.33,129.66v7.98h7.97v-7.98H100.33z M99.18,79.71l-1.41-1.36l-1.38,1.39c-12.94,13.06-25.73,26.29-37.58,40.37
		c10.58-8.87,20.63-18.32,30.57-27.89c2.84-2.74,5.64-5.53,8.45-8.3c13.1,12.36,26.87,25,40.88,36.19
		C126.43,106.16,112.61,92.61,99.18,79.71z M98.88,70.02l-1.41-1.36l-1.38,1.39C79.28,87,61.9,104.78,46.21,122.7
		c17.45-15.27,34.77-32.07,51.32-48.47c17.34,16.41,35.51,33.26,53.78,48.47C134.78,104.71,116.55,86.96,98.88,70.02z"/>
</g>
</svg>
