<?xml version="1.0" encoding="utf-8"?>
<!-- Generator: Adobe Illustrator 27.8.1, SVG Export Plug-In . SVG Version: 6.00 Build 0)  -->
<svg version="1.1" xmlns="http://www.w3.org/2000/svg" xmlns:xlink="http://www.w3.org/1999/xlink" x="0px" y="0px"
	 viewBox="0 0 350 230" style="enable-background:new 0 0 350 230;" xml:space="preserve">
<style type="text/css">
	.st0{fill:#FFFDEB;}
	.st1{fill:#FFFEF0;}
	.st2{fill:#F9F6CF;}
	.st3{fill:#FAFFD7;}
	.st4{fill:#D0F7D9;}
	.st5{fill:#D0F7E8;}
	.st6{fill:#E1FFE7;}
	.st7{fill:#FFEFD2;}
	.st8{fill:#D4F7FF;}
	.st9{fill-rule:evenodd;clip-rule:evenodd;fill:#009696;}
	.st10{fill-rule:evenodd;clip-rule:evenodd;fill:#1E87B8;}
	.st11{fill-rule:evenodd;clip-rule:evenodd;fill:#676766;}
	.st12{fill:#1E87B8;}
	.st13{fill:#181C21;}
	.st14{fill-rule:evenodd;clip-rule:evenodd;fill:#0091C6;}
	.st15{fill:#0047C4;}
	.st16{fill:#00194C;}
	.st17{fill:#00A8B5;}
	.st18{fill:#635901;}
	.st19{fill:#A03100;}
	.st20{fill:#0F4D4F;}
	.st21{fill:#303000;}
	.st22{fill:#666666;}
	.st23{fill:#6096A8;}
	.st24{fill:#493203;}
	.st25{fill:#0091C6;}
	.st26{fill:#0000A0;}
	.st27{fill:#300047;}
	.st28{fill:#032A54;}
	.st29{fill:#243F00;}
	.st30{display:none;}
	.st31{display:inline;fill:#FFFFCA;}
	.st32{display:inline;fill:#C7E4FF;}
	.st33{display:inline;fill:#C5FFF7;}
	.st34{display:inline;fill:#99FFA3;}
	.st35{display:inline;fill:#FAFF99;}
	.st36{display:inline;fill:#FFD599;}
	.st37{display:inline;fill:#DEFFC2;}
	.st38{display:inline;fill:#FFD3C5;}
	.st39{display:inline;fill:#BBFCFF;}
	.st40{display:inline;fill:#015959;}
	.st41{display:inline;fill:#132D4C;}
	.st42{display:inline;fill:#242424;}
	.st43{display:inline;fill:#F6E7D8;}
	.st44{display:inline;fill:#0E2442;}
	.st45{fill:#E50000;}
	.st46{fill:#242424;}
	.st47{fill:#383535;}
	.st48{fill:none;stroke:#FFFFFF;stroke-width:0.75;}
	.st49{fill:#CEAF83;}
	.st50{fill:#004C5E;}
	.st51{fill:#FFFFFF;}
	.st52{fill-rule:evenodd;clip-rule:evenodd;fill:#FFFFFF;}
	.st53{fill:#00DBFF;}
	.st54{fill:#00FFFF;}
	.st55{fill-rule:evenodd;clip-rule:evenodd;fill:#514F00;}
	.st56{fill-rule:evenodd;clip-rule:evenodd;fill:#C6A569;}
	.st57{fill-rule:evenodd;clip-rule:evenodd;}
	.st58{fill:#B38F4B;}
	.st59{fill:#11233D;}
	.st60{fill-rule:evenodd;clip-rule:evenodd;fill:#777400;}
	.st61{fill-rule:evenodd;clip-rule:evenodd;fill:#0000A3;}
	.st62{fill:#00BEF9;}
	.st63{fill-rule:evenodd;clip-rule:evenodd;fill:#00AEE7;}
	.st64{fill-rule:evenodd;clip-rule:evenodd;fill:#BE9D5D;}
	.st65{fill:#F14902;}
	.st66{fill:#C0C0C0;}
	.st67{fill:#004AAD;}
	.st68{fill-rule:evenodd;clip-rule:evenodd;fill:#0E003F;}
	.st69{fill-rule:evenodd;clip-rule:evenodd;fill:url(#SVGID_1_);}
	.st70{fill-rule:evenodd;clip-rule:evenodd;fill:#78808A;}
	.st71{fill:#6D1F00;}
	.st72{fill:#0E003F;}
	.st73{fill-rule:evenodd;clip-rule:evenodd;fill:url(#SVGID_00000148652427147864818440000015136928131651096486_);}
	.st74{fill-rule:evenodd;clip-rule:evenodd;fill:#751900;}
	.st75{fill-rule:evenodd;clip-rule:evenodd;fill:url(#SVGID_00000125577169117924118070000006967952280700629678_);}
	.st76{fill:url(#SVGID_00000125572151425397058120000002433413698221544374_);}
	.st77{fill-rule:evenodd;clip-rule:evenodd;fill:url(#SVGID_00000113336858310800492360000012115217273209506182_);}
	.st78{fill:url(#SVGID_00000108307959323300756270000014299229093760475029_);}
	.st79{fill:url(#SVGID_00000106852911190372026790000006777526544949216185_);}
	.st80{fill:url(#SVGID_00000060027812379525626470000018174571217502717081_);}
	.st81{fill:#191817;}
	.st82{fill:#D22F2C;}
	.st83{fill:#FEFEFE;}
	.st84{fill:url(#SVGID_00000029751415749099281160000006147782452399248051_);}
	.st85{fill:url(#SVGID_00000155141228140186672310000010018900733219241876_);}
	.st86{fill:url(#SVGID_00000162313498936437485020000002389536577152264630_);}
	.st87{fill:url(#SVGID_00000179614731142554867770000011619883955761674905_);}
	.st88{fill:url(#SVGID_00000044168125239030524200000017510486322566117292_);}
	.st89{fill:url(#SVGID_00000070798105739243071360000004370728080126171820_);}
	.st90{fill:url(#SVGID_00000183965791098874109850000007567600603624521104_);}
	.st91{fill:url(#SVGID_00000064347510029962757750000006034625777864589246_);}
	.st92{fill:#152859;}
	.st93{fill:#244900;}
	.st94{fill:#77B840;}
	.st95{fill:url(#SVGID_00000116927122592358283290000015627721068323054014_);}
	.st96{fill:url(#SVGID_00000043415797013416260090000012958215348655148673_);}
	.st97{fill:#5E7E31;}
	.st98{fill:url(#SVGID_00000169550301046892361620000014313590438363419034_);}
	.st99{fill:#73A233;}
	.st100{fill:url(#SVGID_00000178199181397894215480000001678678996823418253_);}
	.st101{fill:#F9BA85;}
	.st102{fill:url(#SVGID_00000168087508323884203660000011799463584984133017_);}
	.st103{fill:url(#SVGID_00000171704949860477993440000005307686897416744100_);}
	.st104{fill:url(#SVGID_00000106125378080088175470000004911878816635365779_);}
	.st105{fill-rule:evenodd;clip-rule:evenodd;fill:url(#SVGID_00000056388689292051594220000006414831402542366852_);}
	.st106{fill:url(#SVGID_00000021797961614676217700000015210735814369121197_);}
	.st107{fill:url(#SVGID_00000002348897991688974590000003743180464019979435_);}
	.st108{fill:url(#SVGID_00000053526512542019930160000013394985814699078063_);}
	.st109{fill-rule:evenodd;clip-rule:evenodd;fill:#FAC14C;}
	.st110{fill-rule:evenodd;clip-rule:evenodd;fill:url(#SVGID_00000083082083763917398920000017290908377305892002_);}
	.st111{fill:url(#SVGID_00000130644843537462104930000001354797900031985549_);}
	.st112{fill:#81000C;}
	.st113{fill:#FAC14C;}
	.st114{fill:#090C40;}
	.st115{fill:#751900;}
	.st116{fill:url(#SVGID_00000039132900217405875230000010473667754873917587_);}
	.st117{opacity:0.2;fill:url(#SVGID_00000012462205257316671530000003661855842847167660_);}
	.st118{fill:url(#SVGID_00000078724021464473102690000000535715708863793327_);}
</style>
<g id="Layer_1">
</g>
<g id="Layer_2">
</g>
<g id="Layer_3">
</g>
<g id="Layer_4">
</g>
<g id="Layer_5">
</g>
<g id="Layer_6">
</g>
<g id="Layer_7">
</g>
<g id="Layer_8">
</g>
<g id="Layer_9">
</g>
<g id="Layer_10">
</g>
<g id="Layer_11">
</g>
<g id="Layer_12">
</g>
<g id="Layer_13">
</g>
<g id="Layer_14">
</g>
<g id="Layer_15">
	<g>
		<g>
			<radialGradient id="SVGID_1_" cx="175.0002" cy="100.4412" r="69.7782" gradientUnits="userSpaceOnUse">
				<stop  offset="0" style="stop-color:#2BB673"/>
				<stop  offset="0.1515" style="stop-color:#1C9B5F"/>
				<stop  offset="0.3232" style="stop-color:#10854E"/>
				<stop  offset="0.5095" style="stop-color:#077541"/>
				<stop  offset="0.719" style="stop-color:#026B3A"/>
				<stop  offset="1" style="stop-color:#006838"/>
			</radialGradient>
			<path style="fill:url(#SVGID_1_);" d="M183.71,87.9c-0.74,1.65-0.18,6.97-0.18,9.19c0,6.6,0,13.19,0,19.79
				c0,2.03-0.5,6.73,0.18,8.23c12.23-0.09,24.46-0.17,36.69-0.26c3.33,0,6.65,0,9.98,0c1,0,3.12,0.3,3.77-0.18
				c-0.29-0.29-0.58-0.58-0.88-0.88c-10.97-11.97-21.95-23.93-32.92-35.9C194.8,87.9,189.25,87.9,183.71,87.9z M183.97,157.95
				c9.11,0,18.21,0,27.32,0c2.35,0,9.74,0.52,11.29-0.17c0-6.8,0-13.6,0-20.4c0-1.94,0.32-7.66-0.26-8.93
				c-12.81-0.03-25.63-0.06-38.44-0.09c-0.75,1.66-0.18,5.29-0.18,7.35c0.03,5.75,0.06,11.5,0.09,17.25
				C184.03,154.52,183.41,156.7,183.97,157.95z M205.86,136.94c2.01,0,4.03,0,6.04,0c0.03,3.94,0.06,7.88,0.09,11.82
				c-0.06,0.06-0.12,0.12-0.18,0.18c-1.53,0.03-4.97,0.47-5.95-0.26C205.86,144.76,205.86,140.85,205.86,136.94z M196.14,136.94
				c2.01,0.03,4.03,0.06,6.04,0.09c0.02,2.39,0.53,10.34-0.18,11.91c-1.66,0.02-4.57,0.42-5.87-0.18
				C196.14,144.82,196.14,140.88,196.14,136.94z M251.39,159.35c-4.93-0.06-9.87-0.12-14.8-0.18c0.03-1.58,0.06-3.15,0.09-4.73
				c3.24,0.07,9.54-0.43,8.76-3.85c-0.48-2.09-3.61-2.68-4.82-4.2c0.03-0.09,0.06-0.18,0.09-0.26c1.16-0.03,2.05-0.35,2.98-0.61
				c0.03-0.06,0.06-0.12,0.09-0.18c0-0.09,0-0.18,0-0.26c-1.49-0.78-3.13-2.49-3.85-4.03c0.09-0.09,0.18-0.18,0.26-0.26
				c1.59-0.57,3.07,0.31,4.12-0.88c-0.09-0.12-0.18-0.23-0.26-0.35c-1.33-0.45-2.56-1.67-3.33-2.71c0.15-0.32,0.29-0.64,0.44-0.96
				c-0.23,0.23-0.47,0.47-0.7,0.7c-0.03,0-0.06,0-0.09,0c-0.06,0-0.12,0-0.18,0c-0.65-0.9-1.53-2.05-1.75-3.33c0.2,0,0.41,0,0.61,0
				c0.54,0.18,1.35,0.24,1.84,0c0-0.03,0-0.06,0-0.09c-0.46-1.26-1.83-1.7-2.36-2.98c-1.03-2.47-1.14-6.21-2.71-8.23
				c-0.09,0.03-0.18,0.06-0.26,0.09c-1.13,2.41-1.31,5.43-2.36,8.06c-0.55,1.37-2.25,1.98-2.63,3.33c0.55,0.25,1.64,0.11,2.54,0.09
				c-0.61,3.27-3.56,4.83-5.95,6.39c0.03,0.15,0.06,0.29,0.09,0.44c0.7,0.2,1.4,0.41,2.1,0.61c0.76,0.03,1.52,0.06,2.28,0.09
				c-0.03,0.09-0.06,0.18-0.09,0.26c-1.35,1.56-2.25,2.68-4.03,3.85c0.06,0.09,0.12,0.18,0.18,0.26c1.08,0.32,1.92,0.69,3.41,0.7
				c-0.71,1.97-6.25,2.48-5.6,5.25c0.54,2.31,3.18,2.48,5.69,2.89c0.99,0.03,1.98,0.06,2.98,0.09c-0.03,1.63-0.06,3.27-0.09,4.9
				c-29.21,0-58.43,0-87.65,0c-8.29-0.03-16.58-0.06-24.87-0.09c-1.2-0.13-5.25,0.36-5.87-0.18c0.03-1.55,0.06-3.09,0.09-4.64
				c2.97,0.24,9.17-0.43,8.23-3.94c-0.5-1.86-3.73-2.52-4.82-4.03c0.03-0.09,0.06-0.18,0.09-0.26c1.33,0.06,2.62-0.12,3.15-0.88
				c-1.19-1.35-3.58-2.18-3.94-4.29c0.03-0.03,0.06-0.06,0.09-0.09c1.81,0.06,3.03,0.07,4.12-0.7c-0.06-0.2-0.12-0.41-0.18-0.61
				c-2.3-0.89-5.04-3.51-5.52-6.22c0.03-0.03,0.06-0.06,0.09-0.09c0.58,0.03,1.17,0.06,1.75,0.09c0.09-0.09,0.18-0.18,0.26-0.26
				c-0.28-1.2-1.54-1.82-2.01-2.98c-1.06-2.57-1.26-5.79-2.63-8.06c-1.02,0.4-0.98,2.4-1.31,3.5c-0.47,1.55-0.75,3.52-1.49,5.08
				c-0.76,0.82-1.52,1.63-2.28,2.45c0.06,0.15,0.12,0.29,0.18,0.44c0.7-0.03,1.4-0.06,2.1-0.09c-0.9,3.96-3.89,4.2-5.78,6.57
				c0.03,0.12,0.06,0.23,0.09,0.35c0.64,0.23,3.64,0.44,4.12,0.79c-0.91,1.74-2,2.7-3.68,3.68c0.28,1.41,2.05,1.07,3.24,1.31
				c0,0.03,0,0.06,0,0.09c-0.03,0.12-0.06,0.23-0.09,0.35c-1.73,0.93-7.83,4.28-3.68,6.74c1.96,1.16,4.89,0.47,7.53,1.14
				c0,0.03,0,0.06,0,0.09c-0.03,1.55-0.06,3.09-0.09,4.64c-4.79,0.06-9.57,0.12-14.36,0.18c-0.5,0.37-0.75,0.92-0.79,1.75
				c0.24,0.39,0.27,0.66,0.7,0.88c1.76,0.74,9.28,0.18,11.82,0.18c9.37,0,18.74,0,28.11,0c26.06,0,52.13,0,78.19,0
				c7.85,0,15.7,0,23.55,0c3.13,0,8.41,0.57,10.94-0.26C251.99,161,251.96,160.16,251.39,159.35z M154.2,76.08
				c1.08,0.28,1.75,1.4,2.45,2.1c2.68,2.68,5.37,5.37,8.06,8.06c2.95,0,5.9,0,8.84,0c6.48,0,12.96,0,19.44,0
				c1.56,0.24,7.16,0.48,8.41-0.09c0.03-3.82,0.06-7.65,0.09-11.47c3.18,0.06,6.36,0.12,9.54,0.18c0,7.38,0,14.77,0,22.15
				c1.9,2.04,3.79,4.09,5.69,6.13c0.03,0,0.06,0,0.09,0c0-4.87,0-9.75,0-14.62c0-4.39,0.11-8.67-0.7-12.35
				c-4.48-20.34-19.89-37.7-44.57-37.65c-1.87,0.15-3.74,0.29-5.6,0.44c-3.14,0.57-6.08,1.22-8.76,2.28
				c-16.44,6.51-29.77,21.4-29.77,44.39c0,5.72,0,11.44,0,17.16c0.35-0.35,0.7-0.7,1.05-1.05C137.04,93.19,145.62,84.64,154.2,76.08
				z M140.8,157.95c1.71,0,4.61,0.43,5.95-0.17c0-5.87,0-11.73,0-17.6c0.03-1.34,0.06-2.69,0.09-4.03
				c3.82,0.03,7.65,0.06,11.47,0.09c1.11-0.01,2.83-0.33,3.77,0.09c0.06,7.15,0.12,14.3,0.18,21.45c1.81,0.53,4.7,0.17,6.83,0.17
				c4.38-0.03,8.76-0.06,13.13-0.09c0-16.02,0-32.05,0-48.07c-5.34-5.34-10.68-10.68-16.02-16.02c-2.86-2.89-5.72-5.78-8.58-8.67
				c-0.86-0.86-2.03-2.76-3.41-2.98c-6.95,7-13.89,14.01-20.84,21.01c-2.19,2.22-4.38,4.44-6.57,6.65
				c-0.03,9.22-0.06,18.45-0.09,27.67c0,4.82,0,9.63,0,14.45c0,1.76-0.41,4.78,0.26,6.04C131.58,157.95,136.19,157.95,140.8,157.95z
				 M162.69,109.71c0.06-0.03,0.12-0.06,0.18-0.09c1.87,0.03,3.74,0.06,5.6,0.09c0.03,2.98,0.06,5.95,0.09,8.93
				c0,0.85,0.25,2.68-0.26,3.06c-0.89,0.31-4.72,0.24-5.6-0.18C162.69,117.59,162.69,113.65,162.69,109.71z M141.07,109.71
				c1.98,0,3.97,0,5.95,0c-0.03,4-0.06,8-0.09,12c-1.96-0.03-3.91-0.06-5.87-0.09C141.07,117.65,141.07,113.68,141.07,109.71z"/>
		</g>
	</g>
</g>
</svg>
