<?xml version="1.0" encoding="utf-8"?>
<!-- Generator: Adobe Illustrator 27.8.1, SVG Export Plug-In . SVG Version: 6.00 Build 0)  -->
<svg version="1.1" xmlns="http://www.w3.org/2000/svg" xmlns:xlink="http://www.w3.org/1999/xlink" x="0px" y="0px"
	 viewBox="0 0 350 230" style="enable-background:new 0 0 350 230;" xml:space="preserve">
<style type="text/css">
	.st0{fill-rule:evenodd;clip-rule:evenodd;fill:#009696;}
	.st1{fill-rule:evenodd;clip-rule:evenodd;fill:#1E87B8;}
	.st2{fill-rule:evenodd;clip-rule:evenodd;fill:#676766;}
	.st3{fill:#1E87B8;}
	.st4{fill:#181C21;}
	.st5{fill-rule:evenodd;clip-rule:evenodd;fill:#0091C6;}
	.st6{fill:#0047C4;}
	.st7{fill:#00194C;}
	.st8{fill:#00A8B5;}
	.st9{fill:#635901;}
	.st10{fill:#A03100;}
	.st11{fill:#0F4D4F;}
	.st12{fill:#303000;}
	.st13{fill:#666666;}
	.st14{fill:#6096A8;}
	.st15{fill:#493203;}
	.st16{fill:#0091C6;}
	.st17{fill:#0000A0;}
	.st18{fill:#300047;}
	.st19{fill:#032A54;}
	.st20{fill:#243F00;}
	.st21{fill:#E50000;}
	.st22{fill:#242424;}
	.st23{fill:#383535;}
	.st24{fill:none;stroke:#FFFFFF;stroke-width:0.75;}
	.st25{fill:#CEAF83;}
	.st26{fill:#004C5E;}
	.st27{fill:#FFFFFF;}
	.st28{fill-rule:evenodd;clip-rule:evenodd;fill:#FFFFFF;}
	.st29{fill:#00DBFF;}
	.st30{fill:#00FFFF;}
	.st31{fill-rule:evenodd;clip-rule:evenodd;fill:#514F00;}
	.st32{fill-rule:evenodd;clip-rule:evenodd;fill:#C6A569;}
	.st33{fill-rule:evenodd;clip-rule:evenodd;}
	.st34{fill:#B38F4B;}
	.st35{fill:#11233D;}
	.st36{fill-rule:evenodd;clip-rule:evenodd;fill:#777400;}
	.st37{fill-rule:evenodd;clip-rule:evenodd;fill:#0000A3;}
	.st38{fill:#00BEF9;}
	.st39{fill-rule:evenodd;clip-rule:evenodd;fill:#00AEE7;}
	.st40{fill-rule:evenodd;clip-rule:evenodd;fill:#BE9D5D;}
	.st41{fill:#F14902;}
	.st42{display:none;}
	.st43{display:inline;fill:#FFFFCA;}
	.st44{display:inline;fill:#C7E4FF;}
	.st45{display:inline;fill:#C5FFF7;}
	.st46{display:inline;fill:#99FFA3;}
	.st47{display:inline;fill:#FAFF99;}
	.st48{display:inline;fill:#FFD599;}
	.st49{display:inline;fill:#DEFFC2;}
	.st50{display:inline;fill:#FFD3C5;}
	.st51{display:inline;fill:#BBFCFF;}
	.st52{display:inline;fill:#015959;}
	.st53{display:inline;fill:#132D4C;}
	.st54{display:inline;fill:#242424;}
	.st55{display:inline;fill:#F6E7D8;}
	.st56{display:inline;fill:#0E2442;}
	.st57{fill:#C0C0C0;}
	.st58{fill:#004AAD;}
</style>
<g id="Layer_1">
</g>
<g id="Layer_2">
</g>
<g id="Layer_3">
</g>
<g id="Layer_4">
</g>
<g id="Layer_5">
</g>
<g id="Layer_6">
</g>
<g id="Layer_7">
</g>
<g id="Layer_8">
</g>
<g id="Layer_9">
</g>
<g id="Layer_10">
</g>
<g id="Layer_11">
</g>
<g id="Layer_12">
</g>
<g id="Layer_13">
</g>
<g id="Layer_14">
</g>
<g id="Layer_15">
	<path class="st58" d="M47.91,191.21v2.56h1.28l280.73-1.01v-0.56l-279.46-0.99H47.91z M196.17,120l-6.2-4.7l-78.1-59.16l-1.35-1.01
		l-1.31,1.01l-77.56,59.89l-4.09,3.15l5.13-0.01l14.83-0.08l0.09,20.27h3.16l0.1-21.95v-1.66h-1.68l-11.33-0.06l72.66-55.05
		l70.09,54.06l-8.71-0.03l-2.71-0.02v2.73l-0.04,21.98h5.49l-0.03-19.28C180.9,120.07,192.02,120.02,196.17,120z"/>
	<path d="M112.04,84.06c-14.18,0-25.67,11.5-25.67,25.68s11.49,25.68,25.67,25.68c14.19,0,25.68-11.5,25.68-25.68
		S126.23,84.06,112.04,84.06z M110.57,116.24c0,0.16-0.13,0.29-0.29,0.29h-5.98c-0.17,0-0.3-0.13-0.3-0.29v-5.98
		c0-0.16,0.13-0.3,0.3-0.3h5.98c0.16,0,0.29,0.14,0.29,0.3V116.24z M110.57,107.87c0,0.16-0.13,0.3-0.29,0.3h-5.98
		c-0.17,0-0.3-0.14-0.3-0.3v-5.98c0-0.16,0.13-0.29,0.3-0.29h5.98c0.16,0,0.29,0.13,0.29,0.29V107.87z M118.94,116.24
		c0,0.16-0.13,0.29-0.3,0.29h-5.97c-0.17,0-0.31-0.13-0.31-0.29v-5.98c0-0.16,0.14-0.3,0.31-0.3h5.97c0.17,0,0.3,0.14,0.3,0.3
		V116.24z M118.94,107.87c0,0.16-0.13,0.3-0.3,0.3h-5.97c-0.17,0-0.31-0.14-0.31-0.3v-5.98c0-0.16,0.14-0.29,0.31-0.29h5.97
		c0.17,0,0.3,0.13,0.3,0.29V107.87z"/>
</g>
</svg>
