<?xml version="1.0" encoding="utf-8"?>
<!-- Generator: Adobe Illustrator 27.8.1, SVG Export Plug-In . SVG Version: 6.00 Build 0)  -->
<svg version="1.1" xmlns="http://www.w3.org/2000/svg" xmlns:xlink="http://www.w3.org/1999/xlink" x="0px" y="0px"
	 viewBox="0 0 350 230" style="enable-background:new 0 0 350 230;" xml:space="preserve">
<style type="text/css">
	.st0{fill:#FFFFFF;}
	.st1{fill:url(#SVGID_1_);}
	.st2{fill:url(#SVGID_00000033356655258414028100000011652527936105350283_);}
	.st3{fill:url(#SVGID_00000039135362064216135830000009142871932391131289_);}
	.st4{fill:url(#SVGID_00000106837512215670766190000007370500641402372791_);}
	.st5{fill:url(#SVGID_00000137840040493704106960000011009961109455804845_);}
	.st6{fill:url(#SVGID_00000144330752795916341260000016060022650440021917_);}
	.st7{fill:url(#SVGID_00000066505973936217557600000003360687958586052262_);}
	.st8{fill:url(#SVGID_00000145739892720499594720000009400816991785973672_);}
	.st9{fill:url(#SVGID_00000064356216063314120500000000399803583572277913_);}
	.st10{fill:url(#SVGID_00000027599163797294737020000005506406779727465889_);}
	.st11{fill:url(#SVGID_00000056389377483897991300000010141687538533929353_);}
	.st12{fill:url(#SVGID_00000054234316298287696100000007745372969239468727_);}
	.st13{fill:url(#SVGID_00000182510613189786193680000013617730228183200655_);}
	.st14{fill:url(#SVGID_00000068658554766408663540000014469913069589525425_);}
	.st15{fill:url(#SVGID_00000012431489286732979680000001370936326492722846_);}
	.st16{fill:url(#SVGID_00000147204287589927916760000012344263298611007929_);}
	.st17{fill:url(#SVGID_00000053533730827043264650000010828529224937555382_);}
	.st18{fill:url(#SVGID_00000144333945569982685180000013798845875614134437_);}
	.st19{fill:url(#SVGID_00000016040498645067632520000004850727960454445200_);}
	.st20{fill:url(#SVGID_00000100350170399378916400000009564166967201873049_);}
	.st21{fill:url(#SVGID_00000075132338519185378060000002136353440505403798_);}
	.st22{fill:url(#SVGID_00000030474541506645405360000017833608231128514194_);}
	.st23{fill:url(#SVGID_00000117678755271636331720000011436478140033568152_);}
	.st24{fill:url(#SVGID_00000149372089032952213860000010263410072250128047_);}
	.st25{fill:#FFAF78;}
	.st26{fill:#B680FF;}
	.st27{fill:#8BE493;}
	.st28{fill:#FF8695;}
	.st29{fill:#D4F0FF;}
	.st30{fill-rule:evenodd;clip-rule:evenodd;fill:#097BC9;}
	.st31{fill-rule:evenodd;clip-rule:evenodd;fill:url(#SVGID_00000022528784395643909720000000042217551515080618_);}
	.st32{opacity:0.3;fill-rule:evenodd;clip-rule:evenodd;fill:#FFFFFF;}
	.st33{fill:#E1F9FF;}
	.st34{fill:#00599B;}
	.st35{fill:#002D49;}
	.st36{fill:#006BCC;}
	.st37{fill:#004172;}
	.st38{fill:#EFFFCF;}
	.st39{fill:#65A500;}
	.st40{fill:#DCFFDE;}
	.st41{fill:#FFDCE4;}
	.st42{fill:#D7E2FF;}
	.st43{fill:#FFFED2;}
	.st44{fill:#EDE3FF;}
	.st45{fill-rule:evenodd;clip-rule:evenodd;fill:url(#SVGID_00000041275423196718478850000012947770142303241105_);}
	.st46{fill:#FFF7D7;}
	.st47{fill-rule:evenodd;clip-rule:evenodd;fill:url(#SVGID_00000082340287562072023380000004604454534107618985_);}
	.st48{opacity:0.2;fill-rule:evenodd;clip-rule:evenodd;fill:#FFFFFF;}
	.st49{fill:#020202;}
	.st50{fill:url(#XMLID_00000003812984216518611020000012029405875581607092_);}
	.st51{fill:#000F33;}
	.st52{fill:#E3ECFF;}
	.st53{fill:#FFE3C5;}
	.st54{fill:#FFE5D4;}
	.st55{fill:#E6FFFE;}
	.st56{fill:#FFFEE6;}
	.st57{fill:url(#SVGID_00000050655150037943546130000004388812037447755932_);}
	.st58{opacity:0.2;fill:#FFFFFF;}
	.st59{fill-rule:evenodd;clip-rule:evenodd;fill:#5A8900;}
	.st60{fill-rule:evenodd;clip-rule:evenodd;fill:#65A500;}
	.st61{fill-rule:evenodd;clip-rule:evenodd;fill:#476800;}
	.st62{fill-rule:evenodd;clip-rule:evenodd;fill:#61C666;}
	.st63{fill-rule:evenodd;clip-rule:evenodd;fill:#8BE493;}
	.st64{fill:#CC7180;}
	.st65{fill:#AF6675;}
	.st66{fill:#0071BC;}
	.st67{fill:#333333;}
	.st68{fill:url(#SVGID_00000067946305947565642720000003575339325943433879_);}
	.st69{fill:url(#SVGID_00000161628873271586028140000010156957854085871022_);}
	.st70{fill:url(#SVGID_00000167361466893662254210000002484203961813844122_);}
	.st71{fill:url(#SVGID_00000114039229997745479660000006181427947422348934_);}
	.st72{fill:url(#SVGID_00000078025004203064771290000007954071401068154501_);}
	.st73{fill:#D2AB67;}
	.st74{fill:#000E3B;}
	.st75{fill:url(#SVGID_00000122678197938411972710000012271461594884247688_);}
	.st76{fill:url(#SVGID_00000159458329396529603300000001720596118326125468_);}
	.st77{fill:#E0E2E3;}
	.st78{fill:url(#SVGID_00000057830941609788389370000004056758245126141343_);}
	.st79{fill:#353A51;}
	.st80{fill:url(#SVGID_00000023240492346684237750000009725876721264999333_);}
	.st81{fill:#0E1725;}
	.st82{fill:#C1C2C1;}
	.st83{fill:url(#SVGID_00000097484769689891725960000005044082704887167917_);}
	.st84{fill:url(#SVGID_00000054245495145385810500000012628903210790961562_);}
	.st85{fill:url(#SVGID_00000182499107464533131660000009992797233574920367_);}
	.st86{fill:#0091CC;fill-opacity:0.7882;}
	.st87{fill:#00B2EA;fill-opacity:0.7882;}
	.st88{fill:#00C9F6;fill-opacity:0.7882;}
	.st89{fill-rule:evenodd;clip-rule:evenodd;fill:url(#SVGID_00000108299449517700336700000014652884611971368631_);}
	.st90{fill-rule:evenodd;clip-rule:evenodd;fill:url(#SVGID_00000177485205443228564560000005494334251391545729_);}
	.st91{fill-rule:evenodd;clip-rule:evenodd;fill:url(#SVGID_00000049206343937303463900000009766905592940731806_);}
	.st92{fill-rule:evenodd;clip-rule:evenodd;fill:url(#SVGID_00000105423518561185475600000018282166634304922253_);}
	.st93{fill-rule:evenodd;clip-rule:evenodd;fill:url(#SVGID_00000039125386066722372440000006376936607135978634_);}
	.st94{fill-rule:evenodd;clip-rule:evenodd;fill:url(#SVGID_00000145748970470955740630000008305379858045821573_);}
	.st95{fill-rule:evenodd;clip-rule:evenodd;fill:url(#SVGID_00000086669052290630354090000002710021330540522918_);}
	.st96{fill:url(#SVGID_00000001660161869780531670000010714172025100060819_);}
	.st97{opacity:0.84;fill-rule:evenodd;clip-rule:evenodd;fill:#3F3F3F;enable-background:new    ;}
	.st98{fill-rule:evenodd;clip-rule:evenodd;fill:#D2AB67;}
	.st99{fill:url(#SVGID_00000080895031814518626050000003742058842949165740_);}
	.st100{fill:#945EEA;}
	.st101{fill:#8558DD;}
	.st102{fill:#0C0A21;}
	.st103{fill:#F8C520;}
	.st104{fill:url(#SVGID_00000021119846857840373290000005480740756761605760_);}
	.st105{fill:url(#SVGID_00000113337566593102063100000001701860087822685878_);}
	.st106{fill:url(#SVGID_00000058581356094871624760000008737935600602050698_);}
	.st107{opacity:0.23;fill:#FFFFFF;}
	.st108{fill:url(#SVGID_00000074412248570363975730000004980209042358209922_);}
	.st109{fill:#FAAF3B;}
	.st110{fill-rule:evenodd;clip-rule:evenodd;}
	.st111{fill-rule:evenodd;clip-rule:evenodd;fill:#0671AF;}
	.st112{fill:#5E9536;}
	.st113{fill:#00BFE5;}
	.st114{fill:url(#SVGID_00000039843941637279579600000005472025111829164167_);}
	.st115{fill:url(#SVGID_00000030462451633056652170000016999625171800903330_);}
	.st116{fill:url(#SVGID_00000159434744575694100500000010187216205467117982_);}
	.st117{fill:url(#SVGID_00000129192717049371896320000007764898408401919404_);}
	.st118{fill:url(#SVGID_00000065754384471090039920000005493103121373222293_);}
	.st119{fill:url(#SVGID_00000163751102663228682300000005788789661166515878_);}
	.st120{fill:url(#SVGID_00000103971779084344757000000010976562369263648406_);}
	.st121{fill:url(#SVGID_00000093173681789698643120000017426948970839388602_);}
	.st122{fill:url(#SVGID_00000132057483705819070130000002424852686828733608_);}
</style>
<g id="Layer_1">
</g>
<g id="Layer_2">
</g>
<g id="Layer_3">
</g>
<g id="Layer_4">
</g>
<g id="Layer_5">
</g>
<g id="Layer_6">
</g>
<g id="Layer_7">
</g>
<g id="Layer_8">
</g>
<g id="Layer_9">
</g>
<g id="Layer_10">
</g>
<g id="Layer_11">
	<path class="st64" d="M168.61,115.76v-3.92l5.84-5.74v9.66H168.61z M175.91,115.76h5.8v-3.92l-5.8-5.74V115.76z M174.45,117.2
		h-5.84v6.35h5.84V117.2z M175.91,117.2v6.35h5.8v-6.35H175.91z M226.22,58.41c-0.08-0.8-0.85-1.37-1.61-1.22
		c-18.64,3.61-33.21-2.89-47.7-14.94c-1-0.84-2.5-0.84-3.5,0c-14.14,11.83-28.79,18.6-47.66,14.94c-0.81-0.15-1.58,0.42-1.61,1.22
		c-2.69,19.62-0.35,41.22,12.88,61.15c9.8,14.72,23.06,24.68,38.17,33.54c19.95-11.71,36.51-25.71,45.35-47
		C227.07,90.28,227.64,75.18,226.22,58.41z M213.96,100.28l-11.11-9.86h0.94v-9.63h0.85v-3.74h-9.44v3.74h0.85v3.59l-17.26-15.32
		c-2.08-1.83-5.19-1.83-7.26,0l-31.86,28.29c0.96,2.74,2,5.25,3.31,7.87l30.4-26.96c1-0.91,2.58-0.91,3.61,0l33.55,29.77
		c-7.78,15.17-20.53,26.62-35.35,35.67c-10.25-6.23-19.69-13.81-27.15-23.1l25.35-22.46c1-0.91,2.58-0.91,3.61,0l22.22,19.77
		c1.73-2.17,3.31-4.37,4.73-6.62c0-0.04-23.79-21.18-26.06-23.2c-1.54-1.37-3.88-1.37-5.42,0l-29.21,25.93l0.01,0.29
		c-0.03-0.14-0.05-0.26-0.01-0.29c-10.19-16.39-12.22-29.4-11.61-46.36c0.04-0.76,0.69-1.33,1.46-1.29
		c12.95,0.61,27.52-4.45,40.43-13.96c1-0.68,2.31-0.68,3.27,0c12.91,9.51,27.52,14.56,40.47,13.96c0.77-0.04,1.42,0.53,1.42,1.29
		C219.15,79.63,217.57,90.43,213.96,100.28z M175.18,157.86L175.18,157.86c-0.74,0-1.47-0.2-2.11-0.57l-0.26-0.15
		c-18.86-11.06-30.73-21.52-39.69-34.98c-12.32-18.57-16.91-40.19-13.63-64.26c0.31-3.42,3.54-5.98,7.13-5.29
		c3.12,0.6,6.2,0.91,9.14,0.91c11.69,0,22.37-4.58,34.65-14.85c2.64-2.21,6.86-2.21,9.5,0c15.47,12.87,28.39,16.92,43.8,13.94
		c0.37-0.07,0.76-0.11,1.14-0.11c3.08,0,5.73,2.4,6.02,5.47c1.23,14.5,1.48,31.77-6.02,49.92c-8.15,19.64-22.74,34.82-47.31,49.25
		l-0.26,0.15C176.65,157.67,175.92,157.86,175.18,157.86z M125.49,54.36c-2.17,0-3.95,1.61-4.14,3.74
		c-3.22,23.65,1.27,44.84,13.33,63.02c8.8,13.21,20.49,23.5,39.08,34.4l0.26,0.15c0.35,0.21,0.75,0.31,1.16,0.31l0,0
		c0.41,0,0.81-0.11,1.16-0.32l0.26-0.15c24.2-14.21,38.54-29.12,46.53-48.35c7.35-17.78,7.1-34.77,5.89-49.04
		c-0.23-2.37-2.62-4.16-4.94-3.69c-3.23,0.63-6.43,0.94-9.49,0.94c-12.1,0-23.16-4.71-35.87-15.29c-1.98-1.65-5.13-1.65-7.1,0
		c-12.64,10.57-23.7,15.28-35.85,15.28c-3.07,0-6.26-0.32-9.49-0.94C126.01,54.39,125.75,54.36,125.49,54.36z"/>
	<path class="st65" d="M148.81,119.91l-0.85,0.75c-1.69-2.17-3.27-4.37-4.73-6.62l1.51-1.34L148.81,119.91z M209,106.71l1.54,1.33
		c1.31-2.51,2.42-5.1,3.42-7.76l-0.52-0.43C213.44,99.85,210.69,104.46,209,106.71L209,106.71z"/>
</g>
<g id="Layer_12">
</g>
<g id="Layer_13">
</g>
<g id="Layer_14">
</g>
<g id="Layer_15">
</g>
</svg>
