<?xml version="1.0" encoding="utf-8"?>
<!-- Generator: Adobe Illustrator 27.8.1, SVG Export Plug-In . SVG Version: 6.00 Build 0)  -->
<svg version="1.1" xmlns="http://www.w3.org/2000/svg" xmlns:xlink="http://www.w3.org/1999/xlink" x="0px" y="0px"
	 viewBox="0 0 350 230" style="enable-background:new 0 0 350 230;" xml:space="preserve">
<style type="text/css">
	.st0{fill:#0071BC;}
	.st1{fill:#F3FFFF;}
	.st2{fill:#FFEDC5;}
	.st3{fill:#F9F8D2;}
	.st4{fill:#D2FCE5;}
	.st5{fill:#FCEE21;}
	.st6{fill:#D9FCFC;}
	.st7{fill:#D6FCDE;}
	.st8{fill:#005652;}
	.st9{fill:#F6FFE3;}
	.st10{fill:#D9F4F3;}
	.st11{fill:#FFE7D2;}
	.st12{fill:#E1FEFF;}
	.st13{fill:#000037;}
	.st14{fill:#F9F6DC;}
	.st15{fill:#BFF6F7;}
	.st16{fill:#FFFFD9;}
	.st17{fill:#F5FFE6;}
	.st18{fill:#493117;}
	.st19{fill:#FFFDE6;}
	.st20{fill:#FFFCE3;}
	.st21{fill:#FF9D00;}
	.st22{fill:url(#SVGID_1_);}
	.st23{opacity:0.22;fill:url(#SVGID_00000167395349333686754640000005841944822360623801_);}
	.st24{fill:#FFC200;}
	.st25{fill:#778718;}
	.st26{fill:#E0B017;}
	.st27{fill:#664407;}
	.st28{fill:#9E690A;}
	.st29{fill:#7F1105;}
	.st30{fill:#191933;}
	.st31{fill:#FCEBD4;}
	.st32{fill:#E3DFD6;}
	.st33{fill:#FFB000;}
	.st34{fill:#AA210E;}
	.st35{fill:#FFF0A6;}
	.st36{fill:#FFDA00;}
	.st37{fill:#F4F4F4;}
	.st38{fill:#DC5C28;}
	.st39{fill:#FF8440;}
	.st40{fill:#C45224;}
	.st41{fill:#2C4369;}
	.st42{fill:#2A72DB;}
	.st43{fill:#C65500;}
	.st44{fill:#C15746;}
	.st45{fill:#FF8C00;}
	.st46{fill:#FFEA2C;}
	.st47{fill:#F7FF57;}
	.st48{fill:#FFFFFF;}
	.st49{fill:#D64949;}
	.st50{fill:#353535;}
	.st51{fill:#FFC783;}
	.st52{fill:#3F7F91;}
	.st53{fill:#25BDE5;}
	.st54{fill:#8CDD00;}
	.st55{fill:#D1FF88;}
	.st56{fill:#333333;}
	.st57{fill:#FF9000;}
	.st58{fill:#A1A813;}
	.st59{fill:#B3C40E;}
	.st60{fill:#CACE72;}
	.st61{fill:url(#SVGID_00000176017366477300405660000004079238692735768494_);}
	.st62{fill:#93E800;}
	.st63{fill:#3CB7D3;}
	.st64{fill:#FF7631;}
	.st65{fill:#E6873C;}
	.st66{fill:#30657F;}
	.st67{fill:#FF7A40;}
	.st68{fill:#FFAD4A;}
	.st69{fill:#BC8E3B;}
	.st70{fill:#E2E2E2;}
	.st71{fill:#F2B844;}
	.st72{fill:#AF3838;}
	.st73{fill:#17B5C1;}
	.st74{fill:#A88643;}
	.st75{fill-rule:evenodd;clip-rule:evenodd;fill:#DD7928;}
	.st76{fill:#E6E7E8;stroke:#CFCFCF;stroke-width:0.1061;}
	.st77{fill-rule:evenodd;clip-rule:evenodd;fill:#204F7A;}
	.st78{fill-rule:evenodd;clip-rule:evenodd;fill:#50A4FF;}
	.st79{fill:#002649;}
	.st80{fill:#00134F;}
	.st81{fill:#665200;}
	.st82{fill:#002349;}
	.st83{fill:#FF914D;}
	.st84{fill:#AC1929;}
	.st85{fill:#004AAD;}
	.st86{fill:#BE1C2D;}
	.st87{fill:#242424;}
	.st88{fill:#F1A75A;}
	.st89{fill-rule:evenodd;clip-rule:evenodd;}
	.st90{fill-rule:evenodd;clip-rule:evenodd;fill:#007177;}
	.st91{fill-rule:evenodd;clip-rule:evenodd;fill:#242424;}
	.st92{fill:#F9951C;}
	.st93{fill:#84123B;}
	.st94{fill:#FFB908;}
	.st95{fill:#393536;}
	.st96{fill:#093F00;}
	.st97{fill:#333300;}
	.st98{fill:#C8D7FF;}
	.st99{fill:#426BD1;}
	.st100{fill:#0036D2;}
	.st101{fill:url(#SVGID_00000049903634970273468740000007717408395383778452_);}
	.st102{fill:url(#SVGID_00000183220633289800791160000014792164738501346749_);}
	.st103{fill:#72C000;}
	.st104{fill:#FFEBD7;}
	.st105{fill:#FF7F00;}
	.st106{fill:#121212;}
	.st107{fill:url(#CUSTOM-group_00000025436847710124022660000009050180872836063390_);}
	.st108{fill:url(#CUSTOM-group_00000097477619577274431340000010068552571391733912_);}
	.st109{fill:#D9E021;}
	.st110{fill:#F9BF28;}
	.st111{fill:#2F5469;}
	.st112{fill:#0F263E;}
	.st113{fill:#FEFEFE;}
	.st114{fill:url(#SVGID_00000090980764069746826950000010444528798260845977_);}
	.st115{fill:url(#SVGID_00000012442001304622202530000014461634664679669903_);}
	.st116{fill:url(#SVGID_00000053522048548432715180000001296285242627175826_);}
	.st117{fill:#603813;}
	.st118{fill:#1B1464;}
	.st119{fill:#20515D;}
	.st120{fill:#005DE5;}
	.st121{fill:#D9F1F4;}
	.st122{fill:url(#SVGID_00000054985318923724852590000000492517094866632108_);}
	.st123{fill:#F5F5F5;stroke:#F5F5F5;stroke-miterlimit:10;}
	.st124{fill:#000003;stroke:#F5F5F5;stroke-width:2;stroke-linecap:round;stroke-linejoin:round;stroke-miterlimit:10;}
	.st125{fill:none;stroke:#F5F5F5;stroke-linecap:round;stroke-linejoin:round;stroke-miterlimit:10;}
	.st126{fill:#72C000;stroke:#72C000;stroke-width:0.5;stroke-linecap:round;stroke-linejoin:round;stroke-miterlimit:10;}
	.st127{fill:#72C000;stroke:#72C000;stroke-linecap:round;stroke-linejoin:round;stroke-miterlimit:10;}
	.st128{fill:#000003;stroke:#72C000;stroke-linecap:round;stroke-linejoin:round;stroke-miterlimit:10;}
	.st129{fill:#72C000;stroke:#72C000;stroke-width:0.25;stroke-miterlimit:10;}
	.st130{fill:#F5B507;}
	.st131{fill:#E39514;}
	.st132{fill:#023A4C;}
	.st133{fill:#4F0000;}
	.st134{fill:url(#SVGID_00000091732839424343912280000000829709995227497601_);}
	.st135{fill:url(#SVGID_00000111878702071048377650000012278531283653248405_);}
	.st136{fill-rule:evenodd;clip-rule:evenodd;fill:#FFCA01;}
	.st137{opacity:0.1;}
	.st138{opacity:0.3;}
	.st139{fill:url(#SVGID_00000033346747633022643130000015845560192588676228_);}
	.st140{fill:none;stroke:#000000;stroke-miterlimit:10;}
	.st141{fill:url(#SVGID_00000083053397887151257750000017070396951866474918_);}
	.st142{fill:url(#SVGID_00000139252239065692906810000017281123913990329015_);}
	.st143{fill:#39B54A;}
	.st144{fill:#1B5AA8;}
	.st145{fill:#123958;}
	.st146{fill:#91CC00;}
</style>
<g id="Layer_1">
</g>
<g id="Layer_12">
</g>
<g id="Layer_13">
</g>
<g id="Layer_14">
</g>
<g id="Layer_15">
</g>
<g id="Layer_11">
</g>
<g id="Layer_8">
</g>
<g id="Layer_10">
</g>
<g id="Layer_9">
</g>
<g id="Layer_2">
</g>
<g id="Layer_3">
</g>
<g id="Layer_4">
</g>
<g id="Layer_5">
</g>
<g id="Layer_6">
</g>
<g id="Layer_7">
	<path class="st118" d="M230.2,138.79c-0.27-0.02-0.44-0.08-0.59-0.05c-2.09,0.43-4.17,0.94-6.27,1.29
		c-0.87,0.14-1.88,0.15-2.69-0.16c-0.83-0.32-1.39-0.26-2.09,0.17c-6.42,3.89-13.01,7.47-20.3,9.49
		c-19.7,5.46-38.87,4.27-57.35-4.79c-2.88-1.41-5.65-3.07-8.44-4.67c-0.88-0.51-1.62-0.62-2.6-0.16c-0.68,0.31-1.6,0.2-2.41,0.13
		c-0.87-0.07-1.73-0.29-2.6-0.45c-0.86-0.16-1.72-0.32-2.58-0.5c-0.61-0.13-1.21-0.3-1.87-0.47c-0.19,2.39-0.31,4.66-0.58,6.92
		c-0.32,2.67-1.04,5.22-2.55,7.51c-0.67,1.02-1.52,1.53-2.73,1.51c-5.12-0.09-4.38,0.79-7.11-3.86c-0.94-1.61-1.91-2.32-3.75-2.05
		c-1.46,0.22-2.45-0.63-3.2-1.85c-1.76-2.86-2.56-6.03-2.61-9.31c-0.06-3.84,0.16-7.68,0.44-11.51c0.12-1.63,0.99-3,2.37-4.05
		c0.51-0.39,0.78-1.16,1.05-1.8c0.65-1.56,1.09-2.01,2.76-1.83c1.88,0.21,2.94-0.36,3.74-2.18c1.33-3.04,3.18-3.96,6.44-3.37
		c0.92,0.17,1.9,0.94,2.5,1.71c1.53,1.97,1.81,4.42,2.15,6.82c0.34,2.43,0.7,4.86,1.06,7.28c0.04,0.24,0.14,0.46,0.17,0.53
		c1.3-0.59,2.53-1.24,3.82-1.69c0.91-0.32,1.76-0.13,2.07,1.04c0.06,0.25,0.43,0.42,0.66,0.62c0.03,0.02,0.08,0.02,0.12,0.02
		c3.21,0.66,3.33,0.69,4.09-2.47c0.83-3.45,2.98-5.61,6.1-6.97c0.81-0.35,1.11-0.79,1.06-1.72c-0.2-3.86,0.82-7.36,3.34-10.38
		c0.32-0.39,0.38-1.07,0.41-1.62c0.11-2.27-0.17-4.61,0.31-6.79c1.04-4.66,5.13-7.95,9.89-8.37c1.97-0.18,3.63-0.69,5.25-2.05
		c1.89-1.57,4.19-2.69,6.41-3.81c2.47-1.25,4.35-4.23,4.16-7.01c-0.04-0.63-0.13-1.26-0.17-1.9c-0.04-0.69-0.2-1.12-1.04-1.29
		c-0.51-0.1-1.1-0.69-1.31-1.21c-0.43-1.05-0.7-2.18-0.89-3.3c-0.19-1.12,0.24-1.47,1.39-1.4c-0.18-1.45-0.5-2.91-0.49-4.37
		c0.02-1.42,0.39-2.83,0.62-4.36c-0.34-0.11-0.8-0.27-1.34-0.45c0.16-2.3,1.07-4.18,3.02-5.44c3.62-2.34,7.47-2.52,11.41-0.91
		c1.98,0.81,2.96,2.43,3.26,4.51c0.07,0.48,0.13,1.11,0.44,1.38c2.52,2.13,2.32,4.89,1.87,7.71c-0.1,0.62-0.3,1.22-0.46,1.83
		c1.68,0.39,1.85,0.58,1.56,2.24c-0.15,0.86-0.35,1.79-0.81,2.51c-0.43,0.67-1.23,1.1-1.97,1.53c-0.94,2.53-0.59,5.09,0.75,7.44
		c0.51,0.89,1.48,1.64,2.41,2.14c3.01,1.64,6.2,2.95,8.7,5.41c0.26,0.26,0.76,0.33,1.17,0.39c1.21,0.19,2.45,0.24,3.64,0.52
		c6.19,1.46,9.97,7.21,8.87,13.68c-0.27,1.6-0.02,2.75,1.01,4.03c2.16,2.69,2.87,5.91,2.64,9.31c-0.06,0.89,0.12,1.44,0.97,1.78
		c3.75,1.48,5.9,4.27,6.65,8.18c0.22,1.16,0.69,1.65,1.98,1.36c1.07-0.24,2.27,0.04,2.77-1.44c0.1-0.3,1.18-0.52,1.68-0.37
		c1.23,0.38,2.38,1,3.71,1.59c0.11-1.01,0.2-2.17,0.37-3.31c0.39-2.59,0.77-5.18,1.26-7.76c0.16-0.85,0.59-1.68,0.98-2.47
		c0.69-1.38,1.43-2.72,3.26-2.83c2.29-0.15,4.32,0.23,5.58,2.43c0.08,0.15,0.21,0.28,0.26,0.44c0.66,2.21,2.01,3.19,4.4,2.76
		c0.51-0.09,1.44,0.51,1.69,1.03c0.63,1.28,1.49,2.42,2.11,3.65c0.84,1.7,1.37,3.65,1.6,5.54c0.54,4.56,0.44,9.14-0.58,13.64
		c-0.35,1.55-1.09,3.01-1.7,4.49c-0.63,1.52-1.82,2.23-3.44,1.99c-1.48-0.21-2.42,0.28-2.85,1.73c-0.07,0.24-0.23,0.45-0.36,0.67
		c-1.99,3.42-3.76,4.31-7.65,3.45c-0.9-0.2-1.83-1.08-2.37-1.89c-1.57-2.36-1.85-5.15-2.17-7.88
		C230.42,142.77,230.35,140.79,230.2,138.79z M217.32,134.66c-1.77,0.98-3.35,1.98-5.03,2.74c-0.83,0.37-1.9,0.54-2.78,0.37
		c-4.44-0.87-7.28-4.36-7.04-8.89c0.1-1.9-0.19-3.07-1.91-4.21c-1.43-0.95-2.34-2.7-3.44-4.06c-1.69,2.79-3.48,5.7-5.2,8.64
		c-0.35,0.6-0.6,1.35-0.64,2.04c-0.22,4.16-0.14,8.3,1.38,12.27c0.2,0.53,0.29,1.1,0.44,1.65c-11.87,2.95-23.55,2.87-35.17,0.04
		c0.61-2.71,1.36-5.15,1.67-7.64c0.33-2.67,0.82-5.53-0.4-8.02c-1.55-3.16-3.59-6.08-5.47-9.2c-0.09,0.14-0.17,0.24-0.23,0.35
		c-1.13,2.13-2.52,4-4.71,5.19c-0.25,0.13-0.35,0.78-0.3,1.16c0.32,2.49-0.08,4.81-1.4,6.95c-2.22,3.58-6.51,4.68-10.09,2.6
		c-1.16-0.68-2.34-1.34-3.61-2.06c-0.27,0.54-0.49,0.97-0.75,1.48c12.72,7.84,26.19,12.94,41.24,13.24
		c16.11,0.32,30.65-4.45,44.16-13.14C217.79,135.66,217.58,135.21,217.32,134.66z M178.81,100.92c-0.82,1.31-1.73,2.6-2.45,3.99
		c-0.45,0.87-0.16,1.68,0.76,2.27c2.83,1.82,5.96,2,8.89,0.87c3.72-1.43,7.21-3.45,10.91-5.27c-1.86-3.52-4.89-4.98-8.35-6.21
		c4.77-0.66,8.83,0.5,12.56,3.02c-0.99-2.07-2.8-3.06-4.65-4c4.28,0.07,7.16,2.33,9.21,6.09c0.52-3.29-1.01-6.53-4.03-8.03
		c-1.74-0.87-3.73-1.32-5.66-1.71c-4.28-0.87-8.58-1.59-12.96-0.7c-1.42,0.29-2.69,0.79-3.76,2.02c1.52-0.32,2.86-0.72,4.23-0.87
		c1.34-0.14,2.7-0.03,4.05-0.03c-3.85,1.24-8.05,1.58-10.59,5.47c1.51-0.15,2.9-0.29,4.29-0.43c0.02,0.11,0.04,0.22,0.07,0.32
		c-1.8,0.83-3.6,1.66-4.57,3.7C177.58,101.22,178.3,101.04,178.81,100.92z M145.34,101.55c3.2-4.34,6.18-6.24,8.94-5.76
		c-2.05,0.93-3.86,2.09-4.85,4.24c3.95-2.7,8.19-4.18,13.13-3.5c-1.55,0.72-3.05,1.22-4.34,2.06c-1.24,0.82-2.29,1.96-3.36,3.02
		c-0.43,0.43-0.5,0.94,0.21,1.32c2.37,1.31,4.66,2.76,7.09,3.95c3.15,1.54,6.47,2.29,9.96,1.23c2.98-0.9,3.53-2.75,1.6-5.24
		c-0.33-0.43-0.77-0.78-1.15-1.18c-0.2-0.21-0.38-0.44-0.74-0.87c0.96,0.23,1.62,0.4,2.52,0.61c-1.17-2.11-3.05-2.86-4.86-3.71
		c0.04-0.12,0.08-0.23,0.12-0.35c1.4,0.14,2.81,0.27,4.39,0.43c-2.68-3.7-6.7-4.36-10.62-5.26c2.73-0.5,5.4-0.24,8.06,0.57
		c-0.97-1.2-2.31-1.7-3.71-1.89c-6.16-0.85-12.16-0.1-17.91,2.21C146.78,94.67,144.95,98.2,145.34,101.55z M175.46,117.45
		c0.42,2.66,1.62,4.45,4.46,4.61c2.28,0.13,4.3-0.42,6.03-2.44c-2.48-0.14-4.51-0.69-6.04-2.47c1.9-0.18,3.68-0.35,5.45-0.52
		c0.01-0.15,0.02-0.29,0.03-0.44c-3.75-1.04-7.34-2.36-9.86-5.58c-2.74,3.4-6.57,4.4-10.29,5.6c0.01,0.13,0.03,0.26,0.04,0.39
		c1.9,0.2,3.8,0.4,5.79,0.61c-1.64,1.58-3.65,2.27-6.08,2.63c2.06,2.02,4.35,2.5,6.89,2.1
		C174.36,121.53,175.06,119.68,175.46,117.45z M111.73,145.52c0.14-0.05,0.29-0.1,0.43-0.16c-0.23-1.75-0.58-3.5-0.68-5.26
		c-0.42-7.28-0.64-14.55,1.24-21.7c0.22-0.84-0.14-1.35-1.01-1.58c-1.36-0.36-1.6,0.55-1.79,1.5c-1.34,6.77-1.37,13.55-0.05,20.31
		C110.32,140.95,111.1,143.22,111.73,145.52z M238.38,145.17c0.45-1.53,1.01-3.15,1.39-4.82c1.34-5.88,1.29-11.84,0.87-17.8
		c-0.12-1.67-0.54-3.33-0.9-4.98c-0.22-1-0.99-1.01-1.81-0.77c-0.8,0.24-1.08,0.71-0.82,1.53c1.43,4.45,1.66,9.06,1.65,13.67
		C238.75,136.42,238.51,140.83,238.38,145.17z M149.08,107.8c-5.41,0.42-9.06,7.65-6.88,13.5
		C145.76,117.41,149.05,113.53,149.08,107.8z M208.97,121.13c1.82-7.27-2.08-12.57-6.8-13.35
		C200.88,110.94,205.41,118.43,208.97,121.13z M142.39,125.55c-2.67,2.15-5.19,4.12-8.4,4.84c1.24-0.8,2.59-1.44,3.76-2.33
		c0.81-0.62,1.55-1.48,1.99-2.39c0.29-0.6,0.26-1.68-0.11-2.19c-0.33-0.45-1.44-0.71-2.01-0.5c-1.11,0.39-2.38,0.95-3.04,1.84
		c-1.26,1.7-2.14,3.69-3.18,5.58C135.97,132.18,141.55,129.75,142.39,125.55z M219.77,130.48c-1.21-2.08-2.29-4.04-3.48-5.93
		c-0.69-1.1-1.84-1.59-3.12-1.7c-1.95-0.17-2.9,1.09-1.89,2.77c0.7,1.15,1.78,2.12,2.85,2.98c0.86,0.69,1.95,1.09,2.94,1.62
		c-0.05,0.11-0.1,0.21-0.15,0.32c-1.44-0.64-2.95-1.18-4.31-1.97c-1.36-0.79-2.57-1.83-3.93-2.82
		C208.66,128.79,212.71,131.74,219.77,130.48z M120.62,134.08c0.13-0.03,0.27-0.06,0.4-0.08c0.3-0.6,0.59-1.21,0.9-1.8
		c0.51-0.98,0.57-1,1.45-0.55c-0.23,0.85-0.51,1.69-0.68,2.56c-0.05,0.28,0.2,0.61,0.31,0.91c0.27-0.18,0.66-0.29,0.8-0.55
		c0.45-0.81,0.76-1.71,1.24-2.5c0.18-0.31,0.68-0.42,1.03-0.63c0.08,0.11,0.17,0.22,0.25,0.34c-0.26,0.97-0.48,1.96-0.79,2.92
		c-0.26,0.81,0.06,1.09,0.85,1.12c0.62-1.21,1.2-2.42,1.86-3.6c0.13-0.23,0.53-0.3,0.81-0.45c0.1,0.29,0.31,0.61,0.27,0.88
		c-0.11,0.66-0.41,1.3-0.5,1.96c-0.08,0.59-0.15,1.67,0.05,1.73c0.99,0.33,0.88-0.74,1.17-1.23c0.55-0.94,0.67-2.26,2.27-2.08
		c-0.95-1.78-3.47-2.85-5.18-2.33c-0.24,0.07-0.54-0.07-0.81-0.1c-0.63-0.08-1.27-0.17-1.9-0.23c-0.28-0.03-0.59,0.05-0.86-0.02
		c-2.26-0.62-2.26-0.63-2.98,1.6c-0.12,0.36-0.32,0.73-0.31,1.09C120.28,133.38,120.5,133.73,120.62,134.08z M244.93,144.88
		c0.3-0.38,0.38-0.44,0.4-0.51c2.5-7.49,2.44-15.12,1.31-22.82c-0.16-1.09-0.8-1.24-1.8-0.85
		C245.85,128.66,246.08,136.62,244.93,144.88z M227.8,135.17c0.14-0.09,0.28-0.18,0.42-0.28c-0.22-0.78-0.49-1.55-0.66-2.35
		c-0.08-0.4,0.03-0.83,0.06-1.25c0.38,0.26,0.83,0.45,1.12,0.78c0.35,0.41,0.51,0.98,0.84,1.4c0.16,0.21,0.53,0.26,0.81,0.38
		c0.05-0.26,0.2-0.55,0.14-0.79c-0.21-0.77-0.51-1.52-0.75-2.28c-0.34-1.07-0.99-1.16-1.96-0.81c-0.61,0.22-1.32,0.17-1.98,0.23
		c-0.24,0.02-0.55-0.05-0.72,0.07c-0.75,0.53-1.46,0.53-2.25,0.09c-0.22-0.12-0.6-0.11-0.84,0c-0.88,0.39-1.77,0.79-2.58,1.31
		c-0.44,0.28-0.72,0.81-1.28,1.47c2.84-0.19,2.15,2.49,3.66,3.48c1.38-1.64-1.15-3.31,0.1-5.07c0.37,0.43,0.74,0.75,0.96,1.14
		c0.42,0.73,0.71,1.53,1.13,2.27c0.16,0.28,0.51,0.45,0.78,0.67c0.13-0.35,0.4-0.72,0.35-1.04c-0.16-0.99-0.44-1.95-0.68-2.93
		c0.08-0.09,0.16-0.19,0.23-0.28c0.37,0.26,0.86,0.43,1.09,0.78c0.46,0.7,0.73,1.52,1.16,2.25
		C227.13,134.72,227.51,134.92,227.8,135.17z M104.83,120.6c-0.88,0.02-1.61-0.21-1.8,0.96c-0.84,5.17-1.11,10.34-0.18,15.51
		c0.4,2.19,1.04,4.34,1.57,6.5c0.12-0.03,0.24-0.05,0.37-0.08C103.64,135.9,103.55,128.3,104.83,120.6z M182.71,125.63
		c-2.26-0.5-4.44-0.98-6.62-1.46c-0.15,2.02,0.56,3.47,1.93,3.88C179.68,128.54,181.81,127.46,182.71,125.63z M168.09,125.56
		c1.16,1.98,3.5,3.04,5.14,2.4c1.27-0.5,1.83-2.03,1.39-3.65C172.47,124.72,170.34,125.13,168.09,125.56z M181.95,132.58
		c-1.98-0.21-3.91-0.42-5.86-0.62c-0.22,1.51,0.29,2.51,1.57,2.83C179.47,135.23,181.29,134.26,181.95,132.58z M169.07,132.53
		c0.77,1.75,2.53,2.71,4.36,2.26c1.27-0.31,1.56-0.94,1.42-2.86C172.93,132.13,171,132.33,169.07,132.53z M119.09,131.61
		c-1.6,0-3.11-0.04-4.61,0.04c-0.25,0.01-0.62,0.46-0.68,0.76c-0.18,0.95,0.01,1.67,1.26,1.49c0.49-0.07,1.01-0.01,1.51-0.01
		C118.63,133.89,118.63,133.89,119.09,131.61z M176.07,138.92c-0.1,1.48,0.31,2.23,1.4,2.49c1.52,0.36,3.39-0.65,3.93-1.96
		C179.69,139.27,177.92,139.1,176.07,138.92z M169.59,139.52c1,1.62,2.78,2.42,4.25,1.81c1.29-0.53,0.94-1.6,0.91-2.49
		C172.99,139.08,171.3,139.3,169.59,139.52z M231.71,131.66c0.44,2.27,2.27,3,4.45,1.92c0-0.63,0-1.25,0-1.92
		C234.65,131.66,233.23,131.66,231.71,131.66z M174.82,59.71c0.06-0.01,0.12-0.02,0.18-0.03c-1.12-1.1-2.23-2.21-3.39-3.35
		c0.92,0.31,1.8,0.6,2.67,0.89c-1.5-1.63-3.78-1.8-5.5-0.75C170.72,57.51,172.77,58.61,174.82,59.71z M178.52,58.71
		c-0.32-3.15-3.8-5.3-6.15-4.09C174.83,55.17,176.95,56.2,178.52,58.71z M115.93,144.71c1.3-1.11,2.38-5.18,1.44-6.93
		C116.89,140.11,116.4,142.44,115.93,144.71z M184.64,142.02c0.12,0.05,0.24,0.11,0.36,0.16c0.86-2.37,1.73-4.74,2.59-7.11
		c-0.12-0.04-0.23-0.08-0.35-0.13C185.54,137,185.19,139.54,184.64,142.02z M163.7,135.07c-0.14,0.05-0.28,0.11-0.42,0.16
		c0.89,2.3,1.78,4.61,2.66,6.91c0.13-0.05,0.26-0.1,0.39-0.15C165.66,139.61,165.32,137.09,163.7,135.07z M233.25,137.6
		c-0.87,1.42,0.06,5.26,1.35,6.81C234.18,142.3,233.74,140.05,233.25,137.6z M117.46,129.95c0.2-0.04,0.39-0.07,0.59-0.11
		c0.17-1.89-0.08-3.71-1-5.39c-0.11,0.02-0.21,0.04-0.32,0.06C116.97,126.32,117.21,128.13,117.46,129.95z M233.76,125.32
		c-0.11-0.01-0.22-0.02-0.34-0.03c-0.56,1.47-0.91,2.98-0.74,4.54c0.21,0.03,0.41,0.05,0.62,0.08
		C233.45,128.39,233.6,126.85,233.76,125.32z M163.19,109.98c-0.54-0.43-0.89-0.91-1.18-0.88c-0.34,0.04-0.84,0.5-0.87,0.82
		c-0.02,0.28,0.47,0.81,0.8,0.86C162.24,110.82,162.61,110.37,163.19,109.98z M189.04,108.7c-0.39,0.59-0.83,0.97-0.79,1.28
		c0.04,0.32,0.57,0.79,0.88,0.79c0.29-0.01,0.79-0.54,0.8-0.85C189.94,109.59,189.47,109.25,189.04,108.7z M186.19,124.11
		c-0.15-0.07-0.31-0.14-0.46-0.21c-0.42,1.01-0.84,2.02-1.26,3.03c0.12,0.05,0.24,0.11,0.36,0.16
		C185.29,126.1,185.74,125.1,186.19,124.11z M186.05,52.88c0.31,0.42,0.86,0.82,1.36,0.92c9.54,1.95,18.18,5.9,25.82,11.89
		c13.47,10.57,22.05,24.16,24.5,41.27c0.4,2.78,2.05,3.88,4.19,4.96c-1.46-32.08-28.66-59.6-57.79-62.07
		C184.78,50.91,185.35,51.94,186.05,52.88z M125.12,73.83c-8.97,10.99-14.55,23.37-15.61,37.89c1.03-0.6,1.8-1.12,2.62-1.51
		c0.86-0.41,1.19-1.03,1.32-1.95c2.44-16.38,10.39-29.7,22.72-40.51c7.68-6.74,16.73-10.94,26.55-13.58
		c0.51-0.14,1.14-0.3,1.44-0.67c0.9-1.1,1.66-2.31,2.48-3.48C149.81,52.85,135.89,60.63,125.12,73.83z M96.4,125.72
		c-0.51-0.01-1.06-0.11-1.51,0.05c-0.46,0.17-1.04,0.52-1.19,0.93c-1.9,5.08-1.89,10.16,0.26,15.17c0.14,0.33,0.57,0.72,0.9,0.75
		c1.06,0.1,2.14,0.04,3.34,0.04c-1.78-5.64-2.13-11.17-0.82-16.85C96.97,125.78,96.68,125.73,96.4,125.72z M254.72,142.63
		c0.43-0.06,1.02-0.42,1.18-0.8c1.89-4.46,1.9-9.06,0.69-13.67c-0.68-2.6-1.35-2.87-4.22-2.34c1.24,5.58,0.95,11.14-0.62,16.84
		C252.87,142.67,253.81,142.76,254.72,142.63z M138.99,95.75c-0.41-0.32-0.77-0.75-1.23-0.95c-4.24-1.8-8.49-3.58-12.77-5.29
		c-0.45-0.18-1.09,0.12-1.65,0.19c0.33,0.41,0.58,1.01,1.01,1.2c4.3,1.88,8.62,3.71,12.96,5.49c0.44,0.18,1.06-0.08,1.59-0.13
		C138.93,96.1,138.96,95.93,138.99,95.75z M257.93,137.58c0-2.3,0-4.53,0-6.93c1.13,0,2.33-0.06,3.52,0.04
		c0.31,0.03,0.68,0.48,0.86,0.83c0.25,0.47,0.46,1.01,0.51,1.54C263.18,137.07,262.09,138.08,257.93,137.58z M258.63,133.76
		c1.07,0,2.01,0,2.94,0c0.13-1.76-0.44-2.03-2.94-1.43C258.63,132.77,258.63,133.22,258.63,133.76z M226.86,89.4
		c-2.73,1.13-5.47,2.25-8.2,3.38c-1.72,0.71-3.44,1.4-5.13,2.19c-0.31,0.15-0.44,0.69-0.65,1.05c0.4,0.14,0.8,0.37,1.2,0.38
		c0.35,0.01,0.72-0.22,1.07-0.37c2.61-1.09,5.22-2.19,7.82-3.29c1.52-0.64,3.03-1.28,4.54-1.95c0.35-0.16,0.66-0.43,0.93-0.61
		C228.19,89.02,227.58,89.1,226.86,89.4z M91.79,137.63c-0.87,0-1.85,0.12-2.78-0.05c-0.52-0.09-1.05-0.6-1.4-1.05
		c-0.28-0.37-0.36-0.95-0.41-1.44c-0.47-4.61,0.7-4.84,4.28-4.4C91.59,132.94,91.68,135.19,91.79,137.63z M90.75,133.81
		c0-0.63,0-1.11,0-1.72c-0.83,0.08-1.57,0.14-2.31,0.21c0,0.57,0,1.01,0,1.51C89.23,133.81,89.93,133.81,90.75,133.81z
		 M146.83,81.89c-3.05-2.99-6.07-6-9.11-8.99c-0.24-0.24-0.47-0.54-0.77-0.65c-0.3-0.11-0.81-0.15-0.98,0.03
		c-0.2,0.2-0.23,0.69-0.14,1c0.08,0.29,0.39,0.54,0.63,0.77c2.9,2.84,5.8,5.67,8.71,8.5c0.48,0.46,1,0.87,1.5,1.3
		C147.7,83.2,147.55,82.6,146.83,81.89z M205.88,83.2c0.84-0.77,1.67-1.55,2.48-2.35c2.44-2.39,4.89-4.77,7.29-7.2
		c0.25-0.26,0.18-0.84,0.26-1.27c-0.44,0.03-0.89,0.03-1.32,0.1c-0.14,0.02-0.26,0.21-0.38,0.33c-2.22,2.2-4.44,4.39-6.65,6.59
		c-0.96,0.95-1.92,1.9-2.83,2.89c-0.19,0.21-0.3,0.61-0.25,0.89c0.04,0.22,0.39,0.37,0.62,0.58
		C205.41,83.54,205.67,83.39,205.88,83.2z M128.88,104.16c-1.9-0.11-3.8-0.26-5.71-0.3c-0.4-0.01-0.81,0.42-1.21,0.65
		c0.32,0.27,0.62,0.74,0.95,0.76c3.97,0.26,7.94,0.47,11.92,0.62c0.4,0.01,0.82-0.51,1.23-0.78c-0.4-0.23-0.79-0.63-1.21-0.66
		c-1.98-0.16-3.97-0.23-5.96-0.32C128.88,104.14,128.88,104.15,128.88,104.16z M222.64,104.2c-0.34,0-0.68-0.01-1.01,0
		c-1.69,0.06-3.38,0.09-5.07,0.22c-0.41,0.03-0.78,0.45-1.17,0.69c0.41,0.27,0.81,0.55,1.23,0.79c0.13,0.07,0.33,0.02,0.5,0.02
		c3.76-0.16,7.52-0.3,11.27-0.52c0.39-0.02,0.75-0.51,1.13-0.78c-0.39-0.23-0.78-0.64-1.18-0.66c-1.9-0.07-3.8-0.03-5.7-0.03
		C222.64,104.03,222.64,104.11,222.64,104.2z M197.94,63.62c-0.39,0.1-0.9,0.28-1.06,0.59c-0.78,1.5-1.47,3.04-2.19,4.58
		c-0.91,1.96-1.83,3.91-2.69,5.88c-0.13,0.3,0.06,0.73,0.09,1.1c0.42-0.16,0.85-0.3,1.25-0.5c0.12-0.06,0.16-0.29,0.23-0.44
		c1.51-3.22,3.02-6.43,4.53-9.65c0.14-0.3,0.25-0.63,0.41-1.05C198.32,63.95,198.08,63.58,197.94,63.62z M144.58,70.49
		c-0.23-0.3-0.84-0.3-1.27-0.44c0.02,0.48-0.16,1.11,0.08,1.43c2.11,2.84,4.3,5.63,6.45,8.45c0.63,0.82,1.12,0.75,1.75-0.34
		C149.27,76.56,146.96,73.5,144.58,70.49z M153.81,64.7c1.54,3.53,3.13,7.03,4.77,10.51c0.14,0.29,0.67,0.4,1.01,0.59
		c0.11-0.39,0.43-0.88,0.3-1.17c-1.51-3.49-3.07-6.96-4.65-10.42c-0.14-0.31-0.46-0.54-1.01-1.15
		C154.01,63.85,153.67,64.37,153.81,64.7z M207.88,70.1c-0.35,0.09-0.63,0.54-0.88,0.87c-2,2.57-4.01,5.13-5.93,7.76
		c-0.29,0.39-0.14,1.1-0.19,1.67c0.46-0.24,1.07-0.37,1.37-0.74c2.13-2.63,4.19-5.31,6.27-7.98c0.23-0.29,0.41-0.62,0.81-1.24
		C208.71,70.28,208.25,70.01,207.88,70.1z M174.77,41.42c-0.6,0.45-1.69,0.27-2.56,0.37c2.36,0.88,2.04,2.54,1.32,4.46
		c1.58-1.93,3.07-1.59,4.69-0.03c-1.22-2.03-0.71-3.43,1.5-4.42c-2.86-0.3-2.86-0.3-3.92-2.83
		C175.45,39.88,175.36,40.98,174.77,41.42z M221.29,84.61c-3.11,1.71-6.21,3.42-9.29,5.18c-0.33,0.19-0.46,0.75-0.68,1.14
		c0.45,0.05,1,0.3,1.33,0.12c3.17-1.68,6.3-3.44,9.44-5.17c0.29-0.16,0.58-0.33,0.88-0.49C222.72,84.5,222.01,84.21,221.29,84.61z
		 M139.69,89.52c-2.92-1.7-5.84-3.39-8.77-5.07c-0.54-0.31-1.19-0.6-1.43,0.21c-0.09,0.31,0.36,0.96,0.73,1.18
		c2.94,1.74,5.93,3.4,8.89,5.11c0.74,0.43,1.26,0.39,1.6-0.63C140.35,90.03,140.05,89.73,139.69,89.52z M134.07,80.83
		c2.73,2,5.42,4.04,8.17,6.02c0.3,0.21,0.85,0.07,1.28,0.1c-0.11-0.43-0.09-1.03-0.37-1.25c-2.94-2.27-5.93-4.47-8.94-6.71
		C133.25,79.73,133.29,80.26,134.07,80.83z M198.69,76.58c1.7-2.72,3.41-5.45,5.05-8.21c0.22-0.37,0.29-1.18,0.07-1.39
		c-0.63-0.57-1.06,0.05-1.37,0.55c-1.79,2.92-3.56,5.85-5.34,8.77c-0.41,0.67-0.41,1.18,0.6,1.58
		C198.04,77.44,198.41,77.03,198.69,76.58z M154.97,76.37c-1.77-2.97-3.49-5.98-5.29-8.93c-0.21-0.34-0.86-0.41-1.31-0.6
		c0,0.49-0.17,1.07,0.04,1.44c1.13,2.03,2.34,4.01,3.53,6c0.71,1.19,1.46,2.36,2.24,3.62C155.04,77.5,155.44,77.17,154.97,76.37z
		 M223.22,110.62c1.65,0,3.3,0.05,4.95-0.03c0.47-0.02,0.91-0.45,1.37-0.69c-0.42-0.26-0.84-0.74-1.27-0.76
		c-3.55-0.13-7.1-0.18-10.65-0.2c-0.33,0-0.66,0.42-0.99,0.64c0.34,0.23,0.67,0.64,1.01,0.65c1.86,0.06,3.72,0.03,5.58,0.03
		C223.22,110.38,223.22,110.5,223.22,110.62z M128.79,109.06c-1.74,0-3.47,0.01-5.21-0.01c-0.62-0.01-1.21,0.1-1.11,0.81
		c0.04,0.29,0.69,0.71,1.05,0.71c3.51-0.06,7.03-0.18,10.54-0.35c0.39-0.02,0.76-0.46,1.13-0.71c-0.4-0.22-0.79-0.61-1.2-0.63
		c-1.73-0.07-3.47-0.03-5.21-0.03C128.79,108.92,128.79,108.99,128.79,109.06z M209.65,86.91c2.67-1.99,5.36-3.95,7.99-5.99
		c0.35-0.27,0.39-0.95,0.57-1.44c-0.48,0.09-1.06,0.03-1.42,0.29c-2.53,1.82-5.02,3.69-7.52,5.57c-0.47,0.35-0.87,0.78-1.32,1.17
		C208.46,87.63,209.04,87.37,209.65,86.91z M215.59,99.78c-0.27,0.05-0.46,0.51-0.69,0.78c0.34,0.19,0.71,0.59,1.01,0.55
		c3.5-0.56,7-1.18,10.49-1.84c0.31-0.06,0.54-0.53,0.8-0.81c-0.3-0.24-0.6-0.48-0.79-0.63C222.65,98.49,219.11,99.11,215.59,99.78z
		 M136.68,100.23c-0.4-0.18-0.79-0.43-1.22-0.52c-3.07-0.62-6.14-1.23-9.23-1.75c-0.4-0.07-0.88,0.34-1.32,0.52
		c0.33,0.3,0.63,0.78,1.01,0.86c3.07,0.64,6.14,1.23,9.23,1.75c0.49,0.08,1.04-0.24,1.56-0.37
		C136.71,100.55,136.69,100.39,136.68,100.23z M190.09,70.6c0.34-0.07,0.83-0.34,0.91-0.62c0.69-2.34,1.33-4.7,1.91-7.07
		c0.07-0.29-0.28-0.68-0.44-1.03c-0.33,0.2-0.87,0.34-0.96,0.61c-0.72,2.42-1.36,4.86-2.21,7.99
		C189.32,70.49,189.73,70.67,190.09,70.6z M122.85,61.68c-0.2-0.17-0.87-0.09-1.03,0.1c-0.18,0.22-0.17,0.87,0.02,1.05
		c1.76,1.68,3.57,3.29,5.36,4.92c0.46-0.37,0.75-0.61,1.29-1.05C126.5,64.9,124.7,63.26,122.85,61.68z M231.77,63.58
		c0.26-0.24,0.16-0.86,0.22-1.3c-0.41,0.04-0.95-0.06-1.22,0.16c-1.69,1.41-3.32,2.89-4.95,4.35c-0.68,0.61-0.39,1.1,0.46,1.68
		C228.13,66.84,229.99,65.25,231.77,63.58z M160.43,62.48c-0.06-0.26-0.6-0.39-0.92-0.59c-0.18,0.33-0.56,0.69-0.5,0.97
		c0.5,2.39,1.05,4.77,1.66,7.13c0.07,0.28,0.56,0.56,0.89,0.62c0.15,0.03,0.39-0.5,0.54-0.7C161.53,67.33,161.02,64.9,160.43,62.48z
		 M135.41,55.75c-0.69-0.85-1.37-1.72-2.14-2.49c-0.21-0.21-0.77-0.23-1.09-0.12c-0.16,0.05-0.3,0.75-0.16,0.94
		c1.36,1.8,2.78,3.55,4.23,5.37c0.49-0.4,0.81-0.66,1.26-1.03C136.76,57.47,136.1,56.6,135.41,55.75z M216.69,58.68
		c1.23-1.44,2.46-2.89,3.62-4.39c0.16-0.21,0.1-0.87-0.09-1.02c-0.23-0.18-0.89-0.19-1.06,0c-1.33,1.52-2.62,3.08-3.83,4.7
		c-0.18,0.24,0.11,0.84,0.23,1.5C216.16,59.05,216.49,58.92,216.69,58.68z M118.09,68.34c-0.24-0.16-0.74,0.05-1.11,0.09
		c0.06,0.41-0.02,1.01,0.21,1.18c1.71,1.27,3.49,2.46,5.3,3.71c0.37-0.43,0.63-0.74,1.03-1.2
		C121.61,70.78,119.87,69.53,118.09,68.34z M193.02,42.1c0.08-0.34-0.4-0.8-0.62-1.21c-0.3,0.29-0.76,0.53-0.87,0.87
		c-0.51,1.65-0.88,3.34-1.37,5c-0.29,0.98-0.03,1.44,1.24,1.46C191.96,46.16,192.55,44.15,193.02,42.1z M160.69,47.7
		c0.07,0.22,0.68,0.49,0.84,0.4c0.28-0.16,0.62-0.64,0.56-0.9c-0.42-1.88-0.91-3.75-1.46-5.61c-0.08-0.28-0.55-0.6-0.86-0.62
		c-0.38-0.03-0.79,0.22-0.89,0.26C159.6,43.82,160.11,45.77,160.69,47.7z M239.89,86.75c1.53-0.62,3.07-1.21,4.56-1.9
		c0.31-0.15,0.42-0.71,0.63-1.08c-0.32-0.12-0.71-0.43-0.96-0.34c-1.91,0.69-3.79,1.44-5.66,2.23c-0.22,0.09-0.38,0.6-0.35,0.9
		c0.02,0.24,0.37,0.45,0.54,0.64C239.18,87.01,239.54,86.89,239.89,86.75z M112.6,76.51c-0.38-0.17-0.95,0.08-1.43,0.13
		c0.24,0.41,0.37,1.02,0.73,1.21c1.52,0.83,3.12,1.51,4.67,2.29c0.85,0.42,1.25,0.08,1.54-0.93
		C116.24,78.28,114.44,77.34,112.6,76.51z M230.32,72.96c1.6-1.01,3.22-1.99,4.78-3.06c0.26-0.18,0.27-0.74,0.4-1.12
		c-0.4-0.05-0.92-0.28-1.2-0.12c-1.8,1.08-3.55,2.24-5.39,3.42C229.23,72.86,229.46,73.49,230.32,72.96z M113.55,85.52
		c-1.79-0.74-3.59-1.46-5.42-2.11c-0.24-0.08-0.64,0.31-0.97,0.48c0.18,0.29,0.3,0.73,0.55,0.84c1.71,0.74,3.43,1.45,5.18,2.07
		c0.32,0.11,0.79-0.2,1.46-0.4C113.91,85.9,113.78,85.61,113.55,85.52z M239.67,76.54c-1.6,0.75-3.22,1.48-4.79,2.3
		c-0.32,0.17-0.44,0.72-0.65,1.09c0.43,0.1,0.94,0.39,1.27,0.25c1.64-0.67,3.23-1.45,4.83-2.22c0.31-0.15,0.56-0.45,0.79-0.64
		C240.9,76.29,240.37,76.21,239.67,76.54z M153.71,49.1c0.14,0.33,0.7,0.48,1.07,0.72c0.13-0.41,0.46-0.89,0.35-1.22
		c-0.5-1.52-1.13-2.98-1.69-4.48c-0.35-0.95-0.88-1.01-1.81-0.26C152.32,45.61,152.96,47.38,153.71,49.1z M104.67,105.86
		c-0.8,0-1.62-0.07-2.41,0.03c-0.33,0.04-0.62,0.42-0.93,0.65c0.28,0.31,0.54,0.87,0.84,0.89c1.56,0.1,3.13,0.1,4.69,0.02
		c0.28-0.01,0.54-0.58,0.8-0.89c-0.32-0.24-0.62-0.64-0.97-0.7c-0.66-0.11-1.35-0.03-2.03-0.03
		C104.67,105.84,104.67,105.85,104.67,105.86z M243.79,106.29c0.28,0.39,0.54,1.1,0.84,1.12c1.59,0.12,3.19,0.1,4.79,0.03
		c0.23-0.01,0.57-0.56,0.6-0.88c0.02-0.2-0.44-0.63-0.7-0.64c-1.72-0.06-3.43-0.03-5.15-0.03
		C244.05,106.02,243.92,106.16,243.79,106.29z M207.44,46.97c-0.5-0.27-0.85-0.47-1.32-0.72c-0.55,0.96-1.09,1.85-1.58,2.77
		c-0.49,0.92-0.92,1.87-1.4,2.85c0.42,0.29,0.75,0.53,1.23,0.86C205.42,50.78,206.41,48.9,207.44,46.97z M142.6,55.71
		c0.1-0.47,0.42-1.06,0.25-1.38c-0.8-1.49-1.72-2.92-2.66-4.32c-0.18-0.26-0.69-0.29-1.05-0.43c-0.09,0.4-0.39,0.93-0.23,1.19
		c0.97,1.67,2.05,3.29,3.09,4.93C142.19,55.71,142.39,55.71,142.6,55.71z M148.24,52.7c0.18-0.43,0.63-0.97,0.51-1.26
		c-0.69-1.58-1.51-3.11-2.35-4.61c-0.13-0.23-0.62-0.27-0.94-0.39c-0.13,0.36-0.47,0.81-0.36,1.06c0.81,1.74,1.72,3.45,2.6,5.16
		C147.88,52.67,148.06,52.69,148.24,52.7z M198.39,49.01c0.54-1.46,1.22-2.86,1.74-4.33c0.13-0.37-0.12-0.87-0.2-1.3
		c-0.38,0.21-0.98,0.33-1.12,0.64c-0.76,1.77-1.41,3.58-2.09,5.34C197.59,50.1,198.04,49.94,198.39,49.01z M221.83,114.11
		c0.3,0.27,0.57,0.74,0.89,0.79c1.58,0.23,3.18,0.39,4.78,0.46c0.41,0.02,0.85-0.34,1.27-0.53c-0.37-0.32-0.72-0.85-1.13-0.91
		c-1.58-0.23-3.18-0.3-5.15-0.46C222.39,113.57,222.11,113.84,221.83,114.11z M212.94,49.72c-0.36,0.04-0.84,0.19-1.03,0.46
		c-0.91,1.31-1.76,2.66-2.55,4.05c-0.14,0.26,0.13,0.75,0.2,1.13c0.33-0.12,0.81-0.15,0.98-0.39c0.93-1.3,1.78-2.65,2.65-3.99
		c0.13-0.21,0.24-0.44,0.39-0.73C213.35,50.05,213.13,49.7,212.94,49.72z M128.5,114.86c0.4-0.06,0.75-0.49,1.12-0.75
		c-0.45-0.21-0.9-0.6-1.34-0.59c-1.39,0.03-2.77,0.17-4.14,0.38c-0.43,0.07-0.81,0.51-1.21,0.78c0.39,0.28,0.78,0.57,0.93,0.67
		C125.66,115.17,127.09,115.08,128.5,114.86z M106.46,91.05c-0.32-0.07-0.74,0.29-1.11,0.45c0.25,0.32,0.45,0.83,0.77,0.93
		c1.28,0.42,2.61,0.69,3.91,1.06c0.83,0.24,1.3,0.02,1.44-1.22C109.79,91.85,108.14,91.39,106.46,91.05z M169.93,47.12
		c-0.72-1.31-0.34-2.14,0.84-2.83c-1.39,0.18-2.1-0.43-2.41-1.74c-0.23,1.38-1.05,1.86-2.37,1.76c1.2,0.67,1.52,1.52,0.89,2.81
		C167.91,46.06,168.88,46.21,169.93,47.12z M246.12,92.68c0.22-0.07,0.31-0.57,0.47-0.87c-0.34-0.17-0.72-0.54-1.01-0.48
		c-1.48,0.29-2.96,0.66-4.41,1.08c-0.27,0.08-0.65,0.57-0.59,0.76c0.09,0.31,0.49,0.53,0.73,0.76
		C243.02,93.49,244.58,93.13,246.12,92.68z M183.58,42.54c-0.19,1.42-1.05,1.84-2.37,1.8c1.44,0.61,1.33,1.63,0.93,2.84
		c1-1.14,1.94-0.99,2.97-0.05c-0.54-1.24-0.41-2.19,0.91-2.85C184.61,44.48,183.91,43.84,183.58,42.54z M223.32,59.44
		c-0.78,0.88-1.62,1.72-2.36,2.63c-0.19,0.24-0.1,0.71-0.14,1.08c0.4-0.03,0.96,0.1,1.18-0.11c1.06-1.01,2.03-2.12,3.06-3.21
		C224.51,58.78,223.97,58.71,223.32,59.44z M129.32,59.17c-0.23-0.23-0.79-0.11-1.2-0.16c0.02,0.4-0.11,0.92,0.09,1.19
		c0.66,0.87,1.46,1.62,2.16,2.45c0.73,0.87,1.31,0.71,1.89-0.25C131.3,61.32,130.36,60.19,129.32,59.17z M241.8,99.39
		c0.33,0.25,0.65,0.72,0.98,0.72c0.96-0.01,1.92-0.15,2.87-0.35c0.21-0.04,0.5-0.5,0.48-0.73c-0.03-0.24-0.42-0.63-0.63-0.61
		c-1.19,0.08-2.37,0.26-3.55,0.41C241.89,99.01,241.84,99.2,241.8,99.39z M109.51,99.36c-0.43-0.31-0.81-0.76-1.29-0.9
		c-0.63-0.18-1.34-0.19-2-0.13c-0.28,0.03-0.52,0.43-0.78,0.66c0.21,0.23,0.38,0.59,0.63,0.67c0.64,0.19,1.32,0.25,2.33,0.43
		C108.64,99.93,109.07,99.65,109.51,99.36z"/>
</g>
</svg>
