<?xml version="1.0" encoding="utf-8"?>
<!-- Generator: Adobe Illustrator 27.8.1, SVG Export Plug-In . SVG Version: 6.00 Build 0)  -->
<svg version="1.1" xmlns="http://www.w3.org/2000/svg" xmlns:xlink="http://www.w3.org/1999/xlink" x="0px" y="0px"
	 viewBox="0 0 350 230" style="enable-background:new 0 0 350 230;" xml:space="preserve">
<style type="text/css">
	.st0{fill:#0071BC;}
	.st1{fill:#F3FFFF;}
	.st2{fill:#FFEDC5;}
	.st3{fill:#F9F8D2;}
	.st4{fill:#D2FCE5;}
	.st5{fill:#FCEE21;}
	.st6{fill:#D9FCFC;}
	.st7{fill:#D6FCDE;}
	.st8{fill:#005652;}
	.st9{fill:#F6FFE3;}
	.st10{fill:#D9F4F3;}
	.st11{fill:#FFE7D2;}
	.st12{fill:#E1FEFF;}
	.st13{fill:#000037;}
	.st14{fill:#F9F6DC;}
	.st15{fill:#BFF6F7;}
	.st16{fill:#FFFFD9;}
	.st17{fill:#F5FFE6;}
	.st18{fill:#493117;}
	.st19{fill:#FFFDE6;}
	.st20{fill:#FFFCE3;}
	.st21{fill:#FF9D00;}
	.st22{fill:url(#SVGID_1_);}
	.st23{opacity:0.22;fill:url(#SVGID_00000165950546868153465940000010732066704233338778_);}
	.st24{fill:#FFC200;}
	.st25{fill:#778718;}
	.st26{fill:#E0B017;}
	.st27{fill:#664407;}
	.st28{fill:#9E690A;}
	.st29{fill:#7F1105;}
	.st30{fill:#191933;}
	.st31{fill:#FCEBD4;}
	.st32{fill:#E3DFD6;}
	.st33{fill:#FFB000;}
	.st34{fill:#AA210E;}
	.st35{fill:#FFF0A6;}
	.st36{fill:#FFDA00;}
	.st37{fill:#F4F4F4;}
	.st38{fill:#DC5C28;}
	.st39{fill:#FF8440;}
	.st40{fill:#C45224;}
	.st41{fill:#2C4369;}
	.st42{fill:#2A72DB;}
	.st43{fill:#C65500;}
	.st44{fill:#C15746;}
	.st45{fill:#FF8C00;}
	.st46{fill:#FFEA2C;}
	.st47{fill:#F7FF57;}
	.st48{fill:#FFFFFF;}
	.st49{fill:#D64949;}
	.st50{fill:#353535;}
	.st51{fill:#FFC783;}
	.st52{fill:#3F7F91;}
	.st53{fill:#25BDE5;}
	.st54{fill:#8CDD00;}
	.st55{fill:#D1FF88;}
	.st56{fill:#333333;}
	.st57{fill:#FF9000;}
	.st58{fill:#A1A813;}
	.st59{fill:#B3C40E;}
	.st60{fill:#CACE72;}
	.st61{fill:url(#SVGID_00000114792269394028755310000001184224906082878397_);}
	.st62{fill:#93E800;}
	.st63{fill:#3CB7D3;}
	.st64{fill:#FF7631;}
	.st65{fill:#E6873C;}
	.st66{fill:#30657F;}
	.st67{fill:#FF7A40;}
	.st68{fill:#FFAD4A;}
	.st69{fill:#BC8E3B;}
	.st70{fill:#E2E2E2;}
	.st71{fill:#F2B844;}
	.st72{fill:#AF3838;}
	.st73{fill:#17B5C1;}
	.st74{fill:#A88643;}
	.st75{fill-rule:evenodd;clip-rule:evenodd;fill:#DD7928;}
	.st76{fill:#E6E7E8;stroke:#CFCFCF;stroke-width:0.1061;}
	.st77{fill-rule:evenodd;clip-rule:evenodd;fill:#204F7A;}
	.st78{fill-rule:evenodd;clip-rule:evenodd;fill:#50A4FF;}
	.st79{fill:#002649;}
	.st80{fill:#00134F;}
	.st81{fill:#665200;}
	.st82{fill:#002349;}
	.st83{fill:#FF914D;}
	.st84{fill:#AC1929;}
	.st85{fill:#004AAD;}
	.st86{fill:#BE1C2D;}
	.st87{fill:#242424;}
	.st88{fill:#F1A75A;}
	.st89{fill-rule:evenodd;clip-rule:evenodd;}
	.st90{fill-rule:evenodd;clip-rule:evenodd;fill:#007177;}
	.st91{fill-rule:evenodd;clip-rule:evenodd;fill:#242424;}
	.st92{fill:#F9951C;}
	.st93{fill:#84123B;}
	.st94{fill:#FFB908;}
	.st95{fill:#393536;}
	.st96{fill:#093F00;}
	.st97{fill:#333300;}
	.st98{fill:#C8D7FF;}
	.st99{fill:#426BD1;}
	.st100{fill:#0036D2;}
	.st101{fill:url(#SVGID_00000137831645804987786280000016629289819230891162_);}
	.st102{fill:url(#SVGID_00000133490817519960710560000014825429190628196002_);}
	.st103{fill:#72C000;}
	.st104{fill:#FFEBD7;}
	.st105{fill:#FF7F00;}
	.st106{fill:#121212;}
	.st107{fill:url(#CUSTOM-group_00000031903448559348361140000004715103527865084577_);}
	.st108{fill:url(#CUSTOM-group_00000151540423291217698890000014844987429943470500_);}
	.st109{fill:#D9E021;}
	.st110{fill:#F9BF28;}
	.st111{fill:#2F5469;}
	.st112{fill:#0F263E;}
	.st113{fill:#FEFEFE;}
	.st114{fill:url(#SVGID_00000166654307285494988500000014870003970910433698_);}
	.st115{fill:url(#SVGID_00000019646471492601655130000014105740692360414643_);}
	.st116{fill:url(#SVGID_00000136374203389347075430000000449029916074613141_);}
	.st117{fill:#603813;}
	.st118{fill:#1B1464;}
	.st119{fill:#20515D;}
	.st120{fill:#005DE5;}
	.st121{fill:#D9F1F4;}
	.st122{fill:url(#SVGID_00000144302799827767688490000010407090782164190909_);}
	.st123{fill:#F5F5F5;stroke:#F5F5F5;stroke-miterlimit:10;}
	.st124{fill:#000003;stroke:#F5F5F5;stroke-width:2;stroke-linecap:round;stroke-linejoin:round;stroke-miterlimit:10;}
	.st125{fill:none;stroke:#F5F5F5;stroke-linecap:round;stroke-linejoin:round;stroke-miterlimit:10;}
	.st126{fill:#72C000;stroke:#72C000;stroke-width:0.5;stroke-linecap:round;stroke-linejoin:round;stroke-miterlimit:10;}
	.st127{fill:#72C000;stroke:#72C000;stroke-linecap:round;stroke-linejoin:round;stroke-miterlimit:10;}
	.st128{fill:#000003;stroke:#72C000;stroke-linecap:round;stroke-linejoin:round;stroke-miterlimit:10;}
	.st129{fill:#72C000;stroke:#72C000;stroke-width:0.25;stroke-miterlimit:10;}
	.st130{fill:#F5B507;}
	.st131{fill:#E39514;}
	.st132{fill:#023A4C;}
	.st133{fill:#4F0000;}
	.st134{fill:url(#SVGID_00000065784748548555079390000012905200216609057414_);}
	.st135{fill:url(#SVGID_00000121960798190751347610000010708667914465994686_);}
	.st136{fill-rule:evenodd;clip-rule:evenodd;fill:#FFCA01;}
	.st137{opacity:0.1;}
	.st138{opacity:0.3;}
	.st139{fill:url(#SVGID_00000070808477359025725230000002529936864122742192_);}
	.st140{fill:none;stroke:#000000;stroke-miterlimit:10;}
	.st141{fill:url(#SVGID_00000125566479860115245960000017037289479880216997_);}
	.st142{fill:url(#SVGID_00000014603057703205167380000012571901644625004442_);}
	.st143{fill:#39B54A;}
	.st144{fill:#1B5AA8;}
	.st145{fill:#123958;}
	.st146{fill:#91CC00;}
</style>
<g id="Layer_1">
</g>
<g id="Layer_12">
</g>
<g id="Layer_13">
</g>
<g id="Layer_14">
</g>
<g id="Layer_15">
</g>
<g id="Layer_11">
</g>
<g id="Layer_8">
</g>
<g id="Layer_10">
</g>
<g id="Layer_9">
</g>
<g id="Layer_2">
</g>
<g id="Layer_3">
</g>
<g id="Layer_4">
</g>
<g id="Layer_5">
</g>
<g id="Layer_6">
</g>
<g id="Layer_7">
	<g>
		<path d="M233,94.45c0,32.03-25.97,58-58,58s-58-25.97-58-58s25.97-58,58-58S233,62.42,233,94.45z"/>
		<path class="st48" d="M206.72,153.72c-1.51,0-3.11-0.55-4.38-1.52c-1.92-1.46-2.38-3.3-2.79-4.93c-0.18-0.73-0.36-1.42-0.65-2.08
			c-0.98-2.19-0.8-4.71-0.64-6.93c0.04-0.6,0.09-1.19,0.1-1.76c0-0.15,0.02-0.53,0.02-0.58c-0.08-0.05-0.19-0.12-0.35-0.22
			c-0.05-0.03-0.09-0.04-0.12-0.05c-0.2-0.07-0.53-0.2-0.89-0.49c-1.02-0.84-1.35-2.1-1.57-2.93c-0.74-2.84-1.56-6.09-2.15-9.34
			c-0.14-0.01-0.28-0.01-0.42-0.01c-0.81,0-1.61,0.09-2.37,0.28c-0.23,0.06-0.49,0.15-0.77,0.25c-0.64,0.23-1.37,0.49-2.21,0.49
			c-0.06,0-0.12,0-0.18,0c-1.07-0.06-1.87-0.55-2.55-1c-0.92-0.63-1.56-0.84-2.61-0.9c-1.02-0.05-2.2-0.11-3.36-0.11
			c-1.59,0-2.89,0.11-4.1,0.34c-0.72,0.14-2.07,0.4-2.92,0.91c-0.24,0.15-0.33,0.4-0.5,1.2c-0.09,0.43-0.2,0.92-0.4,1.42
			c-1.37,3.33-4.93,4.43-7.78,5.31c-1.03,0.32-1.99,0.61-2.79,0.98c-3.17,1.45-6.03,3.58-8.93,6.69c0.12,1.51-1.18,2.52-1.8,3
			c-0.15,0.12-0.3,0.23-0.44,0.35c-0.53,0.47-0.67,0.96-0.91,1.93c-0.06,0.23-0.12,0.47-0.18,0.72c-0.19,0.69-0.56,1.68-1.52,2.38
			c-0.68,0.49-1.44,0.73-2.26,0.73c-0.95,0-1.81-0.32-2.56-0.61c-0.28-0.11-0.55-0.21-0.83-0.29c-0.1-0.03-0.19-0.05-0.26-0.05
			c-0.11,0-0.25,0.06-0.57,0.22c-0.25,0.12-0.57,0.28-0.96,0.41c-0.59,0.2-1.22,0.3-1.89,0.3c-0.33,0-0.66-0.02-1.01-0.07
			c-2.22-0.32-4-1.65-5.45-2.91c-0.76-0.66-3.08-2.68-2.2-5.29c0.75-2.2,3.19-3.04,4.81-3.59l0.31-0.11
			c0.85-0.3,1.73-0.54,2.64-0.74c0-0.11,0.01-0.22,0.03-0.33c0.1-0.59,0.47-1.09,1-1.34c0.81-0.39,1.64-0.59,2.45-0.59
			c0.47,0,0.92,0.06,1.36,0.19c0.29-0.55,0.67-1.18,1.35-1.65c0.59-0.41,1.29-0.63,2.02-0.63c0.18,0,0.36,0.01,0.54,0.04
			c2.75-2.07,4.86-4.73,7.09-7.55c0.77-0.98,1.58-1.99,2.4-2.97c1.86-2.2,3.53-3.81,5.26-5.05c1.31-0.94,2.72-1.63,4.08-2.3
			c1.11-0.55,2.15-1.06,3.13-1.69c1.6-1.03,3.05-2.3,4.58-3.64c2.68-2.35,5.45-4.78,9.14-5.9c0.38-0.12,0.76-0.18,1.09-0.23
			c0.3-0.05,0.59-0.1,0.79-0.17c0.03-0.03,0.12-0.15,0.18-0.23c0.15-0.22,0.36-0.52,0.69-0.8c0.57-0.51,1.17-0.74,1.61-0.9
			c0.46-0.18,0.59-0.24,0.7-0.41l0.28-0.42c0.53-0.8,1.07-1.63,2.05-2.41c0.59-0.47,1.21-0.87,1.82-1.23
			c0.06-0.82,0.3-1.63,0.7-2.38c0.2-0.37,0.42-0.68,0.62-0.95c0.17-0.24,0.32-0.44,0.43-0.64c0.23-0.44,0.31-0.99,0.39-1.62
			c0.02-0.17,0.05-0.35,0.07-0.52c0.28-1.81,0.58-3.66,0.91-5.5c-0.5,0.1-1.02,0.15-1.56,0.15c-2.22,0-4.66-0.84-7.24-2.49
			c-2.43-1.56-4.74-3.27-6.48-4.58c-0.29-0.22-0.61-0.5-0.94-0.79c-0.48-0.43-1.03-0.92-1.41-1.08l0,0c0,0-0.02-0.01-0.11-0.01
			c-0.1,0-0.19,0.01-0.29,0.01c-0.08,0.01-0.15,0.01-0.23,0.02c-1.36,1.86-3.75,2.96-5.72,3.26c-0.42,0.06-0.85,0.09-1.27,0.09
			c-2.62,0-5.1-1.2-6.8-3.3c-1.81-2.22-2.42-5.1-1.66-7.89c0.69-2.54,2.44-4.64,4.77-5.77c0.13-0.34,0.33-0.64,0.59-0.9
			c0.66-0.66,1.64-0.99,2.91-0.99c1.03,0,2.2,0.23,3.02,0.6c0.25-0.03,0.51-0.05,0.76-0.05c0.94,0,1.89,0.23,2.74,0.66
			c2.09,1.05,3.01,3.05,3.51,4.63c3.47,1.25,6.88,2.77,10.18,4.25c1,0.45,2,0.89,3,1.33c0.05-0.45,0.22-0.88,0.52-1.26
			c-0.17-0.05-0.33-0.11-0.49-0.17c-0.79-0.3-1.72-0.99-1.95-2.05c-0.17-0.76,0.07-1.53,0.66-2.13c0.34-0.33,0.77-0.51,1.22-0.51
			c0.05,0,0.09,0,0.14,0.01l0.68-0.07c0.42-0.04,0.84-0.08,1.28-0.12c0.34-0.44,0.86-0.77,1.5-0.93c0.82-0.2,1.66-0.2,2.4-0.21
			c0.29,0,0.58,0,0.85-0.02c0.81-0.04,1.61-0.08,2.42-0.12c0.38-0.23,0.78-0.43,1.21-0.58c-0.33-2.22-0.3-4.58,0.09-7.05
			c-0.75-0.63-1.21-1.68-1.22-2.68c0-0.26,0.01-0.5,0.03-0.73c0.02-0.27,0.04-0.5,0.01-0.7c-0.01-0.07-0.02-0.13-0.03-0.2
			c-0.06-0.33-0.15-0.83,0.01-1.41c0.13-0.48,0.37-0.9,0.71-1.24c-0.15-2.22,1.02-4.59,3.28-6.53c1.84-1.58,4.12-2.46,6.42-2.46
			c0.38,0,0.76,0.02,1.13,0.07c3.02,0.39,5.65,2.33,6.87,5.08c1.04,2.33,0.88,4.86-0.41,7.03c0.34,1.08-0.12,2.1-0.4,2.72
			c-0.09,0.21-0.2,0.43-0.28,0.67c-0.09,0.27-0.13,0.6-0.16,0.98c-0.06,0.58-0.12,1.23-0.41,1.92c-0.08,0.19-0.19,0.39-0.33,0.6
			c1.76,0.08,3.58,0.31,5.19,1.13c2.69,1.36,3.34,3.77,3.56,5.79c0.14,0.14,0.3,0.28,0.45,0.42c0.64,0.59,1.37,1.26,1.9,2.27
			c0.7,1.34,0.98,2.76,0.82,4.12c-0.34,2.92-2.75,4.15-4.29,4.7c-0.5,3.79-0.72,7.45-0.66,10.88c0.04,1.96,0.37,3.73,1.04,5.58
			c0.47,1.3,1.11,3.08,0.61,4.96l-0.1,0.37c-0.26,0.95-0.31,1.23-0.09,1.64c0.09,0.16,0.17,0.3,0.25,0.43
			c0.27,0.45,0.58,0.95,0.75,1.71c0.4,1.77-0.08,3.52-0.54,4.84l-0.07,0.21c-0.33,0.99-0.84,2.48-2.46,3.08
			c-1.09,0.4-2.3,0.63-3.47,0.79c0.02,0.73-0.04,1.45-0.19,2.15c-0.16,0.71-0.41,1.42-0.76,2.11c-0.47,0.93-0.64,1.5-0.52,2.64
			c0.32,3.15-0.36,6.09-1.01,8.93l-0.22,0.94c-0.34,1.5-0.66,3.12-0.67,4.78c0,0.45,0.01,0.89,0.02,1.34
			c0.03,1.07,0.05,2.19-0.1,3.34c-0.34,2.57-1.17,5.03-1.98,7.41c-0.22,0.66-0.45,1.32-0.66,1.98l-0.08,0.25
			c-0.66,2.07-1.49,4.64-3.91,5.9C208.6,153.5,207.69,153.72,206.72,153.72L206.72,153.72z"/>
		<linearGradient id="SVGID_1_" gradientUnits="userSpaceOnUse" x1="129.85" y1="96.5182" x2="227.1268" y2="96.5182">
			<stop  offset="0" style="stop-color:#31C991"/>
			<stop  offset="0.3788" style="stop-color:#30C78F"/>
			<stop  offset="0.5152" style="stop-color:#2DC08A"/>
			<stop  offset="0.6124" style="stop-color:#28B580"/>
			<stop  offset="0.691" style="stop-color:#20A472"/>
			<stop  offset="0.7584" style="stop-color:#168E5F"/>
			<stop  offset="0.8169" style="stop-color:#0A7349"/>
			<stop  offset="0.8537" style="stop-color:#005E37"/>
		</linearGradient>
		<path class="st22" d="M227.09,71.95c-0.26,2.26-2.2,3.19-4.16,3.75c-0.57,3.98-0.88,8.01-0.8,12.03c0.04,2.13,0.41,4.05,1.13,6.05
			c0.47,1.3,0.95,2.69,0.57,4.08c-0.29,1.09-0.65,2-0.07,3.08c0.34,0.64,0.7,1.04,0.86,1.77c0.3,1.35-0.05,2.76-0.49,4.03
			c-0.33,0.97-0.61,2.01-1.65,2.39c-1.37,0.51-3.04,0.71-4.59,0.9c0.21,1.02,0.22,2.07,0,3.11c-0.14,0.62-0.35,1.21-0.64,1.77
			c-0.59,1.18-0.82,2.02-0.67,3.45c0.33,3.24-0.49,6.27-1.2,9.4c-0.38,1.68-0.69,3.36-0.71,5.09c-0.01,1.51,0.13,3-0.07,4.5
			c-0.41,3.12-1.62,6.14-2.58,9.12c-0.63,1.96-1.3,4.27-3.27,5.29c-1.77,0.92-3.98,0.43-5.52-0.74c-2.27-1.72-1.95-4.1-3-6.44
			c-1.08-2.4-0.49-5.49-0.41-8.05c0.03-1.22,0.21-1.38-1.07-2.11c-0.3-0.17-0.53-0.17-0.81-0.4c-0.64-0.52-0.88-1.41-1.08-2.16
			c-0.88-3.39-1.75-6.88-2.31-10.33c-1.47-0.19-2.94-0.15-4.4,0.21c-0.89,0.22-1.8,0.74-2.74,0.7c-0.68-0.03-1.24-0.38-1.79-0.75
			c-1.09-0.74-1.99-1.08-3.36-1.15c-2.59-0.14-5.24-0.24-7.81,0.25c-1.12,0.22-2.42,0.5-3.4,1.1c-1.21,0.74-1.02,2.15-1.5,3.31
			c-1.53,3.72-6.63,4.06-9.83,5.52c-3.91,1.79-7.09,4.46-9.95,7.62c0.62,1.26-0.76,1.93-1.59,2.67c-1.09,0.97-1.17,2.05-1.53,3.35
			c-0.17,0.62-0.43,1.19-0.97,1.58c-1.44,1.03-2.94,0.03-4.37-0.39c-1.19-0.35-1.63,0.24-2.69,0.6c-0.72,0.24-1.48,0.27-2.22,0.16
			c-1.8-0.26-3.34-1.4-4.69-2.56c-1.04-0.9-2.28-2.2-1.77-3.71c0.56-1.63,2.76-2.28,4.21-2.78c1.54-0.53,3.11-0.88,4.72-1.08
			c-0.34-0.21-0.67-0.47-0.98-0.78c-0.17-0.17-0.15-0.51,0.08-0.62c1.27-0.61,2.55-0.62,3.74,0.15c0.63-0.7,0.83-1.76,1.62-2.31
			c0.61-0.43,1.39-0.47,2.06-0.19c0.03-0.04,0.06-0.08,0.11-0.12c4.15-2.96,6.92-7.22,10.17-11.07c1.49-1.77,3.1-3.45,4.99-4.8
			c2.23-1.59,4.85-2.47,7.15-3.95c4.57-2.94,7.98-7.74,13.35-9.37c0.63-0.19,1.36-0.21,1.97-0.43c0.72-0.27,0.81-0.86,1.32-1.31
			c0.86-0.77,1.88-0.57,2.56-1.59c0.65-0.96,1.09-1.75,2.02-2.49c0.73-0.59,1.55-1.06,2.37-1.52c-0.01-0.09-0.01-0.19-0.01-0.28
			c-0.02-0.78,0.15-1.53,0.54-2.26c0.31-0.57,0.76-1.03,1.06-1.61c0.43-0.82,0.47-1.69,0.61-2.6c0.41-2.69,0.87-5.37,1.37-8.04
			c-3.16,2.01-6.94,0.64-9.92-1.27c-2.19-1.4-4.31-2.95-6.39-4.52c-0.79-0.6-1.75-1.66-2.65-2.05c-0.38-0.16-0.74-0.13-1.1-0.11
			c-0.3,0.02-0.59,0.04-0.89-0.05c-0.91,1.84-3.23,3.05-5.16,3.34c-2.57,0.39-5.09-0.67-6.71-2.67c-3.24-3.99-1.45-9.93,3.25-11.69
			c0-2.05,3.61-1.55,4.82-0.93c0.06,0.03,0.11,0.08,0.14,0.13c1.04-0.25,2.15-0.12,3.13,0.37c1.64,0.83,2.41,2.49,2.89,4.18
			c0.03,0.09,0.02,0.18-0.01,0.25c5.16,1.78,10.17,4.23,15.19,6.39c0.33-0.32,0.67-0.62,1.02-0.92c-0.31-0.42-0.43-0.92-0.04-1.38
			c0.56-0.66,1.42-0.5,2.2-0.52c0.09-0.53,0.28-1.08,0.53-1.56c-1.29,0.2-2.67,0.13-3.88-0.33c-0.74-0.28-1.48-1.06-0.77-1.78
			c0.08-0.08,0.18-0.09,0.28-0.06c0,0,0,0,0,0c0.04,0,0.07-0.01,0.11-0.01c0.96-0.09,1.94-0.21,2.9-0.25
			c-0.05-0.46,0.3-0.78,0.84-0.91c0.93-0.22,2.02-0.13,2.97-0.18c0.94-0.05,1.88-0.09,2.82-0.13c0.68-0.51,1.57-0.84,2.43-0.88
			c-0.68-2.99-0.57-6.09,0.03-9.09c-0.83,0.12-1.4-1.02-1.41-1.8c0-0.54,0.09-1.04,0.03-1.58c-0.04-0.35-0.16-0.7-0.06-1.06
			c0.12-0.46,0.47-0.78,0.89-0.93c-0.64-2.3,0.94-4.65,2.64-6.1c1.76-1.52,4.08-2.34,6.41-2.04c4.86,0.62,8.11,6.01,5.13,10.31
			c-0.07,0.11-0.17,0.16-0.27,0.18c0.97,0.98,0.15,1.88-0.27,3.08c-0.32,0.93-0.16,1.89-0.54,2.82c-0.23,0.55-1.44,1.87-1.46,2.58
			c2.28,0.03,4.95-0.03,7.02,1.02c1.98,1.01,2.59,2.77,2.79,4.88c0.01,0.08-0.01,0.14-0.03,0.2c0.83,0.94,1.89,1.59,2.51,2.78
			C226.95,69.69,227.23,70.82,227.09,71.95z"/>
	</g>
</g>
</svg>
