<?xml version="1.0" encoding="utf-8"?>
<!-- Generator: Adobe Illustrator 27.8.1, SVG Export Plug-In . SVG Version: 6.00 Build 0)  -->
<svg version="1.1" xmlns="http://www.w3.org/2000/svg" xmlns:xlink="http://www.w3.org/1999/xlink" x="0px" y="0px"
	 viewBox="0 0 350 230" style="enable-background:new 0 0 350 230;" xml:space="preserve">
<style type="text/css">
	.st0{fill:#0071BC;}
	.st1{fill:#F3FFFF;}
	.st2{fill:#FFEDC5;}
	.st3{fill:#F9F8D2;}
	.st4{fill:#D2FCE5;}
	.st5{fill:#FCEE21;}
	.st6{fill:#D9FCFC;}
	.st7{fill:#D6FCDE;}
	.st8{fill:#005652;}
	.st9{fill:#F6FFE3;}
	.st10{fill:#D9F4F3;}
	.st11{fill:#FFE7D2;}
	.st12{fill:#E1FEFF;}
	.st13{fill:#000037;}
	.st14{fill:#F9F6DC;}
	.st15{fill:#BFF6F7;}
	.st16{fill:#FFFFD9;}
	.st17{fill:#F5FFE6;}
	.st18{fill:#493117;}
	.st19{fill:#FFFDE6;}
	.st20{fill:#FFFCE3;}
	.st21{fill:#FF9D00;}
	.st22{fill:url(#SVGID_1_);}
	.st23{opacity:0.22;fill:url(#SVGID_00000142138327245200944240000004144736333756037548_);}
	.st24{fill:#FFC200;}
	.st25{fill:#778718;}
	.st26{fill:#E0B017;}
	.st27{fill:#664407;}
	.st28{fill:#9E690A;}
	.st29{fill:#7F1105;}
	.st30{fill:#191933;}
	.st31{fill:#FCEBD4;}
	.st32{fill:#E3DFD6;}
	.st33{fill:#FFB000;}
	.st34{fill:#AA210E;}
	.st35{fill:#FFF0A6;}
	.st36{fill:#FFDA00;}
	.st37{fill:#F4F4F4;}
	.st38{fill:#DC5C28;}
	.st39{fill:#FF8440;}
	.st40{fill:#C45224;}
	.st41{fill:#2C4369;}
	.st42{fill:#2A72DB;}
	.st43{fill:#C65500;}
	.st44{fill:#C15746;}
	.st45{fill:#FF8C00;}
	.st46{fill:#FFEA2C;}
	.st47{fill:#F7FF57;}
	.st48{fill:#FFFFFF;}
	.st49{fill:#D64949;}
	.st50{fill:#353535;}
	.st51{fill:#FFC783;}
	.st52{fill:#3F7F91;}
	.st53{fill:#25BDE5;}
	.st54{fill:#8CDD00;}
	.st55{fill:#D1FF88;}
	.st56{fill:#333333;}
	.st57{fill:#FF9000;}
	.st58{fill:#A1A813;}
	.st59{fill:#B3C40E;}
	.st60{fill:#CACE72;}
	.st61{fill:url(#SVGID_00000065069094297530300460000015079260463414598789_);}
	.st62{fill:#93E800;}
	.st63{fill:#3CB7D3;}
	.st64{fill:#FF7631;}
	.st65{fill:#E6873C;}
	.st66{fill:#30657F;}
	.st67{fill:#FF7A40;}
	.st68{fill:#FFAD4A;}
	.st69{fill:#BC8E3B;}
	.st70{fill:#E2E2E2;}
	.st71{fill:#F2B844;}
	.st72{fill:#AF3838;}
	.st73{fill:#17B5C1;}
	.st74{fill:#A88643;}
	.st75{fill-rule:evenodd;clip-rule:evenodd;fill:#DD7928;}
	.st76{fill:#E6E7E8;stroke:#CFCFCF;stroke-width:0.1061;}
	.st77{fill-rule:evenodd;clip-rule:evenodd;fill:#204F7A;}
	.st78{fill-rule:evenodd;clip-rule:evenodd;fill:#50A4FF;}
	.st79{fill:#002649;}
	.st80{fill:#00134F;}
	.st81{fill:#665200;}
	.st82{fill:#002349;}
	.st83{fill:#FF914D;}
	.st84{fill:#AC1929;}
	.st85{fill:#004AAD;}
	.st86{fill:#BE1C2D;}
	.st87{fill:#242424;}
	.st88{fill:#F1A75A;}
	.st89{fill-rule:evenodd;clip-rule:evenodd;}
	.st90{fill-rule:evenodd;clip-rule:evenodd;fill:#007177;}
	.st91{fill-rule:evenodd;clip-rule:evenodd;fill:#242424;}
	.st92{fill:#F9951C;}
	.st93{fill:#84123B;}
	.st94{fill:#FFB908;}
	.st95{fill:#393536;}
	.st96{fill:#093F00;}
	.st97{fill:#333300;}
	.st98{fill:#C8D7FF;}
	.st99{fill:#426BD1;}
	.st100{fill:#0036D2;}
	.st101{fill:url(#SVGID_00000159469669668787637990000009357224677065927559_);}
	.st102{fill:url(#SVGID_00000177464438297163778180000011207231395905815680_);}
	.st103{fill:#72C000;}
	.st104{fill:#FFEBD7;}
	.st105{fill:#FF7F00;}
	.st106{fill:#121212;}
	.st107{fill:url(#CUSTOM-group_00000000907284225952201770000013596004313103083656_);}
	.st108{fill:url(#CUSTOM-group_00000057139178363814383440000006324629702245843361_);}
	.st109{fill:#D9E021;}
	.st110{fill:#F9BF28;}
	.st111{fill:#2F5469;}
	.st112{fill:#0F263E;}
	.st113{fill:#FEFEFE;}
	.st114{fill:url(#SVGID_00000021088405010040993650000012536733870701508506_);}
	.st115{fill:url(#SVGID_00000086656733888306758830000007751560225835112845_);}
	.st116{fill:url(#SVGID_00000018923631638188650180000015472243814995040653_);}
	.st117{fill:#603813;}
	.st118{fill:#1B1464;}
	.st119{fill:#20515D;}
	.st120{fill:#005DE5;}
	.st121{fill:#D9F1F4;}
	.st122{fill:url(#SVGID_00000066485538616919443090000006798988738018836871_);}
	.st123{fill:#F5F5F5;stroke:#F5F5F5;stroke-miterlimit:10;}
	.st124{fill:#000003;stroke:#F5F5F5;stroke-width:2;stroke-linecap:round;stroke-linejoin:round;stroke-miterlimit:10;}
	.st125{fill:none;stroke:#F5F5F5;stroke-linecap:round;stroke-linejoin:round;stroke-miterlimit:10;}
	.st126{fill:#72C000;stroke:#72C000;stroke-width:0.5;stroke-linecap:round;stroke-linejoin:round;stroke-miterlimit:10;}
	.st127{fill:#72C000;stroke:#72C000;stroke-linecap:round;stroke-linejoin:round;stroke-miterlimit:10;}
	.st128{fill:#000003;stroke:#72C000;stroke-linecap:round;stroke-linejoin:round;stroke-miterlimit:10;}
	.st129{fill:#72C000;stroke:#72C000;stroke-width:0.25;stroke-miterlimit:10;}
	.st130{fill:#F5B507;}
	.st131{fill:#E39514;}
	.st132{fill:#023A4C;}
	.st133{fill:#4F0000;}
	.st134{fill:url(#SVGID_00000130605086380152580770000003431252699964523907_);}
	.st135{fill:url(#SVGID_00000074424531601151781580000009736867712946988164_);}
	.st136{fill-rule:evenodd;clip-rule:evenodd;fill:#FFCA01;}
	.st137{opacity:0.1;}
	.st138{opacity:0.3;}
	.st139{fill:url(#SVGID_00000179611459347178122320000003947304594075716016_);}
	.st140{fill:none;stroke:#000000;stroke-miterlimit:10;}
	.st141{fill:url(#SVGID_00000074417337511839670920000011345727709230886816_);}
	.st142{fill:url(#SVGID_00000163763983955498076390000017073138686708742788_);}
	.st143{fill:#39B54A;}
	.st144{fill:#1B5AA8;}
	.st145{fill:#123958;}
	.st146{fill:#91CC00;}
</style>
<g id="Layer_1">
</g>
<g id="Layer_12">
</g>
<g id="Layer_13">
</g>
<g id="Layer_14">
</g>
<g id="Layer_15">
</g>
<g id="Layer_11">
</g>
<g id="Layer_8">
</g>
<g id="Layer_10">
</g>
<g id="Layer_9">
</g>
<g id="Layer_2">
</g>
<g id="Layer_3">
</g>
<g id="Layer_4">
</g>
<g id="Layer_5">
</g>
<g id="Layer_6">
</g>
<g id="Layer_7">
	<g>
		<path class="st144" d="M152.58,90.73c0,0-1.57,9.7-9.68,15.37c2.02-1.42,9.44-8.18,8.44-21.16c0,0-2.04-4.28-7.05-6.36
			c-5.01-2.08-11,1.1-11,1.1s-6.72,10.15-5.26,22.37c0,0-3.07-7.98,2.28-19.8c0,0-5.87,4.97-5.38,14.51
			c0.49,9.54,3.18,22.25,2.4,26.24l5.62,0.53l0.73-2.73c0,0,11.86-11.57,16.1-17.69C154.02,97,152.58,90.73,152.58,90.73z
			 M131.65,118.56c0,0-2.32-8.27-2.32-11.61c0,0,4.33,4.63,10.17,3.16L131.65,118.56z M214.68,164.36c0,0-9.23,12.8-26.43,15.44
			c-14.33,2.21-25.35-6.03-25.35-6.03s0.57-0.33,0.73-0.33c0.16,0,5.54,1.79,5.54,1.79s2.2-7.91,8.64-15.89
			c6.44-7.99,15.32-21.03,19.4-34.56c0,0,10.31,16.18,11.53,42.34l5.44-2.91L214.68,164.36z"/>
		<path class="st145" d="M142.55,145.56l11.86,12.16c0,0,3.72-3.05,7.04-7.72c0.24-0.33,0.73-0.33,0.95,0.02
			c1.32,2.07,5.49,8.75,8.49,15.65c0,0,4.2-5.13,6.38-7.34c2.27-2.29,16.44-22.21,19.38-34.19c0,0-4.65-8.35-7.17-11.74l6.36,6.64
			l2.25-8.61c0.07-0.26-0.05-0.53-0.28-0.67l-9.65-5.48c0,0,2.67,0.2,8.58,3.3c0,0,3.23-11.48,3.6-14.17
			c0.37-2.69-11.2-28.86-11.2-28.86s0.55-2.05,0.12-4.1c-0.43-2.05-1.07-4.31-1.07-4.31s0.92-3.42,0.73-5.93c0,0-0.3-0.87-1.05-1.01
			c-0.75-0.14-0.9,0.75-0.9,0.75s-0.04,2.73-0.84,3.89c0,0-0.83-6.08-0.83-6.23c0-0.15-1.29-1.2-2.13,0.27l0.22,6
			c0,0.08-0.11,0.11-0.14,0.03l-2.87-7.09c0,0-1.59-0.89-2.17,0.61l1.2,6.8c0.02,0.11-0.13,0.17-0.19,0.08l-3.39-4.89
			c0,0-1.16,0.06-1.01,1.65l3.73,7.58c0,0,5.62,0.85,6.89,1.5c0,0-5.95,0.04-6.85,0.08c0,0-1.39-0.77-2.65-1.47
			c-1.26-0.69-2.57-0.29-2.69,0.69c-0.12,0.98,1.22,1.59,1.22,1.59s6.44,4.52,6.72,4.89l7.7,25.27l-3.63,11.43l-0.86-0.55
			c0,0-2.69,7.76-3.3,9.11s-3.12,7.4-3.42,9.11l-0.98,0.04l-1.63-3.95c0,0-3.08,1.83-7.23,0.43c0,0,4.34-0.14,7.03-2.18
			c2.08-1.57,4.23-3.1,5.1-3.71c0.23-0.16,0.29-0.47,0.14-0.7l-2.92-4.67c0,0-2.08,0.61-3.22,0.12c0,0,1.75-0.71,2.77-2.01
			c0.11-0.14,0.06-0.35-0.1-0.44l-7.86-4.32c0,0,2.51-1.47,0.67-4.65c0,0-0.37,1.41-1.25,1.8c0,0-1.61-0.13-4.14,0.76
			s-5.22,0.45-7.62,2.57s-2.97,5.3-2.97,5.3s-1.67,3.55-1.22,7.95c0.45,4.4,3.02,6.19,4.44,6.56c1.43,0.37,3.22,1.02,3.99,2.2
			c0.77,1.18,0.94,1.71,0.94,1.71l1.59-1.43l2.28,4.2c0,0-5.78,1.81-7.18,2.42C156.93,128.93,142.55,145.56,142.55,145.56z
			 M143.22,146.76l7.99,10.23l-10.86,10.57c0,0-3.55,1.16-5.5-3s-7.76-27.87-7.76-27.87s-0.71-0.29-2.16-1.53
			c-1.45-1.24-1.57-1.89-1.63-2.14c-0.06-0.24,0.04-1.28,0.37-1.51c0,0,0.04-1.9,0.39-2.73c0,0,0.04-2.57,1.04-3.28
			c0,0-0.2-1.94,0.43-2.57l8.26,2.75v-0.52c0,0,0.76,0.21,1.5,0.89c0.73,0.67-0.24,6.94-0.24,7.12c0,0.16,4.4,12.05,5.66,15.45
			c0.15,0.4,0.67,0.48,0.93,0.14L143.22,146.76z"/>
		<path class="st146" d="M224.22,88.83c-6.32-34.64-31.48-57.27-31.48-57.27c-0.09,0.75-0.28,1.43-0.53,2.04
			c11.76,9.56,18.38,26.49,18.38,26.49c-5.69-11.59-16.8-22.44-19.32-24.82c-1.13,1.55-2.48,2.28-2.48,2.28s20.98,18.55,28.65,52.45
			c7.58,33.5,3.91,71.64,3.91,71.64S231.2,127.16,224.22,88.83z M189.88,22.8c0,0,2.97,2.38,1.75,6.65c0,0,1.78-0.61,1.38-3.64
			C192.58,22.6,189.88,22.8,189.88,22.8z M174.52,29.85c0,0-0.49,3.21,1.39,5.83c0,0-1.58,0.02-2.27-2.16
			C172.84,31.01,174.52,29.85,174.52,29.85z M185.56,25.63c1.01,0.81,2.1,1.29,2.98,1.4c-0.84-1.9-2.64-3.28-4.78-3.52
			C184.12,24.22,184.74,24.97,185.56,25.63z M185.34,26.09c-1.02-0.82-1.72-1.77-2.02-2.61c-0.08,0-0.16-0.01-0.25-0.01
			c-3.23,0-5.85,2.56-5.97,5.76c1.59-0.69,3.51-0.72,5.28,0.08c2.24,1.01,3.63,3.07,3.81,5.24c1.72-1.05,2.86-2.94,2.86-5.1
			c0-0.67-0.12-1.32-0.32-1.92C187.79,27.54,186.52,27.04,185.34,26.09z M181.82,29.81c-1.57-0.71-3.26-0.75-4.73-0.23
			c0.07,3.24,2.71,5.85,5.97,5.85c0.88,0,1.72-0.2,2.47-0.54C185.34,32.78,183.98,30.79,181.82,29.81z"/>
	</g>
</g>
</svg>
