<?xml version="1.0" encoding="utf-8"?>
<!-- Generator: Adobe Illustrator 27.8.1, SVG Export Plug-In . SVG Version: 6.00 Build 0)  -->
<svg version="1.1" id="Layer_1" xmlns="http://www.w3.org/2000/svg" xmlns:xlink="http://www.w3.org/1999/xlink" x="0px" y="0px"
	 viewBox="0 0 350 230" style="enable-background:new 0 0 350 230;" xml:space="preserve">
<style type="text/css">
	.st0{fill:#F8FFD9;}
	.st1{fill:#FEFFE6;}
	.st2{fill:#CFF7F9;}
	.st3{fill:#E5E3CA;}
	.st4{fill:#FAFFD7;}
	.st5{fill:#FFF4EB;}
	.st6{fill:#FFFAD9;}
	.st7{fill:#D9FFF8;}
	.st8{fill:#FFEED9;}
	.st9{fill:#B9E1EA;}
	.st10{fill:#D9FFDA;}
	.st11{fill:#E0FFD9;}
	.st12{fill:#004A63;}
	.st13{fill:#C2F9D9;}
	.st14{fill:#FFF4D9;}
	.st15{fill:#D7F6FF;}
	.st16{fill:#EAF4B5;}
	.st17{fill:#013586;}
	.st18{fill:#005868;}
	.st19{fill:#FF0087;}
	.st20{fill:#002F44;}
	.st21{fill:#FC9500;}
	.st22{fill:#003144;}
	.st23{fill:#00AAFF;}
	.st24{fill:#00FFE6;}
	.st25{fill:#F46CFF;}
	.st26{fill:#0043FF;}
	.st27{fill:#977D00;}
	.st28{fill-rule:evenodd;clip-rule:evenodd;fill:#5BB200;}
	.st29{fill-rule:evenodd;clip-rule:evenodd;fill:#747C04;}
	.st30{fill:#735500;}
	.st31{fill:#4D0600;}
	.st32{fill-rule:evenodd;clip-rule:evenodd;fill:#FF0074;}
	.st33{fill-rule:evenodd;clip-rule:evenodd;fill:#004972;}
	.st34{fill:#FFDB43;}
	.st35{fill:#34A853;}
	.st36{fill:#4285F4;}
	.st37{fill-rule:evenodd;clip-rule:evenodd;fill:#C2C700;}
	.st38{fill-rule:evenodd;clip-rule:evenodd;fill:#FF0062;}
	.st39{fill-rule:evenodd;clip-rule:evenodd;fill:#C44600;}
	.st40{fill:#02D3BE;}
	.st41{fill:#D3B900;}
	.st42{fill:#0055FF;}
	.st43{fill:#D17315;}
	.st44{fill:#9E580B;}
	.st45{fill:url(#SVGID_1_);}
	.st46{fill:#05ADFC;}
	.st47{fill:#F1F9C2;}
	.st48{fill-rule:evenodd;clip-rule:evenodd;fill:#282000;}
	.st49{fill:#414042;}
	.st50{fill:#002E96;}
	.st51{fill:#231F20;}
	.st52{fill:#FFE01A;}
	.st53{fill:#1C87AE;}
	.st54{fill-rule:evenodd;clip-rule:evenodd;fill:#231F20;}
	.st55{fill-rule:evenodd;clip-rule:evenodd;fill:#AE6219;}
	.st56{fill-rule:evenodd;clip-rule:evenodd;fill:#ED1B2D;}
	.st57{fill-rule:evenodd;clip-rule:evenodd;fill:#FFFFFF;}
	.st58{fill:#2581D1;}
	.st59{fill:#1581B7;}
	.st60{fill:#282828;}
	.st61{fill-rule:evenodd;clip-rule:evenodd;fill:#011F4B;}
	.st62{fill-rule:evenodd;clip-rule:evenodd;fill:#005B96;}
	.st63{fill-rule:evenodd;clip-rule:evenodd;fill:#00BFFF;}
	.st64{fill-rule:evenodd;clip-rule:evenodd;fill:#D3DEE4;}
	.st65{fill-rule:evenodd;clip-rule:evenodd;fill:#E3EDF1;}
	.st66{fill:#00235A;}
	.st67{fill:#003076;}
	.st68{fill:#AE6219;}
	.st69{fill:#00BDFF;}
	.st70{display:none;fill:url(#SVGID_00000165936541837816309230000005771511499742142338_);}
	.st71{fill:none;}
	.st72{fill:#011F4B;}
	.st73{fill:#FFFFFF;}
	.st74{fill-rule:evenodd;clip-rule:evenodd;fill:#F39C12;}
	.st75{fill-rule:evenodd;clip-rule:evenodd;fill:#1297E0;}
	.st76{fill-rule:evenodd;clip-rule:evenodd;fill:#CC7C09;}
	.st77{fill-rule:evenodd;clip-rule:evenodd;fill:#19B5FE;}
	.st78{fill:#EA3560;}
	.st79{fill:#C7E7FF;}
	.st80{fill:#002D4F;}
	.st81{fill:#3382D1;}
	.st82{fill:url(#SVGID_00000030454275092284627490000012089285196817765249_);}
	.st83{fill:#009F9A;}
	.st84{fill:#0074BA;}
	.st85{fill-rule:evenodd;clip-rule:evenodd;fill:#01305C;}
	.st86{fill-rule:evenodd;clip-rule:evenodd;fill:#FF0000;}
	.st87{fill:url(#SVGID_00000135661155437044490040000010874190577980990893_);}
	.st88{fill:#01253F;}
	.st89{fill:#0EC6CE;}
	.st90{fill:#F9FAFB;}
	.st91{fill:url(#SVGID_00000086650764496830247140000014903818421452984979_);}
	.st92{fill:#293D7F;}
	.st93{fill:url(#SVGID_00000155854084483014899560000001536795382592068999_);}
	.st94{fill:url(#SVGID_00000168807677290982885880000016079258782704708259_);}
	.st95{fill:url(#SVGID_00000046298241714149653730000008826567987367011998_);}
	.st96{fill:url(#SVGID_00000152225851406913979040000009107702938651248256_);}
	.st97{fill:url(#SVGID_00000127729736230363761700000010052187208920061357_);}
	.st98{fill-rule:evenodd;clip-rule:evenodd;fill:url(#SVGID_00000110440866755028155010000011852280552260751769_);}
	.st99{fill:#00007F;}
	.st100{fill-rule:evenodd;clip-rule:evenodd;fill:#009F9A;}
	.st101{fill-rule:evenodd;clip-rule:evenodd;fill:#004A63;}
	.st102{fill:url(#SVGID_00000028296236053689011160000012732525428782999958_);}
	.st103{opacity:0.33;fill:#FAFF9C;enable-background:new    ;}
	.st104{fill:url(#SVGID_00000034796101849808766650000018165552368433446581_);}
	.st105{opacity:0.2;fill:#00005E;enable-background:new    ;}
	.st106{fill:url(#SVGID_00000165228578787831506140000009513693841103726000_);}
	.st107{fill-rule:evenodd;clip-rule:evenodd;fill:#0074BA;}
	.st108{fill-rule:evenodd;clip-rule:evenodd;fill:url(#SVGID_00000095304790952586924900000009284501959801761471_);}
	.st109{fill:#7FFFB6;}
	.st110{fill:url(#Layer_2_00000042721950273729231930000012718942237740819606_);}
	.st111{fill-rule:evenodd;clip-rule:evenodd;fill:#00ADEE;}
	.st112{fill-rule:evenodd;clip-rule:evenodd;fill:#0094D9;}
	.st113{fill-rule:evenodd;clip-rule:evenodd;fill:#FF6600;}
	.st114{fill-rule:evenodd;clip-rule:evenodd;fill:#03274D;}
	.st115{fill:url(#SVGID_00000020388457122694214160000007113307019295661235_);}
	.st116{fill:#0087FF;}
	.st117{fill:url(#SVGID_00000052081956949106862830000009702238773443306906_);}
	.st118{fill:url(#SVGID_00000057869163930113888270000005033476153029970876_);}
	.st119{fill:#9635EE;}
	.st120{fill:url(#SVGID_00000055674974093426775150000001452357416583554198_);}
	.st121{fill:url(#SVGID_00000183227686137924635100000015949154932041207697_);}
	.st122{fill:#F7FAFB;}
	.st123{fill:url(#SVGID_00000180324548391618223330000002225643331574306959_);}
	.st124{fill:url(#SVGID_00000131352334995286460700000015917519829707570079_);}
	.st125{fill:#1B75FF;}
	.st126{fill:#0147B2;}
	.st127{fill:url(#SVGID_00000013913391816052579860000016029331860896489139_);}
	.st128{fill:url(#SVGID_00000000901428630737272880000018012246652015932054_);}
	.st129{fill:#092A38;}
	.st130{fill:#00A99D;}
	.st131{fill:url(#SVGID_00000142159073001436242290000005769275108426105277_);}
	.st132{fill:url(#SVGID_00000149378618991877951130000012530102833649472175_);}
	.st133{fill:url(#SVGID_00000109725515343616980760000010072505066412806800_);}
	.st134{fill:url(#SVGID_00000091710404151067057170000013131188111967349923_);}
	.st135{fill:url(#SVGID_00000080898857551274448160000001636723321183043258_);}
	.st136{fill-rule:evenodd;clip-rule:evenodd;fill:#C1C2C4;}
</style>
<g>
	<linearGradient id="SVGID_1_" gradientUnits="userSpaceOnUse" x1="153.1069" y1="105.071" x2="173.0392" y2="146.1931">
		<stop  offset="0" style="stop-color:#FF5F47"/>
		<stop  offset="1" style="stop-color:#FFAF66"/>
	</linearGradient>
	<path class="st45" d="M216.27,112.82v8.49c0,3.64-1.51,7.07-4.1,9.5c-0.73,0.69-1.54,1.3-2.43,1.81l-1.32,0.77l-1.31,0.75
		l-17.78,10.27l-24.76,14.29c-4.05,2.33-9.02,2.33-13.06,0l-45.17-26.08c-4.04-2.34-6.54-6.65-6.54-11.31V69.15
		c0-4.67,2.5-8.98,6.54-11.31l35.2-20.32l9.97-5.75c0.7-0.4,1.43-0.74,2.17-1c0.12-0.05,0.25-0.09,0.37-0.13
		c0.4-0.13,0.81-0.24,1.23-0.33c0.13-0.03,0.26-0.06,0.4-0.08c0.26-0.05,0.52-0.09,0.79-0.12c0.22-0.03,0.45-0.05,0.67-0.06
		c0.05-0.01,0.1-0.01,0.16-0.01c0.05-0.01,0.11-0.01,0.17-0.01h0.05v9.4c0,3.28,2.66,5.94,5.94,5.94h13.36l0.09,1.62v28.33
		c0,3.27,2.66,5.93,5.94,5.93h21.36l0.02,1.9v23.74c0,2.85,2.01,5.24,4.7,5.81c0.4,0.09,0.81,0.13,1.24,0.13L216.27,112.82
		L216.27,112.82z"/>
	<path class="st103" d="M216.27,112.82v8.49c0,3.64-1.51,7.07-4.1,9.5c-0.45,0.43-0.93,0.82-1.45,1.18
		c2.36-2.41,3.74-5.68,3.74-9.15v-8.49h-6.13c-0.43,0-0.84-0.05-1.24-0.13c-2.68-0.57-4.7-2.96-4.7-5.81V84.67l-0.02-1.9h-21.36
		c-3.27,0-5.94-2.66-5.94-5.93V48.5l-0.09-1.62h-13.36c-3.27,0-5.94-2.66-5.94-5.94v-9.4h-0.05c-0.06,0.01-0.12,0.01-0.17,0.01
		c-0.05,0-0.1,0.01-0.16,0.01c-0.22,0.01-0.45,0.03-0.67,0.06c-0.26,0.03-0.53,0.07-0.79,0.12c-0.13,0.02-0.26,0.05-0.4,0.08
		c-0.41,0.09-0.82,0.2-1.23,0.33c-0.13,0.04-0.25,0.08-0.37,0.13c-0.74,0.26-1.47,0.6-2.17,1l-9.97,5.75l-35.2,20.32
		c-0.34,0.2-0.67,0.41-0.99,0.64c0.82-0.84,1.75-1.57,2.8-2.17l35.2-20.32l9.97-5.75c0.7-0.4,1.43-0.74,2.17-1
		c0.12-0.05,0.25-0.09,0.37-0.13c0.4-0.13,0.81-0.24,1.23-0.33c0.13-0.03,0.26-0.06,0.4-0.08c0.26-0.05,0.52-0.09,0.79-0.12
		c0.22-0.03,0.45-0.05,0.67-0.06c0.05-0.01,0.1-0.01,0.16-0.01c0.05-0.01,0.11-0.01,0.17-0.01h0.05v9.4c0,3.28,2.66,5.94,5.94,5.94
		h13.36l0.09,1.62v28.33c0,3.27,2.66,5.93,5.94,5.93h21.36l0.02,1.9v23.74c0,2.85,2.01,5.24,4.7,5.81c0.4,0.09,0.81,0.13,1.24,0.13
		L216.27,112.82L216.27,112.82z M212.17,130.81c-0.73,0.69-1.54,1.3-2.43,1.81l-1.32,0.77l-1.31,0.75l-17.78,10.27l-24.76,14.29
		c-4.05,2.33-9.02,2.33-13.06,0l-45.17-26.08c-4.04-2.34-6.54-6.65-6.54-11.31V69.15c0-4.67,2.5-8.98,6.54-11.31l35.2-20.32
		l9.97-5.75c0.7-0.4,1.43-0.74,2.17-1c0.12-0.05,0.25-0.09,0.37-0.13c0.4-0.13,0.81-0.24,1.23-0.33c0.13-0.03,0.26-0.06,0.4-0.08
		c0.26-0.05,0.52-0.09,0.79-0.12c0.22-0.03,0.45-0.05,0.67-0.06c0.05-0.01,0.1-0.01,0.16-0.01c0.14,0.12,0.21,0.19,0.21,0.19
		s-12.74,27.08,2.26,47.29c10.37,13.97,32.53,12.97,44.45,27.34v2.04c0,2.85,2.01,5.24,4.7,5.81
		C210.88,117.44,212.06,123.34,212.17,130.81z"/>
	
		<linearGradient id="SVGID_00000175304375876110363270000014970393843271497372_" gradientUnits="userSpaceOnUse" x1="173.64" y1="89.2317" x2="133.0731" y2="104.8343">
		<stop  offset="0" style="stop-color:#0722BB"/>
		<stop  offset="1" style="stop-color:#1288C6"/>
	</linearGradient>
	<path style="fill:url(#SVGID_00000175304375876110363270000014970393843271497372_);" d="M208.42,133.39l-1.31,0.75l-17.78,10.27
		l-24.76,14.29c-4.05,2.33-9.02,2.33-13.06,0l-45.17-26.08c-2.15-1.24-3.86-3.04-4.99-5.15c-1-1.87-1.55-3.98-1.55-6.16V69.15
		c0-4.67,2.5-8.98,6.54-11.31l35.2-20.32l9.97-5.75c0.7-0.4,1.43-0.74,2.17-1c0.12-0.05,0.25-0.09,0.37-0.13
		c0.4-0.13,0.81-0.24,1.23-0.33c0.13-0.03,0.26-0.06,0.4-0.08c0.26-0.05,0.52-0.09,0.79-0.12c0.22-0.03,0.45-0.05,0.67-0.06
		c0.1-0.01,0.21-0.02,0.32-0.02h0.05v0.2c-5.18,7.19-8.02,16.05-8.02,24.9c0,2.09,0.16,4.17,0.48,6.24
		c1.67,10.65,7.69,20.53,16.28,27.03c1.46,1.11,2.99,2.12,4.59,3.02c6.95,3.91,14.93,5.8,21.64,10.09
		c8.11,5.2,13.9,13.89,15.56,23.38C208.51,127.69,208.64,130.55,208.42,133.39z"/>
	<path class="st105" d="M208.02,124.88c-1.66-9.49-7.45-18.19-15.56-23.38c-1.6-1.02-3.27-1.91-4.98-2.72l-4.17,2.41l-20.27,11.7
		c-2.78,1.6-6.2,1.61-8.98,0.01l-14.87-8.55c-2.79-1.61-4.51-4.58-4.51-7.8V49.59c0-4.67,2.5-8.98,6.54-11.31l13.62-7.87
		c-0.26,0.07-0.52,0.14-0.77,0.22c-0.13,0.04-0.25,0.08-0.37,0.13c-0.74,0.26-1.47,0.6-2.17,1l-9.97,5.75l-35.2,20.32
		c-4.04,2.33-6.54,6.65-6.54,11.31v19.93v32.23c0,0.28,0.01,0.56,0.03,0.84c0.01,0.11,0.02,0.23,0.03,0.34
		c0.01,0.16,0.03,0.32,0.05,0.48c0.02,0.15,0.04,0.29,0.07,0.43c0.02,0.13,0.04,0.25,0.06,0.38c0.03,0.16,0.07,0.32,0.1,0.47
		c0.03,0.11,0.05,0.22,0.08,0.32c0.04,0.16,0.09,0.32,0.14,0.49c0.03,0.1,0.06,0.2,0.09,0.3c0.05,0.16,0.11,0.31,0.17,0.47
		c0.04,0.1,0.08,0.21,0.12,0.31c0.06,0.14,0.12,0.28,0.18,0.42c0.05,0.12,0.11,0.24,0.16,0.36c0.05,0.11,0.11,0.23,0.17,0.34
		c0.04,0.07,0.07,0.14,0.11,0.21c0.03,0.06,0.07,0.13,0.11,0.19c0.07,0.13,0.14,0.25,0.22,0.38c0.07,0.12,0.15,0.24,0.22,0.36
		c0.08,0.13,0.17,0.26,0.26,0.38c0.08,0.11,0.16,0.22,0.24,0.33c0.1,0.13,0.2,0.26,0.3,0.38c0.08,0.1,0.16,0.2,0.24,0.3
		c0.11,0.13,0.22,0.25,0.34,0.38c0.08,0.09,0.16,0.18,0.25,0.27c0.13,0.13,0.26,0.25,0.39,0.38c0.08,0.08,0.16,0.16,0.25,0.23
		c0.15,0.13,0.3,0.25,0.45,0.38c0.08,0.06,0.15,0.13,0.23,0.19c0.17,0.14,0.35,0.26,0.54,0.39c0.06,0.04,0.12,0.09,0.19,0.14
		c0.25,0.17,0.5,0.33,0.77,0.48l45.17,26.08c4.04,2.33,9.02,2.33,13.06,0l24.76-14.29l6.8-3.92c0,0,0,0,0,0l10.99-6.35l1.31-0.75
		C208.64,130.55,208.51,127.69,208.02,124.88z M208.02,124.88c-1.28-7.34-5.03-14.21-10.43-19.35l-8.26,4.78l-24.76,14.29
		c-4.05,2.33-9.02,2.33-13.06,0l-24.78-14.31c-3-1.73-4.85-4.93-4.85-8.39V56.06c0-3.74,1.6-7.25,4.32-9.7l-19.87,11.47
		c-4.04,2.33-6.54,6.65-6.54,11.31v18.06v34.1c0,0.28,0.01,0.56,0.03,0.84c0.01,0.11,0.02,0.23,0.03,0.34
		c0.01,0.16,0.03,0.32,0.05,0.48c0.02,0.15,0.04,0.29,0.07,0.43c0.02,0.13,0.04,0.25,0.06,0.38c0.03,0.16,0.07,0.32,0.1,0.47
		c0.03,0.11,0.05,0.22,0.08,0.32c0.04,0.16,0.09,0.32,0.14,0.49c0.03,0.1,0.06,0.2,0.09,0.3c0.05,0.16,0.11,0.31,0.17,0.47
		c0.04,0.1,0.08,0.21,0.12,0.31c0.06,0.14,0.12,0.28,0.18,0.42c0.05,0.12,0.11,0.24,0.16,0.36c0.05,0.11,0.11,0.23,0.17,0.34
		c0.04,0.07,0.07,0.14,0.11,0.21c0.03,0.06,0.07,0.13,0.11,0.19c0.07,0.13,0.14,0.25,0.22,0.38c0.07,0.12,0.15,0.24,0.22,0.36
		c0.08,0.13,0.17,0.26,0.26,0.38c0.08,0.11,0.16,0.22,0.24,0.33c0.1,0.13,0.2,0.26,0.3,0.38c0.08,0.1,0.16,0.2,0.24,0.3
		c0.11,0.13,0.22,0.25,0.34,0.38c0.08,0.09,0.16,0.18,0.25,0.27c0.13,0.13,0.26,0.25,0.39,0.38c0.08,0.08,0.16,0.16,0.25,0.23
		c0.15,0.13,0.3,0.25,0.45,0.38c0.08,0.06,0.15,0.13,0.23,0.19c0.17,0.14,0.35,0.26,0.54,0.39c0.06,0.04,0.12,0.09,0.19,0.14
		c0.25,0.17,0.5,0.33,0.77,0.48l45.17,26.08c4.04,2.33,9.02,2.33,13.06,0l24.76-14.29l17.78-10.27l1.31-0.75
		c0.01-0.12,0.02-0.22,0.02-0.34l0,0C208.63,130.32,208.49,127.58,208.02,124.88z M208.02,124.88c-0.49-2.8-1.34-5.54-2.5-8.13
		l-16.19,9.35l-24.76,14.29c-4.05,2.33-9.02,2.33-13.06,0l-38.85-22.43c-2.28-1.31-3.68-3.74-3.68-6.37l0-49.91
		c0-2.24,0.58-4.42,1.63-6.32l-4.28,2.47c-4.04,2.33-6.54,6.65-6.54,11.31V103v18.31c0,0.28,0.01,0.56,0.03,0.84
		c0.01,0.11,0.02,0.23,0.03,0.34c0.01,0.16,0.03,0.32,0.05,0.48c0.02,0.15,0.04,0.29,0.07,0.43c0.02,0.13,0.04,0.25,0.06,0.38
		c0.03,0.16,0.07,0.32,0.1,0.47c0.03,0.11,0.05,0.22,0.08,0.32c0.04,0.16,0.09,0.32,0.14,0.49c0.03,0.1,0.06,0.2,0.09,0.3
		c0.05,0.16,0.11,0.31,0.17,0.47c0.04,0.1,0.08,0.21,0.12,0.31c0.06,0.14,0.12,0.28,0.18,0.42c0.05,0.12,0.11,0.24,0.16,0.36
		c0.05,0.11,0.11,0.23,0.17,0.34c0.04,0.07,0.07,0.14,0.11,0.21c0.03,0.06,0.07,0.13,0.11,0.19c0.07,0.13,0.14,0.25,0.22,0.38
		c0.07,0.12,0.15,0.24,0.22,0.36c0.08,0.13,0.17,0.26,0.26,0.38c0.08,0.11,0.16,0.22,0.24,0.33c0.1,0.13,0.2,0.26,0.3,0.38
		c0.08,0.1,0.16,0.2,0.24,0.3c0.11,0.13,0.22,0.25,0.34,0.38c0.08,0.09,0.16,0.18,0.25,0.27c0.13,0.13,0.26,0.25,0.39,0.38
		c0.08,0.08,0.16,0.16,0.25,0.23c0.15,0.13,0.3,0.25,0.45,0.38c0.08,0.06,0.15,0.13,0.23,0.19c0.17,0.14,0.35,0.26,0.54,0.39
		c0.06,0.04,0.12,0.09,0.19,0.14c0.25,0.17,0.5,0.33,0.77,0.48l45.17,26.08c4.04,2.33,9.02,2.33,13.06,0l24.76-14.29l19.09-11.02
		C208.64,130.55,208.51,127.69,208.02,124.88z M208.46,132.68c-0.01,0.24-0.03,0.47-0.05,0.71l-19.09,11.02l-24.76,14.29
		c-4.05,2.33-9.02,2.33-13.06,0l-45.17-26.08c-0.26-0.15-0.52-0.31-0.77-0.48c-0.06-0.05-0.13-0.09-0.19-0.14
		c-0.18-0.13-0.36-0.25-0.54-0.39c-0.08-0.06-0.16-0.13-0.23-0.19c-0.15-0.12-0.31-0.25-0.45-0.38c-0.09-0.07-0.17-0.15-0.25-0.23
		c-0.13-0.12-0.26-0.25-0.39-0.37c-0.08-0.09-0.17-0.18-0.25-0.27c-0.12-0.13-0.23-0.25-0.34-0.38c-0.09-0.1-0.17-0.2-0.25-0.3
		c-0.1-0.12-0.2-0.25-0.3-0.38c-0.08-0.11-0.16-0.22-0.24-0.33c-0.09-0.13-0.17-0.25-0.25-0.38c-0.08-0.12-0.16-0.24-0.23-0.36
		c-0.07-0.13-0.14-0.25-0.22-0.38c-0.03-0.06-0.07-0.13-0.11-0.19c-0.03-0.07-0.07-0.14-0.1-0.21c-0.06-0.11-0.12-0.22-0.17-0.34
		c-0.06-0.12-0.11-0.24-0.17-0.36c-0.06-0.14-0.12-0.28-0.18-0.42c-0.04-0.1-0.07-0.21-0.12-0.31c-0.06-0.16-0.12-0.31-0.17-0.47
		c-0.03-0.1-0.06-0.2-0.09-0.3c-0.05-0.16-0.09-0.32-0.14-0.48c-0.03-0.11-0.05-0.22-0.07-0.32c-0.03-0.16-0.07-0.32-0.1-0.48
		c-0.02-0.12-0.05-0.25-0.06-0.37c-0.02-0.14-0.05-0.29-0.07-0.43c-0.02-0.16-0.03-0.32-0.05-0.49c-0.01-0.11-0.02-0.22-0.03-0.34
		c-0.02-0.28-0.03-0.56-0.03-0.84V69.15c0-4.06,1.89-7.85,5.03-10.3c-2.04,2.34-3.21,5.37-3.21,8.57v52.16
		c0,0.28,0.01,0.56,0.03,0.84c0.01,0.12,0.02,0.23,0.03,0.35c0.01,0.16,0.03,0.32,0.05,0.48c0.02,0.14,0.05,0.29,0.07,0.43
		c0.02,0.13,0.04,0.25,0.06,0.37c0.03,0.16,0.07,0.32,0.1,0.48c0.03,0.1,0.05,0.21,0.07,0.32c0.05,0.16,0.09,0.32,0.14,0.48
		c0.03,0.1,0.06,0.2,0.09,0.3c0.05,0.16,0.1,0.31,0.16,0.47c0.04,0.1,0.08,0.2,0.12,0.31c0.06,0.14,0.12,0.28,0.18,0.42
		c0.05,0.12,0.1,0.24,0.16,0.36c0.05,0.12,0.11,0.23,0.17,0.34c0.03,0.07,0.07,0.14,0.1,0.21c0.03,0.06,0.07,0.13,0.12,0.19
		c0.07,0.13,0.14,0.25,0.22,0.38c0.07,0.12,0.14,0.24,0.22,0.36c0.08,0.13,0.17,0.25,0.26,0.38c0.07,0.11,0.16,0.22,0.24,0.33
		c0.1,0.13,0.2,0.26,0.3,0.39c0.08,0.1,0.16,0.2,0.24,0.3c0.11,0.13,0.22,0.25,0.34,0.37c0.09,0.09,0.17,0.18,0.25,0.27
		c0.13,0.13,0.25,0.25,0.39,0.37c0.09,0.08,0.17,0.16,0.25,0.23c0.15,0.13,0.3,0.26,0.45,0.38c0.08,0.06,0.16,0.13,0.23,0.19
		c0.18,0.14,0.36,0.26,0.54,0.39c0.06,0.05,0.13,0.09,0.19,0.14c0.25,0.17,0.51,0.33,0.77,0.48l45.17,26.08
		c4.04,2.33,9.02,2.33,13.06,0l24.76-14.29L208.46,132.68z M208.42,133.39l-1.31,0.75c0.17-2.68,0.03-5.36-0.43-8.01
		c-1.66-9.49-7.45-18.18-15.56-23.38c-6.71-4.29-14.7-6.19-21.64-10.09c-11-6.19-18.91-17.58-20.86-30.05
		c-1.6-10.21,0.83-20.96,6.49-29.6c0.68-1.04,1.5-1.99,2.4-2.85v0.06c-5.18,7.19-8.02,16.05-8.02,24.9c0,2.09,0.16,4.17,0.48,6.24
		c1.96,12.46,9.87,23.86,20.86,30.05c6.95,3.91,14.93,5.8,21.64,10.09c8.11,5.2,13.9,13.89,15.56,23.38
		C208.51,127.69,208.64,130.55,208.42,133.39z"/>
	
		<linearGradient id="SVGID_00000059298018642604013980000017017311760138266282_" gradientUnits="userSpaceOnUse" x1="161.82" y1="64.8683" x2="250.2043" y2="64.8683">
		<stop  offset="0" style="stop-color:#FF5F47"/>
		<stop  offset="1" style="stop-color:#FFAF66"/>
	</linearGradient>
	<path style="fill:url(#SVGID_00000059298018642604013980000017017311760138266282_);" d="M211.16,45.35h-28.33
		c-0.9,0-1.62,0.73-1.62,1.62V75.3c0,0.9,0.73,1.62,1.62,1.62h28.33c0.9,0,1.62-0.73,1.62-1.62V46.97
		C212.78,46.07,212.05,45.35,211.16,45.35z M180.01,21.23h-16.56c-0.9,0-1.62,0.73-1.62,1.62v16.56c0,0.9,0.73,1.62,1.62,1.62h16.56
		c0.9,0,1.62-0.73,1.62-1.62V22.85C181.63,21.96,180.9,21.23,180.01,21.23z M210.15,108.51h23.74c0.9,0,1.62-0.73,1.62-1.62V83.14
		c0-0.9-0.73-1.62-1.62-1.62h-23.74c-0.9,0-1.62,0.73-1.62,1.62v23.74C208.52,107.78,209.25,108.51,210.15,108.51z M237.7,83.14
		v9.25c0,0.9,0.73,1.62,1.62,1.62h9.25c0.9,0,1.62-0.73,1.62-1.62v-9.25c0-0.9-0.73-1.62-1.62-1.62h-9.25
		C238.43,81.52,237.7,82.25,237.7,83.14z M194.08,31.26h-7.07c-0.9,0-1.62,0.73-1.62,1.62v7.07c0,0.9,0.73,1.62,1.62,1.62h7.07
		c0.9,0,1.62-0.73,1.62-1.62v-7.07C195.7,31.99,194.97,31.26,194.08,31.26z M191.05,21.23h-4.03c-0.9,0-1.62,0.73-1.62,1.62v4.03
		c0,0.9,0.73,1.62,1.62,1.62h4.03c0.9,0,1.62-0.73,1.62-1.62v-4.03C192.67,21.96,191.94,21.23,191.05,21.23z M197.82,21.23H197
		c-0.9,0-1.62,0.73-1.62,1.62v0.82c0,0.9,0.73,1.62,1.62,1.62h0.82c0.9,0,1.62-0.73,1.62-1.62v-0.82
		C199.45,21.96,198.72,21.23,197.82,21.23z M218.11,28.05h-0.82c-0.9,0-1.62,0.73-1.62,1.62v0.82c0,0.9,0.73,1.62,1.62,1.62h0.82
		c0.9,0,1.62-0.73,1.62-1.62v-0.82C219.73,28.78,219.01,28.05,218.11,28.05z M200.64,41.57h9.82c0.9,0,1.62-0.73,1.62-1.62v-9.82
		c0-0.9-0.73-1.62-1.62-1.62h-9.82c-0.9,0-1.62,0.73-1.62,1.62v9.82C199.02,40.85,199.75,41.57,200.64,41.57z M217.59,41.57h3.7
		c0.9,0,1.62-0.73,1.62-1.62v-3.7c0-0.9-0.73-1.62-1.62-1.62h-3.7c-0.9,0-1.62,0.73-1.62,1.62v3.7
		C215.96,40.85,216.69,41.57,217.59,41.57z M217.81,44.08h-0.23c-0.9,0-1.62,0.73-1.62,1.62v0.23c0,0.9,0.73,1.62,1.62,1.62h0.23
		c0.9,0,1.62-0.73,1.62-1.62V45.7C219.44,44.81,218.71,44.08,217.81,44.08z M223.49,47.55h0.23c0.9,0,1.62-0.73,1.62-1.62V45.7
		c0-0.9-0.73-1.62-1.62-1.62h-0.23c-0.9,0-1.62,0.73-1.62,1.62v0.23C221.87,46.83,222.59,47.55,223.49,47.55z M229.47,63.02h-11.73
		c-0.9,0-1.62,0.73-1.62,1.62v11.73c0,0.9,0.73,1.62,1.62,1.62h11.73c0.9,0,1.62-0.73,1.62-1.62V64.64
		C231.09,63.75,230.36,63.02,229.47,63.02z M235.77,77.99h3.41c0.9,0,1.62-0.73,1.62-1.62v-3.41c0-0.9-0.73-1.62-1.62-1.62h-3.41
		c-0.9,0-1.62,0.73-1.62,1.62v3.41C234.15,77.27,234.87,77.99,235.77,77.99z M217.74,59.49h7.07c0.9,0,1.62-0.73,1.62-1.62V50.8
		c0-0.9-0.73-1.62-1.62-1.62h-7.07c-0.9,0-1.62,0.73-1.62,1.62v7.07C216.12,58.77,216.85,59.49,217.74,59.49z M233.86,53h-3.25
		c-0.9,0-1.62,0.73-1.62,1.62v3.25c0,0.9,0.73,1.62,1.62,1.62h3.25c0.9,0,1.62-0.73,1.62-1.62v-3.25
		C235.48,53.73,234.76,53,233.86,53z M230.61,47.55L230.61,47.55c-0.9,0-1.62,0.73-1.62,1.62l0,0c0,0.9,0.73,1.62,1.62,1.62l0,0
		c0.9,0,1.62-0.73,1.62-1.62l0,0C232.24,48.28,231.51,47.55,230.61,47.55z"/>
</g>
</svg>
