<?xml version="1.0" encoding="utf-8"?>
<!-- Generator: Adobe Illustrator 27.8.1, SVG Export Plug-In . SVG Version: 6.00 Build 0)  -->
<svg version="1.1" xmlns="http://www.w3.org/2000/svg" xmlns:xlink="http://www.w3.org/1999/xlink" x="0px" y="0px"
	 viewBox="0 0 350 230" style="enable-background:new 0 0 350 230;" xml:space="preserve">
<style type="text/css">
	.st0{fill:#FFFFFF;}
	.st1{fill:url(#SVGID_1_);}
	.st2{fill:url(#SVGID_00000020378827660827473520000012626525441497434499_);}
	.st3{fill:url(#SVGID_00000046321111185812753030000013403712998033748656_);}
	.st4{fill:url(#SVGID_00000165933952330774543000000001704017195412018066_);}
	.st5{fill:url(#SVGID_00000029029835779609788260000005003244726888088964_);}
	.st6{fill:url(#SVGID_00000133521357305695625910000009971983225391783868_);}
	.st7{fill:url(#SVGID_00000076595008733779526550000004938552507977756860_);}
	.st8{fill:url(#SVGID_00000174604525979715487220000002148896724909620374_);}
	.st9{fill:url(#SVGID_00000120518514570713585090000009130203577928461458_);}
	.st10{fill:url(#SVGID_00000168118926277989421520000014857831511863569811_);}
	.st11{fill:url(#SVGID_00000080196040725070557660000016271938904774479294_);}
	.st12{fill:url(#SVGID_00000088116820932832510980000007446914468488009629_);}
	.st13{fill:url(#SVGID_00000050644470733673210760000017712084331554115256_);}
	.st14{fill:url(#SVGID_00000162320329607011073380000018425489262932613291_);}
	.st15{fill:url(#SVGID_00000134960475613703465890000012088062322101801899_);}
	.st16{fill:url(#SVGID_00000027605418592861129380000001234076915212857771_);}
	.st17{fill:url(#SVGID_00000044885025167282830880000003668543371752936849_);}
	.st18{fill:url(#SVGID_00000066512485435702862540000005638304674722471862_);}
	.st19{fill:url(#SVGID_00000115476513338219623800000004538016827034646443_);}
	.st20{fill:url(#SVGID_00000079450123630217168520000009175041437916184978_);}
	.st21{fill:url(#SVGID_00000104671403729026423440000005732440984796672649_);}
	.st22{fill:url(#SVGID_00000103981539971624063800000010957856292900011915_);}
	.st23{fill:url(#SVGID_00000170241188922503181980000011754097421442785423_);}
	.st24{fill:url(#SVGID_00000006688426066784877310000014521226941572230790_);}
	.st25{fill:#FFAF78;}
	.st26{fill:#B680FF;}
	.st27{fill:#8BE493;}
	.st28{fill:#FF8695;}
	.st29{fill:#D4F0FF;}
	.st30{fill-rule:evenodd;clip-rule:evenodd;fill:#097BC9;}
	.st31{fill-rule:evenodd;clip-rule:evenodd;fill:url(#SVGID_00000113350361984456126380000017254165034841594029_);}
	.st32{opacity:0.3;fill-rule:evenodd;clip-rule:evenodd;fill:#FFFFFF;}
	.st33{fill:#E1F9FF;}
	.st34{fill:#00599B;}
	.st35{fill:#002D49;}
	.st36{fill:#006BCC;}
	.st37{fill:#004172;}
	.st38{fill:#EFFFCF;}
	.st39{fill:#65A500;}
	.st40{fill:#DCFFDE;}
	.st41{fill:#FFDCE4;}
	.st42{fill:#D7E2FF;}
	.st43{fill:#FFFED2;}
	.st44{fill:#EDE3FF;}
	.st45{fill-rule:evenodd;clip-rule:evenodd;fill:url(#SVGID_00000148648212419848277400000007922135889612087451_);}
	.st46{fill:#FFF7D7;}
	.st47{fill-rule:evenodd;clip-rule:evenodd;fill:url(#SVGID_00000125571982160953643970000011821285119898341017_);}
	.st48{opacity:0.2;fill-rule:evenodd;clip-rule:evenodd;fill:#FFFFFF;}
	.st49{fill:#020202;}
	.st50{fill:url(#XMLID_00000121972575328915860800000011073727772113948052_);}
	.st51{fill:#000F33;}
	.st52{fill:#E3ECFF;}
	.st53{fill:#FFE3C5;}
	.st54{fill:#FFE5D4;}
	.st55{fill:#E6FFFE;}
	.st56{fill:#FFFEE6;}
	.st57{fill:url(#SVGID_00000026126026896128160280000010727927310050266537_);}
	.st58{opacity:0.2;fill:#FFFFFF;}
	.st59{fill-rule:evenodd;clip-rule:evenodd;fill:#5A8900;}
	.st60{fill-rule:evenodd;clip-rule:evenodd;fill:#65A500;}
	.st61{fill-rule:evenodd;clip-rule:evenodd;fill:#476800;}
	.st62{fill-rule:evenodd;clip-rule:evenodd;fill:#61C666;}
	.st63{fill-rule:evenodd;clip-rule:evenodd;fill:#8BE493;}
	.st64{fill:#CC7180;}
	.st65{fill:#AF6675;}
	.st66{fill:#0071BC;}
	.st67{fill:#333333;}
	.st68{fill:url(#SVGID_00000127735809846951903600000011968655623720440755_);}
	.st69{fill:url(#SVGID_00000078733935910578482020000012876173712974684574_);}
	.st70{fill:url(#SVGID_00000071548150519592436320000000142471210946869691_);}
	.st71{fill:url(#SVGID_00000044145436319536207820000002144521689644687013_);}
	.st72{fill:url(#SVGID_00000093159642154877808260000007466997025380492451_);}
	.st73{fill:#D2AB67;}
	.st74{fill:#000E3B;}
	.st75{fill:url(#SVGID_00000055692234584658100020000005360181662364047497_);}
	.st76{fill:url(#SVGID_00000105414427583444280640000012462297440686235786_);}
	.st77{fill:#E0E2E3;}
	.st78{fill:url(#SVGID_00000030473541943302901150000004190932510788753821_);}
	.st79{fill:#353A51;}
	.st80{fill:url(#SVGID_00000055673739112992172850000011428862960844161949_);}
	.st81{fill:#0E1725;}
	.st82{fill:#C1C2C1;}
	.st83{fill:url(#SVGID_00000073698554394219537430000003810897614290028981_);}
	.st84{fill:url(#SVGID_00000062879038301468349960000002014501133252484021_);}
	.st85{fill:url(#SVGID_00000181060803776206142300000015341589099041772187_);}
	.st86{fill:#0091CC;fill-opacity:0.7882;}
	.st87{fill:#00B2EA;fill-opacity:0.7882;}
	.st88{fill:#00C9F6;fill-opacity:0.7882;}
	.st89{fill-rule:evenodd;clip-rule:evenodd;fill:url(#SVGID_00000088845356923330938940000001776014305676838821_);}
	.st90{fill-rule:evenodd;clip-rule:evenodd;fill:url(#SVGID_00000143575862235710918640000010655463696283725204_);}
	.st91{fill-rule:evenodd;clip-rule:evenodd;fill:url(#SVGID_00000094587606126063067140000000064343226229241236_);}
	.st92{fill-rule:evenodd;clip-rule:evenodd;fill:url(#SVGID_00000147928076898049579600000009883314057041781901_);}
	.st93{fill-rule:evenodd;clip-rule:evenodd;fill:url(#SVGID_00000069389991504603155300000002773865703246585492_);}
	.st94{fill-rule:evenodd;clip-rule:evenodd;fill:url(#SVGID_00000137130632376166428750000013459392993140948375_);}
	.st95{fill-rule:evenodd;clip-rule:evenodd;fill:url(#SVGID_00000036936758651271337900000003501997982762157440_);}
	.st96{fill:url(#SVGID_00000130628192324525432820000001585260762689204657_);}
	.st97{opacity:0.84;fill-rule:evenodd;clip-rule:evenodd;fill:#3F3F3F;enable-background:new    ;}
	.st98{fill-rule:evenodd;clip-rule:evenodd;fill:#D2AB67;}
	.st99{fill:url(#SVGID_00000154393810707277445070000005231063459304306585_);}
	.st100{fill:#945EEA;}
	.st101{fill:#8558DD;}
	.st102{fill:#0C0A21;}
	.st103{fill:#F8C520;}
	.st104{fill:url(#SVGID_00000087403425198495574160000003738674769085343637_);}
	.st105{fill:url(#SVGID_00000041990400405642999520000006199752711434613427_);}
	.st106{fill:url(#SVGID_00000110459221413139166350000000493493102652584625_);}
	.st107{opacity:0.23;fill:#FFFFFF;}
	.st108{fill:url(#SVGID_00000032616281590459589750000016343780728173920413_);}
	.st109{fill:#FAAF3B;}
	.st110{fill-rule:evenodd;clip-rule:evenodd;}
	.st111{fill-rule:evenodd;clip-rule:evenodd;fill:#0671AF;}
	.st112{fill:#5E9536;}
	.st113{fill:#00BFE5;}
	.st114{fill:url(#SVGID_00000085940776893295568500000005649193422496843958_);}
	.st115{fill:url(#SVGID_00000127759922212016656530000009080368378196019613_);}
	.st116{fill:url(#SVGID_00000021797729139459768250000009149933719922024070_);}
	.st117{fill:url(#SVGID_00000041987879336539746430000006850289731903946886_);}
	.st118{fill:url(#SVGID_00000124848101401167764430000010987327752641757319_);}
	.st119{fill:url(#SVGID_00000086661883698302641980000012177285228213913264_);}
	.st120{fill:url(#SVGID_00000043444675859188838930000001248601866959132810_);}
	.st121{fill:url(#SVGID_00000028324330895987968740000017071800739339134648_);}
	.st122{fill:url(#SVGID_00000083807507851300267660000010173389153414309542_);}
</style>
<g id="Layer_1">
</g>
<g id="Layer_2">
</g>
<g id="Layer_3">
</g>
<g id="Layer_4">
</g>
<g id="Layer_5">
</g>
<g id="Layer_6">
</g>
<g id="Layer_7">
</g>
<g id="Layer_8">
</g>
<g id="Layer_9">
</g>
<g id="Layer_10">
</g>
<g id="Layer_11">
</g>
<g id="Layer_12">
	<g>
		<path class="st51" d="M146.65,68l-0.82-0.18l-0.31-0.78l-0.43,0.73l-0.84,0.06l0.56,0.62l-0.2,0.82l0.77-0.34l0.71,0.45
			l-0.08-0.84L146.65,68z M154.7,64.12l-1.08-0.23l-0.42-1.03l-0.55,0.96l-1.11,0.08l0.74,0.82l-0.27,1.08l1.01-0.45l0.94,0.59
			l-0.1-1.1L154.7,64.12z M164.77,60.05l-1.51-0.38l-0.53-1.45l-0.83,1.31l-1.55,0.06l0.99,1.19l-0.42,1.5l1.44-0.58l1.29,0.87
			l-0.1-1.55L164.77,60.05z M203.49,67.38l-0.84-0.06l-0.42-0.73l-0.32,0.78l-0.82,0.18l0.64,0.54l-0.08,0.84l0.71-0.44l0.77,0.33
			l-0.2-0.81L203.49,67.38z M196.2,63.45l-1.1-0.08l-0.56-0.95l-0.42,1.02l-1.07,0.24l0.84,0.71l-0.11,1.1l0.94-0.58l1.01,0.44
			l-0.26-1.08L196.2,63.45z M187.4,59.14l-1.55-0.06l-0.83-1.31l-0.54,1.45l-1.5,0.39l1.22,0.96l-0.11,1.55l1.29-0.86l1.45,0.57
			l-0.42-1.49L187.4,59.14z M177.84,54.88l-2-0.08l-1.07-1.69l-0.69,1.88l-1.94,0.49l1.57,1.24l-0.13,2l1.67-1.12l1.85,0.75
			l-0.54-1.93L177.84,54.88z M204.57,86.83c-1.23-2.46-4.21-3.46-6.67-2.24l-41.29,20.6c-2.46,1.23-3.46,4.22-2.23,6.68l15.63,31.84
			c0.16,0.1,0.32,0.2,0.48,0.29l0.03,0.02c2.26,1.39,3.81,2.23,4.14,2.4l0.08,0.04c0.51-0.28,1.1-0.6,1.77-0.98
			c0.15-0.09,0.32-0.18,0.49-0.28c0,0,0.01,0,0.02-0.01c6.17-3.58,23.09-14.33,28.79-27.64c2.46-5.76,4.1-11.94,5.17-17.88
			L204.57,86.83z M201.65,68.93l0.71-0.44l0.77,0.33l-0.2-0.81l0.56-0.63l-0.84-0.06l-0.42-0.73l-0.32,0.78l-0.82,0.18l0.64,0.54
			L201.65,68.93z M162.63,100.85c-0.13-0.27-3.09-6.23-3.2-6.51c-3.1-7.56,0.11-16.34,7.54-20.05c7.43-3.71,16.38-0.99,20.56,6.03
			c0.15,0.26,3.13,6.21,3.28,6.47l6.02-3c-0.15-0.29-3.14-6.26-3.3-6.53c-5.86-10.31-18.83-14.35-29.56-8.99
			c-10.72,5.35-15.3,18.09-10.63,28.96c0.14,0.32,3.12,6.32,3.27,6.63L162.63,100.85z M193.78,65.49l0.94-0.58l1.01,0.44l-0.26-1.08
			l0.73-0.82l-1.1-0.08l-0.56-0.95l-0.42,1.02l-1.07,0.24l0.84,0.71L193.78,65.49z M184.09,62.12l1.29-0.86l1.45,0.57l-0.42-1.49
			l0.99-1.2l-1.55-0.06l-0.83-1.31l-0.54,1.45l-1.5,0.39l1.22,0.96L184.09,62.12z M173.58,58.72l1.67-1.12l1.85,0.75l-0.54-1.93
			l1.28-1.54l-2-0.08l-1.07-1.69l-0.69,1.88l-1.94,0.49l1.57,1.24L173.58,58.72z M160.92,62.28l1.44-0.58l1.29,0.87l-0.1-1.55
			l1.22-0.97l-1.51-0.38l-0.53-1.45l-0.83,1.31l-1.55,0.06l0.99,1.19L160.92,62.28z M152.01,65.8l1.01-0.45l0.94,0.59l-0.1-1.1
			l0.84-0.72l-1.08-0.23l-0.42-1.03l-0.55,0.96l-1.11,0.08l0.74,0.82L152.01,65.8z M145.83,67.82l-0.31-0.78l-0.43,0.73l-0.84,0.06
			l0.56,0.62l-0.2,0.82l0.77-0.34l0.71,0.45l-0.08-0.84l0.64-0.54L145.83,67.82z M217.84,65.89c-0.02-0.37-0.04-0.57-0.04-0.57
			L175.27,44.3l-44.49,21.02c0,0-1.24,30.37,9.29,54.74c2.5,5.79,6.72,11.1,11.36,15.67c0.11,0.12,0.21,0.22,0.33,0.33
			c10.49,10.24,23.02,16.76,23.02,16.76s27.25-14.17,35.19-32.76C219.48,97.83,218.12,70.18,217.84,65.89z M210.98,99.67
			l-6.41-12.84c-1.23-2.46-4.21-3.46-6.67-2.24l-41.29,20.6c-2.46,1.23-3.46,4.22-2.23,6.68l15.63,31.84
			c-7.23-4.5-20.73-14.16-25.92-26.16c-9.3-21.52-8.2-48.34-8.2-48.34l39.28-18.56l37.54,18.56
			C212.71,69.21,213.89,83.6,210.98,99.67z M202.23,66.59l-0.32,0.78l-0.82,0.18l0.64,0.54l-0.08,0.84l0.71-0.44l0.77,0.33
			l-0.2-0.81l0.56-0.63l-0.84-0.06L202.23,66.59z M163.97,68.27c-10.72,5.35-15.3,18.09-10.63,28.96c0.14,0.32,3.12,6.32,3.27,6.63
			l6.02-3.01c-0.13-0.27-3.09-6.23-3.2-6.51c-3.1-7.56,0.11-16.34,7.54-20.05c7.43-3.71,16.38-0.99,20.56,6.03
			c0.15,0.26,3.13,6.21,3.28,6.47l6.02-3c-0.15-0.29-3.14-6.26-3.3-6.53C187.67,66.95,174.7,62.91,163.97,68.27z M193.78,65.49
			l0.94-0.58l1.01,0.44l-0.26-1.08l0.73-0.82l-1.1-0.08l-0.56-0.95l-0.42,1.02l-1.07,0.24l0.84,0.71L193.78,65.49z M184.09,62.12
			l1.29-0.86l1.45,0.57l-0.42-1.49l0.99-1.2l-1.55-0.06l-0.83-1.31l-0.54,1.45l-1.5,0.39l1.22,0.96L184.09,62.12z M173.58,58.72
			l1.67-1.12l1.85,0.75l-0.54-1.93l1.28-1.54l-2-0.08l-1.07-1.69l-0.69,1.88l-1.94,0.49l1.57,1.24L173.58,58.72z M160.92,62.28
			l1.44-0.58l1.29,0.87l-0.1-1.55l1.22-0.97l-1.51-0.38l-0.53-1.45l-0.83,1.31l-1.55,0.06l0.99,1.19L160.92,62.28z M152.01,65.8
			l1.01-0.45l0.94,0.59l-0.1-1.1l0.84-0.72l-1.08-0.23l-0.42-1.03l-0.55,0.96l-1.11,0.08l0.74,0.82L152.01,65.8z M145.83,67.82
			l-0.31-0.78l-0.43,0.73l-0.84,0.06l0.56,0.62l-0.2,0.82l0.77-0.34l0.71,0.45l-0.08-0.84l0.64-0.54L145.83,67.82z M218.89,66.41
			l-1.05-0.52l-41.48-20.5l-44.48,21.02c0,0-1.25,30.38,9.29,54.75c2.3,5.33,6.05,10.25,10.26,14.57c0.11,0.12,0.21,0.22,0.33,0.33
			c10.69,10.86,24.11,17.85,24.11,17.85s27.25-14.17,35.2-32.75C221.4,96.99,218.89,66.41,218.89,66.41z M144.09,117.55
			c-9.3-21.52-8.2-48.34-8.2-48.34l39.28-18.56l37.54,18.56c0,0,1.18,14.39-1.73,30.46l-6.41-12.84c-1.23-2.46-4.21-3.46-6.67-2.24
			l-41.29,20.6c-2.46,1.23-3.46,4.22-2.23,6.68l15.63,31.84C162.78,139.21,149.28,129.55,144.09,117.55z M201.65,68.93l0.71-0.44
			l0.77,0.33l-0.2-0.81l0.56-0.63l-0.84-0.06l-0.42-0.73l-0.32,0.78l-0.82,0.18l0.64,0.54L201.65,68.93z M162.63,100.85
			c-0.13-0.27-3.09-6.23-3.2-6.51c-3.1-7.56,0.11-16.34,7.54-20.05c7.43-3.71,16.38-0.99,20.56,6.03c0.15,0.26,3.13,6.21,3.28,6.47
			l6.02-3c-0.15-0.29-3.14-6.26-3.3-6.53c-5.86-10.31-18.83-14.35-29.56-8.99c-10.72,5.35-15.3,18.09-10.63,28.96
			c0.14,0.32,3.12,6.32,3.27,6.63L162.63,100.85z M193.78,65.49l0.94-0.58l1.01,0.44l-0.26-1.08l0.73-0.82l-1.1-0.08l-0.56-0.95
			l-0.42,1.02l-1.07,0.24l0.84,0.71L193.78,65.49z M184.09,62.12l1.29-0.86l1.45,0.57l-0.42-1.49l0.99-1.2l-1.55-0.06l-0.83-1.31
			l-0.54,1.45l-1.5,0.39l1.22,0.96L184.09,62.12z M173.58,58.72l1.67-1.12l1.85,0.75l-0.54-1.93l1.28-1.54l-2-0.08l-1.07-1.69
			l-0.69,1.88l-1.94,0.49l1.57,1.24L173.58,58.72z M160.92,62.28l1.44-0.58l1.29,0.87l-0.1-1.55l1.22-0.97l-1.51-0.38l-0.53-1.45
			l-0.83,1.31l-1.55,0.06l0.99,1.19L160.92,62.28z M152.01,65.8l1.01-0.45l0.94,0.59l-0.1-1.1l0.84-0.72l-1.08-0.23l-0.42-1.03
			l-0.55,0.96l-1.11,0.08l0.74,0.82L152.01,65.8z M145.83,67.82l-0.31-0.78l-0.43,0.73l-0.84,0.06l0.56,0.62l-0.2,0.82l0.77-0.34
			l0.71,0.45l-0.08-0.84l0.64-0.54L145.83,67.82z"/>
		<path class="st112" d="M210.98,99.67l-6.41-12.84c-1.23-2.46-4.21-3.46-6.67-2.24l-41.29,20.6c-2.46,1.23-3.46,4.22-2.23,6.68
			l15.63,31.84l0.01,0.02l0.47,0.27l0.03,0.02l4.14,2.4l0.08,0.04c0.51-0.28,1.1-0.6,1.77-0.98c0.16-0.09,0.32-0.18,0.49-0.28
			c0,0,0.01,0,0.02-0.01c4.72-2.69,12.58-7.6,20.27-15.28c12.56-12.57,13.8-30.02,13.8-30.02L210.98,99.67z M184.74,109.91
			c2.37-1.18,5.25-0.22,6.44,2.15c0.83,1.67,0.59,3.6-0.45,5.01l4.23,5.8l-6,2.99l-2.09-6.86c-1.76-0.01-3.44-0.98-4.28-2.66
			C181.41,113.97,182.37,111.09,184.74,109.91z M196.83,83.79l-6.02,3c-0.15-0.26-3.13-6.21-3.28-6.47
			c-4.18-7.02-13.13-9.74-20.56-6.03c-7.43,3.71-10.64,12.49-7.54,20.05c0.11,0.28,3.07,6.24,3.2,6.51l-6.02,3.01
			c-0.15-0.31-3.13-6.31-3.27-6.63c-4.67-10.87-0.09-23.61,10.63-28.96c10.73-5.36,23.7-1.32,29.56,8.99
			C193.69,77.53,196.68,83.5,196.83,83.79z"/>
		<path class="st113" d="M233.26,130.94c-0.02,0.11-0.05,0.24-0.1,0.39c0.02,0,0.05-0.01,0.08,0c0.08-0.41,0.09-0.69,0.09-0.77
			C233.32,130.61,233.31,130.74,233.26,130.94z M249.31,115.72c-0.01-0.03-0.02-0.05-0.04-0.06c0.02,0.06,0.08,0.26,0.16,0.57
			c0.02,0,0.05,0,0.07-0.01C249.42,115.99,249.34,115.82,249.31,115.72z M268.17,94.63c0,0-0.01,0.37-0.09,1.04
			c0.03-0.02,0.07-0.05,0.1-0.07C268.2,94.98,268.17,94.63,268.17,94.63z M273.86,74.86c-0.01-0.04-0.01-0.06-0.01-0.06
			s0.01,0.27,0.01,0.77l0.04-0.06c0.01-0.01,0.01-0.02,0.02-0.03C273.89,75.17,273.87,74.96,273.86,74.86z M272.6,65.97
			c-1.95,1.51-4.01,2.86-6.12,4.11c-4.21,2.49-8.6,4.64-13,6.71c-4.41,2.06-8.87,3.99-13.27,6.02c-2.19,1.02-4.38,2.06-6.5,3.18
			c-2.12,1.14-4.21,2.31-5.89,3.88c-1.71,1.64-3.16,3.52-4.27,5.6c-1.11,2.08-1.93,4.33-2.63,6.64c-0.7,2.3-1.3,4.65-1.93,7
			c-0.64,2.34-1.28,4.69-1.99,7.02c-0.34,1.18-0.72,2.32-1.08,3.48l-0.62,1.74c-0.21,0.57-0.41,1.15-0.66,1.71l-0.73,1.69
			c-0.26,0.55-0.54,1.09-0.82,1.64l-0.41,0.82l-0.46,0.79c-0.31,0.53-0.59,1.07-0.93,1.58c-1.28,2.08-2.78,4.02-4.43,5.82
			c-0.41,0.45-0.85,0.88-1.27,1.31c-0.46,0.41-0.89,0.84-1.36,1.23c-0.32,0.28-0.65,0.55-0.98,0.8c-0.04,0.04-0.08,0.07-0.12,0.09
			c-0.15,0.11-0.29,0.22-0.43,0.32c-0.36,0.28-0.73,0.53-1.12,0.77c-0.05,0.04-0.11,0.08-0.17,0.11c-0.04,0.03-0.07,0.05-0.11,0.07
			c0,0,0.14,0.01,0.41,0.02c0.27,0,0.66,0.01,1.16,0.01c0.5,0.02,1.11,0,1.8,0.02c0.69,0.01,1.47-0.02,2.32-0.02
			c0.85,0.01,1.77-0.03,2.74-0.06c0.48-0.01,0.98-0.03,1.49-0.04c0.51-0.03,1.03-0.06,1.56-0.1c1.05-0.06,2.14-0.11,3.23-0.25
			c0.54-0.05,1.09-0.11,1.64-0.17c0.55-0.06,1.1-0.1,1.67-0.22c0.56-0.09,1.12-0.19,1.68-0.28l0.84-0.14l0.41-0.07l0.21-0.03
			l0.05-0.01h0.02c0.01,0,0.01,0,0.01,0l0.09-0.03c0.53-0.13,1.05-0.26,1.57-0.38c0.52-0.13,1.01-0.31,1.5-0.46
			c0.97-0.35,1.89-0.73,2.71-1.18c0.42-0.21,0.78-0.49,1.16-0.71c0.35-0.26,0.7-0.52,1.01-0.78c0.28-0.29,0.59-0.54,0.82-0.83
			c0.13-0.14,0.25-0.28,0.37-0.41c0.1-0.14,0.2-0.29,0.3-0.42c0.39-0.55,0.65-1.08,0.84-1.53c0.1-0.26,0.19-0.5,0.25-0.7
			c-0.52,0.02-1.02,0.03-1.51,0.04c-0.49-0.01-0.97-0.01-1.43-0.02c-0.47-0.01-0.91-0.05-1.34-0.08c-0.86-0.05-1.64-0.14-2.33-0.24
			c-0.69-0.09-1.29-0.21-1.78-0.3c-0.98-0.2-1.53-0.36-1.53-0.36s0.15,0.01,0.41,0.02c0.27,0,0.66,0.01,1.15,0.03
			c0.5,0.01,1.1,0.01,1.79,0c0.34,0.01,0.71-0.01,1.09-0.02c0.39-0.01,0.79-0.01,1.21-0.04c0.84-0.03,1.75-0.1,2.71-0.17
			c0.95-0.11,1.96-0.21,2.99-0.37c1.03-0.13,2.08-0.39,3.14-0.61c0.52-0.13,1.05-0.27,1.59-0.41c0.52-0.16,1.04-0.35,1.56-0.52
			c0.53-0.15,1.02-0.39,1.53-0.59l0.75-0.32c0.25-0.11,0.47-0.24,0.7-0.37c0.24-0.12,0.47-0.24,0.7-0.36
			c0.23-0.13,0.46-0.22,0.69-0.39c0.46-0.3,0.91-0.6,1.35-0.89l0.17-0.11l0.06-0.04v-0.01l0.02-0.01v0.01
			c0.01-0.01,0.01-0.01,0.01-0.01l0.03-0.03l0.27-0.23c0.18-0.17,0.38-0.3,0.54-0.47c0.31-0.35,0.64-0.67,0.87-1.06
			c0.5-0.73,0.84-1.53,1.01-2.32c0.18-0.77,0.24-1.53,0.22-2.2c-0.01-0.67-0.09-1.26-0.17-1.74c-0.07-0.37-0.14-0.68-0.2-0.91
			c-0.39,0.08-0.77,0.15-1.15,0.18c-0.63,0.06-1.24,0.14-1.84,0.17c-0.6,0.03-1.18,0.06-1.74,0.08c-0.56-0.01-1.11-0.02-1.63-0.03
			c-1.04-0.05-1.99-0.13-2.82-0.24c-0.84-0.1-1.56-0.23-2.15-0.36c-0.6-0.11-1.05-0.24-1.37-0.32c-0.31-0.08-0.47-0.13-0.47-0.13
			s0.68,0.08,1.88,0.14c0.59,0.04,1.32,0.05,2.15,0.06c0.83,0.01,1.76-0.02,2.78-0.06c0.5-0.04,1.03-0.08,1.57-0.12
			c0.55-0.06,1.11-0.13,1.68-0.19c1.15-0.17,2.35-0.39,3.57-0.68c0.61-0.11,1.22-0.33,1.83-0.51c0.63-0.16,1.23-0.41,1.84-0.63
			c0.31-0.12,0.62-0.23,0.93-0.35l0.89-0.43l0.9-0.42c0.29-0.15,0.56-0.33,0.84-0.49l0.85-0.49c0.14-0.08,0.28-0.15,0.42-0.25
			l0.41-0.3l0.83-0.6l0.41-0.3l0.2-0.15l0.02-0.01l0.03-0.02l0.02-0.02l0.09-0.08c0.24-0.22,0.49-0.43,0.73-0.65
			c0.23-0.21,0.5-0.4,0.71-0.64c0.22-0.23,0.44-0.46,0.66-0.68c0.22-0.23,0.44-0.45,0.63-0.7c0.39-0.48,0.79-0.94,1.12-1.44
			c0.17-0.25,0.35-0.49,0.51-0.73c0.16-0.24,0.3-0.5,0.45-0.74c0.31-0.48,0.55-0.98,0.8-1.47c0.26-0.47,0.43-0.96,0.64-1.42
			c0.19-0.47,0.34-0.93,0.5-1.36c0.13-0.44,0.27-0.85,0.37-1.25c0.2-0.8,0.36-1.51,0.44-2.1c0.05-0.31,0.09-0.59,0.12-0.83
			c-0.53,0.39-1.05,0.79-1.59,1.18c-0.66,0.42-1.32,0.83-1.98,1.24c-0.67,0.38-1.35,0.73-2.01,1.09c-1.36,0.68-2.73,1.25-4.08,1.74
			c-1.35,0.49-2.68,0.89-3.95,1.2c-0.63,0.17-1.26,0.3-1.86,0.42c-0.6,0.13-1.19,0.23-1.75,0.32c-0.57,0.09-1.11,0.18-1.62,0.23
			c-0.52,0.06-1.01,0.12-1.47,0.15c-0.92,0.08-1.73,0.11-2.39,0.12c-1.33,0.03-2.08-0.04-2.08-0.04s0.75-0.07,2.05-0.27
			c0.65-0.1,1.44-0.24,2.34-0.41c0.45-0.08,0.92-0.19,1.42-0.3s1.02-0.23,1.56-0.37c0.55-0.13,1.11-0.28,1.69-0.46
			c0.58-0.16,1.18-0.32,1.79-0.53c0.6-0.2,1.23-0.39,1.86-0.64c0.62-0.24,1.28-0.44,1.91-0.73c0.63-0.28,1.3-0.52,1.94-0.84
			c0.32-0.16,0.64-0.31,0.96-0.47c0.33-0.16,0.66-0.3,0.98-0.48c0.63-0.36,1.28-0.7,1.91-1.07c0.61-0.39,1.23-0.78,1.84-1.17
			c0.61-0.43,1.22-0.89,1.82-1.32c0.57-0.41,1.08-0.89,1.56-1.39c0.93-1.03,1.71-2.19,2.3-3.41c1.19-2.45,1.78-5,2.13-7.2
			c0.34-2.2,0.44-4.08,0.48-5.39c0.02-0.53,0.02-0.96,0.02-1.3l-0.45,0.63l-0.96,1.37l-0.25,0.34l-0.26,0.32l-0.54,0.65l-1.07,1.28
			c-0.35,0.44-0.77,0.81-1.15,1.22c-0.79,0.79-1.54,1.62-2.4,2.33l-1.25,1.1c-0.41,0.37-0.83,0.74-1.28,1.07l-2.65,2.01l-2.79,1.82
			c-0.91,0.64-1.89,1.16-2.85,1.71l-1.44,0.82c-0.48,0.27-0.96,0.54-1.46,0.78l-2.98,1.46c-0.98,0.51-2.01,0.91-3.03,1.34L244,97.09
			l2.99-1.41c0.99-0.47,2-0.92,2.96-1.46l2.92-1.55c0.49-0.25,0.96-0.54,1.43-0.83l1.4-0.86c0.94-0.58,1.89-1.13,2.77-1.78l2.7-1.9
			l2.56-2.06c0.44-0.33,0.84-0.7,1.24-1.08l1.21-1.11c0.83-0.71,1.55-1.54,2.3-2.33c0.36-0.4,0.76-0.78,1.1-1.21l1.02-1.27
			l0.51-0.64l0.25-0.32l0.23-0.34l0.91-1.35l0.46-0.68c0.15-0.22,0.26-0.47,0.4-0.7l0.79-1.42l0.19-0.36l0.17-0.37l0.33-0.74
			c0.2-0.5,0.46-0.98,0.62-1.49l0.52-1.53l0.12-0.38l0.09-0.39l0.18-0.78l0.18-0.79c0.06-0.26,0.07-0.52,0.11-0.79
			c0.05-0.53,0.16-1.05,0.17-1.58c0-0.51,0.02-1.02,0.01-1.53C275.56,63.52,274.11,64.79,272.6,65.97z M278.05,60.21l-0.17-1.7
			l-1.08,1.4c-1.42,1.86-3.2,3.45-5.09,4.9c-1.9,1.44-3.93,2.73-6,3.95c-4.15,2.44-8.51,4.56-12.9,6.6l-13.25,6.05
			c-2.2,1.03-4.4,2.09-6.57,3.25c-1.08,0.58-2.14,1.2-3.19,1.87c-1.02,0.67-2.11,1.44-2.99,2.31c-1.78,1.75-3.31,3.78-4.46,5.99
			c-1.17,2.21-1.96,4.58-2.62,6.93c-0.66,2.36-1.22,4.72-1.8,7.08c-0.58,2.35-1.17,4.7-1.83,7.03c-0.32,1.16-0.68,2.33-1.01,3.49
			l-0.58,1.71c-0.19,0.57-0.37,1.15-0.61,1.7l-0.66,1.68c-0.23,0.55-0.5,1.09-0.75,1.64l-0.38,0.82l-0.42,0.8
			c-0.29,0.53-0.55,1.08-0.87,1.59c-1.2,2.09-2.61,4.06-4.19,5.9c-0.39,0.46-0.81,0.89-1.22,1.34c-0.43,0.42-0.83,0.87-1.29,1.28
			c-0.85,0.8-1.74,1.55-2.71,2.21c-0.04,0.03-0.07,0.05-0.11,0.07c0,0,0.14,0.01,0.41,0.02c0.27,0,0.66,0.01,1.16,0.01
			c0.5,0.02,1.11,0,1.8,0.02c0.69,0.01,1.47-0.02,2.32-0.02c0.85,0.01,1.77-0.03,2.74-0.06c0.48-0.01,0.98-0.03,1.49-0.04
			c0.51-0.03,1.03-0.06,1.56-0.1c1.05-0.06,2.14-0.11,3.23-0.25c0.54-0.05,1.09-0.11,1.64-0.17c0.55-0.06,1.1-0.1,1.67-0.22
			c0.56-0.09,1.12-0.19,1.68-0.28l0.84-0.14l0.41-0.07l0.21-0.03l0.05-0.01h0.02c0.01,0,0.01,0,0.01,0l0.09-0.03
			c0.53-0.13,1.05-0.26,1.57-0.38c0.52-0.13,1.01-0.31,1.5-0.46c0.97-0.35,1.89-0.73,2.71-1.18c0.42-0.21,0.78-0.49,1.16-0.71
			c0.35-0.26,0.7-0.52,1.01-0.78c0.28-0.29,0.59-0.54,0.82-0.83c0.13-0.14,0.25-0.28,0.37-0.41c0.1-0.14,0.2-0.29,0.3-0.42
			c0.39-0.55,0.65-1.08,0.84-1.53c0.1-0.26,0.19-0.5,0.25-0.7c-0.52,0.02-1.02,0.03-1.51,0.04c-0.49-0.01-0.97-0.01-1.43-0.02
			c-0.47-0.01-0.91-0.05-1.34-0.08c-0.86-0.05-1.64-0.14-2.33-0.24c-0.69-0.09-1.29-0.21-1.78-0.3c-0.98-0.2-1.53-0.36-1.53-0.36
			s0.15,0.01,0.41,0.02c0.27,0,0.66,0.01,1.15,0.03c0.5,0.01,1.1,0.01,1.79,0c0.34,0.01,0.71-0.01,1.09-0.02
			c0.39-0.01,0.79-0.01,1.21-0.04c0.84-0.03,1.75-0.1,2.71-0.17c0.95-0.11,1.96-0.21,2.99-0.37c1.03-0.13,2.08-0.39,3.14-0.61
			c0.52-0.13,1.05-0.27,1.59-0.41c0.52-0.16,1.04-0.35,1.56-0.52c0.53-0.15,1.02-0.39,1.53-0.59l0.75-0.32
			c0.25-0.11,0.47-0.24,0.7-0.37c0.24-0.12,0.47-0.24,0.7-0.36c0.23-0.13,0.46-0.22,0.69-0.39c0.46-0.3,0.91-0.6,1.35-0.89
			l0.17-0.11l0.06-0.04v-0.01l0.02-0.01v0.01c0.01-0.01,0.01-0.01,0.01-0.01l0.03-0.03l0.27-0.23c0.18-0.17,0.38-0.3,0.54-0.47
			c0.31-0.35,0.64-0.67,0.87-1.06c0.5-0.73,0.84-1.53,1.01-2.32c0.18-0.77,0.24-1.53,0.22-2.2c-0.01-0.67-0.09-1.26-0.17-1.74
			c-0.07-0.37-0.14-0.68-0.2-0.91c-0.39,0.08-0.77,0.15-1.15,0.18c-0.63,0.06-1.24,0.14-1.84,0.17c-0.6,0.03-1.18,0.06-1.74,0.08
			c-0.56-0.01-1.11-0.02-1.63-0.03c-1.04-0.05-1.99-0.13-2.82-0.24c-0.84-0.1-1.56-0.23-2.15-0.36c-0.6-0.11-1.05-0.24-1.37-0.32
			c-0.31-0.08-0.47-0.13-0.47-0.13s0.68,0.08,1.88,0.14c0.59,0.04,1.32,0.05,2.15,0.06c0.83,0.01,1.76-0.02,2.78-0.06
			c0.5-0.04,1.03-0.08,1.57-0.12c0.55-0.06,1.11-0.13,1.68-0.19c1.15-0.17,2.35-0.39,3.57-0.68c0.61-0.11,1.22-0.33,1.83-0.51
			c0.63-0.16,1.23-0.41,1.84-0.63c0.31-0.12,0.62-0.23,0.93-0.35l0.89-0.43l0.9-0.42c0.29-0.15,0.56-0.33,0.84-0.49l0.85-0.49
			c0.14-0.08,0.28-0.15,0.42-0.25l0.41-0.3l0.83-0.6l0.41-0.3l0.2-0.15l0.02-0.01l0.03-0.02l0.02-0.02l0.09-0.08
			c0.24-0.22,0.49-0.43,0.73-0.65c0.23-0.21,0.5-0.4,0.71-0.64c0.22-0.23,0.44-0.46,0.66-0.68c0.22-0.23,0.44-0.45,0.63-0.7
			c0.39-0.48,0.79-0.94,1.12-1.44c0.17-0.25,0.35-0.49,0.51-0.73c0.16-0.24,0.3-0.5,0.45-0.74c0.31-0.48,0.55-0.98,0.8-1.47
			c0.26-0.47,0.43-0.96,0.64-1.42c0.19-0.47,0.34-0.93,0.5-1.36c0.13-0.44,0.27-0.85,0.37-1.25c0.2-0.8,0.36-1.51,0.44-2.1
			c0.05-0.31,0.09-0.59,0.12-0.83c-0.53,0.39-1.05,0.79-1.59,1.18c-0.66,0.42-1.32,0.83-1.98,1.24c-0.67,0.38-1.35,0.73-2.01,1.09
			c-1.36,0.68-2.73,1.25-4.08,1.74c-1.35,0.49-2.68,0.89-3.95,1.2c-0.63,0.17-1.26,0.3-1.86,0.42c-0.6,0.13-1.19,0.23-1.75,0.32
			c-0.57,0.09-1.11,0.18-1.62,0.23c-0.52,0.06-1.01,0.12-1.47,0.15c-0.92,0.08-1.73,0.11-2.39,0.12c-1.33,0.03-2.08-0.04-2.08-0.04
			s0.75-0.07,2.05-0.27c0.65-0.1,1.44-0.24,2.34-0.41c0.45-0.08,0.92-0.19,1.42-0.3s1.02-0.23,1.56-0.37
			c0.55-0.13,1.11-0.28,1.69-0.46c0.58-0.16,1.18-0.32,1.79-0.53c0.6-0.2,1.23-0.39,1.86-0.64c0.62-0.24,1.28-0.44,1.91-0.73
			c0.63-0.28,1.3-0.52,1.94-0.84c0.32-0.16,0.64-0.31,0.96-0.47c0.33-0.16,0.66-0.3,0.98-0.48c0.63-0.36,1.28-0.7,1.91-1.07
			c0.61-0.39,1.23-0.78,1.84-1.17c0.61-0.43,1.22-0.89,1.82-1.32c0.57-0.41,1.08-0.89,1.56-1.39c0.93-1.03,1.71-2.19,2.3-3.41
			c1.19-2.45,1.78-5,2.13-7.2c0.34-2.2,0.44-4.08,0.48-5.39c0.02-0.53,0.02-0.96,0.02-1.3l-0.45,0.63l-0.96,1.37l-0.25,0.34
			l-0.26,0.32l-0.54,0.65l-1.07,1.28c-0.35,0.44-0.77,0.81-1.15,1.22c-0.79,0.79-1.54,1.62-2.4,2.33l-1.25,1.1
			c-0.41,0.37-0.83,0.74-1.28,1.07l-2.65,2.01l-2.79,1.82c-0.91,0.64-1.89,1.16-2.85,1.71l-1.44,0.82
			c-0.48,0.27-0.96,0.54-1.46,0.78l-2.98,1.46c-0.98,0.51-2.01,0.91-3.03,1.34L244,97.09l2.99-1.41c0.99-0.47,2-0.92,2.96-1.46
			l2.92-1.55c0.49-0.25,0.96-0.54,1.43-0.83l1.4-0.86c0.94-0.58,1.89-1.13,2.77-1.78l2.7-1.9l2.56-2.06
			c0.44-0.33,0.84-0.7,1.24-1.08l1.21-1.11c0.83-0.71,1.55-1.54,2.3-2.33c0.36-0.4,0.76-0.78,1.1-1.21l1.02-1.27l0.51-0.64
			l0.25-0.32l0.23-0.34l0.91-1.35l0.46-0.68c0.15-0.22,0.26-0.47,0.4-0.7l0.79-1.42l0.19-0.36l0.17-0.37l0.33-0.74
			c0.2-0.5,0.46-0.98,0.62-1.49l0.52-1.53l0.12-0.38l0.09-0.39l0.18-0.78l0.18-0.79c0.06-0.26,0.07-0.52,0.11-0.79
			c0.05-0.53,0.16-1.05,0.17-1.58c0-0.51,0.02-1.02,0.01-1.53c-1.28,1.46-2.73,2.73-4.24,3.91c-1.95,1.51-4.01,2.86-6.12,4.11
			c-4.21,2.49-8.6,4.64-13,6.71c-4.41,2.06-8.87,3.99-13.27,6.02c-2.19,1.02-4.38,2.06-6.5,3.18c-2.12,1.14-4.21,2.31-5.89,3.88
			c-1.71,1.64-3.16,3.52-4.27,5.6c-1.11,2.08-1.93,4.33-2.63,6.64c-0.7,2.3-1.3,4.65-1.93,7c-0.64,2.34-1.28,4.69-1.99,7.02
			c-0.34,1.18-0.72,2.32-1.08,3.48l-0.62,1.74c-0.21,0.57-0.41,1.15-0.66,1.71l-0.73,1.69c-0.26,0.55-0.54,1.09-0.82,1.64
			l-0.41,0.82l-0.46,0.79c-0.31,0.53-0.59,1.07-0.93,1.58c-1.28,2.08-2.78,4.02-4.43,5.82c-0.41,0.45-0.85,0.88-1.27,1.31
			c-0.46,0.41-0.89,0.84-1.36,1.23c-0.32,0.27-0.65,0.54-0.98,0.8c-0.04,0.04-0.08,0.07-0.12,0.09c-0.15,0.11-0.29,0.22-0.43,0.32
			s-0.29,0.2-0.44,0.29c2.51-1.84,9.39-7.77,13.2-19.83c5.02-15.88,4.55-23.1,11.89-30.29c7.18-7.04,39.5-16.27,49.4-28.22
			c0.16-0.18,0.3-0.36,0.43-0.54c0.07-0.08,0.12-0.15,0.18-0.23c0.02,0.09,0.03,0.18,0.04,0.28c0.03,0.22,0.06,0.45,0.08,0.68
			c0.33,3.56-0.62,8.23-3.64,13.27l0.01,0.24c0,0,0.01,0.27,0.01,0.77l0.04-0.06c0.01-0.01,0.01-0.02,0.02-0.03
			c0.01-0.02,0.03-0.04,0.04-0.07c0.13-0.2,0.24-0.41,0.37-0.62l0.85-1.46l0.21-0.36l0.18-0.39l0.36-0.76
			c0.22-0.52,0.5-1.01,0.68-1.55l0.57-1.59l0.15-0.4l0.1-0.41l0.21-0.83l0.2-0.83c0.08-0.27,0.09-0.56,0.14-0.84l0.12-0.85
			c0.03-0.28,0.08-0.56,0.08-0.85c0.01-0.58,0.04-1.15,0.03-1.73L278.05,60.21z M274.15,76.86c-0.07-0.62-0.14-1.11-0.19-1.45
			c-0.05-0.28-0.08-0.47-0.1-0.55c-0.01-0.04-0.01-0.06-0.01-0.06s0.01,0.27,0.01,0.77l0.04-0.06c0.01-0.01,0.01-0.02,0.02-0.03
			c0.23,2.85,0.69,13.99-5.75,19.15c0,0-0.01,0.37-0.09,1.04c0.03-0.02,0.07-0.05,0.1-0.07c0.03-0.02,0.05-0.04,0.08-0.06
			c0.01-0.01,0.03-0.02,0.04-0.03c0.65-0.48,1.22-1.04,1.76-1.61c1.05-1.18,1.84-2.52,2.44-3.86c0.6-1.34,0.98-2.7,1.26-3.99
			c0.28-1.3,0.42-2.54,0.5-3.69C274.42,80.08,274.29,78.17,274.15,76.86z M268.26,95.54c-0.01-0.16-0.02-0.29-0.03-0.41
			c-0.03-0.33-0.06-0.5-0.06-0.5s-0.01,0.37-0.09,1.04c0.03-0.02,0.07-0.05,0.1-0.07c-0.07,2.51-0.9,9.41-7.42,14.79
			c-3.59,2.96-7.7,4.47-11.51,5.2l0.01,0.04c0,0,0.01,0.01,0.01,0.03c0.02,0.06,0.08,0.26,0.16,0.57c0.02,0,0.05,0,0.07-0.01
			c0.02,0,0.05-0.01,0.07-0.01c0.2-0.04,0.41-0.08,0.61-0.11c0.66-0.1,1.3-0.3,1.96-0.46c0.66-0.14,1.31-0.38,1.96-0.62
			c0.32-0.12,0.65-0.23,0.98-0.36l0.96-0.43l0.96-0.45c0.32-0.15,0.62-0.35,0.94-0.52l0.92-0.56c0.15-0.09,0.32-0.18,0.46-0.28
			l0.41-0.31l0.81-0.61l0.41-0.31l0.2-0.15l0.05-0.03l0.05-0.04l0.01-0.01l0.03-0.02l0.09-0.09c0.51-0.48,1.04-0.93,1.51-1.43
			c0.22-0.25,0.45-0.51,0.68-0.76s0.44-0.5,0.64-0.77c0.39-0.54,0.81-1.04,1.12-1.6c0.17-0.27,0.33-0.54,0.49-0.81
			c0.16-0.27,0.29-0.55,0.43-0.82c0.57-1.07,0.94-2.15,1.26-3.15c0.15-0.51,0.27-1,0.37-1.46c0.08-0.47,0.18-0.92,0.23-1.34
			c0.12-0.84,0.16-1.58,0.17-2.18C268.29,96.14,268.27,95.81,268.26,95.54z M246.85,125.19v0.01c0.01-0.01,0.01-0.01,0.01-0.01
			H246.85z M250.4,118.82c-0.11-0.7-0.31-1.29-0.47-1.76c-0.13-0.35-0.26-0.63-0.36-0.85c-0.04-0.08-0.08-0.16-0.11-0.22
			c-0.06-0.12-0.12-0.21-0.15-0.27c-0.01-0.03-0.02-0.05-0.04-0.06c0.02,0.06,0.08,0.26,0.16,0.57c0.02,0,0.05,0,0.07-0.01
			c0.6,1.63,1.83,6.32-2.25,9.53c-4.12,3.24-13.92,4.79-13.92,4.79s0,0.01,0,0.02c-0.01,0.05-0.02,0.18-0.07,0.38
			c-0.02,0.11-0.05,0.24-0.1,0.39c0.02,0,0.05-0.01,0.08,0c0.03-0.01,0.06-0.01,0.09-0.01c0.47-0.02,0.95-0.06,1.43-0.12
			c0.54-0.05,1.09-0.1,1.64-0.2c0.55-0.09,1.11-0.16,1.66-0.3c0.56-0.13,1.12-0.27,1.68-0.4c0.56-0.16,1.11-0.35,1.67-0.53
			c0.56-0.16,1.08-0.43,1.62-0.66l0.8-0.35c0.26-0.12,0.52-0.28,0.77-0.42c0.51-0.29,1.05-0.56,1.49-0.88
			c0.44-0.33,0.88-0.65,1.31-0.96l0.16-0.12l0.08-0.06l0.04-0.03l0.01-0.01l0.02-0.02l0.04-0.03l0.31-0.29
			c0.2-0.2,0.41-0.38,0.59-0.59c0.34-0.44,0.68-0.86,0.92-1.33c0.14-0.23,0.27-0.45,0.35-0.7c0.1-0.24,0.2-0.46,0.27-0.7
			c0.12-0.48,0.25-0.93,0.28-1.38c0.07-0.45,0.05-0.88,0.06-1.28C250.49,119.55,250.47,119.17,250.4,118.82z M233.33,130.56
			c-0.01,0.05-0.02,0.18-0.07,0.38c-0.02,0.11-0.05,0.24-0.1,0.39c0.02,0,0.05-0.01,0.08,0c-0.33,1.83-2.03,6.3-10.57,8.18
			c-10.25,2.24-21.37,0.59-21.37,0.59s0.56,0.15,1.54,0.35c0.49,0.1,1.09,0.19,1.78,0.3c0.69,0.12,1.47,0.21,2.33,0.29
			c0.42,0.05,0.87,0.1,1.33,0.14c0.46,0.03,0.94,0.05,1.44,0.08c0.49,0.02,1,0.05,1.51,0.08c0.52,0.02,1.05-0.01,1.59-0.01
			c1.08-0.03,2.19,0.02,3.33-0.12c0.57-0.05,1.15-0.1,1.73-0.16c0.57-0.05,1.16-0.09,1.71-0.2c0.56-0.1,1.12-0.2,1.68-0.31
			l0.83-0.15l0.42-0.07l0.21-0.04l0.1-0.02l0.03-0.01l0.11-0.03c0.55-0.14,1.1-0.3,1.65-0.45c0.54-0.17,1.06-0.39,1.58-0.57
			c1.02-0.41,1.97-0.92,2.83-1.48c0.43-0.27,0.81-0.6,1.19-0.89c0.35-0.32,0.69-0.64,1-0.97c0.58-0.67,1.06-1.34,1.37-2
			c0.33-0.63,0.5-1.24,0.62-1.74c0.07-0.31,0.11-0.58,0.12-0.8c0.01-0.14,0.01-0.27,0.01-0.37
			C233.35,130.74,233.34,130.61,233.33,130.56z M81.83,94.63c0,0-0.03,0.35-0.01,0.97c0.03,0.02,0.07,0.05,0.1,0.07
			C81.84,95,81.83,94.63,81.83,94.63z M116.74,130.94c-0.05-0.2-0.06-0.33-0.07-0.38c0,0.08,0.01,0.35,0.08,0.76h0.09
			C116.79,131.17,116.76,131.05,116.74,130.94z M148.59,140.03c-0.06-0.03-0.12-0.07-0.17-0.11c-0.15-0.1-0.3-0.21-0.45-0.31
			c-0.07-0.05-0.15-0.11-0.23-0.17c-0.69-0.45-1.34-0.96-1.97-1.5c-0.48-0.39-0.91-0.82-1.36-1.23c-0.42-0.43-0.86-0.86-1.27-1.31
			c-1.65-1.79-3.15-3.74-4.43-5.82c-0.34-0.51-0.62-1.05-0.93-1.58l-0.46-0.79l-0.41-0.82c-0.27-0.55-0.56-1.09-0.82-1.64
			l-0.73-1.69c-0.25-0.56-0.45-1.14-0.66-1.71l-0.62-1.73c-0.36-1.17-0.74-2.31-1.08-3.48c-0.71-2.34-1.36-4.68-1.99-7.03
			c-0.63-2.35-1.23-4.7-1.93-7c-0.7-2.3-1.52-4.56-2.63-6.64s-2.56-3.96-4.27-5.6c-1.68-1.57-3.77-2.74-5.89-3.87
			c-2.12-1.13-4.31-2.17-6.5-3.19c-4.4-2.03-8.86-3.95-13.27-6.02c-4.4-2.07-8.79-4.21-13-6.71c-2.11-1.25-4.17-2.6-6.12-4.11
			c-1.51-1.18-2.96-2.45-4.24-3.91c-0.01,0.51,0.01,1.02,0.01,1.53c0.01,0.53,0.12,1.05,0.17,1.58c0.04,0.27,0.05,0.53,0.11,0.79
			l0.18,0.79l0.18,0.78l0.09,0.39l0.12,0.38l0.52,1.53c0.16,0.52,0.42,0.99,0.62,1.49l0.33,0.74l0.17,0.37l0.19,0.36l0.79,1.42
			c0.14,0.23,0.26,0.48,0.4,0.7l0.46,0.68l0.91,1.35l0.23,0.34l0.25,0.32l0.51,0.64l1.02,1.27c0.34,0.43,0.74,0.81,1.1,1.21
			c0.76,0.79,1.47,1.62,2.3,2.33l1.21,1.11c0.4,0.38,0.8,0.75,1.24,1.08l2.57,2.06l2.69,1.9c0.88,0.65,1.83,1.2,2.77,1.78l1.4,0.86
			c0.47,0.29,0.94,0.58,1.43,0.83l2.92,1.55c0.96,0.54,1.97,0.99,2.96,1.46l3,1.41l-3.06-1.27c-1.02-0.43-2.05-0.83-3.03-1.34
			l-2.98-1.46c-0.5-0.23-0.98-0.51-1.46-0.78l-1.44-0.82c-0.96-0.55-1.94-1.07-2.85-1.71l-2.78-1.82l-2.66-2.01
			c-0.45-0.33-0.86-0.7-1.28-1.07l-1.25-1.1c-0.86-0.71-1.61-1.54-2.4-2.33c-0.38-0.41-0.79-0.78-1.14-1.22l-1.08-1.28l-0.54-0.65
			l-0.26-0.32l-0.25-0.34l-0.96-1.37l-0.45-0.63c0,0.34,0,0.77,0.02,1.3c0.04,1.31,0.14,3.19,0.48,5.39c0.35,2.2,0.94,4.75,2.12,7.2
			c0.59,1.22,1.38,2.38,2.31,3.41c0.48,0.5,0.99,0.98,1.56,1.38c0.6,0.44,1.21,0.9,1.82,1.33c0.61,0.39,1.23,0.78,1.84,1.17
			c0.63,0.37,1.28,0.71,1.91,1.07c0.31,0.18,0.65,0.32,0.97,0.48c0.33,0.16,0.65,0.31,0.97,0.47c0.64,0.32,1.3,0.56,1.94,0.84
			c0.63,0.29,1.29,0.49,1.91,0.73c0.63,0.25,1.26,0.44,1.86,0.64c0.61,0.21,1.21,0.37,1.79,0.53c0.58,0.18,1.14,0.33,1.68,0.46
			c0.55,0.14,1.07,0.26,1.57,0.36c0.5,0.12,0.97,0.23,1.42,0.31c0.9,0.17,1.69,0.31,2.34,0.41c1.3,0.2,2.05,0.27,2.05,0.27
			s-0.75,0.07-2.08,0.04c-0.66-0.01-1.47-0.04-2.39-0.12c-0.46-0.03-0.95-0.09-1.47-0.15c-0.51-0.05-1.05-0.14-1.62-0.23
			c-0.56-0.09-1.15-0.19-1.75-0.32c-0.6-0.12-1.23-0.25-1.86-0.42c-1.27-0.32-2.6-0.71-3.95-1.2c-1.35-0.49-2.72-1.07-4.08-1.74
			c-0.66-0.36-1.34-0.71-2.01-1.09c-0.66-0.41-1.32-0.82-1.98-1.24c-0.54-0.39-1.06-0.79-1.59-1.18c0.03,0.24,0.07,0.52,0.12,0.83
			c0.08,0.59,0.24,1.3,0.44,2.09c0.1,0.4,0.24,0.82,0.37,1.26c0.16,0.43,0.31,0.89,0.5,1.36c0.21,0.46,0.38,0.95,0.64,1.42
			c0.25,0.48,0.49,0.99,0.8,1.47c0.14,0.24,0.29,0.5,0.45,0.74s0.34,0.48,0.51,0.73c0.33,0.5,0.73,0.96,1.12,1.44
			c0.19,0.25,0.4,0.47,0.63,0.69c0.22,0.23,0.44,0.46,0.66,0.69c0.21,0.24,0.47,0.43,0.71,0.64c0.25,0.22,0.49,0.43,0.73,0.65
			l0.09,0.08l0.02,0.02l0.02,0.01l0.03,0.02l0.2,0.15l0.41,0.3l0.83,0.6l0.41,0.3c0.14,0.1,0.28,0.17,0.42,0.25l0.85,0.49
			c0.28,0.16,0.55,0.34,0.84,0.49l0.9,0.42l0.89,0.43c0.31,0.12,0.62,0.23,0.93,0.35c0.61,0.22,1.21,0.47,1.84,0.63
			c0.62,0.18,1.22,0.4,1.83,0.51c1.22,0.29,2.42,0.51,3.57,0.68c0.57,0.06,1.13,0.13,1.68,0.19c0.54,0.04,1.07,0.08,1.57,0.12
			c1.02,0.04,1.95,0.07,2.78,0.06s1.56-0.02,2.15-0.06c1.2-0.06,1.88-0.14,1.88-0.14s-0.16,0.05-0.47,0.13
			c-0.31,0.08-0.77,0.21-1.37,0.32c-0.59,0.13-1.31,0.26-2.15,0.36c-0.83,0.11-1.78,0.19-2.82,0.24c-0.52,0.01-1.07,0.02-1.63,0.03
			c-0.56-0.03-1.14-0.05-1.74-0.08c-0.6-0.03-1.21-0.11-1.84-0.17c-0.38-0.03-0.76-0.1-1.15-0.18c-0.06,0.23-0.13,0.54-0.19,0.91
			c-0.08,0.48-0.17,1.07-0.18,1.74c-0.02,0.67,0.04,1.42,0.22,2.2c0.17,0.79,0.51,1.58,1.01,2.32c0.23,0.39,0.56,0.71,0.87,1.06
			c0.16,0.17,0.37,0.3,0.54,0.46l0.28,0.24l0.02,0.03l0.04,0.02l0.06,0.04l0.16,0.11c0.45,0.29,0.9,0.59,1.35,0.89
			c0.23,0.17,0.46,0.26,0.69,0.39c0.24,0.12,0.47,0.24,0.7,0.36s0.46,0.26,0.7,0.37l0.76,0.31c0.5,0.21,0.99,0.45,1.52,0.6
			c0.53,0.17,1.04,0.36,1.57,0.52c0.53,0.14,1.06,0.27,1.58,0.41c1.07,0.22,2.11,0.48,3.15,0.61c1.02,0.16,2.03,0.26,2.98,0.37
			c0.96,0.07,1.87,0.14,2.71,0.17c0.42,0.03,0.83,0.03,1.21,0.04s0.75,0.03,1.09,0.02c0.69,0.01,1.29,0,1.79,0
			c0.49-0.02,0.88-0.03,1.15-0.03c0.26-0.02,0.41-0.02,0.41-0.02s-0.55,0.16-1.53,0.36c-0.49,0.09-1.09,0.21-1.78,0.3
			c-0.69,0.09-1.47,0.19-2.33,0.24c-0.42,0.03-0.87,0.06-1.33,0.08c-0.47,0.01-0.95,0.01-1.44,0.02c-0.49-0.01-1-0.02-1.51-0.05
			c0.06,0.2,0.14,0.44,0.25,0.71c0.19,0.45,0.45,0.98,0.84,1.53c0.1,0.13,0.2,0.28,0.3,0.42c0.12,0.13,0.24,0.27,0.37,0.41
			c0.23,0.29,0.54,0.54,0.82,0.83c0.31,0.26,0.66,0.52,1.01,0.78c0.38,0.22,0.74,0.5,1.16,0.71c0.82,0.45,1.74,0.84,2.71,1.18
			c0.49,0.15,0.98,0.33,1.5,0.47c0.52,0.11,1.04,0.24,1.57,0.37l0.09,0.03h0.01c0.01,0,0.01,0,0.02,0l0.05,0.01l0.21,0.04l0.41,0.06
			l0.84,0.14c0.56,0.09,1.12,0.19,1.68,0.28c0.56,0.12,1.12,0.17,1.67,0.22c0.55,0.06,1.1,0.12,1.64,0.17
			c1.09,0.14,2.18,0.19,3.23,0.26c0.53,0.03,1.05,0.06,1.56,0.09c0.51,0.02,1.01,0.03,1.49,0.05c0.97,0.03,1.89,0.06,2.74,0.06
			c0.85-0.01,1.63,0.02,2.32,0.01c0.69-0.02,1.3,0,1.8-0.02c0.5,0,0.89-0.01,1.16-0.01c0.16-0.01,0.28-0.01,0.35-0.01h0.01
			c0.03-0.01,0.05-0.01,0.05-0.01C148.66,140.08,148.63,140.06,148.59,140.03z M100.69,115.72c-0.03,0.1-0.11,0.27-0.19,0.5
			c0.02,0.01,0.05,0.01,0.07,0.01c0.08-0.31,0.14-0.51,0.16-0.57C100.71,115.67,100.7,115.69,100.69,115.72z M76.14,74.86
			c-0.01,0.1-0.03,0.31-0.06,0.62c0.01,0.01,0.01,0.02,0.02,0.03l0.04,0.06c0-0.5,0.01-0.77,0.01-0.77S76.15,74.82,76.14,74.86z
			 M145.88,137.82c-0.45-0.41-0.86-0.85-1.29-1.28c-0.41-0.45-0.83-0.88-1.22-1.34c-1.57-1.84-2.99-3.81-4.19-5.9
			c-0.32-0.51-0.57-1.06-0.86-1.59l-0.43-0.8l-0.38-0.82c-0.25-0.55-0.52-1.09-0.75-1.64l-0.66-1.68c-0.24-0.55-0.42-1.13-0.61-1.7
			l-0.57-1.71c-0.34-1.16-0.7-2.33-1.02-3.49c-0.65-2.33-1.25-4.68-1.83-7.03c-0.58-2.36-1.14-4.72-1.8-7.08
			c-0.66-2.35-1.45-4.71-2.62-6.93c-1.15-2.21-2.68-4.24-4.45-5.99c-0.89-0.87-1.98-1.64-3-2.31c-1.05-0.67-2.11-1.29-3.19-1.87
			c-2.16-1.16-4.36-2.22-6.57-3.25l-13.25-6.05c-4.39-2.04-8.75-4.16-12.9-6.6c-2.07-1.22-4.1-2.51-6-3.95
			c-1.89-1.45-3.67-3.04-5.09-4.89l-1.08-1.41l-0.16,1.7l-0.17,1.73c0,0.58,0.02,1.15,0.03,1.73c0,0.29,0.05,0.57,0.08,0.85
			l0.12,0.85c0.05,0.28,0.07,0.57,0.14,0.84l0.2,0.83l0.21,0.83l0.1,0.41l0.15,0.4l0.57,1.6c0.18,0.53,0.46,1.02,0.69,1.54
			l0.35,0.76l0.18,0.39l0.21,0.36l0.85,1.46c0.13,0.21,0.24,0.42,0.37,0.62c0.01,0.03,0.03,0.05,0.04,0.07
			c0.01,0.01,0.01,0.02,0.02,0.03l0.04,0.06c0-0.5,0.01-0.77,0.01-0.77l0.01-0.24c-3.02-5.04-3.97-9.71-3.64-13.27
			c0.02-0.23,0.05-0.46,0.08-0.68c0.01-0.1,0.02-0.19,0.04-0.28c0.06,0.08,0.11,0.15,0.18,0.23c0.13,0.18,0.27,0.36,0.43,0.54
			c9.9,11.95,42.22,21.18,49.4,28.22c7.34,7.19,6.87,14.41,11.89,30.29c3.81,12.06,10.69,17.99,13.2,19.83
			c0.08,0.06,0.16,0.12,0.23,0.17c0.15,0.1,0.3,0.21,0.45,0.31c0.05,0.04,0.11,0.08,0.17,0.11
			C147.62,139.37,146.73,138.62,145.88,137.82z M81.83,94.63c-6.44-5.16-5.98-16.3-5.75-19.15c0.01,0.01,0.01,0.02,0.02,0.03
			l0.04,0.06c0-0.5,0.01-0.77,0.01-0.77s0,0.02-0.01,0.06c-0.02,0.08-0.05,0.27-0.1,0.55c-0.05,0.34-0.12,0.83-0.19,1.44
			c-0.14,1.32-0.27,3.22-0.11,5.51c0.08,1.15,0.22,2.39,0.5,3.68c0.28,1.3,0.66,2.66,1.26,4c0.6,1.34,1.39,2.68,2.44,3.86
			c0.54,0.57,1.11,1.13,1.76,1.61c0.01,0.01,0.03,0.02,0.04,0.03c0.03,0.02,0.05,0.04,0.08,0.06c0.03,0.02,0.07,0.05,0.1,0.07
			C81.84,95,81.83,94.63,81.83,94.63z M89.24,110.39c-6.52-5.38-7.35-12.28-7.42-14.79c0.03,0.02,0.07,0.05,0.1,0.07
			c-0.08-0.67-0.09-1.04-0.09-1.04s-0.03,0.17-0.06,0.5c-0.01,0.12-0.02,0.25-0.03,0.41c-0.01,0.27-0.03,0.6-0.02,0.99
			c0.01,0.61,0.05,1.34,0.17,2.18c0.05,0.43,0.15,0.87,0.23,1.34c0.11,0.46,0.22,0.95,0.37,1.46c0.32,1,0.69,2.08,1.26,3.16
			c0.14,0.26,0.27,0.54,0.43,0.82c0.16,0.26,0.32,0.53,0.49,0.8c0.31,0.56,0.73,1.06,1.12,1.6c0.2,0.27,0.42,0.52,0.64,0.77
			c0.23,0.25,0.46,0.51,0.68,0.76c0.47,0.51,1,0.95,1.51,1.43l0.09,0.09l0.03,0.02l0.01,0.01l0.05,0.04l0.05,0.03l0.2,0.16l0.41,0.3
			l0.81,0.61l0.41,0.31c0.14,0.1,0.31,0.19,0.46,0.28l0.92,0.56c0.32,0.17,0.62,0.37,0.94,0.52l0.96,0.45l0.96,0.43
			c0.33,0.13,0.66,0.24,0.98,0.36c0.66,0.24,1.3,0.48,1.97,0.62c0.66,0.16,1.3,0.36,1.95,0.46c0.2,0.03,0.41,0.07,0.61,0.11
			c0.02,0,0.05,0.01,0.07,0.01c0.02,0.01,0.05,0.01,0.07,0.01c0.08-0.31,0.14-0.51,0.16-0.57v-0.01c0.01-0.01,0.01-0.02,0.01-0.02
			l0.01-0.04C96.94,114.86,92.83,113.35,89.24,110.39z M116.74,130.94c-0.05-0.2-0.06-0.33-0.07-0.38c0-0.01,0-0.02,0-0.02
			s-9.8-1.55-13.92-4.79c-4.08-3.21-2.85-7.9-2.25-9.53c0.02,0.01,0.05,0.01,0.07,0.01c0.08-0.31,0.14-0.51,0.16-0.57
			c-0.02,0.01-0.03,0.03-0.04,0.06c-0.03,0.06-0.09,0.15-0.15,0.27c-0.03,0.06-0.07,0.14-0.11,0.22c-0.1,0.22-0.23,0.5-0.36,0.84
			c-0.16,0.48-0.36,1.07-0.47,1.77c-0.07,0.35-0.09,0.73-0.13,1.14c0.01,0.4-0.01,0.83,0.06,1.27c0.04,0.46,0.16,0.91,0.28,1.39
			c0.07,0.24,0.18,0.46,0.27,0.7c0.08,0.24,0.21,0.47,0.35,0.7c0.24,0.47,0.58,0.89,0.92,1.32c0.18,0.22,0.39,0.4,0.6,0.6l0.3,0.29
			l0.04,0.03l0.02,0.02l0.01,0.01l0.04,0.03l0.08,0.06l0.16,0.12c0.43,0.31,0.87,0.63,1.31,0.96c0.44,0.32,0.98,0.59,1.49,0.88
			c0.26,0.14,0.51,0.3,0.78,0.42l0.79,0.35c0.54,0.23,1.07,0.49,1.62,0.66c0.56,0.18,1.11,0.36,1.67,0.53
			c0.56,0.13,1.12,0.27,1.68,0.4c0.55,0.14,1.11,0.21,1.66,0.3c0.55,0.1,1.1,0.15,1.64,0.2c0.49,0.06,0.96,0.09,1.43,0.11
			c0.03,0.01,0.05,0.01,0.08,0.01h0.09C116.79,131.17,116.76,131.05,116.74,130.94z M148.65,140.11h-0.01
			c-0.85,0.12-11.48,1.55-21.31-0.6c-8.56-1.88-10.25-6.37-10.58-8.19h0.09c-0.05-0.15-0.08-0.27-0.1-0.38
			c-0.05-0.2-0.06-0.33-0.07-0.38c-0.01,0.05-0.02,0.18-0.02,0.39c0,0.1,0,0.22,0.02,0.36c0.01,0.22,0.05,0.5,0.12,0.81
			c0.12,0.5,0.29,1.11,0.62,1.74c0.31,0.66,0.79,1.33,1.37,2c0.31,0.33,0.65,0.65,1,0.98c0.38,0.28,0.76,0.61,1.19,0.88
			c0.86,0.56,1.81,1.07,2.83,1.48c0.52,0.18,1.04,0.4,1.58,0.57c0.54,0.16,1.1,0.31,1.65,0.46l0.11,0.02l0.02,0.01l0.06,0.01
			l0.05,0.01l0.21,0.04l0.42,0.07l0.83,0.16c0.56,0.1,1.12,0.2,1.68,0.3c0.55,0.11,1.14,0.15,1.71,0.21
			c0.58,0.05,1.16,0.1,1.73,0.15c1.14,0.14,2.25,0.09,3.33,0.12c0.54,0,1.07,0.03,1.59,0.01c0.51-0.03,1.02-0.06,1.51-0.08
			c0.5-0.03,0.97-0.05,1.44-0.08c0.46-0.03,0.9-0.09,1.33-0.13c0.86-0.09,1.64-0.18,2.33-0.3c0.69-0.11,1.29-0.2,1.78-0.3
			c0.98-0.2,1.54-0.34,1.54-0.34S148.68,140.11,148.65,140.11z"/>
	</g>
</g>
<g id="Layer_13">
</g>
<g id="Layer_14">
</g>
<g id="Layer_15">
</g>
</svg>
