<?xml version="1.0" encoding="utf-8"?>
<!-- Generator: Adobe Illustrator 27.8.1, SVG Export Plug-In . SVG Version: 6.00 Build 0)  -->
<svg version="1.1" id="Layer_1" xmlns="http://www.w3.org/2000/svg" xmlns:xlink="http://www.w3.org/1999/xlink" x="0px" y="0px"
	 viewBox="0 0 350 230" style="enable-background:new 0 0 350 230;" xml:space="preserve">
<style type="text/css">
	.st0{fill:#F8FFD9;}
	.st1{fill:#FEFFE6;}
	.st2{fill:#CFF7F9;}
	.st3{fill:#E5E3CA;}
	.st4{fill:#FAFFD7;}
	.st5{fill:#FFF4EB;}
	.st6{fill:#FFFAD9;}
	.st7{fill:#D9FFF8;}
	.st8{fill:#FFEED9;}
	.st9{fill:#B9E1EA;}
	.st10{fill:#D9FFDA;}
	.st11{fill:#E0FFD9;}
	.st12{fill:#004A63;}
	.st13{fill:#C2F9D9;}
	.st14{fill:#FFF4D9;}
	.st15{fill:#D7F6FF;}
	.st16{fill:#EAF4B5;}
	.st17{fill:#013586;}
	.st18{fill:#005868;}
	.st19{fill:#FF0087;}
	.st20{fill:#002F44;}
	.st21{fill:#FC9500;}
	.st22{fill:#003144;}
	.st23{fill:#00AAFF;}
	.st24{fill:#00FFE6;}
	.st25{fill:#F46CFF;}
	.st26{fill:#0043FF;}
	.st27{fill:#977D00;}
	.st28{fill-rule:evenodd;clip-rule:evenodd;fill:#5BB200;}
	.st29{fill-rule:evenodd;clip-rule:evenodd;fill:#747C04;}
	.st30{fill:#735500;}
	.st31{fill:#4D0600;}
	.st32{fill-rule:evenodd;clip-rule:evenodd;fill:#FF0074;}
	.st33{fill-rule:evenodd;clip-rule:evenodd;fill:#004972;}
	.st34{fill:#FFDB43;}
	.st35{fill:#34A853;}
	.st36{fill:#4285F4;}
	.st37{fill-rule:evenodd;clip-rule:evenodd;fill:#C2C700;}
	.st38{fill-rule:evenodd;clip-rule:evenodd;fill:#FF0062;}
	.st39{fill-rule:evenodd;clip-rule:evenodd;fill:#C44600;}
	.st40{fill:#02D3BE;}
	.st41{fill:#D3B900;}
	.st42{fill:#0055FF;}
	.st43{fill:#D17315;}
	.st44{fill:#9E580B;}
	.st45{fill:url(#SVGID_1_);}
	.st46{fill:#05ADFC;}
	.st47{fill:#F1F9C2;}
	.st48{fill-rule:evenodd;clip-rule:evenodd;fill:#282000;}
	.st49{fill:#414042;}
	.st50{fill:#002E96;}
	.st51{fill:#231F20;}
	.st52{fill:#FFE01A;}
	.st53{fill:#1C87AE;}
	.st54{fill-rule:evenodd;clip-rule:evenodd;fill:#231F20;}
	.st55{fill-rule:evenodd;clip-rule:evenodd;fill:#AE6219;}
	.st56{fill-rule:evenodd;clip-rule:evenodd;fill:#ED1B2D;}
	.st57{fill-rule:evenodd;clip-rule:evenodd;fill:#FFFFFF;}
	.st58{fill:#2581D1;}
	.st59{fill:#1581B7;}
	.st60{fill:#282828;}
	.st61{fill-rule:evenodd;clip-rule:evenodd;fill:#011F4B;}
	.st62{fill-rule:evenodd;clip-rule:evenodd;fill:#005B96;}
	.st63{fill-rule:evenodd;clip-rule:evenodd;fill:#00BFFF;}
	.st64{fill-rule:evenodd;clip-rule:evenodd;fill:#D3DEE4;}
	.st65{fill-rule:evenodd;clip-rule:evenodd;fill:#E3EDF1;}
	.st66{fill:#00235A;}
	.st67{fill:#003076;}
	.st68{fill:#AE6219;}
	.st69{fill:#00BDFF;}
	.st70{display:none;fill:url(#SVGID_00000062891893267034967450000012942077662560477581_);}
	.st71{fill:none;}
	.st72{fill:#011F4B;}
	.st73{fill:#FFFFFF;}
	.st74{fill-rule:evenodd;clip-rule:evenodd;fill:#F39C12;}
	.st75{fill-rule:evenodd;clip-rule:evenodd;fill:#1297E0;}
	.st76{fill-rule:evenodd;clip-rule:evenodd;fill:#CC7C09;}
	.st77{fill-rule:evenodd;clip-rule:evenodd;fill:#19B5FE;}
	.st78{fill:#EA3560;}
	.st79{fill:#C7E7FF;}
	.st80{fill:#002D4F;}
	.st81{fill:#3382D1;}
	.st82{fill:url(#SVGID_00000062889731045722531710000008481119092699597755_);}
	.st83{fill:#009F9A;}
	.st84{fill:#0074BA;}
	.st85{fill-rule:evenodd;clip-rule:evenodd;fill:#01305C;}
	.st86{fill-rule:evenodd;clip-rule:evenodd;fill:#FF0000;}
	.st87{fill:url(#SVGID_00000093152187083901869810000013429889959278321081_);}
	.st88{fill:#01253F;}
	.st89{fill:#0EC6CE;}
	.st90{fill:#F9FAFB;}
	.st91{fill:url(#SVGID_00000032615571937528906170000003229776420427420068_);}
	.st92{fill:#293D7F;}
	.st93{fill:url(#SVGID_00000096748526251891380730000018091353517648914082_);}
	.st94{fill:url(#SVGID_00000132781298854415873430000017081465070292330380_);}
	.st95{fill:url(#SVGID_00000110446964864178283800000004569769152296417412_);}
	.st96{fill:url(#SVGID_00000152955772802217516410000015877032723494446002_);}
	.st97{fill:url(#SVGID_00000173136387631231332380000007848794210245392010_);}
	.st98{fill-rule:evenodd;clip-rule:evenodd;fill:url(#SVGID_00000177460618500113725210000012012777411315648672_);}
	.st99{fill:#00007F;}
	.st100{fill-rule:evenodd;clip-rule:evenodd;fill:#009F9A;}
	.st101{fill-rule:evenodd;clip-rule:evenodd;fill:#004A63;}
	.st102{fill:url(#SVGID_00000045598256511227925520000013721765438755865486_);}
	.st103{opacity:0.33;fill:#FAFF9C;enable-background:new    ;}
	.st104{fill:url(#SVGID_00000061444560915185190360000009653630768080268449_);}
	.st105{opacity:0.2;fill:#00005E;enable-background:new    ;}
	.st106{fill:url(#SVGID_00000119804026093404670660000002975067750900232637_);}
	.st107{fill-rule:evenodd;clip-rule:evenodd;fill:#0074BA;}
	.st108{fill-rule:evenodd;clip-rule:evenodd;fill:url(#SVGID_00000003072369158621648980000009129196888728510119_);}
	.st109{fill:#7FFFB6;}
	.st110{fill:url(#Layer_2_00000174596333836186053190000004157033356579997365_);}
	.st111{fill-rule:evenodd;clip-rule:evenodd;fill:#00ADEE;}
	.st112{fill-rule:evenodd;clip-rule:evenodd;fill:#0094D9;}
	.st113{fill-rule:evenodd;clip-rule:evenodd;fill:#FF6600;}
	.st114{fill-rule:evenodd;clip-rule:evenodd;fill:#03274D;}
	.st115{fill:url(#SVGID_00000089570100766196558150000010474264192719733134_);}
	.st116{fill:#0087FF;}
	.st117{fill:url(#SVGID_00000014601594259178708190000012995409498285638056_);}
	.st118{fill:url(#SVGID_00000084505408452038605080000015106959353965197980_);}
	.st119{fill:#9635EE;}
	.st120{fill:url(#SVGID_00000061444814687694551060000007747354771051263914_);}
	.st121{fill:url(#SVGID_00000000189735324700883270000009280353799241184910_);}
	.st122{fill:#F7FAFB;}
	.st123{fill:url(#SVGID_00000011728999732781560170000004512294461274814082_);}
	.st124{fill:url(#SVGID_00000129916118743745802630000001358730277954872252_);}
	.st125{fill:#1B75FF;}
	.st126{fill:#0147B2;}
	.st127{fill:url(#SVGID_00000113331523240230384400000005899908454022281632_);}
	.st128{fill:url(#SVGID_00000110451171736423257630000013220607049313697708_);}
	.st129{fill:#092A38;}
	.st130{fill:#00A99D;}
	.st131{fill:url(#SVGID_00000099655106061420497240000012692842804507609506_);}
	.st132{fill:url(#SVGID_00000016753680731453269600000015946749226020866205_);}
	.st133{fill:url(#SVGID_00000022525328302382799400000013915816250904617359_);}
	.st134{fill:url(#SVGID_00000145045991942449776450000000682053103758740641_);}
	.st135{fill:url(#SVGID_00000136369135633633821800000017986988589426305184_);}
	.st136{fill-rule:evenodd;clip-rule:evenodd;fill:#C1C2C4;}
</style>
<g id="Objects">
	<g>
		<path class="st92" d="M175,67.88c-5.28,0-9.57,4.28-9.57,9.57c0,3.6,1.98,6.73,4.92,8.36l-1.53,12.62
			c-0.19,1.59,1.05,2.99,2.65,2.99h7.06c1.6,0,2.84-1.4,2.65-2.99l-1.53-12.62c2.93-1.63,4.92-4.77,4.92-8.36
			C184.56,72.16,180.28,67.88,175,67.88z"/>
		<path class="st92" d="M257.2,90.22c3.08,0,5.58-2.5,5.58-5.58s-2.5-5.58-5.58-5.58c-1.57,0-3,0.66-4.01,1.71l-9.8-5.75h-15.35
			c0.12-2.56,0.15-5.11,0.13-7.66h19.25c0.68,2.31,2.82,4,5.35,4c3.08,0,5.58-2.5,5.58-5.58s-2.5-5.58-5.58-5.58
			c-2.53,0-4.67,1.69-5.35,4h-19.31c-0.09-3.26-0.25-6.5-0.45-9.71h11.55c0.68,2.31,2.82,4,5.35,4c3.08,0,5.58-2.5,5.58-5.58
			s-2.5-5.58-5.58-5.58c-2.53,0-4.67,1.69-5.35,4h-11.75c-0.07-1.13-0.15-2.25-0.23-3.37l-0.21-3.01l-3-0.39
			c-0.07-0.01-7.55-1-17.11-3.29c-12.49-2.99-22.87-6.83-30.03-11.1L175,29.02l-1.89,1.13c-17.42,10.4-46.85,14.36-47.14,14.4
			l-3,0.39l-0.2,3.02c-0.08,1.12-0.15,2.24-0.23,3.37h-11.75c-0.68-2.31-2.82-4-5.35-4c-3.08,0-5.58,2.5-5.58,5.58
			c0,3.08,2.5,5.58,5.58,5.58c2.53,0,4.67-1.69,5.35-4h11.55c-0.2,3.22-0.36,6.46-0.45,9.71h-19.31c-0.68-2.31-2.82-4-5.35-4
			c-3.08,0-5.58,2.5-5.58,5.58s2.5,5.58,5.58,5.58c2.53,0,4.67-1.69,5.35-4h19.25c-0.02,2.55,0.01,5.1,0.13,7.66h-15.35l-9.8,5.75
			c-1.02-1.05-2.44-1.71-4.01-1.71c-3.08,0-5.58,2.5-5.58,5.58s2.5,5.58,5.58,5.58c3.08,0,5.58-2.5,5.58-5.58
			c0-0.37-0.04-0.73-0.1-1.07l9.2-5.4h14.68c0.06,0.87,0.14,1.74,0.22,2.61c0.21,2.15,0.49,4.24,0.83,6.28h-12.88l-4.65,4.71
			c-0.79-0.42-1.68-0.66-2.64-0.66c-3.08,0-5.58,2.5-5.58,5.58c0,3.08,2.5,5.58,5.58,5.58c3.08,0,5.58-2.5,5.58-5.58
			c0-0.98-0.25-1.9-0.7-2.7l3.72-3.77h12.15c1.76,8.45,4.73,15.93,8.86,22.32h-13.28v-4.5c2.31-0.68,4-2.82,4-5.35
			c0-3.08-2.5-5.58-5.58-5.58c-3.08,0-5.58,2.5-5.58,5.58c0,2.53,1.69,4.67,4,5.35v4.5h-13.43c-0.68-2.31-2.82-4-5.35-4
			c-3.08,0-5.58,2.5-5.58,5.58s2.5,5.58,5.58,5.58c2.53,0,4.67-1.69,5.35-4h32.07c2.12,2.83,4.61,5.6,7.45,8.3H117.1
			c-0.67-2.33-2.82-4.03-5.36-4.03c-3.08,0-5.58,2.5-5.58,5.58c0,3.08,2.5,5.58,5.58,5.58c2.52,0,4.65-1.68,5.34-3.97h28.75
			c1.59,1.34,3.26,2.66,5.02,3.96c1.44,1.06,2.95,2.11,4.51,3.14H130.5v7.77c-2.31,0.68-4,2.82-4,5.35c0,3.08,2.5,5.58,5.58,5.58
			c3.08,0,5.58-2.5,5.58-5.58c0-2.53-1.69-4.67-4-5.35v-4.61h26.74c4.04,2.4,8.4,4.7,13.03,6.88l1.57,0.73l1.57-0.73
			c4.64-2.18,8.99-4.47,13.03-6.88h26.74v4.61c-2.31,0.68-4,2.82-4,5.35c0,3.08,2.5,5.58,5.58,5.58s5.58-2.5,5.58-5.58
			c0-2.53-1.69-4.67-4-5.35v-7.77h-24.86c1.56-1.03,3.06-2.08,4.51-3.14c1.76-1.3,3.44-2.62,5.02-3.96h28.75
			c0.69,2.3,2.83,3.97,5.34,3.97c3.08,0,5.58-2.5,5.58-5.58s-2.5-5.58-5.58-5.58c-2.54,0-4.69,1.71-5.36,4.03h-25.21
			c2.84-2.7,5.33-5.47,7.45-8.3h32.07c0.68,2.31,2.82,4,5.35,4c3.08,0,5.58-2.5,5.58-5.58s-2.5-5.58-5.58-5.58
			c-2.53,0-4.67,1.69-5.35,4h-13.43v-4.5c2.31-0.68,4-2.82,4-5.35c0-3.08-2.5-5.58-5.58-5.58c-3.08,0-5.58,2.5-5.58,5.58
			c0,2.53,1.69,4.67,4,5.35v4.5h-13.28c4.13-6.4,7.1-13.88,8.86-22.32h12.15l3.72,3.77c-0.44,0.8-0.7,1.72-0.7,2.7
			c0,3.08,2.5,5.58,5.58,5.58s5.58-2.5,5.58-5.58c0-3.08-2.5-5.58-5.58-5.58c-0.95,0-1.85,0.24-2.64,0.66l-4.65-4.71h-12.88
			c0.34-2.04,0.62-4.13,0.83-6.28v0c0.09-0.87,0.16-1.74,0.22-2.61h14.68l9.2,5.4c-0.07,0.35-0.1,0.71-0.1,1.07
			C251.62,87.72,254.12,90.22,257.2,90.22z M252.77,63.35c1.34,0,2.42,1.09,2.42,2.42c0,1.34-1.09,2.42-2.42,2.42
			c-1.34,0-2.42-1.09-2.42-2.42S251.43,63.35,252.77,63.35z M244.56,50.48c1.34,0,2.42,1.09,2.42,2.42s-1.09,2.42-2.42,2.42
			c-1.34,0-2.42-1.09-2.42-2.42C242.13,51.57,243.22,50.48,244.56,50.48z M105.44,55.33c-1.34,0-2.42-1.09-2.42-2.42
			c0-1.34,1.09-2.42,2.42-2.42s2.42,1.09,2.42,2.42C107.87,54.24,106.78,55.33,105.44,55.33z M97.23,68.2
			c-1.34,0-2.42-1.09-2.42-2.42s1.09-2.42,2.42-2.42s2.42,1.09,2.42,2.42C99.66,67.11,98.57,68.2,97.23,68.2z M92.8,87.07
			c-1.34,0-2.42-1.09-2.42-2.42c0-1.34,1.09-2.42,2.42-2.42s2.42,1.09,2.42,2.42C95.22,85.98,94.13,87.07,92.8,87.07z M103.04,99.12
			c-1.34,0-2.42-1.09-2.42-2.42c0-1.34,1.09-2.42,2.42-2.42s2.42,1.09,2.42,2.42C105.46,98.03,104.38,99.12,103.04,99.12z
			 M115.37,102.7c0-1.34,1.09-2.42,2.42-2.42c1.34,0,2.42,1.09,2.42,2.42s-1.09,2.42-2.42,2.42
			C116.46,105.12,115.37,104.04,115.37,102.7z M97.44,116.55c-1.34,0-2.42-1.09-2.42-2.42c0-1.34,1.09-2.42,2.42-2.42
			s2.42,1.09,2.42,2.42C99.86,115.46,98.77,116.55,97.44,116.55z M111.74,127.98c-1.34,0-2.42-1.09-2.42-2.42
			c0-1.34,1.09-2.42,2.42-2.42c1.34,0,2.42,1.09,2.42,2.42C114.16,126.89,113.07,127.98,111.74,127.98z M134.51,147.39
			c0,1.34-1.09,2.42-2.42,2.42s-2.42-1.09-2.42-2.42c0-1.34,1.09-2.42,2.42-2.42S134.51,146.05,134.51,147.39z M220.34,147.39
			c0,1.34-1.09,2.42-2.42,2.42c-1.34,0-2.42-1.09-2.42-2.42c0-1.34,1.09-2.42,2.42-2.42C219.25,144.96,220.34,146.05,220.34,147.39z
			 M238.26,123.13c1.34,0,2.42,1.09,2.42,2.42c0,1.34-1.09,2.42-2.42,2.42c-1.34,0-2.42-1.09-2.42-2.42
			C235.84,124.22,236.93,123.13,238.26,123.13z M252.56,111.7c1.34,0,2.42,1.09,2.42,2.42c0,1.34-1.09,2.42-2.42,2.42
			c-1.34,0-2.42-1.09-2.42-2.42C250.14,112.79,251.23,111.7,252.56,111.7z M229.78,102.7c0-1.34,1.09-2.42,2.42-2.42
			c1.34,0,2.42,1.09,2.42,2.42s-1.09,2.42-2.42,2.42C230.87,105.12,229.78,104.04,229.78,102.7z M249.38,96.69
			c0,1.34-1.09,2.42-2.42,2.42c-1.34,0-2.42-1.09-2.42-2.42c0-1.34,1.09-2.42,2.42-2.42C248.3,94.27,249.38,95.36,249.38,96.69z
			 M220.29,80.07c-1.12,11.43-4.29,21.16-9.43,28.93c-3.72,5.63-9.13,11.07-16.09,16.19c-5.65,4.16-12.3,8.09-19.77,11.7
			c-7.48-3.61-14.12-7.54-19.77-11.7c-6.95-5.12-12.36-10.56-16.09-16.19c-5.14-7.76-8.31-17.5-9.43-28.93
			c-0.93-9.45-0.41-19.17,0.22-28.65c3.14-0.51,8.49-1.46,14.79-2.97c12.4-2.96,22.57-6.62,30.28-10.88
			c7.71,4.26,17.89,7.91,30.28,10.88c6.3,1.51,11.65,2.46,14.79,2.97C220.7,60.9,221.21,70.62,220.29,80.07z M257.2,82.22
			c1.34,0,2.42,1.09,2.42,2.42c0,1.34-1.09,2.42-2.42,2.42c-1.34,0-2.42-1.09-2.42-2.42C254.78,83.31,255.86,82.22,257.2,82.22z"/>
	</g>
</g>
</svg>
