<?xml version="1.0" encoding="utf-8"?>
<!-- Generator: Adobe Illustrator 27.8.1, SVG Export Plug-In . SVG Version: 6.00 Build 0)  -->
<svg version="1.1" id="Layer_1" xmlns="http://www.w3.org/2000/svg" xmlns:xlink="http://www.w3.org/1999/xlink" x="0px" y="0px"
	 viewBox="0 0 350 230" style="enable-background:new 0 0 350 230;" xml:space="preserve">
<style type="text/css">
	.st0{fill:#F8FFD9;}
	.st1{fill:#FEFFE6;}
	.st2{fill:#CFF7F9;}
	.st3{fill:#E5E3CA;}
	.st4{fill:#FAFFD7;}
	.st5{fill:#FFF4EB;}
	.st6{fill:#FFFAD9;}
	.st7{fill:#D9FFF8;}
	.st8{fill:#FFEED9;}
	.st9{fill:#B9E1EA;}
	.st10{fill:#D9FFDA;}
	.st11{fill:#E0FFD9;}
	.st12{fill:#004A63;}
	.st13{fill:#C2F9D9;}
	.st14{fill:#FFF4D9;}
	.st15{fill:#D7F6FF;}
	.st16{fill:#EAF4B5;}
	.st17{fill:#013586;}
	.st18{fill:#005868;}
	.st19{fill:#FF0087;}
	.st20{fill:#002F44;}
	.st21{fill:#FC9500;}
	.st22{fill:#003144;}
	.st23{fill:#00AAFF;}
	.st24{fill:#00FFE6;}
	.st25{fill:#F46CFF;}
	.st26{fill:#0043FF;}
	.st27{fill:#977D00;}
	.st28{fill-rule:evenodd;clip-rule:evenodd;fill:#5BB200;}
	.st29{fill-rule:evenodd;clip-rule:evenodd;fill:#747C04;}
	.st30{fill:#735500;}
	.st31{fill:#4D0600;}
	.st32{fill-rule:evenodd;clip-rule:evenodd;fill:#FF0074;}
	.st33{fill-rule:evenodd;clip-rule:evenodd;fill:#004972;}
	.st34{fill:#FFDB43;}
	.st35{fill:#34A853;}
	.st36{fill:#4285F4;}
	.st37{fill-rule:evenodd;clip-rule:evenodd;fill:#C2C700;}
	.st38{fill-rule:evenodd;clip-rule:evenodd;fill:#FF0062;}
	.st39{fill-rule:evenodd;clip-rule:evenodd;fill:#C44600;}
	.st40{fill:#02D3BE;}
	.st41{fill:#D3B900;}
	.st42{fill:#0055FF;}
	.st43{fill:#D17315;}
	.st44{fill:#9E580B;}
	.st45{fill:url(#SVGID_1_);}
	.st46{fill:#05ADFC;}
	.st47{fill:#F1F9C2;}
	.st48{fill-rule:evenodd;clip-rule:evenodd;fill:#282000;}
	.st49{fill:#414042;}
	.st50{fill:#002E96;}
	.st51{fill:#231F20;}
	.st52{fill:#FFE01A;}
	.st53{fill:#1C87AE;}
	.st54{fill-rule:evenodd;clip-rule:evenodd;fill:#231F20;}
	.st55{fill-rule:evenodd;clip-rule:evenodd;fill:#AE6219;}
	.st56{fill-rule:evenodd;clip-rule:evenodd;fill:#ED1B2D;}
	.st57{fill-rule:evenodd;clip-rule:evenodd;fill:#FFFFFF;}
	.st58{fill:#2581D1;}
	.st59{fill:#1581B7;}
	.st60{fill:#282828;}
	.st61{fill-rule:evenodd;clip-rule:evenodd;fill:#011F4B;}
	.st62{fill-rule:evenodd;clip-rule:evenodd;fill:#005B96;}
	.st63{fill-rule:evenodd;clip-rule:evenodd;fill:#00BFFF;}
	.st64{fill-rule:evenodd;clip-rule:evenodd;fill:#D3DEE4;}
	.st65{fill-rule:evenodd;clip-rule:evenodd;fill:#E3EDF1;}
	.st66{fill:#00235A;}
	.st67{fill:#003076;}
	.st68{fill:#AE6219;}
	.st69{fill:#00BDFF;}
	.st70{display:none;fill:url(#SVGID_00000150103147004863343940000011573210221619556792_);}
	.st71{fill:none;}
	.st72{fill:#011F4B;}
	.st73{fill:#FFFFFF;}
	.st74{fill-rule:evenodd;clip-rule:evenodd;fill:#F39C12;}
	.st75{fill-rule:evenodd;clip-rule:evenodd;fill:#1297E0;}
	.st76{fill-rule:evenodd;clip-rule:evenodd;fill:#CC7C09;}
	.st77{fill-rule:evenodd;clip-rule:evenodd;fill:#19B5FE;}
	.st78{fill:#EA3560;}
	.st79{fill:#C7E7FF;}
	.st80{fill:#002D4F;}
	.st81{fill:#3382D1;}
	.st82{fill:url(#SVGID_00000169529311018910951860000008915288959215646631_);}
	.st83{fill:#009F9A;}
	.st84{fill:#0074BA;}
	.st85{fill-rule:evenodd;clip-rule:evenodd;fill:#01305C;}
	.st86{fill-rule:evenodd;clip-rule:evenodd;fill:#FF0000;}
	.st87{fill:url(#SVGID_00000162314068586608985350000008307610169522948736_);}
	.st88{fill:#01253F;}
	.st89{fill:#0EC6CE;}
	.st90{fill:#F9FAFB;}
	.st91{fill:url(#SVGID_00000006698952057973962970000005531371704890789299_);}
	.st92{fill:#293D7F;}
	.st93{fill:url(#SVGID_00000183949545987600001080000016664157359840343430_);}
	.st94{fill:url(#SVGID_00000145016848138174332230000014991306529763622530_);}
	.st95{fill:url(#SVGID_00000176035185716766075920000013125843496680206983_);}
	.st96{fill:url(#SVGID_00000036966278834997397490000009069643978401213582_);}
	.st97{fill:url(#SVGID_00000108303761246584025970000001002765377717220003_);}
	.st98{fill-rule:evenodd;clip-rule:evenodd;fill:url(#SVGID_00000129177444692113545840000002440576703393483420_);}
	.st99{fill:#00007F;}
	.st100{fill-rule:evenodd;clip-rule:evenodd;fill:#009F9A;}
	.st101{fill-rule:evenodd;clip-rule:evenodd;fill:#004A63;}
	.st102{fill:url(#SVGID_00000028298991105170302190000015795129478091470735_);}
	.st103{opacity:0.33;fill:#FAFF9C;enable-background:new    ;}
	.st104{fill:url(#SVGID_00000014618544026557699770000014543660981208584352_);}
	.st105{opacity:0.2;fill:#00005E;enable-background:new    ;}
	.st106{fill:url(#SVGID_00000078735385007345685930000006105874392584960180_);}
	.st107{fill-rule:evenodd;clip-rule:evenodd;fill:#0074BA;}
	.st108{fill-rule:evenodd;clip-rule:evenodd;fill:url(#SVGID_00000128481869047479524450000005098458172533115026_);}
	.st109{fill:#7FFFB6;}
	.st110{fill:url(#Layer_2_00000154426467275583261360000015942168221685831337_);}
	.st111{fill-rule:evenodd;clip-rule:evenodd;fill:#00ADEE;}
	.st112{fill-rule:evenodd;clip-rule:evenodd;fill:#0094D9;}
	.st113{fill-rule:evenodd;clip-rule:evenodd;fill:#FF6600;}
	.st114{fill-rule:evenodd;clip-rule:evenodd;fill:#03274D;}
	.st115{fill:url(#SVGID_00000111882065676977640430000009185099346202111642_);}
	.st116{fill:#0087FF;}
	.st117{fill:url(#SVGID_00000124881960838409697050000006276938890310553019_);}
	.st118{fill:url(#SVGID_00000033344203820711045970000011728095090631810956_);}
	.st119{fill:#9635EE;}
	.st120{fill:url(#SVGID_00000134210974407408648360000009710666859927390889_);}
	.st121{fill:url(#SVGID_00000015338807623367407720000003103528914040198569_);}
	.st122{fill:#F7FAFB;}
	.st123{fill:url(#SVGID_00000057148540782717644360000016970643255839883657_);}
	.st124{fill:url(#SVGID_00000178905926150654930420000001811589103827714220_);}
	.st125{fill:#1B75FF;}
	.st126{fill:#0147B2;}
	.st127{fill:url(#SVGID_00000066510955069616565890000010783571087749075596_);}
	.st128{fill:url(#SVGID_00000009590091435453111730000012560832114185823385_);}
	.st129{fill:#092A38;}
	.st130{fill:#00A99D;}
	.st131{fill:url(#SVGID_00000021826850095254348870000015695337864560097925_);}
	.st132{fill:url(#SVGID_00000082365303519274707210000006472287531059357829_);}
	.st133{fill:url(#SVGID_00000020396826898978340710000001882744030124494270_);}
	.st134{fill:url(#SVGID_00000122710179935769664290000004876409448036025502_);}
	.st135{fill:url(#SVGID_00000142162471370762975110000004339315481070099370_);}
	.st136{fill-rule:evenodd;clip-rule:evenodd;fill:#C1C2C4;}
</style>
<g>
	<linearGradient id="SVGID_1_" gradientUnits="userSpaceOnUse" x1="123.7222" y1="93.4288" x2="226.2778" y2="93.4288">
		<stop  offset="0" style="stop-color:#0087FF"/>
		<stop  offset="1" style="stop-color:#9635EE"/>
	</linearGradient>
	<path class="st45" d="M123.74,84.55l-0.01-29.28c0.26-0.3,0.55-0.49,0.9-0.67l13.38-6.7l20.39-10.3l10.71-5.36
		c1.86-0.93,3.77-2.05,5.71-2.77c0.75,0.2,1.45,0.62,2.13,0.96l3.32,1.63l14.14,7.05l23.45,11.64l5.4,2.71
		c0.69,0.35,1.63,0.67,2.21,1.17c0.38,0.34,0.68,0.88,0.71,1.38c0.19,2.52,0.04,5.14,0.04,7.68v14.93l-0.01,17.34l0.01,7.4
		c0,1.25,0.08,2.55-0.03,3.81c-0.12,1.35-0.38,2.67-0.69,3.99c-1.66,7.21-5.39,14.15-10.21,19.76
		c-8.61,10.03-20.08,17.68-32.05,23.13l-8.25,3.36c-0.6-0.05-1.37-0.47-1.95-0.69l-4.66-1.89c-8.73-3.86-17.01-8.61-24.44-14.65
		c-3.41-2.77-6.71-5.81-9.54-9.19c-5.43-6.46-9.74-14.58-10.57-23.09c-0.14-1.43-0.11-2.9-0.11-4.34V97.3l-0.01-8.58L123.74,84.55z"
		/>
	<path class="st88" d="M198.12,77.35l0.22,0.05l0.04,11.66l-21.83,11.56c-0.12,0.04-0.05,0.03-0.2-0.04l-0.01-11.82L198.12,77.35z
		 M198.15,92.28c0.14-0.01,0.06-0.02,0.22,0.07l-0.02,11.98l-21.76,11.44c-0.17,0.04-0.09,0.04-0.25,0l-0.01-11.97L198.15,92.28z
		 M198.08,107.47c0.19-0.06,0.11-0.07,0.25,0l0.08,12.14l-21.76,11.76l-0.22,0.09c-0.03-0.05-0.07-0.09-0.09-0.14
		c-0.03-0.07,0-0.38,0-0.46v-1.39v-7.94v-1.58c0-0.22-0.05-0.58,0.01-0.79c0.04-0.17,0.1-0.16,0.24-0.23l10.06-5.4L198.08,107.47z"
		/>
	<path class="st89" d="M151.36,77.33l17.31,9.06l3.43,1.75c0.45,0.23,1.14,0.48,1.5,0.82l0.01,11.65c-0.7-0.22-1.38-0.61-2.03-0.95
		l-3.69-1.97l-12.15-6.49l-4.33-2.31c-0.09-0.35-0.04-0.75-0.05-1.11l-0.01-2.2V77.33L151.36,77.33z M151.4,92.06l22.19,11.81
		l0.05,11.96l-22.22-11.65L151.4,92.06z M151.36,107.26l22.28,11.73l0.04,12.41l-0.12,0.11l-22.2-11.72V107.26L151.36,107.26z
		 M152.33,74.68l7.72-3.45c0.87-0.36,1.78-0.85,2.68-1.1l2.93,1.43l6.19,3.04l1.97,0.97c0.37,0.19,0.75,0.43,1.14,0.54l12.32-6.05
		l10.25,4.72c-0.62,0.16-1.26,0.58-1.82,0.88l-2.92,1.53l-17.51,9.08c-0.07,0.04-0.22,0.12-0.3,0.1c-0.22-0.02-0.63-0.27-0.84-0.38
		l-2.29-1.19l-14.02-7.31l-3.37-1.77c-0.66-0.35-1.34-0.79-2.05-1.02L152.33,74.68z"/>
	<path class="st90" d="M154.33,62.66c0.34-0.01,0.69,0.03,1.02,0.14c0.58,0.21,0.98,0.67,1.21,1.23c0.22,0.54,0.22,1.13-0.04,1.66
		c-0.33,0.67-0.91,0.98-1.59,1.2c-0.41,0.01-0.8,0.02-1.18-0.16c-0.54-0.26-1.01-0.72-1.19-1.3c-0.17-0.52-0.09-1.22,0.17-1.7
		C153.08,63.1,153.66,62.84,154.33,62.66z M194.72,62.58c0.44-0.05,0.87-0.07,1.3,0.07c0.67,0.21,1.13,0.64,1.42,1.27
		c0.25,0.54,0.25,1.23,0.02,1.78c-0.32,0.77-0.93,1.23-1.68,1.53c-0.41,0.07-0.83,0.09-1.23-0.04c-0.59-0.21-1.16-0.7-1.4-1.28
		c-0.25-0.61-0.31-1.36-0.04-1.97C193.44,63.19,194.01,62.86,194.72,62.58z M186.01,56.93c0.8-0.12,1.57,0,2.29,0.38
		c0.74,0.39,1.26,1,1.49,1.79c0.26,0.9,0.22,1.9-0.26,2.72c-0.48,0.82-1.21,1.21-2.1,1.44c-0.68,0.09-1.38,0.04-2.02-0.24
		c-0.84-0.37-1.51-1.06-1.8-1.93c-0.26-0.77-0.2-1.69,0.15-2.42C184.24,57.72,185.04,57.24,186.01,56.93z M159.94,61.36
		c-0.15-0.54-0.23-1.05-0.15-1.61l0.02-0.14l0.04-0.27c0.14-0.79,0.71-1.54,1.39-1.96c1.09-0.68,2.03-0.54,3.19-0.24l0.41,0.27
		c0.76,0.49,1.27,1.22,1.47,2.1c0.2,0.9-0.04,1.77-0.54,2.53c-0.46,0.67-1.16,1.17-1.97,1.3c-0.93,0.16-2.02-0.01-2.76-0.59
		c-0.46-0.35-0.75-0.82-1.03-1.31C159.96,61.35,159.99,61.37,159.94,61.36z M169.76,54.34c0.39-0.67,0.48-1.35,1.02-1.97
		c0.94-1.1,2.39-1.9,3.86-1.98c1.83-0.11,3.17,0.68,4.48,1.86c0.95,1.33,1.43,2.65,1.16,4.32c-0.22,1.37-1.01,2.64-2.15,3.44
		c-0.64,0.46-1.37,0.76-2.15,0.9l-0.14,0.02c-1.48,0.25-2.91-0.09-4.12-0.98c-1.15-0.84-1.9-2.06-2.1-3.48
		C169.53,55.77,169.64,55.05,169.76,54.34z M218.71,94.72l-0.01,3.05c0,0.46,0.05,1.1-0.07,1.53c-0.04,0.14-0.28,0.41-0.37,0.54
		c-0.68,0.98-1.43,1.91-2.23,2.79c-3.73,4.09-9.43,6.13-14.85,6.39l-0.13-0.17l-0.01-3.7c0-0.14-0.06-0.95-0.01-1.04
		c0.01-0.03,2.75-0.33,5.38-1.16c3.65-1.16,7.09-3.12,9.92-5.71C217.18,96.44,217.94,95.56,218.71,94.72z M218.68,86.09
		c0.12,1.04,0.04,2.2,0.02,3.26c0,0.38,0.07,0.94-0.01,1.3c-0.12,0.5-1.45,2.14-1.79,2.57c-3.97,5.01-9.48,7.41-15.7,8.12
		c-0.09-0.04-0.12-0.1-0.18-0.18L201,96.24c0-0.07-0.04-0.14,0-0.2c0.07-0.09,1.26-0.22,1.45-0.25c1.88-0.32,3.61-0.82,5.38-1.53
		C212.19,92.54,215.64,89.59,218.68,86.09z M152.33,74.68c-0.43-0.16-1.21-0.4-1.53-0.72l2.26-1.33c2.96-1.77,5.9-3.35,9.17-4.51
		c6.68-2.37,13.72-2.79,20.62-1.31c4.84,1.03,9.3,3.05,13.64,5.4c0.95,0.51,2.07,1,2.86,1.72c-0.59,0.29-1.21,0.64-1.83,0.84
		l-10.25-4.72l-12.32,6.05c-0.39-0.12-0.77-0.35-1.14-0.54l-1.97-0.97l-6.19-3.04l-2.93-1.43c-0.9,0.25-1.81,0.73-2.68,1.1
		L152.33,74.68z M159.1,85.02c0.54-0.01,1.03,0.01,1.53,0.25c0.54,0.27,0.9,0.78,1.07,1.36c0.14,0.5,0.1,1.03-0.15,1.49
		c-0.38,0.67-0.9,0.98-1.62,1.21c-0.47,0.05-0.98,0.06-1.41-0.14c-0.57-0.27-1.04-0.77-1.23-1.37c-0.19-0.59-0.09-1.22,0.22-1.75
		C157.87,85.42,158.42,85.17,159.1,85.02z M190,84.94c0.43,0.03,0.83,0.05,1.22,0.25c0.56,0.27,0.98,0.79,1.14,1.4
		c0.16,0.61,0.03,1.26-0.31,1.78c-0.43,0.66-1.01,0.89-1.75,1.04c-0.46-0.02-0.91-0.06-1.32-0.3c-0.49-0.28-0.94-0.8-1.06-1.37
		c-0.13-0.62-0.03-1.32,0.35-1.84C188.7,85.28,189.29,85.07,190,84.94z M159.36,100.29c0.43,0.02,0.84,0.08,1.22,0.29
		c0.55,0.3,0.94,0.83,1.11,1.44c0.14,0.52,0.08,1.07-0.2,1.53c-0.41,0.71-0.99,1-1.77,1.19c-0.53-0.02-0.98-0.06-1.45-0.32
		c-0.5-0.28-0.97-0.82-1.08-1.4c-0.11-0.56,0.02-1.14,0.33-1.61C157.98,100.71,158.6,100.46,159.36,100.29z M189.73,100.29
		c0.42-0.01,0.82,0,1.22,0.13c0.56,0.19,1.02,0.6,1.27,1.14c0.26,0.56,0.22,1.28-0.03,1.84c-0.33,0.71-0.9,1.06-1.62,1.31
		c-0.54,0.08-1.14,0.05-1.61-0.22c-0.51-0.29-0.93-0.8-1.09-1.37c-0.14-0.56-0.09-1.25,0.22-1.75
		C188.49,100.72,189.04,100.47,189.73,100.29z M189.82,115.38c0.5-0.01,0.93-0.04,1.4,0.19c0.59,0.28,1.04,0.88,1.22,1.5
		c0.16,0.54,0.04,1.2-0.25,1.68c-0.38,0.62-0.93,0.93-1.62,1.12c-0.5,0.04-0.97,0.05-1.43-0.18c-0.53-0.27-1.01-0.8-1.19-1.37
		c-0.17-0.54-0.12-1.2,0.15-1.69C188.48,115.94,189.1,115.62,189.82,115.38z M159.13,115.21c0.45-0.07,0.92-0.07,1.35,0.09
		c0.56,0.2,1.03,0.64,1.27,1.18c0.23,0.51,0.23,1.06,0.04,1.58c-0.28,0.75-0.86,1.13-1.55,1.44c-0.4,0.03-0.85,0.09-1.24-0.03
		c-0.6-0.18-1.11-0.61-1.37-1.18c-0.25-0.54-0.29-1.18-0.07-1.74C157.85,115.84,158.46,115.48,159.13,115.21z M131.11,102.53
		c0.81,1.16,1.71,2.26,2.73,3.23c0.37,0.35,0.77,0.67,1.16,0.98c0.1,0.08,0.36,0.24,0.43,0.33c0.04,0.07,0.05,0.35,0.06,0.44
		l0.15,1.6c0.18,1.55,0.56,3.12,1.1,4.58c1.95,5.35,5.79,9.92,9.87,13.82c5.4,5.16,11.44,9.39,17.95,13.03
		c3.36,1.88,6.81,3.45,10.3,5.07c0.38-0.02,0.78-0.24,1.13-0.38l2.41-1.07c6.51-2.97,12.73-6.79,18.37-11.18
		c2.16-1.69,4.28-3.42,6.24-5.35c3.33-3.28,6.19-6.76,8.51-10.81c0.94-1.64,1.86-3.41,2.31-5.27c0.35-1.41,0.38-2.87,0.38-4.32
		c1.66-1.01,3.09-2.58,4.45-3.94l-0.04,4.68c-0.14,2.1-0.44,4.15-1.17,6.13c-1.12,3.04-2.85,5.93-4.72,8.56
		c-4.05,5.7-8.98,10.29-14.55,14.46c-4.12,3.08-8.46,5.84-12.99,8.26c-3.33,1.78-6.82,3.22-10.24,4.8l-9.92-4.67
		c-4.51-2.32-8.87-5.07-12.97-8.06c-3.52-2.57-6.94-5.35-10-8.47c-5.02-5.17-9.31-11.39-10.55-18.61
		C131.07,107.77,131.07,105.17,131.11,102.53z M131.11,78.88c0.07-0.61,0.01-1.29,0.01-1.91v-4V59.58l43.69-21.75
		c0.06-0.01,0.11-0.04,0.17-0.04c0.19,0,0.8,0.38,1,0.47l4.89,2.45l21.34,10.45l9.12,4.46l3.67,1.76c1.14,0.74,2.56,1.27,3.8,1.89
		l-0.03,18.03l-0.01,3.42c0,0.27,0.07,0.8,0,1.05c-0.05,0.17-0.26,0.42-0.36,0.57l-1.09,1.58c-3.02,4.14-7.12,7.16-12.04,8.61
		c-1.38,0.41-2.79,0.63-4.2,0.85l-0.02-5.37c4.54-0.79,8.77-2.52,12.1-5.8c0.33-0.32,1.24-1.17,1.32-1.61
		c0.08-0.42,0.01-1,0.01-1.43v-3.6V61.98l-13.72-6.76l-5.58-2.74c-0.82-0.4-1.67-0.92-2.52-1.22l-0.14-0.05
		c-1.32-0.87-2.93-1.45-4.34-2.16l-13.29-6.5l-39.52,19.46l0.02,14.82c-0.02,1.9-0.38,4.2,1.09,5.69c0.77,0.79,1.82,1.28,2.78,1.79
		c3.05,1.61,6.37,2.97,9.69,3.93l-0.04,5.34c-0.51,0.02-1.45-0.4-1.97-0.56c-2.34-0.73-4.58-1.61-6.79-2.68
		c-1.77-0.87-3.52-1.86-4.97-3.2c-1.69-1.54-3.16-3.49-3.74-5.74C131.22,80.57,131.17,79.73,131.11,78.88z"/>
</g>
</svg>
