<?xml version="1.0" encoding="utf-8"?>
<!-- Generator: Adobe Illustrator 27.8.1, SVG Export Plug-In . SVG Version: 6.00 Build 0)  -->
<svg version="1.1" xmlns="http://www.w3.org/2000/svg" xmlns:xlink="http://www.w3.org/1999/xlink" x="0px" y="0px"
	 viewBox="0 0 350 230" style="enable-background:new 0 0 350 230;" xml:space="preserve">
<style type="text/css">
	.st0{fill-rule:evenodd;clip-rule:evenodd;fill:#A6D63C;}
	.st1{fill-rule:evenodd;clip-rule:evenodd;fill:#00A0D1;}
	.st2{fill:#421C00;}
	.st3{fill-rule:evenodd;clip-rule:evenodd;fill:#FFFFFF;}
	.st4{fill:#699AE2;}
	.st5{fill:#3B7DC4;}
	.st6{fill:#AF7500;}
	.st7{fill:#FFDF00;}
	.st8{fill:#1A0256;}
	.st9{fill:#00594F;}
	.st10{fill:#00779B;}
	.st11{fill:#0074FF;}
	.st12{fill:#194A91;}
	.st13{fill-rule:evenodd;clip-rule:evenodd;fill:#EFEFEF;}
	.st14{fill:#044159;}
	.st15{fill:#4C2900;}
	.st16{fill:#FFFFFF;}
	.st17{fill:#FFB41F;}
	.st18{fill:#FF5A00;}
	.st19{fill:#680404;}
	.st20{fill:#03AA6F;}
	.st21{fill:#FB5968;}
	.st22{fill:#FFD24A;}
	.st23{fill:#055EBC;}
	.st24{fill:#6F6F6F;}
	.st25{fill:#454545;}
	.st26{fill:#BA1A00;}
	.st27{fill:#0071BC;}
	.st28{fill:none;stroke:#FFFFFF;stroke-width:2;stroke-miterlimit:10;}
	.st29{fill:#3D3600;}
	.st30{fill:#5B4E03;}
	.st31{fill:#685900;}
	.st32{fill:none;stroke:#2E8EFF;stroke-width:2;stroke-linecap:round;stroke-miterlimit:10;}
	.st33{fill:none;stroke:#3D3600;stroke-width:2;stroke-linecap:round;stroke-miterlimit:10;}
	.st34{fill:#6F0393;}
	.st35{fill:none;}
	.st36{fill:#96D7FF;}
	.st37{fill:#0C5100;}
	.st38{fill:#FFE856;}
	.st39{fill:#803971;}
	.st40{fill:#D3CECD;}
	.st41{fill:#4C241D;}
	.st42{fill:#EA3200;stroke:#4C241D;stroke-linecap:round;stroke-linejoin:round;stroke-miterlimit:50;}
	.st43{fill:#11930A;stroke:#4C241D;stroke-linecap:round;stroke-linejoin:round;stroke-miterlimit:50;}
	.st44{fill:#3792CF;}
	.st45{fill:#FEE36F;}
	.st46{fill:#136296;}
	.st47{fill:#EFE1CA;}
	.st48{fill:#E1F9B2;}
	.st49{fill:#F5F7B2;}
	.st50{fill:#F7EDB2;}
	.st51{fill:#FCF5EB;}
	.st52{fill:#DEFCF0;}
	.st53{fill:#53C2BA;}
	.st54{fill:#6D6D00;}
	.st55{fill:#001087;}
	.st56{fill:#F19333;}
	.st57{fill:#1554A1;}
	.st58{fill:#8E0000;}
	.st59{fill:#C46B02;}
	.st60{fill:#FFD662;}
	.st61{fill:#01539D;}
	.st62{fill:#007777;}
	.st63{fill:#3CAF47;}
	.st64{fill:#31575B;}
	.st65{fill:#7BBBFF;}
	.st66{fill:#513800;}
	.st67{fill:#009D5A;}
	.st68{fill:#C9A37C;}
	.st69{fill:#DB504A;}
	.st70{fill:#084C61;}
	.st71{opacity:0.3;fill:#BCBEC0;enable-background:new    ;}
	.st72{fill:#069A8E;}
	.st73{fill:#0A4D68;}
	.st74{fill:#190707;}
	.st75{fill:#39B54A;}
	.st76{fill:#01A9DB;}
	.st77{fill:#DF7401;}
	.st78{fill:#0F0F4F;}
	.st79{fill:#232365;}
	.st80{fill:#2169AA;}
	.st81{fill:#00828C;}
	.st82{fill:#00A4BA;}
	.st83{fill:#007CC1;}
	.st84{fill:#FF0000;}
	.st85{fill:#313341;}
	.st86{fill:#C9C9C9;}
	.st87{fill:#0C3F00;}
	.st88{fill:#00153A;}
	.st89{fill:#056168;}
	.st90{fill:#08E8FF;}
	.st91{fill:#00B7FF;}
	.st92{fill:#590060;}
	.st93{fill:#FF78DC;}
	.st94{fill-rule:evenodd;clip-rule:evenodd;fill:#00B6E8;}
	.st95{fill-rule:evenodd;clip-rule:evenodd;fill:#8DD7F7;}
	.st96{fill-rule:evenodd;clip-rule:evenodd;fill:#54A175;}
	.st97{fill-rule:evenodd;clip-rule:evenodd;fill:url(#SVGID_1_);}
	.st98{fill-rule:evenodd;clip-rule:evenodd;fill:#0094D9;}
	.st99{fill-rule:evenodd;clip-rule:evenodd;fill:#0081BE;}
	.st100{fill-rule:evenodd;clip-rule:evenodd;fill:#E7913C;}
	.st101{fill-rule:evenodd;clip-rule:evenodd;fill:#00ADEE;}
	.st102{fill-rule:evenodd;clip-rule:evenodd;fill:#9AD2AD;}
	.st103{fill:url(#SVGID_00000163071077600782478770000004425072358008711317_);}
	.st104{fill:url(#SVGID_00000041986605265734323280000002622476109233993390_);}
	.st105{fill:#1279F9;}
	.st106{fill:#00A8CE;}
	.st107{opacity:0.51;}
	.st108{fill:url(#SVGID_00000181787974456947978200000000845019505845715328_);}
	.st109{enable-background:new    ;}
	.st110{clip-path:url(#SVGID_00000078763681192664818850000018150589809004629649_);}
	
		.st111{fill:none;stroke:#00DAF9;stroke-width:2;stroke-linecap:round;stroke-linejoin:round;stroke-miterlimit:10;stroke-dasharray:4.4092,4.4092;}
	.st112{fill:#FF7D5B;}
	.st113{opacity:0.7;}
	.st114{fill:url(#SVGID_00000088128640650293141530000013673887718271184270_);}
	.st115{fill:#FF603D;}
	.st116{fill:url(#SVGID_00000142878086530373979180000009740536455041445280_);}
	.st117{fill:url(#SVGID_00000018237740718114555030000011253466695245272767_);}
	.st118{fill:url(#SVGID_00000178899197483241310940000012460658854486124454_);}
	.st119{fill:url(#SVGID_00000104664424391315815060000012692355425945859731_);}
	.st120{fill:url(#SVGID_00000031177159821031874160000006193650671875419532_);}
	.st121{fill:url(#SVGID_00000065061909560099085690000017117651016198157723_);}
	.st122{fill:#142445;}
	.st123{fill:#1C97DA;}
	.st124{fill:#136B9B;}
	.st125{fill:#4E9834;}
	.st126{fill:#7EB436;}
	.st127{fill:#006D2F;}
	.st128{fill:#A07227;}
	.st129{fill:#C1C1C1;}
	.st130{fill:#F98D21;}
	.st131{fill:#4663AF;}
	.st132{fill:#0786A3;}
	.st133{fill:#EB9358;}
	.st134{fill-rule:evenodd;clip-rule:evenodd;fill:url(#SVGID_00000112616382852682577200000012854965003194197641_);}
	.st135{fill-rule:evenodd;clip-rule:evenodd;fill:#B1BCE0;}
	.st136{fill:url(#SVGID_00000075158598114387791780000003266477006840090264_);}
	.st137{fill:#153852;}
	.st138{fill:#327798;}
	.st139{fill:#3A39FF;}
	.st140{fill:#ADE6ED;}
	.st141{fill:#FF0043;}
	.st142{fill:#EAE5E7;}
	.st143{fill:#EFE9E4;}
	.st144{fill:#649936;}
	.st145{fill:#26313D;}
	.st146{fill:#C1B6AA;}
	.st147{fill:#B20443;}
	.st148{fill:#EEF1FC;}
	.st149{fill:#E2B629;}
	.st150{fill:#FFF2DC;}
	.st151{fill:#7A542A;}
	.st152{fill:#B2B2B2;}
</style>
<g id="Layer_1">
</g>
<g id="Layer_2">
</g>
<g id="Layer_3">
</g>
<g id="Layer_4">
</g>
<g id="Layer_5">
</g>
<g id="Layer_6">
</g>
<g id="Layer_7">
</g>
<g id="Layer_8">
</g>
<g id="Layer_9">
</g>
<g id="Layer_10">
</g>
<g id="Layer_11">
</g>
<g id="Layer_12">
</g>
<g id="Layer_13">
</g>
<g id="Layer_14">
</g>
<g id="Layer_15">
	<g>
		<path class="st142" d="M214.94,41.49c0.02,0.02,0.03,0.04,0.03,0.06h0.01C214.97,41.53,214.96,41.51,214.94,41.49z M191.18,60.5
			l-0.09-0.52l-0.13-0.81c-1.5,0.27-3.02,0.54-4.56,0.83c-3.01,0.54-6.04,1.08-8.97,1.62c0.02,0.02,0.03,0.04,0.04,0.06
			c0.08,0.09,0.17,0.16,0.25,0.23c0.07,0.06,0.15,0.11,0.23,0.16c0.44,0.26,1.07,0.42,1.64,0.47c0.53,0.04,1.59,0,2.77-0.07
			l0.16,1.01l7.4-1.19c0.08-0.01,0.15-0.03,0.23-0.06c0.3-0.1,0.57-0.3,0.78-0.57C191.16,61.31,191.24,60.89,191.18,60.5z
			 M205.87,57.44l-0.16-0.96c-0.36,0.07-0.74,0.14-1.13,0.21c-3.35,0.61-7.58,1.37-12.12,2.2c0.36,0.26,0.91,0.44,1.44,0.53
			c0.13,0.02,0.25,0.04,0.36,0.05c0.53,0.04,1.6,0,2.77-0.07l0.17,1.01l7.39-1.19c0.38-0.07,0.76-0.29,1-0.63
			S205.93,57.84,205.87,57.44z M192.46,58.89c-0.72-0.5-0.75-1.27,1.32-2.08c0.85-0.34,1.78-0.59,2.7-0.8l-0.21-1.29l1.48-0.24
			l5.05-0.83c-0.55-0.35-1.1-0.64-1.48-0.8c-0.95-0.37-22.44,1.82-37.8,3.46c-0.67,0.07-1.34,0.14-1.98,0.21
			c-7.68,0.82-13.38,1.45-13.38,1.45c-0.11,0.12-0.09,0.24,0.04,0.35c0.35,0.34,1.53,0.69,3.22,1.04l0.48,0.35l0.89,0.67l1.3,5.03
			c0.93-0.04,1.88-0.11,2.86-0.23c0.43-0.05,2.09-0.33,4.59-0.77c0.61-0.11,1.27-0.23,1.98-0.34c0.93-0.17,1.93-0.34,3-0.53V61.5
			c0.53,0.06,1.04,0.11,1.56,0.16c2.42,0.26,4.56,0.44,6.02,0.55c0.63,0.05,1.14,0.08,1.49,0.09c0.74-0.07,1.51-0.16,2.3-0.24
			c0.02-0.01,0.04-0.01,0.06-0.01c3.16-0.37,6.62-0.91,9.96-1.49c1.07-0.2,2.14-0.39,3.18-0.59c0.96-0.18,1.9-0.36,2.81-0.55
			c4.5-0.9,8.18-1.76,9.71-2.24c0.44-0.14,0.77-0.3,0.98-0.49C201.23,57.31,197,58.07,192.46,58.89z M186.4,60
			c-3.01,0.54-6.04,1.08-8.97,1.62c-0.31-0.47,0-1.09,1.67-1.74c0.12-0.05,0.25-0.1,0.37-0.14c0.74-0.27,1.54-0.48,2.32-0.66
			l-0.21-1.29l1.49-0.24l6-0.99c0.36-0.05,0.76,0.03,1.07,0.26c0.33,0.25,0.53,0.58,0.59,0.96l0.23,1.4
			C189.47,59.43,187.94,59.71,186.4,60z M139.65,50.62l-14.72-0.11l-3.07-0.02l-8.97,1.59l14.63,1.83l0.16,0.02l15.96-2.88
			L139.65,50.62z M220.5,43.47l1.58,6.52c0.71-0.64,1.27-1.24,1.6-1.73C224.98,46.33,222.92,44.41,220.5,43.47z M220.49,43.49
			c-0.25-0.1-0.5-0.18-0.75-0.26c-2.7-0.8-4.76-1.65-4.76-1.65s-0.01-0.01-0.01-0.04h-0.01l-6.99,1.1l-0.31-1.56l5.89-0.89
			c0.67,0.4,1.05,0.82,1.26,1.1c-0.4-0.61-1.77-2.1-5.68-2.34c-4.95-0.31-11.64,1.41-11.64,1.41s-19.73,3.89-33.98,6.76
			c-0.68,0.14-1.34,0.28-1.98,0.41c-5.53,1.11-9.96,2.02-11.67,2.41c-0.81,0.18-1.57,0.29-2.27,0.34c-0.47,0.04-0.93,0.04-1.35,0.03
			c-0.74-0.02-1.4-0.12-1.98-0.26c-2.29-0.5-3.4-1.62-3.4-1.62l-8.18-7.36L119.4,43.3l5.53,7.21l0.85,1.11l1.74,2.29l0.36,0.48
			l2.39,3.16l3.11,2.18l0.54,0.37l1.56,1.09l1.59,1.1c0,0,2.5,1.28,6.68,2.22c0.18,0.04,0.35,0.08,0.53,0.12
			c0.43,0.09,0.89,0.18,1.35,0.26c0.21,0.04,0.41,0.07,0.63,0.11c0.24,0.03,0.47,0.07,0.72,0.11H147c1.14,0.15,2.35,0.27,3.65,0.33
			h0.01c0.27,0.01,0.53,0.02,0.8,0.03c0.86,0.01,1.73,0.01,2.65-0.03c0.93-0.04,1.88-0.11,2.86-0.23c0.43-0.05,2.09-0.33,4.59-0.77
			c0.61-0.11,1.27-0.23,1.98-0.34c0.93-0.17,1.93-0.34,3-0.53c0.5-0.09,1.02-0.18,1.56-0.28c1.87-0.34,3.89-0.69,6.02-1.07
			c1.07-0.2,2.18-0.4,3.3-0.59c0.02,0.02,0.04,0.04,0.07,0.05c-0.01-0.02-0.02-0.04-0.04-0.06c-0.31-0.47,0-1.09,1.67-1.74
			c0.12-0.05,0.25-0.1,0.37-0.14c0.74-0.27,1.54-0.48,2.32-0.66l-0.21-1.29l1.49-0.24l6-0.99c0.36-0.05,0.76,0.03,1.07,0.26
			c0.33,0.25,0.53,0.58,0.59,0.96l0.23,1.4c0.5-0.1,1.01-0.19,1.5-0.28c-0.72-0.5-0.75-1.27,1.32-2.08c0.85-0.34,1.78-0.59,2.7-0.8
			l-0.21-1.29l1.48-0.24l5.05-0.83l0.95-0.16c0.36-0.05,0.76,0.03,1.08,0.27c0.33,0.24,0.52,0.57,0.58,0.95l0.3,1.77
			c2.89-0.51,4.99-0.9,5.87-1.04c3.96-0.7,8.12-3.29,10.48-5.43L220.49,43.49z M199.76,46.63l0.58-0.1
			c0.43-0.07,0.84,0.23,0.91,0.65l0.1,0.59c0.08,0.42-0.22,0.84-0.65,0.91l-0.58,0.1c-0.43,0.07-0.84-0.23-0.92-0.66l-0.09-0.57
			C199.03,47.11,199.33,46.69,199.76,46.63z M196.39,47.14l0.59-0.11c0.42-0.06,0.84,0.23,0.91,0.66l0.09,0.58
			c0.08,0.42-0.22,0.84-0.65,0.91l-0.58,0.1c-0.42,0.07-0.84-0.23-0.91-0.65l-0.1-0.58C195.67,47.61,195.96,47.21,196.39,47.14z
			 M193.02,47.73l0.58-0.1c0.42-0.07,0.84,0.22,0.91,0.65l0.1,0.58c0.07,0.43-0.23,0.85-0.65,0.92l-0.58,0.09
			c-0.43,0.08-0.85-0.22-0.91-0.65l-0.1-0.57C192.29,48.21,192.59,47.8,193.02,47.73z M189.74,48.25l0.58-0.1
			c0.43-0.07,0.84,0.22,0.91,0.65l0.1,0.58c0.07,0.43-0.23,0.84-0.65,0.92l-0.58,0.1c-0.42,0.07-0.84-0.23-0.91-0.66l-0.1-0.58
			C189.02,48.73,189.31,48.32,189.74,48.25z M186.48,48.79l0.59-0.09c0.42-0.08,0.84,0.22,0.91,0.65l0.1,0.58
			c0.07,0.42-0.23,0.84-0.65,0.91l-0.58,0.1c-0.43,0.07-0.84-0.23-0.92-0.65l-0.1-0.58C185.76,49.28,186.06,48.87,186.48,48.79z
			 M183.22,49.34l0.58-0.09c0.43-0.08,0.84,0.22,0.91,0.65l0.1,0.58c0.07,0.42-0.22,0.84-0.64,0.91l-0.59,0.1
			c-0.42,0.07-0.84-0.22-0.91-0.65l-0.1-0.58C182.5,49.82,182.79,49.41,183.22,49.34z M179.8,49.93l0.58-0.1
			c0.43-0.07,0.84,0.22,0.92,0.65l0.09,0.58c0.08,0.42-0.22,0.84-0.65,0.92l-0.58,0.09c-0.42,0.08-0.84-0.22-0.91-0.65l-0.1-0.58
			C179.08,50.41,179.37,50,179.8,49.93z M176.19,50.47l0.58-0.1c0.42-0.07,0.85,0.23,0.91,0.65l0.1,0.58
			c0.07,0.43-0.22,0.84-0.65,0.92l-0.58,0.1c-0.43,0.07-0.84-0.23-0.91-0.65l-0.1-0.59C175.48,50.95,175.76,50.55,176.19,50.47z
			 M122.18,31.63h-10.1l4.68,7.31l11.5-1.83L122.18,31.63z"/>
		<path class="st143" d="M225.87,155.01c0,3.36-23.82,6.08-53.2,6.08s-53.2-2.72-53.2-6.08s23.82-6.08,53.2-6.08
			S225.87,151.65,225.87,155.01z"/>
		<path class="st144" d="M226.91,87.64c0,0-5.54,1.8-8.87,6.34c0,0,2.27-0.81,9.57-1.32c0,0,6.55-0.37,6.31-3.54
			C233.91,89.12,233.98,85.42,226.91,87.64z M209.96,83.47c0,0-3.39-2.34-5.66,5.58c0,0-1.71,6.24,0.44,12.09
			c0,0,0.64-2.59,4.63-9.66C209.38,91.48,213.04,85.18,209.96,83.47z M225.24,98.92c-1.67-3.1-8.01,0.49-8.01,0.49
			c-7.11,3.91-9.71,4.52-9.71,4.52c5.82,2.22,12.08,0.57,12.08,0.57C227.55,102.33,225.24,98.92,225.24,98.92z M226.38,111.76
			c-0.51-4.34-9.44-3.06-9.44-3.06c-9.95,1.27-13.22,0.8-13.22,0.8c5.7,5.19,13.65,6.14,13.65,6.14
			C227.48,116.73,226.38,111.76,226.38,111.76z M197.26,82.26c0,0-4.96-1.16-3.99,8.98c0,0,0.85,7.95,5.98,13.72
			c0,0-0.43-3.27,0.96-13.22C200.21,91.73,201.59,82.83,197.26,82.26z M192.28,107.49c-0.62-2.18-1.46-5.64-2.37-10.86
			c0,0-1.57-9.74-6.26-8.88c0,0-5.56,0.46-1.13,10.69c0,0,3.21,7.2,9.76,11.6c0.34,0.23,0.71,0.45,1.07,0.67
			C193.32,110.61,192.9,109.7,192.28,107.49z M211.75,118.28c-10.53-1.63-13.94-3.06-14.15-3.14c4.42,7.17,12.49,10.57,12.49,10.57
			c10.32,4.2,10.66-1.36,10.66-1.36C221.53,119.64,211.75,118.28,211.75,118.28z M205.39,127.77c-9.99-4.58-12.75-6.92-12.75-6.92
			c2.29,8.13,9.12,13.61,9.12,13.61c8.77,6.88,10.63,1.62,10.63,1.62C214.42,131.76,205.39,127.77,205.39,127.77z M180.76,103.13
			c0,0-0.21-0.45-0.57-1.12c-1.28-2.34-4.5-7.38-7.83-5.76c0,0-5.23,1.93,1.76,10.61c0,0,2.29,2.77,6.07,5.34
			c2.13,1.44,4.72,2.81,7.66,3.6C187.84,115.79,185.48,113.06,180.76,103.13z M180.18,117.82c-1.87-1.05-4.31-2.52-7.38-4.55
			c0,0-2.23-1.51-4.72-2.38c-0.51-0.18-1.03-0.33-1.56-0.43c-1.79-0.37-3.53-0.2-4.48,1.29c0,0-2.88,3.6,4.48,7.11
			c0.47,0.22,1,0.44,1.56,0.66c0.31,0.13,0.63,0.26,0.97,0.37c0,0,5.05,1.77,11.13,1.41c1.69-0.1,3.47-0.37,5.23-0.89
			C185.42,120.41,183.9,119.92,180.18,117.82z M193.16,142.59c0,0.01-0.01,0.02-0.01,0.02C193.16,142.6,193.16,142.6,193.16,142.59
			L193.16,142.59z M196.08,136.63c-0.57,0.26-0.94,0.49-0.94,0.49c-3.22,2.08-2.8,4.79-2.67,5.36c0.23,0.03,0.45,0.07,0.69,0.11
			c0.15-0.31,1.33-2.53,3.83-4.28C196.66,137.66,196.33,137.08,196.08,136.63z M198.03,140.83c-0.65,0.3-1.03,0.51-1.03,0.51
			c-0.52,0.3-0.62-0.06-0.62-0.06c-0.12-0.19,0.32-0.43,0.32-0.43c0.38-0.23,0.76-0.46,1.11-0.69c-0.23-0.6-0.48-1.17-0.74-1.7
			c-1,0.86-2.53,2.3-3.89,4.14c0.41,0.07,0.84,0.16,1.26,0.26c0,0-0.79-0.08-2.09-0.07h-0.06v-12.14c-3.25-5.38-3.94-7.51-3.94-7.51
			c-2.35,8.11,0.55,16.38,0.55,16.38c0.39,1.07,0.79,1.99,1.18,2.79c0.1,0.2,0.2,0.38,0.3,0.56c0.33,0.62,0.66,1.15,0.99,1.61
			c0.28,0.38,0.55,0.71,0.81,1c0.33,0.34,0.63,0.6,0.94,0.82c-0.13-0.9-0.18-1.92-0.07-3.01c0,0,0.03,1.34,0.36,3.21
			c0.47,0.29,0.93,0.45,1.34,0.52c0-0.01-0.01-0.02-0.01-0.02c-0.71-0.72-0.05-0.64-0.05-0.64c0.33,0.05,0.71,0.32,1.07,0.67
			c0.82-0.12,1.31-0.51,1.31-0.51c0.6-0.39,1-0.91,1.21-1.51c0.02-0.03,0.03-0.07,0.04-0.11c0.09-0.25,0.15-0.51,0.17-0.79
			c-2.94-0.79-4.9-1.11-5.38-1.19c1.89,0.18,3.69,0.47,5.41,0.85c0.01-0.12,0.01-0.23,0.01-0.34c0-0.01,0-0.01,0-0.02
			C198.5,142.56,198.31,141.69,198.03,140.83z M192.28,114.65c-8.7,10.47-11.68,19.54-11.82,19.99c3.34-6.62,7.5-12.54,11.82-17.7
			c11.94-14.27,25.12-22.55,25.67-22.9C206.32,100.14,198.05,107.7,192.28,114.65z"/>
		<path class="st144" d="M193.16,142.59c0,0.01-0.01,0.02-0.01,0.02C193.16,142.6,193.16,142.6,193.16,142.59L193.16,142.59z
			 M193.16,142.59c0,0.01-0.01,0.02-0.01,0.02C193.16,142.6,193.16,142.6,193.16,142.59L193.16,142.59z M193.16,142.59
			c0,0.01-0.01,0.02-0.01,0.02C193.16,142.6,193.16,142.6,193.16,142.59L193.16,142.59z M217.08,151.06
			c-0.52-3.23-2.86-5.03-2.86-5.03c-3.05-1.62-6.49-1.42-6.49-1.42c-2.96,0.03-2.98-0.86-2.98-0.86c0.31-0.72,3.34-0.77,3.34-0.77
			c2.25,0.01,2.41-0.89,2.41-0.89c0.13-0.41-0.33-0.87-0.33-0.87c-3.72-3.68-9.74-1.5-12.15-0.39c-0.65,0.3-1.03,0.51-1.03,0.51
			c-0.52,0.3-0.62-0.06-0.62-0.06c-0.12-0.19,0.32-0.43,0.32-0.43c0.38-0.23,0.76-0.46,1.11-0.69c1.85-1.19,3.15-2.3,3.15-2.3
			c0.87-0.97-0.46-1.58-0.46-1.58c-1.58-0.68-3.36-0.13-4.41,0.34c-0.57,0.26-0.94,0.49-0.94,0.49c-3.22,2.08-2.8,4.79-2.67,5.36
			c0.23,0.03,0.45,0.07,0.69,0.11c0.15-0.31,1.33-2.53,3.83-4.28c0.34-0.25,0.7-0.48,1.09-0.69c-0.11,0.08-0.48,0.36-1.02,0.83
			c-1,0.86-2.53,2.3-3.89,4.14c0.41,0.07,0.84,0.16,1.26,0.26c0,0-0.79-0.08-2.09-0.07c-0.02,0.03-0.05,0.05-0.06,0.08
			c-0.42,0.53-0.72,1.06-0.93,1.61c-0.44,1.19-0.4,2.38-0.09,3.53c0.13,0.45,0.3,0.91,0.5,1.34c1.41,3.02,4.36,5.33,4.36,5.33
			c1.26,1,1.43-0.16,1.43-0.16c0.21-1.86-0.37-3.6-1.06-4.93c-0.74-1.45-1.61-2.42-1.76-2.58c0-0.01-0.01-0.02-0.01-0.02
			c-0.71-0.72-0.05-0.64-0.05-0.64c0.33,0.05,0.71,0.32,1.07,0.67c1.01,0.96,1.97,2.6,1.97,2.6c0.01,0.01,0.01,0.03,0.02,0.04
			c4.89,8.98,9.04,7.08,9.04,7.08c1.38-0.62,0.06-2.05,0.06-2.05c-1.76-2.18-2.71-3.65-3.2-4.62c-0.85-1.65-0.42-1.94-0.42-1.94
			c0.35-0.28,1.13,0.63,1.13,0.63c0.44,0.53,0.87,1.03,1.26,1.49c2.89,3.26,4.59,4.47,4.59,4.47c1.87,1.48,6.02-1.73,6.02-1.73
			c0.55-0.39,0.76-0.93,0.83-1.32C217.12,151.31,217.08,151.06,217.08,151.06z M206.25,140.55c0,0-3.67,0.67-7.72,2.85
			c-0.03,0.01-0.06,0.03-0.09,0.04c0.03-0.02,0.05-0.04,0.09-0.06C199.23,142.85,202.5,140.63,206.25,140.55z M194.11,149.44
			c0.08,0.26,0.17,0.5,0.25,0.76c-0.03-0.06-0.18-0.33-0.36-0.76c-0.29-0.68-0.68-1.78-0.89-3.16c-0.13-0.9-0.18-1.92-0.07-3.01
			c0,0,0.03,1.34,0.36,3.21C193.56,147.37,193.78,148.39,194.11,149.44z M203.56,154.09c-1.43-1.6-2.47-3.03-3.23-4.29
			c-1.43-2.32-1.89-3.98-2.05-4.82c-0.08-0.41-0.08-0.63-0.08-0.63c0.03,0.17,0.07,0.34,0.12,0.52c0.4,1.48,1.37,3.31,2.36,4.96
			C202.02,152.04,203.4,153.89,203.56,154.09z M198.48,144.09c-2.94-0.79-4.9-1.11-5.38-1.19c1.89,0.18,3.69,0.47,5.41,0.85
			c10.34,2.24,17.4,7.34,17.9,7.7C209.32,147.49,202.82,145.28,198.48,144.09z M193.16,142.59c0,0.01-0.01,0.02-0.01,0.02
			C193.16,142.6,193.16,142.6,193.16,142.59L193.16,142.59z M193.16,142.59c0,0.01-0.01,0.02-0.01,0.02
			C193.16,142.6,193.16,142.6,193.16,142.59L193.16,142.59z M193.16,142.59c0,0.01-0.01,0.02-0.01,0.02
			C193.16,142.6,193.16,142.6,193.16,142.59L193.16,142.59z M190.08,142.3c-4.35-0.09-7.72,1.32-9.94,2.69
			c-1.9,1.16-2.97,2.31-3.09,2.44c0.97-0.75,1.98-1.39,3.02-1.93c3.58-1.82,7.48-2.45,10.31-2.64c0.71-0.05,1.36-0.07,1.91-0.08
			v-0.33C191.53,142.36,190.79,142.31,190.08,142.3z M193.16,142.59c0,0.01-0.01,0.02-0.01,0.02
			C193.16,142.6,193.16,142.6,193.16,142.59L193.16,142.59z M193.16,142.59c0,0.01-0.01,0.02-0.01,0.02
			C193.16,142.6,193.16,142.6,193.16,142.59L193.16,142.59z"/>
		<path class="st145" d="M145.59,153.06c0,3.18-2.58,5.76-5.76,5.76c-3.18,0-5.76-2.58-5.76-5.76c0-3.18,2.58-5.76,5.76-5.76
			C143.01,147.3,145.59,149.88,145.59,153.06z M175.22,147.3c-3.18,0-5.76,2.58-5.76,5.76c0,3.18,2.58,5.76,5.76,5.76
			c3.18,0,5.76-2.58,5.76-5.76C180.98,149.88,178.4,147.3,175.22,147.3z"/>
		<path class="st146" d="M162.55,42.75h-17.26c-0.55,0-1,0.44-1,1v27.32c0,0.54,0.44,0.99,1,0.99h17.26c0.54,0,0.99-0.44,0.99-0.99
			V43.75C163.53,43.2,163.09,42.75,162.55,42.75z M161.55,70.09h-15.28V44.73h15.28V70.09z"/>
		<path class="st147" d="M161.6,31.63h-15.24c-2.2,0-3.99,1.78-3.99,3.98v10.26h23.22V35.61C165.59,33.41,163.8,31.63,161.6,31.63z
			 M144.99,35.61c0-0.75,0.61-1.37,1.37-1.37h15.24c0.76,0,1.37,0.62,1.37,1.37v6.95h-17.98V35.61z"/>
		<path class="st147" d="M192.28,67.65v76.46c0,0.46-0.04,0.92-0.12,1.35c-0.15,0.91-0.46,1.76-0.9,2.53
			c-0.26,0.46-0.55,0.89-0.89,1.28c-1.46,1.68-3.62,2.76-6.02,2.76h-52.8c-0.13,0-0.26,0-0.38-0.01h-0.01
			c-0.23-0.01-0.44-0.03-0.65-0.06c-0.18-0.02-0.35-0.05-0.52-0.09c-0.2-0.04-0.38-0.08-0.57-0.14c-0.19-0.05-0.37-0.11-0.55-0.18
			c-0.01,0-0.02,0-0.03-0.01c-0.18-0.07-0.35-0.14-0.53-0.22c-0.18-0.08-0.35-0.17-0.52-0.26c-0.02-0.01-0.03-0.02-0.04-0.02
			c-0.34-0.2-0.67-0.4-0.99-0.64c-0.59-0.45-1.11-0.98-1.55-1.57c-0.08-0.1-0.15-0.21-0.22-0.31c-0.2-0.3-0.37-0.59-0.53-0.91
			c-0.08-0.15-0.15-0.3-0.21-0.44c-0.18-0.41-0.32-0.85-0.41-1.29c-0.04-0.17-0.08-0.33-0.11-0.51c0-0.02,0-0.05-0.01-0.08
			c-0.03-0.19-0.05-0.37-0.06-0.56c-0.02-0.22-0.03-0.42-0.03-0.64V67.65c0-4.37,3.55-7.92,7.92-7.92h52.8
			c0.71,0,1.39,0.09,2.04,0.27c0.52,0.14,1.03,0.34,1.51,0.57c0.84,0.41,1.59,0.99,2.23,1.66
			C191.47,63.64,192.28,65.55,192.28,67.65z"/>
		<path class="st141" d="M180.18,144.11c0,4.37-3.55,7.92-7.92,7.92h-40.7c-4.37,0-7.92-3.55-7.92-7.92V67.65
			c0-4.38,3.55-7.92,7.92-7.92h40.7c4.38,0,7.92,3.54,7.92,7.92V144.11z"/>
		<path class="st147" d="M135.49,151.46h-1.55V59.73h1.55V151.46z M168.08,59.73h-1.55v91.73h1.55V59.73z"/>
		<path class="st147" d="M171.42,151.91c0,1.18-0.96,2.15-2.15,2.15h-35.96c-1.19,0-2.15-0.96-2.15-2.15l0,0
			c0-1.18,0.96-2.15,2.15-2.15h35.96C170.46,149.76,171.42,150.73,171.42,151.91L171.42,151.91z M146.08,124.67
			c0,1.36-1.11,2.47-2.47,2.47l0,0c-1.36,0-2.47-1.11-2.47-2.47V70.84c0-1.36,1.11-2.47,2.47-2.47l0,0c1.36,0,2.47,1.11,2.47,2.47
			V124.67z M159.91,70.84c0-1.36-1.11-2.47-2.47-2.47l0,0c-1.36,0-2.47,1.11-2.47,2.47v53.83c0,1.36,1.11,2.47,2.47,2.47l0,0
			c1.36,0,2.47-1.11,2.47-2.47V70.84z"/>
		<path class="st148" d="M163.2,132.41l-6.56,9.13l-3.46-2.48l-3.4,4.73l-5.99-4.3l6.56-9.14l3.46,2.48l3.4-4.73L163.2,132.41z"/>
		<path class="st149" d="M133.35,114.05l-4.89-2.62l5.97-11.14l4.89,2.62L133.35,114.05z"/>
		<path class="st150" d="M155.82,72.06l-0.51-1.97l-0.08-0.33l-1.12-4.33l-1.3-5.03l-0.89-0.67l-0.48-0.35l-1.85-1.4l-1.37,0.35
			l-1.94,0.5l-1.15,0.3l-0.07,0.14l-0.13,0.29l-0.09,0.18l-0.54,1.11l-0.97,2.01l0.43,1.67l0.53,2.08l0.54,2.1l0.87,3.36l0.38,1.48
			l1.35,5.23l7.54-1.95l1.95-0.5L155.82,72.06z M147.52,60.64L147.52,60.64c0-0.02,0.02-0.04,0.04-0.05
			c0.02-0.02,0.04-0.04,0.07-0.06c0.03-0.02,0.05-0.03,0.08-0.04c0.03-0.02,0.07-0.03,0.12-0.03h0.04c0.01-0.01,0.01-0.01,0.02-0.01
			c0.03,0,0.06,0,0.08,0.02c0.02,0,0.03,0,0.05,0.01h0.01c0.03,0.01,0.07,0.03,0.11,0.06c0.13,0.06,0.22,0.21,0.22,0.37
			c0,0.26-0.21,0.46-0.46,0.46c-0.03,0-0.05,0-0.07-0.02c-0.02,0-0.05-0.01-0.07-0.01c-0.03-0.01-0.06-0.02-0.09-0.04
			c-0.01,0-0.01-0.01-0.02-0.01c-0.01-0.01-0.02-0.01-0.03-0.02c-0.03-0.02-0.05-0.04-0.07-0.08c-0.03-0.01-0.05-0.05-0.06-0.08
			c-0.02-0.01-0.03-0.03-0.02-0.05c-0.02-0.01-0.03-0.03-0.03-0.05c0-0.01,0-0.02,0-0.02c-0.01-0.03-0.01-0.05-0.01-0.08
			C147.41,60.82,147.45,60.73,147.52,60.64z"/>
		<path class="st149" d="M148.76,60.68c-0.06-0.24-0.21-0.43-0.42-0.56c-0.21-0.13-0.45-0.16-0.7-0.1c-0.15,0.04-0.29,0.12-0.4,0.23
			c-0.1,0.09-0.17,0.2-0.22,0.32c-0.04,0.1-0.06,0.19-0.06,0.29c-0.01,0.1,0,0.2,0.02,0.3c0.07,0.24,0.22,0.43,0.43,0.56
			c0.21,0.13,0.45,0.16,0.69,0.1c0.16-0.04,0.3-0.12,0.4-0.23C148.75,61.35,148.85,61,148.76,60.68z M147.75,61.35
			c-0.03-0.01-0.06-0.02-0.09-0.04c-0.01,0-0.01-0.01-0.02-0.01c-0.01-0.01-0.02-0.01-0.03-0.02c-0.03-0.02-0.05-0.04-0.07-0.08
			c-0.03-0.01-0.05-0.05-0.06-0.08c-0.02-0.01-0.03-0.03-0.02-0.05c-0.02-0.01-0.03-0.03-0.03-0.05c0-0.01,0-0.02,0-0.02
			c-0.01-0.03-0.01-0.05-0.01-0.08c-0.01-0.1,0.03-0.2,0.1-0.29h0.01c-0.01-0.02,0.01-0.04,0.03-0.05v-0.01
			c0.02-0.02,0.04-0.04,0.07-0.05c0.03-0.02,0.05-0.03,0.08-0.04c0.01-0.01,0.03-0.02,0.05-0.02c0.03-0.01,0.05-0.01,0.07-0.01h0.04
			c0.03,0,0.07,0,0.1,0.01c0.02,0,0.03,0,0.05,0.01h0.01c0.03,0.01,0.07,0.03,0.11,0.06c0.02,0.02,0.05,0.04,0.07,0.07
			c0.02,0.01,0.05,0.04,0.05,0.07c0.03,0.04,0.05,0.08,0.06,0.12c0.06,0.24-0.09,0.49-0.33,0.55c-0.05,0.01-0.11,0.02-0.17,0.01
			C147.8,61.36,147.77,61.35,147.75,61.35z M151.83,63.82c-0.04,0.04-0.08,0.06-0.14,0.08l-5.72,1.48
			c-0.17,0.04-0.34-0.06-0.38-0.22c-0.04-0.17,0.06-0.34,0.22-0.38l5.72-1.48c0.17-0.04,0.34,0.06,0.38,0.22
			C151.94,63.63,151.9,63.74,151.83,63.82z M151.4,65.84c-0.04,0.04-0.08,0.06-0.14,0.08l-3.91,1.01c-0.17,0.04-0.34-0.06-0.38-0.22
			c-0.04-0.17,0.06-0.33,0.22-0.38l3.91-1.01c0.17-0.04,0.34,0.06,0.38,0.22C151.51,65.65,151.48,65.77,151.4,65.84z M156.09,76.13
			l-8.12,2.1l-0.75-2.91l8.12-2.1L156.09,76.13z"/>
		<path class="st151" d="M146.27,56.83c0.28,0.18,0.56,0.39,0.82,0.63c0.32,0.3,0.6,0.62,0.82,0.94l-0.31,0.08
			c-0.2-0.27-0.44-0.54-0.71-0.8c-0.2-0.19-0.41-0.35-0.62-0.5V56.83z M148.03,60.48c-0.12,0.1-0.27,0.16-0.48,0.16
			c-0.63,0-1.54-0.46-2.31-1.18c-1.09-1.02-1.64-2.28-1.19-2.76c0.06-0.07,0.15-0.11,0.24-0.14v-0.29
			c-0.18,0.04-0.35,0.11-0.46,0.23c-0.58,0.62-0.05,2.01,1.2,3.18c0.83,0.78,1.8,1.26,2.51,1.26c0.29,0,0.53-0.09,0.71-0.25
			C148.18,60.55,148.08,60.5,148.03,60.48z"/>
	</g>
</g>
</svg>
