<?xml version="1.0" encoding="utf-8"?>
<!-- Generator: Adobe Illustrator 27.8.1, SVG Export Plug-In . SVG Version: 6.00 Build 0)  -->
<svg version="1.1" xmlns="http://www.w3.org/2000/svg" xmlns:xlink="http://www.w3.org/1999/xlink" x="0px" y="0px"
	 viewBox="0 0 350 230" style="enable-background:new 0 0 350 230;" xml:space="preserve">
<style type="text/css">
	.st0{fill-rule:evenodd;clip-rule:evenodd;fill:#A6D63C;}
	.st1{fill-rule:evenodd;clip-rule:evenodd;fill:#00A0D1;}
	.st2{fill:#421C00;}
	.st3{fill-rule:evenodd;clip-rule:evenodd;fill:#FFFFFF;}
	.st4{fill:#699AE2;}
	.st5{fill:#3B7DC4;}
	.st6{fill:#AF7500;}
	.st7{fill:#FFDF00;}
	.st8{fill:#1A0256;}
	.st9{fill:#00594F;}
	.st10{fill:#00779B;}
	.st11{fill:#0074FF;}
	.st12{fill:#194A91;}
	.st13{fill-rule:evenodd;clip-rule:evenodd;fill:#EFEFEF;}
	.st14{fill:#044159;}
	.st15{fill:#4C2900;}
	.st16{fill:#FFFFFF;}
	.st17{fill:#FFB41F;}
	.st18{fill:#FF5A00;}
	.st19{fill:#680404;}
	.st20{fill:#03AA6F;}
	.st21{fill:#FB5968;}
	.st22{fill:#FFD24A;}
	.st23{fill:#055EBC;}
	.st24{fill:#6F6F6F;}
	.st25{fill:#454545;}
	.st26{fill:#BA1A00;}
	.st27{fill:#0071BC;}
	.st28{fill:none;stroke:#FFFFFF;stroke-width:2;stroke-miterlimit:10;}
	.st29{fill:#3D3600;}
	.st30{fill:#5B4E03;}
	.st31{fill:#685900;}
	.st32{fill:none;stroke:#2E8EFF;stroke-width:2;stroke-linecap:round;stroke-miterlimit:10;}
	.st33{fill:none;stroke:#3D3600;stroke-width:2;stroke-linecap:round;stroke-miterlimit:10;}
	.st34{fill:#6F0393;}
	.st35{fill:none;}
	.st36{fill:#96D7FF;}
	.st37{fill:#0C5100;}
	.st38{fill:#FFE856;}
	.st39{fill:#803971;}
	.st40{fill:#D3CECD;}
	.st41{fill:#4C241D;}
	.st42{fill:#EA3200;stroke:#4C241D;stroke-linecap:round;stroke-linejoin:round;stroke-miterlimit:50;}
	.st43{fill:#11930A;stroke:#4C241D;stroke-linecap:round;stroke-linejoin:round;stroke-miterlimit:50;}
	.st44{fill:#3792CF;}
	.st45{fill:#FEE36F;}
	.st46{fill:#136296;}
	.st47{fill:#EFE1CA;}
	.st48{fill:#E1F9B2;}
	.st49{fill:#F5F7B2;}
	.st50{fill:#F7EDB2;}
	.st51{fill:#FCF5EB;}
	.st52{fill:#DEFCF0;}
	.st53{fill:#53C2BA;}
	.st54{fill:#6D6D00;}
	.st55{fill:#001087;}
	.st56{fill:#F19333;}
	.st57{fill:#1554A1;}
	.st58{fill:#8E0000;}
	.st59{fill:#C46B02;}
	.st60{fill:#FFD662;}
	.st61{fill:#01539D;}
	.st62{fill:#007777;}
	.st63{fill:#3CAF47;}
	.st64{fill:#31575B;}
	.st65{fill:#7BBBFF;}
	.st66{fill:#513800;}
	.st67{fill:#009D5A;}
	.st68{fill:#C9A37C;}
	.st69{fill:#DB504A;}
	.st70{fill:#084C61;}
	.st71{opacity:0.3;fill:#BCBEC0;enable-background:new    ;}
	.st72{fill:#069A8E;}
	.st73{fill:#0A4D68;}
	.st74{fill:#190707;}
	.st75{fill:#39B54A;}
	.st76{fill:#01A9DB;}
	.st77{fill:#DF7401;}
	.st78{fill:#0F0F4F;}
	.st79{fill:#232365;}
	.st80{fill:#2169AA;}
	.st81{fill:#00828C;}
	.st82{fill:#00A4BA;}
	.st83{fill:#007CC1;}
	.st84{fill:#FF0000;}
	.st85{fill:#313341;}
	.st86{fill:#C9C9C9;}
	.st87{fill:#0C3F00;}
	.st88{fill:#00153A;}
	.st89{fill:#056168;}
	.st90{fill:#08E8FF;}
	.st91{fill:#00B7FF;}
	.st92{fill:#590060;}
	.st93{fill:#FF78DC;}
	.st94{fill-rule:evenodd;clip-rule:evenodd;fill:#00B6E8;}
	.st95{fill-rule:evenodd;clip-rule:evenodd;fill:#8DD7F7;}
	.st96{fill-rule:evenodd;clip-rule:evenodd;fill:#54A175;}
	.st97{fill-rule:evenodd;clip-rule:evenodd;fill:url(#SVGID_1_);}
	.st98{fill-rule:evenodd;clip-rule:evenodd;fill:#0094D9;}
	.st99{fill-rule:evenodd;clip-rule:evenodd;fill:#0081BE;}
	.st100{fill-rule:evenodd;clip-rule:evenodd;fill:#E7913C;}
	.st101{fill-rule:evenodd;clip-rule:evenodd;fill:#00ADEE;}
	.st102{fill-rule:evenodd;clip-rule:evenodd;fill:#9AD2AD;}
	.st103{fill:url(#SVGID_00000176725660093702234530000013365412365483611317_);}
	.st104{fill:url(#SVGID_00000104693982012026536030000006801998076490125703_);}
	.st105{fill:#1279F9;}
	.st106{fill:#00A8CE;}
	.st107{opacity:0.51;}
	.st108{fill:url(#SVGID_00000097494209800207242820000002050611635602874772_);}
	.st109{enable-background:new    ;}
	.st110{clip-path:url(#SVGID_00000171718634414622146920000001664454468890369417_);}
	
		.st111{fill:none;stroke:#00DAF9;stroke-width:2;stroke-linecap:round;stroke-linejoin:round;stroke-miterlimit:10;stroke-dasharray:4.4092,4.4092;}
	.st112{fill:#FF7D5B;}
	.st113{opacity:0.7;}
	.st114{fill:url(#SVGID_00000157292892856054901350000005361558140574012831_);}
	.st115{fill:#FF603D;}
	.st116{fill:url(#SVGID_00000022557983861266537160000011574576739410269573_);}
	.st117{fill:url(#SVGID_00000069360593435217025660000013177461671164669078_);}
	.st118{fill:url(#SVGID_00000056413707403380662210000013232334483055627180_);}
	.st119{fill:url(#SVGID_00000170248941798088854350000003792014726248686225_);}
	.st120{fill:url(#SVGID_00000137107520134598124020000013881534908953268664_);}
	.st121{fill:url(#SVGID_00000026873058794488075100000003996479122812298134_);}
	.st122{fill:#142445;}
	.st123{fill:#1C97DA;}
	.st124{fill:#136B9B;}
	.st125{fill:#4E9834;}
	.st126{fill:#7EB436;}
	.st127{fill:#006D2F;}
	.st128{fill:#A07227;}
	.st129{fill:#C1C1C1;}
	.st130{fill:#F98D21;}
	.st131{fill:#4663AF;}
	.st132{fill:#0786A3;}
	.st133{fill:#EB9358;}
	.st134{fill-rule:evenodd;clip-rule:evenodd;fill:url(#SVGID_00000044158691346826339720000008066937059912952494_);}
	.st135{fill-rule:evenodd;clip-rule:evenodd;fill:#B1BCE0;}
	.st136{fill:url(#SVGID_00000176018526736145165700000006641265884547786941_);}
	.st137{fill:#153852;}
	.st138{fill:#327798;}
	.st139{fill:#3A39FF;}
	.st140{fill:#ADE6ED;}
	.st141{fill:#FF0043;}
	.st142{fill:#EAE5E7;}
	.st143{fill:#EFE9E4;}
	.st144{fill:#649936;}
	.st145{fill:#26313D;}
	.st146{fill:#C1B6AA;}
	.st147{fill:#B20443;}
	.st148{fill:#EEF1FC;}
	.st149{fill:#E2B629;}
	.st150{fill:#FFF2DC;}
	.st151{fill:#7A542A;}
	.st152{fill:#B2B2B2;}
</style>
<g id="Layer_1">
</g>
<g id="Layer_2">
</g>
<g id="Layer_3">
</g>
<g id="Layer_4">
</g>
<g id="Layer_5">
</g>
<g id="Layer_6">
</g>
<g id="Layer_7">
</g>
<g id="Layer_8">
</g>
<g id="Layer_9">
</g>
<g id="Layer_10">
</g>
<g id="Layer_11">
</g>
<g id="Layer_12">
</g>
<g id="Layer_13">
</g>
<g id="Layer_14">
</g>
<g id="Layer_15">
	<g>
		<g>
			<g>
				<path class="st106" d="M274.1,107.91c-8.04-7.75-31.66,7.91-58.58,18.19c-44.48,16.98-95.95,33.94-128.26,2.94
					c-23.19-22.25-23.17-64.62,14.03-84.53c12.2-6.53,28.96-12.97,53.77-9.71c17.83,2.35,38.92,14.44,38.92,14.44
					s-62.9-27.41-92.71,12.08c-11.04,14.62-10.58,40.49,2.64,53.26c29.05,28.07,85.74,7.37,107.7,1.72
					c32.46-8.35,55.22-21.22,65.11-12.73c6.93,5.96-6.69,16.32-6.69,16.32S277.61,111.3,274.1,107.91z"/>
				<g>
					<g class="st107">
						<linearGradient id="SVGID_1_" gradientUnits="userSpaceOnUse" x1="71.3226" y1="90.1177" x2="278.6774" y2="90.1177">
							<stop  offset="0" style="stop-color:#000000"/>
							<stop  offset="0.265" style="stop-color:#515151"/>
							<stop  offset="0.53" style="stop-color:#9B9B9B"/>
							<stop  offset="0.7485" style="stop-color:#D1D1D1"/>
							<stop  offset="0.9113" style="stop-color:#F2F2F2"/>
							<stop  offset="1" style="stop-color:#FFFFFF"/>
						</linearGradient>
						<path style="fill:url(#SVGID_1_);" d="M274.1,107.91c-8.04-7.75-31.66,7.91-58.58,18.19c-44.48,16.98-95.95,33.94-128.26,2.94
							c-23.19-22.25-23.17-64.62,14.03-84.53c12.2-6.53,28.96-12.97,53.77-9.71c17.83,2.35,38.92,14.44,38.92,14.44
							s-62.9-27.41-92.71,12.08c-11.04,14.62-10.58,40.49,2.64,53.26c29.05,28.07,85.74,7.37,107.7,1.72
							c32.46-8.35,55.22-21.22,65.11-12.73c6.93,5.96-6.69,16.32-6.69,16.32S277.61,111.3,274.1,107.91z M270.02,119.91
							c0,0,13.63-10.36,6.69-16.32c-9.88-8.49-46.33,12.34-79.82,23.57c-21.49,7.21-85.3,22.79-108.47-10.29
							c-17.09-24.4-9.4-51.01,4.82-62.56c49.04-39.82,100.74-5.06,100.74-5.06s-21.09-12.1-38.92-14.44
							c-24.8-3.26-41.57,3.18-53.77,9.71c-37.2,19.91-37.22,62.28-14.03,84.53c32.31,31,83.78,14.04,128.26-2.94
							c26.92-10.28,50.54-25.95,58.58-18.19C277.61,111.3,270.02,119.91,270.02,119.91z"/>
					</g>
				</g>
				<g>
					<g>
						<g class="st109">
							<defs>
								<polygon id="SVGID_00000137833074302777371620000013732356920694098857_" class="st109" points="190.03,54.34 205.17,45.54 
									229.49,59.58 214.35,68.38 								"/>
							</defs>
							<clipPath id="SVGID_00000139278316262076678920000001546756713347135654_">
								<use xlink:href="#SVGID_00000137833074302777371620000013732356920694098857_"  style="overflow:visible;"/>
							</clipPath>
							<g style="clip-path:url(#SVGID_00000139278316262076678920000001546756713347135654_);">
								<g>
									<g>
										<g>
											<polyline class="st106" points="205.17,45.54 199.58,49.24 203.42,52.93 196.61,51.22 191.02,54.91 223.46,63.09 
												205.17,45.54 											"/>
										</g>
									</g>
								</g>
							</g>
						</g>
					</g>
				</g>
				<path class="st111" d="M152.86,126.83c16.15-12.81,26.74-19.72,44.38-19.74c29.21-0.04,41.53,37.04,70.17,15.02"/>
				<path class="st16" d="M141.34,40.34c0,0-32.7,5.67-44.56,24.34c-11.08,17.44-3.54,40.86-3.54,40.86s-11.71-13.99-4.22-34.63
					C100.21,40.05,141.34,40.34,141.34,40.34z"/>
			</g>
			<g>
				<g>
					<path class="st112" d="M269.21,52.78c-4.61,0-8.34,3.73-8.34,8.34s8.34,18.26,8.34,18.26s8.34-13.65,8.34-18.26
						S273.81,52.78,269.21,52.78z M269.21,65.96c-2.68,0-4.85-2.17-4.85-4.85c0-2.68,2.17-4.85,4.85-4.85
						c2.68,0,4.85,2.17,4.85,4.85C274.05,63.79,271.88,65.96,269.21,65.96z"/>
				</g>
			</g>
			<g>
				<g class="st113">
					
						<linearGradient id="SVGID_00000035516234997859400730000006488220749569064326_" gradientUnits="userSpaceOnUse" x1="263.9905" y1="66.0678" x2="277.5478" y2="66.0678">
						<stop  offset="0" style="stop-color:#FFFFFF"/>
						<stop  offset="1" style="stop-color:#000000"/>
					</linearGradient>
					<path style="fill:url(#SVGID_00000035516234997859400730000006488220749569064326_);" d="M263.99,54.61
						c0,0,3.24-1.91,6.25-1.01c4.32,1.29,7.94,5.47,4.44,12.36c-1.31,2.58-3.01,5.27-4.29,8.2c-1.25,2.86-1.18,5.22-1.18,5.22
						s8.34-13.65,8.34-18.26c0-1.75-0.62-3.62-1.79-5.16C273.79,53.37,268.91,50.98,263.99,54.61z"/>
				</g>
			</g>
			<path class="st115" d="M272.92,86.66c0,2.05-1.66,3.71-3.71,3.71c-2.05,0-3.71-1.66-3.71-3.71c0-2.05,1.66-3.71,3.71-3.71
				C271.26,82.95,272.92,84.61,272.92,86.66z"/>
		</g>
		<g>
			<g class="st113">
				
					<linearGradient id="SVGID_00000089532599596886926850000010200544390056046475_" gradientUnits="userSpaceOnUse" x1="203.4107" y1="54.2304" x2="223.3083" y2="54.2304">
					<stop  offset="0" style="stop-color:#FFFFFF"/>
					<stop  offset="0.0887" style="stop-color:#F2F2F2"/>
					<stop  offset="0.2515" style="stop-color:#D1D1D1"/>
					<stop  offset="0.47" style="stop-color:#9B9B9B"/>
					<stop  offset="0.735" style="stop-color:#515151"/>
					<stop  offset="1" style="stop-color:#000000"/>
				</linearGradient>
				<path style="fill:url(#SVGID_00000089532599596886926850000010200544390056046475_);" d="M203.41,46.7l1.76-1.16l18.13,17.39
					L203.41,46.7z"/>
			</g>
		</g>
	</g>
</g>
</svg>
