<?xml version="1.0" encoding="utf-8"?>
<!-- Generator: Adobe Illustrator 27.8.1, SVG Export Plug-In . SVG Version: 6.00 Build 0)  -->
<svg version="1.1" xmlns="http://www.w3.org/2000/svg" xmlns:xlink="http://www.w3.org/1999/xlink" x="0px" y="0px"
	 viewBox="0 0 350 230" style="enable-background:new 0 0 350 230;" xml:space="preserve">
<style type="text/css">
	.st0{fill-rule:evenodd;clip-rule:evenodd;fill:#A6D63C;}
	.st1{fill-rule:evenodd;clip-rule:evenodd;fill:#00A0D1;}
	.st2{fill:#421C00;}
	.st3{fill-rule:evenodd;clip-rule:evenodd;fill:#FFFFFF;}
	.st4{fill:#699AE2;}
	.st5{fill:#3B7DC4;}
	.st6{fill:#AF7500;}
	.st7{fill:#FFDF00;}
	.st8{fill:#1A0256;}
	.st9{fill:#00594F;}
	.st10{fill:#00779B;}
	.st11{fill:#0074FF;}
	.st12{fill:#194A91;}
	.st13{fill-rule:evenodd;clip-rule:evenodd;fill:#EFEFEF;}
	.st14{fill:#044159;}
	.st15{fill:#4C2900;}
	.st16{fill:#FFFFFF;}
	.st17{fill:#FFB41F;}
	.st18{fill:#FF5A00;}
	.st19{fill:#680404;}
	.st20{fill:#03AA6F;}
	.st21{fill:#FB5968;}
	.st22{fill:#FFD24A;}
	.st23{fill:#055EBC;}
	.st24{fill:#6F6F6F;}
	.st25{fill:#454545;}
	.st26{fill:#BA1A00;}
	.st27{fill:#0071BC;}
	.st28{fill:none;stroke:#FFFFFF;stroke-width:2;stroke-miterlimit:10;}
	.st29{fill:#3D3600;}
	.st30{fill:#5B4E03;}
	.st31{fill:#685900;}
	.st32{fill:none;stroke:#2E8EFF;stroke-width:2;stroke-linecap:round;stroke-miterlimit:10;}
	.st33{fill:none;stroke:#3D3600;stroke-width:2;stroke-linecap:round;stroke-miterlimit:10;}
	.st34{fill:#6F0393;}
	.st35{fill:none;}
	.st36{fill:#96D7FF;}
	.st37{fill:#0C5100;}
	.st38{fill:#FFE856;}
	.st39{fill:#803971;}
	.st40{fill:#D3CECD;}
	.st41{fill:#4C241D;}
	.st42{fill:#EA3200;stroke:#4C241D;stroke-linecap:round;stroke-linejoin:round;stroke-miterlimit:50;}
	.st43{fill:#11930A;stroke:#4C241D;stroke-linecap:round;stroke-linejoin:round;stroke-miterlimit:50;}
	.st44{fill:#3792CF;}
	.st45{fill:#FEE36F;}
	.st46{fill:#136296;}
	.st47{fill:#EFE1CA;}
	.st48{fill:#E1F9B2;}
	.st49{fill:#F5F7B2;}
	.st50{fill:#F7EDB2;}
	.st51{fill:#FCF5EB;}
	.st52{fill:#DEFCF0;}
	.st53{fill:#53C2BA;}
	.st54{fill:#6D6D00;}
	.st55{fill:#001087;}
	.st56{fill:#F19333;}
	.st57{fill:#1554A1;}
	.st58{fill:#8E0000;}
	.st59{fill:#C46B02;}
	.st60{fill:#FFD662;}
	.st61{fill:#01539D;}
	.st62{fill:#007777;}
	.st63{fill:#3CAF47;}
	.st64{fill:#31575B;}
	.st65{fill:#7BBBFF;}
	.st66{fill:#513800;}
	.st67{fill:#009D5A;}
	.st68{fill:#C9A37C;}
	.st69{fill:#DB504A;}
	.st70{fill:#084C61;}
	.st71{opacity:0.3;fill:#BCBEC0;enable-background:new    ;}
	.st72{fill:#069A8E;}
	.st73{fill:#0A4D68;}
	.st74{fill:#190707;}
	.st75{fill:#39B54A;}
	.st76{fill:#01A9DB;}
	.st77{fill:#DF7401;}
	.st78{fill:#0F0F4F;}
	.st79{fill:#232365;}
	.st80{fill:#2169AA;}
	.st81{fill:#00828C;}
	.st82{fill:#00A4BA;}
	.st83{fill:#007CC1;}
	.st84{fill:#FF0000;}
	.st85{fill:#313341;}
	.st86{fill:#C9C9C9;}
	.st87{fill:#0C3F00;}
	.st88{fill:#00153A;}
	.st89{fill:#056168;}
	.st90{fill:#08E8FF;}
	.st91{fill:#00B7FF;}
	.st92{fill:#590060;}
	.st93{fill:#FF78DC;}
	.st94{fill-rule:evenodd;clip-rule:evenodd;fill:#00B6E8;}
	.st95{fill-rule:evenodd;clip-rule:evenodd;fill:#8DD7F7;}
	.st96{fill-rule:evenodd;clip-rule:evenodd;fill:#54A175;}
	.st97{fill-rule:evenodd;clip-rule:evenodd;fill:url(#SVGID_1_);}
	.st98{fill-rule:evenodd;clip-rule:evenodd;fill:#0094D9;}
	.st99{fill-rule:evenodd;clip-rule:evenodd;fill:#0081BE;}
	.st100{fill-rule:evenodd;clip-rule:evenodd;fill:#E7913C;}
	.st101{fill-rule:evenodd;clip-rule:evenodd;fill:#00ADEE;}
	.st102{fill-rule:evenodd;clip-rule:evenodd;fill:#9AD2AD;}
	.st103{fill:url(#SVGID_00000003076562094048615580000005768446207427419289_);}
	.st104{fill:url(#SVGID_00000006682992667316924300000012340189239280483744_);}
	.st105{fill:#1279F9;}
	.st106{fill:#00A8CE;}
	.st107{opacity:0.51;}
	.st108{fill:url(#SVGID_00000155110306087245737330000013024667874034282149_);}
	.st109{enable-background:new    ;}
	.st110{clip-path:url(#SVGID_00000133497662862495237490000018224711917048610452_);}
	
		.st111{fill:none;stroke:#00DAF9;stroke-width:2;stroke-linecap:round;stroke-linejoin:round;stroke-miterlimit:10;stroke-dasharray:4.4092,4.4092;}
	.st112{fill:#FF7D5B;}
	.st113{opacity:0.7;}
	.st114{fill:url(#SVGID_00000079475066119780421130000008214269438279709570_);}
	.st115{fill:#FF603D;}
	.st116{fill:url(#SVGID_00000177459268946589679880000013227608957982957214_);}
	.st117{fill:url(#SVGID_00000129915934318278485020000006677636394642052755_);}
	.st118{fill:url(#SVGID_00000100378349647000226700000013468554783542588857_);}
	.st119{fill:url(#SVGID_00000063627074594597653030000004605950321115957913_);}
	.st120{fill:url(#SVGID_00000072237745980298658790000001420377734357501603_);}
	.st121{fill:url(#SVGID_00000019677334863323074820000004381273337146255264_);}
	.st122{fill:#142445;}
	.st123{fill:#1C97DA;}
	.st124{fill:#136B9B;}
	.st125{fill:#4E9834;}
	.st126{fill:#7EB436;}
	.st127{fill:#006D2F;}
	.st128{fill:#A07227;}
	.st129{fill:#C1C1C1;}
	.st130{fill:#F98D21;}
	.st131{fill:#4663AF;}
	.st132{fill:#0786A3;}
	.st133{fill:#EB9358;}
	.st134{fill-rule:evenodd;clip-rule:evenodd;fill:url(#SVGID_00000042004559666012549330000003212437264451025838_);}
	.st135{fill-rule:evenodd;clip-rule:evenodd;fill:#B1BCE0;}
	.st136{fill:url(#SVGID_00000003819244870569756850000002674014353394027660_);}
	.st137{fill:#153852;}
	.st138{fill:#327798;}
	.st139{fill:#3A39FF;}
	.st140{fill:#ADE6ED;}
	.st141{fill:#FF0043;}
	.st142{fill:#EAE5E7;}
	.st143{fill:#EFE9E4;}
	.st144{fill:#649936;}
	.st145{fill:#26313D;}
	.st146{fill:#C1B6AA;}
	.st147{fill:#B20443;}
	.st148{fill:#EEF1FC;}
	.st149{fill:#E2B629;}
	.st150{fill:#FFF2DC;}
	.st151{fill:#7A542A;}
	.st152{fill:#B2B2B2;}
</style>
<g id="Layer_1">
</g>
<g id="Layer_2">
</g>
<g id="Layer_3">
</g>
<g id="Layer_4">
</g>
<g id="Layer_5">
</g>
<g id="Layer_6">
</g>
<g id="Layer_7">
</g>
<g id="Layer_8">
</g>
<g id="Layer_9">
</g>
<g id="Layer_10">
</g>
<g id="Layer_11">
</g>
<g id="Layer_12">
</g>
<g id="Layer_13">
</g>
<g id="Layer_14">
</g>
<g id="Layer_15">
	<g>
		<radialGradient id="SVGID_1_" cx="178.2062" cy="124.1709" r="42.1325" gradientUnits="userSpaceOnUse">
			<stop  offset="0" style="stop-color:#00FFFF"/>
			<stop  offset="0.0207" style="stop-color:#01F4F7"/>
			<stop  offset="0.1355" style="stop-color:#06BCCD"/>
			<stop  offset="0.2537" style="stop-color:#0A89A8"/>
			<stop  offset="0.3728" style="stop-color:#0D5F89"/>
			<stop  offset="0.493" style="stop-color:#103D70"/>
			<stop  offset="0.6146" style="stop-color:#12225C"/>
			<stop  offset="0.7381" style="stop-color:#140F4E"/>
			<stop  offset="0.8649" style="stop-color:#150446"/>
			<stop  offset="1" style="stop-color:#150043"/>
		</radialGradient>
		<path style="fill:url(#SVGID_1_);" d="M135.62,140.07c4.54-5.17,8.99-10.23,13.49-15.35c0.42,1.76,0.33,2.01-2.21,6.42
			c1.93-0.79,4.6-3.56,4.45-5.2c-0.34-3.68,2.02-5.85,4.04-8.3c0.96-1.16,1.7-1.51,3.14-0.67c2.49,1.46,5.14,2.66,7.92,3.7
			c-0.36-0.31-0.72-0.64-1.09-0.93c-3.38-2.63-6.81-5.21-10.14-7.91c-0.97-0.79-1.5-0.62-2.3,0.17
			c-6.77,6.62-13.57,13.2-20.36,19.79c-0.59,0.58-1.2,1.15-1.93,1.85c-0.39-0.62-0.65-1.14-1-1.58c-0.68-0.85-0.58-1.44,0.24-2.22
			c4.49-4.29,8.91-8.66,13.35-13c3.31-3.24,6.63-6.48,9.94-9.71c0.27-0.27,0.58-0.5,0.95-0.82c6.88,5.6,13.72,11.16,20.76,16.89
			c10.17-10.94,20.31-21.86,30.52-32.85c2.52,2.28,4.92,4.46,7.32,6.64c4.45,4.05,8.86,8.14,13.36,12.12
			c1.03,0.91,1.3,1.81,1.1,3.09c-3,18.61-12.71,32.64-29.82,40.48c-20.58,9.43-39.94,6.29-57.41-8.14c-1.33-1.09-2.48-2.4-3.7-3.62
			C136.04,140.69,135.89,140.43,135.62,140.07z M204.93,95.98c-0.08-0.06-0.16-0.11-0.24-0.17c-9.07,9.77-18.13,19.53-27.28,29.39
			c5.34,4.67,10.56,9.24,15.78,13.81c-0.39-1.57-0.9-3.01-1.63-4.33c-0.64-1.16-0.4-1.91,0.46-2.83c2.09-2.23,4.11-4.53,6.06-6.88
			c0.44-0.53,0.74-1.4,0.69-2.07c-0.23-2.8-0.51-5.6-0.98-8.37c-0.5-2.97-0.42-5.75,1.52-8.24c0.48-0.61,0.78-1.37,1.15-2.06
			C201.94,101.47,203.43,98.73,204.93,95.98z M170.63,140.24c0.87,0,1.29,0.04,1.71-0.01c3.47-0.41,6.93-0.91,10.41-1.22
			c0.94-0.08,2.05,0.15,2.87,0.61c2.96,1.66,5.83,3.48,8.74,5.22c0.24,0.15,0.54,0.21,0.81,0.31c0.04-0.07,0.08-0.15,0.12-0.22
			c-6.54-5.77-13.08-11.55-19.63-17.32c-0.08,0.06-0.15,0.13-0.23,0.19c1.56,2.39,3.13,4.79,4.76,7.28
			C177.02,136.8,174.02,138.42,170.63,140.24z M201.17,105.89c0.09,0.06,0.19,0.11,0.28,0.17c1.98-1.83,3.96-3.66,5.98-5.53
			c5.1,3.5,10.13,6.95,15.15,10.39c0.07-0.1,0.14-0.19,0.21-0.29c-5.26-4.93-10.52-9.85-15.91-14.9
			C204.89,99.26,203.03,102.58,201.17,105.89z"/>
		
			<radialGradient id="SVGID_00000103956319722998131190000010710504508330960025_" cx="174.9998" cy="114.7126" r="66.8015" gradientUnits="userSpaceOnUse">
			<stop  offset="0" style="stop-color:#00FFFF"/>
			<stop  offset="1" style="stop-color:#150043"/>
		</radialGradient>
		<path style="fill:url(#SVGID_00000103956319722998131190000010710504508330960025_);" d="M207.54,52.85
			c2.8,2.19,5.52,4.13,8.01,6.33c1.34,1.18,2.49,1.76,4.16,0.9c0.6-0.31,1.32-0.39,2.35-0.67c-0.38,1.3-0.64,2.41-1.03,3.47
			c-0.32,0.88-0.2,1.52,0.44,2.26c8.5,9.93,13.3,21.43,14.64,34.42c0.06,0.55,0.56,1.23,1.05,1.51c2.56,1.48,5.18,2.84,7.78,4.25
			c0.42,0.23,0.82,0.49,1.45,0.87c-3,1.63-5.75,3.24-8.61,4.63c-1.4,0.69-1.97,1.56-2.19,3.1c-1.71,12.21-6.75,22.9-15,32.05
			c-1.12,1.24-1.43,2.3-0.81,3.78c0.3,0.72,0.45,1.49,0.75,2.54c-1.35-0.4-2.46-0.69-3.54-1.07c-0.83-0.29-1.44-0.17-2.14,0.42
			c-9.82,8.36-21.13,13.27-33.99,14.49c-1.11,0.11-1.74,0.54-2.26,1.53c-1.51,2.92-3.12,5.79-4.81,8.9
			c-1.76-3.23-3.44-6.23-5.03-9.27c-0.46-0.88-1-1.28-2.02-1.41c-11.96-1.56-22.54-6.3-31.64-14.19c-1.99-1.72-3.7-2.74-6.18-1.37
			c-0.23,0.13-0.55,0.08-1.06,0.14c0.33-1.17,0.55-2.21,0.92-3.2c0.33-0.9,0.16-1.55-0.46-2.27c-5.54-6.44-9.69-13.69-12.01-21.86
			c-1.14-4.01-1.73-8.18-2.47-12.3c-0.16-0.9-0.42-1.48-1.28-1.93c-2.5-1.27-4.95-2.66-7.42-4.01c-0.46-0.25-0.9-0.54-1.55-0.92
			c3.15-1.71,6.07-3.33,9.04-4.87c0.93-0.48,1.38-1.08,1.51-2.14c1.6-12.62,6.82-23.58,15.27-33.02c0.9-1.01,1.24-1.88,0.73-3.13
			c-0.33-0.8-0.52-1.66-0.85-2.78c1.14,0.31,2.05,0.48,2.89,0.82c1.24,0.51,2.14,0.24,3.18-0.64c1.87-1.6,3.92-2.99,5.9-4.45
			c0.27-0.2,0.59-0.3,0.93-0.47c0.47,2.24,0.98,4.39,1.32,6.57c0.06,0.37-0.52,0.97-0.94,1.28c-8.02,5.96-14.05,13.51-17.93,22.71
			c-9.54,22.6-3.01,48.52,16.19,63.79c12.37,9.85,26.53,13.56,42.17,11.28c21.71-3.16,39.33-19.22,44.71-40.58
			c5.4-21.44-2.87-44.28-20.78-57.24c-0.79-0.57-0.89-1.04-0.66-1.94C206.76,57.21,207.08,55.23,207.54,52.85z"/>
		
			<radialGradient id="SVGID_00000059994980355868709220000001635528244361362098_" cx="174.9788" cy="56.65" r="31.788" gradientUnits="userSpaceOnUse">
			<stop  offset="0" style="stop-color:#00FFFF"/>
			<stop  offset="1" style="stop-color:#150043"/>
		</radialGradient>
		<path style="fill:url(#SVGID_00000059994980355868709220000001635528244361362098_);" d="M177.03,22.04
			c10.04,0.54,19.17,6.01,24.01,17.18c4.88,11.27,2.92,21.89-5.41,30.99c-6.29,6.87-12.93,13.42-19.41,20.1
			c-1.23,1.26-1.47,1.25-2.72-0.04c-6.38-6.59-12.76-13.17-19.13-19.77c-8.08-8.37-10.31-20.6-5.73-31.27
			C153.11,28.83,163.51,22.04,177.03,22.04z M174.85,71.93c11.83,0.02,21.35-9.47,21.38-21.3c0.03-11.73-9.58-21.35-21.36-21.4
			c-11.65-0.05-21.32,9.57-21.37,21.24C153.45,62.4,162.92,71.91,174.85,71.93z"/>
		
			<radialGradient id="SVGID_00000026842273810681512970000004746298055450611853_" cx="129.7785" cy="116.2272" r="10.2665" gradientUnits="userSpaceOnUse">
			<stop  offset="0" style="stop-color:#00FFFF"/>
			<stop  offset="1" style="stop-color:#150043"/>
		</radialGradient>
		<path style="fill:url(#SVGID_00000026842273810681512970000004746298055450611853_);" d="M122.75,112.36
			c3.14,1.62,5.99,3.08,8.84,4.55c0.07-0.1,0.13-0.19,0.2-0.29c-2-2.15-3.99-4.31-5.99-6.46c-0.77-0.83-1.5-1.72-2.34-2.46
			c-1.12-0.99-1.5-2.13-1.02-3.89c5,5.28,9.88,10.43,14.88,15.71c-3.16,3.01-6.24,5.95-9.54,9.1
			C125.2,123.47,123.54,118.25,122.75,112.36z"/>
		
			<radialGradient id="SVGID_00000103241988312387895350000006963842219202115505_" cx="174.8767" cy="102.3016" r="6.1196" gradientUnits="userSpaceOnUse">
			<stop  offset="0" style="stop-color:#00FFFF"/>
			<stop  offset="0.0299" style="stop-color:#01EFF3"/>
			<stop  offset="0.1412" style="stop-color:#06B8CA"/>
			<stop  offset="0.2563" style="stop-color:#0A86A6"/>
			<stop  offset="0.3726" style="stop-color:#0D5D88"/>
			<stop  offset="0.4904" style="stop-color:#103B6F"/>
			<stop  offset="0.6103" style="stop-color:#12215C"/>
			<stop  offset="0.7331" style="stop-color:#140F4E"/>
			<stop  offset="0.8605" style="stop-color:#150446"/>
			<stop  offset="1" style="stop-color:#150043"/>
		</radialGradient>
		<path style="fill:url(#SVGID_00000103241988312387895350000006963842219202115505_);" d="M174.77,108.42
			c-3.31-0.02-6.06-2.85-6.02-6.2c0.04-3.28,2.92-6.08,6.22-6.03c3.22,0.04,6.02,2.88,6.02,6.09
			C180.99,105.7,178.22,108.44,174.77,108.42z"/>
	</g>
</g>
</svg>
