<?xml version="1.0" encoding="utf-8"?>
<!-- Generator: Adobe Illustrator 27.8.1, SVG Export Plug-In . SVG Version: 6.00 Build 0)  -->
<svg version="1.1" xmlns="http://www.w3.org/2000/svg" xmlns:xlink="http://www.w3.org/1999/xlink" x="0px" y="0px"
	 viewBox="0 0 350 230" style="enable-background:new 0 0 350 230;" xml:space="preserve">
<style type="text/css">
	.st0{fill-rule:evenodd;clip-rule:evenodd;fill:#A6D63C;}
	.st1{fill-rule:evenodd;clip-rule:evenodd;fill:#00A0D1;}
	.st2{fill:#421C00;}
	.st3{fill-rule:evenodd;clip-rule:evenodd;fill:#FFFFFF;}
	.st4{fill:#699AE2;}
	.st5{fill:#3B7DC4;}
	.st6{fill:#AF7500;}
	.st7{fill:#FFDF00;}
	.st8{fill:#1A0256;}
	.st9{fill:#00594F;}
	.st10{fill:#00779B;}
	.st11{fill:#0074FF;}
	.st12{fill:#194A91;}
	.st13{fill-rule:evenodd;clip-rule:evenodd;fill:#EFEFEF;}
	.st14{fill:#044159;}
	.st15{fill:#4C2900;}
	.st16{fill:#FFFFFF;}
	.st17{fill:#FFB41F;}
	.st18{fill:#FF5A00;}
	.st19{fill:#680404;}
	.st20{fill:#03AA6F;}
	.st21{fill:#FB5968;}
	.st22{fill:#FFD24A;}
	.st23{fill:#055EBC;}
	.st24{fill:#6F6F6F;}
	.st25{fill:#454545;}
	.st26{fill:#BA1A00;}
	.st27{fill:#0071BC;}
	.st28{fill:none;stroke:#FFFFFF;stroke-width:2;stroke-miterlimit:10;}
	.st29{fill:#3D3600;}
	.st30{fill:#5B4E03;}
	.st31{fill:#685900;}
	.st32{fill:none;stroke:#2E8EFF;stroke-width:2;stroke-linecap:round;stroke-miterlimit:10;}
	.st33{fill:none;stroke:#3D3600;stroke-width:2;stroke-linecap:round;stroke-miterlimit:10;}
	.st34{fill:#6F0393;}
	.st35{fill:none;}
	.st36{fill:#96D7FF;}
	.st37{fill:#0C5100;}
	.st38{fill:#FFE856;}
	.st39{fill:#803971;}
	.st40{fill:#D3CECD;}
	.st41{fill:#4C241D;}
	.st42{fill:#EA3200;stroke:#4C241D;stroke-linecap:round;stroke-linejoin:round;stroke-miterlimit:50;}
	.st43{fill:#11930A;stroke:#4C241D;stroke-linecap:round;stroke-linejoin:round;stroke-miterlimit:50;}
	.st44{fill:#3792CF;}
	.st45{fill:#FEE36F;}
	.st46{fill:#136296;}
	.st47{fill:#EFE1CA;}
	.st48{fill:#E1F9B2;}
	.st49{fill:#F5F7B2;}
	.st50{fill:#F7EDB2;}
	.st51{fill:#FCF5EB;}
	.st52{fill:#DEFCF0;}
	.st53{fill:#53C2BA;}
	.st54{fill:#6D6D00;}
	.st55{fill:#001087;}
	.st56{fill:#F19333;}
	.st57{fill:#1554A1;}
	.st58{fill:#8E0000;}
	.st59{fill:#C46B02;}
	.st60{fill:#FFD662;}
	.st61{fill:#01539D;}
	.st62{fill:#007777;}
	.st63{fill:#3CAF47;}
	.st64{fill:#31575B;}
	.st65{fill:#7BBBFF;}
	.st66{fill:#513800;}
	.st67{fill:#009D5A;}
	.st68{fill:#C9A37C;}
	.st69{fill:#DB504A;}
	.st70{fill:#084C61;}
	.st71{opacity:0.3;fill:#BCBEC0;enable-background:new    ;}
	.st72{fill:#069A8E;}
	.st73{fill:#0A4D68;}
	.st74{fill:#190707;}
	.st75{fill:#39B54A;}
	.st76{fill:#01A9DB;}
	.st77{fill:#DF7401;}
	.st78{fill:#0F0F4F;}
	.st79{fill:#232365;}
	.st80{fill:#2169AA;}
	.st81{fill:#00828C;}
	.st82{fill:#00A4BA;}
	.st83{fill:#007CC1;}
	.st84{fill:#FF0000;}
	.st85{fill:#313341;}
	.st86{fill:#C9C9C9;}
	.st87{fill:#0C3F00;}
	.st88{fill:#00153A;}
	.st89{fill:#056168;}
	.st90{fill:#08E8FF;}
	.st91{fill:#00B7FF;}
	.st92{fill:#590060;}
	.st93{fill:#FF78DC;}
	.st94{fill-rule:evenodd;clip-rule:evenodd;fill:#00B6E8;}
	.st95{fill-rule:evenodd;clip-rule:evenodd;fill:#8DD7F7;}
	.st96{fill-rule:evenodd;clip-rule:evenodd;fill:#54A175;}
	.st97{fill-rule:evenodd;clip-rule:evenodd;fill:url(#SVGID_1_);}
	.st98{fill-rule:evenodd;clip-rule:evenodd;fill:#0094D9;}
	.st99{fill-rule:evenodd;clip-rule:evenodd;fill:#0081BE;}
	.st100{fill-rule:evenodd;clip-rule:evenodd;fill:#E7913C;}
	.st101{fill-rule:evenodd;clip-rule:evenodd;fill:#00ADEE;}
	.st102{fill-rule:evenodd;clip-rule:evenodd;fill:#9AD2AD;}
	.st103{fill:url(#SVGID_00000018216589773665141680000009259348804785896849_);}
	.st104{fill:url(#SVGID_00000022536185177893652640000013639438594763920296_);}
	.st105{fill:#1279F9;}
	.st106{fill:#00A8CE;}
	.st107{opacity:0.51;}
	.st108{fill:url(#SVGID_00000040535010903776557900000016507974417700009633_);}
	.st109{enable-background:new    ;}
	.st110{clip-path:url(#SVGID_00000142862379522423823300000005832377332920879775_);}
	
		.st111{fill:none;stroke:#00DAF9;stroke-width:2;stroke-linecap:round;stroke-linejoin:round;stroke-miterlimit:10;stroke-dasharray:4.4092,4.4092;}
	.st112{fill:#FF7D5B;}
	.st113{opacity:0.7;}
	.st114{fill:url(#SVGID_00000028320763202793559920000016559761754074500534_);}
	.st115{fill:#FF603D;}
	.st116{fill:url(#SVGID_00000096023640975761533350000000460296621026562459_);}
	.st117{fill:url(#SVGID_00000097477045683562364640000004698629536099442875_);}
	.st118{fill:url(#SVGID_00000131363007178173393710000013462162405616332941_);}
	.st119{fill:url(#SVGID_00000039119680883552655540000001157151808467488651_);}
	.st120{fill:url(#SVGID_00000128477525923927068300000002814781781390661550_);}
	.st121{fill:url(#SVGID_00000144296222607345841160000013851939808350305193_);}
	.st122{fill:#142445;}
	.st123{fill:#1C97DA;}
	.st124{fill:#136B9B;}
	.st125{fill:#4E9834;}
	.st126{fill:#7EB436;}
	.st127{fill:#006D2F;}
	.st128{fill:#A07227;}
	.st129{fill:#C1C1C1;}
	.st130{fill:#F98D21;}
	.st131{fill:#4663AF;}
	.st132{fill:#0786A3;}
	.st133{fill:#EB9358;}
	.st134{fill-rule:evenodd;clip-rule:evenodd;fill:url(#SVGID_00000182494822763144229300000000368197220041730727_);}
	.st135{fill-rule:evenodd;clip-rule:evenodd;fill:#B1BCE0;}
	.st136{fill:url(#SVGID_00000122722603433640241520000009990809003863059589_);}
	.st137{fill:#153852;}
	.st138{fill:#327798;}
	.st139{fill:#3A39FF;}
	.st140{fill:#ADE6ED;}
	.st141{fill:#FF0043;}
	.st142{fill:#EAE5E7;}
	.st143{fill:#EFE9E4;}
	.st144{fill:#649936;}
	.st145{fill:#26313D;}
	.st146{fill:#C1B6AA;}
	.st147{fill:#B20443;}
	.st148{fill:#EEF1FC;}
	.st149{fill:#E2B629;}
	.st150{fill:#FFF2DC;}
	.st151{fill:#7A542A;}
	.st152{fill:#B2B2B2;}
</style>
<g id="Layer_1">
</g>
<g id="Layer_2">
</g>
<g id="Layer_3">
</g>
<g id="Layer_4">
</g>
<g id="Layer_5">
</g>
<g id="Layer_6">
</g>
<g id="Layer_7">
</g>
<g id="Layer_8">
</g>
<g id="Layer_9">
</g>
<g id="Layer_10">
</g>
<g id="Layer_11">
</g>
<g id="Layer_12">
</g>
<g id="Layer_13">
</g>
<g id="Layer_14">
</g>
<g id="Layer_15">
	<g>
		<path class="st128" d="M242.2,72.81c3.29,7.75,4.98,16.21,5.03,24.7c0.02,4.24-0.36,8.5-1.13,12.7
			c-0.78,4.19-1.96,8.32-3.49,12.33c-3.07,8.01-7.59,15.52-13.32,22.07c-4.81,5.52-10.48,10.35-16.76,14.28l3.03,7.54l-18.72-2.7
			l-0.96-0.14l-0.01,0l-10.59-1.53l0.23-0.29c-1.89,0.31-3.81,0.54-5.76,0.69c-1.58,0.18-3.18,0.3-4.78,0.37
			c-1.58,0.08-3.16,0.09-4.74,0.06c-1.54-0.03-3.08-0.11-4.62-0.24c-2.9-0.25-5.8-0.69-8.67-1.3c-0.67-0.14-1.33-0.29-1.99-0.45
			c-0.46-0.12-0.93-0.23-1.39-0.35c-3.96-1.06-7.83-2.47-11.56-4.19c-7.47-3.45-14.38-8.23-20.24-14.13
			c-4.71-4.74-8.74-10.21-11.83-16.2c-0.23-0.44-0.45-0.88-0.66-1.32c-0.1-0.2-0.2-0.41-0.29-0.61c-0.4-0.84-0.78-1.69-1.14-2.54
			c-3.3-7.75-4.98-16.21-5.03-24.7c-0.02-4.25,0.36-8.51,1.13-12.7c0.78-4.19,1.96-8.32,3.49-12.33c3.06-8,7.59-15.52,13.32-22.07
			c3.07-3.52,6.49-6.76,10.2-9.66l-3.96-6.77h30.61l-15.3,26.16l-4.61-7.87c-2.76,1.95-5.36,4.13-7.77,6.5
			c-5.18,5.11-9.48,11.15-12.61,17.77c-0.51,1.09-0.99,2.19-1.43,3.3c-0.11,0.27-0.22,0.53-0.32,0.8c-0.01,0.04-0.03,0.08-0.04,0.12
			c-0.1,0.24-0.19,0.49-0.29,0.75c-0.05,0.13-0.09,0.27-0.14,0.4c-0.03,0.06-0.05,0.12-0.07,0.19c-0.56,1.57-1.06,3.16-1.49,4.77
			c-0.04,0.14-0.07,0.29-0.11,0.43c0,0,0,0,0,0c-0.06-0.01-0.12-0.02-0.18-0.03c-0.05,0.22-0.1,0.44-0.15,0.66
			c-0.02,0.11-0.04,0.22-0.07,0.32c-0.03,0.15-0.07,0.31-0.1,0.46c-0.01,0.03-0.01,0.07-0.02,0.1c-0.01,0.05-0.02,0.11-0.04,0.16
			c-0.02,0.1-0.04,0.2-0.06,0.31c-0.01,0.03-0.01,0.06-0.02,0.09c-0.02,0.1-0.04,0.2-0.06,0.3l0.13,0l0,0
			c-0.01,0.05-0.02,0.11-0.04,0.16c-0.01,0.03-0.01,0.06-0.02,0.1c-0.01,0.04-0.02,0.09-0.03,0.13l0,0l-0.13,0.03
			c-0.01,0.03-0.01,0.05-0.01,0.08v0.01c-0.02,0.1-0.04,0.21-0.06,0.31l0.12,0.01l0,0c-0.02,0.1-0.04,0.2-0.06,0.3
			c-0.02,0.11-0.04,0.22-0.06,0.33c0,0.01,0,0.02,0,0.02c0,0.02-0.01,0.05-0.01,0.07c0,0.03-0.01,0.05-0.01,0.08c0,0,0,0.01,0,0.01
			c-0.02,0.1-0.04,0.2-0.06,0.31c-0.01,0.06-0.02,0.12-0.03,0.18c-0.04,0.23-0.08,0.46-0.12,0.69c0,0.03-0.01,0.07-0.01,0.1
			c-0.07,0.43-0.13,0.86-0.19,1.29c-0.01,0-0.01,0-0.01,0.01c-0.01,0.01-0.03,0.01-0.04,0.02c0,0.03-0.01,0.06-0.01,0.09
			c-0.05,0.43-0.1,0.86-0.14,1.29c-0.03,0.32-0.06,0.64-0.08,0.97c0,0.03,0,0.06-0.01,0.09c-0.01,0.09-0.02,0.18-0.02,0.26
			c0,0.07-0.01,0.14-0.01,0.21l0,0l0,0c-0.02,0.19-0.03,0.39-0.05,0.58c0,0.03-0.01,0.06-0.01,0.09c-0.01,0.09-0.02,0.17-0.02,0.26
			c0,0.07-0.01,0.14-0.01,0.2c-0.01,0.1-0.01,0.2-0.02,0.3c-0.01,0.11-0.01,0.22-0.02,0.34c0,0.01,0,0.02,0,0.03
			c0,0.04,0,0.08,0,0.13c0,0.08-0.01,0.17-0.01,0.25c-0.01,0.15-0.02,0.3-0.02,0.45c-0.15,3.77,0.07,7.57,0.67,11.32
			c0.48,2.97,1.2,5.92,2.16,8.79c0.02,0.05,0.03,0.1,0.05,0.14c0.09,0.28,0.19,0.54,0.28,0.81c2.4,6.79,6.13,13.19,10.93,18.78
			c4.95,5.78,11.01,10.71,17.79,14.49c0.04,0.02,0.08,0.05,0.12,0.07c3.18,1.77,6.53,3.28,9.99,4.53c0,0,0,0,0,0
			c0.19,0.07,0.38,0.14,0.57,0.21c0,0,0,0,0,0c0.01,0,0.02,0.01,0.03,0.01c0.05,0.02,0.09,0.04,0.14,0.05
			c1.64,0.57,3.3,1.07,4.98,1.51c0.06,0.02,0.12,0.03,0.18,0.05c0.05,0.01,0.11,0.03,0.17,0.04c2.03,0.52,4.08,0.96,6.16,1.29
			c0.18,0.03,0.36,0.05,0.53,0.08c0.34,0.05,0.68,0.1,1.03,0.15c0.11,0.02,0.22,0.03,0.34,0.05c1.93,0.25,3.88,0.42,5.84,0.51
			c0,0,0,0,0,0c0.16,0.01,0.33,0.02,0.49,0.02c0,0,0,0,0,0c0.04,0,0.09,0,0.13,0.01c0.69,0.03,1.39,0.05,2.08,0.05
			c3.22,0.03,6.46-0.16,9.67-0.58c0.01,0,0.01,0,0.03,0l6.13-7.65l0.23-0.29l0.01-0.01l6.21-7.76l5.68-7.1l0.02-0.03l0.16,0.4
			l2.9,7.21c0.13-0.07,0.26-0.15,0.38-0.23c3.92-2.27,7.6-4.99,10.95-8.08c0.02-0.02,0.04-0.04,0.06-0.05c0,0,0,0,0,0
			c0.25-0.23,0.49-0.46,0.74-0.69c0.02-0.02,0.05-0.04,0.07-0.07c0.04-0.04,0.09-0.08,0.13-0.13c0.14-0.14,0.29-0.27,0.43-0.41
			c0.02-0.02,0.04-0.03,0.05-0.05c0.01-0.01,0.02-0.02,0.03-0.03c0.04-0.04,0.07-0.07,0.11-0.11c4.43-4.39,8.21-9.47,11.15-15.03
			c0.09-0.16,0.17-0.32,0.25-0.49c0.37-0.7,0.72-1.4,1.06-2.11c0.61-1.3,1.18-2.63,1.7-3.97c0.18-0.48,0.37-0.96,0.54-1.44
			c0.04-0.09,0.07-0.19,0.1-0.28c0.05-0.13,0.09-0.27,0.14-0.41c0.01-0.03,0.02-0.06,0.03-0.1c0.01-0.03,0.02-0.05,0.03-0.07
			c0.04-0.13,0.09-0.26,0.13-0.38c0.03-0.08,0.06-0.17,0.09-0.25c0.02-0.06,0.04-0.13,0.06-0.19c0.02-0.05,0.03-0.11,0.05-0.16
			c0.03-0.09,0.05-0.17,0.08-0.26c0.19-0.58,0.37-1.16,0.53-1.75c0.06-0.22,0.12-0.44,0.18-0.65c0.04-0.14,0.08-0.28,0.12-0.43
			c0.05-0.17,0.09-0.34,0.13-0.5c0.02-0.08,0.04-0.16,0.06-0.24c0.04-0.15,0.07-0.3,0.11-0.44c0.02-0.08,0.04-0.16,0.06-0.25
			c0,0,0-0.01,0-0.01c0.04-0.19,0.08-0.37,0.13-0.56c0.01-0.04,0.02-0.08,0.03-0.12c0.01-0.04,0.02-0.09,0.03-0.13
			c0.04-0.16,0.07-0.32,0.1-0.48c0.02-0.08,0.03-0.16,0.05-0.24c0.12-0.56,0.23-1.13,0.33-1.69c0.04-0.25,0.08-0.51,0.13-0.76
			c0.3-1.81,0.52-3.63,0.65-5.45c0.18-2.6,0.17-5.22,0-7.83c-0.03-0.42-0.05-0.85-0.09-1.27c0,0,0-0.01,0-0.01
			c0-0.04-0.01-0.09-0.01-0.14c-0.01-0.08-0.02-0.16-0.02-0.25c-0.03-0.26-0.06-0.51-0.08-0.77h0l0.03,0.02
			c-0.01-0.04-0.01-0.09-0.01-0.13c-0.01-0.08-0.02-0.16-0.02-0.25c-0.04-0.39-0.08-0.79-0.13-1.18l-0.07-0.09l0,0
			c-0.01-0.05-0.01-0.11-0.02-0.16l0,0l0.07,0.05c-0.01-0.04-0.01-0.09-0.02-0.13c-0.11-0.86-0.23-1.72-0.38-2.58
			c-0.08-0.44-0.16-0.89-0.25-1.33c-0.05-0.01-0.1-0.03-0.15-0.04c0,0,0,0-0.01,0c0,0,0,0,0,0c-0.05-0.23-0.1-0.46-0.15-0.69
			c-0.02-0.08-0.04-0.15-0.05-0.23c-0.08-0.35-0.16-0.69-0.25-1.04c-0.02-0.09-0.05-0.19-0.07-0.28c-0.01-0.02-0.01-0.04-0.02-0.06
			c0-0.02-0.01-0.03-0.01-0.05c-0.02-0.07-0.04-0.14-0.06-0.2c-0.05-0.18-0.1-0.35-0.15-0.53h0l0.21,0
			c-0.02-0.09-0.05-0.19-0.07-0.28c0-0.02-0.01-0.04-0.01-0.06l-0.24-0.05c-0.03-0.09-0.05-0.18-0.07-0.26
			c-0.08-0.27-0.16-0.54-0.25-0.82l0,0l0.24-0.01c-0.03-0.1-0.05-0.19-0.08-0.29c-0.1-0.34-0.2-0.68-0.31-1.02l-0.09-0.02l0.08,0
			c-0.02-0.07-0.04-0.15-0.07-0.22c-0.01-0.02-0.01-0.04-0.02-0.06c-0.07-0.23-0.15-0.46-0.23-0.7c-0.01-0.04-0.02-0.07-0.04-0.11
			c-0.02-0.07-0.05-0.13-0.07-0.19c-0.32-0.62-0.65-1.24-1-1.85c-0.01,0-0.01,0.01-0.02,0.01c0,0,0,0,0,0
			c-0.22-0.54-0.44-1.07-0.67-1.6c-0.03-0.06-0.05-0.12-0.08-0.17c-0.18-0.41-0.37-0.82-0.56-1.23c-0.18-0.37-0.36-0.73-0.54-1.1
			c-0.02-0.04-0.03-0.06-0.05-0.09c-0.49-0.97-1-1.94-1.54-2.88c-0.55-0.96-1.13-1.91-1.73-2.84c-0.01-0.02-0.03-0.04-0.04-0.06
			c-0.09-0.14-0.19-0.29-0.28-0.44c-0.11-0.16-0.22-0.32-0.33-0.49c-0.06-0.09-0.14-0.2-0.19-0.29c-0.14-0.2-0.29-0.41-0.43-0.62
			c-1.12-1.59-2.32-3.14-3.6-4.62c-3.21-3.76-6.89-7.15-10.94-10.1c-0.08-0.06-0.16-0.12-0.24-0.17c-0.07-0.05-0.15-0.11-0.23-0.17
			l0.02,0c-0.07-0.1-0.14-0.2-0.21-0.3l-0.13,0.08c-1.38-0.98-2.8-1.9-4.25-2.77c0,0,0,0,0-0.01c-0.43-0.58-1.16-1.1-2.16-1.51
			l0.23,0.24c-0.21-0.07-0.43-0.14-0.67-0.2c0,0,0,0,0,0c-3.21-1.74-6.58-3.23-10.05-4.44c-0.35-0.12-0.7-0.24-1.05-0.35
			c-3.4-1.11-6.89-1.96-10.45-2.53c-7.84-1.27-15.94-1.17-23.85,0.28c7.78-2.03,15.96-2.74,24.08-2.03
			c4.05,0.35,8.09,1.06,12.06,2.11c1.08,0.28,2.16,0.61,3.22,0.94c2.84,0.9,5.63,1.99,8.34,3.24c7.47,3.46,14.38,8.23,20.24,14.13
			C234.13,58.03,238.93,65.05,242.2,72.81z"/>
		<path class="st129" d="M217.61,135.56c-0.2-0.15-0.4-0.31-0.6-0.46c-0.13-0.1-0.26-0.2-0.39-0.31c-0.01-0.01-0.01-0.01-0.02-0.02
			c-0.01-0.01-0.02-0.02-0.04-0.03c-0.12-0.09-0.25-0.19-0.37-0.28c-0.17-0.13-0.33-0.25-0.5-0.38c-0.06-0.04-0.12-0.09-0.18-0.14
			c-0.24-0.18-0.47-0.35-0.71-0.52c-0.64-0.46-1.29-0.89-1.96-1.28c-0.15-0.08-0.29-0.16-0.43-0.23c-0.03-0.01-0.05-0.02-0.08-0.04
			c-0.06-0.03-0.12-0.06-0.18-0.08c-0.05-0.02-0.1-0.05-0.14-0.07c-0.04-0.02-0.07-0.03-0.11-0.05c-0.02-0.01-0.04-0.01-0.05-0.02
			c-0.08-0.03-0.16-0.06-0.23-0.09c-0.02-0.01-0.05-0.02-0.07-0.02c-0.01,0-0.02-0.01-0.04-0.01c-0.1-0.03-0.19-0.06-0.29-0.09
			c-0.03-0.01-0.06-0.02-0.08-0.02c-0.16-0.04-0.32-0.06-0.47-0.08c-0.08-0.01-0.16-0.02-0.24-0.02h-0.05c-0.01,0-0.02,0-0.04,0
			c-0.05,0-0.11,0-0.16,0c-0.03,0-0.06,0-0.09,0c-0.04,0-0.07,0.01-0.11,0.01c-0.05,0.01-0.1,0.01-0.15,0.02
			c-0.03,0-0.05,0.01-0.08,0.01c-0.04,0.01-0.08,0.01-0.11,0.02c0,0,0,0,0,0c0,0,0,0,0,0c0,0,0,0,0,0
			c-0.07,0.02-0.15,0.03-0.22,0.06c-0.04,0.01-0.07,0.02-0.11,0.03c-0.09,0.03-0.18,0.06-0.27,0.1c-0.02,0.01-0.03,0.01-0.05,0.02
			c-0.05,0.02-0.1,0.05-0.14,0.07c-0.06,0.03-0.11,0.05-0.17,0.08c-0.04,0.02-0.08,0.05-0.12,0.07c-0.07,0.04-0.13,0.08-0.2,0.12
			c-0.04,0.03-0.09,0.06-0.14,0.1c-0.06,0.04-0.11,0.08-0.17,0.13c-0.05,0.04-0.1,0.08-0.15,0.12c0,0-0.01,0-0.01,0.01
			c-0.02,0.01-0.04,0.03-0.05,0.04c-0.18,0.15-0.36,0.31-0.55,0.5c0,0-0.01,0.01-0.01,0.01c-0.01,0.01-0.02,0.02-0.04,0.03
			c-0.11,0.11-0.22,0.22-0.33,0.35c-0.01,0.01-0.02,0.02-0.03,0.03c-0.02,0.02-0.05,0.04-0.07,0.06c-0.02,0.02-0.03,0.03-0.05,0.05
			c-0.01,0.01-0.02,0.01-0.02,0.02c-0.03,0.02-0.06,0.04-0.09,0.07c-0.01,0.01-0.03,0.02-0.04,0.03c-0.08,0.06-0.18,0.13-0.31,0.23
			c-0.01-0.05-0.02-0.1-0.03-0.15c0-0.01-0.01-0.02-0.01-0.03c-0.05-0.23-0.1-0.46-0.15-0.69c-0.05-0.21-0.1-0.41-0.15-0.61
			c-0.04-0.14-0.07-0.29-0.1-0.43c-0.03-0.12-0.06-0.24-0.09-0.36c-0.09-0.37-0.19-0.75-0.29-1.12c-0.01-0.02-0.01-0.04-0.02-0.06
			c-1.19-4.36-2.77-8.57-4-12.86c-0.08-0.28-0.16-0.57-0.24-0.85c0-0.01-0.01-0.03-0.01-0.04c-0.01-0.02-0.01-0.04-0.02-0.07
			c-0.05-0.17-0.09-0.33-0.13-0.5c-0.01-0.04-0.02-0.09-0.03-0.13c-0.06-0.23-0.13-0.46-0.18-0.69c-0.03-0.11-0.05-0.22-0.08-0.33
			c-0.03-0.12-0.06-0.24-0.09-0.37c-0.02-0.1-0.05-0.21-0.07-0.31c-0.04-0.15-0.07-0.3-0.1-0.45c-0.01-0.02-0.01-0.05-0.02-0.07
			c-0.05-0.21-0.09-0.41-0.14-0.62c-0.02-0.09-0.04-0.18-0.06-0.28c-0.02-0.1-0.04-0.2-0.06-0.31c-0.01-0.03-0.01-0.06-0.02-0.08
			c-0.05-0.24-0.1-0.48-0.14-0.73c0,0,0,0,0-0.01c-0.01-0.05-0.02-0.1-0.03-0.15c-0.01-0.04-0.01-0.08-0.02-0.12
			c0-0.01,0-0.02-0.01-0.03c-0.06-0.36-0.13-0.73-0.18-1.1c0,0,0,0,0,0c0.16,0.17,0.32,0.34,0.49,0.52c0.6,0.64,1.19,1.28,1.78,1.93
			c0.32,0.35,0.63,0.7,0.94,1.05c0.24,0.27,0.48,0.55,0.71,0.82c0.11,0.12,0.22,0.25,0.32,0.37c0.03,0.04,0.07,0.07,0.1,0.11
			c0.01-0.01,0.01-0.01,0.02-0.02c0,0,0.01-0.01,0.01-0.01c0,0,0,0,0.01-0.01c0.03-0.02,0.05-0.05,0.08-0.07
			c0.02-0.02,0.03-0.03,0.05-0.04c0.01,0,0.01-0.01,0.02-0.01c0.05,0.12,0.1,0.23,0.15,0.35c0.04,0.08,0.07,0.16,0.11,0.25
			c0,0.01,0,0.01,0.01,0.01l-0.05-0.01l-0.01,0l-0.01,0l-0.02-0.01c0,0,0,0,0,0c0.05,0.06,0.1,0.12,0.15,0.18
			c0.25,0.3,0.5,0.6,0.75,0.9c0.18,0.21,0.35,0.42,0.53,0.64c0.06,0.08,0.13,0.16,0.19,0.24c0.6,0.73,1.18,1.47,1.76,2.22
			c0.49,0.63,0.97,1.27,1.46,1.9c0.89,1.18,1.78,2.36,2.65,3.56c0.8,1.11,1.6,2.22,2.39,3.34c0.36,0.51,0.71,1.02,1.06,1.52
			c1.33,1.91,2.66,3.83,3.98,5.75c-0.02,0.02-0.05,0.04-0.07,0.07c-0.25,0.24-0.49,0.46-0.74,0.69
			C218.31,136.11,217.97,135.83,217.61,135.56z M154.2,156.72c0.01,0,0.02,0.01,0.03,0.01c0.04,0.02,0.09,0.04,0.14,0.05
			c1.64,0.57,3.3,1.07,4.98,1.51c0.06,0.01,0.12,0.03,0.18,0.04c0.05,0.01,0.11,0.03,0.16,0.04c2.02,0.52,4.08,0.96,6.15,1.29
			c0.18,0.03,0.35,0.05,0.53,0.08c0.34,0.05,0.68,0.1,1.03,0.15c0.11,0.02,0.22,0.03,0.34,0.05c1.93,0.25,3.88,0.42,5.83,0.51
			c-0.19-0.29-0.39-0.57-0.59-0.85c-0.19-0.29-0.39-0.57-0.59-0.85c-0.16-0.24-0.33-0.47-0.49-0.71c-0.4-0.58-0.8-1.16-1.21-1.74
			c-0.41-0.59-0.82-1.18-1.23-1.77c-0.32-0.45-0.63-0.9-0.95-1.35c-0.57-0.81-1.15-1.62-1.72-2.43c-0.21-0.3-0.42-0.59-0.64-0.89
			c-0.59-0.83-1.19-1.66-1.79-2.48c-0.57-0.78-1.14-1.56-1.71-2.34c-0.63-0.85-1.27-1.71-1.91-2.56c-1.97-2.62-3.98-5.21-6.05-7.76
			c-1.78-2.2-3.61-4.36-5.49-6.49c-0.25-0.28-0.5-0.57-0.75-0.85c-0.66-0.74-1.32-1.46-1.99-2.19c-0.06-0.06-0.11-0.13-0.17-0.19
			c-0.71-0.77-1.42-1.52-2.15-2.28c0.07,0.49,0.15,0.99,0.23,1.47c0.01,0.06,0.02,0.11,0.03,0.17c0.07,0.41,0.15,0.82,0.22,1.23
			c0.02,0.11,0.04,0.21,0.06,0.32c0.08,0.42,0.16,0.84,0.25,1.26c0.01,0.04,0.01,0.08,0.02,0.12c0.12,0.57,0.25,1.14,0.38,1.71
			c0.05,0.21,0.1,0.41,0.15,0.62c0.09,0.38,0.18,0.76,0.28,1.14c0.02,0.1,0.05,0.19,0.07,0.29c0.06,0.24,0.12,0.47,0.18,0.71
			c0,0.01,0.01,0.03,0.01,0.04c0.13,0.5,0.26,0.99,0.4,1.49c0.14,0.49,0.28,0.99,0.42,1.48c0.36,1.24,0.74,2.49,1.13,3.72
			c1.87,5.98,3.99,11.91,5.64,18.03v0C153.82,156.59,154.01,156.66,154.2,156.72z M212.92,103.84
			C212.92,103.84,212.92,103.84,212.92,103.84c0.07-0.11,0.14-0.22,0.21-0.33c0.19-0.29,0.38-0.58,0.56-0.86
			c0.33-0.51,0.64-0.99,0.94-1.44c-0.65-0.72-1.29-1.44-1.93-2.16c-0.64-0.72-1.29-1.44-1.93-2.15c-0.38-0.41-0.94-0.65-1.41-0.97
			c-0.02,0.03-0.03,0.05-0.05,0.07c-0.02,0.02-0.03,0.04-0.05,0.07c-0.03,0.04-0.05,0.07-0.08,0.11c-0.01,0.01-0.01,0.02-0.02,0.03
			c0,0,0,0,0,0c0,0,0,0,0,0c0,0,0,0,0,0C210.41,98.76,211.67,101.3,212.92,103.84z M216.35,110.78c-0.13-0.27-0.27-0.55-0.4-0.82
			c0,0,0,0,0,0c0,0,0-0.01,0.01-0.01c0.03-0.06,0.05-0.12,0.08-0.17c0.28-0.62,0.57-1.24,0.85-1.87c0.03-0.06,0.06-0.13,0.09-0.19
			c0.01-0.03,0.02-0.05,0.03-0.08c0.02-0.04,0.03-0.07,0.05-0.11c0.03-0.06,0.05-0.12,0.08-0.17c0.08-0.18,0.16-0.36,0.24-0.54
			c0.25-0.57,0.51-1.15,0.75-1.72v0c0,0,0,0,0,0c2.83,3.17,5.67,6.33,8.5,9.51c0,0,0,0,0,0c0,0.01,0.01,0.01,0.01,0.02
			c0.07,0.08,0.1,0.19,0.09,0.35c0,0.01,0,0.03,0,0.04c-0.01,0.06-0.02,0.12-0.04,0.2c-1.82-1.47-3.64-2.94-5.63-4.54
			c-0.18-0.14-0.36-0.29-0.54-0.44c-0.05-0.04-0.1-0.08-0.15-0.12c-0.01,0.03-0.01,0.07-0.02,0.1c-0.01,0.04-0.01,0.07-0.02,0.11
			c-0.01,0.07-0.02,0.13-0.03,0.2c-0.01,0.09-0.03,0.18-0.04,0.27c-0.02,0.11-0.04,0.23-0.05,0.34c-0.03,0.19-0.06,0.39-0.09,0.58
			c-0.03,0.18-0.06,0.36-0.08,0.54c0,0.02-0.01,0.04-0.01,0.05c-0.01,0.06-0.02,0.12-0.03,0.18c-0.01,0.05-0.01,0.09-0.02,0.13
			c-0.01,0.07-0.02,0.15-0.03,0.22c-0.02,0.14-0.04,0.27-0.06,0.41c-0.02,0.15-0.05,0.31-0.07,0.46c-0.07,0.47-0.15,0.93-0.22,1.39
			c0,0.03-0.01,0.05-0.01,0.08c0,0.01,0,0.02-0.01,0.03c-0.05,0.33-0.1,0.65-0.15,0.98c-0.01,0-0.02,0.01-0.03,0.01
			c-0.01,0-0.01,0-0.02,0.01c-0.02,0-0.03,0.01-0.05,0.01c-0.06,0.02-0.13,0.03-0.19,0.04c-0.01,0-0.03,0.01-0.04,0.01c0,0,0,0,0,0
			c-0.34-0.69-0.68-1.38-1.03-2.07c-0.06-0.12-0.12-0.25-0.18-0.37c-0.12-0.24-0.23-0.48-0.35-0.71c-0.25-0.51-0.51-1.03-0.76-1.54
			C216.61,111.31,216.48,111.04,216.35,110.78z M127.88,131.54c-0.11-0.34-0.12-0.59-0.03-0.76c0.02-0.04,0.04-0.07,0.06-0.1
			c0.04-0.04,0.09-0.08,0.15-0.1c0.01,0,0.02,0,0.03-0.01c0.18-0.07,0.44-0.08,0.78-0.02c0.36,0.06,0.74,0.2,1.09,0.39
			c0.01,0.01,0.03,0.01,0.05,0.02c0.01,0.01,0.02,0.01,0.03,0.02c0.11,0.06,0.21,0.13,0.31,0.21c0.11,0.08,0.21,0.17,0.29,0.26
			c0.15,0.16,0.3,0.32,0.44,0.48c0.07,0.08,0.14,0.15,0.21,0.23c0.14,0.15,0.27,0.3,0.41,0.44c0.58,0.63,1.16,1.25,1.73,1.88
			c0.23,0.25,0.45,0.51,0.68,0.76c0.38,0.42,0.76,0.84,1.14,1.27c0.06,0.07,0.12,0.14,0.18,0.21c0.71,0.8,1.41,1.6,2.11,2.4
			c0.06,0.07,0.12,0.13,0.17,0.2c0.46,0.53,0.91,1.07,1.36,1.61c0.38,0.46,0.77,0.92,1.15,1.38c0.32,0.4,0.64,0.8,0.96,1.2
			c0.2,0.24,0.39,0.49,0.59,0.73c0.28,0.36,0.56,0.71,0.84,1.07c0.08,0.1,0.15,0.2,0.22,0.29c0.16,0.21,0.33,0.43,0.49,0.64
			c1,1.31,1.97,2.64,2.91,4.01c0,0,0,0,0,0c0.04,0.07,0.08,0.14,0.12,0.21c0,0,0,0.01,0.01,0.01c0.04,0.07,0.07,0.15,0.11,0.22
			c0,0,0,0,0,0c-0.01,0.01-0.01,0.01-0.02,0.02c-0.01,0.01-0.01,0.01-0.02,0.02c-0.01,0.01-0.03,0.02-0.04,0.03
			c-0.06,0.05-0.12,0.1-0.17,0.15c0,0,0,0,0,0c-0.2-0.19-0.4-0.38-0.6-0.58c-0.12-0.11-0.23-0.22-0.35-0.33
			c-0.01-0.01-0.01-0.01-0.02-0.02c-0.05-0.04-0.09-0.09-0.14-0.13c-1.04-0.99-2.08-1.99-3.13-2.98c-0.3-0.28-0.6-0.57-0.9-0.85
			c-0.16-0.15-0.32-0.3-0.48-0.45c-0.09-0.08-0.18-0.17-0.27-0.25c-0.03-0.03-0.07-0.06-0.1-0.09c-0.28-0.26-0.57-0.53-0.85-0.79
			c-0.27-0.24-0.53-0.49-0.8-0.73c-1.32-1.2-1.61-1.44-2.54-0.81c-0.09,0.06-0.2,0.14-0.31,0.22c-0.06,0.05-0.13,0.09-0.2,0.15
			c-0.12,0.09-0.24,0.18-0.37,0.29c-0.15,0.11-0.28,0.24-0.42,0.34c-0.13,0.09-0.24,0.17-0.35,0.24c-0.04,0.02-0.07,0.04-0.11,0.06
			c-0.09,0.06-0.18,0.1-0.27,0.14c-0.04,0.02-0.07,0.03-0.11,0.04c-0.15,0.05-0.29,0.07-0.41,0.03c0,0,0,0,0,0c0,0,0,0,0,0
			c0,0,0,0,0,0c-0.05-0.01-0.09-0.03-0.13-0.06c0,0,0,0,0,0c-0.01-0.01-0.02-0.01-0.03-0.02c-0.04-0.03-0.08-0.06-0.12-0.1
			c0,0,0,0,0,0c-0.03-0.03-0.06-0.07-0.09-0.11c0,0,0,0-0.01-0.01c-0.01-0.02-0.02-0.03-0.03-0.05c0,0-0.01-0.01-0.01-0.01
			c-0.02-0.02-0.03-0.05-0.05-0.07c-0.01-0.01-0.02-0.03-0.02-0.04c0,0,0,0,0-0.01c0,0,0,0,0,0c-0.02-0.04-0.05-0.09-0.07-0.13
			c0,0,0,0,0,0c-0.03-0.06-0.06-0.12-0.08-0.18c0,0,0,0,0-0.01c-0.01-0.01-0.01-0.02-0.02-0.04c-0.01-0.01-0.01-0.03-0.02-0.04
			c-0.02-0.05-0.04-0.1-0.07-0.16c-0.36-0.92-0.7-1.85-1.05-2.77c-0.09-0.24-0.18-0.48-0.28-0.72c-0.03-0.07-0.06-0.15-0.08-0.22
			c-0.1-0.25-0.2-0.5-0.3-0.75c-0.06-0.16-0.13-0.31-0.19-0.47c-0.02-0.05-0.04-0.11-0.06-0.16c-0.08-0.21-0.17-0.41-0.26-0.62
			c-0.09-0.21-0.18-0.42-0.26-0.63c-0.18-0.43-0.37-0.85-0.56-1.28c-0.14-0.33-0.28-0.66-0.43-0.99c-0.42-0.96-0.85-1.92-1.28-2.87
			C127.96,131.75,127.92,131.64,127.88,131.54z M199.49,141.13c0,0-0.01,0.01-0.01,0.01c-0.01,0-0.01,0.01-0.02,0.01
			c-0.06,0.05-0.13,0.11-0.19,0.16c0,0,0,0,0,0c-0.84-0.92-1.69-1.84-2.55-2.77c-0.73-0.8-1.48-1.61-2.23-2.43
			c-0.57-0.62-1.15-1.25-1.74-1.89c0,0,0,0,0,0c-0.09,0.2-0.18,0.39-0.26,0.56c0,0.01-0.01,0.02-0.01,0.03c0,0,0,0,0,0
			c0,0.01-0.01,0.01-0.01,0.02c-0.05,0.1-0.09,0.2-0.14,0.3c-0.06,0.14-0.13,0.27-0.19,0.4c-0.11,0.24-0.22,0.47-0.33,0.7
			c0,0,0,0.01,0,0.01c0,0,0,0,0,0c0,0,0,0,0,0c0,0.01-0.01,0.01-0.01,0.02c-0.12,0.25-0.24,0.45-0.37,0.58
			c-0.1,0.11-0.21,0.19-0.32,0.22c-0.02,0-0.03,0.01-0.05,0.01c-0.27,0.05-0.56-0.17-0.9-0.66c-0.89-1.28-1.69-2.6-2.47-3.93
			c-1.84-3.12-3.63-6.27-5.43-9.41c0,0,0,0,0,0c0,0,0,0,0,0c0.36,0.01,0.73,0.02,1.09,0.03c0.03,0,0.05,0,0.08,0
			c0.4,0.01,0.8,0.02,1.21,0.04c0,0,0,0,0,0l0,0c0.23,0.25,0.46,0.51,0.7,0.77c0.61,0.66,1.21,1.33,1.81,1.99
			c0.89,0.97,1.77,1.94,2.65,2.92c2.58,2.85,5.14,5.72,7.68,8.61c0.07,0.08,0.13,0.16,0.2,0.24c0.27,0.34,0.51,0.72,0.73,1.1
			c0.19,0.34,0.37,0.69,0.55,1.04c0.09,0.18,0.19,0.37,0.28,0.55c0.01,0.02,0.02,0.04,0.03,0.06c0.05,0.09,0.1,0.18,0.15,0.28
			c0.05,0.09,0.1,0.18,0.15,0.27c0.01,0.02,0.02,0.04,0.03,0.06c0,0,0,0,0,0C199.55,141.07,199.52,141.1,199.49,141.13z
			 M135.01,96.55c0-0.01,0-0.02,0-0.03c0,0,0,0,0,0c0-0.02,0-0.05,0.01-0.07c0-0.04,0.02-0.08,0.03-0.12
			c0.04-0.11,0.11-0.2,0.22-0.25c0.04-0.02,0.07-0.03,0.12-0.05c0.03-0.01,0.06-0.01,0.09-0.01c0.03,0,0.06-0.01,0.1-0.01
			c0.04,0,0.08,0,0.13,0c0.11,0,0.22,0.02,0.35,0.04c0.05,0.01,0.1,0.02,0.15,0.03c0.09,0.02,0.18,0.04,0.27,0.07
			c0.48,0.15,0.95,0.42,1.27,0.76c0.23,0.25,0.46,0.5,0.69,0.74c0,0,0,0,0,0c0.01,0.01,0.01,0.01,0.02,0.02
			c0.65,0.7,1.3,1.41,1.95,2.13c0.46,0.5,0.91,1.01,1.36,1.51c0.08,0.08,0.15,0.17,0.23,0.25c0.4,0.44,0.79,0.89,1.18,1.33
			c0.21,0.24,0.41,0.48,0.62,0.72c0.41,0.47,0.81,0.93,1.22,1.4c0.42,0.5,0.84,1,1.26,1.5c0.62,0.75,1.24,1.51,1.85,2.27
			c0.65,0.82,1.3,1.65,1.93,2.49c0.27,0.36,0.54,0.72,0.8,1.08c0.05,0.07,0.1,0.13,0.14,0.19c0.01,0.01,0.02,0.02,0.02,0.03
			c0.51,0.7,1.02,1.41,1.52,2.12c0.03,0.04,0.06,0.09,0.09,0.13c0.04,0.06,0.07,0.12,0.11,0.18c0,0,0,0,0,0c0,0,0,0,0,0c0,0,0,0,0,0
			l0,0c0,0,0,0,0,0c0.04,0.08,0.08,0.15,0.12,0.23c0,0,0,0,0,0c0,0,0,0,0,0c-0.08,0.07-0.16,0.14-0.25,0.2c0,0,0,0,0,0
			c-0.86-0.82-1.71-1.63-2.57-2.44c-0.13-0.13-0.27-0.25-0.4-0.38c-0.64-0.61-1.29-1.22-1.93-1.83c-0.14-0.14-0.29-0.27-0.43-0.41
			c0,0-0.01-0.01-0.01-0.01c-0.05-0.05-0.1-0.09-0.15-0.14c-0.03-0.03-0.07-0.06-0.1-0.1c-0.1-0.09-0.19-0.18-0.29-0.27
			c-0.2-0.19-0.41-0.37-0.61-0.56c-0.11-0.1-0.21-0.2-0.32-0.3c-0.16-0.14-0.31-0.29-0.47-0.43c-0.25-0.23-0.46-0.42-0.65-0.58
			c-0.07-0.06-0.13-0.11-0.19-0.16c-0.37-0.29-0.63-0.41-0.92-0.36c-0.37,0.06-0.77,0.38-1.49,0.94c-0.02,0.01-0.03,0.03-0.05,0.04
			c0,0-0.01,0.01-0.01,0.01c-0.02,0.02-0.04,0.04-0.07,0.05c-0.07,0.06-0.14,0.12-0.22,0.18c-0.01,0.01-0.02,0.01-0.03,0.02
			c-0.01,0-0.01,0.01-0.02,0.01c-0.01,0.01-0.01,0.01-0.02,0.02c-0.39,0.28-0.68,0.45-0.92,0.5c-0.01,0-0.03,0.01-0.04,0.01
			c-0.04,0.01-0.08,0.01-0.11,0.01c0,0,0,0-0.01,0c-0.34-0.01-0.58-0.34-0.85-1.03c-0.22-0.56-0.43-1.13-0.64-1.7
			c-0.03-0.07-0.06-0.15-0.08-0.22c-0.02-0.06-0.05-0.12-0.07-0.19c-0.16-0.43-0.33-0.87-0.49-1.3c-0.17-0.45-0.35-0.89-0.53-1.33
			c-0.02-0.04-0.03-0.08-0.05-0.12c-0.16-0.4-0.33-0.79-0.49-1.18c-0.08-0.18-0.16-0.36-0.23-0.53c-0.23-0.54-0.48-1.08-0.71-1.62
			c-0.25-0.57-0.5-1.15-0.75-1.72c-0.02-0.04-0.04-0.08-0.05-0.12c-0.04-0.09-0.08-0.18-0.12-0.28c-0.09-0.21-0.19-0.42-0.28-0.64
			c-0.13-0.29-0.2-0.53-0.21-0.72c0,0,0,0,0,0C135.01,96.56,135.01,96.55,135.01,96.55z M186.23,87.49c0.02-0.03,0.05-0.07,0.07-0.1
			c0,0,0.01-0.01,0.01-0.01c0.06-0.09,0.13-0.17,0.19-0.26c0,0,0,0,0,0c0,0,0,0,0,0c0.01-0.01,0.02-0.02,0.03-0.04c0,0,0,0,0,0
			c0.58,0.32,1.3,0.51,1.78,0.92c0.03,0.02,0.06,0.05,0.08,0.08c0.01,0.01,0.02,0.02,0.03,0.03c0.02,0.02,0.04,0.03,0.05,0.05
			c1.67,1.83,3.35,3.66,5.01,5.5c1.94,2.14,3.86,4.28,5.78,6.44c0.74,0.83,1.47,1.66,2.2,2.49c0.16,0.18,0.3,0.37,0.43,0.57
			c0.05,0.07,0.09,0.14,0.14,0.22c0.03,0.04,0.06,0.09,0.09,0.13c0,0,0.01,0.01,0.01,0.01c0,0,0,0,0,0c0,0,0,0,0,0
			c-0.06,0.05-0.12,0.1-0.18,0.15l0.31,0.07c0,0,0,0,0,0c0,0,0,0,0,0c0.06,0.1,0.11,0.2,0.16,0.3c0.03,0.05,0.05,0.1,0.08,0.14
			c0.04,0.07,0.08,0.14,0.11,0.22c0.04,0.08,0.09,0.16,0.13,0.24c0.01,0.03,0.03,0.05,0.04,0.08c0.17,0.34,0.34,0.67,0.52,1
			c0.02,0.04,0.04,0.07,0.06,0.11c0.01,0.03,0.03,0.05,0.04,0.08c0.01,0.01,0.02,0.03,0.02,0.04c0.01,0.03,0.03,0.05,0.04,0.08
			c0,0,0,0,0,0c0,0,0,0,0,0c-0.08,0.07-0.17,0.14-0.26,0.22c-0.02,0.01-0.03,0.03-0.05,0.04c-2.01-2.19-4.02-4.37-6.22-6.76
			c0,0,0,0,0,0c-0.06,0.13-0.12,0.25-0.17,0.37c-0.08,0.18-0.16,0.34-0.23,0.49c-0.04,0.08-0.07,0.15-0.1,0.23
			c-0.02,0.04-0.04,0.08-0.05,0.11c-0.04,0.08-0.07,0.15-0.11,0.23c-0.08,0.17-0.16,0.33-0.23,0.5c-0.02,0.05-0.05,0.09-0.07,0.14
			c-0.01,0.02-0.02,0.03-0.02,0.05c-0.02,0.04-0.04,0.08-0.07,0.11c-0.01,0.02-0.03,0.05-0.04,0.07c-0.01,0.02-0.02,0.03-0.03,0.05
			c-0.01,0.01-0.02,0.03-0.03,0.04c-0.02,0.03-0.04,0.05-0.06,0.08c0,0,0,0.01-0.01,0.01c-0.02,0.02-0.04,0.04-0.05,0.06
			c-0.01,0.01-0.02,0.02-0.03,0.03c-0.02,0.02-0.03,0.03-0.05,0.05c0,0,0,0,0,0c-0.02,0.01-0.03,0.02-0.05,0.03c0,0,0,0,0,0
			c-0.02,0.01-0.03,0.02-0.05,0.03c0,0,0,0,0,0c-0.01,0.01-0.03,0.01-0.04,0.02c-0.02,0.01-0.03,0.01-0.05,0.02
			c-0.02,0.01-0.03,0.01-0.05,0.01c0,0,0,0,0,0c-0.02,0-0.03,0-0.05,0.01c-0.01,0-0.03,0-0.04,0c-0.02,0-0.04,0-0.07-0.01
			c-0.01,0-0.01,0-0.02,0c0,0-0.01,0-0.01,0c-0.01,0-0.02-0.01-0.04-0.01c-0.01,0-0.03-0.01-0.04-0.02c0,0-0.01,0-0.01-0.01
			c0,0-0.01,0-0.01-0.01c-0.03-0.01-0.06-0.03-0.08-0.05c-0.01,0-0.01-0.01-0.02-0.01c0,0,0,0-0.01,0
			c-0.03-0.02-0.06-0.04-0.09-0.07c-0.01-0.01-0.02-0.01-0.02-0.02c-0.03-0.03-0.06-0.06-0.09-0.09c-0.01-0.01-0.02-0.02-0.03-0.03
			c-0.03-0.03-0.05-0.06-0.08-0.1c-0.01-0.02-0.03-0.03-0.04-0.05c-0.03-0.04-0.06-0.08-0.09-0.13c-0.01-0.01-0.01-0.02-0.02-0.03
			c0,0,0,0,0,0c-0.3-0.43-0.59-0.87-0.87-1.31c-0.11-0.17-0.21-0.34-0.32-0.51c-0.05-0.08-0.1-0.16-0.15-0.24
			c-0.01-0.01-0.02-0.03-0.03-0.04c-0.01-0.01-0.02-0.03-0.02-0.04c-0.33-0.53-0.65-1.07-0.96-1.61c-0.05-0.09-0.11-0.18-0.16-0.28
			c-0.42-0.71-0.82-1.42-1.24-2.13c0-0.01-0.01-0.02-0.01-0.02c-0.42-0.72-0.84-1.44-1.26-2.16c-0.37-0.65-0.74-1.29-1.11-1.94
			c-0.1-0.17-0.2-0.34-0.29-0.51c-0.3-0.52-0.6-1.04-0.9-1.57c-0.1-0.17-0.2-0.34-0.29-0.51c-0.03-0.05-0.05-0.09-0.08-0.14
			c-0.17-0.29-0.31-0.6-0.45-0.91C186.3,87.64,186.27,87.56,186.23,87.49z M170.56,81.93C170.56,81.93,170.56,81.93,170.56,81.93
			C170.56,81.93,170.56,81.93,170.56,81.93c1.34,1.4,2.62,2.83,3.87,4.28c2.84,3.31,5.48,6.77,8.03,10.29
			c1.66,2.3,3.29,4.64,4.9,6.98c0.02,0.03,0.03,0.05,0.05,0.08c0.98,1.42,1.95,2.84,2.93,4.27c0.03,0.04,0.05,0.08,0.08,0.12
			c0.06,0.09,0.13,0.18,0.19,0.27c0.08,0.12,0.17,0.25,0.25,0.37c-0.01,0.01-0.01,0.01-0.02,0.02c-0.01,0.01-0.01,0.01-0.02,0.02
			c-0.01,0.01-0.01,0.01-0.02,0.02c-0.05,0.05-0.1,0.11-0.14,0.16c0,0,0,0-0.01,0.01c-0.01,0.01-0.01,0.02-0.02,0.02c0,0,0,0,0,0
			c-0.2-0.17-0.39-0.34-0.59-0.51c-0.31-0.27-0.61-0.53-0.92-0.79c-0.15-0.13-0.3-0.26-0.45-0.39c-0.09-0.08-0.18-0.15-0.27-0.23
			c-0.09-0.07-0.17-0.14-0.26-0.21c-0.02-0.01-0.03-0.03-0.05-0.04c-0.05-0.04-0.09-0.07-0.14-0.11c-0.11-0.09-0.23-0.18-0.34-0.27
			c-0.04-0.03-0.08-0.06-0.12-0.09c-0.1-0.08-0.2-0.16-0.31-0.24c-0.03-0.02-0.06-0.04-0.09-0.07c-0.16-0.12-0.31-0.24-0.47-0.36
			c-0.05-0.04-0.1-0.08-0.15-0.11c-0.22-0.17-0.44-0.34-0.66-0.5c-0.74-0.56-1.49-1.1-2.27-1.59c-0.02-0.01-0.03-0.02-0.05-0.03
			c-0.19-0.12-0.37-0.24-0.56-0.35c-0.1-0.06-0.2-0.11-0.29-0.16c0,0,0,0,0,0c-0.35-0.19-0.69-0.33-1.01-0.43
			c-0.01,0-0.02-0.01-0.03-0.01c-0.07-0.02-0.13-0.04-0.2-0.06c-0.02-0.01-0.05-0.02-0.07-0.02c-0.02,0-0.03-0.01-0.05-0.01
			c-0.03-0.01-0.05-0.01-0.08-0.02c-0.01,0-0.03-0.01-0.04-0.01c-0.07-0.01-0.13-0.03-0.2-0.04c-0.02,0-0.03,0-0.05,0
			c-0.03,0-0.06-0.01-0.09-0.01c-0.02,0-0.04,0-0.06-0.01c0,0-0.01,0-0.01,0c-0.01,0-0.03,0-0.04,0c-0.02,0-0.04,0-0.06-0.01
			c-0.01,0-0.01,0-0.02,0c-0.01,0-0.02,0-0.03,0c-0.27-0.01-0.53,0.02-0.79,0.08c-0.06,0.01-0.13,0.03-0.19,0.05
			c-0.08,0.02-0.16,0.05-0.25,0.08c-0.26,0.1-0.52,0.24-0.78,0.41c-0.22,0.14-0.44,0.31-0.66,0.51c-0.08,0.07-0.17,0.16-0.25,0.24
			c-0.02,0.02-0.04,0.04-0.06,0.06c-0.12,0.11-0.23,0.24-0.35,0.36c-0.05,0.05-0.1,0.1-0.17,0.15c-0.04,0.03-0.08,0.06-0.12,0.09
			c-0.02,0.01-0.03,0.03-0.05,0.04c-0.02,0.02-0.04,0.03-0.06,0.05c-0.01,0.01-0.02,0.01-0.02,0.02c-0.01,0.01-0.01,0.01-0.02,0.01
			c-0.02,0.01-0.04,0.03-0.06,0.04c-0.01,0.01-0.02,0.02-0.04,0.03c-0.01,0.01-0.02,0.02-0.04,0.03c0,0,0,0,0,0
			c-0.14-0.66-0.29-1.31-0.46-1.96c-0.13-0.53-0.27-1.05-0.42-1.57c-0.21-0.77-0.43-1.53-0.66-2.29c-0.05-0.18-0.11-0.36-0.17-0.53
			c-1.47-4.73-3.21-9.35-4.14-14.19C170.76,83.2,170.65,82.57,170.56,81.93z M165.07,115.77
			C165.07,115.77,165.07,115.77,165.07,115.77C165.07,115.77,165.07,115.77,165.07,115.77c0.04,0.04,0.08,0.08,0.12,0.13
			c0.4,0.42,0.79,0.84,1.19,1.27c0.02,0.02,0.03,0.04,0.05,0.05c1.41,1.53,2.78,3.1,4.1,4.7c0.07,0.09,0.15,0.18,0.22,0.26
			c0.02,0.03,0.05,0.06,0.07,0.09c0.17,0.2,0.33,0.4,0.49,0.6c0.01,0.01,0.01,0.02,0.02,0.03c0.02,0.02,0.04,0.04,0.05,0.07
			c2.52,3.09,4.89,6.29,7.19,9.53c0.34,0.48,0.67,0.96,1.01,1.43c0.18,0.26,0.37,0.53,0.55,0.79c0.93,1.33,1.86,2.66,2.78,3.99
			c1.15,1.67,2.29,3.33,3.44,5c-0.03,0.03-0.05,0.06-0.08,0.09c-0.02,0.03-0.05,0.06-0.07,0.08c-0.03,0.03-0.06,0.06-0.09,0.1
			c0,0,0,0,0,0c-0.31-0.26-0.61-0.53-0.91-0.79c-0.16-0.14-0.32-0.28-0.49-0.42c-0.3-0.26-0.61-0.53-0.92-0.79
			c-0.12-0.1-0.25-0.21-0.37-0.31c0,0-0.01,0-0.01-0.01c0,0,0,0-0.01-0.01c-0.01-0.01-0.02-0.02-0.04-0.03
			c-0.18-0.15-0.36-0.29-0.54-0.43c-0.22-0.17-0.43-0.33-0.65-0.5c-0.08-0.06-0.17-0.13-0.25-0.19c-0.02-0.02-0.04-0.03-0.06-0.05
			c-1.12-0.87-2.25-1.73-3.45-2.46c-0.04-0.02-0.07-0.04-0.11-0.07c-0.01,0-0.02-0.01-0.02-0.01c-0.08-0.05-0.15-0.09-0.23-0.14
			c-0.24-0.14-0.46-0.26-0.69-0.36c-0.01-0.01-0.02-0.01-0.03-0.02c-0.06-0.03-0.12-0.05-0.18-0.08c-0.01-0.01-0.02-0.01-0.04-0.01
			c-0.08-0.03-0.16-0.07-0.24-0.1c0,0-0.01,0-0.01,0c-0.01,0-0.01,0-0.02-0.01c-0.08-0.03-0.15-0.05-0.23-0.07
			c-0.07-0.02-0.14-0.05-0.21-0.07c-0.02,0-0.03-0.01-0.05-0.01c-0.13-0.03-0.25-0.06-0.37-0.08c-0.02,0-0.03-0.01-0.05-0.01
			c-0.13-0.02-0.26-0.03-0.38-0.03c-0.02,0-0.05,0-0.07,0c-0.01,0-0.01,0-0.02,0c-0.1,0-0.19,0.01-0.29,0.01c-0.01,0-0.02,0-0.03,0
			c-0.01,0-0.03,0-0.04,0c-0.12,0.01-0.25,0.04-0.37,0.07c-0.01,0-0.02,0-0.03,0.01c-0.01,0-0.03,0.01-0.04,0.01
			c-0.08,0.02-0.16,0.05-0.23,0.08c-0.17,0.06-0.34,0.13-0.5,0.21c0,0-0.01,0-0.01,0.01c-0.01,0.01-0.03,0.01-0.04,0.02
			c-0.11,0.06-0.22,0.13-0.33,0.2c-0.01,0.01-0.03,0.01-0.04,0.02c-0.34,0.23-0.69,0.52-1.04,0.87c-0.12,0.12-0.24,0.24-0.36,0.37
			c0,0,0,0,0,0c0,0,0,0,0,0c-0.01,0.01-0.03,0.03-0.04,0.04c0,0-0.01,0.01-0.01,0.01c-0.01,0.01-0.02,0.02-0.03,0.03
			c-0.01,0.01-0.02,0.02-0.03,0.02c-0.08,0.07-0.19,0.15-0.36,0.27c-0.04,0.03-0.09,0.07-0.14,0.11c0,0,0,0,0,0c0,0,0,0,0,0
			c-0.01-0.06-0.03-0.13-0.04-0.19c-0.02-0.1-0.04-0.19-0.06-0.29c-0.02-0.1-0.04-0.19-0.06-0.29c-0.05-0.23-0.11-0.47-0.17-0.7
			c-0.72-3-1.66-5.91-2.61-8.81c-0.09-0.27-0.17-0.54-0.26-0.8c-0.18-0.54-0.36-1.09-0.53-1.63c-0.22-0.68-0.44-1.37-0.65-2.06
			c-0.16-0.51-0.31-1.03-0.46-1.54c-0.1-0.33-0.19-0.67-0.28-1.01c-0.05-0.19-0.11-0.38-0.16-0.57c-0.19-0.71-0.37-1.42-0.53-2.14
			c0-0.02-0.01-0.04-0.01-0.06c0-0.02-0.01-0.03-0.01-0.05c-0.02-0.07-0.03-0.14-0.05-0.21c-0.07-0.32-0.14-0.64-0.2-0.96
			c0-0.02-0.01-0.04-0.01-0.06c-0.01-0.04-0.02-0.09-0.03-0.13c-0.03-0.18-0.07-0.35-0.1-0.53c0-0.03-0.01-0.05-0.01-0.08
			C165.22,116.73,165.14,116.25,165.07,115.77z"/>
		<path class="st128" d="M113.2,86.61c-0.05,0.22-0.1,0.44-0.15,0.66c-0.02,0.11-0.04,0.22-0.07,0.32c-0.03,0.15-0.07,0.31-0.1,0.46
			c-0.01,0.03-0.01,0.07-0.02,0.1c-0.01,0.05-0.02,0.11-0.04,0.16c-0.02,0.1-0.04,0.2-0.06,0.31c-0.01,0.03-0.01,0.06-0.02,0.09
			c-0.02,0.1-0.04,0.2-0.06,0.3l0.13,0l0,0l1.31,0.04h0.01l-1.41,0.35l0,0l-0.13,0.03c-0.01,0.03-0.01,0.05-0.01,0.08v0.01
			c-0.02,0.1-0.04,0.21-0.06,0.31l0.12,0.01l0,0l3.71,0.2l-3.78,0.84l-0.01,0l3.26-0.05l1.1-0.01l2.16-0.03l-0.02,0l-1.41,0.25
			l-0.8,0.14l-2.22,0.38h0l-0.01,0l4.37,0.45l-2.39,0.41c-0.24-0.01-0.49-0.01-0.74,0c-0.1,0-0.2,0.01-0.3,0.01
			c-0.08,0.01-0.16,0.01-0.24,0.02c-0.07,0.01-0.14,0.01-0.21,0.02c-0.08,0.01-0.15,0.01-0.23,0.03c-0.15,0.01-0.31,0.04-0.47,0.07
			c-0.08,0.01-0.15,0.03-0.24,0.04c-0.08,0.01-0.16,0.03-0.24,0.05c-0.08,0.01-0.16,0.03-0.24,0.05c-0.11,0.02-0.21,0.05-0.32,0.08
			c-0.42,0.12-0.85,0.26-1.27,0.44c-0.01,0-0.01,0-0.01,0.01c-0.01,0.01-0.03,0.01-0.04,0.02c0,0.03-0.01,0.06-0.01,0.09
			c-0.05,0.43-0.1,0.86-0.14,1.29c-0.03,0.32-0.06,0.64-0.08,0.97c0,0.03,0,0.06-0.01,0.09c-0.01,0.09-0.02,0.18-0.02,0.26
			c0,0.07-0.01,0.14-0.01,0.21l0,0l0,0l1.15-0.84l-1.19,1.49v0.03c0,0.04-0.01,0.08-0.01,0.13c0,0.09-0.01,0.17-0.01,0.25l3.48-2.44
			l-2.61,3.09l0.02-0.01l3.3-2.65l0.22-0.18l1.6-1.29l0.01-0.01l-0.68,0.74l-0.34,0.37l-2.15,2.34l0.01-0.01h0l3.7-2.34l-2.16,2.37
			v0l4.01-2.47l-0.93,1.59l1.85-1.45l0,0c0.01,0.09,0.03,0.18,0.04,0.27c0.02,0.09,0.04,0.18,0.05,0.27l-0.18,0.59c0,0,0,0,0.01,0
			c0.01-0.01,0.04-0.01,0.09-0.02c0.02-0.01,0.04-0.01,0.07-0.02c0,0,0,0,0,0c0.03-0.01,0.07-0.02,0.11-0.03
			c0.09,0.46,0.19,0.91,0.29,1.36c0.05,0.21,0.1,0.43,0.15,0.64c0.06,0.23,0.12,0.46,0.18,0.7c0.06,0.22,0.12,0.44,0.18,0.66
			c0.06,0.22,0.13,0.44,0.19,0.66c0.13,0.43,0.27,0.87,0.41,1.3c0.05,0.13,0.09,0.26,0.13,0.39l0,0.01v0.01
			c0.01,0.02,0.03,0.07,0.05,0.14c0.01,0.02,0.01,0.04,0.02,0.06c0.02,0.04,0.04,0.09,0.06,0.14c0.05,0.13,0.12,0.3,0.19,0.5
			c0.01,0.04,0.03,0.08,0.05,0.13c0.02,0.04,0.04,0.09,0.05,0.13c0.04,0.09,0.07,0.18,0.11,0.28c0.03,0.08,0.06,0.15,0.09,0.23
			c0.03,0.08,0.06,0.16,0.1,0.24c0.03,0.08,0.07,0.17,0.1,0.26c0.03,0.09,0.07,0.18,0.11,0.26c0.1,0.24,0.2,0.5,0.31,0.77
			c0.05,0.13,0.11,0.27,0.17,0.41c0.12,0.29,0.24,0.58,0.36,0.88l-1.39,1.56c-0.93,1.03-1.86,2.06-2.78,3.1
			c-0.93,1.04-1.85,2.07-2.78,3.11v0l-1.57,2c-0.03,0.09-0.06,0.17-0.1,0.26c0,0,0,0,0,0c-0.03,0.09-0.07,0.17-0.1,0.25
			c-0.02-0.04-0.06-0.09-0.09-0.13l-1.21,1.55c0.01,0.05,0.03,0.1,0.05,0.14c0.09,0.27,0.19,0.54,0.28,0.81
			c2.4,6.78,6.12,13.17,10.91,18.76c4.94,5.77,11,10.69,17.77,14.47c0.04,0.02,0.08,0.05,0.12,0.07c3.18,1.77,6.52,3.28,9.98,4.52
			c-1.65-6.11-3.77-12.04-5.64-18.03c-0.39-1.24-0.77-2.48-1.13-3.72c-0.14-0.49-0.28-0.99-0.42-1.48c-0.14-0.5-0.27-0.99-0.4-1.49
			c0-0.01-0.01-0.03-0.01-0.04c-0.06-0.24-0.13-0.47-0.18-0.71c-0.02-0.1-0.05-0.2-0.07-0.29c-0.1-0.38-0.19-0.76-0.28-1.14
			c-0.05-0.21-0.1-0.41-0.15-0.62c-0.13-0.57-0.26-1.13-0.38-1.71c-0.01-0.04-0.02-0.08-0.02-0.12c-0.09-0.42-0.17-0.84-0.25-1.26
			c-0.02-0.11-0.04-0.21-0.06-0.32c-0.08-0.41-0.15-0.82-0.22-1.23c-0.01-0.05-0.02-0.11-0.03-0.17c-0.08-0.49-0.16-0.98-0.23-1.47
			c0.73,0.76,1.44,1.52,2.15,2.28c0.06,0.06,0.11,0.13,0.17,0.19c0.67,0.73,1.33,1.45,1.99,2.19c0.25,0.28,0.5,0.57,0.75,0.85
			c1.88,2.13,3.7,4.29,5.49,6.49c2.07,2.55,4.08,5.14,6.05,7.76c0.64,0.85,1.27,1.7,1.91,2.56c0.46,0.63,0.92,1.25,1.38,1.88
			c0.11,0.15,0.22,0.31,0.33,0.46c0.6,0.82,1.2,1.66,1.79,2.48c0.21,0.3,0.43,0.59,0.64,0.89c0.57,0.81,1.15,1.62,1.72,2.43
			c0.32,0.45,0.63,0.9,0.95,1.35c0.41,0.59,0.82,1.18,1.23,1.77c0.4,0.58,0.81,1.16,1.21,1.74c0.16,0.24,0.33,0.47,0.49,0.71
			c0.2,0.29,0.4,0.57,0.59,0.85c0.2,0.28,0.4,0.57,0.59,0.85c0.16,0.01,0.33,0.02,0.49,0.02c0,0,0,0,0,0c0.04,0,0.08,0.01,0.13,0.01
			c0.69,0.03,1.39,0.05,2.08,0.05c3.22,0.03,6.45-0.16,9.66-0.58c0.01,0,0.01,0,0.03,0l6.12-7.64l0.23-0.29l0.01-0.01l6.21-7.75
			l4.01-5.07l2.22-2.86l3.37,7.92c3.74-2.22,7.26-4.83,10.48-7.8c0.02-0.02,0.04-0.04,0.06-0.05c-0.34-0.29-0.68-0.57-1.03-0.84
			c-0.2-0.15-0.4-0.31-0.6-0.46c-0.13-0.1-0.26-0.2-0.39-0.31c-0.01-0.01-0.01-0.01-0.02-0.02c-0.01-0.01-0.02-0.02-0.04-0.03
			c-0.12-0.1-0.25-0.19-0.37-0.28c-0.17-0.13-0.33-0.25-0.5-0.38c-0.06-0.04-0.12-0.09-0.18-0.14c-0.24-0.18-0.47-0.35-0.71-0.52
			c-0.64-0.46-1.29-0.89-1.96-1.28c-0.15-0.08-0.29-0.16-0.43-0.23c-0.03-0.01-0.05-0.02-0.08-0.04c-0.06-0.03-0.12-0.06-0.18-0.08
			c-0.05-0.02-0.1-0.05-0.14-0.07c-0.04-0.01-0.07-0.03-0.1-0.04c-0.02-0.01-0.04-0.01-0.06-0.02c-0.08-0.03-0.16-0.06-0.23-0.09
			c-0.02-0.01-0.05-0.02-0.07-0.02c-0.01,0-0.02-0.01-0.04-0.01c-0.1-0.03-0.2-0.06-0.29-0.09c-0.03-0.01-0.05-0.02-0.08-0.02
			c-0.16-0.04-0.32-0.06-0.47-0.08c-0.08-0.01-0.16-0.02-0.24-0.02h-0.05h-0.04c-0.05,0-0.11,0-0.16,0c-0.03,0-0.06,0-0.09,0
			c-0.04,0-0.07,0.01-0.11,0.01c-0.05,0.01-0.1,0.01-0.15,0.02c-0.03,0-0.05,0.01-0.08,0.01c-0.04,0.01-0.08,0.01-0.11,0.02
			c0,0,0,0,0,0c0,0,0,0,0,0c-0.07,0.01-0.15,0.04-0.22,0.06c-0.04,0.01-0.07,0.02-0.1,0.03c-0.09,0.03-0.18,0.06-0.27,0.1
			c-0.02,0.01-0.03,0.01-0.05,0.02c-0.05,0.02-0.1,0.05-0.14,0.07c-0.06,0.03-0.11,0.05-0.17,0.08c-0.04,0.02-0.08,0.05-0.12,0.07
			c-0.07,0.04-0.13,0.08-0.2,0.12c-0.04,0.03-0.09,0.06-0.14,0.1c-0.06,0.04-0.11,0.08-0.17,0.13c-0.05,0.04-0.1,0.08-0.15,0.12
			c0,0-0.01,0-0.01,0.01c-0.02,0.01-0.04,0.03-0.05,0.04c-0.18,0.15-0.36,0.32-0.55,0.5c0,0-0.01,0.01-0.01,0.01
			c-0.01,0.01-0.02,0.02-0.04,0.03c-0.11,0.11-0.22,0.22-0.33,0.35c-0.01,0.01-0.02,0.02-0.03,0.03c-0.02,0.02-0.05,0.04-0.07,0.06
			c-0.02,0.02-0.03,0.03-0.05,0.05c-0.01,0.01-0.02,0.01-0.03,0.02c-0.03,0.02-0.06,0.04-0.09,0.07c-0.01,0.01-0.03,0.02-0.04,0.03
			c-0.08,0.06-0.18,0.13-0.31,0.23c0,0,0,0,0,0c-0.01-0.05-0.02-0.1-0.03-0.15c0-0.01-0.01-0.02-0.01-0.03
			c-0.05-0.23-0.1-0.46-0.15-0.69c-0.05-0.21-0.1-0.41-0.15-0.61c-0.04-0.14-0.07-0.29-0.1-0.43c-0.03-0.12-0.06-0.24-0.09-0.36
			c-0.09-0.37-0.19-0.75-0.29-1.12c-0.01-0.02-0.01-0.04-0.01-0.06c-1.19-4.36-2.77-8.57-4-12.86c-0.08-0.28-0.16-0.57-0.24-0.85
			c0-0.01-0.01-0.03-0.01-0.04c-0.01-0.02-0.01-0.04-0.02-0.07c-0.05-0.17-0.09-0.33-0.13-0.5c-0.01-0.04-0.02-0.09-0.03-0.13
			c-0.06-0.23-0.13-0.46-0.18-0.69c-0.03-0.11-0.05-0.22-0.08-0.33c-0.03-0.12-0.06-0.25-0.09-0.37c-0.02-0.1-0.05-0.21-0.07-0.31
			c-0.04-0.15-0.07-0.3-0.1-0.45c-0.01-0.02-0.01-0.05-0.02-0.07c-0.02-0.09-0.04-0.18-0.06-0.26c-0.03-0.12-0.05-0.24-0.07-0.36
			c-0.02-0.09-0.04-0.18-0.06-0.28c-0.02-0.1-0.04-0.2-0.06-0.31c-0.01-0.03-0.01-0.06-0.02-0.08c-0.02-0.08-0.04-0.16-0.05-0.24
			c-0.03-0.16-0.06-0.32-0.09-0.48c0,0,0,0,0-0.01c-0.01-0.05-0.02-0.1-0.03-0.15c-0.01-0.04-0.01-0.08-0.02-0.12
			c0-0.01,0-0.02-0.01-0.03c-0.06-0.36-0.13-0.73-0.18-1.09c0,0,0,0,0-0.01c0.16,0.17,0.32,0.35,0.49,0.52
			c0.6,0.64,1.19,1.28,1.78,1.93c0.32,0.35,0.63,0.7,0.94,1.05c0.24,0.27,0.48,0.55,0.71,0.82c0.11,0.12,0.22,0.25,0.32,0.37
			c0.03,0.04,0.07,0.07,0.1,0.11c0.01-0.01,0.01-0.01,0.02-0.02c0,0,0.01-0.01,0.01-0.01c0,0,0,0,0.01-0.01
			c0.03-0.02,0.05-0.05,0.08-0.07c0.02-0.02,0.03-0.03,0.05-0.04c0.01-0.01,0.01-0.01,0.02-0.02c0.05,0.12,0.1,0.23,0.15,0.35
			c0.03,0.08,0.07,0.16,0.11,0.25c0,0.01,0,0.01,0.01,0.01c0,0,0,0,0,0l-0.04-0.01l-0.02,0l-0.01,0l-0.02-0.01c0,0,0,0,0,0
			c0.05,0.06,0.1,0.12,0.15,0.18c0.25,0.3,0.5,0.6,0.75,0.9c0.18,0.21,0.35,0.42,0.53,0.64c0.06,0.08,0.13,0.16,0.19,0.24
			c0.6,0.73,1.18,1.47,1.76,2.22c0.49,0.63,0.97,1.27,1.46,1.9c0.89,1.18,1.78,2.37,2.65,3.56c0.8,1.11,1.6,2.22,2.38,3.34
			c0.36,0.51,0.71,1.02,1.06,1.52c1.33,1.91,2.66,3.83,3.98,5.76c0.04-0.04,0.09-0.08,0.13-0.13c0.14-0.14,0.28-0.27,0.42-0.41
			c0.03-0.03,0.06-0.06,0.09-0.08c0.04-0.04,0.07-0.07,0.11-0.11c4.49-4.5,8.33-9.71,11.31-15.4c0.08-0.16,0.17-0.33,0.25-0.5v0
			c-0.03-0.03-0.05-0.06-0.08-0.1c0.31-1.46,0.52-2.49,0.54-2.6c0-0.01,0-0.01,0-0.01v-0.01c0.02-0.13,0.05-0.26,0.07-0.38
			c0.06-0.32,0.11-0.65,0.16-0.97c0.02-0.15,0.05-0.29,0.07-0.44c0.02-0.15,0.05-0.3,0.07-0.45c0.02-0.15,0.04-0.31,0.07-0.47
			c0.03-0.23,0.07-0.46,0.1-0.69c0-0.02,0.01-0.04,0.01-0.06c0.04-0.34,0.09-0.68,0.13-1.02c0.04-0.35,0.08-0.71,0.12-1.07
			c0.07,0.04,0.13,0.07,0.14,0.08c0,0,0,0,0,0l-0.1-0.57c0.01-0.13,0.02-0.27,0.04-0.4c0-0.01,0-0.02,0-0.03
			c0.01-0.03,0.01-0.06,0.01-0.08l0.94,1.41l-0.48-1.55l0,0l1.5,1.75c0.01-0.04,0.03-0.08,0.04-0.12c0.01-0.03,0.02-0.07,0.03-0.1
			c0.01-0.02,0.02-0.05,0.03-0.07l-0.66-1.37l0.79,0.96c0.03-0.07,0.05-0.14,0.07-0.2c0.02-0.07,0.04-0.13,0.07-0.2
			c0.02-0.05,0.03-0.11,0.05-0.16l-0.72-1.48l0.01,0.02l0,0l0.78,1.2c0.19-0.58,0.37-1.16,0.53-1.74c0.06-0.22,0.12-0.43,0.18-0.66
			c-0.31-0.08-0.62-0.1-0.92-0.07l-1.21-0.4l2.23-0.44l-2.29-0.75l2.61,0.07c0.02-0.08,0.04-0.16,0.06-0.24c0-0.01,0-0.01,0-0.01
			L235.5,105l1.44-0.15c0.01-0.04,0.02-0.09,0.03-0.13c0.04-0.16,0.07-0.32,0.1-0.48l-0.43-0.21l-0.01,0l0.49-0.03
			c0.12-0.56,0.23-1.13,0.33-1.69c0.04-0.25,0.08-0.51,0.13-0.76c-0.04,0.01-0.09,0.01-0.13,0.02c-0.07,0.01-0.14,0.02-0.21,0.04
			c-0.07,0.01-0.14,0.04-0.21,0.06c-0.07,0.02-0.14,0.04-0.21,0.07c-0.09,0.04-0.18,0.07-0.27,0.12c-0.09,0.04-0.18,0.09-0.26,0.14
			c-0.06,0.04-0.13,0.08-0.19,0.12c-0.07,0.04-0.13,0.08-0.19,0.13c-0.12,0.09-0.24,0.18-0.35,0.29c-0.08,0.07-0.15,0.14-0.23,0.21
			c-0.21,0.21-0.41,0.43-0.6,0.67c-0.05,0.06-0.1,0.12-0.14,0.18c-0.1,0.13-0.19,0.27-0.29,0.4c-0.13,0.18-0.24,0.37-0.36,0.56
			l-0.67,0.51l1.33-1.85h0l-1.55,1.18l-0.01,0.01l2.1-2.33l-1.34,0.91l1.59-2.02l-1.02,0.63l1.29-1.56l-0.86,0.53l1.38-1.62
			l-1.28,0.79l-0.01,0.01v0l0.01,0l1.35-1.67c-1.98,0.93-2.96,3.38-3.45,5.62c0.02-0.72,0.01-1.49-0.06-2.29
			c-0.01-0.13-0.02-0.26-0.04-0.39c-0.01-0.13-0.03-0.26-0.05-0.4c-0.01-0.04-0.01-0.09-0.02-0.13c-0.01-0.13-0.04-0.26-0.06-0.4
			c-0.03-0.15-0.05-0.31-0.09-0.47c-0.01-0.08-0.03-0.15-0.05-0.23c-0.04-0.16-0.07-0.31-0.11-0.47c-0.03-0.12-0.06-0.23-0.1-0.35
			c-0.03-0.12-0.07-0.23-0.1-0.35c-0.05-0.15-0.1-0.31-0.16-0.46c-0.06-0.15-0.12-0.3-0.18-0.46c-0.03-0.08-0.06-0.15-0.1-0.23
			c-0.03-0.07-0.06-0.15-0.1-0.22c-0.03-0.08-0.07-0.15-0.11-0.23c-0.04-0.07-0.07-0.14-0.11-0.21c-0.04-0.07-0.07-0.15-0.12-0.22
			c-0.04-0.07-0.08-0.15-0.12-0.22c-0.04-0.07-0.08-0.13-0.13-0.2l0.82,2.63l0,0l-0.96-1.79l0.86,2.6l-0.65-1.19l0,0l0.4,1.25
			l0.13,0.42l0.27,0.83l0,0l-0.77-1.42v0.01l0.96,3.14l-0.96-1.88c-0.06-0.15-0.12-0.31-0.18-0.46c-0.06-0.15-0.13-0.3-0.2-0.45
			c-0.06-0.15-0.13-0.29-0.21-0.43c-0.01-0.01-0.01-0.03-0.02-0.04c-0.05-0.11-0.11-0.21-0.17-0.31c-0.03-0.06-0.07-0.12-0.1-0.18
			c-0.09-0.15-0.18-0.3-0.28-0.45c-0.07-0.11-0.15-0.22-0.23-0.32c-0.01,0-0.01-0.01-0.01-0.01c-0.07-0.1-0.15-0.19-0.22-0.28
			c-0.1-0.12-0.2-0.23-0.3-0.34h0c-0.08-0.08-0.16-0.16-0.25-0.24c-0.07-0.07-0.14-0.13-0.22-0.19c-0.03-0.03-0.07-0.06-0.1-0.09
			c-0.32-0.26-0.66-0.47-1.03-0.64c-0.05-0.02-0.1-0.04-0.15-0.07c-0.18-0.08-0.38-0.14-0.58-0.2l1.94,2.01l-1.85-0.75l1.97,1.91
			l-1.23-0.5l-0.01,0l0.93,0.93l0,0l0.92,0.93l-0.01,0l-1.27-0.52l-0.19-0.08l2.27,2.42l-0.01-0.01l0,0l-1.13-0.52l-0.01,0
			l-0.78-0.36l1.03,0.93l1.98,1.79l-0.01-0.01l0,0l-2.22-1.24l1.91,2.28l-1.53-0.85l0.38,0.46l0.51,0.62l1.15,1.41v0l-0.23-0.03
			h-0.01l-0.25-0.03c-0.12-0.16-0.24-0.32-0.36-0.48c-0.09-0.11-0.18-0.21-0.27-0.32c-0.04-0.05-0.09-0.1-0.14-0.15
			c-0.05-0.05-0.1-0.1-0.15-0.15c-0.05-0.05-0.1-0.1-0.15-0.14c-0.04-0.04-0.09-0.08-0.13-0.12c-0.06-0.05-0.11-0.1-0.17-0.14
			c-0.07-0.05-0.14-0.1-0.21-0.15c-0.05-0.03-0.1-0.07-0.16-0.1c-0.07-0.04-0.15-0.09-0.23-0.13c-0.05-0.03-0.1-0.05-0.15-0.07
			c-0.01-0.01-0.02-0.01-0.03-0.01c-0.06-0.02-0.11-0.05-0.17-0.07c-0.01-0.01-0.02-0.01-0.03-0.01c-0.07-0.02-0.13-0.04-0.19-0.06
			c-0.07-0.02-0.14-0.04-0.21-0.05c-0.07-0.01-0.14-0.03-0.21-0.04h0c-0.33-0.04-0.68-0.02-1.04,0.06
			c-0.12,0.03-0.24,0.07-0.36,0.11c-0.06,0.02-0.13,0.05-0.18,0.07c-0.13,0.05-0.25,0.12-0.38,0.18c-0.11,0.06-0.22,0.13-0.34,0.21
			c-0.34,0.23-0.7,0.52-1.06,0.88l-0.18,0.18c-0.01,0.01-0.02,0.03-0.03,0.04c-0.01,0.01-0.01,0.01-0.02,0.02
			c-0.01,0-0.01,0.01-0.01,0.02l0.07-0.03l0.2-0.06h0l1.91-0.62l-0.01,0.01l-1.32,1.19l-0.2,0.18l-0.26,0.23l0.32-0.12l0.24-0.09
			l1.62-0.61h0l0.01,0l-1.19,1.07l2.08-0.71l-0.14,0.13l-1.27,1.15l0,0l2.58-0.77l-1.88,1.58l-0.01,0.01l2.13-0.92h0l1.16-0.49
			l-1.08,0.8l-1.15,0.85l1.3-0.27l0.93-0.18l-0.83,0.62l-0.7,0.52l0.78-0.14l0.9-0.17c-0.04,0.06-0.08,0.13-0.11,0.21
			c-0.04,0.08-0.07,0.16-0.1,0.26c-0.03,0.08-0.05,0.17-0.07,0.25c-0.02,0.08-0.03,0.16-0.04,0.24c0,0.01,0,0.01,0,0.01
			c-0.01,0.07-0.02,0.13-0.02,0.19c-0.01,0.22-0.01,0.42,0.04,0.59c0.01,0.04,0.02,0.09,0.04,0.13c0,0.01,0,0.02,0.01,0.03
			c0.01,0.01,0.01,0.03,0.01,0.04c0,0.01,0.01,0.02,0.01,0.02c0,0.01,0,0.01,0.01,0.01h0.01v0.01c0,0.01,0.01,0.02,0.01,0.04
			c0,0.01,0.01,0.02,0.01,0.02c0.01,0.01,0.02,0.02,0.03,0.03v0c-0.02,0.01-0.03,0.03-0.04,0.04c-0.02,0.01-0.03,0.03-0.05,0.05
			c-0.01,0.01-0.02,0.03-0.02,0.04c-0.01,0.01-0.01,0.01-0.01,0.02c0,0,0,0,0,0c0,0,0,0-0.01,0c-0.01,0-0.02,0-0.03-0.01
			c-0.01,0.02-0.02,0.04-0.02,0.06c-0.01,0.03-0.01,0.05-0.02,0.08c-0.02,0.07-0.04,0.15-0.06,0.23c0,0.01,0,0.02-0.01,0.03
			c-0.01,0.04-0.01,0.07-0.02,0.11c-0.02,0.1-0.04,0.21-0.05,0.33v0c-0.01,0.06-0.01,0.12-0.02,0.19c0,0.04-0.01,0.07-0.01,0.11
			c0,0.05-0.01,0.09-0.01,0.14c0,0.16,0,0.32,0.01,0.51c0.01,0.01,0.01,0.01,0.01,0.01c0,0.01,0,0.01,0.01,0.02
			c0,0.01,0.01,0.01,0.01,0.02c0,0,0,0,0,0c0,0,0,0,0,0c0,0,0,0,0,0.01c0.01,0.01,0.02,0.03,0.03,0.04
			c0.01,0.01,0.02,0.03,0.03,0.04c0.02,0.02,0.04,0.04,0.07,0.05h0c0,0,0,0,0,0c0.01,0,0.01,0.01,0.02,0.01c0,0,0,0,0.01,0
			c0.01,0,0.01,0.01,0.02,0.01c0.02,0.01,0.04,0.01,0.05,0.01c0.02,0,0.04,0,0.07-0.01c0.07-0.02,0.15-0.07,0.22-0.15
			c0.01-0.01,0.03-0.03,0.04-0.05c0.01-0.01,0.03-0.03,0.04-0.05c0.01-0.01,0.03-0.04,0.04-0.06c0.02-0.04,0.04-0.09,0.07-0.13
			c0.02-0.04,0.04-0.08,0.06-0.12c0.02-0.04,0.03-0.09,0.04-0.13c0.01-0.03,0.02-0.07,0.04-0.1c0.01-0.05,0.03-0.11,0.04-0.16
			c0.01,0.01,0.01,0.01,0.01,0.02c0.01,0.01,0.01,0.02,0.01,0.03c0.01,0.02,0.03,0.04,0.05,0.05c0.02,0.01,0.03,0.03,0.05,0.04
			c0.01,0.01,0.03,0.01,0.04,0.02c0.15,0.05,0.32-0.09,0.46-0.36c0.01-0.04,0.03-0.07,0.05-0.1c-0.01,0.06-0.02,0.12-0.04,0.18
			c-0.08,0.45-0.17,0.9-0.26,1.35c-0.09,0.45-0.18,0.89-0.28,1.33c-0.08,0.39-0.17,0.77-0.26,1.15l-0.04-0.08l0,0l-0.05,0.22l0,0
			l0.04,0.06l-0.09,0.38l-0.04-0.07l-0.01,0.04l-0.01,0.04l0.03,0.04l0.01,0.02c0,0,0,0,0,0c-0.01,0.05-0.02,0.1-0.04,0.15
			c-0.01,0.05-0.03,0.1-0.04,0.15c-0.04,0.19-0.1,0.38-0.15,0.57c-0.13-0.15-0.25-0.28-0.38-0.42c-1.94-2.18-3.88-4.34-5.83-6.51
			c-1.95-2.16-3.9-4.33-5.85-6.49c2.08-4.88,3.69-9.08,3.81-9.39c0-0.01,0.01-0.01,0.01-0.01v-0.01c0.04-0.1,0.07-0.2,0.1-0.3
			c0.04-0.1,0.07-0.2,0.1-0.3c0.07-0.23,0.15-0.45,0.22-0.68c0.06-0.19,0.13-0.38,0.18-0.57c0.29-0.93,0.57-1.87,0.82-2.82
			c0.18-0.69,0.35-1.38,0.52-2.08c0.16-0.7,0.31-1.4,0.45-2.11h0c0.1,0.03,0.18,0.06,0.25,0.07c0.11,0.03,0.18,0.05,0.18,0.05
			l-0.28-0.92c0.05-0.27,0.1-0.55,0.14-0.82l2.88,2.24l-1.46-2.47l6.25,3.84l0.01,0l-3.38-3.69l5.78,3.64h0.01l-4.94-5.38l8,6.44
			l0.01,0l-4.04-4.79l4.01,2.82h0h0l0.03,0.02c-0.01-0.04-0.01-0.09-0.01-0.13c-0.01-0.08-0.02-0.16-0.02-0.25
			c-0.04-0.39-0.08-0.79-0.13-1.18l-0.07-0.09l0,0l-0.28-0.35l0.26,0.19l0.07,0.05c-0.01-0.04-0.01-0.09-0.02-0.13
			c-0.11-0.86-0.23-1.72-0.38-2.58c-0.08-0.44-0.16-0.89-0.25-1.33c-0.05-0.01-0.1-0.03-0.15-0.04c0,0,0,0-0.01,0c0,0,0,0,0,0
			c-0.33-0.1-0.67-0.19-0.99-0.26c-0.13-0.03-0.25-0.05-0.37-0.08c-0.02,0-0.05-0.01-0.07-0.01c-0.12-0.02-0.23-0.04-0.34-0.06
			c-0.14-0.02-0.28-0.04-0.42-0.07c-0.13-0.02-0.26-0.04-0.38-0.05c-0.16-0.02-0.31-0.04-0.47-0.05c-0.3-0.03-0.6-0.04-0.9-0.06
			c-0.09,0-0.17-0.01-0.25-0.01c-0.35,0-0.69,0-1.02,0.01l-3.72-0.64l6.79-0.71l-6.96-1.2h0.02l8.33,0.11h0h0l0.21,0
			c-0.02-0.09-0.05-0.19-0.07-0.28c0-0.02-0.01-0.04-0.01-0.06l-0.24-0.05l0,0l-4.01-0.88l3.69-0.2l0,0l0.24-0.01
			c-0.03-0.1-0.05-0.19-0.08-0.29c-0.1-0.34-0.2-0.68-0.31-1.02l-0.09-0.02l0.08,0c-0.02-0.07-0.04-0.15-0.07-0.22
			c-0.01-0.02-0.01-0.04-0.02-0.06c-0.07-0.23-0.15-0.46-0.23-0.7c-0.01-0.04-0.02-0.07-0.04-0.11c-0.02-0.07-0.05-0.13-0.07-0.19
			c-0.32-0.62-0.65-1.24-1-1.85c-0.01,0-0.01,0.01-0.02,0.01c0,0,0,0,0,0c-1.36,0.44-2.6,1.02-3.73,1.71
			c-1.13,0.68-2.15,1.45-3.07,2.26l-2.03,0.81l4.05-2.96l-4.73,1.9l6.4-3.72l-4.11,1.44l4.84-3.21l-3.13,1.01l3.68-2.34
			c-0.02-0.02-0.03-0.04-0.04-0.07l-2.31,0.75l2-1.23c-0.12-0.18-0.24-0.35-0.35-0.53l-1.38,0.45l1.18-0.77
			c-0.15-0.23-0.31-0.45-0.46-0.68c-3.79,1.88-5.89,4.9-7.07,7.71c0.24-3.87-0.72-8.67-5.45-12.65l2.51,4.22l-2.96-2.86l2.63,4.17
			l-1.97-1.91l2.43,3.97l-2.37-2.28l2.92,5.01l-2.93-2.99c-1.8-2.54-4.38-4.84-8.09-6.27c-0.02-0.01-0.05-0.02-0.07-0.03
			c-1.4-0.53-2.96-0.93-4.7-1.18l5.88,3.2l-5.62-1.21l6,3.06l-3.74-0.8l5.62,2.96l-4.49-0.96l6.91,3.86l-5.87-1.44l9.15,4.35
			l-6.77-1.99l5.79,3.63l-4.64-1.35l6.18,3.98l-1.49-0.08c-0.35-0.27-0.72-0.52-1.1-0.77c-2.13-1.39-4.8-2.5-7.95-2.71
			c-2.99-0.2-6.41,0.42-10.26,2.39c-0.18,0.1-0.37,0.19-0.55,0.29c-0.07,0.04-0.14,0.07-0.21,0.12l0.24-0.04l0.61-0.11l5.81-0.97
			l-4.04,1.9l-0.61,0.29l-0.77,0.36l0.97-0.19l0.76-0.15l4.94-0.96l-3.61,1.69l6.31-1.14l-4.33,2.04l7.87-1.24l-5.76,2.53l6.48-1.46
			l3.56-0.8l-3.31,1.29l-3.5,1.36l3.95-0.42l2.84-0.31l-2.53,0.99l-2.13,0.83l2.37-0.22l2.76-0.27c-0.25,0.18-0.49,0.43-0.68,0.74
			c-0.53,0.88-0.54,1.91-0.04,2.42c0.01-0.01,0.01-0.01,0.01-0.01v0.02c0.03,0.03,0.07,0.06,0.11,0.09
			c0.03,0.02,0.05,0.03,0.08,0.04c-0.09,0.04-0.18,0.1-0.27,0.15c-0.04,0.03-0.09,0.07-0.13,0.1c-0.04,0-0.07-0.01-0.11-0.02
			c-0.32,0.46-0.74,1.38-0.61,2.86c0,0.01,0,0.01,0.01,0.01c0.02,0.02,0.04,0.04,0.06,0.05c0.01,0.01,0.01,0.01,0.01,0.02
			c0.11,0.1,0.24,0.17,0.39,0.21c0,0,0,0,0.01,0.01c0.1,0.03,0.21,0.04,0.32,0.04c0.48,0,1.01-0.25,1.45-0.73
			c0.23-0.25,0.4-0.54,0.52-0.82c0.04,0.02,0.07,0.06,0.1,0.08c0.5,0.37,1.23,0.18,1.8-0.4c0.05-0.05,0.1-0.11,0.15-0.17l-0.1,0.3
			c-0.74,2.07-1.54,4.11-2.44,6.1c-0.04-0.04-0.09-0.09-0.13-0.13l-0.15,0.35l0.15,0.1c-0.09,0.2-0.2,0.41-0.29,0.61l-0.1-0.11
			l-0.06,0.13l0.12,0.07c-0.08,0.17-0.16,0.33-0.24,0.5c-0.25,0.5-0.5,1.01-0.76,1.51l-0.01,0.01c-0.07,0.14-0.15,0.28-0.21,0.42
			c0,0-0.01,0.01-0.01,0.01c-0.25,0.48-0.52,0.97-0.79,1.44c-0.07,0.06-0.15,0.14-0.23,0.21c-0.16,0.26-0.33,0.53-0.51,0.82
			c-0.01,0.01-0.01,0.02-0.01,0.03c-1.17-1.3-2.35-2.61-3.52-3.91c-1.78-1.98-3.79-1.96-5.59,0.01c-1.12,1.22-2.27,2.41-3.3,3.71
			c-0.78,0.99-1.29,0.93-2.1,0c-3.61-4.12-7.29-8.19-10.96-12.26c-0.96-1.07-1.87-1.64-2.79-1.73c-0.66-0.06-1.31,0.13-1.98,0.57
			c-0.45,0.29-0.9,0.7-1.36,1.22c-0.92,1.04-1.84,2.06-3.02,3.36c-0.37-0.53-0.61-0.95-0.93-1.31c-2.22-2.51-4.46-5-6.69-7.49
			c-2.22-2.48-4.16-2.49-6.35-0.04c-6.38,7.14-12.77,14.27-19.14,21.41c-0.31,0.35-0.46,0.84-0.69,1.26
			c-0.21-0.06-0.41-0.13-0.61-0.19c-0.22-0.32-0.41-0.67-0.66-0.96c-0.78-0.88-1.56-1.75-2.34-2.62c-0.72-0.81-1.44-1.61-2.16-2.41
			c-0.15-0.17-0.3-0.35-0.46-0.52c-0.49-0.55-0.99-1.09-1.48-1.64c-2.24-2.46-4.01-2.46-6.21-0.01c-1.33,1.48-2.66,2.97-4,4.46
			c-0.35,0.4-0.71,0.79-1.07,1.19l-1.16,1.31c-0.04-0.07-0.08-0.15-0.13-0.22c0,0,0-0.01,0-0.01c-0.05-0.08-0.09-0.18-0.14-0.26
			l-0.01-0.01c-0.16-0.32-0.32-0.65-0.49-0.98c-0.05-0.1-0.1-0.21-0.15-0.32l0.07-0.04l-0.04-0.09l-0.07,0.07
			c-0.07-0.13-0.13-0.26-0.19-0.4l0.09-0.05l-0.1-0.23l-0.09,0.08c-0.57-1.28-1.09-2.59-1.56-3.92c-0.02-0.07-0.04-0.13-0.07-0.2
			c0.03,0.04,0.06,0.08,0.1,0.11c0.36,0.38,0.83,0.49,1.16,0.26c0.02-0.01,0.04-0.03,0.06-0.05c0.08,0.18,0.19,0.37,0.34,0.53
			c0.28,0.31,0.62,0.47,0.93,0.47c0.02,0,0.04,0,0.07-0.01c0.01,0,0.03-0.01,0.04-0.01c0.03-0.01,0.06-0.01,0.09-0.02
			c0.01,0,0.01,0,0.01,0c0.09-0.03,0.18-0.07,0.25-0.13c0.01-0.01,0.01-0.01,0.01-0.01c0.01-0.01,0.03-0.02,0.04-0.04
			c0,0,0.01,0,0.01-0.01c0.09-0.95-0.18-1.54-0.39-1.83c-0.02,0-0.05,0.01-0.07,0.01c-0.03-0.02-0.06-0.04-0.09-0.06
			c-0.06-0.04-0.12-0.07-0.18-0.1c0.02,0,0.03-0.01,0.05-0.03c0.02-0.01,0.05-0.04,0.08-0.06h0.01c0.32-0.32,0.31-0.99-0.04-1.55
			c-0.12-0.21-0.27-0.37-0.43-0.49l1.78,0.18l1.52,0.14l-1.37-0.53l-1.63-0.64l1.83,0.2l2.54,0.27L128.14,93l-2.13-0.83l2.29,0.52
			l4.17,0.93l-3.7-1.63l5.06,0.8l-2.79-1.31l4.06,0.73l-2.32-1.09l3.18,0.63l0.49,0.1l0.62,0.12l-0.5-0.23l-0.39-0.19l-2.59-1.21
			l3.73,0.63l0.39,0.07l0.15,0.03c-0.04-0.03-0.09-0.05-0.14-0.08c-0.11-0.06-0.23-0.13-0.35-0.18c-2.47-1.27-4.68-1.67-6.6-1.55
			c-0.15,0.01-0.3,0.03-0.44,0.04c-0.1,0.01-0.19,0.02-0.28,0.04c-0.03,0-0.05,0.01-0.07,0.01c-0.11,0.01-0.21,0.03-0.32,0.05
			c-0.11,0.01-0.21,0.04-0.32,0.06c-0.02,0.01-0.05,0.01-0.08,0.02c-0.22,0.04-0.43,0.1-0.65,0.16c-0.11,0.03-0.22,0.07-0.33,0.1
			c-0.33,0.11-0.64,0.23-0.94,0.36c-0.1,0.05-0.21,0.09-0.3,0.14c-0.06,0.02-0.13,0.05-0.18,0.09c-0.05,0.02-0.1,0.04-0.14,0.07
			c-0.17,0.08-0.33,0.17-0.49,0.26c-0.2,0.11-0.39,0.23-0.57,0.35c-0.24,0.16-0.48,0.33-0.7,0.49L124,91.54l2.77-1.78
			c0.13-0.19,0.26-0.37,0.4-0.54l-2.19,0.63l3.72-2.33l-4.35,1.27l5.88-2.79l-3.78,0.92l4.45-2.48l-2.89,0.63l3.61-1.91l-2.41,0.52
			l3.85-1.97l-3.61,0.77l3.78-2.06c-4.11,0.57-6.67,2.54-8.27,4.81l-1.88,1.92l1.88-3.22l-1.52,1.47l1.56-2.55l-1.27,1.23l1.69-2.68
			l-1.9,1.85l1.61-2.71c-3.04,2.55-3.66,5.65-3.51,8.13c-0.95-2.3-2.87-4.8-6.72-5.75l2.64,1.72l-2.52-0.81l2.69,1.66l-1.68-0.54
			l2.53,1.6l-2.01-0.65l3.1,2.07l-2.64-0.93l4.12,2.4l-3.04-1.23l2.6,1.91l-1.31-0.52c-1.53-1.36-3.53-2.55-6.02-2.95c0,0,0,0,0,0
			C113.32,86.62,113.26,86.62,113.2,86.61z M112.92,95.31L112.92,95.31L112.92,95.31L112.92,95.31z M233.71,107.9
			c-0.05,0.02-0.09,0.05-0.13,0.08c-0.04,0.03-0.09,0.05-0.13,0.08l-0.11-0.08L233.71,107.9C233.71,107.9,233.71,107.9,233.71,107.9
			z M233.36,105.67c-0.04,0.09-0.09,0.18-0.13,0.28c-0.04,0.1-0.09,0.19-0.13,0.29l-0.18,0.05L233.36,105.67z M232.81,106.94
			c-0.01,0.05-0.03,0.09-0.05,0.14c0,0,0,0.01-0.01,0.01c0,0.01-0.01,0.02-0.01,0.03v0l-0.03-0.01l-0.01,0l-0.02-0.01L232.81,106.94
			z M231.02,111.15c-0.01,0.03-0.01,0.06-0.02,0.09c0,0,0,0,0,0.01c-0.01-0.01-0.02-0.03-0.03-0.04c-0.01-0.01-0.02-0.02-0.03-0.03
			c0.04-0.03,0.07-0.07,0.1-0.12C231.03,111.08,231.02,111.11,231.02,111.15z M232.03,110.57c-0.01,0.06-0.02,0.12-0.03,0.18
			c-0.01,0.05-0.02,0.11-0.03,0.17v0c0,0,0,0.01,0,0.01c0-0.07-0.01-0.13-0.01-0.19c0,0,0-0.01,0-0.01
			c-0.01-0.06-0.01-0.11-0.03-0.16c0.02,0,0.04,0,0.06,0L232.03,110.57L232.03,110.57z M231.4,101.23l0.01,0.03l0.01,0.01l0.99,2.83
			l-0.58-1.23c-0.06-0.27-0.13-0.55-0.19-0.82C231.56,101.78,231.49,101.5,231.4,101.23z M231.88,107.59l-0.05,0.02
			c-0.07-0.13-0.13-0.24-0.21-0.38l0.21,0.21C231.86,107.49,231.87,107.54,231.88,107.59z M231.28,109.19
			c-0.01-0.04-0.04-0.08-0.05-0.12c-0.01-0.01-0.01-0.01-0.01-0.01s0-0.01-0.01-0.01c0,0,0,0,0,0v0h0c0,0,0,0,0,0h0.02l0.21-0.04
			L231.28,109.19L231.28,109.19z M231.66,110.19L231.66,110.19c-0.01,0-0.03-0.01-0.04-0.01c-0.02,0-0.03,0-0.05,0.01
			c-0.02,0-0.03,0.01-0.04,0.01c-0.01,0-0.01,0-0.01,0c-0.01,0.01-0.03,0.01-0.05,0.03c-0.02,0.01-0.03,0.03-0.05,0.04
			c-0.02,0.02-0.04,0.04-0.07,0.07c-0.02,0.02-0.04,0.05-0.06,0.08c0.01-0.04,0.01-0.08,0.02-0.12c0.01-0.07,0.02-0.14,0.03-0.21
			c0-0.02,0.01-0.04,0.01-0.06v-0.01c0-0.03,0-0.05,0.01-0.07c0.01-0.08,0.01-0.15,0.01-0.24h0l0.03-0.01l0.6-0.24
			c0.01,0.01,0.01,0.02,0.01,0.03h0L231.66,110.19z M226.39,81.56c-0.14,0.05-0.27,0.1-0.41,0.14l-0.33-0.14l1.14-0.13
			C226.66,81.47,226.52,81.51,226.39,81.56z M224.44,78.86L224.44,78.86l1.32-0.99l0.01-0.01c-0.07,0.07-0.14,0.15-0.21,0.23l0,0
			c-0.1,0.12-0.2,0.23-0.3,0.34c-0.1,0.12-0.2,0.23-0.29,0.34L224.44,78.86L224.44,78.86z M223.65,80.16l0.42-0.26
			c-0.07,0.09-0.13,0.19-0.21,0.28L223.65,80.16L223.65,80.16z M218.58,86.76c-0.05-0.04-0.11-0.08-0.17-0.11
			c0.05-0.03,0.1-0.06,0.14-0.09c0.05-0.04,0.1-0.07,0.15-0.1C218.65,86.56,218.61,86.65,218.58,86.76z M221.71,85.69
			c-0.03,0.1-0.06,0.19-0.09,0.29c-0.03,0.1-0.06,0.19-0.09,0.28c-0.01-0.11-0.03-0.21-0.05-0.31c-0.03-0.1-0.06-0.19-0.1-0.28h0
			c0.05,0,0.11,0.01,0.16,0.01C221.6,85.68,221.65,85.68,221.71,85.69L221.71,85.69z M220.08,71.3c-0.09-0.16-0.18-0.31-0.26-0.47
			l0.01,0.01l3.02,4.54l-1.76-1.95c-0.09-0.21-0.18-0.43-0.28-0.65c-0.07-0.16-0.15-0.33-0.23-0.49
			C220.43,71.96,220.26,71.63,220.08,71.3z M221.25,80.94l-0.15,0.03c-0.05-0.05-0.1-0.1-0.15-0.15c-0.05-0.05-0.1-0.1-0.15-0.15
			c-0.1-0.1-0.21-0.2-0.32-0.3l0.65,0.33v0C221.17,80.79,221.21,80.87,221.25,80.94z M219.36,83.38c-0.03-0.03-0.06-0.06-0.09-0.09
			v0c-0.02-0.01-0.04-0.03-0.06-0.05l0.04-0.01l0.63-0.06l-0.01,0h0l-0.44,0.3C219.41,83.44,219.39,83.41,219.36,83.38z
			 M220.59,85.08c-0.24-0.03-0.5,0.01-0.75,0.14c-0.06,0.02-0.13,0.06-0.19,0.1c-0.06,0.04-0.13,0.08-0.19,0.13h0
			c0.01-0.02,0.02-0.04,0.03-0.06c0.02-0.04,0.04-0.09,0.06-0.13c0.02-0.07,0.05-0.13,0.06-0.19c0.01-0.05,0.03-0.1,0.04-0.14
			c0-0.03,0.01-0.05,0.01-0.08c0-0.01,0.01-0.03,0.01-0.05c0.01-0.04,0.01-0.07,0.02-0.11v-0.01c0.01-0.03,0.01-0.05,0.01-0.07
			c0-0.03,0-0.05,0.01-0.07c0-0.05,0-0.1,0-0.15V84.3l1.95-0.41c0.01,0,0.01,0.01,0.01,0.02c0,0.01,0.01,0.01,0.01,0.02
			L220.59,85.08z M215.95,109.96c0,0,0-0.01,0.01-0.01c0.03-0.06,0.05-0.12,0.08-0.17c0.29-0.62,0.57-1.24,0.85-1.87
			c0.03-0.06,0.06-0.13,0.09-0.19c0.01-0.03,0.02-0.05,0.03-0.08c0.02-0.04,0.03-0.07,0.05-0.11c0.03-0.06,0.05-0.12,0.08-0.17
			c0.08-0.18,0.16-0.36,0.24-0.54c0.25-0.57,0.51-1.15,0.75-1.72c0,0,0,0,0,0v0c0,0,0,0,0,0c2.83,3.17,5.67,6.33,8.5,9.51
			c0,0,0,0,0,0c0,0.01,0.01,0.01,0.01,0.02c0.07,0.08,0.1,0.19,0.08,0.35c0,0.01,0,0.03,0,0.04c-0.01,0.06-0.02,0.13-0.04,0.2
			c-1.82-1.47-3.64-2.94-5.63-4.54c-0.18-0.14-0.36-0.29-0.54-0.44c-0.05-0.04-0.1-0.08-0.15-0.12c-0.01,0.03-0.01,0.07-0.02,0.1
			c0,0.04-0.01,0.07-0.02,0.11c-0.01,0.07-0.02,0.13-0.03,0.2c-0.01,0.09-0.03,0.18-0.04,0.27c-0.02,0.11-0.04,0.23-0.05,0.34
			c-0.03,0.19-0.06,0.39-0.09,0.58c-0.03,0.18-0.06,0.36-0.08,0.54c0,0.02-0.01,0.04-0.01,0.05c-0.01,0.06-0.02,0.12-0.03,0.18
			c-0.01,0.05-0.01,0.09-0.02,0.14c-0.01,0.07-0.02,0.15-0.03,0.22c-0.02,0.14-0.04,0.27-0.06,0.41c-0.02,0.15-0.05,0.31-0.07,0.46
			c-0.07,0.47-0.15,0.93-0.22,1.39c0,0.03-0.01,0.05-0.01,0.08c0,0.01,0,0.02-0.01,0.03c-0.05,0.33-0.1,0.65-0.15,0.98
			c-0.01,0-0.02,0.01-0.03,0.01c-0.01,0-0.01,0-0.02,0.01c-0.02,0-0.03,0.01-0.05,0.01c-0.06,0.02-0.13,0.03-0.19,0.04
			c-0.01,0-0.03,0.01-0.04,0.01c0,0,0,0,0,0c0,0,0,0,0,0h0c-0.34-0.69-0.68-1.38-1.02-2.07c-0.06-0.12-0.12-0.25-0.18-0.37
			c-0.12-0.24-0.23-0.48-0.35-0.71c-0.25-0.51-0.51-1.03-0.76-1.54c-0.13-0.27-0.26-0.53-0.4-0.8
			C216.22,110.5,216.08,110.23,215.95,109.96C215.95,109.96,215.95,109.96,215.95,109.96C215.95,109.96,215.95,109.96,215.95,109.96
			z M209.15,96.22C209.15,96.22,209.16,96.22,209.15,96.22c0.01-0.01,0.02-0.02,0.02-0.03c0.03-0.03,0.05-0.07,0.08-0.11
			c0.02-0.02,0.03-0.05,0.05-0.07c0.02-0.02,0.03-0.05,0.05-0.07c0.47,0.32,1.03,0.55,1.41,0.97h0c0.64,0.71,1.28,1.43,1.93,2.15
			c0.64,0.72,1.29,1.44,1.93,2.16c-0.29,0.45-0.61,0.94-0.94,1.44c-0.18,0.28-0.37,0.56-0.56,0.86c-0.07,0.11-0.14,0.22-0.21,0.33
			c0,0,0,0,0,0c0,0,0,0,0,0C211.66,101.3,210.41,98.76,209.15,96.22C209.15,96.22,209.15,96.22,209.15,96.22
			C209.15,96.22,209.15,96.22,209.15,96.22z M199.49,141.13c-0.01,0-0.01,0.01-0.01,0.01c-0.01,0-0.01,0.01-0.02,0.01
			c-0.06,0.05-0.13,0.11-0.19,0.16c0,0,0,0,0,0c-0.84-0.92-1.69-1.84-2.55-2.77c-0.73-0.8-1.48-1.61-2.23-2.43
			c-0.57-0.62-1.15-1.24-1.74-1.89c-0.1,0.2-0.18,0.39-0.26,0.56c-0.01,0.01-0.01,0.02-0.01,0.03c0,0,0,0,0,0
			c0,0.01-0.01,0.01-0.01,0.02c-0.05,0.1-0.09,0.2-0.14,0.3c-0.06,0.14-0.13,0.27-0.19,0.4c-0.11,0.24-0.22,0.47-0.33,0.7
			c0,0-0.01,0.01-0.01,0.01c0,0,0,0,0,0c0,0.01-0.01,0.01-0.01,0.02c-0.12,0.25-0.24,0.44-0.37,0.58c-0.1,0.11-0.21,0.19-0.32,0.22
			c-0.02,0-0.03,0.01-0.05,0.01c-0.27,0.05-0.56-0.17-0.9-0.66c-0.89-1.28-1.69-2.6-2.47-3.93c-1.84-3.12-3.63-6.27-5.43-9.41
			c0,0,0,0,0,0c0,0,0,0,0,0c0,0,0,0,0,0c0.36,0.01,0.73,0.02,1.09,0.03c0.03,0,0.06,0,0.08,0c0.4,0.01,0.8,0.02,1.21,0.04
			c0,0,0,0,0,0l0,0c0,0,0,0,0,0c0.23,0.25,0.46,0.51,0.7,0.77c0.61,0.66,1.21,1.33,1.81,2c0.89,0.97,1.77,1.94,2.65,2.92
			c2.58,2.85,5.14,5.72,7.68,8.61c0.07,0.08,0.13,0.16,0.2,0.24c0.27,0.34,0.51,0.72,0.73,1.11c0.19,0.34,0.37,0.69,0.55,1.04
			c0.09,0.18,0.19,0.37,0.28,0.55c0.01,0.02,0.02,0.04,0.03,0.06c0.05,0.09,0.1,0.18,0.15,0.28c0.05,0.09,0.1,0.18,0.15,0.27
			c0.01,0.02,0.02,0.04,0.03,0.06C199.55,141.07,199.52,141.1,199.49,141.13z M186.31,87.4c0,0,0.01-0.01,0.01-0.01
			c0.06-0.09,0.13-0.17,0.19-0.26c0,0,0,0,0-0.01c0.01-0.01,0.02-0.03,0.03-0.04c0,0,0,0,0,0c0,0,0,0,0,0
			c0.58,0.32,1.3,0.51,1.78,0.92c0.03,0.02,0.06,0.05,0.08,0.08c0.01,0.01,0.02,0.02,0.03,0.03c0.01,0.01,0.04,0.03,0.05,0.05
			c1.67,1.83,3.34,3.67,5.01,5.5c1.94,2.14,3.86,4.28,5.78,6.44c0.73,0.83,1.47,1.66,2.2,2.49c0.16,0.18,0.3,0.37,0.43,0.57
			c0.05,0.07,0.1,0.14,0.14,0.21c0.03,0.04,0.06,0.09,0.08,0.13c0,0,0.01,0.01,0.01,0.01c0.04-0.04,0.08-0.07,0.12-0.1
			c0.11,0.13,0.23,0.26,0.34,0.39l-0.33-0.07c0.06,0.1,0.11,0.2,0.16,0.3c0.03,0.05,0.05,0.1,0.08,0.14
			c0.04,0.07,0.08,0.14,0.11,0.22c0.04,0.08,0.09,0.16,0.13,0.24c0.01,0.03,0.03,0.05,0.04,0.08c0.17,0.34,0.34,0.67,0.52,1
			c0.02,0.04,0.04,0.07,0.06,0.11c0.01,0.03,0.03,0.05,0.04,0.08c0.01,0.01,0.02,0.03,0.02,0.04c0.01,0.03,0.03,0.05,0.04,0.08
			c0,0,0,0,0,0c0,0,0,0,0,0c0,0,0,0,0,0c-0.09,0.07-0.18,0.14-0.26,0.21c-0.02,0.01-0.03,0.02-0.05,0.04
			c-2.01-2.19-4.02-4.37-6.22-6.76c-0.06,0.13-0.12,0.25-0.17,0.37c-0.08,0.18-0.16,0.34-0.23,0.49c-0.04,0.08-0.07,0.15-0.1,0.23
			c-0.02,0.04-0.04,0.08-0.05,0.11c-0.04,0.08-0.07,0.15-0.11,0.23c-0.08,0.17-0.15,0.33-0.23,0.5c-0.02,0.05-0.05,0.09-0.07,0.13
			c-0.01,0.01-0.02,0.03-0.02,0.05c-0.02,0.04-0.04,0.07-0.07,0.11c-0.01,0.02-0.03,0.04-0.04,0.07c-0.01,0.02-0.02,0.03-0.03,0.05
			c-0.01,0.01-0.02,0.03-0.03,0.04c-0.02,0.03-0.04,0.05-0.06,0.08c0,0,0,0.01-0.01,0.01c-0.02,0.02-0.03,0.04-0.05,0.06
			c-0.01,0.01-0.02,0.02-0.03,0.03c-0.02,0.02-0.03,0.03-0.05,0.05c0,0,0,0,0,0c0,0-0.01,0.01-0.01,0.01
			c-0.01,0.01-0.02,0.01-0.03,0.02c0,0,0,0,0,0c0,0,0,0,0,0c-0.02,0.01-0.03,0.02-0.05,0.03c0,0,0,0,0,0c0,0-0.01,0.01-0.01,0.01
			c-0.01,0.01-0.02,0.01-0.03,0.01c-0.02,0.01-0.03,0.01-0.05,0.02c-0.01,0-0.01,0.01-0.02,0.01c-0.01,0-0.02,0-0.03,0c0,0,0,0,0,0
			c-0.02,0-0.03,0-0.05,0.01c-0.01,0-0.03,0-0.04,0c-0.02,0-0.04,0-0.07-0.01c-0.01,0-0.01,0-0.02,0c0,0-0.01,0-0.01,0
			c-0.01,0-0.02-0.01-0.03-0.01c-0.01,0-0.03-0.01-0.04-0.02c0,0-0.01,0-0.01-0.01c0,0-0.01,0-0.01,0
			c-0.03-0.01-0.06-0.03-0.09-0.05c0,0-0.01-0.01-0.02-0.01c0,0,0,0-0.01,0c-0.03-0.02-0.06-0.04-0.09-0.07
			c-0.01-0.01-0.02-0.01-0.02-0.02c-0.03-0.03-0.06-0.06-0.09-0.09c-0.01-0.01-0.02-0.02-0.03-0.03c-0.03-0.03-0.05-0.06-0.08-0.1
			c-0.01-0.02-0.03-0.03-0.04-0.05c-0.03-0.04-0.06-0.08-0.09-0.13c-0.01-0.01-0.01-0.02-0.02-0.03c0,0,0,0,0-0.01
			c-0.3-0.43-0.59-0.87-0.87-1.31c-0.11-0.17-0.21-0.34-0.32-0.51c-0.05-0.08-0.1-0.16-0.15-0.24c-0.01-0.01-0.02-0.03-0.03-0.04
			c-0.01-0.01-0.02-0.03-0.02-0.04c-0.33-0.53-0.65-1.07-0.96-1.61c-0.05-0.09-0.11-0.18-0.16-0.27c-0.42-0.71-0.82-1.42-1.24-2.13
			c0-0.01-0.01-0.02-0.01-0.02c-0.42-0.72-0.84-1.44-1.26-2.16c-0.37-0.65-0.74-1.29-1.11-1.94c-0.1-0.17-0.2-0.34-0.29-0.51
			c-0.3-0.52-0.6-1.04-0.9-1.57c-0.1-0.17-0.2-0.34-0.29-0.51c-0.03-0.05-0.06-0.1-0.08-0.14c-0.17-0.29-0.31-0.6-0.45-0.91
			c-0.03-0.07-0.07-0.14-0.1-0.21C186.26,87.46,186.28,87.43,186.31,87.4z M170.56,81.93c1.34,1.39,2.62,2.82,3.87,4.28
			c2.84,3.31,5.48,6.77,8.03,10.29c1.66,2.3,3.29,4.64,4.9,6.98c0.02,0.03,0.03,0.05,0.05,0.08c0.98,1.42,1.95,2.84,2.93,4.27
			c0.03,0.04,0.05,0.08,0.08,0.12c0.06,0.09,0.13,0.18,0.19,0.27c0.08,0.13,0.17,0.25,0.25,0.37c-0.01,0.01-0.01,0.01-0.02,0.02
			c-0.01,0.01-0.01,0.01-0.02,0.02c-0.01,0.01-0.01,0.01-0.02,0.02c-0.05,0.05-0.1,0.11-0.14,0.16c0,0,0,0-0.01,0.01
			c-0.01,0.01-0.01,0.02-0.02,0.02c0,0,0,0,0,0c-0.2-0.17-0.39-0.34-0.59-0.51c-0.31-0.27-0.61-0.53-0.92-0.79
			c-0.15-0.13-0.3-0.26-0.45-0.39c-0.09-0.08-0.18-0.15-0.27-0.23c-0.09-0.07-0.17-0.14-0.26-0.21c-0.02-0.01-0.03-0.03-0.05-0.04
			c-0.05-0.04-0.09-0.07-0.14-0.11c-0.11-0.09-0.23-0.18-0.34-0.27c-0.04-0.03-0.08-0.06-0.12-0.09c-0.1-0.08-0.2-0.16-0.3-0.24
			c-0.03-0.02-0.06-0.04-0.09-0.07c-0.16-0.12-0.31-0.24-0.47-0.36c-0.05-0.04-0.1-0.08-0.15-0.11c-0.22-0.17-0.44-0.34-0.66-0.5
			c-0.74-0.56-1.49-1.1-2.27-1.59c-0.02-0.01-0.03-0.02-0.05-0.03c-0.19-0.12-0.37-0.24-0.56-0.35c-0.1-0.06-0.2-0.11-0.29-0.16
			c0,0,0,0,0,0c-0.35-0.19-0.69-0.33-1.01-0.43c-0.01,0-0.02-0.01-0.03-0.01c-0.07-0.02-0.13-0.04-0.2-0.06
			c-0.02-0.01-0.05-0.02-0.07-0.02c-0.02,0-0.03-0.01-0.05-0.01c-0.03-0.01-0.05-0.01-0.08-0.01c-0.01,0-0.03-0.01-0.04-0.01
			c-0.07-0.01-0.13-0.03-0.2-0.04c-0.02,0-0.04,0-0.05-0.01c-0.03,0-0.06-0.01-0.09-0.01c-0.02,0-0.04,0-0.06-0.01
			c0,0-0.01,0-0.01,0c-0.01,0-0.03,0-0.04,0c-0.02,0-0.04,0-0.06-0.01c-0.01,0-0.01,0-0.02,0c-0.01,0-0.02,0-0.03,0
			c-0.27-0.01-0.53,0.02-0.79,0.08c-0.06,0.01-0.13,0.03-0.19,0.05c-0.08,0.02-0.16,0.05-0.25,0.08c-0.26,0.1-0.52,0.24-0.78,0.41
			c-0.22,0.15-0.43,0.31-0.65,0.51c-0.08,0.07-0.17,0.16-0.25,0.24c-0.02,0.02-0.04,0.04-0.06,0.06c-0.12,0.11-0.23,0.24-0.35,0.36
			c-0.05,0.05-0.1,0.1-0.17,0.15c-0.04,0.03-0.08,0.06-0.12,0.09c-0.02,0.01-0.03,0.03-0.05,0.04c-0.02,0.02-0.04,0.03-0.07,0.05
			c-0.01,0-0.02,0.01-0.02,0.02c-0.01,0.01-0.01,0.01-0.02,0.01c-0.02,0.01-0.04,0.03-0.06,0.04c-0.01,0.01-0.02,0.02-0.04,0.03
			c-0.01,0.01-0.02,0.02-0.04,0.03c0,0,0,0,0,0c0,0,0,0,0,0c-0.14-0.66-0.29-1.31-0.46-1.96c-0.13-0.53-0.27-1.05-0.42-1.57
			c-0.21-0.77-0.43-1.53-0.67-2.29c-0.05-0.18-0.11-0.35-0.17-0.53c-1.47-4.73-3.21-9.35-4.14-14.19
			C170.76,83.2,170.65,82.57,170.56,81.93C170.56,81.93,170.56,81.93,170.56,81.93C170.56,81.93,170.56,81.93,170.56,81.93z
			 M165.07,115.77c0.04,0.04,0.08,0.09,0.12,0.13c0.4,0.42,0.79,0.84,1.19,1.27c0.02,0.02,0.03,0.04,0.05,0.05
			c1.41,1.53,2.78,3.1,4.1,4.7c0.07,0.09,0.15,0.18,0.22,0.26c0.02,0.03,0.05,0.06,0.07,0.09c0.13,0.15,0.25,0.3,0.38,0.45
			c0.04,0.05,0.08,0.1,0.12,0.15c0.01,0.01,0.01,0.02,0.02,0.03c0.02,0.02,0.04,0.04,0.05,0.07c2.52,3.09,4.89,6.29,7.19,9.53
			c0.34,0.48,0.67,0.96,1.01,1.43c0.18,0.26,0.37,0.53,0.55,0.79c0.93,1.33,1.86,2.66,2.78,3.99c0.57,0.83,1.15,1.67,1.72,2.5
			c0.57,0.84,1.15,1.67,1.72,2.5c-0.03,0.03-0.05,0.06-0.08,0.09c-0.02,0.03-0.05,0.05-0.07,0.08c-0.03,0.03-0.06,0.07-0.08,0.1
			c0,0,0,0,0,0c-0.31-0.26-0.61-0.53-0.91-0.79c-0.16-0.14-0.32-0.28-0.49-0.42c-0.3-0.26-0.61-0.53-0.92-0.79
			c-0.12-0.1-0.25-0.21-0.37-0.31c0,0-0.01,0-0.01-0.01c0,0,0,0-0.01-0.01c-0.01-0.01-0.02-0.02-0.04-0.03
			c-0.18-0.15-0.36-0.29-0.54-0.43c-0.22-0.17-0.43-0.33-0.65-0.5c-0.08-0.06-0.16-0.13-0.25-0.19c-0.02-0.02-0.04-0.03-0.06-0.05
			c-1.12-0.87-2.25-1.73-3.45-2.46c-0.04-0.02-0.07-0.04-0.11-0.07c-0.01,0-0.02-0.01-0.02-0.01c-0.02-0.01-0.03-0.02-0.05-0.03
			c-0.06-0.04-0.12-0.07-0.18-0.11c-0.24-0.14-0.46-0.26-0.69-0.36c-0.01-0.01-0.02-0.01-0.03-0.02c-0.06-0.03-0.12-0.05-0.18-0.08
			c-0.01-0.01-0.02-0.01-0.04-0.01c-0.08-0.03-0.16-0.07-0.24-0.1c0,0-0.01,0-0.01,0c-0.01,0-0.01,0-0.02-0.01
			c-0.08-0.03-0.15-0.05-0.23-0.07c-0.07-0.02-0.14-0.05-0.21-0.06c-0.02-0.01-0.03-0.01-0.05-0.01c-0.13-0.03-0.25-0.06-0.37-0.07
			l-0.05-0.01c-0.13-0.02-0.26-0.03-0.38-0.03h-0.07c-0.01,0-0.01,0-0.02,0c-0.1,0-0.19,0.01-0.29,0.01c-0.01,0-0.02,0-0.03,0
			c-0.01,0-0.03,0-0.04,0c-0.13,0.01-0.25,0.04-0.37,0.07c-0.01,0-0.02,0-0.02,0.01c-0.01,0-0.03,0.01-0.04,0.01
			c-0.08,0.02-0.16,0.05-0.23,0.08c-0.17,0.06-0.33,0.13-0.5,0.21c0,0-0.01,0-0.01,0.01c-0.01,0.01-0.03,0.01-0.04,0.02
			c-0.11,0.06-0.22,0.13-0.33,0.2c-0.01,0.01-0.02,0.02-0.04,0.02c-0.34,0.23-0.69,0.52-1.04,0.87c-0.12,0.12-0.24,0.24-0.36,0.37
			c-0.01,0.01-0.03,0.03-0.04,0.04c0,0,0,0-0.01,0.01c0,0-0.01,0.01-0.01,0.01c-0.01,0.01-0.02,0.02-0.03,0.03
			c-0.01,0.01-0.02,0.02-0.03,0.02c-0.01,0.01-0.01,0.01-0.02,0.01c-0.08,0.07-0.18,0.15-0.34,0.26c-0.04,0.03-0.09,0.07-0.14,0.11
			c0,0,0,0,0,0c0,0,0,0,0,0c0,0,0,0,0,0c-0.01-0.06-0.03-0.13-0.04-0.19c-0.02-0.1-0.04-0.19-0.06-0.29
			c-0.02-0.1-0.04-0.19-0.06-0.29c-0.05-0.23-0.11-0.47-0.17-0.7c-0.72-3-1.66-5.91-2.61-8.81c-0.09-0.27-0.17-0.54-0.26-0.8
			c-0.18-0.54-0.36-1.09-0.53-1.63c-0.22-0.68-0.44-1.37-0.65-2.06c-0.16-0.51-0.31-1.03-0.46-1.54c-0.1-0.33-0.19-0.67-0.28-1.01
			c-0.05-0.19-0.11-0.38-0.16-0.57c-0.09-0.33-0.18-0.66-0.26-0.99c-0.09-0.38-0.18-0.76-0.27-1.14c0-0.02-0.01-0.04-0.01-0.06
			c0-0.02-0.01-0.03-0.01-0.05c-0.02-0.07-0.03-0.14-0.05-0.21c-0.04-0.16-0.07-0.33-0.11-0.49c-0.03-0.16-0.06-0.31-0.09-0.47
			c0-0.02-0.01-0.04-0.01-0.06c-0.01-0.04-0.02-0.09-0.03-0.13c-0.03-0.18-0.07-0.35-0.1-0.53c0-0.03-0.01-0.05-0.01-0.08
			C165.22,116.73,165.14,116.25,165.07,115.77L165.07,115.77C165.07,115.77,165.07,115.77,165.07,115.77
			C165.07,115.77,165.07,115.77,165.07,115.77z M135,96.51c0-0.02,0-0.05,0.01-0.07c0-0.04,0.02-0.08,0.03-0.12
			c0.04-0.12,0.11-0.2,0.22-0.25c0.04-0.02,0.07-0.03,0.12-0.05c0.03-0.01,0.06-0.01,0.09-0.01c0.03,0,0.06-0.01,0.1-0.01
			c0.04,0,0.08,0,0.13,0c0.11,0,0.22,0.02,0.35,0.04c0.05,0.01,0.1,0.02,0.15,0.03c0.09,0.02,0.18,0.04,0.27,0.07
			c0.48,0.15,0.95,0.42,1.27,0.76c0.23,0.25,0.46,0.5,0.69,0.74c0.01,0.01,0.01,0.01,0.02,0.02c0.65,0.71,1.3,1.41,1.95,2.13
			c0.46,0.5,0.91,1.01,1.36,1.51c0.08,0.08,0.15,0.17,0.23,0.25c0.4,0.44,0.79,0.89,1.18,1.33c0.21,0.24,0.41,0.48,0.62,0.72
			c0.41,0.47,0.82,0.93,1.22,1.4c0.42,0.5,0.84,1,1.26,1.5c0.62,0.75,1.24,1.51,1.85,2.27c0.65,0.82,1.3,1.65,1.93,2.49
			c0.27,0.36,0.54,0.72,0.8,1.08c0.05,0.07,0.1,0.13,0.14,0.19c0.01,0.01,0.02,0.02,0.02,0.03c0.51,0.7,1.02,1.41,1.52,2.12
			c0.03,0.04,0.06,0.09,0.09,0.13c0.04,0.06,0.07,0.12,0.11,0.18c0,0,0,0,0,0c0,0,0,0,0,0c0,0,0,0,0,0l0,0c0,0,0,0,0,0
			c0.02,0.04,0.04,0.08,0.06,0.12c0.02,0.04,0.04,0.08,0.06,0.12h0c0,0,0,0,0,0c0,0,0,0,0,0c-0.08,0.07-0.16,0.14-0.25,0.2
			c0,0,0,0,0,0c-0.86-0.82-1.71-1.63-2.57-2.44c-0.13-0.13-0.27-0.25-0.4-0.38c-0.64-0.61-1.29-1.22-1.94-1.83
			c-0.14-0.13-0.29-0.27-0.43-0.41c0,0-0.01-0.01-0.01-0.01c-0.05-0.05-0.1-0.09-0.15-0.14c-0.03-0.03-0.07-0.06-0.1-0.1
			c-0.1-0.09-0.2-0.18-0.29-0.27c-0.2-0.19-0.4-0.37-0.61-0.56c-0.11-0.1-0.21-0.2-0.32-0.3c-0.16-0.14-0.31-0.29-0.47-0.43
			c-0.25-0.23-0.46-0.42-0.65-0.58c-0.07-0.06-0.13-0.11-0.19-0.16c-0.37-0.28-0.63-0.41-0.92-0.36c-0.36,0.06-0.77,0.38-1.49,0.94
			c-0.02,0.01-0.03,0.03-0.05,0.04c0,0-0.01,0.01-0.01,0.01c-0.02,0.02-0.04,0.04-0.07,0.05c-0.07,0.06-0.14,0.12-0.22,0.18
			c-0.01,0.01-0.02,0.01-0.03,0.02c-0.01,0-0.01,0.01-0.02,0.01c-0.01,0.01-0.01,0.01-0.02,0.02c-0.38,0.28-0.68,0.45-0.92,0.5
			c-0.01,0-0.03,0.01-0.04,0.01c-0.04,0.01-0.07,0.01-0.11,0.01c0,0,0,0-0.01,0c-0.34-0.01-0.57-0.34-0.85-1.03
			c-0.22-0.56-0.43-1.13-0.64-1.7c-0.03-0.07-0.06-0.15-0.08-0.22c-0.02-0.06-0.05-0.12-0.07-0.19c-0.16-0.43-0.33-0.87-0.49-1.3
			c-0.17-0.45-0.35-0.89-0.53-1.33c-0.02-0.04-0.03-0.08-0.05-0.12c-0.16-0.4-0.33-0.79-0.49-1.19c-0.08-0.18-0.15-0.35-0.23-0.53
			c-0.23-0.54-0.48-1.08-0.71-1.62c-0.25-0.57-0.5-1.15-0.75-1.72c-0.02-0.04-0.04-0.08-0.05-0.12c-0.04-0.09-0.08-0.18-0.12-0.27
			c-0.09-0.21-0.19-0.43-0.28-0.64c-0.07-0.14-0.11-0.27-0.15-0.4c-0.03-0.12-0.05-0.23-0.06-0.32v0c0-0.01,0-0.01,0-0.02
			C135.01,96.54,135,96.53,135,96.51C135,96.52,135,96.51,135,96.51z M127.86,130.78c0.02-0.04,0.04-0.07,0.06-0.1
			c0.04-0.04,0.09-0.08,0.15-0.1c0.01,0,0.02,0,0.03-0.01c0.18-0.07,0.44-0.08,0.78-0.02c0.36,0.07,0.74,0.2,1.09,0.39
			c0.01,0.01,0.03,0.01,0.05,0.02c0.01,0.01,0.02,0.01,0.03,0.02c0.11,0.06,0.21,0.13,0.31,0.21c0.11,0.08,0.21,0.17,0.29,0.26
			c0.15,0.16,0.3,0.32,0.44,0.48c0.07,0.08,0.14,0.15,0.21,0.23c0.14,0.15,0.27,0.3,0.41,0.44c0.58,0.63,1.16,1.25,1.74,1.88
			c0.23,0.25,0.45,0.51,0.68,0.76c0.38,0.42,0.76,0.84,1.14,1.27c0.06,0.07,0.12,0.14,0.18,0.21c0.71,0.8,1.41,1.6,2.11,2.4
			c0.06,0.07,0.12,0.13,0.17,0.2c0.46,0.53,0.91,1.07,1.36,1.61c0.39,0.46,0.77,0.92,1.15,1.38c0.32,0.4,0.64,0.8,0.96,1.2
			c0.2,0.24,0.39,0.49,0.59,0.73c0.28,0.36,0.56,0.71,0.84,1.07c0.08,0.1,0.15,0.2,0.22,0.29c0.16,0.21,0.33,0.43,0.49,0.64
			c1,1.31,1.97,2.64,2.91,4.01c0.04,0.07,0.08,0.14,0.12,0.21c0,0,0,0.01,0.01,0.01c0.04,0.07,0.07,0.15,0.11,0.22c0,0,0,0,0,0
			c0,0,0,0,0,0c-0.01,0.01-0.01,0.01-0.02,0.02c-0.01,0.01-0.01,0.01-0.02,0.02c-0.01,0.01-0.03,0.02-0.04,0.04
			c-0.06,0.05-0.12,0.1-0.17,0.15c-0.2-0.19-0.4-0.38-0.6-0.57c-0.12-0.11-0.23-0.22-0.35-0.34c-0.01-0.01-0.01-0.01-0.02-0.02
			c-0.05-0.04-0.09-0.09-0.14-0.13c-1.04-0.99-2.08-1.99-3.13-2.98c-0.3-0.28-0.6-0.57-0.9-0.85c-0.16-0.15-0.32-0.3-0.48-0.45
			c-0.09-0.08-0.18-0.17-0.27-0.25c-0.03-0.03-0.07-0.06-0.1-0.09c-0.28-0.26-0.57-0.53-0.85-0.79c-0.26-0.25-0.53-0.49-0.79-0.74
			c-1.32-1.19-1.61-1.44-2.54-0.81c-0.09,0.06-0.2,0.14-0.31,0.22c-0.06,0.05-0.13,0.09-0.2,0.15c-0.12,0.09-0.24,0.18-0.37,0.29
			c-0.15,0.11-0.28,0.24-0.42,0.34c-0.13,0.09-0.24,0.17-0.35,0.24c-0.04,0.02-0.07,0.04-0.11,0.06c-0.09,0.06-0.18,0.1-0.27,0.14
			c-0.04,0.02-0.07,0.03-0.11,0.04c-0.15,0.05-0.29,0.07-0.41,0.03c0,0,0,0,0,0c0,0,0,0,0,0c0,0,0,0,0,0
			c-0.05-0.01-0.09-0.03-0.13-0.06c0,0,0,0,0,0c-0.01-0.01-0.02-0.01-0.03-0.02c-0.04-0.03-0.08-0.06-0.12-0.1c0,0,0,0,0,0
			c0,0-0.01,0-0.01-0.01c-0.03-0.03-0.06-0.07-0.08-0.1c0,0,0,0-0.01-0.01c-0.01-0.02-0.02-0.03-0.03-0.05c0,0-0.01-0.01-0.01-0.01
			c-0.01-0.02-0.03-0.05-0.05-0.07c-0.01-0.01-0.02-0.03-0.02-0.04c0,0,0,0,0-0.01c0,0,0,0,0,0c-0.02-0.04-0.05-0.09-0.07-0.13
			c0,0,0,0,0-0.01c-0.01-0.03-0.03-0.06-0.04-0.09c-0.01-0.03-0.03-0.06-0.04-0.09c0,0,0-0.01,0-0.01
			c-0.01-0.01-0.01-0.02-0.02-0.04c-0.01-0.01-0.01-0.03-0.02-0.04c-0.01-0.01-0.01-0.03-0.02-0.04c-0.01-0.04-0.03-0.07-0.05-0.12
			c-0.36-0.92-0.7-1.85-1.05-2.77c-0.09-0.24-0.18-0.48-0.28-0.72c-0.03-0.07-0.06-0.15-0.08-0.22c-0.1-0.25-0.2-0.5-0.3-0.75
			c-0.06-0.16-0.13-0.31-0.19-0.47c-0.02-0.05-0.04-0.11-0.06-0.16c-0.08-0.21-0.17-0.41-0.26-0.62c-0.09-0.21-0.18-0.42-0.26-0.63
			c-0.18-0.43-0.37-0.85-0.56-1.28c-0.14-0.33-0.28-0.66-0.43-0.99c-0.42-0.96-0.85-1.92-1.28-2.87c-0.05-0.12-0.09-0.22-0.12-0.32
			C127.77,131.2,127.77,130.95,127.86,130.78z M125.28,96.35c-0.02,0.01-0.04,0.02-0.06,0.04c-0.02,0.01-0.04,0.03-0.05,0.04
			c-0.01-0.04-0.02-0.07-0.04-0.1c-0.01-0.03-0.03-0.06-0.04-0.09v0c0,0,0,0,0-0.01C125.15,96.28,125.21,96.32,125.28,96.35z
			 M123.27,96.11c-0.04-0.13-0.08-0.25-0.12-0.37c0.04,0,0.07,0,0.11-0.01h0.1C123.31,95.85,123.29,95.97,123.27,96.11z
			 M124.73,94.17l0.03,0.01c-0.01,0.01-0.02,0.02-0.04,0.03c-0.02,0.02-0.04,0.04-0.05,0.06c-0.01,0.02-0.03,0.04-0.05,0.06
			l-0.28-0.19l-0.01,0L124.73,94.17z M124.45,94.85c0,0.08,0,0.16,0.01,0.25c0.01,0.05,0.02,0.1,0.03,0.15
			c0.02,0.07,0.04,0.14,0.06,0.21c0.01,0.04,0.03,0.08,0.05,0.13c0,0-0.01,0-0.01-0.01c0,0-0.01-0.01-0.01-0.01
			c-0.03-0.02-0.06-0.04-0.09-0.07h0c-0.04-0.03-0.08-0.05-0.13-0.07c-0.03-0.01-0.07-0.03-0.1-0.04c-0.02-0.01-0.04-0.01-0.05-0.01
			c-0.02-0.01-0.04-0.01-0.07-0.02c-0.03-0.01-0.05-0.01-0.07-0.01c-0.04-0.01-0.07-0.01-0.1-0.01c-0.03,0-0.05,0-0.08,0l-0.7-0.74
			c0.01-0.01,0.01-0.01,0.01-0.02v0L124.45,94.85z M123.45,92.69L123.45,92.69c0.01-0.03,0.02-0.05,0.04-0.07
			c0.01-0.02,0.03-0.05,0.04-0.07l0.42-0.21c-0.14,0.13-0.27,0.25-0.4,0.38L123.45,92.69z M123.59,87.35l0.77-1.16
			c-0.32,0.55-0.59,1.12-0.82,1.67l-1.12,1.24L123.59,87.35z M121.64,92.02l0.27,0.16l-0.14,0.01
			C121.72,92.14,121.67,92.08,121.64,92.02L121.64,92.02z M120.55,90.72l0.84,0.63l0,0l0.01,0l-0.34-0.06
			c-0.08-0.1-0.17-0.2-0.25-0.29c-0.04-0.05-0.09-0.1-0.13-0.15C120.64,90.81,120.59,90.76,120.55,90.72L120.55,90.72z
			 M120.61,93.08l-0.21,0.1c-0.18-0.07-0.35-0.12-0.54-0.18L120.61,93.08z M207.44,90.58c-0.55-0.28-0.93-0.11-1.38,0.09
			c-0.19,0.14-0.13,0.31,0,0.41c0.81,0.62,1.55,1.36,2.62,1.55c0.27,0.06,0.54,0.17,0.81,0.17c0.83,0,1.57,0.03,2.2,0.79
			c0.44,0.53,1.25,0.26,1.59-0.37c0.16-0.3,0.13-0.53-0.21-0.66c-0.54-0.21-1.08-0.41-1.63-0.61c-0.41-0.15-0.55-0.3-0.11-0.64
			c1.79-1.37,2.46-3.35,2.88-5.44c0.04-0.2,0.32-0.76-0.37-0.54c-0.67,1.18-1.4,2.32-2.5,3.16c-0.41,0.42-0.45,0.11-0.52-0.24
			c-0.32-1.5-0.93-2.87-1.95-4.04c-0.18-0.21-0.36-0.61-0.68-0.43c-0.29,0.15-0.03,0.5,0,0.76c0.19,1.69,0.23,3.4,0.46,5.09
			C208.77,90.48,208.17,90.95,207.44,90.58z M203.17,81.11c-0.67,1.18-1.4,2.32-2.5,3.16c-0.41,0.42-0.45,0.11-0.52-0.24
			c-0.32-1.5-0.93-2.87-1.95-4.04c-0.18-0.21-0.36-0.61-0.68-0.43c-0.29,0.15-0.03,0.5,0,0.76c0.19,1.69,0.23,3.4,0.46,5.09
			c0.12,0.86-0.48,1.33-1.21,0.95c-0.55-0.28-0.93-0.11-1.38,0.09c-0.19,0.14-0.13,0.31,0,0.41c0.81,0.62,1.55,1.36,2.62,1.55
			c0.27,0.06,0.54,0.17,0.81,0.17c0.83,0,1.57,0.03,2.2,0.79c0.44,0.53,1.25,0.26,1.59-0.37c0.16-0.3,0.13-0.53-0.21-0.66
			c-0.54-0.21-1.08-0.41-1.63-0.61c-0.41-0.15-0.55-0.3-0.11-0.64c1.79-1.37,2.46-3.35,2.88-5.44
			C203.58,81.45,203.86,80.89,203.17,81.11z M202.37,96.11c1.41-1.08,1.94-2.64,2.27-4.29c0.03-0.16,0.25-0.6-0.29-0.43
			c-0.53,0.93-1.1,1.83-1.97,2.49c-0.32,0.33-0.35,0.09-0.41-0.19c-0.25-1.18-0.73-2.27-1.54-3.18c-0.14-0.16-0.28-0.48-0.54-0.34
			c-0.22,0.12-0.02,0.4,0,0.6c0.15,1.34,0.18,2.68,0.36,4.02c0.09,0.68-0.38,1.05-0.96,0.75c-0.43-0.22-0.73-0.08-1.09,0.07
			c-0.15,0.11-0.1,0.25,0,0.32c0.64,0.49,1.23,1.08,2.07,1.23c0.21,0.05,0.42,0.14,0.64,0.14c0.66,0,1.24,0.02,1.73,0.62
			c0.35,0.42,0.98,0.21,1.26-0.3c0.13-0.24,0.11-0.42-0.16-0.52c-0.43-0.16-0.85-0.32-1.28-0.48
			C202.13,96.5,202.02,96.38,202.37,96.11z"/>
	</g>
	<path class="st152" d="M182.87,49.21l0.09,0.1l-11.1,6.35l-0.29,0.17l-0.73,0.42c0.4-0.28,0.59-0.71,0.57-1.12
		c-0.01-0.14-0.04-0.27-0.1-0.4c-0.1-0.22-0.28-0.41-0.55-0.52l-0.37-0.15l-12.14-5.01c-0.52-0.21-0.76-0.78-0.59-1.34l0.88-2.82
		c0.2-0.64,0.88-1.05,1.51-0.91l9.2,2.12l7.89,1.82l5.56,1.28C182.76,49.2,182.81,49.2,182.87,49.21z M205.95,45.87
		c-0.06-0.23-0.16-0.44-0.32-0.66c-0.39-0.53-1.05-1-1.94-1.36l0.21,0.21c-0.19-0.06-0.39-0.13-0.59-0.17c-0.01,0-0.01,0-0.01-0.01
		c-3.17-0.81-8.09-0.23-9.29-0.07c-0.11,0.02-0.22,0.04-0.32,0.08c-0.05,0.02-0.11,0.04-0.16,0.07V43.9l-12.75,7.2l-7.14,4
		l-19.7,11.04c-0.41,0.23-0.92,0.24-1.34,0.02l-0.8-0.41l-8.68-4.53l-1.51-0.87c-0.3-0.16-0.61-0.2-0.89-0.13
		c-0.58,0.14-1.03,0.69-0.93,1.38c-0.01,0.03-0.01,0.07-0.01,0.11c-0.02,0.22,0.01,0.42,0.09,0.62c0.03,0.05,0.04,0.11,0.05,0.17
		l0.36,2.39c0.05,0.32,0.22,0.6,0.48,0.8l2.36,1.77l10.94,8.22c0.03,0.02,0.05,0.05,0.08,0.05c0.32,0.21,0.7,0.25,1.05,0.13
		c0.46-0.15,0.76-0.36,0.88-0.46c0.06-0.04,0.13-0.08,0.2-0.12l17.84-9.6l0.56-0.3c0.04-0.03,0.09-0.04,0.14-0.06
		c0.99-0.41,2.09,0.43,1.91,1.53l-0.08,0.5l-2.01,12.13c-0.08,0.51,0.41,0.93,0.89,0.77c1.99-0.68,4.08-1.25,6.26-1.71
		c0.24-0.05,0.43-0.23,0.51-0.45l4.37-13.21l1.54-4.63l0.01-0.02l0.64-1.93c0.02-0.06,0.04-0.13,0.07-0.19
		c0.05-0.1,0.12-0.19,0.19-0.28c0.13-0.15,0.29-0.28,0.48-0.37c0.57-0.26,1.52-0.71,2.7-1.3l0.04-0.02c1.49-0.74,3.35-1.7,5.2-2.75
		c4.18-2.36,8.36-5.2,8.47-7.13C206,46.14,205.99,46,205.95,45.87z M143.66,65.35c-0.5,0.12-1.01-0.2-1.13-0.7
		c-0.13-0.5,0.19-1.01,0.69-1.13c0.51-0.12,1.01,0.2,1.13,0.7C144.48,64.72,144.17,65.23,143.66,65.35z M156.37,68.17l-0.04-0.19
		c-0.08-0.3,0.05-0.61,0.32-0.77l2.56-1.43c0.34-0.2,0.77-0.05,0.94,0.28L156.37,68.17z M163.38,64.25l-0.05-0.22
		c-0.07-0.3,0.06-0.6,0.33-0.76l2.55-1.43c0.35-0.2,0.78-0.05,0.95,0.3L163.38,64.25z M170.02,60.54l-0.05-0.23
		c-0.07-0.3,0.06-0.6,0.32-0.76l2.56-1.44c0.35-0.2,0.79-0.04,0.95,0.32L170.02,60.54z M176.36,56.99l-0.06-0.25
		c-0.07-0.3,0.06-0.61,0.33-0.77l2.55-1.43c0.36-0.21,0.82-0.04,0.97,0.33L176.36,56.99z M182.71,53.44l-0.06-0.27
		c-0.07-0.3,0.06-0.61,0.33-0.76l2.55-1.44c0.37-0.21,0.83-0.03,0.97,0.35L182.71,53.44z M189.66,49.21
		c-0.07-0.3,0.05-0.6,0.32-0.76l2.56-1.43c0.37-0.22,0.84-0.03,0.97,0.37l-3.78,2.12L189.66,49.21z M193.51,49.48l-2.55,1.43
		c-0.4,0.22-0.89,0-1-0.44l-0.05-0.19l3.8-2.12l0.13,0.56C193.92,49.02,193.78,49.33,193.51,49.48z M201.03,47.2l-4.1,2.5
		c-0.34,0.21-0.79,0.03-0.89-0.37l-0.79-3.23c-0.1-0.41,0.24-0.79,0.67-0.73l4.89,0.73C201.35,46.18,201.49,46.9,201.03,47.2z"/>
</g>
</svg>
