<?xml version="1.0" encoding="utf-8"?>
<!-- Generator: Adobe Illustrator 27.8.1, SVG Export Plug-In . SVG Version: 6.00 Build 0)  -->
<svg version="1.1" xmlns="http://www.w3.org/2000/svg" xmlns:xlink="http://www.w3.org/1999/xlink" x="0px" y="0px"
	 viewBox="0 0 350 230.71" style="enable-background:new 0 0 350 230.71;" xml:space="preserve">
<style type="text/css">
	.st0{fill:#E1FFFD;}
	.st1{fill:#FFFEE3;}
	.st2{fill:#E5FFE1;}
	.st3{fill:#FFF6E3;}
	.st4{fill:#FFEAE6;}
	.st5{fill:#E6FFF0;}
	.st6{fill:#E6FDFF;}
	.st7{fill:#E6F5FF;}
	.st8{fill:#FFFED4;}
	.st9{display:none;}
	.st10{display:inline;}
	.st11{fill:#009EFF;}
	.st12{fill:#FF8500;}
	.st13{fill:#9B3C00;}
	.st14{fill:#660045;}
	.st15{fill:#00576B;}
	.st16{fill:#564F2C;}
	.st17{fill:#FFA354;}
	.st18{fill:#002760;}
	.st19{fill:#4C0037;}
	.st20{fill:#7C0B00;}
	.st21{fill:#144703;}
	.st22{fill:#2C6DC9;}
	.st23{fill:#3B243C;}
	.st24{fill:#001EA4;}
	.st25{fill:#8D5300;}
	.st26{fill:#30A976;}
	.st27{fill:#A02400;}
	.st28{fill:#0092FF;}
	.st29{fill:#60086C;}
	.st30{fill:#520013;}
	.st31{fill:#00AB7B;}
	.st32{fill:#0C0C14;}
	.st33{fill:#FA7B14;}
	.st34{fill:#0870A3;}
	.st35{fill:#999999;}
	.st36{fill:#0D254C;}
	.st37{fill:#9C0505;}
	.st38{fill:#850506;}
	.st39{fill:#A30C11;}
	.st40{fill:#1261A0;}
	.st41{fill:#FFFFFF;}
	.st42{fill:none;}
	.st43{fill:#1A1E2D;}
	.st44{fill:#3AC3B1;}
	.st45{fill:#777777;}
	.st46{fill:#4C0400;}
	.st47{fill:#00484C;}
	.st48{fill:#59D901;}
	.st49{fill:#58CCED;}
	.st50{fill:#CC5500;}
	.st51{fill:#072F5F;}
	.st52{fill:url(#SVGID_1_);}
	.st53{fill:url(#SVGID_00000031923505138868793170000011783638492836792713_);}
	.st54{fill:url(#SVGID_00000014628339788659830060000016461749528977174170_);}
	.st55{fill:#42FFF5;}
	.st56{fill-rule:evenodd;clip-rule:evenodd;fill:url(#SVGID_00000028320876367392094750000014090884036431674294_);}
	.st57{fill:url(#SVGID_00000167382665838416412630000006418524794440901504_);}
	.st58{fill:url(#SVGID_00000095313415339113111310000013375041482969749928_);}
	.st59{fill-rule:evenodd;clip-rule:evenodd;fill:url(#SVGID_00000181060845254307840150000008990532544441626025_);}
	.st60{fill-rule:evenodd;clip-rule:evenodd;fill:url(#SVGID_00000160905077104348219690000001509226523459193757_);}
	.st61{fill:#051326;}
	.st62{fill:url(#SVGID_00000146457597646207582170000004186541267543137430_);}
	.st63{fill:#FEFEFE;}
	.st64{fill-rule:evenodd;clip-rule:evenodd;fill:url(#SVGID_00000105391999592520618430000001152811843873546897_);}
	.st65{fill:url(#SVGID_00000030445988686141388620000004261953227484731297_);}
	.st66{fill:#FFC73D;}
	.st67{fill:url(#SVGID_00000152984877177484427410000016689858626363320988_);}
	.st68{fill:url(#SVGID_00000172422519378304300510000016801892831066202506_);}
	.st69{fill-rule:evenodd;clip-rule:evenodd;fill:url(#SVGID_00000094591843337408072760000001086993286530061195_);}
	.st70{fill:url(#SVGID_00000032649583717168237040000004916902032407067327_);}
	.st71{fill:url(#SVGID_00000082332253599631492580000011014860197398723475_);}
	.st72{fill-rule:evenodd;clip-rule:evenodd;fill:#002242;}
	.st73{fill-rule:evenodd;clip-rule:evenodd;fill:#29AAE4;}
	.st74{fill:url(#SVGID_00000036971710138473494160000015734684533641685423_);}
	.st75{fill:url(#SVGID_00000149357849466154252700000002088969750074120382_);}
	.st76{fill:url(#SVGID_00000041976135331677809610000011153924441373541767_);}
	.st77{fill:url(#SVGID_00000168795691530378619880000000446070567908002974_);}
	.st78{opacity:0.32;fill:#191919;enable-background:new    ;}
	.st79{fill:url(#SVGID_00000178169818319427551440000014445344372314270634_);}
	.st80{fill:url(#SVGID_00000097469574994545272920000013793211160493123772_);}
	.st81{fill:url(#SVGID_00000144310391493762017470000004595884928739579026_);}
	.st82{fill:url(#SVGID_00000120543005662720329760000006366522416221845948_);}
	.st83{fill:url(#SVGID_00000132770904319305196960000000213085612968359608_);}
	.st84{fill:url(#SVGID_00000134220507451138196010000012370257899759656603_);}
	.st85{fill:url(#SVGID_00000163789121396560275890000006398702557163447176_);}
	.st86{fill:url(#SVGID_00000059273071207273798810000006560799718841548707_);}
	.st87{fill:url(#SVGID_00000180359504175116757460000003204475951963887753_);}
	.st88{fill:url(#SVGID_00000031917548933498023890000011650037085700748439_);}
	.st89{fill-rule:evenodd;clip-rule:evenodd;fill:url(#SVGID_00000018937405388717115910000002653634531420852919_);}
	.st90{fill:#125899;}
	.st91{fill:url(#SVGID_00000065764263327320275170000005904583774562878351_);}
	.st92{fill:url(#SVGID_00000131329347687286630930000015425594908643378605_);}
	.st93{fill:url(#SVGID_00000020379433627397364220000010514692368374253493_);}
	.st94{fill:url(#XMLID_00000007415609339569488730000009277150121491511461_);}
	.st95{fill:url(#SVGID_00000043423519826410399040000006666674330876377479_);}
	.st96{fill:url(#SVGID_00000129181469154339277600000013746447762152553387_);}
	.st97{fill:url(#SVGID_00000013892600974839287260000018339569053187890337_);}
	.st98{fill-rule:evenodd;clip-rule:evenodd;fill:url(#SVGID_00000130617176674536379240000005642666831963702659_);}
	.st99{fill:#0C152A;}
	.st100{fill:url(#SVGID_00000128474006539329191360000003157332659514316721_);}
	.st101{fill:url(#SVGID_00000155139083437996590620000008647154064721786027_);}
	.st102{fill:url(#SVGID_00000182517646555833536870000015345711917592823461_);}
	.st103{fill:url(#SVGID_00000173877842755390713950000013783903667873660862_);}
	.st104{fill:url(#SVGID_00000098907447259253099760000003923468503217155480_);}
	.st105{fill:url(#SVGID_00000010990148695302274400000007763913337635324326_);}
	.st106{fill:url(#SVGID_00000006694916656737383340000014380959079046375351_);}
	.st107{fill:url(#SVGID_00000167354186987061712550000017370586191019998654_);}
	.st108{fill:url(#SVGID_00000047742370733567317870000017697830733133242001_);}
	.st109{fill:url(#SVGID_00000077313903681234505090000011224928631378048431_);}
	.st110{fill:url(#SVGID_00000065780854709487170640000006577378836067636646_);}
	.st111{fill:url(#SVGID_00000055676138084738274860000013975899671893057963_);}
</style>
<g id="Layer_1">
</g>
<g id="Layer_2">
</g>
<g id="Layer_3">
</g>
<g id="Layer_4">
</g>
<g id="Layer_5">
</g>
<g id="Layer_6">
</g>
<g id="Layer_7">
</g>
<g id="Layer_8">
</g>
<g id="Layer_9">
</g>
<g id="Layer_10">
</g>
<g id="Layer_11">
</g>
<g id="Layer_12">
</g>
<g id="Layer_13">
</g>
<g id="Layer_14">
</g>
<g id="Layer_15">
	<g>
		<path class="st90" d="M157.81,76.98l18.95,9.81l0.02,12.89l-3.84,1.32l-15.12,4.1L157.81,76.98z M135.34,65.46l18.32,9.43
			l0.13,0.06l-0.1,30.62l-0.19,0.14c-0.58-0.7-0.88-1.85-1.28-2.69l-1.8-3.5c-3.65-6.58-8.84-11.55-15.07-15.65L135.34,65.46z
			 M178.5,41.97l17.93,8.77l-40.5,20.71l-0.25,0.09c-0.59-0.15-1.18-0.53-1.73-0.81l-3.1-1.59l-12.94-6.69L178.5,41.97z
			 M200.34,53.04l0.09-0.02c0.01,0,0.32-0.04,0.33-0.04c0.23,0.03,0.67,0.3,0.9,0.41l2.18,1.08l8.28,4.1
			c2.43,1.2,4.97,2.23,7.32,3.59c-1.33,0.93-3,1.62-4.45,2.36l-7.61,4.01l-28.13,14.73l-0.11,0.06c-0.01,0-0.29,0.06-0.31,0.06
			c-0.47-0.04-1.49-0.74-1.96-0.97l-7.55-3.97c-2.93-1.56-5.94-2.95-8.8-4.64v-0.11l39.68-20.56L200.34,53.04z"/>
		<path class="st66" d="M244.54,65.74l0.14-0.03l0.02,0.11l-10.99,10.37L218.21,89.3c-7.86,6.22-15.88,12.13-24.38,17.45l-9.24,5.44
			c-4.73,2.49-9.59,4.74-14.6,6.62c-4.1,1.54-8.37,2.94-12.71,3.62c-5.26,0.83-10.91,0.48-16-1.12c-2.96-0.93-5.51-2.48-8.29-3.82
			c-1.62-0.78-3.28-1.39-5-1.93c-1.53-3.4-4.45-6.32-7.47-8.45c-6.98-4.92-16.51-6.21-24.82-5.07c-1.7,0.23-3.39,0.57-5.06,0.96
			c-0.75,0.18-1.49,0.43-2.25,0.56c3.11-1.69,6.47-3.24,9.84-4.36c9.11-3.02,19.31-3.62,28.41-0.18c2.1,0.79,3.93,1.9,5.92,2.9
			l0.09-0.15l-0.34-0.68c-2.5-4.37-5.7-7.95-9.98-10.67c-7.11-4.51-15.89-6.59-24.29-6.17c-3.04,0.15-6.04,0.66-9.01,1.31l6.46-2.84
			c11.1-4.06,23.45-4.42,34.32,0.64c8.3,3.87,15.12,10.02,19.39,18.17c1.19,2.27,2.09,4.64,2.96,7.05c0.67,0.07,1.49-0.09,2.18-0.15
			c2.42-0.21,4.74-0.61,7.12-1.07c7.66-1.5,14.78-4.1,21.95-7.09c15.28-6.38,29.74-14.7,43.76-23.46L244.54,65.74z"/>
		<linearGradient id="SVGID_1_" gradientUnits="userSpaceOnUse" x1="95.5932" y1="109.3076" x2="261.6311" y2="109.3076">
			<stop  offset="0" style="stop-color:#1C75BC"/>
			<stop  offset="1" style="stop-color:#262262"/>
		</linearGradient>
		<path class="st52" d="M221.08,65.74l0.34-0.03l-0.1,11.12l-40.25,21.16l-0.27,0.12l-0.14-0.06l-0.01-11.03L221.08,65.74z
			 M253.83,77.03c-7.44,8.11-15.53,15.66-24.03,22.63c-8.03,6.59-16.48,12.74-25.52,17.91l-15.37,7.92l-4.27,1.78
			c0.36,0.1,1.28-0.29,1.66-0.41l5.15-1.74c18.98-6.68,36.57-16.17,53.91-26.29l8.64-5.1l7.63-4.68c-0.62,0.81-1.39,1.52-2.11,2.25
			l-3.62,3.67c-7.32,7.38-15.18,14.07-23.5,20.28c-6.02,4.5-12.2,8.75-18.75,12.46l-10.82,5.74l-3.93,1.82
			c-0.86,0.38-1.87,0.69-2.64,1.22c2.5-0.59,5.04-1.69,7.45-2.6c8.43-3.18,16.53-7.12,24.33-11.62l5.63-3.56l-5.46,6.76l-6.98,7.99
			c-1.67,1.76-3.5,3.3-5.37,4.84c-8.32,6.84-18.05,11.59-28.66,13.59c-2.6,0.49-5.27,0.9-7.92,0.97c-9.32,0.22-18.74-1.91-27.11-6
			c-5.02-2.45-9.85-5.74-14.14-9.31c-1.88-1.56-3.6-3.25-5.36-4.93c-7.78-7.4-17.86-12.18-28.58-13.15
			c-2.81-0.25-5.67-0.16-8.5-0.09c1.17-0.65,2.59-1.09,3.85-1.55c9.56-3.47,20.75-3.16,30.14,0.74c2.4,1,4.58,2.32,6.89,3.46
			c2.66,1.31,5.32,2.25,8.23,2.85c5.29,1.11,10.85,0.87,16.11-0.27c9.3-2.02,18.09-5.84,26.66-9.88l14.38-7.11l21.56-12.19
			l17.43-10.4L253.83,77.03z"/>
	</g>
</g>
</svg>
