<?xml version="1.0" encoding="utf-8"?>
<!-- Generator: Adobe Illustrator 27.8.1, SVG Export Plug-In . SVG Version: 6.00 Build 0)  -->
<svg version="1.1" xmlns="http://www.w3.org/2000/svg" xmlns:xlink="http://www.w3.org/1999/xlink" x="0px" y="0px"
	 viewBox="0 0 350 230.71" style="enable-background:new 0 0 350 230.71;" xml:space="preserve">
<style type="text/css">
	.st0{fill:#E1FFFD;}
	.st1{fill:#FFFEE3;}
	.st2{fill:#E5FFE1;}
	.st3{fill:#FFF6E3;}
	.st4{fill:#FFEAE6;}
	.st5{fill:#E6FFF0;}
	.st6{fill:#E6FDFF;}
	.st7{fill:#E6F5FF;}
	.st8{fill:#FFFED4;}
	.st9{display:none;}
	.st10{display:inline;}
	.st11{fill:#009EFF;}
	.st12{fill:#FF8500;}
	.st13{fill:#9B3C00;}
	.st14{fill:#660045;}
	.st15{fill:#00576B;}
	.st16{fill:#564F2C;}
	.st17{fill:#FFA354;}
	.st18{fill:#002760;}
	.st19{fill:#4C0037;}
	.st20{fill:#7C0B00;}
	.st21{fill:#144703;}
	.st22{fill:#2C6DC9;}
	.st23{fill:#3B243C;}
	.st24{fill:#001EA4;}
	.st25{fill:#8D5300;}
	.st26{fill:#30A976;}
	.st27{fill:#A02400;}
	.st28{fill:#0092FF;}
	.st29{fill:#60086C;}
	.st30{fill:#520013;}
	.st31{fill:#00AB7B;}
	.st32{fill:#0C0C14;}
	.st33{fill:#FA7B14;}
	.st34{fill:#0870A3;}
	.st35{fill:#999999;}
	.st36{fill:#0D254C;}
	.st37{fill:#9C0505;}
	.st38{fill:#850506;}
	.st39{fill:#A30C11;}
	.st40{fill:#1261A0;}
	.st41{fill:#FFFFFF;}
	.st42{fill:none;}
	.st43{fill:#1A1E2D;}
	.st44{fill:#3AC3B1;}
	.st45{fill:#777777;}
	.st46{fill:#4C0400;}
	.st47{fill:#00484C;}
	.st48{fill:#59D901;}
	.st49{fill:#58CCED;}
	.st50{fill:#CC5500;}
	.st51{fill:#072F5F;}
	.st52{fill:url(#SVGID_1_);}
	.st53{fill:url(#SVGID_00000124864330266306164100000010262517587790516110_);}
	.st54{fill:url(#SVGID_00000027604376634063508230000002384457095318354836_);}
	.st55{fill:#42FFF5;}
	.st56{fill-rule:evenodd;clip-rule:evenodd;fill:url(#SVGID_00000007397802426972876410000017182348734902879143_);}
	.st57{fill:url(#SVGID_00000117663395929307188790000010737996145440203425_);}
	.st58{fill:url(#SVGID_00000175282975485495220450000014365821138085670586_);}
	.st59{fill-rule:evenodd;clip-rule:evenodd;fill:url(#SVGID_00000042018451572649849200000013134109106698097804_);}
	.st60{fill-rule:evenodd;clip-rule:evenodd;fill:url(#SVGID_00000109725509242610178160000017207414947529130431_);}
	.st61{fill:#051326;}
	.st62{fill:url(#SVGID_00000101096399278277056000000017640207818660785811_);}
	.st63{fill:#FEFEFE;}
	.st64{fill-rule:evenodd;clip-rule:evenodd;fill:url(#SVGID_00000168826981396854873630000012733066099600245130_);}
	.st65{fill:url(#SVGID_00000103986669174466480010000017340416681738665372_);}
	.st66{fill:#FFC73D;}
	.st67{fill:url(#SVGID_00000147916897042421939810000001049634117836138930_);}
	.st68{fill:url(#SVGID_00000121989104372786690130000003825746017405382069_);}
	.st69{fill-rule:evenodd;clip-rule:evenodd;fill:url(#SVGID_00000166654341314123047540000009434153925522483135_);}
	.st70{fill:url(#SVGID_00000137818157735408900920000001314824150717640631_);}
	.st71{fill:url(#SVGID_00000146480382336838168720000006218701010839254702_);}
	.st72{fill-rule:evenodd;clip-rule:evenodd;fill:#002242;}
	.st73{fill-rule:evenodd;clip-rule:evenodd;fill:#29AAE4;}
	.st74{fill:url(#SVGID_00000067224623358334716330000011248071624411387806_);}
	.st75{fill:url(#SVGID_00000116934515528479102220000017804193146772244900_);}
	.st76{fill:url(#SVGID_00000062881809039761737620000003417876107839217847_);}
	.st77{fill:url(#SVGID_00000146460885820524038390000002681194840070948748_);}
	.st78{opacity:0.32;fill:#191919;enable-background:new    ;}
	.st79{fill:url(#SVGID_00000130615856517537884450000015355755803513420729_);}
	.st80{fill:url(#SVGID_00000134217765553082901810000015510880551101997969_);}
	.st81{fill:url(#SVGID_00000098934778618433128380000009604537288081566133_);}
	.st82{fill:url(#SVGID_00000119114689565125962750000015167672933890779811_);}
	.st83{fill:url(#SVGID_00000170252163185921633440000017468623725097055874_);}
	.st84{fill:url(#SVGID_00000182517063207389783490000015082757168789012157_);}
	.st85{fill:url(#SVGID_00000062183284555346073240000000731247248569383330_);}
	.st86{fill:url(#SVGID_00000096768849469093464650000013779977077711848604_);}
	.st87{fill:url(#SVGID_00000147914352047135254980000002887004947625577875_);}
	.st88{fill:url(#SVGID_00000091007862676896142060000005020885784829179547_);}
	.st89{fill-rule:evenodd;clip-rule:evenodd;fill:url(#SVGID_00000147217502519406748150000015992767338259389108_);}
	.st90{fill:#125899;}
	.st91{fill:url(#SVGID_00000175323788865285371260000017802113219111804565_);}
	.st92{fill:url(#SVGID_00000083047607987721507930000005756485242739837600_);}
	.st93{fill:url(#SVGID_00000031926155361157487840000008577513679112586118_);}
	.st94{fill:url(#XMLID_00000150086449802568628150000002431018678116035519_);}
	.st95{fill:url(#SVGID_00000077319944960070549540000008606770938597820815_);}
	.st96{fill:url(#SVGID_00000089536170330242440970000002378799081086677424_);}
	.st97{fill:url(#SVGID_00000156588837369860091610000000724450138117966492_);}
	.st98{fill-rule:evenodd;clip-rule:evenodd;fill:url(#SVGID_00000000916129944887555530000013307384795796986523_);}
	.st99{fill:#0C152A;}
	.st100{fill:url(#SVGID_00000134969833027630904910000011133235588487411134_);}
	.st101{fill:url(#SVGID_00000002362212393539637550000012658352704637448070_);}
	.st102{fill:url(#SVGID_00000177450591153433109790000013165698072068792986_);}
	.st103{fill:url(#SVGID_00000097499828651332416220000012895100623061591696_);}
	.st104{fill:url(#SVGID_00000159453451885680306960000018193160826111565961_);}
	.st105{fill:url(#SVGID_00000121240864669852609560000009704473466310572453_);}
	.st106{fill:url(#SVGID_00000127032733788727355950000010327115782619246736_);}
	.st107{fill:url(#SVGID_00000133495728538103873800000016468649329372282520_);}
	.st108{fill:url(#SVGID_00000166644231177378931040000006325735872466532754_);}
	.st109{fill:url(#SVGID_00000134238672150842136820000002792530311040594827_);}
	.st110{fill:url(#SVGID_00000000188016873370344000000000527245270345875875_);}
	.st111{fill:url(#SVGID_00000180360265348935258230000004449609707405704617_);}
</style>
<g id="Layer_1">
</g>
<g id="Layer_2">
</g>
<g id="Layer_3">
</g>
<g id="Layer_4">
</g>
<g id="Layer_5">
</g>
<g id="Layer_6">
</g>
<g id="Layer_7">
</g>
<g id="Layer_8">
</g>
<g id="Layer_9">
</g>
<g id="Layer_10">
</g>
<g id="Layer_11">
</g>
<g id="Layer_12">
</g>
<g id="Layer_13">
</g>
<g id="Layer_14">
</g>
<g id="Layer_15">
	<g>
		<radialGradient id="SVGID_1_" cx="175.0001" cy="96.0792" r="77.3907" gradientUnits="userSpaceOnUse">
			<stop  offset="0" style="stop-color:#00CCFF"/>
			<stop  offset="0.4343" style="stop-color:#07BEFF"/>
			<stop  offset="1" style="stop-color:#13A6FF"/>
		</radialGradient>
		<path class="st52" d="M249.48,57.37c-0.14-0.11-0.3-0.22-0.46-0.31c-6.66-3.92-13.3-7.88-20.02-11.7
			c-1.15-0.65-2.66-0.94-4.01-0.94c-29.94-0.09-59.88-0.12-89.82-0.16c-3.45,0-6.9-0.01-10.34,0.05c-2.57,0.05-4.26,1.43-5.13,3.78
			c-1.45,3.95,1.34,7.7,5.86,7.74c7.37,0.07,14.73-0.03,22.1-0.03c1.96,0,3.92-0.01,5.87,0.14c2.95,0.22,5.4,2.81,5.57,5.72
			c0.16,2.73-1.96,5.64-4.74,6.25c-1.28,0.29-2.64,0.31-3.97,0.31c-21.24-0.01-42.48-0.04-63.72-0.06c-1.1,0-2.2-0.01-3.28,0.13
			c-2.91,0.37-4.82,2.7-4.79,5.72c0.02,2.87,1.94,5.16,4.74,5.54c1.08,0.15,2.19,0.14,3.28,0.14c25.79-0.02,51.58-0.05,77.36-0.07
			c1.02,0,2.05-0.04,3.05,0.08c3.77,0.44,6.14,3.1,5.92,6.57c-0.21,3.41-2.74,5.7-6.48,5.75c-3.76,0.06-7.52,0-11.28,0.01
			c-3.82,0.02-6.33,2.32-6.33,5.75c0,3.49,2.44,5.75,6.27,5.76c9.56,0,19.13-0.01,28.69-0.04c4.14-0.01,5.43-1.31,5.47-5.52
			c0.04-4.93-0.03-9.87,0.08-14.81c0.05-2.37,0.74-2.7,2.73-1.56c6.85,3.94,13.71,7.88,20.53,11.88c3.79,2.22,6.45,5.43,7.85,9.61
			c2.05,6.11,1.67,12.43,0.85,18.59c-0.86,6.39-7.71,9.38-13.32,6.23c-5.6-3.13-11.14-6.39-16.67-9.66
			c-0.76-0.45-1.62-1.19-1.86-1.97c-0.95-3.04-3.06-3.77-5.96-3.76c-15.36,0.05-30.73,0-46.09-0.02c-9.25-0.01-18.5-0.04-27.74-0.01
			c-3.28,0.01-5.3,1.5-6,4.2c-1.08,4.13,1.67,7.36,6.38,7.36c15.91,0.01,31.82-0.01,47.73-0.02c1.02,0,2.04-0.02,3.05,0.08
			c3.32,0.32,5.68,3.13,5.48,6.45c-0.22,3.56-2.85,5.78-7.17,5.85c-4.78,0.08-9.56-0.05-14.34,0.06c-2.82,0.07-4.93,2.08-5.33,4.73
			c-0.42,2.78,1.12,5.51,3.73,6.32c1.03,0.32,2.16,0.35,3.25,0.35c26.26-0.02,52.51-0.06,78.77-0.15c1.2,0,2.56-0.24,3.57-0.83
			c13.42-7.75,26.78-15.6,40.2-23.35c1.72-1,2.39-2.3,2.39-4.2c-0.02-15.52-0.01-31.04,0-46.56c0-2.08-0.82-3.5-2.7-4.53
			c-6.27-3.46-12.49-7.03-18.72-10.56C249.81,57.61,249.64,57.5,249.48,57.37L249.48,57.37z M219.67,57.41
			c4.21-3.36,8.02-3.59,12.6-0.22c4.12,3.03,9.02,4.96,13.5,7.53c3.58,2.06,7.06,4.3,10.51,6.56c0.4,0.26,0.7,1.57,0.57,1.65
			c-2.39,1.55-4.86,3-7.15,4.36c-1.18-0.44-1.96-0.61-2.62-0.99c-9.16-5.27-18.31-10.56-27.44-15.88
			C217.77,59.32,217.96,58.78,219.67,57.41z M220.05,87.5c-7.68-4.39-15.33-8.84-22.98-13.29c-2.7-1.57-2.68-2.14,0.04-3.7
			c1.82-1.03,3.65-2.04,5.42-3.03c0.99,0.42,1.74,0.65,2.4,1.03c9.18,5.25,18.34,10.51,27.5,15.8c2.03,1.17,2.02,1.87-0.08,3.04
			C224.73,91.62,227.06,91.51,220.05,87.5z M252.7,123.36c-5.8,3.24-11.62,6.46-17.41,9.71c-3.28,1.84-4.83,0.98-4.83-2.76
			c0-9.72,0.04-19.44-0.03-29.15c-0.01-1.81,0.61-2.95,2.15-3.79c2.12-1.15,4.19-2.38,6.67-3.8c0.13,1.23,0.3,2.11,0.3,2.99
			c0,4.31-0.07,8.62-0.07,12.93c0,2.86,0.6,3.22,3.09,1.82c3.16-1.77,6.36-3.48,9.38-5.47c0.84-0.56,1.52-1.98,1.56-3.02
			c0.16-4.77,0.19-9.56,0.01-14.34c-0.08-2.31,0.45-3.92,2.7-4.8c1.23-0.48,2.38-1.14,3.57-1.72l0.83-0.05
			c0.71,0.88,2.04,1.75,2.05,2.64c0.14,10.32,0.1,20.64,0.02,30.96c0,0.76-0.42,1.83-1.01,2.22c-2.88,1.95-5.88,3.73-8.84,5.56
			L252.7,123.36z"/>
		
			<radialGradient id="SVGID_00000169557726674374106110000005380120365112900007_" cx="91.7945" cy="50.0382" r="9.9409" gradientUnits="userSpaceOnUse">
			<stop  offset="0" style="stop-color:#00CCFF"/>
			<stop  offset="0.4343" style="stop-color:#07BEFF"/>
			<stop  offset="1" style="stop-color:#13A6FF"/>
		</radialGradient>
		<path style="fill:url(#SVGID_00000169557726674374106110000005380120365112900007_);" d="M92.05,55.62
			c-2.64-0.18-5.29-0.27-7.92-0.55c-3.24-0.35-5.31-2.4-5.24-4.98c0.06-2.35,3.13-5.5,5.66-5.54c4.92-0.09,9.86-0.15,14.78,0.03
			c2.53,0.09,4.56,1.7,5.17,4.07c0.51,1.99,0.08,4.39-1.95,5.57c-1.33,0.78-3.05,1.03-4.63,1.19c-1.94,0.19-3.91,0.05-5.86,0.05
			C92.06,55.5,92.05,55.56,92.05,55.62z"/>
		
			<radialGradient id="SVGID_00000072248076914370726950000002899224185647202707_" cx="126.4588" cy="97.9539" r="9.7564" gradientUnits="userSpaceOnUse">
			<stop  offset="0" style="stop-color:#00CCFF"/>
			<stop  offset="0.4343" style="stop-color:#07BEFF"/>
			<stop  offset="1" style="stop-color:#13A6FF"/>
		</radialGradient>
		<path style="fill:url(#SVGID_00000072248076914370726950000002899224185647202707_);" d="M134.83,103.36
			c-5.58,0-10.19-0.06-14.79,0.02c-4.43,0.08-7.68-4.06-5.65-7.71c0.73-1.32,2.74-2.57,4.27-2.69c5.04-0.43,10.13-0.54,15.19-0.36
			c4.01,0.14,5.42,2.01,5.29,5.96C139.04,101.6,136.94,103.49,134.83,103.36z"/>
		
			<radialGradient id="SVGID_00000150096128651049667400000002574577985457966773_" cx="91.4125" cy="97.9265" r="7.6206" gradientUnits="userSpaceOnUse">
			<stop  offset="0" style="stop-color:#00CCFF"/>
			<stop  offset="0.4343" style="stop-color:#07BEFF"/>
			<stop  offset="1" style="stop-color:#13A6FF"/>
		</radialGradient>
		<path style="fill:url(#SVGID_00000150096128651049667400000002574577985457966773_);" d="M92.08,103.21c-1.17,0-2.4-0.23-3.5,0.05
			c-2.93,0.75-4.46-1.36-6.25-2.88c-0.3-0.26-0.15-1.1-0.13-1.67c0.02-0.59,0.25-1.2,0.19-1.78c-0.19-1.85,1.79-4.32,3.66-4.37
			c3.11-0.08,6.23-0.17,9.35-0.12c3.38,0.05,5.75,2.99,5.23,6.33c-0.32,2.05-2.97,4.16-5.49,4.31c-1.01,0.06-2.03,0.01-3.05,0.01
			C92.08,103.15,92.08,103.18,92.08,103.21z"/>
		
			<radialGradient id="SVGID_00000122702074197315238260000017970123352673586056_" cx="120.9001" cy="142.2892" r="7.6805" gradientUnits="userSpaceOnUse">
			<stop  offset="0" style="stop-color:#00CCFF"/>
			<stop  offset="0.4343" style="stop-color:#07BEFF"/>
			<stop  offset="1" style="stop-color:#13A6FF"/>
		</radialGradient>
		<path style="fill:url(#SVGID_00000122702074197315238260000017970123352673586056_);" d="M121.9,147.86
			c-2.08-0.25-4.17-0.42-6.24-0.76c-2.85-0.47-5.13-4.8-3.58-7.21c0.79-1.22,2.4-2.3,3.83-2.63c1.97-0.46,4.12-0.13,6.19-0.19
			c0.76-0.02,1.51-0.17,2.26-0.29c2-0.33,4.42,0.77,5.22,2.4c1.22,2.47,0.59,4.79-0.91,6.61
			C126.74,148.15,124.3,147.52,121.9,147.86z"/>
	</g>
</g>
</svg>
