<?xml version="1.0" encoding="utf-8"?>
<!-- Generator: Adobe Illustrator 27.8.1, SVG Export Plug-In . SVG Version: 6.00 Build 0)  -->
<svg version="1.1" xmlns="http://www.w3.org/2000/svg" xmlns:xlink="http://www.w3.org/1999/xlink" x="0px" y="0px"
	 viewBox="0 0 350 230.71" style="enable-background:new 0 0 350 230.71;" xml:space="preserve">
<style type="text/css">
	.st0{fill:#E1FFFD;}
	.st1{fill:#FFFEE3;}
	.st2{fill:#E5FFE1;}
	.st3{fill:#FFF6E3;}
	.st4{fill:#FFEAE6;}
	.st5{fill:#E6FFF0;}
	.st6{fill:#E6FDFF;}
	.st7{fill:#E6F5FF;}
	.st8{fill:#FFFED4;}
	.st9{display:none;}
	.st10{display:inline;}
	.st11{fill:#009EFF;}
	.st12{fill:#FF8500;}
	.st13{fill:#9B3C00;}
	.st14{fill:#660045;}
	.st15{fill:#00576B;}
	.st16{fill:#564F2C;}
	.st17{fill:#FFA354;}
	.st18{fill:#002760;}
	.st19{fill:#4C0037;}
	.st20{fill:#7C0B00;}
	.st21{fill:#144703;}
	.st22{fill:#2C6DC9;}
	.st23{fill:#3B243C;}
	.st24{fill:#001EA4;}
	.st25{fill:#8D5300;}
	.st26{fill:#30A976;}
	.st27{fill:#A02400;}
	.st28{fill:#0092FF;}
	.st29{fill:#60086C;}
	.st30{fill:#520013;}
	.st31{fill:#00AB7B;}
	.st32{fill:#0C0C14;}
	.st33{fill:#FA7B14;}
	.st34{fill:#0870A3;}
	.st35{fill:#999999;}
	.st36{fill:#0D254C;}
	.st37{fill:#9C0505;}
	.st38{fill:#850506;}
	.st39{fill:#A30C11;}
	.st40{fill:#1261A0;}
	.st41{fill:#FFFFFF;}
	.st42{fill:none;}
	.st43{fill:#1A1E2D;}
	.st44{fill:#3AC3B1;}
	.st45{fill:#777777;}
	.st46{fill:#4C0400;}
	.st47{fill:#00484C;}
	.st48{fill:#59D901;}
	.st49{fill:#58CCED;}
	.st50{fill:#CC5500;}
	.st51{fill:#072F5F;}
	.st52{fill:url(#SVGID_1_);}
	.st53{fill:url(#SVGID_00000054231888550820402720000007134479775277114004_);}
	.st54{fill:url(#SVGID_00000043432206714105011710000017423481669439273356_);}
	.st55{fill:#42FFF5;}
	.st56{fill-rule:evenodd;clip-rule:evenodd;fill:url(#SVGID_00000155108327640361431330000006078920568140734905_);}
	.st57{fill:url(#SVGID_00000032641480632658888430000010928999649275115182_);}
	.st58{fill:url(#SVGID_00000036947083996723252680000018389422690532652195_);}
	.st59{fill-rule:evenodd;clip-rule:evenodd;fill:url(#SVGID_00000105389664125854883010000017643371753983594152_);}
	.st60{fill-rule:evenodd;clip-rule:evenodd;fill:url(#SVGID_00000157290787510945857000000003190608683330552976_);}
	.st61{fill:#051326;}
	.st62{fill:url(#SVGID_00000076562518079602266290000013007477466885811360_);}
	.st63{fill:#FEFEFE;}
	.st64{fill-rule:evenodd;clip-rule:evenodd;fill:url(#SVGID_00000168817869043039795690000016634176764211041928_);}
	.st65{fill:url(#SVGID_00000081611384222771161610000003940759683494719931_);}
	.st66{fill:#FFC73D;}
	.st67{fill:url(#SVGID_00000100365836684029209430000016296032283843431587_);}
	.st68{fill:url(#SVGID_00000141428204615854741080000015965193340568301188_);}
	.st69{fill-rule:evenodd;clip-rule:evenodd;fill:url(#SVGID_00000122716290038938488440000017149043163388697275_);}
	.st70{fill:url(#SVGID_00000030486505164887326470000011054944796718119575_);}
	.st71{fill:url(#SVGID_00000052798988412716668750000014685051786133626276_);}
	.st72{fill-rule:evenodd;clip-rule:evenodd;fill:#002242;}
	.st73{fill-rule:evenodd;clip-rule:evenodd;fill:#29AAE4;}
	.st74{fill:url(#SVGID_00000080906754142820915070000015088195671495821479_);}
	.st75{fill:url(#SVGID_00000075132169417936719300000017166143753848799155_);}
	.st76{fill:url(#SVGID_00000081635545820192064190000011889536729030753422_);}
	.st77{fill:url(#SVGID_00000129904279854510582670000009936245492394667928_);}
	.st78{opacity:0.32;fill:#191919;enable-background:new    ;}
	.st79{fill:url(#SVGID_00000003074020803560665840000012863907021301166991_);}
	.st80{fill:url(#SVGID_00000111913282056898383370000001283450653473901459_);}
	.st81{fill:url(#SVGID_00000172425917010158268970000011583669556669087897_);}
	.st82{fill:url(#SVGID_00000183228102229209053420000011316222564711944637_);}
	.st83{fill:url(#SVGID_00000044147841490616815110000004222614983890276250_);}
	.st84{fill:url(#SVGID_00000070078029994096774940000000888581260503361981_);}
	.st85{fill:url(#SVGID_00000111879680316560013120000018368683532786057377_);}
	.st86{fill:url(#SVGID_00000050644413918453773420000007181558662478263689_);}
	.st87{fill:url(#SVGID_00000150078473875349039540000000975495557734679690_);}
	.st88{fill:url(#SVGID_00000008151167684453202240000017105501384854605960_);}
	.st89{fill-rule:evenodd;clip-rule:evenodd;fill:url(#SVGID_00000027599499903538473770000003887762075702704024_);}
	.st90{fill:#125899;}
	.st91{fill:url(#SVGID_00000023978122844282952500000016190310122148728719_);}
	.st92{fill:url(#SVGID_00000135677535394550276690000017427915108839795078_);}
	.st93{fill:url(#SVGID_00000034091432409327668940000013126257876896316584_);}
	.st94{fill:url(#XMLID_00000072962834198599934110000010517330873348239780_);}
	.st95{fill:url(#SVGID_00000032632316156043219240000012466266671552051895_);}
	.st96{fill:url(#SVGID_00000086682859092645756000000002525542643488058018_);}
	.st97{fill:url(#SVGID_00000080894612655182835180000003213731014225303952_);}
	.st98{fill-rule:evenodd;clip-rule:evenodd;fill:url(#SVGID_00000116196149501080535500000006792599967633961907_);}
	.st99{fill:#0C152A;}
	.st100{fill:url(#SVGID_00000127016966648025864310000001875356520691875218_);}
	.st101{fill:url(#SVGID_00000180331820395528753850000014672534411850785664_);}
	.st102{fill:url(#SVGID_00000013911548666222204240000014525510359298800004_);}
	.st103{fill:url(#SVGID_00000168096060317960963700000004883025084561144728_);}
	.st104{fill:url(#SVGID_00000161612033223189511800000011839207483826807444_);}
	.st105{fill:url(#SVGID_00000044149697678003351240000008794495476044374688_);}
	.st106{fill:url(#SVGID_00000121978873810427698000000006693895663048126365_);}
	.st107{fill:url(#SVGID_00000052097606025271167950000014354598186038063767_);}
	.st108{fill:url(#SVGID_00000159451354653089774330000009583781183558439077_);}
	.st109{fill:url(#SVGID_00000087383245961608365950000017473768645313841818_);}
	.st110{fill:url(#SVGID_00000108268374315209699750000016623809093002533254_);}
	.st111{fill:url(#SVGID_00000014592333835447156850000017883610425662628758_);}
</style>
<g id="Layer_1">
</g>
<g id="Layer_2">
</g>
<g id="Layer_3">
</g>
<g id="Layer_4">
</g>
<g id="Layer_5">
</g>
<g id="Layer_6">
</g>
<g id="Layer_7">
</g>
<g id="Layer_8">
</g>
<g id="Layer_9">
</g>
<g id="Layer_10">
</g>
<g id="Layer_11">
</g>
<g id="Layer_12">
</g>
<g id="Layer_13">
</g>
<g id="Layer_14">
</g>
<g id="Layer_15">
	<g>
		<radialGradient id="SVGID_1_" cx="233.95" cy="110.3675" r="40.8027" gradientUnits="userSpaceOnUse">
			<stop  offset="0" style="stop-color:#001E00"/>
			<stop  offset="0.4736" style="stop-color:#000E00"/>
			<stop  offset="1" style="stop-color:#000000"/>
		</radialGradient>
		<path class="st52" d="M266.2,100.32l-10.8-21.3h-44.2l-25.7,54.1H216c0-7.8,6.3-14.1,14.1-14.1c7.8,0,14.1,6.3,14.1,14.1h22.7
			l15.5-32.8H266.2z M218.9,98.52l6.6-14h26.9l7,14H218.9z M223.76,127.31c3.2-3.51,8.64-3.76,12.15-0.56
			c3.51,3.2,3.76,8.64,0.56,12.15s-8.64,3.76-12.15,0.56C220.81,136.26,220.56,130.82,223.76,127.31z"/>
		
			<linearGradient id="SVGID_00000005239565943128843470000015832991081441101495_" gradientUnits="userSpaceOnUse" x1="159.569" y1="94.9771" x2="212.5092" y2="94.9771">
			<stop  offset="0" style="stop-color:#1CCA00"/>
			<stop  offset="1" style="stop-color:#268162"/>
		</linearGradient>
		<path style="fill:url(#SVGID_00000005239565943128843470000015832991081441101495_);" d="M172.54,135.92
			c-0.51,0-1.04-0.11-1.53-0.35c-1.74-0.84-2.46-2.94-1.62-4.68l34.01-69.87h-40.34c-1.93,0-3.5-1.56-3.5-3.5
			c0-1.93,1.57-3.5,3.5-3.5h45.94c1.21,0,2.33,0.61,2.97,1.64c0.64,1.03,0.71,2.31,0.18,3.39l-36.46,74.9
			C175.09,135.2,173.84,135.92,172.54,135.92z"/>
		
			<radialGradient id="SVGID_00000105390554270284313130000003886250455377084814_" cx="130.85" cy="101.7416" r="50.7266" gradientUnits="userSpaceOnUse">
			<stop  offset="0" style="stop-color:#1C75BC"/>
			<stop  offset="0.2088" style="stop-color:#1C71B8"/>
			<stop  offset="0.4207" style="stop-color:#1E66AC"/>
			<stop  offset="0.6342" style="stop-color:#205397"/>
			<stop  offset="0.8474" style="stop-color:#23397B"/>
			<stop  offset="1" style="stop-color:#262262"/>
		</radialGradient>
		<path style="fill:url(#SVGID_00000105390554270284313130000003886250455377084814_);" d="M194.1,71.69c0,2.1-1.7,3.8-3.8,3.8
			h-38.4c-4.6,0-8.3,3.7-8.3,8.3c0,4.6,3.7,8.4,8.3,8.4H180c1.9,0,3.4,1.4,3.4,3.3c0,1.8-1.5,3.3-3.4,3.3h-24.5
			c-4,0-7.3,3.3-7.3,7.4c0,4,3.3,7.3,7.3,7.3h13.9c2.1,0,3.7,1.7,3.7,3.7c0,2-1.6,3.7-3.7,3.7h-29.2c-5.9,0-10.6,4.8-10.6,10.7
			c0,1.4,0.3,2.8,0.8,4h-29.3c-1.7,0-3.2-1.5-3.2-3.3c0-1.8,1.5-3.2,3.2-3.2h12.1c1.7,0,3-1.3,3-3c0-1.6-1.3-2.9-3-2.9H88.4
			c-1.7,0-3.1-1.4-3.1-3.1c0-1.7,1.4-3,3.1-3H127c1.6,0,2.9-1.3,2.9-3c0-1.6-1.3-2.9-2.9-2.9h-17.4c-1.8,0-3.2-1.5-3.2-3.3
			c0-1.7,1.4-3.2,3.2-3.2h29.9c1.7,0,3-1.3,3-2.9c0-1.7-1.3-3-3-3H90.2c-1.9,0-3.4-1.5-3.4-3.3c0-1.9,1.5-3.3,3.4-3.3h42.2
			c1.7,0,3-1.4,3-3c0-1.6-1.3-2.9-3-2.9h-14.6c-1.6,0-3-1.4-3-3.1c0-1.7,1.4-3,3-3h10.1c1.7,0,3-1.4,3-3c0-1.6-1.3-2.9-3-2.9h-19.6
			c-1.7,0-3.1-1.4-3.1-3.2s1.4-3.2,3.1-3.2h82C192.4,67.89,194.1,69.59,194.1,71.69z M96.9,107.89c0,1.8-1.5,3.3-3.3,3.3h-4.3
			c-1.8,0-3.3-1.5-3.3-3.3c0-1.7,1.5-3.2,3.3-3.2h4.3C95.4,104.69,96.9,106.19,96.9,107.89z M82.6,107.89c0,1.8-1.5,3.3-3.3,3.3
			c-1.7,0-3.2-1.5-3.2-3.3c0-1.7,1.5-3.2,3.2-3.2C81.1,104.69,82.6,106.19,82.6,107.89z M92.5,132.29c0,1.8-1.4,3.3-3.2,3.3H70.9
			c-1.8,0-3.3-1.5-3.3-3.3c0-1.8,1.5-3.2,3.3-3.2h18.4C91.1,129.09,92.5,130.49,92.5,132.29z"/>
	</g>
</g>
</svg>
