<?xml version="1.0" encoding="utf-8"?>
<!-- Generator: Adobe Illustrator 27.8.1, SVG Export Plug-In . SVG Version: 6.00 Build 0)  -->
<svg version="1.1" xmlns="http://www.w3.org/2000/svg" xmlns:xlink="http://www.w3.org/1999/xlink" x="0px" y="0px"
	 viewBox="0 0 350 230.71" style="enable-background:new 0 0 350 230.71;" xml:space="preserve">
<style type="text/css">
	.st0{fill:#E1FFFD;}
	.st1{fill:#FFFEE3;}
	.st2{fill:#E5FFE1;}
	.st3{fill:#FFF6E3;}
	.st4{fill:#FFEAE6;}
	.st5{fill:#E6FFF0;}
	.st6{fill:#E6FDFF;}
	.st7{fill:#E6F5FF;}
	.st8{fill:#FFFED4;}
	.st9{display:none;}
	.st10{display:inline;}
	.st11{fill:#009EFF;}
	.st12{fill:#FF8500;}
	.st13{fill:#9B3C00;}
	.st14{fill:#660045;}
	.st15{fill:#00576B;}
	.st16{fill:#564F2C;}
	.st17{fill:#FFA354;}
	.st18{fill:#002760;}
	.st19{fill:#4C0037;}
	.st20{fill:#7C0B00;}
	.st21{fill:#144703;}
	.st22{fill:#2C6DC9;}
	.st23{fill:#3B243C;}
	.st24{fill:#001EA4;}
	.st25{fill:#8D5300;}
	.st26{fill:#30A976;}
	.st27{fill:#A02400;}
	.st28{fill:#0092FF;}
	.st29{fill:#60086C;}
	.st30{fill:#520013;}
	.st31{fill:#00AB7B;}
	.st32{fill:#0C0C14;}
	.st33{fill:#FA7B14;}
	.st34{fill:#0870A3;}
	.st35{fill:#999999;}
	.st36{fill:#0D254C;}
	.st37{fill:#9C0505;}
	.st38{fill:#850506;}
	.st39{fill:#A30C11;}
	.st40{fill:#1261A0;}
	.st41{fill:#FFFFFF;}
	.st42{fill:none;}
	.st43{fill:#1A1E2D;}
	.st44{fill:#3AC3B1;}
	.st45{fill:#777777;}
	.st46{fill:#4C0400;}
	.st47{fill:#00484C;}
	.st48{fill:#59D901;}
	.st49{fill:#58CCED;}
	.st50{fill:#CC5500;}
	.st51{fill:#072F5F;}
	.st52{fill:url(#SVGID_1_);}
	.st53{fill:url(#SVGID_00000044147106395629537570000002113218824019756723_);}
	.st54{fill:url(#SVGID_00000018947212289073508520000010522284640034887068_);}
	.st55{fill:#42FFF5;}
	.st56{fill-rule:evenodd;clip-rule:evenodd;fill:url(#SVGID_00000091718201842965272770000000155465571275116189_);}
	.st57{fill:url(#SVGID_00000054226530984407365590000004505080085316675463_);}
	.st58{fill:url(#SVGID_00000047763308676971872460000013659481492862599339_);}
	.st59{fill-rule:evenodd;clip-rule:evenodd;fill:url(#SVGID_00000163779422986571077520000004513881494946182834_);}
	.st60{fill-rule:evenodd;clip-rule:evenodd;fill:url(#SVGID_00000060005532460092293940000013342664721081681286_);}
	.st61{fill:#051326;}
	.st62{fill:url(#SVGID_00000183218814986117563550000004026663508561409155_);}
	.st63{fill:#FEFEFE;}
	.st64{fill-rule:evenodd;clip-rule:evenodd;fill:url(#SVGID_00000181789820174813549850000017824771487893228438_);}
	.st65{fill:url(#SVGID_00000069394866354109111390000018167484708579888271_);}
	.st66{fill:#FFC73D;}
	.st67{fill:url(#SVGID_00000008136346153719246830000010161044256606676129_);}
	.st68{fill:url(#SVGID_00000001635038496492080110000009474409605245747361_);}
	.st69{fill-rule:evenodd;clip-rule:evenodd;fill:url(#SVGID_00000097468858781548839220000000236296409470396068_);}
	.st70{fill:url(#SVGID_00000008115894937091684090000008282773212716217512_);}
	.st71{fill:url(#SVGID_00000138569643234135563890000015231697964076528301_);}
	.st72{fill-rule:evenodd;clip-rule:evenodd;fill:#002242;}
	.st73{fill-rule:evenodd;clip-rule:evenodd;fill:#29AAE4;}
	.st74{fill:url(#SVGID_00000060723085537494839400000017845937498390798477_);}
	.st75{fill:url(#SVGID_00000125586711895172697570000018076769207496085149_);}
	.st76{fill:url(#SVGID_00000103984068406269038600000011193089919700495010_);}
	.st77{fill:url(#SVGID_00000076564286984419053430000009616084359475099294_);}
	.st78{opacity:0.32;fill:#191919;enable-background:new    ;}
	.st79{fill:url(#SVGID_00000150788878497085709280000004155262253596850611_);}
	.st80{fill:url(#SVGID_00000078008132813821001550000010457714935105215371_);}
	.st81{fill:url(#SVGID_00000000193922639855301210000003986106061992804799_);}
	.st82{fill:url(#SVGID_00000054957532859011958540000014799262574243013302_);}
	.st83{fill:url(#SVGID_00000107588600766523135970000003847025021085088189_);}
	.st84{fill:url(#SVGID_00000046329409165969531860000014774523939170594953_);}
	.st85{fill:url(#SVGID_00000101788038401139580300000008260556869015604371_);}
	.st86{fill:url(#SVGID_00000069396629180516322350000015860843356519220109_);}
	.st87{fill:url(#SVGID_00000049917431695631779900000016905777825962353071_);}
	.st88{fill:url(#SVGID_00000141421943180718368230000008257014409538624666_);}
	.st89{fill-rule:evenodd;clip-rule:evenodd;fill:url(#SVGID_00000030476858565567062740000002355515454136009144_);}
	.st90{fill:#125899;}
	.st91{fill:url(#SVGID_00000135663938466001712010000007472334977384842395_);}
	.st92{fill:url(#SVGID_00000069384132096547061560000017518034314097344409_);}
	.st93{fill:url(#SVGID_00000086681746933908900370000009455898014298305683_);}
	.st94{fill:url(#XMLID_00000123428112606192485480000011857091126093150625_);}
	.st95{fill:url(#SVGID_00000132053512754327434040000009754100795802024635_);}
	.st96{fill:url(#SVGID_00000031187861858601050200000003420471933793031850_);}
	.st97{fill:url(#SVGID_00000176034798478472496010000004212389491148860819_);}
	.st98{fill-rule:evenodd;clip-rule:evenodd;fill:url(#SVGID_00000150063597335806817970000000264641315131354513_);}
	.st99{fill:#0C152A;}
	.st100{fill:url(#SVGID_00000066505928545547950800000018369277924230206099_);}
	.st101{fill:url(#SVGID_00000063596149334908691530000002280376289519275186_);}
	.st102{fill:url(#SVGID_00000151527316159499068500000007094661731558048418_);}
	.st103{fill:url(#SVGID_00000183211275929191236470000002881681677610681765_);}
	.st104{fill:url(#SVGID_00000069375628489247705670000002923523960760249736_);}
	.st105{fill:url(#SVGID_00000156576989175692999700000005629902852802259333_);}
	.st106{fill:url(#SVGID_00000148626910788065639750000002332884922801667221_);}
	.st107{fill:url(#SVGID_00000043433888497113415040000010330826366963473043_);}
	.st108{fill:url(#SVGID_00000001660647939627422870000012824423450591425457_);}
	.st109{fill:url(#SVGID_00000036227438215205458000000002749549462533810821_);}
	.st110{fill:url(#SVGID_00000101800763237468854910000009038096205275339909_);}
	.st111{fill:url(#SVGID_00000173849828207285745230000009166590708004349089_);}
</style>
<g id="Layer_1">
</g>
<g id="Layer_2">
</g>
<g id="Layer_3">
</g>
<g id="Layer_4">
</g>
<g id="Layer_5">
</g>
<g id="Layer_6">
</g>
<g id="Layer_7">
</g>
<g id="Layer_8">
</g>
<g id="Layer_9">
</g>
<g id="Layer_10">
</g>
<g id="Layer_11">
</g>
<g id="Layer_12">
</g>
<g id="Layer_13">
</g>
<g id="Layer_14">
</g>
<g id="Layer_15">
	<g>
		<linearGradient id="SVGID_1_" gradientUnits="userSpaceOnUse" x1="84.9468" y1="97.0327" x2="265.0533" y2="97.0327">
			<stop  offset="0" style="stop-color:#1C75BC"/>
			<stop  offset="1" style="stop-color:#262262"/>
		</linearGradient>
		<path class="st52" d="M233.48,104.1h-13.92c-1.75-4.53-4.71-8.47-8.46-11.43c-3.47-2.74-7.63-4.64-12.18-5.4
			c-1.24-0.21-2.51-0.33-3.8-0.36c-0.22-0.01-0.43-0.01-0.65-0.01h1.25v-6.64c0-2.26-0.19-4.48-0.55-6.63
			c1.27,0.02,2.52,0.1,3.75,0.24C215.75,75.72,229.47,88.01,233.48,104.1z M265.05,113.81l-22.93-13.24v6.59h-87.85v6.64
			c0,1.81,0.12,3.59,0.35,5.34c0.02,0.17,0.04,0.33,0.07,0.49c0.04,0.27,0.08,0.54,0.13,0.8c0,0,0,0.01,0,0.01
			c0.17,1.04,0.39,2.06,0.64,3.07C159.82,141,175.66,154,194.47,154c18.82,0,34.65-13,39.01-30.48c0-0.01,0.01-0.02,0.01-0.04
			c0.25-1,0.46-2.01,0.63-3.03h8.01v6.59L265.05,113.81z M219.58,123.48c0,0.01-0.01,0.02-0.01,0.04
			c-3.9,10.05-13.68,17.2-25.09,17.2c-11.41,0-21.19-7.15-25.09-17.2c-0.39-1-0.72-2.02-0.98-3.07h52.15
			C220.29,121.49,219.96,122.5,219.58,123.48z M154.28,113.81c0,2.26,0.19,4.47,0.55,6.63c-18.51-0.32-34.01-13.21-38.31-30.47
			h13.91c1.76,4.53,4.71,8.47,8.46,11.43c4.58,3.61,10.36,5.77,16.63,5.77h-1.25V113.81z M195.17,73.62
			C195.17,73.62,195.17,73.62,195.17,73.62c-0.18-1.05-0.39-2.07-0.64-3.08c-4.35-17.49-20.19-30.48-39.01-30.48
			c-18.82,0-34.66,13-39.01,30.48c0,0.01-0.01,0.02-0.01,0.03c-0.25,1-0.46,2.01-0.63,3.03h-8.01v-6.59L84.95,80.26l22.93,13.24
			V86.9h87.85v-6.64C195.72,78,195.53,75.78,195.17,73.62z M129.45,73.61c0.27-1.04,0.59-2.05,0.97-3.03
			c0.01-0.01,0.01-0.02,0.01-0.03c3.9-10.05,13.68-17.2,25.09-17.2c11.41,0,21.19,7.15,25.09,17.2c0.39,1,0.72,2.02,0.98,3.07
			L129.45,73.61L129.45,73.61z"/>
		<path class="st78" d="M234.12,120.45c-0.17,1.02-0.38,2.04-0.63,3.03h-13.91c0.38-0.99,0.71-1.99,0.97-3.03H234.12z M115.88,73.61
			c0.17-1.02,0.38-2.04,0.63-3.03h13.91c-0.38,0.99-0.71,1.99-0.97,3.03H115.88z"/>
	</g>
</g>
</svg>
