<?xml version="1.0" encoding="utf-8"?>
<!-- Generator: Adobe Illustrator 27.8.1, SVG Export Plug-In . SVG Version: 6.00 Build 0)  -->
<svg version="1.1" xmlns="http://www.w3.org/2000/svg" xmlns:xlink="http://www.w3.org/1999/xlink" x="0px" y="0px"
	 viewBox="0 0 350 230" style="enable-background:new 0 0 350 230;" xml:space="preserve">
<style type="text/css">
	.st0{fill:#E1FFFD;}
	.st1{fill:#FFFEE3;}
	.st2{fill:#E5FFE1;}
	.st3{fill:#FFF6E3;}
	.st4{fill:#FFEAE6;}
	.st5{fill:#E6FFF0;}
	.st6{fill:#E6FDFF;}
	.st7{fill:#E6F5FF;}
	.st8{fill:#FFFED4;}
	.st9{display:none;}
	.st10{display:inline;}
	.st11{fill:#009EFF;}
	.st12{fill:#FF8500;}
	.st13{fill:#9B3C00;}
	.st14{fill:#660045;}
	.st15{fill:#00576B;}
	.st16{fill:#564F2C;}
	.st17{fill:#FFA354;}
	.st18{fill:#002760;}
	.st19{fill:#4C0037;}
	.st20{fill:#7C0B00;}
	.st21{fill:#144703;}
	.st22{fill:#2C6DC9;}
	.st23{fill:#3B243C;}
	.st24{fill:#001EA4;}
	.st25{fill:#8D5300;}
	.st26{fill:#30A976;}
	.st27{fill:#A02400;}
	.st28{fill:#0092FF;}
	.st29{fill:#60086C;}
	.st30{fill:#520013;}
	.st31{fill:#00AB7B;}
	.st32{fill:#0C0C14;}
	.st33{fill:#FA7B14;}
	.st34{fill:#0870A3;}
	.st35{fill:#999999;}
	.st36{fill:#0D254C;}
	.st37{fill:#9C0505;}
	.st38{fill:#850506;}
	.st39{fill:#A30C11;}
	.st40{fill:#1261A0;}
	.st41{fill:#FFFFFF;}
	.st42{fill:none;}
	.st43{fill:#1A1E2D;}
	.st44{fill:#3AC3B1;}
	.st45{fill:#777777;}
	.st46{fill:#4C0400;}
	.st47{fill:#00484C;}
	.st48{fill:#59D901;}
	.st49{fill:#58CCED;}
	.st50{fill:#CC5500;}
	.st51{fill:#072F5F;}
	.st52{fill:url(#SVGID_1_);}
	.st53{fill:url(#SVGID_00000000915487717668314700000009763946260350404500_);}
	.st54{fill:url(#SVGID_00000178899920560488204710000002072807320313877939_);}
	.st55{fill:#42FFF5;}
	.st56{fill-rule:evenodd;clip-rule:evenodd;fill:url(#SVGID_00000024003256785926032260000018428076115179341756_);}
	.st57{fill:url(#SVGID_00000096760900948316512610000013801570022495636107_);}
	.st58{fill:url(#SVGID_00000134940465329316489180000008961966590230156222_);}
	.st59{fill-rule:evenodd;clip-rule:evenodd;fill:url(#SVGID_00000101071925678741316590000009015240561610457228_);}
	.st60{fill-rule:evenodd;clip-rule:evenodd;fill:url(#SVGID_00000067955158749037588960000017670709070992500143_);}
	.st61{fill:#051326;}
	.st62{fill:url(#SVGID_00000064350691764365306700000008554905790557429689_);}
	.st63{fill:#FEFEFE;}
	.st64{fill-rule:evenodd;clip-rule:evenodd;fill:url(#SVGID_00000124878565349949847590000015029898929656287924_);}
	.st65{fill:url(#SVGID_00000025424444644116890710000004481659044374417299_);}
	.st66{fill:#FFC73D;}
	.st67{fill:url(#SVGID_00000085951009609327520710000016421948942836677007_);}
	.st68{fill:url(#SVGID_00000078045646459247870780000015992837246409116603_);}
	.st69{fill-rule:evenodd;clip-rule:evenodd;fill:url(#SVGID_00000036932589074001378850000014931032677039542682_);}
	.st70{fill:url(#SVGID_00000151535720840264865960000002475938604192894643_);}
	.st71{fill:url(#SVGID_00000053535019010773556530000004212035961641960578_);}
	.st72{fill-rule:evenodd;clip-rule:evenodd;fill:#002242;}
	.st73{fill-rule:evenodd;clip-rule:evenodd;fill:#29AAE4;}
	.st74{fill:url(#SVGID_00000105422134052363419620000000690355985690860961_);}
	.st75{fill:url(#SVGID_00000143614096592602048620000000649949020313906069_);}
	.st76{fill:url(#SVGID_00000058574778513808757150000014500982066032748692_);}
	.st77{fill:url(#SVGID_00000041979058636075061190000017057506324559565216_);}
	.st78{opacity:0.32;fill:#191919;enable-background:new    ;}
	.st79{fill:url(#SVGID_00000075870517367391398640000003401555307535729081_);}
	.st80{fill:url(#SVGID_00000172399476134274621940000005982673236988556172_);}
	.st81{fill:url(#SVGID_00000001622873995380249180000002308257089935928214_);}
	.st82{fill:url(#SVGID_00000023982939713010755720000012267683360383851449_);}
	.st83{fill:url(#SVGID_00000052795441979113723100000013918656067380164240_);}
	.st84{fill:url(#SVGID_00000105406678494603002410000014904637034159844498_);}
	.st85{fill:url(#SVGID_00000072980259581455924160000004874352223882765961_);}
	.st86{fill:url(#SVGID_00000154388852260863214700000011696912004091872166_);}
	.st87{fill:url(#SVGID_00000033330154095763209140000016038162421404519578_);}
	.st88{fill:url(#SVGID_00000007403866730289295790000017902417055773568143_);}
	.st89{fill-rule:evenodd;clip-rule:evenodd;fill:url(#SVGID_00000029039548719104770070000015861696236524010625_);}
	.st90{fill:#125899;}
	.st91{fill:url(#SVGID_00000126312872913080241830000007292141571821438348_);}
	.st92{fill:url(#SVGID_00000065046520180973991220000002715695967007357607_);}
	.st93{fill:url(#SVGID_00000156562867030052709120000016612350763677883794_);}
	.st94{fill:url(#XMLID_00000145043881219445214500000014445784307906819492_);}
	.st95{fill:url(#SVGID_00000021811230966109039820000007232539647026187152_);}
	.st96{fill:url(#SVGID_00000181081582151461471080000007997374654704935558_);}
	.st97{fill:url(#SVGID_00000087372973791523607990000004305884792607382967_);}
	.st98{fill-rule:evenodd;clip-rule:evenodd;fill:url(#SVGID_00000171703142869331051100000012822022968168505999_);}
	.st99{fill:#0C152A;}
	.st100{fill:url(#SVGID_00000154417722059264226940000013515186561459925922_);}
	.st101{fill:url(#SVGID_00000108274236725904775740000017230886780021235891_);}
	.st102{fill:url(#SVGID_00000106844845667335994340000001833098790146732937_);}
	.st103{fill:url(#SVGID_00000044155138072948635220000001925193090532124082_);}
	.st104{fill:url(#SVGID_00000074407006024806383000000006952624906010890652_);}
	.st105{fill:url(#SVGID_00000106114513719320852920000003244590196004413351_);}
	.st106{fill:url(#SVGID_00000119810346358554856890000008309836654855115197_);}
	.st107{fill:url(#SVGID_00000034091154792574090510000014080276459137551762_);}
	.st108{fill:url(#SVGID_00000113348260714714020110000017747270177779903404_);}
	.st109{fill:url(#SVGID_00000173134121560094454740000007096058199572180619_);}
	.st110{fill:url(#SVGID_00000136378503667222401120000013624606376742302372_);}
	.st111{fill:url(#SVGID_00000079481171640155132940000012949091675924036017_);}
</style>
<g id="Layer_1">
</g>
<g id="Layer_2">
</g>
<g id="Layer_3">
</g>
<g id="Layer_4">
</g>
<g id="Layer_5">
</g>
<g id="Layer_6">
</g>
<g id="Layer_7">
</g>
<g id="Layer_8">
</g>
<g id="Layer_9">
</g>
<g id="Layer_10">
</g>
<g id="Layer_11">
</g>
<g id="Layer_12">
</g>
<g id="Layer_13">
</g>
<g id="Layer_14">
</g>
<g id="Layer_15">
	<linearGradient id="SVGID_1_" gradientUnits="userSpaceOnUse" x1="85.0033" y1="102.0457" x2="264.6162" y2="102.0457">
		<stop  offset="0" style="stop-color:#45308E"/>
		<stop  offset="1" style="stop-color:#8A1B6D"/>
	</linearGradient>
	<path style="fill-rule:evenodd;clip-rule:evenodd;fill:url(#SVGID_1_);" d="M210.77,111.25l21.61-14.93v22.68
		c3.97-4.65,6.35-10.54,6.35-16.94c0-4.41-1.12-8.57-3.12-12.25c-1.49-2.75-3.46-5.23-5.82-7.34l10.5-7.26
		c2.23,2.22,4.19,4.68,5.82,7.34c3.53,5.75,5.55,12.41,5.55,19.51c0,13.85-7.69,26.03-19.29,33.02v20.99l-21.61-14.93l-21.61-14.94
		l3.21-2.22L210.77,111.25z M176.83,60.81c0.45-0.31,0.9-0.61,1.36-0.91C177.73,60.19,177.28,60.5,176.83,60.81z M174.74,62.33
		c0.44-0.34,0.88-0.66,1.33-0.99C175.63,61.67,175.18,62,174.74,62.33z M162.33,75.78c0.31-0.48,0.63-0.96,0.95-1.44
		C162.96,74.82,162.64,75.3,162.33,75.78z M154.75,105.88c-0.03-0.38-0.06-0.77-0.08-1.16C154.69,105.11,154.72,105.5,154.75,105.88
		z M154.88,107.26c-0.04-0.41-0.08-0.83-0.12-1.24C154.79,106.43,154.83,106.84,154.88,107.26z M155.23,109.87
		c-0.14-0.85-0.26-1.71-0.35-2.57C154.98,108.16,155.09,109.02,155.23,109.87z M158,119.86c-0.13-0.33-0.26-0.66-0.38-0.99
		C157.74,119.21,157.87,119.54,158,119.86z M158.38,120.79c-0.11-0.27-0.22-0.54-0.33-0.81
		C158.16,120.25,158.27,120.52,158.38,120.79z M158.88,121.94c-0.14-0.3-0.27-0.61-0.4-0.92
		C158.61,121.33,158.74,121.64,158.88,121.94z M159.36,122.96c-0.15-0.32-0.3-0.64-0.45-0.97 M159.89,124.05
		c-0.16-0.32-0.32-0.64-0.48-0.96C159.57,123.41,159.73,123.73,159.89,124.05z M160.43,125.07c-0.18-0.33-0.35-0.66-0.52-0.99
		 M168.89,136.57c-0.19-0.19-0.37-0.38-0.55-0.58C168.52,136.19,168.7,136.38,168.89,136.57z M169.54,137.23
		c-0.21-0.21-0.42-0.42-0.63-0.64 M170.19,137.86c-0.21-0.2-0.42-0.4-0.62-0.61 M185.73,148.31c-0.55-0.25-1.1-0.5-1.63-0.77
		C184.63,147.81,185.18,148.06,185.73,148.31z M186.87,148.81c-0.37-0.16-0.73-0.31-1.09-0.48 M189.2,149.74
		c-0.39-0.14-0.77-0.29-1.15-0.44C188.43,149.45,188.81,149.59,189.2,149.74z M195.27,151.63c-1.8-0.46-3.57-0.99-5.3-1.61
		C191.7,150.64,193.47,151.17,195.27,151.63z M197.16,152.07c-0.4-0.08-0.8-0.18-1.2-0.27
		C196.36,151.89,196.76,151.98,197.16,152.07z M198.42,152.32c-0.41-0.08-0.82-0.16-1.22-0.25
		C197.6,152.16,198.01,152.25,198.42,152.32z M202.23,152.93c-0.41-0.05-0.82-0.11-1.23-0.17
		C201.41,152.82,201.82,152.88,202.23,152.93z M204.8,153.19c-0.39-0.03-0.77-0.07-1.16-0.1
		C204.03,153.13,204.42,153.16,204.8,153.19z M183.57,147.28h-70.23v7.33h107.33l10.6,7.33c2.34-0.74,4.62-1.59,6.84-2.55v-13.41
		c15.89-9,26.51-25.31,26.51-43.92c0-28.36-24.63-51.34-55.01-51.34c-2.87,0-5.68,0.2-8.43,0.6l-13.23-9.15
		c-2.34,0.74-4.62,1.59-6.84,2.55v13.42c-0.75,0.42-1.48,0.86-2.2,1.31l0.11-0.07H85v7.33h84.71l0.53-0.51
		c-2.57,2.46-4.88,5.16-6.89,8.05l0.15-0.22h-60v7.33h55.74c-1.11,2.35-2.04,4.8-2.77,7.32h-29.56V96h28.05
		c-0.25,1.98-0.38,4-0.38,6.04c0,0.89,0.02,1.77,0.07,2.64c-0.02-0.45-0.04-0.91-0.05-1.36h-44.17v7.33h44.92l-0.14-0.79
		c0.5,3.06,1.29,6.03,2.34,8.88l-0.28-0.77h-23.72v7.33h26.98l-0.12-0.22c1.53,2.84,3.34,5.53,5.39,8.04l-0.4-0.5h-38.2v7.33h45.3
		l-0.25-0.21c3.5,3.02,7.42,5.62,11.67,7.72L183.57,147.28z M167.54,102.05c0-13.85,7.68-26.03,19.29-33.02V48.04l21.61,14.94
		l21.61,14.94l-21.61,14.94l-21.61,14.94V85.1c-3.97,4.65-6.35,10.54-6.35,16.94c0,7.72,3.45,14.69,8.99,19.64l-10.51,7.26
		C171.88,121.92,167.54,112.46,167.54,102.05z"/>
</g>
</svg>
