<?xml version="1.0" encoding="utf-8"?>
<!-- Generator: Adobe Illustrator 27.8.1, SVG Export Plug-In . SVG Version: 6.00 Build 0)  -->
<svg version="1.1" xmlns="http://www.w3.org/2000/svg" xmlns:xlink="http://www.w3.org/1999/xlink" x="0px" y="0px"
	 viewBox="0 0 350 230" style="enable-background:new 0 0 350 230;" xml:space="preserve">
<style type="text/css">
	.st0{fill:#E1FFFD;}
	.st1{fill:#FFFEE3;}
	.st2{fill:#E5FFE1;}
	.st3{fill:#FFF6E3;}
	.st4{fill:#FFEAE6;}
	.st5{fill:#E6FFF0;}
	.st6{fill:#E6FDFF;}
	.st7{fill:#E6F5FF;}
	.st8{fill:#FFFED4;}
	.st9{display:none;}
	.st10{display:inline;}
	.st11{fill:#009EFF;}
	.st12{fill:#FF8500;}
	.st13{fill:#9B3C00;}
	.st14{fill:#660045;}
	.st15{fill:#00576B;}
	.st16{fill:#564F2C;}
	.st17{fill:#FFA354;}
	.st18{fill:#002760;}
	.st19{fill:#4C0037;}
	.st20{fill:#7C0B00;}
	.st21{fill:#144703;}
	.st22{fill:#2C6DC9;}
	.st23{fill:#3B243C;}
	.st24{fill:#001EA4;}
	.st25{fill:#8D5300;}
	.st26{fill:#30A976;}
	.st27{fill:#A02400;}
	.st28{fill:#0092FF;}
	.st29{fill:#60086C;}
	.st30{fill:#520013;}
	.st31{fill:#00AB7B;}
	.st32{fill:#0C0C14;}
	.st33{fill:#FA7B14;}
	.st34{fill:#0870A3;}
	.st35{fill:#999999;}
	.st36{fill:#0D254C;}
	.st37{fill:#9C0505;}
	.st38{fill:#850506;}
	.st39{fill:#A30C11;}
	.st40{fill:#1261A0;}
	.st41{fill:#FFFFFF;}
	.st42{fill:none;}
	.st43{fill:#1A1E2D;}
	.st44{fill:#3AC3B1;}
	.st45{fill:#777777;}
	.st46{fill:#4C0400;}
	.st47{fill:#00484C;}
	.st48{fill:#59D901;}
	.st49{fill:#58CCED;}
	.st50{fill:#CC5500;}
	.st51{fill:#072F5F;}
	.st52{fill:url(#SVGID_1_);}
	.st53{fill:url(#SVGID_00000078030184255073012950000009746259218376856252_);}
	.st54{fill:url(#SVGID_00000061438607153456526470000010226741644339903127_);}
	.st55{fill:#42FFF5;}
	.st56{fill-rule:evenodd;clip-rule:evenodd;fill:url(#SVGID_00000018196463428186584550000007640581172828306821_);}
	.st57{fill:url(#SVGID_00000022546735786294986610000012034612798884371076_);}
	.st58{fill:url(#SVGID_00000121984129389480390300000000629460019036533149_);}
	.st59{fill-rule:evenodd;clip-rule:evenodd;fill:url(#SVGID_00000010992726278365692300000003420620192125629875_);}
	.st60{fill-rule:evenodd;clip-rule:evenodd;fill:url(#SVGID_00000041981071140361558440000006742068276187269566_);}
	.st61{fill:#051326;}
	.st62{fill:url(#SVGID_00000080900548075626162680000002598639577227144851_);}
	.st63{fill:#FEFEFE;}
	.st64{fill-rule:evenodd;clip-rule:evenodd;fill:url(#SVGID_00000179627080143233610340000017417852901743286954_);}
	.st65{fill:url(#SVGID_00000003101747846966382790000015069741813182594970_);}
	.st66{fill:#FFC73D;}
	.st67{fill:url(#SVGID_00000031187579316015443190000001799005413794689444_);}
	.st68{fill:url(#SVGID_00000057121220653489218960000017238698098132935816_);}
	.st69{fill-rule:evenodd;clip-rule:evenodd;fill:url(#SVGID_00000023277471889927338380000000223853841267147167_);}
	.st70{fill:url(#SVGID_00000049906380124679417290000010963933723010159247_);}
	.st71{fill:url(#SVGID_00000127044463658987411850000010756982927426300347_);}
	.st72{fill-rule:evenodd;clip-rule:evenodd;fill:#002242;}
	.st73{fill-rule:evenodd;clip-rule:evenodd;fill:#29AAE4;}
	.st74{fill:url(#SVGID_00000061442259007971689250000004633448147522977686_);}
	.st75{fill:url(#SVGID_00000157292905273817968500000001224084541242089356_);}
	.st76{fill:url(#SVGID_00000056426809301768373970000014849678297619895965_);}
	.st77{fill:url(#SVGID_00000103953975559990414620000006874231044844951719_);}
	.st78{opacity:0.32;fill:#191919;enable-background:new    ;}
	.st79{fill:url(#SVGID_00000024712476322711176790000002710129679047652242_);}
	.st80{fill:url(#SVGID_00000183935045930146932270000011888848941180170417_);}
	.st81{fill:url(#SVGID_00000057118160913843597410000005302231686546377382_);}
	.st82{fill:url(#SVGID_00000121281584226070203280000002085538486295879854_);}
	.st83{fill:url(#SVGID_00000014593709925424746120000013344810472816318346_);}
	.st84{fill:url(#SVGID_00000127016750203765056100000000326785946741678472_);}
	.st85{fill:url(#SVGID_00000119818286423641645040000013015247843484479414_);}
	.st86{fill:url(#SVGID_00000056420958222222533870000014536503233338930079_);}
	.st87{fill:url(#SVGID_00000039822390179422615320000009217597778469658524_);}
	.st88{fill:url(#SVGID_00000046314081699839114430000007454542840692078231_);}
	.st89{fill-rule:evenodd;clip-rule:evenodd;fill:url(#SVGID_00000090296322756660224810000010817796992571486141_);}
	.st90{fill:#125899;}
	.st91{fill:url(#SVGID_00000121989060359829759300000018122685293225509564_);}
	.st92{fill:url(#SVGID_00000138567923087938228790000017224614320923074464_);}
	.st93{fill:url(#SVGID_00000087399336405702150860000010923382190955554211_);}
	.st94{fill:url(#XMLID_00000164512807874322598080000017957311014994770337_);}
	.st95{fill:url(#SVGID_00000182492959606838020960000003744188503310174647_);}
	.st96{fill:url(#SVGID_00000155107991914856747240000005060480130133877913_);}
	.st97{fill:url(#SVGID_00000141417979637216524240000005168386562459054761_);}
	.st98{fill-rule:evenodd;clip-rule:evenodd;fill:url(#SVGID_00000137813585129006180680000004722425914950735039_);}
	.st99{fill:#0C152A;}
	.st100{fill:url(#SVGID_00000010294119423769108290000006666168751664945319_);}
	.st101{fill:url(#SVGID_00000150795155838626956590000011056981700918068144_);}
	.st102{fill:url(#SVGID_00000127740312865536382950000015668516265662836608_);}
	.st103{fill:url(#SVGID_00000178191656726436722490000006306141636858070960_);}
	.st104{fill:url(#SVGID_00000146477964903789204980000002625117703488307616_);}
	.st105{fill:url(#SVGID_00000164514651334322926880000009603034968432171455_);}
	.st106{fill:url(#SVGID_00000074435301816654556810000016984164362486470542_);}
	.st107{fill:url(#SVGID_00000035512705596421005420000017483729549899906453_);}
	.st108{fill:url(#SVGID_00000013189815792847309210000003906663424518339720_);}
	.st109{fill:url(#SVGID_00000078028859449630158960000001319488625528618140_);}
	.st110{fill:url(#SVGID_00000048495398916198113870000003057011770170879368_);}
	.st111{fill:url(#SVGID_00000165218972282883358510000008924496163030719378_);}
</style>
<g id="Layer_1">
</g>
<g id="Layer_2">
</g>
<g id="Layer_3">
</g>
<g id="Layer_4">
</g>
<g id="Layer_5">
</g>
<g id="Layer_6">
</g>
<g id="Layer_7">
</g>
<g id="Layer_8">
</g>
<g id="Layer_9">
</g>
<g id="Layer_10">
</g>
<g id="Layer_11">
</g>
<g id="Layer_12">
</g>
<g id="Layer_13">
</g>
<g id="Layer_14">
</g>
<g id="Layer_15">
	<linearGradient id="SVGID_1_" gradientUnits="userSpaceOnUse" x1="89.8189" y1="105" x2="260.1811" y2="105">
		<stop  offset="0" style="stop-color:#1C75BC"/>
		<stop  offset="1" style="stop-color:#262262"/>
	</linearGradient>
	<path class="st52" d="M109.7,104.77c2.58,0,5.16-0.11,7.73,0.08c0.65,0.05,1.32,0.98,1.82,1.63c0.67,0.88,1.44,1.17,2.55,1.17
		c16.83-0.07,33.66-0.09,50.49-0.12c2.03,0,2.05,0,2.04,2.02c-0.01,2.4-0.05,4.79-0.07,7.19c0,0.53,0.05,1.07,0.09,1.81
		c3.37-0.27,6.6-0.46,9.81-0.8c6.01-0.63,12.01-1.34,18.01-2.03c2.17-0.25,3.2-1.48,3.2-3.92c-0.01-9.04,0-18.08-0.11-27.12
		c-0.02-1.6,0.48-2.1,2.04-2.3c6.27-0.8,12.55-1.4,18.76,0.13c2.13,0.53,4.11,1.69,6.1,2.68c0.47,0.23,0.72,0.92,1.28,1.69
		c4.2,0.97,8.43,2.68,11.27,7.07c-0.51,0.08-0.86,0.18-1.22,0.2c-4.74,0.23-9.48,0.42-14.22,0.68c-1.12,0.06-1.93-0.26-2.54-1.2
		c-2.91-4.53-7.15-6.45-12.44-6.38c-2.18,0.03-2.57-0.48-2.59-2.68c0-0.33-0.06-0.66-0.09-0.98c-0.14-0.05-0.29-0.1-0.43-0.14
		c-0.24,0.61-0.69,1.22-0.69,1.83c0,10.09,0.02,20.18,0.11,30.26c0.02,2.47,0.85,3.2,3.41,3.12c-2.02-1.62-1.8-3.76-1.81-5.84
		c-0.03-7.44-0.02-14.88-0.11-22.32c-0.01-1.3,0.72-1.51,1.65-1.61c3.85-0.4,7.02,1.15,9.84,3.57c2.16,1.85,3.46,4.27,4.28,6.77
		c-1.53-1.54-3.06-3.27-4.8-4.76c-2.17-1.86-4.78-2.82-7.65-3c-0.88-0.06-1.28,0.24-1.27,1.17c0.03,4.04-0.03,8.09,0.06,12.13
		c0.04,1.94,1.21,3.26,3.16,3.37c2.07,0.12,4.17-0.15,6.25-0.27c0.78-0.05,1.56-0.16,2.45-0.26c-0.08,0.54-0.14,0.92-0.19,1.29
		c0.13,0.02,0.27,0.07,0.3,0.04c1.5-1.7,3.49-1.66,5.52-1.65c7.04,0.03,8.33,1.2,8.87,8.22c0.08,1.07,0.01,2.14,0.01,3.65
		c-0.37-0.73-0.57-1.09-0.74-1.46c-2.71-5.81-9.25-7.64-14.54-3.96c-1.28,0.89-2.47,2.09-3.28,3.41c-1.13,1.83-2.63,2.62-4.65,2.75
		c-3.29,0.21-6.58,0.45-9.86,0.68c-0.52,0.04-1.05,0.09-1.57,0.14c-0.02,0.14-0.03,0.28-0.05,0.42c0.68,0.14,1.36,0.4,2.04,0.4
		c3.59-0.01,7.19-0.02,10.78-0.17c1.29-0.06,1.63,0.3,1.61,1.55c-0.02,1.56,0.23,3.12,0.36,4.67c0.16,0,0.33,0,0.49,0
		c0.02-0.3,0.06-0.61,0.05-0.91c-0.01-0.35-0.13-0.7-0.08-1.04c0.29-2.2,0.4-4.46,0.99-6.59c0.52-1.87,2.14-2.84,4.1-3
		c1.89-0.16,3.24,0.78,4.27,2.27c0.23,0.33,0.5,0.66,0.6,1.03c0.58,2.31,2.07,3.1,4.35,2.78c0.93-0.13,1.9-0.03,2.84-0.06
		c1.57-0.04,2.84,0.31,3.41,2.04c0.12,0.37,0.82,0.8,1.23,0.78c3.68-0.21,7.36-0.5,11.04-0.81c1.34-0.11,2.13-0.92,2.58-2.17
		c0.53-1.49,1.61-2.34,3.37-2.51c0.42,3.46,0.83,6.82-2.46,9.36c0.4,0.24,0.65,0.37,0.88,0.54c0.98,0.67,1.07,1.44-0.03,1.9
		c-1.49,0.62-3.12,1.19-4.71,1.23c-9.58,0.25-19.17,0.43-28.75,0.47c-10.94,0.05-21.87-0.09-32.81-0.11
		c-23.62-0.04-47.25-0.05-70.87-0.08c-2.13,0-4.27,0-6.4,0c-0.01-0.23-0.02-0.47-0.04-0.7c3.93-0.46,7.86-0.92,12.07-1.41
		C122.23,121.1,117.94,111.77,109.7,104.77z M222.22,123.91c0.42,1.57,0.63,3.03,1.21,4.31c0.81,1.79,2.26,2.02,3.78,0.81
		c2.55-2.03,2.77-7.86,0.38-10.08c-1.33-1.23-2.94-1.17-3.77,0.42C223.07,120.78,222.73,122.41,222.22,123.91z M219.5,127.76
		c-0.18-1.82-0.32-3.28-0.47-4.79c-4.29,0-8.46,0-12.61,0c-0.21,1.8,0.53,3.17,2.17,3.42C212.12,126.94,215.68,127.3,219.5,127.76z
		 M191.64,125.15c-0.49-1.55-0.71-2.91-1.32-4.06c-0.84-1.6-2.34-1.66-3.57-0.36c-1.86,1.97-2.25,6.62-0.74,8.88
		c1.04,1.56,2.65,1.77,3.65,0.2C190.57,128.39,191.02,126.68,191.64,125.15z M192.69,124.35c0.43,1.47,0.61,2.74,1.15,3.82
		c0.91,1.81,2.55,1.9,3.84,0.37c1.68-2,2.04-6.31,0.71-8.52c-1.08-1.78-2.86-1.98-3.93-0.21
		C193.62,121.22,193.24,122.9,192.69,124.35z M240.4,127.16c0.02,0.31,0.03,0.61,0.05,0.92c5.19,0.14,10.31-0.57,15.44-1.14
		c-0.02-0.27-0.04-0.54-0.06-0.81C250.69,126.48,245.54,126.82,240.4,127.16z M234.27,123.8c1.08,1.92,3.64,2.61,5.86,1.54
		c-0.38-0.54-0.69-1.43-1.1-1.47C237.49,123.69,235.93,123.8,234.27,123.8z M225.5,85.34c-0.71-0.51-1.13-1.05-1.57-1.06
		c-0.36-0.01-0.73,0.6-1.1,0.94c0.4,0.42,0.75,0.99,1.24,1.2C224.28,86.51,224.81,85.88,225.5,85.34z M227.56,86.94
		c0.55-0.66,1.16-1.08,1.12-1.42c-0.06-0.46-0.61-0.87-0.94-1.29c-0.4,0.35-1.08,0.66-1.13,1.06
		C226.55,85.7,227.1,86.19,227.56,86.94z M221.81,85.38c-0.68-0.53-1.08-1.08-1.52-1.11c-0.35-0.03-0.75,0.56-1.13,0.87
		c0.38,0.43,0.69,1.01,1.17,1.23C220.55,86.48,221.1,85.88,221.81,85.38z M256.96,124.37c1.98-0.47,2.31-1.05,1.67-2.98
		C258.07,122.38,257.52,123.38,256.96,124.37z M120.16,144.84c-18.94-14.2-25.4-39.69-15.21-60.88
		c5.07-10.54,12.89-18.47,23.5-23.43c13.48-6.3,27.17-6.32,40.92-0.69c-18.21-11.18-49.66-10.42-68.54,14.17
		C82,98.54,87.98,134.13,113.69,151.11c26.04,17.21,58.49,8.18,73.21-13.48C168.06,158.77,138.66,158.71,120.16,144.84z
		 M244.94,55.52c-6.09-2.2-12.09-2.33-17.89,0.27c-4.82,2.16-9.46,4.72-14.22,7.02c-0.62,0.3-1.59,0.37-2.22,0.11
		c-9.93-4.19-19.83-8.45-29.74-12.67c-0.53-0.22-1.21-0.49-1.69-0.33c-1.36,0.44-2.65,1.09-4.25,1.77c0.72,0.53,1.2,0.88,1.42,1.04
		c0.66-0.59,1.11-1,1.56-1.41c0.12,0.56,0.4,1.15,0.31,1.67c-0.17,0.97,0.26,1.46,0.96,1.97c6.17,4.5,12.32,9.02,18.46,13.55
		c0.53,0.39,1,0.87,1.6,1.41c-0.53,0.36-0.83,0.61-1.17,0.8c-5.39,2.94-10.76,5.9-16.19,8.77c-0.62,0.33-1.57,0.39-2.25,0.17
		c-3.95-1.24-7.88-2.54-11.78-3.93c-1.32-0.47-2.39-0.22-3.67,0.53c0.58,0.38,1.02,0.68,1.47,0.95c3.39,2.01,6.77,4.05,10.19,6.01
		c0.99,0.57,1.45,1.26,1.38,2.4c-0.06,1.03-0.01,2.07-0.01,3.52C200.06,77.81,222.5,66.66,244.94,55.52z M177.66,94.83
		c-0.36,0.13-0.72,0.84-0.71,1.27c0.16,6.23,0.4,12.46,0.59,18.7c0.03,0.91,0.37,1.21,1.29,1.1c6.83-0.84,13.67-1.62,20.5-2.46
		c2.25-0.28,2.99-1.18,2.99-3.49c0.01-6.84,0-13.67,0-20.51c0-1.13,0-2.26,0-3.72C193.83,88.84,185.73,91.8,177.66,94.83z
		 M180.07,136.35c-3.39,0.03-6.78,0.08-10.17,0.09c-1.65,0-3.07,0.52-4.47,1.41c-1.89,1.2-3.87,2.28-5.89,3.26
		c-9.42,4.58-19.18,5.64-29.21,2.4c-3.22-1.05-6.29-2.61-8.94-3.73c17.47,15.51,45.51,12.21,59.72-3.25
		C180.63,136.44,180.35,136.35,180.07,136.35z M117.13,76.03c13.37-10.18,27.63-11.75,42.85-4.54c0.62,0.29,1.57,0.27,2.24,0.03
		c2.68-0.94,5.32-2.01,7.97-3.04c0.76-0.3,1.52-0.61,2.41-0.97c-17.26-10.48-39.81-8.26-55.72,8.63
		C116.96,76.1,117.06,76.08,117.13,76.03z M244.64,112.36c0.17,0.61,0.38,1.22,0.51,1.84c0.49,2.4,0.94,4.8,1.42,7.19
		c0.25,1.23,0.69,2.29,2.41,2.32c0.18-3.87,0.37-7.68,0.55-11.49c0.13,0.01,0.25,0.01,0.38,0.02c0.33,3.69,0.67,7.37,1,11.06
		c0.19,0.02,0.39,0.05,0.58,0.07c2.41-3.56,1.38-8.08,2.99-11.89c-0.16,3.74-0.32,7.49-0.49,11.23c0.21,0.06,0.42,0.12,0.63,0.18
		c0.29-0.69,0.81-1.38,0.84-2.08c0.15-3.49,0.21-6.98,0.23-10.47c0.02-2.99-0.67-3.99-3.61-4.56c-5.17-1-10.32-0.26-15.45,0.5
		c-0.02,0-0.03,0.09-0.04,0.13c0.01,0.04,0.01,0.11,0.04,0.12c0.22,0.1,0.45,0.2,0.68,0.27c2.72,0.8,4.13,2.64,4.33,5.45
		c0.12,1.79,0.18,3.59,0.41,5.37c0.18,1.37,0.43,2.78,0.95,4.05c0.34,0.83,1.2,1.46,1.82,2.17c0.16-0.11,0.32-0.21,0.48-0.32
		c-0.32-3.71-0.63-7.42-0.95-11.13C244.45,112.4,244.55,112.38,244.64,112.36z M228.23,96.38c0.66,2.3,1.33,4.6,1.99,6.9
		c0.65,2.26,1.08,2.45,3.42,2.24c4.87-0.44,9.74-0.78,14.61-1.14c0.73-0.05,1.46-0.01,2.31-0.01c-0.02-2.35-0.63-4.43-1.6-6.41
		c-0.99-2.02-2.58-2.89-4.86-2.73c-2.79,0.2-5.58,0.24-8.38,0.36c-2.48,0.11-4.97,0.24-7.41,0.36
		C228.27,96.19,228.2,96.3,228.23,96.38z M143.57,87.78c0.88,0.02,1.26-0.23,1.24-1.18c-0.06-1.84-0.05-3.69,0-5.53
		c0.03-0.92-0.31-1.22-1.21-1.21c-4.19,0.03-8.38,0.03-12.57,0c-0.87-0.01-1.28,0.25-1.26,1.19c0.04,1.84,0.04,3.69,0,5.53
		c-0.02,0.91,0.34,1.22,1.24,1.2c2.09-0.05,4.19-0.01,6.28-0.01C139.38,87.77,141.47,87.74,143.57,87.78z M215.5,103.72
		c0,1.92,0.55,2.51,2.51,2.45c3.33-0.1,6.66-0.28,9.99-0.45c0.17-0.01,0.34-0.15,0.49-0.21c-0.59-5.13-6.94-11.21-12.99-12.33
		C215.49,96.77,215.49,100.24,215.5,103.72z M136.82,89.94c-0.01-0.32-0.63-0.87-0.98-0.87c-4.24-0.06-8.49-0.03-12.74-0.05
		c-0.84,0-1.14,0.29-1.13,1.14c0.04,2.18,0.01,4.36,0.01,6.64c5.01,0,9.82,0,14.87,0C136.86,94.42,136.9,92.18,136.82,89.94z
		 M154.46,87.64c-2.09,0-4.19-0.03-6.28,0.01c-0.94,0.02-1.36-0.28-1.33-1.28c0.05-1.79,0.04-3.59,0-5.38
		c-0.02-0.89,0.29-1.24,1.21-1.23c4.19,0.03,8.37,0.03,12.56,0c0.88-0.01,1.27,0.25,1.24,1.18c-0.05,1.84-0.05,3.69-0.01,5.53
		c0.02,0.95-0.41,1.19-1.27,1.18C158.54,87.62,156.5,87.64,154.46,87.64z M148.41,80.69c-0.01,0.1-0.03,0.2-0.04,0.29
		c3.48,0,6.96,0.05,10.44-0.03c1.3-0.03,1.81,0.32,1.69,1.67c-0.11,1.23-0.02,2.48-0.02,3.71c0.15,0,0.31-0.01,0.46-0.01
		c0-1.87,0-3.75,0-5.64C156.67,80.69,152.54,80.69,148.41,80.69z M138.91,96.76c0-2.39-0.03-4.67,0.04-6.95
		c0.01-0.27,0.62-0.75,0.96-0.75c4.29-0.05,8.58-0.06,12.87,0c0.35,0,0.99,0.55,1,0.86c0.09,2.23,0.05,4.47,0.05,6.84
		C148.86,96.76,144.01,96.76,138.91,96.76z M140.38,89.74c-0.01,0.13-0.02,0.27-0.03,0.4c0.46,0.03,0.92,0.08,1.39,0.08
		c2.94,0.01,5.88,0,8.81,0c1.93,0,1.93,0,1.93,1.98c0,1.07,0,2.13,0,3.2c0.19-0.01,0.38-0.02,0.58-0.03c0-1.58,0.05-3.16-0.04-4.74
		c-0.02-0.32-0.55-0.86-0.86-0.87C148.23,89.72,144.3,89.74,140.38,89.74z M170,96.89c-2.16,0-4.14,0-6.12,0
		c-2.49,0-4.99-0.03-7.48,0.02c-0.92,0.02-1.37-0.18-1.33-1.23c0.07-1.84,0.05-3.69,0.01-5.54c-0.02-0.84,0.29-1.15,1.13-1.14
		c4.24,0.02,8.48-0.01,12.72,0.04c0.36,0,1.02,0.43,1.03,0.68C170.04,92.05,170,94.38,170,96.89z M156.55,89.74
		c0,0.16,0,0.32,0,0.48c0.52,0,1.05,0,1.57,0c3.04,0,6.07,0.03,9.11-0.02c1.1-0.02,1.53,0.33,1.45,1.46
		c-0.08,1.24-0.02,2.48-0.02,3.73c0.18,0,0.36,0,0.54,0c0-1.69,0.02-3.39-0.03-5.08c-0.01-0.2-0.47-0.54-0.72-0.54
		C164.48,89.73,160.52,89.74,156.55,89.74z M162.49,106.07c-2.09,0-4.18-0.03-6.27,0.01c-0.82,0.01-1.16-0.26-1.14-1.12
		c0.04-1.89,0.03-3.78,0-5.68c-0.01-0.75,0.26-1.08,1.04-1.08c4.28,0.02,8.56,0.02,12.85,0c0.75,0,1.08,0.27,1.06,1.05
		c-0.03,1.94-0.04,3.88,0,5.82c0.01,0.83-0.39,1-1.11,1C166.78,106.06,164.64,106.08,162.49,106.07z M156.64,99.16
		c0,0.1,0,0.2,0,0.3c3.16,0,6.31,0,9.47,0c2.56,0,2.56,0,2.56,2.51c0,0.9,0,1.81,0,2.71c0.16-0.01,0.32-0.02,0.48-0.03
		c0-1.82,0-3.63,0-5.49C164.91,99.16,160.77,99.16,156.64,99.16z M153.82,98.24c0,2.51,0.03,4.75-0.04,6.98
		c-0.01,0.29-0.57,0.81-0.88,0.82c-4.33,0.05-8.66,0.02-12.99,0.05c-0.81,0-1.02-0.38-1.01-1.1c0.02-1.89-0.03-3.79,0.04-5.67
		c0.01-0.36,0.44-1.02,0.68-1.02C144.29,98.22,148.96,98.24,153.82,98.24z M140.46,99.04c-0.01,0.15-0.01,0.3-0.02,0.45
		c3.95,0,7.91,0,12.11,0c0,1.84,0,3.52,0,5.19c0.16,0,0.33,0,0.49-0.01c0-1.66,0.03-3.32-0.04-4.97c-0.01-0.23-0.49-0.63-0.76-0.64
		C148.32,99.03,144.39,99.04,140.46,99.04z M122,98.21c2.67,0,5.15,0,7.62,0c2,0,3.99,0.04,5.99-0.01c0.98-0.03,1.32,0.34,1.29,1.31
		c-0.05,1.8-0.03,3.59-0.01,5.39c0.01,0.77-0.17,1.21-1.07,1.2c-4.24-0.03-8.49,0-12.73-0.05c-0.37,0-1.03-0.42-1.04-0.67
		C121.96,103.05,122,100.71,122,98.21z M135.61,104.82c0.21,0,0.42,0,0.64,0c0-1.47-0.06-2.95,0.02-4.41
		c0.06-1.1-0.31-1.47-1.44-1.47c-2.79,0.01-5.57-0.14-8.36-0.16c-1.08-0.01-2.16,0.16-3.24,0.25c0.01,0.17,0.02,0.34,0.03,0.51
		c4.04,0,8.08,0,12.35,0C135.61,101.43,135.61,103.13,135.61,104.82z M236.39,119.08c-0.75-0.24-1.43-0.69-2.15-1.05
		c0.52-0.46,1.04-0.92,1.58-1.4c-0.82-1.81-3.72-2.71-6.28-2.01c1.21,1.87,2.43,3.83,3.75,5.71c0.3,0.43,0.95,0.79,1.47,0.84
		c1.32,0.12,2.66,0.04,4.19,0.04C238.62,119.33,237.4,119.4,236.39,119.08z M256.82,118.93c1.41-0.42,2.48-1.25,2.56-2.51
		c0.09-1.43-0.97-2.4-2.56-3.08C256.82,115.31,256.82,117.06,256.82,118.93z M225.22,127.44c0.47-0.43,1.14-0.78,1.36-1.32
		c0.69-1.68,0.79-3.42-0.32-4.98c-0.22-0.3-0.82-0.33-1.24-0.49c1.43,2.32,1.31,4.32-0.13,6.33
		C225.01,127.13,225.12,127.28,225.22,127.44z M189.88,122.81c-0.48-1.26-1.03-1.59-2.1-1.25c1.66,2.94,1.7,4.24,0.17,7.89
		C189.99,128.49,190.84,125.35,189.88,122.81z M187.8,126.62c0.64-0.93,0.81-1.85-0.49-2.72c0,0.91,0,1.83,0,2.74
		C187.48,126.64,187.64,126.63,187.8,126.62z M197.19,120.56c-0.34-0.33-0.94-0.37-1.43-0.55c-0.07,0.1-0.15,0.21-0.22,0.31
		c2.14,2.5,1.7,5.11,0.16,8.05C198.27,126.93,198.98,122.29,197.19,120.56z M195.86,125.43c0-0.92,0-1.83,0-2.75
		C194.71,123.56,194.67,124.47,195.86,125.43z"/>
</g>
</svg>
